<svg width="255" height="60" fill="none" xmlns="http://www.w3.org/2000/svg"><g clip-path="url(#clip0_479_38200)"><path d="M49.459 29.952a21.1 21.1 0 0 0-4.183-7.095 23 23 0 0 0-2.977-2.785 27.5 27.5 0 0 0-3.361-2.21 29.3 29.3 0 0 0-7.357-2.814 31 31 0 0 0-.96-.192c.605-2.598 1.44-5.393 3.304-7.19 1.272-1.223 2.996-2.086 3.712-3.788.82-2.013-.183-4.39-2.627-3.782a6.47 6.47 0 0 0-3.51 2.536 15.2 15.2 0 0 0-2.286 5.518c-.48 2.109-.86 4.242-1.239 6.37a27 27 0 0 0-1.968-.105l-2.152.063h-.09l-.37.038a4.5 4.5 0 0 1-1.576-.513c-.734-.422-1.709-1.175-2.626-.853-1.004.345-1.393 1.74-2.175 2.42q-.415.361-.88.657-1.328.525-2.597 1.184a12.8 12.8 0 0 1-.778-4.468c.072-2.492 1.369-5.752-.086-8.053-.764-1.199-2.401-1.64-3.515-.758a3.56 3.56 0 0 0-1.1 1.673 7.1 7.1 0 0 0-.321 2.464c0 .317.033.633.067.96.033.325.077.7.134 1.044a24.5 24.5 0 0 0 1.724 5.547c.418 1.04.898 2.07 1.378 3.092l-.48.311c-.447.322-.898.648-1.33.998a24.7 24.7 0 0 0-5.32 6.045 22 22 0 0 0-1.993 3.59 24.4 24.4 0 0 0-1.287 3.931 23.3 23.3 0 0 0-.596 4.123C0 38.634 0 39.358 0 40.024v.245c.038.608.077 1.236.168 1.855.39 2.77 1.312 5.44 2.713 7.862 2.756 4.909 7.39 8.629 12.394 9.99q.091.015.182 0a.702.702 0 0 0 .427-1.26 26.9 26.9 0 0 1-8.643-10.912 26.6 26.6 0 0 1-1.748-6.462 23 23 0 0 1-.067-6.634 26 26 0 0 1 1.897-6.515 21.2 21.2 0 0 1 4.053-5.585 20.78 20.78 0 0 1 12.58-5.901c4.771-.514 9.563.76 13.445 3.576a19.9 19.9 0 0 1 4.759 5.014 23.7 23.7 0 0 1 2.92 6.103 22.07 22.07 0 0 1 0 13.336c-1.062 3.313-2.598 5.969-4.567 7.905-3.429 3.356-7.745 3.409-10.007 3.136-5.733-.7-12.432-7.704-12.883-16.635-.159-3.155.326-5.422 1.57-7.35a4.15 4.15 0 0 1 3.183-1.85 4.65 4.65 0 0 1 3.842 1.506 9.35 9.35 0 0 1 2.43 4.63q.274 1.332.336 2.69c.043.542.081 1.079.149 1.615q.025.191.11.365a1.12 1.12 0 0 0 .816.633 1.05 1.05 0 0 0 .932-.269l.105-.115c.154-.196.442-.724.96-1.716.928-1.702 2.483-4.554 3.425-5.537a1.61 1.61 0 0 1 1.536-.585 2.72 2.72 0 0 1 1.767 1.836c.318.94.46 1.93.418 2.92-.14 3.413-1.503 6.711-4.293 10.302-.48.599-1.92 2.286-2.847 3.312-.38.432-.043.997.533 1.012a2.8 2.8 0 0 0 1.263-.384c1.262-.67 3.903-3.197 5.627-7.085 1.086-2.445 2.704-7.129 1.604-10.935-.48-1.711-1.344-2.876-2.52-3.519a4.62 4.62 0 0 0-3.64-.196c-2.008.652-3.146 2.54-4.15 4.209l-.388.642c-.615-2.397-1.686-5.201-4.322-6.6a10.62 10.62 0 0 0-9.373-.428 9.74 9.74 0 0 0-5.517 6.62c-.682 2.83-.264 5.753 1.267 8.898 2.507 5.173 6.641 9.276 12.288 12.21a20.6 20.6 0 0 0 6.286 1.73c5.051.432 9.795-1.73 11.596-3.197a21 21 0 0 0 1.815-1.63 23.4 23.4 0 0 0 4.384-6.754 22.8 22.8 0 0 0 .644-16.17" fill="#1677ff"/><path d="M86.087 16.889H75.124v2.34h8.279l-.514 7.967H78.6l.48-6.712h-2.4l-.668 9.051h10.232c-.029 2.996-.177 4.765-.442 5.484-.374 1.021-1.032 2.167-3.553 2.167h-3.923v2.397h4.034c3.058 0 4.902-1.141 5.8-3.59.528-1.439.6-4.684.6-7.71v-1.087H85.4zm22.914 6.481 2.06-.264a60 60 0 0 0-.547-7.32l-2.488.36s0 .11.039.278c.445 2.295.758 4.615.936 6.946" fill="#000"/><path d="M83.551 32.042h-8.69v2.474h-2.507v2.195a.26.26 0 0 1-.26.255h-1.743v-4.21H71.5a2.7 2.7 0 0 0 2.719-1.743 2.7 2.7 0 0 0 .162-1.133V19.31h-4.01v-3.356h-2.51v3.356h-3.9v13.447h3.9v4.204h-3.953v2.622h8.927a1.893 1.893 0 0 0 2.05-2.047v-2.987h8.667zm-13.2-10.278h1.498v8.188a.35.35 0 0 1-.35.35H70.35zm-2.511 8.538h-1.388v-8.538h1.388zm43.754 2.172a25 25 0 0 0 2.276-3.591c1.7-3.298 1.854-6.831 1.854-10.158h-2.622c0 3.01-.12 6.18-1.556 8.96a22 22 0 0 1-1.633 2.66 23 23 0 0 1-1.632-2.66c-1.441-2.78-1.551-5.95-1.551-8.96h-2.622c0 3.183.139 6.86 1.844 10.158a25 25 0 0 0 2.271 3.59 49 49 0 0 1-5.123 4.92v-2.877h-2.512v2.195a.25.25 0 0 1-.074.18.26.26 0 0 1-.18.075h-1.748v-4.21h1.152a2.7 2.7 0 0 0 2.696-1.75 2.7 2.7 0 0 0 .161-1.126V19.31h-4.01v-3.356h-2.51v3.356h-3.88v13.447h3.899v4.204h-3.952v2.622h8.931a1.92 1.92 0 0 0 1.738-.844l1.158 1.376a58 58 0 0 0 5.935-5.6 58 58 0 0 0 5.959 5.595l1.685-2.004a53.6 53.6 0 0 1-5.954-5.632m-13.008-10.71h1.498v8.188a.35.35 0 0 1-.346.35h-1.152zm-2.511 8.538h-1.388v-8.538h1.388zm65.319-6.783-.961 2.253a88 88 0 0 0 8.543 4.314l1.09-2.742-.332-.144a89 89 0 0 1-8.34-3.681" fill="#000"/><path d="m155.603 25.657-.918-2.23h15.078v-2.64h-6.305a59 59 0 0 0 2.454-3.97l-2.17-1.218s-.053.096-.14.24a61 61 0 0 1-2.737 4.947h-5.762l.73-.594c-2.036-2.546-4.043-4.574-4.139-4.674l-1.878 1.836.197.206c.428.393 1.767 1.63 3.285 3.226h-6.699v2.642h8.019a93 93 0 0 1-8.537 3.801l-.341.154 1.075 2.751a94 94 0 0 0 8.788-4.477m36.253 5.537a66 66 0 0 0 5.393 5.167l1.92-2.224-.235-.201a67 67 0 0 1-3.385-2.742h2.641v-2.642h-3.842v-8.15h3.842v-2.617h-3.842v-2.253h-2.401v2.253h-9.834v-2.253h-2.425v2.253h-4.158v2.642h4.158v8.15h-4.158v2.64h2.708a69 69 0 0 1-3.39 2.743c-.139.124-.23.196-.235.201l1.921 2.224a65 65 0 0 0 5.392-5.167h3.717v1.6h-5.172v2.398h5.181v1.73h-9.603v2.642h21.608V36.94h-9.604v-1.73h5.181v-2.397h-5.157v-1.62zm-9.743-7.225h9.82v.878h-9.82zm9.82-3.542v1.145h-9.82v-1.145zm-9.82 6.836h9.82v1.29h-9.82zm39.039-1.151v-1.51a36 36 0 0 0 5.234 3.28l1.181-3.251a19.86 19.86 0 0 1-10.184-8.576h-4.879c-.034.067-3.673 6.553-9.868 9.228l1.47 2.876A19.2 19.2 0 0 0 209.051 25v1.093h4.841v2.483h-8.696v2.642h8.696v5.704h-1.206c-2.084-2.584-4.182-4.707-4.288-4.803l-1.92 1.917.206.211c.384.35 1.484 1.371 2.804 2.723h-6.645v2.642h24.518v-2.67h-6.175c1.301-2.014 2.17-3.653 2.223-3.75l-2.569-1.485s-.053.1-.135.249a57 57 0 0 1-2.607 4.985h-1.786v-5.704h8.696v-2.642h-8.696v-2.483zm-1.393-2.622h-9.094a27 27 0 0 0 3.596-4.794h1.388a19.6 19.6 0 0 0 4.11 4.794" fill="#000"/><path d="M167.3 31.831v-2.397h-18.665v7.527h-2.713v2.641h24.542v-2.66h-3.14zm-2.425 5.11h-2.992v-5.11h2.992zm-5.412 0h-2.991v-5.11h2.991zm-8.408-5.11h2.997v5.11h-2.997zm-15.543-1.697-2.368 1.295a26.7 26.7 0 0 0 3.842 5.388h-12.629a27.3 27.3 0 0 0 7.347-10.547l-2.526-.958c-2.881 7.607-9.411 11.64-9.474 11.677l.696 2.503h20.24l.644-2.531c-.048.005-2.915-1.62-5.772-6.827m113.054 1.879-2.233 1.467a24 24 0 0 0 2.655 3.356h-10.986a16.3 16.3 0 0 0 4.46-5.676h10.084v-2.632h-19.985v2.632h6.881c-2.881 4.823-7.039 5.652-7.236 5.686l.23 2.636h20.24l.619-2.502s-2.252-1.227-4.729-4.967m-114-15.326-2.56.96c.044.234 1.182 5.881 9.71 12.056l1.652-3.04a19.86 19.86 0 0 1-8.802-9.976m-5.397.926-2.685-.834c-.024.071-2.77 6.984-8.556 10.455l1.839 2.646c6.713-4.046 9.291-11.932 9.402-12.267m115.642-1.583-.077.049h-4.759c-.033.067-3.673 6.553-9.863 9.228l1.47 2.876a19.9 19.9 0 0 0 5.915-4.055v1.855h10.113v-2.177a34 34 0 0 0 6.209 4.051L255 24.612a19.9 19.9 0 0 1-10.189-8.581m-6.55 7.311a27.3 27.3 0 0 0 3.476-4.645h1.355a19.4 19.4 0 0 0 3.976 4.626zM68.022 45.283a88 88 0 0 0-4.773 12.656 5.8 5.8 0 0 0 2.252 0 85 85 0 0 1 1.086-3.452 18 18 0 0 1 2.92-.105 7.8 7.8 0 0 1 2.741.599c.288.13.437.22.514.45.153.48.427 1.376.754 2.508q.56.114 1.133.11a5.2 5.2 0 0 0 1.114-.106 81 81 0 0 0-4.764-12.66zm1.729 7.493a9.6 9.6 0 0 0-2.699.374c.778-2.397 2.05-5.35 2.272-5.844.062-.14.124-.182.192-.182.067 0 .125.033.182.153.236.523 1.503 3.476 2.252 5.7a13 13 0 0 0-2.199-.201m106.432-7.493a88 88 0 0 0-4.773 12.656q.563.116 1.138.11a5.2 5.2 0 0 0 1.109-.11 91 91 0 0 1 1.09-3.452 18 18 0 0 1 2.92-.105 7.8 7.8 0 0 1 2.742.599c.283.13.437.22.514.45.153.48.427 1.376.749 2.508a5.5 5.5 0 0 0 1.133.11q.563.008 1.114-.106a80 80 0 0 0-4.759-12.66zm1.724 7.493a9.7 9.7 0 0 0-2.699.374c.783-2.397 2.056-5.35 2.272-5.844.067-.14.129-.182.197-.182.067 0 .124.033.177.153.235.523 1.508 3.476 2.252 5.7a13 13 0 0 0-2.199-.201m-50.861-7.666a6.57 6.57 0 0 0-6.065 4.047 6.55 6.55 0 0 0 1.425 7.142 6.57 6.57 0 0 0 10.1-.998 6.54 6.54 0 0 0 .605-6.15 6.55 6.55 0 0 0-3.553-3.544 6.6 6.6 0 0 0-2.512-.497m0 10.911a4.37 4.37 0 0 1-4.033-2.696 4.36 4.36 0 0 1 .95-4.753 4.37 4.37 0 0 1 4.761-.943 4.37 4.37 0 0 1 2.697 4.03 4.35 4.35 0 0 1-1.282 3.086 4.36 4.36 0 0 1-3.093 1.276m80.253-10.911a6.57 6.57 0 0 0-6.065 4.047 6.55 6.55 0 0 0 1.425 7.142 6.57 6.57 0 0 0 7.155 1.417 6.57 6.57 0 0 0 2.945-2.415 6.54 6.54 0 0 0-.82-8.273 6.57 6.57 0 0 0-4.64-1.918m0 10.911a4.37 4.37 0 0 1-4.037-2.693 4.36 4.36 0 0 1 3.184-5.948 4.38 4.38 0 0 1 4.486 1.855 4.36 4.36 0 0 1-.542 5.51 4.37 4.37 0 0 1-3.091 1.276M144.054 45.35v7.488c0 2.028-1.2 3.313-3.188 3.313s-3.189-1.285-3.189-3.313V45.35a5.6 5.6 0 0 0-2.208 0v7.56c0 3.686 2.367 5.302 5.397 5.302s5.397-1.616 5.397-5.302v-7.56a5.6 5.6 0 0 0-2.209 0m20.576-.144h-3.731V58.05h3.731c4.014 0 6.319-2.34 6.319-6.42 0-4.079-2.305-6.423-6.319-6.423m-.096 10.503h-1.498v-8.15h1.498c2.622 0 4.25 1.564 4.25 4.085s-1.628 4.066-4.25 4.066M85.99 45.316v9.152a80 80 0 0 0-6.458-9.152 5 5 0 0 0-1.09-.11 5 5 0 0 0-1.085.11V57.94c.355.075.718.112 1.08.11q.547.003 1.081-.11v-9.78c2.31 3.178 4.48 6.453 6.43 9.78a5.5 5.5 0 0 0 2.199 0V45.316a5 5 0 0 0-1.08-.11 5 5 0 0 0-1.076.11m70.826 0v9.152a81 81 0 0 0-6.458-9.152 5 5 0 0 0-1.09-.11 5 5 0 0 0-1.085.11V57.94q.534.113 1.08.11a5 5 0 0 0 1.081-.11v-9.78c2.314 3.178 4.485 6.453 6.434 9.78a5.5 5.5 0 0 0 2.199 0V45.316a5 5 0 0 0-1.08-.11 5 5 0 0 0-1.081.11m68.661-.11a5 5 0 0 0-1.08.11v9.152a81 81 0 0 0-6.458-9.152 5 5 0 0 0-1.09-.11 5 5 0 0 0-1.086.11V57.94q.535.113 1.081.11a5 5 0 0 0 1.08-.11v-9.78a118 118 0 0 1 6.435 9.78 5.5 5.5 0 0 0 2.199 0V45.316a5 5 0 0 0-1.081-.11M90.034 47.363h4.586V57.94q.58.114 1.171.11.594.003 1.177-.11V47.363h4.585v-2.037H90.029zm93.65 0h4.585V57.94q.583.114 1.177.11.594.003 1.176-.11V47.363h4.581v-2.037h-11.524zm12.825-1.927V57.94q.583.114 1.177.11.593.003 1.176-.11V45.436a6 6 0 0 0-1.176-.11 6 6 0 0 0-1.177.11m-87.244 1.927V57.94q.58.114 1.172.11.594.003 1.176-.11v-5.274h6.78v-2.037h-6.78v-3.265h7.419v-2.037h-9.767z" fill="#000"/></g><defs><clipPath id="clip0_479_38200"><path fill="#fff" d="M0 0h255v60H0z"/></clipPath></defs></svg>