<svg width="179" height="60" fill="none" xmlns="http://www.w3.org/2000/svg"><g clip-path="url(#clip0_477_37984)"><path d="M26.07 17.208a1.2 1.2 0 0 1-.566-.308 1.2 1.2 0 0 1-.33-.556 2.84 2.84 0 0 1-.019-1.378c.418-2.353.794-4.714 1.337-7.047.44-1.89 1.057-3.765 2.192-5.354.816-1.143 1.998-2.124 3.367-2.47 2.337-.593 3.31 1.72 2.497 3.683-.684 1.656-2.342 2.49-3.559 3.685-2.226 2.177-2.924 5.852-3.566 8.786a1.17 1.17 0 0 1-.476.77 1.14 1.14 0 0 1-.878.189" fill="url(#paint0_linear_477_37984)"/><path d="M21.759 14.207a4.9 4.9 0 0 1-2.364-.583c-.708-.41-1.644-1.143-2.522-.832-.963.34-1.337 1.696-2.086 2.361-1.052.931-2.332 1.442-3.517 2.157a24 24 0 0 0-2.949 2.064 22.92 22.92 0 0 0-7.618 12.07 23.17 23.17 0 0 0 .957 14.294 22.8 22.8 0 0 0 9.157 10.917 22.35 22.35 0 0 0 13.768 3.26c11.567-.996 20.609-10.88 20.69-22.619a23.1 23.1 0 0 0-6.23-15.961c-4.039-4.302-9.567-6.849-15.42-7.103-.625-.025-1.262 0-1.866-.025" fill="url(#paint1_linear_477_37984)"/><path d="M6.195 5.643c.186-.62.54-1.175 1.02-1.601a2.206 2.206 0 0 1 3.107.303c1.85 2.242.45 5.673.376 8.253-.064 2.174.658 4.418 1.52 6.338.17.373.45.747.492 1.178a1.485 1.485 0 0 1-.762 1.572c-.909.462-1.499-.519-1.872-1.219a55 55 0 0 1-2.34-5.045 24 24 0 0 1-1.649-5.434q-.084-.507-.132-1.018a17 17 0 0 1-.064-.927 7 7 0 0 1 .304-2.4" fill="url(#paint2_linear_477_37984)"/><path d="M43.633 34.161c-.73-8.561-7.476-15.484-15.05-15.484s-13.066 6.92-12.346 15.44 7.417 15.451 14.973 15.486 13.153-6.878 12.423-15.442m-3.95 9.712a10.4 10.4 0 0 1-3.38 2.567c-1.288.612-2.687.95-4.11.992-3.244.102-6.43-1.233-8.99-3.753a15.7 15.7 0 0 1-4.543-9.617c-.388-3.898.712-7.635 3.035-10.263a10.4 10.4 0 0 1 3.39-2.57 10.3 10.3 0 0 1 4.12-.986h.34c3.194 0 6.32 1.405 8.812 3.95a15.76 15.76 0 0 1 4.384 9.54c.354 3.837-.764 7.535-3.057 10.135z" fill="#fff"/><path d="m128.161 37.46.416-2.198c-2.949-.573-4.669-1.833-5.638-2.874h5.712v-2.186h-9.612v-1.128h8.879v-2.085h-8.468v-.996h7.888v-2.027h-7.888v-1.098h7.888v-2.032h-7.888V19.79h8.468v-2.082h-8.156c.489-.308.908-.72 1.228-1.205.246-.411.391-.66.403-.685l-2.027-1.126q-.34.632-.757 1.213c-1.054 1.494-1.966 1.8-3.576 1.8h-2.56q.653-.911 1.204-1.89l-2.03-1.123a26.8 26.8 0 0 1-5.743 6.781l1.474 1.798c.386-.328.738-.657 1.099-.996v4.575c0 1.494.703 2.214 2.185 2.214h6.07v1.128h-9.617v2.186h5.712c-.971 1.041-2.704 2.301-5.638 2.874l.415 2.199c4.967-.966 7.169-3.7 7.985-5.073h1.143v5.304h2.312v-5.304h1.128c.821 1.382 3.023 4.117 7.989 5.083m-11.024-10.47h-5.952c-.378 0-.437-.06-.437-.444v-.55h6.389zm0-3.024h-6.389v-1.098h6.389zm0-3.13h-6.389v-.914l.11-.132h6.279zm36.814 12.674V15.875h-20.938V37.7h16.802c2.691 0 4.136-1.462 4.136-4.189m-2.313 0c0 1.156-.681 1.848-1.823 1.848h-14.5v-17.14h16.313z" fill="#000"/><path d="m136.637 29.773.804 2.197c3.377-1.268 6.665-3.773 8.557-6.388v4.435a1.73 1.73 0 0 1-.542 1.194c-.329.31-.766.476-1.215.46h-2.077v2.241h2.281c2.244 0 3.866-1.586 3.866-3.79v-5.827h1.676v-2.241h-1.676V19.65h-2.313v2.405h-8.967v2.241h7.158c-1.671 2.19-4.701 4.403-7.552 5.476M77.335 33.99c.492-1.35.556-4.374.556-7.202v-1.014h-3.092l.627-9.632h-10.09v2.186h7.618l-.475 7.446h-3.944l.44-6.265h-2.212l-.607 8.452h9.422c-.03 2.796-.164 4.447-.408 5.12-.346.956-.95 2.024-3.27 2.024h-3.613v2.241h3.718c2.809.008 4.505-1.068 5.33-3.357" fill="#000"/><path d="M65.095 35.436v-2.791h7.991V30.3h-7.994v2.321h-2.31v2.05a.25.25 0 0 1-.068.172.24.24 0 0 1-.166.077h-1.602v-3.955h1.057c1.59 0 2.634-1.058 2.634-2.67v-9.89h-3.69v-3.123h-2.313v3.122h-3.586v12.561h3.59v3.932h-3.636v2.456h8.217c1.168 0 1.875-.727 1.875-1.918m-4.149-14.74h1.379v7.653c0 .087-.034.17-.095.23a.32.32 0 0 1-.227.096h-1.057zm-2.312 7.97h-1.278v-7.97h1.278zm37.905-6.467 1.898-.249a58 58 0 0 0-.504-6.838l-2.29.329.034.248a58 58 0 0 1 .862 6.51" fill="#000"/><path d="M104.388 35.97c-2.114-1.796-3.95-3.487-5.48-5.265a23.4 23.4 0 0 0 2.096-3.357c1.567-3.08 1.698-6.378 1.698-9.49h-2.416c0 2.811-.111 5.775-1.43 8.37a21 21 0 0 1-1.502 2.49 21 21 0 0 1-1.501-2.49c-1.32-2.596-1.43-5.559-1.43-8.37h-2.416c0 2.988.132 6.41 1.698 9.49a23.4 23.4 0 0 0 2.094 3.357 46 46 0 0 1-4.709 4.604v-2.687h-2.312v2.05a.25.25 0 0 1-.073.176.24.24 0 0 1-.173.073h-1.608v-3.955h1.06c1.59 0 2.634-1.058 2.634-2.67v-9.89h-3.686v-3.123h-2.313v3.122h-3.588v12.561h3.588v3.932h-3.634v2.456h8.223c.737 0 1.29-.282 1.6-.787l1.066 1.287a54 54 0 0 0 5.483-5.23 54 54 0 0 0 5.482 5.23zM86.939 20.695h1.381v7.653c0 .087-.033.17-.094.23a.32.32 0 0 1-.227.096h-1.06zm-2.312 7.97h-1.278v-7.97h1.278zm-25.45 14.259a104.5 104.5 0 0 0-5.579 15.01 6.2 6.2 0 0 0 1.332.129q.656.006 1.298-.132c.491-1.744 1.27-4.094 1.27-4.094a21 21 0 0 1 3.414-.127c1.61.137 2.435.368 3.195.714.334.15.508.25.597.533.182.56.491 1.631.88 2.971q.653.14 1.322.135a5.4 5.4 0 0 0 1.302-.13 96.6 96.6 0 0 0-5.541-15.009zm2.015 8.873a11.1 11.1 0 0 0-3.153.448c.914-2.841 2.401-6.35 2.654-6.93.074-.167.15-.22.226-.22s.148.043.212.188c.275.612 1.76 4.121 2.632 6.756a15 15 0 0 0-2.571-.242m80.547-9.082a7.6 7.6 0 0 0-4.26 1.31 7.76 7.76 0 0 0-2.824 3.486 7.87 7.87 0 0 0-.436 4.49 7.8 7.8 0 0 0 2.099 3.978 7.63 7.63 0 0 0 3.925 2.126c1.488.3 3.029.146 4.43-.442a7.7 7.7 0 0 0 3.441-2.862 7.84 7.84 0 0 0 1.293-4.316c0-2.06-.808-4.037-2.246-5.494a7.62 7.62 0 0 0-5.422-2.276m0 12.95a5.06 5.06 0 0 1-2.837-.873 5.16 5.16 0 0 1-1.881-2.323 5.25 5.25 0 0 1-.29-2.99 5.2 5.2 0 0 1 1.398-2.65 5.1 5.1 0 0 1 2.615-1.415 5.05 5.05 0 0 1 2.951.296 5.1 5.1 0 0 1 2.291 1.907c.561.851.86 1.852.86 2.875a5.2 5.2 0 0 1-1.499 3.654 5.07 5.07 0 0 1-3.608 1.511zm-12.27-2.936c-.777-.623-1.46-.748-1.438-.895s.381-.072 1.027-.269c2.006-.587 3.195-2.111 3.195-4.11 0-3.517-2.401-4.483-5.871-4.483h-6.377v14.964a6.4 6.4 0 0 0 2.575 0v-5.67h1.657c1.182 0 2.072.151 2.703.64.686.527 1.229 1.244 1.944 2.38.418.662 1.462 2.66 1.474 2.662q.748.136 1.507.13c.499.006.996-.063 1.474-.205-1.69-2.712-2.6-4.121-3.87-5.145m-3.505-2.69h-3.384V45.18h3.842c2.224 0 3.261.44 3.261 2.273 0 1.95-1.494 2.585-3.719 2.585M161.63 43v8.88c0 2.405-1.403 3.929-3.725 3.929s-3.726-1.524-3.726-3.93V43a6.5 6.5 0 0 0-2.58 0v8.965c0 4.37 2.767 6.285 6.306 6.285s6.308-1.915 6.308-6.285V43a6.5 6.5 0 0 0-2.583 0m12.155 0h-6.579v14.94a6.4 6.4 0 0 0 2.591 0v-4.83h4.077c3.062 0 5.126-1.993 5.126-5.11s-2.035-5-5.215-5m-.432 7.774h-3.556v-5.452h3.556c2.226 0 3.194.748 3.194 2.74s-1.204 2.712-3.194 2.712m-63.07-5.666c2.079 0 3.642.77 4.932 2.578l1.902-1.417c-1.705-2.388-3.568-3.554-7.04-3.554-4.24 0-7.513 3.315-7.513 7.8s3.146 7.74 7.041 7.74a7.5 7.5 0 0 0 2.924-.598 8 8 0 0 0 1.686-.894c.207-.14.447-.307.602-.25.155.058.14.195.14.357v1.043c.32.09.651.133.983.13.335.001.667-.054.983-.165V49.91h-6.615v2.131h4.345c-.013 1.599-1.438 3.833-4.697 3.833-3.077 0-4.875-2.476-4.875-5.347a5.33 5.33 0 0 1 1.48-3.814 5.2 5.2 0 0 1 1.702-1.181 5.2 5.2 0 0 1 2.02-.424m-30.114-2.146v10.852c-2.536-4.134-5.075-7.879-7.547-10.852a6 6 0 0 0-1.27-.13 6 6 0 0 0-1.271.13V57.93q.624.138 1.263.132.639.005 1.263-.132V46.334a140 140 0 0 1 7.515 11.597q.637.136 1.288.132c.43.002.861-.042 1.283-.132V42.96a5.8 5.8 0 0 0-1.263-.129 6 6 0 0 0-1.261.13m4.721 2.426h5.357v12.544c.452.09.913.135 1.374.132.46.003.92-.04 1.371-.132V45.387h5.358v-2.413H84.89z" fill="#000"/></g><defs><linearGradient id="paint0_linear_477_37984" x1="24.595" y1="16.465" x2="33.43" y2=".07" gradientUnits="userSpaceOnUse"><stop stop-color="#06f"/><stop offset=".2" stop-color="#1677ff"/><stop offset="1" stop-color="#04a6ff"/></linearGradient><linearGradient id="paint1_linear_477_37984" x1="1.035" y1="44.038" x2="43.714" y2="28.709" gradientUnits="userSpaceOnUse"><stop stop-color="#06f"/><stop offset=".2" stop-color="#1677ff"/><stop offset="1" stop-color="#04a6ff"/></linearGradient><linearGradient id="paint2_linear_477_37984" x1="12.172" y1="21.655" x2="7.326" y2="3.807" gradientUnits="userSpaceOnUse"><stop stop-color="#06f"/><stop offset=".2" stop-color="#1677ff"/><stop offset="1" stop-color="#04a6ff"/></linearGradient><clipPath id="clip0_477_37984"><path fill="#fff" d="M0 0h179v60H0z"/></clipPath></defs></svg>