<svg width="99" height="47" fill="none" xmlns="http://www.w3.org/2000/svg"><path d="M61.635 30.862v-4.975c0-.329.093-.376.422-.423 1.737-.094 3.38-.516 4.835-1.455 2.3-1.408 3.661-3.52 4.178-6.15.563-2.91 0-5.586-1.831-7.98-1.361-1.783-3.192-2.816-5.398-3.332-1.596-.376-3.192-.282-4.835-.282-.188 0-.235.094-.235.235v27.179c0 1.69.516 3.239 1.361 4.647 0 .047.047.094.094.188H45.91l.563-1.408c.47-1.174.657-2.441.657-3.662V6.077c0-1.877-.469-3.567-1.69-4.976 0 0 0-.047-.093-.14H65.06c2.629 0 5.21.328 7.652 1.267 3.99 1.502 6.994 4.13 8.73 8.074.846 1.972 1.268 4.084 1.127 6.196-.328 5.07-2.675 8.966-6.994 11.642-2.112 1.314-4.412 2.018-6.853 2.394-2.019.328-4.037.235-6.103.235h-1.08zM26.71 25.51a1424 1424 0 0 1-5.54-15.067 19 19 0 0 1-.516 1.314 1068 1068 0 0 1-4.13 11.125 884 884 0 0 0-3.756 10.14c-.282.798-.563 1.549-.751 2.394-.235.939-.047 1.877.376 2.77.046.093.093.234.14.375H3.004l.141-.282c1.455-2.253 2.44-4.741 3.333-7.229 1.69-4.6 3.38-9.247 5.117-13.848 1.736-4.694 3.426-9.341 5.163-14.035.188-.517.235-.94-.188-1.315-.281-.234-.47-.563-.704-.892h13.566c.235 0 .376.047.47.329l4.929 13.378c1.549 4.178 3.098 8.31 4.6 12.487.892 2.394 1.737 4.788 2.676 7.182a16 16 0 0 0 2.394 4.272H29.9c.095-.423.235-.845.33-1.268.187-1.033 0-2.018-.282-3.004-.376-1.08-.751-2.112-1.127-3.192-.094-.235-.235-.235-.422-.235H16.054c.188-.47.329-.892.47-1.314.469-1.268.938-2.488 1.36-3.755.095-.235.188-.282.423-.282h8.356z" fill="#0e3774"/><path d="M99 41.654v5.305H0c.188-.564.376-1.033.563-1.55.423-1.126.845-2.3 1.268-3.426.094-.188.187-.282.375-.282h96.747z" fill="#bd1d21"/><path d="M98.765 38.608H83.04c.094-.094.14-.188.188-.282 1.08-1.314 1.596-2.863 1.596-4.553V5.795c0-1.736-.47-3.38-1.69-4.74 0 0 0-.048-.047-.095H98.67c0 .047-.047.094-.094.141-.938.986-1.36 2.207-1.549 3.52-.094.658-.094 1.362-.094 2.02v26.71c0 .703.094 1.454.235 2.159.188.985.657 1.877 1.268 2.675.094.141.187.235.328.423" fill="#0e3774"/></svg>