<svg width="120" height="46" fill="none" xmlns="http://www.w3.org/2000/svg"><g clip-path="url(#clip0_654_34)"><path d="M41.168 35.2h-6.34l.36-1.99h6.34z" fill="#595757"/><path d="M37.008 43.05c.18 0 .37-.07.54-.2a.84.84 0 0 0 .29-.49l2.31-12.7h3.11l-2.41 13.27c-.1.53-.4 1.07-.89 1.48s-1.06.61-1.61.61h-5.18l.36-1.96h3.49zm8.579-7.85h6.34l.36-1.99h-6.34z" fill="#595757"/><path d="M46.898 43.05c-.18 0-.35-.07-.46-.2a.61.61 0 0 1-.12-.49l2.31-12.7h-3.11l-2.41 13.27c-.1.53.01 1.07.35 1.48s.84.61 1.39.61h5.18l.71-1.96h-3.84zm21.48-10.04s.11-1.74-.42-3.35h-2.93c.48 1.66.46 3.3.46 3.3.76 0 2.14.06 2.89.05" fill="#595757"/><path d="M74.427 33.57h-16.55l.35-1.9h16.55z" fill="#595757"/><path d="m55.468 45.28.39-2.16s2.03-1 3.43-3.36c.55-.93 1.02-2.26 1.34-4.02l.63-3.49 3.14.02s-.43 2.39-.71 3.92c-.29 1.61-.89 3.13-1.71 4.39-2.42 3.74-6.51 4.69-6.51 4.69" fill="#595757"/><path d="M62.328 37.57h7.22l-.84 4.62c-.03.18-.13.35-.3.49a.8.8 0 0 1-.53.2h-3.11v1.93h4.46c.54 0 1.12-.2 1.61-.61s.79-.94.89-1.48l1.28-7.05h-10.33l-.34 1.89zm51.019 4h-2.28l1.84-10.15h2.29zm-4.349-11.91c.94 2.12 2.57 3.79 2.57 3.79l-.32 1.76c-.95-.27-3.05-1.99-4-3.12-1.73 2.06-4.31 3.8-6.55 5.04l.31-1.73s1.91-1.42 4.97-5.75h3.02z" fill="#595757"/><path d="M104.307 43.34c-.18 0-.35-.07-.46-.2a.61.61 0 0 1-.12-.49l1.27-6.97h-2.61l-1.33 7.3c-.1.53.01 1.07.35 1.48s.84.61 1.38.61h6.19l.7-1.72h-5.37zm12.191-13.68-2.36 12.98c-.03.18-.13.36-.3.49-.16.14-.35.21-.54.21h-2.51l.04 1.72h3.36c.54 0 1.12-.21 1.61-.61.49-.41.79-.94.89-1.48l2.42-13.31h-2.62z" fill="#595757"/><path d="m103.198 35.36-.31 1.68h4.63l-.4 2.18c-.03.18-.13.36-.3.49a.8.8 0 0 1-.53.2h-1.03l.05 1.65h1.81c.54 0 1.12-.2 1.61-.61s.79-.94.89-1.48l.75-4.12h-7.18zm-15.65 9.66h-3.11l1.03-5.68h3.11z" fill="#595757"/><path d="M94.947 42.69h-17.07l.32-1.79h17.08zm-14.59-3.17h2.82l1.42-7.81-3.25 2.33zm10.991-2.2c-.18 0-.35-.07-.46-.2a.62.62 0 0 1-.12-.49l1.26-6.96h-2.83l-1.34 7.35c-.1.53.01 1.07.35 1.48s.84.61 1.38.61h5.87l.33-1.79h-4.45z" fill="#595757"/><path d="M96.658 33.3c-5.5 2.19-11.88 3.18-11.88 3.18l.35-1.94s5.6-1.11 12.02-3.96zm-9.09-3.64s-4.04 5.04-8.38 6.18l.3-1.62s3.33-2.39 4.69-4.56z" fill="#595757"/><path d="M94.407 6.73c.84-5.1-3.95-5.97-7.29-5.97h-11.44c-.44 0-.81.31-.88.75-.73 4.15-3.15 17.98-3.23 18.43-.09.53.07.68.63.68h4.36c.42 0 .71-.26.78-.68s1.17-6.71 1.17-6.71h5.56l2.61 6.89s.1.5.73.5h4.59c.7 0 .91-.15.78-.55-.1-.3-2.07-5.17-3.03-7.53 2.22-.79 4.1-2.44 4.65-5.8m-5.02 0c-.38 2.19-1.61 3.03-4.3 3.03h-5.97l.98-5.62h5.97c2.25 0 3.7.4 3.32 2.59M42.828 1.19a.6.6 0 0 0-.22-.31.63.63 0 0 0-.38-.11h-7.34c-1.21 0-2.11.72-2.74 1.68-1.89 2.84-9.85 17.34-9.85 17.34-.12.17-.14.38-.05.55s.27.26.47.26h4.97q.18 0 .36-.09c.12-.06.21-.15.27-.25l8.95-15.86 3.4 15.86c.03.1.09.19.19.25.09.06.21.09.32.09h4.97c.21 0 .42-.09.57-.26s.19-.38.14-.55zm28.37-.42h-4.74c-.44 0-.75.22-.81.55l-2.28 13.05c-.4 2.28-2.57 3.46-4.81 3.46s-4-1.18-3.6-3.46l2.28-13.05c.06-.33-.17-.55-.61-.55h-4.74c-.44 0-.71.22-.77.55l-2.34 13.39c-.96 5.45 5.03 6.47 9.2 6.47s10.51-1.01 11.46-6.47l2.34-13.39c.06-.33-.13-.55-.57-.55M14.558 0c-5.9 0-10.73 2.26-10.73 2.26-.54.26-.77.64-.83.96L.008 20.04c-.06.33.24.55.72.55h4.26c.49 0 .76-.22.82-.55l2.69-15.41c1.42-.6 3.5-.95 5.4-.95 2.25 0 3.1 1.22 2.79 2.97s-2.34 13.39-2.34 13.39c-.06.33.19.55.67.55h4.33c.48 0 .76-.22.82-.55l2.37-13.54c.82-4.68-2.11-6.5-8-6.5m100.53 1.19a.6.6 0 0 0-.22-.31.65.65 0 0 0-.38-.11h-7.34c-1.21 0-2.11.72-2.74 1.68-1.89 2.84-9.85 17.34-9.85 17.34-.12.17-.14.38-.05.55s.27.26.48.26h4.97a.8.8 0 0 0 .36-.09c.12-.06.21-.15.27-.25l8.95-15.86 3.4 15.86c.03.1.09.19.19.25.09.06.2.09.32.09h4.97c.21 0 .42-.09.57-.26s.19-.38.14-.55l-4.03-18.59z" fill="#008cd6"/></g><defs><clipPath id="clip0_654_34"><path fill="#fff" d="M0 0h120v46H0z"/></clipPath></defs></svg>