<svg width="154" height="46" fill="none" xmlns="http://www.w3.org/2000/svg"><g clip-path="url(#clip0_668_818)"><path d="M28.406 0h122.876c1.783 0 2.987 1.459 2.668 3.244l-1.271 7.203c-1.98 11.242-5.3 22.338-13.871 28.717-8.573 6.38-21.014 6.838-30.273 6.838-9.732 0-19.445-1.358-29.135-2.182-11.607-.986-23.242-1.787-34.894-1.855-14.517-.084-28.32.798-41.381 3.328-.323.06-.642.08-.948.065-2.217-.098-2.419-1.82-2.004-4.12l3.85-21.364C6.134 7.883 16.42 0 28.407 0" fill="#e62d2d"/><path d="M38.785 21.583h-2.772l-.274 1.942c-.208 1.494-.595 2.484-1.442 4.653l-2.816 7.07h2.844c.016-.042 1.707-4.194 2.566-6.398.878-2.25 1.362-3.492 1.62-5.328l.271-1.941zm-6.654 0H29.36l-.272 1.942c-.21 1.494-.597 2.484-1.445 4.653l-2.816 7.07h2.845c.016-.042 1.706-4.194 2.565-6.398.878-2.25 1.363-3.492 1.623-5.328l.271-1.941zm-6.851-8.396-.296-5.662h-2.823l.295 5.662zm.199 3.834-.035-.684H22.62l.063 1.204c.043.876.122 3.372-.023 4.4-.138.972-.862 2.815-1.128 3.443l-3.903 9.864h2.86l3.608-9.122c.15-.35 1.124-2.684 1.335-4.187.208-1.475.065-4.57.047-4.92" fill="#fff"/><path d="m29.395 7.525.164 2.772H41.23l-11.995 6.251-.368 2.623h14.967l-1.749 12.457c-.066.47-.501.852-.971.852h-3.03l-.943 2.773h3.581c2.002 0 3.852-1.623 4.133-3.625l2.137-15.23H35.32l11.446-5.97c.34-.17.58-.5.63-.859l.285-2.042H29.388zm33.541 7.864h-9.147l.714-5.091h9.147zm8.526 8.372c-.065.47-.5.853-.971.853H52.497l.906-6.452H72.25l-.787 5.602zM60.54 32.478h-9.147l.714-5.091h9.147zm15.863-22.18.943-2.773H52.122l-3.89 27.726H72.9l.943-2.773H63.31l.715-5.091h6.077c1.997 0 3.851-1.626 4.132-3.626l1.175-8.372H65.71l.714-5.091zm5.611 7.484 4.179-10.257h-2.915L77.57 21.539h2.915l.524-1.293-2.104 15.005h2.772l2.45-17.469zm16.139-9.15.155-1.107h-2.772l-.155 1.107H87.63l-.944 2.773h18.846l.944-2.773zm1.927 23.846H86.776l1.02-7.279h13.305zM85.415 22.426 83.899 33.24l-.283 2.01h17.463c.765 0 1.472-.621 1.58-1.387l1.606-11.438H85.416zm18.912-9.15h-2.868l-1.805 4.436h-7.763l-.56-4.436h-2.867l.56 4.436h-2.946l-.389 2.773h18.57l.944-2.773h-2.681zm6.876 4.506 4.178-10.257h-2.79l-5.71 14.014h2.79l.478-1.171-2.088 14.883h2.631l2.451-17.469zm6.369 13.686c1.906-2.44 2.615-5.5 2.995-8.206l.728-5.199h-4.123l5.621-7.426c.131-.162.215-.351.241-.543l.244-1.733h-6.998l-.922 2.634h3.984l-4.736 6.328-.47 3.377h4.155l-.36 2.565c-.331 2.353-.85 4.18-1.621 5.601-.437-2.08-.088-4.292-.086-4.323l.023-.147h-2.631l-.012.07c-.03.178-.63 3.902.602 6.895a8 8 0 0 1-1.707.98l-.395 2.825c.121-.037.269-.082.412-.133a11.5 11.5 0 0 0 3.031-1.595c1.178 1.199 2.784 1.813 4.79 1.813h11.434l.925-2.635h-11.987c-1.355 0-2.383-.38-3.137-1.148" fill="#fff"/><path d="M130.849 18.129h-1.8l.293-2.08h1.8l-.29 2.08zm-.847-6.794h1.802l-.292 2.08h-1.801l.293-2.08zm5.389 2.08h-1.248l.663-4.715h-4.434l.175-1.248h-2.633l-.176 1.248h-3.175l-.4 2.635h3.205l-.293 2.08h-3.729l-.955 2.634h4.314l-.292 2.08h-3.451l-.4 2.634h3.483l-.292 2.08h-3.451l-.4 2.635h3.481l-.291 2.08h-3.45l-.955 2.634h4.036l-.176 1.248h2.634l.175-1.248h4.282l.955-2.635h-4.867l.293-2.08h4.282l.955-2.634h-4.867l.29-2.08h3.118c.728 0 1.4-.592 1.501-1.316l.478-3.396h.693l.924-2.634z" fill="#fff"/></g><defs><clipPath id="clip0_668_818"><path fill="#fff" d="M0 0h154v46H0z"/></clipPath></defs></svg>