<svg width="46" height="46" fill="none" xmlns="http://www.w3.org/2000/svg"><path d="M22.694 13.359c0-5.833 4.75-10.56 10.61-10.56 5.861 0 10.612 4.727 10.612 10.56 0 5.831-4.75 10.56-10.611 10.56-5.86 0-10.611-4.729-10.611-10.56" fill="url(#paint0_radial_224_23719)"/><path d="M23.513 43.2c10.953 0 19.852-8.723 20.078-19.568h-9.515c-.223 5.615-4.866 10.1-10.563 10.1-5.839 0-10.573-4.71-10.573-10.521 0-5.634 4.45-10.234 10.044-10.508v-9.47c-10.85.282-19.56 9.114-19.56 19.978 0 11.04 8.995 19.99 20.09 19.99" fill="#00a86d"/><defs><radialGradient id="paint0_radial_224_23719" cx="0" cy="0" r="1" gradientUnits="userSpaceOnUse" gradientTransform="rotate(59.943 .818 36.43)scale(20.2143 17.9344)"><stop stop-color="#f7f7f8"/><stop offset=".343" stop-color="#b9b9ba"/><stop offset=".687" stop-color="#7b7b7c"/><stop offset="1"/></radialGradient></defs></svg>