<svg width="149" height="46" fill="none" xmlns="http://www.w3.org/2000/svg"><path d="M47.848 28.039c-3.782-5.117-9.441-10.338-10.99-11.688C35.794 15.416 34.652 15 33.586 15s-2.132.493-3.045 1.273a7.5 7.5 0 0 1-.736.675c-2.233 1.948-9.187 8.494-9.365 8.675a2.88 2.88 0 0 1-1.98.831c-.659 0-1.395-.337-2.13-1.012-.483-.494-2.869-2.442-5.66-5.637-1.726-1.922-3.122-3.688-3.122-3.688s-.33.675-.482 1.09 0 .598.076.754c.914 1.35 5.177 6.546 10.989 11.688 1.066.935 2.208 1.351 3.274 1.351s2.131-.494 3.045-1.273c.152-.156.482-.415.736-.675 2.208-1.922 6.471-5.87 8.45-7.818.407-.416.737-.676.914-.831a2.88 2.88 0 0 1 1.98-.832c.66 0 1.396.338 2.132 1.013 1.243 1.091 3.273 3.013 5.659 5.533a87 87 0 0 1 3.121 3.688s.33-.675.483-1.169c.177-.26 0-.493-.077-.597" fill="#95c122"/><path d="M25.578 9.568C23.598 10.939 15.548 18.27 14 20.04c0 0 1.143 1.221 2.793 2.568.406.399.99.324 1.396-.15 3.123-3.067 9.446-8.552 10.258-9.2 2.387-2.02 5.18-2.17 7.719-.325C42.336 17.447 47.82 24.63 48.734 26c0 0 .152-.648.254-1.222 0 0 .076-.573-.152-1.047-5.84-8.229-11.985-13.315-14.371-14.587-2.565-1.346-5.764-1.845-8.887.424" fill="#0e84c7"/><path d="M19.263 5.307C15.383 8.494 10.302 13.249 9 14.64c0 0 .976 1.24 2.428 2.706.325.253.576.152.901-.076 3.88-3.768 8.085-7.689 10.513-9.586 4.13-3.186 8.911-3.515 13.692.253 1.778 1.391 3.33 2.782 5.582 5.16C45.02 16.284 46.897 18.99 49 22c0 0 0-.81-.25-1.872a1.5 1.5 0 0 0-.25-.733c-.401-.81-2.279-3.996-4.932-7.107-5.256-6.222-8.585-8.094-10.763-9.232-2.754-1.492-8.26-1.922-13.542 2.25m10.184 31.18C31.423 35.12 39.455 27.808 41 26.042c0 0-1.14-1.218-2.787-2.56-.405-.399-.988-.324-1.393.148-3.193 2.984-9.501 8.455-10.312 9.077-2.381 2.014-5.168 2.163-7.702.323C12.65 28.529 7.178 21.368 6.266 20c0 0-.152.646-.254 1.218 0 0-.076.572.152 1.045 5.827 8.206 11.958 13.278 14.34 14.546 2.71 1.443 5.827 1.84 8.943-.323" fill="#0e84c7"/><path d="M35.693 40.64c3.887-3.182 9.003-7.93 10.307-9.318 0 0-.978-1.237-2.433-2.701-.326-.253-.576-.152-.802.075-3.887 3.763-8.1 7.676-10.533 9.545-4.138 3.181-8.928 3.51-13.718-.253-1.78-1.388-3.335-2.777-5.592-5.15C9.962 29.705 8.107 27.004 6 24c0 0 0 .732.25 1.869.076.151.076.48.252.732.4.808 2.282 3.99 4.94 7.196 5.267 6.211 8.602 8.08 10.784 9.216 2.758 1.389 8.35 1.869 13.467-2.373M67.467 4h-2.008v3.791H58v10.535h7.46V24h2.007v-5.7H75V7.766h-7.534zm-1.933 12.417h-5.527V9.573h5.527zm7.533 0h-5.526V9.573h5.526zM91.17 14 90 15.159l.128.165c.489.635 1.106 1.6 1.574 2.51l.064.166L93 16.759l-.064-.166c-.404-.717-1.106-1.683-1.66-2.51z" fill="#0e84c7"/><path d="M94 18.249h-4.745v-4.172h3.966v-1.75h-3.966V9.673H93.6V8H83.307v1.674h4.272v2.652h-3.894v1.751h3.894v4.172H83V20h11z" fill="#0e84c7"/><path d="M80 23h17V5H80zm15.165-1.668h-13.38V6.668h13.38zm13.764-5.649c-.755-.738-2.973-2.62-2.973-2.62v-.992h2.525v-1.806h-2.525V7.391c1.84-.33 2.596-.585 2.596-.585L108.174 5s-1.605.407-3.28.661c-2.148.331-3.351.407-3.351.407l.141 1.806s1.369-.152 2.525-.407v2.722h-2.902v1.806h2.666c-.684 2.39-1.84 4.68-2.973 6.486 0 0 1.227 1.475 1.227 1.398a20.6 20.6 0 0 0 1.982-3.866V24h1.676v-8.648a34 34 0 0 0 1.746 1.73l.142.152L109 15.76z" fill="#0e84c7"/><path d="M115.209 14.266c.306-.405.447-.912.447-.912l-1.668-.33c.306-.152.611-.405.916-.583 2.043-1.394 3.429-3.042 4.321-4.918V5.8h-5.847c.141-.33.375-.66.54-.989l.07-.152L112.391 4l-.047.203c-.915 1.977-2.277 3.777-3.945 5.247 0 0 .916.735 1.362 1.14.987-.988 1.902-1.977 2.513-2.864h5.002c-.916 1.242-1.738 2.206-2.724 2.94-.681-.658-1.221-1.14-2.043-1.875l-.165-.102-1.056 1.243.141.076c.751.659 1.221 1.064 1.667 1.546a19.7 19.7 0 0 1-4.415 1.876s1.057 1.546 1.151 1.546c.986-.33 2.959-1.318 3.804-1.724-1.151 2.383-3.569 4.335-5.307 5.323l1.291 1.395c2.724-1.344 4.603-3.98 4.603-3.98h3.804c-.234 1.394-1.362 3.118-2.959 4.182-.61-.659-1.291-1.318-1.972-2.053l-1.221 1.14c.681.66 1.221 1.319 1.738 1.877-2.419 1.14-5.613 1.318-5.613 1.318l.681 1.546s9.417-.253 11.319-8.111v-1.724zM132 6h-8v2h8zm.695 14.1c-.583-1.471-1.472-3.524-2.208-4.994l-.076-.152-1.726.735.076.152c.407.989.813 1.876 1.244 2.94l-4.391 1.065c.99-1.547 2.132-5.17 2.792-7.046H133V11h-9.924v1.8h3.274c-.152 1.064-1.32 4.511-2.868 7.3-.152.329-.482.582-.482.582l.584 1.318s5.33-1.47 6.903-1.648l.153.482z" fill="#0e84c7"/><path d="M136.585 7.99c0-1.313.076-2.525.076-3.838V4h-1.983v3.99h-2.619v1.869h2.543v2.45c0 3.762-.661 5.706-2.136 7.928-.915 1.39-2.466 2.298-2.466 2.298L131.475 24s5.084-2.601 5.084-10.859V9.884h3.382c0 3.358-.153 6.692-.331 9.874 0 .984-.483 1.464-1.322 1.464h-2.212c.077.581.331 1.97.331 1.97h2.39c1.728 0 2.618-1.06 2.796-3.03.153-3.03.331-7.02.407-11.995v-.152c-.051-.025-5.415-.025-5.415-.025M76.05 32.01c-.27-.234-.624-.304-.868-.375-.624-.14-1.33-.14-1.845 0-.271.07-.515.141-.787.235-.27.07-.434.235-.624.375l-.271.235V28H70v11h1.655v-5.09c.271-.375.624-.61 1.058-.844a2.36 2.36 0 0 1 1.221-.305c.516 0 .868.14 1.058.375.272.235.353.68.353 1.22v4.62H77v-4.855c0-.539-.081-.985-.271-1.29-.163-.375-.434-.68-.679-.82M80 28h-2v2h2zm0 3h-2v8h2zm7.132.609c-.272-.254-.516-.407-.868-.483-.624-.152-1.411-.152-2.008-.076a9 9 0 0 0-.787.254c-.271.076-.434.254-.624.406-.081.077-.271.153-.353.33l-.163-.914H81V39h1.655v-5.512c.271-.406.624-.66 1.058-.914s.787-.33 1.221-.33.787.152 1.058.406c.272.254.353.737.353 1.321v5.004H88v-5.258c0-.483-.081-.99-.163-1.32-.271-.306-.542-.534-.705-.788m7.774.926c-.236-.478-.542-.805-1.06-1.132C93.4 31.15 92.789 31 92.013 31H91.4c-.235 0-.377.076-.612.076-.141.075-.376.075-.541.15-.141.076-.306.076-.447.151h-.07v1.308l.14-.075c.306-.075.612-.252.918-.327s.612-.075.988-.075c.447 0 .847.075 1.06.251.234.151.446.327.54.579.07.075.07.251.07.402s.071.327.071.478v.327c-.235-.075-.447-.15-.682-.15-.306-.076-.682-.076-1.059-.076s-.753.075-1.153.15c-.305.076-.611.328-.847.479-.235.251-.447.478-.54.805A2.6 2.6 0 0 0 89 36.509c0 .403.07.73.141 1.057.141.327.306.579.541.805.236.252.447.403.753.478.306.076.612.151.988.151.236 0 .541 0 .753-.075a3 3 0 0 0 .612-.252c.235-.076.377-.252.541-.327.07-.076.141-.151.235-.151l.071.654h1.224v-5.207c0-.252 0-.479-.071-.655.259-.05.259-.302.118-.452m-1.224 3.094v1.308c-.07.076-.141.076-.235.151-.07.075-.236.151-.377.327-.14.076-.376.151-.54.252-.377.15-.754.15-1.154 0-.14-.076-.306-.151-.376-.252-.07-.1-.141-.252-.235-.402-.071-.151-.071-.328-.071-.579 0-.403.141-.73.376-.906a2 2 0 0 1 1.06-.327c.305 0 .681 0 .917.076a.83.83 0 0 0 .635.352m-26.409.041c-.737 1.283-2.134 1.998-3.608 1.998-2.312 0-4.192-1.825-4.192-4.07s1.88-4.069 4.192-4.069c1.474 0 2.87.79 3.607 1.998l.077.074H69l-.076-.247A5.78 5.78 0 0 0 63.665 28C60.54 28 58 30.466 58 33.5s2.54 5.5 5.665 5.5c2.312 0 4.344-1.282 5.259-3.354l.076-.247zm38.955-1.497c-.251.483-.477 1.245-.803 2.21-.327-.813-.578-1.55-.804-2.21L102.11 28H100v11h1.632v-5.335c0-.99 0-2.134-.075-3.379.327.737.578 1.474.804 2.134l2.687 6.478h.804l2.687-6.478c.251-.66.577-1.397.904-2.21-.075 1.245-.075 2.312-.075 3.379v5.335H111V28h-2.11zm21.102-.901a1.7 1.7 0 0 0-.646-.728c-.248-.15-.471-.326-.719-.477-.249-.075-.472-.251-.72-.251-.249-.075-.472-.075-.72-.075a3.1 3.1 0 0 0-1.291.25c-.248.151-.571.327-.72.478V28H121v11.774h1.216l.249-.728.074.075c.074.151.248.251.397.402.149.075.397.251.646.326.248.076.57.151.893.151.397 0 .894-.075 1.291-.251.397-.15.794-.402 1.117-.803.323-.327.571-.804.794-1.306.149-.477.323-1.13.323-1.858 0-.477-.074-.979-.149-1.38-.199-.477-.273-.804-.521-1.13m-.968 2.51c0 .402-.075.804-.149 1.13-.075.327-.248.653-.397.904-.149.25-.398.402-.646.577-.248.15-.571.15-.893.15-.249 0-.398 0-.646-.074-.149-.076-.397-.151-.471-.251-.149-.076-.323-.151-.398-.327l-.248-.25v-3.817c.248-.25.472-.401.795-.577.471-.251 1.117-.327 1.687-.075.249.075.398.15.646.401.149.15.397.477.471.804.174.351.249.828.249 1.405M131 31h-2v8h2zm0-3h-2v2h2zm3 0h-2v11h2zm7.64 5.367a4.5 4.5 0 0 0-.669-1.327c-.335-.352-.67-.623-1.004-.785-.824-.352-1.827-.352-2.651.08a2.7 2.7 0 0 0-1.158.867c-.334.352-.592.867-.823 1.408-.155.515-.335 1.219-.335 2.004s.077 1.408.335 2.003c.154.515.489.975.823 1.327.335.352.824.623 1.338.785s1.004.271 1.57.271c.489 0 .927 0 1.338-.081s.747-.163 1.081-.352l.077-.081v-1.408l-.154.08c-.334.082-.669.272-1.004.272-.334.08-.669.08-1.08.08s-.747-.08-1.081-.162c-.335-.08-.592-.27-.824-.433-.257-.162-.412-.433-.592-.785-.077-.352-.154-.704-.154-1.137H142v-.677c-.18-.812-.257-1.408-.36-1.95m-4.993 1.137c0-.271.077-.433.154-.704.078-.271.258-.433.412-.704.155-.163.412-.352.592-.433.412-.163 1.081-.163 1.493 0 .257.08.412.27.489.433.154.162.257.433.334.704.078.162.078.433.078.704zM115.999 31A4 4 0 0 0 112 35c0 2.247 1.827 4 3.999 4a4 4 0 0 0 3.999-4c.074-2.247-1.679-4-3.999-4m0 6.716A2.707 2.707 0 0 1 113.284 35a2.707 2.707 0 0 1 2.715-2.716A2.707 2.707 0 0 1 118.714 35a2.707 2.707 0 0 1-2.715 2.716" fill="#0e84c7"/></svg>