<svg width="46" height="46" fill="none" xmlns="http://www.w3.org/2000/svg"><g clip-path="url(#clip0_338_13214)"><path d="M14.762 3.93c.117.448.205.89.349 1.311.11.324.036.468-.282.607-1.764.769-3.446 1.687-4.967 2.874-1.045.817-2.01 1.715-2.67 2.889-1.146 2.034-.603 3.932 1.448 5.06 1.416.778 2.954 1.131 4.548 1.299.359.037.446-.079.49-.423.475-3.69 1.321-7.278 3.023-10.62.808-1.585 1.787-3.053 3.167-4.207 1.084-.907 2.3-1.517 3.755-1.513 1.608.005 2.906.74 4.051 1.79 1.417 1.297 2.382 2.912 3.24 4.704-.607.162-1.186.323-1.77.462-.07.016-.178-.09-.256-.152-1.244-1.014-2.484-.918-3.56.287-.793.886-1.291 1.94-1.702 3.042-.697 1.862-1.074 3.8-1.34 5.762-.011.085-.001.172-.001.33.684-.155 1.326-.28 1.957-.447 3.2-.847 6.278-1.996 9.085-3.786 1.629-1.039 3.134-2.218 4.131-3.926 1.08-1.85.686-3.702-1.138-4.818-.805-.492-1.742-.776-2.633-1.117-.26-.1-.441-.181-.506-.48-.144-.657-.323-1.305-.513-2.059.85.079 1.636.13 2.416.227 2.225.276 4.389.787 6.416 1.78 1.408.69 2.656 1.592 3.527 2.917 1.225 1.86 1.222 3.835.389 5.836-.955 2.294-2.63 4.017-4.514 5.562-3.098 2.54-6.629 4.292-10.365 5.663a46 46 0 0 1-8.192 2.172c-.312.052-.438.177-.416.5.224 3.247.526 6.484 1.699 9.56.27.707.672 1.365 1.036 2.035.105.192.27.36.43.514.803.77 1.735.749 2.49-.072.863-.938 1.363-2.087 1.681-3.291.39-1.473.657-2.978.993-4.465.034-.151.15-.368.272-.403.962-.273 1.935-.51 2.906-.754.038-.01.083.015.147.028a36.3 36.3 0 0 1-1.276 6.37c-.568 1.9-1.276 3.74-2.295 5.449-.771 1.294-1.664 2.49-2.86 3.437-2.213 1.754-4.749 1.79-6.983.066-1.491-1.15-2.536-2.659-3.396-4.308-1.448-2.778-2.302-5.75-2.801-8.824-.258-1.594-.393-3.209-.548-4.817-.038-.389-.23-.414-.524-.43-2.542-.144-5.033-.556-7.406-1.513-1.645-.664-3.159-1.548-4.251-2.99-1.496-1.971-1.568-4.108-.61-6.322.88-2.028 2.326-3.623 3.977-5.04 2.968-2.55 6.382-4.334 10.004-5.754.025-.01.057-.001.148-.001" fill="#1e6292"/></g><defs><clipPath id="clip0_338_13214"><path fill="#fff" d="M0 0h46v46H0z"/></clipPath></defs></svg>