<svg width="61" height="46" fill="none" xmlns="http://www.w3.org/2000/svg"><g clip-path="url(#clip0_665_499)"><path d="M60.958 35.145H0v10.7h60.958z" fill="#20aee5"/><path d="M60.958 4.941H0v28.676h60.958z" fill="#005bac"/><path fill-rule="evenodd" clip-rule="evenodd" d="M18.912 11.843h1.911c.26 0 .47.214.47.473v3.821h8.158c.189 0 .342.154.342.344v6.338c0 .26-.21.474-.471.474H27.41a.473.473 0 0 1-.47-.474v-4.39h-5.647v4.39c0 .26-.213.474-.47.474h-1.911a.475.475 0 0 1-.472-.474v-10.5c0-.26.213-.474.472-.474m-4.323 3.821c0 .26.213.474.472.474h1.911c.257 0 .47-.212.47-.474V14.8c0-1.624-1.365-2.953-3.03-2.953h-5.35c-1.665 0-3.03 1.329-3.03 2.953v5.54c0 1.624 1.365 2.954 3.03 2.954h5.35c1.665 0 3.03-1.33 3.03-2.954v-1.38a.47.47 0 0 0-.47-.471h-1.91a.473.473 0 0 0-.473.471v1.083c0 .53-.43.962-.959.962H9.843a.963.963 0 0 1-.959-.962v-4.944c0-.528.433-.961.96-.961h3.786c.527 0 .96.433.96.961zm17.102-3.82h1.135c.664 0 1.261.31 1.654.79l5.24 6.391v-6.71c0-.26.21-.474.47-.474h1.91c.26 0 .47.214.47.473v10.501c0 .26-.21.473-.47.473h-1.136a2.14 2.14 0 0 1-1.657-.79l-5.237-6.393v6.71c0 .26-.21.473-.47.473h-1.91a.475.475 0 0 1-.474-.473v-10.5c0-.26.213-.474.474-.474m23.233.473v1.345c0 .26-.213.471-.47.471h-3.78v8.685c0 .26-.211.473-.47.473H48.29a.476.476 0 0 1-.472-.473v-8.685h-3.78a.47.47 0 0 1-.47-.47v-1.346c0-.26.21-.473.47-.473h10.41c.26 0 .47.214.47.473" fill="#fff"/><path fill-rule="evenodd" clip-rule="evenodd" d="M27.413 11.843h1.91c.262 0 .473.214.473.473v1.917c0 .26-.211.471-.472.471h-1.911a.474.474 0 0 1-.472-.47v-1.918c0-.26.213-.473.472-.473" fill="#d71718"/><path d="M25.572 42.536c0 .257-.09.312-.347.33h-.235v.566h.492c1.003 0 1.24-.254 1.257-1.134V40.87h-1.167zm-.492-.238h-1.24c-.291.548-1.13.605-1.53.605v.529c.436 0 1.002 0 1.476-.146a2 2 0 0 0 .529-.237c.256-.146.528-.348.71-.66.02-.036.038-.056.055-.09" fill="#fff"/><path d="M30.006 38.292v-.565h-3.192a.8.8 0 0 0 .072-.203h-1.24s-.02.073-.074.203h-3.263v.565h2.99a12 12 0 0 1-.256.476h-2.736v.568h2.37a5 5 0 0 1-.382.495h-1.988v.565h1.422a3 3 0 0 1-1.422.696v.51s.364 0 .912-.127c.512.493 1.203.53 1.804.53h.055v-.513h-.055a1.45 1.45 0 0 1-.856-.365c.073-.037.128-.075.2-.11.22-.11.439-.293.656-.513q.056-.053.11-.11h2.06c.312.31.639.513.968.696-.127.2-.511.4-.968.4v.513c.691-.037 1.332-.037 1.933-.55.312.055.566.072.876.072v-.567c-.474-.036-.968-.128-1.422-.566h1.422v-.566h-4.397c.11-.165.239-.33.346-.495H30v-.568h-3.702c.09-.163.162-.328.255-.475H30zm-1.551 4.006h-1.26c.2.368.494.586.768.75.165.11.347.183.547.238.474.146 1.04.146 1.496.146v-.529c-.419 0-1.277-.055-1.549-.605m-6.903-4.574v.714h-3.265v1.628h3.045v.768H18.29v1.847h3.265v.733l-6.183.017c-.986 0-1.442-.545-1.442-1.443v-2.47h1.147V42.3c0 .256.093.383.347.383h1.714v-4.245h-3.21v-.714zm21.053 1.788H39.94c-.452 0-.643.297-.643.732v3.185h1.01v-1.102h2.14v.209c0 .246-.07.314-.26.314h-.384v.58h.877c.507 0 .696-.23.696-.771v-2.38c0-.385-.088-.768-.768-.768m-.16 2.238h-2.142v-.509h2.142zm0-1.085h-2.142v-.348c0-.14.053-.224.191-.224h1.672c.226 0 .279.068.279.26zm2.312-1.066v-.35c.593 0 1.295-.036 1.571-.63l.523-1.083h-1.157c-.349.718-.625 1.147-.937 1.165v-1.165h-1v2.08c0 .385.26.735.768.735h2.565v-.577h-2.14c-.12 0-.19-.12-.19-.173m-.003 3.077v-.35c.593 0 1.295-.036 1.571-.63l.523-1.085h-1.157c-.349.718-.625 1.147-.937 1.164v-1.164h-1v2.08c0 .385.26.735.768.735h2.565v-.579h-2.14c-.12 0-.19-.12-.19-.174m-4.619-4.049h1.628c.452 0 .667-.192.667-.315v-.478h.937v.403c0 .77-.507 1.015-1.203 1.015h-2.946v-.7c.452-.123.836-.577 1.027-1.015h1.272s-.61.746-1.384 1.092m-8.268.244c0-.09.017-.183.09-.238.055-.055.147-.072.254-.072h4.615c.107 0 .2.017.254.072.073.055.11.13.11.238v.207h1.093v-.207c0-.31-.073-.548-.255-.693-.164-.165-.419-.24-.823-.24h-1.966l-.274-.43H33.8l.272.43h-2.258c-.381 0-.638.092-.82.255-.165.165-.237.423-.237.733v.152h1.112v-.207zm4.908.586v.928s.013 1.715-4.138 2.461c0 0-1.275.046-1.883.037v.588s.843.044 2.023-.042c1.183-.081 5.108-.662 5.108-3.046v-.929h-1.11z" fill="#fff"/><path d="M32.453 39.457v.928s-.013 1.715 4.136 2.461c0 0 1.273.046 1.883.037v.588s-.843.044-2.023-.042c-1.181-.081-5.109-.755-5.109-3.046v-.929h1.113z" fill="#fff"/><path d="M38.329 39.82h-7.57v.566h7.57z" fill="#fff"/><path d="M38.292 39.829h-7.533v.554h7.533z" fill="#fff"/><path d="M60.958 35.145H0v10.7h60.958z" fill="#25c1ff"/><path d="M60.958 0H0v33.615h60.958z" fill="#237ae4"/><path fill-rule="evenodd" clip-rule="evenodd" d="M18.912 11.843h1.911c.26 0 .47.214.47.473v3.821h8.158c.189 0 .342.154.342.344v6.338c0 .26-.21.474-.471.474H27.41a.473.473 0 0 1-.47-.474v-4.39h-5.647v4.39c0 .26-.213.474-.47.474h-1.911a.475.475 0 0 1-.472-.474v-10.5c0-.26.213-.474.472-.474m-4.323 3.821c0 .26.213.474.472.474h1.911c.257 0 .47-.212.47-.474V14.8c0-1.624-1.365-2.953-3.03-2.953h-5.35c-1.665 0-3.03 1.329-3.03 2.953v5.54c0 1.624 1.365 2.954 3.03 2.954h5.35c1.665 0 3.03-1.33 3.03-2.954v-1.38a.47.47 0 0 0-.47-.471h-1.91a.473.473 0 0 0-.473.471v1.083c0 .53-.43.962-.959.962H9.843a.963.963 0 0 1-.959-.962v-4.944c0-.528.433-.961.96-.961h3.786c.527 0 .96.433.96.961zm17.102-3.82h1.135c.664 0 1.261.31 1.654.79l5.24 6.391v-6.71c0-.26.21-.474.47-.474h1.91c.26 0 .47.214.47.473v10.501c0 .26-.21.473-.47.473h-1.136a2.14 2.14 0 0 1-1.657-.79l-5.237-6.393v6.71c0 .26-.21.473-.47.473h-1.91a.475.475 0 0 1-.474-.473v-10.5c0-.26.213-.474.474-.474m23.233.473v1.345c0 .26-.213.471-.47.471h-3.78v8.685c0 .26-.211.473-.47.473H48.29a.476.476 0 0 1-.472-.473v-8.685h-3.78a.47.47 0 0 1-.47-.47v-1.346c0-.26.21-.473.47-.473h10.41c.26 0 .47.214.47.473" fill="#fff"/><path fill-rule="evenodd" clip-rule="evenodd" d="M27.413 11.843h1.91c.262 0 .473.214.473.473v1.917c0 .26-.211.471-.472.471h-1.911a.474.474 0 0 1-.472-.47v-1.918c0-.26.213-.473.472-.473" fill="#c91e1d"/><path d="M25.572 42.536c0 .257-.09.312-.347.33h-.235v.566h.492c1.003 0 1.24-.254 1.257-1.134V40.87h-1.167zm-.492-.238h-1.24c-.291.548-1.13.605-1.53.605v.529c.436 0 1.002 0 1.476-.146a2 2 0 0 0 .529-.237c.256-.146.528-.348.71-.66.02-.036.038-.056.055-.09" fill="#fff"/><path d="M30.006 38.292v-.565h-3.192a.8.8 0 0 0 .072-.203h-1.24s-.02.073-.074.203h-3.263v.565h2.99a12 12 0 0 1-.256.476h-2.736v.568h2.37a5 5 0 0 1-.382.495h-1.988v.565h1.422a3 3 0 0 1-1.422.696v.51s.364 0 .912-.127c.512.493 1.203.53 1.804.53h.055v-.513h-.055a1.45 1.45 0 0 1-.856-.365c.073-.037.128-.075.2-.11.22-.11.439-.293.656-.513q.056-.053.11-.11h2.06c.312.31.639.513.968.696-.127.2-.511.4-.968.4v.513c.691-.037 1.332-.037 1.933-.55.312.055.566.072.876.072v-.567c-.474-.036-.968-.128-1.422-.566h1.422v-.566h-4.397c.11-.165.239-.33.346-.495H30v-.568h-3.702c.09-.163.162-.328.255-.475H30zm-1.551 4.006h-1.26c.2.368.494.586.768.75.165.11.347.183.547.238.474.146 1.04.146 1.496.146v-.529c-.419 0-1.277-.055-1.549-.605m-6.903-4.574v.714h-3.265v1.628h3.045v.768H18.29v1.847h3.265v.733l-6.183.017c-.986 0-1.442-.545-1.442-1.443v-2.47h1.147V42.3c0 .256.093.383.347.383h1.714v-4.245h-3.21v-.714zm21.053 1.788H39.94c-.452 0-.643.297-.643.732v3.185h1.01v-1.102h2.14v.209c0 .246-.07.314-.26.314h-.384v.58h.877c.507 0 .696-.23.696-.771v-2.38c0-.385-.088-.768-.768-.768m-.16 2.238h-2.142v-.509h2.142zm0-1.085h-2.142v-.348c0-.14.053-.224.191-.224h1.672c.226 0 .279.068.279.26zm2.312-1.066v-.35c.593 0 1.295-.036 1.571-.63l.523-1.083h-1.157c-.349.718-.625 1.147-.937 1.165v-1.165h-1v2.08c0 .385.26.735.768.735h2.565v-.577h-2.14c-.12 0-.19-.12-.19-.173m-.003 3.077v-.35c.593 0 1.295-.036 1.571-.63l.523-1.085h-1.157c-.349.718-.625 1.147-.937 1.164v-1.164h-1v2.08c0 .385.26.735.768.735h2.565v-.579h-2.14c-.12 0-.19-.12-.19-.174m-4.619-4.049h1.628c.452 0 .667-.192.667-.315v-.478h.937v.403c0 .77-.507 1.015-1.203 1.015h-2.946v-.7c.452-.123.836-.577 1.027-1.015h1.272s-.61.746-1.384 1.092m-8.268.244c0-.09.017-.183.09-.238.055-.055.147-.072.254-.072h4.615c.107 0 .2.017.254.072.073.055.11.13.11.238v.207h1.093v-.207c0-.31-.073-.548-.255-.693-.164-.165-.419-.24-.823-.24h-1.966l-.274-.43H33.8l.272.43h-2.258c-.381 0-.638.092-.82.255-.165.165-.237.423-.237.733v.152h1.112v-.207zm4.908.586v.928s.013 1.715-4.138 2.461c0 0-1.275.046-1.883.037v.588s.843.044 2.023-.042c1.183-.081 5.108-.662 5.108-3.046v-.929h-1.11z" fill="#fff"/><path d="M32.453 39.457v.928s-.013 1.715 4.136 2.461c0 0 1.273.046 1.883.037v.588s-.843.044-2.023-.042c-1.181-.081-5.109-.755-5.109-3.046v-.929h1.113z" fill="#fff"/><path d="M38.329 39.82h-7.57v.566h7.57z" fill="#fff"/><path d="M38.292 39.829h-7.533v.554h7.533z" fill="#fff"/></g><defs><clipPath id="clip0_665_499"><path fill="#fff" d="M0 0h61v46H0z"/></clipPath></defs></svg>