<svg width="260" height="46" fill="none" xmlns="http://www.w3.org/2000/svg"><g clip-path="url(#clip0_668_977)"><path d="m125.46 29.826 2.869.072v-2.794l-2.309.072c.502-.473.99-.917 1.434-1.318l-.746-.645-1.075-.874a12 12 0 0 1-.732-.687l2.309.114v-2.88l-1.993.044h-3.844v-2.564h4.03l2.682.128v-2.922l-2.868.057h-11.489l-2.654-.057v2.88l2.654-.087h3.973v2.565h-3.17l-2.654-.043v2.836l2.654-.071h3.17v3.51h-4.303l-2.74-.072v2.794l2.697-.072h12.091zm-4.073-6.16h2.123a10 10 0 0 1-1.736 1.19c1.062.773 1.721 1.303 1.965 1.575.258.272.474.53.66.745h-3.012z" fill="#231815"/><path d="M60.672 17.492v-6.089H41.796V0h-7.085v8.538C29.676 6.232 19.077 4.756 7.5 4.756H0v6.089h7.502c11.632 0 22.275 1.504 27.209 3.81v3.381C29.676 15.73 19.077 14.24 7.5 14.24H0v6.088h7.502c11.632 0 22.275 1.49 27.209 3.81v3.396c-5.035-2.306-15.634-3.782-27.21-3.782H0v6.089h7.502c11.632 0 22.275 1.504 27.209 3.81V46h25.96v-6.088H41.797v-3.41h18.876v-6.088H41.796V26.99h18.876V20.9H41.796v-3.41z" fill="#00377a"/><path d="M81.843 43.823c-.172.515-.746 2.163-3.5 2.163-2.295 0-3.844-1.332-3.844-3.424 0-1.877 1.19-3.539 3.93-3.539.473 0 1.65.03 2.582.76.416.343.631.73.803 1.203l-1.692.315c-.201-.73-.904-1.132-1.779-1.132-2.094 0-2.094 1.849-2.094 2.278 0 .63.1 1.261.445 1.69.3.373.874.66 1.62.66 1.133 0 1.65-.688 1.865-1.418l1.65.415zm1.477-4.671h1.693v2.65h3.327v-2.65h1.707v6.733H88.34V42.95h-3.327v2.936H83.32zm10.097 0h-1.692v6.733h1.692zm1.722 0h1.65l3.427 4.499h.015v-4.499h1.577v6.733h-1.692l-3.385-4.383h-.015v4.383H95.14zm10.628 4.068 1.147-2.506 1.162 2.507zm5.45 2.651-3.385-6.733h-1.807l-3.285 6.733h1.822l.688-1.519h3.371l.731 1.519zm5.437-2.292c.086.344.301 1.29 1.836 1.29 1.19 0 1.663-.502 1.663-.932 0-.559-.588-.688-2.137-.988-.832-.172-2.696-.545-2.696-2.02 0-.73.602-1.877 3.069-1.877 1.65 0 3.156.516 3.227 2.034l-1.706.058c-.072-.344-.216-.975-1.549-.975-.502 0-1.42.115-1.42.674 0 .43.53.616 1.879.874 1.276.243 3.026.573 3.026 2.234 0 .817-.646 1.505-1.377 1.763-.746.272-1.592.3-1.979.3-.918 0-3.156-.057-3.471-2.306l1.649-.13zm7.974-1.06c0-.989.402-2.307 2.338-2.307 2.065 0 2.324 1.533 2.324 2.292 0 1.949-1.42 2.336-2.324 2.336-1.033 0-1.635-.459-1.908-.846-.2-.272-.416-.702-.416-1.475m-1.749.043c0 1.547.932 3.438 4.102 3.438 2.954 0 4.073-1.72 4.073-3.467 0-1.977-1.334-3.495-4.088-3.495-2.61 0-4.073 1.36-4.073 3.51m11.202-3.396v3.64c0 .801 0 1.13.215 1.446.316.487.975.602 1.492.602 1.621 0 1.621-.817 1.621-1.963v-3.71h1.692v3.538c0 1.203-.057 1.863-.473 2.378-.646.802-1.865.931-2.812.931-3.456 0-3.456-1.69-3.456-3.252v-3.595h1.692zm8.692 1.146h-2.51v-1.146h6.698v1.146h-2.495v5.587h-1.693zm5.322-1.146h1.693v2.65h3.327v-2.65h1.707v6.733h-1.707V42.95h-3.327v2.936h-1.693zm8.505 0h6.254v1.146h-4.562v1.49h4.246v1.132h-4.246v1.834h4.719v1.131h-6.411zm9.553 1.146h1.334c1.147 0 1.362 0 1.678.158.315.157.445.415.445.688 0 .2-.058.63-.646.788-.287.085-1.018.085-1.535.085h-1.262v-1.719zm-1.693 5.587h1.693v-2.807h.344c1.147 0 1.248.128 2.281 1.346l1.219 1.461h2.037l-1.033-1.318c-.846-1.074-1.176-1.318-1.879-1.647v-.029c.315-.028.645-.1.946-.2.818-.273 1.277-.917 1.277-1.662 0-.659-.402-1.433-1.377-1.72-.258-.07-.66-.171-1.936-.171h-3.572zm8.534-6.733h1.65l3.428 4.499h.029v-4.499h1.577v6.733H178l-3.371-4.383h-.029v4.383h-1.578zm14.272 1.146c1.018 0 1.42 0 1.793.258a.79.79 0 0 1 .387.688c0 .974-1.19.974-2.051.974h-.947v-1.92zm-2.524 5.587h1.692V43.35h1.119c.746 0 1.664 0 2.266-.244.531-.2 1.377-.702 1.377-1.89 0-1.19-.803-1.648-1.334-1.863-.445-.172-.904-.215-2.381-.215h-2.739zm9.237-3.366c0-.989.401-2.307 2.338-2.307 2.079 0 2.323 1.533 2.323 2.292 0 1.949-1.42 2.336-2.323 2.336-1.019 0-1.635-.459-1.908-.846-.201-.272-.43-.702-.43-1.475m-1.75.043c0 1.547.932 3.438 4.102 3.438 2.955 0 4.074-1.72 4.074-3.467 0-1.977-1.334-3.495-4.088-3.495-2.611 0-4.074 1.36-4.074 3.51m8.076-3.396h1.75l1.262 4.628h.014l1.535-4.628h2.037l1.477 4.7h.014l1.277-4.7h1.721l-2.051 6.733h-1.822l-1.663-5.028h-.015l-1.664 5.028h-1.85zm11.99 0h6.254v1.146h-4.562v1.49h4.246v1.132h-4.246v1.834h4.719v1.131h-6.411zm9.553 1.146h1.334c1.148 0 1.349 0 1.679.158.315.157.43.415.43.688 0 .2-.058.63-.646.788-.301.085-1.004.085-1.534.085h-1.263zm-1.706 5.587h1.706v-2.807h.345c1.147 0 1.248.128 2.28 1.346l1.219 1.461h2.037l-1.033-1.318c-.846-1.074-1.176-1.318-1.878-1.647v-.029c.329-.028.645-.1.946-.2.832-.273 1.291-.917 1.291-1.662 0-.659-.402-1.433-1.377-1.72-.258-.07-.674-.171-1.922-.171h-3.586v6.733zm15.619-3.61h3.657v2.68c-.502.386-1.893 1.045-3.6 1.045-3.041 0-4.274-1.733-4.274-3.495 0-1.648 1.133-3.453 4.174-3.453 1.362 0 3.127.315 3.6 1.977l-1.693.258c-.329-.931-1.376-1.06-1.893-1.06-.717 0-1.477.172-1.979.759-.373.43-.459.96-.459 1.49 0 .988.444 2.392 2.409 2.392.99 0 1.779-.444 1.994-.573v-.845h-1.936zm7.043-1.977h1.334c1.133 0 1.348 0 1.678.158.315.157.43.415.43.688 0 .2-.057.63-.645.788-.301.085-1.019.085-1.535.085h-1.262zm-1.693 5.587h1.693v-2.807h.344c1.148 0 1.248.128 2.281 1.346l1.219 1.461h2.037l-1.019-1.318c-.846-1.074-1.176-1.318-1.893-1.647v-.029c.33-.028.645-.1.947-.2.817-.273 1.29-.917 1.29-1.662 0-.659-.401-1.433-1.377-1.72-.258-.07-.674-.171-1.936-.171h-3.586zm10.098-6.733h-1.692v6.733h1.692zm4.145 1.146c1.649 0 2.854 0 2.854 2.235s-1.033 2.22-2.352 2.22h-1.277v-4.455zm-2.467-1.132V45.9h3.198c.545 0 1.937 0 2.797-.745C260 44.224 260 43.02 260 42.605c0-1.318-.416-1.934-.703-2.292-.918-1.132-2.295-1.132-3.256-1.132h-3.112zM78.357 18.423h6.813v4.77h-6.813zm.072 8.51-.072-.416h6.813v5.415l-.13 3.123h4.447l-.129-3.123v-5.415h6.97l-.042.473h4.288l-.114-3.238v-5.96l.114-2.707-3.356.115h-7.86v-1.677l.13-3.294H85.04l.129 3.294V15.2h-7.674l-3.256-.115.1 2.707v5.96l-.1 3.18zm10.943-8.51h6.971v4.77h-6.97zm43.174-4.369.114-2.823-3.069.086H109.51l-3.098-.086.101 2.823v17.491l-.101 3.023h3.729v-.358h18.69v.544h3.815l-.115-3.037V14.04zm-3.701 17.348h-18.689V14.154h18.689zm24.714-10.859c-.259.63-.503 1.117-.732 1.447s-.473.659-.746.974c.344.072.66.172.961.33h-3.399a6 6 0 0 1 1.233-.803l-.53-.544-.818-.83c-.143-.13-.359-.316-.645-.588h4.676zm-16.251-4.484 3.055-.1h9.079l-.029 1.733h-7.788l-2.883-.1.115 2.45v11.116l-.115 3.381h3.959l-.058-3.38v-10.63h4.332a8.4 8.4 0 0 1-1.42.83c.574.473.975.831 1.19 1.104.216.258.445.53.689.83h-1.133l-2.381-.057v2.808l2.381-.057h3.284v1.39h-2.424l-3.241-.072v2.822l3.241-.072h2.424v1.218l-.057 3.109h3.973l-.086-3.109v-1.218h2.166l2.998.072v-2.822l-2.998.072h-2.166v-1.39h2.768l2.367.057v-2.808l-2.367.058h-.487c.229-.273.487-.616.76-1.046.287-.43.502-.802.688-1.132a5.3 5.3 0 0 1-1.377-.587h3.959V30.57c0 .43-.072.716-.229.874s-.531.23-1.105.23c-.588 0-1.248-.044-1.979-.173l.373.817q.473 1.031.602 1.719.13.687.215 1.117c2.898-.043 4.604-.33 5.15-.888.53-.559.803-1.16.803-1.82V20.057l.114-2.45-3.155.1h-7.014l.029-1.733h8.118l3.514.1v-3.18l-3.514.1h-8.075l.086-1.518.072-1.117q-1.42.043-4.26-.215l.086 1.189-.086 1.661h-9.08l-3.055-.1v3.18zm38.927 12.149c1.334-1.691 2.152-3.252 2.453-4.656q.451-2.129.559-4.77l.043-1.405h-6.282l-3.443.115v-3.367l3.515.1h9.351c-.516-.988-1.319-1.976-2.395-2.936 1.09-.358 2.195-.903 3.313-1.662.474.473 1.019 1.103 1.635 1.905.617.803 1.119 1.461 1.478 1.992-.473.229-.889.472-1.277.702h8.721l3.571-.1v3.366l-3.93-.115h-10.255c-.072.903-.115 1.461-.115 1.648l-.071 1.46h8.261l2.639-.056-.129 2.793a320 320 0 0 1-.157 5.501c-.058 1.06-.144 1.963-.302 2.708a3.63 3.63 0 0 1-1.047 1.934c-.559.558-1.405 1.002-2.553 1.346s-2.725.588-4.704.731c-.058-.3-.158-.73-.273-1.246a4.5 4.5 0 0 0-.617-1.433l-.602-.931a89 89 0 0 0 2.768 0c1.004-.029 1.721-.215 2.166-.544.445-.344.731-.688.889-1.046s.258-.946.287-1.762l.144-3.21v-1.79h-7.172a125 125 0 0 1-.373 1.561c-.143.53-.488 1.462-1.033 2.823q-.839 2.04-3.528 3.996c-1.793 1.304-3.772 2.407-5.938 3.338-.961-1.289-1.578-2.077-1.879-2.335l-.89-.816c3.443-.845 5.809-2.106 7.143-3.797m30.193-11.675h5.867v3.066h-5.867zm-3.787-.73v10.213l-.1 2.737h3.873v-.401h5.866v3.839c0 .602.072 1.089.215 1.447.144.372.502.688 1.105.988.573.301 1.463.444 2.668.459 1.19 0 2.739.014 4.632.057 1.98.057 3.443.057 4.389.014s1.664-.143 2.138-.3a3.5 3.5 0 0 0 1.319-.817c.402-.387.932-1.49 1.549-3.31-1.09-.3-2.323-.802-3.715-1.532l-.186 1.046c-.1.673-.344 1.146-.746 1.418-.387.272-.904.43-1.535.487-.616.057-1.663.072-3.112.043l-3.371-.086c-.731-.014-1.19-.129-1.362-.315a.9.9 0 0 1-.259-.63v-2.808h6.713v.501h3.873l-.101-2.622V15.86l.101-2.335-2.496.1h-8.09V12.12l.086-2.106h-3.901l.072 2.106v1.504h-6.842l-2.912-.1.101 2.335zm3.787 6.618h5.867v3.008h-5.867zm9.61-5.888h6.713v3.066h-6.713zm0 5.888h6.713v3.008h-6.713zm22.605-3.481.775.916c.215.258.932 1.19 2.122 2.78-.401 1.103-.817 1.948-1.248 2.55-.43.587-.989 1.217-1.663 1.89v-8.122zm.057 15.27-.057-3.48v-3.223c.803.673 1.334 1.146 1.592 1.432s.502.573.76.874c1.119-1.304 1.808-2.178 2.08-2.607.273-.445.516-.817.703-1.146l.416.716q.108.215.387 1.074l.717-.573c.431-.344 1.219-.788 2.381-1.332a95 95 0 0 0-2.309-3.624l.316-.903c.114-.315.315-1.031.588-2.12.989 1.046 1.606 1.705 1.836 1.977.243.286.674.917 1.29 1.934l-.487 1.117a12 12 0 0 1-1.363 2.35c-.574.773-1.391 1.59-2.438 2.45 1.047.5 1.735.859 2.051 1.088q.494.344 1.076.774a16 16 0 0 0 1.391-1.447c.359-.43 1.061-1.447 2.123-3.037l.832 1.46q.107.195.602 1.333c1.047-.931 2.022-1.69 2.912-2.263l-.531-.874s-.818-1.175-2.295-3.338l.445-1.676c.158-.616.33-1.433.53-2.479l.287-1.604c.043-.172.086-.444.158-.802a37 37 0 0 1-3.83-.43v.845c0 .43-.114 1.318-.329 2.636a378 378 0 0 0-1.463-1.719l-.675.502c-.373.3-1.047.644-2.008 1.017l.33-1.404s.043-.244.129-.66c.086-.415.158-.773.23-1.074-1.492-.114-2.754-.315-3.787-.573l-.043 1.075c-.014.458-.072.888-.129 1.289q-.108.6-.258 1.29a45 45 0 0 1-1.621-2.035c-.803.573-1.348.931-1.649 1.046a24 24 0 0 1-.89.358v-3.653h17.499v15.615q0 .45-.215.73c-.143.187-.602.258-1.377.244-.645 0-1.334-.057-2.065-.158l.459.846c.43.816.688 1.447.745 1.862s.115.76.144 1.003c1.979-.1 3.414-.287 4.288-.559q1.313-.408 1.55-1.117a5 5 0 0 0 .229-1.547V14.913l.072-3.238-3.701.1h-17.843l-3.801-.1.101 3.238v15.873l-.101 3.481h4.059z" fill="#231815"/></g><defs><clipPath id="clip0_668_977"><path fill="#fff" d="M0 0h260v46H0z"/></clipPath></defs></svg>