<svg width="212" height="46" fill="none" xmlns="http://www.w3.org/2000/svg"><g clip-path="url(#clip0_663_161)" fill="#2755a6"><path d="M86.207 8.825v6.947c0 4.224 3.283 7.51 7.41 7.51h15.666V18.4H94.462c-.47 0-.75-.282-.75-.751V6.853c0-.47.28-.75.75-.75h14.821V1.22l-15.665.094c-4.128 0-7.411 3.38-7.411 7.51m-10.037 1.69 8.161-9.388h-8.818l-3.47 4.037a2.377 2.377 0 0 1-3.378 0l-3.47-4.037h-8.912l8.161 9.388c.938.939.938 2.441-.094 3.38l-8.067 9.388h8.724l3.47-4.037a2.377 2.377 0 0 1 3.378 0l3.564 4.037h8.818l-8.16-9.388c-.845-.845-.845-2.347.093-3.38M.469 8.73v14.646l7.41-.094v-6.853c0-1.127.845-1.784 1.783-1.784h12.757v-3.849H8.63c-.374 0-.75-.375-.75-.751V6.853a.74.74 0 0 1 .75-.75h14.916V1.22H7.41C3.564 1.22.47 4.6.47 8.73m46.433-7.51h-11.82c-4.503 0-8.255 3.38-8.255 7.51v6.948c0 4.13 3.659 7.51 8.255 7.51h11.632c4.502 0 7.598-3.38 7.598-7.51V8.73c0-4.037-2.908-7.51-7.41-7.51m-.282 16.523c0 .47-.375.75-.844.75h-10.6a.74.74 0 0 1-.75-.75V6.853c0-.47.28-.75.75-.75h10.787c.47 0 .75.28.75.75zM194.177 1.22H174.29v22.062h7.411V6.759c0-.375.375-.75.75-.75h10.975a.74.74 0 0 1 .751.75v16.523h7.504V8.637c0-4.037-3.658-7.417-7.504-7.417m-30.862 0h-19.886v22.062h7.504V6.853a.74.74 0 0 1 .751-.75h10.975c.281 0 .656.28.656.75v16.523h7.505V8.73c0-4.037-3.659-7.51-7.505-7.51m-30.862 0h-11.726c-4.502 0-8.161 3.38-8.161 7.51v7.041c0 4.131 3.659 7.51 8.161 7.51l5.441.095h6.191c4.503 0 7.692-3.38 7.692-7.51V8.73c-.093-4.13-3.001-7.51-7.598-7.51m-.187 16.523c0 .47-.282.75-.845.75h-10.6c-.469 0-.844-.28-.844-.75V6.853c0-.375.281-.75.844-.75h10.6c.469 0 .845.28.845.75zM5.535 32.482c-.188-.282-.188-.376-.47-.657l1.689-.564c.375.657.469.751.657 1.22h3.846c.75 0 1.125 0 1.688-.093-.094.281-.094.563-.094 1.032v.94c0 .469 0 .75.094 1.032H11.35v-1.596H1.595v1.69H0c.094-.376.094-.657.094-1.127v-.939c0-.375 0-.75-.094-1.032.469.094.844.094 1.689.094zM.75 41.118c0-.75 0-1.126-.093-1.502h11.632c0 .47-.094.751-.094 1.502v2.629c0 .657 0 1.22.094 1.69H10.6v-.563H2.251v.563H.657c.093-.47.093-1.033.093-1.69zm10.038-3.098c0 .47 0 .751.093 1.033-.469-.094-.938-.094-1.407-.094H3.471c-.47 0-.938 0-1.407.094 0-.375.094-.563.094-1.033v-.845c0-.469 0-.657-.094-1.032.375 0 .844.094 1.407.094h6.003c.563 0 .938 0 1.407-.094-.093.375-.093.563-.093 1.032zm-8.63-3.755c.28 0 .75.094 1.125.094h6.379c.469 0 .844 0 1.126-.094v1.408c-.376 0-.75-.093-1.126-.093H3.283c-.469 0-.75 0-1.125.093zm.093 7.417h3.284v-.751H2.25zm0 1.877h3.284v-.75H2.25zm1.407-5.632h5.629v-.658H3.658zm3.471 3.755h3.565v-.751H7.129zm0 1.877h3.565v-.75H7.129zm35.646-7.604c.75 0 1.407 0 2.064-.094v1.878c-.657-.094-1.22-.094-2.064-.094H38.93v5.445h3.19c.938 0 1.313 0 1.876-.094v1.784c-.563-.094-1.032-.094-1.876-.094h-7.974c-.844 0-1.313 0-1.876.094v-1.784c.469.094.938.094 1.876.094h3.002v-5.445H33.77c-.844 0-1.407 0-2.158.094V35.86c.657.094 1.314.094 2.158.094h3.47v-2.628c0-.658 0-1.127-.093-1.69h1.97c-.094.563-.094 1.032-.094 1.69v2.628zm32.081.657c.563 0 .75 0 1.032-.094v1.408c-.375-.093-.657-.093-1.032-.093h-.281v1.971h-.282l1.032.751c-.657.657-1.407 1.314-2.064 1.69l.094.094c.657.563 1.407.938 2.627 1.502-.375.47-.563.75-1.032 1.408-2.251-1.22-3.47-2.347-4.503-4.13v2.628c0 1.126-.375 1.502-1.876 1.502h-1.313c-.094-.657-.094-1.033-.281-1.596-.094.094-.094.094-.376.188-.281.094-.562.281-1.032.47-.187.093-.375.187-.469.187l-.75-1.314c.75-.188 1.782-.564 2.814-1.033-.75-.751-1.126-1.127-1.688-1.502l.938-.751c-.657 0-.75 0-1.032.094v-1.408c.281.093.563.093 1.125.093h2.627v-.75h-4.315c0 1.595-.188 3.004-.375 4.318-.282 1.408-.563 2.253-1.126 3.192-.563-.657-.657-.845-1.22-1.315.47-.845.657-1.69.845-3.098.281-1.877.375-3.755.375-6.665 0-1.033 0-1.408-.094-1.878.47.094.938.094 1.876.094h3.471c-.187-.281-.187-.375-.563-.75l1.689-.47c.469.657.563.939.75 1.314h3.659c.75 0 1.313 0 1.782-.094v1.502c-.469 0-.75-.093-1.313-.093h-3.94v.657h2.814c.563 0 .844 0 1.22-.094 0 .375-.094.563-.094 1.126v.94zm-5.722-.657h-2.533c-.375 0-.75 0-1.125.094V34.64c.281 0 .563.094 1.125.094h2.533v-.658h-4.221v2.629h4.221zm-1.876 6.196c.469-.188 1.032-.563 1.876-.939v-1.314h-2.533a6.3 6.3 0 0 1 1.501 1.314zm1.876.563c-.75.47-1.126.657-1.876 1.033.375.094.938.094 1.313.094.47 0 .563-.094.563-.376zm3.94-6.759h-2.44v.657h2.44zm-2.44 2.722h2.44v-.75h-2.44zm.47 1.22c.375.658.657 1.034 1.126 1.503.844-.563 1.125-.845 1.688-1.502zm27.11-2.44c.845.657 1.501 1.22 2.158 1.972l-.844 1.314c-.657-.845-.75-1.033-1.314-1.596v4.506c0 .845 0 1.314.094 1.878h-1.782c.094-.564.094-1.033.094-1.878v-2.44c0-.376 0-.752.093-1.878-.469 1.408-.938 2.347-1.782 3.38-.281-.752-.469-.94-.844-1.597.657-.75 1.126-1.408 1.688-2.44.282-.564.563-1.22.75-1.69h-.843c-.563 0-.845 0-1.314.094v-1.596c.47.094.75.094 1.314.094h.938v-1.502c-.657.093-.845.187-1.783.281-.187-.657-.281-.845-.562-1.408 2.438-.282 4.22-.657 5.065-1.314l.938 1.408s-.094 0-.188.094c-.375.188-1.219.375-1.876.657v1.877h.845c.469 0 .75 0 1.125-.093v1.596c-.375-.094-.656-.094-1.125-.094h-.75zm8.161 2.44a5 5 0 0 0 1.407-.375l.094 1.784q-.562 0-1.407.282h-.094v2.253c0 .845 0 1.314.094 1.783h-1.782c.094-.469.094-.844.094-1.783v-1.878l-3.377.751c-.563.094-1.032.282-1.407.376l-.188-1.784h.094c.187 0 .75-.094 1.313-.188l3.565-.845V33.42c0-.845 0-1.314-.094-1.783h1.782c-.094.47-.094.938-.094 1.69zm-5.253-3.66c1.314.938 1.876 1.408 2.814 2.347l-.938 1.314c-1.125-1.22-1.688-1.69-2.814-2.44zm.563-3.755c1.407 1.032 2.064 1.502 2.908 2.347l-1.032 1.314c-.938-1.127-1.594-1.69-2.814-2.441zm25.422.657c0-.658 0-1.033-.094-1.502h1.782c-.094.469-.094.844-.094 1.502v1.22h.282c.281 0 .563 0 .844-.094v1.596c-.375 0-.563-.094-.938-.094h-.188v2.347c.375-.094.563-.188 1.22-.47v1.503c-.657.281-1.126.47-1.22.47v4.318c0 1.22-.375 1.502-1.97 1.502h-1.032c-.093-.564-.093-1.033-.375-1.596.469.094.845.094 1.22.094.469 0 .563-.094.563-.47v-3.192c-.376.188-.657.188-.657.282-.188 0-.281.094-.563.188l-.375.188-.282-1.69c.563-.094.751-.094 1.877-.47v-2.816h-.657c-.375 0-.657 0-1.126.094v-1.596c.376.094.657.094 1.126.094h.563v-1.408zm9.192 3.849c.47 0 .845 0 1.032-.094l.751.845c-.094.187-.188.281-.469.845-.657 1.314-1.314 2.253-2.345 3.285 1.031.751 2.157 1.315 3.752 1.878-.469.657-.751 1.032-.938 1.596-1.689-.657-2.814-1.408-4.034-2.441-1.407 1.126-2.814 1.877-4.315 2.347-.187-.563-.469-1.033-.844-1.596 1.595-.47 2.72-1.033 4.034-1.971-.939-1.033-1.595-2.16-2.064-3.474h-.563v-1.596c.469.094.938.094 1.501.094h1.407v-1.971h-1.407c-.657 0-1.313 0-1.689.093v-1.596c.376 0 .938.094 1.689.094h1.407v-.469c0-.751 0-1.033-.094-1.502h1.782c-.093.47-.093.751-.093 1.502v.47h2.063c.657 0 1.22 0 1.689-.094v1.69c-.469-.095-1.126-.095-1.689-.095h-2.063V36.8h1.5zm-3.752 1.408a6.9 6.9 0 0 0 1.595 2.535c.844-.845 1.313-1.503 1.876-2.535zm35.271-3.568c.751 0 .938 0 1.407-.093v1.314c-.469-.094-.656-.094-1.407-.094h-2.814v.657h2.814c.751 0 .938 0 1.407-.094v1.315c-.375 0-.656-.094-1.407-.094h-2.814v.75h3.471c.656 0 1.032 0 1.407-.093v1.408c-.375-.094-.751-.094-1.407-.094h-3.94v.751h4.221c.938 0 1.313 0 1.689-.094v1.502c-.469-.094-.938-.094-1.689-.094h-2.908c1.126.845 3.002 1.596 4.878 1.878-.281.375-.375.563-.563.845l-.187.375c0 .094-.094.188-.094.282-1.22-.282-2.064-.657-3.002-1.127-1.032-.563-1.688-.938-2.439-1.69v1.878c0 .563 0 .751.094 1.127h-1.782c.093-.282.093-.564.093-1.033v-.845c0-.375 0-.657.094-1.033-.75.752-1.501 1.315-2.72 1.878-.844.376-1.595.657-2.627.939-.281-.563-.469-1.033-.844-1.502 1.313-.188 2.158-.47 3.189-.939.751-.376 1.126-.563 1.595-.939h-2.908c-.75 0-1.219 0-1.688.094v-1.502c.375.094.75.094 1.688.094h4.221v-.751h-4.221c.094-.282.094-.751.094-1.22v-1.878c0-.47 0-.845.094-1.314-.469.563-.751.845-1.407 1.314-.282-.657-.469-1.033-.751-1.502 1.126-.845 1.97-1.69 2.721-2.91.187-.376.375-.657.469-.939l1.688.282c-.375.657-.656 1.032-.844 1.22h3.002c-.188-.47-.376-.845-.563-1.033l1.595-.375c.281.375.469.939.656 1.408h2.814c.657 0 1.032 0 1.407-.094v1.408c-.375 0-.656-.094-1.219-.094h-3.565v.658zm-4.315-.75h-3.096v.657h3.096zm-3.189 2.534h3.095v-.657h-3.095zm0 1.878h3.095v-.657h-3.095zm28.516 6.947c.094-.563.094-1.033.094-1.972V33.89c0-.657 0-1.127-.094-1.784.563.094.938.094 1.782.094h9.287c.844 0 1.22 0 1.782-.094-.093.563-.093.939-.093 1.784v9.575c0 .845 0 1.408.093 1.972h-1.688v-.845h-9.474v.845zm1.689-2.253h9.474v-9.576h-9.474zm2.251-6.196c-.563 0-.938 0-1.407.094v-1.69c.375.094.75.094 1.501.094h3.095c0-.751 0-1.127-.094-1.502h1.689c-.094.375-.094.657-.094 1.502h.469c.751 0 1.126 0 1.501-.094v1.69c-.469-.094-.844-.094-1.407-.094h-.563v3.943c0 1.314-.375 1.69-1.97 1.69-.375 0-.844 0-1.219-.094-.094-.47-.094-.657-.282-1.22-.093-.189-.093-.189-.093-.376.562.094.938.187 1.5.187.469 0 .563-.093.563-.563V37.74c-1.032 1.69-2.063 2.816-4.127 4.13-.282-.563-.375-.75-1.032-1.408.938-.47 1.595-.845 2.251-1.408.751-.657 1.22-1.126 1.595-1.877zm13.508-35.392h2.439c.375 0 .751.094 1.032.188.469.187.751.657.751 1.22 0 .282-.094.563-.188.751a.96.96 0 0 1-.563.47c.188.093.375.187.469.281s.188.376.188.657v.751c0 .188 0 .376.094.47 0 .187.093.281.187.281v.094h-.938s-.094-.094-.094-.188v-.375l-.093-.845c0-.375-.188-.563-.376-.657h-2.157v2.253h-.751zm2.439 2.44c.375 0 .563-.093.751-.187.187-.094.281-.376.281-.751 0-.376-.094-.657-.375-.751-.188-.094-.375-.094-.563-.094h-1.782v1.784z"/><path d="M208.154 8.073c-2.064 0-3.846-1.69-3.846-3.849 0-2.065 1.688-3.849 3.846-3.849 2.063 0 3.846 1.69 3.846 3.85 0 2.159-1.689 3.848-3.846 3.848m0-7.322a3.565 3.565 0 0 0-3.565 3.567 3.565 3.565 0 1 0 7.129 0 3.564 3.564 0 0 0-3.564-3.567"/></g><defs><clipPath id="clip0_663_161"><path fill="#fff" d="M0 0h212v46H0z"/></clipPath></defs></svg>