<svg width="310" height="64" fill="none" xmlns="http://www.w3.org/2000/svg"><g clip-path="url(#clip0_668_1124)"><path d="M9.7 39C9 38.5 7 37 7 34.9c0-.7.2-1.4.6-2.2 4.1-7.5 28.1-17 63-17.9h.1l6.5-8.3c.1-.2 0-.4-.2-.4C22 7.9.5 24 0 31.1c-.3 3.7 5.4 7 9.6 8.9.2 3.7 6.4 7.2 9.5 8.5.4 3.6 6.8 7.8 14.3 9.4.3.1.5-.3.2-.5-5.5-2.5-7.3-4.9-6.9-7.1.3-1.9 2.3-3.8 6.1-5.4 6.4-2.6 15.2-3.7 22.7-4.2l6-7.7c.1-.2 0-.4-.2-.4-25.6 1.2-40.3 7.8-42.1 14.2-.1.2-.1.4-.1.6-1.5-.9-2.6-2.3-2.7-3.9 0-.6.1-1.1.4-1.7 2.7-5.4 17.6-12.9 46-13.6l6.2-7.9c.1-.2 0-.4-.2-.4-35.1.3-57.9 10.7-59.1 19.1" fill="#12315a"/><path d="M179.6 27c-2.3-1.8-5.2-2.9-8.4-2.9-7.6 0-13.8 6.2-13.8 13.8s6.2 13.8 13.8 13.8c3.2 0 6.1-1.1 8.4-2.9v2.8h6.4V16.1h-6.4zm-8.5 18.9c-4.4 0-8-3.6-8-8s3.6-8 8-8 8 3.6 8 8-3.5 8-8 8M293.6 27c-2.3-1.8-5.2-2.9-8.4-2.9-7.6 0-13.8 6.2-13.8 13.8s6.2 13.8 13.8 13.8c3.2 0 6.1-1.1 8.4-2.9v2.8h6.4V16.1h-6.4zm-8.4 18.9c-4.4 0-8-3.6-8-8s3.6-8 8-8 8 3.6 8 8-3.6 8-8 8m-22.9 5.8h6.4V35.9c0-2.5-.7-4.7-2.1-6.8-3-4.6-11.9-5.9-16.3-.7-.2.2-.4.4-.7.8v-3.6h-6.4v26.1h6.4V39.1c0-.8 0-1.6.2-2.5.3-1.9 1.2-4 2.9-5.2 3.5-2.3 8.9-.7 9.6 3.4.2 1.4.1 3.6.1 4.5zM154.7 16.1h-6.4v35.6h6.4zm83.7 9.6H232v26.1h6.4zm-21.2 18.2L212 25.8h-6.7l-5.1 18.1-5.3-18.1h-6.5l8.3 25.9h6.9l4.9-17.7 5.2 17.7h7.2l8-25.9h-6.4zm21.2-27.8H232v6.4h6.4zm-124 16.1-20.9.1v5.5H108c-1.6 5-6.3 8.4-11.5 8.4-6.7 0-12.1-5.4-12.1-12.1S89.8 22 96.5 22c4 0 7.7 2 9.9 5.2h6.8C110.5 20.6 104 16 96.5 16c-10 0-18.1 8.1-18.1 18.1s8.1 18.1 18.1 18.1 18.1-8.1 18.1-18.1c0-.4 0-.8-.1-1.3zm17-8.2c-7.8 0-14.1 6.3-14.1 14.1s6.3 14.1 14.1 14.1 14.1-6.3 14.1-14.1S139.2 24 131.4 24m0 22.7c-4.7 0-8.6-3.8-8.6-8.6s3.8-8.6 8.6-8.6c4.7 0 8.6 3.8 8.6 8.6s-3.9 8.6-8.6 8.6" fill="#103057"/></g><defs><clipPath id="clip0_668_1124"><path fill="#fff" d="M0 0h310v64H0z"/></clipPath></defs></svg>