<svg width="231" height="46" fill="none" xmlns="http://www.w3.org/2000/svg"><g clip-path="url(#clip0_663_310)"><path d="M28.759 26.605h-9.7v9.114H9.705V9.631H0v35.797h28.759z" fill="#0057a6"/><path d="M29.106 9.703h9.359v26.095h9.7V0H19.4v18.818h9.706z" fill="#a8abab"/><path d="M165.122 42.216h5.172V40.4h-5.172v-1.424h5.576v-1.9h-8.899V46h9.05v-2.024h-5.727zm-10.597.28-1.389-5.42h-3.581V46h2.23v-6.805L153.5 46h2.023l1.726-6.805V46h2.224v-8.924h-3.575zm-73.057-.257v-5.326h-3.317v5.455q0 .732-.488 1.138c-.32.269-.768.414-1.345.414s-1.031-.145-1.35-.42c-.325-.275-.488-.645-.488-1.132v-5.455h-3.306v5.326c0 .437.106.936.308 1.508.129.353.359.69.7 1.026.348.33.735.588 1.144.773.414.18.936.303 1.546.359.622.067 1.188.09 1.71.09.902 0 1.675-.096 2.32-.298a3.9 3.9 0 0 0 1.328-.74c.425-.347.734-.762.935-1.233.202-.47.297-.958.297-1.485m43.503-.23-3.872-4.933h-2.982V46h3.004v-4.9l3.85 4.9h3.015v-8.924h-3.015zm-12.054 1.351c-.364.387-.868.572-1.53.572-.661 0-1.143-.202-1.513-.589s-.566-1.043-.566-1.945.191-1.559.566-1.945q.566-.596 1.491-.595c.65 0 1.16.197 1.53.572.381.398.566 1.01.566 1.85 0 .998-.18 1.682-.544 2.08m2.275-5.387c-.902-.802-2.163-1.211-3.821-1.211s-2.875.415-3.777 1.228q-1.356 1.211-1.357 3.397c0 1.042.225 1.917.69 2.606a4.13 4.13 0 0 0 1.771 1.525q1.117.47 2.79.47c1.115 0 2.018-.178 2.757-.554a4 4 0 0 0 1.693-1.558c.392-.662.588-1.525.588-2.562 0-1.44-.448-2.55-1.339-3.347m-48.932 2.231h-3.626v-3.122H59.3V46h3.323v-3.61h3.626V46h3.34v-8.924h-3.34zm22.914 2.394h-2.36l1.177-3.207zm4.65 3.313-3.995-8.83h-3.614L82.169 46h3.39l.516-1.474h3.782L90.39 46h3.424zm7.723-4.356c0 .723-.079 1.25-.23 1.564-.157.325-.37.538-.656.673-.269.123-.734.185-1.384.185h-.757v-4.883h.774c.807 0 1.384.185 1.731.527.353.353.527 1.003.527 1.934m3.116-.045c0-.616-.079-1.177-.247-1.732a3.7 3.7 0 0 0-.795-1.435 3.66 3.66 0 0 0-1.385-.942c-.566-.218-1.3-.32-2.207-.32h-4.624v8.83l4.624.095c.56 0 1.165-.09 1.849-.247.499-.117.958-.358 1.395-.717a3.5 3.5 0 0 0 1.02-1.318c.252-.52.364-1.255.364-2.214m30.059 1.116h1.962v.835c-.387.219-.723.37-1.026.449-.297.1-.605.14-.936.14-.695 0-1.238-.208-1.619-.617-.393-.41-.583-1.099-.583-2.074 0-.903.19-1.575.577-1.99.381-.426.897-.633 1.541-.633.437 0 .785.09 1.065.269s.476.431.594.768l2.835-.477c-.168-.572-.431-1.054-.767-1.424-.342-.38-.774-.644-1.3-.835-.516-.168-1.3-.269-2.354-.269-1.053 0-1.961.146-2.6.437-.83.376-1.446.925-1.883 1.643-.415.717-.639 1.564-.639 2.545q-.002 1.386.594 2.46a3.87 3.87 0 0 0 1.653 1.615q1.068.538 2.757.538c.919 0 1.715-.095 2.376-.308.673-.19 1.441-.572 2.309-1.127v-3.806h-4.539v1.86zm44.769.493a1.44 1.44 0 0 1-.684.673c-.302.123-.795.185-1.49.185h-.813v-4.883h.824c.863 0 1.479.185 1.855.527.364.353.549 1.003.549 1.934q-.001 1.085-.247 1.564m3.324-3.341a3.9 3.9 0 0 0-.858-1.435 3.95 3.95 0 0 0-1.479-.942c-.6-.218-1.384-.32-2.354-.32h-4.931V46h4.931c.589 0 1.244-.09 1.973-.247a3.7 3.7 0 0 0 1.496-.717 3.6 3.6 0 0 0 1.087-1.318c.263-.52.392-1.255.392-2.214 0-.616-.084-1.177-.257-1.732m15.073 3.711c-.325.297-.813.443-1.44.443-.628 0-1.16-.18-1.519-.55-.359-.364-.544-1.048-.544-2.04 0-.801.146-1.384.454-1.76q.607-.75 1.726-.751c.342 0 .634.05.903.18.263.111.498.274.678.476.117.123.229.33.319.6l2.936-.539c-.375-.953-.947-1.648-1.726-2.096-.773-.46-1.843-.684-3.194-.684-1.72 0-3.065.398-4.006 1.188-.947.796-1.424 1.929-1.424 3.42q0 1.65.807 2.719c.533.712 1.183 1.2 1.917 1.485.739.28 1.703.42 2.863.42.953 0 1.749-.123 2.371-.347a3.9 3.9 0 0 0 1.563-1.026c.42-.454.734-1.026.925-1.693l-2.909-.734c-.151.566-.381.998-.711 1.29m18.745-1.475-4.046-4.933h-3.093V46h3.121v-4.9l4.018 4.9h3.138v-8.924h-3.138zm-9.465-4.933h-3.328V46h3.328zm-18.431 0h-3.323V46h3.323zm36.638 5.202h5.099v-1.794h-5.099v-1.39h5.497v-1.895h-8.776V46H231v-2h-5.654zM64.915 20.13h5.015V7.882c2.611-1.9 4.427-4.11 5.492-6.755h-5.016c-2.633 3.514-6.102 5.661-10.232 6.777v4.698c1.726-.59 3.295-1.2 4.735-1.862v9.379zm17.875 1.03v-1.547h-5.156v1.547H60.09v4.21h17.545v6.789h5.156V25.37h15.926v-4.21zm-10.737-3.733a89 89 0 0 0 7.767-2.87v2.102c0 1.043.69 1.945 1.597 2.007h15.506c.874 0 1.726-.964 1.726-2.315v-3.947h-3.923v3h-10.31v-3.016C90.384 9.26 94.615 5.645 97.49 1.514h-5.206c-2.668 2.662-5.29 4.663-7.868 6.222V1.155h-4.595v8.935c-2.606 1.11-5.19 1.878-7.773 2.523v4.815zm40.858 3c-1.552 3.666-4.438 5.583-8.227 6.329v5.41c6.59-1.48 11.41-4.984 13.349-11.733h-5.128zm7.391-15.623c.482-.998.936-2.09 1.396-3.307h-5.072a19.7 19.7 0 0 1-1.519 3.307h-11.218V8.74h8.361c-1.883 2.142-4.186 4.126-6.781 5.993h-.448v4.288h18.027v8.907h-5.144v3.852h8.243c1.171 0 2.253-1.85 2.253-3.28v-9.48h13.74v-4.288H128.4v-4.317h-5.346v4.317h-11.561c2.611-1.71 4.713-3.453 6.523-5.993h24.472V4.804zm15.08 15.511h-5.318c2.326 5.97 7.274 10.393 12.172 11.39v-5.168c-3.268-1.182-5.683-3.436-6.854-6.222m20.342 3.778v4.25c5.817-.36 11.158-1.738 15.192-5.657 4.433 4.288 9.622 5.393 15.198 5.656v-4.086c-4.814-.292-9.336-1.273-12.082-4.754h11.393v-3.655h-12.318v-3.862h12.665V8.504h-20.751c.42-.762.83-1.598 1.211-2.517h-4.668c-.914 2.707-2.926 4.266-5.834 4.905v4.378c2.499-.348 4.752-1.362 6.685-3.285h5.929v3.862h-12.692v3.655h11.992c-2.757 3.476-7.111 4.289-11.92 4.586m-1.384 4.848V5.365h32.402V2.063h-37.787V32.16h37.859v-3.218h-32.479zm47.924-14.771c-.521.623-1.35 1.67-1.9 2.265h-2.236c1.261-1.598 2.371-3.408 3.346-5.42h-4.578c-.634 2.012-1.967 3.772-3.592 5.42h-.353v2.92h4.443c-.941.864-1.793 1.492-2.768 2.293l-1.137.202v3.347h13.555v-3.493h-5.632c2.175-2.298 4.506-5.028 6.069-7.534zM193.32 32.16c4.433-.482 9.213-1.351 13.724-2.685v-3.269c-4.472 1.183-9.263 1.727-13.724 2.338zm30.289-28.376V1.816h-4.438v1.968h-15.327V1.816h-4.628v1.968h-7.285v3.873h7.285v1.8h4.628v-1.8h15.327v1.8h4.438v-1.8h6.601V3.784zm-.667 22.832v-3.762q-3.725-1.1-5.155-3.868h-4.399c1.602 3.773 4.533 6.62 9.554 7.63m-6.73-15.864h-4.18c-.404 3.256-2.068 5.028-4.31 6.127v5.1c2.712-.98 5.212-2.735 6.697-5.46h10.283v10.108c0 .734-.611 1.614-1.188 1.614h-7.196v3.571h10.014c1.385 0 2.847-1.771 2.847-3.515V12.915h-13.494c.213-.75.381-1.306.521-2.158" fill="#241714"/></g><defs><clipPath id="clip0_663_310"><path fill="#fff" d="M0 0h231v46H0z"/></clipPath></defs></svg>