<svg width="107" height="46" fill="none" xmlns="http://www.w3.org/2000/svg"><g clip-path="url(#clip0_663_335)" fill="#004898"><path d="M42.652 20.427H28.65l-4.262-4.261V8.699l1.485 1.485v5.383l3.363 3.366h11.92l1.498 1.497zm-4.955-2.165H29.51l-2.986-2.974V9.927l-2.147-2.156-2.137 2.147v7.131l5.506 5.519h10.638c0 .147.01.291.01.438 0 7.508-5.026 13.876-11.876 15.915v-8.197l2.986-2.974h5.361l2.147-2.146-2.147-2.146h-7.122l-5.506 5.518v10.638c-.157 0-.304.012-.46.012-4.576 0-8.734-1.873-11.74-4.87a16.6 16.6 0 0 1-4.189-7.006h8.2l2.975 2.974v5.371l2.146 2.137 2.147-2.137v-7.12l-5.519-5.518H5.162v-.45c0-7.5 5.017-13.876 11.864-15.928v8.21l-2.974 2.973h-5.37L6.533 20.41l2.146 2.159h7.12l5.518-5.519V6.386h.46c4.566 0 8.725 1.865 11.739 4.879a16.6 16.6 0 0 1 4.177 6.994M19.178 16.15l-4.262 4.262H7.449l1.485-1.486h5.387l3.362-3.365V2.422L19.17.931l.01 15.22zm-4.262 9.45 4.262 4.262v7.47l-1.486-1.485v-5.386l-3.362-3.365-11.901-.01L.94 25.601zm9.47 4.262 4.261-4.261h7.468l-1.486 1.482h-5.405l-3.344 3.343v13.136l-1.485 1.492-.012-15.195zm19.162-9.453L41.4 18.262h-2.607a17.84 17.84 0 0 0-4.544-7.74A17.58 17.58 0 0 0 21.78 5.34h-.461V2.146L19.17 0l-2.146 2.146v3.842c-7.436 2.084-12.91 8.93-12.91 17.015v.451H2.146L0 25.601l2.147 2.146h2.62a17.6 17.6 0 0 0 4.534 7.74c3.205 3.193 7.614 5.183 12.48 5.183.157 0 .305-.01.461-.01v3.194L24.38 46l2.147-2.147v-3.841c7.436-2.084 12.923-8.921 12.923-17.006 0-.147-.013-.294-.013-.438h1.968l2.147-2.16z"/><path d="m25.95 23-4.171 4.17L17.605 23l4.174-4.17zm.918 0-5.092-5.092L16.684 23l5.092 5.092zm24.364-2.178a68 68 0 0 1-1.602 1.946q-.288-.602-.965-.953 1.101-.798 2.165-2.265 1.064-1.466 1.382-2.626a5.8 5.8 0 0 0 1.36.755q.258.107.257.21 0 .104-.316.242c-.05.018-.185.147-.408.375q-.333.348-.723.846v5.932h-1.313q.166-.798.166-1.6v-2.868zm4.875 6.778v1.538q0 1.027.123 1.752h-1.54q.105-.906.106-1.751V27.6q-3.727 0-5.856.135V26.39q2.402.15 5.856.15-.029-1.283-.134-1.691c.482.09 1.003.134 1.554.134q.3 0 .3.098 0 .097-.203.21t-.203 1.247q3.455 0 5.844-.15v1.36q-2.386-.151-5.844-.151zm.787-7.502q2.038-1.132 3.096-2.34.602.755.965 1.012.183.121.182.247 0 .128-.364.204c-.122.031-.376.138-.77.326q-.59.279-1.276.717t-1.833.997v1.297q0 .436.081.643c.057.134.191.235.408.294q.325.09 1.206.09t1.27-.09q.382-.09.513-.414.129-.325.172-1.2.664.696 1.314.771-.273 1.101-.53 1.48-.257.376-.906.476-.648.097-1.993.097-1.342 0-1.82-.123-.474-.122-.718-.46-.24-.338-.241-1.335v-.921q-.607.285-1.87.83-.138-.62-.665-1.087 1.193-.274 2.535-.89v-2.144q0-1.16-.122-1.57.332.136 1.087.135l.439-.015q.182 0 .181.09.001.092-.106.182-.24.182-.241.408v2.293zm14.311-1.482q3.488 0 5.872-.15v1.388q-2.055-.15-6.007-.15l-.166 1.494q4.512 0 5.405-.181-.122.847-.122 2.234v5.781q0 .696-.15.997c-.1.2-.326.357-.67.466q-.522.166-1.79.317 0-.334-.122-.793a3.4 3.4 0 0 0-.317-.808q.498.075.846.075.951 0 .953-.633v-6.418h-8.62v8.38h-1.405q.15-1.239.15-2.1v-5.268q0-1.39-.121-2.234 1.118.167 4.756.182.076-.813.091-1.495c-2.497.02-4.393.073-5.69.15v-1.387q1.992.135 5.706.15 0-.859-.09-1.554a9.5 9.5 0 0 0 1.779.166q.182 0 .182.075 0 .076-.135.16-.136.085-.188.3-.054.22-.144.853zm-.242 8.09q1.768 0 2.99-.121v1.178q-1.058-.091-2.99-.107 0 1.466.107 2.598h-1.388q.105-1.132.106-2.598-1.782.014-2.732.107v-1.178q1.237.104 2.732.122v-1.178q-1.434.015-2.46.122v-1.147a53 53 0 0 0 3.745.122 8.3 8.3 0 0 0 .574-2.31q.892.486 1.328.543.183.03.182.09 0 .061-.15.136-.151.074-.326.37a16 16 0 0 0-.568 1.14q.983-.015 1.693-.09v1.146q-.875-.104-2.84-.122v1.178zm-1.012-2.775-1.178.423a7.7 7.7 0 0 0-.696-1.42l1.207-.392q.181.439.664 1.389zm18.103-2.748q-.86.012-1.372.106v-1.238q.484.075 1.372.123-.016-2.369-.181-3.096.62.165 1.494.166.183 0 .182.084 0 .084-.182.22-.166.12-.181 2.626 2.157 0 2.867-.123l-.21 8.289q-.014.738-.22 1.193-.204.455-.786.74-.582.287-1.698.363a3.1 3.1 0 0 0-.862-1.585q.573.107 1.119.106.544.002.874-.288.333-.286.348-.98l.21-6.719h-1.645q-.121 3.591-.665 5.722-.545 2.129-2.068 3.82-.513-.347-1.297-.558.183-.121.332-.241-.546-.09-2.83-.091-2.286 0-2.983.09.105-1.026.107-1.977v-1.977q-.452.015-.8.09v-1.221q.546.074 1.373.106v-4.922q-.47.012-1.147.106v-1.194q.681.091 1.147.107 0-1.044-.15-1.87.407.09 1.237.09.09 0 .091.06 0 .061-.075.166t-.075.466v1.103h3.155q0-1.523-.122-2.008.527.165 1.285.166.15 0 .15.075.001.077-.134.173-.136.098-.135.444v1.132q.649-.031 1.04-.107v1.194q-.316-.046-1.04-.107v4.923q.813-.03 1.313-.106v1.222q-.907-.136-2.25-.135h-3.76v2.839h2.854q1.12 0 1.871-.107v1.163q1.18-1.043 1.796-3.049.62-2.008.648-5.571zm-5.39 5.057q.334.436.831.68.105.047.107.113 0 .068-.107.113-.362.167-1.539 1.253-.24-.362-.89-.542a6 6 0 0 0 1.602-1.617zm-1.281-5.101h3.156v-1.147h-3.156zm3.156.861h-3.156v1.04h3.156zm-3.156 1.918v1.028h3.156v-1.028zm4.832 3.685-.83.68q-.606-.68-1.526-1.313l.708-.648c.592.363 1.144.79 1.645 1.284zm10.519-5.27-.708 1.206q-.891-.68-2.128-1.206l.696-1.163q1.298.68 2.144 1.163zm-.06 3.17-.695 2.583q-.377 1.373-.605 2.535a6 6 0 0 0-1.388-.815q1.119-2.007 1.645-4.876.391.438 1.04.574zm.424-6.824-.771 1.056a9 9 0 0 0-1.87-1.344l.707-.922q.998.576 1.934 1.207zm2.218 1.736c.21.05.48.075.8.075l.391-.031q.136 0 .135.09 0 .091-.107.22-.107.128-.106 1.849 0 1.721-.075 2.77t-.295 1.767q-.22.72-.77 1.554-.552.839-1.502 1.79a3.5 3.5 0 0 0-1.253-.815q1.27-.875 1.886-1.783.62-.907.793-1.87.173-.968.172-2.25 0-1.284-.075-3.366zm3.231 6.023h-1.162v-7.186h-2.959v7.383H97.28q.122-1.101.122-2.385v-3.939q0-1.072-.091-2.265.633.165 2.544.166 1.913 0 2.664-.166a26 26 0 0 0-.091 2.265v3.864q0 1.132.122 2.266zm.874 2.522-.936.937q-1.103-1.57-2.069-2.31l.815-.814a17 17 0 0 1 2.19 2.19zm1.103-1.977h-1.284q.15-1.147.15-2.325v-3.76q0-.998-.166-2.16.334.076.724.076l.558-.032q.105 0 .106.076t-.097.166q-.098.089-.097.454v5.164q-.001 1.102.106 2.34m1.041-9.799q.272.075 1.206.075.226 0 .226.113t-.144.22-.144.438v10.99q0 .68-.113.952-.114.271-.542.439-.431.165-1.577.376a4.6 4.6 0 0 0-.604-1.554q.543.06.974.06.432 0 .633-.183.203-.181.204-.786v-8.802q0-1.312-.122-2.34z"/></g><defs><clipPath id="clip0_663_335"><path fill="#fff" d="M0 0h107v46H0z"/></clipPath></defs></svg>