<svg width="180" height="46" fill="none" xmlns="http://www.w3.org/2000/svg"><path fill-rule="evenodd" clip-rule="evenodd" d="M9.176 23.771c3.218 3.124 11.012 7.068 12.817 7.96.021.01.115.042.177-.031 0 0 .072-.062.03-.156-4.96-10.783-11.737-18.96-11.737-18.96S6.77 16.07 7.038 19.567c.135 2.636 2.138 4.203 2.138 4.203" fill="url(#paint0_radial_354_13983)"/><path fill-rule="evenodd" clip-rule="evenodd" d="M20.956 34.378c-.032-.115-.166-.115-.166-.115l-12.973.447c1.411 2.5 3.778 4.441 6.248 3.84 1.702-.426 5.562-3.103 6.828-4.006.104-.094.063-.166.063-.166" fill="url(#paint1_radial_354_13983)"/><path fill-rule="evenodd" clip-rule="evenodd" d="M8.813 32.769c1.245.509 2.48.54 2.48.54.198.03 7.711 0 9.725-.01.083 0 .135-.084.135-.084.062-.104-.052-.197-.052-.197-5.687-3.83-16.73-9.704-16.73-9.704-1.006 3.093.353 5.584.353 5.584 1.401 2.968 4.09 3.871 4.09 3.871" fill="url(#paint2_radial_354_13983)"/><path fill-rule="evenodd" clip-rule="evenodd" d="m42.366 34.71-12.983-.447s-.115.01-.146.104c0 0-.03.114.052.177 1.246.882 5.002 3.507 6.819 4.016 0 0 3.352 1.131 6.258-3.85" fill="url(#paint3_radial_354_13983)"/><path fill-rule="evenodd" clip-rule="evenodd" d="M28.013 31.492s-.063.125.03.208c0 0 .094.062.177.01 1.858-.923 9.59-4.836 12.797-7.939 0 0 2.023-1.619 2.137-4.224.229-3.622-3.424-6.964-3.424-6.964s-6.757 8.147-11.717 18.91" fill="url(#paint4_radial_354_13983)"/><path fill-rule="evenodd" clip-rule="evenodd" d="M26.207 30.527c.01.114.104.146.104.146.124.052.186-.073.186-.073 1.246-1.795 6.85-10.067 7.992-15.11 0 0 .622-2.44.02-4.1 0 0-.85-3.155-4.286-3.985 0 0-.986-.25-2.044-.395 0-.01-3.84 4.92-1.972 23.517" fill="url(#paint5_radial_354_13983)"/><path fill-rule="evenodd" clip-rule="evenodd" d="M23.695 30.62c.083.084.156.053.156.053.135-.042.125-.166.125-.166C25.844 11.918 22.014 7 22.014 7c-.56.052-2.086.394-2.086.394-3.435.883-4.245 3.986-4.245 3.986-.622 1.95.021 4.099.021 4.099 1.142 5.065 6.777 13.388 7.991 15.142" fill="url(#paint6_radial_354_13983)"/><path fill-rule="evenodd" clip-rule="evenodd" d="M45.822 23.294s-11.022 5.895-16.72 9.724c0 0-.103.062-.062.187 0 0 .052.093.135.093 2.044 0 9.766.01 9.963-.02 0 0 .996-.042 2.231-.509 0 0 2.75-.872 4.172-3.975-.01-.01 1.267-2.543.28-5.5" fill="url(#paint7_radial_354_13983)"/><path fill-rule="evenodd" clip-rule="evenodd" d="M67.694 23.362H58.21V15H54v20.692h4.211V27.3h9.483v8.392h4.18V15h-4.18zm23.66 3.484c0 3.362-1.666 5.15-4.695 5.15-3.06 0-4.727-1.848-4.727-5.302V15h-4.21v11.846c0 5.816 3.241 9.149 8.876 9.149 5.696 0 8.968-3.393 8.968-9.331V15h-4.212zm48.534 2.393L135.192 15h-3.423l-4.696 14.239L122.498 15h-4.483l7.21 20.692h3.484l4.696-13.573 4.726 13.573h3.514L148.825 15h-4.362zm16.481-2.454h7.634v-3.757h-7.634v-4.241h11.088V15h-15.239v20.692h15.633v-3.787h-11.482z" fill="#000"/><path d="M177 15h-4.15v20.662H177zm-66.529 0h-3.666l-9.119 20.692h4.272l1.757-4 .121-.302h9.483l1.848 4.302h4.393l-9.028-20.57zm1.272 12.633h-6.362l.212-.485 2.969-6.937 3 6.938z" fill="#000"/><defs><radialGradient id="paint0_radial_354_13983" cx="0" cy="0" r="1" gradientUnits="userSpaceOnUse" gradientTransform="translate(2362.79 -122.92)scale(3040.8)"><stop stop-color="#f7bfa4"/><stop offset=".011" stop-color="#f7bb9f"/><stop offset=".427" stop-color="#e60012"/><stop offset=".663" stop-color="#e50012"/><stop offset=".757" stop-color="#e10011"/><stop offset=".827" stop-color="#da0010"/><stop offset=".884" stop-color="#cf000e"/><stop offset=".933" stop-color="#c00009"/><stop offset=".977" stop-color="#ae0003"/><stop offset="1" stop-color="#a00000"/></radialGradient><radialGradient id="paint1_radial_354_13983" cx="0" cy="0" r="1" gradientUnits="userSpaceOnUse" gradientTransform="translate(768.436 -2305.78)scale(3047.37)"><stop stop-color="#f7bfa4"/><stop offset=".011" stop-color="#f7bb9f"/><stop offset=".427" stop-color="#e60012"/><stop offset=".663" stop-color="#e50012"/><stop offset=".757" stop-color="#e10011"/><stop offset=".827" stop-color="#da0010"/><stop offset=".884" stop-color="#cf000e"/><stop offset=".933" stop-color="#c00009"/><stop offset=".977" stop-color="#ae0003"/><stop offset="1" stop-color="#a00000"/></radialGradient><radialGradient id="paint2_radial_354_13983" cx="0" cy="0" r="1" gradientUnits="userSpaceOnUse" gradientTransform="matrix(3046.66 0 0 3046.65 1555.04 -1222.21)"><stop stop-color="#f7bfa4"/><stop offset=".011" stop-color="#f7bb9f"/><stop offset=".427" stop-color="#e60012"/><stop offset=".663" stop-color="#e50012"/><stop offset=".757" stop-color="#e10011"/><stop offset=".827" stop-color="#da0010"/><stop offset=".884" stop-color="#cf000e"/><stop offset=".933" stop-color="#c00009"/><stop offset=".977" stop-color="#ae0003"/><stop offset="1" stop-color="#a00000"/></radialGradient><radialGradient id="paint3_radial_354_13983" cx="0" cy="0" r="1" gradientUnits="userSpaceOnUse" gradientTransform="translate(59.201 -2307.26)scale(3050.47)"><stop stop-color="#f7bfa4"/><stop offset=".011" stop-color="#f7bb9f"/><stop offset=".427" stop-color="#e60012"/><stop offset=".663" stop-color="#e50012"/><stop offset=".757" stop-color="#e10011"/><stop offset=".827" stop-color="#da0010"/><stop offset=".884" stop-color="#cf000e"/><stop offset=".933" stop-color="#c00009"/><stop offset=".977" stop-color="#ae0003"/><stop offset="1" stop-color="#a00000"/></radialGradient><radialGradient id="paint4_radial_354_13983" cx="0" cy="0" r="1" gradientUnits="userSpaceOnUse" gradientTransform="translate(290.253 -124.992)scale(3045.31)"><stop stop-color="#f7bfa4"/><stop offset=".011" stop-color="#f7bb9f"/><stop offset=".427" stop-color="#e60012"/><stop offset=".663" stop-color="#e50012"/><stop offset=".757" stop-color="#e10011"/><stop offset=".827" stop-color="#da0010"/><stop offset=".884" stop-color="#cf000e"/><stop offset=".933" stop-color="#c00009"/><stop offset=".977" stop-color="#ae0003"/><stop offset="1" stop-color="#a00000"/></radialGradient><radialGradient id="paint5_radial_354_13983" cx="0" cy="0" r="1" gradientUnits="userSpaceOnUse" gradientTransform="translate(517.921 154.455)scale(3047.09)"><stop stop-color="#f7bfa4"/><stop offset=".011" stop-color="#f7bb9f"/><stop offset=".427" stop-color="#e60012"/><stop offset=".663" stop-color="#e50012"/><stop offset=".757" stop-color="#e10011"/><stop offset=".827" stop-color="#da0010"/><stop offset=".884" stop-color="#cf000e"/><stop offset=".933" stop-color="#c00009"/><stop offset=".977" stop-color="#ae0003"/><stop offset="1" stop-color="#a00000"/></radialGradient><radialGradient id="paint6_radial_354_13983" cx="0" cy="0" r="1" gradientUnits="userSpaceOnUse" gradientTransform="translate(1533.35 157.362)scale(3046.72)"><stop stop-color="#f7bfa4"/><stop offset=".011" stop-color="#f7bb9f"/><stop offset=".427" stop-color="#e60012"/><stop offset=".663" stop-color="#e50012"/><stop offset=".757" stop-color="#e10011"/><stop offset=".827" stop-color="#da0010"/><stop offset=".884" stop-color="#cf000e"/><stop offset=".933" stop-color="#c00009"/><stop offset=".977" stop-color="#ae0003"/><stop offset="1" stop-color="#a00000"/></radialGradient><radialGradient id="paint7_radial_354_13983" cx="0" cy="0" r="1" gradientUnits="userSpaceOnUse" gradientTransform="matrix(3047.03 0 0 3047.02 110.539 -1219.38)"><stop stop-color="#f7bfa4"/><stop offset=".011" stop-color="#f7bb9f"/><stop offset=".427" stop-color="#e60012"/><stop offset=".663" stop-color="#e50012"/><stop offset=".757" stop-color="#e10011"/><stop offset=".827" stop-color="#da0010"/><stop offset=".884" stop-color="#cf000e"/><stop offset=".933" stop-color="#c00009"/><stop offset=".977" stop-color="#ae0003"/><stop offset="1" stop-color="#a00000"/></radialGradient></defs></svg>