<svg width="102" height="46" fill="none" xmlns="http://www.w3.org/2000/svg"><g clip-path="url(#clip0_515_241)"><path d="M.319 4.472h10.774V0h4.08v4.472h13.26V0h4.08v4.472h9.243v1.79h-9.243v1.277c0 2.747-1.02 3.961-4.08 5.239V6.26h-13.26v1.917c0 2.747-1.02 3.96-4.08 5.239V6.26H.829zM15.3 12.778C11.22 19.486 6.694 26.003 0 31.306c3.735-1.049 7.148-3.164 10.2-5.865v19.92c3.06-1.278 4.08-2.492 4.08-5.239V21.268c1.785-2.08 3.404-4.318 4.845-6.574zm15.236 23.447c-1.423-2.162-1.883-4.295-2.032-7.132 5.175-1.878 10.16-5.229 14.208-9.607l-3.57-2.875c-3.484 4.43-6.545 7.627-10.704 9.973-.005-.666-.005-1.368-.005-2.115V14.056h-4.208v10.413c0 6.134 0 10.031 2.359 13.417S33.979 44.594 43.35 46c-6.056-3.067-10.583-6.389-12.814-9.775M102 28.878v1.789h-5.737c0 3.386 0 6.389-1.594 9.072s-4.59 4.728-9.244 6.261c2.933-2.492 4.718-4.728 5.674-7.283s.956-5.111.956-8.05h-23.46v9.264c0 2.875-1.02 4.152-4.207 5.43V30.667H59.16l-.51-1.79h5.738V9.584h4.207v2.045h9.69V4.344H61.71l-.51-1.788h38.25v1.788H82.365v7.284h9.69V9.583h4.207v19.295zm-33.405 0h9.69V21.85h-6.502l-.51-1.789h7.012v-6.644h-9.69zm23.46 0V13.417h-9.69v6.644h7.013v1.789h-7.013v7.028z" fill="#212222"/></g><defs><clipPath id="clip0_515_241"><path fill="#fff" d="M0 0h102v46H0z"/></clipPath></defs></svg>