<svg width="108" height="46" fill="none" xmlns="http://www.w3.org/2000/svg"><g clip-path="url(#clip0_513_60)" fill="#e1251b"><path d="M54.891 0h-7.918v9.265h7.918c3.645 0 7.14 1.446 9.716 4.02a13.717 13.717 0 0 1 0 19.41 13.75 13.75 0 0 1-9.716 4.02h-7.918V9.265h-9.275V46h9.275v-.02h7.918a23.03 23.03 0 0 0 16.274-6.734 22.98 22.98 0 0 0 6.741-16.256 22.98 22.98 0 0 0-6.74-16.256A23.03 23.03 0 0 0 54.89 0M13.847 0v9.265h9.275V29.32a7.4 7.4 0 0 1-1.553 4.534 7.4 7.4 0 0 1-8.793 2.253 7.4 7.4 0 0 1-4.035-4.314L0 34.892q.451 1.274 1.105 2.459a16.67 16.67 0 0 0 7.993 7.257 16.7 16.7 0 0 0 19.797-5.08 16.65 16.65 0 0 0 3.501-10.207V0zm81.562 0H75.255v9.265h11.592V46h9.275V9.265h11.595V0z"/></g><defs><clipPath id="clip0_513_60"><path fill="#fff" d="M0 0h108v46H0z"/></clipPath></defs></svg>