<svg width="314" height="46" fill="none" xmlns="http://www.w3.org/2000/svg"><g clip-path="url(#clip0_513_50)"><path d="M143.842 11.834h18.673v3.951h-43.299v-3.951h18.591v-2.57h6.049zm-19.386 21.84h6.479l-7.684 11.377h-4.035zm19.386-2.723v6.293q0 4.852-2.754 6.947Q138.705 46 133.896 46v-3.951q2.145-.093 2.998-.95.854-.856.906-2.998v-7.15h-15.868v-12.5h37.812v12.5zm-16.05-3.986h26.165v-4.567h-26.165zm29.391 6.71 5.332 11.376h-4.148l-7.664-11.376zm37.632-4.426v8.043q0 8.708-10.005 8.708v-3.855q2.19-.188 3.047-1.094.905-.95.906-3.14V29.25h-17.338l5.24-13.464h-6.937v-4h8.479l.999-2.52h6.097l-.954 2.52h28.678v4h-30.265l-3.715 9.564h9.716v-5.901h6.052v5.9h16.481v3.9zm-19.624 3.903h6.48l-7.864 11.899h-4.079zm32.297 0 5.522 11.899h-4.131l-7.919-11.896zm24.898-8.233V46h-5.419V22.495a120.6 120.6 0 0 1-3.952 17.7h-3.143q1.72-7.184 3.191-18.034h-2.857v-3.618h6.761v-4.47h-5.811v-3.619h8.861q4.717 0 8.05-.952v3.807a47 47 0 0 1-5.681.667v4.567h6.145v3.618h-6.145v2.38h4.131l1.956 13.274h-2.989zm27.58 11.61V46h-5.715v-9.23l-14.47.715v-3.762l14.484-.76V9.265h5.715v23.457l3.525-.19v3.808zm-13.658-14.846 4.431 7.14h-4.238l-6.386-7.14zm1.57-9.85 4.38 7.044h-4.187l-6.431-7.043zm33.633 17.371v7.61q0 4.67-2.383 6.758-2.045 1.76-6.383 2.332V42.24q1.953-.381 2.62-1.72c.317-.636.479-1.719.479-3.284V30.63l-5.164 1.331v-4.106l5.164-1.331v-8.171h-5.164v-3.759h5.164v-5.33h5.667v5.33h3.525v3.759h-3.525v6.75l3.811-1v4.051zM303.2 37.67q4.43 2.81 10.814 4.57V46q-8.48-1.809-14.673-5.709A57.6 57.6 0 0 1 285.718 46v-3.759a50.4 50.4 0 0 0 10.145-4.47 26.6 26.6 0 0 1-8.255-11.091h5.67a25.5 25.5 0 0 0 6.431 8.422q5.526-4.564 7.192-10.039h-19.579v-3.807h9.767v-4.281h-10.624v-3.807h10.624V9.265h5.667v3.903h10.717v3.807h-10.717v4.281h9.671v3.807q-2.097 7.233-9.241 12.608z" fill="#000"/><path d="M54.891 0h-7.918v9.265h7.918c3.645 0 7.14 1.446 9.716 4.02a13.717 13.717 0 0 1 0 19.41 13.75 13.75 0 0 1-9.716 4.02h-7.918V9.265h-9.275V46h9.275v-.02h7.918a23.03 23.03 0 0 0 16.274-6.734 22.98 22.98 0 0 0 6.741-16.256 22.98 22.98 0 0 0-6.74-16.256A23.03 23.03 0 0 0 54.89 0M13.847 0v9.265h9.275V29.32a7.4 7.4 0 0 1-1.553 4.534 7.4 7.4 0 0 1-8.793 2.253 7.4 7.4 0 0 1-4.035-4.314L0 34.892q.451 1.274 1.105 2.459a16.67 16.67 0 0 0 7.993 7.257 16.7 16.7 0 0 0 19.797-5.08 16.65 16.65 0 0 0 3.501-10.207V0zm81.562 0H75.255v9.265h11.592V46h9.275V9.265h11.595V0z" fill="#e1251b"/></g><defs><clipPath id="clip0_513_50"><path fill="#fff" d="M0 0h314v46H0z"/></clipPath></defs></svg>