<svg width="320" height="64" fill="none" xmlns="http://www.w3.org/2000/svg"><g clip-path="url(#clip0_668_1076)" fill-rule="evenodd" clip-rule="evenodd"><path opacity=".99" d="M3.82 0h27.66c.07 9.48 0 18.95-.23 28.42-1.02 8.3-5.68 12.81-13.98 13.52-5.76.08-11.51.1-17.27.08V29.64c2.09.03 4.18 0 6.27-.08 2.5-.12 4.56-1.11 6.19-2.98.54-.9.89-1.87 1.07-2.9.08-3.82.1-7.64.08-11.46H3.82zm34.54 0h19.56v42.02H38.36zm26.43 0h33.93c.05 5.2 0 10.39-.15 15.59-5.6-2.34-11.21-4.69-16.81-7.03-.2 1.88-.2 3.77 0 5.65 3.15 1.35 6.3 2.68 9.47 3.97q.3 2.73 0 5.43c-3.18 1.38-6.39 2.67-9.63 3.9-.03 1.94 0 3.87.08 5.81 5.64-2.45 11.32-4.79 17.04-7.03v15.74H64.79z" fill="#d6000e"/><path opacity=".99" d="M135.85 0h7.79v2.6h19.87v3.97h-19.87V24.3h-7.79V6.57h-19.41V2.6h19.41z" fill="#221814"/><path opacity=".98" d="M168.56 0h7.34v9.78h2.6V0h5.81v14.06h-8.4v2.9h8.56v19.87h-5.96V21.55h-2.6v15.28h-7.34V0zm26.28 0h6.57c-.27.45-.58.88-.92 1.3 5.04.08 10.09.1 15.13.08v20.17c-5.6-.05-11.21 0-16.81.15-.76 1.73-1.53 3.46-2.29 5.2 2.44.15 4.89.2 7.34.15v-4.43h5.96v4.43h5.81v3.82c-1.93-.13-3.87-.18-5.81-.15v6.11h-5.96v-6.11c-5.3.05-10.6 0-15.89-.15q2.475-4.455 4.89-8.94c-1.63-.08-3.26-.1-4.89-.08V1.38c1.94.03 3.87 0 5.81-.08.33-.46.69-.89 1.07-1.3zm-.92 5.04h4.89v4.74h-4.89zm10.85 0h4.89v4.74h-4.89zm-10.85 8.25h4.89v4.58h-4.89zm10.85 0h4.89v4.58h-4.89z" fill="#221814"/><path opacity=".99" d="M227.7 0h7.79c-.8 2.12-1.7 4.21-2.67 6.27-.08 10.14-.1 20.27-.08 30.41h-7.64v-21.4c-1.48.05-2.96 0-4.43-.15 2.3-5.07 4.65-10.11 7.03-15.13" fill="#221814"/><path opacity=".98" d="M242.98 0h7.64c-.21.86-.46 1.7-.76 2.52 5.96.08 11.92.1 17.88.08v3.97c-6.37-.05-12.74 0-19.1.15-.57 1.66-1.08 3.35-1.53 5.04h20.63v4.13c-7.34-.05-14.67 0-22.01.15-.52 1.51-.98 3.04-1.38 4.58 7.74-.03 15.48 0 23.23.08-1.56 5.3-3.04 10.62-4.43 15.97h-27.81v-4.28h21.09c.66-2.65 1.32-5.3 1.99-7.95-7.69.03-15.38 0-23.08-.08.94-2.8 1.81-5.63 2.6-8.48h-2.29v-4.13c1.23.05 2.45 0 3.67-.15q.87-2.49 1.53-5.04h-5.2V2.59h6.57c.22-.88.48-1.74.76-2.6zm55.47 0h7.64c-.13.86-.23 1.73-.31 2.6h14.06v34.23h-13.3v-3.97h5.81V6.57h-7.18c-1.13 10.08-2.25 20.17-3.36 30.26h-7.95c1.25-10.08 2.47-20.17 3.67-30.26h-3.67V2.6h4.28c.04-.87.15-1.74.31-2.6m-25.67 2.6h20.02v3.97h-20.02z" fill="#221814"/><path opacity=".97" d="M124.09 7.95c2.65-.03 5.3 0 7.95.08-2.56 5.42-5.11 10.84-7.64 16.28q-3.975.3-7.95 0c2.59-5.44 5.14-10.89 7.64-16.35zm23.99 0c2.45-.05 4.89 0 7.34.15 2.6 5.4 5.2 10.8 7.79 16.2-2.55.2-5.09.2-7.64 0a401 401 0 0 1-7.49-16.35" fill="#221814"/><path opacity=".98" d="M272.78 11.77h20.02v4.13h-9.17q-1.38 8.28-3.06 16.5 2.445.225 4.89.15V20.63h7.34v16.2h-20.78c1.22-6.98 2.45-13.96 3.67-20.94h-2.9v-4.13z" fill="#221814"/><path opacity=".96" d="M121.03 27.05c2.6-.03 5.2 0 7.79.08-1.53 3.21-3.06 6.42-4.58 9.63-2.6.13-5.2.1-7.79-.08 1.57-3.19 3.1-6.4 4.58-9.63m8.86 0c2.5-.03 4.99 0 7.49.08 1.58 3.19 3.06 6.43 4.43 9.7-2.6.05-5.2 0-7.79-.15-1.42-3.19-2.79-6.4-4.13-9.63m10.4 0q3.975-.075 7.95.15c1.52 3.2 3 6.41 4.43 9.63-2.6.03-5.2 0-7.79-.08-1.57-3.22-3.1-6.45-4.58-9.7zm10.85 0c2.6-.03 5.2 0 7.79.08 1.58 3.19 3.06 6.43 4.43 9.7-2.6.05-5.2 0-7.79-.15-1.52-3.2-3-6.41-4.43-9.63m-7.64 16.2h4.58v18.03h-4.58zm-19.72.15h4.58c.03 5.25 0 10.49-.08 15.74-1.03.76-2.08 1.5-3.13 2.22-1.83.1-3.67.1-5.5 0l-3.21-2.22c-.15-1.32-.2-2.64-.15-3.97h4.13v4.13h3.36z" fill="#221814"/><path opacity=".95" d="M162.9 43.4h9.63v2.14h-5.04v5.04h4.13v2.14h-4.13v6.42h5.2v2.29h-9.78V43.4z" fill="#221814"/><path opacity=".98" d="M203.71 43.4c3.46-.03 6.93 0 10.39.08 1.23.68 2.43 1.42 3.59 2.22q.15 6.57 0 13.14c-1.11.72-2.2 1.46-3.29 2.22-3.55.23-7.12.3-10.7.23V43.41zm4.74 1.99h4.43v13.6h-4.43z" fill="#221814"/><path opacity=".97" d="M233.2 43.4c3.41-.03 6.83 0 10.24.08 1.26.72 2.51 1.46 3.74 2.22.1 1.43.1 2.85 0 4.28-1.04.71-2.03 1.47-2.98 2.29 1.01.75 2 1.51 2.98 2.29.08 2.24.1 4.48.08 6.72h-4.89v-7.95h-4.28v7.95h-4.89zm4.89 1.99h4.28v5.96h-4.28z" fill="#221814"/><path opacity=".96" d="M262.54 43.4h4.89v17.88h-4.89zm18.19 0h5.04q.78 7.425 1.68 14.82h1.83q.735-7.41 1.53-14.82h4.89q-1.38 8.895-3.06 17.73c-2.85.15-5.7.2-8.56.15q-1.62-8.955-3.36-17.88zM320 58.99v2.29h-10.54V43.4h10.39v1.99h-5.5v5.35h4.58v1.99h-4.58V59H320z" fill="#221814"/><path opacity=".98" d="M8.4 63.27H0v-4.43c1.22.03 2.45 0 3.67-.08 1.3-.48 1.99-1.43 2.06-2.83.08-1.58.1-3.16.08-4.74H.76v-4.43h11.92c.03 3.92 0 7.84-.08 11.77-.31 2.58-1.71 4.15-4.2 4.74" fill="#d6000e"/><path opacity=".97" d="M25.52 63.27h-8.1v-9.93h5.5v5.2c2.45.08 3.82-1.1 4.13-3.51-.21-2.06-1.33-3.26-3.36-3.59-2.09-.08-4.18-.1-6.27-.08v-4.58c2.75-.03 5.5 0 8.25.08 5.27 1.46 7.49 4.89 6.65 10.32-1.1 3.36-3.36 5.4-6.8 6.11z" fill="#d6000e"/><path opacity=".98" d="M51.04 63.27h-5.5c.03-1.22 0-2.45-.08-3.67l-.53-.53c-2.65-.08-5.3-.1-7.95-.08v-4.43c2.65.03 5.3 0 7.95-.08q2.01-.765.99-2.67c-.28-.28-.61-.46-.99-.53-2.65-.08-5.3-.1-7.95-.08v-4.43c3.82-.03 7.64 0 11.46.08 1.63.51 2.62 1.6 2.98 3.29.63 2.65-.11 4.82-2.22 6.49.93.16 1.51.7 1.76 1.6.08 1.68.1 3.36.08 5.04" fill="#d6000e"/><path opacity=".97" d="M62.96 63.27h-6.42v-16.5h6.42zm14.67 0h-6.27q-2.61-8.22-5.04-16.5h6.11c.57 2.83 1.26 5.63 2.06 8.4.66-2.76 1.35-5.51 2.06-8.25 2.04-.2 4.08-.2 6.11 0a497 497 0 0 0-5.04 16.35z" fill="#d6000e"/><path opacity=".96" d="M98.72 63.27H85.73v-16.5h12.99v4.13h-6.88v2.29h5.81v3.82h-5.81v2.29h6.88z" fill="#d6000e"/></g><defs><clipPath id="clip0_668_1076"><path fill="#fff" d="M0 0h320v63.27H0z"/></clipPath></defs></svg>