<svg width="249" height="46" fill="none" xmlns="http://www.w3.org/2000/svg"><g clip-path="url(#clip0_668_1022)"><path d="M23.001 45.018c12.202 0 22.093-9.875 22.093-22.056S35.203.906 23.001.906.908 10.781.908 22.962 10.8 45.018 23.001 45.018Z" stroke="#0155a4" stroke-width="2.43" stroke-miterlimit="10"/><path d="M5.599 12.69H40.25L22.925 42.827zM33.14 39.58a4.233 4.233 0 0 0 4.236-4.23 4.233 4.233 0 0 0-4.237-4.23 4.234 4.234 0 0 0-4.237 4.23 4.234 4.234 0 0 0 4.237 4.23m20.656-16.316c1.135-.302 2.194-.604 3.253-.906v-4.759h-2.95v-1.51h2.95v-4.306h1.74v4.306h2.497v1.51h-2.572v4.23c.832-.302 1.664-.529 2.497-.83 0 .68 0 1.283.075 1.737-.832.302-1.664.528-2.496.83v7.1c0 1.587-.757 2.342-2.195 2.342h-2.118c-.076-.604-.151-1.284-.303-1.888.908.075 1.513.15 1.967.15.606 0 .984-.301.984-.981v-6.194c-.984.302-1.967.68-3.026.982zm8.171-1.661v-1.436h5.675v-3.399h-5.75v-1.661h5.75v-3.55h1.74v3.55h6.053v1.586H69.38v3.399h4.767v1.36c-1.06 2.945-2.497 5.362-4.464 7.175 1.664 1.284 3.707 2.266 6.204 3.022-.53.68-1.06 1.208-1.438 1.737-2.42-.982-4.464-2.19-6.128-3.55a29.2 29.2 0 0 1-6.81 3.7 15 15 0 0 0-1.21-1.585c2.648-.831 4.918-1.964 6.734-3.324-1.665-1.813-2.876-4.154-3.708-7.024zm10.29 0h-7.112c.681 2.341 1.74 4.305 3.33 5.891 1.74-1.662 3.026-3.625 3.782-5.891m6.28-8.687h8.096v1.587h-3.178c-.378 1.812-.832 3.474-1.438 5.06h3.708v10.348h-4.162v1.813h-1.588v-8.006a17 17 0 0 1-.984 1.51 6.5 6.5 0 0 0-1.06-1.36c1.892-2.794 3.103-5.89 3.784-9.365H78.46v-1.587zm5.599 15.41v-7.328h-2.648v7.327zm2.421-7.252h2.648v-6.571h-1.816V12.84h11.728v1.662h-2.27v6.571h3.026v1.662h-3.026v10.499h-1.74v-10.5h-4.313c0 4.382-1.437 7.932-4.237 10.651-.454-.453-.908-.906-1.438-1.284 2.649-2.493 3.935-5.59 4.01-9.366h-2.572zm4.388 0h4.313v-6.571h-4.313zm11.274-1.888h3.556c-.605-.982-1.211-1.889-1.74-2.568l1.21-.831c.454.604 1.135 1.435 1.892 2.492l-1.287.907h2.951c.833-1.133 1.513-2.266 2.194-3.4l1.589.907c-.681.906-1.437 1.737-2.043 2.568h3.33v1.435h-11.652zm2.27 6.496 1.513.68c-.832 1.661-1.589 3.172-2.346 4.531-.454-.302-.908-.528-1.437-.83a25.5 25.5 0 0 0 2.27-4.381m-1.665-2.417h4.54V21.15h1.589v2.115h4.312V24.7h-4.312v5.74c0 1.586-.757 2.342-2.27 2.342h-2.119c-.075-.453-.151-1.058-.227-1.662.833.076 1.513.151 2.043.151.681 0 1.059-.378 1.059-1.133V24.7h-4.539v-1.435zm.076-9.216h4.766c-.302-.604-.681-1.284-1.059-1.963l1.438-.68c.454.755.908 1.51 1.286 2.266l-.757.377h4.691v1.436h-10.365zm8.02 11.784a88 88 0 0 1 2.194 3.097l-1.438.982a59 59 0 0 0-2.042-3.173zm3.707-12.463c3.027 0 5.902-.302 8.474-.907l.605 1.738c-2.95.377-5.447.604-7.49.755v5.136h8.096v1.51h-3.178v11.633h-1.665V21.603h-3.253v1.057c0 4.532-1.059 8.082-3.253 10.575-.379-.453-.757-.906-1.211-1.435 1.892-2.115 2.875-5.136 2.875-9.215zm19.748 11.254c.378 2.795-.303 4.381-2.119 4.759-.756.075-1.513.075-2.345 0-.151-.604-.303-1.209-.454-1.889.832.227 1.513.227 2.194.151.984-.226 1.362-1.284.984-3.172-.227-1.208-.908-2.493-1.967-4.003a94 94 0 0 0 1.967-6.42h-3.405v19.185h-1.665v-20.62h6.886V14.2q-.795 2.72-2.043 6.119c1.135 1.586 1.816 3.021 1.967 4.305m1.437 8.61V12.842h11.501V33.16h-1.74v-1.435h-8.02v1.51zm9.761-18.731h-8.02v6.873h8.02zm-8.02 15.635h8.02v-7.176h-8.02zm19.293 3.097h-1.74V21.754c-1.06 1.284-2.27 2.417-3.556 3.625-.303-.528-.681-1.057-1.06-1.586 2.875-2.417 5.07-5.06 6.658-7.93h-6.052V14.2h6.885c.454-.906.756-1.888 1.059-2.87l1.816.453a32 32 0 0 1-.984 2.417h12.636v1.662H159.19c-.454.906-.983 1.737-1.513 2.568h12.181v11.784c0 1.812-.907 2.719-2.648 2.719h-3.556c-.075-.529-.151-1.133-.302-1.813 1.362.075 2.421.151 3.253.151.984 0 1.513-.529 1.513-1.51v-1.587H156.92v5.06zm11.198-13.294h-11.198v2.644h11.198zm-11.198 6.798h11.198v-2.644h-11.198zm25.724-2.039c.454 2.794-.302 4.38-2.118 4.758-.681.151-1.438.151-2.27.076-.151-.604-.303-1.209-.454-1.889a4.9 4.9 0 0 0 2.043.152c.983-.227 1.362-1.285.983-3.173-.227-1.208-.908-2.492-2.042-4.003.529-1.586 1.21-3.777 2.118-6.42h-3.253v19.336h-1.665V12.614h6.734V14.2c-.757 2.115-1.438 4.155-2.119 6.119 1.211 1.586 1.816 3.097 2.043 4.38m1.362-12.01h10.517v11.028h-1.664v-.605H189c.454 1.36 1.06 2.493 1.892 3.55 1.362-.83 2.724-1.888 4.237-3.096l1.211 1.36c-1.589 1.132-3.103 2.114-4.313 2.945 1.286 1.284 2.875 2.342 4.842 3.097a28 28 0 0 0-1.437 1.586q-6.129-3.285-7.945-9.517h-1.891v7.553a48 48 0 0 0 3.858-1.964c0 .68.076 1.285.076 1.738a48 48 0 0 0-3.859 2.04c-.302.15-.681.452-1.21.905l-1.286-1.661a1.86 1.86 0 0 0 .681-1.435V12.69zm8.928 1.51h-7.263v2.946h7.263zm0 7.403V18.58h-7.263v3.022zm6.053.378c3.329-2.719 5.75-5.816 7.415-9.517l1.74.755q-2.951 6.233-7.717 10.197c-.379-.528-.833-.982-1.438-1.435m14.451 2.72c2.119 2.794 3.935 5.287 5.372 7.553l-1.664 1.133c-.379-.68-.833-1.36-1.286-2.115-4.843.226-8.853.453-11.879.755-.53.076-1.211.151-2.043.378l-.984-1.889c.681-.302 1.287-.68 1.816-1.208 1.74-1.964 3.632-4.91 5.599-8.837l1.892.83c-1.816 3.173-3.783 6.043-5.902 8.838 3.026-.076 6.507-.227 10.366-.378-.833-1.284-1.741-2.644-2.8-4.003zm-1.891-11.86 1.664-.604c1.438 3.852 4.086 6.874 8.02 9.14-.378.378-.832.982-1.361 1.737-4.162-2.87-6.886-6.27-8.323-10.272m12.03 4.154h16.872v1.662h-16.872zm1.286-2.719v-1.662h19.142v17.222c0 2.115-.908 3.172-2.875 3.172h-4.388c-.076-.528-.151-1.133-.378-1.888 1.816.075 3.177.151 4.237.151 1.059 0 1.513-.604 1.513-1.737V14.276zm.908 6.95h11.652v7.855h-9.912v1.586h-1.74zm9.912 6.268v-4.683h-8.172v4.683z" fill="#0155a4"/><path d="M53.795 23.264c1.135-.302 2.194-.604 3.253-.906v-4.759h-2.95v-1.51h2.95v-4.306h1.74v4.306h2.497v1.51h-2.572v4.23c.832-.302 1.664-.529 2.497-.83 0 .68 0 1.283.075 1.737-.832.302-1.664.528-2.496.83v7.1c0 1.587-.757 2.342-2.195 2.342h-2.118c-.076-.604-.151-1.284-.303-1.888.908.075 1.513.15 1.967.15.606 0 .984-.301.984-.981v-6.194c-.984.302-1.967.68-3.026.982zm8.171-1.661v-1.436h5.675v-3.399h-5.75v-1.661h5.75v-3.55h1.74v3.55h6.053v1.586H69.38v3.399h4.767v1.36c-1.06 2.945-2.497 5.362-4.464 7.175 1.664 1.284 3.707 2.266 6.204 3.022-.53.68-1.06 1.208-1.438 1.737-2.42-.982-4.464-2.19-6.128-3.55a29.2 29.2 0 0 1-6.81 3.7 15 15 0 0 0-1.21-1.585c2.648-.831 4.918-1.964 6.734-3.324-1.665-1.813-2.876-4.154-3.708-7.024zm10.29 0h-7.112c.681 2.341 1.74 4.305 3.33 5.891 1.74-1.662 3.026-3.625 3.782-5.891Zm6.28-8.687h8.096v1.587h-3.178c-.378 1.812-.832 3.474-1.438 5.06h3.708v10.348h-4.162v1.813h-1.588v-8.006a17 17 0 0 1-.984 1.51 6.5 6.5 0 0 0-1.06-1.36c1.892-2.794 3.103-5.89 3.784-9.365H78.46v-1.587zm5.599 15.41v-7.328h-2.648v7.327zm2.421-7.252h2.648v-6.571h-1.816V12.84h11.728v1.662h-2.27v6.571h3.026v1.662h-3.026v10.499h-1.74v-10.5h-4.313c0 4.382-1.437 7.932-4.237 10.651-.454-.453-.908-.906-1.438-1.284 2.649-2.493 3.935-5.59 4.01-9.366h-2.572zm4.388 0h4.313v-6.571h-4.313zm11.274-1.888h3.556c-.605-.982-1.211-1.889-1.74-2.568l1.21-.831c.454.604 1.135 1.435 1.892 2.492l-1.287.907h2.951c.833-1.133 1.513-2.266 2.194-3.4l1.589.907c-.681.906-1.437 1.737-2.043 2.568h3.33v1.435h-11.652zm2.27 6.496 1.513.68c-.832 1.661-1.589 3.172-2.346 4.531-.454-.302-.908-.528-1.437-.83a25.5 25.5 0 0 0 2.27-4.381Zm-1.665-2.417h4.54V21.15h1.589v2.115h4.312V24.7h-4.312v5.74c0 1.586-.757 2.342-2.27 2.342h-2.119c-.075-.453-.151-1.058-.227-1.662.833.076 1.513.151 2.043.151.681 0 1.059-.378 1.059-1.133V24.7h-4.539v-1.435zm.076-9.216h4.766c-.302-.604-.681-1.284-1.059-1.963l1.438-.68c.454.755.908 1.51 1.286 2.266l-.757.377h4.691v1.436h-10.365zm8.02 11.784a88 88 0 0 1 2.194 3.097l-1.438.982a59 59 0 0 0-2.042-3.173zm3.707-12.463c3.027 0 5.902-.302 8.474-.907l.605 1.738c-2.95.377-5.447.604-7.49.755v5.136h8.096v1.51h-3.178v11.633h-1.665V21.603h-3.253v1.057c0 4.532-1.059 8.082-3.253 10.575-.379-.453-.757-.906-1.211-1.435 1.892-2.115 2.875-5.136 2.875-9.215zm19.748 11.254c.378 2.795-.303 4.381-2.119 4.759-.756.075-1.513.075-2.345 0-.151-.604-.303-1.209-.454-1.889.832.227 1.513.227 2.194.151.984-.226 1.362-1.284.984-3.172-.227-1.208-.908-2.493-1.967-4.003a94 94 0 0 0 1.967-6.42h-3.405v19.185h-1.665v-20.62h6.886V14.2q-.795 2.72-2.043 6.119c1.135 1.586 1.816 3.021 1.967 4.305Zm1.437 8.61V12.842h11.501V33.16h-1.74v-1.435h-8.02v1.51zm9.761-18.731h-8.02v6.873h8.02zm-8.02 15.635h8.02v-7.176h-8.02zm19.293 3.097h-1.74V21.754c-1.06 1.284-2.27 2.417-3.556 3.625-.303-.528-.681-1.057-1.06-1.586 2.875-2.417 5.07-5.06 6.658-7.93h-6.052V14.2h6.885c.454-.906.756-1.888 1.059-2.87l1.816.453a32 32 0 0 1-.984 2.417h12.636v1.662H159.19c-.454.906-.983 1.737-1.513 2.568h12.181v11.784c0 1.812-.907 2.719-2.648 2.719h-3.556c-.075-.529-.151-1.133-.302-1.813 1.362.075 2.421.151 3.253.151.984 0 1.513-.529 1.513-1.51v-1.587H156.92v5.06zm11.198-13.294h-11.198v2.644h11.198zm-11.198 6.798h11.198v-2.644h-11.198zm25.724-2.039c.454 2.794-.302 4.38-2.118 4.758-.681.151-1.438.151-2.27.076-.151-.604-.303-1.209-.454-1.889a4.9 4.9 0 0 0 2.043.152c.983-.227 1.362-1.285.983-3.173-.227-1.208-.908-2.492-2.042-4.003.529-1.586 1.21-3.777 2.118-6.42h-3.253v19.336h-1.665V12.614h6.734V14.2c-.757 2.115-1.438 4.155-2.119 6.119 1.211 1.586 1.816 3.097 2.043 4.38Zm1.362-12.01h10.517v11.028h-1.664v-.605H189c.454 1.36 1.06 2.493 1.892 3.55 1.362-.83 2.724-1.888 4.237-3.096l1.211 1.36c-1.589 1.132-3.103 2.114-4.313 2.945 1.286 1.284 2.875 2.342 4.842 3.097a28 28 0 0 0-1.437 1.586q-6.129-3.285-7.945-9.517h-1.891v7.553a48 48 0 0 0 3.858-1.964c0 .68.076 1.285.076 1.738a48 48 0 0 0-3.859 2.04c-.302.15-.681.452-1.21.905l-1.286-1.661a1.86 1.86 0 0 0 .681-1.435V12.69zm8.928 1.51h-7.263v2.946h7.263zm0 7.403V18.58h-7.263v3.022zm6.053.377c3.329-2.719 5.75-5.816 7.415-9.517l1.74.755q-2.951 6.233-7.717 10.197c-.379-.528-.833-.982-1.438-1.435Zm14.451 2.72c2.119 2.794 3.935 5.287 5.372 7.553l-1.664 1.133c-.379-.68-.833-1.36-1.286-2.115-4.843.226-8.853.453-11.879.755-.53.076-1.211.151-2.043.378l-.984-1.889c.681-.302 1.287-.68 1.816-1.208 1.74-1.964 3.632-4.91 5.599-8.837l1.892.83c-1.816 3.173-3.783 6.043-5.902 8.838 3.026-.076 6.507-.227 10.366-.378-.833-1.284-1.741-2.644-2.8-4.003zm-1.891-11.86 1.664-.604c1.438 3.852 4.086 6.874 8.02 9.14-.378.378-.832.982-1.361 1.737-4.162-2.87-6.886-6.27-8.323-10.272Zm12.03 4.155h16.872v1.662h-16.872zm1.286-2.719v-1.662h19.142v17.222c0 2.115-.908 3.172-2.875 3.172h-4.388c-.076-.528-.151-1.133-.378-1.888 1.816.075 3.177.151 4.237.151 1.059 0 1.513-.604 1.513-1.737V14.276zm.908 6.95h11.652v7.855h-9.912v1.586h-1.74zm9.912 6.268v-4.683h-8.172v4.683z" stroke="#0155a4" stroke-width=".75" stroke-miterlimit="10"/><path d="M134.979 45.698h-1.665v-6.723c1.514-.226 1.514-.226 2.346.831l2.648 3.4c.908-1.21 1.816-2.267 2.724-3.4.756-.982.756-.982 2.27-.755v6.722h-1.589V41.77l-.227-.076-3.254 4.08-3.329-4.23zm-40.706-2.644v1.36h6.129v1.36H92.76v-6.798h7.642v1.284h-6.129v1.36h4.54v1.434zm62.799-4.078h7.642v1.36h-6.129v1.359h6.129v1.36h-6.129v1.359h6.129v1.36h-7.642zM53.19 45.774v-1.36h4.993c.454 0 .756-.302.756-.68s-.227-.68-.68-.68H55.08c-1.665-.075-2.421-.83-2.27-2.341a1.895 1.895 0 0 1 1.891-1.738h.076c1.74-.075 3.556 0 5.372 0v1.36h-4.994c-.454 0-.756.302-.756.68 0 .377.302.68.756.68 1.135 0 2.27 0 3.405.075 1.362.076 1.967.755 2.043 1.889 0 1.435-.757 2.114-2.346 2.114zm19.142-6.799c.832-.226 1.816.076 2.346.756 1.059 1.133 2.194 2.266 3.253 3.399l.53.528v-4.683h1.513v6.723c-.833.226-1.665 0-2.194-.68-1.06-1.209-2.27-2.342-3.33-3.475l-.53-.528v4.607h-1.512zm-3.329 6.723h-1.437v-2.644h-4.692v2.644h-1.513V38.9h1.514v2.644h4.69v-2.569h1.514zm46.531-4.078v-2.645h1.513v6.798h-1.438v-2.719h-4.691v2.644h-1.513V38.9h1.438v2.644zm-6.885-2.72v1.36h-5.22c-.681 0-.984.226-.984.83v2.417c0 .605.303.907 1.059.907h5.145v1.36h-5.674q-1.93-.114-2.043-1.813a23 23 0 0 1 0-3.248 1.71 1.71 0 0 1 1.74-1.738h.151c1.892-.075 3.859-.075 5.826-.075M91.55 40.26h-3.027v5.438h-1.589V40.26h-3.102v-1.284h7.717zm59.469 0h-3.48v-1.284h8.625v1.284h-3.404v5.438h-1.741zm-22.395 5.514h-7.112v-6.798h1.513v5.438c1.589 0 4.086.075 5.599.075zm-58.789-6.798h1.438v6.798h-1.438zm59.999 0h1.438v6.798h-1.438zm16.872 6.722h-1.437V38.9h1.437zm28.07-4.985q-.113-1.7-2.27-1.813h-6.431v6.798h6.431c1.438 0 2.195-.68 2.27-1.813s0-2.115 0-3.172m-1.74 2.945q0 .68-.908.68h-4.313V40.26h4.616c.227 0 .605.453.605.68z" fill="#0155a4"/><path d="M58.032 3.626c0-.454-.075-.756-.227-.982-.151-.227-.378-.378-.756-.378-.152 0-.303 0-.454.076-.151.075-.303.15-.378.226a.6.6 0 0 0-.303.302c-.076.151-.151.227-.151.378s-.076.302 0 .378c0 .075.075.226.15.302.077.075.228.15.38.302.075.075.226.15.453.302.227.151.454.302.681.378l.454.453c.076.15.151.302.151.529 0 .226 0 .453-.075.68a2.8 2.8 0 0 1-.379.83 2.3 2.3 0 0 1-.605.605c-.227.15-.53.302-.832.377-.303.076-.605.151-.984.151q-.908 0-1.589-.453l.53-1.586h.151a1.05 1.05 0 0 0 0 .68c.076.226.152.377.227.528a.9.9 0 0 0 .379.378c.15.076.378.151.53.151.15 0 .378 0 .529-.075l.454-.227a.9.9 0 0 0 .378-.378l.227-.453q.114-.34 0-.453c0-.151-.076-.227-.227-.378 0-.15-.076-.226-.303-.302a7 7 0 0 1-.605-.378c-.227-.15-.454-.302-.605-.453-.151-.15-.303-.302-.378-.453s-.152-.302-.152-.529c0-.15 0-.377.076-.528.076-.303.227-.53.378-.756.152-.226.379-.377.606-.528s.454-.227.756-.303c.227-.075.53-.075.757-.075.605 0 .983.15 1.286.453l-.378 1.209zm6.734-.982c0-.151.076-.227 0-.302 0-.076-.076-.076-.151-.076l-.454-.076.075-.226h2.573l-.076.226-.605.076c-.076 0-.151.076-.227.076 0 .075-.076.15-.076.302l-1.286 5.06c-.076.151-.076.227 0 .303 0 .075.076.075.151.15l.681.152-.075.226h-2.799l.075-.226.605-.076c.076 0 .151-.075.151-.15.076-.076.076-.152.152-.379l.605-2.266h-3.253l-.606 2.266c-.075.151-.075.303-.075.378s.075.076.151.151l.53.076-.076.226h-2.724l.076-.226.757-.151c.075 0 .15-.076.227-.151.075-.076.075-.152.15-.303l1.287-5.06c0-.151.076-.227 0-.302-.076-.076-.076-.076-.151-.076l-.454-.076.075-.226h2.725l-.076.226-.757.076c-.076 0-.151.076-.227.076-.076.075-.076.15-.076.226l-.605 2.342h3.253zm2.119 5.211 1.362-5.211v-.227c0-.075-.076-.151-.151-.151l-.681-.076.075-.226h2.951l-.076.226-.605.076c-.151 0-.227 0-.303.076-.075 0-.15.15-.15.226L67.943 7.78v.227s.076.075.151.075l.681.076-.075.302h-2.95l.076-.302.605-.076c.151 0 .227-.075.303-.075.075.075.15 0 .15-.152m3.935-.151c-.076.151-.076.302 0 .378 0 .075.075.075.227.075l.832.076-.076.227h-2.496l.075-.227.53-.076c.227-.075.378-.075.454-.15.076-.076.151-.152.151-.303L71.651 3.4c.076-.302.076-.529.076-.68s-.151-.227-.303-.302l-.605-.151.075-.302h1.741c.075 0 .075.075.151.075s.076.076.151.151l2.8 4.457.983-3.852c.076-.151.076-.303 0-.378-.075-.076-.15-.076-.227-.151l-.756-.076.076-.302h2.194l-.076.378h-.53c-.15 0-.227.075-.227.15-.075.076-.075.228-.15.454l-1.439 5.74h-.226l-3.405-5.362zM81.26 1.813c.076-.151.152-.302.228-.302.075 0 .075.075.15.226 0 .076.077.151.077.151 0 .076.075.076.075.076h4.389c.075 0 .15 0 .15-.076.077 0 .077-.075.152-.075 0-.076.076-.076.151-.151q.114-.227.227-.227c.076 0 .076.076.076.227l-.454 1.737c0 .075 0 .075-.075.151 0 0-.076.076-.076 0l-.076-.076v-.679c0-.076 0-.151-.075-.227-.076-.075-.152-.151-.227-.151s-.227-.076-.379-.076h-1.059l-1.286 5.137c-.076.15-.076.302 0 .377 0 .076.076.151.227.151l.756.152-.075.226h-3.33l.076-.226.757-.152c.227 0 .303-.075.454-.15a.58.58 0 0 0 .151-.378L83.53 2.34h-1.362c-.075 0-.15.076-.302.152-.076.075-.227.15-.303.302l-.454.453-.227.226h-.075v-.15c0-.076.075-.152.075-.227zm10.744 4.758c-.151.302-.303.68-.454.982-.151.378-.227.68-.303.907h-5.75l.076-.227.68-.076a.34.34 0 0 0 .228-.075c.075 0 .075-.151.151-.302l1.286-5.061c.076-.151.076-.302.076-.378 0-.075-.076-.075-.151-.15l-.681-.076.075-.227h5.448c-.076.076-.076.227-.151.378-.076.15-.076.302-.076.453s-.076.302-.076.453-.075.227-.075.378h-.152c0-.302 0-.453-.075-.604a.58.58 0 0 0-.152-.378c-.075-.076-.075-.151-.151-.151s-.151-.076-.227-.076h-1.967c-.076 0-.227 0-.227.076-.076.075-.076.151-.151.302l-.606 2.19h1.816c.151 0 .227 0 .303-.075l.227-.227.378-.68h.227c-.227.831-.454 1.662-.605 2.493h-.152l-.075-.755c0-.151-.076-.302-.227-.302-.152-.076-.303-.076-.53-.076h-1.437l-.606 2.342c-.075.15-.075.226 0 .302 0 .075.151.075.303.075h1.891c.152 0 .303 0 .379-.075q.226 0 .454-.227.226-.112.454-.453c.15-.227.378-.453.605-.755zm6.129.302c-.076.227-.227.454-.303.756-.15.302-.227.528-.378.755-.454.151-1.135.227-1.967.227a3.5 3.5 0 0 1-1.286-.227 2.7 2.7 0 0 1-.908-.604 2.25 2.25 0 0 1-.454-1.058 2.85 2.85 0 0 1 .075-1.36c.152-.528.303-.981.606-1.359.302-.453.605-.755.983-1.133a6.5 6.5 0 0 1 1.21-.755c.455-.227.909-.227 1.363-.227.302 0 .605 0 .832.076.227 0 .454.075.605.15.152.076.303.076.379.152.075.075.151.075.227.15 0 .076 0 .152-.076.303 0 .151-.076.227-.076.378 0 .15-.075.226-.075.377s-.076.227-.076.303h-.227c0-.227 0-.378-.076-.605-.075-.15-.075-.302-.227-.453-.075-.151-.227-.227-.454-.302-.227-.151-.454-.151-.68-.151-.303 0-.681.075-.984.226s-.605.303-.832.605c-.227.226-.53.604-.681.906-.227.378-.379.831-.53 1.284-.151.529-.227.982-.151 1.36 0 .377.075.68.227.982.151.226.378.453.605.528.227.152.53.152.908.152.454 0 .832-.152 1.21-.378.379-.227.681-.604 1.06-1.058zm6.809-4.229c0-.151.075-.227 0-.302 0-.076-.076-.076-.151-.076l-.379-.076.076-.226h2.572l-.075.226-.681.076c-.076 0-.152.076-.227.076-.076.075-.076.15-.076.302l-1.286 5.06c-.076.151-.076.227 0 .303 0 .075.076.075.151.15l.681.152-.076.226h-2.799l.076-.226.605-.076a.16.16 0 0 0 .151-.15c.076-.076.076-.152.152-.379l.605-2.266h-3.254l-.605 2.266c-.075.151-.075.303-.075.378s.075.076.151.151l.529.076-.075.226h-2.724l.076-.226.756-.151c.076 0 .152-.076.227-.151.076-.076.076-.152.152-.303l1.286-5.06c0-.151.075-.227 0-.302-.076-.076-.076-.076-.152-.076l-.453-.076.075-.226h2.724l-.076.226-.756.076c-.076 0-.152.076-.227.076-.076.075-.076.15-.076.226l-.605 2.342h3.253zm11.35 3.096-.53.076c-.151 0-.227.075-.227.075s-.076.076-.151.227l-.303 1.133c-.076.227-.076.378-.151.453 0 .076-.076.227-.152.227-.075.075-.151.15-.227.15-.075.076-.226.076-.378.152-.151.076-.302.076-.454.151-.151.076-.378.076-.529.076s-.379.075-.606.075h-.529q-.795 0-1.362-.226c-.379-.152-.757-.378-.984-.605a4 4 0 0 1-.529-.982 2.85 2.85 0 0 1 .075-1.36 4.6 4.6 0 0 1 .681-1.51c.303-.453.681-.83 1.135-1.057a5.7 5.7 0 0 1 1.362-.68c.53-.151.984-.227 1.513-.227.832 0 1.589.151 2.043.529l-.303 1.51h-.227c0-.226-.075-.453-.151-.68-.076-.226-.151-.377-.303-.528-.151-.151-.302-.302-.454-.378-.075-.075-.302-.075-.529-.075-.454 0-.832.075-1.211.226-.378.152-.681.378-.983.605a4.8 4.8 0 0 0-.757.982 3.3 3.3 0 0 0-.454 1.208c-.076.378-.151.756-.151 1.133 0 .378.151.68.227.982q.227.453.681.68c.302.151.605.227.983.227.454 0 .833-.076 1.135-.303.227-.226.379-.453.53-.755l.303-1.133v-.227c-.076 0-.076-.075-.227-.075l-.757-.076.076-.302c.529 0 .983.076 1.513.076s.983 0 1.513-.076zm-.228 2.493.454-.076c.227 0 .303-.075.379-.15q.113-.114.227-.454l1.21-4.683c0-.075.076-.226.076-.302v-.227c0-.075-.076-.075-.151-.15-.076 0-.152-.076-.303-.076l-.378.15v-.301h.681l1.437-.076h.454c.378 0 .681 0 .984.076.302.075.529.15.681.302.151.15.302.302.378.529.076.226.076.453 0 .755a2.06 2.06 0 0 1-.53.982c-.227.226-.605.453-1.059.604l.53 1.888c.075.303.151.454.227.605.075.15.151.302.227.377.075.076.227.151.302.151.152 0 .227.076.454.076l-.075.227h-2.043l-.681-2.87c-.076-.227-.227-.303-.378-.303h-.379l-.605 2.266c-.076.151-.076.302 0 .378.076.075.151.15.303.15l.454.152-.076.227h-2.951zm2.8-3.323c.681 0 1.135-.076 1.513-.303s.605-.528.681-.982.076-.755-.076-.981c-.151-.227-.529-.378-.983-.378h-.454zm7.264 3.7c-.454 0-.908-.075-1.287-.226a2.07 2.07 0 0 1-.908-.68 2.26 2.26 0 0 1-.454-1.057 2.86 2.86 0 0 1 .076-1.36c.151-.528.303-.982.605-1.36a4.5 4.5 0 0 1 .984-1.057 4.2 4.2 0 0 1 1.286-.68 4.8 4.8 0 0 1 1.438-.226c.454 0 .908.075 1.286.226q.567.228.908.68c.227.302.378.68.454 1.058.076.377 0 .83-.076 1.36-.151.453-.302.906-.605 1.359-.303.378-.605.755-.984 1.057a4.2 4.2 0 0 1-1.286.68c-.378.151-.908.227-1.437.227m-1.362-3.247c-.076.378-.152.755-.152 1.057q0 .567.227.907c.152.302.303.528.53.68.227.15.53.226.832.226.757 0 1.362-.226 1.816-.755.53-.529.908-1.209 1.135-2.19.227-.378.227-.756.227-1.21 0-.377-.076-.679-.151-.981-.152-.302-.303-.529-.53-.68s-.53-.151-.908-.151-.757.076-1.059.227a3.6 3.6 0 0 0-.908.68 11 11 0 0 0-.681.981 7.4 7.4 0 0 0-.378 1.209m9.987-3.4-.076.226-.605.076c-.151 0-.227.075-.303.15a.58.58 0 0 0-.151.379l-.908 3.625c-.303 1.209.076 1.737 1.135 1.737.378 0 .681-.075.908-.15q.34-.114.681-.454c.227-.226.378-.453.529-.83.152-.303.303-.756.379-1.21l.756-2.794c.076-.302 0-.453-.302-.529h-.606l.076-.226h2.119l-.076.226-.605.151c-.152 0-.227.151-.303.454l-.757 3.02c-.227.907-.605 1.587-1.059 2.04s-1.135.68-1.891.68c-.833 0-1.438-.15-1.816-.529-.379-.377-.454-.906-.303-1.586l.984-3.7c.075-.152.075-.303.075-.379a.16.16 0 0 0-.151-.15l-.605-.076.075-.227h2.27c.227.076.378.076.53.076m4.161 0h1.361l1.438-.076h.378c.681 0 1.135.151 1.438.529.303.302.378.83.227 1.36-.076.302-.227.528-.378.755a2.3 2.3 0 0 1-.606.604c-.227.151-.454.302-.681.378-.227.075-.529.15-.756.15s-.379 0-.53-.075a.6.6 0 0 1-.303-.302l.076-.075c.076 0 .151.075.227.075h.227c.378 0 .681-.15.984-.377s.529-.605.605-1.133c.076-.454.076-.756-.076-1.058q-.227-.453-.908-.453h-.454c-.151 0-.227 0-.378.075l-1.362 5.363v.227c0 .075.076.075.227.15l.605.152-.075.227h-2.8l.076-.227.605-.076c.076 0 .152-.075.227-.15.076-.076.076-.152.152-.303l1.21-4.758c.076-.227 0-.454-.075-.53a3.6 3.6 0 0 0-.681-.226z" fill="#e62e3d"/></g><defs><clipPath id="clip0_668_1022"><path fill="#fff" d="M0 0h249v46H0z"/></clipPath></defs></svg>