<svg width="142" height="46" fill="none" xmlns="http://www.w3.org/2000/svg"><g clip-path="url(#clip0_668_1210)" fill="#1f4c9f"><path d="M142 3.3c0-1.819-1.481-3.3-3.302-3.3a3.306 3.306 0 0 0-3.302 3.3v12.964L121.313 1.947a3.55 3.55 0 0 0-2.794-1.369 3.543 3.543 0 0 0-3.541 3.541v20.299c0 1.82 1.481 3.3 3.302 3.3a3.306 3.306 0 0 0 3.302-3.3V11.454l14.082 14.318a3.55 3.55 0 0 0 2.794 1.368A3.534 3.534 0 0 0 142 23.6zM98.2.028c-7.917 0-13.9 6.024-13.9 13.712s5.983 14.09 13.9 14.09c7.916 0 13.899-6.178 13.899-14.091 0-7.914-5.983-13.712-13.9-13.712m0 21.95c-4.206 0-7.593-3.555-7.593-8.224s3.387-7.886 7.592-7.886 7.592 3.414 7.592 7.886-3.387 8.223-7.592 8.223m-39.072 2.343a3.56 3.56 0 0 1-3.556 3.555 3.56 3.56 0 0 1-3.556-3.555V3.625A3.56 3.56 0 0 1 55.57.071a3.56 3.56 0 0 1 3.556 3.554V24.32M73.25 7.561a2.96 2.96 0 0 1-2.963-2.962 2.975 2.975 0 0 1 2.963-2.977A2.966 2.966 0 0 1 76.214 4.6a2.954 2.954 0 0 1-2.964 2.96"/><path d="M76.257 24.63v.253a3.023 3.023 0 0 1-3.02 3.019 3.023 3.023 0 0 1-3.02-3.019v-.17c-.028-3.258-1.468-18.62-4.685-18.661h-.24a3.023 3.023 0 0 1-3.02-3.02c0-1.664 1.37-3.018 3.034-3.018a3.023 3.023 0 0 1 3.02 3.019v.24c.057 3.23 1.51 6.094 4.77 6.122h.409c3.217-.057 4.657-2.963 4.685-6.207v-.155C78.162 1.368 79.516.014 81.195.014c1.68 0 3.02 1.354 3.02 3.033a3.014 3.014 0 0 1-3.02 3.019h-.169c-3.245.028-4.713 15.361-4.77 18.577m-28.038-3.808a3.09 3.09 0 0 0-3.09-3.09c-1.143 0-1.962.593-2.667 1.538-1.383 1.707-3.415 2.75-5.701 2.75-4.191 0-7.578-3.54-7.578-8.195s3.373-7.871 7.578-7.871c2.483 0 4.247 1.03 5.7 2.638.1.127.509.578.593.635.621.48 1.143.663 1.92.663a3.074 3.074 0 0 0 2.638-4.655c-.056-.085-.028-.085-.127-.212a2.3 2.3 0 0 0-.296-.353C44.578 1.665 41.431.141 36.746.141c-7.888 0-13.857 5.995-13.857 13.669s5.969 14.05 13.857 14.05c4.67 0 8.085-1.665 10.456-4.726.466-.564 1.016-1.382 1.016-2.285m-28.604-4.951c-.593-1.129-1.468-2.046-2.639-2.765-1.115-.677-2.949-1.496-5.503-2.44-.522-.198-.917-.34-1.171-.438-1.214-.451-2.117-.917-2.724-1.41-.607-.494-.903-1.016-.903-1.58 0-.692.339-1.228 1.002-1.594q1.016-.55 2.921-.55c1.171 0 2.484.211 3.909.648.24.07.818.31 1.41.31a2.517 2.517 0 0 0 2.513-2.51c0-1.171-.621-1.975-1.877-2.427A21 21 0 0 0 14.83.65 19.7 19.7 0 0 0 10.244.1c-3.005 0-5.447.705-7.31 2.144C1.059 3.667.128 5.529.128 7.815s.72 3.963 2.159 5.36c1.439 1.396 4.064 2.779 7.888 4.119 1.552.536 2.526 1.002 2.949 1.396.423.395.635.903.635 1.538 0 .79-.339 1.396-1.016 1.791-.677.41-1.68.607-2.992.607s-2.653-.24-4.035-.748c-.734-.268-1.934-.79-1.92-.775a2.5 2.5 0 0 0-1.17-.297 2.613 2.613 0 0 0-2.611 2.61c0 1.044.494 1.735 1.524 2.356.917.564 1.383.79 3.556 1.396 1.552.423 3.16.65 4.826.65 3.33 0 5.926-.706 7.803-2.13 1.877-1.426 2.808-3.372 2.808-5.84 0-1.51-.296-2.822-.889-3.95m65.179 18.211h-2.64v7.998H77.88v1.48h4.304v2.385h2.639v-2.384h1.34v-1.481h-1.34z"/><path d="M80.363 37.593h1.51v-1.115h-.31c-.48.029-.777-.197-.918-.677l-.38-1.086H77.61l.381 1.086c.395 1.227 1.186 1.82 2.371 1.792m.001 3.541h1.51v-1.115h-.31c-.48.028-.777-.197-.918-.677l-.38-1.086H77.61l.381 1.086c.395 1.227 1.186 1.82 2.371 1.791m-10.004-2.454V46h1.355v-5.967c0-.748-.607-1.354-1.355-1.354m5.405 1.326v5.967h1.354V38.65c-.748 0-1.354.606-1.354 1.354"/><path d="M74.873 35.322h.946c.691 0 1.241-.565 1.241-1.256h-6.759v1.256h2.23v1.438h-2.244v1.397h2.244v7.8h2.356v-7.8h2.343V36.76h-2.343v-1.438zm28.844-.932H93.642v1.51h10.075zm-9.257 7.35c-.07.296-.24.437-.48.437h-.451v1.51h1.143c1.312.042 2.13-.621 2.455-2.003l.805-3.02h1.523v3.02c-.042 1.382.593 2.045 1.92 2.003h2.864v-1.51h-1.778c-.24 0-.367-.14-.367-.437v-3.09h2.314v-1.58H93.106v1.58h2.187l-.819 3.09zm-3.274-5.501h1.213v-.903h-.254c-.38.028-.62-.155-.733-.55l-.297-.875h-2.13l.31.875c.31 1.001.945 1.48 1.905 1.453m-2.385 2.426h1.341v5.247c.042.55-.212.818-.762.776h-.437v1.284h1.439c1.355.042 2.018-.65 1.99-2.06v-6.77h-3.57zm3.952 5.854c0 .747.592 1.354 1.34 1.354h10.541v-1.354z"/><path d="M103.717 34.39H93.642v1.51h10.075zm-9.257 7.35c-.07.296-.24.437-.48.437h-.451v1.51h1.143c1.312.042 2.13-.621 2.455-2.003l.805-3.02h1.523v3.02c-.042 1.382.593 2.045 1.92 2.003h2.864v-1.51h-1.778c-.24 0-.367-.14-.367-.437v-3.09h2.314v-1.58H93.106v1.58h2.187l-.819 3.09zm-3.274-5.501h1.213v-.903h-.254c-.38.028-.62-.155-.733-.55l-.297-.875h-2.13l.31.875c.31 1.001.945 1.48 1.905 1.453m16.44 4.217v5.46h12.968c1.157-.071 1.75-.734 1.735-2.032V40.47H107.64zm2.667 3.357h9.313v.89h-9.313zm9.313-1.199h-9.313v-.959h9.313zm-3.852-8.788v6.08h5.108c1.298 0 1.947-.663 1.933-2.031V33.84l-7.041-.029zm2.356 1.481h2.357v3.118h-2.357zm-5.927 2.512v-.1h3.006v-1.198h-2.893l.071-.917h2.822v-1.2h-4.614l.183-.563h-2.498l-.141.451c-.113.226-.028.367-.508.38h-.324v1.2h.451c1.016 0 1.68 0 2.131-.282h.296l-.07.917h-2.794v1.199h2.709v.098c-.084.663-.691.847-1.242.804h-1.467v1.312h2.469c1.454 0 2.216-.395 2.427-2.102"/><path d="m114.427 38.58-.127-.338h-1.764l.155.55c.268.776.805 1.142 1.609 1.128h.889v-.959h-.212c-.324.014-.423-.113-.564-.367m11.599 2.878h13.194v.353h-13.109s-.099.042-.099.098v.875s.043.099.099.099h13.631q1.905 0 1.905-1.143v-2.652s-.042-.099-.098-.099h-15.537s-.099.043-.099.1v.775s.043.099.099.099h13.194v.437h-13.194s-.099.042-.099.099v.874s.043.1.099.1m3.344 1.847h-2.131s-.07.028-.084.056l-.325.819c-.155.38-.409.564-.762.536a.097.097 0 0 0-.099.098v1.044s.043.099.099.099h1.115q1.312 0 1.651-1.058l.635-1.453s-.014-.141-.085-.141m-3.344-4.782h2.512v.268h2.427v-.268h2.512s.098-.042.098-.099v-.874s-.042-.099-.098-.099h-2.512v-.536h2.512s.098-.042.098-.099v-.874s-.042-.1-.098-.1h-2.512v-.436h2.512s.098-.043.098-.1v-.437a.51.51 0 0 0-.522-.521h-2.088v-.536h-2.427v.536h-2.512s-.099.042-.099.098v.875s.042.099.099.099h2.512v.437h-2.512s-.099.042-.099.099v.874s.042.099.099.099h2.512v.536h-2.512s-.099.042-.099.099v.874s.042.1.099.1m10.16 5.204c-.296 0-.437-.056-.437-.169l-.085-.268h-1.961s-.113.056-.099.113l.141.677c.057.353.551.508 1.482.437h2.159s.099-.042.099-.099v-.606s-.043-.099-.099-.099h-1.214zm5.193-9.366h-2.074v-.536h-2.428v.536h-2.511s-.099.042-.099.098v.776s.042.099.099.099h2.511v.536h-2.427s-.098.042-.098.099v.874s.042.1.098.1h2.427v.535h-2.427s-.098.043-.098.099v.874s.042.1.098.1h2.427v.281h2.428v-.282h2.342s.099-.042.099-.099v-.874s-.043-.099-.099-.099h-2.342v-.536h2.427s.098-.042.098-.099v-.874s-.042-.099-.098-.099h-2.427v-.536h2.511s.099-.042.099-.099v-.324c0-.296-.24-.55-.536-.55"/><path d="M138.077 44.928h-5.292q-.168 0-.169-.085v-1.41s-.042-.099-.099-.099h-2.497s-.099.042-.099.099v1.495q0 1.058 1.651 1.058h6.505s.099-.042.099-.099v-.874s-.042-.1-.099-.1m3.048-.521-.409-1.002s-.043-.056-.085-.056H138.5s-.113.07-.084.141l.804 1.636q.254.89 1.566.889h1.03s.099-.042.099-.099V44.76h-.254c-.353 0-.522-.113-.522-.353"/></g><defs><clipPath id="clip0_668_1210"><path fill="#fff" d="M0 0h142v46H0z"/></clipPath></defs></svg>