<svg width="182" height="46" fill="none" xmlns="http://www.w3.org/2000/svg"><g clip-path="url(#clip0_668_1178)"><path d="m45.394 31.77-16.41-16.422a.27.27 0 0 1-.077-.203c0-.17.12-.301.29-.301h14.279c1.348-.006 2.45 1.057 2.45 2.4l-.01 14.312c0 .17-.133.318-.302.318a.35.35 0 0 1-.225-.099" fill="#ec6c00"/><path d="M45.871 36.197V46H18.597C5.574 46 0 37.638 0 27.447V.257h9.817v27.118c.005 5.666 2.663 8.822 8.84 8.822z" fill="#002f75"/><path d="M23.574 21.885a.756.756 0 0 0 .647.646h7.827l8.704 8.757c.071.054.12.137.12.235a.3.3 0 0 1-.296.302h-21.88c-2.697 0-4.45-1.765-4.45-4.455V8.208C14.24 2.828 18.147.225 23.54.225h21.14v9.298H24.26a.75.75 0 0 0-.68.647v11.72zM151.925 3.463s3.848 5.912 4.215 6.542V3.468h6.396v15.535h-5.519s-4.308-6.75-4.829-7.628v7.628h-6.407V3.468h6.144zm-92.428 15.54a1.804 1.804 0 0 1-1.798-1.803V.17h8.02v14.87h7.7v3.962zm22.873 0h-7.203V3.463h7.203zm12.058-3.206h-2.932V3.468h-6.83v8.472c0 4.986 2.812 7.315 8.134 7.315s8.463-2.422 8.463-7.222V3.468h-6.83v12.33zm39.848 3.463c5.98 0 9.745-3.183 9.745-8.175 0-4.159-3.184-7.863-9.449-7.863s-9.68 3.589-9.68 8.115 3.316 7.929 9.351 7.929h.033zM123.122 7.611h-9.455v3.682h2.642v3.743h-5.284V3.885h12.086L123.127 0h-12.108c-5.437 0-7.986 4.225-7.986 10s2.752 9.003 7.986 9.003h10.316c.992 0 1.792-.822 1.792-1.814l-.011-9.584zm58.872 2.055v7.742c0 .871-.723 1.59-1.595 1.59l-8.172.01c-4.61 0-7.92-2.701-7.92-7.928s2.241-7.765 7.026-7.765H182V6.74h-10.902v9.057h4.478v-2.904h-2.231V9.66h8.649zm-47.548-3.26c1.474 0 2.631 2.115 2.631 4.816s-1.157 4.816-2.631 4.816c-1.475 0-2.637-2.115-2.637-4.816s1.157-4.817 2.637-4.817M123.642 42.75v3.233H91.995v-3.232h12.535V29.995H92.499l-.017-3.233h30.651v3.232H111.59v12.757zM90.75 40.138a2.61 2.61 0 0 1-2.609 2.608h-3.738v3.233H79.17l-.011-19.222h11.587v13.38zm-6.341-.62h1.112v-9.523H84.41zm-8.984 6.477h-8.961v-3.238h6.363v-11.26h5.23v11.896c-.006 1.435-1.196 2.602-2.632 2.602M69.03 26.757h9.022V30h-6.364v11.25H66.48v-9.097h-1.77l1.776 9.09H64.71v4.74h-5.23V41.26h-2.274l2.275-9.107h-1.765v-3.227h1.765v-2.159h5.24v2.159h1.748a2.6 2.6 0 0 1 2.565-2.159z" fill="#002f75"/></g><defs><clipPath id="clip0_668_1178"><path fill="#fff" d="M0 0h182v46H0z"/></clipPath></defs></svg>