<svg width="207" height="46" fill="none" xmlns="http://www.w3.org/2000/svg"><g clip-path="url(#clip0_668_861)"><path d="M155.376 31.488q-1.499 1.375-2.958 2.978c-2.53-1.189-4.744-2.52-6.634-3.98l-1.955 8.65h-3.104l1.861-8.24h-19.269l-1.924 8.515h-3.103l1.996-8.837q-4.516 2.612-9.033 4.395-.767-1.649-1.454-2.653 7.981-2.793 14.818-7.37h-12.008l.599-2.656h13.516l.662-2.928h-9.68l.581-2.564h9.68l.662-2.928h-8.765l.58-2.564h8.769l.507-2.241h3.013l-.508 2.241h10.137l.508-2.241h3.012l-.508 2.241h8.677l-.58 2.564h-8.677l-.662 2.928h9.863l-.581 2.564h-9.863l-.662 2.928h13.424l-.602 2.656h-11.459q3.825 4.074 11.124 6.545M117.968 4.85h19.272a71 71 0 0 0-1.098-3.02l3.574-1.463c.482 1.1 1.044 2.595 1.678 4.486h18.083l-1.663 7.367h-3.378l1.041-4.622h-34.793l-1.057 4.67h-3.334l1.675-7.415zm16.427 27.144c-.492 2.165-1.177 3.996-2.066 5.491a422 422 0 0 1 17.553 5.173l-2.117 3.294q-7.953-2.975-17.43-5.902c-2.879 2.779-9.099 4.761-18.65 5.95q-.075-.273-.959-3.25c8.844-1.009 14.427-2.41 16.752-4.212q2.597-1.783 3.671-6.544zm-10.497-3.662h19.448a22.4 22.4 0 0 1-2.797-3.386h-11.917a78 78 0 0 1-4.737 3.386zm7.078-11.534h10.137l.663-2.928h-10.138zm-1.24 5.492h10.138l.662-2.928h-10.137zm31.495 11.673 2.92 1.233a125 125 0 0 1-5.737 8.423 79 79 0 0 0-2.88-1.416c1.757-2.26 3.659-5.005 5.697-8.24m1.201-21.696h12.831a62 62 0 0 0-2.908-3.294l1.662-1.28h-7.718l.622-2.745h18.196a40 40 0 0 0-1.123-3.617l3.403-1.325a47 47 0 0 1 1.442 4.945h16.988l-.621 2.745h-7.971l1.306 1.188a235 235 0 0 1-4.533 3.387h12.989l-.621 2.747h-44.568l.621-2.747zm13.774 21.696 2.751-1.97h-11.708l-.322 1.417h-3.378l3.577-15.834h32.509l-3.576 15.834h-3.375l.318-1.416h-13.925c1.608 1.691 2.99 3.338 4.135 4.944l-3.202 2.242q-1.412-2.239-3.797-5.213zm19.449-13.731h-25.751l-.738 3.247h25.754zm-27.81 9.109h25.753l.745-3.298h-25.751zm.697 4.395h3.469l-1.176 5.217q-.601 2.655 2.413 2.655h9.361c2.192 0 3.672-.84 4.451-2.52a49 49 0 0 0 1.75-4.116c.966.458 2.006.882 3.136 1.277-.761 1.742-1.41 3.143-1.956 4.212q-2.058 4.258-7.125 4.258h-11.049q-5.756.001-4.523-5.447zm21.656-22.29q2.2-1.558 4.914-3.753H175.8a45 45 0 0 1 3.245 3.206l-1.7 1.372h13.49zm3.621 24.395 3.06-2.014a120 120 0 0 1 4.321 6.545l-3.394 2.292a100 100 0 0 0-3.984-6.823z" fill="#666"/><path d="m33.327 12.887 2.012-8.619c-7.38-2.674-18.96-2.912-25.284 2.407-3.942 3.31-5.781 8.859-3.744 13.895 2.584 6.41 13.52 6.823 14.055 10.943.29 2.517-1.4 4.053-3.425 4.645-4.637 1.324-11.055-.187-14.92-1.347L0 43.468c2.514.882 7.721 1.625 9.406 1.716h3.857c2.719-.063 5.066-.357 8.166-1.207 6.674-1.837 11.882-8.338 10.311-15.461-1.933-7.901-10.617-8.486-13.812-11.354-1.224-1.104-1.466-3.057-.271-4.376 2.586-2.754 12.367-1.476 15.67.108m20.804 5.621H43.098l-6.176 25.942h11.03zm3.975-15.793H46.76l-1.873 8.256c4.677-.054 8.002.107 10.118-1.581 1.893-1.505 1.971-2.78 3.1-6.675m38.85.772H68.381L58.793 44.46h29.381l1.624-8.154H71.605l2.013-8.615h16.7l1.628-8.151H75.532l1.84-7.898H95.34l1.612-8.148z" fill="#ac053d"/></g><defs><clipPath id="clip0_668_861"><path fill="#fff" d="M0 0h207v46H0z"/></clipPath></defs></svg>