<svg width="46" height="46" fill="none" xmlns="http://www.w3.org/2000/svg"><path fill-rule="evenodd" clip-rule="evenodd" d="m23.154 20.734-.073-.73v-.513l-.037-.365.183-.219.293-.073v1.9s.549-.146 1.024-.11l.476.147.11.22-.073.218-.22.146-.33.146s-.768.257-.292 1.06l-.146.183-.256.037-.33-.037s-.22-.037-.22.293v2.777l-.036.328v.33l-.146.182-.11-.182-.073-.257v-2.63s.146-.585-.293-.512c0 0-.183-.22.073-.329 0 0 .33-.183.44-.438 0 0 .036-.074 0-.402 0 0 .072-.549-.55-.146 0 0-.732.438-.878 1.206 0 0-.33.182-.293-.695 0 0 .11-.584.33-.95 0 0 .402-.438.366.11 0 0 .036.329.365.036 0 0 .403-.402.623-.511zm.146.914s0-.293.403-.293c0 0 .22.22-.11.44l-.22.072zm2.965-1.023s.951-.476 1.354-.658c0 0 .475-.11.951.036 0 0 .476.037.55.804 0 0 .145 1.462.182 1.937 0 0 .073.293-.073.658 0 0-.037.475-.183.73l-.22.476s-.146.439-.475.255c0 0-.293-.219.073-.62 0 0 .402-.256.366-.732 0 0-.037-1.388-.11-1.534l-.183-1.023s.037-.768-.805-.585l-.659.256-.33.146-.219.11-.22-.037zm-.696 1.023-.146.438v.804s.11.475-.256.585l-.037.292v.293l.146.22.22-.147.183-.183.037-.33v-1.57l.073-.22-.037-.182zm.879-.037.548-.036s.074-.366-.073-.585c0 0 .476.146.586.548v.512s-.147.365.33.182c0 0 .585-.62.255.037 0 0-.256.22-.439.438 0 0-.11.293.183.512l.073.439.147.182-.037.183-.183.073.037.183.292.11-.329.073-.11.146-.512.036-.366-.11-.33-.036-.292-.036.073-.146s.915-.476 1.061-.95c0 0 .147-.659-.22-.987 0 0-.292.401-.548.694 0 0 .366.073.549.037 0 0-.33.328-.805.585 0 0-.476.145-.293-.257 0 0 .403-.292.44-.657l-.11-.147-.037-.328.183-.074-.037-.182-.292.036v-.146l.073-.219zm1.17-.548.184.22.256-.037-.037-.22-.146-.145-.183-.11-.147.036zm3.624-.402s.622-.329 2.159-.512l.256-.036-.256.293-.22.255-.256.183-.402.11-.44.073-.439-.146-.256-.183zm.585.658-.293.182-.22.183-.109.22-.036.475-.147.438-.146.475-.183.439-.146.329-.183.402-.147.255-.183.33-.256.401-.22.293-.183.329-.183.256-.219.292-.22.255-.22.293-.182.256-.146.292.438-.329.293-.292.22-.293.146-.219.183-.255.183-.33.183-.219.146-.292.183-.329.146-.293.147-.219.11-.219.11-.183.073-.146.11-.146.183.183.183.146s.549.11.585-.329v-.219l-.146-.11s.036-.548.439-.475l.403.073s.622-.146.402.402l-.256.293s-.256.475.476.182l.475-.146.293-.146-.293-.073s-.402-.037-.146-.585l.22-.293.22-.219s.255-.511-.367-.255l-.292.146s-.44.439-.915.329l-.366-.037-.257.037s-.439-.073-.22-.585l.147-.22.073-.255.037-.183.147-.11zm4.648-.877-.183.146-.146.183-.22.438-.147.183-.182.183-.147.22-.219.182-.147.182-.146.147h-.22l-.146.11-.036.182.256.036.255-.036s.403-.073.513-.402c0 0 .256-.256.293.073v.695s.11.328-.22.547l-.256.256-.183.183h.44s.548-.073.658-.767v-.585l-.037-.256s.037-.365-.219-.475c0 0-.293-.11 0-.402l.11-.256.146-.255.183-.183.256-.146.183-.11-.073-.146-.183.037zm1.244.877s.183.548-.549.694l-.183.037v.182h.256l.147.037.037.475v.475s0 .877.914.84l.732-.036h.367s.658-.037 1.354-.658L41.27 23l.255-.33s.476-.328.183-.803l-.146-.33.037-.62-.074-.439-.11-.182-.073.219-.072.292v.658l-.038.402.038.292v.293l-.074.182-.146.22-.22.22-.293.182-.292.219-.22.11-.293.11-.329.036h-.366l-.293-.073s-.805-.22-.878-.878v-.694l.22-.219.402-.33.439-.328.292-.219.257-.183.183-.182-.146-.183-.257.037-.183.073-.146.182-.257.22s-.402.292-.548.036l-.037-.256-.183.147-.146.146z" fill="#000"/><path d="M23.849 1.659c-11.218 0-20.31 9.08-20.31 20.281 0 2.121.325 4.165.93 6.086l.937-.958a19 19 0 0 1-.697-5.128c0-10.555 8.57-19.112 19.14-19.112S42.99 11.385 42.99 21.94c0 5.124-2.02 9.777-5.308 13.209l.9.75a20.2 20.2 0 0 0 5.578-13.96c0-11.2-9.093-20.281-20.311-20.281M6.927 30.838l-.607 1.318a20.3 20.3 0 0 0 5.27 5.952v-1.495a19.1 19.1 0 0 1-4.663-5.775" fill="#ed1c24"/><path fill-rule="evenodd" clip-rule="evenodd" d="m33.328 36.594 2.122-2.046 1.977 2.046h-2.635v2.12h2.78v1.534h-2.78v2.193h2.635l-1.977 1.9-2.122-2.192zm-5.71 0 2.197-2.046 2.049 2.046v5.555l-1.39 1.534-1.538-1.607h1.61V36.74h-1.683v7.601h-1.244zm-5.855.073 2.123-2.12 2.122 2.047v5.7l-2.195 2.047-2.05-2.046zm-13.475.308c.82.546 4.844 3.532.813 7.293H2.66l2.635-2.265s1.281.438 2.452-.768c0 0 .841-1.608-.256-2.448 0 0-.879-1.024-2.562-1.9 0 0-2.415-1.097-1.39-4.532 0 0 .731-5.262 7.319-8.113l.386-.14c.199-.006-4.851 3.356-5.949 8.034 0 0-.33 1.06 0 2.521 0 0 0 .987 1.281 1.645 0 0 1.134.475 1.5.548zm4.692 7.366h1.464V4.582L12.98 5.897zm2.562-39.836v39.836h1.537l.003-16.371v-.658l1.753 17.03h1.391V2.901h-1.39s-.037 18.563 0 18.563l-1.977-17.76zm7.466 32.308h1.683v5.336h-1.683zm16.102-.292 1.976-1.973 2.196 2.265v1.828h-1.245v-1.974h-1.756v5.409h1.683v-1.682h1.318v1.828l-2.123 2.12-2.05-2.047z" fill="#000"/></svg>