<svg width="142" height="46" fill="none" xmlns="http://www.w3.org/2000/svg"><path d="m8.303 8.781-.44-.423.22-.228q.002.187-.032.328.313-.029.4-.019.092.009.162.02zm-.762 1.477.271-.297 1.245-1.296.306-.3-.35-.335-.231.255q-.01-.17-.014-.313l-.16.003-.22.01q-.055.002-.161-.004l.251-.234-.362-.348-.199.217-.397.414-.32-.31.415-.432.294-.274-.366-.352-.29.317-1.183 1.23-.284.276.361.348.263-.294.41-.426.321.31-.326.34-.281.278.356.343.265-.293.328-.34.44.425-.442.46-.291.286zm-2.419-1.47 2.198 2.115.37.377.385-.401-.045-.044 1.929-2.002.069.066.392-.41-.39-.352-2.22-2.14-.347-.352-.304.339-2.073 2.152-.33.32zm.389-.378 1.928-2.003 2.167 2.087-1.928 2.003zm7.241-2.685q.324-.482.476-.8a.4.4 0 0 0-.084-.067 16 16 0 0 1-.427.654 6 6 0 0 1-.628.713 3 3 0 0 0-.166-.125 4 4 0 0 0-.301-.177q.22-.168.372-.314.154-.146.352-.4.201-.252.363-.536l-.067-.015q-.244.27-.375.4-.136.128-.441.405-.081-.065-.15-.117a3 3 0 0 0-.33-.194q.186-.12.496-.349.31-.23.693-.76l-.595.31-.347.193-.227-.436.357-.171 1.692-.882.384-.213.229.436-.396.191-.599.312q.11.02.231.038l-.297.456q.258.037.325.073l.136.07q.303-.569.345-.69l.103-.292q.097.04.178.065.079.025.419.07l-.324.582q.104.102.318.293.214.19.589.275.375.082.737.047-.043.164-.064.271c-.012.071-.03.189-.043.355q-.523-.033-.808-.136a2.2 2.2 0 0 1-.508-.253 3.5 3.5 0 0 1-.49-.418l-.105.158.123.18q.055.084.184.326.127.243.174.415a.6.6 0 0 1-.014.361q-.062.19-.545.448a3 3 0 0 0-.261-.286l-.172-.136q.346-.112.395-.21.051-.096 0-.225a2 2 0 0 0-.085-.2l-.024-.049a8 8 0 0 1-.38.608q-.239.347-.427.548l-.43.475a2 2 0 0 0-.283-.191l-.217-.112q.61-.492.939-.974m-1.87-1.049-.1-.22-.234-.446-.162-.286.464-.222 1.09-.567a2.4 2.4 0 0 0-.324-.09q.072-.08.12-.148.052-.07.2-.31.39.09.575.142a1 1 0 0 0-.063.142l1.166-.608.422-.238.14.297.234.449.127.22-.515.271-.11-.232-.152-.29-2.627 1.373.146.283.122.21zm7.185-3.326.864-.131.083.524-.865.135zm-.575-.039.272 1.757.06.47.568-.087-.013-.068.866-.133.1.663c.019.104.04.187.071.246q.049.088.189.145.142.055.403.016.263-.04.684-.094.435-.052.644-.097.209-.043.309-.102a.55.55 0 0 0 .171-.17q.074-.115.14-.604a3 3 0 0 1-.589-.182v.183q.004.18-.071.263a.4.4 0 0 1-.21.117q-.136.037-.456.077l-.499.065q-.163.017-.208-.025a.2.2 0 0 1-.055-.102l-.073-.485.984-.151.015.084.57-.086-.085-.45-.275-1.792-.048-.404-.364.074L19.4.62l-.036-.257L19.317 0l-.57.087.066.362.04.257-1.006.155-.431.05zm.732 1.054.864-.134.079.517-.865.132zm1.258-1.232.983-.151.084.526-.986.152zm.155 1.014.985-.152.08.517-.985.152zm5.588-.757.09.177q.036.075.228.532a2 2 0 0 1-.257.404 3 3 0 0 1-.3.284zm-.44 2.624.094-.601.095-.555q.147.202.19.286.046.081.088.167.3-.293.382-.394.08-.102.138-.179l.037.133q.011.039.028.196l.12-.08c.075-.05.201-.107.388-.17a23 23 0 0 0-.233-.68l.073-.148q.04-.077.15-.349.173.306.213.387.038.081.13.366l-.106.18a2 2 0 0 1-.267.37 2.3 2.3 0 0 1-.43.357q.209.167.27.237.06.07.134.163.149-.118.247-.217.096-.1.402-.466l.077.27q.01.036.048.243.271-.198.493-.317l-.053-.161-.239-.634.114-.275q.064-.153.152-.413l.09-.267q.012-.046.044-.134-.27-.065-.55-.173l-.023.145a4 4 0 0 1-.127.445q-.089-.186-.163-.332l-.114.071a1.2 1.2 0 0 1-.326.123l.089-.233.038-.112.064-.176a3 3 0 0 1-.537-.196l-.04.183q-.024.12-.056.22-.033.1-.076.214a9 9 0 0 1-.179-.39 1.6 1.6 0 0 1-.271.139l-.142.038.107-.625 2.567.44-.458 2.682a.23.23 0 0 1-.053.121q-.038.041-.206.009a2 2 0 0 1-.3-.081l.042.158q.06.228.055.338l-.008.177q.438.046.645.012.205-.035.259-.154a.9.9 0 0 0 .079-.259l.496-2.89.107-.553-.547-.077L25.41.144l-.556-.11-.08.556-.469 2.724-.115.598zm6.415-.157q-.059-.38-.11-.514l-.055-.143q.297.034.688-.067.387-.1.739-.269c.232-.11.437-.245.613-.397l.107-.095q.168.291.384.51a43 43 0 0 1-.742.434q-.3.17-.774.317-.473.145-.85.224m-.065.97q.141-.026.373-.112.23-.08.484-.198.25-.117.5-.289t.316-.232l.093-.084q.154.319.356.606l-.206.096-.363.178q-.263.123-.525.227a7 7 0 0 1-.637.213q.785.397 1.551.769a7 7 0 0 0-.056-.48l-.06-.297q.356.04.47.02l.12-.018q.146 1.038.21 1.689-.485.068-.495.072l-.169.04q.009-.103.01-.185a4 4 0 0 0-.011-.311q-.39-.186-1.126-.506a33 33 0 0 0-.91-.386 3 3 0 0 0-.403-.127q.073-.339.065-.486l-.013-.164a3 3 0 0 0 .426-.035m2.933-2.054q.236.175.534.321a1.7 1.7 0 0 0-.164.333 3 3 0 0 0-.081.414q-.04.301.05.56.086.257.159.395.07.135.132.223.063.087.265.277c-.062.026-.118.053-.177.08a5 5 0 0 0-.416.277 3 3 0 0 1-.392-.687 2.5 2.5 0 0 1-.17-.648 2.5 2.5 0 0 1 .002-.564 3 3 0 0 1 .075-.434 6 6 0 0 1 .183-.547m2.855 5.807.454-.422.83.892-.453.421zm2.475-.215-1.327-1.426-.342-.391-.394.369.366.368 1.327 1.425.38.43.396-.366zm-.863-1.567 1.791 1.924-2.066 1.922q-.094.087-.15.091-.053.004-.15-.096a3 3 0 0 1-.116-.128l-.147-.174-.07.17a1 1 0 0 1-.129.23q-.069.09-.133.164.406.381.59.449t.26.042q.08-.024.232-.166l2.292-2.133.365-.317-.365-.367-1.825-1.962-.399-.45-.401.373zm-1.45.893-.584.54-.341.291.325.327.945 1.014.33.378.315-.319.581-.542.32-.27-.356-.356-.943-1.014-.302-.349zM4.662 15.387l.128.123-.113.249-.975-.173.02-.323q.353-.01.617-.153a.83.83 0 0 0 .372-.38.52.52 0 0 0 .048-.33.3.3 0 0 0-.17-.21c-.147-.067-.383.097-.696.488l-.107.127q-.345.418-.626.51t-.634-.068q-.467-.214-.626-.62-.157-.408.05-.86a1.53 1.53 0 0 1 .55-.637L2.334 13l.112-.24 1.235.188-.022.36a1.84 1.84 0 0 0-.81.152.92.92 0 0 0-.464.445.56.56 0 0 0-.04.392.37.37 0 0 0 .204.261q.233.107.66-.396l.085-.104q.21-.246.347-.384.139-.136.222-.181a.8.8 0 0 1 .38-.093q.204 0 .406.092.404.184.545.57.142.387-.044.798-.08.169-.199.3a1.3 1.3 0 0 1-.29.226m-.26.985-.69 2.29-1.041.032-.035-.303q.4-.055.6-.19a.73.73 0 0 0 .28-.405l.011-.043-1.714-.518q-.363-.108-.48-.07-.12.037-.183.225l-.38-.115.414-1.377.38.116q-.05.197.023.294.074.098.441.207l1.716.517.014-.04a.76.76 0 0 0-.008-.498q-.09-.223-.395-.49l.197-.23zm-2.609 3.66.092-.577.867.452zm-.4-1.352-.053-.028q-.415-.231-.415-.539L.53 18.05l-.189 1.192.385.06q.032-.177.094-.238.063-.061.183-.04.02 0 .044.008t.048.016l.419.19-.137.878-.46.08-.065.005q-.036-.001-.079-.008-.098-.012-.132-.085-.032-.067-.008-.218l.004-.035-.38-.06-.22 1.39.391.06q.072-.24.472-.315l.02-.004 2.48-.427.103-.654zm1.859 2.899-.042 2.39-.995.316-.116-.282q.374-.164.525-.35a.7.7 0 0 0 .16-.462l.002-.046-1.791-.033q-.379-.006-.484.063-.102.066-.114.267L0 23.433l.026-1.437.397.005q.002.205.102.278.098.073.482.08l1.79.033v-.045a.73.73 0 0 0-.142-.476q-.146-.19-.51-.364l.125-.274zm-.048 2.604.303 2.385-.908.508-.19-.243a1.8 1.8 0 0 0 .484-.573q.145-.298.104-.623-.023-.191-.106-.248-.08-.057-.34-.024l-.458.059.021.14q.029.224.133.287.103.066.408.043l.038.305-1.443.183-.038-.304q.283-.064.4-.174a.33.33 0 0 0 .09-.288l-.018-.139-.743.095q-.257.033-.322.109-.067.078-.039.271c.027.22.132.422.314.616q.273.285.716.462l-.133.3-1.152-.296-.314-2.444.395-.049q.03.198.14.253.105.056.491.008l1.224-.157q.389-.049.478-.132.09-.082.071-.282zm1.261 6.07.146.016.093.26-.94.617-.245-.271q.346-.341.462-.606a.68.68 0 0 0 .025-.516q-.112-.317-.475-.38-.359-.067-.926.135-.557.196-.788.466a.56.56 0 0 0-.12.587.6.6 0 0 0 .28.35.54.54 0 0 0 .433.018q.163-.06.207-.163.048-.106-.014-.294l.36-.126.452 1.275-.358.128c-.072-.116-.146-.18-.219-.204q-.11-.029-.348.056l-.804.284-.146-.41.21-.196a1.3 1.3 0 0 1-.345-.301 1.3 1.3 0 0 1-.221-.405 1.14 1.14 0 0 1 .124-1.057q.324-.498 1.058-.757.687-.242 1.262-.008c.38.16.645.44.786.842q.055.151.067.31a1.7 1.7 0 0 1-.016.35m.249 2.26q.222-.121.32-.096.098.023.196.205.142.256.107.47a.43.43 0 0 1-.236.32.42.42 0 0 1-.432.008q-.205-.114-.402-.478a2 2 0 0 1-.076-.144zm-.175-1.158q.095.187.039.294-.055.111-.393.296l-1.09.594q-.334.18-.452.168-.123-.014-.23-.193l-.348.19.693 1.272.348-.192c-.063-.122-.073-.22-.039-.293q.059-.11.389-.292l.355-.195.14.258-.779 1.474.444.814.34-.187a.7.7 0 0 1-.054-.271.7.7 0 0 1 .082-.292l.426-.897q.258.248.52.294a.85.85 0 0 0 .55-.115q.388-.211.437-.577.052-.363-.237-.887l-.792-1.452zm1.906 2.556.85 1.193-.323.229q-.126-.165-.255-.165-.126 0-.433.22l-1.01.719q-.307.215-.35.338-.038.117.073.293l-.321.231-.849-1.193.322-.231q.13.165.255.166.127 0 .433-.218l1.01-.717q.31-.221.35-.34t-.074-.296zm.983 2.606q.2-.18.291-.18.09.001.221.14.28.309.207.706c-.05.261-.217.523-.496.776q-.42.383-.82.42a.78.78 0 0 1-.683-.27q-.125-.136-.12-.232.005-.09.205-.268zm-.429-1.071q.127.147.1.261-.024.118-.317.383l-.914.832q-.29.265-.407.28-.118.014-.253-.124l-.293.266.955 1.05q.549.6 1.145.64.593.039 1.17-.488.579-.526.594-1.122c.01-.396-.168-.798-.531-1.196l-.955-1.05zm5.158 4.293.152-.133.188.133-.367 1.192-.31-.09q.102-.428.023-.773-.075-.34-.304-.5-.294-.203-.662-.05-.367.148-.693.623c-.216.312-.33.603-.33.867a.7.7 0 0 0 .318.62.87.87 0 0 0 .549.145c.219-.003.438-.065.652-.174l.195.344q-.48.282-.914.288a1.4 1.4 0 0 1-.836-.276q-.568-.392-.646-1.014-.08-.619.358-1.253.416-.597 1.03-.741a1.38 1.38 0 0 1 1.397.462q.108.136.2.33m2.376 1.876q.037.39-.225.933-.26.545-.586.76-.322.212-.644.059-.328-.153-.36-.541c-.024-.26.053-.567.226-.931q.263-.548.584-.761.326-.22.65-.062.32.154.355.543m-1.404-.98q-.59.231-.915.911-.33.679-.138 1.286.191.605.822.909c.42.199.824.223 1.222.072q.59-.233.919-.912.328-.682.136-1.288-.193-.603-.82-.905-.634-.307-1.226-.072m3.544 1.933q.072-.245.159-.294.088-.053.285.004.282.085.407.255a.44.44 0 0 1 .061.397.42.42 0 0 1-.3.308q-.228.067-.622-.05a1 1 0 0 1-.097-.031l-.058-.018zm-.941-.695q.196.063.235.181.042.116-.07.487l-.348 1.189q-.108.365-.203.44-.095.077-.295.028l-.113.38 1.389.406.111-.382q-.195-.06-.235-.18c-.026-.079-.002-.236.067-.48l.114-.388.279.08.494 1.592.891.263.11-.372a.7.7 0 0 1-.233-.15.8.8 0 0 1-.148-.267l-.334-.936q.361-.005.575-.16.215-.154.308-.471.125-.424-.1-.715-.221-.293-.795-.46l-1.588-.465zm4.119 1.426q.034-.25.099-.316.066-.067.227-.048a.54.54 0 0 1 .367.195.56.56 0 0 1 .083.414q-.037.275-.221.39t-.509.073l-.084-.012-.053-.012zm-1.019-.547q.192.032.245.137.058.104.004.499l-.166 1.22q-.054.392-.133.479-.082.084-.276.066l-.052.393 1.401.19.053-.392q-.194-.033-.248-.142-.051-.11 0-.493l.043-.329.498.07q.531.071.826-.123t.36-.65q.062-.475-.183-.755-.248-.28-.798-.356l-1.518-.206zm4.883.614q.206.33.217.935.01.602-.18.941-.195.338-.552.345c-.242.004-.428-.106-.567-.325q-.202-.328-.214-.933t.182-.943q.19-.338.551-.344.355-.008.563.323m-1.695-.246q-.424.474-.41 1.225c.008.505.159.905.454 1.209q.441.458 1.143.446.694-.014 1.122-.485.428-.473.413-1.226-.014-.756-.456-1.209c-.296-.306-.674-.453-1.142-.445q-.7.012-1.124.485m4.033.136q-.046-.25.008-.334.053-.089.257-.124.288-.054.478.044a.43.43 0 0 1 .232.324.42.42 0 0 1-.129.413c-.113.105-.308.186-.575.234q-.069.014-.1.018l-.064.008zm-1.155-.195q.205-.033.292.054.087.086.157.466l.227 1.217q.067.377.018.485-.051.111-.253.159l.072.39 1.424-.265-.074-.389q-.202.03-.292-.056-.087-.084-.155-.46l-.075-.397.288-.054 1.158 1.198.913-.166-.07-.382a.6.6 0 0 1-.276-.03.7.7 0 0 1-.251-.171l-.721-.684q.315-.166.44-.403.123-.233.062-.56-.08-.433-.41-.592-.33-.163-.919-.052l-1.626.3zm5.116.048-.55.195-.016-.977zm-1.002.995v.063c-.002.315-.098.521-.278.619l.131.376 1.14-.4-.129-.366q-.171.054-.255.03-.084-.029-.122-.142a.2.2 0 0 1-.011-.043q-.007-.025-.01-.05l-.032-.46.838-.294.29.366q.018.027.034.056t.032.07q.034.095-.014.156-.043.06-.189.114l-.032.012.13.364 1.326-.465-.13-.377q-.25.054-.506-.266l-.01-.014-1.554-1.98-.623.22zm1.721-3.032 2.129-1.096.745.722-.193.237q-.319-.25-.554-.295a.72.72 0 0 0-.487.08l-.038.02.822 1.592c.116.222.209.356.282.393q.109.059.29-.024l.182.35-1.28.662-.181-.353q.177-.102.197-.223.015-.12-.158-.46l-.822-1.593-.041.02a.73.73 0 0 0-.35.352q-.099.22-.08.625l-.299.02zm2.38-1.275 1.214-.816.223.33q-.17.122-.173.25-.002.124.206.441l.69 1.028q.21.313.327.358.117.043.3-.064l.22.328-1.218.816-.218-.33q.166-.124.17-.252.003-.121-.206-.44l-.689-1.027q-.212-.316-.328-.358-.118-.044-.295.064zm3.401-1.749q.37.121.766.579.396.455.464.838.07.383-.202.616-.27.236-.64.115-.366-.121-.764-.578-.397-.459-.468-.84-.068-.381.201-.616t.643-.114m-1.46.9q-.02.636.473 1.203c.332.379.704.591 1.126.636q.634.065 1.16-.393.527-.458.55-1.093.026-.635-.471-1.205-.493-.57-1.126-.636-.632-.062-1.158.393-.53.462-.553 1.096m1.845-2.136.79-.95 2.057.407-.66-.55q-.296-.246-.417-.26-.122-.01-.258.138l-.297-.245.695-.832.303.255q-.124.158-.092.28.03.117.328.366l1.709 1.423-.338.405-2.773-.534 1.146.955q.295.245.415.256.123.013.26-.139l.298.25-.695.832-.306-.253q.126-.165.095-.284-.033-.118-.328-.362l-.948-.79q-.295-.245-.417-.257-.126-.012-.263.144zm4.171-4.932q.391-.027.93.249.535.273.745.603.204.33.044.648-.166.322-.553.346-.386.025-.926-.25-.54-.276-.746-.604-.208-.33-.044-.648.162-.319.55-.344m-1.013 1.377q.215.599.887.94.67.344 1.282.17.61-.174.93-.799.316-.618.1-1.218-.215-.599-.887-.942t-1.284-.168q-.608.176-.925.798-.322.624-.103 1.219m.885-2.631.777-2.31 1.012-.107.05.29q-.389.103-.64.312-.248.209-.353.526-.07.202-.024.3.048.096.295.177l.426.145.043-.129q.079-.242.014-.362-.068-.12-.341-.225l.087-.259 1.412.474-.089.26q-.274-.06-.436 0a.38.38 0 0 0-.225.255l-.042.125.506.17q.356.123.479.083.119-.04.195-.24l.378.129-.474 1.408-.377-.125q.06-.205-.012-.31c-.045-.066-.19-.144-.432-.224l-1.174-.393q-.362-.122-.476-.08-.118.035-.201.238zm1.527-5.835-.189-.075.029-.227 1.224-.23.07.316a1.7 1.7 0 0 0-.697.34q-.268.225-.3.503-.046.356.261.61.306.253.875.32.57.075.921-.111a.7.7 0 0 0 .402-.571.9.9 0 0 0-.127-.553 1.5 1.5 0 0 0-.458-.495l.213-.332q.474.29.682.676.205.384.146.868-.085.681-.598 1.042-.51.36-1.276.266-.722-.088-1.138-.565a1.38 1.38 0 0 1-.333-1.119c.012-.114.046-.223.092-.333q.073-.161.201-.33m-.033-.741-.053-1.437.38-.014q.014.199.123.263c.07.045.235.06.49.053l.324-.012-.043-1.1-.321.012q-.389.014-.49.088t-.1.275l-.38.014-.055-1.437.396-.014c.01.133.049.226.116.27q.101.066.495.053l1.234-.05q.384-.014.48-.088.096-.075.095-.28l.398-.015.054 1.437-.382.014q-.012-.196-.118-.265-.102-.064-.49-.05l-.535.022.042 1.097.535-.02q.389-.015.486-.09.098-.072.096-.272l.383-.014.054 1.437-.395.016c-.01-.138-.05-.226-.117-.273q-.104-.068-.487-.053l-1.235.047q-.383.015-.484.091-.1.075-.099.28zm-.186-3.334-.237-1.444.39-.063q.043.204.157.26.114.054.486-.006l1.22-.2q.375-.062.463-.15.088-.089.066-.296l.39-.065.238 1.444-.39.065q-.043-.206-.157-.262-.114-.054-.485.004l-1.224.203q-.374.06-.464.15-.087.09-.062.295zm-.207-1.503-.34-1.19 1.494-1.47-.828.235q-.365.107-.444.2-.08.095-.034.29l-.368.105-.298-1.04.38-.11q.065.195.181.236t.488-.064l2.14-.61.144.51-2.004 1.987 1.433-.409q.371-.104.448-.2c.05-.061.063-.158.03-.288l.373-.105.297 1.04-.38.108c-.042-.129-.106-.209-.183-.235q-.115-.04-.484.065l-1.188.338q-.366.106-.446.2-.08.098-.03.298zm.027-5.017.24.533-.972.1zm1.079.91.06-.004q.47-.035.642.221l.363-.164-.5-1.1-.352.161q.069.167.05.252t-.13.135l-.04.015-.05.014-.455.07-.368-.807.34-.32a.6.6 0 0 1 .12-.077q.092-.042.157-.002.066.04.127.179l.016.032.354-.161-.583-1.281-.362.165q.078.242-.217.524l-.018.013-1.836 1.72.274.602 2.408-.185" fill="#006f68"/><path d="M17.826 33.524a29 29 0 0 1-3.331-.636c1.025 2.626 2.524 4.716 4.334 5.96-2.31-1.24-4.238-3.466-5.571-6.317-2.388-.744-4.458-1.79-6.052-3.055C9.712 35.632 15.75 39.97 22.807 39.97q.688-.002 1.365-.059c-2.568-.53-4.832-2.916-6.346-6.387" fill="url(#paint0_radial_223_23580)"/><path d="M13.053 22.534a27 27 0 0 0 .079 4.551q1.47.453 3.083.745a29 29 0 0 1-.345-4.13c-.083-7.524 2.7-13.898 6.573-15.885-3.391 2.902-5.453 8.94-4.95 15.74.117 1.59.37 3.122.733 4.563 1.154.126 2.347.19 3.568.18 8.547-.067 15.684-3.565 17.572-8.208-1.381-7.54-7.782-13.324-15.616-13.757-5.407.324-10.11 7.322-10.697 16.201" fill="url(#paint1_radial_223_23580)"/><path d="M23.283 29.742a30 30 0 0 1-4.695-.33 23 23 0 0 0 1.02 2.678 31 31 0 0 0 3.58.207c6.388 0 12.004-1.936 15.226-4.858-2.785 3.732-9.172 6.344-16.612 6.344q-.672-.002-1.337-.03c1.743 3.002 4.083 5.074 6.634 5.665 7.135-1.874 12.415-8.31 12.54-16.001-2.817 3.678-9.07 6.268-16.356 6.325" fill="url(#paint2_radial_223_23580)"/><path d="M12.344 30.185a22 22 0 0 1-.706-2.852c-1.76-.857-3.239-1.905-4.332-3.097 1.178.89 2.6 1.659 4.202 2.286a25.5 25.5 0 0 1-.17-5.608c.443-5.627 2.628-10.507 5.69-13.592C10.573 9.68 5.966 15.871 5.966 23.138c0 .704.05 1.396.131 2.075 1.2 2.002 3.399 3.725 6.246 4.972" fill="url(#paint3_radial_223_23580)"/><path d="M13.248 28.029c.135.947.322 1.863.553 2.736a26 26 0 0 0 3.331.925 24 24 0 0 1-.71-2.692 24 24 0 0 1-3.174-.97" fill="url(#paint4_radial_223_23580)"/><path d="M4.673 23.138c0 9.997 8.135 18.128 18.134 18.128s18.135-8.131 18.135-18.128c0-9.995-8.136-18.129-18.135-18.129S4.673 13.143 4.673 23.138m.265 0c0-9.851 8.016-17.863 17.87-17.863 9.852 0 17.868 8.012 17.868 17.863S32.66 41.003 22.807 41.003s-17.87-8.014-17.87-17.865m61.353-7.121v-1.91h.928a4.4 4.4 0 0 1-.762.646q.704.633.867.856.165.226.287.408zm-4.7 1.48 1.184-.036h5.302l1.264.036V15.98l-1.017.036q.341-.393.63-.712l-.326-.348-.472-.48a6 6 0 0 1-.328-.37l1.017.058v-1.568l-.87.028H66.29v-1.393h1.764l1.185.066V9.714l-1.266.036h-5.039l-1.168-.036v1.561l1.168-.043h1.741v1.393h-1.393l-1.168-.028v1.546l1.168-.036h1.393v1.91h-1.887l-1.199-.036zm-1.824-8.624v9.525l-.042 1.647h1.64v-.195h8.2v.3h1.678l-.05-1.65V8.874l.05-1.54-1.343.05h-8.818l-1.357-.05zm1.598.058h8.2v9.394h-8.2zm15.486 8.108q1.512-.865 2.333-1.533a1.7 1.7 0 0 0-.124-.304q-1.118.704-2.01 1.197-.895.492-2.616 1.068a8 8 0 0 0-.259-.583q-.126-.259-.555-.929a12 12 0 0 0 1.41-.33q.596-.184 1.464-.598a12.6 12.6 0 0 0 1.673-.965l-.151-.138q-.998.4-1.526.562-.53.164-1.709.49a10 10 0 0 0-.227-.537q-.112-.239-.607-1.016a31 31 0 0 0 1.78-.25q1.125-.187 2.848-1.108H76.59l-1.168.035v-1.53l1.168.036h5.627l1.302-.036v1.53l-1.302-.035h-1.98q.246.218.552.436l-1.41.835q.632.48.756.674l.26.385q1.576-1.132 1.84-1.407l.675-.663q.195.254.368.434.175.178 1.011.801c-.627.432-1.171.81-1.642 1.14q.126.435.428 1.276.305.835 1.17 1.608a6.8 6.8 0 0 0 1.866 1.196c-.222.264-.4.48-.537.658q-.203.266-.603.917-1.314-.84-1.924-1.538a7 7 0 0 1-.984-1.434q-.375-.734-.709-1.862l-.5.283q.05.371.082.679.035.309.038 1.165 0 .858-.106 1.402-.11.544-.533.98-.425.435-2.039.457-.19-.93-.29-1.168l-.26-.625q1.053.18 1.313-.015.262-.196.308-.62.05-.425.05-.68v-.174c-.481.349-1.084.729-1.818 1.14q-1.096.616-1.867.901l-1.77.697q-.293-.67-.48-.936l-.414-.625q2.266-.479 3.782-1.343m-3.46-5.598.033-.763V9.109l-.034-1.023 1.516.052h3.617a7.5 7.5 0 0 0-.718-.712q.297-.124.522-.24.225-.114.93-.574.907.815 1.32 1.227-.21.146-.354.299h3.87l1.43-.052-.035 1.023v1.584l.035.798h-1.72l.023-.798V9.67l-8.745.014v.995l.028.763zm16.187-1.184h2.578v1.662h-2.579zm-1.663-.4v5.556l-.044 1.48h1.706v-.217h2.58v2.098q0 .494.092.792.094.297.48.536t1.169.243q.785.004 2.035.034 1.299.044 1.928.006.627-.035.94-.168.312-.128.579-.445.261-.316.679-1.798-.714-.254-1.635-.843l-.08.567q-.074.56-.331.778-.258.217-.668.265-.41.047-1.363.019l-1.481-.037q-.478-.022-.591-.174a.55.55 0 0 1-.111-.342v-1.532h2.939v.269h1.7l-.042-1.424V9.857l.042-1.27-1.097.052h-3.542v-.815l.028-1.146h-1.707l.036 1.146v.815h-3.007l-1.278-.052zm1.662 3.602h2.58v1.635h-2.58zm4.222-3.202h2.939v1.662h-2.94zm0 3.202h2.939v1.635h-2.94zm9.912-1.919.34.5q.145.212.937 1.518-.26.894-.553 1.38a10 10 0 0 1-.724 1.032zm.027 8.314-.027-1.902v-1.759q.529.546.696.777.167.234.334.475.732-1.062.916-1.417l.312-.624.173.392q.052.108.175.587l.314-.312q.282-.284 1.045-.727a71 71 0 0 0-1.017-1.966l.138-.495q.07-.26.261-1.154.652.849.808 1.079.158.228.565 1.055l-.213.611q-.224.646-.601 1.278-.378.631-1.067 1.327.68.407.897.59.212.182.476.427.377-.442.607-.798c.159-.237.466-.787.932-1.648l.371.792q.043.106.253.727.698-.757 1.278-1.235l-.231-.472a91 91 0 0 1-1.011-1.823l.197-.907q.102-.503.233-1.35l.123-.873q.02-.145.065-.434a12 12 0 0 1-1.677-.24v.455q0 .365-.145 1.44a42 42 0 0 0-.647-.938l-.298.276q-.248.246-.878.553l.137-.764q0-.021.059-.366l.093-.577q-.98-.094-1.654-.32l-.023.589q-.014.378-.058.704c-.028.218-.07.45-.116.698a32 32 0 0 1-.712-1.105q-.531.465-.726.57-.197.105-.384.193V9.26h7.681v8.504q0 .253-.093.399-.094.143-.604.129a6.4 6.4 0 0 1-.899-.087l.196.466q.29.666.331 1.012.038.347.063.547 1.297-.085 1.879-.304.579-.22.678-.605.1-.39.1-.84V9.319l.036-1.757-1.628.05h-7.83l-1.669-.05.045 1.757v8.633l-.045 1.902zm12.598-5.521q-.683-.958-1.001-1.248l-.348-.313q.818-.347 1.687-1.205a12.6 12.6 0 0 0 1.539-1.836 8.6 8.6 0 0 0 1.029-2.005l.152-.42q.843.542 1.706.834-.768 1.365-1.309 2.287-.543.922-1.561 2.026a29 29 0 0 1-1.894 1.88m1.198 2.754q.328-.278.811-.851.481-.574.968-1.267.487-.694.895-1.539.407-.847.492-1.108l.124-.37q.851.645 1.78 1.133-.272.384-.398.573l-.692 1.023q-.507.735-1.039 1.406-.53.671-1.357 1.535 2.602-.078 5.104-.196-.607-.964-.826-1.235l-.567-.725q.981-.42 1.25-.646l.284-.226a137 137 0 0 1 2.919 4.32q-1.163.909-1.184.938l-.379.362a10 10 0 0 0-.235-.527q-.112-.226-.468-.838-1.271.074-3.633.291-2.36.218-2.898.288-.535.074-1.226.255-.29-1.038-.523-1.43l-.254-.434q.725-.452 1.052-.732m4.72-9.999a9.5 9.5 0 0 0 1.839.087 7 7 0 0 0-.018.548q.003.242.058.61.054.366.375 1.255.32.891.909 1.467.593.577.968.846.373.27.661.412.285.147 1.071.372-.173.24-.338.479-.163.24-.693 1.379a9 9 0 0 1-1.977-1.302q-.864-.759-1.355-1.525a9 9 0 0 1-.791-1.55 10 10 0 0 1-.419-1.304q-.121-.52-.29-1.774m10.339 7.48h3.588v1.93h-3.588zm4.505-4.182h-5.738l-1.539-.05v1.69l1.539-.058h5.738l1.692.052v-1.684zm-5.114-1.359h7.75v8.808q0 .406-.103.537-.1.131-.509.137a6 6 0 0 1-.508-.006q-.355-.014-.674-.03l.224.524q.183.428.237.78.056.352.092.658 1.64-.125 2.153-.395.511-.273.617-.506.103-.232.103-.884V8.877l.046-1.51-1.518.05h-7.91l-1.771-.05v1.712zm-.987 5.214v2.482l-.067 1.404 1.361-.051h4.087l1.482.05-.058-1.403v-2.482l.058-1.3-1.482.05h-4.087l-1.361-.05zM67.6 23.38h-.981l-.236.55s-1.1-.744-2.554-.744-3.732.98-3.732 3.612c0 2.28 2.005 2.83 2.437 2.948.43.117 2.788.744 3.339 1.02.55.275 1.06.628 1.06 1.02 0 .393-.274 1.495-2.043 1.495-1.767 0-3.341-1.65-3.89-3.104l-1.18.431 1.22 4.205h.981l.196-.708s1.061.785 2.75.785c1.692 0 4.284-.706 4.284-4.045 0-2.513-2.516-3.064-3.261-3.221s-3.498-.707-3.498-1.767c0-1.062 1.416-1.1 1.61-1.1.2 0 1.928-.158 3.343 2.316l1.1-.392zm1.337 4.912.944-2.83h7.151l.983 2.83-.826.312s-.55-1.883-2.632-1.883v5.185c0 .627-.078 1.532 1.021 1.61v1.061h-4.243v-1.061s1.021.197 1.021-1.178V26.72c-.587 0-1.886.077-2.633 1.883zm15.797 0 .944-2.83h7.151l.985 2.83-.826.312s-.551-1.883-2.634-1.883v5.185c0 .627-.078 1.532 1.021 1.61v1.061H87.13v-1.061s1.023.197 1.023-1.178V26.72c-.587 0-1.886.077-2.633 1.883zM76.6 33.516v1.061h3.576v-1.02s-1.335.275-.825-1.298c.51-1.57 1.691-4.635 1.691-4.635s1.48 3.968 1.677 4.635c.197.668.326 1.257-.814 1.257v1.061h4.204v-1.061s-.722.151-1.375-1.741c-.51-1.478-2.278-6.313-2.278-6.313h-1.964s-2.123 5.697-2.477 6.562c-.353.864-.472 1.257-1.415 1.492" fill="#006f68"/><path d="M79.392 30.178h3.38v1.137h-3.38zm14.223-3.575v-1.141h7.152l1.18 2.71-.826.472s-.944-2.04-3.38-2.04c-.863 0-.942.51-.942 1.215v4.4c0 .746.117 1.297.903 1.297s2.436-.235 3.773-2.515l.824.434-1.334 3.142h-7.35v-1.061s1.023.237 1.023-1.492v-4.048c0-1.1-.354-1.373-1.023-1.373" fill="#006f68"/><path d="M96.562 28.998h.905c.549 0 1.02-.196 1.02-1.336h.906v4.086h-.944s.08-1.532-1.257-1.532h-1.337zm19.295-1.532 1.219-.472-1.023-3.77h-.982l-.194.47c-.001 0-1.143-.589-2.398-.589-1.258 0-5.395.747-5.395 5.697 0 2.474.991 6.05 4.804 6.05 2.201 0 3.183-1.06 3.183-1.06l.434.943h1.61v-2.987c0-1.413.589-1.727 1.18-1.727v-1.295h-4.953v1.255s1.298-.039 1.298 1.178c0 1.219-.786 1.963-2.004 1.963s-2.712-.55-2.712-4.124 1.335-4.36 2.634-4.36c1.296 0 2.319.905 3.299 2.828" fill="#006f68"/><path d="M131.891 26.563v-1.101h-4.363v1.1c.631 0 1.102.276 1.102 1.257v4.125c0 1.531-.668 1.414-.982 1.414-.315 0-.749-.077-1.169-.588-.374-.455-1.858-2.435-1.858-2.435.392-.079 2.043-.59 2.043-2.476 0-1.883-1.689-2.397-4.047-2.397h-4.52v1.141c.827 0 1.063.353 1.063 1.373v3.968c0 1.809-1.063 1.494-1.063 1.494v1.14h4.363v-1.14c-.904 0-1.062-.63-1.062-1.376v-1.454h.865l2.791 3.97h6.837v-1.18c-1.022 0-1.1-.706-1.1-1.296V27.82c0-1.414 1.1-1.256 1.1-1.256m-10.531 2.829v-1.65c0-.866.276-1.18 1.1-1.18s1.884.314 1.884 1.337c0 1.139-.589 1.493-2.984 1.493m14.892-3.931h-3.929v1.062c.709 0 .984.274.984 1.53v3.813c0 1.886-.984 1.571-.984 1.571v1.14h3.419c2.397 0 5.854-.316 5.854-4.597 0-4.283-3.378-4.519-5.344-4.519m.157 7.936c-.982 0-.902-.745-.902-1.53v-3.892c0-1.178.235-1.452.941-1.452.709 0 2.793.274 2.793 3.418 0 3.142-1.847 3.456-2.832 3.456m-72.805 3.89h.219l.37 1.504h-.222s-.516-1.268-1.754-1.268-1.649 1.074-1.649 1.81c0 .737.324 1.827 1.576 1.827 1.254 0 1.841-.852 1.886-.91l.28.175s-.722 1.059-2.152 1.059-2.396-1.017-2.396-2.193c0-1.179 1.13-2.064 2.293-2.064.986 0 1.253.384 1.386.384.13 0 .147-.205.163-.324m60.439 0h.219l.369 1.504h-.221s-.517-1.268-1.755-1.268c-1.236 0-1.648 1.074-1.648 1.81 0 .737.324 1.827 1.576 1.827 1.254 0 1.841-.852 1.885-.91l.28.175s-.721 1.059-2.151 1.059-2.398-1.017-2.398-2.193c0-1.179 1.132-2.064 2.295-2.064.988 0 1.251.384 1.385.384.131 0 .148-.205.164-.324M80.982 37.2c-1.16 0-2.455.748-2.455 2.082 0 1.571 1.452 2.163 2.455 2.163 1.002 0 2.475-.728 2.475-2.083S82.24 37.2 80.982 37.2m-.04 3.91c-.766 0-1.61-.375-1.61-1.808s1.021-1.768 1.61-1.768c.845 0 1.71.472 1.71 1.788 0 1.475-.944 1.788-1.71 1.788m19.689-3.91c-1.158 0-2.457.748-2.457 2.082 0 1.571 1.454 2.163 2.457 2.163s2.475-.728 2.475-2.083-1.219-2.162-2.475-2.162m-.041 3.91c-.765 0-1.61-.375-1.61-1.808s1.023-1.768 1.61-1.768c.847 0 1.709.472 1.709 1.788 0 1.475-.941 1.788-1.709 1.788m11.771-3.91c-1.158 0-2.457.748-2.457 2.082 0 1.571 1.453 2.163 2.457 2.163s2.475-.728 2.475-2.083-1.219-2.162-2.475-2.162m-.04 3.91c-.766 0-1.613-.375-1.613-1.808s1.025-1.768 1.613-1.768c.846 0 1.71.472 1.71 1.788 0 1.475-.945 1.788-1.71 1.788m-40.003-1.72 1.061 1.335c.155.197.45.432.746.432v.176h-1.081l-1.494-1.905s.316-.098.768-.038m-5.305-2.161c-1.16 0-2.457.745-2.457 2.08 0 1.575 1.452 2.162 2.457 2.162 1.003 0 2.473-.728 2.473-2.081 0-1.355-1.215-2.162-2.473-2.162m-.04 3.907c-.766 0-1.61-.372-1.61-1.806 0-1.433 1.02-1.767 1.61-1.767.844 0 1.709.472 1.709 1.785 0 1.476-.944 1.788-1.71 1.788" fill="#006f68"/><path d="M71.69 37.288h-2.281v.254c.413 0 .61.139.61.571v2.493c0 .57-.61.551-.61.551v.176h1.826v-.176c-.43 0-.55-.215-.55-.59V39.51h.709c1.474 0 2.219-.433 2.219-1.142 0-.707-.923-1.079-1.924-1.079m-1.006 1.945v-1.101c0-.373.179-.53.534-.53.354 0 1.669-.138 1.669.746 0 .885-.629.885-2.203.885m5.881-1.946h-2.145v.254c.414 0 .61.139.61.571v2.493c0 .57-.61.551-.61.551v.176h1.827v-.176c-.43 0-.55-.215-.55-.59v-.927h.709c1.178 0 1.867-.467 1.867-1.175 0-.706-.705-1.177-1.708-1.177m-.869 2.08v-1.303c0-.374.179-.53.531-.53.354 0 1.395-.01 1.395.872 0 .786-.354.96-1.926.96m9.963-2.079h-2.279v.254c.414 0 .61.139.61.571v2.493c0 .57-.61.551-.61.551v.176h1.827v-.176c-.433 0-.55-.215-.55-.59V39.51h.708c1.474 0 2.22-.433 2.22-1.142 0-.707-.924-1.079-1.926-1.079m-1.003 1.945v-1.101c0-.373.179-.53.53-.53.355 0 1.672-.138 1.672.746 0 .885-.628.885-2.202.885" fill="#006f68"/><path d="M87.347 40.725a197 197 0 0 0-1.06-1.335 2 2 0 0 0-.767.038l1.493 1.905h2.28v-.197s-.826.12-.53-.61c.295-.726 1.137-2.71 1.137-2.71l1.2 2.77c.119.278.235.532-.47.532v.215h1.865v-.235s-.41.138-.745-.63a554 554 0 0 1-1.357-3.18h-.63s-1.373 3.063-1.531 3.399c-.158.332-.47.569-.885.038" fill="#006f68"/><path d="M88.88 39.545h2.065v.316H88.88zm48.474 1.142c.157-.336 1.53-3.399 1.53-3.399h.631s1.022 2.415 1.354 3.18c.335.768.747.63.747.63v.235h-1.867v-.215c.709 0 .59-.255.472-.532l-1.196-2.77s-.847 1.984-1.14 2.71c-.297.73.529.61.529.61v.197h-1.743v-.256s.504-.018.683-.39" fill="#006f68"/><path d="M138.002 39.545h2.062v.316h-2.062zm-45.78-1.118-.278-.079.334-1.06h3.46l.334 1.02-.296.12s-.41-.924-1.413-.924v3.004c0 .256-.02.61.569.61v.215h-1.866v-.215s.59.08.59-.591v-3.003c-.434 0-.944.018-1.434.903m3.948-.943v-.196h1.887v.196s-.61-.04-.61.569v2.455c0 .256-.02.59.61.59v.235h-1.926v-.197s.63.061.63-.61v-2.433c0-.392-.159-.61-.591-.61m28.628.001v-.196h1.886v.196s-.607-.04-.607.569v2.455c0 .256-.023.59.607.59v.235h-1.926v-.197s.63.061.63-.61v-2.433c0-.392-.158-.61-.59-.61m3.124.001v-.196h1.885v.196s-.61-.04-.61.569v2.455c0 .256-.018.59.61.59v.235h-1.924v-.197s.628.061.628-.61v-2.433c0-.392-.156-.61-.589-.61m2.143.001v-.196h1.885v.196s-.61-.04-.61.569v2.455c0 .256-.018.59.61.59v.235h-1.927v-.197s.631.061.631-.61v-2.433c0-.392-.159-.61-.589-.61m-26.881.001v-.196h1.514l2.239 3.2v-2.474c0-.334-.117-.53-.571-.53v-.196h1.612v.216s-.627-.117-.627.51v3.319h-.571l-2.555-3.497v2.672c0 .316.021.59.591.59v.235h-1.611v-.235s.608.1.608-.571v-2.492c0-.433-.256-.551-.629-.551m29.022 0v-.196h1.512l2.24 3.2v-2.474c0-.334-.12-.53-.569-.53v-.196h1.612v.216s-.632-.117-.632.51v3.319h-.567l-2.556-3.497v2.672c0 .316.02.59.592.59v.235h-1.612v-.235s.609.1.609-.571v-2.492c0-.433-.257-.551-.629-.551m-17.252.02v-.216h3.694l.471 1.002-.237.117s-.647-.883-1.944-.883c-.648 0-.706.332-.706.628v2.28c0 .332 0 .645.607.645v.256h-1.885v-.235s.609.1.609-.666v-2.339c0-.491-.275-.589-.609-.589" fill="#006f68"/><path d="M116.132 39.014h.649a.726.726 0 0 0 .726-.744h.197v1.75h-.197s-.018-.71-.726-.71h-.766zm9.766-.038h2.732v.275h-2.732z" fill="#006f68"/><defs><radialGradient id="paint0_radial_223_23580" cx="0" cy="0" r="1" gradientUnits="userSpaceOnUse" gradientTransform="rotate(60.534 -3.951 20.168)scale(20.2567 20.26)"><stop stop-color="#f0f6f5"/><stop offset="1" stop-color="#006f68"/></radialGradient><radialGradient id="paint1_radial_223_23580" cx="0" cy="0" r="1" gradientUnits="userSpaceOnUse" gradientTransform="rotate(60.534 -3.951 20.168)scale(20.2567 20.26)"><stop stop-color="#f0f6f5"/><stop offset="1" stop-color="#006f68"/></radialGradient><radialGradient id="paint2_radial_223_23580" cx="0" cy="0" r="1" gradientUnits="userSpaceOnUse" gradientTransform="rotate(60.534 -3.951 20.168)scale(20.2568 20.26)"><stop stop-color="#f0f6f5"/><stop offset="1" stop-color="#006f68"/></radialGradient><radialGradient id="paint3_radial_223_23580" cx="0" cy="0" r="1" gradientUnits="userSpaceOnUse" gradientTransform="rotate(60.534 -3.951 20.168)scale(20.2567 20.26)"><stop stop-color="#f0f6f5"/><stop offset="1" stop-color="#006f68"/></radialGradient><radialGradient id="paint4_radial_223_23580" cx="0" cy="0" r="1" gradientUnits="userSpaceOnUse" gradientTransform="rotate(60.534 -3.951 20.168)scale(20.2566 20.26)"><stop stop-color="#f0f6f5"/><stop offset="1" stop-color="#006f68"/></radialGradient></defs></svg>