<svg width="46" height="46" fill="none" xmlns="http://www.w3.org/2000/svg"><path d="m8.717 9.186-.428-.411.214-.222q.002.182-.031.32.303-.03.39-.02t.156.02zm-.741 1.435.264-.289 1.21-1.259.296-.29-.34-.327-.224.248q-.01-.164-.014-.304l-.155.003-.215.01q-.053.001-.155-.005l.244-.227-.352-.338-.193.212-.387.401-.31-.3.404-.421.285-.266-.356-.342-.281.308-1.15 1.196-.275.267.35.339.255-.287.398-.413.313.3-.317.331-.273.27.346.334.258-.284.318-.33.427.412-.429.447-.283.277zm-2.35-1.429 2.135 2.056.36.366.374-.39-.044-.042 1.874-1.946.067.065.381-.398-.379-.343-2.156-2.078-.337-.343-.296.33-2.014 2.09-.321.31zm.378-.366L7.877 6.88l2.105 2.027-1.873 1.946zm7.035-2.609q.314-.468.462-.777a.4.4 0 0 0-.081-.066q-.227.365-.415.636a6 6 0 0 1-.61.692 3 3 0 0 0-.161-.121 3 3 0 0 0-.293-.172 4 4 0 0 0 .361-.304q.15-.143.342-.389.195-.245.353-.521l-.065-.015q-.237.262-.364.388-.132.125-.43.394-.078-.063-.144-.113a3 3 0 0 0-.32-.188q.18-.119.48-.34.302-.223.674-.739l-.578.302-.337.187-.22-.423.346-.167 1.644-.856.373-.207.222.423-.384.187-.582.302q.105.02.224.037l-.289.443q.252.036.317.071l.131.068q.296-.552.335-.67l.1-.284q.095.04.174.063.075.023.407.069-.18.318-.315.564.1.1.309.285.208.185.572.267.364.08.717.046a5 5 0 0 0-.063.264c-.012.068-.03.183-.041.345q-.51-.033-.785-.132a2 2 0 0 1-.494-.247 3.4 3.4 0 0 1-.477-.405l-.102.153q.068.095.12.175.053.081.18.317.122.234.168.402a.6.6 0 0 1-.014.351q-.06.185-.53.436a2.5 2.5 0 0 0-.253-.278l-.167-.132q.337-.11.384-.205.05-.093 0-.218a2 2 0 0 0-.083-.195l-.023-.047a7 7 0 0 1-.369.59 5 5 0 0 1-.414.534l-.418.46a2 2 0 0 0-.275-.185l-.211-.109q.592-.477.912-.946m-1.817-1.019-.098-.214-.226-.433-.158-.278.45-.216 1.06-.55a2.4 2.4 0 0 0-.315-.088q.07-.078.117-.144.05-.067.194-.301c.251.058.44.104.558.138a1 1 0 0 0-.06.137l1.133-.59.41-.23.134.287.229.436.123.215-.5.263-.107-.226-.147-.282-2.553 1.335.141.274.119.205zm6.981-3.231.839-.128.08.51-.84.13zm-.559-.038.264 1.707.058.456.552-.084-.012-.067.84-.129.099.645q.025.151.068.238.048.087.183.141.139.054.393.016.254-.039.664-.091.422-.052.625-.094a1 1 0 0 0 .3-.1.5.5 0 0 0 .167-.165q.071-.111.136-.587a3 3 0 0 1-.572-.176v.177q.003.176-.07.256a.4.4 0 0 1-.204.113 3 3 0 0 1-.443.075l-.484.064q-.158.016-.203-.025a.2.2 0 0 1-.053-.099l-.07-.471.955-.147.015.082.553-.084-.082-.437-.267-1.741-.047-.392-.354.071-1.158.178-.035-.25-.045-.354-.555.084.065.352.04.25-.978.15-.42.05zm.71 1.023.84-.13.077.503-.84.128zm1.223-1.196.956-.147.081.511-.959.147zm.15.985.958-.148.078.503-.958.148zm5.429-.736.086.172q.037.075.223.518a2 2 0 0 1-.25.392q-.12.133-.291.275zm-.427 2.55.09-.584.093-.54q.142.197.185.278.044.08.085.163a6 6 0 0 0 .37-.383q.08-.1.135-.174l.036.13q.01.037.027.19l.118-.079q.105-.071.376-.164-.113-.347-.227-.66l.071-.144q.04-.076.146-.34.168.298.207.376c.023.053.069.172.125.356l-.102.174q-.104.186-.26.36-.154.171-.417.347.202.163.262.23t.13.158q.146-.114.24-.21.093-.097.391-.453l.075.262q.01.035.047.237a4 4 0 0 1 .478-.308l-.05-.157-.233-.616.11-.267a6 6 0 0 0 .148-.401l.087-.26q.013-.044.043-.13a4 4 0 0 1-.533-.168l-.024.141a3 3 0 0 1-.122.433q-.087-.181-.159-.323l-.11.069q-.096.06-.317.12l.086-.227.037-.109.062-.171a3 3 0 0 1-.521-.19l-.039.178a2 2 0 0 1-.055.213q-.033.097-.074.208a9 9 0 0 1-.174-.379q-.195.115-.263.135l-.137.038.104-.608 2.493.427-.445 2.606a.2.2 0 0 1-.05.118q-.039.038-.202.008a2 2 0 0 1-.291-.079l.041.154q.06.221.053.329l-.008.171q.427.046.627.012.199-.035.252-.149a.8.8 0 0 0 .076-.252l.482-2.808.104-.537-.531-.075-2.542-.436-.54-.107-.078.54-.455 2.647-.112.581zm6.231-.153a3 3 0 0 0-.106-.499l-.053-.139q.287.034.667-.066.377-.097.718-.26t.596-.387l.104-.092q.164.283.373.496-.425.254-.72.422-.293.165-.752.307a9 9 0 0 1-.827.218m-.062.942q.137-.025.361-.108.224-.078.47-.193a4.3 4.3 0 0 0 .793-.506l.09-.081q.152.31.347.588l-.2.093-.353.174q-.255.12-.51.22a7 7 0 0 1-.619.207q.764.386 1.507.747a7 7 0 0 0-.054-.467l-.058-.288q.345.04.456.02l.117-.018q.142 1.01.204 1.64a28 28 0 0 0-.481.07l-.164.04q.007-.1.01-.18A4 4 0 0 0 32.803 7q-.378-.18-1.094-.492a32 32 0 0 0-.884-.375 3 3 0 0 0-.391-.123q.071-.33.063-.472l-.012-.16q.28-.008.414-.034m2.849-1.995q.23.17.518.312a1.7 1.7 0 0 0-.158.324 2.6 2.6 0 0 0-.08.401q-.038.293.048.545.085.25.155.384.07.131.129.216.061.084.257.269c-.06.025-.114.052-.171.078q-.081.04-.405.269a3 3 0 0 1-.38-.668 2.4 2.4 0 0 1-.165-.629 2.5 2.5 0 0 1 .002-.548q.028-.26.072-.421.041-.162.178-.532m2.774 5.642.44-.41.807.866-.44.41zm2.404-.21-1.289-1.385-.332-.38-.383.359.355.358 1.29 1.384.369.418.384-.356zm-.838-1.522 1.74 1.87-2.008 1.867q-.091.084-.146.089-.05.002-.145-.094a3 3 0 0 1-.112-.125l-.144-.168-.068.164q-.057.135-.125.224a4 4 0 0 1-.129.16q.396.37.572.436.179.065.254.04a.7.7 0 0 0 .225-.16l2.227-2.073.355-.308-.355-.356-1.773-1.907-.388-.437-.39.363zm-1.409.868-.567.525-.332.282.316.318.918.985.32.367.307-.31.565-.527.31-.261-.346-.346-.916-.985-.293-.34zM5.18 15.604l.123.12-.11.24-.946-.167.018-.313q.345-.01.6-.15a.8.8 0 0 0 .362-.369.5.5 0 0 0 .047-.32.29.29 0 0 0-.165-.203q-.218-.098-.677.473l-.104.124q-.335.406-.608.495-.274.09-.616-.066-.455-.208-.608-.603-.151-.396.05-.835a1.5 1.5 0 0 1 .532-.62l-.16-.124.11-.234 1.199.183-.022.35a1.8 1.8 0 0 0-.787.148.9.9 0 0 0-.45.432.54.54 0 0 0-.04.38.36.36 0 0 0 .2.255q.226.102.641-.386l.083-.1q.203-.24.336-.373.136-.133.216-.177a.8.8 0 0 1 .37-.09q.197 0 .394.09a.96.96 0 0 1 .53.553 1 1 0 0 1-.044.775 1.2 1.2 0 0 1-.193.292q-.12.126-.281.22m-.254.956-.67 2.225-1.012.031-.034-.295q.388-.053.583-.185a.7.7 0 0 0 .271-.393l.012-.041-1.665-.504q-.353-.104-.468-.068-.115.037-.177.219l-.37-.112.403-1.338.37.113q-.05.19.022.286c.05.063.19.13.429.2l1.667.503.013-.04a.74.74 0 0 0-.007-.483q-.088-.216-.385-.476l.192-.224zm-2.535 3.556.09-.56.841.438zm-.389-1.314q-.019-.008-.05-.027-.405-.225-.405-.523l-.381-.061-.183 1.158.373.06q.031-.173.091-.233.061-.06.179-.04.019.002.042.009l.047.015.407.185-.134.853-.447.078-.062.005q-.036-.001-.077-.008-.095-.011-.128-.083-.032-.065-.008-.212l.004-.033-.37-.058-.212 1.35.379.059q.069-.236.459-.307l.02-.004 2.408-.415.1-.635zm1.806 2.816-.04 2.322-.967.307-.113-.273q.364-.16.51-.341a.68.68 0 0 0 .156-.448l.001-.045-1.74-.032q-.367-.006-.469.06-.1.066-.11.26l-.386-.007.025-1.397.386.006q.002.198.099.27.096.07.468.078l1.739.03v-.042a.7.7 0 0 0-.137-.463q-.142-.184-.496-.354l.121-.265zm-.047 2.53.295 2.317-.882.494-.184-.236a1.8 1.8 0 0 0 .47-.557q.14-.289.1-.605-.022-.187-.102-.24-.077-.057-.33-.024l-.446.057.02.136q.029.217.13.28.101.062.396.04l.037.297-1.401.178-.037-.295q.274-.064.388-.17a.32.32 0 0 0 .088-.28l-.018-.134-.722.092q-.25.032-.313.106-.064.075-.037.263.038.318.305.598.265.277.695.45l-.129.29-1.119-.287-.305-2.374.383-.048q.03.193.137.246c.066.035.228.04.477.008l1.189-.153q.378-.047.464-.128c.06-.053.08-.143.07-.274zm1.226 5.898.142.015.09.252-.913.6-.238-.264q.337-.33.45-.588a.66.66 0 0 0 .023-.502q-.109-.307-.461-.369-.349-.064-.9.131-.542.192-.765.453a.54.54 0 0 0-.118.57q.087.243.274.34a.52.52 0 0 0 .419.018q.159-.058.202-.159.045-.101-.014-.285l.35-.122.44 1.239-.349.124c-.07-.112-.142-.175-.212-.199q-.107-.029-.339.055l-.78.276-.143-.397.205-.192a1.25 1.25 0 0 1-.55-.686 1.11 1.11 0 0 1 .12-1.027q.315-.482 1.028-.735.667-.236 1.226-.008.556.233.764.819.052.147.064.3.011.155-.015.34m.242 2.196q.217-.117.31-.093.096.022.192.199.138.249.103.456a.42.42 0 0 1-.229.312.41.41 0 0 1-.42.008q-.2-.112-.39-.465a2 2 0 0 1-.074-.14zm-.17-1.125q.093.181.037.286-.052.108-.38.287l-1.06.578q-.324.173-.44.162-.119-.013-.222-.187l-.34.185.674 1.235.338-.186q-.088-.179-.037-.285.057-.108.377-.283l.345-.19.136.25L3.73 34.4l.431.791.33-.181a.6.6 0 0 1-.052-.264.7.7 0 0 1 .08-.283l.414-.871q.25.24.505.285.253.04.534-.112.377-.205.425-.56.05-.354-.23-.862l-.77-1.41zM6.91 33.6l.826 1.158-.314.223q-.121-.16-.247-.16-.122 0-.421.212l-.98.7q-.3.208-.34.328-.038.113.07.285l-.313.224-.824-1.16.313-.223q.126.16.248.161.122 0 .42-.212l.982-.696q.3-.215.34-.33.038-.116-.072-.288zm.955 2.531q.194-.175.284-.175.088.001.214.136a.77.77 0 0 1 .201.686c-.049.254-.21.508-.482.754q-.408.372-.797.409a.76.76 0 0 1-.663-.264q-.121-.132-.116-.224.004-.09.199-.261zm-.416-1.04q.122.143.098.253-.025.115-.309.372l-.888.808q-.282.259-.395.272-.116.013-.246-.12l-.285.258.928 1.02q.533.583 1.112.622.577.038 1.137-.474.562-.51.577-1.09c.01-.385-.163-.775-.516-1.162l-.928-1.02zm5.011 4.169.147-.127.184.128-.357 1.158-.301-.087q.099-.417.021-.75-.072-.331-.295-.487-.285-.198-.643-.049-.357.145-.673.606c-.21.303-.32.586-.32.842q-.004.387.308.602a.85.85 0 0 0 .534.142c.212-.004.425-.064.634-.17l.189.335q-.467.274-.888.279a1.36 1.36 0 0 1-.813-.268c-.37-.254-.576-.582-.627-.985-.054-.402.065-.806.348-1.217q.404-.58 1-.72a1.35 1.35 0 0 1 1.357.448q.105.135.195.32m2.308 1.824q.036.379-.218.907-.253.528-.57.738-.312.206-.625.057-.318-.149-.35-.526c-.023-.252.051-.55.22-.904q.254-.532.567-.74.316-.212.631-.06.311.15.345.528m-1.364-.952q-.572.224-.889.885-.32.66-.134 1.25.186.587.799.882.608.29 1.187.07.574-.226.892-.886.319-.663.133-1.25-.187-.588-.797-.88-.617-.299-1.191-.07m3.443 1.877q.07-.237.154-.285.086-.052.278.004.272.083.395.248c.08.115.1.24.06.385a.41.41 0 0 1-.292.3q-.221.064-.605-.049l-.094-.03-.056-.018zm-.914-.674q.191.06.228.175.041.113-.068.474l-.338 1.154q-.105.356-.197.428-.092.075-.287.027l-.11.37 1.35.394.108-.37q-.19-.06-.229-.175c-.025-.078-.001-.23.066-.467l.11-.377.271.078.48 1.546.866.256.107-.362a.7.7 0 0 1-.226-.145.8.8 0 0 1-.144-.26l-.325-.91q.35-.004.559-.154t.299-.459q.122-.41-.096-.694-.215-.285-.774-.447l-1.542-.452zm4.002 1.384c.021-.16.055-.265.096-.306q.065-.066.22-.047a.52.52 0 0 1 .357.19.55.55 0 0 1 .08.402q-.036.266-.214.38-.179.11-.494.07l-.082-.012-.052-.012zm-.99-.53q.187.03.238.133.054.101.004.484l-.162 1.186q-.052.38-.13.465-.077.082-.267.064l-.05.382 1.36.185.052-.381q-.188-.032-.24-.139-.051-.105 0-.478l.04-.32.485.067q.517.07.803-.118.285-.19.349-.632.06-.46-.178-.734c-.162-.18-.417-.296-.775-.346l-1.475-.2zm4.744.596q.2.321.21.908.011.586-.175.915-.189.327-.535.335-.351.005-.551-.316-.196-.318-.209-.906-.011-.588.178-.917.184-.328.535-.334.344-.008.547.315m-1.647-.239q-.412.46-.399 1.19.012.734.442 1.174.428.445 1.11.434.674-.014 1.09-.47.416-.46.401-1.193t-.442-1.174c-.288-.297-.655-.44-1.11-.432q-.681.012-1.092.471m3.918.131q-.046-.243.008-.325.052-.086.25-.12.28-.052.464.043.186.096.226.314a.4.4 0 0 1-.126.402c-.11.102-.299.18-.559.228l-.098.017-.061.007zm-1.122-.19q.199-.031.284.053t.153.453l.22 1.182q.065.366.018.472-.051.106-.246.154l.07.379 1.382-.258-.071-.377q-.197.03-.283-.055-.085-.083-.151-.447l-.073-.385.28-.053 1.125 1.164.887-.161-.069-.372a.6.6 0 0 1-.268-.03.7.7 0 0 1-.244-.165l-.7-.664q.307-.162.427-.392.12-.226.06-.544-.075-.421-.398-.575-.32-.158-.892-.05l-1.58.29zm4.971.048-.535.189-.015-.949zm-.975.966v.06c-.001.308-.095.508-.27.603l.128.365 1.108-.389-.126-.356q-.167.053-.247.03-.081-.028-.12-.139l-.01-.04-.01-.05-.03-.447.813-.285.282.356q.018.025.033.054.018.03.031.069.033.09-.013.15-.043.06-.183.111l-.032.012.126.354 1.288-.452-.125-.367q-.245.054-.492-.257l-.01-.014-1.51-1.923-.605.213zm1.673-2.945 2.068-1.066.724.702-.187.23q-.31-.242-.54-.287a.7.7 0 0 0-.472.079l-.037.02.799 1.546c.113.215.203.346.273.381q.106.058.282-.023l.177.34-1.244.643-.175-.342c.114-.067.18-.139.19-.217q.015-.117-.152-.448l-.799-1.547-.04.02a.7.7 0 0 0-.34.341c-.065.143-.088.344-.077.608l-.29.02zm2.312-1.239 1.18-.793.216.32q-.165.12-.168.242-.001.123.2.43l.671.999q.204.303.317.348.114.041.29-.063l.216.318-1.184.793-.211-.32q.16-.12.165-.244.003-.12-.2-.428l-.67-.998q-.206-.307-.318-.348-.116-.043-.288.062zm3.304-1.7q.36.12.745.563.383.442.45.814.068.373-.196.598-.262.23-.622.112c-.238-.076-.484-.266-.742-.56q-.386-.448-.455-.817-.066-.372.196-.599.262-.229.624-.11m-1.417.875q-.02.618.458 1.169c.323.367.684.574 1.094.617q.616.064 1.127-.381.512-.445.535-1.062t-.458-1.17q-.479-.554-1.094-.618-.614-.061-1.125.381-.515.45-.538 1.064m1.793-2.075.768-.923 1.998.395-.64-.535c-.194-.159-.327-.242-.407-.252-.078-.005-.162.037-.25.135L37.679 35l.676-.808.295.248q-.121.153-.09.271.03.115.318.356l1.66 1.383-.328.393-2.693-.519 1.113.929q.286.237.403.248.12.013.252-.135l.29.242-.675.81-.297-.247q.122-.16.092-.275-.033-.116-.319-.352l-.921-.768q-.287-.238-.405-.25-.122-.011-.256.14zm4.053-4.792q.38-.026.904.242.518.265.722.586.2.32.043.63-.16.312-.537.335-.375.026-.9-.243-.524-.267-.724-.586-.202-.32-.043-.63.157-.31.535-.334m-.985 1.338q.209.582.862.914.652.333 1.245.164.593-.168.903-.776.308-.6.098-1.184-.21-.58-.861-.914-.653-.334-1.248-.164-.59.172-.899.776-.312.605-.1 1.184m.86-2.555.755-2.245.983-.104.048.281a1.6 1.6 0 0 0-.622.303 1.1 1.1 0 0 0-.342.512q-.07.195-.023.29.046.094.287.173l.413.14.042-.124q.076-.237.013-.352-.065-.116-.331-.219l.085-.252 1.371.461-.086.252q-.267-.06-.423 0a.37.37 0 0 0-.219.248l-.041.122.492.165q.345.119.465.08.114-.038.19-.232l.366.125-.46 1.368-.366-.121q.06-.2-.012-.301-.067-.099-.42-.219l-1.14-.381q-.35-.119-.463-.079-.113.035-.195.232zm1.484-5.67-.184-.072.028-.22 1.19-.225.067.307q-.419.11-.677.33-.26.22-.291.489-.046.346.254.593.297.245.85.311.552.071.894-.108.345-.175.39-.555a.87.87 0 0 0-.123-.537 1.46 1.46 0 0 0-.445-.482l.207-.322q.462.284.662.657t.142.844q-.081.662-.58 1.012-.496.349-1.24.258-.702-.085-1.105-.549a1.34 1.34 0 0 1-.324-1.087q.02-.164.09-.323a1.7 1.7 0 0 1 .195-.32m-.033-.721-.05-1.396.368-.014q.014.195.12.256.103.064.476.051l.314-.012-.04-1.068-.313.012q-.377.014-.477.085-.097.073-.097.268l-.37.013-.052-1.396.385-.014q.014.196.113.264.097.063.48.05l1.2-.047q.372-.016.466-.087.093-.073.092-.271l.386-.016.053 1.397-.371.014q-.012-.193-.115-.258-.1-.063-.476-.05l-.52.022.042 1.067.519-.02q.377-.016.473-.087.094-.07.093-.265l.371-.014L45 23.9l-.383.016q-.016-.198-.115-.265-.1-.067-.472-.052l-1.2.046q-.373.016-.47.088-.097.075-.097.272zm-.18-3.239-.23-1.402.379-.062q.04.198.152.252.11.053.472-.006l1.186-.194q.363-.059.45-.146.086-.086.064-.287l.38-.063.23 1.403-.38.063q-.04-.2-.152-.254t-.471.004l-1.19.197q-.362.059-.45.145-.085.089-.06.287zm-.201-1.461-.33-1.155 1.451-1.428-.804.228q-.356.104-.432.195-.078.09-.033.281l-.358.102-.289-1.01.37-.107q.061.189.175.229.112.039.474-.062L43.798 16l.142.496-1.948 1.93 1.393-.397c.24-.069.384-.131.435-.195q.074-.089.03-.28l.361-.101.29 1.01-.37.105q-.064-.189-.178-.228-.112-.04-.47.063l-1.155.328q-.354.102-.433.195-.076.095-.03.289zm.025-4.873.235.517-.945.097zm1.05.885.058-.005q.457-.035.623.215l.353-.16-.486-1.069-.342.157q.067.163.049.244-.018.083-.127.132-.016.007-.039.014-.022.008-.049.014l-.44.068-.358-.784.33-.311a.5.5 0 0 1 .116-.074q.09-.042.153-.002.065.038.123.173l.016.032.344-.157-.567-1.245-.352.16q.076.237-.21.51l-.018.012-1.783 1.672.265.585z" fill="#006f68"/><path d="M17.969 33.224a28 28 0 0 1-3.237-.617c.996 2.551 2.453 4.58 4.21 5.79-2.244-1.205-4.117-3.367-5.411-6.137-2.32-.724-4.332-1.739-5.88-2.968 2.434 5.98 8.301 10.194 15.157 10.194q.669-.001 1.326-.056c-2.496-.515-4.695-2.834-6.165-6.206" fill="url(#paint0_radial_224_23728)"/><path d="M13.332 22.548a26 26 0 0 0 .076 4.421q1.426.44 2.995.723c-.2-1.28-.32-2.624-.335-4.012-.08-7.31 2.623-13.502 6.386-15.433-3.294 2.82-5.298 8.686-4.81 15.292.115 1.545.36 3.033.713 4.434 1.121.121 2.28.184 3.467.174 8.303-.065 15.237-3.464 17.07-7.974-1.341-7.325-7.56-12.945-15.17-13.366-5.254.315-9.822 7.114-10.392 15.74" fill="url(#paint1_radial_224_23728)"/><path d="M23.27 29.55a29 29 0 0 1-4.561-.32q.43 1.372.992 2.601c1.123.13 2.286.201 3.476.201 6.206 0 11.663-1.88 14.793-4.719-2.706 3.626-8.911 6.163-16.139 6.163q-.653-.002-1.298-.03c1.692 2.918 3.966 4.93 6.444 5.504 6.932-1.82 12.062-8.072 12.183-15.545-2.736 3.574-8.812 6.09-15.89 6.145" fill="url(#paint2_radial_224_23728)"/><path d="M12.643 29.98a21 21 0 0 1-.687-2.77c-1.71-.833-3.146-1.851-4.208-3.009 1.144.864 2.526 1.611 4.082 2.221a24.8 24.8 0 0 1-.165-5.448c.43-5.467 2.554-10.209 5.527-13.205-6.269 2.29-10.745 8.305-10.745 15.365 0 .684.049 1.356.127 2.016 1.166 1.945 3.303 3.619 6.069 4.83" fill="url(#paint3_radial_224_23728)"/><path d="M13.52 27.885c.132.92.313 1.81.538 2.659 1.017.36 2.1.662 3.236.898a23 23 0 0 1-.689-2.615 23 23 0 0 1-3.084-.942" fill="url(#paint4_radial_224_23728)"/><path d="M5.19 23.134c0 9.712 7.903 17.612 17.618 17.612s17.618-7.9 17.618-17.612c0-9.71-7.904-17.613-17.618-17.613-9.715 0-17.619 7.902-17.619 17.613m.257 0c0-9.57 7.789-17.354 17.36-17.354 9.573 0 17.36 7.783 17.36 17.354S32.38 40.49 22.808 40.49c-9.571 0-17.36-7.785-17.36-17.356" fill="#006f68"/><defs><radialGradient id="paint0_radial_224_23728" cx="0" cy="0" r="1" gradientUnits="userSpaceOnUse" gradientTransform="rotate(60.534 -4.075 20.478)scale(19.6799 19.6831)"><stop stop-color="#f0f6f5"/><stop offset="1" stop-color="#006f68"/></radialGradient><radialGradient id="paint1_radial_224_23728" cx="0" cy="0" r="1" gradientUnits="userSpaceOnUse" gradientTransform="rotate(60.534 -4.075 20.478)scale(19.6798 19.683)"><stop stop-color="#f0f6f5"/><stop offset="1" stop-color="#006f68"/></radialGradient><radialGradient id="paint2_radial_224_23728" cx="0" cy="0" r="1" gradientUnits="userSpaceOnUse" gradientTransform="rotate(60.534 -4.075 20.478)scale(19.6799 19.6831)"><stop stop-color="#f0f6f5"/><stop offset="1" stop-color="#006f68"/></radialGradient><radialGradient id="paint3_radial_224_23728" cx="0" cy="0" r="1" gradientUnits="userSpaceOnUse" gradientTransform="rotate(60.534 -4.075 20.478)scale(19.6799 19.6831)"><stop stop-color="#f0f6f5"/><stop offset="1" stop-color="#006f68"/></radialGradient><radialGradient id="paint4_radial_224_23728" cx="0" cy="0" r="1" gradientUnits="userSpaceOnUse" gradientTransform="rotate(60.534 -4.075 20.478)scale(19.6797 19.683)"><stop stop-color="#f0f6f5"/><stop offset="1" stop-color="#006f68"/></radialGradient></defs></svg>