<svg width="46" height="46" fill="none" xmlns="http://www.w3.org/2000/svg"><path d="M44 23.5a21.5 21.5 0 1 1-43 0 21.5 21.5 0 0 1 43 0m-1.286-.001a20.215 20.215 0 1 0-40.43 0 20.215 20.215 0 0 0 40.43 0" fill="#d6000f"/><path d="M41.823 23.492a19.323 19.323 0 1 1-38.645 0 19.323 19.323 0 0 1 38.645 0m-.787 0a18.534 18.534 0 1 0-37.068 0 18.534 18.534 0 0 0 37.068 0" fill="#d6000f"/><path d="M20.64 33.573c-1.214 1.614-3.288 2.2-5.275 2.213q-2.96.02-5.932.011a.05.05 0 0 1-.048-.032l-.003-.02.005-1.472a.06.06 0 0 1 .06-.06q2.827.005 6.169-.003.455 0 .975-.092c2.887-.516 3.771-2.763 3.773-5.39q.004-11.157 0-21.459a.2.2 0 0 1 .07-.144l1.447-1.176a.04.04 0 0 1 .043-.005.04.04 0 0 1 .017.015.04.04 0 0 1 .006.022q.004 11.219-.002 23.025c-.001 1.567-.35 3.295-1.305 4.567m4.254-2.698c.626 2.448 2.47 3.342 4.878 3.341q2.906-.001 5.785.002a.055.055 0 0 1 .056.056v1.47a.05.05 0 0 1-.052.052 784 784 0 0 1-5.806-.003q-1.917-.009-3.444-.679c-2.59-1.138-3.251-3.874-3.252-6.439q-.005-11.145-.001-22.69a.045.045 0 0 1 .073-.036l1.44 1.174a.2.2 0 0 1 .071.153q-.015 10.976.006 21.878 0 .76.246 1.721" fill="#d6000f"/><path d="M27.83 30.788c.564.711 1.581.869 2.433.879q2.47.027 5.27.003.078 0 .078.077v1.445q0 .062-.06.062-2.882.032-5.398-.003c-1.756-.025-3.484-.492-4.14-2.291q-.424-1.165-.423-2.611.009-9.96.007-20.3a.044.044 0 0 1 .072-.033l1.406 1.15a.28.28 0 0 1 .102.215q.008 9.589.005 18.995c0 .778.15 1.784.647 2.412m-12.741 2.451c-1.85.063-3.75.02-5.64.03a.07.07 0 0 1-.069-.07l.01-1.45q0-.075.075-.075 2.443-.006 4.937.003c1.459.006 2.835-.227 3.244-1.876q.178-.724.18-1.368.012-9.603.003-19.044a.3.3 0 0 1 .107-.228l1.386-1.13a.054.054 0 0 1 .09.042l-.002 20.347q0 .828-.19 1.781c-.447 2.231-2.047 2.965-4.132 3.038" fill="#d6000f"/><path d="M14.522 29.116c.608-.003.775-.341.776-.896q.013-8.438.01-16.85a.14.14 0 0 1 .051-.107l1.428-1.17a.05.05 0 0 1 .055-.007q.014.006.021.02l.008.027q-.01 9.013-.038 17.899c-.006 1.848-.774 2.67-2.614 2.674q-2.498.004-4.783.002a.055.055 0 0 1-.055-.056l.008-1.479a.05.05 0 0 1 .052-.052q2.691.01 5.081-.005m15.272-.376c.11.357.56.38.866.382q2.304.006 4.916 0 .015 0 .025.01t.01.024l.002 1.499a.05.05 0 0 1-.015.036.05.05 0 0 1-.035.015q-2.391.003-4.877 0-.462-.002-.907-.107c-1.413-.336-1.61-1.533-1.614-2.772q-.022-8.911-.027-17.709 0-.012.006-.022a.042.042 0 0 1 .061-.01l1.399 1.14a.26.26 0 0 1 .097.205q.003 8.04-.002 16.644 0 .36.095.665" fill="#d6000f"/></svg>