<svg width="361" height="46" fill="none" xmlns="http://www.w3.org/2000/svg"><g clip-path="url(#clip0_223_23566)"><path d="M1.632.023 0 6.386h15.118L9.571 28.574l-4.078 16.37h9.897l4.079-16.37 5.547-22.188H40.08L41.657.023zm302.148.49c-.805 3.306-1.544 5.887-2.284 8.103h-3.697l1.196-.762c2.062-1.337 3.078-2.025 3.1-2.12-1.101-2.487-2.032-4.203-2.882-5.058-.024-.155-1.595.805-4.623 2.774l-1.033.652c.022.048.146.233.38.544 1.066 1.385 1.967 2.69 2.665 3.97h-3.045l-.979 4.568h6.852l-.489.925-.49.924h-7.396l-.925 4.569h5.112a25.8 25.8 0 0 1-7.776 6.417l4.785-22.84h-13.215l-4.948 23.601a44 44 0 0 1-.436 1.795c-1.15 4.566-2.862 8.662-5.166 12.29a20.4 20.4 0 0 1 3.48 3.97c2.769-3.95 4.945-9.008 6.581-15.227h2.882l-1.632 7.723c-.128 1.057-1.203 1.533-3.154 1.36.407 1.89.581 3.782.435 5.764 4.71-.03 7.088-1.092 7.179-3.263l2.665-12.617.162-.87q.425.42.816.87c.635.748 1.129 1.484 1.469 2.23.722-.357 1.579-.905 2.555-1.74l-1.74 5.655h15.826l-.273 1.468c-.626 3.054-1.507 4.538-2.61 4.35l.87-4.35H287.03l-.98 4.514h13.814c.79 1.703 1.127 3.448.979 5.275 4.407-.143 7.106-.822 8.157-2.066.329-.364.674-.994 1.033-2.067.72-2.156 1.564-5.308 2.611-9.463l.598-2.392h-5.873l.326-1.415.435-2.174a30 30 0 0 0 2.774 2.175c.594.407 1.118.718 1.577.924.252-.315.511-.626.761-.924 1.515-1.838 2.952-3.37 4.297-4.623-3.546-1.009-6.143-2.458-7.777-4.35h7.777l.924-4.569h-13.976c.374-.548.722-1.137.979-1.848h11.529l.924-4.569h-4.132c1.805-1.764 3.393-3.215 4.839-4.35l-4.839-2.991a67 67 0 0 1-5.058 5.764l2.937 1.795h-4.188l.599-1.904.761-1.903c.635-1.603 1.157-2.822 1.523-3.59.035-.315-.172-.474-.816-.543-1.22-.192-3.137-.318-5.765-.38m29.258.38c-1.475.49-3.768 1.384-6.961 2.72a54 54 0 0 1 2.23 8.592c1.129-.429 3.578-1.27 7.287-2.61-1.546-5.57-2.432-8.482-2.556-8.701m5.384 2.448-1.142 5.275h4.35l-2.066 9.843h-5.439l-1.142 5.275h5.493l-1.033 4.84-3.318 15.717h6.091l3.264-15.717 1.033-4.84h4.35l-.87 3.97c-.063.293-.109.581-.163.87-1.114 5.832-.541 10.393 1.686 13.65 1.357 1.93 2.995 2.746 4.949 2.448 2.022.104 4.048-3.161 6.036-9.79a232 232 0 0 0-4.949-2.175c-.987 3.037-1.601 4.022-1.849 2.937-.389-1.548-.308-3.904.218-7.07.17-1.022.387-2.12.653-3.317l4.622-21.916zm-90.329.544-2.066 8.375h-7.941l-1.522 6.2h29.04zm35.022 3.97h2.882l-1.36 6.47h-2.827zm64.552.761h4.568l-2.066 9.843h-4.568zM53.023 10.411c-6.035 0-11.268 1.577-15.717 4.73-4.424 3.2-7.298 7.393-8.592 12.563-.076.303-.157.574-.217.87-.994 4.802-.113 8.717 2.665 11.693 2.96 3.132 7.528 4.676 13.704 4.676 10.526 0 18.594-6.421 19.414-7.123l-4.568-1.034c-1.074.248-6.926 1.943-12.78 1.414-7.385-.663-9.06-6.07-8.646-8.755h29.638l.272-.87.218-.925c1.344-5.39.632-9.63-2.121-12.671-2.777-3.067-7.175-4.568-13.27-4.568m87.828 0c-6.35 0-12.093 1.646-17.294 5.003-5.21 3.359-8.406 7.52-9.626 12.4-.067.267-.165.497-.217.76-.911 4.53.296 8.36 3.589 11.475 3.493 3.267 8.438 4.895 14.846 4.895 3.883 0 7.958-.805 12.236-2.393l2.502-9.952c-2.845 2.19-5.232 3.646-7.124 4.406-1.953.782-4.066 1.196-6.363 1.196-3.6 0-6.324-.966-8.157-2.937-1.623-1.775-2.204-4.029-1.74-6.69.051-.292.141-.567.217-.87.75-2.996 2.556-5.515 5.438-7.504 2.876-1.988 6.132-2.991 9.734-2.991 2.296 0 4.153.39 5.656 1.196 1.532.781 3.137 2.247 4.786 4.35l2.502-10.06c-3.243-1.543-6.902-2.284-10.985-2.284m35.838 0c-6.037 0-11.27 1.577-15.717 4.73-4.426 3.2-7.3 7.393-8.592 12.563-.077.303-.155.574-.218.87-.996 4.802-.117 8.717 2.665 11.693 2.956 3.132 7.531 4.676 13.705 4.676 10.521 0 18.596-6.421 19.414-7.123l-4.568-1.034c-1.075.248-6.926 1.943-12.78 1.414-7.383-.663-9.064-6.07-8.647-8.755h29.639l.272-.87.217-.925c1.349-5.39.683-9.63-2.066-12.671-2.776-3.067-7.227-4.568-13.324-4.568m-77.115.924c-4.193 0-8.294 1.296-12.29 3.916l-8.865-2.991-4.078 16.314-4.08 16.37h9.627l3.915-15.771c.05-.202.113-.416.163-.599 1-3.758 2.343-6.439 3.97-7.994 1.744-1.653 4.168-2.447 7.341-2.447 2.92 0 4.81.594 5.602 1.849.824 1.227.807 3.467 0 6.689l-.435 1.903-4.133 16.37h9.625l4.079-16.37.925-3.698c1.155-4.609.837-7.909-.979-9.951-2.095-2.394-5.566-3.59-10.387-3.59m122.85 0c-4.196 0-8.29 1.296-12.29 3.916l-8.865-2.991-4.078 16.314-4.079 16.37h9.626l3.915-15.771c.052-.202.111-.416.163-.599 1.005-3.758 2.339-6.439 3.97-7.994 1.747-1.653 4.164-2.447 7.342-2.447 2.917 0 4.807.594 5.601 1.849.822 1.227.807 3.467 0 6.689l-.489 1.903-4.079 16.37h9.626l4.078-16.37.925-3.698c1.155-4.609.835-7.909-.979-9.951-2.092-2.394-5.571-3.59-10.387-3.59m97.725 3.426-1.142 5.33h5.385l-1.795 8.483-1.142 5.656c-.248 1.184-1.194 2.417-2.828 3.752-.481.397-.777.651-.816.762.598 1.873 1.664 3.7 3.154 5.384.116.03.753-.53 1.849-1.632 1.636-1.733 5.786-5.555 12.508-11.474-.022-.076-.392-.87-1.087-2.338l-.055-.11-.979-2.174-1.087.924c-.523.46-1.027.881-1.469 1.25-1.174 1.019-2.066 1.765-2.665 2.23l.49-2.23 2.882-13.812zM51.5 17.208c5.104 0 7.831 2.006 8.157 6.037H40.461a10.8 10.8 0 0 1 1.958-2.502 12.2 12.2 0 0 1 2.61-1.903 12.8 12.8 0 0 1 3.1-1.197 13 13 0 0 1 3.371-.435m123.666 0c5.103 0 7.835 2.006 8.157 6.037h-19.197a11.1 11.1 0 0 1 1.958-2.502 12.6 12.6 0 0 1 2.61-1.903 13 13 0 0 1 3.1-1.197 13 13 0 0 1 3.372-.435m105.665 1.632h2.828l-1.251 6.036h-2.828zm20.829.761h1.685c.234.668.545 1.307.925 1.903h-4.133l.762-.978zm-57.537.272-2.175 8.701-4.133 16.37h9.571l4.133-16.37 2.175-8.7zm51.663 5.928h6.798l-.544 2.773-.38 1.578h-4.677c.174-.583.331-1.105.489-1.578.181-.544.327-1.007.49-1.414-.229-.13-.368-.217-.49-.217h-2.828z" fill="#006cb6"/></g><defs><clipPath id="clip0_223_23566"><path fill="#fff" d="M0 0h360.502v46H0z"/></clipPath></defs></svg>