<svg width="94" height="46" fill="none" xmlns="http://www.w3.org/2000/svg"><g clip-path="url(#clip0_668_788)"><path d="M25.382 8.873H21.18v12.744h4.202z" fill="#008bd5"/><path fill-rule="evenodd" clip-rule="evenodd" d="M19.939 8.875a6.35 6.35 0 0 0-3.814 1.277V8.875h-3.873v12.744h4.202v-5.787c0-2.31 2.29-3.312 3.674-3.312V8.875z" fill="#008bd5"/><path d="M26.872 3.578A3.585 3.585 0 0 0 23.282 0a3.585 3.585 0 0 0-3.59 3.578 3.585 3.585 0 0 0 3.59 3.578 3.585 3.585 0 0 0 3.59-3.578" fill="#e73828"/><path fill-rule="evenodd" clip-rule="evenodd" d="M39.683 8.877v1.376a1.55 1.55 0 0 0 1.553 1.548h3.752a1.384 1.384 0 0 1 1.333 1.38h.002q.004.087.004.18v.518h-3.852c-2.07 0-3.277 1.452-3.277 3.789 0 2.336 1.15 3.947 3.084 3.947h8.245v-8.707c0-2.891-1.278-4.035-4.284-4.035h-6.562zm6.644 9.824h-1.99c-.466 0-.829-.274-.829-1.03 0-.754.355-1.026.83-1.026h1.989zM34.654 8.877h-7.725a.494.494 0 0 0-.496.492v12.25h4.204v-9.538c0-.15.12-.272.269-.278h1.603a1.46 1.46 0 0 1 1.433 1.422l.002.136v8.256h4.206V12.36a3.49 3.49 0 0 0-3.496-3.484M2.344 2.968l-.002.002-.05-.002A2.286 2.286 0 0 0 0 5.251v1.905h5.733v14.463h4.627V7.156h5.733V5.251A2.29 2.29 0 0 0 13.8 2.966H2.345z" fill="#008bd5"/><path d="M56.323 21.921c-1.703 0-3.451-.302-4.057-.465v-1.184c.793.094 2.496.35 4.01.35 2.379 0 3.124-.814 3.124-2.092 0-1.277-.56-1.742-2.846-2.672l-.91-.35c-2.425-.975-3.543-1.976-3.543-3.764 0-2.09 1.469-3.068 4.523-3.068 1.563 0 3.101.254 3.707.441v1.162c-1.19-.163-2.659-.278-3.638-.278-2.099 0-3.055.372-3.055 1.742 0 1.185.653 1.697 2.613 2.488l.909.371c2.82 1.186 3.754 1.999 3.754 3.906 0 1.788-1.027 3.415-4.593 3.415m10.445-.002c-3.59 0-5.269-2.044-5.269-5.948v-1.347c0-3.88 1.68-5.948 5.269-5.948 3.588 0 5.268 2.068 5.268 5.948v1.347c0 3.904-1.678 5.948-5.268 5.948m3.753-7.297c0-3.23-1.12-4.601-3.753-4.601s-3.754 1.37-3.754 4.601v1.347c0 3.23 1.118 4.623 3.754 4.623 2.635 0 3.753-1.395 3.753-4.623zm4.55-10.968h-1.517v17.961h1.517zm9.394 17.961v-.906c-.885.535-2.332 1.21-4.22 1.21-2.471 0-3.777-1.116-3.777-3.626v-.347c0-3.207 2.075-3.858 5.78-3.858h2.146v-1.07c0-2.463-.536-3.045-3.36-3.045-1.233 0-2.284.094-3.707.256V9.115c1.19-.207 2.193-.441 3.825-.441 4.033 0 4.78 1.37 4.78 4.345v8.596h-1.469zm-.07-6.343H82.25c-3.056 0-4.268.417-4.268 2.672v.44c0 1.743.979 2.347 2.563 2.347s3.15-.697 3.848-1.138v-4.323zm4.851-4.065v10.41h-1.491V9.002h1.491v1.023c1.491-1.07 3.287-1.347 4.756-1.347v1.37c-1.4 0-3.357.325-4.756 1.163M28.86 41.103h3.407c.1 0 .122-.092.122-.092l.227-1.019h-3.857v-2.05h3.01c.098 0 .12-.095.12-.095l.227-.996h-8.363v1.091h3.337v2.05h-3.919v1.11h3.758c-.361 1.578-1.67 2.967-3.82 3.933l.29.9c.021.069.11.073.139.06 2.452-1.022 3.63-2.152 4.356-3.247.727 1.093 1.905 2.225 4.357 3.246.03.012.116.008.138-.06.024-.069.289-.9.289-.9-2.15-.963-3.459-2.352-3.818-3.931m23.178-1.399c-.235-.75-.582-1.627-.783-2.602h-1.358c.26 1.025.638 1.881.912 2.513.013.03.047.09.139.09h1.092zm3.482 0c.236-.75.583-1.627.784-2.602h1.357c-.259 1.027-.637 1.885-.91 2.517a.14.14 0 0 1-.132.085z" fill="#008bd5"/><path d="M54.514 36.69h-1.471v3.701h-3.95v.974h2.694s-.044 2.525-2.693 3.598c0 0 .269.846.295.924.026.075.107.08.143.063 3.421-1.281 3.74-4.585 3.74-4.585h1.26v2.682c0 1.508.484 1.88 1.89 1.88h1.74c.1 0 .12-.09.12-.09l.225-.956H56.56c-.413 0-.572-.182-.572-.611v-2.907h2.169c.105 0 .125-.1.125-.1l.224-.873h-3.995v-3.702zm-11.205 4.864h-6.094v4.368h7.356c.107 0 .1-.09.1-.09v-3.08c0-.815-.5-1.198-1.362-1.198m-.174 3.393H38.75v-2.416h3.79c.28 0 .593.165.593.652v1.762zm.752-4.377h-6.1v-1.017h6.2v.928s0 .09-.1.09" fill="#008bd5"/><path d="m45.942 40.543.21-.928c-1.982-.825-3.202-1.778-4.358-3.322h-1.74c.957 2.17 3.849 3.715 5.765 4.315.034.012.105.01.123-.063" fill="#008bd5"/><path d="M41.718 36.291H39.98c-1.156 1.544-2.376 2.5-4.36 3.322l.21.926c.015.079.091.077.127.065 1.914-.6 4.806-2.145 5.761-4.313m24.266.725h-1.172l.12 1.236c.018.189-.072.278-.275.278h-1.962c.437-.401 1.023-1.39 1.292-2.134h-1.43a7.5 7.5 0 0 1-1.106 2.154v.93h4.109c.582 0 .622-.346.604-.634l-.18-1.834zm3.331-.202h1.517s-1.049 1.72-3.086 2.711v-1.13s.911-.666 1.569-1.582" fill="#008bd5"/><path d="M67.946 36.543h-1.26v2.96c0 .902.381 1.312 1.26 1.312h2.596c.102 0 .121-.088.121-.088l.226-.854h-2.396c-.353 0-.547-.157-.547-.55zm0 6.298v-1.567h-1.218v3.468c0 .817.4 1.183 1.218 1.183h2.599c.098 0 .12-.092.12-.092l.223-.804h-2.396c-.393 0-.547-.183-.547-.507zm-6.235 3.085h1.206v-1.573h1.926v.23c0 .293.057.5-.371.5h-.455s.212.66.24.752c.03.091.13.091.13.091h.478c.845-.014 1.174-.3 1.174-1.005v-4.87h-4.33v5.877zm1.206-4.986h1.928v.878h-1.928zm0 1.728h1.928v.878h-1.928z" fill="#008bd5"/><path d="M69.315 41.695h1.517s-1.049 1.72-3.086 2.712v-1.13s.911-.666 1.569-1.582M94 37.328c-14.452-6.07-30.332-9.425-47.001-9.425S14.45 31.26 0 37.328c14.81-4.752 30.603-7.319 46.999-7.319S79.189 32.576 94 37.328" fill="#008bd5"/></g><defs><clipPath id="clip0_668_788"><path fill="#fff" d="M0 0h94v46H0z"/></clipPath></defs></svg>