<svg width="109" height="46" fill="none" xmlns="http://www.w3.org/2000/svg"><g clip-path="url(#clip0_668_753)"><path d="m66.395 41.53-.23.34h-2.552v.657h2.402l-.23.374h-2.172v.744h2.782v2.34h-1.643l-.205-.373h.947V43.67l-.205.348h-1.676v1.966h-.901v-1.966h-2.307v-.373h2.307v-.744h-2.125v-.374h2.125v-.657h-2.307v-.34h2.307v-.422h.9v.421zm10.493 1.536h-.909l.317-.864H71.8l-.436.793h-.917l1.043-1.894h.917l-.403.73h5.35l-.468 1.236zm-5.35 2.711h-.955l.83-2.346h.962zm.783-.15h1.224v-3.109h.956V46h-2.007zm3.184-2.141h.964l.9 2.346h-.963zm9.299-.261v1.451h2.844l-.197.372h-2.647v.889h-.862v-.889h-2.764v-.372h2.764v-1.45H81.51v-.373h2.433v-1.69h.862v1.69h2.426l-.205.372zm-3.31-1.784h.884l.499 1.19h-.886zm4.298 1.142.498-1.182h.886l-.499 1.182zm11.661 1.213v.429h.687l-.23.372h-.457v1.245h-2.016l-.19-.334 1.327-.008v-.904h-4.866v-.373h4.866v-.428h.877zm.426-1.126h-5.088v.54h5.293l-.245.34h-5.933v-2.29h5.016l-.276.34h-3.855v.73h4.203v-1.07h.885zm-4.14 2.189.846.983h-1.028l-.916-.983zm9.697-2.419h.282v3.553h-.901v-2.759h-.766l1.066-2.133h.988zm.37 3.172 1.09-3.41h-.822v-.372h1.77v-.722h.9v.722l2.063-.01-.214.382h-1.849v2.941h.917l-.207.373h-.71v.46h-.9v-.46h-.854v-.373h.854v-2.918l-1.122 3.385h-.916zm4.077 0-1.075-3.084h.956l1.034 3.084h-.917zM61.742 33.724l.815 2.58 1.307-2.58h.842l1.17 2.53.77-2.53h1.732l-1.305 4.007h-1.86l-1.005-1.915-.951 1.915h-1.86l-1.404-4.007zm9.382.007h-1.768v4.007h1.768zm.98 4.007V33.73h1.83v3.484h3.355l-.38.523zm6.164 0V33.73h1.83v3.484h3.355l-.38.523zm12.339 0h-6.174v-.523h4.324v-1.777h1.85zM86.29 34.24v1.2h2.465l-.635.515h-3.67v-2.222h6.373l-.344.509h-4.188zm11.269 2.975-.399.523h-5.357V33.73h5.739l-.409.523h-3.5v1.17h3.754l-.398.53h-3.356v1.26zm8.693.523h-1.631V35.16l-1.515 2.578h-1.395l-1.497-2.543v2.543h-1.676V33.73h2.248l1.641 2.746 1.649-2.746h2.176zm2.746-4.007h-1.768v4.007h1.768z" fill="#040000"/><mask id="mask0_668_753" style="mask-type:luminance" maskUnits="userSpaceOnUse" x="0" y="11" width="67" height="35"><path d="m39.307 31.218-2.246-2.271-8.158-8.254-8.158 8.254-2.247 2.271L8.248 20.54 0 28.987c6.832 7.011 15.196 15.601 15.673 16.122.813.887 5.082.918 6.497-.49.623-.622 3.6-3.75 6.734-7.055 3.136 3.305 6.113 6.435 6.736 7.054 1.414 1.408 5.683 1.376 6.495.49s24.536-25.211 24.536-25.211l-8.388-8.445-18.974 19.766z" fill="#fff"/></mask><g mask="url(#mask0_668_753)"><path d="m33.335-22-50.56 50.74 50.56 50.741 50.56-50.74z" fill="url(#paint0_linear_668_753)"/></g><mask id="mask1_668_753" style="mask-type:luminance" maskUnits="userSpaceOnUse" x="28" y="11" width="39" height="35"><path d="m39.307 31.218-2.246-2.271c-.482.509-4.431 4.688-8.159 8.617 3.136 3.305 6.113 6.435 6.736 7.054 1.414 1.408 5.683 1.376 6.495.49s24.537-25.21 24.537-25.21l-8.39-8.445z" fill="#fff"/></mask><g mask="url(#mask1_668_753)"><path d="M46.694-7.462 11.707 29.745 48.881 64.95l34.987-37.207z" fill="url(#paint1_linear_668_753)"/></g><path d="m28.904 20.693-8.158 8.254c.481.509 4.43 4.688 8.158 8.618 3.728-3.93 7.677-8.11 8.159-8.618zM69.545 1.66a.83.83 0 0 0 0-1.66.83.83 0 0 0 0 1.66m-7.638 6.004a.83.83 0 0 0 0 1.66.83.83 0 0 0 0-1.66m7.638 7.666a.83.83 0 0 0 0 1.66.83.83 0 0 0 0-1.66m7.637-7.666a.83.83 0 0 0 0 1.66.83.83 0 0 0 0-1.66m-2.556-.423h.012l.034-.002h.034q.03 0 .052-.005a1.31 1.31 0 0 0 1.188-1.308c0-.726-.587-1.315-1.31-1.315s-1.31.588-1.31 1.315a1.216 1.216 0 1 1-2.43 0c0-.674.543-1.22 1.215-1.22l-.008-.01a1.313 1.313 0 0 0 1.308-1.315 1.31 1.31 0 0 0-2.619-.07v.034l-.002.035v.011c-.013.368-.12 1.234-.75 1.234h-1c-.628 0-.737-.867-.749-1.234V3.38l-.001-.035v-.034a1.31 1.31 0 0 0-1.308-1.244c-.723 0-1.31.588-1.31 1.314s.585 1.316 1.31 1.316c.67 0 1.215.545 1.215 1.219a1.216 1.216 0 1 1-2.43 0l-.01.007a1.313 1.313 0 0 0-1.31-1.312c-.724 0-1.311.589-1.311 1.315a1.31 1.31 0 0 0 1.24 1.313h.035l.034.002h.012c.366.013 1.229.121 1.229.752v1.004c0 .63-.863.74-1.23.752h-.01l-.035.001h-.035a1.313 1.313 0 0 0-1.24 1.313c0 .726.587 1.315 1.31 1.315s1.311-.588 1.311-1.315a1.216 1.216 0 1 1 2.43 0c0 .674-.543 1.219-1.215 1.219l.007.01c-.722 0-1.308.59-1.308 1.314s.586 1.315 1.311 1.315a1.31 1.31 0 0 0 1.308-1.245v-.034l.001-.035v-.011c.013-.368.12-1.234.75-1.234h1c.628 0 .736.866.749 1.234v.011q0 .018.003.035v.034q0 .03.004.052c.062.67.622 1.193 1.303 1.193.724 0 1.311-.59 1.311-1.315 0-.726-.586-1.314-1.31-1.316-.67 0-1.215-.544-1.215-1.219a1.216 1.216 0 1 1 2.43 0l.01-.007a1.313 1.313 0 0 0 1.31 1.313c.724 0 1.31-.588 1.31-1.316a1.31 1.31 0 0 0-1.24-1.312h-.034l-.034-.002h-.012c-.367-.013-1.229-.12-1.229-.752V7.992c0-.631.864-.74 1.23-.752" fill="#688041"/></g><defs><linearGradient id="paint0_linear_668_753" x1="16.306" y1="46.131" x2="27.144" y2="35.331" gradientUnits="userSpaceOnUse"><stop stop-color="#2a4e28"/><stop offset="1" stop-color="#4c7735"/></linearGradient><linearGradient id="paint1_linear_668_753" x1="33.841" y1="43.254" x2="60.952" y2="14.627" gradientUnits="userSpaceOnUse"><stop stop-color="#406631"/><stop offset=".35" stop-color="#557339"/><stop offset=".7" stop-color="#637c3f"/><stop offset="1" stop-color="#688041"/></linearGradient><clipPath id="clip0_668_753"><path fill="#fff" d="M0 0h109v46H0z"/></clipPath></defs></svg>