<svg width="161" height="46" fill="none" xmlns="http://www.w3.org/2000/svg"><g clip-path="url(#clip0_667_719)"><path d="M47.27 6.219c-6.623-8.686-21.89-8.21-34.098 1.06C.959 16.544-3.574 31.1 3.045 39.786c6.622 8.686 21.888 8.21 34.097-1.06C49.355 29.456 53.887 14.9 47.269 6.22M28.91 20.849c-2.645.26-4.223 1.402-5.633 3.3-1.406 1.896-14.531 19.577-14.531 19.577L22.555 21.1 6.27 42.4l13.74-21.518-15.46 19.6 11.77-17.896c.89-1.369.615-2.103-.662-2.364-.878-.176-11.81-1.172-11.81-1.172l15.796-.88-14.785-.991 16.514-.983-15.116-.652s12.135-.936 13.61-1.09c1.471-.159 2.508-.73 3.47-1.88l3.407-4.025L32.713.91c.111-.137-8.008 13.24-8.008 13.24L34.987.583l-7.83 13.651L37.052.91s-6.266 10.733-6.597 11.355c-.538 1.013-.24 2.009 1.157 2.004l18.104.472-20.968 1.374 21.003.875-22.276 1.49 21.54 1.192s-17.463.914-20.108 1.176" fill="#1a96d5"/><path d="M67.386 25.972H63.97v-5.51l-3.504 1.51V18.29l3.504-1.51v-4.627h-1.604c-1.94 0-2.03-1.866-1.99-3.304v-4.7h2.554v5.009h1.04V3.395h3.415v5.759h1.54v2.995h-1.54v3.305l1.54-.782-.014 3.717-1.526.75zm11.916-4.253v-3.146q-3.502 2.835-9.087 6.236v-3.845a47.4 47.4 0 0 0 9.087-7.085v-2.674c-2.589 2.519-5.646 4.725-9.181 6.613v-3.94q3.407-1.698 7.762-5.664h-6.06c-1.479 0-2.356-.691-2.502-1.979a1.8 1.8 0 0 1 .133-.776L70.5 3.395h3.729L73.565 5h6.816c1.768.064 2.365 1.102 2.43 3.115v14.96q0 2.928-2.27 2.927h-3.79v-2.927h1.325c.757 0 1.166-.6 1.23-1.356m11.207-7.274v9.257c-.065 1.51-.194 2.266-1.643 2.266h-1.892V14.445c0-2.077 1.1-3.116 3.311-3.116h1.987l-1.608-3.21h-4.004V5.533h9.302V3.927h3.754v1.605h9.155V8.12h-4.128l-1.325 3.21h5.522v3.115zm10.506-6.33h-6.343q1.322 3.211 3.122 3.21 1.987.001 3.221-3.21m33.654 14.995h-9.143v2.858h-3.44v-1.159q0-1.7-2.27-1.7h-6.963V9.747q.093-4.153 4.069-4.154h5.164V3.3h3.44v2.292h5.139c2.46 0 4.004 1.356 4.004 4.064zm-12.587-2.927v-9.11q.095-2.363-2.46-2.361h-3.152v11.47h5.616zm3.44-11.471v11.47h5.522v-9.015c0-1.64-.478-2.455-2.051-2.455zm22.22 2.012h-8.932V7.682h9.13V4.339l3.853-1.292v4.639h9.117v3.043h-8.906c1.208 2.866 5.117 8.26 8.988 11.157v4.49c-4.907-2.769-8.236-6.696-10.88-11.785-2.709 5.09-6.545 8.948-11.323 11.591v-4.197c3.935-3.219 7.397-7.33 8.949-11.256m-71.02 20.723s-3.01 10.162-3.07 10.407c-.074-.296-3.127-10.115-3.127-10.115H68.71s-3.04 9.789-3.104 10.063c-.043-.18-3.101-10.355-3.101-10.355h-2.133l4.163 13.6h2.02s3.024-9.75 3.058-9.892c.035.142 3.084 9.892 3.084 9.892h2.021l4.163-13.6zm13.352 1.584v-1.584h-9.667l-.62 1.936h7.5l-8.179 10.067v1.592H90.04l.62-1.935h-8.756zm10.395 6.548h4.033v2.348q-.2.2-.477.407a5 5 0 0 1-.834.481q-.48.22-1.08.356a5.7 5.7 0 0 1-1.316.138c-.731 0-1.376-.133-1.918-.39-.541-.258-.997-.602-1.354-1.065a5 5 0 0 1-.83-1.704 8.3 8.3 0 0 1-.284-2.236c0-.81.03-1.18.24-1.84.203-.64.448-1.044.796-1.494.34-.442.783-.785 1.312-1.03.537-.245 1.191-.37 1.948-.37.507 0 .959.057 1.342.168.378.112.718.262.997.45q.428.286.727.653c.207.253.383.524.52.803l.155.309 1.996-.696-.202-.399a7.4 7.4 0 0 0-.749-1.18 4.8 4.8 0 0 0-1.135-1.047 5.8 5.8 0 0 0-1.574-.725c-.598-.185-1.299-.275-2.086-.275-1.075 0-2.03.172-2.834.515a5.54 5.54 0 0 0-2.042 1.472c-.542.63-.886 1.15-1.196 2.03-.305.863-.408 1.575-.408 2.652s.129 2.013.391 2.897c.263.9.671 1.686 1.213 2.343a5.6 5.6 0 0 0 2.073 1.553c.821.37 1.797.528 2.894.528q.975 0 1.827-.189a7.8 7.8 0 0 0 1.557-.51 6.7 6.7 0 0 0 1.29-.76 7.3 7.3 0 0 0 1.002-.91l.103-.111v-5.03h-5.487l-.619 1.854zm16.728-.407a3.9 3.9 0 0 0 1.191-.966c.305-.377.537-.798.684-1.249q.219-.67.219-1.36c0-.648-.12-1.24-.353-1.75a3.6 3.6 0 0 0-1.023-1.318c-.434-.352-.972-.623-1.591-.807a7.3 7.3 0 0 0-2.064-.275h-5.156v13.595h2.154V39.89h2.602l3.655 5.158h2.572l-3.987-5.454a4.7 4.7 0 0 0 1.105-.42m-5.951-5.846h2.881q.73 0 1.299.155c.361.099.67.249.928.442.246.189.426.416.555.69q.194.42.194.988.001.509-.172.961a2 2 0 0 1-.499.747q-.337.316-.886.51c-.374.134-.83.202-1.355.202h-2.945zm21.411-.082a5.9 5.9 0 0 0-2.133-1.48c-.834-.344-1.793-.52-2.855-.52s-2.03.172-2.86.515a5.8 5.8 0 0 0-2.12 1.468c-.572.626-1.01 1.399-1.303 2.291-.288.88-.434 1.584-.434 2.665 0 1.082.138 1.725.413 2.61.279.896.705 1.686 1.268 2.338a5.9 5.9 0 0 0 2.116 1.55c.834.369 1.815.553 2.92.553 1.041 0 1.987-.18 2.812-.532a6.1 6.1 0 0 0 2.129-1.506c.576-.644 1.024-1.425 1.333-2.33.301-.893.456-1.605.456-2.687s-.146-1.772-.434-2.648c-.293-.884-.731-1.656-1.303-2.291m-4.989 10.067c-.744 0-1.402-.133-1.956-.39a3.9 3.9 0 0 1-1.402-1.094 4.9 4.9 0 0 1-.877-1.704c-.203-.67-.301-1.129-.301-1.94s.098-1.27.292-1.935c.189-.648.477-1.206.851-1.657a3.76 3.76 0 0 1 1.398-1.038c.563-.25 1.234-.374 1.991-.374s1.402.125 1.961.374a3.8 3.8 0 0 1 1.398 1.038c.378.45.666 1.009.86 1.657.198.665.296 1.12.296 1.93 0 .812-.094 1.262-.275 1.936a4.8 4.8 0 0 1-.821 1.704 3.7 3.7 0 0 1-1.385 1.09c-.563.262-1.247.395-2.034.395m18.181-3.682c0 .648-.103 1.21-.314 1.673a3.3 3.3 0 0 1-.812 1.138 3.4 3.4 0 0 1-1.162.665c-.898.3-1.926.292-2.765.008a3.1 3.1 0 0 1-1.088-.63 2.9 2.9 0 0 1-.726-1.086c-.181-.45-.271-1.009-.271-1.648v-8.287h-2.163v8.416c0 .918.146 1.72.438 2.394a4.7 4.7 0 0 0 1.204 1.687c.504.442 1.11.768 1.789.983a7.3 7.3 0 0 0 2.159.313c.766 0 1.561-.116 2.262-.34a5.4 5.4 0 0 0 1.875-1.03 4.9 4.9 0 0 0 1.273-1.746c.305-.695.46-1.523.46-2.459v-8.222h-2.154v8.166zm14.824-5.583a3.6 3.6 0 0 0-.985-1.4q-.647-.568-1.591-.88c-.615-.2-1.338-.304-2.146-.304h-5.156v13.789l2.154-.511v-4.442h3.122c.796 0 1.51-.12 2.125-.364a4.6 4.6 0 0 0 1.552-.983c.413-.408.727-.893.933-1.438.202-.536.31-1.107.31-1.7 0-.643-.108-1.24-.318-1.767m-7.724-.704h2.847c1.028 0 1.798.223 2.292.656.486.43.723 1.026.723 1.824 0 .382-.056.738-.177 1.056a2.15 2.15 0 0 1-.516.802 2.4 2.4 0 0 1-.894.541q-.562.2-1.351.202h-2.92v-5.081z" fill="#707070"/></g><defs><clipPath id="clip0_667_719"><path fill="#fff" d="M0 0h161v46H0z"/></clipPath></defs></svg>