<svg width="46" height="46" fill="none" xmlns="http://www.w3.org/2000/svg"><path d="M18.695 4.491c8.408-2.047 17.913 2.489 21.536 10.25 3.224 6.5 1.955 14.873-3.105 20.121-5.148 5.59-13.86 7.743-20.993 4.86-5.9-2.118-10.566-7.343-11.805-13.444-.668-3.96-.388-8.202 1.513-11.814 2.467-5.048 7.413-8.602 12.854-9.973m-9.397 8.808C6.158 17.547 5.382 23.3 7.313 28.208c6.59-5.678 11.805-13.18 13.587-21.734-4.553.712-8.957 3.018-11.602 6.825m15.887-6.82c2.032 8.485 6.721 16.334 13.366 22.082 1.442-4.013 1.59-8.596-.298-12.497-2.306-5.16-7.467-8.737-13.068-9.584m-5.435 9.18c.798-.242 1.597-.49 2.395-.73-.006-1.713.018-3.425.03-5.137-.769 1.971-1.543 3.942-2.425 5.866m4.273-5.955c-.078 1.753-.048 3.512-.048 5.266q1.189.337 2.377.682c-.881-1.947-1.567-3.965-2.33-5.948M17.324 22.2c-.292 3.353 3.123 6.248 6.436 5.689 3.814-.265 6.06-4.613 4.708-8.013-1.359 1.741-1.788 3.936-2.407 6-.537.018-1.615.06-2.152.083-.304-1.112-.572-2.224-.846-3.342a79 79 0 0 0-.995 3.313l-2.098-.024c-.68-1.947-1.31-3.912-2.008-5.854l2.276.024q.466 1.685.96 3.353c.274-1.112.536-2.235.81-3.353l1.877-.053c.292 1.165.59 2.33.906 3.489.322-1.13.608-2.266.9-3.401.906-.07 1.818-.141 2.73-.2-1.026-1.118-2.068-2.406-3.612-2.824-3.32-1.289-7.61 1.553-7.485 5.113m-9.248 7.754a25 25 0 0 0 4.35 5.23c1.907-2.317 3.808-4.794 4.648-7.707-.643-1.57-1.424-3.1-1.788-4.771-2.228 2.582-4.576 5.065-7.21 7.248m22.68-7.025c-.37 1.73-1.084 3.36-2.193 4.76 1.359 2.618 2.634 5.342 4.6 7.584 1.83-1.324 3.219-3.107 4.53-4.907-2.533-2.265-4.899-4.719-6.937-7.437m-11.983 5.766c-1.18 2.754-2.86 5.248-4.726 7.59 2.509 1.318 5.244 2.165 8.08 2.383.018-2.948.006-5.896.042-8.843a96 96 0 0 1-3.396-1.13m5.25 1.106c-.024 2.954-.066 5.913-.03 8.873 2.646-.236 5.184-1.042 7.55-2.207a53 53 0 0 1-4.523-7.66c-.995.341-1.996.677-2.997.994" fill="#df0615"/></svg>