<svg width="46" height="46" fill="none" xmlns="http://www.w3.org/2000/svg"><g clip-path="url(#clip0_287_9)"><path d="M41.206 4.806C36.866.483 30.626 0 23 0 15.365 0 9.116.488 4.778 4.823S0 15.396 0 23.023.44 36.89 4.782 41.225 15.366 46 23 46s13.883-.439 18.218-4.774S46 30.649 46 23.022c0-7.636-.446-13.882-4.794-18.216" fill="#ff6900"/><path d="M21.307 31.524a.285.285 0 0 1-.288.284h-3.923a.29.29 0 0 1-.291-.284V21.265a.287.287 0 0 1 .291-.284h3.923a.286.286 0 0 1 .288.284z" fill="#fff"/><path d="M28.988 31.524a.29.29 0 0 1-.29.284h-3.734a.283.283 0 0 1-.29-.284v-8.85c-.004-1.546-.093-3.132-.89-3.932-.684-.689-1.965-.846-3.296-.88H13.72a.283.283 0 0 0-.288.285v13.379a.29.29 0 0 1-.292.285H9.403a.286.286 0 0 1-.288-.285V14.478a.285.285 0 0 1 .288-.285h10.78c2.818 0 5.763.129 7.215 1.584 1.453 1.454 1.59 4.4 1.59 7.221zm7.692 0a.29.29 0 0 1-.29.284h-3.736a.286.286 0 0 1-.29-.284V14.478a.284.284 0 0 1 .29-.285h3.736a.29.29 0 0 1 .29.285z" fill="#fff"/></g><defs><clipPath id="clip0_287_9"><path fill="#fff" d="M0 0h46v46H0z"/></clipPath></defs></svg>