<svg width="226" height="46" fill="none" xmlns="http://www.w3.org/2000/svg"><g clip-path="url(#clip0_667_709)" fill="#0154a6"><path d="m18.315 34.861-.024-20.154L6.88 34.861H0V2.76h6.196v22.27L18.874 2.76h5.663l.026 22.27L37.24 2.759h6.243L25.239 34.86zM39.7 46l6.355-11.172-5.016-24.043h5.928l3.414 16.412 9.35-16.412h6.256L45.979 46zm43.148-23.176c.811-4.588-.606-6.878-4.243-6.878s-5.775 2.29-6.576 6.878l-2.111 12.037h-5.632l3.931-22.408 4.85-.297c1.432-.882 4.16-1.374 6.468-1.374q5.407 0 7.733 3.363 2.115 3.202 1.149 8.677l-2.111 12.036h-5.593l2.132-12.036zm25.103-4.276c-.834-1.733-2.264-2.602-4.277-2.602q-5.398 0-6.565 6.894c-.835 4.557.554 6.84 4.173 6.84 2.031 0 3.734-.852 5.12-2.556l5.163 1.405c-2.894 4.224-6.627 6.33-11.196 6.33-3.637 0-6.216-1.117-7.76-3.36-1.418-2.111-1.8-5.008-1.17-8.677.668-3.67 2.1-6.553 4.305-8.677 2.314-2.243 5.268-3.365 8.851-3.365 4.633 0 7.641 2.124 9.04 6.36zm18.775-2.605c-3.596 0-5.799 2.304-6.576 6.892-.829 4.56.569 6.845 4.186 6.845s5.814-2.283 6.62-6.845c.829-4.591-.585-6.892-4.23-6.892m2.35 17.599c-1.492.88-3.372 1.32-5.66 1.32-3.596 0-6.162-1.117-7.702-3.363-1.44-2.13-1.846-5.031-1.224-8.682.663-3.662 2.093-6.556 4.311-8.672 2.306-2.243 5.257-3.365 8.835-3.365 2.311 0 4.037.442 5.202 1.322l5.822-1.322-4.254 24.081h-5.569zm74.897-7.105c-3.089-2-4.971-5-4.165-9.575l6.149-.01 6.146.01c-.79 4.482-4.017 7.527-8.13 9.575M153.589 12.47l.206-5.35h6.245l-1.921 5.35zm64.325-2.993h-4.521l-.531 2.975h-12.274l.533-2.975h-4.532l-.52 2.975h-6.929l-.801 4.406.606-.005v.005h6.346c-.915 5.221.705 8.893 3.614 11.511-5.912 1.734-12.339 2.106-15.979 2.072-1.277-.013-4.239-.008-5.968-.008l2.398-13.56h2.524l.78-4.405h-10.876l.936-5.351h10.9l.767-4.396h-15.405l-3.617 20.6c-1.324 7.464-9.818 7.13-10.405 7.104l1.177-6.696h1.566l-.687 3.836h3.495l.676-3.836h1.669l.777-4.409h-6.71l.421-2.443h6.718l.78-4.407h-2.207l1.916-5.35h1.23l.783-4.396h-6.204l.452-2.631h-5.522l-.468 2.63h-6.206l-.783 4.397h1.464l-.211 5.35h-2.197l-.775 4.407h6.729l-.437 2.443h-6.718l-.772 4.409h1.552c-.099.492-.915 5.195-.915 5.195-.286 1.59-1.139 2.485-1.948 2.727l-.556 3.16c2.283-.1 5.163-1.122 6.027-6.023 0 0 .769-4.411.892-5.064h1.664l-1.948 11.097h4.48s13.606.445 15.834-12.177l1.025-5.765h3.827l-3.172 17.942h3.208v.013s5.278-.013 6.935 0c4.396.018 13.53-.557 21.369-3.698 5.387 2.558 12.327 3.336 17.194 3.716l.765-4.336c-3.703-.252-8.555-.702-12.715-2.043 4.116-2.657 7.273-6.381 8.201-11.612h6.341v-.005l.606.005.757-4.406h-6.932l.525-2.975zm-6.643-6.738.481-2.74h-6.31l-.481 2.74h-14.155l-1.097 6.236h4.511l.317-1.827h26.172l-.32 1.827h4.506L226 2.74h-14.732z"/></g><defs><clipPath id="clip0_667_709"><path fill="#fff" d="M0 0h226v46H0z"/></clipPath></defs></svg>