<svg width="169" height="46" fill="none" xmlns="http://www.w3.org/2000/svg"><g clip-path="url(#clip0_340_13322)"><path fill-rule="evenodd" clip-rule="evenodd" d="M155.516 25.528c-.571-1.98-.827-4.037-.827-6.096v-6.133l-3.3-.231-.02 6.066a25.3 25.3 0 0 1-.409 4.518c-1.296 7.03-4.477 13.493-12.177 16.073-.365.123-1.3.374-2.753.374h-19.335v-6.562h4.326v-3.144h-4.326v-3.995h5.259v-3.141h-5.259v-3.775h4.621V16.34h-4.621v-3.167l-3.144-.219v3.386h-4.678v3.143h4.678v3.775h-5.155v3.141h5.155v13.023a7.6 7.6 0 0 1-1.741-1.086l-.92-.77c.68-2.661 1.027-5.49.963-8.155v-.434l-3.159-.017v.525a26.4 26.4 0 0 1-2.51 11.805l2.382 2.26a22 22 0 0 0 1.292-2.758 10.75 10.75 0 0 0 6.82 2.45h19.51c2.152 0 3.603-.396 5.524-1.208 6.233-2.634 9.586-7.946 11.26-13.207h.141c2.866 7.55 9.019 12.642 15.243 14.078v-3.329c-5.406-1.62-10.759-6.838-12.84-14.049zM83.958 38.91V28.19h19.1v-3.143h-19.1V21.89c9.614-.903 17.615-5.086 17.94-5.273l-1.558-2.728c-.072.043-7.593 3.942-16.382 4.846v-5.561l-3.142-.219v12.091H75.92v3.144h4.896v15.049h3.268l9.019-8.563 8.665 8.218 2.345-2.226-11.009-10.441-9.145 8.682zm-35.702.016c1.35-2.45 1.572-5.633 1.572-8.458v-6.26h2.985v-3.143h-2.985v-7.141l-3.141-.22v7.361h-3.169v3.144h3.169v6.26c0 3.46-.813 7.802-3.07 9.03l.898 2.943 8.857-.87-.16-3.17zm75.382-.193h13.022V27.356h-13.022zm3.25-8.236h6.738v5.092h-6.738zM71.708 43.24H54.723V29.55h16.985zm-3.143-10.548h-10.7v2.132h10.7zm0 5.275h-10.7v2.131h10.7zm58.487-11.977h-3.967l-.001-.002c1.668-2.503 2.769-5.524 3.193-7.855l.068-.372h-2.825l.163-3.159h12.977v11.472h-5.731l.229-3.32h2.019v-4.992h-3.366l-.044.305c-.419 3.002-1.621 6.088-2.715 7.923M66.558 12.955h3.143l-.707 1.859h3.034v13.379H54.403v-13.38h3.057l-.73-1.858h3.14l.732 1.859h5.225zm-3.344 8.665-5.39 3.43h10.78zm.002-3.665 5.67 3.81v-3.81zm-5.67 3.808 5.67-3.808h-5.67z" fill="#21232d"/><path d="M17.942 11.96a5.98 5.98 0 1 0 0-11.96 5.98 5.98 0 0 0 0 11.96M30.81 22.494l-12.875 18.38a10.51 10.51 0 0 0-4.372-15.002h-.002l-.582-.26-.628-.276-10.848-4.813a2.98 2.98 0 0 1-1.5-2.731c.08-1.606 1.465-2.84 3.071-2.84h23.733c2.47 0 4.608 1.831 4.863 4.286a4.75 4.75 0 0 1-.86 3.254z" fill="#00de5a"/><path d="M13.563 25.871h-.002l-.582-.259-.628-.276q.109.053.212.116a2.99 2.99 0 0 1 1.294 3.537l-.035.098-4.478 12.362h.001a3.41 3.41 0 0 0 1.702 4.194 3.406 3.406 0 0 0 4.277-1.049s2.404-3.389 2.608-3.72a10.51 10.51 0 0 0-4.372-15.002z" fill="#005dd9"/></g><defs><clipPath id="clip0_340_13322"><path fill="#fff" d="M0 0h168.356v46H0z"/></clipPath></defs></svg>