<svg width="212" height="46" fill="none" xmlns="http://www.w3.org/2000/svg"><g clip-path="url(#clip0_649_1642)"><path d="M94.855 45.318h14.192V42.29h-9.25l.16-.298c1.476-2.68 5.949-6.396 9.084-7.718v-3.038H95.273v3.033h8.529l-.595.374c-.061.033-5.934 3.639-8.358 10.675m32.83 0h3.24V31.236h-3.24v5.45h-10.192v-5.45h-3.239v14.082h3.239v-5.583h10.192zm57.375-14.082h-9.013v14.087h9.013c2.777 0 6.022-1.844 6.022-7.041s-3.245-7.046-6.022-7.046m-1.212 11.054h-4.65v-8.021h4.65c2.523 0 4.082.672 4.082 4.013 0 3.342-1.559 4.013-4.082 4.013m-16.831 3.171h3.663V31.379h-3.151v8.753l-.364-.507c-1.917-2.675-5.211-5.901-7.652-7.498a8 8 0 0 0-1.427-.737l-3.405-.011v14.087h3.152V35.012l.308.198c2.017 1.305 6.837 5.979 8.87 10.256m-30.461-.215h12.864v-2.873h-9.944l-.011-.187a61 61 0 0 1-.11-2.472v-.21h10.065V36.9h-10.065v-.203c.027-.832.06-1.663.115-2.478l.011-.187h9.945v-2.874h-12.865a67.7 67.7 0 0 0 0 14.088m59.391.005h12.864v-2.873h-9.944l-.017-.187a62 62 0 0 1-.104-2.472l-.011-.21h10.071V36.9h-10.071l.011-.203c.016-.826.055-1.658.104-2.478l.017-.187h9.944v-2.874H195.94a67.7 67.7 0 0 0 0 14.088M132.235 18.32v.166c0 2.4-.066 4.3-.203 7.08l-.011.176h2.98v-.155c.132-2.587.127-4.062.127-6.358v-.903h-2.893zm7.427 4.84v-4.84h-2.947v6.244c0 .65.529 1.172 1.173 1.172h8l-.32-2.582h-5.906z" fill="#0b3190"/><path d="M141.596 22.08h2.98l-.606-3.787h-2.92zm-8.082-8.334h14.919c.7 0 1.267-.567 1.267-1.26V7.04a1.27 1.27 0 0 0-1.267-1.266h-5.73V4.69l6.997-.11V2.048h-6.997V.727h-3.448v1.32h-7.014V4.58l7.014.11v1.085h-5.741c-.7 0-1.267.572-1.267 1.266v5.444c0 .7.573 1.26 1.267 1.26m11.118-5.417h2.341v2.863h-2.341zm-4.843 0h2.342v2.863h-2.342zm-4.843 0h2.336v2.863h-2.336zm14.595 10.119-.011-.154h-3.009l.017.176c.193 2.39.424 4.443.898 7.135l.022.137h3.096l-.038-.192c-.491-2.56-.799-4.47-.975-7.096M129.784 7.454l-5.377 2.945v3.534l2.931-1.552v13.355h2.975V7.762a.35.35 0 0 0-.177-.303.33.33 0 0 0-.347-.005m.518-2.444V1.949a.25.25 0 0 0-.132-.22.25.25 0 0 0-.253-.006l-5.521 3.028v3.595l5.714-3.023a.36.36 0 0 0 .187-.308m19.398 9.766h-17.459v2.477H149.7zm7.162-11.979v21.365c0 .864.706 1.569 1.57 1.569h22.049v-3.05h-20.115V4.283h20.115V1.228h-22.049c-.864 0-1.57.704-1.57 1.574" fill="#0b3190"/><path d="m161.991 18.563-.132.027v2.902l.176-.017c4.7-.336 7.664-3.859 8.799-6.199 1.273 2.632 4.661 5.55 8.231 6.111l.193.028-.044-2.681-.116-.039c-2.286-.738-4.402-2.521-5.223-3.77h4.567v-2.698h-6.159l.259-3.171h5.575v-2.72h-11.63c.072-.313.154-.72.198-.958l.039-.192h-3.311l-.033.12c-.342 1.328-.953 3.144-1.697 4.994l-.088.226h3.581l.044-.094c.248-.49.485-1.123.578-1.376h3.367l-.364 3.17h-6.407v2.698h5.118c-.667 1.15-2.446 2.901-5.543 3.634m41.409-16.609a30 30 0 0 0-.568-1.454c-.06-.16-.115-.286-.137-.346l-.045-.105h-3.674l.055.21c.033.126.138.423.259.78.104.315.231.683.308.92h-7.917c-.787 0-1.438.639-1.438 1.432v5.048c-1.112-.37-2.809-1.167-3.977-1.889l-.254-.148v3.248l.083.044c.997.589 2.942 1.277 4.148 1.558v2.405l-4.231 1.977v3.176l4.231-1.976v1.106c0 3.986-2.352 6.513-3.129 7.344-.072.083-.132.149-.171.198l-.237.27h3.896l.049-.06q.117-.14.276-.32c.87-.98 2.49-2.808 2.49-7.322V4.9h18.594V1.95h-8.622z" fill="#0b3190"/><path d="M210.33 7.156h-15.503v2.863h11.272c-.699 1.14-1.989 2.791-3.063 4.134l-.038.05v8.318s-.023.369-.37.369h-3.537l-.661 2.846h5.84c1.262 0 1.984-.793 1.984-1.976v-8.517c.925-.99 3.349-4.448 4.716-7.013a.72.72 0 0 0-.017-.716.72.72 0 0 0-.628-.358m-92.067-5.813h-15.09c-.788 0-1.432.644-1.432 1.426v15.519c0 4.59-.799 7.211-.805 7.244l-.066.21h3.372l.016-.144c0-.033.513-3.583.513-7.31V4.09h13.487V1.343z" fill="#0b3190"/><path d="M116.402 5.813h-10.077V8.55h10.077zm-15.421 6.782-1.923.545V8.698h1.923V5.912h-1.923V1.497H95.94v4.415h-2.65v2.786h2.65v5.323l-2.755.776v3.171l2.755-.781v2.994c0 3.061-.975 5.307-.986 5.33l-.1.23h3.466l.038-.115s.706-2.323.706-5.445v-3.875l1.922-.545v-3.166zm14.462 6.739 2.903-1.597v-2.983l-4.22 2.24c-.876-1.624-1.598-2.945-2.044-4.008h6.364v-2.675h-10.76c-.788 0-1.427.644-1.427 1.431v12.822a1.165 1.165 0 0 0 1.168 1.172h3.84l-.331-2.725h-1.68v-9.689c1.041 2.725 3.019 6.826 6.661 12.183l.055.072h3.592l-.209-.27c-1.042-1.322-2.463-3.49-3.907-5.979M41.574 0H9.867l-7.03 11.935h17.261L0 46h30.863l7.003-11.885H21.47z" fill="#0b3190"/><path d="M57.127 0H48.41L31.304 29.1h15.107l9.928-17.17h1.366c16.357 0 15.3 22.18-4.688 22.18H44.68L37.629 46h15.388c36.78.044 39.755-46 4.11-46" fill="#e5006e"/></g><defs><clipPath id="clip0_649_1642"><path fill="#fff" d="M0 0h212v46H0z"/></clipPath></defs></svg>