<svg width="61" height="61" fill="none" xmlns="http://www.w3.org/2000/svg"><path d="M60.226 60.07h-60v-60h60z" fill="#970b31"/><path d="m41.567 29.59-6.099 5.802c-.229.228-.348.397-.348.87v16.259c0 .191.156.347.349.347h6.299a.346.346 0 0 0 .346-.347V29.736c0-.192-.148-.542-.547-.146m-17.569 7.558-6.1 5.8c-.229.229-.348.398-.348.871v8.702c0 .19.157.346.348.346h6.3a.346.346 0 0 0 .347-.346V37.294c0-.193-.151-.544-.547-.147" fill="#fff"/><path d="M44.339 22.555a.18.18 0 0 0-.052-.133.2.2 0 0 0-.113-.05l-.033.003-.05.003-4.669 1.052-.085.01a.2.2 0 0 0-.092.047.18.18 0 0 0 0 .251l.053.053 1.066 1.067-10.582 10.58-4.887-4.888a.14.14 0 0 0-.199 0l-1.325 1.327-.001.001-7.835 7.833a.14.14 0 0 0 0 .2l1.328 1.327a.14.14 0 0 0 .196 0l7.738-7.736 3.546 3.548.011.016 1.326 1.327a.14.14 0 0 0 .2 0l12.009-12.01 1.12 1.118c.069.07.18.07.25 0a.17.17 0 0 0 .05-.114l.002-.015 1.025-4.766z" fill="#fff"/><path d="m32.817 38.166-2.95 2.974a.14.14 0 0 1-.19-.007l-2.674-2.724c-.49-.488-.596-.093-.596.098v14.014c0 .19.155.346.346.346h6.302c.19 0 .346-.156.346-.346V38.275c0-.19-.15-.542-.584-.109M11.84 14.236v-1.32c0-1.16-.41-1.999-1.355-2.427.801-.392 1.177-1.105 1.177-2.105v-.5c0-1.891-.982-2.908-2.855-2.908-1.855 0-2.819 1.017-2.819 2.908v.5c0 .982.358 1.713 1.142 2.105-.945.429-1.338 1.267-1.338 2.427v1.32c0 1.838.874 3.123 3.015 3.123 2.159 0 3.034-1.285 3.034-3.123M7.897 7.76c0-.732.25-1.162.91-1.162.678 0 .928.43.928 1.162v.82c0 .732-.25 1.16-.928 1.16-.66 0-.91-.429-.91-1.16zm1.91 6.69c0 .732-.268 1.25-1 1.25-.713 0-.982-.518-.982-1.25v-1.963c0-.732.27-1.248.983-1.248.73 0 1 .517 1 1.248zm6.365-4.12V7.41q-.257.375-.537.772a5 5 0 0 0-.117-.583 1.5 1.5 0 0 0-.048-.235q.725-1.075 1.17-2.593l.63.164q-.234.723-.515 1.332v4.064zm1.028-3.9v-.56h1.473v-1.1h.606v1.098h1.66v.56h-1.402q.56 1.402 1.635 2.29a1.5 1.5 0 0 1-.14.303q-.117.21-.163.328-1.122-1.075-1.59-2.383v1.82h.865v.539h-.865v1.005h-.606V9.326h-.866v-.539h.866V6.99a6.95 6.95 0 0 1-1.542 2.453 8 8 0 0 0-.258-.514 1 1 0 0 1-.093-.14q1.098-.91 1.636-2.358zm4.345-.843v-.539h5.537v.539H24.56l-.234.654h2.476v4.089h-.585v-.35H22.41v.35h-.606V6.242h1.845l.187-.654zm.864 3.925h.771V6.757h-.77zm1.356-2.126h1.098v-.631h-1.098zm0 1.051h1.098V7.83h-1.098zm0 1.075h1.098v-.63h-1.098zm2.453-2.756h-.795v2.756h.795zm1.636-.889v-.63h4.882v.63h-2.078v3.505h2.407v.584H27.55v-.584h2.407V5.868zm5.771 2.336-.14-.607a1 1 0 0 0-.047-.14q.77-1.19 1.215-2.71l.607.164q-.187.608-.444 1.215v4.205h-.608V7.316q-.28.468-.583.888m1.845-.677q-.21-.21-.444-.467.725-.912 1.146-2.313l.654.117a9 9 0 0 0-.187.49 3 3 0 0 1-.118.28h2.594v.586h-1.94v.862h1.613v.585h-1.613v.888h1.776v.56h-1.776v1.215h-.607V6.22h-.304a8 8 0 0 1-.795 1.307zm4.042-.514v-.56h.982V5.68a6 6 0 0 0-.42.024q-.305 0-.444.024a4 4 0 0 1-.048-.328 1 1 0 0 1-.047-.258q1.404-.045 2.314-.162l.116.56a8 8 0 0 1-.887.094v.817h.957v.561h-.957v.749l.21-.212q.14.118.42.373.28.258.42.376l-.396.466a10 10 0 0 1-.305-.327l-.35-.351v2.244h-.584V7.97q-.303.701-.864 1.426a2.4 2.4 0 0 0-.117-.351 5 5 0 0 0-.117-.351q.606-.63 1.003-1.682zm2.828 3.154V5.331h2.499v4.813h-.608v-.515h-1.285v.539zm.606-1.098h1.285V5.892h-1.285zm-27.219 7.148-.186-.537q.256-.14.397-.35l.14-.211q.116-.14.396-.56a2 2 0 0 0-.256.023q-.421 0-.584.046l-.164-.537q.165-.14.28-.327.469-.794.843-1.541l.606.186a16 16 0 0 1-1.05 1.636l.677-.022q.21-.33.373-.632l.538.257a33 33 0 0 1-1.355 1.961l1.029-.117v.046q-.048.211-.048.492-.933.071-1.635.187m1.986-.303v-.584h3.201v.584H19.63v1.144h1.543v.515h-3.74v-.397q-.069 0-.21.022-.7.118-1.634.28l-.095-.583q.585-.07 1.73-.234.163-.022.256-.023v.21a1.3 1.3 0 0 0-.022.21h1.541v-1.144zm-.046-.747-.28-.56q1.775-.54 2.569-1.496h-2.15v-.56h2.898v.583q-.374.49-.794.841.21.117.653.35c.282.156.49.273.632.35l-.374.492a23 23 0 0 0-1.402-.841 8 8 0 0 1-1.752.841m4.765-.094a29 29 0 0 0-.958-.795l.421-.444q.281.21.771.585.14.117.21.163zm-.21 2.71-.607-.211q.42-1.168.631-2.079l.209.07q.259.095.42.14-.114.375-.349 1.122a59 59 0 0 1-.304.959m.42-4.228a13 13 0 0 0-.934-.819l.421-.442q.162.115.49.372l.467.397zm.632 4.321-.164-.164q-.233-.188-.35-.28.701-.35.865-.702.186-.303.187-1.12h.63q0 .935-.234 1.354-.21.42-.935.912m-.14-4.415v-.537h1.66l-.212-.654.677-.07q.14.35.232.723h1.59v.537h-.49q-.469.794-1.005 1.24.584.256 1.566.396l-.07.14a3 3 0 0 0-.21.445q-1.192-.281-1.87-.608-.677.373-1.892.654a5 5 0 0 0-.28-.561q1.051-.21 1.612-.466-.514-.42-.983-1.17l.118-.07zm1.869.934q.513-.35.887-.934h-1.775q.373.584.887.934m.607 1.215h.632v2.15h-.632zm1.941-1.286v-.607h.49v-1.45h.561v1.45h.444v.607h-.444v1.986a.2.2 0 0 0 .07-.024 2 2 0 0 0 .491-.14v.63q-.21.071-.654.188-.608.164-.936.234l-.116-.608.584-.117v-2.15zm1.636.677v-2.101h.91a1 1 0 0 0-.07-.118l-.304-.467.584-.117q.07.14.28.421l.188.28h.607q.186-.28.42-.701l.632.14q-.21.304-.42.561h.935v2.102zm.257 2.828v-2.455h3.247v2.455h-.583v-.258h-2.08v.258zm.28-3.271h1.099v-1.191h-1.099zm.584-.187a8 8 0 0 0-.396-.608q-.048-.024-.048-.046l.328-.212q.046.072.116.188.233.327.327.49l-.327.187m-.28 1.915h2.078v-.468h-2.079zm0 .865h2.078v-.467h-2.079zm2.383-3.784h-1.075v1.19h1.075zm-.608 1.026-.327-.21q.28-.372.467-.654l.327.21q-.071.096-.234.35zm6.869 3.203q-2.01-.701-2.616-2.452h-.982v1.821q.77-.35 1.356-.56 0 .116.023.35v.304q-.818.28-1.332.49a6 6 0 0 0-.537.28l-.374-.538q.21-.185.21-.513v-1.635h-.887v-.608h.888v-2.267h.653v2.267h3.948v.608h-2.335q.536 1.33 2.382 1.892l-.069.07a4 4 0 0 0-.327.49zm-2.92-3.341a6 6 0 0 0-.304-.537 17 17 0 0 0 2.71-1.262l.398.515q-1.285.7-2.804 1.284" fill="#fff"/></svg>