<svg width="61" height="61" fill="none" xmlns="http://www.w3.org/2000/svg"><path d="M.142 60.022h60v-60h-60z" fill="#00a6d9"/><path d="M41.193 24.27a.26.26 0 0 0-.196-.086H19.228a.26.26 0 0 0-.196.086.26.26 0 0 0-.055.206l3.658 22.126c.02.12.127.212.25.212h4.489l.307 3.605h-1.889l4.396 4.397 4.405-4.405-1.887.002.306-3.599h4.567a.25.25 0 0 0 .25-.216l3.422-22.122a.27.27 0 0 0-.058-.206M32.78 41.983s-.988 1.016-2.597.906c-1.614.11-2.6-.906-2.6-.906-1.631-1.63-1.05-3.658-.482-4.706.352-.655 2.856-4.42 3.071-4.74v-.025l.01.012.009-.012v.025c.21.32 2.719 4.085 3.07 4.74.568 1.049 1.148 3.076-.481 4.706m6.907-13.058c-.59-.26-1.339-.167-2.056.123-2.702 1.097-4.54 1.49-7.38.6-1.79-.56-3.464-1.733-5.442-1.019-1.313.474-2.536.924-4.021.911l-.859-4.395h20.373zM9.22 17.29c2.158 0 2.998-1.178 2.998-3.053v-1.784c0-1.98-.787-2.98-2.25-2.98-.855 0-1.373.393-1.676.98h-.018V7.849c0-.733.233-1.249.963-1.249.731 0 .947.429.947 1.177v.804h1.856v-.643c0-1.785-.59-3.034-2.838-3.034-2.141 0-2.944 1.375-2.944 3.266v5.89c0 1.875.82 3.23 2.962 3.23m-.946-5.087c.034-.678.321-1.107.963-1.107.695 0 .963.429.963 1.214v2.107c0 .768-.285 1.213-.98 1.213-.68 0-.946-.465-.946-1.213zM18.38 7.695l-.069-.07a29 29 0 0 0-.795-.701l.42-.42q.492.396.888.746zm-.14 2.758-.607-.212q.233-.63.607-2.055.048.023.118.046.326.117.465.163-.233.89-.583 2.057m.328-4.255a34 34 0 0 0-.841-.817l.42-.398q.164.119.444.375c.2.172.351.303.444.397zm.583-.443v-.42h1.613V4.89h.607v.444H23.1v.421h-1.73v.35h1.568v.374H21.37v.375h1.847v.42h-4.206v-.42h1.752v-.375h-1.472v-.374h1.472v-.35zm.188 4.722V7.602h3.48v2.102q.046.725-.746.726h-.89a2 2 0 0 0-.139-.492q.28.024.793.023.398.024.375-.303V9.54h-2.266v.935zm.608-2.082h2.265v-.372h-2.265zm0 .749h2.265V8.77h-2.265zm4.551-1.378a8 8 0 0 0-.303-.281 7 7 0 0 0-.585-.536l.398-.445q.512.398.935.795zm-.117 2.71-.631-.233q.42-1.029.678-2.057.117.07.396.163l.211.071q-.094.329-.326 1.028-.212.7-.328 1.029m.328-4.254q-.094-.09-.304-.28-.42-.374-.608-.56l.398-.422q.116.096.35.304.42.352.607.515zm.584.024v-.56h1.612v-.748h.63v.748h1.73v.56h-1.73v.77h1.52v.539h-3.622v-.538h1.472v-.771zm.28 4.255V8.162h3.341V10.5h-.63v-.35H26.18v.35zm.608-.842h2.103V8.7h-2.103zm3.78-2.081-.327-.538a8.8 8.8 0 0 0 .748-2.15l.607.07a8 8 0 0 1-.211.748H31.9V6.2l-.374 1.005a4 4 0 0 0-.515-.117l.35-.865h-.77q-.187.586-.63 1.356m.608 2.71-.374-.466a.54.54 0 0 0 .187-.467v-2.43h.584v2.383a.8.8 0 0 1 .187-.118q.42-.256.607-.396.046.188.07.537a.4.4 0 0 1 .023.118l-.35.21a7 7 0 0 0-.607.35l-.047.047a1.1 1.1 0 0 0-.28.234zm1.332.21a2 2 0 0 1-.14-.162 3.5 3.5 0 0 0-.304-.375q1.473-.77 1.682-2.243.046-.49.047-1.098h.607q0 .42-.023.795.256 1.683 1.635 2.453a5 5 0 0 0-.35.42 1 1 0 0 0-.094.142q-1.12-.82-1.448-1.94-.256 1.143-1.612 2.009m2.92-3.083a3.6 3.6 0 0 0-.584-.187l.421-.958h-1.73q-.233.63-.536 1.262a1 1 0 0 1-.187-.094 2 2 0 0 0-.374-.187q.584-1.098.888-2.36l.631.117q-.093.35-.234.7h2.126v.562zm1.235 2.544a2 2 0 0 0-.187-.326 5 5 0 0 0-.14-.235q1.192-1.143 1.519-2.593h-1.332v-.585h1.986v.561q-.398 1.871-1.846 3.179m5.046-.116q-1.54-1.145-2.15-2.711v2.384q.048.864-.84.888h-.374a7 7 0 0 1-.466.024 3 3 0 0 0-.095-.421.8.8 0 0 0-.046-.187h.701q.492 0 .467-.444V4.914h.654v.982q.21.584.468 1.075.63-.537 1.262-1.169l.49.469a35 35 0 0 1-1.448 1.238q.607.935 1.751 1.753a16 16 0 0 1-.232.374q-.092.164-.14.21v-.001zm.814-2.689v-.56h.981v-.77q-.14 0-.42.022-.303 0-.445.024a4 4 0 0 1-.046-.328 1 1 0 0 1-.046-.257 25 25 0 0 0 2.313-.163l.117.561a8 8 0 0 1-.889.093v.818h.958v.56h-.958v.749l.21-.21q.14.116.422.373.278.256.42.374l-.397.467a9 9 0 0 1-.305-.328l-.35-.35v2.244h-.584v-2.36a6.7 6.7 0 0 1-.864 1.425 2 2 0 0 0-.117-.35 4 4 0 0 0-.117-.35q.608-.632 1.005-1.684zm2.827 3.155V5.475h2.5v4.814h-.606v-.514H45.35v.537zm.607-1.098h1.286V6.036H45.35zm-27.74 8.46v-.584h1.822v-3.738h-1.541v-.633h4.882q0 .237-.023.772a35 35 0 0 1-.048 1.38q.024 1.143-1.12 1.121-.35.023-.889.023a26 26 0 0 1-.14-.701q.303.024.84.024.656.07.656-.632v-.538q.023-.56.023-.817H20.11v3.74h3.06v.583zm6.654-2.547a6 6 0 0 0-.583-.35q.7-.89 1.098-2.127l.654.117q-.14.42-.304.772h1.168V12.37h.654v1.169h2.033v.606H26.95v1.145h1.846v.608H26.95v1.262h2.337v.538H23.75v-.538h2.547v-1.262h-2.01v-.608h2.01v-1.145h-1.45q-.21.468-.583.983m6.258 2.523-.396-.42a.9.9 0 0 0 .163-.514v-1.87h-.585v-.585h1.192v2.22q.282-.28.56-.584.119.35.212.584l-.374.374a18 18 0 0 0-.467.445q-.165.187-.304.35m.304-3.856a2 2 0 0 1-.14-.163q-.256-.329-.654-.865l.513-.328q.468.492.843 1.005zm.584 4.182a4 4 0 0 1-.163-.28 3 3 0 0 1-.163-.28q1.003-.234 1.658-.583-.538-.492-.98-1.334l.21-.116h-.399v-.56h3.342v.607a5.4 5.4 0 0 1-1.12 1.425q.606.329 1.54.491a7 7 0 0 0-.303.584q-1.192-.373-1.775-.7-.726.443-1.847.747m.328-3.295a4 4 0 0 0-.42-.467q.817-.35.747-1.05v-.54h2.5v.96q-.024.326.304.303h.513l-.094.538h-.676q-.678 0-.654-.561v-.678h-1.285v.14q.069.842-.934 1.355zm.632.702q.371.677.887 1.122.583-.42.98-1.122zm7.073 1.542V15.22l-.608.118v1.565q-.023.467.467.42h1.028q.491.025.538-.304 0-.022.023-.116 0-.117.07-.397.092.025.257.093a1 1 0 0 1 .234.094q-.047.375-.14.607-.095.538-.842.516H39.07q-.771 0-.77-.748v-1.614l-.282.046-.046-.513.328-.07v-.631a.4.4 0 0 1-.117.117 11 11 0 0 0-.397-.42l.115-.142h-1.073q0 .423-.023.774h1.028q-.001 1.051-.047 2.335.023.843-.678.843a6 6 0 0 1-.468.023 5 5 0 0 0-.093-.374 1 1 0 0 0-.046-.165q.14.023.42.023.327.001.35-.397.047-.91.047-1.775h-.514v.023q0 1.87-.678 2.78-.047-.045-.209-.186l-.211-.21q.537-.772.561-2.337v-.607q.023-.492.023-.749h-.444v-.537h.934a8 8 0 0 0-.234-.864l.608-.07.07.28q.117.443.163.654h.584v.468a4.7 4.7 0 0 0 .795-1.403l.632.047a9 9 0 0 1-.28.632h2.266v.536h-2.571q-.21.328-.513.678h.537v.561l.607-.14v-.91h.538v.816l1.191-.257q.001.164-.022.491-.025.677-.048 1.005 0 .631-.49.654-.165.024-.49.024a5 5 0 0 0-.095-.397.4.4 0 0 1-.022-.117q.092.023.326.023.28 0 .281-.257.045-.42.046-.794l-.677.14v1.823h-.538z" fill="#fff"/></svg>