<svg width="61" height="61" fill="none" xmlns="http://www.w3.org/2000/svg"><path d="M.543 60.987h60v-60h-60z" fill="#0076ba"/><path d="M46.567 44.763c-.755-1.019-5.633-7.238-12.472-7.238-5.938 0-12.29 5.386-12.29 5.386s-2.386-4.884-7.268-5.354c-.03 0-.06-.005-.093-.005h-.029c-.102.005-.197.105-.187.192a.5.5 0 0 0 .078.179c.628 1.044 2.234 4.016 2.234 6.984 0 2.98-1.616 5.958-2.239 6.998l-.042.066a.2.2 0 0 0-.03.103c0 .103.08.184.18.192l.053-.004q.024.001.05-.004c4.898-.457 7.293-5.355 7.293-5.355s6.352 5.386 12.29 5.386c6.84 0 11.717-6.219 12.473-7.236l.052-.07a.2.2 0 0 0 .017-.076.2.2 0 0 0-.017-.074zm-8.67.93a1.996 1.996 0 0 1 0-3.99 1.996 1.996 0 1 1 0 3.99M21.356 31.951a.2.2 0 0 1 .052-.054.2.2 0 0 1 .109-.036c.05 0 .098.02.132.054l.01.009c3.728 3.553 7.638.673 8.452 0l.08-.076a.22.22 0 0 1 .152 0l.08.075c.813.674 4.723 3.554 8.451 0l.007-.008a.2.2 0 0 1 .134-.054c.04 0 .077.016.107.036a.2.2 0 0 1 .056.054c.722.71 3.845 3.398 7.15.53a.2.2 0 0 0 .056-.139v-1.365a.194.194 0 0 0-.195-.196q-.02.002-.04.01l-.1.048c-1.014.51-4.166 1.715-7.022-.984l-.084-.078a.16.16 0 0 0-.084-.02.14.14 0 0 0-.059.015.16.16 0 0 0-.098.074c-.853.648-4.763 3.296-8.246.046l-.05-.05a.2.2 0 0 0-.142-.054c-.05 0-.102.02-.135.054l-.055.05c-3.48 3.25-7.394.602-8.245-.046a.16.16 0 0 0-.097-.074.16.16 0 0 0-.143.005q-.041.04-.085.078c-2.858 2.7-6.006 1.493-7.021.984l-.1-.049c-.017-.003-.026-.009-.04-.009a.197.197 0 0 0-.195.196v1.365c0 .056.022.102.056.138 3.302 2.87 6.427.182 7.151-.529zm-6.973-6.114c-.015-.003-.025-.01-.038-.01a.2.2 0 0 0-.196.2v1.36c0 .057.022.107.056.142 3.302 2.868 6.428.18 7.15-.53.017-.021.031-.042.054-.056a.2.2 0 0 1 .107-.034c.05 0 .1.02.134.051q.002.006.008.01c3.73 3.558 7.64.675 8.452 0l.081-.075a.2.2 0 0 1 .074-.013.2.2 0 0 1 .077.013l.081.075c.814.675 4.724 3.558 8.453 0 0-.003.005-.006.006-.01a.2.2 0 0 1 .133-.051.2.2 0 0 1 .109.034q.031.022.054.056c.723.71 3.845 3.398 7.15.53a.2.2 0 0 0 .056-.142v-1.36c0-.11-.086-.2-.193-.2-.015 0-.028.007-.042.01l-.1.051c-1.015.509-4.164 1.717-7.022-.987l-.083-.078a.2.2 0 0 0-.082-.017q-.032.002-.06.008a.24.24 0 0 0-.1.078c-.852.648-4.762 3.296-8.243.047l-.052-.049a.2.2 0 0 0-.14-.058.2.2 0 0 0-.137.058l-.053.05c-3.482 3.248-7.395.6-8.247-.048a.23.23 0 0 0-.095-.078q-.03-.006-.063-.008a.2.2 0 0 0-.082.017 1 1 0 0 1-.085.078c-2.857 2.705-6.006 1.496-7.02.987q-.056-.026-.101-.052zM8.316 6.035v12.092H6.283V8.871h-.019l-1.426 1.48H4.82V8.23l1.873-2.194zm6.192 12.095v-1.962h.82v-1.59h-.82V6.031h-2l-3.515 8.887v1.25h3.587v1.962zm-3.73-3.551 1.82-4.978h.019v4.977zm8.926-4.275a2 2 0 0 0-.186-.327 5 5 0 0 0-.14-.234q1.191-1.143 1.518-2.592h-1.332v-.585h1.987v.56a5.8 5.8 0 0 1-1.846 3.177m5.048-.116q-1.544-1.145-2.15-2.71v2.384q.046.862-.842.886h-.374a7 7 0 0 1-.466.024 3 3 0 0 0-.094-.42 1 1 0 0 0-.046-.187h.7q.491 0 .467-.444V5.26h.655v.981q.21.585.466 1.075.632-.536 1.261-1.17l.49.47q-.56.512-1.446 1.238.606.933 1.75 1.753-.07.116-.231.372a1.3 1.3 0 0 1-.14.21m.789-3.926v-.63h5.56v.63H28.44v1.426l.374-.468q.934.539 2.032 1.26l-.444.586q-.49-.329-1.33-.888-.421-.303-.632-.444v3.06h-.724V6.262zm6.655 1.729a6 6 0 0 0-.584-.35q.702-.889 1.098-2.127l.653.117q-.139.42-.303.772h1.169V5.235h.653v1.17h2.033v.606h-2.033v1.145h1.846v.607h-1.846v1.261h2.337v.537h-5.538v-.537h2.548V8.763h-2.01v-.607h2.01V7.01h-1.45q-.21.468-.584.981m5.814-.116a.7.7 0 0 0-.14-.046l-.28-.094q.234-.722.328-1.962l.443.046q-.023.374-.093.724h.398V5.26h.583v1.284h.468v.444q.513-.77.794-1.728l.584.14a5 5 0 0 1-.186.443 4 4 0 0 1-.117.281h2.313q-.025.772-.07 2.477-.047.84-.047 1.098.023.959-.934.98h-.352a5 5 0 0 1-.42.024 1 1 0 0 0-.024-.163 2 2 0 0 0-.116-.422q.397.024.723.024.539.024.538-.56.093-1.566.117-2.874h-.374q-.117 2.92-1.915 4.04a3.4 3.4 0 0 0-.468-.465q1.776-1.098 1.963-3.574h-.422q-.21 1.752-1.4 2.802a3 3 0 0 0-.445-.444q1.145-.888 1.425-2.359h-.374a5.2 5.2 0 0 1-.583.957 9 9 0 0 0-.422-.396l.117-.164h-.374V8.18l.49-.117q0 .42.025.607-.28.07-.515.142v2.007h-.583V8.95q-.446.14-.958.304l-.07-.678q.49-.116 1.028-.257V7.103h-.468a4 4 0 0 1-.094.351q-.044.304-.092.42z" fill="#fff"/></svg>