<svg width="61" height="61" fill="none" xmlns="http://www.w3.org/2000/svg"><path d="M.016 60.575h60v-60h-60z" fill="#004c88"/><path d="M39.833 27.206s-.582.774-.413 1.528c.17.753 1.03 1.201 1.03 1.201s.583-.774.413-1.527c-.17-.755-1.03-1.202-1.03-1.202m-.949 4.418s.582-.775.412-1.528c-.17-.755-1.028-1.2-1.028-1.2s-.584.77-.415 1.525c.171.754 1.031 1.202 1.031 1.202m2.394-.828s.614.62 1.315.558c.7-.062 1.22-.784 1.22-.784s-.614-.62-1.314-.558c-.7.063-1.221.784-1.221.784m1.008-3.313c-.57.578-.49 1.601-.49 1.601s1.005.087 1.576-.49c.57-.578.49-1.6.49-1.6s-1.006-.088-1.576.489m-1.257 5.612c.698.083 1.354-.515 1.354-.515s-.476-.734-1.173-.817c-.699-.082-1.356.517-1.356.517s.477.734 1.175.816m.622 11.221h-5.217a.739.739 0 1 0 0 1.476h5.217a.738.738 0 0 0 0-1.476m0 8.135h-5.217a.738.738 0 1 0 0 1.477h5.217a.738.738 0 0 0 0-1.477m-23.464-9.928a3 3 0 0 0-.362-.092s.133.041.362.092" fill="#fff"/><path d="M41.46 46.308h-4.835a.42.42 0 0 0-.42.42v1.464l-3.157.346-4.61-.105v-2.816a13 13 0 0 0 1.834-.372c4.438-1.253 5.408-4.018 5.31-6.556-.096-2.585.731-3.59 1.92-4.037.34-.126.677-.208.985-.26.013.636.142 1.374.426 2.254q.158-.01.315-.027c-.3-.9-.428-1.64-.435-2.272.614-.072 1.052-.03 1.052-.03s-.415-.224-1.001-.715c.2-1.224.928-1.976 1.681-2.744.413-.424.84-.86 1.177-1.381l-.263-.168c-.32.493-.735.92-1.138 1.33-.734.75-1.472 1.517-1.724 2.732a10 10 0 0 1-.759-.765c-1.094-1.228-2.503-.326-4.513 1.544s-4.538 1.934-7.005-.591c-3.258-3.335-6.1-3.316-8.048-3.126 1.332.568 1.8 1.813 2.474 4.977.706 3.323 2.49 4.825 4.93 5.033-1.132.183-1.425.34-3.243 1.595-1.418.98-3.416.67-4.226.485 1.487.464 3.246 2.023 4.823 2.566.916.315 1.883.51 2.873.59v2.695l-8.746-.19v1.883l15.911-.353 3.157.346v1.463c0 .232.188.422.42.422h4.834c.234 0 .422-.19.422-.422v-4.796a.42.42 0 0 0-.422-.42m-14.818-.591q.516.01 1.035-.028v2.726l-1.035-.024zm-9.955 4.04c0 .397-.276.718-.618.718h-.371c-.342 0-.619-.322-.619-.718v-1.3c0-.398.278-.718.619-.718h.371c.342 0 .618.32.618.718zM4.62 7.802v2.122h.018l1.427-1.48h.018v9.26h2.034v-12.1H6.493zm10.617 6.994V13.01c0-1.98-.785-2.98-2.248-2.98-.858 0-1.373.393-1.676.981h-.019V8.408c0-.733.23-1.249.964-1.249.731 0 .946.428.946 1.177v.803h1.854v-.644c0-1.782-.588-3.031-2.837-3.031-2.14 0-2.943 1.374-2.943 3.264v5.888c0 1.874.821 3.23 2.962 3.23 2.158 0 2.997-1.177 2.997-3.051m-2.016.178c0 .768-.286 1.214-.981 1.214-.678 0-.946-.464-.946-1.214v-2.212c.036-.678.322-1.107.964-1.107.696 0 .963.43.963 1.213zm5.485-7.885v-.561h.981v-.77q-.141 0-.42.023-.304 0-.444.022a4 4 0 0 1-.047-.326 1 1 0 0 1-.046-.257 26 26 0 0 0 2.313-.163l.116.56q-.42.07-.887.095v.815h.957v.562h-.957v.747l.21-.21q.14.115.42.373.281.257.42.374l-.396.467a7 7 0 0 1-.304-.327l-.35-.35v2.241h-.585v-2.36c-.203.47-.49.943-.864 1.427a2 2 0 0 0-.117-.352 4 4 0 0 0-.117-.349q.608-.63 1.004-1.682h-.887zm2.827 3.154V5.407h2.5v4.813h-.607v-.514h-1.285v.536h-.607m.608-1.098h1.285V5.966h-1.285zM25.01 5.71v-.607h5.047v.607H27.86v2.22h2.477v.607H27.86v1.892h-.653V8.537H24.73V7.93h2.477V5.71zm1.192 1.94q-.49-.632-1.028-1.24l.467-.372q.56.583 1.05 1.214zm2.57.021-.468-.396q.516-.515 1.075-1.238l.49.35q-.536.678-1.097 1.284m4.436 2.127-.468.467-1.262-1.378.444-.397zm3.944-3.948v-.608h5.116v.608H40.33v1.448h1.728v.607H40.33v1.66h2.125v.56h-5.56v-.56h.84V6.62h.655v2.945h1.261V5.85zm11 4.51q-1.635-.515-2.406-1.169-.84.654-2.43 1.239l-.093-.164a27 27 0 0 0-.304-.467q1.447-.397 2.336-1.075-1.03-1.122-1.682-3.224l.63-.234q.536 1.939 1.543 3.014 1.074-1.168 1.472-3.06l.653.187q-.514 2.15-1.611 3.317.795.631 2.29 1.028-.095.093-.28.42a2 2 0 0 0-.118.187M45.699 6.41a19 19 0 0 0-.607-1.378l.56-.21q.233.398.653 1.354zm3.289 1.917h4.066v.607h-4.066zm2.594 2.008a2.4 2.4 0 0 0-.14-.63q.56.023 1.167.023.819.025.818-.607.093-.77.094-1.542H49.76l.233-2.734h.677l-.069.772h3.948v.607h-3.995l-.07.77h3.762q-.026.516-.117 1.731a9 9 0 0 0-.024.49q0 1.144-1.26 1.12zm-32.175 4.183-.092.817h1.097q-.046 1.261-.07 1.682-.024.841-.865.794a9 9 0 0 1-.607.024q.001-.163-.094-.585h.561q.443.025.444-.35.046-.607.047-1.027H18.73l.164-1.894h1.005v-.864h-1.146v-.537h1.684v1.94zm1.542-.35v-1.59h2.897v1.59H22.68v.537h1.355v1.73H22.68v.7q.116 0 .35-.024h.35a9 9 0 0 0-.211-.397l.515-.187q.045.093.163.28.329.56.492.91l-.515.187-.163-.303q-1.94.092-3.085.164l-.07-.561q.82 0 1.612-.047v-.723h-1.355v-1.73h1.355v-.537zm.35 1.799h.818v-.77h-.818zm.21-2.268h1.776v-.655H21.51zm1.987 1.496h-.817v.77h.817zm1.328-.748v-.63h2.36q.023-.514.022-1.473h.702l-.047 1.472h2.36v.631h-2.336q.304 2.009 2.453 2.78-.235.233-.444.585-1.94-.84-2.36-2.478-.375 1.59-2.36 2.548l-.257-.35a3 3 0 0 1-.187-.235q2.244-.934 2.383-2.85zm6.047-.491v-.56h.7v-1.074h.585v1.073h.678v.56h-.678v.749l.14-.141q.28.21.748.702l-.374.42a3 3 0 0 0-.257-.28 7 7 0 0 0-.257-.28v2.757h-.584v-2.665a5.7 5.7 0 0 1-.678 1.333 1 1 0 0 0-.024-.164 5 5 0 0 0-.14-.655q.515-.652.841-1.776zm2.032 3.948a3 3 0 0 0-.256-.21 3 3 0 0 0-.257-.233q.538-.56.678-1.1.162-.511.162-1.705v-2.032h2.197v4.323q0 .256.164.234h.07q.21.022.233-.28.024-.28.07-1.03.258.072.467.14-.046.795-.092 1.123-.07.583-.632.583h-.28q-.608 0-.608-.653v-3.855h-.98v1.471q-.001 1.262-.188 1.917-.187.63-.748 1.307m7.239-.092a3.3 3.3 0 0 0-.14-.584v-.024q.327.023 1.005.024.63.022.607-.608.046-.91.07-2.919h-1.962q-.094.139-.28.444a8 8 0 0 0-.281.443 6 6 0 0 0-.35-.303.5.5 0 0 0-.117-.094.4.4 0 0 0 .092-.14h-.607v.444l.748.584a.4.4 0 0 0 .117.093l-.35.492-.21-.211a7 7 0 0 1-.305-.28v2.733h-.585v-2.64a5.2 5.2 0 0 1-.63 1.285 40 40 0 0 1-.117-.678.8.8 0 0 1-.047-.187 6 6 0 0 0 .77-1.634h-.676v-.561h.7v-1.145h.585v1.145h.63v.537q.491-.701.912-1.705l.607.117-.14.28a4 4 0 0 1-.186.396h2.312q-.046 1.94-.092 3.646.022 1.027-1.028 1.027-.188 0-.585.024zm-1.097-1.216-.234-.536q.186-.116.35-.397a8.6 8.6 0 0 0 .771-1.566l.584.21q-.607 1.168-.911 1.66l1.098-.048a8 8 0 0 1-.187-.42l-.21-.421.467-.21q.398.749.794 1.59l-.514.232-.117-.28q-.816.024-1.331.093a3 3 0 0 0-.56.094" fill="#fff"/></svg>