<svg width="60" height="61" fill="none" xmlns="http://www.w3.org/2000/svg"><path d="M60 60.288H0v-60h60z" fill="#dc007a"/><path d="M5.767 8.149v9.27h2.035V5.31H6.177L4.301 7.507v2.126h.018L5.747 8.15zm9.465 6.145V8.436c0-1.894-.946-3.27-3.019-3.27-2.052 0-3 1.376-3 3.27v5.858c0 1.875.948 3.269 3 3.269 2.073 0 3.02-1.394 3.02-3.27m-3.983.321V8.113c0-.732.268-1.25.964-1.25.715 0 .983.518.983 1.25v6.502c0 .733-.268 1.25-.983 1.25-.696 0-.964-.517-.964-1.25m8.31-4.722L19 9.708q.328-.96.608-2.151.116.045.536.188a107 107 0 0 0-.583 2.148m.117-2.92a51 51 0 0 0-.584-1.425l.492-.187q.256.515.63 1.402zm1.542 2.686V7.79h1.403v1.846q.256-.28.467-.63-.141-.631-.211-2.36a2 2 0 0 1-.023-.257h-1.893v1.098q0 1.122-.14 1.73-.14.63-.537 1.332l-.42-.258a.3.3 0 0 1-.093-.046q.677-1.005.629-2.78V5.852h2.43v-.865h.56v.865h.655a5 5 0 0 1-.21-.235q-.21-.208-.304-.304l.351-.257q.093.095.304.281l.257.256-.35.258h.56v.537h-1.238v.21q.047 1.028.117 1.658.28-.606.537-1.377l.491.21q-.397 1.168-.887 2.008.045.234.14.491.117.282.233.282.095 0 .117-.163.046-.165.07-.68a1 1 0 0 0 .024-.162q.233.093.444.163-.047.468-.118.912-.116.56-.537.56-.537-.024-.794-.793-.351.397-.77.84a6 6 0 0 0-.423-.374l.188-.186q.095-.071.35-.328zm-.023-2.827h1.473v.49h-1.473zm.468 2.36h.513v-.935h-.513zm3.97-.772a4 4 0 0 0-.607-.326 17 17 0 0 0 1.19-2.336l.632.233q-.584 1.38-1.216 2.43m-.28 2.151a7 7 0 0 0-.327-.654q3.06-.444 4.369-2.313l.536.421q-1.518 1.961-4.579 2.546m2.126-5.56h.653v3.41h-.653zm2.687 2.804a48 48 0 0 0-1.496-1.823l.492-.351q.886.959 1.54 1.753zm1.007-1.778v-.631h5.35v.631h-2.055q-.353.561-.702 1.051h.373v3.458h-.7v-3.06q-.748.887-2.056 1.752a3.2 3.2 0 0 0-.422-.56q1.941-1.238 2.711-2.64zm4.976 3.084a34 34 0 0 0-1.798-1.425l.42-.444q.958.656 1.87 1.332zm1.121-3.271v-.608h5.047v.608H40.12v2.22h2.477v.606H40.12v1.893h-.654V8.677h-2.477v-.606h2.477V5.85zm1.191 1.94q-.49-.633-1.026-1.238l.466-.375q.56.585 1.05 1.216zm2.57.023-.466-.398q.513-.513 1.073-1.238l.492.35q-.54.678-1.098 1.286m2.313-1.144a5 5 0 0 0-.445-.398q.68-.537 1.051-1.354l.61.07a2.4 2.4 0 0 1-.235.443h1.495V5.9h-1.168l.328.326.163.164-.397.327a8 8 0 0 0-.514-.56l.327-.258h-.538q-.186.303-.677.772m.069.583v-.467h2.01V6.46h.631v.327h2.08v.467h-2.08v.467h2.5v.514h-5.561V7.72h2.43v-.467zm-.232 1.939v-.49h3.48v-.467h.632v.467h1.098v.49h-1.098v.514q.023.772-.818.795-.327.023-.911.023-.023-.14-.072-.398a1 1 0 0 0-.045-.163q.42.024.77.024.469.024.444-.397v-.398H44.42q.232.165.7.538-.069-.023.093.093l-.42.374a7 7 0 0 0-.843-.677l.328-.328zm2.967-2.71a4 4 0 0 0-.188-.116 2 2 0 0 0-.325-.188q.535-.582.817-1.26l.608.069a4 4 0 0 1-.21.444h1.681v.467h-1.261q.093.07.28.235.165.138.257.232l-.374.351a9 9 0 0 0-.583-.538l.304-.28h-.561q-.21.303-.445.584M35.212 39.87H24.165c-.066 0-.12.06-.12.134v3.32c0 .075.054.136.12.136h11.047c.067 0 .122-.06.122-.136v-3.32c0-.074-.055-.133-.122-.133m0-7.065H24.165c-.066 0-.12.06-.12.134v3.32c0 .075.054.135.12.135h11.047c.067 0 .122-.06.122-.135v-3.32c0-.074-.055-.134-.122-.134m-.155-5.018-5.302-5.302a.094.094 0 0 0-.13 0l-5.302 5.302a.092.092 0 0 0 .066.157h10.605c.08 0 .122-.1.064-.157zM40.035 43.5l5.303-5.302a.094.094 0 0 0 0-.13l-5.303-5.3a.091.091 0 0 0-.156.063v10.606c0 .08.099.122.156.064m-15.713 4.977 5.302 5.302a.094.094 0 0 0 .13 0l5.302-5.302a.092.092 0 0 0-.066-.157H24.384c-.08 0-.122.1-.064.157zm-4.978-15.712-5.302 5.302a.09.09 0 0 0 0 .13l5.302 5.302a.092.092 0 0 0 .157-.066V32.829c0-.08-.1-.122-.157-.064z" fill="#fff"/></svg>