<svg width="61" height="61" fill="none" xmlns="http://www.w3.org/2000/svg"><path d="M.218 60.255h60v-60h-60z" fill="#d7a700"/><path d="M24.168 51.235v.844l-.002.019.002.02a.4.4 0 0 0 .39.38h9.931a.4.4 0 0 0 .39-.398l.002-.002-.002-.003v-.955c5.573-1.828 9.746-6.345 10.663-11.849l.007-.033q.004-.028.005-.056a.4.4 0 0 0-.4-.4H13.608a.4.4 0 0 0-.4.4l.02.18c.965 5.558 5.252 10.1 10.94 11.853m10.703-25.901c-.131.184-3.178 4.575.068 8.123 1.488 1.629 1.36 3.066.934 4.036h2.082c.422-1.432.247-3.23-1.442-5.077-2.392-2.615.03-6.15.066-6.205.287-.403.133-.923-.337-1.166-.473-.24-1.085-.111-1.37.289m-5.274 12.16h2.083c.42-1.433.246-3.23-1.444-5.078-2.393-2.615.028-6.148.067-6.206.283-.4.132-.92-.34-1.163-.47-.24-1.084-.114-1.368.289-.132.183-3.182 4.574.067 8.121 1.488 1.63 1.359 3.068.935 4.037m-7.279-12.16c-.132.184-3.179 4.575.067 8.123 1.49 1.63 1.361 3.066.936 4.036h2.083c.42-1.432.247-3.23-1.445-5.077-2.392-2.615.03-6.15.068-6.206.283-.402.132-.921-.34-1.165-.47-.242-1.083-.112-1.369.29zm-10.562-9.629H8.422v-.572c0-.945.338-1.302.855-1.856l1.303-1.375c1.052-1.123 1.284-1.837 1.284-3.052V7.673c0-1.73-.84-2.553-2.66-2.553-1.782 0-2.693.947-2.693 2.642v1.463h1.856V7.707c0-.73.357-.945.786-.945.392 0 .731.16.731.91v1c0 1-.09 1.393-.75 2.089l-1.143 1.214c-1.104 1.178-1.516 1.963-1.516 3.159v2.232h5.282zm10.38-6.351q-1.566-.42-2.594-1.097-1.027.724-2.64 1.167a2.2 2.2 0 0 0-.234-.536q1.705-.398 2.594-1.077h.818l-.14.118q.959.585 2.43.888-.14.257-.234.538m-5.024-3.226v-.397h4.767v.397h-2.056v.328h2.313v1.122h-.585v-.725h-1.728v.935h-.609v-.935h-1.704v.725h-.608V6.456h2.312v-.328zm3.436 5.026a35 35 0 0 0-2.664-.818l.258-.422q.7.21 1.354.422l1.075-.608H17.58v-.445h1.846a4.5 4.5 0 0 0-.35-.513l.536-.116q.21.255.352.538l-.469.092h1.939v.49l-1.285.703.678.233-.28.445h.001m-2.78-3.482h1.097v.28h-1.097zm.046-.538h1.051v.28h-1.05zm2.36 0h1.075v.28h-1.075zm0 .538h1.097v.28h-1.097zm2.824.489q-.025-.047-.07-.14a3 3 0 0 1-.211-.445q.491-1.027.725-2.08l.584.094q-.094.35-.211.7h1.123v.514l-.305.888-.514-.116.28-.772h-.772a9.6 9.6 0 0 1-.63 1.356zm.677 2.688-.374-.421a.6.6 0 0 0 .164-.444V7.438h.583v2.385q.189-.164.584-.562.046.326.118.608-.164.139-.515.467-.164.14-.257.21a3 3 0 0 0-.303.305m1.122.304q-.189-.282-.397-.608.538-.54.677-1.052.165-.513.164-1.613V5.826h2.173v4.347q0 .235.162.21h.094q.187 0 .21-.279.024-.282.07-1.028.258.068.467.139-.045.795-.093 1.122-.07.584-.631.584h-.28q-.607 0-.607-.655V6.41h-.958v1.496q0 1.263-.21 1.893-.21.633-.84 1.357zm4.224-3.016a2 2 0 0 0-.116-.328 3 3 0 0 0-.116-.302q.42-.889.653-1.94l.585.092-.14.421q-.072.21-.094.305h.888v.514l-.28.981a1 1 0 0 0-.28-.093 1 1 0 0 1-.118-.047v2.313l.562-.466q.024.35.094.607a1.82 1.82 0 0 0-1.075.772l-.328-.42a.57.57 0 0 0 .187-.492V7.532h.56v.116l.234-.747h-.63a7 7 0 0 1-.585 1.239zm1.73 2.875a10 10 0 0 0-.117-.584q.092 0 .234.023h.234q.303.024.28-.257v-.96q-.35.074-.701.165l-.117-.584q.42-.071.819-.163v-.865h-.609v-.562h.608v-.7a3 3 0 0 1-.539.047 11 11 0 0 0-.069-.374 1 1 0 0 1-.023-.164q.747-.046 1.658-.21l.116.537a3.5 3.5 0 0 0-.583.093v.77h.817v-.114a35 35 0 0 1-.047-1.567h.562q0 .84.024 1.681h1.144v.562h-1.121q0 .63.07 1.122.303-.371.606-.818l.445.328a8 8 0 0 1-.98 1.215l.022.14q.14.678.352.655.139.022.186-.21.045-.35.07-.749.234.095.443.14-.069.539-.139.842-.117.608-.56.608-.585.023-.842-.981l-.047.046q-.256.211-.677.444a3 3 0 0 0-.327-.444v.233q.023.631-.607.631-.165.024-.584.024M32.55 8.98q-.28.072-.608.14v.982q.514-.327.935-.678-.023-.303-.071-1.074-.023-.351-.047-.561h-.817v.771l.327-.07q.187-.023.28-.047zm1.402-2.126a15 15 0 0 0-.654-.748l.397-.304q.21.21.63.654-.28-.303.048.071z" fill="#fff"/></svg>