<svg width="61" height="61" fill="none" xmlns="http://www.w3.org/2000/svg"><path d="M60.137 60.69h-60v-60h60z" fill="#f5a200"/><path d="M10.446 46.366h9.025c.122 0 .223-.1.223-.223a.2.2 0 0 0-.06-.146l-.01-.012-4.492-5.81-.043-.05a.23.23 0 0 0-.163-.071.22.22 0 0 0-.145.057l-.028.031-.042.048-4.382 5.747-.068.083a.2.2 0 0 0-.036.124c0 .122.098.223.22.223zm8.999.819H10.4c-.122 0-.221.1-.221.221v7.078c0 .122.099.223.22.223h2.913v-4.453a.22.22 0 0 1 .22-.221h2.7c.125 0 .224.098.224.221v4.453h2.988c.122 0 .221-.1.221-.223v-7.078a.22.22 0 0 0-.22-.22zm31.254-1.852h-8.95a.215.215 0 0 0-.219.212v9.039c0 .117.098.212.219.212h8.95c.122 0 .22-.094.22-.212v-9.039a.215.215 0 0 0-.22-.212m-4.897 5.9a.216.216 0 0 1-.218.215h-2.675a.22.22 0 0 1-.22-.215v-1.625c0-.118.099-.213.22-.213h2.675c.12 0 .218.095.218.213zm0-3.002a.216.216 0 0 1-.218.213h-2.675a.22.22 0 0 1-.22-.213v-1.627c0-.118.099-.212.22-.212h2.675c.12 0 .218.094.218.212zm4.087 3.002a.217.217 0 0 1-.22.215h-2.673a.216.216 0 0 1-.219-.215v-1.625c0-.118.098-.213.218-.213h2.674c.122 0 .22.095.22.213zm0-3.002a.217.217 0 0 1-.22.213h-2.673a.217.217 0 0 1-.219-.213v-1.627c0-.118.098-.212.218-.212h2.674c.122 0 .22.094.22.212zM29.893 24.355h-8.759a.214.214 0 0 0-.215.214v29.934c0 .118.097.215.215.215h8.759a.217.217 0 0 0 .216-.215V24.57c0-.12-.1-.214-.216-.214m-5.21 26.953a.116.116 0 0 1-.115.115h-2.007a.116.116 0 0 1-.113-.115v-2.236c0-.063.051-.114.113-.114h2.007c.063 0 .114.051.114.114zm0-5.134a.114.114 0 0 1-.115.114h-2.007a.114.114 0 0 1-.113-.114V43.94c0-.065.051-.116.113-.116h2.007c.063 0 .114.05.114.116zm0-5.131a.114.114 0 0 1-.115.114h-2.007a.114.114 0 0 1-.113-.114v-2.236c0-.064.051-.116.113-.116h2.007c.063 0 .114.052.114.116zm0-5.134a.115.115 0 0 1-.115.115h-2.007a.115.115 0 0 1-.113-.115v-2.236c0-.063.051-.113.113-.113h2.007c.063 0 .114.05.114.113zm0-5.13c0 .06-.052.113-.115.113h-2.007a.115.115 0 0 1-.113-.113v-2.236c0-.064.051-.116.113-.116h2.007c.063 0 .114.052.114.116zm3.932 20.53a.117.117 0 0 1-.116.114h-2.005a.116.116 0 0 1-.115-.115v-2.236c0-.062.05-.114.115-.114H28.5c.064 0 .116.052.116.114zm0-5.134a.114.114 0 0 1-.116.114h-2.005a.114.114 0 0 1-.115-.114V43.94c0-.065.05-.116.115-.116H28.5c.064 0 .116.05.116.116zm0-5.132a.114.114 0 0 1-.116.114h-2.005a.114.114 0 0 1-.115-.114v-2.236c0-.064.05-.115.115-.115H28.5c.064 0 .116.051.116.115zm0-5.134a.116.116 0 0 1-.116.116h-2.005a.115.115 0 0 1-.115-.116v-2.236c0-.063.05-.113.115-.113H28.5c.064 0 .116.05.116.113zm0-5.13a.116.116 0 0 1-.116.114h-2.005a.115.115 0 0 1-.115-.114v-2.236c0-.064.05-.116.115-.116H28.5c.064 0 .116.052.116.116zm22.293 13.644c0 .1-.08.18-.18.18h-9.01a.18.18 0 0 1-.179-.18v-1.802c0-.1.08-.18.18-.18h9.01c.1 0 .179.08.179.18zM40.473 30.007a.23.23 0 0 0-.22-.168.22.22 0 0 0-.125.042l-.017.01-.073.095-8.608 10.919-.041.054a.26.26 0 0 0-.075.17v13.42c0 .117.096.213.214.213h8.751c.12 0 .214-.097.214-.213V30.097a.2.2 0 0 0-.02-.09m-3.624 5.931.06-.079c.59-.754 1.583-1.977 2.067-2.57l.062-.075a.244.244 0 0 1 .431.108v2.764c0 .132-.105.24-.237.246l-.01.002-.011-.002h-2.152l-.01.002-.012-.002a.248.248 0 0 1-.188-.393m-1.363 15.294a.215.215 0 0 1-.214.214h-2.61a.215.215 0 0 1-.215-.214v-1.636c0-.116.096-.212.214-.212h2.61c.119 0 .215.096.215.212zm0-3.02a.214.214 0 0 1-.214.213h-2.61a.213.213 0 0 1-.215-.213v-1.635c0-.12.096-.213.214-.213h2.61c.119 0 .215.094.215.213zm0-3.018a.215.215 0 0 1-.214.213h-2.61a.215.215 0 0 1-.215-.213v-1.637c0-.116.096-.212.214-.212h2.61c.119 0 .215.096.215.212zm.007-6.616v3.598c0 .12-.096.215-.215.215H32.67a.214.214 0 0 1-.216-.215v-.453a.3.3 0 0 1 .017-.08c.005-.008.005-.012.013-.023a.1.1 0 0 1 .02-.03l.023-.035c.334-.476 1.84-2.333 2.473-3.107l.064-.076a.245.245 0 0 1 .43.108zm3.984 12.654a.215.215 0 0 1-.214.215h-2.61a.215.215 0 0 1-.215-.215v-1.635c0-.116.096-.212.216-.212h2.61c.117 0 .213.096.213.212zm0-3.019a.213.213 0 0 1-.214.213h-2.61a.214.214 0 0 1-.215-.213v-1.635c0-.12.096-.213.216-.213h2.61c.117 0 .213.094.213.213zm0-3.018a.214.214 0 0 1-.214.213h-2.61a.215.215 0 0 1-.215-.213v-1.637c0-.116.096-.212.216-.212h2.61c.117 0 .213.096.213.212zm0-3.02a.213.213 0 0 1-.214.212h-2.61a.214.214 0 0 1-.215-.213V40.54c0-.118.096-.213.216-.213h2.61c.117 0 .213.095.213.213zm0-3.021c0 .12-.096.214-.214.214h-2.61a.214.214 0 0 1-.215-.214V37.52c0-.12.096-.215.216-.215h2.61c.117 0 .213.094.213.216zM4.423 7.911v2.123h.018l1.428-1.481h.017v9.26H7.92V5.716H6.296zm4.64 0v2.123h.018l1.428-1.481h.016v9.26h2.035V5.716h-1.624zm7.573-1.565V5.76h5.654v.585h-.772V9.99q.023.84-.888.888h-1.05a9 9 0 0 0-.117-.584h.887q.562.024.515-.49V6.345zm.606 3.573V7.116h2.64v2.406h-2.008v.398zm.632-.934h1.379V7.653h-1.379zm4.812-1.962v-.561h.654V5.387h.584v1.075h.585v.56h-.585v1.029l.281-.07a3 3 0 0 0 .28-.047q0 .35.024.607l-.585.116v1.612q0 .61-.584.632h-.561a5 5 0 0 1-.116-.607h.093q.21.021.328 0 .28.023.256-.235V8.797a.4.4 0 0 0-.117.023q-.21.049-.56.141l-.07-.677.747-.116V7.022zm2.15-.398V6.09h1.262v-.702h.606v.702h1.31v.536h-1.31v.654h1.566v.562h-3.715V7.28h1.543v-.654zm-.257 2.36v-.561h2.29v-.42h.63v.42h.749v.56H27.5v1.146q.023.748-.795.747-.466.023-.888.024a4 4 0 0 1-.046-.373 1 1 0 0 1-.048-.233q.188.022.725.023.466.046.42-.375v-.958zm.981 1.238q-.163-.21-.654-.747l-.093-.094.42-.35q.163.164.49.466l.327.328zm3.154-2.499-.142-.538q.212-.186.305-.42a8 8 0 0 0 .701-1.425l.584.186a62 62 0 0 1-.91 1.636l.56-.023A3 3 0 0 1 30 6.79l.14-.282.49.235q-.56 1.05-1.167 1.962.139-.022.443-.048.303-.021.444-.022v.257a2 2 0 0 0-.023.257q-.305.024-.748.07a3 3 0 0 1-.304.023q-.212.025-.42.07l-.188-.514q.21-.14.397-.397.235-.326.444-.748-.303.026-.654.048a.7.7 0 0 1-.14.023m-.048 2.826-.094-.537q.118-.022.375-.046a29 29 0 0 0 1.448-.21v.537q-.513.069-1.519.233a1.4 1.4 0 0 1-.21.023m1.87-.98v-.514h1.681q.07-.444.07-1.425h.609q-.001.912-.071 1.425h1.378v.514h-1.495l-.046.116q.279.118.794.373.492.235.747.352l-.35.537a11.4 11.4 0 0 0-1.472-.795q-.444.444-1.8.843a3.4 3.4 0 0 0-.21-.399.6.6 0 0 1-.092-.163q1.518-.28 1.798-.864zm1.004-.63a50 50 0 0 0-1.004-.445l.186-.327q.375.118 1.005.42zm-.77-2.5v-.514h1.284v-.537h.631v.537h1.285v.514h-1.285v.49h1.471v.49l-.163.795a7 7 0 0 0-.56-.07l.186-.725h-3.037v-.49h1.472v-.49zm1.097 1.845q-.56-.256-.98-.42l.187-.328q.28.093.747.28.139.069.233.094l-.187.372zM16.682 14.78v-.562h.514v-1.354h.56v1.354h.467v.562h-.466v1.96a1 1 0 0 0 .116-.021 4 4 0 0 1 .35-.14q.001.092.025.303v.28q-.468.14-1.542.514l-.094-.63.585-.142v-2.125zm4.977 3.597q-.561 0-.843-.817-.372.396-.91.864a2.1 2.1 0 0 0-.396-.422q.652-.466 1.121-1.074-.187-.748-.281-2.5h-1.331v.724h1.075q0 .819-.048 1.683.023.726-.63.725a4 4 0 0 1-.374.023q0-.094-.048-.304a2 2 0 0 0-.046-.28h.304q.328.023.303-.303c.016-.17.024-.516.024-1.029h-.56q.022 1.823-.654 2.781a2 2 0 0 1-.233-.117 2 2 0 0 0-.305-.164q.397-.56.515-1.075.116-.49.116-1.589v-1.612h1.892a21 21 0 0 1-.023-1.027h.56q.001.186.023.537v.49h1.356v.537h-1.331q0 .142.023.375.047 1.076.117 1.448.35-.607.585-1.332l.49.21q-.421 1.122-.91 1.87-.001.024.022.07 0 .023.023.046.118.634.35.654.071.002.117-.186l.094-.537q0-.163.024-.258.232.095.467.165a10 10 0 0 1-.14.887q-.142.537-.537.537m.07-4.51-.632-.629.375-.282q.116.095.327.306.233.185.328.302zm.956.351v-.584h2.5a4 4 0 0 0-.093-.233 5 5 0 0 0-.187-.468l.7-.094q.047.117.117.328.14.304.187.468h2.29v.584h-2.43v.77h2.056V17q.022.794-.77.77-.375.025-.796.024a5 5 0 0 0-.115-.584q.373.024.653.023.421.025.398-.397v-1.261h-1.425v2.873h-.655v-2.873h-1.378v2.29h-.654V14.99h2.032v-.77zm5.981.887v-.56h.98v-.771a6 6 0 0 0-.419.023q-.304.001-.445.023a4 4 0 0 1-.046-.325 1 1 0 0 1-.047-.258 25 25 0 0 0 2.313-.164l.116.56a8 8 0 0 1-.887.094v.818h.958v.56h-.958v.748l.21-.21q.14.119.42.375t.421.373l-.397.467a7 7 0 0 1-.305-.326l-.35-.352v2.243h-.584v-2.36q-.303.704-.865 1.425a2 2 0 0 0-.116-.35 5 5 0 0 0-.117-.35q.608-.63 1.005-1.683zm2.828 3.155v-4.836h2.499v4.813h-.608v-.514H32.1v.537zm.606-1.097h1.285v-3.178H32.1zm2.641-.352a7 7 0 0 0-.187-.654q.96-.677 1.424-1.566h-1.285v-.56h1.917v.56q-.28.515-.584.98v2.852h-.584v-2.197l-.024.024q-.279.259-.677.56zm.958-2.826a35 35 0 0 0-.443-.841.06.06 0 0 1-.023-.048l.514-.233q.14.187.373.608.091.163.14.257zm1.028 2.78a15 15 0 0 0-.677-.772l.397-.35.725.724-.445.397m.141-1.637v-.606h1.214v-1.636h.632v1.636h1.308v.606h-1.308v2.524h1.472v.538H36.61v-.538h1.472v-2.524zm4.112 3.017V13.19h4.93v.608h-4.3v3.807h4.394v.538zm4.111-.771L43.83 16.11q-.794.747-1.472 1.285a10 10 0 0 0-.467-.491q.888-.63 1.472-1.214-.655-.655-1.33-1.238l.466-.397q.676.583 1.308 1.191.56-.585 1.052-1.285l.56.35q-.046.072-.14.187-.63.795-1.005 1.169l.07.07q.632.537 1.262 1.167z" fill="#fff"/></svg>