<svg width="61" height="61" fill="none" xmlns="http://www.w3.org/2000/svg"><path d="M.164 60.681h60v-60h-60z" fill="#c60f28"/><path d="m26.778 32.842-10.76-6.216v20.108l10.76 3.247zm1.183.041V49.99l10.831-3.259V26.627zM45.01 46.377h-.317l1.274 4.452 1.271-4.452h-.316.316v-17.89h-2.546v17.89z" fill="#fff"/><path d="m41.104 27.49-1.155-.912v20.7l-11.955 3.865h-1.216l-11.904-3.325v-21.24l-1.154.912v21.138l13.003 3.599h1.324l11.997-3.81 1.06-.311zm6.136-1.373a1.274 1.274 0 1 0-2.547 0v1.373h2.546zM9.572 17.791h1.927v-1.963h.821v-1.59h-.82v-8.55h-2l-3.515 8.89v1.25h3.586zM7.77 14.239l1.82-4.98h.018v4.98zm9.323-5.3a22 22 0 0 0-.14-.84 9.6 9.6 0 0 0 1.238-2.525l.632.21a10 10 0 0 1-.562 1.308v4.044h-.608v-2.97q-.279.376-.56.773m1.52-1.285v-.608h1.12a44 44 0 0 0 .023-1.448h.63q0 .28-.023.794v.654h2.126v.608h-2.173q-.046 2.127-1.472 3.506l-.49-.49q1.308-1.195 1.331-3.016h-1.074zm2.615 3.318q-.747.023-.724-.7V7.723h.63v2.409q-.023.303.257.28h.234q.28 0 .328-.327a1 1 0 0 1 .024-.164q.045-.467.069-.748.071.023.234.093.256.071.351.117-.07.584-.141.983-.14.606-.794.606zm.467-4.09a25 25 0 0 0-.888-.724l.398-.42q.49.349.91.7zm1.795 4.278a9 9 0 0 0-.49-.445q.606-.817.56-2.594V5.9a53 53 0 0 0 4.767-.233l.232.561q-.817.07-1.8.116v.632h1.824v.514H26.76v.538h1.495v1.893h-.606V8.565h-2.384V9.92h-.584V8.028h1.449V7.49H24.4v-.514h1.729V6.39q-1.285.047-1.963.047v1.706q0 1.169-.138 1.777a4 4 0 0 1-.54 1.238m.911.024a2 2 0 0 1-.116-.212 6 6 0 0 0-.188-.35q1.963-.28 2.033-1.239.047-.257.047-.538h.63q0 .281-.047.538-.022.211-.092.374.98.42 2.009.841l-.328.561q-.794-.468-1.892-.958-.49.63-2.056.982m4.998-4.392v-.49h.796v-.702h.56v.702h.654v.49h-.654v.538h.256q.56-.725.818-1.216l.444.258q-.303.536-.654.958h.326v.49h-.724l-.444.444h.936v.467l-.702.632v.046q.163-.023.444-.046l.538-.07q0 .35.024.513l-1.006.117v.492q0 .607-.63.676h-.724l-.094-.514q.094 0 .305.024h.28q.328-.024.304-.257v-.35l-1.215.164-.047-.515 1.262-.164v-.233l.608-.514h-.842q-.373.304-.866.608a1.6 1.6 0 0 0-.232-.35.3.3 0 0 0-.046-.095c.06-.046.156-.1.278-.163a2 2 0 0 1 .258-.163v-.304h.42q.119-.093.352-.305.117-.093.164-.14h-1.378v-.49h1.028v-.539zm2.71 1.917a1 1 0 0 0-.092-.14 2.4 2.4 0 0 0-.235-.422q.654-1.05.935-2.57l.608.07q-.048.21-.142.585a7 7 0 0 0-.092.326h1.635v.584h-.443q-.094 1.544-.654 2.431.442.561 1.167.959a1 1 0 0 1-.093.14 5 5 0 0 0-.258.444q-.815-.585-1.168-1.028-.467.513-1.308 1.098a2 2 0 0 1-.187-.234 3 3 0 0 0-.233-.28q.91-.514 1.378-1.099a4.7 4.7 0 0 1-.514-1.402q-.14.257-.305.538zm.702-1.356q.139 1.029.467 1.684.375-.726.467-1.895h-.864q-.024.095-.07.21m2.425-.746v-.49h2.523a4 4 0 0 0-.092-.282q-.049-.138-.072-.21l.724-.07.164.561h2.314v.49H39.16q.84.54 1.472 1.005l-.42.399-.492-.35q-1.45 0-3.131.046-.465 0-.793.07l-.187-.49q.396-.142.608-.28.302-.187.583-.399zm.653 4.534V8.05h4.276v2.337q.023.703-.77.702h-.935a2.3 2.3 0 0 1-.117-.396.4.4 0 0 1-.024-.118h.842q.396.021.373-.28v-.117h-3.014v.958zm.632-2.197h3.014v-.444h-3.014zm0 .841h3.014v-.444h-3.014zm.235-2.547a22 22 0 0 1 1.168-.022q.794-.025 1.19-.024a1.8 1.8 0 0 0-.326-.234 4 4 0 0 0-.328-.235l.164-.116h-.957a9 9 0 0 1-.911.631" fill="#fff"/></svg>