<svg width="61" height="61" fill="none" xmlns="http://www.w3.org/2000/svg"><path d="M.806 60.987h60v-60h-60z" fill="#427935"/><path d="M53.28 38.55c-1.582-2.216-8.731-11.07-22.024-11.07S10.814 36.335 9.23 38.55l-.174.246q.072.107.174.25c1.583 2.215 8.73 11.068 22.025 11.068 13.293 0 20.442-8.853 22.023-11.069q.104-.142.171-.249a7 7 0 0 0-.17-.246M23.84 33.079c.12-.176.519-.679.567-.741.102-.132.304-.16.447-.186.14-.026.33.053.353.16.024.106-.056.516-.124.588-.196.201-.703.487-.983.443-.216-.034-.3-.2-.26-.264m-.474.943c.02-.025.04-.046.047-.055.168-.191.5-.233.73-.268.23-.04.538.077.574.23.04.151-.577.432-.69.536-.32.294-.82.896-1.114.96a.34.34 0 0 1-.238-.026 9 9 0 0 1 .69-1.377m4.974 10.206c-.18.707-.39.962-.57 1.185-.179.226-.841.515-1.261.483-.422-.032-.48-1.156-.48-1.732 0-.2-.282.392-.43-.811-.095-.772-.589.08-.623-.433-.036-.514-.283-.411-.543-.73-.258-.321-.58.03-.942.191-.358.16-.21.244-.72.084-.015-.004-.02-.008-.034-.013a9.2 9.2 0 0 1-.681-4.528q.027-.046.057-.086c.49-.58.478-.715.478-.715l.544-.187s.864.133 1.516.378c.537.201 1.381.657 1.873.457.357-.146.634-.342.6-.637-.04-.371-.332-.46-.686-.21-.131.093-.408-.559-.627-.526-.218.032.27.766.085.797s-.558-.765-.621-.893c-.064-.127-.352-.447-.61-.203-.546.518-1.433.486-1.61.619-.544.406-.687-.133-.674-.462l.067-.224c.178-.195.812-.261 1.03-.115.24.16.412-.041.505-.138.095-.096.062-.25.002-.377-.06-.128.12-.222.243-.255.126-.033.538-.322.702-.42.168-.095 1.024-.198 1.406-.007a.74.74 0 0 0 .924-.187c.237-.28.538-.494.672-.559.134-.062-.33-.495-.711-.023-.383.47-.578.514-.759.514-.18 0-1.25-.267-1.38-.604s.335-.59.728-.781c.395-.19 1.474-.187 1.75-.248.562-.124 1.28-.405 1.641-.159.359.241-1.51.667-.895 1 .218.119 1.207-.57 1.544-.745.797-.412-.773-.548-.568-1.381.23-.945-1.924-.579-2.998-.5a9.2 9.2 0 0 1 4.987-1.457c4.37 0 8.029 3.026 9.004 7.094.006.202-.025.346-.046.43-.083.332-.716.618-1.084.082-.094-.136-.492-.51-.479.131.014.643.625.708.034 1.093-.593.385-.7.292-.975.389-.271.096-.536.758-.472 1.112.067.353.91 1.319.284 1.279-.147-.01-1.252-.766-1.435-1.252-.194-.512-.404-1.013-.553-1.398s-.541-.483-.872-.257.092.452-.146.933c-.236.483-.405.912-.752.514-.904-1.036-2.218-.525-2.423-1.678-.111-.624-.65-.564-1.1-.918-.452-.351-.704-.544-.78-.287-.066.224 1.416 1.398 1.522 1.699.158.447-.444.842-.884.947-.439.106-.632-.246-1.064-.696-.43-.448-.62-.77-.65-.417-.042.51.41 1.257.85 1.537.374.237.793.345.673.73-.122.385-.003.167-.423.583-.42.418-.5.55-.47 1.128s-.12.61-.21 1.092c-.09.481-.3.063-.48.77zm9.935-3.693c.31-.025.778.406.595.571s-.648.105-.883-.08c-.234-.18.147-.48.288-.491m-.395-.285c-.1-.038-.187-.132-.264-.36-.074-.226.117-.355.303-.264.19.096.436.379.436.531 0 .151-.374.133-.476.093m-4.087-.016c-.183.163-.65.103-.885-.08-.232-.181.147-.48.288-.493.311-.026.78.408.597.573m-3.783 1.838c-.127.21-.474 1.765-.707 1.585-.236-.182.094-1.806.161-1.93.366-.671 1.157-.638.546.345m1.26 6.035a9.3 9.3 0 0 1-2.602-.372.38.38 0 0 1-.113-.453c.288-.747 1.14-1.04 1.813-1.105 1.502-.146 3.475.974 3.79.795.315-.18.95-1.006 1.88-.972.636.023.631.131.845.212a9.22 9.22 0 0 1-5.613 1.895m6.531-2.694a1.7 1.7 0 0 1-.29-.108c-.506-.258-.445.153-.695.063-.25-.093.281-.67-.466-.182-.742.486-.542-.075-.867-.9-.327-.824.374-1.765.958-1.978.805-.292 1.304-.35 1.683-.443 1.111-.279 1.347-.939 1.55-.537l.108.215c.063.119.139.363.141.603a9.3 9.3 0 0 1-2.122 3.267m2.537-4.676c-.249-.067-1.288-1.506-.466-2.45.137-.155-.276-.614-.163-.623.45-.035.69.245.807.646q.016.267.016.537-.002.974-.193 1.89M8.38 6.02v12.093H6.348V8.857H6.33l-1.426 1.479h-.018V8.214L6.758 6.02zm6.707 2.622v1.053c0 1.015-.553 1.693-1.39 1.961 1.014.232 1.497.945 1.497 2.05v1.785c0 1.676-.892 2.764-2.942 2.764-2.071 0-2.803-1.177-2.803-3.013v-1.588h1.856v1.731c0 .713.249 1.175.947 1.175.622 0 .907-.445.907-1.087v-1.999c0-.641-.285-.98-.998-.98h-.856v-1.55h.767c.66 0 1.087-.34 1.087-.983V8.66c0-.66-.23-1.087-.873-1.087S11.41 8 11.41 8.748V9.98H9.556V8.91c0-1.783.732-3.031 2.836-3.031 1.873 0 2.694 1.052 2.694 2.764m3.854-.883a1.6 1.6 0 0 0-.188-.21 5 5 0 0 1-.257-.305q.865-.958 1.238-2.01l.679.07q-.047.117-.14.328a3 3 0 0 1-.07.163h3.643v.563h-3.923q-.377.699-.983 1.4m4.462 3.061q-.56.023-.748-.516-.234-.371-.21-1.68v-.211h-3.529v-.56h4.183v.723q0 1.074.14 1.495.047.14.188.14.115 0 .163-.21a.6.6 0 0 1 .023-.14q.047-.49.047-.77l.257.07q.163.07.233.092-.047.563-.116.912-.117.654-.631.655m-3.693-3.996h3.715v.514H19.71zm5.372 4.019V7.876a2 2 0 0 1-.163.257q-.19.327-.28.491a16 16 0 0 0-.118-.678 1 1 0 0 1-.023-.163q.632-1.098.958-2.546l.584.117q-.188.7-.397 1.308v4.181zm.981-4.766h.515V9.84h-.515zm1.121 2.594a5 5 0 0 0-.466-.281q.49-.56.653-1.192l.538.07-.116.35h2.148v.514H28.77q0 .117-.022.375v.28h1.425v.514h-1.332q.397.725 1.402.981a5 5 0 0 0-.328.514q-1.074-.42-1.424-1.12-.259.7-1.73 1.19-.117-.209-.303-.514 1.472-.42 1.611-1.05H26.74v-.515h1.426q.022-.305.023-.655h-.632a4 4 0 0 1-.374.539m-.373-1.59v-.49h2.15l.047-.607h-1.94v-.49h2.523l-.07 1.097h.63v.49zm3.991 2.126a7 7 0 0 0-.163-.468 1 1 0 0 0-.047-.139q.816-.677 1.542-1.8l.514.351q-.164.28-.538.748l-.046.046v2.897h-.631V8.623a6 6 0 0 1-.631.584m.164-1.938a4 4 0 0 0-.28-.61 7 7 0 0 0 1.402-1.424l.536.374a14 14 0 0 1-1.658 1.66m1.823.7v-.606h3.48v.607h-.958v1.892q.025.863-.864.864h-.958a40 40 0 0 1-.139-.583q.256.021.84.022.491 0 .469-.421V7.969zm.28-2.336h2.944v.583h-2.944zm3.616 2.149v-.56h2.71v.56h-1.191q-.376 1.005-.748 1.799.07 0 .211-.023.652-.024 1.005-.07-.21-.514-.422-1.005l.514-.186q.398.863.678 1.635.608-.794.608-2.734v-.092a.6.6 0 0 0 .023-.14h-.655v-.56h.655q.024-.514.023-1.147h.608q-.023.538-.023 1.147h1.47v.443q-.046 2.29-.07 3.013-.023.82-.794.842h-.817a3.4 3.4 0 0 0-.14-.584h.35q.233.023.35.023.42 0 .42-.468.095-1.378.095-2.709h-.889v.256q.024 2.43-1.169 3.645l-.537-.374q.211-.21.374-.398l-.374.118-.023-.046a.6.6 0 0 0-.047-.14q-.186.021-.514.046-.63.046-.91.07a5 5 0 0 0-.538.07l-.234-.491a.84.84 0 0 0 .281-.396q.373-.82.585-1.543zm.281-2.126h2.242v.583h-2.242z" fill="#fff"/></svg>