<svg width="628" height="128" fill="none" xmlns="http://www.w3.org/2000/svg"><path fill-rule="evenodd" clip-rule="evenodd" d="m64.001 14 7.697 7.699v9.583h9.594l7.235 7.243-8.55 8.55H48.034l-8.558-8.55 7.232-7.243h9.606v-9.594zC91.613 14 114 36.378 114 63.989V64l-7.696 7.696h-9.595v9.586l-7.246 7.243-8.547-8.55v-31.95l8.559-8.56 7.234 7.242v9.608h9.606L114 64c0 27.611-22.386 50-49.999 50h-.01l-7.689-7.707v-9.586h-9.594l-7.232-7.243 8.547-8.55h31.943l8.56 8.561-7.242 7.232h-9.598v9.597L63.99 114C36.378 113.989 14 91.6 14 63.989l7.696-7.696h9.586v-9.597l7.244-7.232 8.55 8.55v31.95l-8.55 8.55-7.244-7.232v-9.597h-9.597L14 63.989C14 36.378 36.386 14 64.001 14" fill="#e50012"/><path fill-rule="evenodd" clip-rule="evenodd" d="M577.973 49.497c-1.959.31-2.608-.493-1.959-2.41 1.3-3.063 3.01-4.522 5.121-4.35.161.483 10.415.631 30.747.483 1.147 0 1.785.236 1.959.716.324.324.15.891-.488 1.695-2.283 2.742-5.044 3.63-8.303 2.654-.812-.32-2.198-.716-4.146-1.198-1.463-.173-2.112.31-1.948 1.434v7.253c.161 2.901.324 5.311.485 7.25-.161 3.858-2.284 5.945-6.344 6.266q-6.348-.001-10.002-5.548c-.66-.652-.898-1.209-.737-1.691q.485-.481 1.701 0c4.393 1.776 7.078 1.606 8.065-.483.324-.642.574-1.769.724-3.384.174-1.448.249-4.338.249-8.687-.335-1.124-1.147-1.853-2.447-2.174-3.733 0-7.968.726-12.677 2.174m-21.24.247c-1.136.148-1.785.469-1.948.952-.164.331 0 .888.487 1.691q3.168 5.32 10.003.966c.324-.151.562-.151.737 0 .161.17.249.493.249.973a981 981 0 0 1-.488 10.618c-.335 2.742.638 3.866 2.924 3.383q4.158-.48 3.409-4.82c-.163-1.456-.313-3.546-.488-6.288v-6.523c-.149-1.125.25-2.175 1.225-3.127.161-.172.336-.408.485-.729.976-1.124 1.624-2.013 1.96-2.657.64-1.445.812-2.421.488-2.901-.488-.483-1.3-.324-2.448.48-6.016 4.521-11.551 7.167-16.595 7.982m25.625-10.393c-1.461.324-2.359.162-2.683-.48-.164-.803.247-1.768 1.222-2.893 1.3-1.286 2.835-1.938 4.634-1.938.488.32 2.109.567 4.88.73 2.611.158 6.921.243 12.929.243 1.472.804 1.136 1.854-.975 3.14-.965.15-1.863.236-2.686.236-9.428 0-15.198.32-17.321.962m-16.346 2.657c-2.611 1.297-4.482.889-5.621-1.209-1.136-1.448-.485-2.495 1.962-3.129 4.87-1.456 8.628-2.9 11.225-4.349.812-.32 1.3-.405 1.452-.246.172.334.086.88-.238 1.694q-1.948 4.831-8.78 7.24m-67.923 6.041q0 1.689-1.46 1.448c-3.747-.162-5.695.247-5.87 1.199-.812 1.285-1.125 2.174-.962 2.657.15.493.887.652 2.187.493.488 0 1.222-.088 2.198-.247 1.3-.32 2.358-.567 3.17-.729.488 0 .737.247.737.73 0 3.051-.074 4.828-.249 5.31-.313 1.449-.973 2.573-1.948 3.376-1.311 3.384-.164 4.83 3.42 4.35 4.384-1.928 7.818-4.67 10.243-8.208.335-.49.41-.888.249-1.209-.163-.32-.488-.395-.975-.236-.812.483-1.949.954-3.409 1.445-.488.162-.737.247-.737.247-.987.324-1.386.15-1.223-.49V53.6c-.163-.482.161-.729.984-.729h4.135c.812 0 1.472-.557 1.96-1.692.163-.965-.172-1.522-.984-1.68h-5.371q-1.443-1.206 0-2.411c2.123.148 3.583-.173 4.395-.976.66-1.284.164-2.087-1.449-2.41-4.731.644-7.818.718-9.29.235-1.3-.32-2.358.088-3.171 1.212-.487.642-.64 1.135-.487 1.445.16.321.659.494 1.471.494h1.461c.651 0 .975.31.975.962m32.207-2.654h-12.2c-.812 0-1.136-.409-.964-1.212.152-.815.563-1.21 1.214-1.21h11.95c1.148.804 1.148 1.619 0 2.422m.499-7.006c0 .962-.324 1.37-.987 1.21h-11.462c-.976 0-1.386-.407-1.214-1.21-.172-.642.152-1.05.964-1.201h11.474c.812 0 1.225.397 1.225 1.2m-1.948-4.35h-11.715c-4.071-1.433-6.191-.397-6.355 3.149.324 1.286.574 3.054.737 5.303.161 2.249.239 6.03.239 11.355-.164 3.535-.727 6.436-1.702 8.687-.984 2.098-.735 3.694.726 4.83 1.472.964 3.259.88 5.371-.248 3.248-1.604 6.668-4.423 10.252-8.44a157 157 0 0 1 7.804 7.242c3.908 2.893 7.405 1.68 10.49-3.63.651-1.437.327-2.175-.973-2.175q-7.812-1.205-15.362-4.82c1.449-.483 2.835-1.287 4.135-2.422q1.705-1.687-.976-3.373c-1.784-.803-2.76-.493-2.921.963-.324 1.458-1.225 2.572-2.696 3.386-.962-.323-1.937-.891-2.924-1.694-.809-.491-1.71-.727-2.683-.727-1.136.159-1.862.493-2.198.962-.152.645.161 1.136.973 1.46a49 49 0 0 1 5.382 3.372c-1.635 1.135-3.497 2.175-5.62 3.14-1.633.803-2.359.49-2.198-.965 0-.966.078-2.41.25-4.35 0-1.927.077-3.46.249-4.584-.172-1.125.477-1.766 1.937-1.939 5.382-.148 9.528-.063 12.449.247 3.26 1.607 4.97.803 5.133-2.422-.163-6.265-.086-9.564.239-9.885 0-3.052-1.874-4.19-5.607-3.386q-.732 1.22-2.436.965M485.89 44.184c-.976-1.286-.652-2.098.972-2.421 4.235-.804 8.705-3.77 13.425-8.923.649-.653 1.386-.8 2.198-.491.648.49.887 1.124.737 1.939q-.244.962-1.236 2.41c-.313.49-.15.727.499.727 1.785.323 3.822.397 6.094.246.976.151 1.549.557 1.71 1.201-.161.804-.734 1.284-1.71 1.456a85 85 0 0 1-8.791.472c-.812 0-1.535.332-2.186.963q-4.399 3.393-5.856 4.113c-2.437 1.448-4.396.891-5.856-1.692m-30.586 10.379c-.485.655-.574 1.05-.247 1.212.161.32.66.32 1.472 0q8.05-3.63 10.989-9.428c.812-2.569.313-4.497-1.472-5.783-1.624-.32-2.849.236-3.672 1.692-1.774 3.697-4.146 7.81-7.07 12.307m-21.714 1.212c.973.483 1.621.556 1.948.247.335-.494.25-1.127-.238-1.939-1.624-2.251-3.096-6.277-4.396-12.074-.812-2.41-2.361-3.383-4.634-2.9-1.795.49-2.361 2.259-1.71 5.31.973 5.153 3.983 8.935 9.03 11.356m10.49 2.163c0 .815.249 1.136.734.974h2.686c.487.162.726-.16.726-.974l-.239-22.441q-.247-3.868 2.675-3.867 4.157.482 4.157 5.304c-.662 5.632-.976 12.638-.976 21.004 0 .491.25.815.727.974q2.19.245 7.566.247h13.674c1.449.15 1.862.888 1.211 2.174-2.76 5.473-7.394 7.154-13.899 5.068q-24.165-5.563-41.247 1.198-2.437.966-3.897 0c-.812-.963-.737-2.164.228-3.62 1.635-3.214 4.567-4.67 8.791-4.338 6.019 0 9.6-.246 10.739-.73q.73-.237.973-.973c-.314-4.658-.574-8.848-.727-12.542-.16-4.028-.335-7.006-.484-8.934q-.734-3.632 3.907-3.855c2.101.148 2.999 1.604 2.675 4.327-.488 2.26-.574 7.57-.239 15.937 0 2.26.075 3.954.239 5.067m-61.329 2.666c.487 0 .812-.804.983-2.419q-.258-1.205-4.645-1.448c-2.607 0-3.993.332-4.146.966q-1.459 3.145 1.464 3.383c1.959.162 4.068 0 6.344-.482m-10.729 4.34c.638.321 1.624 0 2.921-.965q3.655-1.202 9.03.247c2.275.803 3.661-.085 4.135-2.657.174-1.928.338-3.866.499-5.794 0-2.1-2.123-2.742-6.344-1.928h-.726c-.824-.173-1.796-.247-2.932-.247h-4.147c-2.286-.32-3.91-.076-4.883.727-.812.803-.898 1.93-.238 3.376.152.803.313 1.938.488 3.383.149 2.572.898 3.858 2.197 3.858m18.533-11.826c.324-.332.413-.73.249-1.198a45 45 0 0 1-1.71-.977c-2.923-2.248-4.548-3.707-4.883-4.349-.477-.482-1.3-.482-2.436 0-.649.494-.812 1.212-.488 2.175.812 1.607 2.514 2.816 5.122 3.62 1.635.814 3.01 1.05 4.146.729m-23.178-1.939c-.812.483-1.05 1.05-.737 1.692.499.483 1.136.568 1.949.247 3.583-1.136 5.955-2.013 7.081-2.657 1.31-.963 1.471-2.175.498-3.62q-2.205-1.447-3.907.483c-.987 1.938-2.611 3.224-4.884 3.855m14.886-8.44c.648-.173 1.136-1.286 1.471-3.387 0-.159-.335-.31-.983-.48h-9.279c-.812.17-1.051.568-.726 1.21.487 1.445.986 2.174 1.463 2.174.649.162 1.874.31 3.658.483zm-20.991-6.277c5.055.16 8.791 0 11.227-.483 1.632-.161 2.444-.652 2.444-1.456-.16-.161-.16-.397 0-.718.153-.162.239-.395.239-.73 0-.803.573-1.294 1.713-1.444 4.392.32 6.504 1.37 6.343 3.14-.163.48.161.726.973.726 12.364 0 20.018.15 22.942.482.973.483.485 1.928-1.463 4.35-.649.954-1.96 1.434-3.908 1.434-1.461.172-3.897-.395-7.319-1.681-2.445-.642-4.221-.889-5.369-.73-.487 1.127-1.299 2.263-2.436 3.387 3.584.482 6.181.482 7.805 0 2.61.32 3.91 1.445 3.91 3.373a81 81 0 0 0-.488 3.386v3.373c0 1.618.161 4.67.488 9.18.15 1.778.324 2.894.485 3.384.488 1.928-1.147 3.052-4.88 3.376-.987.32-1.475-.645-1.475-2.893V60.36c.175-3.708.336-6.354.488-7.972 0-1.124-.075-2.012-.238-2.643v-1.939a2.94 2.94 0 0 0-1.699-1.694c-7.491-.631-15.623-.631-24.414 0-.648.323-1.125 1.533-1.46 3.633v4.582c.163 8.045-3.42 12.556-10.74 13.519-3.248-.321-4.309-1.618-3.173-3.867 7.319-1.445 10.665-5.624 10.005-12.553 0-.804-.238-2.657-.726-5.55-.488-2.26.075-3.458 1.699-3.62 2.935 1.113 5.382 1.286 7.33.483-1.311-1.286-1.798-2.41-1.46-3.387q-8.057-.002-18.059 3.387c-2.284-.483-2.608-1.939-.987-4.35 1.799-1.606 3.747-2.41 5.859-2.41q4.642.482 6.344.483m-52.538.963c-1.463-.491-3.01-1.21-4.634-2.175-1.147-.642-1.472-1.607-.987-2.901.663-1.113 1.713-1.681 3.185-1.681 1.449.31 3.583 1.283 6.332 2.89 1.472 1.618 1.472 2.978 0 4.113 3.096.151 6.832.151 11.228 0 4.556 0 9.364-.246 14.397-.737.976-.151 1.225.652.737 2.418l-.249.494c-.812 1.607-1.624 2.72-2.436 3.375q-2.922 2.891-8.542.48c-4.395-1.445-9.115-2.248-14.148-2.418-.812.17-1.139.48-.987.973v1.928c-.152.803 0 1.124.499.965 3.733.963 6.494.804 8.292-.483 3.409-.641 5.369.321 5.845 2.904-.313 2.732-.476 5.3-.476 7.722 0 3.214.163 5.956.476 8.216-.149 1.607-1.297 2.646-3.408 3.128q-2.437.254-2.437-2.174v-13.52c0-1.445-1.471-2.248-4.395-2.421h-3.897c-.812 0-1.136.332-.986.976 0 4.026.174 9.66.487 16.903-.152 1.445-1.374 2.495-3.647 3.126-1.798.172-2.685-.557-2.685-2.164V49.977c0-.642-.324-.973-.987-.973h-4.88c-1.3.172-1.949.803-1.949 1.938.161 5.956-.487 9.822-1.959 11.591-4.396 3.867-7.644 3.952-9.755.236-.314-.803-.001-1.286.983-1.437 3.9-1.135 6.02-3.792 6.336-7.98 0-1.606-.25-3.287-.726-5.067v-.716c-.488-1.286-.164-2.347.964-3.15 1.148-.642 2.445-.557 3.908.247.66.482 2.683.641 6.105.482 1.3.16 1.874-.408 1.699-1.692 0-1.448-.399-2.174-1.211-2.174-9.115.332-15.622 1.135-19.519 2.418-3.911 1.448-5.695 1.127-5.371-.962 1.311-3.546 3.658-4.99 7.081-4.35a2.6 2.6 0 0 0 2.186.483l19.032-.965c.66 0 .823-.159.499-.482m-93.536 23.661c.15 3.055 2.261 3.546 6.344 1.448 1.785-1.127 4.633-3.781 8.53-7.971.488-.642.574-1.124.25-1.445-.488-.332-1.062-.332-1.71 0-5.047 2.904-8.218 4.423-9.506 4.585-2.946.803-4.243 1.938-3.908 3.383m-3.431-13.036c0 1.928 1.632 3.055 4.88 3.376 3.747.494 7.492.159 11.228-.965.812-.321 1.147-.716.975-1.199-.163-.493-.726-.803-1.702-.976-4.221 0-7.89-.888-10.988-2.654-2.273-.645-3.734.159-4.393 2.418m20.503-.48q0-1.702 1.461-1.938c4.234-.804 7.33-2.175 9.278-4.105.823-.642 1.874-.804 3.171-.48.812.32 1.3.642 1.474.962.15.321-.088.645-.748.966-.152.159-.887.395-2.198.726-.962.483-1.948.965-2.921 1.448-.152.332.086.483.734.483h2.935c.812 0 1.863-.568 3.16-1.695 1.147-1.445 2.771-1.445 4.883 0 .488 1.127.086 1.854-1.222 2.175-3.736 1.286-6.995 2.742-9.756 4.349.812 1.124 2.761 1.286 5.857.482q1.95-.724 1.951-1.445c-.976-.32-1.378-.803-1.225-1.448.335-.48 1.061-.652 2.197-.48 3.26.48 5.457 1.199 6.594 2.175 1.624 1.604 1.549 2.805-.239 3.609-.499.32-1.796-.151-3.907-1.434-.336.148-.574.233-.738.233-.324.161-1.05.397-2.197.718-1.624.483-2.436.73-2.436.73-.812.803-.724 1.36.238 1.691 4.722-.482 10.165-.567 16.36-.246.812 0 2.023.084 3.647.246h1.959c.325 0 .488.074.488.236v.494c-1.948 5.462-5.122 7.486-9.517 6.03q-9.032-3.377-10.252-3.376c-.152 1.124.402 2.175 1.71 3.129q1.463 1.447 7.569 3.63 2.436.967 2.921 2.41c0 .642-.149 1.125-.485 1.446-4.235-.48-9.029-2.334-14.4-5.548-.962-.652-1.375-1.37-1.211-2.174-.164-.642.476-1.607 1.948-2.893q-1.705-.48-2.924 2.41c-1.959 4.029-4.88 6.439-8.791 7.242-4.88.804-8.292-.162-10.251-2.893-.161-.17.163-.32.975-.49q10.249.255 12.2-6.269c-5.695.483-9.916 1.286-12.687 2.41-.488.321-.813.321-.965 0-.172-.159-.172-.567 0-1.209.64-1.939 1.94-3.299 3.899-4.102.474-.162 1.137-.247 1.949-.247h.723c.499.32.901.406 1.236.247 2.436 0 4.634-.162 6.582-.483.488 0 .735-.247.735-.73-.161-.64-.485-1.038-.973-1.208-1.624.17-3.584.652-5.867 1.456-1.463.15-2.276-.483-2.436-1.939-.164-.951.324-1.607 1.471-1.928 3.085-.482 5.521-1.37 7.32-2.657-2.287-.159-4.645.088-7.081.719-1.472.331-2.198-.151-2.198-1.435m4.883-5.314c.812 0 1.137-.17.973-.493-1.46-.963-2.358-2.087-2.685-3.373-.325-1.124-.898-1.769-1.71-1.928q-2.678.48-3.409 2.41c.324 2.26 2.596 3.384 6.831 3.384m-9.517.965c-.975.148-2.198.148-3.658 0-1.624-.161-2.935-.482-3.908-.965-4.872-1.297-6.507-3.214-4.872-5.794 1.449-1.618 2.921-1.939 4.384-.965 2.597 2.572 5.369 4.5 8.293 5.786.659.48.975.973.975 1.456-.163.32-.565.482-1.214.482m26.113-2.42c3.572.33 6.019-.557 7.319-2.647-.976-2.742-2.6-3.792-4.883-3.14-.652 1.769-1.788 3.376-3.423 4.832-.313.31-.399.556-.247.718 0 .16.421.236 1.234.236m-20.504-6.996c8.129.32 15.296-.568 21.468-2.657.984-.17 1.632.32 1.959 1.459q0 1.67-2.436 2.407c-1.787.634-4.559 1.04-8.292 1.201.324.653.898 1.607 1.71 2.893.313.491.563.738.724.738 0 .31-.325.483-.973.483-4.884 0-6.668-1.287-5.371-3.867a30.3 30.3 0 0 1-5.369 0c-1.948-.162-3.334-.408-4.146-.73-.975-.32-1.385-.718-1.236-1.209.175-.482.823-.718 1.962-.718m-75.967 4.102c4.548.162 7.807 0 9.755-.482.335 0 .488-.321.488-.963v-3.855c.172-1.138 1.472-1.63 3.908-1.46 2.112.322 3.259 1.125 3.409 2.411v2.904c-.15.803.174 1.124.986.963h13.661q2.194 2.17-1.461 3.375h-12.2c-.812.16-1.136.653-.986 1.456 6.842 5.945 15.459 10.294 25.874 13.036.499.321.499.889 0 1.692-1.635 3.214-4.232 4.906-7.805 5.068-1.798.32-3.747-.966-5.867-3.867-2.752-2.731-6.66-6.265-11.704-10.615-.324-.172-.498-.172-.498 0v9.167c-.15.804.174 1.136.986.966h5.856c1.137.17 1.71.803 1.71 1.938 0 .963-.573 1.445-1.71 1.445h-5.856c-.812 0-1.136.321-.986.966v4.831c-.325 1.283-1.624 2.175-3.897 2.644-1.948.172-2.935-.395-2.935-1.681V62.05c0-.645-.313-.966-.973-.966h-3.412c-.648 0-2.12.321-4.395.966-1.297 0-1.796-.483-1.461-1.448 2.924-3.222 5.208-4.187 6.832-2.901h2.436c.66.17.973-.162.973-.966V48.52c-.161-.803-.313-1.124-.485-.952-3.584 3.373-8.944 7.884-16.11 13.516q-2.437 1.93-6.333 1.448c-2.935-.644-3.908-1.769-2.935-3.375 9.766-4.35 16.922-8.698 21.478-13.047 1.464-1.125 2.761-2.57 3.9-4.35.172-.48 0-.803-.488-.962a51.3 51.3 0 0 0-15.622 2.421c-1.938.321-1.938-.965 0-3.869 1.471-1.927 3.422-2.418 5.867-1.445M449.517 94.69c1.445-1.23 2.67-1.45 2.587-4.076-.051-1.894-1.11-3.071-2.9-3.744-2.176-.827-10.259-.675-12.982-.544l.032 16.506 2.67-.031.083-7.106c1.833 0 7.193-.25 8.586.373 2.292 1.026 1.236 4.349 1.873 6.601.995.343 2.313.183 3.423.183-.555-1.146-.868-.142-1.016-1.963-.292-3.713.346-4.53-2.356-6.2m-10.583-6.593c3.08 0 10.458-1.167 10.364 2.94-.094 3.913-7.234 2.787-10.342 2.787zm157.816 17.251V86.543h2.766v9.323l10.371-9.323h3.733l-8.746 7.62L614 105.347h-3.635l-7.432-9.492-3.417 2.986v6.506zm-20.95 0V86.543h2.83l10.949 14.763V86.543h2.647v18.804h-2.833l-10.946-14.763v14.763zm-15.7-7.722h7.118l-2.18-5.213c-.653-1.59-1.15-2.895-1.497-3.927a24 24 0 0 1-1.15 3.622zm-5.999 7.722 8.007-18.804h3.027l8.504 18.804h-3.144l-2.41-5.701h-8.788l-2.266 5.701zm-14.496-2.201h5.2c.889 0 1.516-.034 1.886-.093q.947-.153 1.585-.511a2.9 2.9 0 0 0 1.061-1.056c.273-.453.403-.988.403-1.59 0-.704-.194-1.305-.597-1.829-.403-.52-.955-.884-1.661-1.102-.705-.203-1.725-.305-3.047-.305h-4.83zm0-8.701h4.514c1.216 0 2.105-.067 2.627-.215.705-.192 1.236-.5 1.594-.942.348-.442.531-.989.531-1.649 0-.622-.161-1.18-.497-1.645-.336-.477-.814-.806-1.422-.989-.62-.169-1.684-.262-3.169-.262h-4.178zm-2.766 10.902V86.543h7.824c1.594 0 2.875.18 3.841.566.964.375 1.714.966 2.255 1.76.553.784.825 1.613.825 2.488 0 .794-.25 1.555-.727 2.259-.478.715-1.214 1.285-2.192 1.727 1.27.329 2.236.895 2.919 1.704.672.805 1.02 1.747 1.02 2.849 0 .887-.217 1.704-.628 2.465-.414.751-.922 1.341-1.53 1.751q-.912.609-2.281.93c-.911.204-2.038.305-3.371.305zm-30.779 0V86.543h2.766v16.603h10.254v2.201zm-15.6-7.722h7.107l-2.18-5.213c-.653-1.59-1.15-2.895-1.5-3.927a24.5 24.5 0 0 1-1.139 3.622zm-6.011 7.722 8.008-18.804h3.038l8.493 18.804h-3.147l-2.408-5.701h-8.787l-2.266 5.701zm-5.338 0h2.767V86.543h-2.767zm-6.649-6.596 2.766.636c-.574 2.044-1.616 3.599-3.113 4.666-1.508 1.079-3.341 1.614-5.513 1.614q-3.366.002-5.477-1.238c-1.411-.829-2.475-2.021-3.214-3.588a11.85 11.85 0 0 1-1.094-5.033c0-1.965.411-3.669 1.236-5.134.836-1.454 2.019-2.553 3.549-3.315 1.528-.761 3.211-1.136 5.044-1.136 2.095 0 3.842.477 5.261 1.43 1.422.965 2.41 2.306 2.974 4.044l-2.713.579c-.478-1.364-1.183-2.361-2.094-2.986-.922-.625-2.084-.942-3.472-.942-1.606 0-2.939.352-4.013 1.044-1.075.692-1.834 1.625-2.267 2.782a10.3 10.3 0 0 0-.652 3.623c0 1.59.261 2.988.772 4.18.508 1.192 1.322 2.088 2.408 2.681a7.24 7.24 0 0 0 3.524.884c1.542 0 2.844-.407 3.916-1.204 1.075-.805 1.792-1.997 2.172-3.587m-55.278 6.596V86.543h15.059v2.2H419.95v5.783h11.501v2.201H419.95v6.419h12.793v2.201zm-24.399 0V86.543h4.143l4.928 13.31c.466 1.235.791 2.168.997 2.793.238-.694.619-1.692 1.119-3.02l5.021-13.083h3.7v18.804h-2.658V89.618l-6.085 15.729h-2.486l-6.022-16.022v16.022zm-24.269 0V86.543h4.133l4.938 13.31c.455 1.235.791 2.168.997 2.793.239-.694.608-1.692 1.116-3.02l5.024-13.083h3.689v18.804h-2.647V89.618l-6.088 15.729h-2.494l-6.021-16.022v16.022zm-20.603-9.108c0 2.261.683 4.044 2.028 5.349 1.358 1.297 3.049 1.954 5.088 1.954 2.072 0 3.788-.657 5.132-1.974 1.336-1.32 2.008-3.181 2.008-5.6 0-1.523-.283-2.864-.858-3.998a6.15 6.15 0 0 0-2.516-2.645c-1.108-.625-2.344-.945-3.722-.945q-2.93 0-5.044 1.805c-1.411 1.216-2.116 3.228-2.116 6.054m-2.852-.044q-.002-4.684 2.797-7.327c1.855-1.759 4.255-2.645 7.204-2.645 1.922 0 3.658.421 5.208 1.25 1.541.817 2.724 1.977 3.538 3.463.814 1.476 1.214 3.157 1.214 5.044 0 1.907-.422 3.61-1.281 5.108a8.26 8.26 0 0 1-3.624 3.419q-2.357 1.16-5.077 1.16c-1.964 0-3.711-.433-5.272-1.285-1.541-.852-2.713-2.021-3.505-3.498a9.7 9.7 0 0 1-1.202-4.689m-5.338 2.556 2.766.636c-.575 2.044-1.617 3.599-3.114 4.666-1.497 1.079-3.341 1.614-5.502 1.614q-3.366.002-5.477-1.238c-1.411-.829-2.485-2.021-3.213-3.588a11.7 11.7 0 0 1-1.105-5.033c0-1.965.411-3.669 1.247-5.134.824-1.454 2.008-2.553 3.538-3.315 1.527-.761 3.211-1.136 5.044-1.136q3.142 0 5.271 1.43c1.422.965 2.411 2.306 2.964 4.044l-2.703.579c-.489-1.364-1.194-2.361-2.105-2.986-.922-.625-2.072-.942-3.472-.942-1.594 0-2.938.352-4.013 1.044-1.064.692-1.833 1.625-2.255 2.782a10.3 10.3 0 0 0-.664 3.623c0 1.59.261 2.988.772 4.18q.779 1.79 2.408 2.681a7.3 7.3 0 0 0 3.536.884c1.541 0 2.844-.407 3.905-1.204 1.074-.805 1.791-1.997 2.172-3.587m-42.986 6.596v-7.96l-8.038-10.844h3.319l4.122 5.69a49 49 0 0 1 2.138 3.165c.639-.985 1.4-2.087 2.3-3.314l4.047-5.541h3.221l-8.332 10.844v7.96zm-18.378 0V88.743h-6.868v-2.2h16.514v2.2h-6.88v16.604zm-12.931 0h2.766V86.543h-2.766zm-6.652-6.596 2.777.636c-.586 2.044-1.616 3.599-3.124 4.666-1.497 1.079-3.342 1.614-5.511 1.614-2.236 0-4.069-.41-5.48-1.238-1.399-.829-2.471-2.021-3.199-3.588a11.64 11.64 0 0 1-1.108-5.033c0-1.965.413-3.669 1.249-5.134.823-1.454 2.006-2.553 3.536-3.315 1.53-.761 3.211-1.136 5.055-1.136 2.083 0 3.841.477 5.252 1.43 1.422.965 2.419 2.306 2.972 4.044l-2.711.579c-.478-1.364-1.183-2.361-2.094-2.986-.922-.625-2.083-.942-3.472-.942-1.594 0-2.941.352-4.016 1.044-1.072.692-1.822 1.625-2.255 2.782a10.1 10.1 0 0 0-.661 3.623c0 1.59.258 2.988.769 4.18q.783 1.79 2.408 2.681a7.3 7.3 0 0 0 3.527.884c1.55 0 2.853-.407 3.916-1.204 1.075-.805 1.8-1.997 2.17-3.587m-37.062 6.596h2.767V86.543h-2.767zm-22.011 0 8.06-9.754-7.096-9.05h3.277l3.808 4.814c.792.989 1.336 1.747 1.65 2.282a31 31 0 0 1 1.669-2.09l4.166-5.007h3.028l-7.247 8.938 7.799 9.867h-3.393l-5.264-6.71a20 20 0 0 1-.855-1.137 37 37 0 0 1-1 1.329l-5.294 6.518zm-18.966 0V86.543h2.844l10.945 14.763V86.543h2.658v18.804h-2.841l-10.945-14.763v14.763zm-19.342 0V86.543h15.067v2.2h-12.301v5.783h11.51v2.201h-11.51v6.419h12.801v2.201zm-16.839-2.201h5.196c.892 0 1.519-.034 1.878-.093.63-.101 1.172-.273 1.594-.511a2.86 2.86 0 0 0 1.053-1.056c.283-.453.413-.988.413-1.59 0-.704-.197-1.305-.597-1.829-.403-.52-.955-.884-1.661-1.102q-1.057-.305-3.058-.305h-4.818zm0-8.701h4.513c1.216 0 2.094-.067 2.625-.215.705-.192 1.238-.5 1.586-.942q.539-.661.541-1.649c0-.622-.172-1.18-.5-1.645-.336-.477-.802-.806-1.43-.989-.608-.169-1.672-.262-3.169-.262h-4.166zm-2.778 10.902V86.543h7.832c1.597 0 2.878.18 3.842.566.955.375 1.713.966 2.258 1.76q.812 1.176.813 2.488c0 .794-.238 1.555-.716 2.259-.489.715-1.205 1.285-2.191 1.727 1.269.329 2.235.895 2.907 1.704.684.805 1.02 1.747 1.02 2.849 0 .887-.206 1.704-.62 2.465-.411.751-.922 1.341-1.527 1.751q-.913.609-2.28.93c-.922.204-2.039.305-3.375.305z" fill="#231815"/></svg>