<svg width="447" height="128" fill="none" xmlns="http://www.w3.org/2000/svg"><path d="M40.752 24.186C23.981 35.026 14.082 51.633 14 66.482v.327c.04 5.563 1.432 10.922 4.418 15.585C29.339 99.533 56.99 101.25 80.266 86.32a69 69 0 0 0 6.136-4.459c.94-1.513.327-3.231-.082-3.6-.859-.818-2.086-.94-6.872.287s-15.053 4.908-19.43 5.89c-4.418.982-5.685 1.473-7.73-2.904-2.046-4.336-10.963-25.484-10.963-25.484-2.046-4.336-3.232-6.627 3.436-8.427 6.667-1.84 20.902-5.93 24.666-7.076s5.849-1.31 7.28 2.863c1.391 4.172 10.677 25.934 11.7 28.061.736 1.514 1.718 2.904 3.272 3.477 1.022.41 2.495-.45 2.822-.859 12.64-14.603 16.485-32.847 8.181-45.936-5.93-9.327-16.853-14.072-29.288-14.072C62.923 14 51.387 17.355 40.752 24.186" fill="#fff"/><path d="m139.579 67.546.654-.655c.245-.245.818-.94 1.677-2.086s1.514-2.29 1.923-3.436c.368-1.145.695-2.21.9-3.19.204-.983.409-1.964.531-2.946.164-.982.246-3.109.328-6.381l.04-3.845V42.47l-.368-6.913c2.291.204 3.927.286 4.95.286h9.94c-.287-.94-.614-1.8-.9-2.577-.286-.818-.736-1.8-1.35-2.986 1.923-.532 3.313-1.023 4.172-1.514l2.414 5.85a14.7 14.7 0 0 0-4.213 1.268h12.026c1.472 0 3.517-.082 6.135-.286-.081.572-.163.981-.204 1.227-.041.286-.041.572-.082.94 0 .369.082 1.064.245 2.128-2.536-.205-4.581-.287-6.094-.287h-22.498c0 2.945 0 5.277-.041 7.036 0 1.759-.041 3.763-.123 6.054-.082 2.29-.286 4.377-.654 6.217a23.6 23.6 0 0 1-1.923 5.645c-.9 1.923-1.636 3.314-2.25 4.214l-.45.654c-1.472-.94-3.067-1.513-4.785-1.882m59.312-24.707h4.868v-6.504h-4.868zm-9.572 18.816h23.889V45.702h-6.177v6.79q0 .675.123.982c.082.245.368.368.818.327.982 0 2.454-.368 4.336-1.022-.327 1.513-.491 2.536-.491 2.986v1.145c-.573.082-1.309.123-2.25.205s-1.677.081-2.168.081c-1.227 0-2.086-.163-2.659-.409-.572-.286-.859-.777-.9-1.431-.04-.696-.04-1.35-.04-1.923v-7.73h-5.114c-.122.94-.204 1.799-.286 2.494-.082.737-.286 1.923-.613 3.518-.328 1.595-1.637 3.518-3.927 5.727l-1.105 1.145c-.286-.45-.532-.818-.818-1.104s-1.063-.777-2.291-1.473l1.555-1.063c.45-.287.941-.778 1.513-1.391.573-.614.982-1.186 1.309-1.718s.573-1.186.777-1.964a9 9 0 0 0 .41-2.086l.204-2.086h-6.095zm-6.667-25.034c.081-.573.081-.982.122-1.227v-.736c0-.246-.041-.941-.122-2.046 5.726.246 9.367.328 10.921.328h16.158c1.595 0 5.277-.082 11.044-.328-.082.573-.122.982-.204 1.31-.041.327-.041.572 0 .777 0 .204.082.859.204 1.922-4.663-.204-8.344-.286-11.044-.286h-2.7v6.504h6.177c1.227 0 2.536-.082 3.886-.205a20 20 0 0 0-.164 2.332c0 .532-.041 1.268-.041 2.168V62.88c0 1.473 0 2.455.041 2.864l.164 2.945c-1.023-.082-1.677-.123-1.923-.123-.245 0-.941.041-2.045.123 0-.491 0-1.023.041-1.473.041-.49.082-.777.082-.777v-1.35H189.36v1.514c0 .409.041 1.022.123 1.922-1.555-.082-2.782-.082-3.6 0 .082-1.39.123-2.495.164-3.231.041-.778.041-1.8.041-3.15V47.052c0-1.145 0-1.923-.041-2.25l-.164-2.209c1.473.164 2.904.205 4.254.205h5.482v-6.463h-2.046c-2.699 0-6.299.082-10.921.286m64.998-5.89c.123.04.818-.041 2.168-.164a126 126 0 0 0-.246 3.968c-.04 1.023-.04 2.127-.04 3.436v7.895l1.104-.614c2.863-1.554 5.359-3.313 7.486-5.195l.654-.573c.777 1.269 1.677 2.578 2.823 3.886l-2.987 1.432-4.008 2.127-5.113 2.618v11.495c0 1.39.163 2.25.491 2.536s.94.409 1.922.409h2.127c1.35.04 2.291-.041 2.7-.287s.777-.613.982-1.104c.204-.45.409-1.104.572-1.882l.246-1.472.122-.696a13.6 13.6 0 0 0 2.087 1.555c.572.368 1.39.654 2.413.94l-.286.737c-.082.163-.328.777-.696 1.759a18 18 0 0 1-1.022 2.25q-.43.797-1.35 1.35c-.573.409-1.596.613-3.027.654l-5.073.04q-1.84.063-3.313-.245c-.982-.204-1.677-.654-2.045-1.39-.409-.737-.614-1.964-.614-3.764V37.807a67 67 0 0 0-.081-3.231l-.246-4.009c1.391.082 2.127.164 2.25.164m-12.067 27.856.982-.327V46.07h-5.604c-.614 0-2.127.123-4.541.287.082-.491.123-.9.123-1.187.041-.286.041-.572.041-.859 0-.286-.082-.9-.205-1.881 1.391.163 2.945.245 4.541.245h5.604v-4.09l-.123-3.518-.164-4.418c1.35.123 2.087.205 2.25.205.164 0 .941-.082 2.291-.205a172 172 0 0 0-.246 4.581 92 92 0 0 0-.081 3.436v22.09q0 2.82.122 4.417l.205 2.986q-1.963-.123-2.332-.123c-.245 0-.981 0-2.127.123.041-.777.082-1.554.123-2.209.082-.695.082-1.186.082-1.513v-2.618l-3.109 1.022c-2.986 1.023-5.481 1.964-7.445 2.864-.491-1.432-.818-2.373-.982-2.74l-.777-1.514c4.991-1.105 8.795-2.005 11.372-2.864m54.404 10.595c.122-1.432.204-2.414.245-3.068.041-.655.082-1.718.082-3.314V37.563c0-1.145-.041-2.209-.123-3.231l-.204-2.618c1.718.163 2.945.286 3.681.286h6.545c1.064 0 2.413-.123 4.05-.286l-.941 3.6q-.184.675-.859 3.313c-.45 1.759-1.105 4.336-2.045 7.772q2.699 3.743 3.436 5.276c.531 1.023.859 1.882 1.022 2.577s.287 1.514.246 2.414c-.041.94-.164 1.8-.45 2.659s-.818 1.677-1.637 2.536c-.818.818-2.945 1.595-6.422 2.29a15 15 0 0 0-.245-1.759c-.123-.654-.368-1.145-.736-1.513l-1.637-1.595 1.187.081c2.822.205 4.581.082 5.195-.409q.981-.735.981-2.822c-.041-1.309-.245-2.495-.736-3.477-.45-.982-.859-1.8-1.268-2.373-.409-.572-1.309-1.718-2.7-3.354l.409-1.022a94 94 0 0 0 .696-2.168c.327-1.064.531-1.8.654-2.25.082-.41.246-1.268.45-2.577.205-1.31.368-2.127.409-2.536l.082-.982h-5.809V62.72c0 1.472.041 2.495.082 3.15l.246 3.23c-1.105-.08-1.718-.122-2.005-.163-.163.082-.818.123-1.881.246m-15.831-7.69h7.772V54.17h-7.772zm.082-10.186h7.568c.695 0 1.922-.082 3.599-.286-.081.859-.122 1.513-.163 2.004-.041.532-.082.941-.082 1.186v8.181c0 .491.041 1.35.123 2.618l.122 1.882c-.572-.04-.981-.04-1.309-.082-.286 0-1.104 0-2.29.082.041-.573.082-.982.082-1.227v-1.268h-7.772v1.554l.04.573v.613c-.572-.04-1.022-.04-1.309-.081-.327-.041-1.104 0-2.29.081.082-1.022.122-1.84.204-2.495.041-.654.082-1.39.082-2.25v-8.18c0-.614-.041-1.146-.082-1.555l-.204-1.677c1.636.204 2.863.327 3.681.327m-6.872-2.986c.082-.859.123-1.432.164-1.677 0-.205-.041-.777-.164-1.718 1.391.164 2.577.245 3.477.245h2.086l-.122-.613a9.3 9.3 0 0 0-1.923-3.927l-.532-.655c1.105-.163 2.25-.613 3.477-1.268l2.577 5.318c-.777.164-1.881.532-3.313 1.186h5.849c1.187-2.577 1.923-4.5 2.168-5.767l.246-1.227h-8.999c-.45 0-1.637.081-3.559.286.082-.491.123-.818.123-1.023v-.818c-.041-.327-.041-.859-.123-1.595q1.963.245 3.559.245h4.54l-.286-1.186c-.205-.818-.737-1.882-1.718-3.313l-.491-.737c.982-.163 2.25-.613 3.886-1.227l2.413 5.522c-1.145.246-2.168.573-3.19.941h6.422c.859 0 2.004-.082 3.558-.245-.081.49-.122.859-.163 1.104s-.041.45-.041.614c0 .204.082.695.204 1.595-.818-.04-1.554-.123-2.167-.163-.614-.082-1.064-.082-1.391-.082l-2.414.04c1.064.655 2.209 1.269 3.477 1.76l-.859 1.308a83 83 0 0 0-2.249 4.01h2.986c.981 0 2.208-.083 3.722-.246-.082.572-.123.94-.123 1.227v.49c-.041.45-.041.655 0 .655l.123.9c-1.473-.164-2.7-.245-3.722-.245H270.72c-.081.04-1.268.122-3.354.286m74.407-9.613 6.994 5.114a26.6 26.6 0 0 0-2.699 2.986l-.9-.982c-.982-1.105-2.536-2.25-4.704-3.559l-1.023-.613q1.35-1.412 2.332-2.946m-20.371 21.557c.368-1.35.613-2.659.736-4.05l.164-1.758c0-.327.041-.573 0-.696 0-.163-.082-.981-.164-2.413 1.636.123 2.823.205 3.518.205h14.03l.082-2.578h-14.03q-1.411 0-3.804.246c.041-.45.081-.777.081-1.064 0-.245 0-.45.041-.613.041-.205 0-.736-.122-1.718q2.27.245 3.804.245h13.989c1.146 0 2.414-.081 3.886-.204-.122.654-.163 1.145-.163 1.431-.041.287-.041.86-.082 1.596l-.123 3.272s-.041.205 0 .45c0 .245.041.41.041.573l.164 1.431c-1.964-.122-3.232-.204-3.723-.204h-14.03l-.246 2.782h16.158c.368 0 1.595-.082 3.722-.205-.122.409-.327 1.39-.695 2.986l-.941 4.336a12.5 12.5 0 0 1-.695 1.963c-.287.655-1.064 1.187-2.25 1.596-1.227.409-3.436.818-6.749 1.145a27 27 0 0 0-.573-2.413q-.308-.86-1.227-2.332c1.554.286 2.904.41 4.009.368 1.472 0 2.495-.245 3.027-.736.531-.49.94-1.39 1.186-2.74l.204-1.105h-15.176c-1.063.04-2.413.082-4.049.204m-.818-22.743c.082-.818.122-1.513.163-2.004v-.696l-.163-1.309c1.8.205 3.313.328 4.704.328h7.076a35 35 0 0 0-2.249-3.56 17.8 17.8 0 0 0 4.377-1.185l1.636 4.745h6.299c1.473 0 3.191-.123 5.113-.328-.082.696-.082 1.187-.122 1.473-.041.327-.041.573-.082.777 0 .205.041.777.204 1.8-2.086-.204-3.763-.286-5.113-.286h-4.377v5.317c0 .532 0 .9.041 1.146l.164 1.554c-.941-.082-1.514-.123-1.759-.123-.246-.04-.9.041-1.923.123.082-.654.123-1.145.164-1.513.041-.369.041-.737.041-1.187v-5.317h-3.027v5.072c0 .286.041.777.082 1.513l.122 1.596q-1.41-.246-3.681 0c.082-.655.123-1.187.164-1.555.04-.368.04-.9.04-1.554v-5.113h-3.272c-.982 0-2.577.082-4.622.286m-2.782 6.709 1.146-.778c.368-.245 1.063-.859 2.086-1.8 1.022-.94 1.8-1.718 2.29-2.331l.9-1.064c.859.9 1.8 1.637 2.864 2.25l-1.759 1.514c-1.596 1.39-2.741 2.413-3.395 3.108l-1.146 1.146c-.981-.818-1.922-1.514-2.986-2.045m-6.586-10.718c.941-.859 1.8-1.8 2.618-2.822a86 86 0 0 0 5.973 4.622 28 28 0 0 0-2.7 3.273l-.777-.941c-.532-.614-1.841-1.718-3.886-3.232zm-.695 31.375.736-1.31c.328-.49.737-1.554 1.35-3.067.573-1.555 1.105-3.354 1.677-5.481.532-2.087.859-3.437.982-4.01l.164-1.022c.531.655 1.022 1.186 1.431 1.555.409.368 1.064.736 1.964 1.063-.368 1.145-.655 1.963-.818 2.495-.164.491-.409 1.473-.818 2.864-.409 1.431-.859 3.027-1.391 4.745-.532 1.759-.941 3.395-1.309 4.908-1.227-1.022-2.577-1.922-3.968-2.74m-1.882-21.026c.778-.859 1.269-1.431 1.391-1.677l.941-1.513 6.913 4.213a28 28 0 0 0-2.454 3.354l-.777-.654a27.7 27.7 0 0 0-5.073-3.273zm64.835 1.841h10.267v-3.6h-10.267zm0-6.463h10.267v-4.01h-10.267zm-.041-7.404H383.7c1.35 0 2.618-.082 3.886-.204a19 19 0 0 0-.163 2.25c0 .49-.041 1.186-.041 2.004v9.285c0 1.146 0 1.841.041 2.127l.163 2.046c-1.349-.123-2.658-.205-3.886-.205h-4.213c.082.41.123.777.205 1.064.041.286.245.94.531 1.922.287 1.023.573 1.841.9 2.495 1.35-1.268 2.25-2.127 2.741-2.658.491-.491 1.064-1.268 1.8-2.332.654.94 1.718 1.84 3.231 2.659l-2.249 1.513c-1.35.9-2.823 2.046-4.336 3.436 2.086 2.864 4.704 4.95 7.976 6.218l.696.286c-1.146.737-1.923 1.35-2.373 1.8s-.859 1.105-1.268 2.005l-.573-.45a35 35 0 0 1-3.395-3.068 37.5 37.5 0 0 1-3.354-3.886c-1.023-1.35-1.841-3.191-2.536-5.4-.655-2.25-1.105-4.131-1.35-5.604h-2.7v13.703l1.964-1.309 1.39-1.063 1.923-1.432c.164 1.391.368 2.332.573 2.823l.327.94-1.841.982c-2.331 1.268-4.418 2.74-6.258 4.459l-.818.736c-.655-1.268-1.187-2.045-1.555-2.29l-.9-.614c.573-.573.941-1.064 1.105-1.432.163-.327.245-.94.327-1.718.041-.777.082-1.718.082-2.781v-23.97c0-1.064 0-1.76-.041-2.128l-.164-2.454c1.432.163 2.7.245 3.886.245M351.14 41.94l1.063-.982c.491-.45 1.228-1.227 2.168-2.29.9-1.064 1.759-2.578 2.414-4.46.695-1.922 1.145-3.19 1.309-3.803l.368-1.432c.409.45.859.818 1.35 1.186s1.391.614 2.618.777l-1.023 1.8-.654 1.064-1.064 2.086h4.541c.368 0 1.472-.041 3.313-.205-.082.532-.123.941-.164 1.268a2.5 2.5 0 0 0 0 .778c0 .204.082.777.205 1.84-1.759-.122-2.864-.204-3.314-.204h-6.299l-2.372 3.436 2.617.204h5.523c.409 0 1.39-.081 2.945-.204-.041.532-.123.94-.123 1.227-.041.286-.041.49 0 .573l.041.613.082 1.105c-.818-.123-1.8-.164-2.945-.205l-2.086-.04v4.376h3.395c.94 0 1.881-.082 2.822-.204q-.062.797-.123 1.227c0 .286-.04.532-.04.654 0 .164.04.777.163 1.923a18 18 0 0 0-2.904-.205h-3.395v7.609l2.086-1.514c.532-.409 1.554-1.268 3.027-2.618.082.696.163 1.31.286 1.8.123.532.368 1.105.777 1.718l-2.536 1.8-2.577 1.882a33 33 0 0 0-2.168 1.881l-1.759 1.636c-.163-.49-.409-.981-.654-1.472s-.818-1.146-1.718-2.005c.941-.49 1.513-1.022 1.677-1.554.204-.573.286-1.432.286-2.659V53.72h-2.74c-.737 0-1.555.081-2.455.204.041-.532.082-.94.123-1.268 0-.286.041-.532.041-.736 0-.205-.041-.818-.164-1.8.859.123 1.637.204 2.414.204h2.781v-4.5l-.491.042-1.268.082-1.472.122c.123-.859.163-1.513.163-2.004V42.88l-2.127 3.068c-.204-.696-.409-1.31-.572-1.841-.205-.573-.655-1.31-1.391-2.168m79.233-9.613c-.163.86-.245 1.514-.245 2.005-.041.368-.041.613.041.736l.204 1.268c-2.004-.205-3.64-.327-4.949-.327h-8.181c-1.391 0-3.068.122-5.032.327.082-.532.123-1.023.164-1.432s.041-.859 0-1.268l-.164-1.309c2.086.164 3.764.286 5.032.286h8.181c1.145 0 2.781-.122 4.949-.286m-15.462 11.372h12.435c1.473 0 3.354-.082 5.686-.287-.082.532-.123.982-.164 1.31 0 .286-.041.531 0 .695 0 .163.082.859.164 2.004-3.313-.204-5.154-.327-5.645-.327h-2.331v16.526c0 1.431-.123 2.454-.369 3.027-.245.572-.736.94-1.513 1.145-.736.204-2.659.45-5.727.818a11.4 11.4 0 0 0-.245-1.636q-.184-.798-1.35-3.068c1.881.327 3.15.49 3.927.45.736 0 1.227-.164 1.391-.532s.245-1.104.245-2.168V47.134h-6.504c-.123 0-1.882.123-5.277.327.041-.49.082-.9.123-1.145 0-.287 0-.532.041-.9v-.532l-.164-1.432q3.56.246 5.277.246m-21.352-3.477.94-.573c1.391-.859 2.986-2.209 4.745-3.968 1.759-1.84 3.15-3.517 4.173-5.154l.736-1.227a38 38 0 0 0 3.313 2.823l-1.227 1.186c-.45.49-1.636 1.718-3.559 3.804a112 112 0 0 1-5.89 5.809l-.491.45c-.368-.614-.654-1.064-.941-1.391-.286-.368-.9-.941-1.799-1.76m-.082 12.394.695-.532c2.004-1.513 3.968-3.477 5.972-5.808 2.005-2.373 3.641-4.622 4.95-6.79l.613-1.064c.859.818 2.005 1.718 3.355 2.782l-1.964 2.331-1.677 1.923-1.268 1.513v15.708c0 1.145 0 2.045.082 2.7l.245 3.313q-2.516-.246-4.295 0c.082-1.514.164-2.7.205-3.6s.082-1.718.082-2.413V51.02c-.778.9-1.391 1.513-1.759 1.963l-2.087 2.127-.531.573c-.696-1.268-1.555-2.29-2.618-3.068m-247.19 40.66v-2.74h5.808v6.503c-.572.696-1.431 1.268-2.495 1.759-1.063.532-2.168.736-3.231.736-1.309 0-2.495-.327-3.518-.94-1.023-.655-1.8-1.637-2.413-2.905-.573-1.268-.9-2.781-.9-4.54 0-1.8.286-3.313.9-4.582.572-1.268 1.39-2.25 2.331-2.863.982-.614 2.086-.94 3.436-.94 1.595 0 2.864.408 3.845 1.226q1.412 1.228 1.841 3.56l-2.618.613c-.204-.86-.573-1.473-1.104-1.923s-1.187-.654-1.923-.654c-1.145 0-2.086.45-2.782 1.35q-1.104 1.35-1.104 4.05c0 1.963.368 3.435 1.186 4.458.655.859 1.555 1.309 2.659 1.309.532 0 1.105-.082 1.677-.368a4.2 4.2 0 0 0 1.514-.982v-2.045h-3.109zm9.122-10.308h2.7v8.835c0 1.35.04 2.25.081 2.66.123.735.409 1.267.859 1.676s1.023.573 1.759.573c.655 0 1.146-.164 1.555-.41s.654-.654.818-1.145c.163-.49.204-1.554.204-3.15v-8.998h2.7v8.549c0 2.209-.123 3.763-.327 4.745-.246.981-.777 1.759-1.596 2.372-.777.614-1.881.9-3.231.9-1.391 0-2.495-.245-3.272-.736q-1.166-.735-1.718-2.086c-.328-.941-.532-2.618-.532-4.99zm21.475 9.858-1.841-6.054-1.8 6.054zm4.95 6.422h-2.946l-1.145-3.681h-5.359l-1.104 3.681h-2.904l5.195-16.28h2.904zm2.331.04v-16.28h2.659l5.481 10.881v-10.88h2.536v16.28h-2.74l-5.4-10.635v10.635zm20.535-6.012v-2.74h5.808v6.503c-.614.696-1.432 1.268-2.495 1.759-1.064.532-2.168.736-3.232.736-1.35 0-2.495-.327-3.518-.94-.981-.655-1.799-1.637-2.372-2.905-.614-1.268-.9-2.781-.9-4.54 0-1.8.286-3.313.9-4.582s1.391-2.25 2.332-2.863c.94-.614 2.086-.94 3.395-.94 1.595 0 2.904.408 3.845 1.226s1.595 2.005 1.84 3.56l-2.617.613c-.205-.86-.573-1.473-1.105-1.923s-1.186-.654-1.922-.654c-1.146 0-2.087.45-2.782 1.35q-1.104 1.35-1.104 4.05c0 1.963.409 3.435 1.186 4.458.695.859 1.554 1.309 2.7 1.309.531 0 1.063-.082 1.677-.368a4.2 4.2 0 0 0 1.513-.982v-2.045H204.7zm7.771 6.013 4.664-8.508-4.173-7.772h3.15l2.618 4.826 2.659-4.826h3.109l-4.173 7.772 4.623 8.508h-3.232l-2.986-5.563-2.986 5.563zm14.604 0v-16.28h2.699v16.28zm17.262-7.077v4.336h2.495c1.104 0 1.8-.082 2.127-.163.327-.123.573-.328.818-.696.205-.327.327-.777.327-1.268 0-.532-.123-.981-.368-1.309-.245-.368-.532-.613-.9-.736s-1.145-.164-2.331-.164zm0-6.504v3.764h1.799c1.105 0 1.718 0 2.005-.041.45-.082.818-.287 1.063-.573a2.04 2.04 0 0 0 .409-1.268c0-.49-.122-.859-.327-1.186a1.5 1.5 0 0 0-.777-.573c-.286-.082-1.145-.082-2.618-.082h-1.554zm-2.7-2.74h5.358c1.473 0 2.455.122 3.068.409.614.245 1.105.736 1.514 1.39.409.655.613 1.432.613 2.291 0 .818-.163 1.473-.531 2.168-.328.614-.778 1.105-1.35 1.391a3.77 3.77 0 0 1 1.84 1.432c.41.695.655 1.513.655 2.495 0 1.186-.286 2.168-.859 3.027-.573.818-1.268 1.309-2.004 1.513-.573.123-1.8.205-3.764.205h-4.581V82.967zm14.358 16.32v-16.28h9.94v2.741h-7.241v3.6h6.709v2.74h-6.709v4.46h7.486v2.74zm13.212 0v-16.28h2.659v16.28zm8.795-7.076v4.336h2.495c1.104 0 1.8-.082 2.127-.163a1.83 1.83 0 0 0 .818-.696c.204-.327.286-.777.286-1.268 0-.532-.122-.981-.327-1.309a1.6 1.6 0 0 0-.9-.736c-.368-.123-1.145-.164-2.291-.164zm0-6.504v3.764h1.799c1.105 0 1.718 0 2.005-.041.45-.082.818-.287 1.063-.573.287-.327.409-.736.409-1.268 0-.49-.122-.859-.327-1.186a1.5 1.5 0 0 0-.777-.573c-.287-.082-1.145-.082-2.618-.082h-1.554zm-2.7-2.74h5.358c1.473 0 2.496.122 3.068.409.614.245 1.105.736 1.514 1.39.409.655.613 1.432.613 2.291 0 .818-.163 1.473-.531 2.168-.328.614-.819 1.105-1.35 1.391.777.286 1.431.777 1.84 1.432.45.695.655 1.513.655 2.495 0 1.186-.286 2.168-.859 3.027-.573.818-1.227 1.309-2.004 1.513-.532.123-1.8.205-3.764.205h-4.581V82.967zm14.357 0h2.7v8.835c0 1.35.041 2.25.123 2.66.123.735.409 1.267.859 1.676s1.063.573 1.8.573c.613 0 1.145-.164 1.554-.41.368-.245.655-.654.818-1.145.164-.49.205-1.554.205-3.15v-8.998h2.7v8.549c0 2.209-.123 3.763-.369 4.745-.245.981-.777 1.759-1.554 2.372-.859.614-1.923.9-3.272.9-1.391 0-2.496-.245-3.273-.736q-1.166-.735-1.718-2.086c-.368-.941-.532-2.618-.532-4.99v-8.795zm29.043 10.308v-2.74h5.809v6.503c-.573.696-1.432 1.268-2.496 1.759-1.063.532-2.168.736-3.231.736-1.309 0-2.495-.327-3.477-.94-1.023-.655-1.841-1.637-2.413-2.905-.573-1.268-.9-2.781-.9-4.54 0-1.8.286-3.313.9-4.582.613-1.268 1.39-2.25 2.331-2.863.982-.614 2.086-.94 3.395-.94 1.637 0 2.905.408 3.845 1.226q1.473 1.228 1.841 3.56l-2.618.613c-.204-.86-.572-1.473-1.104-1.923s-1.186-.654-1.923-.654c-1.186 0-2.086.45-2.822 1.35-.696.9-1.064 2.25-1.064 4.05 0 1.963.368 3.435 1.146 4.458.695.859 1.554 1.309 2.699 1.309a3.8 3.8 0 0 0 1.677-.368c.573-.205 1.064-.573 1.514-.982v-2.045h-3.109zm9.122-10.308h2.7v8.835c0 1.35.041 2.25.122 2.66.123.735.409 1.267.859 1.676s1.023.573 1.759.573a3 3 0 0 0 1.555-.41c.368-.245.654-.654.818-1.145.123-.49.204-1.554.204-3.15v-8.998h2.7v8.549c0 2.209-.123 3.763-.327 4.745-.246.981-.777 1.759-1.595 2.372-.819.614-1.923.9-3.232.9-1.391 0-2.495-.245-3.272-.736a4.04 4.04 0 0 1-1.677-2.086c-.369-.941-.573-2.618-.573-4.99v-8.795zm14.399 16.32V83.13h2.699v13.417h6.709v2.74zm12.271 0v-16.28h9.163v2.741h-6.463v3.845h5.604v2.741h-5.604v6.913h-2.7zm23.357-7.076v4.336h2.495c1.105 0 1.8-.082 2.127-.163.328-.123.573-.328.777-.696.205-.327.328-.777.328-1.268 0-.532-.123-.981-.328-1.309-.245-.368-.531-.613-.899-.736-.369-.123-1.146-.164-2.291-.164zm0-6.504v3.764h1.759c1.063 0 1.759 0 2.004-.041a1.92 1.92 0 0 0 1.105-.573c.245-.327.368-.736.368-1.268 0-.49-.123-.859-.327-1.186a1.5 1.5 0 0 0-.778-.573c-.286-.082-1.145-.082-2.577-.082h-1.554zm-2.7-2.74h5.359c1.431 0 2.495.122 3.068.409.613.245 1.104.736 1.513 1.39.409.655.614 1.432.614 2.291 0 .818-.205 1.473-.532 2.168-.327.614-.818 1.105-1.35 1.391a3.8 3.8 0 0 1 1.841 1.432c.45.695.654 1.513.654 2.495 0 1.186-.286 2.168-.818 3.027-.572.818-1.227 1.309-2.004 1.513-.573.123-1.8.205-3.763.205h-4.541V82.967zm21.435 9.858-1.841-6.054-1.8 6.054zm4.99 6.422h-2.945l-1.146-3.681h-5.358l-1.105 3.681h-2.863l5.154-16.28h2.945zm2.291.04v-16.28h2.658l5.441 10.881v-10.88h2.536v16.28h-2.741l-5.358-10.635v10.635zm14.357 0v-16.28h2.7v7.24l5.481-7.24h3.641l-5.031 6.34 5.276 9.982h-3.517l-3.682-7.65-2.168 2.741v4.909h-2.7z" fill="#231916"/><path d="M81.165 96.996c-24.38 10.922-50.477 5.604-64.14-10.39 14.85 24.952 42.747 33.91 69.335 22.498 24.216-10.39 37.183-35.22 31.783-59.967-1.472 18.857-15.544 38.287-36.978 47.859" fill="#0068b6"/><path d="M40.752 24.185C23.981 35.025 14.082 51.633 14 66.481v.328c.04 5.563 1.432 10.921 4.418 15.584 10.921 17.14 38.573 18.858 61.848 3.927a69 69 0 0 0 6.136-4.458c.94-1.514.327-3.232-.082-3.6-.859-.818-2.086-.94-6.872.286-4.786 1.227-15.053 4.909-19.43 5.89-4.418.982-5.685 1.473-7.73-2.904-2.046-4.336-10.963-25.484-10.963-25.484-2.046-4.335-3.232-6.626 3.436-8.426 6.667-1.84 20.902-5.931 24.666-7.077s5.849-1.308 7.28 2.864c1.391 4.172 10.677 25.934 11.7 28.06.736 1.514 1.718 2.905 3.272 3.478 1.022.409 2.495-.45 2.822-.86 12.64-14.602 16.485-32.846 8.181-45.936C96.71 18.786 85.788 14 73.353 14c-10.43 0-21.966 3.354-32.601 10.185" fill="#fac702"/></svg>