<svg width="464" height="128" fill="none" xmlns="http://www.w3.org/2000/svg"><path d="M170.008 41.047c0 .213.127.468.34.808s1.532 1.191 3.872 2.68 4.807 2.638 7.402 3.532c2.596.893 5.999 1.914 10.211 2.978 4.212 1.106 6.935 2.042 8.169 2.893 1.234.85 1.829 1.446 1.829 1.83 0 .382-.17.638-.468.808s-1.191.34-2.552.553c-1.404.213-2.893.298-4.51.298s-4.34-.213-8.169-.681-5.999-.766-6.467-.936c-.51-.17-.765-.51-.808-.979-.042-.893-.17-1.659-.383-2.255a3.7 3.7 0 0 0-1.106-1.616c-.511-.51-2.042-1.362-4.51-2.596-2.51-1.233-4.042-2-4.637-2.297-.596-.298-1.149-.468-1.574-.468s-.809.128-1.192.34-1.021.766-1.999 1.575-1.659 1.489-2.085 2.042c-1.234 1.744-3.446 3.616-6.722 5.616s-6.637 3.53-10.041 4.595c-.808.255-1.318.68-1.489 1.276-1.063 2.978-2.297 5.148-3.829 6.552-.468.425-1.191 1.191-2.169 2.255-.979 1.106-1.66 1.872-2.043 2.382q-.574.766-1.276.766c-.979 0-2.553-1.787-4.68-5.318s-3.233-7.786-3.233-12.806c0-2.468.383-5.105 1.148-7.999q1.149-4.34 1.915-5.488c.51-.766 1.064-1.149 1.617-1.149q.83 0 3.19 1.022c1.575.68 2.34 1.276 2.34 1.786q0 .766-1.148 1.787c-4.255 3.702-6.382 7.956-6.382 12.806 0 1.617.255 3.191.808 4.808.553 1.574 1.319 2.382 2.34 2.382s2.17-.425 3.489-1.318c1.319-.894 2.638-2.426 3.999-4.638s3.191-5.446 5.446-9.785c.596-1.064.978-1.617 1.234-1.617.212 0 .34.213.34.596q0 .575-.893 4.212c-.596 2.425-.894 3.744-.894 4.041q0 .384.511.383.51 0 2.808-1.276c1.531-.851 2.935-1.787 4.212-2.85 1.276-1.022 2.85-2.596 4.765-4.68 1.914-2.085 3.105-3.404 3.573-4 .468-.595.681-1.148.681-1.616 0-.511-.766-1.021-2.255-1.532q-2.234-.765-4.212-.766c-1.319 0-2.212.17-2.722.553q-2.936 1.915-4.34 1.915c-.596 0-.851-.34-.851-.979 0-.68.851-1.872 2.595-3.616 4.255-4.17 8.382-9.828 12.381-16.89.681-1.234 1.489-1.83 2.34-1.83s1.872.553 3.02 1.702q1.723 1.723 1.915 2.68c.128.638.596.936 1.489.936 3.063 0 5.446.468 7.063 1.362 1.659.893 2.467 1.787 2.467 2.723 0 .51-.34 1.02-1.021 1.489-.681.468-1.532 1.276-2.595 2.467q-1.596 1.788-3.829 4.723c-1.489 1.957-2.255 3.02-2.34 3.233-.043.17-.085.383-.085.596m-5.361-4c.468 0 .808-.17 1.021-.552l1.83-2.638c.85-1.362 1.318-2.51 1.318-3.446 0-.894-.297-1.617-.893-2.085s-1.106-.723-1.489-.723-.681.085-.936.255-1.106.936-2.51 2.255c-1.404 1.361-2.213 2.17-2.34 2.382a1.43 1.43 0 0 0-.213.724c0 .255.298.638.936 1.233l2 1.66c.595.68 1.021.936 1.276.936m-27.016-14.89c.638 0 1.106.383 1.361 1.191q.383 1.212 1.787 2.297c1.617 1.617 2.681 3.021 3.191 4.255.511 1.234.724 2.17.724 2.808s-.256 1.234-.766 1.915c-.511.68-1.277.978-2.213.978-.978 0-2.169-.34-3.701-1.021-1.489-.68-2.468-1.319-2.893-1.872q-.638-.83-.638-1.787c0-2.85.085-4.722.255-5.573s.596-1.575 1.276-2.213c.553-.68 1.149-.978 1.617-.978m45.608 37.099q0 .574-1.021 2.68c-.681 1.404-1.319 2.383-1.914 2.893-1.064 1.021-1.66 2.68-1.83 5.02-.17 2.596-.978 3.915-2.425 3.915-2.425 0-5.105.17-8.083.468l-7.659.893c-.468 0-.893-.17-1.318-.468s-1.404-1.617-2.936-3.914c-1.574-2.297-2.765-4.425-3.574-6.424s-1.234-3.446-1.234-4.34c0-1.489 1.787-2.425 5.404-2.85 2.084-.255 4.424-.766 7.02-1.574q3.893-1.15 6.764-1.15c2.851 0 5.659.554 8.509 1.703 2.851 1.106 4.297 2.17 4.297 3.148m-18.677 8.594c2.765 0 4.765-.766 5.914-2.212 1.148-1.49 1.744-2.766 1.744-3.83 0-.638-.255-1.403-.766-2.254-.51-.851-1.489-1.277-2.85-1.277-1.404 0-3.149.426-5.276 1.277-2.127.85-3.191 2.084-3.191 3.744 0 .85.383 1.83 1.106 2.893q1.021 1.659 3.319 1.659m74.751-42.332c0 .34-.212.766-.595 1.276-1.404 1.787-2.383 3.702-2.978 5.659s-1.362 3.659-2.213 5.02c-.17.34-.255.766-.255 1.361 0 .596.34 1.575 1.021 3.021.681 1.447 1.191 2.68 1.532 3.744.297 1.064.468 2.042.468 2.893 0 .894-.043 1.702-.171 2.468-.127.765-.17 1.83-.17 3.233 0 .723-.34 1.106-1.063 1.106-.681 0-2.042-.34-4.042-1.02-2-.682-3.999-1.66-6.041-2.936q-.702-.384-1.149-.383c-.596 0-.851.51-.851 1.616 0 5.148-.128 8.722-.383 10.68q-.383 2.934-.383 4.211l.085 5.276c0 1.234-.17 2-.553 2.255-.383.297-1.106.425-2.127.425s-1.659-.128-1.83-.34q-.255-.32-.255-1.149c0-.553.128-1.787.426-3.701.297-1.915.425-3.574.425-5.02l-.596-18.763c-.212-7.02-.425-11.317-.553-12.934-.127-1.616-.383-2.68-.68-3.318-.298-.596-.468-1.106-.468-1.49 0-.382.595-.637 1.829-.808 3.063-.383 6.127-1.148 9.147-2.254 3.021-1.15 5.276-1.702 6.722-1.702s2.766.127 3.957.34c1.149.213 1.744.638 1.744 1.234m-11.487 13.316c0-.85.255-1.744.766-2.722.766-1.49 1.149-3.149 1.149-4.936 0-.936-.256-1.446-.809-1.446s-1.404.425-2.51 1.319c-1.148.893-1.872 1.659-2.212 2.382s-.681 2.213-.979 4.425-.468 3.957-.468 5.19q0 1.851.383 2.298c.256.34 1.021.723 2.255 1.234 1.234.51 2.212.765 2.893.765q1.021 0 1.021-.893c0-1.064-.255-2.468-.723-4.254-.511-1.745-.766-2.894-.766-3.362m45.268-5.445c0 .212-.085.468-.298.765-.213.298-.383 1.107-.553 2.383-.17 1.319-.425 4.68-.681 10.083l-.595 21.06c-.043 2.255-.383 3.36-.936 3.36-.298 0-.894-.34-1.872-.978-.936-.68-2.213-1.404-3.787-2.254-3.361-1.745-6.084-3.49-8.168-5.276q-.767-.638-1.404-.638c-.426 0-.809.127-1.277.34-.425.213-1.616.596-3.531 1.191-.468.17-.893.51-1.361 1.064-.426.553-.936.978-1.575 1.234-.595.255-1.148.383-1.616.383-1.106 0-1.957-1.32-2.553-3.914-.596-2.596-.936-7.276-1.064-13.955-.127-6.68-.212-10.551-.425-11.572s-.298-1.702-.298-2.042.128-.596.426-.809c.297-.17 1.404-.383 3.403-.596s3.744-.51 5.403-.936c4.51-1.02 8.637-1.531 12.338-1.531 3.702 0 6.382.298 7.999.85q2.425.831 2.425 1.788M262.33 60.83q1.149 0 1.149-1.914c0-6.765-.298-12.04-.851-15.87q-.893-5.743-1.787-7.02c-.596-.85-1.489-1.276-2.595-1.276q-1.724 0-3.957.638c-1.489.426-2.553.809-3.148 1.107s-.936.808-1.149 1.489c-.213.68-.255 1.489-.255 2.425 0 .978.085 1.574.213 1.787.127.212.382.34.68.34s.936-.043 1.872-.17c.936-.128 1.83-.17 2.681-.17.85 0 1.446.17 1.701.553q.383.574.383 2.042c0 .978-.085 1.616-.255 1.83-.17.254-.893.68-2.17 1.318s-2.765 1.276-4.51 1.915c-.978.425-1.489 1.957-1.489 4.552 0 .68.043 1.149.171 1.361.127.213.297.34.595.34s1.277-.17 2.893-.467c1.659-.34 2.851-.468 3.617-.468.765 0 1.191.17 1.318.468.128.297.213.85.256 1.574 0 1.446.468 2.382 1.361 2.85.894.553 2 .766 3.276.766m61.903-30.377c0 .893-.638 1.872-1.872 2.85-1.234 1.022-2.297 1.532-3.106 1.532q-1.277 0-2.297-1.02c-1.447-1.405-2.723-2.086-3.829-2.086s-1.83.128-2.128.34c-.297.213-1.106.98-2.34 2.298-1.233 1.32-2.212 2.468-2.85 3.489-.681.978-1.021 1.702-1.021 2.212 0 .468.255.809.723 1.021.468.213.936.34 1.362.34.383 0 1.021-.17 1.829-.467 3.574-1.532 6.339-2.298 8.254-2.298 1.063 0 1.574.724 1.574 2.17 0 .51-.085.979-.255 1.319-.171.34-.553.893-1.192 1.617a15.4 15.4 0 0 0-1.744 2.68c-.553 1.021-.808 1.66-.808 1.914 0 .256.127.34.425.34l3.404-.382q1.149 0 1.148 1.276c0 1.107-.978 2.425-2.978 3.957s-3.701 2.595-5.063 3.233c-.34.17-.638.51-.85 1.107a5.7 5.7 0 0 0-.341 1.914c0 .68.17 1.276.553 1.702.383.468.936.68 1.66.68s1.999-.68 3.829-2.084c1.829-1.404 3.19-2.595 4.084-3.616.893-1.022 1.446-1.575 1.659-1.575s.298.17.298.553-.34 1.277-.979 2.68c-.68 1.405-1.786 3.064-3.403 4.979-1.574 1.914-2.808 3.233-3.616 3.956-.809.724-1.702 1.234-2.638 1.617-.936.34-1.787.723-2.425 1.064-.681.382-1.149.553-1.489.553-.298 0-.553-.128-.681-.34-.128-.256-.34-1.15-.596-2.766a29 29 0 0 1-.383-4.638l.171-3.573c0-.596-.341-.894-.936-.894-1.66 0-3.447.255-5.319.809a3.7 3.7 0 0 1-.723.085c-.255 0-.51-.213-.681-.639-.212-.425-.382-1.148-.553-2.17q-.255-1.53-.255-2.297c0-.553.383-.808 1.106-.808a4.7 4.7 0 0 1 .936.128q.638.127 1.787.127c.766 0 1.83-.255 3.063-.766 1.277-.51 2-.893 2.213-1.106.212-.255.298-.595.298-1.063 0-1.234-.341-2.042-.979-2.51-.681-.468-1.404-1.575-2.212-3.404-.043-.213-.256-.298-.553-.298s-.554.085-.724.255a16.5 16.5 0 0 1-5.828 3.532c-2.128.765-3.617 1.106-4.425 1.106-.468 0-.681-.213-.681-.596q0-.575 2.298-3.318 2.297-2.68 5.36-5.361c.809-.766 3.276-3.489 7.361-8.211 4.084-4.723 6.892-9.02 8.466-12.934.468-1.063.979-1.574 1.617-1.574s1.574.553 2.85 1.702 1.957 2.042 1.957 2.68-.34 1.191-.978 1.702a70 70 0 0 0-2.595 2.17 58 58 0 0 0-1.787 1.616c-.128.17-.171.34-.171.596s.298.51.851.808a4 4 0 0 0 1.83.426c.638 0 1.319-.085 1.999-.255s1.277-.256 1.702-.256q.639 0 1.277.639c.127.34.34.893.34 1.531m48.629 37.227c0 .383-.553.85-1.617 1.489-1.064.596-2.34.936-3.829.936s-3.276-.085-5.446-.298l-5.573-.553c-1.574-.213-2.468-.425-2.723-.596s-.596-.893-.979-2.17c-.425-1.233-1.021-2.382-1.872-3.403-.85-1.021-2.042-1.872-3.658-2.638-1.575-.766-2.596-1.106-3.021-1.106-.426 0-.766.255-.979.723-1.914 4.042-4.552 7.488-7.956 10.339-3.403 2.85-5.615 4.254-6.722 4.254-.51 0-.978-.468-1.446-1.404-.426-.936-.894-3.063-1.362-6.424s-.68-7.616-.68-12.849c0-1.744.17-3.403.553-4.977s.723-4.297 1.106-8.169q.51-5.808.511-7.275c0-.979-.086-1.787-.298-2.553-.213-.766-.298-1.234-.298-1.531 0-.639.298-1.022.936-1.107s1.872-.638 3.744-1.574 4.169-1.787 6.892-2.638c2.766-.808 5.105-1.233 7.063-1.233s3.658.383 5.02 1.148c1.404.766 2.085 1.49 2.085 2.128q0 .446-.639 1.404c-.425.595-.893 2.042-1.446 4.254a33.4 33.4 0 0 1-2.68 7.573c-1.234 2.383-2.808 4.084-4.766 5.02-3.743 1.787-5.998 2.936-6.637 3.361-.68.426-.978.766-.978.979 0 .383.383.553 1.106.553.596 0 2.51-.723 5.829-2.17 3.318-1.446 6.764-3.489 10.423-6.211.809-.639 1.404-.936 1.745-.936.34 0 .765.425 1.319 1.233q.765 1.213.765 1.787c0 .383-.468.894-1.361 1.532a30 30 0 0 0-2.808 2.297c-3.531 3.234-6.935 5.319-10.253 6.212-.426.085-.596.298-.596.51s.085.468.255.681 1.362.936 3.531 2.128c2.17 1.19 4.68 2.382 7.488 3.573s4.85 1.915 6.127 2.213c3.829.893 7.147 1.914 9.955 2.978 2.766 1.106 4.17 1.957 4.17 2.51m-40.546-23.357q.256 0 3.319-1.532c2.042-1.021 3.276-1.702 3.786-2.085s.979-1.361 1.532-2.935c.511-1.617.893-2.978 1.106-4.127s.341-2.255.341-3.404c0-1.106-.213-1.914-.639-2.34-.425-.468-1.021-.68-1.786-.68-1.107 0-2.596.808-4.51 2.467-1.915 1.66-2.851 3.021-2.851 4.085 0 .595.298.765.851.553 2.425-.979 4.127-1.447 5.02-1.447q1.404 0 1.404 1.021c0 .68-.51 1.787-1.531 3.361-1.021 1.532-2.17 2.596-3.531 3.191-1.362.596-2.213 1.064-2.596 1.404s-.595.851-.595 1.49c-.043.68.212.978.68.978m-2.084 21.315c1.106 0 2.467-.298 4.084-.936 1.617-.596 3.148-1.617 4.637-3.021 1.49-1.404 2.213-2.383 2.213-2.893s-.255-.85-.766-1.064c-1.744-.68-3.659-1.574-5.829-2.722q-1.02-.639-2.68-.639c-1.106 0-1.829.085-2.127.256-.341.17-.638 1.106-.894 2.85-.255 1.744-.425 3.319-.425 4.68s.127 2.255.383 2.766c.212.467.68.723 1.404.723m78.367-41.269c0 .34-.085.638-.212.936-.128.298-1.064 1.276-2.766 2.978a37 37 0 0 1-5.063 4.255 52 52 0 0 0-5.318 4.254 1.55 1.55 0 0 1-1.063.383c-.426 0-.724-.085-.936-.212-.213-.128-.341-.468-.341-.98q0-.765.256-1.403c.17-.425 1.063-1.957 2.637-4.637 1.575-2.638 2.808-4.638 3.702-5.957.851-1.319 1.574-2.297 2.17-2.978.595-.68.936-1.063 1.106-1.149a.7.7 0 0 1 .383-.127c.425 0 1.106.383 2.084 1.106.979.723 1.787 1.361 2.425 1.787.639.596.936 1.106.936 1.744m26.846-3.19c.936 0 1.66.467 2.255 1.36.596.894.851 1.702.851 2.34 0 .681-.128 1.234-.425 1.702-.298.468-1.872 1.362-4.765 2.723-2.894 1.32-4.851 2.085-5.829 2.298-.979.212-1.83.298-2.51.298-2.298 0-3.872.085-4.595.297-.766.17-1.234.298-1.404.298-.808 0-1.362-.595-1.659-1.83a25 25 0 0 0-.851-2.85c-.298-.68-.426-1.063-.426-1.234q0-.893 1.66-1.02a17.9 17.9 0 0 0 5.19-1.022c1.532-.595 3.787-1.276 6.807-2.127 2.978-.808 4.893-1.234 5.701-1.234m14.338 19.783c0 1.446-.511 2.17-1.489 2.17-.341 0-1.021-.128-2-.383-.978-.256-2.34-.383-4.042-.383s-2.85.085-3.403.297c-.553.213-1.064.724-1.489 1.532s-.681 1.49-.766 2.085-.128 2.255-.128 5.02l-.17 12.21c0 1.575.128 3.574.383 5.914s.511 3.957.681 4.893c.212.936.298 1.574.298 1.957 0 1.021-.426 1.531-1.319 1.531-.341 0-.766-.085-1.234-.255q-1.66-.638-6.637-1.914c-3.319-.851-5.744-1.66-7.233-2.468s-3.148-1.957-5.063-3.531c-1.914-1.532-2.85-2.383-2.85-2.51 0-.128.085-.213.255-.213s.383.043.596.085q10.083 2.808 12.636 2.808c1.701 0 2.85-.298 3.403-.893.553-.596.809-1.447.809-2.638s-.128-4.042-.426-8.637q-.447-6.828-.893-9.7c-.298-1.872-.553-2.978-.681-3.318s-.553-.596-1.191-.894c-.638-.255-1.149-.383-1.574-.383-1.575 0-3.659.213-6.34.68-2.68.469-4.85 1.107-6.509 1.958-.596.298-1.106.468-1.532.468s-1.106-.68-1.957-2.085c-.851-1.361-1.319-2.255-1.319-2.68 0-.383.043-.68.171-.851q.191-.255 2.935-.766a80 80 0 0 1 4.297-.68c1.021-.128 2.723-.426 5.063-.979 2.383-.51 4.297-1.064 5.786-1.574a23.7 23.7 0 0 1 3.957-1.106 18.3 18.3 0 0 1 3.361-.298 14.4 14.4 0 0 0 3.063-.34c.979-.256 1.915-.383 2.723-.468.851-.086 2.468-.128 4.893-.128.978 0 1.659.213 1.999.596.341.382.894 1.148 1.66 2.254.893 1.15 1.276 2.34 1.276 3.617m-42.715-2.468c0 .468-.426 1.191-1.319 2.085-.851.893-1.404 1.574-1.659 1.957a2.76 2.76 0 0 0-.341 1.319q-.063 3.127-.51 7.785c-.298 3.106-.426 5.744-.426 7.956l.085 5.744c0 2.595-.212 4.297-.595 5.063q-.639 1.148-2.042 1.148-1.404 0-2.043-.382c-.425-.256-.595-.724-.595-1.362s.127-2.765.425-6.424.426-6.254.426-7.828-.085-2.894-.298-4.042c-.213-1.106-.383-1.744-.511-1.872-.127-.128-.383-.213-.638-.213-.595 0-1.361.766-2.34 2.255-.978 1.49-1.489 2.51-1.489 3.02 0 .554-.085.937-.213 1.192-.127.255-.723.893-1.786 1.83-1.064.978-2 1.701-2.893 2.212-.894.51-1.83.85-2.723 1.063-.936.213-1.745.34-2.425.34-.681 0-1.064-.127-1.064-.34 0-.255.128-.553.425-.936.298-.383 1.277-1.404 2.893-3.148q2.49-2.616 3.83-3.829c.85-.85 2.297-2.51 4.254-5.063 1.957-2.51 3.616-4.807 4.893-6.892s2.34-3.531 3.105-4.425 1.404-1.319 1.872-1.319 1.192.34 2.17 1.064q1.532 1.085 1.532 2.042" fill="#1b1918"/><path d="M150.31 101.035c1.616.255 2.808.723 3.573 1.319 1.107.851 1.66 1.872 1.66 3.105 0 .936-.383 1.83-1.107 2.681-.723.851-1.701 1.489-2.978 1.872-1.276.383-3.191.595-5.786.595h-10.849v-.51h.851c.979 0 1.659-.255 2.085-.766q.383-.51.383-2.042V95.164c0-1.15-.17-1.872-.511-2.213-.425-.383-1.106-.595-1.957-.595h-.851v-.51h9.956c1.872 0 3.361.127 4.467.34 1.702.34 2.978.935 3.872 1.744.893.85 1.318 1.83 1.318 2.893 0 .936-.34 1.787-1.063 2.51-.638.766-1.702 1.319-3.063 1.702m-8.892-.766a7.3 7.3 0 0 0 1.446.128c.553 0 1.149.042 1.787.042 1.659 0 2.893-.127 3.744-.425s1.489-.724 1.915-1.32c.425-.595.68-1.233.68-1.956q0-1.659-1.659-2.808c-1.106-.766-2.723-1.149-4.808-1.149-1.148 0-2.169.085-3.063.298v7.19zm0 8.977c1.319.255 2.595.383 3.871.383 2.042 0 3.617-.383 4.68-1.149 1.064-.766 1.617-1.659 1.617-2.765 0-.724-.255-1.447-.723-2.085-.468-.681-1.277-1.191-2.383-1.574s-2.467-.596-4.084-.596c-.681 0-1.319 0-1.787.043-.511 0-.893.042-1.191.085zm30.504-4.935h-8.934l-1.574 2.978c-.383.723-.596 1.276-.596 1.617q0 .446.511.765c.34.213 1.063.341 2.169.426v.51h-7.232v-.51c.978-.128 1.574-.34 1.872-.553.595-.426 1.234-1.362 1.914-2.681l8.084-15.443h.596l7.998 15.614c.638 1.276 1.234 2.084 1.744 2.425.511.383 1.277.595 2.213.638v.51h-9.105v-.51c.936-.043 1.532-.17 1.872-.383s.468-.468.468-.766c0-.425-.213-1.063-.681-1.914zm-.468-1.021-3.914-7.573-3.999 7.573zm7.786-11.445h6.254l14.083 14.082V95.121c0-1.149-.171-1.872-.468-2.17-.426-.383-1.064-.595-2-.595h-.808v-.51h7.998v.51h-.808c-.979 0-1.66.255-2.085.723-.255.298-.383.979-.383 2v15.784h-.596l-15.188-15.104v11.53c0 1.149.17 1.872.468 2.17.425.383 1.106.595 2 .595h.808v.511h-7.999v-.511h.809c.978 0 1.702-.255 2.085-.723.255-.298.382-.978.382-2V94.313q-1.02-.957-1.531-1.277c-.341-.212-.851-.383-1.532-.553-.34-.085-.808-.127-1.489-.127zm34.504 8.339 8.509 6.892q2.106 1.724 3.574 2.298a8.2 8.2 0 0 0 2.978.68v.511h-10.977v-.511c.638 0 1.149-.085 1.404-.255.298-.17.426-.383.426-.596s-.043-.425-.17-.595c-.128-.17-.468-.511-1.064-.979l-7.956-6.381v6.041c0 .936.085 1.574.213 1.872.127.213.34.425.723.596.468.212.979.34 1.532.34h.765v.51h-9.827v-.51h.808c.936 0 1.659-.213 2.085-.681.255-.298.425-1.021.425-2.127V95.164c0-.936-.085-1.575-.213-1.872-.127-.213-.34-.426-.68-.596-.511-.213-1.021-.34-1.575-.34h-.808v-.51h9.828v.51h-.766c-.553 0-1.063.085-1.531.297a1.27 1.27 0 0 0-.724.681c-.127.298-.212.894-.212 1.83v5.743c.212-.17 1.021-.766 2.34-1.744 3.361-2.51 5.403-4.17 6.083-5.02.298-.383.468-.681.468-.979 0-.213-.127-.383-.34-.553-.255-.17-.638-.255-1.191-.255h-.511v-.51h8.467v.51c-.511 0-.936.042-1.362.17-.425.085-.893.298-1.489.596q-.893.446-2.17 1.403c-.255.17-1.404 1.15-3.446 2.851zm32.972-8.764c2.978 0 5.574.936 7.786 2.765 2.17 1.872 3.276 4.17 3.276 6.935 0 2.85-1.106 5.233-3.319 7.105s-4.892 2.808-7.998 2.808c-3.148 0-5.829-.936-7.998-2.766-2.17-1.829-3.234-4.211-3.234-7.105 0-2.978 1.234-5.403 3.744-7.275 2.17-1.659 4.723-2.467 7.743-2.467m-.298 1.02c-2.084 0-3.701.639-4.977 1.873-1.532 1.531-2.34 3.829-2.34 6.807 0 3.063.808 5.403 2.425 7.062 1.234 1.277 2.85 1.872 4.892 1.872q3.255 0 5.361-2.042c1.404-1.361 2.127-3.531 2.127-6.509 0-3.191-.765-5.616-2.34-7.19-1.233-1.277-2.978-1.872-5.148-1.872m18.38.426v7.36h4.212c.978 0 1.659-.17 2.127-.51q.638-.51.893-2.042h.639v6.339h-.639c0-.723-.127-1.276-.34-1.617a1.9 1.9 0 0 0-.936-.766c-.383-.17-.978-.255-1.744-.255h-4.212v5.871c0 .936.085 1.575.213 1.872.127.213.34.426.723.596.51.213 1.021.34 1.574.34h.851v.511h-9.871v-.511h.809c.936 0 1.659-.212 2.085-.68.255-.298.425-1.021.425-2.128V95.121c0-.936-.085-1.574-.213-1.872-.127-.213-.34-.425-.68-.596a3.9 3.9 0 0 0-1.575-.34h-.808v-.468h17.146l.212 4.127h-.595c-.298-.85-.638-1.532-1.021-1.914a3 3 0 0 0-1.447-.894c-.553-.17-1.446-.255-2.638-.255h-5.19zm37.056 12.551.554.085-1.958 5.063h-17.783v-.511h.851c.978 0 1.659-.255 2.084-.765.256-.298.341-.979.341-2.043V95.164c0-1.192-.171-1.915-.468-2.213-.426-.383-1.107-.595-1.957-.595h-.851v-.51h10.423v.51q-1.851 0-2.552.255c-.511.213-.809.425-1.022.723-.17.298-.255 1.021-.255 2.127v11.785c0 .766.085 1.277.255 1.575.128.212.341.34.639.425.297.085 1.148.128 2.637.128h1.66c1.787 0 3.02-.085 3.701-.298.723-.213 1.361-.596 1.957-1.106.596-.553 1.191-1.404 1.744-2.553m16.465-13.061v-.51h8.126v.51h-.851c-.893 0-1.616.297-2.084.936-.255.297-.341.936-.341 2v7.615c0 1.872-.212 3.361-.68 4.382q-.702 1.531-2.681 2.68c-1.361.723-3.148 1.106-5.488 1.106-2.51 0-4.425-.34-5.701-1.063-1.319-.723-2.212-1.659-2.765-2.851-.341-.808-.553-2.34-.553-4.637v-7.318c0-1.148-.171-1.914-.596-2.255-.383-.34-1.021-.553-1.872-.553h-.851v-.553h9.956v.51h-.894c-.936 0-1.617.256-2.042.724-.298.34-.425 1.021-.425 2.085v8.168c0 .724.085 1.574.255 2.51s.468 1.66.893 2.213c.426.553 1.064.978 1.872 1.319.809.34 1.787.51 2.978.51 1.489 0 2.851-.255 4.042-.808q1.787-.83 2.425-2.042c.426-.851.638-2.255.638-4.255v-7.573c0-1.191-.17-1.914-.468-2.212-.425-.383-1.106-.596-1.957-.596h-.936zm19.741-.936c2.978 0 5.574.936 7.743 2.765s3.276 4.17 3.276 6.935c0 2.85-1.106 5.19-3.318 7.105-2.213 1.872-4.893 2.808-7.999 2.808-3.148 0-5.828-.936-7.998-2.766-2.17-1.829-3.234-4.211-3.234-7.105 0-2.978 1.234-5.403 3.744-7.275 2.213-1.659 4.808-2.467 7.786-2.467m-.298 1.02c-2.042 0-3.701.639-4.935 1.873-1.531 1.531-2.34 3.829-2.34 6.807 0 3.063.808 5.403 2.425 7.062 1.234 1.234 2.851 1.872 4.893 1.872q3.255 0 5.361-2.042c1.404-1.361 2.127-3.531 2.127-6.509 0-3.191-.766-5.616-2.34-7.148-1.277-1.319-2.978-1.914-5.191-1.914m27.825-.595h8.041v.51h-.426c-.298 0-.723.086-1.276.298a5.6 5.6 0 0 0-1.532.894c-.468.383-1.021 1.064-1.702 1.957l-5.53 7.105v4.722c0 1.149.17 1.872.468 2.17.425.383 1.106.596 2.042.596h.766v.51h-9.786v-.51h.809c.978 0 1.659-.255 2.084-.723.256-.298.383-.979.383-2v-4.467l-6.424-7.871c-.723-.936-1.234-1.49-1.532-1.744-.255-.213-.808-.51-1.659-.851-.213-.085-.553-.128-.978-.128v-.468h9.827v.51h-.51c-.553 0-1.021.086-1.447.298-.468.213-.68.511-.68.936q0 .51 1.021 1.787l4.807 6.042 4.51-5.786q1.021-1.277 1.021-1.915c0-.255-.085-.51-.255-.68-.17-.213-.383-.341-.681-.469s-.766-.17-1.361-.17zm19.102 12.466h-8.892l-1.574 2.978c-.383.723-.595 1.276-.595 1.617q0 .446.51.765c.341.213 1.064.341 2.17.426v.51h-7.233v-.51c.979-.128 1.575-.34 1.872-.553.596-.426 1.234-1.362 1.915-2.681l8.083-15.4h.596l7.998 15.571c.639 1.233 1.234 2.084 1.745 2.425.51.383 1.276.595 2.212.638v.51h-9.062v-.51c.894-.043 1.532-.17 1.872-.383s.468-.468.468-.766c0-.425-.213-1.021-.681-1.914zm-.468-1.021-3.914-7.573-3.999 7.573zm7.786-11.445h6.254l14.082 14.04V95.079c0-1.15-.17-1.872-.467-2.17-.426-.383-1.064-.596-2-.596h-.808v-.468h7.998v.51h-.808c-.979 0-1.66.256-2.085.724-.255.298-.383.979-.383 2v15.784h-.596l-15.146-15.104v11.53c0 1.149.171 1.872.468 2.17.426.383 1.107.595 2 .595h.808v.511h-7.998v-.511h.808c.979 0 1.66-.255 2.085-.723.255-.298.383-.978.383-2V94.313q-1.021-.957-1.532-1.277c-.34-.212-.851-.383-1.531-.553-.341-.085-.809-.127-1.489-.127v-.51zm45.395-.425.596 5.913h-.596c-.595-1.489-1.361-2.595-2.34-3.318-1.361-1.064-3.105-1.617-5.275-1.617-2.936 0-5.148.936-6.68 2.85-1.276 1.575-1.914 3.49-1.914 5.702 0 1.787.425 3.403 1.276 4.892s1.957 2.553 3.319 3.234q2.042 1.021 4.212 1.021c.851 0 1.659-.085 2.467-.255a11.3 11.3 0 0 0 2.298-.766v-5.403c0-.936-.085-1.532-.256-1.83s-.468-.51-.808-.681c-.383-.17-1.021-.212-1.957-.212v-.596h8.892v.511h-.426c-.893 0-1.489.255-1.829.723-.213.34-.34 1.021-.34 2v5.743a24 24 0 0 1-3.872 1.276q-1.914.383-4.212.383c-4.425 0-7.828-1.148-10.126-3.488-1.744-1.745-2.595-3.744-2.595-6.042 0-1.659.468-3.233 1.447-4.722a11 11 0 0 1 4.765-4.127c1.702-.808 3.659-1.191 5.956-1.191.851 0 1.617.042 2.297.17.681.127 1.66.34 2.893.723.639.213 1.064.298 1.277.298s.383-.085.553-.255.255-.468.298-.936z" fill="#000"/><path d="M103.339 22.669c-15.06-15.53-45.565-9.615-67.859 13.104-16.677 17.06-24.208 38.8-20.591 55.223l42.12-17.997c-1.107-9.19 1.275-20.379 7.274-30.547C74.877 24.541 92.746 16.245 104.02 24.03c.468.34.936.681 1.362 1.021a28 28 0 0 0-2.043-2.382M18.292 99.973a26 26 0 0 0 4.042 5.36c15.06 15.529 45.566 9.616 67.86-13.146 6.636-6.764 11.784-14.295 15.4-21.91-.085.127-.17.297-.255.425-10.594 17.911-28.463 26.208-39.737 18.38-2.467-1.703-4.467-4.042-5.914-6.893z" fill="#003a81"/><path d="m79.685 46.96-6.467 18.635 18.634 6.424 6.467-18.634z" fill="#ef7d27"/></svg>