<svg width="128" height="128" fill="none" xmlns="http://www.w3.org/2000/svg"><path d="M63.5 21.5c-23.5 0-42 19.226-42 42.5 0 23.78 19 42.5 42 42.5 11 0 18.5-4.048 22-6.072 8-5.059 12.5-12.142 11.5-19.225-1-6.072-6.5-10.626-13.5-12.65-.5 0-1.5-.505-2-.505 3.5-2.024 5.5-4.554 6-8.096 1-7.589-7.5-15.178-19-16.696-10.5-1.518-19-.506-22-.506v13.66c6-1.011 14-1.011 20.5 0 5.5 1.013 9 3.037 9.5 5.566 0 .506 0 1.518-.5 2.024-1.5 2.024-4 2.024-6 1.518-7-1.012-15-1.012-23 0v13.66c7.5-1.011 20-1.011 26 0 5.5 1.013 9 3.542 9.5 6.578 0 1.518-.5 2.53-1.5 4.047-2 2.53-8 5.06-16.5 5.06-17 0-31-14.166-31-31.369s14-31.369 31-31.369 31 14.167 31 31.369v3.541c2 1.013 5.5 3.543 9.5 8.096 1-3.541 1.5-7.59 1.5-11.637C106 40.22 87 21.5 63.5 21.5" fill="#e50012"/></svg>