<svg width="469" height="128" fill="none" xmlns="http://www.w3.org/2000/svg"><path d="m188.591 101.597-7.924-16.667h-1.206l-7.321 17.27c-1.206 2.369-1.206 3.574-3.058 3.574v.603h6.718v-.603c-1.205 0-2.454 0-2.454-1.205 0-.603.603-1.766 1.206-4.178h7.321c.603.603 1.809 2.972 1.809 4.178s-.603 1.205-2.455 1.205v.603h10.982v-.603c-1.809 0-1.809-1.205-3.618-4.177m-10.379-10.12 3.058 7.148h-6.116zm32.3-6.16v.604c2.455 0 3.058 1.206 3.058 2.971v9.518l-11.585-13.092h-7.321v.603c.603 0 .603 0 3.057 2.368v14.901c0 1.766-.603 2.369-3.057 2.369v.603h7.924v-.603c-2.455 0-3.058-.603-3.058-2.971v-12.49l15.246 16.667h1.205V88.29c0-1.206 0-2.37 2.455-2.37l-.603-.602zm32.946 19.855s-9.776-10.724-10.379-11.93c5.469-5.34 7.321-7.149 10.982-7.149v-.603h-9.776v.603c2.454 0 3.057.603 3.057 1.206s0 .603-1.205 1.766c0 0-6.116 5.34-7.322 6.546v-6.546c0-2.369 1.206-2.369 3.058-2.972v-.603h-11.585v.603c1.809 0 3.058 0 3.058 2.369v15.504c0 1.765-1.206 1.765-3.058 2.368v.603h11.585v-.603c-1.809 0-3.058-.603-3.058-2.368v-5.943l.603-.603 6.116 7.149c.603.603.603 1.205.603 1.205 0 .603-.603.603-2.455.603v.603h11.585v-1.206c-.603 0-1.206 0-1.809-.602m12.791-9.518c0 2.971 1.205 5.943 3.66 8.355 2.455 1.765 5.47 2.971 8.527 2.971 3.661 0 6.719-1.206 8.527-2.971 2.455-1.766 3.661-4.78 3.661-8.355 0-6.546-4.866-11.327-12.188-11.327-7.321 0-12.187 4.78-12.187 11.327m12.187-9.56c5.47 0 6.116 4.177 6.116 10.12s-1.809 10.12-6.116 10.12c-3.66 0-6.115-4.177-6.115-10.12s1.249-10.12 6.115-10.12m14.04-1.164v.603c1.809 0 3.058 0 3.058 2.369v15.504c0 1.766-1.206 1.766-3.058 2.368v.603h12.188v-.603c-2.455 0-3.661 0-3.661-2.368v-7.15c4.264 0 4.867 2.37 4.867 4.781h.603V90.314h-.603c-.603 2.368-.603 4.78-4.867 4.78v-7.149c0-1.206.603-1.206 2.455-1.206 6.115 0 6.718 1.766 7.321 5.34h.603l.603-7.149zm49.569 11.757c-.861-.818-2.368-1.378-4.479-1.636 1.809-.603 4.867-1.206 4.867-4.78s-3.058-5.34-9.13-5.34h-10.379v.602c1.809 0 3.058 0 3.058 2.369v15.504c0 1.766-1.206 1.766-3.058 2.368v.603h10.982c7.321 0 9.776-4.22 9.776-5.943 0-1.766-.775-2.928-1.637-3.746m-9.948-9.388c0-.603 0-1.206 1.809-1.206 2.455 0 3.876 1.809 3.66 4.178s-1.205 4.177-5.469 4.177zm.603 8.355c2.455 0 4.866.603 4.866 4.78 0 2.972-1.205 4.781-4.263 4.781-.603 0-1.206 0-1.206-1.766v-7.752h.603zm-155.857 1.034c-.862-.819-2.369-1.379-4.479-1.637 1.809-.603 4.866-1.206 4.866-4.78s-3.057-5.34-9.13-5.34h-10.379v.602c1.809 0 3.058 0 3.058 2.369v15.504c0 1.766-1.206 1.766-3.058 2.368v.603h10.982c7.321 0 9.776-4.22 9.776-5.943-.043-1.766-.775-2.928-1.636-3.746m-9.992-9.389c0-.603 0-1.206 1.809-1.206 2.455 0 3.876 1.809 3.661 4.178-.216 2.368-1.206 4.177-5.47 4.177zm.646 8.355c2.455 0 4.867.603 4.867 4.78 0 2.972-1.206 4.781-4.264 4.781-.603 0-1.206 0-1.206-1.766v-7.752h.603zm189.579 9.518c-2.455 0-3.058-.603-3.058-1.766v-7.752c3.058 0 4.866.603 5.469 4.78h.603V89.711h-.603c-.603 3.574-2.454 4.78-5.469 4.78v-7.149c0-1.206.603-1.206 2.455-1.206 4.866 0 6.718.603 7.924 5.34H355V84.93h-19.509v.603c1.809 0 3.057 0 3.057 2.369v15.504c0 1.766-1.205 1.766-3.057 2.368v.603h20.112l1.206-6.546h-.603c-2.412 4.738-6.073 5.341-9.13 5.341m12.187-20.242v1.206c1.809 0 3.058 0 3.058 2.369v15.504c0 1.765-1.206 1.765-3.058 2.368v.603h12.188v-.603c-1.809 0-3.058 0-3.058-2.368V88.505c0-1.766 1.206-1.766 3.058-2.369v-.603h-12.188zm17.701 0v1.206c1.808 0 3.057 0 3.057 2.369v17.269c0 1.206 0 2.369-1.808 2.369-.603 0-1.163-.258-1.206-.603-.043-.344.086-.603.56-.603.473 0 .689-.603.689-1.206 0-1.765-1.809-2.368-2.455-2.368-1.206 0-2.455.603-2.455 2.368 0 0 0 4.178 6.116 4.178 2.454 0 3.66-.603 4.866-1.206 1.809-1.206 2.455-2.972 2.455-5.943V89.065c0-2.369 1.206-2.369 3.058-2.972v-.603H377.05v-.56zm14.039 0v1.206c1.809 0 3.058 0 3.058 2.369v15.504c0 1.765-1.206 1.765-3.058 2.368v.603h12.188v-.603c-1.809 0-3.058 0-3.058-2.368V88.505c0-1.766 1.206-1.766 3.058-2.369v-.603h-12.188zm29.845 0v1.206c2.455 0 3.058 1.206 3.058 2.972v9.517l-11.585-13.092H405v.603c.603 0 .603 0 3.058 2.369v15.504c0 1.765-.603 2.368-3.058 2.368v.603h7.924v-.603c-2.455 0-3.058-.603-3.058-2.971V90.314l15.246 16.666h.603V88.505c0-1.206 0-2.369 2.455-2.369v-.603h-7.322zm22.567 12.49v.602c2.455 0 3.058 0 3.058 2.369v3.575c0 1.206-.603 2.368-3.661 2.368-5.469 0-6.718-5.943-6.718-10.12 0-6.546 1.809-10.12 6.115-10.12 4.264 0 6.719 4.177 7.925 6.545h.602V85.49h-1.205c-.603.603-.689 1.206-1.12 1.206s-.259-.086-1.335-.603-3.058-1.206-4.867-1.206c-7.321 0-12.188 4.78-12.188 11.327 0 5.34 3.661 11.326 12.791 11.326 3.058 0 7.322-.603 9.13-1.766v-4.177c0-2.369.603-2.369 3.058-2.971V97.42zm-35.099-58.83c1.852 1.25 3.058 2.456 4.307 1.853 1.119 0 1.765-.517 2.325-1.12l.129-.13c0-.602 1.163-.602 1.766-.602h2.498l3.058-.603h4.909c1.852.603 5.513 0 6.159 0h.172c.861 0 3.618.043 4.737.603 2.326.603 3.532.603 4.695.603h.215l2.455.603h3.057c1.249 0 3.058-.603 4.91 0h.129c.56 0 1.077.043 1.077.603 0 .603-.603 2.454-.603 3.703-.603.603-1.206 1.81-4.134 3.015l-.173.086-.603.603c-.603.603-1.249 1.249-2.454 1.249h-.259c-1.292 0-3.919-.043-5.125-.56l-.129-.043-.603-.603c-1.249-1.249-2.455-1.852-3.058-1.852-1.205 0-1.808.56-2.411 1.723l-.043.13v1.851c0 .603.56 2.326.603 3.015v12.446c0 .603.603 1.249.603 1.852.602 1.206.602 1.808.602 2.411v4.393c-.043-.474-.602 1.809-.602 1.895 0 .56-.517 1.163-.603 1.723v1.378c-.603 0-.603.603-1.249.603-.603 0-1.206-1.163-1.206-1.25l-.603-1.248c-.603-1.206-.603-1.809-.603-2.412v-.129c0-.646-.043-1.809-.603-2.412-.56-.56-.603-1.68-.603-2.842v-.258c.603-1.25.603-3.101 0-4.35 0-.603-.56-2.369-.603-3.575v-3.23c0-.129 0-3.617-1.163-4.866l-.086-.086v-.603c0-1.25-1.249-2.455-3.703-2.455-3.058 0-4.307 0-5.513.603-1.206 0-3.575.603-4.264.043l-.043-.043h-3.703c-1.206.603-1.809.603-2.412 1.723l-.043.129v3.704c0 1.205-.56 2.368-.603 3.014v.086l-.603 1.852c0 .603 0 1.25-.603 1.852 0 1.249-.603 1.852-.603 2.455s-.603.603-.603 1.249c0 .603-.603 1.249-.603 1.249-.603 1.249-1.249 1.852-4.909 3.703-2.455 1.25-2.455 1.25-3.058 1.852-.56 0-1.163.56-1.723.603h-1.033c-1.809 0-4.048-.043-4.651-.603-1.206-1.206-2.412-1.809-2.455-3.574v-1.981c0-1.25.603-1.852.603-2.455.603-3.1 1.852-3.1 3.057-3.704 1.163-.603 2.326-1.163 3.532-1.249h1.421c1.249 0 2.455-.603 3.704-1.249.603-1.249 2.455-2.454 3.058-3.703.602-1.25 1.851-2.455 1.851-3.704.603-1.25.603-2.455 0-3.1-.603 0-1.249-.604-1.851-.604-1.852 0-3.704.603-4.91 1.25-.56.559-1.12.602-2.196.602h-.862c-.603-.603-1.249-.603-1.852 0-1.249.603-2.454.603-3.057.603s-1.852-.603-1.852-1.852c0-1.852-.603-3.1-1.249-4.35-.56-1.162-.603-2.282-.603-2.971v-.13c.603-.602 1.249-1.248 2.455-1.851 2.368-1.206 3.014-1.25 3.617-1.25h1.292c1.206-.602 2.369-.042 3.575 0h7.493c1.163-.559 1.809-.56 3.015.69m-87.123-18.56c.56 0 .56.042 1.162.602.603 0 1.249 1.25 1.852 1.852l1.249.603 1.249 1.249c.603 1.249 1.852.603 2.455.603h1.249c.603 0 1.852.603 2.455.603 1.162 0 2.325-1.12 2.454-1.206 0 0 0-.603.603-.603.603-.603 1.249-.603 1.249-1.249l.603-.603c.603 0 1.249-.603 1.852-.603s3.058.603 4.307.603c.603 0 2.455-.603 6.158 0h13.523c0 .603.603.603 1.249.603h.215c.991 0 1.034.043 1.637.603.56.56 1.679.603 2.799.603h.259c.603 0 1.249.603 1.851 1.249.603.646.603.603.603 1.249 0 .603-.603.603-.603 1.249-.602.603-1.248 1.851-2.454 2.454-1.249.603-1.852 1.852-1.852 3.704v4.35c-.603.603-.603 1.852-.603 2.455v4.952c0 .603-.603.603-.603 1.25-.603.602-.603 1.248-1.249 1.248h-2.455c-1.249.603-1.852 1.25-1.852 2.455v.603c0 .56.517 1.12 1.077 1.68l.172.172 2.455 2.455.603.602c1.249 1.25 3.058 3.704 4.91 4.35l1.249 1.25c.602.602 1.248 1.248 2.454 1.248h2.455c.603 0 1.249 0 1.249.603.603 1.249-.603 3.1-1.249 3.704l-1.249 1.249c-1.249.602-2.455 2.454-3.704 3.1-1.248.603-1.851 1.25-3.703 0-1.852-.603-2.455-1.249-3.704-3.1-1.249-2.455-3.058-3.101-4.91-3.101-.602.603-1.248.603-1.851 1.249-.603.603-1.249.603-.603 3.1h-4.264c-2.713 0-4.35.044-4.953.603-.602 0-1.248.603-1.851 1.25-1.249.602-1.852 1.248-2.455 1.851-.603 0-1.249.603-1.852 1.25l-.603.602c-1.249.603-3.704.603-4.307 0l-.603-.603c-1.248-1.249-2.454-1.852-2.454-4.35V66.37c0-.603-.603-1.852-1.852-1.852-1.852-.603-4.307 1.249-5.513 1.852 0 .603-.603.603-.603.603-1.851.603-4.909 3.703-6.761 4.952l-.603.603c-1.249 1.25-1.852 1.852-2.455 1.852-1.249-.603-2.455-1.249-2.455-2.455V65.81l.603-.603c0-.603.603-.603.603-.603l1.852-1.852c.56-.56.603-1.68.603-2.842v-.517c0-1.077-.043-1.637-.603-2.24 0-.602-1.076-.602-2.239-.602h-.216c-.603 0-2.454.603-3.057 0-1.249-.603-1.852-1.852-1.852-4.35v-.603c0-2.369.56-2.455 1.163-2.455h1.292c2.454.603 3.703.603 4.306 0 .603 0 1.249-1.249 1.249-1.852s0-1.249-1.249-1.852h-4.306l-.603-.602c-.603-.603.603-1.852-.603-2.455-.603-.603-1.249-.603-1.852-.603l-1.249.603h-2.455c-1.249 0-2.455-1.25-2.455-4.953 0-3.1 3.704-5.555 5.513-6.804l1.249-.603c1.249-1.25 4.306-2.455 4.909-3.101 1.249-.603.603-.603 1.852-1.25 1.852-1.248 3.058-1.85 3.704-3.703.603-1.249.603-1.249 1.249-1.852zm-61.585-2.37c1.722 0 3.402.087 4.565 1.206.603.603 1.206 2.412 2.455 3.015 1.808.603 1.808 1.206 2.454 1.809 1.206 1.206 4.264.603 4.867.603 0 0 2.928-.56 5.34-.603h1.938l3.058.603c.603 0 1.206-.603 1.809-.603.559-.56 1.119-.603 1.679-.603h.172c1.163 0 1.766 0 2.369.517l.086.043.603.603 2.455 1.206c.603 0 1.206.602 1.206 1.808 0 .56-.56.603-.603 1.077v.086l-.603 1.809c0 .603 0 1.206-.603 1.206-.603.603-1.206.603-3.058 2.412-.603.602-1.206 1.205-1.809 1.205-.602 0-1.205 0-2.454-.602-1.206 0-1.206-.603-1.809 0l-.129.129c-.56.56-1.077 1.163-1.077 2.282.086.215 1.206 2.455 1.206 3.575 0 1.206-.603 1.809-1.206 2.412-.603.602-3.058 3.014-3.058 5.986 0 3.531 1.163 4.737 1.809 5.943l.043.086.603.603c.603 1.206 1.206 1.206.603 1.809-.56.56-1.636.603-2.282.603h-.173l-1.206-.603c-1.808 0-3.057 0-4.866-.603-.603 0-1.206-.603-1.809-.603 0 0-.603-.603-1.809-.603-2.454-.603-7.321-.603-7.924 2.412v.473c0 2.369.043 5.556.603 6.676.603 1.808.603 4.78 0 5.986l-.258.388c-1.12 1.68-2.283 3.23-3.403 3.23-.603 0-2.454-2.412-3.057-5.384-.603-1.766-.043-4.048.56-6.374l.043-.215V61.46c.559-1.68.603-2.325.603-3.359v-.215c0-1.81-.603-3.015-3.661-3.015h-.388c-2.11 0-2.756.043-4.479.603-1.119.56-1.205.603-3.187.603h-.732c-1.722 0-3.445.043-4.005 1.206-.603 0-.603.603-.603 1.206 0 1.205.603 1.808 1.206 1.808.603.603 1.809.603 2.455 0 .603 0 1.766-.56 2.928-.043l.13.043 1.205.603c.603 0 1.206.603 1.809.603s1.766 0 1.809.56v.646c-.603 0-.603.603-.603 1.206v.215c0 1.077-.086 1.637-1.206 2.197-1.206 1.206-6.718 3.014-9.776 3.014h-.301c-3.532 0-6.46-.129-8.269-4.177-.56-1.12-.603-1.723-.603-2.283v-.732s.56-.56 1.12-.603h1.292c1.206-.603 1.809-.603 2.411-2.842l.044-.13v-1.377c.602-1.163.602-2.283.602-3.446v-2.024c0-.56.087-1.12 1.809-.517.603-.56 1.163-1.722 1.206-3.402v-4.651c0-1.723-.043-3.833-1.12-4.996l-.086-.086-.603-.603c-.603-1.206-1.808-2.412-6.115-2.412-3.058 0-3.058-.602-3.661-1.205s-.603-1.81-.603-1.81l-.086-.3c-.56-1.68-1.033-3.403.732-5.082 1.766-1.723 2.929-1.81 4.651-1.81h17.916c1.206 0 1.206-1.205 1.809-1.808 0-.603.603-1.206 1.206-1.809S255 20.632 255 20.03q0-.905 1.808-1.808c.56-.56 1.12-.604 2.197-.604zm21.576 41.99c.603.603 1.249.603 1.852.603 2.455 0 3.704.603 4.306 1.852 1.249 1.852 1.249 3.1-.602 3.704v3.704c-.603.602-1.249 2.454-3.058 3.1-1.68.56-1.809.603-2.799.603h-.56c-1.077 0-1.637-.043-2.197-.603l-1.852-.603c-1.162-.56-1.765-.603-3.359-.603h-.344c-2.455-.602-3.704-1.248-4.91-3.1l-1.249-1.852c-1.249-1.25-1.852-1.852-1.852-3.1 0-2.456.603-3.705 1.852-3.705.603 0 1.852.603 2.455.603h4.91c.602 0 1.851.603 2.454 0l1.249-.603zm-94.445-41.99c.603 0 1.206 1.206 1.206 2.412 0 1.163 0 2.326 1.12 4.608l.086.173 1.206 1.206c1.206 1.162 2.412 2.928 5.9 2.411l.172-.043h4.867c1.809 0 3.058.603 4.263.603h.259c1.206 0 2.842.043 3.402.603 1.206.603 1.809 2.283 1.809 4.048v.732c-.603 1.766-1.766 4.092-3.532 4.738l-.129.043h-7.924c-.603 0-1.206.603-2.455.603-1.809 0-3.058-.603-3.66-.603-1.206 0-1.206.603-1.809 1.206 0 .603 0 1.206-.603 1.809-.603 1.162-.603 2.325-.603 2.928v3.66c0 1.207-.603 3.015 0 4.178s1.206 4.091 4.091 4.737l.172.043 2.455.603h3.058c1.206 0 1.809-.603 3.058-.603h.301c1.637 0 2.799-.086 3.962-1.205 1.809-1.206 2.455-1.81 3.661-2.412 1.206-.603 1.206-.603 1.809-1.809 0 0 .56-.56.603-1.12v-.689s.603-1.809 1.205-1.206c.603 1.206.603 3.575 1.206 4.178.603 1.163.603 2.842.603 4.608v.818l-.603 4.78v1.206c-.603 1.81-2.454 4.78-6.115 5.384-3.575.603-5.943.603-8.312.603h-.258c-.388 0-3.833.086-7.279 1.206-1.808 0-4.177.56-4.263.603h-1.206c-.603 0-1.206-.603-1.809-.603-.086 0-.646-.043-1.206-.603-.603-.603-1.205-.603-1.808-1.206s-2.326-1.723-2.455-2.886v-1.378c0-.689-.086-2.928-1.809-2.928-1.809 0-3.661.603-6.718 2.411-.603 0-.603 0-1.809.603s-3.058 1.206-4.264 2.412-3.66 1.809-7.924 2.412c-6.718.603-9.13 0-10.379-1.206-2.412-1.766-3.015-2.929-3.058-5.814v-.775c.603-3.532 1.809-4.178 2.972-4.78l.043-.044h1.292c.646 0 1.766-.043 2.369-.603.603-.603.603-1.162 2.325-1.206h5.599c3.058-.602 4.263-1.808 4.866-3.574.603-1.809 0-4.178-1.808-5.383-1.163-.56-2.369-.043-2.972 0h-1.852c-1.206-.603-4.866-2.412-5.469-3.015-1.206-.603-1.809-1.206-2.455-2.412-.603-1.163-1.163-1.206-1.206-2.282v-.732c.56-1.68.603-2.326.603-3.36v-3.316c0-1.12.043-1.722 1.206-2.282 1.766-.56 4.091-.603 5.383-.603h3.187c1.163.56 2.929.603 4.134.043l.13-.043h.603c1.205-.603 2.368-.603 2.454-2.283V25.93c0-1.205.603-2.411 1.206-3.014 1.206-1.206 1.206-1.206 3.058 0s2.455 2.411 2.455 4.177c.603 1.766 1.206 8.743 1.206 10.68v14.73c0 1.033.043 1.593.602 2.153.603 0 .603.603 1.809.603 1.766 0 1.809-.56 2.412-.603h1.938c.646 0 1.809-.043 2.369-1.206.603-1.163 1.205-6.374 1.205-8.269v-1.335c0-1.378-.602-12.963-.602-20.112v-3.23c0-1.206.603-1.809 1.205-2.412.56-.56.603-.603 1.077-.603zm169.983 37.038c-1.248-.603-1.851-.603-2.454 0-1.249.603-1.249.603-1.249 1.852v2.454c0 .603.603 1.25 1.249 1.25 1.249.602 3.057.602 4.306-.604.56 0 .603 0 .603-.517v-.129c0-.603-.603-1.249-.603-1.249v-.602c0-.603-.603-.603-.603-1.25zm-10.335-4.35h-.087c-.603 0-1.851.603-2.454 1.852s0 1.852 0 2.455v1.852c-.56.56-.603 1.12-.603 1.68v.171c0 1.25 0 1.852.603 1.852h2.454l1.249-1.249c.603-1.249.603-1.852.603-2.454v-1.852a6.4 6.4 0 0 0 .603-2.455c-.603-1.766-1.766-1.852-2.368-1.852m-17.916-19.164c-2.455-.604-3.704-.604-5.513 0-1.851 0-2.454 1.248-2.454 2.454 0 .603.603 1.25 1.851 1.25h4.996c.603 0 1.163.042 1.766.602l1.852.603c.56.56.603.603 1.076.603h.13s.603 0 .603.603v2.627c0 .56-.044 1.12-.603 1.12h-1.249l-1.249-.603c0-.603-4.91-1.25-6.159.603v.646l-.603 1.249v.602c0 .603.603.603.603 1.25.603.602 1.249.602 2.455.602s3.058.603 5.513.603c1.248.603 1.851 1.25 1.851 2.455 0 1.249-1.249 1.852-1.851 1.852-1.249.603-.603.603-1.249 1.249-.56.56-.603.603-1.077.603h-3.359c-1.163 0-1.723.043-2.326.603-.603.603-.603 1.249-.603 2.455 0 2.454 1.249 2.454 1.852 2.454h.603c1.249 0 2.455-.603 2.455-.603.603-.603 1.249-.603 1.249-.603h.215c1.034 0 1.034.044 1.034.603.603 0 .603.603.603 1.25.603.602.603.602 1.851 1.248 1.852.603 2.455 0 3.058-.603l.603-.603c1.249-.603 1.852-3.1 1.852-4.35V52.76c0-.603.603-2.455 1.249-3.101 0-1.852-.603-3.1-.603-3.704-.56-.56-.603-2.8-.603-7.149v-.99c0-.819-.086-4.91-2.455-5.513l-1.852-.517c-.603-.603-1.851-.603-2.454-.603zM250.822 42.21h-1.249c-1.206 0-3.057.602-3.66 2.411-.603.603 0 1.206 0 1.809.603.56 1.722 1.163 2.928 1.206h22.696c1.206 0 1.809-.603 2.455-1.206 0-.56.56-.603.043-1.12l-.043-.043V44.06c-.603-.603-1.206-2.325-4.694-1.809l-.173.044h-14.642c-1.249-.646-3.015-.13-3.661-.087m100.991-2.37c-.603-.602-1.852 0-2.455 0h-1.249c-.603 0-1.852.604-2.455 1.25-.603.603-.603.603-.603 1.249v.603c.603 1.851 3.058 1.249 4.91 1.249 1.249 0 3.058 0 2.455.602 1.249 0 2.455 0 3.058-1.248.602 0 .602-.603 1.248-.603 1.249-.603 1.852-.603 1.852-1.25v-1.248c0-.603-1.076-.603-2.239-.603zm-94.617-11.412h-.345c-1.162 0-2.325.56-2.971.603h-1.292c-1.809.603-4.867 0-6.116 0-.602 0-1.808 0-2.454.603-.603.56-.603 1.163-.603 1.723v.258c0 .99.043 1.034 1.119 1.55l.087.044h22.782c1.809 0 4.091.043 5.857.602 1.809.603 3.057 1.206 3.66 1.206.603.56 1.766.603 2.369.043l.086-.043v-.646c0-.603-.043-1.162-1.206-2.325-.603-.603-.603-.603-4.263-2.412-1.163-.56-2.326-.603-3.489-.603h-8.096c-1.12-.56-3.316-.603-5.125-.603m101.378-.344h-6.244c-.732 0-3.058.043-4.824.603-1.852.602-3.057 1.249-3.057 2.454 0 0 0 .603.602 1.25.603 1.248 3.058.602 3.704.602h4.307c1.249-.603 4.306 0 4.909 0 1.249 0 2.455 0 3.058-.603s.603-1.249.603-1.852c0-1.205-1.852-2.454-3.058-2.454m27.649-8.657c1.852-1.851 5.512-1.851 7.967-1.249l2.455.603c1.249 0 2.455.603 3.704.603h1.249c1.249 0 1.249.603 1.852.603 0 .603 1.248.603 1.851 1.25 0 .602 1.852 1.248 1.852 1.248.603 0 1.249.603 1.249 1.249v.689c0 .56.043.56.603 1.163l.603.603c.603 1.249 1.852 1.852 2.455 1.249.56 0 .603-.517.603-1.12v-.13c0-.602.603-.602 1.249-1.851s2.454-2.455 3.703-2.455l1.852-.603c1.249-.603 3.058-1.249 5.513-1.249 3.057 0 3.703.603 4.306.603h9.303c.56 0 .646.043 3.014.603 2.455 0 3.058.603 3.704 1.249l1.852 1.249c1.249.603 1.852 1.249 1.852 1.852l.603 1.249c.603 1.249.603 1.249 0 2.454v.604c-.603 1.248-1.249 1.248-2.455-.604h-20.284c-.603.604-1.249.604-2.455 0-.603 0-1.852.604-2.455.604l-1.249.602c-1.249 0-1.852 0-2.455.603-.603 0-.603.603-1.851.603-1.249.603-1.249 0-1.852-.603l-.603-.603c-.603-.602-1.249-.602-1.852-.602h-.603c-.56-.56-.603-.604-1.077-.604h-.129c-1.249-.602-1.249 0-1.852 0-.603.604-.603.604-1.249 0h-3.057c-1.249 0-2.455.604-3.704 1.25h-.603c-.603.602-3.704 1.248-4.91.602h-1.335c-.603 0-1.249-.086-3.574-1.248-2.455-1.25-3.704-2.455-4.307-3.704-.56-.603-.603-3.36-.603-4.22v-.173c-.129-.56-.086-1.206 1.12-2.369m-320.802-7.45C36.653 11.976 14 35.49 14 64c0 29.113 23.256 52.024 51.421 52.024 13.48 0 22.653-4.952 26.917-7.45 9.776-6.202 15.288-14.858 14.083-23.514-1.206-7.451-7.968-13.007-16.538-15.504-.603 0-1.852-.603-2.455-.603 4.264-2.498 6.719-5.556 7.365-9.906 1.205-9.302-9.174-18.561-23.256-20.456-12.834-1.852-23.256-.603-26.917-.603v16.71c7.365-1.25 17.14-1.25 25.108 0 6.718 1.249 11.025 3.703 11.628 6.804 0 .603 0 1.852-.603 2.498-1.852 2.498-4.91 2.498-7.364 1.852-8.57-1.249-18.347-1.249-28.166 0v16.71c9.173-1.25 24.462-1.25 31.826 0 6.719 1.249 11.025 4.35 11.628 8.053 0 1.852-.603 3.1-1.852 4.953-2.454 3.1-9.776 6.201-20.198 6.201-20.8 0-37.941-17.356-37.941-38.415 0-21.06 17.14-38.415 37.941-38.415s37.942 17.356 37.942 38.415v4.35c2.454 1.249 6.718 4.35 11.628 9.905 1.205-4.35 1.851-9.302 1.851-14.255-.602-28.467-23.858-51.378-52.627-51.378" fill="#e50012"/></svg>