<svg width="128" height="128" fill="none" xmlns="http://www.w3.org/2000/svg"><path d="M50.042 64.157h27.917c0 4.927-.764 27.708.635 30.837h12.644c-2.894-14.344-4.425-29.591-2.981-46.815H73.715l3.523-8.772H50.763l3.523 8.772H39.743c1.444 17.224-.087 32.471-2.98 46.815h12.644c1.399-3.13.635-25.91.635-30.837m7.888 19.968h12.14V72.013H57.93zm-.218 7.844c0 3.879-.25 8.511-1.899 12.031H24c5.483-19.388 8.183-40.003 4.191-63.287h12.208a45.6 45.6 0 0 0-3.821-9.555q5.46.53 10.89.84c-.76-2.358-1.82-4.67-3.34-7.498 6.81.88 13.398 1.189 19.872 1.137 6.473.052 13.061-.256 19.872-1.137-1.52 2.828-2.58 5.14-3.341 7.498q5.43-.31 10.89-.84a45.6 45.6 0 0 0-3.82 9.555h12.207C95.816 63.997 98.517 84.612 104 104H72.186c-1.648-3.52-1.899-8.153-1.899-12.031z" fill="#a60d13"/></svg>