<svg width="128" height="128" fill="none" xmlns="http://www.w3.org/2000/svg"><path d="M64 21.5c23.472 0 42.5 19.028 42.5 42.5S87.472 106.5 64 106.5 21.5 87.472 21.5 64 40.528 21.5 64 21.5M30.797 64c0 16.76 12.418 30.62 28.555 32.88V81.266h-8.438a7.5 7.5 0 0 1-7.5-7.5V54.235a7.5 7.5 0 0 1 7.5-7.5h8.438V31.12C43.215 33.38 30.797 47.24 30.797 64m37.852-32.88-.001 15.614h8.438a7.5 7.5 0 0 1 7.5 7.5v19.532a7.5 7.5 0 0 1-7.5 7.5h-8.438V96.88C84.787 94.62 97.205 80.76 97.205 64c0-16.592-12.171-30.342-28.072-32.809zm4.64 24.911H54.711a2 2 0 0 0-1.997 1.9l-.003.1v11.938a2 2 0 0 0 1.9 1.998l.1.002h18.578a2 2 0 0 0 1.998-1.9l.002-.1V58.032a2 2 0 0 0-2-2z" fill="#b81c22"/></svg>