<svg width="367" height="128" fill="none" xmlns="http://www.w3.org/2000/svg"><path d="M61.804 16.212c26.385 0 47.805 21.386 47.805 47.771s-21.387 47.805-47.805 47.805S14 90.402 14 64.017s21.386-47.805 47.804-47.805M24.461 64.017c0 18.605 13.706 34.363 32.113 36.978V83.449h-8.21a9.69 9.69 0 0 1-9.7-9.7V54.317c0-5.364 4.336-9.7 9.7-9.7h8.21V27.07C38.134 29.653 24.46 45.41 24.46 64.016M67 27.036v17.547h8.244c5.363 0 9.7 4.37 9.7 9.7v19.4c0 5.362-4.337 9.7-9.7 9.732h-8.243v17.546c20.426-2.88 34.628-21.783 31.748-42.21C96.433 42.3 83.488 29.356 67.002 27.039m5.993 28.008H50.582c-.795 0-1.457.629-1.49 1.423v14.997c0 .795.629 1.457 1.423 1.49h22.479c.794 0 1.457-.63 1.49-1.424V56.535c0-.795-.662-1.49-1.49-1.49" fill="#b81c22"/><path d="M222.366 67.824h-1.093c-1.092 1.722-4.303 4.635-6.223 5.363-3.344-2.648-7.515-4.039-11.819-5.826h-7.349c-1.093-.43-4.006-.762-5.364-1.06v1.953c.861.596 1.325 2.417 1.292 3.907-9.502-.331-6.622-34.43-2.583-39.197.563.331.331.066.662.662.497 1.457-.595 4.172-1.092 5.363-1.026 2.55-1.026 19.235 0 20.658h.232c.165-.43.298-.86.43-1.291h.232c-.1 1.986.331 5.727 1.523 6.489.86-.696 3.078.033 4.072-.662 2.052-1.39 10.163-9.038 10.527-11.422-.132-.066-.298-.132-.43-.232-1.093.861-9.005 7.317-10.991 5.827.563-5.363 4.27-7.747 5.826-11.62h-.231c-.828.695-.828 1.126-2.384 1.291 0-4.337 2.317-4.204 2.582-7.515-.496-.96.265-1.192-.662-1.721a4.6 4.6 0 0 1-.43-.662c-.828.595-1.523 1.092-2.814 1.29V37.7l1.953-1.954c-.033-1.887-.828-5.297-1.953-6.224-.133.066-.298.133-.431.232.067 1.854-.033 3.277-.662 4.304-.231.066-.43.165-.662.231-.132-.066-.298-.132-.43-.231-.662-1.192-1.258-1.722-1.291-3.675 2.317-1.291 3.012-4.602 5.197-6.059 2.152-1.39 5.032-2.482 7.35-3.442 21.32-9.038 19.234 31.847 17.016 46.943m104.05-47.771c.331 1.82 1.556 2.715 2.152 4.072 1.987 4.7-.033 9.17-1.291 12.514-5.396.662-8.276 3.807-11.819 6.224.067.132.133.297.232.43 1.589.662 7.979 2.053 7.118 3.906.066.563.165 1.126.232 1.722-2.384 1.556-6.853 5.727-7.979 8.376 4.37 1.688 8.608 10.329 4.072 14.202v.43c-.132-.066-.298-.132-.43-.231-1.523-2.219-4.271-2.12-4.701-5.562.827-.596 1.192-5.595 1.092-6.224-6.323.232-6.124 7.25-9.898 4.304-.364-.331-1.391-.232-1.854-.696-.563-.662-.596-1.887-1.357-2.946.86-1.357.695-2.152 1.622-3.344 2.483-3.178 6.257-6.389 8.905-9.567-.066-.331-.165-.563-.232-.86-2.615.099-6.389-1.292-7.349-2.815l.232-2.383c4.303-2.55 10.593-11.29 13.573-15.494 1.457-2.119 1.953-4.7 4.072-6.058zM164.2 45.875l1.953.232v.265c-.464 1.622-1.192 1.953-1.291 4.105A3.78 3.78 0 0 0 162.048 52c-1.622 1.787-2.88 12.48-4.304 15.493-1.556 3.211.662 7.085-.662 9.038-1.622.298-1.986 1.192-3.675 1.523-.066-.43-.165-.861-.232-1.291-2.681-2.98-.595-8.873-2.383-11.19-.133.066-.298.132-.43.232-.034 3.94-.365 7.879.86 10.362.596 1.192 1.656 1.423 1.953 3.21h-1.092c-3.344-6.653-2.384-15.062-4.535-23.24h-.232c-.364.067-.729.166-1.093.233.1 1.953-.265 2.582-2.152 2.582-1.555-1.026-3.906-1.457-5.363-2.582-3.674-2.814-6.687-11.29-5.826-17.017h1.092l5.198 5.198 1.291-.232 8.376-6.224c-.067-6.852.231-12.48 1.953-17.016h1.953c3.609 2.483 6.588 5.727 7.979 10.528 3.84-.166 7.117-2.582 11.818-1.291-.033 7.051-7.614 10.891-8.342 15.56m40.951 20.228c3.575.033 10.693 1.688 12.282 1.059 8.872-5.065 3.245-40.223-3.012-43.93-5.794-3.444-16.421 2.648-17.877 5.594 1.622.794 2.483 2.814 3.012 4.7 2.715-.065 3.178-1.357 5.595-1.522.331.364.563.695.861 1.093-.166 2.979-2.218 4.634-3.211 6.852 2.317 1.258 5.462 5.297 5.363 9.237-1.093.364-1.457 1.06-.861 1.953 2.549-2.152 4.635-6.489 6.489-9.236.132.066.298.132.43.231.232.331.43.563.662.861-.364 4.27-4.436 7.283-6.687 9.899v1.522c1.357.828 2.085 1.887 4.072 2.152 1.456-2.284 1.787-4.303 3.012-7.316h.232c.066 4.535-1.39 6.72-2.384 9.898l3.212.232v2.384c-1.788 1.357-.96 2.814-4.536 2.814-.563-1.026-4.866-.066-6.687.231.033.43.033.861.033 1.292m35.125-6.655c-1.357 0-1.622-.165-2.384-.662v-4.502c3.907-.331 4.37-6.224 5.827-9.236 3.344-7.118 6.489-16.321 11.421-22.181h1.093c1.258 1.82 3.244 2.483 3.674 5.197-2.449 1.259-6.587 2.616-7.978 4.966-3.079 5.099-11.653 19.731-11.653 26.418m26.716-4.336c-.099-5.463 2.483-6.754 3.907-10.528h-1.292c-.562.795-1.39.86-1.953 1.722-1.523 3.21-1.953 6.588-1.953 10.362h.662c1.622-2.417 7.945.33 11.19-.861 3.674-1.324 4.502-4.767 9.236-4.701v.232l-.662.662c-.265 1.29-1.126 1.688-2.582 1.721-.232 2.218-2.682 4.8-3.907 6.456 2.45 2.681 11.157 3.774 14.666 5.826l-.662.662v.43c-3.84.2-8.045 2.318-11.819.663-1.655-.761-2.615-2.55-5.826-2.582-1.622 2.98-5.992 7.448-10.362 7.515-1.788-1.093-3.079-1.689-4.536-3.013-.066-1.655-.165-3.277-.231-4.966h-1.093c-1.457 5.529-8.707 6.489-13.143 8.84-.331-1.192-.563-2.45-.861-3.675 1.391-.927 2.318-2.285 3.443-3.443-.066-.298-.165-.563-.231-.861-1.225.033-1.523.166-1.954-.662 2.384.1 2.748-.662 2.583-3.013-.067-.132-.133-.298-.232-.43-.132.066-.298.132-.43.232-1.06 1.853-3.907 6.323-6.489 6.687-.563-1.126-1.258-1.258-1.523-2.814.066-.132.132-.298.232-.43 3.145-.43 4.866-3.576 7.117-5.198-.066-.132-.132-.298-.231-.43h-1.093c-.596-4.701-1.423-6.092 1.953-9.038 0-2.152-.761-2.748-1.522-4.072 1.721-1.126 3.443-2.318 5.197-3.443.927 1.026 1.854 1.986 2.814 3.012v.861c-.861 1.291-2.417 1.854-3.443 3.013.066 1.026.166 1.986.232 3.012h.662c.364-1.026.596-1.191 1.953-1.29.066-.861.066-.828.431-1.292h.231c.232 1.192.431 2.45.662 3.675a5.6 5.6 0 0 0-1.953 2.152h4.536c.529.927.827 1.026.86 2.582-1.82 1.291-7.448 7.449-8.607 9.468h.43l.232.232c4.105-1.192 7.681-5.628 10.13-8.608-.066-5.627.331-10.66 1.954-14.665.827-2.053-.199-3.741.43-5.363.861-2.318 2.748-4.9 3.211-8.21 1.358.198 1.457.595 2.582.43.332-.596.332-.497.861-.86v-1.093h1.093c1.191-2.053 4.866-2.715 5.363-5.198l2.383-.232c.331 1.887-4.833 20.03-6.223 21.95-1.06.43-2.152.86-3.212 1.29-.231.861-.43 1.722-.662 2.583l.232.231c1.225-.728 2.549-1.29 3.906-1.721-.066-1.39-.264-1.986.431-2.384.496.795 1.026 1.59 1.523 2.384l-.232 2.152c-3.443.53-5.165 3.608-8.409 4.039m4.966-23.903c-.53 3.245-4.039 6.059-3.046 10.13h1.093c1.854-1.654 3.741-3.277 5.594-4.965a625 625 0 0 1 1.722-8.376l-.232-.232-.861.861c-1.291.662-2.284 2.516-4.303 2.582zm-65.085-.43c3.939-.033 4.204 1.556 7.117 1.953.166 3.774-1.258 5.397-5.197 5.198-1.225-2.053-1.987-3.51-1.92-7.15m52.968 1.291c.431 1.291.861 2.582 1.291 3.907-2.483.099-3.31 1.556-5.363 2.152l-.231-.232c.165-1.06.529-5.33 1.291-6.058.43-.43.761-.43 1.721-.43.431.827.166.562 1.291.661m87.928.861c.365.066.729.166 1.093.232-.066.132-.133.298-.232.43-1.192.662-1.622 2.119-2.152 3.443-6.72-.033-11.421 2.682-15.294 6.058h-.663a2.15 2.15 0 0 0-.86-.86c-.066-1.623-.431-1.623-.662-3.013.695-.43 1.026-1.324 1.522-1.953 3.145 2.416 8.211-1.887 10.528-2.814 2.45-.96 4.635-.497 6.72-1.523m-182.907.199c-2.914 3.078-6.754 3.145-4.536 10.759h1.291c.662-1.953 4.966-7.515 6.489-9.667a35 35 0 0 1-1.059-1.092zm36.614 3.012v1.291h1.291v-1.29zm138.778 14.235c0 1.523-.96 6.82-.43 7.979 1.622 3.51 2.152 10.163 2.152 15.063-2.053 1.39-2.748 2.814-6.456 2.814-.695-1.655-1.357-4.238-2.814-5.198-2.648-1.721-6.72-2.714-7.978-5.826h1.721c1.225 2.45 5.827 3.31 9.502 3.211.695-4.635 1.721-14.037.231-18.97-.132.067-.297.133-.43.232-.794 1.027-9.071 5.33-10.759 5.363-.133-.066-.298-.132-.431-.231V52.43c8.475-3.74 17.182-9.733 27.776-10.329.331.927.497.695.662 1.953-3.211 1.59-12.746 3.013-14.666 5.198v.232c.596.33.497.33.861.86.331.033.695.033 1.059.033m-191.978-6.223c-2.318.165-5.463 2.284-5.363 4.965.96 1.457 1.854 2.88 2.814 4.304 1.324-.43 1.953-1.523 2.814-2.383-.1-2.285-.166-4.569-.265-6.886m57.934 4.535v-1.291c-.662-.43-1.291-.86-1.953-1.291v1.953c.828.298.695.464 1.953.63m-7.945 4.701c2.715.033 4.8-1.523 6.058-3.013v-1.092c-.695-.496-1.059-1.357-1.721-1.953-1.556 1.225-4.072 3.774-4.337 6.058m51.479 0-.232.232c.265.165.563.298.861.43v-.231a4 4 0 0 1-.629-.43m-.662.63-.232.23.431.431c.132-.066.298-.132.43-.231-.199-.1-.397-.265-.629-.43m-42.872.661c-1.887 3.675-6.985 4.9-8.375 8.84h3.012c2.45-1.523 8.773-2.815 11.653-3.675v-.861c-.066-.133-.132-.298-.231-.43-3.41-.166-3.344-3.08-6.059-3.874m72.17 2.384c-.496.761-1.357 1.026-1.953 1.721.497.696.497.828 1.523 1.093h.232a18 18 0 0 0 1.523-2.814zm-21.982 1.06h-1.721c-1.821.926-2.549 1.323-2.384 4.303l.431.43c1.324-1.026 3.443-2.714 3.674-4.734m18.109 7.15c.066-1.192.166-1.06.662-1.722-2.218-1.886-6.588-3.807-9.898-4.303l-.232.231c-.232 5.231-1.258 6.258 1.721 9.9 1.987-1.325 5.397-3.808 7.747-4.106m-119.312.165-1.523.232c-.165 2.814-.331 5.595-.43 8.376.695.265.562.298 1.092.662.364-.066.729-.165 1.093-.232-.232-2.02-.232-5.528-.232-9.037m95.211 2.616c-.198.165-.43.298-.662.43.066.133.133.298.232.43.861-.066.828-.066 1.291-.43-.298-.165-.596-.298-.861-.43" fill="#231815"/><path d="M144.965 106.958c.795 0 1.589-.066 2.384-.232a5.6 5.6 0 0 0 1.92-.728 3.63 3.63 0 0 0 1.291-1.358 4.05 4.05 0 0 0 .463-2.052c0-.53-.099-1.059-.331-1.523a4 4 0 0 0-.86-1.258 5 5 0 0 0-1.258-.927 4.5 4.5 0 0 0-1.457-.53v-.066c.695-.232 1.357-.662 1.821-1.225.496-.562.794-1.29.794-2.02 0-.694-.165-1.356-.496-1.952a4.3 4.3 0 0 0-1.291-1.39c-.53-.398-1.126-.663-1.788-.862a6.7 6.7 0 0 0-1.986-.297c-1.556 0-3.112.033-4.635.066-1.523.066-3.079.066-4.602.066v.53c.431 0 .894.066 1.291.231.298.133.596.331.795.596s.331.596.397.927c.066.398.133.795.099 1.159v9.17c0 .464-.033.927-.066 1.357a1.73 1.73 0 0 1-.331.861 1.5 1.5 0 0 1-.794.464 6.8 6.8 0 0 1-1.424.231v.596c.265-.033.497-.033.762-.033l.827-.033 1.026-.033h1.358c1.589 0 2.847.033 3.774.132 1.026.1 1.787.133 2.317.133m-2.052-8.608a5.5 5.5 0 0 1-1.06-.099 9 9 0 0 1-.894-.232v-6.29l.795-.066c.232 0 .497-.033.761-.033 1.126 0 2.02.265 2.682.828q.993.843.993 2.582c0 .43-.066.894-.232 1.291a3.1 3.1 0 0 1-.629 1.06 3.2 3.2 0 0 1-1.026.695c-.463.198-.927.297-1.39.264m.496 7.482a5.4 5.4 0 0 1-1.258-.132 6.3 6.3 0 0 1-1.192-.397v-6.555q.547.198 1.093.298c.496.066.96.099 1.457.099.695 0 1.423-.1 2.085-.265.497.43.927.927 1.225 1.523.298.563.464 1.225.497 1.887q0 1.788-1.093 2.681a4.56 4.56 0 0 1-2.814.861m27.014.497c-.529 0-1.026-.133-1.523-.364a1.97 1.97 0 0 1-1.026-1.159l-5.363-14.666c-.463.232-.96.397-1.49.53-.331.1-.695.629-1.125 1.556l-4.834 11.388c-.165.397-.331.762-.496 1.06-.133.297-.331.562-.53.827-.232.232-.463.431-.761.563a3.5 3.5 0 0 1-1.159.298v.596c.497-.033.993-.066 1.49-.066.496-.033.993-.033 1.489-.033s1.06 0 1.59.033c.529.033 1.059.033 1.589.066v-.596a5 5 0 0 1-.696-.166c-.231-.066-.496-.198-.728-.298a1.7 1.7 0 0 1-.53-.43.84.84 0 0 1-.198-.563c0-.265.033-.563.132-.827.099-.232.166-.431.265-.662l1.258-3.51h4.933l.827 2.45c.067.166.133.364.232.596l.265.728c.099.232.165.464.232.729.066.198.066.364.099.562 0 .431-.232.795-.629.961-.596.264-1.258.397-1.92.43v.596c.695-.033 1.39-.066 2.052-.066.696 0 1.358-.033 2.053-.033h2.218c.397 0 .795.033 1.192.033l1.059.066zm-8.21-7.614h-4.105l2.086-5.96h.033zm25.127 8.607V95.834c0-.927.033-1.688.099-2.25.034-.497.166-.96.365-1.424.198-.331.496-.63.86-.762a5 5 0 0 1 1.556-.265v-.596c-1.158.1-2.284.166-3.476.166-.596 0-1.158-.033-1.754-.066l-1.755-.1v.596c.364.067.728.133 1.093.232.298.1.595.232.86.397.265.166.464.398.596.662.166.332.298.696.331 1.06.1.695.199 1.39.232 2.086.066.827.099 1.688.099 2.549 0 .86.033 1.721.033 2.549v2.019h-.066c-1.589-2.119-3.211-4.171-4.932-6.124a188 188 0 0 1-5.033-6.059c-1.092.1-2.218.166-3.376.166-.431 0-.861 0-1.325-.066l-1.324-.1v.596c.331.067.629.166.96.265.298.1.629.199.927.331.298.133.596.265.861.464.265.198.53.397.728.662l-.099 9.733a17 17 0 0 1-.099 1.821c-.033.397-.199.761-.464 1.092a2 2 0 0 1-1.026.596c-.596.166-1.225.298-1.854.364v.596c.695-.033 1.39-.066 2.053-.066.662-.033 1.357-.033 2.052-.033.629 0 1.225 0 1.821.033s1.192.033 1.821.066v-.596c-.596-.099-1.159-.198-1.755-.397-.397-.099-.728-.331-.993-.662a2.7 2.7 0 0 1-.43-1.225c-.067-.662-.1-1.357-.1-2.053v-8.475c.398.398.861.927 1.391 1.556.529.63 1.158 1.325 1.787 2.053a96 96 0 0 1 2.02 2.416l2.086 2.583c.695.86 1.357 1.754 1.986 2.615a55 55 0 0 1 1.688 2.45zm23.042-.96a4.3 4.3 0 0 1-1.292-.298 3.7 3.7 0 0 1-.993-.563 4.7 4.7 0 0 1-.827-.794c-.265-.298-.53-.662-.795-1.027l-5.131-7.316a28 28 0 0 0 1.854-1.589 29 29 0 0 1 1.887-1.622c.662-.497 1.357-.96 2.085-1.324.729-.364 1.556-.63 2.384-.696v-.629c-.695.067-1.39.1-2.02.133-.662.033-1.324.033-2.019.033h-1.986c-.662 0-1.291-.066-1.953-.133v.596c.198.034.364.067.562.133s.398.165.563.265c.166.099.331.231.43.397.1.166.166.331.166.53a1.4 1.4 0 0 1-.397.86c-.298.398-.629.795-.993 1.16q-.596.645-1.292 1.29c-.463.43-.926.86-1.357 1.258s-.828.728-1.159 1.026a10 10 0 0 1-.728.596v-5.032c0-.33.033-.629.133-.96.066-.298.231-.562.43-.794a2.4 2.4 0 0 1 .828-.563c.43-.166.86-.232 1.324-.199v-.596l-2.284.1c-.762.033-1.523.066-2.285.066-1.357 0-2.714-.066-4.105-.166v.596c.431 0 .861.067 1.258.199.298.132.596.298.795.563.198.232.331.496.43.794s.132.63.132.96v10.197c0 .364-.033.695-.066 1.059a1.45 1.45 0 0 1-.331.762 1.7 1.7 0 0 1-.761.496 6.7 6.7 0 0 1-1.424.232v.596c.695-.033 1.358-.066 2.02-.066s1.357-.033 2.019-.033c.762 0 1.49 0 2.251.033.762.033 1.523.033 2.285.066v-.596c-.497 0-.961-.099-1.424-.232-.298-.066-.563-.232-.794-.463-.166-.232-.298-.497-.332-.762-.066-.364-.066-.695-.066-1.059v-4.27l1.589-1.259.563.795c.265.364.563.794.927 1.258.331.463.695.96 1.059 1.49.365.529.696 1.026.994 1.456.298.431.562.861.728 1.192q.199.298.298.695a.69.69 0 0 1-.265.53 2.6 2.6 0 0 1-.596.364 6 6 0 0 1-.695.232c-.232.066-.43.099-.563.132v.497c.762-.033 1.49-.066 2.251-.066.762 0 1.49-.033 2.218-.033.762 0 1.523 0 2.285.033.761.033 1.522.033 2.284.066zm16.983.96q1.986 0 3.873-.596a9 9 0 0 0 3.013-1.688 7 7 0 0 0 1.953-2.715 9.8 9.8 0 0 0 0-7.25 7.5 7.5 0 0 0-1.953-2.715 9 9 0 0 0-3.013-1.688 13.3 13.3 0 0 0-7.714 0 9 9 0 0 0-3.012 1.688 6.96 6.96 0 0 0-1.953 2.715 9.8 9.8 0 0 0 0 7.25c.43 1.026 1.125 1.953 1.953 2.715a9 9 0 0 0 3.012 1.688c1.225.397 2.55.629 3.841.596m-.166-1.126a5.4 5.4 0 0 1-2.681-.629 5.05 5.05 0 0 1-1.854-1.688 8.5 8.5 0 0 1-1.093-2.45 12.25 12.25 0 0 1 0-5.793 7.1 7.1 0 0 1 1.093-2.45 5.3 5.3 0 0 1 1.854-1.688 6.1 6.1 0 0 1 5.363 0c.761.397 1.39.993 1.854 1.688.496.728.86 1.556 1.092 2.45.464 1.92.464 3.906 0 5.793a6.8 6.8 0 0 1-1.092 2.45 5.34 5.34 0 0 1-1.854 1.688 5.4 5.4 0 0 1-2.682.629m20.128.067a8 8 0 0 1-1.556-.133 2.2 2.2 0 0 1-.894-.397c-.198-.199-.364-.43-.397-.695a5 5 0 0 1-.099-1.027v-5.727h1.324c.53 0 1.059.033 1.589.166.397.099.795.265 1.126.53.331.264.596.595.761.993a6.6 6.6 0 0 1 .497 1.556h.496c0-.596-.033-1.192-.066-1.788s-.033-1.192-.033-1.788 0-1.159.033-1.754c.033-.596.033-1.192.066-1.755h-.496a3.8 3.8 0 0 1-.596 1.457 3.7 3.7 0 0 1-.927.96c-.364.231-.762.43-1.159.53-.43.099-.861.165-1.291.165h-1.324v-6.058h2.814c1.622 0 2.913.297 3.774.893s1.49 1.59 1.854 3.013h.496c-.066-.497-.132-1.026-.132-1.556v-2.417c0-.298 0-.596.033-.894l-4.833.1c-1.589.033-3.212.066-4.834.066-.86 0-1.721-.033-2.582-.066l-2.582-.1v.696c.463 0 .927.066 1.357.198.298.1.596.298.795.53.198.265.331.563.364.86.066.398.099.828.099 1.226v9.964c0 .331-.033.696-.099 1.027a1.76 1.76 0 0 1-.364.695 1.8 1.8 0 0 1-.795.397c-.43.1-.894.133-1.357.133v.695c.695-.033 1.39-.066 2.085-.066s1.391-.033 2.086-.033c.795 0 1.589 0 2.384.033s1.589.033 2.383.066zm22.512 1.059c1.755.033 3.476-.397 4.966-1.291a10.6 10.6 0 0 0 3.542-3.708l-.596-.629c-.331.464-.662.927-1.059 1.357a6.8 6.8 0 0 1-1.357 1.225 8.5 8.5 0 0 1-1.722.894 6.8 6.8 0 0 1-2.152.331c-.993.033-1.986-.165-2.913-.53-.795-.331-1.523-.827-2.086-1.489a6.6 6.6 0 0 1-1.258-2.251 9.3 9.3 0 0 1-.43-2.847c0-.828.099-1.656.265-2.45a7.3 7.3 0 0 1 .894-2.318 5.9 5.9 0 0 1 1.655-1.721 4.6 4.6 0 0 1 2.549-.662c.728 0 1.49.165 2.152.496a6.8 6.8 0 0 1 1.787 1.291 8 8 0 0 1 1.325 1.854c.331.696.596 1.424.695 2.218h.629c-.066-.695-.166-1.39-.199-2.085-.066-.696-.066-1.39-.066-2.086 0-.33 0-.662.033-.96s.033-.629.033-.96c-.099.033-.198.033-.265.033-.264-.033-.529-.066-.794-.132q-.695-.15-1.589-.298c-.596-.1-1.192-.232-1.821-.298a9.3 9.3 0 0 0-1.655-.133c-1.258 0-2.516.199-3.708.63a8.9 8.9 0 0 0-2.88 1.754 7.7 7.7 0 0 0-1.887 2.715 8.6 8.6 0 0 0-.662 3.509c0 1.225.198 2.416.662 3.542a7.8 7.8 0 0 0 1.754 2.715 7.7 7.7 0 0 0 2.748 1.721c1.026.364 2.218.596 3.41.563m29.795-.96c-.497-.033-.927-.066-1.291-.132a1.47 1.47 0 0 1-.795-.365c-.198-.198-.364-.43-.43-.728a5.2 5.2 0 0 1-.133-1.225v-9.7c0-.496.034-.96.067-1.456.033-.332.132-.63.331-.861.198-.232.496-.397.794-.497.464-.132.96-.231 1.457-.265v-.596a61 61 0 0 1-4.271.166c-1.423 0-2.913-.066-4.37-.166v.596c.497.034.994.133 1.49.265.298.1.596.265.795.497.198.265.298.563.331.86.066.464.066.96.066 1.457v3.278h-8.276v-3.278c0-.496.033-.96.066-1.456.033-.332.132-.63.331-.861.232-.232.496-.397.827-.497a7 7 0 0 1 1.457-.265v-.596c-1.423.1-2.847.166-4.271.166s-2.88-.066-4.303-.166v.596a7 7 0 0 1 1.39.265c.298.1.563.265.762.497.198.265.298.563.331.86.033.464.066.96.066 1.457v9.7c0 .43-.033.828-.133 1.225-.066.265-.198.53-.43.728-.232.199-.496.298-.794.365-.331.066-.729.099-1.258.132v.596c.695-.033 1.39-.066 2.118-.066.696-.033 1.391-.033 2.086-.033s1.457 0 2.185.033 1.457.033 2.185.066v-.596c-.497-.033-.927-.066-1.258-.132a1.57 1.57 0 0 1-.828-.365 1.27 1.27 0 0 1-.43-.728 5.2 5.2 0 0 1-.133-1.225v-5.363h8.277v5.363c0 .43-.033.828-.133 1.225-.066.265-.231.53-.43.728-.232.199-.53.298-.828.365-.331.066-.728.099-1.258.132v.596c.729-.033 1.424-.066 2.152-.066.729-.033 1.424-.033 2.152-.033s1.424 0 2.152.033 1.423.033 2.152.066zm11.123 0c-1.026-.033-1.721-.232-2.152-.53a1.66 1.66 0 0 1-.629-1.423V93.881c0-.43.034-.86.133-1.258.066-.298.232-.596.43-.828a1.7 1.7 0 0 1 .861-.463c.463-.132.927-.165 1.424-.199v-.596l-2.152.1c-.696.033-1.424.066-2.152.066s-1.523 0-2.284-.066l-2.285-.1v.596c1.027.034 1.722.265 2.119.663.364.397.563 1.092.563 2.085v10.528a1.66 1.66 0 0 1-.629 1.423c-.397.298-1.126.464-2.152.53v.563c.761-.033 1.49-.066 2.251-.066.762-.034 1.49-.034 2.251-.034.762 0 1.457 0 2.185.034.729.033 1.424.033 2.185.066zm18.473.96V95.834c0-.927.033-1.688.1-2.25.033-.497.165-.96.364-1.424.198-.331.496-.63.86-.762a5 5 0 0 1 1.556-.265v-.596c-1.158.1-2.317.166-3.476.166-.596 0-1.158 0-1.754-.066l-1.755-.1v.596a6.3 6.3 0 0 1 1.059.265c.298.067.596.232.861.398.265.165.464.397.596.662.166.33.298.695.331 1.059.1.695.199 1.39.232 2.086.066.827.099 1.688.099 2.549 0 .86.033 1.721.033 2.549v2.019h-.066c-1.589-2.118-3.211-4.171-4.933-6.124a189 189 0 0 1-5.032-6.059c-1.125.1-2.251.166-3.376.166-.431 0-.861 0-1.325-.066l-1.324-.1v.596c.331.067.629.166.96.265.298.1.629.199.927.331.298.133.596.265.861.464.265.198.53.397.728.662l-.099 9.733a17 17 0 0 1-.099 1.821c-.033.397-.199.761-.464 1.092a2 2 0 0 1-1.026.596c-.596.166-1.225.298-1.854.364v.596c.695-.033 1.39-.066 2.053-.066.662-.033 1.357-.033 2.052-.033.629 0 1.225 0 1.821.033s1.192.033 1.821.066v-.596c-.596-.099-1.159-.198-1.755-.397-.397-.099-.728-.331-.993-.662a2.7 2.7 0 0 1-.43-1.225c-.067-.662-.1-1.357-.1-2.053v-8.508c.397.398.861.927 1.391 1.556.562.63 1.158 1.325 1.787 2.053.629.761 1.325 1.556 2.02 2.416l2.085 2.583a108 108 0 0 1 1.987 2.615 55 55 0 0 1 1.688 2.45zm20.79-.96c-.529 0-1.026-.133-1.522-.364a1.97 1.97 0 0 1-1.027-1.159l-5.363-14.666c-.463.232-.96.398-1.49.53-.331.1-.695.63-1.125 1.556l-4.834 11.388c-.165.398-.331.762-.496 1.06-.133.298-.331.562-.53.827-.232.232-.463.431-.761.563a3.5 3.5 0 0 1-1.159.298v.596c.497-.033.993-.066 1.49-.066.496-.033.993-.033 1.49-.033.496 0 1.059 0 1.589.033.529.033 1.059.033 1.589.066v-.596a5 5 0 0 1-.695-.165c-.232-.067-.497-.199-.729-.298a1.7 1.7 0 0 1-.53-.431.84.84 0 0 1-.198-.563c0-.264.033-.562.132-.827.1-.232.166-.431.265-.662l1.258-3.51h4.933l.827 2.45c.067.166.133.364.232.596l.265.728c.099.232.166.464.232.729.066.198.066.364.099.563 0 .43-.232.794-.629.96-.596.265-1.258.397-1.92.43v.596c.695-.033 1.39-.066 2.053-.066.662 0 1.357-.033 2.052-.033h2.218c.397 0 .795.033 1.192.033l1.059.066zm-8.21-7.614h-4.105l2.086-5.96h.066z" fill="#000"/></svg>