<svg width="128" height="128" fill="none" xmlns="http://www.w3.org/2000/svg"><path d="M65.7 21.5c13.65.55 26.5 7.75 34.05 19.55 3.85 6 6.25 13.05 6.65 20.6v3.15c-.15 8.15-2.65 15.75-6.75 22.2-4.7 7.35-11.7 13.3-20.5 16.65-4.45 1.7-9 2.6-13.55 2.8v-.05c-.55 0-1.15.05-1.7.05s-1.15 0-1.7-.05v.05c-14.25-.6-27.65-8.4-35.05-21.15a42.74 42.74 0 0 1-5.55-18.7l-.05-.6v-2 .05c0-9.75 3.25-18.7 8.75-25.85l.3-.4c4.05-5.15 9.35-9.45 15.65-12.35 1.25-.6 2.55-1.1 3.9-1.55 4.05-1.4 8.1-2.15 12.2-2.3v.05c.55 0 1.15-.05 1.7-.05.5-.1 1.1-.1 1.65-.1M64 32.25c-5.25 0-10.2 1.25-14.55 3.5-7.5 4.65-10.9 14.1-7.6 22.65 2.65 6.9 8.95 11.35 15.85 11.95V81c-10.9-.6-20.95-7.3-25.4-17.95V64c0 17.55 14.2 31.75 31.75 31.75 5.25 0 10.2-1.25 14.55-3.55 7.5-4.65 10.9-14.1 7.65-22.6A18.73 18.73 0 0 0 70.4 57.65V47c10.9.6 20.95 7.3 25.4 17.9v-.95c-.05-17.5-14.25-31.7-31.8-31.7m-6.35 25.4H70.3v12.7H57.65z" fill="#de0112"/></svg>