<svg width="432" height="128" fill="none" xmlns="http://www.w3.org/2000/svg"><path d="M152.018 107.466h-8.331a.4.4 0 0 1-.277-.114.4.4 0 0 1-.114-.277V88.501a.39.39 0 0 1 .391-.39h7.862q6.096.189 6.471 4.626-.094 3.683-3.939 4.532v.095q4.407.755 4.783 4.626 0 5.476-6.846 5.476m-.657-8.78h-4.767a.393.393 0 0 0-.391.39v5.828a.39.39 0 0 0 .391.391h4.955q4.126 0 4.126-3.494-.187-3.02-4.314-3.116m-.375-8.31h-4.392a.4.4 0 0 0-.277.115.38.38 0 0 0-.114.277v5.166a.39.39 0 0 0 .391.391h4.392q3.845-.094 3.939-3.116-.094-2.832-3.939-2.832m21.543-2.019 7.379 18.574a.39.39 0 0 1-.18.49.4.4 0 0 1-.183.045h-2.343a.39.39 0 0 1-.365-.252l-1.779-4.689a.39.39 0 0 0-.365-.252h-7.995a.39.39 0 0 0-.365.252l-1.778 4.689a.39.39 0 0 1-.365.252h-2.344a.394.394 0 0 1-.363-.535l7.38-18.574a.39.39 0 0 1 .363-.246h2.94a.39.39 0 0 1 .363.246m-1.786 2.303a.13.13 0 0 0-.076.025.13.13 0 0 0-.047.064l-.53 1.6-.008.021-.242.608q-.602 1.545-2.661 6.935h6.465a.393.393 0 0 0 .388-.345.4.4 0 0 0-.024-.186l-2.703-7.022q0-.096-.093-.378l-.206-.508q-.263-.673-.263-.814m12.019-2.55h2.862a.39.39 0 0 1 .332.186l9.639 15.677h.094V88.501a.39.39 0 0 1 .391-.39h2.032a.39.39 0 0 1 .391.39v18.574a.39.39 0 0 1-.391.391h-2.769a.39.39 0 0 1-.332-.184l-9.826-15.772v15.565a.4.4 0 0 1-.114.277.4.4 0 0 1-.277.114h-2.032a.39.39 0 0 1-.39-.391V88.501a.39.39 0 0 1 .391-.39zm36.326 19.356h-2.846a.4.4 0 0 1-.18-.043.4.4 0 0 1-.139-.121l-6.448-9.089-3.845 3.871v4.991a.38.38 0 0 1-.115.277.38.38 0 0 1-.276.114h-2.126a.39.39 0 0 1-.391-.391V88.501a.393.393 0 0 1 .391-.39h2.126a.39.39 0 0 1 .391.39v9.901l9.731-10.17a.4.4 0 0 1 .283-.121h2.747a.391.391 0 0 1 .279.664l-7.413 7.55 8.14 10.512a.4.4 0 0 1 .079.199.4.4 0 0 1-.037.211.39.39 0 0 1-.351.219m20.147-19.638c6.096 0 9.378 3.682 9.378 10.102s-3.471 9.819-9.472 9.819-9.378-3.363-9.378-9.819 3.376-10.103 9.472-10.103m-.188 17.561c3.964 0 6.283-2.507 6.283-7.46s-2.211-7.553-6.189-7.553-6.283 2.833-6.283 7.554 2.225 7.459 6.189 7.459m26.869-14.824h-10.019v6.043h8.705a.393.393 0 0 1 .391.39v1.58a.39.39 0 0 1-.391.39h-8.705v8.107a.39.39 0 0 1-.391.391h-2.22a.4.4 0 0 1-.276-.115.4.4 0 0 1-.115-.276V88.501a.39.39 0 0 1 .391-.39h12.63a.39.39 0 0 1 .39.39v1.674a.39.39 0 0 1-.39.39m17.896 16.901h-6.08a.39.39 0 0 1-.391-.391V88.501a.393.393 0 0 1 .391-.39h5.986q9.66.188 9.847 9.63.188 9.914-9.753 9.724zm-.187-16.9h-2.986a.39.39 0 0 0-.391.39v13.853a.39.39 0 0 0 .391.391h2.986q6.846 0 6.846-7.459-.187-6.987-6.846-7.176m23.605-2.21 7.38 18.575a.38.38 0 0 1-.039.364.4.4 0 0 1-.324.171h-2.343a.39.39 0 0 1-.365-.252l-1.778-4.689a.39.39 0 0 0-.366-.252H301.4a.39.39 0 0 0-.365.252l-1.778 4.689a.39.39 0 0 1-.366.252h-2.343a.39.39 0 0 1-.363-.535l7.38-18.574a.39.39 0 0 1 .363-.246h2.94a.39.39 0 0 1 .363.246zm-1.785 2.303a.13.13 0 0 0-.123.09l-.53 1.598-.009.024-.106.262q-.463 1.172-2.796 7.28h6.465a.39.39 0 0 0 .388-.346.4.4 0 0 0-.024-.185l-2.696-7.01-.007-.013q0-.094-.093-.378l-.144-.351q-.325-.813-.325-.97m13.02-2.549h2.861a.39.39 0 0 1 .332.186l9.639 15.676h.094V88.501a.39.39 0 0 1 .391-.39h2.032a.39.39 0 0 1 .391.39v18.574a.4.4 0 0 1-.115.276.4.4 0 0 1-.276.115h-2.769a.39.39 0 0 1-.331-.184l-9.827-15.772v15.565a.39.39 0 0 1-.39.391h-2.032a.39.39 0 0 1-.391-.391V88.501a.39.39 0 0 1 .391-.39m26.431 19.356h-6.081a.39.39 0 0 1-.39-.391V88.501a.39.39 0 0 1 .39-.39h5.987q9.66.188 9.847 9.63.188 9.914-9.753 9.724zm-.188-16.9h-2.986a.4.4 0 0 0-.276.114.4.4 0 0 0-.085.126.4.4 0 0 0-.029.15v13.853a.39.39 0 0 0 .39.391h2.986q6.846 0 6.846-7.459-.187-6.987-6.846-7.176m23.039-2.739c6.096 0 9.378 3.647 9.378 10.103s-3.282 9.819-9.471 9.819c-6.19 0-9.379-3.364-9.379-9.82 0-6.455 3.376-10.102 9.472-10.102m-.187 17.562c4.001 0 6.283-2.738 6.283-7.46 0-4.72-2.282-7.553-6.189-7.553s-6.284 2.833-6.284 7.554 2.188 7.459 6.19 7.459m13.426-17.278h2.861a.39.39 0 0 1 .333.185l9.639 15.676h.093V88.501a.393.393 0 0 1 .391-.39h2.032a.393.393 0 0 1 .391.39v18.574a.4.4 0 0 1-.115.276.4.4 0 0 1-.276.115h-2.769a.39.39 0 0 1-.331-.184l-9.826-15.772v15.565a.4.4 0 0 1-.115.276.4.4 0 0 1-.276.115h-2.032a.4.4 0 0 1-.276-.115.4.4 0 0 1-.115-.276V88.501a.39.39 0 0 1 .391-.39m37.31 8.686v7.175q-1.97 3.682-8.441 3.777c-6.064-.315-9.565-3.563-9.565-9.914s3.376-9.693 9.19-10.008c4.439.063 7.863 2.091 8.816 6.231q-1.36.009-2.907 0-1.407-3.681-5.909-3.682c-3.751.378-6.096 2.772-6.096 7.46 0 4.687 2.407 7.238 6.471 7.552q4.034-.093 5.721-2.36v-3.776h-5.893a.39.39 0 0 1-.39-.391v-1.673a.39.39 0 0 1 .39-.39z" fill="#1b1918"/><path d="M64 14c27.61 0 50 22.39 50 50s-22.39 50-50 50-50-22.39-50-50 22.39-50 50-50m20.598 77.755H43.402a93 93 0 0 1-1.971 5.75 40.2 40.2 0 0 0 22.57 6.89 40.2 40.2 0 0 0 22.628-6.93c-.722-1.862-1.465-3.873-2.031-5.71M96.49 39.997c-1.824 4.443-6.695 20.428-.4 48.535A40.2 40.2 0 0 0 104.395 64a40.2 40.2 0 0 0-7.905-24.003m-64.979 0A40.2 40.2 0 0 0 23.605 64c0 9.21 3.087 17.7 8.278 24.496 6.273-28.066 1.448-44.058-.372-48.499m50.79 8.159H45.698c1.495 8.45 2.326 19.299.54 31.142h35.523c-1.787-11.843-.958-22.693.538-31.142m-10.449 7.25q1.914 0 1.914 1.911v12.585q0 1.91-1.914 1.91H56.54q-1.915 0-1.915-1.91V57.318q0-1.911 1.915-1.911zm-7.851-31.802a40.2 40.2 0 0 0-23.06 7.23c.295.722.947 2.4 1.726 4.864h42.667c.779-2.463 1.431-4.142 1.725-4.864a40.2 40.2 0 0 0-23.058-7.23" fill="#b91b24"/><path d="M291.567 18.377c3.215.486 6.276 1.21 9.172 2.182.65.165.969.568.969 1.21-.154.485-.566.889-1.205 1.209-.804.486-1.289 1.137-1.454 1.944a56 56 0 0 1-1.689 5.573h3.628c1.772-2.75 3.215-4.364 4.348-4.85.959.166 2.659 1.376 5.071 3.64-.165-2.75-.32-5.015-.484-6.793-.165-1.613.566-2.255 2.174-1.933a634 634 0 0 0 8.452 2.905h7.729c1.619-2.42 2.742-3.63 3.381-3.63 2.103.321 4.514 1.531 7.256 3.63 1.123.972 1.205 2.026.236 3.153-.649.32-.968.89-.968 1.696v7.755c-.155 1.458 0 4.767.485 9.936 0 1.458-.485 2.42-1.454 2.906 1.618 1.137 3.308 2.502 5.081 4.125.319.476.402.962.238 1.448-.32.486-.722.651-1.206.486q-.485 0-2.412.723c-2.742 1.458-5.401 2.667-7.977 3.64 2.576 3.557 6.688 6.462 12.316 8.727.815.64 1.216 1.044 1.216 1.209 0 .486-.401.89-1.216 1.21-2.412.972-3.937 2.905-4.586 5.82-.485.962-1.206 1.127-2.176.476-3.864-3.06-6.843-6.296-8.934-9.687-2.412 2.263-11.019 8.963-11.833 9.45-.814.486-1.287.972-1.454 1.458-1.122 1.292-2.091 1.447-2.894.486-1.619-2.11-2.907-4.208-3.866-6.308q-1.205-1.206 1.206-2.181 1.688-.48 1.69-2.668v-13.08h-9.668v11.147a77 77 0 0 0 6.525-2.667c.968-.486 1.69-.486 2.174 0 .485.485.248 1.209-.721 2.181-4.35 4.529-7.575 7.754-9.668 9.698a7.7 7.7 0 0 0-2.174 2.906c-.958 1.778-2.009 2.182-3.133 1.21l-1.69-1.696c-1.454-1.458-2.505-2.502-3.144-3.154-1.453-1.448-1.37-2.501.237-3.143 2.103-1.293 3.061-3.402 2.907-6.307V54.245h-2.175c-1.134.155-2.339.32-3.628.486q-.726.231-1.206 0-1.205-1.779-1.205-1.945c-.166-.485 0-.723.483-.723 2.412.32 4.67.486 6.762.486h.969V42.364h-1.217a53 53 0 0 1-5.792 6.307q-1.206 1.212-1.453.962c-.155 0 0-.558.484-1.695 3.381-10.34 5.236-19.543 5.555-27.618-.154-1.622.485-2.264 1.938-1.943m115.36 18.67c1.443.478 3.356 2.067 5.751 4.777.481.632.645 1.193.481 1.672-.939.032-6.95 0-9.107 0 .153.478-.083.957-.727 1.435-.798.317-1.198.877-1.198 1.672v19.336c.164 2.71.318 4.534.482 5.49q.245 4.296-2.394 5.26h-.482c-2.559.956-4.635 1.507-6.242 1.67-2.078.315-3.193-.163-3.357-1.437-.153-2.384-1.596-4.054-4.318-5.012-1.596-.632-2.159-1.193-1.679-1.671 1.865 0 8.638-.247 8.638-3.82V43.495h-10.797c-1.596.163-3.758.422-4.553.478s-.718.153-1.197 0c-.481-.152-1.68-1.376-1.68-2.394s.121-.485 1.88-.17c1.719.309 3.014.41 6.061.414h20.12c2.241-3.188 3.674-4.777 4.318-4.777m-35.453-6.536c1.115.634 3.039 1.678 5.749 3.11.446.306.931.55 1.443.726.634.481.961 1.034.961 1.678 0 .48-.399.798-1.207.962-1.116.317-1.995.88-2.629 1.678-.481.634-2.24 2.956-3.366 4.071l.246.245c.163.154.317.154.481 0 1.278.635 1.513 1.433.716 2.395q-1.443.472-1.197 2.159v16.06c0 1.796.235 7.838.235 9.116.163 2.24-.553 3.672-2.158 4.317a125 125 0 0 1-4.787.952c-1.443.163-1.825.487-2.64-.235-.814-.722.082-10.467.236-13.669v-12.95a70 70 0 0 1-7.673 5.043q-.95.477-1.196.235c-.163-.317 0-.716.481-1.197 6.229-6.557 11.027-14.384 14.382-23.499.163-1.115.798-1.514 1.923-1.197M238.046 18.334a51.7 51.7 0 0 1 8.347 2.618q1.903.96-.478 2.862c-1.271.466-2.064 1.42-2.389 2.852-.792 1.582-1.271 2.537-1.424 2.85h15.728c2.378-4.12 4.208-6.26 5.479-6.423 2.379.64 5.235 2.78 8.58 6.424.315.64.397 1.187.234 1.664-.163.314-.478.396-.956.243h-8.102c-4.357-.159-7.345-.24-8.955-.243h-12.963c-2.063 3.968-5.083 9.356-9.058 16.176h8.103v-.71a80 80 0 0 1-.234-5.947c-.162-1.746-.316-3.014-.478-3.806-.478-1.43.162-2.141 1.912-2.141 2.063.152 5.154.71 9.291 1.664 1.423.944 1.585 1.979.468 3.086-1.108.639-1.587 1.268-1.424 1.907v5.947h4.768c2.216-3.653 3.965-5.713 5.236-6.19 2.704 1.116 5.479 3.257 8.346 6.423.315.64.467 1.188.467 1.665-.152.324-.467.396-.946.244h-8.346q-6.784-.24-8.743-.244h-.782v15.699c0 2.822.233 4.84.233 5.47.164 4.282-2.856 6.82-9.047 7.61-1.911.163-2.938-.395-3.1-1.664-.956-3.328-2.857-5.226-5.724-5.703-1.423-.324-2.135-.639-2.135-.954-.162-.64.631-.953 2.379-.953 5.713.64 8.337-1.107 7.859-5.227V49.256H230.9l-.946 1.43c-.955 1.746-2.307 2.061-4.055.955-1.586-.792-3.172-1.827-4.768-3.096-.794-.953-.479-1.98.955-3.095.477-.152 1.108-.791 1.911-1.897 2.541-4.283 4.757-8.403 6.669-12.371q-5.876.09-7.624.243c-1.749.153-3.416.315-5.002.468-.325.162-1.84-1.664-2.389-2.375-.549-.71-.549-1.025.244-.71s2.46.476 5.002.476c2.856.152 5.641.234 8.336.234h2.388c0-.163.072-.478.234-.955.162-.314.316-.628.478-.943 1.434-3.176 2.46-5.946 3.101-8.332.315-.791 1.189-1.105 2.612-.953m-78.53.047c2.773.814 5.702 1.951 8.798 3.423.324.324.647.564.981.73h12.697c1.96-2.608 3.42-3.997 4.399-4.153a33.5 33.5 0 0 1 8.799 6.356c.647.98.324 1.795-.979 2.443-1.136.49-1.627 1.231-1.461 2.202V46.51h.241q3.909-6.121 5.379-6.356c1.46.646 3.91 2.85 7.329 6.597.323.658.49 1.148.49 1.472-.167.323-.49.49-.979.49h-3.91c-2.45 0-5.13-.084-8.069-.25h-.481v9.06c.325 5.051.481 8.725.481 11.001.166 3.267-.647 5.386-2.44 6.367-2.116 1.138-4.806 2.035-8.058 2.693-2.284.324-3.431-.25-3.431-1.723-.812-3.58-3.168-5.698-7.078-6.356-1.47-.49-1.71-.828-1.71-1.472 0-.643.562-.887 2.2-.73 1.46.323 1.897.25 5.368.25s5.058-1.305 4.89-4.895V48.462h-15.398c.167 14.028-6.995 23.569-21.496 28.632-1.136.323-1.793.406-1.96.24-.157-.324.167-.898.98-1.713 8.475-7.66 13.489-16.721 13.489-27.159h-2.491c-4.566 0-7.579.167-9.038.491-.491.167-2.69-2.527-2.69-2.683.167-.166.406-.25.73-.25.979.167 2.856.323 5.619.49h8.11q.039-3.122.039-11.006c0-7.885-1.22-14.335-1.3-14.92-.334-.982-.334-1.64 0-1.964.323-.323.97-.407 1.95-.24m72.371 34.213c1.427.475 3.892 1.82 7.397 4.024.908.727.674 2.608-.478 2.608q-1.422 0-2.63 1.183c-5.563 6.32-12.41 10.747-20.531 13.275-.641.162-1.038.08-1.192-.232-.163-.324 0-.637.479-.95 5.89-4.43 10.587-10.748 14.081-18.958.48-1.264 1.437-1.577 2.874-.95m19.658.859c8.339 1.599 14.44 4.889 18.291 9.85 2.084 3.844 1.448 6.652-1.921 8.405q-4.821 1.691-6.747-2.399c-2.085-5.288-5.607-10.085-10.588-14.411-.637-.482-.802-.8-.483-.964.164-.317.647-.481 1.448-.481m71.178-6.963h-3.38V66.6c.484 0 1.371-.165 2.659-.486q2.894-.728 4.349-1.209c-2.576-4.684-3.782-10.826-3.627-18.415zm6.524 0h-4.101q.959 4.838 3.864 10.174 2.166-2.899 3.865-6.545l-.969.248q-2.904.962-2.659-1.457zm-18.839-4.126h-9.668V52.3c1.453-2.739 2.659-4.28 3.628-4.6 1.453.32 3.463 1.613 6.04 3.877zM182.972 24.497h-14.418c-.646.48-.896 1.545-.73 3.173v18.84h15.148zM329.247 35.83h-9.904v8.717h9.904zM170.01 28.062q9.575 2.273 11.091 8.114c.494 4.219-1.096 6.837-4.793 7.854-3.02.335-4.611-1.093-4.783-4.306-.172-3.894-1.096-7.184-2.773-9.888-.504-.681-.591-1.19-.247-1.525.161-.172.667-.249 1.505-.249m140.398 4.128h-13.77c-1.289 3.071-2.742 5.812-4.349 8.241h8.214q2.891-4.357 3.864-4.126c1.289.166 3.299 1.459 6.04 3.878zm60.32-13.848c2.694 1.926 4.829 3.525 6.408 4.805.477.645.638 1.281.477 1.927q-.243.718-1.185.717c-1.103 0-1.974.317-2.612.962-5.689 4.806-11.621 8.801-17.796 12.008q-.941.477-.942 0c-.162-.328 0-.727.466-1.208 5.861-5.759 10.205-11.927 13.049-18.484.324-.645 1.227-1.235 2.135-.727m-41.481 7.066h-8.451q-1.7 0-1.453 1.21v7.268h9.904zm73.572-3.596c1.433.476 3.416 1.974 5.957 4.505q.718.957.478 1.427c-.153.314-.631.476-1.423.476h-4.056c-1.749 0-4.047-.08-6.903-.233h-10.724c-1.748.152-3.253.314-4.523.466-1.305.11-1.993-1.418-2.145-1.893l-.244-.475c.162-.163.396-.234.712-.234 1.911.315 4.218.466 6.911.466h11.914c1.911-2.997 3.253-4.505 4.045-4.505z" fill="#1b1918"/></svg>