<svg width="484" height="128" fill="none" xmlns="http://www.w3.org/2000/svg"><path d="M111.232 51.026c12.555 0 22.767 10.21 22.767 22.76 0 12.549-10.213 22.758-22.767 22.758-1.861 0-3.668-.23-5.401-.652a22.7 22.7 0 0 1 .632 5.257c.027 12.55-10.164 22.781-22.717 22.809a22.7 22.7 0 0 1-5.936-.777 25.9 25.9 0 0 0 6.76-5.97c8.456-.458 15.186-7.487 15.167-16.048-.02-8.841-7.23-16.02-16.076-16-8.844.019-16.025 7.227-16.007 16.069l.003.052-3.312 2.401-3.41-2.707c.119-12.425 10.248-22.512 22.712-22.539a22.7 22.7 0 0 1 5.45.651 22.7 22.7 0 0 1-.632-5.305c0-2.099.292-4.13.825-6.06a25.9 25.9 0 0 0 5.917 6.708c.342 8.543 7.398 15.388 16.025 15.388 8.846 0 16.042-7.194 16.042-16.036s-7.196-16.036-16.042-16.036c-4.13 0-7.9 1.57-10.747 4.142a13 13 0 0 1-2.335-6.715 22.64 22.64 0 0 1 13.082-4.15M36.768 76.973C24.213 76.973 14 66.764 14 54.215c0-12.55 10.213-22.759 22.768-22.759 1.86 0 3.667.23 5.401.652a22.7 22.7 0 0 1-.632-5.257C41.51 14.301 51.7 4.07 64.254 4.043a22.7 22.7 0 0 1 5.936.776 25.9 25.9 0 0 0-6.761 5.97c-8.455.458-15.185 7.487-15.166 16.048.019 8.841 7.23 16.02 16.074 16.001 8.846-.019 16.027-7.228 16.007-16.07l-.001-.052 3.312-2.4 3.41 2.707c-.12 12.424-10.249 22.511-22.713 22.538a22.7 22.7 0 0 1-5.448-.651 22.7 22.7 0 0 1-.195 11.365 25.9 25.9 0 0 0-5.916-6.708c-.342-8.543-7.398-15.388-16.026-15.388-8.846 0-16.042 7.194-16.042 16.036S27.922 70.25 36.768 70.25c4.13 0 7.9-1.569 10.747-4.14a13.03 13.03 0 0 1 2.335 6.715 22.64 22.64 0 0 1-13.082 4.149m50.29 24.218c.028 12.55-10.164 22.781-22.718 22.809-12.553.026-22.788-10.161-22.816-22.711-.004-1.88.225-3.755.682-5.579-1.78.439-3.606.66-5.439.661C24.213 96.371 14 86.161 14 73.613c0-2.052.277-4.04.79-5.931a25.9 25.9 0 0 0 5.957 6.77c.44 8.453 7.457 15.196 16.02 15.196 8.846 0 16.042-7.193 16.042-16.035s-7.196-16.036-16.042-16.036l-.05.002-2.396-3.317 2.715-3.402c12.43.145 22.499 10.294 22.499 22.753 0 1.907-.24 3.76-.684 5.53a22.8 22.8 0 0 1 5.391-.662c2.049-.003 4.088.27 6.064.812a25.9 25.9 0 0 0-6.697 5.93c-8.546.36-15.378 7.427-15.359 16.052.018 8.842 7.23 16.02 16.076 16.001s16.026-7.229 16.007-16.07a15.97 15.97 0 0 0-4.166-10.735 13 13 0 0 1 6.712-2.348 22.6 22.6 0 0 1 4.18 13.068zM60.941 26.809C60.914 14.259 71.106 4.028 83.66 4c12.554-.027 22.789 10.16 22.816 22.71a22.7 22.7 0 0 1-.682 5.58 22.8 22.8 0 0 1 5.439-.662c12.555 0 22.767 10.21 22.767 22.759 0 2.053-.277 4.04-.789 5.931a25.9 25.9 0 0 0-5.958-6.771c-.439-8.452-7.456-15.195-16.02-15.195-8.845 0-16.041 7.193-16.041 16.035s7.196 16.035 16.041 16.035l.051-.002 2.396 3.317-2.716 3.403c-12.43-.145-22.498-10.294-22.498-22.753 0-1.907.24-3.759.683-5.53a22.7 22.7 0 0 1-5.39.662 22.7 22.7 0 0 1-6.064-.813 25.9 25.9 0 0 0 6.697-5.929c8.545-.36 15.377-7.427 15.358-16.052-.018-8.842-7.23-16.02-16.075-16.002-8.846.02-16.026 7.23-16.007 16.071a15.97 15.97 0 0 0 4.166 10.735 13.03 13.03 0 0 1-6.712 2.348 22.6 22.6 0 0 1-4.18-13.068M162.124 124h307.968v-3.75H162.124z" fill="#ca7038"/><path d="M162.123 14.326h10.505V4.47h6.914v9.857h25.796V4.47h6.915v9.857h10.504v6.594h-10.505v44.89h-6.914v-3.529h-25.796v3.596h-6.915V20.92h-10.504zm17.419 41.36h25.796V41.235h-25.796v14.453m0-20.912h25.796V20.92h-25.796zm102.077-1h-19.347v32.037h-6.781V33.774h-18.483V27.58h18.483v-3.396H229.23V17.79h26.261v-3.464h-18.55V8.132h18.549V4.47h6.781v3.663h19.347v9.658h7.18v6.394h-7.18v9.59zm-19.347-19.448v3.464h12.565v-3.464zm0 9.858v3.396h12.565v-3.396zm14.826 12.122h6.515V66.01h-6.515zm-30.184 2.797 5.784.733q-.997 11.49-5.186 20.38l-5.917-1.865c2.859-5.594 4.654-11.989 5.319-19.248m23.469-.333q2.593 8.991 4.587 19.581l-6.05 1.399q-1.695-11.19-4.188-19.781zm-34.771-2.531h6.382v4.929c-.133 11.455-3.058 19.847-8.709 25.176l-5.186-4.596c4.92-4.262 7.446-11.123 7.513-20.58zm67.438-31.77 6.648 1.398q-.501 2.005-1.047 4l-.349 1.262h11.701v6.594h-13.962c-.93 2.265-1.861 4.396-2.858 6.394h15.291v6.26h-6.183v6.728h8.377v6.394h-8.377v12.854a44 44 0 0 0 6.383-2.797l1.13 5.928c-4.122 1.998-8.843 3.663-14.228 4.995l-2.659-5.728c1.862-.533 2.859-1.399 2.859-2.598V43.5h-9.042v-6.394h9.042v-6.727h-3.524v-4.396c-.665 1.199-1.396 2.398-2.061 3.596l-5.717-3.596A70.8 70.8 0 0 0 303.05 4.47m26.461 20.114v5.728h16.155v-5.728zm16.155-5.994v-5.93h-16.155v5.928zm5.983 19.781 4.388 4.33c-2.659 3.33-5.717 5.994-9.041 7.859 2.526 3.463 5.717 6.394 9.573 8.925l-3.656 5.994q-14.96-10.69-17.951-28.973h-5.452v20.181c3.191-.932 6.383-2.131 9.508-3.53l1.595 6.061q-6.701 2.704-16.53 5.234l-1.42.36-1.463-5.794c1.197-.4 1.795-.999 1.795-1.931V6.4h28.987v30.105h-10.903c.598 3.197 1.529 6.194 2.792 8.858q3.989-2.497 7.778-6.992M386.71 7.8h32.71v6.86h-32.71zm-1.596 16.518h37.165v6.86h-10.238v27.907q0 6.594-7.381 6.594h-9.64l-1.529-6.794c3.058.266 5.984.466 8.776.466 1.795 0 2.726-.666 2.726-1.998V31.177h-19.878v-6.86zM375.142 4.67l6.315 2.997q-5.284 10.89-18.15 19.781l-2.127-6.993q9.375-6.694 13.962-15.785m3.125 15.319 6.249 2.93q-2.594 5.196-6.582 9.99v33.036h-6.848V39.77a129 129 0 0 1-7.246 5.528l-2.128-6.86c7.446-5.195 12.964-11.389 16.555-18.45M171.03 100.249V82.583h7.097q2.108 0 3.143.174 1.035.175 1.853.73.817.553 1.363 1.475.545.922.545 2.067a4.1 4.1 0 0 1-.673 2.278 4.16 4.16 0 0 1-1.823 1.554q1.624.47 2.496 1.603t.872 2.664q0 1.205-.564 2.343a4.7 4.7 0 0 1-1.538 1.82q-.975.681-2.404.837l-.16.015q-1.01.084-4.164.106zm3.585-14.726v4.085l3.004-.002q1.526-.008 1.949-.058.92-.109 1.448-.633.527-.525.527-1.38 0-.82-.455-1.331-.454-.512-1.35-.62l-.193-.017q-.702-.044-2.871-.044zm0 7.025v4.724h3.318q1.938 0 2.459-.108.8-.145 1.302-.705.502-.561.502-1.5 0-.795-.387-1.35t-1.12-.808-3.18-.253h-2.895zm30.375 7.701h-3.9l-1.55-4.013h-7.097l-1.465 4.013h-3.803l6.915-17.666h3.791zm-6.601-6.99-2.446-6.556-2.398 6.557zm8.588 6.99V82.583h3.488l7.267 11.797V82.583h3.331v17.666h-3.597l-7.158-11.52v11.52zm17.974 0V82.583h3.585v7.844l7.242-7.845h4.821l-6.686 6.882 7.049 10.785h-4.638l-4.882-8.291-2.906 2.953v5.338zm24.127-8.725q0-2.7.811-4.531a8.3 8.3 0 0 1 1.653-2.422q1.048-1.073 2.295-1.59 1.66-.7 3.828-.7 3.923 0 6.279 2.423t2.356 6.736q0 4.278-2.338 6.694-2.337 2.415-6.249 2.416-3.96 0-6.298-2.404t-2.337-6.622m3.693-.12q0 3 1.393 4.55 1.394 1.547 3.537 1.547 2.144 0 3.518-1.536t1.375-4.61q0-3.037-1.339-4.53-1.338-1.495-3.554-1.495-2.217 0-3.573 1.512t-1.357 4.561m16.4 8.845V82.583h12.172v2.988h-8.588v4.182h7.413v2.988h-7.412v7.508zm30.376-6.495v-2.977h7.727v7.037q-1.126 1.085-3.264 1.911-2.139.825-4.33.825-2.786 0-4.857-1.162a7.4 7.4 0 0 1-3.112-3.327q-1.042-2.163-1.042-4.705 0-2.76 1.163-4.905 1.162-2.145 3.403-3.29 1.708-.88 4.251-.88 3.307 0 5.166 1.38 1.858 1.38 2.392 3.814l-3.561.663q-.375-1.302-1.411-2.055-1.035-.753-2.586-.753-2.35 0-3.736 1.482-1.387 1.483-1.387 4.399 0 3.146 1.405 4.718t3.682 1.572q1.126 0 2.259-.44t1.943-1.066v-2.241zm27.093 6.495h-3.899l-1.55-4.013h-7.098l-1.465 4.013h-3.804l6.916-17.666h3.79zm-6.601-6.99-2.446-6.556-2.398 6.557h4.845zm8.588 6.99V82.583h3.488l7.267 11.797V82.583h3.33v17.666h-3.597l-7.157-11.52v11.52zm17.017-5.748 3.488-.338q.315 1.747 1.278 2.567.962.82 2.597.82 1.732 0 2.61-.73.879-.729.878-1.705 0-.626-.369-1.066t-1.29-.765l-.16-.053a38 38 0 0 0-1.794-.489l-.916-.23q-2.883-.71-4.045-1.747-1.635-1.458-1.635-3.555 0-1.35.769-2.525t2.216-1.79 3.494-.614q3.343 0 5.033 1.458 1.689 1.459 1.774 3.893l-3.585.156q-.231-1.36-.987-1.958-.757-.596-2.271-.596-1.562 0-2.447.638-.569.41-.569 1.097 0 .627.533 1.072.646.54 3.05 1.123l.245.059q2.615.615 3.869 1.27 1.254.658 1.962 1.796.708 1.14.708 2.814 0 1.519-.847 2.844-.849 1.326-2.398 1.97-1.551.645-3.864.646-3.367 0-5.171-1.55-1.805-1.548-2.156-4.512m17.477-11.919h3.585v9.569q0 2.278.133 2.953a2.86 2.86 0 0 0 1.096 1.74q.866.658 2.368.657 1.526 0 2.301-.62t.932-1.525q.159-.903.158-3v-9.773h3.585v9.279q0 3.18-.291 4.495-.29 1.313-1.071 2.217-.782.904-2.089 1.44-1.309.536-3.416.536-2.544 0-3.857-.584-1.315-.584-2.078-1.519-.762-.933-1.005-1.958-.351-1.518-.351-4.483z" fill="#231916"/></svg>