<svg width="128" height="128" fill="none" xmlns="http://www.w3.org/2000/svg"><path d="M80.05 57.75h26.35c.25 4.65 0 9.95-.7 13.8-3.6 20.25-21.05 34.9-41.55 34.9-23.2.05-42.15-19-42.15-42.35 0-11.45 4.35-22.15 12.3-30.15s18.55-12.4 29.95-12.4H91.3c0 .5-.05 1-.1 1.45-.1.85-.25 1.55-.25 1.55-.95 4.05-4.55 10.9-14.05 10.9H64.25c-15.7 0-28.5 12.85-28.5 28.65s12.8 28.65 28.5 28.65c14.65 0 26.8-11 28.35-25.65l.15-1.25H75.4v-4.4c0-1.9.65-3.65 4.65-3.7M63.95 39h42.55l-.2 1.35c-1.35 8.1-6.45 12.15-15.65 12.4h-34.2c-2.05 0-3.7 1.65-3.7 3.7V71.5c0 2.05 1.65 3.7 3.7 3.7H71.5c2.05 0 3.7-1.65 3.7-3.7v-2.15h13.2L88 70.8c-3.05 10.7-12.9 18.15-24 18.15-13.75 0-24.95-11.2-24.95-25C39 50.2 50.2 39 63.95 39" fill="#de0112"/></svg>