<svg width="128" height="128" fill="none" xmlns="http://www.w3.org/2000/svg"><path d="M29.555 50.37s11.54-15.962 30.38-6.04c0 0 9.63-6.632 21.76-6.319 1.374.052 11.002-.053 14.287 4.665 1.582 2.385 1.425 5.362-1.32 7.625 0 0-13.07-10.445-45.258-.47 0 0-4.658-2.542-10.637-2.124-5.614.435-9.212 2.663-9.212 2.663" fill="#6fb92c"/><path d="m91.168 89.33 12.809-27.035S97.459 43.53 62.838 48.351C31.936 52.703 14 74.498 14 74.498s20.439-13.996 46.475-6.528c21.603 6.198 30.693 21.36 30.693 21.36" fill="#00428d"/></svg>