<svg width="426" height="128" fill="none" xmlns="http://www.w3.org/2000/svg"><path d="M145.412 103.766c1.553 0 2.835-.233 3.884-.699s1.553-1.359 1.553-2.641-.621-2.175-1.825-2.641c-1.243-.466-2.797-.7-4.7-.7h-1.476v5.788c0 .388.156.66.428.777.271.116 1.087.116 2.136.116m-9.128-.388c1.282-.078 2.098-.233 2.486-.505s.583-.932.583-1.942l-.195-9.904c0-1.01-.194-1.632-.582-1.942-.389-.272-1.204-.466-2.486-.505l-.116-1.36h8.894c2.525 0 4.544.35 6.02 1.049 1.476.7 2.602 2.253 2.602 3.962 0 1.281-.543 2.136-1.592 2.796-.583.388-.932.544-2.097.816 1.437.31 1.903.272 3.262 1.398 1.36 1.126 1.631 2.408 1.631 3.69 0 2.136-1.32 3.068-3.612 3.845-1.204.427-2.68.621-4.466.621h-10.332zm9.322-8.623c.932 0 1.748-.155 2.369-.427 1.204-.505 1.787-1.398 1.787-2.719 0-1.553-.699-2.563-2.059-3.107-.777-.31-1.903-.427-3.457-.427-.582 0-.932.039-1.087.155-.155.117-.233.35-.233.738v5.826zm22.372 2.292-2.875-6.72-2.835 6.72zm-12.623 8.156v-.505c.815-.077 1.398-.349 1.825-.815.389-.466 1.088-1.748 2.059-3.846l5.593-12.622h2.446l6.215 14.06c.505 1.087.932 1.747 1.243 1.98.31.272 1.514.195 2.252.272v1.476h-9.632l-.078-1.476.467-.039c.66-.077 1.087-.155 1.32-.233.272-.116.35-.116.544-.505.116-.194-.039-.621-.117-.971-.116-.349-.233-.776-.388-1.165l-.738-1.747h-6.02l-.932 1.747c-.272.622-.428 1.049-.505 1.243-.156.427-.233.738-.233.971 0 .466.233.816.66 1.01q.408.174 1.515.233v.893h-7.496zm22.177-1.476c1.165-.116 1.903-.388 2.214-.777.311-.427.505-1.359.505-2.835V89.823l-.388-.466c-.428-.505-.738-.777-1.049-.894-.272-.116-.699-.194-1.282-.194v-1.243h4.777l11.07 12.507v-7.535q0-2.331-.699-3.03-.466-.466-1.981-.582v-1.321h7.224v1.32c-1.049.117-1.787.389-2.136.777-.35.428-.544 1.36-.544 2.836v13.283h-.466l-13.128-14.449v9.555c0 1.554 0 2.292.466 2.758.272.31.932.505 1.942.621v1.476h-6.525zm21.168.078c1.282-.078 2.058-.272 2.369-.583s.466-1.048.466-2.175v-10.37c0-.97-.155-1.631-.505-1.903-.349-.272-1.126-.466-2.33-.544v-1.282h8.933v1.282c-1.243.039-1.165.117-1.515.427-.349.311-.544.933-.544 1.904v4.777l.855-.622c1.554-1.165 6.02-5.32 6.02-5.787 0-.35-.194-.582-.544-.699-.349-.116-.776-.039-1.476-.039l.156-1.204h8.195v1.204c-1.01.078-1.554-.038-2.136.195-.583.271-1.398.815-2.408 1.67l-5.554 5.515c6.02 5.282 9.166 8.04 9.515 8.273.505.31 1.204.505 2.175.621v.466h-9.593v-1.048c.621-.039-.971 0 .971 0s-.35-1.904-.777-2.292l-5.36-4.544v4.311c0 1.01.195 1.631.544 1.903s.272.505 1.437.583v1.087h-8.855v-1.126zm31.887-7.885c0 2.68.661 4.661 1.981 5.904 1.321 1.282 2.952 1.903 4.855 1.903 1.864 0 3.496-.621 4.816-1.864 1.321-1.243 2.02-3.224 2.02-5.981 0-2.758-.66-4.778-2.02-6.02-1.359-1.243-2.952-1.865-4.816-1.865-1.903 0-3.534.622-4.855 1.903-1.32 1.36-1.981 3.34-1.981 6.02m-3.418 0c0-2.757 1.049-5.01 3.146-6.68 1.942-1.515 4.273-2.291 7.108-2.291s5.205.776 7.108 2.291c2.097 1.67 3.146 3.884 3.146 6.68 0 2.836-1.088 5.05-3.224 6.72-1.942 1.476-4.272 2.252-6.991 2.252-2.913 0-5.36-.815-7.302-2.485-2.02-1.67-2.991-3.845-2.991-6.486m22.76 8.468q1.864-.175 2.331-.583c.311-.272.466-1.01.466-2.175V91.027c0-.971-.155-1.593-.505-1.903s-1.087-.467-2.292-.544v-.505h15.847l.117 3.884h-.894c-.233-1.243-.621-2.02-1.243-2.37-.582-.349-.66-.504-2.408-.504h-4.35c-.427 0-.699.077-.815.194-.117.116-.195.35-.195.738v6.059h3.457c1.36 0 2.214-.155 2.602-.505.389-.35.661-1.049.894-2.097h.738v6.253h-.738q-.35-1.573-.932-2.098c-.389-.35-1.243-.505-2.564-.505h-3.457v4.817c0 1.009.195 1.631.544 1.903s1.127.466 2.331.544v.504h-8.934zm26.217 0q1.864-.175 2.331-.583c.31-.272.466-1.01.466-2.175V91.027c0-.971-.156-1.593-.505-1.903-.35-.272-1.088-.467-2.253-.544v-.505h8.817v.505c-1.165.077-1.942.233-2.292.544-.349.271-.544.932-.544 1.903v5.282h9.594v-5.282c0-.971-.155-1.593-.505-1.903-.35-.272-1.088-.467-2.292-.544v-.505h8.817v.505c-1.165.077-1.903.233-2.253.544-.349.271-.505.932-.505 1.903v10.952c0 .971.156 1.632.505 1.904.35.272 1.088.466 2.253.543v.505h-8.817v-.505q1.864-.174 2.331-.582c.311-.272.466-1.01.466-2.175v-4.156h-9.594v4.466c0 .971.195 1.632.544 1.904s1.127.466 2.292.543v.505h-8.856zm31.694-16.313v.505c-1.204.077-1.981.272-2.331.544-.349.271-.544.97-.544 1.98v6.797c0 1.476.233 2.641.661 3.457.815 1.515 2.408 2.253 4.738 2.253q3.845 0 5.127-2.331c.505-.854.738-2.175.738-4v-5.088c0-1.515-.194-2.486-.622-2.874-.388-.389-1.165-.622-2.33-.738v-.505h7.224v.505c-1.204.116-1.981.388-2.369.777-.388.427-.544 1.359-.544 2.835v5.088c0 1.942-.349 3.457-1.01 4.544-1.204 2.02-3.534 3.03-6.952 3.03-3.379 0-5.67-1.01-6.874-2.991-.661-1.049-1.01-2.486-1.01-4.195v-6.564c0-1.01-.194-1.67-.544-1.98-.35-.272-1.126-.467-2.292-.544v-.505zm13.827 16.546 13.516-15.575h-7.108c-1.787 0-3.068.35-3.806 1.087-.466.428-.816 1.204-1.088 2.253h-.815l.621-4.35h16.274v.272l-13.4 15.575h7.924c1.786 0 3.107-.35 3.922-1.049q.757-.64 1.399-2.447h.738l-.738 4.467h-17.478v-.233zm20.507-.195c1.165-.116 1.903-.31 2.214-.543.31-.272.427-.933.427-2.059V90.832c0-.893-.155-1.514-.505-1.786-.311-.272-1.049-.427-2.136-.505v-.466h8.35v.466c-1.087.078-1.825.233-2.136.505-.31.272-.505.854-.505 1.786v4.933h9.089v-4.933c0-.893-.156-1.514-.466-1.786s-1.049-.427-2.136-.505v-.466h8.35v.466c-1.087.078-1.825.233-2.136.505s-.505.854-.505 1.786v11.303c0 .932.155 1.515.505 1.786.311.272 1.049.428 2.136.505v.466h-8.35v-.466c1.165-.116 1.903-.271 2.213-.543.272-.272.428-.933.428-2.059v-4.933h-9.089v5.244c0 .932.156 1.515.505 1.786.35.272 1.049.428 2.136.505v.466h-8.389zm27.304-8.505c0 2.68.622 4.66 1.826 5.903 1.204 1.282 2.68 1.903 4.466 1.903q2.563 0 4.428-1.864c1.204-1.243 1.825-3.224 1.825-5.981 0-2.758-.621-4.778-1.864-6.02-1.243-1.243-2.719-1.865-4.389-1.865-1.748 0-3.223.622-4.466 1.903-1.204 1.36-1.826 3.34-1.826 6.02m-3.418 0c0-2.758.971-5.01 2.952-6.681 1.826-1.515 4.04-2.291 6.719-2.291s4.894.776 6.72 2.291c1.981 1.67 2.952 3.884 2.952 6.68 0 2.836-1.01 5.05-3.069 6.72-1.825 1.476-4.039 2.252-6.603 2.252-2.757 0-5.049-.815-6.913-2.485-1.826-1.67-2.758-3.845-2.758-6.486m29.868-7.846v.466q-1.923.117-2.447.466-.582.408-.582 1.748v7.962q0 1.98.699 3.029 1.34 1.981 5.01 1.981c2.68 0 4.505-.699 5.438-2.058.505-.777.776-1.942.776-3.535v-6.486c0-1.36-.233-2.214-.66-2.563s-1.243-.544-2.447-.66v-.467h7.613v.466c-1.282.117-2.098.35-2.486.7s-.583 1.204-.583 2.485v6.487c0 1.709-.349 3.068-1.048 4.039-1.282 1.786-3.729 2.641-7.341 2.641-3.573 0-5.981-.893-7.263-2.641q-1.049-1.398-1.049-3.729v-7.768c0-.893-.194-1.476-.543-1.748-.389-.271-1.166-.427-2.408-.504v-.466h9.321zm4.118-57.599c3.185 1.787 4.195 2.136 2.098 4.855-2.098 2.68-2.331 2.175-4.584 4s-8.389 6.642-9.166 8.35c-.776 1.749 1.865 2.02 4.156 0 2.331-2.019 4.467-1.514 7.535-4.038s5.049-2.797 7.885-1.826c2.874.971 5.942 5.865 1.592 5.865s-12.002 1.398-12.002 2.33 4.584 2.33 4.584 6.486 1.476 11.652-.971 15.381.194 6.059-3.651 6.059h-.35c-3.767 0-8.35 0-5.942-2.99 2.485-3.069 3.495-5.555 3.495-11.38 0-5.827.544-12.157-1.476-11.458s-4.117 5.127-6.602 4.389c-2.486-.7-6.681-2.059-3.418-6.487 3.223-4.428 5.593-6.952 8.001-9.67 2.408-2.72 2.485-5.011 0-5.011-2.486 0-4.117-4 0-4 4.155 0 5.631-2.642 8.816-.855m-27.226-7.923c0-.777 1.942-1.399 2.757.776s0 0 1.01 1.593 2.991 3.146 6.447 5.398c3.457 2.253-.854 4.778-2.136 6.681-1.281 1.903-3.456 2.097-2.486 3.923 1.01 1.825 3.535 0 5.322 1.631 1.747 1.631-1.748 4.855-2.836 6.68-1.087 1.826-2.486 4.467-2.486 8.351s-2.097 8.079-2.835 11.846c-.738 3.729 0 7.418-3.806 8.35-3.69.933-3.806-4.427-3.806-7.068v-.233c0-2.525 3.262-7.03 1.98-8.273-1.281-1.243-4.738 4.195-7.962 5.67-3.223 1.515-1.087-6.563 1.36-9.67s10.253-8.972 9.438-10.798c-.855-1.825-4.001 1.826-5.826 2.447-1.826.66-4.972 0-4.972-4.311 0-4.312 5.282-9.71 7.962-14.487 2.642-4.661 2.836-7.613 2.836-8.506zm-43.113 3.418c3.651.699 1.865 3.068 1.865 6.525 0 3.456 0 5.01-.932 7.146-.933 2.097.932 1.864-.933 4.389-1.864 2.525-1.242 2.408-1.242 4.195 0 1.786 3.107 0 3.845-2.874.776-2.875 2.952-3.846 1.825-5.71-1.126-1.864 4.156-2.097 5.865 0s3.263 3.496 3.263 5.127-3.302 1.67-5.011 3.418-4.855 3.806-6.758 3.806c-1.864 0-1.01 2.758 0 3.845s2.602-.272 5.71 1.165 3.806 4.195 4.544 7.07c.777 2.835-.777 3.806-2.913 5.165-2.175 1.36-2.797-2.097-4.739-2.758-1.942-.66-3.34-4.427-5.049-5.243s0 2.214.583 3.496c.582 1.281-.583 3.029-1.981 4.505s-.816 2.447-1.826 4.544c-1.009 2.098-2.796 1.903-4.816 1.903-2.058 0-3.728-1.903-5.942-4.583s-3.729-9.904-3.729-12.856 1.515-10.642 2.175-12.39c.661-1.747 1.554-8.35-.621-9.67s-.117-2.331 2.214-2.331c2.291 0 3.767-3.457 5.204-3.457s3.224-1.825 3.224-3.767 2.563-1.36 6.175-.66m-145.882 1.592c1.903 0 2.059 1.049 3.224 2.097 1.204 1.01-1.204 2.641-1.204 3.884s-.854 5.01-.854 6.991.854 4.584 1.281 5.516c.427.893-.427 4.35 0 6.02s.738 5.088.738 8.195 2.369 7.73 2.369 9.865c0 2.136-2.213 2.37-3.573 2.37s-2.99 1.98-3.961 1.98-1.088-3.418-1.709-4.389c-.622-.97-1.632-1.475-2.214-1.475s-.466-2.33-1.748-3.224c-1.282-.855-2.369-5.554-1.67-6.409.699-.893 2.952 3.107 4.35 4.894s1.942.855 1.942-.505-1.01-7.185-1.01-8.661-2.641-1.32-3.573-1.32-.583-1.01.932-1.787 0-2.486 0-4.467c0-1.942-2.564-3.03-3.301-3.03s-.467 1.321 0 2.448c.466 1.087-.467 5.826 0 6.835.466 1.01 0 3.185 0 3.69s-.816 1.903-1.438 1.903c-.582 0-.582 2.098-.582 3.457v.155c0 1.36-2.253 3.535-2.602 5.632-.35 2.136-2.758 1.826-4.273 1.826s.078-1.826 1.127-1.826 1.087-1.903 1.087-3.534c0-1.632.388-1.787.855-3.457s0-2.874 0-4.195c0-1.32 1.204-2.369 1.204-4.7s0-3.145.349-4.66c.35-1.476.738-2.68.738-4.816s-1.087-4.622-1.825-5.632c-.699-1.01-.505-2.758.699-3.806 1.243-1.049 2.602.233 3.185.699.582.466 1.437 4.156 1.437 5.01s.31.66 1.747.66 1.01 1.01 2.331 1.01.932-5.67.932-6.641c0-1.01-.932-1.165-2.641-.7-1.748.467-2.369-.776-3.806-2.136-1.437-1.359 2.136-1.437 3.223-2.175 1.088-.738 2.331-.427 4.195-.427 1.903.078 2.136-1.165 4.039-1.165m69.174-3.301c1.32 0 1.903 1.242 4.738 3.223s4.04 6.758 3.341 9.555c-.7 2.796 0 27.887 0 30.644 0 2.758-.505 2.797-.505 3.884 0 1.088-2.486 1.437-3.845 1.437-1.36 0-3.224 2.409-5.011 1.088s-1.204-2.525-1.786-4c-.544-1.477-.622-5.166.543-5.71s2.059-1.942 1.204-3.068c-.815-1.127 0-2.836.816-3.418s0-3.34 0-6.37.505-5.981.505-7.613c0-1.63.466-2.874 0-3.728s.466-2.758.466-4.506c0-1.747-.932-1.475-1.787.544-.815 2.02-1.204 3.302-2.369 4-1.165.7 0 1.904 0 4.195s1.165 2.564 1.165 3.884-1.67 2.408-2.369 5.283c-.699 2.874-2.991 1.553-4.661 1.553s-2.951-2.913-4-2.913-1.165-.66-1.165 1.36 2.291 3.961 1.165 5.709c-1.088 1.787 1.087 5.632 0 6.447-1.088.816-2.486 1.981-3.69 2.641s-1.592-.233-1.592-1.204c0-.932-1.476-2.913-2.913-3.845s-.544-2.02-.544-4.894-4.661 0-6.719 0-.622 1.321 0 2.836c.621 1.515.466 4.428-.622 5.476-1.087 1.049-.311 1.942-2.136 2.836s-1.515 3.379-2.835 3.379-1.437-.777-3.457-1.437c-1.981-.7-.583-3.574-.583-5.826 0-2.214-1.281-.816-1.281-.816v-.039c0-.272.077-2.796 1.281-3.612 1.282-.855 0-1.864 0-3.806s-1.281-2.408-1.281-2.408-1.826-.311-1.826-1.554-1.32-1.282-2.291-2.02-2.292-2.097-2.952-2.68c-.66-.582-.932-2.291.66-2.291s2.292 1.709 3.34 2.291c1.01.583 3.108-.582 4.389.428s2.564-2.059 3.185-3.729c.622-1.67-.621-2.292-1.903-2.952s0-3.146 0-4.971-2.563-.583-3.962-1.398c-1.437-.816 2.02-2.991 3.962-2.991s5.166 2.447 6.175 4.816c1.01 2.37 2.952 5.865 4.117 6.875s.7-2.33 1.671-3.846c.971-1.514 2.097 0 2.602-1.67s-.505-2.408.505-5.204c1.048-2.758 2.68-3.651 6.098-1.049 3.456 2.641 4.505 6.991 3.573 9.4-.932 2.407-2.525 1.786-2.098 4.621s2.059-.116 3.884.466c1.826.583 2.564-3.806 2.564-6.602s5.204-5.438 5.748-7.885 1.204-1.98 1.204-3.573-5.127-2.175-3.573-4.156c1.515-1.787 3.534-1.087 4.855-1.087m50.453 19.769c2.058 1.398-.389 4.7-2.02 5.321s-2.563.194-2.563 1.398-.738 3.107.893 3.107 3.651-3.69 4.661-2.563c1.048 1.126 5.36 4.738 2.68 4.738s-2.836 1.865-1.088 3.224c1.748 1.32 4.195 1.476 4.195 3.923s-.466 5.127-3.146 5.127-5.36 3.806-7.341 3.806-6.253 2.214-8.972.738-2.68-2.524-1.359-5.321c1.32-2.796 5.748-5.399 5.748-6.836s-1.204-.427-2.796-2.214c-1.593-1.786 2.796-2.447 2.796-2.447s1.864-2.097.932-3.69-3.69-.194-2.602-2.369c1.087-2.175 2.291-1.67 4.272-3.379s3.69-3.961 5.71-2.563M134.266 55.06c1.359 0 2.874.117 4.156 1.438s1.243 2.485 1.903 3.69c.66 1.203 1.32 2.68 1.981 2.29.66-.426 1.398-1.28 1.398-2.29s2.097-1.516 2.097-.778c0 .777.855 2.991 0 4.273-.854 1.282-1.204 4.156-2.097 4.816s-1.476 3.107-3.379 2.447-5.36-5.205-5.36-6.836c0-1.67 1.01-4.933 0-5.71-1.01-.776-2.059-3.34-.699-3.34m158.971 11.963s-1.01 2.758 1.398 2.758 1.748-3.146 1.748-5.477c0-2.369-3.068 2.603-3.146 2.72M157.259 30.01c1.087.699 1.32 2.68 2.33 2.68s3.612-.233 4.428.544c.816.776 1.088 1.087.932 2.64-.155 1.554 1.36 3.496 0 3.846-1.359.35-2.214-.738-3.301-.738s-2.525.932-2.525 1.98c0 1.01-.349 3.768-1.126 3.768s-2.408 1.593-1.204 1.593 2.136-.894 3.224-.428c1.087.466 5.243 2.136 4.621 3.573-.621 1.438 0 4.894 0 6.02 0 1.166.078 3.652-1.126 4.584s-2.447 3.534-2.719 4.35c-.31.815-1.437 2.64-2.097 2.64s-2.447.545-3.34.545c-.894 0-2.175 1.087-3.069 1.087-.893 0-3.029-1.126-3.029-2.291s-.039-5.4-.544-6.37c-.505-.971-1.592-2.486-2.369-3.884-.738-1.398.932-2.758 1.631-3.806.699-1.088.583-1.67 1.243-3.457s2.059-2.059 2.059-3.69 1.165-2.253 0-3.262c-1.166-1.01-4.001-.971-3.302-2.253s3.146-1.126 4.273-2.253c1.165-1.126 2.602-1.786 2.602-2.99s-.855-2.253 0-2.797c.854-.544 1.282-2.33 2.408-1.631m160.952 20.973c-1.01 2.098-1.321 2.719 0 3.962s-.622 2.641-.622 3.263c0 .66.622 0 .622 1.903s-.699 4.117 1.049 4.039.621-2.952 2.874-3.496c2.291-.543 3.573.117 2.913-1.786s-7.147-1.554-6.098-2.836 6.874.66 8.35-1.087c1.437-1.748-.582-2.408-1.437-3.962-.854-1.553-1.903-.738-3.728-.738s-2.913-1.36-3.923.738m-16.352 7.496c-1.204 2.408-.233 4.583.777 5.166s2.02-1.554 2.02-2.059c0-.504-1.593-5.515-2.797-3.107m-2.136-33.13c1.981.622 4.311 2.641 3.535 3.962-.777 1.32-3.69 7.224-6.797 12.157-3.108 4.932-9.749 11.574-11.07 15.302-1.32 3.729-4.156 5.127-6.214 5.127s-6.02-1.942-3.34-3.146 6.836-4.66 8.234-8.04 7.146-12.622 9.088-14.953 4.234-4.311 4.234-5.399c0-1.087.349-5.631 2.33-5.01M153.841 49.935c-1.981.621-1.903 1.864-3.068 2.602s-.505 2.175.388 2.99 1.088 1.865 1.864 2.913c.777 1.05.816 2.137 2.292 2.137s.505-1.36.932-2.136c.427-.777 1.476-2.33 2.175-3.73.699-1.397-.699-3.378-1.282-4.466-.543-1.087-1.32-.932-3.301-.31m78.573-7.613c-2.175 0-2.602 5.438-4.428 6.991-1.825 1.554-2.02 2.292-.854 3.496s3.301-.738 4.777-1.71c1.437-.97 2.486-4.155 2.486-5.514 0-1.36.194-3.263-1.981-3.263m-87.195-9.71c0 1.088.543 3.612 1.281 4.234s1.282 2.02 0 2.447c-1.281.427-2.252 4.31-3.379 4.31-1.126 0-1.786.39-2.68 2.875-.893 2.486-2.524 4-3.767 4s-.855-1.709 0-3.262c.854-1.554.466-4.117.66-5.399s1.593-2.952 1.593-4.389-.583-2.68 1.514-3.728c2.098-1.05 4.778-2.176 4.778-1.088m175.089 9.865c0 1.515 2.059 2.253 2.874 2.253.816 0 3.768-3.185 2.292-3.185s-5.166-.544-5.166.932m4.622-10.875c-1.709.855-1.67 3.34-3.457 3.34s-2.485-3.262-3.146 0c-.699 3.263 3.263 5.438 4.894 4.35 1.631-1.087 2.719-1.942 2.719-3.145 0-1.205.738-5.36-1.01-4.545m-16.74 1.826c2.253 0 3.768 3.34 2.991 3.34s-2.33 1.087-4.467 1.087-3.068-.505-4.894 0c-1.825.505-2.912-2.757 0-3.845 2.913-1.087 4.118-.582 6.37-.582" fill="#1c1511"/><path d="M68.239 78.947c8.234 1.981 13.943 9.866 13.438 18.643-.544 8.429-7.34 15.42-15.924 16.313-8.428.893-16.274-4.466-18.604-12.895.893-.349 1.786-.893 2.874-1.437 1.592 5.011 4.66 8.623 9.477 10.215 6.098 2.136 12.7-.194 16.468-5.554 3.573-5.01 3.224-12.001-.7-16.856-4.116-5.01-10.758-6.992-16.662-4.312-2.874 1.437-5.554 3.224-8.04 5.01-6.796 5.011-14.487 7.186-22.915 6.099-3.224-.35-5.36-1.632-6.447-5.205 7.535 2.874 14.681 2.874 21.672-.35 2.525-1.242 4.661-2.68 6.992-4.466 5.476-4.117 11.224-6.991 18.37-5.205m12.545-.427c7.73 7.34 9.71 19.342 4.855 28.858-1.631 3.03-4.505 3.418-7.185 4.311 10.409-10.758 8.078-27.42-6.448-34.917 3.38-.582 6.06-.738 8.778 1.748M48.12 110.058c-2.525 1.437-4.311-.699-6.292-1.631 2.136-.156 5.01-2.836 6.292 1.631m26.683-18.565c2.33 5.903-.544 12.739-6.254 15.069s-12.001-.543-14.681-6.097c-1.243-2.525-.194-3.418 2.136-4.467.544 1.437.7 2.874 1.437 3.962 2.136 3.767 6.603 5.01 10.565 3.068 3.767-1.981 5.204-6.447 3.418-10.215-1.787-3.767-6.254-5.748-10.215-3.962-2.68 1.243-5.205 3.224-7.69 5.01-6.098 4.312-12.701 6.448-20.042 6.798-2.874.194-4.466-1.088-5.71-3.224 3.574-.194 6.992-.194 10.216-.7 6.097-.892 11.263-3.767 16.118-7.534 1.787-1.437 3.923-2.874 6.098-3.767 5.67-2.37 12.273.466 14.604 6.059m38.529-32.626c2.33 8.234-1.787 17.4-9.477 20.974-2.68 1.243-2.68 1.243-3.923-1.437 2.525-1.787 4.816-3.03 6.797-4.855 4.816-5.01 5.01-13.09.699-18.488-4.467-5.554-12.351-6.991-18.449-3.573-6.098 3.573-8.778 10.952-6.098 17.4 1.088 2.68 2.874 5.36 4.661 7.729 5.71 7.185 7.69 15.42 6.642 24.391-.35 3.03-2.33 4.467-5.01 5.904.543-2.33 1.087-4.117 1.436-6.292 1.438-8.428-.699-15.77-6.097-22.217-3.574-4.466-6.254-9.127-6.098-15.225.194-8.622 6.99-15.963 15.769-17.05 8.428-1.049 16.856 4.505 19.148 12.74m-69.368 43.306 1.087 2.68c-5.01 2.525-6.99 2.525-10.603-.893a268 268 0 0 1 9.516-1.787m20.43-10.758a4.79 4.79 0 0 1 4.816 4.816c0 2.68-1.981 4.816-4.816 4.816a4.79 4.79 0 0 1-4.817-4.816 4.79 4.79 0 0 1 4.817-4.816m42.801-32.043c2.33 5.554.194 11.846-5.205 14.526-3.573 1.631-3.767 1.631-5.709-1.786 5.709-1.438 8.04-3.962 8.04-8.429 0-3.223-1.593-5.554-4.467-6.99-3.03-1.438-5.903-1.088-8.428 1.242-2.486 2.136-3.573 5.01-2.33 8.079.893 2.33 2.33 4.466 3.922 6.641 4.817 6.448 7.691 13.633 8.235 21.712.194 2.874-.894 4.855-3.418 6.447 0-2.524.194-4.855 0-7.185-.544-6.991-3.224-13.09-7.341-18.643-1.787-2.525-3.573-5.205-4.467-8.079-1.98-5.399 1.437-11.652 6.797-13.633 5.943-1.98 12.041.544 14.371 6.098M64.394 94.64c-.894 0-1.593.699-1.593 1.592s.7 1.592 1.593 1.592c.699 0 1.437-.699 1.592-1.592 0-.893-.7-1.592-1.592-1.592m40.432-12.352c2.68 5.205 2.524 7.535-.544 10.914-.544-2.874-1.243-5.748-1.631-8.428-.156-.699 1.281-1.592 2.175-2.486m-53.832-10.02c1.087 3.923.699 5.904-1.981 8.583-7.34 7.535-19.031 9.477-28.198 4.661-3.03-1.592-4.117-3.224-4.466-7.146 12.35 11.108 28.353 6.447 34.645-6.098m59.036 7.34c.35.195.699.35.894.35l-.233.855c-.466 1.709-.933 3.418-1.554 5.243-2.175-3.768-1.981-4.855.893-6.447m-71.154-58.57c-3.768 10.953-2.136 20.469 5.01 29.052 6.797 8.079 7.34 17.4 1.981 24.741-4.311 5.904-12.351 8.429-19.497 6.098-6.992-2.136-12.002-8.778-12.352-16.313-.35-7.185 4.312-14.331 10.914-17.05 1.981-.7 2.137-.544 3.03 2.33-.7.35-1.593.7-2.33 1.088-7.147 3.223-10.215 11.652-7.147 18.837 3.03 6.991 11.652 10.409 18.449 7.34 7.34-3.223 10.914-11.457 7.69-18.642-.893-2.68-2.68-5.205-4.466-7.73-5.4-6.952-7.535-14.875-6.487-23.653.389-3.224 1.981-5.205 5.205-6.098m-8.079 6.215v3.961c-.35 7.885 2.33 14.876 6.991 21.362 1.787 2.33 3.574 4.855 4.661 7.73 2.486 5.747-.544 12-6.253 14.525-5.554 2.33-12.002-.194-14.487-5.748-2.486-5.399-.194-12.001 5.01-14.876 3.03-1.98 3.767-1.786 5.36 1.437-1.593.544-3.03.894-4.311 1.787-3.574 2.33-4.661 6.797-2.486 10.565 1.98 3.573 6.603 5.01 10.37 3.223 3.768-1.98 5.554-6.292 3.573-10.215-1.281-2.718-3.068-5.049-4.855-7.38-4.466-6.097-6.641-12.894-7.146-20.429-.194-2.874 1.049-4.311 3.573-5.942m65.64 31.77c2.68 0 5.01 2.137 5.01 4.817 0 2.524-2.136 5.01-4.816 5.01s-5.01-2.136-5.01-4.816 2.135-5.01 4.815-5.01m-64.28.156c2.524 0 4.816 2.33 5.01 4.816-.194 2.68-2.33 4.816-5.01 4.816a4.79 4.79 0 0 1-4.816-4.816 4.79 4.79 0 0 1 4.816-4.816m64.474 3.224c-.894 0-1.593.699-1.593 1.592s.7 1.592 1.593 1.592 1.592-.699 1.592-1.592-.7-1.592-1.592-1.592m-64.669 0c-.893 0-1.592.699-1.592 1.592s.7 1.592 1.592 1.592c.894 0 1.593-.699 1.593-1.592s-.7-1.592-1.593-1.592M107.7 42.516c2.525 1.242 3.068 2.33 3.962 6.99-10.759-10.408-27.654-7.884-34.84 6.099-.699-3.224-.543-5.749 1.632-8.234 7.535-7.885 19.73-10.06 29.246-4.855m-58.337-26.14c-4.661 5.554-7.186 11.808-5.749 19.187 1.437 7.186 5.749 12.002 12.74 15.42-4.117.893-6.991.35-9.71-2.525-7.34-7.69-8.972-19.342-3.768-28.664 1.476-2.718 3.962-2.913 6.487-3.418m15.652-2.33c7.69.544 14.138 5.554 15.924 12.895-.893.35-1.786.699-2.874 1.243-1.592-4.661-4.311-7.885-8.583-9.866-5.71-2.33-12.546-.699-16.468 4.312-3.923 4.855-4.312 12.001-.7 17.05 3.768 5.399 10.565 7.73 16.274 5.399 2.874-1.243 5.71-2.874 8.234-4.855 7.69-5.904 16.274-8.079 25.596-6.292 1.786.35 3.223 2.33 5.01 3.767-.35 0-.544.195-.699.35-4.117-.35-8.428-1.087-12.545-1.087-5.71 0-10.759 2.524-15.225 6.097-4.661 3.768-9.672 6.642-15.925 6.292-9.826-.505-17.361-8.933-16.623-18.604.699-10.06 8.778-17.4 18.604-16.701M19.029 41.273c1.98 4.855 1.98 5.01-1.088 6.641-.35 0-.699-.194-.893-.194.544-1.98 1.087-3.962 1.98-6.447m4.855-6.836c.543 3.224 1.087 6.253 1.786 9.477-.893.35-1.786.544-2.68.893-2.718-4.272-2.524-6.758.894-10.37m50.919-7.185c1.087 2.524.893 3.068-2.33 4.466-.544-3.068-1.593-5.554-4.467-7.185-3.224-1.632-6.992-1.088-9.477 1.631-2.33 2.525-2.68 6.447-.894 9.322 1.787 3.068 5.555 4.66 8.934 3.418 2.485-.894 4.66-2.525 6.797-3.962 6.447-4.855 13.438-7.535 21.478-8.234 2.68-.194 4.467 1.087 6.253 3.767-10.914-1.243-19.847 2.136-27.926 8.778-3.573 3.068-7.69 4.66-12.506 3.068-5.205-1.786-8.04-6.292-7.496-12.001.35-4.855 4.311-8.972 9.321-9.865 5.166-.894 10.332 1.98 12.313 6.797m-10.604-.272c2.68-.195 4.817 1.98 4.817 4.816.194 2.874-1.981 5.01-4.661 5.01-2.874 0-5.01-2.136-5.01-4.816.038-2.874 2.174-5.01 4.854-5.01m.195 2.68c-.894 0-1.593.699-1.593 1.592s.7 1.592 1.593 1.592 1.592-.699 1.592-1.592-.7-1.592-1.592-1.592m29.13-5.943a165 165 0 0 1-9.516 1.787c-.35-.894-.7-1.632-.894-2.525 3.923-2.874 7.186-2.68 10.41.738M80.24 16.881c1.981.7 3.962 1.243 6.448 1.981-4.661 1.981-5.01 1.787-6.836-.893.194-.35.194-.7.388-1.088" fill="#fe0316"/></svg>