<svg width="128" height="128" fill="none" xmlns="http://www.w3.org/2000/svg"><path d="M99.626 24.369c2.575.812 4.262 3.205 4.339 6.777.078 3.327 0 7.244 0 10.972 0 7.556.011 14.744.011 22.044-.033 7.222.011 14.722-.022 22.111.022 3.594.022 7.545.011 10.894-.222 3.639-1.865 5.631-4.739 6.443-.999.3-1.975.345-3.219.39-1.331 0-2.697-.012-4.028-.012-1.343-.022-2.72.012-4.162 0V75.557c-.056-5.052.11-9.726-.09-13.943-.399-4.162-1.564-7.767-3.45-10.805-3.552-5.675-9.612-10.004-17.692-10.716-8.524-.746-15.017 2.87-19.378 6.855-.3.277-.677.767-.933.645V24.058c15.46-.012 31.576-.012 46.98 0 2.232 0 4.585-.257 6.372.31M36.01 24.02c1.33.022 2.715 0 4.155 0v28.428c.056 5.052-.122 9.725.078 13.942.41 4.161 1.562 7.778 3.457 10.804 3.534 5.675 9.584 10.014 17.66 10.726 8.51.745 14.992-2.87 19.346-6.854.3-.278.676-.779.93-.645v23.532h-15.6c-10.48-.001-21.047-.003-31.3-.011-2.227 0-4.587.256-6.37-.311-2.56-.813-4.244-3.194-4.333-6.776-.077-3.316 0-7.233 0-10.971v-22.03c.022-7.233-.022-14.732.011-22.12a1817 1817 0 0 1-.01-10.893c.232-3.628 1.86-5.63 4.73-6.443 1.009-.3 1.972-.333 3.213-.378zm34.661 31.79a1.65 1.65 0 0 1 1.641 1.643v13.093a1.65 1.65 0 0 1-1.64 1.643H57.63A1.64 1.64 0 0 1 56 70.546V57.453a1.64 1.64 0 0 1 1.63-1.642z" fill="#00a0e8"/></svg>