<svg width="128" height="128" fill="none" xmlns="http://www.w3.org/2000/svg"><path d="M60.1 106.501v-.05c-2.05-.15-3.9-.5-5.7-.9-1.65-.45-3.35-.9-4.75-1.4-.95-.4-1.9-.75-2.85-1.1-1.9-.9-3.7-1.9-5.4-2.9-2.5-1.6-4.8-3.4-6.75-5.25-2.3-2.3-4.15-4.55-5.9-6.95-.45-.75-.9-1.5-1.4-2.2-1.15-2-2.15-4.05-2.95-6-.8-2.15-1.5-4.35-1.95-6.35l-.6-3c-.2-1.5-.35-3.1-.4-4.45-.05-1.85.05-3.8.1-5.5.1-.7.15-1.3.2-1.95.1-.85.25-1.75.45-2.6.25-1.2.55-2.35.8-3.5.55-1.7 1.15-3.3 1.7-4.85.35-.8.7-1.55 1.05-2.3.85-1.65 1.75-3.15 2.7-4.7.75-1.15 1.6-2.2 2.4-3.3.6-.7 1.2-1.4 1.8-2.05 1-1 2-2 3.05-3 1-.8 1.95-1.65 3-2.45 1.65-1.15 3.3-2.2 5.15-3.25 2.1-1.05 4.25-2 6.55-2.8.95-.3 1.9-.6 2.85-.85 1.35-.3 2.7-.55 4.05-.8l3.6-.45v11.8c-1.2.1-2.35.35-3.4.5-1.05.3-2.1.6-3.1.85-1.45.5-2.7 1-4.1 1.65-2.2 1.1-4.05 2.45-5.95 3.9-.5.4-.95.8-1.4 1.2-.85.9-1.7 1.8-2.5 2.7-.6.75-1.2 1.55-1.75 2.3-.45.65-.9 1.4-1.35 2.1-1.35 2.4-2.4 4.95-3.15 7.7-.2.85-.4 1.75-.55 2.65-.25 1.85-.4 3.8-.4 5.8.05.8.1 1.55.15 2.35.05.7.15 1.45.25 2.15.35 1.7.8 3.45 1.4 5.35.55 1.4 1.15 2.8 2 4.4.4.7.85 1.45 1.3 2.2.85 1.1 1.7 2.2 2.5 3.3.85.85 1.75 1.75 2.65 2.6 1.65 1.45 3.55 2.8 5.75 4.05 0-13.75.05-27.4.05-41.15.1-.2.15-.45.2-.65.55-1 1.15-1.5 2.3-1.8 5.1-.05 10.25-.05 15.35-.05 0-8.65.05-17.3.05-25.95 2.75.25 5.45.75 8.35 1.5 1.15.35 2.3.75 3.45 1.1 1.6.6 3.3 1.45 5.05 2.3 2.35 1.3 4.55 2.75 6.85 4.55.45.4.9.8 1.4 1.2.6.6 1.25 1.2 1.85 1.8.55.6 1.1 1.15 1.65 1.8 1.6 1.9 3.15 4 4.6 6.3l1.8 3.3c.7 1.55 1.45 3.3 2.1 5.15 1.2 3.85 1.95 7.85 2.2 12.05v3c-.05.9-.15 1.85-.2 2.7-.2 1.65-.45 3.4-.85 5.25-.6 2.35-1.3 4.7-2.25 7.05-.4.8-.75 1.65-1.1 2.5-.65 1.15-1.35 2.35-2 3.55-1 1.4-2 2.8-2.95 4.15-.7.8-1.35 1.55-2 2.35-.85.85-1.75 1.7-2.65 2.6-2.25 1.9-4.75 3.8-7.3 5.35-.8.4-1.55.8-2.3 1.25-3.35 1.6-7.05 2.95-10.65 3.65-1.4.2-3.15.6-4.35.6v.05h-.8v-11.75c1.85-.2 3.6-.6 5.6-1.1 1.45-.45 2.95-1.05 4.45-1.7l2.25-1.2c2.05-1.25 4-2.75 5.85-4.35.85-.9 1.75-1.75 2.45-2.65 1.3-1.75 2.65-3.7 3.65-5.6.65-1.3 1.15-2.65 1.7-3.9.45-1.65.9-3.25 1.25-4.8.1-.65.15-1.3.3-1.9.15-2.35.15-4.6.05-6.75-.25-2.25-.8-4.5-1.4-6.5-.4-1-.75-1.95-1.1-2.9-.4-.75-.75-1.55-1.15-2.3-.9-1.55-1.95-3.05-2.85-4.25-1.15-1.3-2.3-2.55-3.3-3.6a33 33 0 0 1-2-1.7c-1.4-1-2.7-1.85-4.05-2.65-.05 13.65-.05 27.3-.05 40.95-.15 1.05-.7 1.75-1.55 2.35-.4.1-.75.25-1.1.35-5.05 0-10.15 0-15.2.05v25.75zm-.6-37.5H69v-9.5h-9.5z" fill="#c00415"/></svg>