<svg width="477" height="128" fill="none" xmlns="http://www.w3.org/2000/svg"><path d="M169.86 104.154v-14.5a.39.39 0 0 1 .39-.39h5.571q1.77 0 2.64.151.87.15 1.556.63.687.48 1.145 1.278.458.796.458 1.787 0 1.073-.565 1.97a3.5 3.5 0 0 1-1.531 1.344q1.363.406 2.096 1.386.732.98.732 2.304 0 1.042-.473 2.027a4.05 4.05 0 0 1-1.292 1.574q-.818.59-2.019.724l-.147.014q-.856.072-3.485.091h-4.685a.39.39 0 0 1-.391-.391zm3.186-12.316v2.857a.38.38 0 0 0 .115.276.4.4 0 0 0 .276.114l1.866-.001q1.11-.008 1.421-.053.684-.096 1.075-.563.391-.465.391-1.229 0-.73-.338-1.185-.336-.457-1.002-.553l-.162-.016q-.53-.038-2.113-.038h-1.138a.39.39 0 0 0-.391.39m0 6.548v2.857a.39.39 0 0 0 .391.391h2.183q1.502 0 1.905-.084.62-.111 1.01-.543t.39-1.155q0-.612-.301-1.04-.3-.426-.868-.622-.568-.195-2.465-.195h-1.854a.4.4 0 0 0-.276.115.4.4 0 0 0-.115.276m33.373 6.158h-2.616a.39.39 0 0 1-.363-.247l-1.182-2.977a.39.39 0 0 0-.363-.247h-5.773a.39.39 0 0 0-.365.254l-1.113 2.964a.39.39 0 0 1-.365.253h-2.531a.4.4 0 0 1-.184-.045.4.4 0 0 1-.205-.304.4.4 0 0 1 .026-.187l5.832-14.499a.39.39 0 0 1 .363-.245h2.844c.158 0 .3.096.361.241l5.995 14.499a.39.39 0 0 1-.361.54m-5.479-6.348-1.607-4.305a.39.39 0 0 0-.733.003l-1.576 4.304a.39.39 0 0 0 .186.481.4.4 0 0 0 .181.044h3.183a.4.4 0 0 0 .322-.168.4.4 0 0 0 .044-.36m15.949 5.958v-14.5a.39.39 0 0 1 .39-.39h2.495a.39.39 0 0 1 .33.182l6.343 10.022v-9.813a.39.39 0 0 1 .39-.39h2.18a.39.39 0 0 1 .39.39v14.499a.39.39 0 0 1-.39.39h-2.593a.4.4 0 0 1-.329-.18l-6.246-9.784v9.574a.38.38 0 0 1-.115.276.4.4 0 0 1-.127.084.4.4 0 0 1-.149.03h-2.178a.4.4 0 0 1-.277-.114.4.4 0 0 1-.114-.276m24.983.079v-14.5c0-.215.176-.39.391-.39h2.405a.39.39 0 0 1 .391.39v5.416a.39.39 0 0 0 .674.269l5.647-5.953a.38.38 0 0 1 .284-.122h3.179a.39.39 0 0 1 .278.665l-6.842 6.917a.386.386 0 0 0 .014.563l7.066 6.456a.385.385 0 0 1 .101.429.39.39 0 0 1-.364.25h-2.973a.4.4 0 0 1-.253-.093l-5.819-4.943a.39.39 0 0 0-.507.001l-.349.3a.4.4 0 0 0-.136.297v4.047a.38.38 0 0 1-.115.276.4.4 0 0 1-.276.115h-2.405a.4.4 0 0 1-.276-.115.4.4 0 0 1-.114-.276zm38.211-7.504q0-2.258.623-3.79a7 7 0 0 1 1.27-2.026q.805-.898 1.763-1.33 1.274-.585 2.939-.585 3.014 0 4.823 2.026t1.809 5.634q0 3.578-1.795 5.599-1.796 2.02-4.8 2.02-3.042 0-4.837-2.01-1.795-2.011-1.795-5.539m2.939-.1q0 2.332 1.043 3.535 1.041 1.203 2.645 1.203t2.632-1.194 1.029-3.582q0-2.36-1.002-3.521-1-1.162-2.659-1.162t-2.673 1.176-1.015 3.544m22.78 7.525v-14.5a.39.39 0 0 1 .39-.39h8.567a.39.39 0 0 1 .391.39v1.804a.39.39 0 0 1-.39.39h-5.381a.39.39 0 0 0-.361.242.4.4 0 0 0-.03.15v2.835c0 .216.175.39.391.39h4.336a.39.39 0 0 1 .391.391v1.804a.39.39 0 0 1-.39.39h-4.337a.39.39 0 0 0-.391.39v5.713a.39.39 0 0 1-.39.39h-2.405a.39.39 0 0 1-.391-.39zm34.537-.267V89.388a.39.39 0 0 1 .39-.39H345q2.65 0 3.456.229 1.236.345 2.071 1.496.834 1.152.834 2.976 0 1.407-.481 2.366t-1.222 1.506-1.507.724q-.97.204-2.754.218h-1.763a.39.39 0 0 0-.39.391v4.983a.39.39 0 0 1-.391.39h-2.124a.39.39 0 0 1-.39-.39m2.939-11.588v2.857c0 .215.175.39.39.39h.978q1.478 0 1.977-.2a1.66 1.66 0 0 0 .781-.63q.283-.428.283-.998 0-.698-.397-1.154a1.7 1.7 0 0 0-1.005-.568q-.449-.088-1.8-.088h-.817a.4.4 0 0 0-.276.115.4.4 0 0 0-.085.127.4.4 0 0 0-.029.15m32.885 12.245h-2.617a.39.39 0 0 1-.363-.247l-1.182-2.977a.39.39 0 0 0-.363-.247h-5.772a.4.4 0 0 0-.222.07.4.4 0 0 0-.144.184l-1.111 2.964a.395.395 0 0 1-.366.253h-2.531a.4.4 0 0 1-.184-.045.4.4 0 0 1-.205-.304.4.4 0 0 1 .026-.187l5.832-14.499a.39.39 0 0 1 .362-.245h2.845c.157 0 .3.096.36.241l5.996 14.499a.39.39 0 0 1-.361.54m-5.479-6.348-1.608-4.305a.39.39 0 0 0-.733.003l-1.575 4.304a.387.387 0 0 0 .186.481q.084.044.18.044h3.184a.39.39 0 0 0 .366-.527m15.948 5.958v-14.5a.39.39 0 0 1 .39-.39h2.495a.39.39 0 0 1 .33.182l6.343 10.022v-9.813a.39.39 0 0 1 .391-.39h2.179a.39.39 0 0 1 .391.39v14.499a.38.38 0 0 1-.115.276.4.4 0 0 1-.127.084.4.4 0 0 1-.149.03h-2.592a.4.4 0 0 1-.329-.18l-6.247-9.784v9.574a.39.39 0 0 1-.39.39h-2.179a.39.39 0 0 1-.391-.39m30.262-14.89h2.223c.216 0 .391.176.391.39v9.12q0 1.866-.326 2.87a4.06 4.06 0 0 1-1.589 2.106q-1.15.794-3.034.794-2.21 0-3.402-1.245-.736-.77-1.139-3.249a.38.38 0 0 1 .074-.298.38.38 0 0 1 .266-.153l2.052-.237a.39.39 0 0 1 .432.339q.144 1.134.332 1.441.489.81 1.487.809 1.008 0 1.425-.578.418-.58.418-2.404v-9.314a.39.39 0 0 1 .39-.39m15.297 14.89v-14.5a.39.39 0 0 1 .39-.39h2.405a.39.39 0 0 1 .391.39v14.499a.39.39 0 0 1-.39.39h-2.406a.39.39 0 0 1-.39-.39zm16.166-.267V89.388a.39.39 0 0 1 .39-.39h2.495a.39.39 0 0 1 .33.182l6.344 10.022v-9.814a.39.39 0 0 1 .39-.39h2.179a.39.39 0 0 1 .39.39v14.499a.39.39 0 0 1-.39.39h-2.592a.4.4 0 0 1-.188-.047.4.4 0 0 1-.142-.132l-6.246-9.784v9.573a.39.39 0 0 1-.391.39h-2.178a.4.4 0 0 1-.15-.029.4.4 0 0 1-.211-.211.4.4 0 0 1-.03-.15" fill="#000"/><path d="M63.9 14c19.658 0 36.661 11.389 44.795 27.94H74.057L63.901 31.765 31.729 64l32.172 32.236L79.194 80.91l31.681.001C103.956 100.203 85.537 114 63.901 114 36.34 114 14 91.614 14 64s22.341-50 49.9-50m57.912 30.078-2.937 5.907h-5.556q-3.878 14.954-6.201 19.2c-2.754 5.032-4.956 8.722-11.127 8.722H72.054l2.218-5.169h17.557c6.08 0 7.518-2.35 10.246-7.977l.088-.18q1.913-3.957 4.343-14.596h-6.574q-1.902 7.72-3.94 11.446c-2.754 5.033-5.807 7.754-11.108 7.754H69.072l-4.612 9.268h-7.49l4.612-9.27 2.572-5.168 9.922-19.937zm-43.185 5.907-6.983 14.03h9.077c7.26 0 8.603-2.385 11.332-8.02l.083-.171q1.041-2.153 1.051-5.838z" fill="#e5332b"/><path d="M177.165 39.533V30.5h11.745c.239-.373.401-.86.565-1.603.018-.083.037-.17.058-.275l.057-.274c.116-.552.19-.85.295-1.134l.047-.128h5.69l.541 3.303 15.827.112v9.032h9.348v3.823h-9.349v5.528c0 2.816-2.142 4.233-6.285 4.233h-2.586l-1.676-4.446.3.018c1.761.105 3.825-.561 3.825-1.411v-3.922H193.5c.623.603 1.263 1.307 2.032 2.216.294.349 1.363 1.64 1.602 1.924.588.696 1.034 1.188 1.443 1.579l.159.152-4.775 3.949-.125-.105c-.132-.112-3.006-3.74-4.57-5.174q-.618-.568-1.28-1.082l-.194-.151 4.078-3.308h-8.241c-1.176 3.954-5.978 10.558-9.634 12.824l-.121.075-5.234-4.39.252-.138c2.769-1.5 7.074-5.96 8.255-8.37h-8.357v-3.824zm28.356-.064v-4.748h-12.032c2.409 1.006 4.538 2.095 6.41 3.27l.26.165-2.054 1.313zm-14.606-4.748h-7.042v4.749h9.809c-1.614-1.061-2.539-1.533-4.743-2.455l-.274-.114zm24.392 30.754h6.766v5.257h-54.752v-5.257h5.617V53.42h42.369zm-34.664.24h5.487v-7.718h-5.487zm11.572.164h5.485v-7.72h-5.486v7.72zm11.234 0h5.486v-7.72h-5.486zm5.486 0h.196l-.196.195zm47.605-15.22v-5.202h-7.005l-2.577-4.623.154-.1a8.8 8.8 0 0 0 2.071-1.839c.449-.545.837-1.123 1.358-1.993.121-.202.541-.913.575-.97.237-.4.428-.714.626-1.025.644-1.014 1.275-2.26 1.95-3.796q.492-1.125.949-2.264l.217-.538.21-.52c.165-.412.282-.698.394-.968l.061-.148 6.625 1.34-2.219 4.114h9.819v4.718h-11.861c-.32.698-.73 1.365-1.43 2.388-.806 1.178-.995 1.455-1.176 1.768h13.095v4.456h-5.425v5.202h6.42v4.587h-6.42v6.494a47 47 0 0 0 6.279-2.447l.211-.1 1.174 4.35-.131.074a54 54 0 0 1-1.983 1.08c-.434.226-.886.456-1.412.719-.444.222-2.028 1.004-2.078 1.03-.863.427-1.553.775-2.259 1.141a95 95 0 0 0-5.499 3.084l-.178.107-2.949-5.66.231-.066c1.498-.422 2.183-.944 2.183-1.604v-8.201h-7.571v-4.588zm80.443-.734v-4.468h-7.005l-2.545-4.567.065-.099q.591-.9 1.19-1.797c.119-.176.971-1.451 1.222-1.827q.936-1.4 1.848-2.816c1.929-3.005 3.254-5.371 4.147-7.53l.061-.148 6.665 1.348-2.983 4.106h10.543v4.718h-12.468c-.748 1.686-1.371 2.99-2.003 4.156h14.569v4.456h-6.894v4.468h6.419v4.587h-6.419v7.228a47.4 47.4 0 0 0 6.278-2.447l.212-.1 1.173 4.35-.131.074c-.634.364-1.28.715-1.982 1.08-.434.226-.887.456-1.412.719-.444.222-2.028 1.004-2.078 1.03-.864.427-1.554.775-2.259 1.141a95 95 0 0 0-5.499 3.084l-.178.107-2.949-5.66.231-.066c1.497-.422 2.182-.944 2.182-1.604v-8.936h-7.571v-4.587zm-55.368-19.096a21.3 21.3 0 0 0 1.186-3.69l.039-.169 6.596.66-.071.228c-.301.968-.733 1.911-1.335 2.971h11.158v16.909H288.72v2.993h12.69v12.9c0 3.169-1.884 4.79-5.543 4.79l-2.741.08-1.051-4.85.233-.008c2.021-.075 3.001-.437 3.001-.983v-7.43h-6.589v15.502h-6.28V55.23h-5.498v13.82h-6.041V50.732h11.539v-2.994h-9.993V30.83zm11.324 12.311v-2.546h-14.302v2.546zm-14.302-5.874h14.302V34.72h-14.302zm80.807 4.062v4.015h13.567v-4.015zm13.567 4.015h.195l-.195.195zm0-8.811v-4.015h-13.567v4.015zm1.695 22.83c1.058 2.154 5.04 5.432 8.561 7.137l.234.113-4.188 4.66-.135-.07c-8.111-4.276-13.802-12.634-15.876-21.791h-3.782v13.74l6.965-3.936v5.249l-.096.057q-4.43 2.605-11.135 6.155l-.174.092-2.73-5.274.241-.06c1.012-.249 1.454-.594 1.454-1.082v-36.63h24.81v21.69h-9.681c.522 1.96 1.299 3.776 2.314 5.39q3.456-1.626 6.746-4.504l.117-.103 4.237 3.083-.175.162c-.302.279-1.353 1.263-1.511 1.41-2.561 2.378-4.249 3.67-6.196 4.512m59.277-26.11v-4.797h26.837v4.796zm19.199 12.582v20.338c0 3.103-2.167 4.717-6.515 4.717h-5.499v-4.925l.207.013c1.716.11 2.8.103 3.645-.075 1.009-.213 1.503-.655 1.503-1.415V45.834h-16.212v-4.897h32.713v4.897zm-28.434-19.87.13-.122 4.931 4.44-.141.146c-.924.957-2.105 1.864-3.64 2.82-1.341.835-2.909 1.687-5.226 2.863-.455.232-5.169 2.589-6.745 3.397l-.151.077-3.301-4.642.197-.104c6.284-3.327 11.523-6.6 13.946-8.874m-1.149 21.517v23.217h-5.671v-18.46c-1.755 1.08-3.753 2.213-6.049 3.444l-.19.102-2.001-4.858.158-.084c5.804-3.049 11.797-8.742 15.415-14.1l.114-.17 4.954 3.643-.103.155c-1.299 1.96-3.627 4.39-6.627 7.11" fill="#000"/><path d="M167.514 77.674h295.312v3.125H167.514z" fill="#e5332b"/></svg>