<svg width="431" height="128" fill="none" xmlns="http://www.w3.org/2000/svg"><path d="M362.069 88.005c1.087 0 2.135.117 3.106.31h6.757v2.954h-3.068c.66.738 1.009 1.593 1.009 2.836v.272c0 4.275-3.339 6.14-7.843 6.14-1.126 0-2.213-.078-3.146-.389-.465.389-.737.505-.737 1.01 0 .972.544 1.322 1.786 1.322h5.514c3.805 0 6.485 1.36 6.485 5.051 0 3.73-3.029 6.489-10.057 6.489-6.252 0-9.242-1.787-9.242-4.624 0-.45.173-.906.473-1.33 1.111-1.079 3.629-.801 3.958.816.084 1.382 1.393 2.107 4.733 2.107 4.155 0 5.553-1.049 5.553-2.72 0-1.554-.699-2.02-3.107-2.02h-4.917a5 5 0 0 1-.43-.075l-.945-.32a2 2 0 0 0-.54-.183l-1.05-.355c-1.204-.427-2.097-1.515-2.097-2.914 0-1.36.893-2.176 2.33-3.109-1.515-.971-2.524-2.448-2.524-4.701v-.35c0-4.119 3.262-6.217 7.999-6.217m-73.309-6.761c3.495 0 5.397.66 6.873 1.437v3.73c-1.67-.699-3.844-1.32-6.795-1.32-2.796 0-4.349 1.165-4.349 3.302 0 2.099.777 2.992 3.417 3.73l2.485.778c4.193 1.204 6.717 2.953 6.717 7.694 0 5.051-3.067 8.198-9.513 8.198-3.494 0-6.135-.738-7.96-1.709v-3.77c2.136.933 4.659 1.633 7.572 1.633 3.572 0 5.087-1.477 5.087-3.886 0-2.215-.971-3.07-3.884-3.964l-2.523-.699c-3.767-1.05-6.058-3.07-6.058-7.577 0-4.508 2.913-7.577 8.931-7.577m113.362 6.761c4.62 0 7.3 1.787 7.3 5.945v14.377h-3.689v-.681h-.233c-.971 1.127-2.912 1.031-5.514 1.031-3.611 0-6.135-1.827-6.135-5.674 0-3.69 2.446-5.4 6.407-5.983l4.698-.544V94.96c0-2.72-1.203-3.342-4.582-3.342-1.941 0-5.319.55-6.523.823v-3.07c1.864-.738 5.669-1.366 8.271-1.366m-155.191-.04c5.979 0 9.435 3.653 9.435 10.026v.544c0 6.45-3.883 10.142-9.474 10.142-6.097 0-9.475-3.692-9.475-9.948v-.621c0-6.412 3.883-10.142 9.514-10.142m-68.574.04c4.621 0 7.3 1.787 7.3 5.945v14.377h-3.689v-.376q-3.145.726-5.747.726c-3.611 0-6.135-1.827-6.135-5.674 0-3.69 2.446-5.4 6.407-5.983l4.698-.544V94.96c0-2.72-1.203-3.342-4.581-3.342-1.942 0-5.32.555-6.524.827v-3.07c1.864-.738 5.669-1.37 8.271-1.37m147.512 0c4.621 0 7.3 1.787 7.3 5.945v14.377h-3.689v-.843c-.971 1.127-3.145 1.193-5.747 1.193-3.611 0-6.135-1.827-6.135-5.674 0-3.69 2.446-5.4 6.407-5.983l4.698-.544V94.96c0-2.72-1.204-3.342-4.581-3.342-1.942 0-5.32.555-6.524.827v-3.07c1.864-.738 5.669-1.37 8.271-1.37m52.77-8.083v10.103h.194c1.631-1.204 3.961-2.059 6.368-2.059 3.844 0 5.825 1.554 5.825 5.518v14.843h-4.504V94.533c0-2.02-.66-2.837-3.378-2.837-1.554 0-3.301.505-4.505 1.088v15.543h-4.465V79.922zm-177.965 8.044c3.844 0 5.825 1.554 5.825 5.518v14.843h-4.505V94.533c0-2.02-.66-2.837-3.378-2.837-1.553 0-3.3.505-4.504 1.088v15.543h-4.466V88.316h4.311v1.787h.155c1.708-1.243 4.155-2.137 6.562-2.137m14.241-8.044v28.405h-4.465V79.922zm12.465 8.432c-.276.332-3.459 4.692-5.386 7.35l-1.448 2.015c.327.474 6.184 8.871 7.202 10.398l.137.21h-4.932c-.26-.405-4.846-5.93-6.806-8.796l-1.227-1.812c.262-.46 5.7-6.382 7.271-8.603l.529-.762zm189.471-.038v20.011h-4.504V88.316zm-149.894-8.704c1.786 0 3.029.31 3.767.621v2.992a12 12 0 0 0-2.563-.271c-2.097 0-3.262.97-3.262 3.341v2.02h4.388v3.498h-4.388v16.514h-4.388V91.813h-2.873v-3.497h2.873v-2.487c0-4.313 2.68-6.217 6.446-6.217m36.571.31v10.103h.195c1.63-1.204 3.96-2.059 6.368-2.059 3.844 0 5.824 1.554 5.824 5.518v14.843h-4.504V94.533c0-2.02-.66-2.837-3.378-2.837-1.554 0-3.301.505-4.504 1.088v15.543h-4.466V79.922zm42.374 8.044c3.844 0 5.825 1.554 5.825 5.518v14.843h-4.505V94.533c0-2.02-.66-2.837-3.378-2.837-1.553 0-3.301.505-4.504 1.088v15.543h-4.466V88.316h4.31v1.787h.156c1.708-1.243 4.154-2.137 6.562-2.137m-187.766-6.295c6.135 0 8.776 2.487 8.776 6.722 0 2.798-1.165 4.819-4.349 5.829v.116c3.339.622 5.513 2.487 5.513 6.373 0 4.43-2.989 7.616-9.28 7.616h-9.979V81.671zm246.82 17.719-3.688.389c-1.981.155-3.029.971-3.029 2.991 0 1.905 1.281 2.759 3.106 2.759 1.437 0 2.873-.505 3.611-1.204zm-223.765 0-3.688.389c-1.981.155-3.029.971-3.029 2.991 0 1.905 1.281 2.759 3.106 2.759 1.437 0 2.874-.505 3.611-1.204zm147.512 0-3.689.389c-1.98.155-3.028.971-3.028 2.991 0 1.905 1.281 2.759 3.106 2.759 1.437 0 2.874-.505 3.611-1.204zm-81.85-8.043c-3.068 0-4.854 2.137-4.854 6.45v.932c0 5.168 2.175 6.567 4.97 6.567 2.99 0 4.737-2.059 4.737-6.372v-.972c0-5.207-2.135-6.606-4.853-6.606m-88.989 4.857h-4.31v8.548h4.582c3.223 0 4.931-1.399 4.931-4.313 0-3.07-1.824-4.235-5.203-4.235M362.03 90.84c-2.291 0-3.573 1.049-3.573 3.148v.466c0 2.331 1.36 3.186 3.573 3.186 2.291 0 3.533-.855 3.533-3.07v-.505c0-2.37-1.359-3.225-3.533-3.225m-204.554-5.634h-3.922v7.81h3.728c2.796 0 4.892-.933 4.892-3.963 0-2.876-1.631-3.847-4.698-3.847m259.414-4.274v4.08h-4.543v-4.08zm-74.048-61.666V44.38l-1.982 2.414h-10.926q1.727 6.51 3.155 8.621 2.041 0 6.409-6.239l.133-.19h6v2.691q-5.25 7.038-7.884 8.864 2.076 2.395 8.652 5.477l.245.114v5.05q-11.986-4.135-16.71-8.741-4.65-4.536-7.752-15.309l-.097-.338h-2.43v16.483l6.765-2.736v5.591q0 1.066-10.913 5.571l-.224.093h-2.392v-52.53zm-34.187 14.288v4.302h-4.649v9.058h6.507v4.648h-6.507v12.565l6.507-3.624v4.856q0 .76-8.685 6.173l-.196.123h-4.703V51.562h-6.558v-4.648h6.558v-9.058h-4.519v-4.302zm73.284 0q-4.854 8.003-7.061 9.684.01 2.545 0 28.417h-7.024V49.46h-6.679v-5.019q3.912-1.005 5.936-2.884t5.796-8.003zm34.952 1.264v5.307h-9.554V69.11l-3.047 2.545h-16.003v-6.421l2.758.898h8.278V40.125h-16.555v-5.307zM177.94 19.022v18.163h22.672v5.328H177.94v23.793h27.207v4.934h-55.548v-4.934h21.539V19.022zm53.781 29.675q-.944 7.243-2 11.272-1.056 4.028-3.911 11.271h-6.378q2.964-7.78 3.982-12.059 1.019-4.277 2.162-10.484zM270.4 30.684v13.161h6.043v5.463H270.4v9.63h3.187v5.68H270.4v5.473l-1.655 1.149h-17.948l-1.158-3.86h15.315v-2.762q-27.27-.138-29.926 0 .996-1.132 2.259-15.028l.026-.282h-3.694v-5.463h3.694l1.034-13.16zm-5.446 18.624h-22.113q-.567 8.36-.567 9.675 2.853.097 9.858 0 .395-1.4 0-2.425-.394-1.025-2.072-2.966h5.682q2.996 4.144 2.996 5.391 1.91.165 6.216 0zm0-13.556h-21.49l-.623 8.093h9.291q.395-1.361 0-2.386-.394-1.026-2.072-2.967h5.682q2.996 4.105 2.996 5.353 1.91.165 6.216 0zm-37.559-2.65q3.382 7.687 3.382 10.743-2.486.153-5.964-.038-.248-3.413-.954-5.315-.705-1.9-3.016-5.39zm108.144 1.716h-16.252v6.74h16.252zm46.4-17.73q-4.929 10.726-8.823 13.596c-3.893 2.87-6.983 4.134-8.584 4.134h-3.357v-4.134q5.524-2.455 7.524-4.731 2-2.278 4.417-8.866zm-78.432 0v5.602h6.623v4.305h-10.527Q293 32.33 291.186 32.33h-.878v-4.745q2.336-1.797 3.544-3.7 1.208-1.9 3.127-6.798h6.528m-55.187 0v4.192h25.267v5.474q-28.881-.081-30.876 0-.921 1.39-5.979 3.93h-3.085a84 84 0 0 1 0-4.323q2.87-1.408 9.064-9.274zm87.219 6.798h-16.252v6.798h16.252zM227.7 18.366q3.077 9.63 3.077 11.624-2.805.128-6.772 0-.212-2.98-.801-5.144-.588-2.164-2.361-6.48zm186.52 1.913v5.674h-29.795v-5.674zM20.113 113.041c-2.79-.133-5.183-2.527-5.316-5.321a1203 1203 0 0 1 0-87.6c.133-2.794 2.525-5.189 5.316-5.322a1200 1200 0 0 1 87.512 0c2.791.133 5.183 2.528 5.315 5.321 1.064 29.19 1.064 58.41 0 87.601-.132 2.794-2.524 5.188-5.315 5.321a1200 1200 0 0 1-87.512 0" fill="#0f469b"/><path d="M63.17 25.038c12.625 12.705 25.25 25.276 37.875 37.98q-38.373-9.579-75.751 0zm18.87 37.914-3.654.133c-18.34.664-30.167 3.325-21.994 9.046 9.834 6.85-6.844 10.842-10.034 11.773l16.811 16.961 37.876-37.98H82.041z" fill="#fff"/></svg>