<svg width="128" height="128" fill="none" xmlns="http://www.w3.org/2000/svg"><path d="M26.694 105.684c-2.371-.113-4.403-2.147-4.517-4.521a1023 1023 0 0 1 0-74.431c.114-2.374 2.146-4.409 4.517-4.522 24.777-.904 49.579-.904 74.356 0 2.372.113 4.404 2.148 4.517 4.522.903 24.802.903 49.629 0 74.431-.113 2.374-2.145 4.408-4.517 4.521-24.777.904-49.579.904-74.356 0" fill="#0f469b"/><path d="M63.28 30.913c10.726 10.795 21.453 21.476 32.18 32.27q-32.604-8.137-64.362 0zm16.033 32.214-3.105.113c-15.582.565-25.632 2.826-18.688 7.686 8.356 5.822-5.815 9.213-8.525 10.004L63.28 95.34l32.182-32.27H79.313z" fill="#fff"/></svg>