<svg width="414" height="128" fill="none" xmlns="http://www.w3.org/2000/svg"><path d="M135.093 85.274v18.959h9.043c2.095 0 3.749-.372 4.907-1.116 1.351-.902 2.04-2.309 2.04-4.221 0-1.275-.331-2.31-.965-3.054-.661-.77-1.626-1.274-2.922-1.513.992-.372 1.737-.877 2.261-1.567.523-.743.799-1.646.799-2.708 0-1.434-.524-2.576-1.544-3.425-1.102-.903-2.646-1.355-4.603-1.355zm4.664 3.386h3.435c.911 0 1.556.159 1.973.478.379.298.588.797.588 1.473 0 .737-.209 1.275-.588 1.613-.398.319-1.062.498-2.011.498h-3.397zm0 6.77h4.173q1.652 0 2.414.742c.488.494.742 1.29.742 2.415 0 1.098-.339 1.867-1.017 2.361-.529.384-1.271.576-2.203.576h-4.109zm21.76-10.833-7.769 18.958h3.557l1.85-4.752h8.508l1.849 4.752h3.557l-7.768-18.958zm-1.106 11.51 2.958-8.124h.105l2.933 8.125zm50.921-11.51-7.921 8.271v-8.27h-3.692v18.958h3.692v-5.855l2.25-2.257 6.628 8.112h4.752l-9.336-10.834 8.121-8.125zm27.349-.677c-2.847 0-5.073.926-6.677 2.832-1.553 1.8-2.304 4.128-2.304 7.012 0 2.859.751 5.187 2.304 6.987 1.604 1.852 3.83 2.804 6.677 2.804q4.231 0 6.678-2.778c1.553-1.773 2.329-4.102 2.329-7.013s-.776-5.266-2.329-7.039c-1.631-1.879-3.857-2.805-6.678-2.805m-.32 3.386c1.715 0 3.036.552 3.963 1.704.904 1.152 1.367 2.736 1.367 4.752s-.463 3.576-1.367 4.704c-.927 1.128-2.248 1.704-3.963 1.704s-3.059-.6-3.986-1.776c-.903-1.152-1.344-2.688-1.344-4.632 0-1.968.441-3.505 1.344-4.656.95-1.2 2.271-1.8 3.986-1.8m15.324-2.709v18.958h3.707v-7.713h8.405V92.51h-8.405v-4.58h8.951v-3.333zm27.982 0v3.333h6.129v15.625h3.732V87.93h5.462v-3.333zm19.987 0v18.958h3.998V84.597zm9.328 0v18.958h14.657v-3.332h-10.914v-4.38h9.836V92.51h-9.836v-4.58h10.467v-3.333zm19.321 0v18.958h13.324v-3.332h-9.579V84.597zm18.655 0v18.958h3.997V84.597zm9.327 0v18.958h3.958V90.372h.113l8.711 13.183h3.874V84.597h-3.986v12.32h-.113l-8.599-12.32zm-181.218 0v18.958h3.958V90.372h.112l8.712 13.183h3.874V84.597h-3.986v12.32h-.113l-8.599-12.32zm212.182 0c2.429 0 4.33.53 5.73 1.615 1.347 1.058 2.192 2.62 2.535 4.736h-3.116c-.264-1.217-.845-2.117-1.69-2.725-.871-.61-2.033-.9-3.459-.9-1.769 0-3.169.582-4.198 1.8-1.136 1.27-1.69 3.043-1.69 5.371 0 2.223.501 3.943 1.504 5.134q1.624 1.906 5.071 1.906a9.8 9.8 0 0 0 2.535-.318 8.8 8.8 0 0 0 2.033-.873v-3.89h-2.992v-2.647h6.081v7.992c-1.003.794-2.138 1.376-3.433 1.8-1.372.423-2.877.635-4.568.635-3.01 0-5.334-.953-6.997-2.858-1.558-1.773-2.324-4.075-2.324-6.88 0-2.832.766-5.16 2.324-6.987 1.637-1.958 3.855-2.91 6.654-2.91" fill="#000"/><path d="M84.374 79.101c.842-3.513 1.572-6.713 2.37-9.894 1.055-4.194 2.09-8.4 3.282-12.562.531-1.832-.205-2.357-1.796-2.357-5.091-.012-10.183.013-15.268-.025-2.028-.018-2.24 1.544-2.595 2.9-1.779 6.732-3.494 13.475-5.241 20.22-.469 1.805-.824 3.655-1.46 5.399-.842 2.331.13 2.819 2.233 2.813 9.16-.063 18.319-.032 27.484-.032h15.486c-.586 1.375-.88 2.394-1.416 3.269-10.201 16.725-24.988 25.625-44.673 25.15-19.573-.475-34.017-9.95-43.238-27.1-5.965-11.081-6.776-22.962-4.044-35.175.543-2.412 1.685-3.269 4.2-3.2 6.532.175 13.065.1 19.597.032 1.984-.02 2.54.58 1.984 2.568-2.807 10.05-5.528 20.131-8.28 30.206-.137.488-.236.988-.386 1.475-.6 1.9-.163 2.844 2.078 2.794 4.835-.106 9.67-.069 14.506 0 1.722.031 2.577-.594 3.038-2.306 2.87-10.65 5.897-21.263 8.717-31.931.568-2.157 1.584-2.838 3.706-2.825 11.71.075 23.416.05 35.127.037a3.557 3.557 0 0 0 3.636-3.718 3.56 3.56 0 0 0-.598-1.826c-.349-.543-1.422-.843-2.171-.856-3.394-.08-6.788-.019-10.183-.012l-65.655.025h-5.578c.749-1.55 1.11-2.457 1.59-3.294 13.166-22.888 42.54-31.519 65.95-19.381 20.433 10.587 30.965 33.169 26.011 55.75-.892 4.043-.892 4.056-4.96 4.062q-10.182.008-20.365-.012c-.898 0-1.797-.107-3.082-.188" fill="#d61919"/><path d="M249.594 52.459c1.726 2.166 1.567 2.701 0 4.565-1.567 1.863-6.455 4.588-7.471 6.92s.999 3.008 2.648 3.008c1.648 0 1.352 3.074.676 5.43-.676 2.359.08 4.716-3.324 2.359-1.21-.838-2.681-3.031-4.268-4.689-2.879-3.006-6.266-6.663-5.393-7.233 1.357-.883 4.154 2.68 6.256.883s6.099-6.678 4.358-6.678-2.326-.549-4.358.563c-2.031 1.11-4.32 1.11-5.676 2.81-1.356 1.698-5.787 1.368-6.621 0l-.061-.101c-.798-1.312-1.269-2.178 2.048-3.272 3.4-1.122 8.166-1.011 10.31-2.4 2.145-1.387 9.15-4.332 10.876-2.166M396.32 36.913c1.748 0 1.812 2.752 3.362 4.02 1.551 1.27 1.202 3.896 0 3.896s-2.797 0-4.257-.76-5.224-.01-6.289 2.627c-1.067 2.637 1.212 24.554-.561 25.521s-1.059 2.87-4.026 2.87c-2.965 0-1.999-2.06-4.535-2.06s-7.262-4.006-9.285-5.363c-2.023-1.356-.523-1.677 2.023-1.677s5.861 1.677 7.262 1.012c1.402-.665.902-1.012 1.926-1.012s1.238-6.77 0-10.194-1.024-7.379-1.024-9.171c0-1.793-2.808-1.754-6.545-1.11-3.737.642-3.737 2.902-6.31 2.902s-1.984-2.293-3.416-3.585c-1.433-1.291 5.671-3.208 8.107-3.895 2.436-.688 9.93-1.837 13.504-1.837s8.317-2.184 10.065-2.184zM172.06 23.224c.784-2.745 6.085.73 5.065 2.313s-.813 11.513 0 11.513c.814 0 3.552-1.97 5.821-1.97 2.27 0 4.094 5.818 1.587 5.818s-4.906 1.522-7.408 1.522c-2.501 0-.813 2.629-.813 4.034s7.646-1.627 10.519-.928c2.873.698 2.866 4.225 1.303 3.497-1.563-.73-7.425 2.745-9.989 2.745-2.563 0-3.055 2.005-1.833 4.75s9.176 8.047 11.822 10.245 9.375 3.508 11.124 4.99c1.748 1.483-6.351 2.336-11.124 1.506s-9.668-7.494-11.822-10.44-3.948-2.9-4.686.534c-.739 3.434-3.946 8.219-6.573 9.906s-11.466 2.513-6.846-.751c4.621-3.265 8.567-10.008 10.427-14.127 1.861-4.119.864-2.905.864-3.756 0-.577-3.474 0-6.412.93-1.196.38-2.667-1.885-3.449-2.504-3.305-2.613 3.747-3.084 6.696-3.638 2.949-.555 4.554-1.542 5.292-2.684.739-1.142.507-2.84-.303-3.62-.811-.779-4.377.224-6.269 1.1s-3.1 3.552-4.199 2.245 1.099-3.583 2.232-6.703c1.134-3.122 0-4.657 0-6.782s3.717-1.319 5.548 0q1.833 1.32 0 4.908h3.426c1.523 0-.784-11.907 0-14.653m147.946 3.593c2.242 3.268 3.545 3.372 1.772 6.344-1.772 2.971-3.653 5.617-3.653 7.132s1.005 3.62-1.793 5.376-2.798 3.134-4.671 3.471-2.547-.235-2.547 1.315-2.464 2.931 0 2.931 2.547.505 4.42-.389c1.874-.894 8.127-5.563 10.095-4.901s2.662 2.267 0 2.929c-2.661.663-7.692 3.6-6.598 3.6s1.545 2.093 4.747 3.3 5.935 1.83 9.451 3.057 9.225 3.384 6.539 5.132-5.154 4.235-8.575 2.759-8.289-7.891-10.463-7.891-2.748 2.24-5.196 6.547-4.374 6.832-7.903 6.832-1.934-6.386-2.731-9.883-.176-17.669-.797-20.653c-.623-2.984.797-4.154.797-7.693s1.555-4.952 3.933-6.047 4.966-2.193 7.311-3.268c2.346-1.074 3.62-3.268 5.862 0M292.029 23.4c0-2.604 4.139 0 5.839 1.751s.365 3.811-1.7 5.19-.643 2.584 1.7 2.584 5.603-.595 3.622 2.708-5.359 3.303-7.059 2.688-2.507-1.528-4.556 0-3.157 4.789-1.189 5.599c1.969.81 5.104-1.624 6.839-1.624s2.343 2.434 2.343 3.984-1.7 2.033-3.437 2.033c-1.738 0-2.402 3.375-.887 3.375 1.514 0 1.472-1.012 2.624-1.012 1.151 0 2.621 0 2.621 1.636s-5.773 6.064-6.76 6.803-.939 3.704 0 4.587 3.097-1.293 4.798-3.244c1.7-1.95 1.962.086 1.962 1.805s-5.943 7.746-7.699 9.385-3.524.859-4.372-.835.848-7.994.848-9.374-1.463-.895-4.812 0-4.567-2.393-4.567-4.281c0-1.889 3.756-.586 6.819-1.49s2.56-3.16 2.56-4.992c0-1.83-1.463-2.363-3.61-2.363s-1.382.942-2.013 2.363-5.922 2.872-8.049 2.872 6.513-9.206 10.062-14.339c3.55-5.133 8.073-13.205 8.073-15.81M152.01 26.074c.888-1.165 2.539-.302 4.665 1.34s2.498 3.658 1.001 3.658-2.529 1.7-1.716 3.022c.813 1.323 4.194-.16 5.067 1.61s-1.619 3.385-2.504 4.168c-.886.783-2.563-.783-4.712-.783s-3.489 2.663-4.981 3.506-.638 3.826 1.492 3.826 1.688-2.297 4.508-2.313c2.819-.016 3.693.016 3.693 2.313 0 2.296-4.712 3.434-5.558 4.26-.846.827.846 2.961 1.865 2.961s3.693-.906 3.693.983c0 1.888-3.693 3.178-4.712 3.898s-1.023 6.042 0 6.672 2.149-.63 3.865-1.852 3.425-3.989 4.207-2.4c.782 1.59-5.208 7.874-7.053 10.053-1.845 2.178-3.906 1.362-5.243 1.362s.144-7.793-.757-9.014c-.9-1.222-1.451 0-4.554 0-3.102 0-4.417-.742-5.482-2.401-1.038-1.615 2.204-1.591 3.643-1.59h.112c1.373 0 4.171-2.22 5.643-2.923 1.473-.705.584-4.696-1.473-5.748s-3.569-1.662-4.17-1.662c-.6 0-2.671 3.716-5.382 5.605-2.711 1.888-5.013-1.889-2.658-1.889s8.708-11.008 12.211-15.704c3.502-4.696 4.403-9.793 5.291-10.958zm209.621 13.023c2.504 1.167 3.798 3.883 2.504 3.883s-2.504.173-2.504.797v10.218c0 4.218-.697 5.897 0 7.794.698 1.897 1.88 4.293 0 5.21s-3.989.857-5.282 0c-1.292-.856-.395-11.463-.844-13.004s-1.093-1.132-2.42 1.327c-1.327 2.46-3.713 3.992-5.743 3.992-2.029 0-3.999-.15-2-2.735s6.506-5.475 7.743-8.381 1.202-1.335 3.264-5.218c2.063-3.883 2.779-5.05 5.282-3.883m-54.798 18.001c-2.035.649-.846 5.721-.846 8.02 0 2.3 3.397 2.314 4.652.996s2.495-4.633 4.079-5.744-.501-2.539-1.584-3.272c-1.082-.733-4.267-.649-6.301 0M235.467 23.4c1.925 0 2.41.621 5.614 2.137s.659 1.604-.95 2.567-1.305 5.446.95 5.446 11.276 10.639 14.913 13.675c3.638 3.035 9.88 2.828 12.484 5.123 2.553 2.25-7.255 2.277-10.493 2.277h-.19c-3.023 0-6.157-3.219-10.14-9.115-3.983-5.895-7.597-8.57-9.778-8.57s-13.402 18.425-15.727 22.465-7.775 3.373-10.044 3.373c-2.268 0-2.214-3.373 0-3.373s6.562-4.78 8.326-7.057 1.844-2.295 0-2.295-6.509 3.791-7.545 4.572c-1.036.78-2.996 1.743-4.22 1.743-1.225 0-4.668-13.21-4.668-14.136s4.124-.327 5.893.926c1.768 1.254-.288 6.895 1.354 6.895 1.641 0 .861-11.914.861-16.504 0-4.589-.081-4.207 2.294-4.207s4.209 3.041 3.246 4.208c-.963 1.166 0 11.96 0 13.675s1.146 0 1.98 0-.834-7.485 0-9.086c.835-1.6 2.523 0 4.374 0s0 2.14 0 2.14v5.231c0 2.352 1.591 1.714 2.44 0 .848-1.714 6.812-12.87 6.812-16.168 0-3.3.288-5.942 2.214-5.942m.981 19.71c2.119 0 2.413 2.298 4.144 3.017 1.731.72 5.616 1.902 3.625 3.147s-7.739 1.736-9.085 0c-1.345-1.736-.803-6.164 1.316-6.164m76.374-10.971c-1.369 0-2.637 3.069-4.007 3.069s-2.987 4.242.616 2.958 3.603 1.647 1.984 2.41c-1.618.763-1.718 3.355-3.145 3.876s-1.626 3.024 1.16 1.793c2.787-1.232 3.065-3.135 4.35-3.135s.854-.672 1.069-2.817c.216-2.145 1.881-6.287.953-7.641-.929-1.355-1.612-.513-2.98-.513m48.476-6.144c1.282.897 6.541 2.43 4.176 4.364-2.365 1.935-4.822 4.995-6.439 6.867s-2.428 3.708-4.668 3.708c-2.239 0-4.421-2.086-3.33-2.897s7.073-8.435 7.073-10.1 1.906-2.84 3.188-1.942m16.085 2.876c.683-1.388 1.623-1.532 3.971-.822s3.53 0 5.964 0c2.432 0 1.721 2.466 1.721 5.26 0 2.795-1.757 2.782-3.578 1.366s-2.227 0-4.723 0-4.039-4.416-3.355-5.804" fill="#000"/></svg>