<svg width="128" height="128" fill="none" xmlns="http://www.w3.org/2000/svg"><path d="M67.231 108c2.512-2.493 5.296-3.88 7.586-5.294l15.074-9.448c6.575-4.077 7.076-6.747 7.084-10.53-.01-7.377-10.914-11.645-29.728-15.301z" fill="url(#paint0_linear_63_11488)"/><path d="M31 51.13c0 6.33 3.561 8.903 8.442 10.618L88.51 76.85c3.034.923 8.442 2.77 8.442 5.936v-31.79c0-3.825-.528-8.573-6.595-10.618L39.442 24.353C36.012 23.298 32.912 21.649 31 20z" fill="url(#paint1_linear_63_11488)"/><defs><linearGradient id="paint0_linear_63_11488" x1="68.076" y1="69.394" x2="86.6" y2="102.442" gradientUnits="userSpaceOnUse"><stop stop-color="#e60012"/><stop offset=".49" stop-color="#af4280"/><stop offset="1" stop-color="#1d2088"/></linearGradient><linearGradient id="paint1_linear_63_11488" x1="96.952" y1="51.394" x2="31" y2="51.394" gradientUnits="userSpaceOnUse"><stop stop-color="#ffe200"/><stop offset="1" stop-color="#e60012"/></linearGradient></defs></svg>