<svg width="579" height="128" fill="none" xmlns="http://www.w3.org/2000/svg"><path fill-rule="evenodd" clip-rule="evenodd" d="m535.041 45.58 1.57 2.464 5.366-.58h7.694v19.671q0 1.112-1.165 1.113h-5.164q-.606 0-.606.385 0 .434.76.533 3.238.675 4.25 3.48.509 1.256 1.925 1.256 3.492 0 5.062-1.015 1.67-1.16 1.67-3.336V47.464h8.505q.404 0 .405-.387 0-.628-3.696-3.335-1.467-.966-2.076-.966-.353 0-.86.726l-1.872 2.464h-14.832zm3.95-11.698 6.933.388h7.898l1.872-2.514q.507-.725.912-.725.556 0 1.974 1.015 3.544 2.706 3.544 3.335 0 .387-.405.387h-15.795l-5.365.58zm-7.088 4.35q-.406 0-.911.823-5.467 10.923-11.34 16.577-1.62 1.45-1.62 1.644.103.58.607.58.356 0 5.671-3.674l2.025-1.546v20.686q0 .58.809.58 2.481 0 4.151-.726 1.367-.772 1.367-1.546V50.508q0-.628.455-.918.76-.531.76-1.16 0-.531-.81-.82l-.912-.194 2.835-2.852q1.52-1.886 2.633-2.271.608-.387.608-1.258 0-.337-1.266-.82-4.254-1.983-5.062-1.983m-1.62-9.086q.86 0 5.265 2.127 1.265.531 1.265.918 0 .628-.506.918-1.012.339-2.38 1.692-5.618 4.833-9.617 7.25-4.759 2.804-5.062 2.803-.506 0-.609-.58 0-.194 1.368-1.305 4.91-4.495 9.517-13.146.455-.677.759-.677M488.579 48.43h8.911v-6.234h-8.911zm0-7.733h8.911v-6.042h-8.911zm-5.922 13.824V39.345h-11.542q-1.67 3.528-3.492 6.427h7.339l1.518-2.367q.508-.823 1.013-.822.609 0 2.734 1.885 2.025 1.74 2.025 2.464 0 .339-.608.338h-7.289v7.202h.405l1.973-2.223q.557-.627.963-.628.658 0 2.126.918zm12.605 9.232a44 44 0 0 1-1.721-4.544q-1.57-5.075-1.619-9.281h-3.343v16.386zm.759-5.56q2.328-2.415 4.404-6.089l-2.176.097q-.76-.001-.759-.773v-1.5h-4.557l.051.146q1.113 5.075 3.037 8.12M468.028 29.34q.861 0 6.023 1.498 1.266.388 1.266.774 0 .58-.912 1.063-.76.483-1.265 1.886l-1.367 3.285h3.342l1.821-2.367q.558-.822 1.166-.823.657 0 3.036 1.886l1.519 1.257v-6.38q0-.531.405-.531.354 0 4.656 2.222h8.353l1.468-1.933q.607-.675 1.114-.676.86 0 3.037 1.498 3.292 2.465 3.291 2.852 0 .481-1.265 2.029-.304.435-.304.773v12.47q0 .968-.862 1.45l-.507.242 4.609 2.949q.708.436.708.82 0 .34-1.165.436-.76 0-1.973.53l-7.391 2.805.759.87q3.442 3.817 10.124 5.897.658.193.658.628 0 .29-.86.676-2.986 1.692-4.152 4.495-.303.677-.961.677-.911 0-4-3.674-1.417-1.69-2.631-4.108-6.075 4.4-9.263 8.169-1.014 1.305-1.672 1.305-.81 0-2.328-2.9-1.214-2.369-1.214-2.948 0-.531 1.366-1.16v-11.31h-8.302v9.715l7.087-3.674q.202 0 .202.386l-10.225 10.778q-.71.919-1.214.92-.458 0-2.076-2.418-1.671-2.9-1.671-3.43 0-.34.912-.677l1.264-.436V55.971h-1.011l-5.317.579-1.618-2.465 6.935.387h1.011V47.27h-1.973q-1.722 2.563-3.544 4.544-.709.58-.811.58-.404 0-.404-.386 1.873-4.4 2.885-8.506 1.166-3.868 2.836-13.438.1-.725.405-.725m-28.695 7.008q-.556 0-.556.387 0 .29.455.483 1.417.724 1.519 3.095 0 1.69 2.176 1.69 1.013 0 1.569-.58.608-.676.607-1.691 0-1.402-1.771-2.465-1.772-.919-3.999-.919m-15.388 22.475h5.72v-4.157h-5.72zm1.366 1.499h-1.367v6.041h1.367zm3.949-7.202h.203l.506-1.304q.252-.92.658-.92.709 0 2.631 1.113l1.014.628-.304-4.398h-4.708zm-5.315 0h1.165v-4.882h-1.165zm9.923 13.05 2.377-2.996q-1.011-2.757-1.518-6.187l-.355-2.804-.151.483v5.462q0 .628-.607.822-.608.29-3.14.29-.809 0-.809-.339v-.58h-.202v6.042h.404l.86-1.304q.254-.387.506-.387.305 0 2.127 1.062zm-29.514-32.287 6.936.388h5.921v-3.384q0-.966.608-.967 1.418 0 5.113.483 1.215.29 1.215.823.001.675-.253 1.16a2.63 2.63 0 0 0-.354 1.304v.58h6.529V30.5q0-.965.558-.965 1.467 0 5.113.483 1.215.289 1.214.87 0 .628-.202 1.11a2.6 2.6 0 0 0-.355 1.305v.968h5.72l1.873-2.659q.505-.724.912-.724.606 0 2.025 1.014 3.695 2.804 3.695 3.48 0 .387-.406.387h-13.819v2.32l2.48.144q.66.146.659.58 0 .145-.101.485-.304.387-.304.628l.051 2.658h5.112l1.417-1.933q.456-.725.963-.725.456 0 2.227 1.643 1.721 1.498 1.721 2.126 0 .388-.608.387h-10.782q.152 6.38.507 10.584l.202 1.596q1.467-3.577 2.784-8.313.354-1.017.76-1.016 1.164 0 5.416 2.465.708.387.708.725 0 .579-.809.823a1.64 1.64 0 0 0-.911.966q-2.937 6.863-6.177 11.165.86 1.933 1.924 2.948 1.165 1.258 1.822 1.257.913 0 1.621-2.128l1.417-3.721q.152-.725.355-.725.606 0 .607.387-.404 2.223-.405 3.77.001 3.287 1.619 5.945.558.725.558 1.4 0 2.08-2.581 2.08-2.685 0-6.127-2.659-2.732-2.077-4.505-4.736-4.962 4.252-12.097 7.201-.406-.048-.406-.193 0-.291.506-.726 3.543-2.608 6.226-5.316h-8.504q-1.62 1.5-1.771 1.5-.404-.001-2.229-1.16-1.771-.92-1.771-1.258 0-.434.861-1.209.354-.29.354-.675v-19.48q0-.386.405-.387.708 0 4.455 1.547h5.214l1.062-1.547q.356-.53.71-.53.404 0 1.822 1.448l1.064 1.257-.153-3.285h-15.591V55.39q0 6.574-1.874 10.537-1.873 3.625-5.719 5.993-3.697 2.175-5.062 2.175-.355 0-.355-.193 0-.339.607-.774 4.203-3.287 5.721-6.717 1.417-3.287 1.519-9.474h-1.013q-.607 5.993-2.024 8.556-1.622 2.948-4.455 4.494-.66.339-.963.339-.353 0-.404-.387 0-.144.1-.388 1.113-1.641 1.672-4.108.555-2.61.759-8.311l-1.722.144-1.416-2.223 5.568.337h3.948v-3.189h-1.215l-1.164.918q-.456.387-.81.387-.404 0-2.076-.918-2.076-1.257-2.075-1.498 0-.292.354-.582.456-.434.456-.966v-6.428q0-.338.405-.338 2.633 0 4.707.29.81.145.81.436.001.578-.658.966a.96.96 0 0 0-.303.724v5.316h1.569v-8.893q0-.723.558-.724.606 0 5.213 1.692h14.883l-.051-1.79-2.632.098q-.963 0-.963-.774v-4.35h-6.529v3.578q0 1.015-.658 1.4-1.063.485-4.708.485-.963-.001-.963-.725v-4.737h-5.921l-5.366.58zm-21.556 21.701v-10.73h-4.758v9.04q0 1.159 2.177 1.16l.455-.194q.253-.193.354-.194.608 0 1.772.918m-13.465-12.276h2.582v-8.845h-2.582zm-5.973 1.547h-4.86v15.804a21.8 21.8 0 0 0 3.746-7.394q.96-3.093 1.114-8.41m-4.86 22.088h24.298V59.45l-.404.146a17 17 0 0 1-3.342.338q-7.137 0-7.137-5.849v-9.231h-2.632q-.356 5.606-2.178 9.087-2.378 4.59-7.086 7.636l-1.519.919zm-11.289-34.364 6.936.386h31.03l1.974-2.657q.557-.774.961-.773.66 0 2.127 1.062 3.849 2.803 3.848 3.48 0 .386-.608.386H378.04v8.845h4.555l.912-1.208q.657-.87 1.062-.87 1.115 0 3.848 1.644 2.886 1.642 2.886 2.175 0 .53-1.418 2.078a1.3 1.3 0 0 0-.354.918v22.475q0 1.305-.913 1.69-1.06.388-4.808.388-1.011 0-1.012-.967v-3.189H358.5v2.464q0 1.16-1.215 1.498-1.215.58-4.961.581-.558 0-.557-.58v-30.79q0-.579.557-.58 2.835.678 7.036 2.272h4.049v-8.845h-9.262l-5.367.532zm213.977 68.795h-11.536v-.719h2.236V84.741q-1.63.112-2.878 1.521-1.247 1.414-1.819 3.786h-.535V84.07h17.528v5.977h-.536q-.572-2.372-1.819-3.786-1.247-1.41-2.877-1.521v15.913h2.236zM544.78 84.071v5.977h-.728c-.442-1.874-1.118-3.23-2.025-4.06q-1.362-1.247-3.779-1.247h-.974v7.452h.073q1.475 0 2.261-.84.785-.842.962-2.593h.703v7.571h-.703q-.189-1.75-.975-2.593-.786-.84-2.248-.84h-.073v7.756h1.319c1.494 0 2.707-.482 3.653-1.45.942-.965 1.657-2.458 2.14-4.468h.738v6.637h-16.732v-.719h1.844V84.741h-1.844v-.67zm-25.266 0q3.706.001 5.361.974 1.652.977 1.653 3.167c0 1.233-.442 2.168-1.331 2.796-.89.627-2.282.993-4.173 1.088v.404c2.005.063 3.486.453 4.445 1.16q1.442 1.067 1.442 3.196c0 1.55-.598 2.693-1.788 3.419q-1.784 1.098-5.609 1.098h-11.942v-.719h1.879V84.741h-1.879v-.67zm-2.951 7.905h.283c1.004 0 1.662-.165 1.982-.499q.481-.498.483-1.853v-2.436q0-1.327-.528-1.886-.529-.561-1.782-.561h-.438zm0 8.678h.345c1.072 0 1.782-.183 2.14-.554q.534-.556.535-2.063V95.31q0-1.448-.585-2.07-.579-.619-1.948-.62h-.487zm-21.021.719v-.719h2.152V84.741h-2.152v-.67h11.152v.67h-2.141v15.913h2.141v.719zm-3.597 0H480.41v-.719h2.236V84.741q-1.631.112-2.878 1.521-1.248 1.414-1.819 3.786h-.536V84.07h17.528v5.977h-.536q-.57-2.372-1.819-3.786-1.246-1.41-2.877-1.521v15.913h2.236zM469.88 84.071v5.977h-.727c-.443-1.874-1.119-3.23-2.026-4.06-.908-.831-2.162-1.247-3.774-1.247h-1.117v7.452h.073q1.462 0 2.233-.835.773-.832.95-2.598h.714v7.597h-.714q-.177-1.776-.958-2.619-.774-.84-2.225-.84h-.073v7.756h2.188v.719h-11.276v-.719h1.928V84.741h-1.928v-.67zm-35.945 8.72q-.001-1.745.66-3.43.66-1.681 1.803-2.879a8.5 8.5 0 0 1 2.975-2.02c1.141-.46 2.378-.694 3.72-.694 2.654 0 4.854.86 6.587 2.582q2.606 2.58 2.606 6.441 0 3.882-2.606 6.47c-1.733 1.725-3.933 2.586-6.587 2.586a9.9 9.9 0 0 1-3.289-.537 8.5 8.5 0 0 1-2.74-1.558q-1.456-1.217-2.289-3.083a9.35 9.35 0 0 1-.84-3.878m7.55 5.344c0 1.051.13 1.82.384 2.297.261.479.666.72 1.224.72q.858 0 1.249-.72c.264-.477.394-1.246.394-2.297V87.46q-.001-1.57-.386-2.286-.388-.71-1.257-.71-.85 0-1.227.71-.382.716-.381 2.286zm-35.835 3.238v-.719h1.973V84.741h-1.973v-.67h11.062v.67h-2.094v8.046l5.922-6.052q.26-.273.397-.523a1 1 0 0 0 .139-.474c0-.374-.143-.63-.423-.777q-.424-.22-1.505-.22h-.857v-.67h7.717v.67q-1.355.001-2.372.457-1.014.454-2.183 1.662l-1.628 1.692 6.824 12.102h1.7v.719h-11.105v-.719h1.676l-4.302-7.66v7.66h1.749v.719zm-16.111-2.62v-11.2l9.738 13.82H403V86.69q.001-1.195.445-1.57.446-.38 1.754-.379h.143v-.67h-5.602v.67h.142q1.321 0 1.766.378.444.375.445 1.57v6.783l-6.648-9.4h-9.177v.669h2.365v14.012q0 1.183-.438 1.556c-.296.245-.876.37-1.749.37h-.178v.694h5.601v-.694q-1.428-.001-1.88-.37-.45-.373-.45-1.556m-17.488 2.62h-4.604v-.719c.524-.067.959-.254 1.303-.574q.52-.474.837-1.396l5.091-14.612h5.065l5.902 16.582h1.282v.719h-10.414v-.719h1.721l-1.721-4.942h-5.023l-.925 2.847a3 3 0 0 0-.142.532 2.5 2.5 0 0 0-.049.453q.001.575.362.843.365.268 1.124.267h.191zm-.24-6.538h4.376l-2.188-6.171zm-11.85-10.763q3.707 0 5.363.973 1.65.977 1.651 3.167c0 1.233-.442 2.168-1.331 2.796s-2.281.993-4.172 1.088v.404c2.005.063 3.487.453 4.443 1.16.964.71 1.442 1.778 1.442 3.196 0 1.55-.597 2.693-1.786 3.419-1.188.732-3.061 1.098-5.61 1.098h-11.942v-.719h1.879V84.741h-1.879v-.67zm-2.951 7.904h.284q1.502.001 1.982-.499.481-.498.482-1.853v-2.436q.001-1.327-.528-1.886-.528-.561-1.781-.561h-.439zm0 8.678h.345c1.072 0 1.782-.183 2.14-.554q.536-.556.536-2.063V95.31q0-1.448-.585-2.07-.579-.619-1.949-.62h-.487zM15.054 44.24 14 43.722s4.951-6.4 9.904-6.503c4.952-.104 6.006 4.13 8.64 7.226 0 0-2.107-5.161 4.215-8.052s9.8 0 12.117 3.2 5.374 4.852 8.324 5.471c0 0-5.057 1.136-8.956-1.96-3.898-3.098-10.221-5.472-12.749-3.511-2.53 1.962-2.212 5.471-.738 8.878l-.632.722s-4.215-5.264-9.378-7.226-6.848.207-9.693 2.271M34.867 59s-5.004.103-7.006.103-2.582-.981-3.004-1.962c-.422-.98-.052-2.013 1.265-3.252s2.265-.774 4.056 1.239c1.792 2.013 4.689.155 4.689.155zm3.109-6.453-.158-.412s-4.11.515-6.112-2.994c0 0-1.685-.929-3.372.103-1.685 1.032-6.006 5.884-6.849 7.02-.842 1.136-.947 5.161.527 6.503 1.476 1.343 2.95.826 5.48.724 2.529-.104 7.586-1.24 8.323 7.638l1.06 1.215.323-.068.071-8.28s1.104-2.401-1.063-4.216l.083-5.322s1.423-1.395 1.687-1.91m12.053-4.234s-6.2 1.877-7.102 4.75c-.902 2.87-.564 10.602.225 13.364.79 2.761 3.72 11.376 3.608 15.243-.113 3.865.45 17.671 2.705 17.671 0 0-1.69-10.824.676-16.678 2.368-5.854.339-9.94-.112-11.707-.452-1.768-4.058-8.174-2.93-14.249.376-6.321 2.7-8.47 2.93-8.394m10.501.549.45-.773s-8.116.993-8.23 7.4c-.113 6.406 2.256 12.812 6.877 16.346 0 0-1.691-4.086-.563-7.51 1.127-3.424-.564-2.65-.902-7.4s-.339-5.965 2.367-8.063M80.704 42.6l-.179 1.126c-1.403-3.392-3.93-7.518-9.638-6.968s-9.076 7.151-9.076 7.151 3.721-2.992 6.965-3.087c3.245-.093 11.069 3.927 13.741 7.293l.954-.84s-3.53-1.965-1.622-6.172 6.012-3.271 8.205-1.681c2.195 1.589 14.981 5.795 17.08 5.795 0 0-5.342-1.87-7.347-3.74-2.004-1.87-1.336-3.084-3.72-4.861-2.386-1.776-8.684-2.43-13.36 1.403 0 0-2.003 1.962-2.003 4.58M64.376 60.524l.126 1.075 3.987-4.795s-1.63-2.428-1.147-3.67c.483-1.244 3.504 1.894 3.504 1.894s-.061.947-.786 2.19-.905 2.9-.12 3.434c.786.532 1.147 1.243.12 1.42-1.026.178-2.718 1.184-2.718 3.197s.12 3.848.12 3.848l-4.954 5.031.12.533 1.27.06s.785-1.184 2.114-1.48c1.33-.296 10.03.096 15.362 5.537 5.331 5.442 5.044 4.91 5.998 7.154s6.202 9.817 10.783 12.154c0 0-6.775-6.077-7.92-11.22-1.145-5.141-3.436-10.844-8.493-14.209s-13.835-1.87-13.835-1.87l4.58-4.3s1.145-.56 2.48.654c1.337 1.215 6.203 0 9.733-4.3 0 0-6.01 1.776-8.015-.468l-4.484 3.178-.095-3.646h3.243l7.73-4.954s2.289-1.495 1.05-3.646c-1.241-2.15.666-3.552.666-3.552l-1.43-.374-5.821 3.365s0 .842.954 2.618.954 3.459-1.144 2.805c-2.1-.655-3.818-1.496-2.578-4.301 1.241-2.804-.571-2.43.956-4.861l-.764-.187s-.573 2.898-3.722-.748l-.954.374-7.348 7.012s-.858 1.681 0 2.337c.86.655 1.528 1.308 1.432 2.71" fill="#231916"/><path fill-rule="evenodd" clip-rule="evenodd" d="M96.198 47.884s-8.004 1.657-7.892 8.505c.114 6.848-.225 14.358 5.637 20.213 5.862 5.854 7.891 8.504 11.274 8.615l1.015-.884v-7.845l-.899.236.109 6.835s-.405 1.424-3.167-.742c-2.763-2.165-6.411-4.223-6.3-8.013s-.443-6.064-1.328-7.797c-.883-1.732-2.21-10.936-.662-15.269 1.547-4.33 2.213-3.854 2.213-3.854" fill="#231916"/><path fill-rule="evenodd" clip-rule="evenodd" d="m114.241 47.867-5.248 3.833-1.049 1.122.191 5.236h-2.498l-.365-6.077 1.813-2.337-1.337-.375-5.248 3.74s.287 6.264.383 7.386l-3.912 3.552h1.43s3.245-2.711 5.535-2.524 6.394 1.122 6.87 8.227l-.19 2.524h1.719s-.384-5.515.953-7.48c1.335-1.962.953-3.084.953-4.3s-1.335-2.336-1.24-6.543.953-4.582.953-4.582zm11.345.565.49-.563s-7.706 1.498-8.134 7.669c-.428 6.172 1.653 11.982 6.79 16.355-.946-.233-1.579-7.503-.322-9.877 0 0-4.952-8.308 1.176-13.584m11.038.688.875-1.252s-9.478 0-8.124 10.965 5.456 15.938 5.095 22.66c-.36 6.72 2.043 18.306 2.043 18.306s-.331-14.512 1.769-19.276c2.1-4.765-1.658-14.51-1.658-14.51s-4.752-11.045 0-16.893" fill="#231916"/><path fill-rule="evenodd" clip-rule="evenodd" d="m146.614 49.268 1.346-1.179s-7.073.975-7.625 7.147c-.553 6.172 1.104 16.243 7.294 21.333 0 0 3.132 3.794 7.273 6.807 4.138 3.012 6.385 8.69-.237 16.222-6.622 7.53-16.912 7.415-24.244 3.359-7.331-4.055-20.695-12.746-20.695-12.746s-1.775-2.549-8.87 1.16c0 0 3.666 1.042 6.622 2.896s16.439 12.861 27.319 13.556 17.621-3.012 26.254-12.744c0 0 3.903-5.678 2.601-11.124 0 0-.946-2.666-3.547-4.287l-4.258 1.97.71-3.824.473-2.433h-1.065s-.827 6.72-1.774 6.256c0 0-4.375-4.633-6.386-7.646 0 0-.354-7.3-.591-9.154-.236-1.854-4.551-6.827-.6-15.57m81.655-.834.669-.788s-7.107 2.233-7.509 5.518-2.012 12.613 7.644 19.05c0 0-4.023-4.335-1.877-6.437 2.144-2.103-.671-5.65-.671-5.65s-2.146-7.358 1.744-11.693m-44.424 0 .67-.788s-7.107 2.233-7.509 5.518-2.012 12.613 7.644 19.05c0 0-4.023-4.335-1.878-6.437s-.67-5.65-.67-5.65-2.146-7.358 1.743-11.693m19.456 21.592 1.287.016s-11.399-4.992-12.204-7.884c-.804-2.89-.133-3.678-.804-4.992s-1.341-1.84-.402-3.81c.939-1.971 2.681-.658 3.352.262s2.282 1.17 3.905 1.077l.286 1.309 2.385-1.496s1.527 4.207 1.241 5.516c-.287 1.309-3.626-1.122-4.104-3.46 0 0-3.243 1.777-4.008 2.712-.762.935.765 2.43 1.623 2.992.858.56 4.007 3.084 5.153 2.71 1.144-.374 5.248-4.3 5.725-5.422s-2.289-7.198-1.05-11.125c0 0-2.576 3.833-4.58 2.524-2.003-1.308-4.58-3.085-4.58-3.085s-.858 0-2.481 1.122-6.392 6.077-6.965 7.666-2.672 7.48 16.221 13.368" fill="#231916"/><path fill-rule="evenodd" clip-rule="evenodd" d="M218.413 47.884s-8.005 1.657-7.891 8.505c.113 6.848-.226 14.358 5.636 20.213 5.863 5.854 7.891 8.504 11.274 8.615l1.014-.884v-7.845l-.898.236.11 6.835s-.406 1.424-3.168-.742c-2.764-2.165-6.411-4.223-6.299-8.013.109-3.79-.444-6.064-1.328-7.797s-2.21-10.936-.663-15.269c1.547-4.33 2.213-3.854 2.213-3.854m-46.888 4.366 1.058-1.451s-4.548 1.658-5.922 3.315-.634 5.699.528 6.94c1.164 1.244 1.375 4.766.636 5.078-.741.31-4.336.725-6.873-1.865s-1.269-4.04-.423-5.387 2.643-4.35 1.481-6.734c0 0-1.27-1.553 1.479-2.486l-.528-1.347s-2.009 2.59-3.701 1.243-2.01-1.45-2.643-.932c-.634.518-6.767 7.355-6.767 7.355s-1.163 2.28.105 3.211c1.27.933 2.221 2.487 2.221 4.56 0 0 4.335-5.907 1.481-9.22 0 0-.741-1.451.95-1.038 1.693.416 4.759 3.42 2.75 7.149s-3.7 6.112 1.163 8.287 7.295.414 8.881-.932c0 0 4.124-4.144 4.97-5.18.845-1.036 1.48-3.107.424-4.454-1.059-1.347-2.644-4.248-1.27-6.113" fill="#231916"/><path fill-rule="evenodd" clip-rule="evenodd" d="M288.172 15.505c26.949 0 48.928 22.22 48.928 49.465 0 6.913-1.418 13.5-3.969 19.485-17.255-12.82-45.713-42.098-45.713-42.098-30.286 34.26-41.525 39.012-45.681 38.179a49.7 49.7 0 0 1-2.492-15.566c0-27.244 21.979-49.465 48.927-49.465" fill="#005bac"/><path fill-rule="evenodd" clip-rule="evenodd" d="M334.925 64.017c0 25.83-20.94 46.769-46.77 46.769-25.833 0-46.773-20.94-46.773-46.77 0-25.829 20.94-46.77 46.773-46.77 25.83 0 46.77 20.941 46.77 46.77" fill="#fff"/><path d="M238.16 64.001c.039 4.299.552 8.518 1.577 12.461 2.839 1.42 5.994 1.42 9.149.631 7.255-4.022 18.06-14.984 18.06-14.984l21.215-21.215 21.215 21.215s10.805 10.962 18.061 14.984c3.154.789 6.27.828 9.109-.591a50.6 50.6 0 0 0 1.577-12.54c0-27.603-22.359-49.962-49.962-49.962S238.16 36.398 238.16 64.001" fill="url(#paint0_radial_63_13109)"/><path d="M332.36 77.912c1.457-.1 2.848-.786 4.211-1.457-2.848 1.407-5.992 1.407-9.13.62.015 0 .022.008.029.015-3.259-.721-6.829-2.546-10.089-4.71 4.5 3.145 9.945 5.864 14.979 5.532" fill="url(#paint1_radial_63_13109)"/><path d="M248.873 77.133a.1.1 0 0 1 .035-.021c-3.138.793-6.283.793-9.133-.611 1.446.716 2.941 1.34 4.5 1.411 4.788.225 9.912-2.26 14.237-5.195-3.138 2.029-6.522 3.714-9.639 4.416" fill="url(#paint2_radial_63_13109)"/><path fill-rule="evenodd" clip-rule="evenodd" d="M307.55 63.876c1.875 2.342 5.581 5.721 9.803 8.518-5.644-3.934-9.803-8.518-9.803-8.518m-49.036 8.807c4.406-2.85 8.311-6.382 10.25-8.807 0 0-4.379 4.822-10.25 8.807" fill="#f4f4f4"/><path fill-rule="evenodd" clip-rule="evenodd" d="M258.477 72.723c5.871-3.985 10.25-8.807 10.25-8.807s-9.877 10.679-19.855 13.207l-.033.02c3.119-.695 6.504-2.386 9.638-4.42m49.073-8.847s4.159 4.584 9.803 8.518c3.257 2.163 6.822 3.982 10.085 4.708l-.031-.02c-9.977-2.525-19.857-13.206-19.857-13.206" fill="#f4f4f4"/><path d="m288.136 83.36-19.399-19.4s-9.854 10.676-19.862 13.19c-3.131.77-6.261.822-9.135-.616C245.283 98.09 264.888 114 288.188 114c23.249.051 42.802-15.91 48.345-37.465-2.822 1.385-5.953 1.437-9.135.615-9.905-2.514-19.81-13.24-19.81-13.24z" fill="url(#paint3_radial_63_13109)"/><defs><radialGradient id="paint0_radial_63_13109" cx="0" cy="0" r="1" gradientUnits="userSpaceOnUse" gradientTransform="rotate(45 65.485 380.39)scale(55.7672)"><stop stop-color="#01a9e4"/><stop offset="1" stop-color="#00508f"/></radialGradient><radialGradient id="paint1_radial_63_13109" cx="0" cy="0" r="1" gradientUnits="userSpaceOnUse" gradientTransform="rotate(45 69.877 406.345)scale(10.1987)"><stop stop-color="#0087c4"/><stop offset="1" stop-color="#005492"/></radialGradient><radialGradient id="paint2_radial_63_13109" cx="0" cy="0" r="1" gradientUnits="userSpaceOnUse" gradientTransform="rotate(45 49.316 358.41)scale(9.92798)"><stop stop-color="#0085c2"/><stop offset="1" stop-color="#005492"/></radialGradient><radialGradient id="paint3_radial_63_13109" cx="0" cy="0" r="1" gradientUnits="userSpaceOnUse" gradientTransform="rotate(45 71.725 377.803)scale(72.5804)"><stop stop-color="#8ec31f"/><stop offset="1" stop-color="#00733f"/></radialGradient></defs></svg>