<svg width="128" height="128" fill="none" xmlns="http://www.w3.org/2000/svg"><path d="M102.183 16.5c-.619 10.622-4.159 23.111-10.66 35.53-13.778 26.363-38.07 44.338-52.538 37.46-8.718-4.148-11.501-14.674-9.841-29.325-8.948 23.514-5.975 43.429 7 49.592 15.877 7.55 41.21-10.126 56.583-39.458 10.557-20.143 13.676-40.546 9.455-53.799" fill="#004898"/><path d="M84.929 36.238C70.899 47.578 54.162 52.73 47.467 46.76c-4.218-3.76-3.85-10.533-.5-17.406-10.43 10.965-13.115 23.652-7.087 29.576 7.452 7.333 25.81 3.953 41.98-10.094 11.539-10.02 17.737-22.78 18.401-32.336-1.921 5.755-7.222 13.187-15.332 19.737" fill="#f4a100"/></svg>