<svg width="376" height="128" fill="none" xmlns="http://www.w3.org/2000/svg"><path d="M281.254 66.76c.662 0 6.286-6.026 6.947-6.136 0-.985-2.977-2.738-4.3-3.067-.662-.329-2.316-.766-2.537-.547s-.441 1.752-.661 2.738l.11 4.383c-.11.438 0 2.629.441 2.629m-9.042-13.147c-.442 0-.772 3.178-1.875 3.725.772.986 3.198.986 3.198-.767 0-.328-1.213-2.958-1.323-2.958m22.165-27.717c.331.11.771.548.992.876.662 1.096 1.213 3.397 1.213 4.602 0 3.067-.11 4.381-1.103 6.792l-.331 1.315c-.11 1.534-.661 3.287-.882 4.6-.551 1.644-2.867 3.945-4.852 3.945-2.757 0-3.418-2.191-6.617 0l-.661 3.506c0 .986.11 1.643.661 2.41 1.324 0 4.853-2.848 6.176-3.506.882 0 2.426-.876 2.867-1.424.331-.22 2.316-1.753 2.647-1.753.772 0 1.875.329 1.875 1.315 0 2.848-.772 1.862-3.419 3.725-.993.328-6.616 1.424-6.616 2.3 0 1.534 5.844 3.068 7.057 3.397l2.095.547.331.11c1.323.438 3.087.986 4.411 1.095.882.11 2.867.329 3.529.329.22.11.882.547.882.877v.657c-1.654 1.096-4.521 2.958-6.727 2.958-3.418 0-6.506-3.506-8.05-3.506-1.654 0-2.205 5.806-4.19 7.34-1.103 1.424-1.764 3.834-3.86 4.82a4.5 4.5 0 0 1-1.654.33c-2.536 0-2.646-4.164-2.646-5.807 0-.658.11-1.205.11-1.972 0-1.972.442-4.163-1.103-5.697-.551-.877-1.985-.986-2.977-.986-1.323.11-2.315 1.863-2.315 3.067 1.102-.11 2.315-.547 3.418-.657h.22c.441 0 .993.11.993.548 0 1.534-10.807 7.12-13.564 8.107-.992.438-1.985.766-2.867.766-1.544 0-1.985-.766-2.095-1.971v-.22c0-.656 1.433-.328 2.205-.766 1.103-.22 2.647-1.315 3.309-1.972.44-.33 2.095-1.972 2.095-2.52 0-.438-.662-1.096-1.103-1.096-1.213 0-2.316 1.863-2.867 1.863h-.662c-.662 0-2.867-3.944-2.867-4.82 0-1.096.771-1.972 1.985-1.972 1.875 0 3.639 3.286 3.969 3.286 2.427 0 0-4.82-.33-5.587l-1.324-.438c-.771 0-4.079-1.096-4.079-2.082 0-2.957 5.513-1.533 5.513-3.944 0-1.643-1.764-4.602-3.749-4.602-1.434 0-1.985 1.425-2.095 2.521-8.161 1.424-6.837 1.753-4.08-3.725 1.654-2.082 3.087-4.273 4.411-6.354 1.323-1.863 5.293-10.408 8.491-7.23l.33 1.862a496 496 0 0 0-.661 4.82c-.331.548-1.544.877-1.544 1.753 0 .767.771 1.534 1.323 1.863 2.095-1.315 3.86-2.85 6.506-2.85.662 0 1.985.768 1.985 1.425.221 1.534-.771 3.068-1.874 4.163-.442.439-2.206 2.082-2.206 2.63 0 .876.11 1.205 1.214 1.205.55 0 1.433-.767 1.763-.767 1.655 0 2.757 1.095 2.757 2.63 0 1.643-2.205 3.067-2.205 3.724v.438c0 .767 2.426 1.862 2.867 2.082 0 0 1.323-4.492 1.323-5.04l.331-1.205c.772-3.177 1.433-6.792 1.654-10.08 0-.437.993-3.176 1.544-1.423.551 2.519.11 6.026 3.088 6.026.331 0 3.97-1.754 4.3-1.973.442-.219 1.213-1.095 1.213-1.534 0-.547 0-1.423-.11-1.971-.661.657-4.08 1.314-4.962 1.314-.442 0-1.213-.876-1.213-1.315 0-.547 0-1.095.331-1.534 1.654 0 2.315-.328 3.528-.657.772-.218 2.757-.986 3.309-.986.44-.657.882.11.882-1.534 0-.657-.331-.766-.551-1.095-1.324 0-3.971.329-5.404.329-.552.329-2.536 1.643-3.308 1.643-.883 0-1.323-.438-1.764-.767.441-.876.441-1.314 1.323-1.972 1.433-.767 2.977-1.314 4.631-1.534.441 0 2.647-.11 2.757-.219 1.103-1.424 3.308-2.848 5.073-2.848m-80.02 28.719c2.069 1.64 5.118 4.372 7.622.984.326-.547 1.197-2.296 1.197-2.952v-.108c0-3.061-9.254-1.64-8.928 1.201zm10.562-18.91c-2.287 0-5.771.436-7.623 1.858 0 1.311.11 3.497 1.198 4.591v2.623c2.069 2.077 5.336 1.093 7.186-.765.435-.328 2.287-2.514 2.287-2.842 0-1.64-.545-5.466-3.048-5.466m-16.659-7.543c0-.656 1.851-1.094 2.286-1.094h6.206c.871.11 4.9.547 4.9 2.187 0 1.093-.762 2.295-.762 3.17 0 .328.218.656.544.656 2.396 0 4.029-.328 6.315-.765.871 0 2.069-.438 3.049-.438.979 0 1.851.766 2.286 1.421.326.328.98 2.187.98 2.733v1.749c0 .328-1.089 1.312-1.307 1.64s-.98 1.64-1.198 1.749c0 .437-.108.655-.108.984l.108 1.092c1.308.875 2.505.11 4.029.11h.98c1.416.109 3.049.438 3.92 1.749.108.109.871 1.312.871 1.42v.547c0 .766-2.94 2.515-3.593 2.951l-5.88.219c-.87 0-1.959-.218-2.831-.218-1.633 0-2.613 1.53-2.177 3.06l.762.11c1.524.765-.544 2.624-1.198 3.28-.326.655-1.306 1.202-1.306 1.53v.218c0 .328.544.437.871.656h.545l1.85.874.545.11c2.177.984 4.246 2.186 6.314 2.951.654.437.654.328 1.307.875 1.307 1.203 1.742 2.842 1.851 4.482v.327c0 1.75-1.851 1.53-2.94 1.53-1.415 0-3.484-1.201-4.79-1.639-2.614-1.202-4.791-3.826-7.73-4.7-4.355 1.312-8.384 4.044-12.957 5.356-3.81.328-6.75-.11-10.343-.547-.436 0-1.742-.765-1.742-1.31 0-2.625 5.553-1.313 7.512-2.516 3.811-.327 7.077-2.185 10.235-3.935.109-1.093-.327-1.42-1.524-1.42-2.505 0-5.009.546-7.622.546-.217 0-.762-.437-.762-.655v-.439c0-1.31 1.307-3.388 1.307-5.246l-1.743.437c-.435.219-3.81.765-4.681.765h-5.335c-.654-.218-3.158-.765-3.158-1.53 0-1.312 7.513-2.186 7.513-2.186 3.157 0 6.75-.546 9.472-2.296.98-.437 1.525-.874 2.286-1.42.545-.33 1.525-1.312 1.851-1.86 1.307-1.967 2.94-7.214-1.197-7.214-1.742 0-1.198.547-2.178 1.53-.979.766-2.068 1.203-3.266 1.422-.98.546-1.851 2.404-2.505 3.497-.435.547-1.741 3.935-2.176 3.935h-.109c-.871 0-1.416-1.31-1.743-1.858 0-.764-.326-1.092-.326-1.53v-3.497l.326-3.608c.327-.547.762-.547 1.198-1.203.871-1.42 1.089-4.044 1.415-5.683 1.198-.328 1.851 1.858 2.287 2.513.326.438 1.524 2.515 1.96 2.515 1.851 0 7.294-1.421 7.294-3.28 0-2.295-5.988-2.733-5.988-4.81m-71.563 29.16c-.217-.108 2.496-.757 2.604-.757 2.278-.65 6.185-1.515 7.92-2.813l.76-12.551c1.302-1.948 2.17-3.571 2.17-6.06V29.84c0-.65-.326-2.381.217-2.381 4.34 0 4.882 6.816 5.534 9.847 0 .215.217.54.542.54h.326c.868 0 3.255-1.298 4.014-1.623 3.472-1.514 4.557-2.271 8.355-2.813.542.109.868.758.868 1.299 0 .433-1.411 1.947-1.736 2.163-1.302.542-4.015 2.272-5.534 2.272-.868 0-2.17-.324-2.604-.324h-.434c-.976 0-2.712.865-2.712 1.623l.108 2.164c.217.324.651.866 1.194.866 2.604 0 4.665-.866 6.835-2.056 1.519-.433 2.821-1.082 4.449-1.082.542 0 1.844 1.082 1.844 1.84 0 2.813-4.774 4.436-7.052 4.436h-4.123c-.759 0-1.737-.217-2.604-.217-.977 0-1.194 3.03-1.194 3.68 6.618 3.894 12.912-3.68 18.228-3.68 2.605 0 5.425 1.082 5.425 4.003-2.495 0-4.99.866-7.486 1.19-4.015 1.19-14.648 2.49-16.709 3.896-1.411 1.19-1.628 2.921-1.628 4.653 0 2.597 2.713 1.406 2.713-.974-.109-.65-.543-1.082-.543-1.515l2.279.108c5.099 0 9.765-3.57 14.973-3.57.651 0 1.411.757 1.411 1.514 0 2.705-6.945 2.489-7.921 3.463 4.665 3.354 14.756 4.22 20.615 4.869 1.736.216 1.41 0 .325.974-2.386 2.38-5.75 3.354-9.114 3.354-2.278 0-5.533-1.84-7.052-3.355-.976-.649-1.953-1.514-2.387-2.488-.434.108-.217.216-.542.216-2.713 0-4.992-2.164-7.27-2.164-3.255 0-4.991 4.437-5.968 7.033-.759 1.407-2.712 5.952-4.449 5.952-2.169 0-3.037-1.624-3.472-3.463-.759-5.41-.434-13.633-.542-13.633-1.519 0-4.014 2.056-6.184 2.056h-.326c-1.736 0-3.038-.433-4.123-1.19m178.76-12.094c0-.217 5.043-7.17 5.579-7.822.859-1.085 4.936-7.603 5.795-7.603h.857c1.503.217 3.112 3.476 3.112 4.78 0 1.411-3.112 3.367-3.112 4.888 0 .326 1.288 2.607 1.288 3.368 0 4.453-2.682 7.386-2.253 11.188.108.108.644 1.195.644 1.412.107.76-.644 1.412-.644 1.846v2.5c0 1.085 1.288 2.823 1.288 3.693 0 .977-.429 2.172-.752 3.04-.214.435-.751 1.956-1.395 1.956-.965 0-1.073-.869-1.502-1.52 0-2.825-1.394-6.41-4.399-6.41-2.682 1.847-3.326 2.825-6.652 2.499-1.288-.217-2.039-2.39-2.039-3.259 0-.977.536-2.499 1.073-3.258 1.073-1.413 2.253-2.934 3.54-4.237 1.503-1.521 4.615-3.368 4.615-5.649 0-.217-.107-.543-.322-.543-.751 0-2.146 1.412-2.897 1.63-.429.108-.644.217-.966.108-.215 0-.858-.652-.858-.87zm46.589-4.217c-.108.544-1.625 1.74-2.058 1.957-1.192 0-1.842.327-2.708.654-3.467 1.304-2.6 19.792-3.467 25.557 0 .978-.65 5.546-2.275 5.546-1.951 0-5.525-6.852-5.525-8.809.433.435 2.275 2.175 2.817 2.175h.108c1.192 0 1.733-1.958 1.733-2.827 0-3.807 0-8.266-.325-12.072 0-1.632 0-9.136-2.816-9.136-1.734 0-2.384 1.197-3.684 2.067-1.408.108-2.709.217-4.008.326-1.951 0-4.009 0-5.959-.326-.649-.218-1.516-.762-1.516-1.632 0-.435.325-1.088.867-1.196 4.225 0 7.474-2.61 11.158-3.154 4.658-.76 9.209-3.698 13.975-3.698.65 0 2.6 1.85 2.925 2.393.542.761.758 1.305.758 2.175m-23.223-10.447c1.995-1.131 5.653-2.715 7.981-2.715 2.216 0 3.546.566 5.098 1.81.443.452 1.552 2.036 1.552 2.827-3.658.226-8.645 1.583-11.97 3.053-.223.113-2.328.904-2.328.904h-.444c-.443 0-1.662-1.922-1.662-2.6v-1.018c0-.565 1.33-2.035 1.773-2.261m-182.609.156c0-.946 7.699-3.574 9.596-3.574 1.004 0 3.683-.526 3.683 1.156 0 1.262-.447 2.103-1.563 2.944-1.227.631-4.017 1.682-5.467 1.682h-1.116c-1.005 0-5.133-.736-5.133-2.207m114.438-2.032c0-.307.852-1.23 1.172-1.23h.639c1.385 0 2.45.82 3.195 1.435.533.41 2.024 1.742 2.024 2.562v1.434c0 .103-.213.82-.532.82 0 0-1.492-.82-2.557-.82h-1.171c-.32 0-.32.103-.427.308-.745 0-.426.205-.852.205h-.213c-.533 0-.852-.307-1.065-.615.213-.205.852-.922.852-1.332v-.513c0-1.024-1.065-2.049-1.065-2.254M157.513 85.037q1.296 0 2.661.392l.636.18q.774.212.894.212.338 0 .642-.19.303-.19.42-.594h.502l.222 5.468h-.549q-.478-1.629-1.249-2.627Q160.221 86 157.734 86q-2.51 0-4.103 2.02-1.594 2.022-1.594 5.564 0 3.257 1.676 5.2t4.243 1.944a6.7 6.7 0 0 0 3.421-.903q.899-.511 1.973-1.546l.444.452a8.1 8.1 0 0 1-1.973 1.795q-2.008 1.308-4.355 1.308-3.852 0-6.117-2.509-2.09-2.318-2.09-5.789 0-3.554 2.207-5.967 2.322-2.532 6.047-2.532m7.483 16.393v-.441l.315-.039q1.127-.159 1.436-.489.35-.375.35-1.956V87.961q0-1.307-.391-1.7-.39-.393-1.71-.487v-.452h6.643v.452q-1.32.095-1.716.487-.397.392-.397 1.7v4.743h7.249v-4.743q0-1.307-.385-1.7-.386-.393-1.716-.487v-.452h6.643v.452q-1.32.095-1.71.487-.392.392-.392 1.7v10.83q0 1.331.391 1.705t1.711.493v.441h-6.643v-.441q1.412-.143 1.757-.522.344-.381.344-1.962v-4.731h-7.249v5.017q0 1.331.397 1.711.396.38 1.716.487v.441zm27.552-6.253-2.767-6.705-2.732 6.705zm-10.321 6.253v-.441q.922-.107 1.384-.713l.069-.097q.453-.674 1.433-3.006l5.064-12.136h.467l5.955 13.8.136.31q.5 1.109.815 1.397.356.327 1.196.445v.441h-6.082v-.441l.285-.027q.81-.087 1.069-.204.304-.136.304-.672 0-.178-.117-.63a7 7 0 0 0-.327-.95l-.992-2.343h-6.258l-.745 1.924q-.192.495-.369.995-.181.529-.181.838 0 .618.49.856.304.142 1.144.214v.44zm17.185-.441q1.482-.154 1.903-.683.4-.504.419-2.274l.001-10.915-.327-.392q-.525-.63-.893-.779-.368-.148-1.103-.172v-.452h4.098l9.211 11.721V88.9q0-2.009-.584-2.615-.385-.393-1.704-.511v-.452h5.615v.452q-1.366.142-1.821.677-.456.535-.456 2.45v12.814h-.408l-10.577-13.35v9.487q0 1.996.572 2.603.373.392 1.669.534v.441h-5.615zm25.847-15.952q1.389 0 2.731.392l.541.155q.846.237 1.001.237.513 0 .729-.202.216-.203.368-.582h.525l.187 5.123h-.549q-.735-1.77-1.517-2.639Q227.862 86 225.597 86q-2.3 0-4.045 1.777t-1.745 5.854q0 3.365 1.739 5.254 1.74 1.89 4.296 1.89.432 0 1.016-.083.567-.079 1.109-.261.852-.285 1.062-.493.211-.21.211-.613v-3.887q0-1.403-.391-1.747t-1.711-.428v-.452h6.094v.452q-.887.06-1.179.297-.49.38-.49 1.57v4.79q0 .427-2.061 1.141-2.06.713-3.963.713-3.502 0-5.907-2.08-2.65-2.294-2.651-6.158 0-3.4 2.114-5.825 2.322-2.674 6.164-2.674m13.356 4.181h-.971l-3.686-2.364q-.386-.25-.556-.487a.9.9 0 0 1-.17-.546q0-.345.246-.564a.82.82 0 0 1 .562-.22q.305 0 .561.172.258.173.492.41zm13.528 6.082-2.773-6.7-2.739 6.7zm-10.345 6.249v-.44q.925-.107 1.387-.713.445-.584 1.506-3.101l5.077-12.127h.468l5.968 13.79q.597 1.38.954 1.705.357.327 1.199.446v.44h-6.096v-.44l.285-.028q.81-.087 1.072-.204.303-.136.304-.671 0-.178-.117-.63a7 7 0 0 0-.328-.95l-.995-2.34h-6.272l-.747 1.923q-.28.729-.37.993-.182.53-.182.838 0 .618.492.855.304.142 1.146.214v.44zm17.226-.44q1.486-.155 1.908-.683.42-.529.421-2.453V87.246l-.328-.392q-.526-.63-.895-.778-.368-.148-1.106-.172v-.452h4.108l9.233 11.713v-8.137q0-2.008-.585-2.613-.386-.393-1.709-.511v-.452h5.629v.452q-1.369.142-1.826.677-.456.534-.456 2.447v12.806h-.41l-10.602-13.34v9.479q0 1.996.574 2.601.374.393 1.673.535v.44h-5.629zm30.157-.439q1.837 0 3.078-.725t1.24-2.78q0-2.044-1.451-2.791-1.45-.75-3.698-.749h-.696q-.147 0-.45-.011v6.058q0 .63.351.813.35.185 1.626.185m-6.717.439q1.451-.083 1.878-.457.427-.375.427-1.74V88.09q0-1.342-.427-1.729-.426-.386-1.878-.457v-.452h6.717q2.879 0 4.57.939 1.69.938 1.691 3.231 0 1.723-1.182 2.613-.668.51-2.001.844 1.65.404 2.82 1.348t1.17 2.643q0 2.85-2.598 3.92-1.368.559-3.37.559h-7.817zm7.021-8.458q1.206-.024 2.002-.392 1.521-.712 1.521-2.554 0-2.174-1.756-2.934-.97-.416-2.948-.416-.75 0-.925.131-.175.13-.175.713v5.488zm19.251 2.649-2.774-6.7-2.738 6.7zm-10.345 6.249v-.44q.924-.107 1.386-.713l.07-.097q.454-.673 1.437-3.004l5.076-12.127h.468l5.968 13.79.138.31q.501 1.107.816 1.395.357.327 1.2.446v.44h-6.097v-.44l.285-.028q.811-.087 1.072-.204.305-.136.305-.671 0-.178-.118-.63a7 7 0 0 0-.327-.95l-.995-2.34h-6.272l-.748 1.923q-.279.729-.37.993-.181.53-.181.838 0 .618.491.855.304.142 1.147.214v.44zm17.226-.44q1.485-.155 1.907-.683.402-.504.421-2.273V87.246l-.327-.392q-.526-.63-.895-.778-.37-.148-1.106-.172v-.452h4.107l9.233 11.713v-8.137q0-2.008-.585-2.613-.386-.393-1.708-.511v-.452h5.629v.452q-1.37.142-1.826.677-.456.534-.456 2.447v12.806h-.41l-10.603-13.34v9.479q0 1.996.574 2.601.375.393 1.674.535v.44h-5.629zm17.471 0q1.464-.119 1.814-.529t.351-1.954V88.09q0-1.32-.392-1.705-.391-.386-1.773-.481v-.452h6.834v.452q-1.404.071-1.813.475-.41.405-.41 1.71v4.99l.54-.47a94 94 0 0 0 3.076-2.785l.295-.289q2.221-2.189 2.221-2.835 0-.487-.427-.642-.428-.154-1.211-.154v-.452h6.272v.393q-1.146.118-1.808.463-.661.344-1.832 1.508l-4.551 4.526 5.581 6.118.512.552q1.143 1.22 1.607 1.568.561.423 1.65.553v.416h-7.326v-.44l.291-.013q.758-.042 1.055-.147.351-.126.351-.493 0-.203-.228-.618-.228-.416-.72-.962l-4.54-5.06-.808.7v4.395q0 1.354.404 1.717.403.362 1.761.481v.44h-6.776z" fill="#000200"/><path d="M104.11 27.308c-1.182 0-32.561-.06-39.01-.06H35.652c-1.633 0-9.06-.589-9.06.753v7.777c0 1.344 7.657.753 9.312.753h29.447c6.046 0 35.2-.083 38.759-.083v4.115l-77.518.232-.252.251v7.275h77.769v4.014l-77.517.251-.252.25v7.777l77.769.251v4.014H26.34V100.5h27.186l-.003-.251.25-5.268c.703-4.553 2.014-6.526 4.782-9.282 7.657-5.06 18.484-1.992 19.884 7.777l.251 1.254.504 5.519v.251h18.624l.503-.251v-23.33H39.428v16.808h-5.285V72.655h70.47v32.36H73.631c.239-4.604 2.06-13.374-3.246-15.804-12.081-2.846-12.57 7.039-12.081 15.306l-36.493-.254c0-27.083.163-54.19.252-81.279h82.047zM14 114h99.206V14H14z" fill="#de0516"/></svg>