<svg width="128" height="128" fill="none" xmlns="http://www.w3.org/2000/svg"><path d="M93.15 37.6c-.85 0-23.4-.05-28.05-.05H43.95c-1.15 0-6.5-.4-6.5.55v5.6c0 .95 5.5.55 6.7.55H65.3c4.35 0 25.3-.05 27.85-.05v2.95l-55.7.15-.2.2v5.25h55.9v2.9l-55.7.2-.2.2v5.6l55.9.2v2.9h-55.9V90.4H56.8v-.2l.2-3.8c.5-3.25 1.45-4.7 3.45-6.7 5.5-3.65 13.3-1.45 14.3 5.6l.2.9.35 3.95v.2h13.4l.35-.2v-16.8h-42.4v12.1h-3.8V70.3H93.5v23.2H71.25c.15-3.3 1.5-9.6-2.35-11.35-8.7-2.05-9.05 5.05-8.7 11l-26.2-.2c0-19.5.1-39 .2-58.45h58.95zM28.5 100h71V28h-71z" fill="#de0516"/></svg>