<svg width="516" height="128" fill="none" xmlns="http://www.w3.org/2000/svg"><path d="M74.048 63.905c-10-10-20-20-29.953-30v-.096L63.81 14h.143l49.905 49.905c-.048.095-.143.19-.191.285zm-10.096 50.047-.143.048zM38.667 64.286c-.048-.048-.048-.143-.096-.19-4.095-4.144-8.19-8.239-12.285-12.334v-.143l15.238-15.238 27.81 27.762zM26.524 76.57c0-.047 0-.095-.048-.095zM14 64.048v-.096a935 935 0 0 1 9.714-9.714c3.381 3.38 6.81 6.762 10.19 10.19v.19zm10.333 10.095a.36.36 0 0 1-.19.095Z" fill="#00639e"/><path d="M63.81 114 44.047 94.19 74 63.952h39.809c-.047.095-.143.19-.19.286l-49.667 49.714zM41.713 91.857c-5.095-5.095-10.143-10.19-15.238-15.286 0-.047 0-.095-.047-.095l12.19-12.19c-.048-.048-.048-.143-.095-.191l30.762.095zm-17.571-17.62c-3.381-3.38-6.762-6.809-10.143-10.19v-.095l19.905.476v.19C30.715 67.81 27.524 71 24.38 74.19c-.095-.047-.143 0-.238.048" fill="#6088b7"/><path d="M476.809 76.333c-1.143-.666-2.81-3.095-2.762-4.333.571-.286.571-.286 2.476-.81 2.381-2 1.857-7.19 1.953-10-.048-3.238.333-7.81-.524-10.81h-.572c-7.047 3.144-9.333 5.62-14.047-.856-.143-.238-.238-.477-.381-.715-.143.096-.238.239-.381.334-1.619 7.143-.81 15.095-1.667 22.428-.667 1.572-1.524 2.81-3.238 1.429-2.238-5.667-.048-11.572-.571-17.381h-.477c-2.857 2-5.047 3.095-8.571 3.286.048-.286.143-.572.191-.858a748 748 0 0 0 8.38-16.238c1.048-3.19.096-3.523-2.714-4.619-1.047-.952-.238-2.428.238-3.428 2.191-2.429 4.81-5.857 7.381-7.953 1.095-.047 5.619 3.286 6.857 4.096 1.429 2.047.381 4.904-1.666 6.19-2.096.81-3.762 1.714-5.667 2.81.19 1.142 3.429 1.81 4.524 2.81.238 2.285-1.191 4.19-2.286 6.19.667.285 11-4.143 13.333-5.19 1.905-1.525 1.286-2.763 3.905-2.668 3.667.858 6.572-.666 10-2.095 1.048 0 1.476.429 2.191 1.286 2.714 1.857 5.381 1.905 4.142 5.857-.809.524-.809.524-1.571.762-2.905.333-5.905.524-8.619 1.476-.571 2.81-.191 6.81-.238 9.81-.143 4.428.095 9.428-1.381 13.762-2.381 3.523-2.667 4.666-6.905 5.38-.381 0-.857 0-1.333.048m-239.666-.143c-2.524-1.428-4.857-3.047-7.095-4.714-.239-.095-.524-.238-.762-.333v-.238c-2.048-1-2.477-.096-4.524.952-2.81.952-5.048.714-8 .714v-.524c.19-.047 3.714-2.666 3.809-2.81 1.048-.523 1.619-1.285 2.238-2.19-.714-.857-1.952-1.952-3.047-1.523C216 69 214.762 72 209.476 72c-.047-.048-.095-.143-.143-.19 1.572-3.144 5.334-4.81 6.715-8.048-.381-.286-.762-.62-1.143-.905-.096-1.19.285-1.095 1.333-1.62 3.762-.618 5.286-1.904 2.905-5.523-.381-2.333-1.381-3.238-3.619-3.238.095.524.285.524.762.905v.238c1.285.38 1.238 4.19 1.238 5.333-.857 1.238-1.524 1.238-2.953 1.238-1.904-1.095-1.238-4.619-1.238-6.428.619-.62-.714-1.524 1.143-1.667-.238-.714-.428-.857-.524-1.428.238-.334.238-.334.715-.572 3.761-1.286 7.714-2.476 11.571-3.571.143-.143 4-1.096 5.333-1.62 2.667-1.618 4-.618 6.762.667l.857.715c0 2.047-2.571 2.666-4.142 3.476-.048.095-.048.19-.096.285 2.81.572 7.762.858 4.238 4.858-.904.619-1.143.904-2.333.904-1.095-.761-1.905-2.095-2.333-2.761-.286-1.286-2.953-1.62-3.905-1.191-.048.095-.048.19-.095.286.524.571.524.571.904.762v.238c1.143.857 2.62 1.857 3.334 3.238-.048.857.047 1.81-.381 2.571-3.524 2.048-2.476 1.381-3.619 5.048-.81.81 4.095 2.905 4.571 3.19 5.762 1.905 14.381 4.19 13.572 6.286-3.143 2.143-8 2.524-11.762 2.714m-90.524-51.285h3.095c3.048-.048 8.286-.238 10.286-2.953 2.048-1.38 4.286 1.905 5.095 3.62.191 2.19-2.238 2.857-3.857 3.523-.238.857-.238.857-.381 2 1.095 1.334 9.714-.238 11.762-.571 2.286.143 4.381.762 6.191 2.333 1.333 2.429-.239 4.571-2.62 5.381l-4.761.143c-2.81-.048-7.715-.62-10.143.762 0 .238 0 .428-.048.666 1.048.667 5.333.334 7.143.477 2.571.714 5 2.285 6.714 4.523.429 1.286.096 2.524-.333 3.81-1.667 2.571-4.238 4.38-6.762 6.047-.381.334-.714.667-1.095 1.048-1.81.667-3.81.286-5.381 1.048-.095.619-.238.762.143 1.38 1.381 0 2.571-.237 4-.57 2.857.094 7.714.904 5.333 4.904-2.524 2.476-5.809 1.286-8.476 2.714-.191.286-.191.286-.333 1.477 1.809 1.285 4.476 1 6.571.19 2.524 0 6.619 1.38 8.333 3.667.143.857.191.81 0 1.666-1.143 1.334-1.666 1.429-3.333 1.857h-3.095C168.905 74 167.143 74 165.381 74c-1.143-.048-2.333-.048-3.476-.048-5.81.524-5.81.524-10.048 1.095-1.524.048-6 .667-6.762-1.38h-.238v-.239c-.762-.428-1.524-2.142-1.524-2.952h-.238c.048-.238.048-.476.096-.667.19-.095.428-.19.619-.238.952-.047 10.238.096 10.238-2.571-.572-.19-.572-.19-2.619-.429-1.334-.666-3.286-2.714-3.191-4.143 1.619-.857 4.762-.38 5.857-1.904.048-.286.096-.62.143-.905-2-.095-3.619.81-5.666.476-2.239-1.143-3.048-2.762-4.286-4.714-1.572-3.095-2.905-6.62-3.286-10 .429-.62 3.429-.334 4.238-.334 1.905-.619 6.238-1.476 7.81-2.619 0-1.571-.048-1.38-1.572-1.428-4.047.857-7.857 2.619-11.857 3.19-1.19.19-2.143.286-3.238.048-2.333-.905-4.286-3.381-4.857-5.714-.667-.667-.333-1.62.238-2.048 6.667-.428 13.238-1.81 19.905-2.857.952-.524.428-2.572.19-3.429-2-2-5.762.381-7.524-2.333-.285-.81-.666-1.762-.381-2.476.905-.476 1.62-.429 2.667-.476m262.809 30.238c.286-.286.095-2.62.048-3.048.095-6.095.19-12.238.238-18.333-.334.095-.334.095-1.381.714-2.048.476-4.381 1.238-6.476 1.429.238-1.048.428-1.667.285-2.62-.095 0-.19 0-.285-.047-1.143 1.095-3.429 5.048-3.715 6.524.953-.476 1.619-1.238 2.524-1.715 1.714-.142 5.81-.666 5 2.381-.571.858-2.428 2.81-2.619 3.715.952-.048 3.81-.81 4.381-.477.286 3.572-2.333 5.382-4.809 7.334-.429 1.333-.477 2.666-.429 4.143.238-.286.524-.572.762-.857.905-3.096.905-2.953 4.19-3.096 1.143 2.715-2.571 6.238-4.285 8.048-.524.762-.524.762-.572 1.095 1.572 0 2.953-2.238 5.238-2.143 1.572 1.858-.047 4-1.285 5.477-3.81 2.57-8.143 4.476-12.191 6.476-2.524-.048-3.667-1.762-3.905-4.048.096-.19.191-.428.286-.619 1.762-1.524 7.524-3.333 7.381-6.095-1 .857-2.571 1.571-3.476.333-.238-2.095-.381-2.905-1.238-4.619 1.285-.667 2.095-.095 3.095.905.571 0 .952-.286 1.571-.476.048.19.048.19.239.238v-2.429c-1.62-.571-4.905-1.571-4.81-3.666 1.667-1.096 3.524-1.334 5-2.953 0-.38-.048-.81-.048-1.19-.904-.477-1.571-.953-2.476-.953-2.905 3.81-5.571 7.429-10.047 9.477-.667.142-1.143.333-1.096-.477 5.905-8.285 8.905-16.857 11.524-26.523 2.095-.858 4.905.19 6.905 1.047 1.428 1.334 2.524.905 4.381 1.476.571.381 1.524 1.476 2.047 1.62.191-4.762.334-2.905 5.191-3.572 1.905-.81 2.667-2.905 4.714-3.62 3.333-.047 5.429 1.62 8.381 3 .714 1 .572 1.668-.048 2.715-1.571 1.762-2.904 3.143-3.857 5.381-.809 4.333-1.666 8.476-2.285 12.905-.762 2.666-.572 1.524-2.953 1.428a122 122 0 0 0-3.143 2.096v.571l1.953 1.762c1.762 0 5.333-5.286 6.286-6.571.38-.334.476-.477.999-.572 2.286 1 5.381 2.667 3.858 5.81-2.096 2.095-4.619 2.81-7.286 3.857-.524 1.571 4.809 4.333 6.048 5 3.047 1.143 6 2.19 9.095 3.428.524.334 1.143.62 1.19 1.334-3.285 3.333-11.428 5.619-14.809 1.476-.619-.286-.619-.334-1.238-.238A327 327 0 0 0 414.857 72c-1.381.714-5 3.38-6.953 2.333-3.285-3.905-1.333-2.428.476-5.714 1.096-4.333.905-9 1.048-13.476m-43.666 17.619c-.81-.048-1.572-.143-2.381-.19C358.714 69 355.762 63.856 352.714 59c-.095 0-.191 0-.238.047-1.81 2.572-3.572 5-5.524 7.429-1.762 1.238-6.952 4.095-9.048 2.81v-.429c3.334-3 8.953-7.19 10.096-11.905.381-.666.714-1.047.381-1.762-2.619-1.714-6.381-5.238-7.477-.476-.523.667-.952 1.143-1.666 1.476-.572-.523-1.048-1.19-1.572-1.523-2.952.333-7.047 5.142-10.476 6.618h-1.666c-1.239-.857-2.905-2.57-2.905-4.047.428-.286.809-.572 1.238-.81 1.143-1.81-1.095-4.81-1.095-6.761 1.666-1.143 3.619.523 4.428 2.047.191 1.19-.047 3.143 1.667 2.19.905-2.142.286-7.523.238-9.333-.667-.714-.048-3.428-.524-3.904-.143-1.524-1.714-5.286-.476-6.524 2.095-.81 5.524.047 7.524 1.143.143.238.143.238.381.333.095 3.047-.619 4.619-1.334 7.619-.095 2.19-.762 5.905-.047 7.952.857 0 1.714.238 2.238-.666.428-1.905-.048-3.858.286-5.81 1.523-.952 2.904.334 3.714 1.572.19.952.381 1.857.571 2.81h.334c.952-1.144 2.761-4.048 2.761-5.239 1.239-.571 2.953.476 3.905 1.381.905 1.81-.524 2.952-1.809 4.095 0 .143-.048.286-.048.476.81.19 1.667.381 2.476.572.048-.048.095-.095.191-.095.666-3.19.571-6.715.714-9.953-1.619-.428-1.619-.428-1.952-.619-1.143-1.428-1.905-2.81-2.286-4.476.286-.762 3.381-1.381 4.095-1.572 1.381-.666.81-5.761.762-7.19 1.905-1.524 2.238-1.38 4.571-.619.096.238 2 .905 2.524 1.19.191.334.905 1.715.619 2.143.048.143.096.238.143.381 2.476-1.047 2.524-.81 5.238.143.048.143.048.143.334.238v.238c1.095.334.428 2.286.142 3.096-.047 0-.142 0-.19.047-1.571 2.048-4.714 3.048-6.952 4.143-1.048 2.905-1.096 5.952-1.334 9.048 1.191-.238 3.381-4.572 3.715-5.953.904-.952-.381-2.285 1.666-2.285 2.238 1 4.048 2.095 3.238 5l-2.714 3.571c1.571 1 4.952.095 6.191 1.857 0 2.476.238 3.19-2.81 3.19-2.048-1-3.857-3.238-6-2.666-2.143 1.619-5.286 1.952-2.762 4.952.333.143.429.477.619.905h.238c.953 1.238 2.286 2.905 4.048 4.476 2.714 3.048 9 6.524 13.714 9.762v.381c-1.809 1.62-6.857 2.857-9.047 3.048m-94.429-1.096c-.667-.571-1.047-.619-1.238-1.285-1.286-.715-2.095-3.381-2.429-4.667.953-1 2.667-1.38 4.048-1.571.333-.334 3.619-.905 4.381-.905.143-.143 2.333-.381 2.429-.524 3.571-.428 7-1.047 10.666-1.143.334-.333 7.334-.428 8.381-.428l3-1.143c1.191.143 5.667 3.571 6.714 4.238 1.572 1.286 2.239 1.952 1.572 4.19-1.238 1.905-1.905 1.953-4.048 2.096-.143-.143-3.857-.572-6.571-1.096-6.095-.571-11.81-.19-17.762.524-2.143.476-4.238 1.19-6.333 1.667-.953-.048-1.905 0-2.81.047M197 71.525c-.571-.953-.619-1.048-.619-2.048h.19c1.381-1.476 2.334-3 3-4 2.191-4.524 2.191-4.524 2.191-4.81 2.428-3.618 6.619-24.666 6.809-25.761.048-.048.143-.048.191-.096.095-.904.571-2 1-2.714.19-.143 6.476-.143 7.428-.238.429-.19.858-.333 1.286-.524 1.762-1.524 2.238-6 2.143-8.238.524-.524 1.524-.905 2.238-1.095 0-.048.048-.095.048-.19 1.619-.239 4.285 2.476 5.809 3.619.905 1.333.524 1.619.429 3 .905.57 3.143-.239 4.143-.477 1.857 0 6.047-.476 4.809 2.667-1.428 1.238-4.143 1.428-5.905 1.476-.857.19-1.714.381-2.571.62-.333.666-.238 1.475-.238 2.285.428.238.524.333 1.095.333 2.952-.762 5.429-1.047 7.714 1.381-.047.476-.047.953-.047 1.429-1.048 1.666-2.191 3.285-3.667 4.476-2.333 1.333-4.952 1.81-7.476 2.476-2.619 1.333-6.524 3.62-9.571 2.572-2.81-2.048-1.905-2.239.714-3.572.714-1.857-.143-2.095-1.524-2.762-1.619-2.285-.238-1.285 1.429-3 .238-1.238.666-1.571-.096-2.571-1.857-.095-1.857-.19-2.714 1.333-1.667 5.81-3.476 11.429-4.952 17.333-1.619 5-4 12.334-8.191 15.62-2.047.952-3.047 1.38-5.095 1.476m216.999-4.667c1.239-.19 4.762-1.714 4.667-3.143-.857-.81-1.428-1.38-1.952-2.286h-.238c-.048-.238-.381-.523-1.905-2.761h-.286c-.524 2.238-.666 5.857-.286 8.19m-189.428-4.81 1.143-.142c.048-.524.095-.762-.143-1.143-.476 0-1.143-1.096-2.095-.429-.238 1.334 0 1.048 1.095 1.715m55-3.19c-.047-.048-.143-.095-.19-.143.238-1.524 1.238-2.143.857-3.905-.619-1-1.857-2.142-2.143-3.095-.048 0-.143-.047-.19-.047-.572-1.191-1.096-1.905-1.048-3.191 1.619-1.238 3.809-1.857 5.809-2.476 2.096-.953 4.143-1.857 6.239-2.81 2.142 0 4.523 1.286 6.571 2.19 1.381 1.62.476 3.525-.571 5.191-2.143 1.19-4.239 1.857-6.524 2.572-3 1.666-5.715 3.571-8.476 5.571-.143.095-.239.095-.334.143m-53.143-2.62c.905-.047 1.762 0 2.62-.523.047-.81.095-1.095-.239-1.666-1.666-.143-2.095.666-3.619-.477-.333-.428-.904-1.285-1.285-1.38-.905-1.858-2.477-1.715-3.619-.048 1.285 2.523 3.476 3.285 6.142 4.095m-76.095-.761c1.762-.095 3.81-.428 3.715-2.619-1.096-.619-3.857-1.286-3.857-2.619 1.381-1.286 3.047-.381 3.285-2.667-1.143-.143-4.285 1.096-4.809 1.953 0 2.19.238 4.095 1.666 5.952m259.095-.333c0-1 .048-2.048.048-3.048.047.429.238 2.762-.048 3.048m-247.19-2.81c1.333-.238 3-1 2.857-2.666-1.714.428-3.571.285-3.524 2.333.239.095.429.238.667.333m65.143-1.428c1.905-.143 1.333-.096 2.333-1.953-.047-.143-.095-.285-.095-.428-1.191-.143-4.333.619-4.81 1.285.715.715 1.477.81 2.572 1.096m-61.524-2.762c1.048-1.048 1.048-2.143.857-3.524-2.047-.857-2.809-.714-4.952-.238-2.238 1.285 2.905 1.81 3.476 2.19.191.524.381 1.048.619 1.572M414.619 46c2-.857 2.619-2.429 2.285-4.429-2.285-.952-2.571 3.048-2.285 4.429m-191.762-3.762c.762-.095 1.286-.667 1.667-1.286-.096-.19-.238-.428-.334-.619-1 .048-1.857.857-1.333 1.905m56.571-.905c-1.666-1.762-3.714-7.285-3.428-9.904.905-.524 4.476-1.239 5.905-1.239.142-.143 3.285-.571 6.952-1.285.143-.143.143-.143 2.19-.572 2.191-1.238 2.477-1.714 4.905-.762 4.286 2.524 4.714 1.905 4.572 6.667-.143.143-.143.143-.334.762-.571.667-.571.666-1.285 1.143-2.905 1.238-5.953 1.714-9 2.19-.143.143-1.048.238-1.143.381-2.953.762-5.715 1.334-8.381 2.572h-.953zm-51.333-.905c1.286-.095 1.333-.047 2-1.142-.095-.429-.095-.429-.238-.572-1 .238-1.095.714-1.905 1.143 0 .381 0 .381.143.571m-56.666-2.047 4.761-.143v.19c-1.571-.047-3.142-.047-4.761-.047m244.38-1.048c.333-.095.714-.143 1.048-.238.619-.81 1.095-3.095 1.047-4.095-.714-.429-1.19-.953-1.952-.572-.905 1.715-.953 2.524-1 4.524.286.143.571.286.857.381m62.524-.285c-3.238-.953-3.905-5.286-4.81-8-.143-.715-.286-1.334-.19-2 1.19-.381 3.19-.81 4.523-.81 2.191-1.048 2.191-1.048 3.858-2.095 4 1 7.19.857 5.809 6.047-2.047 3.429-5.095 6.572-9.19 6.857m-254.762-.096c1.572-.333 1.429-.714 1.334-2.333-1.429-.048-1.381-.143-2.048 1.047l-.857.143c.143 0 .238.048.381.048v.19c.476.096.714.524 1.19.905M227.619 106c-2.191-.81-3.952-1.429-6.143-1.667-.286-.048-.762-.095-.619-.381l.191-.428c.19-.429.38-.715.38-1.191-.952-.905-1.571-1.619-2.38-3.095-.762-1.762-.62-4.905-.143-6 1.095-2.81 3.571-4.429 5.285-4.667 1.667-.524 6.286-.524 8.572 3.095 3 5.62-.143 10.81-5.619 11.905 0 .048-.048.143-.048.238.572.238 2.905.81 3.524 1.619l-1.381 1.238c-.19.143-.952-.381-1.619-.666m-2.381-5.048c2.048.286 3.857-.524 4.952-2.333 2.286-5.286-2.095-9.524-6.476-6.953-.905.62-1.619 1.762-2.047 2.953-.667 3.143.571 5.428 3.571 6.333m263.809 2.429V90.476c.048-1 .619-1.524 1.667-1.667 1.047.048 1.571.62 1.666 1.667v4.81l5.476-5.858a2.06 2.06 0 0 1 1.286-.619c1 .19 1.524.715 1.667 1.667 0 .524-.381 1.095-1.143 1.762l-4.143 4.19 5.095 5.334c0 .047.048.095.096.19q.857.928.857 1.572c-.048.952-.619 1.381-1.715 1.381q-.856 0-1.714-.858l-5.714-6.285v5.666c-.095 1-.667 1.477-1.667 1.477-1.143 0-1.714-.524-1.714-1.524m-16.524-.048V90.619c0-1.095.572-1.667 1.667-1.762.571.143 1.047.38 1.381.762l7 9.428h.095v-8.476c0-1.095.524-1.666 1.667-1.762 1.047.048 1.571.62 1.666 1.762v12.714c-.047 1.048-.619 1.572-1.666 1.572-.572 0-1.048-.191-1.381-.619l-7.048-9.286h-.095v8.381c-.048 1.048-.619 1.572-1.667 1.572-1.047 0-1.619-.524-1.619-1.572m-8.952-11.095-2.095 6.428h4.142zm-6.857 10.476 4.523-12.143c.381-1.143 1.191-1.762 2.334-1.81 1.095.048 1.905.667 2.428 1.81l4.334 12.143c.047.429.095.714.19.857-.047.857-.571 1.334-1.571 1.334-.857 0-1.429-.334-1.667-1.048l-.619-2.095h-6.143l-.714 2.095c-.286.714-.857 1.048-1.667 1.048-1 0-1.524-.477-1.571-1.381v-.619c.143-.096.143-.143.143-.191m-9.667-4.476v3.667h2.619c1.333 0 2-.62 2.095-1.905-.047-1.096-.857-1.667-2.333-1.762zm0-6.286v3.334h1.714c1.096-.048 1.715-.62 1.81-1.762-.048-.953-.667-1.477-1.81-1.572zm-3.286 11.286V90.667c0-1.048.572-1.62 1.715-1.667h4.238c2.619.238 4 1.524 4.143 3.904 0 1.62-.715 2.715-2.096 3.239v.095c2.096.476 3.191 1.714 3.381 3.762-.095 3.19-1.809 4.809-5.095 4.905h-4.571c-1.143 0-1.715-.572-1.715-1.667m-12.857-14.476c2.762.19 4.238.904 4.334 2.19-.096 1.095-.62 1.667-1.477 1.667-.285 0-.714-.048-1.19-.19q-.715-.358-1.714-.43c-1.191.048-1.81.525-1.81 1.382 0 .619.857 1.238 2.524 1.762 3.286.952 4.952 2.571 4.952 4.904-.238 3.143-2.143 4.81-5.714 4.953-3.524-.048-5.333-.857-5.381-2.334.048-.952.571-1.476 1.476-1.571.476.048.953.19 1.476.429.905.285 1.667.428 2.238.428 1.429 0 2.191-.619 2.239-1.905 0-.714-.905-1.285-2.762-1.81-3.048-.856-4.572-2.332-4.572-4.38.143-3.143 1.953-4.81 5.381-5.095m-16.333 14.476V90.952c0-1.238.571-1.857 1.667-1.905h5.523c.905.048 1.429.572 1.572 1.477q-.143 1.57-1.572 1.571h-3.904v3.238h3.619c1 .095 1.523.62 1.666 1.572-.095 1-.666 1.523-1.666 1.571h-3.619v3.381h4.047c1 .048 1.524.571 1.572 1.476q-.143 1.572-1.572 1.572h-5.714c-1-.096-1.571-.62-1.619-1.667m-26.952-11.19v3.904h2.238c1.333 0 2-.619 2.095-1.905-.048-1.285-.762-1.952-2.095-2zm-3.286 11.285V90.762c-.048-1.096.476-1.667 1.667-1.762h3.904c3.619.047 5.476 1.762 5.524 5.047-.095 2.334-1.476 3.715-4.048 4.19l3.715 4.096c.285.286.428.619.428.952-.095 1.048-.666 1.572-1.666 1.572q-.929 0-1.286-.429l-4.952-6v4.905c-.048 1.048-.619 1.572-1.667 1.572-1.095 0-1.619-.524-1.619-1.572m-10.191 1.619c-4.809-.238-7.333-2.905-7.619-8 .334-5.047 2.905-7.81 7.619-8.19 4.667.428 7.238 3.142 7.619 8.19-.381 5.095-2.904 7.81-7.619 8m0-2.857c2.667-.095 4.096-1.81 4.239-5.143-.239-3.238-1.667-4.952-4.239-5.143q-4 .285-4.142 5.143.143 5 4.142 5.143m-39.857 1.143V90.952c0-1.238.572-1.857 1.667-1.905h5.524c.905.048 1.428.572 1.571 1.477q-.143 1.57-1.571 1.571h-3.905v3.238h3.619c1 .095 1.524.62 1.667 1.572-.095 1-.667 1.523-1.667 1.571h-3.619v3.381h4.048c1 .048 1.523.571 1.571 1.476q-.143 1.572-1.571 1.572h-5.715c-1-.096-1.571-.62-1.619-1.667m-11.428 0V90.952c0-1.238.571-1.857 1.666-1.905h5.524c.905.048 1.429.572 1.572 1.477q-.143 1.57-1.572 1.571h-3.904v3.238h3.619c1 .095 1.523.62 1.666 1.572-.095 1-.666 1.523-1.666 1.571h-3.619v3.381h4.047c1 .048 1.524.571 1.572 1.476q-.143 1.572-1.572 1.572h-5.714c-1-.096-1.524-.62-1.619-1.667m-10.191-11.19v3.904h2.238c1.334 0 2-.619 2.096-1.905-.048-1.285-.762-1.952-2.096-2zm-3.285 11.285V90.762c-.048-1.096.476-1.667 1.666-1.762h3.905c3.619.047 5.476 1.762 5.524 5.047-.095 2.334-1.476 3.715-4.048 4.19l3.715 4.096c.285.286.428.619.428.952-.095 1.048-.667 1.572-1.667 1.572q-.928 0-1.285-.429l-4.953-6v4.905c-.047 1.048-.619 1.572-1.666 1.572-1.048 0-1.619-.524-1.619-1.572m-16.762 0V90.619c0-1.095.571-1.667 1.666-1.762 1.048.048 1.572.619 1.667 1.762v4.714h6.953V90.62c0-1.095.571-1.667 1.714-1.762 1.047.048 1.571.619 1.666 1.762v12.714c-.047 1.048-.619 1.572-1.666 1.572q-1.714 0-1.714-1.572v-4.905h-7v4.905c-.048 1.048-.62 1.572-1.667 1.572-1.095 0-1.619-.524-1.619-1.572m-9.143 0V92.095h-2.429q-1.214 0-1.285-1.571c.047-.953.476-1.429 1.285-1.477h8.238c.858.048 1.334.572 1.477 1.477-.048 1.047-.524 1.571-1.477 1.571h-2.428v11.238c-.095 1.048-.714 1.572-1.714 1.572-1.143 0-1.667-.524-1.667-1.572m-15.619-7.857h3.714c1.334 0 1.334.714 1.238 2.19l-.19 3.858c0 .285-.191 1.047-.572 1.428-1.238 1.381-3.381 2.048-5.809 2-4.81-.095-7.333-2.905-7.619-8 .333-5.047 2.905-7.81 7.619-8.19q5.357.357 6.143 3.142c-.048 1-.524 1.524-1.381 1.572-.476 0-1-.19-1.572-.62-1.047-.713-2.095-1.047-3.19-1.047q-4 .285-4.143 5.143c.095 3.333 1.524 5.143 4.143 5.143 1.619 0 3.095 0 3.762-1.095.333-.524.238-1.762.286-2.476h-2.429q-1.572 0-1.571-1.572c.047-.857.619-1.38 1.571-1.476m-56.714-.048h3.714c1.333 0 1.333.715 1.238 2.19l-.19 3.858c0 .286-.191 1.048-.572 1.429-1.238 1.38-3.381 2.047-5.809 2-4.81-.096-7.334-2.905-7.619-8 .333-5.048 2.904-7.81 7.619-8.19q5.357.356 6.143 3.142c-.048 1-.524 1.524-1.381 1.571-.477 0-1-.19-1.572-.619-1.047-.714-2.095-1.047-3.19-1.047q-4 .285-4.143 5.142c.095 3.334 1.524 5.143 4.143 5.143 1.619 0 3.095 0 3.762-1.095.333-.524.238-1.762.285-2.476h-2.428q-1.572 0-1.572-1.572c.048-.904.619-1.38 1.572-1.476m147.809.143h3.714c1.334 0 1.334.715 1.238 2.19l-.19 3.858c0 .286-.191 1.047-.572 1.428-1.238 1.381-3.38 2.048-5.809 2-4.81-.095-7.333-2.904-7.619-8 .333-5.047 2.905-7.81 7.619-8.19q5.357.357 6.143 3.143c-.048 1-.524 1.524-1.381 1.571-.476 0-1-.19-1.572-.619-1.047-.714-2.095-1.047-3.19-1.047q-4 .285-4.143 5.142c.095 3.334 1.524 5.143 4.143 5.143 1.619 0 3.095 0 3.762-1.095.333-.524.238-1.762.286-2.476h-2.429q-1.572 0-1.571-1.572c.047-.857.619-1.333 1.571-1.476m47.333-.095h3.714c1.334 0 1.334.714 1.239 2.19l-.191 3.858c0 .285-.19 1.047-.571 1.428-1.238 1.381-3.381 2.048-5.81 2-4.809-.095-7.333-2.905-7.619-8 .333-5.047 2.905-7.81 7.619-8.19q5.358.357 6.143 3.142c-.048 1-.524 1.524-1.381 1.572-.476 0-1-.19-1.571-.62-1.048-.713-2.096-1.047-3.191-1.047q-3.999.285-4.143 5.143c.096 3.333 1.524 5.143 4.143 5.143 1.619 0 3.095 0 3.762-1.095.333-.524.238-1.762.286-2.476h-2.429q-1.57 0-1.571-1.572c.047-.857.571-1.38 1.571-1.476m-163.428 7.857V90.619c0-1.095.571-1.667 1.667-1.762.571.143 1.047.38 1.381.762l7 9.428H253v-8.476c0-1.095.524-1.666 1.667-1.762 1.047.048 1.571.62 1.666 1.762v12.714c-.047 1.048-.619 1.572-1.666 1.572-.572 0-1.048-.191-1.381-.619l-7.048-9.286h-.095v8.381c-.048 1.048-.619 1.572-1.667 1.572-1.095 0-1.619-.524-1.619-1.572m-6.286 0V90.619c0-1.095.572-1.667 1.667-1.762 1.048.048 1.571.619 1.667 1.762v12.714c-.048 1.048-.619 1.572-1.667 1.572-1.143 0-1.667-.524-1.667-1.572m-50.428 0V90.619c0-1.095.571-1.667 1.667-1.762.571.143 1.047.38 1.38.762l7 9.428h.096v-8.476c0-1.095.523-1.666 1.666-1.762 1.048.048 1.572.62 1.667 1.762v12.714c-.048 1.048-.619 1.572-1.667 1.572-.571 0-1.047-.191-1.381-.619l-7.047-9.286h-.095v8.381c-.048 1.048-.619 1.572-1.667 1.572-1.095 0-1.619-.524-1.619-1.572m-10.048 1.619c-4.809-.238-7.333-2.905-7.619-8 .334-5.047 2.905-7.81 7.619-8.19 4.667.428 7.238 3.142 7.619 8.19-.333 5.095-2.857 7.81-7.619 8m0-2.857c2.667-.095 4.095-1.81 4.238-5.143-.238-3.238-1.666-4.952-4.238-5.143q-3.999.285-4.143 5.143.144 5 4.143 5.143m-23.714 1.238V90.619c0-1.095.571-1.667 1.667-1.762 1.047.048 1.571.619 1.666 1.762v4.714h6.953V90.62c0-1.095.571-1.667 1.714-1.762 1.048.048 1.571.619 1.667 1.762v12.714c-.048 1.048-.619 1.572-1.667 1.572q-1.714 0-1.714-1.572v-4.905h-6.953v4.905c-.047 1.048-.619 1.572-1.666 1.572-1.096 0-1.667-.524-1.667-1.572M137 96.953c.333-5.049 2.905-7.81 7.619-8.191 3.048.19 4.667 1 4.762 2.428-.048 1-.476 1.477-1.286 1.477-.285 0-.666-.048-1.143-.191-.523-.286-1.285-.476-2.333-.524-2.667.19-4.047 1.857-4.143 5.048.191 3.143 1.572 4.762 4.143 4.905.762.047 1.572-.143 2.429-.62.476-.238.857-.333 1.143-.333.809.048 1.285.572 1.476 1.572-.095 1.571-1.81 2.381-5.048 2.428-4.809-.19-7.333-2.905-7.619-8" fill="#1b1918"/></svg>