<svg width="628" height="128" fill="none" xmlns="http://www.w3.org/2000/svg"><path d="m573.675 94.882 10.079 15.529V97.812c0-.293 0-.586-.059-.879s-.117-.527-.293-.586c-.117-.117-.293-.176-.469-.234-.234-.059-.41-.059-.644-.059h-1.641v-1.055h7.266v1.055h-1.055c-.41 0-.761.059-.996.117s-.41.176-.527.293-.176.352-.235.645-.058.586-.058.82v19.221h-1.758l-11.603-17.873v14.708c0 .235 0 .469.059.703l.059.235c.058.293.117.527.234.644a.85.85 0 0 0 .527.352c.235.117.586.117.938.117h1.406v1.055h-7.324v-1.055h1.172c.293 0 .585-.058.82-.117s.41-.176.586-.352c.117-.117.234-.351.293-.644s.117-.586.117-.938V98.046c0-.351-.059-.586-.059-.82a1.6 1.6 0 0 0-.468-.879q-.352-.352-1.231-.352h-1.172v-1.054h6.036zM164.539 95l.352 7.266h-.997l-.058-.175-.059-.293c0-.059 0-.176-.058-.235-.059-.351-.118-.586-.176-.82-.059-.234-.176-.527-.293-.879s-.352-.703-.645-1.113a5.7 5.7 0 0 0-1.055-.997c-.41-.293-.879-.527-1.406-.761-.527-.235-.996-.41-1.406-.47-.41-.116-.762-.116-1.114-.175a4.7 4.7 0 0 0-1.347.176 2.9 2.9 0 0 0-1.114.586c-.351.234-.703.644-.996 1.113s-.586.996-.762 1.582-.351 1.114-.469 1.758c-.117.586-.175 1.231-.234 1.934s-.059 1.406-.059 2.051 0 1.289.059 1.934c0 .937.059 1.758.176 2.402.058.645.234 1.289.469 1.934s.527 1.231.937 1.758.879.938 1.407 1.289a5 5 0 0 0 1.523.703c.469.118.938.176 1.348.176.234 0 .586-.058.937-.117a5.2 5.2 0 0 0 1.172-.352c.411-.175.821-.41 1.172-.761a7 7 0 0 0 .938-.938c.234-.352.527-.703.82-1.172l.235-.41.117-.235c.059-.117.117-.292.176-.351l.469-.996.82.469-.352.761-.351.703c-.176.352-.352.645-.528.938-.175.293-.41.645-.703.996a10 10 0 0 1-1.113 1.114c-.469.41-.938.703-1.407.937-.468.235-1.054.41-1.64.586a9 9 0 0 1-1.7.176c-.351 0-.761 0-1.172-.059s-.879-.117-1.465-.234-1.289-.41-2.109-.82c-.821-.411-1.524-.938-2.11-1.641q-.966-.967-1.406-2.11a12 12 0 0 1-.762-2.168 15 15 0 0 1-.351-1.758l-.059-.351c-.059-.411-.059-.821-.059-1.348 0-.879.059-1.582.059-2.051.059-.469.117-.996.234-1.524.118-.527.235-1.054.469-1.582.176-.527.469-1.055.703-1.582.293-.527.586-.996.938-1.465.351-.469.703-.879 1.172-1.23.469-.352.937-.704 1.465-.997.527-.293.996-.527 1.465-.644.469-.118.879-.235 1.289-.293.352-.059.703-.059.996-.059h.41l.352.059c.293.058.527.058.762.117.234.058.469.117.82.176.352.117.703.234 1.113.351l.704.293.703.293.234.059c.117.058.176.058.293.117.176.059.352.059.528.059a.66.66 0 0 0 .468-.176.74.74 0 0 0 .235-.528l.234-.937h.762zm108.232 0c.527 0 1.054 0 1.64.059s1.114.117 1.641.176c.528.058 1.114.293 1.875.527.762.293 1.407.703 2.11 1.172.645.527 1.23 1.113 1.641 1.758.41.645.82 1.465 1.113 2.403s.469 1.816.527 2.695l.059.645c.059.586.059 1.113.059 1.64 0 .528-.059 1.114-.059 1.758-.059.645-.117 1.29-.234 1.934a11 11 0 0 1-.528 1.875c-.234.645-.644 1.231-1.172 1.934-.527.645-1.172 1.231-1.875 1.758a7.4 7.4 0 0 1-2.109 1.113 7.8 7.8 0 0 1-1.7.411c-.351.058-.82.058-1.289.117l-.82.058h-10.372v-1.172h.586c.293 0 .586 0 .879-.058s.527-.117.644-.293c.117-.117.235-.293.293-.528.059-.234.059-.527.059-.937v-16.76c0-.351-.059-.644-.117-.761-.118-.117-.235-.234-.411-.352a2.1 2.1 0 0 0-.644-.117h-1.289v-1.172h9.493zm233.34-.117v7.618h-1.055l-.117-.82c-.059-.293-.118-.821-.293-1.465a33 33 0 0 0-.528-1.758 5.3 5.3 0 0 0-.703-1.407 2.8 2.8 0 0 0-.879-.82c-.293-.176-.645-.235-1.055-.235h-1.992v17.99c0 .293.059.528.117.762.117.234.234.41.352.586q.175.175.703.352c.293.117.703.117 1.113.117h1.114v1.172h-11.31v-1.172h1.348c.351 0 .703-.059 1.055-.117q.44-.088.703-.352c.176-.117.293-.352.351-.586.059-.234.118-.527.118-.879V95.995h-1.817c-.469 0-.879.059-1.172.118s-.527.234-.82.468-.528.528-.821.88c-.234.351-.469.82-.644 1.289a12 12 0 0 0-.469 1.582 71 71 0 0 1-.352 1.641l-.117.468h-.996v-7.618h18.166zm-187.575 0v1.113h-.703c-.234 0-.469.059-.762.118s-.527.234-.703.468-.234.47-.234.82c0 .352.058.587.117.763l4.512 13.067 3.75-11.895c.059-.235.176-.586.235-.88.058-.292.058-.644.058-.878 0-.47-.117-.82-.293-1.055-.175-.235-.41-.352-.644-.469a3.6 3.6 0 0 0-.879-.117h-1.114v-1.114h7.384v1.114h-.586c-.235 0-.469.058-.762.117-.234.059-.469.176-.645.234-.175.118-.351.293-.527.586s-.293.586-.41.88l-6.094 19.103h-2.051l-6.446-18.107c-.235-.645-.469-1.172-.762-1.524s-.586-.645-.938-.82a2.8 2.8 0 0 0-.996-.41c-.351-.06-.586-.118-.703-.118h-.41v-1.113h10.606zm43.949.117v1.114h-.703c-.234 0-.469.058-.703.117-.235.058-.41.176-.586.293-.117.117-.235.351-.293.703a7 7 0 0 0-.117 1.348v15.118c0 .528 0 .879.058 1.114.059.234.176.468.293.586s.352.234.645.293.586.058.937.058h3.341c.293 0 .703-.058 1.289-.117.527-.117 1.055-.234 1.582-.41a3.2 3.2 0 0 0 1.289-.879c.352-.41.645-.762.82-1.114.176-.351.293-.644.411-.937.058-.235.117-.41.175-.586l.176-1.172.117-.703h1.055l-.586 7.207h-18.4v-1.172h.586c.352 0 .645-.058.996-.117.293-.058.528-.176.645-.351.117-.176.234-.411.234-.704s.059-.586.059-.996v-15.06c0-.293 0-.586-.059-.879l-.058-.234c-.059-.41-.176-.703-.293-.879a.85.85 0 0 0-.528-.352 3.5 3.5 0 0 0-.879-.117h-.644v-1.113h9.141zm108.466-.058 10.079 15.411v-12.54c0-.293 0-.586-.058-.879s-.117-.469-.293-.586c-.117-.117-.293-.176-.469-.234s-.41-.059-.703-.059h-1.641V95h7.266v1.055h-1.055c-.41 0-.761.059-.996.117s-.41.176-.527.293-.176.352-.234.645-.059.586-.059.82v19.103h-1.758L468.9 99.277v14.65c0 .293 0 .586.059.879s.117.527.234.644a.86.86 0 0 0 .528.352c.234.117.586.117.937.117h1.407v1.055h-7.325v-1.055h1.172c.293 0 .586-.059.82-.117a.86.86 0 0 0 .528-.352c.117-.117.234-.351.293-.644s.117-.586.117-.938v-15.06c0-.703-.059-1.23-.117-1.582a1.6 1.6 0 0 0-.469-.879c-.235-.234-.645-.352-1.172-.352h-1.172v-1.054zm-86.14.175c.762 0 1.465.118 2.168.235.645.176 1.29.41 1.876.703s1.113.645 1.582.996c.469.352.937.82 1.348 1.29a8.4 8.4 0 0 1 1.172 1.757c.351.645.586 1.407.761 2.168s.293 1.524.352 2.227v1.7c0 .351 0 .761-.059 1.172s-.058.879-.175 1.406a8.6 8.6 0 0 1-.352 1.582c-.176.527-.41 1.172-.762 1.817a8.2 8.2 0 0 1-1.23 1.816 6.6 6.6 0 0 1-1.583 1.289c-.527.352-1.054.645-1.582.821-.469.176-.937.351-1.406.469s-.879.175-1.289.234-.762.059-1.055.059c-.352 0-.762-.059-1.289-.118a6.4 6.4 0 0 1-1.524-.351 10 10 0 0 1-1.699-.762 9.6 9.6 0 0 1-1.7-1.172 9.6 9.6 0 0 1-1.347-1.641c-.41-.644-.762-1.289-.996-1.875a10 10 0 0 1-.528-1.758c-.117-.586-.176-1.113-.234-1.523-.059-.411-.059-.821-.059-1.29v-1.172c.059-.527.059-1.054.176-1.699.117-.586.234-1.231.41-1.816.176-.586.41-1.172.762-1.817.293-.586.703-1.113 1.055-1.582q.615-.704 1.23-1.23c.41-.352.879-.645 1.407-.938.527-.293.996-.528 1.523-.704a7.6 7.6 0 0 1 1.465-.351c.528.117.996.058 1.582.058m-174.565-.175 10.079 15.411v-12.54c0-.293 0-.586-.059-.879s-.117-.469-.293-.586c-.117-.117-.293-.176-.468-.234-.235-.059-.411-.059-.704-.059h-1.64V95h7.266v1.055h-1.055c-.41 0-.762.059-.996.117-.235.059-.41.176-.528.293-.117.117-.175.352-.234.645s-.059.586-.059.82v19.103h-1.757l-11.603-17.755v14.65c0 .293 0 .586.059.879s.117.527.234.644a.85.85 0 0 0 .527.352c.235.117.586.117.938.117h1.406v1.055h-7.325v-1.055h1.172a3.5 3.5 0 0 0 .821-.117.85.85 0 0 0 .527-.352c.117-.117.235-.351.293-.644.059-.293.117-.586.117-.938v-15.47c0-.469-.058-.879-.117-1.172a1.6 1.6 0 0 0-.469-.879c-.234-.234-.644-.352-1.172-.352h-1.172v-1.054zm-9.141-.059v1.055h-1.055c-.41 0-.645.058-.821.117a.95.95 0 0 0-.41.234c-.117.118-.176.293-.293.47-.058.234-.117.468-.117.761v16.349c0 .41.059.762.117 1.055.117.293.235.469.41.644.176.176.411.235.704.293.293.059.527.059.761.059h.762v1.055h-9.844v-1.114h.703c.351 0 .644 0 .937-.058s.528-.117.645-.293c.117-.117.234-.352.293-.645s.059-.644.059-1.055V97.46c0-.351-.059-.644-.118-.879s-.175-.351-.234-.468c-.117-.059-.234-.176-.469-.176-.176-.059-.469-.059-.82-.059h-.996v-1.055h9.786zm331.961.059c.703 0 1.406.058 1.992.117.586.058 1.172.234 1.7.41.527.176.996.41 1.347.762.411.351.704.703.938 1.113s.41.88.527 1.29.176.878.176 1.288 0 .821-.058 1.173c-.118.586-.352 1.054-.645 1.523s-.703.82-1.231 1.172a6 6 0 0 1-1.64.762c-.528.176-.938.293-1.348.351l-1.758.411.586.058.527.059c.411.058.821.117 1.172.176a8.6 8.6 0 0 1 1.875.586c.645.293 1.172.586 1.583.996.41.351.703.82.937 1.289s.352.879.41 1.231c.059.351.118.761.118 1.172s0 .82-.059 1.113c-.059.527-.234 1.055-.41 1.523a3.8 3.8 0 0 1-.879 1.348c-.41.41-.879.821-1.582 1.114-.645.351-1.29.586-1.934.644a11 11 0 0 1-1.934.176h-11.954v-.938h.469c.41 0 .762 0 1.172-.117.351-.117.644-.234.762-.41s.234-.352.293-.586v-.117c.058-.293.058-.703.058-1.172v-15.06c0-.586-.059-.996-.117-1.23a1.2 1.2 0 0 0-.352-.587 2.1 2.1 0 0 0-.586-.41c-.234-.058-.468-.117-.82-.117h-.703V95h11.368zm66.627.058v1.114h-.528c-.293 0-.586 0-.82.058a2.2 2.2 0 0 0-.645.293c-.176.117-.293.352-.351.586a4.2 4.2 0 0 0-.118.996v7.149l5.099-5.625c.41-.41.703-.762.937-1.113l.176-.235.351-.527c.118-.176.176-.41.235-.645q0-.351-.176-.527c-.117-.176-.293-.234-.586-.352-.293-.058-.527-.117-.703-.117h-.527v-1.113h8.438v1.113h-.469a3.9 3.9 0 0 0-1.231.176c-.351.117-.761.234-1.113.469-.41.234-.82.468-1.231.82-.468.352-.937.762-1.465 1.23-.468.41-.937.88-1.406 1.466l-1.582 1.816 5.157 9.786.058.117.235.41.175.352c.293.527.528.879.704 1.172s.468.586.761.82c.352.293.645.469.879.586l.293.118a1.1 1.1 0 0 0 .411.117l.234.058h.176l.41.059v1.172h-9.259v-1.172h.469c.645 0 .996-.059 1.172-.176a.94.94 0 0 0 .234-.41c0-.117-.058-.41-.234-.703l-4.746-9.142-1.7 1.817v6.504c0 .469 0 .821.059 1.055.058.293.176.469.293.645q.176.175.527.351c.235.059.528.118.821.118h.41v1.172h-9.083v-1.172h.762c.293 0 .586 0 .82-.059a2.2 2.2 0 0 0 .645-.293c.176-.176.234-.41.293-.762.058-.351.058-.703.058-.996V97.988c0-.352 0-.645-.058-.938s-.117-.469-.235-.644c-.117-.118-.234-.235-.41-.293h-.117a3 3 0 0 0-.82-.118h-.879v-1.113h9.2zm-422.321-.058v1.054h-1.055c-.468 0-.761.059-.937.118s-.293.175-.41.293c-.118.175-.176.468-.176.996v6.856h7.266V97.46c0-.41-.059-.703-.117-.937-.059-.176-.176-.352-.352-.41a2.2 2.2 0 0 0-.703-.118h-1.172v-1.054h9.024v1.054h-1.113c-.469 0-.762.059-.879.118-.176.058-.235.234-.293.41-.059.176-.117.41-.117.762v16.817c0 .528.058.938.117 1.172.117.235.234.411.41.469.176.059.469.117.879.117h.996v1.114h-9.141v-1.114h1.113c.352 0 .645-.058.821-.117.175-.058.293-.234.41-.469s.117-.644.117-1.172v-8.614h-7.266v8.614c0 .469.058.879.117 1.114.059.234.234.41.41.527s.528.176.938.176h1.054v1.113h-9.141v-1.113h.879c.293 0 .586 0 .82-.059.235-.058.411-.117.469-.234a.67.67 0 0 0 .176-.469c.059-.176.059-.469.059-.82V97.285c0-.41-.059-.704-.176-.82a1.3 1.3 0 0 0-.469-.294 3.5 3.5 0 0 0-.879-.117h-.762v-1.055h9.083zm127.218.234-.117 6.094h-.997l-.058-.41v-.058c0-.118-.059-.293-.059-.528l-.058-.234-.176-1.055a6 6 0 0 0-.293-.938c-.117-.293-.352-.586-.586-.82a3 3 0 0 0-.821-.586 4.5 4.5 0 0 0-1.054-.293 10 10 0 0 0-1.407-.117h-5.684v8.731h3.399c.234 0 .469 0 .762-.059.234 0 .469-.117.703-.234.176-.117.41-.293.527-.586.176-.234.293-.586.352-.938.058-.351.117-.82.176-1.289l.058-.527h.996v8.321h-.996l-.058-.586c-.059-.469-.118-.938-.235-1.406-.117-.469-.234-.821-.468-1.055-.235-.176-.469-.352-.762-.41-.293-.059-.645-.059-1.055-.059h-3.34v8.673c0 .175.058.293.117.468a.6.6 0 0 0 .352.293c.117.059.41.118.703.059h5.098c.117 0 .234 0 .293-.059q.264 0 .879-.175c.351-.059.703-.235 1.055-.469.293-.176.586-.469.82-.762q.351-.44.703-1.231c.235-.527.41-1.054.469-1.64l.117-.703h1.114l-.645 6.328h-17.931v-1.23h1.289c.234 0 .469 0 .703-.059.235-.059.41-.117.469-.234q.176-.176.176-.704c.058-.351.058-.644.058-.937v-16.35c0-.527-.058-.878-.175-.995-.118-.118-.411-.235-.762-.235h-1.582v-1.055h17.931zm156.458 0-.117 6.094h-.996l-.059-.527c0-.117-.058-.41-.117-.762l-.176-1.055a6 6 0 0 0-.293-.937c-.117-.293-.351-.586-.586-.82-.234-.235-.527-.41-.82-.587a4.6 4.6 0 0 0-1.055-.293 10 10 0 0 0-1.406-.117h-5.684v8.731h3.398c.235 0 .469 0 .762-.058.235 0 .469-.117.703-.235.235-.117.411-.293.528-.586.176-.234.293-.586.351-.937.059-.352.118-.82.176-1.289l.059-.528h.996v8.321h-.996l-.059-.586c-.058-.468-.117-.937-.234-1.406s-.293-.82-.469-1.055c-.235-.176-.469-.351-.762-.41s-.644-.059-1.055-.059h-3.34v8.673c0 .176.059.293.117.469a.6.6 0 0 0 .352.293c.117.058.41.117.703.058h5.098c.117 0 .235 0 .293-.058q.264 0 .879-.176c.41-.059.703-.234 1.055-.469.293-.176.586-.469.82-.762q.352-.44.704-1.23c.234-.528.41-1.055.468-1.641l.118-.703h1.113l-.645 6.329h-17.931v-1.231h1.289c.235 0 .469 0 .704-.059s.41-.117.468-.234q.176-.176.176-.703c.059-.352.059-.645.059-.938v-16.35c0-.527-.059-.879-.176-.996s-.41-.234-.762-.234h-1.582v-1.055h17.931zm-111.279 0-.117 6.094h-.996l-.059-.644v-.176l-.058-.469-.176-1.055a6 6 0 0 0-.293-.937c-.117-.293-.352-.586-.586-.82-.234-.235-.527-.41-.82-.587a4.6 4.6 0 0 0-1.055-.293 10 10 0 0 0-1.407-.117h-5.684v8.731h3.399c.234 0 .469 0 .762-.058.234 0 .469-.117.703-.235.176-.117.41-.293.527-.586.176-.234.293-.586.352-.937s.117-.82.176-1.289l.058-.528h.997v8.321h-.997l-.058-.586c-.059-.468-.117-.937-.235-1.406s-.293-.82-.468-1.055c-.235-.176-.469-.351-.762-.41s-.645-.059-1.055-.059h-3.34v8.673c0 .176.059.293.117.469a.6.6 0 0 0 .352.293c.117.058.41.117.703.058h5.098c.117 0 .234 0 .293-.058q.264 0 .879-.176c.352-.059.703-.234 1.055-.469.293-.176.586-.469.82-.762q.352-.44.703-1.23c.235-.528.411-1.055.469-1.641l.117-.703h1.114l-.645 6.329h-17.931v-1.231h1.289c.235 0 .469 0 .703-.059.235-.058.41-.117.469-.234q.176-.176.176-.703c.058-.352.058-.645.058-.938v-16.35c0-.527-.058-.879-.175-.996-.118-.117-.411-.234-.762-.234h-1.582v-1.055h17.872zm75.534-.059 3.926 13.947 3.75-13.947h7.56v.997h-.528a2.1 2.1 0 0 0-.644.117 1.3 1.3 0 0 0-.469.293c-.117.117-.235.293-.352.586s-.117.586-.117.879v16.114c0 .411 0 .762.059.997s.117.41.234.527c.059.117.234.176.469.234s.469.059.703.059h.527v1.055h-8.379v-1.114h.527c.352 0 .586 0 .821-.058.175-.059.351-.117.41-.235.117-.117.176-.351.234-.644.059-.352.059-.645.059-.821V96.406l-5.45 20.509h-1.23l-5.509-19.572v16.466c0 .411 0 .762.059 1.055s.176.528.293.703c.176.176.527.293.996.293h1.348v1.055h-6.094v-1.055h.644c.293 0 .528 0 .762-.058s.41-.176.527-.293c.117-.176.235-.41.235-.645.058-.293.058-.586.058-.996V98.632c0-.468 0-.82-.058-1.172-.059-.351-.117-.586-.293-.82a1.2 1.2 0 0 0-.528-.41 3 3 0 0 0-.761-.117h-.762v-.938h6.973zm-16.701-.175c.645 0 1.172.058 1.7.117.527.117 1.113.234 1.758.469q.966.263 1.758 1.054a4.06 4.06 0 0 1 1.172 1.758c.234.645.351 1.348.351 1.993 0 .351-.058.703-.117 1.113s-.234.938-.527 1.641a4.5 4.5 0 0 1-1.348 1.816c-.645.528-1.289.938-1.934 1.114a8 8 0 0 1-1.582.41c-.352.059-.82.059-1.406.059h-4.102v7.852c0 .293 0 .586.058.762.059.175.117.293.176.41s.176.176.41.234c.176.059.41.117.586.117h1.465v1.114h-9.669v-1.114h1.29c.293 0 .527 0 .703-.058s.351-.117.469-.176c.117-.117.175-.234.234-.469.059-.176.059-.469.059-.762V97.109c0-.41-.059-.645-.118-.762-.117-.117-.175-.234-.351-.234-.117-.059-.352-.059-.645-.059h-1.641v-1.055h11.251zM557.326 95l4.922 17.58c.117.469.234.879.41 1.348.176.468.352.82.528 1.113.234.293.468.469.703.586q.351.176.879.176h.351v1.113h-8.965v-1.113h.879c.293 0 .527-.059.703-.117s.293-.235.41-.411q.176-.263.176-.703c0-.293-.059-.586-.117-.82l-.879-3.282h-7.559l-1.172 3.926c-.059.235-.118.411-.059.645s.117.352.234.469.293.176.469.234.41.059.703.059h.938v1.113h-6.739v-1.113h.703c.235 0 .469-.059.762-.176s.527-.234.762-.469c.234-.176.469-.469.644-.762s.352-.644.469-.996l5.977-18.4zm-320.418.117h3.926l4.923 17.463c.117.469.234.879.41 1.348.117.41.293.82.527 1.054.235.293.469.469.703.586q.353.176.879.176h.352v1.055h-8.907v-1.113h.879c.293 0 .527-.059.703-.118s.293-.234.41-.41q.176-.264.176-.703c0-.293-.058-.586-.117-.82l-.879-3.282h-7.559l-1.172 3.868c-.059.234-.117.41-.059.644s.117.352.235.469.293.176.468.234.411.059.704.059h.937v1.113h-6.739v-1.113h.645c.234 0 .469-.059.762-.176s.527-.234.761-.469c.235-.175.469-.468.645-.761s.352-.645.469-.997zm147.786 1.055q-.703 0-1.23.176c-.352.117-.704.293-1.114.527-.41.293-.82.762-1.23 1.465a6.3 6.3 0 0 0-.821 2.286 16.5 16.5 0 0 0-.351 2.461c-.059.82-.118 1.758-.176 2.754v1.992c0 .528 0 1.172.058 1.758.059.645.118 1.29.293 1.993.118.703.293 1.172.469 1.523.176.352.352.645.528.938.175.293.468.586.82.937.352.293.82.586 1.348.762a4.8 4.8 0 0 0 1.523.235c.235 0 .586 0 .938-.059.41-.059.762-.176 1.113-.352.352-.175.703-.527 1.055-.996a8.2 8.2 0 0 0 .879-1.758c.176-.703.352-1.348.41-1.933a64 64 0 0 0 .176-2.286v-2.988c0-.352 0-.704-.059-1.055v-.352c0-.586-.058-1.113-.117-1.641l-.058-.527c-.059-.703-.118-1.289-.235-1.758-.058-.469-.234-.996-.351-1.406a6.7 6.7 0 0 0-.528-1.114c-.176-.293-.469-.527-.762-.761-.351-.235-.703-.47-1.172-.586-.41-.176-.879-.235-1.406-.235m-112.392 0h-1.055q-.615 0-.879.176c-.176.117-.351.234-.41.41s-.117.41-.117.703v16.174c0 .41 0 .761.058 1.113s.118.586.235.703c.117.176.293.235.527.352.235.058.586.117.996.117h1.055c.41 0 .762-.059 1.172-.117q.615-.088 1.406-.528a6.9 6.9 0 0 0 1.583-1.172q.79-.79 1.23-2.285c.293-.996.469-1.934.528-2.93.058-.937.117-1.816.117-2.637v-1.113c0-.352 0-.703-.059-.996-.058-.762-.117-1.465-.234-2.168-.117-.645-.235-1.29-.41-1.817-.176-.527-.352-1.055-.586-1.524-.235-.468-.586-.879-.997-1.23a4.5 4.5 0 0 0-1.465-.82c-.468-.176-.937-.235-1.347-.294h-.176c-.469-.117-.879-.117-1.172-.117m258.479 9.903h-2.169v8.321c0 .469.059.821.118.938a.6.6 0 0 0 .293.352c.117.058.41.117.879.117h1.992c.586 0 1.113-.059 1.582-.235.469-.117.879-.41 1.231-.761.293-.352.586-.762.703-1.172.117-.411.234-.879.293-1.348.058-.41.058-.703.058-.996v-.176c0-.352 0-.703-.058-1.113-.059-.762-.235-1.348-.469-1.817s-.527-.879-.879-1.172-.879-.527-1.465-.703-1.289-.235-2.109-.235m-293.462-8.262-3.692 11.427h6.914zm316.549-.059-3.691 11.544h6.914zm-147.317-1.758h-2.226v9.2h1.933c.645 0 1.172-.058 1.7-.175.527-.118.937-.293 1.289-.586s.645-.704.879-1.172c.234-.528.41-1.055.469-1.7.058-.586.117-1.054.117-1.347 0-.704-.117-1.29-.293-1.758-.176-.47-.41-.938-.703-1.29q-.44-.526-1.231-.879c-.469-.175-1.113-.293-1.934-.293m125.109 0h-1.524c-.176 0-.41.059-.645.118-.234.058-.468.175-.527.234-.117.117-.176.293-.234.469a3.4 3.4 0 0 0-.118.82v7.149h1.641c.528 0 .938 0 1.172-.058.235-.059.586-.118.879-.176.293-.059.762-.235 1.289-.528.528-.293.938-.644 1.172-1.113.293-.469.469-.879.528-1.348.058-.41.117-.82.117-1.289 0-.644-.117-1.348-.293-1.992-.176-.645-.469-1.172-.821-1.465a3 3 0 0 0-1.289-.645c-.468-.058-.937-.176-1.347-.176M255.308 11.027c3.985.118 6.798.645 8.497 1.583 1.699.879 2.754 1.699 3.223 2.402s.762 1.524.996 2.52c.176.996.235 1.816.059 2.578-.41 1.582-1.524 2.872-3.399 3.81l20.275-.06c.645-.878 1.231-1.758 1.817-2.46.586-.704 1.113-1.114 1.641-1.231.527-.117 1.347.234 2.519.879a94 94 0 0 0 3.223 1.934c1.231.703 2.286 1.523 3.106 2.52.879.995 1.172 1.699.879 2.226-.234.469-.762.762-1.524.938l-.234.058c-.352.059-1.406.059-3.282.059-1.992 0-4.805 1.113-8.496 3.457.996.879 1.816 1.7 2.519 2.403.645.703.879 1.23.762 1.523-.176.293-.644.41-1.406.41h-18.869l.234.118q1.758.966 0 1.406l-2.402.586-.762.469q-3.603 2.373-5.977 3.691l.645.352c4.805 2.813 7.735 5.215 8.731 7.266l.996 1.875c5.039-3.633 9.024-7.617 11.896-11.895l1.171-1.817c.352-.586 1.172-.41 2.403.586l2.754 2.051c.879.645 1.817 1.582 2.871 2.637 1.055 1.114 1.465 1.875 1.348 2.344-.234.703-1.465.82-3.75.352l-2.461.996c-2.52 1.055-5.157 2.11-7.911 3.281.469 1.407.996 2.696 1.465 3.81.527 1.113 1.582 2.754 3.281 4.922s3.634 4.219 5.919 6.094 5.274 3.34 8.907 4.336l1.992.528c.586.175.879.41.879.761.059.293-.234.586-.879.762l-1.699.586c-.703.235-1.641.82-2.754 1.758-1.114.88-1.875 1.875-2.227 2.871l-.117.352q-.44 1.231-.703 1.406-.264.264-.879.176c-.821 0-2.872-1.64-6.153-4.805-3.282-3.164-5.508-6.797-6.68-10.958a88 88 0 0 1-2.52-12.013l-2.344.762c-1.172.352-2.344.703-3.457 1.055.351 1.172.586 2.168.82 3.106l.117.586c.235.996.469 2.52.762 4.629.293 2.285.469 4.63.41 6.973-.117 6.27-1.523 10.02-3.75 11.837-2.227 1.758-4.629 2.52-6.563 2.871-1.934.294-3.047.294-3.458.06l-.058-.06c-.176-.117-.235-.644-.235-1.64s-.351-1.993-.937-2.93c-.645-.938-1.934-1.817-3.985-2.52l-2.754-.937c-.41-.118-.586-.352-.41-.587.117-.293.41-.41.879-.41l2.051.118 3.281.234c3.165.058 5.216-.82 6.153-2.52.879-1.7 1.465-3.809 1.7-6.387l.058-.528q.175-2.373 0-3.34l-.117-.586-.703.586c-4.161 3.223-7.384 5.45-9.669 6.74l-.176.117c-2.285 1.289-5.157 2.636-8.555 4.16l-1.817.82c-2.695 1.172-4.688 1.934-5.918 2.344l-2.813.88-2.051.703c-.645.234-.996.175-1.113-.118-.118-.293.117-.644.82-.996l3.34-1.875a118 118 0 0 0 5.86-3.516l.586-.41c1.992-1.29 4.512-3.165 7.559-5.684l.352-.293q4.835-3.955 7.911-7.384c2.051-2.285 3.574-4.512 4.688-6.68l-1.055.762c-3.926 2.754-6.856 4.746-8.79 5.86l-.527.293a141 141 0 0 1-7.677 3.984l-.41.176q-5.45 2.637-9.493 3.868l-2.168.644c-.703.235-1.114.176-1.231-.117-.117-.352.117-.644.586-.879l1.934-.996a89 89 0 0 0 11.075-6.797l.821-.587q4.482-3.252 7.207-5.977l.645-.644c1.582-1.64 2.695-2.871 3.281-3.692l1.758-2.578c-5.215 2.813-9.903 5.04-14.005 6.621l-1.523.586c-3.341 1.29-5.86 2.169-7.677 2.637l-2.402.645c-.586.176-.997.117-1.114-.293-.117-.352.117-.703.821-1.055l1.347-.703c9.552-4.747 16.584-10.02 21.155-15.822h-8.673l-5.977.235-1.407-2.168 6.564.468 30.471-.058.586-.938c2.168-3.223 3.516-4.746 4.102-4.746.586.058 1.816.644 3.574 1.875.645-1.7 1.348-3.575 2.051-5.626h-44.652l-.059 1.231c0 .41-.058.879-.058 1.465-.059 1.172-.41 2.227-1.055 3.282-.645.996-1.758 1.992-3.223 2.87-1.465.938-2.988 1.173-4.453.821-1.524-.351-2.637-1.23-3.399-2.578s-.586-2.754.469-4.16c.234-.294.527-.587.879-.821l.351-.176c.528-.293 1.582-.879 3.165-1.7 2.051-1.054 3.105-2.988 3.281-5.86v-.76c0-.235 0-.528.059-.88.058-.351.293-.41.762-.117.175.117.527.586.996 1.348l.82 1.348c.059.117.117.234.176.234l.41 1.172.586 1.64h19.806c-.586-.41-.996-.761-1.347-1.171-.293-.41-.528-1.172-.586-2.403l-.059-2.11c-.117-1.523-.41-2.754-.879-3.574q-.703-1.23-1.582-1.934l-.352-.293c-.351-.293-.586-.469-.644-.586-.117-.117-.176-.293-.117-.527-.352-.234-.059-.352.468-.352m241.544 3.516 7.969 3.399h14.474l.469-.586c.352-.469.703-.879 1.055-1.29l.176-.234c.468-.586.937-.937 1.289-.996.234-.058 1.641.41 4.102 1.465l.468.176c2.755 1.113 4.22 2.11 4.278 2.871 0 .704-.703 1.348-2.168 1.993v16.29l.352 8.087a6 6 0 0 1-.528.879c-.176.234-.82.527-1.875.937q-1.494.615-3.692.528h-.293c-1.699 0-2.578-.528-2.578-1.524v-.82h-7.559c.293 1.113.586 2.168.82 3.047l.117.352q.44 1.318 1.231 3.515l.352.88c.468 1.171.82 1.992 1.054 2.343l1.348 2.462q3.78-3.957 6.153-7.384l1.231-1.816c.351-.47.585-.762.703-.82.175-.06.468 0 .879.116l.293.118c.996.351 2.637 1.113 4.922 2.168l1.172.527c3.223 1.524 3.516 2.52.937 2.989l-2.519.468-1.817.703c-.527.235-.937.41-1.289.528l-6.153 2.637-3.574 1.406c1.699 2.52 3.398 4.805 5.156 6.915a20.4 20.4 0 0 0 6.446 5.04l2.051 1.054c1.289.645 2.051.996 2.285 1.114l1.172.468c.411.176.586.41.586.645 0 .234-.175.352-.468.469l-2.286.703c-.527.176-1.23.527-2.226 1.172a11 11 0 0 0-2.403 2.227c-.586.761-1.055 1.406-1.348 1.992l-.117.176c-.293.586-.586.879-.82.879h-.059c-.176.058-1.231-.704-3.106-2.227-1.875-1.524-3.516-3.692-4.981-6.505l-.586-1.113c-1.113-2.227-1.816-3.809-2.109-4.688l-1.113-3.047-4.571 5.04c-.996 1.113-1.641 1.816-1.992 2.226l-3.165 3.81-.82.995c-.469.586-1.055 1.231-1.641 1.934l-2.285 2.637-.176.176c-.293.351-.528.469-.586.527-.117 0-.234-.058-.41-.234s-.352-.586-.645-1.23l-3.457-8.029c-.059-.175-.117-.293-.117-.351 0-.059.175-.235.644-.586.352-.235.586-.586.762-.996s.234-.938.234-1.583V23.45c0-2.93-.058-5.098-.175-6.563l-.059-.703q-.175-1.67 0-1.758c-.059-.059.234 0 .586.117m-83.269-2.695.176.058q.351.088 1.055.176l1.23.176a176 176 0 0 1 4.981.879l.469.117c2.11.41 3.164.88 3.223 1.348.059.762-.938 1.64-3.047 2.578l-1.524 8.204c-.117.703-.234 1.172-.293 1.524l-1.933 8.672h24.845q.88-1.143 1.934-2.461l.821-1.055a60 60 0 0 1 1.347-1.7c.41-.468.821-.76 1.289-.82.411-.058 1.231.352 2.462 1.348l2.93 2.403 1.64 1.816c.645.762.938 1.29.762 1.583s-.41.41-.762.41h-37.62l-.586 2.168c-.352 1.23-.586 2.11-.762 2.578l-1.406 4.16h18.751l.235-.41c1.113-1.816 1.875-2.754 2.344-2.87q.703-.176 1.758.35l3.691 1.759.469.234c3.399 1.7 5.098 2.871 5.04 3.516-.059.762-1.289 1.348-3.633 1.758l-.762 1.406c-2.872 5.04-4.922 8.38-6.212 10.02l-2.637 3.575a61.6 61.6 0 0 0 9.728 3.81q4.658 1.317 10.372 1.757l1.875.117c.469.059.703.235.762.47 0 .234-.235.527-.762.702l-1.582.704c-.879.351-1.7.996-2.579 1.816-.82.88-1.465 1.7-1.875 2.461-.41.762-.762 1.641-1.113 2.637-.293.996-.586 1.465-.879 1.465-.059 0-.235 0-.41-.058l-.117-.059c-.235-.117-1.055-.293-2.462-.645-1.347-.351-3.633-1.465-6.797-3.398l-.82-.528c-2.813-1.758-4.63-2.93-5.392-3.633l-3.047-2.695c-3.633 2.578-6.914 4.453-9.961 5.625-2.989 1.172-5.978 2.227-8.907 3.106l-.879.293c-2.227.644-3.927 1.055-4.981 1.23l-3.34.528-2.051.351q-1.143 0-1.231-.351c-.059-.235.293-.528.996-.938l1.934-.586 2.871-.996c4.395-1.582 8.263-3.457 11.72-5.684 3.399-2.227 6.329-4.63 8.731-7.266a67 67 0 0 1-3.281-4.981c-1.114-1.875-2.051-4.454-2.813-7.677l-1.348-5.45h-2.051c-2.695 5.802-5.684 10.841-8.848 15.002-3.164 4.22-8.204 8.614-14.943 13.243l-1.992 1.348c-.586.41-1.114.703-1.524.82-.41.118-.644.06-.762-.175q-.176-.352.352-.88l1.231-1.113 2.051-2.05c1.23-1.231 2.578-2.638 3.867-4.161l.469-.528c1.523-1.699 3.457-4.746 5.801-8.965q3.516-6.417 5.45-11.954c1.289-3.692 2.402-7.384 3.281-11.075h-12.071l-2.93 3.047q-.44.439-.703.527c-.176.059-.469 0-.82-.176-.528-.175-1.231-.586-1.993-1.289a58 58 0 0 0-2.344-1.934l-.351-.293q-.792-.615-1.231-1.054l-.117-.118c-.41-.351-.527-.703-.527-.996q0-.44.703-.879l2.578-1.582 2.52-9.141.82-5.977c.059-.293.235-.47.352-.528.117-.117.469-.117.996 0q2.725.616 5.625 1.407l.762.175c2.227.586 3.34 1.172 3.282 1.817-.118.762-1.055 1.524-2.872 2.168l-3.984 13.42h12.364c.234-.88.527-1.876.762-2.872l.234-.82c.293-1.172.645-3.282 1.055-6.27l.234-1.934c.352-2.872.586-4.864.703-5.919l.352-5.274c0-.234.059-.41.234-.586.176-.234.645-.234 1.348-.058M211.418 12.96l.293.176c.351.176.879.469 1.641.938l1.582.878c1.289.762 2.109 1.29 2.578 1.641.528.41.821.82.879 1.172.059.703-.644 1.524-2.168 2.461V67.81l.469 11.134c-.117.352-.469.82-.938 1.407-.469.586-2.109.937-4.863 1.054h-.528c-1.992.118-3.047-.468-3.047-1.699v-3.281h-45.648v2.52c-.059 1.113-.821 1.816-2.403 2.109h-.176c-1.64.234-2.812.351-3.516.293-.879 0-1.523-.176-1.816-.469-.352-.293-.586-.703-.762-1.23l.469-11.486-.059-44.36-.586-10.84c.117-.117.235-.176.293-.176.059 0 .821.235 2.286.762l7.031 2.696h43.949l.704-1.114c.41-.586.703-1.113.996-1.465.41-.586.82-.996 1.172-1.172.351-.234 1.113-.058 2.168.47m350.596 14.826c.644.058 2.285.996 5.039 2.754l.469.293c2.988 1.933 4.395 3.223 4.278 3.867-.176.645-1.172 1.055-2.93 1.114l-1.582 1.582c-.997.996-2.11 2.05-3.282 3.223l.352.175c1.465.762 2.226 1.29 2.344 1.583.175.703-.352 1.347-1.465 1.933V70.8l.351 7.91c-.176.528-.41.938-.703 1.29s-1.055.645-2.285.996a13.3 13.3 0 0 1-3.458.469h-.41c-.82 0-1.348-.059-1.699-.293-.293-.234-.586-.586-.821-1.113l.352-8.614V47.24l-1.934 1.407c-3.516 2.52-6.328 4.512-8.438 5.86l-2.168 1.406c-.528.352-.879.293-.996-.117s-.059-.762.117-1.055l2.344-2.637c.82-.996 1.582-1.875 2.285-2.695l.528-.586c.879-1.055 2.402-3.165 4.512-6.153l1.23-1.817c2.168-3.164 3.868-5.977 5.157-8.38l1.348-2.578.293-.586c.468-.937.761-1.406.82-1.406.117-.117.234-.117.352-.117M367.935 14.192c.644.41 1.582 1.113 2.754 2.168l.234.176a34 34 0 0 1 2.872 2.754c.644.703.879 1.23.82 1.582-.117.293-.527.469-1.348.469h-12.833c-.117.351-.234.644-.351.937-.176.293-.762.762-1.758 1.29v23.498h5.977l.586-.762c1.23-1.582 2.168-2.754 2.871-3.575l.234-.234c.762-.938 1.407-1.406 1.758-1.465.293 0 .645.117 1.114.352l.117.058c.469.293 1.289.996 2.461 2.051l.528.469q2.46 2.197 2.988 2.988c.352.47.469.88.352 1.172-.118.293-.528.47-1.172.47h-17.931v23.028l.468 6.505c-.117.762-.351 1.465-.82 2.05-.469.587-1.758.997-3.926 1.173h-.235c-2.344.234-3.691.117-4.043-.293-.351-.41-.644-.82-.762-1.29l.586-8.027-.058-23.205H335.53l-.117 1.992a260 260 0 0 0-.352 5.098c-.234 2.93-1.113 6.153-2.754 9.669-1.641 3.457-3.868 6.211-6.739 8.204-2.871 1.992-5.567 3.457-8.145 4.336l-.703.234c-2.11.762-3.868 1.29-5.157 1.582l-3.692.82c-.703.177-1.054.06-1.172-.292-.058-.352.118-.645.528-.82l3.164-1.466c1.348-.644 3.106-1.64 5.274-3.105 2.168-1.407 3.985-3.223 5.567-5.45s2.695-4.922 3.398-8.145c.704-3.047 1.114-5.802 1.29-8.321l.293-4.336h-14.181l-3.458.234-2.226-2.168 4.512.41h15.47v-7.15l-.117-9.492V21.34h-9.435l-3.926.234-2.344-2.168 4.688.469 46 .058.938-1.23a101 101 0 0 1 2.578-3.282l.176-.234c.762-.88 1.289-1.348 1.641-1.407.234-.117.761.06 1.406.41m240.196 19.806 1.523 1.348q2.813 2.55 3.516 3.34c.645.703.879 1.23.821 1.582s-.352.586-.938.586H602.74a5.9 5.9 0 0 1-1.348 1.758v31.409c0 1.64-.176 2.871-.527 3.575-.352.703-1.055 1.347-2.11 1.992-1.055.586-2.52 1.113-4.336 1.465l-.528.117c-1.582.234-2.695.352-3.398.234-.704-.058-1.172-.175-1.348-.41s-.235-.644-.293-1.348v-.175a6.1 6.1 0 0 0-.293-1.934c-.176-.528-.645-1.114-1.407-1.817-.761-.644-1.758-1.23-2.929-1.64l-2.579-.88c-.762-.234-1.055-.527-.82-.878.176-.352.586-.528 1.172-.47l1.934.235 4.922.352c.879.058 1.641 0 2.109-.176.528-.176.879-.527 1.055-.938.176-.468.293-1.289.293-2.46l-.058-27.835h-16.818l-4.337.234-2.05-2.168 5.273.469h25.491l.527-.82a78 78 0 0 1 2.871-4.22l.176-.234c.762-.996 1.407-1.523 1.934-1.64.586-.235 1.524.234 2.813 1.347m-135.012-22.97c.352 0 .762.117 1.114.234l.293.117q.264.088.703.176l2.813.761q3.076.792 4.571 1.407l.117.058c.937.41 1.465.82 1.406 1.172 0 .293-.234.586-.645.82l-2.402 1.29-.586 1.055a235 235 0 0 1-4.395 7.559h8.145l.879-.996c2.227-2.52 3.516-3.81 3.692-3.868.234 0 .645.176 1.113.586l2.52 2.051.527.47c1.7 1.523 2.52 2.46 2.462 2.753-.059.352-.235.528-.469.528h-19.572c-2.813 4.101-5.45 7.5-7.97 10.196l4.22.41h9.961c.703-.82 1.524-1.7 2.52-2.637l.703-.703c.821-.82 1.348-1.23 1.465-1.23.176 0 .469.116.879.41l.645.527c3.398 2.637 4.922 4.16 4.746 4.57-.234.41-.469.587-.703.587h-7.383l-.059.234c-.117.469-.234.703-.293.703l-1.172.88v8.496h1.465l3.985-4.57c.234-.235.41-.411.586-.411.175 0 .469.117.937.469l2.286 1.875.351.352c2.051 1.875 2.989 2.93 2.813 3.222-.176.352-.41.47-.645.47h-11.778v15.645l1.524-.703c2.812-1.29 5.039-2.344 6.68-3.223l3.926-2.11q.615-.351.879 0c.117.235.059.47-.176.82l-12.833 14.768a2.6 2.6 0 0 1-.351.41l-3.516 4.219-.469.586c-.117 0-.235 0-.235-.059l-.058-.058c-.059-.117-.176-.352-.41-.703l-4.22-8.439-.117-.234c-.176-.352-.234-.527-.234-.645s.176-.293.586-.527c.351-.293.644-.586.762-.938q.176-.526.351-1.23c.117-.469.117-.88.117-1.172v-16.35h-5.566l-3.341.294-2.285-2.168 5.157.468h6.035V39.213h-2.93l-3.515.293-1.817-1.758-1.406 1.407-1.465 1.172c-.352.351-.645.41-.762.234s-.117-.527.117-1.055l1.231-2.637c.351-.82.879-1.992 1.523-3.457a169 169 0 0 0 2.11-5.332c.644-1.758 1.23-3.75 1.816-5.977l1.055-4.161c.176-.703.293-1.23.41-1.7l.879-3.984q.176-.703.176-.88v-.233c.117-.06.234-.118.527-.118m-266.037 6.035H161.55l-.058 57.602 45.59.06zm303.892 28.83h-6.856V68.69c3.516-1.407 6.856-2.872 10.079-4.337l-.527-1.758c-.41-1.465-.703-2.52-.879-3.105v-.06c-.176-.76-.41-2.226-.703-4.453l-.586-4.277c-.118-.645-.293-2.227-.528-4.805M199.933 21.459l.703.586q2.46 1.934 3.516 2.988l.175.176c.821.82 1.172 1.407 1.172 1.758 0 .41-.351.586-.937.586l-15.763.059a6.1 6.1 0 0 1-1.407 1.816v14.005h5.392l.586-.879c1.933-2.695 3.105-4.101 3.574-4.219.527-.117 1.289.235 2.285.996l1.055.88c1.758 1.465 2.871 2.46 3.34 2.93.469.585.703.996.586 1.289s-.469.468-1.113.468h-15.646V65.76h7.266l.469-.47c.293-.292.527-.585.703-.761l2.813-3.282c.469-.468.82-.761 1.172-.82s.879.234 1.699.82c1.055.82 1.993 1.641 2.813 2.344l.762.704c.469.41.879.761 1.172 1.054l.234.176c.469.41.645.762.528 1.114-.118.351-.586.527-1.29.527h-36.507l-4.394.234-2.051-2.168 5.332.469 10.606.058v-20.92h-7.735l-4.394.177-2.051-2.169 5.332.47 8.848.058V27.552h-8.672l-4.395.235-2.051-2.169 5.332.47 23.85-.06.821-1.113c2.168-2.871 3.515-4.395 3.926-4.512.527-.058 1.289.235 2.344 1.055m233.75 25.783h-16.115c.352.996.82 2.169 1.406 3.4.528 1.171 1.348 2.577 2.52 4.218l.234.293q1.935 2.637 5.274 5.45c2.696-3.985 4.512-7.266 5.45-9.903zm-243.126.059 1.113.234c1.641.293 3.223.703 4.688 1.172 1.524.47 2.813 1.29 3.809 2.403.996 1.172 1.524 2.402 1.524 3.75-.059 1.172-.528 2.227-1.348 3.106-.879.938-1.934 1.406-3.282 1.406-1.23 0-2.227-.293-2.871-.937l-.117-.117c-.528-.528-.821-.997-.879-1.465v-.176c-.059-.47-.059-1.23-.117-2.168 0-1.114-.176-2.11-.469-2.872a4.9 4.9 0 0 0-1.172-1.875l-1.231-.937q-.703-.615-.527-1.055c.176-.47.469-.586.879-.47m159.33-26.838h-11.896l-.117.293c-.293.527-.469.879-.645.937l-1.289.82v3.868l-.117 16.7.058 3.517h13.947zm170.287 12.071H504.06v12.071h16.114zm41.312-20.803c.352.06.938.41 1.758 1.172l3.458 2.462.234.175c.527.41 1.289 1.055 2.403 1.993 1.289 1.055 1.875 1.875 1.816 2.285q-.175 1.143-1.231 1.055l-1.992.117-2.227 1.348c-.644.41-1.172.703-1.582.938l-6.68 4.219c-3.75 2.226-7.266 4.043-10.606 5.508l-3.282 1.406c-.586.235-.996.235-1.172 0-.234-.293-.059-.703.469-1.23l1.758-1.582 2.578-2.403c1.641-1.524 3.516-3.516 5.626-6.036 2.168-2.46 4.043-4.98 5.742-7.559l1.407-2.11.82-1.464c.234-.293.41-.293.703-.293M427.94 17.063h.469c1.113.059 2.988.234 5.625.469 3.047.293 5.215 1.465 6.446 3.457 1.231 2.051 1.875 3.75 1.875 5.274.059 1.465-.527 2.813-1.641 3.985s-2.519 1.7-4.101 1.523c-1.172-.058-2.051-.41-2.696-1.055-.645-.644-1.055-1.172-1.231-1.699l-.058-.117c-.117-.586-.352-1.992-.586-4.16-.293-2.403-1.289-4.22-3.164-5.567l-1.817-1.29c-.176-.117-.176-.234-.059-.468.235-.235.528-.352.938-.352m92.234 2.696H504.06v11.426h16.114zm82.741-5.802.469.352c.528.469 1.231.996 1.993 1.7l.937.82c.996.879 1.817 1.64 2.344 2.226q.88.968.703 1.407c-.175.293-.527.41-1.23.41h-27.893l-4.336.176-2.051-2.168 5.273.468h16.408l2.168-2.812c.586-.704.996-1.29 1.348-1.758l.234-.293c.704-.938 1.231-1.407 1.7-1.465.41 0 1.055.293 1.933.937" fill="#231916"/><path d="M121.294 64v46.938a6.677 6.677 0 0 1-6.68 6.68H67.618v-35.51h15.411a2.666 2.666 0 0 0 2.696-2.58V64zM67.618 10.382v35.511H52.206c-1.465 0-2.637 1.114-2.695 2.578v15.53H14V17.062a6.677 6.677 0 0 1 6.68-6.68z" fill="#d8b350"/><path d="M49.51 64v15.412a2.666 2.666 0 0 0 2.58 2.695h15.528v35.511H20.68c-3.633 0-6.621-2.93-6.68-6.505V64zm65.045-53.618c3.633 0 6.622 2.93 6.681 6.505V64H85.725V48.59c0-1.465-1.114-2.637-2.579-2.696H67.618v-35.51z" fill="#e50113"/></svg>