<svg width="479" height="128" fill="none" xmlns="http://www.w3.org/2000/svg"><path d="m185.08 23.655 2.879.708c.31.089 1.594.266 3.808.532 2.215.265 3.322 1.284 3.366 3.056.045 1.771-.664 2.834-2.081 3.232l-2.79.798c-3.233.93-4.872 1.727-4.828 2.391 0 .089.045.222.089.399.089.221.177.443.399.708.177.266.575.399 1.151.399l1.506-.044c1.417 0 2.303.088 2.613.31.31.221.487.487.531.841 0 .354-.133.664-.487.93q-.465.399-1.329.399l-2.524.177c-.177.044-.31.088-.399.177a.48.48 0 0 0-.132.31c-.045.133.044.399.177.797.088.31.133.487.221.576.089.089.222.133.443.177l2.879-.133c.575.133.885.487.885 1.063-.044.842-.575 1.329-1.683 1.417l-1.461.089c-.443.088-.664.133-.709.266-.044.088 0 .265.045.487l.133.93c.044.177.088.31.177.398.088.089.443.133 1.018.133l1.993.089c1.107.088 1.905.221 2.303.398.399.178.62.532.62 1.063-.044.93-.93 1.417-2.701 1.462q-2.658.067-2.923.265a.73.73 0 0 0-.222.532v.31l.089 3.454c-.044 1.683-.133 3.056-.31 4.208-.177 1.151-.62 2.347-1.373 3.587-.753 1.284-1.816 2.214-3.144 2.834-1.373.62-2.702.93-4.031.93s-2.612-.266-3.808-.753-2.126-1.063-2.702-1.683c-.575-.62-1.063-1.373-1.461-2.214s-.576-1.461-.487-1.816q.066-.531.531-.531c.044.044.089.044.177.088.089.045.266.177.62.399.355.266.886.487 1.595.709.708.221 1.638.354 2.834.354q1.793 0 3.056-1.063c.576-.487 1.063-1.196 1.461-2.17s.665-1.86.753-2.657l.222-2.082c.044-.531.044-.974.044-1.328-.044-.355-.133-.62-.399-.798-.221-.221-.664-.31-1.24-.265-.133.044-.664.088-1.638.133-.975.088-2.17.088-3.543.088-.842.044-1.418-.088-1.816-.354s-.576-.709-.62-1.284.177-.975.708-1.196c.488-.222 1.152-.355 2.038-.443l2.347-.133 3.011-.089c.399 0 .665-.044.753-.132.089-.089.133-.266.133-.443s-.044-.487-.133-.975c-.088-.265-.177-.442-.265-.487a1.8 1.8 0 0 0-.443-.133q-.997 0-2.658.133h-.221c-1.24.133-2.17.177-2.834.133-.532 0-.93-.088-1.152-.266-.266-.177-.398-.443-.443-.841-.044-.399.177-.709.709-.974a4.2 4.2 0 0 1 1.461-.443c.089 0 .399 0 .93.044.532.044 1.285.044 2.259.044 1.506.045 2.259-.221 2.259-.752-.045-.045-.045-.133-.089-.355l-.221-.664a.87.87 0 0 0-.399-.399c-.177-.088-.576-.133-1.284-.088l-4.163.354-1.152.089c-.443.044-.753-.045-.885-.222-.178-.177-.266-.487-.266-.841 0-.355.133-.797.443-1.285q.598-1.062 1.594-1.062c.133 0 .753.088 1.949.22 1.195.134 1.904.222 2.17.178.575 0 .93-.088 1.018-.221.089-.178.178-.31.178-.532 0-.177-.133-.531-.443-1.107l-.975-1.683c-.354-.531-.487-1.018-.443-1.506.045-.487.443-.753 1.24-.797q.665-.066 1.595.399c.62.265 1.196.531 1.638.797.488.266.798.398 1.063.354.266 0 .753-.221 1.506-.708s1.107-1.063 1.107-1.772c-.088-1.196-1.461-1.771-4.118-1.771-2.658.044-5.005.62-6.953 1.86l-2.791 1.727c-1.24.797-2.214.886-2.834.31s-.974-1.196-1.019-1.904c-.044-.709.133-1.506.532-2.436.664-1.55 1.506-2.392 2.524-2.436.177 0 .487.044.93.177s.797.177 1.019.177c.31.045 1.063-.177 2.303-.62 1.196-.443 2.701-.753 4.429-.974 1.682-.089 3.232-.044 4.561.266m85.784 20.549c5.004.044 7.972.088 8.946.266.974.132 1.417.575 1.417 1.24-.044.885-.62 1.328-1.816 1.284-.221 0-.708 0-1.505-.044-.798-.045-2.923-.045-6.333-.089-1.152 0-2.082.044-2.791.089 1.019.575 1.683 1.151 1.905 1.638.266.487.398.886.398 1.24 0 .355-.132.665-.442.93-.31.31-.709.62-1.285.975l-1.638 1.018-.798.532.532.177q2.259.797 2.923.664c.266-.044.841-.487 1.638-1.284a15.6 15.6 0 0 0 2.082-2.569l1.063-1.683c.443-.708.93-1.063 1.461-1.107.399 0 .93.221 1.595.62s1.018 1.063 1.018 1.993a3.2 3.2 0 0 1-.443 1.284q-.398.73-2.258 1.728l-1.462.797-1.018.62q-.798.465-.798.531c0 .044.266.044.753.089l2.038.177q1.262.133 4.517.133c2.17 0 4.03-.133 5.536-.443q2.258-.399 3.853-.93c1.063-.354 1.594-.532 1.683-.532.31.045.442.178.442.488q0 .465-.132.93c-.488 1.284-1.24 2.524-2.259 3.675-1.019 1.152-2.303 2.348-3.897 3.543-1.55 1.196-3.233 1.816-4.96 1.86q-2.857.067-7.042-2.125c-2.79-1.462-4.562-2.436-5.359-2.923l-5.226-3.1-1.771-.886-2.082-.974c-1.151-.488-1.904-.709-2.347-.532l-.841.31c-.222.089-.532.133-.975.133s-.753-.177-.885-.531c-.178-.355-.266-.576-.266-.753 0-.133 0-.31.044-.443.044-.355.266-.93.709-1.772.443-.841.797-1.417 1.063-1.86.31-.398.797-.62 1.55-.62q.332 0 .664.133c.221.089.62.532 1.196 1.284.575.798 1.373 1.373 2.303 1.816l1.284.576c.531.266.974.398 1.284.398.31-.044.709-.398 1.152-1.15.487-.754.797-1.285.93-1.684.177-.398.044-.354.443-1.196.265-.575.797-.93 1.594-1.151h-.93l-3.853.089-3.986.221c-2.037.133-3.41.221-4.03.266-.62.088-1.461.265-2.48.531s-1.727.399-2.126.354c-1.018-.088-1.506-.487-1.461-1.24 0-.354.133-.708.354-1.151.222-.399.62-.797 1.196-1.151.576-.355 1.107-.576 1.683-.62.221 0 .664.044 1.328.177q.997.133 1.993.133c.355.044 2.126-.045 5.359-.178 3.322-.177 6.466-.221 9.566-.221M247.215 31.05c.354.044.575.221.753.531.177.31.221.664.221 1.019-.044.885-.221 1.638-.576 2.303a9.6 9.6 0 0 1-1.195 1.682l-1.506 1.64c-.222.265-.532.62-.975 1.15-.132.62-.221 1.152-.265 1.506s-.045 1.55-.045 3.676v13.685c0 .886-.044 1.594-.132 2.214a3.5 3.5 0 0 1-.62 1.55c-.31.443-.798.797-1.418 1.107s-1.24.443-1.815.399c-1.063 0-1.683-.31-1.905-.974a5.9 5.9 0 0 1-.31-1.905c0-.62.045-1.151.045-1.594l.132-3.499.222-5.181.133-4.916c.044-.443.044-.753.044-.93-.089-.709-.221-1.063-.443-1.063a1.6 1.6 0 0 0-.398.31c-.222.177-1.019.531-2.481 1.107s-2.568.797-3.277.753c-1.417-.089-2.524-.797-3.277-2.081-.753-1.285-1.151-2.26-1.151-3.012 0-.709.044-1.107.088-1.24.133-.177 1.727-.62 4.872-1.329 3.144-.708 5.846-1.638 8.149-2.834s3.764-1.993 4.34-2.392l1.727-1.284q.73-.399 1.063-.398m163.286 2.568c.708.133 1.373.222 1.993.399.62.133 1.063.177 1.328.177.133 0 .753-.044 1.816-.177s3.144-.177 6.156-.177c.974.044 2.834.044 5.58.133 2.746.044 5.403.088 7.883.088h4.163l3.676.044h.841l1.196.045c.753.044 1.152.177 1.196.443 0 .265-.044.531-.177.752l-.797 1.595c-.355.575-1.019 1.373-2.038 2.347s-1.992 1.506-3.011 1.594q-.93.133-3.986-1.195c-2.037-.842-3.543-1.285-4.473-1.24-.753.088-1.151.265-1.151.664-.045.354-.045.62 0 .753v.841l.044 1.904.133 2.658.221 5.713.133 3.543c-.044 1.594-.354 2.878-.886 3.897-.531.974-1.594 1.993-3.188 2.967s-3.543 1.462-5.89 1.462c-1.683 0-3.278-.355-4.872-1.019-1.594-.709-2.79-1.373-3.587-2.081-.842-.709-1.595-1.462-2.392-2.348-.753-.885-1.284-1.505-1.506-1.948s-.398-.753-.398-.93c-.044-.177-.044-.31-.089-.443 0-.133.089-.31.222-.532q.265-.331 1.196.399c2.524 2.126 5.314 3.144 8.458 3.1 2.215 0 3.676-.443 4.34-1.328.665-.886 1.063-1.772 1.196-2.702.133-.886.222-2.037.222-3.366.044-1.328.044-2.746.088-4.207l.045-3.942v-.531c0-.31-.045-.664-.089-1.019a1.7 1.7 0 0 0-.487-1.018c-.266-.31-1.152-.443-2.569-.31l-3.1.354a39 39 0 0 0-4.96.841l-2.524.842c-1.373.443-2.303.664-2.702.664-.62 0-1.107-.221-1.373-.62a2.63 2.63 0 0 1-.398-1.417c0-.797.221-1.506.62-2.17.442-.664.885-1.329 1.461-1.904.531-.576.974-.975 1.24-1.063.354-.31.709-.443 1.196-.532m-54.119-10.053c.31 0 .974.222 1.993.62 1.063.443 1.727.93 2.126 1.55.354.62.576 1.107.576 1.462 0 .354-.089 1.195-.31 2.524-.089.443-.133 1.24-.178 2.392a55 55 0 0 0 0 3.808c.045 1.373.045 2.17.045 2.347-.133 1.506-.487 2.525-1.152 3.056s-1.284.842-1.86.842c-.31.044-.974-.089-2.081-.399-1.107-.266-1.772-.443-2.038-.443h-.531l.709.222c1.151.354 1.948.797 2.347 1.284q.664.73.664 1.329c-.044.62-.443 1.24-1.24 1.815a14.4 14.4 0 0 1-2.524 1.462c-.886.398-1.329.62-1.285.664 0 .089.753.443 2.303 1.063 1.55.664 3.189 1.24 4.916 1.816s3.277.974 4.562 1.284l2.214.487c1.506.355 2.657.62 3.41.709.753.133 1.152.354 1.152.753-.045.088-.089.265-.222.531l-.753 1.86c-.31.665-1.063 1.727-2.258 3.056q-1.794 2.06-4.783 1.993-2.79-.066-6.378-3.587l-4.473-4.385-1.328-1.195c-.31-.266-.532-.355-.664-.355-.133 0-.266.133-.399.31l-.797 1.24c-.31.443-.93 1.24-1.86 2.303s-2.525 2.48-4.695 4.207c-2.17 1.728-4.34 2.57-6.421 2.48q-1.196 0-2.126-.53c-.62-.355-1.063-.754-1.329-1.285a3.33 3.33 0 0 1-.398-1.639c0-.576.088-1.151.354-1.639l1.107-2.302q.465-1.064.664-2.658c.133-1.062.222-2.48.355-4.295.133-1.772.177-3.012.221-3.676 0-.665.044-2.303.044-5.005V34.24c-.088-1.815-.31-3.41-.708-4.783-.399-1.373-.532-2.258-.487-2.745.044-.4.133-.842.354-1.285s.576-.841 1.019-1.196c.487-.354.974-.575 1.505-.575.31 0 .93.177 1.86.487s1.816.531 2.702.576c.886.088 2.037.088 3.454.088 1.418-.044 3.145 0 5.182 0 1.993.044 3.144.044 3.41 0 .354 0 .664-.044.974-.088.31-.045.753-.266 1.418-.62l.132-.089c.665-.221 1.196-.443 1.506-.443m48.362 7.795c.442 0 .752.221.885.62.133.398.222.752.222 1.063s-.089.708-.355 1.24c-.265.487-.487.93-.752 1.284-.266.354-.798 1.063-1.595 2.037s-1.284 1.683-1.373 1.993c-.133.354-.177.797-.177 1.284-.044.355-.044 1.108 0 2.348 0 1.24 0 2.967-.044 5.27l-.089 4.517c-.088 2.037-.088 3.1-.088 3.144l.044 1.373c0 .665-.044 1.196-.089 1.595a3.54 3.54 0 0 1-.885 1.771c-.443.487-1.462.797-3.056.974-.886-.265-1.462-.575-1.727-.885q-.399-.465-.532-1.196c-.088-.487-.133-1.063-.088-1.683 0-.664.044-1.24.044-1.727l.177-3.765.177-3.897.089-2.524c.044-.355.044-.576.044-.709-.044-.088-.044-.221-.133-.398-.044-.222-.133-.31-.31-.355s-.31.089-.575.355c-.355.31-1.019.752-2.038 1.24-1.018.531-1.727.841-2.125.974-.399.133-.93.221-1.55.221-1.019.045-2.038-.265-3.101-.841q-1.594-.863-2.391-2.126c-.532-.841-.842-1.328-.842-1.506-.044-.177-.044-.354-.044-.487q0-.266.133-.398c.089-.089.31-.222.62-.31l1.727-.443c2.259-.576 4.296-1.285 6.023-2.082s3.72-1.815 5.935-3.056c2.214-1.24 3.941-2.347 5.27-3.365 1.151-1.019 2.037-1.55 2.569-1.55m-85.784 4.163q.332 0 1.461.133c.753.088 1.639.177 2.657.22 1.019.045 2.126.045 3.233.045s2.126 0 3.1.089c.975.088 1.462.443 1.462 1.151 0 .709-.133 1.152-.443 1.417q-.598.598-1.462.665c-.575.044-1.24.088-1.992.088-.798 0-1.285.089-1.462.177-.221.133-.31.443-.31.93v1.108c0 .354.044.575.177.708s.443.222 1.019.222l1.284.088 2.126.089 1.771.088c.798.045 1.24.133 1.373.266s.177.354.222.62c0 .266-.045.532-.133.842-.177.354-.532.797-1.107 1.328-.576.532-1.816.753-3.676.664s-2.879 0-2.967.133a.9.9 0 0 0-.177.576l-.045 1.86c-.044 1.107-.044 1.904-.044 2.48s.221.842.709.886c.265.044.841-.177 1.771-.576.886-.398 1.461-.664 1.683-.841l1.329-.753c.487-.266.841-.266 1.018 0 .222.266.31.62.354 1.107.045.487-.177 1.107-.62 1.86-.885 1.594-2.79 3.366-5.624 5.359-2.879 1.949-4.96 2.923-6.289 2.834-1.151-.044-1.86-.443-2.126-1.151a7.3 7.3 0 0 1-.442-1.905c0-.575.132-1.107.442-1.683l.665-1.284c.221-.398.354-.93.487-1.55s.221-1.417.354-2.436c.089-1.018.133-1.86.133-2.613s0-1.195.044-1.373c.045-.177.045-.31.045-.354-.045-.265-.222-.398-.576-.398-.31 0-1.063.088-2.259.221s-2.126.31-2.834.532c-.709.221-1.196.31-1.506.265-.62-.044-1.063-.266-1.284-.664a2.6 2.6 0 0 1-.31-1.284c0-.443.266-.975.841-1.639a5.3 5.3 0 0 1 1.595-1.373c.62-.354 1.062-.531 1.372-.531.178.044.532.133 1.152.354s1.417.31 2.391.31c.62.044 1.019-.044 1.152-.222.133-.177.221-.487.221-.885l.045-.664v-.443c-.133-.487-.222-.797-.31-.886-.089-.089-.31-.133-.62-.133-.178.044-.532.089-1.063.177-.532.089-.886.133-1.107.089-.355-.045-.665-.133-.886-.355-.222-.221-.354-.531-.399-.974-.044-.443.266-.93.975-1.55 1.062-.974 2.17-1.461 3.41-1.461M251.821 50.58q.332.531.398 1.462c.044.62.089 1.284.089 1.948 0 .665-.089 1.462-.266 2.348q-.332 1.527-1.196 3.055c-.575 1.019-1.417 1.506-2.568 1.506-.62.044-1.152-.177-1.639-.576s-.753-.752-.886-1.062-.177-.71-.221-1.196c.044-.355.088-.709.177-.975.089-.265.31-.708.753-1.24l2.081-2.878 1.285-2.082c.177-.31.443-.575.841-.841.399-.222.753-.044 1.152.531m-48.849-20.416c1.196.841 1.993 1.506 2.303 2.037.31.532.487 1.019.531 1.373 0 .399-.221.797-.62 1.151-.442.399-1.284.93-2.524 1.64l-3.144 1.77-2.392 1.33q-.398.198-.398.398c0 .133.132.354.442.62l2.923 2.878c1.196 1.24 2.525 2.303 3.942 3.233 1.417.886 3.366 1.949 5.846 3.145s4.074 1.86 4.783 2.037c.708.177 1.107.31 1.151.443.089.088.133.266.222.487a14 14 0 0 1-.665 1.904c-.265.576-.974 1.329-2.125 2.215a18 18 0 0 1-3.765 2.214q-2.06.864-3.188.797c-1.639-.044-3.056-.753-4.208-2.17-1.151-1.417-2.391-3.454-3.72-6.2-1.328-2.746-2.17-4.384-2.524-5.004l-2.48-4.075c-.62-1.018-1.107-1.639-1.417-1.948l-.665-.576c-.221-.266-.354-.487-.354-.753s.133-.532.487-.797c.354-.266.797-.399 1.373-.399l2.436.044q.532-.2 1.594-1.461c.753-.841 1.329-1.594 1.772-2.126.442-.576.841-1.373 1.151-2.436.354-1.062.709-1.771 1.063-2.214.443-.399 1.151-.266 2.17.443m-31.887 5.846q.665.664 1.063 1.727c.266.709.399 1.771.399 3.144-.044 1.683-.177 3.543-.532 5.492a17.8 17.8 0 0 1-1.815 5.491 12.6 12.6 0 0 1-3.676 4.296 16.2 16.2 0 0 1-4.96 2.613c-1.772.532-3.278.797-4.562.753-2.48-.044-4.03-.664-4.561-1.86-.532-1.196-.798-2.037-.842-2.568 0-.532.044-.842.133-1.02.089-.088.221-.132.443-.22.221-.09.974-.09 2.258-.045 1.285.044 2.968-.31 5.138-1.107s3.941-2.037 5.403-3.809c1.461-1.771 2.258-3.188 2.524-4.207.222-1.063.399-1.949.532-2.746-.133-.797-.355-1.328-.62-1.594-.266-.266-1.063-.399-2.392-.31-1.329.133-2.259.221-2.834.399-.576.177-1.285.398-2.126.752-.842.355-1.462.532-1.816.487-.443-.044-.841-.177-1.196-.53-.354-.311-.531-.798-.575-1.418-.045-.62.133-1.24.575-1.904.443-.753 1.108-1.33 1.949-1.816.841-.487 1.506-.753 1.993-.753.31 0 1.063.221 2.303.62 1.24.398 2.48.398 3.764-.089l1.196-.443c.974-.398 1.904-.132 2.834.665m179.628 5.403-4.605.133-2.968.044c-1.86.044-2.967.177-3.233.443-.221.177-.31.575-.31 1.107q0 .864-.132 2.923c-.045.576-.089 2.081-.133 4.429l-.089 2.613c-.044.177-.044.354 0 .664 0 .266.133.531.443.708.266.222.93.089 1.904-.31l1.639-.664c1.24-.487 2.214-1.018 2.923-1.683.708-.62 1.107-1.018 1.107-1.151s-.133-.355-.443-.62a37 37 0 0 0-1.638-1.196c-.842-.62-1.905-1.107-3.189-1.506-1.24-.398-1.904-.797-1.904-1.24-.045-.443.088-.797.354-1.063.487-.575 1.24-.93 2.214-.974.797-.044 1.816.266 2.967.886a49 49 0 0 1 2.436 1.328c.399.266.664.399.842.399h.044c.177 0 .354-.089.531-.31.222-.221.443-.576.753-1.107.31-.532.576-.975.753-1.373.177-.354.354-.753.487-1.107.133-.355.31-.665.487-.842.178-.177.266-.31.222-.443.133-.088-.399-.133-1.462-.088m-87.201-20.372c1.063 0 1.949.177 2.613.531.665.354 1.152.753 1.373 1.152s.399.93.487 1.594c.089.664.177 1.107.31 1.24s.31.266.532.31c.221.044.708.089 1.506.089l2.17.088 3.498.044c2.613.045 4.119.222 4.606.576.443.354.664.753.664 1.24-.044 1.152-1.062 1.683-3.1 1.55l-3.055-.133-3.411-.088c-2.125-.044-3.321.044-3.587.177-.221.133-.398.266-.443.443-.088.177-.133.398-.221.753-.089.354-.089.575-.089.708.045.266.133.443.266.576.177.089.797.177 1.949.222 1.151.044 2.081.088 2.878.22q1.196.2 1.462.134c.398 0 .974-.089 1.638-.31.665-.222 1.196-.31 1.506-.31a3.3 3.3 0 0 1 1.152.398c.398.266.752.62 1.018 1.152s.443 1.063.443 1.594c.044.532-.044 1.506-.221 2.835-.31 1.904-.532 3.144-.665 3.764s-.575 1.107-1.284 1.461-1.461.355-2.214.045l-1.196-.488c-.532-.22-1.284-.31-2.17-.354l-3.765.089-5.358.133c-4.296.133-6.998.31-8.105.575q-1.66.399-1.993.399c-.575-.044-1.063-.266-1.373-.709a2.94 2.94 0 0 1-.531-1.505l-.266-2.436c-.044 0-.133-.576-.31-1.727s-.265-1.949-.221-2.436c.044-.62.133-1.196.398-1.594.222-.443.62-.798 1.108-1.063a2.85 2.85 0 0 1 1.55-.443q.531.066 1.461.398c.62.266 1.107.355 1.506.355 1.683 0 2.613-.045 2.878-.089q.399-.132.93-.398c.222-.355.355-.665.399-.886.089-.222.089-.487.133-.797 0-.31-.044-.532-.133-.62-.088-.133-.31-.222-.62-.222-.133 0-1.727.177-4.827.532l-2.48.531c-1.417.31-2.126-.044-2.082-1.063q0-.598.399-1.461c.266-.532.797-1.063 1.638-1.595.842-.487 1.55-.753 2.215-.797.177 0 .708.177 1.638.443.886.31 1.949.443 3.189.443.709 0 1.152-.089 1.329-.31.177-.177.265-.443.31-.709s.044-.443.044-.531l-.133-1.462q-.066-.066 0-.531c.044-.31.177-.664.443-1.107.133-.399.93-.62 2.214-.62m59.123 1.948c.62.045 1.152.355 1.462.93.354.62.31 1.462-.044 2.613-.133.355-.266.709-.443 1.107-.177.355-.31.576-.31.665-.045.088-.089.31-.133.62l.531.088 1.285-.044 2.081-.044 3.012.088c.885.045 1.461.178 1.771.399s.487.576.487 1.063-.133.886-.487 1.24q-.465.465-1.461.797c-.62.221-2.082.354-4.252.399l-3.366.133-2.258.088a7 7 0 0 0-.842.133c-.177.088-1.018.709-2.524 1.949a51 51 0 0 1-4.075 3.055c-1.195.798-2.302 1.152-3.365 1.152-2.17-.044-3.366-.753-3.588-2.259-.221-1.461-.31-2.258-.31-2.391.045-.443.178-.753.532-.975.31-.221 1.063-.487 2.214-.752 1.152-.266 2.569-.93 4.207-2.038 1.639-1.063 2.968-2.081 3.942-2.967a44 44 0 0 0 3.1-3.233c1.063-1.196 2.037-1.816 2.834-1.816m-64.924 12.49c-1.417.044-2.215.22-2.436.53s-.31.62-.354.887c0 .265.044.62.133 1.018.044.354.177.709.354 1.019s.753.443 1.683.398c1.063 0 1.683-.133 1.904-.354s.354-.709.354-1.373c.045-.664 0-1.107-.088-1.328-.222-.532-.753-.798-1.55-.798m6.997 0c-.531.044-.93.132-1.151.31-.222.177-.31.442-.399.752-.044.355-.044.664-.044.93 0 .31.044.487.044.532.133.753.531 1.107 1.284 1.107.045.044.355 0 .975-.089.575-.088 1.018-.177 1.24-.354s.354-.532.31-1.107v-1.063a1.09 1.09 0 0 0-.487-.797c-.178-.133-.798-.222-1.772-.222m6.732.31c-.31.265-.487.708-.532 1.284-.044.575-.044.885 0 .885 0 .399.089.665.266.886.177.177.62.266 1.373.266 1.018 0 1.594-.089 1.816-.31.221-.177.354-.443.443-.797a4.5 4.5 0 0 0 .132-1.107c0-.4-.044-.71-.221-.93-.266-.266-.797-.4-1.639-.443-.885 0-1.417.088-1.638.265m79.096-.71c-.885 0-2.037.045-3.498.09-1.462.044-2.392.088-2.746.088-.62.044-1.285 0-1.993-.044-.709-.045-1.196-.089-1.462-.089-.664.044-1.018.354-1.018.886v1.018c0 .399.088.709.266.842.177.177.487.221 1.018.221l3.942-.044 4.34.088 3.72-.044c.487 0 .797-.088.974-.221s.266-.443.266-.886v-.709q0-.663-.266-.93c-.133-.132-1.328-.221-3.543-.265m53.499-12.09c.531.045.797.355.841.93.045.576-.088 1.108-.265 1.595-.576 1.328-1.949 2.746-3.986 4.251-2.082 1.506-3.942 2.613-5.58 3.278q-2.459.996-3.189.93c-1.063-.045-1.993-.576-2.702-1.64-.752-1.062-1.107-1.726-1.062-2.08s.088-.576.177-.71c.133-.22.354-.442.708-.663.31-.222.886-.399 1.639-.576s2.436-.753 5.049-1.772q3.919-1.46 5.846-2.524c1.24-.664 2.081-1.019 2.524-1.019m-157.263-.398c.487.044.797.221.974.576q.266.465.266.93c0 .265-.222.708-.62 1.284-1.196 1.55-3.1 3.1-5.713 4.694-2.613 1.595-4.739 2.303-6.333 2.215-1.152-.045-2.037-.443-2.613-1.24a5.3 5.3 0 0 1-1.019-2.746c-.044-.31 0-.576.133-.753s.576-.31 1.417-.399c.797-.044 2.17-.31 4.03-.752 1.905-.443 3.366-.886 4.473-1.418a50 50 0 0 0 3.1-1.55c.886-.575 1.595-.841 1.905-.841m101.151 6.2h-6.908c-.443.044-.753.089-.93.221-.178.133-.266.266-.266.443-.044.133-.044.487-.044 1.063v.62c0 .31.088.532.221.709s.531.266 1.107.266c.399.044 1.506 0 3.277-.09 1.772-.088 3.809-.088 6.156-.088 2.347.045 3.587-.044 3.72-.221q.2-.2.133-.797V29.81c-.044-.355-.088-.576-.221-.753s-.399-.266-.797-.31h-1.152zm67.317-4.562c.221 0 .664.089 1.372.222s1.506.221 2.348.221c.443.045 1.107.045 2.037 0 .93-.044 1.683-.044 2.17-.088q.73 0 3.986.133c2.17.088 4.163.177 5.934.221 1.772.044 2.657.532 2.702 1.417 0 .886-.222 1.55-.709 1.904-.531.443-1.993.665-4.296.71-.088.043-1.063 0-2.878-.09-1.816-.088-3.41-.088-4.739-.088-3.056.044-5.005.089-5.89.221-.886.133-1.683.31-2.347.488l-1.551.442c-.797.222-1.417.222-1.904 0-.487-.221-.797-.442-.93-.708q-.199-.399-.266-1.063c.089-.576.222-1.063.399-1.417s.753-.842 1.771-1.506c1.108-.664 1.993-1.019 2.791-1.019" fill="#231916"/><path d="M140.794 85.79h319.619v-3.5H140.794z" fill="#c4232a"/><path d="M316.923 97.924c2.967 0 5.093.841 6.466 2.524.752.93 1.151 1.904 1.195 2.834h-3.675c-.222-.753-.532-1.284-.93-1.638-.665-.665-1.639-.975-2.923-.975-1.329 0-2.348.487-3.145 1.417-.753.931-1.151 2.259-1.151 3.986q0 2.592 1.195 3.853c.798.842 1.816 1.285 3.056 1.285 1.285 0 2.259-.355 2.923-1.108.354-.398.665-.974.93-1.771h3.676c-.31 1.683-1.151 3.011-2.436 4.074s-2.967 1.55-5.004 1.55c-2.525 0-4.517-.708-5.935-2.125-1.461-1.418-2.17-3.366-2.17-5.846 0-2.657.842-4.739 2.48-6.156 1.418-1.285 3.233-1.904 5.448-1.904m80.248-.4c2.258 0 4.03.488 5.403 1.462 1.373.975 2.125 2.215 2.347 3.676h-3.632c-.265-1.018-.974-1.771-2.037-2.17a6 6 0 0 0-2.037-.354c-1.417 0-2.569.443-3.499 1.373s-1.373 2.303-1.373 4.163q0 2.79 1.462 3.986c.974.797 2.126 1.151 3.366 1.151q1.86 0 3.055-.93 1.197-.93 1.462-2.392h-4.074v-2.524h7.351v8.149h-2.436l-.354-1.904c-.708.708-1.328 1.24-1.904 1.505-.975.532-2.17.753-3.587.753-2.348 0-4.252-.708-5.758-2.081-1.55-1.417-2.347-3.322-2.347-5.758 0-2.48.797-4.428 2.347-5.934 1.595-1.417 3.676-2.17 6.245-2.17m-136.006 0c2.48 0 4.429.577 5.758 1.772q2.657 2.06 2.657 6.245 0 4.052-2.657 6.244c-1.329 1.196-3.233 1.772-5.758 1.772-2.48 0-4.428-.576-5.757-1.772q-2.657-2.192-2.657-6.244c0-2.79.886-4.827 2.657-6.245 1.373-1.195 3.277-1.771 5.757-1.771m182.817.4v2.701h-9.256v3.233h8.503v2.657h-8.503v3.897h9.699v2.746h-13.286V97.924zm-242.338 0 7.086 10.628V97.923h3.454v15.235h-3.72l-7.263-10.806v10.806h-3.455V97.924zm20.062 0v6.288l6.82-6.288h4.783l-7.263 6.244 7.617 8.946h-4.739l-5.447-6.643-1.771 1.55v5.093h-3.632V97.879h3.632zm196.678 0c1.107 0 1.993.132 2.702.31 1.24.354 2.214.974 2.967 1.948a6.4 6.4 0 0 1 1.24 2.436c.221.886.354 1.727.354 2.524 0 2.037-.487 3.72-1.417 5.138-1.284 1.904-3.233 2.834-5.89 2.834h-7.573V97.879h7.617zm-252.303 0c2.126.044 3.676.575 4.562 1.638.531.664.797 1.417.797 2.303q0 1.395-.797 2.259c-.31.31-.753.62-1.329.885.886.266 1.594.709 2.037 1.329s.665 1.373.665 2.214c0 .886-.266 1.728-.797 2.436-.355.487-.753.886-1.241 1.196-.575.354-1.24.62-1.992.753-.753.133-1.595.221-2.481.221h-7.927V97.924zm21.125 0 6.289 15.234h-4.03l-1.152-3.144h-6.51l-1.196 3.144h-3.853l6.333-15.234zm185.784 0 7.086 10.628V97.923h3.454v15.235h-3.72l-7.263-10.806v10.806h-3.454V97.924zm-85.474 0v2.657h-8.857v3.498h7.75v2.658h-7.75v6.377h-3.632V97.879h12.489zm75.687 0v2.701h-9.256v3.233h8.503v2.657h-8.503v3.897h9.698v2.746h-13.286V97.924zm-29.496 0v5.801h6.776v-5.801h3.632v15.234h-3.632v-6.776h-6.776v6.776h-3.631V97.924zm-72.542 2.258c-1.461 0-2.613.443-3.454 1.373s-1.284 2.214-1.284 3.942c0 1.682.443 3.011 1.284 3.941s2.037 1.373 3.454 1.373c1.462 0 2.613-.443 3.455-1.373.841-.93 1.284-2.214 1.284-3.941 0-1.683-.443-3.012-1.284-3.942-.842-.886-1.993-1.373-3.455-1.373m156.599.354h-3.366v9.921h3.366c1.727 0 2.923-.753 3.632-2.215.354-.797.575-1.771.575-2.923 0-1.55-.265-2.745-.841-3.587-.576-.753-1.683-1.196-3.366-1.196m-252.347 5.891h-4.34v4.074h4.296c.753 0 1.373-.089 1.771-.266.753-.31 1.152-.974 1.152-1.904 0-.797-.355-1.329-1.108-1.639-.442-.177-1.018-.265-1.771-.265m19.663-5.049-2.303 5.979h4.518zm-20.195-.842h-3.808v3.366h4.296q1.13 0 1.86-.398c.487-.266.708-.709.708-1.329 0-.709-.31-1.196-.93-1.417a9.5 9.5 0 0 0-2.126-.222" fill="#231916"/><path d="M64.089 14c25.332 0 46.279 18.778 49.645 43.136-3.056-14.615-16.076-25.598-31.62-25.598-17.848 0-32.33 14.437-32.33 32.24S64.266 96.02 82.114 96.02c15.854 0 29.052-11.426 31.797-26.439C111.121 94.558 89.908 114 64.133 114 36.453 113.911 14 91.546 14 63.956 14 36.365 36.454 14 64.089 14M91.9 51.467a3.27 3.27 0 0 1 3.277 3.277v17.67a3.27 3.27 0 0 1-3.277 3.278H70.555V51.467zm-6.2 9.3h-5.802v5.846H85.7z" fill="#c4232a"/></svg>