<svg width="128" height="128" fill="none" xmlns="http://www.w3.org/2000/svg"><path d="M64.132 21.5c21.565 0 39.387 15.964 42.233 36.683-2.607-12.437-13.665-21.78-26.915-21.78-15.187 0-27.498 12.273-27.498 27.413S64.263 91.229 79.45 91.229c13.505 0 24.729-9.71 27.05-22.507-2.356 21.25-20.425 37.778-42.368 37.778C40.587 106.5 21.5 87.472 21.5 64s19.087-42.5 42.632-42.5m23.584 31.875a2.78 2.78 0 0 1 2.784 2.779v15.029a2.78 2.78 0 0 1-2.784 2.778H69.5V53.375zm-5.321 7.904H77.42v4.962h4.973z" fill="#c4232a"/></svg>