<svg width="435" height="128" fill="none" xmlns="http://www.w3.org/2000/svg"><path d="m58.506 14 10.182 10.63-49.98 49.917c-11.107-11.555.925-21.261.925-21.261zM35.094 90.538 74.38 51.664s9.706-12.032 21.26-.925l-50.378 49.98z" fill="#f29600"/><path d="M82.075 37.483 42.719 76.437s-9.722 12.057-21.298.927l50.005-50.083zM58.925 114l38.892-39.418s12.038-9.739.926-21.332l-50.468 50.084z" fill="#e50012"/><path d="M188.582 60.1c2.316 2.776 4.169 5.553 6.486 7.404l-6.486 7.869s-2.78-2.778-6.486-7.869c-1.854 2.315-4.633 4.629-7.876 6.48l-6.487-6.017s5.097-2.777 9.73-7.868c-3.707-6.943-7.413-15.736-9.73-26.845H149.2v7.869h14.363s3.244-.463 3.244 3.24v12.496s.926 7.405-6.95 17.588l-7.414-5.091s5.097-5.554 5.097-12.96v-8.794s.927-2.314-1.853-2.314h-5.56V55.47s0 11.109-7.876 18.051l-7.414-5.09s6.024-6.48 6.024-13.886V27.7h9.266v1.852h17.606c-.464-2.314-.927-4.629-.927-6.943h9.266s0 2.777.927 6.943h5.096c.464-1.39 1.39-4.629 1.39-4.629h9.267c-.926 1.389-1.39 8.794-1.39 8.794h-13.899c.926 5.091 2.779 11.108 5.559 17.125.927-2.777 1.854-5.091 1.854-8.331h8.339s.927 8.331-4.633 17.588m43.088-37.49v3.239h11.12v4.165h-11.12v5.555h11.12v4.628h-16.68c0 1.388-.926 3.24-1.853 5.091h14.362s4.17-.463 4.17 3.24v25.456h-26.871V58.71c-1.854 2.314-2.78 3.703-2.78 3.703l-6.023-6.017c4.169-3.24 8.803-13.885 9.729-16.662h-6.023v-4.166h11.12v-5.554h-10.657v-4.166h11.12v-3.24h9.266zm-7.877 26.38h.464v7.406h9.729V50.38s.464-1.388-1.853-1.388h-8.34m0 12.035v8.794h9.73v-8.794zm41.699-35.176c7.413 0 5.56 5.554 5.56 5.554l-4.634 12.034s1.39 7.868 1.854 9.72c.463 1.85.926 7.868.926 7.868 0 7.868-12.046 9.256-14.826 9.72v3.702h-9.266v-38.88h9.266v28.695c2.78-.462 4.634-1.85 5.097-3.239.926-2.315-.463-7.406-.927-10.183-.463-2.777-1.39-5.554-1.39-6.48-.463-1.388 0-2.314 0-2.314s2.317-6.48 3.244-9.256c.926-2.778-2.317-2.778-2.317-2.778h-12.973V25.85zm33.822 12.96h.463V48.99h6.95v4.166h-6.95v13.885c1.39 0 4.17-.926 4.17-.926l2.316 4.628s-6.023 2.777-11.119 3.703c-5.097.463-5.097-4.166-5.097-4.166V52.694h-6.486v-4.166h6.486v-9.72h-3.243a16.7 16.7 0 0 1-1.853 2.315l-6.023-4.629c3.706-3.24 12.046-15.736 12.046-15.736l5.56 4.165c0 .463-.464.926-.464 1.389h10.193v4.165h-12.972c-1.39 1.389-2.317 3.24-3.707 4.629h16.679v3.702zm18.996 28.233s4.169-.463 7.413-2.314l1.853 5.09s-10.657 3.24-12.973 3.703-5.56.463-5.56-3.24V24.924h30.115s3.707 0 3.707 3.703v19.902H318.31zm0-37.49v5.554h15.289v-3.24s0-2.314-2.78-2.314zm0 9.256v6.017h15.289V38.81zm25.945 15.274s-2.317 4.166-6.486 6.943c0 0 5.56 4.165 9.266 5.091l-4.633 7.868s-14.363-3.703-20.386-23.141h8.34s1.853 3.702 2.78 4.627c0 0 4.169-2.314 6.022-4.628zm30.116-29.159s-8.34 10.183-13.437 12.96l-5.096-5.091s9.266-6.943 12.973-12.034zm-18.07 22.216s12.046-9.256 16.216-13.885l5.56 4.166s-1.39 1.388-3.243 3.703v33.324h-9.267v-24.53l-4.169 2.777zm23.166-9.256v.462h41.698v4.166h-8.339v25.456c0 3.703-4.17 5.092-4.17 5.092l-8.34 2.776-4.17-5.09s2.78-1.389 4.633-2.778c2.317-1.388 1.854-3.703 1.854-3.703V42.049h-23.166zm40.772-12.96v4.166h-39.846v-4.166zM137.962 88.43h7.407c2.778 0 6.944.93 6.944 4.651 0 2.325-1.851 3.72-4.166 4.185 2.778.465 5.092 1.86 5.092 4.185 0 4.651-4.629 5.581-7.407 5.581h-7.407V88.431zm4.167 7.441h1.851c1.852 0 4.167-.465 4.167-2.325 0-2.325-2.315-2.325-4.167-2.325h-1.851zm0 8.371h1.851c1.852 0 4.63-.465 4.63-2.791s-2.315-2.79-4.63-2.79h-1.851zm20.369-15.811h4.63l8.333 18.601h-4.63l-1.852-4.186h-8.796l-1.851 4.186h-4.63zm2.315 3.72-3.241 7.905h6.018zm13.425-3.72h5.092l8.333 13.951V88.43h4.167v18.601h-5.092l-8.334-13.95v13.95h-4.166zm22.221 0h4.167v7.905l7.87-7.905h5.091l-8.795 8.835 9.259 9.766h-5.556l-7.87-8.836v8.836h-4.166zm38.424-.466c6.481 0 10.648 4.186 10.648 9.766 0 5.581-3.704 9.766-10.648 9.766s-10.648-4.186-10.648-9.766 3.704-9.765 10.648-9.765m0 16.741c4.167 0 6.018-3.255 6.018-6.975 0-3.255-1.851-6.51-6.018-6.51s-6.018 3.255-6.018 6.51c0 3.72 1.388 6.975 6.018 6.975m14.351-16.275h12.036v2.79h-7.406v4.65h7.406v2.79h-7.406v8.371h-4.167V88.431zm39.35 18.601c-1.389.465-3.241.465-4.63.465-6.944 0-11.573-3.256-11.573-9.3 0-6.512 4.629-10.231 11.573-10.231 1.389 0 3.241.465 4.63.93l-.463 3.255c-1.389-.93-3.241-.93-4.63-.93-4.629 0-6.944 2.79-6.944 6.975 0 3.72 2.778 6.51 7.407 6.51 1.852 0 3.704-.465 4.63-.93zm2.777-18.601h4.167v7.44h8.333v-7.44h4.166v18.601h-4.166v-8.37h-8.333v8.37h-4.167zm22.222 0h12.499v2.79h-8.333v4.65h7.407v2.79h-7.407v5.116h8.333v2.79h-12.499zm16.665 0h5.092l8.333 13.951V88.43h4.167v18.601h-5.092l-8.333-13.95v13.95h-4.167zm38.887 3.72c-1.852-.465-3.703-.93-5.555-.93-5.092 0-7.871 2.79-7.871 6.975 0 3.72 2.779 6.51 7.408 6.51 1.389 0 1.852 0 2.777-.465v-5.115h-4.629v-2.79h8.796v10.231c-2.315.465-4.629.93-6.944.93-6.944 0-11.574-3.256-11.574-9.3 0-6.512 4.63-10.231 11.574-10.231 2.315 0 4.629.465 6.481.93zm5.555-3.72h6.018c6.482 0 12.5 1.86 12.5 9.3s-5.555 9.301-12.5 9.301h-6.018zm4.167 15.811h2.315c3.703 0 6.944-2.326 6.944-6.511s-3.241-6.51-6.944-6.51h-2.315zm17.591-15.811h4.167v10.695c0 3.256 1.389 5.116 4.629 5.116 3.241 0 4.63-2.326 4.63-5.116V88.431h4.166v12.09c0 5.116-3.241 6.976-8.796 6.976s-8.796-1.86-8.796-6.976z" fill="#231815"/></svg>