<svg width="128" height="128" fill="none" xmlns="http://www.w3.org/2000/svg"><path d="m62.925 21.5-1.076.095-2.15.1-2.148.29-1.073.198-1.077.195-.977.198-1.072.294-1.955.584-1.954.588-1.955.783-1.855.878-1.855.973-.886.493-.874.488-.882.584-.878.489-1.66 1.27-.787.583-.874.588-1.465 1.367-1.467 1.466-.782.683-.684.782-.683.684-.687.782-1.172 1.66-1.271 1.662-1.069 1.76-.492.881-.489.878-.977 1.855-.878 1.855-.683 1.954-.684 1.955-.588 1.954-.488 2.054-.393 2.149-.294 2.149-.095 2.149L21.5 64v1.073l.095 1.076.096 2.245.294 2.053.198 1.076.195 1.073.198.977.29 1.073.588 1.958.684 2.05.683 1.855.878 1.959.977 1.755.489.978.492.877.584.878.485.782 1.271 1.661.588.878.584.782 1.37 1.566 1.466 1.466.684.683.782.683.684.683.782.688 1.66 1.27 1.661 1.172 1.76 1.073.874.488.886.589 1.855.878 1.855.877 1.955.782 1.954.684 1.955.489 2.05.488 2.148.389 2.15.294 2.149.199h3.909l1.66-.1 1.665-.194.874-.1.783-.099 1.66-.29 1.565-.393 1.66-.389 1.562-.488 1.47-.589 1.561-.584 1.462-.587 1.47-.683 1.462-.783 1.37-.779 1.37-.877 1.267-.882 1.272-.978 1.267-.977 1.172-1.076 1.176-1.073 1.172-1.172 1.076-1.076 1.073-1.272.977-1.266.882-1.272.973-1.271.783-1.367.878-1.465.687-1.37.683-1.466.683-1.466.584-1.561h-5.958l.882 2.053-9.185 13.383h-50.22l-9.868-12.306 21.69-55.982 12.31 29.312 11.727-29.606 11.235 26.28h18.17l-.584-1.565-.588-1.656-.584-1.565-.783-1.465-.683-1.565-.882-1.466-.878-1.367-.878-1.367-1.076-1.37-.489-.683-.489-.683-1.072-1.271-1.172-1.172-1.176-1.172-1.267-1.172-1.271-1.076L89.6 30.1l-1.376-.981-1.365-.977-1.466-.874-1.463-.787-1.465-.779-1.565-.683-1.561-.686-.783-.29-.779-.299-1.665-.485-1.66-.488-1.66-.393-1.76-.29-1.66-.294-1.76-.1-1.856-.194zm-2.442 59.692h23.545L72.01 52.083zm-24.133 0h23.548L47.883 52.083zm51.193-27.158.786 1.76h17.388l-.389-1.76zm1.76 4.103.687 1.76h16.315l-.195-1.76zm1.76 4.103L91.75 64h14.75v-1.76zm1.66 4.107.783 1.757h12.799l.195-1.757zm1.76 4.1.782 1.76h10.452l.294-1.76zm1.76 4.103.779 1.66h7.718l.489-1.66z" fill="#e50113"/></svg>