<svg width="427" height="128" fill="none" xmlns="http://www.w3.org/2000/svg"><path d="m60.72 16.05-1.208.117-2.418.117-2.418.313-1.209.233-1.209.235-1.092.233-1.209.313-2.223.662-2.223.663-2.223.898-2.106.974-2.028 1.092-1.014.546-.974.546-1.014.663-.976.546-1.871 1.443-.897.663-.975.663-1.638 1.56-1.638 1.638-.897.78-.78.897-.78.78-.78.897-1.326 1.872-1.443 1.872-1.21 1.989-.545 1.014-.546.897-1.092 2.106-.975 2.106-.78 2.223-.78 2.223-.663 2.145-.546 2.3-.429 2.419-.351 2.418-.117 2.417L14 64.02v1.21l.117 1.208.117 2.535.351 2.301.234 1.21.234 1.208.234 1.092.312 1.21.663 2.222.78 2.301.78 2.106.975 2.223 1.092 1.989.546 1.092.546.975.663.975.546.897 1.443 1.872.663.975.663.897 1.56 1.755 1.638 1.638.78.78.897.78.78.78.897.78 1.872 1.443 1.871 1.326 1.99 1.209.974.546 1.014.663 2.106.974 2.106.975 2.223.897 2.223.78 2.223.546 2.301.546 2.418.429 2.418.351 2.418.234h4.407l1.872-.117 1.872-.234.975-.117.897-.117 1.872-.312 1.755-.429 1.872-.429 1.755-.546 1.677-.663 1.754-.663 1.638-.663 1.677-.779 1.638-.897 1.56-.897 1.56-.975 1.443-1.014 1.443-1.092 1.443-1.092 1.326-1.21 1.326-1.208 1.326-1.326 1.21-1.21 1.208-1.442 1.092-1.443 1.014-1.443 1.092-1.443.897-1.56.975-1.638.78-1.56.78-1.638.78-1.638.663-1.755h-6.708l1.014 2.301-10.374 15.093h-56.9L23.165 83.909 47.656 20.73l13.845 33.15 13.22-33.423 12.675 29.64h20.514l-.663-1.755-.663-1.872-.663-1.755-.897-1.638-.78-1.755-1.014-1.638-.975-1.56-.975-1.56-1.209-1.56-.546-.78-.546-.78-1.209-1.443-1.326-1.326-1.326-1.326-1.443-1.326-1.443-1.209-1.443-1.092-1.56-1.092-1.56-1.092-1.638-.975-1.638-.897-1.638-.897-1.754-.78-1.755-.78-.897-.311-.897-.351-1.833-.508-1.872-.546-1.872-.428-1.99-.312-1.871-.352-1.99-.116-2.105-.235zm-2.729 67.352h26.558L70.978 50.565zm-27.221 0h26.558L43.756 50.565zm57.757-30.653.897 1.989h19.617l-.429-1.99zm1.99 4.64.78 1.99h18.407l-.234-1.99zm1.988 4.642.78 1.988h16.653V62.03zm1.872 4.601.897 1.99h14.43l.234-1.99zm1.95 4.641.897 1.99h11.778l.351-1.99zm1.99 4.641.896 1.872h8.697l.546-1.872z" fill="#e50113"/><path d="m376.926 26.27-.624.311-.624.547-.546.546-.312.428-.195.43-.234.546-.195.546-.117.234-.234.233-.741.546-.312.234-.117.546-.117.546v.858l-.117.43-.117.233-.117.117-.195.117-.312.234v.195l-.117.234-.234.858-.117.234-.624.546-.312.546-.624.741-1.482 1.716-2.028 2.145-.195.234-.429.43-.312.233-.312.117-.312.117h-.234l-.429-.117h-.234l-.195.117-.312.117-.312.234-1.17.975-1.287.546-1.17.741-.117 3.432v-.312l.117.312.117.117v.234l.234.117.117.117h.117l.117.117.117.234v.312l.117.195.117.234.312.429.234.312.117.312h.741l.234.117.312.117.234.117.234.234.117.117h.624l.429-.117.624-.234.234-.117 1.053-.858.429-.312.429-.429.429-.546.117-.195.234-.234.312-.117h.936l.117.312.312.429.429.429.429.546.234.312v.234l-.117.117-.117.195-.312.234-.117.117h-.273l-.234.312-.117.312-.117.312-.117.663v.195l-.546.624-.234.234-.312.234-.429.429-.117.234-.234.195-.195.546-.234.429-.117.117-.234.117h-.117l-.312.234-.546.312-.624.624h-.234l-.429.117-.234.117-.195.234-.234.234-.117.195-.117.312-.195.195-.312.234-.234.117-.741.312-.624.234-.546.195-.312.117-.234.234-.546.312-.624.312-.624.234-.975.546-.428.234-.234.234-.117.117v.234h.117l.117.117.117.117v.624l.117.117.116.117.312.195.118.234.233.234.117.234.234.429v.234l2.769 1.794v-.117l.234-.234h.507l.312.117.546.195.312.117h.312l.312-.117.312-.117.546-.312.546-.43.429-.545.429-.546.312-.43 1.17-1.052.117-.117.234-.195.195-.117.234-.117.312-.117h.312l.195.117.234.117.117.117.195.429.117.429.117.546v1.092l-.117.546-.117.429-.117.624v.74l.117 1.717.234 2.222-.117 1.404.117.117.195.313v.624l-.117.311-.234.43-.117.233v.234l-.117.546V78.1l-.117.195v.117l-.117.117-.429.234-.429.312-.312.312-.117.312v.234l-.117.117-.117.117-.234.117-.546.234-.624.195-.546.234-.234.117-.117.117v.312l.117.117.117.117 1.053.546.546.195.117.117h.546l.546.234h.117l.234.117.624.43.975.428 1.287.624.429.234.429.117.741.117h1.17l.546-.117.429-.117.234-.117.117-.117.117-.195.195-.312.234-.429.546-.312.429-.429.546-.546.195-.312.234-.429.117-.546.117-.546.117-.429.117-.429v-.429l.234-2.769-.234-2.457.234-1.793.117-.625v-1.52l-.117-.234-.117-.624-.117-.741v-1.716l.117-.858.117-.624.117-.546-.117-.546-.117-.43v-.428l.117-1.287v-.546l-.117-.234-.117-.195-.312-.234-.195-.234-.117-.117v-.234l-.117-.234v-.507l.117-.312.117-.312-.117-.234-.117-.312-.117-.312-.234-.43v-.233l.117-.117h.117l.195-.117.234-.195.624-.546.624-.858h.429l.195-.117.117-.117.117-.117v-.43l.117-.116.195-.117.117-.117h.624l.858-.117h.429l.195.117.117.234.117.117v.117l-.117.234v.234l-.234.429-.195.312-.234.429v.234l.117.117.117.117 3.939.429.858-.117 3.081-.312.975-.117.624.117.312.117.117.117.234.234.117.117.117.234v.546l.117 2.769.117 1.404.117 1.053v.546l-.117.312-.117.858-.117 1.053v1.287l.117.429.117.858.117.624v1.248l-.234.546-.117.623-.117.624-.117 1.287v1.404l-.312 1.404-.117.195-.429.43-.624.545-.741.741-.546.234-.429.195-.312.117-.429-.117-.741-.195-.858-.312-.429-.195h-.351l-.117.195v.43l-.117.194-.117.117-.117.234-.312.195-.117.312v.43l.117.311.312.624.312.546.195.234.234.117h.507l.117.117.117.117.117.234.234.546.195.312.234.312 2.223.234 3.081.43h6.513l.741.116.624.117.312-.117.311-.234.235-.312.116-.234v-5.967l-.311-6.279-.313-4.367-.116-1.482-.117-.546v-.195l-.195-.43-.234-.311v-.195l-.117-.234v-.312l.117-.312.117-.858.117-.858.195-1.053-.195-.858-.312-1.716v-.234l.117-.195.234-.312.312-.234.312-.117.428-.117h.858l.975-.312.741-.117h.624l1.833.429 1.17.117h.234l.195-.195.234-.117.234-.117h.195l.858.117.429-.117h.312l.429-.234h.897l.195.117.234.234.117.117.234.117h.117l.117-.117v-.351l-.117-.312-.234-.43-.429-.623-.117-.312v-.663l.234-.43.117-.116v-.234l.117-.546v-1.482l-.117-2.769.117-.975v-.975l.234-1.053v-.858h-.117l-.117.234-.234.234-.741.546-.975.624-1.17.546-.741.234-.975.195-2.34.312-2.145.117-.858.117-3.431.312-7.137.117-5.109.117-1.794.117-.975.117h-.117l-.195.117-.234.117-.117.117v.117h-.117v.429l.117.858.117.312v.429l-.117.234-.234.312-.117.234-.195.234-.234.195h-.234l-.312-.117-.117-.234-.234-.234-.117-.195-.312-.312-.195-.195-.234-.234-.234-.195-.195-.312-.312-.624v-.351l-.117-.234-.234-.195-.234-.234-.429-.234h-.936l-.312-.117-.429-.117-.195-.312-.234-.312-.117-.312-.117-.429v-1.053l.117-.195.117-.234.117-.234.117-.195.195-.195.312-.234.312-.234.312-.117h.429l.312-.117.546.117h.234l.117.117h.312v-.117l.117-.117v-.312l-.117-.624v-1.326l.117-.195.117-.117.117-.234.117-.312.117-.858v-.74l-.117-.313v-.234l-.117-.117v-.312l-.117-.546-.117-.858.117-.234v-.74l-.117-.859-.117-.546-.234-.546-.117-.429v-.975l.195-.429.312-.624.429-.429.117-.312.195-.311v-.43l-.117-.117-.117-.116-.117-.195-.546-.858-.117-.235v-.974l-.117-.117h-.819l-.429-.195-.234-.234-.234-.312-.312-.624-.117-.234h-.117l-.117.234-.117.116-.429.235zm6.084 6.59 1.287.43 2.028-.118 2.886.195h.546l.312-.117.741-.312.234-.117.312-.117h.429l.546.117 1.599.234 2.457.312.624.117h1.911l1.053-.117.858-.195.74-.312.429-.195.429-.234 2.457-1.287v-.117l.117-.234.117-.117.312-.234.429-.234.624-.233.858-.117.429-.117h.312l.312.117.234.116.234.117.117.234.117.117.117.234v.43l-.117.311v3.081l-.429 3.315-.117 2.223-.117.546-.429 1.716-.234.43-.117.194-.234.117-.195.117-.117.117h-.546l-1.17-.234-1.365-.312-.858-.117h-.741l-.858.117h-.857l-1.482.195-1.053.117h-2.379l-4.368.312-6.396.39-.429.117-.312.117-.234.117v-1.599l-.117-1.287-.117-.546-.117-.429-.117-.429-.117-.429-.117-.975-.117-1.794-.117-.74-.195-.859-.312-1.17-.234-.312-.117-.312v-.234l.234-.117zm-84.004-8.072v-.312l.117-.195.117-.312.117-.195.117-.117h.234l.195.117.117.117.234.195 1.053 1.053.429.624.312.545.195.43.117.428.312.43.429.311.429.313.195.117.234.233.312.43.117.428.117.117v.234l.117.234.429.312.936.624.117.117.234.234.117.312v.43l.195.311.234.312.117.43.117.428v.507l-.117.234-.117.234-.234.195-.195.234-.234.195v.351l.117.234.117.312.546.43.429.233.975.43h.429l.312.116.312-.117.312-.117.429-.429.429-.429.312-.546.117-.195v-.117h-.117l-.117-.546-.117-.624-.117-.624.117-.312.117-.195.117-.312v-.936l-.117-.546-.117-.195v-.857l.117-.312.117-.117.117-.118h.234l.312.195 2.339 1.6 1.287 1.052.429.43.195.311.117.117.234.117h.546l1.911-.312 1.287-.117 1.482-.117h.741l.741.117.858.117.858.234.195-.117h.936l.429-.117h.234l.234-.117.117-.117.195-.117.195-.312.312-.117.429-.195h.195l.117.117.312.117h.117v-.195l.312-.312.117-.234.234-.234.312-.117h.858l.429-.117.741-.429.312-.117.195.117.312.312.117.312v1.482l.117.312v.43l.117.311.117.312v.195l.117.195v1.482l-.117.858-.117 1.6v.74l-.117.117-.234.312-.234.312-.117.195v.234l-.117.975-.195 1.716-.195 1.911-.234.741-.117.312-.117.195-.117.312-.117.312v3.081l.195 2.223.234 1.599v.312l-.117.624-.117.975-.117.429-.234.546-.234.429-.195.624-.117.546v1.092l.117.195v.234l.195.195.117.117h.429l.429-.117.429-.117.429-.234.234-.234.312-.312.234-.43.546-.857.312-.624.117-.195.195-.117h.117l.117.117.312.546h.234l.312.117.312.195.312.234.234.312.117.234v.74l-.546 1.405.429.74.117.118v.234l-.117.117-.117.234-.117.117-.117.312v.819l.234.429.234.312.117.117.195.117.117.117.234.312.117.117-.117.117-.234.195-.429.117h-.234l-.234.117-.234.117-.312.234-.195.195-.234.312-.117.312-.429.117-.429.117-.546.117h-1.794l-.429-.117-.975-.195-.702-.39-.546-.117h-.624l-.117.117-.117.195-.195.429-.312.429-.117.312v.663l.117.195.117.234.429.429.546.429.429.195.312.117.624.234.624.195h.624l.741.117.429.116.312.117.975.43 1.053.546.312.195.429.117.312.116h1.17l.624-.117.624-.117.429-.194.429-.234-.117.74-.195 1.717-.234.974-.312 1.053-.312 1.053-.546.975-.975 1.404-.624.858-.429.546-.312.195-.741.624-.741.741-.312.43-.117.233-.117.312h-.273l-.429-.234v-.117l-.117-.117-.234-.312-.195-.312-.195-.117-.234-.234h-.234l-.429-.117h-.234l-.429-.234-.429-.429-.624-.624-.312-.117-.624-.546-.429-.546-.468-.468-.624-.74-.624-.937-.234-.546-.234-.429-.195-.546-.234-.312-.117-.234-.234-.195-.195-.117-.312-.117h-.507l-.234.234-.429.312-.234.234-.117.195v.351l-.234.312-.312.312-.624.546-.429.312-.312.195-.429.43-.234.233-.117.234-.117.312-.117.234v.468l-.312.546-.312.312-.429.546-.624.43-.429.311-.429.234-.975.43-1.365.428-1.833.975h-1.793l-.429.312-.429.234-.546.234-.546.234h-.429l-.195-.117-.234-.117-.195-.234-.117-.234v-.74l-.117-.196-.117-.312-.117-.234-.195-.117-.117-.117-.117-.117v-.78l.117-1.053-.117-.429-.195-.312-.234-.312-.312-.429-.312-.195-.429-.234-.312-.117-.234-.117h-.312l-.234.117h-.195l-.234.117-.312.234-.312.312-.429.546-.117.312-.117.117-.429.312-.234.117-.312.117-.429.117-.429-.117h-.156l-.234.117-.195.234-.234.195-.312.43-.117.233-.858.43-.624.233h-.546l-.117.117-.312.312-.312.546-.117.117-.117.117-.195.117h-.234l-.312-.117-.117-.117-.117-.234-.429-.429-1.716-1.91-.624-.976-.117-.312-.429-.429-.195-.312-.312-.312-.312-.117-.234-.117-.117-.117h-.312l-.117-.195-.117-.234v-.195l.117-.312.117-.234-1.482-3.51v-.234l.117-.117h.117l.117-.117h.312l.312.117.546.117.546.118h1.911l.624-.118.546-.233.429-.312.429-.312.429-.117.429-.118.234-.117h.546l.117.117.312-.117.624-.546.312-.428.234-.43.117-.311.117-.312.117-.312v-.741l-.117-.312-.117-.312-.117-.234-.117-.117-.117-.117-.312-.117-.312-.117-.312.117h-.312l-.117.117-.312.117-.195.195-.234.234-.234.156-.234.429-.117.117-.117.234-.312.312-.429.311-.429.313-.546.195-.429.234h-.507l-.195-.312-.234-.196v-1.637l-.117-.43-.195-.857-.234-.624-.117-.312-.117-.43-.312-.974-.117-.546v-1.053l.117-.234h.117l.117-.117.429-.117h.429l.429.117.858.117.312.117h.741l.624.117h.741l.858-.117.624-.195.234-.117.195-.234.234-.195v-.312l.234-.975v-.43l-.117-.311-.117-.312-.234-.234-.429-.117h-.429l-2.652.624-.234.117-.195-.117h-.195l-.234-.117-.312-.117-.234-.312-.117-.195v-.117l-.156-.351-.195-.312-.312-.312-.195-.312-.234-.117h-.585l-.195.195-.234.234v.312l-.117.429-.117.429v.429l-.234.546-.312.546-.234.312-.234.234-.117.234-.117.195-.117.546-.117.234-.234.312-.312.234-.234.195h-.117l-.117.117-.117.312-.117.312v.312l.117.74v.547h.117l-.195.117h-.234l-.312-.117-.234-.117-.429-.312-.429-.234-.312-.117-.312-.195-.312-.312-.195-.312-.195-.312-.117-.312v-.195l-1.287-.43h-.429l-.312-.116-.429-.117-.429-.234-.117-.117-.195-.195-.117-.234v-1.911l-.117-.117-.117-.117h-.195l-.117-.117-.234-.117v-.117l.117-.234.117-.117.429-.312.234-.117.312-.117.858-.312 1.053-.312h.234l.546-.117.741-.234.429-.234.429-.195.546-.312.546-.43.546-.545.546-.546.546-.741.546-.741.546-.975.546-1.053 3.9-8.502 1.17-5.109.975-4.056.546-1.716.312-1.17.117-.429.312-.975.195-1.287.234-.74.117-.742.117-2.144v-.585zm18.758 40.403v-.234l.117-.195.117-.117.117-.195.312-.117h.429l.546.117.312.195.117.117.117.195v.78l.312.624.429.546.117.234.117.117.234.117.234.195.234.234.117.312.117.312.117.429v.312l-.117.429-.117.195-.117.234-.312.546-.312.428-.195.234v.43l-.546.233h-.117l-.234.118-.234.233-.117.118-.117.117-.117.234-.234.117-.312.117h-.585l-.234-.234-.195-.234-.117-.195v-.234l-.117-.547v-2.534l.117-.312.117-1.833zm3.51-4.797-.234.117-.312.429-.117.195-.117.312v.546l.117.234.195.546.312.429.312.312.195.117.117.195.429.546.312.624.117.117.117.117h.234l.195.117.312-.117.312-.117.429-.312 1.053-.624 1.17-.624 1.17-.546 1.911-1.482v-.117l.117-.117v-.234l-.117-.195-.117-.234-.312-.195-.312-.117-2.457-.546-.624.117-1.287.312-1.833.312-.429.117h-.429l-.312-.117zm-2.223-9.165-.741.858-.312.429-.195.312v.468l.117.117.117.117.117.429.117.429.195.234.117.312.117.117.234.117.429.117h1.092l.975-.117.312-.117.117-.117.234-.195.195-.117.312-.117h.429l.546-.117.624-.117.429-.117.195-.117.234-.195.117-.234.117-.195v-.43l.117-.428-.117-.624-.117-.234-.117-.312-.234-.234-.195-.195-.624-.429-.312-.117-.312-.117h-.507l-.312.117-.312.117-.312.312-.234.195-.195.117-.429.234-.429.117h-.429l-.546-.117h-.312zm-.858-8.97-.234.312-.117.117h-.117l-.234.117V43l.117.741.117.43.117.233.117.234.117.117h.195l.429-.117.975-.117h.975l.429.117.312.117.429.234.546.117h.312l.429-.117.429-.234.234-.234.858-1.053.195-.117.312-.234.195-.234.234-.195v-.546l-.234-.429-.195-.429-.312-.234-.195-.234-.312-.117h-.468l-.195.117-.234.117-.312.117-.741-.117h-.663l-.312.117-.117.117-.234.312-.234.234-.312.234h-1.053l-.624.117zm-13.415 9.282-.234-.117-.234-.234-.117-.117-.117-.117-.117-.195-.117-.117v-.663l.117-.312.312-.546.312-.117.858-.195.546-.117h.546l.546.117.429.195.429.117h.312l.117-.117.117-.195v-.546l-.117-.429.117-.312v-.312l.117-.195.195-.546.117-.234.234-.195.195-.117.117-.195.195-.429v-.39l.117-.234.234-.234.234-.195.195-.117h.351l.312.234.429.546.429 6.513.546 4.368.194 6.279.117 3.393.234 2.457v.858l.117.546.117.234v.312l-.195.546-.234.546-.117.234-.39 1.793-.233.235-.234.624-.195.311-.117.43v1.403l-.117.117-.195.312-.078.078-.195.117-.312.234h-.312l-.429.117-.312-.117-.429-.234-.429-.195-.234-.312-.117-.429-.195-.312-.234-.117h-.234l-.117-.117v-.195l-.117-.311.117-.235v-.234l.117-.117.312-.428.195-.117.234-.196.429-.312.312-.545.234-.195.117-.312.117-.547.117-.546V70.3l-.117-.974-.117-.975-.117-1.17v-1.287l.312-.858v-.624l-.117-.312-.195-.234-.234-.312-.117-.117-.117-.234-.117-.43-.117-.545v-.546l.117-.43v-.545l.117-.312.117-.312.195-.624.117-.43.117-.428.117-.858V56.69l.117-1.404v-.741l-.117-.624-.117-.546-.117-.195-.117-.117-.195-.234-.312-.234-.624-.312-.624-.117h-.741l-.312-.117-.312-.117-.312-.234-.117-.117h-.117l-.429-.117h-.429zm-1.404 16.73-.117.313v.234l.117.195.429.663.195.428.312.313.234.195.312.117.546.234h.507l.546.117h.312l.429.117h.429l.429-.118.429-.116.312-.234.117-.117v-.195l.117-.195v-.78l-1.599-1.911-2.028-.195h-.546l-.429.117-.312.195-.195.117-.429.429zm.546-7.877.117 1.404v.234l.117.117.117.195.117.117.312.117.429.117h.624l.624-.117.312-.117.234-.117.117-.117.117-.117-.117-.117.234-.43.195-.311.234-.234.117-.117.234-.117v-.546l-.117-.312-.195-.312-.234-.312-.312-.234-.312-.117-.858.117h-.312l-.429.234-.429.312-.312.312-.312.195-.234.117zm-6.396-11.505v.195l-.117.546-.234.624-.117.234-.117.117h-.117l-.234.117-.117.234v.117l.117.234.117.117.195.117.312.117h1.053l.312-.117.234-.117.117-.234.195-.312.117-.312v-.546l-.117-.234-.117-.195-.195-.195-.312-.312-.195-.117h-.78zm4.797-8.775-.312.624-.117.546v.43l.117.428.117.312.117.234.234.195h.975l.195.234.234.117.195.234.234.117.234.117.312.117h.546l.234-.429.858-1.404.312-.429.117-.429v-.234l-.117-.312-.117-.117-.117-.117-.117-.117-1.833-1.482-.312-.117h-.234l-.195-.117-.234.117-.195.117-.117.117-.312.312-.195.312-.234.312zm-72.383-6.084h1.365l.741-.117.624-.195.312-.234.195-.117.234-.195.117-.234-.117-.195-.117-.312-1.17-.975-.858-.858-.312-.428-.195-.312-.312-.235-.429-.428-.195-.312-.117-.312v-.43l.312-.428V27.4l-.117-.117-.117-.312-.117-.235-.234-.233-.312-.312v-.235l-.117-.311-.234-.312-.117-.312v-.312l.117-.43v-.038l.117-.234.234-.117.117-.195.195-.117h.312l.312-.117h4.485l.429-.117.312-.117.234-.117.546-.117.624-.117h1.482l.741.234.429.117.312.117.312.234.312.234.195.117.624.312.741.195h.819l.195.117.117.117v.429l-.117.312-.195.234-.312.233-.117.43-.546.857-.312.43-.312.428-.312.313-.312.233-.195.195-.546.546-.234.43-.195.545-.234.546-.117.546-.117.312v.312l.117.312.195.312.429.234.312.117h.429l.936-.117.546.195 1.365.117.975.117.936-.117h.429l.546-.117.429-.117.546-.117 3.198-.234 3.744-.234h.624l.741-.195.312-.117.312-.117.312-.234.312-.195.117-.117.312-.117.741-.117h.858l.975.195.975.312.429.234.429.234.312.312.117.234.117.195.117.43.117.428v2.925l-.117.741-.234.624-.117.312-.195.234-.234.195v.312l-.117.312-.117.312-.117.195v1.872l-.117.312-.195.312-.312.195-.312.234h-.546l-.429-.117-.624-.234-.546-.195-.546-.117-.429-.117-.429-.117-.429.117h-.312l-.195.117-.234.117-.117.117-.117.117-.429.117-.546.117h-1.248l-.624-.117-.429-.117-.195-.117-.117-.117h-.234l-.195-.117-.429-.117h-1.248l-1.17.234h-.546l-.195.312-.234.312-.312.546-.195.546-.234.624v1.482l.117.312.234.195.117.234.234.234h.234l.195.117h.429l.429-.117.312-.117.312-.117.312-.117.312-.195.429-.117.624-.117.624-.117.624.117h.858l.858.234.429.195.312.117.312.234.195.312.312.429.234.546.117.429-.117.429v.624l.117.858.195 1.17.117.546.195.546.117.234v.195l.117.546-.117.624-.117.546-.195 1.053-.234.624v.117l-.117.312-.117.624v2.847l.195 2.574.429 3.51.234 2.223.312 2.456.117.858v.742l.117 1.599v1.598l-.117 1.404-.234 2.223-.117.975-.117.312-.117.546-.234.858v.43l.117.545v.741l-.117.234h-.117l-.546.117h-.741l-4.953-.312-.429-.117h-2.067l-.429.117-.312.117h-1.716l-.741-.234-.429-.117-.429-.117-.741-.429-.429-.195-.312-.312-1.053-.312-.858-.234-.546-.117.117-.117.624-.429.429-.312.312-.429.312-.312.117-.429.117-.312v-.429l-.117-.546-.117-.234-.117-.195-.234-.234-.195-.117-.234-.234h-.312l-.429-.117h-6.708l-.429.117h-.975l-.546-.195-.234-.117-.195-.117-.234-.195-.117-.234-.117-.195v-.312l-.195-2.574v-.233l.117-.43.117-.194-.117-.234-.117-.117-.234-.195v-.234l-.117-.546v-.624l.117-.312.234-.234v-1.287l-.429-.741.117-2.77.117-.974-.117-.117-.117-.195-.312-.234-.312-.234-.429-.195-.624-.117-.741-.117-.312.117h-.234l-.117.234v.234l.117.429.117.234v.195l-.117.234v1.053l.117.74.117.625.429 10.217v2.145l-.117.546-.195.43-.234.194h-.117l-.312.234-.234.117-.117.117v.117l.117.117h.117l.117.117h-1.287l-.312.117-.234.195-.234.43h-.117l-.117.116-.234.117h-.623l-.429-.117-.624-.195-2.457-.624h-.234l-.195-.117V82l-.117-.117-.117-.195-.117-.429v-1.716l-.117-1.17-.117-.975-.117-.74v-.742l-.117-1.482V63.748l.117-.741-.507-11.037-.117-.741v-1.833l.117-.312.234-.312.117-.195v-.936l.117-.117v-.117l.117-.117.117-.117.429-.117.624-.117h1.716l1.482.234.74.117.624.234.546.117.546.117.546-.117h.546l.741-.234.312-.117.117-.117h.195l.117-.234.117-.117v-.546l-.117-.312-.312-.624-.312-.429-.195-.312-.117-.312-.117-.429-.234-.234-.117-.195-.234-.234-.234-.117h-.429l-.429.117-.117.117-.624.312-.429.117-.623.117-.624.117h-.858l-1.911.195-1.404.234h-1.404l-.858.117-1.365.312-.429.117h-.234l-.195.117h-.234l-.234-.156-.195-.234-.117-.234-.312-.624-.234-.312-.234-.195h-.078l-.234-.312-.117-.429v-1.053l.117-.195-.117-.234-.117-.546-.117-.312-.234-.312-.234-.312-.312-.312-.234-.312-.195-.312-.234-.429v-.35l-.117-.313-.117-.74v-.859l.117-1.053.117-.975v-1.52l.117-.196.117-.117h.117l.195-.117.234.117.195.117.312.195.117.234.312.195.429.234.546.312.624.234.429.117h.429l.546.117h.546zm3.939 11.31.312.43.429.545.195.43.117.233.234.312.312.234.546.234h1.17l.741-.117.429-.117.429-.234.234-.312.117-.234.117-.195v-.312l-.117-.234v-.74l.117-.313.312-.858.234-.546.117-.429v-.429l-.117-.312-.117-.234-.117-.117h-.156l-.234-.117h-.195l-.429.117h-.312l-.546-.117-.858-.234-.234-.117h-.234l-.546.234-.546.195-.546.312-.624.741-.312.312-.234.39-.117.234v.741l.117.312.234.117zm8.619 10.569-.117.624.117.546.117.312.117.312.117.195.195.117h.234l.312-.117.195.117.234.117.234.234.195.312.234.312.195.234.312.117h.858l.234-.117.546-.741.117-.117h.234l.117-.117.234-.234.195-.312.234-.312.195-.624.117-.546v-.546l-.117-.312-.117-.312-.117-.234-.234-.117-.117-.117h-.195l-.624.117h-.546l-.429-.117-.741-.234h-.741l-.234.117h-.858l-.117.117-.195.117-.117.117v.117l-.234.234v.74zm-7.02 1.404.117.858.195.624.234.74.117.313.117.312-.117.234v.312l-.312.429-.429.546-.117.312-.117.312.117.117v.117l.117.117.234.195h.702l.546-.117h1.482l.312.117h.234l.195.117h.117l.429-.117.546-.117.234-.117.117-.234.117-.312v-.234l-.117-.312-.117-.312-.234-.312-.234-.312-.195-.43-.117-.545-.117-1.482v-2.028l-.117-.312-.117-.312-.195-.234-.312-.195-.234-.117-.312-.117-.546-.117h-.624l-.429.117-.546.117h-.195l-.234.117-.117.117-.117.195-.117.117-.117.234v.858l.117.429zm-8.97-1.833h-.312l-.312.234-.117.117-.195.234v.78l.117.624v.39l-.117.117-.234.117-.234.117-.195.234-.117.195-.117.312-.078.39v.429l.117.429.117.312.117.195.117.117.312.195h.429l.429.117.312-.117h.312l.312-.117 2.574-1.482.429-2.223v-.546l-.234-.546-.195-.546-.429-.43-.429-.428-.195-.117-.117-.117h-.468l-.117.117-.117.195-.234.312-.195.195-.234.117-.312.117-.312-.117h-.078zm18.252 8.54v.313l-.117 1.053-.117 1.17.117.624.117.546.117.546v2.651l-.117.43v5.576l.117.234.117.195.117.117.117.117.234.117.234.117h.429l.624-.234.312-.117.234-.234.117-.117.195-.234.117-.312.117-.312v-.546l-.117-.312-.117-.312-.117-.624V73.07l.117-.975.117-.43.117-.311v-.546l.117-1.404V65.19l.117-1.17-.117-.312-.117-.312-.234-.43-.195-.233-.117-.117-.234-.117-.195-.117h-.234l-.234.117-.195-.117h-.312l-.312.234-.117.117-.234.117-.117.234-.234.312v.312zm-10.335 5.344-.117 2.34v.546l.117.428.234.196.117.234.234.117h.312l.312-.117h.312l.234.117.195.117.312.195.117.116.195.195.312.118.312.117h.312l.546-.117h.117l.117-.117.117-.196.117-.234.429-.428.624-.546.234-.117.117-.118.234-.428v-.43l-.117-3.002v-.234l-.117-.195-.117-.234-.234-.117-.117-.117h-.234l-.429-.117h-1.17l-.117.117-.117.117-.312.117-.312.117h-1.17l-.546-.117h-.429l-.312.117-.117.117-.117.195-.117.234v1.014zM135.794 37.89h.975l2.34.117h1.482l1.365-.117 1.482-.117 1.17-.117.429-.195.429-.312.429-.312.312-.546.117-.312.117-.312.117-.312v-.429l-.117-.429-.117-.429-.312-1.287-.741-2.885-.624-3.198-.234-1.287v-.858l-.117-.43v-.428l.117-.43.234-.428.117-.234.234-.117.312-.117h.312l.312.117.546.117.546.312.624.312.858.429 1.053.312 1.17.234.624.117h1.872v11.933l.234.312.117.312.312.43.546.233.234.117.429.117h.858l.546-.117.546-.195.312-.117.624-.429.312-.312.312-.312.117-.312.117-.234v-.117l-.117-.74-.429-1.483-.234-.975-.312-.858-.312-.624-.312-.429-.117-.546-.117-1.052v-.547l.234-.311.117-.235h.546l6.513.741 4.68.546 1.716.313.858.195h2.652l1.365-.195.741-.117.741-.117.741-.195.858-.235.857-.312.975-.311 1.053-.117 2.457-.117h3.822l.429.116h.312l.312.117.195.118.312.311.117.235.117.233.117.195v.625l-.117.428-.117.43-.234.545-.117.312-.234.624-.117.43v.428l-.117.43.117.428-.117.43-.312 1.052-.624 1.911-.429 1.053-.546 1.287-.546 1.911-.234 1.482v.702l-.117.546-.546 2.028-.624 1.716-.312.741-.234.546-.312 1.404-.429.429-1.17 1.053-.546.624-.546.624-.429.624-.195.429h-.39l-.741.117-.429.117-.429.234-.116.117-.118.195v.468l-.116.312v.312l.116.312.195.429.429.312.624.312.429.117.546.117h.429l1.17-.117h.624l.741-.195.312-.117.312-.117.312-.117.234-.195.429-.117h1.092l.234.117.117.195.195.117v.312l.117.312-.117.312-.117.546-.117.195-.234.74-.234.547-.117.546-.117.624v.74l-.117 1.717v6.278l.117 2.145.117 1.716.117.624.117.546v.43l.234.974.234 1.17.195.546.117.43.117.311v1.404l-.117.43-.234.428.117.43v.857l-.117.546-.117.234-.117.117-.234.312h-.429l-.858.546-.858-.312-.624-.312-.312-.234-.117-.195-4.601-.117-.429.117-.546.195-.741.117-.741.117h-1.521l-.429-.117-.546-.117-.624-.195-10.14.117-1.053.195-.741.234-.312.195-.195.117-.117.117-.117-.117h-.234l-.117-.117-.195-.117-.195-.117.039-.429-.234-.546-.117-.312-.195-.117-.312-.117-.117-2.574-.234-5.85-.117-3.198V65.27l.117-.975V62.85l-.234-.546-.234-.312-.195-.312-.546-.741-.312-.43-.546-.311-.546-.43-.546-.311-.312-.117-.195-.117h-.312l-.273.117-.429.195-.117.234-.234.234-.117.312-.195.312-.117 1.17-.117 2.886v3.08l.117.742.117.624v.546l.195.311.312 1.288.234 1.17.117.624v2.846l-.117 1.6v.623l-.117.43v.428l.117.546.117.195.117.234-.117 1.287-.234.975-.117.312-.117.117-.117.117v.117l-.117.195-.195.117-.234.117-.234.117h-.195l-.312-.117-.624-.117h-1.482l-1.716.117-.741.117h-.312l-.312.117-.546.117h-1.17l-.741-.117-.312-.117h-.312l-.312-.234-.312-.117-.195-.195-.234-.234-2.223-1.91.117-.43.117-.195.117-.234.117-.195.195-.234.624-.546.741-.858.975-1.053.195-.117.429-.117.624-.117.312-.117.312.117h.117l.195-.117.117-.117.117-.195.117-.312.117-.546-.117-3.198-.234-2.573v-1.17l-.117-.741-.117-.546-.117-.43-.117-.545-.117-.312-.117-.234-.234-.234-.117-.234-.195-.117-.312-.117h-.195l-.429.117-.975 1.053-.195.234-.312.312-.312.312-.429.312-.312.195-.429.117-.117-.117h-.195l-.429.312-1.17.858-.546.546-.429.702-.312.234-.117.312-.234.195v.234l-.117-.43-.312-1.286-.312-.741-.312-.741-.312-.741-.429-.624-.312-.546-.857-1.482-.429-.858-.312-.975-.312-.975-.117-.43-.117-.428-.117-.312v-.43l-.117-.545-.117-.43.117-.428.117-.195v-.078l.234-.234h1.403l.975-.195.429-.117.312-.312.312-.117.858-.117 1.716-.195h1.053l1.287.117.624-.195.624-.312.858-.43.975-.623.858-.741.429-.43.312-.545.312-.546.195-.546.117-.741-.117-.741v-.429l-.117-.546-.117-.429-.117-.429-.234-.429-.234-.312-.312-.312-.312-.312-.429-.117-.546-.117-.234-.117h-.546l-.429.117-.312.195-.117.117-.117.117-.234.312h-2.223l-.312-.117-.429-.117-.429-.234-.429-.312-.117-.234-.117-.234-.117-.195-.117-.312v-1.443l-.117-.546-.117-.546-.234-.429-.195-.546-.624-1.287-.312-.858-.312-.858-.195-.74-.234-.859v-.819l.117-.117.195.117zm17.472 10.647.429.195.429.429 1.053.975.858.858.429.312.117.312.234.234.117.117.234.117.312.117h.429l.663-.117.195-.117.117-.429.429-.624.429-.858v-.741l.117-.312.117-.429.117-.312.429-.546.195-.429.429-.624 1.053-1.794 1.404-2.34.195-.858v-.74l-.117-.547-.117-.312-.195-.234-.117-.195-.117-.234-.312-.312-.234-.234-.312.234-.312.117h-.546l-.429-.195h-.117l-.312-.234-.312-.117-.429-.117-.312.117-.234.195-.195.234v.195l-.117.234-.117.234-.117.195-.195.624-.234.624-.117.741-.195 1.287-.117.624-.117.741-.312.741-.117.234-.234.195-.312.312-.429.195-.312.234h-.546l-.234-.117h-.624l-.429.117h-.195l-.312.195-.234.234-.234.117-.234.195-.117.312v.312l.117.234.117.234zm18.252-7.332v2.652l-.117.546-.117.312-.117.312-.312.663-.312.546-.624.858-.312.312-.429.312-.195.429-.117.312v.741l.117.234.117.195.195.312.117.195.234.117.429.312.312.117.624.234h.312l.429-.117.429-.117.429-.234.312-.234.741-.624.546-.624.429-.624.429-.546.234-.546v-.546l.234-.624.195-.624.234-.624.546-.975.195-.429.546-.624.312-.546.546-1.17.312-.74.116-.313-.116-.312-.118-.312-.233-.312-.195-.234-.195-.195-.234-.117h-.429l-.117.117-.234.117-.117.234-.195.117h-.234l-.312.117-.546.117h-.546l-1.053-.195h-.429l-.312-.117h-.195l-.312.117-.117.117-.312.312-.195.43-.117.428-.117.43v.311zm-5.031 10.959-.234.234-.234.195-.429.624-.741 1.482-.624 1.482-.234.624v.312l.117.234v.195l.117.195.312.234.117.117.117.117h.312l.234.117h.312l5.85-.234h.624l.312-.117.234-.117.312-.195.234-.312.195-.234v-.312l.117-.234-.117-.234-.195-.195-.234-.312-.312-.312-.429-.312-.429-.195-.546-.234-.663-.117-.312-.117-.312-.117-.234-.117-.195-.234-.429-.43-.312-.428-.234-.43-.195-.311-.117-.312-.312-.546-.117-.117-.156.039h-.312l-.234.117-.312.117-.234.234zm-.195 16.224v1.716l.117 1.481.195 1.6.117.428.117.43.234.234.195.116.195.117h.468l.429-.117.546-.117 1.17-.117h2.457l2.028.196.858.116.546.117.429-.117h.312l.234-.116.429-.312.117-.117.117-.196.117-.311v-.312l-.117-.312-.117-.547v-2.222l.234-1.833v-.312l-.117-.234-.117-.43-.312-.311-.195-.117-.234-.117h-4.173l-4.563.117h-.429l-.429.195-.234.312-.234.312-.195.546z" fill="#231916"/><path d="M144.102 99.354c-.624-2.418-2.184-3.666-4.602-3.666q-2.399 0-3.861 1.521c-.975 1.014-1.482 2.496-1.482 4.446q0 2.632 1.638 4.212c1.092 1.053 2.418 1.56 3.978 1.56s3.12-.663 4.602-2.028l.351.351c-1.443 1.599-3.315 2.418-5.538 2.418-2.028 0-3.666-.585-4.914-1.716s-1.872-2.769-1.872-4.797c0-1.95.663-3.51 1.989-4.719s2.964-1.833 4.953-1.833c.624 0 1.209.078 1.794.195l1.794.429c.507 0 .819-.195.936-.624h.429l.156 4.25zm2.067 8.151c.936 0 1.521-.156 1.833-.429.273-.273.429-.78.429-1.521v-8.073c0-.663-.156-1.092-.468-1.326s-.897-.351-1.794-.429v-.273h6.357v.273c-.897.078-1.521.234-1.833.429-.351.234-.507.663-.507 1.326v3.744h7.487v-3.744c0-.663-.156-1.092-.468-1.326s-.897-.351-1.794-.429v-.273h6.357v.273c-.897.078-1.521.195-1.833.429s-.468.663-.468 1.326v8.268c0 1.17.78 1.716 2.301 1.716v.312h-6.357v-.312c.936 0 1.521-.156 1.833-.429.273-.273.429-.78.429-1.521v-3.744h-7.487v3.978c0 .624.156 1.092.507 1.326s.936.39 1.833.39v.312h-6.357zm17.783 0c.936 0 1.599-.117 1.95-.351s.507-.663.507-1.326v-8.463c0-.702-.156-1.131-.507-1.365s-.975-.312-1.95-.312v-.234h6.552v.234c-1.014 0-1.677.117-2.028.39s-.507.702-.507 1.287v8.463c0 .624.156 1.053.507 1.287s1.014.39 1.989.39v.312h-6.552v-.312zm23.595-11.739q-1.521.117-1.872.702t-.351 1.755v9.945h-.234l-9.789-10.569-.039 7.566c0 .975.156 1.599.468 1.95s.897.507 1.755.507v.312h-5.148v-.312c.858 0 1.443-.156 1.755-.507s.507-.975.507-1.989V96.78c-.663-.702-1.404-1.053-2.262-1.053v-.312h3.276l9.009 9.789.039-6.981c0-.897-.156-1.521-.429-1.911-.312-.39-.897-.546-1.833-.546v-.312h5.148zm15.599 12.051h-5.927v-.312c1.091 0 2.027-.273 2.027-.858 0-.195-.117-.624-.39-1.17l-.858-1.872h-5.771l-.975 2.34a1.8 1.8 0 0 0-.156.741c0 .546.897.858 2.028.858v.312h-5.187v-.312c.351 0 1.404-.156 1.755-.468.351-.273.819-1.131 1.482-2.574l4.329-9.399h.273l4.991 10.686c.546 1.131 1.599 1.716 2.457 1.716v.312zm-5.42-4.719-2.769-5.811-2.691 5.811zm29.405-7.371c-.858 0-1.443.156-1.755.429s-.468.741-.468 1.365v8.268c0 1.17.741 1.716 2.184 1.716v.312h-6.084v-.312c.858 0 1.443-.117 1.755-.39q.468-.41.468-1.521v-8.931l-5.772 11.154h-.351l-5.538-11.154-.039 8.424c0 .936.156 1.599.468 1.95s.897.507 1.716.507v.312h-5.109v-.312q1.287 0 1.755-.468c.312-.312.468-.975.468-1.95V97.56c0-.702-.156-1.209-.468-1.443q-.468-.351-1.755-.351v-.273h4.134l5.031 10.257 5.265-10.257h4.017v.234zm14.313 12.09h-12.168v-.312c1.326 0 1.989-.585 1.989-1.716v-8.268c0-.585-.117-1.014-.351-1.248s-.78-.429-1.599-.468v-.312h11.271l.078 2.69h-.351c-.156-.818-.429-1.403-.858-1.715s-1.911-.429-3.003-.429h-2.925c-.429 0-.663.195-.663.624v4.407h2.925c.702 0 1.248-.117 1.56-.312s.546-.741.702-1.56h.39v4.329h-.39c-.156-.819-.39-1.365-.702-1.56s-.858-.312-1.56-.351l-2.925-.039v4.914c0 .312.117.507.351.624s1.17.156 2.847.156c1.209 0 3.237-.195 3.9-.585s.819-1.053 1.287-2.028h.429zm15.794 0h-3.159l-5.07-5.733-1.599.039v3.666c0 .624.156 1.092.468 1.326.312.273.858.39 1.716.39v.312h-5.772v-.312c.819 0 1.365-.156 1.638-.429s.39-.78.39-1.521v-8.073c0-.663-.156-1.092-.429-1.326-.273-.195-.819-.351-1.599-.429v-.312h5.772c3.549 0 5.304 1.092 5.304 3.276 0 1.638-1.326 2.691-3.939 3.12l4.251 4.797c.468.546 1.17.819 2.028.819zm-10.14-6.552c4.095 0 6.162-.936 6.162-2.808 0-1.755-1.599-2.652-4.758-2.652q-.936 0-1.17.117c-.156.078-.234.273-.234.546zm23.322-1.911c-.624-2.418-2.184-3.666-4.602-3.666q-2.399 0-3.861 1.521c-.975 1.014-1.482 2.496-1.482 4.446q0 2.632 1.638 4.212c1.092 1.053 2.418 1.56 3.978 1.56s3.12-.663 4.602-2.028l.351.351c-1.443 1.599-3.315 2.418-5.538 2.418-2.028 0-3.666-.585-4.914-1.716s-1.872-2.769-1.872-4.797c0-1.95.663-3.51 1.989-4.719s2.964-1.833 4.953-1.833c.624 0 1.209.078 1.794.195l1.794.429c.507 0 .819-.195.936-.624h.429l.156 4.25zm2.457 8.151c.936 0 1.521-.156 1.833-.429.273-.273.429-.78.429-1.521v-8.073c0-.663-.156-1.092-.468-1.326s-.897-.351-1.794-.429v-.273h6.357v.273c-.897.078-1.521.234-1.833.429-.351.234-.507.663-.507 1.326v3.744h7.488v-3.744c0-.663-.156-1.092-.468-1.326s-.897-.351-1.794-.429v-.273h6.356v.273c-.897.078-1.521.195-1.833.429s-.467.663-.467 1.326v8.268c0 1.17.779 1.716 2.3 1.716v.312h-6.356v-.312c.936 0 1.521-.156 1.833-.429.273-.273.429-.78.429-1.521v-3.744h-7.488v3.978c0 .624.156 1.092.507 1.326.351.273.936.39 1.833.39v.312h-6.357zm31.199.312h-5.577v-.312c1.092 0 2.028-.273 2.028-.858 0-.195-.117-.624-.39-1.17l-.858-1.872h-5.772l-.975 2.34a1.8 1.8 0 0 0-.156.741c0 .546.897.858 2.028.858v.312h-5.148v-.312c.351 0 1.404-.156 1.755-.468.351-.273.819-1.131 1.482-2.574l4.329-9.399h.273l4.992 10.686c.546 1.131 1.248 1.716 2.106 1.716v.312zm-5.07-4.719-2.769-5.811-2.691 5.811zm21.06-7.332q-1.521.117-1.872.702t-.351 1.755v9.945h-.234l-9.789-10.569-.039 7.566c0 .975.156 1.599.468 1.95s1.248.507 2.106.507v.312h-5.538v-.312c.858 0 1.443-.156 1.755-.507.312-.312.507-.975.507-1.989V96.78c-.663-.702-1.755-1.053-2.613-1.053v-.312h3.666l9.009 9.789.039-6.981c0-.897-.156-1.521-.429-1.911-.312-.39-.897-.546-1.833-.546v-.312h5.148zm10.959 12.051h-6.63v-.312c.897 0 1.833-.156 2.106-.429s.39-.78.39-1.521V96h-1.092c-1.131 0-2.652.195-3.159.546s-.858 1.053-1.092 2.067h-.429v-3.159h13.064v3.159h-.39c-.195-1.014-.546-1.716-1.053-2.067S330.673 96 329.543 96h-1.092v9.789c0 .663.156 1.092.468 1.365.312.234 1.248.39 2.106.39zm13.61-8.697h-.507c-.234-.936-.741-1.755-1.482-2.457-.78-.702-1.638-1.053-2.652-1.053q-.995 0-1.755.585c-.507.39-.741.858-.741 1.443 0 .78.663 1.52 1.989 2.262l3.627 2.028c1.326.858 1.989 1.794 1.989 2.769s-.429 1.794-1.248 2.457-1.95.975-3.354.975c-.624 0-1.326-.117-2.067-.312l-.273-.078c-.585-.156-.897-.234-1.053-.234-.468 0-1.053.195-1.053.624h-.468l-.312-4.368h.429c.975 2.34 2.496 3.861 4.563 3.861q1.228 0 2.106-.702c.585-.468.858-1.014.858-1.638s-.273-1.131-.819-1.599-1.521-1.053-2.886-1.755l-.429-.234c-1.326-.663-2.145-1.248-2.535-1.677-.39-.468-.585-1.014-.585-1.716 0-.975.39-1.755 1.131-2.34s1.677-.858 2.808-.858c.429 0 1.443.234 3.003.663.39 0 1.014-.234 1.131-.663h.468zm8.073-3.354v-.312h5.655c3.549 0 5.304 1.053 5.304 3.159q0 2.047-2.691 2.691c2.223.468 3.354 1.56 3.354 3.237 0 .975-.429 1.794-1.326 2.379s-2.067.897-3.549.897h-6.747v-.312c.858 0 1.443-.117 1.716-.351.312-.234.429-.702.429-1.404v-8.268c0-.663-.156-1.131-.468-1.365-.234-.234-.819-.351-1.677-.351m3.627 10.881c0 .507.624.78 1.872.78q4.329 0 4.329-2.925c0-.858-.429-1.56-1.326-2.106-.858-.546-2.496-.819-4.875-.819zm0-5.733 2.106-.039c2.223 0 3.315-.78 3.315-2.34 0-.858-.39-1.521-1.17-2.028-.78-.468-1.755-.702-2.964-.702-.858 0-1.287.195-1.287.546zm23.984 6.903h-5.225v-.312c1.091 0 1.676-.273 1.676-.858 0-.195-.117-.624-.39-1.17l-.857-1.872h-5.772l-.975 2.34a1.8 1.8 0 0 0-.156.741c0 .546.897.858 2.028.858v.312h-4.875v-.312c.351 0 1.053-.156 1.365-.468.351-.273.819-1.131 1.482-2.574l4.329-9.009h.273l4.991 10.335c.546 1.131 1.248 1.716 2.106 1.716zm-4.719-4.719-2.768-5.811-2.691 5.811zm21.06-7.332c-.936.078-1.872.312-2.106.702s-.312.975-.312 1.755v9.945h-.234l-9.828-10.569-.039 7.566c0 .975.156 1.599.429 1.95.312.351 1.56.507 2.34.507v.312h-5.499v-.312c.78 0 1.326-.156 1.638-.507s.468-.975.468-1.989V96.78c-.624-.702-2.028-1.053-2.847-1.053v-.312h3.783l9.087 9.789.039-6.981c0-.897-.156-1.521-.429-1.911s-1.209-.546-2.067-.546v-.312h5.499v.312zm9.945-.312h5.382v.312c-.936.078-1.56.234-1.911.429-.351.234-.78.546-1.326.975l-4.173 3.588 4.992 4.797c1.326 1.287 2.457 1.911 3.354 1.911v.312h-6.24v-.312c1.053 0 1.599-.195 1.599-.624s-.897-1.443-2.691-3.159l-2.145-1.989-.975.78v3.237c0 .663.156 1.092.468 1.365.312.234.858.39 1.677.39v.312h-5.811v-.312c.819 0 1.365-.117 1.638-.39s.468-.78.468-1.521v-8.073q0-1.053-.468-1.404t-1.638-.351v-.312h5.85v.312c-.819 0-1.404.117-1.716.351q-.468.351-.468 1.404v4.29l.546-.468c3.315-2.73 4.992-4.368 4.992-4.953 0-.429-.468-.624-1.404-.624z" fill="#000"/></svg>