<svg width="480" height="128" fill="none" xmlns="http://www.w3.org/2000/svg"><path d="M140.388 79.634a21.6 21.6 0 0 1 4.848.571v3.585c-1.718-.448-2.946-.689-4.818-.717-3.523 0-6.589 1.501-6.589 5.385 0 3.893 3.216 5.713 7.168 5.713 1.541 0 2.982-.205 4.239-.442v3.44a26 26 0 0 1-4.743.471c-6.969 0-11.128-3.459-11.128-8.917 0-5.877 4.507-9.135 11.022-9.089zm34.452.304v17.397l-.001-.001h-4.272V79.938zm36.495 0 7.759 17.397h-4.684l-1.438-3.44h-7.802l-1.312 3.44h-4.602l7.036-17.397zm78.393-.305c1.642 0 4.255.314 6.099.976v3.359c-2.386-1.002-4.236-1.174-5.712-1.174-1.566 0-2.571.56-2.571 1.419 0 2.602 9.071 1.872 9.071 7.886 0 3.31-2.977 5.236-6.887 5.236-2.403 0-5.026-.5-6.848-1.16v-3.776a13.46 13.46 0 0 0 6.517 1.773c1.671 0 2.72-.586 2.72-1.595 0-2.831-9.071-1.918-9.071-7.987 0-2.983 2.621-4.957 6.682-4.957m-41.64.305v17.397h-4.316V86.469l-4.663 5.457h-.664l-4.661-5.457v10.866h-4.313V79.939h3.753l5.551 6.455 5.556-6.455v-.001zm205.415 0v7.881h.052l5.43-7.88h4.717l-5.603 8.16 7.596 9.236h-5.369l-6.823-8.164v8.164h-4.289V79.938zm-36.153 0 7.753 17.397h-4.683l-1.437-3.44h-7.811l-1.3 3.44h-4.607l7.037-17.397zm-48.299-.305c2.601 0 5.125.58 6.865 1.417v3.767c-2.222-1.06-4.365-1.594-6.504-1.594-4.721 0-6.374 2.885-6.374 5.44 0 3.058 2.418 5.086 6.015 5.086 1.067 0 1.604-.105 2.875-.614v-2.022h-2.516v-3.157h6.859v7.053c-1.303 1.34-4.514 2.326-7.317 2.326-6.075 0-10.384-3.667-10.384-8.825 0-5.261 4.286-8.877 10.481-8.877m27.652.305c4.076 0 5.722 2.418 5.722 4.359 0 1.459-.912 2.762-2.357 3.474 2.458.64 3.671 2.42 3.671 4.46 0 1.995-1.06 5.104-6.093 5.104h-8.556V79.94h7.613zm-243.76 0v6.994h8.697v-6.994h4.349v17.396h-4.347v-7.037h-8.699v7.037h-4.35V79.938zm189.417 0 9.169 10.638V79.938h4.294v17.396h-3.614l-9.495-11.148v11.148h-4.287V79.938zm-8.074 0v3.196h-8.316v3.644h7.93v3.186h-7.93v4.186h8.489v3.184h-12.818V79.938zm-29.662 0v6.994h8.698v-6.994h4.351v17.396h-4.351v-7.037h-8.698v7.037h-4.347V79.938zm-38.872 0 9.178 10.638V79.938h4.288v17.396h-3.606l-9.504-11.148v11.148h-4.286V79.938zm-82.101 0 9.185 10.638V79.938h4.284v17.396h-3.606l-9.505-11.148v11.148h-4.286V79.938zm73.593 0v17.396h-4.273V79.938zm173.93 0 9.178 10.637V79.938h4.284v17.394h-3.604l-9.506-11.147v11.147h-4.287V79.938zM396.529 90.01h-3.166v3.968h2.577c2.385 0 3.221-.618 3.221-2.073 0-1.231-1.111-1.895-2.632-1.895m18.227-5.797-2.471 6.713h5.188zm-206.01-.307-2.47 6.714h5.188zm187.002-.61h-2.385v3.662h2.387c1.558 0 2.19-.959 2.19-1.859 0-.875-.633-1.803-2.192-1.803m-109.034-52.19v11.177c0 1.147-.663 4.487-4.553 4.487h-12.072c.548.967 1.51 2.661 2.631 4.601h17.845v3.192c0 1.03-.618 2.32-2.348 2.32h-12.264q.976 1.644 1.998 3.26c3.425 5.569 15.306 5.496 15.306 5.496s-2.324 3.16-3.046 4.087c-.667.751-2.087 2.442-5.703 1.74-3.375-.811-8.362-2.761-10.972-7.457-1.266-2.277-2.635-4.758-3.944-7.127h-19.945v8.665l12.489-3.526v2.522c.022 3.403-2.175 4.296-2.175 4.296l-11.731 3.227v-.043c-.38.186-.798.283-1.221.286a2.887 2.887 0 0 1-2.885-2.84h-.004V31.107zm119.71-.346v17.775c0 1.147-.667 4.508-4.567 4.508H391.73c.494.806 1.922 2.995 4.146 5.407l11.053-4.114V57.8c0 2.214-1.618 2.933-1.618 2.933l-4.819 1.898c2.915 2.147 6.469 3.914 10.572 4.353l-.007.01a102 102 0 0 1-3.153 3.728c-2.264 1.971-4.137 1.268-5.592.517-8.85-4.54-14.59-16.098-15.579-18.197h-4.152v11.76l6.75-2.192v2.537c0 3.487-2.168 4.237-2.168 4.237l-6.005 1.805v-.038a2.9 2.9 0 0 1-1.226.28 2.89 2.89 0 0 1-2.896-2.89c0-.08.021-.155.029-.235h-.03v-33.72h.006c.01-1.596.243-3.825 3.5-3.825zM466 42.943s-.369 1.906-.591 3.34c-.219 1.24-.713 2.742-3.435 2.742h-4.273l-.016 18.174c0 1.141-.644 4.5-4.546 4.5h-7.565c-2.718 0-3.22-1.502-3.435-2.739a92 92 0 0 0-.6-3.343c.633.36 2.363.56 4.039.56l6.592.011V49.025h-16.639c-1.738 0-2.355-1.3-2.355-2.334v-3.196l28.794.004c1.673 0 3.409-.202 4.03-.556m-33.883-1.673a26.6 26.6 0 0 1-3.851 6.104v21.959c0 1.742-1.097 2.227-1.96 2.227h-3.629v-19.3q-.717.453-1.466.853c-2.418 1.185-4.142.038-4.756-.486-.622-.522-3.254-2.747-3.254-2.747 8.852-2.509 13.263-8.61 13.263-8.61zm-65.928-11.384a26.5 26.5 0 0 1-1.146 3.853h9.389v4.848h-11.931a20 20 0 0 1-2.461 2.95 4.3 4.3 0 0 1-.635.512h15.027V46.9h-7.529v4.296h7.528v4.856h-7.528v8.816l7.095-2.442v2.338c.007 3.423-2.191 4.322-2.191 4.322l-6.318 2.192v-.004a2.85 2.85 0 0 1-1.233.286 2.894 2.894 0 0 1-2.89-2.886h-.002V56.05h-3.806c-1.728 0-1.947-1.271-1.956-1.812v-3.043h5.763V46.9h-1.894c-1.443 0-1.515-1.25-1.519-1.375v-2.828c-1.237.277-2.466-.048-3.227-.657l-3.175-2.887c6.278-3.088 9.369-9.267 9.369-9.267zm-212.954-.305c.866 0 1.953.482 1.953 2.222v3.233h21.178l-.019 22.003c0 1.142-.643 4.482-4.529 4.482h-16.63v7.647c0 1.74-1.087 2.225-1.953 2.225h-4.052v-9.872h-16.188c-3.888 0-4.53-3.34-4.53-4.482l-.015-22.003h20.732V29.58zm80.204 1.526-.016 35.78c0 1.146-.647 4.506-4.558 4.506h-43.343V31.106zm91.31-1.526c.868 0 1.964.482 1.964 2.232v4.203h18.562v3.207c0 1.036-.616 2.334-2.358 2.334h-16.204v8.518h17.973v3.209c0 1.037-.619 2.335-2.352 2.335h-15.621v9.615h16.042v.013h2.93c1.676 0 3.409-.206 4.034-.563 0 0-.369 1.912-.587 3.35-.219 1.248-.721 2.749-3.439 2.749H300.47c-1.737 0-2.354-1.299-2.354-2.331v-3.217h23.007V55.62h-15.238c-1.739 0-2.36-1.298-2.36-2.335v-3.209h17.598V41.56H307.02a20 20 0 0 1-2.009 2.245c-1.779 1.705-4.938.86-6.522-.535l-2.18-1.913c6.278-3.087 9.641-9.541 9.641-9.541h5.469a28 28 0 0 1-1.28 4.203h10.984V29.58zm-96.85 7.06h-36.831v29.214h36.831zm-3.901 3.351v2.797c0 .408-.06 1.481-1.727 1.481h-9.421v4.59h9.976v2.802c0 .406-.068 1.478-1.729 1.478h-8.247v5.49h4.51l-.956-3.11H220s1.248.071 1.615 1.242l.582 1.87h.495c1.27 0 2.579-.156 3.054-.426 0 0-.281 1.438-.443 2.525-.172.943-.55 2.072-2.607 2.072h-27.358V62.8c-1.438 0-1.829-.843-1.829-1.72v-2.454h13.803v-5.49h-9.446c-1.623 0-1.725-1.022-1.729-1.448v-2.83h11.175V44.27h-10.625c-1.62 0-1.717-1.023-1.721-1.452v-2.826zm-53.593.558h-15.216v15.463h15.218zm-21.223 0h-14.774v15.463h14.775zm114.825 6.22h-14.36v4.601h16.897c-1.116-2.027-2.017-3.665-2.537-4.6m136.877-2.142h-18.303v3.562h18.303zm31.234-14.742c-2.956 6.498-7.5 9.97-10.492 11.662-2.803 1.391-4.284.222-4.763-.118-.396-.353-3.353-2.93-3.353-2.93 8.707-2.506 13.051-8.614 13.051-8.614zm-150.927 6.737h-31.544v4.637h31.543zm119.693-1.014h-18.303v4.165h18.303zm62.144-3.395v3.197c0 1.035-.617 2.33-2.354 2.33h-21.931c-1.739 0-2.359-1.295-2.359-2.33v-3.197zM63.476 38.736l24.067 10.83-12.806 5.884c21.906 2.766 38.213 11.776 38.213 23.067 0 13.502-22.193 24.479-49.476 24.479C36.187 102.996 14 92.019 14 78.518v-.42h16.735v.42c0 10.004 14.687 18.139 32.74 18.139 18.058 0 32.738-8.135 32.738-18.139 0-10.002-14.68-18.135-32.737-18.135l-.174-.043-23.9-10.774zm0 6.416-9.795 4.414 9.795 4.411 9.795-4.41z" fill="#006ca9"/><path d="m63.477 74.018 9.798 4.412-9.8 4.41-9.795-4.41 9.795-4.412zm0-49.014C36.194 25.004 14 35.981 14 49.483c0 11.282 16.309 20.3 38.216 23.071L39.4 78.429l24.075 10.823L87.544 78.43 63.65 67.652l-.174-.043c-18.053 0-32.736-8.133-32.736-18.127 0-10 14.683-18.146 32.736-18.146 18.058 0 32.738 8.147 32.738 18.146v.412h16.741v-.412c0-13.501-22.195-24.478-49.478-24.478" fill="#00965a"/></svg>