<svg width="128" height="128" fill="none" xmlns="http://www.w3.org/2000/svg"><path d="M77.544 38.558c-5.25 0-10.29 1.47-14.489 4.2l-14.068 9.028V20.5L24.21 41.078v39.054c0 11.549 7.769 21.418 18.268 24.987l4.83 1.471c-9.87-4.831-16.379-14.489-16.379-25.407 0-15.958 13.439-28.767 30.027-28.767 15.537 0 28.346 11.129 30.025 25.617H73.554c-1.47-5.67-6.72-9.869-12.809-9.869-7.348 0-13.438 6.09-13.438 13.228 0 7.14 6.09 13.019 13.438 13.019 6.93 0 12.389-4.83 13.229-11.549h17.007c-.21 5.88-2.52 11.129-6.088 15.329 0 0 10.498-12.179 14.067-17.639 3.15-4.829 5.04-10.078 5.04-15.958 0-14.277-11.969-26.036-26.457-26.036" fill="#00367a"/></svg>