<svg width="449" height="128" fill="none" xmlns="http://www.w3.org/2000/svg"><path d="M356.086 17.788c2.59.515 4.662 1.546 6.216 3.607-1.036 4.123-4.662 5.669-3.626 8.76.518 1.546 2.59 2.577 3.626 3.608 1.036 1.546 1.554 4.637 3.108 5.668 2.073 1.546 3.627 1.031 6.735.515 6.735-1.03 15.024-4.122 23.313-5.668.518.515 1.036 1.546 1.554 2.061-1.554 2.577-2.59 4.638-4.662 5.669-2.591 1.03-6.217.515-8.807 3.092-1.554 2.061-1.036 4.637-1.036 8.245.518 7.214 2.59 16.49-.518 22.158-1.555 0-2.591.516-4.145.516-4.144-2.062-8.807-4.123-11.398-7.73l.519-.515c3.108-.516 5.698-.516 8.807-1.031 0-7.214.518-14.944.518-22.159-.518 0-1.554.516-2.072.516-2.072.515-8.29 4.122-10.88.515-.518-2.061-1.554-4.123-2.072-6.184l-5.18 5.153c0 3.092-.518 6.7 0 10.307 1.036 7.214 2.59 15.46-.518 20.612-.519.516-1.555.516-2.073 1.031-1.036-1.546-1.554-2.061-1.554-2.061-1.036-1.03-2.072-2.061-3.626-3.092 0-7.73 3.108-12.883 1.036-20.098h-.518c-5.181 1.546-5.699 5.67-10.88 7.215l-1.554-1.546V53.86c4.662-6.184 10.879-9.791 15.024-17.005 0-.516-.518-1.031-.518-1.546-2.072-.516-2.59.515-4.144-1.546v-1.546c2.072-5.668 7.252-7.73 9.324-14.429zM158.705 20.88c3.626.515 5.698 1.546 7.771 3.092v6.699c1.554.515 2.59 1.03 4.144 1.546 3.108-1.546 6.217-2.577 10.88-3.092 1.554 2.577 2.072 3.092 1.554 6.699-5.699.515-10.88-.515-15.542 2.061v.516c.518 1.545.518 3.091 1.036 4.637 4.144.516 11.916 1.546 14.506 5.154.518 2.06.518 1.546-1.036 3.091-4.145 1.546-7.771 0-10.88-2.06-2.59-1.546-5.18-2.578-6.734-4.639-1.036-1.545-1.554-4.122-2.073-5.668h-1.554c-.518.515-1.554 1.03-2.072 2.061-.518 2.062-.518 5.153-1.036 6.7-1.036 2.576-3.108 3.606-3.626 5.668 1.554 1.03 2.59 1.546 3.626 3.607 1.036 0 2.072-.515 3.108-.515.518-2.577 1.036-4.123 3.108-5.669 2.073.515 4.145 1.546 6.217 2.061v.516c-1.036 2.576-3.626 4.122-3.108 6.699 2.59 8.245 10.361 11.337 17.096 12.368 5.18 1.03 8.807-.516 11.397 3.091l-2.072 2.062c-3.626 0-9.325 5.668-11.915 3.607-6.217-4.638-12.434-10.822-18.133-15.46-5.18 4.123-9.324 8.761-15.023 10.307-4.144 1.03-8.289.515-14.506-1.03v-1.547h3.108c2.072-.515 4.663-.515 7.253-1.03 6.217-1.546 11.916-4.638 12.952-11.337-2.59-2.062-4.663-5.154-7.771-6.184-2.59-1.031-5.699.515-6.735-1.546.518-.516 1.036-1.546 1.554-2.062 5.181-.515 8.289-4.637 10.362-8.76 0-1.03-.518-2.061-.518-3.092-5.699.515-6.735 1.031-11.398 0-.518-.515-.518-1.546-1.036-2.061 1.554-1.546.518-2.061 2.59-1.546 17.614-.515 14.506-2.061 20.204-4.122v-.516c-1.554-2.576-4.144-4.122-6.216-6.183-1.036-.516-.518-2.577.518-4.123m82.889 0c3.109 1.03 4.663 2.061 5.181 6.183-3.626 2.577-7.771 5.154-10.361 9.276.518 2.062.518 2.577 1.554 4.123 2.072-2.061 3.108-3.092 6.735-3.607 2.59 3.092 4.662 4.637 1.554 8.76 0 1.546-.518 2.061-.518 4.638s1.554 3.607 1.554 7.214c.518 4.123 0 10.822.518 12.883 4.144-1.03 8.289-2.06 12.434-3.607.518.515.518 1.03 1.036 1.546-7.771 20.613-31.084 4.638-48.18 4.123-4.144 1.545-8.289 2.576-12.433 4.122-2.59-3.607-3.108-3.607-.518-6.699 2.072 0 4.662-.516 6.734-.516 0-1.03 1.036-1.545 1.036-2.576v-2.577c-1.554-3.091-3.626-7.214-4.144-11.337-.518-2.576 1.036-4.637 1.036-6.699l-1.036-6.183c.518 0 1.036-.516 1.554-.516 1.554-1.03 2.072-1.03 4.145-.515 1.036 2.061 2.072 3.607 3.626 5.668-.518 1.546-1.554 3.608-2.072 5.669-.518 3.607.518 7.214 1.554 10.822.518 3.607 1.036 7.214 4.145 8.76h3.626c0-.516.518-.516.518-1.03-1.036-3.093-1.036-8.761-1.036-13.914 0-3.608-.518-7.215.518-9.276 2.072 0 4.662 0 5.698-1.546 1.036-1.03 1.037-3.607 1.555-4.638 1.036-1.546 2.59-.515 3.108-1.546.518-1.03.518-3.607.518-4.638-.518 0-1.036-.515-1.554-.515-2.072 1.546-4.144 3.607-6.216 5.153-.519-.515-1.555-1.03-2.073-1.545.518-2.062.518-3.608 1.036-5.67 3.108 0 6.217.516 7.771 0 2.072-.515 3.108-3.09 4.662-4.637 2.591-3.092 4.663-3.607 6.735-5.153m46.626 1.03c6.216 1.031 6.734 8.76 9.325 13.399l-1.554 3.091h-.518c-2.072-1.546-3.627-2.576-5.699-4.122-2.59 1.546-6.217 4.638-2.072 7.214 2.59.516 2.59-1.545 5.18 0 .518.516 1.036.516 1.554 1.031-.518 2.577-1.554 4.122-1.554 5.153s2.072 2.577 3.108 4.638c-2.59 2.062-4.144 2.577-4.662 7.215.518 0 .518.515 1.036.515s1.036-.515 1.554-.515c.518-1.546.518-3.092 1.036-4.638h2.073c.518 3.607-.518 6.699.518 9.275 1.036 0 2.072-.515 3.108-.515-.518-5.153-.518-13.398-.518-20.612 0-5.154-.518-9.792 1.036-12.884 6.735 1.546 8.807-3.607 15.542-4.637 1.036.515 2.072 1.546 3.108 2.06-1.036 6.7-2.59 9.792-3.108 19.583-4.144 2.061-4.144 4.122-9.325 5.153 1.036 3.092 3.626 4.123 6.734 2.062 4.145-2.577 4.145-7.215 7.772-9.792h6.216c0 .516.518.516.518 1.031v2.061c-3.108 1.546-9.324 4.638-9.324 9.276l9.324 6.184c1.554 3.092-.518 6.699-1.554 8.76-2.59-2.061-7.77-10.306-10.879-7.214-6.217 2.576-3.626 11.852-11.916 12.883-1.036-.516-2.072-.516-3.108-1.031-.518-1.546-1.036-1.03-1.036-2.577 0-1.545-.518-5.668-1.036-5.668-6.217 3.092-17.096 9.79-23.831 5.153v-.515c2.072-1.546 5.181-2.577 7.253-4.123-.518-2.061-1.554-4.637-2.072-6.699 2.072-.515 3.626-1.03 5.698-1.546v-1.545c-.518-.516-1.036-.516-1.554-1.032l-3.108 1.546c-2.072-1.546-3.108-1.03-3.626-4.637 2.59-.515 5.18-1.546 7.77-2.062 0-3.091-.518-3.607-1.554-5.668h-4.144c-2.59 2.577-5.181 5.153-7.253 7.73-3.108 0-5.181 0-6.735-1.031h-1.036v-2.061c2.591-1.546 5.699-3.092 8.289-5.154 4.662-4.122 7.771-9.79 10.361-14.428 1.554-3.092.518-4.123 2.072-7.215 1.036-2.576 1.554-1.546 2.59-3.091zm96.359 4.123 3.108 1.546v1.546c-.518.515-1.036.515-1.554 1.03-1.036 1.546-8.289 3.608-11.916 3.092-3.626.516-4.662-2.061-6.216-5.153h1.036c4.662-.515 9.843-1.546 15.542-2.061m-174.586 2.576c1.554.516 3.108 1.546 4.662 2.062.518 3.607 0 7.214-3.626 4.638-1.554-.516-1.036-.516-2.072-1.546-2.072-2.577-1.036-3.092 1.036-5.153m99.467 3.092-4.144 4.123c.518.515 1.036 1.546 1.554 2.061 3.108 0 3.108-.515 5.18-1.545 0-1.032.518-2.062.518-3.093-1.036-1.03-.518-1.03-3.108-1.545m-2.072 9.791c-.518 2.577-.518 4.123.518 6.184h1.554c.518-1.03 1.554-2.06 2.072-3.092 0-1.03-.518-2.061-.518-3.091zm-67.866 1.031c-1.036.516-2.072 1.546-3.626 2.061v2.061l2.072 2.062c1.554-.515 2.072-.515 3.108-1.546 1.036-2.061.518-3.092-1.554-4.638m-12.433 4.122c-.518 2.062-1.036 3.092-.518 5.67h.518c2.072-1.032 2.072-.516 3.108-2.062v-3.608zm11.397 5.67c-.518.514-1.036 1.545-1.554 2.06l1.554 3.092c1.036-.515 2.072.515 3.626-1.03v-3.608c-1.554-.515-2.59-.515-3.626-.515m-11.397 2.576c-.518 0-.518.515-1.036.515.518 1.546 0 2.576 1.036 4.123h1.554c.518-.516.518-1.031 1.036-1.546 0-.516-.518-1.546-.518-2.062-.518-.515-1.554-.515-2.072-1.03m79.263 2.576c-1.554 3.092-2.072 6.7-.518 8.76 1.036 1.031 0 .516 2.072 1.031 4.144-2.576 6.735-9.79-1.554-9.79m-68.384 2.577c-1.554 3.607-2.59 7.73-.518 11.337h1.554c1.036-1.546 1.554-1.546 1.036-3.607 1.036-2.577.518-5.154-.518-7.215-.518 0-1.036 0-1.554-.515m-10.361 1.546c-.518.515-1.036 1.546-1.554 2.061.518 2.062.518 4.638 1.036 6.7h2.072c.518-.516 1.036-.516 1.554-1.032.518-4.122 1.036-7.214-3.108-7.729m-107.476 47.056h6.013c3.712 0 6.536-1.279 6.536-4.039 0-1.852-1.344-2.889-3.165-3.241v-.093c1.435-.407 2.3-1.704 2.3-2.963 0-2.489-2.505-3.327-5.832-3.37l-5.852-.001zm3.423-7.996v-3.427h1.817c1.838 0 2.746.474 2.746 1.659 0 1.075-.847 1.768-2.788 1.768zm0 5.711v-3.427h2.268c2.246 0 3.436.479 3.436 1.626 0 1.227-1.211 1.801-3.436 1.801zm15.483-3.427a1849 1849 0 0 1 1.943-5.711h.104c.57 1.414 1.089 2.917 1.685 4.279l.57 1.432zm6.073 5.711h3.542l-5.439-13.707h-3.976l-5.416 13.707h3.428l1.188-3.519h5.485zm4.683 0h3.104v-5.5c0-1.575-.244-3.298-.399-4.78h.11l1.664 2.945 4.744 7.335h3.326V94.938h-3.104v5.465c0 1.556.244 3.371.421 4.798h-.111l-1.64-2.965-4.767-7.297h-3.348zm17.112 0h3.383v-3.852l2.216-2.297 4.366 6.149h3.725l-6.079-8.316 5.165-5.39h-3.725l-5.6 5.946h-.068v-5.946h-3.383v13.707zm27.95 0c4.391 0 7.416-2.623 7.416-6.907s-3.024-6.8-7.416-6.8c-4.391 0-7.415 2.5-7.415 6.8 0 4.284 3.024 6.907 7.415 6.907m0-2.284c-2.44 0-3.992-1.799-3.992-4.613 0-2.833 1.552-4.525 3.992-4.525s3.993 1.692 3.993 4.525c0 2.814-1.552 4.613-3.993 4.613m10.839 2.284h3.332v-5.556h5.922v-2.297h-5.922v-3.575h6.935v-2.278h-10.267v13.707zm25.183 0c2.286 0 4.167-.678 5.619-1.945l-1.857-1.642c-.953.768-2.143 1.303-3.643 1.303-2.786 0-4.595-1.731-4.595-4.604 0-2.839 2-4.552 4.666-4.552 1.334 0 2.357.464 3.239 1.107l1.857-1.678c-1.143-.892-2.929-1.695-5.167-1.695-4.452 0-8.19 2.552-8.19 6.907 0 4.408 3.619 6.8 8.071 6.8zm15.316 0c4.39 0 7.415-2.623 7.415-6.907s-3.024-6.8-7.415-6.8-7.416 2.5-7.416 6.8c0 4.284 3.025 6.907 7.416 6.907m0-2.284c-2.44 0-3.993-1.799-3.993-4.613 0-2.833 1.553-4.525 3.993-4.525s3.993 1.692 3.993 4.525c0 2.814-1.553 4.613-3.993 4.613m10.837 2.284h2.936v-5.723c0-1.297-.265-3.205-.419-4.5h.088l1.302 3.222 2.538 5.76h1.876l2.516-5.76 1.324-3.223h.088l-.154 1.299c-.124 1.087-.243 2.294-.243 3.202v5.723h2.979V94.938h-3.619l-2.715 6.409c-.353.852-.639 1.76-.993 2.649h-.11l-.488-1.338q-.239-.66-.505-1.311l-2.781-6.408h-3.62zm19.395 0h2.935v-5.723c0-1.297-.265-3.205-.419-4.5h.088l1.302 3.222 2.538 5.76h1.876l2.516-5.76 1.324-3.223h.088l-.153 1.299c-.125 1.087-.244 2.294-.244 3.202v5.723h2.98V94.938h-3.62l-2.714 6.409c-.354.852-.64 1.76-.994 2.649h-.11l-.488-1.338q-.239-.66-.505-1.311l-2.781-6.408h-3.619zm25.69 0c3.957 0 6.253-1.836 6.253-6.307v-7.4h-3.104v7.635c0 2.8-1.225 3.746-3.149 3.746-1.902 0-3.061-.946-3.061-3.746v-7.634h-3.235v7.399c0 4.471 2.361 6.307 6.296 6.307m10.816 0h3.104v-5.5c0-1.575-.244-3.298-.399-4.78h.111l1.663 2.945 4.744 7.335h3.326V94.938h-3.104v5.465c0 1.556.244 3.371.422 4.798h-.111l-1.641-2.965-4.767-7.297h-3.348zm17.113 0h3.422V94.938h-3.422zm13.775 0c2.286 0 4.166-.678 5.619-1.945l-1.857-1.642c-.953.768-2.143 1.303-3.643 1.303-2.786 0-4.595-1.731-4.595-4.604 0-2.839 2-4.552 4.666-4.552 1.334 0 2.357.464 3.238 1.107l1.857-1.678c-1.142-.892-2.928-1.695-5.166-1.695-4.452 0-8.19 2.552-8.19 6.907 0 4.408 3.619 6.8 8.071 6.8zm11.715-5.711.57-1.432a71 71 0 0 0 1.633-4.279h.104c.571 1.414 1.089 2.917 1.686 4.279l.57 1.432zm6.333 5.711h3.543l-5.439-13.707h-3.976l-5.416 13.707h3.427l1.189-3.519h5.484zm8.154 0h3.281v-11.43h4.657v-2.278H365.41v2.278h4.611zm11.36 0h3.423V94.938h-3.423zm14.26 0c4.391 0 7.416-2.623 7.416-6.907s-3.025-6.8-7.416-6.8c-4.39 0-7.415 2.5-7.415 6.8 0 4.284 3.025 6.907 7.415 6.907m0-2.284c-2.44 0-3.992-1.799-3.992-4.613 0-2.833 1.552-4.525 3.992-4.525s3.993 1.692 3.993 4.525c0 2.814-1.552 4.613-3.993 4.613m10.838 2.284h3.104v-5.5c0-1.575-.243-3.298-.399-4.78h.111l1.663 2.945 4.745 7.335h3.326V94.938h-3.104v5.465c0 1.556.243 3.371.421 4.798h-.111l-1.641-2.965-4.767-7.297h-3.348zm22.223 0c-2.292 0-4.584-.696-6.251-1.927l1.968-1.82c1.227.874 2.848 1.463 4.353 1.463 1.782 0 2.732-.589 2.732-1.517 0-.982-1.042-1.285-2.57-1.785l-2.292-.749c-1.737-.554-3.473-1.624-3.473-3.552 0-2.16 2.454-3.82 5.927-3.82 1.991 0 3.982.608 5.372 1.696l-1.737 1.66c-1.088-.696-2.223-1.089-3.635-1.089-1.505 0-2.477.518-2.477 1.392 0 .946 1.226 1.285 2.685 1.731l2.246.732c2.084.661 3.45 1.678 3.45 3.588 0 2.159-2.339 3.997-6.298 3.997M76.028 34.901c-6.105 0-11.966 1.712-16.85 4.89L42.816 50.307V13.872L14 37.835v45.483c0 13.449 9.035 24.941 21.246 29.099l5.617 1.711c-11.478-5.624-19.048-16.873-19.048-29.588 0-18.584 15.629-33.5 34.921-33.5 18.071 0 32.968 12.96 34.922 29.832h-20.27c-1.71-6.602-7.814-11.493-14.896-11.493-8.548 0-15.63 7.092-15.63 15.406s7.082 15.16 15.63 15.16c8.058 0 14.408-5.624 15.384-13.448h19.781c-.244 6.847-2.93 12.96-7.081 17.85 0 0 12.21-14.182 16.361-20.54 3.663-5.624 5.861-11.738 5.861-18.585 0-16.627-13.92-30.321-30.77-30.321" fill="#00367a"/></svg>