<svg width="498" height="128" fill="none" xmlns="http://www.w3.org/2000/svg"><path d="m44.259 42.995-1.148.046-1.148.046-1.102.184-1.102.183-1.102.23-1.056.275-1.056.368-1.01.367-1.01.413-.965.46-.964.55-.918.551-.873.597-.872.643-.826.689-.781.735-.735.734-.734.873-.69.78-.688.873-.597.918-.597.872-.55.919-.46 1.01-.46 1.01-.412 1.01-.368 1.056-.275 1.056-.276 1.056-.23 1.102-.137 1.148-.092 1.148-.78.735-.735.78-.689.827-.689.872-.642.873-.597.918-.505.964-.505 1.01-.414 1.01-.367 1.057-.321 1.056-.322 1.102-.184 1.102-.137 1.148-.092 1.148L14 80.647l.046.918.046.918.092.918.137.919.138.872.23.873.275.872.276.827.275.826.368.827.367.826.413.78.46.781.458.735.506.734.505.69.597.688.55.643.598.597.642.597.643.55.689.552.689.505.688.459.78.46.782.412.78.414.78.367.827.321.827.276.826.275.873.23.596.551.597.597.597.551.597.505.643.505.597.505.643.459.688.459.69.46.688.413.689.413.688.413.69.368.734.367.689.367.734.322.78.321.736.276.78.275.78.276.781.229.78.23.782.183.78.184.78.184.827.137.827.092.826.092.827.092.826.046.873.046.872.046 1.286-.046 1.285-.092 1.286-.138 1.24-.138 1.24-.229 1.24-.276 1.193-.321 1.194-.367 1.148-.414 1.148-.459 1.102-.459 1.102-.551 1.102-.551 1.056-.597 1.01-.689 1.01-.688-.597.046-.597.046-.597.045h-1.377l-.78-.045-.781-.092-.781-.046-.78-.046-.781-.092-.735-.138-.78-.137-.735-.138-.735-.138-.734-.184-.597-.275-.735-.184-.689-.229-.688-.276-.69-.275-.688-.276-.689-.275-.688-.276-.69-.321-.642-.322-.689-.367-.643-.367-.642-.368-.597-.367-.597-.413-.597-.368-.597-.367-1.194-.918-1.102-.919-.184-.183-.23-.184-.091-.092-.046-.092-.23-.183-.229-.184-.046-.046-.092-.046-.23-.23-.229-.229-.046-.046-.046-.046-.275-.275-.23-.23-.046-.046-.046-.046-.23-.275-.275-.276-.046-.046v-.046l-.275-.275-.23-.275-.046-.046-.275-.322-.276-.275-.275-.322-.276-.321h-.046v-.046l-.275-.322-.276-.32-.275-.322-.23-.368-.23-.275-.229-.322v-.045l-.23-.276-.183-.321-.046-.046-.046-.046v-.046l-.046-.046-.184-.275-.137-.276-.046-.046-.23-.367-.183-.322v-.046l-.046-.046-.184-.32-.138-.322-.046-.046-.046-.046-.137-.276-.138-.275-.046-.092-.046-.092-.138-.275-.137-.276-.046-.092-.046-.137-.138-.276-.092-.23-.046-.183-.092-.138-.091-.23-.138-.23-.046-.183-.046-.138-.092-.23-.092-.183-.046-.183-.091-.184-.092-.184-.046-.183-.092-.23-.046-.23-.046-.137-.046-.184-.046-.23-.092-.23-.045-.183-.046-.183-.092-.276-.046-.275-.046-.138-.046-.138-.092-.275-.046-.276-.046-.138-.046-.138-.091-.275-.046-.275-.046-.138-.046-.092-.046-.321-.046-.276v-.046h-.046v-.138l-.046-.046-.092-.321-.045-.321-.046-.092v-.092l-.046-.367-.092-.322-.046-.046v-.092l-.046-.367-.046-.367v-.138l-.046-.367-.046-.368v.368-.092l-.046-.367-.046-.368v-.092l-.045-.367-.046-.367v-.092l-.046-.413-.046-.368v-.091l-.046-.414V69.81l.046-.046v-.413l.046-.183v-.276l.046-.138v-.275l.046-.138v-.23l.045-.092v-.367l.046-.046v-.137l.046-.138v-.23l.046-.046v-.23h.046v-.137l.046-.092v-.092l.046-.137v-.184l.046-.138v-.138l.046-.137.046-.138v-.138l.046-.138.046-.091v-.092l.045-.184.046-.184.046-.046v-.045l.046-.184.046-.23v-.091l.276-1.148.321-1.102.321-1.148.368-1.102.459-1.194.505-1.194.551-1.148.597-1.148.597-1.102.689-1.102.688-1.056.735-1.01.78-1.01.827-.964.826-.919.873-.918.918-.873.919-.826 1.01-.826 1.01-.781-.689-.184-.689-.137-.688-.138-.689-.092-.735-.092-.688-.046-1.102.046zM36.224 68.25l-.138 3.857z" fill="#009f40"/><path d="m70.615 57 16.393 16.392L70.614 89.83 54.177 73.392z" fill="#1f2a8c"/><path d="m86.822 28.623.735.046.689.046.689.092.688.092.689.183.643.138.643.23.597.23.642.32.597.276.597.322.551.367.551.367.551.414.46.413.504.459.46.46.459.504.459.551.367.505.368.551.321.597.321.551.322.643.23.597.275.643.184.643.229.642.092.69.138.688.092.689v.688l.78.69.781.734.689.735.688.78.597.827.597.872.551.918.459.873.459 1.01.368.964.321 1.01.276 1.01.229 1.056.138 1.057.092 1.102.046 1.102-.046 1.102-.092 1.102-.138 1.056-.229 1.056-.276 1.056-.367 1.01-.368.964-.413.965-.505.918-.551.918-.597.872-.643.827-.642.78-.735.735-.735.735-.826.689-.138-1.516-.184-1.469-.275-1.47-.322-1.423-.367-1.423-.505-1.332-.505-1.377-.551-1.332-.689-1.24-.689-1.285-.734-1.194-.827-1.194-.872-1.148-.918-1.056-.965-1.056-1.01-1.01-1.056-.918-1.102-.919-1.148-.872-1.148-.827-1.24-.734-1.24-.689-1.285-.643-1.331-.55-1.332-.552-1.423-.459-1.378-.367-1.423-.276-1.47-.275-1.469-.184-1.515-.092-1.516-.046h-1.331l-1.286.092-1.24.138-1.285.184-1.24.23-1.24.275-1.193.367-1.194.367-1.194.46-1.102.459-1.148.55-1.056.552-1.056.597-1.102.642-1.01.69-.965.688.184-.918.184-.965.275-.918.23-.918.321-.873.414-.872.367-.873.413-.78.505-.827.505-.826.551-.735.551-.734.597-.69.643-.688.643-.643.689-.643.688-.596.78-.597.782-.505.734-.506.827-.459.826-.459.873-.413.872-.322.918-.321.873-.276.964-.275.918-.184.965-.137.964-.092 1.01-.092.964-.046h.689l.689.046.734.092.643.092.689.091.643.092.688.138.643.184.46-.368.505-.321.459-.322.505-.275.505-.276.55-.275.506-.23.551-.183.551-.184.597-.138.597-.183.55-.092.598-.092.597-.092h.642z" fill="#e4201f"/><path d="m44.075 16.823-.643.046h-.734l-.689.137-.689.092-.688.184-.69.184-.642.23-.597.275-.643.23-.597.32-.597.368-.55.321-.598.414-.505.413-.505.46-.505.458-.459.505-.413.505-.46.506-.413.596-.321.551-.367.597-.276.597-.321.643-.23.597-.23.643-.183.689-.184.688-.137.689-.046.735-.046.688-.046.735v.276l-.551.23-.597.32-.505.276-.551.322-.551.367-.505.321-.505.413-.46.368-.505.413-.459.413-.413.46-.46.505-.412.459-.368.505-.367.459-.367.505-.368.551-.321.551-.276.551-.275.597-.276.55-.275.598-.23.597-.183.597-.138.643-.184.596-.138.643-.091.643-.092.643-.046.689-.092.643v.688l.046.873.092.918.092.872.137.827.184.826.23.827.275.826.322.78.872-1.422.872-1.378.965-1.331 1.01-1.332 1.01-1.286 1.056-1.24 1.148-1.24 1.102-1.193 1.194-1.148 1.24-1.102 1.24-1.056 1.285-1.01 1.377-1.01 1.332-.919 1.377-.918 1.424-.873 1.423-.826 1.47-.735 1.515-.734 1.515-.689 1.561-.597 1.561-.597 1.607-.505 1.608-.505 1.652-.413 1.654-.368 1.652-.321 1.745-.23 1.7-.23 1.744-.137 1.745-.092 1.745-.046 1.102.046h1.147l1.103.092 1.102.046 1.102.138 1.102.137 1.056.138 1.102.184-.184-.551-.184-.551-.183-.505-.23-.505-.275-.551-.276-.505-.321-.46-.276-.459-.321-.459-.368-.459-.321-.413-.413-.414-.368-.413-.413-.367-.413-.367-.46-.368-.459-.321-.459-.322-.459-.275-.505-.276-.505-.275-.505-.23-.505-.23-.551-.183-.551-.184-.551-.137-.551-.138-.551-.092-.597-.138-.551-.046-.643-.045h-.55l-.92.046-.872.045-.872.184-.872.184-.781.23-.827.275-.78.321-.735.413-.505-.459-.505-.413-.505-.413-.55-.413-.598-.322-.55-.321-.598-.322-.643-.275-.596-.23-.643-.23-.69-.183-.642-.138-.689-.092-.688-.137h-.69l-.642-.046z" fill="#f7c700"/><path d="M167.774 54.612h15.244v-5.326h-15.244zm24.382-9.642H207.4v-3.857l-.092-.413-.138-.368-.183-.275-.138-.138-.138-.092-.183-.092-.138-.091-.459-.092-.46-.046h-13.315zm-24.382 0h15.244v-5.51h-15.244zm39.626 6.52v-2.204h-15.244v5.326h13.27l.459-.046.459-.092.138-.091.183-.092.138-.092.138-.138.183-.275.138-.367.092-.414V51.49zm-48.35-26.448v-3.857h38.707l3.077-.092 2.525-.137 2.112-.138 1.883-.184 1.883-.23 1.974-.32 2.342-.46 2.801-.505v4.27l-2.388.46-2.342.32-2.296.276-2.249.23-2.159.137-2.158.138-2.02.092-1.974.046h-6.475v3.627h26.173v3.903h-26.173v3.398h16.576l.827.046.826.092.735.23.689.23.642.32.551.368.506.459.505.46.367.504.367.505.322.551.229.597.184.551.138.597.092.551v9.964l-.092.551-.138.597-.184.55-.229.598-.322.55-.367.506-.367.505-.505.46-.506.412-.551.414-.642.321-.689.23-.735.23-.826.091-.827.046h-16.576v3.444h23.556v3.81h-23.556v3.445h26.173v3.902h-61.941V68.71h26.677v-3.444h-24.106v-3.811h24.106V58.01h-24.106V36.016h24.106v-3.398h-26.677v-3.903h26.447v-3.627H159.05zm246.938-5.923h9.184c-3.306 4.132-5.924 6.933-7.898 8.494-1.975 1.562-5.143 3.398-9.597 5.465h-4.132c4.086-3.352 7.025-6.016 8.816-8.036 1.791-1.974 3.03-3.949 3.627-5.923m11.617 5.74V20.68h35.31v4.179zm-11.525 8.218h9.688l-5.418 5.602v33.887h-9.137v-26.08l-6.704 2.203-3.076-2.204c5.556-3.03 9.183-5.464 10.974-7.3 1.745-1.837 2.984-3.858 3.673-6.108m9.688 1.837h38.341v4.224h-5.51v20.984l-.046 1.056-.092 1.056-.138 1.01-.184.965-.275.964-.321.918-.368.827-.413.826-.459.781-.505.735-.551.688-.597.643-.643.597-.689.505-.688.46-.781.413h-10.836l.826-.414.827-.459.872-.55.781-.598.734-.643.735-.688.689-.735.643-.78.596-.873.551-.826.46-.919.413-.918.321-.964.23-1.01.092-.506.046-.505.046-.505V39.14h-24.107zM266.081 22.976v-3.857h8.862v3.857h21.764v3.949h-46.972l-.368.046-.367.091-.275.092-.276.138-.229.138-.184.183-.138.23-.138.23-.091.275-.092.322-.046.275-.046.735v29.386l-.046 2.526-.046 2.341-.138 2.158-.092 1.01-.137.919-.138.918-.184.827-.183.78-.276.78-.275.69-.322.642h-9.137l.367-.872.322-.826.321-.919.23-.918.229-.918.184-.919.184-1.01.137-.964.184-2.112.138-2.158.046-2.296V30.782l.046-.919.091-.872.138-.826.23-.781.321-.689.367-.643.414-.55.459-.552.551-.459.551-.367.643-.367.688-.276.735-.184.781-.183.826-.092.873-.046zm-16.254 15.887h19.239V29.45h8.035v9.413h19.147v4.592h-18.78l.276.964.321 1.01.322 1.01.367 1.01.413 1.056.413 1.01.506 1.057.459 1.01 1.102 2.112 1.148 2.066 1.239 2.066 1.332 2.02 1.377 1.975 1.47 1.883 1.515 1.882 1.515 1.745.827.873.78.78.781.827.826.734.781.735.826.735.781.642.827.643h-12.306l-.918-.78-.873-.919-.872-.964-.873-1.056-.872-1.102-.827-1.148-.826-1.24-.827-1.24-.78-1.33-.735-1.333-.734-1.331-.735-1.423-.689-1.378-.643-1.423-.642-1.378-.597-1.423-.597 1.423-.597 1.378-.689 1.423-.689 1.378-.688 1.423-.735 1.331-.781 1.332-.78 1.332-.781 1.24-.826 1.24-.827 1.147-.872 1.102-.873 1.056-.872.964-.918.919-.873.78h-12.03l.827-.643.78-.642.827-.735.78-.735.827-.734.78-.827.781-.78.78-.873 1.562-1.745 1.515-1.882 1.423-1.883 1.424-1.974 1.331-2.02 1.24-2.067 1.148-2.066 1.056-2.112.505-1.01.459-1.056.459-1.01.414-1.057.367-1.01.321-1.01.322-1.01.275-.964h-18.871zm99.684 3.949h15.612l.367-.046.275-.046.23-.092.184-.184.137-.183.046-.23.046-.275.046-.368v-5.877h-16.989v7.3zm0-18.826v7.209H366.5v-5.877l-.046-.322-.046-.321-.046-.23-.137-.183-.184-.184-.23-.092-.275-.046-.367-.046h-15.658zm26.586 3.765v11.571l-.046.78-.092.735-.138.69-.229.688-.276.643-.275.597-.368.55-.413.506-.459.459-.505.413-.505.322-.597.32-.597.23-.597.138-.643.138h-20.249v2.985h8.954l3.627 5.418 3.995-5.51h9.872l-9.551 11.295 3.674 4.73.459.597.505.596.459.551.505.551.551.551.505.505.551.46.505.459 1.194.826 1.148.735 1.148.689 1.194.55-11.158.047-1.148-.781-1.148-.735-1.102-.78-1.01-.78-1.01-.827-.873-.873-.413-.413-.367-.505-.367-.46-.322-.504-10.423-14.464v11.25l.092.78.138.78.183.735.276.735.367.689.368.689.413.642.459.643.505.597.505.551.551.597.551.505 1.148 1.01 1.102.873h-10.102l-.551-.368-.505-.413-.505-.46-.505-.458-.459-.551-.459-.551-.413-.597-.414-.597-.321-.643-.322-.689-.275-.688-.23-.69-.183-.734-.138-.78-.092-.78-.046-.827V20.313h29.157l.643.138.597.137.597.23.597.321.505.322.505.413.459.46.413.504.368.551.275.597.276.643.229.689.138.688.092.781.046.735zm-44.907 35.77.092.642.138.689.23.642.275.597.367.643.414.643.459.597.459.597.505.55.551.552.551.55.551.506 1.056.964 1.01.827h-10.009l-.505-.368-.552-.413-.505-.46-.505-.504-.459-.505-.459-.551-.413-.597-.368-.597-.367-.643-.321-.689-.276-.688-.229-.735-.184-.735-.138-.734-.092-.78v-2.159h-.046v-7.117h-6.933v-3.903h6.933v-10.24h-6.703v-3.994h23.417v3.995h-7.989v10.24h7.989v3.902h-7.989v9.275zm8.036-34.806h-12.903l-6.795 4.96h-6.291c2.939-2.618 5.051-4.822 6.291-6.704 1.239-1.837 2.663-4.5 4.27-7.898h8.54l-4.086 5.556h10.974zM216.262 87.351h4.224l-10.928 10.514 11.525 11.25h-4.592l-10.606-11.112zm-14.28 21.764V87.351h3.535v21.764zm-9.734-21.764h3.305v21.764h-3.948l-10.928-17.356v17.356h-3.352V87.351h4.086l10.837 17.402zm-50.738 0h1.194l1.01.091.872.092.735.138.597.184.551.23.551.367.459.459.367.413.322.413.229.46.23.505.138.505.137.505.046.55.046.552-.046.459v.413l-.091.368-.046.413-.138.367-.138.367-.138.322-.183.367-.23.322-.229.275-.276.322-.321.275-.368.276-.367.183-.367.23-.414.183.735.276.643.367.505.368.459.367.322.367.321.413.184.414.183.459.138.459.092.505.046.505v1.332l-.138.78-.138.689-.275.643-.368.551-.413.551-.459.505-.551.413-.505.322-.551.275-.689.184-.688.183-.873.092-.918.092-1.01.046-1.056.046h-9.551V87.397h10.423zm-6.796 2.48v6.52h7.898l.78-.138.322-.092.321-.092.276-.092.275-.138.276-.275.229-.23.23-.275.138-.322.092-.367.091-.367.046-.414v-.78l-.046-.368-.046-.367-.091-.321-.138-.276-.138-.321-.138-.276-.183-.183-.276-.184-.275-.23-.322-.091-.321-.092-.322-.092-.459-.046h-.505l-.643-.046h-7.071zm0 9.596v7.254h7.071l.506-.045.459-.046.459-.092.413-.138.367-.138.322-.183.321-.23.23-.275.275-.276.138-.321.138-.368.138-.367.045-.367.046-.414.046-.459-.046-.413v-.413l-.091-.368-.092-.367-.138-.321-.138-.322-.229-.183-.184-.276-.275-.138-.322-.137-.367-.184-.368-.092-.413-.138-.459-.046-.505-.045h-7.347zm24.703-12.076h4.5l8.495 21.764h-3.628l-2.204-5.694h-10.147l-2.25 5.694h-3.673zm2.48 3.03-4.041 10.882h7.898zm314.665-3.03H484v2.755h-7.163l-.964.046h-.781l-.642.046-.46.045-.367.092-.367.138-.459.23-.368.275-.321.184-.276.23-.275.32-.23.322-.229.367-.184.368-.184.413-.183.413-.138.46-.138.505-.092.505-.092.55-.137 1.148-.046 1.286.046 1.01.046.919.091.826.092.735.138.597.23.597.229.643.322.551.183.367.23.321.229.276.23.275.276.276.229.137.276.184.275.092.735.23.826.137 1.056.092h5.097v-6.933h-6.336v-2.755H484v12.489h-7.576l-1.423-.046-1.24-.092-.551-.046-.551-.091-.459-.092-.414-.138-.459-.23-.459-.183-.459-.322-.459-.321-.414-.367-.367-.368-.367-.459-.367-.459-.414-.643-.367-.78-.321-.873-.23-.872-.23-1.01-.137-1.011-.092-1.148v-2.112l.046-.826.092-.827.091-.78.092-.689.184-.735.184-.642.183-.597.276-.597.229-.505.322-.505.321-.506.367-.413.368-.413.459-.367.459-.322.597-.367.643-.322.689-.183.734-.184.781-.138.918-.046 1.01-.091h.873zm-20.709 0h3.215v21.764h-3.811l-10.653-17.356v17.356h-3.168V87.351h3.903l10.56 17.402V87.351zm-25.667 21.764V87.351h3.536v21.764zm-38.845-21.764h7.438v2.755h-7.163l-.918.046h-.826l-.643.046-.459.045-.368.092-.367.138-.413.23-.368.275-.321.184-.276.23-.275.32-.23.322-.229.367-.184.368-.184.413-.183.413-.138.46-.138.505-.092.505-.091.55-.138 1.148v2.296l.046.919.092.826.091.735.184.597.184.597.229.643.322.551.183.367.23.321.23.276.229.275.276.276.275.137.23.184.321.092.689.23.872.137 1.011.092h5.096v-6.933h-6.336v-2.755h9.55v12.489h-7.576l-1.423-.046-1.24-.092-.597-.046-.505-.091-.413-.092-.413-.138-.506-.23-.459-.183-.459-.322-.413-.321-.413-.367-.46-.368-.367-.459-.367-.459-.413-.643-.368-.78-.321-.873-.23-.872-.183-1.01-.184-1.011-.046-1.148-.046-1.24v-.872l.046-.826.092-.827.092-.78.137-.689.138-.735.184-.642.229-.597.23-.597.275-.505.276-.505.321-.506.368-.413.367-.413.413-.367.414-.322.596-.367.643-.322.689-.183.735-.184.78-.138.919-.046 1.01-.091h1.01zm-19.469 0h3.215v21.764h-3.857l-10.607-17.356v17.356h-3.214V87.351h3.949l10.514 17.402zm-50.645 0h3.306v21.764h-3.306v-9.642h-11.02v9.642h-3.306V87.351h3.306v9.32h11.02zm-25.392 0h6.75v2.755h-6.566l-1.011.046-.918.046-.735.091-.642.138-.506.23-.505.321-.459.367-.413.414-.413.55-.368.644-.275.78-.23.827-.183.918-.138.964-.092 1.01-.046 1.01.046.965.046.918.138.872.183.827.276.689.275.734.368.597.459.551.459.459.505.368.505.321.551.23.643.137.735.138.918.046h7.301v2.801h-6.566l-1.332-.046-1.194-.092-1.056-.137-.918-.184-.827-.276-.734-.367-.643-.459-.643-.505-.597-.597-.551-.643-.459-.781-.459-.872-.23-.597-.229-.734-.138-.643-.184-.689-.092-.735-.091-.78-.046-.78v-1.746l.092-.918.091-.872.138-.873.23-.826.229-.827.322-.78.413-.735.321-.597.368-.505.413-.505.413-.413.413-.414.46-.367.459-.321.459-.23.551-.276.551-.137.597-.184.689-.092.688-.092.781-.091.872-.046zm44.355 0h.781l.734.046.735.045.689.092.643.138.642.138.551.183.551.184.505.276.506.23.459.32.413.368.413.367.413.414.368.413.321.459.413.689.368.734.321.781.276.872.183.919.138 1.056.046 1.102.046 1.102-.046 1.377-.138 1.286-.092.643-.091.597-.23.505-.184.551-.137.505-.276.505-.275.459-.23.459-.321.368-.322.413-.321.367-.368.322-.78.596-.827.506-.872.413-.918.321-1.011.322-1.102.183-1.147.092-1.194.046h-.689l-.643-.046-.689-.046-.642-.092-.597-.091-.551-.138-.505-.138-.505-.184-.506-.183-.459-.184-.459-.275-.459-.276-.367-.275-.414-.368-.367-.367-.321-.367-.23-.368-.275-.367-.184-.367-.184-.414-.413-.918-.321-1.056-.322-1.056-.138-1.102-.137-1.148v-2.296l.137-1.148.184-1.102.23-1.056.367-1.01.413-.872.276-.414.183-.413.276-.367.321-.276.368-.413.367-.367.413-.368.413-.321.46-.276.459-.23.459-.229.505-.183.505-.184.505-.138.597-.138.597-.091.643-.092.597-.046.734-.046h.735zm-1.056 19.009 1.01.046.551-.046h.505l.505-.092.459-.046.46-.092.459-.137.413-.138.367-.184.368-.183.367-.23.321-.23.322-.229.275-.321.276-.368.184-.367.183-.367.184-.46.138-.505.091-.551.138-.597.046-.642.092-.69v-.734l.046-.826-.046-.919-.046-.872-.092-.827-.092-.734-.183-.689-.184-.643-.23-.55-.321-.506-.184-.275-.183-.322-.276-.23-.275-.275-.322-.23-.321-.183-.322-.138-.367-.184-.735-.23-.826-.183-.872-.138-.919-.045h-.551l-.551.045-.459.046-.505.092-.459.092-.413.138-.46.138-.367.183-.367.184-.368.183-.321.23-.321.322-.23.32-.275.322-.276.368-.184.413-.183.505-.184.505-.184.597-.091.597-.092.643-.092.734-.046.735v.78l.046.965.046.872.092.827.137.734.23.735.184.643.275.551.367.551.184.321.184.23.275.229.23.184.321.276.322.137.321.184.367.138.735.275.827.184zm-96.975-19.01h.78l.735.047.735.045.688.092.643.138.643.138.551.183.551.184.505.276.505.23.459.32.413.368.414.367.413.414.367.413.322.459.413.689.367.734.322.781.275.872.184.919.138 1.056.046 1.102.045 1.102-.045 1.377-.138 1.286-.092.643-.092.597-.138.551-.183.551-.138.505-.276.505-.275.459-.23.459-.321.367-.321.414-.322.367-.367.321-.781.597-.826.505-.873.414-.918.321-1.01.322-1.102.183-1.148.092-1.194.046h-.689l-.642-.046-.689-.046-.643-.092-.597-.092-.551-.137-.505-.138-.505-.184-.505-.183-.459-.184-.46-.276-.459-.275-.367-.276-.413-.367-.368-.367-.321-.368-.23-.367-.275-.367-.184-.368-.183-.413-.414-.918-.321-1.056-.321-1.056-.138-1.102-.138-1.148v-2.296l.138-1.148.183-1.102.23-1.056.367-1.01.414-.873.275-.413.184-.413.275-.367.322-.276.367-.413.367-.367.414-.368.413-.321.459-.276.459-.23.459-.229.505-.184.505-.183.506-.138.596-.138.597-.092.643-.091.597-.046.735-.046h.643zm-1.011 19.01 1.011.046.551-.046h.505l.505-.092.459-.046.459-.092.459-.137.414-.138.367-.184.367-.183.368-.23.321-.23.321-.229.276-.321.275-.368.184-.367.184-.367.183-.46.138-.505.092-.551.138-.597.046-.642.091-.69v-.734l.046-.826-.046-.919-.046-.872-.091-.827-.092-.734-.184-.689-.183-.643-.23-.55-.321-.506-.184-.275-.184-.322-.275-.23-.276-.275-.321-.23-.322-.183-.321-.138-.367-.184-.735-.23-.827-.183-.872-.138-.918-.045h-.551l-.551.045-.459.046-.506.092-.459.092-.413.138-.459.138-.367.183-.368.184-.367.183-.322.23-.321.322-.23.32-.275.322-.276.368-.183.413-.184.505-.184.505-.183.597-.092.597-.092.643-.092.734-.046.735v.78l.046.965.046.872.092.827.138.734.229.735.184.643.276.551.367.551.184.321.183.23.276.229.229.184.322.276.321.137.322.184.367.138.735.275.826.184zm172.371-19.01h.78l1.24.047 1.102.137.551.092.505.092.505.138.505.183.459.23.459.184.414.23.459.32.413.23.367.368.368.367.367.367.597.689.459.78.459.873.368.918.229.965.23 1.056.092 1.102.046 1.147-.046.69v.688l-.046.597-.092.643-.092.551-.138.551-.137.551-.138.459-.184.505-.229.459-.276.459-.321.505-.368.46-.367.459-.459.413-.413.459h3.902v2.755h-11.157l-1.148-.092-1.056-.092-.964-.137-.919-.23-.826-.275-.414-.23-.367-.184-.413-.229-.367-.23-.643-.551-.597-.643-.551-.734-.505-.781-.368-.643-.321-.688-.23-.689-.229-.689-.138-.735-.092-.78-.092-.827v-1.882l.046-.78.092-.735.138-.69.138-.734.183-.689.276-.642.229-.643.368-.689.413-.643.459-.597.505-.55.505-.506.597-.459.643-.46.643-.367.597-.23.551-.229.643-.23.597-.137.688-.092.643-.092zm-.092 19.01.918.046.872-.046.735-.092.781-.183.642-.276.322-.138.321-.183.322-.23.275-.23.505-.505.414-.596.321-.551.23-.551.229-.643.184-.597.138-.689.091-.689.046-.734v-1.837l-.046-.826-.091-.827-.092-.735-.138-.642-.184-.643-.275-.551-.276-.505-.183-.368-.184-.321-.276-.276-.229-.321-.321-.23-.414-.183-.321-.23-.368-.138-.367-.183-.367-.138-.413-.092-.414-.092-.872-.137-.918-.046-.873.046-.734.091-.781.138-.643.23-.643.275-.551.367-.505.46-.459.459-.367.505-.322.597-.321.643-.23.78-.183.827-.184.872-.046.964-.046.965.046.918.046.872.092.735.138.781.183.688.276.643.321.597.322.551.229.23.184.229.275.276.23.183.321.23.322.138.367.183.367.138.781.23.826.183zm-152.81-9.367h13.408v2.434h-13.408v9.642h-2.434v-18.09a3.684 3.684 0 0 1 3.674-3.674h12.122v2.341h-11.158a2.204 2.204 0 0 0-2.204 2.204z" fill="#231916"/></svg>