<svg width="128" height="128" fill="none" xmlns="http://www.w3.org/2000/svg"><path d="M32.326 94.47c0 6.366 4.824 11.53 10.774 11.53 5.104 0 9.375-3.795 10.489-8.895h-6.346c0 2.184-1.78 3.952-3.977 3.952s-3.978-1.768-3.978-3.952v-4.612c0-2.184 1.78-3.956 3.978-3.956a3.97 3.97 0 0 1 3.922 3.298h6.4c-1.113-5.1-5.384-8.895-10.488-8.895-5.95 0-10.774 5.159-10.774 11.53m23.868-10.872v5.351h5.967v16.392h6.63V88.949h5.967v-5.35zm34.812 8.692c-1.339-.243-3.379-.281-3.379-.281-2.712 0-3.82-1.007-3.82-2.24 0-1.203.777-2.014 2.634-2.014 1.96 0 2.754.531 3.099 2.206h5.996c-.841-5.776-6.005-6.694-8.904-6.694-5.274 0-8.95 2.97-8.95 6.71 0 3.243 2.397 5.198 4.96 6.129l3.532.956c.34.047 3.595.264 3.2 2.436-.213 1.185-.778 2.014-2.635 2.014-1.96 0-2.75-.531-3.094-2.201h-6.001c.841 5.771 6.01 6.689 8.908 6.689 5.27 0 9.443-2.24 9.443-5.976.183-3.365-.616-4.938-1.734-5.92-1.436-1.258-2.8-1.73-3.255-1.814M61.273 56.972l-1.046 1.05s-.17.824-.148.897c.02.072.748.45.748.45l1.045-.901v-.595zm6.12 1.05-1.195.148-.446.749-.148.599.446.599.599.149 1.041-1.046.149-.599zm-3.175-31.599-6.005 18.64-21.467.124L53.822 56.72l-6.314 18.63 17.157-11.594 16.63 11.513L75 56.772 91.98 45.2l-21.598.025zm-5.066 19.614.629.306s.4-.068 1.492 1.05l1.253 1.712-.059 1.28-.897.9v.897l1.794.149-.149.45-1.645.749-.148.599.45.748-.153.896 1.496 2.397.051 1.666-.79 1.216-1.267.319-.982-.655-1.496-.085-2.087.982-.497-.242s-.54-1.059-.131-1.428c1.04-1.56 3.914-3.268 3.914-3.268s.62-1.305.297-2.249c-.39-.272-.896-.148-.896-.148s-.625.88-1.344.896c-.811.302-.892-.913-.892-.913s-.102-1.667 1.046-2.228c.565-.841 2.983-1.648 2.983-1.648v-.748L59.93 48.59l-1.194-2.1zm7.195.306.748-.298 1.64 1.199-.148.599-1.343 1.194.149.6.897.148 2.09-1.194.298.748-1.492.748s-.153.195-.153.297c.004.107.748.749.748.749l-.297 1.797-1.794 1.65-1.492 1.045.298 1.496 1.942-.447.748-1.5 1.64-1.496 1.046-.599.298 1.199-1.492.748-.897 1.946.447 1.05 2.09.748.298-.149h.748l.561.514.289.952-.54 1.199-1.619.08-1.228-1.1-1.195-.897-.896-.302-2.538 3.443-1.874-.566.68-3.625.298-3.893 1.942-.748 1.194-1.198.149-1.496-.897-.447-2.235 1.496-.748-.599.297-1.05 1.046-1.793.148-2.1zM63.82 21l-7.294 22.075H31l20.018 14.462-7.09 22.104 20.554-13.506 20.552 13.838-7.11-22.712L97.3 43.733H72.106zm.101 2.839 7.276 20.736h22.785l-17.43 12.55 6.588 20.6-18.53-12.686-18.53 12.278 6.175-19.78-17.981-13.37h23.06z" fill="#d30a02"/></svg>