<svg width="128" height="128" fill="none" xmlns="http://www.w3.org/2000/svg"><path d="M98.132 57.625 70.235 29.837c-1.969-1.962-1.969-4.904 0-6.866s4.923-1.962 6.892 0l27.895 27.789c1.97 1.961 1.97 4.904 0 6.865-1.64 1.962-4.922 1.962-6.891 0M67.61 46.182 51.857 30.49c-1.969-1.961-1.969-4.903 0-6.865s4.923-1.962 6.892 0l15.753 15.693c1.969 1.961 1.969 4.903 0 6.865-1.969 1.961-4.923 1.961-6.892 0m-9.517 9.481L42.34 39.972c-1.97-1.961-1.97-4.903 0-6.865s4.922-1.962 6.891 0l15.753 15.692c1.97 1.962 1.97 4.904 0 6.865-1.968 1.635-4.922 1.635-6.891 0m-9.518 9.154L32.823 49.125c-1.969-1.962-1.969-4.904 0-6.865s4.923-1.962 6.892 0l15.753 15.692c1.97 1.962 1.97 4.904 0 6.865-1.64 1.962-4.922 1.962-6.892 0m-25.27-6.211c-1.969-1.962-1.969-4.904 0-6.866s4.923-1.961 6.892 0L45.95 67.434c1.969 1.961 1.969 4.903 0 6.865-1.641 1.962-4.923 1.962-6.892 0zM98.132 76.26 82.378 60.567c-1.969-1.961-1.969-4.904 0-6.865s4.923-1.962 6.892 0l15.753 15.692c1.97 1.962 1.97 4.904 0 6.865s-5.251 1.962-6.891 0m-9.518 9.48L72.861 70.048c-1.969-1.962-1.969-4.904 0-6.865s4.923-1.962 6.892 0l15.753 15.692c1.969 1.962 1.969 4.904 0 6.865s-4.923 1.962-6.892 0m-9.517 9.481L63.344 79.529c-1.97-1.962-1.97-4.904 0-6.865 1.968-1.962 4.922-1.962 6.892 0l15.752 15.692c1.97 1.962 1.97 4.904 0 6.865s-4.922 1.962-6.891 0m-9.518 9.481L53.827 89.01c-1.97-1.962-1.97-4.904 0-6.866 1.968-1.962 4.922-1.962 6.891 0l15.753 15.692c1.969 1.962 1.969 4.905 0 6.865-1.969 1.962-4.922 1.962-6.892 0zm-18.706.327L22.977 77.24c-1.97-1.962-1.97-4.904 0-6.865s4.922-1.962 6.892 0l27.896 27.788c1.968 1.962 1.968 4.904 0 6.865-1.97 1.962-4.923 1.962-6.892 0z" fill="#e60012"/></svg>