<svg width="570" height="128" fill="none" xmlns="http://www.w3.org/2000/svg"><path d="m69.046 99.254 9.108 9.12A20.62 20.62 0 0 1 63.985 114c-5.467 0-10.456-2.138-14.168-5.626l9.113-9.12a16.95 16.95 0 0 1 10.116 0m19.161-29.277a17 17 0 0 1 10.114-.004l9.126 9.117c-3.721 3.489-8.705 5.626-14.18 5.626-5.476 0-10.464-2.137-14.178-5.632 3.49 3.723 5.628 8.704 5.628 14.18s-2.14 10.467-5.63 14.181l-9.113-9.12a16.95 16.95 0 0 1 0-10.125l9.114-9.118v.002zm-48.423.03 9.09 9.09.014-.015 9.109 9.118a17.06 17.06 0 0 1 .011 10.12l-9.12 9.118c-3.487-3.707-5.635-8.7-5.635-14.173 0-5.296 2.007-10.128 5.29-13.805a20.64 20.64 0 0 1-13.82 5.293c-5.461 0-10.45-2.14-14.16-5.625l9.115-9.12a17 17 0 0 1 10.105 0m19.17-29.285a17.03 17.03 0 0 1 10.108 0l9.087 9.095.011-.012 9.123 9.118a17.05 17.05 0 0 1 0 10.113l-9.123 9.125c-3.487-3.714-5.624-8.703-5.624-14.18a20.64 20.64 0 0 1 5.345-13.873 20.6 20.6 0 0 1-13.879 5.365c-5.467 0-10.456-2.145-14.168-5.632l.006.007c3.48 3.713 5.624 8.702 5.624 14.168 0 5.295-2.006 10.136-5.287 13.808 3.671-3.287 8.516-5.296 13.808-5.296 5.475 0 10.463 2.144 14.17 5.632l-9.11 9.117a17 17 0 0 1-10.108 0l-9.09-9.094-.014.016-9.114-9.125a17 17 0 0 1 0-10.107l9.115-9.127zm-39.33 9.118 9.116 9.12a17 17 0 0 1 0 10.114L19.623 78.2C16.137 74.484 14 69.493 14 64.016c0-5.47 2.137-10.466 5.623-14.176m88.744-.035C111.853 53.513 114 58.509 114 63.98c0 5.477-2.147 10.466-5.632 14.18l-9.11-9.124a17 17 0 0 1 0-10.114zM34.724 43.28a20.65 20.65 0 0 1 14.181 5.632l-9.114 9.119a17 17 0 0 1-10.112 0l-9.12-9.118c3.714-3.488 8.703-5.632 14.164-5.632m44.38-22.72a20.64 20.64 0 0 1 5.63 14.173c0 5.328-2.028 10.198-5.353 13.879 3.677-3.33 8.55-5.37 13.886-5.37 5.476 0 10.46 2.147 14.18 5.633l-9.118 9.118a17.04 17.04 0 0 1-10.121 0l-9.09-9.096-.013.014-9.114-9.123a16.9 16.9 0 0 1 0-10.112l9.114-9.117m-30.2 0 9.11 9.116a16.96 16.96 0 0 1 0 10.118l-9.11 9.117c-3.485-3.714-5.633-8.705-5.633-14.178 0-5.47 2.148-10.466 5.634-14.174M64.003 14c5.474 0 10.468 2.144 14.176 5.631l-9.116 9.117a16.97 16.97 0 0 1-10.115 0l-9.114-9.117C53.546 16.145 58.535 14 64.002 14" fill="#a72226"/><path d="M149.697 86.268v1.708l-8.035 10.02-.874 1.015h9.148v1.71h-11.328v-1.778l7.338-9.257a23 23 0 0 1 1.488-1.71h-7.997v-1.708zm185.4 0q1.927-.002 3.466.923c1.032.617 1.814 1.476 2.358 2.58q.812 1.651.811 3.754 0 2.111-.858 3.795c-.559 1.119-1.371 1.965-2.409 2.536a6.9 6.9 0 0 1-3.373.865q-1.96 0-3.501-.955a6.1 6.1 0 0 1-2.345-2.596 8 8 0 0 1-.795-3.488q-.001-3.476 1.861-5.451c1.239-1.305 2.837-1.963 4.785-1.963m50.393 0q1.92-.002 3.468.923a6.07 6.07 0 0 1 2.359 2.58q.806 1.651.806 3.754-.002 2.111-.852 3.795-.851 1.679-2.411 2.536a6.9 6.9 0 0 1-3.381.865c-1.303 0-2.476-.319-3.502-.955a6.1 6.1 0 0 1-2.342-2.596 8 8 0 0 1-.794-3.488c0-2.316.612-4.135 1.856-5.451 1.238-1.305 2.837-1.963 4.793-1.963m-198.445 0v9.686c0 1.19-.148 2.112-.453 2.763a3.17 3.17 0 0 1-1.431 1.494c-.657.343-1.427.51-2.311.51q-1.956 0-3.003-1.077c-.694-.717-1.034-1.775-1.003-3.194l1.782-.233c.05 1.083.263 1.824.645 2.232.376.393.904.597 1.574.597q.742 0 1.279-.322c.364-.222.606-.514.744-.887.133-.37.209-.962.209-1.776v-9.793zm357.673 0v7.166l6.803-7.166h2.457l-5.746 5.858 5.999 8.595h-2.393l-4.88-7.312-2.24 2.3v5.012h-1.815V86.268zm-174.014 0c1.502 0 2.758.353 3.787 1.065q1.537 1.068 2.14 3.005l-1.958.432q-.52-1.527-1.515-2.225c-.663-.459-1.495-.693-2.5-.693-1.153 0-2.115.257-2.897.77a4.14 4.14 0 0 0-1.634 2.079c-.31.86-.47 1.767-.473 2.68q.001 1.785.56 3.107c.373.89.96 1.554 1.736 1.996a5.2 5.2 0 0 0 2.558.654c1.112 0 2.049-.301 2.821-.895.776-.595 1.295-1.483 1.573-2.66l1.986.465c-.422 1.517-1.167 2.677-2.245 3.477-1.087.793-2.411 1.196-3.976 1.196-1.615 0-2.936-.308-3.947-.924-1.015-.607-1.787-1.502-2.317-2.661a8.9 8.9 0 0 1-.796-3.747c0-1.46.296-2.724.902-3.808a5.9 5.9 0 0 1 2.546-2.472c1.104-.558 2.317-.841 3.649-.841m160.48 0 7.55 11.344V86.268h1.826v14.453h-1.957l-7.546-11.358v11.358h-1.825V86.268zm-8.544 0 5.811 14.453h-2.14l-1.652-4.38h-5.935l-1.563 4.38h-1.992l5.45-14.453zm-13.754 0q1.542 0 2.476.436a3.3 3.3 0 0 1 1.454 1.35 3.7 3.7 0 0 1 .524 1.91 3.45 3.45 0 0 1-.462 1.746c-.311.541-.78.987-1.415 1.322q1.227.384 1.877 1.306.656.931.657 2.191c0 .676-.129 1.301-.395 1.887q-.4.875-.985 1.343-.593.472-1.476.718c-.594.158-1.318.244-2.171.244h-5.129V86.268zm-197.069 0v1.708l-8.043 10.02-.877 1.015h9.148v1.71h-11.328v-1.778l7.341-9.257a23 23 0 0 1 1.488-1.71h-7.992v-1.708zm169.418 0 5.809 14.453h-2.141l-1.652-4.38h-5.934l-1.556 4.38h-1.998l5.451-14.453zm-9.308 0v14.453h-2.187V86.268zm-25.467 0c1.343 0 2.364.135 3.061.388q1.051.391 1.678 1.375c.414.65.631 1.407.625 2.178 0 1.029-.342 1.89-1.038 2.59-.69.707-1.766 1.158-3.205 1.346.527.244.926.488 1.199.718.588.511 1.137 1.155 1.658 1.922l2.622 3.936h-2.506l-2.003-3.012a27 27 0 0 0-1.433-1.989c-.379-.458-.713-.778-1.011-.966a3 3 0 0 0-.912-.384c-.229-.042-.597-.067-1.108-.067h-2.313v6.418h-1.996V86.268zm-49.22 0 3.295 10.23q.456 1.432.663 2.14.242-.783.741-2.316l3.334-10.054h2.474v14.453h-1.772v-12.1l-4.043 12.1h-1.661l-4.032-12.3v12.3h-1.772V86.268zm-244.222 0v5.937h7.505v-5.937h1.913v14.453h-1.913v-6.82h-7.506v6.82h-1.909V86.268zm337.575 0V99.01h7.389v1.71h-9.375V86.268zm-239.431 0q2.256-.001 3.8 1.065 1.531 1.068 2.137 3.005l-1.959.432c-.345-1.018-.847-1.76-1.515-2.225-.663-.459-1.493-.693-2.499-.693q-1.734 0-2.9.77a4.1 4.1 0 0 0-1.636 2.079 7.9 7.9 0 0 0-.468 2.68q-.002 1.785.555 3.107.563 1.334 1.737 1.996c.78.434 1.659.66 2.552.654 1.12 0 2.058-.301 2.83-.895.777-.595 1.305-1.483 1.573-2.66l1.989.465q-.626 2.276-2.254 3.477c-1.081.793-2.405 1.196-3.974 1.196-1.616 0-2.936-.308-3.946-.924-1.016-.607-1.786-1.502-2.319-2.661a9 9 0 0 1-.789-3.747c0-1.46.29-2.724.89-3.808a5.95 5.95 0 0 1 2.553-2.472c1.105-.558 2.323-.841 3.643-.841m-21.769 0q1.557.001 2.812.488c.846.33 1.502.782 1.98 1.371.47.583.839 1.349 1.085 2.284l-1.713.458c-.216-.712-.483-1.27-.809-1.672-.317-.411-.772-.735-1.371-.982-.59-.246-1.252-.365-1.971-.365-.868 0-1.625.128-2.251.383-.639.258-1.146.6-1.54 1.018a4.9 4.9 0 0 0-.904 1.383 7.2 7.2 0 0 0-.548 2.814c0 1.241.221 2.289.663 3.132a4.22 4.22 0 0 0 1.925 1.864 6.1 6.1 0 0 0 2.679.613c.82 0 1.629-.16 2.415-.472.782-.306 1.374-.63 1.779-.982V95h-4.218v-1.64l6.076-.006v5.184c-.935.724-1.894 1.272-2.883 1.636a8.8 8.8 0 0 1-3.059.547q-2.114.001-3.845-.881c-1.152-.59-2.021-1.437-2.606-2.55-.586-1.113-.888-2.36-.888-3.731 0-1.358.295-2.63.881-3.807q.876-1.774 2.524-2.626c1.09-.575 2.358-.858 3.787-.858m207.734 0v1.708h-8.046v4.421h7.526v1.699h-7.526v4.915h8.354v1.71h-10.156V86.268zm-235.184 0 5.805 14.453h-2.135l-1.66-4.38h-5.935l-1.559 4.38h-1.992l5.454-14.453zm143.65 0v8.201c0 1.231.123 2.141.352 2.728s.629 1.035 1.198 1.353q.844.476 2.077.478c1.408 0 2.396-.318 2.997-.947.594-.621.89-1.83.89-3.612v-8.201h1.907v8.208c0 1.428-.162 2.566-.491 3.402-.326.844-.921 1.527-1.774 2.052q-1.277.79-3.365.791c-1.344 0-2.451-.229-3.308-.69s-1.475-1.117-1.838-1.99q-.555-1.309-.553-3.565v-8.208zm-152.962 0v14.453h-2.187V86.268zm219.842 0 3.291 10.23q.458 1.432.668 2.14.235-.783.741-2.316l3.329-10.054h2.48v14.453h-1.778v-12.1l-4.042 12.1h-1.666l-4.024-12.3v12.3h-1.771V86.268zm-134.013 0q1.927-.002 3.469.923a6 6 0 0 1 2.357 2.58q.806 1.651.806 3.754c0 1.408-.279 2.672-.846 3.795q-.858 1.679-2.415 2.536a6.9 6.9 0 0 1-3.378.865c-1.307 0-2.48-.319-3.508-.955a6.06 6.06 0 0 1-2.336-2.596 7.95 7.95 0 0 1-.799-3.488q0-3.476 1.854-5.451c1.24-1.305 2.84-1.963 4.796-1.963m37.451 0v5.937h7.504v-5.937h1.911v14.453h-1.911v-6.82h-7.504v6.82h-1.913V86.268zm-106.21 0 7.556 11.344V86.268h1.819v14.453h-1.946l-7.556-11.358v11.358h-1.826V86.268h1.954zm-33.127 0v1.708h-8.045v4.421h7.529v1.699h-7.529v4.915h8.36v1.71h-10.157V86.268zm113.548 0v8.201q-.001 1.847.352 2.728a2.6 2.6 0 0 0 1.2 1.353c.567.316 1.254.478 2.07.478q2.105-.002 3.003-.947c.594-.621.89-1.83.89-3.612v-8.201h1.908v8.208c0 1.428-.164 2.566-.49 3.402-.334.844-.921 1.527-1.774 2.052q-1.281.79-3.363.791c-1.353 0-2.454-.229-3.317-.69-.86-.46-1.471-1.117-1.834-1.99-.37-.873-.55-2.06-.55-3.565v-8.208zm-30.07 0v5.937h7.509v-5.937h1.906v14.453h-1.906v-6.82h-7.509v6.82h-1.913V86.268zm200.103 0q2.251-.001 3.795 1.065c1.021.713 1.728 1.713 2.131 3.005l-1.95.432c-.345-1.018-.859-1.76-1.515-2.225-.67-.459-1.494-.693-2.499-.693q-1.732 0-2.896.77a4.1 4.1 0 0 0-1.635 2.079 7.9 7.9 0 0 0-.475 2.68c0 1.19.191 2.226.562 3.107.367.89.955 1.554 1.732 1.996a5.2 5.2 0 0 0 2.555.654c1.111 0 2.056-.301 2.827-.895s1.295-1.483 1.565-2.66l1.989.465c-.417 1.517-1.169 2.677-2.247 3.477-1.087.793-2.411 1.196-3.971 1.196-1.622 0-2.933-.308-3.944-.924-1.017-.607-1.786-1.502-2.323-2.661a9 9 0 0 1-.796-3.747c0-1.46.304-2.724.904-3.808a5.9 5.9 0 0 1 2.551-2.472c1.104-.558 2.314-.841 3.64-.841m-181.684 1.594a4.7 4.7 0 0 0-3.357 1.345c-.941.902-1.408 2.4-1.408 4.504 0 1.682.449 3.01 1.348 3.975.901.97 2.034 1.454 3.388 1.454q2.075-.001 3.416-1.465 1.343-1.475 1.344-4.164c0-1.141-.194-2.13-.573-2.976-.386-.851-.939-1.509-1.675-1.974a4.6 4.6 0 0 0-2.483-.7zm56.639 0c-1.301 0-2.416.452-3.356 1.345-.938.902-1.411 2.4-1.411 4.504 0 1.682.448 3.01 1.353 3.975.905.97 2.03 1.454 3.39 1.454 1.377 0 2.52-.49 3.408-1.465.898-.983 1.342-2.372 1.342-4.164 0-1.141-.192-2.13-.573-2.976-.384-.851-.939-1.509-1.674-1.974a4.54 4.54 0 0 0-2.478-.7zm50.387 0c-1.296 0-2.418.452-3.357 1.345-.935.902-1.408 2.4-1.408 4.504 0 1.682.451 3.01 1.348 3.975q1.356 1.454 3.392 1.454 2.077-.001 3.412-1.465c.899-.983 1.341-2.372 1.341-4.164 0-1.141-.185-2.13-.571-2.976q-.57-1.276-1.675-1.974-1.106-.699-2.482-.7zm123.229 6.178h-3.105v4.97h3.349c.57 0 .978-.018 1.21-.067a3 3 0 0 0 1.028-.388c.279-.188.503-.458.681-.808.174-.353.27-.756.27-1.218a2.54 2.54 0 0 0-.395-1.406 2.03 2.03 0 0 0-1.064-.839c-.458-.158-1.114-.244-1.975-.244zm-307.839-6.253a19.5 19.5 0 0 1-.763 2.756l-1.563 4.241h4.813l-1.479-4.004a41 41 0 0 1-1.007-2.993zm279.298 0a19 19 0 0 1-.768 2.756l-1.562 4.241h4.811l-1.479-4.004c-.453-1.21-.786-2.214-1.002-2.993m41.407 0a19 19 0 0 1-.77 2.756l-1.556 4.241h4.807l-1.478-4.004c-.454-1.21-.789-2.214-1.003-2.993m-75.049.08h-4.769v4.781h4.282c.91 0 1.626-.092 2.139-.274.513-.18.907-.467 1.173-.864.261-.384.401-.837.399-1.301a2.11 2.11 0 0 0-.774-1.678c-.513-.444-1.335-.665-2.45-.665m61.766.109h-2.688v4.368h2.902c.797 0 1.359-.062 1.705-.17.455-.146.79-.383 1.021-.725.231-.334.346-.748.346-1.259a2.5 2.5 0 0 0-.324-1.27 1.66 1.66 0 0 0-.916-.745c-.402-.132-1.081-.2-2.046-.2M186.056 32.39v3.86c-2.932.81-5.804 1.22-8.597 1.22h-6.707v8.004h15.512v3.453h-4.61v29.137h-4.824V48.928h-6.078v12.085c.553 8.526-2.238 14.208-8.392 17.051v-3.453q3.98-3.45 3.561-12.38V34.016h10.487c3.215 0 6.429-.538 9.648-1.626m189.182-.81v2.997h20.01v3.567h-10.916c.224 2.22-.873 5.365-1.821 7.103h9.704v26.58c.134 4.287-2.017 6.365-6.466 6.23h-4.443v-3.413h2.622q3.226 0 3.033-2.418V49.102h-30.318v28.717h-5.053V45.248h9.91c-.81-1.206-1.904-4.18-1.823-7.103h-10.913v-3.567h20.411V31.58zm180.947 15.343v3.63h-8.391v21.25c0 4.306-2.166 6.385-6.501 6.255h-6.914v-3.63h4.61c2.103.13 3.072-.74 2.94-2.624V50.553h-15.943v-3.63zm-57.046-13.778v16.502c.138 4.334-2.081 6.493-6.652 6.493h-13.511v15.832q2.694-.807 6.856-2.843v3.862q-6.03 3.246-12.061 5.072V33.146zM310.112 31.58v27.648c.547 8.328-3.541 14.603-12.26 18.836v-3.686c5.041-4.09 7.429-8.802 7.155-14.129V31.58zm-20.746 1.368v39.017q.404 6.269-6.263 5.87h-3.441v-3.441h2.428c2.159.137 3.165-.743 3.034-2.63V36.803h-19.21v25.69c.407 7.283-2.092 12.474-7.48 15.573v-3.642c2.289-2.29 3.365-5.726 3.237-10.317V32.949zm234.95 11.133c-1.127 3.495-2.799 6.385-5.038 8.668v25.198h-5.244v-21.37c-1.81.806-3.913 1.551-6.287 2.22v-3.024c5.454-2.022 9.087-5.913 10.904-11.692zm-264.87-11.329v3.85c-1.624.534-3.103.807-4.452.807v6.833h5.057v3.442h-5.057c.8 4.207 2.429 7.662 4.853 11.567v4.855a36.6 36.6 0 0 1-4.853-7.077v20.835h-4.851V59.25q-1.624 4.25-6.067 10.118v-4.655c2.428-4.447 4.881-10.052 6.067-17.029h-5.463v-3.442h5.463V37.61h-5.056v-3.642h7.28c2.428 0 4.786-.408 7.079-1.216m81.114-1.172v46.282h-5.105V31.58zm129.47 13.937v3.246h-4.776v7.72h5.822v3.46h-5.822v11.624a38.7 38.7 0 0 0 5.822-2.839v3.855c-3.61 2.164-7.207 3.855-10.81 5.073V59.942h-5.822v-3.46h5.822v-7.72h-4.576v-3.245zM159.005 31.581v6.523h4.61v3.45h-4.61v10.868a51 51 0 0 0 2.306-.61 197 197 0 0 1 2.304-.607v3.252q-2.514 1.217-4.61 1.82v16.106c0 3.514-1.889 5.273-5.658 5.273h-3.78V74.41h2.096c1.684 0 2.446-.679 2.303-2.027v-14.48q-2.626.47-5.236 1.017v-4.463c1.765-.128 3.517-.4 5.237-.815V41.554h-5.029v-3.45h5.029V31.58zm328.702 26.59q1.447 4.468 3.323 7.305c2.914-1.625 4.917-4.054 6.028-7.306h4.782c-1.524 4.605-4.51 7.916-8.934 9.95 2.208 2.3 5.47 4.398 9.763 6.291v3.246c-10.533-3.11-17.181-9.601-19.95-19.487zm-340.861-.81c-.708 8.253-2.031 14.886-3.988 19.89h-5.032c2.52-5.95 4.126-12.583 4.825-19.89zM325.438 32.4v44.027h-5.105V32.4zM202.832 56.124c-.687 8.357-2.492 13.994-5.049 19.597h-5.66c3.429-6.438 5.013-10.661 6.066-19.597zM421.627 30.41v40.27h7.759V30.41h5.444v40.27h15.105v3.87h-48.437v-3.87h14.671V30.41zm-185.042 3.285v3.894h-12.124v31.798h14.146v3.88h-34.154v-3.88h14.148v-31.8h-11.726v-3.894zm133.601 16.379c-1.617 3.894-4.109 6.634-7.476 8.247h18.185c-3.367-1.613-5.86-4.353-7.476-8.247h5.054c1.347 3.087 3.903 5.429 7.682 7.04v3.213a384 384 0 0 0-4.85-1.809v7.238c.131 4.152-1.82 6.168-5.859 6.03h-12.94V58.518c-1.347.54-3.034 1.143-5.049 1.81v-3.215c3.766-1.61 6.328-3.952 7.673-7.039zm-88.3 7.357v7.89c.135 4.183-1.755 6.204-5.658 6.069h-7.28V57.43zm95.17 4.105h-10.103v7.036h7.276c2.023 0 2.964-.934 2.827-2.815zm-98.605-.864h-5.862v7.484h3.034c1.881 0 2.828-.874 2.828-2.63zm129.753-23.307c.697 7.907 1.88 15.522 3.837 22.198h-4.825c-2.096-5.996-3.412-13.611-4.256-22.198zm40.058 0c-.985 8.587-2.297 16.202-4.253 22.198h-4.818c2.092-7.498 3.262-15.113 3.826-22.198zM316.055 43.23c1.359 5.32 2.16 8.904 2.846 12.996h-4.084c-.279-4.502-.808-8.082-2.031-12.996zm14.922 0c1.489 4.641 2.365 8.225 3.046 12.996h-4.086c-.411-4.771-1.006-8.355-2.236-12.996zm-28.233-.055c-.713 5.393-1.278 8.83-2.234 13.052h-4.09c1.636-5.184 2.658-8.466 3.055-13.052zm-25.099-4.353v4.307h5.027v3.453h-5.027V51h6.063v3.7h-16.382V51h6.067v-4.418h-5.056V43.13h5.056v-4.307zm-134.16 5.197c1.539 3.098 2.652 7.379 3.361 9.903h-4.617c-.841-2.985-1.882-7.258-3.145-9.903zm350.871 2.123h-15.38v6.344h12.054c2.358.136 3.46-.946 3.325-3.247zm-296.333-3.885c2.019 3.828 2.746 5.785 4.086 9.465l-5.06.007c-1.006-2.735-1.935-4.827-4.079-9.472zM524.316 31.58c-2.236 7.529-7.764 12.432-16.569 14.716v-3.224c5.586-2.014 9.227-5.85 10.904-11.492zm-145.238 6.566h-14.352c-.036 2.487 1.016 5.769 1.821 7.102h10.915c.941-2.009 1.991-5.369 1.616-7.103zm85.971-6.566c-.146 1.762-.557 3.318-1.247 4.67h7.479v3.447h-9.353c-1.808 2.035-4.364 3.59-7.696 4.67v-2.835c3.471-2.306 5.477-5.618 6.034-9.952zm29.306 5.021h-15.379v6.089h15.38zm-351.29-4.21c1.263 2.525 2.311 6.315 3.152 9.414h-4.614c-.559-2.756-1.612-6.541-3.147-9.414h4.61zm54.918-1.982c1.751 2.742 2.974 4.58 4.05 8.678h-5.049c-.943-3.548-2.169-5.393-4.048-8.678zm355.684 3.802v3.63h-25.374v-3.63z" fill="#595757"/></svg>