<svg width="128" height="128" fill="none" xmlns="http://www.w3.org/2000/svg"><path d="M40.703 62.317c11.1-5.25 18.65-13.15 23.65-24.8 3.15 4.7 3.65 8.95 10.4 15.7 1.8 1.8 4.7 4.1 7.3 5.8 1.6 1.05 7.6 3.85 8.4 4.55-1.3.85-3 1.35-4.35 2.05-4.6 2.4-7.65 4.9-11.2 8.45-8.3 8.3-5.8 8.2-10.45 15.45-3.95-6.4-3.25-8.5-10.5-15.7-7.35-7.3-10.9-7.1-15.5-10.25zm22.5-41.1c-5.4 1.7-6.7 7.6-11.65 9.9-5.4 2.55-15-2-17.95 3.35-2.75 5 1.85 11.7-2.6 17.9-2.1 2.9-10.4 7.25-8.8 12.8 1.3 4.35 8 6.8 10 11.4 2.25 5.1-1.65 14.85 2.8 17.65 4.95 3.1 12.9-1.2 18 2.5 3.9 2.85 7.05 10.25 12.65 9.2 3.8-.7 7.7-7.9 11.5-9.95 5.05-2.7 14.1 1.65 17.7-2.75 3.5-4.25-1.3-13 2.95-18.4 3.35-4.25 10.1-7.45 9.05-12.4-.85-4.05-7.8-7.65-9.9-11.5-2.95-5.35 1.8-15.05-3.2-18.15-4.95-3.1-12.9 1.8-18.35-2.95-3.9-3.45-7.4-10.1-12.2-8.6" fill="#735222"/></svg>