<svg width="603" height="128" fill="none" xmlns="http://www.w3.org/2000/svg"><path fill-rule="evenodd" clip-rule="evenodd" d="M284.526 32.752V14c2.463 0 4.922 1.77 7.948 5.31 6.554 7.676 7.972 8.26 18.033 7.472 9.283-.733 11.969 1.951 11.238 11.236-.792 10.063-.205 11.481 7.47 18.035 7.083 6.05 7.083 9.842 0 15.89-7.675 6.56-8.262 7.976-7.47 18.039.731 9.284-1.955 11.967-11.238 11.238-10.061-.792-11.479-.207-18.033 7.469-3.026 3.542-5.485 5.311-7.948 5.311V95.247C289.952 80.89 301.423 69.425 315.782 64c-14.359-5.426-25.83-16.892-31.256-31.25m0 62.5c-5.424-14.36-16.893-25.825-31.252-31.251 14.359-5.426 25.828-16.892 31.252-31.253v.004V14c-2.461 0-4.921 1.77-7.946 5.31-6.554 7.676-7.973 8.265-18.038 7.472-9.281-.733-11.967 1.951-11.233 11.236.792 10.063.205 11.481-7.471 18.035-7.083 6.052-7.083 9.842 0 15.89 7.676 6.56 8.263 7.974 7.473 18.039-.736 9.284 1.95 11.967 11.231 11.238 10.065-.792 11.484-.207 18.038 7.469 3.025 3.542 5.485 5.311 7.946 5.311V95.247z" fill="#745228"/><path fill-rule="evenodd" clip-rule="evenodd" d="M560.662 103.305c5.518 0 9.32-3.665 9.32-9.65 0-5.983-3.802-9.5-9.32-9.5v3.168c3.097 0 5.067 2.368 5.067 6.332 0 3.939-1.97 6.46-5.067 6.46zm20.106 0c5.097 0 8.054-2.52 8.054-8.653v-10.15h-3.997v10.475c0 3.84-1.579 5.138-4.057 5.138-2.448 0-3.94-1.297-3.94-5.138V84.503h-4.167v10.149c0 6.133 3.039 8.653 8.107 8.653m-20.106-19.15v3.168c-3.099 0-5.069 2.368-5.069 6.332 0 3.939 1.97 6.46 5.069 6.46v3.19c-5.521 0-9.322-3.665-9.322-9.65 0-6.01 3.801-9.5 9.322-9.5m-57.903 14.063h3.379l1.462 4.738h4.363l-6.699-18.453h-2.505v2.796h.027c.62 1.992 1.182 4.111 1.829 6.033l.621 2.02h-2.477zm11.717 4.738h14.921v-3.092H519.6l9.685-13.165v-2.196h-13.879v3.067h8.785l-9.715 13.166zm17.884 0h4.168v-7.98h7.88v7.98h4.141V84.503h-4.141v7.257h-7.88v-7.257h-4.168zm-29.601-18.453v2.796h-.086a121 121 0 0 1-1.774 6.033l-.618 2.02h2.478v2.866h-3.381l-1.464 4.738h-4.222l6.675-18.453zm-17.462 18.329c4.964-.63 8.05-3.683 8.05-9.177 0-5.46-3.022-8.378-8.05-9.016v3.108c2.39.664 3.801 2.466 3.801 5.907 0 3.424-1.411 5.31-3.801 6.011zm0-18.193v3.108c-.745-.205-1.586-.302-2.507-.302h-1.293v12.544h1.293c.921 0 1.762-.105 2.507-.324v3.167c-.644.084-1.323.124-2.028.124h-5.94V84.503h5.717c.785 0 1.538.046 2.251.136m-41.5 18.666c5.518 0 9.319-3.665 9.319-9.65 0-5.983-3.801-9.5-9.319-9.5v3.168c3.098 0 5.067 2.368 5.067 6.332 0 3.939-1.969 6.46-5.067 6.46zm12.392-.349h4.17v-7.483h7.403v-3.087h-7.403V87.57h8.67v-3.067h-12.84zm-12.392-18.801v3.168c-3.095 0-5.07 2.368-5.07 6.332 0 3.939 1.975 6.46 5.07 6.46v3.19c-5.518 0-9.318-3.665-9.318-9.65 0-6.01 3.8-9.5 9.318-9.5m-62.704 14.063h3.376l1.467 4.738h4.361l-6.702-18.453h-2.502v2.796h.024c.62 1.992 1.185 4.111 1.83 6.033l.621 2.02h-2.475zm11.21 4.738h3.939V95.55c0-2.12-.306-4.438-.506-6.434h.141l2.111 3.965 6.027 9.875h4.222V84.503h-3.941v7.358c0 2.094.309 4.538.534 6.459h-.14l-2.084-3.992-6.05-9.825h-4.253zm19.236 0h4.166v-5.187l2.732-3.093 5.374 8.28h4.59l-7.487-11.196 6.36-7.257h-4.586l-6.901 8.008h-.082v-8.008h-4.166zm-48.572 0v-2.844c2.711-.046 4.179-.945 4.179-2.814 0-1.753-1.444-2.508-4.179-2.544v-2.769c2.159-.152 3.111-1.057 3.111-2.395 0-1.476-1.03-2.147-3.111-2.252v-2.83c4.09.066 7.166 1.196 7.166 4.534 0 1.695-1.071 3.44-2.842 3.99v.125c2.25.473 3.911 1.87 3.911 4.363 0 3.716-3.491 5.436-8.079 5.436zm18.126-18.453v2.796h-.086a121 121 0 0 1-1.774 6.033l-.617 2.02h2.477v2.866h-3.383l-1.463 4.738h-4.224l6.675-18.453zm-25.403 18.453h7.277v-2.844l-.21.003h-2.901v-5.363h2.901l.21.002v-2.769q-.326.024-.688.025h-2.423v-4.687h2.479q.33 0 .632.015v-2.83l-.379-.005h-6.898zm54.316-28.849h-33.638c-4.217 0-6.996-1.754-8.785-3.714-1.411 2.38-4.085 3.714-7.732 3.714h-4.159v-3.782c3.039 0 5.212-.67 5.212-4.069V46.638h-5.212v-5.155h13.016v24.309c1.344 1.067 3.724 2.242 7.66 2.242h33.638z" fill="#4c4949"/><path fill-rule="evenodd" clip-rule="evenodd" d="M371.272 41.482h13.623c-1.514 10.282-5.554 15.084-13.107 20.089l-.026.023 3.279 3.837c7.515-3.53 12.599-7.949 15.661-14.546 5.413 9.457 12.915 14.546 12.915 14.546l5.377-6.54c-7.553-4.84-12.2-10.09-15.468-16.881l.051-.528h15.905V36.33h-15.299c.138-1.941.204-4.675.204-6.857v-4.777h-8.779v4.778c0 2.216-.057 4.946-.172 6.856h-14.164zm-10.368-5.154c-.857-3.263-2.311-6.48-4.365-10.482h7.404c1.809 3.088 3.4 6.33 4.757 10.482zm71.367-11.632v39.333c0 8.121-6.49 10.078-12.344 10.078v-3.783c2.978 0 5.488-2.681 5.488-6.295V24.696zm4.37 29.837a225 225 0 0 0-2.569-18.203h4.806c1.556 6.421 2.642 12.49 3.269 18.203zm-21.657 0c1.556-4.748 2.72-10.811 3.499-18.203h4.894q-.938 10.02-2.568 18.203zm28.312 19.575h7.249V24.697h-7.249zm18.231-.002h7.249v-49.41h-7.249zm-6.655-19.573a226 226 0 0 0-2.571-18.203h4.807c1.557 6.421 2.641 12.49 3.27 18.203zm22.671-19.023a18 18 0 0 0 3.476-1.795l.03-.021h12.724v-5.29h-8.412l.054-.16a85 85 0 0 0 1.13-3.548h-6.784a9.37 9.37 0 0 1-1.978 4.728c-1.025 1.275-2.395 2.26-4.03 2.729v4.53c1.349-.333 2.606-.706 3.79-1.172m9.735 29.266V54.533h6.495v-5.135h-6.495v-5.369h6.495v-5.136h-18.59v5.136h4.816v5.369h-4.816v5.135h4.816v10.244zm39.269-38.932-.002 26.122h-13.861l.107.18a54 54 0 0 0 2.791 4.352 48 48 0 0 0 3.311 4.151l.089.1.089-.1a16 16 0 0 0 1.713-2.293c.498-.8.943-1.669 1.355-2.602h6.555c-.6 1.656-1.41 3.2-2.4 4.595a18.6 18.6 0 0 1-3.637 3.847l-.115.09.108.094q1.449 1.275 3.057 2.446a44 44 0 0 0 3.268 2.16l-5.142 5.12c-.775-.478-7.105-4.514-12.389-12.074v-15.22h7.806v-5.33h-7.806v-5.155h7.806v-5.33h-7.806v-5.154zm-15.103 0h-15.105v48.18c3.251 0 10.444-1.393 13.776-3.315v-5.278c-1.787.702-5.712 1.318-6.476 1.318V51.967h2.624l.028.08c1.337 3.823 3.173 7.151 5.153 9.986v-15.22h-7.805v-5.33h7.805v-5.155h-7.805v-5.33h7.805z" fill="#4c4949"/><path fill-rule="evenodd" clip-rule="evenodd" d="M479.999 74.024c3.25 0 10.441-1.392 13.774-3.315v-5.277c-1.786.7-5.712 1.318-6.478 1.318V39.075h-7.296z" fill="#4c4949"/><path fill-rule="evenodd" clip-rule="evenodd" d="M479.999 74.024c3.25 0 10.441-1.392 13.774-3.315v-5.277c-1.786.7-5.712 1.318-6.478 1.318v-4.532h-7.296zm74.809-27.019h17.007V66.1c0 .974-.147 2.029-.858 2.845-.706.812-1.966 1.379-4.184 1.379h-4.862v3.783h9.693c2.671 0 4.81-.894 6.298-2.4 1.551-1.576 2.397-3.011 2.397-5.607V47.005h8.521v-5.523h-34.012zm1.6-16.007h30.548v-5.153h-30.548zm-22.456 5.115v5.37c7.639-1.521 15.479-9.008 18.29-16.787h-8.156c-1.316 3.438-6.86 10.308-10.134 11.417m7.895 37.995h7.156V46.003h-7.156z" fill="#4c4949"/><path fill-rule="evenodd" clip-rule="evenodd" d="M533.952 51.967v5.37c7.333-1.46 14.85-8.418 17.927-15.854h-8.209c-1.815 3.615-6.72 9.468-9.718 10.484" fill="#4c4949"/><path fill-rule="evenodd" clip-rule="evenodd" d="M38.795 36.328v9.705h3.159a10.8 10.8 0 0 1 6.052 1.84q.899.6 1.659 1.363c.514.513.972 1.074 1.368 1.663.393.59.733 1.222 1.01 1.889.27.649.48 1.332.621 2.04q.206 1.03.207 2.124V71.05a10.8 10.8 0 0 1-.827 4.165 10.9 10.9 0 0 1-2.374 3.543 10.93 10.93 0 0 1-5.592 3c-.687.137-1.396.21-2.124.21h-3.159v9.703h3.984c1.384 0 2.736-.135 4.05-.396a21 21 0 0 0 3.886-1.183 21 21 0 0 0 3.595-1.932 21.3 21.3 0 0 0 3.164-2.6c.958-.96 1.834-2.02 2.6-3.166a20.8 20.8 0 0 0 3.117-7.48c.261-1.313.4-2.667.4-4.052V57.138c0-1.384-.139-2.739-.4-4.05a20.8 20.8 0 0 0-3.116-7.48 21 21 0 0 0-2.599-3.168 21 21 0 0 0-6.761-4.53 20.6 20.6 0 0 0-7.936-1.582zm-24.795 0h24.795v9.705h-14.08v35.936h14.08v9.702H14z" fill="#745228"/><path fill-rule="evenodd" clip-rule="evenodd" d="M89.983 36.328h23.166v9.705H90.806a10.85 10.85 0 0 0-6.05 1.84 11 11 0 0 0-4.038 4.915 10.9 10.9 0 0 0-.828 4.164V71.05a10.8 10.8 0 0 0 .828 4.165 11.04 11.04 0 0 0 4.038 4.912 11 11 0 0 0 3.93 1.631c.684.137 1.394.21 2.12.21h22.343v9.703H89.983a20.7 20.7 0 0 1-4.048-.396 20.7 20.7 0 0 1-3.886-1.183 21 21 0 0 1-3.596-1.932 21 21 0 0 1-3.164-2.6 21.3 21.3 0 0 1-2.602-3.166 21 21 0 0 1-1.93-3.596 20.5 20.5 0 0 1-1.183-3.885 20.7 20.7 0 0 1-.4-4.05V57.137a20.5 20.5 0 0 1 1.582-7.936 21 21 0 0 1 1.93-3.595 21 21 0 0 1 2.601-3.167 21.3 21.3 0 0 1 3.166-2.6 21 21 0 0 1 3.596-1.93 20.5 20.5 0 0 1 3.886-1.183 20.6 20.6 0 0 1 4.048-.4m47.502.002h23.166v9.705H138.31a10.9 10.9 0 0 0-7.711 3.203 11 11 0 0 0-1.367 1.663 10.8 10.8 0 0 0-1.631 3.93 11 11 0 0 0-.209 2.123V71.05c0 .726.071 1.439.207 2.124a10.9 10.9 0 0 0 1.633 3.926q.6.898 1.364 1.659a11 11 0 0 0 1.662 1.368c.588.393 1.221.733 1.888 1.01a10.9 10.9 0 0 0 4.164.831h22.341v9.703h-23.166a20.7 20.7 0 0 1-4.047-.396 21 21 0 0 1-3.889-1.183 21 21 0 0 1-3.594-1.932 21.1 21.1 0 0 1-5.766-5.766 21 21 0 0 1-1.93-3.596 20.6 20.6 0 0 1-1.582-7.936V57.138a20.7 20.7 0 0 1 1.582-7.936 21 21 0 0 1 11.29-11.292 20.6 20.6 0 0 1 3.889-1.183c1.309-.263 2.664-.4 4.047-.4m52.241 22.783v9.705h5.377c10.05 0 10.125 13.152 0 13.152h-5.377v9.706h5.802c6.101 0 10.594-1.22 13.484-3.676 2.904-2.44 4.346-6.255 4.346-11.422 0-3.093-.654-5.65-1.973-7.706-1.311-2.043-3.336-3.663-6.091-4.869 2.717-1.45 4.72-3.264 6.003-5.407 1.271-2.148 1.913-4.754 1.913-7.85 0-2.583-.506-4.895-1.531-6.925-1.025-2.029-2.518-3.686-4.47-4.97-1.332-.875-3.075-1.517-5.235-1.915-2.148-.397-4.953-.604-8.41-.604h-3.838v9.705h5.191c10.137 0 10.086 13.076 0 13.076zm-12.775-13.076V59.11h12.775v9.705h-12.775v13.152h12.775v9.706h-23.49V36.33h23.49v9.705z" fill="#4c4949"/></svg>