<svg width="351" height="128" fill="none" xmlns="http://www.w3.org/2000/svg"><path d="M63.796 14C36.449 14 14 36.131 14 64s22.449 50 49.796 50S114 91.869 114 64 91.55 14 63.796 14M89.51 59.902c0 .82-.408 1.639-1.225 2.049-.816.41-1.632.41-2.448.41-.817 1.229-3.674 1.229-2.858 3.278 0 .82 1.225 2.05 2.041 2.459 1.225.41 2.857 0 3.674.41.408 2.459.408 5.328-.817 7.377-1.632.82-2.449 2.869-4.49 2.459-.816.41-2.04 1.23-2.448 2.05 0 2.049 2.04 1.229 3.265 2.458 1.225 0 2.45-.82 3.674 0 2.04 2.05.407 4.918.407 7.377l-1.632 2.05c-1.225.41-2.857.819-4.49 1.229v.41h-2.04c0-.82-1.225-.41-1.633-.82-1.225.82-2.45-.41-3.674-.41-6.122.82-10.204-2.868-16.326-2.049-2.041-1.64-5.306-1.23-8.163-1.23-2.858 2.05-6.123 2.46-9.388 2.87-1.633.41-2.45-2.05-3.674-2.46 0-1.639-2.449-2.868-1.224-4.918 1.632-1.639 1.224-4.098 2.857-6.147 0-2.05.408-4.099-1.225-5.328.409-2.459.409-5.328 1.225-7.787.816-.82 1.633-2.869 3.265-1.639 1.633 2.869 6.94-.41 7.347 3.688 0 3.279-.408 6.558-3.265 8.197-1.633 2.459-5.714-.82-6.123 2.869-.408 1.64 1.225 2.459 2.45 3.279 1.632-.82 3.673-.82 4.897-2.46 2.041 0 2.857-2.458 4.898-2.458 1.633.82 3.266.82 4.49 2.459.816.41 1.225.82 2.04 1.229 2.042 1.64 4.899-1.23 6.94 1.64q1.837.615 3.673 0c.816-.41 1.633-1.64 1.224-2.46 0-.82 0-1.229-.816-1.639s-1.224 0-2.04 0c-2.858.41-4.898-1.23-7.347-1.64-1.633-1.229-4.082-2.458-4.49-4.917-.817-.82-.408-2.05-1.225-2.87 0-1.228.817-1.638 1.633-2.458 2.04-.82 3.673 1.23 5.714.41 1.225-.82 2.857-.41 3.674-2.05.816-.819.408-2.458-.409-3.278-.408-.41-1.224-.41-1.632 0-1.225 1.23-3.265 1.23-4.898.82-.816-.41-2.041-.82-2.45-1.64.409-1.64 0-3.278 1.634-4.508 0-1.23-.817-2.05-1.633-2.459-2.041.82-3.674-4.098-5.306-.82 0 2.46.816 4.099.408 6.558-2.04 1.23-4.49 0-6.53 0-2.041-1.23-4.899-2.46-6.123-4.918.408-2.05-.816-3.689 0-5.738-1.225-2.459 1.224-4.098 1.224-6.148 1.225-1.229 2.45-2.458 4.082-1.639 1.224.82 2.45.82 3.265 2.459 1.633.41 3.266 1.64 5.307 1.23 1.632-.41 2.04-2.46 3.673-2.46 2.449 0 6.122 1.23 7.755-1.639.816-.41 2.04-.82 2.45-1.639h4.489c.408 1.23 1.632 2.05 2.449 2.459 4.49.82 9.388 1.64 14.285 1.23.817.41 1.633.41 2.041 1.229 0 2.869-.408 6.147-3.673 7.787-2.041.82-6.123-1.23-6.123 2.05 2.041 2.868 6.53.819 8.98 2.458 1.224.82 0 2.459.408 3.689" fill="#c7000c"/><path d="M243.004 28.062c.523-.42 1.971-.781 3.296 0 1.326.781 6.068 2.064 6.186 3.24.119 1.178-2.062 2.405-2.283 2.548a54 54 0 0 1-2.2 3.886h3.319c.493-.574 2.995-3.043 3.198-3.223.202-.181.889.036 1.6.745l1.296 1.306.028.028c.47.32.848.602 1.15.859v-4.179c-.165-.374-.347-.761-.347-1.137 0-.25.592-1.417.989-1.58.565-.235.958.079 1.307.414.232.107 4.384 2.003 4.727 2.162h8.61c.917-.706 1.817-2.306 2.642-2.306l.282.05 2.843.944.06.03c1.979.993 3.281 1.65 3.281 3.17 0 .973-.771 1.294-1.283 1.508 0 0-.069.03-.092.042l-.002 9.914v.43l.46 5.157c0 .595-.348.95-.767 1.174-.054.079-.049.216-.122.28.412.2.821.398 1.303.656 0 0 1.263.667 1.275.676.611.247 2.387.96 2.387 2.207 0 .085-.004.173-.023.258-.047.244-1.797.48-4.611 1.6q-1.337.534-4.632 2.344s-.635.254-1.256.506c.748 1.343 2.763 4.674 4.789 5.903q2.027 1.229 5.205 2.399a1.41 1.41 0 0 1 1.036 1.354v.4q-2.895 1.139-4.214 2.124-1.32.987-2.974 3.72l-.627-.311c-.041-.022-3.685-1.9-5.182-4.692-1.496-2.792-2.04-4.439-2.142-5.45-.005-.019-.153-.312-.268-.544q-.975 1.078-5.508 6.361c-.169.172-.402 1.143-1.391 2.041q-.678.615-2.956 1.923c-.599 0-1.275-.323-1.383-1.588-.086-.19-2.337-4.312-2.337-5.16s.845-1.832.921-1.923v-3.827l-.153.2-4.838 5.498s-2.352 2.634-2.469 2.763l-.003.003-2.067 2.496q-.296.36-.574.734a.78.78 0 0 1-.606.314l-.413.01a.82.82 0 0 1-.837-.73 5.3 5.3 0 0 0-.334-1.377c-.374-.947-1.78-4.376-2.17-4.65s-.664-.657-.664-1.101c0-.445 1.172-1.759 1.375-2.08V56.264q-2.14-.02-2.609 0c-.468.02-2.708.543-2.708.543s-1.432-.762-1.738-1.75c-.306-.987-.37-1.673.684-1.654q1.053.02 6.371 0V48.43h-.775c-.169.037-2.705.547-2.705.547l-1.058-1.065c-.088.092-1.157 1.166-1.157 1.166-.619.608-1.166.511-1.432.398-.157-.068-.668-.343-.668-1.094q3.455-7.116 4.315-9.677c1.855-5.522 1.643-8.756 1.643-8.756q-.522-1.465 0-1.887m57.33.39c.36 0 1.162.461 2.437 2.103.933 1.201 4.752 3.427 4.912 3.536q.159.108.159.725c-.159.675-1.054 1.567-2.033 1.567h-1.138q-.73.375-4.136 2.674h.255l1.425.586q2.482 1.118 3.332 1.778c1.859 1.444 2.592 2.883 2.592 3.215s0 .387-.285.685c-.284.298-1.274.697-2.037.715-.682.762-1.724 2.209-2.256 2.978l.008 18.323v.734l.46 5.615v.004c-.003.087-.055 1.564-.46 1.77-.417.213-4.003 1.04-5.064 1.04s-2.33-1.467-2.33-1.893V54.88c-1.808 1.385-3.59 2.593-5.351 3.475-1.76.883-2.037 1.624-2.684 1.354-.634-.266-.634-.925-.634-1.237v-.756q5.41-5.954 7.037-8.239 2.9-4.077 4.825-9.49l.057-.182-.84.567c-2.818 1.896-5.179 2.852-7.408 3.75l-1.357.685a1.56 1.56 0 0 1-1.356.023l-.368-.169a1.24 1.24 0 0 1-.684-.83 1.24 1.24 0 0 1 .225-1.053q.133-.171.294-.328s6.317-5.56 8.244-7.936q1.667-2.058 2.774-5.091a1.475 1.475 0 0 1 1.385-.97m28.632 13.282c.792 0 1.939.628 2.509 1.212l2.83 2.535s.826.708.83.708c.705.71.738 1.47.738 1.616 0 .896-.722 1.435-1.42 1.435h-6.351l-.099.156s-.18.27-.358.531v20.247c.004 1.163.052 1.513-.251 2.494-.314 1.018-2.337 1.993-2.763 2.21-.937.477-4.778 1.23-5.261 1.23-.774 0-1.009-.152-1.599-.749-.59-.596.289-1.803 0-2.324-.754-1.355-2.541-1.904-2.888-2.084-.223-.057-.571-.402-1.458-.402-.886 0-1.552-.649-1.42-1.435s1.227-1.592 2.878-1.44a53 53 0 0 1 3.573.462q.73.123.914-.065c.434-.44.407-1.273.407-1.273V49.24h-11.12a1.95 1.95 0 0 1-1.388-.58l-.435-.44a1.3 1.3 0 0 1-.244-1.483 1.146 1.146 0 0 1 1.299-.608l.74.183q.23.057.468.057h16.138c.471-.334 1.309-1.16 2.41-2.664.401-.548.528-1.972 1.321-1.972m-134.213 3.602c1.147 0 1.906 1.843 2.861 2.274.956.43 2.211-.028 2.211.43 0 .459.458 2.052-.461 2.51v15.14s3.809 3.674 16.332 3.713q12.523.038 15.109-.75c.456 0 .456 0 .919.461v1.823q-1.533.424-2.054 1.731-.52 1.309 0 3.104h-2.294c-.916 0-21.016.508-22.393-.413-1.376-.92-6.033-5.5-6.95-5.956-.918-.457-1.881-.962-2.798-.5s-1.956 2.295-3.333 5.049q-.877.46-1.713.46-.835 0-3.949-6.428 0-.915.456-.915h2.576c1.012-.002 2.145-.057 4.007-1.379V50.995h-5.386v-2.28q3.214.206 3.672-.253c.458-.459 2.041-3.126 3.188-3.126m-41.117-16.493q8.037.637 8.597 1.207 1.194.783 1.194 1.604c0 .92-.779 1.588-1.834 2.33-.004 1.55-.986 5.818 0 10.427h10.369c.392-.64 2.589-4.609 4.167-4.609s5.972 5.178 5.972 6.04q-.87 1.43-1.419 1.43h-18.531c.049.29 3.513 7.93 6.662 11.507s11.14 8.337 12.378 8.449c1.239.112 1.558.789 1.558 1.388q-.244.893-.898 1.305c-.654.41-2.436.515-3.847 1.673q-1.227 1.007-2.624 3.276a.78.78 0 0 1-1.114.23l-.239-.169q-6.4-4.54-9.142-8.753c-2.936-4.514-4.263-10.034-4.725-11.916 0 0-.129-.633-.204-1.017l-.199 1.062c-.456 1.84-.926 3.742-1.863 6.116-.853 2.16-2.152 4.135-3.855 5.86-2.19 2.215-4.571 3.981-7.08 5.254-2.568 1.3-9.766 3.79-9.766 3.79h-.229c-1.546 0-1.871-.773-1.871-1.426v-.406q10.111-4.179 13.807-10.603c3.697-6.424 4.736-12.47 4.736-14.743v-.876l-16.811.013a.78.78 0 0 1-.764-.617.8.8 0 0 1 .005-.35l.411-1.668a.78.78 0 0 1 .872-.586l2.348.346h14.394q0-9.43-.455-11.83zm56.479.39q.46-.593 2.359-.203c.617.126 1.512 1.072 2.303 1.349.832.29 3.294.198 3.817 1.327.523 1.128-2.489 4.247-2.898 5.34h7.625c1.959-3.107 2.315-3.514 3.217-3.514 1.422 0 7.382 6.454 3.652 6.839h-15.413c.312.091-.12 2.422 1.503 2.436q.639.006 4.78.001a.78.78 0 0 1 .782.781v.876a.78.78 0 0 1-.386.674l-2.043 1.198v3.059l4.371-.107c.242-.257 2.016-3.148 3.592-2.376q1.166.572 2.523 5.073a.783.783 0 0 1-.748 1.007h-9.738v4.348h5.344c.819-.278 1.253-.681 1.781-1.095.672-.527.953-1.276 1.707-1.276.196 0 1.628.522 2.777 1.941q.677.836.702 3.344l-12.311.087v6.727h-5.767l-.017-6.727h-10.764a.78.78 0 0 1-.759-.6l-.373-1.563a.77.77 0 0 1 .15-.669.78.78 0 0 1 .619-.293l11.127.124.03-4.349h-4.349c-.164.17-1.768.576-2.485.75-1.836.448-4.646-4.265-4.611-5.36.034-1.095.538-.25 1.938-1.648s3.129-4.568 3.821-6.363h-4.779l-.98-3.324h7.096q.355-1.4.804-7.813zm58.234 23.805h-2.778v12.346c1.445-.585 3.61-1.451 4.66-1.874-.465-1.146-1.775-9.632-1.882-10.472m-9.755 3.227h-6.779v7.98c1.592-.89 6.558-3.467 6.558-3.467h.221zm15.705-3.227h-2.837c.049.279 1.971 5.391 2.101 5.661 1.279-1.314 3.318-4.217 3.379-4.277-1.15-.002-2.361-.09-2.643-1.384m-15.705-12.44H246.3c-.516.706-3.358 4.643-3.599 4.971h6.834c.278-.28 3.116-2.762 3.606-2.762h.462l.4.014 2.009 1.933c1.261 1.188 1.838 1.727 1.853 2.483l-.409 1.193-5.641.032v4.296c1.733-.688 1.279-2.2 1.733-2.578s.594-.22.972 0c.376.22 3.753 2.668 4.074 2.951zm15.587 3.684h-8.61v5.898h8.61zm-63.606 2.055a703 703 0 0 0-1.264 2.952h4.335q.004-.34 0-2.92zm-13.043-12.954c2.027 1.911 2.534 4.613 2.006 5.771s-1.607 2.724-4.171 2.193c-2.564-.53-3.186-2.574-3.186-4.086s.184-1.843 0-2.777c-.185-.934-.866-1.393-1.138-1.65-.704-.67-2.321-1.496-1.34-1.628 3.112-.254 5.802.267 7.829 2.177m76.649 2.606h-8.61v5.432h8.61zm51.792-6.755q1.4.228 1.91.642.509.413 3.743 3.95c.585.615.732.86.732 1.665v1.005l-19.175-.016c-.414 0-.825.073-1.214.215l-.185.068a1.25 1.25 0 0 1-1.337-.315l-.504-.533a1.45 1.45 0 0 1-.295-1.526 1.36 1.36 0 0 1 1.258-.856h11.044q1.12-1.184 2.681-3.386c.172-.297.534-.913 1.342-.913" fill="#0a0000"/><path d="M139.482 87.802q1.957 0 3.055.11t1.668.344q1.25.53 1.906 1.395.655.866.655 1.986.001 1.325-.928 2.31-.924.983-2.584 1.388 2.066.343 3.23 1.5 1.167 1.155 1.167 2.828 0 1.091-.543 1.994-.542.903-1.552 1.491-.632.353-1.632.526-.997.17-2.556.17h-7.056l.013-.973q1.251-.057 1.664-.451.413-.391.413-1.507V90.745q0-1.121-.419-1.516-.419-.391-1.658-.456l-.013-.971zm17.007 0 5.187 13.569c.191.474.462.83.81 1.077q.521.366 1.389.451v.945h-7.386l.013-.945q1.044-.06 1.393-.256.348-.196.349-.673 0-.085-.043-.259a5 5 0 0 0-.114-.39l-1.106-3.202h-4.675l-.911 2.299a4 4 0 0 0-.217.714 3.3 3.3 0 0 0-.072.643q0 .548.33.807.33.256 1.111.317l.012.945h-4.907v-.945q.77-.086 1.34-.568.57-.483.921-1.327l3.967-9.609q.138-.336 1.495-3.593h1.115zm155.022 0 5.186 13.569c.191.474.462.83.81 1.077q.523.366 1.389.451v.945h-7.385l.011-.945q1.046-.06 1.394-.256.35-.196.349-.673 0-.085-.042-.259a6 6 0 0 0-.115-.39l-1.102-3.202h-4.679l-.912 2.299a4.6 4.6 0 0 0-.215.714 3 3 0 0 0-.073.643q.002.548.33.807.33.256 1.111.317l.012.945h-4.906v-.945a2.45 2.45 0 0 0 1.339-.568c.379-.322.689-.764.921-1.327l3.969-9.609 1.465-3.593zm-143.319 0 10.456 10.84v-7.888q.001-1.127-.468-1.536-.468-.41-1.931-.47v-.946h6.012v.946q-1.504.061-1.979.463-.474.406-.472 1.542v13.091h-.767l-11.44-11.99v9.039q-.001 1.104.474 1.516.472.417 1.871.491v.944h-5.64v-.944c.832-.049 1.403-.218 1.704-.508q.457-.434.457-1.499v-9.064q-.001-1.626-.599-2.335-.597-.71-1.984-.746l-.011-.946zm22.943 0-.012.971q-1.34.038-1.779.43-.434.392-.436 1.533v5.08l4.536-4.859q.498-.51.697-.818.2-.311.199-.542 0-.388-.399-.607-.402-.219-1.165-.244v-.944h5.98v.945a4.1 4.1 0 0 0-1.699.49c-.499.281-1.068.763-1.698 1.452l-3.301 3.666 6.151 6.603q.916.96 1.599 1.431.688.476 1.189.51l.011.945h-7.564v-.945q.91 0 1.296-.156.39-.159.39-.511 0-.192-.166-.453-.163-.26-.55-.661l-4.376-4.627-1.13 1.178v3.238q0 1.157.432 1.542.43.386 1.783.422l.012.973h-7.432l.012-.973q1.224-.035 1.661-.453.436-.416.435-1.511V90.736q0-1.092-.429-1.502-.43-.413-1.667-.46l-.012-.972zm24.101-.365q1.581-.001 3.03.529c.965.352 1.861.87 2.647 1.532q1.36 1.155 2.084 2.743a8.2 8.2 0 0 1 .723 3.418q-.002 1.817-.716 3.388a7.7 7.7 0 0 1-2.069 2.71 8.5 8.5 0 0 1-2.639 1.559 8.8 8.8 0 0 1-3.06.528 8.7 8.7 0 0 1-3.041-.528 8.6 8.6 0 0 1-2.635-1.559 7.7 7.7 0 0 1-2.068-2.71 8.05 8.05 0 0 1-.716-3.388q-.001-1.828.731-3.418a8 8 0 0 1 2.076-2.743 8.8 8.8 0 0 1 2.647-1.54 8.7 8.7 0 0 1 3.006-.52m87.077.365v.971q-1.28.026-1.708.43-.433.405-.433 1.533v10.173q0 1.13.437 1.54.436.412 1.704.435v.96h-7.211l.01-.973q1.168-.036 1.574-.439.402-.405.402-1.523V90.735q0-1.114-.411-1.52c-.271-.27-.795-.417-1.564-.442l-.011-.971zm-15.072 0v.971c-.901.017-1.509.161-1.809.428q-.459.405-.459 1.532v9.771q0 1.603.351 1.986.353.382 1.364.381h2.136q1.42 0 2.354-.735.931-.732 2.008-2.83h.835l-.626 4.538H279.6l.011-.973c.827-.024 1.38-.172 1.668-.444q.429-.405.43-1.529V90.734q0-1.116-.438-1.519-.435-.404-1.66-.442l-.011-.97zm-15.385 0 5.186 13.569c.191.474.459.83.81 1.077q.522.366 1.388.451v.945h-7.384l.011-.945q1.045-.06 1.394-.256.347-.196.348-.673.002-.085-.045-.259a4 4 0 0 0-.115-.39l-1.103-3.202h-4.673l-.911 2.299a4.3 4.3 0 0 0-.216.714 3 3 0 0 0-.073.643q0 .548.33.807.329.256 1.109.317l.011.945h-4.907v-.945a2.45 2.45 0 0 0 1.343-.568c.379-.322.689-.764.917-1.327l3.972-9.609q.136-.336 1.487-3.593zm-33.785 0 1.151 3.533-.735.356c-.722-1.194-1.357-1.977-1.893-2.354q-.816-.564-2.114-.564h-2.398q-.662.002-.829.215-.166.217-.166 1.049v5.056h2.664q.993 0 1.512-.473.52-.476.663-1.525h.915v5.374h-.915q-.19-1.303-.694-1.855-.5-.548-1.505-.549h-2.64v4.828q0 1.188.487 1.583.485.397 2.13.396v.972h-7.821l.012-.972q1.188-.037 1.621-.457t.433-1.522v-10.16q.001-1.077-.427-1.494-.428-.42-1.627-.467l-.012-.971zm13.895 0q2.89 0 4.486.342 1.599.344 2.917 1.115 1.947 1.14 2.978 2.83 1.03 1.695 1.03 3.752.001 1.802-.784 3.308c-.52 1.007-1.304 1.907-2.348 2.709a8.6 8.6 0 0 1-3.117 1.526c-1.168.307-2.781.46-4.848.46h-6.208l.014-.973q1.225-.037 1.649-.439.423-.406.425-1.525V90.736q0-1.116-.433-1.52-.427-.405-1.641-.443l-.014-.971zm71.021-.073 10.739 10.859v-7.902q0-1.129-.481-1.538-.48-.412-1.983-.472v-.947h6.175v.947q-1.545.062-2.032.464-.487.407-.488 1.546v13.111h-.786l-11.749-12.009v9.054q-.001 1.106.487 1.518c.32.279.964.443 1.922.493v.944h-5.792v-.944q1.28-.075 1.75-.509.468-.435.469-1.502v-9.079c0-1.087-.202-1.866-.615-2.34q-.615-.71-2.038-.747l-.012-.947zm-181.985 8.203q-.743 0-1.066.25-.32.253-.321.824v3.932q0 1.09.342 1.511c.227.285.622.422 1.189.422q1.701 0 2.511-.843.806-.846.805-2.608.001-1.665-.911-2.578-.91-.91-2.549-.91m112.748-7.159q-1.407 0-1.882.406-.474.404-.474 1.557v10.171q0 1.18.499 1.571c.334.265 1.048.393 2.137.393 1.853 0 3.291-.588 4.299-1.766 1.012-1.18 1.518-2.858 1.518-5.042q-.002-3.35-1.658-5.32t-4.439-1.97m-38.514-.336q-2.255 0-3.56 1.922-1.306 1.924-1.306 5.3 0 3.354 1.31 5.284 1.313 1.927 3.555 1.928 2.256-.001 3.574-1.935t1.317-5.276q0-3.354-1.317-5.288-1.319-1.935-3.573-1.935m-60.561 3.583-1.948 5.127h3.762zm115.367 0-1.948 5.127h3.762zm39.654 0-1.948 5.127h3.764zM141.09 88.773q-.738 0-1.105.389-.37.389-.37 1.151v3.278q0 .727.302 1.048.302.32 1.005.32c.9 0 1.594-.239 2.072-.72q.719-.72.719-2.079 0-1.625-.677-2.504-.675-.884-1.946-.883" fill="#221815"/></svg>