<svg width="128" height="128" fill="none" xmlns="http://www.w3.org/2000/svg"><path d="M93.2 84.8c-19.1 26.35-51.45 7.45-44.1-4.8 2.3-3.85 7.3-5.75 12.15-2.2 11.8 8.6 28.5.5 33.15-13.75 1.75-4.9 2.65-14.5-3.65-23.15l.3-.3c4.95 5.65 8.8 13.5 8.8 23.45 0 6.95-2.05 14.35-6.65 20.75M75.35 64 64.2 75.15 53.05 64 64.2 52.85zm-47.2 0c0-7 2.05-14.4 6.65-20.8 19.1-26.35 51.45-7.45 44.1 4.8-2.3 3.85-7.3 5.75-12.15 2.2-11.8-8.6-28.5-.5-33.15 13.75-1.75 4.9-2.65 14.55 3.75 23.25l-.3.25c-5-5.6-8.9-13.45-8.9-23.45m78.35 0c0-24.2-19.85-42.5-42.5-42.5-23.8 0-42.5 19.2-42.5 42.5 0 24.2 19.85 42.5 42.5 42.5 23.8 0 42.5-19.2 42.5-42.5" fill="#de0112"/></svg>