<svg width="383" height="128" fill="none" xmlns="http://www.w3.org/2000/svg"><path d="m317.723 35.864-.139-.208c-.346-.416-.554-2.356-.554-2.945v-.173c0-.312 0-.52.866-1.386.727-.693 2.077-.97 3.496-.97.762 0 1.523.069 2.215.208l2.354.623c.97.277 1.8.555 2.631.555l.796.034c.831.07 1.004.07 1.212.243.381.312.969.554 1.662.797l1.453.693c.554.346.554.38.762.935l.104.347c.242.589.45.866.692 1.109l.035.069c.034.07.138.139.207.242.104.104.208.243.208.243.346.485.969.9 1.558.9.138 0 .311-.034.45-.103.277-.139.415-.45.415-.832v-.277c0-.208.208-.589.796-1.213.589-.623 1.974-1.386 2.839-1.524l1.246-.416c1.004-.381 2.319-.9 4.189-.9 1.973 0 2.527.207 2.977.38.104.07.207.07.381.139l.276.07a5 5 0 0 0 1.212.138c.346 0 .692-.035 1.108-.07l2.423-.138 1.835-.139c.207-.034.346-.034.519-.034.311 0 .761.069 2.008.311 1.834.382 2.042.624 2.596 1.075l1.211.831c.9.555.9.624 1.108 1.178l.277.763c.208.485.277.658.277.831 0 .139-.069.312-.208.624l-.208.554c-.311.763-.415.797-.692.797-.104 0-.242 0-.415-.034l-.035.069v-.07c-.104 0-.761-.173-.761-.173-.312-.069-.624-.173-1.039-.173-.104 0-.208 0-.311.035-.312.069-1.316.104-2.32.069-.692 0-1.419 0-1.904-.035l-2.457.035c-.104 0-2.181.104-2.181.104l-1.454-.07-1.662-.034h-1.038c-.208.035-.346.035-.519.035-.243 0-.52-.035-1.073-.208-.208-.035-.381-.07-.589-.07-.554 0-1.038.174-1.419.347l-.866.242c-.9 0-1.488.278-1.973.52-.45.243-.831.416-1.488.52-.139 0-.277.035-.381.035-.589 0-.762-.208-1.073-.555-.035-.034-.035-.034-.069-.104a10 10 0 0 0-.312-.38c-.485-.417-1.004-.417-1.35-.417h-.242c-.139 0-.173 0-.243-.069l-.138-.139c-.381-.38-.554-.45-1.073-.52h-.242c-.208-.034-.381-.034-.52-.034-.415 0-.623.139-.796.243a.8.8 0 0 1-.346.104.44.44 0 0 1-.346-.139c-.243-.208-.589-.277-.935-.277-.138 0-.242 0-.346.034-.138 0-.623.104-.727.104s-.208-.034-.277-.034c-.9 0-1.731.485-2.631.9l-.277.105c-.554.277-1.661.415-2.596.415-.45 0-.9-.034-1.177-.104h-.034c-.104 0-.727-.173-.727-.173-.554-.104-1.281-.242-2.874-.935-2.146-.867-2.838-1.837-3.357-2.53m51.197 9.91h.035zv.104s0 .035-.035.07c-.311.658-.415 1.836-.553 2.46l-.035.346h.173-.173c-.035.45-.485 1.42-1.108 1.871l-.45.416c-.623.485-1.281.97-1.938.97-.935 0-3.462-.035-4.085-.416l-.346-.277c-.866-.554-1.731-1.143-2.492-1.143-.935 0-1.801.52-2.112 1.282l-.104.242c-.069.208-.242.52-.242.867 0 .346.138 1.732.311 2.217.139.45.173.658.173 1.005v.762c0 .277 0 .485-.034.693a12 12 0 0 0-.104 1.698v1.282c0 .728.035 1.386.138 1.802l.07.936a5 5 0 0 0-.07.796c0 .486.139.797.312 1.248.277.797.311 1.247.311 1.836 0 .104-.034.555-.034.59v.9c-.035.243-.242 1.525-.242 1.525-.07.485-.347.97-.52 1.42v.035c-.034.07-.138.243-.138.243l-.035.034v.035c0 .07-.138.346-.138.346-.035.14-.312.52-.589.486h-.138c-.173-.035-.45-.243-.623-.45-.173-.174-.866-.347-.9-.382s-.104-.312-.139-.52l-.138-.485v-.07c-.346-.554-.45-1.281-.45-1.628 0-.762-.312-1.386-.727-2.044-.277-.416-.45-1.074-.45-1.698 0-.208.034-.416.069-.589.104-.312.139-.728.139-1.109 0-.658-.104-1.386-.277-1.905-.07-.243-.381-1.56-.381-2.46v-.243l.519-1.594-.035-.901s-.034-2.703-.761-3.604l-.104.035.069-.07-.207-.207c-.347-.555-1.074-1.663-3.116-1.663-2.146 0-3.081.173-4.05.485-.554.173-1.523.277-2.319.277-.416 0-.796-.035-1.004-.104-.519-.173-.9-.277-1.316-.277-.346 0-.726.034-1.28.138l-.416.07c-.934.138-1.869.277-2.181 1.316-.173.555-.103.763-.138 1.698v1.109c0 .97-.069 2.079-.242 2.39l-.52 1.387c-.138.589-.242.97-.588 1.56-.415.657-.589 1.246-.623 1.8a2.1 2.1 0 0 1-.416.937c-.173.277-.276.52-.415.658-.588.728-.9 1.213-3.565 2.495-1.835.831-2.147 1.178-2.527 1.455-.416.277-.97.554-1.385.554l-.727-.069c-.519.035-1.212.104-1.835.104-.657 0-1.246-.104-1.488-.277-.727-.59-1.627-1.386-1.593-2.46l-.103-1.11v-.242c0-.52.138-.866.242-1.316.173-1.144.45-1.629.796-1.871.312-.278.762-.312 1.246-.555.623-.346 1.8-.658 2.7-.797l.45-.104.589-.07c.831-.138 1.8-.276 2.7-.97.796-.623 1.938-1.559 2.562-2.529.484-.797 1.038-1.698 1.246-2.841l.034-.208a5 5 0 0 0 .104-1.04c0-.415-.069-.831-.381-1.178-.311-.415-.83-.623-1.453-.658h-.277c-1.558 0-2.839.52-3.566 1.04a2.5 2.5 0 0 1-1.454.45c-.104 0-.242 0-.346-.035l-.485-.104c-.173-.034-.346-.069-.484-.069-.312 0-.589.07-.969.312-.416.242-1.074.45-1.593.45-.138 0-.277 0-.381-.034-.623-.104-1.28-.693-1.28-1.248 0-1.074-.277-2.252-.727-3.118-.381-.554-.52-1.04-.52-1.49 0-.208.035-.381.104-.555.208-.485.693-.9 1.558-1.178 2.181-.727 2.458-.797 2.977-.866.035 0 .069 0 .173-.035.242-.069.796-.138.796-.138.346-.07.658-.07.97-.07.657 0 1.246.105 1.834.278h.035c.104.034 1.004.173 1.004.173.519.07 1.107.104 1.731.104.865 0 1.8-.035 2.63-.104h.589c.242 0 .484-.035.692-.035.623 0 1.108.104 1.731.659 1.108 1.005 2.112 1.559 3.012 1.559.173 0 .311 0 .484-.07.831-.207 1.419-.484 1.904-1.039.104-.104.865-.277 1.35-.312l1.073-.104.935-.207a90 90 0 0 0 2.111-.347h.416c.727-.035 1.35-.07 1.938-.07.45 0 .831.035 1.212.07.381.07.865.104 1.419.104 1.212 0 2.562-.104 3.012-.173h.207c.727 0 2.354.173 3.289.52 1.108.38 1.939.485 2.665.485.416 0 .797-.035 1.143-.07h1.696c.415 0 .9.035 1.385.035.38 0 .761 0 1.073-.035.623-.104 1.315-.208 2.042-.208.554 0 1.142.035 1.696.174.346.034.762.277.831.45m-72.002 16.597c.935 0 1.939-.311 2.493-.935.173-.208.346-.347.311-.832V60.5c0-.485-.38-.866-.588-1.074l-.173-.173a6 6 0 0 1-.312-.728c-.208-.693-.381-.797-.796-1.04-.381-.276-.796-.415-1.177-.415-.277 0-.554.07-.796.242-.485.278-.866.52-.866 1.283v.311c0 .174.035.312.035.416 0 .624-.138.866-.138 1.49v.07c0 .589.38 1.039.934 1.282.277.173.658.207 1.073.207m-3.565-12.577c.761 0 1.627.069 2.146.138.139 0 .277.035.416.035.83 0 1.592-.347 2.111-1.04.104-.138.519-.38.796-.52.519-.311 1.073-.554 1.316-1.074V47.3l.069-.347v-.035l-.139-.485v-.034c-.242-.381-.692-.485-1.246-.485-.311 0-.623.034-1.004.034h-.069.035c-.139 0-1.073.035-1.073.035l-1.039.035c-.311 0-.588.034-.865.034-.243 0-.45 0-.658-.069-.208-.07-.415-.07-.623-.07-.485 0-.935.105-1.419.209l-1.073.207c-.866.104-1.731.555-2.181 1.179-.208.277-.277.623-.277.935 0 .139 0 .312.069.45.277.867 1.212 1.075 2.112 1.075.519 0 1.038-.07 1.488-.104l.242-.035v-.173l.035.173c.208-.035.519-.035.831-.035m-1.904 7.934c.104-.52.173-.935.173-1.282 0-.52-.104-.935-.173-1.316-.277-1.352-1.627-1.386-2.008-1.352-.623 0-1.834.277-2.111 1.56-.07.277-.07.485-.07.693 0 .52.104.9.139 1.178 0 .554-.035.866-.139 1.316-.069.45-.311.867-.311 1.629.035.727.381 1.178.658 1.386.38.277.796.381 1.177.381.346 0 .657-.07.9-.104.553-.173.969-.485 1.211-.9a2.04 2.04 0 0 0 .346-1.214v-.52c0-.242.07-.623.07-.727.034-.035.034-.07.034-.139.035-.242.104-.589.104-.589m-3.15-18.26c-.035.104-.035.208-.035.312 0 .312.104.623.381.866.415.416 1.039.52 1.627.52.623 0 1.177-.104 1.385-.174.104-.034.277-.034.484-.034.277 0 .658.034 1.004.034l1.869.035c.243 0 .485-.035.762-.035 1.108 0 2.527.139 2.977.174.173.034.346.034.554.034.761 0 1.558-.277 2.111-.727.277-.243.485-.624.485-1.005 0-.139-.035-.277-.069-.381-.242-.901-1.385-1.802-2.596-2.045h-.07l-1.869-.069c-.831 0-1.765 0-2.665-.139-.208-.034-.45-.034-.727-.034-.9 0-2.216.138-3.22.485-1.28.45-2.18 1.213-2.388 2.183m-6.646 20.27c1.107-.762 1.765-11.608 1.8-15.489 0-.207 0-1.143-.277-2.113-.277-.936-.796-1.94-1.904-2.149a37 37 0 0 0-1.212-.346c-.519-.173-1.038-.346-1.523-.346a1.8 1.8 0 0 0-.588.103 3.5 3.5 0 0 1-1.108.174c-.277 0-.623-.035-1.004-.104a8.5 8.5 0 0 0-1.8-.208 7.1 7.1 0 0 0-2.388.416c-1.108.38-1.904 1.143-1.904 1.975 0 .104 0 .208.034.312.069.485.589 1.004 1.454 1.004h.346c.623-.034 1.558-.138 2.458-.138.45 0 .865.035 1.212.07.588.068.83.242 1.35.484l1.419.659c.485.173.727.242.935.38.242.14.553.209.623.52.034.208.069.486.069.763 0 .38-.069.762-.139 1.005-.103.242-.138.52-.207.727-.07.208-.173.312-.243.312h-.034c-.173 0-.381-.035-.554-.104-.173-.035-.277-.104-.277-.104l-.969-.346c-.173-.07-1.073-.173-2.077-.173-1.177 0-2.493.138-3.012.97l-.138.312c-.07.103-.416 1.143-.416 1.143-.069.139-.069.312-.069.485 0 .416.139.762.415 1.074.416.52 1.108.693 2.112.693 1.108 0 2.354.104 4.189.312 1.177.139 1.488.45 1.523 1.594 0 .936-.727 1.109-1.108 1.213-.415.104-.588.312-.692.52-.104.173-.104.277-.277.38-.312.208-.485.382-.866.416-.45 0-1.523-.034-2.007-.069h-.035c-.104 0-.588-.07-.588-.07-.139 0-.277-.034-.381-.034-.658 0-1.212.208-1.627.59-.45.45-.658 1.039-.658 1.836-.035 1.628 1.246 1.801 1.731 1.801.034 0 .104 0 .242.035.173.035.346.035.485.035 1.108 0 1.8-.381 2.077-.59.242-.242.692-.38.796-.415h.069c.277 0 .346.07.416.139.069.069.069.173.103.311.07.208.07.624.277 1.005.104.174.173.312.416.416.207.139.519.243 1.073.381q.466.105.831.104c.761 0 .692-.97 1.142-1.282zm17.792 6.133a1.4 1.4 0 0 0-.38.035c-.762.034-1.281.45-1.627.762-.312.243-.589.416-1.073.485-.312.035-.866.035-1.524.035-.484 0-1.003 0-1.488-.035h-1.592c-1.489 0-2.25.035-2.77.277-.519.243-.934.693-1.488 1.213-.554.555-1.143 1.144-1.627 1.351-.762.347-1.212.763-1.558 1.075l-.658.415c-.311.104-.83.139-1.35.139-.727 0-1.488-.104-1.627-.243l-.38-.277c-.727-.589-1.42-1.282-1.731-2.98 0-.138-.035-.312-.035-.485 0-.589.069-1.317.139-2.39v-.174c.034-.762-.347-1.49-1.385-1.663-.139-.035-.242-.035-.381-.035-1.281 0-2.873.901-3.808 1.525-.277.173-.588.312-.588.312-1.385.797-3.981 2.841-5.193 3.95l-.346.277c-.865.866-1.419 1.282-1.73 1.282-.07 0-.104 0-.174-.035-.796-.207-1.869-.97-1.834-1.697 0 0 0-.035.034-.104v-.07c0-.277.104-.866.139-1.143.034-.104.034-.243.034-.381 0-.278-.034-.555-.034-.693-.035-.243-.035-.381-.069-.59-.035-.173-.035-.796-.173-1.073-.07-.14-.104-.208-.104-.347 0-.104 0-.173.034-.312.035-.312.173-.416.312-.554.104-.104.485-.312.485-.312.692-.416 1.315-.832 1.626-1.386.277-.485.485-1.455.485-2.356 0-.59-.069-1.352-.519-1.802-.312-.381-.762-.485-1.316-.485-.277 0-.553.035-.9.035-.346.034-.761.034-1.177.034-.553 0-1.073-.07-1.315-.208-1.004-.589-1.523-1.698-1.523-3.326v-.381c.035-.728.104-1.11.208-1.248.103-.138.173-.138.415-.173l1.177.035c.554.034 1.073.034 1.488.034.693 0 1.281-.069 1.697-.277.761-.45 1.246-1.005 1.246-1.698v-.138c0-.416-.277-1.04-1.142-1.386-.416-.208-.866-.243-1.281-.243h-.52c-.346.035-.726-.035-.796-.104h-.069s-.208-.104-.312-.173h-.034l-.035-.035c-.104-.034-.173-.138-.207-.277a.8.8 0 0 1-.104-.381v-.485a1.22 1.22 0 0 0-.554-1.04 1.6 1.6 0 0 0-1.039-.38c-.138 0-.277 0-.415.034l-.9.312c-.45.138-.831.277-1.177.277-.138 0-.312-.035-.45-.07-.588-.173-1.592-.9-1.592-3.846 0-2.39 2.492-4.33 4.015-5.059v-.034c.139-.07.416-.173 1.142-.52 1.177-.52 3.081-1.56 3.808-2.148.658-.555.52-.347 1.281-.97 1.281-.936 2.423-1.767 2.942-3.015.52-1.178.554-1.143.866-1.386a.67.67 0 0 1 .45-.208c.069 0 .138 0 .208.035.242.07.484.346.83.658.243.277.658 1.04 1.35 1.56l.9.588c.485.278.866.555.97.728.415.52.969.624 1.419.624.277 0 .485-.035.588-.035h.277c.243 0 .45.035.797.173.484.208 1.419.659 2.146.693.865 0 1.834-.658 2.007-.831.174-.139.243-.243.554-.45.554-.486.693-.728.866-1.04l.034-.07a1.3 1.3 0 0 0 .173-.207c.173-.139.485-.347 1.108-.416.519 0 2.181.589 3.081.589.104 0 .208 0 .277-.035.208-.069.554-.104 1.211-.104.727 0 1.801.07 3.393.243l4.569.139s1.35.069 1.939.069a54 54 0 0 0 1.973-.173c.554-.104.865-.14 1.142-.14.242 0 .554.07.796.14.208.173.52.173 1.039.277.658.069.969.242 1.246.485.692.554 1.315.693 2.423.693h.139c.588 0 1.003.381 1.453 1.04.277.38.347.658.347.866 0 .173-.104.38-.277.727-.312.624-.935 1.144-1.766 1.837l-.069.034v.035c0 .035-.035.035-.035.035-.969.797-1.384 1.697-1.384 3.084l.069 1.975-.069.658s0 .658-.069 1.143c-.07.485-.243 1.075-.243 1.698 0 .07.104 1.594.104 1.594v.173l.139 1.213s.069.59.069.936v.138c0 .45-.104.59-.243 1.005-.138.485-.346.59-.692.762-.381.104-1.038.174-1.038.174l-1.108.242c-.935.243-1.592 1.04-1.696 2.01v.277c0 .797.311 1.42.934 1.802.485.277 1.35 1.317 1.731 1.767l.416.45c1.073 1.213 2.561 2.946 3.911 3.5.45.208.762.485 1.108.797.45.416.969.936 1.8 1.109a6.4 6.4 0 0 0 1.627.208c.138 0 .312 0 .45-.035.277-.034.45-.104.519-.104s.035-.034.139.208c.069.173.104.347.104.555 0 .831-.554 1.767-.901 2.078-.415.45-.588.624-1.073 1.144-.519.52-1.488 1.871-2.561 2.39-.416.209-.727.347-1.143.347-.38 0-.865-.138-1.627-.554-1.488-.762-2.007-1.178-2.803-2.356-.797-1.352-2.077-2.218-3.497-2.218m-67.986-2.53c.035-.069-.346-.346-.865-.346-.52-.034-1.004-.034-1.523-.034q-3.895-.052-8.412.311c-.45.07-.969.104-1.593.104-.726 0-1.523-.069-2.423-.173h-.242c-2.319-.035-4.015.554-5.123 1.698-.381.485-.519.866-.519 1.109 0 .138.034.242.173.38.346.451.761.66 1.177.66q.31 0 .623-.105c1.557-.727 2.907-1.109 4.084-1.109h.104c.9.035 1.8.035 2.666.07 3.427.034 8.135-.035 11.181-.208.346 0 .554.035.692-.243l.173-.104c.069-.069.035-.242.104-.311-.035-.59-.277-1.11-.277-1.698m5.331-6.548c.692 0 1.281.242 1.662.727.38.485.553 1.144.553 2.045 0 .173 0 .38-.034.589v.034l-.035.035c-1.246 1.629-.45 3.742-.45 6.41 0 .624.035 1.248.104 1.906v.07c-.242 1.94-1.904 2.945-4.708 2.875-.484 0-.969-.034-1.488-.104h-.693a5 5 0 0 0-1.661-.277c-.312 0-2.043.035-2.319.104h-.831c-.97 0-1.558-.07-1.835-.138-.035-.035-.104-.035-.173-.104-.519-.035-1.038-.035-1.558-.035-4.258-.035-9.554.242-15.992.728h-.07c-2.492-.45-3.842-1.352-3.842-2.703 0-.139 0-.277.035-.45v-.035l.034-.035c.519-.762.762-1.524.762-2.287 0-.138 0-.312-.035-.485a2.2 2.2 0 0 1-.104-.693c0-.346.07-.693.208-1.074.035-.485.035-.797.069-.97v-.035l.035-.035c.104-.138.138-.38.138-.727 0-.243-.034-.52-.069-.866v-.07c.035-.311.035-.554.035-.693a3.2 3.2 0 0 1-.139-.935c0-.52.173-.936.554-1.213.346-.277.865-.381 1.523-.381s1.419.139 2.354.381a15 15 0 0 0 2.285.173c.934 0 1.938-.034 3.046-.173.796-.139 3.323-.208 7.616-.312 3.842-.208 6.611-.346 8.238-.346.416 0 .796.034 1.073.034.277.035.554.035.796.035q1.922 0 3.012-.624h.035c.692-.242 1.315-.38 1.869-.346m-21.531-6.584c-1.973.104-3.289.659-4.016 1.663-.277.416-.381.728-.381.867v.034c.243 0 .762-.069 1.524-.173 3.323-.624 5.919-.97 7.823-.935a8.8 8.8 0 0 1 2.111.242h1.87c.45-.173 1.419-.242 2.977-.242.554-.312.83-.693.83-1.213a2 2 0 0 0-.103-.624c-3.047-.242-5.262-.416-6.716-.416-.935 0-1.558.035-1.765.139-.866.45-2.147.658-3.739.624-.173.034-.311.034-.415.034m-9.866 1.698.035-.034c.38-.486.554-1.075.554-1.802 0-.347-.035-.728-.139-1.144a4 4 0 0 1-.138-1.04c0-.554.138-.97.484-1.281.346-.278.796-.416 1.385-.416h.242c.693.104 1.454.139 2.25.173a29.3 29.3 0 0 0 5.47-.52c1.211-.38 2.873-.554 5.054-.52 1.142 0 2.423.07 3.842.174 1.073.035 2.042.07 2.942.104 1.766.035 3.185-.035 4.258-.173.762-.208 1.419-.347 2.043-.312.83 0 1.557.242 2.146.727.519.52.796 1.11.796 1.767 0 .555-.208 1.179-.589 1.802-.173.347-.519.832-1.038 1.49-1.004 1.456-1.489 2.426-1.489 2.807v.07c-.311 1.524-1.315 2.355-2.838 2.355-6.854.139-11.112.104-12.808.208h-.554a34.7 34.7 0 0 0-6.369.485h-.035c-3.6-.138-5.504-1.836-5.504-4.816zm18.277-13.513c.347-.416.52-.832.52-1.178 0-.243-.07-.486-.243-.728a26 26 0 0 0-3.219-.208c-1.488 0-2.873.104-4.189.346-.45.347-.657.694-.657 1.075 0 .312.138.658.415 1.074.485.416 1.246.624 2.25.624 1.281.034 3.012-.312 5.123-1.005m23.574 1.905c.519.347.485 1.178.485 1.837 0 .346-.07.727-.208 1.178-.208.416-.346 1.074-.346 1.94 0 .728.519 3.327.692 4.332v.069c-.346 2.218-1.696 3.569-3.946 3.88a7 7 0 0 1-1.108.105c-.45 0-.796-.07-1.038-.243-.243-.173-.416-.416-.416-.728 0-.138.035-.277.07-.415-.035-.416-.035-.867-.035-1.352 0-.623.035-1.316.069-2.044-.034-.658-.519-3.222-.554-3.534v-.07c.035-.138.07-.242.07-.346 0-.243-.104-.381-.347-.52-.277-.139-.692-.242-1.28-.277h-.035c-2.492-.554-5.089-.485-7.789-.52h-1.35c-.277 0-.588-.035-.934-.035-3.185-.034-9.174.208-18.035.243h-.035c-.346 0-1.246.07-4.119.312-.693 0-1.87-.035-2.423.104h-.035c-1.558.034-2.839 2.252-3.496 3.95-1.697 2.564-3.497 3.88-5.331 3.846q-.624 0-1.246-.208h-.035l-.035-.034c-.588-.555-.9-1.248-.9-1.975 0-.832.346-1.698 1.039-2.669.761-1.074 1.108-2.148 1.108-3.222 0-.416-.035-.797-.139-1.213v-.034c0-.763.242-1.698.762-2.08.519-.38 1.246-.554 2.215-.554.415 0 1.142-.173 1.662-.104.9.243 1.246-.104 1.973-.104.657 0 1.488 0 2.008-.069 1.453-.243 3.184.104 5.296-.277.381-.347.554-.97.554-1.42 0-.278-.07-.625-.243-.971a4.4 4.4 0 0 0-.761-.07c-.727 0-1.731.105-3.012.347-1.073.416-2.7.624-4.881.59h-.242c-.208-.036-.415-.036-.623-.036-.416 0-.831.035-1.177.105a8.3 8.3 0 0 1-3.462.623q-.986 0-1.973-.208h-.069c-.796-.38-1.142-1.212-1.142-2.321 0-.208 0-.45.034-.659v-.485c0-.727.104-1.732.381-2.113.242-.382.658-.59 1.177-.59.173 0 .346-.103.519-.069.277.035.554.07.866.07 1.073 0 2.146-.035 3.254-.45 1.28-.52 2.942-.313 5.019-.278.588 0 1.177.035 1.835.07.311.034.588.034.865.034 1.662.035 2.492-.347 2.596-.936.762-1.594 1.454-2.495 2.25-2.668.139-.069.312-.104.485-.104.692 0 1.384.555 2.181 1.49 1.523 1.594 2.907 2.357 4.05 2.391.207 0 .381-.034.588-.07a68 68 0 0 0 4.327-.657c1.143-.14 1.904-.243 2.285-.243.969-.312 1.592-.797 1.869-1.386v-.035l.035-.034c.865-.659 1.661-1.005 2.388-1.005 1.108 0 1.939.9 2.527 2.495v.069c.035.52.277.728 1.004.762h.139c1.8.104 3.807.173 6.058.208h.346c.484-.035.9-.035 1.28-.07.9 0 2.216.07 2.354 0 2.216 0 3.67.624 4.674 1.525l.484 1.178.485.486.242.727v.035l-.45.624-.658.034v.07c-.692.277-1.834.38-2.907.346-1.004 0-1.42-.277-2.7-.277-3.601 0-7.339 0-9.104-.277-.208-.035-.381-.07-.554-.07-.9 0-1.627.485-2.32 1.56a.74.74 0 0 0-.173.45c0 .243.173.485.693.693.484.208 1.28.381 2.284.45.416 0 .796-.034 1.177 0 1.904.035 3.877-.207 4.95.278.554.173 1.42.069 2.181.069.866 0 1.454.312 2.631.035.312-.035.623-.035.9-.035 1.004.07 1.731.208 2.25.554m-73.248 9.287q-1.713-.208-4.361-.208c-1.939 0-4.224.069-6.889.208-1.939.693-2.839 1.905-2.873 3.915.034.416-.035 1.04 0 1.837 0 .346.173.762.173 1.212 0 .277 0 .59.034.901.035.901-.173 1.94-.138 3.084.035 1.698.277 3.673.277 5.89.035.243-.139 1.49-.139 1.698 0 1.767-1.35 3.604-2.146 3.5-.727-.104-1.315-1.178-1.731-1.351 0 0-.623-1.386-.934-1.698-.277-.312-.139-.728-.139-1.248v-.034c0-.832-.346-1.352-.346-2.842-.069-1.212.139-.831.139-1.801 0-1.282-.554-1.421-.07-3.188.589-2.148.312-4.262.347-7.38v-.035c-.035-1.04-.416-1.525-1.316-1.698h-.277c-2.769 0-7.477.485-14.158 1.178-1.281.589-2.527.97-3.773 1.04h-.035c-.207 0-.38-.035-.553-.035-.45 0-.831.035-1.212.138h-.069c-.52-.034-.866-.069-1.039-.069-.727-.07-1.281-.208-1.661-.485-.416-.242-.658-.658-.623-1.143 0-.45.207-.97.553-1.56h-.034l.034-.034c.07-.07.174-.139.277-.208a5.6 5.6 0 0 0 .866-1.629v-.07c.657-1.177 1.211-1.87 1.869-2.043 4.5-1.11 7.166-2.322 7.962-3.292.554-.797 1.073-1.248 1.696-1.282q1.194-.624 2.492-2.495c.243-.312.347-.554.347-.797 0-.173-.07-.346-.208-.554-.243 0-.45-.035-.658-.035-1.35 0-2.146.312-2.527.9l-.034.07v.035c-1.281.624-4.604 1.005-10.143 1.04-.935-.035-1.696-.312-2.181-.902-.485-.589-.727-1.386-.727-2.425v-.208c.069-1.282.208-2.218.485-2.91.242-.659.692-1.11 1.281-1.11.138 0 .277.035.415.07q1.09.312 1.973.312c.381 0 .727-.035 1.039-.139.484-.208 1.107-.277 1.869-.277.9 0 2.008.139 3.358.381.934.035 1.834.07 2.665.07 4.085 0 6.889-.555 8.308-1.49.831-1.248 1.558-1.976 2.319-2.149l.035.243-.035-.243h.173c.485 0 .9.208 1.143.624.242.416.346.935.346 1.628v.035c.104.485.415.832.969 1.109s1.385.416 2.458.416c.346 0 .727 0 1.142-.035 2.25-.104 6.127-.035 11.597-.104.865 0 1.661-.035 2.354-.035 2.423 0 3.877.07 4.5.312.242.035.484.07.761.07.45 0 .969-.07 1.523-.174h.277c.381 0 .658.035.9.174.243.138.416.38.416.658.034.381.069.762.069 1.074 0 1.178-.242 1.975-.9 2.218a9.44 9.44 0 0 1-4.293 1.005c-.657 0-1.315-.07-1.973-.174-1.142-.104-3.946-.208-8.377-.52-3.15-.103-5.642-.173-7.442-.173-.727 0-1.316 0-1.8.035-2.077.416-4.327 1.594-6.82 3.603-1.454 1.317-2.457 2.703-3.011 4.055.692.38 1.904.589 3.496.589.9 0 1.973-.07 3.185-.208.934-.45 1.627-1.248 2.111-2.495.243-1.04.519-1.836.762-2.39.277-.555.519-.902.969-.936h.069c1.004.242 1.593 1.35 1.939 3.153.069.485.207.797.346 1.005s.277.242.415.277h.07c.657.173 2.25.416 4.742.693.692.034 1.315.069 1.869.069.866 0 1.489-.07 1.835-.173h.069c2.181-.07 3.808-.139 4.916-.139.692 0 1.177.035 1.454.07a11 11 0 0 0 1.557.103c.381 0 .762 0 1.143-.034.38-.104.692-.173.969-.173a.8.8 0 0 1 .484.138c.174.139.243.381.243.624 0 .173-.035.346-.104.589v.07l-.035.034s-.034.035-.034.173c0 .208.069.52.207.97v.07c.035.311.035.554.07.693v.103c-.589 1.872-2.666 2.773-6.058 2.773-.173-.104-.312-.104-.485-.104m12.67 11.677v.034c0 .278-.173.555-.45 1.04-1.697 2.46-3.739 4.227-6.197 5.301-.727.312-1.523.45-2.354.45-1.038 0-2.146-.242-3.357-.658h-.035l-.035-.034c-2.977-2.08-5.815-5.302-8.515-9.737-.346-.762-.519-1.386-.519-1.906 0-.589.311-1.04.83-1.143.243-.104.485-.173.727-.173.589 0 1.143.277 1.766.762 1.35.935 3.219 1.871 5.608 2.668 3.115.624 5.642 1.455 7.65 2.53 1.108.45 2.042.692 2.838.692.347 0 .623-.034.935-.104a1.1 1.1 0 0 1 .485-.138c.242 0 .45.138.588.312l.035.069zm-37.628-6.307c.104.381.138.763.138 1.144 0 .866-.277 1.663-.796 2.39-3.392 4.124-4.742 7.243-9.692 9.044-.312.139-1.42.832-1.731.97-1.593.694-2.943.624-4.57.832h-.069c-1.454-.242-2.146-1.04-2.838-2.287-1.039-3.603 2.146-5.856 2.215-5.786 0 .034.796 0 .796 0 7.512-.624 9.624-2.911 13.916-6.237l.139.173-.139-.208c.485-.346 1.004-.554 1.454-.554.381 0 .727.138 1.073.38l.069.07zm149.23 34.442c1.247 0 2.147-.138 2.735-.415.589-.278 1.039-.659 1.35-1.178.312-.486.485-1.144.485-1.906 0-.763-.173-1.42-.485-1.906-.311-.485-.761-.866-1.315-1.143-.589-.243-1.489-.382-2.77-.382zm0 1.005v6.307c0 .45.139.831.347 1.04.242.242.588.346 1.073.346.692 0 1.35-.139 1.938-.45a3.3 3.3 0 0 0 1.35-1.318 4.1 4.1 0 0 0 .485-1.94c0-.832-.208-1.56-.589-2.218a3.1 3.1 0 0 0-1.592-1.386c-.658-.277-1.662-.38-3.012-.38m4.777-.658c1.697.381 2.874.866 3.566 1.42.969.798 1.454 1.802 1.454 3.05 0 1.316-.554 2.425-1.627 3.292-1.316 1.04-3.254 1.559-5.746 1.559h-9.035v-.485c.83 0 1.384-.07 1.661-.243.277-.138.485-.346.623-.589.104-.242.173-.831.173-1.802v-11.4c0-.935-.069-1.559-.173-1.801-.103-.243-.311-.45-.623-.59q-.467-.207-1.661-.207v-.485h8.515c2.043 0 3.462.173 4.327.554a4.6 4.6 0 0 1 2.008 1.594c.485.728.727 1.455.727 2.287s-.312 1.594-.935 2.252c-.588.658-1.696 1.213-3.254 1.594m16.616 3.326-2.631-6.063-2.7 6.063zm.45.97h-6.231l-.727 1.698c-.242.555-.38 1.04-.38 1.421 0 .485.207.866.588 1.074.242.139.796.243 1.731.312v.485h-5.885v-.485c.623-.104 1.142-.346 1.558-.797.415-.416.9-1.317 1.523-2.668l6.3-14.068h.242l6.37 14.45c.623 1.35 1.108 2.217 1.488 2.598.312.277.727.416 1.247.485v.485h-8.551v-.485h.346c.693 0 1.177-.104 1.454-.277a.74.74 0 0 0 .277-.59c0-.138-.034-.311-.069-.484-.035-.07-.138-.416-.381-.97zm14.539-12.577 8.758 10.914v-7.553c0-1.04-.139-1.767-.45-2.149-.415-.485-1.108-.727-2.112-.727v-.485h5.85v.485c-.761.104-1.246.208-1.523.38-.242.14-.45.382-.588.729q-.208.519-.208 1.767v14.622h-.45l-12.012-14.622v11.157c0 1.005.243 1.698.693 2.044s1.004.52 1.592.52h.415v.485h-6.3v-.485c.97 0 1.662-.208 2.043-.589.38-.381.588-1.04.588-1.975V83.577l-.381-.45c-.38-.485-.692-.762-1.004-.936-.276-.138-.692-.242-1.246-.242v-.485zm23.678 6.756 6.161 7.727c.866 1.11 1.627 1.837 2.25 2.218q.675.416 1.454.416v.485h-9.139v-.485c.589-.07.935-.139 1.108-.278.173-.138.243-.277.243-.485 0-.346-.381-1.04-1.177-2.044l-4.016-5.059-.658.554v4.782c0 .901.035 1.49.139 1.698.104.243.311.416.588.59.312.172.762.242 1.42.242v.485h-8.828v-.485h.589c.519 0 .935-.104 1.211-.278.243-.103.416-.346.52-.623.104-.208.138-.763.138-1.629V84.478c0-.9-.034-1.455-.138-1.698s-.277-.415-.589-.589c-.277-.173-.692-.242-1.177-.242h-.588v-.485h8.723v.485c-.588 0-1.038.069-1.35.242-.208.139-.415.312-.519.624-.104.208-.139.762-.139 1.663v5.475l6.508-5.267q1.35-1.092 1.35-1.767c0-.312-.173-.59-.554-.762-.173-.104-.657-.139-1.419-.174v-.485h6.854v.485q-.935.052-1.454.312c-.346.173-1.142.763-2.423 1.802zM136.853 82.47v13.72q0 1.092.104 1.351c.069.173.208.277.346.381q.363.208 1.038.208c1.454 0 2.597-.485 3.358-1.49 1.039-1.316 1.593-3.395 1.593-6.202 0-2.252-.347-4.054-1.074-5.406-.553-1.039-1.315-1.767-2.18-2.148-.693-.277-1.731-.416-3.185-.416m-6.785 16.598v-.485h.589c.519 0 .9-.07 1.177-.243s.484-.381.623-.658c.069-.173.104-.728.104-1.629V84.478c0-.9-.035-1.455-.139-1.698s-.277-.415-.588-.589c-.312-.173-.693-.242-1.177-.242h-.589v-.485h7.997c2.111 0 3.842.277 5.123.866 1.592.693 2.804 1.767 3.6 3.188.831 1.42 1.246 3.014 1.246 4.816q0 1.87-.623 3.43t-1.558 2.6a7.8 7.8 0 0 1-2.215 1.628c-.831.415-1.87.727-3.081.935-.519.104-1.385.139-2.527.139zm29.701-16.736c-1.627 0-2.839.832-3.669 2.495-.693 1.351-1.039 3.326-1.039 5.855 0 3.015.519 5.267 1.592 6.688.727 1.005 1.766 1.525 3.081 1.525.9 0 1.627-.208 2.25-.659.762-.554 1.35-1.455 1.8-2.668q.623-1.819.623-4.782c0-2.356-.207-4.088-.657-5.266-.416-1.178-.969-1.975-1.662-2.46a3.92 3.92 0 0 0-2.319-.728m-.173-.832c2.804-.104 5.088.728 6.854 2.46 1.765 1.768 2.631 3.95 2.631 6.584q0 3.378-1.973 5.925c-1.731 2.252-4.189 3.396-7.374 3.396q-4.776 0-7.373-3.223c-1.385-1.698-2.042-3.742-2.042-6.064 0-2.633.9-4.816 2.665-6.583 1.835-1.802 4.016-2.599 6.612-2.495m16.962-.034 8.758 10.914v-7.553c0-1.04-.139-1.767-.45-2.149-.416-.485-1.108-.727-2.112-.727v-.485h5.85v.485c-.761.104-1.246.208-1.523.38-.242.14-.45.382-.588.729q-.208.519-.208 1.767v14.622h-.45l-12.012-14.622v11.157c0 1.005.242 1.698.692 2.044s1.004.52 1.593.52h.415v.485h-6.3v-.485c.969 0 1.662-.208 2.042-.589.381-.381.589-1.04.589-1.975V83.577l-.381-.45c-.381-.485-.692-.762-1.004-.936-.277-.138-.692-.242-1.246-.242v-.485zm31.051-.382v6.168h-.485c-.589-1.698-1.454-2.98-2.631-3.846s-2.458-1.317-3.842-1.317c-1.316 0-2.423.381-3.324 1.11-.865.727-1.523 1.766-1.869 3.083a14.5 14.5 0 0 0-.554 4.054c0 1.698.208 3.153.589 4.435.415 1.282 1.038 2.183 1.938 2.807.9.589 1.973.9 3.185.9.415 0 .865-.034 1.315-.138s.9-.208 1.385-.381v-3.638c0-.693-.035-1.144-.138-1.352-.104-.207-.312-.38-.589-.554-.311-.173-.658-.243-1.108-.243h-.45v-.485h8.654v.485c-.657.035-1.107.14-1.384.278-.242.138-.45.346-.589.658-.069.173-.103.554-.103 1.213v3.638q-1.714.727-3.531 1.143a19.4 19.4 0 0 1-3.808.382c-1.696 0-3.081-.243-4.189-.693-1.107-.45-2.111-1.04-2.942-1.768a8.1 8.1 0 0 1-2.008-2.494c-.623-1.178-.9-2.53-.9-3.985 0-2.633.935-4.851 2.804-6.688 1.869-1.801 4.258-2.737 7.096-2.737.9 0 1.662.07 2.389.208.381.07 1.004.277 1.869.589.866.312 1.385.485 1.523.485a1.1 1.1 0 0 0 .693-.277c.207-.173.415-.52.588-1.005h.416zm21.219.382v.485q-.882.103-1.35.52c-.45.346-1.107 1.35-2.042 2.98l-3.843 6.375v4.262c0 .9.035 1.49.139 1.698s.277.416.554.589.658.242 1.108.242h1.003v.485h-9.934v-.485h.934c.519 0 .935-.104 1.246-.277.243-.104.416-.346.52-.624.103-.207.138-.762.138-1.628v-3.534l-4.154-7.554c-.831-1.49-1.419-2.356-1.731-2.633q-.519-.417-1.35-.416v-.485h8.481v.485h-.381c-.519 0-.865.069-1.073.208s-.311.311-.311.45c0 .312.346 1.109 1.038 2.356l3.185 5.821 3.185-5.301c.796-1.317 1.177-2.148 1.177-2.599 0-.242-.104-.416-.347-.589-.276-.208-.83-.346-1.626-.381v-.485h5.434zm10.143 17.117v.485h-9.381v-.485h.588c.52 0 .935-.104 1.246-.278.243-.103.416-.346.52-.623.104-.208.138-.763.138-1.629V84.478c0-.9-.034-1.455-.138-1.698s-.277-.415-.589-.589c-.311-.173-.692-.242-1.177-.242h-.588v-.485h9.381v.485h-.589c-.519 0-.934.104-1.246.277-.242.104-.415.312-.554.624-.104.208-.138.762-.138 1.628v11.573c0 .901.034 1.456.138 1.698.104.243.312.416.589.59.277.172.692.242 1.211.242zm7.062-17.117 8.757 10.914v-7.553c0-1.04-.138-1.767-.45-2.149-.415-.485-1.107-.727-2.111-.727v-.485h5.85v.485c-.762.104-1.246.208-1.523.38-.242.14-.45.382-.589.729q-.207.519-.207 1.767v14.622h-.45l-12.012-14.622v11.157c0 1.005.242 1.698.692 2.044s1.004.52 1.593.52h.415v.485h-6.3v-.485c.969 0 1.661-.208 2.042-.589s.589-1.04.589-1.975V83.577l-.381-.45c-.381-.485-.693-.762-1.004-.936-.277-.138-.692-.242-1.246-.242v-.485zm31.05-.382v6.168h-.484c-.589-1.698-1.454-2.98-2.631-3.846s-2.458-1.317-3.843-1.317c-1.315 0-2.423.381-3.323 1.11-.865.727-1.523 1.766-1.869 3.083a14.5 14.5 0 0 0-.554 4.054c0 1.698.208 3.153.589 4.435.415 1.282 1.038 2.183 1.938 2.807.9.589 1.973.9 3.185.9.415 0 .865-.034 1.315-.138s.9-.208 1.385-.381v-3.638c0-.693-.035-1.144-.139-1.352-.103-.207-.277-.38-.588-.554-.312-.173-.658-.243-1.108-.243h-.45v-.485h8.654v.485c-.657.035-1.107.14-1.384.278s-.45.346-.589.658c-.069.173-.104.554-.104 1.213v3.638a21 21 0 0 1-3.531 1.143 19.7 19.7 0 0 1-3.807.382c-1.697 0-3.081-.243-4.189-.693s-2.112-1.04-2.942-1.768a8.1 8.1 0 0 1-2.008-2.494c-.623-1.178-.935-2.53-.935-3.985 0-2.633.935-4.851 2.804-6.688 1.869-1.801 4.258-2.737 7.097-2.737q1.298 0 2.388.208c.381.07 1.004.277 1.869.589.866.312 1.385.485 1.523.485a1.1 1.1 0 0 0 .693-.277c.207-.173.415-.52.588-1.005h.45zM98.29 88.498c-22.465 31.011-60.474 8.766-51.855-5.683 2.7-4.54 8.585-6.757 14.262-2.599 13.881 10.153 33.474.59 39.013-16.181 2.077-5.752 3.115-17.083-4.327-27.27l.346-.312c5.815 6.653 10.35 15.905 10.35 27.582.035 8.212-2.354 16.944-7.788 24.463M77.314 64.035l-13.12 13.097-13.119-13.097 13.12-13.133zm-55.49 0c0-8.247 2.389-16.979 7.823-24.463 22.466-31.047 60.475-8.767 51.856 5.648-2.7 4.539-8.585 6.756-14.262 2.598-13.916-10.117-33.509-.554-39.013 16.217-2.077 5.752-3.115 17.151 4.397 27.373l-.347.312c-5.85-6.687-10.454-15.974-10.454-27.685M113.937 64c0-28.448-23.331-50-49.986-50C35.981 14 14 36.557 14 64c0 28.448 23.366 50 49.986 50 27.97.035 49.951-22.523 49.951-50" fill="#de0112"/></svg>