<svg width="452" height="128" fill="none" xmlns="http://www.w3.org/2000/svg"><path d="M14 63.994s12.115-5.403 17.153 0 34.067 38.539 34.067 38.539 12.595 16.809 27.829 9.725c15.234-7.083 62.975-52.587 39.944-79.6 0 0 6.718 19.81-18.713 39.86-6.946 5.477-12.307 8.892-16.504 11.465-11.23 6.887-14.135 5.41-16.842 3.663-3.719-2.402-28.789-17.89-44.503-29.535 0 0-9.836-8.045-22.431 5.883" fill="#e50113"/><path d="M43.811 55.331 21.246 41.366s82.58-51.891 108.027-12.762c0 0-28.207-22.876-85.462 26.727m41.381-12.9 25.096 16.364L85.192 76.48 58.776 58.795z" fill="#e95506"/><path d="M161.877 30.02s8.46-1.397 10.596-11.878h7.008s-2.308 16.594-17.604 18.778zm10.767 3.38h6.837s-.553 5.588-4.701 10.789v33.024h-6.409V49.598c-1.845 1.023-3.993 1.878-6.494 2.467v-7s7.178-.346 10.767-11.666m201.65-3.38s8.46-1.397 10.597-11.878h7.007s-2.307 16.594-17.604 18.778zm10.768 3.38h6.836s-.553 5.588-4.7 10.789v33.024h-6.408V49.598c-1.846 1.023-3.993 1.878-6.495 2.467v-7s7.178-.346 10.767-11.666m-163.47 16.82c3.446 0 4.049 5.477 4.049 5.477h-44.204V50.22zm105.318-7.274h-10.233v8.387h6.181c4.861 0 4.052 6.026 4.052 6.026h-10.233v10.697c0 2.782 2.022 2.586 2.022 2.586h4.994c4.022.564 3.17 6.57 3.17 6.57h-10.56c-6.735 0-5.799-8.246-5.799-8.246V57.36h-7.016v-6.026h7.016v-8.387h-7.016V36.92h19.37c4.861 0 4.052 6.027 4.052 6.027M434.04 18.96c4.85 0 4.042 5.978 4.042 5.978h-39.824V18.96zm-.037 17.642c4.89 0 4.076 6.021 4.076 6.021h-6.901c.07 4.776-.079 18.493-.079 24.955 0 9.216-7.485 9.652-7.485 9.652h-17.391c0-6.195 4.771-6.642 4.771-6.642h9.171c4.844 0 4.33-4.77 4.33-4.77V42.622h-27v-6.02zm-214.48-.344c0-.694-.563-1.255-1.257-1.255h-5.292v6.279h5.292a1.26 1.26 0 0 0 1.257-1.255zm-31.71 3.768c0 .694.564 1.256 1.257 1.256h5.206V35h-5.206a1.256 1.256 0 0 0-1.257 1.256zm12.494 1.256h6.635V35h-6.635zm25.334-14.795h-18.785v3.183h16.271a2.514 2.514 0 0 1 2.514 2.51v12.01a2.516 2.516 0 0 1-2.514 2.51h-39.175a2.513 2.513 0 0 1-2.515-2.51V32.18a2.513 2.513 0 0 1 2.515-2.51h16.356v-3.183h-18.871v-5.591h18.871v-2.753h6.549v2.753h14.734c3.447 0 4.05 5.59 4.05 5.59m-20.733 42.512V58.827h5.868v10.171zm-21.793-.978c.353-2.223.883-9.193.883-9.193h5.654l-.619 10.107s-.53 8.279-7.597 8.279V70.59s1.326-.349 1.679-2.57m29.151 3.18s5.16.61 5.16 6.013h-18.491s-5.763-.262-5.763-6.013V58.827h6.451v10.107s-.43 2.266 2.838 2.266zm11.715-3.18s.437 2.309 1.66 2.482v6.71s-6.554-.173-7.166-7.145c-.612-6.97-1.049-11.24-1.049-11.24h6.03zm15.351-15.191s.266 5.607-6.649 5.607V26.357h6.649zm23.08-26.472V52.83s.266 5.607-6.649 5.607v-32.08zm23.472 0V52.83s.265 5.607-6.65 5.607v-32.08zm-36.38-8.215v42.23s.171 16.84-16.821 16.84v-6.044s10.384-.778 10.384-10.882V18.143zm17.213 59.07v-59.07h6.65v59.07zm23.472 0v-59.07h6.65v59.07zm22.85-49.06c-1.263 2.9-3.722 5.366-9.55 6.42v-6.42s2.725-.59 3.758-4.372 1.409-5.638 1.409-5.638h7.044s-.508 1.876-1.013 3.942h8.155c4.881 0 4.068 6.068 4.068 6.068zm24.442 15.72h20.189s2.566.406 2.566-2.312v-3.686h-22.755zm2.74-18.836c-2.864-.022-2.731 2.321-2.731 2.321l-.009 3.77h22.755V27.05c0-2.39-2.006-2.014-2.006-2.014s-14.462.026-18.009 0m22.955 30.174s3.686-.281 3.686 6.091h-10.126l2.054 3.935s2.706 5.342 8.072 5.436v6.538s-8.632.396-12.644-7.475c-3.347-6.565-8.637-16.123-10.302-19.117h-6.4v16.961s-.466 3 2.705 3h3.919s4.923 0 4.923 6.184h-12.2s-5.6.656-5.6-6.09V23.911s.282-5.768 6.159-5.768h23.7s5.693-.23 5.693 5.768v20.053s.933 6.653-5.506 6.653h-10.148l2.396 4.592zM186.58 100.148q0-2.07-.629-3.5a5.37 5.37 0 0 0-1.911-2.31q-1.282-.877-3.217-1.272t-4.548-.395h-4.215v14.937h3.73q10.79 0 10.79-7.46m3.47-.19q0 1.407-.33 2.695a7.9 7.9 0 0 1-1.06 2.395 8.5 8.5 0 0 1-1.892 2.013q-1.163.906-2.85 1.55-1.688.643-3.922.995t-5.083.352h-6.384V90.393h7.683q6.976 0 10.407 2.358t3.431 7.207m18.391 10h-14.478V90.002h13.946v2.29h-10.384v6.185h9.425v2.289h-9.425v6.872h10.916zm24.652-19.152-15.064 16.618h14.516v2.534h-20.191v-.954l15.793-16.53h-14.748v-2.472h19.694zm25.434 19.152h-3.588v-9.162h-13.164v9.162h-3.595V90.002h3.595v8.443h13.164v-8.443h3.588zm26.273-9.714q0-1.743-.493-3.19a6.1 6.1 0 0 0-1.589-2.492q-1.096-1.045-2.826-1.621t-4.176-.576q-2.364 0-4.064.613-1.703.615-2.799 1.667a6.6 6.6 0 0 0-1.631 2.47 8.4 8.4 0 0 0-.535 3.008q0 1.757.507 3.204a6.2 6.2 0 0 0 1.589 2.484q1.082 1.038 2.799 1.615 1.714.576 4.134.575 2.362 0 4.077-.614 1.716-.612 2.826-1.666a6.56 6.56 0 0 0 1.647-2.463 8.4 8.4 0 0 0 .534-3.014m3.466-.197q0 2.666-1.025 4.606a9.24 9.24 0 0 1-2.766 3.204q-1.742 1.265-4.076 1.878-2.334.615-4.927.614-3.111 0-5.422-.689-2.308-.69-3.827-1.993a8 8 0 0 1-2.26-3.174q-.74-1.871-.74-4.219 0-2.637 1.012-4.576a9.1 9.1 0 0 1 2.754-3.204q1.74-1.265 4.062-1.879a19.2 19.2 0 0 1 4.915-.613q3.111 0 5.421.697 2.309.696 3.841 1.992a8 8 0 0 1 2.284 3.159q.753 1.864.754 4.197m25.825 3.038q0 1.659-.683 3.003-.682 1.344-2.003 2.289-1.322.942-3.234 1.458-1.914.514-4.399.514-2.731 0-4.634-.491t-3.099-1.389q-1.2-.899-1.746-2.159-.549-1.259-.549-2.81V90.002h3.985v13.283q0 1.182.324 2.073a3.37 3.37 0 0 0 1.063 1.49q.74.598 1.913.906 1.178.306 2.877.307 3.178 0 4.69-1.259 1.51-1.26 1.511-3.548V90.002h3.984zm33.945.994q0-.763-.402-1.374-.404-.61-1.169-1.031-.767-.419-1.868-.649a12.3 12.3 0 0 0-2.48-.229h-3.487v6.871h3.602q2.93 0 4.366-.869 1.438-.87 1.438-2.719m-.823-8.856a2.9 2.9 0 0 0-.231-1.153q-.23-.54-.804-.93-.576-.39-1.552-.619-.976-.23-2.471-.229h-3.525v6.245h3.41q1.168 0 2.116-.199.949-.197 1.629-.61a3.06 3.06 0 0 0 1.053-1.031q.374-.618.375-1.474m4.443 8.765q0 1.434-.699 2.542-.7 1.107-1.992 1.87-1.294.764-3.123 1.16-1.829.399-4.07.398h-6.551V90.002h7.164q8.37 0 8.371 4.855 0 1.619-.969 2.78-.966 1.159-3.15 1.724a8.6 8.6 0 0 1 1.926.519 5.9 5.9 0 0 1 1.599.947c.453.379.825.847 1.091 1.374q.403.794.403 1.787m53.216 5.97h-3.93L386.67 93.514v16.444h-3.711V90.002h4.568l13.636 16.353V90.002h3.709zm26.217 0-4.75-.182-11.012-9.698v9.698h-3.412V90.002h3.412v9.183l10.787-9.183h3.944l-11.106 9.577zM366.525 92.9l-4.288 9.194h8.577zm2.099-2.898 9.64 19.956h-3.668l-2.81-5.49h-10.88l-2.548 5.49h-3.572l9.776-19.956z" fill="#231916"/></svg>