<svg width="212" height="46" fill="none" xmlns="http://www.w3.org/2000/svg"><g clip-path="url(#clip0_666_642)" fill-rule="evenodd" clip-rule="evenodd" fill="#004f96"><path opacity=".99" d="M144.605 0h.199a40.6 40.6 0 0 1 3.914 8.142c5.043.064 10.082.087 15.125.064v6.353H142.42a89 89 0 0 1-.133 3.97h18.97a4667 4667 0 0 0-.83 17.54 13.2 13.2 0 0 1-1.258 5.032c-1.185 2.171-3.006 3.44-5.472 3.804q-.99.117-1.992.166a47 47 0 0 1-5.97-.433 263 263 0 0 1-1.461-6.587q1.985.247 3.978.433a20 20 0 0 0 2.655.064q1.571-.248 2.222-1.688a7.5 7.5 0 0 0 .397-1.523q.269-5.29.433-10.589h-12.336a34.1 34.1 0 0 1-3.352 10.456 24 24 0 0 1-5.006 6.187 52 52 0 0 1-4.643 3.606 462 462 0 0 0-4.343-4.765c-.05-.074-.036-.143.033-.198a38.5 38.5 0 0 0 5.67-5.36q4.158-5.126 5.044-11.715c.373-2.788.516-5.594.433-8.405h-10.548V8.202c5.481.009 10.968 0 16.449-.032a39 39 0 0 0-3.218-6.187.33.33 0 0 1-.032-.198Q141.388.95 144.61 0zm46.898.331h7.229v7.945h10.681v6.223h-10.681a238 238 0 0 1-.032 3.045 97.7 97.7 0 0 1 12.239 14.725 3.4 3.4 0 0 1-.53.593 207 207 0 0 0-4.808 4.205 106 106 0 0 0-7.1-10.525 64 64 0 0 0-1.558-1.785 21 21 0 0 1-2.95 5.097 30.7 30.7 0 0 1-6.201 5.99q-.685.434-1.392.827a436 436 0 0 1-4.942-4.37c-.046-.055-.032-.1.032-.133q8.72-4.85 9.718-14.826.12-1.42.102-2.847h-8.889V8.27h9.087V.33zM16.32 1.058h5.504v5.493h6.897V1.058h43.911v11.054h-23.35v5.359h23.35v11.054h-23.35v5.359h23.35v11.054h-37.08v-5.493h-6.767v5.493h-7.03v-5.493h-5.44v-5.492H10.81V28.46h5.505v-5.428H10.81v-5.561h5.505v-5.36H10.81v-5.56h5.505V1.058zm.064 5.562h5.37v5.427h-5.37zm12.406 0h6.768v5.427H28.79zm-6.966 5.492h6.897v5.359h-6.897zm13.798 0h6.768v5.359h-6.768zM16.384 17.54h5.37v5.428h-5.37zm12.406 0h6.768v5.428H28.79zm-6.966 5.492h6.897v5.428h-6.897zm-5.44 5.493h5.37v5.359h-5.37zm12.406 0h6.768v5.359H28.79zm-6.966 5.428h6.897v5.428h-6.897zm13.798 0h6.768v5.428h-6.768z"/><path opacity=".98" d="M174.52 1.72a.31.31 0 0 1 .3.134 238 238 0 0 1 6.136 7.976 111 111 0 0 1-5.14 3.676 174 174 0 0 1-3.449-4.435 194 194 0 0 0-3.019-3.707l5.172-3.639z"/><path opacity=".99" d="M95.388 46h-.065a68 68 0 0 1-5.108-3.772 51 51 0 0 0 10.082-6.256 42 42 0 0 0 6.833-7.415 40 40 0 0 0-3.315 0 41 41 0 0 1-7.298 6.817 57 57 0 0 1-8.423 4.931 48 48 0 0 1-4.112-4.3 51.4 51.4 0 0 0 12.005-7.448 56 56 0 0 0-3.914 0 51 51 0 0 1-4.112 2.65.28.28 0 0 1-.268 0 471 471 0 0 0-4.176-4.403 28 28 0 0 0 8.358-5.791 175 175 0 0 0-4.91-.032V1.854h32.105V20.98q-9.719-.015-19.436.032a25 25 0 0 1-1.526 1.918c7.583.032 15.167.046 22.75.032-.166 5.12-.373 10.24-.631 15.355-.761 4.462-3.412 6.67-7.962 6.62a25 25 0 0 1-3.48-.3 193 193 0 0 1-2.121-5.561 80 80 0 0 0 4.91.198q1.487-.253 2.088-1.624.242-.607.332-1.256c.203-2.626.392-5.248.562-7.875q-.401-.033-.797.064-4.667 8.416-12.604 13.934a63 63 0 0 1-5.772 3.473zM93.133 7.084h19.105v1.785H93.133zm.332 6.753h19.104v1.918H93.465z"/><path opacity=".97" d="M2.452 12.972h3.582v3.638H2.452z"/><path opacity=".99" d="M212 37.991v.267a130 130 0 0 0-1.66 6.288 779 779 0 0 1-16.716.033 41 41 0 0 1-9.686-1.192 16.2 16.2 0 0 1-4.177-1.918 31 31 0 0 1-2.821-2.02 83 83 0 0 0-3.978 5.626 459 459 0 0 1-5.141-4.37 93 93 0 0 1 5.74-6.817c.032-3.86.046-7.723.032-11.583h-4.776v-6.154h11.212c-.009 5.91 0 11.826.032 17.737q3.733 3.427 8.787 4.205 1.25.227 2.522.33 10.331.492 20.63-.432M5.173 23.892h3.582v3.575H5.173z"/><path opacity=".97" d="M0 29.716h2.918v2.976H0z"/><path opacity=".96" d="M6.896 35.544h3.979v3.906H6.896z"/></g><defs><clipPath id="clip0_666_642"><path fill="#fff" d="M0 0h212v46H0z"/></clipPath></defs></svg>