<svg width="128" height="128" fill="none" xmlns="http://www.w3.org/2000/svg"><path d="M70.725 67.539h31.727l3.819-3.832-3.819-3.831H63.086zm11.457-28-7.344-7.664-7.639 7.664zm9.4 38.905H72.487l-7.344 7.369.294.294h18.507zM65.437 41.307l-7.344 7.663h33.49l-7.638-7.663zm7.05 28 4.7 4.716-2.937 2.653h19.095l7.344-7.369zM67.2 87.876l7.639 7.663 7.344-7.663zM56.33 50.739l-1.468 1.179 6.463 6.189h39.365l-7.344-7.368z" fill="#a88249"/><path d="m51.042 53.391 11.751-11.789-9.4-9.726-31.728 31.831L53.392 95.54l19.683-20.042z" fill="#003d75"/></svg>