<svg width="128" height="128" fill="none" xmlns="http://www.w3.org/2000/svg"><path d="M78.56 33.5C95.345 33.5 109 47.182 109 64S95.345 94.5 78.56 94.5A30.2 30.2 0 0 1 64 90.778 30.2 30.2 0 0 1 49.44 94.5C32.655 94.5 19 80.817 19 64c0-16.818 13.655-30.5 30.44-30.5 5.27 0 10.233 1.35 14.56 3.721A30.2 30.2 0 0 1 78.56 33.5m0 4.658a25.6 25.6 0 0 0-10.086 2.059 30.63 30.63 0 0 1 9.468 13.075l.123.33h7.183a3 3 0 0 1 2.998 2.888l.002.113v14.42a3 3 0 0 1-2.888 2.997l-.112.002h-14.38a3 3 0 0 1-2.998-2.887l-.002-.112v-14.42a3 3 0 0 1 2.888-2.998l.112-.002h2.19A26 26 0 0 0 64 42.682a25.6 25.6 0 0 0-14.56-4.524c-14.221 0-25.791 11.593-25.791 25.842s11.57 25.841 25.791 25.841a25.6 25.6 0 0 0 10.086-2.057 30.6 30.6 0 0 1-9.59-13.409l-.118-.332h-7.735a3 3 0 0 1-2.998-2.888l-.002-.112v-14.42a3 3 0 0 1 2.887-2.998l.113-.002h14.38a3 3 0 0 1 2.998 2.887l.002.113v14.42a3 3 0 0 1-2.888 2.997l-.113.002h-1.666A26 26 0 0 0 64 85.319a25.6 25.6 0 0 0 14.56 4.523c14.221 0 25.791-11.592 25.791-25.841S92.781 38.158 78.56 38.158m3.539 20.123h-8.083a1.5 1.5 0 0 0-1.5 1.5v8.104a1.5 1.5 0 0 0 1.5 1.5H82.1a1.5 1.5 0 0 0 1.5-1.5V59.78a1.5 1.5 0 0 0-1.5-1.5m-28.785 0h-8.083a1.5 1.5 0 0 0-1.5 1.5v8.104a1.5 1.5 0 0 0 1.5 1.5h8.083a1.5 1.5 0 0 0 1.5-1.5V59.78a1.5 1.5 0 0 0-1.5-1.5" fill="#004098"/></svg>