<svg width="406" height="128" fill="none" xmlns="http://www.w3.org/2000/svg"><path d="m14 14.181.222 99.589c18.617.628 29.44-3.989 38.048-10.158 6.944-4.95 11.303-11.193 14.406-17.214 2.955-5.725 3.51-10.121 7.794-14.517 2.401-2.475 5.504-5.135 11.747-7.61v-.295c-5.393-2.069-9.457-4.692-11.931-7.831-1.035-1.33-.85-1.441-.444-3.067 3.066-11.635 14.85-20.538 26.19-22.607l-.147 67.009c-5.172-.259-10.454-3.177-14.296-5.984-4.654-3.399-8.053-7.868-10.602-13.077l-.406-.148c-1.736 6.206-4.359 11.489-7.573 16.18 9.383 13.446 24.86 20.169 46.988 19.504l.037-99.663c-8.977-.628-16.956.222-23.9 2.549-13.779 4.654-23.235 14.185-27.299 22.607-4.95 10.232-7.794 20.538-20.908 24.121-.517.74-.369.518.407.813 5.208 2.106 9.604 4.84 12.3 8.976-.036 3.288-4.875 11.045-8.495 14.702-4.803 4.876-10.86 7.758-17.658 9.494l-.11-67.046c12.559 2.29 20.02 9.974 25.192 20.17 1.515-6.687 4.212-12.486 7.832-17.51C49.979 19.574 34.464 12.778 14 14.181" fill="#b41d22"/><path d="M163.2 18.687c.111-1.145-.333-1.293-.406-1.81-.185-1.514.221-2.253 1.256-2.142 1.736.369 3.435.923 5.023 1.551 1.552.628 3.325.37 4.802 1.256.665.406.813-.11 1.774 2.069-.259 1.514.295 2.548 2.955 2.29 7.535-.074 14.406.665 16.992 6.981.776 3.768-.813 3.51-1.662 4.248-.961.85-2.291.924-3.953.333-1.736-1.478-7.166-1.367-4.802-3.362 1.958-1.588 3.472-2.364 2.992-3.657-.295-.812-1.034-1.551-3.398-1.477-3.583-.296-5.726.517-8.349.221-1.108-.11-2.031.776-2.253 1.552-2.216 3.768-2.77 2.955-3.99 3.103-1.477.184-2.77-.776-4.026-2.29-.517-.96-2.364-.591-4.654.221-1.515.517-3.214 1.478-4.802 1.884-2.623.037-6.502-2.253-5.246-3.214l12.264-2.77c1.552-.591 2.069-1.478 1.552-2.623-.333-.665-1.515-1.477-2.069-2.364m-14.665 8.422c.517 1.81 1.219 2.808 1.477 4.138.407 1.883.776 4.063-.184 5.8-.517.96-.887 2.548-1.589 3.693-1.736 1.662-2.955.739-4.026.259s-1.884-1.478-2.438-3.03c-.702-1.218-.333-3.213.997-5.91.591-1.182 1.663-2.4 2.291-3.915 1.514-3.251 2.585-2.956 3.472-1.035m13.889 9.124c3.916-2.327 7.24-3.767 9.494-3.509 1.81.222 2.918.776 3.398 1.662.48.887 1.108 2.586-.554 3.768-3.288 2.623 2.327 3.03 3.509 4.544 3.546 6.058-2.881 4.543-1.145 9.826.591 2.77-2.068 3.62-6.206 3.583-3.878-.332-4.248.591-4.95.665-3.139.332-5.43.074-6.021-1.404-1.44-2.623-.148-5.726-3.731-8.68-.591-1.59-.295-2.217.702-2.143 1.108.11 2.586 1.256 5.615 2.696 1.367.554 1.034 1.404 1.662 1.81 2.032 1.367-1.403 4.396 1.736 4.47 2.402-.59 4.064-1.551 4.987-2.992 1.995-1.995.628-3.546-1.403-3.398-.739.074-1.552.184-2.623-.185-1.293-.406-1.367-1.034-.739-1.847.739-.924 2.844-1.81 4.433-3.214.886-1.551.148-2.105-1.256-1.995-.739.074-1.847.702-2.623.665-4.58-1.884-5.615-3.287-4.285-4.322m9.863 29.33c2.179.333 2.918.185 3.288 1.884.48 2.032-.924 1.847-2.808 3.177-1.81 1.072-2.438 2.106-.48 3.103 3.583-.665 2.807.148 3.435.185 1.146.074 2.106-.111 2.143-.96.665-3.214 3.325-6.797 1.995-9.605-1.145-2.032-3.879-2.032-7.462-.886-1.625 1.034-2.143 2.4-.111 3.103m-18.248-1.81c1.736 1.7 5.319 3.547 5.245 5.098 1.219 2.438-.111 7.536 3.694 7.351 2.327-.332 3.916-1.477 4.248-2.438.296-.776.85-2.475-1.514-2.955-.739-.148-1.478.074-2.143-.406-.812-.591-.111-1.663 1.293-1.847.628-.074 1.293-.555 2.069-.887 2.216-.997 1.404-3.62-.185-3.066-.96-.037-1.699.776-2.512.924-1.256.221-2.327.073-2.955-.407-1.921-.886-1.551-1.773.406-2.66 4.322-.295 6.613-2.77 9.235-2.511 2.254-.813 4.507-1.478 6.76-1.256 3.103-.702 5.726.96 7.979 4.58 1.145 2.253 1.884 4.36-.148 5.283-.997 1.034-1.699 3.14-2.585 4.728-1.441 2.623-2.808 4.728-4.211 7.35-.85.777-1.256.481-1.884.444-.961-.074-1.035-4.1-3.251-4.174-4.322-.259-6.095 1.404-8.09 1.44-2.364.038-2.992-1.33-4.47-1.44-.738 1.182-1.662 1.588-2.733 1.293-1.847-1.33-3.103-2.475-3.953-3.472-.369-.444-.073-2.365-.258-3.177-.407-1.737-1.404-3.288-2.512-5.246-.997-3.694.148-4.063 2.475-2.549m64.09-40.596c2.475.812 3.879 2.105 4.396 3.878.369 1.22.148 2.697-.813 4.544-.147 1.256-1.588 1.551-2.327 1.773-1.847.591-3.472-1.034-4.913-4.285-.258-.59-.369-1.477-.776-1.958-.665-2.068-.221-3.361.074-4.1.296-.665 2.217-.591 4.359.148m-4.876 16.475c1.108.517 1.699 1.293 2.29 1.625.924.517 1.589.665 2.328.998 1.514.664 1.662 2.992.775 4.063-.997 1.182-1.847 1.995-4.026 4.248-.997 1.367-2.143 1.182-2.327-.037-.37-2.216-1.626-5.282-2.66-6.65-.739-1.144-.739-1.994-.517-2.696.369-1.108.923-3.324 4.137-1.551m.48 24.602 7.388-16.217c1.035-1.071 1.552-1.145 1.589-.184 0 .258-.037.48-.074.923-.961 2.032-1.736 4.248-2.401 5.873-5.984 14.665-1.515 14.185-5.578 20.243-.961 1.22-2.069 1.44-2.697.924-1.256-1.035-2.512-2.992-2.955-4.248-.406-1.22-.406-2.697-.185-4.36.739-2.844 1.478-4.69 2.143-2.954.96 2.475 1.884 2.031 2.77 0m20.576-3.436c-.998-.628-1.441 0-1.441 1.626-.037 1.994.554 3.103 2.069 2.88.775-.11 1.071-.368 1.551-.96 1.145-1.514.443-2.696-2.179-3.546m1.847-40.855c-1.441-1.145-1.884-2.069-1.293-2.734.517-.554 1.108-1.292 3.435-1.33 1.367 0 2.18.333 3.546.961 3.029 1.367 4.803 3.916 4.766 7.72.258.74 2.438 1.663 2.77 2.55.517 1.44-.554 2.918-3.657 4.543-3.435 1.477-3.916 2.881-4.654 4.026-.591.924-.776 1.663 0 2.217 1.81.48 2.142-3.436 5.467-.85 1.958 1.071 3.62 2.18 4.285 3.435.332.665.074 1.035.148 2.106l-.665 17.288c-.333 2.844 1.219 3.177 4.1 1.81 2.955-.813 5.098-.296 6.206 1.92.554 1.109.628 1.737.184 2.845-.295.776-.701 1.256-1.514 1.478-1.182.295-2.734-.185-4.691-1.7-3.805-2.105-6.059-.997-6.723 3.251-.296 1.293-1.515 1.034-2.032.887s-.887-.776-1.108-1.847c-.222-2.143-1.552-2.143-2.512-2.217-.85-.074-1.81.407-2.918 1.515-1.737 1.884-3.288 4.21-4.803 5.984-1.588 1.847-3.066 3.361-4.395 4.433-1.81.997-1.958.11-2.217-.148-.258-.258-.074-.739.591-1.404 4.211-4.47 6.871-9.382 2.032-7.868-2.807.776-5.578 2.032-8.422 2.364-2.069-.665-2.919-2.327-3.103-2.955-.111-.332.037-.628.443-.776.148-.073.333-.147.554-.184 1.736-.074 4.027-.222 5.283-.296 2.364-.11 4.506-.332 4.617-1.514l.554-20.576c.85-2.031 1.773-2.364 2.734-.184.221 1.366.775 1.773 1.477 1.699.85-.111 1.293-1.145 2.955-1.7 1.921-.258 3.214-.11 3.731.555.444.59 1.441 1.588-.591 3.029-.96.812-2.105 1.071-3.14.702-2.031-.702-3.804-1.256-4.137 2.142-.222 1.81-.185 4.137-.258 6.206-.148 1.736.184 2.77 1.736 2.18 3.25-2.032 5.873-3.916 8.053-2.254 1.219 1.071 1.256 2.18-1.441 3.288-1.182.443-1.958 1.034-1.108 2.18.258.332.369.775 1.219 1.181 1.256.074 2.179-.221 3.213-.295 1.293-.111 1.367-1.626 1.072-3.916-.074-6.427.037-13.298-.813-17.435-.997-1.921-2.401-2.845-4.654-1.589-1.847 1.663-3.214 1.182-4.47 1.404-1.33.258-2.179.074-1.884-1.22 2.253-2.954 3.694-5.54 1.293-6.39-2.143-.702-3.953-.665-4.654-1.182-.776-.59-.481-1.293.886-2.142 2.143-1.589 6.612-1.256 6.465-4.728-.222-2.993-.555-5.837-1.958-6.465m.369 32.396c1.404-.96 3.731-1.773 4.728-.85.628.592.813 1.367.333 2.882-.222.665-2.771.739-4.655.48-2.844-.074-1.477-2.106-.406-2.512m7.019 22.644c-3.251-1.736-2.364-2.512.406-2.807 4.322-.185 7.61 1.034 8.57 5.356.517 1.773.222 2.807-.702 3.325-.443.258-1.625.517-2.179.627-.702.148-1.552.074-2.254-.443-1.256-2.031-1.957-5.097-3.841-6.058m61.837-36.09c-1.219-.813-1.773-.222-2.032 1.034-.259 1.035-.148 2.956-.222 4.396.591 1.404 2.401 1.035 5.061-.59.702-.518 1.219-1.146 1.552-1.922.258-.59.591-1.44.406-1.995-.702-1.034-3.62-.517-4.765-.923m-.961-2.955c1.33-.259 3.362-1.773 5.024-2.697 1.884-.96 1.441-1.92 1.478-2.66 0-.812.147-1.699-.776-1.994-2.844.074-2.438 1.33-3.251 1.44-1.293.185-2.068-.221-2.696.26-1.663.627-1.367 3.176-1.256 4.173.037.85.517 1.367 1.477 1.478m-5.873-8.533c-.222-.85-.037-1.256.406-1.552.333-.184.702-.997 2.364.517 1.182 1.552 3.288.776 6.058-1.551.924-1.551 1.109-2.697 2.475-2.992 1.219-.259 2.549.739 4.138.665 2.733 1.071 4.58 2.549 5.245 4.543.517 1.663.739 4.064-1.108 6.206-1.478.96-1.293 2.069-1.736 2.992-.444.96-.813 1.81-1.145 2.586-.481 1.071-.037 2.106.775 2.808 1.478 1.773 1.33 3.324-1.145 4.58-1.736.665-1.81 1.515-.185 2.586 1.7 1.551 1.146 3.177.444 4.839-.259.628-.702 1.182-.924 1.81-.554 1.588.628 2.586 1.995 3.398 2.032 1.256 4.359 3.399 9.346 5.874 2.549 1.367 10.897 2.512 8.57 4.1-1.072.702-2.771.924-3.99 1.145-2.142.407-4.58.665-7.351.813-2.659-.628-7.794-7.425-11.525-10.158-1.034-.776-.96-.74-1.958-.074-1.071.702-2.29 1.256-3.62 1.699 1.108-1.884 2.364-2.512 2.697-3.14.48-.923-.517-2.069-2.217-3.51-1.219-.849-1.699-1.403-1.477-1.735s.702-.85 2.881-.185c.776.295 1.367 1.182 1.884 1.367 1.515.59 2.216-.74 2.106-4.322-.037-2.401-1.035-3.177-2.66-2.808-1.256.554-3.066 1.293-4.544 1.367-.923.037-1.551.776-1.625 1.625-.554 2.55-.296 5.172-.48 7.758-.259 4.026-.517 8.09-.776 12.116.259 2.697 2.512-.11 4.765-2.18.85-.812 1.441-1.07 1.699-.775.259.295.407 1.145-.11 2.623-2.992 5.799-5.948 9.456-8.718 7.461-1.182-.665-1.884-1.44-2.512-2.475-.369-.59-.406-1.366-.332-2.18.073-.812.517-1.403.775-2.659.665-3.472 1.145-7.13 1.478-10.897.48-5.873.96-12.449 1.182-18.026.148-4.876 0-11.156-1.145-14.26m49.093-4.174c-.074-1.663.295-2.217.812-2.845.85-.997 2.549-.628 3.879.628.443.444 1.071.665 1.625.96 3.177 3.842 4.987 6.502 3.399 9.31-.85 1.477-1.958 3.14-4.174 4.654-2.365 1.256-2.993 2.66-1.847 3.768 1.477 1.403 4.469 3.509 3.915 6.575-.517 2.807-3.103 5.91-7.166 9.161-2.512 1.92-5.282 5.282-8.016 7.979-1.404 1.182-1.773.074-1.995-.185-.221-.258 0-.738.665-1.477 1.182-1.884 2.032-3.731 3.62-5.763.111-.148.148-.37.185-.59.591-2.143 1.921-3.695 2.955-5.172 1.071-1.552 1.921-3.547 2.586-4.913 1.034-2.143.997-3.916-.037-4.655-.813-.812-4.876 1.293-5.837-.11-.591-.85-.591-2.254.37-4.581.886-1.478 2.807-3.62 3.989-5.467a51 51 0 0 0 1.552-2.734c.739-1.404-.517-2.105-.48-4.543m.258 37.9c.591-1.773 1.367-2.217 2.475.184.185.48.111 1.256.185 1.847.074.924.148 1.847.258 2.734.259 2.105-.11 4.248-.812 6.28-1.773 3.767-2.438 3.583-3.103 3.841-.776.259-1.367-.628-1.847-2.142a5.82 5.82 0 0 1-.739-3.805c.296-2.364 1.404.554 3.583-8.94m19.246-34.206c1.219-.85 2.142-1.035 3.62-2.586.369-1.33 1.256-2.29 3.842-2.143.886-.665 2.696-.554 5.319.296 3.103.96 2.77 3.805 2.438 5.282-.222 1.034-1.145 1.921-3.029 2.586-2.992.185-2.992 1.071-4.322 1.44-1.958.518-3.62.702-4.876.333-.554-.148-.591-1.108-2.18-1.514-.406-.185-.443-.444-.775-.628-.333-.185-.739-.222-.961-.444-.739-.701-.739-1.514.924-2.622m-7.536 19.097 7.573-2.068c1.81-.259 3.62-.776 5.393-1.478 1.071-.443 2.29-.37 3.435-.665 1.441-.37 3.288-.96 4.322-1.44.333-.185.739-.222 1.145-.296.517-.11 1.219-.11 1.81-.702.702-1.699 3.214-1.551 7.204.185 3.066 3.546 1.44 4.396.997 5.393-.296.665-.924.998-1.958.924-3.915-.85-7.609-.702-10.417-.407-1.219.407-1.219 1.072-.702 1.847 1.921.887 2.623 1.884 2.438 2.919-.074.406-.517.295-.554 1.218l.407 12.597c0 4.765-.259 9.493-.776 14.259.037 2.327-1.404 2.844-2.106 3.435-.96.813-1.884.702-2.807.148-1.515-3.731-3.768-6.686-6.908-8.792-.923-.702-1.404-1.219-1.404-1.514.037-.407.481-1.22 2.771-.111 1.367.665 2.66 1.182 3.583 1.403.924.222 1.662-.48 1.921-1.92.554-7.425.148-14.702-.776-21.942-.074-1.293-1.108-2.18-2.586-1.884-1.403.295-3.324.628-5.393.997-1.773.332-3.361 1.219-5.43 1.071-2.253-.295-2.364-1.145-2.512-1.736-.037-.48.333-.96 1.33-1.44M283.106 65.86c-.85.517-1.182 1.256-1.293 2.069.296.812.924.738 1.884-.148.554-.517.702-.702.702-1.478-.037-.96-.443-1.108-1.293-.443m8.459-6.501c.924.812 1.404 1.847 1.256 2.4-.185.629-.406 1.33-3.103 1.183-.591-.037-1.145-.628-1.736-.074l-1.256 1.551 1.552 2.106c2.659-.924 4.654-1.404 5.614-1.182.739.184 1.293 1.293.111 2.032-3.14 1.699-5.504 2.29-7.609 3.435-1.847.997-3.51 1.958-5.246 2.807-.96.48-2.438 1.33-3.103 1.33-3.657-.886-4.617-2.031-5.467-2.807-1.034-.887-.776-1.552.37-2.032 6.316-.222 10.749-.923 6.205-3.805-1.329-1.256-2.031-5.097-1.957-6.243.037-.443.221-.701.517-.775.332-.074.554-.444 1.404.37 1.44 1.81 3.029 2.179 4.654 1.107 1.441-1.736.443-3.324-2.253-3.62-5.541-1.773-4.581-3.14 0-4.322 4.063-2.327 3.435-3.066 2.512-4.248-.555-.702-1.589-.628-2.402-.886-1.625-.518-2.548-1.072 1.515-3.251 2.364-1.293 1.699-2.844 1.625-3.805-.111-1.256-1.108-3.177-2.696-2.696-.591-.074-1.958 1.108-3.731 2.918-1.293 1.33-1.441.443-4.396 4.839-.259.517-1.145.185-1.736.296s-.961-.148-.517-1.663c1.182-2.992 4.322-6.686 6.76-10.195 3.472-4.987 6.39-9.605 4.506-11.562-.406-.591-.406-1.035 0-1.404.517-.48 1.552-3.214 3.805-.739 1.071 1.478 2.106 2.919 3.177 4.396.739.997-.111 1.958 2.179 2.992 2.475.037 4.211 1.256 4.729 4.47.332 1.44-.591 2.253-2.365 2.586-.073 0-.184.074-.258.037-.739-.259-2.438.221-3.99.147-.48.111-.147-1.034-.11-1.662.11-1.515.406-3.14-1.884-2.512-2.475 2.106-4.101 3.953-2.882 4.84 2.143.886 3.731 2.068 4.692 3.546 1.145 1.81 2.696 5.097.554 6.944-1.81 1.552-1.699 3.066-.628 3.14.96.074 1.921.443 2.512 1.034.775.813.923 2.77-.481 3.547-2.622.886-4.543 1.994-4.617 2.992-.037.554.074 1.33 1.662 1.44 1.108.222 1.626.222 2.512.998m94.122 53.082h-7.72a68 68 0 0 0-3.14-4.396c-.923-1.182-2.142-2.66-3.583-4.433h-.702v6.022c0 .332.074.591.185.812s.369.407.702.554c.147.074.406.148.739.222s.628.111.96.148v1.071h-10.343v-1.071c.258 0 .591-.037 1.034-.074s.776-.074.961-.148c.332-.111.554-.295.701-.517.111-.222.185-.517.185-.85V96.223c0-.332-.074-.59-.185-.812-.11-.222-.332-.407-.701-.591a6 6 0 0 0-1.035-.296c-.406-.074-.738-.148-.96-.148v-1.034h10.675v1.034a30 30 0 0 1-1.034.111 4 4 0 0 0-1.034.222c-.37.11-.591.295-.702.554a2.05 2.05 0 0 0-.185.85v6.464h.591a96 96 0 0 0 2.475-2.29q1.44-1.33 2.217-2.217c.738-.812 1.256-1.44 1.625-1.883.332-.48.517-.887.517-1.22 0-.147-.185-.258-.48-.369a10 10 0 0 0-1.515-.185V93.38h8.46v1.034c-1.035.111-1.884.296-2.586.555-.702.258-1.404.701-2.069 1.292a55 55 0 0 0-2.401 2.254l-2.438 2.438a443 443 0 0 1 3.177 3.878c1.219 1.515 2.475 2.992 3.694 4.47.295.369.665.739 1.071 1.071.406.333.85.591 1.33.813q.332.166.776.222c.295.073.554.073.738.073zm-25.488-18.064c-.258.037-.628.074-1.108.148s-.887.259-1.293.517c-.332.259-.591.665-.739 1.256s-.221 1.44-.221 2.586v13.668H354.4l-12.117-14.776v8.976q0 1.662.222 2.549c.148.591.406.997.739 1.293.258.185.628.369 1.182.517s.96.259 1.293.296v1.071h-8.349v-1.071c.37-.037.776-.074 1.219-.185s.85-.259 1.146-.48c.369-.259.591-.665.738-1.182.148-.518.185-1.404.185-2.66v-9.05c0-.444-.074-.887-.222-1.293a2.75 2.75 0 0 0-.665-1.034 4.4 4.4 0 0 0-1.108-.74c-.406-.184-.886-.295-1.403-.406v-1.07h7.351l10.638 12.928v-7.24c0-1.145-.074-1.995-.221-2.586-.148-.554-.407-.96-.739-1.256-.259-.222-.665-.37-1.182-.517s-.924-.259-1.256-.296v-1.034h8.348zM326.03 104.72l-2.808-6.945-2.77 6.945zm10.232 7.72h-10.601v-1.071c.48-.037 1.071-.111 1.736-.259s.997-.295.997-.517c0-.074 0-.148-.037-.259a1 1 0 0 0-.111-.369l-1.662-3.953h-6.723c-.148.37-.332.813-.517 1.293-.185.481-.37.924-.48 1.33-.185.517-.259.85-.296 1.108-.037.222-.037.37-.037.481 0 .295.222.517.665.738q.665.278 2.216.444v1.071h-7.979v-1.071c.296 0 .628-.074 1.035-.148q.554-.111.886-.333c.37-.221.702-.48.961-.812.258-.296.48-.702.665-1.108 1.071-2.512 2.105-5.061 3.176-7.61s2.254-5.32 3.51-8.385h2.733c1.81 4.322 3.177 7.757 4.211 10.269a230 230 0 0 0 2.586 6.243c.111.258.259.517.443.738.185.222.444.444.776.628q.388.222.887.333c.332.074.628.111.923.148v1.071zm-30.069-5.356c0-1.33-.406-2.364-1.219-3.066-.812-.702-1.958-1.072-3.472-1.072-.185 0-.406 0-.702.037-.295 0-.517.037-.628.037v7.019c.074.332.333.628.776.849q.664.333 1.551.333c1.072 0 1.958-.369 2.66-1.071.665-.739 1.034-1.737 1.034-3.066m-.96-9.161c0-1.072-.296-1.884-.924-2.475-.591-.591-1.514-.887-2.733-.887-.185 0-.406 0-.665.037-.259 0-.517.037-.702.037v7.092h.702c1.478 0 2.586-.332 3.288-1.034.664-.702 1.034-1.625 1.034-2.77m4.396 5.762a5 5 0 0 1 1.44 1.478q.554.887.554 2.105c0 .961-.221 1.773-.628 2.475-.406.665-.997 1.182-1.81 1.589-.812.406-1.773.702-2.844.886s-2.327.259-3.805.259h-10.084v-1.071c.295-.037.628-.074 1.071-.111.443-.074.739-.111.887-.185.332-.148.554-.295.701-.517.111-.222.185-.517.185-.85V96.26c0-.332-.037-.59-.148-.812s-.332-.407-.738-.554a6.4 6.4 0 0 0-.998-.296c-.369-.074-.702-.148-.997-.185V93.38h10.565c2.659 0 4.58.37 5.762 1.071 1.182.702 1.773 1.773 1.773 3.177 0 .628-.148 1.22-.406 1.7a3.8 3.8 0 0 1-1.145 1.292 6.5 6.5 0 0 1-1.589.85c-.628.258-1.293.443-1.994.591v.258c.701.074 1.44.222 2.216.481a6 6 0 0 1 2.032.886m-32.618-9.309c-.259.037-.628.074-1.108.148s-.887.259-1.293.517c-.333.259-.591.665-.739 1.256s-.222 1.44-.222 2.586v13.668h-2.438l-12.116-14.776v8.976q0 1.662.222 2.549c.148.591.406.997.739 1.293.258.185.628.369 1.182.517s.96.259 1.293.296v1.071h-8.349v-1.071c.37-.037.776-.074 1.219-.185s.85-.259 1.145-.48c.37-.259.591-.665.739-1.182.148-.518.185-1.404.185-2.66v-9.05c0-.444-.074-.887-.222-1.293a2.75 2.75 0 0 0-.665-1.034 4.4 4.4 0 0 0-1.108-.74c-.406-.184-.886-.295-1.404-.406v-1.07h7.315l10.638 12.928v-7.24c0-1.145-.074-1.995-.222-2.586-.147-.554-.406-.96-.738-1.256-.259-.222-.665-.37-1.182-.517-.518-.148-.924-.259-1.256-.296v-1.034h8.385zm-34.169 10.344-2.808-6.945-2.77 6.945zm10.195 7.72h-10.602v-1.071a12 12 0 0 0 1.737-.259c.665-.148.997-.295.997-.517 0-.074 0-.148-.037-.259a1 1 0 0 0-.111-.369l-1.662-3.953h-6.723c-.148.37-.333.813-.517 1.293-.185.481-.333.924-.48 1.33-.185.517-.259.85-.296 1.108-.037.222-.037.37-.037.481 0 .295.222.517.665.738q.665.278 2.216.444v1.071h-7.979v-1.071c.296 0 .628-.074 1.035-.148q.554-.111.886-.333c.37-.221.702-.48.961-.812.258-.296.48-.702.665-1.108 1.071-2.512 2.105-5.061 3.176-7.61s2.254-5.32 3.51-8.385h2.733c1.773 4.322 3.177 7.757 4.211 10.269a230 230 0 0 0 2.586 6.243c.111.258.259.517.443.738.185.222.444.444.776.628q.388.222.887.333c.332.074.628.111.923.148v1.071zm-24.343 0h-10.786v-1.071c.258 0 .591-.037 1.071-.074s.812-.074.997-.148c.333-.148.554-.295.702-.517.111-.222.185-.517.185-.85V96.223c0-.295-.074-.59-.185-.812s-.332-.407-.702-.554c-.221-.111-.554-.185-.96-.259-.444-.11-.813-.148-1.108-.185V93.38h10.786v1.034c-.259.037-.628.074-1.034.111s-.776.111-1.035.222c-.369.11-.591.295-.702.554-.11.258-.184.517-.184.85v13.556c0 .333.074.591.184.813.111.222.37.406.702.554.185.074.517.148.961.222s.812.111 1.108.148zm-20.797-3.435c.443-.702.776-1.589.96-2.586.222-.998.296-2.143.296-3.436 0-1.256-.148-2.401-.406-3.472q-.388-1.55-1.22-2.66a5.2 5.2 0 0 0-1.994-1.699c-.776-.406-1.699-.59-2.697-.59-.332 0-.665 0-1.108.036-.406 0-.702.037-.924.037v14.517c0 .333.037.628.111.85q.111.387.444.665.332.277.775.443c.296.111.702.148 1.182.148q1.552 0 2.66-.554c.85-.407 1.478-.961 1.921-1.699m2.807-13.705a8.84 8.84 0 0 1 2.882 3.066c.738 1.256 1.108 2.844 1.108 4.654 0 1.626-.333 3.029-.998 4.248-.665 1.182-1.514 2.18-2.585 2.956-1.109.775-2.328 1.329-3.731 1.699a17 17 0 0 1-4.396.554h-9.789v-1.071c.295 0 .665-.037 1.108-.074s.739-.111.887-.148c.332-.148.554-.332.701-.554a1.9 1.9 0 0 0 .185-.813V96.26c0-.295-.074-.59-.185-.85-.11-.258-.332-.443-.701-.59a3.5 3.5 0 0 0-1.109-.296 9 9 0 0 1-.886-.11v-1.035h10.343c1.108 0 2.29.148 3.546.406 1.219.222 2.438.74 3.62 1.515m-19.947-.924c-.259.037-.628.074-1.145.185-.517.11-.924.259-1.256.48-.333.222-.591.628-.739 1.22-.148.59-.222 1.477-.222 2.622v7.129c0 2.106-.701 3.768-2.179 5.061-1.441 1.293-3.362 1.921-5.726 1.921-2.77 0-4.913-.628-6.427-1.847-1.515-1.219-2.29-2.955-2.29-5.135v-9.789c0-.332-.074-.59-.185-.812s-.37-.444-.702-.591a3.5 3.5 0 0 0-.887-.296c-.332-.074-.628-.11-.849-.148v-1.034h10.232v1.034c-.295.037-.591.037-.886.111a5 5 0 0 0-.924.222c-.332.11-.591.295-.702.554a2.05 2.05 0 0 0-.184.85v9.641c0 1.884.443 3.287 1.292 4.137.85.85 2.069 1.293 3.694 1.293 1.589 0 2.845-.48 3.731-1.441.887-.96 1.367-2.364 1.367-4.211v-6.501c0-1.145-.074-1.995-.222-2.586-.147-.554-.406-.997-.738-1.219-.222-.185-.665-.37-1.256-.554-.591-.148-.998-.259-1.256-.296v-1.034h8.422v1.034zm-25.193 4.064h-1.071c-.259-.739-.739-1.552-1.404-2.364-.665-.85-1.293-1.293-1.921-1.367a18 18 0 0 0-1.108-.11c-.443-.038-.887-.038-1.256-.038h-3.029v7.499h1.921c.554 0 1.034-.074 1.441-.185a2.2 2.2 0 0 0 1.071-.665c.221-.221.443-.591.665-1.145.221-.517.332-.96.406-1.367h1.034v8.053h-1.034c-.037-.406-.185-.886-.406-1.477-.259-.591-.444-.961-.628-1.146a2 2 0 0 0-.998-.627c-.406-.148-.886-.222-1.477-.222h-1.921v6.354c0 .332.074.591.185.812.11.222.369.407.701.554.185.074.481.148.813.222.333.074.702.111 1.034.148v1.071h-10.49v-1.071c.258-.037.628-.074 1.071-.111s.739-.111.923-.185c.333-.111.554-.295.702-.517.111-.222.185-.517.185-.85V96.223c0-.295-.074-.59-.185-.812s-.332-.407-.702-.554a4.6 4.6 0 0 0-.997-.296c-.406-.074-.739-.148-.96-.185v-1.034h17.472v5.098z" fill="#000"/></svg>