<svg width="128" height="128" fill="none" xmlns="http://www.w3.org/2000/svg"><path d="M82.713 20.225s4.736 1.92 2.62 5.255c-2.821 3.84-9.37-2.325-20.355-2.122-8.766 0-21.16 3.335-22.268 8.893-.705.808-5.24 2.728-6.348 2.728-1.109 0-7.054-.303-7.76 0-2.014 2.223 0 7.68 1.916 10.409 1.914 2.728 10.076 2.728 15.215 1.01 5.139-1.717 10.782-4.648 12.595-5.659 1.814-1.01 6.953-2.122 12.495-1.415 5.542.708 14.188 3.234 15.054 15.058-.544 11.723-8 10.51-8.706 10.51s-3.627-1.213-.504-3.436c3.124-2.223 5.416-2.122 5.416-2.122s-6.575-4.245-6.045-13.87c0 0-7.75 6.821-19.216 8.261 0 0 3.95 3.41 4.857 6.215 0 0-3.325 1.09-6.726 3.918-.831-.204-.756-4.979-7.029-6.267-6.272-1.29-18.073 5.482-20.158 5.482s-3.697-.809-4.201-4.952c0 0-4.132 7.074-.706 14.855s15.694.683 22.42-4.547c-4.232 7.276-17.533 14.93-15.568 20.464 1.058 7.806 10.127-.38 10.505-.606.302 2.5-1.285 10.459.907 12.96 2.191 2.501 11.562 5.836 13.527 6.139 0 0-4.987-6.67-5.743-14.249-.358-7.275-.151-14.552.302-15.613.454-1.061 3.476-7.58 13.15-15.31 0 0 .831.91 1.058 5.457 0 0 4.08-3.758 6.046-3.774 1.965-.016 3.174-.85 4.08 1.424.908 2.274-1.36 3.714-3.778 5.382s-11.034 6.745-10.505 1.364c0 0-6.575 2.223-6.877 12.935S58.731 102.587 61.05 104c1.21.202.907-2.021.907-2.021s-1.41-10.814 1.612-14.855c3.023-4.043 7.96-12.835 28.214-15.563 4.635-.101 6.852 3.537 6.147 8.69-.705 5.154-5.038 14.149-15.82 19.909-4.938 1.819-8.968-2.425-8.767-7.276.202-4.85 8.449-11.163 14.813-7.58 0 0 0-4.75-9.07-4.244-9.068.505-14.207 8.085-14.207 14.25 0 6.163 3.628 10.913 6.55 12.075 3.627.657 9.37-1.667 12.192-3.284s14.61-6.973 20.455-22.03c1.612-4.043 2.494-9.853.907-11.445 0 0 1.36-2.35 1.512-7.807s-2.217-19.453-13.503-28.548c0 0 5.643-2.527 5.038-7.276-.604-4.75-4.736-7.883-15.316-6.771" fill="#d51719"/></svg>