<svg width="427" height="128" fill="none" xmlns="http://www.w3.org/2000/svg"><path d="M375.483 28.48c-1.906 4.483-7.982 9.882-7.982 9.882v33.95h-7.619V43.121c-1.995 1.646-6.712 3.112-6.712 3.112v-7.87c8.526-2.012 13.968-9.883 13.968-9.883zM372.743 14c-5.213 14.257-19.573 16.437-19.573 16.437v-7.174C360.03 21.355 364.968 14 364.968 14zm38.754.783v7.044h-33.665l.092-7.044zm-242.39.391v4.357h23.267a2.324 2.324 0 0 1 2.316 2.318v13.13h-50.75v5.58h48.434a2.324 2.324 0 0 1 2.316 2.316v13.131h-25.583v5.15h27.871v6.007h-27.871v5.54h-7.436v-5.54h-25.76v-6.007h25.76v-5.15h-24.472V19.531h24.472v-4.357zm45.879 38.744v12.524s-1.677 4.368-5.615 5.87l-.257-18.393zm22.288-27.786v12.224s-10.762-.517-10.762 0v5.18h11.178v5.801h-10.97V71.92h-6.164V50.062h-11.91v-6.215h10.657v-4.973h-10.891l-.081-11.602h5.852v6.526h17.03v-7.666zm5.394-5.747c0-5.013 5.527-4.405 5.527-4.405h20.598v6.229h-19.386V31.4h19.991v5.772h-3.181V71.13h-6.879V37.347h-9.672v25.917c-.008.17-.471 8.656-8.632 8.656-8.077 0-9.549-7.566-9.605-7.869l-.002-.009V53.234h6.263l.056 11.363s.302 2.43 2.424 2.43c2.12 0 2.498-2.507 2.498-2.507zm99.737 28.133.131 6.322H331.07c2.85 8.411 11.531 10.497 11.531 10.497v6.583c-19.616-4.407-19.944-22.651-19.949-23.38v-.022zm70.977-15.987v6.57h-8.987V67.57s.453 4.198-4.177 4.198h-15.071v-5.84h11.712s1.271.457 1.271-1.277V39.01h-20.517l.181-6.478zM338.22 15.957c2.29 0 4.164 1.886 4.164 4.19V43.9h-25.497v22.056h10.057v5.656h-13.25c-1.757 0-3.193-1.446-3.193-3.214v-52.44zm-32.615 17.22v5.577h-10.777v5.905h10.777v5.745h-10.451v12.795s-.489 2.625 2.612 2.625h8.821v4.922h-12.414s-5.88-.163-5.88-5.905V50.404h-6.368v-5.909h5.716l.163-11.319zm-117.468 11.56h-44.18v6.673h44.18zm147.723-11.97h-19.207l.032 5.92h19.175zM295.009 14l-.826 5.535h11.229v6.024h-14.53s-4.291 5.698-9.74 8.791v-7.326s7.594-5.697 7.265-13.024zm-106.873 9.984h-44.179l.001 6.673h44.178zM335.86 21.33h-19.207l.032 5.92h19.175zM226.562 14v3.083h10.345v5.527h-29.359l.104-5.314h11.702V14zm-90.65 98.621V89.548h8.926c1.817 0 3.274.238 4.369.699q1.653.701 2.582 2.159.933 1.452.935 3.046 0 1.476-.83 2.783c-.548.87-1.384 1.574-2.497 2.111 1.439.409 2.541 1.107 3.316 2.09q1.164 1.482 1.163 3.497a6.6 6.6 0 0 1-.707 3.014q-.707 1.393-1.745 2.149c-.693.504-1.563.88-2.603 1.139q-1.562.386-3.838.386zm3.15-13.376h5.145q2.087-.002 3.002-.269 1.197-.344 1.805-1.15t.609-2.013c0-.764-.187-1.44-.564-2.02q-.575-.878-1.623-1.199-1.055-.322-3.621-.322h-4.753zm0 10.653h5.921q1.529-.002 2.142-.107c.727-.13 1.33-.339 1.818-.635.487-.289.885-.72 1.201-1.278.31-.565.472-1.209.472-1.945q-.001-1.288-.683-2.245-.68-.952-1.894-1.338c-.803-.253-1.966-.381-3.478-.381h-5.499zm18.395 2.723 9.137-23.073h3.389l9.735 23.074h-3.588l-2.773-6.99h-9.948l-2.608 6.989zm6.861-9.476h8.069l-2.487-6.388c-.753-1.939-1.318-3.534-1.683-4.786a29 29 0 0 1-1.286 4.41zm19.745 9.476V89.548h3.228l12.494 18.115V89.548h3.019v23.074h-3.229L187.08 94.49v18.131zm25.76 0V89.548h3.151v11.443l11.813-11.443h4.263l-9.978 9.348 10.416 13.725h-4.154l-8.468-11.679-3.892 3.686v7.993zm30.586-11.237c0-3.83 1.057-6.83 3.179-8.993q3.18-3.249 8.212-3.25c2.193 0 4.176.51 5.937 1.524a10.14 10.14 0 0 1 4.032 4.26c.924 1.817 1.384 3.885 1.384 6.19 0 2.341-.482 4.436-1.457 6.279-.974 1.849-2.353 3.245-4.136 4.196-1.789.951-3.71 1.423-5.777 1.423-2.242 0-4.242-.521-6.003-1.573q-2.648-1.575-4.008-4.298a12.7 12.7 0 0 1-1.363-5.758m3.245.047c0 2.783.77 4.969 2.309 6.571q2.316 2.4 5.804 2.401 3.556.001 5.847-2.423c1.53-1.617 2.299-3.911 2.299-6.882 0-1.874-.332-3.513-.985-4.915-.654-1.403-1.612-2.487-2.868-3.261q-1.894-1.153-4.242-1.154c-2.233 0-4.149.74-5.755 2.229-1.606 1.482-2.409 3.964-2.409 7.434m25.582 11.19V89.548h16.049v2.724h-12.898v7.145h11.159v2.723h-11.159v10.481zm29.546 0V89.548h16.048v2.724h-12.898v7.145h11.159v2.723h-11.159v10.481zm37.605-23.073h3.151v13.334q0 3.474-.814 5.522-.815 2.045-2.931 3.325c-1.411.86-3.261 1.284-5.555 1.284-2.225 0-4.052-.37-5.464-1.117q-2.129-1.114-3.035-3.234c-.609-1.413-.909-3.336-.909-5.78V89.548h3.146v13.318q.001 3.006.575 4.425c.383.952 1.047 1.682 1.978 2.198.936.515 2.083.773 3.433.773q3.472 0 4.952-1.531 1.472-1.522 1.473-5.865zm7.833 23.074 9.204-12.024-8.114-11.05h3.744l4.32 5.92q1.346 1.838 1.911 2.832a30 30 0 0 1 1.882-2.628l4.79-6.124h3.423l-8.356 10.874 9.004 12.2h-3.894l-5.986-8.23a44 44 0 0 1-1.041-1.542 45 45 0 0 1-1.135 1.729l-5.97 8.043zm26.983 0h3.145V89.548h-3.145zm10.524 0V89.548h3.229l12.494 18.114V89.548h3.018v23.073h-3.228L384.745 94.49v18.131h-3.018z" fill="#1b1918"/><path d="M18.298 14H105.2a4.31 4.31 0 0 1 4.298 4.299v72.244c-12.82-4.606-29.504-7.39-47.75-7.39-7.57 0-14.873.48-21.742 1.37v-3.27s.763-2.857 5.145-2.857H83.07s14.67.215 14.67-10.45c0-8.869-16.194-7.238-19.243-7.238h-38.3s-4.763-4.19 1.144-5.334H82.88S98.695 54.232 98.695 44.9s-15.624-9.523-15.624-9.523H46.868s11.05-8.951 11.241-12.952H45.914s-11.432 12.38-18.482 12.38c0 0 4.382 4 4.382 6.666l48.589.572s5.144-.572 5.144 3.238-4 3.047-5.144 3.047H37.721s-13.529-.762-13.529 8.19 7.812 10.285 14.291 10.285h41.349s4.955 0 4.955 3.238-3.622 2.857-4.575 2.857h-42.3s-8.758.934-8.951 13.482C23.558 87.51 18.537 88.912 14 90.542V18.3a4.31 4.31 0 0 1 4.298-4.3" fill="#005bac"/><path d="M109.498 96.293v13.375c0 2.383-1.934 4.332-4.298 4.332H18.297c-2.363 0-4.297-1.949-4.297-4.332V96.293c4.796-1.186 10.134-2.195 15.894-2.995 2.583 8.128 9.647 10.941 10.114 10.941V92.153c6.869-.612 14.17-.942 21.741-.942 18.245 0 34.93 1.914 47.749 5.081" fill="#f08300"/></svg>