<svg width="532" height="128" fill="none" xmlns="http://www.w3.org/2000/svg"><path d="M301.051 68.901s-3.32 2.494-7.471 4.989c-1.66-2.495-2.076-4.989-2.491-6.236h12.038V39.386h-28.641v46.975s1.66 1.248 3.32 3.326c3.321-.831 8.302-1.247 9.547-1.247v-6.651c-2.075 0-5.396.415-6.226.415V67.24h1.66c.831 6.236 9.132 18.707 17.019 22.864l5.396-5.404c-4.566-2.91-7.472-5.405-7.886-6.236q3.538-2.48 7.056-4.988l-3.32-4.573zm-19.509-12.055h14.528v4.573h-14.528zm14.528-5.82h-14.528v-4.573h14.528zm-39.848-12.472s-.415 9.146-5.811 18.708l4.151 5.82h3.32v4.572h-6.641v7.067h6.641v12.056l3.321 3.325c1.66-.415 6.641-1.247 10.792-1.247V82.62c-3.32 0-6.641.416-7.056.416v-8.73h7.471v-7.068h-7.471v-4.573h6.226V55.6h-12.037c.415-1.248 1.245-2.91 1.66-4.158h11.622v-7.067h-9.962c.83-3.325.83-5.82.83-5.82zm-90.904 0s1.245 3.326 1.66 6.236h-21.999v23.696c0 4.988-.831 12.47-7.057 19.122l5.812 4.573c9.132-10.393 8.716-22.448 8.716-27.437V51.857h39.433V44.79h-17.018c-.415-3.742-1.245-6.236-1.245-6.236zm74.716 25.359-4.151-4.573h-21.17c.415-1.247 1.246-3.326 1.661-4.157h29.471v-7.067h-5.396c-1.246-4.989-.831-4.158-2.906-9.562h-7.886s2.075 5.82 2.905 9.562h-14.943c1.245-4.989 1.245-9.562 1.245-9.562h-7.056s0 4.573-1.246 9.562h-7.056c1.66-5.82 1.66-9.562 1.66-9.562h-7.056s0 4.573-2.491 12.056l3.736 4.573h9.547c-2.075 5.82-6.641 15.797-16.603 25.358l4.981 4.989c6.641-6.236 10.377-12.056 13.282-17.044 1.246 2.078 6.642 7.898 7.472 8.73-5.396 3.325-10.792 4.988-17.018 5.82l2.905 7.066c8.302-1.663 14.943-4.572 19.924-7.898 5.396 4.157 12.453 6.235 20.339 7.898l2.491-7.066c-6.641-.832-12.453-2.495-17.018-5.405 4.565-4.157 8.716-8.73 10.377-13.718m-8.458 1.455c-1.245 2.494-6.071 7.69-7.731 8.938-2.075-1.663-6.226-6.444-7.471-8.938zm95.211-26.814h-7.057c-.415 6.236-7.056 12.887-9.962 14.55l3.32 6.236c6.227-2.91 13.283-14.134 13.699-20.786m-3.736 13.719c-1.246 7.483-9.962 15.381-14.528 17.46l2.905 6.65c2.491-1.246 4.567-3.325 6.227-4.572v18.707h7.056V65.16c2.491-3.326 4.566-7.898 5.396-12.887zm10.377-12.056h27.396V47.7h-27.396zm-2.075 16.213v7.067h18.263v19.539s-6.641-.832-11.622-.416v6.65c6.641 0 19.094 1.248 19.094 1.248V63.913h5.396V56.43z" fill="#000"/><path d="M372.203 39.56h5.028v51.615h-5.028z" fill="#c62d36"/><path d="M409.345 90.84c6.67 0 12.886-2.127 16.958-6.589l-3.58-3.862c-3.3 3.397-8.182 5.057-13.096 5.057-9.83 0-16.008-7.724-16.008-20.044 0-12.187 6.46-19.778 16.218-19.778 4.423 0 9.127 2.344 11.795 5.074l3.51-3.995c-2.949-3.13-9.127-6.473-15.375-6.473-13.059 0-22.817 9.589-22.817 25.372 0 15.849 9.618 25.238 22.395 25.238m46.144 0c7.231 0 13.148-2.397 16.58-5.66V64.67h-17.53v5.127h11.322v12.786c-2.118 1.798-5.843 2.863-9.714 2.863-11.468 0-17.823-7.724-17.823-20.044 0-12.187 7.012-19.778 17.749-19.778 5.478 0 8.911 2.064 11.614 4.661l3.652-3.995-.377-.36c-3.086-2.877-7.882-5.7-15.035-5.7-14.169 0-24.541 9.589-24.541 25.372 0 15.849 10.006 25.238 24.103 25.238m27.772-.865h15.543c10.893 0 19.196-4.529 19.196-14.118 0-6.66-4.118-10.522-9.963-11.654v-.333c4.583-1.465 7.173-5.727 7.173-10.588 0-8.496-7.422-12.046-17.144-12.118l-14.805-.002zm6.177-28.036V48.52h7.506c7.572 0 12.222 1.499 12.222 7.226 0 4.927-4.119 6.193-12.488 6.193zm0 22.312V68.333h8.503c8.501 0 12.739 3.412 12.739 7.921 0 6.33-4.371 7.998-12.739 7.998z" fill="#000"/><path d="M50.268 78.335c-12.66.759-25.022 2.643-36.268 5.697C30.064 66.57 43.36 43.691 50.374 21.12h.025c3.05 11.187 7.595 22.925 13.246 34.228a215 215 0 0 1-13.377 22.987" fill="#bd0016"/><path d="M77.013 78.39c7.059 10.59 14.967 20.337 23.325 28.49-23.275-5.215-49.852-5.34-73.137-.111l-.02-.035.39-.382.382-.387.385-.387.383-.387.384-.397.384-.407.379-.391.383-.402.384-.402.379-.402.373-.402.38-.422.378-.402.379-.416.379-.423.378-.411.379-.417.369-.427.368-.417.369-.422.369-.427.373-.432.38-.427.362-.427a201 201 0 0 0 14.014-18.592 218 218 0 0 1 26.748.065" fill="#730000"/><path d="M63.644 55.353C69.3 44.05 73.82 32.333 76.77 21.12c7.226 22.666 20.497 45.697 36.763 63.028l-.021.035c-11.311-3.035-23.754-4.978-36.5-5.797a214 214 0 0 1-13.367-23.033" fill="#e5001f"/><path d="m113.518 84.183-13.176 22.691c-8.357-8.153-16.265-17.899-23.324-28.489 12.74.82 25.188 2.764 36.5 5.798" fill="#bd0016"/><path d="M27.18 106.733 14 84.037c11.246-3.06 23.608-4.949 36.268-5.712-7.015 10.5-14.852 20.21-23.088 28.408" fill="#e5001f"/><path d="M76.77 21.125C73.82 32.338 69.3 44.05 63.64 55.348c-5.65-11.303-10.196-23.035-13.236-34.223z" fill="#730000"/></svg>