<svg width="429" height="128" fill="none" xmlns="http://www.w3.org/2000/svg"><path d="M273.301 87.053h5.951v-5.236h2.354v12.718h-2.354v-5.532h-5.951v5.532h-2.354V81.818h2.354zm-125.424 2.625h-2.882v-1.95h5.236v6.418a8 8 0 0 1-.735.217q-.445.116-.999.204-.553.091-1.137.15-.586.054-1.161.055-1.73 0-3.023-.46c-.861-.31-1.576-.74-2.15-1.299a5.3 5.3 0 0 1-1.287-1.992q-.428-1.152-.427-2.549 0-.989.228-1.888a6.4 6.4 0 0 1 1.722-3.046 6.3 6.3 0 0 1 1.427-1.055 7 7 0 0 1 1.756-.669 8.6 8.6 0 0 1 2.048-.233q.973 0 1.846.136.874.14 1.429.338v1.978a11 11 0 0 0-1.511-.363 10 10 0 0 0-1.54-.124q-1.047.001-1.961.309a4.55 4.55 0 0 0-1.58.916 4.3 4.3 0 0 0-1.051 1.484q-.384.886-.384 2.045.01 2.252 1.191 3.38 1.185 1.125 3.352 1.126.403-.002.836-.042.381-.036.757-.111zm10.553 5.094a7.8 7.8 0 0 1-1.815-.195 5 5 0 0 1-1.42-.561 4 4 0 0 1-1.048-.893 4.4 4.4 0 0 1-.693-1.193 5 5 0 0 1-.301-1.178 10 10 0 0 1-.092-1.445v-7.49h2.353v7.28q0 1.351.325 2.113.368.843 1.069 1.22.697.375 1.651.376.95-.001 1.649-.376c.469-.25.822-.659 1.068-1.22q.325-.762.324-2.112v-7.28h2.354v7.49q.001.798-.092 1.444a5 5 0 0 1-.302 1.178 4.4 4.4 0 0 1-.694 1.193 4 4 0 0 1-1.069.893q-.628.368-1.444.561a8 8 0 0 1-1.823.195m15.804-3.479h-4.841l-1.255 3.242h-2.508l5.1-12.717h2.15l5.096 12.717h-2.484zm-2.439-6.416a73 73 0 0 1-1.199 3.338l-.443 1.13h3.32l-.438-1.13a76 76 0 0 1-1.204-3.338zm14.7 2.852q1.382 1.948 2.245 3.462h.059q-.117-2.483-.115-3.615v-5.758h2.35v12.717h-2.466l-4.188-5.856a43 43 0 0 1-2.283-3.526h-.06q.119 2.34.119 3.624v5.758h-2.354V81.818h2.467zm15.6 1.95h-2.881v-1.95h5.235v6.416a10 10 0 0 1-1.734.421q-.551.094-1.138.15-.584.055-1.16.056-1.73 0-3.022-.46c-.861-.31-1.577-.74-2.15-1.299a5.3 5.3 0 0 1-1.288-1.992q-.426-1.152-.425-2.549 0-.989.226-1.888a6.4 6.4 0 0 1 1.723-3.046 6.4 6.4 0 0 1 1.426-1.055 7 7 0 0 1 1.757-.669 8.6 8.6 0 0 1 2.048-.233c.649 0 1.261.046 1.845.136q.875.14 1.429.338v1.978a11 11 0 0 0-1.511-.363 10 10 0 0 0-1.54-.124q-1.047.001-1.96.309a4.5 4.5 0 0 0-1.58.916 4.3 4.3 0 0 0-1.052 1.484q-.383.886-.384 2.045.01 2.252 1.191 3.38 1.184 1.125 3.352 1.126.404-.002.836-.042.432-.044.757-.111zm5.234 4.856V81.818h3.399q.918 0 1.826.114.438.057.851.139.412.078.761.195a6.6 6.6 0 0 1 1.812.872c.528.37.968.801 1.321 1.304.362.51.635 1.076.806 1.677a7 7 0 0 1 .276 2.008q-.002 1.026-.23 1.928a5.7 5.7 0 0 1-.701 1.638c-.319.5-.721.941-1.187 1.308a6.1 6.1 0 0 1-1.694.924 9 9 0 0 1-1.855.457q-1.036.152-2.334.153zm3.32-1.95q2.065.002 3.228-.559 1.03-.503 1.553-1.465.533-.96.532-2.45 0-.782-.174-1.407a3.8 3.8 0 0 0-.502-1.117 3.4 3.4 0 0 0-.789-.843 4.4 4.4 0 0 0-1.053-.577 5.5 5.5 0 0 0-1.218-.305q-.673-.095-1.508-.094h-1.035v8.817zm19.743-4.409q0-1.16-.288-2.027-.286-.872-.796-1.45a3.24 3.24 0 0 0-1.21-.867 4.1 4.1 0 0 0-1.537-.286 4.1 4.1 0 0 0-1.537.285 3.24 3.24 0 0 0-1.209.867q-.508.58-.797 1.45-.289.868-.288 2.028 0 1.16.288 2.031.289.867.797 1.444a3.26 3.26 0 0 0 1.209.862q.702.293 1.537.293.836 0 1.537-.293c.464-.19.878-.485 1.21-.862q.51-.576.796-1.444.289-.871.288-2.03m2.429 0q.001 1.456-.416 2.667a5.9 5.9 0 0 1-1.22 2.085 5.5 5.5 0 0 1-1.969 1.36q-1.166.483-2.655.484-1.489-.001-2.654-.484a5.5 5.5 0 0 1-1.97-1.36 5.9 5.9 0 0 1-1.219-2.085q-.417-1.211-.417-2.667t.417-2.666a5.9 5.9 0 0 1 1.219-2.087 5.55 5.55 0 0 1 1.97-1.36q1.165-.481 2.654-.482 1.49 0 2.655.483a5.5 5.5 0 0 1 1.969 1.359 5.9 5.9 0 0 1 1.22 2.087q.416 1.211.416 2.666m9.191-.447c.92 1.3 1.671 2.452 2.244 3.462h.059a83 83 0 0 1-.114-3.615v-5.758h2.349v12.717h-2.465l-4.188-5.856a44 44 0 0 1-2.285-3.526h-.058q.117 2.34.117 3.624v5.758h-2.352V81.818h2.467zm15.6 1.95h-2.881v-1.95h5.234v6.416a8 8 0 0 1-.735.218 10 10 0 0 1-.998.204q-.552.091-1.138.15-.584.054-1.16.055-1.732 0-3.022-.46c-.862-.31-1.577-.74-2.151-1.299a5.3 5.3 0 0 1-1.287-1.992q-.428-1.152-.427-2.549.001-.989.226-1.888c.144-.582.367-1.14.663-1.662a6.3 6.3 0 0 1 1.061-1.385 6.4 6.4 0 0 1 1.426-1.054 7 7 0 0 1 1.757-.669 8.6 8.6 0 0 1 2.048-.233c.65 0 1.262.046 1.846.136q.874.14 1.429.338v1.978a11 11 0 0 0-1.511-.363 10 10 0 0 0-1.541-.124 6.1 6.1 0 0 0-1.959.309 4.5 4.5 0 0 0-1.58.916 4.3 4.3 0 0 0-1.052 1.484q-.383.886-.384 2.045.01 2.252 1.19 3.38 1.185 1.125 3.352 1.126.403-.002.837-.042.432-.044.757-.111zm32.384 5.093a7.8 7.8 0 0 1-1.815-.195 5 5 0 0 1-1.42-.561 4 4 0 0 1-1.049-.893 4.4 4.4 0 0 1-.692-1.193 5 5 0 0 1-.301-1.178 10 10 0 0 1-.091-1.445v-7.49h2.352v7.28q0 1.351.325 2.113.368.843 1.068 1.22.698.375 1.653.376c.631 0 1.183-.127 1.648-.376q.702-.377 1.069-1.22.324-.762.324-2.112v-7.28h2.353v7.49q0 .798-.091 1.444a5 5 0 0 1-.302 1.178 4.4 4.4 0 0 1-.695 1.193 4 4 0 0 1-1.068.893 5.2 5.2 0 0 1-1.447.561 8 8 0 0 1-1.821.195m15.804-3.479h-4.842l-1.254 3.242h-2.508l5.1-12.717h2.15l5.098 12.717h-2.486zm-2.439-6.416a73 73 0 0 1-1.2 3.338l-.441 1.13h3.319l-.439-1.13a77 77 0 0 1-1.203-3.338zm11.395-.444q.93 1.336 1.305 1.92h.049q.518-.802 1.298-1.911l1.833-2.624h2.708l-4.475 6.254 4.667 6.463h-2.671l-2.006-2.842a119 119 0 0 1-1.364-1.976h-.039q-.669.997-1.362 1.976l-2.006 2.842h-2.668l4.663-6.463-4.473-6.254h2.707zm9.111 10.102V81.818h2.354v12.717zm12.118-6.806q1.382 1.948 2.245 3.462h.059q-.116-2.483-.115-3.615v-5.758h2.35v12.717h-2.464l-4.189-5.856a43 43 0 0 1-2.284-3.526h-.059q.117 2.34.117 3.624v5.758h-2.353V81.818h2.468zm15.6 1.95h-2.881v-1.95h5.234v6.416a10 10 0 0 1-1.733.421 17 17 0 0 1-1.136.15q-.586.055-1.162.056-1.73 0-3.022-.46c-.862-.31-1.576-.74-2.15-1.299a5.3 5.3 0 0 1-1.288-1.992q-.426-1.152-.426-2.549 0-.989.227-1.888c.144-.582.367-1.14.663-1.662a6.4 6.4 0 0 1 1.06-1.385 6.4 6.4 0 0 1 1.425-1.054 7 7 0 0 1 1.758-.669 8.6 8.6 0 0 1 2.048-.233c.649 0 1.261.046 1.846.136q.874.14 1.428.338v1.978a11 11 0 0 0-1.511-.363 10 10 0 0 0-1.54-.124q-1.047.001-1.96.309a4.5 4.5 0 0 0-1.58.916 4.3 4.3 0 0 0-1.052 1.484q-.383.886-.383 2.045.01 2.252 1.189 3.38 1.185 1.125 3.354 1.126.402-.002.836-.042.381-.036.756-.111zm22.64-4.478a3.1 3.1 0 0 1-.376 1.515q-.373.692-1.239 1.146v.039q.48.16.882.415c.258.16.488.362.682.597q.28.346.438.785c.106.292.162.616.162.98 0 .308-.053.642-.151.995a3.1 3.1 0 0 1-.521 1.032 4.1 4.1 0 0 1-1.001.919q-.622.416-1.576.665a9 9 0 0 1-1.15.183q-.346.036-.771.05-.418.014-.949.013h-3.735V81.818h4.465q1.431 0 2.304.285.652.21 1.134.545.48.341.793.753.312.414.459.873.15.46.15.927m-6.951 3.802v3.582h1.534q.615 0 1.06-.032.44-.034.756-.11.492-.104.817-.279a2 2 0 0 0 .527-.4 1.35 1.35 0 0 0 .288-.493q.087-.271.086-.577 0-.531-.296-.932-.3-.396-.933-.597a3 3 0 0 0-.653-.122 10 10 0 0 0-.961-.04zm2.122-1.95q.958.002 1.432-.188.527-.217.75-.603.226-.386.226-.87 0-.504-.258-.899-.257-.393-.883-.582a3 3 0 0 0-.606-.112 9 9 0 0 0-.855-.031h-1.928v3.285zm15.132 4.24h-4.841l-1.256 3.242h-2.507l5.099-12.717h2.15l5.097 12.717h-2.485zm-2.439-6.416a76 76 0 0 1-1.199 3.338l-.444 1.13h3.32l-.438-1.13a73 73 0 0 1-1.203-3.338zm14.7 2.852q1.382 1.948 2.245 3.462h.058q-.117-2.483-.115-3.615v-5.758h2.351v12.717h-2.465l-4.189-5.856a44 44 0 0 1-2.284-3.526h-.06q.119 2.34.119 3.624v5.758h-2.353V81.818h2.467zm7.612 6.806V81.818h2.354v5.787h.035l4.852-5.787h2.916l-5.355 6.3L415 94.535h-3.015l-5.195-5.743h-.035v5.743zm-37.924-59.487-1.19 2.057v16.949l-5.48.48V52.79h-12.221v11.419a47 47 0 0 0 5.737-1.864l2.012 2.87a46.8 46.8 0 0 1-13.254 4.597l-2.017-4.324a47 47 0 0 0 2.463-.281V32.724l5.059.443v.842h13.162l.743-1.285zm-18.89 13.95h12.22v-3.913h-12.22zm0-7.285h12.22v-3.912h-12.22zm19.387 16.636a30.6 30.6 0 0 1-6.211 3.189 27 27 0 0 0 6.211 3.773l-4.503 4.501c-5.603-3.45-9.773-9-11.407-15.554l2.946-.789a27.2 27.2 0 0 0 3.794 5.288 30.7 30.7 0 0 0 5.921-4.277zm-25.802 4.789a38.2 38.2 0 0 1-11.485 6.674l-2.162-4.635a38 38 0 0 0 2.85-.735V55.82h-4.891l-.67-3.792h5.561v-4.642h-3.204l-.348-1.969-2.009-2.867a43.3 43.3 0 0 0 5.138-10.661l5.825 1.026a31 31 0 0 1-1.376 3.087h6.651l-.333 3.792h-8.604a32 32 0 0 1-3.133 3.798h11.226l-.331 3.793h-4.02v4.642h5.195l-.333 3.792h-4.862v6.51a38 38 0 0 0 3.442-1.868zm44.759-28.261a40.4 40.4 0 0 1-11.808 8.97l-2.088-2.98a40.5 40.5 0 0 0 8.717-8.978zM189.483 48.613h.002zl4.067-8.718h-7.192l-.669-3.792h9.631l1.966-4.214 6.257.547-1.711 3.667h26.016l-.332 3.792h-27.453l-4.069 8.718h10.084v-7.23l5.904.516v6.714h13.759l-.332 3.792h-13.427V62.83a6.14 6.14 0 0 1-6.144 6.14h-7.197l-.669-3.793h6.137a1.973 1.973 0 0 0 1.97-1.97V52.405h-15.926zm28.566 7.346a36.4 36.4 0 0 1 9.479 7.834l-4.62 3.873a36.2 36.2 0 0 0-7.791-8.778zm-18.256 1.42a41.8 41.8 0 0 1-11.042 10.287l-2.641-2.641a41.8 41.8 0 0 0 8.223-10.192zm85.297-21.793a26.9 26.9 0 0 1 7.758 9.859l-5.506 2.566a50 50 0 0 0-5.733-10.418zm10.838-3.697a26.94 26.94 0 0 1 7.938 12.024l-5.594 2.606a50 50 0 0 0-5.708-13.064zm21.425 2.673a39.25 39.25 0 0 1-8.725 14.167l-3.689-1.72a51 51 0 0 0 6.065-14.147zm-12.741 20.537a37.75 37.75 0 0 1 15.565 11.025l-6.393 3.688a37.9 37.9 0 0 0-12.095-12.26zm-8.692 2.534a35.1 35.1 0 0 1-14.119 12.18l-2.94-2.939a36.4 36.4 0 0 0 11.381-11.887zm-17.481-7.874h42.159l-.332 3.792h-41.157zm-6.176-10.627a58 58 0 0 1-13.639 5.858v3.138a1.167 1.167 0 0 0 1.171 1.17h12.998l-.715 4.057h-12.792a6.14 6.14 0 0 1-6.142-6.14v-.952a58 58 0 0 1-6.313.792l-.852-3.175a53 53 0 0 0 7.165-1.727V32.73l5.48.479v6.87a53.5 53.5 0 0 0 8.846-4.967zm-40.2 18.438h18.129v-5.062l5.903.515v4.547h18.129l-.332 3.792h-17.797v8.45h-5.903v-8.45h-17.458zm11.54-2.95H237.7v-11.2q-1.588.737-3.235 1.333l-2.402-2.115a59.7 59.7 0 0 0 12.263-10.749l5.261 3.083a39.3 39.3 0 0 1-8.924 6.924l2.94.257zm-99.444-.356V34.708l6.324.553v.842h10.969V31.89l5.901.515v3.699h14.12l-.369 4.214h-30.621v13.526c0 6.9-2.737 12.983-8.569 15.97l-2.602-2.492c2.945-3.33 4.847-6.86 4.847-13.058m242.608-9.547a40.4 40.4 0 0 1-7.109 6.352l3.598.314v18.43h-5.902V52.568a40 40 0 0 1-3.45 1.86l-2.712-2.712a54 54 0 0 0 10.395-9.986zm5.992 20.46h7.402a1.973 1.973 0 0 0 1.971-1.97v-14.53h-13.67l-.67-3.794h25.559l-.331 3.793h-4.986V62.83c0 3.39-2.751 6.14-6.143 6.14h-8.462zm-3.995-31.183h23.582l-.332 3.793h-22.58z" fill="#1b1918"/><path d="M83.47 94.917c-7.451 0-13.868 4.441-16.742 10.82h-1.25c-2.874-6.379-9.29-10.82-16.743-10.82V91.81c7.454 0 13.871-4.44 16.745-10.819h1.25c2.872 6.378 9.289 10.82 16.74 10.82zm-17.367-19.89c-7.452 0-13.868 4.44-16.743 10.82h-1.25c-2.873-6.38-9.288-10.821-16.742-10.821v-3.108c7.454 0 13.87-4.441 16.744-10.819h1.25c2.874 6.378 9.29 10.82 16.742 10.82s13.868-4.442 16.742-10.82h1.25c2.873 6.378 9.29 10.82 16.743 10.82v3.107c-7.454 0-13.868 4.442-16.742 10.82h-1.25c-2.874-6.378-9.29-10.819-16.743-10.819M48.735 55.135c-7.452 0-13.868 4.442-16.743 10.82h-1.25C27.87 59.576 21.453 55.134 14 55.134v-3.108c7.453 0 13.87-4.441 16.744-10.82h1.25c2.874 6.379 9.29 10.82 16.741 10.82 7.455 0 13.869-4.441 16.742-10.82h1.25c2.875 6.379 9.291 10.82 16.744 10.82s13.87-4.441 16.744-10.82h1.25c2.874 6.379 9.288 10.82 16.742 10.82v3.108c-7.454 0-13.87 4.442-16.744 10.82h-1.25c-2.874-6.378-9.29-10.82-16.742-10.82s-13.869 4.442-16.741 10.82h-1.25c-2.874-6.378-9.291-10.82-16.745-10.82m17.369-19.891c-7.452 0-13.87 4.44-16.745 10.819h-1.25c-2.872-6.379-9.288-10.82-16.741-10.82v-3.108c7.453 0 13.87-4.442 16.743-10.82h1.25c2.875 6.378 9.29 10.821 16.743 10.821s13.868-4.443 16.74-10.82h1.25c2.874 6.377 9.292 10.819 16.745 10.819v3.107c-7.454 0-13.87 4.442-16.742 10.82h-1.25c-2.874-6.378-9.29-10.818-16.743-10.818" fill="#b21e27"/></svg>