<svg width="438" height="128" fill="none" xmlns="http://www.w3.org/2000/svg"><path d="M60.992 111.961c-9.98 5.494-18.959-.999-27.442-8.99-5.988-5.493-14.471-12.984-17.465-20.476C8.1 67.012 30.057 47.538 45.526 45.541V82.5H82.45v.499c0 1.495-2.994 18.475-21.457 28.963" fill="#1984bf"/><path d="M45.503 82.607c0 1.498 2.994 18.479 21.457 28.967 9.98 5.494 18.959-.999 27.442-8.99 5.988-5.493 14.471-12.985 17.465-20.476 7.985-15.483-14.75-34.957-30.22-36.954v36.958H45.504v.499z" fill="#1984bf"/><path d="M82.446 45.091c0-1.5-2.99-18.509-21.432-29.014-9.968-5.502-18.93 1-27.404 9.004-5.98 5.003-14.952 13.007-17.942 20.01C7.693 60.599 30.08 80.104 45.532 82.105V45.09l36.918-.004z" fill="#aa2f82"/><path d="M44.726 45.819c0-1.499 3.77-19.22 22.234-29.707 9.98-5.494 18.181.572 26.665 8.563 5.988 5.493 14.471 12.985 17.465 20.476 7.985 15.483-13.972 34.957-29.442 36.954v-36.29H44.727z" fill="#aa2f82"/><path d="M18.129 64.017c5.94 9.388 18.001 17.1 27.402 18.088V45.93c-9.404.989-21.466 8.7-27.406 18.087z" fill="#1b2c79"/><path d="M81.672 45.926c0-1.506-1.972-16.919-17.614-27.962C48.416 28.51 45.503 44.424 45.503 45.93h36.169z" fill="#86167b"/><path d="M81.673 45.93v36.175c9.078-1.084 21.739-8.87 27.773-19.073-5.94-9.387-18.368-16.113-27.773-17.102" fill="#1b2c79"/><path d="M81.672 82.105c0 1.506-1.754 16.747-17.397 27.794C48.633 98.852 45.503 83.616 45.503 82.11z" fill="#0d579f"/><path d="M170.172 108.158q-5.129 1.203-8.856 1.203-7.065 0-10.857-3.367-3.79-3.368-3.791-9.653 0-6.233 3.791-9.593t10.802-3.36q4.483 0 8.893.953v4.028q-5.111-1.588-8.395-1.588-4.335 0-6.697 2.507t-2.361 7.104q0 4.445 2.527 6.977t6.974 2.533q.977 0 2.288-.251v-8.139h5.682zm9.643-24.166h5.431v13.96q0 3.595 1.252 5.193t4.039 1.597q2.662 0 3.852-1.522 1.191-1.522 1.191-4.9V83.992h4.726v15.202q0 3.428-.688 5.225-.687 1.799-2.504 3.119-2.487 1.823-6.683 1.823-4.497 0-7.23-1.94-1.887-1.338-2.637-3.169-.749-1.83-.749-5.109zm30.133 24.765V83.992h5.424v24.765zm13.862 0V83.992h5.521v21.251h11.956v3.514zm24.107 0V83.992h5.424v24.765zm63.883 0V83.992h10.115c2.989 0 4.028.117 5.59 1.054q2.342 1.406 2.342 4.1c0 2.978-1.142 5.438-5.901 6.677q8.345 1.69 8.345 6.81 0 2.962-2.444 4.543-2.442 1.581-7.007 1.581zm4.821-15.704h1.731q3.08 0 4.894-.936 1.813-.936 1.813-2.545 0-1.492-1.458-2.026t-5.51-.533h-1.47zm0 12.08h1.466q4.31 0 5.942-.659 1.632-.66 1.632-2.409 0-1.796-2.188-2.988-2.187-1.192-5.519-1.192h-1.333zm19.889 3.624 10.937-24.765h5.848l10.937 24.765h-6l-2.73-5.96h-11.043l-2.654 5.96zm9.559-9.664h7.918l-3.959-10zm22.382 9.664V83.992h5.953l13.826 16.917V83.992h5.533v24.765h-6.04l-13.739-16.313v16.313zm-108.481 0V83.992h5.953l13.827 16.917V83.992h5.533v24.765h-6.041l-13.739-16.313v16.313zm141.025 0V83.992h5.602v10.611l9.328-10.61h6.228l-9.708 11.11 12.055 13.654h-7.286l-10.617-12.181v12.181zM378.27 42.119v30.644h-8.285v-21.37q-2.901 2.75-6.96 6.287V47.555q4.552-3.436 6.662-5.727 2.11-2.29 4.019-5.864h8.769a123 123 0 0 1-4.205 6.155M155.38 19.296h7.428v7.975h7.747v6.344h-7.747v2.82l6.494 9.595v11.02l-6.494-8.262v23.975h-7.429v-21.72l-9.105 12.677V52.305l9.105-13.593v-5.097h-7.456V27.27h7.456v-7.975zm74.384 0h7.429v7.975h7.747v6.344h-7.747v2.82l6.493 9.595v11.02l-6.493-8.262v23.975h-7.429v-21.72l-9.105 12.677V52.305l9.105-13.593v-5.097h-7.456V27.27h7.456zm30.74 0h7.429v7.975h11.753v6.344h-9.791v2.82l11.297 20.616v11.952l-13.259-20.215v23.975h-7.429V48.788l-13.28 18.244v-11.17l10.983-17.15v-5.097h-9.132V27.27h11.429zm-75.945 0h8.094v5.544h11.89v6.407h-11.89v6.958h12.958v6.538h-33.729v-6.538h12.677v-6.958h-11.215V24.84h11.215zm0 27.988h8.094v6.333h11.89v6.407h-11.89v6.201h16.301v6.538h-41.251v-6.538h16.856v-6.201h-11.216v-6.407h11.216zm121.119-27.988-2.288 3.253h11.186v6.78h-14.259l-7.268 5.792v-8.56q5.05-4.29 5.05-7.265 3.33-.064 7.579 0M293.049 36h21.527v4.435h-8.637v6.854h8.637v5.968h-8.637v13.534l8.637-2.43v5.145l-10.09 3.256h-6.671l.063-19.504h-4.829V47.29h4.829v-6.854h-4.829zm24.745-16.705 29.42-.032 2.739 2.08V45.09h-13.552q1.299 2.81 2.181 4.124.88 1.314 2.37 2.662 2.076-1.087 2.977-2.045.902-.958 1.358-2.563l7.431.765q-2.493 4.043-3.963 5.678-1.47 1.636-3.468 3.058 1.464 1.926 2.624 3.12t3.823 3.052v9.823q-10.095-8.723-14.242-13.75-4.146-5.03-8.581-13.924h-3.64v19.289l11.131-2.249v5.552l-18.608 5.082zm6.538 5.134v5.413h18.685V24.43zm0 9.623v5.413h18.685v-5.413zm51.314-15.597h9.172q-4.017 7.755-7.526 11.387-3.51 3.63-11.716 8.524v-8.524q4.27-3.288 6.151-5.413 1.88-2.126 3.919-5.974m10.844 2.308h33.958v6.373H386.49zm-1.672 16.67H424.5v6.883h-9.107v25.616l-2.531 2.83h-19.008v-6.505h12.41v-21.94h-21.446z" fill="#0062af"/></svg>