<svg width="128" height="128" fill="none" xmlns="http://www.w3.org/2000/svg"><path d="M63.8 21.5c-19.85 0-34.75 16.75-33.35 35.35 1 13.1 7.8 19.3 18.5 26.1 6.85 4.35 12.85 8.45 15 9.75h.15s9.5-6.5 16.8-11.15c9.8-6 15.9-13.7 16.25-24.75 1-18.95-13.45-35.3-33.35-35.3" fill="#0a7db7"/><path d="M97.25 54.75c0 9.05-3.6 16.5-9.5 21.8v-22l-12.05 8.8v5.55l-2 1.45v-5.5l-8.3 6.1v5L63.95 77l-1.45-1.05v-5l-8.35-6.1v5.5L52.2 68.9v-5.5l-12.05-8.85V76.5c-5.85-5.25-9.5-12.75-9.5-21.8 0-15.75 11.05-28.95 25.85-32.35-19.9 3.55-35 20.85-35 41.75 0 23.4 19 42.35 42.45 42.35S106.4 87.5 106.4 64.1c0-20.85-15.1-38.2-34.95-41.7 14.75 3.35 25.8 16.55 25.8 32.35m-18.3 20.6v-4l1.65-1.2v11.5L63.95 92.7 47.3 81.65v-11.5l1.65 1.2v4l8.1 5.95v-4.7l1.65 1.2v4.75l5.2 3.8 5.2-3.8V77.8l1.65-1.2v4.7z" fill="#ffc82f"/></svg>