<svg width="617" height="128" fill="none" xmlns="http://www.w3.org/2000/svg"><path fill-rule="evenodd" clip-rule="evenodd" d="m219.765 23.161-.255.124c-6.553 2.975-10.513 8.769-11.37 16.532h45.103c5.582 0 10.359 1.618 14.126 4.703-7.446-13.766-21.268-23.034-37.042-23.034-3.921 0-6.962.58-10.575 1.661zm23.071 82.371c6.556-2.565 10.53-7.553 11.371-14.224h-45.185c-5.535 0-10.301-1.377-14.044-4.012 7.462 11.802 21.264 19.743 37.032 19.743 3.949 0 7.018-.51 10.646-1.437z" fill="#e50012"/><path fill-rule="evenodd" clip-rule="evenodd" d="m272.278 52.896-.109-.23c-2.982-6.618-8.793-10.59-16.562-11.437v45.084c0 5.577-1.628 10.386-4.691 14.145 13.76-7.439 23.033-21.262 23.033-37.035 0-3.91-.583-6.923-1.642-10.528zM190.13 75.867c2.975 6.623 8.798 10.596 16.563 11.43v-45.03c0-5.6 1.639-10.419 4.737-14.201-13.753 7.434-23.034 21.26-23.034 37.047 0 3.95.592 7.01 1.678 10.638z" fill="#e50012"/><path fill-rule="evenodd" clip-rule="evenodd" d="M40.857 48.826h15.92v-7.597H39.81C25.56 41.229 14 52.273 14 65.906c0 13.623 11.56 24.68 25.81 24.68h16.966V64.535H41.2v6.767h6.872v11.684h-7.214c-10.135 0-18.354-7.393-18.354-17.08s8.22-17.08 18.354-17.08m63.253-7.597L89.674 60.448l-14.435-19.22h-8.591l18.73 24.948v24.41h8.604v-24.41l18.733-24.947zm46.249 17.499c-.71 1.024-1.799 1.868-3.382 2.379 0 0-2.671.831-5.102.831h-14.044V48.72h11.625c1.647 0 3.09.049 4.28.154 1.163.101 2.178.268 3.04.51 1.644.458 2.86 1.149 3.583 2.046.736.906 1.089 2.058 1.089 3.554 0 1.47-.353 2.696-1.089 3.744m-10.384 24.367h-12.144v-14.37h14.31c1.355 0 2.519.014 3.455.089 3.194.294 5.129 1.636 5.129 1.636.697.396 1.255.858 1.66 1.355.418.5.71 1.05.885 1.702.204.677.292 1.42.292 2.212a7.4 7.4 0 0 1-.266 1.98 5.5 5.5 0 0 1-.872 1.764c-.392.563-.95 1.073-1.621 1.548-.697.471-1.559.88-2.571 1.188-.963.307-2.153.523-3.547.677-1.429.14-3.014.22-4.71.22m21.312-11.954a10.3 10.3 0 0 0-2.292-3.515q-1.482-1.478-3.534-2.415a11 11 0 0 0-1.202-.488c.317-.19.632-.383.924-.586 1.115-.782 2.039-1.675 2.749-2.687a10 10 0 0 0 1.546-3.272c.315-1.149.467-2.35.467-3.59 0-1.561-.266-3.03-.798-4.373a11.5 11.5 0 0 0-2.266-3.632 14 14 0 0 0-3.533-2.723c-1.355-.74-2.863-1.315-4.532-1.75a21 21 0 0 0-1.978-.384 26 26 0 0 0-2.24-.281 49 49 0 0 0-2.61-.167 82 82 0 0 0-3.115-.05h-19.578v49.358h20.022c2.545 0 4.762-.104 6.584-.281 1.874-.206 3.608-.55 5.155-1.05 2.052-.639 3.786-1.51 5.18-2.543 1.378-1.035 2.532-2.173 3.391-3.414a12.6 12.6 0 0 0 1.887-3.861c.37-1.29.558-2.556.558-3.757 0-1.689-.266-3.208-.785-4.54" fill="#3e3a39"/><path fill-rule="evenodd" clip-rule="evenodd" d="m335.423 80.048-.139-.036.035-.138c.543-1.823.834-3.743.847-5.74h-8.442c-.23 4.258-2.236 7.36-5.971 9.245-3.557 1.53-10.778 2.65-21.478 3.34 1.234 2.274 2.042 3.943 2.423 4.95.517.79.895 1.456 1.085 1.97 14.461-1.016 23.85-3.691 27.915-7.913l.064-.061.074.022c9.654 2.377 18.794 5.139 27.159 8.19l3.799-6.681c-1.476-.428-12.267-3.505-20.293-5.476a315 315 0 0 0-7.078-1.672M314.62 48.813h14.058v-3.627H314.62zm22.784 0h14.057v-3.627h-14.057zm0 5.918h22.214V39.28h-22.214v-4.633h-8.726v4.633h-22.215v15.45h22.215v3.362h-28.403v6.17h65.81v-6.17h-28.681z" fill="#212121"/><path fill-rule="evenodd" clip-rule="evenodd" d="M350.43 83.729h9.074V67.553h-52.648v16.453h9.074V73.74h34.5zm64.268-.665h17.941V67.83h-17.941zm0-22.695h17.941V45.397h-17.941zm17.941 33.508h9.127V37.94h-36.195v55.938h9.127v-3.87h17.941zM396.574 58.57l.025-.08c1.75-6.064 2.968-10.121 3.526-11.764.694-2.752 1.243-4.815 1.62-6.104v-5.974h-22.498v59.23h8.129V41.833h5.728l-.047.184a396 396 0 0 1-4.588 17.54c3.772 4.267 5.682 9.21 5.682 14.715 0 2.047-1.324 3.08-3.928 3.08-.682 0-1.448-.081-2.264-.225.51 2.728.95 5.754 1.289 9.013 5.124-.01 8.603-.989 10.366-2.895 1.766-1.747 2.666-4.224 2.666-7.37 0-7.226-1.9-13.029-5.659-17.243zm103.889 21.918q-.883.284-2.835 1.054c-2.645.877-4.562 1.586-5.686 2.1l-.19.09V67.044h2.514l.04.089c1.494 5.06 3.59 9.477 6.232 13.133l.115.168zm-8.711-20.81h19.338V54.13h-19.338zm0-12.114h19.338v-5.565h-19.338zm19.492 31.984.202-.106a232 232 0 0 1 5.696-2.897c1.547-.719 2.826-1.312 3.859-1.787.664-.31 1.226-.566 1.674-.787l-5.032-6.722-.079.053a142 142 0 0 1-11.098 6.85l-.127.076-.066-.129c-.189-.346-.47-.873-.853-1.582-1.344-2.14-2.184-3.877-2.57-5.294l-.049-.178h16.82V34.648h-36.695v46.766c0 2.6-.562 4.648-1.674 6.065l3.859 6.398c3.587-1.918 9.643-4.107 18.007-6.513.013-.877.118-1.998.294-3.336l.04-.27.192.18c4.098 3.63 9.221 6.452 15.199 8.37.203-.35.562-.85 1.085-1.493 1.609-2.808 2.989-4.79 4.101-5.897-5.006-1.058-9.247-2.822-12.596-5.241zM470.647 58.04h5.417v-7.003h-12.321l.146-.226c.352-.527.705-1.317 1.069-2.4l.013-.025c.523-.87.888-1.583 1.072-2.123l.037-.108h11.882v-6.99h-9.251l.034-.186c.172-.699.536-1.752 1.097-3.255.34-1.202.596-2.124.767-2.81-2.094-.516-4.75-1.043-7.867-1.556-1.446 6.949-4.077 13.888-7.814 20.628.876 2.995 1.668 6.318 2.36 9.917 1-1.33 1.839-2.596 2.534-3.798l.037-.065h2.653v6.767h-7.06v6.99h7.06v10.67c0 2.324-.633 4.144-1.852 5.423l4.445 5.987a9 9 0 0 1 1-.726c1.048-.881 1.874-1.53 2.435-1.884 2.518-1.624 5.417-3.34 8.608-5.105a120 120 0 0 0-.779-8.047 314 314 0 0 0-5.529 3.404l-.193.131v-9.853h7.047v-6.99h-7.047zm92.868-13.52h36.195v-6.581h-36.195zm-3.291-5.137c-2.554-1.58-4.66-2.78-6.232-3.584-.958-.454-1.627-.825-2.05-1.15-3.828 3.872-9.896 8.272-18.042 13.078 2.705 2.35 4.798 4.59 6.204 6.664 8.353-5.3 15.117-10.344 20.12-15.008m-22.646 37.826c2.347-1.895 4.46-3.588 6.506-5.233l.233-.185v22.086h9.295v-30.77l.041-.038a746 746 0 0 0 6.571-7.772l-7.876-4.196c-5.174 6.537-11.368 12.58-18.448 17.96 1.669 3.09 2.894 5.82 3.678 8.148m45.686 3.913c0 3.296-1.735 4.977-5.145 4.977h-3.892c-2.748-.171-4.87-.262-6.481-.262.888 2.431 1.611 5.135 2.135 8.04 1.661 0 3.982-.094 7.117-.262h5.566c3.27-.185 5.769-1.143 7.402-2.852 1.636-1.721 2.473-4.244 2.473-7.489V62.428h10.562v-8.037h-39.486v8.037h19.749z" fill="#212121"/></svg>