<svg width="403" height="128" fill="none" xmlns="http://www.w3.org/2000/svg"><path d="M14 64c0-27.614 22.386-50 50-50s50 22.386 50 50-22.385 50-50 50-50-22.385-50-50m86.447-3.77H74.641L64.084 49.673 50.427 63.33l13.657 13.657L74.641 66.43h16.673C90.141 80.422 78.327 91.398 64 91.398c-15.165 0-27.398-12.233-27.398-27.398S48.835 36.602 64 36.602c10.976 0 20.444 6.452 24.8 15.836l9.887-.084C93.827 37.859 80.087 27.386 64 27.386c-20.192 0-36.614 16.422-36.614 36.614S43.808 100.614 64 100.614 100.614 84.192 100.614 64c0-1.341-.083-2.598-.167-3.77" fill="#d82321"/><path d="M143.327 102.436h-7.065V88.011h6.732c3.242.083 4.987 1.243 5.153 3.398 0 1.742-.914 2.82-2.826 3.4 1.995.414 3.159 1.575 3.408 3.316 0 2.902-1.828 4.311-5.402 4.311m-.832-12.022h-2.992v3.4h2.993c1.413-.083 2.161-.664 2.161-1.824-.083-1.078-.831-1.576-2.162-1.576m.333 5.887h-3.325v3.896h3.242q2.493 0 2.493-1.99c-.166-1.243-.997-1.906-2.41-1.906m22.774 6.135h-3.657l-1.081-3.15h-5.485l-1.081 3.15h-3.574l5.403-14.426h3.906zm-5.319-5.638-1.829-4.974c-.166-.415-.249-.829-.333-1.244h-.083c-.083.498-.166.913-.332 1.327l-1.663 4.891zm20.779 5.638h-3.325l-5.735-9.036c-.249-.415-.499-.912-.748-1.327.083.58.083 1.41.083 2.404v7.959h-3.075V88.011h3.574l5.486 8.87c.083.083.083.166.166.332.332.498.499.83.582 1.078v-.083c-.083-.498-.083-1.244-.083-2.155V88.01h3.075zm17.538 0h-4.156l-4.239-6.135-2.161 2.321v3.814h-3.325V88.011h3.325v6.549l5.984-6.55h4.073l-5.818 6.136zm25.101-7.13c-.249 4.642-2.659 7.13-7.148 7.379-4.572-.249-6.982-2.737-7.231-7.38q.373-7.212 7.231-7.46c4.489.248 6.816 2.736 7.148 7.46m-3.657 0c-.083-2.984-1.33-4.56-3.657-4.725-2.328.165-3.657 1.74-3.74 4.725.083 2.984 1.329 4.56 3.657 4.642 2.493-.082 3.74-1.575 3.74-4.642m17.288-4.642h-7.065v3.481h6.151v2.653h-6.151v5.638h-3.324V88.011h10.389zm21.777.745-2.992 1.078c-.665-1.326-1.912-1.99-3.657-1.99-2.162.25-3.408 1.742-3.574 4.643.083 2.985 1.329 4.56 3.823 4.809q2.619 0 3.491-1.493v-1.74h-4.239v-2.653h7.314v5.388c-.997 2.073-3.241 3.151-6.649 3.233-4.572-.248-6.982-2.735-7.148-7.461.249-4.642 2.576-7.13 6.982-7.379 3.241-.082 5.485 1.161 6.649 3.566m4.156 4.892v-8.29h3.325v8.29c.083 2.404 1.163 3.648 3.324 3.648 2.078 0 3.076-1.244 3.076-3.648v-8.29h3.324v8.124c0 4.394-2.244 6.55-6.649 6.55-4.156 0-6.317-2.156-6.4-6.384m29.507 6.135h-3.657l-1.081-3.15h-5.485l-1.081 3.15h-3.574l5.403-14.426h3.906zm-5.237-5.638-1.829-4.974c-.166-.415-.249-.829-.332-1.244h-.083c-.083.498-.166.913-.332 1.327l-1.663 4.891zm20.779 5.638h-3.324l-5.735-9.037c-.25-.414-.499-.912-.748-1.326.083.58.083 1.409.083 2.404v7.959h-3.076V88.011h3.575l5.485 8.87c.084.083.084.166.167.332.332.498.498.83.581 1.078v-.083c-.083-.498-.083-1.244-.083-2.155V88.01h3.075zm16.873-11.027-2.992 1.078c-.665-1.326-1.911-1.99-3.657-1.99-2.161.25-3.408 1.742-3.574 4.643.083 2.985 1.33 4.56 3.823 4.809q2.618 0 3.491-1.493v-1.74h-4.239v-2.653h7.315v5.388c-.998 2.073-3.242 3.151-6.65 3.233-4.571-.248-6.982-2.735-7.148-7.461.249-4.642 2.577-7.13 6.982-7.379 3.241-.082 5.486 1.161 6.649 3.566m15.045 11.027h-12.967V99.95l8.395-9.286h-7.73V88.01h11.886v2.653l-8.644 9.286h8.977v2.487zm15.21 0h-3.325v-5.804h-6.316v5.804h-3.325V88.011h3.325v5.803h6.316v-5.803h3.325zm17.621-7.13c-.249 4.642-2.66 7.13-7.148 7.379-4.572-.249-6.982-2.737-7.231-7.38q.373-7.212 7.231-7.46c4.405.248 6.815 2.736 7.148 7.46m-3.657 0c-.083-2.984-1.33-4.56-3.657-4.725-2.328.165-3.658 1.74-3.741 4.725.083 2.984 1.33 4.56 3.658 4.642 2.493-.082 3.74-1.575 3.74-4.642m6.15.995v-8.29h3.325v8.29c.083 2.404 1.163 3.648 3.325 3.648 2.078 0 3.075-1.244 3.075-3.648v-8.29h3.325v8.124c0 4.394-2.244 6.55-6.65 6.55-4.239 0-6.4-2.156-6.4-6.384m-168.314-56.19V26.148h7.671s.167 8.22 0 24.414c-.166 16.193-9.59 24.414-9.59 24.414s-1.167-1.163-6.17-4.401c8.672-6.56 8.088-20.594 8.088-20.594V40.57l-4.035 14.154-5.989-1.667 4.658-14.25zm18.096 12.923V26.147h7.672v47.582h-7.672V53.324l-6.663 1.4-3.493-14.833 6.321-1zm-56.398-28.06 2.495 6.417 19.711-.166v7.083l-41.335.417s-.416 10.083-1.082 16.666c-1.247 12.667-7.152 19.584-7.152 19.584s-2.661-1.917-6.487-5.167c4.907-3.417 5.905-14.75 5.905-19.75V31.475h21.042l-1.747-4.417zm64.123 14.917 6.321-1 3.909 14.417-6.737 1.417zm10.371-13.744h7.672v47.582h-7.672zm35.689 30.917h-.083v7.96l6.301-3.068v6.717c-4.809.995-11.856 6.302-11.856 6.302l-5.555-4.81 2.487-2.902v-9.701h-8.374v-5.804h8.374v-5.639s-1.907.166-3.814 0c0 1.576-1.492 3.068-1.492 3.068s-.581-.912-3.068-7.628c7.628-9.868 8.043-16.584 8.043-16.584l8.788 1.327c-.249 2.072-2.404 5.306-2.404 5.306h9.866v5.307h-12.354a21.4 21.4 0 0 1-1.989 3.98h12.602v5.141h-5.306v5.639h7.047v5.224zm36.397-4.643 4.726 5.14-9.949 4.395c5.472 3.649 9.949 3.98 9.949 3.98s-2.155 3.566-4.228 5.888c-4.56-.415-12.188-6.717-12.188-6.717s.166 1.907 0 3.4c-2.487 0-14.343 4.56-14.343 4.56s-.995-1.492-3.068-4.56c2.073-1.907 1.492-4.395 1.492-4.395V27.296h29.185l-.166 25.125zm-20.561-19.569v3.98h14.924v-3.98zm0 31.84s4.974-2.487 7.461-2.072c-2.155-1.742-4.56-5.887-5.554-10.116h-1.907zm0-18.656v-.083h14.924v-3.98h-14.924zm11.69 11.774 7.213-5.472h-9.783c.497 4.477 2.57 5.472 2.57 5.472m38.283-32.835s3.411 2.495 6.738 4.492c-2.495 3.245-15.72 13.478-15.72 13.478s-2.246-3.411-5.157-6.073c12.393-8.237 14.139-11.897 14.139-11.897m10.314 3.66h29.859v6.323h-29.859zm-24.453 24.876c4.575-2.829 15.138-14.726 15.138-14.726l5.739 3.245v.832c-1.331 2.579-4.575 6.24-4.575 6.24v25.873h-7.818V55.84c-1.83 2.246-5.573 3.993-5.573 3.993s-1.58-3.078-2.911-6.323m22.208-10.067h34.433v6.323h-8.65v17.138c0 7.321-8.484 8.07-8.484 8.07h-11.228c-.166-2.33-2.079-6.905-2.079-6.905h8.067c6.488 0 5.157-4.41 5.157-4.41V49.767h-17.216z" fill="#000"/></svg>