<svg width="535" height="128" fill="none" xmlns="http://www.w3.org/2000/svg"><path d="M84.58 44.215c-5.526-3.538-15.695-10.876-15.695-17.77v-.853c0-6.703 6.626-8.344 13.146-8.645 15.094-.699 33 5.7 45.5 14.096 14.424 9.693 22.652 27.569 17.128 44.47-2.719 8.314-8.195 14.516-16.304 21.492-9.667 8.324-26.542 14.825-39.198 14.825 14.218-5.692 17.754-9.868 16.478-24.718 16.111-3.754 26.491-17.382 26.491-33.325 0-16.847-28.305-30.759-47.006-30.759-1.956 0-3.089 0-3.416.856.244 11.043 27.462 24.979 37.607 27.342L95.294 69.282l-10.933-8.515 13.419-8.1zm-34.13 62.948c5.703 2.335 11.947 3.651 18.211 4.307 8.807.92 17.632.379 25.08-5.241 4.77-3.59 6.665-9.89 6.665-15.573 0-8.852-9.741-19.365-16.498-24.567-3.285-2.53-19.352-12.557-20.337-13.896l12.624-8.89-9.198-6.492-26.148 15.746c8.775 2.711 37.28 21.825 37.28 32.115 0 3.988-1.992 5.984-5.991 5.984h-2.575c-10.3 0-24.79-6.48-32.839-13.964-8.055-7.493-10.938-20.736-5.948-30.684 3.175-6.328 9.057-11.07 14.217-14.06 4.77-2.757 9.078-4.459 14.358-5.975 2.233-.642 4.075-1.288 4.523-2.106 1.336-2.434 3.569-4.355 6.547-5.86-9.733 0-24.808 5.366-31.009 9.228C19.05 39.919 4.497 64.132 21.447 86.529c7.613 10.048 17.473 15.907 29.004 20.634" fill="#0276c3"/><path d="M205.133 89.904q-.289 2.897 2.608 2.317t5.215-1.159 2.028-5.215v-10.14q4.346 1.16 5.215 5.505.58 2.028 3.187 1.449 10.14-2.608 10.14-13.327-.29-11.588-12.168-19.412 6.374-9.85 9.561-15.934.579-1.16 2.607-2.028 2.028-.58.869-2.897-3.766-3.767-9.27-6.084-1.74.29-4.057 4.635h-4.056q0-.58-1.159-1.159-4.635-2.028-8.401-3.187-2.608-.87-2.608 2.028.579 2.318.579 13.907-4.055-3.767-6.663-4.346-.29 0-2.028 1.739v-7.243q.29-2.029 1.159-2.898 2.317-2.028-.29-3.187-5.505-1.738-8.691-2.028-1.45-.29-1.739 0-.58.58-.289 2.028.29 3.766.289 8.692v8.402h-7.822V28.773q0-2.607 1.159-3.187 1.738-2.028-.58-3.187-5.504-1.449-8.691-2.028-2.609-.29-2.028 2.318.579 4.635.579 10.43v7.243q-3.186 0-6.664-.58-.579 0-.579.29-.29 0 0 .58l1.739 1.738q.289.869 1.158.29 1.159-.29 4.346-.29v8.064q-.008 26.22-.869 35.973-.29 3.188 2.607 2.607.58 0 3.767-.579 1.738-.58 2.317-.58 1.739-.579 1.739-3.766v-4.056h7.822v5.505q-.29 2.897 2.318 2.607 3.186-.579 5.215-1.159 2.897-.58 2.318-4.055v-5.215q-.29-4.347-.29-6.085v-29.26h8.691v28.525q-.006 17.284-.289 18.988zm18.253-22.888q.58 6.373-8.402 6.084V31.67q0-1.159 1.449-2.028v-.29h5.215l-4.056 21.44q5.504 7.821 5.794 16.224m-36.215-8.402h-7.822V42.391h7.822zm0 19.411h-7.822V60.643h7.822zm114.439 11.01q-.58 3.767 3.187 3.477h.579q3.477-.58 4.636-1.16 2.607-.868 2.318-4.925V73.1q4.056 1.16 4.925 4.636.29 2.607 2.607 1.738 9.85-2.607 10.141-12.168-.58-12.168-12.459-21.15 4.057-4.925 9.562-13.906.579-1.449 2.317-1.738 2.317-.58.579-3.187-4.635-4.056-8.981-5.794-1.738.29-4.345 4.635h-2.318a1.74 1.74 0 0 0-1.159-1.16q-4.056-2.316-9.271-4.055-1.449-.579-2.028 0-.58.58-.289 2.318.578 2.317.578 13.617v32.738q-3.476-3.766-4.925-4.056-1.448.579-5.794 6.084h-6.084v-9.27h4.056q-.29 3.476 2.897 2.896 2.608 0 4.346-.58h.579q3.187-.288 2.318-4.056V53.98q-.29-7.823-.289-9.56 0-1.16 1.448-2.028 1.448-.87.869-2.318-4.056-4.348-9.271-5.794-1.738.578-3.766 3.476h-2.897q3.765-3.476 8.981-9.56 1.158-1.74 2.897-1.74 2.897-1.448.579-3.186-.58-.29-2.027-.58-6.375-2.317-8.692-2.897-2.028-.579-1.738.87.29 6.373-4.057 17.093h-7.822q0-.29-.289-.29l-.29-.29q-3.767-2.318-9.272-3.476-2.896-.58-2.317 2.317 0 .87.289 2.318.29 3.477.29 5.794v6.664q0 8.402-.579 12.748-.869 3.186 3.187 3.187.579 0 1.738-.29 2.028-.29 3.187-.58 2.607-.58 2.318-3.476h4.056v9.27h-9.271q-4.925 0-8.402-.289-.58-.29-.869 0 0 .29.289.87.58.868 1.449 1.738.29.579 1.449.579 2.317-.58 4.925-.58h10.43q0 1.45-.29 4.346-.29 8.693-.579 11.01 0 2.897 2.028 2.897 3.476.29 6.084-.87 2.897-.578 2.607-3.186-.579-4.926-.579-14.196h12.458q2.607.29 4.056.29 0 4.346-.289 11.009zM271.19 32.25q.868 5.215 6.084 3.766 5.505-2.607 3.476-8.112-3.187-5.794-12.457-5.794-.87 0-1.16.58 0 .289.58 1.158 2.607 3.477 3.477 8.402m49.252 31.29q-.29 7.243-8.112 6.663V30.512q0-1.738.869-2.318h4.056l-3.187 19.122q6.084 8.69 6.374 16.223m-31.001-14.486h-4.055V42.68q0-2.027.579-2.608h3.477v8.982zm-13.326 0h-4.056V41.81q0-1.449.869-1.739h3.187zm13.327 11.299h-4.056v-9.271h4.056zm-13.327 0h-4.056v-9.271h4.056zm89.523 31.29q2.028 2.027 3.766-1.449.87-1.74 2.608-3.477 2.607-2.607 8.981-9.27 1.738-2.029 2.607-2.898 2.029-1.739.87-2.607-.58-.87-2.608 0-3.477 1.738-7.822 3.187V61.8h11.589v15.645q0 2.319-2.029 3.187-2.607.87-1.448 3.187a49 49 0 0 0 4.636 7.533q1.737 1.739 3.476-.58.58-.869 1.738-1.738.29-.29.58-.29 7.532-6.084 13.616-11.588 3.768 6.663 10.72 12.168 1.738 1.159 2.608-.58 1.158-4.634 5.504-7.533 1.738-.869 1.449-1.448.29-.29-1.449-1.449-9.85-4.345-14.775-10.43a60.6 60.6 0 0 0 9.56-4.345q.29 0 .87-.29 1.447-.58 2.028-.58 1.158.29 1.448-.579.58-.87-.289-1.738-2.898-2.896-6.085-4.926 1.739-.868 1.739-3.476-.58-9.27-.58-11.879v-9.27q.29-1.45 1.159-2.028 2.027-2.029-.289-3.767-4.636-4.055-8.692-4.346-.87 0-4.056 4.346h-9.271q-4.345-1.739-10.141-3.476-2.896-.58-2.607 2.317.58 3.187.58 8.113-4.346-4.057-6.085-4.347-2.028.58-5.215 5.795h-4.345a127 127 0 0 0 2.028-6.663q.579-1.74 1.738-2.318 1.159-.58 1.449-1.739 0-.869-1.159-1.158-4.925-1.739-11.01-2.608-2.317-.58-2.317 2.318-.58 14.485-6.664 33.028-.58 1.738-.289 2.028.288.29 1.448-1.159 4.056-3.477 6.953-7.533h1.449v12.169h-1.159q-3.476 0-8.112-.58-.58 0-.579.869.289.29.579.87l.094.094 1.019 1.018.046.046q.579.58 1.159.29 2.317-.58 4.345-.58h2.608v12.17q.29 5.214-3.476 7.532-2.898 1.74-.29 4.346 1.158 1.449 4.056 4.056zm42.589-54.178h-11.879v-8.691q0-1.449 1.739-1.449h10.14zm-34.477 7.822h-9.85a48 48 0 0 0 5.215-9.85h16.514v9.56q-4.925-4.635-7.244-4.635-1.158-.29-4.635 4.925m34.477 4.926h-11.879v-10.43h11.879zm-34.187 9.27V47.606h11.589v11.01q-4.346-4.057-7.244-4.636-1.738.579-4.345 5.505m22.308 17.094V52.531h4.056q0 13.326 4.346 22.018-1.739.29-4.925 1.159zM407.937 64.7q-3.477-6.665-4.636-12.168h4.926v2.896q-.29 2.61 3.186 1.74l1.159-.29q-2.028 4.345-4.635 7.822m42.299-20.86q.29.29 1.159 0 11.299-6.084 21.729-14.486 1.447-1.16 3.187-1.159 1.448 0 1.738-.869.29-1.159-.869-2.318-2.898-2.317-7.823-5.794-1.738-.58-2.607.869-5.215 11.878-15.935 22.309-.579.868-.579 1.448m32.448-12.748q2.317-.58 5.505-.58h13.037q3.767 0 8.692.29h4.635q1.45 0 1.739-.579.29-.58-.58-1.738-4.635-4.636-7.243-5.505-1.448 0-4.925 5.505h-14.486q-4.635 0-8.402-.58-.579-.29-.579 0-.29.29 0 .87.29.867 1.159 1.738.42.279.501.357l.003.003.091.028q.57.177.815.19zm-22.018 60.841q.58.579 2.897 0 3.477-.29 5.794-1.159 3.187-1.158 2.608-5.215 0-2.317-.29-6.084V54.56q-.29-2.03 1.449-2.608 1.738-1.739-.869-2.897l-.29-.29h-.58q2.029-2.317 2.608-3.187.869-1.16 1.448-1.738 1.16-1.74 3.187-2.028 1.449-.58 1.738-1.449 0-.869-1.448-1.738a14 14 0 0 1-1.449-.87q-5.214-2.896-7.243-3.765-1.738-.58-2.317 1.448-6.085 16.224-17.383 28.392-.58.87-.29 1.16.29.579 1.159 0a59 59 0 0 0 9.271-6.085V74.55q0 5.794-.58 14.486-.29 2.318.579 2.897zm32.448-1.448q.58 2.607 4.056 1.738 2.897-.29 7.533-1.738.29-.29.579-.29 3.188-1.159 2.897-6.374-.579-6.663-.578-15.934V53.11q0-1.449 1.448-2.028 1.448-.87.869-1.738 4.056.29 9.561.29 1.158.289 1.448-.58.29-.58-.579-1.739-4.346-4.924-6.954-5.794-.868 0-5.215 5.794h-24.046q-5.505 0-8.982-.579h-.578q0 .29.289.869.697 1.034 1.449 2.028.509.34.521.38v.003c.281.085.583.065.85-.057l.077-.036q2.897-.58 5.504-.58h13.038v27.814q.58 5.505-7.533 4.345-3.186 0-2.897.87-.579.868 2.028 2.028 4.926 1.738 5.215 6.084m-319.976 19.12q6.185-.07 6.257-3.925 0-2.804-3.309-3.435 3.022-.912 2.95-3.225.072-3.575-5.538-3.505h-5.97v1.192q1.798-.14 1.655 1.612v8.553q.143 1.752-1.655 1.611v1.122zm.297-8.158-.107-.002h-.979v-4.819h1.049q2.728 0 2.658 2.308.07 2.58-2.728 2.511zm-.101 6.675h-.985v-5.561h.985q3.163-.069 3.093 2.85 0 2.71-3.093 2.711m22.076 1.113v-1.111q-1.97-.069-1.532-.903l.803-2.36h3.867l.657 2.291q.438.972-1.313.972v1.111h6.349v-1.111q-1.532 0-2.043-1.597l-3.868-11.384-1.533.139-4.306 11.801q-.364 1.11-1.971 1.041v1.111h4.891zm2.898-5.563h-2.967l1.557-4.45zm21.604 5.934v-1.122q-2.128.21-1.982-2.524v-7.151l7.338 10.796h1.761V99.228q-.22-2.804 1.688-2.523v-1.193h-4.916v1.193q2.201-.28 1.981 2.523v6.1l-6.677-9.816h-4.036v1.193q1.761-.21 1.614 2.033v7.221q.147 2.804-1.687 2.524v1.121h4.916zm25.511 0v-1.122q-1.869-.07-1.725-1.683v-2.664l1.006-1.052 3.808 6.52h4.309v-1.121q-1.437 0-2.226-1.543l-3.808-6.239 1.796-2.034q1.723-2.103 3.664-1.962v-1.193h-5.532v1.193q1.293 0 1.078.49-1.007 1.823-4.095 5.118v-3.786q-.144-1.963 1.652-1.822v-1.193h-6.178v1.193q1.725-.14 1.581 1.822v8.203q.143 1.893-1.652 1.753v1.121h6.321zm56.72 0q6.312-.277 6.675-7.128-.362-6.92-6.675-7.335-6.312.415-6.675 7.404.29 6.713 6.675 7.058zm.087-1.113-.089-.001q-3.336-.07-3.336-6.013 0-6.154 3.336-6.224 3.478 0 3.334 6.224-.073 6.083-3.334 6.013zm24.052 1.113v-1.122q-1.923.07-1.78-1.823v-3.786h1.424q1.71-.14 1.852 1.893h1.14V99.86h-1.14q-.214 1.963-1.852 1.822h-1.424v-4.977h2.492q1.924-.28 2.707 2.944l.997-.21-.285-3.927h-10.398v1.193q1.78-.28 1.567 1.822v8.133q.142 1.962-1.639 1.823v1.121h6.339zm53.576 0v-1.122q-1.59 0-1.517-1.753v-3.926h4.841v3.856q.145 2.033-1.517 1.823v1.121h6.142v-1.121q-1.806.14-1.661-1.823v-8.133q-.145-2.033 1.589-1.822v-1.193h-5.999v1.193q1.519-.14 1.446 1.822v3.085h-4.841v-3.085q-.145-2.033 1.445-1.822v-1.193h-5.999v1.193q1.736-.14 1.59 1.822v8.203q.074 1.822-1.662 1.753v1.121zm23.594-.371v-1.111q-1.971-.069-1.533-.903l.803-2.36h3.868l.657 2.291q.438.972-1.314.972v1.111h6.35v-1.111q-1.533 0-2.044-1.597l-3.868-11.384-1.533.139-4.306 11.801q-.364 1.11-1.971 1.041v1.111zm2.526-5.563h-2.966l1.557-4.45zm21.604 5.934v-1.122q-2.127.21-1.981-2.524v-7.151l7.338 10.796h1.761V99.228q-.22-2.804 1.687-2.523v-1.193h-4.916v1.193q2.202-.28 1.982 2.523v6.1l-6.678-9.816h-4.035v1.193q1.76-.21 1.614 2.033v7.221q.147 2.804-1.688 2.524v1.121h4.916zm25.816-.001q7.536.07 7.464-7.081.072-7.08-7.608-7.01h-5.67v1.192q1.651-.14 1.579 1.823v8.131q.072 1.964-1.65 1.823v1.122zm-.397-1.482h-1.038V96.626h.741q5.192-.07 5.192 5.851 0 5.644-4.895 5.644zm23.506 1.112v-1.111q-1.971-.069-1.532-.903l.802-2.36h3.868l.657 2.291q.438.972-1.313.972v1.111h6.349v-1.111q-1.533 0-2.043-1.597l-3.869-11.384-1.532.139-4.307 11.801q-.364 1.11-1.97 1.041v1.111zm2.527-5.563h-2.967l1.558-4.45zm21.603 5.934v-1.122q-2.127.21-1.981-2.524v-7.151l7.338 10.796h1.761V99.228q-.22-2.804 1.688-2.523v-1.193h-4.917v1.193q2.201-.28 1.982 2.523v6.1l-6.677-9.816h-4.036v1.193q1.761-.21 1.614 2.033v7.221q.147 2.804-1.687 2.524v1.121h4.915z" fill="#e91b2a"/></svg>