<svg width="338" height="128" fill="none" xmlns="http://www.w3.org/2000/svg"><path d="M247.727 75.584c-1.315.302-4.316 2.089-7.74 4.981l-8.457 7.202c2.983 3.784 7.035 8.56 9.679 11.566 3.303 3.377 5.047 4.853 6.375 5.159 1.374.297 1.449 1.357-.303 1.357h-9.215c-3.487-4.062-7.174-8.614-11.231-13.517v7.252c0 .092-.022.275-.022.275h.004c0 4.094 1.886 4.327 3.21 4.633 1.383.297 1.449 1.357-.276 1.357h-12.88c-1.739 0-1.663-1.06-.281-1.357 1.324-.306 3.21-.539 3.21-4.633l.009-.083s-.009-.1-.009-.192V80.547c0-.114.009-.238.009-.347l-.009.018c0-4.094-1.886-4.332-3.21-4.634-1.382-.297-1.458-1.375.281-1.375h12.88c1.743 0 1.658 1.097.29 1.375-1.324.302-3.206.54-3.206 4.634l-.018-.018c0 .11.018.233.018.347V86.5l9.644-8.157c1.533-1.398.129-2.604-1.057-2.76-1.404-.169-1.467-1.375.272-1.375h11.739c1.756 0 1.685 1.097.294 1.375m19.66 28.312c3.353 0 5.984-2.276 5.984-6.597 0-4.693-6.769-6.463-12.109-6.684v9.38c0 3.495 2.037 3.901 6.125 3.901m-6.125-24.378v9.144c4.664-.228 10.937-2.117 10.937-5.895 0-2.846-2.171-5.433-5.646-5.433h-3.029c-1.29 0-2.262.908-2.262 2.184m11.439 9.723c4.737.708 8.483 2.795 8.483 7.533 0 3.2-1.781 5.612-4.616 7.176-2.452 1.329-5.629 1.899-9.397 1.899h-15.915c-1.754 0-1.677-1.029-.276-1.323 1.33-.295 3.246-.522 3.246-4.516V80.852c0-3.994-1.916-4.226-3.245-4.52-1.402-.272-1.479-1.342.275-1.342h18.587c3.611 0 5.729.589 7.203 1.636 1.731 1.137 2.7 3.214 2.7 5.39 0 4.523-4.381 6.364-7.045 7.078zM212.16 75.584c-1.306.302-3.216.54-3.216 4.634v19.64c0 4.095 1.91 4.328 3.216 4.634 1.418.297 1.485 1.357-.278 1.357h-12.998c-1.748 0-1.659-1.06-.295-1.357 1.333-.306 3.23-.539 3.23-4.633v-8.276h-12.756v8.276c0 4.094 1.882 4.327 3.229 4.633 1.382.297 1.467 1.357-.286 1.357h-13.025c-1.74 0-1.668-1.06-.269-1.357 1.32-.306 3.208-.539 3.208-4.633v-19.64c0-4.095-1.888-4.333-3.208-4.634-1.399-.297-1.471-1.376.269-1.376h13.025c1.753 0 1.668 1.078.286 1.376-1.346.301-3.229.539-3.229 4.633v7.874h12.756v-7.874c0-4.094-1.897-4.332-3.23-4.633-1.364-.297-1.453-1.376.296-1.376h12.998c1.762 0 1.695 1.078.277 1.376m65.908-39.041c-.481.221-.735.221-.735 0-.136-.243-.027-.53.363-.864 4.637-4.114 8.045-8.505 10.329-13.153.24-.477.988-.885 1.69-.52 2.303 1.123 3.912 2.42 5.081 3.406.463.417.526.937.381 1.367-.118.369-.431.516-.929.516-.884 0-1.528.287-2.089.69-4.456 3.467-9.197 6.275-14.091 8.558m20.603-8.04c-1.061.098-2.041-1.784-1.835-2.274.054-.145.336-.198.591-.167 1.494.207 3.996.347 6.09.347h9.285c1.481-2.224 2.546-3.372 3.155-3.372 1.122.365 2.693 1.427 4.644 3.372.398.432.501 1.328.376 1.553-.143.22-.497.36-1.114.36-.77 0-1.978-.113-3.334-.104-5.777.032-12.139-.369-17.858.284m-7.844 29.662c.06 1.166.125 2.208.169 3.143.065 1.635-.378 2.756-1.63 3.142-1.031.337-2.258.505-3.58.7-1.062.155-1.746.053-1.998-.177-.221-.23-.204-.749-.152-1.573.282-5.97.343-11.834.343-17.804-1.911 1.396-3.814 2.637-5.751 3.674-.464.226-.772.284-.902.164-.134-.226.017-.527.356-.873 4.676-4.773 8.429-10.424 10.813-17.12.251-.78.615-1.202 1.426-.865.875.386 2.293 1.197 4.303 2.256.399.212.724.434 1.08.558.476.337.723.732.723 1.21 0 .346-.307.545-.914.687a3.6 3.6 0 0 0-1.968 1.237c-.715.908-1.651 2.078-2.383 2.947.034 6.25-.317 12.485.065 18.694m32.515-20.644c.415.45.433 1.502.415 1.726 0 .216-.045.135-.194.18l-8.462.036c0 6.716-.37 13.26.113 19.967.09.976-.158 3.56-2.153 4.096-2.018.719-3.444 1.1-4.703 1.253-1.629.194-2.518-.12-2.613-1.074-.167-1.762-1.264-2.98-3.381-3.704-1.25-.44-1.683-.876-1.299-1.245 0 0 .613-.18 1.868-.18 3.502 0 5.118-.777 4.87-2.652V39.247c-2.794 0-7.186-.067-9.212 0-2.027.05-2.437.095-3.552.342-1.078.252-2.234-1.807-2.13-2.248.036-.162.311-.31 1.133-.197.808.117 2.613.377 5.113.377h16.311c1.756-2.369 2.871-3.547 3.363-3.547 1.142.333 2.667 1.515 4.513 3.547m-74.839 12.883V30.917c0-2.485-.206-4.856-.375-7.107-.08-1.17.446-1.755 1.642-1.422 2.467.742 4.551 1.548 6.362 2.133h5.822c1.227-1.76 2.075-2.7 2.553-2.637 1.588.17 3.426 1.076 5.456 2.637.883.698.897 1.485.17 2.314-.478.238-.723.643-.723 1.242v5.675c0 1.058.089 3.475.366 7.269.075 1.04-.366 1.768-1.098 2.115 1.24.833 2.547 1.782 3.842 3.02a.9.9 0 0 1 .178 1.058c-.188.378-.522.378-.923.36-1.999-.108-6.042 2.524-7.804 3.182 1.927 2.596 5.091 4.572 9.258 6.381.718.302.924.761.924.878 0 .365-.299.653-.924.895-1.803.725-2.806 2.17-3.453 4.263-.223.747-.933.855-1.633.337-2.941-2.205-5.158-4.6-6.72-7.084-1.441 1.292-9.378 6.063-10.016 7.98-.843.931-1.593 1.085-2.195.373-1.227-1.534-2.186-3.082-2.913-4.63-.58-.586-.304-1.148.923-1.603.826-.279 1.281-.882 1.281-1.949v-5.495c-.25.252-.5.342-.75.37-.602.062-1.428.17-2.164.697-1.476 1.035-2.855 2.187-4.551 3.02-.107.059-.347.171-.383.171v.895c1.963-.125 4.069-.413 6.371-.706.624-.081 1.008.108 1.102.378.152.328-.054.644-.531.86-4.966 2.151-9.361 4.01-13.122 5.661-1.352.45-2.552 3.524-3.48 1.778-1.035-1.975-1.686-3.897-2.199-5.68-.237-.828.187-1.242 1.298-1.242.473 0 .745-.112 1.847-.166 1.071-.055 1.936-.055 2.534-.171V55c-.223.603-.624.927-1.08 1.089-2.061.599-3.444-.342-3.649-2.484-.169-1.89-.638-3.002-1.45-4.433-.268-.45-.063-.829.553-.72 2.949.481 4.787 1.71 5.626 3.384v-4.982h-1.463c-1.432 0-2.4.18-2.896.36-.736.27-2.427-2.25-1.267-2.278.879-.009 2.468.028 4.899.028h.727v-5.235h-2.155c-.379.239-.807.1-1.276.585-.254.212-1.012.797-2.195 1.755-.392.316-.616.482-.732.36-.116-.12-.062-.413.179-.868 1.936-3.803 3.502-8.182 4.716-13.128a29.7 29.7 0 0 0 .932-5.856c0-.576.339-.778 1.085-.693 1.088.135 3.123.576 6.009 1.589.25.09 1.647.576 1.647 1.422 0 .585-.25.968-.763 1.058-.946.153-1.548.598-1.789 1.417 2.413-.369 4.608.019 6.166 1.594 1.749 1.742 1.619 3.722-.161 5.135-2.097 1.66-3.498 1.157-4.216-1.062-.513-1.688-1.437-3.12-2.53-4.438-1.936 3.907-3.873 6.963-5.827 9.222h6.005c1.085-1.634 1.513-2.804 2.749-2.831 1.209-.036 2.913 1.296 4.176 2.993.317.446.312 1.328.187 1.566-.125.117-.383.18-.727.18h-5.3v5.235c1.343-2.017 2.32-2.922 2.922-3.03.968.351 2.258 1.472 3.823 3.363.25.823.063 1.557-.544 1.557h-6.201v6.742c.861-1.427 1.468-3.254 1.838-5.487.125-.715.66-.958 1.642-.715a60 60 0 0 1 3.823 2.48c.339.243.545.387.545.53m6.9-16.43v5.86h7.421v-5.86zm2.255 7.422h-2.646V56.24c.379 0 1.064-.136 2.077-.38 1.494-.355 2.651-.65 3.391-.886-2.021-3.452-2.951-7.97-2.822-13.578m5.166-15.234-7.053.018c-.115.092-.408.4-.364.52v5.321h7.417zm-.016 17v-1.766h-3.109c.489 2.335 1.47 4.818 2.952 7.422a30 30 0 0 0 2.908-4.755l-.731.161c-1.491.368-2.145.126-2.02-1.062m-46.859-13.094h-21.295c-.374.39-.581.91-.58 1.45v23.16h21.875zm-30.028-3.591s-.112-1.148 0-1.265c.262-.121.839-.31 1.7-.175 2.29.337 4.566 1.179 6.765 2.358.334.157.523.472.776.733h20.049c.879-1.462 1.614-2.952 2.461-2.916 2.529.1 5.08 1.859 7.334 3.803.514.869.415 1.575-.365 2.007-.983.536-1.339.941-1.339 1.472V41.8c0 2.556-.099 5.481 0 9.108.14 3.997.528 6.067.564 7.039.103 1.93-.564 2.939-1.456 3.083-.496.067-1.091.184-2.096.364-1.01.171-1.898.225-2.642.37-1.384-.145-1.893-.667-1.893-1.652v-3.461h-21.771v2.925c0 1.22-.478 2.016-1.876 2.354-1.131.284-2.519.369-4.137.55-1.893.202-1.893-2.706-1.893-2.706s.568-22.794-.181-33.298m-45.926 3.03a11.3 11.3 0 0 0-1.856-4.735c-.22-.361-.359-.47-.302-.614.118-.313.498-.34.824-.34 3.984.34 6.353 1.556 7.144 3.559.661 2.735-.143 4.381-2.5 5.005-1.989.217-2.988-.742-3.31-2.876m1.356 12.13c-1.953.518-3.276-.31-3.874-2.355a11.2 11.2 0 0 0-2.375-4.33c-.257-.331-.491-.442-.37-.706.144-.076.468-.272.972-.272 4.301 0 7.347 1.288 8.117 3.15.764 1.865-.239 3.917-2.47 4.512m21.474 11.87h7.841c.732-1.108 1.623-1.719 2.705-2.737h-9.682c-.359 1.302-.501 1.856-.865 2.737zm-2.264-19.075c2.011.228 3.398.404 4.217.498-.336-.094-.461-.464-.336-1.357v-.164h-4.394v.164c0 .468-.228.571-.349.7.233.103.522.159.862.159m-.471-4.826V31.7h4.688v-2.097zm7.539 10.252h-2.642c-.099 1.057-.297 2.793-.327 3.442l2.969.025zm2.052 7.366c-1.298.116-1.977-.28-1.977-1.17v-.863h-3.163c-.244 1.453-.327 2.574-.544 3.739h4.63c.135-.237.462-.602.754-1.002.3-.39.366-.472.475-.704zm-11.062-3.899c-.013-.45.163-2.406.09-3.467h-2.334v3.467zM178.92 59.34c.715 0 1.092.11 1.092.336 0 .12-.284.42-.897.858-1.567.84-2.796 2.1-3.631 3.86-.359.797-.887 1-1.624.7-5.54-2.367-9.064-5.436-10.498-9.974h-.892c-2.197 5.692-7.226 8.74-15.935 9.973-.6.067-1.026-.12-1.265-.362-.111-.24.181-.221.741-.443 5.224-2.096 8.62-5.099 10.302-9.168h-3.44c-.963 0-1.935.133-2.898.186s-1.736.23-2.353.35c-.519.247-2.699-2.707-1.447-2.552 2.659.314 5.06.314 7.235.314h3.431c.427-1.23.444-1.273.808-2.817h-2.237c-1.087 0-2.113.124-3.076.185-.972.045-1.691.248-2.188.341-.946.213-2.641-2.724-1.438-2.565 2.406.314 4.758.35 7.057.35h2.18c.164-1.163.355-2.353.417-3.848h-2.051v.19c0 2.194-3.542 2.269-5.078 2.423-.861.098-1.26-.247-1.26-1.392v-4.007c0-2.56-.053-4.29-.169-5.206-.275-.826.186-1.229 1.265-1.056 1.802.291 3.343.774 4.985 1.402.164.057.222.278.231.513h2.21c0-.761-.195-1.509-.195-2.274-.111-.22-.111-.398 0-.521-1.199.247-2.162.424-2.89.521-1.7.142-2.246-.672-1.82-2.078.098-.328.182-.973.182-3.184V29.7h-1.997c-.719 0-1.469 0-2.544.208-.63.102-1.811-1.72-1.811-2.242 0-.11.196-.226.546-.181 1.443.194 2.899.349 4.719.349h1.087v-.168c0-2.304-.115-3.785-.364-4.36-.235-1.172.249-1.597 1.461-1.389 2.641.482 4.35.685 5.158 1.066.909.46 1.038 1.048.421 1.539-.248.212-.337.707-.337 1.384v1.928h4.683v-.35c0-2.193-.062-3.489-.155-3.833-.498-1.155-.036-1.814 1.265-1.566 1.917.407 3.608.429 5.459.889.657.15 1.039.566 1.092 1.021.084.588-.266.89-.71 1.049-.502.19-.688.747-.653 1.583l.036 1.207h.559c1.074-1.981 1.922-3.064 2.544-3.312 1.074.248 2.756 1.33 5.055 3.312.475.818.373 1.866-.368 1.866h-7.781c0 1.597 1.181 4.423-1.261 4.971-1.336.31-2.627.65-3.972.65.475.24.714.522.714.872 0 .353-.239.548-.714.685-.409.16-.586.681-.586 1.053h2.543c.155-.642.941-2.37 1.922-2.37 1.709 0 3.343.79 4.985 2.016 1.016.756.848 1.397.177 2.264-.652.81-.484 3.883-.466 5.064.031.738-.084 1.26-.794 1.38.94.813 1.966 1.57 2.889 2.432.413.415.489 1.18.36 1.543 0 .24-.244.34-.737.34h-.892c.959.81 2.108 1.438 3.32 2.725.368.39.599 1.115.488 1.473-.12.225-.368.323-.732.323h-13.037c3.502 3.003 8.03 4.219 13.574 4.219m-33.046.36c.265 2.806-1.11 4.37-4.072 4.744-2.949-.373-4.123-2.036-3.536-5.082.813-2.676.953-4.659.731-6.304-.126-.93-.779-1.93-2.34-2.628-.988-.328-1.105-1.574 0-1.574 2.253.583 3.906-.097 4.971-2.102 1.536-3.13 3.48-8.399 5.846-15.726.122-.484.401-.653.897-.529.343.098.469.41.343.858-2.01 8.06-3.258 14.236-3.732 18.549a18.2 18.2 0 0 0-.161 4.375c.109 1.294.466 3.09 1.053 5.42m-71.012 5.223a1.77 1.77 0 0 0 .541-1.284c0-.496-.191-.947-.514-1.265l-9.882-9.996a1.77 1.77 0 0 0-2.523-.028l-9.91 10.024a1.795 1.795 0 0 0 .036 2.55l9.874 10c.334.313.776.515 1.25.515a1.74 1.74 0 0 0 1.273-.556zm24.568.713c3.24 3.282 6.431 6.597 9.691 9.827 1.712 1.828 2.133 5.316 1.234 7.668a50 50 0 0 1-5.166 9.396l-7.749-7.841-2.5-2.574-8.206-7.749-15.705 15.421a10.8 10.8 0 0 1-15.343-.028l-17.77-17.998c-4.247-4.302-4.247-11.265 0-15.562L56.299 37.59c4.235-4.297 11.128-4.305 15.36-.016L87.009 53.1l7.148-7.201c-5.958-10.049-16.537-16.65-28.95-17.052V14c20.313.46 37.698 13.053 45.132 30.79 1.254 3.274.168 6.274-1.81 8.264-3.077 3.068-6.169 6.11-9.25 9.15-1.381 1.196-1.281 2.175.151 3.431M64.1 99.14c11.016 0 20.879-5.103 27.338-13.045l10.495 10.608C92.732 107.282 79.176 114 64.1 114 36.49 114 14 91.543 14 64.004c0-26.174 20.306-47.732 45.98-49.843v14.926c-17.472 2.037-31.107 16.93-31.107 34.917 0 19.351 15.824 35.135 35.227 35.135" fill="#0086b2"/></svg>