<svg width="1199" height="128" fill="none" xmlns="http://www.w3.org/2000/svg"><path d="m630.405 37.684 9.378-4.437v2.465l11.427-.046q2.8-1.47 4.967-3.355 2.169-1.886 2.608-4.393.174 4.875-.654 7.163-.83 2.287-2.797 5.05v12.68c7.208-7.102 12.834-15.65 16.226-26.25l12.834 3.433c-.583 1.378-1.147 2.088-1.835 3.253 2.278 2.597 7.205 6.546 9.59 8.508 8.124 5.892 12.84 6.438 13.669 6.59q-3.17.352-5.545 2.79-2.587 2.657-6.04 7.094c-6.148-5.62-11.627-10.244-15.973-17.664a52.7 52.7 0 0 1-13.271 14.367q16.236.141 20.05 0 3.815-.143 5.264-4.45 1.056 3.97 0 5.79-1.056 1.822-2.851 3.834h-23.984v-3.913c-1.855 1.324-3.323 1.727-5.337 2.893h-2.797v33.75l-9.507 3.429-.08-7.922h-5.964v4.493l-9.378 3.757zm9.573 44.466h5.741V41.895h-5.741v40.256m19.141-15.567 11.371-4.495v5.66h19.103q7.315 0 9.685-6.577.48 2.468 0 5.487-.482 3.02-2.327 4.632v24.504l-11.912 4.804-.08-6.377-14.469-.02v2.086l-11.371 5.034v-34.74zm25.84 22.127V74.913H670.49V88.71zm30.912-57.995 8.314-1.28c.213.992.213 2.315 0 3.366h21.425c-1.545-2.637-4.696-5.68-6.233-7.205l6.836-6.521c3.971 2.21 6.342 4.569 7.338 6.522l-6.305 7.194q20.022 0 26.07.011 6.047.01 7.989-5.284.606 3.175 0 4.792-.603 1.62-2.498 2.771v13.45l-11.868.211v-11.64h-20.045c1.905 1.158 5.661 4.792 6.656 6.709l-7.337 6.67c-2.229-2.835-4.159-4.303-6.7-6.67l6.096-6.709h-22.354c-.309 4.35-2.536 8.208-4.379 10.78l-9.99-6.129c3.707-4.524 4.455-6.088 6.985-11.04m14.398 13.469 9.244 3.31v9.417c7.072-4.517 14.815-11.476 20.132-16.78l11.189 6.557c-6.487 6.88-18.161 14.087-26.881 18.71h12.771q6.376-.145 8.503-9.59c-.372 1.365 1.197 4.582 2.281 6.28 2.535 3.976 4.367 4.853 4.649 5.126 0 6.112-3.991 7.323-8.033 7.323h-25.477c-3.296 0-6.752-1.97-7.177-4.177-5.742 1.996-14.644 4.177-19.364 4.177l-1.465-2.99c7.018-2.678 13.672-4.85 19.628-8.002zm44.619 1.546c4.542 4.132 7.514 8.98 10.561 13.704l-9.567 7.223c-1.763-6.44-5.863-14.701-8.374-19.53zm-53.832 1.395 6.473 2.574c-1.395 5.508-4.411 11.075-8.653 16.797l-9.263-7.062c3.415-3.101 7.717-7.175 11.443-12.308zm44.621 42.835v-8.724l13.129-5.478v20.835l-13.129 4.328v-4.328l-49.01-.328V81.237l13.17-5.477v13.898l11.562-.08v-8.246l12.152-5.572v13.818zm83.392-54.686q13.908 0 15.794-5.839.323 3.964-.661 6.382-.982 2.42-6.519 5.938h-24.061V52.05h15.447q10.472 0 12.404-6.321-.028 4.717-.783 7.081-.757 2.364-3.006 4.762v28.412c0 5.655-4.379 8.483-9.174 8.483h-6.393c0-4.268-.702-9.231-8.108-9.765v11.99l-13.175 4.627V58.45h-13.968v30.41l-12.63 5.838v-41.09l12.63-5.727v4.169h13.968V41.753h-29.739l-2.289-6.48h37.218c-2.238-2.296-5.046-5.839-6.071-7.357l6.782-5.96c2.15.844 5.768 4.603 6.887 6.52l-6.164 6.796h21.611zm-15.06 23.587v24.57c3.803.423 4.78.636 8.162.636q1.664 0 1.664-2.308V58.862h-9.826zm99.839-25.92q6.605.001 9.504-5.423.047 3.7-.59 5.73-.639 2.028-4.91 5.678h-15.868l7.859 3.122c-1.848 2.622-3.564 4.962-7.249 7.728h12.957q3.606 0 7.802-6.342.115 4.232-.59 7.049a14 14 0 0 1-2.456 5.116v34.628c0 5.478-2.769 9.795-8.11 9.795h-6.534c0-5.053-1.178-10.364-4.034-10.444v1.542l-9.578 2.175v-2.852h-10.952v2.852l-12.154 3.298V73.286s-1.117.534-1.865.853l-2.426-2.214v21.967l-12.017 5.511V49.7l12.017-3.834v3.91h6.036c-2.563-3.245-4.837-4.635-7.613-6.923l4.54-3.927H871.12l-1.442-5.984h36.323c-3.372-4.308-5.638-6.118-6.919-6.969l6.919-6.898c3.952 1.33 6.69 5.296 7.245 6.522l-6.118 7.345h26.722zM884.99 66.658c2.023-1.875 8.414-8.776 9.399-10.384h-9.4zm10.862-10.384 8.758 4.897c-3.473 3.124-7.221 7.08-11.442 9.516l7.668-1.825v3.065h14.235q5.042 0 6.556-2.315v17.164q1.202.08 2.164.08c1.496 0 3.849-.76 3.849-2.455V67.714l-3.575 4.21c-5.023-4.289-10.385-8.342-15.513-11.202l3.321-4.449zm18.807 0c4.406 1.752 9.729 3.669 12.981 5.75v-5.751zm-2.87 28.328v-7.243h-10.953v7.243zm-12.031-35.038h10.116c2.326-3.057 3.828-6.483 5.741-10.543h-22.968c4.274 2.176 7.254 4.722 9.958 6.846zm88.363-16.772 12.469-4.712v40.78c3.89-8.091 7.3-18.512 9.75-28.296l12.23 6.561c-5.12 12.692-11.19 24.062-18.22 34.11l-3.76-1.745v12.846h13.5c5.62 0 8.95-2.116 9.97-6.351q1.335 4.314-.51 7.907c-1.24 2.395-3.27 3.911-6.11 4.552h-67.765l-1.517-6.107h21.1v-14.67l-7.753 5.95q-6.075-21.816-13.347-35.301l6.953-5.236.289.355q4.64 5.802 13.858 24.872V32.943l12.469-4.465v63.858h6.393zm50.089 24.68h-3.09l-1.41-2.54c-1.32 1.598-3.8 3.79-5.17 5.175l-1.65-1.877c4.12-7.828 7.46-18.943 10.53-30.71l11.01.958c-1.27 3.462-2.19 6.283-3.56 9.266h7.06c2.87 0 4.91-1.287 6.13-3.86q.78 3.868-.36 6.247c-.76 1.587-2.23 2.814-4.4 3.683h-11.61c-1.32 2.396-2.19 5.75-4.19 7.587h13.38c3.6 0 5.99-1.57 7.18-4.712q1.065 3.388-.36 6.709c-.95 2.214-3.78 3.385-8.48 3.514v9.345h4.69q1.905 0 5.34-4.233l1.39 3.595V31.583l11.49-5.023v5.272h16.97q7.8 0 10.92-5.272c.05 2.167-.12 3.948-.49 5.34-.38 1.392-1 2.452-1.88 3.181v32.213l-10.72 1.358v-2.156h-4.76c1.42 3.727 2.46 6.122 4.47 9.264 1.53-1.865 3.62-5.074 5.04-6.899l9.56 6.052c-2.86 3.248-6.98 6.947-10.25 8.703 0 1.514 1.75 4.132 4.43 5.962.93.635 5.24-.718 8.32-1.866l-10.3 14.566c-9.66-7.136-15.95-19.062-18.86-35.782h-2.45v23.162c2.27-.64 4.84-2.821 7.17-3.673q1.635 3.975 0 7.31c-1.65 3.334-11.85 6.479-18.66 8.502l-2.07-9.583q1.035-.081 2.07-.24V65.987c-3.29 4.387-5.73 6.58-7.34 6.58h-4.08v10.105c2.7-1.492 6.79-4.652 8.48-8.134q1.56 7.614.87 9.863c-.67 2.25-9.98 11.036-16.95 16.521l-5.39-11.86q1.02-.398 1.98-.718V72.568h-9.67l-.56-6.311h10.23zm33.41 1.677h15.31V51.48h-15.31zm0-13.418h15.31v-7.668h-15.31zm96.56-14.147c6.59-.03 10.31-1.9 11.18-5.61q.555 5.052-.51 7.274c-.72 1.48-2.14 2.768-4.28 3.856h-37.38l-1.44-5.52q22.545.044 32.43 0m7.63 17.98q7.995.137 8.94-6.129.96 4.395-.81 7.702c-1.19 2.206-2.89 3.627-5.09 4.265h-12.09l-.42 34.418c0 6.772-2.79 11.102-9.1 11.102-6.3 0-6.77-9.413-17.61-13.9 3.97.213 10.28-.32 14.09 0 1.33 0 1.29-.506 1.29-2.318V55.4h-19.73l-.72-2.8c-1.96 2.24-4.42 6.649-6.54 8.569v34.623l-10.81 5.527V67.714c-1.43.96-6.33.592-7.64.034l-3.01-1.418c8.32-7.25 16.05-16.473 22.62-26.87l12.44 4.831c-1.22 1.76-3.21 3.779-4.43 5.272 20.41-.091 33.29-.091 38.62 0m-53.78-23.003 9.86 4.155c-5.45 8.76-12.58 17.111-21.43 22.682l-5.34-4.868c6.15-5.786 12.11-13.748 16.91-21.969" fill="#000"/><path d="M601.495 48.432q-14.956-1.314-23.789 2.402c-8.833 3.714-17.249 11.12-35.622 27.814S489.854 114 456.085 114q-33.77 0-56.152-4.136 12.845 2.17 37.821 0c24.978-2.17 53.311-14.684 64.582-22.427 11.268-7.741 23.913-17.24 31.47-23.632 7.559-6.393 24.505-18.463 38.499-20.157q13.993-1.693 29.19 4.784" fill="#f2a100"/><path d="M356.578 100.571q19.972 9.05 44.222 6.034c24.25-3.017 54.848-12.615 77.508-29.464s44.634-39.947 65.319-44.776 44.51 1.232 57.271 11.424c12.763 10.194 12.485 8.573 3.657 0C595.726 35.218 570.597 14 543.627 14c-26.971 0-45.937 8.207-62.556 10.558-16.618 2.351-58.074.475-71.303-4.107s-22.484 2.552-27.012 7.233c-4.529 4.68-15.844 9.122-19.785 9.122s-.504 4.5 11.203 4.5h92.932c2.47 0-34.259 33.989-57.338 48.284q-23.079 14.295-53.19 10.981" fill="#ae1f33"/><path d="M14 95.453q3.426-.199 4.847-1.14 2.382-1.587 2.382-6V39.176q0-4.313-2.13-5.851-1.296-.892-5.099-1.338v-2.58h28.957v2.58q-3.76.247-5.222 1.19-2.424 1.586-2.424 5.999V60.2h20.392V39.175q0-4.413-2.299-5.95-1.42-.942-5.306-1.24v-2.578h29.125v2.579q-3.76.345-5.14 1.289-2.298 1.536-2.299 5.9v49.139q0 4.46 2.55 6.05 1.463.94 4.889 1.09v2.578H48.098v-2.579q3.677-.149 5.223-1.19 2.382-1.586 2.382-5.95V64.91H35.312v23.405q0 4.51 2.59 6.099 1.505.89 5.055 1.04v2.58H14zm68.97 0q4.766-.05 6.191-2.058t1.426-6.024V39.175q0-4.165-1.63-5.478-1.629-1.315-5.783-1.711v-2.58h21.017l16.413 47.007h.693l14.417-47.006h21.017v2.579q-4.237.395-5.784 1.909-1.548 1.511-1.548 7.413V86.18q0 5.604 1.548 7.338 1.547 1.736 5.784 1.934v2.58h-27.697v-2.58q3.705-.15 5.581-1.512 1.873-1.364 1.873-5.975V38.332h-.611l-18.531 59.7h-2.24l-20.65-58.51h-.366v45.964q0 5.059 1.548 7.388 1.547 2.331 6.842 2.58v2.578H82.97zm114.274-66.999q5.352 0 10.828 2.34l2.165.912q3.449 1.429 3.94 1.43 1.63-.001 2.612-1.48.983-1.478 1.234-3.103h2.383V52.15h-2.174q-3.094-7.684-6.313-12.119-6.02-8.177-13.629-8.177-8.613 0-12.229 8.743-3.617 8.745-3.617 23.476 0 10.838 2.132 17.834 3.972 13.105 14.759 13.105 6.604 0 12.292-4.336 3.26-2.512 7.692-8.03l2.55 2.463q-5.017 6.601-8.821 9.557-6.773 5.273-15.051 5.273-12.668 0-21.239-8.87-9.49-9.802-9.491-26.406 0-16.454 9.073-26.651 8.529-9.559 20.904-9.558m63.223 0q5.352 0 10.828 2.34l2.165.912q3.45 1.429 3.94 1.43 1.63-.001 2.613-1.48.982-1.478 1.233-3.103h2.383V52.15h-2.174q-3.094-7.684-6.313-12.119-6.02-8.177-13.63-8.177-8.612 0-12.229 8.743-3.616 8.745-3.616 23.476 0 10.838 2.132 17.834 3.972 13.105 14.759 13.105 6.605 0 12.291-4.336 3.26-2.512 7.692-8.03l2.551 2.463q-5.017 6.601-8.821 9.557-6.773 5.273-15.05 5.273-12.669 0-21.24-8.87-9.49-9.802-9.49-26.406 0-16.454 9.072-26.651 8.529-9.559 20.904-9.558m32.828 67.324q3.469-.15 4.973-1.1 2.549-1.598 2.549-6.095V39.076q0-4.494-2.382-6.044-1.42-.949-5.14-1.2v-2.597h26.45q7.646 0 12.703 2.099 9.526 3.946 9.526 14.387 0 6.345-3.865 10.066-3.865 3.723-8.378 4.721v.95q4.764 1.097 8.274 3.696 6.852 5.095 6.852 14.188 0 8.491-6.56 13.763-6.56 5.27-17.465 5.27h-27.537zm21.008-35.814q7.936 0 10.651-3.088 2.717-3.088 2.717-10.96 0-5.83-1.776-9.814-1.776-3.986-6.83-3.986-2.674 0-3.718 1.07-1.045 1.073-1.044 3.861zm0 29.395q.04 2.694.653 3.94 1.02 2.197 3.921 2.197 5.924-.001 8.313-3.943t2.391-11.224q-.001-10.876-5.27-14.469-3.187-2.194-10.008-2.046z" fill="#000"/></svg>