<svg width="406" height="128" fill="none" xmlns="http://www.w3.org/2000/svg"><path d="M114.485 74.347a21 21 0 0 1-.632-1.33c-.074-.11-.111-.222-.185-.37a26 26 0 0 0-.558-1.034l-.112-.222c-.223-.407-.483-.776-.706-1.183-.074-.11-.149-.184-.186-.295a18 18 0 0 0-.595-.887c-.074-.111-.111-.185-.186-.296-.26-.37-.52-.702-.78-1.072-.075-.073-.112-.147-.186-.221-.223-.296-.446-.555-.669-.85-.075-.074-.149-.185-.223-.259-.298-.332-.558-.665-.855-.96l-.075-.075c-.26-.295-.557-.554-.818-.85l-.223-.221a13 13 0 0 0-1.041-.961l-.111-.111a20 20 0 0 0-1.004-.85c-.074-.037-.111-.11-.186-.148-.371-.295-.706-.554-1.078-.85-.074-.037-.148-.11-.223-.148-.372-.258-.743-.517-1.152-.776l-.037-.036c-.372-.26-.744-.48-1.153-.703l-.223-.11a34 34 0 0 0-1.19-.666l-.223-.11a19 19 0 0 0-1.226-.592c-.41-.185-.818-.37-1.264-.554l-.223-.111a13 13 0 0 0-1.264-.48c-.075-.037-.15-.037-.186-.074-.41-.148-.818-.296-1.227-.407-.037 0-.074-.037-.112-.037-.446-.148-.855-.258-1.3-.406-.075-.037-.15-.037-.26-.074-.447-.111-.856-.222-1.302-.333-.037 0-.112-.037-.149-.037-.409-.11-.855-.185-1.264-.295-.074 0-.111-.037-.148-.037-.447-.074-.893-.185-1.339-.26-.074 0-.148-.036-.26-.036-.446-.074-.892-.148-1.376-.222h-.074c-.446-.074-.892-.11-1.338-.184-.075 0-.149 0-.186-.037a16 16 0 0 0-1.338-.148c-.075 0-.149-.037-.223-.037a58 58 0 0 0-2.528-.148c-.186 4.102-.67 8.5-1.45 13.23-.967 5.876-5.8 10.495-12.268 11.788-4.647.924-9.07 1.516-13.309 1.737v.296c.037.406.037.813.074 1.22 0 .073 0 .147.038.258.037.444.074.85.111 1.294 0 .11 0 .184.037.295.038.444.112.887.149 1.33v.148c.074.407.111.85.186 1.257 0 .074.037.185.037.259.074.443.149.886.223 1.293.037.11.037.185.075.296.074.443.185.887.297 1.33 0 .037 0 .037.037.074.112.443.186.85.335 1.293.037.074.037.185.074.259.111.407.26.85.372 1.293.037.074.037.185.074.26.149.443.297.886.446 1.293v.036c.149.444.335.887.483 1.294.038.074.075.185.112.259.186.406.372.85.558 1.256l.111.222c.186.406.372.813.595 1.22 0 .036.037.036.037.073l.67 1.22c.036.074.11.148.148.258.223.407.483.813.743 1.183.038.074.075.148.112.185.26.369.52.739.78 1.145.038.037.038.074.075.111.297.407.595.776.892 1.146.075.074.112.148.186.221.298.37.632.74.93 1.109l.148.148c.298.333.632.665.967 1.035a.5.5 0 0 1 .111.148c.298.295.632.591.93.886l.223.222c.26.222.52.444.78.702.075.074.186.148.26.222.335.296.707.554 1.079.85.037 0 .037.037.037.037.334.259.706.517 1.078.739.112.074.223.148.297.222.298.222.632.406.967.628a.6.6 0 0 0 .26.148c.41.259.818.48 1.227.739.112.037.186.111.297.148.335.185.67.369 1.041.554.112.074.26.148.372.185.446.222.892.443 1.376.665l39.852.037zm-40.41-30.155c-.037-.443-.074-.924-.148-1.367v-.148c-.074-.48-.112-.924-.186-1.404s-.149-.924-.223-1.405c0-.074-.037-.11-.037-.184-.075-.444-.186-.924-.26-1.368 0-.037 0-.074-.038-.11-.111-.444-.186-.887-.297-1.33 0-.038-.037-.075-.037-.112-.112-.443-.223-.887-.372-1.33a.28.28 0 0 0-.074-.185c-.149-.443-.26-.887-.41-1.33v-.037c-.148-.444-.297-.85-.445-1.294-.038-.037-.038-.11-.075-.148a18 18 0 0 0-.52-1.256c-.037-.074-.075-.11-.075-.185-.371-.85-.78-1.7-1.19-2.513-.036-.074-.073-.11-.11-.184-.224-.407-.447-.814-.67-1.183-.037-.074-.074-.11-.111-.185-.223-.406-.484-.776-.744-1.182v-.037c-.26-.37-.52-.776-.818-1.146-.037-.074-.111-.148-.148-.222-.26-.37-.558-.739-.855-1.071-.038-.037-.075-.111-.15-.148-.296-.333-.557-.665-.891-.998l-.112-.11a24 24 0 0 0-.966-.999l-.224-.221c-.26-.259-.557-.518-.855-.813l-.074-.074c-.297-.296-.632-.555-.966-.85-.112-.074-.186-.148-.298-.222a12 12 0 0 0-.818-.628c-.074-.074-.148-.111-.223-.185-.334-.259-.706-.517-1.078-.776-.111-.074-.186-.11-.297-.185-.298-.184-.595-.406-.892-.591-.112-.074-.224-.148-.335-.185-.372-.221-.78-.48-1.19-.702l-.223-.11c-.334-.186-.706-.37-1.04-.555-.112-.074-.224-.111-.372-.185a22 22 0 0 0-1.339-.628l-.037.037L14 14l.037 39.43c.223.481.446.925.67 1.368.074.111.148.259.185.37.186.37.372.702.558 1.035.037.11.111.184.149.295.223.407.483.813.743 1.22.037.074.112.147.149.221.186.333.409.629.632.961.074.111.148.222.223.296.26.37.52.702.78 1.072 0 0 .038.036.038.074.26.369.557.702.855 1.034.074.111.148.185.223.259.223.259.446.517.706.776.074.074.149.148.186.222.297.332.595.628.892.923a.5.5 0 0 0 .149.111c.334.333.669.666 1.04.961.075.037.112.111.15.148.371.333.743.628 1.115.924.074.074.148.11.223.185.372.295.78.591 1.152.887.037.037.075.037.112.073.372.26.743.518 1.152.777a.8.8 0 0 1 .186.11c.409.26.818.48 1.19.74.074.037.148.11.223.147.409.222.818.444 1.264.665.037 0 .037.037.074.037.409.222.818.407 1.227.592l.223.11c.409.185.855.37 1.264.555.074.037.186.074.26.11.446.186.892.333 1.338.518h.038l1.338.444a.7.7 0 0 0 .26.074c.446.11.855.258 1.301.37.075.036.186.036.26.073.447.11.856.222 1.302.333h.074c.446.11.892.184 1.338.295.112 0 .186.037.298.074.446.074.892.148 1.3.222.075 0 .187.037.261.037.41.074.855.11 1.264.185.037 0 .074 0 .149.037.446.074.892.11 1.338.147.112 0 .186 0 .297.037.447.037.893.074 1.302.111h.26c.409.037.818.037 1.227.074h.297c.26-4.213.855-8.61 1.747-13.193 1.302-6.43 5.986-11.197 11.897-12.158 4.795-.776 9.219-1.256 13.383-1.441-.038-.85-.075-1.7-.186-2.513 0-.111 0-.185-.037-.222" fill="#ea5c03"/><path d="M73.183 54.207h-.111c-.446.037-.892.074-1.301.074-.075 0-.186 0-.26.037-.447.037-.855.074-1.302.11-.037 0-.111 0-.148.038-.41.037-.818.073-1.19.11-.074 0-.111 0-.186.038-.409.036-.818.11-1.264.147-.074 0-.186.037-.26.037-.409.037-.818.111-1.227.148h-.111c-.41.037-.781.11-1.153.148-.074 0-.148.037-.223.037-.409.074-.78.11-1.19.185-.074 0-.148.037-.26.037-.409.073-.78.11-1.19.184-3.234.518-5.353 3.326-5.985 6.504-.074.333-.111.666-.185.998 0 .074-.038.111-.038.185-.074.333-.111.665-.185.998 0 .074-.038.148-.038.184-.074.333-.111.703-.185 1.035v.074c-.075.37-.112.74-.186 1.109 0 .074-.038.148-.038.222-.074.37-.111.739-.148 1.108 0 .074-.038.148-.038.222-.037.37-.111.739-.148 1.108v.111c-.037.37-.075.776-.112 1.183 0 .074-.037.185-.037.259-.037.406-.074.776-.111 1.182 0 .074 0 .148-.038.222-.037.37-.074.74-.074 1.146v.258h.26c.372-.037.781-.074 1.153-.074h.223c.409-.037.818-.074 1.19-.11.074 0 .185-.037.26-.037.409-.038.78-.074 1.19-.111.036 0 .074 0 .148-.037.372-.037.743-.074 1.115-.148.075 0 .149-.037.223-.037.372-.037.744-.111 1.115-.148.075 0 .15-.037.224-.037.371-.037.743-.11 1.115-.185h.074c.335-.074.706-.11 1.041-.184.075 0 .112-.037.186-.037.335-.074.67-.111 1.04-.185.075 0 .15-.037.187-.037.334-.074.669-.111 1.004-.185 3.234-.628 6.06-2.734 6.58-5.913.074-.37.111-.776.186-1.182 0-.074.037-.148.037-.222.074-.37.111-.776.186-1.182 0-.074.037-.148.037-.222.037-.37.111-.776.148-1.146v-.11c.038-.407.112-.814.15-1.22 0-.074.036-.185.036-.259.037-.406.112-.813.149-1.256 0-.074 0-.111.037-.185l.112-1.22v-.148c.037-.443.074-.85.111-1.293 0-.074 0-.148.037-.259.038-.443.075-.887.075-1.33v-.11c0-.26.037-.481.037-.74-.26.111-.52.11-.744.11M47.346 84.51c-.111-1.22-.223-2.513-.26-3.806-1.3-.037-2.602-.148-3.829-.26-11.301-1.108-20.484-5.099-27.398-11.936l-.298-.295L14 69.802v44.087h44.127l1.599-1.958a1.1 1.1 0 0 1-.297-.296c-6.915-6.837-10.967-15.965-12.083-27.125M70.396 14l-1.636 1.626c.074.037.185.148.185.148 6.655 6.578 10.67 15.373 11.97 26.127a68 68 0 0 1 .41 4.952c1.71.074 3.383.185 5.019.406 10.855 1.294 19.74 5.285 26.394 11.826.074.037.112.11.186.185l1.636-1.59V14z" fill="#d10f22"/><path d="M340.327 79.928v17.516l9.294-10.125h3.197l-7.212 7.723 7.472 10.237h-3.085l-6.171-8.389-3.495 3.696v4.693h-2.565V79.928zm-139.668 6.245c2.788 0 4.795.776 6.059 2.07 1.339 1.367 1.933 3.437 1.933 5.913v10.79h-4.907v-1.995c-1.226 1.404-2.937 2.365-5.427 2.365-3.383 0-6.171-1.996-6.171-5.691v-.074c0-4.065 2.974-5.913 7.212-5.913 1.784 0 3.122.333 4.386.776v-.296c0-2.18-1.301-3.4-3.829-3.4-1.933 0-3.308.37-4.944.998l-1.264-4.028c1.97-.924 3.903-1.515 6.952-1.515m126.471.776c4.238 0 6.691 2.92 6.691 7.17v11.16h-2.602V94.784c0-3.326-1.747-5.396-4.833-5.396-3.011 0-5.241 2.254-5.241 5.617v10.274h-2.603v-17.96h2.603v3.141c1.152-1.959 2.974-3.51 5.985-3.51m-103.943-.776v5.543h-.26c-3.309 0-5.353 2.144-5.353 6.615v6.948h-4.982V86.506h4.982v3.77c1.003-2.55 2.639-4.25 5.613-4.103m84.017.776c4.758 0 7.435 2.476 7.435 7.133v10.827h-2.491v-2.66c-1.227 1.626-3.234 3.067-6.32 3.067-3.234 0-6.505-1.848-6.505-5.543 0-3.77 3.048-5.765 7.435-5.765 2.23 0 3.792.332 5.353.776v-.629c0-3.178-1.933-4.84-5.205-4.84-2.044 0-3.68.554-5.279 1.293l-.78-2.144c1.933-.924 3.829-1.515 6.357-1.515m-75.318-7.797v9.571c1.264-1.774 3.011-3.067 5.688-3.067 4.275 0 8.327 3.474 8.327 9.793v.074c0 6.319-3.977 9.793-8.327 9.793-2.751 0-4.461-1.294-5.688-2.809v2.476h-5.204V79.189h5.204zm35.912 7.021c4.052 0 6.394 2.66 6.394 6.948v12.158h-5.353V94.821c0-2.513-1.19-3.807-3.235-3.807s-3.345 1.294-3.345 3.807v10.458h-5.354V86.506h5.354v2.66c1.264-1.552 2.825-2.993 5.539-2.993m-14.462.407v18.699h-5.762V86.543h5.762zm-79.109-6.246v9.72h9.591v-9.72h5.205v24.575h-5.205v-9.867h-9.591v9.867h-5.205V80.334zm113.645 0c4.685 0 7.77 2.402 7.77 6.135 0 3.252-1.896 4.878-3.792 5.728 2.826.887 5.093 2.587 5.093 5.986 0 4.25-3.42 6.726-8.624 6.726h-10.595V80.334zm19.257 15.595c-3.271 0-5.093 1.478-5.093 3.77 0 2.328 2.008 3.621 4.387 3.621 3.197 0 5.837-2.032 5.837-4.878v-1.737c-1.264-.406-2.974-.776-5.131-.776m-19.591-1.958h-7.472v8.573h7.918c3.569 0 5.799-1.626 5.799-4.36.038-2.698-2.119-4.213-6.245-4.213m-87.177 2.882c-2.156 0-3.457.887-3.457 2.476v.074c0 1.367 1.115 2.18 2.751 2.18 2.342 0 3.941-1.33 3.941-3.178v-.924c-.893-.332-2.008-.628-3.235-.628m35.577-6.393c-2.453 0-4.498 2.07-4.498 5.248v.073c0 3.142 2.045 5.248 4.498 5.248s4.536-2.032 4.536-5.248v-.073c-.037-3.179-2.119-5.248-4.536-5.248m51.972-7.797h-7.844v8.573h7.621c3.16 0 5.316-1.515 5.316-4.472.037-2.513-1.785-4.102-5.093-4.102m-34.499-2.846v4.545h-5.874v-4.545zm-80.076-27.568c1.635.554 2.937.332 3.457.332.521 0 .781.407 1.264.702.483.296 0 1.7 0 2.44 0 .775-3.68 4.988-4.721 5.543s-1.004 1.33-.372 2.143.446 1.515-.595 1.922c-1.041.406-1.041 0-1.896 0s-5.204.37-6.803.37c-1.598 0-2.491.406-3.271-.37-.781-.776-1.487-.407-2.157-.407s-.148 2.291-.446 3.252c-.26.961-.929 0-1.598 0s-1.636-.332-2.194-2.476c-.557-2.143-1.412-7.834-1.412-8.906s-1.078-2.254-1.301-3.215.223-.998 1.041-.628c.817.37 2.788 1.478 3.383 1.921.594.444 2.081.185 4.684-.443 2.602-.628 5.836-2.772 7.546-3.29 1.71-.516 3.755.518 5.391 1.11m39.926-5.84c.595.777 2.528 1.96 2.528 2.92 0 .961-.372 1.737 0 2.476.372.702.632 1.441 1.004 2.587.334 1.146.409 4.139.372 6.726-.038 2.55-.93 5.1-1.376 6.023-.446.924-2.342 1.11-3.048-.332-.707-1.441-3.309-6.246-3.309-7.428 0-1.183 1.376-.48 1.376-3.88s-1.153-9.793-.409-10.422c.706-.628 2.267.555 2.862 1.33m55.243 11.457c.632.37 2.119.48 3.457 1.108 1.339.629 2.565 1.22 3.123 3.326.558 2.107-.558 3.178-.558 3.696 0 .517-1.747 1.072-2.379 1.072s-1.004-1.59-1.524-2.107-1.375-1.072-2.119-2.402c-.743-1.33-1.375-2.55-1.375-3.03s-1.227-1.737-.558-1.996 1.301 0 1.933.333m119.519-22.469c1.339 0 1.896 1.109 3.235 2.07s1.152 1.921 1.152 2.254-.855.665-1.784.665c-.93 0-1.487.407-2.974.665-1.487.222-2.268-.665-3.421-.665-1.152 0-3.383-.48-4.647 0s-.966 1.885-.966 3.252 0 1.7-.26 4.841c-.261 3.141.483 2.846.483 4.878s.186 2.402.186 3.77c0 1.33.111 1.736.297 2.92.186 1.182-.743 1.33-.483 2.475s.149 1.257-.26 2.107-.223 1.773-.595 1.773-.409.296-1.004.296-.929-.37-1.152-1.035-.595-1.367-1.153-1.884c-.557-.518-.706-1.405-1.003-1.96-.298-.553-.372-.59-.372-1.736s1.004-1.774 1.115-2.92c.112-1.108 0-6.836-.26-7.65-.26-.812.26-1.292.557-2.105.298-.814-.297-3.437-.297-4.213s-.409-1.811-1.115-2.107c-.707-.295-1.896.296-3.978.628-2.082.333-2.045-.628-3.048-.628s-1.636-1.367-1.971-1.774c-.334-.406-1.375-.59-.929-1.145s6.06-.222 8.104-1.257c2.045-1.034 6.097-.665 7.881-.665 1.785 0 3.532-.037 5.354-.813 1.821-.813 1.97-.037 3.308-.037m-68.737-10.865c.743 0 2.714.148 3.866.703s3.048.887 4.573.887c1.524 0 .594.48 1.375.48.744 0 .632.591.632.887 0 .295-.52-.074-.855.776s-1.115 1.884-1.338 2.365c-.223.48-.037 1.441-.409 1.7-.372.222-.632-.924-.632-.222s-1.19 3.733-.892 4.36c.334.63 0 1.11-.335 2.033-.335.924-1.078 1.959-.892 2.366.186.406.892 0 1.821 0 .93 0 1.041.665 2.119.665s2.045 1.182 1.599 1.515c-.409.332-1.078 1.035-1.822 1.774-.743.739-1.933 1.33-2.528 1.773-.557.444-1.375.74-1.375 1.22s2.9 1.996 3.494 2.291c.595.296 1.116.185 1.116 0 0-.11-.669-.591-1.971-1.441l.447.185c1.97.813 3.829 1.7 5.539 2.587l.409.221c2.936 1.59 5.13 2.846 5.65 3.991s.595 3.179 0 3.326-1.301.74-1.784.74-.483 0-1.338-.74c-.856-.739-3.607-2.217-5.465-3.326-1.822-1.108-4.424-2.586-5.056-2.586h-.112c-.483 0-.111.037-.371.517-.261.517.26.185 0 .407-.261.221-.818 1.256-.595 1.256s1.375-1.441 1.375-1.072c0 .37-.669 1.109-1.003 1.515-.335.407.334.666-.372 1.33-.707.666-.298.777-1.822 2.735-1.524 1.959-2.676 1.922-3.829 3.068-1.152 1.145-1.264 2.254-1.71 2.254s-1.19 1.404-2.342 1.589-1.487-.185-2.231-.776-.669-1.072-1.264-2.033c-.594-.96-.446-1.736 0-2.18.447-.443.595-.998.595-2.328s.223-24.908 0-25.166c-.223-.222-.595 0-1.784 0s-.521-.333-1.933-.333c-1.413 0-1.785-.628-2.305-.85s-.558.591-1.227 1.183c-.669.59-1.375 1.182-1.859 1.958-.483.776.484.628 1.19.628s1.71-1.034 2.379-.628 1.785.037 2.528.333c.744.295 1.301.998.669 1.367-.632.37-.223.74-1.004.998-.78.259-.78.554-1.71.813s-1.933.407-2.862.776c-.93.37-1.487.407-2.082.407s-.483.702 0 1.182.855.665 1.376.998c.483.332 1.226.185 2.044-.333.818-.517 1.562-.665 2.454-.665s1.561.333 2.044.665c.484.333 1.525.665 1.041.998-.483.333-1.041.665-1.97.665s-1.413.998-2.528 1.515c-1.115.518-1.078-.073-2.379 1.146-1.301 1.256-1.19 3.104-1.19 4.028v1.996c0 .702.632.739 1.116.739h.111c.483 0 1.524-1.294 2.379-2.144.855-.887 2.64-2.55 3.197-2.993.558-.407.855-.444.893.37v.443c.557-.037.855.185.855.665 0 .702-.446 2.07-.855 3.474s-3.569 4.287-4.833 5.395c-1.264 1.109-1.599.74-1.599 1.22s-.706 1.108-1.45 1.995c-.743.887-1.226 1.885-2.156 1.885-.929 0-1.636-2.143-2.416-2.402-.521-.185-.818-.517-.93-.998-.334-.85-.334-1.589 0-2.143.484-.85.484-2.846.707-3.585s.557-1.589.223-2.734c-.372-1.183 0-1.626-.446-2.07s-1.301.444-1.896.444-2.119.776-2.751.517-1.599 0-2.082-.517c-.483-.518-1.71-.666-1.301-1.479s2.528-.96 3.829-1.256c1.301-.333 2.156-1.22 3.68-1.478 1.524-.259.93-1.22.93-2.624s-.446-.998-.446-1.7c0-.665-.521-.776-1.302-.517-.78.258-1.933 1.737-2.602 1.737s-4.349 1.847-5.613 2.328-.781-.776-1.376-.776-1.933-.407-1.45-.407 2.974-2.365 4.35-3.954c1.375-1.59 6.803-10.052 7.993-11.53 1.226-1.478 1.895-3.03 2.193-3.658.26-.629 1.338-.961 1.97-.48.632.48 2.974.812 4.684 1.108 1.71.295 2.194.295 3.197.998 1.004.702.521 1.108.261 1.44-.261.333-.93.407 0 .814.929.406 2.044 1.552 2.453 1.293s.558-.665.558-1.293c0-.629.111-1.035.669-.407.558.591.818.407 1.524 1.257.744.887.26 1.035.632 1.921s.223 1.515.595 1.774c.335.222 1.859-.332 2.602-.332.744 0 .744.332 1.339.332.594 0 0-.628 0-1.256 0-.592-.261-.998-.261-1.294v-2.365c0-.332-.52-.074-.818 0s-1.933-.074-2.825-.406c-.892-.333-.372-.776-1.45-.776s-.446-.444.261-.887c.706-.444 2.119-.48 2.639-.776.483-.37 1.115-1.405 1.859-1.405m-55.206-.147c.818.517 2.119 1.293 2.714 2.143s1.524.517 2.082 1.848 1.227 1.663 1.227 1.921c0 .222-1.525 1.257-1.227 1.663s1.004-.258 1.784-.258c.781 0 1.45-.407 2.082-.776s1.822 0 2.565 0c.744 0 2.193 1.44 3.383 1.44s2.045-.22 2.602.26c.558.48.521 1.33.818 1.7.298.369-.297 1.478-.818 1.478s-1.412.148-2.007.48c-.595.333-1.97 0-3.272.628-1.301.629-1.561.998-3.271.998s-2.416-.37-2.416-.998.669-1.367 0-1.773c-.67-.444-2.305.85-3.235 1.145-.892.296-2.342.259-2.565.628-.223.37.744.998 1.785.998 1.003 0 2.267-.074 3.494.591 1.227.666 1.227 1.774 0 2.587s-2.974 1.294-3.494 1.626c-.521.333-1.301.259-1.785.518-.446.258-1.264.443-1.859.85-.594.406-2.342-.222-2.676.406-.335.665.074.333.818 1.109.78.776 1.97 1.22 2.602.776s2.082-1.22 2.862-1.922 1.227-1.589 1.896-1.256c.67.332 1.302.48 1.896.48.595 0 1.562-.48 2.231-.48s1.524.48 2.007.48-.148 1.257-.52 1.257-.521.665 0 .665c.52 0 1.078.184 0 .48s-1.673.74-2.416.74c-.744 0-1.227.295-1.896.59-.67.296-.67.924.297 1.442.929.517 1.599 1.22 1.599 1.958 0 .74-.595 1.442 0 1.442.594 0 2.936-.296 4.609-.296s2.528-.185 3.272-.48c.743-.296 3.048 0 4.015.48.929.48 3.717 1.072 2.974 2.291-.781 1.257-1.785 1.257-2.974 1.257s-3.123-.555-4.61-.555-4.535-.554-6.989.333c-2.416.887-3.123.924-3.866.924-.707 0-1.339-.296-2.305-.296s-1.45.518-2.342.518h-.149c-.892 0-2.23.036-2.23.59 0 .592 1.895 1.146 2.974 2.033 1.078.887.632 1.737 0 2.255s-1.748 1.847-2.974 2.254c-1.264.406-2.491 1.182-3.532 1.589-1.041.406-1.19.406-2.082.406s-.743-.813-1.487-.406 2.082-2.365 2.082-3.104c0-.74 2.082-2.772 2.528-3.585s1.115-1.515-.26-1.035c-1.376.518-3.495 1.59-5.317 1.59-1.821 0-2.639-.925-3.234-.592s-2.23 3.326-2.714 4.176c-.446.887.223 2.476-.223 2.476s-3.122.259-4.126-.444c-.967-.739-1.45-1.921-2.417-2.66-.929-.74-1.078-1.552-.52-2.254.52-.74 1.227-1.33.892-2.329-.334-.997-.892-2.845-.892-4.397s-.112-4.213-.335-6.209-.52-4.878.335-5.765c.892-.887 1.599-1.108 2.565-.221.967.886 2.677 1.367 4.015 2.365s1.822 2.402 1.822 3.178-.893 2.032-1.116 2.845-1.041 1.737-1.449 2.218-1.264 2.106-1.785 2.771c-.558.702-.892 1.626 0 1.626s1.822-.074 2.565-.591c.707-.517 2.714-3.326 3.42-4.472.707-1.145 1.19-1.367 1.636-2.402.446-.997.335-1.145 1.078-1.589s1.153-1.589 1.859-1.773c.111.221.297.184.372.886.409.148.557-.147.743-.258 0 .443-.446 1.034-.446 1.737 0 .702 0 2.032-.706 3.03-.707.998-2.454 3.178-2.454 4.102s.781.776 1.822.406c1.041-.406 2.156 0 2.862-.702.669-.702.93-1.626.521-2.771-.446-1.146-.521-2.846-.521-4.657 0-1.773.075-2.697-.483-3.621-.595-.924-.335-1.663-1.041-1.663s-.52.924-1.524 1.145c-1.004.222-2.788-2.29-3.42-2.29s-.521-1.294-.521-1.886c0-.59-.297-.48-1.115-.258s-3.16-1.774-4.61-2.476c-1.45-.665-1.859-1.59-1.45-2.698.409-1.109 4.87-4.471 6.506-5.1s2.082-.406 3.049-.665c.929-.259 1.635 1.774 1.635 3.215s.335 1.774-.483 2.772-1.784 1.478-1.264 1.848c.558.37.632-.185.929-.444s1.748-1.515 2.231-2.07c.446-.554.855-.85 1.524-.258.669.628 2.045 2.365 2.045 2.735s.929-.037 1.673-.444c.743-.406 1.375-.037 2.119-.37.743-.332.929-.665 1.338-.665s.297-.554-.26-.554c-.558 0-1.004.554-1.599.554s-1.041-.554-1.301-.554.26-1.663 0-2.55.558-1.552.558-2.143v-2.846c0-.85.483-1.108 1.264-1.108.78 0 1.189-.48 2.007.037M162.442 57.237c-1.524.555-3.717-.184-4.498.555s.335 1.737.335 2.55c0 .776.371 2.66.855 3.14.483.481 1.041 1.516 2.007 1.516s1.153-.517 1.599-.998c.446-.48 2.751-.554 2.751-1.071 0-.518-.484-1.996-.261-3.068.261-1.071 1.116-2.771.67-3.326-.446-.554-1.933.148-3.458.703m39.035-9.645c.929 0 2.379 2.513 2.379 3.659s.52 2.217.52 3.658c0 1.442-.409 5.396-1.45 7.096s-1.821 1.847-3.271.517-3.123-1.774-3.123-5.691 3.978-9.239 4.945-9.239m158.181-22.875c1.153.628 2.454.887 4.015 1.811 1.562.924 3.532 2.217 3.792 3.141s.298 1.848-.855 2.55c-1.152.702-2.899.554-3.531.998s-1.896.295-2.677.37c-.781.073-3.049 1.256-3.049 1.921s.224.48 1.116.96c.892.481 3.978 1.7 4.795 3.364.818 1.663-.148 1.663-.632 2.402-.483.739-3.94 2.956-4.907 4.102-.966 1.145-1.524 1.182-1.264 2.143.298.961 1.339 1.922 1.524 3.141s.856 3.252.856 4.176.631 3.068-.558 3.88c-1.19.813-2.417.887-3.569.444-1.152-.444-2.379-.776-2.602-2.032s0-1.183 0-2.477.706-3.547 0-3.547c-.707 0-2.454.96-2.937 1.922-.483.997-.483-.185-1.487.184-.967.37-.818 1.109-2.082 1.109s-2.974.628-3.643.332c-.669-.332.297-1.219-.521-1.44-.817-.185-1.338-.925-.78-.925.557 0 2.007-1.33 3.271-3.067s4.015-5.358 5.205-6.689c1.189-1.293 1.078-2.254 2.007-3.437.93-1.182 2.863-2.697 2.379-3.658-.483-.96-1.672-1.552-2.899-1.552s-2.268-.555-1.264-2.033c.966-1.478 1.896-2.587 2.342-3.77s1.338-3.214 2.416-3.214.558-1.072 1.078-1.367c.521-.296.893.073 1.525-.222.706-.222 1.784-.148 2.936.48M315.68 48.331c-.855.444-.335 2.144-.335 3.068v.221c0 1.146-.037 4.065-.372 5.396-.371 1.404-.185 2.439.372 2.55.595.074.669-.074 1.153-.592.483-.517 1.561-.517 2.862-1.958 1.338-1.404 2.193-2.476 2.565-2.994.372-.517 1.376-.184 1.822-.739s-.707-1.884-1.822-1.884c-1.152 0-1.189-.924-2.156-.924s.967-.813.372-.813-3.606-1.774-4.461-1.33m-152.234-25.35c1.078 0 1.227.997 1.524 1.404.335.406 1.524 2.845 1.524 4.176s-.557 2.623-.297 3.067 7.584 5.617 9.22 6.836c1.635 1.22 3.122 3.474 5.799 5.507s5.279 3.51 6.952 4.915c1.673 1.404 3.531 4.065 0 4.065s-7.807-.555-11.153-4.065-11.115-9.941-12.082-10.902c-.966-.96-1.859-2.254-2.565-1.59-.706.666-3.569 5.175-4.424 6.394s-1.598 2.07-1.598 2.66c0 .592 1.97.481 3.085.481s4.275-.813 4.573-1.626c.334-.776.706-1.33 2.453-1.071 1.748.258 3.123 1.182 4.275 2.18 1.153 1.035 1.116 2.07-.52 2.476s-4.461 1.441-8.736 1.441c-4.238 0-6.543-1.663-7.547-1.072-1.041.629-3.011 5.063-7.212 7.687-4.164 2.624-6.543 3.4-8.067 3.4s-3.048-1.922-2.305-2.402c.744-.48 2.788-1.404 4.164-2.956s3.457-3.216 4.312-4.176c.855-.961 2.305-2.661 2.305-3.03 0-.37-1.747.48-2.9 1.477s-2.267 1.479-2.267 2.144-1.004 1.848-3.309 2.18c-2.305.37-3.941-.074-4.721-2.18-.781-2.144-1.636-6.06-2.045-7.65-.409-1.589-.743-2.845-1.264-3.474-.52-.59.186-2.919 1.561-2.919h.149c1.45 0 3.978-.037 3.978-.591 0-.592-.706-.666-.706-1.294s.111-1.663 1.003-1.663c.893 0 3.235-.998 4.833-2.29 1.599-1.294 5.242 0 6.617 0s2.38.442 3.829.442 2.863.148 2.491 1.848c-.52 2.957-3.68 7.54-3.16 7.983.521.443.558.554 1.19-.518.669-1.072 6.357-11.308 7.361-12.712 1.152-1.441 2.602-4.583 3.68-4.583m65.801 25.129c3.457 0 5.464 2.845 6.505 3.658s1.859 2.624 1.45 3.733-1.301.85-1.933 1.847c-.632.998-2.825.666-4.498.296s-3.904-.296-5.019-.296c-1.078 0-.855-.48-1.859-.48-.929 0-1.003-1.183-1.003-1.737v-.11c0-.518-1.376-1.664-1.933-2.44-.558-.813-2.119-1.22-2.119-1.663s-.632-1.145 0-1.7.966-.37 1.747-.37c.78-.036 5.167-.738 8.662-.738m34.499.628c-.893.074-1.116-.074-1.562.222-.223.147.112.886.186 1.663.112.887.037 1.847.26 1.958.446.222.335.444.93.444.594 0 .632-.111.892-.444.26-.332.743-.259.966-.48.224-.222 0-3.141-.223-3.252s-.557-.185-1.449-.111m59.109-7.613c-.855 0-1.785.665-2.714 1.737-.93 1.072-.744 1.072-1.896 1.072-1.153 0-2.565-1.109-2.565 0s-.744 2.402 0 2.402c.743 0 1.189-.37 2.044 0s1.748.37 2.417.37 2.23-2.107 2.714-3.364c.483-1.256.855-2.217 0-2.217M205.752 23.756c.669.037.706.407 3.42.407h6.171c1.376 0 2.677.813 2.045 2.513s-1.264 2.845-2.305 3.77c-1.041.923-2.528 1.514-3.197 2.956-.669 1.44-2.974 2.29-3.904 2.956-.892.702-1.896 1.774-1.896 2.217s1.859.222 2.603-.295c.743-.518 1.97.073 3.197-.37 1.189-.443 5.316-2.106 6.431-2.476s1.822-2.439 2.788-2.439h.223c1.041 0 3.16.037 4.313.37 1.264.37 5.873.332 7.249.332s2.714 1.367 2.305 2.217c-.372.85-1.785 2.07-2.826 2.366-1.04.295-3.754 2.439-4.275 2.439-.52 0-1.227.813-2.044.813h-3.309c-1.041 0-1.599-.629-1.599-1.33 0-.703-.223-.998-1.747-.518-1.524.517-6.059 2.55-8.364 2.55s-4.09-.813-4.87-1.183-.595-1.072-1.264-1.404c-.669-.333-2.119 2.106-2.937 2.55s-1.487 1.737-2.937 2.328-7.472.37-8.513.37 1.412-2.18 2.156-3.4 3.048-5.765 4.424-7.133c1.375-1.367 3.42-3.769 3.866-5.062.483-1.33 1.97-3.918 2.342-4.768.335-.739 1.785-.813 2.454-.776m-65.095 15.189c-.892.221.632.776 1.079 2.07.26.85 0 2.254.817 2.254.558 0 .781-1.072.781-2.957s-.929-1.81-2.677-1.367m117.661-.998c-.558 0-.26.702-.26 1.22 0 .517-.521.776-1.227 1.367s-.781 1.182-.26 1.182c.52 0 1.226 1.183 1.747 1.183.52 0 .446-.185.743-.591.298-.407 1.041-.629 1.413-1.146.335-.517.855-1.256 1.264-1.737.409-.48 1.301-1.256.892-1.478s-.892.554-2.156 0-1.598 0-2.156 0m61.005-2.883c-.335 0-1.115.407-1.673.407s-1.19-.443-1.71 0c-.52.444 0 1.663 0 2.698s-.558 1.293 0 1.81 1.152.481 1.71 0c.558-.48 1.227-.184 1.673-.85.483-.665.446-1.958.446-3.177s-.111-.887-.446-.887m56.544-10.088c.855.296 1.673 1.478 2.714 1.478s2.602 1.441 2.305 2.07c-.298.628-2.454 1.44-4.164 1.44s-2.788-.369-4.238-.627c-1.45-.26-2.193-.185-3.123-.518-.929-.332-2.23-1.884-.557-2.402 1.672-.48 2.899 0 3.977-.48 1.078-.407 2.231-1.22 3.086-.961" fill="#102848"/></svg>