<svg width="128" height="128" fill="none" xmlns="http://www.w3.org/2000/svg"><path d="M71.5 98c-.55.2-1.1.35-1.65.55-.85.2-1.35.4-1.55.65-.2.2-.3.4-.3.75 0 .25.15.55.3.75.2.2.5.35.95.35.4 0 .85-.15 1.2-.35.3-.2.65-.45.75-.8.15-.35.25-.75.25-1.2V98zm7.5-5.25h3.5v1.7c.55-.7 1.05-1.15 1.65-1.5.5-.35 1.2-.45 1.95-.45 1.05 0 1.9.3 2.5.95.55.65.9 1.6.9 3V103h-3.85v-5.65c0-.65-.1-1.1-.4-1.35-.2-.25-.5-.4-.95-.4s-.8.15-1.15.5q-.45.6-.45 1.95V103H79zM93 89h4v7.2l2.95-3.3h4.75l-3.6 3.5 3.9 6.6h-4.45l-2.05-4.05-1.5 1.4v2.6h-4zM36.5 55.85c16.85-16.2 39.65-13.5 50.4-5.35-5.15 2.35-10.8 6.1-14.2 11.35 3.25-.45 10.55-.75 16.3 1.7-13.5 5.9-21.85 16.65-28.85 31.4 4.2-20.2 13.65-28 16.55-29.7 0 0-4.35-.7-10.1.7.75-4.05 4.4-11.45 8.55-14.9-12.35-4.3-24.75-1.45-38.65 4.8M62 25c21.5 0 39 17.5 39 39 0 7.8-2.3 15.05-6.2 21.15h-8.75c4.9-5.6 7.85-12.95 7.85-20.95 0-17.7-14.3-32-31.9-32s-31.9 14.3-31.9 32c0 13.9 8.95 25.75 21.3 30.05.65-3.55 1.2-6 1.4-9.95.3-5.75.3-10.55.15-13.3-.65-10-1.8-12-11.25-11 0 0 11.25-5.8 15.7 1.9 3.7 5.45.6 33-4.35 40.05C35.85 98 23 82.55 23 64c0-21.5 17.5-39 39-39m6 71-3.65-.4c.1-.65.3-1.15.55-1.5.3-.4.7-.7 1.15-.95.4-.2.9-.4 1.45-.45.65-.15 1.35-.2 2-.2 1.15 0 2.1.05 2.8.2.7.1 1.25.45 1.7.8.3.25.65.7.75 1.2.2.5.3 1 .3 1.45v4.45c0 .5 0 .9.05 1.15s.2.55.4 1h-3.55c-.2-.25-.25-.45-.3-.55-.05-.2-.05-.35-.1-.65-.5.45-1 .8-1.5 1-.65.25-1.45.45-2.35.45q-1.8 0-2.7-.9c-.65-.5-.95-1.2-.95-2 0-.75.25-1.4.7-1.9.45-.45 1.25-.8 2.45-1.1 1.45-.25 2.35-.5 2.8-.55.45-.1.9-.3 1.4-.5 0-.45-.1-.75-.3-.95s-.5-.3-1-.3c-.65 0-1.15.15-1.45.3-.3.1-.55.45-.65.9" fill="#c8171e"/></svg>