<svg width="60" height="60" fill="none" xmlns="http://www.w3.org/2000/svg"><path d="M30.819 18.126c2.468.625 4.843-.488 5.309-2.502s-1.158-4.145-3.622-4.77c-2.465-.626-4.843.485-5.305 2.501s1.154 4.147 3.62 4.777" fill="#1677ff"/><path d="M33.956 21.683c-4.573-.893-7.781-2.642-10.083-3.242-1.341-.349-3.066-.184-3.862 1.127-.955 1.57.025 3.351 1.58 4.085 13.768 6.484 15.24 12.75 12.378 18.002-4.85 8.907-21.99 2.489-22.005-10.306 0-6.028 3.737-9.289 3.831-11.83.077-2.03-1.762-3.897-3.954-3.662-4.914.534-6.796 9.462-6.796 14.1 0 14.164 11.266 25.854 24.975 25.854S55 44.13 55 29.966c0-11.936-7.397-21.97-18.636-25.532-2.09-.663-3.298.073-3.747 1.12-.536 1.25-.072 2.622 1.672 3.398 1.861.798 3.576 1.9 5.074 3.26 4.902 4.512.659 10.65-5.398 9.47" fill="#1677ff"/></svg>