<svg width="128" height="128" fill="none" xmlns="http://www.w3.org/2000/svg"><path fill-rule="evenodd" clip-rule="evenodd" d="M32.614 100.402H30.18V85.113h2.434v5.26h.048c.737-.845 1.856-1.34 3.31-1.34 2.398 0 3.916 1.284 3.916 3.764v7.605h-2.437v-6.96c-.048-1.731-.732-2.484-2.16-2.484-1.626 0-2.677 1.282-2.677 2.913zm15.139-9.141h-5.987v-1.926h9.28v1.712l-6.136 7.432h6.455v1.923h-9.729V98.69zm14.483 3.618c0 2.291-1.045 4.711-3.614 4.711-2.862 0-3.867-2.42-3.867-4.711s1.005-4.71 3.867-4.71c2.569 0 3.614 2.418 3.614 4.71m-7.586 5.523h-1.243V85.113h1.349v6.338h.041c.58-1.586 2.183-2.417 3.825-2.417 3.36 0 4.963 2.715 4.963 5.845 0 3.128-1.602 5.847-4.963 5.847-1.775 0-3.313-.92-3.931-2.422h-.04zm14.259-.903c2.367 0 3.829-1.607 3.829-3.376l-.056-2.564h-.042c-.107.172-1.165.54-1.909.668l-.421.075h-.002c-2.11.37-3.882.68-3.882 3.103 0 1.3 1.218 2.094 2.483 2.094m-3.132-8.497s1.842-.757 4.043-.757c1.586 0 2.742.482 2.742 1.542 0 .77-.812 1.075-3.41 1.454-2.412.35-4.177 1.363-4.177 3.904 0 2.229 1.774 3.581 3.806 3.581 2.116 0 3.237-.936 4.015-2.248v2.039h1.288l-.002-7.93c0-2.959-2.116-3.553-4.064-3.553-2.571 0-4.213.794-4.213.794zm10.971 9.4h1.342v-6.45c.048-2.158 1.327-3.784 3.463-3.784 2.183 0 2.805 1.43 2.805 3.335v6.899H85.7v-7.111c0-2.63-.937-4.257-4.04-4.257-1.56 0-3.032.898-3.523 2.227h-.048v-1.914h-1.342zm12.844 0h-1.35V85.113h1.35v9.597l6.109-5.363h1.803l-4.712 4.095 5.029 6.96h-1.689l-4.359-6.02-2.18 1.829z" fill="#636463"/><path fill-rule="evenodd" clip-rule="evenodd" d="M65.4 28.9c-.215.108-.324.108-.43.108-.646.107-1.08-.109-1.08-.432 0-.216.543-.328 1.08-.216.106 0 .323 0 .43.106 0 0 .103 0 .109.1-.003-.048-.03-.074-.055-.1-.027-.027-.054-.053-.054-.107-.43-.33-.648-.87-.107-1.085h.107c.325 0 .755.435.65 1.192.105-.757.753-1.085 1.186-.976.539.324 0 .87-.864 1.086.54-.11 1.185-.11 1.512.107.106 0 .106.11.106.216 0 .109 0 .216-.106.327-.216.217-.866.11-1.512-.218.757.54.864 1.19.431 1.297-.537.111-.97-.323-.97-1.19 0 .433-.215.65-.433.867-.107.112-.324.112-.43.112h-.218c-.428-.216-.54-.547.218-.98.066 0 .134-.04.227-.099q.083-.053.203-.116m-9.171 12.893c-.106.65.972.976 2.699.432-2.16.87-2.373 1.844-1.512 2.169.646.218 1.727-.325 2.158-1.84-.105.755-.105 1.296.106 1.73.218.433.648.543 1.079.433.866-.323.761-1.518-.43-2.38.974.541 1.729.646 2.159.432.322-.111.537-.326.537-.65.109-.326-.105-.544-.537-.65-.4-.103-1.082-.11-1.785.152 1.315-.55 2.185-1.474 1.355-1.992-.651-.33-1.73.318-2.16 1.729.214-.867.108-1.515-.218-1.84-.21-.22-.537-.22-.858-.22-1.081.33-.543 1.737.321 2.277-1.402-.651-2.806-.54-2.914.218m43.268 10.4c.542.112.542 1.406.215 1.95.212-.21 1.765-.832 2.03-.039a.4.4 0 0 0 .02.14c-.044.775-1.723.874-1.723.874 1.078.33 1.615 1.303 1.4 1.626-.433.544-1.727-.54-1.942-1.081.109.865.109 1.298-.324 1.732-.542.107-.755-.107-.864-.434a.26.26 0 0 0-.12.037 2.53 2.53 0 0 1 .23-1.275h-.543l-.086.031c-.307.108-.657.232-.56.54.11.227.324.34.646.457l.006.006c.078.081.154.163.23.286l-.023.014q-.086.057-.213.122c-.536.323-1.185.323-1.402.216-.968-.107-1.294.107-1.4.867-.107 1.166 1.34.773 2.518.452l.072-.02c.109-.106.109-.106.212-.216.218-.325.218-.54.218-.539l.537.539c.218 0 .433.11.542.217.274 0 .562-.086.86-.175.522-.155 1.071-.319 1.621-.042 0 0 .109.33.649.974.043.045.086.125.138.219.074.136.165.302.294.432-.056 0-.138-.027-.22-.054a.8.8 0 0 0-.212-.053c-2.375-.649-3.345 0-3.672.65-.312.423.29 1.044.325 1.08l.002.002-1.082-.107-.97-.111c-.262.265-.523.457-.844.694l-.236.175-12.838 9.105-12.301 8.77-2.803 1.953-2.484 1.84-.43.328-1.186.758-1.296-.865-2.808-1.955-4.312-3.032-7.123-4.985-5.718-4.01-5.611-3.897-.972-.65-2.047-1.41-4.317-3.032c-1.513-.868-1.513-2.279 0-1.845l.24.065c.402.11.874.241 1.052.15.693-.403.769-1.148.509-1.572l.094-.035c.674-.255 1.473-.557 2.203-.171.109 0 .219.112.219.224.213.344.105.798 0 1.14 0 .113-.11.232-.11.232h1.189c-.109-.12-.76-1.259-.217-1.484.108-.112.539-.112 1.185.112.324.113.65.23.972.46.121.062.245.163.389.28.108.09.227.187.366.285l-.004-.013c-.11-.344-.324-1.016-.751-1.351-.215-.342-.54-.569-.755-.569-.106 0-.217-.115-.217-.115-.477 0-.89.105-1.18.18-.233.059-.389.099-.436.047-.056 0-.112-.116-.18-.262-.067-.14-.146-.307-.251-.42h-.11c-.11 0-.11.797-.11.797-.12 0-.404-.174-.69-.35-.229-.14-.458-.28-.603-.331-.461 0-.8.358-1.146.725-.099.104-.198.21-.301.307-.23-.035-.513.065-.817.37-.864.865-2.053.865-2.053.325-.069-.41.296-.517.846-.678.32-.093.702-.205 1.098-.405.456-.228.644-.566.83-.897a4 4 0 0 1 .249-.405 2.05 2.05 0 0 1-.218-.867c-.215.867-.752 1.411-1.292 1.195-.647-.217-.432-1.195.218-1.953-.65.33-1.944 0-1.73-.65.112-.647.97-.54 1.837-.105-.649-.542-.866-1.627-.433-1.844.648-.432 1.185.543 1.185 1.623.215-.755.757-1.623 1.403-1.299.539.219 0 1.406-.538 1.625.431-.105 1.077-.105 1.294 0 0-.43.543-.647 1.081-.647.753 0 1.4.321.97.865 0 0-.539.649-.217 1.082.326.33.863.108 1.294-.32.111.32.324.54.65.54.055-.057.11-.085.164-.113a.6.6 0 0 0 .158-.107c.166-.167.14-.468.12-.695q-.01-.098-.01-.17c.103.65.645 1.195 1.184.973.433-.323-.107-1.297-.648-1.297.632-.175.924-.106 1.094-.065l.04.01c-.289-.31-1.271-.602-1.78-.703-.215 0-.321-.11-.321-.11.215.538-.218 1.3-.65 1.737l-.11-.114c0-.044.019-.088.04-.14a.7.7 0 0 0 .07-.292c0-.045.018-.09.04-.142a.7.7 0 0 0 .07-.292c0 .111-.11.111-.11.111-.862 0-1.51-.976-.754-.976l.644.107c-.859-1.081-.322-1.515.11-1.3v.11c.427.213.536.534.646.855l.004.012c.04-.082.065-.211.093-.351.044-.23.095-.49.228-.626l.11-.106c.363 0 .496.308.593.536q.027.063.052.115c0 .215 0 .432-.109.866.109-.11 1.299-.11 1.403.542-.09.182-.148.188-.269.16l.022.021a.2.2 0 0 1 .032.035c.65.869 2.053.539 1.726-.758.864.321 1.186-.111 1.186-.327s-.322-.54-.644-.324c-.757.217-1.405-.108-1.511-.76-.107.545-.431 1.3-.97.977-.542-.217-.11-.977.213-1.3-2.266.649-1.94-1.734 0-.976-1.834-.977.43-2.6.863-.649-.106-1.952 2.267-.978.757.217 1.292-.867 1.724 0 1.51.432-.431.437.214.976.647.756.213-.107.327-.319.43-.647l-.038-.04c-.113-.117-.297-.307-.392-.501q-.159-.654 0-1.627c.107-.326.327-.651.646-.975 0 0 .865.544.972 1.844.108-.539.955-1.5 2.228-.47-.522-.442-.936-1.275-1.04-1.699.324 0 .97.217 1.513 1.085-.112-.216-.543-1.085-.432-1.626 0 0 .752.214.86.432.214-.542.54-.867.97-1.083.647-.326 1.513-.214 1.727.325.325.434.325.434.325.974.106-.32.432-.867 1.08-1.19.105.541-.108 1.3-.326 1.732l.036-.036c.322-.32.733-.726 1.15-.827.108.756-.322 1.514-.968 2.162 0 0 2.157-.324 1.942-1.513-.073-.147-.243-.293-.413-.438-.082-.07-.164-.14-.234-.21-.434-.763-.434-1.41-.219-2.172.109 0 .218.325.218.544.107-.434.215-.76.322-.867 0 0 .217.219.326.648l.029-.118c.1-.423.234-.986.724-1.181.106.107.106.435.106.651.111-.325.326-.651.542-.651.108.107 0 .435-.11.54.218-.214.434-.214.434-.214 0 .214 0 .325-.107.432a.8.8 0 0 0 .18-.04 1.3 1.3 0 0 1 .36-.067h.213l-.213.218v.001c-.111.214-.111.32 0 .43l.004.003c.107.109.212.215.535.215-.215.218-.326.323-.54.435a.84.84 0 0 1-.539.214c.125 0 .25.037.354.068.075.022.14.041.186.041.314.104.422.21.529.314l.01.01c0 .217-.215.432-.54.545-.055 0-.11.027-.165.053a.4.4 0 0 1-.159.052.4.4 0 0 1 .159.053c.055.028.11.056.166.056.428.107.97-.214 1.078-.76.501.302.63.766.754 1.21.142.514.278 1 .973 1.174-.299-.836-.268-1.309-.235-1.82.027-.415.055-.855-.09-1.538l.105.052c.204.097.451.214.542.49a.4.4 0 0 1 .04-.14c.03-.075.066-.164.066-.29.65.755 1.19 1.513.973 3.138 0 .108.106.216.106.216.111 0 .218-.108.218-.325-.107-1.3.43-2.49 1.405-3.03.104.217.104 1.41-.216 2.272-.11.325.433.65.538-.324 0-.895.455-.877.694-.868l.06.002.109-.11c.218-.325.537-.431.97-.325-.433-.323-.324-.864-.213-.974.428-.539.968-.539 1.724-.539h.649c-.055 0-.082-.028-.11-.056-.026-.028-.054-.056-.108-.056l-.027-.027c-.197-.2-.302-.306-.404-.517-.43-.648-.43-1.404-.11-1.62h.54c.54.216 1.08.862 1.3 1.84.104-1.083.643-1.952 1.185-2.058h.215c.646.217.215 1.407-.215 2.164a.6.6 0 0 0-.09.12c-.035.057-.06.098-.126.098h.216c1.4-.323 2.266 0 2.372.432a.87.87 0 0 1 .431-.432c.108-.107.215-.107.326-.107 1.188-.216 2.049.648 2.695 1.626-.755.322-.322 1.407.215 1.73-.97-.431-2.046-.323-2.155.221-.107.43.753.755 2.049.323-1.725.649-1.836 1.41-1.08 1.625.431.217 1.295-.216 1.51-1.41-.106 1.303.327 1.843 1.08 1.627.65-.217.54-1.086-.431-1.734 1.184.648 2.16.432 2.266-.215 0-.65-1.082-.65-2.16-.327 1.078-.433 2.053-1.19 1.296-1.625-.43-.109-.97.107-1.296.54 0 0-.106-1.296 1.078-2.597.327.216.542.435.975 1.406 0-.757.106-1.406.43-1.734l.066.065c.244.239.718.703 1.013 1.888.11.54.433.54.542 0 .107-.651.646-1.953 1.4-2.277 0 .757 0 1.626-.648 2.816.334 0 .668-.402 1.049-.86.481-.578 1.037-1.245 1.76-1.304-.543.105-.758.755.212.864-.54 1.193-1.836 1.95-1.836 1.95.455.077.804-.112 1.231-.346.183-.099.38-.206.605-.304h.108c.323 0 .755.433.217.867-.139.093-.002.127.2.176.273.068.665.164.665.475 0 .216-.327.327-.433.327 0 .107.215.215.54.215-.107.107-.325.324-.65.324.326.065.416.248.483.384.045.09.08.16.166.16-.18.18-.425.193-.664.206-.192.01-.38.021-.523.118-.055 0-.082.027-.109.055-.027.027-.053.054-.106.054-.107.326-.107.649.215.867.648.434 2.266.328 3.02-.541.542-.652 1.513-1.195 2.482-.867 1.18.27 1.674 1.23 1.864 1.598a1 1 0 0 0 .078.138.8.8 0 0 1 .111.428l.156-.026c.62-.102 1.362-.224 1.46-.62.056-.143-.205-.255-.617-.433-1.163-.5-3.534-1.522-3.374-5.205 1.262 1.872 2.29 2.33 3.177 2.727.705.314 1.32.589 1.895 1.502.279-1.042-.506-2.494-.853-3.135a8 8 0 0 1-.12-.226c2.806 2.166 3.13 2.599 2.05 4.226-.307.563.064.593.654.64.657.054 1.585.129 2.153.984-.653-.216-1.014-.044-1.507.192-.242.115-.515.245-.87.353-1.16.317-1.934.142-2.585-.005-.68-.154-1.227-.277-1.942.218h-.004l-.105-.649q-.197.026-.41.044c-.678.06-1.388.123-1.21.93.194.782.232.742.514.444.187-.197.48-.507.997-.767h.058l.156-.002v.002h.002l.001-.001h.001c.398.001 1.16.083 1.509.869.106.325.106 1.624-.433 2.491-.215.435-.324.974-.324 1.516-.109-1.41-1.077-1.625-1.51-1.19-.865.648.107 1.624.97 1.624-1.402.11-2.481.759-2.37 1.3.106.648 1.185.435 2.481-.651-1.622 1.625-1.403 2.385-.541 2.385.541 0 1.4-.979 1.185-2.275.326 1.296 1.187 1.73 1.836 1.19.646-.542.106-1.407-1.294-1.734 1.617.11 2.587-.542 2.372-1.19-.1-.716-1.346-.374-2.304.392.97-.86 1.489-2.026.47-2.128 0 0-.108.108-.215.108.084-.083.086-.231.09-.4.004-.269.01-.59.339-.79.326-.218.759.107.865.976.434-1.3 1.512-1.52 1.943-1.083.433.539.109 1.408-.646 1.95.773.059 1.217-.244 1.713-.582.404-.275.842-.573 1.52-.72h.218c-.108 0-.218-.11-.218-.11-.645-.324-1.402-1.19-.97-1.623.107-.324.54-.217.97 0 .323.216.755.648.973 1.192-.218-.648-.109-1.95.648-1.843m-7.877 5.202q.09-.072.177-.15-.09.074-.177.15m-47.475-.53c-.386-.082-.55-.223-.733-.38a3 3 0 0 0-.239-.19c.11.226.327.795.11 1.137-.216.23-.543-.115-.65-.227l-.106-.115c0-.07-.041-.185-.1-.346-.034-.096-.075-.207-.115-.335-.109.112-.972.796-1.405.225 0-.296.323-.447.608-.58.15-.07.29-.135.364-.214-.324.116-1.076-.341-1.185-.455-.15-.159-.041-.208.075-.26a.4.4 0 0 0 .138-.083q.65-.171 1.296.343c0-.07-.049-.158-.105-.262-.132-.24-.306-.559-.004-.878h.433c.153 0 .196.06.25.136q.031.046.077.093c.213.227.213.454.213.681.106-.113.645-.34.645-.34.433-.228.757.227.433.459l-.539.45c1.296.458.97 1.027.54 1.142m4.586-4.724a.4.4 0 0 0 .053-.169s-.106-.114-.106-.227l.858-.231c.048 0 .095.02.149.043a.7.7 0 0 0 .286.071c.107 0 .217-.114.217-.337-.11-.112-.323-.112-.431-.112a.7.7 0 0 0-.082.11c-.048.075-.096.15-.242.225l-.755.231a1.4 1.4 0 0 0-.323-.45l-.003-.004.432-.685c.053-.055.135-.055.217-.055s.163 0 .216-.055c.107-.118.107-.23 0-.345-.217-.112-.326-.112-.433.115-.071.075-.047.153-.023.23a.4.4 0 0 1 .023.11l-.54.573c-.215-.12-.43-.12-.645-.12v-.793c0-.048.037-.076.08-.108.062-.046.136-.101.136-.233 0-.115-.11-.23-.216-.23-.215 0-.326.115-.215.23 0 .057.026.113.052.17s.052.114.052.171v.793c-.215 0-.43 0-.537.12l-.537-.683c-.065 0-.054-.04-.034-.117.014-.056.034-.132.034-.228-.111-.112-.329-.112-.433-.112-.108.112-.108.34 0 .34.054.06.11.09.167.12a.5.5 0 0 1 .155.107l.543.573a1.5 1.5 0 0 0-.17.232c-.053.081-.105.162-.158.217l-.861-.227c-.11 0-.136-.055-.163-.111s-.054-.11-.16-.11c-.11-.12-.328 0-.328.11-.104.111 0 .224.218.224.051.053.102.032.164.006.07-.03.154-.066.269-.006l.861.231c-.104.113-.104.227-.104.227v.342l-.866.225a.4.4 0 0 1-.142-.042.7.7 0 0 0-.288-.07c-.111 0-.216.112-.111.341 0 .115.217.115.326.115a.7.7 0 0 0 .082-.113c.048-.076.096-.152.242-.231l.861-.225c0 .225.11.342.328.454l-.543.681c-.052.058-.107.058-.175.058s-.15 0-.255.059q-.162.17 0 .337c.212.112.325.112.43-.11.055-.057.055-.114.055-.171s0-.115.056-.173l.537-.566c.107.112.322.112.537.112v.799c0 .044-.036.07-.078.102-.061.045-.137.101-.137.238 0 .111.11.227.215.227.217 0 .327-.116.327-.227l-.012-.012c-.105-.115-.204-.223-.204-.328v-.8c.216 0 .43 0 .537-.111h.109l.433.683c.053 0 .053.028.053.084s0 .14.053.253c0 .112.216.112.327.112.106-.112.106-.337 0-.337a.6.6 0 0 0-.16-.11.5.5 0 0 1-.167-.119l-.54-.566c.152-.08.252-.217.334-.33q.053-.075.1-.127l.755.23c.108 0 .134.056.16.113.027.057.053.114.163.114.109.112.322 0 .322-.115.11-.112 0-.23-.213-.23-.054-.055-.107-.027-.16.002-.056.029-.111.058-.169-.001l-.858-.225c0-.058.027-.116.053-.173m8.685-.513a4 4 0 0 1-.918-.456 6 6 0 0 0-.376-.223c.026.082.07.176.117.279.153.327.345.739.098 1.086-.322.225-.757-.115-.97-.342-.084-.087-.166-.372-.248-.654l-.076-.259c-.108.12-1.294.913-1.727.343-.077-.497.417-.692.816-.85.148-.059.282-.112.37-.173-.433.117-1.401-.454-1.508-.684-.217-.225 0-.339.216-.339.54-.344 1.185-.117 1.724.339a2 2 0 0 0-.141-.297c-.177-.324-.397-.727-.074-1.065l.324-.117h.325c.212.117.323.23.323.23.324.34.324.68.324 1.024.107-.231.753-.571.753-.571.648-.229 1.079.34.648.684l-.755.456c1.618.682 1.294 1.475.755 1.59m12.408-5.911a5.8 5.8 0 0 1-1.94-.344h-.11l.11.117c.43.452 1.078 1.135.86 1.703.325-.343.866-1.136 1.08-1.476m-2.913.566c.218.686.54 1.023.972 1.252h.107l-.106.115c-.648.224-1.297 0-1.619-.457.428-.221.535-.56.642-.897zm-1.415-.35c-.024.009-.05.009-.096.009-.062.066-.088.094-.12.106-.023.009-.05.009-.095.009l.108.112h.106c.055-.056.082-.113.11-.17s.054-.114.109-.17c-.063.065-.09.093-.122.104M64.97 48.9v-.114c.107 0 .324 0 .324.114 0 .227 0 .34-.108.34h-.216c-.065-.066-.092-.094-.124-.105-.023-.008-.05-.008-.093-.008a.6.6 0 0 0 .086-.122c.036-.06.062-.105.131-.105m-2.049 2.846c0 .227.105.34.214.34.11 0 .217-.227.217-.34 0-.049-.038-.077-.082-.11-.062-.047-.135-.102-.135-.233 0 .131-.072.186-.133.233-.043.033-.08.061-.08.11m1.512-.117c-.109 0-.22 0-.326-.114 0-.038.012-.075.024-.112.023-.075.047-.148-.024-.223l-.433-.683c-.107.11-.322.11-.54.11-.213 0-.428 0-.537-.11l-.108.11-.322.453c-.067.075-.051.146-.03.242.014.06.03.128.03.213-.054.057-.081.085-.109.085s-.055-.028-.11-.085c-.108 0-.214-.223-.108-.335.054-.06.108-.06.15-.06.04 0 .068 0 .068-.06l.43-.563.11-.118h-.11c-.108-.112-.215-.227-.215-.453 0-.115-.106-.23-.106-.23 0-.056.026-.112.053-.168.026-.057.053-.114.053-.171l-.648-.23c-.052-.057-.107-.029-.161 0-.055.028-.109.056-.16 0-.111 0-.216-.114-.216-.227.104-.114.216-.229.32-.114.128 0 .145.08.158.144.009.045.017.083.06.083l.647.227c0-.113.107-.227.216-.34h.108l-.108-.229-.322-.454.322.342.108.227c.214-.115.324-.115.538-.115v-.796c0-.106-.098-.212-.197-.321l-.017-.018c0-.114.105-.23.213-.23.218 0 .324.116.218.23a.36.36 0 0 1-.067.234c-.021.032-.04.059-.04.105v.796c.107 0 .322 0 .429.115l.433-.57c.053-.054.053-.11.053-.168 0-.057 0-.115.053-.173 0-.224.22-.224.327-.112q.162.168 0 .344c-.054.055-.108.055-.162.055s-.11 0-.165.055l-.428.683.004.004c.105.111.213.226.318.453v.569l.646.226c.065.071.09.055.126.032a.15.15 0 0 1 .091-.032h.107c.217 0 .217.115.217.227 0 .228-.218.228-.324.118-.056 0-.084-.059-.111-.117-.027-.056-.054-.113-.106-.113l-.646-.227c-.1.212-.2.324-.3.433l-.022.024.322.563a.5.5 0 0 0 .169.123.6.6 0 0 1 .157.109q.16.165 0 .337m-2.266-3.412c-.062-.063-.089-.09-.12-.102-.025-.008-.052-.008-.1-.008-.107-.117-.107-.344 0-.456.048 0 .075 0 .099.009.032.011.059.039.12.103a.44.44 0 0 1 .02.35c-.01.037-.02.07-.02.104m.106 1.709-.648.341c-.063 0-.088.042-.123.1a.7.7 0 0 1-.095.13c-.103.11-.319 0-.319-.118 0-.112 0-.339.216-.339a.4.4 0 0 1 .16.056c.054.028.11.056.161.056zm6.581 3.412c-.217-.569.648-1.479 1.834-1.936.175-.06.35-.087.542-.117.163-.026.34-.053.538-.105a10 10 0 0 0-.585-.188 12 12 0 0 1-.495-.156c-.144 0-.288-.013-.432-.026-.287-.025-.575-.05-.86.026-.441.114-.657.554-.849.943-.184.375-.346.703-.663.648l-.647-.342s.106.342.106.799c0 .19-.407.202-.879.216-.369.011-.778.023-1.064.123l-.187.2-.06.062-.077.082c0 .055-.026.083-.052.111-.027.03-.054.058-.054.117-.111.221-.218.568-.43 1.705 0 0 .212-.114.43-.344q.047-.052.1-.126c.081-.113.18-.248.33-.328.65-.567 1.512-1.023 2.269-.907l.215.221c.216.23.216 1.027.216 1.027l1.51-1.027s-.647-.337-.756-.678m16.186 1.937c-.864.45-1.512.45-2.052.336-.43 0-.863.113-1.295.458l-.32-.683s1.507-.458 1.507-.91c.03-.126-.197-.166-.552-.229-.952-.17-2.83-.503-3.222-3.067 1.194 1.035 2.022 1.203 2.752 1.352.39.08.754.153 1.13.352.21.108.316.22.52.434l.02.02c0-.454-.217-1.023-.54-1.479a7 7 0 0 1-.483-.59 3 3 0 0 0-.165-.209q.326.178.648.343c1.836.912 2.052 1.254 1.512 2.392-.155.435.136.4.588.346.491-.058 1.172-.139 1.678.334-.5 0-.716.15-1.055.383-.173.12-.379.261-.671.417m-12.947-17.71c.324.222.215.977.215.977L73.602 38s-.433-.325-.433-.646c-.106-.65 1.188-.979 2.593-1.194-.759-.108-1.73-.647-1.73-.647-.484 0-.836.402-1.112.717-.152.175-.282.323-.398.362l-.429-.432s-.111.432-.111.65q-.086-.001-.23-.016c-.267-.025-.665-.063-1.064.016-.213 0-.43 0-.644.216 0 0-.08.233-.233.556.33.03.641.11.877.311.648-.218 1.294-.434 1.405-.328m-6.692-.106c-.107 0-.324-.104-.43-.214-.864-.435-1.836-.76-2.482-.974-.322-.111-.541-.111-.541-.111.062-.06.156-.087.264-.117.086-.025.182-.051.277-.1 1.078-.323 1.836-.76 1.836-.76.215 0 .428.107.645.219.055.057.139.113.222.168.079.053.157.105.209.157.344.288.657.636.923.931.237.263.436.484.588.587.107-.326.757-.76.757-.76l.107.974c0 .107.109.107.109.107.204.083.548.06.937.032.316-.022.663-.046.99-.016a6 6 0 0 1-.416.746l1.292-.434h.109s.648 1.406 1.185 2.817c-.43-.326-.861-.649-1.294-.867-1.077-.65-2.157-1.084-2.803-.865-.216 0-.327.107-.433.214-.215.437-.215 1.3-.215 1.3l-1.836-.863-.324-.112s.109-.11.324-.218c.324-.214.755-.648.65-1.083-.108-.21-.313-.417-.62-.728zm15.753-2.924c-.755.543-.862 1.085-.43 1.408.43.217.863-.323.863-1.192.215.976.754 1.301 1.08 1.085.433-.324 0-.976-.648-1.301.322.109.649.216.97.216.322 0 .54-.107.433-.435 0-.216-.217-.323-.433-.323-.321-.11-.648 0-1.078.216.863-.434.863-1.083.43-1.3-.43-.215-.863.542-.863 1.084-.214-.758-.753-1.3-1.079-1.084-.324.217-.107.866.755 1.3-1.183-.543-1.619-.216-1.51.326.11.216.755.435 1.51 0m18.775 11.268c.324-.106.863.324.542 1.3.321-.867.969-1.406 1.293-1.082.517.308-.056.918-.767 1.255.424-.172 1.004-.157 1.307.043.106.11.106.219.106.326a.5.5 0 0 1-.106.327c-.326.323-.864.216-1.512-.22.648.65.755 1.41.215 1.627-.536.216-.863-.328-.754-1.407-.213.972-.861 1.407-1.188 1.19-.539-.218-.433-.867.864-1.41-.97.325-1.618.11-1.618-.324.109-.434.968-.539 1.729-.109-.433-.325-.761-1.298-.111-1.516m-2.051-3.359c.042.043.085.07.121.092.056.034.096.059.096.122 0 .112-.108.22-.217.326-.43.216-1.294.326-1.294.326l.324.76c.324-.326.648-.326.97-.326q.102.02.205.044c.481.108 1.012.227 1.957-.154.23-.099.41-.198.567-.285.357-.197.599-.33 1.048-.254-.456-.572-1.123-.57-1.586-.57-.414.002-.666.002-.462-.406.537-1.194.322-1.516-1.73-2.82h-.103l.104.11.036.054c.254.38.93 1.393.828 2.113a7 7 0 0 0-.51-.45 5 5 0 0 1-.354-.308 6 6 0 0 0-.555-.17c-.695-.187-1.446-.39-2.463-1.67.204 2.678 2.07 3.2 2.899 3.433zm-46.074-7.042s.866-.324.76-.758c-.11-.65-1.727-1.844-3.13-1.95 1.403-.758 2.048-.435 2.048-.435.51.114.84.614 1.119 1.033.252.38.46.695.717.592.324-.11.752-.433.752-.433l-.213.758c.08.323.517.287 1.002.246.169-.014.343-.028.51-.028q.114.036.225.063c.244.062.473.12.636.37 0 0 .757.542.866 2.275a4.6 4.6 0 0 0-1.727-1.515c-.757-.437-1.512-.542-1.834-.218-.323.218-.109.973-.109.973-.43-.432-1.08-.755-1.622-.973m29.674 5.634c-.864 1.408-.753 2.38.109 2.492.754.106 1.187-.974.647-2.383.218.431.433.758.754.975.649.539 1.404.65 1.73.106.43-.757-.542-1.408-1.73-1.622 1.297.107 2.588-.435 2.052-1.195-.322-.54-1.188-.43-2.052.11a1.3 1.3 0 0 0-.405.344c.167-.255.32-.498.406-.67.216-.541.11-.865 0-1.193a.82.82 0 0 0-.537-.213c-.974-.221-1.188 1.406-.865 2.161-.755-1.188-1.943-1.62-2.373-.97-.433.54.32 1.3 1.94 1.514-2.267-.107-2.806.763-2.267 1.411.327.434 1.62.434 2.59-.867m8.525.54c-.324-.217-.324-.651.752-1.084-.752.22-1.291 0-1.291-.323.106-.325.754-.432 1.291-.107-.322-.218-.537-.976-.104-1.083.322-.11.752.214.537.97.215-.65.648-1.08.972-.863.435.214-.106.758-.757 1.083.65-.22 1.3-.22 1.3.216-.108.433-.65.54-1.3.107.542.433.542 1.084.218 1.193-.433.218-.757-.216-.648-1.081-.108.755-.644 1.08-.97.972m-65.169 10.51c-.405.233-.47.869-.525 1.41-.048.468-.088.866-.338.866l-.864-.325s.322.541.43.762c.054.266-.365.506-.83.772-.477.273-1.002.573-1.111.958 0 0-.32.433.215 1.95.326-1.406 1.727-2.815 2.377-2.815.429 0 .646.974.646.974a2.82 2.82 0 0 1 1.187-1.52s-.756.109-.972-.214c-.432-.867.646-2.71 2.051-3.25-1.618-.216-2.266.433-2.266.433m15.029-7.588c-.717-.009-1.929-.024-2.946-.97l-.03-.032c-.318-.323-.73-.743-.941-1.27a.54.54 0 0 1-.11-.218c-.027-.08-.053-.16-.106-.214l.216.11c.324.216.65.433.971.54.82.291 1.425.3 1.958.31.66.01 1.212.018 1.929.556-.217-.973-1.514-1.951-1.838-2.165 2.808.758 3.13.975 2.915 2.49-.1.404.172.336.559.239l.089-.023c.539-.217 1.185-.434 1.83 0-.51.073-.723.298-1.045.638-.153.16-.33.346-.573.554 0 .068-.04.094-.097.13a.6.6 0 0 0-.115.089c-.613.46-1.152.534-1.62.598-.521.072-.953.131-1.295.701l-.537-.65s1.4-.758 1.4-1.298c-.034-.107-.266-.11-.614-.115m64.814 9.215c1.078.106 2.159-.22 1.726-.868-.321-.429-1.277-.325-1.924.413.734-.856.408-1.497-.126-1.603-.755-.11-.863.973-.537 1.517-.433-.65-1.19-.978-1.512-.866-.218 0-.326 0-.326.106-.214.216-.106.433.326.76.215.107.648.321 1.186.428a3 3 0 0 0-.965-.017q-.133.015-.221.017c-.402.136-.554.313-.561.505q.003.01.01.018.005.005.009.014l.001.002.001.005a.3.3 0 0 1 .001.078l-.001.023a.8.8 0 0 0 .108.224c.106.11.214.216.432.216.322.114.972-.107 1.512-.648-.649.867-.54 1.627.106 1.733.648.11.97-.757.431-1.733.756 1.082 1.617 1.301 1.944.762.322-.437-.649-.98-1.62-1.086m-72.722-8.885c-.322-.215-.322-.65.645-1.194-.752.324-1.293.11-1.293-.324 0-.325.648-.43 1.293 0-.32-.325-.645-1.084-.214-1.297.326-.11.647.324.54 1.187.107-.756.647-1.187.973-.974v.111c.208.105.11.312.007.527l-.007.015c-.064.125-.199.212-.342.306-.106.068-.216.14-.306.232l.004-.002c.211-.107.425-.214.644-.105.32 0 .537.107.537.434 0 .214-.218.435-.537.326-.22 0-.435-.112-.757-.326.646.54.757 1.19.322 1.3-.322.218-.646-.326-.646-1.193-.106.867-.539 1.192-.863.977m-6.151.215c.755-.325 1.188-.973.537-1.192-.32-.217-.86.219-.86 1.083 0-.976-.54-1.3-.864-1.19-.54.326 0 1.084.432 1.3-.757-.216-1.511-.11-1.511.325 0 .328.65.541 1.511.111-1.078.647-.972 1.19-.432 1.41.323.104.865-.329.865-1.193.107.973.54 1.406.972 1.192.428-.219.214-.868-.65-1.409.97.43 1.618.217 1.618-.218-.107-.544-.968-.434-1.618-.219m6.475 3.467c-2.052.54-2.267 1.41-1.512 1.843.54.327 1.618 0 2.05-1.41-.323 1.41.216 2.275.971 2.168h.11c.538-.212.649-.974 0-1.84a1.5 1.5 0 0 1-.169-.225 1.5 1.5 0 0 0-.157-.211l.174.175q.075.074.152.153c.862.541 1.725.541 2.047.216.112-.107.112-.216.112-.328.088-.18.03-.284-.056-.438l-.056-.103c-.43-.322-1.185-.433-2.047-.322 1.186-.327 2.159-1.085 1.401-1.626-.43-.326-.97-.219-1.4.214-.203.2-.49.586-.619.984.367-1.344-.263-2.06-.895-1.956-.97.217-.537 1.624.109 2.168-1.187-.762-2.373-.869-2.588-.22-.107.543.861 1.083 2.373.758m4.532-14.194s0-.107.106-.323c.11-.218.54-.433 1.294-.758 0 0-.97 0-1.294-.435 0-.053-.026-.08-.052-.106-.027-.028-.054-.056-.054-.112l.106-.105c.214-.109.647-.325 1.512.323 0 0-.649-1.08.322-1.95 0 0 .65.653.11 1.844l.02-.022c.143-.156.677-.741 1.596-.845 0 0-.215.867-1.295 1.188 0 0 .974 0 1.189.76 0 0-.648.652-1.51-.324 0 0 .54.976-.538 1.519 0 0-.651-.326.106-1.41 0 0-.865.867-1.512.867 0-.11-.106-.11-.106-.11m11.65 5.632c.187.189.125.374-.096.56.254.252.68.417.96.417-.29 0-.573.055-.797.153.146.113.22.251.151.391-.106.216-.326.216-.433.216a1.1 1.1 0 0 1-.41-.106c-.134.167-.191.352-.13.54.11.107.325.218.54.218.327 0 .866-.217 1.292-.868-.752 1.41-.426 2.058.328 1.948.431 0 .752-.758.214-1.948.757 1.19 1.514 1.515 1.835.975.43-.431-.322-1.19-1.511-1.408 1.4.11 1.942-.544 1.62-1.088-.327-.648-1.295-.211-1.835.544.54-.755.648-1.84-.11-1.84-.541 0-.86.757-.428 1.84-.432-.974-1.078-1.299-1.405-1.083-.109 0-.215.11-.215.11a.64.64 0 0 0-.101.273 1 1 0 0 1 .316-.055c.107 0 .216.107.216.211m-3.02 1.628c-.31-.31.18-.727.987-.852-.548.047-1.403-.363-1.094-.776.215-.211.865-.211 1.4.544-.43-.648-.32-1.192.113-1.299.642 0 .642.65.32 1.192.164-.243.448-.487.762-.593-.029.227.087.438.317.593.021.032.051.06.081.088l.037.035-.026.023q-.04.036-.092.073c-.097 0-.216.021-.347.045a3 3 0 0 1-.515.062c.322 0 .646.107.862.214a1 1 0 0 1 .282.153.9.9 0 0 0-.282.177c-.181.09-.314.203-.411.324a1.7 1.7 0 0 1-.604-.462c.457.612.244 1.114-.064 1.22-.539.107-.968-.324-.432-1.3-.431.648-1.077.866-1.294.539" fill="url(#paint0_linear_63_12031)"/><defs><linearGradient id="paint0_linear_63_12031" x1="21.5" y1="27.274" x2="21.5" y2="85.133" gradientUnits="userSpaceOnUse"><stop stop-color="#5cb531"/><stop offset=".284" stop-color="#5cb531"/><stop offset=".6" stop-color="#00a4ea"/><stop offset="1" stop-color="#004ea2"/></linearGradient></defs></svg>