<svg width="396" height="128" fill="none" xmlns="http://www.w3.org/2000/svg"><path d="m275.373 108.014-1.329 4.169h-3.019l5.103-15.13h3.414l5.103 15.13h-3.018l-1.69-4.169zm4.133-2.264-1.689-5.858-1.689 5.858zm88.766-8.733h3.019v8.913c0 3.019 1.329 4.169 3.018 4.169 2.085 0 3.414-1.33 3.414-4.169v-8.913h3.019v8.913c0 4.528-2.444 6.613-5.858 6.613s-5.857-2.085-5.857-6.613v-8.913zM357.311 110.1c2.444 0 4.169-2.444 4.169-5.858 0-3.019-1.33-5.498-4.169-5.498s-4.169 2.443-4.169 5.857c0 2.839 1.15 5.499 4.169 5.499m-7.188-5.499c0-4.528 3.019-7.942 7.188-7.942 4.528 0 7.187 3.414 7.187 7.583 0 4.923-3.018 7.942-7.187 7.942s-7.188-3.414-7.188-7.583m-15.489-7.978h3.019v6.289h6.217v-6.253h3.019v15.13h-3.019v-6.613h-6.217v6.613h-3.019zm-14.914 13.836 7.942-11.356h-7.187v-2.444h10.961v1.69l-7.547 11.355h7.942v2.444h-12.075v-1.689zm-3.378-7.187v7.942c-.755.395-3.019.755-5.103.755-2.444 0-4.528-.755-5.858-2.085-1.329-1.33-2.084-3.414-2.084-5.498 0-5.103 3.414-7.943 8.301-7.943 1.69 0 3.414.396 4.169.755l-.395 2.264c-.755-.395-1.689-.754-3.414-.754-3.414 0-5.463 2.084-5.463 5.498s2.085 5.498 5.463 5.498c.755 0 1.689 0 2.084-.395v-3.773h-3.019v-2.264zm-57.608-.396h6.218v-6.253h3.018v15.13h-3.018v-6.613h-6.218v6.613h-3.018v-14.77h3.018zm-21.526-5.858h8.876v2.085h-5.857v4.169h5.462v2.084h-5.462v6.253h-3.019v.575zM226.462 110.1c2.444 0 4.169-2.444 4.169-5.858 0-3.019-1.329-5.498-4.169-5.498s-4.168 2.443-4.168 5.857c-.18 2.839 1.509 5.499 4.168 5.499m-7.187-5.499c0-4.528 3.019-7.942 7.187-7.942 4.529 0 7.188 3.414 7.188 7.583-.18 4.923-3.019 7.942-7.188 7.942s-7.187-3.414-7.187-7.583m-19.263 7.583v-15.13h2.444v7.188l5.103-7.187h3.414l-5.103 6.612 5.463 8.337h-3.414l-3.774-6.253-1.689 2.444v3.774h-2.444zm-28.714-4.169-1.329 4.169h-3.019l5.103-15.13h3.414l5.103 15.13h-3.018l-1.69-4.169zm3.594-2.264-1.689-5.858-1.689 5.858zM156.6 110.1h1.689c1.689 0 3.414-.755 3.414-2.444s-1.689-2.444-3.414-2.444H156.6v-.179zm0-11.356v4.168h1.33c2.084 0 3.018-.754 3.018-2.084s-1.329-2.084-3.018-2.084zm6.217 12.11c-.755.755-3.019 1.33-5.858 1.33h-3.414V96.658h4.169c2.084 0 3.414.395 4.169.755s1.689 1.689 1.689 3.019c0 1.329-.755 2.443-2.444 3.414 1.689.395 3.019 1.689 3.019 3.773-.18 1.509-.575 2.48-1.33 3.234m30.008-13.835h2.444v15.129h-3.019l-6.613-11.356v10.997h-2.443v-15.13h3.414l6.217 10.422zm106.698 0v15.129h-3.018l-6.218-11.356v10.997h-2.479v-15.13h3.414l6.217 10.422V97.054h-.395 2.479zM220.03 73.55h-6.218l2.444-20.053h6.433z" fill="#717071"/><path d="M229.481 43.112V53.39h5.463l3.019 14.015V42.968h6.217v10.278h5.462l3.774 14.015V42.825h6.612v44.599h-6.612V72.868h-5.463l-3.773-14.016v28.57h-6.217V72.869H232.5l-3.019-14.016v9.524c0 5.786-1.329 14.015-5.858 18.651h-6.612l.359-.36c3.774-5.03 5.858-10.816 5.858-16.998V43.112zm-59.548 29.504-2.264-6.36V87.35h-6.613V65.5l-4.492 14.95h-5.462l8.301-26.486h-6.612v-4.097h8.301v-6.756h6.613v6.72h4.708v4.097h-3.774l6.613 18.651h-5.319zM177.3 60.47c0-3.342.755-5.03 3.378-5.03h14.124c3.018 0 3.773 1.688 3.773 4.096V82.68h3.019v4.097h-5.858c-2.444 0-3.773-.755-3.773-4.097V59.355h-8.302V74.27c0 3.738-.755 9.524-3.378 12.866h-6.613l.36-.36c2.084-3.342 3.378-7.474 3.378-11.571V60.469zm5.822-17.357h7.151l.755 4.276h10.566v4.097h-27.528v-4.097h9.99zm119.133 13.62v5.786h12.075v-5.786zm0-8.949v5.032h12.075v-5.032zm15.812-4.096c2.085 0 3.019 1.293 3.019 3.342v19.765h-9.991l3.378 6.541 1.689-4.097h6.218l-4.492 10.853 3.378 7.08h-6.613l-10.889-20.736h-1.869v16.603h5.858v4.097h-8.841c-3.018 0-3.378-1.294-3.378-3.738V47.03c0-2.444 1.33-3.342 3.378-3.342zm-24.294 22.209v4.097h-7.546v14.015h6.217v3.343h-8.841c-2.084 0-3.773-1.294-3.773-3.738v-13.62h-5.103v-4.097h5.103V60.11h-4.349v-1.69h-2.444l5.068-15.668h5.858l-1.33 4.097h11.679v4.097h-13.009l-1.689 4.492h14.698v4.097h-7.546v5.786h7.151v.575zm45.965 21.455V71.68h-6.613L345.2 55.259h7.547l-6.217 8.59V87.35zm15.453-42.91h25.084v5.031h-25.084zm21.311 16.963v21.454c0 2.049-.755 4.493-4.133 4.493h-11.68v-4.493h8.302V61.404h-16.208v-4.492H382v4.492zm-36.369-2.983h-7.547l10.925-14.734h7.151z" fill="#717071"/><path fill-rule="evenodd" clip-rule="evenodd" d="M29.393 112.094h-3.371V90.917h3.371v7.286h.068c1.02-1.171 2.57-1.855 4.585-1.855 3.32 0 5.423 1.778 5.423 5.212v10.534h-3.375v-9.64c-.068-2.399-1.014-3.442-2.992-3.442-2.253 0-3.709 1.777-3.709 4.036zm20.97-12.661H42.07v-2.668h12.852v2.371l-8.498 10.294h8.941v2.664H41.891v-2.371zm20.06 5.011c0 3.174-1.449 6.526-5.007 6.526-3.964 0-5.355-3.352-5.355-6.526s1.391-6.524 5.355-6.524c3.558 0 5.007 3.35 5.007 6.524m-10.507 7.65h-1.722V90.917h1.868v8.78h.058c.802-2.197 3.023-3.349 5.297-3.349 4.655 0 6.875 3.761 6.875 8.096 0 4.332-2.22 8.098-6.875 8.098-2.458 0-4.588-1.273-5.445-3.354h-.056zm19.749-1.251c3.278 0 5.303-2.225 5.303-4.677l-.077-3.551h-.059c-.147.238-1.613.749-2.643.926l-.586.104c-2.924.512-5.377.941-5.377 4.298 0 1.801 1.687 2.9 3.439 2.9m-4.337-11.769s2.55-1.048 5.6-1.048c2.195 0 3.796.667 3.796 2.135 0 1.068-1.124 1.489-4.721 2.015-3.342.485-5.786 1.887-5.786 5.406 0 3.087 2.457 4.96 5.271 4.96 2.93 0 4.483-1.296 5.562-3.113v2.823h1.784l-.003-10.982c0-4.1-2.931-4.922-5.63-4.922-3.561 0-5.835 1.1-5.835 1.1zm15.195 13.02h1.858v-8.934c.067-2.989 1.838-5.24 4.797-5.24 3.024 0 3.884 1.98 3.884 4.618v9.556h1.86v-9.85c0-3.644-1.297-5.896-5.595-5.896-2.161 0-4.199 1.245-4.879 3.084h-.067v-2.65h-1.858zm17.791 0h-1.871V90.917h1.871v13.292l8.46-7.428h2.498l-6.527 5.673 6.965 9.64h-2.339l-6.037-8.338-3.02 2.532z" fill="#636463"/><path fill-rule="evenodd" clip-rule="evenodd" d="M74.805 13.057c-.298.15-.449.15-.596.15-.895.149-1.494-.15-1.494-.598 0-.3.75-.454 1.494-.3.147 0 .448 0 .596.149 0 0 .123 0 .147.111-.01-.05-.042-.081-.072-.112-.038-.037-.075-.074-.075-.147-.596-.458-.897-1.205-.148-1.504h.148c.45 0 1.046.603.9 1.652.146-1.05 1.044-1.504 1.643-1.353.746.449 0 1.205-1.196 1.504.747-.151 1.641-.151 2.093.148.148 0 .148.152.148.3 0 .15 0 .299-.148.453-.298.3-1.199.152-2.093-.302 1.048.747 1.196 1.65.597 1.797-.745.154-1.344-.448-1.344-1.65 0 .6-.298.903-.6 1.202-.148.155-.449.155-.596.155h-.301c-.594-.3-.748-.757.3-1.356.093 0 .186-.058.316-.138q.116-.074.28-.161M62.102 30.915c-.148.901 1.345 1.353 3.738.6-2.991 1.203-3.287 2.553-2.094 3.003.894.303 2.392-.45 2.988-2.55-.144 1.047-.144 1.797.148 2.397.3.6.898.753 1.494.6 1.199-.447 1.054-2.102-.596-3.297 1.35.75 2.395.897 2.99.6.447-.155.745-.452.745-.901.15-.452-.145-.753-.744-.901-.555-.142-1.5-.152-2.472.211 1.82-.761 3.025-2.04 1.876-2.759-.902-.457-2.395.441-2.992 2.395.297-1.2.15-2.099-.302-2.55-.291-.302-.743-.302-1.189-.302-1.497.457-.75 2.405.446 3.153-1.943-.902-3.886-.748-4.036.301m59.93 14.406c.75.155.75 1.947.297 2.701.293-.291 2.445-1.153 2.811-.054a.6.6 0 0 0 .029.194c-.061 1.073-2.387 1.21-2.387 1.21 1.494.457 2.237 1.805 1.939 2.252-.599.754-2.392-.747-2.689-1.497.15 1.198.15 1.798-.45 2.4-.75.147-1.045-.149-1.196-.602a.36.36 0 0 0-.168.051c-.021-.397-.028-1.033.318-1.765h-.75l-.121.042c-.424.15-.908.321-.774.75.151.313.449.47.895.63l.008.009c.107.113.214.226.319.396l-.032.02c-.081.05-.175.11-.294.169-.744.447-1.642.447-1.943.3-1.34-.149-1.792.147-1.94 1.2-.147 1.615 1.858 1.07 3.489.626l.099-.027c.076-.074.114-.111.151-.149l.021-.022.02-.02.049-.052.054-.057c.301-.45.301-.747.301-.746l.744.746c.301 0 .6.152.75.3.38 0 .779-.119 1.191-.241.723-.215 1.485-.442 2.246-.06 0 0 .151.459.898 1.35.06.063.12.173.191.303.104.19.23.419.408.6a1.2 1.2 0 0 1-.305-.076c-.111-.036-.221-.073-.294-.073-3.289-.899-4.632 0-5.085.9-.433.586.402 1.446.45 1.496l.003.003-1.498-.15-1.343-.153c-.364.368-.726.634-1.171.962l-.003.003q-.154.112-.323.239l-17.782 12.61-17.038 12.149-3.882 2.704-3.44 2.55-.597.454-1.641 1.05-1.796-1.2-3.889-2.706-5.973-4.2-9.866-6.904-7.919-5.554-7.772-5.398-1.346-.9-2.835-1.954-5.98-4.199c-2.095-1.203-2.095-3.157 0-2.556q.157.041.333.09c.556.154 1.21.334 1.457.209.96-.559 1.065-1.59.704-2.179l.13-.049c.934-.353 2.04-.77 3.052-.236.15 0 .304.155.304.31.295.476.145 1.106 0 1.58 0 .155-.153.32-.153.32h1.647c-.15-.165-1.051-1.743-.3-2.055.15-.156.746-.156 1.641.155.449.157.9.318 1.346.637.168.086.34.226.538.39.15.122.316.258.507.392l-.005-.017c-.152-.477-.448-1.407-1.04-1.872-.298-.473-.747-.787-1.045-.787-.147 0-.301-.16-.301-.16-.661 0-1.232.146-1.634.248-.324.083-.539.138-.604.067-.079 0-.155-.162-.25-.363-.093-.194-.202-.425-.347-.583h-.153c-.151 0-.151 1.105-.151 1.105-.166 0-.561-.242-.957-.484-.317-.195-.634-.389-.835-.46-.639 0-1.107.496-1.588 1.005-.136.144-.274.29-.417.425-.32-.047-.71.09-1.131.513-1.196 1.198-2.843 1.198-2.843.45-.096-.569.41-.716 1.172-.939.443-.13.972-.284 1.52-.56.631-.316.892-.784 1.149-1.243.107-.193.213-.383.346-.56-.148-.298-.302-.747-.302-1.202-.298 1.201-1.042 1.954-1.79 1.655-.896-.3-.598-1.655.302-2.705-.9.457-2.693 0-2.397-.9.157-.897 1.346-.749 2.545-.146-.898-.75-1.2-2.254-.6-2.553.898-.599 1.642.75 1.642 2.247.299-1.046 1.048-2.247 1.943-1.799.747.303 0 1.947-.745 2.25.597-.145 1.492-.145 1.793 0 0-.595.75-.896 1.497-.896 1.043 0 1.94.445 1.344 1.2 0 0-.747.897-.301 1.497.451.457 1.195.15 1.792-.443.154.443.449.747.901.747a.8.8 0 0 1 .226-.156.8.8 0 0 0 .22-.148c.23-.231.193-.648.165-.962q-.014-.136-.015-.237c.145.902.895 1.656 1.642 1.349.6-.447-.149-1.797-.898-1.797.875-.242 1.28-.146 1.515-.09l.056.014.03.028q.026.025.044.048c.9 1.204 2.843.747 2.391-1.05 1.197.445 1.643-.153 1.643-.453s-.446-.746-.892-.448c-1.048.3-1.947-.15-2.094-1.052-.147.754-.597 1.8-1.343 1.352-.75-.3-.151-1.352.295-1.8-3.139.898-2.687-2.401 0-1.351-2.54-1.354.597-3.603 1.195-.9-.147-2.703 3.14-1.355 1.049.3 1.79-1.2 2.388 0 2.09.6-.596.605.298 1.351.898 1.046.295-.148.453-.441.596-.896l-.054-.056c-.156-.16-.411-.424-.542-.694q-.22-.904 0-2.253c.148-.452.453-.902.895-1.35 0 0 1.198.753 1.346 2.553.15-.746 1.322-2.077 3.086-.65-.723-.613-1.297-1.766-1.44-2.353.448 0 1.343.3 2.095 1.503-.156-.3-.752-1.503-.599-2.254 0 0 1.042.297 1.19.599.298-.75.75-1.2 1.346-1.5.895-.45 2.094-.296 2.392.45.225.302.337.453.393.622s.056.355.056.728c.148-.444.6-1.201 1.497-1.648.145.75-.15 1.8-.452 2.398l.05-.05c.446-.441 1.014-1.005 1.591-1.144.151 1.046-.444 2.096-1.339 2.994 0 0 2.987-.449 2.69-2.096-.102-.203-.338-.405-.572-.606a6 6 0 0 1-.325-.292c-.601-1.056-.601-1.952-.303-3.008.15 0 .303.45.303.754.147-.602.297-1.053.445-1.201 0 0 .3.303.452.898l.04-.164c.138-.587.323-1.365 1.002-1.636.147.149.147.602.147.902.154-.45.452-.902.75-.902.15.148.003.595-.147.745.3-.294.596-.294.596-.294 0 .297 0 .45-.147.599.06 0 .147-.025.248-.055.145-.042.321-.093.5-.093h.294l-.143.146-.152.157c-.154.296-.154.443 0 .595l.006.005c.148.15.294.298.74.298-.297.302-.451.447-.746.602a1.16 1.16 0 0 1-.747.296c.173 0 .346.052.49.095.104.03.193.057.257.057.435.144.584.29.733.434l.013.013c0 .303-.297.6-.746.757-.078 0-.154.037-.23.073a.5.5 0 0 1-.22.071c.073 0 .147.037.22.075.076.038.152.077.23.077.593.148 1.343-.296 1.494-1.053.694.418.873 1.06 1.044 1.676.197.712.384 1.385 1.348 1.626-.414-1.158-.372-1.813-.326-2.52.037-.576.077-1.186-.126-2.13l.146.07c.283.135.626.297.751.68 0-.062.026-.123.055-.196a1 1 0 0 0 .093-.401c.9 1.046 1.648 2.096 1.347 4.348 0 .15.147.298.147.298.154 0 .301-.149.301-.45-.147-1.8.597-3.448 1.947-4.196.143.3.143 1.952-.299 3.146-.154.45.6.902.745-.448 0-1.24.63-1.215.962-1.203l.082.002.151-.151c.302-.45.745-.598 1.343-.45-.599-.448-.448-1.198-.294-1.35.593-.746 1.34-.746 2.388-.746h.898c-.075 0-.113-.039-.15-.078-.039-.038-.076-.077-.152-.077l-.037-.038c-.273-.276-.418-.423-.559-.715-.596-.898-.596-1.945-.154-2.245h.75c.747.3 1.494 1.195 1.8 2.55.144-1.5.89-2.704 1.64-2.852h.3c.894.302.297 1.95-.3 2.998a1 1 0 0 0-.123.166c-.049.08-.084.136-.175.136h.299c1.94-.448 3.138 0 3.285.598.152-.299.303-.443.597-.598.15-.148.298-.148.452-.148 1.645-.3 2.838.898 3.732 2.251-1.045.447-.446 1.95.299 2.398-1.344-.599-2.835-.448-2.986.305-.147.597 1.043 1.046 2.838.448-2.388.898-2.543 1.952-1.496 2.25.598.3 1.794-.298 2.092-1.953-.147 1.805.453 2.553 1.497 2.253.898-.3.747-1.503-.598-2.401 1.64.898 2.99.598 3.138-.297 0-.901-1.498-.901-2.991-.453 1.493-.6 2.844-1.65 1.795-2.252-.597-.15-1.344.149-1.795.748 0 0-.147-1.794 1.493-3.597.453.3.75.603 1.35 1.948 0-1.049.148-1.948.597-2.401l.089.088v.001c.339.33.996.974 1.405 2.615.15.747.6.747.75 0 .148-.901.895-2.704 1.94-3.153 0 1.048 0 2.252-.898 3.9.462 0 .925-.556 1.452-1.19.667-.801 1.437-1.726 2.438-1.808-.751.146-1.049 1.046.294 1.198-.747 1.651-2.542 2.701-2.542 2.701.63.106 1.112-.157 1.705-.48.252-.137.525-.286.837-.421h.15c.447 0 1.046.6.3 1.2-.192.13-.002.176.278.245.377.093.92.227.92.658 0 .298-.452.453-.599.453 0 .148.297.297.747.297-.148.148-.45.45-.898.45.45.089.575.342.668.53.061.126.109.223.23.223-.249.248-.59.267-.92.285-.266.015-.526.03-.725.163-.076 0-.114.038-.15.076-.038.038-.075.076-.148.076-.147.45-.147.898.297 1.2.899.602 3.14.455 4.185-.75.75-.902 2.094-1.655 3.437-1.2 1.633.374 2.318 1.703 2.581 2.213.051.098.086.166.109.192.154.293.154.44.154.592l.07-.012.08-.014.066-.01c.858-.141 1.886-.31 2.021-.86.078-.197-.283-.352-.853-.598-1.612-.694-4.896-2.108-4.674-7.21 1.748 2.594 3.171 3.229 4.4 3.777.976.435 1.83.816 2.624 2.08.387-1.443-.7-3.454-1.18-4.342a8 8 0 0 1-.165-.312c3.885 3 4.335 3.599 2.837 5.852-.425.78.089.822.907.888.91.074 2.195.177 2.982 1.363-.906-.3-1.406-.062-2.088.264a8 8 0 0 1-1.204.49c-1.608.439-2.679.197-3.582-.007-.941-.213-1.698-.384-2.689.303h-.005l-.147-.9a9 9 0 0 1-.566.06c-.94.084-1.923.171-1.678 1.29.27 1.083.323 1.027.713.614.259-.273.665-.703 1.381-1.062h.08q.089-.003.217-.002l.001.002.002-.001h.002v-.001c.551.002 1.606.115 2.089 1.204.148.45.148 2.25-.599 3.45-.298.603-.449 1.35-.449 2.1-.15-1.952-1.491-2.25-2.09-1.65-1.199.9.147 2.252 1.343 2.252-1.943.152-3.437 1.05-3.283 1.8.147.898 1.642.602 3.437-.902-2.248 2.251-1.944 3.303-.75 3.303.75 0 1.939-1.355 1.642-3.15.451 1.795 1.644 2.397 2.542 1.647.894-.75.147-1.948-1.793-2.402 2.241.152 3.585-.75 3.286-1.648-.138-.99-1.864-.517-3.191.544 1.345-1.192 2.062-2.807.653-2.948 0 0-.152.15-.299.15.116-.115.119-.32.123-.555.007-.372.015-.817.47-1.093.453-.302 1.051.148 1.199 1.352.6-1.8 2.094-2.106 2.69-1.5.6.746.152 1.95-.894 2.7 1.071.082 1.686-.337 2.373-.805.559-.381 1.166-.795 2.106-.998h.301c-.15 0-.301-.151-.301-.151-.895-.45-1.943-1.649-1.343-2.25.147-.448.747-.3 1.343 0 .446.3 1.045.898 1.346 1.652-.301-.898-.15-2.702.899-2.553m-10.911 7.205q.126-.1.245-.206a7 7 0 0 0-.245.206m-65.756-.733c-.535-.114-.763-.31-1.015-.527a4 4 0 0 0-.332-.264c.151.314.453 1.101.151 1.575-.298.318-.75-.159-.898-.314l-.147-.16c0-.097-.058-.257-.138-.479q-.074-.199-.16-.464c-.15.156-1.346 1.103-1.946.312 0-.41.447-.619.841-.803.208-.097.401-.187.506-.296-.45.16-1.492-.473-1.642-.632-.209-.219-.058-.287.103-.36a.6.6 0 0 0 .192-.114q.901-.238 1.795.474c0-.095-.067-.219-.146-.362-.183-.334-.424-.774-.005-1.216h.6c.211 0 .271.083.346.188.03.041.062.086.106.13.295.313.295.627.295.943.147-.157.894-.471.894-.471.6-.317 1.049.314.6.635l-.747.622c1.795.636 1.343 1.423.747 1.583m6.352-6.544a.6.6 0 0 0 .073-.233s-.147-.159-.147-.315l1.189-.32c.066 0 .13.027.206.06a.9.9 0 0 0 .397.098c.148 0 .299-.159.299-.468-.151-.154-.447-.154-.597-.154-.048.05-.081.102-.114.152a.76.76 0 0 1-.335.311l-1.045.32a2 2 0 0 0-.447-.624l-.005-.005.6-.948c.073-.076.186-.076.299-.076s.226 0 .3-.076c.147-.163.147-.318 0-.478-.301-.155-.453-.155-.6.16-.099.104-.065.211-.032.317a.5.5 0 0 1 .032.153l-.747.794c-.298-.166-.596-.166-.894-.166v-1.098c0-.067.051-.105.112-.15.084-.064.186-.14.186-.324 0-.159-.151-.318-.298-.318-.299 0-.452.16-.299.319a.6.6 0 0 0 .072.235.6.6 0 0 1 .073.238v1.098c-.298 0-.596 0-.744.166l-.744-.946c-.089 0-.075-.055-.047-.162.02-.078.047-.183.047-.316-.154-.155-.455-.155-.6-.155-.15.155-.15.47 0 .47.075.084.154.125.232.166a.8.8 0 0 1 .214.149l.753.794a2 2 0 0 0-.237.321 2 2 0 0 1-.217.3l-1.193-.313c-.151 0-.189-.078-.226-.155-.037-.076-.075-.153-.223-.153-.15-.166-.452 0-.452.154-.145.154 0 .31.301.31.071.074.141.044.227.008.097-.042.213-.091.373-.009l1.193.32c-.145.157-.145.316-.145.316v.473l-1.2.311a.5.5 0 0 1-.196-.058c-.102-.044-.225-.098-.4-.098-.153 0-.298.156-.153.474 0 .158.301.158.452.158.049-.052.081-.104.114-.155a.8.8 0 0 1 .335-.32l1.193-.312c0 .311.15.474.454.629l-.753.943c-.072.08-.147.08-.241.08-.095 0-.207 0-.355.081-.148.156-.148.316 0 .468.295.155.452.155.596-.152.077-.08.077-.159.077-.238 0-.08 0-.158.077-.239l.744-.785c.148.156.446.156.744.156v1.106c0 .062-.05.098-.108.142-.085.063-.19.14-.19.33 0 .154.153.315.298.315.301 0 .452-.162.452-.315l-.016-.017c-.145-.16-.282-.309-.282-.455v-1.106c.298 0 .596 0 .743-.156h.151l.6.946c.074 0 .074.04.074.117s0 .195.073.35c0 .156.299.156.453.156.147-.155.147-.467 0-.467a.8.8 0 0 0-.223-.153.8.8 0 0 1-.23-.164l-.747-.785c.21-.11.348-.3.462-.457q.073-.102.138-.175l1.045.319c.15 0 .187.078.223.156s.073.157.226.157c.15.156.446 0 .446-.158.15-.155 0-.318-.296-.318-.074-.077-.148-.038-.222.001-.076.04-.153.081-.233 0l-1.19-.312c0-.08.038-.16.075-.24m12.029-.71a5.5 5.5 0 0 1-1.272-.633 8 8 0 0 0-.52-.308c.035.113.096.244.162.386.212.453.477 1.023.136 1.504-.446.312-1.049-.16-1.344-.473-.117-.12-.23-.515-.343-.906-.035-.123-.07-.245-.106-.358-.15.166-1.792 1.264-2.391.474-.108-.688.577-.96 1.129-1.177.205-.081.391-.155.512-.24-.6.163-1.94-.629-2.087-.948-.301-.31 0-.469.298-.469.747-.477 1.642-.162 2.389.47-.037-.12-.114-.259-.197-.411-.244-.449-.549-1.008-.102-1.476l.449-.162h.45c.294.162.448.318.448.318.449.47.449.943.449 1.42.148-.321 1.042-.792 1.042-.792.898-.317 1.495.471.898.947l-1.046.632c2.241.944 1.793 2.043 1.046 2.201M80.93 36.35a8.1 8.1 0 0 1-2.687-.476h-.151l.15.161c.597.627 1.495 1.573 1.194 2.36.448-.476 1.198-1.574 1.494-2.045m-4.034.783c.302.951.747 1.417 1.347 1.735h.147l-.147.16c-.897.31-1.795 0-2.241-.633.592-.307.74-.776.889-1.244zm-1.96-.484c-.033.012-.07.012-.133.012-.086.092-.122.131-.166.148-.032.011-.069.011-.132.011l.15.156h.148a.8.8 0 0 0 .15-.236.8.8 0 0 1 .152-.235c-.087.09-.124.128-.17.144m-.73 4.108V40.6c.148 0 .449 0 .449.157 0 .315 0 .471-.15.471h-.299c-.09-.091-.127-.13-.172-.145-.032-.011-.068-.011-.129-.011a1 1 0 0 0 .12-.169c.049-.084.085-.146.181-.146M71.368 44.7c0 .314.145.47.295.47.154 0 .302-.314.302-.47 0-.068-.053-.108-.114-.154-.086-.064-.188-.14-.188-.322 0 .182-.1.258-.183.322-.06.046-.112.086-.112.154m2.093-.163c-.15 0-.304 0-.451-.158 0-.052.016-.104.033-.156.032-.102.065-.205-.033-.308l-.6-.946c-.148.152-.446.152-.747.152-.296 0-.593 0-.744-.152l-.15.152-.446.628c-.093.103-.07.202-.04.336.018.081.04.176.04.294-.075.078-.112.118-.15.118s-.077-.039-.154-.118c-.148 0-.296-.31-.148-.464.074-.083.15-.083.206-.083.057 0 .096 0 .096-.083l.596-.78.15-.163h-.15c-.151-.155-.299-.315-.299-.628 0-.16-.147-.319-.147-.319 0-.077.036-.154.073-.232s.074-.157.074-.237l-.897-.319c-.073-.079-.148-.04-.224 0-.075.04-.15.078-.222 0-.154 0-.298-.158-.298-.314.144-.158.298-.317.442-.158.178 0 .2.11.22.2.012.062.023.114.082.114l.897.315c0-.157.148-.315.299-.471h.15l-.15-.317-.446-.63.446.475.15.314c.295-.159.448-.159.744-.159v-1.1c0-.148-.135-.295-.273-.445l-.023-.025c0-.159.146-.318.296-.318.301 0 .449.16.301.318 0 .184-.05.26-.092.324-.03.044-.055.082-.055.146v1.102c.147 0 .445 0 .593.16l.6-.79c.073-.075.073-.154.073-.233s0-.16.074-.24c0-.31.304-.31.453-.155q.225.234 0 .476c-.075.077-.15.077-.224.077-.076 0-.152 0-.229.076l-.593.946.005.005c.146.155.295.313.44.628v.788l.895.313c.09.099.126.076.175.044a.2.2 0 0 1 .126-.044h.148c.301 0 .301.16.301.315 0 .315-.301.315-.449.163-.077 0-.116-.081-.154-.161s-.074-.157-.147-.157l-.894-.315c-.137.293-.278.448-.416.6l-.03.033.446.78c.076.087.155.128.234.17a.8.8 0 0 1 .217.15q.224.231 0 .468m-3.138-4.726c-.086-.087-.123-.125-.167-.14-.034-.013-.071-.013-.137-.013-.148-.161-.148-.476 0-.631.066 0 .103 0 .136.012.045.016.082.054.168.143a.6.6 0 0 1 .028.485.5.5 0 0 0-.028.144m.147 2.367-.897.473c-.088 0-.122.057-.171.14a1 1 0 0 1-.131.178c-.144.152-.442 0-.442-.163 0-.155 0-.47.298-.47.072 0 .147.039.222.078.076.038.152.078.224.078zm9.115 4.726c-.3-.788.897-2.048 2.54-2.68.243-.083.485-.121.75-.163.227-.036.47-.074.747-.145-.243-.09-.529-.176-.811-.26-.24-.073-.479-.145-.686-.217a7 7 0 0 1-.598-.035c-.398-.036-.796-.07-1.192.035-.61.158-.91.767-1.175 1.306-.256.52-.48.974-.918.898l-.897-.474s.147.474.147 1.106c0 .263-.563.28-1.217.3-.511.015-1.078.032-1.474.17a29 29 0 0 1-.448.476c0 .077-.037.116-.073.155-.037.04-.075.08-.075.16-.154.307-.301.787-.596 2.363 0 0 .295-.159.596-.476q.065-.072.138-.175c.114-.157.25-.344.458-.455.901-.784 2.094-1.417 3.142-1.256l.299.306c.298.319.298 1.423.298 1.423l2.093-1.423s-.897-.467-1.048-.939m22.418 2.683c-1.196.622-2.094.622-2.842.465a2.76 2.76 0 0 0-1.794.635l-.443-.947s2.087-.633 2.087-1.26c.041-.174-.272-.23-.765-.317-1.318-.234-3.92-.697-4.461-4.248 1.653 1.433 2.8 1.667 3.81 1.872.542.11 1.045.213 1.566.488.291.15.438.305.721.601l.026.028c0-.63-.3-1.417-.747-2.048-.281-.303-.504-.599-.67-.818a4 4 0 0 0-.227-.289c.301.166.6.32.897.474 2.543 1.264 2.842 1.738 2.094 3.313-.215.603.188.555.815.48.68-.08 1.624-.192 2.325.463-.694 0-.993.207-1.462.53a9 9 0 0 1-.93.578M84.074 25.06c.448.306.297 1.352.297 1.352l1.793-.75s-.6-.45-.6-.895c-.147-.902 1.645-1.356 3.59-1.655-1.05-.148-2.394-.896-2.394-.896-.672 0-1.159.557-1.54.994-.213.242-.392.448-.553.5l-.593-.598s-.155.599-.155.901q-.118-.002-.318-.022c-.37-.035-.92-.087-1.474.022-.294 0-.597 0-.891.3 0 0-.11.321-.323.769-.452-.042-.932-.008-1.37.022-.539.038-1.014.071-1.298-.045 0 0-.15 0-.15-.148l-.148-1.35s-.901.603-1.048 1.054c-.211-.142-.487-.45-.814-.812-.37-.41-.803-.891-1.28-1.29a2 2 0 0 0-.29-.217c-.114-.077-.23-.155-.306-.234-.301-.154-.596-.302-.895-.302 0 0-1.049.605-2.542 1.052a2 2 0 0 1-.384.138c-.15.042-.28.08-.366.162 0 0 .304 0 .75.154.894.296 2.241.747 3.437 1.35.147.151.448.295.596.295l.04.042c.427.43.712.718.86 1.008.146.602-.45 1.205-.9 1.5-.298.151-.449.303-.449.303l.449.155 2.543 1.194s0-1.194.298-1.8c.147-.147.301-.296.6-.296.894-.303 2.39.297 3.882 1.198.6.302 1.196.75 1.792 1.201a71 71 0 0 0-1.642-3.902h-.15c.898-.303 1.791-.602 1.946-.454m-3.16.022a8.5 8.5 0 0 1-.576 1.034l1.79-.602c-.327-.28-.758-.39-1.214-.432m15.71-4.22c-1.046.752-1.194 1.503-.595 1.95.594.3 1.194-.447 1.194-1.65.298 1.35 1.045 1.801 1.497 1.501.599-.447 0-1.351-.898-1.802.446.151.898.3 1.343.3.447 0 .747-.149.6-.602 0-.3-.3-.448-.6-.448-.445-.152-.897 0-1.493.299 1.195-.601 1.195-1.5.596-1.8-.596-.299-1.196.751-1.196 1.501-.296-1.05-1.043-1.8-1.494-1.501-.449.3-.148 1.199 1.045 1.8-1.638-.752-2.242-.299-2.09.451.15.3 1.045.603 2.09 0m26.004 15.608c.448-.148 1.196.449.751 1.8.445-1.202 1.343-1.948 1.791-1.5.716.428-.077 1.272-1.063 1.74.588-.238 1.392-.218 1.81.06.148.15.148.302.148.45 0 .3-.148.453-.148.453-.451.448-1.195.3-2.093-.305.898.901 1.045 1.955.298 2.254-.743.3-1.196-.455-1.046-1.949-.294 1.346-1.191 1.949-1.644 1.65-.747-.304-.6-1.202 1.196-1.955-1.343.45-2.241.152-2.241-.448.151-.602 1.341-.746 2.395-.15-.6-.452-1.054-1.8-.154-2.1m-2.841-4.654c.059.06.118.096.168.127.078.048.133.082.133.17 0 .154-.15.305-.301.451-.596.299-1.791.45-1.791.45l.448 1.053c.449-.451.897-.451 1.343-.451q.14.029.283.061h.002c.666.15 1.401.315 2.71-.213.318-.137.567-.275.785-.395.495-.273.829-.458 1.452-.351-.631-.793-1.555-.79-2.197-.789-.574.002-.923.002-.64-.563.745-1.654.446-2.1-2.395-3.905h-.143l.143.15.05.076c.353.527 1.29 1.929 1.147 2.926-.243-.242-.487-.442-.707-.623a7 7 0 0 1-.49-.426 8 8 0 0 0-.768-.235c-.963-.26-2.003-.54-3.412-2.313.283 3.709 2.867 4.432 4.015 4.753l.078.022zm-63.815-9.754s1.2-.448 1.053-1.05c-.153-.9-2.393-2.553-4.336-2.701 1.943-1.049 2.838-.602 2.838-.602.705.158 1.164.85 1.548 1.431.35.527.638.962.994.82.449-.151 1.042-.6 1.042-.6l-.295 1.05c.11.447.715.397 1.388.342.233-.02.474-.04.706-.04q.158.05.312.088c.338.086.655.166.88.512 0 0 1.048.75 1.2 3.151a6.4 6.4 0 0 0-2.392-2.099c-1.048-.605-2.094-.75-2.54-.302-.448.302-.15 1.349-.15 1.349-.597-.599-1.498-1.047-2.248-1.349m41.1 7.805c-1.196 1.95-1.043 3.296.15 3.45 1.045.148 1.645-1.348.897-3.3.302.597.6 1.05 1.046 1.35.898.747 1.943.901 2.395.148.597-1.049-.75-1.95-2.395-2.248 1.795.15 3.584-.602 2.841-1.654-.446-.748-1.646-.596-2.841.151a1.8 1.8 0 0 0-.563.478c.231-.354.443-.69.563-.928.299-.75.153-1.198 0-1.652a1.14 1.14 0 0 0-.744-.296c-1.35-.307-1.645 1.948-1.198 2.994-1.046-1.646-2.691-2.244-3.287-1.343-.6.747.445 1.8 2.687 2.096-3.14-.148-3.886 1.056-3.14 1.954.453.602 2.246.602 3.589-1.2m11.808.747c-.45-.3-.45-.902 1.042-1.501-1.042.303-1.789 0-1.789-.448.147-.45 1.044-.598 1.789-.148-.446-.302-.745-1.351-.145-1.5.446-.152 1.042.297.744 1.343.298-.898.898-1.495 1.346-1.194.603.296-.147 1.049-1.048 1.5.901-.306 1.799-.306 1.799.299-.148.6-.898.747-1.799.148.751.6.751 1.501.302 1.652-.6.303-1.048-.299-.898-1.498-.15 1.047-.892 1.498-1.343 1.347M18.617 45.172c-.561.323-.651 1.203-.728 1.951-.066.65-.122 1.2-.468 1.2l-1.197-.449s.446.75.597 1.055c.074.368-.507.701-1.15 1.07-.662.377-1.389.794-1.54 1.326 0 0-.443.6.298 2.7.452-1.946 2.392-3.898 3.293-3.898.593 0 .895 1.35.895 1.35a3.9 3.9 0 0 1 1.644-2.105s-1.047.15-1.347-.297c-.599-1.2.895-3.754 2.841-4.501-2.241-.3-3.138.598-3.138.598m20.815-10.51c-.992-.013-2.67-.034-4.08-1.345l-.043-.044c-.44-.447-1.01-1.029-1.302-1.758-.077-.075-.115-.188-.152-.302-.037-.111-.074-.222-.147-.297l.299.152c.448.3.9.6 1.345.749 1.136.403 1.973.416 2.713.428.914.014 1.678.026 2.67.77-.3-1.346-2.096-2.701-2.544-2.997 3.889 1.05 4.334 1.35 4.036 3.447-.137.561.239.467.774.332l.035-.01.088-.021c.747-.3 1.642-.602 2.536 0-.707.1-1.002.412-1.448.883-.211.222-.455.48-.793.768 0 .094-.056.13-.134.18a.8.8 0 0 0-.16.122c-.849.638-1.596.74-2.243.83-.723.099-1.32.18-1.794.97l-.745-.901s1.94-1.05 1.94-1.797c-.048-.149-.368-.153-.85-.16m89.772 12.763c1.493.147 2.991-.305 2.391-1.203-.444-.593-1.768-.45-2.665.573 1.017-1.186.566-2.075-.175-2.221-1.045-.151-1.195 1.348-.744 2.101-.6-.9-1.648-1.354-2.094-1.2-.301 0-.451 0-.451.148-.296.3-.148.599.451 1.052.299.148.898.445 1.643.593-.542-.108-1.008-.059-1.336-.024a3 3 0 0 1-.307.024c-.557.188-.767.434-.777.7q.006.014.015.024.01.012.015.03a1 1 0 0 1 .001.107l-.002.032q.045.155.149.31c.148.152.298.3.599.3.446.158 1.347-.148 2.094-.897-.898 1.2-.747 2.252.147 2.4.899.152 1.343-1.049.597-2.4 1.048 1.498 2.241 1.802 2.693 1.055.446-.605-.898-1.358-2.244-1.504M28.479 35.118c-.446-.297-.446-.9.894-1.653-1.042.449-1.791.152-1.791-.45 0-.45.897-.596 1.791 0-.445-.45-.894-1.5-.297-1.796.451-.152.897.45.75 1.645.147-1.047.894-1.645 1.346-1.349v.154c.288.144.152.431.01.73l-.01.02c-.089.173-.275.294-.474.423-.146.095-.299.194-.424.321l.006-.002c.293-.147.59-.296.892-.146.442 0 .744.148.744.602 0 .297-.302.602-.744.451-.305 0-.603-.154-1.049-.451.896.748 1.049 1.648.446 1.8-.446.302-.894-.45-.894-1.651-.148 1.2-.747 1.65-1.196 1.352m-8.519.298c1.046-.45 1.646-1.348.745-1.65-.443-.301-1.19.302-1.19 1.499 0-1.352-.75-1.8-1.199-1.649-.747.452 0 1.502.599 1.8-1.048-.298-2.093-.151-2.093.452 0 .453.901.749 2.093.153-1.493.897-1.346 1.649-.599 1.952.449.144 1.199-.454 1.199-1.652.148 1.349.747 1.948 1.346 1.652.594-.303.296-1.203-.9-1.952 1.343.596 2.24.3 2.24-.302-.147-.753-1.34-.601-2.24-.303m15.392 11.26c-.297 0-.445-.154-.445-.154.298.746-.302 1.802-.9 2.407l-.152-.158c0-.06.026-.122.056-.195a1 1 0 0 0 .095-.403c0-.062.027-.124.058-.197.043-.103.096-.227.096-.404 0 .153-.154.153-.154.153-1.193 0-2.09-1.351-1.042-1.351l.891.148c-1.19-1.498-.446-2.1.151-1.8v.15c.592.297.744.741.896 1.186l.005.016c.056-.114.09-.292.129-.486.061-.318.131-.678.316-.866l.151-.148c.505 0 .688.427.824.743q.036.088.07.159c0 .298 0 .598-.15 1.2.15-.154 1.799-.154 1.943.75-.126.252-.205.26-.372.222-.4-.429-1.76-.832-2.466-.973m-6.424-6.459c-2.842.75-3.14 1.954-2.094 2.553.747.454 2.242 0 2.84-1.951-.448 1.951.299 3.15 1.344 3.001h.153c.745-.293.898-1.35 0-2.547-.078-.078-.156-.195-.234-.312-.073-.11-.146-.22-.217-.293l.24.241v.001l.211.212c1.194.75 2.389.75 2.836.299.153-.148.153-.299.153-.454.123-.248.042-.392-.076-.606q-.038-.067-.078-.144c-.596-.444-1.641-.599-2.835-.444 1.643-.454 2.99-1.504 1.94-2.254-.596-.451-1.343-.302-1.94.297-.28.278-.677.811-.856 1.363.509-1.862-.364-2.854-1.24-2.71-1.343.3-.744 2.25.15 3.004-1.644-1.056-3.286-1.204-3.584-.306-.148.753 1.193 1.5 3.287 1.05m6.276-19.658s0-.15.148-.448c.151-.303.748-.6 1.793-1.05 0 0-1.343 0-1.793-.602 0-.073-.036-.11-.072-.148-.037-.038-.075-.077-.075-.155l.147-.145c.296-.15.896-.45 2.094.448 0 0-.898-1.497.446-2.701 0 0 .9.904.154 2.553l.027-.03c.197-.216.937-1.027 2.21-1.17 0 0-.297 1.2-1.794 1.645 0 0 1.35 0 1.647 1.052 0 0-.897.904-2.09-.447 0 0 .747 1.351-.747 2.102 0 0-.901-.451.147-1.951 0 0-1.198 1.2-2.094 1.2 0-.153-.147-.153-.147-.153m16.138 7.801c.257.261.172.517-.134.776.351.348.943.576 1.33.576-.401 0-.794.076-1.104.212.202.157.305.349.21.542-.148.3-.452.3-.6.3-.172 0-.369-.059-.57-.148-.184.231-.263.488-.178.75.151.147.449.3.748.3.452 0 1.199-.3 1.788-1.202-1.041 1.953-.59 2.851.456 2.698.596 0 1.041-1.05.295-2.698 1.049 1.648 2.097 2.1 2.543 1.35.596-.597-.446-1.647-2.094-1.95 1.94.152 2.69-.753 2.244-1.506-.453-.898-1.793-.293-2.542.753.75-1.046.898-2.55-.15-2.55-.752 0-1.194 1.05-.594 2.55-.6-1.349-1.494-1.8-1.947-1.5-.15 0-.298.151-.298.151a.9.9 0 0 0-.14.38q.217-.076.439-.077c.148 0 .298.148.298.293m-4.184 2.254c-.43-.429.249-1.006 1.367-1.18-.759.065-1.942-.502-1.515-1.074.298-.293 1.199-.293 1.94.753-.597-.898-.443-1.651.156-1.8.889 0 .889.902.443 1.652a2.2 2.2 0 0 1 1.056-.821c-.04.313.12.607.438.821.03.044.071.083.113.121l.051.05-.037.031a1 1 0 0 1-.127.1c-.134 0-.299.03-.48.064-.221.04-.468.085-.713.085.446 0 .895.148 1.193.296.158.054.284.13.39.212a1.3 1.3 0 0 0-.39.245 1.7 1.7 0 0 0-.569.45 2.3 2.3 0 0 1-.836-.64c.633.848.338 1.543-.089 1.69-.746.148-1.34-.45-.599-1.802-.597.898-1.491 1.2-1.792.747" fill="url(#paint0_linear_63_11942)"/><defs><linearGradient id="paint0_linear_63_11942" x1="14" y1="10.806" x2="14" y2="90.945" gradientUnits="userSpaceOnUse"><stop stop-color="#5cb531"/><stop offset=".284" stop-color="#5cb531"/><stop offset=".6" stop-color="#00a4ea"/><stop offset="1" stop-color="#004ea2"/></linearGradient></defs></svg>