<svg width="364" height="128" fill="none" xmlns="http://www.w3.org/2000/svg"><path d="M195.639 52.823c2.292 1.522 4.585 2.663 6.877 4.185l2.675-4.565c-6.495-3.043-11.462-6.848-16.048-11.412l.765-.762v-.76h-7.26c-6.113 5.706-12.226 10.271-18.722 14.075l3.057 4.566 6.878-4.566v3.044h8.023v4.184H168.13v4.565h13.754v9.51h-2.674l-4.203-7.988-4.967 1.902 3.057 5.706h-8.025v4.565h40.119v-4.565h-8.024l3.057-5.706-4.967-1.902-4.585 7.989h-3.057v-9.51h13.755v-4.566h-13.755v-4.184h8.024zm-10.698-.76h-9.552c3.438-2.283 6.495-4.946 9.552-7.99v.382c3.056 2.662 6.113 5.325 9.934 7.608zM325.929 41.79h22.16v4.946h-22.16zM217.8 62.714h5.731V45.976c.764-1.142 1.528-1.902 2.292-3.043.382-.38.764-1.142 1.147-1.522l-1.147-.761-3.438-1.902s-6.114 8.37-11.081 12.554l2.675 4.184c1.146-1.14 2.674-2.282 3.82-3.804zm105.454-20.542-4.967-3.044s-.764 1.142-2.675 3.044-4.585 4.565-7.641 6.467l3.438 4.184c1.529-1.521 3.057-2.282 4.203-3.043 2.675-1.902 4.967-4.185 7.642-7.608m1.146 11.412v4.946h12.991v14.075c0 1.902-.382 2.663-3.057 2.663h-6.877l1.91 4.565h5.731c4.968 0 7.642-2.282 7.642-7.608V58.53H350v-4.946zm-17.193 8.75 1.91 4.945c1.528-.76 3.056-1.902 4.203-3.043v15.597h5.731V58.91a370 370 0 0 1 4.967-6.087l-4.967-2.662c-.382 0-1.528 1.521-3.439 4.184-2.292 2.663-5.349 6.087-8.405 7.99m-71.832-.761h-5.731v4.565h-17.958v4.185h17.958v9.89h5.731v-9.89h17.576v-4.185h-17.576zm65.336 4.946-2.674-3.805-6.878 4.565c-1.146-1.521-1.91-3.043-2.674-4.945h11.08V41.031H276.64v33.096l-1.147 2.282 1.911 4.185 7.641-3.043 4.585-1.902-1.528-3.424c2.293 3.043 5.731 5.706 10.699 7.608l2.674-3.804c-3.057-1.522-5.349-3.043-7.259-4.945zm-18.722-21.304h12.609v3.804h-12.609zm0 28.532V61.954h.764c0 .38.764 2.282 1.911 4.945.764 1.522 1.528 3.043 3.056 4.565l-2.674 1.141zm0-16.358v-4.185h12.609v4.185zm-17.576-17.88 4.968 1.14c-.382 1.142-.764 1.903-1.147 3.044h6.114v4.185h-7.642c-.382 1.141-.764 2.283-1.529 3.424h8.406v4.565h-3.82v4.945h4.585v4.565h-4.585v6.087l3.056-1.141 2.675 3.804-9.934 6.087-2.675-3.805.764-1.521v-9.51h-4.203v-4.566h4.203v-4.945h-1.528c-.764.76-1.146 1.522-1.528 2.283l-3.439-3.044c3.439-5.326 7.259-15.597 7.259-15.597m-25.59-.761v6.519l10.754-5.752 2.305 3.834-13.059 6.902v3.184c.002 1.135.064 2.568 1.92 2.568h5.047a2.466 2.466 0 0 0 2.465-2.461v-3.397l5.193.106v5.814a4.926 4.926 0 0 1-4.929 4.923h-11.616c-2.689 0-3.842-2.3-3.842-4.218v-3.068L227.3 56.77l-.768-1.534-1.152-2.684 1.152-.767 6.529-3.451v-9.586zm-3.841 72.833h3.841v-4.978h-4.225v-2.68h4.225v-1.148q0-2.297-2.305-2.297h-1.92v-2.68h2.305c4.224 0 4.992 2.68 4.992 5.743v10.72h-6.913zm26.886 2.68h-3.073v-9.955c0-4.197-3.072-4.608-8.449-3.077v13.032h-3.458V98.549c1.921-1.148 4.993-1.9 7.298-1.9 2.689 0 4.993.382 6.913 2.68.769 1.148.769 2.297.769 3.445zm16.132-.383-6.146-7.275-1.92 1.915v5.743h-3.841V92.054h3.841v12.252l6.913-6.892h4.225l-6.913 6.892 8.065 9.572zm-43.018-13.401h-5.761l.384-2.68h5.377zm0 6.126h-.384c-3.457 0-4.609 2.68-3.073 4.212.385.766 1.921.766 3.457.766v2.68h-.384c-3.841.382-6.53-1.149-6.914-4.978 0-3.828 3.841-5.36 5.762-5.36h1.536zm-19.21 5.359c1.537 0 2.497-.123 3.457-.767s1.536-1.533 1.536-3.067-.384-2.3-1.536-3.067-1.92-.767-3.457-.767v-2.684h.384c1.153 0 2.113-.24 3.073-.767.96-.526 1.152-1.533 1.152-2.683s-.384-1.876-1.152-2.642c-.768-.767-1.536-.767-3.073-.767h-.384v-2.319h.384c2.689 0 4.609.137 5.761 1.127s1.921 2.3 1.921 3.834c0 2.684-1.536 4.217-3.841 4.984 1.152.383 1.881.597 3.073 1.534 1.192.936 1.536 1.917 1.536 3.45 0 2.684-.768 4.217-2.304 5.368-1.921 1.15-3.841 1.916-6.53 1.916zm-39.555-20.29V108.9c0 3.828-2.689 5.36-6.53 5.36h-5.761l.768-4.595h3.457c.768 0 1.536-.383 1.536-1.531V91.671zm39.561.382v2.68h-4.225v6.892h4.225v2.68h-4.225v7.657h4.225v2.68h-7.682V92.437h7.682zm-27.27 0v8.423h7.297v-8.423h6.146v22.207h-6.146v-8.806h-7.297v8.806h-6.146V92.054z" fill="#003d73"/><path d="m89.99 80.843-.684-8.671-15.404-4.51 7.188-14.22-7.188-6.59-13.692 7.63-5.134-14.915h-8.9L42.41 55.523l-14.718-7.284-6.162 6.937 7.873 13.874L14 74.6l.685 9.018 15.403 4.856-6.846 13.874 6.504 6.59 14.034-8.325 4.792 15.262h3.08l6.162-.347 4.45-15.261 13.692 6.937 6.846-7.284-8.215-13.528zm-13.464 19.632c.343.346 0 .692-.343.346L54.91 82.826c-.343-.346-1.715-.346-1.715.692l.343 27.685c0 1.039-.686 1.039-.686 0L51.48 96.668 50.45 84.21c-.343-1.038-.686-1.384-1.372-1.038l-18.87 18.687c-.343.346-1.03 0-.343-.346l15.782-20.417c.686-1.039.343-1.731-.686-1.731l-26.418-.346c-.343 0-.343-.346 0-.346l26.76-2.769c1.03 0 1.373-1.038.687-1.73L27.464 54.102c-.343-.692 0-.692.343-.346l20.586 17.996c1.029.692 2.058.346 2.058-.693l1.03-27.339c0-.346.343-.346.343 0l.343 4.5 1.715 22.84c0 1.038 1.03 1.384 1.716.692l18.526-18.688c.344-.346.687 0 .344.346L57.999 74.174c-.343.346-.343 1.73.686 1.73l26.761.693c.343 0 .343.346 0 .346L58 79.364c-.686 0-1.03 1.038-.686 1.73z" fill="#f08300"/><path d="m131.477 38.909-1.048-6.566-12.225-2.074 4.541-11.06-5.937-4.147-10.129 6.912-4.89-10.714-6.986.692-1.397 12.096-11.875-4.839-4.191 5.53 6.985 9.677L73.15 39.6l1.048 6.567 12.224 2.765-4.192 10.713 5.589 4.494 10.129-7.259 4.54 9.678v1.728l6.986-1.037 2.095-11.75 11.177 4.147 4.54-5.876-6.985-9.677zm-8.687 16.04c.351.347 0 .693-.35.347L104.938 43.18c-.35-.347-1.4 0-1.05.692l2.1 20.769c0 .692-.35.692-.7 0l-3.5-18-.35-1.73c-.35-1.04-.7-1.04-1.051-.693L87.436 59.45c-.35.347-.7 0-.35-.346l10.851-16.615c.35-.692 0-1.385-.7-1.385l-20.302 1.731c-.35 0-.35-.346 0-.346l20.302-4.154c1.05-.346 1.05-1.038.35-1.384L81.485 23.796c-.35-.346 0-.692.35-.346l16.802 11.769c1.05.692 1.75.346 1.401-.692l-1.4-20.77s.35-.346.35 0l2.8 16.27.7 4.154c0 .692 1.05 1.038 1.4.346l12.952-15.231c0-.346.35 0 .35.346l-10.852 16.615c-.35.347 0 1.385.7 1.039l20.653-1.385c.35 0 .35.346 0 .346l-20.653 3.808c-.7 0-.7 1.038-.35 1.385z" fill="#fdd000"/></svg>