<svg width="152" height="60" fill="none" xmlns="http://www.w3.org/2000/svg"><g clip-path="url(#clip0_479_38059)"><path d="M35.344 43a9.37 9.37 0 0 0 2.584-10.325 9.35 9.35 0 0 0-3.42-4.396 9.31 9.31 0 0 0-10.62 0 9.35 9.35 0 0 0-3.42 4.397A9.37 9.37 0 0 0 23.051 43 36.3 36.3 0 0 1 3.173 32.572 11.16 11.16 0 0 1 .429 21.717 30 30 0 0 1 11.193 6.04 29.9 29.9 0 0 1 29.199.003 29.9 29.9 0 0 1 47.206 6.04 30 30 0 0 1 57.97 21.717a11.16 11.16 0 0 1-2.737 10.848A36.3 36.3 0 0 1 35.344 43m-2.39 1.532c-1.239-.032-2.5-.052-3.757-.052q-1.887.002-3.758.052c-7.085.184-14.146.9-21.125 2.145a29.96 29.96 0 0 0 10.78 9.795 29.88 29.88 0 0 0 28.225 0 29.96 29.96 0 0 0 10.78-9.795 141 141 0 0 0-21.145-2.145" fill="#1677ff"/><path d="M81.178 11.19H75.42l-6.77 15.35h4.555v22.969h4.718V22.256h-1.548zm1.882 38.318h21.548a2.476 2.476 0 0 0 2.477-2.483V30.949H83.06zm4.706-16.2h14.598v5.79H87.776zm0 8.145h14.598v5.798H87.776zm15.386-24.545h4.729v-2.359h-4.731v-3.754h-4.716v3.754h-7.108v-3.754h-4.719v3.754h-4.73v2.359h4.728v7.322h-5.516v2.359h27.582v-2.36h-5.519zM91.326 24.23v-7.322h7.108v7.322zm50.348 7.774V19.093h-4.706v13.074c-.247 7.55-3.467 12.027-10.858 15.394v2.51c6.67-2.272 10.65-4.747 12.907-8.027l.312-.454.334.437c2.405 3.145 6.217 5.626 12.359 8.044V47.56c-6.947-3.365-10.194-8.164-10.348-15.555" fill="#3e3a39"/><path d="M132.99 13.8h12.632v24.488h4.721V12.715a1.27 1.27 0 0 0-1.275-1.294h-20.806v26.867h4.719zm-21.818 1.425v28.443h11.7a2.476 2.476 0 0 0 2.477-2.483V12.858h-14.177zm4.706-.403h4.743v26.89h-4.731z" fill="#3e3a39"/></g><defs><clipPath id="clip0_479_38059"><path fill="#fff" d="M0 0h152v60H0z"/></clipPath></defs></svg>