<svg width="389" height="128" fill="none" xmlns="http://www.w3.org/2000/svg"><path d="M111.821 71.03c.532 0 .933.396 1.007.903v38.159a4.137 4.137 0 0 1-3.921 3.908H70.823a1.035 1.035 0 0 1-.964-1.037c0-.229.112-.445.241-.618l.167-.16 40.752-40.752.166-.16a1 1 0 0 1 .636-.241zM89.134 42.516c.477 0 .91.167 1.26.444l.36.356 20.126 20.257.153.148c.129.172.233.394.233.64 0 .252-.104.46-.233.639l-.152.154-47.203 47.494-.294.295A4.06 4.06 0 0 1 60.842 114H19.629a1.02 1.02 0 0 1-.941-1.027c0-.234.091-.443.238-.621l.159-.16 68.417-68.858.403-.394a2.04 2.04 0 0 1 1.23-.425m-59.343 50a1.027 1.027 0 0 1 1.006 1.025c0 .225-.092.42-.22.597l-.213.207-14.552 14.542-.213.207a.93.93 0 0 1-.592.219c-.53 0-.94-.402-1.007-.908v-14.98a1 1 0 0 1 .982-.909zm6.416-52.343c.478.006.906.178 1.258.456l.328.326 21.943 21.478.22.228c.314.363.528.82.528 1.343 0 .518-.214.986-.54 1.35l-.19.209L37.83 87.015l-.409.4a2.14 2.14 0 0 1-1.17.413h-21.25A1.04 1.04 0 0 1 14 86.873V41.114c.044-.505.434-.893.956-.942zM61.148 14a4.02 4.02 0 0 1 2.6 1.106l.25.259 20.608 21.343.5.505c.226.348.378.765.378 1.22 0 .467-.152.89-.39 1.244l-.47.48-19.271 19.947-.25.266c-.36.315-.819.505-1.313.505-.5 0-.958-.19-1.318-.505l-.256-.266-42.717-44.221-.207-.228a1 1 0 0 1-.214-.619c0-.53.39-.967.891-1.036zm47.609 0c2.2.086 3.95 1.785 4.071 3.915v38.096a1.06 1.06 0 0 1-1.046.958c-.254 0-.482-.099-.647-.235l-.178-.167-41.839-40.751-.183-.18a.93.93 0 0 1-.247-.63c0-.512.405-.932.925-1.006zm-93.723 5.86c.226 0 .415.097.597.219l.201.213 14.532 14.541.201.22a.94.94 0 0 1 .232.591c0 .53-.409.951-.926 1.012h-14.97A1.04 1.04 0 0 1 14 35.67V20.865a1.045 1.045 0 0 1 1.035-1.006" fill="#c41829"/><path d="M280.35 33.922c.199 0 .374.065.524.161l.055.037.224.23 2.955 3.033.276.276q.042.103.044.22c0 .245-.169.448-.41.535l-.052.017h-6.093v6.193h.435l2.244-2.288.227-.229a.97.97 0 0 1 .576-.195.95.95 0 0 1 .536.167l.055.04.194.192 3.113 3.203.276.281a.6.6 0 0 1 .047.218c0 .247-.174.45-.412.535l-.053.016h-7.238v8.9l6.563-2.685.319-.124c.028-.003.058-.014.093-.014.356 0 .64.262.64.585q-.001.078-.026.153l-.018.05-.259.276-9.422 10.316-.126.14a.99.99 0 0 1-1.419-.163l-.035-.048-.08-.15-2.577-4.715-.085-.149a.8.8 0 0 1-.063-.292c0-.286.167-.532.405-.687l.052-.032.246-.105.248-.096v-11.16h-7.918v-1.94h7.918v-6.193h-5.193V36.48h10.319l2.108-2.15.196-.201a1 1 0 0 1 .591-.207m12.337-11.719c.372.07.66.312.751.638l.015.061v.243h11.865v-.26c.078-.33.342-.58.698-.668l.067-.014h4.669c.375.07.661.322.749.65l.014.063v18.516c-.06.338-.318.597-.666.69l-.066.015h-4.733c-.351-.07-.618-.3-.716-.614l-.016-.06v-.265h-5.696s.873 4.218 4.442 8.908l.11.142 4.106-6.496.072-.108a.99.99 0 0 1 .836-.46c.093 0 .181.018.267.044l.064.02.412.265 3.001 1.938.353.23a.83.83 0 0 1 .259.587.83.83 0 0 1-.323.644l-.05.038-.264.142-7.843 4.254c2.392 2.794 5.772 5.638 10.524 7.76.108.05.231.09.339.14.137.103.22.261.22.434 0 .231-.148.418-.354.521q-.158.032-.308.067c-1.933.473-4.101 1.552-4.797 3.465-.014.042-.025.09-.042.14-.153.306-.487.518-.888.518-.114 0-.228-.028-.337-.062-.136-.094-.287-.192-.423-.295-3.955-2.924-6.445-6.607-8.004-10.16l-.086-.197-10.15 10.324-.159.156c-.175.14-.393.218-.618.22a.98.98 0 0 1-.768-.362l-.039-.05-.125-.243-2.108-4.17-.139-.267c-.02-.073-.05-.148-.05-.22 0-.297.169-.544.414-.705l.054-.033.208-.096.267-.119v-35.24c.079-.322.343-.568.694-.654l.067-.014zm43.786 8.203q.155.002.303.046l.072.022.381.234 4.137 2.52.36.221a.86.86 0 0 1 .289.624.8.8 0 0 1-.082.353 12 12 0 0 0-.311.347 55 55 0 0 1-4.312 4.252l-.338.295v24.365c-.083.357-.383.623-.784.695l-.072.01h-5.146c-.405-.048-.722-.29-.838-.627l-.019-.061V44.464a66 66 0 0 1-6.873 3.9l-.414.193c-.038.003-.074.02-.109.02-.384 0-.691-.273-.691-.609 0-.066.018-.12.042-.18q.142-.165.292-.327c5.938-6.661 11.294-13.88 13.142-16.428q.15-.213.275-.382a1.1 1.1 0 0 1 .696-.245m33.22 3.516a.95.95 0 0 1 .496.145l.061.04.268.286 4.084 4.24.29.3a.5.5 0 0 1 .046.21c0 .26-.189.475-.447.546l-.053.013h-9.051v18.647s-.462 6.042-6.732 6.042c-4.071 0-1.47-2.901-6.448-4.918a4 4 0 0 0-.268-.107.56.56 0 0 1-.257-.46.58.58 0 0 1 .398-.54l.05-.017h4.214c2.272 0 2.31-1.855 2.311-1.918V39.7h-15.464v-1.815h22.196l3.535-3.584.175-.17a.96.96 0 0 1 .596-.21M240.068 19.859c.39.07.683.345.754.708a127 127 0 0 0 .31 8.524l.037.512h6.578l2.245-2.308.186-.193a1 1 0 0 1 .593-.21.97.97 0 0 1 .556.18l.058.042.153.159 3.161 3.29.254.268a.55.55 0 0 1 .051.224.58.58 0 0 1-.385.54l-.049.017h-13.237c.483 5.25 1.256 9.721 2.16 13.378 1.973-4.837 3.054-8.93 3.505-10.813q.055-.22.096-.408a.98.98 0 0 1 .863-.507c.039 0 .072.01.103.018l.031.008.297.075 3.27.862.366.09c.306.153.522.441.522.785 0 .045-.025.084-.027.13a4 4 0 0 0-.074.248c-1.858 6.62-4.357 11.8-7.007 15.812 1.503 3.852 3.01 5.824 3.953 5.824 1.672 0 1.5-1.673 3.641-4.98.058-.086.118-.181.18-.274a.66.66 0 0 1 .427-.156c.33 0 .598.24.625.545-.035.118-.062.238-.092.355-1.814 7.196 2.253 11.787-4.45 11.787-2.904 0-5.819-2.765-8.255-7.95-2.727 3.015-5.338 4.967-7.313 6.19l-.317.196c-.057.014-.112.03-.175.03-.355 0-.645-.265-.645-.59a.5.5 0 0 1 .05-.218 7 7 0 0 0 .27-.288c2.601-2.848 4.764-6.045 6.548-9.24-1.822-5.25-3.229-12.146-3.932-20.49l-.034-.419h-9.457q.06 2.776-.047 5.548l-.016.4h3.619q.004-.066.003-.132c.056-.352.323-.628.693-.716l.066-.015h3.734a.91.91 0 0 1 .733.64l.016.063v.328c-.109 11.422-1.885 16.544-1.885 16.544-.025.098-1.11 4.294-5.242 4.294-2.669 0-1.199-1.799-2.751-3.178-.013-.014-.019-.025-.033-.033a3 3 0 0 0-.213-.171.3.3 0 0 0-.068-.04.6.6 0 0 1-.098-.307c0-.26.179-.472.43-.551l.05-.014h1.036c1.387 0 1.647-1.363 1.647-1.363s1.499-4.918 1.826-13.079l.01-.248h-3.68c-.429 6.285-1.542 10.984-2.929 14.506l-.073.184-.038.103c-2.265 5.576-5.207 8.704-7.105 9.814-.115.059-.219.12-.325.171-.05.014-.099.03-.15.03-.361 0-.646-.262-.646-.598 0-.056.02-.106.042-.162.046-.09.101-.168.156-.255 2.273-4.041 3.696-9.238 4.558-13.766l.061-.322.01-.045c1.588-8.544 1.205-16.6.981-19.502a5 5 0 0 0-.03-.416.9.9 0 0 1 .702-.718l.066-.013h4.062c.366.062.647.297.745.616q0 .132.009.264l.008.13h9.378a145 145 0 0 1-.301-8.664c-.002-.148-.002-.285-.002-.43.079-.313.334-.551.667-.635l.067-.015zm-84.556 23.438c.403.063.713.327.803.679l.013.06v1.208h23.329v-1.228c.075-.353.362-.626.747-.707l.069-.012h5.535c.391.058.693.312.785.65l.014.06v19.67c-.067.354-.36.628-.757.703l-.067.01h-5.493c-.403-.052-.719-.31-.818-.661l-.015-.06v-1.234h-23.329v1.215c-.064.366-.365.653-.765.73l-.068.01h-5.496c-.387-.05-.697-.296-.802-.626l-.016-.059V43.98c.08-.335.358-.592.726-.67l.069-.012zm24.145 11.513h-23.333v5.68h23.333zm34.001-32.607a.91.91 0 0 1 .701.632l.015.06v11.313l1.254-1.606.162-.208a.98.98 0 0 1 .644-.25.94.94 0 0 1 .552.184l.055.043.211.24 2.194 2.58.241.282a.7.7 0 0 1 .043.208c0 .272-.185.484-.444.566l-.053.014h-4.859v14.332l2.11-.376.379-.062c.308.034.556.279.556.59 0 .124-.045.24-.114.336l-.031.04-.276.185-9.99 6.938-.233.16a.96.96 0 0 1-.453.127.95.95 0 0 1-.81-.442l-.031-.053-.048-.108-2.024-4.207-.084-.168a.8.8 0 0 1-.057-.277.9.9 0 0 1 .512-.804l.058-.027.411-.069 4.81-.851V36.262h-5.45v-2.054h5.45v-11.3a.89.89 0 0 1 .657-.689l.064-.015zm84.733 18.995h-4.938v14.279l6.912-3.16c-2.205-5.938-1.974-11.119-1.974-11.119m-118.734 5.99h-23.333v5.678h23.333zm7.597-26.157c.199 0 .386.063.541.16l.057.038.21.217 3.755 3.814.155.157a.56.56 0 0 1 .103.302c0 .258-.183.462-.436.541l-.052.014h-15.603v13.934h10.55l2.86-2.883.203-.206a1.03 1.03 0 0 1 .598-.198c.221 0 .414.067.575.18l.059.045.124.118 3.767 3.801.268.275c.03.068.05.145.05.22 0 .267-.198.482-.464.553l-.054.012h-52.394v-1.917h17.393V26.274H143.07v-1.906h40.515l2.863-2.922.21-.217c.173-.127.382-.196.596-.197m-17.329 5.243h-4.228v13.934h4.228zm135.393 7.4h-11.866v5.552h11.866zM184.692 26.89c.076 0 .147.02.218.042l.054.017.169.074 4.586 2.004.1.04a.95.95 0 0 1 .515.844 1 1 0 0 1-.057.318c-.08.12-.148.245-.228.362-2.846 4.24-6.988 6.724-9.245 7.841-.111.05-.217.11-.317.153-.037.01-.074.024-.114.024a.625.625 0 0 1-.621-.63c0-.05.016-.095.029-.142.035-.074.061-.147.093-.218 2.075-4.647 3.34-8.212 3.909-9.918.045-.118.074-.224.111-.321.161-.286.446-.49.798-.49m86.981-5.859q.036.002.067.012l.029.008.363.092 3.737.977.292.076c.32.148.55.439.55.785 0 .061-.029.117-.04.176-.068.128-.13.26-.201.385a43 43 0 0 1-3.094 4.974l-.216.298h4.928l2.365-2.372.148-.145c.172-.131.396-.224.637-.224.189 0 .36.06.508.147l.062.038.303.296 3.182 3.199.206.215a.5.5 0 0 1 .077.26c0 .257-.177.464-.43.544l-.052.015h-13.469c-4.27 5.176-8.39 7.822-8.39 7.822 4.364-8.043 6.644-14.312 7.443-16.698q.082-.234.142-.42a1 1 0 0 1 .853-.46m-123.016 5.86c.098.017.199.04.308.06 4.167.714 8.447 3.46 8.447 7.409 0 3.412-1.909 4.249-3.605 4.249-5.058 0-1.574-6.355-5.558-10.644a3 3 0 0 0-.141-.157.55.55 0 0 1-.103-.31c0-.333.29-.596.652-.608m186.968-5.86c.104 0 .209.016.306.044l.07.023.312.195 3.942 2.457.311.197c.17.156.274.367.274.604a.75.75 0 0 1-.167.458 8 8 0 0 1-.265.24c-5.316 4.84-11.613 7.421-15.008 8.546-.137.048-.26.083-.383.127-.355-.006-.639-.262-.639-.575 0-.1.033-.183.074-.259.076-.078.15-.148.226-.221 5.56-5.387 8.805-9.562 10.056-11.294.079-.1.158-.207.218-.294a1 1 0 0 1 .673-.248m-30.307 4.077h-11.866V31.7h11.866zm-62.742-4.077q.15 0 .295.002c3.59.163 5.942 1.945 6.21 3.68.339 2.199-1.31 3.35-2.751 3.35-3.177 0-1.449-3.308-4.002-6.085-.069-.076-.131-.148-.216-.22a.6.6 0 0 1-.041-.206c0-.262.216-.47.505-.521m123.674 0c.213 0 .405.068.567.18l.06.045.182.192 4.027 4.305.273.3a.5.5 0 0 1 .052.236c0 .279-.2.51-.468.589l-.051.012h-27.701v-1.954h18.917l3.369-3.535.123-.133a1 1 0 0 1 .65-.237M162.048 80.016v.779c-1.642.09-2.703.381-3.195.86-.486.483-.737 1.447-.737 2.888v15.333c0 2.806-.681 4.878-2.042 6.225q-2.05 2.039-5.068 2.039c-1.318 0-2.352-.296-3.086-.896-.74-.599-1.106-1.264-1.106-1.997q0-1.127.627-1.607a2.2 2.2 0 0 1 1.355-.476c.952 0 1.652.574 2.111 1.734.456 1.154.935 1.734 1.447 1.734.549 0 .935-.238 1.143-.711.215-.479.331-1.307.331-2.493V84.543c0-1.549-.261-2.54-.773-2.976q-.762-.655-3.166-.772v-.78zm38.871-1.172.412 9.538h-1.021q-.882-2.842-2.315-4.582c-1.816-2.187-4.262-3.276-7.342-3.276-3.103 0-5.636 1.175-7.608 3.524q-2.953 3.525-2.955 9.7c0 3.791 1.038 6.812 3.107 9.072 2.066 2.259 4.699 3.389 7.875 3.389q3.441 0 6.342-1.574 1.666-.894 3.658-2.696l.819.788c-.979 1.186-2.193 2.23-3.657 3.131-2.484 1.517-5.172 2.282-8.072 2.282-4.768 0-8.549-1.464-11.348-4.379-2.589-2.697-3.876-6.06-3.876-10.095 0-4.131 1.364-7.603 4.09-10.406q4.31-4.417 11.214-4.416c1.602 0 3.255.225 4.941.682 1.692.458 2.64.686 2.83.686.422 0 .823-.113 1.194-.335q.562-.328.781-1.033zm26.243 1.172c3.429 0 6.146.543 8.162 1.638 2.005 1.095 3.014 2.975 3.014 5.652 0 2.01-.705 3.53-2.109 4.575-.792.59-1.985 1.088-3.576 1.472 1.965.471 3.65 1.258 5.04 2.352 1.394 1.101 2.089 2.637 2.089 4.618q.001 4.978-4.636 6.843-2.445.975-6.019.974h-13.955v-.792c1.712-.096 2.831-.355 3.336-.79.509-.434.759-1.442.759-3.025v-18.91c0-1.565-.25-2.57-.759-3.022-.505-.451-1.624-.716-3.335-.796v-.79zm43.956 0 10.561 23.676c.701 1.574 1.26 2.542 1.683 2.917.427.371 1.131.619 2.123.753v.778h-10.776v-.778c1.24-.101 2.033-.238 2.397-.392.354-.156.536-.537.536-1.15 0-.199-.07-.554-.209-1.076a11.6 11.6 0 0 0-.578-1.623l-1.697-4.015h-11.166q-1.651 4.093-1.974 5.003c-.215.599-.318 1.078-.318 1.434q0 1.051.867 1.457c.357.163 1.035.283 2.023.362v.778h-8.402v-.778q1.642-.172 2.454-1.209c.549-.685 1.485-2.566 2.8-5.639l8.836-20.498zm33.27 0 16.252 19.983V86.117q0-3.424-1.032-4.459c-.446-.446-1.451-.737-2.999-.867v-.775h9.892v.775c-1.603.16-2.674.551-3.21 1.16-.532.61-.801 2.015-.801 4.202v21.988h-.717l-18.626-22.907v16.264c0 2.282.332 3.765 1.005 4.462q.657.671 2.94.916v.772h-9.888v-.772c1.738-.176 2.861-.57 3.354-1.173.49-.603.732-2.008.732-4.205V83.093l-.571-.672q-.92-1.08-1.57-1.336c-.434-.166-1.081-.27-1.945-.293v-.776zm47.484 0v.79q-2.492.122-3.213.828c-.488.471-.726 1.463-.726 2.985v8.713c2.614-2.232 4.758-4.13 6.415-5.698 2.975-2.83 4.459-4.64 4.459-5.442 0-.564-.252-.94-.755-1.118-.51-.18-1.223-.27-2.15-.27v-.788h11.126v.79c-1.355.135-2.429.394-3.208.782-.781.39-1.868 1.24-3.25 2.557l-8.29 7.687 10.112 10.942c1.842 1.96 3.099 3.191 3.761 3.675.666.491 1.64.809 2.926.965v.726H356.09v-.726q1.767-.063 2.389-.285.622-.215.623-.862c0-.236-.136-.601-.407-1.078-.269-.484-.693-1.052-1.279-1.685l-8.171-8.845-1.312 1.213v7.692c0 1.582.235 2.587.715 3.004.474.422 1.515.707 3.118.846v.726h-11.984v-.726c1.726-.139 2.8-.444 3.214-.925q.624-.72.623-3.419V84.63c0-1.536-.235-2.535-.696-2.983-.46-.45-1.511-.733-3.141-.842v-.79zM223.376 94.078v11.07c0 .766.22 1.266.651 1.491.439.219 1.445.33 3.033.33q3.42.002 5.73-1.318 2.307-1.329 2.305-5.082c0-2.488-.895-4.191-2.698-5.103-1.804-.91-4.094-1.367-6.887-1.367h-1.295c-.184 0-.459-.01-.839-.021m46.389-8.577-5.174 12.093h10.348zm-44.388-4.313q-1.364 0-1.675.241c-.221.158-.326.603-.326 1.319v10.158l4.149-.067c1.457-.024 2.671-.27 3.636-.725q2.762-1.317 2.762-4.727-.001-4.022-3.187-5.432c-1.179-.508-2.966-.767-5.358-.767z" fill="#3f3a3a"/></svg>