<svg width="128" height="128" fill="none" xmlns="http://www.w3.org/2000/svg"><path d="M103.185 69.695c.43 0 .755.32.815.73v30.91a3.35 3.35 0 0 1-3.174 3.165H69.997a.84.84 0 0 1-.78-.84c0-.185.09-.36.195-.5l.135-.13 32.988-33.01.136-.13a.8.8 0 0 1 .515-.195zM84.82 46.598c.386 0 .737.135 1.02.358l.291.289 16.293 16.409.123.12a.88.88 0 0 1 .188.517.88.88 0 0 1-.188.518l-.123.125-38.21 38.47-.238.239a3.28 3.28 0 0 1-2.058.857H28.557a.823.823 0 0 1-.762-.832c0-.189.073-.358.192-.503l.129-.13 55.383-55.774.327-.32c.285-.22.634-.34.995-.344zm-48.038 40.5c.445.01.815.37.815.83 0 .182-.074.34-.178.484l-.172.167-11.78 11.778-.173.168a.75.75 0 0 1-.48.178c-.429 0-.76-.326-.814-.736V87.835a.81.81 0 0 1 .795-.737zm5.195-42.399c.387.005.733.145 1.018.37l.265.264L61.023 62.73l.177.185c.255.294.428.663.428 1.087 0 .42-.172.799-.437 1.094l-.154.17-17.746 17.376-.331.325c-.27.195-.592.319-.948.334H24.81a.844.844 0 0 1-.81-.773V45.462a.84.84 0 0 1 .774-.763zM62.166 23.5a3.26 3.26 0 0 1 2.105.895l.201.21 16.683 17.289.404.409c.183.281.306.619.306.988a1.8 1.8 0 0 1-.316 1.008l-.38.389-15.6 16.156-.203.215c-.292.262-.67.408-1.061.41a1.6 1.6 0 0 1-1.068-.41l-.207-.215-34.579-35.819-.168-.184a.8.8 0 0 1-.173-.502c0-.43.317-.782.722-.839zm38.538 0c1.781.07 3.198 1.445 3.296 3.172v30.857a.86.86 0 0 1-.847.775.83.83 0 0 1-.523-.19l-.145-.134-33.867-33.01-.149-.144a.76.76 0 0 1-.2-.51c0-.415.328-.755.749-.816zm-75.866 4.746c.182 0 .335.079.483.178l.162.172 11.764 11.779.163.178a.76.76 0 0 1 .187.479c0 .43-.33.77-.749.82H24.73a.84.84 0 0 1-.73-.8V29.061a.847.847 0 0 1 .838-.816z" fill="#c41829"/></svg>