<svg width="128" height="128" fill="none" xmlns="http://www.w3.org/2000/svg"><path d="M78.917 60.731c-6.948 0-12.465 5.312-12.465 5.312 4.576-10.319 14.099-9.603 14.099-9.603h25.279a42 42 0 0 0-1.188-4.904H78.917c-6.948 0-12.465 5.313-12.465 5.313 4.653-10.358 14.099-9.604 14.099-9.604h22.516C96.566 32.105 81.523 21.5 64 21.5c-23.472 0-42.5 19.028-42.5 42.5s19.028 42.5 42.5 42.5 42.5-19.028 42.5-42.5q0-1.65-.123-3.269zM64.025 29c11.141 0 21.068 5.2 27.483 13.304H78.772c-5.451 0-10.523 4.137-12.472 5.935H48.05v31.726h31.747V65.842H99C98.041 84.316 82.749 99 64.025 99 44.68 99 29 83.33 29 64s15.681-35 35.025-35M75.5 66v9.5h-9c2.187-6.195 6.013-8.597 9-9.5M62 52.5v23h-9.5v-23z" fill="#e50113"/></svg>