<svg width="501" height="128" fill="none" xmlns="http://www.w3.org/2000/svg"><path d="M14.415 76.198 14 75.875c2.258-2.265 4.792-4.575 6.405-6.008C37.96 54.34 60.768 50.412 71.32 61.133s4.838 31.979-12.763 47.506c-2.258 1.987-4.562 3.789-6.958 5.361H36.301c2.995-2.034 5.99-4.298 8.847-6.886C63.164 91.171 70.905 71.346 62.473 62.75s-29.904-2.634-47.92 13.263zM15.98 97.04c5.576-4.483 12.948-12.062 15.436-22.228.184-.786 1.06-1.294 2.534-.509 1.429.74 7.88 3.235 18.293-.739.968-.37 2.212.139.507 1.756-1.659 1.618-8.709 9.058-13.639 23.892-.415 1.294-1.89 1.109-2.718.785-3.917-1.525-9.262-3.882-19.63-1.016-1.428.462-2.35-.878-.783-1.941" fill="#0061ae"/><path d="M73.44 97.316c4.054-5.87 7.234-13.263 7.879-22.275.138-2.126 1.474-1.663 2.672-1.432 2.074.37 7.972 1.247 17.417-3.559.83-.416 2.488-.092 1.152 1.941-1.382 2.034-5.16 7.487-6.22 21.951-.092 1.155-1.336.97-1.705.832-.323-.093-9.86-1.941-19.905 3.697-.922.462-1.936-.139-1.29-1.156M47.13 53.183c-.553.139-.784-.324-.277-.74 8.34-7.301 10.69-17.098 10.874-18.808.23-1.848.968-1.71 2.028-1.294 7.003 3.004 13.178 1.987 15.666 1.433 2.718-.647 3.824-.093 2.12 1.987-5.438 6.516-6.82 15.111-7.143 18.023-.092.97-.967.831-1.428.647-5.99-3.328-16.08-3.235-21.84-1.248M84.958 67.6a79 79 0 0 1-4.792 4.16c-.23-3.975-1.429-7.58-3.548-10.63C89.98 45.881 94.727 29.106 86.986 21.76c-8.755-8.319-29.766-1.664-47.09 14.834-.231.23-.968.97-1.798 1.848l-.414-.277c2.718-3.096 5.898-6.424 7.787-8.226C62.38 13.81 84.959 9.143 95.879 19.54c10.874 10.398 5.99 31.933-10.92 48.061M97.676 56.28c10.828-2.31 20.735-.462 26.356 5.961 9.907 11.23 3.041 32.257-15.297 46.952a73 73 0 0 1-6.82 4.806H85.42c3.41-1.987 6.773-4.344 10.09-6.978 18.8-15.065 27.601-34.567 19.675-43.578-3.916-4.483-11.196-5.5-19.813-3.65.784-1.156 1.567-2.311 2.304-3.513" fill="#009794"/><path d="M366.997 105.219h5.069c1.981 0 3.271-.324 3.87-.924s1.659-1.988 1.659-4.206c0-2.033-.369-3.373-1.06-4.067-.691-.646-2.903-1.016-5.022-1.016h-4.516zm0-10.999h4.009c2.073 0 4.193-.277 4.838-.832s.968-1.894.968-3.789c0-2.08-1.014-3.327-1.613-3.79-.553-.462-2.073-.692-4.469-.692h-3.733zm-8.847 10.999h2.166V85.07h-2.166v-1.016h15.851c2.949 0 5.299.462 7.004 1.432s2.58 2.264 2.58 3.882c0 1.34-.691 2.45-2.027 3.281-1.383.832-2.673 1.386-5.345 1.71v.277c3.087.185 4.654.786 6.22 1.71 1.567.924 2.35 2.218 2.35 3.836 0 1.894-.968 3.373-2.949 4.482s-4.654 1.664-8.063 1.664h-15.528v-1.109zm38.337-6.285h8.708l-4.377-9.011zm-7.557 7.394v-1.109h1.751c.461 0 .875-.139 1.152-.37.322-.231.645-.693.967-1.34l9.769-19.918h1.705l10.69 21.582h2.534v1.109h-13.777v-1.109h4.423l-2.488-5.222h-9.63l-1.889 3.789c-.046.046-.092.185-.092.323 0 .139-.046.324-.046.509s.138.323.322.462c.23.092.553.139.922.139h2.534v1.109h-8.847zm32.53 0v-1.109h2.212c.553 0 .968-.093 1.198-.278.231-.184.323-.554.323-1.155V86.272c0-.462-.138-.786-.369-.925-.23-.138-.737-.23-1.52-.23h-1.751V84.1h10.137l13.316 14.326v-11.6c0-.693-.138-1.109-.415-1.34-.276-.23-.829-.323-1.705-.323h-1.843v-1.017h9.077v1.017h-1.612c-.691 0-1.198.092-1.475.323-.276.231-.414.647-.414 1.294v20.102h-1.152l-18.569-20.01v17.191c0 .37.138.694.414.925.277.231.691.323 1.198.323h2.535v1.109h-9.585zm45.433-12.154 10.137-7.995c.184-.138.322-.277.368-.37.092-.092.092-.184.092-.277 0-.092-.046-.184-.184-.277a.8.8 0 0 0-.461-.138h-2.903v-.971h10.46v.97h-1.751c-.829 0-1.567.093-2.166.324s-1.382.693-2.257 1.386l-6.636 5.269 11.289 13.124h4.516v1.109h-15.159v-1.109h3.455l-8.8-10.26zm-11.151 11.045h4.009V85.07h-4.009v-.97h14.192v.97h-4.055v20.149h4.055v1.109h-14.192zm-298.672 1.848V85.024h-3.594v-1.017h13.915v1.017h-3.594v16.729c0 2.634-.922 4.76-2.811 6.377-1.843 1.618-4.055 2.403-7.142 2.403-1.612 0-2.903-.37-3.916-1.017q-1.521-1.04-1.521-2.634c0-.739.277-1.386.876-1.848.599-.508 1.29-.739 2.119-.739.922 0 1.613.231 2.166.693q.83.693.829 1.802c0 .37-.138.786-.414 1.201q-.415.625-.415.832 0 .209.276.416c.185.093.415.185.738.185.599 0 1.52-.185 1.889-.601.414-.554.599-1.063.599-1.756m163.62-.554v-1.109h4.055V85.07h-4.055v-1.016h14.33v1.016h-3.917v20.334h3.917v1.109zm-97.684 0v-1.109h2.212c.553 0 .967-.093 1.198-.278s.322-.6.322-1.155v-17.7c0-.461-.138-.785-.368-.97-.231-.138-.737-.23-1.521-.23h-1.751v-1.017h10.137l13.317 14.464V86.78c0-.693-.139-1.155-.415-1.34-.277-.231-.829-.323-1.705-.323h-1.843V84.1h9.077v1.017h-1.659c-.691 0-1.198.138-1.474.37-.277.23-.415.692-.415 1.34v20.286h-1.152l-18.569-20.24v17.375c0 .37.138.693.415.925.276.231.691.323 1.198.323h2.534v1.109h-9.538zm-25.02-7.487h8.663l-4.378-9.103zm-7.556 7.487v-1.109h1.751c.46 0 .875-.139 1.151-.37.323-.231.646-.693.968-1.34l9.768-20.103h1.705l10.644 21.859h2.534v1.109H205.22v-1.109h4.424l-2.488-5.268h-9.631l-1.889 3.835c-.046.046-.092.185-.092.324 0 .138-.046.323-.046.508s.138.324.323.462c.23.093.553.139.921.139h2.534v1.109h-8.846zm-18.155 0v-1.109h4.055V85.07h-4.055v-1.016h14.33v1.016h-3.916v20.334h3.916v1.109zm112.336-7.58h-3.133v.278c0 2.449-.461 4.344-2.488 5.73s-4.792 2.08-8.386 2.08a18.4 18.4 0 0 1-4.009-.416 12.1 12.1 0 0 1-3.41-1.294q-3.179-1.733-4.838-4.298c-1.106-1.71-1.705-3.604-1.705-5.73 0-1.617.415-3.142 1.198-4.621.784-1.433 1.982-2.773 3.548-3.974a16 16 0 0 1 4.378-2.357c1.566-.555 3.225-.786 4.976-.786 1.428 0 2.719.139 3.824.416a8.9 8.9 0 0 1 2.996 1.34l1.612-1.34h1.29l.231 6.516h-1.567c-.737-1.94-1.797-3.373-3.133-4.39s-2.949-1.479-4.792-1.479q-2.073 0-3.318.555c-.829.37-2.119.97-2.534 1.756-.322.6-.553 1.432-.691 2.541-.138 1.11-.184 3.282-.184 6.563 0 4.621.368 7.44 1.059 8.456.692 1.017 2.719 1.525 4.746 1.525 1.383 0 2.442-.231 3.18-.739.737-.462 1.52-1.155 1.52-2.08v-4.251h-4.101V97.87h13.731zm3.548 7.58v-1.109h2.074c.599 0 1.06-.047 1.382-.185.323-.139.737-.509 1.29-1.109l6.681-7.856-8.57-11.138h-2.857V84.1h13.777v1.017l-3.455.23 5.022 6.748 5.207-6.1s.046-.047.046-.093c.138-.139.184-.277.184-.37 0-.138-.046-.23-.23-.323a2.1 2.1 0 0 0-.645-.093h-2.719V84.1h9.63v1.017h-1.889c-.922 0-1.567.092-1.889.23-.369.14-.737.463-1.152.925l-5.852 6.7 9.676 12.755 2.857-.231v1.109h-13.639v-1.109h3.41l-6.22-8.18-5.53 6.747c-.092.139-.23.278-.276.463-.046.184-.092.323-.092.415q0 .278.276.416.276.14.83.139h2.442v1.109h-9.769zm43.359-81.657c.645-1.063.783-1.294 1.06-3.651.092-.832.23-1.479.599-2.033.414-.555 1.059-.878 2.119-.878.645 0 1.521.23 2.258.6.691.37 1.244.832 1.428 1.433.369 1.11-.092 2.495-.506 3.604 1.151.093 2.81.232 2.856.232 1.106.092 4.516-.509 7.096-1.017 1.475-.277 2.719-.508 3.133-.508.646 0 1.705.23 2.673.6s1.843.832 2.166 1.248c.138.185.23.462.322.832.092.508.138 1.248 0 1.895-.138.739-.461 1.432-1.06 1.848a3.1 3.1 0 0 1-.967.416c-.599.139-1.567.046-2.673-.046-1.382-.139-3.041-.277-4.469-.046-1.014.138-2.074.37-3.041.554-1.797.37-3.364.647-4.239.555-.968-.139-2.166.23-2.35.323-.093.046-.185.046-.277.093-.461.138-1.474.508-2.212 1.109-1.29 1.109-1.889 1.756-2.534 2.449a9 9 0 0 1 1.567-.37 89 89 0 0 1 5.759-.462 191 191 0 0 1 6.451-.277h.046c.507.046 1.198.046 2.028.046 2.396.046 5.621.093 6.404.647h.047q.76.624.967 1.248c.231.693.046 1.294-.461 1.848-.414.462-1.013.878-1.658 1.202-1.797.924-4.286 1.478-5.069 1.478-.23 0-2.027.324-3.456.694-.691.185-1.198.185-1.336.23 0 .14-.046.324-.092.51-.184 1.062-.507 2.818-.323 3.88.093.417.277.694.645.648 1.751-.324 3.779-.924 4.009-.97h.046c1.797-.648 3.963-1.48 5.944-.832a2.7 2.7 0 0 1 1.475 1.155c.23.462.322 1.017.276 1.617-.046.555-.276 1.11-.645 1.618-.599.832-1.567 1.525-2.903 1.802-.599.139-2.903.508-4.746.786-1.06.138-1.981.277-2.396.23l-1.659.37a13 13 0 0 1-.23 1.525c-.184 1.202-.369 2.265-.138 3.79.046.37.046.74 0 1.017 0 .323-.046.6.046.693l.046.046.046.046c.138.185 2.212-1.155 4.746-2.218 3.41-1.387 7.096-2.912 7.649-2.542l.138.139c.277.323.323 1.063.138 1.94a7.9 7.9 0 0 1-1.152 2.589c-.322.508-.737.97-1.244 1.432-3.317 2.865-7.05 4.899-10.966 7.07-1.797.971-3.64 1.988-5.529 3.143-1.659 1.017-3.18 1.294-4.332 1.11-.599-.093-1.152-.324-1.52-.648-.415-.323-.691-.785-.83-1.294-.138-.6 0-1.247.369-1.894.323-.555.737-1.202 1.152-1.849 1.474-2.357 3.133-4.99 3.225-6.33v-.093l.047-.093c.276-.74 1.059-3.373 1.336-5.314.138-.878.184-1.571.092-1.618 0 0-.415.093-.922.231-.414.093-.921.231-1.428.324-.184.046-.369.046-.599.046-.323 0-.645.046-1.198.139-.23.046-.645.185-1.106.37-.968.37-2.119.785-2.672.6-.968-.323-1.429-1.063-1.659-1.94-.184-.786-.184-1.664-.138-2.357 0-.278.138-.925.322-1.387.184-.416.415-.74.783-.878h.047c1.059-.416 1.244-.462 2.488-.416.783.046 2.58.046 4.008-.092.83-.093 1.521-.231 1.705-.416.092-.093.185-.277.231-.416.092-.277.138-.6.138-.693-.138-1.156-.046-1.433.184-2.45l.046-.23c0-.278.092-.601.185-.925.046-.185.092-.323.138-.462l-1.797.185c-.046 0-.092.092-.323.185-1.198.647-3.962 2.08-5.529.416a5.4 5.4 0 0 1-.875-1.387c-.185-.508-.323-1.062-.323-1.617 0-.462.138-1.063.323-1.571.23-.601.552-1.156.829-1.294.092-.046.138-.093.23-.093l-.645.185c-1.336.416-2.534.508-3.502.416-1.198-.139-2.027-.6-2.396-1.294-1.704-3.235.323-4.298 2.903-5.73.737-.416 1.521-.832 2.258-1.34l.553-.37c.369-.277.553-.37.691-.508.092-.139.23-.37.461-.786.138-.277.368-.647.645-1.155.276-.231.415-.462.553-.647m28.66 3.188c.092-1.94.23-4.02.322-5.13.046-.415.139-.785.323-1.108.138-.277.323-.462.553-.601s.553-.185.875-.185c.277.046.599.139.968.324.599.323 2.488.924 4.331 1.432 1.659.462 3.226.878 3.732.878 1.797 0 3.088-.046 4.332-.23 1.244-.186 2.442-.51 4.101-1.11 1.336-.508 4.054-.924 6.543-1.294.599-.092 1.151-.185 1.75-.277 1.475-.231 2.581.277 3.41 1.155.783.832 1.29 2.034 1.613 3.235.368 1.34.184 2.634-.323 3.836-.46 1.155-1.198 2.218-1.935 3.234s-1.06 1.294-1.659 1.849l-.322.324c-.553.508-.415 2.264-.369 2.403 0 .092.046.37.092.646.323 1.71.876 4.945.277 6.054-1.659 3.05-2.442 3.281-4.331 3.974-.599.232-1.337.463-2.258.879-.507.23-.553.6-.369 1.062.599 1.294 2.765 3.097 4.377 4.437.968.785 1.751 1.479 2.028 1.848.737 1.156 2.119 2.265 3.732 3.05 1.567.74 3.364 1.202 4.976 1.11 1.291-.047 1.429 0 2.443.415.276.139.645.278 1.059.416 1.29.508 1.244 1.294 1.244 2.31 0 1.064-.553 1.618-1.566 1.803-1.06.878-1.982 1.802-2.765 2.588-.737.74-1.382 1.386-2.073 1.94-2.12 1.664-3.917 1.803-6.82-1.94-.461-.6-.921-1.987-1.336-3.235-.184-.6-.369-1.155-.553-1.525-.691-1.71-1.336-2.542-2.119-2.726s-1.751.277-3.042 1.294l-.046.046-.092.046s-2.995 1.201-6.174 2.218c-.231.046-.507.139-.876.277-1.843.555-4.93 1.525-5.575 2.404-.184.23-1.198 1.201-2.212 2.033-.783.647-1.612 1.294-2.027 1.525a2 2 0 0 0-.415.23c-2.165 1.156-3.916 2.127-5.437-.646-.415-.786-.276-3.42-.092-4.483.138-.508.415-1.155.829-1.848.369-.647.784-1.294.784-1.618 0-3.28.184-6.608.414-9.981.323-5.684.692-11.369.046-16.96a7 7 0 0 0-.138-.786c-.092-.323-.138-.647-.23-1.571-.092-.97-.046-2.45 0-4.02m6.543 30.085c-.092.184-.092.37-.092.508 0 .23.184.37.414.508.369.185.83.231 1.383.277 1.244.047 2.672-.184 3.409-.415.553-.185 3.456-1.387 5.668-2.404 1.244-.554 2.258-.693 2.212-.831-.046-.231-.093-.416-.139-.647-.322-.97-1.059-1.71-1.889-2.172-.875-.462-1.889-.601-2.811-.462-.23.046-.414.092-.645.138l-.184.047c-3.456 1.247-6.128 2.171-7.326 5.453m-.231-12.663c.047 1.803.369 4.807.507 5.685.323-.093 1.982-1.387 3.502-2.311 1.152-.693 2.12-1.248 2.534-1.433a39 39 0 0 0 4.7-1.94c.645-.278 1.29-.601 2.028-.925h-.691c-1.429-.046-2.995-.092-4.101.046-1.475.185-2.949.324-4.47.509-1.336.138-2.672.277-4.009.37m1.337-7.994-.691 3.373v.046h.138q.414.07 1.106 0c1.244-.138 2.718-.6 3.271-.785.599-.185 3.087-.231 5.483-.278 2.166-.046 4.239-.046 4.792-.184.369-.093.738-.231 1.014-.462.184-.185.323-.416.369-.647.046-.278.092-.509.184-.694.046-.092.046-.184.046-.23 0-.093-.138.138-.599.092-.922-.047-2.488-.278-3.778-.462-1.106-.139-2.028-.278-2.304-.278h-1.06c-3.225.047-7.879 0-7.971.509m-1.014-7.21c-.184.463.276.832 1.106 1.156 2.073.785 6.036 1.017 9.722.74 3.594-.232 6.866-.925 7.603-1.895.138-.231.046-.509-.461-.878-.138-.14-.415-.232-.691-.37-1.843-.693-5.622-1.155-9.262-1.063-3.548.092-6.865.647-7.833 1.987-.092.093-.138.231-.184.324m-165.509 5.916a64 64 0 0 1-.138-1.34c-1.152.092-2.811.693-3.963.739-1.336.046-2.304.277-3.594.277-1.152.37-2.212 1.156-3.225 1.895-1.705 1.248-3.318 2.403-5.438 1.848-2.902-.785-2.81-3.003-2.626-6.1.046-.693.092-1.478.092-2.31 0-1.248.184-2.31.507-3.143.415-1.062 1.06-1.848 1.797-2.31a4.6 4.6 0 0 1 2.534-.74c.738 0 1.521.14 2.258.462 3.272 1.294 4.516 1.202 6.359 1.063a30 30 0 0 1 4.7-.046h.092a17 17 0 0 0 3.087.416 8.3 8.3 0 0 0 2.995-.416c1.106-.37 3.963-.74 7.05-1.063 4.239-.416 9.031-.74 10.597-.74.553 0 1.06.14 1.475.37a2.96 2.96 0 0 1 1.152 1.34 4.9 4.9 0 0 1 .368 1.85c0 1.108-.322 2.356-1.013 3.511-1.336 2.311-5.437 1.803-8.709 1.387-1.198-.139-2.258-.278-2.949-.231-.507.046-1.013.046-1.428.046-1.797 0-2.673 0-4.147 2.634-.599 2.08-1.751 9.89-2.166 13.355a14 14 0 0 0-.138 1.71s0 .046-.046.046c.599.093 1.152.185 1.751.231.691.093 1.382.14 2.119.14 1.198.138 3.364.138 5.391.83.692.37 1.383.463 1.751.602.553.23 1.659.277 2.765.23 1.244-.045 2.442-.23 2.949-.508.645-.323 1.567-1.525 2.35-2.587.322-.416.599-.832.875-1.156.599-.74 1.244-.832 2.028-.6.414.138 1.336.646 1.613.924.322.37.46.785.552 1.525.093.785.047 1.756-.046 2.772-.23 2.45-.875 5.269-1.751 6.47-.368.555-.599 1.294-.829 2.033-.461 1.664-1.014 3.466-3.318 4.575-1.013.463-2.119.37-3.225-.138-1.29-.555-2.534-1.571-3.364-2.542-1.704-1.987-6.082-2.773-11.058-2.865-7.05-.139-15.159 1.155-18.753 2.403-.507.74-.968 1.571-1.429 2.357-.783 1.386-1.567 2.68-2.396 3.512-1.428 1.386-3.041 1.571-5.345-.878-1.014-1.433 0-3.697.968-5.453.553-1.017.691-1.34.829-2.495 1.613-6.517 2.212-7.58 9.077-7.995 2.535-.139 5.207-.278 7.142-.555.185-.046.277-.046.323-.046.875-.139 1.935-.277 2.212-1.201 1.797-5.546 1.797-8.642 1.336-14.095m-22.486 20.24c-1.751 1.85-1.659 1.942-3.87 2.866-1.982.785-1.889.092-3.825 1.987-1.566 1.571-3.087 2.68-4.976 3.142-5.115 2.912-3.963 1.387-5.299 7.903-.415 2.125-9.077 2.726-9.077-3.882 0-5.268 1.474-9.705 5.483-10.629 0 0 1.014-.323 1.567-.231 2.995.416 3.133.416 5.713-1.294 2.028-1.34 6.082-4.159 8.248-4.159.553 0 1.244-.277 1.797-.277 1.06 0 3.686-1.063 4.147 0 .599 1.432.737 3.928.092 4.575m-7.971-7.902c-.968.278-3.963.97-4.838.97-2.258 0-3.871-.369-6.082.093-.553.139-1.429 1.11-1.89 1.34-.783.37-1.658.555-2.304 1.156s-.737 1.802-1.428 2.403c-.599.508-1.52 1.017-2.212.74-.967-.417-1.382-1.156-1.981-1.988-.276-.416.23-6.054.507-6.7.691-1.664.968-5.5 3.133-5.962 3.686-.74 7.925-.185 11.612.37 2.534 0 4.561-.093 7.095-.37 0 0 6.313-.693 6.728 1.294.461 2.264.507 3.327-1.06 4.529-2.073 1.663-4.884 1.386-7.28 2.125m4.561-10.351c-1.52-.139-7.833-3.327-7.971-3.42-1.52-.832-1.843-1.71-2.995-2.495-2.58-1.756-8.156.6-10.506-.924-.967-.648-1.105-2.912-.921-4.576.276-2.818 3.41-3.927 5.114-6.423.553-.832.277-1.664.692-2.264.599-.878 1.705-.74 2.35.277.691 1.109.046.97 1.566 1.663 1.659.786 3.825 5.223 12.764 8.92 1.474.693 2.672 1.756 3.594 3.28 1.29 2.08-2.166 6.1-3.687 5.962m263.977-6.7c-.599.323-2.719.369-5.299.415-3.64.093-8.248.185-10.69.924-.691.231-1.889.74-3.041 1.248-1.613.693-3.226 1.386-3.825 1.479-.553.046-1.013-.046-1.382-.231-.691-.324-1.106-.924-1.29-1.664a5.3 5.3 0 0 1-.092-2.264c.184-1.248.645-2.496 1.29-3.328a8.6 8.6 0 0 1 1.843-2.356c.645-.555 1.382-.97 2.212-1.017.875-.046 1.428-.046 1.889 0 .46.046.829.139 1.198.231 2.304.786 4.008.462 5.898.092 1.198-.23 2.442-.462 3.916-.462 0 0 2.12.093 2.949.601.553.323 2.074.416 3.272.508.737.047 1.382.093 1.658.185.046 0 .185.046.369.093.184.046.323.046.461.092.829.185 1.705.508 1.52 1.387-.184.831-.414 1.617-.875 2.31-.553.74-1.152 1.34-1.981 1.756m2.442 8.918a17.4 17.4 0 0 1 2.257-2.264c.692-.555 1.659-.97 2.811-1.248 1.106-.277 2.35-.416 3.594-.508 2.028-.139 3.686.046 5.575.23.369.047.784.093 1.106.14 9.17 1.155 12.994.369 16.726-.925 2.442-.832 4.931-3.004 9.031-2.495 2.443.415 2.673 1.386 2.811 3.142.046.555.046 1.155.046 1.756v.508c-1.106 5.269-2.626 5.361-6.266 5.592-.691.046-1.429.093-2.304.185-2.258.231-4.516.323-6.82.416-2.396.092-4.838.185-7.372.462-.046 0 .092 2.819.184 4.436 0 .462.046.878.046 1.063 0 1.941.093 3.928.231 5.962.092 1.987.23 2.957.23 4.713 0 .97.092.878.277 1.155.092.14.599 1.895.737 2.219.369.878.461 1.663.415 2.541v.786c0 .647-.415 1.34-.645 1.849-.415.739-1.06 1.109-1.844 1.386a6.9 6.9 0 0 1-2.396.416c-1.29 0-2.58-.324-3.271-.693-2.35-1.34-2.073-3.328-1.797-5.361.092-.647.184-1.248.184-1.895 0-1.155-.184-5.314-.184-5.36v-.047c.046-1.617.092-2.957.138-4.205.138-2.773.277-4.99-.184-8.04 0-.093-.046-.186-.046-.278-.231-.647-.783-1.063-1.521-1.248a5.3 5.3 0 0 0-2.995 0c-.737.231-1.06.74-1.382 1.294-.184.324-.369.647-.645.97a5.8 5.8 0 0 1-2.35 1.618c-1.014.416-2.12.555-3.179.555-.461 0-.784-.232-1.106-.555-.231-.231-.369-.555-.507-.786-.507-.924-.461-3.234-.415-4.76v-.785c-.092-.6.277-1.294.83-1.94m3.916-7.209s-1.935-.231-2.58-1.571c-.092-.185-.184-.37-.231-.555a4.98 4.98 0 0 1 .185-3.466c.461-1.063 1.336-1.987 2.488-2.541.23-.093.415-.185.645-.278.737-.23 1.152-.462 1.474-.6.646-.324.876-.416 2.12-.324 1.29.093 1.613.508 1.935.924.231.278.461.601 1.889.693 3.687.232 6.313-.277 8.801-.739 1.889-.37 3.686-.693 5.76-.693.322 0 .783-.046 1.29-.046.783-.047 1.797-.139 2.765-.139 2.718 0 5.529.508 5.529 3.05v.139c0 .878.046 2.634-1.843 3.188-1.198.37-1.567.324-2.028.278-.322-.046-.645-.093-1.612.138-.507.139-.968.231-1.429.37-2.119.508-4.469 1.11-6.497 1.11-1.658 0-3.317-.093-4.976-.232-1.567-.092-3.133-.185-4.7-.185-1.474.046-2.534.416-3.594.786-1.382.416-2.857.924-5.391.693m-21.794 6.747c1.244-.185 2.304-.416 2.488-.555.737-.6 2.35-1.201 4.147-1.71 2.027-.554 4.239-.924 5.483-.924 2.396 0 2.442 3.096 2.488 4.991v.647c.046 1.248-.322 2.542-.691 3.697-.184.693-.415 1.294-.461 1.802-.276 2.219-.921 4.344-1.751 6.378s-1.889 3.974-2.949 5.869c-.046.138-.138.23-.23.323-1.567 2.403-5.529 4.852-9.722 6.285-4.239 1.433-8.801 1.849-11.612.231-.138-.046-.23-.139-.322-.185-.507-.323-.738-1.432-.876-2.588-.092-1.063-.092-2.125-.092-2.634 0-.832.507-1.525 1.198-2.033.922-.693 2.166-1.155 2.719-1.202.506-.046 1.474.324 2.488.647.921.324 1.935.694 2.396.694 4.884 0 5.852-1.48 8.109-4.991l.185-.324c.507-.785.921-1.294 1.29-1.71.507-.554.875-1.016 1.428-2.264.231-.6.415-1.202.461-1.71.046-.323 0-.647-.138-.878-.092-.231-.277-.416-.599-.555-.231-.092-.507-.138-.83-.184-1.935 0-3.686.092-5.529.184l-.829.047c-1.06.046-1.797.092-2.304.23-.415.14-.691.37-.876.786a4 4 0 0 0-.23.694c-.184.6-.323 1.109-1.014 1.57-.737.555-1.843.971-2.856.971-.922 0-1.797-.323-2.396-1.063-.876-1.063-1.014-1.848-1.245-2.819-.092-.37-.138-.739-.322-1.201l-.138-.555c-.185-1.247.138-2.726.875-3.974s1.843-2.264 3.226-2.68c.184-.046.414-.093.645-.139.737-.092 1.336-.139 1.843-.046.783.092 1.29.277 1.566.416.185.092.369.277.507.416.184.185.369.416.691.462.461 0 2.212-.185 3.779-.416m-164.127-6.978c-4.147-1.802-7.649-.046-10.782 1.525-2.719 1.34-5.161 2.588-7.741 1.571q-1.036-.416-1.659-1.248c-.875-1.155-1.244-2.772-1.198-4.528 0-1.664.415-3.466.922-4.899.46-1.248 1.105-2.264 1.75-2.773 1.475-1.155 2.719-.277 4.147.74.83.6 1.705 1.201 2.673 1.386l.599.139c1.567.323 2.304.462 2.995.462.645 0 1.29-.093 2.58-.324.231-.046.507-.092.968-.184h.092c3.41-.14 6.866-.324 10.275-.509 10.414-.554 20.873-1.063 31.333-.74h.046c1.52.14 5.206.463 8.754.417 3.364-.047 6.589-.462 7.281-1.664.368-.6 1.059-.924 1.797-.97.414 0 .829.046 1.198.184.414.14.783.416 1.059.74.507.6.784 1.433.507 2.495-.184.74-.461 1.202-.691 1.618-.184.323-.369.647-.461 1.017-.046.184-.046.37-.092.554-.322 1.386-1.014 3.004-2.027 4.16-1.06 1.247-2.534 2.032-4.331 1.755-.093 0-.185-.046-.277-.046-.783-.185-1.567-.508-2.442-.878-1.244-.508-2.673-1.063-4.516-1.386-1.751-.324-5.022-.555-8.8-.555-3.087 0-6.543.092-9.723.462h-.046c-.184 0-.691 1.34-1.152 2.727-.184.6-.368 1.201-.46 1.71-.093.415-.139.785-.093 1.016 1.198.185 3.733.324 6.405.37 4.101.092 8.571.092 9.492 0 1.152-.139 1.889-.832 2.58-1.525.461-.462.876-.878 1.429-1.202q.346-.207.691-.277c.691-.185 1.428 0 2.073.324.599.323 1.152.785 1.475 1.34.138.23.23.462.276.647.692 3.003.093 4.113-.553 5.175-.322.555-.645 1.11-.645 1.988-.046 1.94-.967 4.297-1.797 6.423-.46 1.11-.875 2.172-1.105 3.096-.231.878-.139 3.05 0 5.407.23 4.16.506 8.965-1.245 9.797-2.165 1.017-4.377-.555-6.128-1.802-.829-.601-1.566-1.11-1.935-1.11-4.285 0-8.156-.23-12.026-.415-6.451-.37-12.718-.693-20.551 0-1.935.277-3.363.323-6.266 1.848-.231.185-.83.694-1.521 1.387-.691.739-2.396.97-3.087 1.063-.368.046-.737.046-1.106-.093a2.15 2.15 0 0 1-.921-.555c-.553-.508-.922-1.293-1.06-2.356-.461-2.773-.829-11.6-.599-18.531.138-4.344.737-8.041 2.166-9.197.645-.508 1.658-.924 2.672-1.062.968-.14 1.889-.047 2.442.416.783.646 1.152.924 1.475 1.016.276.093.599.093 1.198.046h.829c.138 0 .507 0 1.014.047 1.474.046 4.055-.278 4.101-.463.046-.37.092-.785.138-1.155.322-2.403.461-3.373-2.396-4.621m10.091 12.2-1.106 2.542c-1.106 2.68-2.673 4.575-4.285 5.822-1.982 1.572-4.193 2.172-5.99 2.08-2.396-.139-4.147-1.571-5.345-2.542.138 1.11.368 2.773.414 3.928.093 2.218.553 2.773 1.982 2.727.645 0 1.566-.139 2.672-.324.323-.046.691-.092 1.152-.185 4.654-.647 13.04-.739 21.795-.878 4.976-.046 10.091-.092 14.744-.277.645 0 .784-2.126.876-4.067.046-1.109.138-2.125.322-2.865.231-.785.369-1.247.507-1.663.323-1.063.415-1.248.323-3.651 0-.185.046-.462.092-.832.092-.785.276-1.94-.046-2.08-.277-.138-1.383-.138-2.673-.138-1.935 0-4.193.092-4.976.185-1.29.138-2.626.185-3.871.185-1.889.046-3.547.046-4.469.508-.599.277-.783.832-.276 1.94.184.417.506.971.829 1.341.322.323.645.554 1.014.508 2.672-.323 4.054-1.34 4.93-1.94.276-.185.507-.37.691-.463.645-.323 1.336-.508 2.027-.508.553 0 1.06.139 1.475.416s.737.74.875 1.386c.139.555.093 1.248-.184 2.126-.092.324-.184.6-.322.924-.922 1.987-2.719 3.79-4.793 4.899-2.119 1.109-4.561 1.57-6.727.924-.276-.093-.553-.185-.829-.324-6.773-2.91-5.944-6.793-5.483-9.103.138-.647.23-1.11.184-1.156-.691-.323-1.705-.323-2.719-.138-1.013.138-2.027.462-2.81.693m-14.376 3.004c2.949-.093 6.497-1.063 7.003-2.496.093-.277.093-.416.046-.416-.276-.092-.875-.046-1.474.047-.23.046-.461.046-.645.092-1.106.092-2.442.046-3.732 0-1.751-.092-2.489-.092-2.857.277-.83.74-1.152 1.294-1.106 1.664.046.277.415.508.968.693.691.139.737.139 1.797.139m13.5-10.028a44 44 0 0 0 4.792-.093c1.383-.092 2.581-.185 2.857-.37.092-.092.184-.184.277-.323.552-.74.737-1.94.737-3.004 0-1.063-.185-1.94-.369-2.172-.875-.6-2.304-.74-3.824-.693-1.475.046-2.995.324-4.055.509-.599 1.108-.507 4.436-.415 6.146" fill="#332c2b"/></svg>