<svg width="548" height="128" fill="none" xmlns="http://www.w3.org/2000/svg"><path d="M57.254 60.883c2.726-4.074 5.995-.302 6.307-4.058h-2.253c-2.256 0-4.945 4.135-5.86 5.861 1.615-.376 2.118-.9 4.058-.9 3.405 0 5.486 1.35 7.206 1.35h.45c2.79 0 5.2-1.533 5.41-4.057-.716.377-2.033 1.353-2.705 1.353h-.45l-7.193-1.006c-1.122-.077-3.928 1.213-4.97 1.457M14 64.49v.902c0 13.968 7.15 26.077 14.528 32.803 9.157 8.343 17.25 13.188 34.582 13.188 19.279 0 38.697-15.485 43.776-33.43 2.071-7.326 2.353-18.228.204-25.585-1.126-3.872-2.881-8.023-3.875-9.976-2.332-4.574-5.373-8.294-8.907-11.83-4.24-4.245-12.925-10.044-21.458-12.377-6.472-1.769-15.776-1.802-22.32-.29-9.709 2.243-18.637 9.092-23.803 14.245C19.753 39.1 14 50.647 14 64.489m32.44-26.603c0-4.133 3.06-7.663 6.756-7.663h1.806c2.876 0 3.427.9 6.306.9s3.427-.9 6.307-.9h2.252c2.584 0 6.311 3.293 6.311 5.861v2.255c0 3.892-1.579 5.2-2.257 8.115 2.338-1.565 6.328-5.41 9.913-5.41 4.042 0 7.572 3.787 7.66 8.115.125 6.02 4.053 8.955 4.053 11.724v3.156c0 6.897-7.145 6.312-13.966 6.312 1.5 2.052 8.112 4.367 8.112 9.02v1.802c0 6.154-5.128 6.268-8.835 8.743-3.671 2.45-4.996 6.913-10.54 7.035.95-3.558 3.155-4.794 3.155-10.818v-4.51c0-7.582-7.051-17.583-14.417-17.583H56.35c-1.771 0-2.997.23-4.054.9 6.285 0 10.36 5.225 10.36 11.272v4.51c0 5.467-6.782 15.78-11.713 15.78h-.447c-3.306 0-5.713-3.99-7.775-5.748-2.653-2.258-6.002-2.715-8.35-5.17-8.152-8.529 5.573-13.582 7.102-15.775l-6.298.542c-3.988.4-8.56-3.399-8.56-7.215 0-5.123 2.983-6.626 4.091-12.135.848-4.204 1.552-9.956 6.721-9.956h2.253c3.573 0 7.188 4.336 9.461 5.861-.6-2.58-2.703-5.263-2.703-9.02" fill="#be3338"/><path d="M488.933 36.564c3.113-1.927 5.954-4.304 7.213-7.07h5.215c-.467 5.707-7.215 9.752-12.428 10.976zm-52.842.772c0-3.108 2.965-1.52 3.108-7.842h5.441v3.136h10.876v3.924h-12.434c-2.599 0-2.442 2.846-6.991 3.916zm69.155-2.353v-4.704h27.974v4.704zM218.507 66.347c-8.32-1.956-13.212-12.114-13.212-22.737h5.442c0 9.85 7.77 18.292 7.77 19.601zm-45.074-3.136c0-1.696 6.998-8.355 6.998-19.601h6.217v3.135c0 7.81-7.049 18.153-13.215 19.602zm243.224-8.628c0-1.587 6.221-7.789 6.221-19.6h6.215v3.92c0 7.46-6.139 18.124-12.437 19.604zm72.276-7.382c4.006-1.62 6.484-4.799 9.776-8.298h4.986c-.9 3.381-3.468 5.68-3.885 7.058v21.955h-6.219v-18.82l-4.549 1.872zM192.859 63.21V38.903h6.223v23.526c0 2.64-.912 5.487-3.887 5.487h-8.547v-4.705zm-19.426-24.308c.292-.878 5.268-1.39 5.443-9.409h6.215v2.354h33.416v10.194h-5.444V35.77h-29.201c-1.734 3.614-6.675 5.387-10.429 6.273zm262.658 6.273v-3.92h19.425v3.92h-7.77v6.273h7.77v3.92h-7.77v7.842h7.77v4.705H444.64c-2.394 0-3.115-2.298-3.115-4.705v-7.055h-5.434v-4.707h5.434v-6.273zm68.383-1.567v-4.706h29.525v4.706h-4.666v18.033c0 3.985-.257 6.274-4.655 6.274h-6.998V63.21h5.442v-19.6zM141.576 31.061v-1.567h5.442v1.567h18.647v3.922H129.14v20.386c0 6.97-2.073 12.004-8.541 12.547V63.21c1.644-.602 3.107-1.81 3.107-3.92V31.06zm-3.862 8.595 1.625-3.073 6.122-.03-1.975 3.103 22.179.033v3.92h-24.3l-4.455 7.84h10.885v-4.704h5.436v4.704h12.434v3.92h-12.434v3.922h12.434v3.92H154.01v4.705h-6.215V63.21h-17.098v-3.92h17.098v-3.92h-17.098v-3.134l4.664-8.626h-4.664v-3.92zm318.581 24.34V30.28h24.862v18.815h-11.656c1.013 2.235 2.207 4.166 3.733 5.568 1.872-.968 2.589-3.136 3.38-4.783h4.543c-1.418 3.466-3.304 5.726-5.969 7.832 1.888 2.32 3.881 4.12 5.969 5.498v4.705c-13.396-7.516-14.756-13.119-18.649-18.82V63.21h6.993v4.705h-9.321c-1.816 0-3.885-2.09-3.885-3.92m6.213-19.06h13.212V41.8h-13.212zm.002-7.6h13.212V34.2H462.51zm-66.049 15.68v-23.52h6.213v33.717h6.99V29.494h6.223v34.502h12.434v3.92h-44.296v-3.92h12.436V59.29c-7.359-1.98-12.437-12.17-12.437-21.955v-2.353h5.437v3.92c0 4.838 3.368 13.136 7 14.113m-97.916-21.168v-2.354h5.442v2.354h20.204v4.706h-19.425v3.135h17.09v22.74c0 1.832-1.291 3.133-3.107 3.133h-8.547v-3.92h3.885c1.79 0 2.334-.546 2.334-2.35V44.393h-12.434v23.522h-5.442V44.394H286.89v21.953h-6.221V39.69h17.876v-3.135h-20.204v-4.707zm52.842 0v-2.354h5.436v2.354h19.432v3.921h-9.327l-.937 3.877 9.489.043v25.09c0 1.833-1.294 3.137-3.11 3.137h-8.547V63.21h-20.984V52.236h-4.664v15.68h-6.213V39.69h10.098l-1.757-3.823-9.12-.097v-3.921zm-4.82 3.959.962 3.877 10.85.005c2.463 0 2.654-1.93 3.108-3.92zm-8.392 7.802v4.707c3.532-.832 5.278-1.15 6.219-4.707zm24.665.109 1.963 3.701 3.682.11v4.707h-3.114V63.21h3.885v-19.6zm-11.812.214-5.071 6.744 14.753-.011c-1.369-2.066-3.094-6.733-5.439-6.733zm-2.747 15.36h10.878v-4.709h-10.878zM227.833 32.63v-3.136h5.436v2.354h10.883v-2.354h5.436v2.354h1.557v4.706h-1.557v6.269h-8.547v3.138h9.326v7.841c0 3.572-1.12 4.705-4.664 4.705h-3.885v2.35h9.327v2.355c1.967-.531 3.884-1.515 3.884-3.92V36.553h-3.105v-4.707h3.105v-2.353h5.442v3.136h10.877v31.365c0 1.83-2.074 3.92-3.884 3.92h-5.442v-3.92c2.492-.056 3.885.256 3.885-2.352v-25.09h-5.436v21.954c0 6.405-3.752 9.409-10.104 9.409v-2.354h-9.326v2.354h-4.659v-2.354h-10.883v-4.706h10.883v-2.349h-8.549V45.961h8.549v-2.352h-8.549v-7.055h-1.554V32.63zm4.658 21.953h3.891v-4.702h-3.891zm.778-14.95h10.909V36.96h-10.909zm8.549 14.95h3.107v-4.702h-3.107zM531.413 98.39h-2.801l-4.966-7.895-1.728 1.95v5.945h-2.48V82.507h2.48v6.872l6.155-6.872h2.91l-5.719 6.222zm-17.434 0h-2.693l-5.935-11.514h-.113V98.39h-2.481V82.507h2.695l5.935 11.518h.111V82.507h2.481zm-20.242-6.69-1.726-5.662h-.216l-1.728 5.662zm4.643 6.689h-2.592l-1.512-4.921h-4.746l-1.504 4.92h-2.594l5.395-16.065h2.158zm-19.705-4.74c0-.991-.374-1.681-1.132-2.086q-1.131-.602-2.538-.603h-2.8v5.661h2.479c1.295 0 2.285-.214 2.964-.65.684-.433 1.027-1.203 1.027-2.322m-.431-7.055c0-.807-.264-1.391-.808-1.766-.545-.373-1.201-.556-1.992-.556h-3.239v4.92h3.13c.785 0 1.474-.198 2.05-.603q.86-.6.859-1.995m3.026 7.056q0 2.696-1.728 3.717-1.728 1.023-4.421 1.022h-5.397V82.507h5.611q2.695 0 4.041 1.212 1.35 1.204 1.35 2.876c0 1.11-.306 1.938-.918 2.461q-.921.789-1.887 1.069a5.16 5.16 0 0 1 2.324 1.16c.676.586 1.024 1.374 1.024 2.365zm-27.841 4.739h-11.223V82.507h2.482v14.115h8.741zM432.972 91.7l-1.728-5.662h-.214l-1.727 5.662zm4.643 6.689h-2.594l-1.511-4.921h-4.745l-1.508 4.92h-2.592l5.397-16.065h2.156zm-24.34 0V82.507h2.477V98.39zm-9.236-6.314c-.078 2.352-.653 4.027-1.728 5.014-1.077.992-2.38 1.49-3.883 1.49-1.728 0-3.203-.61-4.43-1.817-1.215-1.204-1.827-3.141-1.827-5.802 0-2.912.592-5.075 1.777-6.505 1.182-1.42 2.719-2.132 4.584-2.132q2.384 0 3.937 1.533c1.05 1.022 1.531 2.459 1.461 4.319h-2.373q0-2.048-.759-3.068c-.499-.682-1.258-1.022-2.266-1.022q-1.723 0-2.751 1.53-1.022 1.539-1.023 5.16.001 3.338 1.023 4.688c.685.896 1.571 1.344 2.646 1.344.789 0 1.504-.325 2.157-.973q.974-.975.973-3.76zm-19.491-5.019q.001-1.295-.917-2.039-.916-.745-2.961-.745h-2.378v5.479h3.025q1.297-.002 2.263-.602c.647-.405.968-1.1.968-2.093m3.029 11.333h-2.593l-3.885-6.876h-2.807v6.876h-2.481V82.507h5.398c1.727 0 3.123.36 4.206 1.072 1.075.707 1.619 1.871 1.619 3.478q0 1.863-1.083 2.88a4.9 4.9 0 0 1-2.477 1.302zm-17.01 0h-11.004V82.507h10.469v1.766h-7.986v4.92h7.339v1.768h-7.339v5.661h8.521zm-16.466 0h-2.157V87.057h-.215l-2.587 11.333h-1.727l-2.586-11.333h-.214V98.39h-2.166V82.507h3.348L348.169 93h.214l2.378-10.493h3.34zm-16.572 0h-2.157V87.057h-.21L332.57 98.39h-1.73l-2.586-11.333h-.215V98.39h-2.156V82.507h3.346L331.596 93h.22l2.372-10.493h3.34zM318.476 90.4q0-3.9-.968-5.106c-.645-.802-1.437-1.21-2.372-1.21s-1.745.408-2.429 1.21q-1.026 1.207-1.025 5.107-.001 3.9 1.025 5.157 1.026 1.25 2.429 1.249 1.403.001 2.372-1.249.968-1.258.968-5.157m2.592 0c0 2.913-.526 5.002-1.562 6.269-1.049 1.27-2.504 1.909-4.37 1.909-1.874 0-3.346-.638-4.424-1.909-1.078-1.267-1.624-3.356-1.624-6.269 0-2.91.546-4.985 1.624-6.22 1.078-1.242 2.55-1.858 4.424-1.858 1.866 0 3.321.616 4.37 1.858 1.036 1.235 1.562 3.31 1.562 6.22m-16.464 1.675c-.076 2.352-.652 4.027-1.727 5.014-1.077.992-2.374 1.49-3.883 1.49-1.728 0-3.203-.61-4.43-1.817-1.215-1.204-1.829-3.141-1.829-5.802 0-2.912.596-5.075 1.778-6.505 1.188-1.42 2.721-2.132 4.587-2.132q2.381 0 3.934 1.533c1.05 1.022 1.532 2.459 1.462 4.319h-2.373q0-2.048-.757-3.068-.75-1.023-2.266-1.022c-1.151 0-2.062.51-2.752 1.53q-1.026 1.539-1.027 5.16.001 3.338 1.027 4.688c.69.896 1.568 1.344 2.645 1.344q1.185 0 2.156-.973.975-.975.974-3.76zm-27.406-9.569-5.071 8.731v7.152h-2.478v-7.151l-5.076-8.732h2.485l3.773 6.78h.113l3.777-6.78zm-17.325 1.766h-4.32V98.39h-2.479V84.273h-4.315v-1.766h11.115zM236.499 98.39V82.507h2.481V98.39zm-9.234-6.314c-.068 2.352-.645 4.027-1.727 5.014q-1.616 1.489-3.884 1.49c-1.728 0-3.202-.61-4.422-1.817-1.221-1.204-1.835-3.141-1.835-5.802 0-2.912.594-5.075 1.785-6.505 1.182-1.42 2.715-2.132 4.586-2.132q2.37 0 3.934 1.533c1.043 1.022 1.524 2.459 1.456 4.319h-2.374q-.001-2.048-.751-3.068-.758-1.023-2.265-1.022-1.726 0-2.759 1.53c-.676 1.027-1.025 2.745-1.025 5.16 0 2.225.349 3.788 1.025 4.688q1.033 1.344 2.644 1.344 1.188 0 2.157-.973.976-.975.974-3.76zm-31.824-.375-1.729-5.662h-.215l-1.727 5.662zm4.636 6.689h-2.587l-1.513-4.921h-4.751l-1.505 4.92h-2.593l5.396-16.065h2.156zm-17.327 0h-11.221V82.507h2.48v14.115h8.741zm-19.167-11.333q0-1.295-.91-2.039c-.615-.497-1.601-.745-2.968-.745h-2.373v5.479h3.018c.868 0 1.62-.203 2.264-.602.653-.405.969-1.1.969-2.093m3.03 11.333h-2.594l-3.884-6.876h-2.803v6.876h-2.485V82.507h5.397c1.726 0 3.124.36 4.206 1.072 1.081.707 1.62 1.871 1.62 3.478 0 1.242-.363 2.202-1.077 2.88a4.95 4.95 0 0 1-2.484 1.302zm-19.381-7.99q0-3.9-.974-5.106c-.639-.802-1.435-1.21-2.367-1.21-.943 0-1.745.408-2.436 1.21q-1.015 1.207-1.017 5.107.002 3.9 1.017 5.157c.691.834 1.493 1.249 2.436 1.249.932 0 1.728-.415 2.367-1.249q.975-1.258.974-5.157m2.594 0c0 2.913-.528 5.002-1.572 6.269-1.042 1.27-2.497 1.909-4.363 1.909-1.879 0-3.348-.638-4.427-1.909-1.083-1.267-1.618-3.356-1.618-6.269 0-2.91.535-4.985 1.618-6.22 1.079-1.242 2.548-1.858 4.427-1.858 1.866 0 3.321.616 4.363 1.858 1.044 1.235 1.572 3.31 1.572 6.22m-16.15 7.989h-2.801l-4.961-7.895-1.728 1.95v5.945h-2.479V82.507h2.479v6.872l6.149-6.872h2.916l-5.724 6.222z" fill="#131211"/></svg>