<svg width="128" height="128" fill="none" xmlns="http://www.w3.org/2000/svg"><path fill-rule="evenodd" clip-rule="evenodd" d="M64.193 65.917 27.736 76.324c1.046 4.108-.584 9.597 1.784 12.919 2.466 3.485 8.479 3.517 11.872 6.058 3.409 2.55 5.28 8.381 9.386 9.738 3.99 1.337 8.932-2.184 13.365-2.198 4.287-.004 9.073 3.568 12.948 2.304 4.072-1.324 5.943-7.13 9.343-9.62 3.417-2.501 9.43-2.475 11.936-5.921 2.502-3.449.741-9.27 2.066-13.437z" fill="#c00415"/><path fill-rule="evenodd" clip-rule="evenodd" d="M61.725 55.473c.496-.209.809-.668.864-1.161l1.106-29.175c-1.753-.061-3.583-.68-5.395-1.294-2.536-.858-5.039-1.705-7.25-.992-2.36.78-3.983 3.06-5.594 5.323-1.151 1.617-2.295 3.224-3.697 4.266l18.418 22.742a1.39 1.39 0 0 0 1.548.291m-3.928 1.458c.207.39.242.866.045 1.3a1.42 1.42 0 0 1-1.317.852l-28.8-7.303c.538-1.738.55-3.756.563-5.766.017-2.81.035-5.607 1.489-7.604 1.445-1.995 4.057-2.832 6.666-3.667 1.713-.549 3.424-1.096 4.8-1.971zm-2.444 4.906c.481.24.813.74.813 1.317 0 .591-.348 1.103-.87 1.327L27.583 75.794c-.533-1.618-1.666-3.167-2.812-4.733-1.62-2.214-3.264-4.462-3.27-6.987-.008-2.646 1.68-4.998 3.339-7.312 1.05-1.464 2.09-2.913 2.68-4.41zm17.296 0c-.48.24-.81.74-.81 1.317 0 .591.353 1.103.864 1.327l27.715 11.313c.535-1.616 1.667-3.163 2.811-4.726 1.622-2.217 3.268-4.466 3.271-6.994.007-2.647-1.679-5-3.337-7.314-1.049-1.463-2.086-2.911-2.678-4.409zm-2.494-3.606a1.47 1.47 0 0 1 .048-1.3l16.553-24.16c1.378.876 3.089 1.423 4.802 1.972 2.61.835 5.222 1.671 6.67 3.667s1.466 4.786 1.486 7.593c.014 2.014.029 4.036.571 5.777l-28.81 7.303a1.44 1.44 0 0 1-1.32-.852m-4.743-3.92c.06.494.372.953.87 1.162.534.24 1.146.106 1.542-.291L86.252 32.44c-1.41-1.044-2.558-2.657-3.712-4.278-1.608-2.258-3.228-4.533-5.584-5.311-2.207-.712-4.708.133-7.245.991-1.815.614-3.648 1.234-5.405 1.295z" fill="url(#paint0_radial_63_13048)"/><defs><radialGradient id="paint0_radial_63_13048" cx="0" cy="0" r="1" gradientUnits="userSpaceOnUse" gradientTransform="matrix(0 41.4051 -66.1419 0 64 62.343)"><stop stop-color="#ffe500"/><stop offset=".414" stop-color="#ffe500"/><stop offset="1" stop-color="#f18200"/></radialGradient></defs></svg>