<svg width="128" height="128" fill="none" xmlns="http://www.w3.org/2000/svg"><path d="M103.971 41.486c0-10.581-8.578-19.16-19.16-19.16s-19.16 8.578-19.16 19.16 8.578 19.16 19.16 19.16 19.16-8.578 19.16-19.16" fill="url(#paint0_radial_63_12550)"/><path d="M94.493 42.422c.81-1.406-.029-2.493-.029-2.493s-1.267-2.194-1.758-3.078c-.82-1.47.444-2.394.444-2.394h-3.623c-1.082 0-1.898 1.13-1.321 2.181.28.516 4.807 8.348 4.807 8.348zm-6.373 0c.812-1.406-.027-2.493-.027-2.493s-1.268-2.194-1.761-3.078c-.82-1.47.444-2.394.444-2.394h-3.62c-1.082 0-1.9 1.13-1.323 2.181.28.516 4.807 8.348 4.807 8.348zm-11.56-4.796a.88.88 0 0 1-1.19-.354.878.878 0 1 1 1.191.355m10.293 11.929s-7.11-12.159-8.119-13.89c-.705-1.208-1.92-1.208-1.92-1.208h-5.84c-.172 0-.359.275-.087.364 1.671.553 2.158 1.742 3.105 3.365.459.785 7.213 12.377 7.213 12.377s1.739 3.42 4.463 3.42c1.578 0 3.28-1.048 3.666-3.199-1.642.29-2.48-1.23-2.48-1.23m8.965-15.117c-1.078 0-1.895 1.13-1.319 2.18.104.194.809 1.398 1.646 2.826l2.891-5.006z" fill="#fff"/><path d="m82.32 64.099-16.606 16.58.012 27.321c23.444-.921 42.176-20.226 42.194-43.87z" fill="url(#paint1_linear_63_12550)"/><path d="M20 63.945c.049 23.662 18.706 43.008 42.198 43.937l-.003-27.352-16.58-16.597 16.596-16.58L62.208 20C38.771 20.991 20.042 40.25 20 63.945" fill="url(#paint2_linear_63_12550)"/><path d="M39.356 46.329c.01 6.66 2.24 13.016 6.347 17.658L62.3 47.378l-.013-27.268c-12.944 1.703-22.947 12.81-22.93 26.219" fill="url(#paint3_linear_63_12550)"/><path d="m65.756 80.636.031 27.25c12.912-1.747 22.895-12.791 22.932-26.19-.013-6.683-2.277-13.04-6.334-17.661z" fill="url(#paint4_linear_63_12550)"/><defs><linearGradient id="paint1_linear_63_12550" x1="106.394" y1="62.578" x2="71.875" y2="104.06" gradientUnits="userSpaceOnUse"><stop stop-color="#e94721"/><stop offset=".47" stop-color="#bc1320"/><stop offset="1" stop-color="#711419"/></linearGradient><linearGradient id="paint2_linear_63_12550" x1="25.842" y1="20.07" x2="57.462" y2="111.16" gradientUnits="userSpaceOnUse"><stop stop-color="#e94721"/><stop offset=".47" stop-color="#bd2721"/><stop offset="1" stop-color="#711419"/></linearGradient><linearGradient id="paint3_linear_63_12550" x1="60.627" y1="19.625" x2="42.641" y2="60.818" gradientUnits="userSpaceOnUse"><stop stop-color="#ca3a1c"/><stop offset=".88" stop-color="#70080d"/><stop offset="1" stop-color="#70080d"/></linearGradient><linearGradient id="paint4_linear_63_12550" x1="69.293" y1="109.188" x2="85.256" y2="62.459" gradientUnits="userSpaceOnUse"><stop stop-color="#ca3a1c"/><stop offset=".88" stop-color="#70080d"/><stop offset="1" stop-color="#70080d"/></linearGradient><radialGradient id="paint0_radial_63_12550" cx="0" cy="0" r="1" gradientUnits="userSpaceOnUse" gradientTransform="rotate(48.106 2.39 103.157)scale(29.3417)"><stop stop-color="#ffe740"/><stop offset=".89" stop-color="#eb6100"/><stop offset="1" stop-color="#eb6100"/></radialGradient></defs></svg>