<svg width="419" height="128" fill="none" xmlns="http://www.w3.org/2000/svg"><g clip-path="url(#clip0_63_12471)"><path d="M368.031 17.793h34.403v7.235h-34.403zm37.088 19.852h-39.607v7.235h22.551v22.386a4.285 4.285 0 0 1-4.286 4.285h-8.378l1.597 7.008h12.26a8.34 8.34 0 0 0 8.34-8.338V44.88h7.523zm-40.816-17.131-7.468-6.364a70.2 70.2 0 0 1-16.543 17.955l4.193 6.022a70.2 70.2 0 0 0 19.818-17.613m-5.963 9.923-.154.141a70.2 70.2 0 0 1-19.346 20.327l-.008.01 4.124 5.647a70 70 0 0 0 6.064-3.823v25.88h9.533V44.67a70 70 0 0 0 6.844-8.046zM180.343 19.294v-4.156h-8.823v4.156h-18.807v-4.156h-8.823v4.156h-13.567v6.366h13.567v4.696h8.823V25.66h18.807v4.696h8.823V25.66h13.567v-6.366z" fill="#312a28"/><path d="m185.411 45.142-8.019-3.774-.018.027a76 76 0 0 1-5.045 10.174h-5.835V39.811h24.318v-6.366h-24.318V28.92h-8.823v4.525h-24.319v6.366h24.319v11.758h-5.836a76 76 0 0 1-5.045-10.174l-.017-.027-8.019 3.774a76 76 0 0 0 3.389 6.427h-11.44v6.366h19.013a53 53 0 0 1-18.445 14.307l.033.045.032-.057 5.333 6.514a65.2 65.2 0 0 0 21.002-19.158v19.086h8.823V59.586a65.2 65.2 0 0 0 21.001 19.158l5.333-6.514.032.057.034-.045a53 53 0 0 1-18.445-14.307h19.012v-6.366h-11.439a76 76 0 0 0 3.389-6.427m54.69-12.962h-15.305a54.5 54.5 0 0 1-3.542-6.52h22.39a55 55 0 0 1-3.543 6.52m13.03 15.894a60.4 60.4 0 0 0-11.065-8.919l-5.432 5.676.012.022a55 55 0 0 1 6.517 3.886h-21.429a55 55 0 0 1 6.516-3.886l.013-.022-5.432-5.676a60.4 60.4 0 0 0-11.066 8.919v-9.529h41.366zM238.04 62.626h-11.184v-7.804h11.184zm25.217-36.966v-6.365h-25.758l-.975-4.157h-10.061l.975 4.157h-25.799v6.365h9.824a55 55 0 0 0 3.313 6.52h-11.833v46.498h8.822V52.97l2.26 2.197.009-.005a55 55 0 0 1 3.999-3.627V68.71h28.83V51.535a55 55 0 0 1 4 3.627l.01.005 2.258-2.197v16.863c0 1.4-1.135 2.535-2.535 2.535h-8.49l1.827 6.364h11.946a6.073 6.073 0 0 0 6.074-6.073V32.18h-11.832a55 55 0 0 0 3.313-6.52zm42.292 10.024h17.434v4.717c0 1.4-1.135 2.533-2.535 2.533h-14.899zm17.434-6.083h-17.434v-6.454h17.434zm.604 32.85a59 59 0 0 0 9.076-5.104l-4.307-6.153a59 59 0 0 1-8.506 5.56 51 51 0 0 1-3.438-7.454h9.32a6.073 6.073 0 0 0 6.074-6.074V16.781h-35.081v62.523a58.6 58.6 0 0 0 17.521-4.53l-1.289-5.66a59 59 0 0 1-7.408 2.02V49.3h3.476c2.978 12.088 9.936 22.604 19.404 30.09l6.171-6.146.01-.01a51.5 51.5 0 0 1-11.023-10.783m-30.224 6.819a60 60 0 0 1-6.612 1.756V55.295h7.394V48.93h-7.394v-7.544h6.535v-6.365H275.37a59 59 0 0 0 4.456-5.612h14.319v-6.365h-10.433a59 59 0 0 0 2.429-5.205L278.498 14l-.027.026a58.9 58.9 0 0 1-10.322 18.406l4.411 5.537a58 58 0 0 0 1.704-1.742v5.16h3.663v7.543h-7.274v6.365h7.274v23.907a58.6 58.6 0 0 0 16.637-4.168l-1.209-5.753zM135.649 91.384h-4.946v22.068h15.909v-4.08h-10.963zm20.694 13.538 2.93-8.098h.063l2.835 8.098zm.473-13.538-8.537 22.068h5.009l1.763-4.914h8.412l1.701 4.914h5.135l-8.411-22.068zm21.696 0h-4.945v22.068h4.945zm16.416 9.106c-5.639-1.42-6.71-1.637-6.71-3.337 0-1.854 1.826-2.503 3.401-2.503 2.363 0 4.284.68 4.442 3.338h4.788c0-5.1-4.315-7.11-9.01-7.11-4.062 0-8.41 2.164-8.41 6.677 0 4.142 3.371 5.409 6.709 6.274 3.309.867 6.679 1.266 6.679 3.648 0 2.256-2.646 2.751-4.379 2.751-2.645 0-4.977-1.144-4.977-4.082h-4.789c-.062 5.441 4.6 7.854 9.578 7.854 6.11 0 9.356-3.032 9.356-7.081 0-5.006-5.041-6.026-6.678-6.429m24.933-.637h-9.104v-8.469h-4.946v22.069h4.946v-9.519h9.104v9.519h4.946V91.384h-4.946zm16.142 5.069 2.93-8.098h.063l2.834 8.098zm.473-13.538-8.537 22.068h5.008l1.764-4.914h8.412l1.701 4.914h5.135l-8.411-22.068zm31.117 14.805h-.064l-9.386-14.805h-4.915v22.068h4.631V98.677h.063l9.356 14.775h4.946V91.384h-4.631zm20.715-4.647v3.617h4.977c-.282 3.06-2.141 4.759-5.354 4.759-4.443 0-6.112-3.708-6.112-7.388 0-3.862 1.669-7.572 6.112-7.572 2.33 0 4.19 1.266 4.756 3.71h4.726c-.535-5.007-4.883-7.79-9.482-7.79-6.963 0-11.058 5.1-11.058 11.652 0 6.368 4.095 11.469 11.058 11.469 1.846 0 3.758-.612 5.354-2.139v1.613h4.474v-11.931zm34.966 8.139h-5.292v-6.057h5.387c2.11 0 3.56.896 3.56 3.152 0 2.287-1.701 2.905-3.655 2.905m-5.292-14.527h4.632c1.762 0 3.4.433 3.4 2.535 0 1.854-1.291 2.626-3.023 2.626h-5.009zm9.766 6.306c1.953-.929 3.055-2.441 3.055-4.606 0-4.11-2.899-5.47-7.182-5.47h-10.585v22.068h10.9c4.064 0 7.939-1.915 7.939-6.398 0-2.75-1.386-4.822-4.127-5.594m14.342 3.462 2.931-8.098h.062l2.836 8.098zm.473-13.538-8.536 22.068h5.007l1.765-4.914h8.411l1.701 4.914h5.136l-8.412-22.068zm31.118 14.805h-.063l-9.388-14.805h-4.915v22.068h4.632V98.677h.063l9.356 14.775h4.946V91.384h-4.631zm21.287-6.088 8.789-8.717h-6.176l-8.788 9.149v-9.149h-4.947v22.069h4.947v-7.11l2.834-2.811 6.774 9.921h6.207z" fill="#312a28"/><path d="M105.626 39.497c0-11.546-9.36-20.907-20.907-20.907s-20.907 9.36-20.907 20.907 9.36 20.907 20.907 20.907c11.546 0 20.907-9.36 20.907-20.907" fill="url(#paint0_radial_63_12471)"/><path d="M95.283 40.519c.884-1.535-.031-2.721-.031-2.721s-1.383-2.395-1.919-3.358c-.894-1.605.485-2.612.485-2.612h-3.954c-1.18 0-2.07 1.232-1.441 2.379.306.563 5.245 9.109 5.245 9.109zm-6.953 0c.886-1.535-.03-2.721-.03-2.721s-1.383-2.395-1.922-3.358c-.894-1.605.486-2.612.486-2.612h-3.952c-1.179 0-2.073 1.232-1.442 2.379.306.563 5.246 9.109 5.246 9.109zm-12.614-5.234a.96.96 0 0 1-1.3-.387.958.958 0 1 1 1.3.387m11.231 13.016s-7.758-13.267-8.859-15.156c-.77-1.318-2.096-1.318-2.096-1.318H69.62c-.188 0-.392.3-.096.397 1.824.603 2.355 1.9 3.388 3.672.501.856 7.872 13.505 7.872 13.505s1.896 3.731 4.869 3.731c1.721 0 3.58-1.142 4-3.49-1.791.316-2.707-1.341-2.707-1.341m9.787-16.494c-1.176 0-2.068 1.232-1.44 2.379.114.211.883 1.525 1.796 3.083l3.156-5.462z" fill="#fff"/><path d="M82 64.17 63.88 82.264l.014 29.811c25.58-1.005 46.021-22.07 46.041-47.87z" fill="url(#paint1_linear_63_12471)"/><path d="M14 64.003c.053 25.82 20.411 46.929 46.045 47.943L60.04 82.1 41.95 63.99l18.11-18.092-.004-29.846C34.482 17.134 14.046 38.149 14 64.003" fill="url(#paint2_linear_63_12471)"/><path d="M35.12 44.781c.011 7.267 2.444 14.203 6.925 19.269l18.112-18.124-.014-29.754C46.016 18.03 35.102 30.15 35.12 44.782" fill="url(#paint3_linear_63_12471)"/><path d="m63.927 82.216.034 29.735c14.09-1.906 24.982-13.958 25.023-28.577-.014-7.294-2.485-14.23-6.912-19.273z" fill="url(#paint4_linear_63_12471)"/></g><defs><linearGradient id="paint1_linear_63_12471" x1="108.27" y1="62.512" x2="70.603" y2="107.775" gradientUnits="userSpaceOnUse"><stop stop-color="#e94721"/><stop offset=".47" stop-color="#bc1320"/><stop offset="1" stop-color="#711419"/></linearGradient><linearGradient id="paint2_linear_63_12471" x1="20.374" y1="16.128" x2="54.877" y2="115.522" gradientUnits="userSpaceOnUse"><stop stop-color="#e94721"/><stop offset=".47" stop-color="#bd2721"/><stop offset="1" stop-color="#711419"/></linearGradient><linearGradient id="paint3_linear_63_12471" x1="58.331" y1="15.643" x2="38.705" y2="60.592" gradientUnits="userSpaceOnUse"><stop stop-color="#ca3a1c"/><stop offset=".88" stop-color="#70080d"/><stop offset="1" stop-color="#70080d"/></linearGradient><linearGradient id="paint4_linear_63_12471" x1="67.787" y1="113.371" x2="85.205" y2="62.382" gradientUnits="userSpaceOnUse"><stop stop-color="#ca3a1c"/><stop offset=".88" stop-color="#70080d"/><stop offset="1" stop-color="#70080d"/></linearGradient><radialGradient id="paint0_radial_63_12471" cx="0" cy="0" r="1" gradientUnits="userSpaceOnUse" gradientTransform="rotate(48.106 5.16 100.911)scale(32.0166)"><stop stop-color="#ffe740"/><stop offset=".89" stop-color="#eb6100"/><stop offset="1" stop-color="#eb6100"/></radialGradient><clipPath id="clip0_63_12471"><path fill="#fff" d="M0 0h419v128H0z"/></clipPath></defs></svg>