<svg width="128" height="128" fill="none" xmlns="http://www.w3.org/2000/svg"><path d="M61.95 63.85c-.05.05-.05.1-.1.15-.05-.05-.05-.1-.1-.1-.3.1-.55.45-.65.95s-.3 1-.4 1.5c-.1.45-.1.95-.25 1.6-.55-.6-1.2-1.15-1.65-1.8-.9-1.3-1.55-2.65-1.75-4.3-.2-1.45-1.25-2.3-2.55-2.9-.75-.35-.75-.4-.3-1.1 1.55-2.15 3.55-3.6 6.1-4.3 2.3-.6 4.6-.5 6.75.8 1.45.9 2.55 2.1 3.65 3.35.8.95 1.65 1.9 2.65 2.7.6.5 1.4.75 2.15.9 1.6.35 3.2.4 4.75.8 1.1.3 1.9 1.15 2.35 2.3.2.55.05.95-.3 1.35-.75.75-1.55 1.45-2.3 2.2-.8.8-1.55 1.65-2.3 2.45-.65.7-1.3 1.4-2 2.05-.2.2-.65.3-.9.15-1.5-.75-3.1-1.45-4.45-2.45s-2.2-2.4-1.65-4.3c.15-.45.15-.95 0-1.4a.85.85 0 0 0-.4-.45c-.1-.05-.2-.1-.3-.1-.25 0-.7.3-.75.55-.25 1.2-.4 2.45-.55 3.7-.1.75.25 1.35.7 1.9l.3.45c-1 .1-2.35-1.05-2.4-2.1-.05-.75.05-1.55.1-2.35.05-.45.2-.95.2-1.4 0-.25-.3-.7-.45-.7-.3 0-.75.25-.8.5-.3 1.05-.55 2.1-.65 3.15-.05.75.25 1.55.35 2.3-.95-.05-2.1-1.65-1.85-2.5.2-.75.35-1.5.5-2.25.1-.5.1-1-.55-1.2-.1-.1-.15-.1-.2-.1m6.55-1.9c-.15-.2-.3-.35-.5-.4s-.45.05-.6.2-.2.4-.2.6c0 .15.1.3.25.45-.05-.25.05-.5.2-.7s.4-.3.6-.25c.15 0 .2.05.25.1m-5.9.4c.05-.45-.3-.75-.75-.75-.2 0-.4.05-.55.2s-.2.35-.15.55v.05l.15-.3c.15-.2.35-.3.55-.25.35 0 .6.2.75.5m3.05 0c-.05-.3-.4-.7-.7-.75-.25-.05-.6.35-.9.55v.3c.05.05.1.05.15.1.3-.25.65-.7.9-.65.2.05.4.25.55.45m31-1.35H89.9c-.45 0-.8-.1-.95-.55-.1-.15-.2-.3-.3-.4-1.4-1.35-2.8-2.65-4.2-4-.9-.85-1.7-1.8-2.6-2.7-1.25-1.25-2.55-2.45-3.85-3.7-1.05-1-2.1-2-3.1-3.05-.9-.9-1.75-1.9-2.7-2.8-1.2-1.2-2.55-2.3-3.65-3.55-.85-1-1.85-1.7-3.1-2-2.05-.45-3.7.15-5.1 1.7-.75.85-1.65 1.6-2.45 2.4-1.35 1.4-2.7 2.8-4.1 4.15-.8.8-1.65 1.55-2.45 2.35-1.3 1.3-2.55 2.65-3.85 3.95-.85.85-1.75 1.6-2.55 2.45-1.25 1.25-2.45 2.55-3.7 3.8-.55.6-1.1 1.2-1.7 1.7-1.4 1.25-1.6 3.55-1.05 5 .45 1.2 1.4 2.05 2.3 2.95.95.95 1.9 1.85 2.85 2.8l5.5 5.35c.9.9 1.75 1.8 2.65 2.65 2.1 2.05 4.15 4.15 6.25 6.2.9.9 1.8 1.85 2.75 2.7 1.3 1.25 2.9 1.45 4.6 1.15 1.15-.2 2-.85 2.8-1.65 6.7-6.7 13.45-13.35 20.1-20.1.9-.9 1.75-1.2 2.95-1.15 4.05.05 8.15 0 12.2 0 2.65 0 3.35.9 3.05 3.4-.2 1.85-.6 3.65-1.15 5.4-.7 2.25-1.55 4.45-2.5 6.6-.65 1.5-1.55 2.9-2.45 4.25-1.15 1.75-2.4 3.4-3.65 5.05-.8 1-1.8 1.9-2.75 2.85-.9.85-1.75 1.7-2.7 2.5-1.8 1.45-3.7 2.85-5.75 3.95-1.95 1-3.9 2-5.95 2.85-1.6.7-3.2 1.2-4.9 1.6-3.35.7-6.7 1.3-10.15 1.3-2.85 0-5.65-.3-8.45-.8-2.25-.4-4.45-.95-6.55-1.8-1.5-.6-3-1.2-4.5-1.85-.5-.25-1-.5-1.45-.8-1.85-1.2-3.7-2.35-5.45-3.65-1.5-1.1-2.9-2.25-4.2-3.55-1.3-1.35-2.45-2.85-3.65-4.3-.9-1.1-1.7-2.3-2.5-3.45-.5-.75-.85-1.5-1.3-2.3-1.8-3.25-3.15-6.75-3.9-10.4-1.15-5.45-1.4-10.9-.4-16.4.5-2.8 1.25-5.55 2.3-8.2.7-1.85 1.65-3.65 2.65-5.35.95-1.65 2-3.25 3.15-4.75 1.1-1.5 2.25-2.95 3.55-4.3s2.75-2.45 4.15-3.6c1.15-.95 2.35-1.9 3.65-2.7 1.35-.85 2.8-1.5 4.2-2.3 2.2-1.15 4.5-2.1 6.85-2.7 5.9-1.6 11.9-2.25 17.95-1.2 3.15.55 6.25 1.25 9.25 2.45 2.25.9 4.4 1.85 6.45 3.15 1.5 1 3.05 2 4.5 3.1 1.45 1.15 2.9 2.35 4.25 3.6.8.75 1.45 1.65 2.1 2.5.9 1.1 1.85 2.2 2.65 3.4 1.15 1.85 2.35 3.7 3.25 5.65 1.35 2.9 2.4 5.9 3.1 9.05.2.95.35 1.9.4 2.9.1 1.85-1.1 3.15-3 3.2zm-47.25.85c1.2.15 2.25.65 3.1 1.5.9.85 1.8 1.7 2.6 2.65.75.85 1.4 1.8 2.05 2.7.4.55.85 1.15 1.25 1.75.85 1.4 2 2.55 3.55 3.05.9.3 1.9.5 2.85.55 1.3.05 2.55-.05 3.85-.1s2.5 0 3.65.7c.4.25.45.45.1.8-.9.9-1.7 1.85-2.55 2.8-.9.95-1.8 1.9-2.65 2.85-.4.45-.85.85-1.3 1.25-.75.6-1.7.6-2.4 0-1.1-.9-2.15-1.9-3.2-2.85-.85-.75-1.7-1.55-2.5-2.35-.7-.7-1.4-1.5-2.1-2.2l-2.55-2.55c-.75-.75-1.45-1.5-2.15-2.25-.85-.9-1.7-1.75-2.5-2.65-.75-.8-1.45-1.6-2.2-2.4-.2-.25-.45-.55-.7-.75-.35-.3-.3-.55 0-.9.65-1 2.7-1.6 3.8-1.6" fill="#da251c"/></svg>