<svg width="597" height="128" fill="none" xmlns="http://www.w3.org/2000/svg"><path d="M61.612 63.802c-.056.055-.056.11-.111.166-.056-.055-.056-.11-.111-.11-.334.11-.611.554-.778 1.11-.111.61-.389 1.166-.5 1.777-.11.555-.11 1.11-.333 1.888-.555-.778-1.333-1.389-1.888-2.166-1.055-1.5-1.832-3.165-2.054-5.053-.223-1.666-1.5-2.721-2.999-3.388-.889-.388-.889-.444-.333-1.277 1.777-2.554 4.164-4.275 7.163-5.053 2.721-.722 5.386-.555 7.94.944 1.722 1.055 3 2.444 4.276 3.943.945 1.11 1.944 2.22 3.11 3.165.666.555 1.666.888 2.555 1.055 1.832.389 3.775.444 5.608.944 1.277.333 2.277 1.333 2.776 2.72.222.667.056 1.112-.388 1.556-.889.888-1.833 1.721-2.721 2.61-.944.944-1.833 1.943-2.721 2.887-.778.833-1.5 1.666-2.332 2.388-.222.222-.778.333-1.055.166-1.777-.888-3.665-1.72-5.276-2.887-1.61-1.166-2.61-2.832-1.943-5.053.166-.555.166-1.11 0-1.61-.056-.167-.278-.39-.5-.556a1 1 0 0 0-.389-.11c-.333 0-.833.388-.888.666-.278 1.443-.444 2.887-.611 4.33-.111.89.278 1.555.777 2.222l.334.5c-1.167.11-2.721-1.222-2.832-2.5-.056-.888.055-1.832.166-2.776.056-.555.222-1.11.222-1.665 0-.334-.388-.833-.555-.833-.333 0-.889.277-.944.555-.333 1.222-.666 2.443-.722 3.72-.055.889.278 1.833.444 2.666-1.11-.056-2.443-1.944-2.165-2.943.222-.833.388-1.722.61-2.61.112-.611.112-1.222-.666-1.388zm7.718-2.222c-.166-.222-.389-.388-.555-.444-.278-.055-.5.056-.666.222a.82.82 0 0 0-.223.722c0 .167.167.333.278.5-.055-.278.056-.61.222-.833a.72.72 0 0 1 .722-.278.4.4 0 0 1 .222.111m-6.996.445c.055-.5-.334-.889-.834-.889-.222 0-.5.056-.666.278a1.07 1.07 0 0 0-.222.666v.111c.056-.11.111-.277.167-.333a.87.87 0 0 1 .666-.333c.444-.056.777.166.889.5m3.609.055c-.056-.389-.5-.833-.778-.888-.277-.056-.666.388-1.055.666v.389c.056.055.112.11.167.11.389-.277.777-.832 1.11-.777.167-.055.39.223.556.5m36.483-1.61h-7.941c-.5 0-.889-.111-1.11-.611-.112-.167-.223-.333-.39-.5a388 388 0 0 1-4.942-4.72c-1.055-1-1.999-2.11-3.054-3.165l-4.498-4.331a220 220 0 0 1-3.609-3.554c-1.055-1.055-2.055-2.221-3.165-3.276-1.444-1.389-2.999-2.666-4.331-4.165-1-1.166-2.166-1.999-3.665-2.332q-3.582-.75-5.997 1.999c-.889 1-1.944 1.832-2.832 2.832-1.61 1.61-3.166 3.276-4.832 4.886-.943.944-1.943 1.833-2.887 2.777-1.5 1.5-2.999 3.11-4.498 4.609-1 1-2.054 1.888-2.998 2.887-1.444 1.444-2.888 2.999-4.332 4.443-.666.666-1.332 1.388-1.999 1.999-1.61 1.444-1.888 4.22-1.221 5.886.555 1.444 1.666 2.443 2.665 3.443 1.11 1.11 2.221 2.22 3.332 3.276l6.497 6.33c1.055 1.055 2.054 2.11 3.11 3.165 2.443 2.444 4.886 4.887 7.385 7.275 1.055 1.055 2.165 2.165 3.276 3.22 1.555 1.444 3.387 1.722 5.442 1.389 1.388-.222 2.332-1 3.276-1.944 7.885-7.885 15.826-15.715 23.6-23.6 1.055-1.055 2.055-1.388 3.443-1.388 4.775.055 9.551 0 14.326 0 3.165 0 3.943 1.055 3.554 3.998a36.4 36.4 0 0 1-1.388 6.386c-.833 2.61-1.777 5.22-2.943 7.718-.778 1.777-1.833 3.443-2.888 4.998-1.332 2.055-2.776 3.998-4.331 5.942-.944 1.221-2.11 2.276-3.22 3.332-1.056.999-2.11 1.999-3.221 2.887-2.11 1.721-4.332 3.332-6.775 4.609-2.277 1.166-4.609 2.388-6.996 3.387-1.833.778-3.776 1.444-5.776 1.888-3.942.833-7.885 1.555-11.938 1.555-3.332 0-6.664-.333-9.94-.944-2.666-.5-5.22-1.111-7.719-2.11l-5.33-2.166a12 12 0 0 1-1.666-.944c-2.166-1.443-4.332-2.776-6.442-4.331a50 50 0 0 1-4.942-4.165c-1.555-1.555-2.887-3.332-4.276-5.053-1.055-1.333-1.999-2.665-2.943-4.053-.555-.833-1-1.777-1.499-2.666a45.8 45.8 0 0 1-4.609-12.216c-1.333-6.386-1.61-12.828-.5-19.324.556-3.277 1.5-6.497 2.666-9.607.833-2.166 1.943-4.276 3.11-6.33a54 54 0 0 1 3.664-5.609c1.277-1.777 2.666-3.498 4.165-5.053s3.22-2.887 4.887-4.276c1.388-1.11 2.776-2.221 4.275-3.165 1.61-1 3.332-1.777 4.942-2.665a37 37 0 0 1 8.219-3.332c6.94-1.888 13.993-2.61 21.156-1.388 3.72.666 7.33 1.443 10.884 2.887 2.61 1.055 5.22 2.166 7.552 3.72 1.777 1.167 3.554 2.333 5.275 3.666a73 73 0 0 1 4.998 4.275c.944.889 1.721 1.944 2.499 2.943 1.055 1.333 2.165 2.61 3.109 4.054 1.389 2.166 2.721 4.331 3.832 6.608a47.8 47.8 0 0 1 3.609 10.606c.223 1.11.389 2.221.445 3.387.166 2.166-1.278 3.72-3.499 3.776-2.721-.055-5.386-.055-8.051-.055m-55.64.944a6.2 6.2 0 0 1 3.664 1.777c1.055 1 2.11 1.999 3.054 3.11.889.999 1.61 2.11 2.444 3.165.5.666 1 1.332 1.443 2.054 1 1.666 2.333 2.999 4.165 3.554 1.11.333 2.221.555 3.332.61 1.5.056 2.998-.055 4.498-.11 1.499-.056 2.943 0 4.275.833.5.277.556.5.111.944-1.055 1.055-1.999 2.165-2.998 3.276-1.055 1.11-2.11 2.277-3.165 3.387-.444.5-1 1-1.5 1.444-.888.666-1.943.666-2.831 0-1.278-1.055-2.555-2.221-3.776-3.332-1-.888-2-1.832-2.944-2.776-.833-.833-1.61-1.777-2.443-2.61l-2.998-2.999c-.833-.888-1.666-1.777-2.555-2.665-1-1.055-1.999-2.055-2.943-3.11-.888-.944-1.721-1.888-2.61-2.832-.277-.333-.555-.61-.833-.888-.444-.389-.388-.611-.055-1.055 1-1 3.387-1.722 4.664-1.777" fill="#da251c"/><path d="M164.949 46.7h-5.941v13.326c0 4.22.055 7.22.222 9.052v.388c.333 3.998-2.61 6.497-8.829 7.441-1.999.167-3.11-.388-3.277-1.61-.777-3.11-2.609-4.942-5.608-5.553-1.555-.444-2.166-.944-1.888-1.388-.167-.611.555-.944 2.11-.944 5.886.61 8.552-1.166 7.885-5.331V46.699h-10.606l-.222.445c-.111.11-.222.277-.389.5l-.111.221c-.166.334-.555.833-1.166 1.61-.944.778-1.777.945-2.554.445a36 36 0 0 1-2.332-1.388c-1.555-.778-2.499-1.388-2.777-1.833q-1.416-.916 0-2.332c.944-.61 1.499-1.555 1.61-2.776l2.333-9.496c.333-1.221.611-3.11.944-5.553.111-.555.222-.944.222-1.277v-.111c0-1.555.722-2.11 2.11-1.61h.444c2.777.721 4.887 1.443 6.275 2.22l.222.112c.611.333.944.722.944 1.166q10.495-1.916 20.49-6.33c1.555-.944 2.888-.778 3.943.444.944.777 2.61 2.72 5.109 5.775l.222.333c.222.278.388.5.5.61q.5.668 0 1.167c-.334.333-.778.389-1.389.222-.611-.278-1.721-.444-3.276-.444l-.999.11c-6.719.556-15.438.667-26.21.39-.333.333-.444.722-.444 1.166l-3.277 14.382h10.495v-2.332c0-4.665-.222-7.83-.722-9.496-.333-.944-.333-1.444 0-1.61.167-.333.722-.444 1.611-.444 4.053.444 7.052 1.055 9.051 1.832.777.167 1.222.555 1.388 1.166 0 .61-.333 1.166-.944 1.61q-1.166.916-1.166 1.833v7.44h7.441l.389-.61c2.554-3.776 4.22-5.664 4.942-5.664 2.332.944 4.942 3.11 7.885 6.497.444.444.722.944.722 1.388-.167.333-.555.444-1.166.444l-.778-.055c-2.276-.111-6.774-.167-13.438-.167m-24.099 4.108q3.581 1.167 7.663 3.832c.944.944.777 1.721-.5 2.388-.778 0-1.666.5-2.61 1.444-4.998 6.774-11.495 11.772-19.602 14.937-.611.166-1.055.055-1.221-.222q-.25-.5.499-1.166 8.33-8.08 13.161-19.99c.277-1.278 1.166-1.667 2.61-1.222m28.819 17.437c-1.777-5.609-5.053-10.495-9.884-14.716-.5-.444-.666-.777-.5-.944.278-.277.722-.388 1.278-.277l.166.055q12.744 2.832 17.825 10.495c1.944 4.054 1.111 6.83-2.388 8.385q-4.83 1.916-6.497-2.998m66.08 5.164v-4.443h-29.153v.445c0 .166-.444.944-1.388 2.332q-.916 1.333-2.166 1l-.499-.167c-1.111-.333-2.777-1-5.054-2-.444-.166-.777-.332-.944-.443-1.11-.611-1.166-1.5-.222-2.555.611-.777.944-1.777.944-2.998V43.645c0-4.331-.222-7.44-.722-9.329-.333-1.555.334-2.165 1.888-1.888h.334c1.332.056 3.442.334 6.219.833l1.61.333c.944.167 1.388.556 1.388 1.166.167.611-.166 1.167-.944 1.61-.333.334-.444 1-.444 2.111v28.598h9.829v-35.04c0-1.11-.222-3.331-.722-6.719l-.055-.555c-.112-1.11-.167-1.943-.167-2.443-.333-1.555.222-2.221 1.61-2.11 3.277.444 6.386 1 9.329 1.61 1.666.778 1.833 1.666.611 2.666l-.111.11c-.611.445-.944 1.167-.944 2.11V67.19h9.829v-23.6c-.056-3.72-.278-6.553-.722-8.552-.444-1.721.166-2.388 1.888-2.11 3.554.333 6.275.778 8.163 1.388 1.554.611 1.776 1.555.721 2.777 0 .11-.055.222-.166.388l-.111.111c-.333.334-.556.778-.722 1.389v13.493c0 1.777.166 5.054.389 9.774l.111 2.665c.111 2.665.166 4.664.166 5.942.333 1.999-.555 3.387-2.554 4.164-.444.167-1.111.333-1.888.444-.777.112-1.499.334-2.11.445-2.11.388-3.221-.5-3.221-2.5m29.875-18.103v-6.83c0-2.832-.056-5.608-.222-8.274-.333-1.388.333-1.943 1.832-1.666l.5.167c1.61.5 4.331 1.388 8.052 2.665l.222.223c0 .166.055.222.222.222h6.053v-8.44h-12.772c-4.054 0-6.997.221-8.829.721-.611 0-1-.222-1.166-.722l-.111-.11c-.167-.223-.445-.556-.833-1.056l.111.111c.166.167.111 0-.333-.555-.167-.333-.167-.555 0-.722 0-.166.166-.166.444 0 4.664.444 8.829.722 12.549.722h33.096l.388-.61c2-3.222 3.388-4.887 4.276-5.054 2.166.944 4.498 2.776 6.997 5.442.444.61.722 1.166.722 1.666-.167.333-.611.444-1.388.444h-1c-1.61 0-3.998-.111-7.163-.222h-13.716c.167.944-.055 1.555-.722 1.888-.611.166-.944.722-.944 1.666v4.942h7.441l.333-.444c1.5-1.888 2.555-2.832 3.11-2.832 3.554 1.277 6.441 3.054 8.607 5.441.333.778 0 1.333-.944 1.666-1.111.778-1.61 1.389-1.61 1.888v2.721c0 .445.055 1.666.222 3.554l.333 5.164c.111 1.777.166 3.11.166 3.887.334 3.166-.721 5.165-2.998 6.109-2.166 1.11-4.665 1.888-7.441 2.332-1.555.166-2.499-.444-2.776-1.888-.334-2.832-1.777-4.498-4.387-4.942v.833c0 1.332.111 3.11.222 5.33v3.277c.166 1.555-.555 2.61-2.11 3.054h-.445c-2.776.444-4.942.722-6.496.722-1.222 0-1.777-.889-1.611-2.61l.056-.889c.444-4.942.722-11.55.833-19.88v-10.66h-6.275c0 .166-.056.221-.222.221-.611.334-.944.889-.944 1.666v20.268c.166 1.389-.556 2.277-2.11 2.61-.944.334-2.555.722-4.887 1.166-1.999.167-2.887-.722-2.554-2.61v-2.832l.055-1.665c.111-2.943.167-5.387.167-7.275M299.663 44.7h-7.496v18.603c5.775.333 8.218-1.055 7.496-4.054zm-17.214-17.936v-.444c-.444-2.443-1.055-4.387-1.777-5.886-.277-.444-.388-.777-.222-.889.167-.11.5-.222 1.111-.222 5.83.167 9.384 2.055 10.55 5.664.445 3.055-.888 4.998-4.053 5.887s-5.054-.445-5.609-4.11m68.856-.888q-.416-3.332-2.165-5.164l-.167-.223c-.333-.333-.444-.61-.444-.944.167-.166.444-.222.944-.222 5.497-.333 8.774.833 9.884 3.499q1.167 2.832-1.166 5.164h12.716l.611-.944c1.999-3.165 3.387-4.776 4.109-4.942 2.221.61 4.776 2.554 7.774 5.886.611 1.277.389 1.944-.722 2.11-4.386-.333-9.551-.444-15.492-.444h-3.054c1.277.61 2.665 1.277 4.22 1.888 1.277 1.11 1.166 1.943-.222 2.554q-1.417.25-2.332 1.166c-1.555 1.722-3.443 3.388-5.664 4.942h7.274l.278-.5c1.11-1.998 2.054-3.109 2.776-3.22q3.332.5 7.496 3.498c1.278 1.11 1.389 2.11.445 3.054-.778.445-1.166 1.278-1.166 2.333v14.326l.111 3.332c.055 2.665.111 4.553.111 5.83.444 3.665-.333 5.942-2.388 6.942l-.167.11c-1.721.778-3.942 1.667-6.608 2.555-1.721.444-2.832-.056-3.276-1.666-.777-2.832-2.665-4.442-5.664-4.942-.777-.166-1.166-.444-1.166-.944 0-.444.555-.722 1.666-.722 6.275.444 9.107-.944 8.44-4.22V51.697c-.166.777-.61 1.333-1.388 1.666-.611.444-1.166.722-1.666.722.445.61.333 1.166-.444 1.666-.611.444-.944.944-.944 1.388v1.61c0 3.332.111 5.497.222 6.608 0 1.277-.555 2.11-1.666 2.555a15.6 15.6 0 0 1-4.72.721c-.944.167-1.388-.444-1.388-1.888V65.08h-5.386v1.889c0 1.11-.444 1.72-1.388 1.888-.334 0-1 .166-2.111.444l-.499.055c-.833.111-1.444.278-1.833.389-1.555.166-2.221-.555-1.888-2.11v-3.499l.056-.721c.111-1.278.166-2.277.166-3.055v-1.832c0-1.721-.055-3.22-.222-4.442-.333.166-.944.388-1.888.722l-.833.333c-.388.166-.777.277-1.055.388v9.83l.111 2.609c.111 2.554.111 4.498.111 5.83.333 1.555-.388 2.555-2.11 3.055-1.388.444-2.998.833-4.72 1.166-2.054.333-2.887-.778-2.61-3.276.334-6.109.445-11.94.445-17.603V45.367a53 53 0 0 0-.445-6.775c-.166-.944-.055-1.555.222-1.888q.5-.5 1.666 0c2.055.167 4.554.833 7.497 2.11.611.333.999.778 1.166 1.388h4.442c-.944-.61-1.499-1.721-1.666-3.276 0-2.499-.888-4.609-2.61-6.33l-.111-.333c-.111-.278-.111-.5-.111-.611h-6.608c-2.221 0-4.053.222-5.664.722-.333.166-.721-.056-1.166-.722-.166-.167-.333-.444-.444-.944l-.722-.722c-.166-.333-.166-.555 0-.722h.444l.389.056c1.944.277 5.164.5 9.718.666h15.77c-.389-.777-.777-1.444-1.111-2.11m17.103 16.27h-28.542v.222a3.3 3.3 0 0 0-.222 1.166v8.94q4.665-5.08 6.331-8.496c.444-1.221 1.166-1.443 2.11-.666l.777.389c2.388 1.221 4.165 2.332 5.331 3.276 1.111.944.833 1.666-.722 2.277-.777 0-1.721.333-2.832.944l-1.388.666-.389.278c-.444.277-.777.5-.999.61 1.221.167 2.332.445 3.276.944.444 0 .777.167.944.445h3.998c.944-1.666 1.777-2.5 2.554-2.5.611-.166 1.389 0 2.333.445l-.223-.222c-1.554-2.443-3.72-4.442-6.552-5.942-.444-.333-.722-.61-.722-.944.167-.277.5-.444 1-.444h.166c6.108-.166 10.273.833 12.661 2.999q.666.666 1.166 1.832v-6.22zm-16.936-7.108c.611 2.277-.055 4.054-2.055 5.442h7.219v-.222c.778-2.888 1.277-5.997 1.555-9.496v-.444h-13.549c3.943 1.055 6.219 2.61 6.83 4.72m5.053 19.824h-5.053v7.608h5.053zm42.48-.278c.167-6.774-.888-13.271-3.054-19.546q-.25-.916 0-1.166c.167-.167.555-.056 1.166.222 5.775 4.387 9.551 9.718 11.273 16.048V31.984c0-4.22-.223-7.44-.722-9.662-.445-1.721.166-2.443 1.888-2.11l1.443.166c3.166.39 5.609.833 7.275 1.222 1.721.61 2.054 1.555.944 2.832-1.111.61-1.666 1.277-1.666 1.888v44.312h4.442V32.206c0-3.443-.166-6.663-.444-9.662-.333-.944-.333-1.555 0-1.888.167-.333.722-.389 1.666-.222 3.776.333 6.663.777 8.718 1.388 1.721.611 2.054 1.555.944 2.832-.944.611-1.388 1.277-1.388 1.888V58.36a122 122 0 0 0 4.72-24.266q0-1.666 1.666-1.166a39.6 39.6 0 0 1 9.606 4.22c.611.333.944.889.944 1.666-.167.611-.5.889-1.055.944h-.111c-.944 0-1.666.444-2.11 1.388-3.443 8.496-7.996 15.715-13.605 21.657v7.774h4.22l.389-.611c2.443-3.498 4.109-5.275 4.998-5.275 2.054.166 4.775 2.054 8.218 5.664.777 1.388.444 2.276-.944 2.61l-3.276-.111c-5.942-.222-10.606-.334-14.105-.334H402.17c-3.276.167-6.275.445-8.94.944-.444.167-.888-.055-1.166-.721a23 23 0 0 1-1.388-2.11c-.167-.334-.167-.556 0-.722h.444l.666.055c2.444.278 6.553.5 12.272.61h4.443v-12.66c-.944 2.055-2.499 3.22-4.72 3.554-3.221.111-4.776-2.166-4.776-6.885m67.524-36.094c3.276.445 6.219 1.167 8.829 2.11.611.167.944.445.944.944q-.25.834-1 1.333l-.166.111c-.611.334-1.111.944-1.389 1.888-.444 1.722-.999 3.499-1.61 5.387h3.498l.334-.556c1.554-2.443 2.832-3.776 3.831-4.109.944.167 2.554 1.333 4.887 3.499 0-2.666-.167-4.832-.445-6.553-.166-1.555.556-2.166 2.111-1.888 3.109.944 5.83 1.888 8.107 2.777h7.441l.333-.445c1.499-1.999 2.499-3.054 2.887-3.054q3.249.25 6.997 3.499c1.222.944 1.333 1.943.222 3.054-.444.333-.777.833-.944 1.61v7.774c0 1.5.167 4.609.444 9.273 0 1.389-.444 2.333-1.388 2.777a29.2 29.2 0 0 1 4.887 3.943c.444.444.555.944.222 1.388-.167.444-.555.61-1.166.444-.333 0-.833.167-1.611.444-.333.167-.555.222-.721.222a53 53 0 0 1-7.663 3.499c2.609 3.276 6.608 6.052 11.827 8.385q1.416.916 1.166 1.166.25.5-1.166 1.166c-2.332 1.555-3.776 3.554-4.387 6.052-.444.945-1.166 1.111-2.11.445-3.72-2.943-6.608-6.22-8.607-9.829a274 274 0 0 1-10.939 9.329.5.5 0 0 0-.444.222c-.611.444-1.111.944-1.388 1.388-.944 1.222-1.833 1.389-2.777.445a44 44 0 0 1-3.72-6.053c-.611-1.222-.222-2.11 1.166-2.555 1.11-.444 1.61-1.332 1.61-2.554V53.085h-9.273v10.717c2.332-.777 4.387-1.61 6.275-2.554 1.11-.444 1.777-.444 2.11 0 .611.444.388 1.166-.722 2.11l-.333.333a27 27 0 0 0-1.777 2l-3.887 4.053c-1.444 1.5-2.555 2.665-3.332 3.443-.833.833-1.499 1.666-1.944 2.499l-.166.277q-1.416 2.832-2.999 1.166l-1.388-1.388-.555-.5c-1.277-1.166-2.166-2.054-2.721-2.776-1.388-1.388-1.333-2.555.222-3.499 1.999-1.221 2.943-3.276 2.776-6.052v-9.829h-2.11c-1.11 0-2.221.167-3.498.444-.333.167-.611.056-.944-.222l-.944-.944c-.167-.333-.333-.555-.444-.722 0-.444.166-.721.444-.721 2.499.333 4.664.444 6.497.444h.944v-9.718h-1.166a33.5 33.5 0 0 1-5.553 6.053c-.611.777-1 1.11-1.166.944-.167-.167-.111-.611.166-1.444l.056-.166c3.276-9.94 5.053-18.825 5.331-26.599.111-1.61.721-2.221 1.999-1.944m6.052 14.327a38 38 0 0 1-4.275 7.608h8.051l.333-.5c1.722-2.332 2.832-3.443 3.443-3.332 1.277 0 3.221 1.222 5.942 3.61v-7.386zm21.99 3.387V44.7h9.329v-8.496zm0 29.653 2.776-.722.722-.167c1.388-.388 2.444-.61 3.276-.722q-3.498-7.08-3.498-17.824h-3.276zm9.329-39.815h-7.941c-.888 0-1.388.39-1.388 1.111v6.553h9.329zm-18.658 16.104h-9.329v9.329q2.082-3.832 3.498-4.331c1.555.277 3.499 1.499 5.831 3.609zm21.046 7.774c-1.888.444-2.777 0-2.61-1.333v-2.22h-4.054q.916 4.246 3.832 9.328 2.165-2.666 3.831-5.997zm14.16-5.608c-.056 0-.112-.056-.167-.056l.111.056zm26.709-.445s-.167-.11-.444-.277c-.444-.611-.833-1.167-1.166-1.61-.167-.334-.222-.556-.222-.667h.444c1.832.333 4.276.444 7.219.444h19.324l.611-.777c1.943-2.555 3.165-3.832 3.609-3.832 1.388.444 3.276 2 5.553 4.61q.666.832.5 1.332l-.056.055c-.166.445-.555.611-1.166.445-2.943 0-5.497-.056-7.663-.223.333.445.056.945-.722 1.389-.777.333-1.166.833-1.166 1.61v11.772c0 4.942.167 9.163.444 12.717.167 2.776-.611 4.497-2.332 5.108a.5.5 0 0 0-.444.222c-2.499.778-4.498 1.222-6.053 1.389-1.832.444-2.943 0-3.276-1.389q-.25-3.498-4.165-4.83c-1.388-.612-1.943-1.167-1.61-1.611q-.25-.666 2.332-.666c4.331.61 6.33-.556 6.053-3.443V43.423h-10.44c-1.388 0-2.887.167-4.442.444-.222.111-.389.111-.611.111zm-5.775-13.493.278.11c1.166.5 2.998 1.5 5.608 2.944l.389.278c.277.166.555.333.777.444.778.444 1.166.944 1.166 1.388-.166.444-.61.888-1.388 1.166-1.11.167-1.943.722-2.61 1.666-.333.333-.722.777-1.166 1.388l-.111.222c-.333.5-.999 1.277-1.999 2.388h.444l.222.222c1.389.611 1.666 1.388.722 2.332-.944.334-1.332 1-1.166 2.11v20.269l.056.833c.111 1.665.166 2.998.166 4.109.333 2.22-.388 3.61-2.11 4.22-1.277.444-2.832.777-4.72.944q-1.915.5-2.332 0c-.444-.333-.611-1.11-.444-2.332l.111-1.333c.277-4.11.388-7.608.388-10.44v-12.66a45.3 45.3 0 0 1-7.552 4.942c-.444.333-.777.333-.944 0-.166-.167-.055-.444.223-.944 6.108-6.608 10.828-14.271 14.104-23.1.278-1.055.944-1.444 1.888-1.166m-.666-10.94 1.388.944a109 109 0 0 1 5.053 3.776c.611.611.889 1.278.722 1.888-.167.445-.555.667-1.277.722h-.167c-.944 0-1.832.334-2.61.944q-8.579 6.83-17.825 11.828c-.499.167-.777.167-.944 0q0-.5.5-1.166c5.886-5.664 10.218-11.717 13.05-18.214.444-.833 1.166-1.055 2.11-.722m-15.16 8.774-.166-.055.111.055zm25.488.222-.111-.055c-.055-.056-.167-.111-.278-.167-.444-.444-.777-.833-.944-1.277-.166-.278-.166-.5 0-.61 0-.168.167-.168.445 0 2.054.277 4.331.443 6.83.443h11.772q2.832-3.998 3.998-3.998c1.388.444 3.387 1.777 5.886 3.998.444.556.611 1 .444 1.277-.166.278-.61.445-1.388.445h-3.776c-2.443-.111-4.609-.222-6.552-.222h-11.106c-1.722 0-3.221.166-4.498.444-.056-.111-.333-.167-.722-.278" fill="#000"/><path d="M129.967 84.46h447.955v3.498H129.967z" fill="#da251c"/><path d="M145.238 93.79v14.493h10.661v-1.888h-8.385V93.79zm14.66 0v14.493h10.661v-1.888h-8.496v-4.609h7.663v-1.888h-7.663v-4.22h8.107V93.79zm23.377 0c-1.443 0-2.61.333-3.554 1.055-.999.722-1.499 1.721-1.499 3.054 0 1.277.5 2.277 1.555 2.943l.111.056c.5.222 1.444.61 2.943 1.166l.722.222c1.055.333 1.721.611 1.943.722.833.5 1.278 1.11 1.278 1.943 0 .667-.278 1.166-.889 1.555s-1.388.555-2.443.555q-1.666 0-2.499-.666c-.611-.5-.999-1.333-1.111-2.499h-1.999c.112 1.833.722 3.221 1.833 4.054.944.722 2.221 1.055 3.831 1.055 1.666 0 2.999-.389 3.943-1.111.944-.777 1.388-1.777 1.388-3.109s-.555-2.388-1.721-3.165c-.5-.334-1.722-.833-3.499-1.444l-.555-.167c-.888-.277-1.444-.555-1.721-.666l-.056-.056c-.666-.388-.999-.888-.999-1.555 0-.721.277-1.277.888-1.61.444-.278 1.166-.444 2.055-.444.999 0 1.777.222 2.276.61.5.39.889 1.111 1.056 2.055h2.054c-.111-1.61-.666-2.776-1.61-3.554-.944-.61-2.166-1-3.721-1m10.606 0v14.493h2.222v-6.497h7.718v6.497h2.221V93.79h-2.221v6.108h-7.663V93.79zm21.768 0-5.609 14.493h2.388l1.388-3.72h6.22l1.388 3.72h2.388l-5.609-14.493zm-1 9.162 2.277-6.83h.056l2.221 6.83zm13.938-9.162v14.493h2.277V97.399h.055l7.663 10.884h2.222V93.79h-2.277v10.773h-.056l-7.552-10.773zm31.763 0q-3.582 0-5.498 2.332-1.665 2.082-1.665 5.331c0 2.221.499 3.998 1.61 5.275 1.222 1.5 3.11 2.277 5.553 2.277q2.415 0 4.165-1.333 1.832-1.416 2.332-3.998h-2.221c-.278 1.166-.833 1.999-1.555 2.61-.722.555-1.666.777-2.721.777-1.666 0-2.943-.499-3.721-1.554-.777-.944-1.11-2.333-1.11-4.11 0-1.721.389-3.054 1.166-4.053.833-1.11 2.055-1.61 3.665-1.61 1.11 0 1.999.222 2.721.721.722.5 1.221 1.222 1.444 2.222h2.221c-.222-1.5-.889-2.666-1.999-3.554-1.222-.889-2.666-1.333-4.387-1.333m11.272 0v14.493h2.277V93.79zm7.108 0v1.888h4.998v12.605h2.276V95.678h4.942V93.79zm15.437 0 5.775 8.718v5.775h2.221v-5.775l5.775-8.718h-2.665l-4.165 6.608-4.164-6.608zm32.596 0q-3.581 0-5.498 2.332-1.665 2.082-1.665 5.331c0 2.221.499 3.998 1.61 5.275 1.222 1.5 3.11 2.277 5.553 2.277q2.415 0 4.165-1.333 1.832-1.416 2.332-3.998h-2.221c-.278 1.166-.833 1.999-1.555 2.61-.722.555-1.666.777-2.721.777-1.666 0-2.943-.499-3.721-1.554-.777-.944-1.11-2.333-1.11-4.11 0-1.721.389-3.054 1.166-4.053.833-1.11 2.054-1.61 3.665-1.61 1.11 0 1.999.222 2.721.721.722.5 1.221 1.222 1.444 2.222h2.221c-.222-1.5-.889-2.666-1.999-3.554-1.166-.889-2.61-1.333-4.387-1.333m17.88 0c-2.276 0-4.053.722-5.386 2.221-1.277 1.388-1.833 3.22-1.833 5.442s.611 3.998 1.833 5.442c1.277 1.444 3.11 2.165 5.386 2.165s4.054-.721 5.387-2.165c1.277-1.388 1.888-3.221 1.888-5.442 0-2.277-.611-4.11-1.888-5.442-1.333-1.5-3.166-2.221-5.387-2.221m0 1.888c1.611 0 2.832.5 3.665 1.555.833 1 1.277 2.388 1.277 4.22 0 1.777-.444 3.165-1.277 4.165-.833.999-2.11 1.554-3.665 1.554s-2.832-.555-3.72-1.554c-.833-1-1.277-2.388-1.277-4.11 0-1.72.444-3.11 1.277-4.109.888-1.221 2.11-1.721 3.72-1.721m12.217-1.888v14.493h2.165V97.955h.056l4.387 10.328h1.888l4.386-10.328h.056v10.328h2.166V93.79h-2.61l-4.998 11.606h-.055l-4.998-11.606zm19.49 0v14.493h2.166V97.955h.056l4.386 10.328h1.888l4.387-10.328h.056v10.328h2.165V93.79h-2.609l-4.998 11.606h-.056l-4.997-11.606zm19.824 0v14.493h10.662v-1.888h-8.496v-4.609h7.663v-1.888h-7.663v-4.22h8.107V93.79zm17.437 0v14.493h2.221v-6.497h3.998c.722 1.055 3.165 6.053 3.554 6.497h2.443c-.278-.333-1.61-2.554-3.832-6.663.778-.223 2-1 2.444-1.666.388-.611.611-1.277.611-2 0-1.388-.445-2.387-1.333-3.165-.889-.666-2.055-1-3.554-1zm2.276 1.777h3.943c.999 0 1.777.166 2.221.5s.666.833.666 1.554c0 .667-.222 1.222-.722 1.555-.499.389-1.221.556-2.221.556h-3.942v-4.165zm20.935-1.777q-3.582 0-5.498 2.332-1.666 2.082-1.666 5.331c0 2.221.5 3.998 1.611 5.275 1.221 1.5 3.109 2.277 5.553 2.277q2.415 0 4.164-1.333 1.833-1.416 2.333-3.998h-2.221c-.278 1.166-.833 1.999-1.555 2.61-.722.555-1.666.777-2.721.777-1.666 0-2.943-.499-3.721-1.554-.777-.944-1.11-2.333-1.11-4.11 0-1.721.388-3.054 1.166-4.053.833-1.11 2.054-1.61 3.665-1.61 1.11 0 1.999.222 2.721.721.722.5 1.221 1.222 1.443 2.222h2.222c-.222-1.5-.889-2.666-1.999-3.554-1.167-.889-2.61-1.333-4.387-1.333m10.495 0v14.493h2.276V93.79zm13.382 0-5.608 14.493h2.388l1.388-3.72h6.275l1.388 3.72h2.388l-5.609-14.493zm-1.055 9.162 2.277-6.83h.056l2.221 6.83zm13.994-9.162v14.493h10.661v-1.888h-8.385V93.79zm23.711 0v14.493h6.885c1.611 0 2.832-.278 3.721-.833 1.055-.666 1.555-1.721 1.555-3.221 0-.999-.278-1.777-.778-2.332-.5-.611-1.277-.999-2.277-1.166.778-.278 1.333-.666 1.777-1.222.445-.555.611-1.277.611-2.054 0-1.11-.389-2-1.221-2.61-.833-.666-1.999-1-3.443-1h-6.83zm2.276 1.777h3.943c.999 0 1.777.167 2.221.555q.666.5.666 1.666c0 .833-.222 1.388-.666 1.777s-1.222.555-2.277.555h-3.942v-4.553zm0 6.608h4.332c1.11 0 1.943.166 2.443.555q.833.583.833 1.833c0 .833-.333 1.388-1.055 1.777-.555.277-1.333.444-2.277.444h-4.276zm18.714-8.385-5.609 14.493h2.388l1.388-3.72h6.275l1.388 3.72h2.388l-5.608-14.493zm-1.055 9.162 2.276-6.83h.056l2.221 6.83zm13.993-9.162v14.493h2.277V97.399h.055l7.663 10.884h2.221V93.79h-2.276v10.773h-.056l-7.552-10.773zm26.932 0h2.776l-6.441 6.219 7.33 8.274h-2.943l-5.887-6.83-1.888 1.777v4.998h-2.221V93.734h2.221v6.997z" fill="#000"/></svg>