<svg width="429" height="128" fill="none" xmlns="http://www.w3.org/2000/svg"><path d="M140.375 109.022c.157 1.529-.94 2.234-3.253 2.195v1.019h10.348c4.312-.117 6.625-1.803 6.899-4.978-.157-2.352-1.568-3.841-4.273-4.468v-.118c2.235-.431 3.332-1.45 3.332-3.097 0-.823-.352-1.607-1.058-2.39q-1.764-1.941-7.291-1.882c-.823 0-2.313.078-4.39.196-.549 0-1.333.039-2.274.117q-.822.118-1.058.118v1.019h.627c1.059 0 1.725.118 1.999.431.275.196.431.823.431 1.843v9.995zm3.646-5.488q.41-.117 1.999-.117c2.626.078 4.037 1.372 4.155 3.92q0 3.645-3.763 3.645c-1.686.118-2.47-.666-2.391-2.391zm0-7.016a7.5 7.5 0 0 1 1.372-.118c2.626 0 3.998 1.059 4.076 3.215-.078 1.842-1.176 2.783-3.332 2.783h-2.077v-5.88zm23.166 9.603 1.254 3.097c.353.627.431 1.098.196 1.45-.196.353-.705.51-1.45.51h-.941v1.019h8.663v-1.019c-1.254 0-2.156-.784-2.705-2.391l-5.331-13.484h-3.959l.314.705-4.586 12.622c-.549 1.725-1.411 2.548-2.627 2.47h-.431v1.019h7.095V111.1h-.313c-1.176 0-1.921-.157-2.196-.432-.274-.196-.235-.744.118-1.568l1.058-3.096h5.841zm-.549-1.411h-4.782l2.313-6.232zm12.936-5.605 12.739 13.171h1.45V98.203c-.078-.98.667-1.41 2.195-1.332h.314v-1.02h-6.899v1.02h.314c1.097 0 1.803.117 2.077.43.275.275.431.902.431 1.843v7.997l-10.936-11.29h-5.409v1.02c.823 0 1.528.156 2.077.51v12.229q.118 1.647-1.999 1.646h-.196v1.02h6.468v-1.02c-1.882.118-2.744-.588-2.626-2.195zm24.028 5.488q.706-.118 1.882.94c2.43 2.47 3.802 4.155 4.076 4.979q0 .705-1.881.705v1.019h9.172v-1.019c-1.45.079-2.822-.745-4.077-2.469l-2.312-2.901c-1.333-1.607-2.274-2.548-2.901-2.901.784-.548 1.725-1.607 2.901-3.214.705-1.02 1.215-1.686 1.568-1.96a3.5 3.5 0 0 1 1.058-.745c.353-.078.98-.156 1.882-.196v-1.019h-7.213v1.02h.314c1.058 0 1.568.274 1.568.823-.079.823-.902 2.156-2.509 4.037-1.254 1.176-2.43 1.842-3.528 1.96V98.87c-.157-1.45.51-2.156 1.999-2.078h.51v-1.019h-8.781v1.02h.432c1.45-.08 2.155.587 2.077 1.96v10.465c.078 1.372-.588 2.038-1.999 1.96h-.51v1.019h8.781v-1.019h-.431c-1.451.078-2.156-.588-2.078-1.96zm23.166-.314c.471 5.174 3.724 7.918 9.682 8.192q9.525-.293 10.113-8.819c-.352-5.253-3.527-8.036-9.603-8.389-6.39.353-9.8 3.332-10.192 9.016m3.959-1.254c.196-4.195 2.078-6.429 5.645-6.625 3.88.275 5.997 3.058 6.272 8.271q-.294 6.644-5.527 6.821c-4.077-.314-6.194-3.136-6.39-8.467m23.872-5.802h5.213c1.098-.156 1.686.628 1.686 2.274h.941v-3.724h-13.445v.94h.313c1.176-.078 1.725.706 1.686 2.274v10.662c.078 1.098-.471 1.607-1.568 1.568h-.431v1.019h7.918v-1.019h-.51c-1.333.118-1.921-.627-1.764-2.273v-4.234h4.194q2-.117 1.882 1.882h1.058V101.3h-1.058c.157 1.372-.627 1.999-2.274 1.842h-3.763v-5.919zm34.651 10.349h-1.058a5 5 0 0 0-.51.627c-1.254 1.921-2.43 2.783-3.567 2.587h-3.449c-.98.078-1.411-.353-1.372-1.254V98.674q0-1.882 1.999-1.882h.823v-1.019h-9.094v1.02h.51c1.372-.08 2.077.548 2.077 1.88v10.663c.079 1.293-.666 1.92-2.195 1.881h-.509v1.019h14.385zm11.25-1.451 1.254 3.097c.353.627.432 1.098.196 1.45-.196.353-.705.51-1.45.51h-.941v1.019h8.663v-1.019c-1.254 0-2.156-.784-2.704-2.391l-5.331-13.406h-3.959l.313.706-4.586 12.661c-.549 1.724-1.411 2.548-2.626 2.469h-.432v1.019h7.095v-1.019h-.313c-1.176 0-1.921-.157-2.195-.431-.275-.196-.236-.745.117-1.568l1.059-3.097zm-.509-1.411h-4.783l2.313-6.232zm12.935-5.605 12.739 13.171h1.451V98.203c-.079-.98.666-1.41 2.195-1.332h.313v-1.02h-6.898v1.02h.313c1.098 0 1.803.117 2.078.43.274.275.431.902.431 1.843v7.997l-10.936-11.29h-5.41v1.02c.823 0 1.529.156 2.078.51v12.229q.117 1.647-1.999 1.646h-.196v1.02h6.467v-1.02c-1.881.118-2.744-.588-2.626-2.195zm36.023 7.879h-1.058c-.353 1.568-.745 2.626-1.137 3.096-.431.471-1.097.745-1.999.745h-8.232L348.4 97.263v-1.45h-15.444l-.196 4.468h1.059c.156-2.078 1.019-3.058 2.626-3.018h7.212l-11.955 13.523v1.45h16.894zm14.386 4.233v1.019h8.545v-1.019h-.431c-1.45.079-2.156-.588-2.078-1.96V98.713q-.118-1.94 2-1.882h.509v-1.019h-8.545v1.02h.196c1.529-.079 2.273.587 2.195 1.96v4.154h-8.859v-4.233c-.078-1.294.627-1.92 2.078-1.882h.431v-1.019h-8.545v1.02h.431q2 0 1.999 1.88v10.545c0 1.294-.666 1.96-1.999 1.96h-.431v1.019h8.545v-1.019h-.431c-1.411 0-2.078-.666-2.078-1.96v-4.782h8.859v4.665c0 1.372-.666 2.077-1.999 2.077zm10.427-6.938c.47 5.174 3.724 7.918 9.682 8.192q9.525-.293 10.113-8.819c-.353-5.253-3.528-8.036-9.604-8.389-6.35.353-9.76 3.332-10.191 9.016m3.959-1.254c.196-4.195 2.077-6.429 5.644-6.625 3.881.275 5.998 3.058 6.272 8.271q-.294 6.644-5.527 6.821c-4.037-.314-6.154-3.136-6.389-8.467m30.77-6.194h.432c1.528-.078 2.273.824 2.195 2.705v6.429c-.079 3.175-1.804 4.782-5.214 4.86-3.136-.078-4.743-1.529-4.782-4.351v-7.879q0-1.764 1.882-1.764h.431v-1.019h-8.389v1.02h.51q2-.118 1.881 1.763v7.879c.079 3.92 2.666 5.958 7.84 5.997q7.409-.117 7.526-6.82v-6.624c-.078-1.53.745-2.235 2.391-2.156h.196v-1.02h-6.899zm4.547-51.075v-7.8H376.31v7.8h17.952v24.225c.353 1.646-1.92 2.312-6.859 1.96 1.568 2.39 2.548 5.37 2.9 8.897 8.977 0 13.21-2.038 12.661-6.114V45.756zm-32.73-25.596h28.536v7.212h-28.536zm-22.735 18.893c4.743-4.076 9.878-9.29 15.326-15.562a13.3 13.3 0 0 1 2.627-2.234c.548-.549.784-.94.784-1.097.196-.196-1.568-1.294-5.292-3.332-1.764-.745-2.901-1.294-3.45-1.647-4.39 7.213-9.76 13.367-16.11 18.384 2.861 2.156 4.9 3.999 6.115 5.488" fill="#1b1918"/><path d="M360.748 54.103v25.871h8.467v-34.22c2.665-3.724 4.939-6.507 6.859-8.35.353-.391.549-.666.549-.862 0-.548-2.665-2.234-7.918-5.017-5.135 8.741-11.211 16.032-18.227 21.99l5.801 5.566c1.725-1.842 3.254-3.488 4.469-4.978M138.69 69.665h58.366v7.8H138.69zm88.549-3.606c1.411-3.332 2.116-8.271 2.116-14.739V37.954c1.607 8.702 2.548 14.66 2.901 17.796a120 120 0 0 0 4.233-.863c1.059 0 1.843-.078 2.391-.274v22.852h7.683V36.542c1.764 7.056 2.979 13.641 3.685 19.756a62 62 0 0 0 6.86-1.372v25.871h8.192V22.353c0-1.294.157-2.509.549-3.607.157-.548.274-.94.274-1.097 0-.196-.549-.392-1.607-.549h-7.448v31.712c-1.058-5.214-2.391-10.388-3.959-15.601-2.469.548-4.664.94-6.585 1.097v-8.584c0-1.294.157-2.509.549-3.607.157-.392.274-.666.274-.862s-.549-.353-1.607-.549h-6.86v27.557c-1.058-5.37-2.195-10.388-3.449-15.013-1.921.548-3.959.94-6.076 1.097V22.941c0-1.098.196-2.235.549-3.332.196-.549.274-.941.274-1.098 0-.353-.431-.549-1.332-.549h-7.134v34.495c0 5.017-1.137 9.643-3.45 13.915-2.117 3.88-5.096 6.86-8.976 8.898 2.822 1.098 5.527 2.587 8.192 4.469 5.253-5.253 8.506-9.8 9.761-13.68m-34.142-33.672h-15.052c4.586-6.31 7.487-9.917 8.702-10.858 0-.392-.079-.744-.275-1.097-.705-.196-1.764-.549-3.175-1.098-4.586-1.646-7.055-2.508-7.408-2.508-2.274 7.055-4.665 12.269-7.134 15.6h-9.212c.196-.195.706-.47 1.607-.862 1.764-.744 3.058-1.372 3.959-1.96-1.058-2.39-3.684-6.663-7.918-12.778-.196 0-1.058.47-2.626 1.372-2.665 1.49-4.861 2.587-6.585 3.331 0 .197.548.824 1.568 1.96 2.273 2.98 4.507 5.92 6.585 8.898h-12.936v7.8h49.939v-7.8zm139.075 31.438a54 54 0 0 1 5.802-4.743c.196-.196.548-.353 1.058-.549 1.568-.353 1.568-1.293 0-2.783-1.058-1.685-2.548-3.332-4.508-5.017h2.666V19.02h-29.046v47.587c0 1.293-.627 2.509-1.843 3.606-.509.549-.784 1.02-.784 1.372 1.921 5.566 3.254 8.624 3.959 9.173.353 0 1.059-.47 2.117-1.372 3.528-2.588 7.683-5.096 12.426-7.526-.196-.745-.274-1.764-.274-3.058 0-1.097-.079-2.038-.275-2.783 1.764 3.724 5.527 7.8 11.368 12.23.352.353.627.666.784.823 2.273-3.528 4.468-6.193 6.624-8.075-3.92-1.607-7.251-3.998-10.074-7.173m-16.11-37.278h12.426v4.979h-12.426zm0 40.884V50.77h2.391c.353 3.882 1.685 8.35 3.959 13.367-1.098.706-3.175 1.843-6.35 3.293m0-23.91v-5.018h12.426v5.017zm12.151 13.915c-.862-1.294-1.607-3.254-2.116-5.841-.157-.353-.275-.666-.275-.823h7.409a25.9 25.9 0 0 1-5.018 6.664M146.882 49.91h41.981v7.8h-41.981z" fill="#1b1918"/><path d="M279.882 43.522c2.979 2.038 4.939 3.528 5.801 4.469.196-.353.431-1.02.784-1.96.353-.745.627-1.294.784-1.646h2.626v5.84h-9.25v7.212h9.25v9.447c0 .745-.705 1.96-2.116 3.606q-1.059 1.411-1.059 1.647c1.921 4.468 3.332 7.134 4.234 8.075.353 0 1.137-.667 2.391-1.96 3.684-3.724 7.918-7.409 12.661-11.132-.353-2.392-.784-4.626-1.333-6.664q-.294 0-3.175 2.234a188 188 0 0 0-3.724 2.783v-8.075h8.467v-7.212h-8.388v-5.84h7.918v-7.213h-15.327a382 382 0 0 0 2.117-5.84h13.484V24.04h-10.544c.353-1.49.862-2.901 1.568-4.195.352-.94.431-1.49.274-1.685-4.077-1.294-6.977-1.96-8.741-1.96-.157.196-.431 1.215-.784 3.057-2.117 9.84-4.939 17.796-8.467 23.95.549.392.706.51.549.314m-61.62 3.332c.863-5.566 1.607-9.643 2.117-12.27-.862-.352-3.254-.822-7.134-1.371 0 .549-.196 1.49-.549 2.783q-2.41 16.404-3.175 18.933c.902 0 3.253.549 7.134 1.685.196-.196.706-3.45 1.607-9.76" fill="#1b1918"/><path d="M137.122 87.07H413.43v1.96H137.122zM48.808 64.337c.04-.353 14.033-14.739 14.464-14.817.353-.078 13.68 13.092 14.464 14.62l-14.425 14.7zm63.736-4.704c0-4.155-.509-8.35-1.607-12.387-.744-2.665-1.803-5.409-3.018-7.722-2.626-5.017-5.292-8.702-9.133-12.426-3.685-3.606-7.8-6.467-12.74-8.82-2.47-1.175-5.095-2.038-7.996-2.821-7.722-2.039-16.306-1.803-24.068-.118a52 52 0 0 0-8.741 2.665c-5.645 2.313-9.839 4.979-14.111 8.742-6.782 5.997-15.092 18.188-15.092 30.692v5.253c0 20.265 17.6 39.786 38.023 39.786h3.684c5.292 0 11.211-2.195 14.974-3.802 1.92-.824 10.662-6.429 10.78-7.919 1.371-.117 6.271-8.153 7.094-9.877 3.175-6.664 4.822-15.092 2.627-22.343-.196-.706-1.882-5.331-1.882-5.37 2.626 1.92 5.174 10.387 5.174 15.365 0 20.932-17.796 38.297-38.688 38.297h-1.411c-12.348 0-22.304-5.449-28.498-11.603-3.763-3.763-5.801-6.82-8.506-11.564-1.215-2.155-2.195-4.468-3.136-6.898-.43-1.176-1.999-7.213-2.273-7.644 0 12.975 6.664 25.557 13.21 32.182 9.015 9.094 21.833 12.7 34.338 12.7 26.262 0 49.232-18.894 49.232-44.882v-2.391c0-11.132-5.487-22.54-10.857-28.38-6.311-6.82-14.66-11.406-27.047-12.112-20.854-1.176-40.218 15.836-40.218 37.16 0 3.685.902 7.644 1.568 11.563l.236-.039c-2.627-.94-4.39-10.348-4.39-14.895 0-21.833 18.07-38.297 40.177-38.297 35.318 0 42.217 37.866 42.295 37.905" fill="#00509e"/></svg>