<svg width="421" height="128" fill="none" xmlns="http://www.w3.org/2000/svg"><path d="M383.717 90.865h8.109v.846h-1.614c-.423 0-.73.076-.922.192a.84.84 0 0 0-.269.615v9.492c0 1 .077 1.768.269 2.268.269.769.768 1.345 1.499 1.806.73.461 1.652.654 2.805.654 1.614 0 2.806-.385 3.651-1.192.846-.807 1.269-1.845 1.269-3.19v-7.725c0-.691-.039-1.191-.154-1.537-.116-.346-.231-.615-.423-.845a2.2 2.2 0 0 0-.692-.462c-.269-.077-.768-.153-1.422-.153v-.769h6.649v.846h-.461c-.73 0-1.307.192-1.653.576s-.538.922-.538 1.653v8.263q0 2.709-1.614 4.15-1.787 1.614-4.842 1.614c-1.73 0-3.113-.23-4.113-.73-.999-.461-1.729-1.153-2.152-2.037-.346-.692-.499-1.537-.499-2.536V92.518c0-.27-.077-.462-.269-.615-.193-.154-.462-.23-.846-.23h-1.768zm-11.414.5c-1.538 0-2.806.615-3.767 1.844s-1.422 3.229-1.422 5.996c0 3.036.5 5.111 1.461 6.264.999 1.153 2.19 1.73 3.651 1.73.999 0 1.921-.269 2.652-.769.768-.538 1.383-1.383 1.844-2.498.462-1.153.692-2.613.692-4.497 0-2.037-.192-3.574-.653-4.727-.423-1.153-1.038-1.96-1.806-2.536a4.7 4.7 0 0 0-2.652-.807m-.192-.846c1.46 0 2.844.384 4.15 1.115 1.307.73 2.306 1.806 3.036 3.113.731 1.345 1.115 2.844 1.115 4.535s-.384 3.19-1.115 4.535c-.73 1.345-1.729 2.421-3.036 3.151a7.8 7.8 0 0 1-4.074 1.153c-1.422 0-2.728-.384-3.958-1.114s-2.229-1.807-2.959-3.19c-.769-1.384-1.115-2.883-1.115-4.574 0-1.652.384-3.151 1.076-4.458.73-1.307 1.73-2.383 2.959-3.113 1.23-.807 2.575-1.153 3.921-1.153m-29.785.346h7.494v.846h-1.384c-.499 0-.807.076-.96.23-.154.154-.231.538-.231 1.191v5.189h8.032v-5.189c0-.653-.077-1.076-.192-1.19-.154-.155-.461-.231-.961-.231h-1.268v-.846h7.456v.846h-1.345c-.346 0-.577.038-.73.115s-.269.23-.346.423c-.039.115-.077.46-.077.999v12.106c0 .576.038.922.154 1.076.192.269.576.384 1.114.384h1.191v.846h-7.455v-.846h1.268c.5 0 .845-.153 1.038-.384.115-.154.153-.538.153-1.153v-5.842h-8.032v5.919c0 .615.038.961.154 1.076.192.269.538.384 1.037.384h1.384v.846h-7.494v-.846h1.422c.269 0 .461-.038.615-.153.153-.116.269-.231.345-.423.039-.115.077-.423.077-.961V93.132c0-.653-.077-1.037-.23-1.19-.154-.155-.462-.231-.961-.231h-1.268zm-15.565 0h11.99v.846l-10.03 15.103h3.804c1.115 0 1.999-.192 2.691-.499a4.07 4.07 0 0 0 1.691-1.538c.461-.653.845-1.806 1.191-3.382h.846l-.308 6.303h-12.682v-.768l10.107-15.181h-3.612q-1.5 0-2.306.346a3.74 3.74 0 0 0-1.807 1.576c-.461.768-.807 1.767-.999 3.074h-.884zm-22.291 0h8.109v.846h-1.614c-.423 0-.73.076-.922.192a.84.84 0 0 0-.269.615v9.492c0 1 .076 1.768.269 2.268.269.769.768 1.345 1.498 1.806.731.461 1.653.654 2.806.654 1.576 0 2.806-.385 3.651-1.192.846-.807 1.268-1.845 1.268-3.19v-7.725c0-.691-.038-1.191-.153-1.537-.116-.346-.231-.615-.423-.845a2.2 2.2 0 0 0-.692-.462c-.269-.077-.769-.153-1.422-.153v-.769h6.649v.846h-.461c-.731 0-1.307.192-1.653.576-.384.384-.538.922-.538 1.653v8.263q0 2.709-1.614 4.15c-1.192 1.076-2.844 1.614-4.843 1.614-1.729 0-3.113-.23-4.112-.73-.999-.461-1.729-1.153-2.191-2.037-.345-.692-.499-1.537-.499-2.536V92.518a.84.84 0 0 0-.269-.615c-.192-.154-.461-.23-.846-.23h-1.691v-.808zm-10.992 0h8.071v.846h-1.384c-.614 0-.999.076-1.191.23q-.23.23-.23.922v12.722c0 .499.076.845.23.96.192.193.538.269 1.038.269h1.537v.846h-8.071v-.846h1.538q.807 0 1.037-.23c.154-.154.231-.5.231-.999V92.864c0-.5-.077-.808-.231-.884-.23-.154-.615-.27-1.23-.27h-1.383v-.845zm-17.717 0h8.109v.846h-1.96q-.46 0-.692.23c-.153.154-.23.384-.23.73v13.259c0 .308.077.538.269.692s.576.192 1.114.192h2.46q1.96 0 3.228-1.268c.846-.845 1.422-2.306 1.807-4.381h.845l-.384 6.456h-14.643v-.845h1.422c.5 0 .846-.077 1.038-.269.192-.154.307-.461.307-.846V92.556c0-.269-.077-.5-.23-.653s-.423-.23-.731-.23h-1.767v-.808zm-27.863 0h14.296l.231 5.842h-.845c-.385-1.999-.884-3.305-1.538-3.92-.768-.692-1.806-1.038-3.228-1.038h-2.806c-.269 0-.499.077-.615.192s-.192.308-.192.577v6.034h1.499c.846 0 1.499-.27 1.999-.808.499-.538.768-1.345.807-2.46h.845v7.572h-.845c-.039-1.268-.308-2.152-.807-2.69-.462-.538-1.153-.807-1.999-.807h-1.499v6.418c0 .384.116.653.308.807s.499.23.999.23h1.806v.846h-8.455v-.846h1.807c.384 0 .614-.076.768-.23s.231-.346.231-.692V92.518c0-.308-.077-.5-.231-.654s-.461-.192-.845-.192h-1.73v-.807zm-12.03.5c-1.537 0-2.805.615-3.766 1.844s-1.422 3.229-1.422 5.996c0 3.036.5 5.111 1.46 6.264.961 1.153 2.191 1.73 3.652 1.73.999 0 1.921-.269 2.69-.769.768-.538 1.383-1.383 1.845-2.498.461-1.153.691-2.613.691-4.497 0-2.037-.23-3.574-.653-4.727s-1.038-1.96-1.845-2.536a4.7 4.7 0 0 0-2.652-.807m-.192-.846a8.2 8.2 0 0 1 4.151 1.115c1.307.73 2.306 1.806 3.036 3.113.73 1.345 1.115 2.844 1.115 4.535s-.385 3.19-1.115 4.535-1.729 2.421-3.036 3.151a7.8 7.8 0 0 1-4.074 1.153c-1.422 0-2.729-.384-3.958-1.114s-2.229-1.807-2.96-3.19-1.114-2.883-1.114-4.574c0-1.652.384-3.151 1.076-4.458.73-1.307 1.729-2.383 2.959-3.113 1.23-.807 2.537-1.153 3.92-1.153m-39.393.346h8.033v.846h-1.691c-.385 0-.654.076-.846.269a.96.96 0 0 0-.307.691v7.802l6.61-6.764c.384-.384.576-.769.576-1.115 0-.269-.115-.46-.384-.614s-.692-.27-1.268-.27h-.5v-.845h7.225v.846h-.576c-.5 0-.999.153-1.576.422a6.4 6.4 0 0 0-1.614 1.115l-4.074 4.074 5.842 8.224c.307.461.653.807.999.999.346.193.769.269 1.23.269h.653v.846h-7.917v-.846h.923c.653 0 1.076-.038 1.306-.153.231-.116.346-.231.346-.385a.58.58 0 0 0-.153-.422l-4.843-6.841-2.767 2.844v4.15q0 .404.231.577c.269.192.538.269.884.269h1.691v.845h-8.033v-.845h1.537c.385 0 .692-.077.884-.231s.269-.384.269-.615V92.594a.75.75 0 0 0-.307-.614c-.231-.154-.576-.231-1.076-.231h-1.307zm-21.176 0h4.189l10.607 13.221v-9.57c0-.96-.23-1.69-.691-2.152-.423-.423-1.038-.654-1.883-.654v-.845h6.149v.846c-.615 0-1.076.076-1.384.269-.307.153-.576.46-.807.883a3.14 3.14 0 0 0-.346 1.46v13.375h-1.114L178.873 93.94v10.146c0 .922.231 1.614.731 2.075.461.461 1.229.692 2.229.692v.845h-6.688v-.845c.846-.039 1.499-.308 1.999-.807s.73-1.115.73-1.807V92.787l-.192-.193c-.384-.384-.692-.653-.845-.73-.231-.115-.539-.154-.884-.154h-.808v-.845zm-11.76 2.882-3.152 7.495h6.226zm.346-3.228h.807l6.303 15.373c.269.615.768.961 1.537.961h.538v.845h-6.995v-.845h.577c.73 0 1.23-.077 1.537-.231.192-.115.308-.269.308-.499 0-.154-.039-.269-.077-.423l-1.461-3.574h-6.956l-.807 2.037c-.231.538-.307.96-.307 1.306s.192.692.538.961c.345.269.883.384 1.575.384h.577v.846h-6.342v-.846c.692 0 1.23-.153 1.615-.422.384-.269.768-.807 1.114-1.615zm-20.984 8.916v6.495c0 .308.115.538.269.692.192.154.499.231.999.231h2.114c1.422 0 2.459-.308 3.113-.884.692-.577.999-1.537.999-2.767 0-1.153-.346-2.076-1.038-2.729-.691-.653-1.652-1-2.882-1h-3.574zm0-.845h3.305c1.038 0 1.845-.27 2.46-.846.614-.576.922-1.498.922-2.805 0-.807-.154-1.46-.423-1.883-.269-.462-.692-.807-1.268-1-.538-.192-1.499-.307-2.844-.307-.961 0-1.537.077-1.768.192q-.346.173-.346.692v5.957zm-5.266-7.725h9.147c1.807 0 3.19.384 4.113 1.153.96.769 1.422 1.691 1.422 2.844 0 .96-.346 1.768-1 2.421-.653.653-1.652 1.192-2.997 1.576 1.652.346 2.882.884 3.728 1.576.807.73 1.229 1.614 1.229 2.728 0 .846-.23 1.576-.691 2.229-.462.654-1.269 1.192-2.345 1.615-1.114.461-2.344.691-3.728.691h-8.878v-.845h1.461c.423 0 .769-.077.961-.231s.307-.269.307-.461V92.71a.98.98 0 0 0-.307-.73c-.192-.154-.5-.231-.884-.231h-1.538zm19.947-70.446c3.305-2.076 1.191 9.108 1.114 9.838-1.037 7.149-2.152 8.994 2.076 6.957 3.497-1.653 6.879-5.996 5.688-9.301-.692-1.96-4.228-4.15.73-2.575 8.493 2.652 2.152 12.068-2.575 15.027-5.765 3.613-6.764 2.767-7.917 6.572-.884 2.844-.384 5.803-.384 8.455 0 2.613 5.995-1.23 7.34-6.38.846-3.151 9.262-13.028 11.414-12.605 6.649 1.23-7.571 14.143-2.767 15.027 11.453 2.152 10.608-3.92 23.521-3.46 5.265.193 6.995 9.11 5.15 12.606-5.534 10.454-13.682 3.42-10.3 11.415 1.422 3.382.038 7.263-3.305 5.688-4.189-1.96-9.378-.5-8.263-2.575 1.652-3.113.115-12.414 3.497-13.99 4.42-2.036 5.88 2.883 6.611 3.113 5.149 1.615 6.341-3.228 6.802-6.38 1.768-11.798-11.107-3.958-13.797-3.958-2.46 0-5.919 12.952-13.067 17.448-5.611 3.498-11.76 1.115-12.683-1.537-.999-2.882-.346-4.496 3.498-8.109 2.728-2.537 8.762-2.96 4.419-4.996-1.499-.692-7.456 3.228-8.839 4.496-1.614 1.538.192 9.34.73 10.877 1.384 3.843-7.187 1.383-7.302-2.037-.077-1.922-.384-1.076-.192-1.73.999-3.19-2.575.73-3.152.846-2.229.384-4.957 3.958-6.418 5.342-3.728 3.497-10.069-4.65-4.458-8.186l1.115-1.038c1.345-.154 4.342-7.955 5.534-9.954 4.112-6.956 8.301 1.153 8.686-6.495l.269-1.845c-.269-.269-5.919.462-7.802-1.306-9.416-8.878 3.305-2.729 7.802-4.42.422-.346 1.345-18.409 7.225-20.83m-11.53 37.01-.384 1.883c-.961 5.035 3.42 3.882 3.42-3.728.039-1.845-2.844.884-3.036 1.845m28.671 2.075c1.076-5.034-10.646 2.383-11.953 3.613-3.958 3.728-.922 5.15-.73 5.342 3.344 3.19 11.799-4.689 12.683-8.955m51.921-12.49c.193-.116.731-.039.846.115.576.846.154.96-.231 1.999-.192.538-.691 1.537-.73 1.767-.154.462-.884 1.884-1.345 2.306-.384.346-.653.884-.653 1.422.077 2.306-1.768 4.92-2.575 5.189-1.96.576-3.613-.538-3.805-.615-.461-.23-.922-.73-1.076-.884-1.384-1.345-1.922-2.998-2.191-4.881-.269-.846-.269-4.458.039-5.304a3.1 3.1 0 0 1 1.345-1.652c1.153-.577 2.805.154 3.113.384 1.037.692 2.075 1.576 2.959 2.383.922.845.692.615 1.153.615.807-.039 1.115-.423 1.729-.961.769-.73.731-.96 1.422-1.883m34.666-25.98c2.998-1.5 2.883 16.564 2.729 17.717-.269 2.267-.461 7.802.038 10.53.5 2.806-.345 5.15.154 8.071.461 2.575 1.23 11.953 1.461 12.99.922 3.651.615 4.766-.615 7.879-1.384 3.459-2.422.768-4.881 1.998-3.843 1.922-3.113.5-4.266-.884-.423-.269-.423-1.153-.73-1.422-2.114-2.113-.193-20.753-1.538-21.637-.576-.384-.922-.73-1.575-.884-2.844-.576-1.269-1.845-2.691-2.306-2.267-.768-2.113-.73-1.921 1.806.077 1.076 0 2.23 0 3.306 0 5.38-.192 3.266-.346 5.303-.192 2.306.192 1.153-1.153 2.537-1.999 2.037-6.534-1.614-5.957-6.572.384-3.382-.461.538-4.074-3.075-2.267-2.267-1.729.5-1.729 2.575-.039 10.646-1.422 7.879-3.306 10.761-.076.154 0 .039-.153.192-1.461 1.5-2.037 1.077-2.883 1.384-1.844.653-.192-3.19-.038-3.843.23-1.192.038-4.535 1.076-8.686.884-3.536 3.459-22.483 1.384-24.558-2.921-2.92 4.073-1.46 4.266-1.153.076.077.153.307.269.461 1.767 1.768.038 6.418.153 8.801.077 1.537-1.076 5.496.961 5.88 2.69.5 1.73-.96 3.536-2.767 1.768-1.768 2.536.769 1.614 2.19-.346.539-.692 1.307-1.038 1.807-.499.73-.768 4.497.731 3.728.269-.154 5.265-18.87 4.611-21.138-.345-1.268 2.229-2.19 3.459-1.614 1.23.615-2.152 13.605-.653 15.834.077.116.038.116.115.116 1.153.307 1.845.384 2.921.807 2.921 1.153 4.074-2.768 3.805-5.458-1.115-10.108.884-6.495 1.922-10.722.461-1.807 2.305-4.881 2.344-6.726-.039-1.883-1.038-2.421 1.998-3.228m30.746 12.913c3.152-3.613 5.727-7.725 6.956-12.26.116-.5.308-.653.462-1.076.115-.423.269-.807.768-.807 1.653-.039 2.421 1.46 2.921 1.768.231.153.307.422.423.692.346.73.307 2.152.192 2.959-.038.23-.346 1.23-.461 1.422-.73 1.191-4.458 5.073-4.305 5.918 0 .154 0 .308.077.423.154.27.73.192 1.038.23.461.04 1.153-.115 1.614-.191.384-.077.615-.193.961-.346.884-.423 1.652-1.077 2.575-1.46.423-.155 1.537-.27 2.075-.116.231.038.884.23.961.269.384.154 1.114.653 1.537.96.577.462.615.539.615 1.192 0 1.96-7.302 3.267-8.686 3.536-3.074.692-5.149 1.153-7.801 2.767-.385.23-1 .692-1.499.769-.269.038-.5 0-.73 0-.346 0-.692-.116-.961-.23-.577-.231-2.575-1.73-2.652-2.153-.077-.385-.038-.807.307-1.076.961-.692 2.806-2.268 3.613-3.19m4.919 11.952c-.153-1.652-.614-2.882.615-4.074 2.614-2.536 4.997-.038 6.457 1.691 2.921 3.498 7.033 4.267.154 7.149-.846.346.153 5.765.153 6.264 0 2.268-1.998 3.075-2.92 4.958-2.037 4.19-1.922 9.916 1.806 3.19 1.768-3.19 9.224-14.181 4.535-2.92-5.919 14.334-4.689 22.828-14.143 13.374-2.229-2.23 3.113-9.993.538-11.953-2.498-1.845-3.728-5.573-.615-4.035 3.344 1.652 3.574-4.804 2.844-4.804-1.999 0-8.955 4.535-9.57 5.419-2.421 3.42-8.109-7.456-8.109-8.225 0-4.343 5.381.807 10.761-1.537 5.227-2.23 7.802-1.076 7.494-4.497m28.901-17.064c.231-.192.615-.23 1.038-.23 4.727 0 3.728 3.459 3.728 6.88.077.614-.115 3.381 0 3.958 0 1.614 3.19 3.92 3.19 5.841 0 4.343-6.111 5.227-6.111 5.458-.884.307-2.344.96-3.074 1.46-1.615 1-2.729 1.883-3.344 2.46-1.345 1.268-1.499 8.417-1.499 10.453-.038.462-.615 5.074.807 4.997.423 0 .769 0 1.345-.769 2.268-2.267 4.92-5.573 6.111-8.57.154-.462.5-.692.615-.961 1.499-5.996 7.456-5.304 8.724-3.267.269.692 0 1.384 0 2.23 0 1.19 5.188 5.764 4.65 8.147 0 4.689-6.379 2.69-7.11 2.152-.999-.807-4.688-4.112-4.688-4.996-.269 0-.654-.039-.961.153-1.46.692-1.999 2.191-2.844 3.613-.231.461-1.46 3.152-1.768 3.767-.423.614-2.882 8.762-7.84 6.879-1.499-.538-1.96-1.115-2.537-1.883-1.46-1.922-.307-10.147-.307-12.837.115-1.268.384-3.843.384-4.343.039-.691.154-2.575.154-2.997.154-.807 1.115-9.916 1.115-10.992 0-9.185 3.92 1.883 3.958 1.883.346 3.382 3.344 1.999 5.803.5 1.653-1.038 2.691-1.115.116-8.148-.039 0-.385-3.805-.807-4.458.345-.23-3.229-.269-3.728-.192-1.23.115-2.306.692-3.728-.308-.039-3.074 6.61-4.342 8.608-5.88m45.197 27.518c2.652-3.69 2.536-1.153 2.19.077-1.998 5.918-1.268 5.841-1.191 11.145-.307 3.766.192 3.42.769 4.689.538 1.23.884 2.075.653 3.036-1.307 1.768-6.072 2.344-8.148 1.115-.845-.5-1.844-1.346-1.575-2.73.23-1.383.115-5.341-.807-7.417-.923-2.075-.808-1.69-2.268-4.343-1.46-2.69-1.268-5.38-.192-6.225 1.076-.808 3.843-4.69 4.381-5.65.884-1.576-3.113.615-3.497 1.191-.423.577-.999.73-2.614.385-1.652-.308-4.458-1.576-3.958-2.844.576-1.576 3.42-4.42 4.189-5.765 2.613-3.113 5.611-5.534 8.455-8.455 2.883-2.96 7.725-9.916 8.84-11.722 1.422-2.267 3.497-.384 3.843.692 0 0 1.845 2.421 2.421 3.728.538 1.306-.423 4.035-1.653 5.15-2.767 1.768-9.992 8.147-11.068 11.414-.346.96-.538.692.769 1.73 1.767 1.498 2.498 1.806 1.268 4.727-1.153 2.767-4.381 6.495-5.842 8.07-.922 1.115 1.691 3.844 2.537 3.844 1.114-.116.615-2.806 2.498-5.842m29.823-25.096c.884 1.153.653 3.113-1.307 4.189-1.998 1.076-6.226 3.881-9.877 4.535-2.037.384-5.726.691-8.993 1.499-.384.115-2.652.807-3.728 1.998-.538 0-.346-.538.192-2.652 1.691-3.382 2.806-3.036 5.688-4.15 3.267-1.269 11.569-5.266 13.721-6.111 2.459-1 3.42-.461 4.304.692m-23.29 17.64c1.268 0 11.03-.307 17.679-3.574 3.113-1.538 5.919-3.882 6.995-3.843 1.076.077 6.303 2.69 5.265 4.727s-5.995 2.805-6.38 4.458c-.653 1.653-1.191 6.726-.999 11.222-.269 4.535.192 8.993.692 10.492.461 1.499.115 2.575-.308 3.613-.422.96-.961 1.768-2.152 1.69-1.076.347-1.845.193-4.035.04-2.767-3.652-7.495-2.384-13.644-4.843 0 0-1.268-1.269 1.038-1.115 2.844.192 11.145-1.499 11.875-5.88.654-3.69 1.115-8.8 1.499-10.8.154-.806-.999-2.767-4.304-1.998-2.613.615-6.265 2.575-9.454 1.422-3.229-1.114-4.843-5.611-3.767-5.611" fill="#000"/><path d="M86.138 89.788h7.57c4.344-.077 6.035-1.73 7.149-3.575 1.076-1.844 1.192-4.073 1.153-4.534V40.325c-.038-4.15-1.345-5.764-2.536-6.648-1.23-.884-2.69-.961-2.96-.961h-4.112c-3.19.077-4.381 1.191-5.303 2.613-.846 1.46-1.038 3.382-1.038 4.382v50.077zM96.36 29.065h.153c.577 0 2.23.077 4.036 1.037a50.26 50.26 0 0 0-22.56-13.835c-3.997 0-9.915.73-14.873 4.035-4.92 3.305-9.147 9.07-10.031 20.062v10.338c1.153-.692 2.498-1.114 3.92-1.114h14.066c4.19 0 7.571 3.382 7.571 7.532v.039c.039.269.039.538.039.807v30.592c0 .154-.154 6.956-4.074 13.951-2.421 4.381-6.457 8.762-12.683 11.453.73 0 1.422.038 2.153.038a49.7 49.7 0 0 0 18.409-3.536V40.671c0-.153-.039-.5-.039-.96 0-1.346.154-3.844 1.538-6.188 1.306-2.421 4.189-4.497 8.454-4.458zm8.647 6.456c.423 1.346.692 2.96.692 4.804V81.68c0 .807-.077 3.535-1.653 6.34-1.499 2.806-4.88 5.497-10.338 5.42h-7.571v15.411c16.526-8.148 27.901-25.096 27.901-44.735 0-10.646-3.343-20.484-9.031-28.594" fill="#e30016"/><path d="M20.034 47.667c-.922-1.845-1.23-3.69-1.307-4.997A49.4 49.4 0 0 0 14 63.808c0 7.533 1.691 14.643 4.65 21.061V70.803c0-1.192.116-3.805 1.384-6.341 1.191-2.576 4.035-5.035 8.378-4.997h1.691v-6.918h-1.69c-4.344.116-7.15-2.344-8.38-4.88m18.985 16.525c-1.345-.922-2.959-1.037-3.266-.999h-2.037v40.354a52 52 0 0 0 8.032 4.958v-37.51c0-4.228-1.383-5.88-2.729-6.803m30.708 38.471c3.766-5.227 4.765-11.222 4.996-13.566.077-.654.077-1 .077-1V77.221c-1.153.692-2.498 1.114-3.92 1.114H56.852c-4.112 0-7.456-3.305-7.533-7.378 0-.077 0-.154-.038-.193V39.827c.845-11.838 5.765-18.986 11.606-22.868a26.6 26.6 0 0 1 5.842-2.882 72 72 0 0 0-2.92-.077 49.7 49.7 0 0 0-18.41 3.536v23.712c.039 5.074-1.998 8.225-4.343 9.762s-4.612 1.614-5.303 1.614h-2.037v6.918h1.998c.692 0 2.998.077 5.304 1.653 2.344 1.537 4.381 4.765 4.343 9.838v39.124a45.6 45.6 0 0 0 6.84 2.153c9.07-1.076 14.259-5.15 17.526-9.647M22.3 36.253v5.11c0 .885.154 2.998 1 4.651.922 1.653 2.037 2.883 5.15 2.92h1.69v-21.79a49 49 0 0 0-7.84 9.108m13.413 12.72h.039c.269 0 1.883-.076 3.266-.999 1.307-.922 2.69-2.575 2.73-6.726V19.15a46.6 46.6 0 0 0-8.033 4.958v24.865zM23.301 66.114c-.846 1.691-1 3.843-1 4.727v20.523c2.23 3.344 4.843 6.418 7.802 9.108V63.155h-1.69c-3.037.077-4.19 1.306-5.112 2.96" fill="#ec6519"/></svg>