<svg width="128" height="128" fill="none" xmlns="http://www.w3.org/2000/svg"><path d="M82.75 85.95h6.45c3.7-.05 5.15-1.45 6.1-3.05.9-1.6 1-3.45 1-3.85v-35.1c-.05-3.5-1.15-4.9-2.15-5.65-1.05-.75-2.3-.8-2.5-.8h-3.5c-2.7.05-3.75 1-4.5 2.2-.7 1.25-.9 2.85-.9 3.75zm8.7-51.6h.15c.5 0 1.9.05 3.45.85a42.4 42.4 0 0 0-19.2-11.75c-3.4 0-8.45.6-12.65 3.45-4.2 2.8-7.8 7.7-8.55 17.05v8.8c1-.6 2.1-.95 3.35-.95h11.95c3.55 0 6.45 2.85 6.45 6.4v.05c0 .2.05.45 0 .7v26c0 .15-.15 5.9-3.5 11.85-2.05 3.7-5.5 7.45-10.8 9.7.6 0 1.2.05 1.85.05 5.55 0 10.85-1.05 15.7-3V44.2c0-.15-.05-.45-.05-.8 0-1.15.15-3.25 1.3-5.25 1.15-2.05 3.55-3.85 7.2-3.8zm7.35 5.5c.35 1.15.6 2.5.55 4.05v35.15c0 .65-.05 3-1.4 5.35-1.3 2.4-4.15 4.65-8.8 4.6H82.7v13.1c14.1-6.9 23.75-21.35 23.75-38 .05-9-2.8-17.35-7.65-24.25" fill="#e30016"/><path d="M26.65 50.1c-.8-1.55-1.05-3.1-1.15-4.25-2.6 5.45-4 11.55-4 18 0 6.4 1.45 12.45 4 17.9V69.8c0-1 .1-3.2 1.2-5.4 1.05-2.2 3.45-4.3 7.15-4.25h1.45V54.3h-1.45c-3.75.05-6.15-2-7.2-4.2m16.2 14.05c-1.15-.8-2.55-.85-2.8-.85h-1.7v34.3c2.15 1.6 4.45 3 6.85 4.2V69.95c0-3.6-1.2-5-2.35-5.8m26.2 32.7c3.2-4.45 4.05-9.55 4.25-11.5.05-.55.05-.85.05-.85v-9.25c-1 .6-2.1.95-3.35.95H58.05c-3.5 0-6.35-2.8-6.45-6.3V43.45C52.35 33.4 56.5 27.3 61.5 24c1.65-1.1 3.3-1.85 5-2.45-.8-.05-1.65-.1-2.5-.1-5.5.05-10.8 1.1-15.65 3.05v20.15c.05 4.3-1.7 7-3.7 8.3s-3.95 1.4-4.5 1.4H38.4v5.85h1.7c.6 0 2.55.05 4.55 1.4 2 1.3 3.75 4.05 3.7 8.35v33.25c1.9.75 3.85 1.35 5.85 1.85 7.65-.9 12.05-4.4 14.85-8.2M28.6 40.4v4.35c0 .75.1 2.55.85 3.95.8 1.4 1.75 2.45 4.4 2.5h1.45V32.7c-2.55 2.3-4.8 4.9-6.7 7.7m11.45 10.8c.3 0 1.65-.05 2.8-.85s2.3-2.2 2.35-5.7V25.9c-2.4 1.2-4.7 2.6-6.85 4.2v21.1zm-10.6 14.6c-.75 1.45-.85 3.25-.85 4v17.45c1.9 2.85 4.15 5.45 6.65 7.75V63.3H33.8c-2.6.05-3.6 1.1-4.35 2.5" fill="#ec6519"/></svg>