<svg width="128" height="128" fill="none" xmlns="http://www.w3.org/2000/svg"><path d="m42.797 89.006 4.074 10.606 3.971-10.606h6.1l1.433 18.494h-4.126l-1.064-13.365-4.507 13.365h-3.716l-4.257-12.37-1.064 12.37H35.5l1.701-18.494zm30.633 0v2.411h-5.616V107.5h-4.28V91.417h-5.722v-2.411zM88 89a4 4 0 0 1 4 4v1.698a4 4 0 0 1-2.161 3.553A4 4 0 0 1 92 101.802v1.698a4 4 0 0 1-4 4H74.89V93.451h4.254v2.155h.001v4.352h-.001v4.31h6.353a2.156 2.156 0 0 0 0-4.31h-4.224v-4.352h4.225a2.155 2.155 0 1 0 0-4.31H74.889V89zM39.424 33.24c-3.693 15.616 2.462 30 16.414 36.575 1.642.411 2.873 1.233 4.514 1.644s2.872.822 4.514.822c1.641.411 2.872.411 4.513.411 9.028 0 17.646-4.521 24.621-11.918-4.514 11.507-13.951 17.671-24.21 19.315-1.642.411-2.873.411-4.514.411s-2.872-.411-4.514-.411a25.5 25.5 0 0 1-10.669-3.698C40.749 71.1 35.025 61.784 34.514 51.63l-.014-.308v-2.055c0-5.343 2.051-11.096 4.924-16.028zm29.955 7.808 4.514 13.561-13.541 4.285-4.514-13.325zm0-20.548c3.283 0 6.976.822 10.259 2.877 15.182 9.041 12.31 27.534 6.565 33.698 3.694-14.383-5.334-25.89-16.824-28.356-1.538-.385-2.717-.409-4.21-.41h-.606c-1.495.001-2.672.024-4.212.41-4.513.822-9.437 3.699-13.54 8.22 1.23-4.521 6.565-11.096 13.54-14.384 1.642-.822 2.873-1.233 4.514-1.644s2.873-.411 4.514-.411" fill="#ed1c24"/></svg>