<svg width="678" height="128" fill="none" xmlns="http://www.w3.org/2000/svg"><path d="m23.546 92.914 4.676 12.093 4.558-12.094h7L41.426 114H36.69l-1.22-15.24L30.295 114H26.03l-4.886-14.104L19.925 114h-4.754l1.953-21.087zm35.157 0v2.748h-6.445V114h-4.912V95.662H40.78v-2.749zm18.188-.008a3.125 3.125 0 0 1 3.125 3.126v4.806a3.12 3.12 0 0 1-1.414 2.616 3.12 3.12 0 0 1 1.414 2.615v4.806A3.125 3.125 0 0 1 76.89 114H60.378V97.981h4.883v2.458h.002v4.961h-.002v4.915h7.308a2.456 2.456 0 0 0 0-4.914h-4.865v-4.963l4.865.001a2.458 2.458 0 0 0 0-4.914H60.378v-2.618zM19.657 28.681c-4.243 17.995 2.829 34.57 18.858 42.147 1.886.473 3.3 1.42 5.186 1.894s3.3.947 5.186.947c1.885.474 3.3.474 5.186.474 10.372 0 20.272-5.21 28.286-13.733-5.185 13.26-16.029 20.363-27.815 22.257-1.885.474-3.3.474-5.186.474-1.885 0-3.3-.474-5.186-.474a29.2 29.2 0 0 1-12.257-4.262c-10.735-6.095-17.311-16.831-17.9-28.532L14 49.517V47.15c0-6.157 2.358-12.787 5.657-18.47m34.416 8.998 5.186 15.627-15.507 4.997-5.237-15.416zm0-23.679c3.772 0 8.014.947 11.786 3.315 17.444 10.418 14.143 31.729 7.543 38.833 4.243-16.575-6.129-29.835-19.33-32.677-1.885-.473-3.3-.473-5.185-.473-1.886 0-3.3 0-5.186.473-5.186.947-10.843 4.262-15.558 9.472 1.415-5.21 7.544-12.787 15.558-16.575 1.886-.947 3.3-1.421 5.186-1.894C50.772 14 52.187 14 54.073 14" fill="#ed1c24"/><path d="M306.909 22.449v17.847h-20.855q-.288 6.683.824 7.637 2.756-.039 20.031 0v5.063H288.08q2.18 7.51 7.162 12.615c4.98 5.105 6.791 5.57 8.307 5.407 1.516-.162 2.762-1.083 3.36-2.618q.599-1.535.645-3.67h4.674q-2.144 8.412-4.721 10.595c-2.576 2.182-6.383 2.692-10.244.751-3.861-1.94-10.974-9.122-13.984-15.257q-3.009-6.136-3.556-7.824h-21.135V68.4l15.573-2.021v2.868q-17.884 6.245-19.759 6.83-1.842-.495-4.138-2.053V22.45zm246.303 16.464v4.349h-6.706v10.325h8.378v3.272h-8.378v12.315l8.378-1.773v2.825l-13.458 7.005h-2.668V56.86h-6.074v-3.272h6.074V43.261h-6.074v-4.349zm-421.076-18.52v10.328h7.027v3.23l-7.027.023V46.95q.607-.146 2.298-1.064 1.69-.918 4.728 0l-7.246 6.09v22.915c0 .863-.699 1.563-1.563 1.563h-11.639v-5.952h5.507a.78.78 0 0 0 .781-.772q.103-8.772-.009-15.086-2.142.867-5.237 4.312-4.57-6.2-3.286-6.2t8.523-4.181V33.95h-8.523v-3.23h8.523V20.394zm353.889.425v49.947h7.142V20.818h8.696v49.947h19.935v5.568h-63.955v-5.568h19.308V20.818zm-46.47 8.698-5.654 7.518h15.025V74.77c0 .864-.699 1.563-1.563 1.563h-9.804v-4.328h2.609a.78.78 0 0 0 .781-.78V40.92h-42.538v35.412h-8.813V37.034h14.368l-4.738-7.518h8.55l3.802 7.518h14.866q3.388-5.477 3.388-7.518 4.488-.09 9.721 0m147.721-7.226v26.286h-9.798q1.651 8.153 3.037 10.864 1.82-.001 6.167-7.034 2.054 1.698 4.796 4.514-2.067 2.848-9.124 6.155 1.907 4.35 3.607 6.27t6.291 4.906a89 89 0 0 0-1.543 2.082c-2.396-.401-9.09-3.676-14.595-11.838q-2.667-3.955-6.402-15.497l-.136-.423H564.3v22.778l8.081-2.814q2.348.555 2.109 1.938-.69 0-11.168 5.688l-.311.168h-5.558V22.29zM352.94 48.004V74.77c0 .864-.699 1.563-1.562 1.563h-10.541v-5.479h4.621c.432 0 .782-.35.782-.781V48.005zm8.71 15.443q13.285 4.826 14.509 5.58c-1.214 1.873-4.08 5.261-4.08 6.284q0 1.022-15.355-10.386zM163.559 19.984q1.392 0 3.495 6.764-16.387 1.593-19.08.686.314 6.07 0 11.495h19.08v4.155h-5.118v31.661h-6.443v-31.66h-7.52v12.741c0 5.097-6.238 19.498-10.013 19.498h-3.221v-2.083q2.025-.624 3.975-4.182c1.931-3.522 3.235-5.127 3.261-17.64v-1.91c.002-12.094-.001-21.036-.863-22.761-.898-1.797.267-3.525 2.366-3.525 2.101 0 7.899.169 12.015-.96 4.115-1.13 6.674-2.279 8.066-2.279m74.502 2.465v4.718h-18.109v43.328h18.109v4.83h-46.052v-4.83h18.443V27.167h-15.299v-4.718zm102.253 40.295 1.951 2.883q-15.843 7.712-17.512 9.684c-1.06-2.52-3.067-4.558-4.11-5.421q2.736-1.287 19.671-7.146m320.951-23.832v3.705h-12.918v30.85c0 .862-.699 1.562-1.563 1.562h-13.313v-6.736h5.756c.431 0 .781-.35.781-.782V42.617h-19.217v-3.705zM618.39 36.88a102 102 0 0 1-4.592 7.976V75.03h-7.053V51.167l-6.672 5.232-1.938-2.919q7.054-6.534 9.218-9.346c4.034-5.244 5.11-9.242 5.734-9.546 1.439-.7 1.439 2.292 5.303 2.292M110.562 54.646l5.908 3.343q-12.165 16.757-13.172 16.757-1.006 0-3.753-1.051 4.728-6.304 6.775-9.844 2.047-3.538 4.242-9.205m75.539 0 5.908 3.343q-12.167 16.757-13.173 16.757t-3.753-1.051q4.73-6.304 6.775-9.844 2.047-3.538 4.243-9.205m249.458 1.37v14.75h-31.593v-14.75zm-6.707 3.847h-18.509V67.4h18.509zm-75.717-40.03v2.616h23.089V26.6h-24.973l-2.815 4.748h25.547v4.747h-27.976l-2.956 4.827h37.265v3.48h-18.304c.659 1.074 10.023 7.271 13.418 8.623 3.395 1.35 6.006 1.685 4.886 3.1-1.119 1.414-2.296 4.636-3.186 4.636-.411 0-3.877-2.011-10.256-7.302q-7.693 5.945-8.106 6.404-1.323-.218-3.268-1.106l7.074-9.115a401 401 0 0 1-5.508-5.24h-17.698q-.965 1.044-4.43 4.142l6.038 10.71q-2.398 1.172-3.029 1.656-1.194-1.995-7.524-8.383a1556 1556 0 0 1-10.382 8.963q-2.19 1.766-3.972-2.463 7.941-4.102 15.896-14.625h-15.372v-3.416h17.741q1.195 0 3.526-4.891h-16.487v-4.748h18.896q.864 0 2.783-4.747h-23.926v-4.15h24.987v-2.618zm113.421 10.791q.999 7.27 2.361 12.713 1.364 5.443 4.961 16.526-.749 1.861-2.897 1.861c-2.147 0-13.419-27.852-11.823-27.852q1.597 0 7.398-3.248m53.799 1.29s.568 2.7-1.62 7.449q-2.187 4.748-9.613 22.361h-3.871q3.183-9.306 4.589-14.905 1.407-5.598 2.9-14.904zM416.507 43.337q-12.844 11.593-14.143 11.374t-1.3-1.808l7.547-9.566zm14.541 0q-.725 6.609 1.199 6.609h5.312v2.957h-11.373a1.56 1.56 0 0 1-1.563-1.563v-8.003zm-250.566-6.45q3.025 2.06 4.602 3.217t4.798 3.677l-3.878 4.267-.008.009s-1.293-1.559-4.083-4.276q-1.106-1.079-4.083-3.677zm-75.538 0q3.024 2.06 4.602 3.217t4.799 3.677l-3.88 4.267-.007.009s-1.292-1.559-4.083-4.276q-1.108-1.079-4.083-3.677zm172.022 3.295h-18.324v7.779q15.587.088 19.286 0-.61-.927-.962-7.78m303.359-2.638h-15.868v7.313h15.868zm27.074-12.4c2.488-3.547 4.551-6.727 5.442-4.651q.892 2.076 3.568 2.394-4.46 5.685-6.924 8.46-2.464 2.778-7.695 8.015l-4.249-1.818q7.37-8.854 9.858-12.4m-69.282-5.278q1.477.953 6.057 2.612-3.764 4.705-5.239 6.943h15.949v3.56h-18.809l-5.205 4.973-2.901-1.876q4.248-4.96 5.653-7.169c2.67-4.197 3.741-7.62 4.495-9.043M298.435 26.6h-39.793v9.494h39.793zm281.89-.024h-15.868v7.312h15.868zm-474.924-6.592q3.07 2.182 4.754 3.484 1.686 1.302 5.032 4.078-2.438 3.616-5.031 4.15 0-.822-7.864-8.228zm75.539 0q3.07 2.182 4.754 3.484t5.031 4.078q-2.438 3.616-5.031 4.15 0-.822-7.864-8.228zm238.254-1.686 2.978 5.852h28.204v3.325h-62.365V24.15h27.805l-3.179-5.852zm240.082 3.992v4.286h-35.222V22.29zM99.155 110.807l12.659-13.283h-12.66v-2.612h17.092v2.756l-12.488 12.902h12.488v2.652H99.155zm23.451-15.895v7.547h10.476v-7.547H137v18.31h-3.918v-8.19h-10.476v8.19h-3.918v-18.31zm34.648 0v2.612h-11.688v4.948h10.97v2.625h-10.97v5.473h12.188v2.652h-15.871v-18.31zm16.37 0v12.881q0 1.446-.546 2.477a4.8 4.8 0 0 1-1.469 1.685 6.4 6.4 0 0 1-2.145.959c-.816.205-1.363.308-2.579.308q-1.215 0-2.776-.685v-2.676q1.463.58 1.805.678.514.148 1.02.148.409 0 .898-.116.489-.115.921-.39a2.3 2.3 0 0 0 .726-.743q.295-.468.295-1.171V94.912zm7.325 0v18.31h-3.662v-18.31zm15.485 0 7.71 18.31h-3.734l-2.267-5.356h-7.59q-.362.884-.742 1.78l-.384.898q-.574 1.335-1.126 2.678h-3.69l7.711-18.31zm-1.695 3.742h-.807l-2.522 6.464h5.768zm17.233-3.743 9.273 13.927V94.912h3.653v18.31h-4.118l-9.319-14.058v14.058h-3.655v-18.31zm21.439 8.552q0 1.72.508 3.046.507 1.326 1.377 2.234a5.85 5.85 0 0 0 2.022 1.379 6.4 6.4 0 0 0 2.445.473 5 5 0 0 0 2.077-.453 6.8 6.8 0 0 0 1.838-1.206 7 7 0 0 0 1.376-1.74c.361-.633.597-1.33.693-2.053h-6.338v-2.64h9.906v10.252h-2.723l-.43-2.213a10.9 10.9 0 0 1-2.923 1.893 10 10 0 0 1-1.692.573 7.3 7.3 0 0 1-1.737.214q-2.308 0-4.161-.74t-3.161-2.046a8.9 8.9 0 0 1-2.007-3.093q-.699-1.787-.699-3.88 0-1.213.3-2.413c.198-.795.492-1.563.877-2.287a9.8 9.8 0 0 1 1.422-2.013 9 9 0 0 1 1.945-1.606 9.8 9.8 0 0 1 2.438-1.067 10.5 10.5 0 0 1 2.907-.386q2 0 3.568.493 1.57.493 2.753 1.366a8.4 8.4 0 0 1 1.992 2.073c.545.814.977 1.697 1.284 2.627H245.5q-.815-1.986-2.245-2.967-1.43-.98-3.584-.98-1.384 0-2.53.567c-.758.374-1.431.9-1.976 1.546a7.2 7.2 0 0 0-1.292 2.281 8.2 8.2 0 0 0-.462 2.766m32.048-8.551 5.771 14.359 5.889-14.36h3.937v18.311h-3.493v-12.089l-4.75 12.089h-2.959l-4.839-12.129v12.129h-3.492v-18.31zm25.363 0v18.31h-3.662v-18.31zm7.827 0 9.273 13.926V94.912h3.654v18.31h-4.118l-9.321-14.058v14.058h-3.653v-18.31zm32.46 0v2.612h-6.736v15.698h-3.604V97.524h-6.752v-2.612zm13.043 0 7.711 18.31h-3.735l-2.267-5.356h-7.59q-.362.884-.742 1.78l-.384.898q-.574 1.335-1.126 2.678h-3.689l7.71-18.31zm-1.66 3.671h-.881l-2.499 6.147h5.844zm15.475-3.671v18.31h-3.663v-18.31zm13.404 8.284q0 1.92.548 3.32.547 1.4 1.442 2.313a5.8 5.8 0 0 0 2.027 1.36 6.2 6.2 0 0 0 2.289.446q1.187 0 2.158-.419a5.8 5.8 0 0 0 1.704-1.114 6.2 6.2 0 0 0 1.21-1.58 7.3 7.3 0 0 0 .694-1.819h3.7a10.6 10.6 0 0 1-1.133 2.953 8.9 8.9 0 0 1-1.974 2.386 9 9 0 0 1-2.79 1.6q-1.596.58-3.569.58-2.281 0-4.116-.674-1.835-.673-3.13-1.959t-1.996-3.153q-.702-1.866-.702-4.253 0-1.853.663-3.567a9 9 0 0 1 1.935-3.032q1.272-1.32 3.114-2.107 1.843-.786 4.201-.786 2.005 0 3.577.493t2.759 1.366a8.4 8.4 0 0 1 1.997 2.073 10.8 10.8 0 0 1 1.287 2.627h-3.777q-.817-1.986-2.251-2.967-1.434-.98-3.592-.98-1.387 0-2.536.547a6.2 6.2 0 0 0-1.981 1.487 6.8 6.8 0 0 0-1.295 2.193 7.7 7.7 0 0 0-.463 2.666m36.649.213q0 2.16-.651 3.967t-1.9 3.106q-1.25 1.3-3.067 2.02t-4.164.72-4.156-.727-3.059-2.026q-1.248-1.3-1.892-3.107-.644-1.806-.644-3.965 0-2.161.644-3.947t1.892-3.067q1.25-1.279 3.059-1.986 1.81-.706 4.156-.706 2.347 0 4.164.713 1.818.713 3.067 1.993t1.9 3.066.651 3.947zm-3.14.146q0-1.593-.525-2.836a6 6 0 0 0-1.436-2.09 6.2 6.2 0 0 0-2.134-1.292 7.7 7.7 0 0 0-2.635-.445q-1.43 0-2.651.445a6.05 6.05 0 0 0-2.119 1.292 6 6 0 0 0-1.411 2.09q-.517 1.242-.517 2.836t.517 2.849a6.3 6.3 0 0 0 1.411 2.127 6 6 0 0 0 2.119 1.33 7.5 7.5 0 0 0 2.651.458 7.5 7.5 0 0 0 2.635-.458 6.2 6.2 0 0 0 2.134-1.33 6.2 6.2 0 0 0 1.436-2.127q.526-1.255.526-2.849zm11.959-8.643 5.771 14.359 5.89-14.36h3.936v18.311h-3.492v-12.089l-4.75 12.089h-2.96l-4.838-12.129v12.129h-3.493v-18.31zm25.637 0 5.771 14.359 5.89-14.36h3.936v18.311h-3.492v-12.089l-4.75 12.089h-2.96l-4.838-12.129v12.129h-3.492v-18.31zm37.073 0v2.612H467.86v4.948h10.971v2.625H467.86v5.473h12.188v2.652h-15.871v-18.31zm21.619 5.368q0 1.207-.796 2.264-.795 1.056-2.421 1.831.77.21 1.324.604.553.393.904.886.352.492.52 1.05.167.557.167 1.109v2.651q0 .5.311 1.168.349.735.845 1.379H497.7a3.4 3.4 0 0 1-.645-1.326 4.4 4.4 0 0 1-.101-.616l-.022-.356-.003-.157v-2.783a2 2 0 0 0-.176-.813 1.96 1.96 0 0 0-.561-.728q-.385-.322-1.022-.526-.636-.203-1.541-.203h-5.964v7.508h-3.955v-18.31h9.919q1.809-.001 3.216.472 1.408.472 2.371 1.233t1.458 1.72.494 1.943m-13.795 3.176h6.11q.739 0 1.399-.222a3.9 3.9 0 0 0 1.167-.616 2.9 2.9 0 0 0 .798-.953q.293-.558.293-1.232 0-.66-.276-1.225a2.9 2.9 0 0 0-.763-.974 3.7 3.7 0 0 0-1.159-.645 4.4 4.4 0 0 0-1.459-.236h-6.11zm20.73-.26q0 1.92.547 3.32t1.441 2.313a5.8 5.8 0 0 0 2.027 1.36 6.2 6.2 0 0 0 2.29.446q1.187 0 2.159-.419a5.8 5.8 0 0 0 1.703-1.114 6.2 6.2 0 0 0 1.21-1.58 7.3 7.3 0 0 0 .694-1.819h3.7a10.6 10.6 0 0 1-1.133 2.953 8.9 8.9 0 0 1-1.974 2.386 9 9 0 0 1-2.79 1.6q-1.596.58-3.569.58-2.281 0-4.116-.674-1.834-.673-3.13-1.959t-1.996-3.153q-.702-1.866-.702-4.253 0-1.853.663-3.567a9 9 0 0 1 1.935-3.032q1.272-1.32 3.114-2.107 1.843-.786 4.2-.786 2.006 0 3.578.493t2.759 1.366a8.4 8.4 0 0 1 1.997 2.073 10.8 10.8 0 0 1 1.287 2.627h-3.777q-.817-1.986-2.251-2.967-1.434-.98-3.592-.98-1.387 0-2.536.547a6.1 6.1 0 0 0-1.981 1.487 6.8 6.8 0 0 0-1.295 2.193 7.6 7.6 0 0 0-.462 2.666m21.998-8.284v18.31h-3.662v-18.31zm14.264 0 7.71 18.31h-3.733l-2.269-5.356h-7.589q-.362.884-.742 1.78l-.384.898q-.574 1.335-1.126 2.678h-3.69l7.711-18.31zm-1.742 3.674h-.624l-2.62 6.086h5.539zm16.927-3.674v15.659h10.838v2.651h-14.649v-18.31zm20.604 0h8.452q1.466 0 2.624.367 1.16.367 1.96.991.801.623 1.227 1.45.426.828.426 1.76 0 1.153-.591 2.145-.59.992-1.787 1.779.958.354 1.63.846.674.493 1.1 1.077.426.583.628 1.24.202.656.202 1.339a4.2 4.2 0 0 1-.538 2.074 5.6 5.6 0 0 1-1.444 1.687 7.3 7.3 0 0 1-2.087 1.135 7.3 7.3 0 0 1-2.453.42h-9.349zm3.663 7.323h4.855q.803 0 1.484-.211a3.9 3.9 0 0 0 1.173-.575c.312-.224.573-.514.763-.848q.27-.485.27-1.019 0-.492-.197-.896a1.95 1.95 0 0 0-.598-.704q-.402-.301-1.025-.465a5.8 5.8 0 0 0-1.46-.164h-5.265zm0 8.546h5.509q.752 0 1.511-.167a4.7 4.7 0 0 0 1.369-.522c.393-.224.733-.533.993-.903q.384-.55.384-1.328 0-.639-.35-1.224a3.2 3.2 0 0 0-1.01-1.015q-.66-.431-1.612-.688-.951-.258-2.136-.257h-4.659zm27.693-15.87 7.71 18.311h-3.734l-2.267-5.356h-7.59q-.362.884-.743 1.78l-.383.898q-.575 1.335-1.127 2.678h-3.689l7.711-18.31zm-1.75 3.694h-.733l-2.57 6.125h5.787zm17.287-3.693 9.274 13.926V94.912h3.653v18.31h-4.118l-9.32-14.058v14.058h-3.653v-18.31zm22.769 0v8.019l9.58-8.02h4.759l-8.874 7.39 9.109 10.921h-4.476l-7.161-8.768-2.937 2.402v6.366h-3.738v-18.31z" fill="#585755"/></svg>