<svg width="60" height="60" fill="none" xmlns="http://www.w3.org/2000/svg"><path d="M7.555 54.67a5.55 5.55 0 0 1-3.926-1.626A5.57 5.57 0 0 1 2 49.117V11.563c0-1.476.585-2.891 1.627-3.934A5.55 5.55 0 0 1 7.555 6h7.48a6.9 6.9 0 0 1 3.997 1.268l11.394 9.362-9.647 8.17a2.3 2.3 0 0 1-3.026 0l-2.849-2.505a2.302 2.302 0 0 0-3.583 1.268 2.3 2.3 0 0 0-.082.609c-.002.596.2 1.174.573 1.639l10.806 14.314A7.8 7.8 0 0 1 24.2 44.88v7.022a2.78 2.78 0 0 1-1.713 2.569c-.337.14-.698.212-1.062.212H7.554" fill="#1677ff"/><path d="M33.917 34.136c-.633.539-1.392 1.065-2.459 1.065a3.88 3.88 0 0 1-2.532-1.065l-8.77-7.418a4.3 4.3 0 0 0 1.984-.98l1.266-1.148L43.742 7.788A6.9 6.9 0 0 1 48.395 6h3.586a5.55 5.55 0 0 1 3.928 1.63 5.57 5.57 0 0 1 1.627 3.934v37.552h-.023a5.57 5.57 0 0 1-1.625 3.932 5.55 5.55 0 0 1-3.926 1.628H38.098a2.77 2.77 0 0 1-2.567-1.715c-.14-.338-.212-.7-.212-1.065V44.34a7.84 7.84 0 0 1 1.498-4.622l8.498-9.33a2.313 2.313 0 0 0-1.466-3.902 2.3 2.3 0 0 0-1.62.481h.016z" fill="#00b6ff"/></svg>