<svg width="128" height="128" fill="none" xmlns="http://www.w3.org/2000/svg"><path d="M64.5 55.5 55 65l9.5 9.5L74 65z" fill="#e60012"/><path d="M94.4 48.55s-7.55-14.3-28.7-5.4c0 0 12.05-2.9 19.2 4.05L102 67.5l-34.45 35h8.15l34.8-35.6zm-9.3 3.05s-7.95-10.05-24.85-2.3c0 0 15.65-.3 19 11.8C81.4 68.85 75 74.45 75 74.45L47.85 102.5h16.1L98.3 66.9zM62.8 84.9s-12.05 2.9-19.2-4.05L26.5 60.5l34.45-35H52.8L18 61.1l16.1 18.4c0-.05 7.55 14.3 28.7 5.4m-19.4-8.5s7.95 10.05 24.8 2.3c0 0-15.65.3-19-11.8-2.1-7.75 4.3-13.35 4.3-13.35L80.65 25.5h-16.1L30.2 61.1z" fill="#005bac"/></svg>