<svg width="128" height="128" fill="none" xmlns="http://www.w3.org/2000/svg"><path fill-rule="evenodd" clip-rule="evenodd" d="M22.25 64.213c0-23.21 18.818-42.027 42.03-42.027 23.213 0 42.03 18.816 42.03 42.027 0 23.21-18.817 42.029-42.03 42.029-23.212 0-42.03-18.818-42.03-42.03" fill="url(#paint0_radial_63_12154)"/><path fill-rule="evenodd" clip-rule="evenodd" d="M66.695 67.362a35.2 35.2 0 0 1-11.11 7.005 35.1 35.1 0 0 0-2.158 12.149 34.95 34.95 0 0 0 6.011 19.657 42 42 0 0 0 5.014.327c.98 0 1.938-.079 2.901-.148-4.862-5.195-7.86-12.156-7.86-19.836a28.96 28.96 0 0 1 7.202-19.154m-2.069-6.568a35 35 0 0 0-2.277 2.326 29 29 0 0 0 2.277-2.326m23.942-9.416c-4.53 0-8.86.857-12.836 2.418a35.1 35.1 0 0 1-6.773 11.256 28.97 28.97 0 0 1 19.609-7.607c6.745 0 12.938 2.316 17.871 6.172-.053-2.683-.335-5.309-.87-7.846a34.94 34.94 0 0 0-17.001-4.393" fill="#fffffe" fill-opacity=".54"/><path fill-rule="evenodd" clip-rule="evenodd" d="M68.959 65.052c-.797.727-1.553 1.5-2.265 2.31a36 36 0 0 0 2.264-2.31m-6.61-1.932a28.96 28.96 0 0 1-19.6 7.6q-1.111 0-2.203-.083a52 52 0 0 0-1.773 5.923q1.958.224 3.976.224c4.53 0 8.86-.857 12.836-2.417A35.1 35.1 0 0 1 62.35 63.12m-40.692-1.5c-.028.633-.096 1.26-.096 1.903 0 2.226.223 4.394.557 6.525a35.2 35.2 0 0 0 10.083 5.11 58 58 0 0 1 1.678-5.823 29.15 29.15 0 0 1-12.222-7.716M77.7 37.996q-3.045.685-5.941 1.718.062.955.063 1.93a28.96 28.96 0 0 1-7.196 19.15 35.2 35.2 0 0 1 11.105-6.999 35.1 35.1 0 0 0 2.157-12.151q-.001-1.85-.188-3.649M63.683 21.5a29.1 29.1 0 0 1 6.837 11.538 58 58 0 0 1 5.847-1.624 35 35 0 0 0-4.26-9.053 42.2 42.2 0 0 0-8.424-.861" fill="#fffffe" fill-opacity=".51"/><path fill-rule="evenodd" clip-rule="evenodd" d="M70.52 33.038a58 58 0 0 1 5.847-1.624 35 35 0 0 1 1.333 6.582q-3.045.687-5.94 1.718a28.8 28.8 0 0 0-1.24-6.676m-5.894 27.756a35.2 35.2 0 0 1 11.105-6.998 35.1 35.1 0 0 1-6.772 11.256 29 29 0 0 0-2.264 2.31 35.2 35.2 0 0 1-11.11 7.005 35.1 35.1 0 0 1 6.764-11.248 29 29 0 0 0 2.277-2.325M33.88 69.335a58 58 0 0 0-1.678 5.823 34.7 34.7 0 0 0 6.573 1.402c.474-2.023 1.069-4 1.772-5.923a29 29 0 0 1-6.667-1.302m16.506-24.648a58.6 58.6 0 0 1 7.05-5.35q.062.683.062 1.382c0 3.842-1.429 7.35-3.783 10.02q-.81.76-1.587 1.556a15.1 15.1 0 0 1-9.788 3.583q-.856 0-1.687-.093a58.6 58.6 0 0 1 5.493-6.942 9 9 0 0 0 4.24-4.156" fill="#fffffe" fill-opacity=".8"/><path fill-rule="evenodd" clip-rule="evenodd" d="M88.309 95.53a8.967 8.967 0 0 1-8.97-8.97 8.966 8.966 0 0 1 8.97-8.97 8.967 8.967 0 0 1 8.97 8.97 8.967 8.967 0 0 1-8.97 8.97m0-24.129c-8.37 0-15.16 6.783-15.16 15.159 0 7.09 4.878 13.026 11.454 14.683A42.18 42.18 0 0 0 102.6 81.54c-2.072-5.904-7.681-10.139-14.292-10.139" fill="#fffffe" fill-opacity=".44"/><path fill-rule="evenodd" clip-rule="evenodd" d="M53.714 50.74q-.81.759-1.587 1.554.85-.72 1.587-1.555m-7.319-24.618c-8 3.759-14.633 9.934-18.913 17.622 1.294 6.385 6.6 11.314 13.17 12.041a58.6 58.6 0 0 1 5.493-6.942 8.95 8.95 0 0 1-3.806.845 8.967 8.967 0 0 1-8.971-8.969 8.97 8.97 0 1 1 17.94 0 8.9 8.9 0 0 1-.923 3.968 58.6 58.6 0 0 1 7.05-5.35c-.575-6.348-5.07-11.556-11.04-13.215" fill="#fffffe" fill-opacity=".62"/><path fill-rule="evenodd" clip-rule="evenodd" d="M57.435 39.337a58 58 0 0 1 13.086-6.299 28.8 28.8 0 0 1 1.238 6.677A51.7 51.7 0 0 0 53.714 50.74a15.1 15.1 0 0 0 3.783-10.02q0-.7-.062-1.383m18.932-7.923a58.6 58.6 0 0 1 12.473-1.387c2.873 2.096 5.495 4.516 7.75 7.26a51.9 51.9 0 0 0-18.89.71 35 35 0 0 0-1.333-6.583m-45.677 57c0-4.558.523-8.998 1.511-13.256a34.7 34.7 0 0 0 6.573 1.402 51.9 51.9 0 0 0-.653 20.385 42 42 0 0 1-7.406-7.541l-.011-.387q-.012-.3-.014-.603m21.437-36.12a15.1 15.1 0 0 1-9.788 3.585q-.856 0-1.688-.093a58 58 0 0 0-6.773 13.55 29 29 0 0 0 6.668 1.301 51.7 51.7 0 0 1 11.581-18.342m-1.742-7.607a59 59 0 0 0-4.24 4.156 9 9 0 0 0 4.24-4.156" fill="#fffffe" fill-opacity=".58"/><defs><radialGradient id="paint0_radial_63_12154" cx="0" cy="0" r="1" gradientUnits="userSpaceOnUse" gradientTransform="matrix(0 67.4605 -67.464 0 64.28 64.214)"><stop stop-color="#f3c700"/><stop offset="1" stop-color="#d6342e"/></radialGradient></defs></svg>