<svg width="508" height="128" fill="none" xmlns="http://www.w3.org/2000/svg"><path d="M237.539 83.567c6.022 0 9.702 4.034 9.702 9.452 0 5.772-4.016 9.728-9.998 9.728-5.86 0-9.574-4.06-9.574-9.408 0-5.695 4.032-9.772 9.87-9.772m28.794 0c2.449 0 4.339.48 5.178.933l-.927 3.403c-.958-.42-2.372-.804-4.084-.804-3.677 0-6.484 2.093-6.484 6.055 0 3.48 2.329 6.012 6.523 6.012 1.492 0 3.091-.293 4.041-.708l.706 3.369c-.817.413-2.795.92-5.322.92-6.891 0-10.502-4.046-10.502-9.334 0-6.094 4.686-9.846 10.871-9.846m16.221 0c6.023 0 9.703 4.034 9.703 9.452 0 5.772-4.018 9.728-9.999 9.728-5.859 0-9.573-4.06-9.573-9.408 0-5.695 4.032-9.772 9.869-9.772m106.299 0c2.448 0 4.337.48 5.178.933l-.927 3.403c-.959-.42-2.374-.804-4.084-.804-3.677 0-6.484 2.093-6.484 6.055 0 3.48 2.327 6.012 6.521 6.012 1.493 0 3.093-.293 4.042-.708l.707 3.369c-.817.413-2.796.92-5.322.92-6.891 0-10.502-4.046-10.502-9.334 0-6.094 4.685-9.846 10.871-9.846m-223.031.391v18.398h-4.306V83.958zm161.492 0 1.905 5.98a78 78 0 0 1 1.644 6.621h.099c.578-2.157 1.271-4.702 1.943-6.657l2.123-5.944h5.997l.944 18.398h-4.324l-.272-7.239a229 229 0 0 1-.157-8.07h-.077c-.672 2.48-1.541 5.214-2.348 7.632l-2.472 7.376h-3.466l-2.134-7.325q-1.062-3.807-1.838-7.683h-.055c-.105 2.668-.198 5.68-.315 8.129l-.352 7.18h-4.11l1.129-18.398zm153.235 0v8.083h.067c.439-.666.932-1.288 1.387-1.877l4.747-6.206h5.511l-6.752 7.77 7.164 10.628h-5.161l-5.154-8.039-1.809 2.066v5.973h-4.316V83.958zm-178.286 0 1.904 5.98a79 79 0 0 1 1.645 6.621h.099c.577-2.157 1.272-4.702 1.943-6.657l2.123-5.944h5.997l.943 18.398h-4.324l-.271-7.239a229 229 0 0 1-.158-8.07h-.076c-.672 2.48-1.541 5.214-2.348 7.632l-2.472 7.376h-3.466l-2.134-7.325q-1.062-3.808-1.841-7.683h-.054c-.103 2.668-.196 5.68-.314 8.129l-.353 7.18h-4.109l1.129-18.398zm65.342-.391c2.981 0 4.94.466 6.295 1.505 1.091.834 1.782 2.163 1.782 3.913 0 2.482-1.899 4.08-3.382 4.554v.098c1.285.525 2.03 1.781 2.532 3.394.638 2.123 1.212 4.588 1.584 5.325h-4.428c-.3-.547-.773-1.916-1.376-4.303-.58-2.331-1.415-2.943-3.298-2.971h-1.469v7.274h-4.304V83.981c1.405-.226 3.57-.414 6.064-.414m-166.844 0c2.714 0 4.816.508 5.843.993l-.957 3.419c-1.188-.499-2.615-.902-5.027-.902-3.83 0-6.715 2.04-6.715 5.782 0 3.594 2.635 6.028 6.64 6.028 1.15 0 2.092-.134 2.487-.311v-3.681h-3.258V91.54h7.541v9.652c-1.463.489-4.153 1.163-6.951 1.163-3.798 0-6.508-.926-8.37-2.687-1.732-1.615-2.686-3.907-2.686-6.455 0-5.93 4.695-9.647 11.453-9.647m260.538.391 4.191 6.593c1.297 2.097 2.443 4.385 3.387 6.624l.077-.01c-.302-2.602-.33-4.83-.33-7.41v-5.797h4.086v18.398h-4.765l-4.371-7.115c-1.268-2.129-2.613-4.496-3.672-6.824l-.105.011c.139 2.634.165 5.16.165 7.933v5.995h-4.084V83.958zm-52.033 0v3.508h-8.128v3.701h7.662v3.509h-7.662v4.171h8.55v3.509H396.77V83.958h12.496m-192.682-.391c2.787 0 4.29.261 5.649.944 1.377.636 2.437 1.9 2.437 3.724 0 1.615-.974 3.125-3.111 3.883v.06c2.072.533 3.762 2.085 3.762 4.554 0 1.74-.861 3.097-2.083 4.009-1.42 1.048-3.737 1.615-7.559 1.615-2.26 0-3.882-.153-4.841-.293V83.977c1.086-.202 3.507-.41 5.746-.41m230.12.391 6.434 18.398h-4.807l-1.621-4.898h-5.94l-1.459 4.898h-4.571l6.144-18.398zm-22.267-.391c2.787 0 4.291.261 5.65.944 1.376.636 2.437 1.9 2.437 3.724 0 1.615-.975 3.125-3.113 3.883v.06c2.073.533 3.764 2.085 3.764 4.554 0 1.74-.863 3.097-2.083 4.009-1.422 1.048-3.738 1.615-7.56 1.615-2.259 0-3.881-.153-4.841-.293V83.977c1.085-.202 3.505-.41 5.746-.41m-277.854.391 4.192 6.593c1.296 2.097 2.443 4.385 3.386 6.624l.078-.01c-.303-2.602-.33-4.83-.33-7.41v-5.797h4.084v18.398h-4.763l-4.372-7.115c-1.267-2.129-2.615-4.496-3.672-6.824l-.104.011c.137 2.634.164 5.16.164 7.933v5.995h-4.084V83.958zm211.404 0v3.508h-8.126v3.701h7.661v3.509h-7.661v4.171h8.549v3.509h-12.918V83.958zm-182.829 0 4.192 6.593c1.297 2.097 2.444 4.385 3.386 6.624l.077-.01c-.301-2.602-.33-4.83-.33-7.41v-5.797h4.085v18.398h-4.761l-4.373-7.115c-1.269-2.129-2.614-4.496-3.673-6.824l-.104.011c.137 2.634.164 5.16.164 7.933v5.995h-4.085V83.958zm62.306 3.006c-3.267 0-5.196 2.778-5.196 6.255 0 3.438 1.999 6.131 5.2 6.131 3.23 0 5.175-2.647 5.175-6.2 0-3.362-1.918-6.186-5.179-6.186m45.015 0c-3.266 0-5.196 2.778-5.196 6.255 0 3.438 1.999 6.131 5.201 6.131 3.229 0 5.174-2.647 5.174-6.2 0-3.362-1.918-6.186-5.178-6.186zm-65.752 7.059h-1.622v5.066c.452.073 1.019.078 1.844.078 2.013 0 3.815-.675 3.815-2.64 0-1.84-1.763-2.504-4.037-2.504m207.854 0h-1.623v5.066c.453.073 1.017.078 1.844.078 2.014 0 3.816-.675 3.816-2.64 0-1.84-1.765-2.504-4.037-2.504m19.063-7.031h-.054c-.295 1.036-.572 2.264-.903 3.334l-1.24 3.925h4.546l-1.318-3.93c-.363-1.076-.715-2.3-1.031-3.33m-75.594-.184c-1.22 0-1.882.078-2.205.15v4.992h1.953c2.231 0 3.581-.993 3.581-2.613 0-1.74-1.331-2.53-3.329-2.53m56.923-.094c-1.071 0-1.64.065-2.015.132v4.102h1.528c2.483 0 3.678-.86 3.678-2.185 0-1.414-1.189-2.05-3.19-2.05zm-207.852 0c-1.071 0-1.642.065-2.016.132v4.102h1.527c2.483 0 3.679-.86 3.679-2.185 0-1.414-1.189-2.05-3.19-2.05" fill="#231916"/><path d="M102.927 101.165a52 52 0 0 0 5.734-7.212 52 52 0 0 0 1.975-3.263c4.141-7.428 6.498-15.985 6.498-25.093 0-6.98-1.388-13.64-3.899-19.712a139 139 0 0 0-6.116 4.041c1.356 1.877 6.637 10.887 2.347 32.697C99.199 27.678 48.38 21.452 48.38 21.452c-10.004 1.788-16.62 6.304-16.62 6.304 62.41 14.99 70.197 62.398 71.167 73.409M83.491 114a51.6 51.6 0 0 0 12.268-6.562C79.32 52.174 23.494 36.272 23.494 36.272l-.877.758a51.3 51.3 0 0 0-5.126 9.866A51.4 51.4 0 0 0 14 65.596c0 8.212 1.914 15.97 5.322 22.861.33.63.995 1.995 1.406 2.584l.25-1.511c-3.982-15.16-.888-30.16 2.103-39.099C53.443 70.478 76.293 99.35 83.491 114" fill="#0e70bb"/><path d="M34.641 106.899a51.5 51.5 0 0 0 11.139 6.366c29.166-40.97 56.465-60.553 67.454-67.378a51.4 51.4 0 0 0-5.76-10.36c-49.38 14.927-68.496 59.381-72.833 71.372M86.24 18.315C79.912 15.535 72.919 14 65.566 14c-13.604 0-25.33 5.237-34.54 13.85l.733-.092c18.12-10.392 41.903-8.686 49.473-7.387-56.502 15.454-57.884 56.677-60.24 71.192a52 52 0 0 0 6.703 9.057c7.235-55.109 55.476-67.058 71.89-73.8a51.5 51.5 0 0 0-12.851-8.284 10 10 0 0 0-.495-.222" fill="#81c927"/><path d="M99.446 55.612a70 70 0 0 0-9.921-12.805 105 105 0 0 0-12.439 7.603A80.3 80.3 0 0 1 89.19 64.18a215 215 0 0 1 10.257-8.567m-19.59-21.047c-5.224-3.712-10.442-6.402-15.094-8.345-5.218 2.355-9.792 4.984-13.794 7.793 5.533 2.346 10.473 4.985 14.893 7.825 4.76-2.912 9.513-5.288 13.995-7.273M46.06 21.925a51 51 0 0 0-6.312 1.908 67 67 0 0 1 6.312-1.908m32.466 52.316c-4.197-5.32-8.725-9.975-13.319-14.021a118.4 118.4 0 0 0-12.665 14.186c4.744 4.65 9.08 9.314 12.938 13.825q6.285-7.217 13.046-13.99m-25.21-23.207a125 125 0 0 0-13.068-7.748 63.8 63.8 0 0 0-9.25 12.686 197 197 0 0 1 10.4 8.263c3.595-5.077 7.643-9.438 11.917-13.2" fill="#256f3e"/><path d="M425.341 25.241c3.246 0 5.876 2.621 5.876 5.853v12.291c0 3.234-2.63 5.853-5.876 5.853h-6.363c.156.53.857 2.78 2.259 5.509 4.627-1.666 9.918-4.555 9.918-4.555v7.071c-1.49 1.114-4.337 2.344-6.223 3.096 1.932 2.28 4.39 4.343 7.46 5.53v5.933s-16.865-2.762-21.921-22.703l.031.119h-.963v15.317a1.42 1.42 0 0 0 .42 1.007 1.43 1.43 0 0 0 1.009.416h4.698v5.062h-9.854a4.336 4.336 0 0 1-4.344-4.336V29.477a4.243 4.243 0 0 1 4.252-4.236zm68.506 13.31v5.104h-8.774v22.01c0 3.186-2.554 5.766-5.706 5.766h-11.266V66.33h5.057c1.604 0 2.905-1.314 2.905-2.935v-19.74h-15.488V38.55zm-95.902 0v5.104h-5.602v5.953h5.602v5.105h-5.602v10.183c0 .792.634 1.435 1.413 1.435h4.189v5.1h-9.025c-2.373 0-4.294-1.95-4.294-4.37V54.714h-5.47v-5.105h5.47v-5.953h-5.47V38.55zm-47.258-15.267.973 2.898h20.841v5.097h-9.043c-.361 2.629-2.807 5.251-2.807 5.251h6.441a3.57 3.57 0 0 1 3.565 3.577v26.961a4.347 4.347 0 0 1-4.342 4.363h-9.123v-5.093h4.234a1.43 1.43 0 0 0 1.011-.42 1.43 1.43 0 0 0 .418-1.013v-12.01c-.959-.354-2.643-1.055-4.677-2.245v10.703a4.217 4.217 0 0 1-4.211 4.223h-14.922a4.217 4.217 0 0 1-4.21-4.223V50.819c-2.574 1.505-4.609 2.076-5.522 2.271v18.341h-7.804V40.107a3.57 3.57 0 0 1 3.565-3.577h6.411s-2.445-2.622-2.807-5.25h-9.021v-5.098h21.862l-.974-2.898zM211.62 50.294c-.824 12.98-4.142 20.746-4.142 20.746h-7.992c3.876-7.662 4.602-20.747 4.602-20.747zm247.389-13.7s-1.487 4.002-4.988 7.918V71.04h-8.97V50.719a20.4 20.4 0 0 1-5.222 1.139v-5.871s7.607-3.376 10.658-9.394zm-265.786 5.48v4.832h-19.804v18.378c0 3.18-2.564 5.755-5.729 5.755h-11.314v-5.092h5.077a2.924 2.924 0 0 0 2.917-2.932V46.906h-23.208v-4.832zm80.433-4.307v23.397c-.005.107-.205 5.168 5.647 5.168h33.7v4.708h-36.65c-3.158 0-5.267-1.707-6.399-4.132 0 0-3.222 4.132-9.031 4.132v-6.388c1.603-.096 4.915-1.81 4.915-4.93v-17.13h-5.288v-4.824zm-33.971-14.483v4.53h10.018a4.19 4.19 0 0 1 4.193 4.19v6.788h-7.42v-4.764a2.02 2.02 0 0 0-.594-1.431 2.03 2.03 0 0 0-1.431-.593h-4.766v10.962h8.45c1.614 0 5.117-.531 3.185 4.91-1.108 3.118-3.556 8.274-9.127 13.117 5.5 3.13 10.592 4.417 11.029 4.524l.031.007v5.516c-7.046-1.293-12.466-3.468-16.663-6.02-4.064 2.42-9.187 4.552-15.67 6.02v-5.516s4.998-1.026 10.635-4.201c-5.042-4.459-7.447-9.293-8.827-12.488-.02 4.835-.138 6.52-.271 7.875-1.059 10.713-10.445 14.33-10.445 14.33v-7.25c2.944-2.052 3.299-8.013 3.299-10.75V32.005a4.19 4.19 0 0 1 4.193-4.19h12.761v-4.53zm68.211 1.957c1.856 0 3.258 2.776.325 5.201l-9.458 5.012h7.755a4.53 4.53 0 0 1 3.202 1.325 4.53 4.53 0 0 1 1.326 3.202v18.7a4.53 4.53 0 0 1-4.528 4.53h-7.302v-3.478h2.361a1.61 1.61 0 0 0 1.608-1.602l.012-2.726h-6.054v7.806h-6.887v-7.806h-6.136v7.806h-7.765V39.98c0-2.5 2.027-4.527 4.527-4.527h3.816l-2.435-3.842h7.993l1.783 2.608 5.539-4.395h-21.762V25.24zm43.241 29.016h-9.261v5.005c0 .938.757 1.696 1.691 1.696h5.88a1.69 1.69 0 0 0 1.563-1.047c.084-.206.128-.426.128-.649zM242.434 47.28h-13.105c1.626 4.261 4.523 7.626 7.752 10.247 2.53-2.117 4.902-4.744 6.713-7.99.564-1.012-.202-2.257-1.36-2.257m60.797.087h-6.088v4.562h6.068zm-12.975 0h-6.137v4.562h6.138zm57.373-6.218h-2.753c-2.781 4.016-5.666 6.699-8.215 8.492h19.899a35.2 35.2 0 0 1-8.931-8.492m-10.72 0h-5.506c-1.154 0-2.09.94-2.09 2.099v4.384c4.753-2.25 7.596-6.483 7.596-6.483m23.853 0h-5.167s2.707 4.04 7.26 6.325v-4.226c0-1.16-.937-2.1-2.093-2.1m-152.13-2.99s2.656 5.404 2.988 8.612h-7.804s-.83-4.051-3.156-8.611zm215.044 1.617h-14.137v4.402h12.546a1.587 1.587 0 0 0 1.591-1.586zm-122.025-.845h-4.508v4.96h6.102l.014-3.344a1.62 1.62 0 0 0-.468-1.142 1.6 1.6 0 0 0-1.14-.474m-11.395 0h-4.529a1.605 1.605 0 0 0-1.607 1.61v3.35h6.136zm-57.991-6.926h-7.508a2.025 2.025 0 0 0-2.024 2.023v8.938h9.532zm-60.199-8.72 1.535 4.543h15.838a3.78 3.78 0 0 1 3.784 3.772v7.734h-9.047v-5.29a1.44 1.44 0 0 0-.419-1.007 1.43 1.43 0 0 0-1.009-.416h-31.112a1.425 1.425 0 0 0-1.427 1.423v5.29h-9.047V31.6a3.78 3.78 0 0 1 3.785-3.773h18.532l-1.534-4.542zm286.943 0s-5.23 14.092-19.18 15.266v-5.87s7.607-3.376 10.658-9.395zM353.883 31.28h-15.63s.644 3.21 2.292 5.251h11.045c1.651-2.04 2.293-5.25 2.293-5.25m-84.561-5.646c2.392 3.896 4.146 9.394 4.146 9.394h-7.815c-1.117-3.202-5.103-9.394-5.103-9.394zm152.763 4.67H411.13a1.586 1.586 0 0 0-1.591 1.586v2.825h14.137v-2.825a1.585 1.585 0 0 0-1.591-1.587m-213.453-4.28s2.656 5.404 2.988 8.613h-7.804s-.83-4.052-3.156-8.612zm184.121-2.739-2.356 5.833h7.548v5.127h-16.723c-.754-.003-2.413-.124-1.303-3.255 1.125-3.182 2.749-7.705 2.749-7.705zm98.746 2.349v5.088h-28.575v-5.088z" fill="#231916"/></svg>