<svg width="572" height="128" fill="none" xmlns="http://www.w3.org/2000/svg"><path d="M167.514 37.302V24.284c0-1.079-.65-1.783-1.806-1.783h-48.451c-5.066 0-5.175 1.799-5.175 4.554v30.913c0 3.2-.484 2.614-1.351 1.6-5.709-6.87-27.713-33.3-28.86-34.656-2.177-2.484-3.56-2.41-7.748-2.41H20.666c-6.653 0-6.666 3.244-6.666 6.902v72.146c0 2.861 1.678 4.544 5.453 4.544h37.71c2.471 0 3.982-1.126 3.982-3.293V70.724c0-.87.28-.921.878-.326.48.473 19.407 23.245 26.823 32.167 3.092 3.171 3.63 3.53 8.927 3.53h56.367c4.847 0 5.094-2.205 5.094-4.544V40.406s4.086-.361 5.863-.557c1.815-.205 2.417-.765 2.417-2.547" fill="#ec1d24"/><path d="M209.306 39.317c-1.161 0-1.802-.693-1.802-1.696V23.197c0-1.372.997-2.21 2.523-2.21h27.348v-2.862s-.91-2.014 2.402-2.501c3.327-.481 10.533-1.614 10.533-1.614s1.913-.233 1.913 1.53v5.448h25.907c2 0 2.811 1.055 2.811 2.43v14.203c0 .872-.876 1.696-1.741 1.696h-10.241c-.939 0-1.545-.981-1.545-1.696v-7.26h-46.38v7.26c0 1.386-.962 1.696-1.724 1.696zm-3.478 10.162v-5.281c0-1.177.577-2.014 2.25-2.014h72.145c1.939 0 2.166 1.414 2.166 1.863v5.84c0 .637-.567 1.68-1.907 1.68h-27.787V71.81c0 7.455-3.517 9.773-9.931 10.158h-12.569c-1.596 0-2.147-1.09-2.147-1.09l-1.526-6.81s-.045-1.627 1.221-1.627c1.289 0 7.463-.179 8.373-.179 1.571 0 2.442-1.478 2.442-2.816l.052-17.88h-30.968c-1.375 0-1.814-1.01-1.814-2.087m126.376 14.215c-.533 0-.662.327-.35.584.687.595 3.671 2.334 6.218 3.031 1.304-.283 5.766-2.854 6.074-3.031.299-.16.257-.585-.138-.585zm-12.263-15.33h33.073v-2.038h-33.073zm0-7.254h33.073v-1.932h-33.073zm0-7.628h33.073V31.5h-33.073zm-21.68-17.032c0-.756.41-1.669 1.795-1.669h71.09c1.246 0 1.799.704 1.799 1.277v5.538c0 .51-.427 1.302-1.799 1.302h-30.145l-.533 2.044h24.844c1.792 0 2.104 1.266 2.104 2.044V52.89c0 1.237-1.015 2.202-2.717 2.202h-31.098l-1.725 1.944h32.546c.61 0 .855.377.855.377l.986 2.474c.177.402.029.875-.186 1.106-1.748 2.273-7.291 6.917-11.82 9.961-.267.186-.225.636.09.7 4.107.772 10.772 1.312 19.997 1.576.494.029.813.804.494 1.189-.606.726-5.257 7.657-5.257 7.657-.627.803-1.381.68-1.812.646-6.877-.425-11.817-.91-14.8-1.424-3.171-.569-7.744-1.63-13.738-3.163-7.14 1.507-11.438 2.433-15.584 3.009-3.289.45-8.826.96-17.448 1.408-.443.063-1.329-.367-1.576-.837-1.295-2.327-3.475-7.01-3.563-7.28-.063-.25-.144-1.032.833-1.096.924-.045 10.901-.707 20.495-2.019.443-.06.648-.546.263-.803-1.407-.861-3.023-2.035-3.023-2.035l-1.862-1.276c-4.568 1.852-10.455 4.076-14.255 4.722-.379.06-1.037.026-1.647-.787-1.709-2.63-4.182-7.351-4.182-7.351s-.306-.83.478-1.048c9.498-2.614 15.905-5.375 17.99-6.74.289-.194.369-.91-.385-.91h-8.72c-1.745 0-1.854-1.61-1.854-1.61V26.763c0-1.202.761-1.823 2.137-1.823h20.276l.385-2.043h-28.12c-1.446 0-1.609-.791-1.609-1.302zm153.644 37.515c2.221-1.772 5.077-4.799 5.077-4.799h-6.575c-.784.164-.666 1.12-.595 1.32 0 0 .554 2.497.813 3.106.262.617.944.672 1.281.373zM438.174 70.43c2.359-.566 4.415-1.272 7.018-2.039-1.672-2.674-3.41-7.168-4.21-10.4-.865-3.451-1.505-8.687-1.505-8.687h-1.303zm0-28.917h11.932v-5.078h-11.932zm0-12.875h11.932v-4.986h-11.932zm-10.078-12.886h32.42c1.812 0 2.737 1.445 2.737 2.748v28.724c0 2.064-1.988 1.942-1.988 1.942h-2.859c.67.713 2.866 2.7 4.197 3.746.737.585 1.374 1.066 1.902 1.474.426.35.608 1.136-.032 1.82-2.945 3.04-5.823 5.165-8.925 7.046.931 1.348 3.102 4.086 6.639 6.732 1.569 1.19 4.184 2.747 5.865 3.66.82.426.82 1.164.33 1.604-1.735 1.55-5.679 4.59-7.386 6.462-.419.452-1.236.84-2.049.452-6.46-3.197-11.306-10.031-11.306-10.031v4.221s-.064.802-.92 1.104c-3.076 1.079-13.598 3.743-18.189 5.252-.279.094-.893.07-1.182-.51-.95-2.016-2.343-4.327-3.383-6.115-.243-.412.026-.861.189-1.005.419-.382.733-.707.903-1.008.233-.415.278-1.143.278-2.205v-53.6c0-.93.298-2.513 2.759-2.513m-41.94 21.373c.849-1.069 4.645-5.74 7.274-10.584 1.801-3.338 2.845-5.807 3.338-7.315 0 0 1.015-3.124 1.29-3.814.279-.69 1.291-.63 1.291-.63s9.642 1.843 10.052 1.965c.71.234.531 1.156.531 1.156l-.912 2.074h12.891c1.118 0 1.608.514 1.608 1.377v6.176c0 .507-.273 1.473-1.745 1.473h-16.372l-2.986 5.03h17.459c1.252 0 1.588.8 1.588 1.612v6.086c0 .514-.476 1.378-1.588 1.378h-7.625v5.341h8.736c1.393 0 1.802.594 1.802 1.791v6.074c0 .877-.72 1.326-1.801 1.326h-8.737v10.638c2.986-.732 4.84-1.416 8.035-2.33.359-.096 1.489-.145 1.489 1.133v7.373c0 .671-.781 1.194-1.165 1.323-10.414 3.319-17.09 5.409-19.88 6.384-.378.135-.859 0-1.095-.465-.202-.427-4.252-7.967-4.252-7.967-.096-.305-.096-.758.461-1.047 1.924-.623 2.977-1.602 2.977-2.661V57.64h-9.095c-1.158 0-1.485-.613-1.485-1.104v-6.908c0-.703.624-1.178 1.485-1.178h9.227v-5.34h-7.891c-1.025 0-1.003-.832-1.003-.832v-2.003c-.902-.594-3.902-1.923-3.902-1.923-.41-.398-.253-.899 0-1.226m98.699-.462c-1.435-1.85-4.029-4.978-5.621-6.65-.353-.35-.399-1.01.305-1.455 6.466-4.145 14.45-10.958 17.77-14.123.693-.63 1.593-.448 1.933-.24 2.411 1.464 5.461 2.687 8.71 3.902.376.16.79 1.063.263 1.614-3.053 3.344-7.5 7.182-11.154 10.083-3.848 3.047-8.013 5.846-10.321 7.243-.68.41-1.557.045-1.884-.375zm71.448-2.236c1.076 0 1.865.483 1.865 1.37v6.874c0 .813-.985 1.3-1.865 1.3h-9.898v29.025c0 7.444-3.519 9.978-9.943 10.144h-12.964c-1.327 0-1.635-.554-1.77-1.098-.106-.523-1.528-6.967-1.624-7.266-.096-.294.051-1.252 1.336-1.252h8.353c1.586 0 2.488-.948 2.488-2.312v-27.24h-20.826c-.781 0-1.625-.487-1.625-1.483v-6.256c-1.766 2.521-3.789 5.096-6.123 7.326v37.62c0 1.228-1.004 1.75-1.758 1.75h-9.912c-.937 0-1.75-.618-1.75-1.75V54.133c0-.342-.298-.295-.43-.16-1.788 1.48-3.143 2.21-3.592 2.511-.54.353-1.39.228-1.711-.22-.299-.414-2.071-2.426-5.352-6.337-.562-.66-.344-1.457.192-1.854 6.302-4.577 9.468-7.288 13.16-10.65 2.864-2.608 4.848-4.7 7.615-7.72.996-1.093 2.007-.164 2.267 0 .267.163 6.858 4.093 7.125 4.135l1.309.59zm-40.164-8.16c-1.117 0-1.769-.217-1.769-1.47v-6.966c0-1.519.988-1.592 1.769-1.592h35.419c1.117 0 1.82.599 1.82 1.457v7.297c0 .596-.636 1.275-1.82 1.275zm-302.138 78.06v5.662h5.188c2.027 0 2.99-.016 3.557-.119.816-.121 1.501-.402 2.017-.85.529-.441.794-1.047.794-1.801 0-.627-.201-1.183-.606-1.621-.42-.431-.997-.76-1.756-.971-.771-.201-2.122-.3-4.684-.3zm0-8.582v4.965h3.665c2.193 0 3.247-.023 3.779-.067.947-.09 1.712-.348 2.254-.776.551-.439.822-.985.822-1.666s-.226-1.214-.698-1.638c-.471-.41-1.182-.665-2.113-.751-.567-.045-1.851-.068-4.496-.068zm-6.61 16.835V93.208s-.095-1.083 1.196-1.083h10.905c2.183 0 3.821.07 4.898.211 1.081.153 2.037.444 2.901.888a6.5 6.5 0 0 1 2.122 1.818c.564.744.848 1.585.848 2.512q.001 1.529-1.039 2.799-1.046 1.27-2.856 1.901c1.693.383 2.99 1.025 3.895 1.946.908.916 1.348 1.981 1.348 3.211 0 .987-.284 1.913-.877 2.843-.579.933-1.376 1.646-2.393 2.202s-2.266.898-3.757 1.006c-.928.083-3.187.147-6.756.147h-9.239c-1.249 0-1.196-1.029-1.196-1.029m44.051-7.44-3.883-7.993-3.719 7.993zm-.217-12.242s10.344 19.893 10.424 20.068c.092.173.051.643-.535.643h-4.723c-.65 0-.879-.326-.879-.326l-2.236-4.527h-11.089s-1.898 4.099-2.016 4.329c-.124.236-.401.524-.783.524h-5.762c-.341 0-.583-.304-.382-.684.201-.37 9.882-20.014 9.882-20.014s.388-.787 1.255-.787h5.691c.777 0 1.153.774 1.153.774M546.35 105.14l-3.868-7.993-3.701 7.993zm-.213-12.242 10.442 20.068c.073.173.032.643-.542.643h-4.728c-.659 0-.886-.326-.886-.326l-2.232-4.527h-11.094s-1.882 4.099-2.003 4.329c-.121.236-.399.524-.79.524h-5.779c-.328 0-.564-.304-.357-.684.191-.37 9.865-20.014 9.865-20.014s.395-.787 1.258-.787h5.71c.761 0 1.136.774 1.136.774m-281.818 20.711c-.602 0-.679-.636-.679-.636V92.945s-.048-.82.813-.82h4.943c.762 0 1.19.575 1.19.575l11.014 13.839V92.987s-.051-.862.804-.862h4.667c.755 0 .787.862.787.862v19.938s.013.684-.717.684h-5.422c-.556 0-.974-.547-.974-.547l-10.87-13.541v13.357s.049.731-.655.731zm132.023 0c-.591 0-.672-.636-.672-.636V92.945s-.048-.82.823-.82h4.937c.755 0 1.179.575 1.179.575l11.018 13.839V92.987s-.058-.862.81-.862h4.67c.756 0 .781.862.781.862v19.938s.013.684-.71.684h-5.403c-.585 0-1.006-.547-1.006-.547l-10.86-13.542v13.357s.035.732-.653.732zm39.446 0c-.591 0-.665-.636-.665-.636V92.945s-.042-.82.813-.82h4.95c.738 0 1.183.575 1.183.575l11.033 13.839V92.987s-.086-.862.794-.862h4.654c.759 0 .791.862.791.862v19.938s.003.684-.71.684h-5.426c-.566 0-.983-.547-.983-.547L441.361 99.52v13.357s.032.732-.659.732zm-143.1 0c-.774 0-.923-.755-.923-.755V92.997s-.061-.872.819-.872h4.991c.858 0 .89.872.89.872v8.3l10.918-8.748s.568-.425 1.313-.425h5.539c.802 0 .612.547.48.694-.132.127-9.754 7.657-9.754 7.657s10.374 12.191 10.521 12.402c.149.207.075.732-.677.732h-5.489c-.617 0-1.1-.643-1.1-.643l-7.235-9.36-4.516 3.527v5.68s-.071.796-.89.796zm43.566-10.892c0 2.473.738 4.334 2.211 5.616 1.469 1.259 3.339 1.9 5.603 1.9 2.275 0 4.142-.632 5.588-1.9 1.447-1.249 2.178-3.143 2.178-5.681 0-2.482-.692-4.356-2.122-5.59-1.408-1.207-3.288-1.821-5.644-1.821-2.336 0-4.228.614-5.661 1.864-1.431 1.236-2.153 3.123-2.153 5.612m-6.166.149c0-2.22.433-4.078 1.301-5.587.637-1.115 1.504-2.11 2.624-2.99a10.9 10.9 0 0 1 3.63-1.945c1.747-.592 4.077-.89 6.364-.89 4.145 0 7.762 1.006 10.251 2.997 2.491 1.994 3.736 4.761 3.736 8.315 0 3.518-1.226 6.266-3.698 8.256-2.472 1.984-6.073 2.978-10.211 2.978-4.177 0-7.824-.981-10.289-2.965-2.466-1.971-3.708-4.686-3.708-8.169m31.864 10.743c-.59 0-.657-.502-.657-.818V93.054s.067-.93.929-.93h18.089c.799 0 .903.412.903.739v2.28c0 .262-.189.604-.903.604h-12.435v5.121h10.688c.397 0 .825.294.825.78v2.15c0 .53-.396.69-.903.69h-10.61v8.389c0 .473-.289.732-.73.732zm62.998 0c-.555 0-.765-.563-.765-.818v-19.88s-.021-.787.71-.787h4.837c.718 0 .703.787.703.787v19.88c0 .246-.102.818-.772.818zm95.294 0c-.552 0-.747-.563-.747-.818v-19.88s-.043-.787.698-.787h4.87c.712 0 .681.787.681.787v19.88c0 .246-.096.818-.753.818zm-42.417-8.264c-.762 0-.762-.614-.762-.614v-2.458s0-.56.702-.56h10.983c.432 0 .669.39.669.608v7.573c0 .342-.345.63-.544.742-1.2.738-2.951 1.39-4.852 1.972a24 24 0 0 1-6.791 1.001c-2.922 0-6.477-.461-8.638-1.414-2.169-.942-3.792-2.301-4.87-4.053a10.65 10.65 0 0 1-1.649-5.738c0-2.237.615-4.236 1.831-5.968 1.21-1.743 2.982-3.095 5.319-4.012 1.785-.717 5.034-1.08 7.7-1.08 3.437 0 6.439.555 8.385 1.684 1.766 1.03 3.053 2.554 3.546 4.028.06.157-.107.63-.452.694l-4.707.639c-.394.07-.653-.204-.701-.339-.432-.847-1.108-1.538-2.029-2.055q-1.62-.912-4.042-.912c-2.452 0-4.4.598-5.854 1.794q-2.165 1.811-2.166 5.354-.002 3.832 2.198 5.742c1.472 1.285 3.405 1.915 5.79 1.915 1.177 0 2.362-.186 3.558-.537a14.4 14.4 0 0 0 2.676-1.075c.128-.079.368-.23.368-.415v-2.516zm13.871 8.264c-.732 0-.868-.62-.568-.962.307-.322 8.883-10.252 8.883-10.252s-7.838-9.203-7.951-9.341c-.113-.144-.312-.93.617-.93h5.521c.761 0 1.361.678 1.361.678l4.364 5.105 4.286-5.044s.526-.739 1.468-.739h5.676c.523 0 .671.56.413.885-.261.326-8.031 9.399-8.031 9.399s8.67 10.025 8.931 10.351c.258.316-.051.85-.477.85h-5.79c-.983 0-1.599-.914-1.599-.914l-4.977-5.862-5.254 6.124s-.522.652-1.339.652z" fill="#231f20"/></svg>