<svg width="526" height="128" fill="none" xmlns="http://www.w3.org/2000/svg"><path d="M62.102 14.053c-6.997.473-13.046 2.104-16.78 5.628-.632-2.104-2.789-1.525-4.472-1.105-7.943 2.578-17.833 12.783-21.252 20.621-.79 1.841-2.21 5.155.21 6.207-3.209 3.735-5.208 9.101-5.734 15.624-.052 1-.105 1.999-.052 2.998 0 .947 0 2 .052 2.999.526 6.523 2.525 11.888 5.734 15.623-2.42 1.052-1 4.366-.263 6.155 3.472 7.89 13.414 18.043 21.305 20.673 1.683.421 3.84 1 4.471-1.105 3.788 3.472 9.784 5.156 16.728 5.576.684.053 1.315.053 1.947.053.63 0 1.262 0 1.946-.053 6.996-.473 12.993-2.051 16.78-5.628.58 2.157 2.736 1.578 4.42 1.157 7.995-2.63 17.885-12.835 21.304-20.673.789-1.841 2.157-5.103-.211-6.207 3.157-3.683 5.156-9.048 5.682-15.571.052-1 .105-2 .052-2.999.053-1 0-1.999-.052-2.998-.526-6.523-2.525-11.889-5.682-15.57 2.42-1.158.947-4.42.211-6.208-3.419-7.838-13.309-18.043-21.305-20.673-1.683-.421-3.84-1-4.419 1.157-3.787-3.577-9.784-5.155-16.78-5.629-.684-.052-1.315-.052-1.894-.105-.684.053-1.315.053-1.946.053m10.363 2.998c-1 .894-1.578 2.104-1.473 3.893.263 3.103 2.104 5.26 3.42 7.206-2.789-1.315-6.26-2.261-10.364-2.367l-.053-.052c-4.103.105-7.574 1.052-10.415 2.42 1.315-1.947 3.209-4.156 3.42-7.207.104-1.789-.474-2.999-1.474-3.893 2.525.316 5.524.474 8.522.42 2.946 0 5.892-.104 8.417-.42m21.2 8.68c.42-.106.946-.316.946-.842 0-.316-.158-.579-.368-.789 2.84 2.21 6.523 5.997 9.363 9.68-1.473-.948-1.525 1.209-1.473 2.419 0 .631.158 1.315.263 1.841-2.577-5.313-7.206-9.626-12.309-12.31.474.053 1.315.159 2.052.159.578-.053 1.104-.053 1.525-.158M33.8 24.047c-.21.21-.421.526-.421.842.053.579.526.736.947.842 1.052.21 2.788.157 3.577 0-5.103 2.682-9.732 6.996-12.257 12.256.053-.473.21-1.157.21-1.788.053-1.21.053-3.42-1.472-2.42 2.893-3.735 6.523-7.47 9.416-9.732M73.517 38.83c5.576-1.999 10.573-4.577 12.257-10.468 2.42 3.577 7.417 9.1 11.783 12.414.315.316 1 .895 1.946 1.526-2.998.789-4.945 2.735-6.523 4.945-1.63 2.156-2.788 4.787-3.63 7.732-2.945-7.68-8.258-13.098-15.833-16.149m-38.454 8.364c-1.63-2.157-3.577-4.103-6.575-4.892.947-.631 1.683-1.263 1.946-1.526 4.366-3.314 9.364-8.837 11.784-12.414 1.683 5.891 6.68 8.47 12.256 10.468-7.575 3.051-12.783 8.47-15.834 16.15-.789-2.894-1.998-5.577-3.577-7.786m27.775 30.615c-3.103-6.575-8.364-11.31-15.676-13.782 7.312-2.472 12.573-7.206 15.676-13.782.421-.947.737-1.999 1.21-2.998.368 1 .737 1.999 1.21 2.998 3.051 6.628 8.311 11.257 15.57 13.782-7.259 2.42-12.519 7.154-15.57 13.782-.526.947-.842 2-1.21 2.999-.473-1-.789-2.052-1.21-2.999m39.348-13.782c0-3.998-1-7.522-2.21-10.31 2.105 1.683 4.893 3.209 7.26 3.261 1.42.053 2.63-.63 3.367-1.472-.316 2.42-.474 5.418-.421 8.521-.053 3.104.105 6.102.421 8.522-.737-.841-1.947-1.525-3.367-1.473-2.367.053-5.208 1.526-7.26 3.262 1.21-2.788 2.21-6.313 2.21-10.31M28.12 53.716c-1.315 2.788-2.262 6.26-2.315 10.31.053 4.05 1 7.523 2.262 10.258-2.104-1.683-4.945-3.156-7.26-3.261-1.472 0-2.682.684-3.366 1.473.263-2.368.42-5.366.474-8.47-.053-3.103-.21-6.102-.474-8.574.684.894 1.894 1.578 3.367 1.473 2.367-.053 5.208-1.526 7.312-3.21M73.464 89.17c7.628-2.999 12.888-8.47 15.887-16.097.789 2.893 1.999 5.576 3.63 7.733 1.577 2.21 3.524 4.156 6.522 4.945-.947.631-1.63 1.21-1.946 1.525-4.366 3.314-9.364 8.838-11.784 12.415-1.683-5.892-6.68-8.47-12.309-10.521m-42.977-1.946c-.368-.263-1.052-.842-2-1.473 3-.79 4.946-2.736 6.524-4.945 1.63-2.157 2.84-4.84 3.63-7.733 3.05 7.68 8.258 13.099 15.886 16.097-5.629 2.051-10.626 4.63-12.31 10.52-2.42-3.576-7.417-9.1-11.73-12.466m71.909 2.788c-.105.526-.21 1.157-.263 1.84-.052 1.21 0 3.367 1.473 2.42-2.84 3.683-6.523 7.47-9.363 9.68.21-.211.42-.526.368-.789 0-.526-.474-.789-.947-.842-1-.263-2.788-.158-3.577 0 5.103-2.683 9.784-7.049 12.309-12.31m-76.538 1.84c0-.63-.158-1.314-.263-1.84 2.577 5.313 7.206 9.626 12.309 12.309-.79-.158-2.472-.263-3.525-.053-.473.158-.946.316-.999.895 0 .315.158.578.368.789-2.84-2.21-6.47-6.05-9.363-9.68.263.158.473.264.684.264.841 0 .841-1.684.789-2.683m38.085 10.416h.105c4.103-.105 7.575-1.052 10.363-2.367-1.315 1.947-3.156 4.103-3.42 7.207-.104 1.788.474 2.998 1.474 3.893-2.525-.316-5.524-.474-8.47-.474-2.945 0-5.944.158-8.469.474 1-.895 1.631-2.157 1.473-3.893-.158-3.104-2.104-5.26-3.42-7.207 2.841 1.368 6.313 2.315 10.364 2.367" fill="url(#paint0_radial_63_12774)"/><path fill-rule="evenodd" clip-rule="evenodd" d="M172.719 55.316s2.17-.276 1.976-2.1c-.193-1.828-2.361-2.023-3.911-1.44-1.55.585-4.145 1.828-4.262 5.559-.117 3.734 1.511 5.56 4.262 5.093 2.749-.466 3.486-.814 3.254-2.526s-5.077.543-5.346-1.594c-.272-2.14.966-3.15 2.052-3.227a5.4 5.4 0 0 1 1.975.234m1.815-19.188s-2.22.18-2.279 1.858c-.06 1.677 1.376 2.279 4.375 1.98 2.999-.303 4.019-.422 3.897-2.28-.119-1.859-2.278-1.558-3.296-1.558zm-.321-8.349s-2.602.211-2.672 2.18c-.071 1.967 1.616 2.67 5.13 2.318 3.515-.35 4.709-.491 4.569-2.67-.14-2.18-2.67-1.828-3.867-1.828zm7.121 26.708s.789-.273 1.746-.205c.963.069 2.059.962 1.818 2.854-.244 1.893-4.524-.103-4.728 1.411-.207 1.514.442 1.821 2.878 2.235 2.429.412 3.87-1.204 3.767-4.505-.104-3.3-2.397-4.403-3.767-4.92-1.373-.516-3.291-.343-3.461 1.274-.173 1.616 1.747 1.856 1.747 1.856m1.006 15.63s-1.38-.094-1.286 2.054c.094 2.15 3.523 5.258 7.475 3.394 3.953-1.865 1.619-5.4-.999-5.353-2.62.05-2.62.382-3.285.19-.666-.19-1.905-.286-1.905-.286m-13.199 0s1.379-.094 1.283 2.054c-.091 2.15-3.52 5.258-7.472 3.394-3.953-1.865-1.62-5.4.999-5.353 2.619.05 2.619.382 3.286.19.665-.19 1.904-.286 1.904-.286m3.404-47.452s-1.541-5.997 1.885-7.196c3.428-1.2 5.655 2.742 3.942 7.368 0 0 11.672-.816 13.686 1.498 2.016 2.31-2.446 3.465-4.749 3.61-2.301.143-3.02 4.33.146 4.477 3.167.142 5.953-.326 5.953.88s-.961 2.593-3.063 2.652c-2.101.06-5.344.18-5.344 1.987 0 1.809 2.642 1.208 5.705 1.027 3.063-.183 4.142.964 3.905 2.771-.24 1.809-2.401 2.112-6.066 2.051s-8.771-.18-9.19 1.448c-.42 1.626.002 2.168 5.406 2.108s7.808 1.265 7.808 4.038c0 2.775.682 13.91-5.617 14.282-6.298.37-23.097 2.352-24.085-.87s-1.729-14.132 2.471-15.62c4.199-1.486 8.025-.62 8.768-2.728.74-2.108-.121-2.108-3.334-1.61-3.211.494-10.129 1.487-10.129 0s.882-3.21 4.059-3.287 4.879-2.255 3.329-3.887c-1.547-1.635-6.66 1.788-5.807-1.79.851-3.576 5.266-.932 6.429-4.742 1.16-3.811-2.092-3.187-4.185-2.644-2.091.543-5.578.932-5.966 5.21-.385 4.277-1.549 17.65-4.105 20.682s-10.071 5.21-11.001 2.335c-.931-2.88 5.811-2.412 7.593-9.487s3.253-12.21 2.478-18.118c-.775-5.91 4.495-5.754 6.896-5.833 2.401-.077 12.182-.612 12.182-.612m54.052 18.201s.858-.766.668-2.207c-.189-1.436-2.292-.862-4.969-.766s-3.058 3.164-2.008 3.45c1.052.29 6.309-.477 6.309-.477m7.741 7.003s2.197.096 3.152.096c.957 0 4.014-.288 4.206-1.535.191-1.248-1.817-2.397-3.728-2.303-1.91.097-5.733-.384-5.733 1.824 0 2.205 2.103 1.918 2.103 1.918m1.814-7.483s5.927.096 5.735-1.149c-.191-1.248-2.197-2.303-5.352-2.494-3.153-.194-4.492 1.15-4.205 2.683.286 1.536 3.822.96 3.822.96m-13.377 8.154s4.873-.097 4.873-.96c0-.865-.478-2.494-1.91-2.494-1.436 0-5.354-.576-5.831 1.535-.478 2.112 2.868 1.92 2.868 1.92m12.327 10.742s9.272 7.003 11.565 9.016c2.292 2.016 10.035-.096 11.182-2.013 1.145-1.917-.958-3.645-3.061-3.262-2.102.386-6.594-1.63-9.651-3.55-3.058-1.918-8.125-4.603-10.131-3.547-2.005 1.056.096 3.356.096 3.356m-7.803-29.907s-11.264.498-14.017.375c-2.754-.125-1.126-3.504 1.126-4.256 2.254-.75 12.891-.25 12.891-.25s-1.377-7.133.503-8.51c1.877-1.378 3.627-2.254 4.254 7.634 0 0 10.013-.125 12.267.376 2.253.5 3.128 1.251 3.128 2.752 0 1.504-2.754 1.627-5.632 1.627s-9.638.125-9.638.125l-.376 3.38s15.146-.25 16.022 2.255c.876 2.502-1.754 17.77-7.134 17.896-5.382.124-8.637 0-8.637 0s-.376 17.774-.627 19.901c-.249 2.127-3.379 4.506-3.379.876 0-3.629-.125-17.398-.125-17.398s-8.134 9.513-12.516 11.516c-4.38 2.003-8.135.875-8.135-1.252 0-2.128 4.507-2.255 7.134-3.756 2.63-1.5 9.513-7.258 10.639-8.51s-4.757-1.252-6.257-.877c-1.502.377-4.131 1.879-4.257-.874-.125-2.755.876-9.513.126-11.265-.751-1.754-2.003-5.885.625-7.009 2.629-1.127 10.638 0 11.89-1.503 1.254-1.502.125-3.253.125-3.253m65.711 19.979s.704.066 2.381-1.035c1.675-1.104.868-4.02.506-4.74-.36-.723-8.182-2.408-8.065 2.285.123 4.695 5.178 3.49 5.178 3.49m-5.055-16.004c-.123 0-11.074 1.084-13.96 1.563-2.888.482-2.527-4.693 1.563-5.656 4.092-.963 10.109-.121 11.674-1.204s1.444-.842 1.444-4.211 1.205-5.656 3.009-5.777 2.889 1.324 2.889 3.489c0 2.167-.483 5.9 1.685 5.9 2.166 0 11.431-1.207 13.721.72 2.285 1.926-.965 4.574-4.454 4.574s-7.223-.122-9.267 0c-2.046.119-1.685 2.406-1.806 3.97-.122 1.566 1.927 1.204 4.333 1.326 2.407.119 15.403 0 15.403 3.608 0 3.61 1.685 21.302-.842 22.866-2.525 1.566-3.97-1.443-3.367-3.971.599-2.528.48-9.146-.845-12.876-1.322-3.73-2.285-3.851-5.896-4.213-3.613-.361-4.936 4.332-3.25 5.174 1.687.844 4.093.482 3.973 2.408-.121 1.927-3.732 2.647-5.659 2.647-1.923 0-3.247.723-3.367 2.77-.122 2.045 1.323 1.684 4.211 1.684 2.89 0 5.416.12 5.416 1.685s-.843 2.648-4.333 2.888-4.815-.844-4.933 2.526c-.122 3.37-.723 6.86-3.491 6.74-2.767-.12-1.325-7.702-1.325-7.702s-.6-1.445-3.249-1.084c-2.648.362-8.785 1.927-8.665-.119.121-2.045 1.083-4.213 6.501-4.213 5.413 0 4.933-2.649 3.608-3.73-1.323-1.083-9.148 1.081-9.026-1.566s4.934-2.767 4.934-4.452-.119-3.97-3.731-4.333c-3.609-.36-6.376 1.804-6.619 5.417-.239 3.61.243 14.2-3.127 14.681-3.371.482-3.733-2.286-3.009-6.497.722-4.214 1.684-8.306 1.084-12.155-.604-3.851.119-6.14 6.979-6.14 6.859 0 11.915-.121 12.515-2.647.603-2.527-.6-4.09-.721-4.09m54.184 7.045s1.686-.303 1.686.892c0 1.194-.572 2.223-2.298 2.966-1.722.741-2.624-.355-2.15-1.364.472-1.01 2.762-2.494 2.762-2.494m.94-8.274s-3.186.887-4.037-.981c-.853-1.868 1.133-2.502 2.523-2.502 1.387 0 3.123.411 2.65 2.058s-1.136 1.425-1.136 1.425m13.748-2.724s-2.332 2.056-3.577 2.056-.962-1.896.766-3.105c1.727-1.208 2.327-.846 2.729-.443s.082 1.492.082 1.492m-10.23 8.159s-5.538 1.096-6.42-.21c-.881-1.308.588-2.654 3.567-2.654s3.019.21 2.979-2.149-.21-5.223 1.176-5.94c1.384-.716 1.722 1.093 1.804 3.16.084 2.062-.42 4.296.546 4.379.965.086 6.505-.376 7.217.633.714 1.013-1.345 1.602-3.65 1.602-2.308 0-3.483-.254-3.609.799-.124 1.054 0 8.298 0 8.298s5.834.338 8.562-.758c2.727-1.094 2.055-3.663 2.013-5.476-.041-1.811.796-10.656-.966-12.552-1.761-1.895-2.559-1.306-6.965-1.474-4.405-.169-12.128.42-13.555 1.222-1.426.799-2.391 1.81-2.391 4.043s.546 10.164-.503 12.945c-1.05 2.78 1.886 2.472 3.187 2.598 1.303.127 7.344.253 7.386-.632.042-.884-.378-7.834-.378-7.834m-4.282-15.519s-1.618.08-5.419.08-5.095 3.881-4.447 7.44c.646 3.558.162 9.463-.083 14.395-.241 4.935 1.294 5.825 3.479 5.825 2.183 0 13.91-.406 19.976-.568s7.035-1.535 8.166-3.316c1.136-1.78.568-15.528.488-17.953-.081-2.427-.161-5.5-4.124-5.984-3.965-.487-10.354-.728-10.354-.728 1.862-1.78 2.183-3.558 1.376-4.448-.808-.89-2.67-1.861-4.365-.162-1.7 1.697-4.693 5.42-4.693 5.42m3.619 34.435c.391.592.129 2.498-1.639 3.352s-4.909 3.154-3.732 4.995c1.178 1.84 8.906-1.444 11.327-1.052 2.425.394 3.34 2.892.263 6.245-3.079 3.351-7.793 3.68-10.344 3.68-2.555 0-2.294 2.694 2.094 3.219 4.384.527 9.431-1.249 12.834-4.535 3.405-3.285 2.749-9.923 2.421-11.434-.326-1.511-5.629-1.578-7.922-1.249-2.293.33-.656-2.825.327-3.877.981-1.05 9.561-.197 12.835.92 3.272 1.116 5.695 1.905 7.268 1.38 1.571-.525 7.332-4.732 5.434-6.77-1.899-2.035-5.763 1.053-9.691.656-3.93-.393-10.608-.917-15.651-.656-5.041.263-20.95 1.118-24.552 2.499-3.602 1.38-2.815 5.78 3.538 4.404 6.35-1.383 13.683-2.106 13.683-2.106zm9.179-13.58s-3.037-1.772-2.175-3.131c.861-1.357 1.724-.904 3.284.085 1.558.986 1.763 1.935 1.273 2.675-.495.741-2.382.372-2.382.372m44.902-5.489s4.495-.353 4.495-2.122c0-1.77-4.757-.62-6.875-.62-2.117 0-5.907.796-6.171 3.274s.792 8.228-.352 10.087c-1.144 1.857-1.413 2.567-1.322 3.892.088 1.326 6.964-1.15 7.141 1.062.173 2.212 1.054 8.405-1.237 9.997-2.29 1.595-6.786.798-8.286 3.452-1.498 2.656 2.733 2.656 5.38 1.68 2.644-.97 9.519-.97 12.43-2.831 2.909-1.859-.178-2.565-2.028-2.565s-4.587 1.151-3.883-2.743c.708-3.892.53-8.317 1.676-8.846 1.146-.533 4.763-.886 4.763-2.478 0-1.595-4.585-.62-6.525-.444-1.939.177-4.938.442-4.671-1.24.265-1.68 2.382-2.21 6.699-3.096s3.969-2.566 2.114-2.83c-1.846-.267-8.373 1.414-8.285-.442.088-1.86 4.937-3.187 4.937-3.187m-6.01 19.322s-1.052 3.915-2.908 4.91c-1.86.996-1.921-1.554-.868-3.48s1.92-2.855 2.91-2.67c.989.186.866 1.24.866 1.24m11.636 2.675s-2.103-.808-1.978-3.232c.121-2.423 1.235-2.175 2.229-1.182.987.995 1.113 2.612.802 3.544-.311.93-1.053.87-1.053.87m13.729-10.957s5.757-1.508 9.72-1.793c3.959-.283 4.339-3.3 5.567-6.793 1.226-3.49 1.509-15.472-.852-16.038-2.358-.568-10.284-.85-15.378.47-5.097 1.322-5.664 2.737-5.664 6.038 0 3.303.852 17.456 0 23.117-.847 5.66-.281 9.53-2.166 11.417-1.888 1.885-.378 6.887 3.113 6.322 3.491-.567 8.584-2.17 11.604-4.247 3.021-2.076 2.643-5 .757-4.717-1.889.284-7.927 3.584-9.06 2.926-1.132-.661-1.228-3.114-.756-6.982.472-3.87.851-7.737.662-8.587-.19-.85 2.453-1.133 2.453-1.133m.47-5.19s-2.639 0-1.696-2.734c.945-2.736 4.056-.85 6.885-1.888 2.833-1.038 4.247-.567 4.247 1.132s-2.453 2.266-4.905 3.02c-2.454.755-4.531.47-4.531.47m.852-9.244s-2.645 1.131-2.645-1.7 7.267-4.056 10.1-3.301c2.828.752 1.129 4.15-.947 4.434-2.073.282-6.508.567-6.508.567m4.907 16.321s.94-2.169 3.583-1.509c2.642.661 1.322 3.02 1.037 4.341 0 0 6.322 4.811 10.757 6.98 4.436 2.172 3.302 2.267 5.474 2.267s2.172 2.358-.189 3.963c-2.359 1.603-6.229 3.396-9.531 1.037-3.301-2.359-5.283-7.738-9.153-8.304-3.868-.565-5.66 2.642-7.264 2.171s-1.415-3.68 1.225-5.19c2.644-1.51 4.061-5.756 4.061-5.756m-29.381-19.807s-7.703 5.828-9.36 7.016c-1.655 1.19-3.553-.832-2.251-3.209 1.303-2.38 10.899-12.127 12.676-12.96 1.776-.834 11.256 5.231 11.371 7.133.123 1.904-3.312 3.45-4.735 2.142-1.423-1.31-4.502-2.144-5.45-1.548-.947.595-2.251 1.426-2.251 1.426m91.458.511s-5.186.381-4.807-2.158c.378-2.537 2.277-3.807 6.325-3.936 4.048-.125 14.037-1.015 15.05.763 1.012 1.777-1.267 4.443-4.049 4.697-2.781.254-12.519.634-12.519.634m-14.166-2.158s-4.174 3.554-11.382 3.81c-7.207.252-2.531-4.19.254-6.22 2.782-2.033 8.597-5.334 11.252-3.174 2.661 2.156-.124 5.584-.124 5.584M465.038 45s-8.35 3.045-9.11 1.269c-.758-1.778-.634-4.952 4.176-6.474 4.804-1.523 10.12-2.032 11.889-1.65 1.77.379 2.655 2.032 1.641 4.187 0 0 .383 10.156-1.261 14.091-1.644 3.936-8.349 10.664-13.279 10.919-4.934.254-2.782-5.205.377-6.477 3.166-1.268 8.099-5.967 8.349-9.012.253-3.047.503-5.331-.634-6.601-1.135-1.27-2.148-.252-2.148-.252m24.79-.382s-5.313-.253-7.719.634c-2.401.89-2.275-4.95.76-5.84 3.037-.888 14.671-1.267 17.456-1.267 2.782 0 12.016-.89 11.762 1.395s-4.933 4.825-6.831 4.825-6.702-.763-6.702 1.777c0 2.538-.13 20.566-.887 23.23s-4.679 2.665-5.184.38c-.509-2.286.505-15.614.505-18.66 0-3.047.507-5.584-.631-6.092-1.142-.51-2.529-.382-2.529-.382m10.141 50.948a18 18 0 0 0 1.557-1.728c.368-.49.555-.83.555-1.034q-.002-.225-.349-.313c-.234-.053-.717-.085-1.453-.085v-1.057h6.858v1.057h-.235a4.8 4.8 0 0 0-2.178.5c-.67.337-1.538 1.04-2.62 2.113l-2.437 2.43 4.946 6.585c.8 1.08 1.403 1.754 1.807 2.031q.595.409 1.326.409c.037 0 .084-.004.154-.012.06-.007.109-.01.137-.01v1.057l-2.576.085h-.567a1.4 1.4 0 0 1-.705-.166c-.197-.111-.393-.294-.595-.557l-5.555-7.848-1.937 1.901v2.517c0 1.347.154 2.182.452 2.513q.45.498 1.797.498h.084v1.057h-7.28v-1.057h.084c.908 0 1.505-.173 1.811-.521q.456-.516.457-2.49v-8.026q0-1.982-.457-2.496c-.306-.343-.903-.513-1.811-.513h-.084v-1.057h7.28v1.057h-.084c-.897 0-1.498.168-1.797.496-.298.334-.452 1.172-.452 2.513v4.05zm-27.83 10.864q.922-.045 1.316-.2.39-.16.594-.533.269-.512.376-2.529.103-2.018.104-7.178c0-1.725-.131-2.754-.402-3.088-.276-.328-.864-.496-1.774-.496h-.108v-1.057h5.203l7.847 12.297q-.001-4.956-.107-7.246-.098-2.286-.358-3.021a1.16 1.16 0 0 0-.658-.714c-.327-.146-.847-.228-1.571-.259v-1.057h6.321v1.057q-.959.046-1.364.178c-.274.093-.475.238-.61.447q-.29.435-.412 2.275-.115 1.84-.116 6.743a150 150 0 0 0 .107 5.807l-1.383.01-9.356-14.638q-.01.308-.011.886a318 318 0 0 0-.033 3.227q0 4.036.131 5.987.132 1.945.414 2.407c.149.241.376.414.665.529q.446.164 1.204.166h.193v1.079h-6.212zm-10.072-13.136-2.434 6.939h4.818zm-7.597 13.136c.518-.06.95-.292 1.308-.705.351-.406.74-1.156 1.151-2.243l3.96-10.383.325-.862c.129-.353.292-.772.468-1.264h2.124c.197.689.331 1.179.415 1.465q.121.422.207.638l3.907 10.988c.347.951.657 1.575.947 1.866.296.289.694.456 1.208.5v1.079h-6.621l.01-1.079q1.215-.066 1.651-.292c.285-.15.436-.404.436-.754q0-.205-.065-.486a6 6 0 0 0-.226-.726l-.884-2.743h-5.599l-.923 2.743a4 4 0 0 0-.141.524 2.3 2.3 0 0 0-.053.447q.002.647.452.948c.297.195.808.309 1.521.339v1.079h-5.578zm-11.727-.044q.07 0 .222.01 1.22.078 1.717.078 2.235-.001 3.467-.928 1.236-.93 1.236-2.595 0-1.702-1.248-2.541c-.831-.557-2.089-.838-3.785-.838a24 24 0 0 0-1.783.067v2.699q.001.732.044 1.776c.027.696.067 1.453.13 2.272m-.174-7.947q.416.034.774.05.362.016.653.016 2.253.001 3.34-.767c.717-.512 1.081-1.302 1.081-2.367 0-.96-.368-1.703-1.094-2.228q-1.095-.78-3.144-.781-.43 0-.813.022-.38.024-.713.067a41 41 0 0 0-.064 1.112q-.02.58-.02 1.249zm-4.949 7.991h.084c.913 0 1.513-.171 1.817-.513.298-.343.448-1.166.448-2.479v-8.023q0-1.991-.456-2.49-.454-.497-1.893-.497v-1.079h6.708c2.354 0 4.067.31 5.149.928 1.082.62 1.62 1.597 1.62 2.939q0 1.552-1.127 2.518-1.126.963-3.185 1.169c1.813.103 3.17.505 4.082 1.205q1.368 1.054 1.367 2.972c0 .775-.173 1.455-.523 2.052q-.524.895-1.554 1.493c-.562.317-1.263.542-2.112.678q-1.272.205-3.918.206h-6.507zm-22.4 0h.161c.86 0 1.446-.171 1.739-.509q.449-.508.449-2.632v-7.515q-.001-2.36-.456-2.867-.458-.5-1.811-.501h-.082l.007-1.057a131 131 0 0 0 2.758.022q.935.001 2.045-.01l1.303-.012q3.569.002 4.977-.037a52 52 0 0 0 2.39-.113l.105 5.407h-1.131c-.088-1.57-.463-2.66-1.105-3.275q-.977-.925-3.371-.925h-1.425l-1.586.01q-.035.821-.05 1.557c-.013.49-.013.96-.013 1.404v2.089q.008.642.02 1.126l.836.012c1.049 0 1.82-.2 2.299-.602q.723-.596.724-1.905v-.107h1.098a92 92 0 0 0-.024 1.845c-.004.418-.01.816-.01 1.188 0 .852.006 1.512.01 1.978q.005.705.024 1.339h-1.086c-.028-1.01-.272-1.705-.728-2.098q-.69-.579-2.49-.58c-.055 0-.162.004-.307.011-.144.006-.263.01-.346.01q-.012.486-.02 1.009v1.397c0 .619.004 1.267.023 1.941.017.678.049 1.407.08 2.191q.687.09 1.439.127.755.037 1.775.038 2.305-.001 3.384-.917 1.081-.918 1.799-3.487h1.039l-.483 5.527h-13.96zm-19.224-14.024v-1.057h7.278v1.057h-.086c-.896 0-1.494.168-1.795.496q-.447.501-.448 2.513v5.813c0 1.747.326 3.046.992 3.902q.993 1.276 3.026 1.278 1.111 0 1.915-.478.798-.484 1.295-1.434c.238-.469.408-1.029.507-1.689q.15-.989.151-3.101v-1.879q-.001-3.67-.448-4.547c-.294-.583-.884-.874-1.756-.874h-.298v-1.057h6.17v1.057q-2.34.025-2.38 4.297a22 22 0 0 0-.013.66v1.273c0 3.068-.238 5.144-.726 6.24q-.634 1.434-2.044 2.213-1.401.779-3.356.777-2.961.001-4.295-1.462-1.338-1.464-1.338-4.736v-6.253q-.001-1.982-.458-2.496c-.306-.343-.903-.513-1.809-.513zm-14.08 14.024h.285c.901 0 1.508-.166 1.81-.5.306-.336.454-1.167.454-2.492v-2.674l-3.429-5.487c-.727-1.157-1.307-1.928-1.744-2.303-.446-.38-.925-.568-1.447-.568h-.086v-1.057h6.792v1.057c-.67 0-1.138.059-1.394.174q-.39.172-.39.58 0 .23.148.562.146.334.444.834l3.081 5.084 2.948-5.14q.132-.217.215-.505a2 2 0 0 0 .084-.522c0-.374-.135-.643-.418-.812q-.414-.255-1.383-.255h-.256v-1.057h5.913v1.057h-.086q-.72 0-1.316.509-.596.507-1.743 2.338l-3.496 5.607v2.578q-.001 2.01.454 2.501.455.49 1.81.491h.287v1.079h-7.537zm-22.736 0q.926-.045 1.316-.2.392-.16.597-.533.265-.512.375-2.529.105-2.018.107-7.178.001-2.587-.406-3.088c-.277-.328-.866-.496-1.774-.496h-.106v-1.057h5.207l7.84 12.297q0-4.956-.102-7.246-.103-2.286-.363-3.021a1.14 1.14 0 0 0-.657-.714c-.325-.146-.848-.228-1.57-.259v-1.057h6.321v1.057q-.956.046-1.364.178a1.13 1.13 0 0 0-.612.447q-.29.435-.41 2.275-.115 1.84-.116 6.743c0 1.057.009 2.061.026 3.004.018.949.049 1.882.078 2.803l-1.381.01-9.354-14.638q-.012.308-.012.886a283 283 0 0 0-.032 3.227q.002 4.036.126 5.987.134 1.945.417 2.407c.153.241.374.414.668.529q.442.164 1.202.166h.194v1.079h-6.215zm-10.069-13.136-2.436 6.939h4.82zm-7.598 13.136c.518-.06.95-.292 1.306-.705q.533-.61 1.153-2.243l3.96-10.383.323-.862q.203-.528.47-1.264h2.125c.195.689.33 1.179.414 1.465q.121.422.209.638l3.904 10.988q.516 1.428.949 1.866c.293.289.692.456 1.209.5v1.079h-6.625l.013-1.079q1.215-.066 1.648-.292.435-.227.437-.754 0-.205-.066-.486a7 7 0 0 0-.224-.726l-.882-2.743h-5.6l-.923 2.743a4 4 0 0 0-.143.524 2.4 2.4 0 0 0-.05.447q0 .647.45.948c.298.195.809.309 1.524.339v1.079h-5.581zm-18.404 0c.618-.03 1.054-.097 1.316-.2q.389-.16.594-.533.267-.512.376-2.529.107-2.018.108-7.178 0-2.587-.408-3.088c-.275-.328-.863-.496-1.774-.496h-.105v-1.057h5.204l7.841 12.297q.002-4.956-.101-7.246-.102-2.286-.36-3.021a1.15 1.15 0 0 0-.659-.714c-.324-.146-.848-.228-1.57-.259v-1.057h6.32v1.057q-.956.046-1.361.178c-.276.093-.478.238-.612.447q-.291.435-.411 2.275c-.075 1.227-.119 3.475-.119 6.743 0 1.057.008 2.061.03 3.004q.026 1.422.08 2.803l-1.383.01-9.356-14.638c-.006.206-.013.5-.013.886a247 247 0 0 0-.033 3.227q.002 4.036.13 5.987.13 1.945.415 2.407c.153.241.376.414.668.529.292.108.696.166 1.201.166h.195v1.079h-6.213zm-15.136-9.679h-1.138c-.097-1.627-.48-2.807-1.137-3.541-.656-.733-1.659-1.1-2.996-1.1-1.785 0-3.177.627-4.164 1.892q-1.49 1.896-1.489 5.304 0 3.494 1.626 5.462 1.63 1.962 4.512 1.964.474.001.975-.092a5.4 5.4 0 0 0 1.006-.29q.049-.611.078-1.125c.017-.345.025-.59.025-.749 0-1.536-.149-2.468-.452-2.808q-.446-.507-1.814-.507h-.085v-1.08h7.274v1.08h-.149q-1.342 0-1.78.571-.442.572-.44 3.122v.487q-.001.179.016.79c.01.41.022.718.026.936-.831.258-1.679.453-2.556.582q-1.308.194-2.657.195c-2.6 0-4.658-.751-6.187-2.25q-2.292-2.249-2.292-6.017 0-3.83 2.373-6.209c1.578-1.581 3.671-2.375 6.265-2.375q1.095.001 2.4.16a32 32 0 0 1 2.76.459zm-33.127 9.679q.92-.045 1.316-.2.39-.16.592-.533c.183-.341.305-1.185.377-2.529q.104-2.018.105-7.178c0-1.725-.131-2.754-.405-3.088-.274-.328-.863-.496-1.771-.496h-.107v-1.057h5.205L288 103.646q0-4.956-.105-7.246-.099-2.286-.357-3.021a1.17 1.17 0 0 0-.66-.714c-.326-.146-.848-.228-1.57-.259v-1.057h6.321v1.057q-.957.046-1.364.178c-.273.093-.476.238-.612.447-.194.29-.327 1.048-.408 2.275q-.117 1.84-.118 6.743c0 1.057.009 2.061.024 3.004q.031 1.422.081 2.803l-1.382.01-9.357-14.638q-.01.308-.01.886a247 247 0 0 0-.033 3.227q0 4.036.129 5.987.131 1.945.418 2.407c.149.241.373.414.668.529.29.108.695.166 1.198.166h.194v1.079h-6.211zm-5.425-6.96q0-3.597-1.131-5.503-1.132-1.913-3.261-1.914c-1.42 0-2.511.634-3.264 1.905-.757 1.271-1.132 3.094-1.132 5.478q-.002 3.572 1.132 5.468c.753 1.264 1.844 1.892 3.264 1.892q2.107 0 3.25-1.898 1.142-1.9 1.142-5.428m-4.387-8.497q3.379-.001 5.315 2.255 1.938 2.26 1.936 6.208.002 3.929-1.936 6.181-1.936 2.248-5.315 2.249c-2.256 0-4.031-.751-5.317-2.249-1.295-1.501-1.938-3.562-1.938-6.181q0-3.94 1.929-6.2c1.289-1.506 3.062-2.263 5.326-2.263m-21.819 15.315c.202.038.408.062.616.084q.318.036.642.036c2.296 0 4.027-.594 5.204-1.781q1.758-1.782 1.758-5.256.002-3.421-1.695-5.194-1.695-1.771-4.979-1.771-.62-.001-.967.034a5 5 0 0 0-.661.107q-.034.583-.053 1.123-.015.535-.014 1.038v8.752q0 .778.036 1.475c.026.462.065.916.113 1.353m-5.097.142h.084c.907 0 1.506-.174 1.81-.513.301-.343.457-1.166.457-2.479v-8.023c0-1.321-.156-2.153-.457-2.496-.304-.343-.903-.513-1.81-.513h-.084v-1.057h6.749q2.919 0 4.44.453a6.66 6.66 0 0 1 2.674 1.533q1.074.993 1.637 2.472.564 1.484.563 3.284.001 4.186-2.438 6.304-2.445 2.114-7.291 2.114h-6.334zm-4.67-9.679h-1.138q-.151-2.44-1.138-3.541t-2.996-1.1c-1.785 0-3.178.627-4.166 1.892q-1.489 1.896-1.488 5.304 0 3.494 1.626 5.462 1.63 1.962 4.511 1.964.478.001.975-.092a5.3 5.3 0 0 0 1.005-.29c.032-.407.063-.783.08-1.125.018-.345.027-.59.027-.749 0-1.536-.151-2.468-.453-2.808q-.447-.507-1.815-.507h-.083v-1.08h7.273v1.08h-.152c-.891 0-1.487.191-1.778.571q-.44.572-.44 3.122v.487c0 .118.002.384.015.79.009.41.022.718.027.936-.829.258-1.678.453-2.557.582q-1.305.194-2.656.195c-2.595 0-4.66-.751-6.186-2.25q-2.291-2.249-2.292-6.017-.001-3.83 2.371-6.209 2.37-2.373 6.268-2.375 1.092.001 2.399.16 1.303.154 2.761.459zm-33.128 9.679q.921-.045 1.316-.2.389-.16.592-.533c.181-.341.304-1.185.378-2.529q.104-2.018.105-7.178 0-2.587-.405-3.088-.414-.494-1.774-.496h-.107v-1.057h5.207l7.839 12.297c0-3.303-.03-5.72-.101-7.246q-.1-2.286-.359-3.021a1.16 1.16 0 0 0-.66-.714c-.326-.146-.85-.228-1.57-.259v-1.057h6.321v1.057c-.635.031-1.092.09-1.363.178-.274.093-.475.238-.611.447q-.29.435-.409 2.275-.118 1.84-.118 6.743c0 1.057.007 2.061.025 3.004q.031 1.422.08 2.803l-1.384.01-9.354-14.638q-.012.308-.012.886-.03 2.319-.03 3.227 0 4.036.127 5.987.131 1.945.418 2.407c.149.241.374.414.666.529.292.108.695.166 1.2.166h.194v1.079h-6.211zm-10.072-13.136-2.435 6.939h4.82zm-7.596 13.136c.517-.06.947-.292 1.304-.705q.533-.61 1.154-2.243l3.959-10.383c.083-.224.194-.513.325-.862q.202-.528.468-1.264h2.126q.288 1.035.413 1.465.122.422.21.638l3.903 10.988q.517 1.428.948 1.866c.293.289.693.456 1.209.5v1.079h-6.62l.009-1.079q1.216-.066 1.649-.292.436-.227.436-.754a2.3 2.3 0 0 0-.064-.486 7 7 0 0 0-.225-.726l-.883-2.743h-5.6l-.923 2.743a4 4 0 0 0-.143.524 2.4 2.4 0 0 0-.051.447q0 .647.45.948.452.293 1.524.339v1.079h-5.578zM164.04 92.406v-1.057h7.279v1.057h-.084c-.896 0-1.495.168-1.795.496q-.45.501-.45 2.513v5.813q-.001 2.62.993 3.902.994 1.276 3.027 1.278c.741 0 1.375-.16 1.913-.478q.802-.484 1.297-1.434c.237-.469.406-1.029.505-1.689q.149-.989.149-3.101v-1.879q0-3.67-.446-4.547-.446-.874-1.754-.874h-.3v-1.057h6.172v1.057c-1.561.016-2.351 1.45-2.382 4.297-.006.285-.01.508-.01.66v1.273c0 3.068-.243 5.144-.729 6.24-.421.957-1.104 1.693-2.04 2.213q-1.405.779-3.358.777-2.963.001-4.295-1.462-1.34-1.464-1.339-4.736v-6.253q-.001-1.982-.458-2.496c-.305-.343-.904-.513-1.809-.513zm-4.668 4.345h-1.138c-.099-1.627-.483-2.807-1.141-3.541-.654-.733-1.654-1.1-2.992-1.1-1.785 0-3.178.627-4.167 1.892q-1.488 1.896-1.487 5.304-.002 3.494 1.627 5.462 1.625 1.962 4.511 1.964.474.001.973-.092a5.3 5.3 0 0 0 1.005-.29c.032-.407.063-.783.081-1.125.018-.345.024-.59.024-.749 0-1.536-.149-2.468-.45-2.808q-.449-.507-1.816-.507h-.085v-1.08h7.276v1.08h-.15q-1.342 0-1.783.571-.439.572-.439 3.122v.487c0 .118.004.384.016.79.01.41.021.718.028.936-.832.258-1.681.453-2.557.582q-1.308.194-2.657.195-3.897 0-6.185-2.25-2.295-2.249-2.293-6.017.001-3.83 2.371-6.209c1.578-1.581 3.671-2.375 6.266-2.375q1.095.001 2.401.16 1.301.154 2.761.459z" fill="#000"/><defs><radialGradient id="paint0_radial_63_12774" cx="0" cy="0" r="1" gradientUnits="userSpaceOnUse" gradientTransform="rotate(45 -3.891 120.413)scale(74.3931 74.3932)"><stop stop-color="#d80d19"/><stop offset=".1" stop-color="#d80d19"/><stop offset=".43" stop-color="#b9020d"/><stop offset=".81" stop-color="#910000"/><stop offset=".97" stop-color="#b9020d"/><stop offset="1" stop-color="#d80d19"/></radialGradient></defs></svg>