<svg width="128" height="128" fill="none" xmlns="http://www.w3.org/2000/svg"><path fill-rule="evenodd" clip-rule="evenodd" d="M104.248 58.564 86.622 40.938c-13.404 22.627-2.318 37.33-2.318 37.33L61.257 65.645 39.032 81.011C60.572 51.653 47.4 39.169 47.4 39.169l21.128 10.975L85.015 39.33l-15.58-15.58a7.687 7.687 0 0 0-10.87 0L23.752 58.565a7.686 7.686 0 0 0 0 10.872l34.813 34.812a7.685 7.685 0 0 0 10.87 0l34.813-34.812a7.686 7.686 0 0 0 0-10.872" fill="url(#paint0_radial_63_13106)"/><defs><radialGradient id="paint0_radial_63_13106" cx="0" cy="0" r="1" gradientUnits="userSpaceOnUse" gradientTransform="rotate(90 22.706 62.787)scale(34.9438)"><stop stop-color="#fad700"/><stop offset="1" stop-color="#722058"/></radialGradient></defs></svg>