<svg width="128" height="128" fill="none" xmlns="http://www.w3.org/2000/svg"><path d="M69.782 46.459C71.328 59.616 68.07 69.644 64 76.216c-4.07 6.57-14.413 11.927-19.953 18.491l1.468-.162c2.232-.231 5.212-.408 11.307.162 6.709.628 16.707 7.617 24.14 8.265A42.4 42.4 0 0 1 64 106.492c-23.472 0-42.5-19.028-42.5-42.5 0-20.825 14.978-38.152 34.749-41.795Q68.283 33.694 69.781 46.46" fill="#015caa"/><path d="M64 21.492c23.472 0 42.5 19.028 42.5 42.5 0 11.733-4.755 22.356-12.442 30.046q-8.577-1.563-14.794-4.167l-.4-.169c-7.761-3.333-15.742-4.94-22.042-3.333 6.358-4.108 15.544-3.35 24.59-13.862 9.048-10.512 9.048-30.11 0-39.316-6.635-6.753-15.866-10.174-21.35-11.518A43 43 0 0 1 64 21.492" fill="#138b39"/></svg>