<svg width="128" height="128" fill="none" xmlns="http://www.w3.org/2000/svg"><path d="M62.3 21.6s6.25-.95 11.75 4.05L104.3 54.9s-14.15-5.25-30.5-6.05c-16.3-.8-19.05-.35-19.05-.35z" fill="#ffad19"/><path d="M24.65 53.75c17.85-17.45 27.5-26.9 29-28.2 2.25-2 5.75-4 8.65-3.95l-7.55 26.9s-21 .5-30.1 5.25" fill="#ff962d"/><path d="m54.75 48.5-7.4 24.45S29.95 68.6 23.6 61.4c-6.3-7.2 6.8-9.95 8.5-10.3 1.7-.3 10.35-2.25 22.65-2.6" fill="#e16421"/><path d="m104.3 72.95-30.05 29.399s-5.75 3.95-8.65 3.95l7.55-26.95c.05 0 22.05-1.65 31.15-6.4" fill="#187dc0"/><path d="m73.2 79.35 6.35-23.15s18.6 2.65 25.1 9.95-7.5 9.55-10.15 10.15c-2.6.65-10 2.2-21.3 3.05" fill="#0b5aa4"/><path d="M53.85 102.199c-3.7-3.35-13.75-13.1-30.25-29.25 0 0 14.15 5.25 30.5 6.05 16.3.8 19.05.35 19.05.35L65.6 106.3c.05 0-6.2.9-11.75-4.1" fill="#1f8fce"/></svg>