<svg width="391" height="128" fill="none" xmlns="http://www.w3.org/2000/svg"><path d="M281.161 40.897v5.48h6.01v5.065h-6.01v7.375l5.147-2.87v5.927l-9.041 5.533-3.467-3.618 1.666-1.73V51.443h-5.374v-5.066h5.374v-5.479h-2.002l-1.911 2.984-2.396-7.034c2.921-4.035 5.279-8.706 6.63-14.523l6.381.243-1.382 4.41h6.309v5.066h-8.818l-1.293 3.94h8.953v4.914zm17.131 1.445h10.001v-4.785h-13.146v4.785zm0 17.299 3.148-1.332c-1.162-2.233-2.305-4.599-3.148-6.977a25 25 0 0 1-1.03-3.624h-2.115v13.245zm-3.145-30.431v4.296h13.146V29.21zm20.428 23.81-7.19 4.633c2.358 2.234 4.738 3.49 7.94 4.407l-3.202 5.293c-3.485-1.353-6.725-3.977-10.093-6.867l-.151 2.962-1.159.51-3.428 1.461-7.32 3.152-3.372-5.158 2.022-1.482V23.636h24.228v24.072h-11.305c.522 2.141 1.158 4.296 2.638 6.453l7.508-5.324zm33.349-13.792h28.498v6.397h-6.665v15.087c-.057 4.183-2.509 6.47-7.134 7.053l-10.282.054-1.083-5.908 9.511.019c2.078-.319 2.437-1.99 2.339-3.58V45.625h-15.183v-6.397zm-6.348-5.29c4.174 2.457 5.711 3.303 5.88 3.716 0 0-4.306 4.971-4.59 5.287v24.917h-6.756v-18.74l-4.476 5.532-3.221-6.135c3.013-2.89 5.953-6.003 8.897-9.343a141 141 0 0 0 4.266-5.234m7.733-3.527v-5.816h24.735v5.817zm-12 4.858a148 148 0 0 1-4.102 3.322l-4.55-5.218c3.054-2.306 5.935-4.763 8.652-7.557a69 69 0 0 0 3.201-3.66l5.39 4.407c-2.452 3.097-5.39 5.968-8.591 8.706m-166.444 3.678c2.002-1.35 6.252-4.54 7.66-6.772h-15.43c1.571 2.233 5.73 5.422 7.732 6.734zm16.591-6.772c-2.024 3.189-7.099 7.618-10.282 10.299 5.037 1.706 9.045 2.27 16.966 2.927-.019 1.911-.205 3.564-.245 6.64-3.294-.524-5.523-.69-8.857-1.76v17.99h-6.982l.037-19.381c-4.681-1.858-4.026-1.596-7.039-2.981-.076.038-.17.056-.227.091-2.547 1.127-3.296 1.804-6.536 2.593l-.053 6.132c0 5.196-5.132 11.091-10.505 13.47-1.723-1.988-3.523-3.057-5.693-4.54 4.868-1.501 9.455-5.16 9.439-8.498l-.041-4.504c-3.296.921-4.622 1.072-8.947 1.766l-.602-6.734c7.191-.284 10.393-1.13 16.141-3.492-2.736-2.4-7.977-6.996-9.866-10.018h-6.051v-5.893h18.464l-.938-3.958 5.188-.073 3.145-.019.602 4.05h18.722v5.893zm58.287 24.146h-26.886v2.306h26.886zm0 7.69v-2.325h-26.886v2.325zM230.416 52.42h22.299v14.838H214.09V52.419zm-10.372-13.284v2.139h10.522v-2.14zm0-5.422v2.362h10.522v-2.363zm2.563-6.379-2.506 2.61h17.879l2.698-2.61zm24.267 6.378h-10.749v2.363h10.749zm0 7.561v-2.138h-10.749v2.139zm-32.802-7.28-1.612 1.183-3.989-3.435c3.615-2.549 7.135-5.325 10.242-8.911h29.864l.097 4.242-3.054 2.871h7.471v14.8h-39.019zm16.346 12.384h25.856v4.505H209.07v-4.505zM339.01 97.312V78.517h4.682v23.955h-7.191l-9.119-19.94-.113.129v19.811h-4.682V78.517h7.472l8.841 18.906zm33.317-18.795-8.593 10.766 9.361 13.189h-6.199l-8.241-12.157v12.157h-5.019V78.517h5.019V88.87l7.866-10.353zm-99.126 19.956c2.736.152 4.046-.88 3.954-3.131.092-2.23-1.218-3.302-3.954-3.227h-3.99v6.358zm-3.99-15.941v5.591h3.917s.035-.041.073-.041c2.04 0 3.148-.917 3.205-2.7-.057-1.895-1.165-2.85-3.205-2.85zm8.074 7.502c3.296.937 5.018 3.018 5.185 6.229-.314 3.938-3.425 5.982-9.27 6.209h-9.061V78.517h9.062c5.246.054 8.016 2.1 8.259 6.225-.092 2.48-1.48 4.223-4.175 5.16zm24.288 3.377h3.337l-3.148-10.24h-.114l-.075.186-3.351 10.054zm0-14.895h3.221l8.224 23.955h-5.059l-1.758-5.05h-9.235l-1.757 5.05h-4.817l8.448-23.955zM183.892 102.47V78.516h5.075v23.954zm51.463-10.86V78.52h5.053v15.004c-.277 5.982-3.63 9.041-10.11 9.227-6.669-.186-10.057-3.245-10.262-9.227V78.519h5.072v13.09c-.352 5.346 1.389 7.897 5.19 7.616 3.614.281 5.299-2.27 5.057-7.615m-30.771-13.092v19.956h10.113v3.998H199.64V78.518zM164.47 99.225c3.876 0 5.825-2.87 5.825-8.666 0-5.868-1.949-8.814-5.825-8.814h-.057c-4.024.038-5.973 2.961-5.879 8.814-.094 5.835 1.855 8.723 5.879 8.666zm11.105-8.666c-.261 3.283-1.385 6.08-3.407 8.424l-1.498 1.649 2.229 2.946-3.561 1.967-2.264-3.207c-.243-.338-.992.227-1.351.262-.243.019-.504 0-.746 0-.246.098-.451.151-.507.151h-.057c-7.302-.224-11.03-4.276-11.197-12.192.167-8.085 3.895-12.267 11.197-12.548h.057c7.172.246 10.844 4.428 11.105 12.548" fill="#074b96"/><path d="M61.62 14.08s7.365-1.094 13.869 4.79l35.645 34.495s-16.684-6.16-35.925-7.12c-19.236-.965-22.483-.415-22.483-.415z" fill="#ffad19"/><path d="M17.21 52q31.554-30.895 34.22-33.265c2.665-2.37 6.767-4.69 10.19-4.655l-8.894 31.75S27.95 46.39 17.21 52" fill="#ff962d"/><path d="m52.725 45.828-8.698 28.804s-20.525-5.109-28-13.62C8.557 52.503 23.993 49.28 26 48.897s12.181-2.663 26.724-3.07" fill="#e16421"/><path d="m111.134 74.635-35.417 34.634s-6.757 4.68-10.175 4.65l8.894-31.745c.011 0 25.937-1.934 36.698-7.54" fill="#187dc0"/><path d="m74.436 82.173 7.494-27.267s21.947 3.14 29.605 11.706c7.657 8.566-8.868 11.232-11.96 11.97-3.093.737-11.798 2.611-25.14 3.592" fill="#0b5aa4"/><path d="M51.673 109.134q-6.51-5.88-35.646-34.5S32.712 80.8 51.953 81.76c19.236.96 22.482.414 22.482.414L65.54 113.92s-7.359 1.095-13.867-4.785" fill="#1f8fce"/></svg>