<svg width="457" height="128" fill="none" xmlns="http://www.w3.org/2000/svg"><path d="M63.935 113.869C36.357 113.869 14 91.513 14 63.935S36.357 14 63.935 14s49.934 22.357 49.934 49.935-22.356 49.934-49.934 49.934m0-5.959c24.4 0 44.18-19.688 44.18-43.975S88.335 19.96 63.935 19.96 19.754 39.65 19.754 63.935c0 24.287 19.78 43.975 44.18 43.975m19.37-43.003c2.622-.06 4.828-.15 4.828-3.453-3.547-8.485-9.805-1.995-6.676 2.47.596.327 1.222.655 1.848.983M71.206 82.084c.775-2.054.953-2.977.09-4.704-1.431-.088-2.385.269-3.636.536-.894 0-9.596-.565-10.46.298-1.49 3.87 2.98 5.418 5.99 6.043 2.324-.238 6.198-.208 8.016-2.173m-25.3-15.093c1.579-.507 2.92-1.013 3.784-2.59 0-2.114-1.043-3.811-2.235-5.061-2.086-.15-4.887 1.756-4.887 3.87.715 1.072 1.818 3.155 3.338 3.78m38.978-17.029c4.769 2.709 11.146 8.306 13.38 13.724 0 1.995-.655 5.299-3.367 5.299-2.92-1.28-3.04-.357-4.947 1.876-1.966 3.96-1.609 6.698-.923 11.134.179 3.126 1.043 6.4 1.043 9.646-1.64 1.816-4.5 4.227-6.765 4.673-.686-.685-.536-1.16-.686-1.786-.059-6.37-.119-12.711-.148-19.053-.477-1.429-2.146-5.27-3.934-4.376a9 9 0 0 0-.388.953c-.06 4.852.269 10.538-2.533 14.945-4.619 3.72-11.294 4.287-16.777 2.977-6.14-2.829-6.347-4.109-7.51-10.48-.06-2.202-.12-4.406-.149-6.61a21 21 0 0 0-.894-.773c-3.218.804-2.86 6.698-3.427 9.467-1.639 5.21-5.215 10.3-10.103 13.159h-1.042c-1.788-1.191-1.222-8.188-.745-9.497 3.188-2.858 3.188-2.858 3.844-3.662 3.338-5.954 4.32-10.45-.984-15.123-3.575-1.787-4.35 2.768-7.33 1.638-1.759-2.263-2.176-2.59-1.043-4.883 4.41-5.061 11.8-12.98 18.982-12.98.417.208.835.417 1.252.654 1.192 1.935 2.474 3.663 6.854 10.867.596 3.037-.566 6.043.775 9.11 3.755 1.875 9.566 1.547 13.738.357 2.593-2.085 1.818-4.346 1.728-7.235 1.103-4.762 4.054-10.15 7.331-13.574 2.087-1.4 2.325-1.251 4.768-.447m-18.86.89c2.614-1.512 3.683-4.418 3.03-7.086-1.426-1.423-7.483-.652-9.264-.089-.832 2.55.95 6.374 3.711 7.56 1.336-.089 1.336-.089 2.524-.385m29.84-11.711c1.575.623 1.575.623 1.99.919v.711c-2.346 1.453-4.632 2.402-7.036 3.41-4.246.207-9.175-1.987-12.53.534-2.85 3.942-5.345 8.3-8.196 12.362-2.494 1.66-3.443 1.75-6.294 2.164-7.452-1.72-7.987-7.41-11.52-13.548l-.802-.89c-4.127-1.215-9.798.03-13.806.712-1.188 0-2.257.03-3.177-.296-2.079-2.787-1.04-4.952.771-7.265.594-.147.594-.147 10.096-.444 3.711-.444 7.66-.593 11.58-1.186 2.256-1.067 1.87-3.29 2.642-5.158 2.91-2.046 8.729-1.453 10.51 2.104.386 2.135.06 2.58 2.317 3.202 8.046.208 15.32.89 23.456 2.669" fill="#e50113"/><path d="M421.185 63.155c-3.728-3.025-4.298-9.435-5.2-13.32-.06-2.47-.12-4.913-.151-7.355-1.622-3.385-3.366-4.246-6.823-4.246-2.104.583-4.208 1.194-6.312 1.804-3.186 0-6.583-3.108-8.055.638-.211 3.608-.451 7.743-2.165 11.323-3.066 3.996-10.25 11.406-16.291 8.158-1.323-1.692-1.534-1.858-1.534-3.69a19.6 19.6 0 0 1 3.758-5.939c3.757-2.858 11.271-4.218 11.271-9.768-1.562-2.442-1.863-2.553-4.568-1.97-3.367 1.47-6.673 3.829-9.98 1.526-1.983-3.275-2.885-4.968-.991-8.242 3.185-1.638 8.356-2.86 12.324-2.86 2.494.445 4.689 2 7.003 3.497 3.216.972 6.914-1.303 9.949-2.525 6.283-1.526 12.324-1.026 18.817.416 2.705.361 5.41.723 8.115 1.11 3.127-.054 9.048-.804 12.415.64 1.052 1.803.48 3.58-.632 5.605-4.599 5.3-10.009 3.33-15.42 1.11-6.492-.25-6.011 3.83-5.019 8.52.841 2.525 4.96 12.987 1.082 15.485-.541.028-1.082.055-1.593.083m-250.87-31.444c1.729-.53 9.123-3.239 9.123-5.697-.179-.112-.329-.224-.478-.308-1.282-.139-10.732 0-14.161-.139-1.937.363-4.978.587-4.978 2.764 2.325 1.649 4.442 2.403 7.512 3.464zm35.833 8.673c2.807.926 3.583 2.834 1.642 5.205a210 210 0 0 0-4.09 2.833c-2.567.49-5.134 1.062-7.582 1.226a304 304 0 0 0-3.881-1.09c-6.27-3.27-6.27-3.27-7.076-3.542-1.343.9-1.045 2.834-1.045 4.414.359 3.025 3.046 13.679-2.298 15.286-4.359-2.833-4.12-9.428-4.12-13.515.925-2.942 2.687-8.746-.239-10.817-5.762-2.425-9.613-3.242-13.494 1.716-.298 3.924.747 7.794-.448 11.99q-.59 1.332-1.164 2.67c-2.239 2.806-6.12 6.13-9.643 7.465-3.462 0-6.836-.408-9.463-2.288-2.12-3.515 3.283-6.54 5.702-8.474 3.015-1.553 6.478-2.915 9.284-5.041.896-1.498 2.269-3.215-.298-3.679-2.12.954-4.239 1.907-6.329 2.861-5.792 1.336-11.912 2.97-17.315.818-.358-1.008-.33-1.498-.33-2.398 1.971-3.324 5.286-5.422 9.316-6.458 3.015-.354 6.269-.49 9.553-1.09 2.985-1.09 7.642-2.451 7.852-2.642 0-.191.029-.355.059-.518-2.836-1.172-8.24-.9-9.613-3.705 0-1.5.896-2.535.896-3.68-.209-.19-.209-.19-1.105-.217-4.15 1.199-9.284 2.806-13.195.68-2.089-3.705-.149-5.64 2.986-8.01 1.97-.926 5.671-.899 8.09-1.117 6.448 0 8.537.137 11.941.137 2.09-.274 2.09-.274 2.986-.546 2.388-1.962 5.373-6.24 9.373-4.414 1.941 1.608 5.165 4.932 7.971 5.504 6.867-.027 14.748-.872 21.734.437 3.373 2.806.806 6.757-2.926 7.874-2.836 0-8.598-2.752-10.658-.872-.179.409-.179.409-.477 2.943-2.389 2.424-7.285 1.226-10.27 3.324v.545c.328.245.687.49 1.045.735 4.956 1.553 9.583 3.952 14.987 5.45zm63.263-11.961v-.714c-2.919-1.117-6.095-1.545-9.071-.88-2.289 1.904 1.431 2.855 3.349 3.259 1.859-.262 3.748-.904 5.722-1.665m-4.104 13.066c3.355-1.823.058-4.573-2.15-5.035-2.753 0-4.473-.653-6.05 1.224-1.061 3.294 3.412 3.62 6.05 4.028.717-.08 1.433-.163 2.15-.217m-18.471 10.937c1.478-.029 8.956.425 7.165-3.146-3.099-1.616-5.487-1.446-8.615-1.049-3.242 1.87-1.678 3.26 1.45 4.194m3.749-11.166c.984-4.15-3.877-6.855-5.057-3.196-.169 2.14-.647 3.248 1.77 4.536 1.601-.103 2.135-.36 3.287-1.34m-9.138-14.754c-1.723 2.199 1.167 3.256 3.387 3.562 1.43 0 11.037.473 7.942-3.228-3.241-1.447-8.439-1.67-11.33-.334zm-7.528 14.307c2.147-.055 7.276-.602 5.874-3.61-2.028-1.259-6.202-.958-8.111-.22-1.223 2.27-.387 2.873 2.237 3.83m50.435-19.763c1.055 2.417-2.509 6.068-4.334 7.355-2.453.525-4.25.052-5.705 1.786-2.566 6.908-2.167 13.973.4 21.118.57 3.205 1.654 10.218-3.337 11.137-5.219-1.418-2.823-11.137-6.302-14.341-1.284-.578-2.425-1.261-3.594-1.156-1.312 1.523-1.312 3.73-1.312 5.805 1.027 2.285 2.767 4.28.514 6.672-1.312.604-2.909-.526-3.736-.946-3.936-.893-8.014-.446-11.807-.394-2.738.368-7.244 3.047-9.327 1.97-2.195-3.546-1.254-5.91-.313-9.535 0-2.049.713-4.282-1.825-4.098-1.255.762-2.852 1.577-3.594 2.81-.941 4.072-2.709 13.66-8.612 13.923-4.135-2.522-3.594-9.667-.599-12.425 4.706-2.416 3.793-6.041 3.793-10.296-1.17-3.178-2.766-5.411-1.397-8.326 1.454-.92 4.677-.552 6.587-.552 2.083-.473 5.305-2.495 3.28-4.597-3.85-.814-7.928.552-11.522 1.313-4.933 0-8.698-2.39-5.047-6.54 6.388-3.415 14.573-2.731 21.845-2.916 3.08-.42 4.363-2.074 6.531-4.176 3.565-1.76 6.645.394 9.041 2.995 1.682 1.208 3.422 1.628 5.846 1.97 10.751.262 10.751.262 21.389.262.998.132 2.196.237 3.137 1.182m63.71 5.836c1.776-1.862-.826-3.287-2.326-3.67-3.735-.056-10.899-1.342-13.103 2.136 0 1.781.061 1.726 2.389 2.055l11.785-.083c.398-.163.827-.3 1.255-.438m-13.061 11.178c4.757-.029 8.091.833 11.879-2.884 0-1.13.03-1.25-.818-1.517-8.061 0-8.061 0-9.273.149-2.121.862-5.091 2.29-1.788 4.253m10.988 12.771v-.812c-1.176-2.24-2.408-5.433-4.902-2.94-.56 2.016-.952 4.032 1.205 5.348 1.989-.084 2.213-.112 3.697-1.596m-11.841-.27c2.465-.995 2.174-4.817 1.797-6.755-1.16-1.65-2.145-1.152-3.711-1.1-1.682.995-1.538 5.29-1.073 7.148q.543.404 1.102.785zm-11.641.89c2.925-1.817 4.296-7.705 4.784-10.65 0-4.567-.518-9.107-1.524-13.262-2.042-2.67-4.723-1.954-7.405-1.404-1.797 0-10.574-.633-8.563 3.027 1.615.358 3.505.275 5.363.275 2.591.468 9.447 2.366 5.516 5.916-1.28 0-2.072-.33-3.047-.55-2.56-.165-7.039.248-5.699 3.715 2.622 1.513 6.643.357 9.355 2.504 2.104 2.917-4.905 3.935-6.733 4.1-2.622.577-6.401.743-4.602 3.99 2.803 1.623 6.186.193 9.66 1.403.609.33 1.218.66 1.828 1.018a137 137 0 0 1 1.067-.082m43.95 2.866c.27 3.156-4.457 6.558-6.999 8.204-1.106.357-1.884.576-2.931.63-3.859-1.618-5.414-5.24-8.853-6.803-.509-.055-.987-.11-1.466-.138-4.277.96-8.704 1.098-12.622 2.497l-6.73 3.95c-4.815.934-6.789-4.307-10.019-6.035a752 752 0 0 0-8.375 3.155c-1.944 1.016-3.948 2.332-6.102 2.332-7.746-3.156-.538-8.478 1.735-12.429 0-5.186-4.277-1.29-7.447-3.21-1.077-2.003-1.017-3.897-.15-5.735 1.436-.548 8.943-.193 6.46-3.622-1.435-.438-2.841-.659-3.917-1.207-1.795-3.21-1.645-2.497-5.503-2.332-2.394-.631-2.124-1.18-2.752-3.073 0-5.652 3.35-6.613 8.285-8.862 2.512-1.428 4.695-2.937 6.968-4.72 2.364-3.293 2.603-3.979 5.684-1.152 1.136.768 2.302 1.537 3.469 2.304 3.17.521 6.101 1.702 9.092-.465.688-.879 1.197-1.099 2.303-1.455 8.166.33 16.151.686 24.556.548 2.782.165 8.404-.273 6.939 4.144-1.465 1.783-2.871 3.43-4.038 5.405-.837 3.951-.598 8.341-.598 12.622-1.615 2.963-5.175 2.084-3.11 6.447l3.05 3.21c2.153 1.098 4.247 2.58 6.58 3.841 5.923 1.675 5.923 1.675 6.491 1.949m18.316-28.616c-2.809-.14-5.406-.754-7.852-1.34-4.56-1.952-5.134-7.782-1.208-10.182 6.04-.92 15.916 1.73 20.445 5.915 1.842.976 2.054 1.394 3.896.055 1.178-2.483 1.238-3.57 3.745-4.854 6.463-1.645 13.529-1.422 20.536-.836 5.194.92 11.778 1.367 12.744 7.615-.604 1.2-.937 1.619-2.325 2.148-4.833-.14-8.759-.418-21.744-.697-3.443.53-6.916 1.367-10.117 1.953-7.701 0-7.701 0-18.12.222m38.835 69.898v6.304q-.276 2.944 2.765 2.668h.554v1.4h-11.607v-1.4h.69q2.627.276 2.629-2.668V87.75c.088-1.776-.83-2.662-2.765-2.662h-.553v-1.405h11.606v1.405h-.69c-1.933-.095-2.812.837-2.629 2.805v6.447c1.386-.19 2.947-1.076 4.698-2.666 2.121-2.524 3.224-4.343 3.318-5.467 0-.748-.689-1.118-2.074-1.118h-.413v-1.406h9.531v1.405c-2.027.09-3.312.515-3.867 1.262q-.688.699-2.075 2.662c-1.562 2.147-2.852 3.6-3.866 4.348.832.466 2.116 1.77 3.866 3.923l3.043 3.924q2.485 3.644 5.387 3.368v1.4h-12.155v-1.4c1.562 0 2.394-.329 2.482-.981-.46-1.029-2.252-3.271-5.387-6.729-1.014-.94-1.839-1.358-2.488-1.262m-33.559-7.434v13.457c-.272 2.154.856 3.134 3.393 2.949v1.4h-8.411v-1.4h.271c1.714.09 2.576-.658 2.576-2.243V85.789q-1.083-.566-2.714-.7v-1.406h7.056l14.246 15.281V88.169q.407-3.5-3.259-3.08h-.405v-1.406h8.955v1.405h-.405q-3.125-.001-2.854 1.819v19.068h-1.899zm-17.491 7.997-3.25-8.917-2.986 8.917zm1.244 1.415h-7.818l-1.394 4.266c-.47 1.142-.512 1.9-.143 2.276.376.383 1.353.522 2.932.432h.423v1.42h-9.498v-1.421h.561c1.579.188 2.746-.953 3.491-3.417l6.143-17.351-.417-.995h5.303l7.12 18.492c.745 2.276 1.96 3.362 3.635 3.272v1.42h-11.59v-1.421h1.252c.935 0 1.537-.193 1.817-.57q.418-.708-.137-2.137zm-29.752-12.872v7.89h2.743q4.244-.001 4.384-3.732c-.181-2.77-1.964-4.198-5.344-4.293q-1.097.001-1.783.135m.02 8.926v7.171q-.267 3.653 3.117 3.364 4.744-.002 4.881-5.124c-.179-3.608-1.989-5.462-5.418-5.555-1.36 0-2.215.05-2.58.144m-4.743 7.927V87.907c.271-2.367-.766-3.41-3.103-3.126h-.812v-1.426h1.353c.898-.09 1.889-.187 2.965-.279 2.609-.195 4.497-.285 5.671-.285 4.677 0 7.826.849 9.444 2.56q1.216 1.56 1.354 3.272-.139 3.412-4.319 4.266v.14q5.258 1.42 5.533 6.117c-.454 4.365-3.42 6.64-8.908 6.829h-13.363v-1.421q4.454.284 4.185-2.992m-20.221-6.691v1.409q-2.622 0-2.482 2.248v5.335q-4.823 1.97-9.232 2.112c-8.544-.186-12.955-4.126-13.231-11.806.546-7.026 4.822-10.821 12.813-11.378 2.3.186 4.181.516 5.652.983q1.382.28 2.069.282.69-.002.965-.427h.964v6.464h-1.376q-1.657-5.475-7.309-5.762c-5.417.378-8.268 3.658-8.545 9.838q.555 9.559 8.545 10.259 2.346 0 3.863-.846v-5.055q.415-2.247-4.41-2.247v-1.41zm-51.998-6.702v13.457c-.272 2.154.857 3.134 3.392 2.949v1.4h-8.411v-1.4h.273c1.713.09 2.575-.658 2.575-2.243V85.789q-1.083-.566-2.715-.7v-1.406h7.057l14.246 15.281V88.169q.407-3.5-3.259-3.08h-.405v-1.406h8.955v1.405h-.405q-3.124-.001-2.854 1.819v19.068h-1.899zm-19.272 7.997-3.252-8.917-2.985 8.917zm1.243 1.415h-7.817l-1.395 4.266c-.47 1.142-.512 1.9-.143 2.276.376.383 1.353.522 2.932.432h.423v1.42h-9.498v-1.421h.56c1.579.188 2.747-.953 3.492-3.417l6.143-17.351-.417-.995h5.303l7.12 18.492c.745 2.276 1.96 3.362 3.635 3.272v1.42H247.83v-1.421h1.251c.935 0 1.537-.193 1.817-.57q.419-.708-.136-2.137zm-29.383 6.994h.549q2.597.137 2.596-2.805v-6.31h-11.621v6.447c-.093 1.873.822 2.758 2.736 2.668h.548v1.4h-11.212v-1.4h.542c1.733.09 2.602-.795 2.602-2.668V87.612c0-1.687-.869-2.523-2.602-2.523h-.542v-1.406h11.212v1.405h-.548c-1.914 0-2.829.837-2.736 2.524v5.748h11.621v-5.61q-.001-2.663-2.87-2.662h-.275v-1.405h11.212v1.405h-.682c-1.826 0-2.69.837-2.596 2.524v14.295c-.094 1.873.817 2.758 2.73 2.668h.548v1.4h-11.212zm-35.185.98-.819-6.47h1.369q1.642 5.344 6.029 5.343c2.469-.097 3.795-1.265 3.977-3.514q0-2.39-5.071-5.06-6.167-3.37-6.169-7.164.41-5.475 7.129-5.9c1.187 0 2.649.283 4.386.84q.685.144.959.144c.087 0 .275-.095.55-.281-.094.089 0 .047.269-.145h.69l.684 5.762h-1.374c-1.094-2.999-3.012-4.587-5.755-4.779-2.099.192-3.246 1.032-3.427 2.53 0 1.314 1.415 2.716 4.252 4.215 2.468 1.41 4.292 2.626 5.479 3.657q2.06 2.384 2.059 4.778c-.368 4.119-2.877 6.278-7.538 6.464a102 102 0 0 1-4.801-.565q-1.096-.42-1.234-.419c-.363.091-.591.282-.685.564zm-15.964-20.467v-1.405h10.691v1.405h-.529q-2.772-.001-2.636 2.662v14.157c-.09 1.873.788 2.758 2.636 2.668h.529v1.4h-10.691v-1.4h.395c1.672.09 2.507-.748 2.507-2.524V87.75c.089-1.776-.75-2.662-2.507-2.662zm-26.726 8.476c.282 7.305 3.145 11.141 8.582 11.519 4.687-.186 7.172-3.327 7.454-9.41-.564-7.024-3.373-10.721-8.438-11.099-4.88.281-7.406 3.278-7.598 8.99m21.381 18.88-.555 1.417c-.55.097-1.247.139-2.074.139-3.138 0-6.743-1.7-10.802-5.103-2.127-1.797-3.693-2.79-4.71-2.978q-8.17-2.416-8.585-10.925.825-11.349 13.573-12.203 11.904.708 12.739 11.494-.558 9.08-9.554 11.774c.922.375 2.121 1.325 3.598 2.838 2.216 2.361 4.337 3.547 6.37 3.547" fill="#000"/></svg>