<svg width="453" height="128" fill="none" xmlns="http://www.w3.org/2000/svg"><path d="M65.362 114H43.74l10.807-18.725zm43.808 0H87.547l10.807-18.725zM14 14h100v56.213l-12.024-20.82a4.19 4.19 0 0 0-3.631-2.097 4.18 4.18 0 0 0-3.6 2.097l-15.64 27.082c-1.155 1.994-.464 4.55 1.53 5.705a4.167 4.167 0 0 0 5.704-1.534l12.016-20.812 12.025 20.812a4.17 4.17 0 0 0 3.62 2.096v22.908l-12.024-20.825a4.18 4.18 0 0 0-3.631-2.092 4.18 4.18 0 0 0-3.6 2.092l-15.641 27.088a4.16 4.16 0 0 0-.557 2.087h-4.18c0-.714-.182-1.427-.561-2.087L58.168 84.825a4.18 4.18 0 0 0-3.635-2.092 4.18 4.18 0 0 0-3.599 2.092l-15.632 27.087a4.1 4.1 0 0 0-.563 2.088H14zm40.547 45.834L66.57 80.646a4.166 4.166 0 0 0 5.704 1.534 4.183 4.183 0 0 0 1.53-5.705L58.169 49.393a4.19 4.19 0 0 0-3.635-2.097 4.17 4.17 0 0 0-3.599 2.097L35.302 76.475a4.166 4.166 0 0 0 1.525 5.705 4.17 4.17 0 0 0 5.704-1.534z" fill="#f4a21c"/><path d="M327.717 77.525q.456-2.075.905-4.155c1.191.87-.401 3.226-.841 4.084 1.028-1.07 4.145-1.387 5.038-1.71 2.709-.981-1.092.398 0 0 1.368-.497 1.523-.549.48-.174-1.124.402 2.527-2.404 3.948-1.518 2.638 2.081-16.539 17.105-18.649 18.388-4.899 2.98-7.692-1.824-3.593-5.681 4.677-4.408 5.716-3.339 5.676-10.434-.395.58-2.962 12.816-4.983 6.755-1.266-3.783.933-8.549 2.025-12.135-1.244-.201-4.774 4.643-5.729 3.464-7.302-4.773 8.856-8.47 10.623-11.712-3.633 2.51-6.693-.641-9.841 1.231-4.135 2.452-6.356 9.687-7.435 13.946.59-2.343-4.943-2.16-3.131-6.07 1.785-3.858 3.406-7.807 5.08-11.708 3.714-8.674 7.609-17.376 11.943-25.771 2.025-3.936 14.097-11.114 13.231-1.026-.098 1.204-3.935 2.867-4.619 3.54-.933 1.841-.547 5.454-2.003 6.88 3.247-2.06 7.615 2.023 8.782 3.315a5 5 0 0 1 .586-.516c.585-.468-.012.107-.547.56.177.198.269.32.257.329-.542.59-5.508 6.179-5.534 5.485.155 3.225 3.006 5.983-1.541 8.19-.236 1.153 13.817-1.116-.902 5.512.831 1.287 5.072 2.317 4.579 3.88-2.087 6.545-4.623-4.67-4.072 7.732 0-.256.097-.481.267-.681m-35.759-35.274c-.814 9.272.977 17.731 0 27.17.159.752-.158 1.306 0 2.119-.158 2.447.493 3.911.326 5.853.488 5.375 4.559 13.839-1.791 16.928-3.442-2.496-6.887-5.001-10.188-8.077a164 164 0 0 1-2.16-2.39c-.761-.862-1.501-1.79-1.501-2.713-5.061-2.275-10.759 5.696-14.504-.816-2.931-4.233 6.68-6.337 1.47-10.249-.656-.325-.656-1.304-1.144-1.95 1.47-1.469 5.698-.163 5.042-3.749-1.945-1.626-4.233-2.276-6.997-2.276-1.632.166-3.26 1.63-3.749 3.256.819 7.005-1.302 13.346-1.139 20.825-.163.98-1.145 1.63-1.954.98-3.266-5.374-1.144-11.711-1.796-17.903 0-5.365 2.117-11.39-.326-16.272-4.237 5.532-4.4 13.512-6.679 20.179-1.624 5.366-2.936 10.907-5.699 15.78-2.288-1.626-6.526-1.946-6.852-5.69-.259-1.143.427-1.903.981-2.73q.321-.425.647-.847c3.754-4.4 2.935-10.42 3.917-16.11 1.139-6.35-3.754-11.554-1.144-17.416l7.168-11.065c3.098 2.443 5.219 7 5.057 11.395-1.633 2.764-5.057 2.927-6.848 5.858 1.628 1.459 2.284 5.528 5.387 4.227 4.884-5.045 5.527-11.228 6.345-17.894.585-.87 1.501-1.393 2.223-1.978.488-.404 1.407-1.054 1.597-1.116 2.926-.892 6.011-2.76 9.382-2.606l1.791 3.094c-3.257 5.695-.489 13.342-2.438 19.362-.167.976 1.126 1.3 1.782 1.788 1.474-.162 2.447-1.142 3.587-1.788 1.144-7.81-.485-16.273 2.935-23.269 1.465 1.143 2.768 3.414 5.056 2.602 5.048-.167 10.104-10.415 14.012-2.769zm-6.517-5.045-4.726 2.601c-.163 3.257 4.726 3.42 4.075 7.001-1.14 1.95-3.261 1.138-4.722 2.118-.168 1.46 1.791 1.947 2.6 2.927 1.14.65 3.266 2.276 4.075.162-.972-4.882 1.466-10.252-1.302-14.81m-24.93 4.394c-.651 1.134-.329 2.765.819 3.573 1.624.98 1.624-1.296 1.945-2.276.335-1.785-1.628-1.297-2.764-1.297m-1.791 9.11c-1.139.971-.813 2.606-1.139 3.907-.33 1.459.484 2.927 1.954 2.764 1.628-.65 2.442-2.276 2.442-3.902.651-2.118-1.954-2.444-3.257-2.769m20.855 7c-4.396-1.793-2.931 4.224-6.359 4.716-.651 1.468.326 2.93 1.47 3.902 1.465 1.305.493 3.424 0 4.882.326.818.81 1.956 1.958 2.123 4.071 1.463 2.447 4.715 4.233 7.646 1.791.809 3.75 1.296 5.545 0-.651-7.646 1.136-14.65 0-22.297-2.284-.488-5.214 1.142-6.68-.163zm-55.368-37.242c.616 3.537-3.851 5.686-5.694 8.454-.771-.15-2.003.611-2.157 1.846 4.929 4.918-3.23 7.994-5.078 12.138 0 0-.15.465-.303.773.461.765 1.685.923 2.455.307l.317-.307s1.843-3.072 3.995-2.768c.616-1.534 1.694-1.688 3.231-1.842 3.85 3.38-3.692 10.6 3.7 12.292.616.923 0 1.85 0 2.768-3.084 3.538-8.62 2.461-10.781 7.07 1.047.915 2.306.502 3.516.172.216-.062 3.837-1.63 5.373-2.03 1.351-.352 2.667-.844 3.749-1.828.154-.15.889-.47 1.118-.483 2.443-.12 5.8-.686 7.49 1.56.612.456.462 1.538.154 2.148-1.699 2.154-4.62 1.385-6.773 2.465-3.388 1.227-7.08 1.693-9.083 5.221.771 2.308 5.075 3.846 3.851 6.917-4.312 2.922-8.312 4.61-12.929 7.225 0 8.3-.77 18.29.304 25.98-.77.773-1.844 1.995-2.772.927-1.382-.778-1.079-1.696-1.844-2.769-.691-6.213-.388-13.038-.995-19.155l-.141-1.292c-.031-.255-.444-1.336-1.012-1.48-1.998-1.056-4.215.702-6.293 1.313-1.021.242-2.345 1.05-3.01 1.08-1.421.062-2.926 0-2.71-1.99-.819-2.742 1.338-3.871 2.935-5.308.81-.725 1.65-1.292 1.989-1.609 1.078-1.076 2.464-2 2.926-3.691-.77-.602-2.002-.918-2.926-.457-5.848 3.384-13.087 5.225-19.244 8.3-1.84.309-4.92 3.996-5.998 0-.312-.614 0-1.383-.158-1.99 6.469-4.002 13.549-7.387 20.013-11.842-.461-3.23 2.306-5.076 2.923-7.998-1.848-2.461-6.003 2.773-6.161-2.145-2.614-6.003 6.623-6.003 6.006-10.92-.765-2-1.535-4.302-1.535-6.46-3.08-3.072-5.699-7.062-4.005-11.369 4.929-4.306 8.775-8.15 15.085-8.3.304.918 1.078 1.691 1.848 2.46 1.541.308 2.764-1.692 3.847-.461.158 1.38-1.382 1.072-1.998 2.149-3.547 5.075-9.391 9.531-12.933 13.992.924 2.456 2.31-.462 3.696-.308 6.464-4.922 11.543-11.531 15.389-17.832 1.848-3.538 4.929-.923 7.389-3.226 1.544-.158 2.468 1.23 3.234 2.303m-24.164 28.898c-.77 1.384-2.156 3.071-1.078 4.46 3.076 1.072 4.313-1.542 4.92-3.692-.15-1.999-2.768-1.072-3.842-.768m7.08 5.686c.613 1.692 2.615 1.389 4.006 1.692 2.301-1.543.307-4.918 1.685-6.763-3.076-.461-4.766 2.614-5.69 5.071zm-6.314 7.225h1.699c.77 0 1.078-1.077.919-1.693-1.386-.149-3.075.313-2.618 1.693m1.078 2.153c-.616 1.076-2.922 1.384-2.002 2.773 1.386.15 2.468 0 3.392-1.082-.153-.615 0-1.691-1.39-1.691m11.089 7.224c-.928.457-2.468 1.538-1.847 2.769l1.997.15c.924-.304 1.228-1.231 1.386-2.146 0-.922-.928-.773-1.536-.773m-53.214-41.708h5.242v-3.849h-2.975q-.435 1.42-.981 2.801-.742-.317-1.516-.544c.859-1.898 1.537-4.042 2.032-6.44l1.494.312a61 61 0 0 1-.604 2.406h2.55V20.76h1.533v3.871h4.891v1.465h-4.891v3.849h5.594v1.464h-4.942c1.407 2.868 3.392 5.174 5.959 6.901a10 10 0 0 0-1.39 1.315c-2.246-1.977-3.983-4.393-5.221-7.233v8.803h-1.533v-8.69c-1.351 2.859-3.309 5.319-5.885 7.374a9 9 0 0 0-1.246-1.275c2.744-1.907 4.89-4.305 6.449-7.195h-4.56zm-7.484 6.984c.969-.311 1.916-.618 2.845-.93v-5.66h-2.428v-1.464h2.428V24.4h-2.714v-1.464h6.814V24.4h-2.614v4.476h2.362v1.464h-2.362v5.139q1.333-.476 2.658-.978c.026.632.056 1.175.099 1.636a175 175 0 0 0-6.528 2.424zm10.981 17.518.942-.953a66 66 0 0 1 2.63 2.154l-1.065 1.104a40 40 0 0 0-2.507-2.305m-.272 5.411.96-.948q1.352 1.035 2.617 2.176l-1.087 1.1a82 82 0 0 0-2.49-2.328m6.483-6.616h-8.285l-.508 3.847h8.701q.046-1.801.092-3.847m-.136 5.327h-8.845l-.513 3.891h9.213c.053-1.157.101-2.45.145-3.89zm-12.409-1.48h2.139l.745-5.288h11.27c-.044 1.964-.083 3.723-.127 5.288h2.196v1.48h-2.249q-.058 2.28-.122 3.891h1.705v1.436h-1.802q-.176 1.556-.833 2.327c-.504.576-1.394.868-2.678.868q-1.085 0-2.801-.088a52 52 0 0 0-.294-1.711q2.026.192 3.112.19c1.057 0 1.679-.527 1.885-1.586h-10.748v-1.564l.535-3.763h-1.933zm-.167-4.61c1.723-1.648 3.121-3.67 4.182-6.066h1.775q-.484 1.067-1.056 2.091h11.051v1.48h-11.927a22.5 22.5 0 0 1-2.959 3.745 15 15 0 0 0-1.066-1.25m-3.682-4.609 1.065-1.117c.833.643 1.999 1.627 3.494 2.939q-.631.607-1.232 1.246-2.262-2.183-3.327-3.068m-.166 18.84q1.228-3.701 2.13-8.102.833.37 1.696.66a416 416 0 0 0-1.985 8.014zm-.632-13.216 1.048-1.205a58 58 0 0 1 3.577 2.73 48 48 0 0 1-1.214 1.352 54 54 0 0 0-3.411-2.877M420.355 32.66c6.943 3.704 8.708 5.907.486 9.224-4.95 1.992-10.667 7.93-14.191 12.026 8.496-1.967 18.884-7.984 27.782-6.202 5.125 1.025 6.629 4.834 2.139 8.137-3.189 2.345-10.313-1.135-14.297-.541 3.256 1.082 3.128 34.837 1.483 39.676-3.163 9.338-16.582-12.823-17.738-11.674 2.096-2.085 9.802 3.79 10.816-3.761 0-5.27.04-10.553-.207-15.822-.142-3.013-3.621-10.768-6.59-4.495-.993 2.107-5.717 4.473-8.139 4.165q-2.363-.62-2.973-2.982c-2.899-7.148 1.134-3.58 4.265-4.619 3.737-1.856 7.045-6.457 9.78-9.505 5.977-6.655-2.395-1.518-3.123-3.717.132.343.34.448.618.33-1.394-1.381-9.661 7.315-10.777 8.327 5.532-3.95 11.399-20.841 20.666-18.567 3.199 1.707-.855-.211 0 0m-26.586-1.918c3.123 1.566 3.071 5.53 4.315 8.375-.107-.242-19.842 15.233-.212 10.42-4.023.986-8.24 18.818-8.792 18.809 1.809.026 2.819-.814 3.163-.814a10.6 10.6 0 0 1-.794 2.406c.693-2.652 7.261-18.711 8.24-18.711-3.696 0-4.451 38.584-11.283 40.625-.468.141-6.155-7.983-4.632-10.121 4.301-6.017 1.583-7.232 1.583-12.154-.591 4.808-7.106 7.566-11.464 7.566-1.108-1.082.988-8.929 2.558-8.929.353.47.459 1.007.318 1.592 4.508 0 11.208-16.27 8.633-19.873-2.184.546-4.134 4.324-7.319 5.111-3.987.986-1.619-7.503-.326-9.62 1.42-2.33 14.287-15.918 13.097-17.272a6.94 6.94 0 0 0 2.915 2.59c3.405 1.707-1.923-.417 0 0m-42.91 34.15c4.017-2.925-2.183 1.593 0 0l1.539-1.117q-.769.56-1.539 1.117a35.5 35.5 0 0 1 5.135-4.174c-7.765 2.683-12.281-1.614-11.356 9.66 1.666-2.156 4.038-3.893 6.221-5.486m1.25 8.419c-.846 0-.837.84 0 0-.456 0 3.196-6.562 2.14-6.712-2.798 0-9.585 2.815-9.436 6.422 1.618.132 5.959 1.632 7.296.29m-4.994 7.52c1.877-1.182-.982.749 0 0 1.526-.958 3.863-4.125-2.293-5.673-.026.682-.759 6.88-1.009 6.88q1.651-.6 3.302-1.206m-1.868-28.518c-.425 2.125 3.745-.937 0 0-.442 2.221 1.618-.404 0 0 1.118 11.291 8.445 1.97 10.172-3.826-3.429 2.296-6.305 2.858-10.172 3.826m25.281 32.126c.211.638-2.758-6.457 0 0-.197-.603-.508-1.21-.771-1.795 3.183 6.945-13.351-2.19-15.736-3.409-4.139-2.115-6.91 8.37-9.282 11.797-8.857 12.834-5.735-16.749-5.428-20.567.447-5.564-4.556-28.756 4.766-28.488-.18.018-.592 8.392-.264 9.224-1.446-3.7 9.217-8.27 10.26-2.692-2.486-13.292-6.357-2.151-14.903-10.469 1.188-4.833 17.293-7.938 21.015-5.634 1.298.805-.82 26.777-4.139 28.29 2.363-.928 9.664-2.304 8.204 3.145-1.066 3.967-8.612 5.08-8.795 8.898-.145 3.035 6.94 4.135 8.628 4.653 3.858 1.188 4.911 3.445 6.445 7.047m-48.23-28.384c3.224-3.369-1.355 1.196 0 0 2.651-2.771-.107-.07-.453.327 1.634-1.885 5.392-.34 6.546-2.225-.053.078-3.802-10.294-4.339-10.923-3.06 5.512-7.097 10.578-8.683 16.783.635-2.479 5.29-2.513 6.929-3.962m-2.043 17.463c.142-.07-4.544 4.464 0 0 .963-.471 1.861 2.693.541-2.836-3.268 1.924-5.085 7.3-.541 2.836" fill="#705f57"/></svg>