<svg width="527" height="128" fill="none" xmlns="http://www.w3.org/2000/svg"><path d="M25.328 29.052c0-7.616 6.53-14.661 13.606-14.661 6.25 0 10.489 1.373 14.128 6.805-7.931 3.807-21.465 8.85-23.548 17.804-3.688-.986-4.186-6.807-4.186-9.948m47.656-7.763C74.704 18.04 79.596 14 84.442 14c8.775 0 16.667 5.587 16.667 15.104 0 3.986-1.584 9.068-4.688 9.896-2.075-8.9-15.576-13.936-23.437-17.71M33.14 60.353c0-8.387 8.273-18.228 16.325-18.228 6.377 0 7.894 4.618 7.894 9.894 0 8.453-10.197 15.106-17.898 15.106-3.25 0-6.32-3.663-6.32-6.772m43.442-18.162c4.128-.632 8.577 3.468 11.172 6.11 2.838 2.89 5.152 6.18 5.152 10.56 0 7.803-7.437 10.663-13.78 7.207-4.986-2.717-10.46-9.758-10.439-14.495v-1.04c0-5.88 2.793-7.698 7.895-8.342m2.545 53.633c10.74-9.619 23.628-17.644 23.628-33.97 0-7.195-2.071-12.492-3.677-19.338 8.514 5.673 11.824 16.267 13.027 26.58 1.832 15.762-3.658 42.048-23.003 44.501-12.592 2.509-17.158-7.092-9.976-17.773m-65.12-25.497c0-11.187 6.74-19.246 12.84-27.812-1.201 6.213-3.446 8.59-3.446 17.383 0 16.274 12.746 34.416 30.272 34.416 3.347 0 6.44-1.583 7.828-3.648v-2.61c-1.353.717-2.43.941-3.648 1.011-1.75.103-3.398.135-4.898-.924-1.91-1.349-2.416-3.12-2.416-5.302 0-6.799 5.704-9.386 12.526-9.386 4.358 0 8.411 4.313 9.841 7.377 4.015 8.586 1.498 15.835-2.535 23.39-3.248 4.851-9.652 9.387-17.744 9.387h-5.215c-24.69 0-33.694-23.005-33.405-43.282m122.9-24.774c1.6 1.357 2.871 2.734 3.551 3.224s1.563 2.059 4.282-.855c2.718-2.913 9.999-7.152 10.45-6.539s-3.215 2.864-6.092 5.418c-2.877 2.553-2.877 4.433-2.631 5.533.247 1.1 2.503 2.982 2.981 4.375.478 1.394-.478 4.436-3.501 4.436-3.024 0-5.948-4.534-6.652-7.289-.703-2.753-3.035-6.234-3.61-7.583s-.378-2.076 1.222-.72m20.997-1.161c0-1.366.66-1.223 1.335-.365s1.347 1.858 1.347 2.457c0 .6 1.611-.753 3.134-2.457 1.524-1.705 4.154-3.492 5.78-2.82 1.625.672 3.11 2.792 1.892 6.572-1.217 3.778-2.452 3.225-2.9 3.998-.448.772 1.172.492 1.649.822s.619 1.38.405 1.675c-.215.295 2.33-1.07 5.337-4.43s7.693-7.49 9.195-9.142 4.244-4.416 3.479-5.479-4.991-1.997-9.783-.998c-4.793.998-11.623 3.871-12.626 3.871s-1.077-1.365.634-2.017 7.876-3.176 11.563-3.636 10.817 0 12.368 0 2.798 1.648 3.804 2.78c1.006 1.133 0 2.874-2.517 4.93-2.516 2.057-12.171 12.676-15.459 15.964-3.287 3.289-4.968 7.854-7.041 8.171s-3.94.366-4.228-1.828c-.289-2.196.115-3.45-.719-3.45-.833 0-1.799 1.982-2.994 1.982s-1.88-4.412-1.538-5.165c.343-.754-1.054.29-2.117.29s-2.489-1.862-1.536-4.067c.955-2.206 1.536-6.292 1.536-7.658m4.042 4.543c0 1.58-1.132 4.125.907 3.719s4.252-4.31 4.876-6.365c.624-2.054-.624-2.576-1.627-2.324s-4.156 3.39-4.156 4.97m56.926-5.702c-.837 1.57-1.039 2.253-.576 2.77s-1.066.948-1.066 1.71c0 .764.444 10.795-2.878 11.646s-7.878-2.505-7.878-6.223 2.592-3.486 2.923-6.196c.332-2.71.623-4.847-.479-6.055-1.102-1.209-1.201-2.663.798-1.755s4.324 1.333 4.636 4.103.284 3.667.955 3.218c.706-1.99 1.876-2.896 3.565-3.218m20.664-15.124c0 1.858-2.095 5.056-2.934 6.82s-1.562 2.875-1.562 4.052-.175 2.818-1.167 4.055-.631 2.37-.316 3.735c.316 1.365 1.83 4.995 0 6.135-1.829 1.14-3.822 1.007-5.011 0s-2.669-1.598-3.037-3.121c-.368-1.524-1.36-2.111-1.36-3.31 0-1.2 1.36-2.378 1.36-3.779s-.336-2.376-1.36-3.045c-1.024-.67.556-1.492 2.936-1.231s3.271.966 3.935 1.937c.664.97 1.543.706 1.543 0s6.062-9.365 6.973-12.248m5.517-3.2c-.974-2.046-.257-4.233 1.974-4.233s3.535 1.438 5.163 3.185 1.886 3.911.496 6.136-2.64 4.388-2.64 5.953-.608 4.904-1.205 9.318-1.08 9.586-.839 13.61.447 5.841.839 8.55 3.003 5.153 1.696 7.05c-1.305 1.898-1.115 3.184-3.001 3.184s-5.973-4.61-5.479-6.457.756-5.38.756-9.576c0-4.195.89-18.745 1.863-24.073.974-5.329 1.35-10.6.377-12.647m50.553 12.095c-.723-1.316-.269-2.245 1.144-.892s1.301 2.743 2.972 2.743c1.669 0 2.697.087 4.628 1.454 1.931 1.368 1.18 3.842-2.959 5.634-4.138 1.792-6.944 4.074-6.365 4.707.58.632 6.696 6.337 9.324 8.637s4.356 2.816 8.239 4.718 10.429 5.268 10.429 6.745-12.573 4.993-15.62 3.025c-3.048-1.968-4.936-6.146-6.306-9.122s-6.251-10.484-7.822-11.231c-1.57-.748-.624 1.305-.624 2.05 0 .746-.341 5.988-2.14 8.163s-2.224 4.177-6.22 5.646c-3.997 1.469-9.067 2.203-12.524 3.35-3.459 1.144-7.682.844-6.352 0 1.331-.846 2.972 0 6.942-3.35s7.542-6.114 8.852-9 2.622-4.986 1.311-5.377-.9 1.132-3.102 1.132-5.581-3.683-4.91-6.322 2.769-1.273 4.478-1.956c1.709-.682 3.695.04 5.305-1.425s2.46-5.626 2.46-7.478-.209-2.93-.788-3.71 1.051-1.355 1.051-1.915-.703-1.294-1.713-2.008-1.379-1.903 1.19-3.393 3.607-1.628 5.196-2.138 3.101-1.546 4.194-2.321c1.094-.776 3.512.663 4.513 2.321 1.002 1.66 1.434 4.262 0 4.778-1.433.517-2.784-.159-4.281.485-1.497.643-2.756 2.694-3.723 2.694s-.364.984.261 1.724c.624.74-.609 2.53-.609 4.937s.48 3.43 1.734 2.918c1.255-.511 4.254-2.64 3.296-3.947-.959-1.306-.738-.96-1.461-2.276m38.369 38.616c-.505-.45 3.108-3.291 4.679-5.394 1.571-2.102 4.032-5.683 4.032-9.366s-1.211-13.71-.605-18.565c.605-4.854 2.221-11.708 3.701-11.708s2.821 2.419 1.815 3.53c-1.007 1.112-1.368 3.124-1.815 9.52-.446 6.394.222 8.828.642 11.957.419 3.13.949 5.686 1.629 7.418.681 1.732 1.366 7.995-1.629 9.729s-6.401 2.162-8.517 3.476-4.226 1.722-4.85 1.265c-.623-.456 1.348-1.53 1.538-1.862s-.114.45-.619 0zm29.877-55.369c.698.981 1.229 1.005 2.121 3.287s-1.17 5.668-1.724 6.412c-.555.744-1.394 2.23-.397 2.465s3.269-1.862 4.647.405c1.378 2.266-1.378 5.548-2.797 7.425-1.419 1.875-.899 2.48-2.847 4.93s-4.71 3.57-4.121 4.797.327 5.718 1.177 5.472 7.391-7.171 10.342-9.13c2.949-1.961 3.696-3.002 3.787-4.761s-.091-5.86-1.097-7.128c-1.006-1.27 1.598-1.975 3.171-2.244 1.574-.27 3.553 1.826 2.629 3.1-.925 1.273-.252 3.674.369 4.066.62.391 1.569-.392 2.495 0 .925.391 1.94 1.796 1.718 2.96-.223 1.166-1.178 2.385-2.014 2.867-.835.484-1.947.349-2.199 1.14-.253.789-.621 7.773-.621 10.81 0 3.035.226 6.698.621 9.746.394 3.049.394 3.923.394 5.546s-2.415 2.769-3.392 2.769-2.345-.907-3.171-2.747c-.827-1.84-1.264-2.586-3.332-4.904s-5.088-7.164-4.808-7.31c.278-.143 2.462 2.892 3.037 3.18s-.124-.926.659-.926 3.388 2.523 4.444 3.258.449-2.064.449-3.259-1.246-1.373-3.14-1.373c-1.892 0-3.34-1.782-4.279-3.126s-.178-3.266-.892-3.266c-.713 0-1.937 1.484-3.189 3.266-1.252 1.781-2.832 4.566-2.832 6.458s-2.863 3.506-4.051 2.434c-1.189-1.07-.519-4.909 0-5.766s.642-4.907 0-4.907c-.643 0-1.22 1.558-2.229 2.184s-3.633.513-3.281-1.658c.354-2.17 5.493-8.529 7.674-10.41s2.308-4 3.598-5.196c1.288-1.196-.157-1.554-.86-.873-.704.681-1.44.873-3.714.873-2.272 0-1.142-4.337 0-7.11 1.144-2.773 4.886-8.255 5.361-9.687s0-2.085 0-3.064 1.596-1.986 2.294-1.005m7.821 28.496c-1.508.249-5.911 4.875-5.262 4.875.65 0 2.834 1.413 4.589 2.438 1.755 1.023.21 2.174 1.656 3.013 1.445.84 1.241-.84.982-1.682-.259-.843 0-1.474 0-2.637v-4.387c0-1.595-.457-1.87-1.965-1.62m24.14 6.241c-.623 0 3.868-6.765 5.449-9.784s3.452-6.998 4.82-8.935c1.368-1.936 3.686-7.07 4.031-9.45.346-2.38-.076-2.83 1.108-4.121s4.312 1.04 4.312 3.247c0 2.208-2.369 5.618-3.471 6.467s-1.156 2.373 0 2.373c1.157 0 2.565-2.134 4.86-2.134s1.555 1.614 1.555 2.795-2.231 3.487-3.85 4.38c-1.618.891-3.78 5.399-2.782 4.782.999-.616 2.369-2.233 3.688-2.233 1.317 0 3.412.845 2.592 2.233s-4.162 3.717-4.532 4.967-.182 2.342.621 2.342c.804 0 1.319-.94 2.266.229s.45 3.992-.481 6.325c-.932 2.334-3.026 2.641-3.577 3.268s.223.91.223 2.243c0 1.334.533 2.194 1.569 1.62 1.036-.575 1.319-2.29 2.032-4.097.714-1.809 3.155-5.135 4.242-6.286 1.086-1.151.854-2.054.473-2.403-.38-.35-1.323-1.497-2.016-2.402-.692-.905-1.454-1.762 0-2.09 1.455-.326 2.159.562 3.717.562s1.743-2.51 1.152-4.278-.709-7.518-.709-8.339c0-.82-1.958-1.971.26-2.247s5.762 4.911 6.165 7.006c.402 2.096-.403 5.384-1.008 6.964s-.067 2.148.604 3.327c.672 1.179 1.879 1.566 2.754 2.343.874.778 3.039 1.557 3.852 1.557.814 0 1.728-3.026 2.761-4.243s1.402-2.658 2.058-2.984c.657-.326 3.221.758 2.823 2.422q-.399 1.664-5.334 5.476.66.825 2.511 2.055c1.851 1.23 6.818 2.595 9.834 4.1 3.016 1.503 5.707.764 5.707 1.937s-4.492 1.06-8.031 1.62-5.267.833-7.51.833-4.522-2.873-5.632-3.422-2.067 4.063-2.685 5.727-3.277 4.186-4.353 6.24-3.889.685-5.845-1.053c-1.957-1.739-1.051-4.262 0-6.25 1.05-1.99 1.329-9.316 1.329-10.465 0-1.15-.33-3.059-.703-3.059-.374 0-.626.835-.626 1.737 0 .9-1.058 2.116-1.981 5.222s-3.013 6.53-4.522 8.47-2.579 5.385-3.913 6.084-7.254-4.88-5.538-6.084 1.458-4.134 1.458-5.232c0-1.099-.383-1.336-1.458-1.336s-1.095-3.713 0-4.543 2.318-4.042 3.088-4.809c.769-.765.471-2.343-.77-1.984s-2.075 1.984-2.94 1.984c-.863 0-1.769-2.442 0-4.087.8-.743 2.423-1.894 3.71-3.674 1.563-2.166 2.773-4.98 3.252-5.544.873-1.027.496-2.16-.36-1.424-.855.735-2.643.919-4.122 1.424-1.477.505-4.685 8.199-6.315 10.962s-5.189 3.67-5.812 3.67m31.323 2.332c-.689 0-.251 2.292 0 4.588.25 2.292.311 4.587 1.187 4.587 1.753 0 .554-1.025 2.343-2.997 1.787-1.971 1.437-2.083 1.368-2.636-.07-.553-3.521-3.542-4.899-3.542zm12.229-3.622c.262-.81-.071-1.202-1.104.188s-1.605 2.98-.7 2.034c.904-.946 1.543-1.413 1.804-2.223zm-7.02-24.056c-1.441 0-.398-2.738 2.627-4.294s4.793-1.704 6.596-.852c1.804.852 1.508 2.843.455 3.834-1.053.99-2.488 1.653-2.488 5.099s-.151 4.38-.726 5.801c-.576 1.42-.665 3.339-.333 4.763.333 1.423 2.298 4.03 0 4.03s-3.526-.877-4.828-.438-1.424 1.753-2.747.877c-1.324-.877-2.026-2.447-1.013-4.47s2.054-3.214 2.054-3.988-1.293-.658-2.054-1.205-1.255-2.131-1.008-2.71c.247-.576 3.945-.513 4.768-1.88s1.825-2.531 1.324-3.766-1.186-.801-2.626-.801zm1.109 11.225c-.808-1.077-.683.588-.683 1.13 0 .54-1.243 2.195.341 2.195 1.583 0 1.149-2.248.341-3.325zm45.284-16.742c1.102-1.736 1.252-2.732 1.176-3.634-.074-.902 1.276-1.275 3.768 1.817s1.01 4.6-.445 4.896-3.768 1.252-6.477 4.102-5.658 5.858-4.602 5.858 3.692-3.206 5.439-3.206c1.748 0 5.294.492 4.983 1.85-.311 1.356-8.566 10.218-8.566 11.123 0 .906.906.212 1.623.559.716.346 1.974.492 1.548 2.35-.425 1.857-.425 8.333-.425 9.838s-.179 3.944-2.391 3.944c-2.211 0-2.898-3.093-2.211-5.834.687-2.742.53-5.705.53-6.54 0-.836-.497-.979-1.381 1.022s-3.214 5.712-5.337 4.885c-2.123-.826-2.776-2.581-1.388-3.733s4.018-5.268 6.725-8.477 5.078-6.687 5.078-7.234-1.95-.003-4.227 1.731-3.984 3.79-4.776 5.919c-.79 2.129-4.326 1.818-4.966.924-.64-.893-1.311-3.032 1.828-5.514 3.138-2.483 7.751-8.163 9.77-10.865s3.622-4.045 4.724-5.781m8.53 7.04c-.45-1.621 1.292-.8 3.271-.8s3.167-.733 5.64-1.764c2.474-1.031 6.47-2.36 8.043 0 1.573 2.361-1.573 4.323-4.524 5.502s-6.519 3.968-8.029 5.506-5.333 3.714-4.401 4.19 16.951-5.809 20.171-6.884 4.356.132 5.35 2.168c.995 2.035-.42 4.24-1.736 4.24s-3.047-.892-5.013 0c-1.967.893-7.145 1.596-7.777 3.08s0 6.93 0 10.28-.567 11.6.632 14.668.118 4.655-2.22 5.38-4.567-2.443-6.137-4.442c-1.568-2-5.442-3.922-7.753-5.7-2.311-1.776-1.663-2.608.765-1.763s8.119 4.196 9.629 4.196.527-2.806.527-5.976v-9.098c0-3.973 0-7.679-1.119-6.935-1.119.743-7.491 1.45-9.802 2.704-2.311 1.253-3.939-.026-3.468-2.704.47-2.678 12.692-12.167 14.389-12.91s-.171-1.317-2.037-.679c-1.867.637-3.951-.637-4.401-2.258M146.346 90.163c4.872.097 5.953.999 6.116 2.415q-.123 1.74-2.079 1.836c-.327 0-.667-.193-1.482-.386-.979-.258-1.047-.355-2.677-.29q-2.447.097-2.57 1.545c-.081.966 1.068 1.933 4.654 2.126 3.587.193 5.867 2.222 5.867 5.216s-3.018 5.314-8.074 5.507q-7.462-.096-7.584-2.608.122-1.643 2.08-1.739.61 0 2.201.386 1.958.58 3.058.58c2.039-.065 3.115-.463 3.196-1.816 0-.773-.26-2.177-3.929-2.435-3.67-.257-6.484-1.835-6.484-4.734 0-2.897 2.835-5.699 7.707-5.603m12.633 16.134V92.191q.122-1.835 2.324-1.932 2.202.097 2.324 1.932v14.104q-.122 1.74-2.324 1.74-2.202-.001-2.324-1.739m9.33-7.053q.735-8.5 10.764-9.08 6.485.289 6.729 2.705-.123 1.545-1.835 1.642-.612 0-1.59-.29-1.713-.483-3.303-.483-5.505.29-5.872 5.603.367 5.12 5.872 5.41 1.59 0 3.425-.676l.195-.067q.951-.32 1.395-.32 1.835.097 2.08 1.739-.123 2.609-7.095 2.705-10.03-.483-10.765-8.887m22.908 7.053V92.191q.123-1.835 2.325-1.932 2.202.097 2.324 1.932v5.217h9.786V92.19q.123-1.835 2.447-1.932 2.201.097 2.324 1.932v14.104q-.123 1.74-2.324 1.74-2.325-.001-2.447-1.739v-5.411h-9.786v5.41q-.122 1.739-2.324 1.739t-2.325-1.739zm24.622-5.217v-8.888q.122-1.835 2.324-1.932 2.202.097 2.324 1.932v8.695q.368 3.864 4.893 4.057 4.404-.29 4.771-4.057v-8.695q.122-1.835 2.324-1.932 2.202.097 2.324 1.932v8.888q-.734 6.57-9.419 7.052-8.807-.482-9.541-7.052m23.275 4.54 6.361-13.428q.978-1.932 3.303-2.029 2.324 0 3.425 2.03l6.116 13.427q.245.58.245.966-.122 1.45-2.202 1.45-1.712 0-2.324-1.16l-.856-2.318h-8.685l-.979 2.318q-.611 1.16-2.324 1.16-2.08 0-2.202-1.546 0-.29.122-.676zm9.664-11.593-2.936 7.149h5.871zm13.855 12.27V92.192q.123-1.836 2.324-1.932 1.224.096 1.958.869l9.908 10.433h.122v-9.37q.123-1.836 2.325-1.932 2.2.096 2.324 1.932v14.104q-.123 1.739-2.324 1.739-1.223 0-1.958-.676l-9.908-10.337h-.122v9.274q-.123 1.739-2.325 1.739-2.2 0-2.324-1.739m39.334 0V93.834h-3.425q-1.713 0-1.835-1.739.122-1.545 1.835-1.643h11.621q1.957.098 2.079 1.643-.122 1.642-2.079 1.739h-3.426v12.462q-.122 1.739-2.446 1.739-2.202 0-2.324-1.739m14.101 0V92.192q.122-1.836 2.324-1.932 2.202.096 2.324 1.932v14.104q-.122 1.739-2.324 1.739t-2.324-1.739m9.085-.482 6.361-13.622q.98-1.932 3.303-2.03 2.325 0 3.425 2.03l6.117 13.428q.244.579.244.966-.122 1.449-2.201 1.449-1.713 0-2.325-1.159l-.856-2.319h-8.685l-.979 2.319q-.61 1.16-2.324 1.159-2.08 0-2.202-1.545 0-.291.122-.677zm9.664-11.787-2.935 7.149h5.871zm13.857 12.269V92.192q.122-1.836 2.324-1.932 1.222.096 1.957.869l9.908 10.433h.123v-9.37q.122-1.836 2.324-1.932 2.202.096 2.324 1.932v14.104q-.122 1.739-2.324 1.739-1.224 0-1.957-.676l-9.909-10.337h-.122v9.274q-.122 1.739-2.324 1.739t-2.324-1.739m24.498 0V92.385q.123-1.836 2.324-1.932h8.074q1.957.096 2.08 1.642-.123 1.642-2.08 1.739h-5.749v3.574h4.893q2.079.097 2.202 1.74-.123 1.642-2.202 1.738h-4.893v5.41q-.123 1.739-2.325 1.739-2.2 0-2.324-1.739m16.425-5.216v-8.888q.123-1.836 2.325-1.932 2.2.096 2.324 1.932v8.694q.367 3.864 4.893 4.058 4.404-.29 4.771-4.058v-8.694q.122-1.836 2.324-1.932 2.202.096 2.324 1.932v8.887q-.734 6.57-9.419 7.053-8.808-.483-9.542-7.053zm35.664 5.12V92.288q.123-1.738 2.447-1.835h5.994q5.504.29 5.871 4.347 0 2.608-2.935 3.575v.096q4.403.773 4.77 4.154-.245 5.217-7.217 5.41h-6.484q-2.323-.096-2.446-1.835m4.648-12.463v3.671h2.447q2.447-.096 2.57-1.932-.123-1.642-2.57-1.739zm0 6.956v4.057h3.67q2.814-.096 2.936-2.125-.122-1.932-3.303-1.932zm14.836 4.927 6.361-13.428q.978-1.932 3.303-2.03 2.324 0 3.424 2.03l6.117 13.428q.245.579.245.966-.123 1.449-2.203 1.449-1.712 0-2.324-1.159l-.856-2.319h-8.685l-.978 2.319q-.612 1.16-2.324 1.159-2.08 0-2.202-1.545 0-.291.122-.677zm9.664-11.593-2.937 7.149h5.872zm13.856 12.269V92.192q.122-1.836 2.324-1.932 1.223.096 1.957.869l9.908 10.433h.123v-9.37q.122-1.836 2.324-1.932 2.202.096 2.324 1.932v14.104q-.122 1.739-2.324 1.739-1.223 0-1.957-.676l-9.908-10.337h-.123v9.274q-.123 1.739-2.324 1.739-2.202 0-2.324-1.739m24.498.097V92.095q.123-1.738 2.324-1.835 2.202.096 2.325 1.835v5.313l7.707-6.472q.856-.676 1.834-.676 2.08.192 2.325 1.835 0 .773-1.591 1.932l-5.871 4.637 7.217 5.893.245.193q1.141.901 1.111 1.635l-.011.104q-.122 1.546-2.446 1.546-1.101.096-2.447-.966l-8.073-6.956v6.28q-.123 1.642-2.325 1.642-2.2 0-2.324-1.642" fill="#000"/></svg>