<svg width="469" height="128" fill="none" xmlns="http://www.w3.org/2000/svg"><path d="M46.143 66.976v12.537a2.34 2.34 0 0 0 2.344 2.344h13.132V114H22.594A8.594 8.594 0 0 1 14 105.406v-38.43zm67.857 0v38.43a8.594 8.594 0 0 1-8.594 8.594H66.381V81.857h13.132a2.344 2.344 0 0 0 2.342-2.25l.002-.094V66.976zM61.619 14v32.143H48.487a2.344 2.344 0 0 0-2.342 2.25l-.002.094v13.727H14v-39.62A8.594 8.594 0 0 1 22.594 14zm43.787 0A8.594 8.594 0 0 1 114 22.594v39.62H81.857V48.487a2.344 2.344 0 0 0-2.25-2.342l-.094-.002H66.381V14z" fill="#e60019"/><path d="M148.506 112.807c6.019 0 9.575-2.407 9.575-5.234 0-2.414-1.936-3.738-4.922-4.605l-3.738-1.049-.847-.224c-1.826-.49-3.237-.966-3.237-2.043 0-1.144 1.479-1.822 3.767-1.822 2.147 0 3.872.514 5.527 1.425l2.64-2.173c-2.112-1.425-5.14-2.22-8.167-2.22-5.28 0-9.012 2.174-9.012 5 0 2.437 2.461 3.828 5.007 4.573l4.899 1.383c1.686.495 2.767.95 2.767 2.012 0 1.215-1.443 1.986-4.154 1.986-2.288 0-4.752-.771-6.618-1.916L139 110.283c2.535 1.613 6.021 2.524 9.506 2.524m14.345 0h4.604v-7.76h8.711v7.76h4.573v-16.55h-4.573v5.662h-8.711v-5.661h-4.604zm26.235 0h16.695V110H194.4v-4.481h9.335v-2.806H194.4v-3.87h10.986v-2.784h-16.3zm21.465 0h4.72v-6.722c0-1.924-.371-4.029-.607-5.839h.168l2.529 3.599 7.214 8.962h5.056V96.059h-4.719v6.677c0 1.901.371 4.119.641 5.861h-.169l-2.494-3.621-7.249-8.917h-5.09zm38.331.391c3.51 0 6.474-.935 8.177-2.08v-7.804h-8.96v2.827h4.463v3.411c-.716.421-1.942.655-3.169.655-4.94 0-7.461-2.267-7.461-6.028 0-3.715 2.93-5.959 7.121-5.959 2.282 0 3.713.631 4.94 1.45l2.692-2.197c-1.636-1.145-4.157-2.22-7.803-2.22-6.712 0-12.095 3.341-12.095 9.042 0 5.772 5.213 8.903 12.095 8.903m18.926-.236c4.957 0 6.1-2.236 6.1-5.571V95.038l-4.613-.02v10.975c0 2.448-.022 3.141-2.049 3.141h-4.35v3.828zm14.294-.546h4.77V95.668h-4.77zm13.118.391h4.719v-6.722c0-1.924-.37-4.029-.606-5.839h.168l2.528 3.599 7.214 8.962h5.057V96.059h-4.72v6.677c0 1.901.371 4.119.641 5.861h-.169l-2.495-3.621-7.247-8.917h-5.091v16.748zm37.619 0c3.303 0 6.093-.935 7.696-2.08v-7.804h-8.434v2.828h4.201v3.411c-.673.421-1.828.654-2.982.654-4.65 0-7.023-2.266-7.023-6.028 0-3.715 2.758-5.958 6.702-5.958 2.149 0 3.496.63 4.65 1.448l2.534-2.196c-1.54-1.145-3.913-2.22-7.344-2.22-6.317 0-11.384 3.342-11.384 9.043 0 5.771 4.906 8.902 11.384 8.902m26.776.415h8c4.938 0 8.696-1.673 8.696-5.286 0-2.425-1.788-3.783-4.212-4.244v-.121c1.909-.534 3.061-2.231 3.061-3.88 0-3.27-3.358-4.364-7.809-4.412l-7.736-.001zm4.771-10.767V97.67h2.374c2.401 0 3.588.662 3.588 2.317 0 1.501-1.106 2.468-3.642 2.468zm0 7.178v-4.785h3.319c3.288 0 5.028.668 5.028 2.27 0 1.714-1.773 2.515-5.028 2.515zm24.652-4.004q1.621-4.028 2.265-6.127h1.44c.745 2.073.732 2.031 1.512 4.027l.745 2.1zm8.382 7.593h5.126l-7.872-17.944h-5.755l-7.838 17.944h4.961l1.72-4.607h7.938zm12.281 0h4.425v-7.202c0-2.061-.348-4.316-.569-6.257h.158l2.37 3.856 6.763 9.603h4.741V95.278h-4.425v7.153c0 2.037.348 4.413.601 6.281h-.158l-2.339-3.88-6.795-9.554h-4.772zm26.235 0V95.278h4.715v7.784h.095l7.804-7.784h5.193l-7.2 7.056 8.474 10.888h-5.193l-6.083-8.051-3.09 3.007v5.044z" fill="#000"/><path d="M177.098 16.343c.999 0 2.498.498 3.497.996 0 0 0 .498.5.498-.5.996-1 1.992-1 2.988-.499.995-.499 1.991-.499 2.987s.499 2.49.499 3.485l.006.206c.059.987.494 2.35.494 3.28l5.995-1.494c.999.996.999 1.494 1.499 2.49.499.995.499 1.493.499 2.489v1.494c-.457.456-.496.913-.499.986v.01l-5.995-.996c0 .996-.5 1.494-.5 2.49v2.72c.002 1.513.05 3.902.999 6.74.5 1.991 1 3.485 1 3.983.999-.498 1.998-1.992 3.497-3.983.999-1.494 1.498-2.49 1.998-2.988.5-1.493.999-1.991 1.998-1.991h1c.499 0 1.499.498 2.498 1.494.5.995.999 1.991.999 2.987-1.499.498-2.498 1.494-3.497 2.49 0 0-.5 0-.5.497-1.998 2.49-3.497 4.482-5.495 6.97.999 2.989 1.998 5.976 3.997 8.963.499.498 1.498 1.494 1.998 2.49 0 .498.5.498.5.996.999 1.493 2.498 2.49 3.497 3.983 1.499 1.494 2.997 2.49 4.496 2.49.999 0 1.499-.498 2.498-.996 1-1.992 1.999-4.481 2.498-7.967s1-5.477 1.499-6.473c.5 1.992.999 4.482-.499 8.963.499 1.991.499 3.983.499 5.975v1.493c-.499 2.49-.999 3.984-.999 4.98-.5 1.991-.999 3.983-1.998 4.979l-6.995-3.984c-2.498-1.991-4.496-4.48-6.994-6.97l-1-.996c-1.998-2.49-3.497-4.481-4.996-6.97-.999-.997-1.499-1.993-1.998-2.988 0-.498-.5-.996-.5-1.494-.499-.498-.499-.996-.999-.996s-.5.498-.999.996c-.5.498-1.499.498-2.998.996-1.499 0-2.498.995-2.498 1.991.999 0 1.499 0 2.498.498.5.498.999.996.999 1.494 0 0 0 .498-.499.996-1 .498-3.498.996-6.995 1.991-.499 0-.999.498-1.499.498-1.499.499-2.498.499-3.997.996h-.499c-1.499.498-2.498.498-3.997.996-3.997.996-6.495 1.992-8.993 3.486-.5.498-.5.498-1 .498-.499 0-.999-.498-1.498-.997l-1.499-1.493c-.5 0-.5-.498-.5-.996s.5-.996 1.499-.996c.999-.498 1.499-.498 1.499-.498.499-.498 1.499-.498 2.498-.996 1.998-.498 2.997-1.493 2.997-1.991s0-.996-.499-1.494c0-.498 0-1.494-.5-2.987-.464-1.387-.497-2.345-.499-2.874v-.612q-2.999 2.241-7.494 2.988h-3.997c1.998-.996 3.997-2.988 5.995-4.98.999-.995 1.499-1.99 2.498-2.987 1.499-1.494 2.498-2.987 2.998-4.979.999-1.992.999-3.983.999-6.473v-7.967c.499-.498 1.498-.995 2.498-.995h1.998c.5-.498 1-.498 1.499-.498 1.999-.498 3.497-.498 4.996-.996l.225-.071c1.423-.428 2.823-.452 3.772-.925h.999c.5-.498.5-.498 1-.498.999-.498 2.498-.996 3.996-1.494 0-2.987-.499-5.477-.499-8.464v-6.97c.916-.457 1.412-.495 1.873-.498zm173.415 4.891c2.322 0 4.063 0 5.804.619 1.741.618 2.902 1.237 4.063 2.473q-5.223 7.421-5.223 16.698v3.71l-10.448 1.237h-2.401c-.553.001-1.108.028-1.662.618-.537 0-.577.53-.58 1.1v.137c0 1.237.58 1.855 2.322 3.092 1.16.618 1.741 1.237 2.321 1.237h1.741c3.483-1.855 6.385-4.329 9.867-7.42 1.161-.62 2.322-1.856 4.063-3.711 1.741.618 2.902 1.236 4.063 2.473.58 0 .58.618 1.161 1.237-3.483 1.237-7.546 3.71-11.028 6.184-1.161 1.237-2.902 2.474-4.643 3.71 2.321 2.474 8.125 6.185 16.251 10.514 4.643 2.473 8.126 4.328 10.447 6.802-1.741.619-4.643.619-6.964 1.237-2.903.618-5.225.618-6.965.618h-4.644l-1.741-4.328c0-1.237-1.16-2.474-2.321-3.71-1.741-1.238-2.903-1.856-3.483-2.475-.58 5.566-2.902 9.895-6.384 13.605-.581.619-1.161 1.855-2.321 2.474-1.742 1.237-4.063 3.092-6.965 4.948l-1.742-9.277c-.58-3.71-.58-6.802-.58-9.894s.58-6.803.58-11.132c.581-9.895 1.161-16.079 1.161-18.552V26.8l10.447-3.71zm100.493 11.772 2.864 6.02c.572.602.572 1.204 1.146 2.408v.134c-.003.555-.043 1.07-.573 1.07 0 .58-.532.602-1.082.603h-5.601c-1.589.003-3.14.044-4.202.602-1.145 0-1.718 1.204-2.291 2.408-.53 2.23-.57 4.46-.573 7.168v9.088c.528 6.658.57 11.784.573 13.96v.49c0 .602.573 1.204.573 2.408.573 1.205.573 2.409.573 3.01 0 .603-.573 1.205-.573 1.807-4.583-1.204-9.166-2.408-13.749-4.817-3.437-1.806-6.874-4.214-9.738-6.02-1.146-1.204-2.292-1.806-3.437-3.011.572-.602.572-.602 1.145-.602 0 0 1.146.602 2.864 1.204.573.603 1.146.602 1.719.602 2.696.567 5.899 1.667 8.654 2.296l.512.112h2.291c.573 0 1.146-.602 1.719-1.203.53-1.673.57-3.345.573-5.496v-.525c0-1.806-.573-4.817-.573-8.43a62 62 0 0 1-.573-8.653v-.377c0-1.147-.52-2.294-1.064-3.44l-.082-.173-1.145-1.204c-5.156.602-8.02 1.204-8.594 1.204-3.436.602-5.728 1.806-8.019 3.613-1.146-.602-1.719-1.807-2.292-3.613 0-.602-.573-1.806-.573-2.408-.548-.576-.572-1.703-.573-2.327v-.082h.573c3.872 0 7.21-.56 11.045-1.684l.413-.122 5.155-1.806q6.875-2.709 15.467-3.612c2.292-.602 4.583-.602 7.448-.602M321.692 17.533l4.866 4.416-4.866 5.677h7.028c0 .63.541 1.892.541 3.154v5.046l-7.028-3.154c-.541 0-1.081-.63-1.622-.63h-1.081c-1.081 0-2.703.63-3.784 1.892-.541.63-2.703 3.154-5.406 6.938l9.19-1.261c1.081-.631 2.162-1.261 3.243-1.261 1.002-.585 1.539-.628 2.043-.631h.261c.494.004.987.054 1.481.63.54.631.54 1.262.54 2.523-1.081.631-2.703 1.262-3.784 1.893-1.081 1.262-1.622 2.523-1.622 4.415.541.631 1.081.631 1.622.631s1.081-.63 1.622-.63c1.622-.631 2.703-.631 3.243-.631 0 1.892-.54 3.784-2.162 5.046-.54.63-1.081.63-2.162 1.261-1.622.63-2.163 1.893-2.703 3.785v2.523c.54.63 1.081 0 2.162-1.262.541-.63 1.081-1.261 1.622-1.261.541-1.262 1.622-1.892 2.703-1.892.541 0 1.081 0 1.622.63.54 0 .54 0 1.081.631.54.63.54 1.262.54 1.893 0 .63-.54 1.261-1.081 1.892-1.081.63-1.621.63-2.703.63 0 0-1.081.631-3.784 2.523-1.622.632-2.162 2.524-2.162 3.785l7.028-4.415c.5 0 .537 0 .54.5v.13c0 .632-.54.632-.54 1.893-.541.63-.541 1.262-.541 1.892-3.243 1.893-7.028 4.416-10.812 6.939-1.622.63-2.703 1.892-4.865 3.154-1.081 1.262-2.162 2.523-3.243 3.154-.541.63-.541.63-1.082.63l-2.702-7.569 9.189-3.784c.541 0 1.081-.631 1.622-1.262.501-.584.538-1.168.54-2.253v-.46c-.001-1.198-.026-2.396-.54-3.595l-6.487 7.57c-1.081-.631-2.162-1.262-2.703-3.154 0 0-.541-.631-.541-1.262.541 0 1.082-.63 2.163-1.261 2.162-1.262 3.784-2.524 3.784-2.524 1.081-.63 2.162-1.892 3.243-2.523.541-.63 1.081-1.261 1.081-1.892V55.38l-8.108 3.154-1.622-5.677 9.731-3.154v-5.176c-.003-.46-.035-.497-.43-.5h-.111s-.541.63-1.622.63c-1.081.63-1.622.63-2.162.63-.541-.63-1.081-1.26-1.622-2.522v-.631c-.54 0-1.622.63-1.622 1.262-.54.63-.54 1.892-.54 2.523v1.892l-10.271 2.523c-.541-.63-.541-.63 0-1.261 0-.631.541-1.262 1.081-1.262 3.784-4.416 7.568-8.831 11.352-13.877q4.055-4.73 8.109-11.354c1.081-1.893 2.162-3.154 3.243-5.047M262.853 43.73c1.055 0 2.111.498 2.639.498h1.055c1.055 0 1.583.497 2.111.995 1.055.996 1.584 1.494 1.584 2.49 0 .498-.529 1.494-1.584 1.991-.528.498-1.055.996-1.583 1.992 0 .498-.528.996-.528 1.992-.527 1.991-.527 2.987-1.055 3.485l-2.111 1.992c-1.055.498-1.583.498-2.639.498h-2.638c-1.055 0-1.584.498-2.111.498v10.954c-.49 3.236-.526 6.043-.528 8.421v.54c-.528.499-.528.499-1.055.499h-.528c0-.457 0-.495-.406-.498h-.122c-1.055-.498-2.111-.498-2.638-.498-2.639-.996-4.75-1.991-7.389-2.988-1.583-.995-2.11-1.991-2.638-3.485l7.916.996c1.055-.498 1.583-.996 1.583-1.992.49-.462.525-1.353.527-2.674v-4.919c0-.953-.021-1.888-.527-2.365-.528-.498-1.055-.996-1.583-.996 0 0-1.056 0-1.584.498-3.166-2.49-5.804-4.978-7.387-8.962-.528-.996-.528-1.992-1.056-2.988 0-.497-.528-1.493-.528-1.991l.528-.498h.528c1.583 0 6.332-.996 13.193-2.49.528-.497 1.055-.497 1.583-.497 2.638-.498 4.222-.498 6.332-.498zm7.597 20.22c.618 1.786 1.854 3.57 3.091 5.356l1.854 1.785c.618.595 1.236 1.19 2.473 1.785 1.854 1.19 3.091 2.976 3.091 4.761 0 .595 0 1.19-.618 1.785-2.473-.595-4.328-.595-6.8-1.19q-3.71-.892-5.564-1.785c-1.236-1.19-3.091-2.38-3.709-4.165v-2.976q.927-.892 1.855-3.57l1.854-1.785zm-32.962 1.753.002.054h.55v.979c-.55 0-.55.49-.55.49-.506.45-.547.9-.55.969v.009l.55.49c-1.1 1.957-2.751 4.404-3.851 6.851q-.826.735-1.651 2.937c-2.201-.49-3.851-.98-6.053-1.958-.55 0-1.1-.979-2.2-1.468 2.2-2.448 5.502-4.405 8.803-6.852 1.101-.49 2.751-1.468 4.402-2.447 0-.47.509-.489.548-.055zm169.463-31.598c.565 1.258 1.13 1.887 1.13 3.145s0 1.887-.565 2.517c-.565.628-1.13 1.258-2.259 1.887 0 3.145-.565 9.435-1.13 18.242-.523 4.081-.562 7.622-.564 10.121v6.234c-.565 0-1.13.629-1.695.629h-3.388c-.516-1.723-.561-2.921-.564-4.553l-.001-5.512c.534-4.162.563-6.639.564-7.96v-.217c0-1.887-.564-3.774-.564-5.032s-.565-2.517-1.129-3.775c-1.695 1.887-3.389 4.403-3.954 7.549 0 1.258-.564 2.516-.564 3.774q-2.542 2.83-6.778 3.774c-.527.587-1.546.626-3.057.629h-.331s-.565-.629 0-1.258c0 0 .565 0 .565-.628 2.823-3.775 6.777-8.178 10.165-13.84 2.824-4.403 5.648-7.548 7.342-10.694v-.629c1.129-1.258 1.694-3.145 2.824-4.403 1.129 0 2.259.63 3.953 0M339.078 56.94c-.596 2.563-1.193 5.126-1.789 8.33v5.127c0 1.282.596 1.923 1.193 2.564 0 0 .596.64 1.192.64 2.384-.64 4.172-1.922 5.961-3.844.596-1.282 1.788-1.923 2.384-3.205.596-.64 1.192-2.563 2.385-3.845-1.789-1.282-3.577-3.204-5.365-3.845-1.193-.64-2.385-1.282-3.577-1.282-.596 0-1.192-.64-2.384-.64m-176.965 4.714c-.004.498-.504.498-.504.995-.499.499-.499.997-.499 1.494v2.988h.499c.5 0 1-.498 1-1.494v-3.485c0-.498-.5-.498-.5-.498zm4.493-3.485-.5.498s-.499 0-.499.497c-.5.498-.5.996-.5 1.494v3.486c0 .995.5 1.493.999 1.493h.999c0-.996.5-1.493.5-2.49V61.03c-.004-.46-.042-.954-.5-1.867 0-.497 0-.995-.499-.995m5.495-1.494h-.999l-.5 6.97c-.499.498 0 .996.5.996h.624c.455-.003.875-.041.875-.498v-2.489c.499-.996.499-1.494.999-2.49 0-.995 0-1.494-.5-1.991-.499 0-.499-.498-.999-.498m-7.993-9.959c-.5 0-1.499 0-1.999.498-.499.498-.499.996-.999.996 0 0-.499 0-.999-.498s-.999-.498-.999-.498l-1.999 7.47c0 .995.5 1.493.5 2.489 0 .497-.5.996-1 1.494l5.496-.498 3.997-1.494c-1.499-.498-2.498-.996-3.997-1.992h-.5c-.499-.498-1.498-.996-1.998-1.493-.5-.499 0-.997.5-.997h1.998q2.248 0 2.998-1.493c0-.498.499-.996.499-1.494v-.995q0-1.495-1.499-1.495zm11.99-11.451c-1.998.497-3.497.497-4.996.995-.499 0-.999.498-1.498.498-.5.498-1.499.498-2.499.996l-.999.498c-1.499.498-2.498.498-3.997.996-.458.456-.916.494-.989.498h-.01c-1.499.996-1.999 1.991-1.999 3.485v.996c.5-.498 1.499-.498 1.999-.996 1.499-.498 3.497-.996 4.996-1.494h.499c1-.497 1.999-.497 2.998-.995h.5c0-.498.499-.498.999-.498h.125c.957 0 1.894.02 2.373.498.5 0 .999.498.999.995 0 .498 0 .996-.499 1.494-.5.996-1 2.49-1.499 3.983 0 .996-.5 1.992-.999 2.49-.5 1.494-1 2.987-1.499 3.486-.458.456-.496.913-.5.985v.01h.5l4.496-1.494c.999.499 1.999.996 2.499 1.494.499.498.499.996.499 1.992v1.493l2.498-3.983c-.999-2.987-1.998-7.468-2.997-12.447 0-1.992-.5-3.486-1-5.975m78.939 12.447h-1.499c-.499 0-.999.498-1.498.498-.999.498-1.999.996-2.498 1.494-.999 0-1.999.498-2.499.996-.499.995-.999 1.493-.999 2.49 0 .497 0 .995.5 1.493.458.457.916.495 1.759.498h.239c2.498-.498 3.997-.996 4.996-1.494 1.499-.996 2.998-1.992 3.997-2.987V50.2c0-1.494-.499-2.49-2.498-2.49m27.71-15.346c1.089.997 2.179 2.493 3.268 3.49 0 .5.545 1.497.545 2.495 0 .997 0 1.496-.545 1.496-.545.498-.545.498-1.089.498-.545 0-1.09-.498-1.634-.498l-.545-.5c-3.268-.498-7.081-.996-11.439-.996h-1.634c-4.357 0-8.715.498-13.073.997h-1.089c-2.179.499-3.813.997-6.537 1.496-3.268 0-5.991.499-8.714.499-1.09 0-2.724.499-3.814.499-3.812.498-7.08 1.496-10.893 2.992-.545-.997-1.09-1.496-1.635-2.494-.544-.997-.544-1.995-.544-2.493v-.998l6.536-.498c3.268 0 6.536-.5 9.805-.998 2.723-.499 5.447-.499 8.17-.997 3.269-.5 5.992-.5 8.171-.998 3.812-.499 6.536-.997 8.715-.997 1.634 0 2.723-.5 4.357-.5 4.903-.498 9.26-.996 11.984-1.495zm66.331 1.96c-.588 0-1.175 0-2.351.642-.546.595-1.092.637-1.167.64h-.596c-1.176 0-2.351 0-3.527 1.282-1.176.64-1.763 2.563-1.763 3.845 0 .641.587 1.282.587 1.923 1.764 0 3.527 0 4.703-.641 1.175 0 1.763 0 2.351-.641 2.351-1.923 3.527-3.845 2.939-5.768 0-1.281-.588-1.281-1.176-1.281m54.958-17.982c1.034.646 2.067 1.292 3.1 2.584l1.55 1.939c.517 0 .517.646.517 1.292v.102c-.002.612-.028 1.224-.517 1.836-.517.646-1.034 1.292-1.55 1.292-1.55 3.23-4.133 5.815-6.716 9.045-1.034.646-2.066 1.938-3.616 3.23-.517.646-1.034 1.292-1.55 1.292-.517 0-.517-.646-1.034-.646l-.516-.646 3.616-9.044 3.1-7.107.517-1.292c0-1.293.516-2.584 1.55-3.23.516 0 1.033-.647 1.549-.647m-54.229 8.462c-2.384.673-4.172 1.346-5.365 1.346h-1.192c-2.384.673-4.172 2.02-4.768 4.712q0 3.03 1.788 2.02c.596 0 1.192-.673 1.788-.673l.12-.009c.556-.078 1.112-.665 1.668-.665h.596c1.193-.673 2.385-.673 3.577-1.346 1.788-.673 2.385-2.02 2.385-3.366 0-.673 0-1.346-.597-2.02m88.9-6.578c1.311 0 2.623.569 3.278 1.137.656.568 1.312 1.704 1.312 2.841 0 .569-.656 1.137-.656 1.705-5.902 2.841-12.459 5.114-19.672 6.251-1.312 0-2.623 0-3.279 1.136l-2.623-6.819 5.902-1.705 13.77-3.978c.656-.568 1.312-.568 1.968-.568m-188.167-.39c.5.995 1 1.991 2.498 3.485l1.499 1.494c1.999 1.992 2.998 3.983 2.998 4.979s-.499 1.992-.999 2.987h-2.998c-.999 0-1.998-.497-2.497-.497-1.999-.498-2.998-1.992-4.497-3.984v-1.99c0-1.494.499-2.988.999-3.984.999-1.494 1.998-2.49 2.997-2.49m-59.196 2.008c1 .498 1.999.996 2.498 1.494s1 .498 1.499.996c1.499.996 2.498 1.991 2.998 3.485-1 1.494-2.498 1.992-4.497 1.992-.999 0-1.998-.498-2.997-.996l-1.499-1.494v-1.596c.001-.962.034-1.923.999-2.885 0-.498.5-.498.999-.996" fill="#231815"/></svg>