<svg width="517" height="128" fill="none" xmlns="http://www.w3.org/2000/svg"><path d="M226.514 89.402h7.296q1.45 0 2.657.344 1.21.343 2.077.971.867.63 1.346 1.505a3.96 3.96 0 0 1 .478 1.93q0 .802-.15 1.431c-.1.419-.281.813-.533 1.162a4.7 4.7 0 0 1-1.018 1.008q-.635.475-1.605.972v.058a6 6 0 0 1 1.749.556c.501.25.953.588 1.332 1.001.374.412.664.894.854 1.417q.3.811.3 1.775a4.82 4.82 0 0 1-1.715 3.719q-.826.71-1.994 1.118-1.168.41-2.616.409h-8.458zm3.412 9.119h3.435q.81 0 1.44-.256a3.1 3.1 0 0 0 1.065-.705c.294-.307.519-.674.659-1.075.152-.434.228-.89.224-1.35q0-.78-.267-1.418a2.8 2.8 0 0 0-.828-1.095q-.562-.456-1.428-.699-.865-.24-2.075-.241h-2.226zm0 7.978h3.099q1.247 0 2.167-.192.919-.19 1.517-.539.599-.347.888-.834t.289-1.067a2.9 2.9 0 0 0-.257-1.212q-.258-.56-.843-.969-.585-.41-1.53-.648t-2.321-.238h-3.009zm22.157-17.097 9.684 19.376h-4.392l-2.703-5.067h-7.463l-2.64 5.067h-3.272l9.917-19.376zm-4.286 12.579h6.402l-2.991-6.567zm16.244-12.579h1.806l12.554 13.85h.145v-13.85h2.553v19.376h-1.889l-13.594-15.392h-.116v14.95h-1.459zm21.607 0h3.261v8.593l8.679-8.593h3.028l-8.584 8.593 9.515 10.783h-4.153l-8.484-9.834v9.834h-3.262zm33.539 20.516q-2.275 0-4.246-.814a10.7 10.7 0 0 1-3.426-2.226 10.4 10.4 0 0 1-2.29-3.299 9.85 9.85 0 0 1-.834-4.03 9.75 9.75 0 0 1 1.447-5.133 10 10 0 0 1 1.677-2.049 10.7 10.7 0 0 1 2.178-1.582c.818-.447 1.689-.79 2.592-1.02a11.5 11.5 0 0 1 2.902-.363q1.521 0 2.909.362a11.4 11.4 0 0 1 2.592 1.02 10.4 10.4 0 0 1 3.855 3.632c.47.755.832 1.571 1.078 2.426.252.88.379 1.791.377 2.707a9.96 9.96 0 0 1-1.455 5.221 10.6 10.6 0 0 1-3.855 3.727c-.816.459-1.687.812-2.592 1.051a11.3 11.3 0 0 1-2.91.37zm-.024-1.08q1.656 0 2.925-.69a6.25 6.25 0 0 0 2.142-1.924q.87-1.234 1.314-2.919.442-1.683.442-3.687 0-1.989-.443-3.645-.442-1.655-1.314-2.853a6.1 6.1 0 0 0-2.14-1.858q-1.271-.66-2.926-.66-1.684 0-2.954.66a6.05 6.05 0 0 0-2.134 1.858q-.864 1.199-1.299 2.853-.436 1.656-.436 3.645 0 2.004.436 3.687.435 1.685 1.299 2.919a6.2 6.2 0 0 0 2.134 1.924q1.27.69 2.954.69m26.755-18.855v2.397h-9.303v6.345h6.729v2.396h-6.729v7.657h-3.206V89.983zm14.964 18.692q.707 0 1.401-.2a4 4 0 0 0 1.242-.591c.359-.254.659-.582.88-.961q.332-.57.332-1.324a2.9 2.9 0 0 0-.455-1.605 5.3 5.3 0 0 0-1.191-1.287 12 12 0 0 0-1.682-1.102q-.96-.525-1.928-1.035a40 40 0 0 1-1.928-1.088 9.7 9.7 0 0 1-1.682-1.272 6 6 0 0 1-1.191-1.568q-.455-.865-.455-1.99t.411-2.085a4.64 4.64 0 0 1 1.206-1.664q.795-.702 1.957-1.102 1.162-.399 2.664-.399 1.358 0 2.426.296a5.9 5.9 0 0 1 1.877.872 5.5 5.5 0 0 1 1.372 1.42 7.5 7.5 0 0 1 .91 1.953l-1.646.769a8 8 0 0 0-.737-1.65 5.2 5.2 0 0 0-1.068-1.279 4.5 4.5 0 0 0-1.437-.821q-.816-.288-1.841-.288-.91 0-1.589.259-.678.258-1.133.68a2.8 2.8 0 0 0-.679.946 2.7 2.7 0 0 0-.224 1.073q0 .77.462 1.412.462.644 1.228 1.214.832.611 1.74 1.102l1.985 1.08q1.008.545 1.986 1.139c.621.373 1.204.806 1.74 1.293q.765.703 1.228 1.539t.461 1.871q0 1.168-.432 2.197a4.9 4.9 0 0 1-1.3 1.79q-.867.76-2.152 1.205-1.285.444-2.989.444-1.387 0-2.469-.311a6.2 6.2 0 0 1-1.914-.902 5.9 5.9 0 0 1-1.422-1.442 8 8 0 0 1-.968-1.945l1.719-.725a6.5 6.5 0 0 0 .816 1.715c.327.487.729.919 1.191 1.28q.679.525 1.509.806a5.5 5.5 0 0 0 1.769.281m13.475-8.458v8.561h-3.421V89.402h3.421v8.825h10.216v-8.825h3.421v19.375h-3.421v-8.559h-10.216zm25.56-10.815 9.684 19.375h-3.523l-3.134-6.314h-7.593l-2.937 6.316h-1.879l8.513-19.376zm-3.963 11.397h6.823l-3.363-7.978zm25.58 9.119q-2.275 0-4.247-.814a10.7 10.7 0 0 1-3.426-2.226 10.5 10.5 0 0 1-2.289-3.299 9.85 9.85 0 0 1-.834-4.03 9.7 9.7 0 0 1 1.447-5.133 10 10 0 0 1 1.676-2.049 10.7 10.7 0 0 1 2.179-1.582 11.2 11.2 0 0 1 2.591-1.02 11.5 11.5 0 0 1 2.903-.363q1.521 0 2.909.362a11.4 11.4 0 0 1 2.592 1.02 10.4 10.4 0 0 1 3.854 3.632 9.6 9.6 0 0 1 1.455 5.133 9.94 9.94 0 0 1-1.455 5.221 10.6 10.6 0 0 1-3.854 3.727c-.816.459-1.687.812-2.592 1.051-.95.249-1.928.374-2.91.37zm.139-1.183q1.655 0 2.925-.69a6.2 6.2 0 0 0 2.141-1.923q.872-1.235 1.314-2.919t.443-3.688q0-1.988-.443-3.644-.442-1.655-1.314-2.853a6.1 6.1 0 0 0-2.141-1.859q-1.27-.66-2.925-.66-1.684 0-2.954.66a6.04 6.04 0 0 0-2.134 1.86q-.864 1.196-1.3 2.852-.435 1.655-.435 3.644 0 2.004.435 3.688.436 1.685 1.3 2.919a6.2 6.2 0 0 0 2.134 1.923q1.27.69 2.954.69m11.25.043h-1.716l8.199-9.556-7.48-9.82h3.887l5.647 7.438 6.366-7.438h1.73l-7.304 8.504 8.287 10.872h-3.916l-6.425-8.49zm19.89-19.376h3.412v19.375h-3.412zm9.098 0h1.806l12.554 13.85h.145v-13.85h1.416v19.375h-.752l-13.594-15.392h-.116v14.95h-1.459zm31.5 1.405q-1.628 0-3.005.629a6.8 6.8 0 0 0-2.375 1.804q-.996 1.175-1.553 2.84t-.557 3.72q0 2.072.604 3.735.605 1.664 1.656 2.833a7.2 7.2 0 0 0 2.476 1.796q1.424.63 3.053.63 1.18 0 2.13-.348a5.5 5.5 0 0 0 1.71-.999v-6.877h-3.406V99.4h6.431v8.624q-.771.45-1.587.814-.84.368-1.73.592-.93.236-2.042.362-1.113.126-2.524.126-1.492 0-2.836-.363a10.2 10.2 0 0 1-2.489-1.028 10 10 0 0 1-2.07-1.59 9.8 9.8 0 0 1-1.567-2.049 10.26 10.26 0 0 1-1.35-5.088q0-1.376.333-2.685c.216-.86.537-1.689.956-2.47a10.2 10.2 0 0 1 1.52-2.122 9.74 9.74 0 0 1 4.478-2.737 10.1 10.1 0 0 1 2.822-.384q1.425 0 2.639.421a9 9 0 0 1 2.211 1.117 9.3 9.3 0 0 1 1.771 1.605c.503.59.949 1.226 1.33 1.9l-1.303.947q-1.14-2.38-2.531-3.483-1.39-1.102-3.195-1.102m.956-51.097c2.201 0 5.986-.301 5.986.622q0 .923 2.933 2.993h-13.369v25.41a20.7 20.7 0 0 1-1.037 5.781c-.942 2.882-4.937 3.664-6.805 3.664s-.917-2.03-2.006-3.665q-1.088-1.634-6.947-3.715v-2.86q4.919 1.92 6.947 2.86c2.03.941 2.754-1.613 2.754-3.54V43.326H465.59q-2.404 0-1.959-3.616zM281.972 49.976v25.995l-3.624 1.724h-2.887v-3.762h-15.485v1.299l-5.09 2.463h-1.441V49.977zm94.727-32.183c1.391 0 2.192 1.865 4.36 1.865s1.564 2.759-.877 6.37q-2.442 3.61-1.29 3.766h10.901q3.116 0 3.116 2.592h-15.4q-.453.664-1.051 1.803t-2.835 5.173h16.169q.735 0 1.6 2.662h-9.136v7.179h8.4q.864 0 2.253 3.617h-10.654q-.063 10.117 0 13.013c1.196 0 2.725-1.717 5.739-2.716 3.015-1 4.915-1.686 4.915-.687 0 1-2.732 2.128-6.223 4.555s-9.019 10.283-9.986 10.283-4.74-5.254-4.248-5.254q.492 0 3.502-1.463V51.464h-8.324v-2.09h8.324v-7.349h-5.052q-.942 1.121-3.272 3.487c-2.33 2.366-4.073 1.773-2.348 0 1.726-1.774 9.092-16.487 9.898-21.359.806-4.871.13-6.36 1.52-6.36zm80.144 13.575c1.632 0 1.393 1.034 2.99 2.371 1.597 1.338 2.522 2.164 1.597 2.984-.926.82-5.868 7.775-6.955 9.512q-.118 2.526 0 28.455-.524 2.155-3.338 2.155h-1.947V51.434q-8.357 6.758-10.365 6.759c-2.011 0-3.332-.87-1.212-2.072s8.946-7.258 12.904-13.706 4.693-11.046 6.326-11.046M328.874 54.951c1.273-.82 7.317 2.278 16.006 7.19s7.327 6.63 7.327 9.173c0 2.545-3.519 6.38-3.519 5.364 0-1.018-11.133-13.561-14.016-16.346-2.883-2.784-7.07-4.56-5.798-5.38m94.302-33.173v26.76c0 .425-1.176 1.103-2.339 1.541q-1.1.413-3.117.956l-.24.064v-1.788h-7.586q.003.372 0 .882c0 2.52 4.17 9.336 4.892 9.336.721 0 7.366-6.069 8.443-6.746 1.078-.677 2.052-.677 3.077 0 1.026.677 3.081 4.078 2.064 3.81s-3.026 1.078-4.807 1.918c-1.782.841-6.083 2.92-6.083 3.99s3.655 4.415 6.571 6.232 8.156 2.657 5.79 4.064-7.912 2.853-8.617 2.466c-.706-.386-5.947-6.33-9.519-11.428q-3.498-4.991-5.404-14.133l-.081-.39h-5.166v17.414c0 2.687 1.544 1.706 4.275 0q2.73-1.707 7.206-1.655-6.147 4.218-9.417 6.604c-3.271 2.384-4.203 5.17-5.242 5.17h-.191c-.991-.003-2.059-.05-2.059-.832 0-.832-3.505-2.931-2.895-2.931q.59 0 2.739-1.312l.155-.096V21.78zM250.781 63.118s.587 1.607-.657 1.607-21.611 11.954-22.143 11.954c-.531 0-1.334-1.195-2.279-2.745-.945-1.549-1.897-2.41-1.345-3.596.554-1.186 26.424-7.22 26.424-7.22m65.304-9.404a60 60 0 0 1 4.063 1.94c1.424.757 4.541 1.788 2.08 3.084s-18.222 17.94-23.601 17.94c-5.38 0-.365-1.419 2.432-3.88s14.253-15.903 15.026-19.083m-40.473 0h-15.896V70.57h15.896zM237.811 19.01q5.695 2.765 5.695 3.935c0 1.17-10.023 13.2-11.907 14.955-1.883 1.754-1.377 2.336-1.211 2.558.167.222 8.473.942 9.671 0 1.197-.941 5.624-7.464 5.624-8.976s7.193 2.818 6.026 3.596q-1.166.779-18.811 19.017 15.568-1.686 16.396-1.686t0 1.687q-10.796 2.65-14.245 4.993-3.45 2.343-4.661 2.343-2.71-4.623-4.079-4.623c-1.369 0 11.502-11.44 11.502-12.245 0-.806-7.488-.504-9.83.948q-2.341 1.452-4.114-4.535 5.039-5.91 7.732-10.457 2.695-4.545 6.212-11.51m106.413 1.878c3.471 1.529 6.692 1.751 6.692 3.106 0 1.207-12.13 20.307-16.314 24.43h11.22c4.464 0 5.923-1.946 6.701-.75q.777 1.193 3.6 3.79h-59.215c-1.658 0-1.744-1.487-2.497-1.487q-.753 0-1.164-1.554h39.501c-.028-1.736 2.423-6.154 4.526-11.068 2.714-6.337 3.48-17.997 6.95-16.467m-60.636 2.283s-1.403 15.93-1.985 18.598-3.368 4.641-4.602 5.695-4.254.876-4.254 0c0-.875-1.71-5.163-5.049-5.163q-3.339 0-2.964-1.083 4.536-.588 8.013 0c3.478.587 4.254-1.695 4.254-3.552V26.544q-9.303-.427-9.303 0c0 .427-2.249 7.551-5.349 12.557s-8.185 8.08-10.64 9.239q-2.454 1.157-5.906 1.637-1.34-1.638 0-1.637c1.341 0 7.121-5.441 10.773-10.674 3.653-5.233 4.778-10.665 4.144-11.122s-10.86.006-10.86-.642V23.17zm18.101-.702c2.16.702 16.344 14.798 15.243 17.752s-4.108 5.29-5.85 5.29-.521-5.877-4.139-11.52c-3.619-5.644-7.414-12.224-5.254-11.522m115.857 15.076h-16.545v6.866h16.545zM320.44 19.01c2.301 1.53 10.831 13.917 10.831 17.564s-4.037 6.571-6.458 6.571-.458-6.294-1.44-9.18c-.981-2.888-5.234-16.486-2.934-14.955zm135.282-.481c.841.703 1.637 1.801 2.945 2.526s1.783 2.817 0 4.318c-1.783 1.502-14.932 12.172-18.023 12.172s-5.47-.969-2.4-1.93c3.069-.962 8.731-6.647 11.845-10.242 3.113-3.594 4.792-7.547 5.633-6.844m-38.176 8.346h-16.545v6.866h16.545zm48.047-3.19q27.391-.62 28.631 0t4.335 4.31h-28.246c-2.252 0-2.252-.767-3.097-1.451q-.846-.685-1.623-2.858" fill="#149edc"/><path fill-rule="evenodd" clip-rule="evenodd" d="M186.521 56.846c-22.018-22.808-53.354-35.88-85.993-35.88-32.64 0-63.976 13.072-85.984 35.88l-.544.546.598.485 56.38 46.152v-.822.822c8.753-5.232 19.153-8.364 29.55-8.364 10.396 0 20.829 2.948 29.584 8.176l56.34-45.964.595-.485z" fill="#c1c2c2"/><path fill-rule="evenodd" clip-rule="evenodd" d="m185.406 57.05-.521-.532-.26-.267-.268-.266-.267-.266-.266-.266-.269-.267-.274-.266-.273-.265-.275-.267-.276-.266-.281-.266-.281-.266-.28-.266q-.143-.134-.287-.266l-.289-.267-.288-.266-.289-.266-.295-.266-.296-.266-.295-.267-.299-.265-.303-.267-.304-.266-.302-.266-.311-.266-.311-.266-.31-.266-.315-.266-.319-.267-.318-.265-.32-.267q-.163-.134-.327-.266L175.51 48l-.327-.265q-.166-.135-.333-.266l-.335-.267-.335-.265-.339-.267-.344-.266-.343-.266-.345-.266q-.176-.134-.353-.266l-.353-.266-.353-.267-.361-.266-.363-.266-.362-.266-.367-.266-.373-.267-.373-.266-.375-.265-.382-.267-.382-.266-.385-.266q-.196-.134-.393-.266a98 98 0 0 0-1.559-1.041q-.265-.175-.532-.348l-.539-.346-.544-.348-.555-.347q-.276-.174-.555-.347l-.57-.347-.571-.347q-.29-.175-.583-.347-.293-.175-.588-.348l-.597-.347-.605-.347a114 114 0 0 0-4.489-2.43q-.34-.174-.681-.346-.346-.175-.694-.348l-.702-.347q-.359-.175-.719-.347-.361-.175-.724-.347-.373-.175-.747-.347-.375-.175-.752-.348l-.774-.347a108 108 0 0 0-2.404-1.041q-.414-.175-.83-.347l-.86-.348q-.435-.174-.871-.346-.445-.175-.892-.348-.459-.175-.921-.347-.468-.176-.938-.347-.48-.175-.96-.347a129 129 0 0 0-2.021-.694 120 120 0 0 0-2.134-.694 128 128 0 0 0-6.089-1.736 121 121 0 0 0-4.397-1.041 118 118 0 0 0-3.45-.695 119 119 0 0 0-6.568-1.04 122 122 0 0 0-6.789-.695 124 124 0 0 0-22.151.347 122 122 0 0 0-12.962 2.083A120 120 0 0 0 68.6 25.83a114 114 0 0 0-2.471.694 116 116 0 0 0-4.434 1.389 127 127 0 0 0-2.02.694q-.48.171-.96.347-.47.171-.939.347-.46.172-.92.347a107 107 0 0 0-1.763.694q-.43.172-.86.348-.415.171-.83.347A101 101 0 0 0 51 32.079l-.774.347-.752.348q-.374.172-.746.347-.363.171-.724.347-.36.172-.72.347a112 112 0 0 0-2.076 1.041 115 115 0 0 0-3.876 2.083 147 147 0 0 0-1.815 1.041q-.295.173-.589.348-.292.172-.583.347-.285.172-.57.347l-.57.347-.556.347-.554.347-.543.347-.54.347q-.267.173-.531.348l-.526.346-.522.348-.511.347-.393.266-.385.267-.381.265-.383.267-.376.266-.372.266-.372.266-.368.266-.362.266-.363.266-.36.266-.353.267-.353.266-.354.266-.344.266-.343.266-.345.266-.338.267-.335.265-.335.267-.333.266q-.164.132-.326.266l-.327.266-.327.266-.32.267-.318.266q-.16.132-.319.266l-.315.266-.31.266-.31.266-.312.266-.302.266-.303.266q-.15.134-.303.267l-.299.265-.295.267-.296.266-.294.266-.29.266-.576.533-.287.266-.28.266-.28.266-.282.266-.277.266-.273.267-.274.266q-.137.132-.273.266l-.27.266-.266.266-.267.266-.267.266-.26.267-.52.532-.22.224v.001l.05.04 3.253 2.662.325.266.651.533.326.266.65.532.326.267 5.532 4.524.325.266 1.301 1.064.325.266.651.533 3.254 2.661.326.266.325.266.325.266.651.533.325.266.651.532.976.799.326.266.325.266 4.23 3.46.326.266.65.532.325.266 1.627 1.331.325.266L44.92 81.8l.326.266 1.626 1.33.326.267.325.266.65.532.327.266.65.532.326.267.324.265 3.255 2.662.325.266.65.532.326.267.326.266.325.266 1.301 1.064.326.267 14.078 11.515v.004c8.556-5.113 18.69-8.076 29.567-8.076 10.868 0 20.962 2.953 29.499 8.062l10.503-8.578.326-.266.326-.266.325-.266.326-.266.326-.267.326-.265.326-.267.326-.266.325-.266 1.63-1.33 1.63-1.332.325-.265 2.607-2.13.326-.266.326-.266.326-.266 1.955-1.597.326-.266 1.629-1.33.326-.267 3.911-3.194.325-.266 1.63-1.33.325-.267.653-.532.325-.266.326-.266.326-.266.325-.266.326-.266.327-.267.326-.266.325-.266.326-.266.326-.266.326-.266.326-.267 2.281-1.863.326-.266.325-.266 4.563-3.726.326-.266.326-.267.651-.531.652-.532.326-.267.325-.265.326-.267.978-.798.326-.267.326-.266.326-.266.325-.266 2.282-1.863.326-.266.325-.266.326-.266.326-.267 1.304-1.064 2.657-2.17z" fill="url(#paint0_linear_63_12282)"/><path fill-rule="evenodd" clip-rule="evenodd" d="M97.581 64.837c-.13.056-.306.145-.529.254l-.036.018a24 24 0 0 0-.957.491 29 29 0 0 0-1.33.763 32 32 0 0 0-1.197.762l-.38.254q-.185.125-.371.255a44 44 0 0 0-1.064.762 63 63 0 0 0-.676.508 60 60 0 0 0-.656.509l-.319.254-.316.254-.31.254-.306.255q-.152.126-.303.254a55 55 0 0 0-.594.508l-.29.254-.288.255-.284.254-.28.254-.28.254-.273.254-.272.255-.27.254-.266.254-.263.254-.262.255-.257.254-.257.254-.253.254-.251.254-.248.255-.247.253-.243.254-.243.255-.238.254-.239.255-.234.254-.233.254-.23.254-.23.254-.227.254-.224.255-.224.254-.22.254-.22.254-.216.254-.216.255-.213.254-.21.254-.21.254-.208.254-.207.254-.203.255-.202.254-.2.254-.199.254-.197.254-.194.254-.194.255-.19.254-.19.254-.188.254-.186.254-.185.255-.182.254-.182.255-.179.254-.177.253-.176.255-.173.254-.173.254-.17.254-.169.255-.167.253-.165.255-.164.254-.16.254-.162.255-.157.254-.156.254-.156.254-.152.254-.152.255-.148.254-.148.254-.146.254-.143.254-.144.255-.139.254-.138.254-.138.254-.133.254-.134.254-.13.255-.13.254-.127.254-.125.254-.125.254-.12.255-.12.254-.118.254-.115.254-.114.254q-.056.127-.11.255l-.11.254-.108.254-.105.255-.104.254-.1.254-.1.254-.097.254-.094.254q-.046.128-.094.254l-.088.254-.088.254-.087.255-.082.254-.083.254q-.04.127-.077.255l-.077.254-.04.132-.035.121c-.293 1.03-.354 1.888-.233 2.594l1.615 1.321a57.2 57.2 0 0 1 10.906-4.931 61 61 0 0 1 2.48-.763 61 61 0 0 1 2.726-.702l.032-.06.134-.254.132-.254.13-.255.126-.253.125-.255.121-.254.12-.254.117-.255q.059-.126.115-.254l.112-.254.111-.254.108-.254.107-.255.104-.254.102-.254.1-.254.099-.254.096-.255.095-.254.093-.254.09-.254.091-.254.087-.254.087-.255.084-.254.084-.254.081-.254.08-.254.08-.255.078-.254.076-.254.076-.254.074-.254.073-.255.072-.254.07-.254.07-.255.07-.253.068-.255.067-.254.067-.254.066-.254.065-.255.064-.254.064-.253.063-.255.063-.254.062-.255.123-.508.123-.508.181-.763.12-.508.06-.254.121-.509.06-.254.061-.254.122-.508.062-.255.062-.254.063-.254.062-.254.064-.254.064-.255.065-.254.066-.254.066-.254.067-.254.068-.254.07-.255.069-.254.071-.255.072-.254.073-.254.075-.254.075-.254.077-.254.079-.254.08-.254.081-.255.083-.254.085-.254q.042-.128.086-.254l.088-.255.09-.254.092-.254.093-.254.096-.254.098-.255.099-.254.103-.254.104-.254.107-.254.109-.255.111-.254.115-.254q.057-.128.116-.254l.12-.254a28 28 0 0 1 .376-.763l.13-.254.135-.254.137-.254.142-.255q.07-.128.144-.254l.146-.254.153-.254.115-.192.036-.062.295-.509.147-.254a15 15 0 0 0 .277-.508.8.8 0 0 0 .092-.255c.005-.097-.088-.084-.283 0" fill="#0065bf"/><path fill-rule="evenodd" clip-rule="evenodd" d="m96.751 54.415-.037-.029-.33-.225-.372-.254a54 54 0 0 1-.722-.508l-.354-.254a53 53 0 0 1-.69-.509l-.337-.254-.334-.254-.328-.254a51 51 0 0 1-.96-.763l-.313-.254-.307-.254-.307-.255-.3-.254-.297-.254-.294-.254-.292-.255-.287-.254-.285-.253-.283-.255-.278-.254-.278-.255-.272-.254-.272-.254-.268-.254-.266-.254-.263-.255-.262-.254-.258-.254-.257-.254-.254-.254-.253-.255-.249-.254-.248-.254-.245-.254-.16-.166-.16-.168-.158-.166-.159-.167-.157-.167-.311-.333-.155-.167-.153-.167-.154-.167-.152-.167-.303-.334-.15-.166-.15-.167-.149-.167-.148-.167-.147-.167-.147-.167-.147-.166-.29-.334-.144-.167-.143-.167-.143-.167-.143-.167-.282-.333-.14-.166-.28-.334-.14-.167-.275-.334-.137-.166-.137-.167-.136-.167-.136-.167-.135-.167-.135-.167-.134-.167-.133-.166-.134-.167-.132-.166-.264-.334-.13-.167-.131-.167-.131-.166-.13-.167-.13-.167-.128-.167-.129-.167-.128-.167-.128-.167-.126-.166-.127-.167-.127-.167-.126-.167-.126-.167-.125-.167-.125-.166-.124-.167-.248-.334-.124-.167-.123-.167-.122-.167-.123-.166-.244-.334-.121-.167-.242-.333-.12-.167-.12-.166-.12-.168-.12-.166-.12-.167-.118-.167-.12-.167-.118-.167-.118-.166-.119-.167-.235-.334-.118-.167-.234-.334-.117-.166-.117-.167-.117-.167-.233-.334-.116-.167-.117-.167-.116-.166-.233-.334-.232-.334-.116-.166-.233-.334-.117-.166-.234-.334-.117-.167-.118-.167-.119-.167-.118-.166-.12-.167-.015-.022-.086.022a119 119 0 0 0-4.283 1.168l-.565.166-.554.167a91 91 0 0 0-1.08.333l-.529.167-.52.167-.511.167-.504.167-.497.166-.16.054-.008.113q-.006.084-.014.167l-.013.167-.013.167-.013.167-.013.166-.007.167-.007.167-.007.167-.007.167-.007.167-.002.167v.167l-.001.166v.167q-.002.083 0 .167 0 .084.002.167c0 .056.005.11.006.167l.007.166.007.167q.002.084.006.167l.009.167.013.167.014.166.014.167.013.167.016.167.022.166.02.167.022.167.021.167.025.167.029.167.029.166.029.167.028.167.036.167.036.167.038.167q.017.084.037.167t.039.166l.045.167.045.167.045.167.045.167.053.167.054.167.054.166q.026.084.054.167l.06.167.062.167.063.167q.03.083.063.166l.068.167.072.166.072.167q.035.085.072.167l.078.167.082.167.082.167.081.167.09.166.092.167q.045.084.092.167.045.084.092.167l.103.167q.05.084.102.166.05.085.102.167l.107.167.114.166.113.167.113.167.125.167q.06.084.124.167l.124.167.132.167.137.166.136.167.141.167.148.167.149.167.152.167.161.166.161.167.165.167.174.167q.086.084.174.167l.18.167.188.167.187.166q.097.084.197.167l.201.167.201.167q.107.084.216.166l.216.168.221.166a22 22 0 0 0 .718.508q.185.129.375.254.2.129.4.255l.412.254q.212.128.427.254.224.129.45.255a32 32 0 0 0 1.988 1.016 39 39 0 0 0 1.72.763 44 44 0 0 0 1.947.763 58 58 0 0 0 1.439.508 69 69 0 0 0 1.552.508 82 82 0 0 0 1.672.509 140 140 0 0 0 3.652 1.016l.962.255.97.254.977.254.972.254a338 338 0 0 1 1.914.509 137 137 0 0 1 1.82.508q.438.127.866.254a70 70 0 0 1 1.608.508q.38.127.747.255.091.03.181.063c.523.182.78.085.832-.063.03-.083-.004-.18-.09-.255" fill="#1c2380"/><path fill-rule="evenodd" clip-rule="evenodd" d="M96.719 60.007c-.016-.071-.07-.156-.18-.254a1 1 0 0 0-.104-.084 1.4 1.4 0 0 0-.347-.17c-.292-.104-.72-.195-1.311-.254-.88-.089-2.118-.109-3.794 0q-1.216.077-2.753.254-.917.106-1.956.254a98 98 0 0 0-3.19.509 125 125 0 0 0-2.736.508 170 170 0 0 0-3.638.758l-.02.005-1.172.254-1.18.254-1.179.254-1.172.254a424 424 0 0 0-3.424.763 225 225 0 0 0-3.22.762 158 158 0 0 0-2.971.763 130 130 0 0 0-1.841.508 111 111 0 0 0-2.55.763 86 86 0 0 0-3.744 1.27 70 70 0 0 0-2.59 1.018 62 62 0 0 0-1.737.763 52 52 0 0 0-1.578.762 43 43 0 0 0-1.886 1.016 40 40 0 0 0-1.268.764l-.12.075-.277.179a40 40 0 0 0-1.137.762 40 40 0 0 0-1.066.763 43 43 0 0 0-1.329 1.017 47 47 0 0 0-1.529 1.266l-.005.004a13 13 0 0 0-.508.464l.988.807.31.254 2.487 2.034.31.254.312.254.311.255 1.865 1.525.31.254 1.554 1.271.08.065.083-.065.328-.254.333-.255.334-.253.34-.255.342-.254.344-.254.349-.254.352-.254.355-.254.36-.255.362-.254.364-.254.37-.255.372-.254.375-.254.38-.254.38-.254.388-.255.388-.254.392-.254.396-.254.398-.254.404-.255.405-.254.409-.254.413-.253.417-.255.42-.254.424-.255.426-.254.431-.254.435-.254q.218-.128.438-.254l.443-.255.446-.254.45-.254.455-.254.456-.254.463-.254.467-.255.47-.254.475-.254.48-.254.482-.254.49-.254.492-.255.497-.254.505-.254a119 119 0 0 1 2.059-1.017 154 154 0 0 1 1.064-.508l.54-.254a127 127 0 0 1 1.099-.51l.557-.253a128 128 0 0 1 1.715-.763l.586-.254.594-.254.6-.254.609-.255a135 135 0 0 1 1.88-.762l.642-.254.657-.255.664-.254a136 136 0 0 1 3.501-1.27 119 119 0 0 1 3.054-1.017 139 139 0 0 1 2.492-.763 138 138 0 0 1 1.78-.508 103 103 0 0 1 1.901-.509 115 115 0 0 1 2.883-.702.7.7 0 0 0 .173-.06c.102-.053.182-.137.157-.255" fill="#005db0"/><path fill-rule="evenodd" clip-rule="evenodd" d="M163.567 70.684a2.5 2.5 0 0 0-.112-.509 4.4 4.4 0 0 0-.34-.762 6 6 0 0 0-.313-.51 8 8 0 0 0-.368-.508 12 12 0 0 0-.881-1.016 14 14 0 0 0-.506-.508q-.132-.127-.269-.255a19 19 0 0 0-.572-.508 21 21 0 0 0-.938-.763 30 30 0 0 0-.683-.508 26 26 0 0 0-1.121-.763 29 29 0 0 0-3.204-1.779 28 28 0 0 0-2.437-1.017 26 26 0 0 0-2.468-.76l-.014-.003a54 54 0 0 0-3.567-.763 70 70 0 0 0-3.259-.508 87 87 0 0 0-2.101-.254q-1.335-.143-2.677-.254a119 119 0 0 0-3.935-.254c-5.789-.28-11.249-.158-14.968 0a187 187 0 0 0-3.733.197q-.216.016-.354.057c-.203.061-.277.158-.208.255.054.075.197.15.435.207q.19.025.386.046c1 .11 2.179.16 3.587.255.884.06 1.858.136 2.934.254a56 56 0 0 1 7.217 1.271 64 64 0 0 1 2.874.762 78 78 0 0 1 1.687.509 85 85 0 0 1 2.304.763 92 92 0 0 1 4.07 1.525 98 98 0 0 1 1.851.762l.597.255q.293.125.587.254.239.103.481.21l.1.044a57 57 0 0 0 1.185.508 70 70 0 0 0 2.583 1.017 59 59 0 0 0 1.425.508 69 69 0 0 0 1.546.509 64 64 0 0 0 1.705.508 57 57 0 0 0 4.211 1.017q.694.138 1.373.255.84.143 1.656.253 1.2.163 2.347.254.954.077 1.867.106h.014a1.7 1.7 0 0 0 .006-.36" fill="#0045ac"/><path fill-rule="evenodd" clip-rule="evenodd" d="M142.687 38.584a2 2 0 0 0-.012-.167l-.021-.166-.031-.167-.041-.168a5 5 0 0 0-.112-.333 3 3 0 0 0-.073-.166 3.7 3.7 0 0 0-.702-1.001 4 4 0 0 0-.354-.334 6 6 0 0 0-.963-.667 8.3 8.3 0 0 0-1.509-.667 10 10 0 0 0-1.271-.334c-.829-.158-1.598-.19-2.163-.093q-.002.046-.007.093-.005.082-.015.166t-.023.167a4 4 0 0 1-.072.334q-.02.082-.045.167a4 4 0 0 1-.111.334q-.03.082-.066.166l-.071.167-.075.167-.083.167-.088.167-.092.167-.201.333a9 9 0 0 1-.218.334l-.117.167-.12.166-.124.167-.262.334-.137.166-.141.167-.144.167-.148.167-.152.167-.154.166-.159.167-.162.167-.165.167-.169.167-.171.166-.176.168-.177.166a17 17 0 0 1-.365.334l-.187.166-.19.167-.193.167-.196.167-.199.167-.2.166-.206.167-.207.167-.209.167-.213.167-.215.167-.218.166-.22.167-.224.167-.225.167-.229.167-.231.167-.233.167-.236.166-.238.167-.242.167-.244.167-.245.167-.25.166-.25.167a65 65 0 0 1-1.583 1.017q-.202.127-.409.254-.207.128-.416.254a52 52 0 0 1-.848.508l-.434.255q-.218.128-.439.254l-.444.254-.449.255-.455.253-.464.255q-.231.128-.467.254l-.474.255q-.237.127-.479.254l-.484.253-.493.255-.496.254-.505.254-.51.254-.517.255-.523.254a111 111 0 0 1-1.609.762l-.551.255-.055.025a1.3 1.3 0 0 0-.258.229.45.45 0 0 0-.121.254c-.006.152.15.242.483.184a139 139 0 0 0 2.497-.438 130 130 0 0 0 2.594-.509 112 112 0 0 0 4.412-1.016 100 100 0 0 0 1.912-.509 92 92 0 0 0 1.752-.508 75 75 0 0 0 3.113-1.017 59 59 0 0 0 3.279-1.27 46 46 0 0 0 2.728-1.272 36 36 0 0 0 1.413-.763 29 29 0 0 0 .857-.508l.268-.166a30 30 0 0 0 .513-.334l.248-.167q.122-.083.24-.167l.234-.167q.115-.082.227-.166l.223-.167a14 14 0 0 0 .421-.334 13 13 0 0 0 .399-.334q.097-.083.189-.166a27 27 0 0 0 .361-.334 11 11 0 0 0 .645-.668l.145-.166a16 16 0 0 0 .27-.334 8 8 0 0 0 .244-.334l.112-.166.103-.167q.05-.084.096-.167a4 4 0 0 0 .169-.334 5 5 0 0 0 .137-.333 3 3 0 0 0 .132-.5 2 2 0 0 0 .032-.334l.001-.024q0-.072-.004-.143" fill="#21148a"/><path fill-rule="evenodd" clip-rule="evenodd" d="M127.175 88.986q-.004-.125-.012-.255l-.018-.254-.023-.254-.028-.254-.033-.254-.035-.255-.04-.254-.043-.254-.047-.254-.049-.254-.052-.255-.055-.254-.057-.254-.059-.254-.062-.254-.063-.254-.066-.255-.067-.254-.07-.254-.071-.254-.073-.254-.074-.255-.077-.254-.077-.254-.079-.255-.081-.254-.082-.254-.084-.254-.084-.254-.087-.254-.087-.254-.089-.254-.09-.255-.092-.254-.092-.254-.094-.255-.095-.254-.097-.254-.097-.254-.099-.254-.1-.255-.101-.254-.102-.254-.104-.254-.104-.254-.106-.255-.108-.254-.108-.254-.11-.254-.111-.254-.113-.254-.115-.255-.115-.254-.117-.254-.118-.254-.12-.254-.121-.254-.124-.255-.125-.254-.128-.254-.129-.254-.131-.254-.135-.255-.054-.102-.086-.152-.149-.254-.158-.254a12 12 0 0 0-.939-1.272 12.3 12.3 0 0 0-1.546-1.524 12 12 0 0 0-.65-.509 15 15 0 0 0-1.151-.763 15 15 0 0 0-1.441-.762 17 17 0 0 0-1.924-.763 19 19 0 0 0-1.846-.508 20 20 0 0 0-1.36-.254c-1.973-.297-3.875-.279-5.453 0a12 12 0 0 0-1.114.254c-.278.085-.413.167-.338.254.062.072.262.146.637.23l.054.024a9 9 0 0 1 1.015.509 8.2 8.2 0 0 1 1.634 1.27 8 8 0 0 1 .462.509 10 10 0 0 1 .58.763 11 11 0 0 1 .621 1.017 16 16 0 0 1 .388.762q.06.127.118.255.058.126.114.254l.109.254.207.508.098.254.096.255q.047.126.092.254l.091.254.089.254.086.254.084.255.084.254.081.254.082.254.079.254.079.254.078.255.078.254.077.255.077.253.077.254.076.254.077.255.076.254.078.254.077.254.077.254.079.255.079.254.079.254.081.254.081.254.082.255.082.254.085.254.084.255.087.254.088.254.088.254.091.254.091.254.093.254.096.254.097.255.097.254.101.254.102.255.103.254.106.254.108.254.11.254.112.255.114.254.117.254.118.254.122.254.05.106.074.148a32 32 0 0 0 .262.509 16 16 0 0 0 .433.762 15 15 0 0 0 .483.763 15 15 0 0 0 .356.508q.093.13.189.255a14 14 0 0 0 .4.508 13 13 0 0 0 .436.508 20 20 0 0 0 .478.51 14 14 0 0 0 .52.507 14 14 0 0 0 .575.508 16 16 0 0 0 1.735 1.272 17 17 0 0 0 1.32.762 23 23 0 0 0 1.034.509 33 33 0 0 0 1.154.508l.593.254q.305.133.558.255.266.129.463.254.06.038.114.077.056-.036.108-.078.138-.109.254-.253a2 2 0 0 0 .173-.255q.07-.12.132-.254.056-.122.105-.254a5 5 0 0 0 .162-.508 8 8 0 0 0 .124-.509 15 15 0 0 0 .103-.508l.046-.254.046-.255.045-.254.045-.255.046-.254.047-.253.05-.255.053-.254.053-.239.003-.015q.028-.123.049-.255a5 5 0 0 0 .054-.508 7 7 0 0 0 .014-.508q0-.125-.006-.254" fill="#005fb1"/><path fill-rule="evenodd" clip-rule="evenodd" d="m108.793 52.146-.01-.018q-.072-.128-.139-.254a14 14 0 0 1-.258-.509l-.119-.254a14 14 0 0 1-.219-.508q-.053-.127-.103-.255l-.098-.254q-.048-.126-.093-.254l-.09-.254-.087-.254-.084-.254-.082-.254-.08-.255-.078-.254-.078-.254-.076-.254-.076-.255-.077-.254-.076-.254-.078-.254-.078-.254-.08-.255-.081-.254-.083-.254-.086-.255-.087-.254q-.044-.126-.091-.254l-.093-.254-.063-.166-.064-.167-.066-.167-.067-.167-.069-.167-.071-.167-.072-.166-.073-.167-.076-.167-.078-.167-.079-.167-.081-.166-.083-.167-.085-.167-.087-.167-.09-.167-.09-.167-.094-.167-.095-.166-.097-.167-.1-.167-.102-.167-.104-.167-.107-.167-.108-.167-.112-.166-.112-.167-.115-.166-.119-.167-.119-.167-.123-.167-.125-.167-.127-.167-.131-.166-.132-.167-.134-.167-.137-.167-.139-.167-.143-.166-.143-.167-.148-.167-.149-.167-.152-.167-.154-.166-.156-.167-.16-.167-.14-.146-.093-.02a11 11 0 0 0-1.021-.168 11.5 11.5 0 0 0-2.72 0q-.458.059-.902.167a6 6 0 0 0-.567.167q-.216.075-.424.167a5 5 0 0 0-.621.333 4 4 0 0 0-.444.334 3.5 3.5 0 0 0-.586.667 3.4 3.4 0 0 0-.395.834 4 4 0 0 0-.084.319l-.003.015a5 5 0 0 0-.08.5 5 5 0 0 0-.014.667q.005.084.013.167a4 4 0 0 0 .044.334q.016.083.035.167a4 4 0 0 0 .085.333 5 5 0 0 0 .33.835 7 7 0 0 0 .278.5 7 7 0 0 0 .465.667 9 9 0 0 0 .573.668 10 10 0 0 0 .416.42 13 13 0 0 0 .558.508 15 15 0 0 0 .953.764 20 20 0 0 0 1.088.762 31 31 0 0 0 2.568 1.525 44 44 0 0 0 1.468.763 66 66 0 0 0 1.582.762 74 74 0 0 0 1.681.763 163 163 0 0 0 1.768.762l.606.255.611.254.273.112c.417.163.402.07.31-.094" fill="#1f178d"/><path fill-rule="evenodd" clip-rule="evenodd" d="M97.795 64.713C82.189 83.988 70.434 114 70.434 114s-2.585-7.429-3.212-14.823c-.74-8.78 3.12-12.9 7.431-18.206 7.09-8.75 23.141-16.258 23.141-16.258" fill="url(#paint1_linear_63_12282)"/><path fill-rule="evenodd" clip-rule="evenodd" d="m71.614 14.017.018-.017c.303.733 10.761 25.904 25.43 40.54 0 0-11.402-2.043-23.439-12.87-2.934-2.626-6.418-10.5-5.523-14.73 1.222-5.748 3.345-12.397 3.514-12.923" fill="url(#paint2_linear_63_12282)"/><path fill-rule="evenodd" clip-rule="evenodd" d="M95.52 58.808c2.213.03 1.2.48.064.683-35.83 6.479-75.669 25.472-75.669 25.472s3.954-9.472 23.938-17.43c20.744-8.26 43.223-8.844 51.667-8.725" fill="url(#paint3_linear_63_12282)"/><path fill-rule="evenodd" clip-rule="evenodd" d="M125.78 95.224c5.036-7.601 6.584-17.8 1.149-24.428-5.972-7.29-19.044-7.601-23.312-4.545 15.383-.39 11.652 17.425 22.163 28.973" fill="url(#paint4_linear_63_12282)"/><path fill-rule="evenodd" clip-rule="evenodd" d="M131.456 26.997q.28.233.557.473c2.587 2.492 4.949 8.81 3.874 11.654-2.379 6.31-13.306 10.98-22.459 13.23-1.45.36-1.638-.144-.584-.886 10.05-8.548 16.586-20.803 16.914-22.781.29-1.756-.25-2.335.449-2.246.407.05.828.247 1.249.556" fill="url(#paint5_linear_63_12282)"/><path fill-rule="evenodd" clip-rule="evenodd" d="M113.892 59.174c-2.433.266-2.281-.584.153-1.167 9.174-2.182 33.288-6.218 45.114-.188 9.837 4.995 4.329 13.408 4.329 13.408s-1.203-3.824-9.057-7.572c-11.684-5.57-32.251-5.401-40.539-4.481" fill="url(#paint6_linear_63_12282)"/><path fill-rule="evenodd" clip-rule="evenodd" d="M110.603 28.32c-2.404.545-7.021 2.083-9.885 6.12-3.309 4.673.94 14.016 7.921 17.71-1.223-6.364 6.271-14.382 1.964-23.83" fill="url(#paint7_linear_63_12282)"/><defs><linearGradient id="paint0_linear_63_12282" x1="14.935" y1="21.674" x2="14.935" y2="102.901" gradientUnits="userSpaceOnUse"><stop stop-color="#12288b"/><stop offset="1" stop-color="#0097e4"/></linearGradient><linearGradient id="paint1_linear_63_12282" x1="67.131" y1="64.713" x2="67.131" y2="114" gradientUnits="userSpaceOnUse"><stop stop-color="#f4f900"/><stop offset="1" stop-color="#ffc800"/></linearGradient><linearGradient id="paint2_linear_63_12282" x1="67.957" y1="14" x2="67.957" y2="54.539" gradientUnits="userSpaceOnUse"><stop stop-color="#fcda00"/><stop offset="1" stop-color="#ebf95b"/></linearGradient><linearGradient id="paint3_linear_63_12282" x1="58.374" y1="45.712" x2="42.416" y2="92.617" gradientUnits="userSpaceOnUse"><stop stop-color="#fafb19"/><stop offset="1" stop-color="#f1d000"/></linearGradient><linearGradient id="paint4_linear_63_12282" x1="103.617" y1="64.424" x2="103.617" y2="95.224" gradientUnits="userSpaceOnUse"><stop stop-color="#e9f648"/><stop offset="1" stop-color="#faca00"/></linearGradient><linearGradient id="paint5_linear_63_12282" x1="112.175" y1="26.433" x2="112.175" y2="52.473" gradientUnits="userSpaceOnUse"><stop stop-color="#ffdf00"/><stop offset="1" stop-color="#f3fe2d"/></linearGradient><linearGradient id="paint6_linear_63_12282" x1="112.141" y1="68.738" x2="165.025" y2="68.738" gradientUnits="userSpaceOnUse"><stop stop-color="#f5ff3e"/><stop offset="1" stop-color="#eec700"/></linearGradient><linearGradient id="paint7_linear_63_12282" x1="99.575" y1="28.321" x2="99.575" y2="52.151" gradientUnits="userSpaceOnUse"><stop stop-color="#f7e900"/><stop offset="1" stop-color="#f9fd00"/></linearGradient></defs></svg>