<svg width="666" height="128" fill="none" xmlns="http://www.w3.org/2000/svg"><path d="M329.659 88.37c-.162 0-.259-.103-.326-.327-5.704-28.795 8.312-57.591 32.841-71.133-2.363-2.61-4.564-6.852-2.689-12.562.081-.163.244-.244.489-.326.244-.081.407.082.57.163 1.793 1.877 6.601 6.2 12.631 7.913 13.364-3.834 28.277-2.691 30.803 2.773 2.852 6.037-7.008 16.478-19.394 23.657-1.875 3.181-3.586 8.076-3.26 14.683a.61.61 0 0 1-.407.571c-.163.082-.408.082-.652 0-2.038-1.223-5.786-4.079-6.112-10.278-.326.081-.571.244-.897.326-15.809 5.629-38.219 19.007-43.189 43.805-.065.28 0 .695-.408.734" fill="#f45d3d"/><path d="M336.997 76.52c.081-.25.243-.333.486-.333s.243.333.243.416c-.163 9.57 5.343 23.382 22.504 26.378 0 0 .648.083.648.5 0 .166-.162.249-.324.416-.486.332-3.076 1.081-3.885 1.414-2.025.832-4.939 2.413-5.748 5.076-.648 1.914-.405 4.244.89 6.656a33.2 33.2 0 0 0 4.858 6.076c.161.166.323.415.161.665-.162.249-.404.249-.567.166-11.495-2.746-30.195-22.3-19.266-47.43" fill="#ffc200"/><path d="M483.482 67.75c.081 0 .732.243.488.89a19 19 0 0 1-1.383 2.108H501.7c.407.08 1.139.324 1.139 1.54v2.593c-3.253 3.809-7.32 6.89-11.305 8.915 2.278.73 7.157 1.945 13.745 3 .326.08.489.323.57.485v2.431c0 .244-.163.65-.814.487-8.377-.892-14.965-2.188-19.682-3.809-4.717 1.62-11.224 2.917-19.439 3.809-.894.162-.894-.648-.976-.648v-2.189c.081-.243.244-.486.651-.648.407-.081.895-.081 1.545-.162 5.612-.892 9.76-2.027 11.712-2.837-2.521-1.377-5.205-3.242-7.401-5.187-1.535.417-3.189.715-5.014.996-.597 4.782-1.854 8.736-3.87 11.959 3.147 3.198 4.721 7.037 4.721 11.596q.009.444 0 .872c1.471-1.837 2.322-4.313 2.618-7.43h5.531s.813.081.813.972l-.325 1.945h6.181v-4.215h-9.924c-.324 0-.65-.323-.65-.728v-2.189a.64.64 0 0 1 .65-.648h27.247c.406 0 .732.243.732.648v2.189a.73.73 0 0 1-.732.729h-9.76v4.215h12.769a.64.64 0 0 1 .651.648v2.35a.64.64 0 0 1-.651.648h-12.769v4.782h11.793a.64.64 0 0 1 .651.648v2.189c0 .405-.244.648-.651.648h-11.793v4.944h16.266c.407 0 .733.244.733.648v2.189a.64.64 0 0 1-.652.648h-42.292a.64.64 0 0 1-.651-.648v-2.189c0-.405.244-.729.651-.729h18.381v-4.944h-11.468c-.407 0-.732-.244-.732-.648v-2.189c0-.324.325-.648.732-.648h11.468v-4.781h-8.133c-1.386 2.453-4.009 4.835-7.938 6.388-1.712 3.193-5.167 4.748-10.341 4.643v-5.199c3.809.081 5.632-1.999 5.466-6.398 0-3.839-1.656-7.358-4.969-10.717 2.485-3.999 3.809-8.957 3.809-15.035h-5.217v44.467c-.082.56-.331 1.28-1.49 1.359v.08h-5.135c-1.159-.08-1.408-.799-1.49-1.359V73.328c.082-.56.331-1.28 1.49-1.36h17.391c.331 0 1.076.32 1.159 1.44l.001 2.452c4.416-1.608 7.584-4.312 9.378-8.11zm95.962 33.663c.406 0 .731.24.731.641v2.161c0 .4-.325.721-.731.721h-9.259c-.732-.081-1.382.8-.813 1.601 3.331 4.563 7.554 10.087 10.885 14.65h-9.828l-12.916-17.372c-.649-.721-.243-2.402 1.3-2.402zm-172.47-6.007c1.061.083 1.387 1.084 1.551 1.584v16.599c.163 5.255-2.938 7.757-9.221 7.59h-6.202c-.571-.083-.816-.5-.816-.917v-3.086c0-.501.326-.834.816-.918h2.937c2.53.167 3.672-.751 3.509-2.836V96.907c0-.584.245-1.501 1.633-1.501zm133.969-9.844c.324 0 .65.32.731.56v2.162c0 .4-.244.72-.649.72h-6.58v9.687h6.579c.325 0 .65.24.65.64v2.162c0 .32-.244.641-.649.641h-6.58v13.769c-.081.801.731 1.521 1.462 1.521h5.199q.365.12.487.481v2.561c-.081.321-.325.561-.65.561H530.14c-2.68.08-5.117-2.241-5.117-5.044v-13.77h-5.443c-.405 0-.73-.239-.73-.64v-2.161c0-.32.325-.64.73-.64h5.443v-9.687h-5.443c-.324 0-.649-.32-.649-.72v-2.162c0-.32.244-.64.649-.64zm34.285-16.407c4.306.309 4.986 4.123 5.027 4.444l.002.02v17.3c0 2.79-2.556 5.103-5.277 5.023h-21.926v18.734c0 .798.824 1.515 1.567 1.515h4.533c.33 0 .66.319.66.718v2.153c0 .398-.247.717-.659.717h-10.304c-2.721.08-5.359-2.232-5.276-5.023v-42.89c0-2.6 2.806-2.706 3.035-2.71zm76.475 11.68c.412 0 .742.245.742.817v2.209c0 .408-.33.735-.742.735h-5.683v27.97c-.247 7.933-10.79 7.197-10.79 7.197h-11.038c-.494-.081-.659-.655-.659-.655v-3.189c.082-.573.494-.654.741-.654.082 0 5.766-.164 7.496-.409 4.118-.572 4.777-3.272 4.86-4.743v-25.68h-23.146c-.329 0-.659-.328-.659-.736v-2.209c0-.327.247-.654.659-.654zm-44.725 1.226c1.647.164 1.647 1.8 1.4 2.29l-2.966 3.598v30.342c-.164 1.308-1.482 1.39-1.482 1.39h-6.506c-1.153 0-1.401-.818-1.483-1.308V94.246h-4.942c-1.071-.163-1.73-1.39-1.153-2.371l6.672-8.014c1.071-1.146 2.388-1.8 4.036-1.8zm-195.271 24.021 19.013 6.673c1.061.417.98 1.334.897 1.417v4.255c0 .25-.163.917-1.142.751l-18.768-6.84c-.571-.25-.816-.667-.898-.918v-4.587c.163-.668.572-.751.898-.751m-16.467-.669c.324-.08.969.082.969.726v4.271c-.081.242-.242.645-.807.968l-19.946 6.044c-.975.149-1.045-.813-1.049-.951l-.001-3.805s-.081-.805.888-1.208zm10.821-38.601c.484 0 .888.322.888.805v3.144h22.772c.404 0 .808.322.808.805v2.66a.81.81 0 0 1-.808.806h-22.772v3.626h20.592c.484 0 .808.322.808.806v2.578a.81.81 0 0 1-.808.807h-20.592v3.868h25.438c.484 0 .887.403.565.725v2.66a.81.81 0 0 1-.808.805h-15.907l-.163.082c3.311 3.062 8.561 5.64 15.829 7.736.888.322.807 1.128.807 1.128v2.502c-.002.073-.042 1.116-1.211.882-2.02-.402-3.553-.805-6.864-1.772-1.293-.403-2.1-.645-2.665-.887-.565 1.209-1.373 2.498-2.585 3.868-.322.323-.726.484-1.534.484h-5.494c-.051-.001-.629-.031-.319-.725 1.614-2.337 2.745-4.594 3.23-6.77-2.989-1.612-5.895-3.788-8.561-6.366h-8.075c-2.18 2.176-5.168 4.11-9.124 5.963.484 2.096 1.776 4.755 3.31 7.253.242.404.081.726-.403.726h-5.25c-.888 0-1.211-.242-1.453-.403-1.373-1.451-2.342-3.063-2.826-4.835-1.616.564-4.199 1.531-7.753 2.74l-2.422.805c-.808.162-1.049-.483-1.049-.725v-2.82c.08-.323.241-.726.968-.968q10.54-3.626 15.989-7.736l-.323-.08H372.55a.81.81 0 0 1-.808-.806v-2.66c0-.403.323-.806.808-.806h25.194V82.85h-20.591c-.404 0-.808-.403-.808-.806v-2.579c0-.484.404-.805.808-.805h20.591v-3.627h-22.772a.81.81 0 0 1-.807-.806v-2.66c0-.403.323-.805.807-.805h22.853v-3.143c0-.484.323-.806.807-.806zm164.799 17.57h-17.806v8.052h16.239c.742 0 1.567-.717 1.567-1.435zm-43.195-15.147c.33 0 1.072.24 1.236 1.196l-.577 3.348h11.458c.412 0 .742.24.742.638v2.153c0 .318-.329.637-.742.637h-12.199c-.248 1.993-1.567 4.066-4.287 4.544 0 .08-5.358 0-5.853.16v-3.588h.495c.66 0 1.237-.478 1.401-1.116l1.237-7.972zm-34.261 5.079h-14.07c-.976.81-2.44 1.945-3.497 2.35h3.253c1.383 1.378 3.497 2.837 6.182 4.377 3.09-1.702 5.774-4.296 8.133-6.727zm77.456-1.65h-17.806v8.13h17.806zm36.118-4.915c1.647.164 1.647 1.8 1.317 2.29l-6.342 7.524c-.905 1.472-2.718 2.372-4.53 2.29h-6.425c-1.071-.082-1.729-1.308-1.153-2.29l6.672-8.015c1.071-1.144 2.389-1.799 4.036-1.799zm44.725 0c.412 0 .742.328.742.736v2.208c0 .328-.33.655-.742.655h-33.77c-.412 0-.741-.328-.659-.655v-2.208c0-.409.247-.736.659-.736zm-359.959 1.408c7.233 0 13.716 3.316 18.094 8.555l-6.209 5.38c-2.94-3.965-7.275-6.601-11.886-6.601-8.287 0-15.345 8.52-15.345 17.959s7.739 17.089 16.027 17.089c4.349 0 8.266-2.106 11.007-5.473v-6.775h-9.984v-6.836h9.984v-.011h6.821v16.842h-.018l.018.024c-4.377 5.532-11.043 9.066-18.51 9.066-13.185 0-22.509-11.018-22.509-24.61s9.324-24.61 22.509-24.61zM186.7 69.84c12.431 0 22.509 10.712 22.509 23.926s-10.078 23.927-22.509 23.927-22.51-10.713-22.51-23.927S174.268 69.84 186.7 69.84m-131.709.206v5.747H37.715v41.666h-5.993V75.793H14v-5.747zm21.53 0 18.852 47.413h-7.578l-5.544-13.75H63.192l-4.914 13.75H50.33l18.802-47.413zm32.073 0v47.413h-6.835V70.046h6.836zm29.347 0v40.57h24.116v6.843h-31.14V70.046zm88.302 0 25.708 36.015V70.046h7.062v47.413h-7.062l-25.708-36.034v36.034h-6.242V70.046zM186.7 77.36c-7.911 0-14.324 7.345-14.324 16.406s6.413 16.407 14.324 16.407 14.323-7.346 14.323-16.407S194.611 77.36 186.7 77.36M72.85 78.869l-7.422 18.836h14.87z" fill="#4b086a"/></svg>