<svg width="706" height="128" fill="none" xmlns="http://www.w3.org/2000/svg"><path d="M190.811 99.515h4.186v8.97c-.2 3.588-2.99 5.382-8.306 5.515-5.449-.133-8.239-1.927-8.372-5.515v-8.97h4.186v7.841c-.266 3.189 1.129 4.717 4.252 4.585q4.486.198 4.186-4.585zm13.289 2.392v3.788h3.455c1.86 0 2.857-.665 2.923-1.994-.066-1.196-1.063-1.794-2.923-1.794zm0 6.113v5.781h-4.12V99.515h8.106c4.386.133 6.578 1.329 6.645 3.721-.067 1.861-1.396 3.057-3.92 3.522v.066c1.86.133 2.99 1.196 3.455 3.19 0 .133.066.332.133.465.132 1.794.465 2.923 1.063 3.388h-4.452c-.399-1.262-.665-2.524-.731-3.853-.199-1.263-.797-1.861-1.794-1.861h-4.452zm27.774-8.505h4.186v8.97c-.2 3.588-2.99 5.382-8.306 5.515-5.448-.133-8.239-1.927-8.372-5.515v-9.036h4.186v7.84c-.266 3.19 1.13 4.718 4.252 4.585q4.486.2 4.187-4.585zm26.91 1.994-5.382 12.292h-3.455l-5.117-12.292-.132.066v12.226h-3.854V99.515h6.777l4.053 10.432h.133l4.386-10.432h6.445v14.286h-3.854zm17.342 10.365q4.784 0 4.784-5.183c0-3.521-1.594-5.315-4.784-5.315-3.322 0-4.917 1.727-4.85 5.315 0 3.456 1.594 5.183 4.85 5.183m10.1-.332v2.259h-8.04c-.332 0-.598 0-.93.066h-.598c-.133.067-.266.067-.399.067-6.046-.133-9.037-2.525-9.169-7.309q.199-7.277 9.169-7.575c5.914.133 8.904 2.658 9.169 7.575-.199 1.993-1.196 3.787-2.79 5.05.398 0 .731 0 1.129-.067.399 0 .864 0 1.263-.066zm3.322 2.259V99.515h4.186v14.286zm29.967-9.701h-4.386c-.132-1.728-1.395-2.591-3.72-2.724-2.26.133-3.522 1.86-3.655 5.315.133 3.389 1.329 5.183 3.655 5.183s3.588-.93 3.72-2.724h4.386c-.266 3.189-2.99 4.784-8.106 4.784-5.183-.133-7.841-2.525-7.974-7.309q.2-7.277 7.974-7.575c5.182.2 7.84 1.861 8.106 5.05m3.787 9.701V99.515h4.186v14.286zm7.442-11.894v-2.392h15.482v2.392h-5.714v11.894h-4.12v-11.894zm24.12 11.894v-4.651l-6.512-9.635h4.851l3.92 6.578 4.053-6.578h4.12l-6.379 9.701v4.651zm35.083-9.635h-4.386c-.132-1.727-1.395-2.591-3.721-2.724-2.259.133-3.521 1.861-3.654 5.316.133 3.389 1.329 5.183 3.654 5.183s3.589-.931 3.721-2.725h4.386c-.266 3.19-2.99 4.784-8.107 4.784-5.182-.133-7.84-2.525-7.973-7.309q.2-7.275 7.973-7.574c5.117.132 7.775 1.794 8.107 5.049m12.359 9.768c-6.047-.133-9.103-2.525-9.17-7.309q.2-7.277 9.17-7.575c5.913.133 8.837 2.658 9.103 7.575-.133 4.784-3.19 7.242-9.103 7.309m0-12.492c-3.323 0-4.917 1.728-4.851 5.316-.066 3.521 1.528 5.249 4.851 5.183q4.784 0 4.784-5.183c0-3.588-1.595-5.316-4.784-5.316m31.029.067-5.382 12.292h-3.322l-5.116-12.292-.133.066v12.226h-3.854V99.515h6.778l4.053 10.432h.133l4.385-10.432h6.379v14.286h-3.854v-12.226zm26.446 0-5.382 12.292h-3.456l-5.049-12.292-.133.066v12.226h-3.854V99.515h6.777l4.053 10.432h.133l4.386-10.432h6.445v14.286h-3.854zm8.638 12.292V99.515h12.823v2.392h-8.637v3.323h8.106v2.392h-8.173v3.787h8.97v2.392zm21.661-11.894v3.788h3.455c1.86 0 2.857-.665 2.923-1.994-.066-1.196-1.063-1.794-2.923-1.794zm0 6.18v5.78h-4.12V99.582h8.106c4.386.133 6.578 1.329 6.645 3.721-.067 1.86-1.395 3.056-3.92 3.521v.067c1.86.133 2.99 1.196 3.455 3.189 0 .133.066.332.133.465.133 1.794.465 2.924 1.063 3.389h-4.386c-.398-1.263-.664-2.525-.73-3.854-.2-1.262-.798-1.86-1.795-1.86zm30.365-3.921h-4.385c-.133-1.727-1.396-2.591-3.721-2.724-2.259.133-3.522 1.861-3.655 5.316.133 3.389 1.329 5.183 3.655 5.183s3.588-.931 3.721-2.725h4.385c-.266 3.19-2.99 4.784-8.106 4.784-5.183-.133-7.841-2.525-7.974-7.309q.2-7.275 7.974-7.574c5.116.132 7.774 1.794 8.106 5.049m3.721 9.635V99.515h4.186v14.286zm11.362 0h-3.92l6.977-14.286h4.85l6.778 14.286h-4.12l-1.462-3.056h-7.575zm2.525-5.382h5.515l-2.591-6.113h-.133zm27.907 5.382h-12.292V99.515h4.053v11.894h8.305zm13.754-2.392h3.19c2.259.133 3.388-.532 3.322-1.86.066-1.329-1.063-1.994-3.322-1.927h-3.19zm0-6.179h3.19c1.727 0 2.657-.532 2.724-1.662-.067-1.129-.997-1.727-2.724-1.727h-3.19zm3.123 8.571h-7.176V99.515h7.176c4.452 0 6.778 1.263 6.977 3.721-.067 1.528-1.196 2.525-3.455 3.123v.067c2.724.598 4.119 1.794 4.252 3.721-.266 2.325-2.923 3.521-7.774 3.654m14.219 0h-3.92l6.977-14.286h4.85l6.778 14.286h-4.12l-1.462-3.056h-7.574zm2.525-5.382h5.515l-2.591-6.113h-.133zm32.824 5.382h-5.913l-7.442-11.894-.133.067v11.827h-3.854V99.515h6.113l7.243 11.296.132-.066v-11.23h3.854zm8.904-14.286v6.246l6.445-6.246h4.784l-7.043 6.445 7.708 7.907h-5.117l-6.777-7.309v7.309h-4.186V99.515z" fill="#1b1918"/><path d="M57.589 19.58c9.368-2.325 19.269-1.13 27.84 3.323a45.4 45.4 0 0 0-21.13.199c-21.461 5.183-34.351 25.315-28.77 44.917a32.1 32.1 0 0 0 4.917 9.9c-4.32-4.186-7.442-9.369-9.037-15.15-5.581-18.936 6.18-38.338 26.18-43.189m23.388 68.771c-3.588 2.126-7.508 3.654-11.561 4.585-21.196 4.784-43.19-7.509-48.97-27.509-5.449-18.073 4.452-36.544 22.126-43.255-12.824 8.305-19.203 24.186-14.684 39.933C33.8 82.172 55.263 94.73 75.595 89.945c1.794-.398 3.655-.93 5.382-1.594m-66.046-33.82c3.389 52.89 74.086 55.681 83.123 13.023 5.714-26.113-26.18-48.771-53.223-28.107 16.213-21.66 51.695-18.538 63.522 5.715 1.063 2.126 1.927 4.385 2.658 6.644.996 3.721 1.594 7.509 1.727 11.296v.598c0 1.329-.133 2.658-.332 3.987-1.528 16.677-13.09 31.561-30.233 38.006a5.2 5.2 0 0 0-1.063.465h-.133a5 5 0 0 1-1.063.465h-.133C46.094 117.52 7.49 91.607 14.931 54.531" fill="#005da9"/><path d="M66.226 38.119c13.688 0 24.984 10.565 24.984 23.522S79.98 85.029 66.226 85.029c-13.887 0-25.116-10.432-25.116-23.388s11.296-23.522 25.116-23.522m0 34.086 12.16-10.564-12.16-10.831-12.16 10.764z" fill="#f8a600"/><path d="M571.809 29.548c-.532-.066-3.123.2-3.987 0-.532 4.053-5.581 9.037-10.897 5.316 4.518-.332 7.774-1.728 9.635-4.12l-.399-.73c-6.445 2.59-2.193-12.957 1.794-3.854 2.06.066 1.727-.067 5.05-.067v.067c1.329-.067 3.056.066 4.385-.133-.332-.731-.731-1.529-1.063-2.326.332-.797.797-1.595 1.395-2.26h.266c2.392 2.725.93 9.303-6.179 8.107m-6.512-4.053c-.664-.997-2.99 1.329.067.997 0-.266-.067-.598-.067-.997m-37.475 1.13h1.262c2.99-10.166 12.492 5.448-2.99 3.388v-.465c-2.591-.398-2.525 1.13-5.382-.996 0-.067-.066-.067-.066-.133-1.063 1.927-8.505 1.196-10.498 1.328v.067c-1.263.133-5.25-.266-6.512.2 13.887 2.192-17.143 15.348-5.249-3.655h.266c-5.183 6.246.199 10.83 7.309 6.578-6.113.864-2.924-7.774 3.322-6.312v-.067h10.299c.066-.066.133-.066.199-.133-1.595-.398-4.85-4.585-6.711-1.528 1.661-5.914 7.641-.598 11.362 1.595 1.13-.067 2.193-.133 3.323-.067zm-54.618 3.388c-2.591-.598-4.385 1.462-6.046-1.329-5.183.598-5.848-2.325-.399-6.976.133-.93.332-1.396 1.528-2.791h.332c-1.993 9.17 4.984 10.232 8.771 5.78.266.333-.199.532.93 1.994h1.794c.465-.598.864-1.196 1.13-1.927.199.332-.266.465.797 1.86h2.326c.997-.93-2.592-.93.266-5.249h.199c1.528 1.86.598 12.758-4.651 7.31a8.5 8.5 0 0 1-.864 1.262c-.465-.465-1.595 1.528-2.924-1.595-.199.532-.93 1.927-3.189 1.661m-25.05-3.388v-.333h2.326l2.259-3.787c-.465-.532.066-.93.93-2.326 11.229 3.721 5.515 11.23-4.784 9.37v.398c-2.591-.598-4.385 1.462-6.046-1.33-5.183.599-5.848-2.325-.399-6.976.133-.93.332-1.395 1.528-2.79h.332c.466 4.65-1.993 8.704 3.854 7.774m-32.491 2.99v.398c-2.326-.465-4.585 1.263-6.246-1.462-.465 1.197-2.259 1.728-4.053 1.462v-.465c-1.994-.2-1.927.665-4.452-.531-.067.066-.067.133-.532.531-4.651-.531-20.465 3.389-13.222-7.508.066.664-.731 1.528-.665 3.123 21.196 5.448 8.439-4.452 14.817-11.097v11.96c.067.067 0 0 .2.067 0-.066 0-.066-.067-.066 1.728.598 2.725.199 6.113.265v.333c1.927.066 1.528.465 2.924-2.392.199 1.528 2.325 2.923 4.585 2.325v-.266c8.637 1.794 4.186-5.448 5.249-9.302l1.727-2.99c-.531 4.983 2.725 17.608-6.378 15.548zm-55.416-.067c-.199-.066-1.794.2-2.79 0-.665 3.92-5.715 8.372-10.831 4.85 4.518-.332 7.774-1.727 9.635-4.053l-.399-.73c-6.844 2.591-1.794-13.223 1.86-3.455 2.06.066 1.728-.067 5.117-.067v.399c.93-.2 1.063.797 2.392-1.994.265.333-.2.532.93 1.994h1.794a8 8 0 0 0 1.129-1.927c.2.332-.265.465.798 1.86h2.259c.066-.996.133.332-.997-2.99.332-.531-.332.2 1.263-2.259h.199c1.528 1.86.598 12.758-4.651 7.309a8.5 8.5 0 0 1-.864 1.262c-.531-.465-1.595 1.529-2.923-1.66-.2.996-1.927 1.993-3.987 1.66zm-5.249-3.322c0-.266-.066-.665-.066-1.063-.665-.93-2.924 1.395.066 1.063m-38.737 0c1.661-.133 1.86.332 4.318-.332-.066-.731-.066.332-.996-2.791.332-.532-.133 0 1.661-2.525 5.714 13.023-20.399 13.688-9.701-5.78.598 4.119-2.591 13.62 4.718 11.428m-16.014.066c2.127-.133.465.266 3.921-.265-.067-.731-.067.332-.997-2.791.531-.864 1.063-1.728 1.661-2.525 2.06 2.924.199 10.498-5.847 8.904v-.133c-2.525-.532-3.92 1.528-6.113-1.728-1.063 2.924-9.9 2.126-12.359 2.193v-.067c-1.86-.465-1.462 1.196-3.787-1.528-.532 1.329-2.99 2.459-4.053-.2-.2 1.064-1.861 3.057-3.721.532-.665.997-1.529 1.462-3.256 1.263v-.133c-1.263.133-4.319-.266-5.648.2 13.887 2.192-17.143 15.348-5.249-3.655h.266c-5.183 6.246.199 10.83 7.309 6.578-6.778.598-2.127-8.106 4.186-6.312v-.133c.996-.266 1.86.93 3.588-1.794 0 1.196 2.724 3.322 3.787.066.133 1.063 3.123 3.455 3.92-.066.266.664 1.861 2.325 3.987 1.86v.133c3.322-.133 7.242.266 10.831-.2 0-.265-.067-.597-.067-.996-12.093.332-14.352-2.658-.066-7.442l.265.067c-.265.465-.664 1.262-1.262 2.259 0-.133-.067-.2-.133-.266-16.678 6.379 3.522.332 2.857 6.047h.133s0-.067-.066-.067c.465.266 1.461.332 2.724.332.199-.133.93-.265 3.189-.133m5.382-9.236-1.594 1.794-1.861-1.926 1.528-1.794zm14.419 16.479-1.661 1.794-1.861-1.86 1.595-1.795zm13.488-7.31v-8.903l1.661-2.591c-.332 3.654 1.064 12.226-1.661 15.216-.066-1.661.133-1.063 0-3.721m12.293-1.66c.066.598-.798 2.458-1.661 3.72-1.927 1.861-10.034 3.057-6.579-4.185-.664 2.392 4.386 2.79 6.645 1.727-.864-.864-2.924-4.784-5.116-2.259.066-3.256 5.382-4.917 6.711.997m51.162-2.26c.466 1.263-4.85 1.861-7.574 1.662l-.133-.133c0-.067.133-.2.398-.465 2.26-.133 2.06.066 4.851-.2.532.266-8.704-1.993 2.126-3.455-.398.333-.398.399-3.189.997.266.797 1.063-.93 3.521 1.595m36.745 6.91c-.266 4.187-5.515 8.772-10.698 5.317 4.319-.333 7.442-1.662 9.568-4.054l-1.395-4.65c0-.2.664-1.728 1.196-2.791.465 1.13 1.063 1.993 1.329 6.179m8.837-4.517c0-.333.066-.266-.133-1.927-.797.2-3.123 2.591.133 1.927m12.425 1.66c.864-2.923-7.242-1.461 0 .067zm3.389-.331c-.266-.2.531-.333-1.528-1.396a7.7 7.7 0 0 0-.598 1.595h2.126l.066-.066c-.066 0-.066-.067-.066-.133m8.505-1.33c0-.332.066-.265-.133-1.926-.797.2-3.123 2.591.133 1.927m13.289-5.182-1.329 1.927-2.259-1.728 1.395-1.927zm1.329-3.123-1.396 1.993-2.259-1.727 1.462-1.927zm2.657 2.857-1.395 1.994-2.325-1.728 1.461-1.927zm31.628 13.29-1.661 1.727-1.86-1.86 1.595-1.795zm2.193 3.122-1.661 1.728-1.927-1.86 1.595-1.795zm1.595-2.924-1.661 1.728-1.861-1.86 1.595-1.794zm13.222-6.445c0-.531-2.857-2.458-2.525.2.067-.133 1.994.265 2.525-.2m11.363 3.655c-4.054 2.192-4.984-7.575.265-6.379 5.183 4.518-2.192 16.545-9.501 11.096 4.518-.332 7.774-1.727 9.634-4.12zm-.266-3.455c0-.133-1.462-2.525-2.392-.465.266.664 1.196.398 2.392.465m.531-8.838c0 .532-.465 1.86-1.329 3.854-1.129-.133-1.727-8.172 1.329-3.854m12.16 11.496c-.266 4.186-5.515 8.77-10.698 5.315 4.319-.332 7.508-1.661 9.635-4.053l-1.396-4.651c0-.2.665-1.728 1.196-2.79.399 1.129.931 2.059 1.263 6.179m9.967-11.495c0 .531-.466 1.86-1.329 3.853-1.064-.199-1.728-8.172 1.329-3.854m15.481-.599c-.332 2.193-6.246 4.585-9.435 4.452a9.7 9.7 0 0 0 2.525-1.196c-.399-.265.066.266-1.728-.93-1.196-2.126 9.834-6.578 4.917-1.728-1.063.067-.731-.73-3.056.2v.133c1.794.864 3.455.93 6.777-.93M216.925 85.23h1.993v.665h-1.993zm-27.309-16.877-.133-.133c-.598-.133-1.129-.133-1.727-.133-.466.067-.931.266-1.263.665-.598 0-1.262 0-1.86-.133-.665-.133-1.13-.2-1.595-.332-.465-.133-.465-.2-.598-.2v-.066c-.465-.2-.997-.399-1.528-.598-.465-.133-.931-.2-1.396-.332a8.6 8.6 0 0 1-2.923-.333c-.665-.066-1.263-.265-1.861-.465h-.133a12.5 12.5 0 0 0-4.451-.199c-1.196 0-3.721.532-5.648 0h-.133c-1.263-.266-2.525-.332-3.787-.133h-.133a33 33 0 0 0-5.648 1.263c-1.13.066-1.794.465-3.256 0-.133-.266-.332-.133-.066-1.529.465-.73.73-1.528.93-2.392.332-.93.531-1.86.598-2.857h-.133c-.133-.864 0-1.727.332-2.525a3.13 3.13 0 0 1 1.595-1.727c1.262-.532 2.591-.93 3.92-1.263.731-.2 1.329-.2 1.794-.332l.199.066c.2-.066.333 0 .466.133 1.063-.066 2.79.2 3.853-.199 1.063 0 2.193.066 3.256.2 1.13.132 2.193.398 3.455.597.266.333.333.731.133 1.13-.664.664-1.462 1.13-2.325 1.462h-2.924c-.532.265-1.13.465-1.728.465-.797.2-3.255 0-4.85.465-.399 0-.731.066-1.063.2-.332.132-.665.199-.93.332-.266.132-.598.199-.931.332-.332 0-.598.2-.797.465a1.396 1.396 0 0 0 0 1.727c.266.266.598.465.93.598a8 8 0 0 0 3.455.997c.798.133 1.861.2 2.99.332 1.861.067 3.456.2 4.851.2 1.196-.067 2.392-.266 3.588-.465h.133c.465-.333.797-.665 1.262-.997s.731-.665 1.063-.997v-.133c.333-.332.532-.797.798-.996.266-.2.465-.399.664-.665l-.133-.332c.067.133.2.133.2 0 .133-.133.265-.399.465-.598.066-.2.199-.399.332-.598a.5.5 0 0 0 .133-.332c.797-1.196 1.661-2.06 2.325-2.99.665-.798 1.329-1.529 2.06-2.193.399-.532.665-1.196.665-1.86-.2-.532-.532-.997-1.063-1.263v-.066a4 4 0 0 0-1.263 0q-.698 0-1.395.199c-.598.066-1.13.133-1.728.2-.664-.134-1.329-.267-1.993-.466a9 9 0 0 1-1.861-.2 18 18 0 0 1-2.657-.198c-.532.066-1.064.066-1.529-.133-.465-.133-.863-.4-1.262-.665a7 7 0 0 1-1.395-1.395c-.466-.399-.864-.864-1.064-1.462l-.066-.066c-.93-.798-1.661-1.13-2.259-1.064-.598.067-1.263.466-1.595 1.396-.133.133.133 0-.398.531-.798.997-1.861 1.794-2.991 2.392a13.4 13.4 0 0 1-4.252 1.13c-2.06-.465-4.585-.133-7.375.664q-.3 0-.598.2a.64.64 0 0 0-.466.598c0 .066.067.2.133.265.133.266.399.333.598.466.2.133.598.199.931.332a14.4 14.4 0 0 1 1.594 1.927c.465.864.798 1.794.93 2.724 0 .73-.066 1.528-.199 2.26-.133.93-.399 1.926-.598 3.188a3.4 3.4 0 0 0-.93 1.728c-.266.665-.465 1.462-.465 2.193-.399 1.262-.465 2.458-1.661 3.92a1.9 1.9 0 0 0-.133 1.595c.199.531.598.93 1.063 1.13a.5.5 0 0 0 .332.132l.133.133c2.06.067 4.718-.332 7.907-.73h.133a15.5 15.5 0 0 1 2.525-.599c.797-.133 1.727-.2 2.525-.332.332.133 0 .066 1.129.133.266.133.665.133.931 0 .598 0 1.196-.133 1.727-.332 1.13-.067 2.06-.2 2.857-.2a5 5 0 0 1 1.994 0c.332.133.797.2 1.262.332.598.133 1.263.133 1.861.133.797.133 1.528.133 2.325.133.93.2 2.591 0 4.385.465.864.266 1.728.532 2.525.93.399.731.798 1.263-.133 2.99h.133c-1.993 2.858-3.787 4.918-5.78 6.047-1.661 1.13-3.655 1.661-5.648 1.462h-.133c-.864-.133-1.661-.133-2.525-.133-.797.133-1.728.133-2.525.332h-.133l-.598.598c.067.2-.266.598.598.997 1.661 1.063 4.319 1.661 7.11 2.06a6.1 6.1 0 0 0 2.193 0c.664-.067 1.262-.2 1.86-.465h.199v-.2c.333-.066.598-.133.931-.199.265-.133.531-.133.797-.133l.133-.133c1.262-.531 2.458-1.329 3.322-2.392 1.329-1.462 2.525-3.123 3.455-4.917a4.2 4.2 0 0 1 .93-1.462 19 19 0 0 1 2.193-2.391v-.133a8 8 0 0 0 1.395-1.595c.466-.465.798-.997 1.064-1.595-.067-.332.066-.664.332-.93.133-.2.266-.332.465-.465l.133-.133c.199-.864-.133-1.661-.864-2.06m501.993-8.239c0-.2-.133-.465-.066-.598-.133.066-.133-.399-.93-.066-.067.132-.133.265-.2.332a6 6 0 0 1-1.594.797c-.731.266-1.529.399-2.326.465a127 127 0 0 0-18.804 0h-.133c-.598.2-1.196.332-1.86.332q-1.496.3-2.99 0c-.2-.066-.133.067-.731-.332-1.728.133-3.987-.797-5.582.997-.664.73-1.461 3.056-1.661 4.717 0 .731.133 1.197.465 1.396.997.664 2.26.531 4.386 0 3.521-.598 7.176-1.396 10.897-1.196a3.36 3.36 0 0 1 1.528.598c.266.2.465.598.465.93.266 3.987.266 8.04 0 12.027 0 .465-.133 1.196-.133 1.86-.133.797-.133 1.528-.133 2.326.133.199.133.465.266.664v.465c.266.532.665.997 1.063 1.462.465.332.798.665 1.263.665l.199.132.133-.132c0-.133 0-.133.133-.133.066-.2.332-.133.93-.133.997-.532 1.728-1.529 1.993-2.658.466-1.462.665-3.057.466-4.585 0-1.528-.133-2.724-.133-3.787-.333-2.658.133-4.452.531-7.84.133-.466.465-.798.93-.931a7.7 7.7 0 0 1 2.459.2c1.262.664 2.724.797 4.053.265q.4 0 .797-.2c.333 0 .598-.132.798-.132a2 2 0 0 0 1.262-.93c.532-.798.93-1.661 1.263-2.525.199-.798.465-1.595.664-2.26s.399-1.328.465-2.06zm-487.176-4.319c2.326.332 4.984 0 8.04-.93 2.658-1.13 4.452-1.86 5.515-2.193h.067c0-.133.066-.133.199-.133 2.06-.598 4.053-1.395 5.98-2.259q.697-.698 4.186.2c.332.199.532-.067 2.06.398 0 .133-.266.332-.465.465-4.984 2.126-7.641 3.057-8.306 2.724a36 36 0 0 0-3.721.598v.067c-1.395.266-2.857.598-4.585.93a26.5 26.5 0 0 1-3.92 1.13 4.92 4.92 0 0 0-2.791 1.13c0 .464.466 1.129 1.396 2.06.598 1.062.93 2.856.93 5.514-.598 2.06 0 3.256 2.724 2.99 1.063-.399 2.127-.73 3.256-.93 1.063.133 1.661.133 1.861-.2a3.4 3.4 0 0 1 1.129-.199v-.066c1.993-.532 4.053-.731 6.18-.665h3.72c1.794-.133 3.655-.133 5.515-.133l.067.133c.731 0 1.395.067 2.126.067l.465.199c.798 0 1.528-.066 2.326-.2 1.395-.597 2.525-1.926 3.455-4.119.199-1.329.797-2.591 1.595-3.654l.465-.665c.465-.598.664-1.063.93-1.395.465-1.063 0-1.728-1.395-1.86-.333 0-1.13-.067-2.525-.2l-1.396-.2c-1.794-.332-3.787-.465-5.98-.664l-.066-.066h-1.13c0-.332.2-.532.665-.665.133.133.266.133.465 0 .531-.133.997-.332 1.395-.664.598-.465 1.329-.598 2.06-.465 1.063-.399 1.86-1.196 2.326-2.26-.931-1.993-3.323-.996-5.781-1.262-.532 0-1.13-.2-1.595-.465-.531-.664-4.585-.066-5.315-1.13-.864-.465-1.861-.664-2.791-.465-.465.333-1.263.399-2.06.997-.332.332-.531.465-.664.465-.931.532-1.927.864-2.99 1.13l-.067.066h-.399c-.797.2-1.594.532-2.325.93-1.196.532-2.459.798-3.721.93a6.9 6.9 0 0 0-2.326.2c-2.458.399-4.053.332-4.651-.598-.332-.598-.598-.73-.93-.598-.864.266-.465.864-.93 2.525-.332.797-.332 1.262-.2 1.395-.265 1.263.399 1.927 1.927 2.06m18.14 7.641c-1.861.332-3.389.598-4.651.797v.067c-2.392.2-4.319 1.462-6.18.997.133-.864.931-1.462 2.326-1.794.066 0 .664-.067 1.595-.2.797-.133 1.661-.199 2.325-.332v-.066a24 24 0 0 0 2.99-.598 8 8 0 0 1 2.525 0c.199.797 0 1.13-.93 1.13m.531-4.784c-1.727.2-3.388.532-5.116.93v.067a56 56 0 0 0-4.385 1.395c-.665.133-.997.133-1.13 0-.332-.133-.332-.465 0-.93a18.2 18.2 0 0 1 5.515-1.927v-.066a40 40 0 0 1 5.582-.598c.132.265.199.598.199.93-.199.332-.399.332-.665.2m14.685 4.917h-4.386l-.066-.133h-6.445c-.332-.066-.332-.531 0-1.13.199-.53.93-.797 2.06-.664 1.063.266 2.126.465 3.255.465h1.13l.066.067q.798.1 1.595-.2c1.13-.133 2.259 0 3.256.465.199.532.133.997-.465 1.13m-4.386-6.71.067.066c3.189 0 5.382.332 6.445.93 0 .465-.465.797-1.395 1.13h-5.117l-.066-.067h-.664c-1.595-.133-2.393-.332-2.525-.465h-2.525c-.598.2-1.13-.797 0-1.395h2.325c1.13-.2 2.326-.266 3.455-.2" fill="#1b1918"/><path d="M237.787 73.534c-.93.2-2.259.066-4.385-.2-.664-.132-1.13-.398-1.13-.332a2.8 2.8 0 0 0-2.059.2h-4.186a40.6 40.6 0 0 0-8.04.598v-.133c-.266 0-.465.066-.731.133-1.329.531-2.724.797-4.186.664-1.396.133-2.525.598-2.326 1.86.266.599.598.93.93.93a16.2 16.2 0 0 1-.199 7.974c-.797.864-.997 1.661-.664 2.26.265.93 1.196 1.262 2.79.93 1.396-.598 2.857-.997 4.386-1.396v-.066c.664-.067 1.329-.2 1.993-.2 1.728-.066 8.638-.465 9.302-.199 1.396-.066 2.791-.066 4.186.133.466.133.931.2 1.462.399 1.063.531 2.259.797 3.455.664a2.87 2.87 0 0 0 .665-2.525c-.465-.598-.665-2.192-.465-4.584 0-2.193.265-3.522.93-4.12.332-.465.532-.997.664-1.595-.398-.93-1.395-1.528-2.392-1.395m-2.99 9.634-1.395.2q-1.296.1-2.591-.2c-.798 0-1.529.067-2.326.2h-1.13c-2.259.266-5.182 0-9.435.864v.066c-.598.067-.93.2-1.063.2-.465.265-1.063.332-1.595.199-.265 0-.132-.2.2-.665.93-.93 1.661-1.462 2.325-1.594h.2v.066c.797-.066 1.594-.2 2.325-.465 3.256-.332 5.781-.465 7.641-.465a35.5 35.5 0 0 0 5.316 0c.067-.067.133-.133.199-.133v.066c.133-.133.266-.133.466-.133.465-.132.797.067 1.129.665s.199.997-.266 1.13m.665-5.714c0 .332-.2.465-.665.465-.465.133-.93.2-1.395.133v-.066c-2.126.2-4.319.2-6.445-.067-3.057 0-6.047.465-8.97 1.263v-.067c-.266 0-.333 0-.465.133-.731.332-1.13.332-1.396.2-.266-.133-.332-.466 0-.93.532-.4 1.196-.732 1.861-.997v.132c1.262-.465 2.79-.199 5.05-.797 1.063-.266 2.126-.398 3.255-.465l2.99.2c1.662.066 3.057.066 4.186.199h1.595c.399.066.532.332.399.664m-64.186 1.994c1.927-.665 3.521-1.927 4.651-3.655.133-.133.199-.332.332-.465v-.465c-.066-.266-.066-.332-.199-.465a1.34 1.34 0 0 0-.731-.2 10 10 0 0 1-4.851 0c-3.255-.465-6.511-.598-9.833-.465a9.5 9.5 0 0 0-1.927.2c-4.652.265-9.303.93-13.887 1.926h-.133a30 30 0 0 1-2.459.665 2.13 2.13 0 0 1-1.129-.133v-.133c-.532-.332-1.13-.332-1.728-.133-.532.332-.997.798-1.262 1.396v.066c-.266.731-.266 1.462-.133 2.193a3.74 3.74 0 0 0 1.129 1.727c.731.532 2.259.93 4.386.665 1.063-.067 2.059-.133 3.123-.332.996-.2 1.926-.466 2.923-.798 3.655-.531 7.376-.73 11.03-.797h3.721q3.588.299 6.977-.797M548.219 68.02c-.664.598-1.462.997-2.325 1.262-.2.067-.465.2-.665.333 0 .332-.465.332 0 1.395.2.067.465.133.665.2 1.727.332 3.123.265 4.252-.333.864-.332 1.661-.93 2.193-1.727l.598-.997c1.063-2.06 1.727-3.721 2.325-4.718.333-.531.399-1.395.798-1.395l.133-.133a50 50 0 0 0 2.059-2.99c.466-.864.864-1.728 1.13-2.658.399-1.66.598-3.986-2.193-3.521-.797.133-1.528.465-2.192.93-.731.465-1.329 1.063-1.861 1.727h-.133c-.265.731-.465 1.462-.664 2.193-.199.797-.332 1.595-.465 2.525.066.332 0 .664-.133.997-.067.332-.067.73-.332.93a89 89 0 0 1-1.13 2.06v.133a5.6 5.6 0 0 1-.332 1.13c-.067.199-.2.398-.332.597v.133a5.8 5.8 0 0 1-1.396 1.927m111.362-12.625c.465.333.997.598 1.595.665a18.2 18.2 0 0 0 4.651-.2c4.12-.199 8.505.133 12.891-.199.465 0 1.727-.2 2.79-.133a8.7 8.7 0 0 0 3.123-.797c.665-.332 1.13-.997 1.263-1.728v-.133a2.65 2.65 0 0 0-.598-1.395c-.266-.398-.598-.73-1.063-.93h-.266q-.399.2-.798.2c-.398-.134-.93-.267-1.528-.466-2.791-.133-6.179-.133-9.9 0-.93.133-1.927.133-2.857.133-.997-.133-1.927-.2-2.99-.332h-.465l-.266-.266c-1.861-.332-3.322-.2-4.253.399-1.129.531-1.86 1.594-1.993 2.857-.133.332-.133.73 0 1.063 0 .532.266.997.664 1.262m-20.93 1.662c.731 1.328 2.06 2.259 3.588 2.392 1.13 0 2.259-.266 3.256-.798.532-.398.997-.73 1.528-1.063h.133c.266-.2.598-.465 1.063-.797.332-.332.731-.731 1.13-.997.332-.133.664-.266.93-.465a8.7 8.7 0 0 0 2.658-3.322 3.11 3.11 0 0 0-.199-2.658l-.133-.133a2.8 2.8 0 0 0-2.06-.2 5 5 0 0 0-1.728 1.396c-1.063.664-2.192 1.196-3.322 1.728-.532.265-1.13.531-1.728.73-1.528.466-2.657.665-3.588.466-.531-.067-.731-.598-1.727-.133-.2 0-.332.2-.465.332V54c-.266.465-.266 1.063-.133 1.595.199.531.465 1.063.797 1.462m-119.335 5.98c.797.93 1.461 1.594 2.059 2.392.798 1.196.931 1.528 1.728 3.588.133.398.332.797.664 1.063a11.8 11.8 0 0 0 2.06 3.056c.133.133.2.332.332.465.133 0 .133.133.266.133.266.133.332.133.465 0 .266 0 .399-.266.598-.465.133-.266.2-.598.2-.93.398-4.784.664-9.635-2.06-13.156l-.133-.133a2.07 2.07 0 0 1-1.063-1.063c-.532-.665-.266-1.994-.731-3.322-.266-.333-.399-.599-.598-.798-.133 0-.266-.066-.266-.133-.531-.066-.398-.465-1.794 0h-.133c-1.329 1.063-2.192 2.592-2.525 4.253-.332 1.462 0 3.19.798 5.116zm-187.044-5.648c7.11-1.263 13.755-2.658 19.137-2.857v.133h.133c6.046-.067 13.156 1.594 19.667 1.794.864 0 1.661-.4 2.193-.997v-.133c.133-.2.266-.399.332-.598.133-.266 0-.465 0-.598-.133-.266-.133-.399-.332-.598-.266-.2-.532-.332-.797-.465a49 49 0 0 0-6.379-1.396c-2.591-.332-5.582-.797-8.97-1.13a7.8 7.8 0 0 1-1.595-.597c-.531-.266-1.063-.664-1.395-1.13a7.35 7.35 0 0 0-2.857-2.06c-.2-.132-.598-.265-.665-.199-1.129-.266-1.927.332-2.525 1.462v.133c-.066.864-.398 1.661-1.063 2.259-.465.598-1.329.797-2.458.797-.798-.133-1.595-.133-3.455.465-.466.067-.931.2-1.396.333-.465 0-.864.133-1.063.133-1.13-.266-2.326 0-3.322.664-.864.266-1.396.465-1.994.598-.531 0-.996 0-1.528-.133-.398-.332-.864-.465-1.395-.465-.532.133-1.063.332-1.528.665l-.133.132q-.1 1.695.797 3.19c.598.73 1.462.797 2.591.598m320.997.066a.6.6 0 0 1-.465-.2c-.399-.198-.93-.265-1.395-.198-.465 0-.864.265-1.063.664 0 .066-.067.133-.133.133v.133c-.133.398-.333.73-.665 1.063-.332.399-.797.797-1.262.997-1.196.73-2.06 1.262-2.857 1.794-.133 0-.266.132-.266 0-.93.598-1.528 1.063-1.994 1.395-.863.598-1.794.997-2.79 1.262-.532.2-1.13.133-1.595-.132-1.462 0-2.326 1.528-2.924 3.588v.132a10.1 10.1 0 0 0 0 3.456c.399.93.864 1.13 1.529.93 1.329-.598 2.657-1.263 3.92-2.06 1.13-.665 2.259-1.462 3.322-2.26.2-.198.399-.331.598-.464.067-.133.067-.133.133-.133v.066h.332c.266 3.854 0 6.977-.066 11.296-.067.2-.133.465-.199.664a.5.5 0 0 0-.133.333c-.333.531-.532.996-.798 1.461-.199.266-.398.599-.598.93-.199.266-.598.333-.797.466-.332 0-.664 0-.93-.133l-.133-.133c-.532.532-.93 1.196-.199 2.591l.132.133c.864.333 1.728.532 2.658.665.997 0 1.994-.067 2.99-.332h.133c.199-.133.465-.2.665-.2.332-.066.598-.133.93-.2 1.462-.796 2.126-2.59 1.927-5.049-.399-2.525-.465-5.05-.266-7.641a14.7 14.7 0 0 0-.199-5.382v-.133c-.133-.2-.133-.465-.133-.665.133-.199.266-.598.598-.797q.399-.498.598-.997c.133-.265.133-.598.133-.93l.199-.332v-.133c.066-.066.133-.133.133-.2.199-.199.399-.331.598-.464v-.133c.598-.665.997-1.462 1.063-2.392a3.8 3.8 0 0 0-.598-2.392z" fill="#1b1918"/><path d="M565.827 77.122v-.133c-.532 0-.333-.465-1.462 0-.332.332-.798.531-1.263.598-.398 0-.863 0-1.262-.133q-2.392-.3-4.784 0a15 15 0 0 1-3.455 0c-.465-.133-.931-.2-1.396-.332v-.067c-.465-.066-.93-.2-1.262-.532-1.263-.332-2.193-.664-3.123-.996s-1.661-.465-2.326-.598h-.133c-.265.133-.465.133-.465 0-.265-.465-.066-.997-.265-2.392a4.6 4.6 0 0 1 0-2.326c.132-.2.199-.598.332-.797v-.133c.266-1.395.531-2.79.664-4.253.399-2.458-.133-3.92.864-6.976.598-1.728 1.263-3.455 2.06-5.117v.067c.531-1.263.797-2.591.664-3.987-.133-.996-.996-1.794-2.059-1.86h-.133c-1.529.133-3.788 1.395-5.715 3.256-.199.133-.332.199-.332.332-.133.133-.266.332-.133.465 0 .266 0 .332.133.465.133.266.399.399.598.598 1.329.797 1.395 2.525.797 4.718a10.2 10.2 0 0 0-.465 2.392c-.066.797-.199 1.794-.199 2.857-.465 4.12-1.395 8.239-2.658 12.16-1.129.398-2.325.73-3.521-.599v-1.727c.265-.598.265-1.462 0-2.857-.2-2.658 1.129-5.183 0-8.638v-.133a2.22 2.22 0 0 1-.133-1.728c.066-.332.199-.797.332-1.262.066-1.462.066-2.857-.133-4.32a13.7 13.7 0 0 0-.797-3.986l-.133-.133c-.665-.797-1.661-1.196-2.658-1.063a5.12 5.12 0 0 0-2.924 1.595 12.4 12.4 0 0 0 .731 7.442 22.8 22.8 0 0 1 1.595 7.309 5.2 5.2 0 0 0 0 2.857c.133.864.133 1.794.133 2.658-.133.93-.133 1.993-.332 2.99-.2.797-.598 1.528-1.063 2.192a2.3 2.3 0 0 1-1.263.798c-1.395.199-2.791.598-4.186.797-.598.066-1.262.133-1.86.2-.798.132-1.462.199-2.127.265-.93.066-1.927.066-2.857 0q-.697.1-1.395-.2-.399 0-.798-.199a3.67 3.67 0 0 0-2.059.2c-.465.266-.864.73-1.063 1.262.066.266-.2 5.781.132 6.047.067.465.266.797.665 1.063.465.2.93.266 1.395.133.2 0 .465 0 .665-.133.797-.133 1.594-.332 3.455-.665a43 43 0 0 0 4.053-.598v-.133c2.193-.398 5.98-1.461 9.435-2.192.465-.133.93-.133 1.396-.133.73.133 1.528.2 2.458.332.864.133 1.794.133 2.658.133 2.126-.066 4.319.067 6.445.465 1.86.399 3.655 1.063 5.316 2.06h.133c.465.133.93.266 1.395.465v.066c.93.2 1.794.466 2.658.798.797.2 1.661.266 2.525.2 1.727-.532 3.388-1.396 4.717-2.659a18.8 18.8 0 0 0 3.788-4.784v-.132c.332-.4.265-.93 0-1.33m-63.854-25.98a7.6 7.6 0 0 1-1.263.664c-.332 0-.531 0-.664-.133h-4.917c-.199-.133-.266.066-1.196-.266-1.794-.398-3.588-.73-5.449-.93-.797 0-1.528-.133-2.192-.133v.067c-.931 0-1.861.066-2.725.133q-.996 0-1.993-.2a2.84 2.84 0 0 1-1.063-.93h.133c-.332-.532-.797-.997-1.263-1.395-.797-.598-1.594-1.063-2.525-1.396v-.133h-.265c-.598-.199-1.329-.199-1.927.067-.598.2-1.063.797-1.063 1.462-.067.797-.532 1.461-1.13 1.927-.797.598-1.727.93-2.658 1.13l-1.395.198h-1.794l-.133-.066c-.532.133-1.13.133-1.661.266-.598 0-1.13.066-1.728.2-.199 0-.398 0-.598.132-.265 0-.531 0-.797.133-.332.133 0 .066-.864.133l-.133-.133h-.133c-1.129.066-2.192.066-2.99.2q-1.096 0-2.192.198h-.133c-.532.067-.93.532-1.994.2h-.132c-.333-.266-.731-.266-1.13-.133-.332.2-.532.531-.664.93v.133c.132 2.06-.532 5.382 2.524 4.917.466-.2.997-.399 1.529-.465.598-.133 1.196-.332 1.86-.465 1.263-.067 2.525-.266 3.721-.665a20.6 20.6 0 0 0 2.99-1.395c.797-.2 1.661-.266 2.525-.2l.133.067c.133 0 .266.067.332.133.399.266.731.598.93.997.2.266.266.531.333.797-.399.532-.997.864-1.595 1.13l-.133-.067c-.332.2-.731.399-1.13.598q-2.192.3-4.385-.2a5 5 0 0 0-1.993 0l-.332.333-.2.598c.133.266.266.532.465.73.2.333.266.732.333 1.13a.85.85 0 0 1 0 .798 3.3 3.3 0 0 0 0 2.259c.199 1.86.066 3.654-.266 5.515-.332 1.927-.864 3.854-1.528 5.714a17.85 17.85 0 0 1-6.18 7.84c-.199 0-.465.067-.598.2.067.133-.465.332 0 .93.266.133.067 0 1.462.399.199.266.598.399.797.598h.133c1.063.332 2.193.332 3.256.133 1.13-.332 2.193-.93 3.123-1.728h.133a19.4 19.4 0 0 0 2.06-4.252c.598-1.595.93-3.322 1.063-5.05.066-1.329-.2-3.455.199-4.718v-.199h.465c.199.332.93.465 2.06.332.332 0 .731.067 1.063.2l.133.199c.199.066.332.066.465.2.399.265.731.597.93 1.062-.066.93-.133 1.794-.332 2.725a61 61 0 0 1-1.063 3.787l-.133-.2c0 .267-.066.466-.199.665l-.2.997v.066c-.066.399 0 .731.067 1.13.133.133.199.332.332.465l.133.2c.332.199.731.265 1.063.132.864-.398 1.728-.73 2.658-.996.797-.2 1.661-.333 2.525-.466h.332c.332.067.598.133.93.2 1.063-.067 1.263.199 2.525-.133v-.2c.997-.066 2.06 0 3.057.133 1.594.2 3.255.2 4.85 0h.133l.133-.132c.199-.532.399-1.13.465-1.728a5.4 5.4 0 0 0-.199-2.525c-.133-.266-.067.066-.133-.598l.133-.2v-2.99a1.06 1.06 0 0 1-.133-.996c.133-.266.332-.332.797-.465h.598v-.067c1.13-.199 2.193-.664 3.057-1.395h.199l.199-.2c.133-.066.266-.066.266-.199.067 0 .199 0 .199.133.067 0 .067.067.2.2 0 .199.066.332.199.465-.199 1.528-.066 3.455-.332 5.913-.067 3.19.133 7.176-.133 10.432.066.399-.199.399.332.93.864.2 1.794.133 2.658-.199h.133c.465-.266.864-.73 1.129-1.262v-.067a4.1 4.1 0 0 0 .333-1.993l-.133-.2h-.2v-.996c.133-.133.133-.332.2-.598.133-.133.133-.797 0-2.06 0-.93-.067-1.794-.2-2.724-.066-.399-.199-4.452-.132-5.25a36.6 36.6 0 0 0 0-5.381c-.2-.864-.2-1.794 0-2.658 0-.2.132-.465.132-.665.266-.465.466-.797.665-1.13v-.132c.199-.731.465-1.993-.665-2.592v-.066c-.531-.266-1.129-.465-1.794-.465-2.126 0-4.252-.133-6.378-.532-.665-.199-1.263-.465-1.861-.73v-.333c0-.797-.266-1.727 1.462-2.126h.399v-.066c.664.265 1.329.465 2.06.598.73.199 1.395.465 1.993.664 1.129.665 2.458 1.196 3.787 1.395a.5.5 0 0 0 .332.133c.997.2 2.06.266 3.123.2.864-.067 1.662-.465 2.193-1.13.864-.93 1.528-1.993 2.06-3.19.133-.332.266-.664.465-.93l.332-.332h.133c.199-.332.199-.73 0-1.063-.332-.066-.598-.266-.797.066M468.75 64.829c-.598.399-1.196.997-1.993 1.462h-.133c-.332.399-.797.664-1.263.93-.531.266-1.196.864-2.059-.133a4.7 4.7 0 0 1-.2-1.927c.133-.531.399-.93.798-1.262h.465c.531-.266 1.129-.399 1.594-.598.2 0 .466-.133.665-.133l.133.066a26 26 0 0 0 3.256-.797c.199.133.332.2.332.332a.5.5 0 0 1 .133.333c-.465.664-1.063 1.196-1.728 1.727m10.499.067c.132.664.531 1.262 1.129 1.594 0 .133.133.333.133.466a12.5 12.5 0 0 0-3.854 0v.132c-1.129 0-2.325.067-3.455.2-.066 0-.199.133-.332.133v-.133c.133 0 .133-.2.266-.332l.199-.665c.066-.332.199-.598.332-.93.067-.266.199-.532.332-.798v-.133c.2-.73.2-1.926 2.06-2.657h.598v-.067h2.459v.332c-.067.93 0 1.927.133 2.858m-5.981-10.632c1.13-.133 2.326-.133 3.456-.133v-.066h.598c1.196.133 2.325.2 3.255.332q0 .3-.199.598a8 8 0 0 1-1.395 1.595c-.665.266-1.329.399-2.06.465h-.199v.067c-.931.133-1.927.133-2.858.133-.531-.2-.93-.599-1.063-1.13 0-.665.133-1.329.465-1.86m8.107 20.4c-.067.464-.067.663-.2.796h-4.518v.2q-2.093 0-4.186.2c-.465-.4-.93-1.795-.266-3.323.2-.266.465-.532.798-.665a10.5 10.5 0 0 1 2.059-.598q.798.2 1.595.2v-.133c.997.266 1.861.133 3.788 0q.398.2.598.598c.132.066.199.465.332.664-.067.2-.133.465-.2.665v1.063zm4.651-12.426c.133 0 .266.133.465.133v-.067c1.262.133 2.591.399 4.053.598.399.93.465 1.927.2 2.857-.399.532-.466.665-1.728-.132a6 6 0 0 0-1.595-.798 5 5 0 0 0-1.063-.465v.066l-1.329-.265c-.465-.133-.93-.399-1.594-.598a5.2 5.2 0 0 0-1.064-.465c-.066-.067-.199-.067-.199-.2.133-.066-.864-.531.133-.996 1.063.133 2.326.199 3.721.332m142.791 20.73c-1.927.532-4.253-1.461-5.98-2.99-.333-.265-.466-.331-.466-.464-2.524-1.994-4.651-4.386-6.378-7.11-.864-1.13-.997-1.86-.2-2.06.731-.465 1.196-1.196 1.396-2.06 1.063-6.644 1.993-10.432 2.79-11.827a24 24 0 0 0 1.595-3.19 6.2 6.2 0 0 1 .665-1.86c.066-.133.132-.332.199-.465.465-.598.399-1.528-.199-2.06-.931-.598-1.861-.797-2.525-.465-.798.465-1.927.465-3.455 0-1.595-.2-3.19-.2-4.851-.133v-.066h-2.458c-1.462.133-2.991.332-4.519.531v.067a5.96 5.96 0 0 1-3.056 0q-2.093-.698-2.99.2c-.399 2.724-.266 4.65.199 5.913a18.7 18.7 0 0 1 0 3.854 6.83 6.83 0 0 0 0 3.654c.332 1.462.133 3.455-.465 5.715-.332.597-.332 1.793-.199 3.654-.067 1.728-.333 3.522-.665 5.25-.797 1.926-2.325 3.454-4.252 4.318v-.133a7.6 7.6 0 0 1-1.728.598c-1.395.266-2.193 1.395-2.525 3.455-.133.731.332 1.063 1.396.93h.199c.864-.398 1.727-.73 2.658-.996v.133c1.395-.2 4.119-.133 5.913-1.063a14.8 14.8 0 0 1 5.582-1.728v-.066c1.461-.2 2.923-.333 4.452-.333.863-.066 1.661-.199 2.458-.465a5.43 5.43 0 0 0 2.458-1.927c.466-.465.798-.465 1.13.2.399 1.794 1.13 3.455 2.06 5.05.199 1.063 1.595 1.86 3.92 2.525 1.528.066 2.99-.266 4.385-.93 1.13-.931 2.393-1.728 3.721-2.26.2-.2.466-.465.466-.664a1.55 1.55 0 0 0-.731-.731m-21.13-11.56c-.797 2.126-1.86 4.119-3.256 5.913v.133c-.266.2-.531.398-.864.598-1.461.465-2.524.598-2.325-.665.797-2.657-.465-4.451 2.06-6.18.598-.066 1.262-.132 1.86-.265.532-.2 1.063-.332 1.595-.465.731.133 1.063.465.93.93m4.186 6.112h-.465c-.532 0-2.392.665-2.326-.465.731-1.262 1.396-2.326 1.861-2.99 0-.2.266-.332.465-.332v.066c.332.067.664.133.93.332a13.7 13.7 0 0 0 1.396 3.19 9.4 9.4 0 0 1-1.861.2m2.326-11.827a20 20 0 0 0-2.791 0h-2.458c-1.595.266-3.256.465-4.452.73h-.067c-.465.134-.93.267-1.395.466-1.263-.465-1.329-1.595-.199-3.455.465-.133.996-.2 1.594-.332a25.5 25.5 0 0 1 4.519-.598c1.926-.067 3.787 0 5.714.199.199.997.066 2.06-.465 2.99m.465-8.638c-.997-.133-4.253-.133-5.714-.133a35 35 0 0 0-4.519.665c-.133 0-.332.133-.465.133-.664.133-1.395-.266-1.595-.93-.73-.997-.465-1.795.665-2.26l1.395-.2v-.066c1.661-.133 3.123-.199 4.519-.332.863 0 1.661-.133 2.458-.133v.067c1.462-.067 2.924.133 4.385.465.399 1.462 0 2.392-1.129 2.724" fill="#1b1918"/><path d="M512.538 79.053a14.5 14.5 0 0 0 0 2.392c0 .864.067 1.662.2 2.525h.066v-5.714a.5.5 0 0 1-.133.332c0 .133-.066.333-.133.465M251.542 69.02a5.4 5.4 0 0 1-2.525-.2c-2.06-.331-3.123 0-5.781.2-.93-.066-1.86-.2-2.791-.465a6.6 6.6 0 0 1-1.594-.2c-.997-.199-1.994-.398-2.99-.464a4.1 4.1 0 0 1-2.525-.2c-1.263.067-2.525.2-3.921.2-1.196.132-1.727 0-1.86-.2-.664-.266-2.458-.133-5.316.2-1.727.132-3.123.332-4.385.465a28 28 0 0 0-3.92.864c-3.389.332-6.711 1.063-9.901 2.06-.797.465-1.262.398-1.594-.2a1.95 1.95 0 0 0-1.861.93 19 19 0 0 0-.199 2.724c.731 2.326 2.126.798 4.85.93.864-.066 1.728-.265 2.525-.664 2.99-1.196 6.047-2.126 9.17-2.724.266-.133.598-.133.93-.133 2.392-.398 5.581-.864 8.04-.598.465.465 1.395.598 2.99.465 2.325-.398 5.914.133 9.369.598 1.528.465 2.99 1.13 4.385 1.86 1.794 1.197 4.186 1.064 5.781-.464.531-.598 1.196-1.13 1.86-1.595.598-.332.997-.93 1.13-1.595 0-.398.133-.864.465-1.13.133 0 .133-.132 0-.465-.133-.132-.199-.199-.332-.199m341.063 7.043.332-.332h.133c.266-.266.332-.465.531-.598.2-.133.2-.465.333-.664.133-.2.199-.598.332-.93.199-.133-.133-.333.664-.798v-.133c.2-.332.2-.797 0-1.13-.332-.066-.132-.53-1.262-.199l-.598.598h-.133c-.199.133-.465.2-.664.333a9.2 9.2 0 0 1-1.861.797h-.133c-.664.465-1.395.93-2.06 1.395-.531.465-1.063.864-1.528 1.396-.199-.133-.332-.133-.332-.333a2.74 2.74 0 0 1-.133-1.927c.332-.93.731-1.594.93-2.192q.2-.399.598-.798c.665-.066 1.329-.199 1.994-.332.332-.066.664-.2.797-.2a4.23 4.23 0 0 0 2.326-.93h.133l.066-.132a10.9 10.9 0 0 0 2.259-2.658c.266-.332.266-.73.133-1.13a.85.85 0 0 0-.664-.664v-.133c-.599 0-1.13-.133-1.728-.133l-.066.133h-1.13c-1.13.133-2.392.399-3.92.598-.133.133-.2.133-.333 0-.066 0-.199 0-.199-.133-.133-.133-.133-.266-.133-.465.133-.332.266-.664.465-1.13a18.3 18.3 0 0 0 5.316-.996v-.133c.664-.266 1.329-.731 1.86-1.196.466-.532.864-1.196 1.064-1.927.132-.532 0-1.063-.333-1.462h-.133c-.797-.2-1.594-.398-2.458-.465v.133a20.5 20.5 0 0 0-4.053-.2c-2.193-.332-5.515 1.462-8.173 1.197.731-.665 1.395-1.263 1.861-1.728a25 25 0 0 1 1.262-.93h1.86a42 42 0 0 1 3.456-.598c1.063-.133 2.192 0 3.853-.266.465-.066.931-.266 1.396-.465a1.99 1.99 0 0 0 1.395-1.13c0-.133-.066-.066.133-.332 0-.133.066-.266.133-.332.133-.266.266-.465.465-.664.066-.2.199-.4.332-.598.067 0 .067-.133.2-.133-.067-.133.465-.266 0-1.064 0-.132-.133-.199-.133-.332h-2.193l-.664-.2c-1.529-.132-3.123-.198-4.652-.066q-.697.2-1.395.2a10 10 0 0 1-1.993 0c-.266-.067-.465-.2-.598-.465-.067-.399-.067-.864.133-1.263l-.133-.2c-.266-.73-.731-1.328-1.396-1.727-.598-.332-1.329-.199-1.727.333-.465.797-.931 1.528-1.529 2.192a33 33 0 0 1-2.059 2.26c-.465.265-.864.597-1.263.93-.465.398-.864.863-1.262 1.395h-.133a12.4 12.4 0 0 1-1.395 1.86c-.466.466-.931.93-1.529 1.263l-.133.133v.133c.2.996.798 1.794 1.728 2.192.93.465 2.06.731 3.123.665.066 1.063-.199 2.458.133 3.654.398.598.664 1.396 2.525 1.263.664 0 1.395-.133 1.993-.465.266 0 .332 0 .465.133.067 0 .067.265.199.465v.797c-.73.332-1.594.664-3.122 1.329v.133c-.266.133-.532.266-.798.332q-.697.2-1.395 0h-.133c-.731.2-1.395.664-1.86 1.262-.266.532-.864 1.595-.466 2.725.266 1.395 1.462 1.66 3.456 1.727.73-.133 1.528-.266 2.458-.465.133.133.332-.332.731 0 .066.067.133-.133.399.133.133 0 .133.2.133.332a28.7 28.7 0 0 1-4.519 11.03 5.6 5.6 0 0 0-.598 1.462c-.066.332 0 .664.133.997l.133.133a4.6 4.6 0 0 0 2.326 0c.797-.466 1.661-.93 2.325-1.396.731-.531 1.396-1.196 2.06-1.86a37.4 37.4 0 0 1 6.91-5.582c.266-.398.665-.864 1.13-1.329m-213.422-7.508c-.465-.465-.93-.465-1.528 0-.665 0-1.196.465-2.791-.133a9 9 0 0 1-1.861-.2c-.797 0-1.528-.066-2.325-.198-.598 0-1.263-.133-1.861-.333-.598-.266-1.129-.664-1.594-1.13-1.861-.863-3.655-1.793-5.648-2.724-1.861-.93-3.655-1.86-5.648-2.657-.133-.133-.133 0-.133-.133l.598-.598c.532-.2.997-.465 1.595-.665a6.7 6.7 0 0 0 1.528-.797c.399-.067.797-.2 1.13-.465.398-.332.731-.797.93-1.263l.133-.199-.133-.133c-.665-.797-1.595-1.329-2.658-1.395-1.329 0-2.658.266-3.92.797l-.133.067c-.864.797-1.861 1.461-2.99 1.86-.266 0-.399.133-.598.133-.598.133-1.263 0-1.794-.266h-.133a13.5 13.5 0 0 1-2.193-.598c-.863-.266-1.661-.598-2.458-1.13l-.133-.132a5.66 5.66 0 0 0-3.322 0c-.931.266-1.794.864-2.326 1.727v.2c.133.797.665 1.528 1.395 1.927a9.3 9.3 0 0 0 3.256.996q.399 0 .798.2l.133.133v.132c-.2.133-.399.2-.665.2l-.133.133c-.266.066-.465.133-.664.332-.2.066-.465.133-.665.2-.664.331-1.594.664-2.658 1.129-1.196.398-2.591.797-4.186 1.395-1.794.864-3.654 1.462-5.647 1.86-1.196.266-1.861.133-1.994-.332l-.133-.133c-.199-.066-.398-.199-.598-.332-.199 0-.332 0-.465.133-.133.067-.332-.066-.598.598v.133a15.4 15.4 0 0 0 0 5.515v.133c.2 1.329 1.595 1.927 4.253 1.462v-.133a156 156 0 0 0 11.295-5.382c0 .132.665-.399.997 0 .066.132.133.332.199.465 0 2.392-.332 4.784-1.129 7.11-.731 1.594-1.661 2.657-2.791 2.99h-.133c-1.129.531-2.192 1.063-3.256 1.727a78 78 0 0 0-3.123 1.86l-.132.133c-.067.133-.2.2-.2.333-.133.332-.133.598.133.797.199.2.399.332.598.465.532.266 1.13.399 1.728.465 1.196.133 2.325.332 3.455.665 1.262.199 2.591 0 3.787-.598a12.4 12.4 0 0 0 3.788-3.19 3.76 3.76 0 0 0 1.063-1.594c.199-.599.398-1.196.465-1.86v-.134c-.266-1.395.199-3.322.465-5.913v-.466c.066-.132.133-.332.199-.465v-.132c-.265-.93-.398-1.861-.598-2.658a12.5 12.5 0 0 0-.598-2.26c.067-.199.2-.398.333-.597.132-.266.332-.333.598-.466l.465-.199h.133c.398-.2.73-.465 1.063-.664l.664-.665c.598 0 1.063.133 1.395.133.798.066 1.529.266 2.193.665.731.332 1.263 1.063 1.396 1.926q-.4.698-.598 1.396c-.133.531-.2 1.262-.333 1.927-.266 2.392.133 5.249-.133 8.638-.066 1.262-.133 2.59-.332 3.853v2.658c.067.532.266.997.465 1.462.266.332.665.598 1.063.664a17 17 0 0 0 2.658-.598c3.123-2.192 1.661-9.103 1.462-13.09a14 14 0 0 1 0-3.322 3.5 3.5 0 0 1 .664-1.727c2.326 1.395 4.452 3.256 6.113 5.448h.133c1.529 1.462 3.323 2.525 6.18 1.86 2.458-.53 4.784-2.657 6.777-5.514.332-.332.399-.864.199-1.329zm-64.319 5.382c-.598.332-1.329.465-1.993.332-.731-.199-1.396-.465-1.994-.93-.731-.465-1.528-.797-2.325-1.13-.798-.265-1.661-.465-2.525-.465a22.5 22.5 0 0 1-7.641-4.12 50.7 50.7 0 0 1-7.642-7.906v-.133a2.9 2.9 0 0 1-.797-.997c-.066-.332-.399-.332.332-.531.465-.133.93-.2 1.396-.133 3.255.2 7.309.465 10.631.93 1.395.465 2.857.332 4.186-.332 1.196-.665 1.86-1.927 2.325-3.655l.133-.133c.067-.664-.133-1.395-.598-1.926-.332-.465-.93-.532-1.727-.333h-.133c-.532.266-.93.133-2.392-.199-2.525-.332-4.851-.73-6.711-.93-1.993-.067-3.588-.2-4.851-.2-.664-.066-1.329-.265-1.86-.664a3.5 3.5 0 0 1-1.395-1.395q0-.798-.598-1.396c-.399-.398-1.329-.93-2.525.2-.465.332-.798.863-.931 1.461-.465.665-1.129 1.263-1.86 1.728s-1.462.73-2.326.797c-2.525 0-5.249 0-7.84.731a5 5 0 0 1-2.791.2h.067c-1.728-.465-2.924-.266-3.588.664-.731.797-.798 2.193-.466 4.12.266 5.315 9.369 2.392 13.887.863.864-.133 1.927-.598 3.123-.133.399.598.798.997-.199 2.26-3.455 4.518-8.771 8.106-14.485 11.162h-.133c-1.794 1.064-3.189 1.728-4.252 1.86a2.9 2.9 0 0 1-1.063 0c-.266-.066-.466-.198-.599-.464l-.199-.797a11 11 0 0 1-.598-.93c-.199-.267-.531-.266-.797-.134-.266.067-.465.333-.465.665-.133.332-.266.73-.266 1.13-.133 1.528-.067 3.056.332 4.584.266 1.063.997 1.993 1.993 2.392a4.3 4.3 0 0 0 3.721-.133c1.728-.598 3.256-1.528 4.652-2.658 2.591-1.86 5.448-4.385 8.704-7.043.731-.531 1.063-.93 1.395-1.13a57 57 0 0 0 2.326-1.926c.266-.067.199-.332.864-.067.133.067.133.332.133.665-.333 3.322-.731 6.18-.931 8.438-.199 2.26-.332 3.987-.465 5.25.067 1.66-.199 3.189.332 4.85l.133.133c.798.598 1.794.797 2.791.598a4.32 4.32 0 0 0 2.458-1.728l.133-.2V67.692h-.133v-1.13c.133-.199.2-.332.333-.332l.133-.132c0-.133.132-.133.332 0 .199 0 .465.265.797.465 3.455 2.591 6.379 6.71 9.768 11.428 4.917 6.246 10.299 3.854 15.88-2.06.199-.265.332-.531.465-.797a.85.85 0 0 0 0-.797c-.133-.598-.731-.731-1.661-.399m111.561-14.153h-.132q-.798.3-1.595 0c-.598-.265-1.196-.398-1.861-.465a3.8 3.8 0 0 0-1.727 0c-.598 0-1.13-.133-1.728-.133-.664-.133-1.395-.199-2.06-.332-.398 0-.863-.066-1.196-.332-.332-.2-.465-.532-.465-.93-.465-.532-.863-1.794-2.857-1.728-.598.2-1.129.532-1.528.997-.465.531-.797 1.196-1.063 1.86-.399.133-.731.332-1.063.465a10.3 10.3 0 0 1-3.389 1.196c-1.528.333-3.123.333-4.651.133a3.76 3.76 0 0 0-2.791 1.462c-.531 1.196-.731 2.591-.598 3.92.731 2.99.797 5.515.133 7.774a11.03 11.03 0 0 1-3.588 5.847c-.864.665-1.728 1.396-2.459 2.193-.73.731-1.461 1.529-2.059 2.392-.266.465-.333.798-.133 1.13.332.398.266.266 1.727.598.399.133.731.266 1.063.465l.133.133q1.197.1 2.392-.2a5.6 5.6 0 0 0 1.994-.996c1.594-1.528 2.99-3.256 4.252-5.116.864-1.529 1.263-2.791 1.063-3.788.067-.864.266-1.794.465-2.658.067-.531.266-1.063.665-1.461.199-.333.266-.665.332-1.063.2-.599-.066-1.595.465-2.791.133-.399.399-.465.598-.598h.465a17 17 0 0 0 1.728-.465l1.595-.798c.199 0 .398 0 .598-.133v.067c.265 0 .465.066.731.133.398.2.465.598.598 1.262-.067 1.196-.2 2.326-.2 3.455-.066.798-.199 1.728-.199 2.658-.133 4.984-1.329 9.768-.399 14.286.266.332.665.531 1.063.598.532.066 1.063 0 1.595-.133.465-.2.797-.532 1.063-.93.133-.332.332-.665.598-.93q.3-.4.798-.599h.132c.399-.398.665-.93.798-1.461.266-.731.398-1.462.465-2.26v-.132c-.133-1.263-.199-3.057-.332-5.117 0-2.192 0-4.717.133-7.574-.598-4.253 2.724-4.32 6.179-3.588.465.265 1.462.199 1.129 1.461v.133c.266 1.86.399 3.721.466 5.582.133.996.133 2.06 0 3.056a20 20 0 0 0 0 2.857c0 .532.066 1.063.265 1.595.067.332.067.797.2 1.395v2.392c.398.798.864 1.263 1.528 1.13.332 0 1.329-.399 2.326-1.395.199-.4.265-.798.332-1.263 0-.664 0-1.262-.133-1.927 0-1.13-.067-2.192-.266-3.322-.066-1.595-.332-3.522-.664-5.914a6.5 6.5 0 0 1 0-3.189 26 26 0 0 1 1.395-4.585c.199-1.528.199-2.657-.133-3.322-.465-.797-1.329-1.196-2.193-.997" fill="#1b1918"/><path d="M440.646 52.474a1.3 1.3 0 0 0-.598-.598 1.13 1.13 0 0 0-.93 0c-.399.199-.798.265-1.263.332-.332.066-.731 0-1.063-.133a1.65 1.65 0 0 0-1.129 0c-.599.066-1.196.266-1.728.465h-.133c-.797.133-.399.731-1.993 0h-.133c-1.794-.532-3.588-.93-5.449-1.262-1.661-.333-3.322-.465-4.983-.532-.797.2-1.661.133-2.459-.2a1.99 1.99 0 0 1-1.129-1.395 4.8 4.8 0 0 0-1.595-2.06c-.997-.664-2.06-1.129-3.256-1.461-1.063-.332-1.86-.332-2.458.133a3.6 3.6 0 0 0-1.263 1.86c0 .133-.066.2-.066.332-.399 1.263-1.395 2.326-2.658 2.858-2.126 1.195-7.442.863-10.365 1.461-1.063.2-2.126.465-3.123.93-.532.4-1.13.93-2.193.266h-.133c-.797-.265-1.661-.066-2.325.465a2.96 2.96 0 0 0-.798 1.396v.93c-.863 9.967 15.15-.332 18.871 0 1.063-.2 1.993-.465 2.79-.664 1.529-.333 3.123-.4 4.652-.266 2.857-.133 5.714.133 8.505.73 2.525.665 4.983 1.728 7.176 3.19 1.927.93 3.787 1.661 6.445.665l.133-.133c1.395-.798 2.591-1.994 3.322-3.456v-.199c-.066-.332 0-.664.133-.93q.299-.498.797-.797h.133c.199-.2.332-.466.332-.798a2.5 2.5 0 0 0 0-.997z" fill="#1b1918"/></svg>