<svg width="128" height="128" fill="none" xmlns="http://www.w3.org/2000/svg"><path d="M43.9 93.5c7.75 5.25 17 7.3 25.8 6.25 8.7-1.05 17.05-5.1 23.2-12.15 1.75-2 3.3-4.1 4.65-6.55s2.45-5.25 3.25-8.55c.7-2.75 1.05-5.55 1.15-8.3.25-8-1.9-15.75-6.3-22-4.35-6.25-10.9-11-19.35-13.05-2.45-.6-5.05-1-7.85-1.1-7.4-.3-14.9 1.95-21 6.55-5.55 4.2-9.9 10.4-11.85 18.35l-.1.4-.45-.1c-1-.3-2-.45-3.05-.55-1.1-.1-2.15-.1-3.25-.05-1.8.15-3.25.3-4.65.65-.9.2-1.75.45-2.7.8 1.2.15 2.4.4 3.55.8 1.65.55 3.3 1.35 5 2.45 1.4.9 2.6 2.05 3.6 3.25s1.85 2.5 2.55 3.8c.8 1.45 1.7 3 2.7 4.55.95 1.55 2 3.1 3.1 4.55 4 5.3 9.05 8.35 14.2 9.35 5.45 1.05 10.95-.25 15.35-3.65 2.3-1.75 3.7-4 4.55-6.35.85-2.4 1.15-4.95 1.15-7.45 0-3.4-.05-5.45-.1-7.5-.05-2-.05-3.95-.1-7.1h-17.7l.2 16.65h14.5l-.4.6Q71.6 71.2 68.3 72.7c-2.2 1-4.85 1.45-7.95 1.4-2.1-.05-4.1-.6-5.85-1.6-1.9-1.05-3.6-2.5-4.9-4.25-1.2-1.6-2.15-3.45-2.75-5.25-.65-1.95-.9-3.9-.8-5.5.45-5.5 3-10.15 6.85-13.5 3.95-3.45 9.25-5.45 14.95-5.4 4.15 0 8.1 1.1 11.65 3.15 3.4 2 6.35 4.95 8.55 8.75 1 1.75 1.75 3.65 2.15 5.75.45 2.1.6 4.45.5 7.05-.15 3.95-1.2 8.1-3.1 11.95-1.75 3.55-4.2 6.85-7.35 9.4-4.45 3.6-9.65 6-15.4 6.5-5.15.45-10.7-.65-16.45-3.75-1.45-.8-2.85-1.75-4.1-2.8-1.5-1.2-2.85-2.6-4.05-3.9-1-1.1-1.9-2.2-2.75-3.35S35.85 75 35.05 73.7c-.9-1.45-1.95-3.35-3-5.15q-1.125-2.025-2.25-3.9c-2.5-3.55-5.15-5.65-8.25-6.6-2.75-.85-5.9-.85-9.65-.15h.05c1 .3 2.35.75 3.55 1.2 5.8 2.15 8.7 7.85 11.2 12.8.6 1.2 1.2 2.4 1.85 3.5q1.425 2.475 3 4.95c1.05 1.6 2.15 3.2 3.3 4.7q1.875 2.4 4.05 4.5c1.55 1.35 3.15 2.7 5 3.95" fill="#d70e19"/></svg>