<svg width="585" height="128" fill="none" xmlns="http://www.w3.org/2000/svg"><path d="M67.137 113.134c12.926 8.761 28.3 12.186 43.024 10.413 14.509-1.746 28.384-8.54 38.661-20.246 2.901-3.305 5.52-6.832 7.754-10.908 2.23-4.075 4.081-8.709 5.45-14.239a67 67 0 0 0 1.94-13.861c.451-13.353-3.192-26.236-10.472-36.64-7.271-10.393-18.178-18.319-32.252-21.773-4.086-1.003-8.446-1.628-13.069-1.83-12.347-.535-24.867 3.242-34.97 10.895-9.277 7.027-16.522 17.323-19.73 30.556l-.17.7-.71-.207a28 28 0 0 0-5.074-.953 32 32 0 0 0-5.403-.05c-3.015.23-5.45.532-7.742 1.058a33 33 0 0 0-4.472 1.363c2.005.258 3.98.706 5.9 1.336 2.782.915 5.5 2.24 8.31 4.057 2.361 1.525 4.323 3.402 6.002 5.438 1.663 2.014 3.056 4.2 4.288 6.36 1.375 2.41 2.872 4.995 4.5 7.616 1.611 2.595 3.331 5.19 5.147 7.61 6.634 8.841 15.08 13.946 23.65 15.583 9.061 1.73 18.267-.416 25.605-6.121 3.8-2.957 6.182-6.651 7.614-10.62 1.443-3.998 1.929-8.287 1.935-12.402v-.005.005-.003q-.036-6.266-.148-12.531c-.055-3.301-.112-6.603-.146-11.852h-29.51l.332 27.774c1.618-.001 3.633-.006 5.818-.012 5.873-.014 12.994-.033 17.056.013l1.244.013-.634 1.033c-2.176 3.533-5.088 6.082-8.778 7.73-3.658 1.635-8.067 2.377-13.269 2.309-3.477-.045-6.795-1.01-9.776-2.625-3.183-1.728-5.98-4.2-8.179-7.09-2.04-2.685-3.567-5.742-4.557-8.761-1.07-3.258-1.515-6.476-1.304-9.145.72-9.141 4.994-16.94 11.39-22.498 6.577-5.71 15.389-9.048 24.887-9.039 6.908.01 13.541 1.8 19.381 5.24 5.675 3.342 10.595 8.242 14.28 14.577 1.682 2.895 2.882 6.062 3.615 9.605.728 3.53.99 7.427.801 11.79-.284 6.563-2.036 13.521-5.172 19.924-2.91 5.942-7.02 11.415-12.269 15.657-7.398 5.985-16.112 9.989-25.699 10.815-8.555.737-17.8-1.058-27.427-6.237-2.424-1.305-4.716-2.902-6.843-4.65-2.485-2.036-4.76-4.291-6.773-6.517a78 78 0 0 1-4.581-5.551 71 71 0 0 1-4.054-6.046c-1.46-2.437-3.238-5.545-4.986-8.606a658 658 0 0 0-3.736-6.486c-4.145-5.884-8.548-9.401-13.711-11.03-4.61-1.456-9.863-1.426-16.105-.244l.1.03c1.676.52 3.938 1.222 5.915 1.958 9.683 3.602 14.487 13.055 18.703 21.35 1.037 2.04 2.04 4.011 3.07 5.8 1.569 2.728 3.212 5.5 4.963 8.222 1.736 2.697 3.573 5.337 5.542 7.82 2.094 2.641 4.299 5.154 6.726 7.508a60 60 0 0 0 8.118 6.62" fill="#d70e19"/><path d="M495.55 28.443c-1.783-.14-3.586-7.218-3.573-15.681.238-.24.475-.488.719-.727 8.317-.14 15.291 1.467 20.021 5.1 2.077 1.605 3.366 4.117 5.08 6.085 1.071-.025 1.846-.099 2.264-.738.19-.854.4-1.7.594-2.543.69-1.67 2.585-4.391 4.143-5.23 4.768-2.551 16.898-2.059 22.529-.976 3.615.703 8.616-.986 11.473.496.734.356 4.199 4.781 4.378 5.584.064 1.336.097 2.669.128 4-.245.29-.464.574-.703.866-3.076.756-9.608.107-12.793-.496-6.092-1.14-14.02.031-18.73 1.223-1.509-.094-6.57.83-7.94.598-1.265-.207-2.329-1.287-3.426-.598q-.845.594-1.672 1.213c-.852.523-10.724-.468-16.998.208-1.242-.073-2.071 1.689-5.494 1.616m74.976 5.676c.669 1.097.207 4.375 0 5.534-.913 4.561-3.531 6.852-8.921 5.943-2.344-.349-5.126-1.095-7.325-1.768-1.449-.468-4.74-2.151-6.122-.212-1.058 1.492-.944 3.867-1.008 6.096-.099 3.176.288 10.117 1.119 12.885.737 2.48 2.186 5.238 2.258 8.174a1.92 1.92 0 0 1-.757 1.342 1.9 1.9 0 0 1-1.501.346c-4.761-2.035-5.228-10.192-6.155-15.995-.73-4.607.088-8.698-1.886-11.768-.918-1.434-4.467-2.437-6.862-1.558-.487.313-.943.633-1.416.952-3.269 1.812-10.191.359-10.422.242-1.519-.772-2.28-3.97-4.255-5.032-.577-.305-1.425.185-1.664.705-.443 1.215-.474 2.567-.705 3.852-.156.733-.937 3.198-.937 3.964-1.013 5.095-2.043 11.404-4.75 14.9-1.699 2.199-4.886 2.25-7.572 3.483-2.3 1.07-6.773 3.784-8.642 1.813-.687-1.224-.273-4.328.357-6.374.629-1.856 11.133-7.79 13.382-9.627 1.545-1.267 3.296-5.634 1.889-7.684-.425-.597-1.939-.84-3.076-.475a2286 2286 0 0 0-8.64 4.09c-.893.295-4.455.67-5.21 0-1.871-1.19-2.314-7.935-.943-9.376 1.666-1.301 3.798-2.614 6.04-3.358 3.119-1.068 10.68-.327 13.959 0q1.49.054 2.963.115c.667-.202 1.442-1.172 2.599-1.452 1.88-.446 2.072 1.195 3.671.965.988-.128 1.307-.706 1.895-.966 1.319-.53 2.599 0 3.894 0 2.248-.353 13.539-1.4 16.931-1.565 12.585-.686 19.772 2.415 21.533 2.53 4.28.508 5.634-1.536 6.279-.721m-117.263-9.014c1.122-.509 2.117-1.51 2.137-3.205.06-.982-3.904-1.07-8.24-1.036-3.356.025-6.934.124-9.044-.061-.244-.026-.691.063-1.208.235-1.334.447-3.146 1.464-3.209 2.586-.019.445.118 1.055.359 1.106.731.288 1.499.577 2.256.866q.298.056.595.073c1.489.075 3.018-.564 4.776-.564 1.734 0 3.633.274 5.475.454 2.255.217 4.424.29 6.103-.454m-.115 10.47c.303-.234.588-1.705.347-2.21-.776-1.593-3.495-2.082-6.335-2.214-1.765-.082-3.573-.027-4.997-.01-2.147.037-3.88.307-5.254 1.076a5.9 5.9 0 0 0-2.02 1.874c-.453.843.064 1.608.466 1.85.125.045.692.08 1.554.101 2.283.056 6.624.031 10.251-.066 3.092-.081 5.664-.22 5.987-.401zm-2.736 16.631c.196-2.026-.736-7.386-1.411-8.074-.466-.4-1.197-.269-1.841.044l-.132.068c-.397.28-.905 3.673-1.397 4.878-.55.92-1.143 1.52-1.602 2.553-.346.816-.024 1.877.289 2.007.571.18 1.781.304 2.842.337.794.024 1.508-.002 1.804-.09.593-.118 1.342-.819 1.448-1.723m-13.504 3.965c2.924-.654 4.185-9.46 1.914-12.58-.397-.477-1.166-.333-1.795 0l-.118.063c-.964.497-2.007.631-2.512 1.65-.957 1.951-.56 9.043.492 10.09.735.693 1.412.912 2.02.777zm-11.214-1.134c3.622-9.477 2.15-30.85.713-32.896-.221-.32-.67-.58-.826 0-.259.542-.391 1.492-.84 1.845-1.529 1.12-3.77 1.293-6.095 1.34-3.738.081-7.698-.148-9.303 2.738.158.275.31.558.46.858.921.38 1.974 1.1 3.468.866 1.78-.284 3.624-1.076 5.375-.907.821.08 1.621.372 2.382 1.028a744 744 0 0 1 2.389 5.171c-.372 2.48-2.379 2.933-4.771 2.93-2.135-.001-4.575-.364-6.443.03-.262.74-.951 1.875-.47 2.585.836 1.645 3.981.914 6.912.928 1.995.008 3.891.36 4.893 2.038 2.633 4.383-.791 5.66-4.892 6.356-2.936.496-6.218.692-7.872 1.515-.895.802-.265 1.878.234 2.713.789.276 1.58 1.082 2.867.73 1.29-.34 2.863-1.1 4.771-1.236a8 8 0 0 1 2.157.135c1.669.337 3.945 3.337 4.891 1.233m32.473-4.28c2.639 4.035 8.351 9.705 13.495 10.47q.094.374.136.737v1.082c-.495 4.393-7.035 7.294-12.187 5.943-5.082-1.32-5.296-10.875-9.19-11.195-1.381.588-1.551 2.083-2.748 2.7a9 9 0 0 1-.513.241c-1.843.78-3.965.908-5.937 1.725a141 141 0 0 0-4.314 1.89 114 114 0 0 0-4.514 2.181c-1.187.615-4.645 3.439-6.802 2.582-1.217-.465-3.681-2.51-3.227-4.683.17-.801 1.719-1.522.466-2.604-.447-.397-1.053-1.14-2.023-.841-.72.26-1.445.528-2.163.804-3.491 1.334-6.894 2.89-9.648 4.987-1.477 1.11-4.394 6.496-6.695 5.051-.914-.989-.914-2.219-1.165-3.95-1.047-6.487 2.111-9.347 4.525-12.684.687-.627.076-3.194-2.187-2.714-3.177.742-3.019 2.494-7.02.866-.595-.338-.924-2.081-1.314-3.194-2.488-7.938 8.077-4.931 10.866-8.621 1.382-5.894-2.866-1.083-5.009-1.368-1.784-.229-.655-5.92-3.82-3.687-1.474.929-3.454 2.477-4.31 1.357-.956-1.275-1.525-2.51-1.786-3.703v-3.127c1.427-6.697 11.557-12 15.045-15.84-.189-1.082-.661-1.682-.465-2.83.668-.424 1.342-.826 2.01-1.244 4.064.058 5.331 4.922 8.73 6.049.723.232 1.481.291 2.243.301 1.742.02 3.477-.221 4.682.801q1.006-.802 2.019-1.596c.598-1.26.39-2.121 1.664-2.598 2.942-1.082 6.341-1.215 9.898-1.065 3.363.142 6.866.534 10.251.618 1.64.04 3.253.007 4.81-.165 4.104-.447 10.387-3.609 11.945.49.675 1.83-.473 4.606-.959 5.8-1.683 4.077-2.787 8.208-3.825 13.171-.662 3.216.624 7.4.114 9.743-.172.65-3.239 1.907-3.455 2.705-.547 1.965 1.707 4.378 2.376 5.414zm-114.01-17.43c.149-.84-.573-1.224-1.251-1.392-.411-.038-9.422 1.78-13.983 2.802l-.443.099c-1.515.23-3.63 1.18-5.14.58-.926-.458-.909-1.283-1.608-1.858-1.718-1.395-5.766-.248-7.101.926-1.434 1.28-1.25 6.442.35 7.198 1.359.754 2.895-.234 4.46.12 2.006.436 5.585 4.674 3.662 7.537-1.537 2.306-7.418 2.565-9.384 4.977.349.668.917 1.315 1.602 1.626 2.282.65 8.776-3.19 13.602-6.431 2.152-1.449 3.976-2.776 4.942-3.53 1.408-1.552 9.449-8.7 10.293-12.654zm22.892-10.201c1.565-.12 3.133-.247 4.695-.362.549 1.073.568 2.888.568 4.533 0 6.113-4.709 10.197-10.753 8.12-2.033-.71-5.861-4.149-8.588-3.133q-.283.167-.57.341c-.416 3.665 2.73 5.238 4.81 7.081 2.892 2.572 6.781 6.463 7.891 10.671.557 2.105-.307 4.229-1.372 5.105-1.985 1.624-4.688 2.372-6.643 3.949-4.492 3.625-7.779 8.746-12.468 12.172-.544-.006-.883-.053-1.147-.333-1.74-1.82-.226-5.88.573-7.319 3.295-5.907 8.4-8.753 11.901-14.032-.74-2.358-5.244-6.91-7.209-7.66-2.153 1.67-3.797 4.816-5.495 6.967-4.065 5.142-8.922 10.473-14.319 14.464q-1.002.741-2.043 1.428c-1.71 1.118-8.739 4.835-11.215 3.24-2.545-1.636-4.245-5.169-5.042-8.59-.363-1.57-.302-2.95-1.022-4.052-.116-.038-.229-.08-.346-.111-3.431.468-6.322 3.253-8.814 4.985-.911.638-2.49 2.369-4.115 1.742-1.31-.675-1.421-2.48-1.953-3.946l-1.71-4.177c.034-.85.071-1.705.111-2.553 1.357-2.71 9.71-6.036 12.362-8.585 1.464-1.405 2.363-5.46 0-6.618-3.342-1.31-6.152 2.642-9.387 1.283-.507-.213-3.366-10.88-3.208-12.18 2.099-2.41 10.928-3.34 14.428-4.873-.007-3.842-1.267-5.915.113-9.517 1.106-.203 3.097-.965 4.345-.46.27.151.533.306.808.46q.341 4.466.68 8.937c.785 1.554 4.291.04 6.082.887 1.563.725.156 4.17 1.474 5.144 2.977 1.84 4.865-2.297 6.525-2.903.577-.209 1.232-.32 1.927-.385 2.681-.25 5.902.202 7.165-1.474.416-.797 1.969-4.274 2.466-5.68.154-1.27.301-2.546.46-3.83.766-2.024 3.593-3.171 5.605-4.056 3.257-.07 6.008 2.878 4.696 7.07-.823 2.61-4.516 3.796-4.931 6.486.159.244.315.478.465.711 3.22.866 7.746.12 11.438.12 3.91 0 7.794.396 10.762.932m-118.428 3.138c4.227.033 5.525-1.708 7.715-4.326.757-1.263-.493-3.672-2.963-3.567-1.245-.008-2.802 1.882-4.752 2.723q-.406.176-.834.281c-2.094.488-4.023.308-5.476 1.336-.164.524-.402 1.673-.114 2.332.817 1.608 2.643.91 4.602 1.114.664.069 1.267.104 1.822.107m3.55 10.679c.819-.402 1.682-1.462 1.307-2.352-.931-1.985-2.132-1.996-4.857-1.91q-.635.021-1.385.039c-1.656 0-2.544 1.484-2.518 2.338.035.249.071.517.106.777.44 1.013 2.078 1.576 3.797 1.677 1.296.074 2.638-.114 3.55-.569m.986 9.014c.32-.017.226-.878.112-1.115-.216-.291-.444-.588-.662-.88-.744-.684-2.523-.873-3.944-.233l-.042.024c-1.248.702-2.414.695-3.106 1.978-.314.577.043 1.678.299 1.783.953.178 1.89.088 2.807-.12 1.575-.36 3.091-1.083 4.536-1.437m-.42 11.53c.474-.135.04-3.338-.475-3.835-.194-.2-.95-.26-1.226-.097-.664.314-1.53.527-2.415.736-2.452.576-5.073 1.12-4.126 3.682 1.025 2.11 2.518 2.08 4.126 1.453 1.361-.531 2.805-1.49 4.116-1.939m-13.526-17.015c.377-.336.284-6.455.018-6.898-.112-.275-.665-.84-1.036-.818-.915.178-1.55.494-2.093.789l-.207.102c-1.429.706-3.75 1.86-3.569 3.586.276 1.028 1.871 2.47 3.568 3.189 1.199.508 2.448.658 3.319.05m.027 11.459c.319-.253.224-4.333-.033-4.747-.353-.676-1.865-.348-3.313-.184-.356.04-.708.069-1.037.072-1.204.069-5.368.427-8.666 1.114-1.33.27-2.362.935-3.7 1.381a8.5 8.5 0 0 1-1.886.4c-1.851.166-2.851-.759-4.385.22-.797.626-.937 2.25-1.203 4.01.251.216.51.439.77.66 2.263-.183 4.469-.58 6.704-1.026 2.235-.444 4.502-.936 6.886-1.3 3.401-.535 4.926.502 6.517.642.953.083 1.928-.155 3.346-1.242m-26.695-13.547c.464.26.928.359 1.372.238 2.361-.745 3.676-3.941 1.87-6.917-1.077-1.35-2.054-.864-3.242-.611a4.7 4.7 0 0 1-.835.112c-1.253-.223-2.16-1.786-3.233-.962-.095 2.472 1.967 6.962 4.068 8.14m8.827-4.883c-2.773-.167-.992 6.955 1.119 7.233q.15.02.304-.008c3.06-1.257 3.072-6.283-.304-7.11a4.3 4.3 0 0 0-1.119-.115m51.356 25.186c.415.17.956.47.984.887.058 3.467.353 7.089-1.424 8.689-1.332 1.193-4.642.586-6.577.217-2.554-.588-5.114-1.187-7.672-1.782-1.91-.59-3.993-1.766-7.019-1.227q-1.209.216-2.397.528c-1.809.479-3.637 1.194-4.507 2.264-.654.804-1.255 2.727-2.188 3.23-.406.037-.803.07-1.201.11-2.321-.796-.337-8.99-1.646-11.684-.076-.035-1.138-.524-1.209-.561q-.99-.013-1.978.07c-4.825.397-9.011 2.385-13.403 3.75-1.731.539-3.493.978-5.338 1.19-2.074.237-3.15-2.852-4.608-3.896-.335-.241-.695-.374-1.087-.33-4.163.439-3.924 9.138-10.631 7.89-1.308-1.264-2.049-3.1-1.645-5.785.032-.767.069-1.554.105-2.328 1.47-3.628 5.443-5.48 6.909-8.574v-2.22c-1.921-2.59-4.596-4.586-6.358-7.354-.811-1.258-1.321-4.348-1.645-5.328-.482-1.291-.899-2.593-.919-3.885v-.192a5.26 5.26 0 0 1 .919-2.938c.69-1.036 2.228-2.291 3.617-2.556 1.06-.21 2.542.555 3.181-.339 1.079-2.702-3.28-6.716-2.521-10.461.309-1.518 1.233-2.192 1.858-3.341 3.212-.245 5.959.699 8.217 2.12a18.6 18.6 0 0 1 3.294 2.67c.804.805 3.599 4.176 5.157 3.789a6.4 6.4 0 0 0 1.495-.618c4.318-2.432 7.658-9.743 13.297-9.732l.106.138c.22.284.44.574.663.856.628 1.313.239 2.67-.663 4.025-2.518 3.792-9.031 7.57-8.434 10.33.347.857 2.094 2.872 3.73 2.345.805-.274 3.809-3.071 4.704-4.304a2 2 0 0 0 .226-.376c.466-1.156.121-2.118-.226-2.966-.184-.451-.367-.868-.43-1.266l.43-.36.226-.193c1.199-.265 1.566.507 2.41.784 1.529.494 4.133-.573 5.26-1.002 2.021-.764 3.458-2.37 4.833-4.04 1.323-1.61 2.59-3.28 4.262-4.31 3.366 0 10.404 4.997 11.949 7.121.033 3.544-3.038 4.96-4.272 7.557-.262.73.528 1.108 1.29 1.305 1.607-.038 6.475-.209 7.137-.365 1.123-.206 1.094-.867 1.964-.602 1.938.85 1.443 3.58 1.122 4.672-.421 1.424-1.972 2.134-3.185 2.014-3.563-.379-10.393-.726-12.079 1.147-.256.408-.005 2.042.572 2.408 3.154 1.783 13.19.078 11.947 5.23-.544.409-1.095.82-1.642 1.227-4.187 1.27-10.662-2.086-11.067 2.895-.283 3.583 9.737 1.321 13.15 3.895.26 2.206-.071 3.036-1.098 4.334-4.246-.085-12.247-1.798-12.273 2.783.095.59.854 1.595 1.529 1.665 1.754.112 3.509.218 5.262.33 2.036.164 3.716 1.288 5.044 1.224 1.408-.133 3.173-1.158 4.493-.774" fill="#231916"/><path d="M200.554 86.559H565.25v-3.75H200.553z" fill="#d70e19"/><path d="M204.017 99.817h5.677v-2.358h-9.139v21.56h9.14v-2.475h-5.678v-7.539h5.677v-2.473h-5.677zm31.115-2.358v3.344l-3.944 9.379h3.944v2.594h-5.055l-2.63 6.243h-3.461l9.553-21.56zm-25.437 2.358h.419q5.257.002 5.259 3.177.14 3.653-5.259 3.538h-.419v2.473h.969q6.096 0 6.096 3.65-.142 3.77-5.405 3.889h-1.66v2.475h1.802c3.049 0 5.353-.784 6.924-2.357 1.198-1.102 1.795-2.434 1.795-4.007q.002-3.887-4.703-5.299c2.218-.864 3.321-2.358 3.321-4.479-.183-3.453-2.54-5.262-7.06-5.418h-2.079zm72.78 11.546 4.017-3.182 8.865 10.838h4.567l-10.938-12.844 10.665-8.716H294.8l-12.325 10.485V97.459h-3.462v21.56h3.462zm-14.014 3.534-12.743-17.438h-4.154v21.56h3.326v-17.438h.136l12.881 17.438h3.874v-21.56h-3.32zm-33.329-2.121v-2.594h3.944l-3.734-9.542h-.142l-.067.163v-3.345h2.282l9.14 21.561h-3.739l-2.492-6.243zm99.699-15.907v2.476q-8.445.354-8.861 8.95.416 8.369 8.861 8.723v2.351c-4.153 0-7.336-1.095-9.553-3.297q-2.774-3.296-2.913-7.777c.094-3.769 1.476-6.79 4.161-9.072 2.119-1.569 4.891-2.354 8.305-2.354m137.444 12.371h12.461v-2.594h-12.461V99.93h14.121v-2.47h-17.582v21.56h3.461v-9.779m-15.124 9.778h3.462v-21.56h-3.462v21.561zm-6.945-2.593h-15.233v-7.184h13.843v-2.594h-13.842V99.93h14.952v-2.47H431.51v21.56h18.696zm-40.46-15.317h.134l5.815 17.91h3.604l6.647-21.56h-3.739l-4.711 17.553h-.135l-5.677-17.553h-3.741l-5.677 17.553h-.141l-4.846-17.553h-3.597l6.645 21.56h3.598zm-52.729 8.132h12.46v-2.594h-12.46V99.93h14.122v-2.47h-17.585v21.56h3.463zm-22.186 10.129v-2.352q8.304-.474 8.865-8.722c-.373-5.653-3.33-8.64-8.865-8.95V96.87q5.674.001 8.999 3.061c2.127 2.358 3.231 5.15 3.327 8.365q-.144 4.834-3.186 8.013c-2.214 2.042-5.265 3.061-9.14 3.061m164.241-21.91v3.343l-3.944 9.379h3.944v2.594h-5.055l-2.628 6.243h-3.462l9.552-21.56zm55.101 12.487h7.752q.139 3.89-2.632 5.774-2.213 1.413-5.263 1.414-8.443-.001-8.442-8.953c.278-5.579 3.044-8.525 8.309-8.837 4.153.08 6.691 1.608 7.615 4.595h3.32c-.923-4.4-4.519-6.757-10.802-7.07-7.384.313-11.396 4.042-12.046 11.192-.088 3.848 1.247 6.87 4.016 9.072 1.846 1.493 4.481 2.235 7.896 2.235 3.597-.075 6.369-1.094 8.308-3.06l.832 2.71h2.215v-11.546h-11.078zm-21.771 4.95-12.744-17.438h-4.154v21.561h3.326v-17.438h.137l12.88 17.438h3.877V97.46h-3.321zm-33.33-2.121v-2.594h3.944l-3.735-9.541h-.141l-.068.162v-3.344h2.284l9.14 21.561h-3.74l-2.492-6.243z" fill="#231916"/></svg>