<svg width="128" height="128" fill="none" xmlns="http://www.w3.org/2000/svg"><path d="M39.632 100.407c7.618 5.746 17.253 9.015 27.488 9.015 16.627 0 31.22-9.005 39.167-22.395L85.399 65.956s-1.74 2.09-20.003 19.683C54.95 95.7 45.588 99.296 39.632 100.407m29.42-60.77c1.17 8.95 10.493 16.67 16.946 22.18l20.408-21.36a46 46 0 0 0-9.973-11.892c-6.353.745-17.894 3.073-27.38 11.072" fill="#d20819"/><path d="M44.404 61.601c1.868 0 6.435-2.533 20.608-17.915C75.096 32.74 89.133 29.43 96.432 28.564 88.466 21.837 78.242 18 67.027 18 52.82 18 40.094 24.525 31.7 34.724 33.755 50.139 42.8 61.6 44.404 61.6" fill="#c1101c"/><path d="M39.632 100.407c5.821-1.097 14.795-4.18 24.956-13.865-1.262-4.28-6.251-9.089-17.87-22.054a62 62 0 0 1-5.623-7.286C37.6 52.648 33.032 44.544 31.7 34.723c-6.428 7.909-10.2 18.087-10.2 29.08 0 14.932 7.134 28.233 18.132 36.604" fill="#b5151e"/></svg>