<svg width="128" height="128" fill="none" xmlns="http://www.w3.org/2000/svg"><path d="M74.38 36.15c-1.85-.3-3.752-.5-5.653-.65-2.101 2.101-4.553 4.503-7.054 6.954-13.558 13.408-14.008 13.908-14.158 14.108-3.052 3.653-3.052 8.455-1.551 11.257 1.4 2.602 3.702 4.302 6.354 4.803 3.201.6 6.704-.45 9.605-2.902.4-.3 1.3-1.3 3.552-3.752 1.651-1.751 4.103-4.403 4.553-4.803 1.1-.9 2.251-1.5 3.302-1.75 2.401-.601 4.453.45 5.553 2.8 1.3 2.652-.3 5.304-1.85 7.005-.801.9-12.658 12.557-22.414 22.163q2.776.45 5.703.6c7.655-7.554 19.061-18.76 19.962-19.761 3.502-3.853 4.453-8.105 2.601-11.957-2-4.203-6.153-6.254-10.556-5.154-1.65.4-3.352 1.301-5.003 2.602-.55.45-1.95 1.901-5.003 5.203-1.3 1.35-2.851 3.052-3.202 3.352-1.9 1.551-4.102 2.301-5.953 1.951-1.4-.25-2.551-1.15-3.352-2.601-.7-1.251-.8-4.003 1.05-6.254.951-1 16.01-15.86 23.515-23.214" fill="#b4b4b3"/><path d="M78.984 37.1c16.06 4.003 27.516 14.41 27.516 26.567 0 15.309-18.06 27.766-40.674 28.316 7.505-7.354 16.51-16.21 17.36-17.16 4.603-5.053 5.804-11.006 3.252-16.31-2.801-5.853-8.855-8.755-15.009-7.304-2.25.55-4.452 1.651-6.553 3.352-.75.6-1.902 1.801-5.454 5.603-1.05 1.101-3.852 4.053-3.952 4.153-.25.2-.6.35-.95.35-.801 0-1.451-.65-1.451-1.5 0-.401.15-.751.4-1.001.1-.05 18.36-18.06 25.515-25.065m-3.852 28.568s-15.71 15.359-25.365 24.764C33.307 86.48 21.5 76.074 21.5 63.767c0-15.41 18.56-27.917 41.675-28.267a337 337 0 0 0-4.353 4.252c-13.908 13.508-14.309 13.96-14.609 14.36-4.402 5.253-4.102 11.807-1.95 15.66 2 3.601 5.252 6.003 9.155 6.753 4.402.8 9.105-.55 12.957-3.752.55-.45 1.251-1.15 3.953-4.053a2627 2627 0 0 1 4.902-5.052c.25-.35.65-.6 1.151-.6.75 0 1.4.6 1.4 1.4-.05.5-.3.95-.65 1.2" fill="#0068b6"/></svg>