<svg width="452" height="128" fill="none" xmlns="http://www.w3.org/2000/svg"><path d="m333.191 90.561 13.019 12.944V91.041h3.858v20.614h-.483l-13.501-12.944v12.464h-3.376V90.561zm73.582.39c5.717 0 10.352 4.636 10.352 10.352s-4.635 10.352-10.352 10.352-10.351-4.635-10.351-10.352c0-5.716 4.634-10.351 10.351-10.351m-110.229-.39 5.304 12.465 4.34-11.985h3.375l-7.715 20.614h-.482l-4.822-12.464-4.822 12.464h-.482l-7.715-20.614h3.375l4.822 11.985zm127.782.48v11.505q0 2.877 1.447 4.315c.964.959 1.928 1.438 3.857 1.438 1.447 0 2.411-.479 3.376-1.438q1.446-1.438 1.446-4.315V91.041h3.376v11.506c0 2.876-.965 4.794-2.411 6.711-.965 1.438-3.376 2.397-5.787 2.397s-4.821-.959-6.268-2.397c-1.929-1.917-2.411-3.835-2.411-6.711V91.041zM151.601 92c2.293 0 3.699.026 5.106.958 1.446.96 1.928 1.918 1.928 3.835 0 .819-.102 1.67-.685 2.398-.583.727-1.243.958-2.208 1.438.965 0 3.375 1.676 3.375 5.273 0 1.918-.482 3.356-1.928 4.315q-2.17 1.438-5.787 1.438h-7.714V91.999zm32.109-1.439 13.501 12.944V91.041h3.858v20.614h-.482l-13.502-12.944v12.464h-3.375zm59.391.39c5.717 0 10.352 4.636 10.352 10.352s-4.635 10.352-10.352 10.352-10.351-4.635-10.351-10.352c0-5.716 4.634-10.351 10.351-10.351m135.416.09v8.15h10.126v-8.15h3.376v20.134h-3.376v-9.108h-10.126v9.109h-3.375V91.041zm-207.827-.48 10.608 20.614h-3.857l-1.447-3.355h-9.643l-1.929 3.355h-3.858zm39.541.48v9.108l8.679-9.108h4.34l-9.644 9.588 10.608 10.546h-4.822l-9.161-9.587v9.587h-3.858V91.041zm161.054 0-11.573 16.779h11.09v3.355h-16.877l11.573-17.258h-11.09v-2.876zm-43.398 0v3.356h-12.055v4.794h11.091v2.876h-11.091v5.753h12.055v3.355h-15.43V91.041zm-54.971 0v3.356h-11.09v4.794h11.09v2.876h-11.09v9.108h-3.858V91.041zm-121.031 11.026h-4.34v6.232h4.34c1.446 0 2.411-.479 2.893-.959.482-.479.964-.958.964-1.917s-.482-1.918-.964-2.397c-.482-.48-1.929-.959-2.893-.959m254.888-7.209a6.446 6.446 0 1 0 .001 12.891 6.446 6.446 0 0 0-.001-12.891m-163.672 0a6.446 6.446 0 1 0 .001 12.891 6.446 6.446 0 0 0-.001-12.891m-72.411 2.415-3.375 7.191h6.751zm-18.805-3.356h-4.34v5.753h4.34c.964 0 1.696-.312 2.411-.959.714-.647.964-1.438.964-2.397s-.482-1.438-.964-1.917c-.483-.48-1.447-.48-2.411-.48m90.171-70.544v29.44c0 10.92-4.34 21.84-7.715 25.64h-9.162c.964-2.375 2.411-4.274 3.375-6.648 2.411-5.698 4.34-11.871 4.34-19.468V23.373zm68.954.574-.965 3.855H322.1v6.265h-13.501l-1.929 5.783h15.43v6.265h-9.643v8.193h9.643v6.264h-9.643V72.62h9.643v5.783h-18.323v-17.83h-7.233v-6.265h7.233v-7.23h-8.197c2.353-6.585 5.166-14.55 7.093-22.546l.139-.585zm82.456 14.458c-.933 2.794-2.766 6.04-4.63 8.865l-.193.29v30.843h-8.679v-20.24h-9.162c5.679-5.676 9.965-11.816 13.769-19.332l.215-.427zM263.754 22.982v15.421h7.715l4.822 16.867V22.983h8.68v55.42h-8.679V56.235h-8.198l-4.34-15.903v38.071h-9.161V56.235h-7.715l-4.822-17.83h8.197l4.34 16.866V22.983zm96.922.482V52.38h-15.43c1.446 4.337 3.858 8.192 5.786 12.048 2.835-1.417 6.597-4.222 10.377-7.963l.231-.23v8.674c-2.41 1.446-4.339 3.374-7.232 4.82 1.876 3.282 4.209 6.108 7.443 8.478l.272.196h-10.127c-4.339-4.82-8.197-10.602-12.054-18.313-1.35-2.699-2.281-4.978-3.575-7.62l-.283-.572h-2.411v19.758c2.368 0 7.526-1.395 9.081-1.901l.081-.027 3.375 5.301c-.964.482-5.456 1.46-7.233 1.928-4.256.945-8.049 1.427-14.107 1.445h-.359V23.466zm77.152 17.952v6.172h-6.269v28.014c0 1.9-.964 2.374-2.411 2.374h-17.841v-6.172h11.572v-24.69h-25.556v-5.698zm-279.675 10.92-5.304 25.64h-8.679l4.822-25.64zm50.149 0V72.28h2.893v5.698h-53.042V72.28h3.858V52.338zm-8.68 6.173h-5.304v13.77h5.304zm-13.019 0h-4.822v13.77h4.822zm-12.055 0h-4.822v13.77h4.822zm57.381-20.105-3.375 17.83h-7.715l2.893-17.83zm-78.598-1.262 4.822 11.87h-9.161l-5.304-11.87zm53.524-13.77v25.64h-44.362v-25.64zm145.624 17.44h-19.288v5.302h19.287zm-154.304-1.77h-27.002v3.798h27.002zm193.362-15.67c-2.893 6.648-8.198 15.195-11.573 18.519h-9.162c3.857-4.749 8.198-10.446 11.573-18.518zm-238.206 0 4.822 11.871h-9.161l-4.822-11.87zm199.148 6.839h-19.288v4.819h19.287zm-154.304-.666h-27.002v3.799h27.002zm237.242-4.748v6.173h-36.165v-6.173z" fill="#000"/><path d="m84.936 14-6.698 9.147-32.531 42.367L65.32 80.92l13.874-17.813h40.664l-16.744 22.146-9.09 11.555c-.478.481-3.827 4.333-4.784 5.296-1.435.962-2.87 2.407-4.305 3.369-2.393 1.926-4.784 2.889-7.177 4.334-17.222 8.184-39.228 4.333-52.624-11.073-14.352-16.85-14.83-39.96-1.435-57.292L44.271 14zM126.5 26.5 99.156 62.047l-11.719-9.252 20.02-26.295zm-25.391 0-17.52 23.047-12.167-9.123L82.615 26.5z" fill="#f9b71f"/></svg>