<svg width="487" height="128" fill="none" xmlns="http://www.w3.org/2000/svg"><path d="M14.27 69.316c-.18-1.75-.27-3.544-.27-5.338 0-1.75.09-3.5.27-5.205h34.544v10.543zM64.425 14c24.72 0 45.267 17.631 49.574 40.915H65.862v18.529h48.093C109.514 96.548 89.011 114 64.426 114S19.384 96.548 14.897 73.489H48.77V84.03H31.676a38.52 38.52 0 0 0 32.75 18.17 38.52 38.52 0 0 0 32.75-18.17h-42.71V44.372h42.98a38.56 38.56 0 0 0-33.02-18.528c-14.042 0-26.245 7.402-32.974 18.528h17.362v10.184H14.897C19.384 31.452 39.841 14 64.427 14" fill="#e50113"/><path d="M161.69 62.9c1.032-3.993 1.57-6.685 1.57-8.076 0-.987-.673-2.423-2.019-4.262-1.704-2.378-2.557-4.486-2.557-6.37 0-.808.269-1.66.853-2.513.583-.852 1.48-1.705 2.781-2.512 4.038-2.423 6.057-4.217 6.057-5.429 0-.269-.09-.538-.314-.762-1.077-1.167-1.84-2.288-2.289-3.275-.448-.987-.897-1.705-1.301-2.154q-.672-.672-.672-.942c0-.18.134-.27.403-.224.269 0 .763.18 1.57.538.763.359 1.66.673 2.647.897 3.32.808 5.653 1.795 7.089 2.961 1.391 1.167 2.108 2.872 2.108 5.07 0 .628-.089 1.032-.314 1.256-.224.224-.673.404-1.39.583-.718.18-1.301.27-1.795.27l-1.166-.09c-.539 0-1.032.18-1.526.538-.493.359-.942.538-1.391.538-.448 0-.852-.134-1.301-.403q-.605-.405-2.018-.404c-.943 0-1.974.314-3.096.897-1.122.628-1.705 1.167-1.705 1.66 0 .494.135 1.032.449 1.615s1.032 1.39 2.198 2.423c1.122 1.032 2.198 2.333 3.185 3.858.987 1.57 1.481 2.916 1.481 3.993s-.404 1.884-1.256 2.378c-.808.448-1.615 1.57-2.423 3.32-.852 1.794-2.108 3.32-3.858 4.62m23.912 2.557c1.57 0 3.679-.135 6.326-.494s4.71-.763 6.056-1.256c1.391-.494 2.916-.718 4.576-.718 1.705 0 3.544.628 5.653 1.795 2.064 1.21 3.096 2.647 3.096 4.351q0 2.557-2.423 2.557-.471 0-1.077-.134c-2.377-.494-5.249-.718-8.569-.763-1.39 0-3.23.09-5.473.36-2.243.224-3.813.493-4.711.717a8.1 8.1 0 0 0-2.467 1.077c-.763.493-1.391.718-1.974.718-1.301 0-2.557-.987-3.724-2.872-1.166-1.884-1.794-4.037-1.794-6.415 0-.314.045-.673.09-.987.583-3.59.852-7.268.852-11.081 0-3.814-.09-6.102-.269-6.954q-.27-1.211-.269-2.019c0-1.705.448-3.32 1.346-4.8q1.345-2.289 3.903-3.5c-1.481-.897-2.244-1.66-2.244-2.198 0-.583.763-.897 2.333-.942s3.41-.404 5.653-1.032c2.198-.628 3.724-1.211 4.576-1.794.853-.584 1.884-.853 3.051-.853 2.019 0 3.634.539 4.8 1.615 1.211 1.077 1.795 1.93 1.795 2.602 0 .853-.898 1.391-2.647 1.705a10.5 10.5 0 0 0-2.871.852c-.987.404-2.423 1.257-4.262 2.468-1.077.718-2.333 1.032-3.679 1.032-1.391 0-3.23-.942-5.563-2.782q-1.615.068-1.615 1.346 0 .471.269 2.288.269 1.818.673 2.961c.269.763.628 1.39 1.077 1.93.448.538.717 1.749.717 3.633 0 1.93-.134 3.59-.403 5.07-.629 3.185-.898 7.402-.808 12.517m-24.092-2.199q0 1.481 1.481 2.827c.987.897 1.66 1.346 1.974 1.346s.673-.225.987-.629c.314-.403.807-1.435 1.57-3.05q1.077-2.423 1.481-3.769c.269-.897.493-1.39.673-1.39.179 0 .314.493.448 1.435.135.942.18 2.019.18 3.23 0 1.212-.18 2.647-.539 4.262q-.538 2.49-.538 3.769l.314 4.396c0 .494-.179.853-.493 1.167-.359.314-.718.448-1.212.448q-1.413 0-3.499-2.557c-1.391-1.705-2.288-3.41-2.737-5.07-.404-1.66-.628-3.005-.628-3.947 0-.987.18-1.795.538-2.468m73.621-23.015c.897-2.243 9.152-6.909 24.809-13.952 1.122-.494 1.705-1.032 1.705-1.615s-.135-1.077-.449-1.525c-.314-.449-.448-.808-.448-1.032 0-.225.269-.36.807-.36.539 0 1.526.315 3.006.943 1.436.628 2.737 1.615 3.903 3.05q1.75 2.087 1.75 2.693c0 .403-.314.762-.897 1.031-.584.27-1.705.718-3.32 1.257s-2.916.852-3.858.807l-1.301-.09q-2.625 0-10.902 2.558c-5.518 1.75-10.453 3.813-14.805 6.235m39.659 9.646c2.781-2.826 5.518-4.576 8.165-5.249a21 21 0 0 0 2.647-.942c.942-.404 1.48-.718 1.705-1.032.538-.583 1.615-.852 3.32-.852.807 0 1.66.224 2.467.628s1.795 1.121 2.961 2.108c1.167.987 1.884 1.75 2.154 2.244.269.493.448 1.166.448 2.018 0 .853-.179 1.48-.493 1.885-.359.403-.673.942-1.032 1.57-.359.673-.583 1.211-.718 1.705a5.2 5.2 0 0 1-.718 1.525c-.359.538-.718.942-1.032 1.166-1.076.763-1.66 1.616-1.704 2.602.583.18 1.031.584 1.345 1.122.314.583.494 1.166.494 1.84 0 .672-.314 1.121-1.032 1.435-.673.314-1.301.449-1.884.449s-1.391-.09-2.423-.18a23 23 0 0 0-3.05-.18c-2.872 0-5.115.584-6.775 1.795-.359 1.301-.942 1.974-1.705 1.974q-1.547 0-3.499-2.288c-1.301-1.525-2.064-3.185-2.333-4.98-.673-4.934-1.435-8.21-2.243-9.87-3.32 5.025-7.133 9.153-11.485 12.383-.09 2.467.09 5.024.583 7.761.494 2.737.718 4.89.718 6.55q0 1.077-.538 1.077c-.583 0-1.57-.987-2.961-2.916-1.391-1.93-2.109-3.41-2.109-4.397 0-.314.09-.628.224-.897.135-.27.225-.718.225-1.39q0-1.01-.135-2.827c-3.768 2.647-5.787 4.082-5.967 4.262q-.336.27-.538.269c-.538 0-.987-.449-1.346-1.39-.404-.943-.583-2.154-.583-3.725 0-2.422.449-3.723 1.301-3.903 1.615-.314 2.916-.807 3.948-1.48s2.064-1.615 3.051-2.782c.089-2.602.224-4.98.403-7.222-1.974 1.794-3.903 3.14-5.742 4.082-1.884.942-3.32 1.39-4.442 1.39-1.076 0-1.974-.179-2.602-.582a35 35 0 0 1-2.512-1.616c-1.032-.673-1.974-1.704-2.871-3.005a23 23 0 0 1-1.884-3.23c-.359-.853-.539-1.57-.539-2.11 0-.537.045-.986.09-1.39.045.718.763 1.705 2.198 3.05 1.391 1.347 2.513 2.02 3.32 2.02.808 0 2.333-.539 4.531-1.57q3.298-1.548 11.71-6.192c.314-3.813.852-6.101 1.615-6.908.762-.763 1.346-1.167 1.749-1.167.404 0 1.032.628 1.974 1.84.942 1.21 1.436 2.422 1.57 3.544a5.5 5.5 0 0 1 1.302-.135c.538 0 1.031.27 1.48.763s.718 1.166.718 2.018c0 .853-.449 1.436-1.301 1.705-1.75.539-2.961 1.167-3.634 1.84a5.46 5.46 0 0 0-.853 2.736c1.795.943 2.737 1.974 2.737 3.006 0 1.077-.314 2.333-.942 3.858 2.692-1.794 4.8-3.589 6.371-5.428-.314-.583-.449-1.077-.449-1.48 0-.404.135-.763.449-1.077q.471-.405.942-.404c.628.18 2.333 1.66 5.159 4.576m4.352 8.524c3.454-.18 5.967-1.301 7.492-3.41q2.288-3.162 2.288-5.518c0-.538-.18-.762-.494-.762s-.673.09-1.031.269q-2.557 1.346-4.98 2.019c-2.064.583-3.769 1.525-5.07 2.781-.179 2.198.449 3.724 1.795 4.621m88.515 3.724c6.774 1.75 10.991 2.96 12.606 3.634s2.961 1.794 4.038 3.32 1.615 2.781 1.615 3.633c0 .853-.449 1.346-1.301 1.346-.583 0-1.211-.224-1.929-.717-5.473-3.41-10.049-5.608-13.683-6.595-1.974 2.153-4.083 4.665-6.281 7.492-2.243 2.826-3.589 4.755-4.083 5.697-.493.942-1.121 1.391-1.884 1.391-.987 0-2.333-1.032-4.083-3.05-1.749-2.02-2.602-5.608-2.602-10.723 0-5.16.449-10.229 1.391-15.208.808-4.487 1.256-8.12 1.256-10.902 0-.673-.089-1.077-.224-1.301-.135-.225-.449-.36-.808-.404-.403-.045-.717-.314-.987-.852-.269-.539-.358-1.212-.314-2.064-1.121.628-2.467 1.346-3.992 2.288-1.526.897-2.378 1.48-2.558 1.66a.92.92 0 0 0-.269.673q0 .404 1.077.807c.718.27 1.391.763 1.929 1.391.583.628.852 1.256.852 1.884 0 .584-.403 1.032-1.166 1.391s-1.795 1.122-3.006 2.288-1.839 1.884-1.839 2.198c0 .225.448.494 1.391.718a5.1 5.1 0 0 1 2.332 1.256c.628.584.943 1.212.943 1.795 0 .628-.225 1.032-.718 1.211-2.109.853-3.724 1.57-4.801 2.154-.628 2.826-1.121 4.71-1.525 5.697s-.583 1.526-.583 1.75c0 .18.09.27.224.27.224 0 1.167-.674 2.916-1.975 1.75-1.3 2.737-2.198 3.051-2.692.314-.493.628-.718.897-.718s.449.27.449.763c0 1.122-.583 2.961-1.75 5.474-1.166 2.512-2.467 4.396-3.858 5.697-.718.673-1.167 1.75-1.301 3.32-.09.942-.538 1.436-1.256 1.39-1.032 0-2.064-.582-3.096-1.66-1.032-1.12-1.57-2.826-1.57-5.158a10 10 0 0 1 .314-2.558c.538-2.736.763-4.89.763-6.505a20.2 20.2 0 0 1-4.576 2.154c-1.571.493-2.782.717-3.679.717s-1.481-.134-1.705-.358c-.224-.225-.359-.673-.359-1.302 0-.628.135-1.525.404-2.646.269-1.122.673-1.75 1.256-1.84 1.391-.359 3.14-1.346 5.294-2.916 2.108-1.57 3.185-2.737 3.185-3.5 0-.313-.134-.538-.448-.582-1.75-.494-3.051-1.257-3.859-2.244s-1.211-1.66-1.211-1.974c0-.269.314-.493 1.032-.628 1.705-.359 3.813-1.435 6.37-3.14 2.558-1.75 3.814-2.782 3.814-3.185 0-.404-1.57-.808-4.756-1.257-3.005 4.083-6.146 7.627-9.466 10.678-3.32 3.006-5.608 4.531-6.909 4.531-.583 0-.942-.314-1.166-.987s-.314-1.211-.314-1.615.134-.897.448-1.436c.27-.538.629-.852 1.032-.897.404-.09.808-.27 1.256-.538q.673-.471 4.576-5.518c2.603-3.365 5.07-6.64 7.358-9.825 2.288-3.186 3.679-5.384 4.217-6.595.539-1.212.808-2.154.808-2.916q0-1.077-.135-1.616c-.09-.358-.134-.583-.134-.717 0-.135.089-.18.224-.18.359 0 1.615.718 3.813 2.109 2.199 1.39 3.275 3.095 3.275 5.025q0 1.21-.538 2.018c-.359.539-1.66 1.705-3.903 3.544 2.467-.493 4.486-1.121 5.967-1.884.673-.314 1.345-.493 2.018-.493q2.692 0 4.442 3.5 1.816-.741 2.961-.54c1.121-1.166 2.737-2.422 4.8-3.678 2.064-1.301 3.724-2.198 4.935-2.782 1.211-.583 2.378-.852 3.544-.852 1.122 0 1.885.27 2.199.763s.942 1.121 1.884 1.84c.942.717 2.064 1.39 3.275 2.018 1.211.583 1.839 1.615 1.839 3.006 0 .673-.269 1.48-.852 2.467-3.993 7.089-5.967 11.306-5.967 12.652.897.314 1.301.807 1.301 1.346 0 .942-.942 1.525-2.781 1.704-3.231.314-5.967 1.301-8.255 2.916-1.077.808-2.782 1.75-5.115 2.872-.762 2.691-1.166 5.697-1.166 9.107 0 3.365.269 5.07.763 5.07.717 0 4.127-2.378 10.184-7.089a16.8 16.8 0 0 0-3.904-.583c-1.301-.045-2.288-.314-2.826-.718-.583-.449-.852-.987-.852-1.615 0-.583.224-1.301.717-2.243.494-.897 1.257-1.391 2.289-1.346 1.345 0 3.23-.673 5.652-2.064 2.423-1.39 3.814-2.692 4.217-3.903.314-.852.853-1.256 1.615-1.256.763 0 1.705.359 2.872.987q1.749 1.01 1.749 2.557c0 .808-.359 1.39-1.031 1.75-.763.09-3.5 1.75-8.255 4.62M367.791 38c.539-2.019.763-3.454.763-4.262q0-1.21-.404-1.211c-.269 0-.583.18-1.032.538-.403.36-1.704.943-3.903 1.795s-3.454 1.211-3.903 1.166c-.404-.09-.763-.09-1.077-.134-.314 0-.717.224-1.166.718.09.224.135.672.135 1.256 0 .583-.135 1.615-.404 2.96 2.692-1.614 4.262-2.646 4.755-3.05.449-.404 1.122-.583 2.019-.583.987 0 2.378.269 4.217.807m-1.39 5.025c-2.961 2.961-5.878 5.653-8.794 8.075-.269.225-.403.404-.403.494s.089.134.224.134.404-.09.718-.269c2.333-1.435 4.127-2.153 5.428-2.153a37 37 0 0 0 2.827-6.281m-9.108 3.5c0 .807-.045 1.435-.089 1.839.897-.808 1.301-1.301 1.301-1.57s-.135-.36-.404-.36c-.18 0-.494.046-.808.09m66.443-8.614a14 14 0 0 0-3.365 1.031c-1.032.45-1.795.718-2.423.673-.583 0-.987-.493-1.121-1.48a22 22 0 0 1-.225-2.961c0-.987.225-1.84.673-2.602q.673-1.145 1.615-1.211 2.02-.135 4.442-1.75 2.423-1.616 2.423-4.172 0-1.212 1.076-1.212c1.75 0 3.5.763 5.159 2.244 1.705 1.48 2.513 3.05 2.513 4.71q0 2.49-2.019 2.557c-2.243.135-3.993.763-5.384 1.885 2.737 2.736 4.128 5.159 4.128 7.267 0 .943-.404 1.66-1.167 2.064-.762.449-1.435.942-2.018 1.436-.584.493-1.705 1.704-3.32 3.589.045 1.794.089 3.23.089 4.262s-.089 1.929-.314 2.602c-.897 3.14-1.301 5.608-1.301 7.357 0 .36.09.718.269 1.032s.359.449.539.449c.179 0 .314-.224.359-.718 1.121-6.101 2.019-9.107 2.647-9.107.134 0 .224.134.224.404 0 .269-.179 1.076-.493 2.422-.359 1.346-.494 2.468-.494 3.365l.135 1.615c0 1.705-.18 3.455-.584 5.249-.403 1.795-.538 2.916-.493 3.365.045.448.09.852.09 1.256 0 1.211-.359 1.84-1.077 1.84s-1.66-.988-2.782-3.007c-1.121-1.974-1.704-4.082-1.704-6.325q0-.875.134-1.615c.449-2.557.763-5.967.942-10.274-4.351 4.172-7.402 6.595-9.197 7.268s-2.916.987-3.32.987c-.448 0-.672-.27-.672-.852 0-.584.134-1.436.403-2.603.269-1.166.628-2.153 1.122-2.87.493-.719.897-1.078 1.301-1.078.135 0 .224.225.224.584 0 .403.045.583.135.583.359 0 1.525-.987 3.544-3.006 1.974-2.019 3.589-3.724 4.8-5.114a78 78 0 0 0 3.769-4.711c1.301-1.75 1.974-3.006 1.974-3.768-.18-.629-.539-1.257-1.256-1.66m20.278 6.505c8.569-2.782 14.356-4.172 17.496-4.128 2.199 0 3.859.628 5.07 1.885 1.211 1.256 1.839 2.288 1.839 3.095 0 1.122-1.166 1.705-3.499 1.66l-7.761-.27c-.898 0-1.885 0-2.961.046q1.009.471 1.346.942c.224.27.359.763.359 1.48l-.135 3.41c-.09 1.301-.135 3.32-.135 6.012s.045 5.428.18 8.165c.134 2.781.179 4.352.179 4.71 0 2.154-.314 3.769-.942 4.756a30 30 0 0 1-1.705 2.422c-.538.629-.987.943-1.435.943q-.673 0-2.423-1.212c-1.166-.807-3.14-2.333-5.922-4.62-2.781-2.289-4.621-3.859-5.563-4.756s-1.391-1.39-1.391-1.48c0-.135.045-.18.135-.18.135 0 .493.18 1.032.493 1.705.943 3.454 1.705 5.204 2.244 1.75.538 3.185.852 4.262.852 2.243 0 3.32-.987 3.32-3.006q0-.606-.404-6.999c-.269-4.217-.404-7.222-.404-8.972 0-.763-.314-1.301-.897-1.615s-2.019-.673-4.307-1.122c-4.576 2.737-7.716 4.128-9.421 4.128q-2.557 0-2.557-4.038c0-2.064.897-3.32 2.736-3.679q1.413-.27 4.442-2.692c2.019-1.615 4.352-3.858 6.998-6.774-1.211-1.346-2.108-2.288-2.781-2.871s-1.301-.853-1.884-.853c-.584 0-1.346.36-2.288 1.032-.942.718-1.526 1.032-1.66 1.032-.135 0-.225-.045-.225-.135 0-.269.673-1.166 2.019-2.601s2.199-2.288 2.557-2.468.808-.27 1.346-.224c.539.045 1.167.09 1.84.09s1.525-.27 2.602-.763c1.077-.494 2.153-.763 3.32-.763 1.121 0 2.243.449 3.32 1.301s1.615 1.66 1.615 2.468c0 .762-.628 1.704-1.885 2.781-6.774 6.101-10.363 9.511-10.632 10.274m-295.334 8.3c-.18-.18-.314-.36-.494-.45a4 4 0 0 0-1.256.18c-.404.135-.628.18-.673.225-.045.044-.09.09-.09.179.763-.09 1.615-.135 2.513-.135m-2.782-1.302v-.18c-.224.046-.449.046-.628.046a.58.58 0 0 1-.449-.18c-.044.09-.044.18-.044.27s.044.224.179.448q.606-.068.942-.404m1.974-.807c-.224.09-.359.18-.449.314-.089.135-.269.27-.448.359v.18q.269-.135.404-.135a.6.6 0 0 1 .269.044c.134-.179.224-.448.224-.762m-5.518-.628c-.359.673-.718 1.211-1.077 1.75q-.538.74-.807 1.21a.7.7 0 0 0 .359.09c.134 0 .314-.044.493-.09.18-.044.314-.179.404-.358.09-.18.179-.449.314-.853.09-.448.224-1.031.314-1.75m3.544.224c0-.135 0-.224-.045-.27-.538.136-.942.27-1.166.45v.09c0 .179.045.313.179.448.494-.449.853-.673 1.032-.718m2.064.224c.09-.224.179-.448.179-.628s0-.269-.045-.314c-.044-.045-.089-.09-.179-.09-.09-.044-.18-.044-.314-.044-.359 0-.628.045-.808.18 0 .089.045.179.045.224.18-.045.314-.045.404-.045s.179.044.224.134.09.224.09.404c.224.045.359.135.404.18m-2.378-1.3c-.045 0-.09-.046-.179-.09-.404.18-.763.403-.987.583 0 .224 0 .314.044.359.359-.27.629-.449.898-.583 0-.09.089-.18.224-.27m-3.275.179a1.6 1.6 0 0 0-.135-.628c-.089-.18-.179-.27-.314-.27-.134 0-.403.135-.852.36.179.224.269.448.269.628.225.134.314.269.314.358 0 .09-.045.225-.179.404-.135.135-.225.404-.314.763.628-.673.987-1.211 1.211-1.615m6.057-.987h-.225c-.493 0-1.211.134-2.063.448v.135h.269zm-1.077-.538c-.045 0-.09-.045-.18-.045-.224 0-.583.09-1.031.224q-.673.202-1.077.404v.134zm-1.57-.45v-.224c-.449 0-.763 0-.987-.09v.225c0 .09.045.224.134.359zm1.839-.986c-.404 0-.718.09-.987.269 0 .135 0 .27-.045.449.18-.045.359-.045.494-.045h.314c.134-.18.224-.404.224-.673m-1.929-.224c0-.135-.045-.27-.135-.315h-.493c-.135 0-.269.045-.314.09q-.135.068-.135.404l.045.09zm2.153-.18c.045-.135.09-.224.09-.404a.5.5 0 0 0-.134-.359.5.5 0 0 0-.359-.134c-.18 0-.404.09-.673.314v.224h.179a.97.97 0 0 1 .897.36m.449 6.146c.269.18.449.27.538.36s.27.134.539.224c.269.044.538.224.762.448.27.224.359.404.359.494s-.089.134-.314.134c-.224 0-.404 0-.583-.045-.135-.044-.314-.09-.449-.179-.314-.224-.852-.314-1.615-.314a5.9 5.9 0 0 0-1.974.359c-.628.269-1.166.493-1.66.718-.089.09-.179.09-.314.09-.134 0-.224-.09-.403-.225-.135-.135-.225-.27-.225-.359 0-.09.045-.18.135-.224a.85.85 0 0 1 .359-.09c.134 0 .404-.045.807-.18.404-.134.808-.269 1.346-.493v-.134c-.314 0-.538 0-.673-.09-.134-.09-.224-.225-.314-.449-.224-.09-.359-.269-.448-.583q-.135-.404-.27-1.615c-.044 0-.089-.045-.179-.045s-.135 0-.224.045c-.09.673-.18 1.211-.314 1.66-.135.448-.27.852-.449 1.3-.179.45-.314.719-.449.808a.39.39 0 0 1-.314.18c-.089 0-.179 0-.269-.045s-.224-.045-.404-.09a2.2 2.2 0 0 1-.583-.18 2 2 0 0 1-.493-.358.5.5 0 0 0-.27.09c-.089.044-.134.09-.269.09-.089 0-.179-.09-.269-.225q-.135-.202-.134-.538c0-.404.179-.628.493-.718.135-.045.269-.09.359-.18q.135-.135.269-.403c-.179 0-.404.044-.628.044q-.337 0-.673-.269c-.224-.18-.359-.314-.359-.403 0-.18.135-.27.449-.36q.471-.067.942-.403c.09-.135.179-.27.134-.404-.134 0-.269.09-.448.224-.135.045-.269.135-.449.135-.314 0-.493-.18-.493-.583 0-.27.089-.494.224-.673a.98.98 0 0 1 .628-.359c.269-.045.449-.135.628-.27.135-.134.314-.358.539-.627.224-.27.314-.449.314-.494s0-.045-.045-.045q-.068 0-.269.135l-.539.493c-.269.27-.448.36-.628.36a.72.72 0 0 1-.493-.225c-.135-.135-.18-.314-.18-.493q0-.27.135-.673c.089-.27.224-.404.359-.404h.179c.135 0 .269-.09.449-.224.179-.135.448-.494.852-.988-.314-.314-.583-.583-.718-.852-.179-.224-.224-.404-.224-.448q0-.067.135-.135c.089-.045.179-.045.314-.045h.403c.27 0 .449-.045.584-.18.134-.134.314-.179.538-.179.314 0 .628.135.942.359s.449.449.449.718a.41.41 0 0 1-.18.359c-.314.224-.717.628-1.211 1.166.359.09.583.18.718.27.134.09.179.179.179.313q0 .203-.134.404c-.09.135-.314.449-.673.897q.336 0 1.076.404l.539-1.076c-.045.358-.18.807-.359 1.3q.135.135.269.404c.09.18.135.27.135.314.089 0 .224 0 .314-.044.089-.045.359-.135.718-.27-.404-.314-.629-.628-.673-.987s-.135-.673-.314-.942c-.18-.269-.27-.493-.27-.763 0-.269.09-.448.225-.628.179-.179.628-.538 1.39-1.031a.57.57 0 0 0-.179-.45.58.58 0 0 0-.449-.178l-.269.09c-.09 0-.179 0-.314-.046-.09-.044-.179-.09-.179-.134s.134-.135.359-.225c.269-.09.493-.134.673-.179.224 0 .538-.09 1.031-.224.494-.135.853-.314 1.167-.449a1 1 0 0 1 .448-.09c.225 0 .404.045.629.135s.314.224.314.359-.045.269-.135.359-.224.134-.359.18a2.9 2.9 0 0 0-1.121.448.9.9 0 0 1-.359.18c-.18.089-.359.134-.539.179-.179.045-.538.224-1.076.583-.539.314-.808.493-.853.538s-.045.09-.045.135 0 .09.045.09c.135.09.269.269.404.493 0-.27.09-.493.179-.583.09-.09.314-.224.628-.359.045-.224.27-.314.629-.359.538-.18.852-.314 1.031-.359.135-.045.225-.134.314-.269.045-.09.18-.135.314-.135.135 0 .449.09.763.225.359.134.583.359.763.583.179.224.269.449.269.628q0 .27-.269.538c-.18.18-.449.763-.763 1.795.404-.045.763-.09 1.077-.09s.583.09.763.27q.269.268.269.403t-.269.135h-.359c-.404 0-.943.134-1.526.359.359.044.628.18.898.493.269.27.403.494.403.628a.41.41 0 0 1-.134.314 2.3 2.3 0 0 0-.494.808c-.224.583-.404.897-.583.852.045.135 0 .18 0 .27m-4.845-15.343c-.135 0-.225.135-.269.36.089.089.134.134.269.089.045-.09.045-.18.045-.27-.045-.044-.045-.09-.045-.179m0-1.39c-.539.269-.897.448-1.122.627q0 .203.135.404c.179-.045.359-.134.538-.224s.314-.18.359-.27a.6.6 0 0 0 .09-.268zm2.108-.718c-.403.044-.807.179-1.166.314v.358c0 .18 0 .36.045.494.089.045.179.045.314.045q.606-.539.807-1.211m.359-.763c.09-.224.18-.538.18-.987s0-.718-.045-.853a.52.52 0 0 0-.224-.314c-.09.225-.27.404-.494.45-.224.044-.314.134-.314.268.269 0 .404.045.449.135.044.045.089.18.089.314s-.045.27-.089.314c-.045.045-.18.134-.449.224s-.404.225-.404.36c.359-.09.628-.09.808-.09.179 0 .314.09.493.179m-3.275-2.871a.82.82 0 0 0-.448.314c.044.045.089.045.134.045s.135-.045.225-.09c.089-.045.089-.135.089-.18zm7.044.718c.224-.09.448-.18.628-.18.179 0 .404.09.628.27.224.179.359.313.359.403s0 .18-.045.27a.6.6 0 0 1-.135.179c-.044.044-.089.044-.179.044h-.18c-.089 0-.224.045-.448.09a2.1 2.1 0 0 0-.673.27c0 .627 0 1.39.045 2.287l.089 2.199c0 .448-.044 1.032-.134 1.705-.09.672-.135 1.076-.18 1.256-.044.134-.089.224-.134.224-.09 0-.135-.18-.224-.494-.045-.358-.18-1.21-.27-2.646-.134-1.436-.224-2.782-.224-4.083a9.7 9.7 0 0 0-1.615 1.122c-.09 1.704-.269 2.512-.494 2.512q-.066 0-.134-.135c-.135-.314-.224-.538-.359-.762-.135-.225-.179-.404-.135-.628 0-.18.045-.494.045-.943a12.4 12.4 0 0 1-.583 1.66v.18q0 .404-.404.404c-.179 0-.359-.045-.628-.18v.673c0 .314 0 .628-.045.942s-.089.449-.179.449-.18-.135-.314-.404c-.224-.493-.494-.852-.808-1.122-.314.36-.538.539-.718.539s-.314-.09-.403-.314c-.135-.18-.225-.494-.359-.897a5 5 0 0 0-.628.448c-.225.18-.359.314-.449.404q-.135.135-.269.135-.135 0-.538-.135c-.27-.09-.449-.135-.539-.18s-.134-.134-.134-.179c0-.09 0-.18.044-.27.045-.089.045-.179.09-.179.045-.044.09-.044.18-.044.224-.045.538-.18.942-.494s1.166-.763 2.243-1.48q-.203-.203-.942-.27c-.18 0-.314-.044-.359-.09-.09-.044-.09-.134-.09-.224s0-.18.045-.224.09-.09.224-.09q.338-.067 2.019-.807c0-.135 0-.27.045-.314.045-.045.135-.09.314-.135.18-.045.314-.18.538-.359.18-.224.27-.359.27-.448q-1.144.537-1.615 1.21c-.135.18-.27.225-.404.225-.135 0-.269-.09-.359-.269a1.24 1.24 0 0 1-.135-.583c0-.18.09-.449.269-.718-.134.045-.269.045-.403.045-.314 0-.628-.18-.898-.494-.269-.314-.403-.538-.403-.628q0-.135.134-.134c.09 0 .135 0 .225.045.089 0 .134.044.179.044.224 0 .852-.224 1.795-.628-.18-.09-.225-.18-.225-.224s.045-.09.18-.134c.134-.045.269-.09.448-.18q.27-.135.404-.27c-.179-.448-.359-.762-.493-.852a.6.6 0 0 1-.135-.179c-.224-.224-.224-.314-.224-.404q0-.135.134-.134c.09 0 .135 0 .225.044.179.09.448.135.762.18.718.09 1.122.538 1.301 1.346.449-.045.718.134.718.493 0 .09-.045.18-.09.225q-.067.066-.403.269c-.539.269-.898.583-1.122.852.179-.045.314-.045.449-.045.134 0 .269.045.448.09.18-.134.404-.224.628-.27 1.122-.986 1.795-1.659 1.974-2.018-.314.18-.448.224-.538.224s-.135 0-.135-.044c0-.045.09-.18.314-.314.18-.135.404-.225.584-.225s.403.135.673.36c.224.223.359.403.359.582 0 .18-.225.449-.629.808-.403.359-.987.763-1.749 1.121 0 .09 0 .18.045.27s.089.134.134.179c.18.045.314.224.314.449q0 .202-.134.403c-.09.135-.135.36-.09.718l1.57-.942a.5.5 0 0 0-.134-.359c-.045-.045-.045-.09-.045-.18 0-.089.089-.179.224-.313a.55.55 0 0 1 .404-.18.55.55 0 0 1 .404.18q.201.135.269.404m3.095 68.82h-5.159l-4.576-5.653-4.576 5.653h-5.07l6.685-7.672-6.236-7.761h4.89l4.307 5.742 4.127-5.742H152l-6.236 7.76zm3.006 0h4.128V85.107h-4.128zm25.303 0h-3.948l-8.659-10.409v10.409h-4.127V85.017h4.127l8.524 10.857V85.017h4.128v15.523zm3.993-1.436V96.86c1.974 1.346 3.903 1.974 5.697 1.929q4.442.135 4.307-4.442v-9.241h4.217v9.6c0 4.128-2.377 6.191-7.088 6.191-3.096.045-5.473-.538-7.133-1.794m18.618 1.436h4.127V85.107h-4.127zm26.335 0h-4.397l-1.57-3.5h-7.358l-1.57 3.5h-4.396l7.088-15.433h5.069zm-9.646-12.293-2.826 6.55h5.563zm29.565 12.293h-3.948l-8.659-10.409v10.409h-4.127V85.017h4.127l8.524 10.857V85.017h4.128v15.523zm21.893-11.127h-4.396c-.629-1.57-2.019-2.377-4.128-2.377-3.275.224-4.98 2.198-5.159 5.832.179 3.679 2.019 5.653 5.518 5.877 2.243.045 3.634-.763 4.307-2.378v-2.602h-5.608v-2.153h9.556v5.742c-1.167 2.288-3.948 3.455-8.345 3.455-6.191-.18-9.421-2.871-9.645-8.03.224-5.025 3.364-7.672 9.376-7.897 4.397 0 7.223 1.526 8.524 4.531m21.22 11.127h-4.217V85.107h4.217v6.325h8.524v-6.325h4.128v15.433h-4.128v-6.91h-8.524zm17.048-6.55v-8.883h4.218v9.69c0 2.647 1.435 3.948 4.306 3.948 2.961.09 4.397-1.211 4.307-3.948v-9.69h4.217v8.748c.27 4.89-2.557 7.223-8.613 6.954-5.788.179-8.614-2.109-8.435-6.82m21.266 6.55h4.127V85.107h-4.127zm12.741 0h-4.217V85.107h4.217v6.325h8.524v-6.325h4.127v15.433h-4.127v-6.91h-8.524zm31.853 0h-14.805V85.107h14.805v2.153h-10.633v4.307h9.915v2.243h-9.915v4.756h10.633zm26.065 0h-9.287V85.107h9.466c4.038.044 6.102 1.3 6.147 3.813.045 1.75-.987 2.961-3.051 3.589 2.468.583 3.724 1.75 3.858 3.59q.202 4.575-7.133 4.441m-.359-6.595h-4.755v4.576h4.755c2.154 0 3.23-.763 3.141-2.243.044-1.57-1.032-2.333-3.141-2.333m-.628-6.685h-4.127v4.083h4.306c1.93 0 2.872-.718 2.827-2.064 0-1.346-.987-2.019-3.006-2.019m29.699 13.28h-4.396l-1.57-3.5h-7.358l-1.57 3.5h-4.397l7.089-15.433h5.114zm-9.645-12.293-2.826 6.55h5.518zm29.565 12.293h-3.948l-8.659-10.409v10.409h-4.127V85.017h4.127l8.524 10.857V85.017h4.128v15.523zm8.748 0h-4.217V85.107h4.217v7.312l7.896-7.312h5.428l-7.626 6.55 8.165 8.883h-4.89l-5.967-6.55-2.961 2.602v3.948z" fill="#231916"/></svg>