<svg width="400" height="128" fill="none" xmlns="http://www.w3.org/2000/svg"><path d="M279.849 105.068q-.001-1.835-1.134-2.888-1.14-1.05-3.72-1.049h-1.966v8.13h2.271q2.463 0 3.508-1.074 1.041-1.076 1.041-3.119m-1.516-9.455q0-1.359-.825-1.965-.823-.605-2.47-.605h-2.009v5.05h2.043q1.783 0 2.524-.673.736-.674.737-1.807m7.248 9.704q0 3.447-2.44 5.333-2.441 1.882-6.743 1.882h-8.958V89.774h9.135q3.911-.001 5.556 1.215 1.65 1.216 1.652 3.391-.001 1.918-1.021 3.029c-.676.74-1.719 1.226-3.118 1.458q2.596.301 4.268 1.966 1.669 1.665 1.669 4.484m15.125 1.427v-.472c0-1.048-.28-1.851-.837-2.4q-.834-.827-2.468-.828-1.537.001-2.431.781-.897.78-.896 2.48v.469q-.001 1.77.946 2.364.947.591 2.411.592c.843 0 1.601-.243 2.268-.72q1.007-.72 1.007-2.266m5.257 5.788h-5.12l-.089-2.24q-.636 1.087-2.124 1.781-1.49.693-3.475.695-3.27 0-4.946-1.454c-1.12-.969-1.676-2.438-1.676-4.403v-.305q0-2.922 2.234-4.502 2.239-1.582 6.014-1.581c.76 0 1.516.099 2.254.294q1.112.292 1.622.733v-1.706q0-.888-.922-1.507-.924-.62-2.617-.619-1.814 0-3.234.35c-.946.228-1.767.519-2.465.865v-2.947q1.355-.472 3.025-.824c1.113-.226 2.464-.344 4.051-.344 2.547 0 4.429.51 5.646 1.518q1.82 1.518 1.822 4.853zm21.919 0h-5.45v-12.166q-.002-.68-.657-1.264c-.444-.394-1.071-.592-1.891-.592-.787 0-1.479.149-2.079.436q-.898.434-1.531 1.108v12.478h-5.449V95.146h5.245l.1 2.796q.6-1.235 2.295-2.179c1.132-.627 2.513-.945 4.141-.945 1.636 0 2.928.457 3.864 1.367.939.912 1.412 2.3 1.412 4.174zm23.237 0h-6.425l-6.273-7.085v7.085h-5.443V89.774h5.443V102.2l6.574-7.055h5.035l-7.579 7.735zm-203.569 0h-6.572l-4.899-7.811-5.381 7.811h-4.845l7.995-11.372-7.14-11.386h6.569l4.396 7.012 4.794-7.012h4.846l-7.415 10.557zm2.302 0V95.146h5.893v17.386zm6.048-21.256c0 .723-.302 1.334-.904 1.824q-.906.739-2.197.738-1.276 0-2.187-.738c-.612-.49-.917-1.101-.917-1.824q0-1.053.917-1.794.911-.739 2.187-.74 1.291.001 2.197.74.904.741.904 1.794m15.497 15.468v-.472c0-1.048-.282-1.851-.839-2.4q-.832-.827-2.47-.828-1.53.001-2.431.781-.894.78-.894 2.48v.469q.001 1.77.946 2.364.948.591 2.414.592c.841 0 1.597-.243 2.265-.72q1.008-.72 1.009-2.266m5.258 5.788h-5.121l-.091-2.24q-.633 1.087-2.122 1.781-1.49.693-3.475.695-3.269 0-4.947-1.454t-1.677-4.403v-.305q0-2.922 2.238-4.502 2.236-1.582 6.012-1.581c.761 0 1.515.099 2.253.294q1.11.292 1.626.733v-1.706q-.002-.888-.925-1.507c-.615-.413-1.491-.619-2.617-.619q-1.818 0-3.234.35c-.95.228-1.767.519-2.463.865v-2.947q1.352-.472 3.024-.824c1.109-.226 2.464-.344 4.048-.344 2.548 0 4.43.51 5.645 1.518q1.825 1.518 1.826 4.853zm33.52 0h-5.445v-12.205q-.002-.712-.729-1.289-.727-.57-1.719-.57c-.878 0-1.621.175-2.234.536q-.914.54-1.479 1.351v12.177h-5.446v-12.166q0-.738-.659-1.297c-.44-.371-1.045-.56-1.823-.56q-1.317.002-2.2.43a4.6 4.6 0 0 0-1.476 1.115v12.478h-5.449V95.147h5.245l.1 2.766c.582-.945 1.403-1.696 2.475-2.254q1.603-.84 3.892-.84 2.049 0 3.25.868c.802.577 1.394 1.375 1.767 2.39q1.043-1.884 2.646-2.539 1.604-.656 3.703-.72 2.426-.094 4.002 1.458 1.58 1.546 1.58 3.979zm17.716-10.234c-.116-1.706-.537-2.925-1.275-3.662q-1.101-1.106-2.88-1.106-1.555 0-2.776 1.092c-.818.727-1.255 1.949-1.325 3.676zm5.068 2.476H219.6q0 2.887 1.485 4.013 1.485 1.129 3.855 1.128 1.567 0 3.213-.347a20.6 20.6 0 0 0 3.385-1.056v2.899q-1.5.741-3.317 1.118-1.82.377-4.187.377c-3.023 0-5.437-.709-7.234-2.135q-2.696-2.134-2.696-6.239v-1.236q0-3.591 2.469-6.08c1.647-1.66 4.032-2.49 7.165-2.49 2.985 0 5.264.781 6.848 2.34q2.371 2.34 2.373 6.094zm21.274 7.758h-5.447v-12.166q.001-.68-.658-1.264-.66-.591-1.892-.592c-.786 0-1.481.149-2.079.436a5.1 5.1 0 0 0-1.53 1.108v12.478h-5.446V95.147h5.241l.103 2.795q.597-1.235 2.296-2.178 1.696-.944 4.137-.945 2.46.001 3.867 1.366c.938.912 1.408 2.3 1.408 4.175zm-70.252-84.598v4.593h-45.062v22.44c0 15.136-7.252 20.76-7.252 20.76l-6.203-4.85s5.526-5.236 5.526-14.55l-.032-28.393zm-27.807 35.74a46 46 0 0 0 6.454 3.631 42.4 42.4 0 0 0 6.959-3.631zm-5.287-8.782h22.771v-1.38h-22.771zm0-4.726h22.771v-1.379h-22.771zm0-4.723h22.771v-1.38h-22.771zm18.677 24.423c4.364 1.22 9.454 1.908 15.015 1.329l-1.052 5.274s-10.186 1.09-21.491-3.432c-6.311 2.274-13.668 3.96-21.1 3.542l-1.659-5.211s7.244.5 16.074-1.683a42 42 0 0 1-5.808-4.278c-3.69 2.305-6.816 3.17-6.816 3.17l-3.314-4.566c4.34-1.038 7.899-3.777 9.484-5.154h-5.938V40.099h14.738l.403-1.722h-16.99v-3.965h41.696v3.965h-17.477l-.405 1.722h12.022c3.607 0 4.641 1.793 4.641 5.47v13.287H156.79q-.572.76-1.2 1.472h24.653v3.345h-.073l.133.024s-4.22 3.037-10.739 6.17m25.787 5.744V38.605h7.928V75.61zm22.004-39.676v-5.54h31.405v38.422c0 4.93-1.403 6.794-5.818 6.794h-8.974v-5.54h6.864V35.934zM206.054 26.8c3.375 2.765 5.772 6.183 8.612 10.55-2.086.96-4.84 2.095-7.384 3.244-3.332-6.131-7.731-10.15-7.731-10.15zm144.307 9.622v-5.539h34.185v5.539zm-76.437-6.417s-.609 1.355-1.729 3.373h10.1v5.542h-13.557a50 50 0 0 1-3.246 4.157h15.853v5.54h-8.247v3.806h8.247v5.542h-8.247v9.777c2.803-1.186 5.914-2.877 8.88-5.277v7.62s-7.953 6.203-18.348 6.576v-6.232s.569-.06 1.541-.247V57.965h-5.708v-5.542h5.708v-3.807h-5.708v-.111c-.014.01-.024.02-.041.03l-4.575-5.187s8.285-6.582 12.483-16.573zm42.936 24.841s-2.568 7.255-7.221 11.241c1.999 1.642 4.403 2.837 7.221 2.959v6.924s-15.854-.691-21.563-20.775h6.915s1.097 3.034 3.296 6.262c1.425-1.202 3.325-3.287 4.692-6.61zm31.598-9.693h37.737v5.54h-7.929v18.7c0 4.232-1.286 6.232-5.161 6.232h-14.818v-5.54h12.053V50.693h-21.882zm-55.701 1.732h13.954v-3.118h-13.953zm0-8.658h13.954V35.11h-13.953zm0 14.198v15.714c2.294-.249 4.634-.703 6.344-1.518v7.273s-5.877 1.73-14.27 1.73V29.57h24.513c4.07 0 5.294 1.852 5.294 4.87v17.985zm50.689-20.412s-5.229 9.765-15.355 15.843l-3.746-6.377s7.276-3.97 14.076-14.679zm1.837 2.55 5.076 5.12s-1.967 4.27-6.658 9.34v26.602h-7.928V55.948a50 50 0 0 1-5.707 3.474l-3.943-6.525s13.035-7.115 19.16-18.334M14 114h87.805V26.824H14z" fill="#005bac"/><path fill-rule="evenodd" clip-rule="evenodd" d="M34.86 26.849c-.432 8.253 6.372 20.228 19.892 27.415 2.36-5.499 4.473-6.73 7.124-7.984C72.734 51.856 78.8 60.997 78.87 62.323c.981-5.02 1.7-20.994-12.364-35.474zm66.929 49.914c-2.708-3.6-6.116-6.722-10.28-8.235-2.32-.778-7.692-4.493-10.569-3.826 5.102 2.093 11.425 13.393 11.34 18.404-7.346 2.448-22.22.3-26.968-7.773-2.264-3.28-1.616-5.369 2.121-7.297-7.156 1.54-4.685 6.56-1.899 11.989 5.617 10.893 21.87 20.672 36.255 16.86z" fill="#10417c"/><path fill-rule="evenodd" clip-rule="evenodd" d="M67.23 62.815c-19.625-4.741-39.794 11.568-48.963 47.462 18.195 7.525 35.15-1.877 40.977-9.951-3.04 3.818-3.916-4.707-11.464-9.407 2.464-16.655 12.587-26.503 23.684-25.186 2.444-.378 6.333.363 5.827 1.316-3.756-4.128 4.298-.76-10.06-4.234" fill="#10417c"/><path fill-rule="evenodd" clip-rule="evenodd" d="M66.507 58.792c-19.62-4.747-49.015 6.78-50.559 44.645 29.928 13.63 49.66-1.013 51.486-17.43-3.654 2.838-17.028 5.437-24.56.726C44.5 70.152 58.319 63.99 66.19 64.778c8.705.873 11.635 5.436 8.705 9.64 6.693-4.66 5.975-12.157-8.39-15.626" fill="url(#paint0_linear_63_12391)"/><path fill-rule="evenodd" clip-rule="evenodd" d="M63.812 78.939c10.592 14.781 35.583 16.363 49.866 2.083-2.648-7.563-11.01-16.732-21.148-18.136-2.435-.275-9.14.637-11.827 1.891 7.155.15 13.201 5.39 14.164 10.303-6.673 3.934-20.204 6.832-26.529-.066-2.906-2.727-2.707-4.904.543-7.572-9.407.83-8.39 6.864-5.07 11.497" fill="url(#paint1_linear_63_12391)"/><path fill-rule="evenodd" clip-rule="evenodd" d="M51.48 14c-10.248 7.15-17.026 29.082 3.272 40.264-.808-6.818 3.132-11.776 5.154-13.827C70.628 45.322 75.71 51.856 77.975 58.32c.467 1.41 1.465 5.246 1.59 6.575C80.644 58.005 90.538 27.15 51.48 14" fill="url(#paint2_linear_63_12391)"/><defs><linearGradient id="paint0_linear_63_12391" x1="15.948" y1="107.575" x2="75.904" y2="107.575" gradientUnits="userSpaceOnUse"><stop stop-color="#ffd300"/><stop offset="1" stop-color="#ffb500"/></linearGradient><linearGradient id="paint1_linear_63_12391" x1="87.563" y1="48.794" x2="64.134" y2="92.366" gradientUnits="userSpaceOnUse"><stop stop-color="#ffd500"/><stop offset="1" stop-color="#e9b000"/></linearGradient><linearGradient id="paint2_linear_63_12391" x1="61.282" y1="1.648" x2="24.161" y2="23.859" gradientUnits="userSpaceOnUse"><stop stop-color="#fed800"/><stop offset="1" stop-color="#fab000"/></linearGradient></defs></svg>