<svg width="128" height="128" fill="none" xmlns="http://www.w3.org/2000/svg"><path fill-rule="evenodd" clip-rule="evenodd" d="M26.5 26.488h74.988v74.993H26.5z" fill="#005c9c"/><path fill-rule="evenodd" clip-rule="evenodd" d="M45.135 27.337c-.364 6.95 5.364 17.033 16.748 23.084 1.987-4.63 3.767-5.666 5.998-6.722 9.143 4.695 14.252 12.392 14.31 13.508.826-4.227 1.432-17.677-10.41-29.87zm56.354 42.029c-2.28-3.03-5.15-5.66-8.656-6.934-1.952-.655-6.476-3.783-8.899-3.22 4.296 1.761 9.62 11.276 9.549 15.495-6.186 2.061-18.71.252-22.708-6.545-1.906-2.762-1.36-4.52 1.786-6.144-6.025 1.296-3.945 5.523-1.599 10.095 4.73 9.172 18.415 17.406 30.527 14.196z" fill="#10417c"/><path fill-rule="evenodd" clip-rule="evenodd" d="M72.391 57.621c-16.525-3.992-33.508 9.74-41.228 39.964 15.32 6.336 29.596-1.58 34.503-8.379-2.56 3.215-3.297-3.964-9.653-7.921 2.075-14.023 10.6-22.315 19.943-21.207 2.057-.318 5.332.306 4.906 1.108-3.163-3.476 3.62-.639-8.471-3.565" fill="#10417c"/><path fill-rule="evenodd" clip-rule="evenodd" d="M71.78 54.234c-16.52-3.997-41.27 5.709-42.57 37.592 25.2 11.476 41.814-.854 43.351-14.676-3.076 2.389-14.337 4.577-20.68.61 1.37-13.961 13.006-19.15 19.634-18.486 7.33.735 9.797 4.578 7.33 8.117 5.635-3.924 5.031-10.236-7.064-13.157" fill="url(#paint0_linear_63_12401)"/><path fill-rule="evenodd" clip-rule="evenodd" d="M69.512 71.199c8.919 12.445 29.961 13.778 41.988 1.754-2.23-6.368-9.271-14.089-17.807-15.271-2.05-.232-7.696.536-9.958 1.592 6.024.127 11.115 4.538 11.926 8.675-5.619 3.313-17.012 5.753-22.338-.055-2.447-2.296-2.28-4.13.458-6.376-7.922.698-7.065 5.78-4.27 9.68" fill="url(#paint1_linear_63_12401)"/><path fill-rule="evenodd" clip-rule="evenodd" d="M59.128 16.519c-8.629 6.02-14.336 24.487 2.755 33.903-.68-5.741 2.637-9.916 4.34-11.643 9.028 4.114 13.307 9.615 15.214 15.058.394 1.188 1.234 4.417 1.339 5.536.909-5.802 9.24-31.78-23.648-42.854" fill="url(#paint2_linear_63_12401)"/><defs><linearGradient id="paint0_linear_63_12401" x1="29.21" y1="95.31" x2="79.693" y2="95.31" gradientUnits="userSpaceOnUse"><stop stop-color="#ffd300"/><stop offset="1" stop-color="#ffb500"/></linearGradient><linearGradient id="paint1_linear_63_12401" x1="89.511" y1="45.816" x2="69.783" y2="82.504" gradientUnits="userSpaceOnUse"><stop stop-color="#ffd500"/><stop offset="1" stop-color="#e9b000"/></linearGradient><linearGradient id="paint2_linear_63_12401" x1="67.381" y1="6.118" x2="36.125" y2="24.82" gradientUnits="userSpaceOnUse"><stop stop-color="#fed800"/><stop offset="1" stop-color="#fab000"/></linearGradient></defs></svg>