<svg width="128" height="128" fill="none" xmlns="http://www.w3.org/2000/svg"><path d="M50.95 93.25c.45-.1.75-.35 1-.6.25-.35.45-.7.45-1.15 0-.6-.25-1.15-.7-1.5-.45-.25-.95-.45-1.6-.5h-2.5v8h2.5c.75-.1 1.3-.25 1.8-.6.45-.45.7-.95.7-1.65 0-.5-.1-.95-.45-1.3-.25-.3-.7-.55-1.2-.7m-2.2-2.9h1.35c.25.1.5.15.75.35.25.15.45.5.45.85 0 .45-.15.8-.5.95-.15.15-.45.25-.7.35h-1.35zm2.2 5.85c-.15.15-.5.25-.85.35h-1.35v-2.8h1.4c.35.1.7.15.95.35.25.25.45.6.45 1.05s-.25.8-.6 1.05m-6.9-6.7h1.1v8h-1.1zm16.25 4.45h1.75v2.35q-.375.15-.6.15c-.25.1-.45.1-.7.1-.95 0-1.75-.25-2.35-.85-.5-.5-.85-1.25-.85-2.2s.35-1.7.85-2.2c.6-.6 1.4-.85 2.35-.85.35 0 .7 0 1.05.1s.6.15.95.35l.15-.95c-.45-.1-.8-.25-1.1-.25-.35-.1-.7-.1-1.1-.1-1.3 0-2.35.35-3.1 1-.8.75-1.1 1.7-1.1 2.85 0 1.2.35 2.1 1.1 2.85.8.65 1.8 1 3.1 1 .45 0 .85 0 1.3-.1.35-.1.8-.15 1.1-.35V93h-2.75v.95z" fill="#0062ab"/><path d="M94.45 23h-60.8c-4.1 0-7.65 3.35-7.65 7.6v66.8c-.1 4.05 3.6 7.6 7.65 7.6h60.8c4.15 0 7.55-3.55 7.55-7.6V30.6c0-4.25-3.25-7.6-7.55-7.6m4.7 74.4c0 2.5-2.4 4.75-4.75 4.75H33.65c-2.3 0-4.8-2.5-4.8-4.75l.1-66.8c0-2.4 2.3-4.75 4.75-4.75h60.75c2.3 0 4.75 2.25 4.75 4.75z" fill="#0062ab"/><path d="M42.15 89.5h-1.2L39 92.65l-1.95-3.15h-1.3l2.55 3.85-2.8 4.15h1.2l2.2-3.55 2.25 3.55h1.25l-2.8-4.15zm47.95.15h-2.45v7.75h1.1v-3.2h1.3c.7-.1 1.2-.25 1.65-.6.5-.4.8-.95.8-1.7s-.25-1.35-.7-1.7c-.4-.3-1.05-.45-1.7-.55m.75 3.4c-.15.15-.45.25-.8.35H88.8v-2.9h1.3c.35.1.6.15.85.35.25.25.45.6.45 1.1 0 .4-.2.85-.55 1.1m-6.2 1.1c0 .85-.15 1.45-.5 1.85-.25.4-.8.65-1.4.65-.7 0-1.1-.25-1.45-.6-.25-.4-.45-1-.45-1.85v-4.55h-1.1v4.55c0 1.1.25 1.95.8 2.55.5.5 1.2.75 2.15.75 1.05 0 1.75-.25 2.25-.85.5-.5.8-1.35.8-2.55v-4.45H84.7v4.5zm-6.6-39.55C83.4 52.8 88.3 50 92.5 46.4c-2.65-6.95-7.9-12.65-14.45-16.1-.95-.45-2-.95-3-1.3-5.25 6.1-8.85 13.6-10.15 21.9h-1.75C61.95 42.6 58.35 35.05 53 29c-1.05.35-2 .85-2.95 1.3-.85.5-1.7.95-2.6 1.55-5.05 3.25-9 7.85-11.45 13.35-.15.45-.35.75-.5 1.2 4.2 3.6 9.15 6.4 14.55 8.2 2.4.85 5 1.45 7.6 1.9v1.7c-2.6.35-5.15.95-7.6 1.8-5.4 1.8-10.35 4.6-14.55 8.2 2.75 6.85 7.9 12.6 14.55 16 .95.5 1.9.95 2.95 1.3 5.35-6.1 8.95-13.6 10.15-21.85h1.7c1.3 8.2 4.9 15.75 10.15 21.85 1.05-.35 2.05-.75 3-1.3.85-.45 1.7-.95 2.5-1.45 5.4-3.5 9.65-8.65 11.95-14.55-4.2-3.6-9.15-6.4-14.45-8.2-2.5-.85-5-1.45-7.6-1.8 0-.35-.1-.6-.1-.85 0-.35.1-.6.1-.85 2.65-.45 5.15-1.05 7.65-1.9m-1.2-18.15c.45.25.75.5 1.2.85 2.75 1.9 5.15 4.35 6.9 7.3-2.15 1.45-4.5 2.65-6.9 3.7-2.25.85-4.55 1.55-6.95 2.05.9-5.1 2.9-9.8 5.75-13.9m-26.8 11.8c-2.5-1.05-4.8-2.25-6.95-3.7 1.8-2.9 4.15-5.4 6.95-7.3.35-.35.75-.6 1.2-.85 2.75 4.1 4.75 8.8 5.7 13.85-2.4-.45-4.75-1.15-6.9-2m1.2 29.8q-.675-.375-1.2-.75c-2.85-1.95-5.15-4.45-6.95-7.35 2.15-1.45 4.5-2.65 6.95-3.6 2.15-.85 4.5-1.55 6.9-1.95-.95 4.85-2.95 9.55-5.7 13.65m26.8-11.75c2.4.95 4.75 2.15 6.9 3.6-1.7 2.9-4.15 5.4-6.9 7.35-.45.25-.75.5-1.2.75-2.85-4.1-4.8-8.8-5.75-13.7 2.35.5 4.7 1.15 6.95 2M68.6 93.9c-.1-.15-.35-.25-.5-.35.5-.15.95-.35 1.2-.65.35-.35.5-.75.5-1.25 0-.6-.25-1.1-.7-1.45s-1.05-.5-1.8-.5h-2.4v7.75H66V94h.7c.25 0 .45 0 .6.1.1.1.15.1.25.1.15.15.35.4.5.75l1.05 2.55h1.2l-1.2-2.8c-.15-.5-.35-.75-.5-.8m-1.3-.8H66v-2.6h1.3c.45.1.7.15.85.35.35.15.5.5.5.95s-.15.75-.5 1c-.15.15-.5.25-.85.3m7.35-3.6c-1.1 0-2 .4-2.6 1.1-.7.65-1.05 1.7-1.05 2.95s.35 2.2 1.05 2.95c.6.65 1.45 1 2.6 1 1.1 0 2-.35 2.6-1 .7-.75 1.05-1.7 1.05-2.95s-.35-2.25-1.05-2.95c-.65-.7-1.5-1.1-2.6-1.1m1.8 6.3c-.5.5-1.05.85-1.8.85s-1.3-.35-1.8-.85c-.45-.6-.6-1.35-.6-2.25 0-1 .15-1.75.6-2.25.5-.6 1.05-.95 1.8-.95s1.3.35 1.8.95c.45.5.6 1.25.6 2.25 0 .9-.15 1.7-.6 2.25" fill="#0062ab"/></svg>