<svg width="128" height="128" fill="none" xmlns="http://www.w3.org/2000/svg"><path d="M22.5 29.75S39 21.65 41 40.25c-2.85 1.9-16.4 5.9-12.1 36.75-10.2-14.5-2-42.95-6.4-47.25m47.75 9.35c-23.25 7.45-30 26.3-31.1 29.7-4.1 20.6 9.65 28.35 17.05 30.7-19.85.25-30.75-17.85-24.35-38.4C38.3 40.55 58.7 25.9 81.2 28.25s24.85 18.15 24.85 18.15c-3.1-3.75-17.3-13.75-35.8-7.3M53.4 67.5c-.85 1.4-10.3 26.3 16.1 26.8 9.8.75 19.75-4.75 25.1-9.5-8.35 12.55-23 16.15-30.85 14.95s-18.45-5.9-21.3-18.8 7.05-30.1 25.95-36.6c18.9-6.55 30.05 2.55 30.05 2.55C86.3 44 64.05 48.5 53.4 67.5m14.1-1.55L82.35 62 86 75.55 71.15 79.5z" fill="#009035"/></svg>