<svg width="128" height="128" fill="none" xmlns="http://www.w3.org/2000/svg"><path d="M61.879 109.409V91.324c0-11.272-3.16-20.178-17.593-27.23q-14.431-7.052-22.786-16.4v30.533c0 12.257 5.253 22.196 20.19 26.26q14.936 4.064 20.189 4.922" fill="#aa894c"/><path d="M61.879 18v18.085c0 11.273-3.16 20.179-17.593 27.23q-14.431 7.053-22.786 16.4V49.182c0-12.257 5.253-22.197 20.19-26.26Q56.626 18.858 61.879 18" fill="#b8985c"/><path d="M66.067 18v18.085c0 11.273 3.16 20.179 17.592 27.23q14.433 7.052 22.787 16.4V49.182c0-12.257-5.253-22.197-20.19-26.26Q71.319 18.858 66.066 18" fill="#2d538a"/><path d="M66.067 109.409V91.324c0-11.272 3.16-20.178 17.592-27.23q14.433-7.051 22.787-16.4v30.534c0 12.257-5.253 22.196-20.19 26.259q-14.937 4.064-20.19 4.922" fill="#1e4277"/></svg>