<svg width="392" height="128" fill="none" xmlns="http://www.w3.org/2000/svg"><path d="M40.388 62.158c3.351 0 6.565.665 9.532 1.823a11.2 11.2 0 0 1 3.758 2.532l7.51 7.77a4.5 4.5 0 0 0 2.894 1.085 4.34 4.34 0 0 0 2.835-1.056l7.751-7.994c.887-.905 1.92-1.6 3.083-2.135a25.8 25.8 0 0 1 10.033-2.025c4.857 0 9.4 1.324 13.341 3.66l-29.06 30.067c-2.109 1.975-4.9 3.19-7.983 3.19-3.097 0-5.888-1.215-7.983-3.19l-29.09-30.023c3.934-2.33 8.485-3.704 13.379-3.704m32.157-29.69 23.85 24.737a25 25 0 0 0-4.66-.442c-5.85 0-11.214 1.949-15.62 5.215h-.014a.84.84 0 0 1-.508.18.9.9 0 0 1-.639-.275l-7.955-8.225c-.79-.682-1.8-1.116-2.917-1.116-1.104 0-2.12.434-2.903 1.116h-.015l-7.933 8.225h-.007a.86.86 0 0 1-1.161.095c-4.399-3.266-9.777-5.215-15.598-5.215-1.61 0-3.186.153-4.724.443l23.893-24.738c2.148-2.267 5.124-3.694 8.448-3.694s6.314 1.427 8.463 3.694m-8.53-10.764c-23.35 0-42.297 18.972-42.297 42.289 0 23.324 18.947 42.31 42.297 42.31 23.299 0 42.281-18.986 42.281-42.31 0-23.318-18.982-42.289-42.281-42.289m0 92.296C36.429 114 14 91.554 14 63.993 14 36.41 36.429 14 64.015 14 91.579 14 114 36.41 114 63.993 114 91.553 91.579 114 64.015 114" fill="#6bb42b"/><path d="M340.112 23.234c-4.232 8.233-11.364 15.225-11.844 15.625l-6.516-3.26c7.54-6.807 10.354-11.972 10.576-12.365zm1.172 12.5a49 49 0 0 1-2.858 4.745V70.89h-8.427V50.562c-1.292 1.346-2.216 2.214-2.353 2.33l-6.284-3.291c8.045-7.032 12.251-13.462 12.547-13.867zm36.328 2.734v4.907h-7.593v21.32c-.028 2.975-2.496 5.414-5.506 5.414h-12.6l-1.198-5.081h10.738V43.375h-20.56v-4.907zm-35.547-8.203v-5.078h33.984v5.079zm-69.464-7.031a56 56 0 0 1-1.729 5.615h8.692v4.853h-10.737a47 47 0 0 1-2.616 4.874h13.353v4.875h-5.631v5.808h5.632v4.875h-5.632V65.22h5.539l-1.187 4.889h-7.227c-3.045 0-5.461-2.294-5.461-5.249V54.134h-6.262v-4.875h6.262v-5.808h-4.561v-3.883l-3.346-1.128c5.362-7.693 7.506-14.63 7.664-15.206zm17.311 20.307h14.442v-4.619h-14.442zm0-9.64h14.442v-4.61h-14.442zm16.328 25.544c3.981 4.467 7.97 7.324 8.481 7.705l-6.076 3.74C297.14 62.459 293 50.95 292.158 48.403h-2.246V65.41h7.617l-1.166 4.89h-9.359c-3.01 0-5.414-2.258-5.472-5.114v-.05h-.014V29.628c.014-2.92 2.419-5.222 5.486-5.222h20.252c3.073 0 5.477 2.302 5.477 5.222v13.539c0 2.956-2.404 5.236-5.492 5.236h-7.963c.893 2.381 2.117 4.582 3.492 6.618 1.289-1.553 2.707-3.439 3.614-5.093h6.854c-.231.576-3.398 6.057-6.998 9.517m-97.165 5.59h30.838v-12.92h-30.838zm33.724-17.973c3.059 0 5.473 2.33 5.473 5.247l.043-.028v.086l-.044-.058v12.545c0 2.938-2.413 5.255-5.473 5.255h-36.602c-3.074 0-5.494-2.317-5.494-5.255V52.31l-.043.058v-.087l.043.029c0-2.917 2.42-5.248 5.494-5.248H242.8zm-40.808-3.906h-.029c-2.082-.073-3.647-1.6-3.647-3.587a3.6 3.6 0 0 1 .416-1.695l9.177-13.859h10.024l-8.731 14.07h29.584l-2.671-9.589h9.558l4.596 14.66zm-39.486 22.23h18.989v-6.341l-3.199 3.575c-.359-.376-3.586-3.821-5.67-8.79-1.071 3.005-2.753 6.276-5.916 9.469l-4.139-5.006c.532-.49 5.549-5.489 5.893-15.463h-4.736v-4.89h4.765c0-2.976-.015-5.648-.015-6.407h6.656l-.1 6.407h5.261v4.89h-5.319a30.5 30.5 0 0 1-.475 4.167h1.56c.151.477 1.876 6.002 5.434 9.815V29.114h-18.989zm26.435-.383v.059l-.014-.03c0 2.954-2.408 5.265-5.485 5.265h-22.884c-3.076 0-5.484-2.31-5.484-5.265l-.022.03v-.066l.022.036v-1.09l-3.702 4.203c-.358-.354-3.93-4.304-6.353-9.1-1.423 3.487-3.766 7.655-7.805 11.845l-5.304-4.565c.589-.68 8.869-8.739 8.869-19.632 0-4.954-.022-21.812-.022-23.068h7.001l-.303 20.888c1.251-5.685 1.647-12.568 1.704-13.038h5.376c-.302 6.017-1.107 12.546-1.969 15.87h-5.111c.015.692 0 1.819-.15 3.205.812 1.446 4.42 7.238 7.769 10.936v-32.04c.022-2.933 2.408-5.23 5.484-5.23h22.884c3.077 0 5.484 2.297 5.484 5.23V65.03zm-49.737-33.566c.022.72.493 9.972-.522 18.36h-5.991c.059-.8 1.08-10.706 1.051-18.36zm18.487 50.781-10.08 13.337v9.319h-5.238v-9.32L132.3 82.219h5.845s6.481 9.14 6.871 9.713l6.836-9.713zm13.057 13.383-3.941-9.632-3.775 9.632zm9.209 9.273h-5.491l-2.483-5.794h-10.199l-2.376 5.794h-5.232l9.818-22.656h5.713zm24.609 0h-5.286l-12.189-16.33.137 8.061v8.269h-4.928V82.218h5.287l12.21 16.337-.136-8.096v-8.24h4.905zm25-18.905h-8.337v18.905h-5.273V85.969h-8.265v-3.75h21.875zm13.443 9.632-3.928-9.632-3.793 9.632zm9.213 9.273h-5.494l-2.484-5.794h-10.205l-2.377 5.794h-5.221l9.81-22.656h5.702zm2.735 0V82.218h5.078v22.656zm60.717-9.273-3.949-9.632-3.797 9.632zm9.204 9.273h-5.493L316.9 99.08h-10.209l-2.369 5.794h-5.226l9.814-22.656h5.722zm24.61 0h-5.252l-12.222-16.33.151 8.061v8.269h-4.943V82.218h5.288l12.214 16.337-.143-8.096v-8.24h4.907zm28.515 0h-6.27l-8.438-10.693-3.099 2.468v8.225h-5.239V82.218h5.239v10.364l11.004-10.364h6.342l-10.233 9.489zm-90.028-3.522s4.938.194 4.916-3.164c0 0 .537-3.429-5.663-3.2h-4.743v6.364zm4.045-12.554s.478-3.193-4.749-3.043h-4.785v5.718h6.019c1.416-.115 3.499-.616 3.515-2.675m1.175 4.124s5.969.976 5.019 6.5c0 0-.415 5.108-9.041 5.452h-11.951V82.218h11.45c1.895.058 6.521.517 8.14 3.824 0 0 2.076 4.8-3.616 6.88z" fill="#0068b6"/></svg>