<svg width="60" height="60" fill="none" xmlns="http://www.w3.org/2000/svg"><path d="M30.247 14.3c-13.671 0-24.754 10.836-24.754 24.55 0 13.713 11.083 18.405 24.754 18.405C43.917 57.255 55 52.563 55 38.849S43.917 14.301 30.247 14.301m9.487 20.653A1.65 1.65 0 0 1 38.09 36.6h-5.37a.41.41 0 0 0-.413.411v2.9h5.78a1.645 1.645 0 0 1 1.646 1.647v.836a1.65 1.65 0 0 1-1.646 1.647h-5.37a.416.416 0 0 0-.418.417v3.716a1.647 1.647 0 0 1-1.646 1.648h-.832a1.64 1.64 0 0 1-1.646-1.648v-3.716a.416.416 0 0 0-.397-.417h-5.37a1.645 1.645 0 0 1-1.646-1.647v-.836a1.65 1.65 0 0 1 1.646-1.647h5.778v-2.892a.41.41 0 0 0-.408-.414h-5.37a1.645 1.645 0 0 1-1.646-1.647v-.836a1.65 1.65 0 0 1 1.646-1.644h4.921l-5.1-5.106a1.65 1.65 0 0 1 0-2.335l.584-.586a1.65 1.65 0 0 1 2.333 0l4.809 4.815a.416.416 0 0 0 .585 0l4.811-4.818a1.65 1.65 0 0 1 2.333 0l.586.586a1.65 1.65 0 0 1 0 2.335l-5.102 5.106h4.924a1.645 1.645 0 0 1 1.646 1.647zm-9.487-22.298c5.37 0 8.843-1.795 10.792-3.859 1.098-1.287 1.023-2.937-.343-3.926-2.073-1.497-6.054-2.126-10.45-2.126-4.394 0-8.376.63-10.448 2.126-1.367.989-1.442 2.639-.344 3.926 1.949 2.064 5.423 3.86 10.793 3.86" fill="#ff5b00"/></svg>