<svg width="128" height="128" fill="none" xmlns="http://www.w3.org/2000/svg"><path d="M106.3 42.25 85.75 63l-21.1-20.75z" fill="#fbc400"/><path d="M106.3 82.65 85.75 105.4l-21.1-22.75z" fill="#f39800"/><path d="m64.65 82.65-21.4 22.75-21.7-22.75z" fill="#c30e19"/><path d="m106.3 42.25-20.85-20.2-20.8 20.2z" fill="#f39800"/><path d="M106.3 82.65 85.45 63.7l-20.8 18.95z" fill="#fcc902"/><path d="m21.55 82.65 21.4-20.2-21.4-20.2z" fill="#8d202e"/><path d="m85.45 22.05-20.8 20.2-21.7-20.2z" fill="#ed6d00"/><path d="m42.95 22.05-21.4 20.2h43.1z" fill="#da4206"/><path d="M64.65 82.65 43.1 105.4h43.1z" fill="#ed6d00"/><path d="m42.95 62.45-21.4 20.2h43.1z" fill="#da4206"/><path d="m64.65 42.25-21.7 20.2-21.4-20.2" fill="#c30e19"/></svg>