<svg width="210" height="60" fill="none" xmlns="http://www.w3.org/2000/svg"><g clip-path="url(#clip0_479_38191)"><path d="M134.391 17.24h-14.089v-2.523h-4.659v2.523H100.86v18.762c-.034 5.717-.728 9.513-2.8 11.824v2.996c4.873-3.153 6.71-7.858 6.842-15.608V20.079h29.489zM92.486 27.91v3.009L72.019 45.216c.413 1.484 2.279 1.705 6.011 1.602h17.765v3.332H77.088q-6.69.16-8.4-2.858c-2.119 1.155-5.082 2.912-8.399 3.018v-3.35c2.61-.65 4.507-1.912 6.221-3.02l18.327-13.02H62.303v-3.01h14.31l-1.154-3.532h3.888l1.154 3.532zm-32.197-7.298V17.74H69v-3.177h4.052v3.176h9.956v-3.176h4.035v3.176h8.743v2.873h-8.743v3.814H83v-3.814h-9.948v3.814h-4.053v-3.814z" fill="#3e3a39"/><path d="M118.756 39.516c-2.287-3.091-3.797-6.802-4.21-9.7h3.265v-2.639h-3.575v-5.124h-3.735v5.124h-4.51v2.639h4.045a47.6 47.6 0 0 1-4.822 13.197v3.57a28.2 28.2 0 0 0 5.287-9.159v12.883h3.735V36.651c.614 1.33 1.549 2.7 3.371 4.84a11.3 11.3 0 0 0 1.149-1.975m22.091 10.91V26.827a58 58 0 0 1-4.045 2.319v-2.628q5.598-4.195 6.843-11.8h4.045q-1.092 4.974-2.956 7.92v27.788zm6.688-29.814V17.98h10.583v-3.104h4.355v3.104h11.378v2.633zm1.709 7.011v-2.63h22.578v2.638zm0 6.212V31.35h22.578v2.486zm.157 16.3V37.72h22.256v7.763q.153 4.807-4.667 4.656zm3.888-2.639h12.467c1.549 0 2.28-.62 2.179-1.863V40.36h-14.646zm22.441 2.932V47.46c2.504-2.187 3.441-5.251 3.441-10.306V16.49H210v28.746q0 5-5.163 4.999h-2.065v-2.968h.803q2.502.154 2.349-1.876v-7.183h-9.228v12.035h-4.223V38.208h-9.231c-.033 5.76-2.292 9.41-7.512 12.22m7.512-30.965v6.56h9.231v-6.56zm0 9.217v6.876h9.231V28.68zm22.69-9.217h-9.236v6.56h9.233zm-9.236 9.217v6.876h9.233V28.68z" fill="#3e3a39"/><path d="M128.325 29.777h4.977V27.14h-5.599v-5.125h-3.733v5.125h-4.197v2.638h3.578c-1.668 8.686-6.066 14.13-6.066 14.13V46.7q4.974-4.344 6.688-9.791v13.352h3.732V36.765q1.707 5.433 6.998 9.935v-2.793a33.1 33.1 0 0 1-6.378-14.13" fill="#3e3a39"/><path d="M37.14 4.713c-9.708-8.019-19.533-4.831-22.796 2.3-.516 1.18-3.59 9.16 4.706 18.33l.06.064c.134.147.258.294.41.444 4.156 4.38 10.119 7.412 10.119 13.696 0 7.923-8.292 14.282-16.725 9.232a10.3 10.3 0 0 1-2.287-2.007c-1.138-1.432-7.831-9.837 5.68-19.84-1.655-1.635-6.663-7.324-6.072-15.716C2.519 18.45 0 26.325 0 33.496c0 16.383 11.59 26.937 25.114 26.499C40.826 59.48 50.885 47.31 50.885 31.58c0-9.18-4.625-19.337-13.745-26.868" fill="#1677ff"/></g><defs><clipPath id="clip0_479_38191"><path fill="#fff" d="M0 0h210v60H0z"/></clipPath></defs></svg>