<svg width="128" height="128" fill="none" xmlns="http://www.w3.org/2000/svg"><path d="M91.945 22a2.37 2.37 0 0 0-2.304 1.92c-4.379 15.978-5.915 32.494-5.147 49.087H43.243c-.308 5.761-.999 11.446-1.92 16.977H55.61c.154 5.07-.307 12.214-1.229 15.594-.077.46.23.921.692.921H72.97c.538 0 .845-.461.691-.921-.921-3.38-1.382-10.524-1.229-15.594h32.033c-3.687-22.124-2.535-45.092 3.457-66.678.077-.077.077-.23.077-.307 0-.538-.461-.999-.999-.999z" fill="url(#paint0_linear_63_12678)"/><path d="M55.038 22.05c-.54 0-.847.54-.693 1.001.924 3.389 1.386 10.781 1.155 15.864H23.465c3.774 22.1 2.619 45.048-3.465 66.687v.308c0 .539.462.924 1.001.924h15.016c1.078 0 2.08-.77 2.31-1.848 4.39-16.017 5.93-32.574 5.16-49.13h40.89c.308-5.775 1.001-11.397 1.925-16.941H72.364c-.154-5.083.308-12.475 1.232-15.864.077-.462-.23-1-.693-1z" fill="url(#paint1_linear_63_12678)"/><path fill-rule="evenodd" clip-rule="evenodd" d="M38.328 23.899C38.088 22.805 37.12 22 36.008 22H21.006A1.01 1.01 0 0 0 20 23.003c0 .1.028.198.05.295a148 148 0 0 1 3.455 15.514h18.089A150 150 0 0 0 38.328 23.9" fill="#00a1e9"/><path fill-rule="evenodd" clip-rule="evenodd" d="M89.418 104.661a2.4 2.4 0 0 0 2.314 1.886h15.021c.547 0 .968-.456.968-.996 0-.111 0-.202-.025-.293v-.006a146 146 0 0 1-3.443-15.511H86.158c.83 5.005 1.906 9.984 3.26 14.92" fill="#004098"/><defs><linearGradient id="paint0_linear_63_12678" x1="102.469" y1="64.251" x2="25.651" y2="64.251" gradientUnits="userSpaceOnUse"><stop stop-color="#0097e0"/><stop offset=".4" stop-color="#0075c2"/><stop offset=".88" stop-color="#003786"/><stop offset="1" stop-color="#003786"/></linearGradient><linearGradient id="paint1_linear_63_12678" x1="25.622" y1="64.479" x2="102.628" y2="64.479" gradientUnits="userSpaceOnUse"><stop stop-color="#0081cc"/><stop offset=".6" stop-color="#093190"/><stop offset="1" stop-color="#0e3776"/></linearGradient></defs></svg>