<svg width="128" height="128" fill="none" xmlns="http://www.w3.org/2000/svg"><path d="M70.75 26.65C91 29.9 106.5 47.75 106.5 69.25c0 23.8-19.05 43.15-42.5 43.15S21.5 93.05 21.5 69.25c0-21.55 15.6-39.45 35.95-42.65-.5.45-1.05.95-1.65 1.4-24.65 21.45-23.55 39.35-20.15 51.55s18.25 22.3 29.45 20.95c11.25-1.35 22-6.1 27.55-21.2s-2.8-30-7.85-36.55c-3.75-4.85-10.7-12.5-14.05-16.1" fill="#0088c2"/><path d="M58.45 43C57.1 43 56 44.1 56 45.45V56.5c-1.1-.05-2.3-.15-3.6-.45-.25-.05-.45 0-.7 0-2.05 0-3.75 1.7-3.75 3.75v35.85l11.65 8.8V82.6c0-2.55 2.1-4.65 4.65-4.65s4.65 2.1 4.65 4.65v21.9l11.8-8.75V59.8c0-2.05-1.7-3.75-3.75-3.75-.25 0-.5-.05-.8 0-1.35.2-2.5.3-3.5.35V45.45c0-1.35-1.1-2.45-2.45-2.45z" fill="#e50e1b"/><path d="M32.1 21.9c4.05 3.55 9.45 6.25 9.45 6.25 12.25 7.55 18.85 4.4 18.25 1.3-.35-1.75-3.05-3.55-8.4-3.35-14.6.45-24.4-9.9-24.6-10.1.2.2 1.3 2.35 5.3 5.9" fill="#009bce"/></svg>