<svg width="48" height="40" fill="none" xmlns="http://www.w3.org/2000/svg"><g clip-path="url(#a)"><path fill-rule="evenodd" clip-rule="evenodd" d="M0 38a2 2 0 0 0 2 2h44a2 2 0 0 0 2-2V2A2 2 0 0 0 46.15.005L46 0H2l-.15.005A2 2 0 0 0 0 2zM27 2H2v25h25zM2 29v9h13v-9zm15 9h29v-9H17zm29-11V2H29v25z" fill="#505050"/></g><path fill="#fffd54" d="M2 29h13v9H2z"/><path fill-rule="evenodd" clip-rule="evenodd" d="M7.625 36.273a.96.96 0 0 1-.663.329H5.547v-.711h1.121q.165 0 .328-.164l.137-.164H5.629v-2.817h2.434v-.328H5.52v-.766h.683v-.328H5.52v-.738h.683v-.273h.957v.273h2.762v-.3h.93v.3h.765v.738h-.765v.328h.793v.766H9.047v.328h2.488v1.914q.137 1.04-1.039.903h-.328l.11.136q0 .027.027.055.191.137.3.11h1.04v.683h-1.56q-.436-.056-.573-.219l-.63-.766h-.519zm-.465-4.62h2.735v-.329H7.16zm.875 2.132h-1.45v-.3h1.45zm1.012 0h1.558v-.3H9.047zm1.504 1.067H9.074v-.329h1.559v.22q0 .109-.082.109Zm-3.965 0h1.45v-.329h-1.45z" fill="#fff" stroke="#505050"/><path fill-rule="evenodd" clip-rule="evenodd" d="M7.545 36.273a.96.96 0 0 1-.663.329H5.467v-.711h1.121q.165 0 .329-.164l.136-.164H5.55v-2.817h2.434v-.328H5.44v-.766h.684v-.328H5.44v-.738h.684v-.273h.957v.273h2.761v-.3h.93v.3h.766v.738h-.766v.328h.793v.766H8.967v.328h2.489v1.914q.135 1.04-1.04.903h-.328l.11.136q0 .027.027.055.192.137.3.11h1.04v.683h-1.559q-.437-.056-.574-.219l-.629-.766h-.52zm-.464-4.62h2.734v-.329H7.08v.328Zm.875 2.132h-1.45v-.3h1.45zm1.011 0h1.559v-.3H8.967zm1.504 1.067H8.995v-.329h1.558v.22q0 .109-.082.109m-3.965 0h1.45v-.329h-1.45z" fill="#fff"/><path fill="#ccc" d="M2 2h25v25H2z"/><path fill-rule="evenodd" clip-rule="evenodd" d="M23 4H7v9.5H5l10 11.924L25 13.5h-2z" fill="#fffd54"/><path fill-rule="evenodd" clip-rule="evenodd" d="M20.56 8.946s-.096-1.093-.346-1.548c-.117-.211-.363-.811-1.574-1.327-.45-.191-1.762-.261-1.762-.261s-1.087.052-1.878.613-1.21 1.749-1.21 1.749-.376 1.353-.294 2.373c.061.763.264 1.708.696 2.421.095.156.424.763 1.395 1.15.856.343 1.951.267 1.951.267s1.343-.117 2.144-.81.877-2.221.877-2.221H18.36s-.065.744-.234.997c-.073.11-.35.358-.74.453-.08.02-.442.164-.911-.122-.099-.06-.363-.284-.543-.823-.05-.148-.29-.672-.194-2.476.012-.222.13-1.043.58-1.627.075-.097.425-.33.88-.296.1.007.596.073.928.544.148.21.234.944.234.944z" fill="#505050"/><path d="M16.995 14.207q3.18-.043 3.352-2.664h-1.805q-.086 1.46-1.547 1.504-1.417-.043-1.504-2.879.087-2.836 1.504-2.922 1.461.086 1.547 1.504h1.805Q20.175 6.086 16.995 6q-3.222.129-3.308 4.168.086 3.953 3.308 4.039" fill="#fff"/><path fill-rule="evenodd" clip-rule="evenodd" d="M13.4 8A2.2 2.2 0 1 1 9 8a2.2 2.2 0 0 1 4.4 0m-1.4.02a.8.8 0 1 1-1.6 0 .8.8 0 0 1 1.6 0" fill="#505050"/><path fill-rule="evenodd" clip-rule="evenodd" d="M9.2 8.021a2 2 0 1 1 4 0 2 2 0 0 1-4 0m3 0a1 1 0 1 0-2 0 1 1 0 0 0 2 0" fill="#fff"/><path fill="#fffd54" d="M29 2h17v25H29z"/><path fill-rule="evenodd" clip-rule="evenodd" d="M34.375 5.164v.39h-1.25v-1.25h3.79v-.35h1.327v.312h3.79v1.25H40.82v-.352zm0 .39h1.406v.43h3.555v-.351h1.406v.351h1.172v.86h-1.172v.43h1.133v.898h-1.133v.469h1.25V9.5h-1.64l.312.39a.41.41 0 0 0 .43.196h.937v.82h-1.875v.664h-3.32q-.508.039-.742-.468l-.39-.743-.43.391q-.353.234-1.094.195h-1.055v-.86h.625a.95.95 0 0 0 .742-.233l.352-.352h-1.719v-.86h1.25v-.468H33.32v-.899h1.055v-.43H33.32v-.859h1.055zm1.406 1.72h3.555v-.43H35.78zm3.555 1.367H35.82v-.47h3.516zm-1.602 2.187 2.04.001-.042-.01q-.14-.053-.279-.303L38.711 9.5h-2.07l-.82.703h1.132l.352.43a.52.52 0 0 0 .43.195Zm3.828 1.953v-.82h-5.546q-.313.04-.47-.274l-.273-.468h-1.562l.625 1.054q.196.508.82.508h6.407Zm-1.874 12.117q.859.079.78-.859v-1.68h.43v1.211q0 .196-.156.157h-.156v1.132h.86q.937.117.82-.859v-8.047H39.18v7.695q0 .195-.117.157h-.157v-.313h-.976v-.43h.117q.86.118.781-.78v-4.415h-.898v-.469h1.093v-1.054H37.93v-.39h-1.29v.39h-.976v1.054h.977v.47h-.977v5.195h.938v.43h-1.094v1.054h1.094v.351h1.328v-.351h.976v.351zm-5.079-6.289q-.78.117-.82-.742l-.352-1.875h1.446l.234 1.25q.039.273.235.235h.117v1.132zm6.29-.039h-.43v-1.484h.43zm-3.829.39v.938h.47v-.937zm-3.36 1.68q0 .9.782.743h.938v-1.094h-.157q-.234.039-.234-.273L34.883 19h-1.367l.195 1.64Zm6.759.47h.43v-1.407h-.43v1.406Zm-3.203.859h-.196v-.938h.47v.703q0 .235-.202.24a.4.4 0 0 1-.072-.005m-2.227 2.187q-.039.86-.898.742h-.664v-1.015h.156q.234.04.273-.235l.469-1.875h1.21z" fill="#fff"/><path d="M34.375 5.555v-.39h6.445v.35h1.211v-1.25h-3.789v-.312h-1.328v.352h-3.789v1.25zm0 0h1.406v.43h3.555v-.352h1.406v.351h1.172v.86h-1.172v.43h1.133v.898h-1.133v.469h1.25V9.5h-1.64l.312.39a.41.41 0 0 0 .43.196h.937v.82h-1.875v.664h-3.32q-.508.039-.742-.468l-.39-.743-.43.391q-.353.234-1.094.195h-1.055v-.86h.625a.95.95 0 0 0 .742-.233l.352-.352h-1.719v-.86h1.25v-.468H33.32v-.899h1.055v-.43H33.32v-.859h1.055zm4.96 1.718h-3.554v-.43h3.555zM35.82 8.641h3.516v-.47H35.82zm3.954 2.188h-2.04a.52.52 0 0 1-.43-.196l-.35-.43H35.82l.82-.703h2.07l.743 1.016q.14.25.28.303zm1.788 1.132v.82h-6.406q-.625 0-.82-.508l-.625-1.054h1.562l.274.469q.156.312.469.273zM40.47 24.039q.078.938-.782.86h-.78v-.352h-.977v.351h-1.328v-.351h-1.094v-1.055h1.094v-.43h-.938v-5.195h.977v-.469h-.977v-1.054h.977v-.39h1.289v.39h1.093v1.054H37.93v.47h.898v4.413q.078.9-.781.782h-.117v.43h.976v.312h.157q.117.04.117-.157v-7.695h3.086V24q.117.977-.82.86h-.86v-1.133h.156q.156.04.156-.157v-1.21h-.43v1.68Zm-6.68-6.172q.04.86.82.742h.86v-1.132h-.117q-.196.038-.235-.235l-.234-1.25h-1.446zm6.68.703h.43v-1.484h-.43zm-3.399 1.328v-.937h.47v.937zm-2.578 1.485q-.78.156-.781-.742L33.516 19h1.367l.156 1.016q0 .313.234.273h.157v1.094h-.938Zm6.406-.274h-.43v-1.406h.43zm-3.828.86h.196q.039.005.072.005.201-.005.201-.24v-.703h-.469zm-2.93 2.93q.86.117.9-.743l.546-2.383h-1.211l-.469 1.875q-.039.274-.273.235h-.156v1.015h.664Z" stroke="#505050"/><path fill-rule="evenodd" clip-rule="evenodd" d="M34.375 5.164v.39h-1.25v-1.25h3.79v-.35h1.327v.312h3.79v1.25H40.82v-.352zm0 .39h1.406v.43h3.555v-.351h1.406v.351h1.172v.86h-1.172v.43h1.133v.898h-1.133v.469h1.25V9.5h-1.64l.312.39a.41.41 0 0 0 .43.196h.937v.82h-1.875v.664h-3.32q-.508.039-.742-.468l-.39-.743-.43.391q-.353.234-1.094.195h-1.055v-.86h.625a.95.95 0 0 0 .742-.233l.352-.352h-1.719v-.86h1.25v-.468H33.32v-.899h1.055v-.43H33.32v-.859h1.055zm1.406 1.72h3.555v-.43H35.78zm3.555 1.367H35.82v-.47h3.516zm-1.602 2.187 2.04.001-.042-.01q-.14-.053-.279-.303L38.711 9.5h-2.07l-.82.703h1.132l.352.43a.52.52 0 0 0 .43.195Zm3.828 1.953v-.82h-5.546q-.313.04-.47-.274l-.273-.468h-1.562l.625 1.054q.196.508.82.508h6.407Zm-1.874 12.117q.859.079.78-.859v-1.68h.43v1.211q0 .196-.156.157h-.156v1.132h.86q.937.117.82-.859v-8.047H39.18v7.695q0 .195-.117.157h-.157v-.313h-.976v-.43h.117q.86.118.781-.78v-4.415h-.898v-.469h1.093v-1.054H37.93v-.39h-1.29v.39h-.976v1.054h.977v.47h-.977v5.195h.938v.43h-1.094v1.054h1.094v.351h1.328v-.351h.976v.351zm-5.079-6.289q-.78.117-.82-.742l-.352-1.875h1.446l.234 1.25q.039.273.235.235h.117v1.132zm6.29-.039h-.43v-1.484h.43zm-3.829.39v.938h.47v-.937zm-3.36 1.68q0 .9.782.743h.938v-1.094h-.157q-.234.039-.234-.273L34.883 19h-1.367l.195 1.64Zm6.759.47h.43v-1.407h-.43v1.406Zm-3.203.859h-.196v-.938h.47v.703q0 .235-.202.24a.4.4 0 0 1-.072-.005m-2.227 2.187q-.039.86-.898.742h-.664v-1.015h.156q.234.04.273-.235l.469-1.875h1.21z" fill="#fff"/><path fill="#fffd54" d="M17 29h29v9H17z"/><path fill-rule="evenodd" clip-rule="evenodd" d="M19.692 35.034q1.272-.017 1.34-1.065h-.721q-.035.585-.619.601-.567-.017-.601-1.151.034-1.134.601-1.169.585.035.619.602h.722q-.07-1.065-1.34-1.1-1.29.051-1.324 1.667.035 1.582 1.323 1.615Zm3.163 0q1.461-.034 1.512-1.615-.051-1.616-1.512-1.667-1.496.051-1.53 1.667.034 1.582 1.53 1.615Zm-.808-1.615q-.018 1.169.808 1.151.79 0 .79-1.151 0-1.17-.79-1.169-.826 0-.808 1.169ZM26.91 35v-.533h-1.375V31.82h-.67V35zm3.06-1.581Q29.952 35 28.37 35h-1.08v-3.18h1.083q1.581.018 1.598 1.599Zm-1.65 1.048h-.362v-2.114h.361q.946-.017.928 1.066.018 1.083-.928 1.048Zm5.276-1.89L32.978 35h-.773l-.774-3.18h.705l.481 2.39.619-2.39h.773l.55 2.39h.018l.515-2.39h.636L34.92 35h-.756l-.567-2.423ZM36.484 35l.241-.67h1.255l.24.67h.688l-1.117-3.18h-.808L35.83 35h.653Zm.413-1.203h.91l-.429-1.358h-.017zM40.902 35l1.168-3.18h-.67l-.825 2.51h-.017l-.825-2.51h-.74l1.17 3.18zm3.643-.533V35h-2.183v-3.18h2.132v.533H43.05v.74h1.34v.532h-1.34v.842z" fill="#fff" stroke="#505050"/><path fill-rule="evenodd" clip-rule="evenodd" d="M19.692 35.034q1.272-.017 1.34-1.065h-.721q-.035.585-.619.601-.567-.017-.601-1.151.034-1.134.601-1.169.585.035.619.602h.722q-.07-1.065-1.34-1.1-1.29.051-1.324 1.667.035 1.582 1.323 1.615m3.163 0q1.461-.034 1.512-1.615-.051-1.616-1.512-1.667-1.496.051-1.53 1.667.034 1.582 1.53 1.615m-.808-1.615q-.018 1.169.808 1.151.79 0 .79-1.151 0-1.17-.79-1.169-.826 0-.808 1.169M26.91 35v-.533h-1.375V31.82h-.67V35zm3.06-1.581Q29.952 35 28.37 35h-1.08v-3.18h1.083q1.581.018 1.598 1.599Zm-1.65 1.048h-.362v-2.114h.361q.946-.017.928 1.066.018 1.083-.928 1.048Zm5.276-1.89L32.978 35h-.773l-.774-3.18h.705l.481 2.39.619-2.39h.773l.55 2.39h.018l.515-2.39h.636L34.92 35h-.756l-.567-2.423ZM36.484 35l.241-.67h1.255l.24.67h.688l-1.117-3.18h-.808L35.83 35h.653Zm.413-1.203h.91l-.429-1.358h-.017zM40.902 35l1.168-3.18h-.67l-.825 2.51h-.017l-.825-2.51h-.74l1.17 3.18zm3.643-.533V35h-2.183v-3.18h2.132v.533H43.05v.74h1.34v.532h-1.34v.842z" fill="#fff"/><defs><clipPath id="a"><path fill="#fff" d="M0 0h48v40H0z"/></clipPath></defs></svg>