<svg width="48" height="40" fill="none" xmlns="http://www.w3.org/2000/svg"><g clip-path="url(#a)"><path fill-rule="evenodd" clip-rule="evenodd" d="M0 38a2 2 0 0 0 2 2h44a2 2 0 0 0 2-2V2A2 2 0 0 0 46.15.005L46 0H2l-.15.005A2 2 0 0 0 0 2zM27 2H2v25h25zM2 29v9h13v-9zm15 9h29v-9H17zm29-11V2H29v25z" fill="#505050"/></g><path fill="#3a6af6" d="M2 29h13v9H2z"/><path fill-rule="evenodd" clip-rule="evenodd" d="M11.563 31.516v-.793h-.63l.11-.328H9.84l-.11.328H7.215l-.137-.328H5.875l.11.328h-.63v.793zM9.183 32.8q.192.027.301-.192l.082-.164h1.996v-.683H9.758l.027-.082h-.93l-.136.273q-.082.192-.274.164h-.41v.684h1.149Zm-2.761-1.012v2.023h-.93V31.79h.93Zm1.367 2.023V31.79h-.848v2.023h.848Zm3.774 0H9.02q-.52.029-.602-.246l-.355-.656h1.093l.082.11q.028.163.246.136h2.079zm0 2.817v-.738h-.247v-1.832H5.52v1.832h-.192v.738h6.234Zm-5.141-.738h.793v-1.04h-.793zm1.613 0v-1.04h.766v1.04zm1.64 0h.794v-1.04h-.793z" fill="#fff" stroke="#505050"/><path fill-rule="evenodd" clip-rule="evenodd" d="M11.563 31.516v-.793h-.63l.11-.328H9.84l-.11.328H7.215l-.137-.328H5.875l.11.328h-.63v.793zM9.183 32.8q.192.027.301-.192l.082-.164h1.996v-.683H9.758l.027-.082h-.93l-.136.273q-.082.192-.274.164h-.41v.684h1.149Zm-2.761-1.012v2.023h-.93V31.79h.93Zm1.367 2.023V31.79h-.848v2.023h.848Zm3.774 0H9.02q-.52.029-.602-.246l-.355-.656h1.093l.082.11q.028.163.246.136h2.079zm0 2.817v-.738h-.247v-1.832H5.52v1.832h-.192v.738h6.234Zm-5.141-.738h.793v-1.04h-.793zm1.613 0v-1.04h.766v1.04zm1.64 0h.794v-1.04h-.793z" fill="#fff"/><path fill="#ccc" d="M2 2h25v25H2z"/><mask id="b" fill="#fff"><path fill-rule="evenodd" clip-rule="evenodd" d="M24 8.5a1.5 1.5 0 1 1-3.001-.002A1.5 1.5 0 0 1 24 8.5"/></mask><path fill-rule="evenodd" clip-rule="evenodd" d="M24 8.5a1.5 1.5 0 1 1-3.001-.002A1.5 1.5 0 0 1 24 8.5" fill="#fff"/><path d="M23.815 8.5c0 .726-.59 1.315-1.315 1.315v.37c.93 0 1.685-.755 1.685-1.685zM22.5 9.815A1.315 1.315 0 0 1 21.185 8.5h-.37c0 .93.754 1.685 1.685 1.685zM21.185 8.5c0-.725.588-1.315 1.315-1.315v-.37c-.931 0-1.685.755-1.685 1.685zM22.5 7.185c.725 0 1.315.59 1.315 1.315h.37c0-.93-.755-1.685-1.685-1.685z" fill="#505050" mask="url(#b)"/><mask id="c" fill="#fff"><path fill-rule="evenodd" clip-rule="evenodd" d="M24 14.5a1.501 1.501 0 1 1-3.002-.002A1.501 1.501 0 0 1 24 14.5"/></mask><path fill-rule="evenodd" clip-rule="evenodd" d="M24 14.5a1.501 1.501 0 1 1-3.002-.002A1.501 1.501 0 0 1 24 14.5" fill="#fff"/><path d="M23.815 14.5c0 .725-.59 1.315-1.315 1.315v.37c.93 0 1.685-.756 1.685-1.686h-.37ZM22.5 15.814c-.727 0-1.315-.59-1.315-1.316h-.37c0 .93.754 1.686 1.685 1.686zm-1.315-1.316c0-.725.588-1.314 1.315-1.314v-.37c-.931 0-1.685.754-1.685 1.684zm1.315-1.314c.726 0 1.315.589 1.315 1.314h.37c0-.93-.755-1.684-1.685-1.684z" fill="#505050" mask="url(#c)"/><mask id="d" fill="#fff"><path fill-rule="evenodd" clip-rule="evenodd" d="M16.5 11.5a1.5 1.5 0 1 1-3 0 1.5 1.5 0 0 1 3 0"/></mask><path fill-rule="evenodd" clip-rule="evenodd" d="M16.5 11.5a1.5 1.5 0 1 1-3 0 1.5 1.5 0 0 1 3 0" fill="#fff"/><path d="M16.315 11.5c0 .726-.59 1.315-1.315 1.315v.37c.93 0 1.685-.755 1.685-1.685zM15 12.815a1.315 1.315 0 0 1-1.315-1.315h-.37c0 .93.754 1.685 1.685 1.685zM13.685 11.5c0-.726.588-1.315 1.315-1.315v-.37c-.931 0-1.685.755-1.685 1.685zM15 10.185c.726 0 1.315.59 1.315 1.315h.37c0-.93-.755-1.685-1.685-1.685z" fill="#505050" mask="url(#d)"/><mask id="e" fill="#fff"><path fill-rule="evenodd" clip-rule="evenodd" d="M16.5 17.5a1.5 1.5 0 1 1-3 0 1.5 1.5 0 0 1 3 0"/></mask><path fill-rule="evenodd" clip-rule="evenodd" d="M16.5 17.5a1.5 1.5 0 1 1-3 0 1.5 1.5 0 0 1 3 0" fill="#fff"/><path d="M16.315 17.5c0 .725-.59 1.315-1.315 1.315v.37c.93 0 1.685-.756 1.685-1.686zM15 18.814c-.727 0-1.315-.59-1.315-1.316h-.37c0 .93.754 1.686 1.685 1.686zm-1.315-1.316c0-.725.588-1.314 1.315-1.314v-.37c-.931 0-1.685.754-1.685 1.684zM15 16.185c.725 0 1.315.589 1.315 1.314h.37c0-.93-.755-1.684-1.685-1.684z" fill="#505050" mask="url(#e)"/><mask id="f" fill="#fff"><path fill-rule="evenodd" clip-rule="evenodd" d="M9 8.5a1.5 1.5 0 1 1-3.002-.002A1.5 1.5 0 0 1 9 8.5"/></mask><path fill-rule="evenodd" clip-rule="evenodd" d="M9 8.5a1.5 1.5 0 1 1-3.002-.002A1.5 1.5 0 0 1 9 8.5" fill="#fff"/><path d="M8.815 8.5c0 .726-.59 1.315-1.315 1.315v.37c.93 0 1.685-.755 1.685-1.685zM7.5 9.815A1.314 1.314 0 0 1 6.185 8.5h-.37c0 .93.754 1.685 1.685 1.685zM6.185 8.5c0-.725.588-1.315 1.315-1.315v-.37c-.932 0-1.685.756-1.685 1.685zM7.5 7.185c.725 0 1.315.59 1.315 1.315h.37c0-.929-.755-1.685-1.685-1.685z" fill="#505050" mask="url(#f)"/><mask id="g" fill="#fff"><path fill-rule="evenodd" clip-rule="evenodd" d="M9 14.5a1.5 1.5 0 1 1-3 0 1.5 1.5 0 0 1 3 0"/></mask><path fill-rule="evenodd" clip-rule="evenodd" d="M9 14.5a1.5 1.5 0 1 1-3 0 1.5 1.5 0 0 1 3 0" fill="#fff"/><path d="M8.815 14.5c0 .725-.59 1.315-1.315 1.315v.37c.93 0 1.685-.756 1.685-1.686h-.37ZM7.5 15.814c-.727 0-1.315-.59-1.315-1.316h-.37c0 .93.754 1.686 1.685 1.686zm-1.315-1.316c0-.724.588-1.314 1.315-1.314v-.37c-.931 0-1.685.755-1.685 1.684zM7.5 13.185c.725 0 1.315.59 1.315 1.314h.37c0-.929-.756-1.684-1.685-1.684z" fill="#505050" mask="url(#g)"/><rect x="7" y="21" width="16" height="2" rx="1" fill="#3a6af6"/><path fill="#3a6af6" d="M29 2h17v25H29z"/><path d="M35.5 4.998q-.531.062-.594-.407l-.312-1.406h1.031l.188.781q.062.22.218.188h.5v.844zm1.25-1.563h1.656l.094-.25h1.094l-.063.219h2.157v1.562h-1v-.625h-1.47l-.75 2.188q-.124.344-.25.375v2.219q0 .25.188.25h.813v.843H37.78q-.687.126-.593-.75V7.03h-.5v-.906h.656q.188 0 .218-.188l.594-1.594h-.406v.657h-1zm-1.344 3.813q-.437.062-.562-.563l-.313-1.344h1.032l.187.813q.03.25.219.219h.468v.875h-1.03Zm4.375 2.28-.75-4.124h1.032l.343 1.906h.188q.125 0 .125-.187V5.466h.875v1.97q.062.78-.563.718h-.437l.218 1.062q.031.188.22.188h.562v.812h-1.125q-.594.095-.688-.687Zm-4.968-.093q.249.031.312-.25l.375-1.5h1.031l-.5 1.875q-.093.72-.718.625h-.782v-.75zm2 5.219v-.844H41.5v.844l-.781 1v.531h.906v.906h-.875v.375q.03.938-.813.844h-3v-.875h2.5q.157 0 .157-.187v-.157h-2.969v-.906h2.969v-.187H37.25v-.875h2.469l.25-.47h-3.157Zm-.157-2.281v-.907h3.719q.125 0 .125-.093v-.125h1.125v.218q0 .906-.875.907zm-2.062 5.093h.218q.282.032.344-.312l.25-1.281h1.125l-.343 1.75q-.032.687-.75.656h-.844zm.343-4.687-.28-1.469h1.25l.156.906q.03.22.187.188h.188v.875h-.907q-.5.03-.593-.5Zm-.093 2.25-.25-1.406h1.156l.156.843q.031.25.313.22h.187v.812h-.968q-.532.062-.594-.47Zm5.031-1.438v-.75h.156q.313.031.313-.093l.093-.125h1.094l-.187.593q-.094.406-.563.375zm-.219 0h-.875q-.562.031-.531-.53v-.438h1.031v.125q0 .093.157.093h.218zm-1.625 0h-.812q-.531-.031-.563-.53v-.438h1.032v.125q-.032.093.156.093h.187zm-.687 8.688V19.09h1.343v3.188h-1.343Zm-2.907-1.375h.407q.156.03.281-.25l.531-1.25h1.375l-.937 2.031q-.219.563-.813.5h-.843zm5.438.531-.719-2h1.313L41 20.81q.063.125.188.125h.468v1.063h-1.031q-.594.093-.75-.563m-2.563 1.688v-.5h1.344v.5h2.938v1.093h-2.938v1h2.907v1.032h-7.094v-1.032h2.843v-1h-2.906v-1.093h2.907Z" fill="#fff"/><path fill-rule="evenodd" clip-rule="evenodd" d="m35.625 3.185.188.781q.062.22.218.188h.5v.844H35.5q-.357.041-.503-.157a.54.54 0 0 1-.09-.25l-.313-1.406zm-1.21 1.496-.31-1.387a.5.5 0 0 1 .489-.609h1.031a.5.5 0 0 1 .486.383l.139.579v-.212a.5.5 0 0 1 .5-.5h1.317a.5.5 0 0 1 .433-.25h1.094a.5.5 0 0 1 .413.219h1.68a.5.5 0 0 1 .5.5v1.562a.5.5 0 0 1-.123.33q.03.08.03.17v1.95c.021.298-.01.635-.216.898a.9.9 0 0 1-.67.34l.05.25h.336a.5.5 0 0 1 .5.5v.812a.5.5 0 0 1-.5.5h-1.09c-.297.037-.605-.026-.846-.26a.5.5 0 0 1-.44.26h-1.396c-.308.046-.676 0-.925-.314-.22-.278-.24-.644-.21-.961V9.04l-.165.62c-.042.288-.149.584-.39.793-.251.219-.562.268-.853.232h-.748a.5.5 0 0 1-.5-.5v-.75a.5.5 0 0 1 .5-.5h.141l.312-1.248a.9.9 0 0 1-.29-.195c-.193-.192-.288-.451-.339-.7l-.31-1.337a.5.5 0 0 1 .407-.607 1 1 0 0 1-.038-.167Zm.116.66h1.032l.187.813q.028.228.188.222l.03-.003h.47v.875h-1.032a.5.5 0 0 1-.148 0q-.312-.051-.414-.563zm.594 3.844q-.05.225-.22.25a.3.3 0 0 1-.093 0h-.28v.75h.78q.626.094.72-.625l.5-1.875H35.5zm2.063-2.156v2.437q-.094.876.593.75h1.438v-.843h-.813q-.187 0-.187-.25v-2.22q.124-.03.25-.374l.75-2.188h1.468v.625h1V3.404h-2.156l.063-.219H38.5l-.094.25H36.75v1.563h1V4.34h.406l-.593 1.594q-.031.188-.22.188h-.656v.906h.5Zm-.934-1.156a.5.5 0 0 1 .434-.25h.457l.047-.125h-.442a.5.5 0 0 1-.11-.012.5.5 0 0 1-.109.012h-.42l.087.375zm3.934-.953v-.08h-.612l-.022.063h.508a.5.5 0 0 1 .126.016Zm-1.157.484h1.032l.343 1.906h.188a.1.1 0 0 0 .096-.051.3.3 0 0 0 .029-.136V5.466h.875v1.97q.058.733-.489.722l-.074-.004h-.437l.218 1.062q.031.188.22.188h.562v.812h-1.125q-.594.095-.688-.687zm-.22 1.583a1 1 0 0 1-.092.142v1.744h.435zm-1.998 7.667h3.156l-.25.469H37.25v.875h2.344v.187h-2.969v.906h2.969v.157q0 .187-.157.187h-2.5v.875h3q.786.087.813-.719.002-.06 0-.125v-.375h.875v-.906h-.906v-.531l.781-1v-.844h-4.688zm.073-1.155a.7.7 0 0 0 .333.092h.812v-.75h-.187a.4.4 0 0 1-.094-.008q-.05-.012-.063-.04a.07.07 0 0 1 0-.045v-.125h-1.03v.437a.7.7 0 0 0 .064.258.45.45 0 0 0 .165.181m-.449-.22v-.875h-.187a.2.2 0 0 1-.07 0l-.023-.008q-.074-.037-.094-.18l-.157-.906h-1.25l.282 1.469a.7.7 0 0 0 .147.344q.153.174.446.156h.907Zm-.687.344h-1.156l.25 1.406q.04.34.272.437a.6.6 0 0 0 .322.032h.968v-.813h-.187a.5.5 0 0 1-.113 0q-.176-.025-.2-.219zm-.344 2.25-.25 1.28q-.052.288-.256.313a.4.4 0 0 1-.087 0h-.22v.813h.844q.72.03.75-.656l.344-1.75zm1.035 2.5q-.056.07-.127.134c-.255.222-.579.283-.887.272h-.833a.5.5 0 0 1-.5-.5v-.813a.5.5 0 0 1 .5-.5h.09l.205-1.054a1 1 0 0 1-.175-.108c-.235-.185-.333-.452-.365-.7l-.247-1.394a.5.5 0 0 1 .415-.582 1.4 1.4 0 0 1-.071-.258l-.28-1.466a.5.5 0 0 1 .49-.594h1.25a.5.5 0 0 1 .44.263.5.5 0 0 1 .31-.107h3.43a.5.5 0 0 1 .414-.218h1.125a.5.5 0 0 1 .5.5v.218c0 .295-.056.589-.21.836a.5.5 0 0 1 .093.471l-.182.578-.019.065a.5.5 0 0 1 .193.394v.844a.5.5 0 0 1-.106.308l-.565.723h.296a.5.5 0 0 1 .5.5v.906a.5.5 0 0 1-.5.5h-.375c-.008.325-.09.655-.327.902-.278.288-.657.351-1.011.317H39.1q.04.057.062.125h1.306a.5.5 0 0 1 .466.32l.456 1.18h.265a.5.5 0 0 1 .5.5v1.063a.5.5 0 0 1-.5.5h-.996c-.279.035-.57-.008-.82-.194-.243-.183-.375-.45-.444-.724l-.209-.58v1.279q0 .116-.048.214a.5.5 0 0 1 .017.13h2.438a.5.5 0 0 1 .5.5v1.093a.5.5 0 0 1-.5.5h-.032a.5.5 0 0 1 .5.5v1.032a.5.5 0 0 1-.5.5H34.47a.5.5 0 0 1-.5-.5v-1.032a.5.5 0 0 1 .5-.5h-.063a.5.5 0 0 1-.5-.5v-1.093a.5.5 0 0 1 .5-.5h2.407q0-.117.048-.215a.5.5 0 0 1-.017-.13v-1.275l-.29.629a1.3 1.3 0 0 1-.51.635 1.26 1.26 0 0 1-.787.168h-.82a.5.5 0 0 1-.5-.5v-1.031a.5.5 0 0 1 .5-.5h.251l.508-1.196a.5.5 0 0 1 .46-.304h1.224a.5.5 0 0 1 .05-.094.5.5 0 0 1-.489-.438Zm.903.718v3.188h1.343V19.09h-1.343Zm-1.688.313-.531 1.25q-.1.225-.22.25a.2.2 0 0 1-.061 0h-.407v1.031h.844q.594.063.813-.5l.937-2.031zm1.657 3.719h-2.907v1.093h2.907v1h-2.844v1.032h7.093v-1.032h-2.906v-1h2.938v-1.093h-2.938v-.5h-1.343zm2.562-1.688q.156.656.75.563h1.031v-1.063h-.468q-.126 0-.188-.125l-.531-1.375h-1.313zm1.44-8.125a1 1 0 0 0 .029-.094l.187-.593h-1.093l-.094.125q0 .074-.113.093l-.075.007q-.054 0-.125-.007h-.156v.75h.906q.411.028.534-.28Zm-1.659-.469h-.218a.4.4 0 0 1-.063-.005q-.094-.015-.094-.088v-.125H38.25v.437a.7.7 0 0 0 .023.25.36.36 0 0 0 .258.258q.106.031.25.023h.875zm1.094-.468q.459 0 .678-.25a.8.8 0 0 0 .172-.375 1.5 1.5 0 0 0 .025-.282v-.218H40.5v.125q0 .093-.125.093h-3.719v.907zm-4.463 1.406h.026v.135z" fill="#505050"/><path fill="#3a6af6" d="M17 29h29v9H17z"/><path d="M18.669 32.594v1.922h.328q.86.03.844-.953.015-1-.844-.97h-.328ZM18.059 35v-2.89h.985q1.437.015 1.453 1.453-.015 1.421-1.453 1.437zm2.904 0v-2.89h1.938v.484h-1.313v.672h1.219v.484h-1.219v.766h1.36V35zm5.138 0h-.89l-1.125-2.406-.016.015V35h-.578v-2.89h.922l1.093 2.28.016-.015v-2.266h.578zm2.701-2.062h-.594q-.016-.438-.469-.438-.453.03-.468.375 0 .282.453.39a.2.2 0 0 0 .078.016q.015 0 .078.016 1.015.202 1 .797-.016.906-1.234.937-1.125 0-1.11-.953h.625q0 .5.485.531.562-.015.578-.375 0-.297-.547-.406a.5.5 0 0 1-.11-.031q-.953-.22-.953-.797.048-.89 1.203-.953.938.047.985.89ZM29.346 35v-2.89h1.938v.484H29.97v.672h1.219v.484H29.97v.766h1.36V35h-1.985Zm5.477-2.406v1.922h.328q.86.03.844-.953.016-1-.844-.97h-.328ZM34.213 35v-2.89h.985q1.437.015 1.453 1.453-.015 1.421-1.453 1.437zm4.857-2.89h.626v1.812q-.047 1.078-1.25 1.11-1.234-.032-1.266-1.11v-1.813h.625v1.578q-.063.954.64.922.688.032.626-.922zm3.389.828h-.594q-.015-.438-.469-.438-.453.03-.468.375 0 .282.453.39.046.016.078.016.015 0 .078.016 1.015.202 1 .797-.015.906-1.234.937-1.125 0-1.11-.953h.625q0 .5.485.531.562-.015.578-.375 0-.297-.547-.406a.5.5 0 0 1-.11-.031q-.953-.22-.953-.797.047-.89 1.203-.953.938.047.985.89Zm.357-.344v-.485h2.343v.485h-.86V35h-.624v-2.406z" fill="#fff"/><path fill-rule="evenodd" clip-rule="evenodd" d="M18.06 32.11V35h.984q.247-.003.453-.047.816-.177.966-1.012.031-.174.034-.379a2.3 2.3 0 0 0-.034-.383q-.15-.846-.97-1.023a2.2 2.2 0 0 0-.45-.047h-.984Zm.937.484h-.328v1.922h.328a2 2 0 0 0 .172-.005 1 1 0 0 0 .2-.042q.483-.165.472-.907.012-.755-.477-.922a.9.9 0 0 0-.266-.046zm.172.51v.902c.066-.014.088-.037.094-.044.023-.026.082-.123.078-.392v-.015c.004-.276-.056-.378-.08-.406-.007-.008-.028-.031-.092-.045m1.294-.993c-.365-.354-.865-.496-1.414-.502h-.99a.5.5 0 0 0-.5.5V35a.5.5 0 0 0 .5.5h.99c.549-.006 1.049-.146 1.414-.498a.5.5 0 0 0 .5.498h1.985c.1 0 .193-.03.272-.08.078.05.171.08.272.08h.578a.5.5 0 0 0 .5-.5v-.19l.188.402a.5.5 0 0 0 .453.288h.89a.5.5 0 0 0 .446-.274c.305.228.696.305 1.099.305h.012c.456-.012.883-.105 1.208-.352l.01-.008a.5.5 0 0 0 .47.329h1.985a.5.5 0 0 0 .5-.5v-.484a.5.5 0 0 0-.262-.44.5.5 0 0 0 .121-.326v-.484a.5.5 0 0 0-.09-.286.5.5 0 0 0 .184-.386v-.485a.5.5 0 0 0-.5-.5h-1.938a.5.5 0 0 0-.468.323l-.01-.01c-.28-.252-.645-.355-1.026-.375h-.051c-.44.024-.85.13-1.163.377l-.048.04a.5.5 0 0 0-.479-.355h-.578a.5.5 0 0 0-.5.5v.115l-.158-.33a.5.5 0 0 0-.451-.285h-.922a.5.5 0 0 0-.296.097.5.5 0 0 0-.295-.097h-1.938a.5.5 0 0 0-.5.5zm.5 2.889h1.985v-.484h-1.36v-.766h1.219v-.484h-1.219v-.672h1.313v-.485h-1.938zm4.56-.625-.015.016-1.094-2.282h-.922V35h.578v-2.39l.016-.016L25.21 35h.89v-2.89h-.578zm1.013-.297v.052q.003.208.065.37a.77.77 0 0 0 .503.457 1.7 1.7 0 0 0 .542.074h.011q.477-.015.767-.163a.78.78 0 0 0 .422-.514 1 1 0 0 0 .034-.26.6.6 0 0 0-.034-.219q-.099-.273-.487-.438a2 2 0 0 0-.15-.056 3 3 0 0 0-.407-.1.3.3 0 0 1-.078-.015q-.453-.11-.453-.391a.35.35 0 0 1 .088-.231q.114-.126.38-.144a1 1 0 0 1 .103.006.44.44 0 0 1 .22.085q.113.09.14.267l.006.08h.594a1 1 0 0 0-.147-.5.8.8 0 0 0-.36-.293 1.4 1.4 0 0 0-.478-.098l-.078.005-.03.003a1.6 1.6 0 0 0-.638.174q-.429.236-.457.771 0 .358.366.578.082.049.181.092a2.5 2.5 0 0 0 .417.131 1 1 0 0 0 .099.027q.546.11.547.406a.33.33 0 0 1-.081.213q-.135.153-.497.162h-.011a.55.55 0 0 1-.313-.11.45.45 0 0 1-.152-.293 1 1 0 0 1-.009-.128zm2.81.922h1.985v-.484h-1.36v-.766h1.219v-.484h-1.219v-.672h1.313v-.485h-1.938zm4.868-2.89V35h.984q.247-.003.453-.047.987-.214 1-1.39-.012-1.193-1.004-1.407a2.2 2.2 0 0 0-.449-.047zm.937.484h-.328v1.922h.375l.125-.005a1 1 0 0 0 .2-.042q.483-.165.472-.907.012-.755-.476-.922a.9.9 0 0 0-.267-.046l-.054-.001zm.172.51v.902c.067-.014.088-.037.094-.044.023-.026.082-.123.078-.392v-.015c.004-.276-.055-.378-.08-.406-.007-.008-.028-.031-.092-.045m-1.11 2.396a.5.5 0 0 1-.5-.5v-2.89a.5.5 0 0 1 .5-.5h.99c.558.005 1.064.15 1.43.517l.047.048v-.066a.5.5 0 0 1 .5-.5h.625a.5.5 0 0 1 .5.5v1.578l-.001.033q-.011.194.01.293a.3.3 0 0 0 .028.091c.01.003.035.008.081.006h.045a.3.3 0 0 0 .068-.004.3.3 0 0 0 .027-.09 1.3 1.3 0 0 0 .008-.328v-1.579a.5.5 0 0 1 .5-.5h.625a.5.5 0 0 1 .49.402q.047-.045.099-.087c.313-.248.723-.353 1.162-.376h.052c.328.016.645.095.905.278a.5.5 0 0 1 .412-.217h2.343a.5.5 0 0 1 .5.5v.485a.5.5 0 0 1-.5.5h-.36V35a.5.5 0 0 1-.5.5h-.624a.5.5 0 0 1-.5-.5v-1.906h-.241a.5.5 0 0 1-.182.248c.187.206.292.465.285.762-.008.426-.165.81-.514 1.075-.325.247-.752.34-1.208.352h-.012c-.433 0-.853-.09-1.166-.359a1.2 1.2 0 0 1-.243-.283 1.4 1.4 0 0 1-.203.223c-.328.291-.764.407-1.232.42h-.026c-.475-.013-.919-.127-1.25-.418a1.4 1.4 0 0 1-.322-.413q-.096.156-.23.287c-.366.363-.872.506-1.428.512zm5.98-1.422v.052q.004.262.1.448a.77.77 0 0 0 .468.378 1.7 1.7 0 0 0 .541.075h.012q.476-.015.767-.163.447-.228.456-.774.011-.431-.521-.657a2 2 0 0 0-.151-.056 3 3 0 0 0-.406-.1.3.3 0 0 1-.078-.015q-.454-.11-.453-.391a.35.35 0 0 1 .088-.231q.114-.126.38-.144a1 1 0 0 1 .103.006.44.44 0 0 1 .22.085q.113.09.139.267l.007.08h.594a1.2 1.2 0 0 0-.068-.344 1 1 0 0 0-.075-.151l-.004-.005a.8.8 0 0 0-.36-.293 1.4 1.4 0 0 0-.478-.098l-.078.005-.03.003a1.6 1.6 0 0 0-.638.174q-.429.236-.457.771 0 .358.366.578.08.049.181.092a2.5 2.5 0 0 0 .417.131 1 1 0 0 0 .099.027q.546.11.547.406a.33.33 0 0 1-.081.213q-.136.153-.497.162h-.011a.55.55 0 0 1-.313-.11.45.45 0 0 1-.152-.293 1 1 0 0 1-.009-.128zm3.482.922h.625v-2.406h.86v-.485h-2.344v.485h.859zm-4.604-1.313V32.11h.625v1.813q-.03.65-.478.92-.29.173-.754.189h-.018q-.474-.012-.77-.178-.477-.266-.496-.931V32.11h.625v1.578q-.035.53.167.756.158.177.463.167h.021q.3.01.456-.171.193-.225.159-.752Z" fill="#505050"/><defs><clipPath id="a"><path fill="#fff" d="M0 0h48v40H0z"/></clipPath></defs></svg>