<svg width="48" height="40" fill="none" xmlns="http://www.w3.org/2000/svg"><g clip-path="url(#a)"><path fill-rule="evenodd" clip-rule="evenodd" d="M0 38a2 2 0 0 0 2 2h44a2 2 0 0 0 2-2V2A2 2 0 0 0 46.15.005L46 0H2l-.15.005A2 2 0 0 0 0 2zM27 2H2v25h25zM2 29v9h13v-9zm15 9h29v-9H17zm29-11V2H29v25z" fill="#505050"/></g><path fill="#fffd54" d="M2 29h13v9H2z"/><path fill-rule="evenodd" clip-rule="evenodd" d="M7.625 36.273a.96.96 0 0 1-.663.329H5.547v-.711h1.121q.165 0 .328-.164l.137-.164H5.629v-2.817h2.434v-.328H5.52v-.766h.683v-.328H5.52v-.738h.683v-.273h.957v.273h2.762v-.3h.93v.3h.765v.738h-.765v.328h.793v.766H9.047v.328h2.488v1.914q.137 1.04-1.039.903h-.328l.11.136q0 .027.027.055.191.137.3.11h1.04v.683h-1.56q-.436-.056-.573-.219l-.63-.766h-.519zm-.465-4.62h2.735v-.329H7.16zm.875 2.132h-1.45v-.3h1.45zm1.012 0h1.558v-.3H9.047zm1.504 1.067H9.074v-.329h1.559v.22q0 .109-.082.109Zm-3.965 0h1.45v-.329h-1.45z" fill="#fff" stroke="#505050"/><path fill-rule="evenodd" clip-rule="evenodd" d="M7.545 36.273a.96.96 0 0 1-.663.329H5.467v-.711h1.121q.165 0 .329-.164l.136-.164H5.55v-2.817h2.434v-.328H5.44v-.766h.684v-.328H5.44v-.738h.684v-.273h.957v.273h2.761v-.3h.93v.3h.766v.738h-.766v.328h.793v.766H8.967v.328h2.489v1.914q.135 1.04-1.04.903h-.328l.11.136q0 .027.027.055.192.137.3.11h1.04v.683h-1.559q-.437-.056-.574-.219l-.629-.766h-.52zm-.464-4.62h2.734v-.329H7.08v.328Zm.875 2.132h-1.45v-.3h1.45zm1.011 0h1.559v-.3H8.967zm1.504 1.067H8.995v-.329h1.558v.22q0 .109-.082.109m-3.965 0h1.45v-.329h-1.45z" fill="#fff"/><path fill="#ccc" d="M2 2h25v25H2z"/><path d="M5.925 4.134A1 1 0 0 0 5.56 5.5l3.212 5.562-3.212 5.563a1 1 0 0 0-.066.138 1 1 0 0 0 .108 1.023L9.38 22.8H5.65a1.25 1.25 0 1 0 0 2.5h18.5a1.25 1.25 0 1 0 0-2.5h-.836l-4.292-5.696 3.19-5.525a1 1 0 0 0 0-1.033L18.722 4.5a1 1 0 1 0-1.733 1l3.212 5.562-3.212 5.563a1 1 0 0 0-.066.138 1 1 0 0 0 .109 1.023L20.81 22.8h-3.211l-4.292-5.696 3.19-5.525a1 1 0 0 0 0-1.033L13.007 4.5a1 1 0 0 0-1.733 1l3.212 5.562-3.212 5.563a1 1 0 0 0-.066.138 1 1 0 0 0 .108 1.023l3.779 5.014h-3.211l-4.292-5.696 3.19-5.525a1 1 0 0 0 .144-.517 1 1 0 0 0-.144-.516L7.292 4.5a1 1 0 0 0-1.367-.366M29 2h17v25H29z" fill="#fffd54"/><path fill-rule="evenodd" clip-rule="evenodd" d="M38.398 12.86v-2.344h3.75V9.383h-3.75V5.086h3.555V3.992h-8.516v1.094h3.555v4.297H33.32v1.133h3.672v2.343h1.406ZM41 20.718q.954-.04.953-1.133V16.07h-8.672v4.649h7.72Zm-6.313-2.696h5.938v-.82h-5.938zm5.547 1.72h-5.547v-.782h5.938v.39q-.039.391-.39.391Zm-1.875 4.374v.781h-1.484v-.78h-3.75v-1.016h3.75v-.899h-3.672v-1.015h8.828v1.015H38.36v.899h3.711v1.015h-3.71Z" fill="#fff" stroke="#505050"/><path fill-rule="evenodd" clip-rule="evenodd" d="M38.398 12.86v-2.344h3.75V9.383h-3.75V5.086h3.555V3.992h-8.516v1.094h3.555v4.297H33.32v1.133h3.672v2.343h1.406ZM41 20.718q.954-.04.953-1.133V16.07h-8.672v4.649h7.72Zm-6.313-2.696h5.938v-.82h-5.938zm5.547 1.72h-5.547v-.782h5.938v.39q-.039.391-.39.391Zm-1.875 4.374v.781h-1.484v-.78h-3.75v-1.016h3.75v-.899h-3.672v-1.015h8.828v1.015H38.36v.899h3.711v1.015h-3.71Z" fill="#fff"/><path fill="#fffd54" d="M17 29h29v9H17z"/><path fill-rule="evenodd" clip-rule="evenodd" d="M27.76 35.04q1.66-.04 1.718-1.837-.059-1.836-1.718-1.894-1.7.058-1.739 1.894.04 1.797 1.739 1.836Zm-5.489-1.837Q22.254 35 20.456 35h-1.23v-3.613h1.23q1.797.02 1.817 1.816Zm-2.285 1.191h.54-.13q1.075.04 1.055-1.19.02-1.232-1.055-1.212h-.41zm3.575.606v-1.445h.82q.273 0 .332.468.019.508.137.977h.84q-.157-.195-.196-.86a.4.4 0 0 1-.02-.117q-.117-.741-.644-.8v-.02q.724-.175.742-.879-.02-.898-1.25-.937H22.78V35h.782Zm0-2.05h.644q.528 0 .547-.509-.02-.45-.547-.449h-.644v.957Zm3.28.253q-.018 1.329.919 1.309.898 0 .898-1.309 0-1.328-.898-1.328-.938 0-.918 1.328Zm4.805 1.836q1.505-.039 1.563-1.387v-2.265h-.781v1.972q.058 1.212-.781 1.153-.879.059-.801-1.153v-1.972h-.782v2.265q.04 1.348 1.582 1.387ZM36.295 35q-.312.04-.82.04-1.66-.08-1.7-1.837.04-1.758 1.7-1.894 1.68 0 1.68 1.171h-.821q0-.605-.723-.605-1.015.04-1.015 1.328 0 1.29 1.015 1.309.294 0 .684-.059.02 0 .039-.02v-.761h-.703v-.606h1.465v1.817q-.39.117-.801.117Zm2.285 0v-1.582h1.387V35h.761v-3.613h-.78v1.425H38.58v-1.425h-.762V35zm4.395-3.008V35h-.782v-3.008H41.12v-.605h2.93v.605z" fill="#fff" stroke="#505050"/><path fill-rule="evenodd" clip-rule="evenodd" d="M27.76 35.04q1.66-.04 1.718-1.837-.059-1.836-1.718-1.894-1.7.058-1.739 1.894.04 1.797 1.739 1.836Zm-5.489-1.837Q22.254 35 20.456 35h-1.23v-3.613h1.23q1.797.02 1.817 1.816Zm-2.285 1.191h.54-.13q1.075.04 1.055-1.19.02-1.232-1.055-1.212h-.41zm3.575.606v-1.445h.82q.273 0 .332.468.019.508.137.977h.84q-.157-.195-.196-.86a.4.4 0 0 1-.02-.117q-.117-.741-.644-.8v-.02q.724-.175.742-.879-.02-.898-1.25-.937H22.78V35h.782Zm0-2.05h.644q.528 0 .547-.509-.02-.45-.547-.449h-.644v.957Zm3.28.253q-.018 1.329.919 1.309.898 0 .898-1.309 0-1.328-.898-1.328-.938 0-.918 1.328Zm4.805 1.836q1.505-.039 1.563-1.387v-2.265h-.781v1.972q.058 1.212-.781 1.153-.879.059-.801-1.153v-1.972h-.782v2.265q.04 1.348 1.582 1.387M36.295 35q-.312.04-.82.04-1.66-.08-1.7-1.837.04-1.758 1.7-1.894 1.68 0 1.68 1.171h-.821q0-.605-.723-.605-1.015.04-1.015 1.328 0 1.29 1.015 1.309.294 0 .684-.059.02 0 .039-.02v-.761h-.703v-.606h1.465v1.817q-.39.117-.801.117m2.285 0v-1.582h1.387V35h.761v-3.613h-.78v1.425H38.58v-1.425h-.762V35zm4.395-3.008V35h-.782v-3.008H41.12v-.605h2.93v.605z" fill="#fff"/><defs><clipPath id="a"><path fill="#fff" d="M0 0h48v40H0z"/></clipPath></defs></svg>