<svg width="48" height="40" fill="none" xmlns="http://www.w3.org/2000/svg"><g clip-path="url(#a)"><path fill-rule="evenodd" clip-rule="evenodd" d="M0 38a2 2 0 0 0 2 2h44a2 2 0 0 0 2-2V2A2 2 0 0 0 46.15.005L46 0H2l-.15.005A2 2 0 0 0 0 2zM27 2H2v25h25zM2 29v9h13v-9zm15 9h29v-9H17zm29-11V2H29v25z" fill="#505050"/></g><path fill="#c93e34" d="M2 29h13v9H2z"/><path fill-rule="evenodd" clip-rule="evenodd" d="M7.926 35.07v-.847H6.668l1.613-2.57h-1.12l-.384.628h-.355l1.203-1.886H6.559l-1.04 1.613v1.039h.876l-.875 1.258v.765zm3.8 1.532v-.875h-1.285V31.27H11.7v-.875H8.281v.875h1.094v4.457H8.254v.875zm-3.8-.903v.82H5.492v-.82z" fill="#fff"/><path d="M7.926 34.223h.5v-.5h-.5zm0 .847v.5h.5v-.5zm-1.258-.847-.424-.266-.48.766h.904zm1.613-2.57.424.265.48-.766h-.904zm-1.12 0v-.5h-.282l-.146.24zm-.384.628v.5h.281l.146-.24zm-.355 0L6 32.012l-.49.77h.912v-.5Zm1.203-1.886.422.268.49-.768h-.912zm-1.066 0v-.5h-.273l-.148.229.42.27Zm-1.04 1.613-.42-.27-.08.123v.147zm0 1.039h-.5v.5h.5zm.876 0 .41.285.546-.785h-.956zm-.875 1.258-.41-.286-.09.129v.157zm0 .765h-.5v.5h.5zm6.207.657h.5v-.5h-.5zm0 .875v.5h.5v-.5zm-1.286-.875h-.5v.5h.5zm0-4.457v-.5h-.5v.5zm1.258 0v.5h.5v-.5zm0-.875h.5v-.5h-.5zm-3.418 0v-.5h-.5v.5zm0 .875h-.5v.5h.5zm1.094 0h.5v-.5h-.5zm0 4.457v.5h.5v-.5zm-1.121 0v-.5h-.5v.5zm0 .875h-.5v.5h.5zm-.328-.082v.5h.5v-.5zm0-.82h.5v-.5h-.5zm-2.434.82h-.5v.5h.5zm0-.82v-.5h-.5v.5zm1.934-1.477v.847h1v-.847zm-.758.5h1.258v-1H6.668zm1.19-3.336-1.614 2.57.847.532 1.614-2.57zm-.698.765h1.121v-1h-1.12v1Zm.044.39.383-.63-.854-.52-.383.63zm-.782.24h.355v-1h-.355zm.781-2.656L6 32.012l.843.538 1.204-1.887zm-.644.768h1.066v-1H6.559zm-.62 1.385 1.04-1.614-.84-.541-1.04 1.613zm.08.768v-1.04h-1v1.04zm.376-.5H5.52v1h.875zM5.93 34.59l.875-1.258-.82-.57-.876 1.257zm.09.48v-.765h-1v.765zm1.906-.5H5.52v1h2.406zm3.3 1.157v.875h1v-.875zm-.785.5h1.286v-1H10.44v1Zm-.5-4.957v4.457h1V31.27zm1.758-.5h-1.258v1H11.7zm-.5-.375v.875h1v-.875zm-2.918.5H11.7v-1H8.281zm.5.375v-.875h-1v.875zm.594-.5H8.281v1h1.094zm.5 4.957V31.27h-1v4.457zm-1.621.5h1.121v-1H8.254zm.5.375v-.875h-1v.875zm2.973-.5H8.254v1h3.473zm-3.301.418v-.82h-1v.82zm-2.934.5h2.434v-1H5.492zm-.5-1.32v.82h1v-.82zm2.934-.5H5.492v1h2.434z" fill="#505050"/><path fill-rule="evenodd" clip-rule="evenodd" d="M7.834 35.07v-.847H6.576l1.613-2.57H7.068l-.383.628H6.33l1.203-1.886H6.466l-1.039 1.613v1.039h.875l-.875 1.258v.765zm3.8 1.532v-.875H10.35V31.27h1.258v-.875H8.19v.875h1.094v4.457H8.162v.875zm-3.8-.903v.82H5.4v-.82z" fill="#fff"/><path fill="#ccc" d="M2 2h25v25H2z"/><path d="M5.925 4.134A1 1 0 0 0 5.56 5.5l3.212 5.562-3.212 5.563a1 1 0 0 0-.066.138 1 1 0 0 0 .108 1.023L9.38 22.8H5.65a1.25 1.25 0 1 0 0 2.5h18.5a1.25 1.25 0 1 0 0-2.5h-.836l-4.292-5.696 3.19-5.525a1 1 0 0 0 0-1.033L18.722 4.5a1 1 0 1 0-1.733 1l3.212 5.562-3.212 5.563a1 1 0 0 0-.066.138 1 1 0 0 0 .109 1.023L20.81 22.8h-3.211l-4.292-5.696 3.19-5.525a1 1 0 0 0 0-1.033L13.007 4.5a1 1 0 0 0-1.733 1l3.212 5.562-3.212 5.563a1 1 0 0 0-.066.138 1 1 0 0 0 .108 1.023l3.779 5.014h-3.211l-4.292-5.696 3.19-5.525a1 1 0 0 0 .144-.517 1 1 0 0 0-.144-.516L7.292 4.5a1 1 0 0 0-1.367-.366M29 2h17v25H29z" fill="#c93e34"/><path fill-rule="evenodd" clip-rule="evenodd" d="M38.398 12.86v-2.344h3.75V9.383h-3.75V5.086h3.555V3.992h-8.516v1.094h3.555v4.297H33.32v1.133h3.672v2.343h1.406ZM41 20.718q.954-.04.953-1.133V16.07h-8.672v4.649h7.72Zm-6.313-2.696h5.938v-.82h-5.938zm5.547 1.72h-5.547v-.782h5.938v.39q-.039.391-.39.391Zm-1.875 4.374v.781h-1.484v-.78h-3.75v-1.016h3.75v-.899h-3.672v-1.015h8.828v1.015H38.36v.899h3.711v1.015h-3.71Z" fill="#fff" stroke="#505050"/><path fill-rule="evenodd" clip-rule="evenodd" d="M38.398 12.86v-2.344h3.75V9.383h-3.75V5.086h3.555V3.992h-8.516v1.094h3.555v4.297H33.32v1.133h3.672v2.343h1.406ZM41 20.718q.954-.04.953-1.133V16.07h-8.672v4.649h7.72Zm-6.313-2.696h5.938v-.82h-5.938zm5.547 1.72h-5.547v-.782h5.938v.39q-.039.391-.39.391Zm-1.875 4.374v.781h-1.484v-.78h-3.75v-1.016h3.75v-.899h-3.672v-1.015h8.828v1.015H38.36v.899h3.711v1.015h-3.71Z" fill="#fff"/><path fill="#c93e34" d="M17 29h29v9H17z"/><path fill-rule="evenodd" clip-rule="evenodd" d="M27.76 35.04q1.66-.04 1.718-1.837-.059-1.836-1.718-1.894-1.7.058-1.739 1.894.04 1.797 1.739 1.836Zm-5.489-1.837Q22.254 35 20.456 35h-1.23v-3.613h1.23q1.797.02 1.817 1.816Zm-2.285 1.191h.54-.13q1.075.04 1.055-1.19.02-1.232-1.055-1.212h-.41zm3.575.606v-1.445h.82q.273 0 .332.468.019.508.137.977h.84q-.157-.195-.196-.86a.4.4 0 0 1-.02-.117q-.117-.741-.644-.8v-.02q.724-.175.742-.879-.02-.898-1.25-.937H22.78V35h.782Zm0-2.05h.644q.528 0 .547-.509-.02-.45-.547-.449h-.644v.957Zm3.28.253q-.018 1.329.919 1.309.898 0 .898-1.309 0-1.328-.898-1.328-.938 0-.918 1.328Zm4.805 1.836q1.505-.039 1.563-1.387v-2.265h-.781v1.972q.058 1.212-.781 1.153-.879.059-.801-1.153v-1.972h-.782v2.265q.04 1.348 1.582 1.387ZM36.295 35q-.312.04-.82.04-1.66-.08-1.7-1.837.04-1.758 1.7-1.894 1.68 0 1.68 1.171h-.821q0-.605-.723-.605-1.015.04-1.015 1.328 0 1.29 1.015 1.309.294 0 .684-.059.02 0 .039-.02v-.761h-.703v-.606h1.465v1.817q-.39.117-.801.117Zm2.285 0v-1.582h1.387V35h.761v-3.613h-.78v1.425H38.58v-1.425h-.762V35zm4.395-3.008V35h-.782v-3.008H41.12v-.605h2.93v.605z" fill="#fff" stroke="#505050"/><path fill-rule="evenodd" clip-rule="evenodd" d="M27.76 35.04q1.66-.04 1.718-1.837-.059-1.836-1.718-1.894-1.7.058-1.739 1.894.04 1.797 1.739 1.836Zm-5.489-1.837Q22.254 35 20.456 35h-1.23v-3.613h1.23q1.797.02 1.817 1.816Zm-2.285 1.191h.54-.13q1.075.04 1.055-1.19.02-1.232-1.055-1.212h-.41zm3.575.606v-1.445h.82q.273 0 .332.468.019.508.137.977h.84q-.157-.195-.196-.86a.4.4 0 0 1-.02-.117q-.117-.741-.644-.8v-.02q.724-.175.742-.879-.02-.898-1.25-.937H22.78V35h.782Zm0-2.05h.644q.528 0 .547-.509-.02-.45-.547-.449h-.644v.957Zm3.28.253q-.018 1.329.919 1.309.898 0 .898-1.309 0-1.328-.898-1.328-.938 0-.918 1.328Zm4.805 1.836q1.505-.039 1.563-1.387v-2.265h-.781v1.972q.058 1.212-.781 1.153-.879.059-.801-1.153v-1.972h-.782v2.265q.04 1.348 1.582 1.387M36.295 35q-.312.04-.82.04-1.66-.08-1.7-1.837.04-1.758 1.7-1.894 1.68 0 1.68 1.171h-.821q0-.605-.723-.605-1.015.04-1.015 1.328 0 1.29 1.015 1.309.294 0 .684-.059.02 0 .039-.02v-.761h-.703v-.606h1.465v1.817q-.39.117-.801.117m2.285 0v-1.582h1.387V35h.761v-3.613h-.78v1.425H38.58v-1.425h-.762V35zm4.395-3.008V35h-.782v-3.008H41.12v-.605h2.93v.605z" fill="#fff"/><defs><clipPath id="a"><path fill="#fff" d="M0 0h48v40H0z"/></clipPath></defs></svg>