<svg width="48" height="40" fill="none" xmlns="http://www.w3.org/2000/svg"><g clip-path="url(#a)"><path fill-rule="evenodd" clip-rule="evenodd" d="M0 38a2 2 0 0 0 2 2h44a2 2 0 0 0 2-2V2A2 2 0 0 0 46.15.005L46 0H2l-.15.005A2 2 0 0 0 0 2zM27 2H2v25h25zM2 29v9h13v-9zm15 9h29v-9H17zm29-11V2H29v25z" fill="#505050"/></g><path fill="#c93e34" d="M2 29h13v9H2z"/><path fill-rule="evenodd" clip-rule="evenodd" d="M7.926 35.07v-.847H6.668l1.613-2.57h-1.12l-.384.628h-.355l1.203-1.886H6.559l-1.04 1.613v1.039h.876l-.875 1.258v.765zm3.8 1.532v-.875h-1.285V31.27H11.7v-.875H8.281v.875h1.094v4.457H8.254v.875zm-3.8-.903v.82H5.492v-.82z" fill="#fff"/><path d="M7.926 34.223h.5v-.5h-.5zm0 .847v.5h.5v-.5zm-1.258-.847-.424-.266-.48.766h.904zm1.613-2.57.424.265.48-.766h-.904zm-1.12 0v-.5h-.282l-.146.24zm-.384.628v.5h.281l.146-.24zm-.355 0L6 32.012l-.49.77h.912v-.5Zm1.203-1.886.422.268.49-.768h-.912zm-1.066 0v-.5h-.273l-.148.229.42.27Zm-1.04 1.613-.42-.27-.08.123v.147zm0 1.039h-.5v.5h.5zm.876 0 .41.285.546-.785h-.956zm-.875 1.258-.41-.286-.09.129v.157zm0 .765h-.5v.5h.5zm6.207.657h.5v-.5h-.5zm0 .875v.5h.5v-.5zm-1.286-.875h-.5v.5h.5zm0-4.457v-.5h-.5v.5zm1.258 0v.5h.5v-.5zm0-.875h.5v-.5h-.5zm-3.418 0v-.5h-.5v.5zm0 .875h-.5v.5h.5zm1.094 0h.5v-.5h-.5zm0 4.457v.5h.5v-.5zm-1.121 0v-.5h-.5v.5zm0 .875h-.5v.5h.5zm-.328-.082v.5h.5v-.5zm0-.82h.5v-.5h-.5zm-2.434.82h-.5v.5h.5zm0-.82v-.5h-.5v.5zm1.934-1.477v.847h1v-.847zm-.758.5h1.258v-1H6.668zm1.19-3.336-1.614 2.57.847.532 1.614-2.57zm-.698.765h1.121v-1h-1.12v1Zm.044.39.383-.63-.854-.52-.383.63zm-.782.24h.355v-1h-.355zm.781-2.656L6 32.012l.843.538 1.204-1.887zm-.644.768h1.066v-1H6.559zm-.62 1.385 1.04-1.614-.84-.541-1.04 1.613zm.08.768v-1.04h-1v1.04zm.376-.5H5.52v1h.875zM5.93 34.59l.875-1.258-.82-.57-.876 1.257zm.09.48v-.765h-1v.765zm1.906-.5H5.52v1h2.406zm3.3 1.157v.875h1v-.875zm-.785.5h1.286v-1H10.44v1Zm-.5-4.957v4.457h1V31.27zm1.758-.5h-1.258v1H11.7zm-.5-.375v.875h1v-.875zm-2.918.5H11.7v-1H8.281zm.5.375v-.875h-1v.875zm.594-.5H8.281v1h1.094zm.5 4.957V31.27h-1v4.457zm-1.621.5h1.121v-1H8.254zm.5.375v-.875h-1v.875zm2.973-.5H8.254v1h3.473zm-3.301.418v-.82h-1v.82zm-2.934.5h2.434v-1H5.492zm-.5-1.32v.82h1v-.82zm2.934-.5H5.492v1h2.434z" fill="#505050"/><path fill-rule="evenodd" clip-rule="evenodd" d="M7.833 35.07v-.847H6.577l1.613-2.57H7.068l-.383.628H6.33l1.203-1.886H6.466l-1.039 1.613v1.039h.875l-.875 1.258v.765h2.407Zm3.801 1.532v-.875H10.35V31.27h1.258v-.875H8.189v.875h1.094v4.457H8.162v.875zm-3.8-.903v.82H5.4v-.82z" fill="#fff"/><path fill="#ccc" d="M2 2h25v25H2z"/><path d="M24.753 16.126c-1.075 1.886-3.39 1.17-1.49 3.205C24.73 20.9 21.825 25 13.834 25h-1.985s1.141-.197 4.219-1.233c3.077-1.035 7.445-4.535 1.737-3.697s-7.445 1.232-7.942.493c-.496-.74.645-.394 2.234-.493s7.693-1.232 8.19-3.204.248-2.268-1.738-1.726-2.68 1.676-6.452 1.972c-3.773.296-12.657.542-5.212-.493s11.863-3.007 12.409-4.683.149-3.155-3.97-3.451c0 0 4.863-3.5 8.933.246 1.192 1.874-.297 3.55-.992 4.19-.695.642 2.65 1.17 1.489 3.205Z" fill="#c93e34"/><path d="M13.658 22.26a.66.66 0 0 1-.405.598.67.67 0 0 1-.718-.14.645.645 0 0 1-.143-.705.65.65 0 0 1 .242-.29.666.666 0 0 1 .831.08.64.64 0 0 1 .193.457Zm1-4.562a.52.52 0 0 1-.329.484.54.54 0 0 1-.581-.113.52.52 0 0 1 .08-.806.54.54 0 0 1 .674.065.52.52 0 0 1 .155.37Zm-.533-6.626a.8.8 0 0 1-.435-.13.76.76 0 0 1-.119-1.185.79.79 0 0 1 .854-.167.8.8 0 0 1 .35.284.76.76 0 0 1-.096.971.8.8 0 0 1-.553.227zm0-4.439a.8.8 0 0 1-.435-.13.76.76 0 0 1-.119-1.185.79.79 0 0 1 .854-.167.8.8 0 0 1 .35.284.76.76 0 0 1-.096.972.8.8 0 0 1-.553.226zm-4 6.904a.8.8 0 0 1-.435-.13.76.76 0 0 1-.119-1.185.787.787 0 0 1 1.205.117.76.76 0 0 1-.097.972.8.8 0 0 1-.554.226Zm-.25-6.904a.8.8 0 0 1-.435-.13.76.76 0 0 1-.119-1.185.79.79 0 0 1 .854-.167.8.8 0 0 1 .35.284.76.76 0 0 1-.096.972.8.8 0 0 1-.553.226zm-3 4.439a.8.8 0 0 1-.435-.13.76.76 0 0 1-.119-1.185.79.79 0 0 1 .854-.167.8.8 0 0 1 .351.284.762.762 0 0 1-.351 1.139.8.8 0 0 1-.3.059Zm1.375 7.335a.67.67 0 0 1 .608.4.64.64 0 0 1-.143.705.66.66 0 0 1-.717.14.64.64 0 0 1 0-1.196.7.7 0 0 1 .252-.049Z" fill="#fff" stroke="#505050" stroke-width=".185"/><path fill="#c93e34" d="M29 2h17v25H29z"/><path d="M38.242 4.992h1.485v7.383h-1.485zm1.914 7.461.313-1.367h1.523l-.39 1.797q0 1.211-1.368 1.015h-4.57v-1.054h3.945q.547.078.547-.39Zm-3.476-7.07h1.406l-.352 4.219q0 1.288-.898 1.132h-.977V9.641h.235q.195.04.234-.235zm3.36-.04h1.483l.196 4.063q.039.313.156.274h.195v1.054h-.508q-1.406.235-1.289-1.25l-.234-4.14Zm-6.954 7.5h.43q.429.04.468-.39l.391-1.64h1.445l-.508 2.304q-.156.781-1.406.781h-.82zm.352-5.976-.274-1.758h1.602l.156 1.133q0 .313.43.274h.507v1.132h-1.25q-1.171.118-1.172-.78Zm.156 2.735-.39-1.524h1.562l.195.86q.039.429.352.39h.39v1.133H35q-1.367.117-1.406-.86Zm3.086 10.296v-3.984h1.68v3.984zm-3.633-1.718h.508q.195.04.351-.313l.664-1.562h1.72l-1.173 2.539q-.273.703-1.015.625h-1.055zm6.797.664-.899-2.5h1.64l.665 1.718q.078.157.234.157h.586v1.328h-1.289q-.742.117-.937-.703m-3.203 2.11v-.626h1.68v.625h3.671v1.367H38.32v1.25h3.633v1.29h-8.867v-1.29h3.555v-1.25h-3.633v-1.367h3.633Z" fill="#fff"/><path fill-rule="evenodd" clip-rule="evenodd" d="M37.754 4.883a.5.5 0 0 1 .488-.39h1.485a.5.5 0 0 1 .477.35h1.32a.5.5 0 0 1 .499.477l.186 3.88a.5.5 0 0 1 .361.48v1.054c0 .103-.03.198-.083.277a.5.5 0 0 1-.006.181l-.38 1.748c-.01.47-.156.916-.543 1.204-.374.277-.862.32-1.358.254h-4.536a.5.5 0 0 1-.46-.304l-.078.046c-.34.188-.761.258-1.22.258h-.82a.5.5 0 0 1-.5-.5v-1.054a.5.5 0 0 1 .5-.5h.41l.002-.007.363-1.523a1.4 1.4 0 0 1-.157-.083c-.388-.237-.576-.62-.607-1.052l-.378-1.477a.5.5 0 0 1 .403-.617 1.35 1.35 0 0 1-.184-.676l-.268-1.723a.5.5 0 0 1 .494-.577h1.602a.5.5 0 0 1 .495.432l.134.975h.464c.094 0 .182.026.257.07l.066-.747a.5.5 0 0 1 .498-.456zm.488.11v7.382h1.485V4.992h-1.485Zm1.914 7.46a.43.43 0 0 1-.082.282.3.3 0 0 1-.126.088.6.6 0 0 1-.221.031 1 1 0 0 1-.118-.01h-3.945v1.054h4.57q1.368.195 1.368-1.015l.39-1.797H40.47zm-4.843.664.507-2.305h-1.445l-.39 1.641q-.036.393-.4.394l-.07-.003h-.43v1.054h.821q.935 0 1.258-.436a.85.85 0 0 0 .148-.345ZM35 10.461h.703V9.328h-.39a.4.4 0 0 1-.097 0q-.222-.033-.255-.39l-.195-.86h-1.563l.39 1.524q.024.587.53.779.113.043.252.066.267.045.625.014m-.39-2.813h1.25V6.516h-.508q-.43.04-.43-.274l-.156-1.133h-1.602l.273 1.758q0 .537.419.711.282.118.753.07Zm.684.5.155.679v.001h.254q.09 0 .171.03l.063-.716-.078.006zm.91 1.485a.2.2 0 0 1-.11.007h-.235v1.094h.977q.898.156.898-1.132l.352-4.22H36.68l-.352 4.024q-.027.186-.125.227Zm1.538 1.37c-.268.224-.607.28-.945.231h-.558l-.244 1.11h1.747zm2.849-.417q.324.256.971.148h.508V9.68h-.195a.07.07 0 0 1-.048 0q-.078-.03-.108-.274l-.196-4.062H40.04l.234 4.14q-.063.802.318 1.102Zm1.637-1.167v-.002Zm-6.017 10.654a.5.5 0 0 1-.031-.175v-2.163l-.603 1.305c-.12.303-.309.565-.588.737-.277.17-.592.22-.912.192h-1.03a.5.5 0 0 1-.5-.5v-1.29a.5.5 0 0 1 .5-.5h.395l.006-.011.662-1.559a.5.5 0 0 1 .46-.304h1.622a.5.5 0 0 1 .488-.39h1.68a.5.5 0 0 1 .495.437.5.5 0 0 1 .09-.008h1.64a.5.5 0 0 1 .467.32l.601 1.555h.417a.5.5 0 0 1 .5.5v1.328a.5.5 0 0 1-.5.5h-1.253c-.328.044-.66-.007-.941-.217-.275-.207-.43-.514-.512-.842l-.505-1.405v2.315a.5.5 0 0 1-.07.256.5.5 0 0 1 .031.174v.125h3.172a.5.5 0 0 1 .5.5v1.367a.5.5 0 0 1-.5.5H38.82v.25h3.133a.5.5 0 0 1 .5.5v1.29a.5.5 0 0 1-.5.5h-8.867a.5.5 0 0 1-.5-.5v-1.29a.5.5 0 0 1 .5-.5h3.055v-.25h-3.133a.5.5 0 0 1-.5-.5v-1.367a.5.5 0 0 1 .5-.5h3.133v-.125q.001-.141.07-.255m.469-.175h1.68v-3.984h-1.68zm-.04 1.055h-3.632v1.367h3.633v1.25h-3.555v1.29h8.867v-1.29H38.32v-1.25h3.672v-1.367H38.32v-.625h-1.68zm3.204-2.11q.195.822.937.704h1.29v-1.328h-.587q-.156 0-.234-.157l-.664-1.718h-1.64l.898 2.5Zm-5.274-2.538-.664 1.562q-.156.352-.351.313h-.508v1.289h1.055q.742.078 1.015-.625l1.172-2.54z" fill="#505050"/><path fill="#c93e34" d="M17 29h29v9H17z"/><path d="M25.262 32.318v2.403h.41q1.074.04 1.055-1.192.02-1.25-1.055-1.21zm-.762 3.008v-3.613h1.23q1.797.02 1.817 1.816-.02 1.778-1.817 1.797zm5.996-3.613h.781v2.265q-.059 1.348-1.562 1.387-1.543-.039-1.582-1.387v-2.265h.781v1.972q-.078 1.192.8 1.153.86.04.782-1.153zm4.16 1.035h-.742q-.02-.546-.586-.547-.567.039-.586.469 0 .351.567.488.058.02.097.02a1 1 0 0 1 .098.02q1.27.253 1.25.995-.02 1.133-1.543 1.172-1.407 0-1.387-1.191h.781q0 .624.606.664.703-.02.723-.469 0-.37-.684-.508a.6.6 0 0 1-.137-.039q-1.191-.273-1.191-.996.058-1.114 1.504-1.191 1.172.059 1.23 1.113m.371-.43v-.605h2.93v.605h-1.074v3.008h-.781v-3.008z" fill="#fff"/><path fill-rule="evenodd" clip-rule="evenodd" d="M25.73 35.326H24.5v-3.613h1.23q1.797.02 1.817 1.816-.02 1.778-1.817 1.797m-.058-3.008h-.41v2.403h.41q1.074.04 1.055-1.192.02-1.25-1.055-1.21Zm.09 1.904c.21-.005.296-.065.336-.111.058-.066.134-.223.129-.574v-.016c.005-.359-.071-.522-.131-.591-.042-.047-.126-.108-.334-.113zM24.5 35.826a.5.5 0 0 1-.5-.5v-3.613a.5.5 0 0 1 .5-.5h1.236c.677.007 1.274.183 1.7.61q.109.11.197.232v-.342a.5.5 0 0 1 .5-.5h.781a.5.5 0 0 1 .5.5v1.972l-.001.033c-.023.356.036.512.073.566a.1.1 0 0 0 .043.035.4.4 0 0 0 .164.02h.044a.35.35 0 0 0 .152-.018.1.1 0 0 0 .037-.032c.037-.055.095-.213.071-.57v-2.006a.5.5 0 0 1 .5-.5h.78a.5.5 0 0 1 .5.5v.102q.104-.128.24-.235c.363-.288.846-.416 1.382-.445h.052c.42.021.813.127 1.122.368a.5.5 0 0 1 .454-.29h2.93a.5.5 0 0 1 .5.5v.605a.5.5 0 0 1-.5.5h-.574v2.508a.5.5 0 0 1-.5.5h-.781a.5.5 0 0 1-.5-.5v-2.508h-.45a.5.5 0 0 1-.34.405c.289.25.452.586.442.98-.01.502-.193.944-.593 1.248-.376.285-.88.4-1.437.414h-.013c-.527 0-1.016-.11-1.376-.419a1.4 1.4 0 0 1-.34-.438 1.6 1.6 0 0 1-.306.365c-.38.337-.893.477-1.461.492h-.026c-.578-.015-1.1-.153-1.484-.49a1.6 1.6 0 0 1-.438-.625q-.134.262-.345.472c-.427.423-1.024.597-1.7.604zm7.324-1.652v.064q.005.244.072.436.243.69 1.315.691 1.524-.04 1.543-1.172.02-.742-1.25-.996a1 1 0 0 0-.098-.02.3.3 0 0 1-.097-.019q-.567-.137-.567-.488.02-.43.586-.469.567 0 .586.547h.742a1.4 1.4 0 0 0-.129-.53q-.27-.542-1.101-.583-1.446.078-1.504 1.191 0 .558.71.848.12.05.261.09.105.031.22.058a.6.6 0 0 0 .137.04q.684.136.684.507-.02.45-.723.469-.593-.039-.605-.64v-.024zm4.278-1.856v3.008h.78v-3.008h1.075v-.605h-2.93v.605zm-5.606 1.367v-1.972h.781v2.265q-.059 1.348-1.562 1.387-1.543-.039-1.582-1.387v-2.265h.781v1.972q-.078 1.192.8 1.153.86.04.782-1.153" fill="#505050"/><defs><clipPath id="a"><path fill="#fff" d="M0 0h48v40H0z"/></clipPath></defs></svg>