<svg width="48" height="40" fill="none" xmlns="http://www.w3.org/2000/svg"><g clip-path="url(#a)"><path fill-rule="evenodd" clip-rule="evenodd" d="M0 38a2 2 0 0 0 2 2h44a2 2 0 0 0 2-2V2A2 2 0 0 0 46.15.005L46 0H2l-.15.005A2 2 0 0 0 0 2zM27 2H2v25h25zM2 29v9h13v-9zm15 9h29v-9H17zm29-11V2H29v25z" fill="#505050"/></g><path fill="#f29d38" d="M2 29h13v9H2z"/><path d="M7.352 36.574v-3.718h.164v-.794h-.164v-.246h.218v-.765h-.218v-.656h-.903v.656H5.33v.793h1.093v.218H5.52l-.11 3.5q0 .138-.11.11v.656h.384q.52 0 .52-.547l.109-2.925h.109v3.718zm1.175-3.527q.957.11.957-.93l.11-1.668h-1.86v.684h.93l-.027.328h-.219q-.137.027-.11-.11h-.574v.247q0 .492.41.52h.438l-.027.081q-.028.192-.164.164h-.63v.684zm2.98-.684v.657h-.984a1 1 0 0 1-.109.003q-.577-.008-.601-.66l-.137-1.914h1.86v.766h-.848l.054.273h.137q.137.027.137-.11h.546l-.027.329q-.027.465-.41.383h-.355l.027.11q-.027.19.191.163h.52Zm.028 1.504v-.656H7.652v.656zm0 2.078v.547H7.543v-.547h.574l-.082-.3H7.68v-1.56h3.855v1.013q.027.6-.492.547l-.055.3zm-1.039-.957a.1.1 0 0 0 .04.005q.07-.005.07-.114v-.11H8.554v.22h1.941Zm-1.45.957h1.04v-.3h-1.04z" fill="#505050" stroke="#505050"/><path d="M7.352 36.574v-3.718h.164v-.794h-.164v-.246h.218v-.765h-.218v-.656h-.903v.656H5.33v.793h1.093v.218H5.52l-.11 3.5q0 .138-.11.11v.656h.384q.52 0 .52-.547l.109-2.925h.109v3.718zm1.175-3.527q.957.11.957-.93l.11-1.668h-1.86v.684h.93l-.027.328h-.219q-.137.027-.11-.11h-.574v.247q0 .492.41.52h.438l-.027.081q-.028.192-.164.164h-.63v.684zm2.98-.684v.657h-.984a1 1 0 0 1-.109.003q-.577-.008-.601-.66l-.137-1.914h1.86v.766h-.848l.054.273h.137q.137.027.137-.11h.546l-.027.329q-.027.465-.41.383h-.355l.027.11q-.027.19.191.163h.52Zm.028 1.504v-.656H7.652v.656zm0 2.078v.547H7.543v-.547h.574l-.082-.3H7.68v-1.56h3.855v1.013q.027.6-.492.547l-.055.3zm-1.039-.957a.1.1 0 0 0 .04.005q.07-.005.07-.114v-.11H8.554v.22h1.941Zm-1.45.957h1.04v-.3h-1.04z" fill="#fff"/><path fill="#ccc" d="M2 2h25v25H2z"/><path fill-rule="evenodd" clip-rule="evenodd" d="M12.203 4 5 23.772l1.941.726 4.142-11.282 13.197-2.83V8.497l-10.09-3.74zm-.153 6.743 1.41-3.931 6.422 2.359z" fill="#f29d38"/><path fill="#f29d38" d="M29 2h17v25H29z"/><path fill-rule="evenodd" clip-rule="evenodd" d="M41.953 12.86v-1.25h-.351q-.47.038-.625-.352l-2.461-4.61h3.437v-1.21H38.32V3.952h-1.68v1.485h-3.593v1.21h3.437l-2.382 4.649q-.235.429-.664.351h-.391v1.172h.547q.86 0 1.093-.156.313-.078.547-.547L37.5 7.86l2.344 4.297q.322.68 1.235.704.083.003.171 0h.703Zm-7.578 12q.39.038.508-.313h1.406q.508 0 .742-.508l.625-1.094.703 1.25q.117.352.586.352h1.524a.53.53 0 0 0 .508.312h1.171v-.976q-.312-.078-.273-.313v-7.617h-8.398v7.54q.038.312-.313.273v1.093zm.586-1.407h.586q.273.039.312-.156l1.016-1.797L35 17.867h1.563l1.132 2.188 1.133-2.188h1.445l-1.836 3.594.938 1.719q.117.313.352.273h.625v-6.289H34.96v6.29Z" fill="#fff" stroke="#505050"/><path fill-rule="evenodd" clip-rule="evenodd" d="M41.953 12.86v-1.25h-.351q-.47.038-.625-.352l-2.461-4.61h3.437v-1.21H38.32V3.952h-1.68v1.485h-3.593v1.21h3.437l-2.382 4.649q-.235.429-.664.351h-.391v1.172h.547q.86 0 1.093-.156.313-.078.547-.547L37.5 7.86l2.344 4.297q.322.68 1.235.704.083.003.171 0h.703Zm-7.578 12q.39.038.508-.313h1.406q.508 0 .742-.508l.625-1.094.703 1.25q.117.352.586.352h1.524a.53.53 0 0 0 .508.312h1.171v-.976q-.312-.078-.273-.313v-7.617h-8.398v7.54q.038.312-.313.273v1.093zm.586-1.407h.586q.273.039.312-.156l1.016-1.797L35 17.867h1.563l1.132 2.188 1.133-2.188h1.445l-1.836 3.594.938 1.719q.117.313.352.273h.625v-6.289H34.96v6.29Z" fill="#fff"/><path fill="#f29d38" d="M17 29h29v9H17z"/><path fill-rule="evenodd" clip-rule="evenodd" d="M26.744 35.33q.508 0 .82-.039.41 0 .801-.117v-1.816H26.9v.605h.704v.762q-.02.02-.04.02a5 5 0 0 1-.683.058q-1.016-.02-1.016-1.308 0-1.29 1.016-1.329.723 0 .723.606h.82q0-1.172-1.68-1.172-1.66.137-1.7 1.895.04 1.757 1.7 1.835Zm2.793-.039.274-.761h1.425l.274.761h.781l-1.27-3.613h-.918l-1.308 3.613zm.469-1.367h1.035l-.488-1.543h-.02zm5 1.367v-.605h-1.563v-3.008h-.761v3.613zm2.871-.605v.605h-2.48v-3.613h2.421v.606h-1.64v.84H37.7v.605h-1.523v.957h1.699Z" fill="#fff" stroke="#505050"/><path fill-rule="evenodd" clip-rule="evenodd" d="M26.744 35.33q.508 0 .82-.039.41 0 .801-.117v-1.816H26.9v.605h.704v.762q-.02.02-.04.02a5 5 0 0 1-.683.058q-1.016-.02-1.016-1.308 0-1.29 1.016-1.329.723 0 .723.606h.82q0-1.172-1.68-1.172-1.66.137-1.7 1.895.04 1.757 1.7 1.835m2.793-.039.274-.761h1.425l.274.761h.781l-1.27-3.613h-.918l-1.308 3.613zm.469-1.367h1.035l-.488-1.543h-.02zm5 1.367v-.605h-1.563v-3.008h-.761v3.613zm2.871-.605v.605h-2.48v-3.613h2.421v.606h-1.64v.84H37.7v.605h-1.523v.957h1.699Z" fill="#fff"/><defs><clipPath id="a"><path fill="#fff" d="M0 0h48v40H0z"/></clipPath></defs></svg>