<svg width="48" height="40" fill="none" xmlns="http://www.w3.org/2000/svg"><g clip-path="url(#a)"><path fill-rule="evenodd" clip-rule="evenodd" d="M0 38a2 2 0 0 0 2 2h44a2 2 0 0 0 2-2V2A2 2 0 0 0 46.15.005L46 0H2l-.15.005A2 2 0 0 0 0 2zM27 2H2v25h25zM2 29v9h13v-9zm15 9h29v-9H17zm29-11V2H29v25z" fill="#505050"/></g><path fill="#3a6af6" d="M2 29h13v9H2z"/><path fill-rule="evenodd" clip-rule="evenodd" d="M11.563 31.516v-.793h-.63l.11-.328H9.84l-.11.328H7.215l-.137-.328H5.875l.11.328h-.63v.793zM9.183 32.8q.192.027.301-.192l.082-.164h1.996v-.683H9.758l.027-.082h-.93l-.136.273q-.082.192-.274.164h-.41v.684h1.149Zm-2.761-1.012v2.023h-.93V31.79h.93Zm1.367 2.023V31.79h-.848v2.023h.848Zm3.774 0H9.02q-.52.029-.602-.246l-.355-.656h1.093l.082.11q.028.163.246.136h2.079zm0 2.817v-.738h-.247v-1.832H5.52v1.832h-.192v.738h6.234Zm-5.141-.738h.793v-1.04h-.793zm1.613 0v-1.04h.766v1.04zm1.64 0h.794v-1.04h-.793z" fill="#fff" stroke="#505050"/><path fill-rule="evenodd" clip-rule="evenodd" d="M11.563 31.516v-.793h-.63l.11-.328H9.84l-.11.328H7.215l-.137-.328H5.875l.11.328h-.63v.793zM9.183 32.8q.192.027.301-.192l.082-.164h1.996v-.683H9.758l.027-.082h-.93l-.136.273q-.082.192-.274.164h-.41v.684h1.149Zm-2.761-1.012v2.023h-.93V31.79h.93Zm1.367 2.023V31.79h-.848v2.023h.848Zm3.774 0H9.02q-.52.029-.602-.246l-.355-.656h1.093l.082.11q.028.163.246.136h2.079zm0 2.817v-.738h-.247v-1.832H5.52v1.832h-.192v.738h6.234Zm-5.141-.738h.793v-1.04h-.793zm1.613 0v-1.04h.766v1.04zm1.64 0h.794v-1.04h-.793z" fill="#fff"/><path fill="#ccc" d="M2 2h25v25H2z"/><path fill-rule="evenodd" clip-rule="evenodd" d="M12.203 4 5 23.772l1.941.726 4.142-11.282 13.197-2.83V8.497l-10.09-3.74zm-.153 6.743 1.41-3.931 6.422 2.359z" fill="#3a6af6"/><path fill="#3a6af6" d="M29 2h17v25H29z"/><path fill-rule="evenodd" clip-rule="evenodd" d="M41.953 12.86v-1.25h-.351q-.47.038-.625-.352l-2.461-4.61h3.437v-1.21H38.32V3.952h-1.68v1.485h-3.593v1.21h3.437l-2.382 4.649q-.235.429-.664.351h-.391v1.172h.547q.86 0 1.093-.156.313-.078.547-.547L37.5 7.86l2.344 4.297q.322.68 1.235.704.083.003.171 0h.703Zm-7.578 12q.39.038.508-.313h1.406q.508 0 .742-.508l.625-1.094.703 1.25q.117.352.586.352h1.524a.53.53 0 0 0 .508.312h1.171v-.976q-.312-.078-.273-.313v-7.617h-8.398v7.54q.038.312-.313.273v1.093zm.586-1.407h.586q.273.039.312-.156l1.016-1.797L35 17.867h1.563l1.132 2.188 1.133-2.188h1.445l-1.836 3.594.938 1.719q.117.313.352.273h.625v-6.289H34.96v6.29Z" fill="#fff" stroke="#505050"/><path fill-rule="evenodd" clip-rule="evenodd" d="M41.953 12.86v-1.25h-.351q-.47.038-.625-.352l-2.461-4.61h3.437v-1.21H38.32V3.952h-1.68v1.485h-3.593v1.21h3.437l-2.382 4.649q-.235.429-.664.351h-.391v1.172h.547q.86 0 1.093-.156.313-.078.547-.547L37.5 7.86l2.344 4.297q.322.68 1.235.704.083.003.171 0h.703Zm-7.578 12q.39.038.508-.313h1.406q.508 0 .742-.508l.625-1.094.703 1.25q.117.352.586.352h1.524a.53.53 0 0 0 .508.312h1.171v-.976q-.312-.078-.273-.313v-7.617h-8.398v7.54q.038.312-.313.273v1.093zm.586-1.407h.586q.273.039.312-.156l1.016-1.797L35 17.867h1.563l1.132 2.188 1.133-2.188h1.445l-1.836 3.594.938 1.719q.117.313.352.273h.625v-6.289H34.96v6.29Z" fill="#fff"/><path fill="#3a6af6" d="M17 29h29v9H17z"/><path fill-rule="evenodd" clip-rule="evenodd" d="M26.744 35.33q.508 0 .82-.039.41 0 .801-.117v-1.816H26.9v.605h.704v.762q-.02.02-.04.02a5 5 0 0 1-.683.058q-1.016-.02-1.016-1.308 0-1.29 1.016-1.329.723 0 .723.606h.82q0-1.172-1.68-1.172-1.66.137-1.7 1.895.04 1.757 1.7 1.836Zm2.793-.039.274-.761h1.425l.274.761h.781l-1.27-3.613h-.918l-1.308 3.613zm.469-1.367h1.035l-.488-1.543h-.02zm5 1.367v-.605h-1.563v-3.008h-.761v3.613zm2.871-.605v.605h-2.48v-3.613h2.421v.606h-1.64v.84H37.7v.605h-1.523v.957h1.699Z" fill="#fff" stroke="#505050"/><path fill-rule="evenodd" clip-rule="evenodd" d="M26.744 35.33q.508 0 .82-.039.41 0 .801-.117v-1.816H26.9v.605h.704v.762q-.02.02-.04.02a5 5 0 0 1-.683.058q-1.016-.02-1.016-1.308 0-1.29 1.016-1.329.723 0 .723.606h.82q0-1.172-1.68-1.172-1.66.137-1.7 1.895.04 1.757 1.7 1.836Zm2.793-.039.274-.761h1.425l.274.761h.781l-1.27-3.613h-.918l-1.308 3.613zm.469-1.367h1.035l-.488-1.543h-.02zm5 1.367v-.605h-1.563v-3.008h-.761v3.613zm2.871-.605v.605h-2.48v-3.613h2.421v.606h-1.64v.84H37.7v.605h-1.523v.957h1.699Z" fill="#fff"/><defs><clipPath id="a"><path fill="#fff" d="M0 0h48v40H0z"/></clipPath></defs></svg>