<svg width="48" height="40" fill="none" xmlns="http://www.w3.org/2000/svg"><g clip-path="url(#a)"><path fill-rule="evenodd" clip-rule="evenodd" d="M0 38a2 2 0 0 0 2 2h44a2 2 0 0 0 2-2V2A2 2 0 0 0 46.15.005L46 0H2l-.15.005A2 2 0 0 0 0 2zM27 2H2v25h25zM2 29v9h13v-9zm15 9h29v-9H17zm29-11V2H29v25z" fill="#505050"/></g><path fill="#f29d38" d="M2 29h13v9H2z"/><path d="M7.352 36.574v-3.718h.164v-.794h-.164v-.246h.218v-.765h-.218v-.656h-.903v.656H5.33v.793h1.093v.218H5.52l-.11 3.5q0 .138-.11.11v.656h.384q.52 0 .52-.547l.109-2.925h.109v3.718zm1.175-3.527q.957.11.957-.93l.11-1.668h-1.86v.684h.93l-.027.328h-.219q-.137.027-.11-.11h-.574v.247q0 .492.41.52h.438l-.027.081q-.028.192-.164.164h-.63v.684zm2.98-.684v.657h-.984a1 1 0 0 1-.109.003q-.577-.008-.601-.66l-.137-1.914h1.86v.766h-.848l.054.273h.137q.137.027.137-.11h.546l-.027.329q-.027.465-.41.383h-.355l.027.11q-.027.19.191.163h.52Zm.028 1.504v-.656H7.652v.656zm0 2.078v.547H7.543v-.547h.574l-.082-.3H7.68v-1.56h3.855v1.013q.027.6-.492.547l-.055.3zm-1.039-.957a.1.1 0 0 0 .04.005q.07-.005.07-.114v-.11H8.554v.22h1.941Zm-1.45.957h1.04v-.3h-1.04z" fill="#505050" stroke="#505050"/><path d="M7.352 36.574v-3.718h.164v-.794h-.164v-.246h.218v-.765h-.218v-.656h-.903v.656H5.33v.793h1.093v.218H5.52l-.11 3.5q0 .138-.11.11v.656h.384q.52 0 .52-.547l.109-2.925h.109v3.718zm1.175-3.527q.957.11.957-.93l.11-1.668h-1.86v.684h.93l-.027.328h-.219q-.137.027-.11-.11h-.574v.247q0 .492.41.52h.438l-.027.081q-.028.192-.164.164h-.63v.684zm2.98-.684v.657h-.984a1 1 0 0 1-.109.003q-.577-.008-.601-.66l-.137-1.914h1.86v.766h-.848l.054.273h.137q.137.027.137-.11h.546l-.027.329q-.027.465-.41.383h-.355l.027.11q-.027.19.191.163h.52Zm.028 1.504v-.656H7.652v.656zm0 2.078v.547H7.543v-.547h.574l-.082-.3H7.68v-1.56h3.855v1.013q.027.6-.492.547l-.055.3zm-1.039-.957a.1.1 0 0 0 .04.005q.07-.005.07-.114v-.11H8.554v.22h1.941Zm-1.45.957h1.04v-.3h-1.04z" fill="#fff"/><path fill="#ccc" d="M2 2h25v25H2z"/><path fill-rule="evenodd" clip-rule="evenodd" d="M5.808 21.417h8.36a6 6 0 0 1-.153-1.844h-.072l.004-.02s.498-4.121 2.762-6.925l2.209-3.462s-2.651-.7-6.076 4.781c0 0-1.662 3.309-1.677 5.626H7.92c-.137-1.178-.395-4.335.393-6.78.167-.516.3-1.004.426-1.465.257-.943.483-1.77.9-2.491 0 0-2.904 1.567-3.866 8.737a246 246 0 0 0-.271 2.067.88.88 0 0 0-.449.523.8.8 0 0 0-.053.263v.068c0 .51.361.922.808.922M20 14h.031l.15-.16s1.412-.872 2.215-2.491c.804-1.619 1.602-3.653 1.602-4.317v-.133c.003-.57.003-.772-.384.465 0 0-2.409 2.532-3.765 3.486a26 26 0 0 1-.407.278c-1.135.767-2.52 1.703-2.916 3.98A5.97 5.97 0 0 1 20 14M9.666 19.453s-.277.288-.665-1.982c-.389-2.27.333-4.293 1.442-6.439s1.995-5.449 1.995-5.449c.34 1.728.066 3.927-.12 5.414-.04.325-.076.616-.101.86-.109 1.064-.657 1.952-1.313 3.017-.185.299-.378.611-.572.946-.887 1.527-.666 3.633-.666 3.633M25 20a5 5 0 0 1-1.009 3.016l-.363-.353c.51-.704.895-1.793.895-2.654 0-2.301-2.231-4.535-4.53-4.535-.86 0-1.823.271-2.524.77-.068.058-.454.386-.555.477l1.857 1.86c.023-.6.306-1.338.521-1.632.226-.307.522-.556.872-.725.012 0 .023 0 .034.011l.003.012c.003.007.005.014-.003.021-.928 1.77.59 3.267.918 3.56-.147-1.1 1.042-1.598 1.053-1.598q.008-.007.012-.003l.01.003c.024.013.024.034.012.046-.011.01-.555.6.294 2.449.226.522.283.986.204 1.406l1.098 1.1A4.98 4.98 0 0 1 19.994 25a5 5 0 0 1-3.529-1.467A5 5 0 0 1 15 20a5 5 0 0 1 1.009-3.017l.35.352v.012c-.497.703-.77 1.79-.77 2.653 0 2.302 2.107 4.41 4.405 4.41.861 0 1.823-.271 2.525-.77.055-.032.219-.184.34-.295.056-.052.102-.096.124-.114l-.555-.556c-.351.397-.984.884-1.392 1.02-.012.011-.023 0-.034-.01 0-.013 0-.024.011-.035.215-.136.34-.317.374-.532.045-.307-.102-.612-.26-.805-.159-.18-.136-.51-.114-.691l-.033-.035c-.441.34-.227.92-.216.942 0 .011 0 .022-.011.033q-.015.018-.034 0l-.013-.018c-.06-.074-.29-.358-.19-.73a1.8 1.8 0 0 0 .1-.601l-.43-.43c0 .683-.58 1.19-.64 1.242l-.005.004q-.018.017-.034 0c-.011-.011-.011-.022-.011-.034.079-.408-.239-.645-.396-.737.056.148.111.488-.193 1.156-.33.771.113 1.158.532 1.34.01 0 .01.02.01.032-.01.024-.02.024-.033.024a6 6 0 0 1-.634-.16c-.816-.282-1.314-.736-1.472-1.315-.193-.703.159-1.451.521-1.882.393-.469.208-1.447.184-1.573l-.003-.014c0-.012 0-.023.011-.034h.034c.634.374.782.94.794 1.35q.011.34-.08.669c.148-.193.408-.624.33-1.168l-2.9-2.915A5 5 0 0 1 20.006 15a5 5 0 0 1 3.529 1.466A5 5 0 0 1 25 20" fill="#f29d38"/><path fill="#f29d38" d="M29 2h17v25H29z"/><path fill-rule="evenodd" clip-rule="evenodd" d="M33.98 3.813h.012v.175h-.012zm-1-.754h-2.57v1.738h1.11l-.137.258h-.973v2.75h.328l-.07.442-.258-.074v1.847h.79q.15.006.304-.017v.017h1.875v-.01c.123.017.248.018.366.01h.519c.125.004.256-.002.384-.028v.027h1.93v-.014c.14.022.283.023.42.014h.674v-.164h.692q.11.005.222-.012v.286h1.902v-.293c.112.019.224.023.33.02h.592q.146 0 .293-.031v.277h1.93v-.257q.159.022.312.01h.918V8.09h-.3V5.316h.109v-1.82h-1.067v-.601h-1.902v.628h-.957v.055h-.258v-.71h-1.902v.71h-.969v-.52h-2.625v-.245H32.98zm4.485 1.738h-.945l.118.26.036-.001.016-.001h.775zm.125.574v.695h.039v-.695h-.04Zm.039 2.434h-.265l.046.306V8.09h.219zm-1.694-1.997a1 1 0 0 1-.069-.077l.035.075zm-1.943-1.59-.012.025v1.55h.012V4.217Zm-1.56.994-.203.381a1 1 0 0 1-.103.159l.058-.003zm12.13 3.186q0 .015 0 0m-6.933 2.497h7.016v4.172c.019.277-.025.61-.278.852a.9.9 0 0 1-.373.21l.057.18h.511v1.765h-1.156c-.199 0-.42-.03-.613-.142a.8.8 0 0 1-.292-.285 1 1 0 0 1-.08.101c-.241.263-.575.32-.866.299h-1.383v-.06a1.3 1.3 0 0 1-.47.06h-.98v-.052q-.12.01-.24-.003h-1.181v-.219h-2.282v.438h-1.956v-.438h-2.57v-1.71h.109V13.07h-.137v-1.71h.71v-.41h1.958v.41h1.707v-.41h1.957v.41h.793v1.71h-.11v2.371c0 .214-.04.43-.146.621h.228v.165h.067zm0 5.64q0 .015 0 0m3.957.512h.009l.02.002.062.002a1 1 0 0 0 0-.122l-.001-.02v-.018a.6.6 0 0 1-.09.156m1.95-1.887h.038l.031.004.044.004-.003-.04-.002-.021v-.141a.6.6 0 0 1-.108.194m-4.948 1.644a.7.7 0 0 1-.1.188h.056l.032.004.006.001a1 1 0 0 0 .006-.193m3.142-4.49-.13.522h.043zm-8.75 6.526h2.012v2.598h.227l.306-2.543h5.237v.442l.222-.47h2.776l.212.602h.563v2.187h.04l-.04.52v.234h-.018l-.12 1.556a1.6 1.6 0 0 1-.04.288h.178v1.793H39.98v-.125a1.4 1.4 0 0 1-.21.015h-.43v.22h-1.93v-.028h-1.44c-.402 0-.738-.18-.972-.498l-1.059-1.338-.972 1.186v.001c-.267.328-.623.622-1.072.622h-1.511v-1.82h.876l.02.001a.1.1 0 0 0 .034 0l.005-.001.001-.001.005-.003.024-.03.012-.016.852-1.029h-.498a1 1 0 0 1-.484-.045.9.9 0 0 1-.436-.34c-.192-.275-.245-.64-.247-1l-.2-2.924h2.12l.191 2.544h.322V18.84Zm.531 4.363-1.357 1.637a1.1 1.1 0 0 1-.264.262h.004a.2.2 0 0 0 .066-.03c.055-.036.133-.104.23-.223l.001-.002 1.348-1.644zm.032-.005v-.033l.437-.528V19.84h.012v2.787l.438.569v.062h.047l1.254 1.629q.105.145.236.242c-.067 0-.112-.017-.168-.095l-.006-.008-1.84-2.327-.41.5Zm2.196.06.797 1.036.006.01c.014.02.023.023.027.024a.2.2 0 0 0 .102.01l.018-.002h.721v-3.423l-.123 1.206c-.023.302-.11.617-.343.849-.242.242-.557.311-.858.29zm-3.844-1.055-.055-.063a.9.9 0 0 1-.172-.537l-.128-1.709h-.122l.129 1.89v.017q.001.216.028.33.011.052.022.078l.036-.006zm.774-.6v-.002Zm7.096 3.334h.024v-.028zm-.205-2.875a1 1 0 0 1 .111.07l.012-.154a.6.6 0 0 1-.123.084m-3.608.196h.175l.022.002c.052.004.08 0 .09-.003a.5.5 0 0 0 .051-.22l.001-.014.218-2.128h-.097l-.22 1.82a.83.83 0 0 1-.24.543" fill="#505050"/><path d="M30.91 3.559h2.57v-.247h1.012v.247h2.625v.738h-2.625v1.996h-1.011V4.297h-2.57zm0 2.68v-.684h.492q.274.027.383-.192l.465-.875h1.066L32.66 5.91q-.081.41-.738.328zm4.54-.22-.712-1.53h1.094l.383.847q.082.246.492.219h.383v.738h-.875q-.739.083-.766-.273Zm.628.301v.246h1.066v.739h-1.066v.218h.738l.164 1.094q-.027.219.192.192v.71h-.191q-.765.055-.739-.492l-.164-1.066V9.52h-.93V7.96l-.191 1.067q-.027.52-.684.493h-.218v-.711q.082.054.164-.274l.164-1.039h.765v-.191h-1.066v-.739h1.066V6.32zm-3.2 0v.246h1.04v.739h-1.04v.218h.712l.137 1.094q.027.219.164.192v.71h-.164q-.711.055-.684-.492l-.164-1.066V9.52h-.875V7.96l-.164 1.067q-.027.52-.63.493h-.3v-.684q.191.054.219-.3l.164-1.04h.71v-.191H30.91v-.739h1.094V6.32zm5.087-2.242h1.12v-.71h.903v.71h.957v.793h-.957V9.63h-.902V4.87h-1.121v-.793Zm3.281-.055h.957v-.628h.902v.601h1.067v.82h-1.04v4.786h-.929V4.844h-.957v-.82ZM38.13 5.227h.766v3.472q0 .684-.52.656h-.465V8.59h.082q.137.027.137-.164v-3.2Zm2.05 3.582V5.227h.766v3.09q-.027.273.11.245h.082q.136.028.136-.273V5.227h.739v3.472q0 .657-.602.656h-.601q-.684.028-.63-.546m3.145-.082v-3.5h.739v3.171q0 .219.164.192h.136v.765h-.437q-.657.055-.602-.628m-12.223 7.398v-2.926h5.878v2.242q0 .711-.82.684h-1.64v.438h2.542v.71H34.52v.438h-.958v-.438h-2.57v-.71h2.57v-.438zm4.976-2.215h-4.074v.383h4.074zm-4.074 1.121v.41h3.883q.165 0 .191-.136v-.274zm-.328-3.172v-.41h.957v.41h2.707v-.41h.957v.41h.793v.711h-.793v.356h-.957v-.356h-2.707v.383h-.957v-.383h-.711v-.71zm6.453 4.676v-5.14h6.016v.793h-1.887l-.055.328h1.941v2.57q.056.656-.601.574h-1.367v1.23q.054.712-.602.657h-.902v-.766h.355q.219.027.192-.191v-.93h-1.887v-3.144h1.832l.082-.329h-2.16v4.567q.054.82-.574.738H37.8v-.765h.164q.165.027.164-.192Zm5.059-3.2h-2.899v.384h2.898v-.383Zm0 1.368v-.191h-2.899v.383h2.68q.218.027.218-.192Zm-3.965 2.844v-.793h.164q.11.027.218-.192l.247-.601h.93l-.41 1.148q-.137.465-.657.438zm3.664-.274-.383-1.257h.93l.191.601q.055.219.219.192h.218v.765h-.656q-.465 0-.52-.3Zm-11.129 7.262 1.723-2.078V19.34h1.011v3.117l1.64 2.133q.192.273.575.246h.355v.793H35.97a.68.68 0 0 1-.575-.3l-1.449-1.833-1.367 1.668q-.355.438-.684.438h-1.011v-.82h.355a.54.54 0 0 0 .52-.247Zm-.711-2.734-.164-2.406h1.12l.165 2.187q0 .328.273.355h.602v.766h-1.367q-.63.11-.63-.902Zm4.648-.137.274-2.27h1.093l-.273 2.68q-.054.738-.684.684H34.93v-.82h.465q.273.054.3-.274m5.36-1.777.246-.52h2.105l.164.465q.082.165.22.137h.245v.738h-.738q-.328.027-.383-.219l-.164-.328h-.848l-.164.356a.41.41 0 0 1-.437.246h-.82v-.766h.355q.137.027.219-.11Zm-3.145 5.77v-6.262h2.352v1.968q0 .63-.52.657.547.109.547.546v2.38q0 .49-.52.491h-.93v.22zm.93-4.02h.355q.22.027.22-.219v-1.094h-.575zm1.64-.52h3.555v.793h-3.554zm3.555 1.04-.137 1.777q-.027.546-.437.492h-.492v-.684q.19.027.218-.246l.11-1.34zm-3.308 1.722-.137-1.668h.765l.11 1.312q0 .247.137.192h.136v.738h-.547q-.492.082-.464-.574m1.175.055-.136-1.75h.738l.11 1.312q-.028.219.163.192v.738h-.465q-.41.054-.41-.492m-2.46.546v-1.777q0-.19-.192-.219h-.41v2.188h.383q.19 0 .218-.192Zm4.593 1.067h-3.554v-.793h3.554z" fill="#fff"/><path fill="#f29d38" d="M17 29h29v9H17z"/><path fill-rule="evenodd" clip-rule="evenodd" d="m29.047 29.546.033.002c.38.025.741.132 1.017.382q.113.104.195.224a1.4 1.4 0 0 1 .222-.222c.31-.246.717-.354 1.155-.384l.034-.002.033.002c.364.024.711.124.983.352v-.29h1.61v2.406h.699l.871-2.407h1.44l.458 1.304V29.61h1.736l.295.615v-.615h2.568c.557.006 1.064.152 1.43.518s.512.873.518 1.43v.011c-.006.557-.151 1.064-.52 1.428-.368.364-.877.504-1.433.504h-2.694l-.322-.69v.69h-2.352l-.219-.61h-.437l-.218.61h-3.43v-.302c-.32.232-.735.322-1.175.333h-.02c-.435-.006-.855-.099-1.166-.367a1 1 0 0 1-.12-.118 1.3 1.3 0 0 1-.15.133c-.324.246-.748.34-1.2.352h-.02a2.4 2.4 0 0 1-.583-.072l.014.041h-1.682l-.219-.61h-.437l-.219.61h-2.148l-.095-.379a4 4 0 0 1-.046-.207v.586h-1.625v-.084q-.315.08-.64.084-.287.032-.688.031h-.023c-.53-.025-1.006-.19-1.348-.559-.338-.364-.476-.857-.488-1.398v-.022c.012-.543.15-1.035.483-1.405.335-.375.806-.555 1.335-.598l.02-.002h.021c.49 0 .948.083 1.294.324l.034.025v-.287h1.75c.377.013.743.09 1.027.303.296.223.438.542.456.891l.432-1.194h1.44l.426 1.214c.05-.35.21-.662.498-.89.311-.247.718-.355 1.156-.385zm13.469 1.562v.898c.066-.014.088-.037.094-.044.023-.026.082-.122.078-.392v-.015c.004-.268-.055-.369-.08-.398-.009-.01-.031-.033-.092-.049m-5.602 2.438.033.002c.357.024.698.12.967.339v-.278h1.625v.289l.224-.289h2.02l-1.488 1.816 1.506 2.075h-2.009l-.253-.367v.367h-1.625v-.29c-.318.223-.726.31-1.159.321h-.02c-.352-.005-.694-.066-.977-.232v.201h-2.531l-.095-.379a4 4 0 0 1-.046-.207v.586H31.46v-3.89h1.75c.332.01.655.072.922.232v-.233h1.625v.298c.306-.228.7-.33 1.122-.359l.034-.002Zm-14.937.063h5.031c.325.011.643.07.906.224v-.224h2.938v1.485h-.094v.922h.14V37.5h-3.874l-.095-.379a4 4 0 0 1-.046-.207v.586h-2.719v-1.234h-.578V37.5h-1.61z" fill="#505050"/><path d="M21.188 31.938h-.563v-.485h1.172v1.453a2.2 2.2 0 0 1-.64.094 6 6 0 0 1-.657.031q-1.327-.062-1.36-1.468.032-1.407 1.36-1.516 1.344 0 1.344.937h-.657q0-.484-.578-.484-.812.03-.812 1.063 0 1.03.812 1.046.235 0 .547-.047.015 0 .032-.015zm1.765-1.344v.765h.516q.422 0 .437-.406-.015-.36-.437-.36zm0 1.25V33h-.625v-2.89h1.235q.984.03 1 .75-.016.562-.594.703v.015q.422.047.515.64 0 .048.016.094.03.532.156.688h-.672a4 4 0 0 1-.109-.781q-.047-.375-.266-.375zM25.39 33h-.593l1.047-2.89h.734L27.594 33h-.625l-.219-.61h-1.14zm.376-1.094h.828l-.39-1.234h-.017zm4.265-.968h-.593q-.032-.438-.47-.438-.452.03-.468.375-.03.328.531.406l.063.032q1.031.202 1.015.78-.03.907-1.234.938-1.14-.015-1.11-.953h.626q0 .516.484.531.563-.015.578-.375 0-.281-.547-.406l-.11-.031q-.968-.204-.952-.797.047-.875 1.203-.953.938.062.984.89Zm2.657 0h-.594q-.031-.438-.469-.438-.453.03-.469.375-.03.328.532.406l.062.032q1.032.202 1.016.78-.032.907-1.235.938-1.14-.015-1.11-.953h.626q0 .516.484.531.563-.015.578-.375 0-.281-.547-.406l-.109-.031q-.969-.204-.953-.797.046-.875 1.203-.953.937.062.985.89ZM35.078 33h-1.86v-2.89h.61v2.406h1.25zm.719 0h-.594l1.047-2.89h.734L38 33h-.625l-.219-.61h-1.14zm.375-1.094H37l-.39-1.234h-.016zM40.906 33h-.89l-1.125-2.406-.016.015V33h-.578v-2.89h.922l1.093 2.28.016-.015v-2.266h.578zm1.11-2.406v1.922h.328q.86.03.843-.953.016-.985-.843-.97h-.328ZM41.406 33v-2.89h.985q1.437.015 1.453 1.453Q43.829 33 42.391 33zm-18.32 4h-.61v-2.89h1.86v.484h-1.25v.687h1.172v.485h-1.172zm2.204-2.89V37h-.626v-2.89h.625Zm1.093.484v.765h.515q.423 0 .438-.406-.015-.36-.438-.36zm0 1.25V37h-.625v-2.89h1.234q.984.03 1 .75-.015.562-.594.703v.015q.423.047.516.64 0 .048.016.094.03.532.156.688h-.672a4 4 0 0 1-.11-.781q-.046-.375-.265-.375zM28.414 37v-2.89h1.938v.484h-1.313v.672h1.219v.484h-1.219v.766h1.36V37zm4.172-2.406v.765h.516q.421 0 .437-.406-.015-.36-.437-.36zm0 1.25V37h-.625v-2.89h1.234q.985.03 1 .75-.015.562-.593.703v.015q.421.047.515.64 0 .048.016.094.03.532.156.688h-.672a4 4 0 0 1-.11-.781q-.046-.375-.265-.375zm2.672-1.734V37h-.625v-2.89zm2.64.828h-.593q-.031-.438-.47-.438-.452.03-.468.375-.03.328.531.406l.063.032q1.03.203 1.016.78-.032.907-1.235.938-1.14-.015-1.11-.953h.626q0 .516.484.531.563-.015.578-.375 0-.281-.547-.406l-.109-.031q-.97-.204-.953-.797.047-.875 1.203-.953.937.063.984.89Zm1.142-.828v1.25l.968-1.25h.719l-1.063 1.296L40.82 37h-.765l-1.016-1.469V37h-.625v-2.89z" fill="#fff"/><defs><clipPath id="a"><path fill="#fff" d="M0 0h48v40H0z"/></clipPath></defs></svg>