<svg width="48" height="40" fill="none" xmlns="http://www.w3.org/2000/svg"><g clip-path="url(#a)"><path fill-rule="evenodd" clip-rule="evenodd" d="M0 38a2 2 0 0 0 2 2h44a2 2 0 0 0 2-2V2A2 2 0 0 0 46.15.005L46 0H2l-.15.005A2 2 0 0 0 0 2zM27 2H2v25h25zM2 29v9h13v-9zm15 9h29v-9H17zm29-11V2H29v25z" fill="#505050"/></g><path fill="#c93e34" d="M2 29h13v9H2z"/><path fill-rule="evenodd" clip-rule="evenodd" d="M7.926 35.07v-.847H6.668l1.613-2.57h-1.12l-.384.628h-.355l1.203-1.886H6.559l-1.04 1.613v1.039h.876l-.875 1.258v.765zm3.8 1.532v-.875h-1.285V31.27H11.7v-.875H8.281v.875h1.094v4.457H8.254v.875zm-3.8-.903v.82H5.492v-.82z" fill="#fff"/><path d="M7.926 34.223h.5v-.5h-.5zm0 .847v.5h.5v-.5zm-1.258-.847-.424-.266-.48.766h.904zm1.613-2.57.424.265.48-.766h-.904zm-1.12 0v-.5h-.282l-.146.24zm-.384.628v.5h.281l.146-.24zm-.355 0L6 32.012l-.49.77h.912v-.5Zm1.203-1.886.422.268.49-.768h-.912zm-1.066 0v-.5h-.273l-.148.229.42.27Zm-1.04 1.613-.42-.27-.08.123v.147zm0 1.039h-.5v.5h.5zm.876 0 .41.285.546-.785h-.956zm-.875 1.258-.41-.286-.09.129v.157zm0 .765h-.5v.5h.5zm6.207.657h.5v-.5h-.5zm0 .875v.5h.5v-.5zm-1.286-.875h-.5v.5h.5zm0-4.457v-.5h-.5v.5zm1.258 0v.5h.5v-.5zm0-.875h.5v-.5h-.5zm-3.418 0v-.5h-.5v.5zm0 .875h-.5v.5h.5zm1.094 0h.5v-.5h-.5zm0 4.457v.5h.5v-.5zm-1.121 0v-.5h-.5v.5zm0 .875h-.5v.5h.5zm-.328-.082v.5h.5v-.5zm0-.82h.5v-.5h-.5zm-2.434.82h-.5v.5h.5zm0-.82v-.5h-.5v.5zm1.934-1.477v.847h1v-.847zm-.758.5h1.258v-1H6.668zm1.19-3.336-1.614 2.57.847.532 1.614-2.57zm-.698.765h1.121v-1h-1.12v1Zm.044.39.383-.63-.854-.52-.383.63zm-.782.24h.355v-1h-.355zm.781-2.656L6 32.012l.843.538 1.204-1.887zm-.644.768h1.066v-1H6.559zm-.62 1.385 1.04-1.614-.84-.541-1.04 1.613zm.08.768v-1.04h-1v1.04zm.376-.5H5.52v1h.875zM5.93 34.59l.875-1.258-.82-.57-.876 1.257zm.09.48v-.765h-1v.765zm1.906-.5H5.52v1h2.406zm3.3 1.157v.875h1v-.875zm-.785.5h1.286v-1H10.44v1Zm-.5-4.957v4.457h1V31.27zm1.758-.5h-1.258v1H11.7zm-.5-.375v.875h1v-.875zm-2.918.5H11.7v-1H8.281zm.5.375v-.875h-1v.875zm.594-.5H8.281v1h1.094zm.5 4.957V31.27h-1v4.457zm-1.621.5h1.121v-1H8.254zm.5.375v-.875h-1v.875zm2.973-.5H8.254v1h3.473zm-3.301.418v-.82h-1v.82zm-2.934.5h2.434v-1H5.492zm-.5-1.32v.82h1v-.82zm2.934-.5H5.492v1h2.434z" fill="#505050"/><path fill-rule="evenodd" clip-rule="evenodd" d="M7.833 35.07v-.847H6.577l1.613-2.57H7.068l-.383.628H6.33l1.203-1.886H6.466l-1.039 1.613v1.039h.875l-.875 1.258v.765h2.407Zm3.801 1.532v-.875H10.35V31.27h1.258v-.875H8.189v.875h1.094v4.457H8.162v.875zm-3.8-.903v.82H5.4v-.82z" fill="#fff"/><path fill="#ccc" d="M2 2h25v25H2z"/><path fill-rule="evenodd" clip-rule="evenodd" d="M9.282 8.837 3 22.52l12.581.208-6.3-13.891Zm2.131 1.37 5.168 11.02h9.568l-2.568-6.402-.745.522-2.963-7.151-1.84 4.46-3.92-8.156z" fill="#c93e34"/><path fill-rule="evenodd" clip-rule="evenodd" d="m18.781 5.456-7.816 10.066 4.616.691-5.392 8.097 9.23-9.821-4.615-.5z" fill="#fff" stroke="#505050" stroke-width=".2"/><path fill="#c93e34" d="M29 2h17v25H29z"/><path fill-rule="evenodd" clip-rule="evenodd" d="M38.512 13.574q.574.055.547-.601V9.664h2.023v.465h-1.695v2.078h.875v-1.313h2.816v1.34h.875V10.13h-1.969v-.465h2.078v-.766h-2.078v-.464h1.532q.573.055.547-.575v-.52h-.876v.11q0 .137-.109.11h-4.894v5.058q0 .219-.164.192h-.192v.765h.684Zm-5.25 0v-.793h-.63v-3.91h.712v3.856q-.056.847.765.82h3.145v-.793h-2.762q-.22.027-.191-.191V8.788l.547-.027v3.636h.957V8.734l.52-.027v2.543q0 .246-.192.219h-.192v.847h.41q.93.056.903-.765V7.887l-1.45.082v-.602h-.984v.656l-.52.028v-.574h-.956v.628h-.711v-.71H31.62v.71h-.601v.793h.601v3.883h-.601v.793zm5.797-4.676h2.023v-.464h-2.023zm1.312 4.676q.246 0 .52-.191l.738-.492.848.492q.246.165.492.164h1.011v-.684h-.656q-.136.028-.3-.11l-.985-.655v-.903h-.93v.93l-.683.52q-.22.218-.383.164h-.684v.765zm-8.367 3.75v.63h-.93v-1.45h2.406v-.192h1.313v.192h2.352v1.45h-.876v-.63zm.383 5.223q.546 0 .71-.274l.985-1.476 1.23 1.476q.192.247.547.247h1.34v-.793h-1.011q-.192 0-.22-.082l-1.476-1.75V17.87h-.93v2.024l-1.175 1.777q-.11.082-.328.082h-.985v.793zm4.293-2.735q-.118.282-.355.302h-1.013v-.794h.52q.083 0 .164-.11l.356-.901h.875zm-4.758.301h.93v-.793h-.493q-.136.028-.191-.11l-.273-.847h-.875l.437 1.45q.082.328.465.3Zm7.027-2.789v.301h-.984v-1.04h2.57v-.245h1.04v.246h2.487v1.039h-.984v-.3H38.95Zm4.403 5.25q.656 0 .656-.629v-1.12h-2.434v-.302h2.543v-.738h-2.543v-.273h2.434v-.739h-2.434v-.246h2.434v-.738h-2.434v-.3h-1.066v.3h-2.434v.738h2.434v.246h-2.406v.739h2.406v.273h-2.543v.738h2.543v.301h-2.434v1.75zm-4.266-.71h3.828q.054 0 .082-.083v-.191h-3.91v.273Z" fill="#fff" stroke="#505050"/><path fill-rule="evenodd" clip-rule="evenodd" d="M38.512 13.574q.574.055.547-.601V9.664h2.023v.465h-1.695v2.078h.875v-1.313h2.816v1.34h.875V10.13h-1.969v-.465h2.078v-.766h-2.078v-.464h1.532q.573.055.547-.575v-.52h-.876v.11q0 .137-.109.11h-4.894v5.058q0 .219-.164.192h-.192v.765h.684Zm-5.25 0v-.793h-.63v-3.91h.712v3.856q-.056.847.765.82h3.145v-.793h-2.762q-.22.027-.191-.191V8.788l.547-.027v3.636h.957V8.734l.52-.027v2.543q0 .246-.192.219h-.192v.847h.41q.93.056.903-.765V7.887l-1.45.082v-.602h-.984v.656l-.52.028v-.574h-.956v.628h-.711v-.71H31.62v.71h-.601v.793h.601v3.883h-.601v.793zm5.797-4.676h2.023v-.464h-2.023zm1.312 4.676q.246 0 .52-.191l.738-.492.848.492q.246.165.492.164h1.011v-.684h-.656q-.136.028-.3-.11l-.985-.655v-.903h-.93v.93l-.683.52q-.22.218-.383.164h-.684v.765zm-8.367 3.75v.63h-.93v-1.45h2.406v-.192h1.313v.192h2.352v1.45h-.876v-.63zm.383 5.223q.546 0 .71-.274l.985-1.476 1.23 1.476q.192.247.547.247h1.34v-.793h-1.011q-.192 0-.22-.082l-1.476-1.75V17.87h-.93v2.024l-1.175 1.777q-.11.082-.328.082h-.985v.793zm4.293-2.735q-.118.282-.355.302h-1.013v-.794h.52q.083 0 .164-.11l.356-.901h.875zm-4.758.301h.93v-.793h-.493q-.136.028-.191-.11l-.273-.847h-.875l.437 1.45q.082.328.465.3m7.027-2.789v.301h-.984v-1.04h2.57v-.245h1.04v.246h2.487v1.039h-.984v-.3H38.95Zm4.403 5.25q.656 0 .656-.629v-1.12h-2.434v-.302h2.543v-.738h-2.543v-.273h2.434v-.739h-2.434v-.246h2.434v-.738h-2.434v-.3h-1.066v.3h-2.434v.738h2.434v.246h-2.406v.739h2.406v.273h-2.543v.738h2.543v.301h-2.434v1.75zm-4.266-.71h3.828q.054 0 .082-.083v-.191h-3.91v.273Z" fill="#fff"/><path fill="#c93e34" d="M17 29h29v9H17z"/><path fill-rule="evenodd" clip-rule="evenodd" d="M20.04 33.031q.406 0 .655-.031.33 0 .64-.094v-1.453h-1.17v.485h.562v.609q-.015.016-.032.016a4 4 0 0 1-.547.046q-.812-.015-.812-1.047 0-1.03.812-1.062.579 0 .579.484h.656q0-.937-1.344-.937-1.327.11-1.36 1.515.033 1.407 1.36 1.47ZM23.851 33v-.484h-1.36v-.766h1.219v-.484h-1.219v-.672h1.313v-.485h-1.938V33zm3.156-1.438q-.047 1.438-1.375 1.47-1.36-.032-1.39-1.47.03-1.468 1.39-1.515 1.328.047 1.375 1.515Zm-1.375 1.047q-.75.016-.735-1.047-.015-1.062.735-1.062.719 0 .719 1.063 0 1.046-.72 1.046Zm3.687-.093V33h-1.86v-2.89h.61v2.406zm1.64.515q1.33-.03 1.376-1.468-.047-1.47-1.375-1.516-1.36.046-1.39 1.515.03 1.438 1.39 1.47Zm-.733-1.468q-.016 1.062.734 1.046.72 0 .719-1.047 0-1.062-.72-1.062-.75 0-.733 1.063Zm3.796 1.468q.407 0 .657-.031.328 0 .64-.094v-1.453h-1.172v.485h.563v.609q-.015.016-.031.016a4 4 0 0 1-.547.046q-.813-.015-.813-1.047 0-1.03.813-1.062.578 0 .578.484h.656q0-.937-1.344-.937-1.327.11-1.359 1.515.03 1.407 1.36 1.47Zm2.47-2.922V33h-.626v-2.89zm1.577 2.922q1.156-.015 1.22-.968h-.657q-.032.531-.563.546-.515-.015-.547-1.047.032-1.03.547-1.062.532.03.563.547h.656q-.063-.97-1.219-1-1.17.047-1.203 1.515.031 1.438 1.203 1.47Zm2.172-.64-.219.609h-.593l1.047-2.89h.734L42.227 33h-.625l-.22-.61zm.985-.485h-.829l.422-1.234h.016l.39 1.234Zm3.171.61V33H42.54v-2.89h.61v2.406h1.25ZM25.422 37v-1.266h1.11V37h.609v-2.89h-.625v1.14h-1.094v-1.14h-.61V37zm2.844-.61-.22.61h-.593l1.047-2.89h.734L30.25 37h-.625l-.219-.61zm.984-.484h-.828l.422-1.234h.015zm3.36.61V37h-2.22v-.484l1.438-1.922h-1.344v-.485h2.094v.485l-1.422 1.922h1.453Zm.75.484.218-.61h1.14l.22.61h.624l-1.015-2.89h-.734L32.766 37h.593Zm.796-2.328-.422 1.234h.828l-.39-1.234zM36.844 37q1.437 0 1.453-1.438-.015-1.437-1.453-1.453h-.985V37zm-.375-.484h.328q.86.03.844-.953.015-.985-.844-.97h-.328z" fill="#fff" stroke="#505050"/><path fill-rule="evenodd" clip-rule="evenodd" d="M20.04 33.031q.406 0 .655-.031.33 0 .64-.094v-1.453h-1.17v.485h.562v.609q-.015.016-.032.016a4 4 0 0 1-.547.046q-.812-.015-.812-1.047 0-1.03.812-1.062.579 0 .579.484h.656q0-.937-1.344-.937-1.327.11-1.36 1.515.033 1.407 1.36 1.47ZM23.851 33v-.484h-1.36v-.766h1.219v-.484h-1.219v-.672h1.313v-.485h-1.938V33zm3.156-1.438q-.047 1.438-1.375 1.47-1.36-.032-1.39-1.47.03-1.468 1.39-1.515 1.328.047 1.375 1.515m-1.375 1.047q-.75.016-.735-1.047-.015-1.062.735-1.062.719 0 .719 1.063 0 1.046-.72 1.046Zm3.687-.093V33h-1.86v-2.89h.61v2.406zm1.64.515q1.33-.03 1.376-1.468-.047-1.47-1.375-1.516-1.36.046-1.39 1.515.03 1.438 1.39 1.47Zm-.733-1.468q-.016 1.062.734 1.046.72 0 .719-1.047 0-1.062-.72-1.062-.75 0-.733 1.063m3.796 1.468q.407 0 .657-.031.328 0 .64-.094v-1.453h-1.172v.485h.563v.609q-.015.016-.031.016a4 4 0 0 1-.547.046q-.813-.015-.813-1.047 0-1.03.813-1.062.578 0 .578.484h.656q0-.937-1.344-.937-1.327.11-1.359 1.515.03 1.407 1.36 1.47Zm2.47-2.922V33h-.626v-2.89zm1.577 2.922q1.156-.015 1.22-.968h-.657q-.032.531-.563.546-.515-.015-.547-1.047.032-1.03.547-1.062.532.03.563.547h.656q-.063-.97-1.219-1-1.17.047-1.203 1.515.031 1.438 1.203 1.47Zm2.172-.64-.219.609h-.593l1.047-2.89h.734L42.227 33h-.625l-.22-.61zm.985-.485h-.829l.422-1.234h.016l.39 1.234Zm3.171.61V33H42.54v-2.89h.61v2.406h1.25ZM25.422 37v-1.266h1.11V37h.609v-2.89h-.625v1.14h-1.094v-1.14h-.61V37zm2.844-.61-.22.61h-.593l1.047-2.89h.734L30.25 37h-.625l-.219-.61zm.984-.484h-.828l.422-1.234h.015zm3.36.61V37h-2.22v-.484l1.438-1.922h-1.344v-.485h2.094v.485l-1.422 1.922h1.453Zm.75.484.218-.61h1.14l.22.61h.624l-1.015-2.89h-.734L32.766 37h.593Zm.796-2.328-.422 1.234h.828l-.39-1.234zM36.844 37q1.437 0 1.453-1.438-.015-1.437-1.453-1.453h-.985V37zm-.375-.484h.328q.86.03.844-.953.015-.985-.844-.97h-.328z" fill="#fff"/><defs><clipPath id="a"><path fill="#fff" d="M0 0h48v40H0z"/></clipPath></defs></svg>