<svg width="48" height="40" fill="none" xmlns="http://www.w3.org/2000/svg"><g clip-path="url(#a)"><path fill-rule="evenodd" clip-rule="evenodd" d="M0 38a2 2 0 0 0 2 2h44a2 2 0 0 0 2-2V2A2 2 0 0 0 46.15.005L46 0H2l-.15.005A2 2 0 0 0 0 2zM27 2H2v25h25zM2 29v9h13v-9zm15 9h29v-9H17zm29-11V2H29v25z" fill="#505050"/></g><path fill="#3a6af6" d="M2 29h13v9H2z"/><path fill-rule="evenodd" clip-rule="evenodd" d="M11.563 31.516v-.793h-.63l.11-.328H9.84l-.11.328H7.215l-.137-.328H5.875l.11.328h-.63v.793zM9.183 32.8q.192.027.301-.192l.082-.164h1.996v-.683H9.758l.027-.082h-.93l-.136.273q-.082.192-.274.164h-.41v.684h1.149Zm-2.761-1.012v2.023h-.93V31.79h.93Zm1.367 2.023V31.79h-.848v2.023h.848Zm3.774 0H9.02q-.52.029-.602-.246l-.355-.656h1.093l.082.11q.028.163.246.136h2.079zm0 2.817v-.738h-.247v-1.832H5.52v1.832h-.192v.738h6.234Zm-5.141-.738h.793v-1.04h-.793zm1.613 0v-1.04h.766v1.04zm1.64 0h.794v-1.04h-.793z" fill="#fff" stroke="#505050"/><path fill-rule="evenodd" clip-rule="evenodd" d="M11.563 31.516v-.793h-.63l.11-.328H9.84l-.11.328H7.215l-.137-.328H5.875l.11.328h-.63v.793zM9.183 32.8q.192.027.301-.192l.082-.164h1.996v-.683H9.758l.027-.082h-.93l-.136.273q-.082.192-.274.164h-.41v.684h1.149Zm-2.761-1.012v2.023h-.93V31.79h.93Zm1.367 2.023V31.79h-.848v2.023h.848Zm3.774 0H9.02q-.52.029-.602-.246l-.355-.656h1.093l.082.11q.028.163.246.136h2.079zm0 2.817v-.738h-.247v-1.832H5.52v1.832h-.192v.738h6.234Zm-5.141-.738h.793v-1.04h-.793zm1.613 0v-1.04h.766v1.04zm1.64 0h.794v-1.04h-.793z" fill="#fff"/><path fill="#ccc" d="M2 2h25v25H2z"/><path d="M13.563 12.977C9.643 8.83 4 9.574 4 14.779s6.376 5.24 10.5 1.72c4.417 4.395 10.31 2.474 10.5-1.72 0-5.717-7.302-6.288-11.437-1.802m-7.806 1.767c-.143-1.915 3.515-2.857 6.444-.47-2.367 2.574-6.113 3.117-6.444.47m9.912.628c3.221-3.701 7.266-3.582 7.615-1.042.354 1.927-4.033 3.23-7.61 1.039zM29 2h17v25H29z" fill="#3a6af6"/><path fill-rule="evenodd" clip-rule="evenodd" d="M38.203 11.672v2.07h-1.367v-2.07h-2.383v1.953h-1.367v-2.54h3.75v-.35h-3.711v-.704h8.828v.703h-3.75v.352h3.75v2.656h-1.367v-2.07zm2.031.547q.039.547-.507.508h-1.211v-.547h.351q.156 0 .156-.078v-.079h1.211zm-5.039.508h1.407v-.47h-.274q-.195.04-.156-.155v-.04h-1.445v.235q-.07.422.365.432.048.001.103-.002Zm5.04 1.015h-1.133q-.704.04-.625-.547v-.273h1.171V13q-.038.195.196.156h.39v.586Zm-4.024.04q.312.077.352-.47v-.351h-1.368v.156q0 .234-.234.195h-.273v.47zm.352.546q0 .352-.43.313h-3.086v-.547h2.031q.156 0 .156-.078v-.118h1.328v.43Zm5.39 4.531v-.78h-1.836v-.235h1.836v-.703h-1.797v-.313h.938q.937.117.86-.781v-1.992h-4.845v2.773h1.797v.313H37.11v.703h1.797v.234h-2.031v.781zm-6.133-3.75q-.117.39-.312.352h-.899v-.586h.547q.117.04.117-.04v-.116h.586zm-1.68.391q.391.078.391-.508v-.234h-.664v.039q0 .156-.117.117h-.703v.586zm4.102-.313h.703v-.39h-.703zm2.578 0h-.742v-.39h.742zm-4.101 2.93q.078.86-.899.781h-2.734v-.585h2.305q.351.038.312-.313v-1.64q0-.118-.078-.118h-2.54v-.625h2.58q.077 0 .155-.117l.196-.664h.78l-.116.586q-.117.508-.274.508.274.078.313.508zm3.867-1.875h-.508v-.39h.742v.195q0 .234-.234.195Zm-2.344.04h.703v-.43h-.703zm-3.476.82q.508.038.625-.235l.273-.547h-.781l-.117.157q-.117.117-.196.117h-1.484v.508zm.625.703q-.04.195-.508.195h-1.797v-.586h1.562q.157 0 .235-.117l.039-.117h.742z" fill="#fff" stroke="#505050"/><path fill-rule="evenodd" clip-rule="evenodd" d="M38.203 11.672v2.07h-1.367v-2.07h-2.383v1.953h-1.367v-2.54h3.75v-.35h-3.711v-.704h8.828v.703h-3.75v.352h3.75v2.656h-1.367v-2.07zm2.031.547q.039.547-.507.508h-1.211v-.547h.351q.156 0 .156-.078v-.079h1.211zm-5.039.508h1.407v-.47h-.274q-.195.04-.156-.155v-.04h-1.445v.235q-.07.422.365.432.048.001.103-.002m5.04 1.015h-1.133q-.704.04-.625-.547v-.273h1.171V13q-.038.195.196.156h.39zm-4.024.04q.312.077.352-.47v-.351h-1.368v.156q0 .234-.234.195h-.273v.47zm.352.546q0 .352-.43.313h-3.086v-.547h2.031q.156 0 .156-.078v-.118h1.328zm5.39 4.531v-.78h-1.836v-.235h1.836v-.703h-1.797v-.313h.938q.937.117.86-.781v-1.992h-4.845v2.773h1.797v.313H37.11v.703h1.797v.234h-2.031v.781zm-6.133-3.75q-.117.39-.312.352h-.899v-.586h.547q.117.04.117-.04v-.116h.586zm-1.68.391q.391.078.391-.508v-.234h-.664v.039q0 .156-.117.117h-.703v.586zm4.102-.313h.703v-.39h-.703zm2.578 0h-.742v-.39h.742zm-4.101 2.93q.078.86-.899.781h-2.734v-.585h2.305q.351.038.312-.313v-1.64q0-.118-.078-.118h-2.54v-.625h2.58q.077 0 .155-.117l.196-.664h.78l-.116.586q-.117.508-.274.508.274.078.313.508zm3.867-1.875h-.508v-.39h.742v.195q0 .234-.234.195m-2.344.04h.703v-.43h-.703zm-3.476.82q.508.038.625-.235l.273-.547h-.781l-.117.157q-.117.117-.196.117h-1.484v.508zm.625.703q-.04.195-.508.195h-1.797v-.586h1.562q.157 0 .235-.117l.039-.117h.742z" fill="#fff"/><path fill="#3a6af6" d="M17 29h29v9H17z"/><path fill-rule="evenodd" clip-rule="evenodd" d="M25.973 35v-1.582h1.386V35h.762v-3.613h-.781v1.425h-1.367v-1.425h-.762V35zm3.28 0 .274-.762h1.426l.274.762h.78l-1.269-3.613h-.918L28.512 35h.742Zm.47-1.367h1.035l-.488-1.543h-.02zM34.957 35v-.605h-1.816l1.777-2.403v-.605h-2.617v.605h1.68l-1.797 2.402V35zm2.91-.605V35h-2.48v-3.613h2.422v.605h-1.641v.84h1.523v.605h-1.523v.958h1.7Z" fill="#fff" stroke="#505050"/><path fill-rule="evenodd" clip-rule="evenodd" d="M25.973 35v-1.582h1.386V35h.762v-3.613h-.781v1.425h-1.367v-1.425h-.762V35zm3.28 0 .274-.762h1.426l.274.762h.78l-1.269-3.613h-.918L28.512 35h.742Zm.47-1.367h1.035l-.488-1.543h-.02zM34.957 35v-.605h-1.816l1.777-2.403v-.605h-2.617v.605h1.68l-1.797 2.402V35zm2.91-.605V35h-2.48v-3.613h2.422v.605h-1.641v.84h1.523v.605h-1.523v.958h1.7Z" fill="#fff"/><defs><clipPath id="a"><path fill="#fff" d="M0 0h48v40H0z"/></clipPath></defs></svg>