<svg width="48" height="40" fill="none" xmlns="http://www.w3.org/2000/svg"><g clip-path="url(#a)"><path fill-rule="evenodd" clip-rule="evenodd" d="M0 38a2 2 0 0 0 2 2h44a2 2 0 0 0 2-2V2A2 2 0 0 0 46.15.005L46 0H2l-.15.005A2 2 0 0 0 0 2zM27 2H2v25h25zM2 29v9h13v-9zm15 9h29v-9H17zm29-11V2H29v25z" fill="#505050"/></g><path fill="#c93e34" d="M2 29h13v9H2z"/><path fill-rule="evenodd" clip-rule="evenodd" d="M7.926 35.07v-.847H6.668l1.613-2.57h-1.12l-.384.628h-.355l1.203-1.886H6.559l-1.04 1.613v1.039h.876l-.875 1.258v.765zm3.8 1.532v-.875h-1.285V31.27H11.7v-.875H8.281v.875h1.094v4.457H8.254v.875zm-3.8-.903v.82H5.492v-.82z" fill="#fff"/><path d="M7.926 34.223h.5v-.5h-.5zm0 .847v.5h.5v-.5zm-1.258-.847-.424-.266-.48.766h.904zm1.613-2.57.424.265.48-.766h-.904zm-1.12 0v-.5h-.282l-.146.24zm-.384.628v.5h.281l.146-.24zm-.355 0L6 32.012l-.49.77h.912v-.5Zm1.203-1.886.422.268.49-.768h-.912zm-1.066 0v-.5h-.273l-.148.229.42.27Zm-1.04 1.613-.42-.27-.08.123v.147zm0 1.039h-.5v.5h.5zm.876 0 .41.285.546-.785h-.956zm-.875 1.258-.41-.286-.09.129v.157zm0 .765h-.5v.5h.5zm6.207.657h.5v-.5h-.5zm0 .875v.5h.5v-.5zm-1.286-.875h-.5v.5h.5zm0-4.457v-.5h-.5v.5zm1.258 0v.5h.5v-.5zm0-.875h.5v-.5h-.5zm-3.418 0v-.5h-.5v.5zm0 .875h-.5v.5h.5zm1.094 0h.5v-.5h-.5zm0 4.457v.5h.5v-.5zm-1.121 0v-.5h-.5v.5zm0 .875h-.5v.5h.5zm-.328-.082v.5h.5v-.5zm0-.82h.5v-.5h-.5zm-2.434.82h-.5v.5h.5zm0-.82v-.5h-.5v.5zm1.934-1.477v.847h1v-.847zm-.758.5h1.258v-1H6.668zm1.19-3.336-1.614 2.57.847.532 1.614-2.57zm-.698.765h1.121v-1h-1.12v1Zm.044.39.383-.63-.854-.52-.383.63zm-.782.24h.355v-1h-.355zm.781-2.656L6 32.012l.843.538 1.204-1.887zm-.644.768h1.066v-1H6.559zm-.62 1.385 1.04-1.614-.84-.541-1.04 1.613zm.08.768v-1.04h-1v1.04zm.376-.5H5.52v1h.875zM5.93 34.59l.875-1.258-.82-.57-.876 1.257zm.09.48v-.765h-1v.765zm1.906-.5H5.52v1h2.406zm3.3 1.157v.875h1v-.875zm-.785.5h1.286v-1H10.44v1Zm-.5-4.957v4.457h1V31.27zm1.758-.5h-1.258v1H11.7zm-.5-.375v.875h1v-.875zm-2.918.5H11.7v-1H8.281zm.5.375v-.875h-1v.875zm.594-.5H8.281v1h1.094zm.5 4.957V31.27h-1v4.457zm-1.621.5h1.121v-1H8.254zm.5.375v-.875h-1v.875zm2.973-.5H8.254v1h3.473zm-3.301.418v-.82h-1v.82zm-2.934.5h2.434v-1H5.492zm-.5-1.32v.82h1v-.82zm2.934-.5H5.492v1h2.434z" fill="#505050"/><path fill-rule="evenodd" clip-rule="evenodd" d="M7.833 35.07v-.847H6.577l1.613-2.57H7.068l-.383.628H6.33l1.203-1.886H6.466l-1.039 1.613v1.039h.875l-.875 1.258v.765h2.407Zm3.801 1.532v-.875H10.35V31.27h1.258v-.875H8.189v.875h1.094v4.457H8.162v.875zm-3.8-.903v.82H5.4v-.82z" fill="#fff"/><path fill="#ccc" d="M2 2h25v25H2z"/><path d="M13.583 4h9.848l-8.37 7.084h6.337l-6.616 5.795h3.291L5 26l4.61-6.508H7.1l4.178-6.405H8.825zM29 2h17v25H29z" fill="#c93e34"/><path clip-rule="evenodd" d="M34.297 8.797V6.219h2.539v2.578h1.367V6.219h2.461v2.578h1.29V5.32h-3.712v-.39h3.75v-.938h-8.906v.938h3.71v.39h-3.71v3.477h1.21Zm5.312-1.29q.625 0 .664-.546v-.508H39.22q-.078.273-.313.234h-.468v.82zm-3.086-.82v.782H35.43q-.704-.04-.742-.625v-.352h1.132q-.078.235.313.196zm2.774 2.149h1.055v-.899h-.274q-.43.04-.469-.195h-1.172v.508q-.078.625.86.586Zm-2.852-.664q0 .703-.742.664h-1.055v-.899H35q.352.04.313-.195h1.132zm4.57 4.61q.939-.001.938-1.016V9.187h-8.867v3.594h7.93Zm-6.562-2.188h2.383v-.469h-2.383zm6.211 0h-2.46v-.469h2.46zm-6.172 1.289h2.305v-.43h-2.305zm6.055 0h-2.305v-.43h2.422v.313q0 .117-.117.117Zm1.68 12.976h-4.375q-.076.006-.146.006-.98.01-.87-.865v-.781h-3.633v-6.953h3.633v-.274h1.484v.274h3.672v5.898q.04 1.172-.86 1.055H38.32v.39q0 .235.196.196h3.71zm-1.72-5.742H38.32v-1.601h2.188v1.601Zm-5.82 0h2.149v-1.601h-2.148v1.601Zm2.149 2.852h-2.148v-1.602h2.148zm1.484 0h2.032q.117 0 .156-.235v-1.367H38.32z" stroke="#505050"/><path fill-rule="evenodd" clip-rule="evenodd" d="M34.297 8.797V6.219h2.539v2.578h1.367V6.219h2.461v2.578h1.29V5.32h-3.712v-.39h3.75v-.938h-8.906v.938h3.71v.39h-3.71v3.477h1.21Zm5.312-1.29q.625 0 .664-.546v-.508H39.22q-.078.273-.313.234h-.468v.82zm-3.086-.82v.782H35.43q-.704-.04-.742-.625v-.352h1.132q-.078.235.313.196zm2.774 2.149h1.055v-.899h-.274q-.43.04-.469-.195h-1.172v.508q-.078.625.86.586m-2.852-.664q0 .703-.742.664h-1.055v-.899H35q.352.04.313-.195h1.132zm4.57 4.61q.939-.001.938-1.016V9.187h-8.867v3.594h7.93Zm-6.562-2.188h2.383v-.469h-2.383zm6.211 0h-2.46v-.469h2.46zm-6.172 1.289h2.305v-.43h-2.305zm6.055 0h-2.305v-.43h2.422v.313q0 .117-.117.117m1.68 12.976h-4.375q-.076.006-.146.006-.98.01-.87-.865v-.781h-3.633v-6.953h3.633v-.274h1.484v.274h3.672v5.898q.04 1.172-.86 1.055H38.32v.39q0 .235.196.196h3.71zm-1.72-5.742H38.32v-1.601h2.188v1.601Zm-5.82 0h2.149v-1.601h-2.148v1.601Zm2.149 2.852h-2.148v-1.602h2.148zm1.484 0h2.032q.117 0 .156-.235v-1.367H38.32z" fill="#fff"/><path fill="#c93e34" d="M17 29h29v9H17z"/><path clip-rule="evenodd" d="M24.787 35q-.3.038-.787.038-1.594-.075-1.631-1.763.037-1.687 1.63-1.819 1.614 0 1.613 1.125h-.787q0-.58-.694-.581-.975.038-.975 1.275c0 1.237.325 1.244.975 1.256q.281 0 .656-.056.019 0 .038-.019v-.731h-.675v-.581h1.406v1.744a2.7 2.7 0 0 1-.769.112Zm-4.03 0v-.581h-1.5V31.53h-.732V35h2.231Zm1.143 0v-3.469h-.75V35zm5.081 0v-1.519h1.331V35h.732v-3.469h-.75V32.9H26.98v-1.369h-.731V35h.731Zm4.219-2.888V35h-.75v-2.888h-1.031v-.58h2.812v.58zM33.3 35v-2.869l.019-.019L34.669 35h1.068v-3.469h-.693v2.719l-.02.019-1.312-2.738h-1.106V35zm3.769-3.469V35h-.75v-3.469zM38.362 35v-2.869l.02-.019L39.731 35H40.8v-3.469h-.694v2.719l-.019.019-1.312-2.738h-1.106V35zm5.325 0q-.3.038-.787.038-1.594-.075-1.631-1.763.037-1.687 1.63-1.819 1.614 0 1.613 1.125h-.787q0-.58-.694-.581-.975.038-.975 1.275c0 1.237.325 1.244.975 1.256q.282 0 .656-.056.019 0 .038-.019v-.731h-.675v-.581h1.406v1.744a2.7 2.7 0 0 1-.769.112Z" stroke="#505050"/><path fill-rule="evenodd" clip-rule="evenodd" d="M24.787 35q-.3.038-.787.038-1.594-.075-1.631-1.763.037-1.687 1.63-1.819 1.614 0 1.613 1.125h-.787q0-.58-.694-.581-.975.038-.975 1.275c0 1.237.325 1.244.975 1.256q.281 0 .656-.056.019 0 .038-.019v-.731h-.675v-.581h1.406v1.744a2.7 2.7 0 0 1-.769.112m-4.03 0v-.581h-1.5V31.53h-.732V35h2.231Zm1.143 0v-3.469h-.75V35zm5.081 0v-1.519h1.331V35h.732v-3.469h-.75V32.9H26.98v-1.369h-.731V35h.731Zm4.219-2.888V35h-.75v-2.888h-1.031v-.58h2.812v.58zM33.3 35v-2.869l.019-.019L34.669 35h1.068v-3.469h-.693v2.719l-.02.019-1.312-2.738h-1.106V35zm3.769-3.469V35h-.75v-3.469zM38.362 35v-2.869l.02-.019L39.731 35H40.8v-3.469h-.694v2.719l-.019.019-1.312-2.738h-1.106V35zm5.325 0q-.3.038-.787.038-1.594-.075-1.631-1.763.037-1.687 1.63-1.819 1.614 0 1.613 1.125h-.787q0-.58-.694-.581-.975.038-.975 1.275c0 1.237.325 1.244.975 1.256q.282 0 .656-.056.019 0 .038-.019v-.731h-.675v-.581h1.406v1.744a2.7 2.7 0 0 1-.769.112" fill="#fff"/><defs><clipPath id="a"><path fill="#fff" d="M0 0h48v40H0z"/></clipPath></defs></svg>