<svg width="48" height="40" fill="none" xmlns="http://www.w3.org/2000/svg"><g clip-path="url(#a)"><path fill-rule="evenodd" clip-rule="evenodd" d="M0 38a2 2 0 0 0 2 2h44a2 2 0 0 0 2-2V2A2 2 0 0 0 46.15.005L46 0H2l-.15.005A2 2 0 0 0 0 2zM27 2H2v25h25zM2 29v9h13v-9zm15 9h29v-9H17zm29-11V2H29v25z" fill="#505050"/></g><path fill="#f29d38" d="M2 29h13v9H2z"/><path d="M7.352 36.574v-3.718h.164v-.794h-.164v-.246h.218v-.765h-.218v-.656h-.903v.656H5.33v.793h1.093v.218H5.52l-.11 3.5q0 .138-.11.11v.656h.384q.52 0 .52-.547l.109-2.925h.109v3.718zm1.175-3.527q.957.11.957-.93l.11-1.668h-1.86v.684h.93l-.027.328h-.219q-.137.027-.11-.11h-.574v.247q0 .492.41.52h.438l-.027.081q-.028.192-.164.164h-.63v.684zm2.98-.684v.657h-.984a1 1 0 0 1-.109.003q-.577-.008-.601-.66l-.137-1.914h1.86v.766h-.848l.054.273h.137q.137.027.137-.11h.546l-.027.329q-.027.465-.41.383h-.355l.027.11q-.027.19.191.163h.52Zm.028 1.504v-.656H7.652v.656zm0 2.078v.547H7.543v-.547h.574l-.082-.3H7.68v-1.56h3.855v1.013q.027.6-.492.547l-.055.3zm-1.039-.957a.1.1 0 0 0 .04.005q.07-.005.07-.114v-.11H8.554v.22h1.941Zm-1.45.957h1.04v-.3h-1.04z" fill="#505050" stroke="#505050"/><path d="M7.352 36.574v-3.718h.164v-.794h-.164v-.246h.218v-.765h-.218v-.656h-.903v.656H5.33v.793h1.093v.218H5.52l-.11 3.5q0 .138-.11.11v.656h.384q.52 0 .52-.547l.109-2.925h.109v3.718zm1.175-3.527q.957.11.957-.93l.11-1.668h-1.86v.684h.93l-.027.328h-.219q-.137.027-.11-.11h-.574v.247q0 .492.41.52h.438l-.027.081q-.028.192-.164.164h-.63v.684zm2.98-.684v.657h-.984a1 1 0 0 1-.109.003q-.577-.008-.601-.66l-.137-1.914h1.86v.766h-.848l.054.273h.137q.137.027.137-.11h.546l-.027.329q-.027.465-.41.383h-.355l.027.11q-.027.19.191.163h.52Zm.028 1.504v-.656H7.652v.656zm0 2.078v.547H7.543v-.547h.574l-.082-.3H7.68v-1.56h3.855v1.013q.027.6-.492.547l-.055.3zm-1.039-.957a.1.1 0 0 0 .04.005q.07-.005.07-.114v-.11H8.554v.22h1.941Zm-1.45.957h1.04v-.3h-1.04z" fill="#fff"/><path fill="#ccc" d="M2 2h25v25H2z"/><path d="M13.583 4h9.848l-8.37 7.084h6.337l-6.616 5.795h3.291L5 26l4.61-6.508H7.1l4.178-6.405H8.825zM29 2h17v25H29z" fill="#f29d38"/><path clip-rule="evenodd" d="M34.297 8.797V6.219h2.539v2.578h1.367V6.219h2.461v2.578h1.29V5.32h-3.712v-.39h3.75v-.938h-8.906v.938h3.71v.39h-3.71v3.477h1.21Zm5.312-1.29q.625 0 .664-.546v-.508H39.22q-.078.273-.313.234h-.468v.82zm-3.086-.82v.782H35.43q-.704-.04-.742-.625v-.352h1.132q-.078.235.313.196zm2.774 2.149h1.055v-.899h-.274q-.43.04-.469-.195h-1.172v.508q-.078.625.86.586Zm-2.852-.664q0 .703-.742.664h-1.055v-.899H35q.352.04.313-.195h1.132zm4.57 4.61q.939-.001.938-1.016V9.187h-8.867v3.594h7.93Zm-6.562-2.188h2.383v-.469h-2.383zm6.211 0h-2.46v-.469h2.46zm-6.172 1.289h2.305v-.43h-2.305zm6.055 0h-2.305v-.43h2.422v.313q0 .117-.117.117Zm1.68 12.976h-4.375q-.076.006-.146.006-.98.01-.87-.865v-.781h-3.633v-6.953h3.633v-.274h1.484v.274h3.672v5.898q.04 1.172-.86 1.055H38.32v.39q0 .235.196.196h3.71zm-1.72-5.742H38.32v-1.601h2.188v1.601Zm-5.82 0h2.149v-1.601h-2.148v1.601Zm2.149 2.852h-2.148v-1.602h2.148zm1.484 0h2.032q.117 0 .156-.235v-1.367H38.32z" stroke="#505050"/><path fill-rule="evenodd" clip-rule="evenodd" d="M34.297 8.797V6.219h2.539v2.578h1.367V6.219h2.461v2.578h1.29V5.32h-3.712v-.39h3.75v-.938h-8.906v.938h3.71v.39h-3.71v3.477h1.21Zm5.312-1.29q.625 0 .664-.546v-.508H39.22q-.078.273-.313.234h-.468v.82zm-3.086-.82v.782H35.43q-.704-.04-.742-.625v-.352h1.132q-.078.235.313.196zm2.774 2.149h1.055v-.899h-.274q-.43.04-.469-.195h-1.172v.508q-.078.625.86.586m-2.852-.664q0 .703-.742.664h-1.055v-.899H35q.352.04.313-.195h1.132zm4.57 4.61q.939-.001.938-1.016V9.187h-8.867v3.594h7.93Zm-6.562-2.188h2.383v-.469h-2.383zm6.211 0h-2.46v-.469h2.46zm-6.172 1.289h2.305v-.43h-2.305zm6.055 0h-2.305v-.43h2.422v.313q0 .117-.117.117m1.68 12.976h-4.375q-.076.006-.146.006-.98.01-.87-.865v-.781h-3.633v-6.953h3.633v-.274h1.484v.274h3.672v5.898q.04 1.172-.86 1.055H38.32v.39q0 .235.196.196h3.71zm-1.72-5.742H38.32v-1.601h2.188v1.601Zm-5.82 0h2.149v-1.601h-2.148v1.601Zm2.149 2.852h-2.148v-1.602h2.148zm1.484 0h2.032q.117 0 .156-.235v-1.367H38.32z" fill="#fff"/><path fill="#f29d38" d="M17 29h29v9H17z"/><path clip-rule="evenodd" d="M24.787 35q-.3.038-.787.038-1.594-.075-1.631-1.763.037-1.687 1.63-1.819 1.614 0 1.613 1.125h-.787q0-.58-.694-.581-.975.038-.975 1.275c0 1.237.325 1.244.975 1.256q.281 0 .656-.056.019 0 .038-.019v-.731h-.675v-.581h1.406v1.744a2.7 2.7 0 0 1-.769.112Zm-4.03 0v-.581h-1.5V31.53h-.732V35h2.231Zm1.143 0v-3.469h-.75V35zm5.081 0v-1.519h1.331V35h.732v-3.469h-.75V32.9H26.98v-1.369h-.731V35h.731Zm4.219-2.888V35h-.75v-2.888h-1.031v-.58h2.812v.58zM33.3 35v-2.869l.019-.019L34.669 35h1.068v-3.469h-.693v2.719l-.02.019-1.312-2.738h-1.106V35zm3.769-3.469V35h-.75v-3.469zM38.362 35v-2.869l.02-.019L39.731 35H40.8v-3.469h-.694v2.719l-.019.019-1.312-2.738h-1.106V35zm5.325 0q-.3.038-.787.038-1.594-.075-1.631-1.763.037-1.687 1.63-1.819 1.614 0 1.613 1.125h-.787q0-.58-.694-.581-.975.038-.975 1.275c0 1.237.325 1.244.975 1.256q.282 0 .656-.056.019 0 .038-.019v-.731h-.675v-.581h1.406v1.744a2.7 2.7 0 0 1-.769.112Z" stroke="#505050"/><path fill-rule="evenodd" clip-rule="evenodd" d="M24.787 35q-.3.038-.787.038-1.594-.075-1.631-1.763.037-1.687 1.63-1.819 1.614 0 1.613 1.125h-.787q0-.58-.694-.581-.975.038-.975 1.275c0 1.237.325 1.244.975 1.256q.281 0 .656-.056.019 0 .038-.019v-.731h-.675v-.581h1.406v1.744a2.7 2.7 0 0 1-.769.112m-4.03 0v-.581h-1.5V31.53h-.732V35h2.231Zm1.143 0v-3.469h-.75V35zm5.081 0v-1.519h1.331V35h.732v-3.469h-.75V32.9H26.98v-1.369h-.731V35h.731Zm4.219-2.888V35h-.75v-2.888h-1.031v-.58h2.812v.58zM33.3 35v-2.869l.019-.019L34.669 35h1.068v-3.469h-.693v2.719l-.02.019-1.312-2.738h-1.106V35zm3.769-3.469V35h-.75v-3.469zM38.362 35v-2.869l.02-.019L39.731 35H40.8v-3.469h-.694v2.719l-.019.019-1.312-2.738h-1.106V35zm5.325 0q-.3.038-.787.038-1.594-.075-1.631-1.763.037-1.687 1.63-1.819 1.614 0 1.613 1.125h-.787q0-.58-.694-.581-.975.038-.975 1.275c0 1.237.325 1.244.975 1.256q.282 0 .656-.056.019 0 .038-.019v-.731h-.675v-.581h1.406v1.744a2.7 2.7 0 0 1-.769.112" fill="#fff"/><defs><clipPath id="a"><path fill="#fff" d="M0 0h48v40H0z"/></clipPath></defs></svg>