<svg width="48" height="40" fill="none" xmlns="http://www.w3.org/2000/svg"><g clip-path="url(#a)"><path fill-rule="evenodd" clip-rule="evenodd" d="M0 38a2 2 0 0 0 2 2h44a2 2 0 0 0 2-2V2A2 2 0 0 0 46.15.005L46 0H2l-.15.005A2 2 0 0 0 0 2zM27 2H2v25h25zM2 29v9h13v-9zm15 9h29v-9H17zm29-11V2H29v25z" fill="#505050"/></g><path fill="#3a6af6" d="M2 29h13v9H2z"/><path fill-rule="evenodd" clip-rule="evenodd" d="M11.563 31.516v-.793h-.63l.11-.328H9.84l-.11.328H7.215l-.137-.328H5.875l.11.328h-.63v.793zM9.183 32.8q.192.027.301-.192l.082-.164h1.996v-.683H9.758l.027-.082h-.93l-.136.273q-.082.192-.274.164h-.41v.684h1.149Zm-2.761-1.012v2.023h-.93V31.79h.93Zm1.367 2.023V31.79h-.848v2.023h.848Zm3.774 0H9.02q-.52.029-.602-.246l-.355-.656h1.093l.082.11q.028.163.246.136h2.079zm0 2.817v-.738h-.247v-1.832H5.52v1.832h-.192v.738h6.234Zm-5.141-.738h.793v-1.04h-.793zm1.613 0v-1.04h.766v1.04zm1.64 0h.794v-1.04h-.793z" fill="#fff" stroke="#505050"/><path fill-rule="evenodd" clip-rule="evenodd" d="M11.563 31.516v-.793h-.63l.11-.328H9.84l-.11.328H7.215l-.137-.328H5.875l.11.328h-.63v.793zM9.183 32.8q.192.027.301-.192l.082-.164h1.996v-.683H9.758l.027-.082h-.93l-.136.273q-.082.192-.274.164h-.41v.684h1.149Zm-2.761-1.012v2.023h-.93V31.79h.93Zm1.367 2.023V31.79h-.848v2.023h.848Zm3.774 0H9.02q-.52.029-.602-.246l-.355-.656h1.093l.082.11q.028.163.246.136h2.079zm0 2.817v-.738h-.247v-1.832H5.52v1.832h-.192v.738h6.234Zm-5.141-.738h.793v-1.04h-.793zm1.613 0v-1.04h.766v1.04zm1.64 0h.794v-1.04h-.793z" fill="#fff"/><path fill="#ccc" d="M2 2h25v25H2z"/><path d="M13.583 4h9.848l-8.37 7.084h6.337l-6.616 5.795h3.291L5 26l4.61-6.508H7.1l4.178-6.405H8.825zM29 2h17v25H29z" fill="#3a6af6"/><path clip-rule="evenodd" d="M34.297 8.797V6.219h2.539v2.578h1.367V6.219h2.461v2.578h1.29V5.32h-3.712v-.39h3.75v-.938h-8.906v.938h3.71v.39h-3.71v3.477h1.21Zm5.312-1.29q.625 0 .664-.546v-.508H39.22q-.078.273-.313.234h-.468v.82zm-3.086-.82v.782H35.43q-.704-.04-.742-.625v-.352h1.132q-.078.235.313.196zm2.774 2.149h1.055v-.899h-.274q-.43.04-.469-.195h-1.172v.508q-.078.625.86.586Zm-2.852-.664q0 .703-.742.664h-1.055v-.899H35q.352.04.313-.195h1.132zm4.57 4.61q.939-.001.938-1.016V9.187h-8.867v3.594h7.93Zm-6.562-2.188h2.383v-.469h-2.383zm6.211 0h-2.46v-.469h2.46zm-6.172 1.289h2.305v-.43h-2.305zm6.055 0h-2.305v-.43h2.422v.313q0 .117-.117.117Zm1.68 12.976h-4.375q-.076.006-.146.006-.98.01-.87-.865v-.781h-3.633v-6.953h3.633v-.274h1.484v.274h3.672v5.898q.04 1.172-.86 1.055H38.32v.39q0 .235.196.196h3.71zm-1.72-5.742H38.32v-1.601h2.188v1.601Zm-5.82 0h2.149v-1.601h-2.148v1.601Zm2.149 2.852h-2.148v-1.602h2.148zm1.484 0h2.032q.117 0 .156-.235v-1.367H38.32z" stroke="#505050"/><path fill-rule="evenodd" clip-rule="evenodd" d="M34.297 8.797V6.219h2.539v2.578h1.367V6.219h2.461v2.578h1.29V5.32h-3.712v-.39h3.75v-.938h-8.906v.938h3.71v.39h-3.71v3.477h1.21Zm5.312-1.29q.625 0 .664-.546v-.508H39.22q-.078.273-.313.234h-.468v.82zm-3.086-.82v.782H35.43q-.704-.04-.742-.625v-.352h1.132q-.078.235.313.196zm2.774 2.149h1.055v-.899h-.274q-.43.04-.469-.195h-1.172v.508q-.078.625.86.586m-2.852-.664q0 .703-.742.664h-1.055v-.899H35q.352.04.313-.195h1.132zm4.57 4.61q.939-.001.938-1.016V9.187h-8.867v3.594h7.93Zm-6.562-2.188h2.383v-.469h-2.383zm6.211 0h-2.46v-.469h2.46zm-6.172 1.289h2.305v-.43h-2.305zm6.055 0h-2.305v-.43h2.422v.313q0 .117-.117.117m1.68 12.976h-4.375q-.076.006-.146.006-.98.01-.87-.865v-.781h-3.633v-6.953h3.633v-.274h1.484v.274h3.672v5.898q.04 1.172-.86 1.055H38.32v.39q0 .235.196.196h3.71zm-1.72-5.742H38.32v-1.601h2.188v1.601Zm-5.82 0h2.149v-1.601h-2.148v1.601Zm2.149 2.852h-2.148v-1.602h2.148zm1.484 0h2.032q.117 0 .156-.235v-1.367H38.32z" fill="#fff"/><path fill="#3a6af6" d="M17 29h29v9H17z"/><path clip-rule="evenodd" d="M24.787 35q-.3.038-.787.038-1.594-.075-1.631-1.763.037-1.687 1.63-1.819 1.614 0 1.613 1.125h-.787q0-.58-.694-.581-.975.038-.975 1.275c0 1.237.325 1.244.975 1.256q.281 0 .656-.056.019 0 .038-.019v-.731h-.675v-.581h1.406v1.744a2.7 2.7 0 0 1-.769.112Zm-4.03 0v-.581h-1.5V31.53h-.732V35h2.231Zm1.143 0v-3.469h-.75V35zm5.081 0v-1.519h1.331V35h.732v-3.469h-.75V32.9H26.98v-1.369h-.731V35h.731Zm4.219-2.888V35h-.75v-2.888h-1.031v-.58h2.812v.58zM33.3 35v-2.869l.019-.019L34.669 35h1.068v-3.469h-.693v2.719l-.02.019-1.312-2.738h-1.106V35zm3.769-3.469V35h-.75v-3.469zM38.362 35v-2.869l.02-.019L39.731 35H40.8v-3.469h-.694v2.719l-.019.019-1.312-2.738h-1.106V35zm5.325 0q-.3.038-.787.038-1.594-.075-1.631-1.763.037-1.687 1.63-1.819 1.614 0 1.613 1.125h-.787q0-.58-.694-.581-.975.038-.975 1.275c0 1.237.325 1.244.975 1.256q.282 0 .656-.056.019 0 .038-.019v-.731h-.675v-.581h1.406v1.744a2.7 2.7 0 0 1-.769.112Z" stroke="#505050"/><path fill-rule="evenodd" clip-rule="evenodd" d="M24.787 35q-.3.038-.787.038-1.594-.075-1.631-1.763.037-1.687 1.63-1.819 1.614 0 1.613 1.125h-.787q0-.58-.694-.581-.975.038-.975 1.275c0 1.237.325 1.244.975 1.256q.281 0 .656-.056.019 0 .038-.019v-.731h-.675v-.581h1.406v1.744a2.7 2.7 0 0 1-.769.112m-4.03 0v-.581h-1.5V31.53h-.732V35h2.231Zm1.143 0v-3.469h-.75V35zm5.081 0v-1.519h1.331V35h.732v-3.469h-.75V32.9H26.98v-1.369h-.731V35h.731Zm4.219-2.888V35h-.75v-2.888h-1.031v-.58h2.812v.58zM33.3 35v-2.869l.019-.019L34.669 35h1.068v-3.469h-.693v2.719l-.02.019-1.312-2.738h-1.106V35zm3.769-3.469V35h-.75v-3.469zM38.362 35v-2.869l.02-.019L39.731 35H40.8v-3.469h-.694v2.719l-.019.019-1.312-2.738h-1.106V35zm5.325 0q-.3.038-.787.038-1.594-.075-1.631-1.763.037-1.687 1.63-1.819 1.614 0 1.613 1.125h-.787q0-.58-.694-.581-.975.038-.975 1.275c0 1.237.325 1.244.975 1.256q.282 0 .656-.056.019 0 .038-.019v-.731h-.675v-.581h1.406v1.744a2.7 2.7 0 0 1-.769.112" fill="#fff"/><defs><clipPath id="a"><path fill="#fff" d="M0 0h48v40H0z"/></clipPath></defs></svg>