<svg width="48" height="40" fill="none" xmlns="http://www.w3.org/2000/svg"><g clip-path="url(#a)"><path fill-rule="evenodd" clip-rule="evenodd" d="M0 38a2 2 0 0 0 2 2h44a2 2 0 0 0 2-2V2A2 2 0 0 0 46.15.005L46 0H2l-.15.005A2 2 0 0 0 0 2zM27 2H2v25h25zM2 29v9h13v-9zm15 9h29v-9H17zm29-11V2H29v25z" fill="#505050"/></g><path fill="#fffd54" d="M2 29h13v9H2z"/><path fill-rule="evenodd" clip-rule="evenodd" d="M7.625 36.273a.96.96 0 0 1-.663.329H5.547v-.711h1.121q.165 0 .328-.164l.137-.164H5.629v-2.817h2.434v-.328H5.52v-.766h.683v-.328H5.52v-.738h.683v-.273h.957v.273h2.762v-.3h.93v.3h.765v.738h-.765v.328h.793v.766H9.047v.328h2.488v1.914q.137 1.04-1.039.903h-.328l.11.136q0 .027.027.055.191.137.3.11h1.04v.683h-1.56q-.436-.056-.573-.219l-.63-.766h-.519zm-.465-4.62h2.735v-.329H7.16zm.875 2.132h-1.45v-.3h1.45zm1.012 0h1.558v-.3H9.047zm1.504 1.067H9.074v-.329h1.559v.22q0 .109-.082.109Zm-3.965 0h1.45v-.329h-1.45z" fill="#fff" stroke="#505050"/><path fill-rule="evenodd" clip-rule="evenodd" d="M7.545 36.273a.96.96 0 0 1-.663.329H5.467v-.711h1.121q.165 0 .329-.164l.136-.164H5.55v-2.817h2.434v-.328H5.44v-.766h.684v-.328H5.44v-.738h.684v-.273h.957v.273h2.761v-.3h.93v.3h.766v.738h-.766v.328h.793v.766H8.967v.328h2.489v1.914q.135 1.04-1.04.903h-.328l.11.136q0 .027.027.055.192.137.3.11h1.04v.683h-1.559q-.437-.056-.574-.219l-.629-.766h-.52zm-.464-4.62h2.734v-.329H7.08v.328Zm.875 2.132h-1.45v-.3h1.45zm1.011 0h1.559v-.3H8.967zm1.504 1.067H8.995v-.329h1.558v.22q0 .109-.082.109m-3.965 0h1.45v-.329h-1.45z" fill="#fff"/><path fill="#ccc" d="M2 2h25v25H2z"/><path fill-rule="evenodd" clip-rule="evenodd" d="M9.509 16.564c-.64.109-1.268.216-1.921.269-1.466-.01-1.805-1.141-1.237-2.163 1.137-2.502 2.612-5.565 4.407-7.707.678-.681 1.585-1.362 2.602-.681 1.356.79 2.702 3.413 3.27 4.544l.668 1.362c.058.143.1.272.139.385.112.335.176.526.43.526.907.12-.11-1.702-.559-2.383l-.011-.009a.1.1 0 0 1-.029-.03.22.22 0 0 1 .04-.3c.339-.461 1.127-1.362 1.695-1.022a8.3 8.3 0 0 1 1.356 1.822 19.2 19.2 0 0 1 1.914 4.545c.12 1.25-1.914 1.591-2.822 1.701-1.807.232-2.86-.139-3.952-.523-1.028-.361-2.089-.735-3.844-.628-.759.057-1.46.176-2.146.293Zm12.256 4.265a.83.83 0 0 1 .508-.17c.2.008.399.073.528.186.27.243.25.616-.05.835-.927.793-2.203 1.271-3.549 1.32-1.774 0-3.539-.267-5.194-.802a11.5 11.5 0 0 0-3.38-.583 8 8 0 0 0-2.592.364 3 3 0 0 0-.748.34.85.85 0 0 1-.967.009c-.299-.22-.329-.592-.06-.835.33-.243.708-.429 1.117-.567a9.6 9.6 0 0 1 3.26-.494c1.326.024 2.632.251 3.859.656 1.495.486 3.1.737 4.715.737 1.413.008 2.493-.943 2.55-.994zm-14.512-.926a.8.8 0 0 1-.533.189.8.8 0 0 1-.548-.202c-.26-.244-.22-.616.08-.827a4 4 0 0 1 1.116-.567 9.6 9.6 0 0 1 3.26-.494c1.326.024 2.632.251 3.859.656 1.505.486 3.1.737 4.715.737 1.336 0 2.373-.842 2.533-.98a.85.85 0 0 1 .997-.073c.309.203.358.576.11.827l-.017.013c-.178.154-1.608 1.388-3.633 1.388-1.774 0-3.539-.276-5.194-.81a11.5 11.5 0 0 0-3.38-.583 8.2 8.2 0 0 0-2.592.364q-.416.134-.773.362" fill="#fffd54"/><path fill="#fffd54" d="M29 2h17v25H29z"/><path fill-rule="evenodd" clip-rule="evenodd" d="M40.172 7.387v-.492h1.984v.492h.067v-.465h2.039v.465h.465v1.847h-.493v.887h.493v1.848h-.558l.096.422h.462v1.738H43.69c-.243.01-.503-.025-.727-.165a.95.95 0 0 1-.426-.626l-.31-1.065-.253 1.047-.003.012c-.076.26-.232.486-.478.631-.23.137-.494.176-.75.166h-1.092v-.209c-.26.167-.568.219-.875.209h-1.203v-.758a1.1 1.1 0 0 1-.262.448c-.273.282-.645.357-1.003.337H30.41V7.414h2.094v4.867h.531v-5.36h2.067v5.36h.504V7.414h1.921l-.174-.465h2.246l.16.438zm-2.527.34V9h.48l-.02-.048-.004-.007zM38.782 10l.203.572c.02.058.037.088.047.101l.018-.001.031-.004h.075a.84.84 0 0 1-.226-.409L38.852 10zm-.28 1.526a1.2 1.2 0 0 1-.464-.632l-.395-1.11v2.58h.62zm.905.47-.22.768a.9.9 0 0 1-.143.343.3.3 0 0 0 .071-.03c.023-.016.06-.048.083-.156l.002-.007.229-.918zm1.473 1.132a.3.3 0 0 0 .103-.025l.009-.007a.1.1 0 0 0 .017-.037l.203-.844h-.011l-.133.547-.01.026a1.2 1.2 0 0 1-.178.34m2.353-2.16V8.235h.028v-.312h-.04v3.047h.012Zm-3.062-1.296h-.374l.061.203h.313zm-.984-1a.9.9 0 0 1-.114-.252l-.173-.47h-.105l.235.628a.4.4 0 0 0 .043.077c.01.014.017.017.017.018h.002s.003.002.007.002a.2.2 0 0 0 .064 0zm-5.153-.75v5.234h.067V7.922zm2.342 5.236a.6.6 0 0 0 .176-.014c.03-.009.039-.018.04-.02.004-.003.059-.064.052-.3v-4.41h-.04v4.203a.7.7 0 0 1-.228.541m-4.873-.002V8.414h-.094v4.742zm10.625-3.922v.887h.094v-.887zm-9.148 5.77h-2.407v1.86h-.228l.63 2.083a.88.88 0 0 0 .367.524.98.98 0 0 0 .595.142h.55l-.424.64h-1.49v1.794h1.813c.408 0 .88-.097 1.132-.504l.608-.912.797.957c.236.299.572.431.935.431h1.715v.055h5.778c.29 0 .6-.07.838-.296.24-.23.318-.54.318-.833v-.922h.11v-1.738h-.11v-1.16h.054v-2.04h-2.488v-.245h-2.039v.246h-2.39v-.082h-2.352v-.191H32.98zm1.312.809h-.313v.011h.313zm1.477 1.011h-.778v.996h.62l.157-.398v-.598Zm-.017 2.79.517.613h1.304v-.204h-.11v-1.738h.138v-.258h-.028v-.211l-.428 1.178-.005.01a1 1 0 0 1-.356.46.88.88 0 0 1-.562.15zm5.255.476h.066v-3.102h-.066zm2.488.234v.538l-.026.077a.7.7 0 0 1-.06.133.3.3 0 0 0 .085-.016.4.4 0 0 0 .013-.11v-.622zm-4.91.75h-.012v-.75h.012zm-2.419-.848h.002Zm-3.105-3.402h-.558v.63h-.055l.118.366h.495z" fill="#505050"/><path d="M33.535 7.422h1.067v5.36h1.34q.163.054.163-.165V7.914h1.04v4.895q.026.902-.82.847H30.91V7.914h1.094v4.867h1.531v-5.36Zm6.617 1.312v-.847h.52v-.492h.984v.492h1.067v-.465h1.039v.465h.465v.847h-.493v1.887h.493v.848h-4.075v-.848h.52V8.734zm-1.586.028-.492-1.313h1.176l.3.82q.055.219.22.192h.246v.71h-.793q-.465.055-.657-.41Zm4.157-.028h-1.094v1.887h1.094zm-4.211 1.996-.438-1.23h1.149l.191.629q.055.246.273.246h.356v.793h-.93q-.437.054-.601-.438m1.64 2.16h.192q.136.029.246-.273l.219-.902h1.039l-.356 1.476q-.137.465-.738.438h-.602zm2.871.329-.437-1.504h1.012l.218.957q.028.273.22.219h.19v.738h-.546q-.575.027-.657-.41m-4.238.41h-.71v-.766h.41q.164.055.218-.218l.328-1.149h1.04l-.383 1.531q-.137.63-.903.602m-7.711 3.324v-1.45h2.406v-.19h1.313v.19h2.352v1.45h-.876v-.629h-4.265v.63zm1.313 3.719 1.175-1.777V16.87h.93v2.024l1.477 1.75q.026.082.218.082H37.2v.793h-1.34q-.355 0-.547-.247l-1.23-1.476-.984 1.476q-.165.274-.711.274h-1.313v-.793h.985q.218 0 .328-.082Zm2.925-1.559v-.793h.52q.083 0 .164-.11l.356-.901h.875l-.547 1.503q-.136.33-.438.301zm-2.46 0h-.93q-.383.027-.465-.3l-.438-1.45h.876l.273.848q.054.137.191.11h.493zm5.113-3.527h2.57v-.246h1.04v.246h2.487v1.039h-.984v-.3H38.95v.3h-.984zm5.031 5.004h-3.91v.273h3.828q.055 0 .082-.082zm-2.488-.766v-.3h-2.543v-.739h2.543v-.273h-2.406v-.739h2.406v-.246h-2.434v-.738h2.434v-.3h1.066v.3h2.434v.738h-2.434v.246h2.434v.739h-2.434v.273h2.543v.738h-2.543v.301h2.434v1.121q0 .63-.656.63h-5.278v-1.75z" fill="#fff"/><path fill="#fffd54" d="M17 29h29v9H17z"/><path fill-rule="evenodd" clip-rule="evenodd" d="M25.516 29.547h.017c.518.018.984.175 1.326.53v-.468h1.625v2.111a1.2 1.2 0 0 0 .009.3q.015.072.026.088a.3.3 0 0 0 .073.003l.034-.003.034.003h.05a.4.4 0 0 0 .027-.094q.021-.104.014-.305l-.001-.012v-2.09h2.924l.295.614v-.615h4.203v.8l.29-.8h1.44l.442 1.26v-1.26h2.861l.295.615v-.615h1.578V33.5H41.37l-.322-.69v.69h-3.461l-.219-.61h-.437l-.219.61h-3.023v-2.406h-.141V33.5h-1.709l-.322-.69v.69h-1.578v-.45l-.067.062c-.328.291-.765.407-1.233.42h-.026c-.475-.013-.918-.127-1.25-.418a1.4 1.4 0 0 1-.292-.358 1.6 1.6 0 0 1-.182.234c-.347.371-.828.529-1.36.541h-.024c-.508-.012-.97-.15-1.317-.477v.446h-4.265v-3.89h1.293l.034-.035.01.034h.555l.258.896.279-.896h1.837v.433c.342-.331.802-.477 1.31-.495zm9.797 1.547v1.689l.611-1.69h-.611Zm-9.945-.044c-.036.052-.091.194-.087.505v.015c-.004.312.052.45.085.498a.06.06 0 0 0 .03.027.3.3 0 0 0 .11.014h.01a.2.2 0 0 0 .096-.015.1.1 0 0 0 .03-.03c.037-.052.092-.194.092-.502 0-.313-.056-.46-.094-.516-.014-.022-.024-.028-.03-.031a.2.2 0 0 0-.094-.015.3.3 0 0 0-.113.018.1.1 0 0 0-.035.032m15.647 2.496.034.002c.379.025.74.132 1.017.382.284.257.412.606.433.98l.03.528h-.166c.142.186.222.412.215.67v.003c-.015.424-.175.805-.522 1.068-.323.246-.747.34-1.2.352h-.02c-.434-.006-.854-.099-1.166-.367-.33-.284-.45-.685-.435-1.102l.016-.484h.212a1.1 1.1 0 0 1-.148-.484h-.127V37.5h-1.626v-2.406h-.14V37.5h-1.709l-.322-.69v.69h-4.938l-.094-.379a4 4 0 0 1-.047-.207v.586h-2.515l-.095-.379a4 4 0 0 1-.046-.207v.586h-1.625v-.42c-.338.307-.782.44-1.27.451h-.023c-.539-.012-1.027-.167-1.378-.539-.348-.366-.488-.867-.5-1.419v-.021q.004-.236.042-.458h-.12V37.5h-1.626v-2.406h-.86v-1.485h3.345v.256c.31-.207.685-.304 1.092-.318h.035c.486.017.928.157 1.263.468v-.406h1.751c.324.01.642.07.905.224v-.224h1.752c.325.01.642.07.906.224v-.224h4.205l.295.615v-.615h4.203v.179c.272-.146.594-.217.935-.24l.033-.002ZM24.603 35.05c-.036.052-.092.194-.087.505v.015c-.005.312.051.45.085.498.012.018.02.023.029.027a.3.3 0 0 0 .11.014h.01c.059 0 .087-.01.096-.015a.1.1 0 0 0 .03-.03c.037-.052.093-.194.093-.502 0-.313-.056-.46-.094-.516-.015-.022-.025-.028-.032-.031A.2.2 0 0 0 24.75 35c-.066 0-.1.012-.112.018a.1.1 0 0 0-.035.032" fill="#505050"/><path d="M23.11 30.516 22.296 33h-.516l-.765-2.484-.016.015V33h-.578v-2.89h1.015l.61 2.109h.015l.657-2.11h.968V33h-.578v-2.484Zm2.406 2.515q-1.36-.03-1.391-1.468.03-1.47 1.39-1.516 1.328.046 1.376 1.515-.048 1.438-1.375 1.47Zm0-2.531q-.75 0-.735 1.063-.015 1.062.735 1.046.718 0 .718-1.047 0-1.062-.718-1.062m3.734-.39h.625v1.812q-.047 1.078-1.25 1.11-1.234-.032-1.266-1.11v-1.813h.625v1.578q-.062.97.641.922.672.047.625-.922zM33.047 33h-.89l-1.126-2.406-.015.015V33h-.578v-2.89h.921l1.094 2.28.016-.015v-2.266h.578zm.281-2.406v-.485h2.344v.485h-.86V33h-.624v-2.406zM36.36 33h-.594l1.047-2.89h.734L38.563 33h-.626l-.218-.61h-1.14zm.374-1.094h.828l-.39-1.234h-.016zm2.735-1.796V33h-.625v-2.89zM42.578 33h-.89l-1.126-2.406-.015.015V33h-.578v-2.89h.922l1.093 2.28.016-.015v-2.266h.578zm-21.781 1.594v-.485h2.344v.485h-.86V37h-.625v-2.406zm3.953 2.437q-1.36-.03-1.39-1.468.03-1.47 1.39-1.516 1.328.046 1.375 1.516-.047 1.437-1.375 1.468m0-2.531q-.75 0-.734 1.063-.016 1.062.734 1.046.72 0 .719-1.047 0-1.062-.719-1.062m2.406.094v.765h.516q.422 0 .437-.406-.015-.36-.437-.36zm0 1.25V37h-.625v-2.89h1.235q.984.03 1 .75-.016.562-.594.703v.015q.422.047.515.64 0 .048.016.094.032.532.156.688h-.672a4 4 0 0 1-.109-.781q-.047-.375-.265-.375zm2.657-1.25v.765h.515q.421 0 .438-.406-.016-.36-.438-.36zm0 1.25V37h-.625v-2.89h1.234q.984.03 1 .75-.016.562-.594.703v.015q.422.047.516.64 0 .048.015.094.031.532.157.688h-.672a4 4 0 0 1-.11-.781q-.046-.375-.265-.375zM31.844 37v-2.89h1.937v.484H32.47v.672h1.218v.484H32.47v.766h1.36V37zm5.078 0h-.89l-1.126-2.406-.015.015V37h-.578v-2.89h.921l1.094 2.28.016-.015v-2.266h.578zm.281-2.406v-.485h2.344v.485h-.86V37h-.624v-2.406zm4.797.344h-.594q-.03-.438-.468-.438-.454.03-.47.375-.03.328.532.406l.063.032q1.031.203 1.015.78-.03.907-1.234.938-1.14-.015-1.11-.953h.625q0 .516.485.531.562-.015.578-.375 0-.281-.547-.406l-.11-.031q-.968-.204-.953-.797.048-.875 1.204-.953.938.063.984.89Z" fill="#fff"/><defs><clipPath id="a"><path fill="#fff" d="M0 0h48v40H0z"/></clipPath></defs></svg>