<svg width="48" height="40" fill="none" xmlns="http://www.w3.org/2000/svg"><g clip-path="url(#a)"><path fill-rule="evenodd" clip-rule="evenodd" d="M0 38a2 2 0 0 0 2 2h44a2 2 0 0 0 2-2V2A2 2 0 0 0 46.15.005L46 0H2l-.15.005A2 2 0 0 0 0 2zM27 2H2v25h25zM2 29v9h13v-9zm15 9h29v-9H17zm29-11V2H29v25z" fill="#505050"/></g><path fill="#3a6af6" d="M2 29h13v9H2z"/><path fill-rule="evenodd" clip-rule="evenodd" d="M11.563 31.516v-.793h-.63l.11-.328H9.84l-.11.328H7.215l-.137-.328H5.875l.11.328h-.63v.793zM9.183 32.8q.192.027.301-.192l.082-.164h1.996v-.683H9.758l.027-.082h-.93l-.136.273q-.082.192-.274.164h-.41v.684h1.149Zm-2.761-1.012v2.023h-.93V31.79h.93Zm1.367 2.023V31.79h-.848v2.023h.848Zm3.774 0H9.02q-.52.029-.602-.246l-.355-.656h1.093l.082.11q.028.163.246.136h2.079zm0 2.817v-.738h-.247v-1.832H5.52v1.832h-.192v.738h6.234Zm-5.141-.738h.793v-1.04h-.793zm1.613 0v-1.04h.766v1.04zm1.64 0h.794v-1.04h-.793z" fill="#fff" stroke="#505050"/><path fill-rule="evenodd" clip-rule="evenodd" d="M11.563 31.516v-.793h-.63l.11-.328H9.84l-.11.328H7.215l-.137-.328H5.875l.11.328h-.63v.793zM9.183 32.8q.192.027.301-.192l.082-.164h1.996v-.683H9.758l.027-.082h-.93l-.136.273q-.082.192-.274.164h-.41v.684h1.149Zm-2.761-1.012v2.023h-.93V31.79h.93Zm1.367 2.023V31.79h-.848v2.023h.848Zm3.774 0H9.02q-.52.029-.602-.246l-.355-.656h1.093l.082.11q.028.163.246.136h2.079zm0 2.817v-.738h-.247v-1.832H5.52v1.832h-.192v.738h6.234Zm-5.141-.738h.793v-1.04h-.793zm1.613 0v-1.04h.766v1.04zm1.64 0h.794v-1.04h-.793z" fill="#fff"/><path fill="#ccc" d="M2 2h25v25H2z"/><path d="M19.966 7.651c-.654-1.917-2.452-3.25-4.414-3.25-2.37 0-4.25 1.75-4.659 4-2.043.417-3.596 2.167-3.596 4.333 0 2.699 2.443 4.78 5.068 4.334-.843 2.748-3.37 6.055-7.718 7.333 5.495.444 13.198-4.798 14.256-8 2.549 0 4.74-1.7 4.74-4.417a4.175 4.175 0 0 0-3.677-4.333" fill="#3a6af6"/><path d="M19.269 15.185c.741 0 1.27-.556 1.27-1.334 0-.333-.105-.555-.317-.778a1.03 1.03 0 0 0 .317-.777c0-.778-.529-1.334-1.27-1.334h-.741c-.318 0-.53.223-.53.556s.212.555.53.555h.741c.106 0 .212.112.212.223 0 .11-.106.222-.212.222h-.741c-.318 0-.53.222-.53.555s.212.556.53.556h.741c.106 0 .212.111.212.222s-.106.222-.212.222h-.741c-.318 0-.53.223-.53.556s.212.556.53.556z" fill="#fff"/><path fill-rule="evenodd" clip-rule="evenodd" d="M17.257 12.518c0 1.667-1.27 3-2.859 3s-2.858-1.333-2.858-3v-1c0-1.667 1.27-3 2.858-3s2.86 1.333 2.86 3v1Zm-4.023-1c0-.778.635-1.333 1.27-1.333.636 0 1.165.555 1.27 1.333v1c0 .778-.529 1.333-1.27 1.333-.74 0-1.27-.666-1.27-1.333z" fill="#fff"/><path fill-rule="evenodd" clip-rule="evenodd" d="M15.975 11.504v1.014c0 .879-.61 1.533-1.47 1.533-.872 0-1.471-.776-1.471-1.533v-1c0-.89.726-1.533 1.47-1.533.766 0 1.354.663 1.469 1.506zm3.97 1.57.132-.139a.84.84 0 0 0 .262-.64c0-.676-.448-1.133-1.07-1.133h-.741a.32.32 0 0 0-.24.091.37.37 0 0 0-.09.265c0 .124.04.21.09.265.052.053.13.09.24.09h.741c.121 0 .224.062.29.132.068.07.122.173.122.29 0 .118-.054.22-.122.291a.4.4 0 0 1-.29.132h-.741a.32.32 0 0 0-.24.09.37.37 0 0 0-.09.265c0 .124.04.211.09.265a.32.32 0 0 0 .24.091h.741a.4.4 0 0 1 .29.131.43.43 0 0 1 .122.291c0 .117-.054.22-.122.291a.4.4 0 0 1-.29.132h-.741a.32.32 0 0 0-.24.09.37.37 0 0 0-.09.265c0 .124.04.21.09.265.052.053.13.09.24.09h.741c.622 0 1.07-.456 1.07-1.133a.84.84 0 0 0-.262-.64l-.131-.138Zm-4.17-1.556c-.106-.778-.635-1.333-1.27-1.333-.636 0-1.271.555-1.271 1.333v1c0 .667.53 1.333 1.27 1.333.741 0 1.27-.555 1.27-1.333zm-1.377 3.8c1.47 0 2.66-1.235 2.66-2.8v-1c0-1.565-1.19-2.8-2.66-2.8-1.468 0-2.658 1.235-2.658 2.8v1c0 1.565 1.19 2.8 2.658 2.8m5.824-2.245c.212.223.317.445.317.778 0 .778-.529 1.334-1.27 1.334h-.741c-.318 0-.53-.223-.53-.556s.212-.556.53-.556h.741c.106 0 .212-.11.212-.222 0-.11-.106-.222-.212-.222h-.741c-.318 0-.53-.222-.53-.556 0-.333.212-.555.53-.555h.741c.106 0 .212-.111.212-.222s-.106-.223-.212-.223h-.741c-.318 0-.53-.222-.53-.555s.212-.556.53-.556h.741c.741 0 1.27.556 1.27 1.334 0 .333-.105.555-.317.777m-5.824 2.445c1.589 0 2.86-1.333 2.86-3v-1c0-1.667-1.271-3-2.86-3s-2.858 1.333-2.858 3v1c0 1.667 1.27 3 2.858 3" fill="#505050"/><path fill="#3a6af6" d="M29 2h17v25H29z"/><path d="M33.281 5.305h1.758l.156-.352h1.72l-.118.352h4.96V9.68q.119.9-.859.78h-7.617V5.306Zm1.25.976v.39h5.977v-.39zm5.977 1.407H34.53v.39h5.977zM34.53 9.055v.39h5.703q.313.039.274-.312v-.078zm2.188 2.03.117-.39h1.523l-.156.39h1.64v-.233h1.524v.234h.586v.898h-3.555l.352.391q.195.313.664.273h2.578v1.094H38.79q-.625.039-.86-.351L37.54 13l-.312.352q-.195.351-1.055.312h-3.008v-.937h2.188q.624 0 .703-.235l.312-.508h-3.242v-.898h3.594Zm-2.655 4.907h1.484l-.156.39h6.64v1.055h-7.304q-.275.274-.86.274h-.742v-1.133h.195q.547 0 .625-.312zm7.578 3.242v4.453q-.039.274.195.235h.078v1.055h-.742q-1.055.156-.938-1.25v-3.438h-7.109v-1.055zm-7.774 1.29h1.68l.156.43h1.836l.195-.43h1.485v.468h.625v.938h-2.461v.43h2.422v1.054h-2.422v.39h2.383v.86h-2.383v.352h-1.524v-.352h-2.773v-.86h2.773v-.39h-2.734V22.36h2.734v-.43h-2.734v-.976h.742zm8.047-2.696v1.055H33.32v-1.055z" fill="#fff"/><path fill-rule="evenodd" clip-rule="evenodd" d="M32.781 5.305a.5.5 0 0 1 .5-.5h1.433l.024-.055a.5.5 0 0 1 .457-.297h1.72a.5.5 0 0 1 .477.352h4.366a.5.5 0 0 1 .5.5v4.344c.036.319 0 .671-.223.944a.5.5 0 0 1 .418.493v.898c0 .117-.04.225-.108.31a.5.5 0 0 1 .147.354v1.094a.5.5 0 0 1-.5.5h-3.188c-.482.027-.95-.1-1.241-.5-.15.177-.352.283-.556.343a2.6 2.6 0 0 1-.846.08h-2.997a.5.5 0 0 1-.5-.5v-.938c0-.139.056-.264.146-.354a.5.5 0 0 1-.185-.389v-.898a.5.5 0 0 1 .207-.405.5.5 0 0 1-.05-.22V5.305Zm3.938 5.78h-3.594v.9h3.242l-.312.507q-.078.234-.703.235h-2.188v.937h3.008q.826.038 1.038-.286l.017-.026.312-.352.39.39q.235.391.86.352h3.203v-1.094h-2.578q-.375.032-.577-.164a.6.6 0 0 1-.087-.109l-.352-.39h3.555v-.9h-.586v-.233h-1.523v.234h-1.64l.155-.39h-1.523zm4.18-.624q.278.033.468-.016a.6.6 0 0 0 .162-.067q.297-.18.229-.698V5.305h-4.961l.117-.352h-1.719l-.156.352h-1.758v5.156h7.617Zm-.391-1.191a.5.5 0 0 0 0-.137v-.078H34.53v.39h5.703q.243.03.274-.175ZM34.53 6.672v-.39h5.977v.39zm0 1.406h5.977v-.39H34.53zm-.928 7.717a.5.5 0 0 1 .46-.303h1.484a.5.5 0 0 1 .488.39h5.996a.5.5 0 0 1 .5.5v1.055a.5.5 0 0 1-.121.327l.004.064v1.055a.5.5 0 0 1-.273.446v4.147a.5.5 0 0 1 .273.446v1.055a.5.5 0 0 1-.5.5h-.708c-.43.055-.868-.032-1.165-.396a.5.5 0 0 1-.275.083H37.86a.5.5 0 0 1-.477.352h-1.524a.5.5 0 0 1-.477-.352h-2.296a.5.5 0 0 1-.5-.5v-.86q.001-.132.062-.24a.5.5 0 0 1-.023-.15V22.36q0-.117.048-.215a.5.5 0 0 1-.048-.214v-.977a.5.5 0 0 1 .126-.332.5.5 0 0 1-.126-.332v-1.055a.5.5 0 0 1 .195-.396v-.73a.5.5 0 0 1-.195-.397v-1.133a.5.5 0 0 1 .5-.5h.195a1 1 0 0 0 .155-.011l.013-.003.115-.269Zm-.478 1.916h.742q.585 0 .86-.273h7.304v-1.055h-6.64l.156-.39h-1.484l-.118.273q-.078.312-.625.312h-.195zm.195.117v1.055h8.594v-1.055zm-.195 2.461h7.11v3.438a2.1 2.1 0 0 0 .031.687q.159.673.906.563h.742v-1.055h-.078a.3.3 0 0 1-.1 0q-.125-.03-.095-.235v-4.453h-8.516zm6.64 3.516h-2.382v-.39h2.422v-1.056h-2.422v-.43h2.46v-.937h-.624v-.469h-1.485l-.195.43h-1.836l-.156-.43h-1.68v.43h-.742v.977h2.734v.43h-2.734v1.054h2.734v.39h-2.773v.86h2.773v.352h1.524v-.352h2.383v-.86Z" fill="#505050"/><path fill="#3a6af6" d="M17 29h29v9H17z"/><path d="M24.576 35.54q-1.7-.04-1.738-1.837.058-1.855 1.738-1.894 1.66.039 1.719 1.894-.06 1.797-1.719 1.836Zm0-3.165q-.918 0-.918 1.328 0 1.308.918 1.309.9 0 .899-1.309 0-1.328-.899-1.328m2.07 3.125v-.605l1.797-2.403h-1.68v-.605h2.618v.605l-1.777 2.403h1.816v.605zm4.864.04q-1.7-.04-1.739-1.837.06-1.855 1.739-1.894 1.66.039 1.718 1.894-.057 1.797-1.718 1.836Zm0-3.165q-.918 0-.918 1.328 0 1.308.918 1.309.898 0 .898-1.309 0-1.328-.898-1.328m5.527 3.125h-1.113l-1.406-3.008-.02.02V35.5h-.723v-3.613h1.153l1.367 2.851.02-.02v-2.831h.722zm.586 0v-3.613h2.422v.605h-1.64v.84h1.523v.605h-1.524v.958h1.7v.605z" fill="#fff"/><path fill-rule="evenodd" clip-rule="evenodd" d="M24.588 36.039h-.023c-.653-.015-1.227-.202-1.636-.635-.405-.428-.576-1.019-.591-1.69v-.027c.022-.686.195-1.287.595-1.723.408-.444.98-.64 1.631-.655h.024c.647.015 1.214.212 1.618.657q.03.032.058.066v-.145a.5.5 0 0 1 .5-.5h2.617a.5.5 0 0 1 .5.5v.062c.406-.434.972-.625 1.617-.64h.023c.648.015 1.215.212 1.619.657q.072.08.135.167v-.246a.5.5 0 0 1 .5-.5h1.153a.5.5 0 0 1 .45.284l.437.909v-.693a.5.5 0 0 1 .5-.5h.722c.11 0 .21.035.293.095a.5.5 0 0 1 .293-.095h2.422a.5.5 0 0 1 .5.5v.605a.5.5 0 0 1-.296.457c.11.092.179.23.179.383v.605a.5.5 0 0 1-.299.458.5.5 0 0 1 .474.5v.605a.5.5 0 0 1-.5.5h-2.48a.5.5 0 0 1-.293-.095.5.5 0 0 1-.293.095h-1.113a.5.5 0 0 1-.453-.288l-.473-1.012v.8a.5.5 0 0 1-.5.5h-.723a.5.5 0 0 1-.5-.5v-.267q-.065.088-.14.17c-.405.432-.97.62-1.613.636h-.024c-.622-.014-1.173-.185-1.578-.577v.038a.5.5 0 0 1-.5.5h-2.774a.5.5 0 0 1-.5-.5v-.042c-.4.393-.944.567-1.558.58Zm2.199-2.167.658-.88h-.681q-.027 0-.053-.003a3.7 3.7 0 0 1 .084.73zm1.656-1.38-1.797 2.403v.605h2.774v-.605h-1.817l1.778-2.403v-.605h-2.617v.605zm.152 1.903h.755a3.5 3.5 0 0 1-.078-.708 4 4 0 0 1 .013-.224l-.69.931Zm5.903-1.883.02-.02 1.406 3.008h1.113v-3.613h-.722v2.832l-.02.02-1.367-2.852h-1.153V35.5h.723zm3.906 2.383v-.958h1.524v-.605h-1.524v-.84h1.64v-.605h-2.421V35.5h2.48v-.605zm-13.828-3.086q-1.68.039-1.738 1.894.039 1.797 1.738 1.836 1.66-.039 1.719-1.836-.06-1.855-1.719-1.894M24.3 32.99c-.069.1-.14.312-.14.712 0 .393.07.599.138.694.044.064.108.115.28.115.16 0 .218-.048.26-.11.067-.097.138-.304.138-.699 0-.402-.071-.615-.14-.716-.044-.065-.102-.112-.259-.112-.168 0-.231.05-.277.116m8.93.712q-.059-1.855-1.72-1.894-1.678.039-1.738 1.894.04 1.797 1.739 1.836 1.66-.039 1.718-1.836Zm-1.996-.712c-.07.1-.141.312-.141.712 0 .393.072.599.139.694.044.064.108.115.279.115.16 0 .218-.048.261-.11.067-.097.137-.304.137-.699 0-.402-.07-.615-.139-.716-.044-.065-.102-.112-.26-.112-.167 0-.23.05-.276.116m-7.575.712q0-1.328.918-1.328.9 0 .899 1.328 0 1.309-.899 1.309-.918 0-.918-1.309m6.934 0q0-1.328.918-1.328.898 0 .898 1.328 0 1.309-.898 1.309-.918 0-.918-1.309" fill="#505050"/><defs><clipPath id="a"><path fill="#fff" d="M0 0h48v40H0z"/></clipPath></defs></svg>