<svg width="48" height="40" fill="none" xmlns="http://www.w3.org/2000/svg"><g clip-path="url(#a)"><path fill-rule="evenodd" clip-rule="evenodd" d="M0 38a2 2 0 0 0 2 2h44a2 2 0 0 0 2-2V2A2 2 0 0 0 46.15.005L46 0H2l-.15.005A2 2 0 0 0 0 2zM27 2H2v25h25zM2 29v9h13v-9zm15 9h29v-9H17zm29-11V2H29v25z" fill="#505050"/></g><path fill="#c93e34" d="M2 29h13v9H2z"/><path fill-rule="evenodd" clip-rule="evenodd" d="M7.926 35.07v-.847H6.668l1.613-2.57h-1.12l-.384.628h-.355l1.203-1.886H6.559l-1.04 1.613v1.039h.876l-.875 1.258v.765zm3.8 1.532v-.875h-1.285V31.27H11.7v-.875H8.281v.875h1.094v4.457H8.254v.875zm-3.8-.903v.82H5.492v-.82z" fill="#fff"/><path d="M7.926 34.223h.5v-.5h-.5zm0 .847v.5h.5v-.5zm-1.258-.847-.424-.266-.48.766h.904zm1.613-2.57.424.265.48-.766h-.904zm-1.12 0v-.5h-.282l-.146.24zm-.384.628v.5h.281l.146-.24zm-.355 0L6 32.012l-.49.77h.912v-.5Zm1.203-1.886.422.268.49-.768h-.912zm-1.066 0v-.5h-.273l-.148.229.42.27Zm-1.04 1.613-.42-.27-.08.123v.147zm0 1.039h-.5v.5h.5zm.876 0 .41.285.546-.785h-.956zm-.875 1.258-.41-.286-.09.129v.157zm0 .765h-.5v.5h.5zm6.207.657h.5v-.5h-.5zm0 .875v.5h.5v-.5zm-1.286-.875h-.5v.5h.5zm0-4.457v-.5h-.5v.5zm1.258 0v.5h.5v-.5zm0-.875h.5v-.5h-.5zm-3.418 0v-.5h-.5v.5zm0 .875h-.5v.5h.5zm1.094 0h.5v-.5h-.5zm0 4.457v.5h.5v-.5zm-1.121 0v-.5h-.5v.5zm0 .875h-.5v.5h.5zm-.328-.082v.5h.5v-.5zm0-.82h.5v-.5h-.5zm-2.434.82h-.5v.5h.5zm0-.82v-.5h-.5v.5zm1.934-1.477v.847h1v-.847zm-.758.5h1.258v-1H6.668zm1.19-3.336-1.614 2.57.847.532 1.614-2.57zm-.698.765h1.121v-1h-1.12v1Zm.044.39.383-.63-.854-.52-.383.63zm-.782.24h.355v-1h-.355zm.781-2.656L6 32.012l.843.538 1.204-1.887zm-.644.768h1.066v-1H6.559zm-.62 1.385 1.04-1.614-.84-.541-1.04 1.613zm.08.768v-1.04h-1v1.04zm.376-.5H5.52v1h.875zM5.93 34.59l.875-1.258-.82-.57-.876 1.257zm.09.48v-.765h-1v.765zm1.906-.5H5.52v1h2.406zm3.3 1.157v.875h1v-.875zm-.785.5h1.286v-1H10.44v1Zm-.5-4.957v4.457h1V31.27zm1.758-.5h-1.258v1H11.7zm-.5-.375v.875h1v-.875zm-2.918.5H11.7v-1H8.281zm.5.375v-.875h-1v.875zm.594-.5H8.281v1h1.094zm.5 4.957V31.27h-1v4.457zm-1.621.5h1.121v-1H8.254zm.5.375v-.875h-1v.875zm2.973-.5H8.254v1h3.473zm-3.301.418v-.82h-1v.82zm-2.934.5h2.434v-1H5.492zm-.5-1.32v.82h1v-.82zm2.934-.5H5.492v1h2.434z" fill="#505050"/><path fill-rule="evenodd" clip-rule="evenodd" d="M7.834 35.07v-.847H6.576l1.613-2.57H7.068l-.383.628H6.33l1.203-1.886H6.466l-1.039 1.613v1.039h.875l-.875 1.258v.765zm3.8 1.532v-.875H10.35V31.27h1.258v-.875H8.19v.875h1.094v4.457H8.162v.875zm-3.8-.903v.82H5.4v-.82z" fill="#fff"/><path fill="#ccc" d="M2 2h25v25H2z"/><path fill-rule="evenodd" clip-rule="evenodd" d="M17.696 9.896h4.746s-.282-3.278-1.885-4.867C18.955 3.439 15.079 3 15.079 3s-2.89.194-4.937 1.063c-2.046.87-3.353 3.103-3.353 3.103s-.624 1.573-.704 2.471.276 2.33.276 2.33H3v3.297h7.242s.348.183 1.177.426 2.777.734 2.777.734 1.523.454 2.196.817 1.124.972 1.124.972.449.688.103 1.725c-.346 1.036-1.535 1.37-1.535 1.37s-2.009.6-3.363.26-1.934-1.63-1.934-1.63-.234-.643-.306-1.082c-.073-.44-.037-1.03-.037-1.03H5.44s-.038 2.083.92 4.136c.96 2.053 4.427 2.898 4.427 2.898s2.707.569 5.404.112 4.512-1.77 4.512-1.77 1.495-1.38 1.912-2.757c.416-1.376.347-2.907.347-2.907s-.123-.74-.26-1.114-.472-.855-.472-.855l3.099-1.974-5.256-3.291v1.614h-5.53s-1.706-.306-2.488-.874c-.783-.568-.813-1.407-.813-1.407s-.091-1.168.493-1.872 1.993-.986 1.993-.986 1.174-.233 2.13.114 1.44 1.213 1.44 1.213.203.504.276.834.122.956.122.956" fill="#505050"/><path d="M13.775 24.972q8.788-.228 9.016-6.848.114-4.222-7.418-5.706l-.457-.229q-4.11-.57-3.88-2.967.114-2.51 3.424-2.74 3.195 0 3.423 3.196h4.337q-.342-6.048-7.19-6.505-8.445.57-8.788 6.962-.114 4.337 6.962 5.82.342.115.799.229 3.995.913 3.995 2.967-.114 2.625-4.223 2.74-3.538-.115-3.538-3.881H5.67q-.228 6.848 8.104 6.962Z" fill="#c93e34"/><path fill-rule="evenodd" clip-rule="evenodd" d="m24.955 13.595-4.68-2.922v1.46H3.194v2.923h17.08v1.46l4.68-2.921Z" fill="#c93e34"/><path fill-rule="evenodd" clip-rule="evenodd" d="M20.647 11.264v1.238H3.549v2.258h17.098v1.185l3.776-2.354z" fill="#505050"/><path fill-rule="evenodd" clip-rule="evenodd" d="M20.833 12.7v-1.088l3.218 1.983-3.218 1.974v-1.022H3.748V12.7z" fill="#fff"/><path fill="#c93e34" d="M29 2h17v25H29z"/><path fill-rule="evenodd" clip-rule="evenodd" d="M38.102 8.563q1.011.081.957-.93V3.395h-1.04v4.128q.028.247-.19.192h-.548v.848zm-3.446-3.856q0 .657.82.547h.876V4.46h-.356q-.329.054-.3-.191l-.11-.793h-1.121l.191 1.23Zm5.715 2.707q-1.011.165-.902-.875l-.164-2.898h1.011l.164 2.843q-.027.219.11.192h.11v.738zm-3.336.027q.6.11.63-.793l.245-2.98h-.984l-.246 2.816q-.055.219-.164.192h-.164v.765zM35.75 7.25q-.957.11-.984-.602l-.274-1.093h1.094l.137.601q0 .3.246.274h.273v.82zm-.766 2.406q.849-.027.985-.547l.355-1.64h-1.011l-.274 1.176q-.027.3-.328.246h-.3v.765zm5.414-.71q-.054.846-.984.71h-3.2v-.765h2.79q.355.054.383-.246l.218-.985h1.067zm-3.472 5.183h1.176v-2.79h-1.176zm-1.094-.738q-.22.52-.71.437h-.74v-.902h.356q.136.027.246-.192l.465-1.12h1.203zm3.309.027q.109.575.656.465h.902v-.93h-.41q-.137.027-.164-.11l-.465-1.202h-1.148zm1.476 3.281v.93H34.41v-.93h2.488v-.875h-2.543v-.957h2.543v-.437h1.176v.437h2.57v.957h-2.57v.875zm-4.375 7.043q.274.027.602-.383l.136-.136.274-.328h.492q.602.82.984.82h1.86v-.574h-1.203q-.165 0-.219-.246h1.422v-.493h-.738v-.246h.738v-.52h-.738v-.19h.218q.356-.056.438-.575v-1.476h-5.989v2.05h.602v.22h-.738v.491h.738v.246h-.738v.492h1.531q-.137.301-.273.274h-1.258v.574zm-.683-3.555h3.882v-.218H35.56v.218Zm3.882.711H35.56v-.218h3.882zm-3.254.766h2.598v-.219h-2.597zm2.598.738h-2.597v-.246h2.597zm-.765 2.543q0 .63-.63.63h-.82V25h.328q.082 0 .082-.055v-1.394h1.04zm-1.45-.246v-.574h-.71q-.22 0-.356-.219h-1.012q.028.083.082.219.274.601.602.574zm3.856-.629q-.3.656-.657.63h-1.394v-.602h.848q.136.027.246-.164h1.011a1 1 0 0 0-.054.136Zm-4.621 1.477q.355 0 .574-.602a.7.7 0 0 1 .082-.164h-.93q-.136.219-.355.219h-.82v.547zm4.73-.547v.602h-1.312q-.438.027-.793-.739h.93l.081.082a.8.8 0 0 0 .301.055z" fill="#fff" stroke="#505050"/><path fill-rule="evenodd" clip-rule="evenodd" d="M38.102 8.563q1.011.081.957-.93V3.395h-1.04v4.128q.028.247-.19.192h-.548v.848zm-3.446-3.856q0 .657.82.547h.876V4.46h-.356q-.329.054-.3-.191l-.11-.793h-1.121l.191 1.23Zm5.715 2.707q-1.011.165-.902-.875l-.164-2.898h1.011l.164 2.843q-.027.219.11.192h.11v.738zm-3.336.027q.6.11.63-.793l.245-2.98h-.984l-.246 2.816q-.055.219-.164.192h-.164v.765zM35.75 7.25q-.957.11-.984-.602l-.274-1.093h1.094l.137.601q0 .3.246.274h.273v.82zm-.766 2.406q.849-.027.985-.547l.355-1.64h-1.011l-.274 1.176q-.027.3-.328.246h-.3v.765zm5.414-.71q-.054.846-.984.71h-3.2v-.765h2.79q.355.054.383-.246l.218-.985h1.067zm-3.472 5.183h1.176v-2.79h-1.176zm-1.094-.738q-.22.52-.71.437h-.74v-.902h.356q.136.027.246-.192l.465-1.12h1.203zm3.309.027q.109.575.656.465h.902v-.93h-.41q-.137.027-.164-.11l-.465-1.202h-1.148zm1.476 3.281v.93H34.41v-.93h2.488v-.875h-2.543v-.957h2.543v-.437h1.176v.437h2.57v.957h-2.57v.875zm-4.375 7.043q.274.027.602-.383l.136-.136.274-.328h.492q.602.82.984.82h1.86v-.574h-1.203q-.165 0-.219-.246h1.422v-.493h-.738v-.246h.738v-.52h-.738v-.19h.218q.356-.056.438-.575v-1.476h-5.989v2.05h.602v.22h-.738v.491h.738v.246h-.738v.492h1.531q-.137.301-.273.274h-1.258v.574zm-.683-3.555h3.882v-.218H35.56v.218Zm3.882.711H35.56v-.218h3.882zm-3.254.766h2.598v-.219h-2.597zm2.598.738h-2.597v-.246h2.597zm-.765 2.543q0 .63-.63.63h-.82V25h.328q.082 0 .082-.055v-1.394h1.04zm-1.45-.246v-.574h-.71q-.22 0-.356-.219h-1.012q.028.083.082.219.274.601.602.574zm3.856-.629q-.3.656-.657.63h-1.394v-.602h.848q.136.027.246-.164h1.011a1 1 0 0 0-.054.136m-4.621 1.477q.355 0 .574-.602a.7.7 0 0 1 .082-.164h-.93q-.136.219-.355.219h-.82v.547zm4.73-.547v.602h-1.312q-.438.027-.793-.739h.93l.081.082a.8.8 0 0 0 .301.055z" fill="#fff"/><path fill="#c93e34" d="M17 29h29v9H17z"/><path fill-rule="evenodd" clip-rule="evenodd" d="M19.156 35.031q1.203-.03 1.235-.937.016-.578-1.016-.782l-.063-.03q-.563-.079-.53-.407.015-.344.468-.375.438 0 .469.438h.593q-.046-.83-.984-.891-1.156.078-1.203.953-.016.594.953.797.047.015.11.031.546.125.546.406-.015.36-.578.375-.484-.015-.484-.53h-.625q-.032.937 1.11.952ZM21.172 35l.219-.61h1.14l.219.61h.625l-1.016-2.89h-.734L20.578 35zm.375-1.094h.828l-.39-1.234h-.016zM24.25 35v-2.39l.016-.016L25.39 35h.89v-2.89h-.578v2.265l-.015.016-1.094-2.282h-.922V35h.578Zm4.969-1.438Q29.203 35 27.766 35h-.985v-2.89h.985q1.437.015 1.453 1.453Zm-1.5.954h-.328v-1.922h.328q.86-.015.843.968.016.985-.843.954Zm5.297-.422q-.032.906-1.235.937-1.14-.015-1.11-.953h.626q0 .516.484.531.563-.015.578-.375 0-.281-.547-.406l-.109-.031q-.969-.204-.953-.797.046-.875 1.203-.953.937.063.985.89h-.594q-.031-.437-.469-.437-.453.03-.469.375-.03.328.532.406l.062.032q1.032.203 1.016.78Zm1.672-1.5h.859v-.485h-2.344v.485h.86V35h.624v-2.406Zm1.765 1.25V35h-.625v-2.89h1.234q.985.03 1 .75-.015.562-.593.703v.015q.422.047.515.64 0 .048.016.094.03.532.156.688h-.672a4 4 0 0 1-.109-.781q-.047-.375-.266-.375zm.516-.485h-.516v-.765h.516q.422 0 .437.36-.015.405-.437.405Zm4.218.203q-.047 1.438-1.374 1.47-1.36-.032-1.391-1.47.03-1.468 1.39-1.515 1.329.046 1.376 1.516Zm-1.374 1.047q-.75.016-.735-1.047-.015-1.062.734-1.062.72 0 .72 1.063 0 1.046-.72 1.046Zm2.359-2.078V35h-.578v-2.89h1.015l.61 2.109h.015l.657-2.11h.968V35h-.578v-2.484L43.47 35h-.516l-.766-2.484-.015.015Z" fill="#fff" stroke="#505050"/><path fill-rule="evenodd" clip-rule="evenodd" d="M19.156 35.031q1.203-.03 1.235-.937.016-.578-1.016-.782l-.063-.03q-.563-.079-.53-.407.015-.344.468-.375.438 0 .469.438h.593q-.046-.83-.984-.891-1.156.078-1.203.953-.016.594.953.797.047.015.11.031.546.125.546.406-.015.36-.578.375-.484-.015-.484-.53h-.625q-.032.937 1.11.952ZM21.172 35l.219-.61h1.14l.219.61h.625l-1.016-2.89h-.734L20.578 35zm.375-1.094h.828l-.39-1.234h-.016zM24.25 35v-2.39l.016-.016L25.39 35h.89v-2.89h-.578v2.265l-.015.016-1.094-2.282h-.922V35h.578Zm4.969-1.438Q29.203 35 27.766 35h-.985v-2.89h.985q1.437.015 1.453 1.453Zm-1.5.954h-.328v-1.922h.328q.86-.015.843.968.016.985-.843.954m5.297-.422q-.032.906-1.235.937-1.14-.015-1.11-.953h.626q0 .516.484.531.563-.015.578-.375 0-.281-.547-.406l-.109-.031q-.969-.204-.953-.797.046-.875 1.203-.953.937.063.985.89h-.594q-.031-.437-.469-.437-.453.03-.469.375-.03.328.532.406l.062.032q1.032.203 1.016.78Zm1.672-1.5h.859v-.485h-2.344v.485h.86V35h.624v-2.406Zm1.765 1.25V35h-.625v-2.89h1.234q.985.03 1 .75-.015.562-.593.703v.015q.422.047.515.64 0 .048.016.094.03.532.156.688h-.672a4 4 0 0 1-.109-.781q-.047-.375-.266-.375zm.516-.485h-.516v-.765h.516q.422 0 .437.36-.015.405-.437.405m4.218.203q-.047 1.438-1.374 1.47-1.36-.032-1.391-1.47.03-1.468 1.39-1.515 1.329.046 1.376 1.516Zm-1.374 1.047q-.75.016-.735-1.047-.015-1.062.734-1.062.72 0 .72 1.063 0 1.046-.72 1.046Zm2.359-2.078V35h-.578v-2.89h1.015l.61 2.109h.015l.657-2.11h.968V35h-.578v-2.484L43.47 35h-.516l-.766-2.484-.015.015Z" fill="#fff"/><defs><clipPath id="a"><path fill="#fff" d="M0 0h48v40H0z"/></clipPath></defs></svg>