<svg width="48" height="40" fill="none" xmlns="http://www.w3.org/2000/svg"><g clip-path="url(#a)"><path fill-rule="evenodd" clip-rule="evenodd" d="M0 38a2 2 0 0 0 2 2h44a2 2 0 0 0 2-2V2A2 2 0 0 0 46.15.005L46 0H2l-.15.005A2 2 0 0 0 0 2zM27 2H2v25h25zM2 29v9h13v-9zm15 9h29v-9H17zm29-11V2H29v25z" fill="#505050"/></g><path fill="#c93e34" d="M2 29h13v9H2z"/><path fill-rule="evenodd" clip-rule="evenodd" d="M7.926 35.07v-.847H6.668l1.613-2.57h-1.12l-.384.628h-.355l1.203-1.886H6.559l-1.04 1.613v1.039h.876l-.875 1.258v.765zm3.8 1.532v-.875h-1.285V31.27H11.7v-.875H8.281v.875h1.094v4.457H8.254v.875zm-3.8-.903v.82H5.492v-.82z" fill="#fff"/><path d="M7.926 34.223h.5v-.5h-.5zm0 .847v.5h.5v-.5zm-1.258-.847-.424-.266-.48.766h.904zm1.613-2.57.424.265.48-.766h-.904zm-1.12 0v-.5h-.282l-.146.24zm-.384.628v.5h.281l.146-.24zm-.355 0L6 32.012l-.49.77h.912v-.5Zm1.203-1.886.422.268.49-.768h-.912zm-1.066 0v-.5h-.273l-.148.229.42.27Zm-1.04 1.613-.42-.27-.08.123v.147zm0 1.039h-.5v.5h.5zm.876 0 .41.285.546-.785h-.956zm-.875 1.258-.41-.286-.09.129v.157zm0 .765h-.5v.5h.5zm6.207.657h.5v-.5h-.5zm0 .875v.5h.5v-.5zm-1.286-.875h-.5v.5h.5zm0-4.457v-.5h-.5v.5zm1.258 0v.5h.5v-.5zm0-.875h.5v-.5h-.5zm-3.418 0v-.5h-.5v.5zm0 .875h-.5v.5h.5zm1.094 0h.5v-.5h-.5zm0 4.457v.5h.5v-.5zm-1.121 0v-.5h-.5v.5zm0 .875h-.5v.5h.5zm-.328-.082v.5h.5v-.5zm0-.82h.5v-.5h-.5zm-2.434.82h-.5v.5h.5zm0-.82v-.5h-.5v.5zm1.934-1.477v.847h1v-.847zm-.758.5h1.258v-1H6.668zm1.19-3.336-1.614 2.57.847.532 1.614-2.57zm-.698.765h1.121v-1h-1.12v1Zm.044.39.383-.63-.854-.52-.383.63zm-.782.24h.355v-1h-.355zm.781-2.656L6 32.012l.843.538 1.204-1.887zm-.644.768h1.066v-1H6.559zm-.62 1.385 1.04-1.614-.84-.541-1.04 1.613zm.08.768v-1.04h-1v1.04zm.376-.5H5.52v1h.875zM5.93 34.59l.875-1.258-.82-.57-.876 1.257zm.09.48v-.765h-1v.765zm1.906-.5H5.52v1h2.406zm3.3 1.157v.875h1v-.875zm-.785.5h1.286v-1H10.44v1Zm-.5-4.957v4.457h1V31.27zm1.758-.5h-1.258v1H11.7zm-.5-.375v.875h1v-.875zm-2.918.5H11.7v-1H8.281zm.5.375v-.875h-1v.875zm.594-.5H8.281v1h1.094zm.5 4.957V31.27h-1v4.457zm-1.621.5h1.121v-1H8.254zm.5.375v-.875h-1v.875zm2.973-.5H8.254v1h3.473zm-3.301.418v-.82h-1v.82zm-2.934.5h2.434v-1H5.492zm-.5-1.32v.82h1v-.82zm2.934-.5H5.492v1h2.434z" fill="#505050"/><path fill-rule="evenodd" clip-rule="evenodd" d="M7.833 35.07v-.847H6.577l1.613-2.57H7.068l-.383.628H6.33l1.203-1.886H6.466l-1.039 1.613v1.039h.875l-.875 1.258v.765h2.407Zm3.801 1.532v-.875H10.35V31.27h1.258v-.875H8.189v.875h1.094v4.457H8.162v.875zm-3.8-.903v.82H5.4v-.82z" fill="#fff"/><path fill="#ccc" d="M2 2h25v25H2z"/><path fill-rule="evenodd" clip-rule="evenodd" d="M20.713 19.753c.46.312 1.007.52 1.59.605h.014c.181 0 .355.06.483.168.128.107.2.252.2.403a.53.53 0 0 1-.2.404.76.76 0 0 1-.483.167 5 5 0 0 1-2.334-.788 3.6 3.6 0 0 0-1.454-.57 4.2 4.2 0 0 0-1.488.428 5.2 5.2 0 0 1-2.048.53 5.2 5.2 0 0 1-2.048-.53 4.2 4.2 0 0 0-1.474-.429 3.6 3.6 0 0 0-1.454.571 5 5 0 0 1-2.334.788.76.76 0 0 1-.483-.167.53.53 0 0 1-.2-.404c0-.151.072-.296.2-.403a.76.76 0 0 1 .483-.168 3.8 3.8 0 0 0 1.59-.605A4.65 4.65 0 0 1 11.471 19a5.3 5.3 0 0 1 2.096.57c.435.221.921.361 1.426.412.505-.05.992-.19 1.427-.411A5.3 5.3 0 0 1 18.515 19c.805.068 1.568.33 2.198.753m0 2.5c.46.312 1.007.52 1.59.605h.014c.181 0 .355.06.483.168.128.107.2.252.2.403a.53.53 0 0 1-.2.404.76.76 0 0 1-.483.167 5 5 0 0 1-2.334-.788 3.6 3.6 0 0 0-1.454-.57 4.2 4.2 0 0 0-1.488.428 5.2 5.2 0 0 1-2.048.53 5.2 5.2 0 0 1-2.048-.53 4.2 4.2 0 0 0-1.474-.429 3.6 3.6 0 0 0-1.454.571A5 5 0 0 1 7.683 24a.76.76 0 0 1-.483-.167.53.53 0 0 1-.2-.404c0-.151.072-.296.2-.403a.76.76 0 0 1 .483-.168 3.8 3.8 0 0 0 1.59-.605 4.65 4.65 0 0 1 2.198-.753 5.3 5.3 0 0 1 2.096.57c.435.221.921.361 1.426.412.505-.05.992-.19 1.427-.411a5.3 5.3 0 0 1 2.095-.571c.805.068 1.568.33 2.198.753" fill="#c93e34"/><path d="M14.588 5H21l-5.449 4.508h4.126l-4.308 3.688h2.143L9 19l3.002-4.142h-1.635l2.72-4.076H11.49zM29 2h17v25H29z" fill="#c93e34"/><path d="M32.715 6.914h.164q.356.027.547-.3l.11-.247h1.175l-.11.274h2.516v.793H34q-.383.41-.738.382h-.547zm-.028 2.625v.191h.22V7.871h4.1v1.86h.165v.82h-.164v1.367q.055.738-.63.684h-3.472v-2.024h-.246v-.273h-.656q-.657.027-.766-.438l-.328-1.394h1.04l.218.765q.083.329.273.301zm3.336-.957h-2.16v1.176h.793l-.465-.793.028-.055h1.066l.52.848h.218zm0 3.09v-1.094h-2.16v1.34h.848l-.547-1.012v-.054h1.066l.602 1.011q.192-.027.191-.191m-3.39-3.445h-.684q-.656 0-.765-.657l-.22-1.148h1.067l.164.793q.055.219.274.219h.164zm-.301 3.91q-.082.519-.656.492h-.766v-.711h.3q.247 0 .274-.246l.192-1.067h.984zm7.438-.383V6.34h1.039v1.394h3.39v.875h-3.39v3.145h3.39v.82h-6.261v-.82zm-3.31 9.766h-5.55v-2.49h6.207v1.805q0 .684-.656.684Zm-5.55-5.47v-.655h6.235v.656h-2.626v.273h2.598v2.434h-.902v-1.805h-1.723v1.805h-.957v-1.805h-1.777v1.805h-.848v-2.434h2.598v-.273zm3.883 1.778V17.2h1.094v.63h-1.094Zm-2.68.875v-.601h1.094v.601zm2.68 0v-.601h1.094v.601zm-2.68-.875V17.2h1.094v.63h-1.094Zm2.38 2.188h1.722v-.328h-1.723zm-2.626-.328v.328h1.668v-.328zm4.348.93h-1.696v.3h1.614a.18.18 0 0 0 .082-.082v-.219Zm-2.707 0h-1.614v.3h1.614zm7.027-5.059v-.192h1.04v.192h2.57v4.129q.027.792-.602.738h-1.969v.3q0 .11.137.11h2.598v.766h-3.063q-.794.081-.71-.602v-.574h-2.544v-4.867zm2.57.875h-1.53v1.12h1.53zm-2.57 1.12v-1.12h-1.504v1.12zm0 1.997V18.43h-1.504v1.12zm1.04-1.121v1.12h1.421q.11 0 .11-.163v-.957h-1.532Z" fill="#fff"/><path fill-rule="evenodd" clip-rule="evenodd" d="M32.546 6.443a.5.5 0 0 1 .169-.029h.164q.02 0 .038.002a.1.1 0 0 0 .036-.002.1.1 0 0 0 .03-.034l.095-.216a.5.5 0 0 1 .457-.297h1.176a.5.5 0 0 1 .446.274h1.96a.5.5 0 0 1 .5.5v.793a.5.5 0 0 1-.121.326.5.5 0 0 1 .012.111v1.49c.1.09.164.223.164.37v.82a.5.5 0 0 1-.164.37v.577a.5.5 0 0 1 .43-.244h1.331V6.34a.5.5 0 0 1 .5-.5h1.04a.5.5 0 0 1 .5.5v.894h2.89a.5.5 0 0 1 .5.5v.875a.5.5 0 0 1-.5.5h-2.89v2.145h2.89a.5.5 0 0 1 .5.5v.82a.5.5 0 0 1-.5.5h-6.261a.5.5 0 0 1-.5-.5v-.094a.9.9 0 0 1-.192.316c-.245.267-.585.326-.885.306h-3.455a.5.5 0 0 1-.42-.23l-.059.047c-.23.173-.504.22-.762.21h-.755a.5.5 0 0 1-.5-.5v-.711a.5.5 0 0 1 .5-.5h.112l.147-.817a1 1 0 0 1-.417-.62l-.328-1.394a.5.5 0 0 1 .36-.598 1.6 1.6 0 0 1-.093-.33l-.217-1.144a.5.5 0 0 1 .49-.593h1.067a.5.5 0 0 1 .49.399zm-.35.772-.165-.793h-1.066l.219 1.148q.04.249.16.403.197.254.605.254h.684v-.793h-.164q-.188 0-.254-.16a.4.4 0 0 1-.02-.06Zm.519.601h.547q.355.028.738-.382h3.117V6.64h-2.515l.109-.274h-1.176l-.11.246q-.16.278-.44.301a1 1 0 0 1-.106 0h-.164zm.191.055v1.86h-.218v-.192h-.247a.2.2 0 0 1-.056 0q-.147-.023-.217-.3l-.219-.766H30.91l.328 1.394q.046.196.19.304.1.077.248.11.142.03.328.024h.656v.273h.246v2.024h3.473q.683.054.629-.684v-1.367h.164v-.82h-.164V7.87h-4.102Zm2.899 1.887h.218V8.582h-2.16v1.176h.793l-.465-.793.028-.055h1.066zm.027 2.105q.132-.019.173-.103a.2.2 0 0 0 .018-.088v-1.094h-2.16v1.34h.848l-.547-1.012v-.054h1.066zm-3.172-1.258h-.984l-.192 1.067q-.027.246-.273.246h-.3v.71h.765q.574.029.656-.491zm8.149 1.149V8.609h3.39v-.875h-3.39V6.34h-1.04v5.414h-1.831v.82h6.261v-.82zM30.91 22.02a.5.5 0 0 1-.5-.5v-2.49q0-.071.02-.136a.5.5 0 0 1-.02-.137v-2.434q0-.07.02-.137a.5.5 0 0 1-.02-.136v-.656a.5.5 0 0 1 .5-.5h6.235a.5.5 0 0 1 .471.334.5.5 0 0 1 .376-.17h2.15a.5.5 0 0 1 .393-.192h1.04a.5.5 0 0 1 .393.192h2.176a.5.5 0 0 1 .5.5v4.12c.008.234-.018.484-.122.705a.5.5 0 0 1 .287.452v.766a.5.5 0 0 1-.5.5H41.27c-.303.027-.653-.002-.921-.228-.29-.246-.344-.598-.314-.901v-.047h-2.043a.5.5 0 0 1-.375-.17v.08c0 .3-.072.618-.303.859-.236.245-.552.325-.853.325h-5.55Zm6.235-6.625H30.91v.656h2.598v.273H30.91v2.434h.848v-1.805h1.777v1.805h.957v-1.805h1.723v1.805h.902v-2.434H34.52v-.273h2.624zM30.91 19.03v2.489h5.55q.657 0 .657-.684V19.03zm.957.657v.328h1.668v-.328zm.027.93v.3h1.614v-.3zm4.32-.93h-1.722v.328h1.723zm-1.694.93v.3h1.613a.18.18 0 0 0 .082-.082v-.219h-1.696Zm-1.313-1.915v-.601h-1.094v.601zm0-.875V17.2h-1.094v.63h1.094Zm2.68.875v-.601h-1.094v.601zm0-.875V17.2h-1.094v.63h1.094Zm4.648 2.598V21q-.081.683.711.602h3.063v-.766H41.71q-.137 0-.137-.11v-.3h1.969q.25.021.395-.09.224-.17.206-.648v-4.13h-2.57v-.19h-1.039v.19h-2.543v4.868h2.543Zm1.04-3.992h1.53v1.12h-1.53zm.5.62h.53v-.12h-.53zm-1.54-.62v1.12h-1.504v-1.12zm-1.004.5v.12h.504v-.12zm1.004 1.496v1.12h-1.504v-1.12zm-1.004.5v.12h.504v-.12zm2.043.62v-1.12h1.532v.957q0 .165-.11.164h-1.422Zm1.032-.62h-.532v.12h.532z" fill="#505050"/><path fill="#c93e34" d="M17 29h29v9H17z"/><path d="M29.922 30.938h-.594q-.015-.438-.469-.438-.453.03-.468.375 0 .282.453.39a.2.2 0 0 0 .078.016q.015 0 .078.016 1.015.202 1 .797-.016.906-1.234.937-1.125 0-1.11-.953h.625q0 .5.485.531.562-.015.578-.375 0-.297-.547-.406a.5.5 0 0 1-.11-.031q-.953-.22-.953-.797.048-.891 1.203-.953.938.047.985.89ZM30.406 33v-2.89h1.938v.484H31.03v.672h1.219v.484H31.03v.766h1.36V33zm2.844 0h-.594l1.047-2.89h.734L35.453 33h-.625l-.219-.61h-1.14zm.375-1.094h.828l-.39-1.234h-.016zM22.547 37h-1.86v-2.89h.61v2.406h1.25zm.953-2.89V37h-.625v-2.89zm2.438 1.828h-.563v-.485h1.172v1.453a2.2 2.2 0 0 1-.64.094 6 6 0 0 1-.657.031q-1.327-.078-1.36-1.468.032-1.422 1.36-1.516 1.359 0 1.344.937h-.657q0-.484-.578-.484-.796.016-.812 1.063.015 1.03.812 1.046.235 0 .547-.062-.016.015.032 0zM27.734 37h-.609v-2.89h.61v1.14h1.093v-1.14h.625V37h-.61v-1.266h-1.109zm2.032-2.406v-.485h2.343v.485h-.859V37h-.625v-2.406zM35.031 37h-.89l-1.125-2.406-.016.015V37h-.578v-2.89h.922l1.093 2.28.016-.015v-2.266h.578zm1.109-2.89V37h-.624v-2.89zM39.25 37h-.89l-1.126-2.406-.015.015V37h-.578v-2.89h.922l1.093 2.28.016-.015v-2.266h.578zm2.438-1.062h-.563v-.485h1.172v1.453a2.2 2.2 0 0 1-.64.094 6 6 0 0 1-.657.031q-1.328-.078-1.36-1.468.032-1.422 1.36-1.516 1.359 0 1.344.937h-.657q0-.484-.578-.484-.796.016-.812 1.063.015 1.03.812 1.046.235 0 .547-.062-.015.015.032 0z" fill="#fff"/><path fill-rule="evenodd" clip-rule="evenodd" d="M30.406 33h1.985v-.484h-1.36v-.766h1.219v-.484h-1.219v-.672h1.313v-.485h-1.938zm2.255-2.02a.5.5 0 0 0 .183-.386v-.485a.5.5 0 0 0-.5-.5h-1.938a.5.5 0 0 0-.45.285c-.275-.232-.627-.328-.994-.346h-.052c-.439.023-.849.128-1.162.377-.332.262-.491.634-.513 1.049V31c0 .238.07.45.195.632a.5.5 0 0 0-.274.438c-.006.418.114.819.444 1.102.313.27.733.36 1.166.36h.012c.44-.012.852-.1 1.172-.326a.5.5 0 0 0 .456.294h1.985a.5.5 0 0 0 .133-.018.5.5 0 0 0 .132.018h.594a.5.5 0 0 0 .47-.331l.1-.278h.438l.1.278a.5.5 0 0 0 .47.331h.625a.5.5 0 0 0 .472-.666l-1.016-2.89a.5.5 0 0 0-.471-.335h-.735a.5.5 0 0 0-.47.33l-.483 1.334v-.007a.5.5 0 0 0-.09-.286ZM32.656 33h.594l.219-.61h1.14l.22.61h.624l-1.016-2.89h-.734zm.969-1.094h.828l-.39-1.234h-.016zm-3.719.609a1 1 0 0 0 .094-.421.57.57 0 0 0-.094-.338q-.127-.192-.427-.319a2 2 0 0 0-.15-.056 3 3 0 0 0-.407-.1.3.3 0 0 1-.078-.015q-.453-.11-.453-.391a.35.35 0 0 1 .088-.231q.116-.126.38-.144a1 1 0 0 1 .103.006.44.44 0 0 1 .22.085q.113.09.14.267l.006.08h.594a1 1 0 0 0-.016-.146.9.9 0 0 0-.13-.355.8.8 0 0 0-.36-.292 1.4 1.4 0 0 0-.479-.098l-.078.005-.03.003a1.6 1.6 0 0 0-.637.174q-.43.235-.458.771 0 .358.366.578.081.049.181.092a2.5 2.5 0 0 0 .417.131 1 1 0 0 0 .099.027q.547.11.547.406a.33.33 0 0 1-.081.213q-.135.153-.497.162h-.011a.55.55 0 0 1-.313-.11.45.45 0 0 1-.152-.293 1 1 0 0 1-.009-.128h-.625v.052q.005.262.1.448.14.27.468.378a1.7 1.7 0 0 0 .542.075h.011q.477-.015.767-.163a.8.8 0 0 0 .362-.353m-7.195 4.957a.5.5 0 0 1-.164.028h-1.86a.5.5 0 0 1-.5-.5v-2.89a.5.5 0 0 1 .5-.5h.61a.5.5 0 0 1 .5.5v1.906h.578v-1.907a.5.5 0 0 1 .5-.5h.625a.5.5 0 0 1 .492.411c.326-.295.751-.439 1.223-.472l.035-.001c.494 0 .955.082 1.302.324q.052.037.1.077a.5.5 0 0 1 .473-.339h.61a.5.5 0 0 1 .5.5v.641h.093v-.64a.5.5 0 0 1 .5-.5h.625a.5.5 0 0 1 .156.024.5.5 0 0 1 .157-.025h2.343q.083.001.157.025a.5.5 0 0 1 .156-.025h.922a.5.5 0 0 1 .45.284l.16.33v-.114a.5.5 0 0 1 .5-.5h.577q.133.002.242.063a.5.5 0 0 1 .243-.063h.625c.09 0 .176.025.25.067a.5.5 0 0 1 .25-.067h.922a.5.5 0 0 1 .45.284l.159.33v-.114a.5.5 0 0 1 .5-.5h.578a.5.5 0 0 1 .492.411c.326-.295.751-.439 1.223-.472l.035-.001c.494 0 .955.082 1.302.324.382.267.55.67.542 1.122a.5.5 0 0 1-.085.27.5.5 0 0 1 .038.19v1.453a.5.5 0 0 1-.356.48 2.7 2.7 0 0 1-.754.114 6 6 0 0 1-.716.03c-.471-.027-.899-.163-1.227-.453a.5.5 0 0 1-.494.423h-.89a.5.5 0 0 1-.454-.288l-.187-.402V37a.5.5 0 0 1-.5.5h-.578a.5.5 0 0 1-.25-.067.5.5 0 0 1-.25.067h-.625a.5.5 0 0 1-.243-.063.5.5 0 0 1-.242.063h-.89a.5.5 0 0 1-.453-.288l-.188-.402V37a.5.5 0 0 1-.5.5h-.578a.5.5 0 0 1-.5-.5v-1.906h-.172V37a.5.5 0 0 1-.5.5h-.625a.5.5 0 0 1-.5-.5v-1.906h-.172V37a.5.5 0 0 1-.5.5h-.61a.5.5 0 0 1-.5-.5v-.766h-.109V37a.5.5 0 0 1-.5.5h-.609a.5.5 0 0 1-.354-.147l-.08.032a2.7 2.7 0 0 1-.753.115 6 6 0 0 1-.717.03c-.471-.027-.899-.163-1.227-.453a.5.5 0 0 1-.494.423h-.625a.5.5 0 0 1-.164-.028m.789-3.363h-.625V37h.625zm.5 2.103q.173.477.618.677a1.8 1.8 0 0 0 .733.142h.008q.2-.003.357-.013.105-.007.19-.018a2.3 2.3 0 0 0 .64-.094v-1.453h-1.171v.484h.563v.61l-.03.008h-.002q-.007 0 0-.008a3 3 0 0 1-.547.063 1 1 0 0 1-.109-.008.74.74 0 0 1-.382-.15q-.312-.248-.321-.89.011-.725.397-.955a.8.8 0 0 1 .338-.103l.077-.004q.265 0 .409.102.159.112.169.351v.031h.657v-.042a.84.84 0 0 0-.128-.458q-.155-.234-.492-.343a2.2 2.2 0 0 0-.615-.093h-.009l-.1-.001q-.285.02-.512.102a1.17 1.17 0 0 0-.738.748q-.1.285-.11.666.01.37.11.65Zm3.734-.478h1.11V37h.61v-2.89h-.626v1.14h-1.094v-1.14h-.609V37h.61zM30.625 37h.625v-2.406h.86v-.485h-2.344v.485h.859zm1.797 0H33v-2.39l.016-.016L34.14 37h.89v-2.89h-.578v2.265l-.016.016-1.093-2.282h-.922zm4.797-2.39.015-.016L38.36 37h.891v-2.89h-.578v2.265l-.016.016-1.093-2.282h-.922V37h.578zm2.531 1.602q.173.476.618.677a1.8 1.8 0 0 0 .733.142h.008q.2-.003.357-.013.105-.007.19-.018a2.3 2.3 0 0 0 .64-.094v-1.453h-1.171v.484h.563v.61l-.03.008h-.002q-.008 0 0-.008a3 3 0 0 1-.547.063 1 1 0 0 1-.109-.008.74.74 0 0 1-.382-.15q-.312-.248-.321-.89.011-.725.397-.955a.8.8 0 0 1 .338-.103l.077-.004q.265 0 .409.102.159.113.169.351v.031h.657v-.042a.84.84 0 0 0-.128-.458q-.154-.234-.492-.343a2.2 2.2 0 0 0-.615-.093H41.1l-.1-.001q-.285.02-.512.102a1.17 1.17 0 0 0-.738.748q-.1.285-.11.666.01.37.11.65Zm-4.234-2.103V37h.625v-2.89zm-14.22 0h-.608V37h1.859v-.484h-1.25z" fill="#505050"/><defs><clipPath id="a"><path fill="#fff" d="M0 0h48v40H0z"/></clipPath></defs></svg>