<svg width="48" height="40" fill="none" xmlns="http://www.w3.org/2000/svg"><g clip-path="url(#a)"><path fill-rule="evenodd" clip-rule="evenodd" d="M0 38a2 2 0 0 0 2 2h44a2 2 0 0 0 2-2V2A2 2 0 0 0 46.15.005L46 0H2l-.15.005A2 2 0 0 0 0 2zM27 2H2v25h25zM2 29v9h13v-9zm15 9h29v-9H17zm29-11V2H29v25z" fill="#505050"/></g><path fill="#c93e34" d="M2 29h13v9H2z"/><path fill-rule="evenodd" clip-rule="evenodd" d="M7.926 35.07v-.847H6.668l1.613-2.57h-1.12l-.384.628h-.355l1.203-1.886H6.559l-1.04 1.613v1.039h.876l-.875 1.258v.765zm3.8 1.532v-.875h-1.285V31.27H11.7v-.875H8.281v.875h1.094v4.457H8.254v.875zm-3.8-.903v.82H5.492v-.82z" fill="#fff"/><path d="M7.926 34.223h.5v-.5h-.5zm0 .847v.5h.5v-.5zm-1.258-.847-.424-.266-.48.766h.904zm1.613-2.57.424.265.48-.766h-.904zm-1.12 0v-.5h-.282l-.146.24zm-.384.628v.5h.281l.146-.24zm-.355 0L6 32.012l-.49.77h.912v-.5Zm1.203-1.886.422.268.49-.768h-.912zm-1.066 0v-.5h-.273l-.148.229.42.27Zm-1.04 1.613-.42-.27-.08.123v.147zm0 1.039h-.5v.5h.5zm.876 0 .41.285.546-.785h-.956zm-.875 1.258-.41-.286-.09.129v.157zm0 .765h-.5v.5h.5zm6.207.657h.5v-.5h-.5zm0 .875v.5h.5v-.5zm-1.286-.875h-.5v.5h.5zm0-4.457v-.5h-.5v.5zm1.258 0v.5h.5v-.5zm0-.875h.5v-.5h-.5zm-3.418 0v-.5h-.5v.5zm0 .875h-.5v.5h.5zm1.094 0h.5v-.5h-.5zm0 4.457v.5h.5v-.5zm-1.121 0v-.5h-.5v.5zm0 .875h-.5v.5h.5zm-.328-.082v.5h.5v-.5zm0-.82h.5v-.5h-.5zm-2.434.82h-.5v.5h.5zm0-.82v-.5h-.5v.5zm1.934-1.477v.847h1v-.847zm-.758.5h1.258v-1H6.668zm1.19-3.336-1.614 2.57.847.532 1.614-2.57zm-.698.765h1.121v-1h-1.12v1Zm.044.39.383-.63-.854-.52-.383.63zm-.782.24h.355v-1h-.355zm.781-2.656L6 32.012l.843.538 1.204-1.887zm-.644.768h1.066v-1H6.559zm-.62 1.385 1.04-1.614-.84-.541-1.04 1.613zm.08.768v-1.04h-1v1.04zm.376-.5H5.52v1h.875zM5.93 34.59l.875-1.258-.82-.57-.876 1.257zm.09.48v-.765h-1v.765zm1.906-.5H5.52v1h2.406zm3.3 1.157v.875h1v-.875zm-.785.5h1.286v-1H10.44v1Zm-.5-4.957v4.457h1V31.27zm1.758-.5h-1.258v1H11.7zm-.5-.375v.875h1v-.875zm-2.918.5H11.7v-1H8.281zm.5.375v-.875h-1v.875zm.594-.5H8.281v1h1.094zm.5 4.957V31.27h-1v4.457zm-1.621.5h1.121v-1H8.254zm.5.375v-.875h-1v.875zm2.973-.5H8.254v1h3.473zm-3.301.418v-.82h-1v.82zm-2.934.5h2.434v-1H5.492zm-.5-1.32v.82h1v-.82zm2.934-.5H5.492v1h2.434z" fill="#505050"/><path fill-rule="evenodd" clip-rule="evenodd" d="M7.834 35.07v-.847H6.576l1.613-2.57H7.068l-.383.628H6.33l1.203-1.886H6.466l-1.039 1.613v1.039h.875l-.875 1.258v.765zm3.8 1.532v-.875H10.35V31.27h1.258v-.875H8.19v.875h1.094v4.457H8.162v.875zm-3.8-.903v.82H5.4v-.82z" fill="#fff"/><path fill="#ccc" d="M2 2h25v25H2z"/><path d="M15 5C9.486 5 5 9.486 5 15s4.486 10 10 10 10-4.486 10-10S20.514 5 15 5m2.441 4.176-.128.002a6.04 6.04 0 0 0-3.644 1.12 2.3 2.3 0 0 0-.477.377l-.046.04v.008a2.295 2.295 0 0 0 1.74 3.845c-.37-.628-.446-1.35-.136-1.912.425-.768 1.434-.976 2.38-.546v-.004l.034.02c.332.157.63.377.88.648 1.448 1.349 1.933 3.53.99 5.473-.697 1.438-2.148 2.41-3.74 2.553a5 5 0 0 1-.521.018 6 6 0 0 1-1.159-.02c-2.919-.16-5.396-1.304-6.605-2.884a8.6 8.6 0 0 1-.498-3.808C6.96 9.817 10.595 6.463 15 6.463c4.197 0 7.688 3.047 8.397 7.042a6.27 6.27 0 0 0-5.956-4.329M29 2h17v25H29z" fill="#c93e34"/><path d="M35.664 5.734h.234q.509.04.782-.43l.156-.35h1.68l-.157.39h3.594v1.133H37.5q-.547.585-1.055.546h-.78zm-.039 3.75v.274h.313V7.102h5.859v2.656h.234v1.172h-.234v1.953q.078 1.055-.899.976h-4.96v-2.89h-.352v-.39h-.938q-.938.038-1.093-.626l-.47-1.992h1.485l.313 1.094q.117.468.39.43h.352Zm4.766-1.367h-3.086v1.68h1.133l-.665-1.133.04-.078h1.523l.742 1.21h.313zm0 4.414V10.97h-3.086v1.914h1.21l-.78-1.445v-.079h1.523l.86 1.446q.272-.039.273-.274ZM35.547 7.61h-.977q-.938 0-1.093-.937l-.313-1.64h1.523l.235 1.132q.078.312.39.313h.235zm-.43 5.586q-.117.743-.937.703h-1.094v-1.015h.43q.351 0 .39-.352l.274-1.523h1.406zm3.399 3.109v-.313H40v.313h2.148v3.476q.118 1.446-1.21 1.367h-3.086v2.266q0 .312.273.313h.898v1.093h-1.68q-.898 0-.898-1.015v-7.5zm-.664 1.875h2.93v-.664h-2.93zm2.812 1.875q.117 0 .117-.117v-.665h-2.93v.782zm-4.687-1.524h-1.133q-.585 0-.703-.273l-.743-2.188h1.485l.39 1.172q.078.117.274.156h.43zm-1.211 2.774q-.547 0-.82-1.094a.3.3 0 0 1-.04-.117l-.351-1.328H35l.352 1.25q.039.156.312.195h.39v1.094zm-.86 2.46q.235.04.39-.546l.274-1.25h1.407l-.352 1.914q-.196.898-.898.898h-1.25v-1.015h.43Zm5.625-2.343.235.312h.82q.39.039.469-.273h1.133l-.196.977q-.078.39-.82.39h-.82l.468.703q.195.195.352.196h1.055v1.093h-1.524q-.82 0-1.172-.625l-1.601-2.773z" fill="#fff"/><path fill-rule="evenodd" clip-rule="evenodd" d="M35.278 5.417a.5.5 0 0 1 .386-.183h.234q.02 0 .039.002a.3.3 0 0 0 .17-.028.4.4 0 0 0 .128-.135l.144-.323a.5.5 0 0 1 .457-.297h1.68a.5.5 0 0 1 .488.39h2.95a.5.5 0 0 1 .5.5v1.134a.5.5 0 0 1-.208.405q.05.1.05.22v2.232a.5.5 0 0 1 .235.424v1.172a.5.5 0 0 1-.234.423v1.512c.027.404-.036.822-.318 1.128-.29.316-.703.394-1.1.366h-4.941a.5.5 0 0 1-.5-.5v-.073c-.078.135-.18.256-.314.356-.277.208-.616.27-.956.256h-1.082a.5.5 0 0 1-.5-.5v-1.015a.5.5 0 0 1 .5-.5h.339l.263-1.463.005-.025a1.22 1.22 0 0 1-.625-.827l-.469-1.993a.5.5 0 0 1 .487-.614h.16a1.8 1.8 0 0 1-.262-.7l-.311-1.636a.5.5 0 0 1 .491-.594h1.523a.5.5 0 0 1 .49.399zm-.356.747-.234-1.133h-1.524l.313 1.64q.094.565.47.79a1.2 1.2 0 0 0 .623.148h.977V6.477h-.234a.5.5 0 0 1-.149-.022q-.185-.061-.242-.29Zm.742.86h.781q.45.034.931-.422.062-.06.124-.125h4.453V5.344H38.36l.157-.39h-1.68l-.156.35q-.233.397-.63.43a1 1 0 0 1-.152 0h-.234zm.273.078v2.656h-.312v-.274h-.352a.3.3 0 0 1-.08 0q-.21-.033-.31-.43l-.313-1.093h-1.484l.469 1.992a.74.74 0 0 0 .527.564q.047.016.098.027.202.045.468.034h.938v.39h.352v2.891h4.96q.977.079.899-.976V10.93h.234V9.758h-.234V7.102zm4.18 5.703q.189-.027.247-.147a.3.3 0 0 0 .027-.127V10.97h-3.086v1.914h1.21l-.78-1.445v-.079h1.523l.86 1.446Zm-4.531-1.797H34.18l-.274 1.523q-.039.352-.39.352h-.43v1.015h1.094q.821.04.937-.703zm-.453-2.899.23.808.005.016.014.051h.056V8.11zm4.945 1.688h.313v-1.68h-3.086v1.68h1.133l-.665-1.133.04-.078h1.523l.742 1.21ZM39.023 24.82h-1.68q-.897 0-.898-1.015v-7.5h2.07v-.313H40v.313h2.148v3.476q.07.86-.37 1.18-.269.195-.723.191l-.117-.004h-3.086v2.266q0 .313.273.313h.898zm.508-.625q.352.625 1.172.625h1.524v-1.093h-1.055q-.156 0-.352-.196l-.468-.703h.82q.742 0 .82-.39l.196-.977h-1.133a.36.36 0 0 1-.107.189q-.122.108-.362.084h-.82l-.235-.312H37.93zm-1.18-1.043.044.075h-.043v-.075Zm.001.276v-.003Zm4.052-2.418a.5.5 0 0 1 .274.549l-.195.977a.9.9 0 0 1-.52.646q-.052.024-.107.045h.37a.5.5 0 0 1 .5.5v1.093a.5.5 0 0 1-.5.5h-1.523c-.463 0-.872-.124-1.193-.383a.5.5 0 0 1-.487.383h-1.68c-.393 0-.775-.114-1.048-.422a1.3 1.3 0 0 1-.286-.553 1.6 1.6 0 0 1-.353.565 1.28 1.28 0 0 1-.93.371h-1.25a.5.5 0 0 1-.5-.5v-1.015a.5.5 0 0 1 .5-.5h.282q.025-.064.053-.166l.27-1.238a.5.5 0 0 1 .12-.23 1.3 1.3 0 0 1-.314-.3c-.186-.25-.317-.579-.414-.951a.8.8 0 0 1-.06-.193l-.342-1.294a.5.5 0 0 1 .484-.628h.06l-.69-2.035a.5.5 0 0 1 .473-.66h1.485a.5.5 0 0 1 .474.341l.329.986h.26v-.593a.5.5 0 0 1 .5-.5h1.606a.5.5 0 0 1 .464-.313H40a.5.5 0 0 1 .464.313h1.684a.5.5 0 0 1 .5.5v3.457c.035.456-.02.898-.244 1.248m-6.857-3.612q-.195-.039-.274-.156l-.39-1.172h-1.485l.743 2.188.003.008q.122.265.7.265h1.133v-1.133zm.398 1.633h-.35l.19.68h.16zm-.28 1.18q-.274-.039-.313-.195L35 18.766h-1.445l.351 1.328a.3.3 0 0 0 .04.117q.273 1.095.82 1.094h1.289V20.21zm-1.095 1.758-.273 1.25q-.136.512-.333.547a.2.2 0 0 1-.058 0h-.43v1.015h1.25q.705 0 .899-.898l.352-1.914zm1.267-2.075-.003-.008zm2.015-2.378v.664h2.93v-.664zm2.93 1.757v.665q0 .117-.118.117h-2.812v-.782z" fill="#505050"/><path fill="#c93e34" d="M17 29h29v9H17z"/><path d="M21.217 32.613h-.742q-.02-.546-.586-.547-.567.04-.586.47 0 .35.566.487.06.02.098.02.019 0 .098.02 1.268.253 1.25.996-.02 1.132-1.544 1.172-1.406 0-1.386-1.192h.781q0 .625.605.664.704-.02.723-.469 0-.37-.683-.507a.6.6 0 0 1-.137-.04q-1.192-.273-1.192-.996.059-1.113 1.504-1.191 1.173.06 1.23 1.113Zm.605 2.578v-3.613h2.422v.606h-1.64v.84h1.523v.605h-1.523v.957h1.699v.605h-2.48Zm3.555 0h-.742l1.308-3.613h.918l1.27 3.613h-.781l-.274-.761H25.65zm.469-1.367h1.035l-.488-1.543h-.02zm5.117.469.703-2.715h.879l.625 2.715h.02l.585-2.715h.723l-.918 3.613h-.86l-.644-2.754-.703 2.754h-.879l-.879-3.613h.801zm4.394.898h-.742l1.309-3.613h.918l1.27 3.613h-.782l-.273-.761H35.63zm.47-1.367h1.034l-.488-1.543h-.02l-.527 1.543Zm3.71 1.367-1.328-3.613h.84l.937 2.852h.02l.937-2.852h.762l-1.328 3.613zm2.5 0v-3.613h2.422v.606h-1.64v.84h1.523v.605h-1.524v.957h1.7v.605h-2.48Z" fill="#fff"/><path fill-rule="evenodd" clip-rule="evenodd" d="M21.314 34.059q.02-.742-1.25-.996a1 1 0 0 0-.097-.02.3.3 0 0 1-.098-.02q-.566-.136-.566-.488.02-.43.586-.469.566 0 .586.547h.742a1.4 1.4 0 0 0-.114-.5q-.264-.57-1.117-.613-1.445.079-1.504 1.191 0 .558.711.849.12.049.261.09.105.03.22.057a.6.6 0 0 0 .137.04q.683.136.683.507-.02.45-.723.47-.593-.04-.605-.64v-.025h-.781v.064q.003.244.071.436.244.691 1.316.691 1.523-.039 1.543-1.171Zm-3.002-.515a1.24 1.24 0 0 1-.329-.879c.026-.489.212-.918.594-1.22.364-.288.847-.415 1.382-.444h.052c.46.023.884.146 1.204.436q.058.051.108.109a.5.5 0 0 1 .5-.468h2.421a.5.5 0 0 1 .5.5v.606a.5.5 0 0 1-.296.456c.11.092.179.23.179.383v.606a.5.5 0 0 1-.298.458.5.5 0 0 1 .161.035l.983-2.714a.5.5 0 0 1 .47-.33h.918a.5.5 0 0 1 .472.334l1.27 3.614a.5.5 0 0 1-.472.665h-.781a.5.5 0 0 1-.471-.33l-.155-.431h-.722l-.154.43a.5.5 0 0 1-.471.331h-.742a.5.5 0 0 1-.166-.028.5.5 0 0 1-.166.028h-2.48a.5.5 0 0 1-.5-.46q-.048.045-.102.085c-.376.286-.88.4-1.437.414h-.012c-.527 0-1.017-.11-1.376-.418-.376-.323-.52-.784-.511-1.281a.5.5 0 0 1 .427-.487m5.99 1.647v-.605h-1.698v-.957h1.523v-.606h-1.523v-.84h1.64v-.605h-2.422v3.613zm1.075 0 .273-.761h1.426l.274.761h.78l-1.269-3.613h-.918l-1.308 3.613zm.469-1.367h1.035l-.488-1.543h-.02zm4.648 1.367-.879-3.613h.801l.547 2.715.703-2.715h.879l.625 2.715h.02l.585-2.715h.723l-.918 3.613h-.86l-.644-2.754-.703 2.754zm1.561-.65-.197.774a.5.5 0 0 1-.485.376h-.879a.5.5 0 0 1-.486-.381l-.879-3.614a.5.5 0 0 1 .486-.618h.801a.5.5 0 0 1 .49.401l.118.584.158-.61a.5.5 0 0 1 .484-.375h.879a.5.5 0 0 1 .487.388l.132.574.123-.567a.5.5 0 0 1 .488-.395h.723a.5.5 0 0 1 .485.623l-.918 3.614a.5.5 0 0 1-.485.376h-.86a.5.5 0 0 1-.486-.386zm3.773.82a.5.5 0 0 1-.47.33h-.743a.5.5 0 0 1-.47-.67l1.309-3.613a.5.5 0 0 1 .47-.33h.918a.5.5 0 0 1 .471.334l1.27 3.614a.5.5 0 0 1-.472.665h-.78a.5.5 0 0 1-.472-.33l-.154-.431h-.722zm1.229-.931.273.761h.781l-1.27-3.613h-.917l-1.309 3.613h.742l.274-.761zm-1.23-.606h1.034l-.488-1.543h-.02zm3.71 1.867a.5.5 0 0 1-.47-.327L37.74 31.75a.5.5 0 0 1 .469-.673h.84a.5.5 0 0 1 .475.344l.472 1.436.472-1.436a.5.5 0 0 1 .475-.344h.762a.5.5 0 0 1 .166.028.5.5 0 0 1 .166-.028h2.422a.5.5 0 0 1 .5.5v.606a.5.5 0 0 1-.296.456c.11.092.179.23.179.383v.606a.5.5 0 0 1-.299.458.5.5 0 0 1 .475.499v.605a.5.5 0 0 1-.5.5h-2.48a.5.5 0 0 1-.5-.5v-1.707l-.692 1.88a.5.5 0 0 1-.469.327zm1.406-4.113-.937 2.852h-.02l-.937-2.852h-.84l1.328 3.613h.84l1.328-3.613zm1.094 3.613h2.48v-.605h-1.699v-.957h1.524v-.606h-1.524v-.84h1.641v-.605h-2.422z" fill="#505050"/><defs><clipPath id="a"><path fill="#fff" d="M0 0h48v40H0z"/></clipPath></defs></svg>