<svg width="48" height="40" fill="none" xmlns="http://www.w3.org/2000/svg"><g clip-path="url(#a)"><path fill-rule="evenodd" clip-rule="evenodd" d="M0 38a2 2 0 0 0 2 2h44a2 2 0 0 0 2-2V2A2 2 0 0 0 46.15.005L46 0H2l-.15.005A2 2 0 0 0 0 2zM27 2H2v25h25zM2 29v9h13v-9zm15 9h29v-9H17zm29-11V2H29v25z" fill="#505050"/></g><path fill="#f29d38" d="M2 29h13v9H2z"/><path d="M7.352 36.574v-3.718h.164v-.794h-.164v-.246h.218v-.765h-.218v-.656h-.903v.656H5.33v.793h1.093v.218H5.52l-.11 3.5q0 .138-.11.11v.656h.384q.52 0 .52-.547l.109-2.925h.109v3.718zm1.175-3.527q.957.11.957-.93l.11-1.668h-1.86v.684h.93l-.027.328h-.219q-.137.027-.11-.11h-.574v.247q0 .492.41.52h.438l-.027.081q-.028.192-.164.164h-.63v.684zm2.98-.684v.657h-.984a1 1 0 0 1-.109.003q-.577-.008-.601-.66l-.137-1.914h1.86v.766h-.848l.054.273h.137q.137.027.137-.11h.546l-.027.329q-.027.465-.41.383h-.355l.027.11q-.027.19.191.163h.52Zm.028 1.504v-.656H7.652v.656zm0 2.078v.547H7.543v-.547h.574l-.082-.3H7.68v-1.56h3.855v1.013q.027.6-.492.547l-.055.3zm-1.039-.957a.1.1 0 0 0 .04.005q.07-.005.07-.114v-.11H8.554v.22h1.941Zm-1.45.957h1.04v-.3h-1.04z" fill="#505050" stroke="#505050"/><path d="M7.352 36.574v-3.718h.164v-.794h-.164v-.246h.218v-.765h-.218v-.656h-.903v.656H5.33v.793h1.093v.218H5.52l-.11 3.5q0 .138-.11.11v.656h.384q.52 0 .52-.547l.109-2.925h.109v3.718zm1.175-3.527q.957.11.957-.93l.11-1.668h-1.86v.684h.93l-.027.328h-.219q-.137.027-.11-.11h-.574v.247q0 .492.41.52h.438l-.027.081q-.028.192-.164.164h-.63v.684zm2.98-.684v.657h-.984a1 1 0 0 1-.109.003q-.577-.008-.601-.66l-.137-1.914h1.86v.766h-.848l.054.273h.137q.137.027.137-.11h.546l-.027.329q-.027.465-.41.383h-.355l.027.11q-.027.19.191.163h.52Zm.028 1.504v-.656H7.652v.656zm0 2.078v.547H7.543v-.547h.574l-.082-.3H7.68v-1.56h3.855v1.013q.027.6-.492.547l-.055.3zm-1.039-.957a.1.1 0 0 0 .04.005q.07-.005.07-.114v-.11H8.554v.22h1.941Zm-1.45.957h1.04v-.3h-1.04z" fill="#fff"/><path fill="#ccc" d="M2 2h25v25H2z"/><path fill-rule="evenodd" clip-rule="evenodd" d="M17.016 22.86a2.001 2.001 0 1 0 3.467-2l-2.517-4.36H23a2 2 0 1 0 0-4h-5.036l2.518-4.361a2 2 0 0 0-3.464-2l-2.517 4.36-2.517-4.36a2.001 2.001 0 0 0-3.467 2.002l2.517 4.359H6a2 2 0 1 0 0 4h5.036l-2.518 4.361a2 2 0 0 0 3.464 2l2.517-4.36 2.517 4.36Z" fill="#f29d38"/><path fill="#f29d38" d="M29 2h17v25H29z"/><path fill-rule="evenodd" clip-rule="evenodd" d="M36.563 9.656q-.47.586-.86.547h-2.656v-.82h1.797q.195.039.39-.39h-2.187v-.704h1.055v-.351h-1.055v-.704h1.055v-.312h-.86v-2.93h8.555v2.11q-.117.741-.625.82h-.313v.273h1.055v.742H40.86v.352h1.055v.703h-2.031q.078.352.312.352h1.72v.82h-2.657q-.548 0-1.406-1.172h-.704l-.39.469zm-1.836-4.531h5.546v-.313h-5.546zm5.546 1.016h-5.546v-.313h5.546zm-4.648 1.093h3.71v-.312h-3.71zm3.71 1.055h-3.71v-.351h3.71zm-1.093 3.633q0 .898-.898.898h-1.172V12h.469q.117 0 .117-.078V9.93h1.484zm-2.07-.352v-.82h-1.016q-.312 0-.508-.313h-1.445q.039.118.117.313.39.86.86.82zm5.508-.898q-.394.86-.854.898H38.75v-.86h1.21q.196.04.352-.233h1.446a2 2 0 0 0-.078.195Zm-6.602 2.11q.508 0 .82-.86a1 1 0 0 1 .118-.235h-1.328q-.195.313-.508.313h-1.172v.781zM41.836 12v.86H39.96q-.625.038-1.133-1.055h1.328l.117.117q.196.078.43.078zm-7.344 8.875v-2.578h2.54v2.5h1.366v-2.5h2.422v2.578h1.29v-3.477h-3.712v-.39h3.711v-.977h-8.906v.977h3.828v.39h-3.828v3.477zm5.977-1.797q.038.547-.742.508h-1.094v-.664h.469q.195 0 .195-.235v-.078h1.172zm-3.711.508v-.664h-.352q-.429 0-.39-.117v-.157h-1.211v.274q0 .664.625.664zm3.789 1.289h-1.133q-.07.003-.13.002-.625-.01-.652-.456v-.562h1.212v.118q-.039.234.273.234h.43zm-4.57 0q.664.04.664-.664v-.313h-1.172v.04q0 .234-.235.234h-.507v.703zM42.07 24q.078 1.095-1.054 1.016h-7.618V24h7.266q.117 0 .117-.156v-.196h-7.539v-1.015h7.54v-.43h-7.344v-1.015h8.632z" fill="#fff" stroke="#505050"/><path fill-rule="evenodd" clip-rule="evenodd" d="M36.563 9.656q-.47.586-.86.547h-2.656v-.82h1.797q.195.039.39-.39h-2.187v-.704h1.055v-.351h-1.055v-.704h1.055v-.312h-.86v-2.93h8.555v2.11q-.117.741-.625.82h-.313v.273h1.055v.742H40.86v.352h1.055v.703h-2.031q.078.352.312.352h1.72v.82h-2.657q-.548 0-1.406-1.172h-.704l-.39.469zm-1.836-4.531h5.546v-.313h-5.546zm5.546 1.016h-5.546v-.313h5.546zm-4.648 1.093h3.71v-.312h-3.71zm3.71 1.055h-3.71v-.351h3.71zm-1.093 3.633q0 .898-.898.898h-1.172V12h.469q.117 0 .117-.078V9.93h1.484zm-2.07-.352v-.82h-1.016q-.312 0-.508-.313h-1.445q.039.118.117.313.39.86.86.82zm5.508-.898q-.394.86-.854.898H38.75v-.86h1.21q.196.04.352-.233h1.446a2 2 0 0 0-.078.195m-6.602 2.11q.508 0 .82-.86a1 1 0 0 1 .118-.235h-1.328q-.195.313-.508.313h-1.172v.781zM41.836 12v.86H39.96q-.625.038-1.133-1.055h1.328l.117.117q.196.078.43.078zm-7.344 8.875v-2.578h2.54v2.5h1.366v-2.5h2.422v2.578h1.29v-3.477h-3.712v-.39h3.711v-.977h-8.906v.977h3.828v.39h-3.828v3.477zm5.977-1.797q.038.547-.742.508h-1.094v-.664h.469q.195 0 .195-.235v-.078h1.172zm-3.711.508v-.664h-.352q-.429 0-.39-.117v-.157h-1.211v.274q0 .664.625.664zm3.789 1.289h-1.133q-.07.003-.13.002-.625-.01-.652-.456v-.562h1.212v.118q-.039.234.273.234h.43zm-4.57 0q.664.04.664-.664v-.313h-1.172v.04q0 .234-.235.234h-.507v.703zM42.07 24q.078 1.095-1.054 1.016h-7.618V24h7.266q.117 0 .117-.156v-.196h-7.539v-1.015h7.54v-.43h-7.344v-1.015h8.632z" fill="#fff"/><path fill="#f29d38" d="M17 29h29v9H17z"/><path fill-rule="evenodd" clip-rule="evenodd" d="M20.3 34.14q-.03.86-1.172.89-1.084-.015-1.054-.906h.593q0 .49.46.505.535-.015.55-.356 0-.268-.52-.386-.06-.015-.104-.03-.92-.193-.905-.757.044-.831 1.143-.906.89.06.935.847h-.564q-.03-.416-.445-.416-.43.03-.446.356-.03.312.505.386l.06.03q.98.193.964.742Zm.935-1.411V35h-.549v-2.746h.876l1.04 2.167.014-.015v-2.152h.55V35h-.847l-1.069-2.286zm3.637 2.3q1.262-.03 1.306-1.395-.045-1.395-1.306-1.44-1.29.045-1.32 1.44.03 1.365 1.32 1.396Zm-.697-1.395q-.015 1.01.697.995.683 0 .683-.995 0-1.01-.683-1.009-.712 0-.697 1.01ZM27.722 35l.535-2.093.49 2.093h.653l.697-2.746h-.549l-.445 2.063h-.015l-.475-2.063h-.668l-.535 2.063-.415-2.063h-.609L27.054 35zm5.864-.86q-.03.86-1.173.89-1.084-.015-1.054-.906h.594q0 .49.46.505.534-.015.55-.356 0-.268-.52-.386a1 1 0 0 1-.104-.03q-.921-.193-.906-.757.044-.831 1.143-.906.891.06.935.847h-.564q-.03-.416-.445-.416-.431.03-.445.356-.03.312.504.386l.06.03q.979.193.965.742Zm1.588-1.426h.816v-.46h-2.226v.46h.816V35h.594zm1.677 1.188V35h-.594v-2.746h1.173q.935.03.95.712-.015.536-.564.668v.015q.4.045.49.609 0 .045.015.089.03.504.148.653h-.638a3.6 3.6 0 0 1-.104-.742q-.045-.357-.252-.356zm.49-.46h-.49v-.728h.49q.4 0 .416.342-.015.385-.416.385Zm4.008.192q-.045 1.365-1.306 1.396-1.292-.03-1.322-1.396.03-1.395 1.322-1.44 1.26.045 1.306 1.44Zm-1.306.995q-.713.015-.698-.995-.014-1.01.697-1.009.684 0 .683 1.01 0 .994-.683.994Zm2.24-1.974V35h-.548v-2.746h.965l.578 2.004h.015l.624-2.004h.92V35h-.55v-2.36l-.77 2.36h-.49l-.727-2.36-.015.015Z" fill="#fff" stroke="#505050"/><path fill-rule="evenodd" clip-rule="evenodd" d="M20.3 34.14q-.03.86-1.172.89-1.084-.015-1.054-.906h.593q0 .49.46.505.535-.015.55-.356 0-.268-.52-.386-.06-.015-.104-.03-.92-.193-.905-.757.044-.831 1.143-.906.89.06.935.847h-.564q-.03-.416-.445-.416-.43.03-.446.356-.03.312.505.386l.06.03q.98.193.964.742Zm.935-1.411V35h-.549v-2.746h.876l1.04 2.167.014-.015v-2.152h.55V35h-.847l-1.069-2.286zm3.637 2.3q1.262-.03 1.306-1.395-.045-1.395-1.306-1.44-1.29.045-1.32 1.44.03 1.365 1.32 1.396Zm-.697-1.395q-.015 1.01.697.995.683 0 .683-.995 0-1.01-.683-1.009-.712 0-.697 1.01ZM27.722 35l.535-2.093.49 2.093h.653l.697-2.746h-.549l-.445 2.063h-.015l-.475-2.063h-.668l-.535 2.063-.415-2.063h-.609L27.054 35zm5.864-.86q-.03.86-1.173.89-1.084-.015-1.054-.906h.594q0 .49.46.505.534-.015.55-.356 0-.268-.52-.386a1 1 0 0 1-.104-.03q-.921-.193-.906-.757.044-.831 1.143-.906.891.06.935.847h-.564q-.03-.416-.445-.416-.431.03-.445.356-.03.312.504.386l.06.03q.979.193.965.742Zm1.588-1.426h.816v-.46h-2.226v.46h.816V35h.594zm1.677 1.188V35h-.594v-2.746h1.173q.935.03.95.712-.015.536-.564.668v.015q.4.045.49.609 0 .045.015.089.03.504.148.653h-.638a3.6 3.6 0 0 1-.104-.742q-.045-.357-.252-.356zm.49-.46h-.49v-.728h.49q.4 0 .416.342-.015.385-.416.385Zm4.008.192q-.045 1.365-1.306 1.396-1.292-.03-1.322-1.396.03-1.395 1.322-1.44 1.26.045 1.306 1.44m-1.306.995q-.713.015-.698-.995-.014-1.01.697-1.009.684 0 .683 1.01 0 .994-.683.994Zm2.24-1.974V35h-.548v-2.746h.965l.578 2.004h.015l.624-2.004h.92V35h-.55v-2.36l-.77 2.36h-.49l-.727-2.36-.015.015Z" fill="#fff"/><defs><clipPath id="a"><path fill="#fff" d="M0 0h48v40H0z"/></clipPath></defs></svg>