<svg width="48" height="40" fill="none" xmlns="http://www.w3.org/2000/svg"><g clip-path="url(#a)"><path fill-rule="evenodd" clip-rule="evenodd" d="M0 38a2 2 0 0 0 2 2h44a2 2 0 0 0 2-2V2A2 2 0 0 0 46.15.005L46 0H2l-.15.005A2 2 0 0 0 0 2zM27 2H2v25h25zM2 29v9h13v-9zm15 9h29v-9H17zm29-11V2H29v25z" fill="#505050"/></g><path fill="#3a6af6" d="M2 29h13v9H2z"/><path fill-rule="evenodd" clip-rule="evenodd" d="M11.563 31.516v-.793h-.63l.11-.328H9.84l-.11.328H7.215l-.137-.328H5.875l.11.328h-.63v.793zM9.183 32.8q.192.027.301-.192l.082-.164h1.996v-.683H9.758l.027-.082h-.93l-.136.273q-.082.192-.274.164h-.41v.684h1.149Zm-2.761-1.012v2.023h-.93V31.79h.93Zm1.367 2.023V31.79h-.848v2.023h.848Zm3.774 0H9.02q-.52.029-.602-.246l-.355-.656h1.093l.082.11q.028.163.246.136h2.079zm0 2.817v-.738h-.247v-1.832H5.52v1.832h-.192v.738h6.234Zm-5.141-.738h.793v-1.04h-.793zm1.613 0v-1.04h.766v1.04zm1.64 0h.794v-1.04h-.793z" fill="#fff" stroke="#505050"/><path fill-rule="evenodd" clip-rule="evenodd" d="M11.563 31.516v-.793h-.63l.11-.328H9.84l-.11.328H7.215l-.137-.328H5.875l.11.328h-.63v.793zM9.183 32.8q.192.027.301-.192l.082-.164h1.996v-.683H9.758l.027-.082h-.93l-.136.273q-.082.192-.274.164h-.41v.684h1.149Zm-2.761-1.012v2.023h-.93V31.79h.93Zm1.367 2.023V31.79h-.848v2.023h.848Zm3.774 0H9.02q-.52.029-.602-.246l-.355-.656h1.093l.082.11q.028.163.246.136h2.079zm0 2.817v-.738h-.247v-1.832H5.52v1.832h-.192v.738h6.234Zm-5.141-.738h.793v-1.04h-.793zm1.613 0v-1.04h.766v1.04zm1.64 0h.794v-1.04h-.793z" fill="#fff"/><path fill="#ccc" d="M2 2h25v25H2z"/><path fill-rule="evenodd" clip-rule="evenodd" d="M10.78 23.287A10 10 0 0 0 14.5 24a10 10 0 0 0 3.72-.713 9.7 9.7 0 0 0 3.01-2.058 9.7 9.7 0 0 0 2.058-3.008c.474-1.188.712-2.454.712-3.721a9.7 9.7 0 0 0-.712-3.72 9.7 9.7 0 0 0-2.059-3.01 9.7 9.7 0 0 0-3.008-2.058A10 10 0 0 0 14.5 5c-1.583 0-3.325.475-4.75 1.267-.396.237-.475.633-.238 1.029.08.237.317.316.555.316.079 0 .237 0 .237-.079h.08c1.345-.712 2.691-1.029 4.037-1.029 4.354 0 7.996 3.563 7.996 7.996s-3.563 8.075-7.996 8.075c-4.354 0-7.996-3.642-7.996-8.075 0-1.346.396-2.692 1.108-4.038v-.079c.159-.396 0-.791-.237-.95-.08-.079-.238-.079-.317-.079a.83.83 0 0 0-.712.396C5.475 11.254 5 12.917 5 14.5a10 10 0 0 0 .713 3.72 9.7 9.7 0 0 0 2.058 3.01 9.7 9.7 0 0 0 3.008 2.057Zm7.837-4.987c-.238.237-.238.712 0 .95.158.08.316.158.475.158s.316-.079.475-.158l1.266-1.425c.238-.238.238-.713 0-.95l-1.345-1.267c-.159-.079-.317-.158-.476-.158s-.316 0-.474.158c-.08.159-.159.317-.159.475 0 .159 0 .317.159.475l.158.159h-.792c-.158 0-.317 0-.475-.159l-1.425-1.425c-.158-.079-.317-.158-.475-.158s-.316 0-.475.158c-.237.238-.237.713 0 .95l1.504 1.504c.396.317.871.555 1.425.555h.792zm-10.53-.475c.159.237.317.317.555.317h2.375a1.9 1.9 0 0 0 1.346-.555l5.224-5.225c.08-.079.159-.158.317-.158h.871l-.158.158c-.08.159-.159.317-.159.475 0 .159 0 .317.159.475.158.08.316.159.475.159s.316 0 .475-.159l1.266-1.266c.238-.238.238-.713 0-.95L19.646 9.75c-.159-.08-.317-.158-.475-.158-.159 0-.317 0-.475.158-.238.237-.238.712 0 .95l.158.158h-.87a1.9 1.9 0 0 0-1.347.554l-5.225 5.225-.113.063c-.093.053-.166.096-.282.096H8.642c-.238 0-.475.079-.554.316a.594.594 0 0 0 0 .713Zm4.75-3.958c.159.079.317.158.476.158s.316-.08.474-.158c.08-.159.159-.317.159-.475 0-.159 0-.317-.159-.475l-1.425-1.425a1.9 1.9 0 0 0-1.345-.555H8.72a.624.624 0 0 0-.633.634c0 .316.237.633.633.633h2.216q.238 0 .476.238z" fill="#3a6af6"/><path fill="#3a6af6" d="M29 2h17v25H29z"/><path fill-rule="evenodd" clip-rule="evenodd" d="M33.5 2.625h8.094v2.177c-.008.183-.04.37-.112.542h.08v2.49c.005.138-.005.28-.037.416h.006v1.281c0 .284-.063.59-.277.828a.95.95 0 0 1-.329.235h.45V11h.219v2.063h-.219v4.427c.01.287-.027.61-.221.863-.22.284-.541.36-.835.334h-.475V19h1.781v1.969h-.156v1.333c.01.25-.031.524-.188.751v1.697h.313v1.969h-1.302a1.3 1.3 0 0 1-.48-.064v.064h-2.156v-.061c-.145.05-.298.067-.448.06h-1.583v-.09c-.195.083-.41.1-.606.09h-1.456v-1.937h.727l.25-.833a.84.84 0 0 1-.387-.237c-.192-.203-.283-.48-.332-.743l-.397-2.03h.493a1.4 1.4 0 0 1-.04-.254l-.376-2.09h-.095v-1.75h.539l.614-1.402-.886-2.723h-.048v-.146l-.095-.292h.095V10.72H38V11h1.219v-.313h-3.094v-.079a1.4 1.4 0 0 1-.434.017H33.5V8.812h1.313v-.437H33.5zm1.69 1.88-.003-.001Zm-.342.338v.003Zm3.996 4.845h.187V5.125h-.156v1.219h-.031zM37.406 8.03V6.344h-.125V8.03zm-1.125-1.594v-.005l-.02.005zM37.344 5h.093V3.625h-.093zM40.5 3.625v.813a.7.7 0 0 1-.193.51l-.06.052h.15a.4.4 0 0 0 .146-.017h.002l.006-.009.014-.033a.6.6 0 0 0 .029-.171V3.625zm-4.469 0h-.187v1.13a.69.69 0 0 1-.186.56.6.6 0 0 1-.252.154h.38l.037.005a.4.4 0 0 0 .168 0 .3.3 0 0 0 .027-.076c.014-.065.023-.164.014-.305V3.625ZM34.656 5.5H34.5v1.875h.156zm1.157 1.938v1.656a.77.77 0 0 1-.191.531h.127l.03.004a.5.5 0 0 0 .144 0 .8.8 0 0 0 .016-.25l-.002-.017V7.437zm4.656-1.094V7.53a.66.66 0 0 1-.245.532h.077l.019.001c.147.011.206-.01.223-.018a.4.4 0 0 0 .02-.182v-1.52h-.094Zm-.278 3.343h.246a.3.3 0 0 0 .076-.006.5.5 0 0 0 .018-.15V9.25h-.071a.64.64 0 0 1-.27.438Zm.028 1.907V12H38.28v.063h1.938v5.218a.6.6 0 0 1-.153.407h.304q.01-.059.005-.167v-5.458h.219V12h-.219v-.406zM37 12.15l-1.284 3.328-.733-2.197h-.076l.721 2.214-.852 1.942a.6.6 0 0 1-.087.157.2.2 0 0 0 .05-.006l.006-.009 1.022-2.172.76 2.282h.08a.6.6 0 0 1-.13-.3l-.665-1.93L37 12.376zm.807.912h.261l-.488 2.126h-.549v.74l-.155-.45.931-2.415Zm.255 4.063v1.469h.188v-1.469zm1.109-.25h.048v-.05zm-.22-3.094h-.022l-.434 1.892a.57.57 0 0 1-.327.452h.31l.001-.009zm-1.295 4.906h-.986a1.3 1.3 0 0 1-.66-.12.83.83 0 0 1-.407-.475 1.02 1.02 0 0 1-.64.47h.7l.223 1.157h.051V19h1.72v-.313Zm1 .907v.375h.188v-.375zm.688 1.375h-.268l-.26.468h.528zM38.469 20h-.186l-1.158 2.187v.243zm-1.344 2.438v.03h3.178l.022.003a.5.5 0 0 0 .136-.002.5.5 0 0 0 .008-.135v-1.147h-.125v.5a.75.75 0 0 1-.238.577.75.75 0 0 1-.567.174zm-1-.375v-.125l.133-.25h-.542l.075.375zm-1.486-.125.165.848q.024.122.049.183h.293l-.01-.006a.67.67 0 0 1-.29-.528l-.1-.497zm.827 2.406-.276.92-.012.027a.84.84 0 0 1-.3.375 1 1 0 0 1-.093.053h.272a1 1 0 0 0 .115 0l.387-1.375zm1.365 1.375h.413a.3.3 0 0 0 .07-.002.6.6 0 0 0 .03-.217v-1.719h-.157V25a1 1 0 0 1-.101.47.6.6 0 0 1-.255.249m1.825 0h.157V23.78h-.157v1.938Zm1.5-1.938v1.74l-.002.02a.6.6 0 0 0 .005.174q.028.006.1.004h.335v-.05a.6.6 0 0 1-.18-.167.8.8 0 0 1-.133-.47v-1.25zm-4.748-3.093a.66.66 0 0 1-.468-.596l-.102-.53h-.146l.18 1.007.002.032a.5.5 0 0 0 .014.096.5.5 0 0 0 .138-.005l.034-.005z" fill="#505050"/><path d="M35.344 4.031H34v-.906h2.531v1.938q.063 1.031-.781.906h-.594v.968h1.282v2.407q.062.875-.72.781H34v-.813h1.125q.188.031.188-.218V7.875H34V5h1.125q.25.03.219-.219zm1.5 1.469V3.125h4.25v1.656q-.031.75-.719.719h-.844v.344h1.532v2q.03.78-.782.718h-.75v.72h.282q.156.03.156-.157V8.75h1.062v.781q0 .657-.593.656h-3.813v-.906h1.719v-.75H36.78V5.844h1.594V5.5zm1.093-.875h1.876q.186.03.187-.188v-.406h-2.063zm.407 3.063V6.75h-.438v.938zm1.187 0h.25q.188.03.188-.157v-.75h-.438zm-1.75 4.875V11.5h1.938v-.406h1.156v.406h.219v1.063h-.219V17.5q.03.75-.531.688H38.75v-.813h.875q.094 0 .094-.094v-4.718zm-3.656-.344v-1H37.5v1.25l-1.156 3 .625 1.812q0 .156.187.125h.407v.782h-.907q-.531.03-.593-.313l-.376-1.125-.5 1.063q-.156.28-.5.28h-.78v-.75h.25q.125 0 .156-.093l.78-1.781-.874-2.688h1.125L35.75 14l.688-1.781zM38 15.594l.531-2.313h1.032l-.594 2.938q-.095.437-.5.406h-.938v-.938h.344q.125 0 .125-.093m-3.625 5.031-.281-1.563h1.156l.188.97q0 .218.28.187h.5v.968h-1.124q-.688.094-.719-.562m2.063-1.125h1.718v-.406h1.188v.406h1.781v.969h-2.344l-.812 1.468h1.593q.282.032.282-.25v-1h1.125v1.625q.03.72-.688.657h-3.656v-.907l.844-1.593h-1.032zm-2.126 3.375-.28-1.438h1.124l.188.938q0 .25.281.188h.594v.906h-1.344q-.438.093-.563-.594m1.813 2.406h.406q.156.031.157-.281v-1.719h1.156V25.5q0 .75-.625.719h-1.094zm2.031.938V23.28h1.157v2.938h-1.157Zm1.5-.719v-2.219h1.125v1.75q0 .25.157.219h.156v.969h-.813q-.687.03-.625-.719m-4.937-.406.375-1.25h1.125l-.563 2q-.03.406-.625.375h-.968v-.938h.374q.189.032.282-.187" fill="#fff"/><path fill="#3a6af6" d="M17 29h29v9H17z"/><path fill-rule="evenodd" clip-rule="evenodd" d="m24.383 29.546.033.002c.266.018.523.076.748.195v-.134h4.375c.376.013.743.09 1.027.303q.154.117.254.265l.058-.066c.349-.38.836-.545 1.378-.564h.035c.502.018.956.166 1.295.498v-.436h1.737l.294.615v-.615h1.578v.411c.323-.289.743-.433 1.21-.471l.02-.002h.02c.491 0 .948.083 1.294.324.38.265.55.665.55 1.113v.5h-.047v1.794l-.356.107a2.7 2.7 0 0 1-.753.115q-.287.032-.688.031h-.023c-.47-.022-.897-.154-1.227-.441v.41h-1.709l-.322-.69v.69h-1.578v-.449c-.342.328-.799.468-1.3.48h-.024a2.4 2.4 0 0 1-.66-.1l.055.069h-2.102l-.095-.379a4 4 0 0 1-.046-.207v.586H27.79v-2.406h-.14V33.5h-1.626v-2.406h-.146l.02.343h-.167c.142.187.222.413.215.67v.004c-.015.424-.175.805-.521 1.069-.324.245-.748.34-1.2.351h-.02c-.435-.006-.855-.099-1.167-.367-.33-.284-.45-.685-.435-1.102l.016-.484h.212a1.1 1.1 0 0 1-.15-.591v-.014c.022-.412.184-.78.513-1.04.311-.247.718-.355 1.156-.385zm7.743 1.504c-.036.052-.092.194-.087.505v.015c-.005.312.051.45.085.498.012.018.02.023.03.027a.3.3 0 0 0 .109.014h.01c.06 0 .087-.01.096-.015.008-.003.017-.01.031-.03.037-.052.092-.194.092-.502 0-.313-.056-.46-.094-.516-.014-.022-.024-.028-.031-.031a.2.2 0 0 0-.094-.015.3.3 0 0 0-.112.018.1.1 0 0 0-.035.032m-9.712 2.497h.018c.502.018.956.166 1.295.498v-.436h1.736l.295.615v-.615h2.393l.396 1.204.396-1.204h3.674v.349c.294-.267.672-.394 1.09-.41l.016-.001h.017c.302.008.591.058.846.171v-.109h4.266v.404c.339-.31.786-.449 1.28-.466h.034c.502.018.956.166 1.295.498v-.436h1.737l.294.615v-.615h1.578V37.5h-1.709l-.322-.69v.69h-1.578v-.449c-.342.328-.799.468-1.3.48h-.024c-.493-.011-.943-.142-1.285-.448v.417h-1.625v-2.406h-.157V37.5h-1.625v-1.421.016c-.029.424-.187.81-.525 1.078-.322.256-.742.352-1.187.358h-.02c-.395-.01-.759-.12-1.049-.355v.324H29.68v-1.304L29.2 37.5h-1.37l-.494-1.346V37.5h-1.709l-.322-.69v.69h-1.578v-.449c-.342.328-.8.468-1.301.48h-.023c-.54-.012-1.028-.167-1.38-.539l-.054-.061q-.1.133-.236.242c-.323.256-.742.352-1.187.358h-.02c-.499-.013-.947-.183-1.26-.566-.3-.366-.418-.855-.43-1.392v-.021c.012-.545.13-1.041.425-1.414.31-.39.756-.57 1.258-.59l.017-.001h.017c.446.012.865.116 1.186.379q.133.11.23.242l.05-.057c.348-.38.836-.545 1.378-.564zm-1.89 2.016v-.016h-.893l-.029-.47a.3.3 0 0 0-.01-.065l-.003-.001c-.04.078-.086.246-.097.551.01.301.055.466.093.542l.008-.002a.4.4 0 0 0 .01-.069l.027-.47h.893Zm13.256.539a.4.4 0 0 0 .01-.069l.028-.47h1.627v-.016h-1.627l-.028-.47a.3.3 0 0 0-.01-.065l-.004-.001c-.04.078-.086.246-.096.551.01.301.055.466.093.542zM22.267 35.05c-.036.052-.092.194-.087.505v.015c-.005.312.051.45.085.498.012.018.02.023.029.027a.3.3 0 0 0 .11.014h.01c.06 0 .087-.01.096-.015a.1.1 0 0 0 .03-.03c.037-.052.093-.194.093-.502 0-.313-.056-.46-.094-.516-.015-.022-.025-.028-.032-.031a.2.2 0 0 0-.093-.015c-.066 0-.1.012-.112.018a.1.1 0 0 0-.035.032m17.734 0c-.036.052-.092.194-.087.505v.015c-.005.312.051.45.085.498.012.018.02.023.03.027a.3.3 0 0 0 .109.014h.01c.06 0 .087-.01.096-.015.008-.003.017-.01.031-.03.037-.052.092-.194.092-.502 0-.313-.056-.46-.094-.516-.014-.022-.024-.028-.031-.031a.2.2 0 0 0-.094-.015.3.3 0 0 0-.112.018.1.1 0 0 0-.035.032" fill="#505050"/><path d="M25.367 30.938h-.594q-.03-.438-.468-.438-.453.03-.47.375-.03.328.532.406l.063.032q1.031.202 1.015.78-.03.907-1.234.938-1.14-.015-1.11-.953h.626q0 .516.484.531.563-.015.578-.375 0-.281-.547-.406l-.11-.031q-.968-.204-.952-.797.046-.875 1.203-.953.938.062.984.89Zm.297-.344v-.485h2.344v.485h-.86V33h-.625v-2.406zm3.25 0v.765h.516q.421 0 .437-.406-.015-.36-.437-.36zm0 1.25V33h-.625v-2.89h1.234q.985.03 1 .75-.015.562-.593.703v.015q.421.047.515.64 0 .048.016.094.03.532.156.688h-.672a4 4 0 0 1-.11-.781q-.046-.375-.265-.375zm3.359 1.187q-1.36-.03-1.39-1.468.03-1.47 1.39-1.516 1.329.046 1.375 1.515-.046 1.438-1.375 1.47Zm0-2.531q-.75 0-.734 1.063-.015 1.062.734 1.046.72 0 .72-1.047 0-1.062-.72-1.062m4.422 2.5h-.89l-1.125-2.406-.016.015V33h-.578v-2.89h.922l1.094 2.28.015-.015v-2.266h.578zm2.438-1.062h-.563v-.485h1.172v1.453a2.2 2.2 0 0 1-.64.094q-.25.03-.657.031-1.327-.062-1.36-1.468.033-1.407 1.36-1.516 1.344 0 1.344.937h-.656q0-.484-.578-.484-.813.03-.813 1.063 0 1.03.813 1.046.234 0 .547-.047.015 0 .03-.015v-.61Zm-18.375 3.109h-.656q-.032-.516-.563-.547-.516.03-.547 1.063.031 1.03.547 1.046.531-.015.563-.547h.656q-.063.954-1.219.97-1.171-.032-1.203-1.47.03-1.468 1.203-1.515 1.156.03 1.219 1m1.656 1.984q-1.36-.03-1.39-1.468.03-1.47 1.39-1.516 1.328.046 1.375 1.516-.047 1.437-1.375 1.468m0-2.531q-.75 0-.734 1.063-.016 1.062.734 1.046.72 0 .719-1.047 0-1.062-.719-1.062m4.422 2.5h-.89l-1.126-2.406-.015.015V37h-.578v-2.89h.921l1.094 2.28.016-.015v-2.266h.578zm1.344 0-1.063-2.89h.672l.75 2.28h.016l.75-2.28h.61L28.851 37h-.672Zm2 0v-2.89h1.937v.484h-1.312v.672h1.218v.484h-1.218v.766h1.36V37zm4.765-1.953h-.656q-.03-.516-.562-.547-.516.03-.547 1.063.03 1.03.547 1.046.53-.015.562-.547h.656q-.062.954-1.218.97-1.173-.032-1.204-1.47.031-1.468 1.204-1.515 1.156.03 1.218 1m.141-.453v-.485h2.344v.485h-.86V37h-.625v-2.406zm3.266-.484V37h-.625v-2.89zm1.796 2.921q-1.36-.03-1.39-1.468.03-1.47 1.39-1.516 1.329.046 1.375 1.516-.046 1.437-1.375 1.468m0-2.531q-.75 0-.734 1.063-.015 1.062.734 1.046.72 0 .72-1.047 0-1.062-.72-1.062M44.57 37h-.89l-1.125-2.406-.016.015V37h-.578v-2.89h.922l1.094 2.28.015-.015v-2.266h.578z" fill="#fff"/><defs><clipPath id="a"><path fill="#fff" d="M0 0h48v40H0z"/></clipPath></defs></svg>