<svg width="48" height="40" fill="none" xmlns="http://www.w3.org/2000/svg"><g clip-path="url(#a)"><path fill-rule="evenodd" clip-rule="evenodd" d="M0 38a2 2 0 0 0 2 2h44a2 2 0 0 0 2-2V2A2 2 0 0 0 46.15.005L46 0H2l-.15.005A2 2 0 0 0 0 2zM27 2H2v25h25zM2 29v9h13v-9zm15 9h29v-9H17zm29-11V2H29v25z" fill="#505050"/></g><path fill="#3a6af6" d="M2 29h13v9H2z"/><path fill-rule="evenodd" clip-rule="evenodd" d="M11.563 31.516v-.793h-.63l.11-.328H9.84l-.11.328H7.215l-.137-.328H5.875l.11.328h-.63v.793zM9.183 32.8q.192.027.301-.192l.082-.164h1.996v-.683H9.758l.027-.082h-.93l-.136.273q-.082.192-.274.164h-.41v.684h1.149Zm-2.761-1.012v2.023h-.93V31.79h.93Zm1.367 2.023V31.79h-.848v2.023h.848Zm3.774 0H9.02q-.52.029-.602-.246l-.355-.656h1.093l.082.11q.028.163.246.136h2.079zm0 2.817v-.738h-.247v-1.832H5.52v1.832h-.192v.738h6.234Zm-5.141-.738h.793v-1.04h-.793zm1.613 0v-1.04h.766v1.04zm1.64 0h.794v-1.04h-.793z" fill="#fff" stroke="#505050"/><path fill-rule="evenodd" clip-rule="evenodd" d="M11.563 31.516v-.793h-.63l.11-.328H9.84l-.11.328H7.215l-.137-.328H5.875l.11.328h-.63v.793zM9.183 32.8q.192.027.301-.192l.082-.164h1.996v-.683H9.758l.027-.082h-.93l-.136.273q-.082.192-.274.164h-.41v.684h1.149Zm-2.761-1.012v2.023h-.93V31.79h.93Zm1.367 2.023V31.79h-.848v2.023h.848Zm3.774 0H9.02q-.52.029-.602-.246l-.355-.656h1.093l.082.11q.028.163.246.136h2.079zm0 2.817v-.738h-.247v-1.832H5.52v1.832h-.192v.738h6.234Zm-5.141-.738h.793v-1.04h-.793zm1.613 0v-1.04h.766v1.04zm1.64 0h.794v-1.04h-.793z" fill="#fff"/><path fill="#ccc" d="M2 2h25v25H2z"/><path d="M14.5 26a.1.1 0 0 1-.076-.034l-6.393-6.772a.12.12 0 0 1-.023-.124.1.1 0 0 1 .04-.05.1.1 0 0 1 .06-.02h12.785q.032 0 .06.02.025.019.039.05a.12.12 0 0 1-.023.124l-6.393 6.773A.1.1 0 0 1 14.5 26" fill="#3a6af6"/><path d="m6 16 8.5 9 8.5-9z" fill="#fff"/><path fill-rule="evenodd" clip-rule="evenodd" d="M6 16h17l-8.5 9zm.609.267 7.891 8.355 7.891-8.355z" fill="#505050"/><path d="M14.5 23a.12.12 0 0 1-.083-.033L5.034 14a.11.11 0 0 1-.025-.122.1.1 0 0 1 .043-.05.12.12 0 0 1 .065-.019h2.631V4.112a.1.1 0 0 1 .035-.08A.12.12 0 0 1 7.866 4h13.27a.12.12 0 0 1 .082.033.1.1 0 0 1 .035.079v9.695h2.63a.12.12 0 0 1 .065.02.1.1 0 0 1 .043.05q.013.03.007.064a.1.1 0 0 1-.032.058l-9.383 8.967A.12.12 0 0 1 14.5 23" fill="#3a6af6"/><path fill-rule="evenodd" clip-rule="evenodd" d="M20.56 10.146s-.096-1.093-.346-1.548c-.117-.211-.363-.811-1.574-1.327-.45-.192-1.762-.261-1.762-.261s-1.087.052-1.878.613-1.21 1.749-1.21 1.749-.376 1.353-.294 2.373c.061.763.264 1.708.696 2.421.095.156.424.762 1.395 1.15.856.342 1.951.267 1.951.267s1.343-.117 2.144-.81.877-2.221.877-2.221H18.36s-.065.744-.234.997c-.073.11-.35.358-.74.453-.08.02-.442.164-.911-.122-.099-.06-.363-.285-.543-.823-.05-.148-.29-.673-.194-2.476.012-.222.13-1.043.58-1.627.075-.098.425-.33.88-.296.1.007.596.073.928.544.148.21.234.944.234.944z" fill="#505050"/><path d="M16.995 15.407q3.18-.044 3.352-2.664h-1.805q-.086 1.46-1.547 1.504-1.417-.044-1.504-2.88.087-2.835 1.504-2.921 1.461.086 1.547 1.504h1.805q-.172-2.664-3.352-2.75-3.222.129-3.308 4.168.086 3.953 3.308 4.039" fill="#fff"/><path fill-rule="evenodd" clip-rule="evenodd" d="M13.4 9.2a2.2 2.2 0 1 1-4.4 0 2.2 2.2 0 0 1 4.4 0m-1.4.02a.8.8 0 1 1-1.6 0 .8.8 0 0 1 1.6 0" fill="#505050"/><path fill-rule="evenodd" clip-rule="evenodd" d="M9.2 9.221a2 2 0 1 1 4 0 2 2 0 0 1-4 0m3 0a1 1 0 1 0-2 0 1 1 0 0 0 2 0" fill="#fff"/><path fill="#3a6af6" d="M29 2h17v25H29z"/><path d="M35.844 4.091H34.5v-.906h2.531v1.906q.094 1.031-.781.938h-.594v.937h1.282v2.438q.093.843-.72.75H34.5v-.781h1.125q.218.03.188-.25V7.935H34.5V5.029h1.125q.25.03.219-.219zm1.5 1.469V3.185h4.25v1.656q0 .72-.719.719h-.844v.344h1.532v1.968q.03.782-.782.75h-.75v.72h.282q.187.03.156-.188V8.81h1.062v.781q0 .657-.593.625h-3.813v-.875h1.719v-.75H37.28V5.904h1.594V5.56zm1.093-.875h1.876q.186 0 .187-.188v-.406h-2.063zm.407 3.063V6.81h-.438v.938zm1.187 0h.25q.188 0 .188-.188v-.719h-.438zm-2.406 4.843v-.875h.219a.3.3 0 0 0 .25-.218l.125-.375h1.187l-.031.28h2.344v.845l-1.313 1.28.313.25q.093.063.437.063h.563v.907h-1.063q-.468 0-.812-.25l-.313-.282-.281.219q-.375.282-.75.281h-.875v-.875h.438q.187 0 .343-.125l.282-.187-.688-.75h1.406l.563-.5h-.907a1.45 1.45 0 0 1-.906.312zm1.094 4.156h.781v-.874h-.781zm-4.063-5.5h2.782v2.626q-.032.562-.344.593.343.032.312.782v2.03q.063.657-.562.595h-1.188v.343h-1zm1.032 2.813h.562q.188 0 .188-.188v-1.75h-.75zm.718 2.75v-1.531q0-.282-.187-.281h-.532v2.03h.5q.22 0 .22-.218Zm4.125-1.75h1.125v.813h-1.093v.874h1.156v.907H40.53v.531H39.5v-.531h-1.969v-.907h.188v-1.624h1.75v-.313h1.062zm-4.812 8.344q-.782.156-.938-.719l-.375-1.188h1.125l.219.657q.094.437.344.375h.187v.875zm-1.282 1.937h.344q.188.031.25-.344l.25-1.28h1.094l-.344 1.812q-.03.687-.937.625h-.657zm.97-4.156q-.438.063-.594-.656l-.407-1.438h1.063l.281.875q.157.375.25.313h.25v.906zm2.124-1.156v.437h2.657v-.437zM40 21.779q.219 0 .219-.25v-.219H37.53v.469zm-3.563.843v-3.53h4.876v2.405q.125 1.282-.876 1.125zm-.218 2.688h.218v-2.313h4.876v2.313h.124v.875H36.22zm1.562-1.469h-.406v1.469h.406zm.875 1.469h.375v-1.469h-.375zm1.313 0h.343v-1.469h-.343z" fill="#fff"/><path fill-rule="evenodd" clip-rule="evenodd" d="M35.625 9.373q.218.03.188-.25V7.935H34.5V5.029h1.125q.25.03.219-.219v-.719H34.5v-.906h2.531v1.906q.02.215-.003.381l-.015.088a.7.7 0 0 1-.104.247.5.5 0 0 1-.128.126q-.193.132-.531.096h-.594v.937h1.282v2.438q.066.59-.313.722a.9.9 0 0 1-.406.028H34.5v-.781zm.567 1.28H34.5a.5.5 0 0 1-.5-.5v-.78a.5.5 0 0 1 .5-.5h.813v-.438H34.5a.5.5 0 0 1-.5-.5V5.029a.5.5 0 0 1 .326-.469.5.5 0 0 1-.326-.469v-.906a.5.5 0 0 1 .5-.5h2.531a.5.5 0 0 1 .157.025.5.5 0 0 1 .156-.025h4.25a.5.5 0 0 1 .5.5v1.656c0 .243-.047.493-.18.707a.5.5 0 0 1 .148.356v1.96c.008.222-.022.452-.122.657a.5.5 0 0 1 .091.289v.781c0 .282-.062.593-.286.829-.23.242-.537.308-.82.296h-1.227a.5.5 0 0 1 .158.188h1.863a.5.5 0 0 1 .5.5v.844a.5.5 0 0 1-.151.357l-.754.736h.405a.5.5 0 0 1 .5.5v.907q-.001.136-.067.249.004.03.004.063v.813a.5.5 0 0 1-.229.42.5.5 0 0 1 .292.454v.907a.5.5 0 0 1-.5.5h-.688v.031a.5.5 0 0 1-.208.406h.49a.5.5 0 0 1 .5.5v2.383c.036.404.008.814-.183 1.137a.5.5 0 0 1 .182.386v1.982a.5.5 0 0 1 .126.331v.875a.5.5 0 0 1-.5.5h-5.22a.5.5 0 0 1-.346-.14c-.245.104-.523.126-.795.109h-.64a.5.5 0 0 1-.5-.5v-.813a.5.5 0 0 1 .5-.5h.115l.225-1.152c-.277-.219-.416-.545-.482-.883l-.366-1.158a.5.5 0 0 1 .477-.65h.026a2 2 0 0 1-.105-.347l-.402-1.424a.5.5 0 0 1 .407-.63.5.5 0 0 1-.176-.38v-6.97a.5.5 0 0 1 .5-.5h2.782a.5.5 0 0 1 .342.136.5.5 0 0 1 .147-.167h-.802a.5.5 0 0 1-.327-.121c-.197.07-.41.078-.606.059Zm4.745-.437q.594.032.594-.625V8.81H40.47v.344a.3.3 0 0 1 0 .104q-.015.07-.076.083a.2.2 0 0 1-.08 0h-.282v-.718h.75q.537.02.705-.313a.9.9 0 0 0 .077-.438V5.904H40.03V5.56h.844q.335 0 .514-.156.205-.18.205-.563V3.185h-4.25V5.56h1.531v.344H37.28V8.59h1.563v.75h-1.719v.875zm-3 1.471a.3.3 0 0 1-.093.03h-.219v.874h.531a1.6 1.6 0 0 0 .32-.034q.315-.07.587-.278h.906l-.563.5H38l.688.75-.282.187a.52.52 0 0 1-.344.125h-.437v.875h.875a1.1 1.1 0 0 0 .526-.138q.112-.06.224-.143l.281-.219.313.282q.297.216.687.245.062.005.125.005h1.063v-.907h-.563a1.7 1.7 0 0 1-.33-.024.3.3 0 0 1-.107-.038l-.313-.25 1.313-1.281v-.844h-2.344l.031-.281H38.22l-.125.375a.3.3 0 0 1-.157.19Zm2.594 3.373v-.25H39.47v.313h-1.75v1.624h-.188v.907H39.5v.531h1.031v-.531h1.188v-.907h-1.157v-.874h1.094v-.813zM39 18.154h-1.397c-.232.204-.53.24-.782.218h-.69a.5.5 0 0 1-.35.329.5.5 0 0 1 .164.237l.008.027a.5.5 0 0 1 .484-.374h2.772a.5.5 0 0 1-.209-.406zm-3.25 1.812-.281-.875h-1.063l.407 1.438q.066.305.182.468.159.224.411.188h.844v-.906H36q-.026.018-.059 0l-.004-.003q-.078-.048-.187-.31m-.219 1.531h-1.125l.375 1.188q.072.4.274.585a.6.6 0 0 0 .226.128.9.9 0 0 0 .438.006h.562v-.875h-.187a.2.2 0 0 1-.116 0 .2.2 0 0 1-.04-.018q-.127-.073-.188-.357zm.907 3.813h-.22v.875h5.22v-.875h-.126v-2.313h-4.874zm4-2.688q.422.067.644-.125.303-.26.23-1v-2.406h-4.874v3.531zM36.03 25.53l.344-1.813H35.28l-.25 1.281q-.053.318-.195.344a.2.2 0 0 1-.055 0h-.343v.813h.656q.396.027.625-.089.294-.15.312-.536m.813-7.657a.8.8 0 0 0 .235-.006.37.37 0 0 0 .285-.212.75.75 0 0 0 .042-.375v-2.031l.003-.125q0-.126-.013-.226a1 1 0 0 0-.038-.18q-.07-.215-.233-.246l-.031-.005.031-.004q.233-.046.294-.415.013-.08.019-.175v-2.624h-2.782v6.968h1v-.344zM35.348 4.875v-.003Zm5.152-.784v.406a.3.3 0 0 1-.016.094q-.039.094-.172.094h-1.874v-.594zM38.406 6.81v.938h.438V6.81zm1.625.031h.438v.719q0 .188-.188.188h-.25V6.84Zm-4.343 5.282h.75v1.75q0 .187-.188.187h-.563v-1.938Zm0 2.875h.53q.189 0 .188.28v1.532q0 .219-.218.219h-.5zm1.843 5.468v-.437h2.657v.437zm2.688.844v.219q0 .25-.219.25h-2.469v-.469zm-2.844 2.531h.406v1.469h-.406zm1.281 0v1.469h.375v-1.469zm1.657 1.469h-.344v-1.469h.343zm-1.594-8.563v-.874h.781v.874z" fill="#505050"/><path fill="#3a6af6" d="M17 29h29v9H17z"/><path d="M25.367 30.938h-.594q-.015-.438-.468-.438-.453.03-.47.375 0 .282.454.39a.2.2 0 0 0 .078.016q.016 0 .078.016 1.015.202 1 .797-.016.906-1.234.937-1.125 0-1.11-.953h.626q0 .5.484.531.563-.015.578-.375 0-.297-.547-.406a.5.5 0 0 1-.11-.031q-.952-.22-.952-.797.046-.891 1.203-.953.938.047.984.89Zm.297-.344v-.485h2.344v.485h-.86V33h-.625v-2.406zm3.25 0v.765h.516q.437 0 .437-.406 0-.375-.437-.36zm0 1.25V33h-.625v-2.89h1.234q.985.015 1 .75-.015.562-.593.703v.015q.421.047.515.64.015.063.016.094.046.516.156.688h-.672a4 4 0 0 1-.11-.781q-.03-.375-.265-.375zm3.359 1.187q-1.36-.03-1.39-1.468.047-1.485 1.39-1.516 1.329.03 1.375 1.515-.046 1.438-1.375 1.47Zm0-2.531q-.734 0-.734 1.063 0 1.046.734 1.046.72 0 .72-1.047 0-1.062-.72-1.062m4.422 2.5h-.89l-1.125-2.406-.016.015V33h-.578v-2.89h.922l1.094 2.28.015-.015v-2.266h.578zm2.438-1.062h-.563v-.485h1.172v1.453a2.2 2.2 0 0 1-.64.094q-.25.03-.657.031-1.327-.078-1.36-1.468.033-1.422 1.36-1.516 1.36 0 1.344.937h-.656q0-.484-.578-.484-.797.015-.813 1.063.015 1.03.813 1.046.234 0 .547-.062-.015.015.03 0v-.61Zm-14.281 3.109h-.657q-.03-.531-.562-.547-.516.03-.547 1.063.03 1.016.547 1.046.546-.015.562-.547h.657q-.047.954-1.22.97-1.17-.032-1.202-1.47.046-1.468 1.203-1.515 1.156.015 1.219 1m1.656 1.984q-1.36-.03-1.39-1.468.046-1.485 1.39-1.516 1.328.03 1.375 1.516-.047 1.437-1.375 1.468m0-2.531q-.735 0-.735 1.063 0 1.046.735 1.046.719 0 .719-1.047 0-1.062-.72-1.062Zm3.109 2.531q-1.36-.03-1.39-1.468.045-1.485 1.39-1.516 1.329.03 1.375 1.516-.047 1.437-1.375 1.468m0-2.531q-.735 0-.734 1.063 0 1.046.734 1.046.72 0 .719-1.047 0-1.062-.719-1.062m3.688 2.5h-1.86v-2.89h.61v2.406h1.25zm.953-2.89V37h-.625v-2.89zM37.367 37h-.89l-1.125-2.406-.016.015V37h-.578v-2.89h.922l1.093 2.28.016-.015v-2.266h.578zm2.438-1.062h-.563v-.485h1.172v1.453a2.2 2.2 0 0 1-.64.094 6 6 0 0 1-.657.031q-1.327-.078-1.36-1.468.033-1.422 1.36-1.516 1.359 0 1.344.937h-.656q0-.484-.578-.484-.797.016-.813 1.063.015 1.03.813 1.046.234 0 .546-.062-.015.015.032 0z" fill="#fff"/><path fill-rule="evenodd" clip-rule="evenodd" d="M24.924 31.438a2 2 0 0 0-.15-.057 3 3 0 0 0-.407-.1.3.3 0 0 1-.078-.015q-.453-.11-.453-.391a.35.35 0 0 1 .088-.231q.116-.126.38-.144a1 1 0 0 1 .104.006.44.44 0 0 1 .219.085q.114.09.14.267l.006.08h.594a1.2 1.2 0 0 0-.068-.344.8.8 0 0 0-.135-.233.8.8 0 0 0-.304-.216 1.4 1.4 0 0 0-.477-.098l-.078.005-.031.003a1.6 1.6 0 0 0-.637.174q-.43.235-.457.771 0 .358.365.578.081.049.182.092a2.5 2.5 0 0 0 .416.131 1 1 0 0 0 .1.027q.546.11.546.406a.33.33 0 0 1-.08.213q-.136.153-.498.162h-.01a.55.55 0 0 1-.313-.11.45.45 0 0 1-.152-.293 1 1 0 0 1-.01-.128h-.624v.052q.004.262.1.448.138.27.467.378a1.7 1.7 0 0 0 .542.075h.012q.476-.015.766-.163.447-.228.456-.774.012-.431-.52-.657Zm1.021.667c-.008.425-.165.81-.514 1.074-.324.247-.752.34-1.207.352h-.013c-.433 0-.852-.09-1.166-.359-.33-.283-.45-.684-.443-1.102a.5.5 0 0 1 .274-.438 1.1 1.1 0 0 1-.196-.658c.022-.415.182-.787.513-1.05.314-.248.724-.353 1.163-.376h.052c.311.015.612.087.864.25a.5.5 0 0 1 .392-.189h2.344q.074 0 .14.02a.5.5 0 0 1 .141-.02h1.242c.378.006.748.08 1.035.296q.157.12.258.27l.061-.072c.35-.38.837-.543 1.377-.556h.023c.506.012.964.158 1.306.495a.5.5 0 0 1 .495-.433h.922a.5.5 0 0 1 .45.284l.16.33v-.114a.5.5 0 0 1 .5-.5h.577a.5.5 0 0 1 .492.411c.326-.295.752-.439 1.223-.472l.035-.001c.495 0 .955.082 1.302.324.382.267.55.67.542 1.122a.5.5 0 0 1-.084.27.5.5 0 0 1 .037.19v1.453a.5.5 0 0 1-.356.48 2.7 2.7 0 0 1-.753.114 6 6 0 0 1-.717.03c-.47-.027-.898-.163-1.227-.453a.5.5 0 0 1-.494.423h-.89a.5.5 0 0 1-.453-.288l-.188-.402V33a.5.5 0 0 1-.5.5h-.578a.5.5 0 0 1-.498-.451c-.342.33-.8.47-1.303.482h-.023c-.442-.01-.85-.116-1.176-.358a.5.5 0 0 1-.47.327h-.67a.5.5 0 0 1-.486-.379 4 4 0 0 1-.046-.207V33a.5.5 0 0 1-.5.5h-.625a.5.5 0 0 1-.5-.5v-1.906h-.14V33a.5.5 0 0 1-.5.5h-.626a.5.5 0 0 1-.5-.5v-1.906h-.18a.5.5 0 0 1-.183.248c.188.206.292.465.285.763m.578.895h.625v-2.406h.86v-.485h-2.344v.485h.86zm1.766 0h.625v-1.156h.656q.021 0 .04.003.147.022.2.217a1 1 0 0 1 .026.155q.015.406.11.781h.671q-.088-.138-.136-.5l-.02-.188a.4.4 0 0 0-.016-.093 1.3 1.3 0 0 0-.076-.286.6.6 0 0 0-.19-.26.47.47 0 0 0-.245-.094h-.004v-.017h.002a1 1 0 0 0 .12-.037.8.8 0 0 0 .206-.107.6.6 0 0 0 .167-.182.77.77 0 0 0 .09-.489q-.075-.55-.79-.626a2 2 0 0 0-.202-.012H28.29zm.625-1.64h.516a1 1 0 0 0 .14-.013l.014-.003a.33.33 0 0 0 .274-.28 1 1 0 0 0 .01-.11q0-.271-.229-.339a.6.6 0 0 0-.123-.02l-.086-.001h-.516zm1.976.067-.007.136q.021.959.632 1.292.306.166.758.176.457-.011.762-.187.417-.241.55-.792.056-.22.063-.49a2.5 2.5 0 0 0-.062-.505q-.153-.647-.673-.88a1.65 1.65 0 0 0-1.289 0 1.13 1.13 0 0 0-.623.696 2 2 0 0 0-.111.554m.974-.808q-.325.237-.325.944 0 .622.26.874.173.17.465.172h.02a.63.63 0 0 0 .458-.175q.25-.255.25-.871 0-.71-.32-.945a.65.65 0 0 0-.388-.118h-.021a.67.67 0 0 0-.4.12ZM34.086 33h.578v-2.39l.016-.016L35.805 33h.89v-2.89h-.578v2.265l-.015.016-1.094-2.282h-.922zm3.11-.788q.172.477.618.677a1.8 1.8 0 0 0 .732.142h.009q.199-.003.356-.013.105-.007.19-.018a2.3 2.3 0 0 0 .641-.094v-1.453H38.57v.485h.563v.609l-.03.008h-.001q-.009 0 0-.008a3 3 0 0 1-.547.063 1 1 0 0 1-.11-.008.74.74 0 0 1-.382-.15q-.31-.248-.32-.89.01-.725.396-.955a.8.8 0 0 1 .339-.103l.077-.004q.264 0 .408.102.16.112.17.351v.031h.656v-.042a.84.84 0 0 0-.128-.458q-.155-.234-.492-.343a2.2 2.2 0 0 0-.614-.092h-.01q-.049-.002-.1-.002-.285.02-.512.102-.541.196-.738.748-.1.285-.11.666.01.37.11.65Zm-5.062-1.162c-.038.055-.095.2-.095.512 0 .306.056.446.093.498q.02.028.035.032a.3.3 0 0 0 .106.017c.06 0 .087-.01.096-.015a.1.1 0 0 0 .031-.03c.037-.052.092-.194.092-.502 0-.313-.056-.46-.094-.516-.014-.022-.024-.028-.031-.031a.2.2 0 0 0-.094-.015.24.24 0 0 0-.104.017.1.1 0 0 0-.035.033m-7.068 3.115a1.3 1.3 0 0 0-.233-.247c-.324-.265-.746-.365-1.193-.371h-.027c-.5.02-.942.202-1.25.591-.295.37-.416.864-.433 1.409v.026c.012.537.13 1.026.43 1.392.313.383.76.553 1.26.566h.02c.447-.006.87-.1 1.195-.358q.134-.108.231-.238l.051.057c.352.372.84.527 1.38.54h.023c.532-.013 1.013-.17 1.36-.542q.097-.102.172-.218.077.117.175.22c.351.372.84.527 1.379.54h.023c.51-.013.974-.158 1.317-.497a.5.5 0 0 0 .5.465h1.859a.5.5 0 0 0 .164-.028.5.5 0 0 0 .164.028h.625a.5.5 0 0 0 .25-.067.5.5 0 0 0 .25.067h.578a.5.5 0 0 0 .5-.5v-.19l.188.402a.5.5 0 0 0 .453.288h.89a.5.5 0 0 0 .494-.423c.329.29.756.426 1.227.453l.03.001c.265 0 .497-.01.687-.031q.385-.004.753-.115a.5.5 0 0 0 .356-.479v-1.453a.5.5 0 0 0-.038-.19.5.5 0 0 0 .085-.27c.007-.451-.16-.855-.542-1.122-.347-.242-.807-.324-1.302-.324l-.035.001c-.472.033-.897.177-1.223.472a.5.5 0 0 0-.492-.41h-.578a.5.5 0 0 0-.5.5v.114l-.159-.33a.5.5 0 0 0-.45-.285h-.922a.5.5 0 0 0-.25.067.5.5 0 0 0-.25-.067h-.625a.5.5 0 0 0-.5.5v1.907h-.578v-1.907a.5.5 0 0 0-.5-.5h-.61a.5.5 0 0 0-.497.447c-.342-.347-.806-.497-1.32-.509h-.022c-.54.013-1.027.175-1.377.556a2 2 0 0 0-.173.226 1.6 1.6 0 0 0-.17-.224c-.347-.381-.83-.545-1.366-.558h-.024c-.54.013-1.026.175-1.376.556zm.24.541a1.6 1.6 0 0 0-.118.32 2.4 2.4 0 0 0-.068.615 2.2 2.2 0 0 0 .062.438q.047.18.125.328.157.293.443.447.305.166.758.177.456-.011.761-.187.38-.22.525-.696a2.3 2.3 0 0 0 .089-.586v-.01a2.4 2.4 0 0 0-.086-.583q-.165-.576-.65-.792a1.65 1.65 0 0 0-1.289 0 1.1 1.1 0 0 0-.552.53Zm.727 1.731q.174.17.465.172h.02a.63.63 0 0 0 .458-.175q.25-.255.25-.871 0-.71-.32-.945a.65.65 0 0 0-.388-.118h-.02a.67.67 0 0 0-.4.12q-.325.236-.325.943 0 .622.26.874m-1.416-.874v-.016h-.422a.5.5 0 0 1-.499-.47.4.4 0 0 0-.01-.07h-.002l-.001.003c-.04.078-.086.246-.097.552.01.3.056.464.096.538l.001.003h.007l.005-.055a.5.5 0 0 1 .5-.486zm-.422.5q-.008.277-.162.415-.136.12-.389.131h-.017a.43.43 0 0 1-.284-.13q-.236-.239-.257-.916.023-.75.301-.971a.43.43 0 0 1 .24-.092h.024a.65.65 0 0 1 .31.084q.215.13.234.463h.657a1.3 1.3 0 0 0-.076-.374 1 1 0 0 0-.058-.126q-.175-.313-.57-.43a2 2 0 0 0-.515-.07l-.028.001q-.256.015-.457.1-.683.294-.718 1.414.023 1.04.64 1.344a1.3 1.3 0 0 0 .563.125h.012q.372-.006.63-.108a.86.86 0 0 0 .5-.48q.066-.167.077-.38zm4.118-1.094q-.075.256-.086.583v.022q.008.323.084.575.146.488.548.705.306.166.758.177.456-.011.762-.187.441-.256.566-.862.04-.192.047-.42-.007-.234-.047-.433-.14-.706-.688-.952a1.65 1.65 0 0 0-1.29 0q-.486.218-.654.792m.894-.35q-.324.237-.324.944 0 .621.26.874.174.17.464.172h.02a.63.63 0 0 0 .459-.175q.25-.255.25-.871 0-.71-.32-.945a.65.65 0 0 0-.388-.118h-.021a.67.67 0 0 0-.4.12ZM31.445 37h1.86v-.484h-1.25v-2.407h-.61zm2.188 0h.625v-2.89h-.625zm3.156-.625-.016.016-1.093-2.282h-.922V37h.578v-2.39l.016-.016L36.477 37h.89v-2.89h-.578zm1.078-1.478q-.1.285-.11.666.01.37.11.65.174.475.619.676a1.8 1.8 0 0 0 .732.142h.009a7 7 0 0 0 .356-.013q.105-.007.19-.018a2.3 2.3 0 0 0 .641-.094v-1.453h-1.172v.484h.563v.61l-.03.008h-.002q-.008 0 0-.008a3 3 0 0 1-.547.063 1 1 0 0 1-.109-.008.74.74 0 0 1-.382-.15q-.312-.248-.32-.89.01-.725.396-.955a.8.8 0 0 1 .339-.103l.077-.004q.264 0 .408.102.16.113.17.351v.031h.656v-.042a.84.84 0 0 0-.128-.458q-.155-.234-.492-.343a2.2 2.2 0 0 0-.614-.093h-.01l-.1-.001q-.285.02-.512.102-.541.195-.738.748m-11.499.153c-.038.055-.095.2-.095.513 0 .305.057.445.093.497.014.02.025.028.035.032a.25.25 0 0 0 .107.017.2.2 0 0 0 .096-.015.1.1 0 0 0 .03-.03c.037-.052.093-.194.093-.502 0-.313-.056-.46-.094-.516-.015-.022-.025-.028-.032-.031a.2.2 0 0 0-.093-.015.24.24 0 0 0-.104.017.1.1 0 0 0-.036.033m3.11 0c-.039.055-.095.2-.095.513 0 .305.056.445.093.497.014.02.025.028.035.032a.3.3 0 0 0 .106.017c.06 0 .087-.01.096-.015a.1.1 0 0 0 .031-.03c.036-.052.092-.194.092-.502 0-.313-.056-.46-.094-.516-.015-.022-.025-.028-.031-.031a.2.2 0 0 0-.094-.015.24.24 0 0 0-.104.017.1.1 0 0 0-.035.033" fill="#505050"/><defs><clipPath id="a"><path fill="#fff" d="M0 0h48v40H0z"/></clipPath></defs></svg>