<svg width="48" height="40" fill="none" xmlns="http://www.w3.org/2000/svg"><g clip-path="url(#a)"><path fill-rule="evenodd" clip-rule="evenodd" d="M0 38a2 2 0 0 0 2 2h44a2 2 0 0 0 2-2V2A2 2 0 0 0 46.15.005L46 0H2l-.15.005A2 2 0 0 0 0 2zM27 2H2v25h25zM2 29v9h13v-9zm15 9h29v-9H17zm29-11V2H29v25z" fill="#505050"/></g><path fill="#fffd54" d="M2 29h13v9H2z"/><path fill-rule="evenodd" clip-rule="evenodd" d="M7.625 36.273a.96.96 0 0 1-.663.329H5.547v-.711h1.121q.165 0 .328-.164l.137-.164H5.629v-2.817h2.434v-.328H5.52v-.766h.683v-.328H5.52v-.738h.683v-.273h.957v.273h2.762v-.3h.93v.3h.765v.738h-.765v.328h.793v.766H9.047v.328h2.488v1.914q.137 1.04-1.039.903h-.328l.11.136q0 .027.027.055.191.137.3.11h1.04v.683h-1.56q-.436-.056-.573-.219l-.63-.766h-.519zm-.465-4.62h2.735v-.329H7.16zm.875 2.132h-1.45v-.3h1.45zm1.012 0h1.558v-.3H9.047zm1.504 1.067H9.074v-.329h1.559v.22q0 .109-.082.109Zm-3.965 0h1.45v-.329h-1.45z" fill="#fff" stroke="#505050"/><path fill-rule="evenodd" clip-rule="evenodd" d="M7.545 36.273a.96.96 0 0 1-.663.329H5.467v-.711h1.121q.165 0 .329-.164l.136-.164H5.55v-2.817h2.434v-.328H5.44v-.766h.684v-.328H5.44v-.738h.684v-.273h.957v.273h2.761v-.3h.93v.3h.766v.738h-.766v.328h.793v.766H8.967v.328h2.489v1.914q.135 1.04-1.04.903h-.328l.11.136q0 .027.027.055.192.137.3.11h1.04v.683h-1.559q-.437-.056-.574-.219l-.629-.766h-.52zm-.464-4.62h2.734v-.329H7.08v.328Zm.875 2.132h-1.45v-.3h1.45zm1.011 0h1.559v-.3H8.967zm1.504 1.067H8.995v-.329h1.558v.22q0 .109-.082.109m-3.965 0h1.45v-.329h-1.45z" fill="#fff"/><path fill="#ccc" d="M2 2h25v25H2z"/><path d="M23.652 20.016a10 10 0 0 1-.32.514l-.001.003q-.167.25-.348.49l-.004.005q-.18.24-.374.465l-.006.007q-.193.225-.4.44l-.008.008a10 10 0 0 1-.423.412l-.01.01-.143.13-.005.004q-.146.129-.297.251l-.013.011-.148.118-.01.008a10 10 0 0 1-.308.23l-.016.012q-.075.054-.153.107l-.014.01a10 10 0 0 1-.319.21l-.017.01-.158.098-.019.011a10 10 0 0 1-.328.189l-.02.01-.161.087-.024.012-.167.085h-.001l-.17.083-.02.01a11 11 0 0 1-.363.162l-.01.003-.168.07-.021.008-.17.066-.03.01-.173.063-.016.006-.17.057-.02.007-.175.055-.032.01-.176.052-.02.005a8 8 0 0 1-.37.096l-.035.008a10 10 0 0 1-.579.118l-.217.035-.03.005-.18.025-.012.002-.188.022-.036.004-.184.017-.032.003-.187.014h-.008a8 8 0 0 1-.415.018h-.035a12 12 0 0 1-.331.002h-.045l-.091-.003-.053-.002-.083-.002-.056-.003-.137-.007-.078-.005-.057-.004-.079-.006-.055-.005-.08-.007-.054-.005-.085-.009-.048-.005-.101-.012-.031-.004-.133-.018-.022-.003-.11-.016-.042-.007-.088-.014-.049-.008-.082-.015-.05-.01-.08-.015-.131-.026-.05-.01-.214-.049-.042-.01-.096-.024a10 10 0 0 1-.287-.077l-.019-.005-.107-.032-.034-.01-.09-.028-.04-.012-.085-.028-.041-.013-.084-.029-.125-.043-.038-.014-.088-.033-.034-.012a9 9 0 0 1-.487-.199l-.009-.004-.227-.103-.027-.013-.09-.043-.03-.014-.088-.045-.028-.014-.212-.11-.017-.01a10 10 0 0 1-.567-.33l-.012-.008-.098-.063-.016-.01-.093-.061-.017-.011-.093-.063-.015-.01-.096-.068-.01-.006a10 10 0 0 1-.627-.481l-.004-.004-.095-.08-.008-.007-.092-.079-.007-.007-.093-.082-.005-.004a10 10 0 0 1-.656-.65l-.002-.001-.086-.095-.005-.005-.083-.094-.004-.004A9.96 9.96 0 0 1 5 15C5 9.477 9.477 5 15 5s10 4.477 10 10a9.95 9.95 0 0 1-1.348 5.016M15 6.176a8.824 8.824 0 0 0-6.855 14.38 4.68 4.68 0 0 1 5.635-.603c.97.777 2.305 1.258 3.779 1.258 1.568 0 2.979-.544 3.96-1.412l-.024.004a2.3 2.3 0 0 0 .712-1.698c0-1.219-.883-2.207-1.973-2.207-.576 0-1.094.277-1.455.717a2.466 2.466 0 0 1 4.798.463A8.824 8.824 0 0 0 15 6.177Zm4.978 5.412L17.24 8.85l-.833.833-.829-.828 1.199-1.199a.586.586 0 0 1 .866-.042l.012.015.006-.006.38.379.004-.005 2.762 2.762a.585.585 0 1 1-.829.829m-1.218 1.813.014.014a.584.584 0 0 1-.414.999.6.6 0 0 1-.413-.172l-.013-.014h-.001l-4.002-4-4 4H9.93l-.014.014a.585.585 0 1 1-.828-.829l.014-.013 4.351-4.352a.587.587 0 0 1 .881-.074l.005-.004.425.425-.005.005zm-1.26 1.325v1.407c-.506.45-.84 1.227-.84 2.109 0 .307.041.614.125.91a2 2 0 0 1-.437.047c-.505 0-.957-.182-1.262-.469h-.008v-2.842a.166.166 0 0 0-.166-.166h-2.07a.166.166 0 0 0-.166.166v2.842h-.011a3.15 3.15 0 0 0-2.313-.066v-3.938l3.574-3.515zm-.088 5.287c.926 0 1.743-.284 2.236-.717.275-.175.45-.431.45-.717 0-.526-.59-.953-1.319-.953q-.183 0-.362.037c.211-.29.574-.482.987-.482.169 0 .335.032.49.096l-.007-.014.074.044q.196.094.345.252c.324.287.514.635.514 1.011 0 .984-1.303 1.781-2.91 1.781-1.01 0-1.898-.314-2.42-.792l.066.005c.486.278 1.139.449 1.856.449M29 2h17v25H29z" fill="#fffd54"/><path d="M34.531 9.373q.282.03.25-.25v-6H41.5v6.062q0 .22.219.25v.781h-.938a.42.42 0 0 1-.406-.25h-1.219q-.375.032-.468-.25l-.563-1.03-.5.874q-.156.438-.594.406h-1.125q-.062.313-.406.25h-.969zm5.75-.25V4.09H35.97v5.032h.468q.22 0 .25-.125L37.5 7.56 36 4.654h1.25l.906 1.75.907-1.75h1.156L38.75 7.529l.75 1.344q.094.25.281.25zm-5.687 4.375v-2.344h6.843v1.687q-.093.594-.5.657h-.25v.218h.844v.594h-.843v.281h.843v.563h-1.625q.094.28.25.281h1.375v.656h-2.125q-.436 0-1.125-.937h-.562l-.313.375-.187.187q-.344.438-.657.407h-2.124v-.657h1.437q.125 0 .281-.25.032-.03.032-.062h-1.75v-.563h.843v-.28h-.843v-.563h.843v-.25zm5.625-1.438v-.25H35.78v.25zm-4.438.563v.25h4.438v-.25zm.719.875v.25h2.969v-.25zm2.969 1.093v-.28H36.5v.28zm-2.157 2.97q.094 0 .094-.063v-1.594h1.188v1.594q.03.718-.719.687h-.938v-.625zm-.5-.25q-.03.061-.062.155-.25.72-.688.688h-1.656v-.594h.938a.42.42 0 0 0 .406-.25h1.063Zm-1.468-.095q-.344 0-.657-.656l-.124-.25h1.156q.156.25.406.25h.813v.656zM39 16.53h.969q.124 0 .25-.156l.031-.032h1.156a.3.3 0 0 0-.062.125q-.345.782-.75.75H39zm.969 1.687q-.47.063-.907-.812h1.063q.03 0 .094.062a.9.9 0 0 0 .343.094h.907v.656zm-3.438 1.218h.782v-.312h1.03v.312h.876v.844h-.875v.375h.718v3.531q.063.687-.624.625h-.094v.344h.781v.219h.125q.094 0 .094-.125v-6.125h2.468v6.437q.126.781-.656.656h-.687v-.875h.125q.125 0 .125-.125v-.968h-.344v1.312q.063.75-.625.688h-.625v-.282h-.781v.282H37.28v-.282h-.875v-.812h.875v-.344h-.75v-4.156h.782v-.375h-.782zm-1.5 1.188-.281-1.47h1.156l.188 1q.03.189.187.188h.094v.907h-.688q-.593.062-.656-.625m5.344.593h.344V20.03h-.344v1.187Zm-5.406 1.657-.157-1.313h1.094l.125.813q.032.218.188.187h.125v.906h-.75q-.625.094-.625-.593m2.687-.594h.375v-.75h-.375zm2.719.969h.344v-1.125h-.344zm-2.344.468v-.53h-.375v.75h.157q.218 0 .218-.22m-2.718 2.532h-.532v-.813h.125q.188.03.219-.156l.375-1.5h.969l-.438 1.906q-.03.656-.718.563" fill="#fff"/><path fill-rule="evenodd" clip-rule="evenodd" d="M34.281 8.94V3.123a.5.5 0 0 1 .5-.5H41.5a.5.5 0 0 1 .5.5v5.899a.5.5 0 0 1 .219.413v.781a.5.5 0 0 1-.5.5h-.04a.5.5 0 0 1 .258.438v1.687l-.006.078a1.8 1.8 0 0 1-.104.394.5.5 0 0 1 .204.403v.594a.5.5 0 0 1-.02.14q.02.068.02.141v.563a.5.5 0 0 1-.02.14q.02.068.02.141v.656c0 .131-.05.25-.133.34a.5.5 0 0 1-.08.194 3 3 0 0 1-.228.45.5.5 0 0 1 .379.485v.656a.5.5 0 0 1-.209.407h.053a.5.5 0 0 1 .5.5v6.4c.041.302.022.675-.248.945-.271.271-.644.29-.946.248h-.65a.5.5 0 0 1-.192-.038c-.179.07-.37.083-.548.07h-.604a.5.5 0 0 1-.39-.188.5.5 0 0 1-.391.188H37.28a.5.5 0 0 1-.45-.282h-.425a.5.5 0 0 1-.15-.023 1 1 0 0 1-.112.105c-.26.203-.578.233-.863.2h-.5a.5.5 0 0 1-.5-.5v-.813a.5.5 0 0 1 .413-.492l.27-1.082a1 1 0 0 1-.183-.134c-.24-.228-.307-.543-.312-.823l-.153-1.285a.5.5 0 0 1 .312-.523 1.6 1.6 0 0 1-.092-.402l-.277-1.446a.5.5 0 0 1 .491-.594h-.344a.5.5 0 0 1-.5-.5v-.594a.5.5 0 0 1 .483-.5 3 3 0 0 1-.15-.28l-.101-.201v-.001l-.001-.002-.001-.002h-.001v-.002l-.001-.001v-.001l-.001-.001v-.001l-.001-.001v-.001l-.001-.001v-.002h-.001v-.002h-.001v-.002h-.001v-.002h-.001v-.001l-.001-.001v-.001l-.001-.001v-.001l-.001-.001v-.001h-.001v-.002l-.001-.001v-.001l-.001-.002-.001-.002h-.001v-.002l-.001-.001v-.001l-.001-.001v-.001l-.001-.001v-.001l-.021-.047a.5.5 0 0 1-.157-.364v-.657q0-.082.024-.156a.5.5 0 0 1-.025-.156v-.563q.001-.073.02-.14a.5.5 0 0 1-.02-.14v-.563a.5.5 0 0 1 .157-.364v-2.23a.5.5 0 0 1 .297-.457.5.5 0 0 1-.36-.48v-.844a.5.5 0 0 1 .25-.433Zm1.674 1.714h4.473a.9.9 0 0 1-.298-.188h-.955a1.03 1.03 0 0 1-.559-.105.83.83 0 0 1-.385-.437l-.116-.213-.036.063c-.079.2-.205.387-.398.519-.206.14-.439.186-.665.173h-.81a.7.7 0 0 1-.25.188Zm-.049-.688h1.125q.438.032.594-.406l.5-.875.563 1.031q.093.282.468.25h1.219q.125.25.406.25h.938v-.78q-.219-.033-.219-.25V3.122h-6.719v6q.026.225-.15.25a.4.4 0 0 1-.1 0v.843h.969q.345.063.406-.25ZM38.75 7.53l.75 1.344q.094.25.281.25h.5V4.09H35.97v5.032h.468l.032-.001q.19-.009.218-.124L37.5 7.56 36 4.654h1.25l.906 1.75.907-1.75h1.156L38.75 7.529Zm-.218-2.938-.376.726-.375-.726zm-2.063 2.061v1.716l.463-.819zm3.312-.043-.464.91.464.832V6.609Zm-5.187 6.889h.687v.25h-.843v.562h.843v.281h-.843v.563h1.75q0 .03-.032.062-.156.25-.281.25h-1.438v.657h2.126a.5.5 0 0 0 .28-.063 1 1 0 0 0 .209-.156q.081-.08.167-.188l.187-.187.313-.375h.562a7 7 0 0 0 .313.392q.198.226.37.358a1.3 1.3 0 0 0 .2.125.6.6 0 0 0 .242.062h2.125v-.656h-1.375q-.156 0-.25-.281h1.625v-.563h-.843v-.28h.843v-.595h-.843v-.218h.25a.51.51 0 0 0 .383-.282q.081-.149.117-.375v-1.687h-6.844zm1.187-1.688v.25h4.438v-.25zm4.438 1.063v-.25H35.78v.25zm-.75 1.718v-.28H36.5v.28zM36.5 13.498v.25h2.969v-.25zm4.906 2.843H40.25l-.031.032q-.126.156-.25.156H39v.687h1.594q.194.015.374-.156.09-.085.178-.219a2.3 2.3 0 0 0 .198-.375.3.3 0 0 1 .062-.125m-.843 1.22a1 1 0 0 1-.344-.095q-.063-.062-.094-.062h-1.063a4 4 0 0 0 .177.312q.067.105.136.188.29.353.594.312h1.5v-.656h-.907Zm-1.084 1.062a1.3 1.3 0 0 1-.305-.206 2 2 0 0 1-.227-.247 1 1 0 0 1-.172.22 1 1 0 0 1-.4.233.5.5 0 0 1 .432.312h.073a.5.5 0 0 1 .464-.312zm-.135.5v6.125q0 .125-.094.125h-.125v-.22h-.781v-.343h.093q.115.01.209 0a.6.6 0 0 0 .198-.056.4.4 0 0 0 .121-.1q.126-.158.097-.469v-3.531h-.718v-.375h.875v-.844h-.875v-.312h-1.032v.312h-.78v.844h.78v.375h-.78v4.156h.75v.344h-.876v.812h.875v.282h1.063v-.282h.781v.282h.625a1 1 0 0 0 .22-.004.6.6 0 0 0 .113-.028q.337-.122.292-.656v-1.312h.344v.968q0 .125-.125.125h-.125v.875h.687q.782.126.657-.656v-6.437zm-3.313 6.562.438-1.906H35.5l-.375 1.5q-.022.134-.124.156a.3.3 0 0 1-.095 0h-.125v.813h.532q.431.059.604-.178a.5.5 0 0 0 .058-.104.8.8 0 0 0 .056-.28Zm-.437-2.219h.75v-.906h-.125a.2.2 0 0 1-.07 0q-.094-.024-.118-.187l-.125-.813h-1.093l.156 1.313q0 .39.202.53a.52.52 0 0 0 .329.073 1 1 0 0 0 .094-.01m.093-2.218h.688v-.907h-.094a.2.2 0 0 1-.11-.034.2.2 0 0 1-.029-.028.3.3 0 0 1-.048-.125l-.188-1H34.75l.281 1.469a.86.86 0 0 0 .14.437q.166.224.517.188Zm.681-2.286a.5.5 0 0 1 .163-.027h.318a.5.5 0 0 1 .221-.25h-.133a.5.5 0 0 1-.362-.156.96.96 0 0 1-.527.125h-.142a.5.5 0 0 1 .462.308m-.306-.808a.48.48 0 0 0 .376-.141 1 1 0 0 0 .157-.203 1.5 1.5 0 0 0 .12-.25l.035-.094q.03-.093.063-.156H35.75a.42.42 0 0 1-.406.25h-.938v.594h1.657Zm.876-.938v-.656h-.813q-.25 0-.406-.25h-1.157l.126.25.03.063q.052.102.104.187.096.154.194.25.16.156.328.156h1.593Zm.468.282q0 .062-.093.062h-.376v.625h.938q.705.03.72-.605v-.071l-.001-.011v-1.594h-1.188zM34.285 9.18v.003Zm.304-.304h.003Zm6.13 12.34h-.344V20.03h.344v1.187Zm-3.063.313v.75h.375v-.75zm3.063 1.719h-.344v-1.125h.344zm-3.063-.063v.75h.157q.218 0 .218-.219v-.53h-.375Z" fill="#505050"/><path fill="#fffd54" d="M17 29h29v9H17z"/><path d="M26.594 30.938H26q-.016-.438-.469-.438-.453.03-.468.375 0 .282.453.39.046.016.078.016.015 0 .078.016 1.015.202 1 .797-.015.906-1.235.937-1.125 0-1.109-.953h.625q0 .5.485.531.562-.015.578-.375 0-.297-.547-.406a.5.5 0 0 1-.11-.031q-.953-.22-.953-.797.048-.891 1.203-.953.937.047.985.89Zm.296-.344v-.485h2.344v.485h-.859V33h-.625v-2.406zm3.954 2.437q-1.36-.03-1.39-1.468.045-1.485 1.39-1.516 1.327.03 1.375 1.515-.048 1.438-1.375 1.47Zm0-2.531q-.735 0-.735 1.063 0 1.046.735 1.046.718 0 .718-1.047 0-1.062-.718-1.062m2.406.094v.765h.516q.437 0 .437-.406 0-.375-.437-.36zm0 1.25V33h-.625v-2.89h1.234q.985.015 1 .75-.015.562-.593.703v.015q.421.047.515.64.016.063.016.094.047.516.156.688h-.672a4 4 0 0 1-.11-.781q-.03-.375-.265-.375zm4.719-1.328L37.156 33h-.515l-.766-2.484-.016.015V33h-.578v-2.89h1.016l.61 2.109h.015l.656-2.11h.969V33h-.578zm-11.047 4.422h-.594q-.016-.438-.469-.438-.453.03-.468.375 0 .282.453.39a.2.2 0 0 0 .078.016q.015 0 .078.016 1.015.202 1 .797-.016.906-1.234.937-1.125 0-1.11-.953h.625q0 .5.485.531.562-.015.578-.375 0-.297-.547-.406a.5.5 0 0 1-.11-.031q-.953-.22-.953-.797.048-.89 1.203-.953.938.047.985.89Zm2.438-.828h.624v1.812q-.046 1.078-1.25 1.11-1.234-.032-1.265-1.11v-1.813h.625v1.578q-.062.954.64.922.688.032.625-.922V34.11Zm1.78.484v.765h.516q.438 0 .438-.406 0-.375-.438-.36h-.515Zm0 1.25V37h-.624v-2.89h1.234q.984.015 1 .75-.015.562-.594.703v.015q.422.047.516.64.016.063.016.094.046.516.156.688h-.672a4 4 0 0 1-.11-.781q-.03-.375-.265-.375zm4 .094h-.562v-.485h1.172v1.453a2.2 2.2 0 0 1-.64.094 6 6 0 0 1-.657.031q-1.327-.078-1.36-1.468.033-1.422 1.36-1.516 1.359 0 1.344.937h-.656q0-.484-.578-.484-.798.016-.813 1.063.015 1.03.813 1.046.234 0 .546-.062-.015.015.032 0zM36.281 37v-2.89h1.938v.484h-1.313v.672h1.219v.484h-1.219v.766h1.36V37z" fill="#fff"/><path fill-rule="evenodd" clip-rule="evenodd" d="M26.15 31.438a2 2 0 0 0-.15-.057 3 3 0 0 0-.406-.1.3.3 0 0 1-.078-.015q-.453-.11-.453-.391a.35.35 0 0 1 .088-.231q.114-.126.38-.144a1 1 0 0 1 .103.006.44.44 0 0 1 .22.085q.113.09.139.267l.007.08h.594a1.2 1.2 0 0 0-.068-.344.8.8 0 0 0-.135-.233.8.8 0 0 0-.304-.216 1.4 1.4 0 0 0-.478-.098l-.109.008q-.386.036-.637.174-.429.235-.457.771 0 .358.366.578.081.049.181.092a2.5 2.5 0 0 0 .417.131 1 1 0 0 0 .099.027q.547.11.547.406a.33.33 0 0 1-.081.213q-.135.153-.497.162h-.011a.55.55 0 0 1-.313-.11.45.45 0 0 1-.152-.293 1 1 0 0 1-.009-.128h-.625v.052q.005.262.1.448a.77.77 0 0 0 .468.378 1.7 1.7 0 0 0 .541.075h.012q.476-.015.767-.163.447-.228.456-.774.011-.431-.521-.657Zm1.022.667c-.008.425-.166.81-.514 1.074-.325.247-.752.34-1.208.352h-.012c-.433 0-.853-.09-1.166-.359-.33-.283-.45-.684-.444-1.102a.5.5 0 0 1 .274-.438 1.1 1.1 0 0 1-.195-.658c.022-.415.181-.787.513-1.05.313-.248.723-.353 1.162-.376h.052c.312.015.613.087.865.25a.5.5 0 0 1 .392-.189h2.343a.5.5 0 0 1 .453.287c.32-.234.715-.339 1.145-.349h.023c.493.012.94.15 1.279.469a.5.5 0 0 1 .491-.407h1.242c.353.006.7.071.978.256a.5.5 0 0 1 .436-.256h1.016a.5.5 0 0 1 .48.362l.154.534.17-.544a.5.5 0 0 1 .477-.352h.969a.5.5 0 0 1 .5.5V33a.5.5 0 0 1-.5.5h-.578a.5.5 0 0 1-.407-.209.5.5 0 0 1-.406.209h-.515a.5.5 0 0 1-.391-.188.5.5 0 0 1-.39.188h-.579a.5.5 0 0 1-.164-.028.5.5 0 0 1-.164.028h-.672a.5.5 0 0 1-.485-.379 4 4 0 0 1-.046-.207V33a.5.5 0 0 1-.5.5h-.625a.5.5 0 0 1-.494-.425c-.34.31-.786.445-1.276.456h-.023c-.539-.012-1.027-.167-1.379-.539-.347-.366-.488-.867-.5-1.419v-.026a3 3 0 0 1 .045-.453h-.123V33a.5.5 0 0 1-.5.5h-.625a.5.5 0 0 1-.5-.5v-1.906h-.181a.5.5 0 0 1-.182.248c.188.206.292.465.285.763m.578.895h.625v-2.406h.86v-.485H26.89v.485h.859zm1.782-2.005a2.4 2.4 0 0 0-.079.567q.021.96.633 1.293.305.166.758.176.456-.011.761-.187.373-.216.52-.68.082-.262.094-.602a2.4 2.4 0 0 0-.094-.62q-.17-.554-.641-.765a1.65 1.65 0 0 0-1.29 0 1.1 1.1 0 0 0-.487.417q-.112.174-.175.401m.902-.376q-.324.237-.325.944 0 .622.26.874.174.17.465.172h.02a.63.63 0 0 0 .458-.175q.25-.255.25-.871 0-.71-.32-.945a.65.65 0 0 0-.388-.118h-.02a.67.67 0 0 0-.4.12ZM32.625 33h.625v-1.156h.656q.022 0 .04.003.147.022.2.217a1 1 0 0 1 .026.155q.015.406.11.781h.671q-.088-.138-.136-.5l-.02-.188a.4.4 0 0 0-.016-.093 1.3 1.3 0 0 0-.076-.286.6.6 0 0 0-.19-.26.47.47 0 0 0-.245-.094h-.004v-.017h.001q.064-.016.122-.037a.8.8 0 0 0 .205-.107.6.6 0 0 0 .187-.22.8.8 0 0 0 0-.681q-.171-.338-.72-.396a2 2 0 0 0-.202-.012h-1.234zm.625-1.64h.516a1 1 0 0 0 .14-.013l.014-.003a.33.33 0 0 0 .274-.28 1 1 0 0 0 .01-.11q0-.271-.23-.339a.6.6 0 0 0-.122-.02l-.086-.001h-.516v.765ZM35.281 33h.578v-2.469l.016-.015.766 2.484h.515l.813-2.484V33h.578v-2.89h-.969l-.656 2.109h-.016l-.61-2.11h-1.015zm-4.577-1.95c-.038.055-.095.2-.095.512 0 .306.057.446.093.498q.02.028.035.032a.25.25 0 0 0 .107.017.2.2 0 0 0 .096-.015.1.1 0 0 0 .03-.03c.037-.052.093-.194.093-.502 0-.313-.056-.46-.094-.516-.015-.022-.025-.028-.032-.031a.2.2 0 0 0-.093-.015.24.24 0 0 0-.104.017.1.1 0 0 0-.036.033m-4.225 4.387a2 2 0 0 0-.15-.056 3 3 0 0 0-.407-.1.3.3 0 0 1-.078-.015q-.453-.11-.453-.391a.35.35 0 0 1 .088-.231q.114-.126.38-.144a1 1 0 0 1 .103.006.44.44 0 0 1 .22.085q.113.09.14.267l.006.08h.594a1 1 0 0 0-.147-.5.8.8 0 0 0-.36-.293 1.4 1.4 0 0 0-.477-.098l-.11.008q-.386.036-.637.174-.428.236-.457.771 0 .358.366.578.081.049.181.092a2.5 2.5 0 0 0 .417.131 1 1 0 0 0 .099.027q.547.11.547.406a.33.33 0 0 1-.081.213q-.135.153-.497.162h-.011a.55.55 0 0 1-.313-.11.45.45 0 0 1-.152-.293 1 1 0 0 1-.009-.128h-.625v.052q.005.262.1.448.14.27.468.378a1.7 1.7 0 0 0 .542.075h.011q.477-.015.767-.163a.8.8 0 0 0 .45-.663q.004-.054.006-.111a.6.6 0 0 0-.031-.212q-.097-.278-.49-.444Zm.99.485q.003.094.014.18v.005l.014.075q.09.46.468.671.29.163.75.178h.038q.464-.015.753-.189.45-.27.478-.92v-1.813h-.625v1.578q.034.525-.159.752-.155.181-.455.17h-.022q-.305.011-.462-.166-.202-.226-.167-.755v-1.579h-.625zm-.204.967a1.3 1.3 0 0 1-.279.29c-.325.247-.752.34-1.208.352h-.012c-.433 0-.853-.09-1.166-.359-.33-.283-.45-.684-.444-1.102a.5.5 0 0 1 .274-.438 1.1 1.1 0 0 1-.195-.658c.022-.415.181-.787.513-1.05.313-.248.723-.353 1.162-.376h.052c.381.018.747.122 1.026.374l.012.012a.5.5 0 0 1 .469-.325h.625a.5.5 0 0 1 .5.5v1.578l-.001.033c-.009.13-.003.226.01.293.009.054.021.08.027.091.01.003.036.008.082.006h.045a.3.3 0 0 0 .068-.004.3.3 0 0 0 .026-.09 1.3 1.3 0 0 0 .008-.328v-1.579a.5.5 0 0 1 .5-.5h.625q.149.002.266.077a.5.5 0 0 1 .266-.077h1.242c.377.006.747.08 1.034.296q.156.118.256.267l.029-.033c.337-.376.81-.553 1.34-.59l.036-.002c.494 0 .955.082 1.302.324l.064.048a.5.5 0 0 1 .462-.31h1.938a.5.5 0 0 1 .5.5v.485a.5.5 0 0 1-.183.386c.056.081.089.18.089.286v.484a.5.5 0 0 1-.121.326.5.5 0 0 1 .262.44V37a.5.5 0 0 1-.5.5H36.28a.5.5 0 0 1-.339-.132 2.7 2.7 0 0 1-.802.132 6 6 0 0 1-.716.03c-.417-.024-.8-.134-1.11-.36a.5.5 0 0 1-.47.33h-.672a.5.5 0 0 1-.485-.379 4 4 0 0 1-.046-.207V37a.5.5 0 0 1-.5.5h-.625a.5.5 0 0 1-.495-.425l-.04.037c-.329.291-.766.407-1.234.42h-.025c-.476-.013-.919-.127-1.25-.418a1.4 1.4 0 0 1-.207-.225Zm4.797-.67q.015.405.11.781h.672q-.088-.138-.136-.5l-.02-.188a.4.4 0 0 0-.016-.093 1.3 1.3 0 0 0-.077-.286.6.6 0 0 0-.19-.26.47.47 0 0 0-.245-.094h-.004v-.017h.002q.064-.016.121-.036a.8.8 0 0 0 .205-.108.6.6 0 0 0 .167-.182.77.77 0 0 0 .086-.52q-.09-.521-.785-.595a2 2 0 0 0-.202-.012h-1.234V37h.625v-1.156h.656q.02 0 .04.003.146.022.2.217a1 1 0 0 1 .026.155Zm-.362-.86a1 1 0 0 0 .097-.012l.014-.003a.33.33 0 0 0 .273-.28.6.6 0 0 0 .01-.11q0-.271-.229-.339a.6.6 0 0 0-.123-.02l-.086-.001h-.515v.765zm1.398.103-.004.1q.022 1.01.727 1.327a1.8 1.8 0 0 0 .733.142h.008q.2-.003.357-.013.105-.007.19-.018a2.3 2.3 0 0 0 .641-.094v-1.453h-1.172v.484h.563v.61l-.03.008h-.002q-.008 0 0-.008a3 3 0 0 1-.547.063 1 1 0 0 1-.109-.008.74.74 0 0 1-.382-.15q-.311-.248-.321-.89.011-.725.397-.955a.8.8 0 0 1 .338-.103l.078-.004q.264 0 .408.102.16.113.169.351v.031h.657v-.042a1 1 0 0 0-.016-.167.8.8 0 0 0-.112-.29q-.154-.235-.492-.344a2.2 2.2 0 0 0-.614-.093h-.01l-.1-.001q-.285.02-.512.102a1.16 1.16 0 0 0-.729.723q-.096.255-.114.59M36.28 37h1.985v-.484h-1.36v-.766h1.219v-.484h-1.219v-.672h1.313v-.485H36.28z" fill="#505050"/><defs><clipPath id="a"><path fill="#fff" d="M0 0h48v40H0z"/></clipPath></defs></svg>