<svg width="48" height="40" fill="none" xmlns="http://www.w3.org/2000/svg"><g clip-path="url(#a)"><path fill-rule="evenodd" clip-rule="evenodd" d="M0 38a2 2 0 0 0 2 2h44a2 2 0 0 0 2-2V2A2 2 0 0 0 46.15.005L46 0H2l-.15.005A2 2 0 0 0 0 2zM27 2H2v25h25zM2 29v9h13v-9zm15 9h29v-9H17zm29-11V2H29v25z" fill="#505050"/></g><path fill="#3a6af6" d="M2 29h13v9H2z"/><path fill-rule="evenodd" clip-rule="evenodd" d="M11.563 31.516v-.793h-.63l.11-.328H9.84l-.11.328H7.215l-.137-.328H5.875l.11.328h-.63v.793zM9.183 32.8q.192.027.301-.192l.082-.164h1.996v-.683H9.758l.027-.082h-.93l-.136.273q-.082.192-.274.164h-.41v.684h1.149Zm-2.761-1.012v2.023h-.93V31.79h.93Zm1.367 2.023V31.79h-.848v2.023h.848Zm3.774 0H9.02q-.52.029-.602-.246l-.355-.656h1.093l.082.11q.028.163.246.136h2.079zm0 2.817v-.738h-.247v-1.832H5.52v1.832h-.192v.738h6.234Zm-5.141-.738h.793v-1.04h-.793zm1.613 0v-1.04h.766v1.04zm1.64 0h.794v-1.04h-.793z" fill="#fff" stroke="#505050"/><path fill-rule="evenodd" clip-rule="evenodd" d="M11.563 31.516v-.793h-.63l.11-.328H9.84l-.11.328H7.215l-.137-.328H5.875l.11.328h-.63v.793zM9.183 32.8q.192.027.301-.192l.082-.164h1.996v-.683H9.758l.027-.082h-.93l-.136.273q-.082.192-.274.164h-.41v.684h1.149Zm-2.761-1.012v2.023h-.93V31.79h.93Zm1.367 2.023V31.79h-.848v2.023h.848Zm3.774 0H9.02q-.52.029-.602-.246l-.355-.656h1.093l.082.11q.028.163.246.136h2.079zm0 2.817v-.738h-.247v-1.832H5.52v1.832h-.192v.738h6.234Zm-5.141-.738h.793v-1.04h-.793zm1.613 0v-1.04h.766v1.04zm1.64 0h.794v-1.04h-.793z" fill="#fff"/><path fill="#ccc" d="M2 2h25v25H2z"/><path d="M9.595 17.333H7.333S4.932 16.37 5 14.106c.07-2.264 2.715-3.256 2.715-3.256s-.105-1.146.939-1.565 1.322-.172 1.322-.172.174-4.217 4.14-4.111c3.967.106 4.49 4.283 4.49 4.283s1.774.041 2.47 1.14.835 2.375.835 2.375 2.123.248 2.088 2.055-1.67 2.479-1.67 2.479h-1.88l-.66.605 1.183.177-3.897 1.985 1.078-1.311-1.043-.107.591-1.277h-1.044l-1.67 1.703 1.392.709L11.926 24l1.218-2.942-1.6-.07 1.496-3.651-1.635-.003-.731.995.66.567-2.052 2.588.418-1.702-.766-.283zM29 2h17v25H29z" fill="#3a6af6"/><path fill-rule="evenodd" clip-rule="evenodd" d="M32.578 4.2h9.906v1.938h-.039v6.335c0 .407-.093.804-.367 1.101-.28.305-.67.415-1.07.415h-8.43zm1 2.328h.211v2.477h-.21zm0 3.867h.367v1.407h.04v1.187h-.407zm3.711 2.594h.445v-1.187h-.039v-1.407h-.367v1.407h-.039zm3.867-2.594v2.078a.62.62 0 0 1-.266.516h.118c.224 0 .304-.059.335-.093.039-.042.102-.152.102-.423v-2.078zm.29-1.39h-.29V6.528h.29zm-3.712-2.578V5.2h-.445v1.227h.04v2.578h.366V6.427zM38.93 8.95v.039l-.004.03.05.011q.097.021.292.014h.207a.7.7 0 0 1-.136-.094zm.513-1.234h.159a.4.4 0 0 0 .155-.021l.007-.034h-.266zm-3.938 1.328h.217a.4.4 0 0 0 .195-.02.2.2 0 0 0 .017-.074h-.31a.6.6 0 0 1-.119.094m-2.77 6.156h9.554v2.649l-.006.038a2 2 0 0 1-.145.516h.268v3.281h.153l-.153.306v.382h-.19l-.019.036a1 1 0 0 0-.05.13l-.01.026-.01.024a3.3 3.3 0 0 1-.359.62h.56v1.86h-2.361c-.37.017-.69-.137-.95-.379a2.4 2.4 0 0 1-.38-.466 1.2 1.2 0 0 1-.274.434c-.276.277-.65.371-1.027.371h-1.672v-.216c-.168.11-.364.177-.594.177H32.5v-1.781h.665a3 3 0 0 1-.308-.543l-.005-.01-.004-.012-.09-.232h-.219v-.653l-.037-.113h.037v-3.203h.195V15.2Zm1.257 7.445a1 1 0 0 0 .076.086.2.2 0 0 0 .066.049l.017-.002h.41a1 1 0 0 1-.159-.133zm.926 1.25a1 1 0 0 1-.105.094h.258c.01 0 .039 0 .097-.06l.03-.034zm2.172.133h.246c.222 0 .297-.055.32-.078s.078-.098.078-.32v-1.492h-.484v1.492a.57.57 0 0 1-.16.398m2.675-.015c.075.053.125.057.157.055h.091l-.028-.012-.044-.044h-.176Zm.676-1.235h.313l.019.002q.002.001.017-.004a.3.3 0 0 0 .087-.064l.027-.028h-.355a1 1 0 0 1-.108.094m-.09-2.578v-1.852h-.523V20.2zm-1.033.297h-1.002c.245.325.455.552.63.698.2.167.295.177.304.177h.446a1 1 0 0 1-.078-.076 1.1 1.1 0 0 1-.231-.488zm-2.659 0h-.79l-.187.41a1.6 1.6 0 0 1-.297.46l-.049.044h.384l.024.002a.2.2 0 0 0 .093-.041c.08-.051.19-.15.327-.32l.018-.022.198-.199zm-1.542-.297v-1.852h-.523V20.2zm-.898-2.07V16.2h-.485v1.93zm6.547-1.93v1.93h.348a.12.12 0 0 0 .063-.047.8.8 0 0 0 .112-.315V16.2zm-6.626 6.58h-.006z" fill="#505050"/><path d="M33.078 5.638V4.7h8.906v.938h-3.75v.39h3.711v3.477h-1.289V6.927h-2.46v2.578h-1.368V6.927H34.29v2.578h-1.21V6.028h3.71v-.39h-3.71Zm1.602 1.914V7.2h1.133q-.079.234.312.195h.39v.782h-1.093q-.703-.04-.742-.625m3.75.664v-.82h.468q.234.038.313-.235h1.055v.508q-.04.547-.664.547zm0 .742V8.45h1.172q.039.234.468.195h.274v.899h-1.055q-.937.038-.86-.586Zm-3.79.586v-.899h.352q.352.039.313-.195h1.133v.43q0 .703-.743.664zm6.368 3.945h-7.93V9.895h8.867v2.578q0 1.016-.937 1.016m-6.563-2.656v.469h2.383v-.47h-2.383Zm3.75.469h2.461v-.47h-2.46zm-1.406.859h-2.305v.43h2.305zm3.867 0h-2.422v.43h2.305q.117 0 .117-.118zm-7.422 6.469V15.7h8.555v2.11q-.117.741-.625.82h-.312v.273h1.054v.742h-1.054v.352h1.054v.703h-2.031q.078.352.313.352h1.718v.82H39.25q-.547 0-1.406-1.172h-.703l-.391.469-.195.195q-.47.585-.86.547H33.04v-.82h1.797q.195.038.39-.391H33.04v-.703h1.055v-.352H33.04v-.703h1.055v-.312zm7.032-1.797v-.313h-5.547v.313zm-5.547.703v.312h5.547v-.312zm.898 1.094v.312h3.711v-.312h-3.71Zm3.711 1.367v-.352h-3.71v.352zM36.75 23.63v-1.992h1.484v1.992q0 .898-.898.898h-1.172v-.82h.469q.117 0 .117-.078m-1.68.86H33v-.782h1.172q.313 0 .508-.313h1.328a1 1 0 0 0-.117.235q-.313.86-.82.86Zm-1.875-2.345h1.446q.196.313.507.313h1.016v.82h-1.992q-.47.04-.86-.82a6 6 0 0 1-.117-.313m5.547.274h1.211q.195.04.352-.235h1.445a2 2 0 0 0-.078.196q-.43.937-.938.898h-1.992zm.078 1.093h1.328l.118.118q.195.078.43.078h1.132v.86h-1.875q-.625.038-1.133-1.056" fill="#fff"/><path fill="#3a6af6" d="M17 29h29v9H17z"/><path fill-rule="evenodd" clip-rule="evenodd" d="M20.797 29.61h4.281v1.14h.094v-1.14h2.812v2.11a1.2 1.2 0 0 0 .009.3q.015.072.026.088a.3.3 0 0 0 .073.003l.034-.003.034.003h.05a.4.4 0 0 0 .027-.094q.021-.104.014-.305l-.001-.012v-2.09h2.924l.295.614v-.615h2.568c.52.006.995.133 1.354.447v-.447h4.187c.377.013.743.09 1.027.303.309.232.45.57.457.937v.024a1.22 1.22 0 0 1-.253.741c.089.163.14.345.17.527l.005.038v.005l.011.033.004.066c.01.162.026.278.043.356l.02.067.635.794h-2.103l-.095-.379a4 4 0 0 1-.046-.207v.586h-4.062v-.435c-.361.313-.84.435-1.36.435h-2.693l-.322-.69v.69h-1.578v-.45l-.067.062c-.328.291-.765.407-1.233.42h-.026c-.475-.013-.918-.127-1.25-.418l-.065-.06v.446h-1.61v-1.266h-.109V33.5h-1.61v-2.406h-.187V33.5h-1.625v-2.406h-.86zm13.36 1.498v.898c.066-.014.087-.037.094-.044.022-.026.082-.122.077-.392v-.015c.004-.268-.054-.369-.08-.398-.008-.01-.03-.033-.092-.049Zm-9.048 2.438.034.002c.265.018.523.075.748.194v-.133h3.343v.256c.31-.207.686-.304 1.092-.318h.035c.487.017.929.157 1.264.468v-.406h1.75c.325.01.643.07.906.224v-.224h1.293l.034-.034.01.034h.555l.258.896.279-.896h1.837V37.5H33.39l-.095-.379a4 4 0 0 1-.046-.207v.586h-1.625v-.42c-.338.307-.783.44-1.27.451h-.023c-.539-.012-1.027-.167-1.379-.539-.347-.366-.488-.867-.5-1.419v-.021a3 3 0 0 1 .042-.458h-.12V37.5H26.75v-2.406h-.147l.02.343h-.167c.143.187.223.413.216.67v.004c-.015.424-.175.805-.522 1.068-.324.246-.748.34-1.2.352h-.02c-.434-.006-.854-.099-1.166-.367-.331-.284-.45-.685-.436-1.102l.017-.484h.212a1.1 1.1 0 0 1-.15-.591v-.014c.022-.412.184-.78.513-1.04.31-.247.718-.355 1.156-.385zm5.087 1.504c-.036.052-.091.194-.087.505v.015c-.004.312.052.45.085.498.013.018.021.023.03.027a.3.3 0 0 0 .11.014h.01a.2.2 0 0 0 .096-.015.1.1 0 0 0 .03-.03c.037-.052.093-.194.093-.502 0-.313-.056-.46-.094-.516-.015-.022-.025-.028-.032-.031a.2.2 0 0 0-.093-.015.3.3 0 0 0-.113.018.1.1 0 0 0-.035.032" fill="#505050"/><path d="M21.297 30.594v-.485h2.344v.485h-.86V33h-.625v-2.406zM24.578 33h-.61v-2.89h.61v1.14h1.094v-1.14h.625V33h-.61v-1.266h-1.109zm4.172-2.89h.625v1.812q-.047 1.078-1.25 1.11-1.234-.032-1.266-1.11v-1.813h.625v1.578q-.062.97.641.922.672.047.625-.922zM32.547 33h-.89l-1.126-2.406-.015.015V33h-.578v-2.89h.921l1.094 2.28.016-.015v-2.266h.578zm1.109-2.406v1.922h.328q.86.03.844-.953.016-.985-.844-.97h-.328ZM33.046 33v-2.89h.985q1.438.015 1.453 1.453Q35.469 33 34.031 33zm2.844 0v-2.89h1.938v.484h-1.312v.672h1.218v.484h-1.218v.766h1.359V33h-1.984Zm3.063-2.406v.765h.516q.422 0 .437-.406-.015-.36-.437-.36zm0 1.25V33h-.625v-2.89h1.234q.985.03 1 .75-.015.562-.593.703v.015q.422.047.515.64 0 .048.016.094.03.532.156.688h-.672a4 4 0 0 1-.109-.781q-.047-.375-.266-.375zm-12.859 3.094H25.5q-.03-.438-.469-.438-.453.03-.468.375-.031.328.53.406.032.015.063.032 1.032.203 1.016.78-.031.907-1.235.938-1.14-.015-1.109-.953h.625q0 .516.485.531.562-.015.578-.375 0-.281-.547-.406l-.11-.031q-.968-.204-.953-.797.048-.875 1.203-.953.937.063.985.89Zm.296-.344v-.485h2.344v.485h-.859V37h-.625v-2.406zm3.954 2.437q-1.36-.03-1.39-1.468.03-1.47 1.39-1.516 1.327.046 1.375 1.516-.048 1.437-1.375 1.468m0-2.531q-.75 0-.735 1.063-.015 1.062.735 1.046.718 0 .718-1.047 0-1.062-.718-1.062m2.406.094v.765h.516q.421 0 .437-.406-.015-.36-.437-.36zm0 1.25V37h-.625v-2.89h1.234q.985.03 1 .75-.015.562-.593.703v.015q.421.047.515.64 0 .048.016.094.03.532.156.688h-.672a4 4 0 0 1-.11-.781q-.046-.375-.265-.375zm4.719-1.328L36.656 37h-.515l-.766-2.484-.016.015V37h-.578v-2.89h1.016l.61 2.109h.015l.656-2.11h.969V37h-.578z" fill="#fff"/><defs><clipPath id="a"><path fill="#fff" d="M0 0h48v40H0z"/></clipPath></defs></svg>