<svg width="48" height="40" fill="none" xmlns="http://www.w3.org/2000/svg"><g clip-path="url(#a)"><path fill-rule="evenodd" clip-rule="evenodd" d="M0 38a2 2 0 0 0 2 2h44a2 2 0 0 0 2-2V2A2 2 0 0 0 46.15.005L46 0H2l-.15.005A2 2 0 0 0 0 2zM27 2H2v25h25zM2 29v9h13v-9zm15 9h29v-9H17zm29-11V2H29v25z" fill="#505050"/></g><path fill="#f29d38" d="M2 29h13v9H2z"/><path d="M7.352 36.574v-3.718h.164v-.794h-.164v-.246h.218v-.765h-.218v-.656h-.903v.656H5.33v.793h1.093v.218H5.52l-.11 3.5q0 .138-.11.11v.656h.384q.52 0 .52-.547l.109-2.925h.109v3.718zm1.175-3.527q.957.11.957-.93l.11-1.668h-1.86v.684h.93l-.027.328h-.219q-.137.027-.11-.11h-.574v.247q0 .492.41.52h.438l-.027.081q-.028.192-.164.164h-.63v.684zm2.98-.684v.657h-.984a1 1 0 0 1-.109.003q-.577-.008-.601-.66l-.137-1.914h1.86v.766h-.848l.054.273h.137q.137.027.137-.11h.546l-.027.329q-.027.465-.41.383h-.355l.027.11q-.027.19.191.163h.52Zm.028 1.504v-.656H7.652v.656zm0 2.078v.547H7.543v-.547h.574l-.082-.3H7.68v-1.56h3.855v1.013q.027.6-.492.547l-.055.3zm-1.039-.957a.1.1 0 0 0 .04.005q.07-.005.07-.114v-.11H8.554v.22h1.941Zm-1.45.957h1.04v-.3h-1.04z" fill="#505050" stroke="#505050"/><path d="M7.352 36.574v-3.718h.164v-.794h-.164v-.246h.218v-.765h-.218v-.656h-.903v.656H5.33v.793h1.093v.218H5.52l-.11 3.5q0 .138-.11.11v.656h.384q.52 0 .52-.547l.109-2.925h.109v3.718zm1.175-3.527q.957.11.957-.93l.11-1.668h-1.86v.684h.93l-.027.328h-.219q-.137.027-.11-.11h-.574v.247q0 .492.41.52h.438l-.027.081q-.028.192-.164.164h-.63v.684zm2.98-.684v.657h-.984a1 1 0 0 1-.109.003q-.577-.008-.601-.66l-.137-1.914h1.86v.766h-.848l.054.273h.137q.137.027.137-.11h.546l-.027.329q-.027.465-.41.383h-.355l.027.11q-.027.19.191.163h.52Zm.028 1.504v-.656H7.652v.656zm0 2.078v.547H7.543v-.547h.574l-.082-.3H7.68v-1.56h3.855v1.013q.027.6-.492.547l-.055.3zm-1.039-.957a.1.1 0 0 0 .04.005q.07-.005.07-.114v-.11H8.554v.22h1.941Zm-1.45.957h1.04v-.3h-1.04z" fill="#fff"/><path fill="#ccc" d="M2 2h25v25H2z"/><path fill-rule="evenodd" clip-rule="evenodd" d="M21.177 15.275c.879.01 1.36-.328 1.794-.979.818-1.235.881-2.4.117-3.435-.594-.805-1.402-1.309-2.365-1.58-.293-.083-.456-.01-.59.259-.138.278-.29.549-.462.854l-.237.422-.06-.46-.082-.61c-.32-2.26-1.736-3.878-3.78-4.327q-.384-.085-.77-.168h-1.25l-.078.038c-.057.028-.114.056-.173.072-1.902.49-3.09 1.805-4.054 3.45l1.04.9a2.8 2.8 0 0 1-.58-.139l-.189-.058c-.92-.265-1.83-.298-2.71.157-1.743.905-2.335 3.678-1.073 5.189.193.23.62.37.94.371 1.87.01 3.741.009 5.613.009 2.983 0 5.966-.001 8.949.035m-11.945.957q-.23 0-.437.004c-.299.004-.568.008-.834-.01-.336-.021-.507.096-.614.424-.203.617-.423 1.23-.643 1.842q-.15.414-.296.83c-.08.224-.157.45-.243.702l-.148.43h1.988l-1.345 3.25.09.046 3.195-4.338H8.271l.962-3.179h-.001Zm3.362 3.182.963-3.176-.43-.001c-.392-.002-.75-.005-1.107.013-.095.004-.23.13-.266.23-.404 1.1-.797 2.203-1.22 3.386l-.207.583h2.005l-1.349 3.255.09.044 3.18-4.333zm10.826-3.389-.133.177a5 5 0 0 1-.23.298c-.988 1.17-2.245 1.835-3.772.861-.287-.182-.588-.34-.889-.498l-.154-.081c-1.62-.86-3.26-.219-3.916 1.554l.622.385.087-.152c.05-.09.093-.163.139-.235.587-.918 1.565-1.628 2.826-.797.425.28.867.563 1.342.734l.145.054c.503.186 1.055.39 1.538.31 1.304-.218 2.306-.978 2.975-2.185zm-4.176 3.506c-.337-.21-.69-.395-1.042-.578l-.001-.001c-1.56-.815-3.266-.121-3.856 1.586l.604.336.096-.16c.062-.103.118-.2.186-.287.83-1.073 1.64-1.41 2.769-.7.225.142.46.269.694.396q.149.08.296.162c1.872 1.04 4.052.32 4.982-1.67l-.558-.4-.118.163a4 4 0 0 1-.236.31c-1.141 1.305-2.255 1.813-3.816.843m.024 2.064c1.54 1.003 2.852.229 3.776-.86v.001c.083-.098.156-.203.241-.325l.126-.18.589.433c-.66 1.181-1.624 1.945-2.884 2.166-.522.09-1.122-.12-1.665-.31l-.126-.044c-.493-.171-.952-.467-1.394-.755-1.248-.812-2.19-.03-2.738.786-.055.081-.104.168-.16.267q-.04.073-.09.157l-.738-.462q.184-.22.348-.429c.232-.292.446-.562.702-.785.893-.779 1.88-.902 2.925-.272.156.094.317.179.477.264.208.11.415.22.611.348" fill="#f29d38"/><path fill="#f29d38" d="M29 2h17v25H29z"/><path fill-rule="evenodd" clip-rule="evenodd" d="M30.41 6.895h14.098V8.91l-.006.04a2 2 0 0 1-.04.187h.128v2.297h.2l-.2.399v.382h-.185l-.005.013-.008.026-.012.025q-.052.114-.112.221h.267v1.602h-1.8a1.05 1.05 0 0 1-.77-.305 2 2 0 0 1-.143-.153 1 1 0 0 1-.106.127c-.232.231-.539.303-.825.303h-1.32v-.065a1 1 0 0 1-.266.038h-1.95v-.379l-.034.04c-.235.254-.553.339-.86.339h-6.05zm3.598 1h.011v.558h-.011zm0 5.152h.011v-.531h-.011v.53Zm3.61-.72v.173h.084a3 3 0 0 1-.083-.168l-.002-.004Zm3.348.743.04-.009a.4.4 0 0 0 .014-.116v-.894h-.04v.894a.6.6 0 0 1-.014.125m1.886-2.675h-.067v-.997h.067zm.622-1.45a.6.6 0 0 0 .034-.117v-.933h-.067v1.05zm-4.353.453h.066v.997h-.066zm-.562-.453v-1.05h-.04v1.05zm3.331 1.957q.127.144.223.224c.08.066.123.084.134.089h.003a1 1 0 0 1-.07-.212l-.023-.1h-.267Zm-2.06.281.04-.082.09-.199h.134l-.123.123-.018.022q-.073.09-.123.136m-6.932 3.684h2.176v1.04h2.543v1.847h-2.072l1.32 2.473h.752v.067l.067.008v-5.435h6.879v5.613l.19.048v1.574h-1.32a.9.9 0 0 1-.594-.22h-.827c-.168 0-.354-.03-.524-.132a.82.82 0 0 1-.341-.402l-.04-.071a1.03 1.03 0 0 1-.954.606h-.72a1 1 0 0 1-.133.103.84.84 0 0 1-.508.116h-2.158a1.75 1.75 0 0 1-.848-.163 1.3 1.3 0 0 1-.59-.601l-1.19-2.182-1.148 2.156c-.124.247-.32.508-.629.615a1.3 1.3 0 0 1-.4.115q-.242.033-.563.032h-.883v-1.82h.806l1.282-2.5h-2.088v-1.848h2.515zm3.37 6.193a.9.9 0 0 1-.191-.195l.01.018.005.012a.3.3 0 0 0 .176.165m-.417-.608-1.856-3.478-1.03 2.01 1.03-1.937 1.856 3.404Zm-1.953-3.698h.176v-.887h-.176zm4.122 3.585q.013 0 0 0m.664-4.472v.34h.039v-.34zm4.812 0v.34h.066v-.34zm.066.723-.066.13v4.38l.175.002a.66.66 0 0 1-.108-.432zm-1.066 3.128v-1.04l-.274.537zm-1.133-3.003h-.452l.226.436zm-2.64.06-.04-.075v3.92c.01.13-.006.32-.137.482h.177zm1 2.945v-1.007l.271.526-.271.48Z" fill="#505050"/><path d="M30.91 8.05v-.655h6.235v.656h-2.626v.273h2.598v2.434h-.902V8.953h-1.723v1.805h-.957V8.953h-1.777v1.805h-.848V8.324h2.598v-.273zm1.121 1.34v-.245h.793q-.054.163.219.136h.273v.547h-.765q-.493-.027-.52-.437Zm2.625.465v-.574h.328q.165.028.22-.164h.737v.355q-.027.383-.464.383h-.82Zm0 .52v-.355h.82q.028.164.329.136h.191v.63h-.738q-.657.025-.602-.411m-2.652.41v-.629h.246q.246.027.219-.136h.793v.3q0 .492-.52.465zm4.457 2.762h-5.55V11.03h6.206v1.805q0 .71-.656.71Zm-4.594-1.86v.329h1.668v-.329zm2.625.329h1.723v-.329h-1.723zm-.984.601h-1.614v.301h1.614zm2.707 0h-1.696v.301h1.614q.081 0 .082-.082zm1.805-3.172v-2.05h5.988V8.87q-.082.52-.438.574h-.218v.192h.738v.52h-.738v.245h.738v.493h-1.422q.055.246.219.246h1.203v.574h-1.86q-.382 0-.984-.82h-.492l-.273.328-.137.136q-.329.41-.602.383h-1.86v-.574h1.259q.136.027.273-.273h-1.531v-.493h.738v-.246h-.738v-.492h.738v-.219h-.602Zm4.921-1.258V7.97H39.06v.218h3.882Zm-3.882.493v.218h3.882V8.68H39.06Zm.629.765v.22h2.597v-.22zm2.597.957v-.246h-2.597v.246zm-1.804 2.543v-1.394h1.038v1.394q0 .63-.628.63h-.82V13h.327q.082 0 .082-.055Zm-1.176.602h-1.45V13h.82q.22 0 .356-.219h.93a.7.7 0 0 0-.082.164q-.219.602-.574.602m-1.313-1.64h1.012q.137.218.355.218h.711v.574h-1.394q-.329.027-.602-.574a4 4 0 0 1-.082-.219Zm3.883.19h.848q.136.028.246-.163h1.011a1 1 0 0 0-.054.136q-.3.656-.657.63h-1.394zm.055.766h.93l.081.082a.8.8 0 0 0 .301.055h.793v.602h-1.312q-.438.027-.793-.739m-11.047 3.543h2.515v-1.039h1.176v1.04h2.543v.847h-2.406l1.723 3.226q.109.274.437.247h.246v.875h-.492q-.738.027-.984-.493L34 18.102l-1.586 2.98q-.165.328-.383.383-.164.11-.765.11h-.383v-.821h.273q.3.054.465-.246l1.668-3.254h-2.406zm7.301 4.239v-5.278h5.879V20.7q-.028.164.19.219v.684h-.82a.37.37 0 0 1-.355-.22h-1.066q-.329 0-.41-.245l-.493-.875-.437.765q-.165.356-.52.356h-.984q-.082.246-.355.219h-.848v-.766q.246.027.219-.191Zm4.812-.028v-4.402h-3.773v4.402h.41q.19.027.219-.11l.71-1.257-1.312-2.543h1.094l.793 1.531.793-1.531h1.011l-1.285 2.516.657 1.203q.081.22.246.191z" fill="#fff"/><path fill="#f29d38" d="M17 29h29v9H17z"/><path fill-rule="evenodd" clip-rule="evenodd" d="M20.797 29.61h4.281v1.14h.094v-1.14h2.812v2.11a1.2 1.2 0 0 0 .009.3q.015.072.026.088a.3.3 0 0 0 .073.003l.034-.003.034.003h.05a.4.4 0 0 0 .027-.094q.021-.104.014-.305l-.001-.012v-2.09h2.924l.295.614v-.615h2.568c.52.006.995.133 1.354.447v-.447h4.187c.377.013.743.09 1.027.303.309.232.45.57.457.937v.024a1.22 1.22 0 0 1-.253.741c.089.163.14.345.17.527l.005.038v.005l.011.033.004.066c.01.162.026.278.043.356l.02.067.635.794h-2.103l-.095-.379a4 4 0 0 1-.046-.207v.586h-4.062v-.435c-.361.313-.84.435-1.36.435h-2.693l-.322-.69v.69h-1.578v-.45l-.067.062c-.328.291-.765.407-1.233.42h-.026c-.475-.013-.918-.127-1.25-.418l-.065-.06v.446h-1.61v-1.266h-.109V33.5h-1.61v-2.406h-.187V33.5h-1.625v-2.406h-.86zm13.36 1.498v.898c.066-.014.087-.037.094-.044.022-.026.082-.122.077-.392v-.015c.004-.268-.054-.369-.08-.398-.008-.01-.03-.033-.092-.049Zm-1.173 2.438.034.002c.265.018.523.075.748.194v-.133h3.343v1.485h-.859V37.5h-1.625v-2.406h-.147l.02.343h-.167c.143.187.223.413.216.67v.004c-.015.424-.175.805-.522 1.068-.324.246-.748.34-1.2.352h-.02c-.434-.006-.854-.099-1.166-.367a1.2 1.2 0 0 1-.208-.231q-.075.095-.17.18c-.328.29-.764.406-1.232.418h-.026c-.475-.012-.919-.126-1.25-.417a1 1 0 0 1-.097-.092v.256l-.356.107a2.7 2.7 0 0 1-.753.115c-.19.022-.422.031-.688.031h-.023c-.53-.025-1.006-.19-1.348-.559-.337-.364-.476-.857-.488-1.398v-.023c.012-.542.151-1.034.483-1.404.336-.375.806-.555 1.335-.598l.02-.002h.021c.491 0 .948.083 1.294.324q.05.036.097.074v-.336h1.625v2.095l-.001.016q-.012.198.01.3c.008.049.02.076.026.088a.3.3 0 0 0 .072.003l.034-.003.034.003h.05a.4.4 0 0 0 .028-.094q.022-.104.013-.305V33.61h1.625v.346l.029-.024c.31-.246.718-.354 1.156-.384z" fill="#505050"/><path d="M21.297 30.594v-.485h2.344v.485h-.86V33h-.625v-2.406zM24.578 33h-.61v-2.89h.61v1.14h1.094v-1.14h.625V33h-.61v-1.266h-1.109zm4.172-2.89h.625v1.812q-.047 1.078-1.25 1.11-1.234-.032-1.266-1.11v-1.813h.625v1.578q-.062.97.641.922.672.047.625-.922zM32.547 33h-.89l-1.126-2.406-.015.015V33h-.578v-2.89h.921l1.094 2.28.016-.015v-2.266h.578zm1.109-2.406v1.922h.328q.86.03.844-.953.016-.985-.844-.97h-.328ZM33.046 33v-2.89h.985q1.438.015 1.453 1.453Q35.469 33 34.031 33zm2.844 0v-2.89h1.938v.484h-1.312v.672h1.218v.484h-1.218v.766h1.359V33h-1.984Zm3.063-2.406v.765h.516q.422 0 .437-.406-.015-.36-.437-.36zm0 1.25V33h-.625v-2.89h1.234q.985.03 1 .75-.015.562-.593.703v.015q.422.047.515.64 0 .048.016.094.03.532.156.688h-.672a4 4 0 0 1-.109-.781q-.047-.375-.266-.375zm-11.406 4.094h-.563v-.485h1.172v1.453a2.2 2.2 0 0 1-.64.094 6 6 0 0 1-.657.031q-1.328-.062-1.359-1.468.03-1.407 1.36-1.516 1.343 0 1.343.937h-.656q0-.484-.578-.484-.813.03-.813 1.063 0 1.03.813 1.046.234 0 .547-.047.015 0 .03-.015zm3.093-1.828h.626v1.812q-.048 1.078-1.25 1.11-1.235-.032-1.266-1.11v-1.813h.625v1.578q-.062.97.64.922.672.047.626-.922V34.11Zm3.329.828h-.594q-.03-.438-.469-.438-.453.03-.468.375-.031.328.53.406.032.015.063.032 1.032.203 1.016.78-.031.907-1.234.938-1.14-.015-1.11-.953h.625q0 .516.484.531.563-.015.579-.375 0-.281-.547-.406l-.11-.031q-.968-.204-.953-.797.048-.875 1.203-.953.937.063.985.89Zm.297-.344v-.485h2.343v.485h-.859V37h-.625v-2.406h-.86Z" fill="#fff"/><defs><clipPath id="a"><path fill="#fff" d="M0 0h48v40H0z"/></clipPath></defs></svg>