<svg width="48" height="40" fill="none" xmlns="http://www.w3.org/2000/svg"><g clip-path="url(#a)"><path fill-rule="evenodd" clip-rule="evenodd" d="M0 38a2 2 0 0 0 2 2h44a2 2 0 0 0 2-2V2A2 2 0 0 0 46.15.005L46 0H2l-.15.005A2 2 0 0 0 0 2zM27 2H2v25h25zM2 29v9h13v-9zm15 9h29v-9H17zm29-11V2H29v25z" fill="#505050"/></g><path fill="#3a6af6" d="M2 29h13v9H2z"/><path fill-rule="evenodd" clip-rule="evenodd" d="M11.563 31.516v-.793h-.63l.11-.328H9.84l-.11.328H7.215l-.137-.328H5.875l.11.328h-.63v.793zM9.183 32.8q.192.027.301-.192l.082-.164h1.996v-.683H9.758l.027-.082h-.93l-.136.273q-.082.192-.274.164h-.41v.684h1.149Zm-2.761-1.012v2.023h-.93V31.79h.93Zm1.367 2.023V31.79h-.848v2.023h.848Zm3.774 0H9.02q-.52.029-.602-.246l-.355-.656h1.093l.082.11q.028.163.246.136h2.079zm0 2.817v-.738h-.247v-1.832H5.52v1.832h-.192v.738h6.234Zm-5.141-.738h.793v-1.04h-.793zm1.613 0v-1.04h.766v1.04zm1.64 0h.794v-1.04h-.793z" fill="#fff" stroke="#505050"/><path fill-rule="evenodd" clip-rule="evenodd" d="M11.563 31.516v-.793h-.63l.11-.328H9.84l-.11.328H7.215l-.137-.328H5.875l.11.328h-.63v.793zM9.183 32.8q.192.027.301-.192l.082-.164h1.996v-.683H9.758l.027-.082h-.93l-.136.273q-.082.192-.274.164h-.41v.684h1.149Zm-2.761-1.012v2.023h-.93V31.79h.93Zm1.367 2.023V31.79h-.848v2.023h.848Zm3.774 0H9.02q-.52.029-.602-.246l-.355-.656h1.093l.082.11q.028.163.246.136h2.079zm0 2.817v-.738h-.247v-1.832H5.52v1.832h-.192v.738h6.234Zm-5.141-.738h.793v-1.04h-.793zm1.613 0v-1.04h.766v1.04zm1.64 0h.794v-1.04h-.793z" fill="#fff"/><path fill="#ccc" d="M2 2h25v25H2z"/><path fill-rule="evenodd" clip-rule="evenodd" d="M25 14.173q0 .405-.042.798c-.401-3.94-3.609-7.01-7.505-7.01h-.004c2.516 1.175 4.27 3.807 4.27 6.866 0 2.275-.97 4.313-2.502 5.692C17.607 22.05 15.353 23 12.859 23 7.966 23 4 19.34 4 14.827q0-.405.042-.798c.357 3.503 2.933 6.319 6.238 6.9-1.816-1.366-2.999-3.59-2.999-6.102q0-.165.007-.33a8 8 0 0 1-.007-.324C7.281 9.66 11.248 6 16.141 6S25 9.66 25 14.173m-8 .327a2.5 2.5 0 1 1-5 0 2.5 2.5 0 0 1 5 0" fill="#3a6af6"/><path fill="#3a6af6" d="M29 2h17v25H29z"/><path fill-rule="evenodd" clip-rule="evenodd" d="M40.898 7.742q1.134.156 1.016-1.054V5.125h-1.367v1.094q0 .39-.234.312h-5.43l1.758-2.46h-1.68l-1.758 2.382v1.29h7.695Zm-.351 5.274q1.406.117 1.328-1.211V8.328h-8.633v4.688zm-5.899-1.172h5.508q.044.005.083.002.27-.016.269-.393V9.54h-5.86zm-.273 13.015q.39.039.508-.312h1.406q.508 0 .742-.508l.625-1.094.703 1.25q.117.352.586.352h1.524a.53.53 0 0 0 .508.312h1.171v-.976q-.312-.078-.273-.313v-7.617h-8.398v7.54q.038.312-.313.273v1.093zm.586-1.406h.586q.273.039.312-.156l1.016-1.797L35 17.867h1.563l1.132 2.188 1.133-2.188h1.445l-1.836 3.594.938 1.719q.117.313.352.273h.625v-6.289H34.96v6.29Z" fill="#fff" stroke="#505050"/><path fill-rule="evenodd" clip-rule="evenodd" d="M40.898 7.742q1.134.156 1.016-1.054V5.125h-1.367v1.094q0 .39-.234.312h-5.43l1.758-2.46h-1.68l-1.758 2.382v1.29h7.695Zm-.351 5.274q1.406.117 1.328-1.211V8.328h-8.633v4.688zm-5.899-1.172h5.508q.044.005.083.002.27-.016.269-.393V9.54h-5.86zm-.273 13.015q.39.039.508-.312h1.406q.508 0 .742-.508l.625-1.094.703 1.25q.117.352.586.352h1.524a.53.53 0 0 0 .508.312h1.171v-.976q-.312-.078-.273-.313v-7.617h-8.398v7.54q.038.312-.313.273v1.093zm.586-1.406h.586q.273.039.312-.156l1.016-1.797L35 17.867h1.563l1.132 2.188 1.133-2.188h1.445l-1.836 3.594.938 1.719q.117.313.352.273h.625v-6.289H34.96v6.29Z" fill="#fff"/><path fill="#3a6af6" d="M17 29h29v9H17z"/><path fill-rule="evenodd" clip-rule="evenodd" d="M35.846 33.203q-.06 1.797-1.719 1.836-1.7-.039-1.738-1.836.039-1.836 1.738-1.894 1.66.058 1.719 1.894ZM26.627 35v-1.387h.566q1.211-.058 1.25-1.113 0-1.133-1.465-1.113h-1.113V35zm-5.547-3.008V35h-.78v-3.008h-1.074v-.605h2.93v.605zm3.184 1.836V35h-.762v-1.172l-1.23-2.441h.918l.742 1.66.761-1.66h.782zm2.363-.82q.059 0 .234.02.781.077.762-.528 0-.527-.762-.508a.7.7 0 0 1-.234 0zM29.693 35v-1.582h1.387V35h.762v-3.613h-.781v1.425h-1.368v-1.425h-.761V35zm4.434-.488q-.937.02-.918-1.309-.02-1.328.918-1.328.898 0 .898 1.328 0 1.308-.898 1.309Zm5.605-1.309q-.059 1.797-1.718 1.836-1.7-.039-1.739-1.836.04-1.836 1.739-1.894 1.66.058 1.718 1.894Zm-1.718 1.309q-.937.02-.918-1.309-.02-1.328.918-1.328.898 0 .898 1.328 0 1.308-.898 1.309Zm2.988-2.5V35h-.723v-3.613h1.153l1.367 2.851.02-.02v-2.831h.722V35h-1.113l-1.406-3.008z" fill="#fff" stroke="#505050"/><path fill-rule="evenodd" clip-rule="evenodd" d="M35.846 33.203q-.06 1.797-1.719 1.836-1.7-.039-1.738-1.836.039-1.836 1.738-1.894 1.66.058 1.719 1.894M26.627 35v-1.387h.566q1.211-.058 1.25-1.113 0-1.133-1.465-1.113h-1.113V35zm-5.547-3.008V35h-.78v-3.008h-1.074v-.605h2.93v.605zm3.184 1.836V35h-.762v-1.172l-1.23-2.441h.918l.742 1.66.761-1.66h.782zm2.363-.82q.059 0 .234.02.781.077.762-.528 0-.527-.762-.508a.7.7 0 0 1-.234 0zM29.693 35v-1.582h1.387V35h.762v-3.613h-.781v1.425h-1.368v-1.425h-.761V35zm4.434-.488q-.937.02-.918-1.309-.02-1.328.918-1.328.898 0 .898 1.328 0 1.308-.898 1.309m5.605-1.309q-.059 1.797-1.718 1.836-1.7-.039-1.739-1.836.04-1.836 1.739-1.894 1.66.058 1.718 1.894m-1.718 1.309q-.937.02-.918-1.309-.02-1.328.918-1.328.898 0 .898 1.328 0 1.308-.898 1.309m2.988-2.5V35h-.723v-3.613h1.153l1.367 2.851.02-.02v-2.831h.722V35h-1.113l-1.406-3.008z" fill="#fff"/><defs><clipPath id="a"><path fill="#fff" d="M0 0h48v40H0z"/></clipPath></defs></svg>