<svg width="48" height="40" fill="none" xmlns="http://www.w3.org/2000/svg"><g clip-path="url(#a)"><path fill-rule="evenodd" clip-rule="evenodd" d="M0 38a2 2 0 0 0 2 2h44a2 2 0 0 0 2-2V2A2 2 0 0 0 46.15.005L46 0H2l-.15.005A2 2 0 0 0 0 2zM27 2H2v25h25zM2 29v9h13v-9zm15 9h29v-9H17zm29-11V2H29v25z" fill="#505050"/></g><path fill="#3a6af6" d="M2 29h13v9H2z"/><path fill-rule="evenodd" clip-rule="evenodd" d="M11.563 31.516v-.793h-.63l.11-.328H9.84l-.11.328H7.215l-.137-.328H5.875l.11.328h-.63v.793zM9.183 32.8q.192.027.301-.192l.082-.164h1.996v-.683H9.758l.027-.082h-.93l-.136.273q-.082.192-.274.164h-.41v.684h1.149Zm-2.761-1.012v2.023h-.93V31.79h.93Zm1.367 2.023V31.79h-.848v2.023h.848Zm3.774 0H9.02q-.52.029-.602-.246l-.355-.656h1.093l.082.11q.028.163.246.136h2.079zm0 2.817v-.738h-.247v-1.832H5.52v1.832h-.192v.738h6.234Zm-5.141-.738h.793v-1.04h-.793zm1.613 0v-1.04h.766v1.04zm1.64 0h.794v-1.04h-.793z" fill="#fff" stroke="#505050"/><path fill-rule="evenodd" clip-rule="evenodd" d="M11.563 31.516v-.793h-.63l.11-.328H9.84l-.11.328H7.215l-.137-.328H5.875l.11.328h-.63v.793zM9.183 32.8q.192.027.301-.192l.082-.164h1.996v-.683H9.758l.027-.082h-.93l-.136.273q-.082.192-.274.164h-.41v.684h1.149Zm-2.761-1.012v2.023h-.93V31.79h.93Zm1.367 2.023V31.79h-.848v2.023h.848Zm3.774 0H9.02q-.52.029-.602-.246l-.355-.656h1.093l.082.11q.028.163.246.136h2.079zm0 2.817v-.738h-.247v-1.832H5.52v1.832h-.192v.738h6.234Zm-5.141-.738h.793v-1.04h-.793zm1.613 0v-1.04h.766v1.04zm1.64 0h.794v-1.04h-.793z" fill="#fff"/><path fill="#ccc" d="M2 2h25v25H2z"/><path d="M7.612 13.02h2.145v5.5c.7-.03 1.372-.28 1.925-.713a3.6 3.6 0 0 1 2.076-.757 3.35 3.35 0 0 1 2.156.89 1.68 1.68 0 0 0 1.147.58 1.67 1.67 0 0 0 1.39-.58 3.35 3.35 0 0 1 1.845-.872v-4.049h2.145a.27.27 0 0 0 .25-.168.28.28 0 0 0-.056-.297l-2.505-2.523V6.922a.233.233 0 0 0-.23-.232h-.895a.23.23 0 0 0-.23.232V8.67L15.21 5.08a.276.276 0 0 0-.387 0L7.41 12.55a.274.274 0 0 0 .2.47zM23.8 18.887a5.8 5.8 0 0 1-1.284-.288 5.1 5.1 0 0 0-2.007-.425 3.34 3.34 0 0 0-2.177.9 1.67 1.67 0 0 1-1.268.586 1.66 1.66 0 0 1-1.269-.587 3.35 3.35 0 0 0-2.158-.89 3.6 3.6 0 0 0-2.076.758 3.35 3.35 0 0 1-2.006.718 2.56 2.56 0 0 1-1.726-.637 3.65 3.65 0 0 0-1.504-.744.23.23 0 0 0-.237.098.23.23 0 0 0-.04.135v.636a.234.234 0 0 0 .174.218c.39.102.754.29 1.065.549a3.55 3.55 0 0 0 2.306.827 4.3 4.3 0 0 0 2.518-.969 2.67 2.67 0 0 1 1.534-.597 2.38 2.38 0 0 1 1.545.697 2.94 2.94 0 0 0 1.857.818 2.9 2.9 0 0 0 1.845-.797 2.38 2.38 0 0 1 1.554-.697c.581 0 1.156.124 1.687.362.523.18 1.064.299 1.614.356a.23.23 0 0 0 .253-.208v-.582a.233.233 0 0 0-.2-.237m-.055 2.258a5.8 5.8 0 0 1-1.282-.288 5.1 5.1 0 0 0-2.007-.425 3.34 3.34 0 0 0-2.177.9 1.68 1.68 0 0 1-1.268.584 1.67 1.67 0 0 1-1.268-.585 3.35 3.35 0 0 0-2.157-.89 3.6 3.6 0 0 0-2.076.759 3.35 3.35 0 0 1-2.006.718 2.56 2.56 0 0 1-1.725-.637 3.6 3.6 0 0 0-1.501-.742.23.23 0 0 0-.238.099.23.23 0 0 0-.039.135v.634a.23.23 0 0 0 .173.217c.39.103.753.29 1.063.549A3.54 3.54 0 0 0 9.542 23c.923-.05 1.804-.4 2.514-.995a2.7 2.7 0 0 1 1.536-.597 2.38 2.38 0 0 1 1.545.697 2.93 2.93 0 0 0 1.857.818 2.9 2.9 0 0 0 1.845-.797 2.4 2.4 0 0 1 1.556-.697c.581 0 1.156.124 1.686.363a7.3 7.3 0 0 0 1.615.355.23.23 0 0 0 .25-.232v-.558a.23.23 0 0 0-.203-.212ZM29 2h17v25H29z" fill="#3a6af6"/><path d="M40.273 6.406H37.97l-.352 1.29h1.328l.47 2.538q0 .313.273.274h.273v1.25H38.79q-.703.039-.82-.781l-.47-2.774-.625 2.578q-.195.976-.977.899H35v-1.211h.195q.235.04.274-.274l.937-3.789h-1.68v6.914h-1.484V5.156h3.399v-.742h1.562v.742h3.555v7.227q.039.937-1.094.898h-3.242v-1.094h2.695q.156.04.156-.195zM37.89 15.96h1.993l.156-.507h1.328v.508h.625v1.172h-5.898V15.96h.39v-.469h1.29l.117.469Zm-1.835 3.517V17.68h5.898v1.718h-1.367v-.546h-3.164v.625zm.039 1.68v-1.173h1.328l.039-.507h1.406l-.039.507h3.086v3.555q0 .78-.781.781h-1.68v-1.054h.86q.273.078.234-.196v-1.914h-1.875l-.234 2.305q-.118.937-1.016.977h-1.29v-1.172h.704a.305.305 0 0 0 .273-.274l.196-1.836h-1.211Zm-2.5-1.329-.235-1.289h1.29l.117.781q.039.313.43.274h.585v1.093h-.82q-1.29.157-1.367-.859m-.313 3.477h.235q.351.039.468-.39l.352-1.602h1.367l-.508 2.304q-.117.743-1.172.703h-.742zm.43-5.938-.508-1.836h1.367l.352 1.133q.039.39.508.352h.39v1.132h-1.172q-.78.118-.937-.78Z" fill="#fff"/><path fill-rule="evenodd" clip-rule="evenodd" d="M40.273 6.406H37.97l-.352 1.29h1.328l.47 2.538q0 .243.165.274a.3.3 0 0 0 .108 0h.273v1.25H38.79a.8.8 0 0 1-.405-.07q-.337-.166-.415-.711l-.47-2.774-.625 2.578q-.195.976-.977.899H35v-1.211h.195l.032.004a.2.2 0 0 0 .063-.004q.149-.03.179-.274l.937-3.789h-1.68v6.914h-1.484V5.156h3.399v-.742h1.562v.742h3.555v7.227q.039.937-1.094.898h-3.242v-1.094h2.695q.156.04.156-.195zm-2.589 5.282a1.7 1.7 0 0 1-.21-.634l-.061-.368-.05.204c-.076.376-.223.725-.491.972-.28.258-.632.348-.996.318h-.65v1.14a.5.5 0 0 1-.5.5h-1.484a.5.5 0 0 1-.5-.5V5.156a.5.5 0 0 1 .5-.5h2.899v-.242a.5.5 0 0 1 .5-.5h1.562a.5.5 0 0 1 .5.5v.242h3.055a.5.5 0 0 1 .5.5v7.217c.015.41-.099.812-.437 1.09-.316.26-.738.332-1.165.318h-3.234a.5.5 0 0 1-.5-.5v-1.094a.5.5 0 0 1 .5-.5h.263Zm-2.457-2.596.54-2.186h-.54zm4.546.335v-2.52h-1.422l-.08.288h.674a.5.5 0 0 1 .492.41zm-3.68 6.534h.391v-.469h1.29l.117.469h1.992l.156-.508h1.328v.508h.625v1.172h-5.898zm-.273 1.055h-.39a1 1 0 0 1-.11.003q-.363-.012-.398-.355l-.352-1.133h-1.367l.508 1.836q.084.483.348.672.227.164.59.11h1.171zm.235.664v1.797h1.367v-.625h3.164v.546h1.367V17.68zm4.03 1.672h-.734a.5.5 0 0 1 .016.132h.726l-.007-.086zm2.252.366a.5.5 0 0 1 .077.266v3.555c0 .338-.085.682-.342.94s-.602.341-.94.341h-1.679a.5.5 0 0 1-.5-.5v-.987l-.02.19c-.048.387-.185.746-.461 1.011-.28.269-.642.386-1.028.403h-1.312a.5.5 0 0 1-.5-.5v-.509a1.2 1.2 0 0 1-.531.665c-.31.186-.69.24-1.086.227h-.734a.5.5 0 0 1-.5-.5v-1.015a.5.5 0 0 1 .5-.5h.215l.003-.012.349-1.588a.5.5 0 0 1 .05-.132 1.4 1.4 0 0 1-.19-.099c-.388-.244-.57-.64-.61-1.08l-.23-1.265a.5.5 0 0 1 .491-.59h.054a1.9 1.9 0 0 1-.19-.56l-.502-1.814a.5.5 0 0 1 .482-.634h1.367a.5.5 0 0 1 .478.352l.351 1.133h.195v-.555a.5.5 0 0 1 .39-.488.5.5 0 0 1 .5-.48h1.29a.5.5 0 0 1 .484.378l.023.09h1.233l.047-.155a.5.5 0 0 1 .478-.353h1.328a.5.5 0 0 1 .5.5v.008h.125a.5.5 0 0 1 .5.5v1.172a.5.5 0 0 1-.102.303.5.5 0 0 1 .063.244v1.718a.5.5 0 0 1-.116.32M33.36 18.54h1.29l.117.781q.039.313.43.274h.585v1.093h-.82q-1.29.157-1.367-.859zm2.735 2.617h1.21l-.195 1.836a.305.305 0 0 1-.273.274h-.703v1.172h1.289q.898-.04 1.016-.977l.234-2.305h1.875v1.914q.039.274-.234.196h-.86v1.054h1.68q.78 0 .781-.78v-3.556h-3.086l.04-.507H37.46l-.04.507h-1.327v1.172Zm3.953.5h-.923l-.15 1.464a.5.5 0 0 1 .48-.354h.593zm-3.416 1.11h-.498a.5.5 0 0 0-.253.068l.26-1.178h.609zm-2.295-1.453-.352 1.601q-.097.359-.358.39a.5.5 0 0 1-.11 0h-.235v1.016h.742q1.056.04 1.172-.703l.508-2.305h-1.367Zm1.219-2.22v-.445h-.385l.067.446h.318Z" fill="#505050"/><path fill="#3a6af6" d="M17 29h29v9H17z"/><path d="m24.662 32.492.633-2.444h.79l.563 2.444h.018l.527-2.444h.65l-.825 3.252h-.774l-.58-2.478-.633 2.478h-.79l-.792-3.252h.72zm3.955.808h-.668l1.178-3.252h.826l1.143 3.252h-.703l-.247-.685h-1.283zm.422-1.23h.932l-.44-1.39h-.017zm2.145-1.477v-.545h2.636v.545h-.967V33.3h-.703v-2.707zm2.953 2.707v-3.252h2.18v.545H34.84v.756h1.37v.545h-1.37v.861h1.53v.545zm3.445-2.707v.861h.58q.474 0 .492-.457-.017-.405-.492-.404zm0 1.406V33.3h-.703v-3.252h1.389q1.107.036 1.125.844-.018.633-.668.79v.018q.475.054.58.721 0 .052.017.106.035.597.176.773h-.756a4.3 4.3 0 0 1-.123-.879q-.053-.422-.299-.422zM23.291 37.3h-2.092v-3.252h.686v2.707h1.406zm1.846.035q-1.53-.035-1.565-1.652.035-1.653 1.565-1.705 1.494.052 1.547 1.705-.053 1.617-1.547 1.652m0-2.848q-.844 0-.826 1.196-.018 1.196.826 1.178.808 0 .808-1.178 0-1.196-.808-1.196m4.218 1.618h-.632v-.545h1.318v1.635q-.352.105-.72.105a6 6 0 0 1-.739.035q-1.494-.07-1.53-1.652.036-1.582 1.53-1.705 1.512 0 1.512 1.054h-.739q0-.544-.65-.544-.914.034-.914 1.195 0 1.16.914 1.178.263 0 .615-.053.018 0 .035-.018zm3.498 0h-.632v-.545h1.318v1.635q-.351.105-.72.105a6 6 0 0 1-.739.035q-1.494-.07-1.53-1.652.036-1.582 1.53-1.705 1.512 0 1.512 1.054h-.739q0-.544-.65-.544-.915.034-.914 1.195 0 1.16.914 1.178.264 0 .615-.053.018 0 .035-.018zm2.004-2.057V37.3h-.703v-3.252zm3.498 3.252h-1.002l-1.265-2.707-.018.018V37.3h-.65v-3.252h1.037l1.23 2.566.018-.017v-2.549h.65zm2.743-1.195h-.633v-.545h1.318v1.635q-.351.105-.72.105a6 6 0 0 1-.739.035q-1.494-.07-1.53-1.652.036-1.582 1.53-1.705 1.512 0 1.512 1.054h-.738q0-.544-.65-.544-.915.034-.915 1.195 0 1.16.914 1.178.264 0 .615-.053.018 0 .036-.018z" fill="#fff"/><path fill-rule="evenodd" clip-rule="evenodd" d="m24.24 33.3-.79-3.252h.72l.492 2.444.633-2.444h.79l.563 2.444h.018l.527-2.444h.65l-.825 3.252h-.774l-.58-2.478-.633 2.478h-.79Zm1.403-.375-.127.499-.03.084q.181.028.35.08a.5.5 0 0 1-.079-.174zm.65.875a1.7 1.7 0 0 1 .58.615 1.8 1.8 0 0 1 .783-.71.5.5 0 0 1-.173-.223.5.5 0 0 1-.465.318zm1.513-1.573.85-2.35a.5.5 0 0 1 .471-.329h.826a.5.5 0 0 1 .472.334l.26.739-.001-.028v-.545a.5.5 0 0 1 .5-.5h2.636q.084.001.158.026a.5.5 0 0 1 .159-.026h2.18c.104 0 .2.032.28.087a.5.5 0 0 1 .282-.087h1.404c.418.014.815.1 1.12.329.33.247.48.607.49 1.004v.025a1.3 1.3 0 0 1-.294.823l-.005.005a1.7 1.7 0 0 1 .21.658.5.5 0 0 1 .017.105q.018.275.05.411c.014.06.026.087.028.094a.5.5 0 0 1 .05.515l-.005.01a3 3 0 0 1 .38-.05c.547 0 1.046.093 1.42.354.407.284.592.714.592 1.201a.5.5 0 0 1-.104.306.5.5 0 0 1 .051.222v1.635a.5.5 0 0 1-.356.478q-.407.123-.833.127a7 7 0 0 1-.793.035c-.57-.027-1.077-.2-1.446-.58v.045a.5.5 0 0 1-.5.5h-1.002a.5.5 0 0 1-.452-.288l-.33-.707v.495a.5.5 0 0 1-.5.5h-.651a.5.5 0 0 1-.281-.086.5.5 0 0 1-.282.086h-.703a.5.5 0 0 1-.373-.168.5.5 0 0 1-.098.041q-.408.123-.833.127a7 7 0 0 1-.793.035c-.585-.028-1.103-.208-1.473-.608l-.043-.048v.016a.5.5 0 0 1-.356.478q-.408.123-.833.127a7 7 0 0 1-.794.035c-.584-.028-1.102-.208-1.472-.608a2 2 0 0 1-.218-.292 1.8 1.8 0 0 1-.232.311c-.377.402-.9.575-1.488.59h-.023c-.515-.013-.981-.142-1.344-.436a.5.5 0 0 1-.49.4h-2.092a.5.5 0 0 1-.5-.5v-3.252a.5.5 0 0 1 .5-.5h.686a.5.5 0 0 1 .5.5v2.207h.746a3 3 0 0 1-.059-.583c.014-.62.169-1.174.54-1.58q.19-.203.423-.336a.5.5 0 0 1-.28-.338l-.792-3.252a.5.5 0 0 1 .486-.618h.72a.5.5 0 0 1 .491.401l.063.313.088-.34a.5.5 0 0 1 .484-.374h.79a.5.5 0 0 1 .488.388l.069.298.063-.291a.5.5 0 0 1 .488-.395h.65a.5.5 0 0 1 .485.623zm-4.077 4.288a1.25 1.25 0 0 0 .848.741 2.2 2.2 0 0 0 .57.079q.267-.008.488-.065.77-.203.975-1.025.063-.248.073-.554v-.016a3 3 0 0 0-.071-.562q-.265-1.093-1.475-1.135-1.53.052-1.565 1.705.011.487.157.831Zm1.021.27a.8.8 0 0 0 .376.076h.022a.8.8 0 0 0 .327-.067q.47-.213.47-1.111 0-1.196-.808-1.196-.844 0-.826 1.196-.014.879.44 1.102Zm-2.865-.03v-2.707h-.686V37.3h2.092v-.545zm5.238-.51q.226.905 1.174 1.06.135.024.285.03h.124q.372-.005.614-.035l.074-.001.03-.001q.315-.013.617-.103V35.56h-1.318v.545h.633v.685l-.012.01a.04.04 0 0 1-.024.008l-.06.009a4 4 0 0 1-.555.044 1 1 0 0 1-.123-.008 1 1 0 0 1-.179-.036q-.612-.184-.612-1.134 0-1.16.914-1.196.65 0 .65.545h.739q0-.29-.114-.5-.302-.555-1.398-.554-1.2.099-1.458 1.137a2.6 2.6 0 0 0-.071.58q.007.303.07.55m1.592-1.257c-.184.008-.257.065-.298.12a.4.4 0 0 0-.06.11.5.5 0 0 1 .366-.158h.133l-.002-.057a.6.6 0 0 0-.14-.015Zm1.717-.67a1.34 1.34 0 0 0-.43-.487c-.259-.18-.577-.28-.93-.325l.016-.037.127-.355h.58l.127.355a.5.5 0 0 0 .47.331h.585a1.8 1.8 0 0 0-.545.518m1.085-.748q.09-.026.187-.044a.5.5 0 0 1-.054-.226v-2.207h-.466a.5.5 0 0 1-.407-.21l.79 2.251a.5.5 0 0 1-.05.436m1.678.095a1.6 1.6 0 0 1 .467.297.5.5 0 0 1 .152-.28.5.5 0 0 1-.177-.382v-2.207h-.284V33.3c0 .144-.06.274-.158.365m-.342-3.072h.967v-.545h-2.636v.545h.966V33.3h.703zm1.284 2.707h2.232v-.545h-1.53v-.861h1.372v-.545H34.84v-.756h1.476v-.545h-2.18zm2.754.5.017.032.297.62v-.404q.002-.137.066-.248zm1.125-.252h.292a.5.5 0 0 1-.05-.127 5 5 0 0 1-.136-.922h-.04v.801q-.002.137-.066.248M37.582 32h.742q.154.003.232.172a1 1 0 0 1 .063.25q.018.457.123.879h.756q-.105-.131-.151-.5a4 4 0 0 1-.025-.273.3.3 0 0 1-.017-.106 1.3 1.3 0 0 0-.112-.378.58.58 0 0 0-.338-.314l-.013-.004a1 1 0 0 0-.113-.024h-.004v-.018h.002a1.3 1.3 0 0 0 .232-.082.75.75 0 0 0 .288-.234.83.83 0 0 0 .146-.475q-.018-.809-1.125-.844h-1.39V33.3h.704zm1.036-.805a.6.6 0 0 0 .036-.197q-.017-.405-.492-.404h-.58v.861h.58a1 1 0 0 0 .123-.008q.241-.038.325-.233zm.172 2.606a.5.5 0 0 1 .066.248v.048q.165-.173.365-.296zm.066 1.358a2.6 2.6 0 0 0-.061.525q.006.285.06.523.215.94 1.184 1.1.135.023.285.03l.114-.001h.01q.372-.005.614-.035l.074-.001.03-.001q.315-.013.617-.103V35.56h-1.318v.545h.633v.685l-.012.01a.04.04 0 0 1-.023.008l-.06.009a4 4 0 0 1-.556.044 1 1 0 0 1-.123-.008 1 1 0 0 1-.178-.036q-.613-.184-.613-1.134 0-1.16.914-1.196.65 0 .65.545h.739q0-.29-.114-.5-.302-.555-1.398-.554-1.224.1-1.468 1.18Zm1.6-.17c-.183.008-.256.065-.297.12a.4.4 0 0 0-.06.11.5.5 0 0 1 .366-.158h.133l-.002-.057a.6.6 0 0 0-.14-.015m-2.1-.94h-.65v2.549l-.019.017-1.23-2.566H35.42V37.3h.65v-2.69l.018-.017 1.265 2.707h1.002v-3.252Zm-6.002 1.012-.002-.057a.6.6 0 0 0-.14-.015c-.183.008-.256.065-.297.12a.4.4 0 0 0-.06.11.5.5 0 0 1 .366-.158zm-.453 1.757q-.612-.184-.612-1.134 0-1.16.914-1.196.65 0 .65.545h.739q0-.29-.114-.5-.301-.555-1.398-.554-1.494.123-1.53 1.705.032 1.424 1.245 1.623.135.023.285.03l.114-.001h.01q.372-.005.614-.035l.074-.001.03-.001q.315-.013.617-.103V35.56h-1.318v.545h.633v.685l-.012.01a.04.04 0 0 1-.024.008 4 4 0 0 1-.615.053l-.1-.006-.023-.002a1 1 0 0 1-.179-.036Zm-1.755-4.203.247.686h.703l-1.143-3.252h-.826L27.949 33.3h.668l.246-.685zm-.175-.544h-.932l.475-1.39h.017zm-4.834 4.29c.13 0 .166-.036.194-.077.051-.075.114-.25.114-.6 0-.358-.063-.538-.116-.617-.03-.043-.065-.079-.192-.079-.148 0-.19.043-.217.084-.052.074-.115.249-.11.605v.014c-.005.357.059.528.108.598.024.034.06.076.208.073zm9.72-2.312h-.703V37.3h.703v-3.252Z" fill="#505050"/><defs><clipPath id="a"><path fill="#fff" d="M0 0h48v40H0z"/></clipPath></defs></svg>