<svg width="48" height="40" fill="none" xmlns="http://www.w3.org/2000/svg"><g clip-path="url(#a)"><path fill-rule="evenodd" clip-rule="evenodd" d="M0 38a2 2 0 0 0 2 2h44a2 2 0 0 0 2-2V2A2 2 0 0 0 46.15.005L46 0H2l-.15.005A2 2 0 0 0 0 2zM27 2H2v25h25zM2 29v9h13v-9zm15 9h29v-9H17zm29-11V2H29v25z" fill="#505050"/></g><path fill="#f29d38" d="M2 29h13v9H2z"/><path d="M7.352 36.574v-3.718h.164v-.794h-.164v-.246h.218v-.765h-.218v-.656h-.903v.656H5.33v.793h1.093v.218H5.52l-.11 3.5q0 .138-.11.11v.656h.384q.52 0 .52-.547l.109-2.925h.109v3.718zm1.175-3.527q.957.11.957-.93l.11-1.668h-1.86v.684h.93l-.027.328h-.219q-.137.027-.11-.11h-.574v.247q0 .492.41.52h.438l-.027.081q-.028.192-.164.164h-.63v.684zm2.98-.684v.657h-.984a1 1 0 0 1-.109.003q-.577-.008-.601-.66l-.137-1.914h1.86v.766h-.848l.054.273h.137q.137.027.137-.11h.546l-.027.329q-.027.465-.41.383h-.355l.027.11q-.027.19.191.163h.52Zm.028 1.504v-.656H7.652v.656zm0 2.078v.547H7.543v-.547h.574l-.082-.3H7.68v-1.56h3.855v1.013q.027.6-.492.547l-.055.3zm-1.039-.957a.1.1 0 0 0 .04.005q.07-.005.07-.114v-.11H8.554v.22h1.941Zm-1.45.957h1.04v-.3h-1.04z" fill="#505050" stroke="#505050"/><path d="M7.352 36.574v-3.718h.164v-.794h-.164v-.246h.218v-.765h-.218v-.656h-.903v.656H5.33v.793h1.093v.218H5.52l-.11 3.5q0 .138-.11.11v.656h.384q.52 0 .52-.547l.109-2.925h.109v3.718zm1.175-3.527q.957.11.957-.93l.11-1.668h-1.86v.684h.93l-.027.328h-.219q-.137.027-.11-.11h-.574v.247q0 .492.41.52h.438l-.027.081q-.028.192-.164.164h-.63v.684zm2.98-.684v.657h-.984a1 1 0 0 1-.109.003q-.577-.008-.601-.66l-.137-1.914h1.86v.766h-.848l.054.273h.137q.137.027.137-.11h.546l-.027.329q-.027.465-.41.383h-.355l.027.11q-.027.19.191.163h.52Zm.028 1.504v-.656H7.652v.656zm0 2.078v.547H7.543v-.547h.574l-.082-.3H7.68v-1.56h3.855v1.013q.027.6-.492.547l-.055.3zm-1.039-.957a.1.1 0 0 0 .04.005q.07-.005.07-.114v-.11H8.554v.22h1.941Zm-1.45.957h1.04v-.3h-1.04z" fill="#fff"/><path fill="#ccc" d="M2 2h25v25H2z"/><path fill-rule="evenodd" clip-rule="evenodd" d="M13.214 4.055s-.71-.11-.748 0 .625.59.625.59 1.63.905 2.174 1.418c.543.513.865 1.455.865 1.455s-.084.769-.39 1.273c-.307.503-1.176 1.303-1.176 1.303s-1.478 1.56-2.098 2.402c-.62.844-1.612 2.642-1.612 2.642s-.31.867-.691.724c-.382-.143-.3-1.04-.3-1.04s.219-.71.582-1.198 1.438-1.52 1.438-1.52 1.029-1.05 1.208-1.548-.236-1.146-.236-1.146-.805-.878-1.312-1.119c-.508-.24-1.266-.103-1.266-.103s-.43.103-.414.194.52.297.52.297.725.295.979.488c.253.193.448.6.448.6s.02.794-.183 1.164-.973.942-.973.942-1.217.781-1.818 1.546-1.41 2.561-1.41 2.561-.696 2.635-.254 4.254 2.34 3.394 2.34 3.394 2.459 1.454 3.58 1.59 2.538-.846 2.538-.846.441-.38.837-.955c.197-.286.44-1.397 1.426-1.997.336-.204 1.496 0 1.496 0s1.968.208 2.891-.716c.924-.924 1.067-2.691 1.067-2.691s-.23-1.013-.644-1.44c-.414-.426-1.443-.711-1.443-.711s-.913-.397-1.131-.724.168-.716.168-.716.801-.5 1.048-.843 0-.61 0-.61l-.872-1.096s-.114-.195-.176-.144c-.024.02-.087.079-.108.257-.015.12 0 .51 0 .51s.027.502-.142.923c-.17.42-.817 1.003-.817 1.003s-.561.549-1.02.28c-.458-.27-.178-.905-.178-.905s.166-.53.27-.72c.191-.352.636-.991.743-1.204.115-.228.388-.748.344-1.45-.02-.31-.344-1.065-.344-1.065s-.214-.409-.29-.32-.062.729-.062.729.102.618-.267 1.119c-.369.5-1.663 1.145-1.663 1.145s-.497.547-.572 1.046.214 1.345.214 1.345.062.936-.665 1.318-1.176-.197-1.176-.197-.335-.71-.306-1.121c.03-.413.475-1.237.475-1.237s.769-1.05 1.098-1.456c.647-.798 1.14-1.314 1.409-1.738.608-.957.913-2.53.913-2.53s-.12-1.178-.8-2.13c-.68-.953-3.94-1.276-3.94-1.276z" fill="#f29d38"/><path fill="#f29d38" d="M29 2h17v25H29z"/><path fill-rule="evenodd" clip-rule="evenodd" d="M34.492 8.297v1.996h-1.011V8.297h-2.57v-.738h2.57v-.247h1.011v.247h2.625v.738zM32.66 9.91q-.081.41-.738.328H30.91v-.683h.492q.274.027.383-.192l.465-.875h1.066zm2.79.11q.026.355.765.273h.875v-.738h-.383q-.41.027-.492-.22l-.383-.847h-1.094l.711 1.532Zm1.722 3.5h-.191l-.123.005q-.641.003-.616-.498l-.164-1.066v1.559h-.93v-1.56l-.191 1.067q-.025.468-.559.493h-.343v-.711q.082.054.164-.274l.164-1.039h.765v-.191h-1.066v-.739h1.066v-.246h.93v.246h1.066v.739h-1.066v.218h.738l.164 1.094q-.027.219.192.192v.71Zm-3.445 0h.164v-.711q-.137.027-.164-.192l-.137-1.094h-.711v-.218h1.039v-.739h-1.04v-.246h-.874v.246H30.91v.739h1.094v.191h-.711l-.164 1.04q-.027.354-.219.3v.684h.416q.489-.024.514-.493l.164-1.066v1.559h.875v-1.56l.164 1.067q-.027.547.684.493Zm6.261-4.649v4.758h-.902V8.87h-1.121v-.793h1.12v-.71h.903v.71h.957v.793h-.957Zm3.145 4.73V8.817h1.039v-.82h-1.066v-.601h-.903v.628h-.957v.82h.957v4.759h.93Zm-4.239-.902q0 .684-.519.656h-.465v-.765h.082q.137.027.137-.164v-3.2h.766V12.7Zm2.516.656q.602 0 .602-.656V9.227h-.739v3.062q0 .3-.136.274h-.082q-.137.027-.11-.247v-3.09h-.765v3.583q-.055.574.629.546zm2.953 0h-.437a1 1 0 0 1-.105.005q-.546-.008-.497-.633v-3.5h.739v3.171q0 .219.164.192h.136zm-7.3 9.274v-.793h-.356q-.383.027-.574-.246l-1.64-2.133V16.34H33.48v3.117l-1.722 2.078a.54.54 0 0 1-.52.246h-.355v.82h1.012q.327 0 .683-.437l1.367-1.668 1.45 1.832q.218.3.574.3h1.093Zm-4.02-2.926h-1.367q-.63.11-.63-.902l-.163-2.406h1.12l.165 2.187q0 .328.273.355h.602zm3.063.055q.629.054.683-.684l.273-2.68H35.97l-.274 2.27q-.027.328-.3.273h-.465v.82h1.175Zm5.632-2.242a.41.41 0 0 1-.437.246h-.82v-.766h.355q.137.027.219-.11l.246-.519h2.105l.164.465q.082.165.22.137h.245v.738h-.738q-.328.027-.383-.219l-.164-.328h-.848zm-2.898 5.14v-.218h.93q.52 0 .52-.493v-2.379q0-.437-.548-.546.52-.028.52-.657v-1.968H37.91v6.261zm0-4.02h.355q.031.005.058.003.162-.01.161-.221v-1.094h-.574zm5.195.274v-.793h-3.554v.793zm-.137 2.024q-.027.546-.437.492h-.492v-.684q.19.027.218-.246l.11-1.34h.738zm-1.586.492h.465v-.738q-.19.027-.164-.192l-.11-1.312h-.737l.136 1.75q0 .487.324.496.04.002.087-.004Zm-.574.027h-.547l-.085.009q-.404.014-.38-.583l-.136-1.668h.765l.11 1.312q0 .247.137.192h.136zm-2.515.219h-.383v-2.188h.41q.192.027.191.22v1.776q-.026.192-.218.192Zm4.812.082v.793h-3.554v-.793z" fill="#fff" stroke="#505050"/><path fill-rule="evenodd" clip-rule="evenodd" d="M34.492 8.297v1.996h-1.011V8.297h-2.57v-.738h2.57v-.247h1.011v.247h2.625v.738zM32.66 9.91q-.081.41-.738.328H30.91v-.683h.492q.274.027.383-.192l.465-.875h1.066zm2.79.11q.026.355.765.273h.875v-.738h-.383q-.41.027-.492-.22l-.383-.847h-1.094l.711 1.532Zm1.722 3.5h-.191l-.123.005q-.641.003-.616-.498l-.164-1.066v1.559h-.93v-1.56l-.191 1.067q-.025.468-.559.493h-.343v-.711q.082.054.164-.274l.164-1.039h.765v-.191h-1.066v-.739h1.066v-.246h.93v.246h1.066v.739h-1.066v.218h.738l.164 1.094q-.027.219.192.192v.71Zm-3.445 0h.164v-.711q-.137.027-.164-.192l-.137-1.094h-.711v-.218h1.039v-.739h-1.04v-.246h-.874v.246H30.91v.739h1.094v.191h-.711l-.164 1.04q-.027.354-.219.3v.684h.416q.489-.024.514-.493l.164-1.066v1.559h.875v-1.56l.164 1.067q-.027.547.684.493m6.261-4.649v4.758h-.902V8.87h-1.121v-.793h1.12v-.71h.903v.71h.957v.793h-.957Zm3.145 4.73V8.817h1.039v-.82h-1.066v-.601h-.903v.628h-.957v.82h.957v4.759h.93Zm-4.239-.902q0 .684-.519.656h-.465v-.765h.082q.137.027.137-.164v-3.2h.766V12.7Zm2.516.656q.602 0 .602-.656V9.227h-.739v3.062q0 .3-.136.274h-.082q-.137.027-.11-.247v-3.09h-.765v3.583q-.055.574.629.546zm2.953 0h-.437a1 1 0 0 1-.105.005q-.546-.008-.497-.633v-3.5h.739v3.171q0 .219.164.192h.136zm-7.3 9.274v-.793h-.356q-.383.027-.574-.246l-1.64-2.133V16.34H33.48v3.117l-1.722 2.078a.54.54 0 0 1-.52.246h-.355v.82h1.012q.327 0 .683-.437l1.367-1.668 1.45 1.832q.218.3.574.3h1.093Zm-4.02-2.926h-1.367q-.63.11-.63-.902l-.163-2.406h1.12l.165 2.187q0 .328.273.355h.602zm3.063.055q.629.054.683-.684l.273-2.68H35.97l-.274 2.27q-.027.328-.3.273h-.465v.82h1.175Zm5.632-2.242a.41.41 0 0 1-.437.246h-.82v-.766h.355q.137.027.219-.11l.246-.519h2.105l.164.465q.082.165.22.137h.245v.738h-.738q-.328.027-.383-.219l-.164-.328h-.848zm-2.898 5.14v-.218h.93q.52 0 .52-.493v-2.379q0-.437-.548-.546.52-.028.52-.657v-1.968H37.91v6.261zm0-4.02h.355q.031.005.058.003.162-.01.161-.221v-1.094h-.574zm5.195.274v-.793h-3.554v.793zm-.137 2.024q-.027.546-.437.492h-.492v-.684q.19.027.218-.246l.11-1.34h.738zm-1.586.492h.465v-.738q-.19.027-.164-.192l-.11-1.312h-.737l.136 1.75q0 .487.324.496.04.002.087-.004Zm-.574.027h-.547l-.085.009q-.404.014-.38-.583l-.136-1.668h.765l.11 1.312q0 .247.137.192h.136zm-2.515.219h-.383v-2.188h.41q.192.027.191.22v1.776q-.026.192-.218.192m4.812.082v.793h-3.554v-.793z" fill="#fff"/><path fill="#f29d38" d="M17 29h29v9H17z"/><path fill-rule="evenodd" clip-rule="evenodd" d="M22.863 32.577 22.244 35h-.773l-.773-3.18h.704l.482 2.39.618-2.39h.774l.55 2.39h.017l.516-2.39h.635L24.188 35h-.757zm3.146-.757V35h-.688v-3.18zM28.62 35v-.533h-1.375V31.82h-.67V35zm3.06-1.581Q31.662 35 30.081 35h-1.083v-3.18h1.083q1.581.018 1.598 1.599Zm-1.65 1.048h-.361v-2.114h.36q.945-.017.929 1.066.017 1.083-.929 1.048Zm4.038-.825V35h-.67v-3.18h2.045v.533H34.07v.756h1.29v.533h-1.29ZM36.493 35v-3.18h-.688V35zm1.203-1.272V35h-.687v-3.18h1.357q1.083.035 1.1.825-.017.619-.653.774v.017q.465.052.567.705 0 .05.018.103.034.584.171.756h-.739a4.2 4.2 0 0 1-.12-.86q-.051-.412-.292-.412zm.567-.533h-.567v-.842h.567q.465 0 .482.395-.017.447-.482.447Zm3.85 1.272V35H39.93v-3.18h2.132v.533h-1.444v.74h1.34v.532h-1.34v.842z" fill="#fff" stroke="#505050"/><path fill-rule="evenodd" clip-rule="evenodd" d="M22.863 32.577 22.244 35h-.773l-.773-3.18h.704l.482 2.39.618-2.39h.774l.55 2.39h.017l.516-2.39h.635L24.188 35h-.757zm3.146-.757V35h-.688v-3.18zM28.62 35v-.533h-1.375V31.82h-.67V35zm3.06-1.581Q31.662 35 30.081 35h-1.083v-3.18h1.083q1.581.018 1.598 1.599Zm-1.65 1.048h-.361v-2.114h.36q.945-.017.929 1.066.017 1.083-.929 1.048Zm4.038-.825V35h-.67v-3.18h2.045v.533H34.07v.756h1.29v.533h-1.29ZM36.493 35v-3.18h-.688V35zm1.203-1.272V35h-.687v-3.18h1.357q1.083.035 1.1.825-.017.619-.653.774v.017q.465.052.567.705 0 .05.018.103.034.584.171.756h-.739a4.2 4.2 0 0 1-.12-.86q-.051-.412-.292-.412zm.567-.533h-.567v-.842h.567q.465 0 .482.395-.017.447-.482.447m3.85 1.272V35H39.93v-3.18h2.132v.533h-1.444v.74h1.34v.532h-1.34v.842z" fill="#fff"/><defs><clipPath id="a"><path fill="#fff" d="M0 0h48v40H0z"/></clipPath></defs></svg>