<svg width="482" height="46" fill="none" xmlns="http://www.w3.org/2000/svg"><g clip-path="url(#clip0_653_22)"><path fill-rule="evenodd" clip-rule="evenodd" d="M44.921 1.376 0 46h6.97c3.185 0 6.283-1.29 8.52-3.525l30.378-30.18c1.29-1.29 3.442-1.29 4.733 0l30.378 30.18A12.13 12.13 0 0 0 89.499 46h6.97L51.548 1.376a4.626 4.626 0 0 0-6.54 0M185.966 0c-3.184 0-6.282 1.29-8.519 3.525l-30.378 30.18c-1.291 1.29-3.442 1.29-4.733 0l-30.378-30.18A12.13 12.13 0 0 0 103.439 0h-6.97l44.921 44.624a4.625 4.625 0 0 0 6.54 0L192.938 0zm151.115 17.282h-4.131a2.13 2.13 0 0 0-2.152 2.15V43.85A2.13 2.13 0 0 0 332.95 46h4.131a2.13 2.13 0 0 0 2.151-2.15V19.432a2.13 2.13 0 0 0-2.151-2.15M375.72 3.525A12.13 12.13 0 0 0 367.201 0h-77.708l4.905 4.9a12.13 12.13 0 0 0 8.519 3.526h77.795l-4.905-4.9zm-137.862-2.15L192.938 46h6.97a12.13 12.13 0 0 0 8.52-3.525l30.378-30.18c1.29-1.29 3.442-1.29 4.733 0l30.377 30.18a12.13 12.13 0 0 0 8.52 3.525h6.971L244.485 1.376c-1.807-1.806-4.733-1.806-6.626 0m224.004 24.763h6.97c7.229 0 13.167-5.76 13.167-12.983v-.602c-.344-7.05-6.454-12.467-13.511-12.467h-69.275l4.905 4.9a12.13 12.13 0 0 0 8.52 3.526h55.85c2.496 0 4.733 1.806 4.905 4.213.259 2.58-1.721 4.815-4.302 5.073h-67.813a2.13 2.13 0 0 0-2.151 2.15v23.989a2.13 2.13 0 0 0 2.151 2.149h4.131a2.13 2.13 0 0 0 2.152-2.15V26.225h42.253l16.609 16.337c2.237 2.235 5.335 3.525 8.605 3.525H482l-20.137-19.862z" fill="#333"/></g><defs><clipPath id="clip0_653_22"><path fill="#fff" d="M0 0h482v46H0z"/></clipPath></defs></svg>