<svg width="77" height="46" fill="none" xmlns="http://www.w3.org/2000/svg"><g clip-path="url(#clip0_654_62)"><mask id="mask0_654_62" style="mask-type:luminance" maskUnits="userSpaceOnUse" x="0" y="0" width="77" height="46"><path d="M77 0H0v46h77z" fill="#fff"/></mask><g mask="url(#mask0_654_62)" fill="#c50018"><path d="M60.515 15.685h-9.558v14.642h3.481v-11.14h6.112c2.119 0 3.842 1.715 3.842 3.825s-1.723 3.825-3.842 3.825h-5.402v3.501h5.379c4.063 0 7.358-3.28 7.358-7.326s-3.295-7.327-7.358-7.327m-27.498 0v4.904a1 1 0 0 0 1 .997h2.55v3.165h-3.19a3.84 3.84 0 0 1-3.853-3.838v-5.228zm12.002 0v4.904a1 1 0 0 1-1.001.997h-6.74v8.729h3.48v-5.576h3.888a3.843 3.843 0 0 0 3.854-3.837v-5.229H45.03zm-17.579 4.533c0-2.504-2.037-4.533-4.552-4.533H10.536v14.642h3.481v-5.901h8.72a1.22 1.22 0 0 1 1.222 1.217 1.22 1.22 0 0 1-1.222 1.217h-8.01v3.467H22.9c2.515 0 4.552-2.029 4.552-4.533a4.46 4.46 0 0 0-.966-2.782 4.5 4.5 0 0 0 .966-2.783m-4.715 1.38h-8.72v-2.435h8.72a1.22 1.22 0 0 1 1.222 1.218 1.22 1.22 0 0 1-1.222 1.217"/><path d="M38.5 0C17.242 0 0 10.294 0 23s17.242 23 38.5 23S77 35.706 77 23 59.77 0 38.5 0m0 42.499c-19.92 0-36.067-8.73-36.067-19.499 0-10.77 16.148-19.499 36.067-19.499 19.92 0 36.067 8.73 36.067 19.499 0 10.77-16.148 19.499-36.067 19.499"/></g></g><defs><clipPath id="clip0_654_62"><path fill="#fff" d="M0 0h77v46H0z"/></clipPath></defs></svg>