<svg width="181" height="46" fill="none" xmlns="http://www.w3.org/2000/svg"><path d="M24.861.004c-5.956.114-13.128 1.15-17.293 3.652C4.882 5.287 1.579 8.607.566 13.72c-1.014 5.111-.545 10.09.454 15.206 1 5.117 3.002 10.845 8.548 13.796s9.266 3.3 16.867 3.278c7.601.022 11.32-.328 16.867-3.279 5.546-2.95 7.548-8.678 8.547-13.795s1.468-10.095.455-15.206c-1.014-5.112-4.316-8.432-7.002-10.063C39.89.676 33.936.104 28.008.004c-1.079.007-2.147-.012-3.147 0m7.756 1.376c2.2.21 7.703.637 11.821 3.096 4.119 2.46 5.96 5.586 6.729 9.38.769 3.792.702 8.588-.364 14.66-1.065 6.07-4.048 11.121-8.093 13.249-4.045 2.127-9.18 3.253-16.275 3.143-7.095.11-12.23-1.016-16.275-3.143-4.046-2.128-7.028-7.179-8.094-13.25s-1.132-10.867-.363-14.66c.77-3.793 2.61-6.92 6.729-9.379s9.621-2.886 11.82-3.096c4.108-.341 8.31-.368 12.365 0M25.07 2.436c-3.376.042-6.99.456-9.464.988-2.827.608-3.793.823-6.23 2.283S3.94 10.141 3.02 14.72s-.494 9.038.413 13.62c.907 4.583 2.724 9.714 7.758 12.356 8.365 4.363 22.33 4.19 30.486 0 5.034-2.642 6.85-7.773 7.758-12.356.907-4.582 1.332-9.042.413-13.62-.92-4.578-3.918-7.552-6.355-9.012s-3.404-1.675-6.231-2.283c-2.474-.532-6.088-.946-9.464-.988-.936.007-1.861-.01-2.728 0m6.64 2.201c.918.086 2.504.218 4.298.564.265.055.415.14.356.394-2.884 7.005-5.965 14.013-9.179 21.019-.433.929-.98.965-1.424.172-3.242-7.063-6.35-14.128-9.257-21.191-.059-.253.09-.34.356-.394 1.794-.346 3.38-.478 4.298-.564 3.505-.288 7.102-.308 10.552 0M13.96 5.963c.164-.004.22.105.214.31l.002-.006v11.789c0 3.72.607 5.465 2.25 8.499l7.875 14.522c.27.513-.167.48-.64.484-4.696-.202-8.292-1.116-11.221-2.63-3.494-1.807-6.07-6.096-6.99-11.25-.921-5.156-.98-9.23-.315-12.45.664-3.22 2.254-5.876 5.812-7.964.887-.52 1.849-.934 2.822-1.264a.7.7 0 0 1 .191-.04m24.948 0a.7.7 0 0 1 .191.04c.973.33 1.935.743 2.822 1.264 3.557 2.088 5.148 4.744 5.812 7.964s.607 7.294-.314 12.45c-.92 5.154-3.497 9.443-6.99 11.25-2.93 1.514-6.526 2.428-11.222 2.63-.473-.005-.91.029-.64-.484l7.874-14.522c1.644-3.034 2.251-4.779 2.251-8.5V6.267l.003.007c-.006-.206.049-.315.213-.31m65.774-2.434v1.815H94.207v5.076l3.724.034V8.04c-.003-.335.265-.445.708-.41h16.481c.192-.001.634.042.642.372v2.42l3.727-.033-.02-2.999c.01-1.315-.993-1.921-2.096-1.943h-8.629V3.529zm29.562.153-3.521 6.59h3.405l1.328-2.428h14.459V5.879l-13.074-.086 1.472-2.08zm28.542 0-1.558 2.312-6.649.02V8.02l4.629-.004c.287-.002.427.17.317.349l-3.434 5.115c-.497.817-.42 2.115.98 2.139l9.544.034.027 3.418h-12.371v2.159l12.344.026.027 5.01h3.745l.026-5.01 10.446-.026v-2.16h-10.472l.026-3.417 9.008-.026v-1.85l-8.987-.007-.046-3.745h-3.747l.012 3.716-5.338-.059c-.86.045-.996-.379-.722-.78l3.347-4.855 16.508-.027V6.017l-14.92-.022 1.523-2.292zm-95.767.277v8.468l-4.003.064v2.159h4.003v9.925c.072.918.682 1.356 1.558 1.56h6.829v-2.132h-4.062c-.26.191-.706-.1-.672-.672V14.59h4.096c3.095 4.536 5.598 9.289 14.835 11.573l-.096-2.597c-4.208-1.827-8.46-3.559-11.013-8.876h11.114v-2.152h-18.97V3.966zm60.5.243-3.895.03c1.008 1.14 1.826 2.082 3.261 4.48h3.318c-.804-1.486-1.515-2.952-2.684-4.51m-44.425.166c-3.323 2.28-6.203 4.41-7.923 6.153l3.86.034c3.178-2.739 6.241-4.235 9.334-6.052zm19.866 5.354-1.948 2.854h-7.497v2.09h5.852c.147.137-.039.383-.23.634l-1.458 2.298c-.236.431-.257.873.274 1.343l5.714 2.645c.238.117.502.231.029.462-2.692.735-5.663 1.393-10.18 1.633v2.586c5.462-.56 10.646-1.308 14.206-3.049.087-.072.121-.189.52 0 3.783 1.138 7.489 2.37 11.825 2.991v-2.528a90 90 0 0 1-8.781-2.14c-.233-.137-.224-.3-.072-.476 2.517-1.715 3.802-3.997 4.833-6.399h4.02v-2.09h-14.596c-.121-.066-.345-.051-.216-.296l1.818-2.21c.09-.121.099-.228.115-.348zm32.32.148v1.901h13.55V9.871zm-7.731.98-3.723.057c1.058 1.381 2.115 2.7 3.174 4.826.19.648.185 1.328-.087 2.053-.821 2.949-1.805 5.68-2.857 8.323l3.463.028c1.092-2.938 1.889-5.876 2.598-8.814.326-1.773-.023-2.046-.288-2.746-.648-1.394-1.403-2.641-2.28-3.728m5.011 2.926v2.004l11.294.04c.571-.043.682.31.722.723l.029 5.029c.064 2.342 2.938 4.57 5.765 4.642l.051-2.353c-1.547-.375-2.323-2.03-2.325-3.012v-5.347c-.02-.703-.598-1.603-1.731-1.705zm-29.189.89h8.959c-.516 2.144-2.13 4.035-4.715 5.743a64 64 0 0 1-5.917-2.208c-.575-.32-.499-.64-.265-.96zM69.993 30.308c-3.732 0-6.84 1.206-6.84 5.97.084 4.777 4.135 5.952 7.108 5.952h5.664v-2.344l-5.107.032c-1.147 0-3.936-.416-3.936-3.619-.082-3.33 2.918-3.62 4.115-3.62h4.928v-2.352zm68.417 0c-1.866.02-6.842.578-6.842 5.97 0 5.126 3.913 5.952 6.791 5.952h7.447c.178 0 .329-.13.329-.345v-6.398c0-.14-.093-.238-.239-.238l-5.66-.013v2.197h2.417c.283 0 .354.316.316.316v1.859c0 .17-.062.298-.285.285l-4.208.025c-.745 0-3.178-.435-3.178-3.69 0-3.377 2.327-3.548 3.359-3.548h7.505v-2.353zm-37.151.019L96.21 42.206l2.918.024 3.864-9.223c.124-.3.522-.264.64.045l4.003 9.179 3.724-.001-4.745-10.848c-.47-.979-.933-1.055-1.827-1.055zm14.447 0h-1.563l.024 11.881 2.755.026V35.28c.095.019.216-.164.691.197l6.867 6.023c.332.318.868.73 1.797.73h1.52c.214 0 .4-.176.4-.498l.029-11.404-2.783-.001-.008 6.407c0 .648-.493.665-.95.207l-6.839-5.9c-.379-.34-.752-.714-1.94-.714m38.424 0-5.049 11.879 2.917.024 3.864-9.223c.125-.3.523-.264.641.045l4.002 9.179 3.725-.001-4.746-10.848c-.469-.979-.933-1.055-1.827-1.055zm14.35 0h-1.562l.023 11.881 2.756.026V35.28c.093.019.215-.164.69.197l6.867 6.023c.332.318.868.73 1.796.73h1.521c.214 0 .4-.176.4-.498L181 30.328l-2.783-.001-.009 6.407c0 .648-.492.665-.949.207l-6.839-5.9c-.379-.34-.752-.714-1.94-.714m-88.788 0v11.904h3.331v-4.956h6.946v4.956h3.475V30.328h-3.475v4.466h-6.946v-4.466z" fill="#0b457f"/><path d="M67.37 4.17v.035h.039V4.17zm-.093.002a.1.1 0 0 0-.036.005.1.1 0 0 0-.026.013.06.06 0 0 0-.02.044q0 .02.01.034t.039.021l.021.005.02.004.026.01q.007.006.007.019 0 .015-.013.023a.1.1 0 0 1-.035.008.1.1 0 0 1-.039-.008.2.2 0 0 1-.036-.02h-.002v.04a.2.2 0 0 0 .074.017.1.1 0 0 0 .063-.018.06.06 0 0 0 .023-.046.05.05 0 0 0-.013-.036.1.1 0 0 0-.037-.02l-.02-.003-.02-.005-.026-.01q-.008-.007-.008-.02t.013-.02a.1.1 0 0 1 .032-.008q.019 0 .037.006.02.007.032.017h.002v-.037l-.03-.011zm.052.068v.029h.043v.165l-.001.025-.005.018a.03.03 0 0 1-.012.011.1.1 0 0 1-.038.001l-.015-.004H67.3v.033l.02.003.02.002q.03 0 .05-.018.017-.018.018-.055v-.21zm.172.005a.3.3 0 0 0-.067.01v.035h.002l.034-.01a.2.2 0 0 1 .052-.003q.01.002.017.006.008.005.012.012a.04.04 0 0 1 .004.02v.005l-.056.005a.1.1 0 0 0-.045.01.1.1 0 0 0-.029.023.1.1 0 0 0-.01.038q0 .029.02.047a.07.07 0 0 0 .047.018q.015 0 .026-.002a.1.1 0 0 0 .035-.016l.012-.01v.023h.034v-.14a.1.1 0 0 0-.005-.033.1.1 0 0 0-.018-.022.1.1 0 0 0-.028-.012zm.054.103v.057l-.028.017a.1.1 0 0 1-.033.007.05.05 0 0 1-.032-.008q-.01-.01-.011-.027 0-.016.01-.025l.023-.013.034-.005z" fill="#00f"/></svg>