<svg width="113" height="46" fill="none" xmlns="http://www.w3.org/2000/svg"><path fill-rule="evenodd" clip-rule="evenodd" d="M29.34 16.274c3.527-3.45 7.023-6.861 10.507-10.283.318-.312.53-.467.945-.082 2.135 1.986 3.69 4.301 4.217 7.17.72 3.916-.192 7.433-2.862 10.471-1.694 1.93-3.81 3.205-6.315 3.872-.085.02-.161.076-.25.12.054.294.315.324.508.403q4.695 1.925 9.398 3.83c.418.168.642.339.431.845-.897 2.146-2.06 4.107-3.902 5.621-2.022 1.664-4.332 2.66-6.973 2.906-3.722.345-6.977-.747-9.744-3.166-2.233-1.955-3.55-4.428-3.995-7.337a11.5 11.5 0 0 1 .247-4.869c.045-.165.096-.354-.2-.596L5.74 40.45c-3.81-2.958-5.77-7.648-4.704-12.4 1.108-4.954 4.359-7.992 9.214-9.518-.079-.43-.422-.483-.704-.598-3.041-1.253-6.081-2.51-9.13-3.747-.365-.15-.512-.285-.351-.692 1.2-3.051 3.055-5.57 6.062-7.137 3.573-1.863 7.257-2.09 11-.54 4.033 1.667 6.465 4.676 7.456 8.812.43 1.792.368 3.605-.06 5.401-.063.26-.18.51-.005.947zM86.276 38l8.611-11.118-8.611-11.256h6.606l5.423 7.167 5.149-7.167h6.561l-8.565 11.256L110.017 38h-6.561l-5.516-7.167L92.882 38zM77.233 8h4.056v30h-5.377V14.479c-.764.352-1.557.636-2.37.849q-1.161.3-2.324.3v-5.195a12 12 0 0 0 3.007-.711q1.46-.576 3.008-1.724zM60.991 8h4.055v30H59.67V14.479c-.764.352-1.557.636-2.37.849q-1.162.3-2.324.3v-5.195a12 12 0 0 0 3.006-.711Q59.444 9.147 60.991 8" fill="#000"/></svg>