<svg width="172" height="46" fill="none" xmlns="http://www.w3.org/2000/svg"><path d="M25.082 44.563c10.76 0 19.48-8.739 19.48-19.516 0-10.78-8.72-19.516-19.48-19.516s-19.48 8.737-19.48 19.516c0 10.777 8.721 19.516 19.48 19.516" fill="#3f3faa"/><path d="M20.919 40.469c10.758 0 19.479-8.739 19.479-19.516S31.677 1.438 20.918 1.438s-19.48 8.738-19.48 19.515 8.72 19.516 19.48 19.516" fill="#8e47ff"/><path d="M20.614 33.94a6.2 6.2 0 0 1-3.824-1.322 6.23 6.23 0 0 1-2.357-4.173c-.065-.497-.069-1-.012-1.499a6 6 0 0 1-1.184.108 6.26 6.26 0 0 1-6.25-6.252 6.267 6.267 0 0 1 7.676-6.101 6.267 6.267 0 0 1 6.212-6.973 6.26 6.26 0 0 1 6.213 6.856A6.266 6.266 0 0 1 30.136 26.7a6.2 6.2 0 0 1-2.417.294q-.451-.03-.893-.126c0 .015.01.027.01.038a6.24 6.24 0 0 1-1.273 4.62 6.2 6.2 0 0 1-4.951 2.412zm-3.466-8.266a4 4 0 0 0-.504 2.5 4.01 4.01 0 0 0 4.476 3.499 4 4 0 0 0 2.68-1.516 4 4 0 0 0 .814-2.967 4 4 0 0 0-.776-1.925 6 6 0 0 1-.748-.885 1.114 1.114 0 1 1 1.815-1.294c.085.12.169.225.263.332q.118.083.213.193l.107.136a4.017 4.017 0 0 0 6.69-2.692 4.02 4.02 0 0 0-3.7-4.31 3.98 3.98 0 0 0-2.398.584 1.11 1.11 0 0 1-1.242.116 1.13 1.13 0 0 1-.446-1.525 4.03 4.03 0 0 0-3.523-5.953 4.025 4.025 0 0 0-3.35 6.242l.057.108a6.24 6.24 0 0 1 1.903 4.483 6.27 6.27 0 0 1-2.33 4.883zm-3.921-8.9a4.02 4.02 0 0 0-4.01 4.026 4.02 4.02 0 0 0 4.01 4.027 4.026 4.026 0 0 0 0-8.052" fill="#fff"/><path fill-rule="evenodd" clip-rule="evenodd" d="M55 32.138c0-.939.81-1.623 1.907-1.623.81 0 1.432.427 1.908 1.239.999 1.75 2.67 2.906 5.48 2.906 3.528 0 5.578-2.135 5.578-5.17 0-3.205-2.336-5.34-5.96-5.34h-.331c-1.24 0-1.955-.682-1.955-1.665 0-.98.715-1.665 1.954-1.665h.285c3.147 0 5.388-1.835 5.388-4.87 0-2.778-1.953-4.614-5.194-4.614-2.672 0-4.15 1.195-4.96 2.778-.43.811-1.05 1.239-1.86 1.239-1.097 0-1.86-.64-1.86-1.58 0-.256.095-.64.188-.896 1-2.607 3.91-4.871 8.632-4.871 5.672 0 9.154 3.248 9.154 7.778 0 3.076-1.905 5.169-4.005 6.32v.086c2.1.768 4.623 3.333 4.623 7.264 0 5.042-4.005 8.546-9.676 8.546-4.961 0-7.915-2.22-9.154-5.04a2.4 2.4 0 0 1-.142-.813zm23.265-9.142c0-6.834.332-8.375.714-9.485C80.269 9.964 83.365 8 87.846 8s7.58 1.965 8.866 5.511c.382 1.11.714 2.65.714 9.485s-.332 8.374-.714 9.484c-1.285 3.546-4.385 5.511-8.865 5.511-4.482 0-7.582-1.965-8.868-5.511-.382-1.11-.714-2.65-.714-9.484M87.85 34.66c2.385 0 4.149-.983 4.91-2.907.331-.897.524-2.135.524-8.76 0-6.622-.19-7.86-.525-8.757-.764-1.921-2.528-2.907-4.91-2.907s-4.15.982-4.91 2.907c-.331.896-.525 2.135-.525 8.759s.189 7.861.525 8.758c.765 1.92 2.529 2.907 4.911 2.907m15.111-1.114 11.062-12.645c1.478-1.71 2.243-3.207 2.243-5 0-2.65-1.954-4.572-5.103-4.572-2.86 0-4.436 1.365-5.15 3.504-.331.939-1.049 1.41-1.859 1.41-1.193 0-2.005-.642-2.005-1.665 0-.171.049-.471.098-.642.765-2.991 3.67-5.937 9.06-5.937 5.388 0 9.058 3.375 9.058 7.905 0 2.607-1.143 4.785-3.195 7.05l-9.918 11.151v.084h11.492c1.239 0 1.953.684 1.953 1.665 0 .983-.714 1.665-1.953 1.665h-15.019c-1.239 0-1.954-.683-1.954-1.58 0-.767.332-1.364 1.193-2.393zm24.507-.989c1.479 0 2.718 1.176 2.718 2.581s-1.239 2.582-2.718 2.582c-1.477 0-2.717-1.176-2.717-2.58 0-1.407 1.24-2.583 2.717-2.583m7.387 2.57 9.968-24.737c.525-1.365 1.335-2.134 2.763-2.134 1.429 0 2.335.768 2.86 2.134l9.821 24.735c.096.257.189.555.189.855 0 1.068-.907 1.75-2.002 1.75-.954 0-1.718-.469-2.051-1.364l-2.193-5.598h-13.301l-2.194 5.596c-.333.897-1.096 1.365-2.05 1.365-1.095 0-2.003-.681-2.003-1.749 0-.3.096-.599.189-.855h.003zm17.977-7.863-5.15-13.202h-.142l-5.246 13.202zm12.163-16.362c0-1.691.857-2.72 2.003-2.72s2.003 1.029 2.003 2.72v24.112c0 1.69-.857 2.72-2.003 2.72s-2.003-1.03-2.003-2.72z" fill="#000"/></svg>