<svg width="255" height="46" fill="none" xmlns="http://www.w3.org/2000/svg"><path fill-rule="evenodd" clip-rule="evenodd" d="M38.522 42.602c.413 0 .747.331.747.742a.745.745 0 0 1-.747.74.746.746 0 0 1-.748-.74c0-.41.335-.742.748-.742M10.287 18.266c.38 0 .72.169.953.433a1.21 1.21 0 0 1 1.36.433 1.075 1.075 0 0 1 1.4.64.965.965 0 0 1 1.435.675.88.88 0 0 1 .98.579.8.8 0 0 1 .797-.696c.44 0 .801.355.801.794a.8.8 0 0 1-.801.793.8.8 0 0 1-.753-.52.88.88 0 0 1-.878.787.88.88 0 0 1-.857-.668.974.974 0 0 1-1.12-.534 1.07 1.07 0 0 1-1.38-.123 1.21 1.21 0 0 1-1.46-.2c-.27.111-.571.125-.85.04q.175.094.314.239a1.21 1.21 0 0 1 1.38.375 1.075 1.075 0 0 1 1.374.503.993.993 0 0 1 1.562.465.89.89 0 0 1 1.071.424.8.8 0 0 1 .794-.682.8.8 0 0 1 .803.793.805.805 0 0 1-1.503.387.87.87 0 0 1-.318.58.807.807 0 0 1 1.125.727.8.8 0 0 1-.163.48.697.697 0 0 1 1.074.578.69.69 0 0 1-.696.688.69.69 0 0 1-.564-1.092.804.804 0 0 1-1.255-.654c0-.245.111-.462.287-.607a.89.89 0 0 1-1.172-.441.994.994 0 0 1-1.28-.393 1.074 1.074 0 0 1-1.452-.008 1.21 1.21 0 0 1-1.424-.115 1.3 1.3 0 0 1-.795.115q.087.064.163.14a1.16 1.16 0 0 1 1.353.242 1.073 1.073 0 0 1 1.51.255.99.99 0 0 1 1.524.46.888.888 0 0 1 1.232.8.86.86 0 0 1-.153.493.797.797 0 0 1 .976 1.112.697.697 0 0 1 1.05.592.69.69 0 0 1-.696.688.69.69 0 0 1-.632-.975.807.807 0 0 1-1.24-.665.8.8 0 0 1 .126-.428.89.89 0 0 1-1.11-.44.99.99 0 0 1-1.257-.238 1.073 1.073 0 0 1-1.418-.017 1.15 1.15 0 0 1-1.016.247q.151.104.268.249a1.15 1.15 0 0 1 1.562.065.993.993 0 0 1 1.468.385.886.886 0 0 1 1.271.786 1 1 0 0 1-.04.26.851.851 0 0 1 1.016 1.084.698.698 0 0 1 1.054.586.69.69 0 0 1-.694.688.69.69 0 0 1-.677-.847.857.857 0 0 1-1.32-.927.89.89 0 0 1-.976-.39.99.99 0 0 1-1.102-.026 1.2 1.2 0 0 1-.234.182.99.99 0 0 1 .81.49.884.884 0 0 1 1.374.96.797.797 0 0 1 .996.882.696.696 0 0 1 1.075.575.69.69 0 0 1-.695.688.69.69 0 0 1-.692-.741.805.805 0 0 1-1.261-.834.89.89 0 0 1-.984-.326.99.99 0 0 1-1.395-.05q-.045.076-.102.144c.328.094.596.324.74.625a.964.964 0 0 1 1.662.636v.027a.826.826 0 0 1 .962.809.825.825 0 0 1-.828.822.824.824 0 0 1-.824-.728.97.97 0 0 1-1.08-.395 1.18 1.18 0 0 1-.888.485h-.012q.091.085.161.186a.963.963 0 0 1 1.654.663.964.964 0 0 1-1.654.663c-.155.22-.38.38-.638.454a1.156 1.156 0 0 1-.12 1.873 1.092 1.092 0 0 1 1.308 1.332 1.1 1.1 0 0 1 1.637.905v.019l.008-.02a1.1 1.1 0 0 1 .996-.728.94.94 0 0 1 .084-1.258.96.96 0 0 1 .68-.277.96.96 0 0 1 .961.953.956.956 0 0 1-.864.947 1.073 1.073 0 0 1 .01 1.427 1.155 1.155 0 0 1 .153 1.396c.198.126.361.299.475.504a1.3 1.3 0 0 1 .134-.203 1.08 1.08 0 0 1-.11-1.649 1.02 1.02 0 0 1-.332-.757c0-.536.414-.977.945-1.027a.943.943 0 0 1 .145-1.409.82.82 0 0 1-.61-.791.824.824 0 0 1 .829-.819.824.824 0 0 1 .83.819.81.81 0 0 1-.296.626.955.955 0 0 1 .777.936.96.96 0 0 1-.834.943 1.02 1.02 0 0 1 .017 1.428A1.08 1.08 0 0 1 16.53 40a1.27 1.27 0 0 1 .674 1.265l.014.008a1.13 1.13 0 0 1 .291-.888 1.035 1.035 0 0 1-.726-.983c0-.272.107-.52.281-.704a.974.974 0 0 1 .575-1.755.868.868 0 0 1 0-1.43h-.024a.822.822 0 0 1-.765-1.135.825.825 0 0 1 .764-.504.816.816 0 0 1 .49 1.484l.045-.004c.487 0 .882.39.882.874a.874.874 0 0 1-.824.87.976.976 0 0 1 .214 1.457 1.027 1.027 0 0 1 .223 1.489 1.14 1.14 0 0 1 .862 1.238 1.32 1.32 0 0 1 .81 1.215 1.33 1.33 0 0 1-1.339 1.323 1.34 1.34 0 0 1-1.228-.805 1.47 1.47 0 0 1-1.365.91 1.48 1.48 0 0 1-1.15-.548 1.53 1.53 0 0 1-1.255.654 1.53 1.53 0 0 1-1.271-.671 1.58 1.58 0 0 1-1.298.67 1.58 1.58 0 0 1-1.255-.617 1.58 1.58 0 0 1-1.258.618 1.58 1.58 0 0 1-1.437-.915c-.292.25-.664.387-1.048.386a1.596 1.596 0 0 1-1.603-1.495 1.596 1.596 0 0 1-1.82-1.572c0-.312.091-.604.249-.85a1.38 1.38 0 0 1-1.321-1.375c0-.572.35-1.06.851-1.27a1.375 1.375 0 0 1 .744-2.589 1.31 1.31 0 0 1-.358-1.54 1.33 1.33 0 0 1 1.322-.788 1.313 1.313 0 0 1-.047-1.979 1.33 1.33 0 0 1 1.001-.35 1.313 1.313 0 0 1 .1-1.998 1.33 1.33 0 0 1 1.136-.243 1.265 1.265 0 0 1 .792-2.357 1.288 1.288 0 0 1 .012-1.984 1.3 1.3 0 0 1 1.07-.278 1.265 1.265 0 0 1 0-2.056 1.28 1.28 0 0 1 1.141-.183 1.24 1.24 0 0 1 .606-2.33m26.124 24.127c.397 0 .72.32.72.713a.72.72 0 0 1-.722.715.72.72 0 0 1-.72-.715c0-.393.324-.713.722-.713m-16.259-6.985c.474 0 .857.38.857.848a.85.85 0 0 1-.728.835.897.897 0 0 1 .147 1.38.98.98 0 0 1 .506 1.495 1.007 1.007 0 0 1 .82 1.325 1.17 1.17 0 0 1 1.018 1.154 1.17 1.17 0 0 1-1.175 1.165 1.17 1.17 0 0 1-1.06-1.673 1.008 1.008 0 0 1-.563-1.566.984.984 0 0 1-.838-.968c0-.284.123-.54.32-.719a.9.9 0 0 1-.586-.843c0-.456.345-.836.793-.892a.843.843 0 0 1 .49-1.54m20.403 6.72c.353 0 .64.284.64.633a.638.638 0 0 1-.885.59.64.64 0 0 1-.397-.588c0-.351.288-.635.642-.635M30.153 5.194c.59 0 1.07.476 1.07 1.058a1.062 1.062 0 0 1-1.305 1.035 1.037 1.037 0 0 1-1.306 1.204 1.036 1.036 0 0 1-1.15 1.447 1.02 1.02 0 0 1 .073 1.021 1.04 1.04 0 0 1-1.156.562.966.966 0 0 1-.005 1.163c.194-.11.42-.155.642-.128a1.01 1.01 0 0 1 1.13-1.414 1.009 1.009 0 0 1 1.099-1.434A1.01 1.01 0 0 1 30.462 8.5a.977.977 0 0 1 .974-1.136c.546 0 .99.439.99.977a.982.982 0 0 1-1.194.959 1.01 1.01 0 0 1-1.188 1.169 1.01 1.01 0 0 1-1.202 1.211.98.98 0 0 1 .019.856 1.01 1.01 0 0 1-1.035.59c.068.135.105.283.108.434a1.05 1.05 0 0 1 1.062-.467 1.037 1.037 0 0 1 1.132-1.328 1.54 1.54 0 1 1 2.323-2.02c.549 0 .991.438.991.979a.982.982 0 0 1-1.337.916v.036a.983.983 0 0 1-1.08.974 1.028 1.028 0 0 1-1.033 1.17q-.09 0-.18-.016a1.037 1.037 0 0 1-.977 1.338h-.01l.006.03q.016.11.01.219a1.04 1.04 0 0 1 .975-.399 1.027 1.027 0 0 1 1.031-1.173q.126 0 .242.027a.983.983 0 0 1 1.34-.916.985.985 0 0 1 .986-.91.984.984 0 0 1 .877 1.436.983.983 0 0 1-1.227.459.984.984 0 0 1-1.175.891v.044a1.036 1.036 0 0 1-1.185 1.022 1.03 1.03 0 0 1-.578 1.071c.155-.052.321-.068.484-.048a1.066 1.066 0 0 1 1.495-.872.986.986 0 0 1 1.352-.866.93.93 0 0 1 .92-.757.93.93 0 0 1 .935.926.932.932 0 0 1-1.238.877.986.986 0 0 1-1.328.78v.01a1.065 1.065 0 0 1-1.18 1.054 1.08 1.08 0 0 1-.47.817 1.1 1.1 0 0 1 .532.03 1.012 1.012 0 0 1 1.45-.797.934.934 0 0 1 1.442-.632.934.934 0 0 1 .926-.79.93.93 0 0 1 .935.926.94.94 0 0 1-1.454.77.933.933 0 0 1-1.277.723 1.01 1.01 0 0 1-1.282.88 1.066 1.066 0 0 1-1.227.977c-.003.28-.11.547-.3.751h.005q.128 0 .253.031a1.04 1.04 0 0 1 1.441-.795.958.958 0 0 1 1.463-.679.96.96 0 0 1 1.516-.533.91.91 0 0 1 .862-.617c.503 0 .91.403.91.901a.912.912 0 0 1-1.427.74.96.96 0 0 1-1.436.544.96.96 0 0 1-1.257.671 1.04 1.04 0 0 1-1.294.924c-.032.212-.13.408-.28.561q.205.016.392.1a.988.988 0 0 1 1.464-.538.94.94 0 0 1 1.524-.566.908.908 0 0 1 1.542-.345.91.91 0 0 1 .878-.663c.502 0 .91.402.91.899a.91.91 0 0 1-1.58.605.91.91 0 0 1-1.45.466.935.935 0 0 1-1.36.556.984.984 0 0 1-1.3.809c-.049.247-.18.47-.374.632h.02c.219 0 .433.067.613.192a.934.934 0 0 1 1.437-.56.938.938 0 0 1 1.62-.427.882.882 0 0 1 1.637-.15.85.85 0 0 1 .843-.695c.474 0 .857.38.857.847a.85.85 0 0 1-.857.847.86.86 0 0 1-.76-.46.884.884 0 0 1-1.515.449.933.933 0 0 1-1.432.536.934.934 0 0 1-1.382.623 1.065 1.065 0 0 1-1.06.914q.073.098.123.21a.99.99 0 0 1 1.365-.254.936.936 0 0 1 1.5-.421.882.882 0 0 1 1.626-.11.85.85 0 0 1 .841-.693c.37 0 .687.232.805.56a.853.853 0 0 1 .853-.773c.472 0 .855.38.855.847a.85.85 0 0 1-.855.847.855.855 0 0 1-.805-.561.856.856 0 0 1-1.614.312.88.88 0 0 1-1.418.537.936.936 0 0 1-1.386.527.99.99 0 0 1-1.155.697 1.11 1.11 0 0 1-.598 1.17.94.94 0 0 1 .624.034.905.905 0 0 1 .844-1.234c.285 0 .54.128.707.333a.857.857 0 0 1 1.602-.249.85.85 0 0 1 .846-.72c.375 0 .695.239.81.574a.85.85 0 0 1 .847-.734.85.85 0 0 1 .855.83.8.8 0 0 1 .803-.776c.443 0 .802.355.802.793a.797.797 0 0 1-.802.794.8.8 0 0 1-.8-.76v-.032.018a.85.85 0 0 1-.858.828.855.855 0 0 1-.81-.575.856.856 0 0 1-1.606.278.857.857 0 0 1-1.495.421.907.907 0 0 1-1.24.71.925.925 0 0 1-.4 1.159.92.92 0 0 1 .718.086.85.85 0 0 1 .824-1.075c.326 0 .607.18.751.445a.85.85 0 0 1 .851-.761c.37 0 .686.23.805.556l.006.017.004-.017a.8.8 0 0 1 .79-.664c.444 0 .802.357.802.794a.8.8 0 0 1-.803.793.8.8 0 0 1-.755-.525.857.857 0 0 1-1.602.293.853.853 0 0 1-1.265.656.906.906 0 0 1-1.296 1.058.9.9 0 0 1-.328-.293c-.056.154-.15.292-.272.402a.91.91 0 0 1 .94.648.826.826 0 0 1 1.349-.454.825.825 0 0 1 .797-1.045.83.83 0 0 1 .778.539.824.824 0 0 1 .826-.748.823.823 0 0 1 .828.819.824.824 0 0 1-.828.82.83.83 0 0 1-.778-.537.831.831 0 0 1-1.364.552.825.825 0 0 1-.798 1.045.83.83 0 0 1-.791-.575.9.9 0 0 1-.315.525.883.883 0 0 1 .972.868.883.883 0 0 1-1.453.666 1 1 0 0 1-.109.339c.214.047.408.161.554.326a.83.83 0 0 1 1.083-.45.82.82 0 0 1 .514.76.832.832 0 0 1-1.369.623q-.038.146-.117.276a.96.96 0 0 1 .527.575.747.747 0 0 1 .744-.654c.414 0 .747.332.747.74a.745.745 0 0 1-.747.742.75.75 0 0 1-.698-.472.94.94 0 0 1-.167.482.932.932 0 0 1 1.014 1.255.807.807 0 0 1 1.081.744.796.796 0 0 1-.803.795.797.797 0 0 1-.764-1.035.94.94 0 0 1-1.321-.843c0-.192.057-.368.159-.518a.958.958 0 0 1-1.016-1.37 1.03 1.03 0 0 1-.577-1.445 1.035 1.035 0 0 1-.678-1.51 1.11 1.11 0 0 1-.734-1.358 1.113 1.113 0 0 1-.508-1.617 1.035 1.035 0 0 1-.748-1.505 1.035 1.035 0 0 1-.632-1.495 1.033 1.033 0 0 1-.59-1.482 1.035 1.035 0 0 1-.589-1.481 1.034 1.034 0 0 1-.594-1.472 1.03 1.03 0 0 1-.476-1.438 1.034 1.034 0 0 1-.479-1.64 1.036 1.036 0 0 1-.517-1.591.797.797 0 0 1-.738-.792.806.806 0 0 1 1.49-.41 1 1 0 0 1 .29-.368l.02-.015a.91.91 0 0 1-.842-.606l-.006-.017v.011a.75.75 0 0 1-.737.612.745.745 0 1 1 .371-1.393c.152.087.27.226.33.39a.9.9 0 0 1 .176-.439 1 1 0 0 1-.02-.153.903.903 0 0 1-.806-.893c0-.253.11-.483.28-.648a.86.86 0 0 1-1.188-.78c0-.468.383-.847.857-.847a.852.852 0 0 1 .788 1.175.8.8 0 0 1-.188.276.9.9 0 0 1 .557-.054 1.02 1.02 0 0 1 .115-1.031.983.983 0 0 1-1.014-1.344.91.91 0 0 1-1.623-.555.906.906 0 0 1 1.332-.797.905.905 0 0 1 .422 1.126.99.99 0 0 1 1.274-.255c.02-.191.096-.37.207-.517a.993.993 0 0 1-1.47-.853.982.982 0 0 1 1.177-.962 1.02 1.02 0 0 1 .168-1.426A1.04 1.04 0 0 1 26.8 9.5a1.02 1.02 0 0 1-.066-1.039 1.04 1.04 0 0 1 1.218-.53 1.037 1.037 0 0 1 1.16-1.446 1.063 1.063 0 0 1 1.042-1.292M22.292 38.21a.904.904 0 0 1 .773 1.376h.03c.48 0 .872.366.907.832a1.035 1.035 0 0 1 .885 1.02 1.037 1.037 0 0 1-1.044 1.03 1.036 1.036 0 0 1-1.037-1.13.9.9 0 0 1-.481-1.33h-.033a.905.905 0 0 1-.908-.9c0-.496.406-.898.908-.898m14.682 2.804c.352 0 .64.283.64.634a.64.64 0 0 1-.642.635.64.64 0 0 1-.642-.633c0-.353.287-.636.642-.636zm2.886-.211c.355 0 .642.284.642.632a.64.64 0 0 1-.642.637.64.64 0 0 1-.642-.635c0-.35.288-.634.642-.634m2.435-.477c.367 0 .667.297.667.66a.665.665 0 0 1-.67.662.665.665 0 0 1-.666-.661c0-.364.3-.661.669-.661m-3.88.053c.355 0 .642.284.642.635 0 .35-.287.634-.642.634a.64.64 0 0 1-.64-.634c0-.351.288-.635.64-.635m-2.886-.318c.414 0 .747.332.747.742a.746.746 0 0 1-.747.74.746.746 0 0 1-.748-.74c0-.41.334-.742.748-.742m5.64-.688c.37 0 .671.297.671.661s-.3.662-.67.662a.665.665 0 0 1-.668-.662c0-.364.3-.66.667-.66m-29.004.326a1.2 1.2 0 0 1-.154.39q.199.154.336.369.064-.102.145-.192a1.16 1.16 0 0 1-.327-.567m24.433-.748c.414 0 .748.33.748.74a.746.746 0 0 1-.748.74.746.746 0 0 1-.747-.74c0-.41.333-.74.747-.74M23.87 36.57a.72.72 0 0 1 .65 1.024.7.7 0 0 1-.197.247.745.745 0 0 1 .717.958.832.832 0 0 1 1.29.68.825.825 0 0 1-.83.82.824.824 0 0 1-.782-1.088.752.752 0 0 1-1.143-.63.73.73 0 0 1 .286-.581.72.72 0 0 1-.713-.715c0-.395.322-.715.72-.715zM9.84 39.36l-.004.005a1.3 1.3 0 0 1-.351.36c.25.122.452.322.579.567l.05-.057a1.15 1.15 0 0 1-.274-.874m29.886-.461c.37 0 .67.295.67.661a.665.665 0 0 1-.67.661.664.664 0 0 1-.669-.661c0-.364.297-.661.67-.661m-1.47-.265c.414 0 .748.332.748.74a.746.746 0 0 1-.748.742.745.745 0 0 1-.747-.742c0-.408.333-.74.747-.74m3.795-1.111a.69.69 0 0 1 .692.764.748.748 0 0 1 1.342.453.746.746 0 0 1-1.056.675.75.75 0 0 1-.435-.773.696.696 0 0 1-1.237-.431.69.69 0 0 1 .696-.688zm-29.812.414a1.1 1.1 0 0 1-.517.617c.21.16.368.389.431.653.045-.23.16-.443.328-.607a1.08 1.08 0 0 1-.242-.63zm23.288-.573c.416 0 .75.331.75.741a.746.746 0 0 1-.748.74.746.746 0 0 1-.748-.74c0-.41.332-.741.746-.741M8.71 37.03a1.3 1.3 0 0 1-.033.337h.06a1.304 1.304 0 0 1 1.299 1.46c.116-.167.274-.302.458-.39a1.08 1.08 0 0 1-.358-1.108 1.1 1.1 0 0 1-1.426-.299m31.74.02c.412 0 .747.33.747.739a.746.746 0 0 1-1.274.525.75.75 0 0 1-.22-.525c0-.408.333-.74.747-.74m-1.712-.212c.414 0 .748.33.748.74a.746.746 0 0 1-.748.74.746.746 0 0 1-.747-.74c0-.41.333-.74.747-.74m-1.763-.107c.412 0 .747.332.747.742a.746.746 0 0 1-.747.74.746.746 0 0 1-.75-.74c0-.41.336-.742.75-.742m-15.002-.21a.85.85 0 0 1 .855.844.85.85 0 0 1-.855.848.85.85 0 0 1-.857-.848.85.85 0 0 1 .857-.845m4.117.105a.614.614 0 0 1 .615.607.613.613 0 0 1-.848.565.61.61 0 0 1-.382-.565.614.614 0 0 1 .615-.607m10.109-1.693a.77.77 0 0 1 .774.767.777.777 0 0 1-1.357.508.823.823 0 0 1-.809 1 .824.824 0 0 1-.828-.82.83.83 0 0 1 1.46-.531.77.77 0 0 1 .76-.924m7.059.58c.398 0 .72.321.72.716a.72.72 0 0 1-.996.662.72.72 0 0 1-.447-.662.72.72 0 0 1 .723-.715m-31.127-.687a.96.96 0 0 1 .962.952.96.96 0 0 1-.962.953.96.96 0 0 1-.962-.953.96.96 0 0 1 .962-.952m12.54.636a.613.613 0 0 1 .614.608.613.613 0 0 1-1.229 0 .613.613 0 0 1 .616-.608m16.766-.318c.398 0 .722.32.722.715a.72.72 0 0 1-.722.713.72.72 0 0 1-.723-.713.72.72 0 0 1 .723-.715m-18.77-.21c.412 0 .747.33.747.739a.745.745 0 0 1-.747.74.746.746 0 0 1-.75-.74c0-.408.336-.74.748-.74zm-14.586.402a1.3 1.3 0 0 1-.347.486c.312.082.583.275.761.543a1.08 1.08 0 0 1 .493-.884 1.2 1.2 0 0 1-.907-.147zm31.537-.403c.398 0 .722.318.722.713a.72.72 0 0 1-.722.715.72.72 0 0 1-.72-.715c0-.395.321-.713.72-.713m-1.764-.107c.428 0 .775.345.775.767a.77.77 0 0 1-.774.766.77.77 0 0 1-.777-.767c0-.421.347-.766.776-.766m-5.838.751-.002.012a1.1 1.1 0 0 1-.141.314q.209.082.36.238a.87.87 0 0 1 .291-.474.9.9 0 0 1-.508-.09m-6.167-.697a.585.585 0 0 1 .542.806.58.58 0 0 1-.542.357.585.585 0 0 1-.589-.58c0-.323.263-.584.588-.584m-6.364-.953c.428 0 .774.345.774.767a.77.77 0 0 1-.774.766.77.77 0 0 1-.776-.766c0-.422.347-.767.776-.767m1.898.054c.414 0 .747.331.747.74a.746.746 0 0 1-1.274.525.75.75 0 0 1-.22-.526c0-.408.333-.74.747-.74m2.459-.106a.69.69 0 0 1 .642.952.69.69 0 0 1-.642.424.69.69 0 0 1-.265-1.325.7.7 0 0 1 .265-.05m-9.919-.264a.824.824 0 0 1 .828.818.824.824 0 0 1-.828.82.822.822 0 0 1-.765-1.135.825.825 0 0 1 .765-.503m-3.023-.267a.96.96 0 0 1 .964.953.96.96 0 0 1-.964.952.96.96 0 0 1-.962-.952.96.96 0 0 1 .962-.953m31.445-.21a.77.77 0 0 1 .776.766.77.77 0 0 1-.776.767.77.77 0 0 1-.774-.767.77.77 0 0 1 .774-.767m-17.192.37c.295 0 .535.237.535.528a.533.533 0 0 1-.535.53.533.533 0 0 1-.535-.53c0-.291.24-.529.535-.529m15.375-.53c.428 0 .775.345.775.767a.77.77 0 0 1-.775.767.77.77 0 0 1-.776-.767c0-.422.347-.767.776-.767m-9.125 1.127q-.01.09-.034.179.121.05.226.128a.9.9 0 0 1 .191-.276 1 1 0 0 1-.383-.03m7.36-1.284a.77.77 0 0 1 .774.767.77.77 0 0 1-.774.766.77.77 0 0 1-.776-.766c0-.424.347-.767.776-.767m-15.99 0a.69.69 0 0 1 .642.952.69.69 0 0 1-.643.424.69.69 0 0 1-.264-1.326.7.7 0 0 1 .264-.05m-10.08-.53a.822.822 0 0 1 .765 1.135.82.82 0 0 1-.765.505.825.825 0 0 1-.828-.82.824.824 0 0 1 .828-.82m8.421.158a.692.692 0 0 1 .642.955.69.69 0 0 1-.642.422.69.69 0 0 1-.694-.689.69.69 0 0 1 .694-.688m-1.817-.051a.69.69 0 0 1 .643.951.69.69 0 0 1-.643.425.69.69 0 0 1-.695-.69.69.69 0 0 1 .695-.686m-1.711 0a.69.69 0 0 1 .642.951.69.69 0 0 1-.642.425.69.69 0 0 1-.696-.69.69.69 0 0 1 .696-.686m-1.764-.054a.69.69 0 0 1 .64.953.69.69 0 0 1-.642.423.69.69 0 0 1-.64-.954.69.69 0 0 1 .64-.422zm8.261-.054c.295 0 .535.238.535.53a.533.533 0 0 1-.535.528.533.533 0 0 1-.534-.529c0-.291.24-.529.534-.529m-9.545-1.004a.69.69 0 0 1 .64.952.69.69 0 0 1-.64.424.688.688 0 1 1 0-1.376m17.492.705-.006.01a1 1 0 0 1-.119.157 1.02 1.02 0 0 1 .646.468.9.9 0 0 1 .383-.426.95.95 0 0 1-.904-.209m-9.336-.546a.53.53 0 0 1 .492.733.53.53 0 0 1-.494.325.533.533 0 0 1-.533-.529.53.53 0 0 1 .535-.529m18.662-.634c.443 0 .803.354.803.793a.798.798 0 0 1-1.108.734.8.8 0 0 1-.496-.734c0-.44.358-.793.801-.793m-1.763-.108a.8.8 0 0 1 .801.794.797.797 0 0 1-.803.793.796.796 0 0 1-.801-.793.8.8 0 0 1 .803-.794m-21.714.318c.297 0 .537.238.537.53a.53.53 0 0 1-.537.528.53.53 0 0 1-.535-.529c0-.29.24-.529.537-.529zm3.21 0c.296 0 .535.238.535.53a.53.53 0 0 1-.537.528.533.533 0 0 1-.532-.529c0-.29.237-.529.534-.529m-1.604 0c.295 0 .535.238.535.53a.534.534 0 0 1-.913.374.53.53 0 0 1-.159-.375c0-.29.24-.529.537-.529m-3.047-.582c.293 0 .533.237.533.529a.533.533 0 0 1-.535.529.533.533 0 0 1-.535-.53c0-.29.24-.528.537-.528m15.013.019v.006a1 1 0 0 1-.042.153.94.94 0 0 1 .45.228.94.94 0 0 1 .368-.35c-.255.079-.53.065-.776-.039zM16.543 28.9a.53.53 0 0 1 .493.733.53.53 0 0 1-.495.325.533.533 0 0 1-.533-.529c0-.293.24-.529.535-.529m.642-1.481a.53.53 0 0 1 .493.732.53.53 0 0 1-.495.326.533.533 0 0 1-.533-.53c0-.292.24-.528.535-.528m-7.48-.16q-.046.05-.096.097c.262.069.488.23.644.44a1 1 0 0 1 .241-.218 1.15 1.15 0 0 1-.79-.318m8.122-1.322c.295 0 .535.238.535.53a.534.534 0 0 1-1.07 0c0-.292.238-.53.535-.53m.667-1.481c.31 0 .562.249.562.555s-.25.556-.562.556a.557.557 0 0 1-.561-.556.56.56 0 0 1 .561-.555m-1.07-1.112c.384 0 .697.309.697.69a.69.69 0 0 1-.696.686.69.69 0 0 1-.64-.952.69.69 0 0 1 .64-.424m1.793-.37a.585.585 0 0 1 .542.806.585.585 0 0 1-.542.358.585.585 0 0 1-.589-.581c0-.322.263-.583.589-.583m-1.096-1.217c.383 0 .695.309.695.69a.69.69 0 0 1-.695.686.69.69 0 0 1-.696-.688.69.69 0 0 1 .695-.688m1.711-.264a.613.613 0 0 1 .613.609.613.613 0 0 1-1.228 0 .613.613 0 0 1 .613-.61zM18.79 20.17c.4 0 .721.32.721.715a.72.72 0 0 1-.996.662.72.72 0 0 1-.447-.662c0-.395.324-.715.722-.715m1.685-.16a.613.613 0 0 1 .613.61.613.613 0 0 1-1.228 0 .613.613 0 0 1 .613-.61zm-9.28-4.02c.416 0 .782.207.996.525a1.16 1.16 0 0 1 1.38.6 1.075 1.075 0 0 1 1.38.625.97.97 0 0 1 1.296.85.88.88 0 0 1 .935.495.803.803 0 0 1 1.526.343.803.803 0 0 1-1.514.366.88.88 0 0 1-.813.533.88.88 0 0 1-.876-.767.98.98 0 0 1-1.085-.506 1.073 1.073 0 0 1-1.399-.421 1.156 1.156 0 0 1-1.403-.34 1.196 1.196 0 0 1-1.627-1.113c0-.657.539-1.19 1.204-1.19m8.341 2.591a.72.72 0 0 1 .723.715.72.72 0 0 1-.723.713.72.72 0 0 1-.72-.713c0-.395.321-.715.72-.715m11.155.454-.015.004q-.15.027-.301.014a1.16 1.16 0 0 1-.489.749 1.2 1.2 0 0 1 .349.021 1.06 1.06 0 0 1 .454-.786zm-9.55-.506c.354 0 .641.284.641.633a.64.64 0 0 1-.642.636.64.64 0 0 1-.64-.634c0-.351.288-.635.64-.635m-8.873-4.922c.464 0 .866.261 1.068.64a1.15 1.15 0 0 1 1.196.761 1.015 1.015 0 0 1 1.219.779.968.968 0 0 1 1.303.889q0 .06-.008.117a.88.88 0 0 1 .966.552.805.805 0 0 1 1.501.389.803.803 0 0 1-1.54.314.882.882 0 0 1-1.667-.442.96.96 0 0 1-1.15-.694 1.02 1.02 0 0 1-1.307-.466 1.16 1.16 0 0 1-1.386-.473 1.195 1.195 0 0 1-1.399-1.175c0-.658.539-1.19 1.204-1.19m8.021 3.387a.72.72 0 0 1 .723.715.72.72 0 0 1-.723.713.72.72 0 0 1-.722-.713c0-.395.324-.715.722-.715m1.631.054c.37 0 .67.295.67.661a.665.665 0 0 1-.67.661.665.665 0 0 1-.669-.661c0-.364.3-.661.67-.661m1.497-.108c.37 0 .67.297.67.662a.664.664 0 0 1-.67.66.666.666 0 0 1-.669-.66c0-.365.301-.662.671-.662zm6.584.056-.01.002a1 1 0 0 1-.293.048 1 1 0 0 1-.032.197q.143-.157.335-.249zm-8.962-1.59c.398 0 .72.321.72.716a.72.72 0 0 1-.72.713.72.72 0 0 1-.723-.713.72.72 0 0 1 .723-.717m-7.864-4.072a1.15 1.15 0 0 1 1.065.71 1.15 1.15 0 0 1 1.344.881 1.01 1.01 0 0 1 1.085.868.957.957 0 0 1 1.169 1.098h.015a.88.88 0 0 1 .964.562.805.805 0 0 1 1.39.537.803.803 0 0 1-1.537.316.884.884 0 0 1-1.559-.657.96.96 0 0 1-1.167-.756 1.025 1.025 0 0 1-1.238-.623 1.15 1.15 0 0 1-1.313-.682 1.145 1.145 0 0 1-1.368-1.117c0-.627.515-1.137 1.15-1.137m9.359 3.335c.398 0 .722.318.722.713a.72.72 0 0 1-.722.715.72.72 0 0 1-.723-.715c0-.395.324-.713.723-.713M14.19 9.055a1.15 1.15 0 0 1 1.099.798 1.096 1.096 0 0 1 1.175 1.067 1.01 1.01 0 0 1 1.17.89l.058-.002a.958.958 0 0 1 .905 1.28.878.878 0 0 1 1.012.983.803.803 0 0 1 1.506.382.8.8 0 0 1-.8.793.797.797 0 0 1-.796-.89.882.882 0 0 1-1.626-.664.97.97 0 0 1-1.15-.78 1.01 1.01 0 0 1-1.13-.92 1.11 1.11 0 0 1-1.27-.671 1.145 1.145 0 0 1-1.303-1.127c0-.629.516-1.139 1.15-1.139m13.666 5.074-.013.011q-.072.062-.15.115l.117.065h.077a.7.7 0 0 1-.033-.191zm-5.964-1.528a.825.825 0 0 1 .83.82.824.824 0 0 1-.83.82.823.823 0 0 1-.764-1.135.82.82 0 0 1 .764-.505m-6.686-5.817c.556 0 1.016.387 1.127.903a1.09 1.09 0 0 1 1.192 1.223.983.983 0 0 1 1.122 1.115.96.96 0 0 1 1.134.937.94.94 0 0 1-.182.556.886.886 0 0 1 1.25.794.877.877 0 0 1-.882.874.877.877 0 0 1-.881-.874c0-.176.053-.348.153-.493a.965.965 0 0 1-1.376-.981.983.983 0 0 1-1.183-1.012 1.106 1.106 0 0 1-1.303-.78 1.144 1.144 0 0 1-1.32-1.125c0-.63.517-1.137 1.15-1.137m6.498 3.703c.502 0 .91.402.91.899 0 .498-.408.9-.91.9a.905.905 0 0 1-.909-.9c0-.498.407-.899.909-.899m1.98-.16a.96.96 0 0 1 .962.954.96.96 0 0 1-.962.952.96.96 0 0 1-.962-.953.96.96 0 0 1 .962-.952m-7.035-5.66a1.145 1.145 0 0 1 1.149 1.226 1.09 1.09 0 0 1 1.163 1.46 1.01 1.01 0 0 1 1.301.966c0 .199-.06.392-.172.556a.966.966 0 0 1 1.455.819.96.96 0 0 1-.964.952.96.96 0 0 1-.963-.952c0-.192.058-.368.154-.518a1.02 1.02 0 0 1-1.543-.859q.001-.166.052-.32a1.09 1.09 0 0 1-1.442-1.071 1.144 1.144 0 0 1-1.34-1.123c0-.627.514-1.137 1.15-1.137zm11.635-1.164c.588 0 1.067.473 1.067 1.058a1.063 1.063 0 0 1-1.562.939 1.02 1.02 0 0 1 .058 1.04 1.04 1.04 0 0 1-1.248.51 1.02 1.02 0 0 1 .126 1.129 1.04 1.04 0 0 1-1.242.514 1.025 1.025 0 0 1 .032 1.494 1.04 1.04 0 0 1-.735.3 1.036 1.036 0 0 1-1.043-1.031 1.036 1.036 0 0 1 1.355-.985 1.02 1.02 0 0 1-.225-1.232 1.04 1.04 0 0 1 1.247-.512 1.037 1.037 0 0 1 1.28-1.577 1.05 1.05 0 0 1-.182-.59c0-.584.481-1.057 1.072-1.057M22.64 8.213c.546 0 .989.437.989.977 0 .543-.443.98-.989.98a.983.983 0 0 1-.99-.978c0-.542.444-.98.99-.98m-3.958-5.08a1.09 1.09 0 0 1 .978 1.578 1.09 1.09 0 0 1 1.403 1.04c0 .243-.083.478-.234.668a1.047 1.047 0 0 1 1.516.92 1.037 1.037 0 0 1-1.043 1.033 1.037 1.037 0 0 1-1.043-1.033c0-.234.081-.452.215-.625a1.1 1.1 0 0 1-1.604-.964c0-.176.042-.345.119-.493a1.09 1.09 0 0 1-1.403-1.04c0-.6.49-1.085 1.096-1.085zm4.92 2.964c.575 0 1.043.46 1.043 1.031a1.036 1.036 0 0 1-1.043 1.031 1.037 1.037 0 0 1-1.043-1.03c0-.57.466-1.032 1.043-1.032m1.096-1.959c.59 0 1.07.475 1.07 1.058 0 .585-.48 1.058-1.07 1.058a1.063 1.063 0 0 1-1.069-1.058c0-.583.48-1.058 1.07-1.058m-2.407-.105c.59 0 1.07.473 1.07 1.058 0 .584-.48 1.058-1.07 1.058a1.064 1.064 0 0 1-1.07-1.058c0-.585.48-1.058 1.07-1.058m3.69-1.693c.592 0 1.071.474 1.071 1.058s-.479 1.058-1.071 1.058a1.064 1.064 0 0 1-1.07-1.058c0-.584.48-1.058 1.07-1.058m-4.999-.159a1.09 1.09 0 0 1 1.096 1.085 1.09 1.09 0 0 1-1.096 1.085 1.09 1.09 0 0 1-1.096-1.085c0-.6.49-1.085 1.096-1.085m2.54-.264c.59 0 1.07.473 1.07 1.058 0 .584-.48 1.058-1.07 1.058a1.064 1.064 0 0 1-1.07-1.058c0-.585.48-1.058 1.07-1.058" fill="#eb1000"/><path fill-rule="evenodd" clip-rule="evenodd" d="M69.984 28.204h-8.34l-1.735 5.319c-.072.215-.216.287-.433.287h-4.189c-.253 0-.325-.108-.253-.36l7.224-20.74c.143-.36.289-.792.325-2.158 0-.18.108-.251.253-.251h5.742c.18 0 .251.036.287.18L77.1 33.488c.075.216.037.324-.215.324h-4.696c-.18 0-.29-.072-.397-.216l-1.805-5.392-.001.001zm-7.04-4.459h5.669c-.686-2.373-2.13-6.724-2.851-9.311h-.038c-.577 2.444-1.84 6.399-2.78 9.312M86.717 34.17c-5.344 0-9.425-2.985-9.425-9.094 0-5.177 3.865-9.455 10.474-9.455.288 0 .614 0 1.154.036V8.575c0-.18.109-.252.253-.252h4.586c.146 0 .18.072.18.216v21.244c0 .865.073 1.941.147 2.625 0 .216-.037.288-.217.36a18.3 18.3 0 0 1-7.152 1.402m2.203-4.456v-9.78c-.36-.105-.83-.143-1.335-.143-2.746 0-5.128 1.655-5.128 5.033 0 3.558 2.057 5.104 4.767 5.104a6.3 6.3 0 0 0 1.696-.215m16.39-14.093c5.777 0 8.776 4.35 8.776 9.165 0 5.646-3.648 9.385-8.884 9.385-6.141 0-8.885-4.602-8.885-9.24 0-5.104 3.395-9.311 8.995-9.311zm-.216 4.17c-2.131 0-3.719 1.833-3.719 5.07 0 3.126 1.478 5.139 3.935 5.139 2.095 0 3.684-1.761 3.684-5.068 0-2.84-1.192-5.141-3.9-5.141m11.619-11.467h4.371c.287 0 .361.072.361.323l.034 7.371c.903-.289 1.951-.397 3.035-.397 5.308 0 8.667 3.738 8.667 8.556 0 6.686-5.344 9.993-10.871 9.993-1.877 0-3.829-.216-5.633-.826a.34.34 0 0 1-.253-.325V8.612c0-.216.108-.289.289-.289m11.339 16.32c0-3.27-1.913-4.815-4.476-4.815-1.122 0-1.626.178-2.097.32v9.743c.435.072.87.108 1.339.108 2.706 0 5.234-1.654 5.234-5.357m18.802 1.582h-7.077c.18 2.049 1.66 3.738 5.162 3.738a11.8 11.8 0 0 0 4.443-.826c.145-.073.253-.037.253.142v3.417c0 .287-.072.36-.253.467-1.445.648-3.034 1.005-5.563 1.005-6.752 0-9.135-4.635-9.135-9.058 0-4.996 3.032-9.491 8.703-9.491 5.488 0 7.657 4.171 7.657 7.765 0 1.08-.072 2.014-.181 2.373-.036.18-.108.252-.29.29-.505.106-1.878.18-3.719.18zm-7.077-3.522h4.693c1.156 0 1.699-.037 1.806-.073.036-.037.036-.18.036-.215 0-.9-.722-2.877-3.107-2.877-2.274 0-3.213 1.69-3.43 3.163zm26.265 2.013v8.805c0 .218-.109.29-.29.29h-4.477c-.18 0-.253-.108-.253-.288V10.55c0-.18.073-.25.289-.25h14.3c.218 0 .291.071.327.286l.395 3.883c.036.215-.071.289-.287.289h-10.004v5.463h8.992c.216 0 .325.072.325.289v3.916c0 .218-.109.29-.289.29zm12.053 8.77v-17.22c0-.215.109-.286.327-.286h4.44c.217 0 .29.035.29.285v17.222c0 .252-.073.323-.326.323h-4.37c-.215 0-.361-.072-.361-.324m2.566-19.411c-1.699 0-2.818-1.152-2.818-2.805s1.192-2.805 2.854-2.805c1.734 0 2.78 1.187 2.78 2.805 0 1.689-1.155 2.805-2.816 2.805m5.774 1.905h3.935c.218 0 .326.07.436.285.211.652.331 1.33.36 2.016 1.192-1.402 3.213-2.661 5.742-2.661.254 0 .325.072.325.288v4.386c0 .216-.071.252-.361.252-2.601-.072-4.658.681-5.452 1.581v11.396c0 .252-.109.287-.327.287h-4.369c-.253 0-.361-.072-.361-.324V21.12c0-1.581-.038-3.63-.181-4.924 0-.18.071-.215.253-.215m23.692 10.245h-7.079c.18 2.049 1.661 3.738 5.164 3.738 1.52.014 3.029-.267 4.443-.826.144-.073.253-.037.253.142v3.417c0 .287-.073.36-.253.467-1.444.648-3.034 1.005-5.562 1.005-6.752 0-9.137-4.635-9.137-9.058 0-4.996 3.033-9.491 8.702-9.491 5.49 0 7.659 4.171 7.659 7.765 0 1.08-.073 2.014-.181 2.373-.036.18-.108.252-.29.29-.504.106-1.877.18-3.719.18zm-7.079-3.522h4.696c1.155 0 1.696-.037 1.804-.073.036-.037.036-.18.036-.215 0-.9-.721-2.877-3.105-2.877-2.276 0-3.215 1.69-3.431 3.163zm14.32-2.555h-2.169c-.144-.034-.216-.106-.216-.322v-3.631c0-.18.072-.215.216-.215h2.169v-.576c0-1.69.251-2.985.758-4.06.938-2.015 2.672-3.344 5.634-3.344.722 0 1.407.07 1.84.213.217.11.253.18.253.398v3.557c0 .143-.072.253-.289.216-.324-.107-.758-.107-1.046-.107-1.337 0-2.131.718-2.131 2.733v.97h3.071c.251 0 .287.07.287.25v3.596c0 .216-.072.288-.287.322h-3.071v13.339c0 .215-.036.323-.361.323h-4.335c-.253 0-.323-.072-.323-.324V20.148zm9.703 9.06V8.645c0-.213.108-.322.361-.322h4.334q.324 0 .324.325v20.13c0 1.006.325 1.364 1.191 1.364.291 0 .361 0 .651-.032.145 0 .181.034.181.214v3.127c0 .252-.036.325-.217.431-.469.18-1.118.29-2.276.29-2.564 0-4.549-.972-4.549-4.962m7.41-13.23h4.839c.181 0 .289.037.361.252 2.06 6.113 3.177 9.887 3.648 11.72 1.191-3.774 2.311-7.225 3.684-11.72.071-.18.217-.25.397-.25h4.334c.252 0 .29.107.216.322-2.563 8.017-6.572 17.977-9.28 24.086-.073.18-.145.252-.471.288l-4.55.324c-.251 0-.327-.108-.217-.324 1.083-2.121 2.165-4.53 3.323-7.226.072-.216.109-.324.036-.574-1.012-2.481-4.443-10.965-6.572-16.61-.072-.18.036-.286.252-.286z" fill="#000"/></svg>