<svg width="337" height="46" fill="none" xmlns="http://www.w3.org/2000/svg"><g clip-path="url(#clip0_525_623)"><path fill-rule="evenodd" clip-rule="evenodd" d="M14.71.539a1.17 1.17 0 0 1 1.237-.512l19.257 4.259 4.813 1.063 1.203.267.301.065.077.02.019.001.004.002.115.03a1.17 1.17 0 0 1 .782 1.32L35.56 45.041a1.167 1.167 0 0 1-1.895.686L3.293 20.326a1.17 1.17 0 0 1-.236-1.522zM6.403 19.884 31.545 40.91l-11.04-25.67zm16.328-5.377 11.259 26.18 5.82-31.803-17.08 5.623zM6.783 17.3l12.794-4.211-4.069-9.463zm15.02-4.945L37.51 7.184l-2.81-.621-17.005-3.76z" fill="#000"/></g><path d="M58.699 37.49H55L65.7 8.396h3.643l10.7 29.091h-3.698l-8.709-24.488h-.228zm1.367-11.365h14.911v3.125H60.065zm43.068-8.636a10.3 10.3 0 0 0-1.239-2.571 8 8 0 0 0-1.807-1.96 7.6 7.6 0 0 0-2.362-1.236 9.4 9.4 0 0 0-2.903-.426q-2.589 0-4.71 1.335-2.119 1.335-3.371 3.934-1.254 2.601-1.253 6.378 0 3.78 1.266 6.378 1.267 2.6 3.429 3.934 2.164 1.337 4.868 1.335 2.504 0 4.41-1.065a7.56 7.56 0 0 0 2.987-3.038q1.081-1.975 1.082-4.646l1.082.228h-8.765v-3.126h11.099v3.126q-.001 3.594-1.538 6.249a10.6 10.6 0 0 1-4.212 4.119q-2.675 1.449-6.147 1.449-3.87 0-6.801-1.818-2.917-1.818-4.552-5.17-1.623-3.352-1.624-7.955.001-3.451.926-6.207.939-2.771 2.646-4.716a11.6 11.6 0 0 1 4.041-2.983Q92.019 8 94.825 8q2.306 0 4.296.696a11.5 11.5 0 0 1 3.571 1.946 11.1 11.1 0 0 1 2.633 2.998q1.052 1.733 1.452 3.85h-3.642zm21.922 3.891v3.126h-12.75V21.38zm25.488-12.982h3.528v19.261q0 2.984-1.408 5.327-1.395 2.33-3.942 3.679Q146.175 38 142.746 38t-5.976-1.335q-2.547-1.35-3.956-3.68-1.395-2.342-1.395-5.324V8.395h3.531v18.978q0 2.13.939 3.792a6.73 6.73 0 0 0 2.676 2.6q1.749.937 4.182.937t4.185-.937q1.749-.951 2.674-2.6.939-1.662.939-3.792zm14.104 0V37.49h-3.529V8.398zm18.344 29.092V8.396h9.846q3.43 0 5.607 1.236 2.191 1.222 3.244 3.309 1.054 2.089 1.054 4.66 0 2.569-1.054 4.673-1.04 2.103-3.215 3.352-2.178 1.237-5.579 1.236h-7.058v-3.125h6.946q2.345 0 3.769-.81t2.064-2.187q.653-1.391.654-3.138 0-1.748-.654-3.126-.64-1.378-2.077-2.16-1.438-.795-3.813-.796h-6.206v25.97zm24.98 0V15.67h3.244v3.295h.226q.6-1.62 2.163-2.628 1.565-1.01 3.53-1.01.37.002.924.015.556.015.84.042v3.41a10 10 0 0 0-.783-.128 8 8 0 0 0-1.266-.1q-1.594 0-2.846.669a5.03 5.03 0 0 0-1.963 1.818q-.711 1.15-.712 2.628v13.806h-3.357zm23.12.453q-2.958 0-5.193-1.405-2.219-1.407-3.472-3.935-1.238-2.528-1.238-5.91 0-3.41 1.238-5.952 1.253-2.542 3.472-3.948 2.235-1.406 5.193-1.407 2.961 0 5.18 1.407 2.235 1.406 3.473 3.948 1.252 2.543 1.252 5.952 0 3.382-1.252 5.91-1.238 2.528-3.473 3.935-2.219 1.405-5.18 1.405m0-3.012q2.25 0 3.701-1.15 1.45-1.148 2.148-3.026.698-1.875.698-4.062t-.698-4.077-2.148-3.054q-1.451-1.164-3.701-1.164-2.247 0-3.698 1.164-1.451 1.166-2.148 3.054a11.7 11.7 0 0 0-.698 4.077q0 2.188.698 4.063.697 1.875 2.148 3.026 1.45 1.148 3.698 1.149m24.536-19.26v2.841h-11.326v-2.841zm-8.026-5.227h3.358v20.794q0 1.421.412 2.13.428.698 1.082.939.669.225 1.408.226.556.001.911-.056l.57-.113.682 3.01q-.466.163-.952.255a7 7 0 0 1-1.551.145 6.8 6.8 0 0 1-2.79-.613 5.54 5.54 0 0 1-2.247-1.86q-.882-1.251-.883-3.153zm21.721 27.499q-2.96 0-5.194-1.405-2.22-1.407-3.472-3.935-1.237-2.528-1.237-5.91 0-3.41 1.237-5.952 1.252-2.542 3.472-3.948 2.233-1.406 5.194-1.407 2.959 0 5.18 1.407 2.233 1.406 3.471 3.948 1.252 2.543 1.252 5.952 0 3.382-1.252 5.91-1.238 2.528-3.471 3.935-2.221 1.405-5.18 1.405m0-3.012q2.249 0 3.699-1.15 1.452-1.148 2.148-3.026.697-1.875.697-4.062t-.697-4.077-2.148-3.054q-1.45-1.164-3.699-1.164t-3.701 1.164q-1.45 1.166-2.147 3.054a11.7 11.7 0 0 0-.698 4.077q0 2.188.698 4.063.697 1.875 2.147 3.026 1.453 1.148 3.701 1.149m23.907 3.012q-3.073 0-5.292-1.449-2.22-1.448-3.416-3.99t-1.195-5.811q0-3.323 1.224-5.865 1.238-2.558 3.444-3.993 2.219-1.449 5.18-1.449 2.304 0 4.153.852 1.851.855 3.031 2.387 1.182 1.535 1.466 3.58h-3.358q-.383-1.491-1.707-2.643-1.309-1.164-3.53-1.164-1.962 0-3.443 1.023-1.467 1.008-2.29 2.855-.811 1.83-.811 4.305 0 2.527.796 4.402.812 1.875 2.277 2.912 1.48 1.036 3.471 1.036a6 6 0 0 0 2.377-.454 4.9 4.9 0 0 0 1.806-1.305q.74-.854 1.054-2.046h3.358a7.8 7.8 0 0 1-1.409 3.48q-1.109 1.534-2.945 2.443-1.82.894-4.241.894m22.383 0q-2.96 0-5.194-1.405-2.22-1.407-3.472-3.935-1.237-2.528-1.237-5.91 0-3.41 1.237-5.952 1.252-2.542 3.472-3.948 2.233-1.406 5.194-1.407 2.959 0 5.18 1.407 2.233 1.406 3.471 3.948 1.252 2.543 1.252 5.952 0 3.382-1.252 5.91-1.238 2.528-3.471 3.935-2.221 1.405-5.18 1.405m0-3.012q2.248 0 3.699-1.15 1.452-1.148 2.15-3.026c.472-1.302.708-2.677.695-4.062.012-1.39-.224-2.77-.695-4.077q-.698-1.89-2.15-3.054t-3.699-1.164-3.701 1.164q-1.45 1.166-2.147 3.054a11.7 11.7 0 0 0-.698 4.077q0 2.188.698 4.063.697 1.875 2.147 3.026 1.454 1.148 3.701 1.149M334 8.398V37.49h-3.358V8.398z" fill="#000"/><defs><clipPath id="clip0_525_623"><path fill="#fff" d="M0 0h46v46H0z"/></clipPath></defs></svg>