<svg width="46" height="46" fill="none" xmlns="http://www.w3.org/2000/svg"><path fill-rule="evenodd" clip-rule="evenodd" d="m12.4 32.583-.703-2.279H5.21l-.706 2.28H0L6.513 13.82h3.883l6.593 18.762zM8.469 19.18 6.225 26.9h4.432zm9.022-5.359h4.274v18.762H17.49zm5.424 14.929a8.7 8.7 0 0 1 1.004-2.626 7.5 7.5 0 0 1 1.524-1.823 16 16 0 0 1 1.941-1.42 70 70 0 0 0 1.497-.926q.639-.402 1.212-.897c.33-.283.607-.622.82-1.006.205-.381.307-.81.3-1.246q.001-1.126-.599-1.621a2.25 2.25 0 0 0-1.485-.497 2.3 2.3 0 0 0-1.654.631q-.665.63-.666 2.105h-4.191a6.5 6.5 0 0 1 .429-2.387 5.3 5.3 0 0 1 1.265-1.903 5.9 5.9 0 0 1 2.032-1.26 7.7 7.7 0 0 1 2.758-.457 8.4 8.4 0 0 1 2.384.335c.72.205 1.4.55 1.993 1.018a4.85 4.85 0 0 1 1.369 1.769 6 6 0 0 1 .508 2.559 4.6 4.6 0 0 1-.497 2.146 7.2 7.2 0 0 1-1.21 1.714c-.472.496-.992.939-1.55 1.328q-.834.575-1.512.978-.938.643-1.55 1.111-.527.393-.978.872a2.4 2.4 0 0 0-.508.832c-.1.32-.148.655-.142.991h7.816v3.513H22.563a17.7 17.7 0 0 1 .35-3.833m13.12-11.634c.73.015 1.46-.052 2.175-.201.479-.094.927-.3 1.315-.602a2.1 2.1 0 0 0 .651-1.02c.13-.48.192-.977.182-1.476h3.726v18.766h-4.299v-12.41h-3.75z" fill="#000"/></svg>