<svg width="169" height="46" fill="none" xmlns="http://www.w3.org/2000/svg"><g clip-path="url(#clip0_525_626)"><path fill-rule="evenodd" clip-rule="evenodd" d="M23 0h.035c2.823-.004 5.52.5 8.01 1.445C39.78 4.707 46 13.13 46 23c0 12.702-10.298 23-23 23S0 35.702 0 23 10.298 0 23 0m16.491 36.353A21.13 21.13 0 0 0 44.218 23a21.1 21.1 0 0 0-2.088-9.188A4.964 4.964 0 0 1 35.97 15a12 12 0 0 1-2.555-1.902c-2.206-2.116-4.456-4.166-7.164-5.623-6.155-3.314-13.082-2.877-18.582.857A21.15 21.15 0 0 0 1.783 23c0 3.187.703 6.212 1.962 8.926 1.438-1.865 4.085-2.58 6.195-1.36 1.278.735 2.41 1.762 3.52 2.773l.338.306c2.616 2.365 5.355 4.514 8.736 5.683 5.852 2.018 12.183.838 16.957-2.975" fill="url(#paint0_linear_525_626)"/><path d="M10.816 19.765c-1.59.21-2.685 1.468-2.698 3.1a3.29 3.29 0 0 0 2.779 3.298c1.543.245 3.143-.817 3.584-2.416.088-.32.146-.647.203-.977.048-.268.096-.54.161-.805.61-2.524 2.371-3.738 5.344-3.7 2.081.026 2.526.52 3.22 3.556.032.146.082.29.134.433.498 1.369 1.87 2.243 3.2 2.042a3.16 3.16 0 0 0 2.646-2.756c.159-1.398-.667-2.423-2.15-3.02-.652-.26-1.273-.302-1.908-.27-1.391.071-2.148-.69-2.566-1.872a6.4 6.4 0 0 1-.257-1.246q-.039-.267-.082-.533c-.3-1.7-1.6-2.894-3.2-2.936-1.515-.038-2.805 1.056-3.19 2.718l-.116.517-.048.225c-.68 3.135-1.866 4.226-5.056 4.642" fill="url(#paint1_linear_525_626)"/><path d="M34.614 26.151c1.895-.395 3.022-1.606 3.05-3.253.03-1.59-1.195-3.032-2.797-3.304-1.476-.25-3.065.734-3.535 2.262-.132.421-.224.858-.316 1.295-.115.556-.234 1.112-.431 1.637-.704 1.89-3.054 2.963-5.608 2.672-1.58-.182-2.12-.855-2.573-3.208-.345-1.798-1.656-2.942-3.222-2.812-1.629.134-2.903 1.589-2.813 3.206.096 1.71 1.3 2.76 3.268 2.854 2.635.123 3.354.76 3.691 3.425.129 1.018.512 1.854 1.313 2.47 1.955 1.5 4.614.398 5.098-2.125l.043-.218c.29-1.526.575-3.023 1.993-4.027.69-.489 1.459-.625 2.235-.76.201-.037.402-.072.604-.116z" fill="url(#paint2_linear_525_626)"/><path d="M26.507 15.259a1.447 1.447 0 1 1-2.893 0 1.447 1.447 0 0 1 2.893 0" fill="url(#paint3_linear_525_626)"/><path d="M20.718 31.966a1.448 1.448 0 1 0 0-2.896 1.448 1.448 0 0 0 0 2.896" fill="url(#paint4_linear_525_626)"/></g><path fill-rule="evenodd" clip-rule="evenodd" d="M78.967 8H55v1.794a2.77 2.77 0 0 0 2.772 2.77H79.62a5.87 5.87 0 0 1 5.869 5.872v1.956H57.934v4.564h27.555v2.772a5.87 5.87 0 0 1-5.87 5.87H57.773A2.77 2.77 0 0 0 55 36.37V38h23.967a11.086 11.086 0 0 0 11.088-11.086v-7.829A11.087 11.087 0 0 0 78.967 8m15 10.436A10.433 10.433 0 0 1 104.402 8h23.805v1.956c0 1.44-1.17 2.61-2.61 2.61h-21.358a5.87 5.87 0 0 0-5.87 5.87v1.956h22.5a7.173 7.173 0 0 1 7.175 7.174v3.26a7.2 7.2 0 0 1-2.102 5.073A7.17 7.17 0 0 1 120.869 38h-16.467a10.43 10.43 0 0 1-9.641-6.442 10.4 10.4 0 0 1-.794-3.994zm4.402 6.358v2.772c0 3.33 2.7 6.031 6.033 6.031h16.14a3.26 3.26 0 0 0 3.263-3.26v-2.282a3.26 3.26 0 0 0-3.261-3.261zm44.021-16.63a10.273 10.273 0 0 0-10.271 10.272v9.292A10.274 10.274 0 0 0 142.391 38h13.695a10.273 10.273 0 0 0 10.272-10.272v-9.292a10.273 10.273 0 0 0-10.272-10.272zm0 4.4a5.87 5.87 0 0 0-5.868 5.872v9.292a5.87 5.87 0 0 0 5.869 5.87h13.695a5.87 5.87 0 0 0 5.87-5.87v-9.292a5.87 5.87 0 0 0-5.87-5.871z" fill="#000"/><defs><linearGradient id="paint0_linear_525_626" x1="23" y1="0" x2="23" y2="46" gradientUnits="userSpaceOnUse"><stop stop-color="#12b7fa"/><stop offset="1" stop-color="#006ffb"/></linearGradient><linearGradient id="paint1_linear_525_626" x1="22.891" y1="11.663" x2="22.891" y2="34.075" gradientUnits="userSpaceOnUse"><stop stop-color="#006ffb"/><stop offset="1" stop-color="#12b7fa"/></linearGradient><linearGradient id="paint2_linear_525_626" x1="22.891" y1="11.663" x2="22.891" y2="34.075" gradientUnits="userSpaceOnUse"><stop stop-color="#006ffb"/><stop offset="1" stop-color="#12b7fa"/></linearGradient><linearGradient id="paint3_linear_525_626" x1="22.891" y1="11.663" x2="22.891" y2="34.075" gradientUnits="userSpaceOnUse"><stop stop-color="#006ffb"/><stop offset="1" stop-color="#12b7fa"/></linearGradient><linearGradient id="paint4_linear_525_626" x1="22.891" y1="11.663" x2="22.891" y2="34.075" gradientUnits="userSpaceOnUse"><stop stop-color="#006ffb"/><stop offset="1" stop-color="#12b7fa"/></linearGradient><clipPath id="clip0_525_626"><path fill="#fff" d="M0 0h46v46H0z"/></clipPath></defs></svg>