<svg width="268" height="46" fill="none" xmlns="http://www.w3.org/2000/svg"><g clip-path="url(#clip0_525_621)"><path d="M23 46c12.702 0 23-10.298 23-23S35.702 0 23 0 0 10.298 0 23s10.298 23 23 23" fill="#006ffb"/><path fill-rule="evenodd" clip-rule="evenodd" d="M21.543 16.087q.272-1.851 1.196-4.754l.26-.799.261.8q.926 2.902 1.196 4.753.204 1.356 0 3.45-.207 2.101 0 3.476a5.35 5.35 0 0 0 1.84 3.343 5.36 5.36 0 0 0 3.623 1.357 5.33 5.33 0 0 0 3.898-1.61q1.61-1.607 1.626-3.88.008-2.01.414-4.438.2-1.214.402-2.032l.182-.736.322.682a15.1 15.1 0 0 1 1.457 6.218v.307c.006 2.034-.4 4.048-1.196 5.92a15.24 15.24 0 0 1-8.104 8.104A15 15 0 0 1 23 37.442c-2.034.007-4.049-.4-5.92-1.194a15.24 15.24 0 0 1-8.105-8.104 15 15 0 0 1-1.194-5.922v-.305A15.1 15.1 0 0 1 9.236 15.7l.324-.682.178.738q.208.815.405 2.03.405 2.426.414 4.439c.011 1.514.556 2.808 1.625 3.88q1.62 1.609 3.9 1.61 2.056 0 3.621-1.358a5.35 5.35 0 0 0 1.84-3.343q.21-1.374 0-3.476-.204-2.094 0-3.45M23 34.667q3.153-.002 5.913-1.491a12.2 12.2 0 0 0 3.392-2.682c.12-.134-.02-.341-.194-.293a8.4 8.4 0 0 1-2.192.287 8.1 8.1 0 0 1-4.178-1.13 8.15 8.15 0 0 1-2.588-2.364.19.19 0 0 0-.307 0 8.15 8.15 0 0 1-2.587 2.362 8.1 8.1 0 0 1-4.178 1.132 8.3 8.3 0 0 1-2.191-.287c-.175-.048-.317.159-.196.293a12.2 12.2 0 0 0 3.393 2.682q2.76 1.489 5.913 1.49" fill="#fff"/></g><path fill-rule="evenodd" clip-rule="evenodd" d="M55 38.854 64.405 6.5h8.936l9.357 32.353h-5.22l-2.163-7.626H62.43l-2.163 7.626zm8.7-12.25h10.346L69.249 9.597h-.753L63.7 26.606zm23.598 12.25V16.068h4.845v22.784zm2.445-25.883q-1.41 0-2.397-.879-.94-.923-.94-2.357 0-1.432.94-2.31.986-.925 2.398-.925 1.456 0 2.397.924.94.878.941 2.31 0 1.435-.94 2.358-.94.878-2.399.879m9.447 25.882V6.5h5.078v13.866h13.825V6.5h5.079v32.353h-5.079V24.896h-13.825v13.958zm39.888.416q-2.632 0-4.702-1.155a8.25 8.25 0 0 1-3.245-3.282q-1.176-2.127-1.176-5.085v-13.68h4.845v13.357q0 2.957 1.503 4.391 1.507 1.386 4.185 1.386 2.964 0 4.751-1.941 1.834-1.986 1.834-5.685V16.067h4.844v22.785h-4.751v-3.42h-.753q-.657 1.386-2.35 2.636-1.692 1.2-4.985 1.2zm33.401.231q-3.387 0-5.22-1.202-1.787-1.201-2.681-2.68h-.753v3.235h-4.749V6.5h4.845v12.665h.75a7.8 7.8 0 0 1 1.506-1.757q.94-.879 2.492-1.433 1.552-.555 3.81-.554 2.915 0 5.361 1.386 2.444 1.387 3.903 4.02 1.456 2.636 1.456 6.286v.693q0 3.698-1.504 6.333-1.458 2.587-3.903 3.975-2.398 1.386-5.313 1.386m-1.41-4.16q3.15 0 5.172-1.987 2.07-1.988 2.07-5.685v-.415q0-3.652-2.024-5.64-2.022-1.987-5.22-1.986-3.104-.001-5.172 1.987-2.024 1.987-2.023 5.639v.415q0 3.698 2.023 5.685 2.07 1.987 5.174 1.987m17.992 3.513V6.5h9.546l7.194 29.025h.753L213.748 6.5h9.546v32.353h-4.938v-28.84h-.751l-7.148 28.84h-8.559l-7.147-28.84h-.753v28.84zm41.241 0V16.07h4.844v22.784zm2.445-25.882q-1.41 0-2.398-.879-.94-.923-.941-2.357 0-1.432.941-2.31.988-.925 2.398-.925 1.458 0 2.399.924.94.878.94 2.31 0 1.435-.94 2.358-.94.878-2.399.879m7.613 25.881 8.841-11.508-8.654-11.277h5.69l6.066 8.181h.753l6.066-8.181h5.737l-8.7 11.277L265 38.852h-5.784l-6.16-8.365h-.753l-6.159 8.365z" fill="#000"/><defs><clipPath id="clip0_525_621"><path fill="#fff" d="M0 0h46v46H0z"/></clipPath></defs></svg>