<svg width="46" height="46" fill="none" xmlns="http://www.w3.org/2000/svg"><path d="M16.978 32.804c.299-.794.124-.523.949.188 3.973 3.434 19.806-3.556 17.317-7.642-3.077-4.26-15.188-1.38-22.04-.092 1.092-.497 5.434-1.913 7.065-2.325 2.24-.567 3.162-.751 5.248-1.248-4.696.48-11.914 2.862-18.567 5.361 3.243-2.58 9.73-4.864 11.22-5.56-3.078.696-8.809 3.273-13.12 5.453-2.447 1.236-3.264 1.696-5.05 2.689 1.334-1.14 2.933-2.65 5.656-4.247 3.285-1.923 3.479-2.01 4.472-2.605-2.385.993-4.568 1.987-6.057 2.484 1.482-1.024 4.268-2.582 5.36-3.078-.33.028-.992.297-1.389.396 1.986-1.092 3.448-1.59 4.282-1.859 14.222-4.68 30.665-4.182 33.197 1.012 2.534 5.194-5.302 12.432-15.999 14.776-1.851.406-3.49.628-5.033.686-1.602.06-2.775-.01-3.904-.23-2.996-.585-4.288-2.361-3.607-4.16" fill="#003e97"/><path d="M22.042 11.855c1.29.199 1.886.299 2.582.299-1.093-.696-1.346-.777-3.872-2.185 2.48-.198 3.653-.046 6.451-.1-1.19-.694-1.786-.694-3.076-1.29a65 65 0 0 1 5.361-.2 2.5 2.5 0 0 0-.795-.693c2.779-.1 6.727.184 8.98 1.188 4.392 1.969 3.823 5.02-1.093 5.87-.903.156-2.52.285-3.592.288a24 24 0 0 1-4.098-.406c-3.586-.686-6.352-1.878-6.848-2.771" fill="#d70d19"/></svg>