<svg width="388" height="46" fill="none" xmlns="http://www.w3.org/2000/svg"><path fill-rule="evenodd" clip-rule="evenodd" d="m4.549 8.244-2.632 6.443a8.83 8.83 0 0 1 4.987 4.988c1.87 4.642-.345 9.907-4.918 11.778l2.633 6.44c4.018-1.662 7.136-4.78 8.729-8.798A15.997 15.997 0 0 0 4.55 8.242zm6.79 32.144L15.495 46c2.01-1.455 3.81-3.256 5.334-5.194l-5.403-4.297a21.7 21.7 0 0 1-4.087 3.879m15.796-17.319c0-9.006-4.365-17.526-11.64-22.862l-4.156 5.612c5.541 4.017 8.798 10.461 8.867 17.319A28.39 28.39 0 0 0 31.775 46l4.088-5.612c-5.474-4.086-8.728-10.461-8.728-17.319m8.937-17.388L32.051 0a28 28 0 0 0-5.681 5.405l5.405 4.293a21.6 21.6 0 0 1 4.293-4.017zm4.71 21.267c-2.147-4.64-.07-10.183 4.572-12.33l-2.91-6.305a16.2 16.2 0 0 0-8.036 8.174c-3.672 8.175 0 17.806 8.244 21.41l2.84-6.306a9.32 9.32 0 0 1-4.71-4.643" fill="#000"/><path d="M63.684 38H55L65.434 8H77.65l10.434 30h-9.267l-4.75-14.866L71.7 15.3h-.633l-2.45 7.834zm18.267-5.784H61.084v-7.332h20.865zM100.234 38H91.8V8h8.434zm15.033 0H94.132v-7.566h21.135zm13.25 0h-8.483V8h8.4zm15.817-22.434h-21.935V8h21.935zm-.651 11.151h-21.284v-7.516h21.286v7.514zM144.334 38h-21.935v-7.566h21.935zm45.416 0h-8.434V8h8.434zm15.65-11.283h-21.817V19.15H205.4zM209.5 38h-8.583V8h8.433zm23.166 0h-8.682l10.433-30h12.233l10.433 30h-9.216l-4.75-14.866-2.367-7.834h-.7l-2.484 7.834zm18.4-5.784h-20.882v-7.332h20.866v7.332zM269.184 38h-8.267V8h8.4zm15.065 0h-21.133v-7.566h21.133zm44.302 0h-8.434V8h8.434zM344.2 26.717h-21.816V19.15H344.2zM348.267 38h-8.401V8h8.401zm12.383 0h-8.683l10.432-30h12.218l10.433 30h-9.333l-4.751-14.866-2.365-7.834h-.635l-2.483 7.834zm18.4-5.784h-20.867v-7.332h20.867zM158.7 38h-8.401V8h8.401z" fill="#000"/><path d="M164.95 30.05h-11.367v-7.5h11.051a4.84 4.84 0 0 0 2.916-.65 5.71 5.71 0 0 0 0-5.7 4.83 4.83 0 0 0-2.916-.632h-11.051V8.015h11.367c2.15-.047 4.282.397 6.234 1.3a9.87 9.87 0 0 1 4.083 3.8 13 13 0 0 1 0 11.934 9.6 9.6 0 0 1-4.083 3.733 13.8 13.8 0 0 1-6.234 1.168zM297.449 38h-8.433V8h8.433z" fill="#000"/><path d="M303.233 30.05h-11.367v-7.5h11.051a4.84 4.84 0 0 0 2.916-.65 5.71 5.71 0 0 0 0-5.7 4.82 4.82 0 0 0-2.916-.632h-11.051V8.015h11.367a14.1 14.1 0 0 1 6.233 1.3 9.87 9.87 0 0 1 4.084 3.8 13 13 0 0 1 0 11.934 9.6 9.6 0 0 1-4.084 3.733 13.8 13.8 0 0 1-6.233 1.168z" fill="#000"/></svg>