<svg width="264" height="46" fill="none" xmlns="http://www.w3.org/2000/svg"><path d="M20.307 2.875a7.08 7.08 0 0 0-6.6 4.514L0 42.665h10.411L21.201 14.9h.003a1.84 1.84 0 0 1 3.416 0h1.437V9.267h-2.67l2.484-6.392z" fill="#2545d3"/><path d="M13.706 7.389a7.08 7.08 0 0 1 6.248-4.504l-.004-.01h5.743a7.08 7.08 0 0 1 6.6 4.514L46 42.665H35.41L22.118 8.458a4.846 4.846 0 0 0-8.834.012z" fill="#566de8"/><path fill-rule="evenodd" clip-rule="evenodd" d="m61.364 33.665 2.383-6.342h10.522l2.421 6.343h4.51L71.63 8h-5.022L57 33.665zm7.626-21.117 4.107 11.183H64.92l4.068-11.183zM83.184 27.47c.111 4.07 3.558 6.417 8.58 6.417 4.548 0 7.958-2.274 7.958-5.867 0-4.18-3.485-5.06-7.775-5.573-2.712-.293-4.509-.514-4.509-2.273 0-1.505 1.54-2.457 3.886-2.457 2.348 0 3.96 1.21 4.181 2.933h3.886c-.256-3.85-3.52-5.976-8.14-5.976-4.509-.037-7.7 2.274-7.7 5.83 0 3.885 3.374 4.803 7.664 5.316 2.895.366 4.62.513 4.62 2.53 0 1.503-1.614 2.456-4.07 2.456-2.86 0-4.547-1.392-4.695-3.336zm19.541 0c.111 4.07 3.556 6.417 8.579 6.417 4.547 0 7.958-2.274 7.958-5.867 0-4.18-3.483-5.06-7.773-5.573-2.715-.293-4.51-.514-4.51-2.273 0-1.505 1.54-2.457 3.885-2.457 2.349 0 3.961 1.21 4.181 2.933h3.885c-.255-3.85-3.519-5.976-8.138-5.976-4.511-.037-7.7 2.274-7.7 5.83 0 3.885 3.374 4.803 7.664 5.316 2.895.366 4.619.513 4.619 2.53 0 1.503-1.614 2.456-4.069 2.456-2.861 0-4.548-1.392-4.695-3.336zm29.616 6.417c4.656 0 7.81-2.825 8.47-6.528h-3.96c-.55 2.091-2.31 3.3-4.731 3.3-3.117 0-5.133-2.09-5.243-5.28v-.255h14.153q.108-.748.109-1.505c-.109-5.5-3.739-8.944-9.164-8.944-5.538 0-9.24 3.849-9.24 9.644 0 5.755 3.702 9.57 9.606 9.57zm-5.318-11.661c.294-2.676 2.457-4.363 4.987-4.363 2.75 0 4.694 1.576 5.024 4.365zm40.016-7.552c-3.081 0-5.207 1.355-6.417 3.409-1.137-2.42-3.336-3.41-5.793-3.41-2.823.037-4.438 1.283-5.501 2.676l-.44-2.456h-3.448v18.774h3.96V23.618c0-3.335 1.687-5.535 4.399-5.535 2.604 0 3.96 1.723 3.96 5.023v10.56h3.998V23.51c0-3.375 1.723-5.427 4.435-5.427 2.567 0 3.925 1.724 3.925 5.024v10.56h3.96V22.85c0-5.94-3.152-8.177-7.038-8.177m21.775 0c-2.895 0-4.84 1.32-6.087 3.006V8h-3.96v25.665h3.447l.477-2.712c1.173 1.688 3.19 2.934 6.123 2.934 5.134 0 8.874-3.85 8.874-9.608 0-6.049-3.74-9.605-8.874-9.605m-.66 15.875c-3.3 0-5.463-2.602-5.463-6.305 0-3.63 2.163-6.197 5.463-6.197s5.5 2.565 5.5 6.232c0 3.706-2.202 6.27-5.5 6.27m13.806 3.116h3.961V8h-3.96zm14.369.111-.732 1.834c-.588 1.54-.954 1.906-2.495 1.906h-2.786V41h4.253c2.751 0 3.556-1.356 4.729-4.4l8.509-21.706h-4.219l-5.095 14.263-5.244-14.264h-4.216zm16.325-.111 2.384-6.342h10.524l2.419 6.343h4.511L242.922 8h-5.024l-9.607 25.665zm7.628-21.118 4.107 11.182h-8.178zm15.942 21.118h4.216V8h-4.216z" fill="#000"/></svg>