<svg width="124" height="46" fill="none" xmlns="http://www.w3.org/2000/svg"><g clip-path="url(#clip0_526_678)"><path d="M36.543.251c-.123-.203-.406-.326-.651-.203L31.31 2.603c-2.312 1.3-3.772 2.677-4.666 5.313a8.96 8.96 0 0 0 .65 7.18c.121.203.407.325.648.203l4.585-2.555c2.311-1.3 3.772-2.678 4.663-5.313a8.96 8.96 0 0 0-.648-7.182zM3.692 10.391a.623.623 0 0 0-.61.609 11.16 11.16 0 0 0 3.651 8.272c2.595 2.354 5.028 2.961 8.355 2.961h6.57a.623.623 0 0 0 .608-.607c0-3.285-1.418-6.249-3.65-8.275-2.596-2.351-5.029-2.963-8.356-2.963H3.693zm41.975 9.815a.623.623 0 0 0-.608-.608v.038h-6.65c-3.368 0-5.841.652-8.478 3.004-2.272 1.985-3.73 5.027-3.73 8.354 0 .324.284.608.607.608h6.651c3.368 0 5.84-.65 8.478-3.001a11.3 11.3 0 0 0 3.73-8.395M0 30.264c0-.446.364-.853.851-.853h9.208c4.663 0 8.069.893 11.72 4.179 3.124 2.798 5.07 6.976 5.11 11.557a.857.857 0 0 1-.851.853h-9.206c-4.665 0-8.07-.851-11.722-4.136-3.124-2.84-5.07-7.019-5.11-11.6" fill="#416fdc"/></g><path fill-rule="evenodd" clip-rule="evenodd" d="M56.979 33.598c0-.09 0-.184.044-.252l8.764-24.887c.089-.3.317-.459.66-.459h3.34c.343 0 .547.16.66.459l8.784 24.91.045.228a.37.37 0 0 1-.136.299.58.58 0 0 1-.365.114h-2.252c-.318 0-.524-.16-.637-.457l-2.253-6.6H62.552l-2.252 6.6c-.115.297-.319.457-.638.457H57.5c-.317 0-.477-.136-.477-.39zm15.654-9.465L68.061 10.82l-4.576 13.316h9.148zm13.22 16.753a.37.37 0 0 1-.136-.299c0-.114 0-.138.045-.252l2.322-5.982-7.373-18.745c-.044-.091-.044-.183-.044-.274 0-.277.158-.39.476-.39h2.162c.318 0 .546.16.637.458l5.779 15.103 5.804-15.102c.089-.299.317-.46.636-.46h2.047c.32 0 .479.139.479.39 0 .252 0 .161-.045.275l-9.74 24.933c-.114.3-.318.459-.636.459H86.24c-.16 0-.295-.045-.363-.114zm32.311-9.786c.182.23.523.321.979.321h1.229c.181 0 .318.045.409.16q.08.084.121.19.042.108.039.223v1.42c0 .183-.045.322-.16.413a.56.56 0 0 1-.409.16h-2.139c-1.092 0-1.912-.274-2.48-.825-.546-.55-.843-1.397-.865-2.52-.751 1.236-1.729 2.155-2.934 2.772-1.184.618-2.528.94-4.007.94s-2.388-.228-3.345-.687a5.3 5.3 0 0 1-2.229-1.949c-.523-.825-.796-1.787-.796-2.865 0-1.557.546-2.795 1.615-3.711s2.663-1.49 4.778-1.741l6.736-.78v-1.466c0-.803-.182-1.491-.569-2.085-.365-.597-.91-1.056-1.593-1.377s-1.502-.48-2.434-.48c-.934 0-2.231.274-3.073.848-.841.55-1.364 1.305-1.569 2.245-.069.345-.273.504-.592.504h-1.936c-.181 0-.341-.045-.432-.16a.48.48 0 0 1-.091-.435 6.23 6.23 0 0 1 1.296-2.934c.684-.848 1.594-1.512 2.709-1.994 1.114-.48 2.367-.71 3.777-.71s2.845.275 4.005.802c1.138.527 2.026 1.284 2.662 2.246.615.962.934 2.085.934 3.346v9.052c0 .504.089.894.294 1.1zm-12.355-.045c.706.572 1.66.848 2.844.848s2.026-.23 2.958-.689a5.7 5.7 0 0 0 2.298-2.062c.592-.916.888-1.994.888-3.277v-1.008l-6.007.688c-1.388.16-2.412.48-3.072.985-.66.504-.979 1.215-.979 2.154s.365 1.788 1.07 2.36z" fill="#000"/><defs><clipPath id="clip0_526_678"><path fill="#fff" d="M0 0h46v46H0z"/></clipPath></defs></svg>