<svg width="198" height="46" fill="none" xmlns="http://www.w3.org/2000/svg"><g clip-path="url(#clip0_524_493)"><path fill-rule="evenodd" clip-rule="evenodd" d="M31.113 0c1.367 0 2.578 1.056 3.013 2.547s2.98 10.714 2.98 10.714V31.59h-9.224L28.07 0z" fill="url(#paint0_linear_524_493)"/><path d="M44.654 14.318c0-.652-.527-1.15-1.15-1.15H38.07a6.93 6.93 0 0 0-6.926 6.928V31.59h6.585a6.933 6.933 0 0 0 6.925-6.927z" fill="url(#paint1_linear_524_493)"/><path fill-rule="evenodd" clip-rule="evenodd" d="M31.113 0a1.88 1.88 0 0 0-1.895 1.896l-.186 34.88A9.227 9.227 0 0 1 19.807 46H3.067a1.144 1.144 0 0 1-1.087-1.522L15.397 6.181A9.24 9.24 0 0 1 24.093 0h7.051z" fill="url(#paint2_linear_524_493)"/></g><path fill-rule="evenodd" clip-rule="evenodd" d="m72.756 9.5 10.373 27.487h-5.264l-2.437-6.821H64.57l-2.342 6.821H57L67.374 9.5zm-2.709 5.1h-.135l-4.076 11.577H74.1l-4.05-11.578zM85.5 17.282h15.776v1.86L90.92 33.308h10.414v3.68H84.769v-2.206l10.203-13.819H85.5zm36.3 0v19.705h-4.69v-2.586h-.076a6.27 6.27 0 0 1-2.469 2.097q-1.549.76-3.469.76-3.441 0-5.235-1.948-1.799-1.944-1.8-6.048v-11.98h4.711v11.426q0 2.492.99 3.747.988 1.255 2.986 1.255 1.98 0 3.172-1.389c.795-.925 1.19-2.139 1.19-3.631V17.282zm13.362-.326q.556 0 .999.077.442.076.75.192v4.697c-.246-.18-.597-.349-1.065-.508q-.702-.24-1.7-.24-1.712 0-2.895 1.438-1.18 1.44-1.181 4.428v9.947h-4.651V17.283h4.651v3.105h.077c.42-1.073 1.065-1.913 1.92-2.52q1.29-.91 3.095-.91m11.509-.075q4.094-.002 6.375 2.501c1.515 1.666 2.274 3.972 2.274 6.91v2.241h-13.527q.31 2.97 1.915 4.152c1.065.786 2.449 1.178 4.138 1.178a10 10 0 0 0 3.189-.508 10.3 10.3 0 0 0 2.691-1.331v3.816q-1.151.727-3.017 1.176a16.8 16.8 0 0 1-3.979.452q-4.515 0-7.02-2.665-2.51-2.664-2.508-7.417 0-4.582 2.681-7.545 2.678-2.96 6.788-2.96m0 3.545q-1.667 0-2.994 1.2-1.327 1.195-1.77 3.514h8.84q0-2.297-1.065-3.506t-3.011-1.208" fill="#000"/><path fill-rule="evenodd" clip-rule="evenodd" d="m72.756 9.5 10.373 27.487h-5.264l-2.437-6.821H64.57l-2.342 6.821H57L67.374 9.5zm-2.709 5.1h-.135l-4.076 11.577H74.1l-4.05-11.578zM85.5 17.282h15.776v1.86L90.92 33.308h10.414v3.68H84.769v-2.206l10.203-13.819H85.5zm36.3 0v19.705h-4.69v-2.586h-.075a6.3 6.3 0 0 1-2.469 2.097q-1.55.76-3.47.76-3.441 0-5.235-1.948-1.799-1.944-1.8-6.048v-11.98h4.712v11.426q-.001 2.492.99 3.747.987 1.255 2.985 1.255 1.98 0 3.172-1.389c.795-.925 1.19-2.139 1.19-3.631V17.282zm13.362-.326a6 6 0 0 1 .999.077q.442.076.75.192v4.697c-.246-.18-.597-.349-1.065-.508q-.702-.24-1.699-.24-1.714 0-2.895 1.438-1.182 1.44-1.182 4.428v9.947h-4.65V17.283h4.65v3.105h.078c.42-1.073 1.065-1.913 1.92-2.52q1.288-.91 3.094-.91m11.51-.075q4.094-.002 6.375 2.501c1.515 1.666 2.274 3.972 2.274 6.91v2.241h-13.527q.309 2.97 1.914 4.152c1.065.786 2.449 1.178 4.138 1.178a10 10 0 0 0 3.189-.508 10.3 10.3 0 0 0 2.691-1.331v3.816q-1.152.727-3.016 1.176a16.8 16.8 0 0 1-3.98.452q-4.514 0-7.02-2.665-2.51-2.664-2.508-7.417 0-4.582 2.681-7.545 2.679-2.96 6.789-2.96m0 3.545q-1.669 0-2.994 1.2-1.327 1.195-1.77 3.514h8.839q0-2.297-1.065-3.506-1.066-1.208-3.01-1.208M177.756 9.5l10.373 27.487h-5.264l-2.437-6.821h-10.857l-2.343 6.821H162L172.374 9.5zm-2.709 5.1h-.135l-4.075 11.577h8.262l-4.05-11.578zm19.523 22.387h-4.65V9.5h4.65z" fill="#000"/><defs><linearGradient id="paint0_linear_524_493" x1="34.964" y1="32.271" x2="27.2" y2="1.181" gradientUnits="userSpaceOnUse"><stop stop-color="#712575"/><stop offset=".09" stop-color="#9a2884"/><stop offset=".18" stop-color="#bf2c92"/><stop offset=".27" stop-color="#da2e9c"/><stop offset=".34" stop-color="#eb30a2"/><stop offset=".4" stop-color="#f131a5"/><stop offset=".5" stop-color="#ec30a3"/><stop offset=".61" stop-color="#df2f9e"/><stop offset=".72" stop-color="#c92d96"/><stop offset=".83" stop-color="#aa2a8a"/><stop offset=".95" stop-color="#83267c"/><stop offset="1" stop-color="#712575"/></linearGradient><linearGradient id="paint1_linear_524_493" x1="37.915" y1=".652" x2="37.915" y2="44.509" gradientUnits="userSpaceOnUse"><stop stop-color="#da7ed0"/><stop offset=".08" stop-color="#b17bd5"/><stop offset=".19" stop-color="#8778db"/><stop offset=".3" stop-color="#6276e1"/><stop offset=".41" stop-color="#4574e5"/><stop offset=".54" stop-color="#2e72e8"/><stop offset=".67" stop-color="#1d71eb"/><stop offset=".81" stop-color="#1471ec"/><stop offset="1" stop-color="#1171ed"/></linearGradient><linearGradient id="paint2_linear_524_493" x1="35.275" y1="1.646" x2="6.203" y2="48.267" gradientUnits="userSpaceOnUse"><stop stop-color="#da7ed0"/><stop offset=".05" stop-color="#b77bd4"/><stop offset=".11" stop-color="#9079da"/><stop offset=".18" stop-color="#6e77df"/><stop offset=".25" stop-color="#5175e3"/><stop offset=".33" stop-color="#3973e7"/><stop offset=".42" stop-color="#2772e9"/><stop offset=".54" stop-color="#1a71eb"/><stop offset=".68" stop-color="#1371ec"/><stop offset="1" stop-color="#1171ed"/></linearGradient><clipPath id="clip0_524_493"><path fill="#fff" d="M0 0h46v46H0z"/></clipPath></defs></svg>