<svg width="199" height="46" fill="none" xmlns="http://www.w3.org/2000/svg"><g clip-path="url(#clip0_526_676)"><path fill-rule="evenodd" clip-rule="evenodd" d="M0 8.97 16.503 0l6.867 3.841L29.312.516 46 9.852v16.677l-6.865 3.84v6.65L23.073 46 6.816 37.337v-7.374L0 26.642zm2.461 2.821v5.624l15.21 7.854-.06 2.72-15.15-7.82v5.095l19.25 10.164V22.559zm20.587 8.687 18.766-10.216-5.04-2.818-14.18 7.93-2.398-1.411 14.118-7.897-5.002-2.798-18.795 10.235 12.53 6.977zM8.05 12.128l12.859-6.91-4.406-2.466-12.869 6.92zm21.16 27.685-5.018 2.808V22.885l12.481-6.98v19.737l-5.002 2.799V22.645l-2.46 1.308v15.864zM9.277 31.341 21.71 38.18v4.274L9.277 35.962zm34.262-6.19V12.06l-4.404 2.468v13.09l4.404-2.466z" fill="#000"/></g><path fill-rule="evenodd" clip-rule="evenodd" d="M77.155 8H56.989v6.924h17.336c.595.021 1.16.274 1.573.704a2.313 2.313 0 0 1 0 3.206c-.414.43-.978.683-1.573.704H56.989v6.924h17.336c.59.03 1.145.286 1.551.716a2.314 2.314 0 0 1 0 3.182c-.406.43-.962.686-1.551.716H56.989V38h20.166a9.17 9.17 0 0 0 4.9-1.415 9.2 9.2 0 0 0 3.394-3.818A9.25 9.25 0 0 0 84.334 23a9.26 9.26 0 0 0 1.111-9.765 9.2 9.2 0 0 0-3.392-3.816A9.2 9.2 0 0 0 77.155 8M196.55 8h-10.412v30h10.412zm-32.8 0h-10.413l-12.799 30h10.409l7.603-17.814L166.152 38h10.411L163.762 8zm-44.418 0h-10.411L96.12 38h10.411l7.602-17.814L121.735 38h10.412L119.344 8z" fill="#000"/><defs><clipPath id="clip0_526_676"><path fill="#fff" d="M0 0h46v46H0z"/></clipPath></defs></svg>