<svg width="121" height="46" fill="none" xmlns="http://www.w3.org/2000/svg"><path d="M14.055 3.833H7.922l-3.834 8.305v21.979L0 42.167h9.967l3.887-8.05zm14.057 0h-9.967v38.334h9.967zM32.2 14.822h9.967v27.345H32.2zm9.967-10.989H32.2v7.922h9.967z" fill="url(#paint0_linear_526_675)"/><path fill-rule="evenodd" clip-rule="evenodd" d="M56.978 8v4.068H69.09l-.843 3.729h-7.906v21.864h4.038v-2.034h14.468v2.034h4.374V15.797H72.626l1.008-3.729h12.45V8zm7.402 24.068V27.66h14.468v4.237zm0-12.542v4.406l14.468-.17v-4.236zM97.018 8.17h-4.206v16.102c0 2.88-1.687 7.482-4.038 10.846L92.307 38c2.79-3.867 4.711-10 4.711-13.39zm6.056 1.355h4.037V34.44h-4.036zM117.206 8h-4.038v29.492h4.038z" fill="#000"/><defs><linearGradient id="paint0_linear_526_675" x1="749.049" y1="336.49" x2="3885.69" y2="3803.91" gradientUnits="userSpaceOnUse"><stop stop-color="#fec13e"/><stop offset="1" stop-color="#ff6933"/></linearGradient></defs></svg>