<svg width="244" height="46" fill="none" xmlns="http://www.w3.org/2000/svg"><g clip-path="url(#clip0_531_720)"><path fill-rule="evenodd" clip-rule="evenodd" d="M4.439 9.2h28.14v9.2H14.011a.58.58 0 0 0-.59.575v8.05c0 .328.268.575.59.575h18.568v9.2h-8.981a.58.58 0 0 0-.59.575v8.05c0 .328.27.575.59.575h8.39a.57.57 0 0 0 .591-.575V36.8h8.997a.58.58 0 0 0 .59-.575v-8.05a.58.58 0 0 0-.59-.575h-8.997v-9.2h8.997a.58.58 0 0 0 .59-.575v-8.05a.58.58 0 0 0-.59-.575h-8.997V.575A.58.58 0 0 0 31.99 0H4.439a.594.594 0 0 0-.606.575v8.05c0 .328.268.575.606.575" fill="#000"/></g><path fill-rule="evenodd" clip-rule="evenodd" d="M76.706 16.745a10.6 10.6 0 0 0-3.366-2.268 10.7 10.7 0 0 0-8.796.327 8.2 8.2 0 0 0-3.345 3.114h-.326V5h-3.88v32.355h3.9v-3.48h.324c.403.691.9 1.288 1.474 1.807.592.48 1.241.923 1.93 1.287a9 9 0 0 0 2.257.75 11.8 11.8 0 0 0 6.481-.46 10.25 10.25 0 0 0 3.515-2.369 10.3 10.3 0 0 0 2.26-3.592c.553-1.44.84-3.114.84-4.998v-.903c0-1.845-.305-3.517-.897-4.96-.574-1.44-1.339-2.692-2.352-3.653v-.02zm-11.224 1.27a7.42 7.42 0 0 1 8.298 1.614c.688.674 1.223 1.538 1.587 2.5.383.961.573 2.056.573 3.268v.903c0 1.23-.19 2.366-.573 3.345a7.22 7.22 0 0 1-3.94 4.134 8.12 8.12 0 0 1-5.964-.059 7.38 7.38 0 0 1-3.996-4.23c-.383-.998-.575-2.132-.575-3.362v-.558c0-1.192.192-2.308.575-3.268v-.019a8.5 8.5 0 0 1 1.605-2.614 7.2 7.2 0 0 1 2.409-1.654zM177.335 5h-3.901v9.344h-5.621v3.574h5.622v15.706c0 1.078.325 1.98 1.013 2.693.708.672 1.607 1.038 2.678 1.038h7.991V33.76h-6.689c-.382 0-.63-.096-.823-.288-.19-.193-.267-.52-.267-.943V17.92h8.892v-3.577h-8.895zm33.595 12.323a10.5 10.5 0 0 0-3.441-2.556 10.7 10.7 0 0 0-4.915-1.077 11.76 11.76 0 0 0-8.144 3.268 10.78 10.78 0 0 0-3.29 8.073v1.097c0 1.729.287 3.364.842 4.805a10.7 10.7 0 0 0 4.107 5.263 10.63 10.63 0 0 0 6.409 1.792c2.963 0 5.354-.672 7.112-1.998a10.28 10.28 0 0 0 3.652-5.25l.058-.133-3.71-1-.037.136a8.4 8.4 0 0 1-.88 1.806 5.2 5.2 0 0 1-1.339 1.422c-.536.424-1.204.75-1.988.98-.784.251-1.721.367-2.792.367a7.23 7.23 0 0 1-5.431-2.02 7.85 7.85 0 0 1-2.102-5.19h18.508v-3.076c0-1.038-.209-2.152-.649-3.364a9.7 9.7 0 0 0-1.97-3.345m-15.773 6.172a7.3 7.3 0 0 1 2.333-4.324 8 8 0 0 1 7.629-1.348 7.5 7.5 0 0 1 2.236 1.27c.66.53 1.195 1.2 1.568 1.96.413.753.661 1.585.727 2.442zm43.46-7.286a8.52 8.52 0 0 0-6.443-2.498c-1.778 0-3.308.383-4.589 1.133-1.224.75-2.199 1.865-2.907 3.345h-.324v-3.845h-3.9v23.01h3.9V25.377c0-2.423.612-4.384 1.816-5.805a6.33 6.33 0 0 1 5.067-2.192c1.798 0 3.251.576 4.283 1.73 1.072 1.153 1.588 2.921 1.588 5.267v12.975h3.9V23.649c0-3.288-.803-5.803-2.391-7.439m-78.374 1.115a10.5 10.5 0 0 0-3.404-2.556 10.66 10.66 0 0 0-4.932-1.077 11.77 11.77 0 0 0-8.166 3.268 10.76 10.76 0 0 0-3.268 8.073v1.078c0 1.77.267 3.384.84 4.825a10.76 10.76 0 0 0 4.113 5.255 10.66 10.66 0 0 0 6.403 1.8c2.964 0 5.356-.672 7.114-1.998a10.3 10.3 0 0 0 3.652-5.25l.057-.134-3.711-.999-.055.135a7.8 7.8 0 0 1-.862 1.806 5.2 5.2 0 0 1-1.337 1.422 6.5 6.5 0 0 1-2.008.981c-.764.231-1.72.366-2.772.366a7.23 7.23 0 0 1-5.45-2.019 7.85 7.85 0 0 1-2.084-5.19h18.511v-3.096c0-1.02-.231-2.152-.651-3.345a9.7 9.7 0 0 0-1.99-3.345m-15.755 6.171a7.38 7.38 0 0 1 2.332-4.324 8.01 8.01 0 0 1 7.63-1.348 7.2 7.2 0 0 1 2.217 1.27c.669.518 1.185 1.192 1.586 1.96.383.73.632 1.539.709 2.442zm-11.874 2.325a11.64 11.64 0 0 0-6.176-1.959 12.6 12.6 0 0 1-5.124-1.116c-.898-.576-1.339-1.346-1.339-2.403 0-.519.153-.96.402-1.345.267-.384.63-.731 1.07-1a7.7 7.7 0 0 1 3.404-.808c1.626 0 2.944.405 3.939 1.212 1.013.788 1.586 1.922 1.74 3.326l.019.192 3.728-.904-.019-.134a8.7 8.7 0 0 0-.86-2.615 6.7 6.7 0 0 0-1.797-2.307 8.8 8.8 0 0 0-2.907-1.614 11.5 11.5 0 0 0-4.015-.654c-1.109 0-2.161.135-3.156.423a9.1 9.1 0 0 0-2.733 1.25 6.7 6.7 0 0 0-1.894 2.114 5.6 5.6 0 0 0-.706 2.865v.269c0 2.037.725 3.594 2.18 4.652a11.8 11.8 0 0 0 6.193 1.864c2.258.154 3.902.501 4.895 1.04.958.537 1.435 1.383 1.435 2.613 0 1.155-.479 2.038-1.491 2.692q-1.493.922-4.016.922a7 7 0 0 1-4.703-1.519 6.03 6.03 0 0 1-1.99-4.113v-.174l-3.689.885h-.038v.135a8.5 8.5 0 0 0 1.754 4.786 8.4 8.4 0 0 0 4.174 2.903q2.006.693 4.703.693c1.338 0 2.581-.174 3.689-.519 1.148-.309 2.143-.77 2.927-1.385a6.5 6.5 0 0 0 1.937-2.339c.452-.923.679-1.94.663-2.967v-.269c0-2.056-.747-3.652-2.18-4.69zm-25.622 7.653c-.191-.192-.268-.519-.268-.942V14.344h-3.919v3.554h-.306a7.25 7.25 0 0 0-3.078-3.131A8.8 8.8 0 0 0 95.1 13.69c-1.474 0-2.868.27-4.19.787a10.1 10.1 0 0 0-3.532 2.374 10.1 10.1 0 0 0-2.24 3.625c-.554 1.441-.841 3.133-.841 4.998v.73c0 1.904.286 3.595.84 5.055.574 1.443 1.34 2.693 2.296 3.711a10.47 10.47 0 0 0 7.743 3.018c1.53 0 2.888-.384 4.206-1.114s2.371-1.865 3.117-3.365h.306v.115c0 1.078.344 1.98 1.014 2.693.706.672 1.625 1.038 2.696 1.038h2.6V33.76h-1.302c-.381 0-.649-.095-.821-.287m-8.527.249a7.2 7.2 0 0 1-2.907.578 7 7 0 0 1-5.258-2.096 8.53 8.53 0 0 1-2.007-5.998v-.731c0-1.191.191-2.307.553-3.286a7.03 7.03 0 0 1 3.851-4.242 6.94 6.94 0 0 1 5.71.07 6.5 6.5 0 0 1 2.314 1.653 7.1 7.1 0 0 1 1.53 2.614c.382.96.573 2.076.573 3.268v.577c0 1.21-.191 2.364-.573 3.384a7.9 7.9 0 0 1-1.491 2.556 6.4 6.4 0 0 1-2.295 1.653" fill="#000"/><defs><clipPath id="clip0_531_720"><path fill="#fff" d="M0 0h46v46H0z"/></clipPath></defs></svg>