<svg width="46" height="46" fill="none" xmlns="http://www.w3.org/2000/svg"><g clip-path="url(#clip0_530_717)"><path fill-rule="evenodd" clip-rule="evenodd" d="M4.439 9.2h28.14v9.2H14.011a.58.58 0 0 0-.59.575v8.05c0 .328.268.575.59.575h18.568v9.2h-8.981a.58.58 0 0 0-.59.575v8.05c0 .328.27.575.59.575h8.39a.57.57 0 0 0 .591-.575V36.8h8.997a.58.58 0 0 0 .59-.575v-8.05a.58.58 0 0 0-.59-.575h-8.997v-9.2h8.997a.58.58 0 0 0 .59-.575v-8.05a.58.58 0 0 0-.59-.575h-8.997V.575A.58.58 0 0 0 31.99 0H4.439a.594.594 0 0 0-.606.575v8.05c0 .328.268.575.606.575" fill="#000"/></g><defs><clipPath id="clip0_530_717"><path fill="#fff" d="M0 0h46v46H0z"/></clipPath></defs></svg>