<svg width="375" height="46" fill="none" xmlns="http://www.w3.org/2000/svg"><path d="M25.012 29.733h5.904c.41 0 .745.34.745.755v3.489a3.266 3.266 0 0 1 2.484 3.183c0 1.808-1.447 3.274-3.23 3.274-1.784 0-3.231-1.466-3.231-3.274a3.27 3.27 0 0 1 2.486-3.185v-2.731h-5.156v8.937a.76.76 0 0 1-.36.648l-5.156 3.145a.74.74 0 0 1-.776-.004L9.28 38.055a.76.76 0 0 1-.354-.644v-6.17l-4.717-2.74a.76.76 0 0 1-.376-.604v-9.869c0-.268.14-.517.368-.651l4.725-2.803V8.525c0-.247.118-.477.316-.617l.04-.027 9.444-5.853a.74.74 0 0 1 .78 0l5.155 3.21a.76.76 0 0 1 .355.644v8.685h7.39v-3.675a3.266 3.266 0 0 1-2.483-3.185c0-1.808 1.447-3.274 3.23-3.274 1.784 0 3.229 1.466 3.229 3.274a3.27 3.27 0 0 1-2.484 3.185v4.43a.75.75 0 0 1-.746.755h-8.136v3.461h12.696a3.24 3.24 0 0 1 3.143-2.516c1.783 0 3.23 1.464 3.23 3.272s-1.445 3.273-3.23 3.273a3.24 3.24 0 0 1-3.143-2.518h-12.7v3.712h9.493l1.754 2.262a3.2 3.2 0 0 1 1.61-.435c1.785 0 3.23 1.464 3.23 3.272s-1.445 3.273-3.23 3.273c-1.782 0-3.23-1.466-3.23-3.273 0-.663.196-1.28.53-1.796l-1.388-1.792h-8.769zM19.115 3.557l-3.916 2.427v5.688h-1.491V6.908l-3.291 2.04v5.646L14.46 17.2l4.153-2.614v-4.363h1.491v4.784a.76.76 0 0 1-.352.643l-4.49 2.823v3.988l2.725 1.934-.855 1.239-2.695-1.913-2.933 1.926-.81-1.265 3.076-2.022v-3.814l-4.115-2.657-4.332 2.569v3.212l3.78-2.28.763 1.299-4.543 2.738v3.981l4.152 2.412 4.35-2.622.761 1.297-4.17 2.513v5.984l3.595 2.252 4.533-2.733.763 1.3-3.866 2.33 3.676 2.302 4.405-2.69V28.676l-9.12 5.545-.766-1.294 9.886-6.01V6.304zm11.8 31.844a1.75 1.75 0 0 0-1.74 1.763c0 .972.778 1.76 1.74 1.76a1.75 1.75 0 0 0 1.739-1.762 1.75 1.75 0 0 0-1.739-1.761m6.958-7.303a1.75 1.75 0 0 0-1.74 1.764c0 .973.778 1.763 1.738 1.763a1.75 1.75 0 0 0 1.74-1.763 1.75 1.75 0 0 0-1.738-1.764m2.98-9.564a1.75 1.75 0 0 0-1.74 1.764c0 .971.78 1.759 1.74 1.759a1.75 1.75 0 0 0 1.739-1.761 1.75 1.75 0 0 0-1.739-1.764zM33.15 5.942a1.75 1.75 0 0 0-1.738 1.763 1.75 1.75 0 0 0 1.738 1.763 1.75 1.75 0 0 0 1.74-1.763 1.75 1.75 0 0 0-1.74-1.763" fill="url(#paint0_linear_524_495)"/><path fill-rule="evenodd" clip-rule="evenodd" d="m73.904 26.25-3.706-12.083-3.622 12.083zM57.832 37.335Q57 37.333 57 36.708q0-.208.105-.52l.228-.689 9.243-25.957a2.5 2.5 0 0 1 .354-.645c.115-.146.265-.261.436-.335q.25-.104.709-.104h4.62q.666 0 .979.25t.52.834l9.243 25.957.23.689q.103.313.103.52 0 .627-.832.626h-4.58q-.624 0-.937-.23-.312-.228-.52-.855l-1.707-5.499h-9.95l-1.624 5.5q-.208.625-.521.855-.312.23-.978.229zm29.31 0q-.54 0-.791-.25-.25-.25-.25-.793V17.085q0-.584.25-.813.249-.23.79-.23h2.999q.851 0 1.11.725l.388 1.317q2.206-1.458 3.976-2.062a11.2 11.2 0 0 1 3.645-.605q3.745 0 5.285 2.667 2.123-1.417 3.998-2.04a12.2 12.2 0 0 1 3.87-.627q2.916 0 4.518 1.626 1.603 1.624 1.603 4.542v14.708q.001.541-.229.791-.229.25-.81.251h-3.997q-.543 0-.792-.25-.248-.25-.249-.793V22.917q-.001-2.833-2.54-2.832-2.25 0-4.539 1.083V36.29q0 .541-.228.792-.23.25-.813.25h-3.996q-.54 0-.792-.25-.248-.249-.249-.792V22.915q0-2.833-2.54-2.832-2.33 0-4.579 1.125V36.29q0 .541-.23.792-.228.25-.811.25zm41.549.666q-3.08 0-4.933-1.75t-1.853-4.666q0-2.043 1.063-3.605t2.935-2.375 4.288-.813q1.997 0 4.413.543V23.25q0-1.915-.792-2.625-.79-.707-2.914-.708-2.515 0-5.592.79l-.777.21q-.223.075-.457.084-.709 0-.708-.96v-1.874q0-.667.165-.916.167-.25.75-.5 1.458-.624 3.519-.979a24.7 24.7 0 0 1 4.184-.355q4.287 0 6.265 1.73 1.979 1.73 1.978 5.437v13.71q0 .54-.229.79t-.812.251h-2.832q-.5 0-.77-.21-.27-.208-.395-.708l-.25-.957a10 10 0 0 1-2.977 1.854q-1.686.686-3.269.687m1.707-4.083q1.043 0 2.145-.459a8 8 0 0 0 2.061-1.25v-3.625a21 21 0 0 0-3.289-.291q-3.622 0-3.622 2.916 0 1.292.708 2.001.708.707 1.997.708m13.989 3.417q-.54 0-.79-.25t-.251-.793v-2.125q0-.666.147-1.02.144-.355.521-.813l10.282-11.79h-9.492q-.54 0-.79-.252-.252-.249-.251-.79v-2.417q0-.584.251-.813.248-.23.79-.23h15.155q.583 0 .811.23.23.229.23.813v2.208q-.001.666-.146 1.02-.145.355-.52.813l-10.41 11.709h10.243q.584 0 .812.228.23.23.229.813v2.416q0 .541-.229.793-.229.25-.812.25zm29.062.624q-4.955 0-7.745-2.979t-2.79-8.313q0-5.29 2.79-8.27t7.745-2.98 7.742 2.98q2.79 2.98 2.79 8.27 0 5.333-2.79 8.313-2.789 2.979-7.742 2.979m0-4.665q4.37 0 4.37-6.627 0-6.581-4.37-6.582-4.373 0-4.373 6.582 0 6.627 4.373 6.627m15.279 4.041q-.541 0-.791-.25t-.25-.793V17.085q0-.584.25-.813.25-.23.791-.23h2.998q.957 0 1.166.917l.375 1.376q3.745-2.917 7.993-2.918 2.956 0 4.558 1.605 1.603 1.604 1.604 4.563v14.708q0 .541-.23.791t-.811.251h-3.998q-.54 0-.79-.25t-.251-.793V23.376q0-1.71-.75-2.5-.747-.792-2.288-.791-2.29 0-4.538 1.416v14.792q0 .541-.229.791t-.812.251zm34.722 0q-.54 0-.791-.25-.248-.25-.249-.793V9.5q0-.584.249-.813.25-.229.791-.228h9.326q4.162 0 6.723 2.124 2.56 2.126 2.561 5.542 0 2.124-.978 3.645-.978 1.523-2.894 2.355 2.665.792 4.06 2.605 1.395 1.81 1.395 4.436 0 3.75-2.79 5.958-2.79 2.21-7.495 2.21zm9.784-4.46q4.246 0 4.246-3.999 0-4.125-4.537-4.125h-4.622v8.124zm-1.29-12.375q4.038 0 4.038-3.75 0-3.832-3.705-3.832h-3.956V20.5zm25.064 17.46q-5.287-.001-8.057-2.875-2.768-2.876-2.769-8.418 0-5.334 2.748-8.29 2.746-2.96 7.62-2.96 4.12 0 6.348 2.271 2.228 2.273 2.228 6.48 0 1.29-.209 2.958-.082.626-.333.834-.248.207-.75.207h-12.03q.163 2.75 1.665 3.98 1.498 1.23 4.704 1.23 2.288 0 5.33-.792.222-.075.457-.085.707 0 .708.96v1.916q0 .667-.188.938-.186.27-.728.48-3.164 1.165-6.744 1.166m2.914-13.543v-.708q0-4.083-3.58-4.083-2.041 0-3.229 1.23-1.185 1.228-1.352 3.561zm16.569 13.375q-2.705 0-4.704-1.394-1.998-1.397-3.06-3.876t-1.062-5.73q0-5.166 2.457-8.27 2.456-3.105 6.495-3.105 3.289 0 5.703 1.875v-9.75q0-.584.25-.812.249-.229.791-.229h3.997q.583-.001.811.23.23.228.229.811v28.75q0 .541-.228.793-.229.25-.812.25h-3.33q-.5 0-.77-.21-.271-.208-.397-.708l-.25-.957q-2.58 2.332-6.12 2.332m1.999-4.582q1.998 0 3.83-1.167V21.041q-1.79-1.042-4.122-1.041-2.205 0-3.288 1.645-1.084 1.648-1.083 4.98 0 3.333 1.145 4.958c.765 1.083 1.934 1.626 3.518 1.626m15.737 4.125q-.54 0-.79-.25t-.251-.793V17.085q0-.584.251-.813c.164-.153.43-.23.79-.23h2.999q.955 0 1.165.917l.54 2.25q1.667-1.834 3.144-2.604a6.7 6.7 0 0 1 3.144-.771h.582q.584 0 .833.23.25.227.25.813v3.499q.001.54-.23.792-.228.248-.809.249l-.335-.01-.415-.03a13 13 0 0 0-1.167-.043q-.957 0-2.331.27-1.374.272-2.331.689v14q0 .541-.23.791t-.811.251zm24.231.624q-4.955 0-7.743-2.979-2.79-2.978-2.79-8.313 0-5.29 2.79-8.27t7.743-2.98q4.954 0 7.744 2.98t2.79 8.27q0 5.333-2.79 8.313-2.789 2.979-7.744 2.979m0-4.665q4.371 0 4.371-6.627 0-6.581-4.371-6.582t-4.371 6.582q0 6.627 4.371 6.627m23.607 4.5q-5.08 0-7.765-2.835t-2.686-8.166q.002-5.291 2.831-8.25 2.833-2.959 7.869-2.958 2.498 0 4.706.915.54.21.727.48.188.271.188.938v1.918q0 .959-.708.959l-.207-.021a2 2 0 0 1-.251-.064 13 13 0 0 0-3.33-.457q-2.915 0-4.29 1.479-1.373 1.478-1.373 4.688v.583q0 3.166 1.354 4.646 1.352 1.478 4.184 1.479 1.318.001 2.81-.319l.949-.22a2 2 0 0 1 .32-.045q.666 0 .666.834v2.084q0 .666-.186.937-.189.27-.729.478c-.816.314-1.66.55-2.52.709-.845.143-1.702.214-2.559.21zm10.325-.459q-.541 0-.791-.25t-.25-.793V7.541q0-.584.25-.812.248-.229.791-.229h3.955q.583-.001.811.23.23.228.23.811v17.585l6.911-8.335q.375-.458.686-.604.313-.145.896-.146h4.538q.832 0 .832.626 0 .457-.54 1.041l-7.494 8.5 8.243 9.458q.54.585.541 1 0 .668-.832.668h-4.788q-.584 0-.896-.147-.312-.145-.687-.603l-7.41-8.96v8.668q0 .541-.23.791t-.811.251z" fill="#000"/><defs><linearGradient id="paint0_linear_524_495" x1="3223.99" y1="845.24" x2="696.744" y2="3257.75" gradientUnits="userSpaceOnUse"><stop stop-color="#6350fb"/><stop offset=".5" stop-color="#3d8fff"/><stop offset="1" stop-color="#9ad8f8"/></linearGradient></defs></svg>