<svg width="313" height="46" fill="none" xmlns="http://www.w3.org/2000/svg"><path d="M34.117 19.358a52 52 0 0 0-2.684-3.641s-3.45-4.025-2.875-9.967c0 0-13.225 5.175-13.416 15.717 0 0-1.917-3.067-1.534-8.817 0 0-4.216 4.025-4.791 10.542-4.025 1.341-7.284 4.791-7.284 8.241 0 4.792 5.175 8.817 11.308 8.817-4.6-.767-8.05-3.833-8.05-7.667 0-2.683 1.534-4.791 3.834-6.325q.192 2.11.958 4.6s2.3 7.284 10.35 9.2c2.3.575 4.792.384 7.092-.575 2.492-1.15 5.367-3.45 5.367-8.625 0 0 .191-5.175-2.876-7.858 0 0 4.026 9.583-3.45 12.458q-3.737 1.438-7.474 0c-3.259-1.341-7.284-4.791-6.709-13.8 0 0 1.917 6.517 6.134 9.009 0 0-3.834-11.117 7.474-18.784 0 0 .959 4.025 3.642 6.325.767.767 7.667 6.134 6.325 15.334 1.342-1.725 2.492-5.942 1.342-9.2 0 0-.192-.767-.767-1.725 2.875.575 5.175 2.875 5.367 8.05.192 4.408-3.067 8.05-7.283 9.583 5.75-.767 10.35-5.175 10.35-10.733 0-5.367-4.217-9.775-10.35-10.159" fill="url(#paint0_linear_531_722)"/><path fill-rule="evenodd" clip-rule="evenodd" d="M56.994 8.492h13.253q3.927 0 6.38 1.968 2.21 1.966 2.21 5.655 0 1.475-.982 3.197-.981 1.475-2.7 2.704 2.455.985 3.927 2.952 1.473 1.967 1.472 4.179 0 3.69-2.454 6.148-2.7 2.213-6.871 2.213H56.994zm11.535 12.05q1.472 0 2.456-1.23.979-1.23.98-2.46 0-1.72-.982-2.95-.981-1.23-3.436-1.23H63.62v7.87zm.981 11.803q2.21-.002 3.192-.984 1.226-1.23 1.227-3.197 0-1.72-1.473-2.706-1.228-.982-3.927-.982h-4.663v7.869zm18.654 2.459q-3.436-2.952-3.437-8.608V8.493h6.871v17.705q0 1.722.737 3.196.737 1.23 2.21 1.968 1.47.738 2.945.738 1.47 0 2.944-.738a8.3 8.3 0 0 0 2.209-1.968 7.06 7.06 0 0 0 .736-3.195V8.491h6.626v17.704q0 5.656-3.436 8.607-3.435 3.195-9.08 3.195-5.89 0-9.327-3.195zm40.248-26.31q4.418-.002 6.872 2.212 2.7 2.458 2.699 6.393 0 3.442-1.962 5.655-1.719 1.968-4.909 2.704a64 64 0 0 1 4.418 5.411 82 82 0 0 1 3.435 6.639h-6.135q-1.963-3.934-3.681-6.639-1.719-2.459-4.417-5.164h-2.946V37.51h-6.626V8.49h13.252zm-.491 12.54q1.965-.002 3.191-1.23 1.227-.983 1.227-2.705 0-1.476-1.227-2.706t-3.189-1.23h-6.137v7.87zm21.352-6.149h-.246v22.623h-6.871V8.492H153.2l6.872 22.869h.491V8.492h6.626v29.016h-11.044zm29.942 21.393q-3.682-1.721-5.644-5.163-2.21-3.197-2.21-7.869t1.965-8.115q2.207-3.442 5.644-5.409 3.681-1.721 8.345-1.722 2.208 0 4.662.492 2.455.491 3.926 1.23v4.917q-4.171-1.475-7.852-1.474-4.172 0-6.872 2.458-2.7 2.705-2.7 7.623 0 2.95 1.227 4.917 1.472 2.214 3.682 3.197 1.963 1.23 4.416 1.476h.982q1.964-.001 3.683-.492 1.964-.492 3.434-1.475v5.655q-1.717.737-3.926 1.23-1.963.245-4.417.246-4.664 0-8.345-1.722m27.978-27.786v23.361h11.781v5.655h-18.653V8.492zm20.861 27.786q-3.436-1.722-5.153-4.918-1.718-3.443-1.719-8.116c0-2.948.491-5.9 1.719-8.113q1.717-3.442 5.153-5.409 3.191-1.721 7.854-1.722 4.417 0 7.608 1.722 3.436 1.966 5.155 5.409 1.962 3.443 1.962 8.115t-1.962 8.115a11.84 11.84 0 0 1-4.909 4.917Q240.325 38 235.908 38q-4.663 0-7.854-1.722m2.21-5.901q1.963 2.46 5.644 2.46 3.436 0 5.4-2.46 1.963-2.46 1.963-7.131 0-2.953-.737-5.164-.981-2.213-2.699-3.689-1.718-1.23-3.927-1.23-2.455 0-4.173 1.23-1.471 1.476-2.453 3.69-.983 2.212-.983 5.163 0 4.67 1.965 7.131m27.732 4.425q-3.435-2.948-3.436-8.605V8.492h6.872v17.703q0 1.72.737 3.197.981 1.23 2.208 1.966 1.473.738 2.946.738 1.717 0 2.945-.738c.981-.49 1.717-1.148 2.208-1.965a7.05 7.05 0 0 0 .737-3.198V8.492h6.871v17.703q0 5.656-3.435 8.607-3.437 3.195-9.326 3.195-5.646 0-9.327-3.195m26.997-26.31h11.045q6.624 0 10.307 3.935 3.436 3.689 3.436 10.573c0 4.671-1.228 8.36-3.436 10.82q-3.682 3.689-10.553 3.688h-10.799zm11.045 23.851q1.717 0 3.19-1.23 1.718-.983 2.699-3.194.982-2.215.982-4.92c0-1.965-.491-3.441-.982-4.917q-.982-1.967-2.453-3.196-1.719-1.23-3.436-1.23h-4.173v18.687z" fill="#000"/><defs><linearGradient id="paint0_linear_531_722" x1="23.111" y1="16.518" x2="23.034" y2="34.243" gradientUnits="userSpaceOnUse"><stop stop-color="#f7b52c"/><stop offset="1" stop-color="#e95513"/></linearGradient></defs></svg>