<svg width="132" height="46" fill="none" xmlns="http://www.w3.org/2000/svg"><g clip-path="url(#clip0_530_693)"><path d="M86.62 8.679v23l.028.028h4.235v-8.653c0-2.135-.027-3.97-.136-5.503a56 56 0 0 0-.145-1.685l6.047 9.57h2.162l6.229-9.65a58 58 0 0 0-.163 1.93 102 102 0 0 0-.138 5.31v8.653h4.236v-23h-3.826l-7.29 11.732-7.194-11.73zm26.646 0v23h14.868v-3.943H117.53V8.68zM26.783 6.572a16.27 16.27 0 0 1 10.604 3.914l4.235-5.01A22.77 22.77 0 0 0 26.782 0C14.13 0 3.827 10.323 3.827 23S14.13 46 26.783 46c5.657 0 10.822-2.053 14.84-5.45l-3.758-5.01c-2.87 2.437-7.038 3.888-11.082 3.888-9.047 0-16.397-7.364-16.397-16.428s7.35-16.428 16.397-16.428" fill="#00a87b"/><path d="M72.6 18.126v-3.751h3.416V9.967h4.044v4.408h3.744v3.75h-3.743V31.68h-4.045V18.126zM38.766 30.858c1.394.767 3.007 1.15 4.81 1.15l-.028-.027a9.5 9.5 0 0 0 2.46-.33 12.4 12.4 0 0 0 2.378-.902 8.8 8.8 0 0 0 2.022-1.397l-1.995-2.793c-.765.684-1.504 1.15-2.187 1.424a6.5 6.5 0 0 1-2.24.384c-1.148 0-2.186-.248-3.034-.685a4.8 4.8 0 0 1-1.995-1.916 5.6 5.6 0 0 1-.635-1.89H51.12v-1.424a9.1 9.1 0 0 0-.547-3.395 7.9 7.9 0 0 0-1.668-2.683 8.5 8.5 0 0 0-2.57-1.78 7.6 7.6 0 0 0-3.17-.658c-1.283 0-2.458.22-3.552.686a8.05 8.05 0 0 0-2.787 1.917 8.6 8.6 0 0 0-1.831 2.902 10.2 10.2 0 0 0-.656 3.724c0 1.698.41 3.23 1.174 4.544a8.4 8.4 0 0 0 3.253 3.15m-.364-9.748a4.8 4.8 0 0 1 .39-1.177c.383-.766.93-1.368 1.669-1.778.738-.412 1.639-.63 2.705-.63.683 0 1.339.135 1.913.436.574.274 1.038.686 1.421 1.208.383.49.6 1.092.656 1.778v.163zm16.187-6.736v17.279h4.046v-10.46c0-.519.082-1.013.3-1.45.192-.44.492-.85.848-1.18.356-.354.792-.601 1.283-.793.492-.191 1.012-.274 1.613-.274.71-.027 1.34.111 1.83.384.521.274.875.713 1.122 1.288.245.575.356 1.314.356 2.19v10.295h4.044V21.085c0-1.589-.247-2.902-.683-3.942-.438-1.041-1.121-1.835-1.995-2.356-.901-.52-1.996-.793-3.308-.793-.901 0-1.804.218-2.678.601a7 7 0 0 0-2.267 1.56 6 6 0 0 0-.536.64l-.038-2.418zM22.232 31.186c1.339.822 2.87 1.233 4.564 1.233h.027a10.1 10.1 0 0 0 4.29-.959 9.4 9.4 0 0 0 2.16-1.368l-2.377-2.822c-.082.083-.192.165-.3.248a5.2 5.2 0 0 1-1.586.849c-.55.21-1.134.312-1.722.3a5 5 0 0 1-2.678-.766 5.24 5.24 0 0 1-1.913-2.026 5.9 5.9 0 0 1-.71-2.875c0-1.068.218-2.055.683-2.904a5.1 5.1 0 0 1 1.857-2.026 5 5 0 0 1 2.707-.738c.574 0 1.175.136 1.776.355.573.22 1.147.548 1.668.931.053.027.191.137.191.137l2.432-2.875a8.6 8.6 0 0 0-2.078-1.369c-1.34-.629-2.732-.931-4.427-.931s-3.225.412-4.564 1.232c-1.366.822-2.405 1.945-3.197 3.368-.792 1.424-1.175 3.013-1.175 4.82s.383 3.394 1.175 4.819a9 9 0 0 0 3.197 3.367" fill="#000"/></g><defs><clipPath id="clip0_530_693"><path fill="#fff" d="M0 0h132v46H0z"/></clipPath></defs></svg>