<svg width="46" height="46" fill="none" xmlns="http://www.w3.org/2000/svg"><path fill-rule="evenodd" clip-rule="evenodd" d="M27.065 5.177a17.823 17.823 0 1 0 0 35.646v2.685c-11.327 0-20.508-9.182-20.508-20.51 0-11.327 9.179-20.508 20.506-20.508v2.685zm9.108 7.048a14.093 14.093 0 1 0-18.118 21.59l-1.727 2.06A16.78 16.78 0 1 1 37.9 10.164zm-4.322 1.617a10.363 10.363 0 0 0-9.675 18.33l-1.258 2.376a13.052 13.052 0 0 1 12.186-23.083zm-4.788 2.524a6.634 6.634 0 1 0 0 13.268v2.687a9.321 9.321 0 1 1 0-18.642z" fill="#f15a29"/><path d="M29.53 20.769a4.3 4.3 0 0 0-.977-.784 2.1 2.1 0 0 0-1.043-.291q-.732 0-1.31.268a3.03 3.03 0 0 0-1.61 1.748c-.142.39-.212.797-.212 1.21 0 .417.07.824.211 1.209a3.05 3.05 0 0 0 1.61 1.75c.384.178.824.268 1.311.268q.622-.001 1.154-.259c.36-.172.671-.43.91-.75l1.78 1.927a4.2 4.2 0 0 1-.924.696 6.5 6.5 0 0 1-2.076.728q-.49.076-.844.077a6.4 6.4 0 0 1-2.265-.402 5.4 5.4 0 0 1-1.842-1.145 5.4 5.4 0 0 1-1.234-1.78 5.7 5.7 0 0 1-.457-2.32q.001-1.275.457-2.319a5.4 5.4 0 0 1 1.232-1.78c.533-.5 1.16-.89 1.844-1.143a6.4 6.4 0 0 1 2.265-.402q1.02 0 2.055.39a4.7 4.7 0 0 1 1.81 1.245z" fill="#000"/></svg>