<svg width="201" height="46" fill="none" xmlns="http://www.w3.org/2000/svg"><path fill-rule="evenodd" clip-rule="evenodd" d="M19.008 3.833c9.403 0 19.507 7.565 17.115 20.279-.026.134-.07.268-.109.402l-.006-.53c-.159-5.75-2.94-17.124-17-17.124-6.504 0-15.596 5.853-15.2 15.636-.076 9.158 6.814 16.1 15.238 15.97l.14-.002c2.3-.064 5.296-.823 5.942-3.176.12-.06.498 1.023.513 1.146q.138.735.368.652c1.88-.667 4.382-2.343 3.741-4.562-.337-1.17-3.402-.282-3.681-.665.8-1.877 4.281-1.775 6.043-1.373.849.196 1.26.729 1.94.848.555.1 1.88-.384 1.84.463-2.876 5.831-9.379 10.37-16.883 10.37C7.003 42.167 0 31.767 0 22.496 0 11.398 9.505 3.833 19.008 3.833m-.033 6.325c.928 0 2.156.432 2.645 1.122 7.032.277 8.267 5.148 8.997 10.434q.733 5.284.349 2.658l.159 1.131c.13.859 1.062 1.413 1.882.99q.415-.216.629-.902a.383.383 0 0 1 .494-.249l1.198.422a.384.384 0 0 1 .238.456 4.16 4.16 0 0 1-.978 1.763c-1.683 1.758-5.284 1.273-5.903-1.188-.268-1.062-.106-1.2-.661-2.38-.56-1.19-2.373-1.36-3.24-.566-.66.604-.78 1.543-.778 2.457l.144 4.169a1.725 1.725 0 0 1-1.725 1.725h-2.683a1.725 1.725 0 0 1-1.725-1.725v-1.246a2.203 2.203 0 1 0-4.409 0v1.246a1.725 1.725 0 0 1-1.725 1.725H9.2a1.725 1.725 0 0 1-1.725-1.725l.067-6.208c.023-3.611.682-7.011 4.734-7.924.384-.086.483.25.556.656q.072.443.102.563 2.016 8.793 6.026 7.134l1.265-.634.486-.25q.455-.233.53-.287c.023-.019-.317-.395-.78-.89l-1.94-2.044a17 17 0 0 1-.382-.414q-.135-.098-.398.586c-.142.301-.481.483-.522.625q-.037.166.694 1.38c.314.552.422.974-.594.657-1.993-1.533-2.91-4.356-3.228-7.14-.007-.066-.31-3.666-.31-3.666a2.3 2.3 0 0 1 2.133-2.455zM43.88 26.795c.071 1.336-.772 1.35-2.325 1.133l-3.417-.53c-.508-.1-.738-.189-.6-.281.9-.604 6.264-1.783 6.344-.322zm-1.754-.16-1.774.081c-1.63.148-2.783.46.647.644l.198.006c1.562.023 2.422-.688.93-.73m3.196-6.901h.019c1.514.763.128 1.974-1.246 2.67q-.402.202-2.017.604c-.461.076-.875.176-.638.306l.02.01c3.74 1.836-5.986 2.94-4.783 2.463l.729-.284c1.303-.51 3.093-1.307 3.193-2.562.073-.92 2.401-.848 2.861-1.856q.138-.305-.276-.745c-.095-.09-.18-.18-.205-.284-.14-.585 1.342-.826 2.343-.322m-4.922-.909c-.26 2.297-4.752 8.035-3.736 5.488l.032-.08c.572-1.375.721-4.257 2.563-6.174.48-.498 1.22.067 1.14.767m-15.288-.484c.039-1.33 1.92-1.856 2.58-.666.02-2.441-3.72-1.472-2.58.666" fill="url(#paint0_linear_522_408)"/><path fill-rule="evenodd" clip-rule="evenodd" d="M73.485 32.094q-.817.586-2.094.867c-.8.183-1.616.277-2.436.282a3.2 3.2 0 0 1-.98-.145q-.454-.148-1.024-.69a4.6 4.6 0 0 1-.98-1.43q-.41-.89-.694-2.559-.284-1.666-.285-3.898 0-3.741.435-5.736c.285-1.329.705-2.223 1.251-2.682q.819-.688 2.346-.687.272 0 .683.112l1.185 2.682h3.46l.34-5.183a3 3 0 0 0-.215-.248q-.147-.158-.728-.564a7.6 7.6 0 0 0-1.299-.72q-.717-.315-1.957-.564a13.6 13.6 0 0 0-2.655-.249q-3.074-.001-5.213.925-2.14.923-3.36 2.76c-.81 1.224-1.394 2.645-1.742 4.26q-.522 2.424-.523 5.759 0 3.132.523 5.511.525 2.377 1.72 4.26 1.195 1.881 3.313 2.862 2.117.98 5.1.98 1.412 0 2.643-.236 1.228-.236 1.968-.587.742-.35 1.276-.699.534-.35.764-.574l.204-.247-1.024-3.562zm10.385 5.43v-13.14l.24-.202.272-.225.251-.18q.128-.089.218-.14l.362-.175q.168-.086.353-.113.172-.022.354-.022 1.778 0 1.823 1.875v12.324h7.513V26.099l.009-.261.015-.168v-.405q0-3.968-1.288-5.658-1.288-1.688-4.407-1.689-.886 0-1.81.35a6.7 6.7 0 0 0-1.584.832q-.623.455-1.194.981-.428.396-.69.707l-.391.488V8h-1.48l-7.312 1.127v2.098l1.367.81v25.491h7.38zm24.092-2.004-.227.246q-.316.352-.695.634-.514.39-1.07.72a6.5 6.5 0 0 1-1.47.619 6.2 6.2 0 0 1-1.775.261q-6.15 0-6.15-6.018 0-1.173.434-2.152a5.3 5.3 0 0 1 1.117-1.658 7.4 7.4 0 0 1 1.639-1.206q.955-.53 1.924-.832a18 18 0 0 1 2.039-.508 18 18 0 0 1 3.528-.338v-.405q0-1.376-.739-1.94-.741-.562-2.381-.562-1.412 0-2.937.326-1.526.327-2.391.777L97.35 20.42q1.551-.99 4.032-1.746c1.638-.5 3.342-.755 5.055-.755q2.276 0 3.758.44 1.478.437 2.401 1.488.922 1.047 1.311 2.66.384 1.61.385 4.089v9.174l.638 1.758h-6.24zm-3.734-4.305q0 2.817 1.936 2.817c.193.002.383-.04.558-.122a1.6 1.6 0 0 0 .399-.25l.135-.122v-5.411q-1.388 0-2.208.755t-.82 2.333m21.097 6.446q1.264-.338 1.81-.665c.321-.186.62-.407.888-.664v-3.066a1.8 1.8 0 0 1-.637.315 3 3 0 0 1-.865.112q-1.094 0-1.617-.584-.523-.585-.524-2.39v-8.385h3.803v-3.966h-3.735v-5.25h-4.007l-2.324 5.25-2.684.834v3.132h1.57v7.665q0 4.348 1.218 6.176 1.216 1.823 4.29 1.824c.949.01 1.895-.103 2.814-.338m21.12-.135h4.055l.022-15.506h-10.134v4.596l3.006.677v2.3q0 1.216-.228 1.994-.226.776-.705 1.172a2.7 2.7 0 0 1-1.024.541 5.3 5.3 0 0 1-1.344.146q-1.616 0-2.152-2.367-.535-2.364-.535-7.257 0-2.345.204-3.976.205-1.636.536-2.593.33-.96.91-1.466.582-.508 1.173-.664t1.503-.157q1.116 0 1.617.27l1.297 2.997h4.145l.342-5.183-.124-.136a6 6 0 0 0-1.094-.801 11.2 11.2 0 0 0-2.403-.967 14 14 0 0 0-1.764-.329 17 17 0 0 0-2.175-.135q-2.528 0-4.509.44t-3.37 1.32a9.6 9.6 0 0 0-2.347 2.06 9 9 0 0 0-1.503 2.806 18.3 18.3 0 0 0-.784 3.404 31 31 0 0 0-.24 4.012q0 2.999.559 5.341.558 2.345 1.765 4.17a7.8 7.8 0 0 0 3.268 2.794q2.06.97 4.884.97c2.655 0 4.95-.955 6.876-2.863zm6.354 0h14.324v-6.04h-6.788V11.11h-7.538zm22.93-15.531.137-5.724 4.19 18.617H186l3.483-18.617.273 5.724 1.161 15.53H198l-1.958-26.415h-9.519l-1.777 8.88-.864 4.462-.912-4.485-2.003-8.856h-10.679l-2.12 26.414h6.855z" fill="#000"/><defs><linearGradient id="paint0_linear_522_408" x1="-862.767" y1="1896.39" x2="2963.18" y2="4025.39" gradientUnits="userSpaceOnUse"><stop stop-color="#504af4"/><stop offset="1" stop-color="#3485ff"/></linearGradient></defs></svg>