<svg width="219" height="46" fill="none" xmlns="http://www.w3.org/2000/svg"><path d="m23 0 19.918 11.5v23L23 46 3.082 34.5v-23z" fill="url(#paint0_linear_530_719)"/><path d="m23 7.54 13.388 7.73v15.46L23 38.458 9.612 30.73V15.27z" fill="url(#paint1_linear_530_719)"/><path fill-rule="evenodd" clip-rule="evenodd" d="m23 13.196 8.49 4.903v2.64h-4.573L23 18.476l-3.918 2.261v4.524L23 27.523l3.917-2.261h4.573V27.9L23 32.804 14.509 27.9v-9.802z" fill="#fff"/><path fill-rule="evenodd" clip-rule="evenodd" d="M86.391 8h-26.04L57 11.656v22.842L60.502 38h26.04v-7.92H64.92V16.07h21.472zm84.213 0h-29.696v8.07h10.965v21.777h7.919V16.072h10.659zm-80.559.153v29.694h7.92V8.153zm11.574 0v29.694h11.574l12.639-12.639V8.153h-7.917v12.639l-8.223 9.136V8.154zm27.868 0v29.694h7.92V8.153zm77.97-.001v29.694h7.919V8.153zm-7.158 0h-22.537l-3.503 3.502V37.85h7.919V27.035h13.552v10.812h7.92v-26.19zm-4.416 10.812h-13.554V16.07h13.554zM125.832 30.08v7.767h-7.766" fill="#000"/><defs><linearGradient id="paint0_linear_530_719" x1="23" y1="0" x2="23" y2="46" gradientUnits="userSpaceOnUse"><stop stop-color="#1281f4"/><stop offset="1" stop-color="#0821c6"/></linearGradient><linearGradient id="paint1_linear_530_719" x1="23" y1="7.54" x2="23" y2="38.46" gradientUnits="userSpaceOnUse"><stop stop-color="#09138a"/><stop offset="1" stop-color="#150740"/></linearGradient></defs></svg>