<svg width="46" height="46" fill="none" xmlns="http://www.w3.org/2000/svg"><g clip-path="url(#clip0_534_832)" fill-rule="evenodd" clip-rule="evenodd" fill="#000"><path d="M32.65 7.65c5.271 0 9.545 4.293 9.545 9.588v3.196l2.78 5.55a1.94 1.94 0 0 1-.004 1.742l-2.776 5.49v3.197c0 5.294-4.274 9.587-9.545 9.587H13.558c-5.272 0-9.545-4.293-9.545-9.587v-3.197l-2.836-5.472a1.94 1.94 0 0 1-.006-1.777l2.84-5.533v-3.196c0-5.295 4.275-9.589 9.545-9.589zM15.841 18.4a4.36 4.36 0 0 0-4.358 4.359v7.747a4.358 4.358 0 0 0 8.715 0v-7.747A4.36 4.36 0 0 0 15.84 18.4m14.042 0a4.36 4.36 0 0 0-4.359 4.359v7.747a4.358 4.358 0 0 0 8.717 0v-7.747a4.36 4.36 0 0 0-4.358-4.359"/><path d="M23.104 10.653a5.326 5.326 0 1 0 0-10.653 5.326 5.326 0 0 0 0 10.653"/></g><defs><clipPath id="clip0_534_832"><path fill="#fff" d="M0 0h46v46H0z"/></clipPath></defs></svg>