<svg width="415" height="46" fill="none" xmlns="http://www.w3.org/2000/svg"><path d="M31.612 33.35c.258-.997.153-1.884-.309-2.565-.412-.628-1.135-.994-2.012-.994l-16.605-.21a.28.28 0 0 1-.258-.156c-.052-.104-.052-.21-.052-.313.052-.157.207-.314.362-.314l16.76-.21c2.012-.104 4.126-1.726 4.899-3.713l.979-2.511c.052-.106.052-.211.052-.315-1.081-4.971-5.413-8.632-10.622-8.632-4.798 0-8.87 3.14-10.314 7.48a4.66 4.66 0 0 0-3.456-.94c-2.319.208-4.126 2.092-4.383 4.446-.052.629 0 1.204.103 1.725C2.99 26.235 0 29.375 0 33.195c0 .364.052.68.052 1.044 0 .158.153.263.308.263h30.634c.154 0 .36-.105.413-.314z" fill="#f38020"/><path d="M36.873 22.52h-.464c-.104 0-.207.104-.259.21l-.67 2.3c-.258.996-.154 1.884.31 2.564.412.629 1.134.993 2.012.993l3.556.21c.103 0 .207.053.258.158.052.104.052.209.052.313-.052.157-.207.314-.36.314l-3.661.21c-2.012.104-4.127 1.726-4.901 3.713l-.257.68c-.051.106.05.263.205.263H45.33c.155 0 .31-.105.31-.262.205-.786.36-1.622.36-2.511-.051-5.022-4.126-9.156-9.126-9.156" fill="#fcad32"/><path fill-rule="evenodd" clip-rule="evenodd" d="M94.6 8.593h8.079V30.5h13.989v7.104H94.6zm-17.535 17.96c-1.18 2.566-3.544 4.342-6.697 4.342-4.335 0-7.29-3.552-7.29-7.895 0-4.146 2.954-7.698 7.29-7.698 3.348 0 5.715 1.974 6.895 4.737h8.47C84.357 13.131 78.25 8 70.566 8 61.701 8 55 14.711 55 23s6.502 15 15.566 15c7.683 0 13.593-4.934 15.168-11.644h-8.669zm311.49-17.96h23.249v6.909h-15.171v4.34h13.791v6.316h-13.791v4.54H412v6.907h-23.445zm-37.039 0h13.592c4.335 0 7.487 1.185 9.458 3.157 1.773 1.578 2.562 3.948 2.562 6.711 0 4.341-2.364 7.302-5.91 8.882l6.894 10.064h-9.261l-5.909-8.684h-3.547v8.685h-8.079V8.592zm13.2 13.816c2.757 0 4.333-1.381 4.333-3.357 0-2.369-1.575-3.355-4.335-3.355l-5.319.001v6.907h5.321zM321.174 8.395h7.682l12.216 29.21h-8.67l-2.166-5.131h-11.228l-1.973 5.13h-8.274zm6.896 17.763-3.154-8.29-3.348 8.29zM278.223 8.592h8.079v21.909h13.987v7.104h-22.066zm-34.282 0h23.051v7.105h-14.971v4.737h13.592v6.711h-13.592v10.46h-8.08zm-39.01 0h11.232c10.244 0 16.35 5.92 16.35 14.209s-6.107 14.606-16.548 14.606h-11.034zM216.163 30.5c4.727 0 7.879-2.568 7.879-7.305 0-4.537-3.152-7.302-7.879-7.302h-3.35V30.7h3.35zm-50.437-5.724V8.593h8.074V24.58c0 4.145 2.168 6.118 5.321 6.118 3.151 0 5.32-1.973 5.32-5.92V8.395h8.078v15.988c0 9.275-5.323 13.419-13.595 13.419-8.079.198-13.198-3.945-13.198-13.024m-40.786-1.579C124.942 14.711 131.643 8 140.509 8s15.562 6.711 15.562 15-6.697 15-15.562 15c-9.063 0-15.565-6.513-15.565-14.802zm22.856 0c0-4.344-2.955-7.896-7.485-7.896-4.336 0-7.291 3.552-7.291 7.698s2.955 7.895 7.29 7.895c4.53 0 7.486-3.552 7.486-7.697" fill="#000"/></svg>