<svg width="46" height="46" fill="none" xmlns="http://www.w3.org/2000/svg"><g clip-path="url(#clip0_534_818)"><path d="M25.907 23.203c1.578 0 2.348 1.902 1.263 3.029L16.864 36.587a1.775 1.775 0 0 1-2.524 0L.525 22.64a1.794 1.794 0 0 1 0-2.536L12.13 8.444a2.467 2.467 0 0 1 3.47 0 2.497 2.497 0 0 1 0 3.487l-8.133 8.207a1.794 1.794 0 0 0 0 2.536l6.908 6.939a1.774 1.774 0 0 0 2.524 0l.91-.915a1.74 1.74 0 0 0 .525-1.269v-1.797c0-.248 0-.493.037-.74a1.775 1.775 0 0 1 1.788-1.656h5.748V23.2z" fill="#00e7e7"/><path d="M45.501 24.683 33.867 36.378a2.467 2.467 0 0 1-3.469 0 2.497 2.497 0 0 1 0-3.488l8.165-8.207a1.794 1.794 0 0 0 0-2.536l-6.938-6.938a1.77 1.77 0 0 0-2.525 0l-.91.914a1.82 1.82 0 0 0-.525 1.27v1.797c0 .249 0 .492-.037.74a1.775 1.775 0 0 1-1.788 1.656h-5.748c-1.577 0-2.35-1.902-1.263-3.029l7.816-7.858 1.016-1.06 1.438-1.445a1.773 1.773 0 0 1 2.526 0l13.847 13.915a1.873 1.873 0 0 1 .035 2.572l-.002.002z" fill="#00bfff"/></g><defs><clipPath id="clip0_534_818"><path fill="#fff" d="M0 0h46v46H0z"/></clipPath></defs></svg>