<svg width="206" height="46" fill="none" xmlns="http://www.w3.org/2000/svg"><path d="M27.865 42.91h-9.837a.59.59 0 0 1-.513-.28L.108 4.475a.63.63 0 0 1 .513-.98h9.837c.21 0 .396.093.513.279l17.407 38.132c.28.445-.023 1.004-.513 1.004" fill="url(#paint0_linear_534_844)"/><path d="M45.435 3.517h-9.977a.54.54 0 0 0-.467.257L17.515 42.023a.572.572 0 0 0 .465.887h9.979a.54.54 0 0 0 .467-.256l17.476-38.25a.571.571 0 0 0-.467-.887" fill="url(#paint1_linear_534_844)"/><path d="M41.392 5.62c-1.682-.092-3.551 1.006-6.261 4.276-.63.772-3.013.772-2.71 2.407 1.425 8.085-6.051 25.024-4.393 25.116 1.66.096 5.865-3.105 7.337-4.976 1.471-1.868 2.453-3.411 3.597-5.725 1.146-2.313 2.313-5.654 3.343-9.251 1.027-3.598 1.073-7.15 1.144-9.16.046-.608-.374-2.593-2.057-2.687" fill="#191935"/><path d="M34.523 11.533c-.397-2.174-2.08-6.567-3.224-7.968-1.144-1.403-2.243-2.057-4.042-1.38-.982.374-3.295 1.706-4.978 6.846-.537 1.635-1.424 2.454-2.22 3.552-.793 1.073-2.054 2.57-2.054 4.627 0 2.08.84 3.831 1.986 5.163 1.144 1.332 6.028 5.258 7.055 6.331 1.052 1.075 3.902 3.925 4.65 5.211l.747 1.285s1.403-3.247 1.846-4.3c.444-1.027 1.263-6.495 1.332-9.602.07-3.086-.819-8.201-1.098-9.765" fill="#000"/><path d="M28.658 39.242c-.186.094-.303-.445.328-1.355.633-.91 1.892-2.664 2.898-3.435 1.026-.77 3.575-2.827 4.533-3.038s.958.633.49.981c-.889.679-1.052.516-2.173 1.543-1.121 1.028-2.501 1.566-3.34 2.337-.844.77-2.22 2.687-2.736 2.967" fill="#000"/><path d="M19.5 23.751c-2.92-.841-7.664-1.774-9.462 4.884 0 0-1.284.56-2.243 2.756-1.543 3.529 1.846 12.945 11.868 10.492 4.767-1.17 8.74-3.692 9.907-4.838 1.775-1.729 2.922-1.82 2.922-1.82-.796-2.525-6.498-9.582-12.992-11.474m16.846 8.319c.958-.888 2.196-2.22 2.733-3.155s1.075-2.243 1.17-2.616c.093-.374-.14-1.543.42-1.472.56.069.21.98-.024 1.426-.326.582-.725 1.495-.981 2.125-.257.654-1.193 1.821-1.917 2.664a14 14 0 0 1-1.472 1.424z" fill="#000"/><path d="M36.065 32.373s1.19-.702 2.149-1.379c.958-.678 2.898-2.43 3.366-3.06.49-.633.56-1.216.816-1.074.445.28-.303.934-.607 1.236-.326.305-1.425 1.38-2.266 2.08-.864.702-3.086 2.313-3.458 2.197" fill="#000"/><path d="M33.074 32.934c.025.094.096.163.096.046.209-2.032 1.025-4.439 1.05-10.373.023-6.287 0-9.16-4.58-10.327-.303-.07-.583 0-.537.303.117.701 1.705 4.16 2.499 8.692.958 5.583 1.284 10.724 1.472 11.66" fill="url(#paint2_linear_534_844)"/><path d="M13.238 30.13c-1.566.445 2.197 1.215 5.794 1.917 2.453.49 10.187 1.68 12.803 1.82.048 0 .071-.069.023-.091-2.616-1.706-8.41-5.423-10.07-5.423-2.99-.023-7.383 1.45-8.55 1.777" fill="url(#paint3_linear_534_844)"/><path d="M22.21 18.003s1.238 2.593 3.178 4.207c1.68 1.378 3.155 2.266 3.691 2.92 1.846 2.173 2.569 5.981 3.481 7.781.14.257-6.704-6.519-10.187-12.315-.793-1.33-.374-2.943-.163-2.593" fill="url(#paint4_linear_534_844)"/><path d="M26.603 6.626c.725-.142 2.64.958 2.64 1.518 0 .257-2.757-.257-3.224-.49-.633-.327.115-.936.584-1.028" fill="url(#paint5_linear_534_844)"/><path d="M25.34 8.635c.351-.305 1.823.023 2.105.28.28.304-1.45.49-2.01.561-.491.046-.444-.535-.095-.841" fill="url(#paint6_linear_534_844)"/><path d="M28.73 4.102c1.074.094 3.223 3.246 2.757 3.622-.257.186-3.6-1.87-4.09-2.453-.422-.516.515-1.24 1.334-1.17" fill="url(#paint7_linear_534_844)"/><path d="M39.406 8.985c.537.07 1.612 1.261 1.495 1.683-.046.186-1.868-.818-2.148-1.098-.374-.399.305-.633.653-.585" fill="url(#paint8_linear_534_844)"/><path d="M38.051 10.224c.257-.163 1.31.421 1.332.701.023.234-1.029-.025-1.449-.096-.35-.046-.162-.42.115-.606z" fill="url(#paint9_linear_534_844)"/><path d="M41.182 7.7c.747.304 1.38 2.407 1.146 2.617-.257.232-2.127-1.565-2.338-2.08-.186-.444.632-.749 1.192-.538" fill="url(#paint10_linear_534_844)"/><path d="M30.808 25.434c-.233-1.169-.607-6.005-1.82-8.903-.89-2.102-3.297-6.005-3.788-4.673-.724 1.963-2.36 3.786-1.798 5.233.56 1.45 2.454 3.436 3.878 4.675 1.38 1.215 3.553 3.785 3.528 3.668" fill="url(#paint11_linear_534_844)"/><path d="M17.748 33.074c-1.846-.257-4.673-.841-6.427-1.192-1.098-.211.188 2.827 1.683 3.622 1.285.677 7.08.303 10.912-.07 3.178-.326 8.037-1.17 6.379-1.19-4.2-.172-8.388-.562-12.547-1.17" fill="url(#paint12_linear_534_844)"/><path d="M30.714 35.014c.094-.048.21-.234.14-.188-1.424.468-6.681 1.916-12.43 2.547-4.393.468-5.328.094-5.84.326-.607.259 1.074 2.55 4.836 2.338 4.3-.257 10.84-3.434 13.294-5.023" fill="url(#paint13_linear_534_844)"/><path d="M13.636 27.957c-.28 0-.28-.817.632-1.216 0 0 1.027-1.307 3.082-.91 1.426.28 3.692 1.566 3.389 1.495-1.074-.257-5.748.63-7.103.63" fill="url(#paint14_linear_534_844)"/><path d="M34.454 32.022c0-.092.91-1.518 2.103-7.85.747-3.924.56-7.384.442-8.06-.069-.491 1.612.49 1.637 2.336.023 1.332-.282 6.658-2.687 11.448-.981 1.986-1.495 2.24-1.495 2.126" fill="url(#paint15_linear_534_844)"/><path d="M37.934 27.092c-.023.048-.116.025-.093-.023.49-1.073 1.822-5.654 2.102-9.135.117-1.355.117-2.453.282-2.804.163-.421 1.19-1.59 1.424-1.729.49-.28.257 2.594-.842 6.168-.653 2.22-2.008 6.005-2.873 7.523" fill="url(#paint16_linear_534_844)"/><path fill-rule="evenodd" clip-rule="evenodd" d="M138.428 10.775c-.623-.623-.903-1.436-.903-2.403 0-.999.311-1.81.903-2.436.622-.624 1.37-.936 2.333-.936.966 0 1.713.312 2.335.936.592.625.903 1.437.903 2.436 0 .938-.311 1.749-.903 2.373-.622.656-1.369.968-2.334.968-.964 0-1.712-.312-2.334-.936zm-.653 22.482a.4.4 0 0 1-.126-.312V13.961a.47.47 0 0 1 .126-.344.4.4 0 0 1 .311-.124h5.29c.125 0 .218.03.312.124.093.093.124.188.124.344v18.984c0 .124-.031.249-.124.312a.4.4 0 0 1-.312.125h-5.29a.4.4 0 0 1-.311-.125m-81.54-4.153c.808 1.468 1.992 2.592 3.484 3.404 1.495.78 3.239 1.185 5.23 1.185q2.988 0 5.229-1.124a8.46 8.46 0 0 0 3.485-3.215c.84-1.374 1.246-2.997 1.246-4.809 0-.125-.032-.218-.125-.28a.4.4 0 0 0-.312-.125l-5.29-.282c-.28 0-.436.157-.436.438 0 1.185-.374 2.123-1.057 2.841-.718.718-1.62 1.062-2.771 1.062s-2.086-.345-2.769-1.062c-.718-.718-1.059-1.654-1.059-2.841v-8.742c0-1.187.374-2.124 1.059-2.873.715-.72 1.618-1.093 2.769-1.093s2.054.344 2.77 1.062c.715.718 1.058 1.655 1.058 2.873 0 .28.125.436.436.436l5.29-.343c.126 0 .218-.062.313-.125a.4.4 0 0 0 .124-.312c0-1.78-.404-3.372-1.246-4.746-.809-1.374-1.991-2.436-3.485-3.184q-2.242-1.125-5.229-1.125c-1.991 0-3.734.375-5.228 1.186-1.495.813-2.646 1.905-3.485 3.372-.842 1.468-1.246 3.123-1.246 5.028v8.305c0 1.936.404 3.622 1.246 5.089m20.386-2.247c.497 2.09 1.555 3.777 3.11 4.995 1.556 1.217 3.455 1.842 5.759 1.875 2.24 0 4.171-.657 5.726-1.905 1.555-1.25 2.584-2.967 3.113-5.121.28-1.094.404-2.218.404-3.405 0-1.31-.187-2.528-.53-3.683-.622-2-1.649-3.591-3.174-4.716-1.493-1.155-3.36-1.716-5.54-1.716-2.21 0-4.077.593-5.633 1.716-1.555 1.125-2.613 2.716-3.174 4.746-.343 1.093-.498 2.342-.498 3.747 0 1.25.126 2.404.437 3.465zm11.608-1.281c-.219.811-.56 1.468-1.027 1.935a2.42 2.42 0 0 1-1.775.72 2.54 2.54 0 0 1-1.805-.72c-.498-.467-.84-1.122-1.027-1.935a9.5 9.5 0 0 1-.218-2.186c0-.843.063-1.591.218-2.217.467-1.654 1.401-2.497 2.832-2.497q1.076 0 1.775.655c.466.438.808 1.03.995 1.842.156.687.249 1.437.249 2.217s-.062 1.53-.217 2.186m19.824-11.958a.4.4 0 0 1 .311-.125h5.291c.124 0 .217.03.311.124.093.093.124.188.124.344v17.205c0 3.527-.964 6.025-2.956 7.554-1.961 1.5-4.451 2.28-7.438 2.28-1.121 0-2.302-.094-3.548-.312-.25-.032-.374-.187-.374-.5l.187-4.777c0-.187.063-.312.156-.375.094-.062.218-.062.374-.03 1.027.218 1.96.342 2.831.342 1.401 0 2.521-.343 3.361-.999s1.246-1.716 1.246-3.153l-.25.28c-.901.938-2.178 1.374-3.857 1.374-1.651 0-3.145-.375-4.514-1.125-1.37-.748-2.334-2.059-2.956-3.933-.405-1.218-.592-2.748-.592-4.558 0-1.967.248-3.591.716-4.839.56-1.593 1.494-2.872 2.738-3.81a7.1 7.1 0 0 1 4.358-1.436c1.773 0 3.174.562 4.139 1.687.062.061.094.061.155.061.063-.03.063-.062.063-.124v-.843c0-.125.03-.22.124-.312m-.124 9.616c0-.687-.032-1.25-.063-1.623a4.3 4.3 0 0 0-.311-1.125 2.43 2.43 0 0 0-.964-1.311q-.655-.468-1.588-.468c-1.181 0-1.992.592-2.49 1.81-.373.719-.56 1.655-.56 2.842 0 1.249.155 2.185.498 2.779.218.531.56.967.995 1.311.437.345.966.5 1.588.5q1.914 0 2.521-1.78c.25-.655.374-1.624.374-2.935m6.535-16.268 7.501 26.04q.139.376.467.376h5.663c.25 0 .435-.125.498-.375l7.688-26.04a.38.38 0 0 0-.031-.375.45.45 0 0 0-.344-.155h-5.569c-.281 0-.468.124-.53.375l-4.201 17.516c-.031.093-.063.124-.124.124-.063 0-.094-.063-.126-.125l-4.294-17.516c-.094-.25-.249-.375-.529-.375h-5.697c-.279 0-.403.125-.403.375zm69.061 18.235c.309 0 .465-.157.496-.468.063-1.28.03-2.28-.155-2.998a11.7 11.7 0 0 0-1.587-4.402 8.94 8.94 0 0 0-3.144-3.06c-1.275-.718-2.739-1.092-4.388-1.092-2.023 0-3.798.53-5.26 1.623q-2.194 1.64-3.174 4.495a12.1 12.1 0 0 0-.591 3.84c0 1.937.248 3.53.778 4.81.716 1.81 1.836 3.247 3.424 4.246 1.586 1.03 3.485 1.53 5.756 1.53 1.525 0 2.926-.28 4.201-.78a8.3 8.3 0 0 0 3.207-2.217c.093-.095.156-.219.156-.312a.38.38 0 0 0-.156-.314l-2.863-3.401c-.094-.095-.187-.157-.312-.157a.43.43 0 0 0-.343.186c-.87 1.063-2.115 1.593-3.672 1.593-.872 0-1.618-.155-2.21-.499a3.6 3.6 0 0 1-1.338-1.311 5.2 5.2 0 0 1-.374-1.125c-.029-.03-.03-.093.032-.125l.045-.024a.2.2 0 0 1 .112-.038zm-11.453-3.87q.054-.417.185-.814c.404-1.247 1.244-1.873 2.553-1.904.716 0 1.275.157 1.742.5s.81.81.965 1.468c.093.311.156.56.156.78 0 .094-.063.155-.156.155h-5.292c-.156 0-.219-.061-.156-.187zm16.492 10.519c-1.555-1.218-2.614-2.904-3.112-4.995-.312-1.062-.436-2.217-.436-3.465 0-1.407.155-2.655.497-3.748.561-2.03 1.62-3.622 3.175-4.746 1.556-1.124 3.424-1.716 5.633-1.716 2.179 0 4.046.56 5.54 1.716 1.525 1.124 2.552 2.716 3.174 4.715.342 1.156.529 2.372.529 3.685 0 1.185-.124 2.31-.405 3.403-.528 2.154-1.555 3.87-3.111 5.12-1.555 1.249-3.485 1.905-5.727 1.905-2.302-.03-4.203-.656-5.757-1.874m7.501-4.34c.466-.468.807-1.125 1.027-1.934.155-.657.217-1.406.217-2.187s-.093-1.53-.249-2.217c-.218-.81-.529-1.405-.995-1.843q-.701-.654-1.775-.655c-1.431 0-2.397.843-2.832 2.498-.155.625-.218 1.374-.218 2.217 0 .811.063 1.53.218 2.185.187.811.529 1.468 1.027 1.935a2.53 2.53 0 0 0 1.805.72c.685 0 1.277-.25 1.775-.72zm-32.4-21.042c.126 0 .22.032.314.126a.4.4 0 0 1 .123.312v26.04a.4.4 0 0 1-.124.312.4.4 0 0 1-.311.125h-5.291a.4.4 0 0 1-.311-.125c-.093-.063-.125-.187-.125-.312v-1.281c0-.062 0-.093-.062-.125-.062 0-.093 0-.156.063-.996 1.405-2.426 2.123-4.294 2.123a6.9 6.9 0 0 1-4.482-1.593c-1.307-1.06-2.21-2.497-2.769-4.308-.404-1.374-.592-2.873-.592-4.466 0-1.779.249-3.403.777-4.838a8.24 8.24 0 0 1 2.739-3.84c1.277-.97 2.802-1.469 4.575-1.469 1.775 0 3.113.594 4.046 1.812.063.062.126.093.156.062a.24.24 0 0 0 .062-.157V6.935c0-.156.03-.249.125-.342a.4.4 0 0 1 .311-.126zm-9.832 20.92 3.985-2.374c1.275-.78 1.275-2.715 0-3.528l-3.985-2.373c-1.275-.75-2.893.219-2.893 1.749v4.778c0 1.56 1.618 2.529 2.893 1.747z" fill="#000"/><defs><linearGradient id="paint0_linear_534_844" x1="4.165" y1="6.323" x2="22.088" y2="36.359" gradientUnits="userSpaceOnUse"><stop stop-color="#19d46a"/><stop offset="1" stop-color="#0d00b5"/></linearGradient><linearGradient id="paint1_linear_534_844" x1="24.52" y1="39.368" x2="37.053" y2="11.191" gradientUnits="userSpaceOnUse"><stop stop-color="#d70066"/><stop offset="1" stop-color="#0d00b5"/></linearGradient><linearGradient id="paint2_linear_534_844" x1="31.224" y1="12.456" x2="34.105" y2="33.064" gradientUnits="userSpaceOnUse"><stop stop-color="#8890f4"/><stop offset=".283" stop-color="#ffcffd"/><stop offset=".606" stop-color="#f4f0fe"/><stop offset=".734" stop-color="#efffff"/><stop offset="1" stop-color="#75d9dd"/></linearGradient><linearGradient id="paint3_linear_534_844" x1="11.77" y1="27.92" x2="33.016" y2="33.754" gradientUnits="userSpaceOnUse"><stop offset=".005" stop-color="#6f69f4"/><stop offset=".415" stop-color="#ffcead"/><stop offset=".596" stop-color="#efefb9"/><stop offset=".673" stop-color="#e7ffbf"/><stop offset="1" stop-color="#75d9dd"/></linearGradient><linearGradient id="paint4_linear_534_844" x1="20.675" y1="17.202" x2="35.428" y2="34.843" gradientUnits="userSpaceOnUse"><stop offset=".005" stop-color="#6f69f4"/><stop offset=".382" stop-color="#ffafff"/><stop offset=".513" stop-color="#f5d1e4"/><stop offset=".673" stop-color="#e7ffbf"/><stop offset=".972" stop-color="#75d9dd"/></linearGradient><linearGradient id="paint5_linear_534_844" x1="28.754" y1="9.234" x2="27.452" y2="7.653" gradientUnits="userSpaceOnUse"><stop stop-color="#ffa2ff"/><stop offset=".557" stop-color="#ffffb0"/><stop offset=".713" stop-color="#ddffca"/><stop offset="1" stop-color="#97ffff"/></linearGradient><linearGradient id="paint6_linear_534_844" x1="26.954" y1="10.02" x2="25.789" y2="8.516" gradientUnits="userSpaceOnUse"><stop stop-color="#ffa2ff"/><stop offset=".557" stop-color="#ffffb0"/><stop offset=".713" stop-color="#ddffca"/><stop offset="1" stop-color="#97ffff"/></linearGradient><linearGradient id="paint7_linear_534_844" x1="31.23" y1="8.884" x2="29.423" y2="6.118" gradientUnits="userSpaceOnUse"><stop stop-color="#ffa2ff"/><stop offset=".557" stop-color="#ffffb0"/><stop offset=".713" stop-color="#ddffca"/><stop offset="1" stop-color="#97ffff"/></linearGradient><linearGradient id="paint8_linear_534_844" x1="40.282" y1="11.326" x2="39.755" y2="9.915" gradientUnits="userSpaceOnUse"><stop stop-color="#ffa2ff"/><stop offset=".557" stop-color="#ffffb0"/><stop offset=".713" stop-color="#ddffca"/><stop offset="1" stop-color="#97ffff"/></linearGradient><linearGradient id="paint9_linear_534_844" x1="38.872" y1="11.561" x2="38.337" y2="10.246" gradientUnits="userSpaceOnUse"><stop stop-color="#ffa2ff"/><stop offset=".557" stop-color="#ffffb0"/><stop offset=".713" stop-color="#ddffca"/><stop offset="1" stop-color="#97ffff"/></linearGradient><linearGradient id="paint10_linear_534_844" x1="41.769" y1="11.05" x2="41.176" y2="9.039" gradientUnits="userSpaceOnUse"><stop stop-color="#ffa2ff"/><stop offset=".557" stop-color="#ffffb0"/><stop offset=".713" stop-color="#ddffca"/><stop offset="1" stop-color="#97ffff"/></linearGradient><linearGradient id="paint11_linear_534_844" x1="31.692" y1="22.826" x2="23.726" y2="13.545" gradientUnits="userSpaceOnUse"><stop offset=".005" stop-color="#6f69f4"/><stop offset=".329" stop-color="#ffd9ad"/><stop offset=".635" stop-color="#eafabd"/><stop offset=".673" stop-color="#e7ffbf"/><stop offset="1" stop-color="#75d9dd"/></linearGradient><linearGradient id="paint12_linear_534_844" x1="31.123" y1="34.74" x2="11.001" y2="33.741" gradientUnits="userSpaceOnUse"><stop offset=".005" stop-color="#6f69f4"/><stop offset=".33" stop-color="#ffecec"/><stop offset=".591" stop-color="#edfacb"/><stop offset=".673" stop-color="#e7ffbf"/><stop offset=".972" stop-color="#75d9dd"/></linearGradient><linearGradient id="paint13_linear_534_844" x1="12.448" y1="38.031" x2="30.992" y2="37.051" gradientUnits="userSpaceOnUse"><stop offset=".005" stop-color="#6f69f4"/><stop offset=".33" stop-color="#ffecec"/><stop offset=".591" stop-color="#edfacb"/><stop offset=".673" stop-color="#e7ffbf"/><stop offset=".972" stop-color="#75d9dd"/></linearGradient><linearGradient id="paint14_linear_534_844" x1="28.287" y1="30.136" x2="12.792" y2="26.187" gradientUnits="userSpaceOnUse"><stop offset=".005" stop-color="#6f69f4"/><stop offset=".601" stop-color="#ffcead"/><stop offset=".707" stop-color="#efefb9"/><stop offset=".752" stop-color="#e7ffbf"/><stop offset=".976" stop-color="#75d9dd"/></linearGradient><linearGradient id="paint15_linear_534_844" x1="38.316" y1="15.916" x2="34.759" y2="33.915" gradientUnits="userSpaceOnUse"><stop stop-color="#8890f4"/><stop offset=".425" stop-color="#ffb8fd"/><stop offset=".549" stop-color="#f4d9fe"/><stop offset=".673" stop-color="#e7ffff"/><stop offset="1" stop-color="#75d9dd"/></linearGradient><linearGradient id="paint16_linear_534_844" x1="37.988" y1="26.757" x2="41.386" y2="14.224" gradientUnits="userSpaceOnUse"><stop offset=".005" stop-color="#6f69f4"/><stop offset=".329" stop-color="#ffcead"/><stop offset=".571" stop-color="#efefb9"/><stop offset=".673" stop-color="#e7ffbf"/><stop offset="1" stop-color="#75d9dd"/></linearGradient></defs></svg>