<svg width="193" height="46" fill="none" xmlns="http://www.w3.org/2000/svg"><path d="m29.27 31.73 10.963 9.348s-6.28 5.99-13.844-5.493z" fill="url(#paint0_linear_534_839)"/><path d="m29.516 31.67 8.81 11.398s-7.38 4.58-12.415-8.229l3.607-3.17z" fill="url(#paint1_radial_534_839)"/><path d="M26.513 40.332h-7.13a.84.84 0 0 1-.786-.517L3.879 5.635c-.167-.372.124-.807.537-.807h7.218c.352 0 .663.207.785.518l14.634 34.176c.146.393-.124.809-.538.809z" fill="url(#paint2_linear_534_839)"/><path d="M14.637 6.798c-4 1.078-5.472 4.725-5.472 4.725s2.55-.891 6.095-1.679a58 58 0 0 1 4.89-.807c-.083-1.183-2.446-3.067-5.513-2.239" fill="url(#paint3_linear_534_839)"/><path d="M12.773 9.68c-3.151 2.713-3.067 6.63-3.067 6.63s1.802-1.74 4.518-4.145c1.823-1.616 3.895-3.067 3.895-3.067-.643-.994-2.816-1.596-5.346.581" fill="url(#paint4_linear_534_839)"/><path d="M12.089 13.762c-2.613 3.19-2.013 6.488-2.013 6.488s1.535-1.472 3.835-4.25a60 60 0 0 1 3.38-3.626c-.788-.874-3.13-1.12-5.203 1.388" fill="url(#paint5_linear_534_839)"/><path d="M28.668 7.937s-.786-2.05-2.404-2.942c-1.575-.87-5.803-1.058-8.787 1.18-3.958 2.945-5.306 7.752-5.597 8.894-2.86 11.107 2.986 17.365 9.472 20.393L28.668 7.94z" fill="url(#paint6_linear_534_839)"/><path d="M9.414 21.555A14.19 14.19 0 0 0 23.901 35.44l-.6-28.393c-7.836.185-14.053 6.672-13.887 14.507" fill="url(#paint7_linear_534_839)"/><path d="M12.067 24.188c.85 7.728 7.834 13.304 15.564 12.455L24.524 8.62a14.12 14.12 0 0 0-12.457 15.567" fill="url(#paint8_radial_534_839)"/><path d="M17.85 7.255a5.955 5.955 0 0 0-.186 8.04 5.99 5.99 0 0 0 8 .933z" fill="url(#paint9_radial_534_839)"/><path d="M22.597 15.48a5.574 5.574 0 0 0 5.245-7.731 5.576 5.576 0 1 0-5.245 7.732" fill="url(#paint10_radial_534_839)"/><path d="M16.73 26.115c1.948 6.196 8.56 9.658 14.757 7.708l-7.048-22.465a11.763 11.763 0 0 0-7.709 14.757" fill="url(#paint11_linear_534_839)"/><path d="M18.327 23.151a10.17 10.17 0 0 0 11.958 7.999l-3.98-19.957c-5.492 1.08-9.076 6.444-7.978 11.958" fill="url(#paint12_linear_534_839)"/><path d="M21.227 5.409s-1.242 2.156-.557 4.561c.849 2.983 4.019 3.418 5.366 3.086l1.928-4.04-3.379-4.52z" fill="url(#paint13_radial_534_839)"/><path d="M24.73 11.13s-1.035.31-1.7 1.553c-.56 1.037-.393 2.466-.393 2.466l4.208-3.231z" fill="url(#paint14_linear_534_839)"/><path d="M29.373 19.11s-3.565-.043-4.456-3.359c-.6-2.258.477-3.814.477-3.814l2.322-.682z" fill="url(#paint15_linear_534_839)"/><path d="M13.455 1.45s.767 3.545 4.623 4.975C21 7.502 25.89 4.56 25.89 4.56s-2.568-1.058-6.382-1.058c-2.86 0-6.053-2.051-6.053-2.051" fill="url(#paint16_radial_534_839)"/><path d="M32.4 8.953s.456-2.383-1.058-4.6c-1.16-1.7-4.064-3.607-9.45-2.425C17.353 2.923 16.67 0 16.67 0c-.146.748.35 5.597 5.077 4.891 5.802-.87 5.305 4.81 7.356 5.762 1.7.747 3.297-1.7 3.297-1.7" fill="url(#paint17_linear_534_839)"/><path d="M26.368 12.29a2.86 2.86 0 1 0 0-5.72 2.86 2.86 0 0 0 0 5.72" fill="url(#paint18_radial_534_839)"/><path d="M19.28 40.332h7.337a.84.84 0 0 0 .785-.517L42.12 5.635c.167-.372-.124-.807-.536-.807h-7.422a.84.84 0 0 0-.787.518L18.74 39.522c-.146.393.125.81.539.81" fill="url(#paint19_linear_534_839)"/><path d="M19.28 40.332h7.337a.84.84 0 0 0 .785-.517l11.692-27.11c.165-.373-.125-.808-.54-.808h-7.418a.84.84 0 0 0-.79.517l-11.605 27.11c-.146.392.125.808.539.808" fill="url(#paint20_radial_534_839)"/><path d="M30.803 9.369s.103-3.44-3.462-5.244c-4.973-2.51-9.533 3.44-14.756 0 0 0 1.058 5.305 11.71 3.296 2.632-.498 3.794.33 4.373 1.284.498.807.456 1.513.456 1.927z" fill="url(#paint21_radial_534_839)"/><path d="M30.036 10.01s.268-1.864-1.284-3.005c-1.679-1.222-3.028-.973-3.028-.973s.954-.581 2.323-.581c.726 0 .973-.104.973-.104s.104-.331-.352-.85c3.896 1.72 2.88 4.663 2.88 4.663z" fill="url(#paint22_linear_534_839)"/><path d="M31.341 13.14s-1.533 1.43-3.73.683c-.145-.04-.124-.91 0-1.47.125-.644.56-1.348.913-1.783 2.382.207 2.817 2.57 2.817 2.57" fill="url(#paint23_linear_534_839)"/><path d="M32.4 8.809s1.18 1.844.828 3.937c-.415 2.424-2.715 3.565-2.715 3.565s1.099-4.228-2.012-5.74c0 0 .644-.706 1.577-1.141 1.367-.621 2.322-.621 2.322-.621" fill="url(#paint24_linear_534_839)"/><path d="M25.913 10.55a1.389 1.389 0 1 0 0-2.778 1.389 1.389 0 0 0 0 2.777" fill="url(#paint25_radial_534_839)"/><path d="M25.601 9.907c.493 0 .892-.427.892-.954 0-.525-.4-.953-.892-.953s-.891.428-.891.953c0 .527.399.954.891.954" fill="url(#paint26_radial_534_839)"/><path d="M26.222 8.477a.208.208 0 1 0 0-.416.208.208 0 0 0 0 .416" fill="#fff"/><path fill-rule="evenodd" clip-rule="evenodd" d="M137.827 10.76q-.913-.955-.913-2.409c0-.998.304-1.8.915-2.438Q138.742 5 140.154 5t2.326.915c.609.607.915 1.41.915 2.436 0 .942-.306 1.744-.915 2.382-.609.636-1.384.969-2.325.969-.943 0-1.718-.333-2.328-.942m-81.58 18.36a8.7 8.7 0 0 0 3.489 3.378c1.495.776 3.24 1.191 5.235 1.275 1.992 0 3.737-.389 5.231-1.136a8.33 8.33 0 0 0 3.49-3.213q1.245-2.076 1.246-4.817c0-.111-.056-.195-.138-.278a.42.42 0 0 0-.304-.111l-5.29-.276c-.304 0-.444.138-.444.416 0 1.189-.36 2.131-1.051 2.851q-1.038 1.08-2.742 1.08t-2.742-1.08c-.691-.72-1.051-1.66-1.051-2.851v-8.753c0-1.191.36-2.16 1.051-2.88.693-.748 1.607-1.108 2.742-1.108q1.703 0 2.742 1.08c.692.72 1.052 1.662 1.052 2.88 0 .277.139.415.444.415l5.289-.36a.42.42 0 0 0 .304-.111.4.4 0 0 0 .138-.305c0-1.8-.416-3.377-1.245-4.762a8.45 8.45 0 0 0-3.49-3.185c-1.523-.747-3.24-1.133-5.234-1.133-1.995 0-3.738.386-5.235 1.19a8.7 8.7 0 0 0-3.488 3.379c-.83 1.44-1.246 3.101-1.246 5.012v8.308c0 1.938.416 3.628 1.245 5.095zm65.52 3.878-7.505-26.033-.029-.167c0-.248.14-.386.416-.386h5.677c.276 0 .443.138.526.386l4.265 17.53c.027.084.056.11.112.11.054 0 .082-.028.109-.11L129.547 6.8c.084-.249.25-.387.526-.387h5.567a.39.39 0 0 1 .331.165c.084.111.085.222.029.388l-7.615 26.032c-.083.248-.249.387-.471.387h-5.65c-.249 0-.415-.139-.497-.387m45.415 0-5.4-19.025-.029-.167c0-.248.14-.388.416-.388h5.456c.277 0 .444.14.471.416l2.215 10.44c.027.11.055.166.111.166.055 0 .083-.056.111-.165l2.409-10.47c.082-.248.221-.387.471-.387h4.762c.276 0 .443.14.526.389l2.52 10.522c.03.084.057.111.112.111.056 0 .082-.029.109-.111l2.494-10.522c.082-.25.248-.389.524-.389l5.431.084c.136 0 .247.055.302.138.056.082.085.222.056.36l-5.454 18.998c-.083.248-.249.387-.471.387h-5.454c-.277 0-.444-.139-.527-.387l-2.464-8.973c-.029-.083-.055-.111-.111-.111-.055 0-.084.028-.111.11l-2.077 8.974c-.083.248-.25.387-.472.387h-5.454c-.25 0-.416-.111-.472-.387m-72.915-9.756a13.4 13.4 0 0 1-.415 3.358c-.526 2.16-1.55 3.877-3.13 5.122-1.55 1.247-3.46 1.884-5.731 1.884-2.189.056-4.098-.555-5.649-1.8-1.551-1.219-2.604-2.908-3.13-5.012-.303-1.052-.443-2.216-.443-3.461 0-1.413.165-2.66.471-3.74.582-2.021 1.635-3.6 3.185-4.762 1.55-1.136 3.435-1.717 5.621-1.717 2.188 0 4.016.581 5.538 1.717s2.576 2.714 3.158 4.707c.36 1.164.525 2.382.525 3.684zm-12.24.104c.001-.88.084-1.622.222-2.229q.666-2.492 2.825-2.492c.72 0 1.302.221 1.773.664s.802 1.053.996 1.855q.247 1.075.248 2.23c0 .77-.082 1.513-.22 2.175-.222.802-.582 1.467-1.053 1.938a2.3 2.3 0 0 1-1.745.691c-.72 0-1.328-.249-1.8-.72-.498-.471-.83-1.107-1.024-1.938a10.6 10.6 0 0 1-.222-2.175zm25.229-9.734a.44.44 0 0 1 .304-.139h5.289c.111 0 .222.056.305.14a.45.45 0 0 1 .139.332v17.224c0 3.518-.971 6.037-2.936 7.56-1.966 1.524-4.432 2.271-7.421 2.271-1.109 0-2.299-.111-3.518-.304-.249-.027-.36-.195-.36-.498l.195-4.764c0-.194.055-.305.138-.36.111-.056.22-.083.36-.027 1.024.222 1.965.36 2.824.36 1.412 0 2.521-.333 3.352-.998.831-.664 1.218-1.716 1.218-3.156l-.249.276c-.885.915-2.189 1.384-3.878 1.384-1.633 0-3.129-.36-4.485-1.106-1.358-.749-2.355-2.05-2.936-3.933-.388-1.218-.581-2.741-.581-4.541 0-1.966.221-3.6.692-4.846.581-1.578 1.468-2.853 2.741-3.822 1.245-.942 2.715-1.412 4.375-1.412 1.773 0 3.158.553 4.125 1.689.057.056.113.082.14.056.056 0 .084-.056.084-.14v-.94a.3.3 0 0 1 0-.164.3.3 0 0 1 .083-.143m-.111 9.61c0-.693-.027-1.247-.083-1.635a4 4 0 0 0-.304-1.134 2.93 2.93 0 0 0-.943-1.33c-.444-.332-.968-.47-1.577-.47-1.164 0-1.996.609-2.494 1.8-.36.72-.555 1.66-.555 2.852 0 1.244.169 2.188.473 2.768.221.527.553.97.996 1.302.444.334.97.498 1.606.498 1.275 0 2.105-.58 2.52-1.771.222-.582.361-1.551.361-2.88m29.879 9.664c0 .139.056.25.139.332.084.084.195.14.304.14h5.291a.45.45 0 0 0 .304-.14.47.47 0 0 0 .138-.332V13.917a.45.45 0 0 0-.138-.332.45.45 0 0 0-.304-.139h-5.291a.44.44 0 0 0-.304.139.46.46 0 0 0-.139.332zm25.809-8.169c-.027.305-.193.47-.471.47h-11.324a.2.2 0 0 0-.14.055c-.056.029-.055.084-.027.14.056.276.165.665.36 1.107.304.525.747.969 1.329 1.302.582.331 1.329.498 2.189.498 1.549 0 2.796-.525 3.682-1.578.111-.138.222-.195.332-.195s.221.057.305.167l2.852 3.379c.111.082.138.194.138.304 0 .111-.056.194-.138.305-.858.969-1.938 1.716-3.213 2.242-1.273.526-2.658.776-4.181.776-2.244 0-4.182-.498-5.733-1.523-1.578-1.024-2.713-2.437-3.405-4.264-.526-1.275-.775-2.88-.775-4.82 0-1.329.194-2.629.581-3.849.637-1.91 1.688-3.405 3.184-4.485 1.468-1.08 3.24-1.634 5.262-1.634 1.635 0 3.102.36 4.376 1.108 1.302.72 2.325 1.745 3.129 3.045q1.204 1.953 1.578 4.404c.111.776.139 1.771.11 3.045zm-11.795-4.21a3 3 0 0 0-.196.804c-.054.138 0 .194.14.194h5.289c.111 0 .138-.056.138-.165 0-.195-.056-.473-.138-.777-.165-.636-.498-1.136-.942-1.467-.471-.334-1.025-.498-1.716-.498-1.302.027-2.133.664-2.575 1.909" fill="#000"/><defs><linearGradient id="paint0_linear_534_839" x1="26.968" y1="36.133" x2="38.933" y2="38.492" gradientUnits="userSpaceOnUse"><stop offset=".006" stop-color="#e8096a"/><stop offset="1" stop-color="#00afff"/></linearGradient><linearGradient id="paint2_linear_534_839" x1="22.547" y1="39.355" x2="7.496" y2="3.703" gradientUnits="userSpaceOnUse"><stop stop-color="#412df5"/><stop offset=".691" stop-color="#0606b6"/><stop offset="1" stop-color="#4b00b4"/></linearGradient><linearGradient id="paint3_linear_534_839" x1="10.024" y1="9.326" x2="16.194" y2="8.659" gradientUnits="userSpaceOnUse"><stop stop-color="#e60030"/><stop offset="1" stop-color="#690040"/></linearGradient><linearGradient id="paint4_linear_534_839" x1="10.272" y1="12.943" x2="15.205" y2="11.525" gradientUnits="userSpaceOnUse"><stop stop-color="#ff6500"/><stop offset="1" stop-color="#ee182c"/></linearGradient><linearGradient id="paint5_linear_534_839" x1="10.595" y1="15.54" x2="16.464" y2="16.673" gradientUnits="userSpaceOnUse"><stop stop-color="#ea4d07"/><stop offset="1" stop-color="#c5171e"/></linearGradient><linearGradient id="paint6_linear_534_839" x1="23.044" y1="5.763" x2="13.526" y2="34.538" gradientUnits="userSpaceOnUse"><stop stop-color="#0091ff"/><stop offset=".005" stop-color="#0292fc"/><stop offset=".126" stop-color="#37a5c2"/><stop offset=".249" stop-color="#65b58e"/><stop offset=".372" stop-color="#8cc363"/><stop offset=".496" stop-color="#accf3f"/><stop offset=".62" stop-color="#c4d823"/><stop offset=".745" stop-color="#d6de10"/><stop offset=".871" stop-color="#e1e204"/><stop offset="1" stop-color="#e4e300"/></linearGradient><linearGradient id="paint7_linear_534_839" x1="13.039" y1="9.213" x2="26.097" y2="35.267" gradientUnits="userSpaceOnUse"><stop offset=".006" stop-color="#de003b"/><stop offset=".241" stop-color="#d976ff"/><stop offset="1" stop-color="#00a4ea"/></linearGradient><linearGradient id="paint11_linear_534_839" x1="21.917" y1="15.065" x2="24.167" y2="30.954" gradientUnits="userSpaceOnUse"><stop stop-color="#ff9500"/><stop offset="1" stop-color="#f7ff2b"/></linearGradient><linearGradient id="paint12_linear_534_839" x1="29.698" y1="26.011" x2="20.309" y2="16.246" gradientUnits="userSpaceOnUse"><stop offset=".207" stop-color="#ff8e00"/><stop offset="1" stop-color="#f41b56"/></linearGradient><linearGradient id="paint14_linear_534_839" x1="23.059" y1="14.256" x2="24.564" y2="12.619" gradientUnits="userSpaceOnUse"><stop stop-color="#ffb41f"/><stop offset="1" stop-color="#f42a56"/></linearGradient><linearGradient id="paint15_linear_534_839" x1="25.822" y1="18.35" x2="28.618" y2="13.279" gradientUnits="userSpaceOnUse"><stop stop-color="#ffb900"/><stop offset="1" stop-color="#f41880"/></linearGradient><linearGradient id="paint17_linear_534_839" x1="16.648" y1="5.397" x2="32.465" y2="5.397" gradientUnits="userSpaceOnUse"><stop stop-color="#ff6500"/><stop offset="1" stop-color="#ee182c"/></linearGradient><linearGradient id="paint19_linear_534_839" x1="20.232" y1="40.618" x2="40.913" y2="3.891" gradientUnits="userSpaceOnUse"><stop stop-color="#008dff"/><stop offset=".181" stop-color="#331dea"/><stop offset=".833" stop-color="#39c3fe"/><stop offset="1" stop-color="#60f5a9"/></linearGradient><linearGradient id="paint22_linear_534_839" x1="28.648" y1="5.043" x2="28.752" y2="9.484" gradientUnits="userSpaceOnUse"><stop stop-color="#e60030"/><stop offset="1" stop-color="#690040"/></linearGradient><linearGradient id="paint23_linear_534_839" x1="29.392" y1="13.693" x2="29.566" y2="10.923" gradientUnits="userSpaceOnUse"><stop stop-color="#ffd71f"/><stop offset="1" stop-color="#dd001b"/></linearGradient><linearGradient id="paint24_linear_534_839" x1="29.229" y1="12.405" x2="32.827" y2="12.656" gradientUnits="userSpaceOnUse"><stop stop-color="#ff4c00"/><stop offset="1" stop-color="#ffff1e"/></linearGradient><radialGradient id="paint1_radial_534_839" cx="0" cy="0" r="1" gradientUnits="userSpaceOnUse" gradientTransform="rotate(5.75 -356.702 319.878)scale(12.3218)"><stop stop-color="#00caff"/><stop offset="1" stop-color="#38e700"/></radialGradient><radialGradient id="paint8_radial_534_839" cx="0" cy="0" r="1" gradientUnits="userSpaceOnUse" gradientTransform="rotate(-6.338 167.236 -183.899)scale(22.0068)"><stop stop-color="#00dfff"/><stop offset="1" stop-color="#abe700"/></radialGradient><radialGradient id="paint9_radial_534_839" cx="0" cy="0" r="1" gradientUnits="userSpaceOnUse" gradientTransform="rotate(-40.957 26.046 -21.383)scale(5.30708)"><stop stop-color="#0068ff"/><stop offset="1" stop-color="#9ce830"/></radialGradient><radialGradient id="paint10_radial_534_839" cx="0" cy="0" r="1" gradientUnits="userSpaceOnUse" gradientTransform="translate(22.597 9.907)scale(5.58697)"><stop stop-color="#008a43"/><stop offset="1" stop-color="#a3e830"/></radialGradient><radialGradient id="paint13_radial_534_839" cx="0" cy="0" r="1" gradientUnits="userSpaceOnUse" gradientTransform="translate(25.691 9.334)scale(4.59626)"><stop stop-color="red"/><stop offset="1" stop-color="#ff0"/></radialGradient><radialGradient id="paint16_radial_534_839" cx="0" cy="0" r="1" gradientUnits="userSpaceOnUse" gradientTransform="rotate(-9.492 36.014 -110.266)scale(6.35477)"><stop offset=".001" stop-color="#72003f"/><stop offset="1" stop-color="#ca1d67"/></radialGradient><radialGradient id="paint18_radial_534_839" cx="0" cy="0" r="1" gradientUnits="userSpaceOnUse" gradientTransform="translate(26.406 9.41)scale(2.26255)"><stop stop-color="#d1dee7"/><stop offset="1" stop-color="#fff"/></radialGradient><radialGradient id="paint20_radial_534_839" cx="0" cy="0" r="1" gradientUnits="userSpaceOnUse" gradientTransform="rotate(203.84 18.457 12.596)scale(5.28137 14.6456)"><stop offset=".001" stop-color="#7f06fb"/><stop offset="1" stop-color="#7a10fb" stop-opacity="0"/></radialGradient><radialGradient id="paint21_radial_534_839" cx="0" cy="0" r="1" gradientUnits="userSpaceOnUse" gradientTransform="translate(13.608 5.407)scale(16.5609)"><stop offset=".001" stop-color="#ff0042"/><stop offset=".422" stop-color="#0068ff"/><stop offset=".659" stop-color="#1877e2"/><stop offset="1" stop-color="#4eefbe"/></radialGradient><radialGradient id="paint25_radial_534_839" cx="0" cy="0" r="1" gradientUnits="userSpaceOnUse" gradientTransform="translate(25.248 9.2)scale(1.73478)"><stop stop-color="#ff9100"/><stop offset=".226" stop-color="#ff9500"/><stop offset=".443" stop-color="#fea000"/><stop offset=".657" stop-color="#fcb400"/><stop offset=".867" stop-color="#f9cf00"/><stop offset="1" stop-color="#f7e400"/></radialGradient><radialGradient id="paint26_radial_534_839" cx="0" cy="0" r="1" gradientUnits="userSpaceOnUse" gradientTransform="translate(25.166 8.893)scale(1.86561)"><stop/><stop offset=".092" stop-color="#000004"/><stop offset=".177" stop-color="#01000f"/><stop offset=".258" stop-color="#020021"/><stop offset=".338" stop-color="#03003c"/><stop offset=".417" stop-color="#05005d"/><stop offset=".494" stop-color="#080087"/><stop offset=".571" stop-color="#0a00b8"/><stop offset=".645" stop-color="#0e00f0"/><stop offset=".654" stop-color="#0e00f7"/></radialGradient></defs></svg>