<svg width="207" height="46" fill="none" xmlns="http://www.w3.org/2000/svg"><path fill-rule="evenodd" clip-rule="evenodd" d="M15.579 27.023c1.134 0 3.392-.063 6.512-1.347 3.636-1.497 10.872-4.217 16.09-7.008 3.652-1.95 5.252-4.534 5.252-8.011a8.74 8.74 0 0 0-8.742-8.74H14.47A12.554 12.554 0 0 0 1.917 14.47c0 6.932 5.26 12.552 13.661 12.552" fill="#39594d"/><path fill-rule="evenodd" clip-rule="evenodd" d="M18.998 35.67a8.41 8.41 0 0 1 5.185-7.767l6.369-2.645c6.442-2.672 13.531 2.062 13.531 9.037a9.78 9.78 0 0 1-9.784 9.783l-6.895-.002a8.41 8.41 0 0 1-8.406-8.409z" fill="#d18ee2"/><path d="M9.154 28.677a7.235 7.235 0 0 0-7.237 7.237v.938a7.237 7.237 0 0 0 14.472 0v-.94a7.236 7.236 0 0 0-7.235-7.235" fill="#ff7759"/><path fill-rule="evenodd" clip-rule="evenodd" d="M68.384 37.994c4.68 0 8.775-2.34 10.393-7.064.315-.945-.136-1.575-1.035-1.575h-1.755c-.81 0-1.35.36-1.712 1.125-1.395 2.745-3.33 3.732-5.758 3.732-4.32 0-6.975-3.015-6.975-8.053 0-5.037 2.746-8.053 6.883-8.053 2.52 0 4.59 1.08 5.895 3.644.406.765.898 1.124 1.71 1.124h1.755c.9 0 1.35-.585 1.035-1.44-1.888-5.13-6.12-7.11-10.436-7.11C61.86 14.326 57 19.142 57 26.161s4.635 11.833 11.383 11.833m117.743-13.905c.584-3.825 3.194-6.21 6.749-6.21s6.21 2.43 6.523 6.21zm6.931 13.905c4.14 0 8.278-1.935 10.303-6.299.495-1.035.045-1.755-.855-1.755h-1.664c-.808 0-1.305.359-1.71 1.08-1.35 2.384-3.689 3.374-6.071 3.374-4.095 0-6.75-2.79-7.065-7.333h16.515c.9 0 1.485-.495 1.485-1.44-.18-7.065-4.768-11.292-11.114-11.292-6.345 0-11.383 4.59-11.383 11.834s4.904 11.834 11.564 11.834zM166.87 26.747h1.484c.9 0 1.396-.495 1.531-1.442.858-6.079 4.415-6.884 8.2-6.704a1.39 1.39 0 0 0 1.473-1.395V15.81c0-.898-.45-1.44-1.35-1.485-3.348-.127-6.336 1.022-8.063 4.276-.094.178-.361.13-.383-.07l-.28-2.453q-.135-1.35-1.484-1.35h-6.795c-.794 0-1.44.645-1.44 1.441v.765c0 .795.645 1.441 1.44 1.441h2.79c.795 0 1.443.645 1.443 1.44v5.49c0 .794.644 1.44 1.439 1.44h-.005zm-6.073 10.8h14.081c.9 0 1.441-.54 1.441-1.443v-.765c0-.897-.54-1.44-1.44-1.44h-3.6c-.9 0-1.441-.54-1.441-1.441v-2.475c0-.9-.54-1.444-1.442-1.444h-1.529c-.899 0-1.44.54-1.44 1.442v2.477c0 .898-.541 1.44-1.444 1.44h-3.193c-.898 0-1.44.54-1.44 1.442v.765c0 .899.54 1.44 1.44 1.44zm-21.733-13.455c.585-3.825 3.195-6.208 6.75-6.208s6.21 2.428 6.523 6.21h-13.273zm6.93 13.905c4.14 0 8.28-1.934 10.305-6.299.495-1.035.045-1.755-.855-1.755h-1.662c-.81 0-1.305.359-1.712 1.08-1.35 2.384-3.689 3.374-6.073 3.374-4.095 0-6.748-2.79-7.062-7.333h16.514c.898 0 1.485-.495 1.485-1.44-.18-7.065-4.767-11.292-11.115-11.292-6.345 0-11.382 4.59-11.382 11.834S139.342 38 146.002 38zm-52.055 0c6.751 0 11.566-4.995 11.566-11.835S100.69 14.327 93.94 14.327s-11.565 5.086-11.565 11.835c0 1.575.27 3.33 1.08 5.265.406.945 1.171 1.078 1.98.495l1.304-.947c.677-.495.856-1.08.63-1.934a9.5 9.5 0 0 1-.451-2.968c0-4.723 2.835-7.965 7.02-7.965 4.182 0 7.017 3.195 7.017 8.055s-2.79 8.052-6.93 8.052c-1.44 0-2.79-.27-4.41-1.485-.675-.54-1.303-.63-2.025-.09l-.99.722c-.81.585-.897 1.395-.135 2.025 2.34 1.89 5.037 2.61 7.47 2.61zm17.276-.45h1.485c.795 0 1.443-.645 1.443-1.443V25.355c0-4.544 2.427-7.245 6.209-7.245 3.42 0 5.399 2.25 5.399 6.39v11.61c0 .794.645 1.44 1.44 1.44h1.53c.795 0 1.442-.645 1.442-1.44V23.78c0-6.072-3.105-9.447-8.367-9.447-3.585 0-5.702 1.467-7.283 3.507a.2.2 0 0 1-.225.067.205.205 0 0 1-.139-.19V7.94a1.455 1.455 0 0 0-1.448-1.44h-1.484c-.795 0-1.444.645-1.444 1.44v28.165c0 .794.646 1.442 1.442 1.442" fill="#000"/></svg>