<svg width="46" height="46" fill="none" xmlns="http://www.w3.org/2000/svg"><path fill-rule="evenodd" clip-rule="evenodd" d="M15.579 27.023c1.134 0 3.392-.063 6.512-1.347 3.636-1.497 10.872-4.217 16.09-7.008 3.652-1.95 5.252-4.534 5.252-8.011a8.74 8.74 0 0 0-8.742-8.74H14.47A12.554 12.554 0 0 0 1.917 14.47c0 6.932 5.26 12.552 13.661 12.552" fill="#39594d"/><path fill-rule="evenodd" clip-rule="evenodd" d="M18.998 35.67a8.41 8.41 0 0 1 5.185-7.767l6.369-2.645c6.442-2.672 13.531 2.062 13.531 9.037a9.78 9.78 0 0 1-9.784 9.783l-6.895-.002a8.41 8.41 0 0 1-8.406-8.409z" fill="#d18ee2"/><path d="M9.154 28.677a7.235 7.235 0 0 0-7.237 7.237v.938a7.237 7.237 0 0 0 14.472 0v-.94a7.236 7.236 0 0 0-7.235-7.235" fill="#ff7759"/></svg>