<svg width="46" height="46" fill="none" xmlns="http://www.w3.org/2000/svg"><path d="M10.513 45.54c-1.089 0-1.967-.397-2.54-1.146-.588-.77-.742-1.848-.421-2.952l1.288-4.437a1.16 1.16 0 0 0-.611-1.37 1.2 1.2 0 0 0-.528-.123H3.996c-1.088 0-1.966-.397-2.54-1.146-.588-.773-.741-1.848-.421-2.952L5.462 16.24l.49-1.668c.657-2.261 3.05-4.101 5.339-4.101h4.433c.53 0 .995-.345 1.14-.847l1.465-5.047c.657-2.262 3.051-4.1 5.342-4.1l9.478-.015h6.938c1.089 0 1.968.395 2.54 1.144.588.77.741 1.848.421 2.952l-1.983 6.835c-.658 2.257-3.054 4.096-5.342 4.096l-9.5.019h-4.43a1.185 1.185 0 0 0-1.14.845L16.96 29.011a1.16 1.16 0 0 0 .191 1.029c.226.293.575.466.949.466l6.277-.012h6.92c1.088 0 1.966.395 2.539 1.146.588.77.742 1.848.422 2.952l-1.986 6.833c-.656 2.26-3.052 4.098-5.34 4.098l-9.5.019h-6.92z" fill="#f0ff41"/></svg>