<svg width="46" height="46" fill="none" xmlns="http://www.w3.org/2000/svg"><g clip-path="url(#clip0_534_732)" fill="#5eae91"><path d="M11.527 0q5.031.697 7.757 4.834c.304.46.586 1.1.797 1.491a.15.15 0 0 0 .142.077 29.6 29.6 0 0 1 5.524 0 .15.15 0 0 0 .141-.077c.261-.48.564-1.156.95-1.712 1.82-2.625 4.356-4.16 7.6-4.613h2.205q1.587.296 1.993.43 3.384 1.109 5.405 3.934a10.3 10.3 0 0 1 1.955 6.385q-.074 3.429-2.365 6.336a.22.22 0 0 0-.02.242 18.1 18.1 0 0 1 2.234 6.42q.123.836.138 1.91.02 1.5-.021 1.92c-.909 9.24-8.418 15.81-17.09 17.775q-1.888.429-4.134.633h-3.482a96 96 0 0 1-2.141-.274 25 25 0 0 1-3.98-.892c-5.26-1.644-9.993-5.062-12.762-9.869Q.762 32.156.264 29.327A73 73 0 0 1 0 27.544v-2.79a18.7 18.7 0 0 1 2.375-7.456.2.2 0 0 0-.02-.224A10.1 10.1 0 0 1 .21 12.569q-.1-.499-.21-1.011V9.345q.262-1.731.751-2.88C2.062 3.384 4.767.979 8.106.252A51 51 0 0 1 9.33 0zm7.245 10.436a8.326 8.326 0 1 0-16.65 0 8.326 8.326 0 0 0 16.652 0zm25.093 0a8.326 8.326 0 1 0-16.653 0 8.326 8.326 0 0 0 16.653 0M22.985 34.49q.475 0 .906-.011a61 61 0 0 0 4.984-.35 37 37 0 0 0 6.907-1.456c2.651-.826 6.584-2.543 7.79-5.242q.367-.82.272-2.102-.285-3.711-1.865-6.498a.07.07 0 0 0-.075-.032.1.1 0 0 0-.027.013q-2.924 2.062-6.089 2.108c-2.223.035-4.217-.53-5.972-1.7q-4.055-2.694-4.711-7.664c-.135-1.003-.048-1.865.11-2.935a.11.11 0 0 0-.022-.088.12.12 0 0 0-.08-.044q-.688-.076-2.123-.077-1.432.001-2.117.077a.12.12 0 0 0-.081.042.12.12 0 0 0-.023.088c.157 1.07.243 1.932.11 2.935q-.662 4.968-4.716 7.66-2.639 1.751-5.976 1.699c-2.108-.033-4.14-.738-6.087-2.114a.07.07 0 0 0-.058-.012.07.07 0 0 0-.044.033q-1.582 2.782-1.867 6.493-.1 1.283.269 2.105c1.203 2.7 5.136 4.418 7.785 5.248a37 37 0 0 0 6.908 1.458q2.44.278 4.983.355.431.012.909.011m.005 9.37c1.624 0 3.021-.127 4.74-.459 6.674-1.288 12.576-5.472 15.155-11.853l.002-.016a.04.04 0 0 0-.018-.027l-.016-.005a.03.03 0 0 0-.02.008 16.5 16.5 0 0 1-2.692 1.668c-3.452 1.719-7.404 2.658-11.264 3.095a53 53 0 0 1-5.885.345c-1.978 0-3.979-.128-5.882-.345-3.86-.44-7.812-1.376-11.264-3.095a16.4 16.4 0 0 1-2.691-1.672.04.04 0 0 0-.021-.006.04.04 0 0 0-.033.025.04.04 0 0 0 0 .023c2.578 6.381 8.48 10.565 15.153 11.853 1.72.334 3.117.46 4.738.46z"/><path d="M11.496 17.71a6.216 6.216 0 1 0 0-12.432 6.216 6.216 0 0 0 0 12.432m22.994 0a6.216 6.216 0 1 0 0-12.432 6.216 6.216 0 0 0 0 12.432M17.687 30.09a1.793 1.793 0 0 0 1.849-1.79 1.791 1.791 0 1 0-1.85 1.79m10.612.002a1.792 1.792 0 1 0 0-3.584 1.792 1.792 0 0 0 0 3.584"/></g><defs><clipPath id="clip0_534_732"><path fill="#fff" d="M0 0h46v46H0z"/></clipPath></defs></svg>