<svg width="179" height="46" fill="none" xmlns="http://www.w3.org/2000/svg"><g clip-path="url(#clip0_534_835)"><path fill-rule="evenodd" clip-rule="evenodd" d="M7.49 17.434A15.51 15.51 0 0 1 22.996 1.917h.012c8.563 0 15.506 6.953 15.506 15.517v6.501h3.722c4.274 0 5.236 5.992 1.178 7.337l-4.898 1.63v2.81a3.73 3.73 0 0 1-5.402 3.338l-2.721-1.355c-.129-.057-.286 0-.326.136-2.199 6.875-11.931 6.875-14.132 0a.236.236 0 0 0-.324-.134L12.89 39.05c-2.473 1.246-5.4-.56-5.4-3.339v-2.81l-4.9-1.629c-4.068-1.336-3.094-7.337 1.178-7.337H7.49zm8.762 5.008a1.503 1.503 0 0 0-1.503 1.503v3.005a1.503 1.503 0 0 0 3.005 0v-3.005a1.503 1.503 0 0 0-1.503-1.503m13.502 1.493a1.503 1.503 0 1 0 0 3.006 1.503 1.503 0 0 0 0-3.006m-11.856 6.546c.075.182.186.347.326.487a6.74 6.74 0 0 0 9.545 0 1.501 1.501 0 0 0-1.06-2.56 1.5 1.5 0 0 0-1.06.438 3.753 3.753 0 0 1-5.303 0 1.495 1.495 0 0 0-2.448.487 1.5 1.5 0 0 0 0 1.15z" fill="#000"/></g><path fill-rule="evenodd" clip-rule="evenodd" d="M114.674 22.985c0 8.28-6.828 14.99-15.25 14.99-8.42 0-15.248-6.712-15.248-14.987C84.176 14.71 91.004 8 99.425 8c8.422 0 15.249 6.71 15.249 14.985m-15.246 9.3c-4.816 0-8.718-4.162-8.718-9.3v.003c0-5.136 3.902-9.3 8.718-9.3 4.814 0 8.716 4.163 8.716 9.3 0 5.134-3.902 9.297-8.716 9.297m63.349 5.696c-8.279 0-14.665-6.03-14.665-14.887v-.108c0-8.205 5.79-14.94 13.961-14.94 9.092 0 13.691 7.17 13.691 15.43 0 .236 0 .537-.036.89l-.015.204a.81.81 0 0 1-.808.752h-20.246c.703 4.672 4.005 7.28 8.225 7.28 2.933 0 5.091-1.008 7.184-2.9a.84.84 0 0 1 1.122-.015l2.682 2.388a.8.8 0 0 1 .271.547.8.8 0 0 1-.199.578c-2.658 2.919-6.247 4.78-11.167 4.78m6.357-17.96h-14.363c.848-3.936 3.537-6.596 7.247-6.596 3.998 0 6.428 2.826 7.116 6.596M79.862 34.388a.8.8 0 0 0-.095-.55l-2.212-3.84c-.288-.505-.995-.554-1.41-.148-1.554 1.529-3.628 2.463-5.908 2.463-4.814 0-8.718-4.164-8.718-9.3 0-5.134 3.904-9.298 8.718-9.298 2.388 0 4.553 1.024 6.126 2.683.41.433 1.142.393 1.439-.122l2.23-3.878a.79.79 0 0 0-.179-1.018 15.35 15.35 0 0 0-9.616-3.353c-8.42 0-15.249 6.708-15.249 14.987S61.816 38 70.238 38a15.35 15.35 0 0 0 9.333-3.135.8.8 0 0 0 .291-.477M120.28 9.01a.81.81 0 0 0-.755.505.8.8 0 0 0-.063.313v3.63a.83.83 0 0 0 .505.758.8.8 0 0 0 .313.062h15.383l-16.498 17.986a.82.82 0 0 0-.215.555v3.456a.82.82 0 0 0 .816.82h23.172a.82.82 0 0 0 .816-.82v-3.63a.82.82 0 0 0-.816-.819h-15.853l16.684-18.19h.003V9.827a.82.82 0 0 0-.816-.819h-22.675z" fill="#000"/><defs><clipPath id="clip0_534_835"><path fill="#fff" d="M0 0h46v46H0z"/></clipPath></defs></svg>