<svg width="46" height="46" fill="none" xmlns="http://www.w3.org/2000/svg"><g clip-path="url(#clip0_535_906)"><path d="M37.203 20.667a5.28 5.28 0 0 1 4.735 2.598 6.7 6.7 0 0 1 .738 5.136l-.26 1a19.16 19.16 0 0 1-6.05 9.695c-1.159.991-2.458 2.036-3.992 2.921l-.053.033c-.77.444-1.695.98-2.68 1.449a22.5 22.5 0 0 1-7.28 2.236 32 32 0 0 1-4.939.254h-.034a16.46 16.46 0 0 1-9.672-3.585l-.023-.019-.023-.019a15.38 15.38 0 0 1-5.332-8.978 20.9 20.9 0 0 1-.195-7.243A30 30 0 0 1 5.52 16.1a41.7 41.7 0 0 1 4.661-7.05 29.6 29.6 0 0 1 6.824-6.098A19.1 19.1 0 0 1 23.843.199h.008l.006-.003c3.942-.736 7.174.716 9.629 2.415a15.9 15.9 0 0 1 4.59 4.816l.047.077.044.08a10.5 10.5 0 0 1 .973 7.69 27.8 27.8 0 0 1-1.937 5.393" fill="#461816"/><path d="M36.15 25.233a1.434 1.434 0 0 1 2.407.06c.382.636.491 1.399.305 2.113l-.263 1A15.2 15.2 0 0 1 33.8 36.1c-1.096.94-2.181 1.8-3.4 2.504-.818.473-1.643.95-2.497 1.355a18.5 18.5 0 0 1-6.047 1.865c-1.434.188-2.88.262-4.326.222a12.5 12.5 0 0 1-7.355-2.726 11.44 11.44 0 0 1-3.97-6.696 17 17 0 0 1-.162-5.904 26 26 0 0 1 2.952-8.755 37.8 37.8 0 0 1 4.24-6.417 25.7 25.7 0 0 1 5.918-5.29 15.1 15.1 0 0 1 5.428-2.185c2.505-.47 4.665.397 6.672 1.788a11.9 11.9 0 0 1 3.461 3.627 6.55 6.55 0 0 1 .602 4.82 23.7 23.7 0 0 1-1.897 5.117l-.428.953a488 488 0 0 1-1.859 4.096 1.46 1.46 0 0 1-1.859.895 6.5 6.5 0 0 1-4.376-4.773 8.7 8.7 0 0 1 .748-4.65c.552-1.43 1.169-2.83 1.788-4.231l.475-1.08a1.016 1.016 0 0 0-.39-1.422 4.5 4.5 0 0 0-2.3 1.346 49 49 0 0 0-3.094 3.387 41.3 41.3 0 0 0-5.02 8.019 14.6 14.6 0 0 0-1.564 5.277 13.5 13.5 0 0 0 .134 4.253 3.94 3.94 0 0 0 3.707 3.287c3.452.191 6.88-.696 9.806-2.546a36 36 0 0 0 3.21-2.48c1.442-1.36 2.638-2.911 3.753-4.523" fill="#fff"/></g><defs><clipPath id="clip0_535_906"><path fill="#fff" d="M0 0h46v46H0z"/></clipPath></defs></svg>