<svg width="46" height="46" fill="none" xmlns="http://www.w3.org/2000/svg"><g clip-path="url(#clip0_535_882)"><path fill-rule="evenodd" clip-rule="evenodd" d="M44.149 32.698a.5.5 0 0 0 .065-.198c.258-.665.517-1.462.648-2.127 1.686-5.98 1.816-13.685-4.279-21.923-.153-.157-.258-.312-.348-.44-.064-.093-.115-.17-.17-.225 1.555-1.196 3.5-1.595 4.927-1.595.778 0 1.167-.93.648-1.462C40.584-.852 35.008-.72 31.117 1.406 24.765-.986 17.892-.189 13.743 2.736c-7.13 4.917-7.13 10.496-3.5 15.679A15 15 0 0 0 8.817 22.4c-.261 1.329 1.295 2.258 2.204 1.329 1.815-1.727 4.15-3.853 5.315-4.65 2.854-2.128 4.669-2.925 7.262-3.322h.128c.909-.134 1.687-.266 2.594-.266a14.88 14.88 0 0 1 14.653 12.224l.038.322c.115.934.22 1.78.22 2.733v.665l-.389-1.195c-1.556-3.056-4.536-5.315-8.169-5.315 0 .931 0 1.993-.128 2.923-.52 5.05-3.502 9.037-7.521 11.294-.13 0-.13.135-.259.135-.389.132-.908.396-1.297.53a2 2 0 0 1-.324.135c-.096.03-.194.065-.326.13a11 11 0 0 1-4.148.797h-.778c-.907 0-1.945 0-2.852-.266-2.076-.397-3.89-1.328-5.447-2.524-.907-.663-1.685-1.46-2.463-2.39 3.373 5.315 8.947 9.167 15.56 10.097a16.5 16.5 0 0 0 4.408.134 35 35 0 0 0 3.63-.665c1.17-.26 2.302-.66 3.373-1.196.907-.399 1.685-.798 2.463-1.329 0 0 .044-.046.108-.084a.3.3 0 0 1 .153-.048c.257-.268.646-.398.906-.665.599-.49 1.085-.981 1.564-1.47l-.01.01c.39-.401.65-.8 1.04-1.198.644-.792 1.288-1.718 1.934-2.642l.01-.015c.649-1.196 1.297-2.392 1.814-3.72a.5.5 0 0 1 .066-.2m-38.443-4.85v5.846H0v-5.846z" fill="#000"/></g><defs><clipPath id="clip0_535_882"><path fill="#fff" d="M0 0h46v46H0z"/></clipPath></defs></svg>