<svg width="404" height="46" fill="none" xmlns="http://www.w3.org/2000/svg"><g clip-path="url(#clip0_535_912)"><path fill-rule="evenodd" clip-rule="evenodd" d="M11.477 3.109a16.37 16.37 0 0 0-4.865 13.08c.67 8.448 8.637 15.323 15.863 15.323 6.722 0 9.353-5.867 8.703-9.852a8.3 8.3 0 0 0-1.82-3.973 17 17 0 0 1 3.467 2.492c2.913 2.712 4.676 6.189 4.958 9.775C38.41 37.879 32.545 46 22.737 46c-3.248 0-6.67-.828-9.545-2.19C5.397 40.13 0 32.193 0 23.003 0 14.51 4.61 7.092 11.477 3.109M23.261 0c3.25 0 6.672.828 9.545 2.19C40.606 5.87 46 13.807 46 22.997c0 8.493-4.61 15.914-11.477 19.895a16.37 16.37 0 0 0 4.865-13.08c-.67-8.448-8.637-15.323-15.863-15.323-6.722 0-9.353 5.867-8.703 9.852a8.24 8.24 0 0 0 1.826 3.973 16.7 16.7 0 0 1-3.469-2.492c-2.913-2.712-4.677-6.185-4.962-9.775C7.59 8.121 13.455 0 23.263 0z" fill="#4285f4"/></g><g clip-path="url(#clip1_535_912)"><path fill-rule="evenodd" clip-rule="evenodd" d="M215.868 32.583V2.392h9.21q6.897 0 11.081 4.175 4.186 4.174 4.185 10.92 0 6.788-4.185 10.943t-11.081 4.153zm3.869-26.48v22.77h5.341q5.256 0 8.285-3.015t3.028-8.37q0-5.313-3.028-8.35-3.027-3.035-8.285-3.035zm33.77 27.155q-4.542 0-7.486-3.12t-2.943-7.885q0-4.724 2.859-7.865t7.318-3.141q4.585 0 7.296 2.973 2.713 2.972 2.713 8.328l-.042.421h-16.191q.084 3.036 2.018 4.892a6.44 6.44 0 0 0 4.626 1.855q3.7 0 5.804-3.71l3.449 1.686a10.3 10.3 0 0 1-3.848 4.09q-2.462 1.475-5.573 1.476m-6.182-13.493h11.818a5.15 5.15 0 0 0-1.746-3.563q-1.577-1.412-4.226-1.413-2.188 0-3.764 1.35-1.577 1.35-2.082 3.626m28.724 13.493q-4.543 0-7.486-3.12-2.944-3.121-2.944-7.885 0-4.724 2.86-7.865t7.318-3.141q4.584 0 7.296 2.973t2.713 8.328l-.042.421h-16.192q.086 3.036 2.019 4.892a6.46 6.46 0 0 0 4.626 1.855q3.7 0 5.804-3.71l3.448 1.686a10.3 10.3 0 0 1-3.848 4.09q-2.46 1.475-5.572 1.476m-6.182-13.493h11.817a5.15 5.15 0 0 0-1.745-3.563q-1.576-1.413-4.227-1.413-2.187 0-3.764 1.35t-2.081 3.626m29.565 9.951q2.775 0 4.668-2.108 1.892-2.067 1.892-5.355 0-3.247-1.892-5.356-1.893-2.108-4.668-2.108-2.819 0-4.711 2.108-1.85 2.109-1.85 5.356 0 3.289 1.85 5.397 1.892 2.066 4.711 2.066m.63 3.542a8.9 8.9 0 0 1-4.142-.97q-1.872-.97-2.881-2.572h-.168l.168 2.867v9.108h-3.869v-29.77h3.701v2.868h.168q1.01-1.603 2.881-2.572a8.9 8.9 0 0 1 4.142-.97q4.08 0 6.897 3.205 2.902 3.247 2.902 7.8 0 4.597-2.902 7.801-2.817 3.205-6.897 3.205m17.874-.675h-3.869V2.392h3.869l10.472 18.385h.168l10.472-18.385h3.869v30.191h-3.869v-17.92l.168-5.06h-.168l-9.421 16.571h-2.271l-9.42-16.571h-.168l.168 5.06zm35.368-27.787a2.65 2.65 0 0 1-.799 1.94 2.62 2.62 0 0 1-1.934.8 2.64 2.64 0 0 1-1.935-.8 2.66 2.66 0 0 1-.799-1.94q.001-1.139.799-1.94a2.64 2.64 0 0 1 1.935-.801q1.135.001 1.934.8.8.803.799 1.94m-.799 7.126v20.661h-3.869v-20.66zm5.047 0h3.701v2.867h.168q.883-1.518 2.713-2.53a7.76 7.76 0 0 1 3.806-1.012q3.785 0 5.824 2.172 2.04 2.171 2.04 6.177v12.987h-3.869V19.85q-.126-5.06-5.089-5.06-2.313 0-3.869 1.876-1.557 1.878-1.556 4.491v11.427h-3.869zm32.046 17.794q2.859-.001 4.668-2.066 1.893-2.066 1.893-5.397 0-3.247-1.893-5.356-1.851-2.108-4.668-2.108-2.775 0-4.668 2.108t-1.893 5.356q0 3.288 1.893 5.355 1.893 2.108 4.668 2.108m-.631 3.542q-4.037 0-6.939-3.205-2.86-3.248-2.86-7.8 0-4.553 2.86-7.801 2.902-3.205 6.939-3.205 2.27 0 4.143.97t2.88 2.572h.169l-.169-2.867v-9.53h3.869v30.191h-3.7v-2.867h-.169q-1.008 1.602-2.88 2.572a8.9 8.9 0 0 1-4.143.97m-292.836-17H79.85v4.86h11.548c-.57 6.817-6.207 9.725-11.527 9.725-6.81 0-12.75-5.39-12.75-12.943 0-7.358 5.663-13.024 12.763-13.024 5.479 0 8.707 3.513 8.707 3.513l3.384-3.526-.237-.242C90.732 3.638 86.559 0 79.71 0 69.625 0 61.823 8.564 61.823 17.814c0 9.063 7.34 17.901 18.143 17.901 9.505 0 16.46-6.55 16.46-16.234a16.7 16.7 0 0 0-.226-2.888zm13.406.986c3.286 0 6.398 2.674 6.398 6.98 0 4.215-3.099 6.964-6.413 6.964-3.642 0-6.515-2.932-6.515-6.996 0-3.977 2.839-6.948 6.53-6.948m-.067-4.508c-6.681 0-11.47 5.256-11.47 11.385 0 6.22 4.646 11.573 11.548 11.573 6.251 0 11.371-4.807 11.371-11.439 0-7.43-5.689-11.339-11.074-11.513zm25.013 4.508c3.288 0 6.4 2.674 6.4 6.98 0 4.215-3.1 6.964-6.415 6.964-3.64 0-6.513-2.932-6.513-6.996 0-3.977 2.837-6.948 6.528-6.948m-.065-4.508c-6.683 0-11.469 5.256-11.469 11.385 0 6.22 4.645 11.573 11.546 11.573 6.251 0 11.372-4.807 11.372-11.439 0-7.43-5.689-11.339-11.074-11.513zm24.908 4.514c3.007 0 6.095 2.584 6.095 6.996 0 4.481-3.08 6.954-6.16 6.954-3.268 0-6.312-2.672-6.312-6.914 0-4.406 3.158-7.034 6.377-7.034zm-.443-4.5c-6.132 0-10.954 5.405-10.954 11.469 0 6.91 5.59 11.492 10.849 11.492 3.25 0 4.98-1.3 6.256-2.788v2.261c0 3.962-2.389 6.333-5.996 6.333-3.487 0-5.234-2.607-5.842-4.086l-4.383 1.843c1.554 3.309 4.685 6.76 10.261 6.76 6.098 0 10.743-3.864 10.743-11.967V13.44h-4.783v1.943c-1.378-1.495-3.232-2.503-5.658-2.622zm32.403 4.389c2.084 0 3.585 1.113 4.223 2.451l-10.217 4.296c-.44-3.326 2.691-6.747 5.994-6.747m-.198-4.416c-5.785 0-10.642 4.63-10.642 11.463 0 7.23 5.413 11.52 11.198 11.52 4.827 0 7.79-2.659 9.558-5.04l-3.944-2.639c-1.024 1.597-2.733 3.16-5.591 3.16-3.208 0-4.684-1.768-5.595-3.48l15.298-6.388-.793-1.87c-1.428-3.54-4.691-6.515-9.021-6.717zM173.155 35.02h5.024V1.188h-5.024z" fill="#000"/></g><defs><clipPath id="clip0_535_912"><path fill="#fff" d="M0 0h46v46H0z"/></clipPath><clipPath id="clip1_535_912"><path fill="#fff" d="M58 0h346v46H58z"/></clipPath></defs></svg>