<svg width="243" height="46" fill="none" xmlns="http://www.w3.org/2000/svg"><g clip-path="url(#clip0_535_914)"><path fill-rule="evenodd" clip-rule="evenodd" d="M44.149 32.698a.5.5 0 0 0 .065-.198c.258-.665.517-1.462.648-2.127 1.686-5.98 1.816-13.685-4.279-21.923-.153-.157-.258-.312-.348-.44-.064-.093-.115-.17-.17-.225 1.555-1.196 3.5-1.595 4.927-1.595.778 0 1.167-.93.648-1.462C40.584-.852 35.008-.72 31.117 1.406 24.765-.986 17.892-.189 13.743 2.736c-7.13 4.917-7.13 10.496-3.5 15.679A15 15 0 0 0 8.817 22.4c-.261 1.329 1.295 2.258 2.204 1.329 1.815-1.727 4.15-3.853 5.315-4.65 2.854-2.128 4.669-2.925 7.262-3.322h.128c.909-.134 1.687-.266 2.594-.266a14.88 14.88 0 0 1 14.653 12.224l.038.322c.115.934.22 1.78.22 2.733v.665l-.389-1.195c-1.556-3.056-4.536-5.315-8.169-5.315 0 .931 0 1.993-.128 2.923-.52 5.05-3.502 9.037-7.521 11.294-.13 0-.13.135-.259.135-.389.132-.908.396-1.297.53a2 2 0 0 1-.324.135c-.096.03-.194.065-.326.13a11 11 0 0 1-4.148.797h-.778c-.907 0-1.945 0-2.852-.266-2.076-.397-3.89-1.328-5.447-2.524-.907-.663-1.685-1.46-2.463-2.39 3.373 5.315 8.947 9.167 15.56 10.097a16.5 16.5 0 0 0 4.408.134 35 35 0 0 0 3.63-.665c1.17-.26 2.302-.66 3.373-1.196.907-.399 1.685-.798 2.463-1.329 0 0 .044-.046.108-.084a.3.3 0 0 1 .153-.048c.257-.268.646-.398.906-.665.599-.49 1.085-.981 1.564-1.47l-.01.01c.39-.401.65-.8 1.04-1.198.644-.792 1.288-1.718 1.934-2.642l.01-.015c.649-1.196 1.297-2.392 1.814-3.72a.5.5 0 0 1 .066-.2m-38.443-4.85v5.846H0v-5.846z" fill="#000"/></g><g clip-path="url(#clip1_535_914)"><path fill-rule="evenodd" clip-rule="evenodd" d="M223.585 40.911V36.81h5.183V7.99h-5.183v-4.1h15.551v4.1h-5.184v28.82h5.184v4.101zm-37.611 0 13.843-37.078h5.79l13.789 37.078h-5.515l-2.813-8.092h-16.765l-2.813 8.092zm9.927-12.58h13.566l-6.782-19.233zm-36.819 18.108V10.024h3.365l1.268 4.324a9.4 9.4 0 0 1 3.475-3.436c1.467-.886 3.271-1.329 5.403-1.329q3.145 0 5.791 1.718 2.703 1.664 4.302 4.878 1.654 3.157 1.654 7.705 0 4.485-1.654 7.703c-1.068 2.143-2.498 3.785-4.302 4.931a10.7 10.7 0 0 1-5.791 1.662q-3.197 0-5.403-1.275a9.7 9.7 0 0 1-3.475-3.545v13.079zM171.38 34.19q3.53 0 5.627-2.716 2.149-2.714 2.149-7.593 0-4.932-2.149-7.592-2.096-2.716-5.627-2.716-3.527 0-5.679 2.716-2.097 2.66-2.096 7.592 0 4.877 2.096 7.593 2.152 2.716 5.679 2.716m-31.425 7.385q-4.302 0-7.28-1.884a12.9 12.9 0 0 1-4.577-5.156q-1.545-3.27-1.545-7.315 0-4.377 1.766-7.537 1.766-3.214 4.741-4.933 3.034-1.772 6.784-1.773 3.256 0 5.735 1.33a11.35 11.35 0 0 1 4.082 3.492 13.7 13.7 0 0 1 2.371 4.932c.516 1.856.703 3.788.553 5.71h-21.068q.113 3.436 1.488 5.43 1.436 1.996 3.366 2.826 1.928.777 3.584.777 2.316 0 3.86-.721 1.601-.776 2.537-1.995l4.467 1.33q-1.488 2.383-4.246 3.935-2.756 1.552-6.618 1.552m-8.382-16.847h16.102q0-1.94-.991-3.715a7.5 7.5 0 0 0-2.703-2.882q-1.708-1.165-4.137-1.164a9.7 9.7 0 0 0-3.86.776 7.06 7.06 0 0 0-3.032 2.494q-1.159 1.718-1.379 4.489zm-21.346 16.847q-4.302 0-7.28-1.884a12.9 12.9 0 0 1-4.577-5.156q-1.545-3.27-1.545-7.315.001-4.377 1.764-7.537 1.765-3.214 4.744-4.933 3.032-1.772 6.784-1.773 3.253 0 5.735 1.33a11.35 11.35 0 0 1 4.081 3.492q1.654 2.162 2.371 4.932c.516 1.856.703 3.788.553 5.71H101.79q.108 3.436 1.487 5.43 1.436 1.996 3.365 2.826 1.93.777 3.585.777 2.317 0 3.86-.721 1.6-.776 2.537-1.995l4.467 1.33q-1.49 2.383-4.246 3.935-2.758 1.552-6.618 1.552m-8.384-16.847h16.105q-.001-1.94-.992-3.715a7.5 7.5 0 0 0-2.705-2.882q-1.708-1.165-4.134-1.164a9.75 9.75 0 0 0-3.861.776 7.07 7.07 0 0 0-3.032 2.494q-1.158 1.718-1.381 4.489zM61.815 40.91V3.89h10.037q4.411 0 8.05.943 3.696.885 6.4 2.99 2.701 2.107 4.19 5.712 1.487 3.546 1.487 8.81 0 5.32-1.488 8.923-1.488 3.547-4.19 5.71-2.703 2.103-6.398 3.047-3.642.886-8.05.887zm5.183-4.38h4.743a33.3 33.3 0 0 0 5.514-.442q2.705-.5 4.799-1.884 2.15-1.44 3.364-4.269 1.268-2.881 1.268-7.591 0-4.712-1.268-7.483-1.213-2.825-3.364-4.211-2.094-1.443-4.799-1.884a29.6 29.6 0 0 0-5.513-.498h-4.744z" fill="#000"/></g><defs><clipPath id="clip0_535_914"><path fill="#fff" d="M0 0h46v46H0z"/></clipPath><clipPath id="clip1_535_914"><path fill="#fff" d="M58 0h185v46H58z"/></clipPath></defs></svg>