<svg width="335" height="46" fill="none" xmlns="http://www.w3.org/2000/svg"><path fill-rule="evenodd" clip-rule="evenodd" d="M3.828 1.917h8.685v41.469H3.828zm17.254 0h8.685v41.469h-8.685zm17.251 0h25.705v6.911H47.02v9.875h15.852v6.911H47.018v10.86h17.02v6.912H38.333zm31.01 0h8.218v41.469h-8.22zM82.515 27.82c0-11.325 5.655-16.203 14.455-16.203s13.815 4.82 13.815 16.32v1.86H90.618c.291 6.737 2.33 9 6.237 9 3.087 0 5.011-1.801 5.36-4.935h8.22c-.525 6.852-6.237 10.221-13.58 10.221-9.327 0-14.34-4.937-14.34-16.263m20.167-3.427c-.408-5.692-2.389-7.551-5.827-7.551-3.44 0-5.598 1.916-6.18 7.551zm18.245-12.08h-8.394l10.142 31.075h9.035l10.142-31.075h-8.394l-6.35 23.408-6.183-23.408zm22.498 15.507c0-11.325 5.655-16.203 14.457-16.203 8.8 0 13.814 4.82 13.814 16.32v1.86h-20.167c.291 6.737 2.331 9 6.236 9 3.09 0 5.012-1.801 5.362-4.935h8.218c-.524 6.852-6.236 10.221-13.58 10.221-9.326 0-14.34-4.937-14.34-16.263m20.169-3.427c-.407-5.692-2.391-7.551-5.829-7.551-3.44 0-5.595 1.916-6.179 7.551zm21.393.696c0-4.878 2.329-7.55 5.943-7.55 2.973 0 4.664 1.86 4.664 5.867v19.98h8.22V22.13c0-7.203-4.082-10.513-10.027-10.513-4.02 0-7.344 2.032-8.8 4.703v-4.005h-8.337v31.07h8.337zM210.63 1.917h8.685v34.557h16.322v6.912H210.63zm27.048 25.903c0-11.848 5.478-16.203 12.531-16.203 3.497 0 6.703 1.974 7.986 4.063v-3.365h8.392v31.073h-8.158v-3.66c-1.226 2.439-4.664 4.355-8.454 4.355-7.46 0-12.297-4.763-12.297-16.263m14.688-10.106c4.079 0 6.294 3.078 6.294 10.106s-2.215 10.164-6.294 10.164c-4.081 0-6.413-3.135-6.413-10.164 0-7.028 2.332-10.106 6.413-10.106m28.735 22.013v3.66h-8.16V1.918h8.22v13.765c1.397-2.148 4.663-4.065 8.16-4.065 6.878 0 12.357 4.355 12.357 16.203 0 11.85-5.364 16.263-12.533 16.263-3.788 0-6.878-1.916-8.044-4.356m5.889-21.954c4.079 0 6.411 3.019 6.411 10.047s-2.332 10.164-6.411 10.164c-4.082 0-6.296-3.135-6.296-10.164 0-7.028 2.214-10.047 6.296-10.047m18.069 16.377h8.218c.116 3.253 1.866 4.82 4.954 4.82 3.089 0 4.839-1.393 4.839-3.833 0-2.206-1.342-3.018-4.255-3.718l-2.508-.636c-7.11-1.802-10.666-3.719-10.666-9.584 0-5.867 5.48-9.583 12.473-9.583 6.995 0 12.299 2.73 12.533 9.175h-8.218c-.176-2.844-1.924-4.063-4.43-4.063-2.508 0-4.255 1.219-4.255 3.542 0 2.146 1.399 2.96 3.846 3.542l2.565.64c6.761 1.683 11.016 3.367 11.016 9.64s-5.595 9.99-13.172 9.99c-8.22 0-12.766-3.078-12.94-9.932" fill="#000"/></svg>