<svg width="286" height="46" fill="none" xmlns="http://www.w3.org/2000/svg"><path fill-rule="evenodd" clip-rule="evenodd" d="m28.367 9.583-5.369 13.024-5.374-13.024h-3.446l5.888 14.237a3.143 3.143 0 0 0 5.822.004l5.925-14.24zm2.292 19.842 9.821-10.051-1.34-3.2-10.725 11a3.19 3.19 0 0 0 .501 4.874c.517.345 1.125.53 1.747.53l.004.005L46 32.545l-1.34-3.199-13.997.079zM5.52 19.366l1.34-3.199 10.725 11a3.18 3.18 0 0 1 .658 3.463 3.15 3.15 0 0 1-2.906 1.94L.004 32.535 0 32.54l1.34-3.199 13.997.08z" fill="#5019c5"/><path fill-rule="evenodd" clip-rule="evenodd" d="m56.993 37.385.003.003h3.926V23.84H73.6v-3.513H60.922v-8.814h13.946V8H56.993zM82.621 16.16h-3.682v21.225h3.682zm9.335 2.814h.003c-.082.203-.16.327-.408.327-.205 0-.285-.08-.285-.282V16.16h-3.682v21.225h3.675V25.34c0-4.078 1.886-5.67 5.444-5.67h2.945v-3.593h-2.372c-2.902 0-4.375.857-5.32 2.897m19.937 15.848c-3.948 0-6.894-2.248-7.142-7.019h17.204V25.76c0-5.917-3.599-10.205-10.148-10.205-6.55 0-10.722 4.288-10.722 11.222 0 6.936 4.049 11.223 10.801 11.223 6.75 0 9.525-4.117 10.148-7.341h-3.839c-.596 2.412-2.355 4.163-6.302 4.163m-.088-16.093c3.892 0 6.298 2.085 6.466 6.005h-13.42c.611-4.005 3.434-6.004 6.954-6.004m36.277 14.696c-.089.367-.203.492-.494.492-.293 0-.417-.125-.497-.492l-4.093-17.265h-6.344l-4.093 17.265c-.09.367-.202.492-.494.492-.293 0-.416-.125-.496-.492l-4.093-17.265h-3.6v.819h.022l4.995 20.406h6.321l4.216-17.797c.08-.29.158-.37.405-.37.203 0 .327.087.405.37l4.218 17.797h6.321l4.993-20.406v-.819h-3.598zm20.529-17.874c-6.182 0-11.09 3.874-11.09 11.223s4.905 11.221 11.091 11.221 11.091-3.872 11.091-11.221-4.911-11.223-11.092-11.223m.007 19.18c-4.296 0-7.366-2.851-7.366-7.957s3.07-7.957 7.366-7.957 7.367 2.858 7.367 7.957c0 5.098-3.07 7.957-7.367 7.957m19.349-15.757c-.078.203-.157.327-.404.327-.207 0-.285-.08-.285-.282v-2.86h-3.682v21.22h3.673V25.338c0-4.075 1.886-5.67 5.444-5.67h2.949V16.08h-2.376c-2.9 0-4.375.857-5.319 2.896zm14.213 7.064V8h-3.682v29.403h3.682v-6.778l3.992-3.411 7.941 10.182h4.026v-.82l-9.249-11.695 9.249-7.902v-.819h-4.731zm28.717-.8-3.026-.572c-2.901-.552-4.172-1.16-4.172-2.919 0-1.758 1.436-3.062 4.869-3.062 3.434 0 5.399 1.312 5.684 4.209h3.749c-.416-5.175-4.424-7.335-9.448-7.335-5.023 0-8.551 2.164-8.551 6.24 0 4.078 2.888 5.49 7.041 6.264l3.025.57c2.947.555 4.42 1.188 4.42 3.022s-1.477 3.201-5.031 3.201-5.912-1.47-6.198-4.287h-3.745c.349 5.061 4.462 7.428 9.946 7.428 5.486 0 8.718-2.344 8.718-6.553s-3.398-5.474-7.281-6.206M283.177 8h-4.128v29.403h4.128zm-24.148.285-11.443 28.581v.537h4.088l2.898-7.675h13.773l2.898 7.675h4.21v-.53L263.928 8h-4.899zm-3.097 17.888 4.919-12.912h-.003a.56.56 0 0 1 .531-.37h.202a.57.57 0 0 1 .533.37l4.881 12.912zM82.621 8h-3.682v4.328h3.682z" fill="#000"/></svg>