<svg width="46" height="46" fill="none" xmlns="http://www.w3.org/2000/svg"><path fill-rule="evenodd" clip-rule="evenodd" d="M3.833 32.875c0-5.17 4.22-9.36 9.37-9.36 5.099 0 9.277 4.15 9.277 9.268 0 5.117-4.132 9.267-9.23 9.267H3.833zm38.333 9.292H32.75c-5.099 0-9.233-4.15-9.233-9.267 0-5.118 4.179-9.267 9.277-9.267 5.152 0 9.372 4.19 9.372 9.359zm0-29.042c0 5.17-4.22 9.36-9.37 9.36-5.099 0-9.277-4.15-9.277-9.268 0-5.117 4.132-9.267 9.23-9.267h9.417zM3.833 3.833h9.417c5.098 0 9.232 4.15 9.232 9.267 0 5.118-4.178 9.268-9.278 9.268-5.15 0-9.371-4.19-9.371-9.36z" fill="#000"/></svg>