<svg width="178" height="46" fill="none" xmlns="http://www.w3.org/2000/svg"><path fill-rule="evenodd" clip-rule="evenodd" d="M25.208 5.75c-1.227 0-2.22.978-2.22 2.18v28.18c0 1.204.995 2.18 2.222 2.18h6.34c1.227 0 2.22-.978 2.22-2.18V7.93c.002-1.202-.993-2.18-2.22-2.18zm-11.96.155c-.602 0-1.148.236-1.547.62-.002.003-.007 0-.006-.005q-.001-.006-.005-.001l-.067.086q-.15.16-.267.347-.316.414-.55.874L.772 27.523l-.567 1.254-.03.065-.062.134q-.001.005.004.004a2.1 2.1 0 0 0-.115.707L0 36.171a2.185 2.185 0 0 0 2.208 2.162h6.624a2.18 2.18 0 0 0 2.208-2.162v-10.81c0-4.774 3.954-8.646 8.832-8.646a2.184 2.184 0 0 0 2.208-2.162V8.067a2.185 2.185 0 0 0-2.208-2.162zM34.96 32.93c0-2.986 2.472-5.405 5.52-5.405S46 29.945 46 32.93c0 2.98-2.472 5.403-5.52 5.403s-5.52-2.417-5.52-5.403" fill="#000"/><g clip-path="url(#clip0_537_1015)"><path fill-rule="evenodd" clip-rule="evenodd" d="M60.094 38q-.713 0-1.157-.447-.422-.447-.422-1.23V16.955h-2.18q-.6 0-.98-.336-.354-.337-.355-.961.001-.604.355-.96.38-.36.98-.359h2.18v-2.882q0-3.15 1.489-4.647 1.515-1.52 4.182-1.519 1.424 0 2.113.402.711.38.711 1.095 0 .87-.867 1.095-.221.044-.534.066h-.69q-1.623 0-2.444.871-.825.85-.825 2.794v2.725h3.937q.6 0 .957.357.378.36.378.96 0 .627-.378.961-.355.337-.957.336h-3.915v19.372q0 .78-.421 1.23-.423.445-1.157.445m11.944 0q-.69 0-1.135-.447-.444-.469-.444-1.23V6.677q0-.759.444-1.206A1.5 1.5 0 0 1 72.04 5q.688 0 1.134.47.445.446.444 1.206v29.649q0 .758-.444 1.23-.447.445-1.136.445m16.126 0q-3.18 0-5.584-1.452-2.379-1.474-3.713-4.179-1.313-2.702-1.313-6.39 0-3.685 1.313-6.39 1.334-2.702 3.713-4.155 2.404-1.473 5.584-1.474 3.204 0 5.582 1.474 2.382 1.452 3.716 4.155 1.335 2.705 1.335 6.39 0 3.665-1.335 6.39-1.335 2.704-3.716 4.179Q91.369 38 88.165 38m0-2.748q2.247 0 3.915-1.095 1.669-1.116 2.58-3.195.934-2.1.934-4.983.001-2.904-.934-4.982-.912-2.079-2.58-3.172-1.668-1.117-3.915-1.117-2.224 0-3.893 1.117-1.668 1.094-2.603 3.172-.91 2.078-.91 4.983t.91 4.982q.936 2.079 2.58 3.195 1.67 1.095 3.915 1.095M108.583 38q-.757 0-1.245-.38-.468-.379-.713-1.23l-5.872-20.175q-.06-.222-.111-.447a4 4 0 0 1-.023-.424q0-.647.423-1.005.423-.38 1.113-.38.6.001.933.313.356.314.534 1.005l5.049 18.88h.068l5.361-18.723q.398-1.473 1.912-1.474 1.446 0 1.845 1.451l5.384 18.746h.09l5.025-18.879q.178-.694.513-1.005.355-.315.955-.315.713 0 1.113.381.422.358.422 1.005 0 .203-.021.404a2 2 0 0 1-.113.445l-5.871 20.22q-.246.805-.735 1.208-.466.38-1.245.379-.823 0-1.312-.38-.467-.379-.711-1.23l-5.34-17.94h-.066l-5.316 17.963q-.223.783-.735 1.185-.51.403-1.311.402m27.514-28.263a2.06 2.06 0 0 1-1.446-.582q-.6-.602-.6-1.452t.6-1.43q.623-.602 1.446-.602.846 0 1.446.603.623.58.623 1.429t-.623 1.452a2 2 0 0 1-1.446.582m0 28.263a1.5 1.5 0 0 1-1.134-.47q-.445-.468-.445-1.206V15.636q0-.76.445-1.206a1.5 1.5 0 0 1 1.134-.47q.689 0 1.134.47.446.446.446 1.206v20.69q-.001.736-.446 1.206a1.5 1.5 0 0 1-1.134.469m7.896-5.675V16.954h-2.247q-.666 0-1.045-.357-.378-.359-.378-.961 0-.625.378-.96.378-.337 1.045-.336h2.247V9.848q0-.758.446-1.229a1.5 1.5 0 0 1 1.134-.469q.711 0 1.134.47.445.47.445 1.23v4.489h3.381q.667 0 1.023.336.378.334.378.96 0 .604-.378.96-.356.359-1.023.358h-3.381v14.724q0 1.698.645 2.48.666.782 2.223.849l.624.023q.756.046 1.112.356.378.315.378.895 0 .469-.222.803-.223.337-.713.515-.488.157-1.311.156h-.579q-2.668 0-4.005-1.319-1.31-1.339-1.311-4.11M157.45 38q-.688 0-1.134-.447-.445-.469-.444-1.23V6.655q-.001-.759.421-1.207.446-.447 1.157-.447.735 0 1.156.447.423.449.423 1.206v11.977h.09a7.2 7.2 0 0 1 2.868-3.396q2.003-1.275 4.739-1.275 3.825 0 6.049 2.37 2.226 2.343 2.225 6.253v13.74q0 .761-.446 1.23-.444.448-1.134.447-.689 0-1.134-.447-.445-.469-.445-1.23V23.12q0-2.97-1.601-4.67-1.58-1.698-4.47-1.697-2.025 0-3.559.915a6.15 6.15 0 0 0-2.358 2.526q-.824 1.608-.824 3.753v12.378q0 .758-.444 1.23-.445.445-1.135.445" fill="#000"/></g><defs><clipPath id="clip0_537_1015"><path fill="#fff" d="M52 5h126v36H52z"/></clipPath></defs></svg>