<svg width="46" height="46" fill="none" xmlns="http://www.w3.org/2000/svg"><g clip-path="url(#clip0_537_954)" fill-rule="evenodd" clip-rule="evenodd" fill="#000"><path d="M7.044 14.157a7.06 7.06 0 0 0 7.044-7.079A7.06 7.06 0 0 0 7.044 0 7.06 7.06 0 0 0 0 7.078a7.06 7.06 0 0 0 7.044 7.078m0 31.843a7.06 7.06 0 0 0 7.044-7.078 7.06 7.06 0 0 0-7.044-7.078A7.06 7.06 0 0 0 0 38.922 7.06 7.06 0 0 0 7.044 46"/><path d="M19.815 13.8q1.09-.189 2.196-.219h3.904a4.1 4.1 0 0 0 4.094-4.1V4.678c0-2.26-1.84-4.1-4.094-4.1h-4.76A4.1 4.1 0 0 0 17.06 4.68l-.153 2.85q-.066.869-.23 1.725a10 10 0 0 1-.933 2.645s-.627 1.201-1.444 2.047q-.3.306-.626.586l-.42.345a8.4 8.4 0 0 1-3.41 1.507c-.546.115-1.8.126-2.311.138h-2.87c-2.26 0-4.094 1.84-4.094 4.117v4.791c0 2.275 1.84 4.115 4.094 4.115H9.54a4.12 4.12 0 0 0 4.094-4.117V21.99c-.038-1.188.04-3.398 1.087-4.882.652-.92 1.687-1.736 1.863-1.878.467-.377.981-.69 1.53-.934.166-.074.69-.281 1.696-.471V13.8z"/><path d="M41.97.575h-5.017a3.966 3.966 0 0 0-3.967 3.973v3.387s0 2.352-.575 4.102c-.615 1.734-2.168 3.31-3.726 3.885-1.823.667-3.956.575-5.043.575h-3.047a3.967 3.967 0 0 0-3.956 3.973v5.049a3.963 3.963 0 0 0 3.956 3.973h5.025a3.97 3.97 0 0 0 3.956-3.974l.038-2.108c-.02-.784.054-2.394.434-3.565a7.2 7.2 0 0 1 1.058-2.123c.46-.627.908-1.024 1.36-1.444.83-.741 1.532-1.173 1.725-1.276.422-.253 1.15-.69 2.182-1.012.92-.282 1.61-.334 2.783-.409a22 22 0 0 1 2.794-.011 3.966 3.966 0 0 0 3.968-3.973V4.548A3.97 3.97 0 0 0 41.952.575z"/></g><defs><clipPath id="clip0_537_954"><path fill="#fff" d="M0 0h46v46H0z"/></clipPath></defs></svg>