<svg width="172" height="46" fill="none" xmlns="http://www.w3.org/2000/svg"><g clip-path="url(#clip0_537_1011)"><path fill-rule="evenodd" clip-rule="evenodd" d="M28.903 28.054a164 164 0 0 0 1.38 4.817c.456 1.514-.904 2.108-1.447.682a127 127 0 0 1-1.656-4.604c-2.955 1.486-5.903 2.724-9.244 4.117 1.336 4.913 2.569 9.022 4.485 12.926Q22.708 46 23 46c12.704 0 23-10.298 23-23 0-4.562-1.328-8.813-3.619-12.39a124 124 0 0 0-16.138 2.508 76 76 0 0 0 2.064 12.625 187 187 0 0 0 6.977-3.293c1.763-.882 3.465-.94.598 1.309a71 71 0 0 1-6.98 4.293zM41.58 9.44A23 23 0 0 0 25.984.192c-.193 3.099-.134 7.01.1 10.739 4.677-.71 9.763-1.202 15.496-1.491M22.927 0a72.5 72.5 0 0 0 .291 11.4 104 104 0 0 0-9.234 2.059 46 46 0 0 1-.192-3.981 1.534 1.534 0 0 0-3.066 0c0 1.422.117 3.055.33 4.826q-2.203.673-4.363 1.438a1.533 1.533 0 0 0 1.022 2.89 256 256 0 0 1 3.774-1.305c.613 3.756 1.546 7.908 2.621 11.902q.283 1.045.595 2.082c-3.962 1.364-8.004 2.472-11.702 3.06A22.9 22.9 0 0 1 0 23C0 10.321 10.258.038 22.927 0M4.82 37.091a22.97 22.97 0 0 0 15.788 8.786c-1.528-2.804-3.435-7.103-5.037-11.849-3.565 1.365-7.224 2.316-10.752 3.063zm21.601-10.51a75 75 0 0 1-2.361-10.163 30 30 0 0 1-.531-2.66 142 142 0 0 0-9.23 2.641 93 93 0 0 0 2.387 12.03l.506 1.885v.004l.025.088a109 109 0 0 0 4.09-1.627q2.565-1.079 5.11-2.199z" fill="#000"/></g><path fill-rule="evenodd" clip-rule="evenodd" d="M63.024 41q4.911 0 7.841-1.917 2.932-1.915 2.932-4.962 0-4.914-7.335-4.914h-3.013q-1.507 0-2.161-.294-.654-.296-.655-.983 0-.686.425-1.147.164-.196.426-.13a7.4 7.4 0 0 0 1.997.294q3.374 0 5.485-1.62 2.113-1.624 2.113-4.8 0-1.18-.426-2.096-.032-.066.016-.149a.16.16 0 0 1 .148-.08h.754q.82 0 1.375-.559.555-.556.555-1.375v-.458q0-.786-.555-1.36a1.84 1.84 0 0 0-1.376-.573h-4.814q-.228 0-.491-.066a9.4 9.4 0 0 0-2.784-.393q-2.128 0-3.897.738a6.75 6.75 0 0 0-2.931 2.358q-1.162 1.62-1.163 3.849 0 1.539.72 2.817.722 1.277 1.803 2.064.066.032.065.098 0 .067-.065.132a5.2 5.2 0 0 0-1.474 1.588q-.555.933-.556 1.915 0 2.098 1.669 3.244.067.033.066.115a.2.2 0 0 1-.066.147q-1.31.655-1.98 1.605A3.55 3.55 0 0 0 55 36.185q0 1.639 1.113 2.751 1.114 1.113 2.865 1.59 1.754.473 4.045.474m.457-17.656q-1.08 0-1.752-.77-.67-.77-.67-2.211 0-1.408.67-2.18.673-.768 1.752-.769 1.08 0 1.752.755.671.752.672 2.194 0 1.44-.672 2.211-.67.77-1.752.77m.459 13.921q-1.867 0-2.964-.507-1.096-.51-1.096-1.524 0-.819.752-1.539.101-.099.294-.099h.1q.818.165 2.49.165h1.8q1.441 0 2.111.294.673.295.672 1.08 0 .918-1.162 1.524-1.163.607-2.997.606m15.849-26.14q1.475-.002 2.424-.852.95-.852.95-2.195t-.95-2.211T79.789 5q-1.507 0-2.472.87-.967.866-.966 2.21 0 1.343.966 2.194.967.852 2.472.85m1.016 21.751q.785 0 1.358-.573t.574-1.359V15.71q0-.787-.573-1.36a1.86 1.86 0 0 0-1.36-.573H78.74q-.817 0-1.373.573a1.88 1.88 0 0 0-.559 1.36v15.232q0 .787.558 1.36.559.572 1.374.572zm14.245.459q1.244 0 2.456-.23.787-.13 1.212-.851a1.96 1.96 0 0 0 .293-1.016q0-.247-.032-.49l-.131-.526a1.74 1.74 0 0 0-.819-1.096 2.95 2.95 0 0 0-1.473-.443q-2.26-.099-2.26-2.948v-7.043q0-.23.229-.23h2.325q.787 0 1.359-.572.573-.574.573-1.36v-.82q0-.787-.573-1.359a1.86 1.86 0 0 0-1.359-.573h-2.325q-.23 0-.23-.23V10.7q0-.82-.573-1.375a1.88 1.88 0 0 0-1.358-.558H91.25q-.818 0-1.44.54t-.754 1.36l-.36 2.883q-.032.23-.294.261l-.753.066a2.03 2.03 0 0 0-1.376.672 2.04 2.04 0 0 0-.556 1.425v.555q0 .787.573 1.36.572.574 1.359.573h.424q.23 0 .23.23v7.11q0 3.57 1.638 5.55 1.637 1.982 5.109 1.983m16.014 0q2.62 0 5.174-1.212.72-.328.916-1.147.097-.254.099-.524a1.9 1.9 0 0 0-.294-.983l-.099-.196a1.93 1.93 0 0 0-1.146-.918 2.8 2.8 0 0 0-.72-.098q-.428.001-.819.131a6.8 6.8 0 0 1-2.293.393q-3.864 0-4.682-3.44a.18.18 0 0 1 .032-.18.2.2 0 0 1 .165-.08h9.004q.853 0 1.506-.54.655-.541.689-1.361v-.622q0-4.128-2.096-6.683t-6.09-2.555c-1.156 0-2.3.24-3.358.705a9.2 9.2 0 0 0-2.88 1.966q-1.262 1.26-2.031 3.177-.771 1.915-.77 4.176 0 4.619 2.733 7.304 2.734 2.688 6.96 2.687m2.226-12.12h-5.992q-.23 0-.23-.165 0-1.342 1.278-2.391.917-.785 2.193-.786 1.474 0 2.211.835.737.836.803 2.245v.032q0 .23-.263.23m17.75 12.12q2.62 0 5.175-1.212.72-.328.916-1.147.097-.254.099-.524a1.9 1.9 0 0 0-.295-.983l-.099-.196a1.92 1.92 0 0 0-1.146-.918 2.7 2.7 0 0 0-.72-.098q-.425.001-.818.131a6.9 6.9 0 0 1-2.295.393q-3.862 0-4.68-3.44a.18.18 0 0 1 .03-.18.2.2 0 0 1 .165-.08h9.006q.851 0 1.506-.54.654-.541.689-1.361v-.622q-.001-4.128-2.097-6.683c-1.395-1.703-3.428-2.555-6.09-2.555a8.3 8.3 0 0 0-3.357.705 9.2 9.2 0 0 0-2.88 1.966q-1.264 1.26-2.033 3.177-.77 1.915-.769 4.176 0 4.619 2.734 7.304 2.734 2.687 6.96 2.686zm2.227-12.12h-5.992q-.231 0-.23-.165 0-1.342 1.277-2.391.916-.785 2.194-.786 1.474 0 2.21.835.738.836.802 2.245v.032q0 .23-.261.23m13.53 11.847h-3.429l9.144-20 9.357 20h-3.357l-6-12.642zm18.389-19.6h3.429v19.6h-3.429z" fill="#000"/><defs><clipPath id="clip0_537_1011"><path fill="#fff" d="M0 0h46v46H0z"/></clipPath></defs></svg>