<svg width="218" height="46" fill="none" xmlns="http://www.w3.org/2000/svg"><g clip-path="url(#clip0_546_1151)"><path fill-rule="evenodd" clip-rule="evenodd" d="M6.426.008q-.253.048-.507.086c-.878.136-1.91.573-2.642 1.12-.544.408-1.903 1.805-2.21 2.272a6.44 6.44 0 0 0-.44 6.318c.295.617.67 1.13 1.36 1.863.359.38.832.931 1.055 1.226a12.7 12.7 0 0 1 2.5 6.797c.02.264.068 3.08.11 6.256.083 6.273.073 6.095.39 6.68.509.946 1.8 1.514 2.824 1.242.556-.148.888-.392 2.594-1.89 1.834-1.61 2.093-1.787 2.771-1.879.238-.032 1.21 0 3.182.102 2.9.153 3.109.151 3.546-.03.753-.315 1.033-.767 1.267-2.06.473-2.606 2.483-4.906 5.06-5.791.222-.077.714-.2 1.096-.276.38-.077.816-.196.97-.265a1.93 1.93 0 0 0 1.084-1.426c.033-.21-.013-1.052-.17-3.07-.174-2.26-.205-2.843-.16-3.107.11-.656.267-.882 1.937-2.776.856-.97 1.629-1.87 1.715-1.999.502-.747.552-1.744.13-2.578a2.76 2.76 0 0 0-1.575-1.284c-.192-.055-1.599-.07-6.793-.073h-6.55l-.643-.12c-1.836-.343-3.383-.94-4.761-1.837-.694-.452-1.117-.785-1.951-1.54-.782-.71-1.131-.963-1.765-1.285A5.8 5.8 0 0 0 7.176.01Q6.8-.01 6.426.008m30.146 11.228c-.253.093-.416.243-.92.843-1.135 1.355-1.419 2.56-1.018 4.324.203.893.312 1.096.692 1.29.201.103.324.105 5.054.088l4.85-.017.226-.121a1.056 1.056 0 0 0 .182-1.716 356 356 0 0 0-4.261-2.403c-4.395-2.457-4.372-2.446-4.805-2.288m-6.164 12.86q-1.362.559-2.615 1.334c-1.617 1.068-2.786 2.607-3.685 4.85-.405 1.006-.387 1.437.076 1.792.213.166 12.416 6.018 12.779 6.13.293.09.517.05.824-.143a1.03 1.03 0 0 0 .46-.832c0-.115-.058-.345-.125-.506-.299-.705-5.937-12.395-6.053-12.544-.322-.426-.755-.445-1.661-.08m-16.254 10.46c-.868.195-1.59.613-2.463 1.428-.567.53-.644.896-.32 1.529.102.197 1.17 2.116 2.37 4.263 2.485 4.44 2.338 4.228 2.986 4.22.29-.004.38-.029.567-.16a1.3 1.3 0 0 0 .331-.37c.112-.212.116-.292.154-4.974.034-3.7.029-4.811-.021-4.995a1.1 1.1 0 0 0-.265-.435c-.172-.175-.268-.215-.778-.338-1.115-.264-1.901-.316-2.56-.168" fill="#44a775"/></g><path d="M204.121 35.058q-3.478 0-6.18-1.591a11.55 11.55 0 0 1-4.164-4.384q-1.503-2.795-1.503-6.233 0-3.525 1.503-6.234c.979-1.754 2.4-3.22 4.12-4.256q2.576-1.59 5.836-1.59 2.62 0 4.68.902 2.06.903 3.477 2.494a10.6 10.6 0 0 1 2.146 3.568q.773 2.021.774 4.298-.001.56-.044 1.162a6.6 6.6 0 0 1-.171 1.117h-18.501v-3.868h15.754l-2.319 1.762q.43-2.106-.3-3.741a5.55 5.55 0 0 0-2.146-2.621q-1.417-.99-3.348-.99t-3.434.99q-1.504.945-2.318 2.75-.817 1.762-.643 4.3-.217 2.362.643 4.127a6.8 6.8 0 0 0 2.49 2.75q1.63.99 3.692.99 2.102 0 3.561-.946a6.9 6.9 0 0 0 2.361-2.45l3.949 1.934q-.687 1.633-2.146 2.967-1.416 1.289-3.434 2.063-1.974.73-4.335.731zm-21.424-.515V2h4.85v32.543zm-10.521 0V11.286h4.85v23.257zm0-26.439V2.516h4.85v5.588zM164.823 34.8q-3.647 0-5.665-2.063-2.019-2.065-2.018-5.803V15.671h-4.077v-4.385h.643q1.633 0 2.534-.945.9-.946.9-2.58V5.955h4.85v5.33h5.281v4.386h-5.281v11.048q.001 1.202.386 2.063.388.817 1.246 1.29.858.43 2.232.43.343 0 .772-.043.43-.043.816-.088v4.172q-.602.084-1.331.172-.73.085-1.288.085m-38.381 8.34V11.287h4.637V16.1l-.559-1.117a8.95 8.95 0 0 1 3.434-3.097q2.149-1.117 4.892-1.117 3.308 0 5.924 1.593a11.24 11.24 0 0 1 4.166 4.34q1.545 2.75 1.544 6.191t-1.544 6.19a11.67 11.67 0 0 1-4.122 4.384q-2.62 1.591-5.966 1.592-2.705.001-4.936-1.12a8 8 0 0 1-3.39-3.223l.77-.902v13.327zm11.934-12.596q2.06 0 3.649-.989a6.9 6.9 0 0 0 2.488-2.709q.944-1.759.944-3.954 0-2.192-.944-3.912a6.9 6.9 0 0 0-2.488-2.707q-1.588-.99-3.649-.989-2.018 0-3.648.989a7.2 7.2 0 0 0-2.534 2.707q-.902 1.719-.902 3.913t.902 3.955q.945 1.719 2.534 2.707a6.9 6.9 0 0 0 3.648.99m-27.355 4.513q-3.478 0-6.182-1.59a11.56 11.56 0 0 1-4.162-4.384q-1.504-2.795-1.503-6.233 0-3.525 1.503-6.234c.98-1.754 2.4-3.22 4.12-4.256q2.575-1.59 5.836-1.59 2.62 0 4.68.902 2.06.903 3.477 2.494a10.5 10.5 0 0 1 2.146 3.568 11.9 11.9 0 0 1 .772 4.298q0 .56-.042 1.162-.044.602-.171 1.117h-18.501v-3.868h15.756l-2.319 1.762q.429-2.106-.3-3.741a5.55 5.55 0 0 0-2.146-2.621q-1.418-.99-3.348-.99-1.932 0-3.434.99-1.504.945-2.319 2.75-.815 1.762-.644 4.3-.214 2.362.644 4.127a6.83 6.83 0 0 0 2.49 2.75q1.63.99 3.691.99 2.104 0 3.565-.946a6.9 6.9 0 0 0 2.359-2.45l3.949 1.934q-.687 1.633-2.146 2.967-1.416 1.289-3.434 2.063-1.975.73-4.335.731zm-26.455-.514V11.286h4.636v4.686l-.428-.688q.772-2.278 2.488-3.267 1.718-1.032 4.122-1.032h1.415v4.427h-2.016q-2.403 0-3.907 1.505-1.459 1.463-1.46 4.214v13.412zM67.643 44q-2.533 0-4.68-.817a11 11 0 0 1-3.69-2.279 9.06 9.06 0 0 1-2.319-3.353l4.465-1.846q.602 1.634 2.19 2.707 1.63 1.077 3.99 1.077 1.847 0 3.306-.732a5.4 5.4 0 0 0 2.317-2.065q.86-1.33.86-3.222v-5.244l.856.988a8.15 8.15 0 0 1-3.346 3.395q-2.104 1.162-4.765 1.162-3.22 0-5.794-1.505a11.06 11.06 0 0 1-4.079-4.128q-1.46-2.62-1.459-5.89 0-3.31 1.46-5.89a11.26 11.26 0 0 1 4.036-4.084q2.531-1.504 5.794-1.505 2.66 0 4.721 1.16 2.103 1.12 3.434 3.268l-.645 1.204v-5.115h4.594v22.18q0 3.01-1.46 5.375a10.04 10.04 0 0 1-3.948 3.783Q70.948 44 67.643 44m-.257-14.745q1.93 0 3.434-.903a6.8 6.8 0 0 0 2.359-2.494q.903-1.59.903-3.567t-.902-3.57a6.7 6.7 0 0 0-2.404-2.492 6.23 6.23 0 0 0-3.39-.945q-1.976 0-3.521.945a6.6 6.6 0 0 0-2.446 2.494q-.859 1.548-.858 3.568 0 1.934.858 3.525a6.94 6.94 0 0 0 2.446 2.537q1.545.9 3.521.901" fill="#000"/><defs><clipPath id="clip0_546_1151"><path fill="#fff" d="M0 0h46v46H0z"/></clipPath></defs></svg>