<svg width="46" height="46" fill="none" xmlns="http://www.w3.org/2000/svg"><path fill-rule="evenodd" clip-rule="evenodd" d="m19.097 43.54 3.201-5.538L26.916 46l5.826-3.362-5.255-9.096-1.307-2.262-1.534-2.655h-4.701L18.41 31.28l-1.307 2.262-3.835 6.637zM3.25 29.888h6.398L5.03 37.883l5.827 3.364 5.255-9.099 1.307-2.261 1.534-2.653-2.352-4.07H3.25zM7.16 9.346l3.201 5.539H1.117v6.722H17.31l2.356-4.07-1.534-2.654-1.307-2.262-3.835-6.635zm19.757-6.887L23.717 8l-4.618-8-5.826 3.362 5.253 9.096 1.31 2.262 1.533 2.655h4.701l1.534-2.655 1.305-2.262 3.835-6.637zm15.847 13.654h-6.397l4.619-7.996-5.827-3.362-5.255 9.097-1.308 2.261-1.533 2.655 2.352 4.067h13.35zm-3.91 20.54-3.2-5.538h9.242v-6.722H28.704l-2.35 4.07 1.533 2.654 1.307 2.262 3.834 6.637 5.828-3.364z" fill="#000"/></svg>