<svg width="194" height="46" fill="none" xmlns="http://www.w3.org/2000/svg"><path fill-rule="evenodd" clip-rule="evenodd" d="m19.097 43.54 3.201-5.538L26.916 46l5.826-3.362-5.255-9.096-1.307-2.262-1.534-2.655h-4.701L18.41 31.28l-1.307 2.262-3.835 6.637zM3.25 29.888h6.398L5.03 37.883l5.827 3.364 5.255-9.099 1.307-2.261 1.534-2.653-2.352-4.07H3.25zM7.16 9.346l3.201 5.539H1.117v6.722H17.31l2.356-4.07-1.534-2.654-1.307-2.262-3.835-6.635zm19.757-6.887L23.717 8l-4.618-8-5.826 3.362 5.253 9.096 1.31 2.262 1.533 2.655h4.701l1.534-2.655 1.305-2.262 3.835-6.637zm15.847 13.654h-6.397l4.619-7.996-5.827-3.362-5.255 9.097-1.308 2.261-1.533 2.655 2.352 4.067h13.35zm-3.91 20.54-3.2-5.538h9.242v-6.722H28.704l-2.35 4.07 1.533 2.654 1.307 2.262 3.834 6.637 5.828-3.364zM55.506 2l4.537 3.085v9.905h.547a10.25 10.25 0 0 1 8.692-4.59c6.996 0 11.479 5.086 11.479 12.14v16.57h-4.537V22.54c0-4.703-2.788-8.038-7.544-8.038-4.645 0-8.635 3.554-8.635 8.475v16.134h-4.54zm28.49 22.946c0-8.423 6.123-14.548 14.65-14.548 8.418 0 14.486 6.125 14.486 14.602 0 .548 0 1.204-.053 1.803h-24.44c.656 5.579 4.702 9.297 10.333 9.297 4.1 0 7.708-2.077 9.456-5.358l3.773 1.913c-2.241 4.702-7.218 7.547-13.338 7.547-8.637 0-14.87-6.398-14.87-15.258zm24.379-2.135c-.82-4.975-4.7-8.312-9.948-8.312-5.084 0-8.966 3.337-9.73 8.312zM129.656 10.4c-8.09 0-14.268 6.235-14.268 14.875s6.232 14.928 14.323 14.928c4.482 0 8.036-1.968 10.057-5.359h.547v4.267h4.537V2l-4.537 3.085v10.509h-.547c-2.021-3.335-5.684-5.196-10.112-5.196zm.547 4.102c5.903 0 10.221 4.702 10.221 10.773s-4.318 10.827-10.221 10.827-10.278-4.648-10.278-10.827c0-6.07 4.319-10.773 10.278-10.773m19.749-3.01h4.428v3.72h.491c1.259-2.516 4.319-4.266 7.38-4.266a7.8 7.8 0 0 1 3.391.71v4.211a11.3 11.3 0 0 0-4.101-.82c-4.155 0-7.051 3.718-7.051 9.187v14.875h-4.537l-.001-27.615zm28.352 11.212c-8.199.928-12.354 4.538-12.354 9.405 0 4.758 3.936 7.875 9.891 7.875 4.429 0 7.654-1.75 9.621-4.923h.495v4.048h4.537v-18.32c0-6.289-4.537-10.336-11.699-10.336-6.942 0-11.479 3.718-11.479 9.57h4.593c-.056-3.445 2.677-5.468 6.832-5.468 4.54 0 7.217 2.406 7.217 6.125v1.093zm7.654 2.954v2.46c0 4.649-3.827 8.095-9.456 8.095-3.718 0-6.013-1.588-6.013-4.213 0-2.569 2.186-4.758 7.815-5.467z" fill="#000"/></svg>