<svg width="161" height="46" fill="none" xmlns="http://www.w3.org/2000/svg"><path fill-rule="evenodd" clip-rule="evenodd" d="M22.613 22.588a7.5 7.5 0 0 1-1.57.159h-4.638a12.5 12.5 0 0 1-6.451-1.792 13 13 0 0 1-.978-.644 12.7 12.7 0 0 1-4.025-4.997q-.24-.547-.435-1.111a12.7 12.7 0 0 1-.644-3.995V0h5.142v10.208c0 .244.008.474.039.704.027.337.076.655.16.975a7.39 7.39 0 0 0 7.16 5.704h.038a6.405 6.405 0 0 1 6.21 4.997zm-13.638-1.11v12.736H3.833v-19.39c.167.619.433 1.322.575 1.594a13.4 13.4 0 0 0 4.567 5.068z" fill="#000"/><path fill-rule="evenodd" clip-rule="evenodd" d="M28.903 24.004v10.21h-5.142v-10.21c0-.241-.008-.479-.039-.709a7.42 7.42 0 0 0-3.676-5.704 7.45 7.45 0 0 0-3.641-.977h-.039a6.41 6.41 0 0 1-6.21-4.984 7.5 7.5 0 0 1 1.57-.157h4.638c2.348 0 4.562.656 6.452 1.792q.506.298.977.644a12.6 12.6 0 0 1 4.02 4.997 12.4 12.4 0 0 1 1.092 5.098zM68.3 33.705a31 31 0 0 1-.101 2.693 19 19 0 0 1-.274 2.048c-.359 1.628-1.047 3.017-2.082 4.186Q62.917 46 57.797 46c-2.884 0-5.252-.778-7.115-2.329Q47.8 41.28 47.36 37.05h5.008q.289 1.597.95 2.455c1.036 1.348 2.54 2.017 4.524 2.017q5.476-.001 5.476-6.712v-3.011c-1.978 2.022-4.263 3.036-6.846 3.036q-4.412-.002-7.224-3.19c-1.888-2.158-2.839-4.857-2.839-8.092s.882-5.819 2.636-8.02c1.888-2.336 4.389-3.503 7.49-3.503 2.718 0 4.977 1.016 6.783 3.038V12.63H68.3zM63.515 23.47q0-3.15-1.685-5.028-1.703-1.927-4.364-1.928-2.833 0-4.48 2.106c-.989 1.258-1.487 2.877-1.487 4.874 0 1.998.498 3.575 1.487 4.83q1.619 2.061 4.48 2.063 2.86 0 4.517-2.087 1.533-1.885 1.532-4.83M74.59 12.627h4.989v1.928c.912-.958 1.73-1.614 2.438-1.972.72-.37 1.583-.556 2.572-.556 1.315 0 2.685.43 4.121 1.284l-2.283 4.562c-.945-.677-1.87-1.022-2.77-1.022q-4.077.002-4.078 6.159v11.193h-4.99zM35.368 4.543q.001-1.313.95-2.258a3.1 3.1 0 0 1 2.285-.951c.888 0 1.672.318 2.304.95.638.62.95 1.385.95 2.285s-.32 1.672-.95 2.304a3.05 3.05 0 0 1-2.284.95 3.14 3.14 0 0 1-2.304-.95 3.16 3.16 0 0 1-.951-2.33m5.91 8.092v21.577h-5.323V12.627h5.322zm69.633 11.958H95.444q.2 2.66 1.729 4.23 1.53 1.552 3.925 1.552 1.855.001 3.082-.889c.575-.427 1.2-1.116 1.658-2.055h5.137c-.332 1.572-1.302 3.077-1.992 3.906-.688.83-1.428 1.513-2.258 2.017q-1.245.765-2.679 1.117a13 13 0 0 1-3.126.357q-4.835-.001-7.755-3.101c-1.951-2.088-2.929-4.844-2.929-8.29 0-3.444.945-6.175 2.84-8.288 1.908-2.087 4.436-3.126 7.581-3.126s5.685 1.014 7.537 3.036c1.83 2.01 2.75 4.792 2.75 8.353l-.027 1.175zm-5.117-4.077c-.696-2.662-2.375-3.989-5.028-3.989q-.91-.001-1.705.274a5 5 0 0 0-1.453.798c-.435.345-.81.767-1.118 1.251a5.6 5.6 0 0 0-.709 1.658H105.8zm19.749 14.28c-5.75 0-9.123-3.173-9.974-7.384h5.342c.728 1.622 2.545 2.731 4.837 2.731 2.293 0 3.655-1.098 3.655-2.405 0-1.046-1.224-2.08-4.235-2.572-4.309-.71-6.255-1.6-7.466-3.184-1.079-1.399-1.328-3.12-1.021-4.665.599-3.082 3.584-5.673 9.104-5.32 4.958.312 7.914 4.281 8.188 7.394h-4.895c-.422-1.518-1.505-2.597-3.611-2.915-1.806-.274-3.68.293-3.784 1.819-.102 1.523 1.411 2.022 4.198 2.482 7.294 1.2 8.736 4.523 8.667 7.109-.115 4.21-3.906 6.923-9.011 6.923zm22.421 0c-5.75 0-9.123-3.173-9.974-7.384h5.342c.728 1.622 2.545 2.731 4.836 2.731 2.29 0 3.657-1.098 3.657-2.405 0-1.046-1.227-2.08-4.236-2.572-4.309-.71-6.254-1.6-7.468-3.184-1.077-1.399-1.326-3.12-1.019-4.665.6-3.082 3.584-5.673 9.104-5.32 4.958.312 7.914 4.281 8.188 7.394h-4.895c-.422-1.518-1.505-2.597-3.611-2.915-1.806-.274-3.68.293-3.784 1.819-.103 1.523 1.411 2.022 4.198 2.482 7.295 1.2 8.736 4.523 8.665 7.109-.115 4.21-3.904 6.923-9.008 6.923zM23.76 12.736V0h5.143v19.39a10 10 0 0 0-.575-1.594 13.4 13.4 0 0 0-4.567-5.067z" fill="#000"/></svg>