<svg width="46" height="46" fill="none" xmlns="http://www.w3.org/2000/svg"><g clip-path="url(#clip0_546_1105)"><path d="M23 46c12.703 0 23-10.297 23-23S35.703 0 23 0 0 10.298 0 23s10.298 23 23 23" fill="#0055e9"/><path d="M23 0q1.49.001 2.929.184a11.86 11.86 0 0 1-2.699 23.353l-.23.002c-5.73 0-10.047 4.176-10.645 9.794-.428 3.998.676 8.456 4.297 11.78C7.038 42.358 0 33.5 0 23 0 10.298 10.298 0 23 0" fill="#a8dff5"/><path d="M10.132 9.583a4.673 4.673 0 0 1 1.307 6.479c-7.594 11.435-6.162 20.59 5.075 29.01C6.969 42.274 0 33.45 0 23c0-3.425.748-6.674 2.09-9.595a49 49 0 0 1 1.565-2.513 4.673 4.673 0 0 1 6.477-1.309" fill="#0055e9"/><path d="M24.879.077q.783.061 1.552.178c1.118.203 2.141.487 2.948.843 12.723 5.61 15.467 19.267 3.35 29.98a7.906 7.906 0 0 1-11.158-.685c-2.895-3.27-2.492-8.02.684-11.16 1.644-1.625 5.957-2.343 7.753-4.678C32.417 11.423 34.075 3.038 25.172.17z" fill="#00bcff"/><path d="M25.929.184A11.858 11.858 0 0 1 23 23.539a11 11 0 0 0-3.277.488c.281-1.734 1.14-3.419 2.532-4.793 1.644-1.626 5.957-2.344 7.753-4.679 2.434-3.164 4.101-11.7-5.13-14.478q.53.04 1.05.107" fill="#ececee"/></g><defs><clipPath id="clip0_546_1105"><path fill="#fff" d="M0 0h46v46H0z"/></clipPath></defs></svg>