<svg width="46" height="46" fill="none" xmlns="http://www.w3.org/2000/svg"><g clip-path="url(#clip0_546_1099)"><path d="M39.7 12.756c-.794-2.734-3.35-4.739-6.434-4.739a6.94 6.94 0 0 0-3.259.811c-1.985-2.99-5.466-4.995-9.432-4.995-5.682 0-10.397 4.14-11.1 9.476C4.097 14.164 0 18.645 0 24.112c0 6.018 5.022 10.886 11.236 10.886 3.085 0 5.903-1.238 7.93-3.202.53-.512 1.015-1.068 1.411-1.706a9.6 9.6 0 0 1-1.366 1.62 17.25 17.25 0 0 0-3.393 10.33v.127a31.97 31.97 0 0 1 16.61-5.208h.088c5.817 0 10.797-3.586 12.69-8.623.534-1.434.803-2.953.794-4.483 0-4.652-2.51-8.75-6.3-11.098m-26.348 11.91a1.6 1.6 0 0 1-1.632 1.579 1.553 1.553 0 0 1-1.543-1.58v-4.183a1.55 1.55 0 0 1 1.543-1.58c.882 0 1.63.727 1.63 1.58zm5.77 2.049a1.65 1.65 0 0 1-1.675 1.621 1.65 1.65 0 0 1-1.673-1.621v-9.392a1.65 1.65 0 0 1 1.673-1.622 1.647 1.647 0 0 1 1.676 1.622zm5.95-2.007c0 .853-.794 1.58-1.675 1.58-.882 0-1.63-.727-1.63-1.58v-4.269c0-.855.704-1.579 1.63-1.579.881 0 1.673.724 1.673 1.58v4.268zm6.036 2.049a1.65 1.65 0 0 1-1.676 1.621 1.65 1.65 0 0 1-1.673-1.621v-9.392a1.65 1.65 0 0 1 1.673-1.621 1.65 1.65 0 0 1 1.676 1.621zm5.903-2.091a1.6 1.6 0 0 1-1.63 1.579 1.553 1.553 0 0 1-1.542-1.58v-4.183a1.55 1.55 0 0 1 1.543-1.58c.881 0 1.629.727 1.629 1.58z" fill="#2a80e2"/></g><defs><clipPath id="clip0_546_1099"><path fill="#fff" d="M0 0h46v46H0z"/></clipPath></defs></svg>