<svg width="295" height="46" fill="none" xmlns="http://www.w3.org/2000/svg"><path fill-rule="evenodd" clip-rule="evenodd" d="M5.183 41.475c-.852 0-1.352-.499-1.352-1.327v-.437c0-.828.398-1.215 1.14-1.49l1.647-.55c1.14-.44 1.537-.94 1.537-2.1V8.746c0-1.16-.397-1.656-1.537-2.099l-1.659-.55c-.74-.276-1.128-.658-1.128-1.491v-.437c0-.83.512-1.327 1.364-1.327h11.21c.854 0 1.366.499 1.366 1.327v.437c0 .828-.399 1.215-1.138 1.49l-1.66.547c-1.196.437-1.595.94-1.595 2.099v26.822c0 1.157.399 1.654 1.594 2.097l1.647.552c.742.276 1.14.655 1.14 1.489v.437c0 .83-.511 1.326-1.366 1.326zm15.99.036c-.853 0-1.354-.498-1.354-1.326V39.8c0-.774.398-1.161 1.193-1.381l1.128-.33c1.127-.334 1.537-.876 1.537-2.099V21.697c0-1.656-.453-2.32-2.617-2.816-.902-.218-1.251-.552-1.251-1.313v-.341c0-.608.339-1.05 1.191-1.326l5.067-1.93c1.353-.499 2.218 0 2.218 1.38v1.213c0 .552.453.719.903.439l.9-.499c2.733-1.656 5.804-2.706 8.877-2.706 4.666 0 7.17 2.818 7.17 7.728v14.47c0 1.214.398 1.764 1.59 2.098l1.084.33c.797.218 1.193.609 1.193 1.38v.385c0 .83-.511 1.326-1.365 1.326h-6.088c-.856 0-1.368-.498-1.368-1.326V22.636c0-3.258-.852-4.913-3.754-4.913s-5.916 1.093-7.567 2.097c-1.023.552-1.308 1.093-1.308 2.153v14.022c0 1.215.396 1.765 1.536 2.099l1.126.33c.8.218 1.196.609 1.196 1.38v.385c0 .83-.512 1.326-1.353 1.326zm41.959 0h-9.929c-.856 0-1.37-.498-1.37-1.328v-.387c0-.775.4-1.162 1.198-1.384l1.142-.332c1.141-.331 1.54-.885 1.54-2.102V18.542c0-.387-.286-.663-.684-.663h-2.054c-.856 0-1.37-.556-1.37-1.384v-.39c0-.774.4-1.216 1.085-1.548l.626-.276c.914-.498 1.142-.887 1.313-1.882l.287-2.657C55.826 3.21 59.705 0 66.61 0c2.394 0 4.85.61 6.503 1.273.345.166.628.166 1.029 0l2.852-1.05c1.37-.556 2.281 0 2.281 1.381v34.374c0 1.217.4 1.77 1.598 2.102l1.142.332c.798.222 1.199.61 1.199 1.384v.387c0 .832-.571 1.328-1.427 1.328h-9.871c-.914 0-1.427-.498-1.427-1.328v-.387c0-.775.4-1.162 1.199-1.384l1.141-.332c1.198-.331 1.598-.885 1.598-2.102V8.635c0-.997-.4-1.607-1.312-2.325-2.17-1.66-5.306-2.712-8.218-2.712-3.937 0-5.707 1.993-5.707 5.257 0 3.43 1.77 5.424 6.676 5.424h.971c.857 0 1.37.498 1.37 1.33v.94c0 .831-.513 1.33-1.37 1.33H61.36c-.399 0-.741.276-.741.663v17.436c0 1.217.4 1.77 1.54 2.102l1.141.332c.8.222 1.2.61 1.2 1.384v.387c0 .832-.512 1.328-1.368 1.328m44.721-5.251c-1.308 2.924-4.948 5.907-11.206 5.907-7.967 0-13.884-5.574-13.884-14.128 0-8.612 5.689-14.132 13.028-14.132 5.639 0 10.014 3.038 11.265 8.503.226 1.048-.168 1.544-1.023 1.82L89.136 30.3a.7.7 0 0 0-.389.357.65.65 0 0 0-.011.518c1.308 3.808 4.495 6.401 9.102 6.401 3.586 0 6.092-1.31 7.509-2.978.742-.773 1.541-1.093 2.28-.61.68.395.739 1.112.226 2.272M87.657 25.994q-.006.329.056.655c.057.33.283.499.739.276l12.29-4.523c.512-.167.853-.39.625-1.052-.91-2.586-3.186-3.847-5.747-3.847-4.494 0-7.963 3.249-7.963 8.49m22.416 2.041c0-8.445 5.349-14.074 12.915-14.074 1.82 0 2.902.498 4.157.498 1.362 0 1.875-.498 2.559-.498.74 0 1.023.332 1.364.993l2.787 5.96c.399.875.115 1.547-.511 1.821l-.226.11c-.677.387-1.353.22-1.935-.437-3.075-3.48-5.124-5.08-8.195-5.08-4.21 0-7.965 3.255-7.965 8.996 0 6.564 4.04 11.258 10.354 11.258 3.074 0 4.952-.772 6.373-2.152.902-.828 1.536-.993 2.22-.606.625.383.967.993.173 2.373-1.596 2.98-5.414 4.966-9.958 4.966-8.65 0-14.112-5.63-14.112-14.128m29.471 8.5V18.708a.62.62 0 0 0-.191-.47.66.66 0 0 0-.485-.186h-2.049c-.851 0-1.364-.498-1.364-1.215v-.391c0-.655.226-1.093.965-1.6 1.935-1.38 3.416-3.09 5.067-5.354.511-.772 1.08-1.048 1.705-1.048.854 0 1.423.55 1.423 1.436v3.917a.62.62 0 0 0 .192.47.65.65 0 0 0 .484.186h5.291c.854 0 1.366.498 1.366 1.313v.939c0 .828-.512 1.324-1.366 1.324h-5.519a.68.68 0 0 0-.484.188.63.63 0 0 0-.192.47v16.999c0 1.767.854 2.593 2.619 2.593 2.9 0 3.185-1.311 4.494-1.311a1.08 1.08 0 0 1 .789.316q.15.155.227.358c.05.133.072.276.064.418 0 2.043-2.389 4.085-6.599 4.085-4.387.019-6.437-2.134-6.437-5.608m17.185 5.076c-.852 0-1.364-.495-1.364-1.323v-.387c0-.772.401-1.16 1.196-1.38l1.128-.33c1.138-.333 1.536-.875 1.536-2.098V21.909c0-1.656-.452-2.319-2.617-2.815-.902-.219-1.252-.55-1.252-1.325v-.331c0-.606.341-1.047 1.195-1.313l5.291-2.043c1.423-.497 2.276 0 2.276 1.38v20.635c0 1.215.4 1.767 1.536 2.098l1.128.33c.795.218 1.194.61 1.194 1.38v.387c0 .828-.514 1.325-1.355 1.325zm.512-35.819c0-1.93 1.595-3.421 3.814-3.421s3.812 1.491 3.812 3.421c0 1.932-1.596 3.423-3.816 3.423s-3.81-1.545-3.81-3.423m10.694 22.243c0-8.391 5.919-14.131 13.657-14.131 7.737 0 13.652 5.74 13.652 14.131s-5.915 14.128-13.652 14.128c-7.739 0-13.657-5.74-13.657-14.128m22.361 1.269c0-6.126-3.358-11.377-9.559-11.377-4.551 0-7.852 3.2-7.852 8.776 0 6.181 3.414 11.423 9.559 11.423 4.551.008 7.854-3.193 7.854-8.812zm6.827 12.309c-.854 0-1.368-.497-1.368-1.327v-.383c0-.772.401-1.16 1.196-1.38l1.128-.332c1.128-.333 1.538-.875 1.538-2.098V21.798c0-1.656-.452-2.319-2.618-2.815-.903-.219-1.251-.55-1.251-1.313v-.341c0-.608.339-1.05 1.195-1.325l5.063-1.932c1.366-.498 2.218 0 2.218 1.38v1.213c0 .552.452.72.902.44l.903-.499c2.731-1.654 5.806-2.704 8.876-2.704 4.667 0 7.171 2.815 7.171 7.726v14.47c0 1.214.396 1.764 1.591 2.097l1.081.33c.797.22 1.195.61 1.195 1.38v.387c0 .828-.511 1.325-1.352 1.325h-6.065c-.853 0-1.364-.497-1.364-1.325V22.735c0-3.256-.856-4.91-3.756-4.91s-5.918 1.094-7.569 2.097c-1.023.554-1.308 1.092-1.308 2.152V36.1c0 1.213.4 1.763 1.536 2.096l1.128.33c.795.22 1.196.61 1.196 1.38v.387c0 .828-.514 1.325-1.368 1.325zm92.686-.025h-11.241c-.856 0-1.37-.498-1.37-1.328v-.443c0-.83.401-1.22 1.14-1.495l1.657-.554c1.142-.44 1.54-.94 1.54-2.103v-26.9c0-1.162-.398-1.66-1.54-2.103l-1.657-.554c-.739-.276-1.14-.663-1.14-1.495v-.44c0-.832.514-1.33 1.37-1.33h11.241c.856 0 1.369.498 1.369 1.328v.442c0 .832-.398 1.22-1.139 1.495l-1.656.554c-1.199.443-1.599.94-1.599 2.103v26.9c0 1.162.4 1.66 1.599 2.103l1.656.556c.741.274 1.139.663 1.139 1.493v.44c0 .833-.513 1.33-1.369 1.33m-41.264 0h-10.101c-.912 0-1.425-.498-1.425-1.328v-.388c0-.72.285-1.052 1.027-1.328l1.254-.498c1.542-.61 2.339-1.44 2.912-2.768l10.042-25.572c.57-1.437.057-2.27-1.255-2.768l-1.942-.663c-1.196-.443-1.481-.997-1.255-1.826l.115-.443c.23-.775.686-1.164 1.597-1.164h6.621c.854 0 1.482.39 1.768 1.164l12.553 30.663c.798 1.936 1.542 2.656 2.911 3.266l1.197.498c.742.332 1.027.774 1.027 1.384v.44c0 .833-.513 1.33-1.369 1.33h-10.728c-.912 0-1.427-.498-1.427-1.327v-.443c0-.61.286-1.052 1.029-1.273l1.084-.389c1.425-.498 1.596-.997 1.14-2.212l-1.883-4.926c-.115-.333-.399-.498-.799-.498H248.83c-.4 0-.683.165-.798.552l-1.655 4.374c-.514 1.382-.115 2.158 1.484 2.821l1.025.387c.743.223 1.029.666 1.029 1.22v.387c0 .83-.514 1.328-1.37 1.328m1.77-14.446h10.725c.516 0 .742-.278.571-.776l-5.534-14.168c-.228-.554-.684-.554-.914 0l-5.419 14.168c-.172.498.113.776.571.776" fill="#000"/></svg>