<svg width="211" height="46" fill="none" xmlns="http://www.w3.org/2000/svg"><mask id="mask0_546_1144" style="mask-type:luminance" maskUnits="userSpaceOnUse" x="1" y="1" width="43" height="41"><path d="M10.076 3.465c6.73 9.455 17.584 14.649 28.379 12.641.763-.142 1.593-.396 2.456-.728 1.639-.632 3.785 1.937 2.541 3.177a56 56 0 0 1-2.314 2.198 98 98 0 0 1-16.079 11.584 98 98 0 0 1-18.19 8.172c-.867.288-1.877.583-2.963.875-1.695.457-2.844-2.683-1.477-3.785.726-.585 1.367-1.181 1.876-1.776 7.136-8.345 7.768-20.157 2.82-30.654a35 35 0 0 1-.699-1.61C5.74 1.88 7.746.642 8.923 2.02a22 22 0 0 1 1.153 1.444" fill="#fff"/></mask><g mask="url(#mask0_546_1144)"><path d="m5.857-1.101 19.15 36.04 27.467-17.23-19.15-36.041z" fill="url(#paint0_linear_546_1144)"/><path d="m5.857-1.101 19.15 36.04L-2.46 52.17l-19.15-36.04z" fill="url(#paint1_linear_546_1144)"/><path d="m44.157 70.98-19.15-36.04 27.467-17.232 19.15 36.041z" fill="url(#paint2_linear_546_1144)"/><path d="m44.157 70.98-19.15-36.04L-2.46 52.17l19.15 36.041z" fill="url(#paint3_linear_546_1144)"/></g><mask id="mask1_546_1144" style="mask-type:luminance" maskUnits="userSpaceOnUse" x="14" y="26" width="24" height="19"><path d="M37.43 26.248c-4.452 5.488-5.395 11.393-4.556 16.452l.047.305c.223 1.516-1.565 2.45-2.776 1.51l-.178-.137c-4.063-3.093-8.856-5.42-15.235-4.688 3.861-1.131 7.81-2.808 11.666-5.034 4.235-2.445 7.95-5.317 11.033-8.408" fill="#fff"/></mask><g mask="url(#mask1_546_1144)"><path d="m5.65-.78 26.148 45.29L59.47 28.533l-26.148-45.29z" fill="url(#paint4_linear_546_1144)"/><path d="m5.65-.78 26.148 45.29L4.125 60.487l-26.15-45.29z" fill="url(#paint5_linear_546_1144)"/><path d="m57.947 89.801-26.15-45.29 27.674-15.978 26.149 45.29z" fill="url(#paint6_linear_546_1144)"/><path d="m57.947 89.801-26.15-45.29L4.126 60.486l26.148 45.291z" fill="url(#paint7_linear_546_1144)"/></g><path fill-rule="evenodd" clip-rule="evenodd" d="m115.954 14.572-.901 6.335h3.655c1.74 0 3.349-1.404 3.592-3.133l.43-3.013a25.5 25.5 0 0 0 3.182 5.355 112 112 0 0 1 4.452-1.647c-1.573-1.354-4.438-4.487-6.816-7.945h5.284c.611 0 1.102-.43 1.193-1.022l.29-2.063h-6.545l.271-1.907h-5.763a1.19 1.19 0 0 0-1.193 1.02l-.131.887h-5.999a1.19 1.19 0 0 0-1.193 1.022l-.292 2.063h5.036c-1.152 2.04-4.328 7.042-6.346 9.862 0 0 4.522-1.952 7.775-5.807zm31.344-4.05h5.207c.612 0 1.104-.428 1.193-1.02l.292-2.063h-6.463l.271-1.907h-5.762a1.194 1.194 0 0 0-1.194 1.02l-.124.887h-6.075a1.19 1.19 0 0 0-1.193 1.022l-.29 2.062h5.124c-1.153 2.04-4.328 7.041-6.346 9.86 0 0 4.522-1.95 7.775-5.806l-.903 6.335h3.655c1.741 0 3.35-1.403 3.593-3.132l.43-3.014c1.303 3.035 3.181 5.355 3.181 5.355a111 111 0 0 1 4.452-1.646c-1.572-1.355-4.445-4.488-6.814-7.946zm-20.699 12.886h-8.085l-7.691 8.321c4.722 0 9.195-1.813 12.489-5.064l.229-.228h17.918c-.944 1.872-3.647 4.41-7.711 6.75-5.54-4.494-10.644-2.861-10.644-2.861s2.31 2.166 5.034 5.542c-5.277 2.098-11.843 3.619-19.271 3.619l-.2.603s32.738 4.106 40.559-13.667l.228-1.64h-24.255l1.407-1.39zM80.798 6.05H61.34a1.11 1.11 0 0 0-1.074.938l-4.446 31.22-.327 2.276 14.319-2.772-.283 2.007h7.073l1.254-8.812h-3.924c-1.74 0-3.35 1.403-3.593 3.132l-.27 1.876-6.975.868 1.42-9.987H79.03l2.76-19.392.026-.201v-.056a1.096 1.096 0 0 0-1.025-1.09l.007-.008zm-8.605 19.107H64.75l1.13-7.924h7.442zm1.359-9.55H66.11l1.13-7.924h7.44zm29.833-9.55H87.151a1.11 1.11 0 0 0-1.075.938L81.305 40.49h7.072l4.667-32.8h4.264L93.35 35.507h3.924c1.74 0 3.35-1.403 3.593-3.132l3.564-24.997v-.035c.014-.063.028-.125.028-.194a1.103 1.103 0 0 0-1.076-1.098zm73.356-.521h-2.385a1.1 1.1 0 0 0-.797.416l-.104.16-22.058 34.366h2.677l4.403-6.932h18.229v-.014l2.268 6.946h9.224zM159.51 31.914l11.102-17.417 5.526 17.418zM200.001 5.5h-.21a1.09 1.09 0 0 0-.956.826l-.021.147-5.451 33.941h8.121L207.088 5.5z" fill="#000"/><defs><linearGradient id="paint0_linear_546_1144" x1="25.007" y1="34.939" x2="28.951" y2="4.291" gradientUnits="userSpaceOnUse"><stop stop-color="#27b2f0"/><stop offset=".203" stop-color="#26dffb"/><stop offset=".406" stop-color="#30f5fe"/><stop offset=".653" stop-color="#f0fefc"/><stop offset=".863" stop-color="#fbc610"/><stop offset="1" stop-color="#fd9c22"/></linearGradient><linearGradient id="paint1_linear_546_1144" x1="25.007" y1="34.939" x2="-1.795" y2="24.344" gradientUnits="userSpaceOnUse"><stop stop-color="#27b2f0"/><stop offset=".203" stop-color="#26dffb"/><stop offset=".406" stop-color="#30f5fe"/><stop offset=".653" stop-color="#f0fefc"/><stop offset=".863" stop-color="#fbc610"/><stop offset="1" stop-color="#fd9c22"/></linearGradient><linearGradient id="paint2_linear_546_1144" x1="25.007" y1="34.939" x2="51.808" y2="45.535" gradientUnits="userSpaceOnUse"><stop stop-color="#27b2f0"/><stop offset=".203" stop-color="#26dffb"/><stop offset=".406" stop-color="#30f5fe"/><stop offset=".653" stop-color="#f0fefc"/><stop offset=".863" stop-color="#fbc610"/><stop offset="1" stop-color="#fd9c22"/></linearGradient><linearGradient id="paint3_linear_546_1144" x1="25.007" y1="34.939" x2="21.063" y2="65.587" gradientUnits="userSpaceOnUse"><stop stop-color="#27b2f0"/><stop offset=".203" stop-color="#26dffb"/><stop offset=".406" stop-color="#30f5fe"/><stop offset=".653" stop-color="#f0fefc"/><stop offset=".863" stop-color="#fbc610"/><stop offset="1" stop-color="#fd9c22"/></linearGradient><linearGradient id="paint4_linear_546_1144" x1="31.798" y1="44.51" x2="31.246" y2="34.852" gradientUnits="userSpaceOnUse"><stop stop-color="#1c6fff"/><stop offset="1" stop-color="#24b5ef"/></linearGradient><linearGradient id="paint5_linear_546_1144" x1="31.798" y1="44.51" x2="23.709" y2="39.203" gradientUnits="userSpaceOnUse"><stop stop-color="#1c6fff"/><stop offset="1" stop-color="#24b5ef"/></linearGradient><linearGradient id="paint6_linear_546_1144" x1="31.798" y1="44.51" x2="39.887" y2="49.818" gradientUnits="userSpaceOnUse"><stop stop-color="#1c6fff"/><stop offset="1" stop-color="#24b5ef"/></linearGradient><linearGradient id="paint7_linear_546_1144" x1="31.798" y1="44.51" x2="32.35" y2="54.169" gradientUnits="userSpaceOnUse"><stop stop-color="#1c6fff"/><stop offset="1" stop-color="#24b5ef"/></linearGradient></defs></svg>