<svg width="46" height="46" fill="none" xmlns="http://www.w3.org/2000/svg"><g clip-path="url(#clip0_546_1028)" fill-rule="evenodd" clip-rule="evenodd" fill="#000"><path d="M14.223.033c3.75-.263 7.054 2.346 7.537 5.947.46 3.42-1.882 6.727-5.401 7.504-.882.195-1.86.14-2.795.258a9.82 9.82 0 0 0-5.83 2.843l-.02.01-.019-.002-.013-.012-.006-.02q0-.016.01-.032a.1.1 0 0 0 .015-.048q-.035-4.818-.021-9.637C7.686 3.28 10.5.297 14.223.033"/><path d="M14.618 29.827c-4.769-.038-8.186-4.734-6.526-9.125a7.03 7.03 0 0 1 5.85-4.477c.814-.087 1.794-.066 2.578-.21 4.032-.747 7.149-3.833 7.777-7.76.14-.87.066-1.909.273-2.833.952-4.278 5.855-6.677 9.972-4.745 2.145 1.01 3.584 2.917 3.94 5.194q.108.698.072 1.734c-.466 12.397-11.056 22.324-23.936 22.218m6.009 1.974a.1.1 0 0 1-.046-.042v-.013l.004-.012q-.001-.007.005-.01l.012-.005q7.339-1.681 12.717-6.758.096-.09.176.013c.574.76 1.175 1.572 1.655 2.348a22.5 22.5 0 0 1 3.363 10.377q.079 1.124.05 1.739c-.178 3.618-3.205 6.535-7.025 6.556-3.379.021-6.35-2.284-6.99-5.51-.153-.765-.107-1.82-.233-2.628q-.599-3.724-3.64-6.026zm-7.15 14.092c-2.87-.498-5.18-2.73-5.696-5.503a10.6 10.6 0 0 1-.105-1.735v-9.173q0-.044.033-.015c1.876 1.668 3.85 2.687 6.426 2.856l.69.02c3.356.11 6.199 2.309 6.854 5.502.97 4.722-3.304 8.903-8.203 8.05z"/></g><defs><clipPath id="clip0_546_1028"><path fill="#fff" d="M0 0h46v46H0z"/></clipPath></defs></svg>