<svg width="105" height="46" fill="none" xmlns="http://www.w3.org/2000/svg"><path fill-rule="evenodd" clip-rule="evenodd" d="M26.724 3.833h8.165l-4.802 10.82a7.5 7.5 0 0 1-1.774 2.475 7.4 7.4 0 0 1-2.61 1.558h4.008v.019a7.3 7.3 0 0 1 4.824 2.334 7.36 7.36 0 0 1 1.95 5.007v16.12h-7.302v-19.45a5.7 5.7 0 0 1-2.106 2.424 5.7 5.7 0 0 1-3.074.904H11.121v16.123H3.818V3.9h7.303v14.786h9.138zm22.779 0H42.22v38.334h7.283zm44.802 0h7.284v38.334h-7.284zM55.242 42.167V3.833h7.36l9.33 15.004 9.313-15.004h7.324v38.334h-7.284V17.6L71.94 32.656l-9.412-15.138v24.649z" fill="#000"/></svg>