<svg width="46" height="46" fill="none" xmlns="http://www.w3.org/2000/svg"><path d="M3.833 11.498 23.751 0v46L3.833 34.5z" fill="#000"/><path d="M23.751 46 3.833 34.5 23.751 23l19.92 11.5z" fill="url(#paint0_linear_524_476)"/><path d="M23.751 46 3.833 34.5 23.751 23l19.92 11.5z" fill="url(#paint1_linear_524_476)"/><path style="mix-blend-mode:screen" d="M3.833 11.498 23.751 0v46L3.833 34.5z" fill="url(#paint2_linear_524_476)"/><path style="mix-blend-mode:overlay" d="M23.751 46 3.833 34.5 23.751 23l19.92 11.5z" fill="url(#paint3_linear_524_476)"/><path style="mix-blend-mode:overlay" d="M3.833 11.498 23.751 0v46L3.833 34.5z" fill="url(#paint4_linear_524_476)"/><defs><linearGradient id="paint0_linear_524_476" x1="3.833" y1="34.5" x2="43.671" y2="34.5" gradientUnits="userSpaceOnUse"><stop stop-color="#00a"/><stop offset="1" stop-color="#a78dff"/></linearGradient><linearGradient id="paint1_linear_524_476" x1="3.833" y1="34.5" x2="43.671" y2="34.5" gradientUnits="userSpaceOnUse"><stop stop-color="#00a"/><stop offset="1" stop-color="#a78dff"/></linearGradient><linearGradient id="paint2_linear_524_476" x1="26.35" y1="43.397" x2="8.954" y2="7.178" gradientUnits="userSpaceOnUse"><stop stop-color="#004eff"/><stop offset="1" stop-color="#0ff"/></linearGradient><linearGradient id="paint3_linear_524_476" x1="3.833" y1="34.5" x2="43.671" y2="34.5" gradientUnits="userSpaceOnUse"><stop stop-color="#00a"/><stop offset="1" stop-color="#a78dff"/></linearGradient><linearGradient id="paint4_linear_524_476" x1="26.35" y1="43.397" x2="8.954" y2="7.178" gradientUnits="userSpaceOnUse"><stop stop-color="#004eff"/><stop offset="1" stop-color="#0ff"/></linearGradient></defs></svg>