<svg width="221" height="46" fill="none" xmlns="http://www.w3.org/2000/svg"><path d="M3.833 11.498 23.751 0v46L3.833 34.5z" fill="#000"/><path d="M23.751 46 3.833 34.5 23.751 23l19.92 11.5z" fill="url(#paint0_linear_524_496)"/><path d="M23.751 46 3.833 34.5 23.751 23l19.92 11.5z" fill="url(#paint1_linear_524_496)"/><path style="mix-blend-mode:screen" d="M3.833 11.498 23.751 0v46L3.833 34.5z" fill="url(#paint2_linear_524_496)"/><path style="mix-blend-mode:overlay" d="M23.751 46 3.833 34.5 23.751 23l19.92 11.5z" fill="url(#paint3_linear_524_496)"/><path style="mix-blend-mode:overlay" d="M3.833 11.498 23.751 0v46L3.833 34.5z" fill="url(#paint4_linear_524_496)"/><path fill-rule="evenodd" clip-rule="evenodd" d="M57.009 8h3.481v26.033h13.43v3.224H57.008zm42.73 18.099q.001 2.397-.62 4.545a10.3 10.3 0 0 1-1.907 3.803q-1.285 1.61-3.4 2.602-2.112.952-5.138.951-3.025 0-5.14-.951-2.113-.991-3.44-2.602a11.2 11.2 0 0 1-1.906-3.803 17.4 17.4 0 0 1-.581-4.545V8h3.483v17.604q0 1.776.371 3.429.374 1.653 1.245 2.934.87 1.281 2.321 2.066 1.45.744 3.647.743 2.196 0 3.647-.744a6.5 6.5 0 0 0 2.322-2.065 8.5 8.5 0 0 0 1.242-2.934q.374-1.654.373-3.429V8h3.482zM106.916 8h5.18l9.948 22.935h.082L132.156 8h5.055v29.256h-3.48V12.71h-.084L123.12 37.256h-2.114L110.479 12.71h-.083v24.546h-3.483V8zm47.133 0h3.275l12.475 29.256h-4.062l-2.983-7.19h-14.672l-3.026 7.19h-3.938zm1.575 4.463h-.083l-6.093 14.38h11.979zM194.766 8h3.275l12.475 29.256h-4.062l-2.983-7.19h-14.674l-3.024 7.19h-3.938zm1.575 4.463h-.083l-6.093 14.38h11.979zM214.416 8h3.481v29.256h-3.481z" fill="#000"/><defs><linearGradient id="paint0_linear_524_496" x1="3.833" y1="34.5" x2="43.671" y2="34.5" gradientUnits="userSpaceOnUse"><stop stop-color="#00a"/><stop offset="1" stop-color="#a78dff"/></linearGradient><linearGradient id="paint1_linear_524_496" x1="3.833" y1="34.5" x2="43.671" y2="34.5" gradientUnits="userSpaceOnUse"><stop stop-color="#00a"/><stop offset="1" stop-color="#a78dff"/></linearGradient><linearGradient id="paint2_linear_524_496" x1="26.35" y1="43.397" x2="8.954" y2="7.178" gradientUnits="userSpaceOnUse"><stop stop-color="#004eff"/><stop offset="1" stop-color="#0ff"/></linearGradient><linearGradient id="paint3_linear_524_496" x1="3.833" y1="34.5" x2="43.671" y2="34.5" gradientUnits="userSpaceOnUse"><stop stop-color="#00a"/><stop offset="1" stop-color="#a78dff"/></linearGradient><linearGradient id="paint4_linear_524_496" x1="26.35" y1="43.397" x2="8.954" y2="7.178" gradientUnits="userSpaceOnUse"><stop stop-color="#004eff"/><stop offset="1" stop-color="#0ff"/></linearGradient></defs></svg>