<svg width="322" height="46" fill="none" xmlns="http://www.w3.org/2000/svg"><path d="M13.88 3.092a2.13 2.13 0 0 1 2.018-1.45h13.373l-13.88 41.13a2.13 2.13 0 0 1-2.017 1.447H2.967a2.127 2.127 0 0 1-2.019-2.81z" fill="url(#paint0_linear_526_677)"/><path d="M35.26 29.317H14.183a.978.978 0 0 0-.665 1.69L27.06 43.649a2.13 2.13 0 0 0 1.453.571h11.933z" fill="#0078d4"/><path d="M29.271 1.643H14.37L0 44.219h14.902l3.06-9.065 9.713 9.065h12.774l-5.188-14.902H19.93z" fill="url(#paint1_linear_526_677)"/><path d="M32.953 3.092a2.13 2.13 0 0 0-2.016-1.45h-14.97.068c.914 0 1.725.583 2.016 1.45L30.985 41.41a2.128 2.128 0 0 1-2.017 2.81h-.23 15.133a2.128 2.128 0 0 0 2.016-2.81z" fill="url(#paint2_linear_526_677)"/><path fill-rule="evenodd" clip-rule="evenodd" d="m236.595 10.033 10.353 27.487h-5.254l-2.433-6.822h-10.837l-2.338 6.822h-5.218l10.355-27.488zm-2.704 5.1h-.135l-4.068 11.577h8.247l-4.043-11.579zm15.424 2.682h15.746v1.86L254.724 33.84h10.395v3.68h-16.533v-2.205l10.184-13.82h-9.455zm36.232 0V37.52h-4.682v-2.586h-.074a6.3 6.3 0 0 1-2.465 2.097q-1.546.758-3.463.759c-2.291 0-4.03-.65-5.225-1.947q-1.796-1.944-1.797-6.048v-11.98h4.703V29.24q-.001 2.492.988 3.747.985 1.255 2.98 1.255 1.976.002 3.166-1.389c.794-.925 1.187-2.139 1.187-3.631V17.814zm13.337-.326q.555 0 .997.076t.749.192v4.697c-.245-.18-.596-.348-1.063-.507q-.701-.24-1.696-.24-1.71 0-2.89 1.437-1.18 1.44-1.18 4.428v9.948h-4.641V17.814h4.641v3.105h.078c.419-1.072 1.063-1.912 1.917-2.52q1.286-.909 3.088-.91m11.488-.075q4.087-.002 6.364 2.5 2.269 2.502 2.269 6.911v2.241h-13.502q.309 2.97 1.911 4.152c1.063.786 2.445 1.177 4.131 1.177q1.67 0 3.183-.508a10.3 10.3 0 0 0 2.686-1.33v3.816q-1.15.727-3.011 1.175a16.8 16.8 0 0 1-3.972.452q-4.506 0-7.007-2.664-2.505-2.665-2.503-7.417-.001-4.583 2.675-7.546 2.675-2.96 6.776-2.96zm0 3.544q-1.664 0-2.988 1.2-1.324 1.195-1.767 3.515h8.823q.001-2.296-1.063-3.507-1.063-1.206-3.005-1.207M86.76 10.034V37.52h-4.776V15.974h-.076L73.374 37.52h-3.165l-8.747-21.546h-.057V37.52h-4.41V10.032h6.846l7.9 20.378h.114l8.346-20.377zm3.993 2.089q0-1.15.836-1.926a2.8 2.8 0 0 1 1.983-.777q1.228 0 2.034.795.805.797.805 1.908 0 1.131-.823 1.896-.826.769-2.016.768-1.188 0-2.003-.775a2.5 2.5 0 0 1-.816-1.889m.48 25.398h4.64V17.814h-4.64zm18.719-3.375c.69 0 1.452-.156 2.282-.477a9.6 9.6 0 0 0 2.302-1.266v4.314c-.79.44-1.64.762-2.523.959a13.8 13.8 0 0 1-3.096.325q-4.355 0-7.079-2.751-2.722-2.749-2.723-7.025 0-4.753 2.782-7.83 2.78-3.076 7.883-3.076 1.303 0 2.636.334 1.334.333 2.12.777v4.447a9.6 9.6 0 0 0-2.198-1.219 6.3 6.3 0 0 0-2.29-.43q-2.741 0-4.432 1.784-1.685 1.783-1.686 4.81 0 2.99 1.62 4.657 1.62 1.669 4.402 1.667m17.797-16.655q.557 0 .999.077.44.076.748.192v4.697q-.366-.269-1.064-.508-.702-.241-1.698-.24-1.707 0-2.887 1.438-1.178 1.44-1.178 4.427v9.949h-4.641V17.816h4.641v3.105h.075q.633-1.61 1.918-2.521t3.087-.91m1.999 10.466q0-4.888 2.759-7.743 2.765-2.857 7.672-2.856 4.624 0 7.222 2.751t2.598 7.428q.001 4.792-2.761 7.627-2.762 2.839-7.519 2.837-4.583 0-7.276-2.693-2.696-2.69-2.695-7.351m4.833-.151c0 2.055.464 3.63 1.4 4.714q1.397 1.629 4.008 1.629 2.532 0 3.854-1.629 1.324-1.627 1.323-4.83 0-3.184-1.37-4.8-1.373-1.622-3.845-1.623-2.553 0-3.961 1.698-1.41 1.696-1.409 4.84m22.323-4.812q0 .996.632 1.563.634.562 2.801 1.426 2.781 1.112 3.904 2.505c.748.923 1.121 2.046 1.121 3.36q0 2.783-2.138 4.468c-1.424 1.126-3.354 1.687-5.782 1.687a14 14 0 0 1-2.715-.297q-1.486-.296-2.522-.76v-4.56a11.5 11.5 0 0 0 2.724 1.4q1.458.517 2.647.516 1.57.001 2.321-.441.745-.44.747-1.473.001-.96-.777-1.622-.776-.66-2.943-1.524-2.57-1.072-3.645-2.415-1.072-1.34-1.074-3.412.001-2.666 2.12-4.38 2.12-1.715 5.494-1.714 1.035 0 2.321.227 1.287.232 2.148.595v4.41a10 10 0 0 0-2.148-1.055 7.2 7.2 0 0 0-2.434-.441q-1.325 0-2.064.517a1.65 1.65 0 0 0-.738 1.42m10.454 4.965q-.001-4.89 2.761-7.745 2.76-2.857 7.671-2.856 4.623 0 7.223 2.751 2.597 2.751 2.597 7.428-.001 4.792-2.76 7.627-2.764 2.839-7.521 2.837-4.581 0-7.278-2.693-2.693-2.692-2.693-7.353zm4.831-.153c0 2.055.469 3.63 1.4 4.714q1.403 1.629 4.008 1.629 2.534 0 3.857-1.629 1.321-1.627 1.322-4.83.001-3.184-1.371-4.8c-.912-1.081-2.197-1.623-3.844-1.623q-2.551 0-3.961 1.698-1.411 1.696-1.411 4.84m30.819-6.192h-6.914V37.52h-4.696V21.611H188.1v-3.795h3.298v-2.742q0-3.105 2.025-5.09Q195.443 8 198.609 8q.844 0 1.494.087.655.086 1.153.258v4.008a5 5 0 0 0-.808-.327 4.2 4.2 0 0 0-1.323-.192q-1.456 0-2.242.91-.788.913-.789 2.693v2.379h6.914v-4.428l4.661-1.419v5.847h4.698v3.795h-4.698v9.219q0 1.822.661 2.568.66.75 2.083.749.4 0 .969-.192.561-.191.985-.46v3.835q-.44.25-1.468.46-1.025.21-2.021.21-2.935.001-4.405-1.565-1.466-1.558-1.467-4.704v-10.12z" fill="#000"/><defs><linearGradient id="paint0_linear_526_677" x1="15.806" y1="3.116" x2="1.92" y2="44.141" gradientUnits="userSpaceOnUse"><stop stop-color="#114a8b"/><stop offset="1" stop-color="#0669bc"/></linearGradient><linearGradient id="paint1_linear_526_677" x1="26.914" y1="29.329" x2="23.621" y2="30.452" gradientUnits="userSpaceOnUse"><stop stop-opacity=".3"/><stop offset=".071" stop-opacity=".2"/><stop offset=".321" stop-opacity=".1"/><stop offset=".623" stop-opacity=".05"/><stop offset="1" stop-opacity="0"/></linearGradient><linearGradient id="paint2_linear_526_677" x1="24.612" y1="3.116" x2="39.853" y2="43.727" gradientUnits="userSpaceOnUse"><stop stop-color="#3ccbf4"/><stop offset="1" stop-color="#2892df"/></linearGradient></defs></svg>