<svg width="46" height="46" fill="none" xmlns="http://www.w3.org/2000/svg"><path d="M13.88 3.092a2.13 2.13 0 0 1 2.018-1.45h13.373l-13.88 41.13a2.13 2.13 0 0 1-2.017 1.447H2.967a2.127 2.127 0 0 1-2.019-2.81z" fill="url(#paint0_linear_526_642)"/><path d="M35.26 29.317H14.183a.978.978 0 0 0-.665 1.69L27.06 43.649a2.13 2.13 0 0 0 1.453.571h11.933z" fill="#0078d4"/><path d="M29.271 1.643H14.37L0 44.219h14.902l3.06-9.065 9.713 9.065h12.774l-5.188-14.902H19.93z" fill="url(#paint1_linear_526_642)"/><path d="M32.953 3.092a2.13 2.13 0 0 0-2.016-1.45h-14.97.068c.914 0 1.725.583 2.016 1.45L30.985 41.41a2.128 2.128 0 0 1-2.017 2.81h-.23 15.133a2.128 2.128 0 0 0 2.016-2.81z" fill="url(#paint2_linear_526_642)"/><defs><linearGradient id="paint0_linear_526_642" x1="15.806" y1="3.116" x2="1.92" y2="44.141" gradientUnits="userSpaceOnUse"><stop stop-color="#114a8b"/><stop offset="1" stop-color="#0669bc"/></linearGradient><linearGradient id="paint1_linear_526_642" x1="26.914" y1="29.329" x2="23.621" y2="30.452" gradientUnits="userSpaceOnUse"><stop stop-opacity=".3"/><stop offset=".071" stop-opacity=".2"/><stop offset=".321" stop-opacity=".1"/><stop offset=".623" stop-opacity=".05"/><stop offset="1" stop-opacity="0"/></linearGradient><linearGradient id="paint2_linear_526_642" x1="24.612" y1="3.116" x2="39.853" y2="43.727" gradientUnits="userSpaceOnUse"><stop stop-color="#3ccbf4"/><stop offset="1" stop-color="#2892df"/></linearGradient></defs></svg>