<svg width="257" height="46" fill="none" xmlns="http://www.w3.org/2000/svg"><path fill-rule="evenodd" clip-rule="evenodd" d="M3.836 43.39V1.916h12.562l7.543 28.29 7.455-28.29h12.591V43.39h-7.796V10.743l-8.25 32.646h-8.083l-8.224-32.646v32.646zM51.805 9.273V1.92h7.969v7.356h-7.97zm0 34.118V13.348h7.969v30.045zm12.863-8.573 7.998-1.217q.509 2.321 2.07 3.523c1.89 1.656 7.197 1.526 9.017.069 1.128-.774 1.445-2.62.48-3.623q-.594-.563-2.664-1.044-9.64-2.123-12.221-3.876c-4.638-2.924-4.728-9.928-.483-13.324 3.375-3.45 15.059-3.412 18.772-.652q3.005 2.01 4.14 5.942L84.264 22c-.792-2.687-2.717-3.614-5.67-3.622q-3.15.002-4.508.878c-1.133.734-1.248 2.26-.115 3.057q1.077.792 7.442 2.233 6.367 1.442 8.891 3.536c3.822 3.247 3.097 9.833-.965 13.014-4.002 3.853-15.517 3.899-19.977.48-2.391-1.659-3.956-3.909-4.693-6.759m61.143 8.572h-7.967V13.345h7.403v4.272q1.898-3.027 3.414-3.989c2.635-1.642 6.03-1.027 8.692.537l-2.466 6.933c-3.6-2.39-7.382-1.553-8.408 2.942-.898 2.591-.631 14.873-.666 19.35zm20.464-20.877-7.23-1.301c1.945-6.532 5.907-8.491 13.044-8.543 5.389.071 9.213.694 11.612 4.454q1.064 1.939 1.063 7.117c.025 3.314-.341 12.42.297 15.12q.383 1.881 1.433 4.031h-7.883c-.238-.52-.788-2.464-1.049-3.28-2.643 2.558-5.696 3.959-9.33 3.96-5.649.112-10.012-3.365-10.01-8.883-.021-3.297 1.669-6.181 4.638-7.596q2.197-1.061 6.336-1.853 5.586-1.047 7.743-1.951v-.792q0-2.292-1.134-3.268c-1.093-1.115-6.035-1.426-7.6-.142q-1.192.836-1.93 2.927m10.664 6.45c-1.452.604-7.938 1.648-9.187 2.603-2.065 1.355-1.991 4.103-.313 5.686 1.951 1.892 5.125 1.405 7.289-.197 2.635-1.884 2.142-4.706 2.211-8.09zm15.215 14.426V1.917h7.969V43.39zm68.885 0h-9.131l-3.629-9.42h-16.618l-3.431 9.42h-8.905l16.193-41.472h8.874zm-15.454-16.406-5.729-15.391-5.614 15.39zm19.187 16.406V1.917h8.392V43.39zm-131.655-30.04v6.338h-5.446v12.108l.155 4.285c.832 2.178 3.092 1.365 5.261.637l.681 6.167c-4.634 1.956-13.176 2.185-13.838-4.496-.184-1.03-.236-3.623-.255-6.593V19.686h-3.66V13.35h3.66V7.38l7.998-4.64v10.61h5.443z" fill="#000"/></svg>