<svg width="46" height="46" fill="none" xmlns="http://www.w3.org/2000/svg"><path fill-rule="evenodd" clip-rule="evenodd" d="M41.304 19.174a10.38 10.38 0 0 0-.916-8.627C38.055 6.542 33.369 4.48 28.792 5.45a10.7 10.7 0 0 0-8.033-3.532c-4.678-.01-8.83 2.963-10.27 7.356a10.64 10.64 0 0 0-7.116 5.094 10.52 10.52 0 0 0 1.325 12.459 10.38 10.38 0 0 0 .914 8.629c2.333 4.005 7.019 6.066 11.596 5.098a10.7 10.7 0 0 0 8.03 3.53c4.683.012 8.837-2.963 10.276-7.36a10.64 10.64 0 0 0 7.12-5.098 10.52 10.52 0 0 0-1.328-12.453zM25.24 41.327a8.05 8.05 0 0 1-5.126-1.828c.065-.035.178-.096.252-.142l8.51-4.85a1.36 1.36 0 0 0 .698-1.193V21.476l3.598 2.05a.13.13 0 0 1 .069.095v9.804c-.006 4.358-3.584 7.893-8 7.902M8.036 34.078a7.78 7.78 0 0 1-.955-5.295c.061.038.173.105.251.15l8.51 4.848a1.4 1.4 0 0 0 1.4 0l10.388-5.918v4.097a.13.13 0 0 1-.052.11l-8.602 4.899c-3.832 2.177-8.725.881-10.938-2.895zm-2.241-18.33a7.96 7.96 0 0 1 4.169-3.462l-.004.29v9.698a1.36 1.36 0 0 0 .698 1.196l10.388 5.916-3.596 2.051a.13.13 0 0 1-.12.01l-8.604-4.905C4.9 24.357 3.59 19.531 5.792 15.752zm29.55 6.784-10.389-5.918 3.596-2.047a.13.13 0 0 1 .12-.012l8.604 4.901c3.83 2.185 5.143 7.019 2.93 10.797a7.98 7.98 0 0 1-4.166 3.463v-9.988a1.36 1.36 0 0 0-.696-1.194zm3.578-5.315-.253-.15-8.51-4.848a1.4 1.4 0 0 0-1.397 0l-10.389 5.918V14.04a.13.13 0 0 1 .052-.11l8.6-4.897c3.833-2.179 8.73-.881 10.938 2.9a7.8 7.8 0 0 1 .959 5.284M16.418 24.52l-3.597-2.047a.13.13 0 0 1-.07-.098v-9.804c.003-4.364 3.59-7.9 8.014-7.896 1.87 0 3.68.648 5.12 1.828a7 7 0 0 0-.252.14l-8.51 4.85a1.36 1.36 0 0 0-.7 1.193l-.005 11.832zm1.955-4.155L23 17.729l4.627 2.636v5.27L23 28.271l-4.629-2.636v-5.27z" fill="#000"/></svg>