<svg width="46" height="46" fill="none" xmlns="http://www.w3.org/2000/svg"><path d="M24.158 2.568a893 893 0 0 1 2.25 3.977.35.35 0 0 0 .301.175H37.35q.5 0 .855.627l2.787 4.925c.364.646.46.917.046 1.605q-.746 1.237-1.457 2.491l-.703 1.262c-.203.375-.428.536-.077.98l5.083 8.888c.33.577.213.947-.082 1.476a252 252 0 0 1-2.559 4.485c-.305.522-.675.719-1.303.71q-2.234-.046-4.46.03a.19.19 0 0 0-.155.096 1106 1106 0 0 1-5.185 9.085c-.324.561-.729.696-1.39.698q-2.865.008-5.782.003a1.03 1.03 0 0 1-.892-.519l-2.558-4.452a.17.17 0 0 0-.16-.094H9.55a3.4 3.4 0 0 1-1.543-.177L4.934 33.53a1.04 1.04 0 0 1-.004-1.035l2.313-4.063a.38.38 0 0 0 0-.378 1056 1056 0 0 1-3.593-6.271l-1.515-2.674c-.306-.594-.331-.95.183-1.85q1.335-2.337 2.658-4.668c.253-.449.583-.64 1.12-.643q2.48-.01 4.961-.001a.24.24 0 0 0 .206-.121l5.378-9.382a.94.94 0 0 1 .809-.472c1.004-.002 2.018 0 3.034-.011l1.949-.044c.654-.006 1.388.061 1.725.651m-6.578.773a.12.12 0 0 0-.1.057l-5.493 9.612a.3.3 0 0 1-.259.15H6.235q-.161 0-.078.142l11.136 19.465q.07.12-.066.121l-5.357.029a.42.42 0 0 0-.383.222l-2.53 4.428q-.126.226.13.226l10.956.015q.13 0 .2.117l2.688 4.704q.132.234.267 0l9.594-16.79 1.501-2.65a.1.1 0 0 1 .092-.053.1.1 0 0 1 .092.054l2.73 4.849a.23.23 0 0 0 .205.119l5.296-.039a.08.08 0 0 0 .067-.038.08.08 0 0 0 0-.077l-5.559-9.748a.21.21 0 0 1 0-.216l.562-.972 2.147-3.79q.069-.117-.068-.118H17.634q-.17 0-.083-.148L20.3 8.211a.2.2 0 0 0 0-.219L17.68 3.4a.12.12 0 0 0-.101-.06m12.056 15.371q.133 0 .065.115l-1.595 2.808-5.008 8.788a.11.11 0 0 1-.096.056.11.11 0 0 1-.096-.056l-6.618-11.561q-.056-.098.054-.104l.414-.023 12.884-.023z" fill="url(#paint0_linear_523_422)"/><defs><linearGradient id="paint0_linear_523_422" x1="1.916" y1="1.916" x2="4218.64" y2="1.916" gradientUnits="userSpaceOnUse"><stop stop-color="#6336e7" stop-opacity=".84"/><stop offset="1" stop-color="#6f69f7" stop-opacity=".84"/></linearGradient></defs></svg>