<svg width="195" height="46" fill="none" xmlns="http://www.w3.org/2000/svg"><path fill-rule="evenodd" clip-rule="evenodd" d="M34.232 44.068c-5.116.47-9.367-5.512-12.644-8.537-1.658 11.924-19.671 10.808-19.671-1.3V11.789c0-1.766.468-3.567 1.405-5.08 1.729-2.919 5.08-4.83 8.466-4.791h22.444c12.106 0 13.26 18.013 1.298 19.632l5.692 5.656c6.233 5.873 1.549 17.114-6.988 16.861zm-2.737-7.132c3.53 3.638 9.15-1.982 5.512-5.512l-9.836-9.837h-5.512V27.1l8.502 8.502zM7.897 34.197c-.07 5.045 7.89 5.045 7.782 0V11.753c.072-2.522-2.594-4.504-5.007-3.747-.109.036-.216.07-.287.107-1.514.577-2.559 2.09-2.524 3.71v22.374zm26.335-18.553c5.045.07 5.045-7.855 0-7.782H20.867c1.008 2.126.757 5.476.792 7.782z" fill="#000"/><g clip-path="url(#clip0_522_405)"><path fill-rule="evenodd" clip-rule="evenodd" d="M57 12.995h5.138l.495 2.661c.99-2.104 3.155-3.156 5.444-3.156a8.3 8.3 0 0 1 3.004.588l-1.208 6.158a5.9 5.9 0 0 0-3.002-.804c-2.072 0-3.775 1.392-3.775 4.517v9.933H57zm16.185 12.503V12.872h6.188V24.35c0 2.32 1.33 3.56 3.28 3.56 1.98 0 3.682-1.517 3.682-4.86V12.902h6.19v19.93h-5.168l-.681-2.631c-.99 1.577-3.405 3.094-6.405 3.094-4.055-.03-7.088-2.568-7.088-7.797zM95.71 12.994h5.107l.681 2.631c.96-1.58 3.342-3.094 6.312-3.094 3.93 0 6.9 2.505 6.9 7.735v12.657h-6.095V21.536c0-2.352-1.206-3.621-3.217-3.621-1.857 0-3.56 1.517-3.56 4.951v10.088h-6.096l-.03-19.959zm20.362-.123h6.096l3.621 13.584 3.217-8.943-1.578-4.641h6.066l3.93 13.584 3.495-13.584h6.129l-6.498 20.052h-6.25l-2.693-7.985-2.784 7.985h-6.22zm31.317 10.026c0-6.84 4.95-10.366 9.499-10.366 2.784 0 4.796 1.113 5.787 2.258l.555-1.795h5.633V32.8h-5.352l-.836-1.95c-.835.99-2.631 2.414-6.066 2.414-4.92 0-9.22-4.023-9.22-10.366m15.502 0c0-3.219-2.073-5.199-4.704-5.199-2.661 0-4.702 2.01-4.702 5.199 0 3.186 2.041 5.198 4.702 5.198 2.631 0 4.704-1.98 4.704-5.198M175.208 41l3.375-9.129-8.018-18.999h6.561l4.455 12.408 4.023-12.408h6.405L181.461 41z" fill="#000"/></g><defs><clipPath id="clip0_522_405"><path fill="#fff" d="M54 5h141v36H54z"/></clipPath></defs></svg>