<svg width="233" height="46" fill="none" xmlns="http://www.w3.org/2000/svg"><g clip-path="url(#clip0_524_494)"><path d="M22.99 38.747a3.627 3.627 0 1 0 0 7.255 3.627 3.627 0 0 0 0-7.255m0 5.379a1.776 1.776 0 1 1 1.777-1.752 1.75 1.75 0 0 1-1.776 1.752" fill="#4285f4"/><path fill-rule="evenodd" clip-rule="evenodd" d="M41.567 27.11c.454.072.866.306 1.16.659a1.875 1.875 0 0 1-.346 2.491L26.588 41.917a3.63 3.63 0 0 0-2.198-2.89l15.87-11.653a1.9 1.9 0 0 1 1.307-.265" fill="#669df6"/><path fill-rule="evenodd" clip-rule="evenodd" d="M19.4 41.864 3.651 30.237a1.824 1.824 0 0 1-.395-2.466 1.874 1.874 0 0 1 2.467-.395l15.87 11.653a3.63 3.63 0 0 0-2.193 2.835" fill="#aecbfa"/><path d="M8.19 8.577a1.875 1.875 0 0 1-1.85-1.85V2.09a1.874 1.874 0 1 1 3.725 0v4.639a1.875 1.875 0 0 1-1.875 1.85m-.05 16.405a1.875 1.875 0 1 0 0-3.75 1.875 1.875 0 0 0 0 3.75m0-5.451a1.874 1.874 0 1 0 0-3.75 1.874 1.874 0 0 0 0 3.75m0-5.478a1.875 1.875 0 1 0 0-3.75 1.875 1.875 0 0 0 0 3.75" fill="#aecbfa"/><path d="M37.793 14.005a1.874 1.874 0 0 1-1.85-1.876V7.49a1.85 1.85 0 1 1 3.7 0v4.639a1.847 1.847 0 0 1-1.85 1.876m.048 11.002a1.874 1.874 0 1 0 0-3.75 1.874 1.874 0 0 0 0 3.75m0-5.55a1.874 1.874 0 1 0 0-3.75 1.874 1.874 0 0 0 0 3.75m0-15.493a1.874 1.874 0 1 0 0-3.749 1.874 1.874 0 0 0 0 3.749" fill="#4285f4"/><path d="M22.99 30.508a1.875 1.875 0 0 1-1.849-1.85v-4.713a1.874 1.874 0 0 1 3.724 0v4.663a1.87 1.87 0 0 1-1.874 1.9m0 5.453a1.875 1.875 0 1 0 0-3.75 1.875 1.875 0 0 0 0 3.75m0-15.568a1.875 1.875 0 1 0 0-3.75 1.875 1.875 0 0 0 0 3.75m0-5.476a1.875 1.875 0 1 0 0-3.749 1.875 1.875 0 0 0 0 3.75" fill="#669df6"/><path d="M30.391 19.506a1.875 1.875 0 0 1-1.85-1.85v-4.638a1.873 1.873 0 0 1 3.263-1.462 1.88 1.88 0 0 1 .462 1.462v4.638a1.874 1.874 0 0 1-1.875 1.85m.025-10.09a1.875 1.875 0 1 0 0-3.75 1.875 1.875 0 0 0 0 3.75m0 20.969a1.875 1.875 0 1 0 0-3.75 1.875 1.875 0 0 0 0 3.75m0-5.476a1.875 1.875 0 1 0 0-3.75 1.875 1.875 0 0 0 0 3.75" fill="#4285f4"/><path d="M15.565 30.385a1.875 1.875 0 1 0 0-3.75 1.875 1.875 0 0 0 0 3.75m0-15.468a1.875 1.875 0 1 0 0-3.749 1.875 1.875 0 0 0 0 3.75m0-5.5a1.876 1.876 0 1 0 0-3.752 1.876 1.876 0 0 0 0 3.752m.025 15.492a1.874 1.874 0 0 1-1.875-1.802v-4.686a1.85 1.85 0 0 1 3.7 0v4.686a1.85 1.85 0 0 1-1.825 1.802" fill="#aecbfa"/></g><path fill-rule="evenodd" clip-rule="evenodd" d="M66.897 37.28h4.34L82.99 5h-4.61l-9.222 26.193h-.181L60.114 5h-4.61zm130.434-.001h-4.612L204.925 5h4.701l12.207 32.279h-4.611l-3.12-8.746h-13.607zm9.855-27.185-5.289 14.562h10.758l-5.288-14.562zm22.602 27.186h-4.159V5h4.159zm-46.523-.002-7.912-11.225 7.732-10.865h-4.883l-5.199 7.8-5.47-7.8h-4.704l7.641 10.864-7.822 11.227h4.883l5.379-8.16 5.471 8.16zM150.968 38q-4.882 0-8.047-3.336-3.164-3.336-3.165-8.43.001-5.05 3.074-8.385 3.076-3.382 7.867-3.383 4.928.001 7.822 3.202 2.937 3.156 2.938 8.881l-.045.45h-17.405q.09 3.247 2.169 5.23t4.973 1.983q3.978 0 6.239-3.966l3.706 1.804a10.97 10.97 0 0 1-4.159 4.372q-2.621 1.579-5.967 1.578m-6.645-14.425h12.703q-.18-2.3-1.899-3.788-1.672-1.532-4.521-1.533-2.35 0-4.068 1.443-1.674 1.44-2.215 3.876zm-14.851 12.397q1.808 1.667 4.521 1.668 2.17 0 3.797-.585l-1.312-3.697q-.405.18-.902.315-.451.09-.951.09-1.083 0-1.943-.765-.859-.812-.859-3.021V18.976h5.424V15.19h-5.424V8.428h-4.159v6.762h-3.889v3.786h3.889v12.352q.044 2.977 1.808 4.644m-17.45-20.784h-3.979V37.28h4.159V25.109q0-2.751 1.853-4.509 1.9-1.803 4.793-1.803l1.854.18v-4.329l-.86-.09q-5.785 0-7.64 4.238h-.18zM93.751 38q-4.882 0-8.047-3.336-3.164-3.336-3.165-8.43 0-5.05 3.075-8.385 3.075-3.382 7.867-3.383 4.927.001 7.821 3.202 2.937 3.156 2.938 8.881l-.045.45H86.79q.09 3.247 2.169 5.23t4.973 1.983q3.978 0 6.239-3.966l3.707 1.804a11 11 0 0 1-4.16 4.372q-2.62 1.579-5.967 1.578m-6.645-14.425h12.703q-.18-2.3-1.898-3.788-1.672-1.532-4.522-1.533-2.35 0-4.067 1.443-1.675 1.44-2.216 3.876z" fill="#000"/><defs><clipPath id="clip0_524_494"><path fill="#fff" d="M0 0h46v46H0z"/></clipPath></defs></svg>