<svg width="50" height="50" fill="none" xmlns="http://www.w3.org/2000/svg"><path d="M24.908 5c-.76 0-1.522.044-2.261.132v20.11h4.566v-1.93l13.068-.045c.087.637.13 1.294.13 1.952 0 7.15-4.783 13.18-11.284 15.022V45C38.194 43.07 45 34.934 45 25.22 45 14.056 36.02 5 24.952 5zm14.025 13.64h-11.72V9.78c5.219.79 9.568 4.19 11.72 8.838z" fill="#000"/><path d="M20.845 5v4.759h.022C14.359 11.6 9.592 17.632 9.592 24.78c0 7.829 5.725 14.32 13.212 15.438v-9.013h-4.375v-4.649h8.924v18.311q-1.11.132-2.285.132C13.989 45 5 35.943 5 24.78 5 15.067 11.79 6.953 20.867 5" fill="#000"/></svg>