<svg width="97" height="50" fill="none" xmlns="http://www.w3.org/2000/svg"><path d="M6 7h7v29H6z" fill="#ab0012"/><path d="M24.1 21.477v5.334h-6.153v-5.334h-2.034v13.62h2.034v-6.351H24.1v6.35h2.059V21.478zm10.32-.223c-3.051 0-4.788 1.563-5.557 2.506-1.364 1.686-1.588 3.547-1.588 4.515 0 2.952 1.613 5.433 4.193 6.5 1.29.545 2.48.545 2.878.545 2.977-.05 5.408-1.637 6.524-4.267a7.3 7.3 0 0 0 .596-2.878c0-.744-.174-3.324-2.283-5.21-1.29-1.14-2.902-1.736-4.788-1.736zm-3.2 3.051c.372-.297 1.39-1.091 3.15-1.091 2.06 0 3.796 1.116 4.54 2.902.397.968.397 1.836.397 2.134 0 2.381-1.34 3.672-1.91 4.093-1.116.844-2.282 1.017-2.878 1.017-2.183.1-3.423-1.066-3.969-1.761-.968-1.24-1.091-2.605-1.091-3.324 0-.72.173-2.605 1.786-3.97zm42.844 4.317h5.16v-1.86h-5.16v-3.325h5.234v-1.96h-7.293v13.62h7.368v-1.935h-5.285v-4.54zM23.157 18.351c.447-.67.695-1.463.695-2.331 0-1.613-.794-2.481-1.265-2.829l-.869-.471c.224-.149.471-.347.471-.347 1.043-.918 1.142-2.159 1.142-2.655 0-.967-.348-1.612-.62-1.984-.645-.918-1.613-1.34-3.101-1.44h-3.697V19.94h2.878c1.439 0 3.225 0 4.341-1.563zM21.47 17.26c-.471.595-1.116.694-1.836.744h-1.662v-4.217h.744c1.017 0 2.06 0 2.73.868.272.347.421.819.421 1.315s-.124.918-.397 1.265zm-1.612-5.408-.993.124h-.868V8.13h.769c.77 0 1.662 0 2.183.67.149.174.348.496.348 1.141 0 .968-.521 1.663-1.44 1.91m7.667-5.606H25.44v13.67h2.084zm5.631 13.347c1.265.546 2.505.546 2.902.546 2.928-.05 5.433-1.687 6.55-4.267a7.3 7.3 0 0 0 .595-2.878c0-.744-.174-3.324-2.282-5.21-1.29-1.166-2.903-1.736-4.813-1.736-3.051 0-4.788 1.562-5.557 2.505-1.365 1.687-1.588 3.573-1.588 4.54 0 2.952 1.613 5.433 4.193 6.525zm-.248-10.519c.595-.471 1.563-1.091 3.15-1.091 2.06 0 3.796 1.116 4.565 2.902.397.968.397 1.86.397 2.159 0 2.381-1.34 3.671-1.91 4.118a5.2 5.2 0 0 1-2.903 1.042c-2.084.074-3.324-.918-3.994-1.762-.968-1.24-1.116-2.63-1.116-3.324 0-.695.173-2.63 1.786-3.994z" fill="#000"/><path d="M45.212 19.914h2.083V8.18h3.3V6.245h-8.608V8.18h3.25v11.734zm8.211-6.375H59.6v6.375h7.492V17.98h-5.309v-4.564h5.185v-1.861h-5.185V8.23h5.235V6.27h-7.443v5.358h-6.177V6.27h-2.034v13.644h2.034V13.54zm17.167.273h.422c.1.198 3.448 6.078 3.448 6.078h2.382l-3.697-6.252a4.8 4.8 0 0 0 1.34-.422c.496-.273.72-.52.893-.72.422-.495.893-1.314.893-2.604v-.1c0-.818-.223-1.513-.67-2.158-.818-1.116-2.084-1.34-3.1-1.414h-4.02v13.645h2.084v-6.078zm2.828-2.159c-.446.248-1.14.323-2.158.348h-.695V8.13h1.166c.844 0 1.712.05 2.208.769.199.322.298.67.298 1.14 0 1.092-.62 1.514-.819 1.613m15.977-5.729h-.546l-3.647 8.707s-.422 1.117-.67 1.811c-.1-.297-.223-.62-.223-.62l-.347-.893-.174-.422-3.572-8.583h-.596l-2.505 14.016h2.059l1.091-6.847s.124-.819.223-1.488l.025.074.298.744 3.275 7.865h.769l3.498-8.386s.05-.149.124-.322c.074.546.173 1.19.173 1.19l1.141 7.195h2.06L89.419 5.947zM53.696 21.08H53.3l-3.647 8.708s-.421 1.116-.67 1.811c-.099-.298-.223-.62-.223-.62l-.372-.943-.149-.372-3.572-8.609h-.595l-2.506 14.017h2.059l1.092-6.847s.124-.819.223-1.488v.074l.297.744 3.275 7.864h.77l3.497-8.385s.05-.149.124-.322c.075.57.174 1.19.174 1.19l1.141 7.195h2.06L53.844 21.08h-.174zm15.058 0h-.397l-3.647 8.708s-.421 1.116-.67 1.811c-.074-.198-.223-.62-.223-.62l-.347-.893-.149-.397-3.597-8.609h-.595l-2.506 14.017h2.06l1.09-6.847.224-1.464v.075l.298.744 3.274 7.864h.77l3.497-8.385s.05-.149.124-.323c.075.546.174 1.191.174 1.191l1.141 7.195h2.06L68.902 21.13h-.174zM7.107 41.2h-.869v-.348h2.134v.348h-.868v2.753H7.13V41.2zm1.736-.348h.372v1.191h1.662v-1.19h.373v3.1h-.373v-1.562H9.215v1.562h-.372zm3.225 0h1.638v.348H12.44v.893h1.265v.347H12.44v1.19h1.265v.348h-1.638zm3.723 0h.372v1.191h1.662v-1.19h.372v3.1h-.372v-1.562h-1.662v1.562h-.372zm3.224 0h1.637v.348h-1.265v.893h1.265v.347h-1.265v1.19h1.265v.348h-1.637zm4.739 3.101h-.397l-.397-.942h-1.216l-.397.942h-.397l1.414-3.225 1.414 3.225zm-1.91-1.265h.992l-.497-1.141zm2.332-1.836h.372v2.754h1.166v.347h-1.538zm2.059 0h.372v3.101h-.372zm1.216-.124 2.282 2.481v-2.357h.347v3.226l-2.282-2.457v2.332h-.348zm6.45 1.638v.099c0 .992-.596 1.588-1.564 1.588-.297 0-.57-.075-.794-.174-.496-.273-.794-.794-.794-1.414 0-.521.174-.943.497-1.24.273-.273.645-.397 1.091-.397.596 0 1.017.223 1.315.645l-.298.248a1.12 1.12 0 0 0-.992-.57c-.72 0-1.215.545-1.215 1.314 0 .744.496 1.265 1.215 1.265.62 0 1.067-.422 1.116-1.017h-.893v-.322h1.29zm2.356 1.587h-.372v-3.1h.645c.322 0 .57 0 .794.148a.85.85 0 0 1 .322.695c0 .298-.124.57-.322.695-.199.148-.472.148-.794.148h-.298v1.39zm.198-1.711c.546 0 .794-.075.794-.496 0-.447-.273-.546-.794-.546h-.198v1.042zm4.442 1.339a1.74 1.74 0 0 1-1.166.472c-.422 0-.869-.174-1.166-.472a1.56 1.56 0 0 1-.497-1.14c0-.423.174-.844.496-1.167a1.74 1.74 0 0 1 1.166-.471c.422 0 .869.174 1.166.471.323.298.472.72.472 1.166 0 .447-.174.844-.471 1.141m-.298-.248q.372-.372.372-.893c0-.347-.124-.67-.372-.918a1.22 1.22 0 0 0-.893-.372c-.348 0-.67.124-.893.372-.248.248-.372.57-.372.918q0 .52.372.893.371.372.893.372.52 0 .893-.372m1.463-2.481.794 2.283.819-2.407.819 2.407.793-2.283h.397l-1.215 3.226-.819-2.407-.819 2.407-1.215-3.226zm4.043 0h1.638v.348h-1.266v.893h1.266v.347h-1.266v1.19h1.266v.348h-1.638zm2.357 0h.72c.297 0 .52 0 .719.15a.91.91 0 0 1 .297.694c0 .496-.297.769-.843.769h-.074l1.19 1.488H50l-1.141-1.488h-.05v1.488h-.372v-3.1zm.372 1.365h.273c.496 0 .72-.075.72-.496 0-.447-.224-.546-.72-.546h-.273zm6.103 1.364a1.74 1.74 0 0 1-1.166.472c-.422 0-.869-.174-1.166-.472a1.56 1.56 0 0 1-.497-1.14c0-.423.174-.844.497-1.167a1.74 1.74 0 0 1 1.166-.471 1.7 1.7 0 0 1 1.166.471c.322.298.47.72.47 1.166 0 .447-.173.844-.47 1.141m-.273-.248q.372-.372.372-.893c0-.347-.124-.67-.372-.918a1.22 1.22 0 0 0-.894-.372c-.347 0-.67.124-.893.372-.248.248-.372.57-.372.918q0 .52.372.893.372.372.893.372.522 0 .894-.372m1.439-2.481h1.637v.348h-1.265v.893h1.265v.347h-1.265v1.538h-.372zm3.671 0h.373v2.754h1.166v.347h-1.539zm2.059 0h.372v3.101h-.372zm1.216 0h1.637v.348H63.42v.893h1.265v.347H63.42v1.538h-.372zm2.284 0h1.637v.348h-1.265v.893h1.265v.347h-1.265v1.19h1.265v.348h-1.637zm4.093 3.101h-.372v-3.1h.645c.322 0 .57 0 .794.148a.85.85 0 0 1 .322.695c0 .298-.124.57-.322.695-.199.148-.472.148-.794.148H69.4v1.39zm.174-1.711c.545 0 .793-.075.793-.496 0-.447-.272-.546-.793-.546h-.2v1.042zm1.761-1.39h.372v2.754h1.166v.347H71.36zm4.44 3.101h-.397l-.397-.942h-1.215l-.397.942h-.397l1.414-3.225 1.414 3.225zm-1.885-1.265h.992l-.496-1.141zm2.307-1.96 2.282 2.481v-2.357h.348v3.226l-2.283-2.457v2.332h-.347zm3.448.124h.373v1.39l1.315-1.39h.446l-1.34 1.39 1.464 1.711h-.471l-1.39-1.662v1.662h-.371v-3.1zm3.052.348h-.868v-.348h2.133v.348h-.868v2.753h-.372V41.2zm4.192 2.381a1.74 1.74 0 0 1-1.166.472c-.422 0-.868-.174-1.166-.472a1.56 1.56 0 0 1-.496-1.14c0-.423.174-.844.496-1.167a1.74 1.74 0 0 1 1.166-.471c.422 0 .868.174 1.166.471.323.298.471.72.471 1.166 0 .447-.173.844-.47 1.141m-.273-.248q.372-.372.372-.893c0-.347-.124-.67-.372-.918a1.22 1.22 0 0 0-.893-.372c-.347 0-.67.124-.893.372-.248.248-.372.57-.372.918q0 .52.372.893.372.372.893.372.52 0 .893-.372m1.438-2.605 2.283 2.481v-2.357h.347v3.226l-2.282-2.457v2.332h-.348zm2.853.124h.422v.075h-.149v.397h-.124v-.397h-.149zm.521 0h.149l.124.323.124-.323H92v.497h-.1v-.397l-.148.397h-.05l-.149-.397v.397h-.099z" fill="#000"/></svg>