<svg width="50" height="50" fill="none" xmlns="http://www.w3.org/2000/svg"><path d="M22.92 36.537h-1.184s-.022-.022-.022-.033c0 0 .587-1.34.598-1.362s.033-.022.044 0c0 .011.575 1.35.587 1.373 0 .022 0 .034-.023.034m.952 1.406s-.365-.821-.72-1.643c-.364-.843-.73-1.699-.74-1.699 0-.022-.023-.033-.034-.033-.01 0-.022.022-.033.045 0 .022-1.483 3.307-1.483 3.319v.011h.2c.022 0 .022 0 .033-.023 0-.022.53-1.215.53-1.226 0 0 0-.022.034-.022h1.372c.011 0 .022 0 .033.022 0 .023.52 1.181.52 1.193 0 .011 0 .045.023.045h.265c.011 0 .022 0 .011-.023m13.056-4.219s.044.045.067.079c0 0 .022 0 .022.022 0 .012-.022.012-.033.023-.023.011-.697.461-.764.506h-.022l-.022-.034q-.017-.033-.033-.033v-.012h.01c.012 0 .565-.495.665-.585l.022-.022s0-.023.022-.023l.033.034c.011.011.022.034.044.056m-5.798.923h2.192c.021 0 .01.011 0 .022v.18c0 .012 0 .012-.012.012h-1.117a.023.023 0 0 0-.022.022v3.105s0 .023-.011.023h-.266v-3.128s0-.022-.022-.022H30.82v-.023c.022-.034.044-.157.055-.169 0-.022 0 0 .022 0h.188m4.526 3.286s0-2.993.01-3.162v-.124c0-.01 0-.045.023-.045h1.527c.01 0 0 .023 0 .034v.18s0 .011-.011.011h-1.25v1.283s0 .011.01.011h1.195c.011 0 .011 0 .011.012v.18s0 .022-.01.022h-1.185c-.01 0-.01 0-.01.011v1.395s0 .012.01.012h1.384c.01 0 0 0 0 .022 0 0-.023.056-.034.102-.01.044-.01.056-.022.078h-1.637v-.022m-18.6 0s0-2.993.011-3.162v-.124c0-.01 0-.045.022-.045h1.527c.011 0 0 .023 0 .034v.18s0 .011-.01.011h-1.251v1.283s0 .011.01.011h1.196c.01 0 .01 0 .01.012v.18s0 .022-.01.022h-1.185c-.01 0-.01 0-.01.011v1.407s0 .011.01.011h1.384c.011 0 0 0 0 .023 0 0-.022.056-.033.1-.011.046-.011.057-.022.08h-1.627v-.023m8.962-3.33h.244c.011 0 .011 0 .011.01v1.857c0 .057 0 .484.11.765.122.293.443.518.919.518.708 0 .951-.394 1.018-.765a4 4 0 0 0 .044-.529v-1.868h.177c.011 0 .022 0 .022.012v1.845c0 .27 0 .484-.11.821-.144.394-.565.664-1.151.664-.387 0-.797-.124-1.051-.461-.266-.36-.255-.98-.255-1.024v-1.845c0-.012 0-.023.011-.012m-12.17 3.016c-.178.135-.543.146-.62.146h-.343l-.011-.023v-1.45h.01s.454-.023.653 0c.454.044.61.404.61.72 0 .27-.145.506-.3.63m-.973-2.78s0-.022.022-.022h.387c.31 0 .642.135.642.618a.71.71 0 0 1-.321.597c-.022.011-.033.034-.078.034h-.641s-.022-.012-.022-.034v-1.182zm-.266 3.105h.697c.266 0 .476-.044.62-.123.509-.282.509-.765.509-.844a.94.94 0 0 0-.255-.641.9.9 0 0 0-.354-.225v-.023a.84.84 0 0 0 .365-.698c0-.135-.044-.54-.42-.697a1.3 1.3 0 0 0-.564-.079h-.598c-.01 0-.022 0-.022.023v3.308m24.309-7.798a1.3 1.3 0 0 1-.531.102c-1.339 0-2.169-1.182-2.169-2.374 0-1.125.542-2.183 1.516-2.183.775 0 1.129.731 1.129.754.01.022 0 .034-.011.045-.023.011-.078.034-.111.056-1.693.844-2.268 1.89-1.527 3.072.011.022.033.01.033-.023 0-.045-.088-.371-.01-.787.187-.98.94-1.407 2.367-2.082.022-.011.066-.022.044-.079-.177-.315-.265-.393-.332-.472a2.02 2.02 0 0 0-1.56-.709c-1.162 0-2.28.878-2.28 2.408 0 1.721 1.174 2.767 2.457 2.767.498 0 .896-.134 1.184-.326h.022c.011.011.432.36 1.073.36 1.24 0 1.55-.832 1.572-1.057 0-.045-.034-.034-.045 0-.01.033-.365.652-1.316.652-.863 0-1.03-.686-1.03-.911 0-.135 0-.799 1.008-.945.575-.09 1.095-.18 1.515-.473 0 0 .034 0 .034.011v2.645s.01.056.044.044c.022 0 .852-.19 1.018-.224.022 0 .01-.023 0-.023-.177-.068-.31-.281-.31-.72v-1.721c0-.35 0-.698-.022-1.036-.022-.37-.122-.798-.432-1.068a1.4 1.4 0 0 0-.973-.383 1.8 1.8 0 0 0-1.118.383c-.022.022 0 .045 0 .045l.255.36s.01.022.022 0c.077-.102.287-.507.785-.507.321 0 .797.08.797.923 0 .247 0 .461-.077.619-.144.371-.31.562-1.383.652-.487.045-.941.135-1.218.27-.652.315-.652.945-.652 1.092 0 .405.188.697.243.776 0 .011.022.045 0 .045m-13.31-.495s.032.011.032-.023c0-.045-.088-.37-.01-.787.188-.979.94-1.407 2.367-2.082.022-.01.067-.022.044-.078-.177-.315-.265-.394-.332-.473a2.02 2.02 0 0 0-1.56-.709c-1.161 0-2.279.878-2.279 2.408 0 1.721 1.173 2.768 2.457 2.768 1.14 0 1.715-.72 1.792-1.035 0-.034 0-.057-.022-.023-.044.045-.564.653-1.306.653-1.339 0-2.169-1.182-2.169-2.374 0-1.125.543-2.183 1.516-2.183.775 0 1.129.731 1.14.754.011.022 0 .034-.011.045-.022.011-.078.034-.11.056-1.694.844-2.269 1.89-1.528 3.072m-11.606.01s.033.012.033-.022c0-.045-.089-.37-.011-.787.188-.979.94-1.407 2.368-2.082.022-.01.066-.022.044-.078-.177-.315-.266-.394-.332-.473a2.02 2.02 0 0 0-1.56-.709c-1.162 0-2.28.878-2.28 2.408 0 1.721 1.173 2.768 2.457 2.768 1.14 0 1.715-.72 1.792-1.035 0-.034 0-.057-.022-.023-.044.045-.564.653-1.306.653-1.338 0-2.168-1.182-2.168-2.374 0-1.125.542-2.183 1.516-2.183.774 0 1.128.731 1.128.754.011.022 0 .034-.01.045-.023.011-.078.034-.111.056-1.693.844-2.269 1.89-1.527 3.072m1.538-5.885h-.808c-.022 0-.044.012-.044.023-.011.022-.742.945-1.085 1.373-.01.01 0 .022 0 .022h.266c.32-.259 1.66-1.373 1.67-1.384 0 0 .012-.022 0-.022m17.15 1.721c-.564 0-1.106.203-1.46.461-.022.012-.033 0-.033-.022 0-.023-.022-.416-.022-.416s0-.023-.022-.012c-.133.034-.93.18-.974.192-.044 0-.022.045 0 .056a.3.3 0 0 1 .055.056c.21.236.2.585.2.585v6.166c0 .337-.166.551-.277.63 0 0-.022.034 0 .034h1.317c.022 0 .01-.023 0-.034-.188-.09-.277-.326-.277-.855v-5.412c0-.079.011-.113.022-.135.221-.506.708-1.001 1.46-1.001.941 0 1.694.787 1.694 2.047 0 1.812-1.162 2.487-1.86 2.487-.696 0-1.061-.45-1.095-.473-.022-.022-.033 0-.01.034 0 .022.243.821 1.382.821 1.14 0 2.313-.99 2.313-2.689 0-1.597-1.184-2.509-2.39-2.509m-9.394 4.276-.011-5.66v-1.102s0-.034-.022-.023c-.166.034-1.03.18-1.062.192-.034 0-.034.033 0 .045.022 0 .1.067.143.1.189.17.189.518.189.597v1.992s0 .045-.034.022c-.31-.247-.863-.439-1.405-.439-1.36 0-2.434.99-2.467 2.554-.033 1.632 1.14 2.656 2.39 2.656.93 0 1.36-.71 1.372-.867 0-.045-.022-.034-.022-.022-.078.09-.388.495-1.03.495-1.006 0-1.969-.89-1.969-2.498 0-1.046.609-2.059 1.748-2.059.775 0 1.45.675 1.45 1.406v2.858c0 .372-.188.552-.255.63q-.033.034 0 .034h1.24c.022 0 .01 0 0-.034-.078-.112-.233-.326-.233-.855m-11.618.113v-6.875s.011-.011 0-.011h-.044l-.797.146s-.077.012-.11.023c-.044 0-.022.045 0 .056.033 0 .1.068.1.068.121.157.143.258.143.596v6.087c0 .393-.243.607-.254.63-.011.022-.022.034 0 .034h1.283c.011 0 .022-.012 0-.034s-.298-.18-.31-.72m35.971-.282V25.5s0-.034-.022-.023c-.133.034-.874.192-.918.203-.055 0-.044.023-.033.045.088.113.232.236.232.641v2.926a1.544 1.544 0 0 1-1.494 1.102c-.929 0-1.294-.832-1.283-1.699v-3.161s0-.023-.022-.023c-.155.023-.885.158-.907.158q-.035 0 0 .034a.76.76 0 0 1 .22.54v2.149c-.032 2.126 1.295 2.295 2.026 2.295.486 0 1.029-.192 1.46-.563.022-.011.022 0 .022.012l.045.45c0 .033 0 .033.033.033.144-.034.84-.168.918-.18.033 0 .022-.022 0-.056-.033-.034-.243-.18-.243-.754m-37.222.011s.034 0 .022.012c-.077.326-.719 1.057-1.914 1.057C4.852 30.71 4 29.314 4 28.065c0-1.586 1.195-2.588 2.6-2.588a3.8 3.8 0 0 1 1.737.428l-.022 1.181c0 .034 0 .034-.022 0-.32-.765-.885-1.372-1.748-1.372-1.04 0-1.793.979-1.793 2.093 0 1.35 1.118 2.475 2.202 2.475.952 0 1.417-.552 1.56-.664M26.84 12c.808 0 1.796.494 2.08 1.57.057.202.08.45.08.674 0 1.525-1.216 2.434-2.023 2.737-.034.011-.625.247-1.034.291-.045 0-.057-.056-.011-.078.375-.19.75-.381 1.17-.707.284-.224 1.17-1.043 1.17-2.39 0-1.166-.658-1.828-1.476-1.828-.716 0-1.148.516-1.285.786a1.4 1.4 0 0 0-.159.639c0 .045-.023.437-.023.976v3.14c0 .371.091.607.194.775.125.19.227.28.318.348.023.01.011.056-.034.056-.046 0-.136 0-.182-.023a1.05 1.05 0 0 1-.625-.415h-.011c-.103.18-.296.337-.591.415 0 0-.137.034-.205.034-.034 0-.057-.034-.034-.056.08-.067.137-.112.216-.202.318-.393.307-.808.307-.931V14.67c0-.516-.023-.853-.023-.976 0-.73-.625-1.425-1.488-1.425-.49 0-1.08.303-1.319 1.032-.08.225-.125.46-.125.785 0 .965.512 1.885 1.194 2.412.625.483.965.595 1.136.674.045.022.057.078-.034.067a4 4 0 0 1-.875-.213 3.55 3.55 0 0 1-1.557-1.1A2.75 2.75 0 0 1 21 14.2c0-1.571 1.284-2.2 2.136-2.2 1.194 0 1.875.909 1.875.909S25.727 12 26.864 12" fill="#231815"/></svg>