<svg width="50" height="50" fill="none" xmlns="http://www.w3.org/2000/svg"><path d="M32.867 11c3.573 0 7.951 2.186 9.21 6.955.25.894.352 1.987.352 2.98 0 6.757-5.385 10.781-8.958 12.123-.151.05-2.768 1.093-4.58 1.291-.201 0-.251-.248-.05-.347 1.66-.845 3.321-1.69 5.183-3.13 1.258-.994 5.184-4.62 5.184-10.582 0-5.167-2.919-8.098-6.542-8.098-3.17 0-5.083 2.286-5.687 3.478s-.705 2.236-.705 2.832c0 .198-.1 1.937-.1 4.322v13.91c0 1.64.402 2.683.855 3.428.554.844 1.007 1.242 1.41 1.54.1.05.05.248-.152.248-.201 0-.604 0-.805-.099-1.157-.298-1.962-.795-2.768-1.838h-.05c-.453.795-1.309 1.49-2.617 1.838 0 0-.604.149-.906.149-.15 0-.251-.149-.15-.248.352-.299.603-.497.955-.895 1.41-1.738 1.36-3.576 1.36-4.123v-13.91c0-2.286-.102-3.776-.102-4.322 0-3.23-2.767-6.31-6.592-6.31-2.164 0-4.78 1.342-5.838 4.57-.352.994-.553 2.038-.553 3.478 0 4.273 2.264 8.347 5.284 10.682 2.768 2.136 4.277 2.632 5.032 2.98.202.1.252.348-.15.298-1.259-.149-2.467-.447-3.876-.944-2.415-.844-5.032-2.533-6.894-4.868C7.906 26.202 7 23.618 7 20.738 7 13.781 12.687 11 16.461 11c5.284 0 8.304 4.024 8.304 4.024S27.935 11 32.968 11" fill="#231815"/></svg>