<svg width="100" height="50" fill="none" xmlns="http://www.w3.org/2000/svg"><path fill-rule="evenodd" clip-rule="evenodd" d="M11.509 36.463v1.15H9.664v-1.15zM9.958 12.387v7.731h2.674v-7.73h1.097c.508 0 1.845-.322 2.433-1.766l.16-.428-1.925-.348-.133.294c-.134.187-.321.268-.616.268h-1.016V8.722l-2.674-.508v2.194H6.24l.454 1.952h3.29zm3.263.589h2.112v3.05c0 .507.054 1.55.562 2.032l.348.214-1.124 1.739-.347-.214c-1.658-1.07-1.551-3.718-1.551-3.745zm-5.536 7.008-.294.188-1.15-1.766.347-.214c.241-.134.508-.83.589-2.087v-3.13h2.14v3.344c0 1.338-.429 2.97-1.632 3.665m12.73-6.58c.32.294.614.588.909.856l-.91.856-.909-.856.883-.856zm-1.525-1.445c-.749-.695-1.47-1.39-2.086-1.98l-.695-.668h3.022l1.283 1.204 1.257-1.204h3.049l-2.781 2.648 2.433 2.3-2.433 2.301c.749.696 1.47 1.391 2.086 1.98l.695.669h-3.049l-1.257-1.204-1.257 1.204H16.11l.695-.67c.642-.615 1.364-1.283 2.086-1.979l-2.434-2.3 2.407-2.3zm5.83.428h3.29v7.865h2.674v-7.865h1.203c.508 0 1.765-.32 2.353-1.765l.188-.375-1.98-.294-.133.187c-.134.187-.321.268-.615.268h-1.016V8.722l-2.675-.508v2.194h-3.744l.455 1.952zm6.445.589h2.113v3.156c0 .508.187 1.82.561 2.033l.348.214-1.123 1.739-.294-.187c-1.552-.91-1.605-3.772-1.605-3.799zm-6.392 4.841-.347.215 1.123 1.738.294-.187c1.524-.883 1.551-3.397 1.551-3.504v-3.103h-2.14v3.13c-.053 1.337-.4 1.658-.507 1.711zm7.595 2.997.16-.215 1.98.535-.16.402c-.562 1.39-2.14 1.712-2.648 1.712h-8.157c1.551.883 4.654 2.247 9.975 3.21l.375.08-.482 2.113-.347-.053c-8.21-1.471-12.195-4.253-13.265-5.11-2.059 2.034-6.525 3.853-12.622 5.11l-.348.08-.508-2.086.374-.08c4.734-.99 8.05-2.06 9.868-3.21H6.615l-.508-2.14h12.489c.187-.456.267-.857.32-1.017l.054-.348h3.049l-.107.535c-.027.107-.134.455-.267.83H31.78c.294 0 .481-.081.615-.268zM74.97 12.6v1.578h3.075V12.6h6.07v1.578h3.076V12.6h4.386c.535 0 2.22-.348 2.835-1.953l.24-.588-2.326-.669-.241.348c-.107.16-.214.214-.455.214h-4.439v-1.23l-3.075-.616v1.846h-6.07v-1.23l-3.076-.616v1.846h-8.023l.588 2.675h7.435zm16.714 10.326.053.99v.347c-.267.99-.936 1.445-1.043 1.498h-5.776c-.508 0-.722-.16-.749-.214V21.67c3.958-.616 6.98-1.873 8.45-2.568.75-.348 1.284-.696 1.284-.696l.67-.455-2.194-1.739-.32.16s-3.932 1.9-7.89 2.596l-.053-3.184L81.04 14.5l.08 10.647s0 1.31.936 2.247c.67.696 1.659 1.044 2.889 1.044h6.017c.695-.027 3.236-.67 3.931-3.425L95 24.56l-3.236-1.66zM75.21 14.848l-.08.08c-.214.321-2.3 3.237-7.595 6.206l-.374.215.588 2.675.642-.348a36 36 0 0 0 3.797-2.3v7.168h3.076v-9.603c.374-.321.802-.722 1.203-1.097a68 68 0 0 1 1.498-1.337l.856-.616-3.343-1.31zm-22.036-4.04c.508 0 2.06-.32 2.648-1.818l.16-.401L54.003 8l-.16.214c-.134.187-.321.294-.615.294H46.89l.508 2.274H53.2zm9.2.777c-.134.214-.321.214-.642.214H37.904l.508 2.273h23.293c.401 0 2.22 0 2.621-1.203.32-.91.428-1.311.428-1.311l-2.22-.535-.16.535zM53.388 22.82c3.183-2.408 4.466-4.04 5.215-5.19.562-.749 1.658-2.568 1.658-2.568h-3.637l-.107.24c-.32.75-1.604 3.372-5.295 6.127-2.62-1.926-3.343-3.076-4.092-4.44-.508-.937-.855-1.9-.855-1.9h-3.29l.188.508c.133.401 1.417 3.826 5.856 7.25-2.942 1.685-6.498 2.835-10.537 3.424l-.4.053.508 2.247.347-.053c4.787-.696 8.905-2.087 12.275-4.147 3.396 2.06 7.515 3.451 12.275 4.147l.348.053.508-2.247-.401-.053c-4.065-.589-7.595-1.74-10.537-3.424zm33 10.86c-.106.857-.454 1.445-1.069 1.82v.508c.615-.16 1.07-.428 1.39-.803h1.873v-.615h-1.525c.134-.24.214-.535.241-.91zm6.927.295a5.5 5.5 0 0 1-.4 1.525h.828c.214-.402.348-.91.428-1.525h-.883zm-3.343 0h-.882c.08.615.214 1.097.428 1.525h.829a9 9 0 0 1-.401-1.525zm-.962 5.992v-4.04h2.166v-2.246h.962v2.247h2.167v4.039h-.91V36.57H90v3.397zm3.155-1.31V37.13h-.99v1.525c.081 1.311-.801 2.22-2.674 2.755V42c1.578-.374 2.648-.91 3.21-1.632.561.722 1.55 1.258 2.995 1.632v-.615c-1.739-.508-2.568-1.418-2.514-2.702zm-3.61 2.166c-.535.348-1.203.642-2.033.91v-2.97h-1.07v-.588h1.07v-1.338h-.882v-.615h2.754v.615h-.882v1.338h1.07v.588h-1.07v1.873c.32-.107.669-.241 1.043-.482zm-17.008-.963v-3.478H69.54v.616h.91V40.1c.053.615-.268 1.016-.964 1.257v.535c.776-.16 1.31-.455 1.632-.856.32.482.909.722 1.791.722h5.857v-.642H72.99c-.963 0-1.444-.454-1.471-1.257zm.588-1.15h2.995v-1.15h-2.567v-.643a13.4 13.4 0 0 0 .99-1.658h-1.311v-.615h1.631l.16-.375c.08-.24.134-.428.188-.588h1.123s-.053.107-.08.187a4.5 4.5 0 0 1-.348.749h3.637v.615h-3.958c-.4.669-.775 1.23-1.123 1.659h1.631v-1.097h.99v1.097h2.166v.642h-2.166v1.15h2.567v.615h-2.567v1.445h-.99v-1.445h-2.995v-.615zm-1.07-4.896h-.909c.294.616.508 1.23.668 1.82h.963c-.107-.562-.347-1.15-.722-1.82m-17.463 6.688v.722q1.965-.2 3.13-.722v-.642q-.562.2-1.044.321v-2.568h.91v-.615h-.91V34.83h.99v-.615h-3.05v.615h1.044v2.167h-.963v.615h.963v2.755c-.321.08-.669.134-1.07.134m5.696-4.735h-1.23V34.67h1.23zm0 1.846h-1.23v-1.204h1.23zm.99-1.177h1.23v.642c0 .374-.16.562-.562.535h-.668v-1.204zm0-1.739h1.23v1.097h-1.23zm0 5.19v1.203h2.674v.589h-6.498v-.589h2.808v-1.203H57v-.642h2.273v-1.017h-2.166v-4.2h5.321v3.103c.027.75-.374 1.097-1.203 1.097h-.963v1.017h2.273v.642h-2.273zM45.66 35.045v1.98c0 .4-.188.615-.669.588h-2.487v-2.568zm-1.043-1.364h-1.07v.749H41.46v5.002c.053.883-.214 1.525-.83 1.926v.615c1.338-.562 1.953-1.471 1.873-2.755v-.936h2.808c.936 0 1.39-.375 1.364-1.204V34.43h-2.033v-.75zm-3.69 3.61v.616c-.375.134-.723.268-1.044.375v2.675c0 .615-.348.936-1.07.936h-.829v-.642h.508c.295 0 .428-.107.428-.321v-2.38c-.347.08-.748.133-1.203.213v-.802c.16 0 .401-.054.722-.08q.32-.08.481-.08v-2.14h-1.123v-.616h1.123V33.68h.963v1.364h1.043v.615h-1.043v1.926s.321-.08.588-.187c.188-.054.321-.08.428-.107zm-17.57 1.74h2.272v1.444c0 .375-.214.589-.642.589h-1.63zm-1.017 2.595h2.915c.91 0 1.337-.375 1.31-1.15v-2.06h-4.252v3.21zm4.038-6.18h-.963s-.026.134-.026.107c-.107.615-.241 1.07-.402 1.338h-1.07q-.32-.602-.4-1.445h-.963c.08.562.214 1.043.428 1.445h-1.15v.642h5.295v-.642h-1.204q.281-.482.482-1.445zm4.573-.695v-.616h-3.396v7.838h.962v-7.222h1.471q0 1.605-.642 2.568c.562.535.83 1.096.803 1.738 0 .856-.401 1.231-1.31 1.204v.722c1.444 0 2.166-.615 2.166-1.819 0-.695-.268-1.337-.803-1.872.455-.615.695-1.445.749-2.541m-7.007-1.07v.802h-1.872v.615h4.814v-.615h-1.845v-.802zm-11.526 2.782h1.284v4.012c0 .455-.214.669-.722.642h-.562zm-.909 2.915H9.664v-1.203h1.845zm0 1.74H9.664v-1.151h1.845zm-2.781 0h-1.31v-4.655h1.31zM6 34.75h3.851q-.08.561-.321 1.043H6.455v5.939h6.819q1.484 0 1.444-1.204v-4.735H10.68a3.7 3.7 0 0 0 .348-1.043h4.118v-.696h-9.12v.696z" fill="#005548"/></svg>