<svg width="50" height="50" fill="none" xmlns="http://www.w3.org/2000/svg"><path d="M42.974 36.786c-1.126 0-2.225-.832-3.272-2.347-1.78-2.588-3.441-5.55-4.828-7.213-1.087-1.314-2.016-1.77-3.102-2.092 0 0-.118-.027 0-.04 3.965-.161 6.543-2.561 6.543-6.087 0-5.136-4.501-6.007-8.728-6.007H21.29v.214c.955.054 1.649.322 1.649 1.57v9.894H11.633v-9.881c0-1.328.484-1.57 1.635-1.596V13H7.013v.201h.55c.85.04 1.125.282 1.125 1.596v20.406c0 1.086-.04 1.422-.916 1.422H7v.187h6.255v-.187h-.523c-1.06 0-1.113-.39-1.113-1.422v-10.15h11.307v10.15c0 .845-.052 1.408-1.112 1.408h-.537v.188h5.876v-.201c-.956-.04-1.283-.496-1.283-1.408V25.054h1.597c1.007 0 1.884.295 2.525.83 1.65 1.382 2.71 3.688 3.94 5.579 2.067 3.19 3.284 4.263 5.312 4.987 1.126.402 2.487.55 3.259.55H43v-.241h-.065M28.147 24.705h-2.25v-9.747c0-1.341.143-1.57 1.504-1.57 5.771 0 7.8 1.61 7.8 5.337s-2.33 5.967-7.054 5.967" fill="#231815"/></svg>