<svg width="50" height="50" fill="none" xmlns="http://www.w3.org/2000/svg"><path d="M7 24H5v15h2zm24.604 1.655c-1.107-1.07-2.326-1.782-3.85-1.636-1.749.178-3.642 1.636-3.353 4.113.353 3.077 5.005 4.033 5.567 6.268.401 1.636-.866 2.963-2.455 2.688-.738-.13-1.492-.696-2.037-1.457L24 36.845c1.059 1.312 2.39 2.187 4.14 2.154 2.823-.065 4.315-2.818 3.737-5.053-.818-3.222-5.55-4.048-5.583-6.316-.016-1.36 1.14-2.008 2.118-1.846.658.114 1.347.567 1.813 1.166l1.347-1.312zM12.213 11 4.574 22.394l1.566 1.05 7.639-11.394zm27.863 14.418c.045.384.105.868.166 1.168.423 2.67 2.78 12.414 2.78 12.414H45l-3.746-15h-2.447L35 39h1.918s2.357-9.66 2.9-12.447c.046-.284.152-.868.182-1.135zM16.228 24c.522 0 1.092 0 1.614.133 1.288.316 2.853 1.397 3.114 3.609.407 3.26-2.087 4.939-4.271 5.388l-.669-1.697c.391-.066 1.076-.216 1.663-.548.88-.516 1.5-1.514 1.304-2.827-.146-1.031-.75-1.68-1.353-1.98a3 3 0 0 0-.848-.232c-.799-.116-1.549.066-1.89.017.032.133.048.382.048.582V39H13V24.1c.783 0 2.739-.1 3.244-.1z" fill="#231815"/></svg>