<svg width="122" height="50" fill="none" xmlns="http://www.w3.org/2000/svg"><path fill-rule="evenodd" clip-rule="evenodd" d="M57 6c-2.193 0-4 1.42-4 3.144V32h4zM19 6c-1.754 0-3.198 1.398-3.198 3.096V25.14c.137 4.094-2.924 5.692-5.916 5.758-2.304.067-5.537-.632-5.64-3.395 0 0-.069-.133-.206-.066-.07.033-.035.233 0 .332.275 3.296 3.645 4.294 6.947 4.228 1.1 0 2.2-.1 3.095-.333 1.272-.366 4.47-1.698 4.884-5.958v-.566zm54.776 8c2.283 0 4.567.95 5.978 2.746 1.108 1.423 1.612 3.355 1.68 5.49v16.915c.067 4.034.335 4.271.973 6.034.504 1.322 1.881 2.542 3.359 2.542.201 0 .336.17.134.271-1.78.034-3.123-.474-3.123-.474-4.937-1.593-4.434-8.373-4.434-8.373v-8.813c-1.276 1.119-2.855 1.763-4.567 1.763v-1.153c3.19.102 4.467-3.152 4.366-7.931-.101-4.78-1.444-7.966-4.366-7.932zm-.034 0h.034v1.085c-2.922.034-4.367 3.559-4.367 7.932 0 4.372 1.176 7.83 4.367 7.931v1.153h-.034c-4.266 0-8.027-2.508-7.725-9.05s3.426-9.017 7.725-9.051m36.858 0c4.267.067 7.333 4.425 7.4 8.447v.134h-7.533v-1.073h4.666v-.536c0-3.05-1.8-5.53-4.666-5.598V14zm-.133 16.592c.5.168 1.033.268 1.6.268 2.433 0 4.466-1.776 5.533-4.324.133-.335.4-.167.3.134-1 3.218-3.833 5.296-7.1 5.296h-.333V30.56zm0-8.044h-4.534v.57c0 3.586 1.934 6.603 4.567 7.474V32c-4.167-.201-7.5-4.156-7.5-8.983s3.3-8.983 7.5-9.017v1.374h-.067c-2.933 0-4.6 3.017-4.6 6.1h4.667v1.073zM37 14c-1.708 0-3.114 1.424-3.114 3.153v9.186c-.134.78-.2.881-.502 1.458-1.507 3.017-5.123 3.084-7.031 1.084-.804-.847-1.273-2.27-1.24-3.762v-7.933c0-1.728-1.405-3.152-3.113-3.152v11.66c.469 4.34 2.846 5.865 4.118 6.17.235.068.47.102.703.136H29.5c1.875-.305 3.482-1.288 4.353-3.119V32h3.114V14.068zm4 0c1.74 0 3.174 1.426 3.174 3.159v.645c.17-.034.41-.204.614-.68C46.222 14 49.976 13.865 51 14.103c-.239 4.857-4.403 2.072-5.904 4.347-.615.951-.854 2.038-.922 2.853V32H41zm19 .462c.032-1.649.35-3.264 2.984-3.462.127 1.319-.476 3.363-2.54 3.495 1.397.23 2.508 1.483 2.508 3.033V32H60zM100 14c-1.708 0-3.114 1.424-3.114 3.153v9.186c-.134.78-.2.881-.502 1.458-1.507 3.017-5.123 3.084-7.031 1.084-.804-.847-1.273-2.27-1.24-3.762v-7.933c0-1.728-1.405-3.152-3.113-3.152v11.66c.469 4.34 2.846 5.865 4.118 6.17.235.068.47.102.703.136H92.5c1.875-.305 3.482-1.288 4.353-3.119V32h3.114V14.068z" fill="#303200"/></svg>