<svg width="75" height="50" fill="none" xmlns="http://www.w3.org/2000/svg"><path d="M66.525 16.9c.565-.448 1.08-1.145 1.347-2.04.25-.797.133-1.594-.333-1.818-.366-.149-.865.1-1.048.697-.216.697-.133 1.493.283 1.717-.116.2-.4.523-.549.672-.2.2-.282.473-.183.697.117.274.316.174.483.05M65 30.878c0-.234-.215-.444-.645-.467-11.164-.513-29.534-1.4-47.258 3.522-.645.163-1.097.373-1.097.7 0 .35.194.606.731.77.968.279 1.98.465 2.538.535.43.07.969.094 1.485 0 .666-.093 1.398-.326 1.871-.49 12.089-4.267 27.146-4.547 41.644-4.174.494 0 .731-.187.731-.42M33.03 15.86c-.132.54.171 1.12.835 1.14.626.02 1.006-.36 1.1-.84.152-.6-.208-1.16-.834-1.16-.531 0-.949.28-1.1.84m38.116 3.73c-.195-.484-.348-1.013-.239-1.388.13-.396.413-.462.609-1.057.152-.485.087-1.08-.478-1.124-.652-.022-.957.484-1.24 1.344-1.064 1.961-3.998 4.43-4.933 5.157-.869.683-1 .925-.76 1.278.239.33.695.286 1.63-.441 1.173-.904 3.281-2.931 4.15-4.165.066 1.3.566 2.49.196 4.341-.152.816-.565 1.895-1.543 2.336-.695.309-1.695.066-2-.661.588-.132.848-.463.87-1.058 0-.55-.282-.947-.804-1.036-.37-.044-.87.067-1.108.485-.218.353-.326.86-.196 1.433.283 1.344 1.5 1.939 2.76 1.983 1.587.066 3.325-.926 3.782-2.689.456-1.696-.174-3.415-.696-4.737" fill="#231815"/><path d="M60.05 19.689c2.075-2.114 4.195-4.57 4.785-6.77.415-1.516.087-2.583-1.42-2.54-3.475.085-8.523 5.85-9.178 11.51a6 6 0 0 0 0 1.515c-.983.919-1.792 1.538-2.906 2.093-.503.256-.984.363-1.29.043-.196-.214-.24-.684 0-1.217.438-1.026 1.202-1.922 1.902-3.075.459-.748.568-1.645.371-2.178-.197-.556-.808-.919-1.508-.919-1.158 0-2.338.577-3.255 1.218 0 0 4.13-6.706 4.588-7.453.394-.64.066-.811-.393-.811h-1.093c-.327 0-.502.15-.764.576-3.125 5.19-5.113 8.499-6.403 10.613-.262.277-.568.598-.94.982-1.441 1.41-3.32 2.883-4.697 3.054-.7.085-1.246-.192-1.595-.684 1.923-1.067 4.042-2.327 5.004-3.95.502-.854.742-1.41.568-2.264-.153-.79-.743-1.131-1.595-1.217-1.268-.128-2.82.342-4.02 1.452-1.18 1.09-1.793 2.178-2.12 3.267-.263.897-.24 1.922.109 2.798-.7.363-1.464.662-2.054.854-1.552.47-2.273-.705-1.377-2.584.394-.854 1.88-3.609 2.622-4.698.24-.363.153-.64-.305-.64-.372 0-1.071.021-1.355.042-.328 0-.525.107-.7.364-.59.896-1.879 3.715-2.753 5.103-.59.94-1.18 1.708-1.988 2.328-.852.662-1.77.384-1.901-.534-.153-1.11.284-2.584.306-3.652.022-1.644-.328-2.712-1.027-3.544 5.594-1.965 8.85-7.538 12.105-9.012.197-.085.393-.17.612-.235.961-.299 1.9-.299 2.12.363.262.77-.656 1.687-1.683 2.029-.874.278-1.29.555-1.202.811.088.3.503.278 1.18.214 1.639-.192 3.321-1.666 2.972-3.353-.219-1.089-1.29-1.665-2.753-1.58-.328 0-.634.064-.94.128-4.195.961-7.691 6.599-11.45 9.118-.633.427-1.027.641-1.595.855-.612-.513-1.355-.897-2.513-.897 1.005-2.114 1.792-3.95 3.169-5.702.524-.299 1.354-.512 1.857-.896.546-.406.787-.897.59-1.218-.24-.384-.962-.47-1.53-.299-.393.128-.655.427-1.201.918-.547.492-1.814.62-3.125.364-.59-.107-1.158-.32-1.726-.534C17.2 9.31 15.802 8.67 14.01 8.649c-2.535-.021-4.37 1.11-4.414 2.99-.044 1.836 1.748 2.84 3.715 2.498.415-.064 1.048-.406 1.048-.64 0-.257-.72-.321-1.07-.342-1.617-.043-2.447-.513-2.426-1.388.022-.79.853-1.367 2.382-1.367 1.573 0 2.906.705 4.873 1.068h.065c1.05.192 2.273.299 3.802.128-1.573 1.644-3.955 4.975-5.637 7.965-2.731 4.847-3.955 6.811-5.965 7.751-1.42.662-3.3.79-4.349-.043-.393-.32-.612-.768-.612-1.174 0-.214.066-.256.11-.256.896-.022 1.333-.406 1.398-.983.11-.79-.437-1.324-1.158-1.28-1.202.084-1.814.96-1.77 2.284.044 1.559 1.311 3.096 3.868 3.139 5.856.085 9.024-5.146 11.253-9.118.153-.256.284-.512.415-.769.568.192 1.377.257 2.535.064.371 1.303-.219 3.246-.24 5.04 0 2.562.83 3.95 2.556 4.014 1.464.064 3.015-.94 3.999-2.413.152 1.495 1.31 2.093 2.469 2.072 1.027 0 2.425-.62 3.824-1.367.48.64 1.223 1.068 2.228 1.068 1.617 0 3.169-.94 4.873-2.413-.612 1.025-.677 1.174-.808 1.409-.175.342-.044.705.306.683.283 0 .764-.042 1.07-.064.393-.021.568-.17.721-.384.219-.32 1.77-3.054 2.557-4.185 1.136-1.666 2.578-2.606 3.343-2.883 1.114-.406 1.551.32.874 1.26-.962 1.324-1.704 2.52-1.857 3.502-.219 1.324.437 2.391 1.944 2.455.787.043 1.464-.213 2.251-.683 1.136-.683 1.595-1.046 2.404-1.751.458 1.153 1.354 2.029 2.818 2.135 2.448.171 3.824-1.003 4.895-2.05.415-.405.415-.768.175-1.003-.219-.214-.7-.107-1.006.192-.852.833-1.922 1.666-3.255 1.602-1.136-.064-1.748-.983-1.88-2.264 1.661-1.43 2.513-2.263 3.759-3.502M20.674 18.6c-.568 0-.808-.15-.743-.427.044-.192.284-.235.481-.235.677 0 1.027.17 1.311.576a4.4 4.4 0 0 1-1.027.064m15.405 4.4c.502-1.538 1.442-2.649 2.36-3.225.48-.3 1.027-.3 1.223-.171.481.32.59 1.388-.699 2.733-.72.748-1.53 1.56-3.08 2.456-.088-.534-.023-1.153.196-1.815m20.212-1.303s.022-.192.043-.277c.634-3.801 3.824-8.072 5.856-9.353.896-.555 1.486-.342 1.202.534-.48 1.537-2.163 3.8-3.518 5.402a34 34 0 0 1-3.583 3.673M21.068 39.86c0 .56.288.74.864.92.356.1.475.18.475.36 0 .26-.255.26-.39.26-.237 0-.542-.14-.729-.28-.017.04-.254.5-.288.54.288.2.644.34 1 .34.644 0 1-.32 1-.9 0-.5-.22-.72-.881-.92-.322-.08-.475-.16-.458-.32 0-.26.237-.26.322-.26.237 0 .458.08.695.26.017-.04.271-.5.288-.54a1.5 1.5 0 0 0-.932-.32c-.576 0-.95.34-.95.88m4.943-.88L26 42h.988c0-.042.027-2.958 0-3H26m5.48 1.841a19 19 0 0 0-.472-.951s-.473-.849-.504-.89H30v2.98h.52v-.89c0-.394 0-.973-.016-1.076.063.124.362.765.472.972 0 0 .536.993.552 1.014h.456L32 39.02h-.52v.787c0 .083 0 .89.016 1.055M35 40.49c0 .926.403 1.51 1.048 1.51.565 0 .807-.383.936-.685-.032-.02-.436-.302-.468-.322-.113.242-.21.403-.451.403-.29 0-.468-.342-.468-.906 0-.584.177-.906.468-.906.258 0 .354.221.419.443.032 0 .484-.222.516-.242-.145-.483-.355-.785-.92-.785-.645 0-1.064.584-1.064 1.49M40.018 39v3H42v-.583h-1.37v-.688h.811v-.583h-.81v-.563h1.333V39H40m7.5 0c-.083.27-.233.375-.5.417v.416h.417V42h.566L48 39h-.483m3.643.86c0 .28.23.44.344.5l.091.04h.046l-.046.04-.091.04c-.115.04-.481.2-.504.6 0 .56.572.92 1.489.92.916 0 1.511-.34 1.511-.9 0-.4-.366-.58-.48-.62l-.138-.06.137-.08c.252-.14.367-.28.367-.5 0-.52-.504-.84-1.329-.84-.824 0-1.35.3-1.35.82m.732.04s.046-.38.595-.36c.435 0 .596.2.596.38 0 .12-.069.36-.596.36-.55 0-.595-.28-.595-.36m-.16 1.2c0-.26.274-.42.732-.42s.733.18.733.44-.275.44-.733.42c-.458 0-.732-.18-.732-.44M56.288 39s-.12 1.449-.12 1.47c.048 0 .744.224.768.224.168-.102.36-.163.672-.163.36 0 .576.163.576.428 0 .306-.24.47-.72.47-.336 0-.744-.102-1.128-.286 0 0-.312.47-.336.51.456.225.912.347 1.44.347.984 0 1.56-.367 1.56-1.04 0-.613-.432-.96-1.2-.96a1.9 1.9 0 0 0-.744.122l-.12.062.048-.613h1.824v-.55h-2.472M61.5 39c-.083.27-.217.375-.5.417v.416h.417V42h.566L62 39h-.483" fill="#231815"/></svg>