<svg width="134" height="50" fill="none" xmlns="http://www.w3.org/2000/svg"><path d="M5.667 36.545h3.628V13.487H5.667V13h10.536v.487h-3.628v23.058h5.836c1.924 0 3.439-.617 4.511-1.85 1.104-1.235 1.893-2.924 2.398-5.067h.347V37h-20v-.487zM36.206 17.37l-3.544 9.561h7.088zM25.729 36.524h2.829L37.263 13h.777l8.767 23.525h2.86V37h-9.948v-.475h3.575l-3.389-9.15h-7.492l-3.389 9.15H32.6V37h-6.932v-.475zm30.604-.01h3.612V13.486h-3.612V13h7.35l6.03 18.13h.064L75.807 13H83v.486h-3.612v23.028H83v.454H72.51v-.455h3.611V13.682h-.063L68.268 37l-7.757-23.092h-.063v22.606h3.612v.454h-7.727zm28-.032h3.628V13.486h-3.628V13h18.738v5.83h-.347a18 18 0 0 0-.914-2.3 6.6 6.6 0 0 0-1.168-1.684 4.6 4.6 0 0 0-1.64-1.036c-.63-.227-1.388-.324-2.303-.324h-5.426v10.397h2.145c.726 0 1.325-.065 1.83-.195a2.75 2.75 0 0 0 1.293-.745c.347-.356.663-.874.915-1.522.253-.648.505-1.457.726-2.462h.347v10.462h-.347c-.158-.648-.316-1.263-.473-1.878a5.3 5.3 0 0 0-.694-1.62c-.284-.486-.694-.842-1.168-1.133-.504-.292-1.135-.422-1.924-.422h-2.65v12.146h6.183c1.199 0 2.209-.259 2.997-.777a7.3 7.3 0 0 0 1.956-1.879c.505-.745.883-1.49 1.104-2.267q.378-1.166.473-1.943h.347V37H84.365v-.486zm28.32-12.712h3.004c.6 0 1.169-.064 1.675-.224s.948-.415 1.296-.799.632-.927.854-1.566c.189-.671.284-1.502.284-2.524 0-1.151-.158-2.078-.442-2.78-.285-.704-.664-1.215-1.138-1.567a4.2 4.2 0 0 0-1.581-.703c-.569-.096-1.17-.16-1.739-.16h-1.201q-.617 0-1.043.096v10.259zm-6.923 12.463h3.635v-22.69h-3.635v-.48h7.018c.253 0 .538 0 .79-.063h1.581c1.296 0 2.434.064 3.414.224q1.47.191 2.751 1.246 1.137.91 1.612 2.013.474 1.15.474 2.11c0 .32-.063.767-.19 1.278-.126.511-.379 1.054-.79 1.598-.411.543-.98 1.054-1.77 1.502-.759.447-1.771.767-3.067.927v.063c.348.032.822.128 1.423.256a8.8 8.8 0 0 1 1.833.607 6.2 6.2 0 0 1 1.708 1.15c.537.48.885 1.087 1.106 1.854.127.448.221.959.285 1.502.063.576.094 1.15.126 1.726q.047.91.095 1.726a5.8 5.8 0 0 0 .19 1.406c.126.575.347 1.086.632 1.566.284.479.727.703 1.391.703.284 0 .569-.064.885-.16s.569-.288.822-.543l.284.351s-.221.192-.379.288a4 4 0 0 1-.537.287c-.222.096-.475.16-.791.224a6 6 0 0 1-1.169.096c-.886 0-1.613-.096-2.182-.32-.569-.223-1.043-.543-1.391-.99-.347-.416-.6-.959-.758-1.598a13.4 13.4 0 0 1-.348-2.205l-.221-3.004q-.143-1.679-.664-2.589c-.348-.607-.759-1.054-1.233-1.374a3.6 3.6 0 0 0-1.454-.511 11 11 0 0 0-1.328-.096h-3.288v11.984h3.636v.48h-10.559v-.48z" fill="#231815"/></svg>