<svg width="160" height="50" fill="none" xmlns="http://www.w3.org/2000/svg"><path d="M63.734 42.905h1.015v-1.987h1.86c.889 0 2.284 0 2.284-1.565s-1.438-1.565-2.284-1.565h-2.875zm1.015-2.833v-1.396h2.072c.592 0 1.1.043 1.1.72s-.508.718-1.1.718h-2.072zm5.371 2.833h1.057l.55-1.184h2.96l.55 1.184h1.057L73.8 37.788h-1.142zm2.03-1.987 1.057-2.284 1.057 2.284h-2.157zm6.64 1.987h1.015v-2.03h1.607l1.522 2.03h1.227l-1.565-2.072c.761 0 1.438-.55 1.438-1.48 0-1.269-.888-1.523-2.115-1.523h-3.087v5.118zm1.015-2.833v-1.438h1.945c.803 0 1.226.127 1.226.719s-.422.719-1.226.719zm8.373-2.242h-1.015v5.118h1.015zm7.106 1.523c-.17-.465-.592-.846-1.819-.846-.676 0-1.353.17-1.353.635 0 .21.127.465 1.142.55l1.226.168c1.142.17 1.819.635 1.819 1.48 0 1.185-1.142 1.65-2.538 1.65-2.199 0-2.749-1.1-2.876-1.48l.973-.296c.17.38.55.93 1.946.93.845 0 1.522-.254 1.522-.719 0-.338-.38-.55-1.1-.634L93 40.62c-1.184-.169-1.86-.676-1.86-1.437 0-1.523 1.987-1.523 2.41-1.523 2.199 0 2.58 1.015 2.707 1.354l-.973.296zm38.612-9.558c.423 3.553 2.284 3.003 2.368 3.299h-7.189s2.072-.043 1.649-3.172l-1.861-13.787c-.084-.38-.084-.761-.296-.677-.127.085-6.343 14.93-6.343 14.93-.085.253-.254.38-.466.041-.127-.253-5.794-12.56-5.794-12.56-.296-.634-.761-1.607-.845-1.776-.127-.296-.381-.339-.339.676l-1.48 13.999c-.338 2.453 1.988 2.241 1.945 2.41h-5.117s1.692.127 2.115-2.452l1.691-15.437c-.126-3.002-2.241-2.833-2.241-3.087h5.329l.084.169 5.667 12.307s.127.211.169.296c.17.338.127.592.339.127l5.582-12.9h5.16s-2.072.128-2.072 2.665l1.903 14.971zm-117.19 2.622h-2.918c-1.015 0-2.242.17-2.242-1.057V15.12c0-2.495 2.791-2.537 3.003-2.707H5.92s2.622.254 2.622 2.791v15.69c-.042 2.073-2.96 2.115-2.96 2.242h15.31l.845-4.483c-.338 0-.084 3.722-5.032 3.764m32.607-1.437c.296 2.58 2.284 1.945 2.284 2.156h-5.54c0-.254 2.241 0 2.2-2.326V15.078c0-2.707-2.327-2.707-2.412-2.918h5.54l11.504 14.167V14.824c-.127-2.791-2.241-2.58-2.284-2.707h5.794s-2.284.17-2.41 2.707v17.805s.169 1.353-.635.296c-.38-.465-13.83-17.424-13.83-17.424-.126-.127-.168 0-.21.423v15.098zm-18.649-8.036c-.55 0-.466-.338-.254-.846 0 0 1.903-4.694 2.114-5.244.296-.719.592-.592.804.042l1.903 5.287c.17.592.423.76-.211.76zm11.207 7.57-7.74-18.227c-.55-.635-.76.084-.76.084-.762 1.776-7.825 18.693-7.825 18.693-.972 2.241-2.199 1.988-2.199 2.157h4.99c0-.254-2.706.169-1.776-2.2l2.665-6.512c.296-.423.296-.55.972-.55h4.99c.635 0 .635 0 .889.592l2.537 6.175c.72 2.453-1.522 2.326-1.48 2.495h7.105c.085-.212-1.1.507-2.368-2.665m65.466-19.411L98.836 7l-8.501 4.145 8.5-2.58zm-8.501 21.23h-.084c-4.06 0-6.767-3.806-6.767-9.727 0-6.767 2.75-10.065 6.81-10.065s6.85 3.298 6.85 10.065c0 5.878-2.791 9.685-6.85 9.727m.084-20.596c-6.64 0-10.911 5.244-10.911 10.827 0 5.582 4.229 10.53 10.826 10.53s10.954-4.99 10.954-10.53-4.272-10.827-10.912-10.827M78.663 32.333c4.78-.085 6.936-3.384 7.36-3.51.21-.085-2.327 4.313-7.402 4.313-11.419 0-11.207-10.277-11.207-10.277.338-7.232 6.217-11.503 11.884-10.91 1.522.168 2.157.38 3.299.76.507.17 1.903.93 2.495.72.38-.127.676-.973.76-1.016v5.625c-.337 0-1.606-5.413-7.062-5.413-4.44 0-7.824 5.075-7.781 10.023.126 8.289 5.92 9.77 7.697 9.727m65.044-9.558v7.866c0 1.565-.127 1.776.888 1.776h5.667c1.395-.084 2.284-.423 2.833-.888 1.311-1.015 1.015-2.58 1.269-2.622l-.127 4.187h-15.901s2.368.254 2.368-3.214V15.416c0-3.468-2.241-2.918-2.199-3.214h15.732l.127 4.144c-.296 0 .508-3.256-4.144-3.552h-5.245c-.888 0-1.268 0-1.268 1.734v5.456c0 .76 0 .845 1.099.845h5.033c2.537 0 2.199-2.283 2.411-2.283v5.413c-.212 0 .126-2.495-2.326-2.41h-5.118c-1.142 0-1.142.38-1.142 1.141v.085z" fill="#231815"/></svg>