<svg width="112" height="51" fill="none" xmlns="http://www.w3.org/2000/svg"><path d="M53.718 43.286c-1.589-.092-4.095-.153-7.548-.153s-6.143.061-8.129.153v-1.284c1.68.123 4.309.214 7.854.214s6.143-.06 7.823-.214zm-7.09-10.91c1.284-1.772 2.17-3.3 2.629-4.584.489.336.886.52 1.13.611.245.092.367.153.367.214s-.061.122-.214.183c-.275.092-.642.49-1.1 1.162a54 54 0 0 1-1.68 2.414c2.108 0 3.727-.061 4.797-.183v1.222c-1.161-.092-3.545-.153-7.151-.153s-5.745.061-6.448.153v-1.222q1.605.183 4.767.183h2.934zm4.279 5.379c-.978-.062-2.659-.092-5.012-.092s-4.156.061-5.41.153v-1.253c1.07.122 2.812.153 5.257.153s4.156-.062 5.165-.153zm-6.112-6.387-1.04.672a15.2 15.2 0 0 0-2.75-3.24l.764-.764a24.5 24.5 0 0 1 3.026 3.332" fill="#79a3dc"/><path d="M53.84 43.439h-.152c-1.59-.092-4.065-.153-7.518-.153s-6.173.061-8.129.153h-.153v-1.59h.153c1.68.154 4.309.215 7.854.215s6.173-.062 7.823-.214h.153v1.589zm-15.677-1.284v1.009c1.956-.092 4.645-.153 8.007-.153s5.806.03 7.396.122v-1.008c-1.65.122-4.248.183-7.702.183s-6.05-.061-7.731-.183zm2.2-4.156v-1.528h.153q1.605.183 5.226.184c2.414 0 4.156-.062 5.165-.153h.153v1.436h-.153c-.978-.061-2.659-.092-4.981-.092s-4.157.062-5.41.153zm.276-1.253v.947c1.253-.091 3.025-.152 5.286-.152 2.262 0 3.851 0 4.86.091v-.886c-1.04.092-2.72.153-5.043.153s-4.034-.061-5.103-.153m-1.834-3.178V32.04h.153c1.07.153 2.659.214 4.767.214l-.06-.092c-.734-1.161-1.651-2.23-2.751-3.24l-.092-.09.947-.948.092.091a23 23 0 0 1 3.056 3.331l.092.123-1.253.825h2.811c1.253-1.712 2.109-3.24 2.567-4.492l.062-.153.152.091c.49.306.856.52 1.1.612s.459.183.459.336c0 .122-.092.244-.306.305-.153.061-.458.275-1.008 1.131-.428.642-.948 1.375-1.528 2.2 1.956 0 3.484-.06 4.523-.183h.152v1.498h-.152c-1.162-.123-3.515-.153-7.151-.153-3.637 0-5.746.06-6.449.153h-.152zm6.57-.428c3.515 0 5.807.03 7.03.122v-.916c-1.1.122-2.66.152-4.676.152h-.276l.153-.214a54 54 0 0 0 1.681-2.414c.49-.733.856-1.13 1.161-1.222.031 0 .062 0 .092-.03-.03 0-.122-.062-.244-.092-.245-.062-.581-.245-1.009-.52-.458 1.253-1.344 2.78-2.567 4.462v.06h-3.025c-2.017 0-3.576-.06-4.645-.152v.917c.825-.092 2.903-.122 6.325-.122zM41.19 28.8a16 16 0 0 1 2.597 3.057l.795-.52a23.3 23.3 0 0 0-2.842-3.117l-.55.55zm27.717 1.1c1.803 0 3.331-.06 4.523-.152v1.192a60 60 0 0 0-4.523-.153v1.864h-1.07v-1.864H63.62v2.047h-1.039v-2.047c-1.803 0-3.3.061-4.462.153v-1.192c1.192.092 2.66.153 4.462.153 0-.978-.06-1.65-.122-2.048q.734.092 1.1.092t.367.092c0 .06-.061.122-.153.213q-.183.138-.183.55v1.1h4.217c0-1.038-.03-1.741-.122-2.077.428.06.855.122 1.283.122.123 0 .184 0 .184.092 0 .091-.03.122-.092.152q-.183.138-.183.55v1.192zm5.104 11.889c-.275.52-.398 1.008-.398 1.436h-3.117c-1.13 0-2.108-.03-2.995-.122-.855-.061-1.558-.184-2.078-.336s-1.07-.428-1.68-.795c-.612-.367-1.1-.55-1.437-.55s-.733.153-1.1.428-.886.733-1.528 1.405a2.44 2.44 0 0 0-1.04-1.038c1.407-1.04 2.63-1.804 3.668-2.231a29 29 0 0 0 4.065-2.14 16.6 16.6 0 0 0 2.842-2.353h-5.379c-1.956 0-3.392.061-4.278.184v-1.192c.366.06 2.292.091 5.806.091s5.623-.091 6.265-.244v1.039c-.55 0-1.192.367-1.925 1.04-.703.671-1.681 1.405-2.934 2.23a25 25 0 0 1-3.545 1.986c.733.428 1.558.764 2.475 1.04.917.274 2.14.397 3.668.397s3.056-.123 4.614-.367zm-7.06-7.915-.886.55a8.3 8.3 0 0 0-1.803-2.2l.795-.52c.61.58 1.252 1.314 1.864 2.17z" fill="#79a3dc"/><path d="m59.617 43.5-.092-.153c-.214-.428-.55-.733-.978-.978l-.183-.091.183-.123c1.406-1.039 2.659-1.803 3.698-2.261a30 30 0 0 0 4.034-2.109c.978-.641 1.864-1.344 2.597-2.108h-5.042c-1.956 0-3.392.06-4.279.183h-.152v-1.498h.152c.337.092 2.292.123 5.776.123h.611a9.2 9.2 0 0 0-1.772-2.17l-.122-.122 1.039-.673.061.061a21 21 0 0 1 1.895 2.2l.091.123-.947.58c2.995 0 4.798-.091 5.41-.213h.152v1.283h-.122c-.52 0-1.131.367-1.834 1.009-.703.672-1.711 1.436-2.934 2.23-1.161.765-2.261 1.407-3.3 1.895.672.367 1.406.673 2.23.917.887.275 2.11.398 3.607.398a29 29 0 0 0 4.584-.367h.275l-.122.183c-.275.49-.398.978-.398 1.375v.123h-3.239c-1.161 0-2.14-.03-2.995-.123q-1.329-.09-2.109-.366c-.52-.153-1.1-.428-1.71-.795-.582-.336-1.04-.52-1.376-.52s-.672.123-1.009.398c-.366.275-.886.733-1.497 1.375l-.122.122zm2.658-2.17c.367 0 .886.184 1.528.55a7.7 7.7 0 0 0 1.65.764c.49.153 1.192.275 2.048.337.856.06 1.864.091 2.964.091h2.995c0-.336.123-.733.306-1.13a30.4 30.4 0 0 1-4.37.336c-1.528 0-2.781-.153-3.698-.428a13.4 13.4 0 0 1-2.506-1.04l-.214-.122.245-.122c1.1-.52 2.292-1.192 3.514-1.986 1.223-.795 2.2-1.559 2.903-2.2.673-.642 1.314-1.009 1.864-1.07v-.764c-.825.122-2.842.214-6.142.214s-5.073 0-5.684-.092v.886c.916-.122 2.322-.183 4.156-.183h5.684l-.214.214a16 16 0 0 1-2.873 2.384c-1.07.703-2.444 1.405-4.064 2.139q-1.468.641-3.484 2.109.504.32.825.825c.58-.581 1.04-1.04 1.406-1.284q.596-.459 1.192-.458zm2.2-9.107a11.2 11.2 0 0 1 1.65 1.987l.643-.398c-.581-.764-1.131-1.436-1.712-1.986l-.58.367zm-.702.734h-1.314v-2.048a56 56 0 0 0-4.34.153h-.153v-1.467h.153c1.13.092 2.598.153 4.34.153 0-.886-.062-1.528-.092-1.895v-.183h.153q.733.09 1.1.091c.153 0 .52 0 .52.245 0 .122-.062.214-.184.306-.122.091-.153.275-.153.458v.947h3.943q0-1.42-.092-1.925v-.183l.153.03c.397.061.825.092 1.253.092.275 0 .305.183.305.214 0 .061 0 .183-.152.275-.092.061-.153.214-.153.458v1.04c1.742 0 3.209-.062 4.37-.154h.153v1.467h-.153a57 57 0 0 0-4.37-.152v1.864h-1.314v-1.864h-3.943v2.047zm-1.04-.275h.765v-2.048h4.492v1.864h.795v-1.864h.122c1.711 0 3.209.03 4.4.122v-.886c-1.191.092-2.658.122-4.4.122h-.122v-1.314c0-.336.091-.55.244-.672-.367 0-.764 0-1.13-.092q.09.597.091 1.926v.122h-4.492v-1.223c0-.336.091-.55.244-.672l.061-.061h-.214c-.244 0-.55 0-.947-.092.03.428.061 1.04.092 1.895v.122h-.123c-1.71 0-3.178-.03-4.34-.122v.886c1.162-.091 2.63-.122 4.34-.122h.123v2.109m8.831-24.938h-1.834v15.22h1.834zm-54.152 13.6s-.214.489-.55.947c-.306.459-.52.703-1.192.703H8.184V8.447c0-.366.305-.672.672-.672h1.161v13.538h7.396zM38.194 7.775v15.22h1.834v-10.79s8.129 10.452 8.159 10.483c0 0 .245.274.703.274h.214V7.775H47.33v11.338l-8.74-11.46s-.367-.061-.367.122zm-11.002 3.728s4.493 10.819 4.615 11.063a.7.7 0 0 0 .611.428h1.345l-6.357-15.28c-.061-.183-.336-.183-.397 0l-6.357 15.28h1.345c.275 0 .52-.183.611-.428.092-.244 4.615-11.063 4.615-11.063zm27.351-3.728H64.2s-.214.489-.55.947c-.305.459-.52.703-1.192.703h-6.112v5.012h6.907v1.437h-6.907v5.44h6.082c.642 0 .855.244 1.192.702.305.459.55.947.55.947h-9.657V7.744H64.2m24.723 3.851c-.275-1.039-.947-2.078-1.803-2.78-1.07-.887-2.383-1.315-3.942-1.315-1.925 0-3.484.733-4.645 2.17s-1.742 3.361-1.742 5.745.58 4.34 1.742 5.776 2.72 2.17 4.676 2.17c1.803 0 3.27-.58 4.37-1.712 1.1-1.13 1.65-2.597 1.65-4.523V15.14h-4.034c-.642 0-.856.244-1.192.703-.305.428-.55.733-.55.733h3.942v.55c0 1.406-.366 2.476-1.13 3.27-.764.795-1.742 1.162-3.056 1.162-1.376 0-2.445-.49-3.27-1.498-.886-1.1-1.345-2.658-1.345-4.645s.459-3.484 1.345-4.614c.825-1.009 1.864-1.498 3.24-1.498 1.13 0 2.047.306 2.78.886.306.245.703.825.764.886.245.306.49.49.856.49h1.344zm5.227-3.82h9.657s-.214.489-.55.947c-.306.459-.52.703-1.192.703h-6.112v5.012h6.907v1.437h-6.907v5.44h6.081c.642 0 .856.244 1.192.702.306.459.55.947.55.947h-9.657V7.744h9.688" fill="#79a3dc"/></svg>