<svg width="152" height="50" fill="none" xmlns="http://www.w3.org/2000/svg"><path d="M11.175 27.516c.805 0 1.572.038 2.3.038 1.495 0 2.684 0 3.566-.115.613-.076 1.226-.153 1.84-.306l.728-2.569h.767a95 95 0 0 0-.46 3.872c-.729.115-1.726.153-2.952.153l-5.75-.076c-.767 0-1.994.038-3.604.115v-.575c.652-.269 1.035-.537 1.15-.844s.192-1.456.192-3.488v-6.057c0-2.185-.077-3.412-.192-3.68s-.46-.384-.997-.384H6.46v-.69c1.917.039 3.182.077 3.795.077.843 0 1.955 0 3.412-.077v.69h-1.495q-.633 0-.805.345c-.115.23-.154 1.15-.154 2.799v7.015l.039 3.105v.652zM61.01 16.552l-.076-1.955c-.652-.422-1.303-.767-2.032-.958-.69-.23-1.457-.307-2.223-.307-1.955 0-3.527.613-4.677 1.802-1.189 1.188-1.764 2.798-1.764 4.83 0 1.418.307 2.683.882 3.795a7 7 0 0 0 2.53 2.645 6.74 6.74 0 0 0 3.489.959q1.437 0 2.875-.345c.69-.154 1.418-.537 2.147-1.074l.23.23c-.154.345-.307.69-.422 1.035-.843.422-1.687.729-2.568.959-.844.23-1.726.306-2.569.306-1.763 0-3.335-.345-4.677-1.035q-2.013-1.035-3.105-2.875c-.728-1.227-1.073-2.607-1.073-4.178 0-1.572.345-2.952 1.111-4.14a7.2 7.2 0 0 1 3.105-2.837c1.342-.69 2.99-.997 4.907-.997 1.035 0 2.224.153 3.566.498.69.154 1.226.269 1.648.345q-.46 1.15-.575 3.335h-.728zm15.104 0-.076-1.955c-.652-.422-1.304-.767-2.032-.958-.69-.23-1.457-.307-2.224-.307-1.955 0-3.526.613-4.676 1.802-1.189 1.188-1.764 2.798-1.764 4.83 0 1.418.307 2.683.882 3.795s1.457 1.994 2.53 2.645a6.74 6.74 0 0 0 3.489.959q1.437 0 2.875-.345c.69-.154 1.418-.537 2.146-1.074l.23.23c-.153.345-.306.69-.421 1.035-.844.422-1.687.729-2.569.959-.843.23-1.725.306-2.568.306-1.764 0-3.335-.345-4.677-1.035q-2.013-1.035-3.105-2.875c-.729-1.227-1.074-2.607-1.074-4.178 0-1.572.345-2.952 1.112-4.14a7.2 7.2 0 0 1 3.105-2.837c1.342-.69 2.99-.997 4.907-.997 1.035 0 2.224.153 3.565.498.69.154 1.227.269 1.649.345q-.46 1.15-.575 3.335h-.729zm61.261 4.37v6.441c1.111.076 2.3.115 3.526.115.844 0 1.572 0 2.147-.115.384-.039.767-.154 1.189-.307.191-.652.383-1.457.575-2.454h.728c-.192 1.61-.307 2.722-.307 3.259v.498q-1.264.115-2.53.115h-1.763c-1.955-.076-3.412-.115-4.332-.115s-2.07 0-3.527.077v-.69h.345c.652 0 1.073-.077 1.227-.192.153-.115.268-.421.345-.881.038-.46.077-1.495.077-3.106v-6.095c0-.997 0-1.802-.077-2.453-.038-.652-.115-1.035-.153-1.15a.55.55 0 0 0-.23-.269c-.116-.076-.422-.115-.959-.191l-.882-.077v-.69h2.416c.651.077 1.188.077 1.533.077l4.332-.077h2.07c.69 0 1.418 0 2.108.077-.268.881-.46 2.031-.46 3.45h-.766c0-.805-.039-1.495-.115-2.032-.882-.307-1.994-.498-3.297-.498-1.035 0-2.109.038-3.259.115v6.057c.729.038 1.419.076 1.994.076 1.801 0 2.798-.076 3.028-.191q.345-.173.345-1.15v-.729h.767c-.038 1.112-.077 2.032-.077 2.684 0 .69 0 1.533.077 2.491h-.767v-.651c0-.729-.153-1.15-.421-1.304q-.404-.23-2.991-.23c-.651 0-1.303 0-1.955.077zM36.553 9c1.725 0 3.297.422 4.715 1.227a9.23 9.23 0 0 1 3.489 3.488c.805 1.419 1.227 3.067 1.227 4.945 0 2.914-.92 5.29-2.722 7.13s-4.14 2.761-6.939 2.761c-3.143 0-5.635-1.112-7.475-3.297-1.495-1.802-2.262-3.948-2.262-6.44 0-1.879.422-3.527 1.265-5.022s2.032-2.645 3.604-3.489A10.5 10.5 0 0 1 36.553 9m0 1.457c-1.418 0-2.645.306-3.642.958-1.035.652-1.84 1.61-2.453 2.837-.614 1.265-.92 2.798-.92 4.638s.306 3.259.92 4.486c.613 1.226 1.418 2.146 2.453 2.798s2.147.959 3.45.959 2.377-.307 3.336-.959c.958-.651 1.763-1.648 2.415-3.028.651-1.38.958-2.875.958-4.562s-.307-3.259-.958-4.677c-.537-1.227-1.265-2.108-2.185-2.684-.882-.575-2.032-.881-3.336-.881zM78.76 12.91h7.054v.92h-.537c-.499 0-.882.077-1.112.192s-.383.268-.498.498-.154.652-.154 1.265v9.93c0 .498.077.843.192 1.073.115.191.268.345.498.46.192.076.575.153 1.112.153h.537v.92h-7.054v-.92h.575c.537 0 .882-.038 1.112-.153s.383-.23.46-.422c.115-.192.153-.537.153-1.073v-10.16c0-.574-.038-.958-.153-1.15a.98.98 0 0 0-.46-.421c-.23-.077-.575-.153-1.112-.153h-.575v-.92zm9.123-.92h.767l.115.537h9.43l.077-.537h.805l1.61 4.524-.996.345c-.46-1.189-1.035-2.07-1.687-2.53s-1.495-.729-2.53-.729c-.422 0-.69 0-.767.039a.165.165 0 0 0-.153.153c0 .077-.039.345-.039.767v10.657c0 .498 0 .843.077 1.035a.76.76 0 0 0 .23.422c.115.076.23.153.422.191s.575.077 1.188.077v.92H90.49v-.92c.652 0 1.035 0 1.189-.077a.87.87 0 0 0 .536-.421c.115-.192.153-.575.153-1.15V14.405c0-.345 0-.536-.038-.613 0-.077-.076-.115-.192-.153-.076-.039-.268-.077-.575-.077-.805 0-1.456.115-1.916.307q-.69.287-1.38 1.035a6.1 6.1 0 0 0-1.074 1.916l-.996-.344 1.571-4.524zm19.552 1.112h1.801l4.792 12.842c.23.652.46 1.074.729 1.265.23.192.575.307.958.307h.23v.92h-5.482v-.92H111c.345 0 .575 0 .69-.115.23-.153.306-.307.306-.537 0-.153-.115-.536-.306-1.15l-1.035-2.99h-5.559l-1.188 3.335c-.115.345-.192.575-.192.729 0 .153.038.268.115.383a.6.6 0 0 0 .307.23c.115.038.345.077.651.077h.499v.92h-4.6v-.92q.632 0 .92-.115c.191-.077.345-.23.498-.422s.307-.575.537-1.188l4.792-12.728zm-1.956 8.587h4.754l-2.377-6.632z" fill="#231815"/><path d="M115.677 13.064h5.137l7.629 11.539v-8.78c0-.536-.077-.92-.154-1.15-.115-.23-.268-.421-.498-.536s-.575-.192-.997-.192h-.421v-.92h5.596v.92h-.306c-.499 0-.844 0-.997.115-.23.115-.422.307-.537.575-.115.269-.191.652-.191 1.15v12.613h-1.457l-9.2-13.84v10.965c0 .613 0 .996.076 1.111.039.154.154.307.307.46a.9.9 0 0 0 .537.269c.191.038.613.076 1.226.076v.92h-5.673v-.92h.306c.575 0 .959-.038 1.189-.153a1.08 1.08 0 0 0 .46-.537c.115-.268.153-.69.153-1.265v-9.737c0-.613 0-.997-.038-1.112-.077-.268-.192-.421-.422-.536-.192-.115-.613-.154-1.227-.154h-.421v-.92zM34.253 40.435c1.035 0 1.189-.192 1.189-1.457v-3.795c0-1.227-.154-1.457-1.189-1.457v-.345h6.364l.115 1.725h-.345l-.077-.23c-.153-.651-.306-.92-1.418-.92h-1.879v2.645h.69c1.227 0 1.419-.153 1.419-1.188h.345v2.914h-.345c0-1.035-.192-1.189-1.419-1.189h-.69v1.649c0 1.226.154 1.456 1.189 1.456h1.111c1.15 0 1.265-.268 1.419-.92l.077-.23h.345l-.116 1.725h-6.746v-.345zm14.49-5.252c0-1.227-.153-1.457-1.188-1.457v-.345h2.913v.345c-1.035 0-1.188.192-1.188 1.457v5.827h-.307l-5.099-6.095v4.063c0 1.227.154 1.457 1.189 1.457v.345h-2.914v-.345c1.035 0 1.189-.192 1.189-1.457v-3.795c0-1.227-.154-1.457-1.189-1.457v-.345h2.454l4.14 4.907zm12.153.268c0 1.15-.959 2.07-2.492 2.07h-1.418v1.457c0 1.227.153 1.457 1.188 1.457v.345h-3.91v-.345c1.035 0 1.188-.192 1.188-1.457v-3.795c0-1.227-.153-1.457-1.188-1.457v-.345h4.14c1.533 0 2.492.92 2.492 2.07m-1.648 0c0-.843-.499-1.533-1.572-1.533h-.69v3.029h.69c1.073 0 1.572-.69 1.572-1.534zm8.05 3.374c1.073 1.188 1.571 1.495 2.3 1.572v.345h-2.684l-2.185-3.259h-.345v1.457c0 1.227.153 1.457 1.189 1.457v.345h-3.91v-.345c1.034 0 1.188-.192 1.188-1.457v-3.795c0-1.227-.154-1.457-1.189-1.457v-.345h4.14c1.534 0 2.492.92 2.492 2.07 0 1.073-.843 1.955-2.185 2.07l1.189 1.303zm-.69-3.374c0-.843-.499-1.533-1.572-1.533h-.69v3.028h.69c1.073 0 1.572-.69 1.572-1.533zm7.897 5.521c-2.262 0-4.102-1.764-4.102-3.91s1.84-3.91 4.102-3.91 4.102 1.763 4.14 3.91c.038 2.146-1.84 3.91-4.102 3.91zm0-7.207c-1.725 0-2.453 1.84-2.453 3.335s.728 3.335 2.453 3.335 2.453-1.84 2.453-3.335-.69-3.335-2.453-3.335M86.159 34.8l-2.684 6.172h-.268L80.523 34.8c-.345-.805-.536-1.074-1.495-1.074v-.345h4.064v.345c-1.073 0-1.227.269-.92.92l1.725 4.026 1.725-4.026c.268-.651.115-.92-.92-.92v-.345h2.99v.345c-.843 0-1.15.192-1.533 1.074m1.533 5.597c1.035 0 1.189-.192 1.189-1.457v-3.795c0-1.227-.154-1.457-1.189-1.457v-.345h6.364l.115 1.725h-.345l-.077-.23c-.153-.652-.307-.92-1.418-.92h-1.879v2.645h.69c1.227 0 1.419-.153 1.419-1.188h.345v2.913h-.345c0-1.035-.192-1.188-1.419-1.188h-.69v1.648c0 1.227.154 1.457 1.189 1.457h1.111c1.15 0 1.266-.268 1.419-.92l.076-.23h.346l-.115 1.725H87.73v-.345zm14.491-5.252c0-1.227-.153-1.457-1.188-1.457v-.345h2.913v.345c-1.035 0-1.188.192-1.188 1.457v5.827h-.307l-5.098-6.096v4.064c0 1.227.153 1.457 1.188 1.457v.345H95.59v-.345c1.035 0 1.188-.192 1.188-1.457v-3.795c0-1.227-.153-1.457-1.188-1.457v-.345h2.453l4.14 4.907zm9.468 5.482c-.077-.307-.153-.575-.307-.69-.613.651-1.418 1.035-2.3 1.035-2.07 0-3.795-1.764-3.795-3.91s1.687-3.91 3.795-3.91c.882 0 1.649.383 2.3 1.034.154-.115.23-.383.307-.69h.345v2.722h-.345c-.345-1.61-1.342-2.453-2.568-2.453-1.687 0-2.186 1.801-2.186 3.335 0 1.533.499 3.335 2.186 3.335 1.226 0 2.223-.882 2.568-2.454h.345v2.722h-.345zm1.726-.23c1.035 0 1.188-.192 1.188-1.457v-3.795c0-1.227-.153-1.457-1.188-1.457v-.345h6.363l.115 1.725h-.345l-.076-.23c-.154-.652-.307-.92-1.419-.92h-1.878v2.645h.69c1.227 0 1.418-.153 1.418-1.188h.345v2.913h-.345c0-1.035-.191-1.188-1.418-1.188h-.69v1.648c0 1.227.153 1.457 1.188 1.457h1.112c1.15 0 1.265-.268 1.418-.92l.077-.23h.345l-.115 1.725h-6.747v-.345zM21.142 17.74c.92-.92 1.495-1.84 1.648-2.76h-.115c-.882 0-1.61-.766-1.61-1.61 0-.843.69-1.61 1.61-1.61s1.84.69 1.84 1.994c0 1.456-.92 3.335-2.837 4.523l-.498-.498z" fill="#231815"/></svg>