<svg width="75" height="51" fill="none" xmlns="http://www.w3.org/2000/svg"><path d="M19.366 22.857H17.74c-.832-3.675-1.683-7.351-2.534-11.085-.213.155-.232.33-.252.484-.31 1.296-.619 2.592-.909 3.888-.445 1.877-.87 3.734-1.315 5.61-.078.368-.175.735-.271 1.103h-1.664c-.87-3.675-1.722-7.351-2.592-11.027-.271.039-.232.252-.252.368-.367 1.586-.735 3.172-1.083 4.759-.406 1.76-.793 3.501-1.2 5.262a10 10 0 0 1-.154.619H3.909q1.683-7.43 3.366-14.8H8.92c.348 1.22.6 2.457.89 3.696.29 1.218.6 2.456.87 3.675.29 1.238.561 2.476.89 3.695h.116c.058-.135.116-.251.155-.406.406-1.703.793-3.405 1.2-5.107.425-1.78.83-3.56 1.256-5.359 0-.058.04-.135.078-.232h1.644c1.122 4.894 2.225 9.827 3.366 14.799zm38.864 0V8.058c.136 0 .271-.039.387-.039h4.778c1.683 0 3.192 1.142 3.58 2.728.328 1.277.193 2.476-.678 3.52-.155.175-.348.33-.541.543.154.096.27.193.406.27 1.122.697 1.663 1.722 1.74 3.018.04.735 0 1.451-.231 2.148-.465 1.392-1.451 2.205-2.863 2.514-.31.078-.658.116-.987.116h-5.3c-.078 0-.175 0-.31-.019zm1.587-1.49c.154 0 .251.02.348.02h3.23c.31 0 .62-.039.929-.097.696-.135 1.219-.542 1.586-1.141.368-.62.387-1.277.368-1.954-.039-1.412-1.045-2.515-2.554-2.515h-1.567c-.445-.464-.85-.928-1.315-1.412.155 0 .251-.039.367-.039h2.09c.445 0 .85-.077 1.238-.329.832-.58 1.18-1.644.87-2.67-.31-1.005-1.102-1.644-2.147-1.663h-3.115c-.096 0-.193.02-.31.039v11.762zm-12.71 14.877v1.683c.619.077 1.2.02 1.78.038h3.598v.91h-5.282c-.019.425.136.735.33 1.025.56.832 1.353 1.374 2.282 1.722.832.31 1.722.406 2.65.425.155.271.33.561.542.89-1.49 0-2.883-.193-4.198-.812-.774-.368-1.45-.87-1.973-1.587-.058-.077-.136-.154-.213-.232-.058.039-.116.039-.155.078-.832 1.2-2.05 1.837-3.424 2.205a9.9 9.9 0 0 1-2.863.31c.194-.31.329-.58.484-.832.56-.058 1.122-.097 1.663-.194 1.297-.232 2.438-.793 3.25-1.857.252-.329.387-.677.426-1.141-.6-.039-1.16 0-1.741 0h-3.502c0-.155-.038-.29-.038-.407v-.425c.348-.136.696-.058 1.044-.058h4.295c.097-.58.058-1.122.039-1.703h-5.359v-.909h5.34c.038-.6.057-1.141 0-1.721H40.8c-.135-.31-.058-.6-.077-.929H46.1c0-.58.038-1.103-.039-1.683h-5.34v-.91h1.374c.116-.657 0-1.295.078-1.914h.909v1.799s.058.058.077.058c0 0 .02.02.039.02 2.07 0 4.16 0 6.23.018h.521c0-.348.02-.638.02-.948v-.967h.986v1.877c.503 0 .948.038 1.432.038v.89h-5.34c-.019.58-.019 1.103 0 1.664.6.077 1.2.02 1.78.039h3.56v.89c-.155 0-.31.019-.484.019H47.59c-.174 0-.329 0-.522.02v1.663c.445.097.89.039 1.335.039h3.985c0 .154.039.29.039.425v.465c-.62.057-1.2.019-1.78.019h-3.598zM36.796 15.042h1.935q.435 0 .87-.058c.929-.136 1.528-.678 1.857-1.548a3.02 3.02 0 0 0-.058-2.321c-.387-.91-1.083-1.432-2.089-1.47-1.18-.04-2.36 0-3.54 0-.058 0-.097 0-.155.019 0 0-.02.038-.039.038 0 0-.019.02-.019.039v13s0 .039-.039.116c-.503.039-1.025 0-1.528 0-.039-.039-.058-.039-.077-.058 0 0-.02-.02-.02-.039 0-.135-.019-.27-.019-.406V8.077c.135-.019.252-.058.368-.058 1.605 0 3.23-.019 4.836 0 1.238.02 2.36.387 3.23 1.335a4.07 4.07 0 0 1 1.064 2.38c.117 1.044 0 2.03-.58 2.94-.56.948-1.412 1.509-2.437 1.838-.136.038-.29.077-.503.155.657 1.102 1.392 2.07 2.07 3.095s1.373 2.031 2.089 3.095h-1.935a4685 4685 0 0 1-5.3-7.796zm16.85-7.003h1.644c0 .154.039.31.039.445v10.195c0 2.147-1.238 3.772-3.386 4.255-1.47.33-2.863.155-4.14-.638-.928-.58-1.47-1.45-1.702-2.495a9 9 0 0 1-.135-1.238V8.483c0-.135 0-.27.02-.425h1.624c.136.174.078.406.078.6v9.885c0 .31 0 .639.077.929.329 1.18 1.141 1.837 2.321 2.03 1.316.214 2.477-.231 3.173-1.392.31-.503.367-1.083.367-1.644V8.058zm-28.128.019c.096 0 .174-.039.232-.039h1.277c.251.368 4.72 13.523 5.049 14.819h-1.703c-.657-1.935-1.334-3.889-1.992-5.862-.658-1.934-1.335-3.888-2.012-5.9-.097.135-.174.193-.194.27-.638 1.858-1.257 3.696-1.895 5.553a657 657 0 0 1-1.954 5.687c-.02.078-.078.155-.116.252h-1.587s-.058-.039-.058-.058v-.058c.271-.852.561-1.703.832-2.554 1.354-4.043 2.728-8.086 4.101-12.13zm11.839 32.036h.89c-.02.619.077 1.218-.097 1.799-.193.677-.657 1.044-1.354 1.064h-1.412c-.929-.02-1.432-.523-1.49-1.451V31.079c-.445-.097-5.165-.116-5.726 0-.038 2.263-.116 4.546-.58 6.81.445.173.909 0 1.393.135.154.251.31.522.522.89h-2.109c-.348.657-.638 1.257-.967 1.857a9.6 9.6 0 0 1-1.354 1.837c-.27.29-.542.465-.967.407-.271-.04-.561 0-.89 0 .445-.407.89-.736 1.238-1.122.367-.426.696-.91 1.006-1.393.29-.465.522-.968.774-1.49-.503-.155-.948 0-1.432-.116-.155-.251-.31-.522-.503-.851.774-.077 1.47.02 2.206-.058.58-2.264.56-4.546.638-6.829-.29-.174-.6-.077-.89-.097h-.87a66 66 0 0 1-.561-.948h2.302v-1.895h1.006v1.837c.464.116.89.058 1.315.058h5.359c0 .213.019.387.019.58v10.254c0 .193 0 .387.039.56.077.407.27.581.677.6.386.02.754.02 1.141 0 .387-.019.6-.232.619-.638v-1.315zM70.495 8.039h1.509s.039.02.058.038c0 0 0 .04.02.04 0 .096.019.212.019.309V22.78c-.29.154-.561.058-.832.077h-.755c-.038-.039-.058-.058-.058-.077 0 0-.019-.02-.019-.039V8.135c0-.038.02-.058.058-.116z" fill="#c71d1d"/></svg>