<svg width="114" height="50" fill="none" xmlns="http://www.w3.org/2000/svg"><path d="M5 24.992h5.555c-.079 2.582 1.93 2.19 4.224 2.295s3.234-.496 3.756-.913.547-1.982-.783-2.269c-.26-.052-1.408-.052-4.094-.13-2.53-.052-4.068-.34-4.642-.417-1.617-.209-2.269-.47-2.842-1.278-.444-.6-.94-1.2-.94-2.217 0-1.956.548-3.155 2.087-3.755 1.147-.444 3.599-.678 7.354-.678 2.373 0 4.094.078 5.164.26 1.069.157 1.903.496 2.503.965.365.287.626.652.783 1.044.156.39.234 1.069.312 1.877h-4.954c0-.339 0-.704-.392-1.278-.365-.573-1.564-.469-2.999-.469-1.564 0-3.468.104-3.99.521-.495.392-.443.835-.47 1.226 0 .574.053 1.017.888 1.07.652.052.104.156 4.172.182 1.956 0 6.18.47 7.041 1.095.887.626 1.565 1.304 1.46 2.817-.13 1.903-.756 2.973-2.112 3.677-1.225.652-3.86 1.043-7.823.99-2.556-.025-4.355-.104-5.477-.286-1.095-.183-1.982-.548-2.607-1.095-.783-.678-1.122-1.774-1.148-3.208zM59.686 10.44h5.112v19.037h-5.112zM36.868 24.992h5.554c-.078 2.582 1.93 2.19 4.225 2.295s3.234-.496 3.755-.913c.522-.417.548-1.982-.782-2.269-.26-.052-1.408-.052-4.094-.13-2.53-.052-4.068-.34-4.642-.417-1.617-.209-2.27-.47-2.843-1.278-.443-.6-.939-1.2-.939-2.217 0-1.956.548-3.155 2.087-3.755 1.147-.444 3.599-.678 7.354-.678 2.373 0 4.094.078 5.163.26 1.07.157 1.904.496 2.504.965.365.287.626.652.782 1.044.157.39.235 1.069.313 1.877H50.35c0-.339 0-.704-.391-1.278-.365-.573-1.565-.469-2.999-.469-1.565 0-3.468.104-3.99.521-.495.392-.443.835-.47 1.226 0 .574.053 1.017.887 1.07.652.052.105.156 4.173.182 1.956 0 6.18.47 7.041 1.095.887.626 1.565 1.304 1.46 2.817-.13 1.903-.756 2.973-2.112 3.677-1.226.652-3.86 1.043-7.823.99-2.556-.025-4.356-.104-5.477-.286-1.095-.183-1.982-.548-2.608-1.095-.782-.678-1.121-1.774-1.147-3.208zm-8.685-9.18h5.112v13.692h-5.112zm0-5.476h5.138v2.869h-5.138zm54.609 14.63h5.293c.053 1.643-.651 2.66-1.564 3.312-.522.365-1.539.913-2.921 1.121-1.252.183-3.103.313-5.607.313-2.06 0-3.599-.13-4.694-.365-1.669-.339-3.181-.99-3.912-2.973-.287-.808-.521-1.956-.521-3.65 0-1.279.052-2.217.156-2.87.313-2.007 1.878-3.337 3.651-3.729 1.252-.287 3.182-.521 5.868-.521 2.347 0 4.016.026 4.98.235 3.39.704 4.304 2.764 4.486 6.545 0 .209.026.287 0 .991H74.03c0 .809 0 2.4.73 2.869 1.383.887 4.955.808 6.624.547 1.174-.156 1.383-.912 1.409-1.851zm.13-3.677c0-.73.052-1.226 0-1.487a1.9 1.9 0 0 0-.34-.73c-.494-.6-1.825-.912-3.963-.912-1.93 0-3.208.208-3.834.6-.625.39-.756 1.251-.782 2.529zm6.363-5.503h5.45l5.06 11.553 3.885-11.553H109l-5.894 15.439c-.626 1.669-1.408 2.66-2.921 3.52-.912.522-2.53.861-4.433.835-1.252 0-1.825-.078-2.243-.13v-2.634h2.19c.914 0 2.713-1.748 2.66-3.104h-2.137L89.31 15.76z" fill="#231815"/><path fill-rule="evenodd" clip-rule="evenodd" d="M70.9 38.083c0 .47-.26.835-.756 1.148-.496.286-1.174.443-2.008.443-.887 0-1.565-.157-2.008-.47q-.705-.468-.705-1.33h.835c.052.418.235.73.574.94.339.208.834.286 1.538.286.496 0 .887-.078 1.2-.26.313-.183.443-.418.443-.705 0-.365-.339-.625-1.017-.756l-1.904-.365q-1.407-.274-1.408-1.252c0-.47.209-.834.652-1.121s.991-.417 1.695-.417c1.774 0 2.66.547 2.712 1.617l-.886-.235s-.235-.444-.496-.574c-.313-.156-.704-.235-1.225-.235-.444 0-.809.079-1.122.261-.313.183-.443.391-.443.652 0 .34.313.574.913.704l2.19.417c.391.079.678.235.939.47.26.26.365.521.365.834zm-7.172 1.409h-.939v-5.216h.94zm-2.555 0h-1.096a3 3 0 0 1-.182-.496c-.052-.183-.052-.47-.026-.809q-.039-.938-1.096-.938H56.4v2.242h-.912v-5.215h3.26c.808 0 1.408.13 1.747.417.287.235.443.6.443 1.07 0 .469-.313.834-.913 1.173.313.156.548.313.626.417q.117.117.156.47 0 .312.079 1.095c.026.182.13.339.339.443v.183zm-1.174-3.834a.63.63 0 0 0-.339-.574 1.8 1.8 0 0 0-.887-.208H56.4v1.799h2.373c.809 0 1.226-.339 1.226-.991zm-5.841 3.834H53.14l-.705-1.565H49.75l-.756 1.565h-.965l2.556-5.216h1.095l2.452 5.215zm-1.982-2.113-1.044-2.295-1.147 2.295zm-4.095-1.617c0 .47-.208.835-.6 1.122q-.547.39-1.33.39h-2.399v2.218h-.939v-5.216h3.182c.652 0 1.174.13 1.565.417.365.26.521.626.521 1.043zm-.965 0c0-.234-.104-.443-.339-.626a1.25 1.25 0 0 0-.808-.26h-2.243V36.7h2.347c.235 0 .444-.078.652-.235.235-.182.365-.417.365-.704z" fill="#231815"/></svg>