<svg width="104" height="50" fill="none" xmlns="http://www.w3.org/2000/svg"><path d="M96.42 41.29h-1.507v-2.585c-.145-.217-1.584-2.405-1.886-2.83-.302-.421-.602-.52-.604-.52l-.436-.135h1.66c.433 0 .83.228 1.119.642.258.367.985 1.47 1.197 1.793l1.524-2.435h.969l-2.036 3.26v2.813zm-4.602.126c-.204 0-.4-.13-.541-.36l-1.492-2.446h-.26v2.68h-1.492v-5.42c0-.291-.454-.514-.46-.517l-.272-.133h2.974c1.034 0 2.243.46 2.243 1.76 0 1.007-.847 1.355-1.135 1.442.204.327.955 1.533 1.094 1.775.158.274.419.332.612.332.079 0 .133-.011.133-.011l.414-.082-.365.212-1.224.71a.46.46 0 0 1-.229.063zm-1.774-5.668c-.201 0-.42.024-.52.038v2.348h.574c.177 0 1.056-.06 1.056-1.265 0-1.121-.827-1.121-1.1-1.121h-.013zm-26.608 5.545h-.615l-1.178-2.928-1.086 2.926h-.615l-2.166-5.377c-.144-.365-.522-.564-.525-.564l-.256-.133h1.33c.357 0 .765.288.907.645l1.339 3.442.7-1.861-.613-1.53c-.163-.4-.525-.56-.53-.563l-.308-.133h1.388c.361 0 .761.283.908.645l1.34 3.445 1.534-4.082h.718l-2.27 6.068zm-38.709 0h-1.49v-5.507c0-.289-.355-.433-.36-.433l-.337-.133h5.15v.073c-.016.264-.176.76-.701.76h-2.28v1.803h2.174v.833h-2.158v2.604zm31.419.003h-3.739v-5.508c0-.288-.356-.432-.359-.435l-.337-.133h5.15l-.002.07c-.01.264-.174.765-.696.765h-2.28v1.801h2.17v.833h-2.157v1.793h2.911v.068c0 .014.009.351-.204.572a.62.62 0 0 1-.457.177zm14.379-.003h-3.739v-5.505c0-.288-.356-.432-.36-.435l-.337-.136h5.154l-.002.076c-.014.261-.175.76-.697.76h-2.28v1.8h2.174v.833H68.28v1.794h2.912v.068c0 .013.008.353-.204.571a.62.62 0 0 1-.458.177zm15.623-.003h-3.742v-5.504c0-.289-.357-.433-.36-.436l-.337-.136h5.154l-.002.076c-.011.261-.175.76-.697.76h-2.28v1.801h2.174v.833H83.9v1.793h2.911v.068c0 .014.009.354-.204.571a.62.62 0 0 1-.457.177zm-76.747.003H5.698v-5.507c0-.289-.357-.433-.36-.436l-.337-.133h1.546c.31 0 .552.256.552.582v4.694h3.05v.068s.009.316-.2.528c-.131.133-.317.202-.548.202zm66.692.003h-3.706v-5.508c0-.288-.357-.432-.36-.435l-.337-.136h1.546c.31 0 .552.256.552.582v4.694h3.05v.068s.009.316-.2.528q-.2.204-.548.204zm5.083 0h-3.704v-5.508c0-.285-.356-.432-.359-.435l-.332-.133h1.543c.31 0 .552.255.552.582v4.694h3.05v.068s.009.316-.2.528c-.131.136-.316.204-.547.204zm-59.799.136a.87.87 0 0 1-.52-.196c-.283-.217-2.277-1.665-2.819-2.06v2.112h-1.442v-5.505c0-.289-.354-.433-.36-.436l-.337-.133h1.554c.264 0 .585.275.585.618v2.778l2.631-3.396h1.043l-2.34 3.149c.348.253 2.19 1.586 2.435 1.744a.4.4 0 0 0 .215.054c.226 0 .47-.12.473-.122l.234-.117-.146.218c-.028.04-.65.974-.814 1.137a.55.55 0 0 1-.395.152zm23.879-.03a.87.87 0 0 1-.52-.196 290 290 0 0 0-2.623-1.918v2.003h-1.442v-5.503c0-.288-.354-.432-.36-.435l-.337-.133h1.554c.264 0 .585.274.585.617v2.496l2.408-3.11h1.042l-2.31 3.112c.349.253 2.19 1.587 2.436 1.745a.4.4 0 0 0 .215.054c.225 0 .47-.12.473-.122l.234-.117-.144.217c-.027.041-.65.974-.814 1.138a.55.55 0 0 1-.394.152zm4.43 1.32h-1.418l-.005-.139c.054-.005 1.336-.139 1.336-1.268v-5.497c0-.329-.397-.462-.403-.465l-.419-.136h1.646c.373 0 .65.367.65.697v5.496c0 .577-.652 1.31-1.39 1.31zm-36.878-1.276c-1.717 0-2.587-.936-2.587-2.779v-2.881c0-.289-.357-.433-.36-.436l-.337-.136h1.54c.332 0 .601.294.601.65v3.076c.006.614.112 1.102.319 1.45.19.321.539.506.955.506.53 0 .903-.171 1.14-.525.242-.357.365-.93.365-1.706v-3.45h.914v3.45q.001.654-.133 1.162c-.09.34-.237.636-.438.876-.202.242-.471.427-.792.552s-.718.188-1.178.188zm24.122-.104c-1.846 0-2.992-1.18-2.992-3.086 0-1.904 1.146-3.085 2.991-3.085s2.99 1.183 2.99 3.085c0 1.903-1.145 3.086-2.99 3.086m0-5.682c-.94 0-1.522.996-1.522 2.596s.582 2.596 1.521 2.596 1.518-.995 1.518-2.596-.582-2.596-1.518-2.596m-6.364 5.682c-1.845 0-2.99-1.18-2.99-3.086 0-1.904 1.145-3.085 2.99-3.085s2.99 1.183 2.99 3.085c0 1.903-1.145 3.086-2.99 3.086m0-5.682c-.939 0-1.521.996-1.521 2.596s.582 2.596 1.52 2.596c.94 0 1.52-.995 1.52-2.596s-.583-2.596-1.52-2.596m45.671-4.645.95-.201a3.27 3.27 0 0 1-2.153-2.455l-1.434-7.233c1.154-.054 2.204-.77 2.626-1.78h-5.951v-3.559h2.28c1.211 0 2.253-.74 2.694-1.79h-4.974v-3.442h-2.667v3.442h-1.666v-2.308h-2.666v.866h-9.144v1.744h2.841v5.565h-2.84v1.744h2.84v3.799c0 .87-.35 1.66-.922 2.234l-1.998.272.232 1.728 5.554-.756a2.85 2.85 0 0 0 2.37-2.077l-3.655.495a3.17 3.17 0 0 0 1.015-2.32v-3.375h.458a2.84 2.84 0 0 0 2.514-1.518v1.047h1.6l-1.431 7.222a3.27 3.27 0 0 1-2.153 2.455l1.091.201c1.766.351 3.312-.797 3.663-2.563l1.448-7.312h.849v8.324a3.26 3.26 0 0 1-1.633 2.825h1.04a3.263 3.263 0 0 0 3.26-3.263V21.14h.846l1.45 7.312c.349 1.766 1.894 2.914 3.66 2.563zM67.608 19.35h-5.07v.517h-2.969v-5.564h1.17a2.84 2.84 0 0 0 2.534-1.554v2.155a3.26 3.26 0 0 1-1.633 2.825h1.037c1.33 0 2.468-.795 2.977-1.935h1.95v3.56zM10.253 29.785l1.84-9.807h-2.6l-1.825 9.717a3.12 3.12 0 0 1-2.06 2.343l.974.196a3.117 3.117 0 0 0 3.668-2.449zm24.311-10.34 1.445 3.804a2.79 2.79 0 0 0 .683-3.015l-1.35-3.568 1.113-1.831H28.55v1.712h4.626l-4 6.547a2.35 2.35 0 0 1-2.082 1.115l.637.395a2.364 2.364 0 0 0 3.252-.762l1.616-2.664v10.997a3.19 3.19 0 0 0 1.962-2.948v-9.782zm-13.88.533h-2.599l1.84 9.807a3.116 3.116 0 0 0 3.665 2.45l.974-.197a3.11 3.11 0 0 1-2.057-2.342zm1.226-2.798a4.16 4.16 0 0 0 3.835-2.55h-9.236l-.302-4.065h-2.583l.305 4.066H5.265v2.55h16.648zm14.622-5.717h-6.493v1.641h4.024a2.68 2.68 0 0 0 2.469-1.64m13.445 17.619V20.83H37.299v11.326h9.603c1.698 0 3.075-.844 3.075-3.073m-7.731 1.385h-2.264V27.08h2.264zm0-5.078h-2.264v-2.87h2.264zm5.22 5.078h-2.542v-3.39a2.75 2.75 0 0 0 2.522-1.687h-2.522V22.52h2.541zm1.869-12.876v-3.46H39.54c-.629 0-1.181.308-1.527.776.134-.761.721-2.108 2.087-2.108h6.667a2.79 2.79 0 0 0 2.575-1.712H39.54a1.89 1.89 0 0 0-1.889 1.888v6.501h9.8a1.89 1.89 0 0 0 1.888-1.888zm-2.541.26h-6.645v-2.06h6.645zM96.728 27.5v-6.058h-16.14v8.738h2.384c-.247.939-.985 1.548-1.856 1.845l1.07.253c1.325.231 2.955-.62 3.3-2.098h6.346c.346 1.477 1.949 2.324 3.274 2.095l1.094-.25c-.87-.297-1.608-.906-1.856-1.845 0 0 2.384-.21 2.384-2.68m-2.457 1.017H83.258v-.98h9.078c.805 0 1.496-.49 1.788-1.189H83.258v-.985h9.078c.805 0 1.496-.492 1.788-1.191H83.258v-1.018H94.27v5.366zm-4.327-16.463-.115-1.505h-2.582l.114 1.505h-9.037v3.14h2.61v.746h2.242v.702H80.85v1.445h2.326V19.2l-3.293.19.096 1.614 5.412-.313a2.635 2.635 0 0 0 2.332-1.755l-2.617.152v-1.001h2.541v-1.445h-2.541v-.702h2.541v-1.513h-6.623V13.7h8.569c-.139 1.949-1.581 2.672-1.581 2.672h.895s.988.041 1.853-.432h1.187v.702h-3.14v1.445h3.14v1.243h-3.353a2.36 2.36 0 0 0 2.174 1.445h4.65a2.36 2.36 0 0 0 2.175-1.445h-3.72v-1.243h3.472v-1.445h-3.472v-.702h2.294l.006-.006C97.748 15.877 99 15.04 99 12.941v-.887zm6.386 2.376h-4.386a3 3 0 0 0 .098-.73h4.476a2.6 2.6 0 0 1-.19.73z" fill="#9b706c"/></svg>