<svg width="50" height="50" fill="none" xmlns="http://www.w3.org/2000/svg"><path d="M32.38 27.6v6.592c0 1.433.86 2.006 2.006 2.006h.573v-8.597h-.573v8.426c-.86 0-1.433-.4-1.433-1.834v-6.591c0-1.433.573-1.834 1.433-1.834h.573v-.172h-.573c-1.146 0-2.006.573-2.006 2.006m-23.8-2.008h-.574C6.86 25.595 6 26.169 6 27.6v8.598h.573v-8.597c0-1.433.573-1.834 1.433-1.834v10.432h.573V25.767c.86 0 1.433.4 1.433 1.834v8.597h.573v-8.597c0-1.433-.86-2.006-2.006-2.006m15.25 0h-.572v10.604h.573V25.765c.86 0 1.433.401 1.433 1.834v8.598h.573v-8.598c0-1.433-.86-2.006-2.006-2.006m20.25 8.599V31.44c0-1.121-.527-1.715-1.306-1.92.779-.206 1.307-.798 1.307-1.92 0-1.432-.86-2.006-2.006-2.006h-.574v10.604h.574v-6.591c.86 0 1.432.4 1.432 1.833v2.752c0 1.433.86 2.006 2.006 2.006v-.173c-.86 0-1.432-.4-1.432-1.833m-2.005-8.425c.86 0 1.432.4 1.432 1.834 0 1.432-.573 1.833-1.432 1.833v-3.669zm-25.44 10.431h.573V25.595h-.573zm0-11.463h.573v-.86h-.573zM10.847 4.287h-.57V16.26c0 2.281-.57 3.136-1.597 3.992l.171.196c1.14-.767 1.996-1.907 1.996-4.188v-4.334h1.71v-.285h-1.71V8.505h1.71V8.22h-1.71V4.456h2.566V20.25h.57V4.285h-3.136zm8.839 2.28c0 2.15-.508 3.033-1.426 3.845V4.414h-.57V16.26c0 2.281-.57 3.136-1.597 3.992l.171.196c1.14-.767 1.996-1.907 1.996-4.188v-4.39c.855 0 1.426.398 1.426 1.824v6.558h.57v-6.843h-.013c-.108-1.217-.921-1.71-1.983-1.71v-.97h.037c1.12-.765 1.955-1.902 1.957-4.151V4.414h-.57v2.154zm4.275-2.566h-.57v.856h-2.566v3.706c0 1.278.688 1.867 1.653 1.976-.168 1.474-.701 2.172-1.54 2.871v.285h2.453v6.558h.57v-6.558h1.426v-.285H23.96V11.7h-.57v1.71h-2.008c.802-.612 1.424-1.46 1.64-2.85h.368c1.14 0 1.996-.571 1.996-1.997V4.857H23.96zm-1.426 5.416q0 .52-.04.946c-.67-.1-1.1-.566-1.1-1.801v-.057h1.14zm0-1.197h-1.14V5.14h1.14zm2.281-3.078v3.421c0 1.426-.57 1.825-1.425 1.825h-.345c.038-.3.06-.62.06-.97v-.912h.855v-.285h-.855v-3.08zM9.706 15.405V7.992c0-1.426-.855-1.996-1.995-1.996H6V17.4h1.71c1.141 0 1.997-.57 1.997-1.996M7.712 17.23H6.57v-7.014h1.71V9.93H6.57V6.167h1.14c.855 0 1.425.4 1.425 1.825v7.413c0 1.425-.57 1.825-1.425 1.825m34.498-6.957h1.71v-.286h-1.71V8.562h1.71v-.285h-3.991v.285h1.71v1.425h-1.71v.286h1.71v9.694h-2.85v.285h6.272v-.285h-2.851zm-3.137-5.131h5.703v1.426h.57V4.857h-3.136V4h-.57v.856h-3.137v1.71h.57zm-2.85 4.845h-1.997V6.281h1.711v-.285h-1.71V4h-.57v1.996h-1.141v-1.14h-.57V7.42c0 1.426-.57 1.825-1.426 1.825v.171c1.14 0 1.996-.57 1.996-1.996V6.28h1.14v3.706H31.66v.286h1.996v9.979h.57v-9.98h1.996zm-4.848 5.418h-.57c0 1.425-.57 1.825-1.426 1.825v-6.957h1.14v-.286h-1.14V6.281h1.14v-.285h-2.85v.285h1.14v3.706h-1.14v.286h1.14v6.957h-1.14v.17h1.71c1.14 0 1.996-.57 1.996-1.995m4.277.855v-4.562h-.57v4.562c0 2.281.855 3.421 1.995 4.188l.172-.196c-1.027-.856-1.597-1.71-1.597-3.992m8.268-1.14v-1.711h-.57v1.71c0 2.282.856 3.422 1.996 4.188l.171-.196c-1.026-.855-1.597-1.71-1.597-3.991m-11.69 1.14c0 2.281-.57 3.136-1.596 3.992l.17.196c1.141-.767 1.997-1.907 1.997-4.188v-4.562h-.57zM7.146 45.686H6.001v-2.832h1.103c.525 0 .855.298.855.776a.64.64 0 0 1-.381.601.67.67 0 0 1 .425.657c0 .52-.354.8-.855.8m-.082-2.448H6.43v.811h.636c.275 0 .462-.143.462-.405s-.187-.406-.462-.406m.04 1.197H6.43v.863h.675c.299 0 .465-.183.465-.434 0-.252-.166-.43-.465-.43m2.595-.293c-.091-.092-.163-.134-.302-.134-.22 0-.402.175-.402.453v1.225h-.405v-2.016h.398v.22c.104-.144.31-.243.536-.243a.62.62 0 0 1 .481.191l-.305.306zm.84-.868a.266.266 0 0 1-.263-.263c0-.144.12-.262.263-.262s.263.12.263.262c0 .141-.12.263-.263.263m-.203.395h.405v2.016h-.405zm1.727 2.855c-.306 0-.502-.072-.712-.266L11.61 46c.128.12.239.179.438.179.342 0 .473-.243.473-.514v-.258a.62.62 0 0 1-.52.23.66.66 0 0 1-.481-.178c-.195-.194-.227-.477-.227-.819s.032-.624.227-.818a.68.68 0 0 1 .485-.176c.215 0 .377.056.53.239v-.215h.393v2.004c0 .493-.326.851-.863.851m.047-2.518c-.366 0-.414.315-.414.633 0 .32.048.633.414.633s.41-.314.41-.633c0-.318-.044-.633-.41-.633m2.681 1.679v-1.237c0-.306-.178-.442-.405-.442-.226 0-.409.14-.409.442v1.237h-.405v-2.832h.405v1.017a.7.7 0 0 1 .52-.226c.45 0 .7.302.7.74v1.3zm1.631.001c-.377 0-.553-.27-.553-.562v-1.11h-.23v-.31h.23v-.612h.405v.613h.39v.31h-.39v1.089c0 .148.072.235.222.235h.167v.347h-.243zm2.936 0V44.45c0-.306-.179-.442-.405-.442s-.41.14-.41.442v1.237h-.405v-2.832h.405v1.017a.7.7 0 0 1 .52-.226c.45 0 .701.302.701.74v1.3zm1.329-.89c0 .347.183.565.513.565a.6.6 0 0 0 .49-.206l.259.242a.95.95 0 0 1-.756.315c-.505 0-.907-.266-.907-1.034 0-.652.338-1.03.855-1.03.518 0 .856.397.856.97v.178zm.85-.557a.415.415 0 0 0-.397-.254.42.42 0 0 0-.402.254.6.6 0 0 0-.051.275h.906a.65.65 0 0 0-.055-.275m2.082 1.448v-.183c-.148.148-.287.206-.537.206s-.418-.06-.54-.183a.62.62 0 0 1-.16-.434c0-.338.234-.58.696-.58h.534v-.144c0-.254-.127-.377-.442-.377-.222 0-.33.051-.441.195l-.267-.25c.192-.223.39-.291.724-.291.553 0 .832.234.832.691v1.348h-.398zm-.009-.89h-.473c-.239 0-.363.106-.363.29 0 .185.115.287.37.287.155 0 .27-.012.377-.116.06-.06.088-.155.088-.298zm2.141-.653c-.092-.092-.164-.134-.303-.134-.22 0-.402.175-.402.453v1.225h-.405v-2.016h.398v.22c.104-.144.31-.243.536-.243a.62.62 0 0 1 .481.191l-.305.306zm1.236 1.543c-.377 0-.552-.27-.552-.562v-1.11h-.231v-.31h.231v-.612h.405v.613h.39v.31h-.39v1.089c0 .148.072.235.222.235h.167v.347zm1.194.617v-1.078h.462v.7zm2.486-.593c-.33 0-.608-.056-.846-.292l.266-.266c.164.167.382.21.58.21.248 0 .442-.087.442-.277 0-.136-.076-.222-.27-.238l-.322-.028c-.378-.032-.596-.204-.596-.557 0-.394.337-.617.76-.617.303 0 .561.063.747.226l-.254.26c-.128-.108-.306-.149-.497-.149-.243 0-.366.107-.366.26 0 .12.064.21.278.23l.319.028c.377.032.6.21.6.569 0 .42-.358.64-.839.64m2.553-.023v-1.237c0-.306-.178-.442-.405-.442s-.41.14-.41.442v1.237h-.404v-2.832h.405v1.017a.7.7 0 0 1 .52-.226c.449 0 .7.302.7.74v1.3zm1.235-2.41a.266.266 0 0 1-.264-.263c0-.144.12-.262.263-.262s.263.12.263.262c0 .141-.12.263-.263.263m-.204.395h.405v2.016h-.405zm2.281 2.016v-1.23c0-.314-.179-.449-.405-.449s-.419.14-.419.45v1.229h-.405v-2.017h.398v.204a.72.72 0 0 1 .537-.227c.202 0 .377.067.497.183.155.15.203.342.203.569v1.288zm1.664.402a.64.64 0 0 1-.148.25.56.56 0 0 1-.414.148h-.163v-.366h.103c.171 0 .231-.051.291-.215l.111-.314-.703-1.922h.43l.481 1.42.47-1.42h.434l-.89 2.419zm2.725-.402c-.382 0-.553-.259-.553-.557v-2.275h.405v2.251c0 .155.056.236.22.236h.178v.346zm.899-2.411a.266.266 0 0 1-.263-.263c0-.144.12-.262.263-.262s.263.12.263.262c0 .141-.12.263-.263.263m-.203.395h.405v2.016h-.405zm1.519.346v1.671h-.405v-1.67h-.23v-.31h.23v-.31c0-.292.176-.562.553-.562h.254v.346h-.178c-.15 0-.222.088-.222.234v.291h.402v.31zm1.066.779c0 .347.183.565.513.565a.6.6 0 0 0 .49-.206l.259.242a.95.95 0 0 1-.756.315c-.505 0-.907-.266-.907-1.034 0-.652.338-1.03.856-1.03.517 0 .855.397.855.97v.178zm.852-.557a.415.415 0 0 0-.397-.254.42.42 0 0 0-.402.254.6.6 0 0 0-.051.275h.906a.65.65 0 0 0-.055-.275" fill="#231815"/></svg>