<svg width="104" height="50" fill="none" xmlns="http://www.w3.org/2000/svg"><path fill-rule="evenodd" clip-rule="evenodd" d="m82.352 18.96-1.082.888c-.227.444-.355 1.018-.386 1.732v.96q.043 1.306.312 2.05.226.628.604.823.21-.031.388-.01a.9.9 0 0 1 .416.153l.038.026.026.038.038.054.005.005a.7.7 0 0 1 .133.408.49.49 0 0 1-.21.386c-.56.387-1.385.783-2.002 1.087q-1.172.578-2.693 1.23l-.053.015a.76.76 0 0 1-.544-.074q-.228-.13-.35-.431l-.007-.02-.005-.021c-.005-.028.023-.447.081-.539a.66.66 0 0 1 .414-.27c.638-.434 1.125-1.046 1.462-1.827q.526-1.22.57-2.996v-.952q-.129-1.111-.532-1.802a2.16 2.16 0 0 0-1.013-.921.68.68 0 0 1-.454-.181q-.183-.184-.184-.506 0-.279.184-.461a.9.9 0 0 1 .429-.217q.635-.271 1.026-1.105.413-.896.543-2.412v-.77q-.127-1.237-.571-1.945a1.9 1.9 0 0 0-1.128-.86.75.75 0 0 1-.478-.168.8.8 0 0 1-.262-.468l-.013-.058.015-.056a.77.77 0 0 1 .26-.416q.18-.15.46-.21l.028-.005.173-.023h4.9l.03.008q.245.06.404.222a.85.85 0 0 1 .217.406l.013.053-.01.054a.87.87 0 0 1-.22.46.63.63 0 0 1-.431.18q-.713.2-1.151.85-.463.688-.636 1.881v.857q.085 1.52.44 2.415.334.845.895 1.107h.005q.238.123.362.306.13.195.13.447.001.235-.163.398a.75.75 0 0 1-.355.189l-.07.04z" fill="#231815"/><path fill-rule="evenodd" clip-rule="evenodd" d="M89.709 10.538h.62l.023.005q.326.057.51.212a.59.59 0 0 1 .222.477q0 .338-.222.521-.2.168-.553.168h-.603q-.91.127-1.454.613-.533.476-.74 1.32.248 1.115.763 1.709.494.57 1.253.653.282 0 .451.102c.159.09.235.23.235.411v10.318a9 9 0 0 0 .812-1.99q.513-1.82.513-4.227V9.14a.53.53 0 0 1 .316-.488l.053-.025h5.115q.293 0 .48.222.153.186.209.51v.023l.002.018v17.172c.153 1.268-.135 2.103-.875 2.503q-1.057.573-3.297-.155-.337-.114-.493-.335a.7.7 0 0 1-.11-.564v-.005q.072-.345.342-.467.242-.103.595.016h.005q1.194.433 1.832.34a.85.85 0 0 0 .386-.149.6.6 0 0 0 .204-.29q.111-.311.03-.846v-1.248q-.167-1.368-.655-2.117-.458-.706-1.202-.868-.473.014-1.019.806-.612.887-1.255 2.69-.226.674-.625 1.43a18 18 0 0 1-.975 1.594l-.01.015a.94.94 0 0 1-.513.35.8.8 0 0 1-.6-.12l-.025-.015-.023-.02a.59.59 0 0 1-.179-.519q.03-.245.253-.518.121-.152.237-.309a1 1 0 0 1-.22.02H83.85a.8.8 0 0 1-.245-.035.4.4 0 0 1-.202-.138.4.4 0 0 1-.082-.245q.001-.06.018-.13V16.637q0-.18.179-.298a1 1 0 0 1 .257-.115l.021-.008.025-.005q.915-.119 1.488-.71c.378-.39.651-.944.817-1.65-.135-.534-.396-.957-.773-1.274q-.593-.493-1.598-.658h-.686q-.69 0-.69-.69 0-.278.184-.461a.85.85 0 0 1 .455-.222l.028-.005h.707a2.85 2.85 0 0 0 1.421-.615q.591-.495.957-1.363a.65.65 0 0 1 .143-.388.7.7 0 0 1 .398-.24l.054-.015.058.013a1 1 0 0 1 .46.206.75.75 0 0 1 .255.419v.013l.005.013c.076.607.301 1.071.66 1.393q.545.486 1.545.566zm5.035 5.655q-.87.085-1.317.625-.465.563-.508 1.641.124 1.146.546 1.787c.263.4.618.656 1.064.758q.808.03 1.248-.575.475-.654.56-2.044-.125-.966-.54-1.515a1.8 1.8 0 0 0-1.053-.682zm-1.825-3.384q.042.939.498 1.432.448.487 1.33.572a1.6 1.6 0 0 0 1.005-.659q.412-.57.579-1.615c-.138-.753-.37-1.345-.687-1.768a1.97 1.97 0 0 0-1.138-.764q-.606.204-.995.85-.427.714-.594 1.953zm-4.083 10.198v-2.088q-.126-1.451-.697-2.286a2.52 2.52 0 0 0-1.487-1.036q-.781.25-1.279 1.01-.532.822-.743 2.236v2.159c.085 1.084.307 1.924.661 2.51.335.555.791.881 1.37.988q.986-.047 1.514-.865.57-.877.659-2.63zM73.397 9.31v5.403q.085 1.121.408 1.794c.202.414.473.7.814.847q.23.063.383.217a.83.83 0 0 1 .22.406l.01.054-.01.053a.87.87 0 0 1-.22.457.62.62 0 0 1-.367.176 3.1 3.1 0 0 0-.827 1.103q-.328.716-.413 1.712v5.49q0 .433-.1.777c-.117.409-.34.718-.66.924q-.468.302-1.203.301-.707 0-1.677-.28l-.035-.01-.026-.016a1 1 0 0 1-.398-.41.84.84 0 0 1-.061-.552q.013-.057.028-.107a.57.57 0 0 1 .291-.352.72.72 0 0 1 .454-.044q.074.015.166.046l.015.005q.76.303 1.223.304.234 0 .37-.076a.4.4 0 0 0 .178-.217q.062-.15.062-.388v-4.622q-.088-1.559-.46-2.43-.324-.757-.86-.966-.578.211-.941 1.033-.417.94-.546 2.641a24 24 0 0 1-.462 3.374q-.333 1.531-.865 2.73v.01l-.016.019a1 1 0 0 1-.41.4.84.84 0 0 1-.557.061l-.033-.007-.028-.013a.63.63 0 0 1-.35-.395.83.83 0 0 1 .051-.534q.476-1.163.817-2.687.345-1.525.559-3.427-.04-1.43-.294-2.269c-.127-.431-.296-.732-.497-.9q-.36.283-.592.933-.293.813-.378 2.162v4.973q.001 2.776-3.64 1.723l-.035-.01-.025-.015a1.04 1.04 0 0 1-.401-.409.83.83 0 0 1-.066-.554 1 1 0 0 1 .045-.155.56.56 0 0 1 .26-.304.57.57 0 0 1 .391-.043q.08.019.169.05.793.307 1.276.307a.8.8 0 0 0 .398-.084.44.44 0 0 0 .189-.23q.054-.145.056-.37v-4.527q-.127-1.65-.52-2.544-.35-.79-.894-.955-.441.1-.78.927c-.266.645-.47 1.6-.613 2.855a33 33 0 0 1-.485 3.162 25 25 0 0 1-.748 2.82l-.015.046-.026.033q-.21.262-.436.373a.75.75 0 0 1-.523.06h-.008l-.023-.012a.7.7 0 0 1-.14-.069.57.57 0 0 1-.268-.324.6.6 0 0 1 .03-.421 1 1 0 0 1 .07-.138q.554-1.669.875-3.36a25 25 0 0 0 .41-3.423q-.044-1.082-.329-1.776-.256-.626-.717-.934a.8.8 0 0 1-.477-.163.6.6 0 0 1-.202-.33.65.65 0 0 1-.357.14q-.475.474-.742 1.274-.292.874-.337 2.134.085 1.323.459 1.873c.199.296.475.408.83.347a.6.6 0 0 1 .403-.153q.233 0 .48.183l.055.044.026.066q.111.281.082.516a.78.78 0 0 1-.225.454q-.804.846-2.044 1.666a23 23 0 0 1-2.912 1.608l-.025.013-.03.008a.96.96 0 0 1-.534-.034.9.9 0 0 1-.421-.324l-.036-.046-.01-.058a.77.77 0 0 1 .074-.546.8.8 0 0 1 .405-.337q.92-.479 1.41-1.764.505-1.331.55-3.501-.086-1.601-.502-2.47-.374-.785-1.019-.947a.68.68 0 0 1-.48-.184q-.18-.185-.18-.505 0-.28.18-.464a.9.9 0 0 1 .432-.217q.56-.235.944-.891.41-.694.62-1.855v-1.105q-.127-1.2-.533-1.91c-.253-.438-.587-.74-1.005-.897a.65.65 0 0 1-.46-.184q-.182-.184-.181-.505 0-.279.181-.465c.11-.11.26-.181.454-.222l.031-.008h4.41l.035.008a.72.72 0 0 1 .399.243q.142.18.142.441 0 .306-.145.485a.55.55 0 0 1-.396.201q-.593.315-.956.98-.389.712-.516 1.83v1.123c.056.809.184 1.45.375 1.914q.252.616.653.804.28.016.45.181.14.142.173.365.176-.138.485-.197.453-.145.725-.673.298-.583.385-1.613V9.326a.43.43 0 0 1 .12-.429q.142-.14.434-.199l.03-.007h4.24l.03.01q.241.058.38.199a.54.54 0 0 1 .16.398v5.487q.085 1.169.391 1.82.257.546.666.711.316-.127.529-.638.265-.632.352-1.802V9.299q0-.214.115-.37a.64.64 0 0 1 .319-.22l.04-.015h4.356l.041.016q.206.069.32.219a.6.6 0 0 1 .114.37zM62.146 12.8v1.482q.084 1.47.434 2.25c.196.445.459.71.778.8q.51-.207.855-.937.395-.83.564-2.3V12.89q-.124-1.24-.513-1.953-.346-.634-.898-.837-.538.165-.835.763-.346.69-.385 1.935zm7.24.002v1.39q.083 1.382.454 2.188.33.712.88.951.482-.134.799-.8.37-.787.498-2.257v-1.462q-.168-1.071-.539-1.768-.324-.614-.801-.924c-.352.158-.636.439-.845.834q-.364.692-.449 1.848zm-38.7-3.836H50.25l.033.01q.242.062.398.22a.85.85 0 0 1 .22.403l.013.054-.013.058a.9.9 0 0 1-.222.455.62.62 0 0 1-.462.183h-3.315c-4.037 0-7.053 1.327-9.034 3.984q-.609 1.075-.242 1.615.388.573 1.87.694h8.993l.026.006q.342.058.551.268.208.206.268.55l.005.024v10.396q-.001.444-.217.692-.23.264-.648.263H34.868q-.46-.002-.714-.284-.24-.267-.24-.755v-4.188q-.045-.862-.286-1.426c-.153-.357-.367-.628-.643-.804a1.27 1.27 0 0 0-.898-.181c-.353.05-.746.227-1.18.523h-.002c-.464.314-.865.304-1.192-.03l-.033-.034-.018-.048a.9.9 0 0 1-.033-.6c.054-.189.171-.368.347-.546l.008-.008.02-.015a28 28 0 0 0 3.03-2.644 35 35 0 0 0 2.842-3.23q1.049-1.87.47-2.897-.59-1.04-2.892-1.33h-2.776q-.353 0-.556-.168-.222-.188-.222-.52 0-.296.222-.48c.122-.103.296-.171.513-.21h.022l.018-.002zm4.61 12.903v1.562q.17 1.884 1.532 2.88 1.398 1.021 4.06 1.15h1.047c1.926-.085 3.391-.473 4.396-1.154q1.464-.996 1.634-2.876v-1.473q-.127-1.824-1.588-2.776-1.509-.984-4.443-1.07h-1.046q-2.757.085-4.152 1.047-1.35.927-1.44 2.712zm-24.324-.633a39 39 0 0 1-1.36 4.172 36 36 0 0 1-1.802 3.91l-.01.02-.01.013a.8.8 0 0 1-.445.311.88.88 0 0 1-.546-.05l-.048-.018-.039-.039q-.234-.237-.27-.497a.7.7 0 0 1 .145-.518 28 28 0 0 0 1.659-3.514q.758-1.924 1.365-4.18a.57.57 0 0 1 .304-.399q.208-.104.51-.043l.02.005.024.008q.293.114.423.311.151.226.08.508M7.124 14.95q.835.614 1.65 1.322.822.712 1.606 1.496l.013.013.01.015q.192.26.158.53-.031.261-.265.498l-.013.013-.015.01q-.26.196-.516.159-.25-.036-.441-.286a31 31 0 0 0-1.605-1.496 15 15 0 0 0-1.381-1.064 1 1 0 0 1-.112-.069.5.5 0 0 1-.202-.306.55.55 0 0 1 .056-.357q.034-.069.084-.138a.72.72 0 0 1 .353-.34.9.9 0 0 1 .52-.04l.056.012.046.034zm1.128-5.938c.617.414 1.21.873 1.77 1.376a17 17 0 0 1 1.593 1.638l.018.023.015.026a.86.86 0 0 1 .092.495 1 1 0 0 1-.202.472l-.018.025-.027.02a1.2 1.2 0 0 1-.233.151.65.65 0 0 1-.357.074.5.5 0 0 1-.33-.191 1 1 0 0 1-.06-.092 15 15 0 0 0-1.422-1.55 13 13 0 0 0-1.554-1.257q-.28-.169-.38-.396a.62.62 0 0 1 .025-.538l.01-.023.013-.018a.8.8 0 0 1 .447-.309.86.86 0 0 1 .546.054l.028.01.02.015zm6.836 3.185h8.488l.03.008q.263.061.401.24a.7.7 0 0 1 .143.444q-.001.302-.143.482a.55.55 0 0 1-.46.207h-.956q-1.261.122-1.94.666-.647.514-.77 1.439c.081.64.341 1.133.77 1.477q.678.538 1.937.623h.727l.034.008a.8.8 0 0 1 .403.22.85.85 0 0 1 .22.402l.01.054-.01.054a.9.9 0 0 1-.22.456.62.62 0 0 1-.462.184h-.69q-1.227.168-1.913.653a1.92 1.92 0 0 0-.806 1.215v.911c.107.595.38 1.07.816 1.417q.68.541 1.901.706h1.582l.031.008q.28.056.46.207a.77.77 0 0 1 .257.413l.015.056-.01.056a.8.8 0 0 1-.26.473.76.76 0 0 1-.51.17H14.57q-.353 0-.554-.17-.222-.188-.222-.521 0-.293.222-.477.184-.154.513-.21l.026-.005h1.487q.997-.164 1.59-.696c.388-.35.654-.827.789-1.432v-.908q-.16-.808-.735-1.266-.591-.471-1.641-.597h-.947a.77.77 0 0 1-.51-.169.8.8 0 0 1-.26-.47l-.013-.058.013-.053a.8.8 0 0 1 .26-.419q.18-.15.462-.204l.025-.005h.975q1.084-.084 1.669-.613.573-.518.7-1.487-.127-.93-.7-1.45-.589-.53-1.674-.653h-.95q-.322 0-.505-.184c-.122-.12-.183-.291-.183-.505q-.002-.28.186-.465a.86.86 0 0 1 .46-.22l.025-.004h.02zm-1.753-.707v17.473l-.008.03a.85.85 0 0 1-.22.401.9.9 0 0 1-.397.222l-.033.008h-.028q-.306 0-.485-.143a.56.56 0 0 1-.207-.462V11.488q0-.28.184-.465a.85.85 0 0 1 .462-.22l.05-.01.054.01q.242.059.403.22.159.16.22.403l.008.028v.031z" fill="#231815"/><path fill-rule="evenodd" clip-rule="evenodd" d="M18.75 8.356h7.1q.407.057.653.22a.8.8 0 0 1 .347.51l.005.03v18.188c-.128 1.279-.71 2.057-1.735 2.335q-1.454.394-4.104-.64h-.005q-.315-.13-.421-.375-.108-.253.023-.57.128-.314.372-.42.248-.106.564.02 1.686.666 2.652.666.463 0 .737-.15a.8.8 0 0 0 .363-.417q.09-.227.09-.56v-13.25q-.212-1.82-1.195-2.843-.981-1.024-2.754-1.274H18.75a.78.78 0 0 1-.51-.168.78.78 0 0 1-.258-.472l-.01-.049.01-.048a.9.9 0 0 1 .242-.48.9.9 0 0 1 .477-.245l.029-.008zm-5.135-.763q.85.357 1.82.932c.64.38 1.332.837 2.067 1.365l.028.023.023.03a.82.82 0 0 1 .184.5.82.82 0 0 1-.184.501l-.013.015-.01.008q-.061.065-.128.115a.62.62 0 0 1-.393.138.55.55 0 0 1-.38-.174c-.02-.023-.043-.043-.061-.069a41 41 0 0 0-1.787-1.146 24 24 0 0 0-1.638-.906.76.76 0 0 1-.355-.331.7.7 0 0 1-.043-.478v-.005a.68.68 0 0 1 .283-.408.87.87 0 0 1 .488-.13h.048zm-1.028 32.249q0 .588-.222 1.039a2.1 2.1 0 0 1-.6.74q-.443.348-.974.497-.533.149-1.353.148H6.644v-7.872h2.335q.861.002 1.291.063.429.065.82.263.435.227.63.585.197.355.196.852-.001.558-.286.954a2.1 2.1 0 0 1-.763.63v.044q.798.162 1.258.7c.31.36.462.808.462 1.357m-1.763-3.537a1.1 1.1 0 0 0-.097-.477.72.72 0 0 0-.306-.314 1.5 1.5 0 0 0-.603-.176 9 9 0 0 0-.875-.033H7.695v2.253H9.05q.492 0 .781-.051.292-.048.539-.207a.86.86 0 0 0 .352-.405 1.5 1.5 0 0 0 .104-.59zm.671 3.575q0-.473-.143-.75-.142-.28-.518-.472a1.8 1.8 0 0 0-.615-.171 8 8 0 0 0-.88-.04H7.693v2.91h1.385q.685.001 1.126-.07c.293-.05.53-.136.72-.26q.295-.206.43-.468.14-.262.139-.679zm7.748 2.386h-5.176v-7.872h5.176v.931h-4.127v2.154h4.127v.931h-4.127v2.925h4.127zm7.377-2.245q0 .456-.214.905a2.2 2.2 0 0 1-.6.764q-.421.336-.985.528c-.372.127-.827.189-1.355.189a6.8 6.8 0 0 1-1.531-.159 8 8 0 0 1-1.38-.47v-1.31h.073q.594.492 1.376.76.78.267 1.467.268.97 0 1.51-.363.541-.363.542-.967.002-.524-.258-.77-.253-.248-.776-.386a8 8 0 0 0-.86-.173 18 18 0 0 1-.98-.177q-1.044-.222-1.549-.757-.503-.537-.502-1.399 0-.99.834-1.62.834-.632 2.12-.63.832-.002 1.524.157c.462.105.873.238 1.228.39v1.236h-.074q-.448-.38-1.18-.628a4.6 4.6 0 0 0-1.497-.25q-.842.002-1.35.347c-.342.235-.513.531-.513.896q0 .49.253.77.255.281.893.427.335.075.96.181c.418.069.767.143 1.056.217q.875.234 1.32.702.443.47.443 1.32zm7.317-4.693h-2.818v6.94H30.07v-6.94h-2.814v-.932h6.68zm6.65-.028q.478.528.737 1.293.256.766.256 1.738 0 .973-.263 1.74-.264.771-.73 1.284a3.1 3.1 0 0 1-1.149.804q-.664.268-1.513.268c-.566 0-1.056-.09-1.51-.273a3.1 3.1 0 0 1-1.154-.796 3.6 3.6 0 0 1-.732-1.286q-.256-.76-.256-1.74c0-.654.085-1.215.253-1.726q.253-.763.74-1.306a3.06 3.06 0 0 1 1.154-.794q.69-.272 1.505-.273c.544 0 1.07.092 1.519.278q.675.276 1.145.789zm-.102 3.034q0-1.531-.687-2.36-.684-.83-1.873-.83c-.793 0-1.426.276-1.88.83q-.685.829-.684 2.36c0 1.02.232 1.82.696 2.365q.697.821 1.868.822 1.17 0 1.866-.822c.462-.546.691-1.337.691-2.365zm8.763 3.932h-1.294l-3.73-7.043v7.043h-.975v-7.872h1.617l3.407 6.428v-6.428h.975zm7.276 0h-5.176v-7.872h5.176v.931H52.4v2.154h4.124v.931H52.4v2.925h4.124zm11.552-.571q-.291.127-.528.24-.231.11-.615.23a6 6 0 0 1-.7.17 4.4 4.4 0 0 1-.831.074q-.857 0-1.557-.24a3.2 3.2 0 0 1-1.22-.755q-.508-.502-.793-1.276-.286-.773-.286-1.8 0-.97.276-1.74.273-.765.793-1.293a3.3 3.3 0 0 1 1.212-.784 4.5 4.5 0 0 1 1.58-.268q.635-.002 1.266.153.634.155 1.403.539v1.245h-.079q-.65-.54-1.289-.783a3.8 3.8 0 0 0-1.367-.245c-.398 0-.756.061-1.077.191a2.3 2.3 0 0 0-.853.6q-.363.391-.566.998-.204.601-.204 1.39c0 .526.074 1.024.224 1.422q.226.598.58.97.37.39.862.576.496.187 1.044.187.757 0 1.413-.258a4.1 4.1 0 0 0 1.238-.77h.074zm7.347-6.395q.48.528.738 1.293.255.766.255 1.738 0 .973-.263 1.74-.264.771-.73 1.284a3.1 3.1 0 0 1-1.148.804q-.664.268-1.516.268c-.57 0-1.056-.09-1.51-.273a3.1 3.1 0 0 1-1.154-.796 3.6 3.6 0 0 1-.733-1.286q-.255-.76-.255-1.74c0-.654.084-1.215.253-1.726q.253-.763.74-1.306c.309-.345.697-.61 1.153-.794a4.1 4.1 0 0 1 1.506-.273 4 4 0 0 1 1.518.278q.675.276 1.146.789m-.1 3.034q0-1.531-.686-2.36-.685-.83-1.87-.83c-.791 0-1.427.276-1.881.83q-.685.829-.684 2.36c0 1.02.232 1.82.697 2.365q.696.821 1.868.822 1.169 0 1.865-.822c.462-.546.692-1.337.692-2.365m9.282 3.932h-1.36l-2.636-3.13h-1.473v3.13h-1.051v-7.872h2.207q.715 0 1.19.092a2.5 2.5 0 0 1 .857.329q.43.269.671.681.24.407.24 1.036 0 .854-.426 1.427-.433.574-1.182.862l2.963 3.443zm-2.447-5.652q0-.337-.12-.597a1.06 1.06 0 0 0-.393-.44 1.4 1.4 0 0 0-.541-.211 3.7 3.7 0 0 0-.738-.064h-1.232v2.955h1.059q.497 0 .867-.087.371-.085.63-.321.238-.224.353-.51.114-.288.115-.728zm9.661 5.652h-1.117l-.769-2.187h-3.409l-.768 2.187h-1.06l2.864-7.872h1.396zm-2.215-3.095-1.375-3.856-1.38 3.856zM98 42.266h-4.98v-7.872h1.051v6.94H98z" fill="#231815"/></svg>