<svg width="94" height="50" fill="none" xmlns="http://www.w3.org/2000/svg"><path d="M58.906 42.933c-1.034-.678-1.678-1.57-1.986-2.797h1.663c.112 0 .121-.069.04-.15l-.566-.57c-.111-.107-.159-.09-.242 0l-.395.414h-.688v-1.913h1.624c.111 0 .128-.068.047-.142l-.592-.554c-.112-.1-.159-.052-.237.038l-.323.36h-.519v-1.003l.138-.201c.054-.08.064-.116-.036-.15l-.825-.23c-.068-.016-.1.005-.1.084v1.502h-.559c.038-.168.079-.348.114-.545.012-.066.064-.116.112-.161.158-.157.142-.161-.055-.216l-.72-.178c-.095-.02-.13-.02-.13.079 0 .324-.039 1.682-.261 3.014-.022.1.016.081.092.008.09-.09.448-.463.773-1.7h.633v1.913h-1.702c-.036 0-.048.019-.026.054l.085.18c.03.065.057.07.133.07h1.016c-.364 1.37-.945 2.592-1.827 3.69-.145.187-.064.192.107.092.348-.201 1.507-1.2 2.213-2.806v3.538c0 .086.022.09.095.074l.576-.133c.138-.026.154-.085.154-.232v-3.605c.306 1.967 1.486 3.183 1.486 3.183.228-.47.43-.678.647-.858.112-.09.112-.1.038-.147z" fill="#08287e"/><path d="M54.073 41.78a35 35 0 0 1-.735.451v-2.59h.865q.168.001.064-.133l-.407-.503c-.095-.12-.157-.094-.245-.004l-.258.272h-.019v-2.04h.962c.112 0 .143-.064.07-.143l-.517-.57c-.107-.112-.138-.098-.223 0l-.297.347H51.62c-.038 0-.055.017-.038.055l.085.237c.021.069.057.076.133.076h.716v2.04h-.91c-.038 0-.046.017-.038.055l.085.24c.024.066.062.073.13.073h.73v3.05q-.36.193-.746.368c-.086.045-.09.059-.06.15l.297.76c.038.1.069.111.133.033a2 2 0 0 1 .336-.337c.524-.41 1.353-1.151 1.702-1.808.069-.12.043-.163-.1-.073zm-17.362-5.029c.026.048.048.057.095.057h4.506v.941h-4.314q-.084-.002-.043.071l.128.25c.034.051.052.058.1.058h4.131v.95h-4.631c-.062 0-.074.022-.048.07l.133.248c.026.053.055.06.095.06h4.453v.322q.001.102.088.069l.597-.159c.138-.038.155-.09.155-.24v-2.462l.2-.15c.108-.078.131-.125.022-.215l-.633-.503c-.047-.037-.085-.047-.132 0l-.287.313h-4.703q-.082.001-.042.074l.133.249z" fill="#08287e"/><path d="M42.874 43.871c-.645-.168-1.657-.51-2.302-1.287a3.3 3.3 0 0 1-.344-.507c.726-.26 1.1-.483 1.66-.825.184-.116.263-.12.343-.142.128-.033.15-.1.029-.213l-.661-.59c-.083-.081-.117-.074-.169.02a5.1 5.1 0 0 1-1.32 1.516 3.6 3.6 0 0 1-.325-1.51l.007-.105.169-.168c.078-.073.068-.111-.01-.133l-.95-.296c-.064-.024-.095-.01-.095.085-.007 2.522-.602 3.925-2.612 4.871-.144.069-.173.187.04.138 2.008-.446 2.916-1.52 3.273-3.103.124.647.328 1.247.662 1.735.396.569.896.922 1.76 1.292.24-.301.494-.55.81-.619.141-.033.177-.111.03-.154z" fill="#08287e"/><path d="M37.576 40.449c-.038.268-.192.56-.493.799-.163.128-.339.22-.438.452a.44.44 0 0 0 .348.621c.344.052.67-.201.816-.69.132-.436.035-.876-.017-1.109-.047-.199-.185-.3-.216-.073M67.65 38.8c.21-.053.412-.25.48-.539a1.6 1.6 0 0 0 .038-.569h4.051c.069 0 .083.026.062.121l-.228.81c-.035.126.055.143.142.06.503-.472.726-.545 1.2-.673.21-.052.199-.232.047-.391l-.614-.64c-.107-.111-.175-.074-.263.012l-.37.36h-1.827s.019-.005.028-.012c.292-.137.472-.614.133-.924-.332-.31-.74-.434-1.11-.496-.137-.02-.196.036-.082.124.154.123.36.384.429.775.021.118.054.415.23.533h-1.901a2.4 2.4 0 0 0-.152-.346c-.102-.194-.218-.237-.223-.045a1.5 1.5 0 0 1-.348.867c-.116.143-.301.337-.292.607.012.285.28.434.572.365zm5.903 5.444-.72-.719c-.105-.104-.16-.114-.237-.019l-.463.562h-1.448v-2.567h2.276c.111 0 .142-.083.068-.163l-.573-.586c-.105-.111-.135-.09-.22 0l-.401.41h-1.152v-1.538h2.389c.111 0 .147-.09.066-.17l-.588-.567c-.108-.104-.142-.097-.225 0l-.365.396h-4.444c-.09 0-.085.01-.052.09l.067.185c.026.061.059.066.132.066h2.103v1.538h-2.172c-.037 0-.042.014-.026.052l.083.218c.031.062.064.067.133.067h1.982v2.567h-2.577c-.038 0-.042.016-.026.054l.083.216c.029.064.057.069.133.069h6.105c.112 0 .147-.086.067-.164z" fill="#08287e"/><path d="M71.271 41.918c-.12-.047-.185-.002-.09.107.126.154.28.481.318.903.026.332-.005.585.192.704.17.1.412-.021.542-.17.202-.228.223-.53.033-.8-.244-.364-.694-.627-.995-.746zm-48.404-5.254c.03.052.057.056.1.056h2.718l-.014.027c-.17.263-.413.547-.664.775a.6.6 0 0 0-.13-.13c-.323-.238-.761-.328-1.083-.344-.133-.012-.192.047-.074.116.168.09.417.346.586.663.094.176.151.294.23.363h-.968l-.611-.216c-.142-.054-.17-.011-.17.135v4.938c0 .083.02.09.094.066l.557-.15c.128-.037.142-.075.142-.222v-1.309h.894v1.57c0 .085.019.087.095.068l.566-.128c.133-.026.15-.09.15-.237v-.185c.374.097.552.294.602.581.028.175.094.19.253.154.666-.168.841-.287.841-.91v-3.648l.202-.142c.104-.08.133-.12.021-.21l-.602-.465c-.05-.036-.09-.048-.128 0l-.272.31H24.91a.48.48 0 0 0 .194-.408c.768-.37 1.195-.744 1.863-.893.164-.038.218-.138.069-.266l-.571-.488c-.138-.116-.176-.12-.308-.005l-.247.209h-3.164c-.064 0-.069.021-.043.066l.164.254zm.71 1.908h.894v1.04h-.893zm0 2.481v-1.06h.894v1.06zm1.705-1.06h.915v1.06h-.915zm.339 2.454-.339-.026v-.989h.915v.676c0 .365-.313.353-.578.339zm.576-2.835h-.915v-1.04h.915zm-5.013-2.415c.085.317.095.571.306.652.18.061.396-.097.498-.261.158-.254.125-.55-.102-.782-.301-.31-.77-.505-1.088-.569-.128-.026-.188.045-.076.135.154.128.355.417.46.825z" fill="#08287e"/><path d="M27.55 43.618c-.189.016-.398.03-.732.052-1.164.08-2.455.09-3.406-.036-1.066-.14-1.344-.843-1.344-1.088v-3.114l.18-.116c.105-.064.105-.128.017-.202l-.533-.445c-.09-.074-.133-.074-.22.016l-.183.202h-.865c-.064 0-.069.021-.036.076l.159.249c.03.054.06.059.104.059h.557l.005 3.313c0 .316-.028.446-.268.619l-.325.227c-.12.086-.142.081-.082.19l.476.9c.026.06.055.07.107-.011.142-.223.28-.45.433-.697.13-.206.226-.448.292-.701.54 1.251 1.548 1.343 2.707 1.393.91.043 1.685.017 2.557.01.078-.467.209-.614.446-.794.064-.053.03-.112-.04-.105zM55.196 9.957V6.83l-2.709-1.566-2.704 1.566v3.127l2.704 1.564zm-.063-.036c-.02.03-.053.043-.084.03l-1.775-.41-.04-.016a.13.13 0 0 1-.06-.076h.003l-.17-.642a.14.14 0 0 1 .009-.107.14.14 0 0 1 .076-.059h.004l.645-.175a.16.16 0 0 1 .097.01q.015.01.029.025l1.254 1.332c.023.022.028.06.011.09zm-1.904-2.65s.024-.012.036-.014l1.78-.42c.03-.01.066.005.083.034a.07.07 0 0 1-.014.09l-1.247 1.33s-.02.018-.031.025a.13.13 0 0 1-.095.015l-.64-.173a.14.14 0 0 1-.087-.064.14.14 0 0 1-.015-.095h.003v-.01l.168-.644a.12.12 0 0 1 .06-.076zm-1.339-.116.529-1.75a.074.074 0 0 1 .07-.054c.036 0 .065.024.072.057l.528 1.745q.006.02.008.042a.13.13 0 0 1-.038.088l-.472.467a.13.13 0 0 1-.097.043.12.12 0 0 1-.088-.036s-.002-.005-.005-.005l-.474-.471a.12.12 0 0 1-.035-.088c0-.014 0-.024.007-.038zm-2.043-.282c.019-.029.052-.043.083-.033l1.775.412.038.014q.045.028.06.076l.17.64a.14.14 0 0 1-.007.107.17.17 0 0 1-.074.061h-.01l-.641.178a.13.13 0 0 1-.098-.014.1.1 0 0 1-.026-.024l-1.251-1.332a.075.075 0 0 1-.014-.09zM51.75 9.53l-.033.014-1.78.417a.07.07 0 0 1-.083-.033.07.07 0 0 1 .014-.088l1.245-1.332s.021-.019.033-.026a.13.13 0 0 1 .097-.014l.64.175a.14.14 0 0 1 .088.062.15.15 0 0 1 .014.095v.007l-.168.647a.14.14 0 0 1-.06.078zm.669 1.863-.527-1.747a.1.1 0 0 1-.007-.04c0-.036.015-.067.036-.09l.471-.467a.12.12 0 0 1 .095-.043q.056.002.09.03v.006q.002-.001.008.004l.474.47a.13.13 0 0 1 .038.09.1.1 0 0 1-.008.035l-.53 1.752a.07.07 0 0 1-.074.054.07.07 0 0 1-.069-.054zM6.83 13.974c-1.218 0-2.486-.026-3.83-.026v5.525h.356c.227-2.257 1.37-4.738 3.652-4.738h1.78V29.37c0 1.924-1.268 2.358-2.944 2.358v.303h8.76v-.303c-1.699 0-2.891-.408-2.891-2.332V14.735h1.735c2.285 0 3.475 2.481 3.728 4.738h.356v-5.525c-1.394 0-2.688.026-3.982.026zm74.464-.244h-.026c-4.75 0-7.279 4.11-7.279 9.154s2.802 9.148 7.28 9.148h.025c4.643 0 7.305-4.107 7.305-9.148 0-5.042-2.662-9.154-7.305-9.154m0 17.648h-.026c-2.614 0-4.3-3.88-4.3-8.494 0-4.615 1.446-8.521 4.3-8.521h.026c2.85 0 4.278 4.053 4.278 8.663s-1.63 8.352-4.278 8.352m-37.022-8.476c-1.192-.81-2.816-1.623-4.16-2.384-1.192-.659-2.258-1.244-2.638-2.612-.23-.886.088-1.903.683-2.5 1.126-1.124 3.179-1.318 5.13.28 1.218.99 1.876 2.611 2.13 3.626h.254l-.178-5.004c-1.095.045-1.818-.054-4.08-.41-2.042-.32-4.232-.1-5.635 1.82-.702.96-.896 2.468-.593 3.736.483 1.953 2.029 2.891 3.73 3.806 1.345.735 2.764 1.42 3.93 2.205 1.652 1.116 1.968 3.522.586 5.074-.759.856-2.022 1.263-3.64.882-1.71-.403-3.698-2.11-4.554-4.176h-.268l.346 4.508c1.878-.152 3.103.445 5.21.547 2.055.102 4.039-.381 5.221-1.993 1.828-2.496 1.14-5.63-1.47-7.407z" fill="#08287e"/><path d="M71.555 28.94c-1.346-1.714-2.375-3.68-3.233-5.184 5.343-1.84 4.947-9.588-2.396-9.924h-.759a113 113 0 0 1-5.41.118h-1.992v.33c1.65 0 2.688.405 2.688 2.334v12.759c0 1.673-.938 2.358-2.484 2.358v.304h7.789v-.304c-1.498 0-2.539-.559-2.539-2.332v-5.276c.941.156 1.782.194 2.527.183 1.038 1.746 1.91 3.794 3.256 5.612.534.733 1.219 1.626 1.802 2.11h4.958l.005-.297c-1.626-.064-2.991-1.294-4.212-2.79zm-4.826-5.734a1.9 1.9 0 0 1-.554.178c-1.015.227-2.449.075-2.956-.356v-8.267c.962-.18 2.093-.204 2.956-.026 1.67.381 2.889 1.65 2.84 4.59-.077 2.132-.965 3.324-2.286 3.88M48.34 14.28c1.649 0 2.69.405 2.69 2.334v6.556c0 1.927-1.041 2.36-2.69 2.36v.302h8.297v-.301c-1.7 0-2.688-.408-2.688-2.337v-6.606c0-1.927.989-2.308 2.688-2.308v-.33H48.34zM33.161 27.24h-.164c-1.166 2.863-3.095 4.005-6.138 4.005H25.67c-.429 0-.863-.026-1.521-.154v-8.165h2.61c1.876 0 2.94.915 3.144 2.79h.254v-6.34h-.254c-.201 1.825-1.291 2.763-3.169 2.763h-2.583v-7.38c.974-.039 2.204-.05 3.228-.043 2.335.019 3.982.837 4.288 3.273h.258v-4.034l-6.776.012h-6.601v.308c1.979 0 2.714.583 2.714 2.562v12.628c0 2.055-1.245 2.26-2.714 2.26v.303H32.24l1.09-4.786h-.163v-.005zm56.761-13.785a.5.5 0 0 0-.161-.13.47.47 0 0 0 .298-.143.4.4 0 0 0 .102-.282q0-.135-.066-.242a.37.37 0 0 0-.173-.144 1 1 0 0 0-.356-.043h-.647v1.522h.31v-.635h.06c.069 0 .118.004.159.016a.3.3 0 0 1 .09.064c.03.029.08.107.163.223l.223.332h.363l-.185-.296a1.2 1.2 0 0 0-.178-.244zm-.467-.337h-.228v-.384h.237q.184-.001.225.005a.22.22 0 0 1 .117.057.21.21 0 0 1 .007.24.24.24 0 0 1-.086.066 1.3 1.3 0 0 1-.272.014z" fill="#08287e"/><path d="M89.51 11.746a1.49 1.49 0 0 0-1.487 1.489c0 .82.669 1.488 1.487 1.488.817 0 1.49-.67 1.49-1.489 0-.817-.666-1.488-1.49-1.488m0 2.747a1.26 1.26 0 0 1 0-2.52c.687 0 1.26.567 1.26 1.262a1.26 1.26 0 0 1-1.26 1.258" fill="#08287e"/></svg>