<svg width="200" height="46" fill="none" xmlns="http://www.w3.org/2000/svg"><path d="M59.621 1c6.318 0 11.47 5.024 11.701 11.31l.008.44v20.5c0 6.342-5.007 11.508-11.272 11.74l-.439.01H44.115l3.741-5.313 11.304-3.475a4.9 4.9 0 0 0 3.403-4.36l.012-.347v-17.01a4.91 4.91 0 0 0-3.073-4.586l-.343-.123-11.301-3.475L44.114 1H59.62M28.214 1l-3.74 5.31L13.17 9.787a4.905 4.905 0 0 0-3.415 4.71v17.009a4.9 4.9 0 0 0 3.415 4.707l11.302 3.475L28.214 45H12.711C6.243 45 1 39.74 1 33.25v-20.5C1 6.262 6.24 1 12.709 1zm129.52 1.167v23.279h-13.832v4.473h14.376v4.547H143.9v4.82h15.508v4.545h-35.545v-4.545h15.508v-4.82h-14.378V29.92h14.378v-4.471h-13.837V2.167zm-62.128 0v4.547l-2.795 12.394h2.795v15.63a4.54 4.54 0 0 1-4.22 4.536l-.311.012h-2.266V34.74l1.048-.002a1.22 1.22 0 0 0 1.196-.984l.022-.19v-9.91h-2.796v-4.547l2.796-12.394h-4.647V43.83h-4.53V2.167h13.71zm23.562 0v4.547h-1.644v30.022a7.09 7.09 0 0 1-6.698 7.085l-.376.01h-4.641V39.3h3.448a3.75 3.75 0 0 0 3.735-3.466l.012-.293V6.714H97.457V2.167zm80.454 16.942v4.547h-21.589l-7.069 15.63h21.82l-3.257-7.136h4.978l3.832 8.43c.134.302.228.627.228.98 0 1.17-.883 2.135-2.019 2.26l-.247.011h-30.314v-4.545l7.068-15.63h-8.975v-4.547zm-89.593-7.575v23.452H98.585V11.534zm-4.528 4.545h-2.384v14.362h2.384V16.077zm-57.618 4.154v5.299H24.45v-5.3h23.433m91.926-4.154h-9.303V20.9h9.303v-4.824zm13.834 0h-9.303V20.9h9.303v-4.824zm-13.832-9.365h-9.305v4.82h9.303v-4.82zm13.832 0h-9.303v4.82h9.303zm44.308-4.146v4.547h-32.2V2.568z" fill="#ff6a00"/></svg>