<svg width="232" height="41" fill="none" xmlns="http://www.w3.org/2000/svg"><g clip-path="url(#clip0_663_390)"><path d="M26.65 30.75V41H20.5a20.504 20.504 0 1 1-.79-41c-.26 0-.51 0-.76.06h-.37l-.42.06-.76.19c-.25 0-.49.11-.74.18s-.47.12-.7.19l-.64.22L15 1l-.51.2-.68.31-.57.28-.24.15c-.17.09-.33.19-.49.29s-.41.25-.61.39a.15.15 0 0 0-.07 0 5 5 0 0 0-.44.31l-.25.18-.39.31-.1.09c-.17.14-.34.28-.51.44l-.53.5c-.17.17-.35.35-.51.54s-.31.34-.45.52l-.08.09c-.12.14-.23.28-.34.43l-.11.15c-.14.18-.27.37-.39.55s-.27.42-.4.63-.18.3-.26.45l-.18.31-.27.54c-.1.21-.19.42-.28.63a.2.2 0 0 0 0 .08c-.07.16-.13.32-.19.48l-.15.3c-.06.15-.11.3-.16.45s0 .17-.08.25c-.07.23-.13.45-.18.68-.06.22-.11.45-.16.68a.15.15 0 0 0 0 .07c-.05.25-.1.49-.14.74s0 .28 0 .42c0 .37-.08.75-.1 1.14s0 .52 0 .79A15.36 15.36 0 0 0 20 30.73h.53z" fill="#e60023"/><path d="M41 20.5v6.66H30.75V20.5A10.25 10.25 0 1 0 20 30.73 15.36 15.36 0 0 1 5.12 15.38v-.79c0-.26 0-.77.1-1.14v-.42c0-.14.09-.49.14-.74a.15.15 0 0 1 0-.07c0-.23.1-.46.16-.68 0-.23.11-.45.18-.68 0-.08 0-.16.08-.25s.1-.3.16-.45l.09-.25c.06-.16.12-.32.19-.48a.2.2 0 0 1 0-.08c.09-.22.18-.42.28-.63l.27-.54c0-.1.12-.21.18-.31s.17-.31.26-.45l.4-.63.39-.55.11-.15c.11-.15.23-.29.34-.43l.08-.09.59-.57.51-.54.53-.5.51-.44.1-.09.39-.31.25-.12.44-.31a.15.15 0 0 1 .07 0c.2-.14.41-.27.61-.39s.32-.2.49-.29l.25-.14.57-.28.68-.31L15 1l.32-.1.68-.22c.23-.07.47-.14.7-.19s.49-.13.74-.18l.76-.13.42-.06h.37c.25 0 .5 0 .76-.06h1.58A20.5 20.5 0 0 1 41 20.5" fill="#e60023"/><path d="M41 20.5v6.66H30.75V20.5A10.25 10.25 0 1 0 20 30.73 15.36 15.36 0 0 1 5.12 15.38v-.79c0-.26 0-.77.1-1.14v-.42c0-.14.09-.49.14-.74a.15.15 0 0 1 0-.07c0-.23.1-.46.16-.68 0-.23.11-.45.18-.68 0-.08 0-.16.08-.25s.1-.3.16-.45l.09-.25c.06-.16.12-.32.19-.48a.2.2 0 0 1 0-.08c.09-.22.18-.42.28-.63l.27-.54c0-.1.12-.21.18-.31s.17-.31.26-.45l.4-.63.39-.55.11-.15c.11-.15.23-.29.34-.43l.08-.09.59-.57.51-.54.53-.5.51-.44.1-.09.39-.31.25-.12.44-.31a.15.15 0 0 1 .07 0c.2-.14.41-.27.61-.39s.32-.2.49-.29l.25-.14.57-.28.68-.31L15 1l.32-.1.68-.22c.23-.07.47-.14.7-.19s.49-.13.74-.18l.76-.13.42-.06h.37c.25 0 .5 0 .76-.06h1.58A20.5 20.5 0 0 1 41 20.5" fill="url(#paint0_linear_663_390)"/><path d="M30.75 41V30.75H41z" fill="#e60023"/><path d="M232 9.85a4.1 4.1 0 0 1-.56 2.08 4.18 4.18 0 0 1-3.59 2.07 4.15 4.15 0 0 1-4.15-4.15 4 4 0 0 1 .56-2.07 3.95 3.95 0 0 1 1.51-1.52 4.13 4.13 0 0 1 4.15 0 4 4 0 0 1 1.52 1.52c.369.628.562 1.342.56 2.07m-.81 0a3.345 3.345 0 0 0-2.021-3.26 3.35 3.35 0 0 0-3.756.774 3.36 3.36 0 0 0-.913 2.486 3.354 3.354 0 0 0 4.669 3.26 3.34 3.34 0 0 0 2.021-3.26M226 7.63h2c.435-.04.869.08 1.22.34a1.18 1.18 0 0 1 .38.91c.005.284-.099.56-.29.77-.245.252-.563.42-.91.48q.209.066.38.2.208.2.35.45l.72 1.29h-1.31q-.36-.796-.85-1.52a.59.59 0 0 0-.44-.24h-.13v1.75H226zm1.1 1.88h.48c.234.021.468-.031.67-.15a.5.5 0 0 0 .146-.177.5.5 0 0 0 .054-.223.47.47 0 0 0-.19-.4 1 1 0 0 0-.64-.16h-.52zm-158-3.27 9.83 26.95h-5.48l-1.59-4.76-4.73-14.25-3.4 9.82h3.33l1.47 4.43h-6.27l-1.63 4.76h-5.48l9.79-26.95zm16.25 26.95A5.48 5.48 0 0 1 81 31.41a5.6 5.6 0 0 1-1.36-3.85V6.27h4.91v21A1.55 1.55 0 0 0 86.26 29h1.89v4.16zm9.75 7.22h-4.87V13.76H95v1.81a7 7 0 0 1 9.61-.26q2 2 2 8.16c0 4.19-.67 6.93-2 8.25a6.34 6.34 0 0 1-4.73 1.77 8.3 8.3 0 0 1-1.59-.15v-4.23h.15a2.68 2.68 0 0 0 2.72-1.63c.457-1.282.651-2.642.57-4a9.9 9.9 0 0 0-.57-4 2.69 2.69 0 0 0-2.72-1.59 2.79 2.79 0 0 0-2.76 1.59 10.7 10.7 0 0 0-.53 4zm25.67-7.22v-12q0-3.48-3.21-3.48t-3.18 3.48v12h-4.91V6.27h4.91v9a6.4 6.4 0 0 1 4.73-2 6.16 6.16 0 0 1 4.91 2 7.6 7.6 0 0 1 1.67 5.14v12.78zM153 11v6.62h10.62v4.68H153v10.89h-5.26V6.27h17.73V11zm20.35 22.19a5.48 5.48 0 0 1-4.35-1.78 5.6 5.6 0 0 1-1.36-3.85V6.27h4.91v21a1.54 1.54 0 0 0 .436 1.28 1.54 1.54 0 0 0 1.274.45h1.89v4.16zm42.19 0h-4l-4.12-12.36-4.12 12.36h-4l-6.05-19.7h5.22l3.17 12.18 4-12.18h3.59l4 12.18 3.17-12.18h5.18zm-76.18-1.63.08-.07a22 22 0 0 0 1.88-1.68 11.5 11.5 0 0 0 3-4.45v-5q0-6.88-8.5-6.88a12.5 12.5 0 0 0-4.12.56 8.1 8.1 0 0 0-3.1 2.12l3.17 3a4.94 4.94 0 0 1 3.86-1.59 4.43 4.43 0 0 1 2.83.72 2.87 2.87 0 0 1 .87 2.34V26a3.26 3.26 0 0 1-.72 2.46 4.47 4.47 0 0 1-3.13.94c-1.92 0-2.88-.74-2.88-2.23s.93-2.19 2.8-2.19h.72v-3.36h-1.48a7.6 7.6 0 0 0-5.18 1.63 5.25 5.25 0 0 0-1.66 4 6 6 0 0 0 1.66 4.39 7 7 0 0 0 5.07 1.7 7.4 7.4 0 0 0 3.47-.79c.39-.26.85-.55 1.36-.99m3.17-.56a23 23 0 0 1-2.41 2.12h4.2V29a17 17 0 0 1-1.79 2m46.56-9.94a10 10 0 0 0-1-.69c.189.931.277 1.88.26 2.83 0 2.39-.38 4-1.13 4.68a3.1 3.1 0 0 1-2.3.87 3.08 3.08 0 0 1-2.27-.87c-.72-.72-1.09-2.29-1.09-4.68s.37-3.95 1.09-4.68a3 3 0 0 1 1.6-.81c1.73-.36 3.82.36 5.88 2a14.4 14.4 0 0 1 3.09 3.43q0-5.32-2.19-7.62a7.78 7.78 0 0 0-4.45-2.27s-1.08-.13-1.66-.13-1.47.1-1.47.1a7.42 7.42 0 0 0-4.57 2.3c-1.49 1.53-2.23 4.08-2.23 7.62v.08q0 5.32 2.23 7.62a7.48 7.48 0 0 0 4.57 2.31s1 .11 1.5.11q.82-.032 1.63-.15a7.7 7.7 0 0 0 4.45-2.27 8.1 8.1 0 0 0 1.97-4.3 12.35 12.35 0 0 0-3.91-5.48" fill="#2a2c30"/></g><defs><linearGradient id="paint0_linear_663_390" x1="5.13" y1="15.37" x2="41" y2="15.37" gradientUnits="userSpaceOnUse"><stop stop-color="#2a2c30" stop-opacity=".4"/><stop offset="1" stop-color="#fff" stop-opacity="0"/></linearGradient><clipPath id="clip0_663_390"><path fill="#fff" d="M0 0h232v41H0z"/></clipPath></defs></svg>