<svg width="188" height="60" fill="none" xmlns="http://www.w3.org/2000/svg"><g clip-path="url(#clip0_479_38094)"><path d="m107.501 28.123.39-11.218c0-1.245-.313-2.115-.986-2.73-.673-.617-1.513-.88-2.806-.88H90.435v3.58h13.298c.463 0 .463.155.463.293l-.389 10.75h-8.098a.66.66 0 0 1-.44-.101c-.034-.034-.031-.11-.023-.172l.903-9.04h-3.7l-.903 9.227a3.18 3.18 0 0 0 .993 2.761c.707.647 1.493.898 2.804.898h10.182c.468 0 .468.176.468.32v4.205H91.59l.727 3.58h13.676v5.026c0 .398-.143.43-.345.43H93.791l.769 3.578h11.382c1.293 0 2.189-.301 2.816-.946.669-.667.94-1.454.94-2.71V31.54c0-1.25-.315-2.114-.988-2.72a3 3 0 0 0-1.209-.696M87.347 40.14l.656 3.423-3.84.215v-6.773h1.991c1.296 0 2.11-.255 2.816-.897.707-.642.984-1.488.984-2.725v-12.98c0-1.238-.313-2.105-.986-2.731-.674-.627-1.513-.895-2.816-.895H84.16v-3.605h-3.684v3.605H78.48c-1.295 0-2.107.255-2.816.897-.71.642-.988 1.483-.988 2.728v12.98c0 1.248.314 2.115.988 2.728.673.614 1.51.895 2.816.895h1.995v6.97l-6.473.365v3.58l14.678-.831.292 1.534h3.743l-1.623-8.483zm-3.172-19.79h1.626c.463 0 .463.169.463.317v12.446c0 .15 0 .32-.463.32h-1.626zm-3.7 13.083h-1.62c-.469 0-.469-.17-.469-.32V20.668c0-.148 0-.317.469-.317h1.623zm62.101-10.875-1.308-9.386h-3.825l1.311 9.386z" fill="#3e3a39"/><path d="M145.912 30.243c3.024-7.003 3.267-15.414 3.267-15.483v-.389h-3.758v.378c0 .077-.294 7.773-2.937 13.893a42 42 0 0 1-2.37 4.646 43 43 0 0 1-2.374-4.653c-2.642-6.121-2.934-13.806-2.936-13.886v-.378h-3.764v.389c0 .079.243 8.48 3.267 15.483a48.6 48.6 0 0 0 3.533 6.63l-7.55 11.543-1.582-8.276h-3.513l.679 3.548-1.506.098v-6.78h1.997c1.293 0 2.107-.256 2.816-.898.71-.642.986-1.49.986-2.725v-12.98c0-1.236-.312-2.102-.988-2.731-.676-.63-1.513-.895-2.816-.895h-1.997v-3.605h-3.708v3.605h-1.997c-1.292 0-2.104.255-2.816.897s-.978 1.501-.978 2.728v12.98c0 1.24.313 2.107.988 2.728.676.622 1.514.895 2.817.895h1.997v6.985l-6.483.36v3.58l12.353-.703.269 1.404h7.647l.116-.172s2.163-3.203 5.537-8.181c3.375 4.97 5.536 8.181 5.538 8.181l.115.171h4.309l-7.68-11.76a48.6 48.6 0 0 0 3.522-6.627m-21.557-9.892h1.631c.464 0 .464.169.464.317v12.446c0 .15 0 .32-.464.32h-1.631zm-3.697 13.083h-1.628c-.468 0-.468-.177-.468-.32V20.668c0-.148 0-.317.468-.317h1.628zm49.438 11.648a.216.216 0 0 1-.215-.212V23.65h-5.514v3.51h1.817v18.198a3.24 3.24 0 0 0 3.236 3.232h18.572v-3.508zm-10.264-.212v-8.537h3.585v-3.51h-3.585v-5.66h3.357v-3.511h-9.56v3.51h2.522v5.66h-2.522v3.51h2.522v9.029a3.23 3.23 0 0 0 3.236 3.231h4.242v-3.51h-3.584a.21.21 0 0 1-.213-.212m9.901-23.97-1.442-7.541h-3.743l1.442 7.542z" fill="#3e3a39"/><path d="M178.215 43.934h3.679v-4.41h5.338v-3.51h-5.338v-4.467h5.338v-3.51h-5.338v-5.48h-3.679v5.48h-2.481l1.536-7.84h9.962v-3.51h-9.273l.653-3.328h-3.746l-.653 3.328h-3.146v3.51h2.457l-2.224 11.35h6.915v4.466h-7.148v3.51h7.148zm-21.542-23.736h6.913v-3.51h-6.232l.645-3.33h-3.745l-1.785 9.21h3.743z" fill="#3e3a39"/><path d="M24.502 55.8a27.2 27.2 0 0 0 16.772.567l.273-.08a1.296 1.296 0 0 0 .872-1.609 1.29 1.29 0 0 0-1.108-.917 1.3 1.3 0 0 0-.504.047l-.256.071a24.6 24.6 0 0 1-15.169-.511 1.297 1.297 0 0 0-1.743 1.272 1.29 1.29 0 0 0 .857 1.16zm28.93-6.748.236-.255a27.17 27.17 0 0 0 7.317-18.942 27.17 27.17 0 0 0-7.86-18.723 1.297 1.297 0 0 0-2.122 1.399c.064.157.159.3.278.421A24.6 24.6 0 0 1 58.397 29.9a24.6 24.6 0 0 1-6.624 17.144l-.213.225a1.294 1.294 0 0 0 .966 2.189 1.3 1.3 0 0 0 .909-.4zM40.805 4a27.3 27.3 0 0 0-20.317 2.546A27.22 27.22 0 0 0 7.681 22.499a1.293 1.293 0 0 0 .87 1.61 1.297 1.297 0 0 0 1.613-.869A24.64 24.64 0 0 1 21.753 8.806a24.7 24.7 0 0 1 18.381-2.31 1.297 1.297 0 0 0 1.657-1.417A1.29 1.29 0 0 0 40.805 4" fill="#00b6ff"/><path d="M44.893 14.422v31.532h2.594V14.422zm-2.846 33.505L14.26 31.92l-1.295 2.242L40.75 50.17zm-27.454-19.52 27.454-15.815-1.296-2.243-27.456 15.819z" fill="#1677ff"/><path d="M42.787 14.486a7.77 7.77 0 0 1-3.816-7.739 7.76 7.76 0 0 1 1.865-4.104A7.78 7.78 0 0 1 49.18.413a7.8 7.8 0 0 1 3.669 2.625 7.76 7.76 0 0 1-1.435 10.888 7.78 7.78 0 0 1-8.627.56m1.295-2.24a5.19 5.19 0 0 0 7.503-2.818 5.17 5.17 0 0 0-1.491-5.557 5.188 5.188 0 0 0-7.909 1.306 5.174 5.174 0 0 0 1.897 7.07M3.891 36.32a7.755 7.755 0 0 1-1.956-11.843 7.78 7.78 0 0 1 8.345-2.233 7.8 7.8 0 0 1 3.67 2.625 7.757 7.757 0 0 1-1.433 10.889 7.775 7.775 0 0 1-8.626.562m1.296-2.242a5.19 5.19 0 0 0 7.503-2.818 5.17 5.17 0 0 0-1.492-5.558A5.187 5.187 0 0 0 3.29 27.01a5.173 5.173 0 0 0 1.897 7.069M43.268 58.96a7.755 7.755 0 0 1-1.953-11.844 7.78 7.78 0 0 1 8.344-2.231 7.8 7.8 0 0 1 3.669 2.626 7.76 7.76 0 0 1-1.436 10.888 7.77 7.77 0 0 1-8.624.56m1.295-2.24a5.19 5.19 0 0 0 7.503-2.818 5.17 5.17 0 0 0-1.491-5.558 5.188 5.188 0 0 0-7.909 1.307 5.174 5.174 0 0 0 1.902 7.069zm-32.53-8.189a4.76 4.76 0 0 1 2.896.417V48.9a1.5 1.5 0 0 1 .722-1.023 2.35 2.35 0 0 1 .338-3.415l-.945-1.744a.42.42 0 1 1 .737-.399l.95 1.754a2.4 2.4 0 0 1 1.001-.084l.417-1.818a.42.42 0 0 1 .82.186l-.433 1.874a2.36 2.36 0 0 1 1.232 2.462 2.36 2.36 0 0 1-1.941 1.954 1.5 1.5 0 0 1-.256 1.5l1.561 1.174a.42.42 0 0 1-.055.702.42.42 0 0 1-.27.045.5.5 0 0 1-.179-.077l-1.833-1.368a1.5 1.5 0 0 1-.65.028 2 2 0 0 1-.197-.05c-.088.792-.827 1.533-1.908 1.996l.343 1.47a.42.42 0 0 1-.315.511.427.427 0 0 1-.512-.314l-.325-1.399a6 6 0 0 1-.589.115c-1.994.28-3.75-.488-3.922-1.715-.171-1.227 1.31-2.455 3.313-2.733" fill="#1677ff"/></g><defs><clipPath id="clip0_479_38094"><path fill="#fff" d="M0 0h188v60H0z"/></clipPath></defs></svg>