<svg width="214" height="46" fill="none" xmlns="http://www.w3.org/2000/svg"><g clip-path="url(#clip0_243_307)"><mask id="mask0_243_307" style="mask-type:luminance" maskUnits="userSpaceOnUse" x="0" y="0" width="214" height="46"><path d="M213.133 0H0v46h213.133z" fill="#fff"/></mask><g mask="url(#mask0_243_307)"><path d="M138.613 11.347c-.766 1.074-2.606 4.294-2.453 9.354 0 6.9 9.2 9.506 14.567 3.22 5.52-6.44 2.606-12.88-2.454-13.187a9.2 9.2 0 0 0-7.513 3.067c1.073-2.607-1.227-3.987-2.147-2.454m9.2 3.067c5.214 1.687 1.84 10.734-3.833 9.66-3.833-.46-4.6-3.373-4.293-6.133 1.073-2.453 5.366-4.6 7.973-3.527zm19.474-10.273c-1.227 0-4.6-.46-7.207-.46 1.073 2.3 3.373 8.28 3.067 17.173-.307 12.267-7.36 19.167-16.867 19.167-8.893 0-13.8-5.674-14.413-7.667-.614-1.993.766-1.993 1.38-1.38 1.073 1.227 2.146 2.3 4.14 3.373 7.053 3.067 19.626 1.534 20.853-10.733 1.227-10.427-1.84-17.633-3.067-19.933a72 72 0 0 0-21.62 4.14c-3.833 1.533-4.446-.92-4.446-1.994a3.066 3.066 0 0 1 2.453-2.76c15.333-4.14 32.2-1.533 34.5-1.226 2.453.46 2.3 2.3 1.073 2.3zm10.426 2.76a83 83 0 0 1 9.967-2.607c-5.213 3.68-12.267 13.8-6.9 21.774 6.133 9.2 23.46 5.366 23.92-6.44.307-11.5-13.34-12.267-16.867-5.827-3.066 5.367 1.227 8.893 3.68 9.047.46.92.92 1.533 1.38 1.533.767-.154.614-.92.307-1.84.767-.307 3.22-1.533 3.833-4.14.614-3.067-3.373-4.294-5.213-.46a6.9 6.9 0 0 0-.613 2.76c-4.6-1.533-.92-9.967 6.286-6.9 6.594 2.606 2.3 15.64-8.893 12.266-10.733-3.526-2.453-21.466 7.207-23 3.526 0 7.666.154 10.426.614 2.454.306 2.454-1.687.92-2.147-4.6-1.533-20.546-2.453-29.9.613-1.533.46-2.606 1.534-2.76 3.067 0 1.533 1.38 2.3 3.067 1.687zm17.02 9.967c1.687 0 .307 3.066-1.84 3.833 0-1.533.614-3.987 1.84-3.834m18.247 15.486c-.78-.703-1.5-1.472-2.147-2.3a13.5 13.5 0 0 0 1.84-7.666c-.613-4.6-5.213-4.14-5.52 1.226a14.9 14.9 0 0 0 .614 5.52 20.55 20.55 0 0 1-16.407 6.9c-7.207-.153-14.413-2.76-18.093-8.893-.92-1.533-2.147-1.533-2.147 0 0 2.76 6.287 13.187 19.933 13.493 9.507.154 15.334-3.833 18.4-8.433.614.767 1.534 1.38 2.147 1.84 1.533.92 2.3-.767 1.38-1.533zm-3.067-11.5c.92 0 1.227 2.76-.613 6.134l-.153-.307c-.767-2.454-.46-5.98.613-5.98zm-87.706 7.054c-.307 0-.46.153-.614.46-1.226 3.526-2.913 5.673-4.293 5.673-.767 0-1.073-.92-1.073-2.3a68.4 68.4 0 0 1 3.373-15.333c0-1.074-.613-1.534-1.993-1.534s-3.067.46-4.447 3.067c-.46-2.3-2.147-3.22-4.293-3.22-2.607 0-5.06 1.533-7.054 4.293-1.993 2.607-4.446 3.527-6.133 3.067a19.9 19.9 0 0 0 1.687-7.207c0-2.76-1.38-4.447-3.527-4.447-3.373 0-5.214 3.067-5.214 6.594 0 2.453 1.074 5.213 3.68 6.44-2.146 4.907-5.213 9.2-6.44 9.2-1.533 0-1.993-7.36-1.993-12.88 0-3.067.307-3.22.307-4.14 0-.614-.307-.92-1.687-.92-3.22 0-4.293 2.76-4.6 5.98 0 1.226 0 2.453-.46 3.526-1.38 4.907-4.14 8.587-6.133 8.587-.767 0-.92-.767-.92-1.993 0-3.527 1.993-7.82 1.993-11.654 0-2.76-1.226-4.6-3.526-4.6-2.607 0-6.134 3.374-9.66 9.2 1.226-4.6 1.533-8.893-1.534-8.893a4.45 4.45 0 0 0-2.146.46 1.23 1.23 0 0 0-.614 1.227c.307 4.907-3.986 17.327-7.973 17.327-.767 0-1.073-.767-1.073-2.147a68.5 68.5 0 0 1 3.373-15.333c0-1.074-.614-1.534-1.993-1.534s-3.067.614-4.447 3.067c-.46-2.147-2.147-3.067-4.293-3.067-3.68 0-7.667 3.68-9.354 8.74-2.453 6.593-7.206 13.034-13.8 13.034-5.673 0-8.74-4.907-8.74-12.574C6.44 12.881 14.72 3.834 20.7 3.834c3.067 0 4.293 1.84 4.293 4.6 0 3.527-1.84 5.06-1.84 6.44 0 .307.307.767.92.767 2.607 0 5.674-3.067 5.674-7.36s-3.374-7.207-9.354-7.207c-9.966 0-20.086 9.813-20.086 23 0 10.12 5.06 16.253 13.8 16.253 5.98 0 11.193-4.6 13.953-9.966.306 4.446 2.453 6.747 5.52 6.747 2.76 0 4.907-1.534 6.747-4.6.613 3.066 2.3 4.6 4.6 4.6 2.606 0 4.6-1.534 6.746-4.6 0 2.3.614 4.6 2.607 4.6 1.073 0 2.147-.307 2.453-1.074 2.147-9.2 7.667-16.56 9.2-16.56.46 0 .614.46.614 1.073 0 2.454-1.687 7.514-1.687 10.734 0 3.526 1.533 5.827 4.6 5.827 3.373 0 6.747-4.14 9.2-10.274.613 5.674 2.147 10.274 4.6 10.274 3.066 0 8.28-6.287 11.5-13.034 1.227.153 3.067.153 4.907-1.073a16.9 16.9 0 0 0-1.227 6.133c0 6.133 3.067 7.974 5.52 7.974 2.76 0 4.907-1.534 6.593-4.6.614 2.606 1.994 4.6 4.6 4.6 4.294 0 7.82-4.294 7.82-7.667 0-.92-.306-1.533-.766-1.533m-86.174 5.826c-1.533 0-2.3-1.687-2.3-4.14 0-4.446 3.067-11.653 6.134-11.653 1.38 0 1.84 1.533 1.84 3.527 0 4.446-2.76 12.266-5.674 12.266M93.38 20.701A6.6 6.6 0 0 1 92 16.407c0-1.686.767-3.22 1.533-3.22.767 0 1.074.767 1.074 1.84 0 1.687-.767 4.294-1.227 5.674m13.033 13.033c-1.533 0-2.3-1.993-2.3-4.14 0-4.293 3.067-11.653 6.134-11.653 1.533 0 1.84 1.533 1.84 3.527 0 4.446-2.76 12.266-5.674 12.266" fill="url(#paint0_linear_243_307)"/></g></g><defs><linearGradient id="paint0_linear_243_307" x1=".307" y1="20.376" x2="213.377" y2="20.376" gradientUnits="userSpaceOnUse"><stop stop-color="#05b9c6"/><stop offset="1" stop-color="#7126e3"/></linearGradient><clipPath id="clip0_243_307"><path fill="#fff" d="M0 0h213.133v46H0z"/></clipPath></defs></svg>