<svg width="46" height="46" fill="none" xmlns="http://www.w3.org/2000/svg"><g clip-path="url(#clip0_280_22)"><circle cx="23" cy="23" r="23" fill="url(#paint0_linear_280_22)"/><path d="M40.775 25.203c-.09 0-.135.047-.18.14-.36 1.079-.855 1.735-1.26 1.735-.225 0-.315-.281-.315-.703a21.6 21.6 0 0 1 .99-4.687c0-.329-.18-.47-.585-.47s-.9.141-1.305.938c-.135-.703-.63-.984-1.26-.984-.765 0-1.485.469-2.07 1.312-.585.797-1.305 1.078-1.8.938a6.3 6.3 0 0 0 .495-2.203c0-.844-.405-1.36-1.035-1.36-.99 0-1.53.938-1.53 2.016 0 .75.315 1.594 1.08 1.969-.63 1.5-1.53 2.812-1.89 2.812-.45 0-.585-2.25-.585-3.937 0-.938.09-.985.09-1.266 0-.187-.09-.281-.495-.281-.945 0-1.26.844-1.35 1.828 0 .375 0 .75-.135 1.078-.405 1.5-1.215 2.625-1.8 2.625-.225 0-.27-.234-.27-.61 0-1.077.585-2.39.585-3.562 0-.843-.36-1.406-1.035-1.406-.765 0-1.8 1.031-2.835 2.813.36-1.407.45-2.72-.45-2.72a1.26 1.26 0 0 0-.63.141.37.37 0 0 0-.145.16.4.4 0 0 0-.035.215c.09 1.5-1.17 5.297-2.34 5.297-.225 0-.315-.234-.315-.656a21.7 21.7 0 0 1 .99-4.687c0-.329-.18-.47-.585-.47s-.9.188-1.305.938c-.135-.656-.63-.937-1.26-.937-1.08 0-2.25 1.125-2.745 2.672-.72 2.015-2.115 3.984-4.05 3.984-1.665 0-2.565-1.5-2.565-3.844-.045-3.422 2.385-6.187 4.14-6.187.9 0 1.26.562 1.26 1.406 0 1.078-.54 1.547-.54 1.969 0 .093.09.234.27.234.765 0 1.665-.937 1.665-2.25S12.65 17 10.895 17C7.97 17 5 20 5 24.031 5 27.125 6.485 29 9.05 29c1.755 0 3.285-1.406 4.095-3.047.09 1.36.72 2.063 1.62 2.063.81 0 1.44-.47 1.98-1.407.18.938.675 1.407 1.35 1.407.765 0 1.35-.47 1.98-1.407 0 .703.18 1.407.765 1.407.315 0 .63-.094.72-.328.63-2.813 2.25-5.063 2.7-5.063.135 0 .18.14.18.328 0 .75-.495 2.297-.495 3.281 0 1.078.45 1.782 1.35 1.782.99 0 1.98-1.266 2.7-3.141.18 1.734.63 3.14 1.35 3.14.9 0 2.43-1.921 3.375-3.984.36.047.9.047 1.44-.328a5.3 5.3 0 0 0-.36 1.875c0 1.875.9 2.438 1.62 2.438.81 0 1.44-.47 1.935-1.407.18.797.585 1.407 1.35 1.407 1.26 0 2.295-1.313 2.295-2.344 0-.281-.09-.469-.225-.469m-25.29 1.781c-.45 0-.675-.515-.675-1.265 0-1.36.9-3.563 1.8-3.563.405 0 .54.469.54 1.078 0 1.36-.81 3.75-1.665 3.75M32.315 23a2.07 2.07 0 0 1-.405-1.312c0-.516.225-.985.45-.985s.315.235.315.563c0 .515-.225 1.312-.36 1.734m3.825 3.984c-.45 0-.675-.609-.675-1.265 0-1.313.9-3.563 1.8-3.563.45 0 .54.469.54 1.078 0 1.36-.81 3.75-1.665 3.75" fill="#fff"/></g><defs><linearGradient id="paint0_linear_280_22" x1="6" y1="5" x2="40.5" y2="39.5" gradientUnits="userSpaceOnUse"><stop stop-color="#00c3cb"/><stop offset="1" stop-color="#7126e3"/></linearGradient><clipPath id="clip0_280_22"><path fill="#fff" d="M0 0h46v46H0z"/></clipPath></defs></svg>