<svg width="46" height="46" fill="none" xmlns="http://www.w3.org/2000/svg"><path d="M40.327 25.23c.274.377.41.821.377 1.266-.377 9.166-7.946 16.485-17.226 16.485-9.281 0-16.85-7.32-17.226-16.485-.035-.445.102-.89.376-1.265L22.04 4.813a1.962 1.962 0 0 1 3.117 0z" fill="#00f9e5"/><path d="M17.964 32.002a8.5 8.5 0 0 1-11.986-.581 8.475 8.475 0 0 1 .582-11.97 8.5 8.5 0 0 1 11.986.581c3.15 3.454 2.911 8.824-.582 11.97" fill="#fff"/><path d="M12.279 34.978c-2.534 0-5.068-1.026-6.884-3.044-3.424-3.796-3.15-9.679.651-13.099 1.85-1.676 4.212-2.53 6.678-2.394 2.466.137 4.76 1.197 6.439 3.044 3.424 3.796 3.15 9.679-.651 13.099a9.26 9.26 0 0 1-6.233 2.394m-.034-16.964a7.64 7.64 0 0 0-5.171 1.984c-3.151 2.838-3.39 7.73-.548 10.876 1.37 1.539 3.287 2.428 5.342 2.53a7.67 7.67 0 0 0 5.548-1.983c3.15-2.839 3.39-7.73.548-10.876-1.37-1.539-3.288-2.428-5.342-2.53z" fill="#0c6066"/><path d="M9.197 22.323C7.347 24 7.21 26.838 8.889 28.651c1.678 1.846 4.52 1.983 6.335.307a4.5 4.5 0 0 0 1.267-1.95z" fill="#1e1e1e"/><path d="m11.97 16.988 9.384-12.894A2.7 2.7 0 0 1 23.512 3c.856 0 1.644.41 2.157 1.094l9.247 12.928-1.85.137-8.595-12.107a1.15 1.15 0 0 0-.925-.445c-.377 0-.685.171-.89.445l-9.007 12.312zM9.027 33.644c.787 1.505 1.849 2.873 3.116 4.104 3.048 2.907 7.055 4.549 11.267 4.549a16.15 16.15 0 0 0 11.267-4.549 16 16 0 0 0 3.288-4.446l2.226-1.197a18 18 0 0 1-4.418 6.772c-3.356 3.214-7.74 4.993-12.363 4.993a17.86 17.86 0 0 1-12.363-4.96c-1.952-1.88-3.424-4.103-4.35-6.566z" fill="#0c6066"/><path d="M20.053 29.13c1.336-3.079.788-6.807-1.747-9.372-3.15-3.18-8.321-3.351-11.678-.41-.24.24-.48.445-.719.718-.068.069-.034.171.034.205l13.87 8.927c.069.034.206 0 .24-.069" fill="url(#paint0_linear_198_8263)"/><path d="m20.053 29.13.72.307a9.5 9.5 0 0 0 .787-3.728c0-2.36-.89-4.72-2.671-6.532a9.34 9.34 0 0 0-6.61-2.736c-2.192 0-4.418.752-6.164 2.326-.274.239-.548.512-.788.752a.96.96 0 0 0-.24.65c0 .308.137.615.445.786l13.836 8.893a.97.97 0 0 0 .514.136.97.97 0 0 0 .513-.137c.137-.102.274-.239.377-.41zl-.72-.308.583.274-.343-.547c-.102.068-.205.17-.24.274l.583.273v-.65a.6.6 0 0 0-.343.103l.343.547.342-.547a.66.66 0 0 0-.342-.103v.65l.342-.547-13.87-8.926-.342.547h.65a.66.66 0 0 0-.307-.547l-.343.547.48.444c.102-.136.17-.273.17-.444h-.65l.48.444c.205-.205.41-.444.65-.65a7.7 7.7 0 0 1 5.103-1.915c1.986 0 4.007.753 5.48 2.258a7.58 7.58 0 0 1 2.226 5.403c0 1.06-.206 2.12-.651 3.078z" fill="#0c6066"/><path d="M28.923 32.002a8.5 8.5 0 0 0 11.986-.581 8.475 8.475 0 0 0-.582-11.97 8.5 8.5 0 0 0-11.986.581c-3.151 3.454-2.911 8.824.582 11.97" fill="#fff"/><path d="M28.375 32.584c-3.802-3.42-4.076-9.303-.65-13.1 1.677-1.846 3.938-2.906 6.438-3.043a9.07 9.07 0 0 1 6.678 2.394c3.8 3.42 4.075 9.303.65 13.099-1.815 2.018-4.35 3.044-6.883 3.044a9.26 9.26 0 0 1-6.233-2.394m5.856-14.57a7.68 7.68 0 0 0-5.343 2.531c-2.842 3.146-2.602 8.037.548 10.876 1.542 1.368 3.494 2.086 5.548 1.983a7.68 7.68 0 0 0 5.343-2.53c2.842-3.147 2.603-8.038-.548-10.876a7.64 7.64 0 0 0-5.171-1.984z" fill="#0c6066"/><path d="M37.69 22.29c1.85 1.675 1.986 4.514.308 6.326-1.678 1.847-4.52 1.984-6.335.308a4.5 4.5 0 0 1-1.268-1.95z" fill="#1e1e1e"/><path d="M26.834 29.095c-1.336-3.078-.788-6.806 1.746-9.37 3.151-3.181 8.322-3.353 11.678-.411.24.24.48.444.72.718.068.068.034.171-.035.205l-13.87 8.927c-.102.068-.205.034-.24-.069" fill="url(#paint1_linear_198_8263)"/><path d="m26.834 29.095.719-.308a7.4 7.4 0 0 1-.65-3.078c0-1.95.718-3.899 2.225-5.403 1.473-1.505 3.493-2.258 5.48-2.258 1.815 0 3.63.65 5.102 1.916.24.205.446.41.651.65l.48-.445h-.651c0 .137.068.308.171.444l.48-.444-.343-.547c-.171.136-.308.342-.308.547h.65l-.342-.547-13.87 8.892.343.547v-.65a.66.66 0 0 0-.343.103l.343.547.342-.547a.6.6 0 0 0-.342-.103v.65l.582-.274c-.069-.136-.137-.24-.24-.273l-.342.547.582-.274zl-.718.308c.068.171.205.342.376.41.137.103.343.137.514.137a.97.97 0 0 0 .514-.137l13.87-8.926c.273-.171.41-.479.41-.787a.88.88 0 0 0-.24-.615 8 8 0 0 0-.787-.753 9.36 9.36 0 0 0-6.164-2.325c-2.398 0-4.83.923-6.61 2.736a9.3 9.3 0 0 0-2.671 6.532c0 1.265.274 2.53.788 3.728z" fill="#0c6066"/><defs><linearGradient id="paint0_linear_198_8263" x1="9.135" y1="17.026" x2="20.733" y2="28.64" gradientUnits="userSpaceOnUse"><stop stop-color="#00f9e5"/><stop offset=".568" stop-color="#299df4"/><stop offset="1" stop-color="#4a54ff"/></linearGradient><linearGradient id="paint1_linear_198_8263" x1="37.745" y1="17.002" x2="26.146" y2="28.616" gradientUnits="userSpaceOnUse"><stop stop-color="#00f9e5"/><stop offset=".568" stop-color="#299df4"/><stop offset="1" stop-color="#4a54ff"/></linearGradient></defs></svg>