<svg width="124" height="46" fill="none" xmlns="http://www.w3.org/2000/svg"><mask id="mask0_173_8212" style="mask-type:luminance" maskUnits="userSpaceOnUse" x="4" y="2" width="43" height="43"><path d="M4 2h42.09v42.09H4z" fill="#fff"/></mask><g mask="url(#mask0_173_8212)"><path fill-rule="evenodd" clip-rule="evenodd" d="M36.63 44.09H13.46A9.46 9.46 0 0 1 4 34.63V11.46A9.46 9.46 0 0 1 13.46 2h23.17a9.46 9.46 0 0 1 9.46 9.46v23.17a9.46 9.46 0 0 1-9.46 9.46" fill="#ffe411"/></g><path fill-rule="evenodd" clip-rule="evenodd" d="m20.423 36.39-3.095-4.378a.39.39 0 0 1 .094-.544l2.046-1.446c2.117-1.497 3.381-3.573 3.381-6.53V10.161a.39.39 0 0 1 .39-.39h5.462v13.72c0 5.383-1.5 8.07-5.913 11.227z" fill="#fefefe"/><mask id="mask1_173_8212" style="mask-type:luminance" maskUnits="userSpaceOnUse" x="20" y="9" width="11" height="29"><path d="M28.54 9.773v13.49c0 5.384-1.5 8.07-5.914 11.227l-2.366 1.67 1.126 1.593a.39.39 0 0 0 .544.094l2.057-1.454c2.617-1.873 4.257-3.594 5.315-5.582 1.091-2.046 1.577-4.375 1.577-7.55V10.163a.39.39 0 0 0-.39-.39z" fill="#fff"/></mask><g mask="url(#mask1_173_8212)"><path fill-rule="evenodd" clip-rule="evenodd" d="M28.54 9.773v13.49c0 5.384-1.5 8.07-5.914 11.227l-2.366 1.67 1.126 1.593a.39.39 0 0 0 .544.094l2.057-1.454c2.617-1.873 4.257-3.594 5.315-5.582 1.091-2.046 1.577-4.375 1.577-7.55V10.163a.39.39 0 0 0-.39-.39z" fill="url(#paint0_linear_173_8212)"/></g><path fill-rule="evenodd" clip-rule="evenodd" d="M66.635 20.057h-9.176a1.712 1.712 0 0 1 0-3.424h9.176a1.712 1.712 0 0 1 0 3.424m6.219 19.353a1.71 1.71 0 0 1-1.712-1.713l.003-27.323A2.83 2.83 0 0 1 73.97 7.55h7.875a2.825 2.825 0 0 1 2.825 2.825v21.547a5.76 5.76 0 0 1-1.69 4.083 5.76 5.76 0 0 1-4.084 1.691h-.506a1.72 1.72 0 0 1-1.727-1.71c0-.946.766-1.713 1.712-1.713h.52c1.447-.016 2.36-1.232 2.352-2.351V11.377a.404.404 0 0 0-.404-.404h-5.87a.404.404 0 0 0-.404.403l-.003 26.321c0 .946-.767 1.712-1.712 1.712" fill="#050101"/><path fill-rule="evenodd" clip-rule="evenodd" d="M58.177 25.43c0 .223.18.404.404.404h5.627a.96.96 0 0 0 .96-.96v-13.47a.404.404 0 0 0-.404-.403h-6.183a.404.404 0 0 0-.404.403zm9.445 13.98c-.457 0-.913-.183-1.25-.542l-2.59-2.765a.836.836 0 0 0-1.189-.034l-2.596 2.473a3.08 3.08 0 0 1-3.363.605 3.09 3.09 0 0 1-1.881-2.852V10.402a2.826 2.826 0 0 1 2.825-2.825h8.189a2.825 2.825 0 0 1 2.825 2.825v14.472a4.36 4.36 0 0 1-1.284 3.1 4.35 4.35 0 0 1-3.1 1.283h-5.627a.404.404 0 0 0-.404.404v4.944c0 .355.425.538.683.293l1.625-1.548a3.9 3.9 0 0 1 2.811-1.078 3.9 3.9 0 0 1 2.745 1.236l2.83 3.019a1.712 1.712 0 0 1-1.25 2.882zm22.361-7.786a1.64 1.64 0 0 1-.956-2.976l8.808-6.299h-7.819a1.64 1.64 0 0 1-.978-2.958l9.174-6.803H89.92a1.64 1.64 0 0 1 0-3.281h13.259a1.641 1.641 0 0 1 .978 2.958l-9.173 6.803h7.967a1.64 1.64 0 0 1 1.56 1.14 1.64 1.64 0 0 1-.605 1.834l-12.97 9.276c-.29.207-.623.306-.953.306m18.867.744a1.67 1.67 0 0 1-1.668-1.667V10.973a1.67 1.67 0 0 1 1.667-1.667 1.67 1.67 0 0 1 1.668 1.667v19.728c0 .92-.747 1.667-1.667 1.667m-5.982 6.831a1.66 1.66 0 0 1-1.212-.524l-4.772-5.054a1.668 1.668 0 0 1 2.425-2.29l4.772 5.056a1.668 1.668 0 0 1-1.213 2.812" fill="#050101"/><path fill-rule="evenodd" clip-rule="evenodd" d="m108.864 39.4-.973-.001a1.669 1.669 0 0 1-1.177-2.847 1.67 1.67 0 0 1 1.179-.488h.971c2.168 0 4.754-1.94 4.762-4.666l-.001-23.04a1.666 1.666 0 0 1 2.845-1.18c.313.313.489.737.489 1.179l.002 22.934c0 5.332-4.286 8.109-8.097 8.109m-18.878.1a1.64 1.64 0 0 1-.955-2.976l13.122-9.375a1.64 1.64 0 1 1 1.908 2.67L90.94 39.193c-.29.207-.623.306-.953.306m6.243-27.713a1.64 1.64 0 0 1-1.64-1.641v-1.76a1.641 1.641 0 0 1 3.281 0v1.76a1.64 1.64 0 0 1-1.64 1.64" fill="#050101"/><defs><linearGradient id="paint0_linear_173_8212" x1="551.21" y1="9.773" x2="551.21" y2="2824.32" gradientUnits="userSpaceOnUse"><stop stop-color="#e9ffff"/><stop offset="1" stop-color="#01b1e7"/></linearGradient></defs></svg>