<svg width="177" height="46" fill="none" xmlns="http://www.w3.org/2000/svg"><path d="M70.945 20.631v2.599H65.86v-2.6h5.084Zm0-2.994H65.86v-2.4h5.084zM68.29 28.371l1.3 2.4-3.73 1.074v-5.593h8.502V12.214H62.387V31.28c0 1.073-.678 1.638-1.328 1.949.565.847 1.13 2.486 1.328 3.474.79-.565 1.948-1.017 8.586-3.135.424.904.791 1.751 1.017 2.457l3.135-1.666c-.734-2.006-2.485-5.113-3.898-7.4zm7.654-15.96v24.913h3.39V15.52h3.417v13.16c0 .34-.112.424-.451.452s-1.413.029-2.401-.028c.423.876.819 2.288.932 3.192 1.836 0 3.135-.028 4.067-.565.932-.565 1.186-1.469 1.186-2.994V12.412h-10.14Zm25.889 10.282c1.357 2.062 3.192 4.858 4.012 6.497l3.022-1.752c-.932-1.61-2.853-4.265-4.238-6.213zm-4.52 1.215v5.14h-3.416v-5.14h3.417Zm0-2.966h-3.416v-4.915h3.417v4.915Zm-6.58-7.937v21.326h3.164v-2.26h6.581V13.005zm19.236-2.034V16h-8.446v3.361h8.446v13.417c0 .565-.227.762-.848.762s-2.712 0-4.689-.084c.509.96 1.045 2.486 1.186 3.418 2.825.028 4.83-.057 6.073-.594 1.271-.536 1.723-1.44 1.723-3.474V19.36h2.881V16h-2.881v-5.03zm10.777 2.232c1.553 1.356 3.53 3.305 4.434 4.576l2.316-2.345c-.96-1.214-3.05-3.05-4.575-4.293zm-1.836 6.299v3.248h3.389v8.53c0 1.328-.79 2.316-1.412 2.768.565.65 1.412 2.062 1.695 2.881.48-.678 1.441-1.497 6.665-5.932-.394-.62-.988-1.92-1.27-2.824l-2.43 2.062V19.502zm12.259-7.796v3.05c0 1.95-.424 4.011-4.012 5.508.651.48 1.837 1.808 2.232 2.486 4.067-1.864 4.943-5.056 4.943-7.909h3.785v2.994c0 2.825.565 4.04 3.361 4.04h1.836c.621 0 1.299-.03 1.751-.227-.141-.762-.197-1.977-.282-2.796-.368.113-1.074.17-1.525.17h-1.441c-.424 0-.508-.311-.508-1.13v-6.186zm8.304 14.49c-.819 1.61-1.949 2.965-3.333 4.095a14.1 14.1 0 0 1-3.475-4.095zm-10.79-3.136v3.136h2.118l-1.242.423c1.045 2.09 2.344 3.927 3.897 5.48-1.977 1.045-4.236 1.78-6.722 2.232.593.706 1.271 2.061 1.554 2.937 2.881-.678 5.507-1.638 7.767-3.05 2.09 1.412 4.519 2.457 7.344 3.135.424-.932 1.328-2.288 2.062-3.023-2.486-.451-4.689-1.214-6.609-2.231 2.202-2.062 3.897-4.773 4.942-8.304l-2.09-.876-.565.142zm21.539-9.8c1.61 1.327 3.7 3.22 4.661 4.462l2.288-2.457c-1.017-1.215-3.22-2.994-4.774-4.209l-2.175 2.203Zm-2.175 6.242v3.36h4.124v8.53c0 1.272-.904 2.204-1.553 2.628.564.734 1.412 2.288 1.666 3.163.536-.706 1.581-1.497 7.287-5.649-.339-.706-.875-2.146-1.073-3.135l-2.881 2.034V19.502zm16.072-8.587v8.784h-6.779v3.53h6.779v14.096h3.644V23.23h6.524V19.7h-6.524v-8.785zM32.91 0H13.09C5.86 0 0 5.86 0 13.09v19.82C0 40.14 5.86 46 13.09 46h19.82C40.14 46 46 40.14 46 32.91V13.09C46 5.86 40.14 0 32.91 0" fill="#273347"/><path fill-rule="evenodd" clip-rule="evenodd" d="M25.456 8.242a1.281 1.281 0 0 1 2.267 0l8.853 16.744a1.94 1.94 0 0 1 0 1.81l-5.615 10.62a1.92 1.92 0 0 1-1.7 1.027H16.738a1.92 1.92 0 0 1-1.7-1.026l-5.615-10.62a1.94 1.94 0 0 1 0-1.811l8.853-16.744a1.281 1.281 0 0 1 2.267 0L23 12.887zm.833 5.51a.64.64 0 0 1 .867.266l6.038 11.42c.15.283.15.623 0 .906L28.77 34.71a.96.96 0 0 1-.85.513h-9.84a.96.96 0 0 1-.85-.513l-4.424-8.367a.97.97 0 0 1 0-.906l6.038-11.42a.643.643 0 0 1 1.133 0l1.212 2.293-3.545 6.706a6 6 0 0 0-.418.992l-.014.043-.044.147a6.2 6.2 0 0 0-.238 1.702c0 3.377 2.72 6.115 6.073 6.115 3.355 0 6.073-2.738 6.073-6.115 0-1.1-.288-2.13-.793-3.021l-1.682-3.181-1.81 3.424.743 1.407c.225.425.338.893.338 1.36h.008v.064a2.886 2.886 0 0 1-2.877 2.843 2.887 2.887 0 0 1-2.876-2.896v-.005l.001-.005q0-.283.055-.561l.01-.047a2.9 2.9 0 0 1 .311-.817l-.004-.003 2.5-4.727.002.004 1.81-3.425-.002-.004 1.213-2.293a.64.64 0 0 1 .266-.266Z" fill="#fff"/></svg>