<svg width="124" height="46" fill="none" xmlns="http://www.w3.org/2000/svg"><g clip-path="url(#clip0_266_426)"><path d="M.37 20.14V.527c0-.23.189-.42.419-.42h10.38c.229 0 .418.19.418.42v19.611c0 .23-.19.42-.419.42H.788a.42.42 0 0 1-.419-.42m18.335 0V.527c0-.23.19-.42.419-.42h10.38c.23 0 .419.19.419.42v19.611c0 .23-.19.42-.42.42H19.124c-.23 0-.42-.19-.42-.42M49.693.108c.23 0 .42.19.42.419v15.49c0 1.536-.11 3.063-.31 4.54-1.557 11.278-8.823 20.74-18.793 25.36-.21.1-.47 0-.56-.209l-4.23-9.481c-.09-.21 0-.46.209-.56 7.375-3.472 12.475-10.968 12.475-19.65V.527c0-.23.19-.42.42-.42z" fill="#f33"/><path d="M96.76.337V4.07c0 .15.12.28.28.28h6.676c-.169 2.744-.489 8.223-.569 9.71-.159 3.064-.908 5.51-2.275 7.476-1.218 1.736-2.894 3.064-5.1 4.022-.14.06-.21.23-.14.369l1.537 3.343c.06.14.22.2.36.14 5.938-2.545 9.401-7.685 9.81-14.581l.619-10.47h10.959v24.462c0 .15.119.28.269.28h3.733a.28.28 0 0 0 .279-.28V.357a.28.28 0 0 0-.279-.28h-25.88a.257.257 0 0 0-.28.26m-7.8 15.251H77.4V14.32h11.18c.15 0 .28-.12.28-.28v-2.245a.28.28 0 0 0-.28-.28H77.401v-1.267H88.58c.15 0 .28-.12.28-.28V.339a.27.27 0 0 0-.28-.27H62.66a.27.27 0 0 0-.269.27v9.63c0 .15.12.28.27.28h11.178v1.268H62.66a.27.27 0 0 0-.27.279v2.246c0 .15.12.28.27.28h11.178v1.267H62.28a.28.28 0 0 0-.28.279v2.246c0 .15.12.27.28.27h26.678c.15 0 .279-.12.279-.27v-2.246a.28.28 0 0 0-.28-.28m-3.674-8.144h-7.884V2.863h7.884zm-19.33-4.581h7.885v4.58h-7.885zm11.446 22.396h11.427c.15 0 .28-.12.28-.28v-2.245a.28.28 0 0 0-.28-.28H77.4V19.42a.28.28 0 0 0-.28-.28h-3.013a.28.28 0 0 0-.28.28v3.034H62.398c-.15 0-.279.12-.279.28v2.245c0 .15.12.28.28.28h11.437v1.017H61.53a.28.28 0 0 0-.28.28v2.246c0 .15.12.279.28.279h28.175c.15 0 .28-.12.28-.28v-2.245a.28.28 0 0 0-.28-.28H77.4z" fill="#000"/><path d="M70.923 3.88h-2.775a.13.13 0 0 0-.13.16l.45 2.266c.01.06.07.11.13.11h2.774c.09 0 .15-.08.13-.16l-.45-2.266c0-.06-.06-.11-.13-.11m11.846 2.436.45-2.266a.13.13 0 0 0-.13-.16h-2.775a.13.13 0 0 0-.13.11l-.45 2.266c-.02.09.051.16.13.16h2.775c.06 0 .11-.04.13-.11m2.906 15.379h2.774c.09 0 .15-.08.13-.16l-.449-2.265a.14.14 0 0 0-.13-.11h-2.784a.13.13 0 0 0-.13.16l.449 2.266c.02.06.07.11.14.11m-5.361-.001h2.775c.09 0 .15-.08.13-.16l-.45-2.265a.14.14 0 0 0-.13-.11h-2.774a.13.13 0 0 0-.13.16l.45 2.266c.01.06.06.11.13.11m-14.612-.11.45-2.266a.13.13 0 0 0-.13-.16h-2.775a.13.13 0 0 0-.13.11l-.459 2.266c-.02.09.05.16.13.16h2.775c.07 0 .119-.05.139-.11m5.36 0 .449-2.266a.13.13 0 0 0-.13-.16h-2.774a.13.13 0 0 0-.13.11l-.46 2.266c-.02.09.051.16.13.16h2.775c.07 0 .13-.05.14-.11m41.109 18.474a2.51 2.51 0 0 1-2.495-2.795 2.53 2.53 0 0 1 2.256-2.216 2.5 2.5 0 0 1 1.916.64.14.14 0 0 0 .189 0l.719-.72c.06-.05.06-.15 0-.2a3.8 3.8 0 0 0-3.074-.977 3.825 3.825 0 0 0-3.284 3.323 3.796 3.796 0 0 0 6.358 3.224c.06-.05.06-.14 0-.2l-.719-.718c-.049-.05-.129-.05-.189 0a2.52 2.52 0 0 1-1.677.639m8.443 0a2.51 2.51 0 0 1-2.494-2.795 2.525 2.525 0 0 1 2.255-2.216 2.5 2.5 0 0 1 1.916.64c.05.049.14.049.19 0l.719-.72c.06-.05.06-.15 0-.2a3.8 3.8 0 0 0-3.074-.977 3.824 3.824 0 0 0-3.284 3.323 3.799 3.799 0 0 0 6.358 3.224c.06-.05.06-.14 0-.2l-.719-.718c-.05-.05-.13-.05-.19 0a2.48 2.48 0 0 1-1.677.639m-14.071 1.287h-.939a.136.136 0 0 1-.139-.14v-.938c0-.08.06-.14.139-.14h.939c.079 0 .139.06.139.14v.938c-.009.08-.069.14-.139.14m-6.458-7.585a3.812 3.812 0 1 0 0 7.624 3.812 3.812 0 0 0 0-7.624m0 6.327a2.517 2.517 0 0 1-2.515-2.515 2.517 2.517 0 0 1 2.515-2.515 2.517 2.517 0 0 1 2.515 2.515 2.517 2.517 0 0 1-2.515 2.515m-16.688-6.217h-2.734c-.08 0-.14.06-.14.14v7.105c0 .08.06.14.14.14h2.834a3.696 3.696 0 0 0 3.693-3.872c-.1-1.986-1.807-3.513-3.793-3.513m.1 6.197H81.74v-4.99h1.757c1.317 0 2.455 1.168 2.455 2.485 0 1.318-1.138 2.505-2.455 2.505m10.649 1.308h1.038c.1 0 .16-.1.13-.19l-3.124-7.345c-.02-.05-.07-.08-.13-.08h-.718c-.06 0-.1.03-.13.08l-3.124 7.345c-.04.09.03.19.13.19h1.038c.06 0 .1-.03.13-.08l.888-2.096h2.874l.889 2.096c.01.05.06.08.11.08m-3.383-3.354.938-2.205.938 2.206zm-16.109-4.271a3.812 3.812 0 1 0 0 7.624 3.812 3.812 0 0 0 0-7.624m0 6.337a2.517 2.517 0 0 1-2.515-2.515 2.517 2.517 0 0 1 2.515-2.515 2.517 2.517 0 0 1 2.515 2.515 2.505 2.505 0 0 1-2.515 2.515m-6.449-6.297-3.163 3.163-3.164-3.163a.13.13 0 0 0-.1-.04h-.35c-.08 0-.14.06-.14.14v7.345c0 .08.06.14.14.14h1.078c.08 0 .14-.06.14-.14v-4.77l2.296 2.295c.05.05.14.05.19 0l2.295-2.296v4.771c0 .08.06.14.14.14h1.078c.08 0 .139-.06.139-.14v-7.346c0-.08-.06-.14-.14-.14h-.349c-.03 0-.06.02-.09.04" fill="#000"/></g><defs><clipPath id="clip0_266_426"><path fill="#fff" d="M0 0h123.596v46H0z"/></clipPath></defs></svg>