<svg width="250" height="46" fill="none" xmlns="http://www.w3.org/2000/svg"><mask id="a" style="mask-type:luminance" maskUnits="userSpaceOnUse" x="189" y="11" width="56" height="22"><path d="M244.283 11.324h-54.971v21.294h54.971z" fill="#fff"/></mask><g mask="url(#a)" fill="#000"><path d="m193.185 12.922.207-1.067h21.681L212.4 30.662a2.16 2.16 0 0 1-.811 1.421 2.3 2.3 0 0 1-1.5.536h-5.945l2.673-2.755.541-3.939h-11.019l-1.322 6.694h-5.705zm3.694 10.19h10.899l.391-2.813H197.45zm1.11-5.628h10.569l.42-2.813h-10.416zm36.267-4.797-.209 1.42h2.852l.24-1.748-1.022-1.035h5.673l-.391 2.784h2.882l-.391 2.813h-2.913l-.3 2.25h2.311l-.39 2.814h-2.344l-.299 2.387h2.372l-.421 2.842h-2.342l-.33 2.192h2.943l-.491 3.152h-10.269.011-4.623l2.342-16.498-1.141.296.48-3.376 5.975-1.63zm-15.011 5.272 3.872-5.864.493-.74h5.122l-4.354 6.604h3.422l-4.384 6.753h3.422l-.42 2.874h-8.557l.419-2.873 2.673-3.939h-2.099zm6.635 14.036-8.647.032.421-2.813 8.617-.032zm7.446-12.824h2.851l.301-2.25h-2.822zm-1.411 10.235h2.822l.3-2.192h-2.823zm.72-5.034h2.822l.301-2.387h-2.822z"/></g><path d="m74.25 26.436-5.565-7.06v13.226h-4.404V11.267h2.797l7.85 9.764 7.137-9.764h2.696v21.335h-4.47V20.153l-4.339 6.048zm23.11 6.372q-3.926 0-6.13-2.35c-1.47-1.566-2.202-3.662-2.202-6.3 0-2.615.768-4.694 2.303-6.248q2.305-2.332 6.298-2.332c2.755 0 4.886.806 6.404 2.414 1.511 1.608 2.273 3.722 2.273 6.336q-.001 3.923-2.458 6.2c-1.637 1.52-3.803 2.28-6.487 2.28Zm4.375-8.48q.001-2.33-1.041-3.662-1.044-1.336-2.952-1.337-1.946 0-3.042 1.183c-.726.79-1.095 1.99-1.095 3.616 0 1.625.316 2.85.94 3.68.625.837 1.59 1.249 2.887 1.249q1.911 0 3.107-1.13c.798-.755 1.196-1.95 1.196-3.599m15.773 8.48q-3.927 0-6.13-2.35c-1.47-1.566-2.203-3.662-2.203-6.3 0-2.615.768-4.694 2.304-6.248q2.304-2.332 6.297-2.332c2.755 0 4.886.806 6.404 2.414 1.512 1.608 2.274 3.722 2.274 6.336q-.002 3.923-2.458 6.2-2.463 2.28-6.488 2.28m4.369-8.48q.001-2.33-1.042-3.662-1.042-1.336-2.952-1.337-1.945 0-3.041 1.183c-.727.79-1.096 1.99-1.096 3.616q.002 2.436.941 3.68c.625.837 1.589 1.249 2.886 1.249q1.911 0 3.107-1.13c.798-.755 1.197-1.95 1.197-3.599m11.778-6.548c.75-.742 1.69-1.33 2.815-1.755 1.125-.43 2.137-.642 3.024-.642 2.256 0 3.851.654 4.797 1.961s1.416 2.903 1.416 4.8v10.27h-4.44V22.337q0-1.557-.749-2.38-.748-.83-2.185-.83-.955.001-1.999.49c-.697.323-1.328.706-1.893 1.13V32.4h-4.44V16.02h2.321zm20.588 14.622-6.35-15.776 4.577-.607 3.82 9.935 3.62-9.934h4.677l-6.523 16.382zm15.844.778.785-1.927-5.904-14.627 4.577-.607 3.82 9.935 3.62-9.934h4.677l-7.409 18.543q-.786 1.995-2.768 3.41c-1.322.947-2.708 1.59-4.167 1.925l-1.571-3.616a30 30 0 0 0 2.541-1.23c.905-.477 1.501-1.107 1.799-1.873Z" fill="#090b10"/><path d="M22.857 15.632c12.446-7.073 24.35-9.687 26.587-5.836l-.004.002c2.643 4.598-5.282 14.043-17.72 21.109-12.441 7.066-24.674 9.088-27.354 4.51-2.238-3.851 6.046-12.713 18.491-19.785" fill="#6357ff"/><path d="M42.195 25.547c-1.071 4.081-3.744 7.75-7.731 10.017a16.6 16.6 0 0 1-12.559 1.584c3.369-1.19 6.934-2.815 10.505-4.846 3.684-2.096 6.994-4.405 9.785-6.755" fill="#3830a6"/><path d="m41.183 14.536-28.51 16.211c-.07-.123-.148-.247-.22-.37a16.3 16.3 0 0 1-1.357-3.003 15.9 15.9 0 0 1-.803-5.943q.07-1.386.381-2.738a16.26 16.26 0 0 1 7.85-10.529 16.56 16.56 0 0 1 15.725-.353c1.78.907 3.41 2.138 4.785 3.675a16.6 16.6 0 0 1 1.94 2.679q.11.186.21.37Z" fill="#4138c2"/><path d="M41.153 14.49c1.334 2.296-3.97 7.784-11.844 12.26-7.874 4.475-15.338 6.241-16.67 3.945z" fill="#3830a6"/><path d="M16.745 28.362c-3.226-5.553-1.292-12.643 4.321-15.834 5.613-3.192 12.779-1.278 16.005 4.275l-20.326 11.56Z" fill="#f8f8ff"/><path d="M16.745 28.362c.756 1.296 5.916-.235 11.528-3.427 5.613-3.191 9.553-6.83 8.803-8.126z" fill="#e4e4f5"/></svg>