<svg width="46" height="46" fill="none" xmlns="http://www.w3.org/2000/svg"><mask id="mask0_186_8161" style="mask-type:luminance" maskUnits="userSpaceOnUse" x="6" y="6" width="35" height="35"><path d="M6.045 23.28c0 9.548 7.839 17.31 17.448 17.31 9.623 0 17.462-7.762 17.462-17.31C40.955 13.762 33.116 6 23.507 6 13.883 6 6.045 13.762 6.045 23.28" fill="#fff"/></mask><g mask="url(#mask0_186_8161)"><path d="M6.045 6h34.91v34.59H6.045z" fill="url(#paint0_radial_186_8161)"/></g><mask id="mask1_186_8161" style="mask-type:luminance" maskUnits="userSpaceOnUse" x="6" y="6" width="35" height="35"><path d="M40.97 23.34c0 9.577-7.824 17.339-17.477 17.339C13.824 40.679 6 32.917 6 23.339S13.824 6 23.478 6C33.13 6 40.97 13.762 40.97 23.34" fill="#fff"/></mask><g mask="url(#mask1_186_8161)"><path fill-rule="evenodd" clip-rule="evenodd" d="M46.533 18.558c-4.03-.679-15.157-6.67-26.15 3.94l-.178 3.32c2.559-4.648 9.475-12.085 26.328-7.26" fill="#ed9614"/></g><mask id="mask2_186_8161" style="mask-type:luminance" maskUnits="userSpaceOnUse" x="6" y="6" width="35" height="35"><path d="M40.97 23.34c0 9.577-7.824 17.339-17.477 17.339C13.824 40.679 6 32.917 6 23.339S13.824 6 23.478 6C33.13 6 40.97 13.762 40.97 23.34" fill="#fff"/></mask><g mask="url(#mask2_186_8161)"><path fill-rule="evenodd" clip-rule="evenodd" d="M11.95 4.76c2.886 4 16.124 14.566 6.44 35.078l-4.045-.65S28.297 25.051 11.95 4.76" fill="#ed9614"/></g><mask id="mask3_186_8161" style="mask-type:luminance" maskUnits="userSpaceOnUse" x="6" y="6" width="35" height="35"><path d="M40.97 23.34c0 9.577-7.824 17.339-17.477 17.339C13.824 40.679 6 32.917 6 23.339S13.824 6 23.478 6C33.13 6 40.97 13.762 40.97 23.34" fill="#fff"/></mask><g mask="url(#mask3_186_8161)"><path fill-rule="evenodd" clip-rule="evenodd" d="M11.965 4.878c2.692 4.118 15.425 15.289 4.804 35.329l-4.001-.827c-.015 0 14.592-13.488-.803-34.502" fill="#fff"/></g><mask id="mask4_186_8161" style="mask-type:luminance" maskUnits="userSpaceOnUse" x="6" y="6" width="35" height="35"><path d="M41 23.34c0 9.577-7.824 17.339-17.478 17.339-9.653 0-17.492-7.762-17.492-17.34S13.854 6 23.507 6 41 13.762 41 23.34" fill="#fff"/></mask><g mask="url(#mask4_186_8161)"><path fill-rule="evenodd" clip-rule="evenodd" d="M46.638 18.337c-4.076-.443-15.5-5.83-25.912 5.357v3.335c2.306-4.782 8.806-12.588 25.912-8.692" fill="#fff"/></g><defs><radialGradient id="paint0_radial_186_8161" cx="0" cy="0" r="1" gradientUnits="userSpaceOnUse" gradientTransform="matrix(40.9425 0 0 40.6186 10.652 11.204)"><stop stop-color="#fff100"/><stop offset=".003" stop-color="#fff100"/><stop offset="1" stop-color="#dd0010"/></radialGradient></defs></svg>