<svg width="141" height="46" fill="none" xmlns="http://www.w3.org/2000/svg"><g clip-path="url(#clip0_266_410)" fill-rule="evenodd" clip-rule="evenodd"><path d="M21.178 18.567 12.97 9.566q1.212-2.42 3.267-4.49Q21.275 0 28.415 0t12.177 5.076q5.012 5.05 5.012 12.176 0 7.128-5.012 12.176-5.039 5.076-12.177 5.076V24.61q2.978 0 5.093-2.132 2.143-2.158 2.143-5.225t-2.143-5.225q-2.115-2.13-5.094-2.131t-5.093 2.131q-2.143 2.16-2.143 5.225z" fill="url(#paint0_linear_266_410)"/><path d="M11.226 25.677V46h.754c5.08 0 9.198-4.094 9.198-9.145V34.14q-1.95-.84-4.019-2.59-3.684-3.12-5.933-5.874" fill="url(#paint1_linear_266_410)"/><path d="M1.71 10.115 0 11.66l13.982 15.31 2.18 2.392.075.076q5.038 5.076 12.178 5.076t12.177-5.076q5.012-5.05 5.012-12.176H35.65q0 3.066-2.143 5.225-2.115 2.13-5.094 2.131-2.931 0-5.027-2.065l-6.679-7.33-.005.005-4.197-4.596c-2.838-3.106-7.67-3.338-10.795-.517" fill="url(#paint2_linear_266_410)"/><path d="M80.464 13.14a2.56 2.56 0 0 0 2.572 2.55 2.56 2.56 0 0 0 2.571-2.55 2.56 2.56 0 0 0-2.571-2.552 2.56 2.56 0 0 0-2.572 2.552m-3.568 9.938q.846-1.509.845-3.333 0-1.97-.874-3.493-.867-1.524-2.617-2.385Q72.51 13 69.98 13h-8.34v22.2c2.84 0 5.144-2.291 5.144-5.118V26.44h3.197q2.586 0 4.328-.926 1.75-.927 2.587-2.436m-5.115-1.386q-.72.686-2.197.686h-2.8V17.12h2.8q1.476 0 2.197.685.728.686.728 1.94t-.728 1.947m37.978 12.809q1.793.775 4.085.775 2.131 0 3.748-.684 1.618-.685 2.476-1.887.866-1.2.866-2.73-.03-1.802-.958-2.876-.92-1.08-2.146-1.559-1.227-.486-3.173-.981-1.695-.372-2.499-.745-.797-.382-.797-1.126 0-.624.498-.981.506-.358 1.448-.358 1.097 0 1.771.533c.767.59 1.528 1.43 2.497 1.43h3.267q-.284-2.678-2.184-4.298-1.894-1.62-5.19-1.62-2.23 0-3.847.715-1.617.716-2.453 1.947a4.8 4.8 0 0 0-.828 2.723q0 1.78.905 2.822a5.5 5.5 0 0 0 2.169 1.529q1.257.48 3.142.913 1.756.441 2.537.798.79.358.79 1.103 0 .624-.552 1.02-.545.387-1.548.387-1.104 0-1.855-.562c-.798-.598-1.607-1.468-2.606-1.468h-3.549a5.6 5.6 0 0 0 1.157 3.042q1.043 1.354 2.829 2.138M85.607 20.44a2.98 2.98 0 0 0-2.99-2.975h-2.153v17.81h5.142zm12.647 13.226-2.181-3.427-2.234 3.448c-.59.912-1.606 1.586-2.697 1.586h-3.898l5.975-9.149-5.975-8.654h3.948c1.098 0 2.119.558 2.708 1.48l2.173 3.4 2.24-3.428a3.21 3.21 0 0 1 2.689-1.452h3.903l-6.065 8.902 6.065 8.901h-3.941c-1.099 0-2.122-.683-2.71-1.607m39.853-13.583q-2.627-2.607-6.343-2.607-3.715 0-6.343 2.607-2.627 2.607-2.627 6.293t2.627 6.293 6.343 2.606 6.343-2.607q2.628-2.606 2.628-6.292t-2.628-6.293m-9.134 3.524q1.157-1.147 2.791-1.147 1.635 0 2.791 1.147 1.156 1.146 1.156 2.769 0 1.621-1.156 2.768t-2.791 1.147q-1.634 0-2.791-1.147-1.155-1.146-1.155-2.768 0-1.623 1.155-2.77" fill="#000"/></g><defs><linearGradient id="paint0_linear_266_410" x1="35.999" y1="16.423" x2="23.505" y2="28.529" gradientUnits="userSpaceOnUse"><stop offset=".108" stop-color="#ff68cf"/><stop offset=".323" stop-color="#ea61e6"/><stop offset=".572" stop-color="#cc51ff"/><stop offset="1" stop-color="#7936ff"/></linearGradient><linearGradient id="paint1_linear_266_410" x1="16.202" y1="23.687" x2="16.202" y2="47.268" gradientUnits="userSpaceOnUse"><stop offset=".092" stop-color="#7c2fff"/><stop offset=".996" stop-color="#33c9ff"/></linearGradient><linearGradient id="paint2_linear_266_410" x1="31.023" y1="19.37" x2="3.706" y2="8.142" gradientUnits="userSpaceOnUse"><stop offset=".05" stop-color="#ff68cf"/><stop offset=".995" stop-color="#ff9059"/></linearGradient><clipPath id="clip0_266_410"><path fill="#fff" d="M0 0h140.874v46H0z"/></clipPath></defs></svg>