<svg width="51" height="46" fill="none" xmlns="http://www.w3.org/2000/svg"><g clip-path="url(#clip0_316_70)"><mask id="mask0_316_70" style="mask-type:luminance" maskUnits="userSpaceOnUse" x="0" y="0" width="51" height="46"><path d="M50.119 0H.879v45.979h49.24z" fill="#fff"/></mask><g mask="url(#mask0_316_70)"><path d="M30.652 25.288 27.217 0h-.257C14.47.037 4.351 10.193 4.315 22.732v.257z" fill="#ed6c47"/><path d="M27.473 0h-.256v22.99l11.45 4.597L50.12 22.99v-.257C50.082 10.192 39.965.037 27.473 0" fill="#ff8f6b"/><path d="M50.119 22.99v.252c-.036 12.542-10.156 22.7-22.65 22.737h-.504c-12.494-.036-22.614-10.195-22.65-22.737v-.253z" fill="#d35230"/><path opacity=".1" d="M28.362 11.3v24.529a2.116 2.116 0 0 1-2.096 2.103H9.72c-.32-.367-.63-.758-.916-1.15a22.6 22.6 0 0 1-4.49-13.54v-.506a22.54 22.54 0 0 1 3.688-12.39c.252-.392.515-.782.802-1.15h17.462a2.116 2.116 0 0 1 2.096 2.103" fill="#000"/><path opacity=".2" d="M27.217 12.449v24.53c0 .272-.055.541-.16.792a2.11 2.11 0 0 1-1.936 1.31h-14.36a20 20 0 0 1-1.041-1.149 18 18 0 0 1-.916-1.149 22.6 22.6 0 0 1-4.49-13.54v-.507a22.54 22.54 0 0 1 3.688-12.39h17.12a2.116 2.116 0 0 1 2.095 2.103" fill="#000"/><path opacity=".2" d="M27.217 12.449v22.23a2.116 2.116 0 0 1-2.096 2.104H8.804a22.6 22.6 0 0 1-4.49-13.54v-.506a22.54 22.54 0 0 1 3.688-12.392h17.12a2.116 2.116 0 0 1 2.095 2.104" fill="#000"/><path opacity=".2" d="M26.072 12.449v22.23a2.116 2.116 0 0 1-2.096 2.104H8.804a22.6 22.6 0 0 1-4.49-13.54v-.506a22.54 22.54 0 0 1 3.688-12.392h15.974a2.116 2.116 0 0 1 2.096 2.104" fill="#000"/><path d="M2.978 10.345h20.995c1.159 0 2.099.944 2.099 2.107v21.074c0 1.164-.94 2.107-2.1 2.107H2.979A2.103 2.103 0 0 1 .88 33.527V12.452c0-1.163.94-2.107 2.098-2.107" fill="url(#paint0_linear_316_70)"/><path d="M13.705 15.965a5.76 5.76 0 0 1 3.822 1.124 4.03 4.03 0 0 1 1.33 3.257 4.54 4.54 0 0 1-.655 2.433 4.4 4.4 0 0 1-1.864 1.653 6.3 6.3 0 0 1-2.802.59h-2.655v4.955H8.16V15.965zm-2.826 6.918h2.34a3.03 3.03 0 0 0 2.07-.62c.488-.47.744-1.135.7-1.813q0-2.316-2.683-2.316H10.88z" fill="#fff"/></g></g><defs><linearGradient id="paint0_linear_316_70" x1="5.256" y1="8.699" x2="21.789" y2="37.225" gradientUnits="userSpaceOnUse"><stop stop-color="#ca4c28"/><stop offset=".5" stop-color="#c5401e"/><stop offset="1" stop-color="#b62f14"/></linearGradient><clipPath id="clip0_316_70"><path fill="#fff" d="M.88 0h49.239v46H.879z"/></clipPath></defs></svg>