<svg width="173" height="46" fill="none" xmlns="http://www.w3.org/2000/svg"><path d="M20.125 33.35h.122q-.121.846-.122 1.725c0 1.837.41 3.579 1.144 5.138q-.568.036-1.144.037c-9.527 0-17.25-7.723-17.25-17.25s7.723-17.25 17.25-17.25 17.25 7.723 17.25 17.25q0 .577-.037 1.144A12 12 0 0 0 32.2 23q-.88.001-1.726.122l.001-.122c0-5.716-4.634-10.35-10.35-10.35S9.775 17.284 9.775 23s4.634 10.35 10.35 10.35" fill="#15a675"/><path d="M32.2 40.25a5.175 5.175 0 1 0 0-10.35 5.175 5.175 0 0 0 0 10.35" fill="#15a675"/><path fill-rule="evenodd" clip-rule="evenodd" d="M67.018 31.314c1.996-2.07 3.055-5.04 3.055-8.449h.023c0-6.389-3.66-11.365-10.592-11.365s-10.629 4.976-10.629 11.365S52.572 34.23 59.504 34.23a10.9 10.9 0 0 0 5.083-1.135l1.775 2.949h3.586zm-7.971-7.4 3.733 6.206a6.65 6.65 0 0 1-3.294.76c-4.733 0-6.822-3.681-6.822-8.015s2.112-7.997 6.817-7.997c4.704 0 6.788 3.686 6.788 8.02a9.57 9.57 0 0 1-1.275 5.126l-2.523-4.1z" fill="#3e3d49"/><path d="M76.011 11.5h-3.614v3.345h3.614zm-.06 22.33H72.43V18.193h3.521zm14.359 0v-9.115c0-2.547-1.184-3.837-3.522-3.837-2.523 0-4.113 2.12-4.113 4.557v8.394h-3.521V18.194h3.396v1.509h.749c.924-1.199 2.463-1.905 4.58-1.905 3.955 0 5.952 2.365 5.952 6.266v9.765z" fill="#3e3d49"/><path fill-rule="evenodd" clip-rule="evenodd" d="M111.484 18.195v14.869c0 4.424-3.022 7.186-7.662 7.186-4.21 0-7.043-1.75-7.394-5.035h3.489c.342 1.563 1.715 2.178 3.863 2.178 2.99 0 4.206-1.823 4.206-4.557v-1.062h-.79c-.744 1.075-2.149 1.905-4.423 1.905-4.33 0-6.978-3.381-6.978-7.925 0-4.543 2.731-7.938 6.996-7.938 2.367 0 3.832.912 4.548 1.905h.748v-1.526zm-3.397 7.56c0-2.707-1.464-5.013-4.422-5.013-2.74 0-4.33 2.055-4.33 5.012 0 2.958 1.59 4.977 4.33 4.977 2.958 0 4.422-2.306 4.422-4.977" fill="#3e3d49"/><path d="M118.619 11.5h-3.521v22.334h3.521zm47.484 22.33v-9.115c0-2.547-1.183-3.837-3.52-3.837-2.525 0-4.114 2.12-4.114 4.557v8.394h-3.521V18.194h3.397v1.509h.747c.925-1.199 2.464-1.905 4.58-1.905 3.956 0 5.953 2.365 5.953 6.266v9.765z" fill="#3e3d49"/><path fill-rule="evenodd" clip-rule="evenodd" d="M145.182 34.253c4.981 0 8.004-3.44 8.004-8.234 0-4.758-3.019-8.203-8.004-8.203-4.987 0-8.01 3.432-8.01 8.203s3.027 8.234 8.01 8.234m0-13.484c3.095 0 4.482 2.516 4.482 5.25 0 2.798-1.382 5.286-4.482 5.286-3.102 0-4.488-2.552-4.488-5.286s1.391-5.25 4.488-5.25" fill="#3e3d49"/><path d="M128.851 34.19c3.858 0 6.537-2.179 7.046-5.401l-3.537.026a3.02 3.02 0 0 1-1.236 1.907 3.17 3.17 0 0 1-2.247.546c-3.147 0-4.407-2.506-4.407-5.298s1.219-5.219 4.407-5.219a3.24 3.24 0 0 1 2.09.512 3.1 3.1 0 0 1 1.273 1.693h3.523c-.469-3.053-2.987-5.14-6.912-5.14-4.983 0-7.944 3.366-7.944 8.154s2.961 8.22 7.944 8.22" fill="#3e3d49"/></svg>