<svg width="46" height="46" fill="none" xmlns="http://www.w3.org/2000/svg"><path d="M23.33 5c7.35 0 13.502 5.594 14.328 12.928l-.011-.075.088.033c4.222 1.631 7.122 5.688 7.26 10.335l.004.161.001.186C45 34.88 39.943 40 33.704 40h-3.587a2.44 2.44 0 0 1-1.72-.724 2.45 2.45 0 0 1-.708-1.733c0-1.358 1.088-2.458 2.428-2.458h3.587c3.557 0 6.44-2.918 6.44-6.517s-2.884-6.516-6.44-6.516q-.617 0-.962.077.151-.76.152-2.535c0-5.345-4.282-9.679-9.565-9.679-5.125 0-9.333 4.089-9.555 9.25l-.018.458-.439-.111-4.038-1.026-.279-.07v-.448l.002-.042c.815-7.245 6.837-12.804 14.092-12.924L23.326 5z" fill="#0d53ff"/><path d="M12.362 17c6.274 0 11.361 5.15 11.361 11.5 0 .964-.118 1.923-.354 2.857a2.47 2.47 0 0 1-1.12 1.515 2.44 2.44 0 0 1-1.86.272 2.47 2.47 0 0 1-1.502-1.142 2.5 2.5 0 0 1-.263-1.874 6.6 6.6 0 0 0 .2-1.627c0-3.614-2.893-6.543-6.462-6.543S5.899 24.887 5.899 28.5s2.893 6.542 6.463 6.542h11.19c1.35 0 2.448 1.11 2.448 2.48a2.48 2.48 0 0 1-.714 1.748 2.46 2.46 0 0 1-1.736.73H12.363C6.087 40 1 34.85 1 28.5S6.087 17 12.362 17" fill="url(#paint0_linear_314_60)"/><defs><linearGradient id="paint0_linear_314_60" x1=".824" y1="17.038" x2="26.259" y2="40.262" gradientUnits="userSpaceOnUse"><stop offset=".273" stop-color="#00bdff"/><stop offset="1" stop-color="#00fd35"/></linearGradient></defs></svg>