<svg width="93" height="46" fill="none" xmlns="http://www.w3.org/2000/svg"><g clip-path="url(#clip0_668_855)" fill-rule="evenodd" clip-rule="evenodd"><path d="M0 46h47.002L93 0H0z" fill="url(#paint0_linear_668_855)"/><path d="m55.191 8.648-9.161-.027v21.765L38.042 8.62h-7.93L23.28 26.827c-.727-4.593-5.471-6.176-9.21-7.365-2.463-.793-5.083-1.957-5.06-3.245.023-1.054 1.402-2.037 4.148-1.909 1.838.101 3.466.248 6.684 1.808l3.179-5.536a24.7 24.7 0 0 0-10.356-2.434c-3.896 0-7.16 1.265-9.156 3.341a7.72 7.72 0 0 0-2.191 5.337 7.16 7.16 0 0 0 3.142 6.391c1.83 1.34 4.167 2.21 6.207 2.865 2.544.788 4.616 1.475 4.593 2.93a2.16 2.16 0 0 1-.6 1.433c-.635.653-1.605.898-2.95.925-2.593.053-4.516-.352-7.582-2.163L1.302 34.82a21.2 21.2 0 0 0 10.355 2.758h.477c3.213-.057 5.805-.955 7.877-2.64.12-.096.23-.19.34-.286l-.922 2.45h8.318l1.398-4.244c1.575.525 3.225.786 4.884.772 1.62.012 3.232-.236 4.774-.73l1.348 4.2h13.557v-8.784h2.962c7.162 0 11.382-3.641 11.382-9.741.004-6.806-4.108-9.925-12.856-9.925zm-21.16 18.616a8.4 8.4 0 0 1-2.931-.51l2.902-9.155h.052l2.865 9.18a8.7 8.7 0 0 1-2.888.492zm21.699-5.25h-2.02v-7.378h2.02c2.686 0 4.836.894 4.836 3.637s-2.15 3.737-4.836 3.737" fill="#fff"/></g><defs><linearGradient id="paint0_linear_668_855" x1="46.5" y1="0" x2="46.5" y2="45.998" gradientUnits="userSpaceOnUse"><stop stop-color="#00b8f1"/><stop offset=".02" stop-color="#01b6f0"/><stop offset=".31" stop-color="#0d90d9"/><stop offset=".58" stop-color="#1775c8"/><stop offset=".82" stop-color="#1c65bf"/><stop offset="1" stop-color="#1e5fbb"/></linearGradient><clipPath id="clip0_668_855"><path fill="#fff" d="M0 0h93v46H0z"/></clipPath></defs></svg>