<svg width="176" height="46" fill="none" xmlns="http://www.w3.org/2000/svg"><g clip-path="url(#clip0_210_8100)" fill-rule="evenodd" clip-rule="evenodd"><path d="M40.02 11.446c-4.443 8.457-6.308 19.692-10.66 26.742-5.944 9.345-17.584 9.606-24.327 3.615C.146 37.393.06 32.728.146 26.645c0-5.29.356-10.178 2.844-14.582C5.382 7.651 10.714 1.66 21.724.604c.333-.031.69-.048 1.054-.048h.095c2.02 0 4.411.387 6.487 1.196 3.288 1.412 7.73 4.048 10.66 9.694" fill="#ff5aa3"/><path d="M75.01 41.804c-6.754 5.99-18.386 5.729-24.337-3.618-4.349-7.046-6.216-18.283-10.653-26.742 2.93-5.644 7.375-8.28 10.653-9.692A18.6 18.6 0 0 1 57.161.556c.404 0 .784.017 1.15.046 11.02 1.058 16.34 7.049 18.741 11.458 2.488 4.406 2.844 9.292 2.844 14.582.085 6.085 0 10.752-4.887 15.162" fill="#00eff5"/><path d="M57.161.556c-2.02 0-4.412.387-6.488 1.196C47.395 3.164 42.95 5.8 40.02 11.446 37.093 5.8 32.647 3.164 29.36 1.752A18.6 18.6 0 0 0 22.873.556s6.622-.46 17.146-.46c10.388 0 17.143.46 17.143.46" fill="#395ae5"/><path d="m118.651 15.306 2.245 1.11.005.002c.194.084.404.128.616.127a1.45 1.45 0 0 0 1.286-.725l4.678-8.75a.34.34 0 0 0 .021-.277.4.4 0 0 0-.207-.22l-2.248-1.112c-.707-.309-1.56-.041-1.903.598l-4.677 8.75a.34.34 0 0 0-.021.277.37.37 0 0 0 .205.22m-14.515 0-2.246 1.11-.002.002a1.5 1.5 0 0 1-.617.127 1.45 1.45 0 0 1-1.286-.725l-4.677-8.75a.34.34 0 0 1 .057-.408.4.4 0 0 1 .127-.088l2.25-1.113c.704-.309 1.557-.041 1.902.598l4.678 8.75a.34.34 0 0 1 .021.277.4.4 0 0 1-.207.22m71.339-9.771a.36.36 0 0 0-.299-.155h-31.401a.807.807 0 0 0-.809.807v12.378c0 7.065-.556 15.046-4.675 20.686a.36.36 0 0 0-.064.29.37.37 0 0 0 .174.24l3.128 1.799a.366.366 0 0 0 .492-.121c3.538-5.692 4.98-12.324 4.98-22.892V9.633a.23.23 0 0 1 .23-.228h25.911c.648 0 1.234-.41 1.457-1.018l.92-2.518a.36.36 0 0 0-.044-.334" fill="#000"/><path d="m130.962 35.583-2.773-1.61a.36.36 0 0 0-.337-.016.37.37 0 0 0-.206.267c-.485 2.666-1.228 3.302-2.267 3.46-1.501.235-3.55.235-4.769 0-1.248-.23-1.966-1.44-1.966-3.318V22.908h9.922c.65 0 1.236-.41 1.457-1.018l.837-2.284a.368.368 0 0 0-.345-.49h-16.991V4.361a.4.4 0 0 0-.029-.14.35.35 0 0 0-.198-.195.4.4 0 0 0-.139-.027h-3.54a.36.36 0 0 0-.337.222.4.4 0 0 0-.029.14v14.757H92.481a.366.366 0 0 0-.364.364v3.063c0 .2.163.364.364.364h11.178c-.594 7.536-4.18 12.343-11.617 15.581a.36.36 0 0 0-.138.567l2.139 2.568a.366.366 0 0 0 .433.098c4.048-1.84 6.9-3.93 8.97-6.574 2.454-3.13 3.874-7.134 4.342-12.24h6.917v12.207c0 3.443 1.997 5.865 5.089 6.17 1.711.17 3.555.17 5.98 0 4.103-.284 4.789-2.902 5.393-5.213a.44.44 0 0 0-.019-.278.45.45 0 0 0-.186-.21" fill="#000"/></g><defs><clipPath id="clip0_210_8100"><path fill="#fff" d="M0 0h175.636v46H0z"/></clipPath></defs></svg>