<svg width="179" height="46" fill="none" xmlns="http://www.w3.org/2000/svg"><g clip-path="url(#clip0_572_2081)"><path d="M0 16.79h5.367c0-.97.812-2.805 2.895-2.805.83 0 .965.17 2.015-.05 1.37-.46 1.997-1.258 2.285-1.904 0 0 .542 2.277-1.625 3.467-1.22.662-3.098.136-3.098.136s-1.507-.221-1.693 1.138c.846 0 2.167.867 2.167 2.345v12.507c0 .9.728 1.835 1.828 1.835a1.82 1.82 0 0 0 1.812-1.835v-8.785c0-12.966 10.039-18.353 15.897-18.778 4.842-.356 8.092.068 14.018-4.095 0 0-1.863 7.256-10.226 9.006-1.558.323-6.162-.22-10.53 4.334-3.437 3.585-3.81 6.916-3.81 11.3v7.732c0 3.381-2.708 6.797-6.84 6.797-4.13 0-6.822-3.195-6.822-6.797V19.219c0-1.087-.779-2.073-1.998-2.073H0v-.39z" fill="#e60012"/><path d="M4.706 38.32s4.402 4.468 10.192 1.087c3.843-2.243 3.945-6.882 3.945-6.882v-10.4s-.152-5.234 4.537-8.955c3.285-2.6 6.298-2.43 8.414-2.685 5.367-.663 7.72-4.062 7.72-4.062.068.595-.525 6.832-7.229 8.599-1.354.357-8.736-.357-8.736 8.207v10.298c0 2.158-.524 5.965-4.57 8.667-4.132 2.752-10.853 2.328-14.29-3.909" fill="#e60012"/><path d="M10.903 44.81c6.552 1.836 14.085-2.77 14.085-10.433V25.37c0-2.634 2.185-6.135 6.13-6.135s6.11 3.738 6.11 6.135c0 1.529-.592 4.554-3.453 4.554-2.268 0-3.707-2.328-3.013-4.215-.153.646.186 1.258.863 1.258s1.016-.612.897-1.393c-.017-.17-.22-1.598-1.794-1.598-1.338 0-1.778 1.224-1.778 1.818v8.021c0 8.598-9.328 14.937-18.047 11.011" fill="#e60012"/><path d="M62.048 29.126h-2.523l-2.167 9.686h2.506zm33.318 0h-2.522l-2.15 9.686h2.505zm-27.985 5.132H65.52l.745-3.79h1.811zm2.032-5.149h-5.384l-2.184 9.686h2.506l.694-3.076c.44 0 .542.357.542.357l.71 2.719h2.49l-.949-3.246c1.355 0 1.575-.951 1.575-.951l.999-4.384c.034-.221 0-.408 0-.408-.119-.765-.982-.697-1.016-.697m11.664 3.908h-2.488l.49-2.192s.136-.39-.321-.39h-1.253s-.27-.017-.356.254l-1.422 6.407s-.084.408.39.408h1.1s.322.085.406-.323l.39-1.666h2.573l-.525 2.193s-.372 1.087-1.71 1.087h-3.961s-1.033-.085-.948-1.393l1.54-6.95s.34-1.343 1.406-1.343h4.25s1.184 0 .846 1.733a515 515 0 0 1-.407 2.175m7.246-3.891-.88 3.925h-1.862l.88-3.925h-2.522l-2.15 9.686h2.505l1.016-4.537h1.862l-.999 4.537h2.506l2.15-9.686zm13.358 0-1.134 5.387-.88-5.387h-2.337l-2.015 9.686h2.337l1.066-5.098.948 5.098h2.337L104 29.126zm-47.725 4.095H52.16l.626-2.668H54.6zm-1.795-4.095c-1.371 0-1.727 1.53-1.727 1.53l-1.998 8.156h2.438l1.1-4.367h1.761l-.338 1.41-.711 2.957h2.59l2.184-9.686zm56.986 4.095h-1.777l.626-2.668h1.812zm-1.811-4.095c-1.372 0-1.727 1.53-1.727 1.53l-1.998 8.156h2.438l1.101-4.367h1.76l-.338 1.41-.711 2.957h2.59l2.184-9.686h-5.316z" fill="#000"/><path d="M177.104 33.833s-.017.187-.102.527a6 6 0 0 1-.118.595l-.187.357-.084.254-.119.17s-.051.068-.084.187c-.051.12-.237.323-.542.612a4 4 0 0 1-.61.493l-.186.068-.186.119-.288.068-.491.136h-.22l-.305.119h-.254l-.372-.017c-.373-.017-.626-.051-.796-.068a3.6 3.6 0 0 1-.643-.255l-.61-.29c-.084-.05-.186-.067-.203-.118l-.186-.12-.237-.169-.406-.425c-.254-.238-.373-.357-.407-.357 0 0-.017-.068-.101-.238l-.322-.594-.135-.595-.068-.238s-.017-.136-.017-.306v-.595s-.051-.17-.017-.373c0-.238.017-.425.068-.561.051-.17.135-.374.288-.663.118-.289.186-.476.203-.51l.203-.357c.135-.238.237-.373.288-.424l.355-.357c.187-.17.322-.306.424-.357l.66-.357c.203-.119.355-.187.372-.204.051 0 .22-.017.525-.068.305-.017.474-.05.491-.05 0 .016.102.016.288.05h.051l.254.051.491.136.321.068.17.102.406.136s.068.068.186.17l.61.39.254.256c.135.136.237.237.321.305.068.069.186.29.373.612.186.323.321.544.372.629l.169.612c.085.357.136.51.136.56v.425l.017.425zm1.845-1.257v-.612s-.101-.187-.186-.476a5 5 0 0 0-.203-.544l-.17-.238-.254-.611-.186-.17-.169-.238-.254-.221-.186-.204-.136-.085-.372-.323-.237-.068-.593-.306-.982-.255c-.084-.034-.135-.05-.169-.102l-.203-.203s-.186-.017-.474-.017l-.423-.068a2.6 2.6 0 0 0-.525 0h-.288l-.593.068c-.423.017-.744.102-1.015.17l-.847.288c-.406.12-.779.357-1.168.68-.372.357-.677.629-.88.85-.187.238-.373.476-.525.697a4 4 0 0 0-.356.9l-.288.816c-.118.289-.169.476-.169.543v.357l-.084.697v.39c0 .239.016.409.05.528l.187.51.067.373.187.374c.067.136.118.204.118.204l.186.204.17.323s.084.119.237.204l.287.255c.17.187.373.323.593.425l.626.305q.356.204.407.204c.017 0 .203.051.558.085l1.287.238h.322l.169.068c.017.017.186-.017.474-.085.102-.017.22-.05.356-.068l.626-.102c.102 0 .322-.068.728-.204l.559-.187.846-.424c.356-.17.542-.255.593-.29.017-.05.203-.203.558-.543.356-.323.542-.493.542-.51q.026 0 .254-.357c.169-.238.254-.357.288-.407l.051-.136.237-.476s.017-.085.067-.29l.22-.61c.051-.137.068-.256.068-.375v-.323l.068-.203c0-.017-.017-.17-.051-.476m-30-.187c-.186.119-.355.17-.474.136a.33.33 0 0 1-.203-.068l-.372-.357-.119-.068-.203-.085-.423-.238h-.44l-.17-.017-.186.068-.288.051-.711.255c-.118-.068-.169-.12-.169-.187.017-.068.017-.136.017-.187.017-.068.101-.187.186-.374l.423-1.36c.102-.254.187-.424.322-.492s.254-.119.406-.119h.051l.491.068c.339.017.559.068.677.102.051 0 .068 0 .102.017l.186.085.491.068.322.085.406.05.305.17.118.069s.068.05.136.119l.254.204c.169.17.254.373.254.628s-.102.493-.254.714q-.28.357-.356.357c-.051.034-.135.05-.288.068-.135.034-.304.119-.508.238m3.911 4.554s-.135.034-.254.068c-.135.05-.254.085-.372.136-.136.05-.254.05-.373.05a.73.73 0 0 1-.423-.17c-.101-.067-.203-.203-.322-.407l-1.151-1.954-.559-.969c-.118-.187-.169-.357-.169-.476.017-.119.051-.187.068-.255.051-.05.22-.118.44-.237l.593-.323.135-.085c.119-.051.288-.187.491-.374.203-.204.373-.357.44-.476.085-.136.17-.255.237-.374.186-.408.288-.73.203-.985-.05-.238-.067-.408-.118-.493l-.136-.289a2 2 0 0 0-.135-.255 4 4 0 0 0-.491-.306c-.271-.187-.44-.289-.474-.289-.017-.017-.135-.017-.372-.068l-.982-.255a13 13 0 0 0-1.05-.085c-.085-.017-.186-.017-.288-.017-.423-.05-.643-.05-.66-.05h-2.54l-.237.084-1.506.136-1.473.374-1.152.782-.321.187-.186.238-.119.119s-.017.085-.051.17c-.017.34 0 .56.068.662l.22.255c.119.136.169.204.186.204l.661.102 1.151.493s.118-.136.118-.204a.36.36 0 0 0-.101-.255l-.373-.51a2.1 2.1 0 0 1-.372-.696c-.017-.068-.017-.136-.017-.238s.068-.17.237-.238h.372l.508-.136s.237-.017.559-.068l1.033-.17h.423c.135-.017.254-.017.288 0a1 1 0 0 1 .118.136c.051.05.068.119.068.238v.119l-.305.799-.423 1.155-.119.408-.558 1.461-.169.493-.661 1.733-.44 1.292-.068.289-.067.204-.068.39-.119.374c.017.102.119.17.254.238.17.068.356.12.508.085.186-.017.356-.068.474-.187l.288-.255.559-.255s.067-.17.101-.289a.5.5 0 0 0-.05-.203l-.187-.493s-.017-.085-.017-.17.051-.238.119-.476l.914-2.82c.068-.17.119-.29.136-.358.05-.05.118-.068.203-.102l.508.204.423.068.508.12.44-.103c.135 0 .271.051.423.12.119.067.237.237.356.441l.118.255.136.272.237.357s.067.17.135.306.169.356.288.594c.118.255.237.442.305.561l.321.493.627.934c.118.188.254.323.423.442.169.102.406.17.66.17.136 0 .288-.017.474-.068.17-.05.288-.068.322-.102.017-.017.169-.102.423-.204a4 4 0 0 0 .44-.288l.288-.408c.102-.085.119-.17.136-.204 0-.068-.017-.12-.051-.136-.051-.034-.068-.051-.119-.034m10.26-5.897a2 2 0 0 0-.305.374c-.051.102-.051.17-.051.204.017.051.068.085.17.119.101.051.254.017.474 0 .237-.051.406-.102.508-.17.118-.068.355-.255.66-.56l.423-.392c.203-.203.406-.492.593-.815.186-.34.287-.629.254-.867-.017-.255-.085-.442-.237-.56-.136-.085-.254-.187-.407-.239a.7.7 0 0 0-.254-.067h-.541l-.474-.068-.238.102h-.186l-.288.068-.372.05-.423.17-1.338.374-2.251 1.275-1.88 1.546-1.388 1.428-.846 1.41c-.17.255-.305.612-.407 1.036a2.8 2.8 0 0 0-.118.97c.017.203.101.475.237.798.135.306.288.543.406.662.136.136.288.255.474.357.186.068.373.136.525.136.169.017.423 0 .83-.05.406-.069.711-.12.863-.137q.279-.076.66-.204l.677-.288.712-.357.677-.442c.355-.187.525-.306.541-.323l.441-.357 1.202-.68 1.32-.968-.169.816-.085.441c-.051.374-.101.595-.135.663-.102.102-.136.136-.22.119l-.288-.136s-.136.017-.186.068l-.102.425-.254.748c-.017.102-.051.187-.051.288.017.12.068.204.17.357a.73.73 0 0 0 .355.238c.051 0 .119.017.186 0 .051-.017.204-.068.474-.187.288-.085.424-.17.475-.187s.118-.085.237-.187c.084-.118.186-.255.287-.475.068-.187.187-.63.373-1.292l.643-2.328.203-.867c.068-.254.102-.492.068-.662-.051-.187-.119-.306-.203-.323-.102-.051-.305.017-.627.204l-.44.204c-.101.05-.203.17-.372.323-.169.187-.491.492-.982.917s-.83.697-1.016.799l-1.033.595-.321.238q-.178.126-.61.305l-.711.306c-.118.068-.288.12-.474.187a4 4 0 0 1-.44.12c-.102.033-.305.05-.593.067l-.609.068c-.373.017-.643-.017-.796-.119a1.5 1.5 0 0 1-.406-.408c-.119-.17-.186-.306-.186-.373 0-.069 0-.17.05-.306a.6.6 0 0 0 .068-.238l.068-.29.203-.373.237-.544.44-.493s.102-.136.237-.322c.136-.187.339-.408.542-.63a8 8 0 0 1 .609-.56l.356-.255c.406-.306.626-.493.728-.56l.169-.086 1.355-.696c.237-.12.491-.204.778-.29l.254-.067 1.084-.255h.169c.136.017.237.068.305.17a.8.8 0 0 1 .085.323c0 .204-.051.425-.17.56-.101.17-.203.306-.355.476m-26.834-1.41c0 .17-.017.323-.051.493 0 .17-.017.51-.068 1.036-.017.51-.05.952-.067 1.292a8 8 0 0 1-.102.951l-.068.663-1.32.051h-.068c-.186.034-.728.034-1.591.051l.254-.493c.05-.119.084-.204.118-.255l.305-.425c.101-.118.203-.305.322-.51.118-.237.203-.373.287-.475.102-.085.136-.136.136-.17l.101-.238.136-.136.423-.442s.136-.238.356-.611l.423-.612c.186-.323.338-.459.406-.442.068.051.102.136.068.272m1.862 4.605-.254-.187c-.101-.05-.135-.17-.118-.306v-.255l.254-2.549.067-1.02c.068-.662.102-1.053.102-1.223v-.306a.5.5 0 0 0-.169-.357.65.65 0 0 0-.424-.186c-.254 0-.524.068-.778.255l-.356.254-1.354.952s-.102.119-.237.323l-.288.272-.085.085s-.186.255-.491.696l-1.405 1.989-.592 1.036-.102.204c-.102.136-.169.238-.254.255-.068.051-.254.068-.542.068-.372 0-.609 0-.677-.017-.085 0-.169-.051-.186-.119l-.119-.255s-.101-.085-.169-.119c-.051 0-.169.051-.355.102l-.119.051-.406.425-.424.323s-.101.17-.118.306c-.068.306-.068.544.017.645.068.12.237.187.491.204s.44.017.592.017c.119 0 .288 0 .525-.017.203-.017.44-.017.66-.05l-.118.288-.728 1.24-.135.375-.542.917-.373.73-.254.392-.118.238c-.119.203-.186.356-.169.373 0 .052.084.085.287.187.187.068.305.12.407.102a.43.43 0 0 0 .321-.136l.102-.17.186-.136.356-.764s.067-.085.101-.085l.051-.136 1.27-2.38.372-.798a1 1 0 0 1 .17-.238.5.5 0 0 1 .203-.085 4 4 0 0 1 .643-.068h.796l.965-.068h.406l.237.034c.203.017.339.051.373.068.016.017.05.102.067.187.017.12.017.238.051.374 0 .544-.017 1.037-.068 1.479-.05.441-.017.73.017.85.068.118.119.186.17.237a.6.6 0 0 0 .203.12c.135.016.372-.018.66-.137l.542-.255q.508-.204.558-.357a.46.46 0 0 0 .068-.203c0-.034-.017-.136-.101-.306a.9.9 0 0 1-.102-.425v-.238l-.051-.816c0-.119.017-.306.051-.544l.237-.17c.169-.119.237-.186.254-.186.102-.12.135-.306.102-.51-.017-.238-.068-.374-.136-.442m-12.985-4.452s-.169.204-.322.408c-.169.187-.288.305-.305.323l-.491.356-.965.85s-.169.102-.474.255c-.304.136-.474.289-.524.39v.256l-.204.407c0 .085.051.136.102.187s.119.068.237.102c.135.017.288.017.44 0 .17-.034.356-.068.559-.136s.423-.136.609-.255c.187-.102.441-.254.728-.475.305-.204.525-.408.678-.544.169-.136.423-.374.795-.748.356-.357.644-.73.83-1.087.186-.374.288-.731.237-1.037a1.25 1.25 0 0 0-.254-.73 1.5 1.5 0 0 0-.61-.374c-.287-.085-.66-.136-1.151-.17-.254 0-.525 0-.745.017-.237 0-.525.05-.846.119-.305.102-.677.204-1.101.356l-1.1.374c-.102.017-.237.102-.423.204-.187.085-.424.238-.745.391-.322.17-.559.306-.728.408l-1.033.663-1.083.968c-.407.374-.728.73-1.016 1.105-.288.374-.508.73-.694 1.104a3.1 3.1 0 0 0-.339 1.156c0 .119 0 .374.017.782 0 .407.068.747.186 1.087.136.323.322.629.644.935q.43.459.965.713c.372.17.778.29 1.202.374.423.068.778.12 1.032.136h.982c.491-.017.914-.017 1.253-.05.322-.018.66-.103.982-.188l1.473-.476c.118-.017.423-.17.897-.424l.982-.493.847-.595c.118-.085.186-.136.203-.187a.2.2 0 0 0 .051-.119c0-.17-.017-.255-.102-.306-.102-.068-.186-.068-.305-.05-.101.05-.254.118-.44.254a5 5 0 0 1-.694.442c-.305.17-.643.323-.982.476-.373.136-.745.289-1.134.374-.39.119-.83.17-1.27.187h-.779c-.423 0-.829-.017-1.151-.051a2.5 2.5 0 0 1-.847-.187 5 5 0 0 1-.778-.357 2.3 2.3 0 0 1-.644-.544c-.169-.204-.288-.476-.355-.799a5 5 0 0 1-.102-.985 3 3 0 0 1 .102-.986 4 4 0 0 1 .288-.748c.118-.237.254-.475.474-.73.203-.255.541-.595.965-1.02l.846-.696c.288-.238.627-.493 1.05-.782a12 12 0 0 1 1.032-.56c.254-.086.508-.188.779-.256.254-.068.559-.136.898-.204.304-.068.609-.068.863-.017.237.051.423.12.525.238a.63.63 0 0 1 .169.391c0 .119-.017.204-.051.323a.45.45 0 0 1-.118.238" fill="#e60012"/><path d="M59.644 13.526h-3.538v2.838h3.538zm-9.142 2.855h3.47v-2.838h-3.47zm-2.082 2.226.05-1.903v-3.568l-.05-1.615 1.642.068h3.894v-1.002l-.068-1.972h2.269l-.068 1.972v1.002h3.995l1.71-.068-.05 1.615v3.568l.05 1.937H59.61v-.271h-3.52v3.245l.068 1.87h-2.269l.068-1.87V18.37h-3.47l.033.237h-2.133zm25.868.153c-.101-.136-.203-.289-.338-.442-.136-.17-.457-.475-1-.934.289-.17.576-.408.881-.714h-1.083v2.09zm-6.958-.034 1.388.034h2.184v-2.09h-1.608l-1.354.034v-1.7l1.354.035h1.608v-1.53h-2.014l-1.355.051v-1.716l1.355.034h5.84l1.457-.034v1.734l-1.372-.069h-2.048v1.53h1.947l1.015-.034v1.716l-1.168-.068c.153.187.288.323.373.408l.541.527.39.39c-.237.239-.474.493-.728.782l1.168-.034v1.666l-1.456-.034h-6.129l-1.371.034v-1.666zm-.27 2.583h9.497V10.995h-9.498zM65.162 9.244l1.575.051h10.208l1.558-.05-.05 1.682v10.57l.05 1.817h-1.93v-.322h-9.498v.22H65.18l.05-1.818V10.927l-.05-1.683zm25.803 9.516c-.102-.136-.204-.289-.339-.442-.136-.17-.457-.475-.999-.934a4.5 4.5 0 0 0 .88-.714h-1.083v2.09zm-6.975-.034 1.388.034h2.184v-2.09h-1.609l-1.354.034v-1.7l1.354.035h1.609v-1.53h-2.015l-1.354.051v-1.716l1.354.034h5.84l1.457-.034v1.734l-1.371-.069h-2.049v1.53h1.947l1.016-.034v1.716l-1.168-.068c.152.187.287.323.372.408l.542.527.372.39c-.22.239-.474.493-.728.782l1.168-.034v1.666l-1.456-.034h-6.128l-1.371.034zm-.254 2.583h9.497V10.995h-9.498zM81.839 9.244l1.575.051h10.209l1.557-.05-.05 1.682v10.57l.05 1.817h-1.93v-.322h-9.498v.22h-1.896l.051-1.818V10.927l-.05-1.683zm28.696 7.579a54 54 0 0 1 2.235 4.3c-.237.135-.491.254-.762.407a4 4 0 0 0-.44.238l-.491.357a52 52 0 0 0-.931-2.175 24 24 0 0 0-.762-1.513l-.491-.815c.61-.238 1.168-.493 1.642-.782m-6.67-5.625V9.38l1.32.034h4.876l1.405-.034v1.835l-1.405-.05h-4.876zm2.285 6.373c-.643 1.376-1.151 2.362-1.523 2.973-.373.595-.914 1.326-1.642 2.176l-.407-.408-.643-.578-.474-.425c.711-.663 1.287-1.325 1.71-1.988a7.2 7.2 0 0 0 .931-1.971l.169-.578c.559.306 1.168.578 1.863.816m-2.879-1.767c.017.135.051.322.102.543.034.221.068.493.068.816 0 .306-.068.646-.203 1.003-.204.51-.491.883-.847 1.121-.355.238-.965.442-1.811.629-.102-.595-.204-1.003-.322-1.24l-.322-.646c.525-.034.965-.153 1.338-.357.372-.204.491-.51.389-.935-.118-.425-.237-.748-.389-.985-.153-.238-.491-.63-1.016-1.156v-.867c.355-.934.559-1.512.626-1.75l.356-1.291H99.92V21.41l.051 1.87h-1.93l.05-1.853v-10.67l-.05-1.717 1.575.034h3.148l.712 1.156-1.575 3.687c.22.272.356.408.372.442l.881 1.275v-1.649l1.676.017h7.551v1.835l-1.456-.05h-2.337v6.083c0 .306-.034.544-.118.697-.068.153-.339.323-.779.543-.44.204-1.117.306-1.998.306-.034-.187-.067-.407-.118-.645a7 7 0 0 0-.203-.731l-.288-.765a4 4 0 0 0 .982.034c.305-.034.474-.085.542-.153.067-.085.084-.238.084-.476v-4.893h-1.913l-1.524.033zm25.649 6.049c-.169.272-.304.51-.44.73-.118.222-.271.578-.474 1.088a39.4 39.4 0 0 0-5.79-2.209c.17-.204.322-.374.457-.544.119-.17.322-.51.576-1.002.66.238 1.574.544 2.743.951 1.168.391 2.15.731 2.928 1.02m-7.093-11.198V9.38l-.034-.917h1.93l-.034.917v.782c.373-.12.88-.306 1.473-.578a14 14 0 0 0 1.084-.527l.609-.374c.389.612.677 1.003.846 1.173l.441.459c-.762.306-1.338.543-1.761.697-.423.152-1.321.458-2.709.917v.527c0 .102.034.17.085.238q.076.102.508.153c.288.034 1.032.05 2.218.034.169 0 .287-.017.389-.068.102-.034.186-.12.305-.272.101-.136.186-.289.22-.459l.152-.629c.542.323 1.134.595 1.795.833-.237.527-.424.969-.576 1.291-.152.323-.322.561-.491.714a1.2 1.2 0 0 1-.525.272c-.169.034-.88.051-2.116.051s-2.082-.017-2.506-.085-.728-.153-.897-.289a.88.88 0 0 1-.322-.493 2.3 2.3 0 0 1-.067-.594v-.68l-1.219.323c-.22-.578-.356-.935-.44-1.054l-.373-.629a9.8 9.8 0 0 0 2.032-.407m-5.096 4.469 1.879.05h6.687l1.761-.05-.034 1.19v3.058l.034 1.088h-1.964l.068-1.02v-2.617h-6.484v2.838l.051 1.087h-1.998l.051-1.087V16.33zm6.382 2.447q-.177.968-.406 1.784a5 5 0 0 1-.829 1.631c-.407.544-.932.986-1.609 1.343-.66.357-1.32.595-1.981.748-.66.135-1.456.271-2.387.373-.135-.578-.254-.951-.338-1.104l-.407-.748c.728 0 1.659-.085 2.811-.272s1.93-.629 2.353-1.325q.609-1.046.711-2.09l.068-.646c.22.068.423.119.575.153.153.034.627.085 1.422.17m-3.098-8.497c-.525.51-1.049 1.003-1.54 1.479h.474l-.034 1.087v2.09l.034.969h-1.879l.05-.935v-2.158c-.22.153-.389.29-.525.374-.135.085-.575.34-1.286.748a11 11 0 0 0-.271-.595c-.085-.17-.305-.527-.677-1.054a8.2 8.2 0 0 0 1.642-.832c.44-.306.846-.629 1.236-1.003.406-.374.66-.646.779-.815l.304-.442c.187.153.39.306.593.459.203.152.575.356 1.117.628m16.575 1.971V9.278l1.456.034h4.926l1.405-.034v1.835l-1.405-.034h-4.926zm-.965 2.108 1.963.05h5.807l1.981-.05v1.869l-1.981-.051h-3.132l.627.425a128 128 0 0 1-2.286 3.075c1.321-.05 2.658-.136 4.013-.204a21 21 0 0 0-1.355-1.733c.288-.119.525-.22.677-.289s.508-.272 1.067-.594c.508.696 1.05 1.427 1.625 2.209.576.781.965 1.325 1.202 1.648a18 18 0 0 0-.999.748l-.626.56a11 11 0 0 0-.559-.917c-3.555.204-5.586.357-6.094.442l-.728.119c-.305-.663-.593-1.292-.881-1.904q.33-.229.559-.407c.152-.12.372-.34.643-.646a10 10 0 0 0 .83-1.07c.288-.409.559-.884.812-1.411h-1.202l-1.963.05zm-3.877-3.212c.491-.34.846-.612 1.049-.816l.491-.493c.339.323.576.578.745.731l.881.9.711.732c-.254.254-.441.441-.542.56l-.474.561-.407.459c-.338-.408-.66-.782-.948-1.122-.287-.323-.795-.832-1.506-1.53m1.371 5.813h-1.016l-.965.034v-1.836l.965.034h1.812l1.083-.034-.034 1.207v4.4q.229.18.356.256l.745.663a4.6 4.6 0 0 0 1.49.781c.592.187 1.473.272 2.641.272 1.151 0 2.133-.05 2.945-.102.813-.05 1.727-.187 2.777-.39-.102.34-.186.645-.254.883a3.4 3.4 0 0 0-.118.646l-.102.696a179 179 0 0 1-4.029.051c-2.083 0-3.437-.05-4.047-.17-.609-.119-1.066-.271-1.354-.458a4.7 4.7 0 0 1-.863-.697 3.4 3.4 0 0 0-.627-.544.75.75 0 0 0-.457-.102c-.186 0-.389.12-.626.29-.237.186-.711.696-1.439 1.562-.305-.866-.491-1.342-.542-1.444l-.373-.816c.373-.136.695-.288.982-.458l.644-.408.389-.238v-4.113zm21.01-3.365v-1.767l1.49.068h1.794c-.169-.442-.338-.782-.491-.986l-.389-.51c.66-.22 1.101-.408 1.287-.527l.423-.254c.508.85.897 1.529 1.168 2.056a6 6 0 0 0-.575.255h2.014l1.575-.068v1.767l-1.626-.051h-5.18l-1.507.05zm.322 9.397c.22-.204.423-.544.609-1.037.186-.475.305-1.155.339-2.005s.067-1.512.067-1.988c0-.646 0-1.24-.016-1.784l-.051-1.462 1.151.034h2.539l1.389-.034-.051 1.53v6.321a.7.7 0 0 0 .085.357q.075.127.254-.102a.9.9 0 0 0 .152-.34c.034-.153.068-.323.085-.527l.05-.628c.22.136.441.238.661.34s.575.204 1.083.322l-.203.901a5 5 0 0 1-.271.884 1.5 1.5 0 0 1-.44.645c-.186.153-.508.238-.948.272-.288.017-.677 0-1.168-.034s-.779-.17-.881-.373a1.3 1.3 0 0 1-.152-.544v-7.375h-1.541c0 .476-.034 1.036-.034 1.699s-.016 1.206-.05 1.648c0 .442-.068 1.003-.17 1.649-.101.662-.27 1.257-.541 1.784-.254.527-.542.951-.864 1.257l-.44.442c-.305-.459-.508-.764-.66-.883l-.542-.493c.152-.12.339-.29.559-.493m-4.233-9.04c.44-.136.83-.29 1.168-.476.136.34.237.612.322.799.068.204.237.645.474 1.36-.457.118-.931.322-1.456.61q-.076-.33-.152-.713c-.051-.255-.085-.408-.119-.476l-.237-.543v1.903h1.981v-3.467h-1.981zm-2.742 9.652a7 7 0 0 0 .355-.527c.119-.204.254-.527.389-.969.136-.441.221-.968.271-1.58.051-.595.068-1.19.068-1.767v-.782l-.914.034v-1.648l.914.034v-3.467l-.051-1.563.779.034h.745c.085-.391.118-.629.135-.68l.17-1.172a16 16 0 0 0 1.93.39c-.17.51-.322.986-.457 1.462h1.269l.796-.034-.051 1.58v10.859c0 .102-.051.238-.169.441-.119.187-.847.357-2.201.493-.017-.238-.068-.441-.101-.628a2.3 2.3 0 0 0-.204-.595l-.304-.663c.254.034.474.034.66.017.338 0 .542-.05.609-.136.068-.085.102-.22.102-.39v-4.402h-1.981v.73c.474-.118.88-.271 1.202-.441.153.408.254.765.339 1.02.084.271.203.815.372 1.63-.44.12-.694.205-.795.273l-.542.306c-.153-.884-.254-1.428-.339-1.666l-.271-.764v.815c0 .34-.034.782-.084 1.309-.051.543-.17 1.104-.322 1.7-.169.594-.44 1.223-.83 1.902a7 7 0 0 0-.491-.492c-.152-.137-.491-.391-.982-.714m17.117-8.31.05-1.223v-1.224l-.05-1.087 1.659.034h4.825c-.187-.493-.339-.833-.474-1.037l-.322-.527q1.168-.356 1.371-.459l.457-.237.508.968c.187.323.271.493.288.51l.237.51c-.203.085-.406.187-.592.272h4.994l1.354-.051-.05 1.104v1.41l.05 1.054h-1.913l.034-.883v-.918H166.59v.918l.034.866zm6.281 4.367h-2.489l-1.642.034v-1.699c-.254.153-.525.306-.796.476a6 6 0 0 0-.305-.578c-.084-.153-.389-.527-.914-1.087.576-.187 1.05-.374 1.456-.561s.83-.442 1.27-.748c.457-.306.829-.578 1.117-.832.305-.255.626-.595.982-1.003.203.238.389.442.559.578.152.153.508.39 1.032.764a88 88 0 0 1-2.319 1.7c-.389.271-1.033.662-1.93 1.206l1.456.034h7.06l1.168-.034c-.237-.136-.423-.238-.542-.323l-1.777-1.206-1.406-.867-.558-.34c.186-.153.372-.306.524-.476.17-.152.39-.458.678-.917 0 0 1.676 1.053 4.977 3.143-.135.204-.254.374-.355.544-.102.17-.322.561-.661 1.224-.22-.204-.457-.408-.711-.629v1.648l-1.354-.034h-2.675v2.855h4.757l1.456-.068v1.852l-1.456-.05h-11.309l-1.659.05v-1.852l1.659.068h4.656v-2.855z" fill="#000"/></g><defs><clipPath id="clip0_572_2081"><path fill="#fff" d="M0 0h179v46H0z"/></clipPath></defs></svg>