<svg width="165" height="46" fill="none" xmlns="http://www.w3.org/2000/svg"><g clip-path="url(#clip0_597_3584)"><path d="M35.185 15.586h-.033c-3.565-.092-5.633.705-7.13 1.284-.552.218-1.037.396-1.49.52-2.193.554-3.349-.52-3.808-1.587-.243.395-.335.857-.335 1.311.092 1.495 1.405 2.661 3.17 2.57.579-.034 1.491-.245 2.194-.64.092-.033.184-.092.276-.151 1.556-.89 3.84-2.57 7.13-3.268.033 0 .033-.033.033-.033M58.585 5.441a21.7 21.7 0 0 1-3.198 1.957c-.637.336-1.313.639-1.983.915-.275.092-.518.211-.794.303a25 25 0 0 1-3.75 1.041c-.183.033-.367.06-.577.092a34 34 0 0 1-2.495.277c-.243.033-.518.033-.794.033-.243.033-.486.033-.729.033-.551 0-1.13-.033-1.648-.06-.703 1.377-1.825 2.998-3.23 4.618-1.221 1.403-2.653 2.78-4.235 3.946 0 .033-.033.033-.033.033h.033a35 35 0 0 0 4.235-.612c2.193-.488 4.11-1.1 5.607-1.654.276-.092.551-.21.794-.303a25 25 0 0 0 2.495-1.1q.136-.091.184-.092c.243-.093.335-.303-.092-.152-.033 0-.059.033-.092.033a20.3 20.3 0 0 1-3.29.857c-.636.125-1.037.151-1.155.184-.21.06-.518-.092-.033-.184.394-.06.795-.152 1.189-.244.276-.06.551-.125.794-.185.887-.243 1.74-.546 2.495-.823.21-.06.394-.152.578-.217 1.674-.672 2.895-1.285 3.046-1.377.302-.185.06-.185.06-.185s-1.064.554-1.28.613c-.218.092-.277 0-.152-.033.151-.06.552-.369-.059-.151-.551.21-1.096.428-1.615.58-.184.059-.394.15-.578.184-.794.276-1.431.428-1.766.487-.637.092-.184-.118-.184-.118s.82-.211 1.156-.336c.518-.152.545-.303.059-.185-.61.152-1.221.277-1.766.395-.276.033-.519.093-.795.126-1.372.243-2.376.303-2.77.368-.46.033-.092-.151-.092-.151s.912-.092 1.582-.184c.46-.06.886-.152 1.28-.218.276-.06.552-.125.795-.184a23 23 0 0 0 2.495-.672c.21-.06.393-.125.577-.185.703-.243 1.064-.428 1.13-.428.059-.033.15-.277.032-.21-.091.059-.551.243-1.155.428-.06.032-.151.032-.21.059-.125.033-.243.06-.368.092-.67.184-1.431.369-1.648.369-.243.033-.118-.06.762-.277.302-.092.61-.151.886-.244.21-.059.394-.118.578-.184 2.318-.764 3.598-1.653 3.716-1.713 0 0 .033 0 .033-.033.092-.059.125-.184 0-.151-.033.033-.06.033-.125.092a11.3 11.3 0 0 1-2.042.982c-.21.092-.15 0-.15 0s.426-.336-.244 0c-.334.151-.794.303-1.188.428-.21.06-.427.118-.578.151a1 1 0 0 1-.217.06c-.183.032.06-.126.151-.152h.06c.118-.033.367-.125.577-.184.06 0 .125-.033.151-.033.276-.06.092-.185.092-.185s-.032.033-.243.092c-.118.033-.275.06-.518.12 0 .032-.033.032-.06.032-.912.217-1.95.336-2.494.395-.243.033-.394.033-.394.033s-.486-.06.394-.21h.059a40 40 0 0 0 2.436-.521c.21-.06.393-.092.577-.151 1.432-.429 2.68-.916 3.75-1.496.275-.125.55-.277.794-.395a19 19 0 0 0 1.983-1.344c1.339-1.008 2.343-2.049 3.197-2.872M45 12.437a.5.5 0 0 1-.243.06c-.15.032-.242.032-.302 0-.032-.034.06-.093.06-.093s.367-.033.426-.033c.06-.033.06 0 .06 0l.059.033s0 .033-.06.033" fill="#d71618"/><path d="M48.474 13.326s-.092.033-.184.06a1.5 1.5 0 0 0-.243.092s-.092.06-.033.092c.059 0 .151 0 .276-.06h.032c.125-.032.335-.15.276-.15s-.059-.06-.124-.034M53.832 9.9a6 6 0 0 0-.427.277c-.184.093-.335.185-.46.244-.124.033-.184.185-.092.185.092-.033.118-.033.335-.185.06-.033.125-.059.217-.092a16 16 0 0 1 .427-.277l.15-.118s0-.125-.15-.033m-8.043 10.882-.184.033s-.184.152-.033.119c.06 0 .151-.033.217-.033a2 2 0 0 0 .15-.06c.152-.092.185-.118.06-.118zM20.931 10.178c1.005 0 1.825-.765 1.825-1.713 0-.152-.032-.303-.059-.461.21.336.335.705.335 1.1-.032 1.008-.794 1.805-1.917 1.864a2.3 2.3 0 0 1-.794-.125c-.06.217-.06.461-.06.672 0 1.251.821 2.292 1.95 2.661-.183-.277-.308-.58-.308-.948 0-.765.552-1.377 1.313-1.529.67-.125 1.28-.092 3.171.488a15 15 0 0 0 1.648.395c1.221.244 2.377.395 3.106.461-.887.58-1.983.949-3.106 1.133a7.2 7.2 0 0 1-1.799.033c-1.95-.184-3.046-1.317-3.046-1.317.21.797 1.306 1.897 3.348 2.2.486.092 1.005.118 1.49.151 2.437.033 4.938-.73 7.13-1.831A19.2 19.2 0 0 0 39 10.842l-.092.034c-1.189.303-2.469.52-3.75.58-.301 0-.61.033-.912.033a18.9 18.9 0 0 1-6.21-1.068 26 26 0 0 1-1.74-.73q.864.274 1.74.46a19 19 0 0 0 3.991.428c1.064 0 2.134-.092 3.139-.276 1.49-.218 2.895-.64 4.234-1.193a15 15 0 0 0 1.858-.889c1.222.277 2.469.428 3.75.461h.794c.853 0 1.674-.06 2.495-.184.216 0 .394-.033.578-.06a21.5 21.5 0 0 0 3.748-.981c.276-.092.52-.217.795-.303.67-.277 1.34-.613 1.983-.949a20.2 20.2 0 0 0 6.033-5.046 24.7 24.7 0 0 1-6.033 2.813c-.637.185-1.307.37-1.983.488-.276.059-.519.118-.795.151q-1.829.318-3.748.37h-.578c-.821 0-1.674-.034-2.495-.126h-.06l.06-.06a18.6 18.6 0 0 0 2.495-3.181c.216-.303.394-.64.578-.975.118-.217.242-.428.334-.639 0 0-.124.092-.335.21-.15.093-.334.218-.577.337a14.5 14.5 0 0 1-2.495 1.133 5.6 5.6 0 0 1-.795.244 15.7 15.7 0 0 1-4.445.639c-.367 0-.761 0-1.155-.033-1.556-.093-3.014-.396-4.235-.646-.059-.033-.118-.033-.184-.033-3.322-.705-4.628-.125-5.272.185-.82.428-1.464 1.192-1.674 2.081-.06.244-.092.461-.092.705-.886.033-1.648.58-1.917 1.377a9.8 9.8 0 0 0 2.009 1.251 8.8 8.8 0 0 0 2.528.732h-.302c-.762 0-1.524-.06-2.226-.218-1.49-.303-2.863-.89-4.235-1.495-.886-.395-1.674-.58-2.252-.553-1.037.032-1.89.58-2.285 1.343-.243.52-.276.857-.243 1.133.033 1.041.946 1.772 1.917 1.772m9.31-4.084c-.485 0-.886-.369-.886-.823v-.092c0-.765.578-1.311 1.34-1.377.216 0 1.188-.152 2.77.975.243.151.46.303.67.46.335.245.67.462 1.004.64.946.547 1.891 1.04 2.922 1.436-1.037.217-2.042.217-2.922.184a12 12 0 0 1-2.41-.395c.185-.277.277-.58.277-.949 0-.915-.762-1.68-1.707-1.68-.184 0-.368 0-.52.06a.9.9 0 0 1 .336.705c0 .46-.394.856-.887.856" fill="#d71618"/><path d="M57.731 16.567c-.794.396-1.582.797-2.344 1.133-.702.303-1.339.58-1.982.824a7 7 0 0 1-.795.303 60 60 0 0 1-3.749 1.251c-.216.06-.394.093-.578.152-1.096.303-1.766.461-1.858.488-.183.118.033.092-.275.243-.092.033-.217.092-.368.152-.217.059-.486.151-.794.243l-.67.185c-.427.092-.368.033-.368.033s.762-.303 1.037-.37c.276-.032.762-.46 0-.184-.032 0-.059 0-.059.033-.426.152-2.862.705-5.548 1.377a120 120 0 0 0-4.234 1.1c-.67.185-1.28.37-1.826.52-.886.304-.394-.091-.394-.091.637-.211 1.373-.462 2.226-.732a67 67 0 0 1 4.235-1.16c.276-.091.551-.15.853-.21a182 182 0 0 0 4.754-1.251c.276-.093.551-.152.794-.244.611-.185 1.156-.336 1.642-.52.302-.093.578-.185.853-.277.217-.093.394-.152.578-.218a45 45 0 0 0 3.75-1.469c.275-.092.518-.217.794-.336.702-.303 1.372-.612 1.982-.889 4.294-2.082 5.85-3.577 6.093-3.761-2.009.797-4.05 1.528-6.093 2.2-.67.21-1.306.428-1.982.639-.276.06-.52.151-.795.244-1.247.368-2.495.73-3.749 1.067-.184.059-.367.118-.578.151-.82.244-1.648.461-2.495.672-.242.06-.518.152-.794.218-1.13.276-2.285.553-3.44.823-.545.125-1.28.303-2.16.52-1.189.277-2.62.64-4.235 1.068-1.431.368-3.014.823-4.603 1.31-.853.244-1.707.547-2.527.824C16.119 26.988 6.152 35.243 0 46c7.498-7.305 16.972-11.95 28.029-14.855.367-.092.761-.184 1.155-.276a288 288 0 0 0 5.968-1.561c1.523-.429 2.922-.857 4.235-1.285a54 54 0 0 0 5.607-2.049c.276-.092.551-.217.794-.336a31 31 0 0 0 2.495-1.192c.217-.092.394-.184.578-.277.67-.369 1.34-.73 1.983-1.1l.276-.217s.302-.244-.243.06c-.637.368-1.313.704-2.01 1.04-.183.092-.393.184-.577.277-.88.428-1.766.797-2.495 1.067-.276.125-.552.244-.794.336-.46.151-.795.276-.913.336-.578.184-.703.184-.82.184-.06 0 .853-.369 1.74-.731.275-.092.55-.218.794-.303.21-.092.426-.185.577-.244a22 22 0 0 0 1.918-.856c.216-.06.394-.152.577-.244 1.432-.672 2.587-1.285 2.745-1.344.21-.151 1.188-.764.059-.21a77 77 0 0 1-2.804 1.192c-.216.092-.427.151-.578.217-.242.092-.426.152-.485.185-.184.059-.092-.06-.092-.06s.276-.125.578-.276c.216-.06.394-.152.577-.218.184-.092.335-.151.368-.184.21-.06.61-.396.276-.244-.092.033-.335.151-.637.277-.184.059-.368.118-.578.217-.912.336-2.068.797-2.495.949a.22.22 0 0 1-.125.059c-.394.151-.82.244.125-.21.06-.034.092-.034.118-.06.21-.092.125-.152.06-.092-.033 0-.092.033-.184.059-.184.06-.52.184-.795.277-.15.059-.276.092-.335.118-.243.06-.46 0 .092-.151.033-.033.125-.06.243-.093.184-.059.46-.184.795-.303.702-.243 1.582-.58 2.495-.915.216-.092.394-.152.577-.244a176 176 0 0 0 2.988-1.133c.15-.06.46-.184.761-.336a5.6 5.6 0 0 0 .795-.336c.426-.184.761-.369.761-.395s-.032-.033.092-.185c.118-.151.276-.336-.118-.151-.276.118-.519.244-.729.336-.302.125-.551.244-.794.336-1.8.797-1.983.764-2.226.856-.335.125-.886.125-.243-.092.637-.184 2.101-.823 2.226-.89.092-.059.184-.092.243-.15.302-.185.486-.37 0-.185-.033.033-.092.059-.151.092-.978.428-2.41.916-3.598 1.317-.217.06-.394.119-.578.185-.82.244-1.464.461-1.582.487-.118.06-.243-.033-.243-.033s-.276.033-.519.093c-.21.032-.092-.119.335-.244.703-.218 1.372-.461 2.01-.672.216-.06.393-.125.577-.21a55 55 0 0 0 3.749-1.437c.302-.125.551-.244.794-.336.821-.369 1.34-.58 1.373-.613.15-.059.059-.184-.125-.125-.73.277-1.097.37-1.248.396-.15 0-.15-.033-.124-.033.032-.033.059-.033.124-.06.67-.276 1.432-.58 1.983-.823.243-.125.46-.218.578-.277 1.13-.553 1.155-.612 1.188-.705.033-.059-.46.218-.729.336-.242.093-.46.06-.032-.184 1.004-.547 1.405-.823 1.582-.949.184-.092.184-.276-.243-.033m-12.507 6.357c-.06.033-.151.06-.243.093-.611.21-1.858.58-3.264.948-.551.125-1.037-.151-.702-.244 1.825-.428 3.506-.889 3.959-1.008h.092c.302-.092.368-.151.46-.092 0 0 .183.093-.303.303m-6.887 10.975a44 44 0 0 1-3.197 1.133c-2.252.705-4.51 1.192-7.13 1.68-1.373.276-2.863.52-4.478.797-7.006 1.251-9.868 3.452-9.868 3.452 4.267-.824 7.432-.613 12.002-1.377a23 23 0 0 0 2.343-.488c1.859-.46 3.44-1.04 4.787-1.56.971-.396 1.733-.706 2.344-.976 1.247-.547 1.825-.89 2.193-1.1.334-.21.518-.487.334-.395-.15.125-2.009.949-2.495 1.1h-.032c-.486.151-.302 0-.394 0s.15-.092.394-.184a5 5 0 0 1 .551-.218c.302-.118.703-.461.276-.276a9 9 0 0 1-.82.276c-.52.185-1.064.336-1.19.37-.216.058-.242-.152.244-.304.335-.118.67-.21.945-.336 1.766-.613 2.679-1.04 3.047-1.225.46-.211.15-.37.15-.37" fill="#d71618"/><path d="M48.868 25.401a5 5 0 0 1-.578.303c-.82.461-1.648.857-2.495 1.252-.242.118-.518.243-.794.369-1.674.764-3.506 1.469-5.607 2.167-1.155.395-2.41.797-3.775 1.192-.151.06-.302.092-.46.152-2.225.645-4.694 1.284-7.13 1.99-3.657 1.1-7.34 2.384-10.42 4.28 0 0 2.863-.855 10.085-1.863.118-.033.21-.033.335-.06 2.928-.428 5.331-.889 7.13-1.31.67-.185 1.28-.337 1.766-.488.644-.21 1.49-.487 2.469-.823a39 39 0 0 0 5.607-2.444c.276-.125.552-.277.794-.428a21 21 0 0 0 2.404-1.588c.124-.092-.21-.277-.368-.152-.118.126-1.248.705-2.042 1.068-.092.059-.217.092-.309.151-.243.06-.243 0-.243 0s.243-.119.552-.303c.46-.217 1.037-.553 1.464-.797.184-.125.486-.336.486-.336s.125-.184.551-.461v-.033c.151-.092.368-.217.578-.336.427-.277.972-.672 1.707-1.192.151-.125.46-.396.368-.461-.06-.033-.729.487-1.156.764-.426.303-.67.428-.912.58-.184.092-.335.217-.578.335-.06.06-.125.093-.184.152-.578.395-1.464.856-2.318 1.284-.275.152-.551.277-.794.396-.729.336-1.28.58-1.306.58-.125 0 .21-.244.21-.244.367-.185.728-.37 1.096-.547.276-.152.552-.277.794-.428a32 32 0 0 0 2.495-1.436c.21-.125.394-.244.578-.37 1.832-1.192 3.047-2.2 3.75-2.871.367-.336.577-.58.702-.705a6 6 0 0 1-.703.428 73 73 0 0 1-3.749 2.233m-4.084 3.972s.125-.092.21-.125c.033-.033.06-.033.092-.033.092-.06.151 0 .151 0v.06s-.118.059-.242.125c-.033 0-.033.033-.06.033-.15.059-.183 0-.15-.06m7.832-7.516c.15-.06.276-.151.276-.151s.15-.093.032-.093c-.059 0-.183.06-.302.093-.124.059-.216.125-.216.125s-.184.184-.092.184c.033-.033.184-.092.302-.151m2.771-2.299c-.394.184-.795.336-.795.336s-.184.336.151.217c.151-.06.394-.151.637-.277.21-.092.427-.217.519-.243.243-.093.335-.396.335-.396-.092 0-.125 0-.394.152-.151.06-.302.151-.453.21" fill="#d71618"/><path d="M49.295 26.989c-.184.092-.125.092-.427.303-.033.033-.092.033-.118.059a9 9 0 0 1-.46.336c-.092.06-.092.092-.092.092s.033.093.092.125c.033 0 .06 0 .118-.032a8 8 0 0 0 .46-.304c.302-.243.67-.546.67-.612-.033-.092.059-.152-.243.033m-9.448 6.297a4 4 0 0 1-.46.185c-.368.118-.761.276-.761.276s-.184.396.091.277c.125-.033.394-.151.67-.277.368-.151.762-.303.82-.395.093-.184-.032-.184-.367-.06" fill="#d71618"/><path d="M165 22.746H59.26v.508H165z" fill="#c49d61"/><path d="M153.038 37.581v-1.64c.124-.079.243-.204.407-.33l2.166.205q-.855 1.049-1.72 1.475c-.249.126-.532.25-.86.29m.007-2.747v-1.232h1.103c.124-.533.124-.862 0-1.106-.125-.204-.368-.33-.657-.33-.164 0-.289.04-.446.08v-1.522c.289-.086.531-.086.82-.086.86 0 1.517.125 1.885.455.407.29.656.698.735 1.271.085.534-.039 1.272-.328 2.18l-.079.29zm3.972.863 2.377-.25c0 .33.039.534.164.659.164.164.328.204.617.204.328 0 .571-.08.821-.204a1 1 0 0 0 .328-.409c.039-.204 0-.33-.125-.454-.125-.08-.407-.165-.899-.25-.736-.165-1.268-.33-1.517-.455-.289-.125-.446-.369-.571-.698-.125-.29-.079-.66.039-1.068a2.7 2.7 0 0 1 .696-1.192c.328-.29.735-.533 1.188-.698.447-.165 1.025-.244 1.721-.244s1.188.04 1.516.165c.289.125.493.33.657.573.125.29.203.62.243 1.067l-2.292.25q.061-.306-.124-.494c-.125-.125-.329-.204-.572-.204s-.446.08-.61.165a.8.8 0 0 0-.289.369c-.079.204-.039.33.079.408.124.08.407.165.899.204.736.126 1.267.244 1.596.409.289.204.492.454.617.777.079.29.039.659-.086 1.067a3.2 3.2 0 0 1-.656 1.107 3.6 3.6 0 0 1-1.267.903c-.532.204-1.189.329-1.963.329-1.064 0-1.799-.165-2.174-.534-.328-.369-.453-.863-.407-1.521m-3.978-4.954v1.521c-.204.08-.407.244-.618.409-.203.204-.367.533-.531.942h1.149v1.232h-1.556c-.125.408-.125.738 0 .942.124.29.367.454.696.454.242 0 .492-.079.735-.204.039-.04.085-.04.125-.079v1.64c-.407.125-.86.165-1.392.165-.775 0-1.392-.125-1.76-.369-.368-.29-.617-.659-.735-1.232-.125-.533-.04-1.192.203-1.93.329-1.067.9-1.93 1.721-2.589.571-.494 1.267-.777 1.963-.902m-12.731 6.857v-.204l2.127-6.574h2.127l-.367 1.107c.492-.448.899-.778 1.313-.982.368-.204.821-.29 1.267-.29.657 0 1.064.204 1.313.659q.307.614-.125 1.97l-1.391 4.314h-2.292l1.188-3.735c.165-.408.165-.737.079-.902-.079-.165-.249-.244-.492-.244-.289 0-.532.125-.775.33-.249.243-.492.698-.696 1.31l-1.024 3.241zm0-6.567.079-.205h-.079zm0-1.028v-1.765h.899l-.571 1.765zm0-1.765v1.765h-1.963l.571-1.765zm0 2.588v.205l-2.127 6.574h-1.845V36.23l1.759-5.422zm0 6.568-.079.204h.079zm-3.972-7.806v-1.357h.446zm0-1.35v1.357l-2.581 8.01h-1.963V36.52l2.659-8.294h1.885zm0 8.01-.453 1.357h.453zm-4.544-4.77.329-.454a.9.9 0 0 0-.329-.204zm0-.652v.66l-.984 1.396c-.204-.125-.408-.205-.572-.205-.289 0-.571.165-.82.409-.368.408-.736 1.153-1.064 2.26l-.735 2.259h-2.252v-.165l2.127-6.614h2.127l-.328 1.107c.328-.494.656-.823.939-.981a1.48 1.48 0 0 1 .899-.29c.204 0 .453.04.657.164m.006 5.705-.328 1.067h.328zm-6.427-5.547.046-.164h-.046zm0-.981v-1.765h.86l-.571 1.765zm0-1.765v1.765h-2.003l.571-1.765zm0 2.588v.165l-2.128 6.614h-2.291l2.167-6.779zm0 6.608-.079.164h.079zm-9.048-1.397v-2.016h.821l.164-3.366-.985 1.687v-3.492l.407-.612h2.784l.079 9.36h-2.659l.079-1.56h-.696zm0-7.187v3.492l-1.024 1.686h1.024v2.016h-2.212l-.9 1.56h-2.62l5.732-8.747zm-16.985 8.38v-1.068c.04-.04.079-.04.079-.04.289-.164.492-.329.656-.533s.289-.454.368-.777l.164-.409c-.367.126-.735.205-1.103.33-.04 0-.125.04-.164.04v-1.193c.368-.08.61-.165.775-.204a10 10 0 0 0 .899-.29c.079-.33.125-.573.04-.698-.079-.126-.243-.165-.572-.165-.367 0-.656.04-.899.204-.079.04-.164.08-.243.204v-1.85h.125a6.4 6.4 0 0 1 1.228-.126c.696 0 1.227.04 1.634.125.368.08.657.29.86.534.125.204.204.494.204.823 0 .37-.039.699-.164 1.028l-.985 2.997c-.079.33-.164.573-.164.738a2.1 2.1 0 0 0 0 .698h-2.173c0-.164-.04-.29-.04-.408.04-.08.04-.204.08-.409-.204.165-.408.33-.612.455m7.538-8.998h2.291l-3.027 9.36h-2.291zm-7.531 2.542v1.851a1.4 1.4 0 0 0-.289.37l-2.127-.244c.243-.455.446-.778.696-1.028.25-.244.532-.494.9-.659.203-.125.492-.204.82-.29m0 2.793v1.193c-.407.125-.696.243-.86.369q-.248.188-.368.494c-.04.204-.04.369.04.494.079.125.243.204.492.204.25 0 .453-.08.696-.165v1.067c-.164.08-.328.165-.492.244a3.9 3.9 0 0 1-1.517.29c-.735 0-1.188-.204-1.47-.573 0-.04-.04-.04-.04-.08v-1.435c.164-.455.407-.824.775-1.146.367-.33.938-.574 1.68-.738.453-.08.775-.165 1.064-.204m-3.526-2.273v-.494h.164zm0-.488v.494l-.453 1.397h-1.267l-.775 2.424c-.078.29-.124.455-.124.573.039.125.164.204.328.204s.453-.039.775-.164l-.407 1.805c-.611.125-1.189.204-1.681.204-.571 0-.94-.079-1.15-.244a.97.97 0 0 1-.367-.659v-.408c.04-.33.164-.777.328-1.357l.775-2.385h-.86l.61-1.89h.86l.9-2.589h2.213l-.82 2.589h1.102zm0 4.842c0 .04-.04.08-.04.125-.163.534-.163.942.04 1.318V35.65m-5.114-7.43v.04l-.532 1.725h-2.33l.57-1.765zm-9.251 9.485V35.65a1.5 1.5 0 0 0 .328-.244c.243-.243.492-.658.657-1.27.203-.535.243-.943.124-1.193-.124-.244-.289-.409-.57-.409-.165 0-.368.08-.533.165v-1.271c.25-.204.493-.37.696-.494.407-.205.821-.29 1.228-.29.775 0 1.267.33 1.517 1.027.203.699.164 1.562-.204 2.59-.328 1.152-.86 2.008-1.516 2.588-.572.494-1.15.784-1.72.863m6.132-6.904h2.291l-2.167 6.779h-2.291zm-6.14.613v1.271c-.124.08-.203.165-.327.244-.29.244-.493.699-.696 1.272-.165.533-.204.942-.08 1.192.126.244.33.408.611.408.165 0 .329-.079.493-.164V37.7c-.125.04-.243.04-.407.04-.329 0-.657-.08-.9-.205s-.407-.33-.571-.619l-1.024 3.248H76.37v-.495l2.863-8.873h2.127l-.328.988c.164-.125.289-.243.407-.368m-5.075 1.732c.124-.33.164-.659.164-1.028 0-.29-.04-.573-.164-.737zm0-1.765v1.765l-.94 2.997c-.124.33-.163.573-.203.738-.04.204 0 .408 0 .698h-2.127c-.04-.164-.04-.29-.04-.408 0-.08 0-.204.04-.409-.204.165-.407.33-.61.455v-1.067c.039-.04.078-.04.078-.04.289-.164.492-.329.657-.533.164-.205.289-.455.407-.778l.124-.408c-.367.125-.735.204-1.103.33-.039 0-.124.039-.164.039V33.57c.368-.08.61-.165.775-.205a9 9 0 0 0 .9-.29c.124-.329.124-.573.039-.698-.079-.125-.243-.164-.532-.164-.407 0-.696.04-.939.204-.079.04-.164.079-.243.204V30.77h.125a6.5 6.5 0 0 1 1.267-.125c.657 0 1.228.04 1.596.125.367.079.696.29.86.534 0 .039.04.039.04.079m-.007 8.293v.494H76.2zm-7.452-9.855c.039.33.078.699.078 1.146h-.078zm3.558.942v1.851a1.5 1.5 0 0 0-.289.37l-2.088-.244c.204-.455.454-.778.657-1.028.243-.244.532-.494.9-.659.203-.125.492-.204.82-.29m0 2.793v1.193c-.407.125-.696.243-.86.369a.82.82 0 0 0-.328.494q-.118.306 0 .494c.079.125.243.204.492.204.25 0 .493-.08.696-.165v1.067c-.164.08-.328.165-.492.244a3.9 3.9 0 0 1-1.517.29c-.696 0-1.188-.204-1.431-.573-.079-.08-.125-.165-.125-.25V35.77a2.9 2.9 0 0 1 .82-1.272q.55-.492 1.721-.737c.407-.08.735-.165 1.024-.205m-6.546.205 2.003.777a7.5 7.5 0 0 1-1.307 1.765c-.453.494-.985.824-1.516 1.068-.572.25-1.228.368-1.964.368-.899 0-1.595-.125-2.048-.454-.492-.29-.82-.823-.985-1.561-.164-.738-.079-1.687.29-2.872.53-1.522 1.266-2.714 2.251-3.57 1.024-.824 2.167-1.233 3.48-1.233 1.063 0 1.799.244 2.252.699.25.29.407.619.532 1.067v1.146l-2.377.573c.04-.29 0-.494-.04-.659-.078-.204-.164-.369-.367-.494-.164-.125-.368-.164-.61-.164-.572 0-1.104.243-1.596.777-.368.369-.657.988-.94 1.851-.327 1.028-.406 1.765-.288 2.134.164.409.492.573 1.024.573.453 0 .9-.164 1.228-.454.368-.33.696-.777.985-1.357m2.98 2.114c-.124.409-.124.784 0 1.068zM84.014 3.188c.243.633.433 1.12.532 1.357l-.532.29V3.182zm0 1.753v4.565h3.873l-.288 1.02h-3.585v1.51h3.099l-.29 1.02h-2.81v1.555h2.325l-.341 1.166h-1.983v1.554h1.503l-.098.29h2.035l.486-1.798 1.983-6.653.486-1.364-1.209.046h-3.729l.243-.533c.046-.053.145-.29.29-.633h5.422l1.208.046.585-1.844-1.162.046h-3.342c.486-.534.965-1.021 1.405-1.509-.585-.243-1.116-.533-1.596-.922-.63.777-1.063 1.265-1.254 1.456-.243.244-.486.487-.774.731l.433.244h-2.902zm-6.146-.053 1.497.046h3.047a2 2 0 0 0-.145-.435c0-.099-.144-.487-.341-1.067.775-.343 1.405-.632 1.884-.922.046.244.145.487.197.678v1.654l-.197.099h.197v4.565h-3.532l-.289 1.02h3.821v1.51H79.7l-.289 1.02h4.596v1.555h-5.082l-.341 1.166h5.423v1.554h-5.856l-.099.343H76.07l.532-1.653 2.18-7.089.289-1.12 1.116.047h3.145c.19-.29.289-.488.289-.534l.289-.632h-5.424l-1.162.046.532-1.845zm26.039-.145c.099-.145.243-.389.388-.586.19.145.341.29.433.342l.775.587.243.197c-.729.679-1.307 1.311-1.839 1.845zm0 3.01.821-.046-.532 1.845h-.289zm0 9.862h.191l.584-2.134 3.047-10.152h1.45l-2.225 4.276.532.434c.288.244.485.534.584 1.021.144.435.144.969-.053 1.509-.144.533-.433.922-.82 1.12-.434.243-1.018.29-1.793.197l.099.587c.098.388.144.922.098 1.554 1.162-.244 1.983-.533 2.469-.876s.873-.678 1.208-1.12c.341-.388.578-.876.775-1.456.144-.58.19-1.12.144-1.554a2.7 2.7 0 0 0-.387-1.166c-.243-.29-.479-.633-.821-1.021l2.955-5.198h-3.973l-1.693-.046-.434 1.509-1.937 6.554v5.975zm-1.641-14.763h.144l-.144.534zm0 1.792.965-.046-.387 1.41c.19-.191.341-.435.532-.633.144-.145.288-.342.531-.632v2.378c-.289.244-.486.435-.728.632h.728v1.799l-1.116-.046h-.532V6.594c.046-.053.099-.145.191-.198h-.191V4.651zm0 5.929h1.018l-.631 1.897-.387 1.41zm1.641 1.067-1.162 3.788-.486 1.554v.633h1.648zm-2.271-8.788h.63v.534l-.289.823-.144.435h.433V6.39h-.63V2.846zm.63 6.654h-.63V7.128c.19-.1.387-.29.63-.534zm-.63 1.113.63-.046v3.3l-.433 1.364-.191.632v-5.243zm.63 6.363v.633h-.243zm-3.539-9.229h.19l.388-1.357h-.578V4.651h1.11l.144-.389.342-1.41h1.306v3.544h-.341l-.434 1.41a2 2 0 0 0 .434-.342c.052-.046.197-.145.341-.343V9.5h-.486l-1.306 1.12h1.792v5.244l-.387 1.455h-1.937l.098-.336h-.676v-1.6h1.162l.243-.824h-1.405v-1.554h1.891l.243-.778h-2.127V7.76zm-4.399 3.986c.82-.191 1.55-.534 2.226-.922.676-.343 1.306-.778 1.983-1.311h-1.648l-1.694.046.584-1.845 1.648.046h1.307v4.467H98.3l-.243.777h.677v1.555h-1.162l-.243.823h1.405v1.6h-1.885l-.098.337h-1.937l.63-1.89.775-2.669-1.503.778c-.046-.488-.197-1.114-.388-1.799m4.4-5.336h-.244l-1.45.047.531-1.845 1.162.046zm28.849 6.067c-.434 1.509-.677 2.477-.821 2.866-.144.534-.387.678-.676.678-.145 0-.243-.098-.099-.586l2.279-7.773h-5.181l-.827 2.82c-.046.098-.046.19-.098.29v4.466c.676-1.213 1.26-2.622 1.739-4.223l.145-.534.387-1.264h1.504l-1.937 6.7c-.341 1.165.19 1.797 1.595 1.797s2.325-.632 2.659-1.89l.874-2.912-1.55-.58v.145zm-5.417-5.974V5.81l.342-1.067h3.387c.046-.632-.052-1.212-.144-1.845h1.937c.098.633.19 1.213.144 1.845h3.487l-.532 1.746zm0-1.647.191-.58h-.191zm0 5.922c-.433 1.508-.965 2.767-1.595 3.788v2.911a15 15 0 0 0 1.595-2.233zm0-6.509v.58l-.341 1.021-1.261 4.13V4.309h.919l.677-.046zm0 1.555-.197.679h.197zm-1.602-2.18v-.876c.197 0 .342.046.532.046-.19.29-.341.58-.532.823m0 10.929a9.5 9.5 0 0 1-1.109 1.508v1.311l.63.633.098-.1c.145-.144.243-.29.388-.44v-2.912zm0-11.798v.876c-.144.243-.289.434-.387.678h.387v5.679l-1.109 3.688V8.09l.676-2.233h-.676V2.51c.341.099.728.145 1.109.244m-1.109 13.306c-.191.244-.434.435-.677.633l.677.678zm0-13.55v3.353h-1.451l-.289.968c.531-.099.971-.29 1.405-.435.046.343.046.587.098.778 0 .19.046.678.046 1.41q-.727.146-1.74.58c.046-.198.046-.436.099-.68v-.487l-.046-.58-.631 1.944h2.128l.387-1.265v5.586l-.965 3.155c0 .1-.145.244-.289.442-.197.19-1.018.336-2.515.487.046-.19.099-.434.099-.632s0-.389-.046-.58l-.099-.678c.243.046.486.046.677.046q.58.002.729-.145c.098-.099.144-.191.196-.389l1.353-4.466h-2.081l-.243.725c.532-.1 1.017-.244 1.405-.435.046.435.046.777.046 1.067 0 .244 0 .823-.099 1.6-.486.146-.774.245-.919.29l-.676.29c.144-.876.19-1.41.144-1.653l-.046-.777c-.046.197-.144.487-.243.823-.098.343-.288.777-.485 1.311-.243.58-.532 1.113-.874 1.746-.341.586-.82 1.264-1.451 1.943-.144-.198-.243-.389-.387-.534-.099-.145-.387-.388-.821-.73.197-.146.342-.343.532-.534.19-.198.433-.534.729-.969.289-.441.532-.975.775-1.6.243-.587.433-1.213.577-1.746l.243-.824-.965.046.486-1.653.965.053 1.064-3.498.433-1.6.827.045h.775c.197-.388.342-.632.342-.678l.531-1.212c.099.046.191.046.289.098m26.066 2.082 4.648-.046-1.116 3.643h-2.028l.63-1.845h-2.127V4.605zm0 12.628V15.48l1.451-.098-.578 1.897-.873-.046zm0-4.664v-1.12h.341zm0-2.042V9.064h3.243l-.433 1.456zm-7.938-5.922h5.66-1.504c.046-.487 0-.922-.144-1.357h1.937c.098.435.197.876.144 1.357h1.838v1.746h-7.937V4.598zm7.938 4.466v1.456h-1.359c-.821 0-1.405-.099-1.648-.435-.289-.29-.289-.876-.053-1.653l.434-1.509h1.74l-.388 1.41q-.218.731.578.731zm0 2.378v1.12l-.19.633h-4.261l-.723 2.279h5.181v1.745h-7.938v-1.745h.775l.676-2.28h-1.451V11.45h7.938zm-7.938-1.456V8.432c.873-.435 1.648-.975 2.226-1.6l1.503.533a12.7 12.7 0 0 1-3.729 2.621m-3.677-1.844 1.064-3.544h2.613v1.746h-1.063l-.486 1.798zm3.677.29v1.554c-1.116.534-2.324.877-3.532 1.068l-.387-1.41a15.5 15.5 0 0 0 3.919-1.212m0 3.01v1.746h-2.902l.532-1.798 1.694.046h.676zm0 4.032v1.745h-4.694l-1.793.047.578-1.898 1.747.1h4.162z" fill="#d71618"/></g><defs><clipPath id="clip0_597_3584"><path fill="#fff" d="M0 0h165v46H0z"/></clipPath></defs></svg>