<svg width="68" height="46" fill="none" xmlns="http://www.w3.org/2000/svg"><g clip-path="url(#clip0_583_3419)" fill="#00585d"><path d="M31.242 12.162c-.08.006-.174-.107-.214-.168-.014-.013-.06-.107-.047-.12.013-.014.107.013.134.033.06.047.114.114.14.235 0 .013-.013.02-.02.02m-1.988-1.1c-.054.02-.188-.133-.228-.2-.074-.107-.14-.221-.221-.322-.067-.1-.147-.16-.167-.321 0-.02-.014-.074 0-.074.073 0 .147.14.187.194.027.04.06.074.087.114.034.06.054.127.087.181.047.067.107.127.154.194.027.034.06.067.08.114.014.027.034.114.014.127m-.562-.033c-.04 0-.06-.034-.088-.054a.32.32 0 0 1-.127-.254c0-.014 0-.02.014-.02.087 0 .174.127.207.187.007.02.027.067.027.1q0 .032-.02.034m-1.908.389s-.007.02-.027.02c-.087 0-.114-.134-.154-.201-.034-.047-.06-.107-.094-.154-.027-.04-.053-.074-.073-.114-.027-.054-.034-.107-.067-.154-.014-.027-.047-.047-.06-.074a1 1 0 0 1-.128-.214l-.02-.094c-.013-.047-.04-.107-.054-.16 0-.028-.013-.081 0-.101 0-.007 0-.014.014-.014.067.014.134.181.167.242.04.066.094.12.134.187.027.067.034.14.067.201.027.047.067.08.094.127.04.054.06.134.093.195.027.073.08.127.108.194.013.034.02.08.006.114m-.361-2.586s-.034-.068-.047-.101c-.014-.04-.014-.074-.034-.107-.053-.12-.113-.255-.167-.369-.02-.047-.053-.14-.033-.2 0-.007.02 0 .026 0 .02.02.034.026.047.046.014.014.014.034.027.054.027.04.06.08.08.127.047.1.054.201.1.302.028.06.074.113.108.174.013.033.02.067.033.107.007.027 0 .06.007.087 0 .034 0 .054-.013.054-.08 0-.107-.107-.14-.168m18.037 7.987c-.107-.388-1.239-.22-2.17-.308a13 13 0 0 1-3.24-.683c-1.219-.43-2.404-.918-3.435-1.468 0 0-.422-.22-.469-.248-.08-.053-.147-.087-.24-.14a1 1 0 0 0-.181-.1c-.074-.034-.121-.075-.188-.108-.06-.04-.154-.08-.214-.12-.1-.061-.154-.101-.248-.168-.053-.04-.08-.054-.154-.094-.047-.027-.12-.074-.167-.1-.08-.054-.134-.101-.215-.155-.053-.04-.087-.06-.147-.1-.06-.034-.12-.08-.174-.12-.027-.02-.067-.048-.094-.075q-.088-.09-.187-.16c-.054-.047-.114-.1-.174-.141l-.134-.107c-.094-.067-.148-.114-.241-.181-.06-.047-.107-.107-.168-.154-.066-.047-.127-.107-.2-.148-.04-.033-.094-.073-.128-.114-.046-.053-.087-.087-.134-.14-.033-.04-.1-.08-.134-.12a1.6 1.6 0 0 0-.214-.209c-.047-.047-.06-.067-.08-.087a1 1 0 0 0-.067-.073l-.067-.068s-.034-.033-.087-.08a1 1 0 0 1-.074-.094c-.02-.027-.047-.06-.053-.073-.047-.054-.08-.08-.107-.114a.5.5 0 0 0-.08-.08.2.2 0 0 1-.048-.068c-.013-.02-.026-.047-.046-.06-.027-.034-.047-.02-.054-.013-.013.013-.02.04 0 .08.02.047.06.094.08.12 0 0 .007.014.014.014l.02.047q.02.028.04.067c.04.047.08.08.107.12l.04.04a1 1 0 0 0 .06.081c.02.034.04.06.067.094.014.007.02.02.034.04.007.014.02.034.033.047l.06.06c.034.034.074.067.101.1.027.021.054.054.08.081.067.08.141.161.201.242.034.046.1.08.141.107.053.033.08.087.12.134.027.033.087.087.114.12.067.087.12.141.208.201a.7.7 0 0 1 .14.134c.027.034.1.108.134.141.074.094.108.188.094.188-.053.013-.174-.1-.248-.141-.06-.04-.073-.054-.127-.1-.013-.014-.107-.08-.134-.114a2 2 0 0 1-.114-.121c-.1-.134-.14-.14-.26-.255-.088-.087-.195-.16-.282-.24a.4.4 0 0 1-.074-.081c-.026-.027-.06-.054-.087-.08-.04-.054-.093-.148-.14-.188a1 1 0 0 1-.134-.114c-.02-.007-.034-.034-.054-.047a.2.2 0 0 1-.073-.067c-.06-.067-.114-.148-.174-.221-.027-.04-.067-.067-.094-.1-.06-.081-.107-.162-.16-.242-.081-.107-.195-.18-.275-.288-.074-.107-.128-.235-.201-.349-.034-.053-.08-.087-.12-.134-.02-.026-.034-.06-.054-.093-.04-.06-.087-.121-.127-.181-.054-.074-.088-.161-.141-.242-.007-.013-.027-.06-.054-.107a1 1 0 0 1-.1-.147c-.034-.054-.054-.094-.08-.134s-.047-.08-.067-.107c-.014-.027-.054-.08-.067-.1-.054-.075-.06-.108-.114-.182-.034-.04-.067-.074-.087-.06s-.014.04-.007.06c.02.06.02.054.047.094.04.074.053.107.1.174.02.034.054.107.08.148.028.04.054.087.074.12.02.04.047.128.08.168.02.027.054.087.068.127.047.08.093.147.14.214.027.054.06.114.087.161.06.087.128.168.188.255l.1.188c.034.053.08.093.114.147.04.06.067.127.107.188.027.053.074.093.107.147.06.08.107.16.168.241.033.047.073.08.107.12.04.061.08.128.127.182.054.053.067.08.114.127.067.08.22.302.194.302-.094.013-.268-.188-.348-.262-.054-.06-.12-.1-.16-.154-.061-.08-.101-.174-.162-.248-.02-.027-.06-.053-.08-.08q-.058-.082-.127-.154c-.02-.02-.04-.034-.06-.054-.074-.094-.134-.194-.208-.295-.027-.04-.067-.073-.094-.114-.02-.027-.033-.06-.06-.093-.027-.047-.067-.088-.094-.134-.02-.034-.033-.067-.06-.094-.033-.06-.087-.107-.127-.168-.027-.047-.034-.107-.067-.16-.08-.121-.167-.242-.248-.37-.02-.033-.027-.066-.047-.1q-.088-.15-.187-.301c-.02-.034-.034-.08-.06-.114-.027-.047-.074-.08-.1-.127-.028-.034-.034-.067-.054-.108a1 1 0 0 0-.08-.147.4.4 0 0 0-.048-.094 3 3 0 0 1-.194-.375c-.033-.067-.08-.127-.114-.201-.033-.074-.073-.154-.107-.228-.02-.047-.04-.1-.053-.147-.04-.08-.094-.148-.134-.235-.027-.053-.04-.107-.06-.154-.014-.027-.04-.054-.06-.04s-.02.033 0 .08c.02.087.066.181.086.228.047.094.06.194.107.288.02.054.06.1.08.154l.121.268c.02.047.04.1.074.141a1 1 0 0 0 .047.08c.027.067.033.128.06.188.034.06.08.114.1.174.148.302.295.597.47.871.046.074.073.168.12.248.053.08.12.134.174.215.04.067.053.154.087.22.06.101.134.195.194.282.013.027.02.06.04.08.02.04.054.081.08.115.034.053.047.107.08.154.041.053.088.093.121.14.047.067.08.141.128.201.033.047.08.074.113.121.054.067.242.308.295.382.08.1.221.255.295.389.02.047.093.14.073.16-.04.027-.22-.167-.247-.2-.074-.074-.141-.175-.208-.255-.02-.02-.194-.188-.208-.208s-.033-.047-.046-.074c-.054-.067-.08-.154-.134-.227-.02-.027-.054-.047-.074-.074-.04-.054-.067-.114-.107-.168-.06-.08-.14-.154-.201-.24-.074-.088-.12-.202-.187-.296-.034-.047-.074-.08-.108-.134-.02-.02-.02-.047-.033-.067a.5.5 0 0 1-.074-.12c-.02-.04-.033-.074-.053-.108a10 10 0 0 0-.215-.341c-.033-.047-.053-.108-.08-.154-.054-.08-.127-.155-.174-.242-.067-.1-.1-.214-.16-.315-.04-.067-.094-.127-.135-.187-.047-.074-.067-.154-.107-.228-.04-.067-.087-.127-.12-.194-.034-.074-.054-.141-.087-.215-.02-.04-.047-.08-.067-.12-.02-.047-.027-.1-.054-.148-.06-.134-.154-.268-.22-.402q-.07-.15-.128-.301c-.02-.054-.027-.114-.053-.161-.054-.12-.128-.255-.181-.382-.02-.067-.047-.134-.067-.194q-.002-.03-.014-.06c-.027-.061-.06-.115-.08-.175a2 2 0 0 1-.067-.208c-.087-.22-.167-.469-.254-.697-.007-.04-.014-.093-.027-.134-.04-.12-.087-.24-.127-.355-.027-.06-.08-.04-.067.02.013.08.026.1.04.168l.02.094c.007.04.033.08.04.12.02.074.027.141.047.208l.1.281c.007.047.02.094.027.148q.029.072.047.134c.047.12.094.234.134.355q.021.099.053.208c.02.04.047.073.06.114.02.026.02.06.034.1.034.074.06.154.094.228.027.06.067.127.094.194.013.027.013.06.02.087.073.201.154.416.24.603.02.047.028.094.048.148.02.04.047.08.06.12.007.027.02.054.027.08.026.055.067.101.1.155.074.154.14.308.234.442.088.12.128.288.188.436q.052.099.114.187c.02.034.033.074.047.101.04.074.06.14.12.208.04.06.034.073.067.147.007.02.047.168.04.168-.013.006-.087-.034-.107-.067-.033-.034-.087-.08-.12-.161a2 2 0 0 0-.074-.148c-.047-.1-.127-.18-.18-.268-.034-.047-.054-.114-.081-.167-.047-.1-.1-.208-.154-.315-.02-.04-.054-.08-.08-.127-.027-.04-.04-.088-.067-.128-.054-.087-.12-.187-.168-.288-.033-.074-.053-.147-.087-.214-.007-.02-.027-.047-.04-.067-.02-.034-.034-.074-.053-.114-.027-.054-.06-.107-.088-.168-.053-.114-.08-.228-.134-.335-.026-.053-.067-.1-.087-.147-.033-.08-.04-.174-.08-.261-.094-.215-.2-.443-.288-.67-.013-.04-.013-.08-.027-.121-.033-.1-.08-.194-.12-.288-.014-.047-.02-.08-.034-.128-.026-.067-.06-.14-.08-.207-.007-.02-.007-.047-.02-.074-.027-.06-.047-.134-.074-.201-.013-.034-.04-.067-.053-.107-.027-.067-.02-.148-.04-.215-.034-.093-.074-.194-.108-.281-.013-.054-.02-.107-.04-.16l-.067-.189c-.026-.067-.02-.127-.046-.2a1 1 0 0 0-.054-.148c-.034-.094-.047-.188-.074-.275 0-.013-.006-.026-.013-.047-.007-.026-.027-.046-.047-.04-.027.007-.027.047-.027.067 0 .06.034.12.054.181.02.054.033.114.047.168.006.04 0 .073.013.114.013.053.034.1.047.154.013.047.007.1.02.14.034.114.067.242.107.342.014.054.02.12.034.168q.03.091.06.174c.02.053.02.094.04.134.02.053.047.1.067.154.02.067.02.134.04.201.04.107.087.208.127.315.014.033.014.074.027.114.034.087.054.18.087.275.047.12.107.247.148.375.046.12.053.268.107.382.026.06.08.094.107.147.02.04.013.074.026.12a1 1 0 0 0 .054.135c.014.04.02.08.034.12.02.047.053.094.073.134.034.074.054.155.094.215.027.047.074.094.1.154s.04.127.06.188c.04.093.094.18.128.281.033.087.047.18.087.255.04.08.094.147.14.227.027.06.047.114.074.175.02.04.06.087.094.134.027.053.067.12.087.174.02.047.027.087.053.127.04.06.067.107.108.168a1 1 0 0 1 .093.18q.028.081.067.141.052.06.094.12c.027.048.06.195.047.195-.027.014-.114-.073-.14-.1-.068-.087-.108-.201-.168-.288-.067-.1-.114-.155-.16-.262-.034-.067-.081-.18-.121-.24-.034-.055-.08-.101-.107-.162-.02-.047-.034-.107-.054-.16-.033-.074-.1-.121-.134-.188-.04-.08-.06-.168-.1-.248-.02-.034-.047-.074-.06-.114-.02-.047-.034-.094-.06-.147-.048-.1-.121-.181-.162-.289-.053-.1-.08-.207-.133-.314-.027-.054-.067-.101-.094-.161-.04-.074-.054-.148-.094-.228-.02-.047-.053-.087-.073-.134-.027-.06-.04-.134-.067-.201q-.11-.231-.208-.462c-.027-.06-.034-.121-.06-.181-.02-.054-.054-.1-.074-.155-.06-.134-.08-.294-.14-.422a2 2 0 0 1-.094-.207c-.04-.121-.06-.235-.1-.356-.068-.18-.121-.375-.181-.549-.02-.06-.02-.107-.04-.16l-.061-.162c-.013-.04-.02-.107-.033-.16a13 13 0 0 0-.148-.463c-.006-.04-.013-.1-.026-.154 0-.027-.02-.06-.027-.08-.014-.034-.014-.06-.02-.1-.04-.115-.074-.242-.107-.356-.007-.033-.007-.087-.02-.127-.054-.154-.074-.355-.134-.503-.014-.027-.034-.053-.06-.047-.028.007-.02.04-.02.06.006.074.033.135.046.202v.093c0 .027.013.067.02.088l.087.301c.007.047 0 .114.014.168.04.147.067.328.127.469.053.12.06.268.093.402a.7.7 0 0 1 .02.174c.014.053.04.094.06.14.014.034.014.068.028.101.026.094.047.194.087.288.02.067.06.134.08.201.013.027 0 .054.013.087.014.067.027.134.054.201.047.128.087.275.134.402.027.074.033.148.06.222.1.281.214.57.315.85.02.06.033.121.053.181.02.067.06.121.087.175.034.073.04.154.067.227.034.088.08.161.107.255q.023.07.054.14c.014.034.047.068.067.095.02.06.027.134.054.187.026.06.073.1.107.154.033.047.033.108.06.168.04.087.087.16.127.255.02.04.027.073.04.107.014.04.054.08.067.127v.027q.002.03.014.06c.006.027.04.067.047.08l.04.054c.006.007.013.02.02.027.04.054.04.14.073.208.027.067.08.114.114.18.02.054.034.175.007.181-.127 0-.14-.18-.18-.268-.04-.073-.088-.134-.128-.207a.3.3 0 0 1-.027-.067c-.007-.02-.02-.047-.027-.074-.013-.033-.013-.033-.026-.054-.014-.02-.047-.067-.06-.093-.054-.08-.088-.195-.121-.248-.02-.034-.047-.06-.06-.094-.034-.047-.047-.107-.074-.168l-.087-.147c-.027-.06-.034-.14-.06-.208-.014-.033-.047-.067-.06-.1-.034-.074-.054-.154-.094-.228l-.06-.1c-.027-.06-.047-.128-.074-.188-.067-.12-.14-.248-.194-.375-.034-.08-.047-.155-.08-.228-.027-.06-.068-.128-.095-.188-.02-.04-.026-.08-.04-.12-.026-.074-.06-.148-.087-.222-.013-.047-.026-.154-.04-.2a2 2 0 0 0-.073-.161c-.034-.08-.047-.161-.08-.242-.028-.06-.054-.127-.081-.187-.02-.054-.02-.1-.047-.154-.014-.034-.04-.08-.054-.121-.02-.047-.026-.12-.046-.18-.02-.068-.054-.135-.074-.202-.014-.047-.014-.167-.034-.194-.067-.208-.134-.43-.2-.637-.027-.094-.04-.187-.067-.281-.007-.04-.007-.087-.02-.12-.02-.061-.047-.121-.06-.182a1 1 0 0 1-.028-.127c-.013-.04-.033-.087-.046-.134-.04-.12-.06-.255-.094-.375-.014-.054-.014-.121-.027-.168-.047-.147-.06-.322-.1-.482-.007-.047-.02-.087-.027-.134-.074-.295-.114-.623-.194-.905-.014-.054 0-.12 0-.18a3 3 0 0 0-.06-.182c-.007-.033-.007-.053-.014-.08-.013-.054-.04-.087-.06-.08-.034.013-.027.04-.027.08 0 .067.013.12.027.174.006.047 0 .08.013.127.027.087.04.221.047.302a.4.4 0 0 0 .013.12c.007.04.04.101.054.141.007.06.007.14.013.208q.019.08.047.16c.014.048 0 .088.014.135.013.047.04.087.046.127.007.06 0 .134.014.181.067.261.08.563.16.81.007.041.007.074.02.108.068.214.114.456.181.67 0 .034 0 .067.014.107.02.074.04.161.053.235.014.033.014.067.02.1.02.08.054.161.08.242.014.04.014.073.02.113 0 .034.021.067.034.094.014.047.007.094.02.128.007.026.034.053.04.08a1 1 0 0 0 .027.134c.014.054.047.107.067.16.02.048.02.088.034.135.033.08.067.167.094.248.026.067.026.134.053.2.014.04.034.088.047.135q.018.048.027.107a1 1 0 0 0 .073.127c.014.047.007.114.027.161.014.054.047.094.067.14.014.054.014.101.027.148.013.04.04.074.053.114.014.04.034.087.047.12.007.028.034.061.047.088l.06.147c.034.067.034.161.06.241.008.02 0 .08-.013.088-.033 0-.067-.047-.093-.08-.034-.054-.074-.115-.1-.182-.008-.027-.014-.047-.02-.073q-.031-.082-.061-.175c-.014-.033-.034-.067-.047-.107-.02-.053-.007-.114-.027-.16-.013-.04-.047-.068-.067-.108-.013-.033-.013-.074-.033-.107q-.028-.06-.067-.12c-.014-.04-.014-.074-.027-.128a1 1 0 0 0-.053-.154c-.02-.054-.054-.1-.074-.154q-.009-.04-.027-.08c-.013-.04-.033-.081-.047-.115a.3.3 0 0 0-.027-.087q-.03-.062-.06-.134c-.013-.04-.013-.073-.033-.114-.02-.067-.04-.14-.067-.2-.014-.054-.02-.101-.034-.148-.02-.06-.047-.114-.067-.174-.02-.047-.02-.1-.033-.148-.02-.067-.054-.12-.074-.187-.013-.054-.013-.107-.02-.154-.04-.121-.08-.255-.12-.382-.04-.141-.047-.302-.087-.443-.027-.1-.06-.194-.094-.294-.014-.054-.014-.1-.027-.155a5 5 0 0 0-.107-.368c-.02-.06-.014-.127-.034-.194s-.02-.141-.04-.215c-.013-.047-.027-.074-.04-.127s-.013-.12-.02-.16c-.007-.048-.08-.29-.087-.336 0-.04 0-.127-.014-.154 0-.02-.04-.134-.046-.154-.007-.027-.007-.06-.02-.12-.007-.054-.04-.175-.047-.209-.007-.033-.007-.107-.014-.14a.7.7 0 0 0-.047-.174c-.02-.067 0-.148-.026-.215-.014-.053-.034-.094-.054-.147-.007-.04-.02-.094-.02-.12-.007-.034-.007-.115-.007-.142 0-.04-.02-.107-.02-.167a.8.8 0 0 0-.033-.208c-.007-.027 0-.067-.007-.087-.02-.074-.04-.147-.087-.14-.027 0-.04.026-.027.08.014.06.02.107.034.167a.5.5 0 0 1 .013.134c0 .047 0 .054.007.094 0 .013.007.06.007.074.006.027.02.067.02.087v.161c.013.033.013.04.02.067v.073c0 .027 0 .047.013.08.013.054.054.128.04.202a.5.5 0 0 0 .027.228c.007.047 0 .093.007.134l.047.187c.013.054.006.1.02.148.02.067.067.16.067.187.006.034 0 .114.013.168.007.053.02.114.027.147v.067c0 .027.04.141.04.174.007.034 0 .047.013.08.007.034.034.162.04.202.007.04 0 .067.007.107.014.067.04.12.054.181.013.047.007.074.013.114.014.054.034.107.04.16.007.041.007.088.014.128.02.094.033.188.053.275.02.053.047.107.067.154.014.047.014.094.027.14.013.04.04.081.054.128.006.033 0 .074.013.114s.034.08.04.134c.014.033 0 .06.014.1.013.04.033.074.04.108.006.046.006.1.02.14q.021.081.053.161c.02.047.014.1.02.148.034.113.067.234.108.335.02.053.013.113.026.174.014.04.034.067.054.1.013.034 0 .074.013.114.02.074.027.161.054.228.02.074.067.14.094.208.026.073.026.154.053.228.027.067.054.134.08.187.02.06.014.128.04.188.02.067.061.114.088.174.033.074.047.147.067.221.006.034.013.06.02.094.027.094.08.174.114.261.013.047.013.08.026.114.02.067.054.134.08.201.027.054.061.107.088.168.027.053.027.107.053.16.014.054.04.108.06.161.014.034.014.06.027.1.06.142.141.289.208.43.04.073.053.16.087.24.027.068.06.122.094.189.013.04.02.08.04.12.033.074.087.154.12.235.007.013.034.1.02.134v.006c-.02.007-.073-.033-.1-.06-.094-.094-.107-.261-.167-.382q-.03-.048-.06-.107a.2.2 0 0 0-.027-.067c-.04-.08-.087-.14-.128-.228-.026-.053-.033-.12-.053-.174-.107-.228-.228-.442-.328-.67-.047-.1-.06-.221-.094-.335-.027-.067-.067-.12-.094-.181-.02-.047-.026-.1-.053-.148-.034-.067-.074-.127-.094-.2-.013-.047-.02-.094-.04-.135-.02-.053-.054-.093-.074-.14-.027-.074-.033-.148-.06-.228-.014-.04-.027-.087-.047-.127-.013-.034-.013-.074-.027-.114-.026-.087-.08-.161-.114-.248-.02-.06-.013-.134-.04-.195-.02-.046-.06-.087-.08-.134-.02-.053 0-.113-.014-.174-.013-.06-.04-.114-.06-.167a.4.4 0 0 0-.026-.1q-.042-.11-.074-.209c-.014-.04-.014-.067-.027-.107-.02-.04-.053-.073-.067-.127-.02-.067-.02-.14-.04-.208-.027-.087-.06-.16-.087-.248-.014-.027-.014-.053-.014-.08-.02-.08-.033-.168-.053-.241-.014-.04-.007-.074-.014-.108a2 2 0 0 0-.073-.214c-.014-.047-.014-.094-.027-.134-.033-.114-.067-.248-.1-.362-.007-.033 0-.06-.014-.094-.02-.087-.06-.194-.08-.281-.007-.054-.007-.107-.02-.154-.013-.06-.034-.12-.047-.181v-.074c-.007-.04-.007-.08-.013-.114-.04-.16-.1-.348-.134-.509-.014-.06-.014-.114-.02-.167a.4.4 0 0 0-.02-.128c-.014-.04-.034-.08-.04-.127-.007-.067-.007-.134-.02-.201v-.014c-.007-.08-.054-.247-.061-.308-.013-.08-.02-.154-.034-.234 0-.047-.013-.1-.013-.154-.013-.08-.033-.154-.04-.235 0-.06 0-.107-.007-.154 0-.034-.006-.08-.047-.08-.04 0-.033.04-.033.08 0 .08.013.194.02.248.013.094 0 .194.013.288.007.054.027.114.034.16.013.095.02.188.033.276 0 .046 0 .087.014.127v.027s.006.04.013.053c.007.034.007.06.014.1.026.108.02.229.053.336.04.154.06.321.114.482.013.04 0 .087.013.141.02.047.027.094.04.14.014.061 0 .121.02.182.014.053.034.114.047.167.02.06.02.127.04.194q.032.113.054.215c.02.08.02.174.04.255.014.073.054.154.067.234v.08c.014.054.027.114.04.161 0 .027 0 .047.014.074l.087.328.02.087.053.161.02.114c.014.054.034.1.04.148.008.04.014.073.028.107.013.047.033.087.047.127.026.087.033.188.066.275.02.053.047.1.06.154.014.054.02.114.034.174.027.087.06.188.094.275.04.107.06.221.094.315.013.04.013.08.026.127.034.094.06.208.094.308.02.054.02.108.04.154.034.08.08.155.114.242.027.073.034.147.06.214.034.094.074.181.114.282.02.067.034.134.06.2.02.047.054.108.08.161.02.047.041.094.048.141.013.034.053.1.08.147.027.067.034.134.06.208.04.107.094.221.134.322.02.04.02.074.04.12.027.067.074.121.1.188.028.06.041.127.061.188.04.087.074.14.074.268 0 .006 0 .02-.014.02-.02.007-.046-.027-.067-.04-.067-.074-.073-.134-.12-.228-.067-.14-.147-.275-.214-.409-.027-.067-.047-.147-.08-.221-.02-.047-.048-.094-.068-.14-.033-.061-.047-.128-.08-.188a2 2 0 0 1-.12-.282c-.02-.04-.02-.074-.034-.107l-.06-.114c-.02-.06-.04-.134-.06-.194a8 8 0 0 1-.155-.349c-.033-.114-.06-.214-.1-.328-.013-.04-.04-.094-.054-.14-.013-.048-.013-.081-.026-.121-.04-.1-.087-.208-.128-.302-.02-.047-.026-.094-.046-.147a2 2 0 0 0-.074-.195c-.027-.073-.034-.167-.06-.261-.067-.174-.148-.369-.208-.563-.007-.047 0-.087-.02-.134a3 3 0 0 1-.094-.308c-.033-.114-.026-.235-.067-.348-.046-.141-.093-.289-.14-.43-.014-.046-.007-.086-.02-.133-.034-.114-.067-.242-.107-.342-.02-.047-.02-.107-.04-.154-.02-.06-.081-.04-.081.027 0 .06.027.134.034.16.006.047.006.088.013.128.013.073.04.14.06.207.02.074.02.141.047.215.013.033.027.08.034.114.026.073.026.154.053.22.02.055.034.122.054.175.013.04.006.074.02.107.013.067.04.141.06.201.013.04.007.074.013.114q.019.082.047.154c.014.054.014.121.027.168.034.094.067.194.1.281.034.094.034.201.074.302.067.18.12.382.188.556.02.047.013.094.026.14.02.074.034.155.06.229.014.033.04.073.054.107.02.04.02.087.047.134.013.033.04.073.054.107.02.06.013.127.04.18.013.048.04.088.053.135.02.047.02.1.04.147.02.04.047.08.067.12.02.041.02.081.04.122.014.04.04.087.06.127.021.04.021.094.041.14.013.04.047.081.06.121.014.047.014.094.034.14.027.075.067.128.1.202.02.047.02.1.047.147.027.06.06.121.087.175.034.073.067.154.094.227.06.128.08.268.134.396.047.087.1.18.147.268.02.053.027.107.054.154.026.06.073.1.093.16q.03.08.06.168c.034.067.081.134.114.201.02.04.027.08.047.114.034.08.094.14.128.221.02.047.04.1.053.148.04.08.1.147.14.227.027.068.048.128.081.181.054.088.094.141.147.235.034.053.08.14.107.194.027.067.074.114.108.175.026.06.06.12.093.18.04.067.074.108.114.168.067.1.107.2.168.301l.14.201c.127.175.308.49.388.597.067.08.121.187.175.274.046.074.107.141.154.202l.113.174.034.04c1.634 2.077 3.32 3.458 4.74 4.362.757.47 1.159.603 1.159.603.093.04.026.107-.02.14l-8.443 5.408s-.094.06-.067.12c.02.041.107.014.134.008 6.775-2.38 11.69-4.336 14.696-5.763 3.047-1.447 4.071-2.278 3.964-2.687M22.518 44.15c.308-.388.616-.723 1.252-.723v-.087h-1.6c-.47 0-.978-.094-1.661.81l-.757.979c-.308.389-.602.724-1.238.724v.087H20.1c.468 0 .957.074 1.667-.811l.756-.978z"/><path d="M25.744 40.713c0-.255.201-.71.516-.71v-.08h-2.692v.08c.322 0 .516.456.516.71v3.29c0 .442-.007.898-.583.898-.388 0-.609-.107-.917-.456h-.087l.79 1.428c.268.033.409.06.777.06s1.674 0 1.674-1.93v-3.29z"/><path d="M20.281 42.234c.85.932 1.313.811 1.781.811h1.68v-.087c-.642 0-.97-.342-1.332-.724l-.1-.1c-.864-.932-1.312-.811-1.781-.811h-1.694v.087c.636 0 .984.328 1.346.724zm7.003 1.916c-.308-.388-.609-.723-1.252-.723v-.087h1.6c.462 0 .971-.094 1.661.81l.763.979c.308.389.596.724 1.239.724v.087H29.7c-.468 0-.95.074-1.667-.811l-.756-.978zm2.357-4.301-.595-.47c-.804-.63-1.22-.91-1.554-1.031h2.732c.69 0 1.245.322 1.245.717h.08v-1.628h-5.798V36.37h3.482c.683 0 1.245.322 1.245.717h.08V35.46h-4.807v-.931h4.225c.69 0 1.245.321 1.245.716h.08v-1.628h-5.55c0-.254.201-.717.516-.717v-.08h-2.692v.08c.322 0 .516.456.516.717h-5.578v1.629h.08c0-.396.556-.718 1.246-.718h4.252v.932h-4.828v1.628h.087c0-.395.556-.717 1.246-.717h3.501v1.066h-5.825v1.628h.08c0-.395.556-.717 1.246-.717h2.732c-.335.12-.743.402-1.553 1.032l-.596.469c-1.393 1.025-1.42 1.025-1.915 1.025v.1h1.881c.656 0 .924-.006 2.357-1.132l.596-.469c1.218-.958 1.312-1.025 1.814-1.032.51 0 .596.067 1.815 1.032l.596.47c1.433 1.118 1.7 1.131 2.357 1.131h1.881v-.1c-.489 0-.522 0-1.915-1.025m-.121 2.385c-.85.932-1.312.811-1.781.811h-1.68v-.087c.642 0 .964-.342 1.332-.724l.1-.1c.864-.932 1.306-.811 1.781-.811h1.701v.087c-.636 0-.984.328-1.346.724l-.1.1zm-17.656 1.16a1.39 1.39 0 0 1-1.38 1.373H2.378V33.805h9.494zM0 32.894v.087c.395 0 .71.85.71 1.534v9.837c0 .69-.315 1.246-.71 1.246v.08h11.376a2.157 2.157 0 0 0 2.156-2.164V32.887H0z"/><path d="M5.644 40.733a.36.36 0 0 1-.361.362h-.938v-2.633h1.3zm-2.624-3.19v4.464h2.67c.703 0 1.279-.57 1.279-1.274v-3.19z"/><path d="m10.084 41.953-.335-1.26c.428-.884.93-1.936 1.004-2.084.221-.449.348-.83.737-.978v-.08H9.515v.06c.334.127.375.449-.02 1.253-.054.1-.1.2-.148.301l-.73-2.754h1.393c.937 0 1.212.322 1.245.543h.08v-1.46h-.81c.329-.73.456-.925.737-.959v-.08H9.233v.053c.288.108.355.382.087.985h-.957c-.154-.603-.047-.864.268-.978v-.06H6.053v.087c.562.114.723.496.844.951H3v1.461h.08c.034-.22.301-.543 1.246-.543H7.13l1.245 4.751c-.676 1.354-1.084 1.83-2.055 1.83H4.279c-.73 0-1.226-.181-1.44-.51h-.08l.817 1.42h2.839c1.057 0 1.774-.455 2.363-1.326.228.704.529 1.374 1.493 1.374h1.098v-.06c-.683-.269-.89-.53-1.279-1.93m37.066-7.994c0-.61.201-.979.516-.979v-.08H44.98v.08c.315 0 .516.376.516.979h-2.39v1.628h.08c0-.395.556-.717 1.245-.717h3.83c.683 0 1.245.322 1.245.717h.08v-1.628zm.027 9.897c0 .656-.073 2.137 1.28 2.137.394 0 .709-.147.876-.201.241-.583.543-1.253.543-1.253h-.08s-.235.415-.704.415-.415-.723-.415-1.011v-6.111c0-.57.107-2.165-1.634-2.165h-2.832v6.46c0 2.211-.174 3.719-1.01 3.719v.08h1.01c1.433 0 1.5-1.648 1.5-3.719v-5.541h.623c.756 0 .836.616.85 1.373v5.904m-7.606-6.433c.154.958.355.958.844.958h.582v-.087c-.154 0-.361-.261-.455-.878l-.194-1.233c-.154-.951-.355-.958-.844-.958h-.582v.087c.154 0 .361.262.455.871l.2 1.233zm0 5.273c.154.959.355.959.844.959h.582v-.08c-.154 0-.361-.262-.455-.878l-.194-1.233c-.154-.959-.355-.959-.844-.959h-.582v.088c.154 0 .361.26.455.877l.2 1.233z"/><path d="M38.82 39.078v-4.456h2.344v4.456zm3.844 0v-5.454H39.41l.027-.054c.355-.596.71-.857.87-.857v-.08h-1.125c-.542 0-.77 0-1.319.937l-.716 1.213c-.348.596-.703.858-.864.858v.087h1.045v3.35h-.81v1.628h.08c0-.288.294-.536.723-.65v2.078c0 2.21-.174 3.719-1.011 3.719v.08h1.004c1.44 0 1.5-1.648 1.5-3.719V39.99h2.344v4.073c0 .443-.027.898-.744.898-.388 0-.609-.107-.924-.455h-.087l.797 1.427c.261.034.408.06.77.06s1.68 0 1.68-1.93v-4.007c.422.114.717.362.717.65h.08v-1.628h-.796zm17.676-5.132c0-.61-.2-.979-.515-.979v-.08h2.692v.08c-.315 0-.516.376-.516.979z"/><path d="M66.012 36.686s.12-.61.24-1.119c.182-.77-.394-.703-.83-.703h-8.858v1.829h-1.667V35.58c0-.69-.321-1.542-.71-1.542v-.08H66.3c.495 0 2.008-.148 1.647 1.514l-.281 1.227h-1.647z"/><path d="M56.002 39.5c.65 0 .924-.006 1.888-1.125l1.453-1.662c.616-.724.87-1.032 1.466-1.032v-.1h-1.506c-.656 0-.924 0-1.889 1.125l-1.452 1.662c-.616.717-.87 1.025-1.46 1.025v.1h1.506zm4.312 1.455v3.826h-4.486c-.69 0-1.246-.322-1.246-.71h-.087v1.628H67.78V44.07h-.08c0 .396-.556.71-1.246.71h-4.479v-3.825h3.816c.69 0 1.246.321 1.246.717h.08v-1.629H55.158v1.629h.087c0-.396.556-.717 1.245-.717zm5.979-1.455c-.656 0-.918-.006-1.888-1.125l-1.453-1.662c-.616-.724-.87-1.032-1.467-1.032v-.1h1.507c.656 0 .917 0 1.888 1.125l1.453 1.662c.623.717.87 1.025 1.466 1.025v.1h-1.506z"/></g><defs><clipPath id="clip0_583_3419"><path fill="#fff" d="M0 0h68v46H0z"/></clipPath></defs></svg>