<svg width="228" height="47" fill="none" xmlns="http://www.w3.org/2000/svg"><g clip-path="url(#clip0_572_1835)"><path d="M5.374 39.054c.459 2.012.384 5.336-.931 6.991-1.886 2.394-3.698-.23-4.157-2.216-.51-2.126-.435-5.844 1.08-7.538.52-.675 1.364-1.108 2.134-.547 1.203.853 1.452 1.935 1.874 3.31" fill="#b6002a"/><path d="M3.612 41.665c.086.229-.125.598.248.675.248.203.819.127.77.522-.46-.026-.807-.459-1.353-.344-.274.05-.522.216-.795.305-.037-.038-.087-.076-.062-.14.273-.216.67-.216.919-.47v-.701c.136-.166.31-.026.273.14m.446 1.566c.26.255.087.598.124.93 0 .738 0 1.35.174 2.05 0 .089-.037.19-.124.229-.087 0-.1-.09-.15-.127-.061-.955-.148-1.885-.173-2.853-.062-.242-.41-.089-.57-.127-.088 0-.175.064-.237.127-.05.955 0 1.948-.16 2.929-.026.038-.075.038-.113.038l-.05-.076c.088-.98.063-2.063.137-2.993.112-.152.335-.292.559-.267.198-.026.422.05.595.127m-2.047 1.618c.025.229 0 .407 0 .598.025.23-.062.446-.087.675 0 .115-.087.204-.037.318h.112c.186-.102.16-.33.186-.522.05-.229 0-.395.05-.586.024-.432.024-.789.037-1.184v-.242c.074-.356 0-.777-.025-1.146-.124-.356-.534-.382-.832-.47-.087-.052-.111-.166-.124-.243.075-.165.26-.216.422-.23.062-.024.1-.024.15-.037.098-.038.16-.051.247-.064.075 0 .087-.076.087-.153-.136-.203-.298.026-.471.026-.211.089-.608.076-.646.42-.037.153.038.28.124.382.062.05.124.115.273.127.199.064.472.077.559.293 0 .102.025.331.025.395v.242c.05.14 0 .28 0 .42-.05.115-.236.051-.335.064-.087-.051-.211 0-.286-.09a1 1 0 0 1-.025-.394c.186-.09.335-.064.522-.166 0 0 0-.025.024-.038v-.064s-.024-.025-.037-.05c-.124-.128-.149 0-.322 0h-.1c-.248 0-.074-.319-.161-.446-.037-.026-.075-.127-.149-.09-.161.128 0 .332-.025.51.037.471.037.98-.05 1.464.05.217-.05.497-.037.739-.037.102 0 .216-.05.318 0 .115-.099.28 0 .37.05-.051.1-.064.137-.14.05-.332.124-.65.15-.981 0-.064.049-.115.11-.09.162 0 .2.103.336.115.21-.05.074-.203.037-.229-.174 0-.149-.089-.31-.114-.05 0-.162.025-.137-.051 0-.115 0-.268.05-.37.136-.038.285 0 .434 0 .05 0 .186.026.199.09.025.165 0 .458-.037.624m2.705-5.705-.223-.038c-.087-.064-.162-.102-.261-.166-.186-.153-.484-.242-.683-.446-.198 0-.273.191-.459.306-.025.013-.062.051-.087 0 .075-.153.224-.23.335-.344.075-.05.15-.089.211-.14.137.051.187.14.286.191.161.077.236.166.372.23.15.089.236.14.36.19.074.051.26.026.174.217z" fill="#fff"/><path d="M4.356 36.826c0 .089-.124.127-.223.14-.137 0-.162.038-.273.102-.025.038-.063.089-.038.14 0 .102.174.14.273.178.038 0 .062.038.05.076-.05.026-.112 0-.161 0-.174.039-.36-.038-.522 0-.074.026-.086 0-.186.039-.05 0-.074 0-.111.025-.112.038-.298 0-.31.115-.025.114-.05.242-.05.382 0 .05 0 .127-.038.19 0 .179.038.46.075.714v.165c.1.115.285.039.36.051h.335c.112.026.223 0 .335.038 0-.012.062.026.074.039 0 .05-.062.063-.111.063-.087 0-.186 0-.298-.012-.26 0-.46.038-.757.025h-.385s-.161.013-.186.013c-.149 0-.174 0-.323-.026-.037-.025-.111.013-.124-.05-.024-.051.05-.051.075-.064h.422c.186 0 .273 0 .384-.064.025-.05 0-.102.025-.14 0-.204-.05-.408-.025-.65.025-.127 0-.305.025-.432 0-.115 0-.395.1-.459l.372-.102c.136 0 .248-.012.397 0a.24.24 0 0 0 .198-.127c0-.076-.05-.153-.124-.166-.087-.012-.087 0-.198-.025-.062-.013-.137 0-.186-.076-.137-.179-.174-.42-.137-.65 0-.038.05-.102.1-.05.074.088 0 .178 0 .267-.025.216.099.305.173.356.087.038.112.026.211 0 .1-.076.05-.203.087-.305 0-.166.025-.242.087-.395.062 0 .062.076.087.127v.077c0 .14-.025.305.037.47.05.064.05.052.124.052.1-.038.186-.09.199-.204.037-.102-.05-.331.111-.344.05 0 .037 0 .05.038v.472z" fill="#fff"/><path d="M4.344 38.29s-.112 0-.15-.038c-.11-.153-.434-.216-.545-.318-.162-.064-.174 0-.286.063-.062.077-.149.115-.223.153-.062.064-.075.077-.137.09-.024 0-.062-.039-.037-.064.075-.077.112-.115.174-.166.124-.076.26-.178.385-.267.124.063.384.152.52.203.1.115.261.153.348.268 0 .038-.025.05-.062.064m-.596 2.1c.05.179 0 .51-.074.574-.075.101-.15.101-.224.127-.235.025-.173.038-.397.063l-.36.039c-.223 0-.397.025-.632 0-.112 0-.236-.038-.348-.077-.025-.038-.087-.038-.087-.114 0-.064.137-.038.248-.038.211 0 .422.038.646.025.223-.025.298 0 .583-.025a.7.7 0 0 0 .223-.064c.199-.077.174-.077.236-.268.025-.178 0-.229-.186-.28-.223-.063-.385 0-.521-.165-.1-.14.025-.319-.186-.42a2 2 0 0 1-.497.025h-.496c-.062 0-.075-.013-.149-.013-.025-.038-.1-.076-.037-.127.074-.038.149 0 .223-.026h.732c.174-.012.335 0 .521 0 .15 0 .273.013.385 0 .112 0 .174.026.248.013.137-.025.236 0 .348 0 .161.013.223-.038.36 0 .05 0 .062.077.099.09-.025.025-.025.063-.062.076-.124.05-.223.012-.397.012-.112.026-.224 0-.372.026-.087-.026-.199-.026-.323-.038-.087 0-.161 0-.236.025 0 .102 0 .191.1.268.086.063.272.063.396.076.112.038.249.05.298.178M2.73 36.342c-.024.178.025.51-.16.675-.15.038-.348-.026-.448.127-.086.127 0 .255-.024.408.05.165.21.229.31.369a.5.5 0 0 1 .112.19c-.038.026-.075.04-.112.014l-.037-.039-.062-.076s-.124-.14-.187-.153c-.26 0-.397.242-.595.37-.062.05-.124.101-.199.152-.05.051-.087.077-.124.115a.54.54 0 0 1-.248.14l-.025-.038s.112-.102.174-.14c.136-.166.285-.344.484-.446.136-.127.335-.23.41-.42a.26.26 0 0 0-.075-.166c0-.114.05-.242-.087-.305a.57.57 0 0 1-.36-.128.8.8 0 0 1-.112-.815h.025c.124.026.075.153.087.255 0 .14.037.293.137.395.037.05.099.102.161.114.062 0 .124-.05.124-.101.075-.191-.037-.37.037-.56 0-.052 0-.14.062-.166l.124.025c0 .128-.05.23-.037.37 0 .114-.025.241.062.318.038.05.1.063.162.038.149 0 .235-.153.26-.255 0-.153.037-.293.025-.395l.025-.076s.1.09.112.178m-.323 2.522c-.075 0-.062-.09-.124-.128-.075-.076-.162-.216-.298-.152-.062.038-.112.089-.186.127-.199.242-.397.344-.596.547-.05 0-.074-.012-.087-.063a.7.7 0 0 1 .236-.204c.062-.038.1-.127.174-.166.05-.05.074-.089.124-.127.111-.127.21-.165.31-.267.05-.038.112-.077.174-.026.05.115.186.179.273.268.037.05.136.165 0 .203" fill="#fff"/><path fill-rule="evenodd" clip-rule="evenodd" d="M24.323 11.295c.447 0 .695.19.956.33.52.294.868.523 1.563.536.372 0 .745.05 1.092.216 1.216.586 1.899 2.687 2.11 3.846.074.407.037.815 0 1.222s-.075.777 0 1.12c.136.612.36.612.509.612.148 0 .335-.038.533-.09.137-.025.286-.063.434-.088a7 7 0 0 1 1.006-.077c.459 0 .918.051 1.34.166.46.114.893.153 1.352.203.336.026.683.064 1.055.128.36.064 1.601.293 2.308.611.398.178.708.458 1.006.726.26.242.508.458.806.624 1.75.955 2.259 2.076 1.738 3.884-.05.178-.1.369-.162.56-.173.611-.347 1.235-.546 1.82-.248.74-.633 1.058-1.08 1.44a5 5 0 0 0-.409.369c-.422.395-.72.891-1.055 1.426-.446.739-.918 1.49-1.712 1.974-.645.395-1.167.42-1.824.458h-.125c-.297.14.025.777.236 1.172.112.204.248.433.36.751.075.217.087.459.087.688 0 .204 0 .382.062.522.025.063.112.153.199.229.161.14.36.331.434.611.199.688.137 2.165-.062 2.687-.05.14-.186.293-.347.471-.125.14-.249.293-.298.395-.062.127-.087.28-.124.446-.05.254-.1.534-.273.79-.695 1.018-2.172 1.553-3.363 1.973-.298.102-.571.204-.807.305-.323.14-.596.204-.831.204-.335 0-.608-.127-.906-.28a6 6 0 0 0-.497-.23c-.496-.203-.968-.241-1.501-.292-.26-.026-.534-.051-.82-.09-.558-.088-.918-.343-1.265-.585-.05-.038-.1-.064-.149-.102h-.05c-.508 0-.88-.114-1.129-.344-.546.815-1.39 1.44-2.618 1.949-.82.47-1.676.662-2.42.802-.211.063-.372.114-.521.165a6.8 6.8 0 0 1-2.11.331c-.26 0-.546 0-.807-.038-.955 0-1.712-.229-2.32-.675a6 6 0 0 1-1.688-1.247c-.67-.484-1.427-1.045-1.787-1.809-.434-.916-.223-1.324.05-1.846.074-.14.161-.293.236-.484.012-.038.037-.09.062-.153.484-1.146.645-1.655.682-1.859-.558-.178-1.042-.7-1.489-1.566-.248-.484-.496-.917-.658-1.108a4 4 0 0 0-.397-.433c-.1-.102-.248-.23-.285-.267-.509-.51-1.13-.828-1.738-1.134-.546-.28-1.104-.56-1.563-.98-.31-.28-.571-.624-.82-1.108-.719-1.146-1.426-2.343-1.625-3.553-.198-1.171.087-1.859.447-2.585q.168-.381.372-.725c.062-.128.124-.255.174-.37.087-.178.136-.33.186-.458.112-.318.199-.56.583-.98.46-.51.844-.765 1.353-1.02.546-.28 1.179-.483 1.675-.521.037 0 .373-.051.497-.026.111.026.223.051.335.051h.074c.124 0 .223-.063.335-.127.162-.09.335-.102.583-.102h.05c.534.025 2.432 1.019 2.966 1.044h.199a.4.4 0 0 0 .136-.076c.248-.204.434-.484.583-.828.013-.026.025-.064.037-.09 0 0 .05-.14.075-.203.025-.076.037-.14.062-.204.112-.369.186-.776.26-1.171.025-.115.038-.217.063-.331l.024-.09.025-.114v-.102s.025-.064.037-.089v-.025s.013-.051.025-.077v-.025s.025-.064.038-.102c0 0 0-.064.024-.102v-.026s.025-.063.038-.101c0 0 .012-.064.024-.102v-.026s.025-.063.038-.102c0 0 .024-.063.037-.089V17.7s.037-.064.05-.09c0 0 .024-.063.037-.088v-.026l.05-.089c.198-.395.322-.879.446-1.388.26-1.019.534-2.076 1.427-2.623.385-.242.794-.28 1.191-.319.336-.025.646-.063.944-.203.235-.128.446-.306.657-.484.298-.268.62-.535 1.055-.675l.137-.038h.024l.125-.038h.024l.112-.039h.037s.087-.012.124-.025h.038s.062-.013.099-.013h.037s.075-.012.112-.012h.533c.137 0 .286 0 .46.025 0 0 .124 0 .173.013h.025s.112.012.174.025c.149 0 .273.026.41.026.384 0 .682-.064 1.104-.153.347-.077.757-.153.993-.153" fill="#de5365"/><mask id="mask0_572_1835" style="mask-type:luminance" maskUnits="userSpaceOnUse" x="2" y="11" width="41" height="35"><path d="M23.79 11.562c-.807.153-1.204.293-1.986.217-.708-.077-1.39-.128-2.16.114-.682.217-1.054.815-1.675 1.134-.682.369-1.452.102-2.11.522-1.228.776-1.19 2.712-1.786 3.922-.658 1.337-.373 3.425-1.614 4.444 0 0-.074.063-.173.089-.087.013-.236.013-.236.013-.571-.013-2.259-1.006-3.003-1.045-.385-.025-.571.191-.943.23-.174.012-.323 0-.472 0-.149-.013-.285-.026-.447-.013-.52.05-1.129.267-1.588.497-.509.254-.856.483-1.278.967-.497.548-.435.752-.72 1.376-.62 1.362-1.241 1.96-.98 3.527.235 1.362 1.154 2.75 1.898 3.947.857 1.375 2.619 1.516 3.822 2.712.435.433.944.93 1.316 1.401.322.408 1.477 1.58 1.551 2 .062.369-.596 1.858-.757 2.253-.36.853-.782 1.083-.298 2.114.596 1.21 2.271 1.974 3.24 2.84 1.302 1.158 3.263.725 4.851.483 1.663-.267 3.152-.509 4.443-1.884.67-.7.955-1.439 2.085-1.044.843.293 1.154.904 2.047 1.044.881.127 1.589.076 2.37.382.881.356 1.08.713 2.073.305 1.166-.483 3.239-.993 4.058-2.19.26-.369.21-.84.384-1.21.125-.254.559-.649.633-.84.174-.458.248-1.872.062-2.508-.111-.395-.533-.548-.633-.828-.136-.37-.012-.84-.149-1.223-.334-.929-1.154-1.808-.558-2.228.1-.05 1.316-.013 2.01-.433 1.291-.777 1.688-2.394 2.718-3.374.633-.586 1.13-.815 1.427-1.72.248-.75.472-1.578.695-2.368.521-1.82-.111-2.776-1.625-3.616-.695-.382-1.105-1.044-1.8-1.35-.596-.267-1.65-.484-2.258-.598-.857-.153-1.614-.128-2.433-.331a5.6 5.6 0 0 0-2.258-.077c-.832.128-1.477.522-1.725-.611-.149-.726.136-1.579 0-2.343-.211-1.159-.881-3.158-1.986-3.706-.657-.318-1.402-.089-2.11-.496-.62-.357-.93-.522-1.538-.522-.124 0-.26 0-.41.025" fill="#fff"/></mask><g mask="url(#mask0_572_1835)"><path d="M42.44 11.537H2.347V45.98H42.44z" fill="url(#paint0_radial_572_1835)"/></g><mask id="mask1_572_1835" style="mask-type:luminance" maskUnits="userSpaceOnUse" x="13" y="11" width="17" height="16"><path d="M24.137 11.511c-.1 0-.211.026-.335.051-.807.153-1.204.28-1.986.204-.124 0-.583-.038-.77-.038a4.2 4.2 0 0 0-1.401.178c-.683.216-1.055.815-1.676 1.133-.682.37-1.452.102-2.11.522-1.228.777-1.19 2.713-1.786 3.922-.484 1.006-.447 2.42-.93 3.49.036.394.11.776.21 1.145.186.612 1.328.56 1.117 1.732l.05.191c.918 3.12 6.328 2.343 7.88 1.12.781-.623 2.283-1.12 2.891-1.897.521-.687 2.234-1.247 2.668-1.973.67-1.146 1.539-2.687 1.452-3.744-.248-3.247-2.172-4.75-3.648-5.45-.708-.331-.919-.573-1.54-.573h-.086" fill="#fff"/></mask><g mask="url(#mask1_572_1835)"><path d="M29.498 11.511H13.142v15.625h16.356z" fill="url(#paint1_radial_572_1835)"/></g><mask id="mask2_572_1835" style="mask-type:luminance" maskUnits="userSpaceOnUse" x="14" y="11" width="16" height="19"><path d="M24.67 11.906c-.111 0-.223.025-.36.05-.831.154-1.253.306-2.06.23-.136-.013-.645-.038-.794-.05-.471-.014-.943.012-1.452.177-.707.217-1.104.828-1.737 1.172-.707.37-1.514.102-2.184.522-.683.42-1.49 1.948-1.737 3.858-.087.637.347 1.236.26 1.961-.36 3.12.496 2.407 1.154 3.668 1.204 2.355 1.092 3.068.484 2.941.67.828 1.29 1.885.794 2.56 2.073.458 4.691-.128 5.709-.917.819-.65 1.96-1.286 2.581-2.101.546-.713 1.564-2.98 2.01-3.744.708-1.184 1.465-1.426 2.023-3.63.918-3.68-.893-5.245-2.83-6.086-.595-.255-1.377-.636-1.774-.636h-.062" fill="#fff"/></mask><g mask="url(#mask2_572_1835)"><path d="M30.267 11.906H14.234v17.56h16.033z" fill="url(#paint2_radial_572_1835)"/></g><mask id="mask3_572_1835" style="mask-type:luminance" maskUnits="userSpaceOnUse" x="10" y="31" width="16" height="15"><path d="M21.605 31.465c-1.278.344-3.574.025-4.69.815-.981.688-1.912 1.655-2.383 2.763-1.167 1.299-2.42 2.445-3.127 3.464-.782 1.12-.919 2.89-.422 3.922 1.402 2.865 4.914 3.769 7.594 2.903 2.606-.599 5.795-1.363 6.155-4.915.187-1.758.658-3.566.087-5.196-.422-1.184-.52-3.832-2.544-3.832-.21 0-.434.025-.682.089" fill="#fff"/></mask><g mask="url(#mask3_572_1835)"><path d="M25.403 31.376H10.486v14.81h14.917z" fill="url(#paint3_radial_572_1835)"/></g><mask id="mask4_572_1835" style="mask-type:luminance" maskUnits="userSpaceOnUse" x="2" y="22" width="15" height="16"><path d="M2.606 27.097c-.024 1.286.98 2.687 1.54 3.782.793 1.592 1.526 1.668 2.94 2.445 1.18.65 1.924 1.426 2.594 2.738 1.737 3.412 3.611.229 5.113-1.019 1.116-.93 1.799-2.992 1.476-4.482-.223-.98-1.005-2.42-1.811-3.03l.508.343c-.633-.65-.149-1.452-.434-2.228-.248-.7-.658-1.541-1.005-2.305-.534-1.146-1.154-.853-1.7-.573-.298.153-.571.305-.807.242-.707-.191-1.737-.433-2.407-.7a3.8 3.8 0 0 0-1.378-.268c-2.407 0-4.567 2.381-4.629 5.068" fill="#fff"/></mask><g mask="url(#mask4_572_1835)"><path d="M16.592 22.042H2.582v17.445h14.01z" fill="url(#paint4_radial_572_1835)"/></g><mask id="mask5_572_1835" style="mask-type:luminance" maskUnits="userSpaceOnUse" x="23" y="19" width="18" height="17"><path d="M30.838 19.648c-.72.127-1.477.675-1.986 1.032-.57.458-.918 1.63-1.501 1.973-1.328.637-1.365.968-2.097 2.152-.596.968-1.34 2.343-1.936 3.4 0 .408.025.828.1 1.223.123.662.868 1.719.843 2.304l.025-.229c.608 3.374 7.309 4.393 6.08 2.75-3.189-4.253 1.775-6.328 2.395-5.539 3.897 4.967 5.46 2.05 5.845 1.541.807-1.108 1.427-2.24 1.626-3.336 1.241-7.055-2.606-6.074-4.79-7.042h-.348c-.83.051-1.253.14-2.047-.05-.124-.026-.248-.064-.385-.09-.124 0-.248-.038-.384-.063a5 5 0 0 0-.782-.064c-.211 0-.435.013-.658.064" fill="#fff"/></mask><g mask="url(#mask5_572_1835)"><path d="M41.473 19.597H23.318v16.3h18.155z" fill="url(#paint5_radial_572_1835)"/></g><mask id="mask6_572_1835" style="mask-type:luminance" maskUnits="userSpaceOnUse" x="11" y="20" width="24" height="23"><path d="M30.143 33.693s.025 0 .025-.012c0 0-.013-.013-.037.012M28.803 20.68c-.199.229-.41.432-.521.623-.286.484-.422.752-.968 1.057-.373.217-.658.306-.931.624-.26.306-.46.637-.695.968-.447.637-1.29.79-2.06.802h-.534c-1.054.713-2.171 1.108-3.176.853-.62-.165-1.415-1.298-1.998-1.21-.596.09.335.408-.125.93-.52.573-1.154.102-1.6-.369-.298-.318-.521-.65-.546-.637-.124.038.025.382 0 .535-.025.344-.323.535-.36.891-.037.332 0 .523.05.7.05.205.148.46.136.816-.012.598-.012.407-.037 1.006-.05 1.184-.534 1.68-.82 2.852-.31 1.274.981 1.948-.57 4.342-.521.803-2.842 1.898-2.693 2.84.658-.115 1.018-.866 1.49-1.35 1.116-1.159 4.156-2.368 5.943-2.445 1.862-.089.075 2.038.596 2.445.496.408-.509 1.515.062 1.235.596-.293 1.402-3.068 1.737-3.756.211-.446 3.165-7.462 3.24 3.12 0 1.006.595 1.49.322 2.47-.137.458-1.862 3.005.98 2.712.372-2.203-1.253-3.769-.41-4.851.447-.573 2.023-.675 1.986-1.427-.062-1.642.67-1.604 1.353-1.566.422.026.819.051.993-.318.273-.573.41-.79.471-.853-.025 0-.062-.051-.087-.242-.074-.726.559-.739.26-1.426.683.165.87-.522 1.428-.675.385-.102 1.154-.064 1.551 0 .93.153 1.402 1.719 1.589 1.617.223-.331-.31-1.172-.795-1.63-.397-.37-.868-1.133-1.19-1.566-.485-.637-.175-1.503-.87-1.872-.21-.115-.384-.076-.595-.038-.31.063-.695.114-1.402-.331-3.699 2.686-.571-1.363-.795-2.356-.446-1.312-1.452-1.68-.397-4.508 0-.012 0-.025-.012-.025 0 0-.025 0-.037.012" fill="#fff"/></mask><g mask="url(#mask6_572_1835)"><path d="M35.107 20.667H11.23v22.335h23.876z" fill="url(#paint6_radial_572_1835)"/></g><path fill-rule="evenodd" clip-rule="evenodd" d="M17.1 34.203c-.384-.28 0-1.287.46-1.796.459-.51 1.166-1.324.98-1.413-.186-.09-.98.102-1.229 0-.248-.09 1.378-.751 1.564-.853.186-.09-1.166-.472-1.65-.535-.497-.064-1.502.089-1.415-.128.087-.216.67-.509.794-.623.124-.128-.77-.599-.831-.816-.062-.216.186-.445 1.104-.216.918.23 1.688.127 2.085.216.397.09.608.191.77.28.148.103.26-.241.396-.19.125.05.41.242.447.05.025-.19-.124-.547-.385-.776-.248-.23-.657-.7-.707-.866s-.248-.573-.025-.662c.224-.09.435 0 .559-.064.124-.05.347-.407.682-.255.323.14.484.28.583.357.1.076.298.127.447.076.15-.05.41-.369.695-.178.286.178.807.611 1.278.51.472-.102.732-.332.869-.625.136-.28.534-1.184.695-1.35.161-.165.583-.509.521-.369-.062.128-.484 1.083-.459 1.554.025.484-.075.599.074.713.15.115.348.076.51 0 .16-.076.434-.267.47-.153.038.115-.93.79-1.228 1.083-.285.28-.57.866-.434 1.095s.695.127.968.127.869.038.794.178-1.08.828-1.08.943.608.33.944.343c.347.013 1.154.14 1.464.217s.583.064.645.242.162.33.05.344c-.112.012-.794-.09-1.018-.179s-1.402-.369-1.675-.343c-.26 0-1.055-.013-1.191.254-.137.268.446.459.57.573.125.115.596.624.31.675-.285.051-.533-.165-.645-.204s-.57-.356-.682-.458c-.112-.09-.608-.637-.844-.611-.236.025-.732.114-1.017.305-.286.191-.584.535-.745.726s-.832.637-1.117.866a121 121 0 0 1-2.085 1.681c-.273.204-.968.497-1.278.255" fill="#fff"/><path fill-rule="evenodd" clip-rule="evenodd" d="M21.518 24.907c-.112-.166-.074-.573.025-.828.074-.216.732-1.451 1.415-1.21.273.09.459.217.533.51.137.497.15 1.248-.223 1.63-.534.547-1.452.37-1.75-.09m-3.177 1.491c.186-.039.447-.28.484-.471.062-.255.559-.28.584-.383.024-.101-.522-1.451-.807-1.579-.348-.152-.46.09-.77.064-.248-.025-.459-.127-.608.153-.223.42-.645.968-.31 1.413.335.459.82.917 1.427.803m7.595 1.082c-.087.102-.285.178-.41.051.398-.497.733-.675 1.229-1.057.174-.19.037-1.019.124-1.286s.918-.853 1.278-.662c.186.102.36.153.472.33.198.306.186.829.198 1.07 0 .344-.161.574-.26.905-.087.305-.633.267-.881.293-.323.025-.633-.23-.944-.026-.173.102-.645.242-.781.395M22.25 28.65c.112-.203 0-.508.025-.725.025-.178.087-.446-.1-.548-.086.408-.148.88 0 1.274.013.05.075 0 .075 0m-7.482 1.108c.421-.637.905-.854 1.464-.968.012-.076-.15-.14-.211-.14-.385-.077-.683-.319-.93-.624-.485-.599-.758-1.07-1.54-.828-.831.255-.868 1.668-.633 2.356.274.815 1.366.917 1.85.19m16.467-1.043c.856-.331 1.551.101 1.13.84-.212.37-.15.802-.386 1.184-.198.306-.67.472-1.017.331-.323-.114-.782-.318-1.005-.573-.26-.28-.335-.509-.77-.624-.695-.19-1.464 0-2.146-.267.781-.407 1.662.038 2.481-.026.348-.025.596-.662 1.713-.878m-4.219.879c-.211-.115-.46-.128-.621-.026.149.038.472.09.62.026M16.48 32.127c-.782-.955-2.432.866-2.544.98-.124.128-.434.357-.472.484-.099.382.758.879 1.018 1.045.348.203.645.738 1.13.369.47-.357.508-.713.632-1.274.112-.496.31-1.018.683-1.375.372-.356.831-.624 1.141-1.044-.744-.064-1.054.573-1.6.815m11.652-4.138c-.149-.612-1.204.025-1.464-.026.298.077.744.051 1.129.115.124.025.36.038.335-.09m-4.542 3.528c.298.165.397.598.707.777.261.152.646.356.894.56.137.114.298.624.062.738-.347.166-.471-.509-.633.064-.174.56-.844.828-.968 1.426-.087.42-.372.993-.111 1.401a.44.44 0 0 0 .347.204c.31.038.36.025.633.19.335.217.608.32.98.14.36-.165.645-.42.72-.827-.05-.446-.199-.879-.186-1.324 0-.446.21-.713-.013-1.172a2.1 2.1 0 0 0-.657-.79c-.236-.178-.31-.521-.484-.776-.286-.407-.794-.879-.968-1.082-.186-.204-.385-.331-.683-.331-.297 0-.744.343-.955.61-.286.345-.67.536-.956.829-.31.305-.248.789-.41 1.184-.136.33-.396.726-.434 1.095.211-.128.373-.471.497-.675.099-.153.186-.306.31-.446.124-.153.298-.153.434-.28.385-.37.422-.84.67-1.26.211-.357.906-.42 1.217-.255m7.135 3.794c-.025-.241-.1-.483-.05-.725.075-.306-.024-.548-.173-.828-.162-.318-.658-1.082-1.105-.879-.149.064-.298.268-.496.153-.224-.127-.298-.33-.571-.433-.248-.089-.521-.127-.782-.203a3 3 0 0 0-.533-.115c.173.37.769.598 1.054.84.633.535.323 1.16.286 1.847 0 .216-.075.51.062.713.136.203.67.242.794.318.075.051.72.268.993.115s.546-.637.521-.815M23.678 41.6c.186-.037.446.166.868.332.422.165.757.267 1.092.28.335 0 .956.408 1.08.637.112.229.174.853-.012 1.222-.187.357-.534.84-.348 1.63s.496 1.082-.062 1.032-.98-.242-1.29-.344c-.323-.102-.782-.153-1.142-.586-.36-.446-.584-.357-1.154-.726-.571-.356-.931-1.12-.646-1.439.286-.33 1.167-1.133 1.279-1.311.111-.179.273-.688.36-.713m11.404-4.674c0-.178.422-.47.446-.585s.038-.815-.037-1.12c-.074-.294-.124-.625.087-.765s.807-.344 1.166-.178c.36.153.646.293.968.42.323.127 1.192.586 1.34.904.15.331.36.675.125 1.019-.224.356-.224.598-.41.751-.161.14-.608.484-.844.79-.235.305-.422.967-.707 1.12-.285.14-.869.319-1.042.115-.162-.204-.248-.662-.211-.84.037-.179.447-.523.335-.816-.1-.293-.397-.33-.708-.458-.322-.115-.52-.191-.52-.382M8.203 39.589c-.15-.166-.31-.318-.236-.484.074-.178.273-.547.31-.828.037-.293.025-.98 0-1.171-.025-.204.1-.497.15-.688s-.013-.535.322-.65.682-.075.98-.025c.298.051.894.217 1.055.548s.273.713.46.84c.198.128.78.395.793.497.013.09-.111.216-.322.586-.211.369-.199 1.324-.224 1.502-.024.191-.012.892-.248 1.044-.236.166-.608 0-.943-.165-.335-.178-.819-.357-1.005-.548-.174-.165-.162-.369-.286-.42-.111-.05-.682.166-.831-.013m12.559-3.476c.136.14.173.611.173.739-.012.267-.037.65-.173.827-.137.179-.596.433-.732.484-.137.051-.559.204-.795 0-.099-.089-.459-.344-.57-.56-.112-.23-.236-1.082.186-1.566.198-.23.57-.255.806-.459.211-.178.41-.382.633-.547.012.229-.161.522 0 .738.112.153.348.204.472.344m5.261-5.373c-.298-.039-.422-.14-.745-.128.187.28.658.23.944.344.136.05.223.153.322.216.323.192.919.408.993.51s.658.356.98.229c.137-.05.373-.102.31-.28-.248-.522-.967-.331-1.352-.586-.124-.076-.124-.178-.31-.216-.187-.038-.397 0-.534-.064-.136-.064-.422 0-.62-.025m-3.438-4.712s0 .076-.037.306c-.05.216-.149.7.05 1.095 0 0 .111-.128.074-.471-.025-.344.025-.382.037-.51 0-.114-.124-.42-.124-.42" fill="#b6002a"/><path fill-rule="evenodd" clip-rule="evenodd" d="M21.245 30.166c.124.166-.05.42-.149.56-.111.153-.31.242-.682.663a14 14 0 0 0-.881 1.018c-.1.14-.348.522-.434.433s.186-.611.248-.726c.074-.114.471-.687.608-.764.136-.089.844-.7.831-.777-.025-.076-.26-.063-.385-.038-.111.026-.657.23-.806.255-.149.038-.335-.064-.112-.242.224-.191.273-.23.397-.255.112-.025.435-.038.51-.101.074-.077.086-.293 0-.344-.075-.051-.175 0-.262 0-.086 0-1.178-.204-1.364-.23-.187-.038-1.23-.318-1.415-.356s-.211-.166.087-.166c.297 0 .843.102 1.03.102.186 0 .421-.038.633-.025.21.013.794.114.968.064.173-.064.409-.166.446-.28s.062-.255-.05-.37c-.099-.102-.558-.42-.682-.675-.124-.242-.248-.496-.385-.56-.124-.064-.347-.102-.434-.23-.087-.127-.136-.483.025-.407s.596.306.67.408c.062.089.186.33.323.496.136.166.434.446.57.535.137.076.41.293.497.471.434.026.521 0 .819.013.285 0 .732.05.831.102.087.05.397.204.51.089.098-.102.396-.726.508-.879.111-.152.645-.827.744-1.006.1-.178.72-.687.782-.649s.186.115-.05.331c-.223.217-.88.866-.98 1.031-.087.166-.459.777-.521.905-.074.127-.26.267-.21.356.061.09.433.191.52.268.087.089.323.534.15.649-.175.115-.373 0-.534-.153-.15-.165-.224-.344-.385-.445s-.36-.166-.658-.268-.968-.127-1.142-.076c-.186.05-.546.178-.558.394 0 .217.05.472.397.905" fill="#b6002a"/><path fill-rule="evenodd" clip-rule="evenodd" d="M21.767 28.256c-.1 0-.447-.318-.559-.547a9 9 0 0 0-.434-.79c-.087-.102-.124-.344-.211-.407-.075-.077-.447-.523-.348-.573.1-.064.484.33.522.433.05.101.41.623.508.75.087.128.373.574.435.701.074.128.186.433.087.433" fill="#b6002a"/><path d="m58.027 31.261-.124.09c-1.067-.65-2.755-1.16-4.355-1.16-3.24 0-5.783 2.344-5.783 5.87 0 3.528 2.965 5.782 5.993 5.782 1.986 0 3.922-.726 4.952-1.757l.149.114-.62 3.018c-1.093.65-3.053 1.006-4.592 1.006-5.038 0-9.233-3.107-9.233-8.188 0-4.635 3.462-8.315 9.146-8.315 1.898 0 3.71.459 5.038 1.044zm17.274 12.581a39 39 0 0 1-.111-2.649V30.726c0-.79.037-1.795.111-2.648h-3.325c.062.853.111 1.859.111 2.648v3.859h-7.954v-3.859c0-.79.037-1.795.112-2.648h-3.326c.062.853.111 1.859.111 2.648v10.467c0 .854-.05 1.77-.111 2.649h3.326a38 38 0 0 1-.112-2.649v-4.227h7.954v4.227c0 .854-.037 1.77-.111 2.649zm7.173 0c-.062-.879-.1-1.795-.1-2.649V30.726c0-.79.038-1.795.1-2.648h-3.326c.062.853.112 1.859.112 2.648v10.467c0 .854-.037 1.77-.112 2.649zm18.006-15.764a39 39 0 0 0-.099 2.687v13.243h-.496L89.113 32.713v8.468c0 .853.037 1.77.112 2.648h-2.842a38 38 0 0 0 .112-2.648V29.95l-1.626-1.681v-.191h3.946l8.935 9.435v-6.787c0-.853-.037-1.77-.112-2.648zm19.347 15.764c-.658-1.006-1.241-2.076-1.725-2.992l-7.235-13.574h-.72l-8.6 16.566h3.438c.273-.815.596-1.604.856-2.126l.943-1.974h7.384l1.005 2.037c.298.611.658 1.337.832 2.063h3.834zm-9.494-11.753h.112l2.668 5.5h-5.311l2.544-5.5zm32.848 11.753c-.657-1.006-1.241-2.076-1.725-2.992l-7.234-13.574h-.732l-8.6 16.566h3.437c.273-.815.596-1.604.856-2.126l.944-1.974h7.383l1.005 2.037c.298.611.658 1.337.832 2.063zm-9.493-11.753h.112l2.668 5.5h-5.311zm13.924 11.753c-.062-.879-.1-1.795-.1-2.649V30.726c0-.79.038-1.795.1-2.648h-3.326c.062.853.112 1.859.112 2.648v10.467c0 .854-.038 1.77-.112 2.649zm3.909 0c.062-.879.111-1.795.111-2.649V30.726c0-.79-.037-1.795-.111-2.648h5.993c3.413 0 5.672 1.82 5.672 4.265s-1.787 3.922-3.947 4.33l3.884 4.47c.708.827 1.49 1.68 2.458 2.495v.191h-4.034l-6.8-8.187v5.539c0 .853.037 1.77.112 2.648h-3.338zm3.214-8.582h1.787c2.072 0 3.325-.854 3.325-2.738 0-1.643-1.216-2.445-3.35-2.445h-1.775v5.183zm21.319 8.582.645-2.827-.173-.089c-.807.458-1.874.739-3.028.739h-3.686V30.726c0-.79.037-1.795.112-2.648h-3.326c.062.853.099 1.859.099 2.648v10.467c0 .854-.037 1.77-.099 2.649h9.469zm5.733 0a39 39 0 0 1-.111-2.649V30.726c0-.79.049-1.795.111-2.648h-3.325c.062.853.111 1.859.111 2.648v10.467c0 .854-.049 1.77-.111 2.649zm17.982-15.764a39 39 0 0 0-.112 2.687v13.243h-.484l-10.771-11.295v8.468c0 .853.037 1.77.111 2.648h-2.841c.062-.878.111-1.795.111-2.648V29.95l-1.625-1.681v-.191h3.946l8.935 9.435v-6.787c0-.853-.038-1.77-.112-2.648zm13.973 15.764.658-2.827-.174-.089c-.807.484-1.862.739-3.053.739h-5.038v-5.081h4.008c.98 0 1.862.089 2.705.305l.559-2.38h-7.272v-4.292h4.306c1.104 0 2.134.115 3.077.395l.596-2.534h-11.193c.062.853.111 1.859.111 2.648v10.467c0 .854-.037 1.77-.111 2.649zm12.881-12.275c-1.03-.942-2.854-1.58-4.455-1.58-2.135 0-3.264.727-3.264 1.77 0 1.198 1.489 1.822 4.219 3.019C227.07 36.507 228 37.539 228 39.64c0 2.687-2.581 4.571-6.44 4.571-2.172 0-4.443-.815-5.783-1.706l.571-2.865h.186c1.03 1.362 3.177 2.254 5.038 2.254 2.011 0 3.413-.764 3.413-1.987 0-1.158-1.129-1.668-4.207-2.98-3.561-1.515-4.951-2.712-4.951-5.03s2.022-4.176 6.341-4.176c1.712 0 3.921.573 5.187 1.286l-.571 2.56h-.173zM102.863 3.604c-1.043.853-2.755.75-4.07.585l.16-2.686C98.322.803 97.9.153 96.907 0c-1.315 1.019-.112 3.17-.633 4.737a9.2 9.2 0 0 1-2.966.535c-.52-.115-.943-.968-1.464-.382-.422 2.903 0 6.188 1.886 8.391.894.217 1.911-.65 2.755-.535.162 2.636-.236 5.272.236 7.806l.31.319c1.837-2.42 1.192-5.654 1.762-8.557 1.365-.064 2.867-.7 4.282-.217l1.315-1.337c.583-.917-.521-1.452-.732-2.203.732-1.019 1.936-1.668 1.985-3.018-.732-.866-1.675-1.719-2.779-1.935m-8.34 7.156-.21-.331c.372-1.452-.993-3.807 1.6-4.304h.422l.112 4.355c-.422.267-1.39.267-1.911.267m4.107-1.006.15-4.19c.893-.317 2.518-.05 3.462-.05-.782 1.566-.832 4.062-3.612 4.24m31.11 1.885c-1.104.42-2.358.484-3.562.42v-.102c.261-1.77 1.887-1.49 2.731-2.292.21-.382.471-.56 0-.891-1.204-.217-1.142-1.35-2.458-1.452-.533.102-.372.751-.781.968-.373.115-2.147.165-2.457-.051-.261-2.05 2.606-.42 3.387-1.604.311-.586-.26-.88-.57-1.096l-5.299.7-.112-.114c.472-.7 1.613-1.362 2.457-1.197l-.31.611c.893 0 1.427-.433 2.097-.967 1.675-.535 4.244 1.018 4.616-1.35-.31-1.286-1.749-.535-2.432-.65.161-.318.447-.636.447-1.082-.372-.802-.645-.93-1.328-1.082-1.104.37-1.477 1.719-2.147 2.585l-2.966.242-.211-1.567c-.521-.865-1.005-.815-1.799-1.044-1.092.65-.149 2.101-.099 2.967-.732.37-1.837.217-2.358.904.05.535.372 1.032.682 1.35.683.484 1.527-.05 2.197-.216 1.154.916-.832.649-.732 1.451.31 1.083 1.625.344 2.42.395.099.318.149.942-.05 1.26-2.395.828-2.209-1.451-3.884-.853-.633.382-.149 1.083-.211 1.503l-1.105.115c-.36.05-.422.483-.422.802.373.65 1.105.777 1.887.662.26.216.31 1.54.211 1.795-1.316.319-2.73.383-4.046.7-.112.485.161.587.31 1.02.149.432.633.649 1.204.483 1.936-.483 3.872-1.184 5.981-1.286l.149.217c-.049.267.162.853-.049 1.018l-3.624.65c-.26.267-.049.37.062.586.583 1.884 2.408.241 3.562.84.149 1.617.099 3.31.633 4.762 1.836-.967 1.067-3.361 1.476-5.08 1.254-.268 2.768.216 3.971.33.41-.381 1.105-.407.993-1.107-.633-1.986-3.313-.853-4.827-1.07l-.211-.216c-.05-.319-.174-.917.124-1.133 2.048-.217 4.703 0 6.589.33l.782-.534c.311-.268.521-.382.422-.815-.422-.382-.831-.815-1.365-.853m-8.612.726-1.824.114c.26-.484-.1-2.56.893-2.33l.931.038zm2.209-.268c0-.42-.174-2.75 1.886-2.228 0 .534-1.353 2.024-1.886 2.228m57.083-8.812c-1.042 1.019-2.841.84-4.231.675.161-.968-.385-1.642-.819-2.381-.77-.344-1.551-.853-2.097-.05l.546 2.546c-.447.395-1.117.395-1.614.56-.992.115-2.755.853-2.755-.968-.446-.165-.719-.853-1.216-.394-.173 1.693-1.327 3.056-1.054 4.813.273.51.446 1.362 1.216 1.248.992-.459.719-1.808 1.265-2.61l2.147-.905c.881-.063 2.172-1.018 2.892.115.496.165.757.115 1.253-.115.385-.853 1.812-.675 2.594-.509-.224.904-1.489 1.464-1.874 2.088 1.712.344 2.916-1.184 4.467-.738.67.165 1.601.28 2.035-.344.162-.51.162-1.082-.111-1.528-1.105-.051-1.44-1.694-2.656-1.528m-35.243.968c.571.165 1.403.293 1.911-.051.236-.459.683-.93.398-1.567-.683-.458-1.303-1.553-2.197-1.553-.844.637-.112 1.86-.447 2.776l.335.407zm5.746 1.158h.335c.683.166.906.752 1.191 1.274.621.178.807-.293 1.204-.688.223-.586.459-1.452.062-2.088-.844-.93-1.936-1.452-3.127-.98-.509 1.043 1.08 1.502.347 2.482m-1.476 6.685c.223-.458.62-.432.446-1.018-.285-1.044-1.414-.65-2.146-1.108-.273-1.452 1.191-2.305 1.129-3.629-.397-.993-1.477-1.273-2.432-1.503l-2.817 1.21c-.224-.458-.782-.93-1.303-1.159-.335 1.796.062 4.1-.05 6.01l-.285.46a16 16 0 0 0-3.264 1.043c-.174.522.112.599.273 1.019.856.28 1.874-.166 2.718-.166.173.688-.224 1.528-.112 2.216-.223.688-.397 1.617-1.067 1.732l-.174 1.974c0 .292 0 .687.335.687 1.973-1.68 1.576-4.775 2.085-7.029.62.522.509 2 1.179 2.636.508.115.335-.267.558-.675.335-.586-.05-1.528-.335-2.063.112-.344 1.477-.229 1.651-.407.335.93.173 2.572.111 3.502-.285 1.337-2.047.165-2.829.101-.05.344.347.523.347.815 1.576.637.732 3.235 2.817 3.12.571-.407 1.067-.866 1.415-1.502-.112-1.974-.174-4.304.05-6.164.508.064 1.241.23 1.7-.114m-3.326-1.58-.831.18c0-.701.124-1.962-.782-2.242-.397-.115-.608-.484-.708.267l.323 2.216c-.112.127-.757.204-.993.204-.111-1.108.236-2.47.286-3.566l2.655-1.158.174.229c-.174 1.337 0 2.547-.112 3.884" fill="#00125d"/><path d="M148.704 9.04c2.481-.407 5.298-.7 8.066-.572.335-.178.509-.573.509-.93-.336-.47-.795-1.388-1.514-1.222-2.371.815-4.915 1.044-7.334 1.63-.112.458.161.751.285 1.095m25.079-.306.112-.968c-.223-1.018-1.055-1.082-1.886-1.184-1.613 3.311-3.103 4.826-5.138 7.539 2.768-.854 4.927-3.12 6.912-5.387m4.319-.178c-.832.23-1.787-.51-2.333-.165.335.573 1.663.623 1.055 1.413l.719-.051c1.117.28 1.825 1.363 2.321 2.267.769.28 1.427-.23 1.874-.688.273-.51.124-.688 0-1.312-.881-1.133-2.209-2.66-3.649-1.477m-21.269 8.697c-.795.293-1.862.179-2.309-.636-.732-1.91-.223-4.38.621-6.112l-.174-.344c-.893-1.732-2.258.063-3.549-.166-.509-.178-1.018-.47-1.303.166.223 1.617-.062 3.183-.571 4.52-.397.688-.732 1.796-1.576 1.91v.7c0 .472.149.866.645.866 1.192-.814 1.75-2.202 2.371-3.476.446-1.159.508-2.432.955-3.59.286 0 .869-.294 1.092-.064-.446 2.89-1.613 6.85 1.03 8.824 1.117.637 3.996.497 5.411-.828.732-2.139-.794-3.883-1.018-5.793-.285 1.387-.173 3.336-1.638 4.036m22.375-.828c-1.105.446-2.569.675-3.835.344-.062-.904.062-2.024.224-2.878l2.457-.292c.558-.28.992-.739.769-1.363-.385-.573-1.104-.853-1.712-1.082-1.651 1.184-3.81 1.082-5.734 1.413-.111 1.248 1.142 1.503 2.085 1.897-.335.739.112 2.343-.335 3.082-1.104.165-2.519.115-3.512.675-.384.165-.285.573-.174.853.385.446.832.968 1.502.904 3.09-.51 6.627-.56 9.605-.102.769-.51 1.104-1.248.881-2.165-.72-.509-1.377-1.082-2.209-1.311" fill="#00125d"/></g><defs><radialGradient id="paint0_radial_572_1835" cx="0" cy="0" r="1" gradientUnits="userSpaceOnUse" gradientTransform="matrix(18.2544 0 0 18.7312 22.497 28.797)"><stop stop-color="#fff"/><stop offset=".07" stop-color="#fff"/><stop offset=".38" stop-color="#fadee4"/><stop offset="1" stop-color="#de5365"/></radialGradient><radialGradient id="paint1_radial_572_1835" cx="0" cy="0" r="1" gradientUnits="userSpaceOnUse" gradientTransform="matrix(14.0228 0 0 14.3891 21.288 14.779)"><stop stop-color="#de5365"/><stop offset=".21" stop-color="#de5365"/><stop offset=".3" stop-color="#df5b6d"/><stop offset=".44" stop-color="#e47382"/><stop offset=".62" stop-color="#ec9aa6"/><stop offset=".82" stop-color="#f7d0d7"/><stop offset=".87" stop-color="#fadee4"/><stop offset="1" stop-color="#fadee4"/></radialGradient><radialGradient id="paint2_radial_572_1835" cx="0" cy="0" r="1" gradientUnits="userSpaceOnUse" gradientTransform="matrix(15.636 0 0 15.2677 21.441 17.566)"><stop stop-color="#de5365"/><stop offset=".09" stop-color="#df596a"/><stop offset=".2" stop-color="#e26a7a"/><stop offset=".34" stop-color="#e88795"/><stop offset=".49" stop-color="#f0afb9"/><stop offset=".64" stop-color="#fadee4"/><stop offset=".77" stop-color="#fbe5ea"/><stop offset=".96" stop-color="#fef9fa"/><stop offset="1" stop-color="#fff"/></radialGradient><radialGradient id="paint3_radial_572_1835" cx="0" cy="0" r="1" gradientUnits="userSpaceOnUse" gradientTransform="matrix(10.151 0 0 10.4161 15.886 33.38)"><stop stop-color="#fff"/><stop offset=".41" stop-color="#fadee4"/><stop offset="1" stop-color="#de5365"/></radialGradient><radialGradient id="paint4_radial_572_1835" cx="0" cy="0" r="1" gradientUnits="userSpaceOnUse" gradientTransform="matrix(12.9059 0 0 13.243 16.043 30.51)"><stop stop-color="#fff"/><stop offset=".07" stop-color="#fff"/><stop offset=".43" stop-color="#fadee4"/><stop offset="1" stop-color="#de5365"/></radialGradient><radialGradient id="paint5_radial_572_1835" cx="0" cy="0" r="1" gradientUnits="userSpaceOnUse" gradientTransform="matrix(26.0227 0 0 26.7025 47.434 19.628)"><stop stop-color="#de5365"/><stop offset=".31" stop-color="#de5365"/><stop offset=".41" stop-color="#e36e7d"/><stop offset=".63" stop-color="#f1b3bc"/><stop offset=".76" stop-color="#fadee4"/><stop offset="1" stop-color="#fadee4"/></radialGradient><radialGradient id="paint6_radial_572_1835" cx="0" cy="0" r="1" gradientUnits="userSpaceOnUse" gradientTransform="matrix(13.514 0 0 13.867 23.444 32.15)"><stop stop-color="#fff"/><stop offset=".09" stop-color="#fff"/><stop offset=".37" stop-color="#fadee4"/><stop offset=".47" stop-color="#f2b7c0"/><stop offset=".59" stop-color="#e98c99"/><stop offset=".7" stop-color="#e36c7c"/><stop offset=".79" stop-color="#df596b"/><stop offset=".85" stop-color="#de5365"/><stop offset="1" stop-color="#de5365"/></radialGradient><clipPath id="clip0_572_1835"><path fill="#fff" d="M0 0h228v47H0z"/></clipPath></defs></svg>