<svg width="33" height="45" fill="none" xmlns="http://www.w3.org/2000/svg"><g clip-path="url(#clip0_583_3397)" fill="#e60012"><path d="M13.699 4.73c0-1.663 1.281-3.013 2.876-3.013s2.876 1.35 2.876 3.013-1.295 2.999-2.876 2.999-2.876-1.35-2.876-3m2.876 14.203c.818-1.69 2.944-2.59 4.744-3.19.518-.177.75-.245 1.376-.49 3.626-1.418 6.066-4.062 6.08-7.075 0-4.239-4.785-7.728-10.919-8.15C25.6.45 31.692 4.702 31.692 9.895c0 3.476-2.372 6.366-6.843 8.287-1.8.777-7.102 2.386-8.26 8.083-1.227-5.71-6.475-7.306-8.274-8.083-4.471-1.921-6.843-4.825-6.843-8.287 0-5.22 6.08-9.473 13.835-9.896C9.16.423 4.376 3.912 4.376 8.151c0 3.026 2.44 5.657 6.079 7.075.627.245.859.327 1.377.49 1.785.614 3.925 1.5 4.743 3.19m0-4.894c.79-.75 1.826-.845 2.74-1.05 4.266-.94 7.06-3.257 7.06-6.188 0-1.185-.49-2.29-1.322-3.244C23.65 1.95 21.25.777 18.43.423c5.234.572 9.228 3.557 9.228 7.156 0 3.217-2.972 5.561-7.579 6.883-2.004.573-2.958.954-3.476 1.868-.518-.914-1.485-1.295-3.476-1.868-4.607-1.322-7.578-3.68-7.578-6.883C5.52 3.98 9.5.995 14.735.423 11.9.777 9.5 1.936 8.11 3.53c-.845.955-1.335 2.059-1.335 3.244 0 2.931 2.794 5.248 7.06 6.189.913.204 1.95.3 2.74 1.05m0-3.257c4.226 0 7.66-2.277 7.66-5.085 0-2.194-2.085-4.062-5.016-4.784 3.463.736 5.97 2.862 5.97 5.384 0 2.89-3.27 4.962-6.378 5.439-1.527.232-1.854.286-2.236.709-.382-.437-.709-.477-2.235-.71-3.108-.476-6.38-2.548-6.38-5.438 0-2.522 2.509-4.648 5.97-5.384-2.93.722-5.015 2.59-5.015 4.784 0 2.808 3.435 5.085 7.66 5.085m8.124 12.513c-.3.163-.532.558-.573.954-.081.681.41 1.322 1.077 1.404.668.082 1.309-.45 1.377-1.173.055-.695-.354-1.39-1.077-1.758-1.077-.559-2.508-.409-3.585 0-2.412.927-4.443 3.299-5.193 4.485 1.268-4.703 6.393-8.833 10.973-6.747 1.567.708 2.59 2.344 2.467 4.089-.136 1.976-1.636 3.653-3.912 3.68-1.063 0-2.072-.49-2.59-1.213-.886-1.213-.532-3.094 1.036-3.721m-16.275 0c.286.163.531.558.572.954.082.681-.409 1.322-1.077 1.404-.681.082-1.308-.45-1.376-1.173-.055-.695.354-1.39 1.077-1.758 1.076-.559 2.508-.409 3.598 0 2.413.927 4.43 3.299 5.193 4.485-1.267-4.703-6.392-8.833-10.986-6.747-1.567.708-2.59 2.344-2.467 4.089.136 1.976 1.636 3.653 3.912 3.68 1.063 0 2.072-.49 2.59-1.213.886-1.213.531-3.094-1.036-3.721m12.799 20.486c-.232.3-.586.477-.982.477-.695 0-1.267-.586-1.267-1.322s.572-1.323 1.267-1.323c.396 0 .75.191.982.477v-.627a1.62 1.62 0 0 0-.982-.313c-.954 0-1.717.79-1.717 1.772 0 .981.763 1.772 1.717 1.772.355 0 .696-.123.982-.314v-.627zM8.056 42.078l.572 1.254H7.497zm-1.65 2.508h.518l.382-.831h1.513l.395.831h.505l-1.65-3.53-1.65 3.53zm8.411-2.916c.668 0 1.213.544 1.213 1.226s-.518 1.254-1.186 1.254h-.586v-2.48h.572zm-1.036-.437V44.6h1.022c.981 0 1.69-.75 1.69-1.677 0-.872-.613-1.677-1.69-1.677h-1.022zM.109 42.882c0 .982.722 1.8 1.717 1.8 1.064 0 1.718-.927 1.704-1.813H2.058v.422h.968c-.11.341-.477.927-1.213.927S.545 43.632.545 42.896s.573-1.309 1.268-1.309c.422 0 .831.246 1.077.614l.34-.287c-.286-.45-.831-.79-1.417-.79-1.077 0-1.718.954-1.718 1.758m9.992 1.704h.45v-2.44l2.562 2.617v-3.53h-.477v2.426l-2.535-2.617zm-6.161-3.353V44.6h.463v-2.958h.477c.26 0 .546.218.546.545 0 .273-.191.559-.546.559h-.381l1.186 1.84h.545L5.18 43.06c.34-.082.681-.437.681-.927a.92.92 0 0 0-.9-.914H3.927zm20.46 0h-.45v1.336h-1.568v-1.336h-.463v3.353h.463v-1.595h1.568v1.595h.477v-3.353zm1.199 0h-.463v3.353h.463zm.763 3.353h.464v-2.44l2.562 2.617v-3.53h-.477v2.426l-2.549-2.617zm5.002-2.508.573 1.254h-1.131zm-1.663 2.508h.505l.395-.831H32.1l.382.831h.504l-1.65-3.53zM15.32 33.804c-.245.45-1.171 1.622-1.635 2.017l.409.573c.164-.15.49-.49.613-.654v1.717h.655v-2.453c.109-.123.381-.505.518-.736z"/><path d="M16.67 33.954v1.404c-.15.082-.913.395-1.28.504l.34.587c.286-.082.804-.3.94-.368v.722a.49.49 0 0 0 .505.518h1.267c.491 0 .75-.3.805-.64.027-.164.054-.505.054-.628l-.654-.204v.477c0 .286-.15.436-.409.436h-.75c-.136 0-.177-.082-.177-.204v-.723c.668-.327 1.581-.886 1.867-1.118l-.49-.545c-.45.368-.94.668-1.377.914v-1.132h-.654zm-.395 3.435v.586h-2.426v.614h2.426v1.43h.695v-1.43h2.4v-.614h-2.4v-.586zm-3.83-3.408c-.586.218-1.786.41-2.277.41v2.153c0 1.172-.095 2.086-.654 2.876l.532.423c.572-.805.763-1.786.763-3.285h.627v3.285h.64v-3.285h.641v-.627H10.81v-.94a7.4 7.4 0 0 0 1.908-.396z"/><path d="M8.683 35.808h-.49a6 6 0 0 0-.3-.79l-.573.218c.068.122.19.381.259.558h-.573v.586h1.159v.423H6.911v.6h1.145c-.164.354-.722 1.008-1.186 1.363l.368.559c.355-.3.695-.71.94-1.09v1.608h.628v-1.8c.245.218.6.6.722.75l.395-.518a7 7 0 0 0-.995-.872h1.077v-.6h-1.2v-.423h1.132v-.586h-.6c.082-.136.273-.49.314-.627l-.6-.177c-.082.218-.273.654-.34.79m-.56-1.949v.505H6.993v.6H9.91v-.6H8.778v-.505zm17.352 5.099.123.136h.054l.11-.069s.068-.368.095-.64l.6.163a4 4 0 0 1-.082.518c-.123.491-.423.614-.613.614h-.546c-.15 0-.381-.164-.381-.464v-2.917h-.505v.71c0 1.158-.19 2.085-.613 2.766l-.532-.49c.341-.491.518-1.336.518-2.495v-1.118h1.772v3.285m-3.939-1.446.504-.163c.11.259.218.64.314 1.063l-.545.15c-.082-.422-.177-.804-.273-1.05m-.695-1.09V34.39h.709c.04-.19.082-.436.122-.64l.668.095c-.054.218-.095.395-.136.559h.886v4.798a.54.54 0 0 1-.532.532h-.613l-.15-.641h.518l.177-.164v-1.922h-1.036c0 1.145-.15 2.059-.436 2.74l-.027.055-.559-.423v-.027c.286-.586.422-1.35.422-2.304v-.04h-.408v-.6h.409zm1.65-1.39h-1.037v1.404h1.036zm-.437.15c.123.272.232.613.3.981l-.532.177a6 6 0 0 0-.272-1.022l.504-.123zm1.227.04v-.64h.954v-.723h.722v.723h1.09v.64zm4.511 1.951-.3-.682c1.023-.15 1.582-.518 1.95-1.227l.64.287c-.45.9-1.267 1.43-2.29 1.608m3.449-1.227c0 .178.15.3.286.3h1.363v.64H31.27c-.34 0-.668-.313-.668-.667v-.9h.668zm-2.985-.054h-.682V34.39h2.29v-.559h.695v.56h2.318v1.458h-.682v-.818H28.27v.818zM33 38.929v.668h-5.48v-.668h2.386v-.981h-1.813v-.668h4.375v.668h-1.867v.981zM3.653 36.108H5.67v-.682H3.135c.068-.436.123-1.145.123-1.595h-.723c0 .437-.04 1.077-.136 1.595H.204v.682H2.25c-.354 1.24-1.145 2.358-2.249 3.149l.545.572c1.09-.777 2.1-2.195 2.454-3.694.286 1.5 1.267 2.93 2.358 3.68l.518-.6c-1.077-.654-1.963-1.908-2.208-3.12"/></g><defs><clipPath id="clip0_583_3397"><path fill="#fff" d="M0 0h33v44.763H0z"/></clipPath></defs></svg>