<svg width="252" height="46" fill="none" xmlns="http://www.w3.org/2000/svg"><g clip-path="url(#clip0_583_3267)"><path d="M53.85 46 64.01 0s-6.867.047-8.053.125c-.14 0-1.53.126-1.998.486-.469.375-.89 1.017-1.405 1.66 0 0-23.631 29.95-23.74 30.092-1.327 1.675-2.639 3.178-3.56 3.914-1.997 1.691-3.964 2.834-6.071 3.585C17.09 40.615-.016 46-.016 46z" fill="#0fa19c"/><path d="M42.705 38.234a4.5 4.5 0 0 1-.765 1.55 6 6 0 0 1-1.857 1.613 5 5 0 0 1-2.123.626 5.6 5.6 0 0 1-2.2-.297 7.4 7.4 0 0 1-2.108-1.159c-.687-.548-1.233-1.143-1.654-1.816-.422-.673-.703-1.362-.828-2.098a5.1 5.1 0 0 1 .094-2.223c.187-.752.562-1.488 1.124-2.192a5.8 5.8 0 0 1 1.28-1.206 5 5 0 0 1 1.56-.704 4.1 4.1 0 0 1 1.702-.079 4.5 4.5 0 0 1 1.717.674l-1.514 1.925c-.609-.282-1.17-.36-1.702-.219q-.795.211-1.357.94-.54.681-.656 1.362a2.75 2.75 0 0 0 .094 1.33c.14.423.359.846.67 1.222.297.391.656.736 1.062 1.064.39.298.796.548 1.233.752s.874.313 1.311.344c.453.032.89-.03 1.312-.219.42-.172.811-.5 1.17-.955.53-.673.765-1.315.718-1.957-.047-.626-.374-1.237-.968-1.8l-1.592 2.035-1.498-1.19 3.028-3.852 4.948 3.915-1.015 1.283-1.201-.61c.171.72.187 1.378.03 1.957m7.571-10.803c-.031.47-.14.939-.343 1.409s-.468.908-.796 1.33l-3.497 4.447-9.146-7.234 3.387-4.32a7.2 7.2 0 0 1 1.061-1.113 3.5 3.5 0 0 1 1.108-.626q.562-.187 1.171-.047c.406.094.812.298 1.249.642.468.36.765.767.905 1.222.14.453.156.97.016 1.534.608-.438 1.217-.626 1.842-.595.624.047 1.217.282 1.794.736q.703.54.984 1.221c.203.454.28.908.265 1.378m-8.49.877 1.607-2.036c.28-.36.437-.72.437-1.096 0-.36-.172-.704-.562-1.002-.219-.172-.422-.266-.624-.297a1.3 1.3 0 0 0-.562.047 1.6 1.6 0 0 0-.5.313c-.156.14-.312.297-.453.485l-1.482 1.895zm6.04-.956c-.094-.203-.25-.39-.5-.594-.468-.376-.905-.502-1.311-.392s-.78.376-1.124.814l-1.732 2.192 2.513 1.989 1.7-2.161c.157-.203.282-.407.391-.61s.172-.423.188-.627a1.2 1.2 0 0 0-.11-.61m10.723-9.16-1.655 2.098-2.591-.923-2.7 3.428L53.1 25.13l-1.592 2.036-6.415-10.71 1.623-2.066 11.847 3.804zm-6.15.517-4.261-1.503v.031l2.403 3.852 1.873-2.38z" fill="#fff"/><path d="M75.873 18.82h6.04v1.049h-6.118c-.094.47-.172.939-.266 1.409h1c.873 3.069 2.73 5.292 5.634 6.623v1.033s-.078-.016-.11-.031a10.5 10.5 0 0 1-4.12-2.38c-1.015-.955-1.842-2.051-2.404-3.35-.109-.236-.187-.486-.28-.721 0-.031-.032-.078-.047-.14l-.063.124a9.5 9.5 0 0 1-1.56 2.693c-.781.955-1.702 1.738-2.732 2.396-.812.517-1.67.97-2.56 1.346a1 1 0 0 0-.156.063v-1.049l.094-.047a12.8 12.8 0 0 0 2.528-1.66c1.14-.97 2.045-2.113 2.653-3.491.39-.861.64-1.77.781-2.693v-.11h-5.79V18.82h5.9c.046-1.175 0-2.333.015-3.492h1.545c0 1.159.016 2.317-.031 3.492m42.049 9.096v1.002h-13.563v-13.12h13.438v.986h-11.924v11.132z" fill="#0f779a"/><path d="M108.167 21.481v-3.648h7.882v2.192c0 .298-.062.58-.234.846-.187.282-.452.422-.765.516a2.2 2.2 0 0 1-.64.094h-6.259m6.431-2.661h-4.932v1.675h4.277c.078 0 .171 0 .249-.016.234-.031.359-.156.39-.391V18.82m-2.044 8.016v-4.259h4.574v2.85c0 .219-.031.438-.109.642a1.17 1.17 0 0 1-.843.704 2.3 2.3 0 0 1-.562.079h-3.06m1.468-3.288v2.285h1.28q.327-.046.374-.375v-1.895h-1.639zm-2.28-.987v2.787c0 .204 0 .407-.078.595-.141.438-.437.689-.874.799a2.3 2.3 0 0 1-.562.078h-3.059v-4.259zm-3.122 3.257h1.202c.297 0 .453-.157.468-.454v-1.848h-1.654v2.27zm45.109-9.144v2.834h-1.499v-1.8h-2.747v2.959c.016.172.125.282.297.313h3.668v1.002h-3.777c-.266 0-.547-.031-.812-.11-.484-.14-.78-.454-.843-.97-.015-.157-.031-.313-.031-.454v-2.74c-.094-.032-5.931-.032-6.087 0v1.8h-1.499V16.69h6.384v-.015c-.343-.392-.593-.815-.64-1.347h1.701c.032.486.047.97.375 1.362zm.313 12.228h-13.954v-1.002h6.212v-3.319h-5.307v-1.002h12.159v.986h-5.291c-.032.094-.047 3.1 0 3.32h6.212v1.002z" fill="#0f779a"/><path d="M140.68 22.311V21.31l.468-.094c.515-.11 1.03-.22 1.53-.407.343-.125.671-.282.967-.501.484-.36.781-.845.952-1.41.032-.109.063-.234.094-.343h1.608c-.031.14-.078.281-.109.407-.188.579-.438 1.111-.828 1.58a4 4 0 0 1-1.498 1.097 7.3 7.3 0 0 1-1.795.5c-.437.08-.89.126-1.327.173zm-50.837 4.791v-.845c0-.047 0-.094.015-.126.219-.516.422-1.033.64-1.565h6.852a.5.5 0 0 0 .406-.439v-.282h-8.038v-.923h9.505v1.252c0 .235-.046.47-.14.69a.92.92 0 0 1-.515.485c-.234.093-.5.14-.75.156h-6.18c-.094.22-.188.438-.281.673h8.413v1.409c0 .188-.031.376-.063.548-.062.313-.265.533-.577.642-.297.126-.609.141-.906.157h-4.963v-.924h4.448c.11 0 .219 0 .313-.031.171-.047.265-.157.265-.329v-.517h-8.444zm6.602-8.909V17.02c0-.078.016-.125.063-.172.296-.345.562-.69.765-1.096.046-.094.078-.188.124-.298h1.561a6 6 0 0 1-.718.893c-.265.266-.546.532-.827.798h.14c.141 0 .297-.015.438-.031.062 0 .093-.031.124-.078a5 5 0 0 1 .313-.501c.015-.032.046-.063.062-.094h1.561s-.047.078-.063.11c-.343.47-.718.907-1.139 1.314-.359.36-.734.705-1.108 1.05l-.125.125c.421 0 .827-.032 1.264-.079a2.6 2.6 0 0 1-.156-.845h1.093v.125c.015.204.031.423.062.627.031.156.11.313.203.438a.18.18 0 0 1 .047.125v.893c-.265-.141-.5-.33-.718-.548-.968.235-1.936.407-2.934.516v-1.283c.28-.267.546-.564.827-.893-.297.031-.562.047-.843.063m-4.698-2.741a9 9 0 0 1-1.499 1.69c.22.032.406 0 .625-.015.14-.22.28-.454.421-.673h1.577c-.36.5-.75.94-1.155 1.378-.406.438-.843.83-1.28 1.236.406 0 .811 0 1.233-.062a4.3 4.3 0 0 1-.156-.877h1.108c.016.423-.016.877.25 1.253v.97a2 2 0 0 1-.39-.235c-.125-.093-.235-.187-.36-.281a19 19 0 0 1-2.84.485c-.031-.094-.047-.892-.016-1.252.14-.157.297-.298.422-.455.14-.156.28-.297.406-.454v-.015c-.281.031-.578.062-.875.078v-1.284c.422-.5.594-.736.937-1.472h1.576zm1.388 4.415h3.013v1.472c0 .11 0 .219-.031.329-.078.438-.36.689-.78.782q-.212.047-.422.047h-1.795V19.87zm1.764.892h-.53v.815h.312c.14 0 .218-.079.218-.22zm-7.085 2.318h1.076v.11a15 15 0 0 1-.187 2.238 6.4 6.4 0 0 1-.453 1.535c-.343.72-.874 1.268-1.545 1.69-.172.11-.343.189-.515.282a.3.3 0 0 0-.078.032v-1.503l.14-.094c.656-.47 1.062-1.096 1.28-1.848a6 6 0 0 0 .219-1.19c.031-.376.031-.767.047-1.158v-.079m-1.639-7.75h1.483c.015.141.03.298.046.439.047.313.11.626.235.923.156.392.405.705.78.908.016 0 .047.032.062.047v.955h-.062c-.484-.172-.952-.391-1.358-.704-.453-.329-.734-.783-.92-1.3a5.2 5.2 0 0 1-.266-1.19zm2.653 6.905c-.718-.22-1.342-.548-1.826-1.096-.53-.595-.734-1.331-.843-2.114h1.499s.015.11.03.172c.048.36.11.72.25 1.065.172.407.438.736.828.955 0 0 .031 0 .031.032l.016.015v.97zm4.215-5.261v-.908h1.03a1.2 1.2 0 0 1-.312-.736h1.686c0 .25-.016.501.124.736h.672c.03.094.047.705.015.908h-3.23zm3.121.345v.876h-2.997s-.031-.735 0-.876h3.013zm-3.013 1.237h3.013v.892h-2.997s-.031-.72 0-.893m-3.683 1.927h1.077c-.016.453-.062.876-.297 1.267-.25.407-.624.674-1.03.909v-.909c0-.046.016-.11.047-.14.14-.188.203-.423.219-.658v-.47m7.21.001h1.078c-.016.438-.078.86-.281 1.252-.234.423-.625.689-1.046.924v-.924c0-.031 0-.078.031-.11.188-.235.234-.516.25-.814v-.344m-4.964.016h.859c.015.406-.031.83.25 1.174v.986s-.063-.016-.079-.031c-.515-.33-.874-.768-.952-1.394a10 10 0 0 1-.078-.751m8.319 2.192c-.53-.345-.936-.768-1.014-1.41-.031-.219-.047-.454-.062-.673v-.078h.842v.125c0 .25 0 .501.078.736.032.094.078.172.125.266a.2.2 0 0 1 .031.094zm-2.122-2.175h.827v.125c0 .234.015.485.093.72a.6.6 0 0 0 .094.235.36.36 0 0 1 .063.219v.861h-.032c-.546-.36-.936-.83-.999-1.503l-.046-.642m-7.211-.015h.811v.125c0 .172 0 .36.031.532a.8.8 0 0 0 .219.517v.97h-.047a3.1 3.1 0 0 1-.702-.657 1.4 1.4 0 0 1-.265-.69c-.032-.234-.047-.485-.063-.735v-.078m34.073 8.454v-1.002h1.514c.281-.031.453-.203.469-.485v-4.697h-2.264v2.035q0 .963-.374 1.879a4.8 4.8 0 0 1-.671 1.08c-.391.47-.859.861-1.358 1.222l-.063.03v-.892c0-.078.016-.14.063-.219.359-.516.624-1.08.78-1.69.109-.423.156-.862.156-1.3v-2.145h-.968V21.7h.968v-4.76h1.577c.187-.516.234-1.033.218-1.58h1.655c-.094.563-.266 1.095-.656 1.565.281.016.546 0 .796 0h1.592v10.443c0 .25-.015.501-.093.736-.11.376-.344.626-.718.736-.25.078-.516.11-.781.11h-1.857m-.25-11.023c-.031.141-.016 3.648 0 3.727h2.248v-3.727zm5.245 2.051h5.088v7.469c0 .344.109.454.453.454h.718c.031.094.031.86 0 1.017h-1.405c-.172 0-.328-.015-.499-.047-.453-.078-.687-.313-.734-.767a5 5 0 0 1-.031-.454v-6.638h-2.076v2.74c0 .548 0 1.111-.078 1.66-.078.657-.266 1.283-.656 1.831a4.3 4.3 0 0 1-1.077 1.05c-.296.203-.608.39-.921.578a.12.12 0 0 0-.062.032c-.031-.079-.047-.783-.016-.971.172-.188.344-.36.5-.548a3.27 3.27 0 0 0 .687-1.534 10 10 0 0 0 .109-1.52zm-.999-1.785v-1.002h3.09c-.406-.579-.655-1.19-.718-1.863h1.608c0 .642.078 1.268.375 1.863h2.731v1.002h-7.102z" fill="#0f779a"/><path d="M126.46 26.147s-.078-.031-.109-.047c-.655-.329-1.061-.861-1.233-1.581a5 5 0 0 1-.125-1.19v-.079h1.077v.126c0 .266 0 .516.016.783 0 .234.062.47.156.689.047.11.125.203.203.328v.971zm-1.467-7.657h1.077c0 .204 0 .392.031.58 0 .157.032.297.063.438.047.22.125.408.296.564v1.002s-.078-.031-.109-.047c-.624-.266-.999-.751-1.202-1.378-.125-.36-.156-.72-.156-1.096zM73.594 45.593a4.2 4.2 0 0 1-1.608.344c-.858 0-1.623-.156-2.31-.454a4.8 4.8 0 0 1-1.732-1.237 5.4 5.4 0 0 1-1.077-1.847 6.8 6.8 0 0 1-.375-2.286c0-.814.125-1.613.375-2.333q.374-1.08 1.077-1.879a4.84 4.84 0 0 1 1.732-1.252c.687-.298 1.452-.454 2.31-.454.578 0 1.124.078 1.67.25a4.5 4.5 0 0 1 1.452.767c.437.345.796.752 1.077 1.237s.453 1.065.515 1.691h-2.34q-.21-.94-.843-1.409c-.421-.313-.92-.47-1.514-.47-.546 0-1.014.11-1.405.313-.39.22-.702.502-.936.862s-.406.767-.515 1.236a6 6 0 0 0-.172 1.425c0 .486.062.924.172 1.378.109.438.28.846.515 1.206s.546.642.936.86q.585.33 1.405.33c.812 0 1.436-.204 1.889-.627.437-.407.702-1.017.78-1.8h-2.466v-1.832h4.683v6.06h-1.561l-.25-1.27c-.437.565-.921.956-1.452 1.19m11.238-11.1q.75 0 1.358.235c.406.157.749.392 1.03.673q.421.422.656.987c.156.375.234.767.234 1.205 0 .658-.14 1.237-.406 1.707-.281.485-.734.845-1.358 1.096v.031q.444.118.749.376c.203.172.359.376.484.61.125.235.218.502.28.783s.094.564.11.846c0 .172.016.391.031.626 0 .235.032.486.047.736.031.25.063.485.125.72.063.22.14.423.265.58h-2.45c-.14-.36-.219-.783-.25-1.269s-.078-.97-.14-1.409c-.078-.58-.266-1.017-.531-1.284-.265-.266-.718-.407-1.327-.407h-2.45v4.368h-2.45V34.509h6.024zm-.874 5.057q.843 0 1.264-.375t.421-1.222c0-.563-.14-.94-.421-1.19s-.702-.36-1.264-.36h-2.685v3.147zm14.485-5.057v2.067h-5.9v2.395h5.416v1.91h-5.416v2.756H98.6v2.067h-8.476V34.492zm7.975 0 4.167 11.195h-2.544l-.843-2.49h-4.167l-.874 2.49h-2.466l4.214-11.195zm.14 6.858-1.404-4.102h-.032l-1.451 4.102zm2.685-4.791v-2.067h9.147v2.067h-3.34v9.128h-2.466v-9.128zm18.778-2.067v2.067h-5.9v2.395h5.416v1.91h-5.416v2.756h6.025v2.067h-8.476V34.492zm7.804 0q.749 0 1.358.235c.406.157.749.392 1.03.673q.422.422.656.987c.156.375.234.767.234 1.205 0 .658-.141 1.237-.406 1.707-.281.485-.734.845-1.358 1.096v.031q.445.118.749.376c.203.172.359.376.484.61.125.235.219.502.281.783s.094.564.109.846c0 .172.016.391.032.626 0 .235.031.486.046.736.032.25.063.485.125.72.063.22.141.423.266.58h-2.451c-.14-.36-.219-.783-.25-1.269s-.078-.97-.14-1.409c-.078-.58-.266-1.017-.531-1.284-.265-.266-.718-.407-1.327-.407h-2.45v4.368h-2.451V34.509h6.025zm-.874 5.057q.843 0 1.264-.375t.422-1.222c0-.563-.141-.94-.422-1.19s-.702-.36-1.264-.36h-2.685v3.147zm16.046-5.057q.795 0 1.451.141t1.124.47c.312.219.562.5.734.86.171.361.265.8.265 1.316 0 .564-.125 1.033-.39 1.41-.25.375-.625.688-1.14.923.687.203 1.202.548 1.546 1.049.343.501.499 1.096.499 1.8 0 .564-.109 1.05-.328 1.472a2.9 2.9 0 0 1-.889 1.018 3.9 3.9 0 0 1-1.265.58 5.7 5.7 0 0 1-1.467.187h-5.4V34.523h5.244zm-.313 4.525c.438 0 .797-.11 1.077-.313.281-.204.422-.548.422-1.018 0-.266-.047-.47-.141-.642a1 1 0 0 0-.374-.391 1.4 1.4 0 0 0-.547-.188 4 4 0 0 0-.624-.047h-2.294v2.615h2.481zm.141 4.76c.234 0 .468-.016.687-.063.218-.047.406-.125.577-.235.172-.11.297-.25.406-.454a1.6 1.6 0 0 0 .156-.72c0-.58-.156-.986-.484-1.237-.327-.25-.749-.376-1.28-.376h-2.669v3.07h2.623zm11.487-9.285 4.168 11.195h-2.544l-.843-2.49h-4.168l-.874 2.49h-2.466l4.215-11.195zm.141 6.858-1.405-4.102h-.031l-1.452 4.102zm2.638-6.858h2.763l2.606 4.415 2.591-4.415h2.732l-4.136 6.905v4.29h-2.451v-4.353zm21.555 0 4.168 11.195h-2.544l-.843-2.49h-4.183l-.874 2.49h-2.466l4.214-11.195zm.141 6.858-1.405-4.102h-.031l-1.452 4.102zm7.445-6.858h-2.451v11.195h2.451zm8.179 0q.749 0 1.358.235c.406.157.749.392 1.03.673q.421.422.656.987c.156.375.234.767.234 1.205 0 .658-.141 1.237-.406 1.707-.281.485-.734.845-1.358 1.096v.031q.444.118.749.376c.203.172.359.376.484.61.125.235.219.502.281.783s.094.564.109.846c0 .172.016.391.031.626 0 .235.032.486.047.736.031.25.063.485.125.72.063.22.141.423.265.58h-2.45c-.141-.36-.219-.783-.25-1.269s-.078-.97-.14-1.409c-.078-.58-.266-1.017-.531-1.284-.265-.266-.718-.407-1.327-.407h-2.45v4.368h-2.451V34.509h6.025zm-.874 5.057q.843 0 1.264-.375t.422-1.222c0-.563-.141-.94-.422-1.19s-.702-.36-1.264-.36h-2.685v3.147zm8.6-5.057v9.128h5.432v2.067h-7.882V34.492zm9.256 0h-2.45v11.195h2.45zm4.605 0 4.667 7.516h.031v-7.516h2.294v11.195h-2.45l-4.652-7.5h-.031v7.5h-2.294V34.492zm17.496 0v2.067h-5.9v2.395h5.416v1.91h-5.416v2.756h6.025v2.067h-8.475V34.492zm3.653 8.439c.141.266.312.47.531.642.218.157.484.282.796.36a3.8 3.8 0 0 0 1.639.063c.25-.032.484-.11.702-.22.219-.109.406-.25.547-.438a1.15 1.15 0 0 0 .218-.704c0-.298-.094-.548-.281-.736s-.452-.345-.765-.47a8 8 0 0 0-1.061-.329 47 47 0 0 1-1.202-.313q-.632-.165-1.217-.376a4.1 4.1 0 0 1-1.062-.595 2.9 2.9 0 0 1-.765-.908q-.28-.54-.281-1.315 0-.87.375-1.503c.25-.423.562-.783.968-1.065.39-.281.843-.485 1.342-.626.5-.14.999-.203 1.499-.203q.866 0 1.685.188a4.4 4.4 0 0 1 1.436.626c.422.297.75.673.999 1.127.25.454.375 1.002.375 1.66h-2.373a2.1 2.1 0 0 0-.203-.83 1.4 1.4 0 0 0-.483-.517 2 2 0 0 0-.672-.266 4.5 4.5 0 0 0-.842-.078c-.203 0-.391.015-.594.062s-.374.11-.546.22c-.156.11-.296.234-.406.391-.109.157-.156.36-.156.595 0 .22.047.391.125.532s.25.266.5.376c.249.11.577.235 1.014.345s.999.266 1.701.438c.203.047.5.11.875.22.374.109.733.28 1.108.531.359.235.686.564.952.971s.406.924.406 1.55c0 .517-.094.987-.297 1.425a3.3 3.3 0 0 1-.89 1.143q-.585.47-1.451.751c-.578.173-1.249.267-2.014.267a7.6 7.6 0 0 1-1.795-.22 4.4 4.4 0 0 1-1.529-.72 3.7 3.7 0 0 1-1.062-1.237q-.398-.75-.374-1.785h2.372c0 .376.063.69.203.956" fill="#0f779a"/></g><defs><clipPath id="clip0_583_3267"><path fill="#fff" d="M0 0h252v46H0z"/></clipPath></defs></svg>