<svg width="100" height="46" fill="none" xmlns="http://www.w3.org/2000/svg"><g clip-path="url(#clip0_583_3512)" fill="#e60012"><path d="M34.953 38.347v-1.441c.027-.36.222-.583.582-.638.39 0 .611.222.64.582v7.958c0 .36-.223.554-.584.582-.389-.028-.61-.222-.639-.554v-1.914c-.555.444-1.138.888-1.776 1.304-.389.166-.722.11-.944-.111-.167-.333-.056-.61.277-.86.361-.277.917-.693 1.638-1.192.334-.277.611-.471.833-.638v-1.94h-2.137c-.334 0-.5-.223-.528-.583 0-.36.194-.555.528-.582h2.137zm3.747 6.988c-1.221.055-1.776-.36-1.693-1.22v-7.126c.028-.416.222-.666.583-.721.389 0 .61.222.638.638v2.329c.584-.333 1.222-.888 1.944-1.664.278-.277.555-.333.833-.11.277.276.305.554.083.886-.639.804-1.583 1.58-2.86 2.385v3.05c-.083.388.14.582.639.527h.305c.695.11.972-.194.889-.86v-.942c0-.389.222-.61.583-.666.36.056.583.277.583.666v.998c.166 1.414-.5 2.051-1.971 1.913H38.7zm6.108-8.263h1.416l-.083-.25c-.084-.277.055-.471.36-.638.362-.138.611-.055.723.195l.083.166c.083.277.139.444.194.527h1.305c.305 0 .444.222.472.554-.028.333-.194.527-.472.555h-3.054c.194.11.416.471.666 1.109.084.277.056.444-.083.554h.86l.112-.305c.166-.388.277-.72.305-.942.111-.278.333-.36.666-.305.306.138.445.332.361.637l-.166.472-.194.499H49l.306.11v-2.689q0-.79.583-.748h2.387c.611 0 .833.332.722.998 0 .028-.055.25-.194.665a28 28 0 0 0-.445 1.47c-.194.36-.138.665.112.86.555.859.86 1.635.916 2.384 0 1.22-.472 1.83-1.5 1.83q-.624.083-.999-.166c-.277-.111-.333-.305-.25-.583.111-.305.333-.443.667-.36q1.082.25.916-.832c0-.527-.389-1.192-1.083-1.969-.25-.25-.278-.582-.111-1.081.25-.749.444-1.414.583-2.052h-1.055l-.167.167v7.098c0 .333-.194.527-.527.554-.333-.027-.528-.221-.555-.554v-4.16L49 41.01h-4.47c-.277 0-.444-.222-.471-.554.027-.333.194-.527.472-.555h.944s-.223-.36-.556-.943c-.139-.36-.027-.582.278-.72h-.472c-.306 0-.444-.223-.472-.555 0-.333.194-.527.472-.555m-.028 5.102c-.028-.582.25-.86.777-.832h2.777q.75-.04.75.832v2.218c.027.444-.25.666-.834.638h-2.693c-.527 0-.777-.222-.777-.638zm3.22.444-.166-.167h-1.832l-.167.167v1.22l.167.166h1.832l.167-.166zm8.44 2.522q-.5-.291-.166-.749c.472-.748.86-1.663 1.194-2.745.11-.388.333-.554.721-.443.306.11.417.36.306.748-.222 1.082-.61 2.025-1.138 2.829-.278.388-.556.499-.917.36m.778-4.63-.306-.278c-.277-.25-.444-.416-.555-.499-.278-.25-.278-.499-.055-.804q.333-.333.75 0c.388.25.721.5.943.804.278.222.278.5 0 .777-.277.25-.527.25-.805 0m.305-2.607q-.54-.54-.916-.832c-.222-.221-.194-.471.028-.748.25-.222.5-.222.805-.028l.167.11c.305.278.555.5.721.722.25.277.25.527.028.804q-.416.416-.833 0m.833 1.248a9.6 9.6 0 0 1 1.083-.998q.416-.292.75.083v.637c-.306.278-.639.583-1.028.943q-.458.374-.75.083c-.277-.221-.277-.471-.055-.748m2.832-2.468c-.083-.305.028-.527.305-.638.361-.11.639 0 .833.25l.25.388h2.554c.25 0 .417.194.444.499 0 .333-.166.527-.444.555h-1.86v.554c.167-.305.417-.416.75-.277a5.6 5.6 0 0 1 1.138.832c.333.305.416.61.194.86-.222.304-.472.332-.75.11a11 11 0 0 0-1.026-.832l-.306-.305v.86c0 .277-.194.416-.5.444-.305-.028-.5-.167-.527-.444v-1.83h-.666v1.83c0 .305-.195.444-.5.471-.333 0-.528-.138-.555-.443v-1.858h-1.472c-.277 0-.444-.194-.472-.527 0-.333.14-.527.445-.554h2.22zm-2.11 4.464c-.277 0-.389-.194-.389-.471 0-.278.14-.444.39-.472h5.44c.445-.055.64.139.611.583v.942c.056.472-.139.694-.61.638h-4.554l-.25.194.167.222h4.914c.444-.055.61.277.528.998-.028 1.081-.583 1.636-1.666 1.636-.86 0-1.694 0-2.47-.083-1.5-.166-2.11-.471-1.861-.915 0-.305.278-.416.75-.305a23 23 0 0 0 3.498.25c.416 0 .61-.14.583-.527l-.195-.194h-4.83c-.389 0-.556-.222-.528-.666 0-.277.056-.582.111-.915.056-.36.278-.527.666-.471h4.61l.11-.111v-.194l-.11-.111h-4.915zm10.328-3.854h.583v-.388l.083-.36c.028-.278.222-.444.583-.472.333.028.527.194.527.527 0 .332 0 .582-.027.72h.638c.472-.027.694.222.666.721v6.267c.167.998-.5 1.358-1.943 1.026-.25-.056-.389-.25-.36-.582.082-.278.277-.389.555-.361.527.056.75 0 .721-.166v-2.662h-1.61c0 1.414-.139 2.523-.444 3.41-.111.36-.333.527-.722.444-.333-.139-.472-.36-.36-.721.305-.749.443-1.775.471-3.133h-.25c-.277-.028-.388-.194-.388-.5 0-.304.138-.498.388-.526h.25v-2.412c-.055-.583.167-.832.639-.777m2.026 3.133v-2.051l-.11-.111h-1.444l-.084.11v2.052zm-.916 3.023-.083-.167c-.222-.332-.361-.637-.472-.86l.25-.526c.277-.083.472 0 .583.166.194.305.36.638.527.943l-.25.555zm0-3.41c-.083-.167-.25-.5-.5-1.027l.195-.527c.277-.11.5-.055.638.167.167.277.333.582.472.943l-.194.499-.61-.083m2.581-2.745h1.194l-.167-.306v-.166c-.166-.277-.083-.499.195-.638.388-.11.638-.027.805.222.055.111.166.333.305.721l.083.166h1.5c.305 0 .444.195.472.5-.028.332-.195.526-.472.554h-3.915c-.36-.028-.583-.222-.583-.554 0-.305.222-.5.583-.5m.083 2.218c0-.389.25-.61.639-.638h1.777c.388 0 .61.194.61.582v4.63l.167.084.194-.222c.028-.499.028-.998.028-1.47 0-.249.139-.415.444-.443.278 0 .417.166.445.444v1.83c.11.72-.306.998-1.278.86-.805.055-1.166-.25-1.082-.86v-4.243l-.111-.11h-.639l-.11.11q-.084 3.785-.584 4.908c-.139.277-.36.388-.722.333-.305-.111-.416-.333-.305-.638v-.11c.416-.916.583-2.58.555-5.02m7.524.445a8.6 8.6 0 0 0 2.415-1.303c.278-.194.555-.166.805.083q.292.416-.083.749c-.833.638-1.805 1.137-2.86 1.497-.416.111-.694 0-.805-.305-.055-.333.111-.582.528-.72m.805 2.052c-.333 0-.528-.222-.528-.555 0-.332.222-.526.556-.554h6.774c.305 0 .444.222.472.554 0 .333-.195.527-.528.555H85.37v2.052h3.498c.306 0 .5.194.528.527-.056.305-.222.499-.555.499h-8.052c-.333 0-.5-.194-.527-.5 0-.304.194-.498.527-.526h3.36v-2.052H81.4zm2.72-4.991c-.222-.471-.166-.776.112-.915.388-.222.722-.166.944.166.083.111.194.305.305.638v.111h3.026q.791 0 .75.582a5.7 5.7 0 0 1-.306 1.276c-.138.388-.333.61-.583.638l.167.083c.278.138.444.221.555.305.278.25.305.499.167.748-.195.25-.445.278-.75.167a46 46 0 0 0-2.61-1.276c-.333-.166-.472-.388-.36-.665.166-.305.416-.388.805-.277.5.166 1 .36 1.471.582l-.083-.388.11-.222.084-.222-.111-.166h-6.219l-.11.11v.721c0 .278-.223.444-.556.472-.333-.028-.528-.194-.555-.472V37.96c-.028-.554.25-.804.777-.804h3.026zM70.1 17.524l.11.11v.14s-.194.221-.305.499l-.416.305c.055.499.055.748 0 .804l-.139.332-.11.444.055.277.083.278-.111.277-.111.36a1.66 1.66 0 0 1-.5-.887c0-.083-.166-.5-.416-1.192l-2.721 1.109-.222.083-.25.083-.638.277s-.167.389-.417.943l-.111-.055-.222.277-.111.305-.167-.11-.388.47-.278-.194c0-.166.139-.554.416-1.192-.027-.11-.277-.222-.75-.277v-.139l.14-.388.333-.139s.416-.166.86-.388c.639-1.58 1.25-3.16 1.888-4.713 1.027-2.496 1.638-3.771 1.86-3.855l.25.305.25.084h.25l.444.526c.194.5.333 1.248.472 2.246.056.416.167 1.415.333 3.023.583-.167.889-.25.86-.25l-.166.305m-2.054.416-.639-4.714h-.139c-.138.444-.555 1.498-1.276 3.189-.667 1.553-1 2.412-1 2.496l-.083.277.916-.36c.389-.14.916-.333 1.527-.583l.722-.305zm4.525 1.137v.166l-.25.277-.277.278h-.084l-.055.055-.056.056c-.25.083-.555-.111-.888-.555q-.417-.623-.416-.915c0-.943.333-2.246 1.027-3.91l.166-.249.417-.194s.25.055.5-.056l.138-.083.056.194-.111.416c0 .194-.195.832-.528 1.886-.333 1.026-.472 1.691-.472 2.052 0 .36.084.499.222.443.111-.027.306-.194.611-.499.25-.25.389-.416.444-.499l-.11.25.11.055c-.083.277-.416.666-.416.832m1.471-8.374c0 .139-.083.333-.138.61a2.7 2.7 0 0 1-.306.693l-.277.444-.472.11-.167.112.056-.111-.556.083v-.139l.14-.221h-.112c.25-.472.416-.832.528-1.026.222-.416.416-.666.61-.749.056 0 .278-.083.611-.139l-.083.278.194.055zm4.331 3.771-.139.471-.25.444c-.221.277-.332.416-.416.444h-.25v-.222s.028-.25.111-.777c.084-.526.112-.859.112-.97v-.333l-.056-.416h-.083c-.195.056-.556.527-1.055 1.387-.389.693-.694 1.247-.86 1.663-.223.555-.5 1.415-.834 2.634l-.583.195s-.25-.084-.416-.333l-.222-.471 1.332-4.936.222-.083.528.416.055.305v.36c.417-.554.667-.915.833-1.109.306-.36.583-.582.805-.665.195-.056.444 0 .722.25l.417.443.055.36c0 .278 0 .583-.055.943m1.887.166c-.028.472-.028.804 0 .97.084.389.306.528.639.444.055 0 .222-.138.472-.305.36-.25.583-.388.638-.415q.459-.333 0 .332l-.555.583c-.222.166-.583.332-1.055.526-.666 0-.86-.11-1.083-.443l-.222-.472s0-.305-.055-.554l.083-.97c.056-.694.222-1.609.5-2.718.277-1.109.722-2.579 1.305-4.409.055-.083.222-.277.444-.637l.416-.167.361.111h.361q-2.124 5.325-2.249 8.069"/><path d="M84.453 15.167v.167l-.25.305-.305.277h-.084l-.055.055-.056.056c-.25.083-.555-.111-.888-.555q-.417-.623-.417-.915c0-.943.334-2.246 1.028-3.91l.166-.249.417-.194.5-.056.138-.083.056.194-.111.389c0 .221-.195.86-.528 1.913-.333 1.026-.472 1.691-.472 2.052 0 .36.084.499.222.443.111-.027.306-.194.611-.499.25-.25.389-.416.444-.499l-.11.25.11.055c-.083.277-.416.665-.416.832m1.527-8.402c0 .14-.084.333-.139.61-.111.278-.194.527-.305.694l-.278.443-.472.111-.167.111.056-.11-.555.082v-.138l.138-.222h-.11c.25-.471.416-.832.527-1.026.222-.416.416-.665.61-.749.056 0 .278-.055.612-.138l-.084.277.194.055zm5.275 5.685c-.472.72-.667 1.025-.584.942l-.638.5c-.305.082-.528.11-.666.11q-.75-.249-.916-1.164c-.084-.278-.112-.804-.084-1.525-.194.222-.389.554-.638 1.053-.222.389-.417.804-.611 1.193-.389.693-.694 1.081-.86 1.136-.223.056-.417-.083-.611-.388-.14-.25-.195-.471-.195-.582 0-.194.167-.776.444-1.775.25-.86.417-1.47.528-1.774l-.056-.139.445-.36c.333-.083.527.222.5.499 0 .138-.084.444-.223.943s-.194.887-.194 1.164c.36-.554.75-1.109 1.138-1.663.666-.943 1.11-1.47 1.333-1.526.333-.083.638-.027.888.14l-.389 1.69a9.4 9.4 0 0 0-.277 1.664l.055.333.195.222c.194-.056.527-.305.944-.721.277-.277.555-.582.805-.832l.083.139s-.139.332-.389.831"/><path d="M94.697 9.178c-.61 1.081-1.194 1.775-1.805 2.024l-.194-.166-.139.277c0 .471.278.61.889.416l.388-.194.39-.194.305.11-.25.5c-.667.471-1.083.693-1.222.748-.222.084-.527.084-.86.028-.25-.055-.39-.083-.472-.166-.278-.277-.417-.666-.417-1.248 0-.471.111-1.054.389-1.774.25-.721.638-1.36 1.138-1.914.694-.693 1.333-1.109 1.943-1.22.472-.083.833.111.833.36 0 .583-.277 1.387-.86 2.413m-.306-1.775a6 6 0 0 0-1.277 1.692c-.166.333-.333.832-.5 1.442.14-.084.445-.472.917-1.22.5-.777.805-1.359.888-1.72v-.221zm5.386-2.717-.333.471c-.139.167-.305.36-.527.638 0-.11 0-.333.055-.61.028-.277.056-.471.056-.638h-.14c-.166.028-.332.222-.527.583q-.207.416-.25.582c-.055.277-.083.527-.11.72 0 .278 0 .472.027.445q.333 2.537.333 2.994c0 .416-.055.86-.194 1.359-.194.554-.416.86-.722.942l-.444.167c-.36.11-.722-.056-1.11-.5q-.542-.581-.5-.997c0-.5.333-1.193.916-2.08l.222.194c0 .222 0 .61-.028 1.192-.028.389 0 .666.195.888l.194.055c.194-.305.333-.915.389-1.774 0-.222-.028-.61-.14-1.22-.055-.36-.11-.694-.194-1.026-.027-.472-.055-.804-.055-.86 0-.277 0-.554.111-.887q.208-.79.5-1.082c.194-.194.5-.36.916-.47q.291-.084.833 0 .624.082.666.332l-.166.554M39.561 15.833c-1.305.055-1.832-1.137-5.969.582l-.25.11.056.112c.86-.389 2.637-.999 3.581-.999-.472 0-.916.111-1.25.194-.332.084-.554.167-.554.195v.138c-.833.277-1.916.749-3.026 1.165-1.11.444-2.194.86-3.082 1.22v.083a88 88 0 0 0 3.11-1.22c1.11-.444 2.165-.915 3.053-1.192-.86.305-.833.36-.833.416-2.582 1.081-5.274 2.052-7.856 3.188l2.637-1.053c-1.694.86-6.135 2.44-8.717 3.549-1.055.443-2.166.915-3.137 1.525-.473.305-.917.637-1.222 1.026a1.8 1.8 0 0 0-.333 1.303c.055.471.277.832.666 1.054.389.221.944.305 1.5.277 1.138-.056 2.36-.527 3.58-.915l1.555-.555c.167-.083 1.472-.638 1.36-.277-.5 1.497-.61 2.024-1.026 2.301-.833.555-1.278.86-2.138 1.47-2.721 1.94-5.525 3.937-8.634 5.351-1.86.832-2.804 1.137-3.582 1.137-1 0-1.554-.499-1.804-.804-.833-1.054-.528-2.495-.028-4.658.805-3.55 3.36-9.538 6.83-15.971 2.11-3.91 4.47-6.988 5.885-8.845l.222-.278c1.11-1.247 1.388-1.441 1.61-1.635.556-.472 1.194.582 1.472-.195l.167-.499.138-.554c-.027-.777-.638-1.664-1.277-2.08l-.583-.277-.666-.139a9 9 0 0 0-.86-.055c-.695 0-1.444.138-2.222.416-2.415.887-8.356 7.264-13.16 16.914C0 26.868-.443 33.55.25 36.49c.971 4.159 3.886 5.212 5.663 5.406 2.61.305 5.275-.665 6.94-1.552 4.36-2.357 6.858-5.518 9.551-8.651l-.222.637c-.833 2.413-1.61 4.742-2.388 6.988-.416 1.248-.805 2.578-.638 3.715.028.277.11.555.222.887l.166.583.084.665c0 .416.277.694.694.832h.694l.333-.083.222-.166c.305-.278.583-.943.833-1.553.472-1.276.916-2.662 1.388-4.02 1.888-5.408 3.692-10.426 5.47-16.304l.499-.25.111-.055h.056l.11-.084.445-.277s-.639.638.11.166c.75-.499 1.417-.942 2-1.136a10 10 0 0 1 1.055-.36c.472-.14.5-.056.5 0 0 .027-.64.304-1.194.554-.556.222-1 .499-.528.277-.305.166-.638.36-.944.582.25-.11.5-.222.778-.332.388-.222.75-.333.971-.416 5.608-2.385 8.634-3.605 9.05-4.908.445-1.331-1.415-1.83-2.748-1.775"/><path d="M89.977 17.857c-.722-.75-2.22 1.608-15.102 5.906-12.882 4.297-21.183 4.325-21.655-.5-.083-1.303.305-2.273.639-3.133.36-.86.777-1.608 1.166-2.273 1.638-2.884 3.997-5.49 6.83-7.57a23 23 0 0 1 2.498-1.553c.472-.25.944-.471 1.443-.665.084-.028.667-.25 1.055-.36l-.444-.056c-1.083 0-2.165.277-3.165.61-1.582.527-3.11 1.22-4.608 2.024-.75.388-1.472.832-2.194 1.275l-.527.333-.972.638-.971.665-.472.333-.472.277c-.306-1.22-.778-2.523-1.777-3.355-.528-.443-1.222-.776-1.971-.998-.722-.222-1.583-.305-2.388-.333-.805 0-1.638.056-2.443.194-.805.14-1.61.36-2.443.638-.416.139-.805.277-1.221.416s-.833.277-1.194.416c-.5.194-.444.194-.528.222l-.194.11-.167.167v.166l.167.028h.722l.416-.027c1.11-.084 2.304-.278 3.554-.416a22 22 0 0 1 1.999-.111c.36 0 .721 0 1.166.11.222.056.444.111.694.195l.638.305c.444.25.916.693 1.166 1.192.278.5.389 1.11.361 1.691-.11 1.082-.527 1.775-.916 2.413-.833 1.22-1.694 2.107-2.61 3.022a41 41 0 0 1-2.832 2.579 62 62 0 0 1-2.97 2.384 31 31 0 0 1-3.22 2.19c-1.111.666-2.25 1.304-3.443 1.858l-.472.194c-.25.111-.555.25-.86.278h-.278l-.111.388-.083.166-.056.084v.554l.083.194c.167.444.361.832.611 1.11.25.304.527.498.888.665l.111.055h.028l.194.028.64-.056c.97-.138 2.053-.554 3.108-1.026 1.055-.47 2.083-1.053 3.082-1.663a36 36 0 0 0 2.887-2.024l.694-.555c.25-.222.361-.277.889-.748l.638-.583.694-.637 1.36-1.248s-1.443 8.207 11.244 8.013c12.688-.194 33.37-12.366 31.122-14.28"/></g><defs><clipPath id="clip0_583_3512"><path fill="#fff" d="M0 0h100v46H0z"/></clipPath></defs></svg>