<svg width="43" height="46" fill="none" xmlns="http://www.w3.org/2000/svg"><g clip-path="url(#clip0_583_3570)" fill-rule="evenodd" clip-rule="evenodd" fill="#e95506"><path d="M38.13 24.403c-4.184-1.473-6.352 1.16-6.973 2.068-1.145 1.666-1.402 5.893 1.954 7.22 1.515.599 3.188-.4 3.485-1.683.31-1.245-.346-3.254-2.653-3 .275-.395 1.528-.634 2.307-.293.798.35 2.544 1.608 1.498 4.624-1.049 3.016-4.709 2.49-5.721 1.824s-1.778-1.439-1.778-3.189c-.73-.07-1.67-.141-2.056-.558-.382-.424-.623-.844-.766-2.632-.138-1.788-1.464-4.206-2.996-5.782 1.532-1.58 2.86-3.997 2.996-5.785.143-1.784.384-2.204.766-2.629.386-.417 1.328-.49 2.056-.56 0-1.751.766-2.522 1.778-3.19 1.012-.664 4.673-1.19 5.72 1.824s-.699 4.276-1.498 4.626c-.78.34-2.033.102-2.306-.294 2.307.255 2.963-1.757 2.653-3-.296-1.283-1.97-2.284-3.485-1.682-3.356 1.326-3.099 5.553-1.954 7.22.62.906 2.789 3.54 6.973 2.068 4.051-1.424 4.74-5.434 4.74-5.434.94-5.815-3.31-10.164-8.996-10.197-5.681-.035-7.145 3.892-7.145 3.892-2.091.174-3.136.98-4.01 2.381-.87 1.403-1.638 4.381-2.614 6.061-.977 1.686-2.234 2.911-3.975 4.7 1.742 1.787 3 3.01 3.975 4.695.976 1.683 1.746 4.661 2.614 6.064.873 1.4 1.919 2.205 4.01 2.382 0 0 1.462 3.926 7.145 3.892 5.686-.035 9.936-4.382 8.995-10.2 0 0-.688-4.006-4.739-5.432"/><path d="M28.32 39.597c-1.338-.456-2.752-.371-3.56-.105-1.22.401-1.465.928-1.845 1.435-1.034 1.398-2.253.52-3.049-.664-.834-1.246-1.59-2.786-2.07-5.785-.514-3.207-3.034-8.164-6.86-11.476 3.826-3.314 6.346-8.273 6.86-11.479.48-2.996 1.236-4.539 2.07-5.781.796-1.186 2.015-2.063 3.05-.668.378.508.622 1.034 1.844 1.438.808.266 2.222.347 3.56-.106.62-.209 1.727-.752 1.93-1.509.252-.909-.952-2.048-1.23-2.305C26.876.559 23.566-.148 20.582.026c-2.92.171-6.509 1.473-8.871 4.48-1.852 2.354-2.652 5.828-4.124 9.296-1.894 4.463-5.005 6.98-7.506 9.13l-.005.003a1 1 0 0 1-.077.067l.049.04v.003c2.51 2.155 5.634 4.675 7.538 9.158 1.473 3.467 2.272 6.936 4.123 9.292 2.363 3.006 5.95 4.31 8.872 4.48 2.983.176 6.294-.533 8.436-2.562.278-.258 1.482-1.397 1.23-2.309-.204-.756-1.31-1.297-1.93-1.506"/></g><defs><clipPath id="clip0_583_3570"><path fill="#fff" d="M0 0h43v46H0z"/></clipPath></defs></svg>