<svg width="251" height="47" fill="none" xmlns="http://www.w3.org/2000/svg"><path d="M207.875 33.676c-.207 0-.447.275-.447.275h.825s-.172-.275-.413-.275" fill="#e6002d"/><path d="m232.937 0-30.769 35.564c-9.385 9.578-16.227 10.47-16.227 10.47h49.849l14.233-46h-17.086zM207.84 32.337c.551 0 .997.755.997.755h-1.994s.447-.755.997-.755m25.372 1.648c3.059.309 3.231-.72 3.231-.72l.791.274c-.516.961-2.028.927-2.028.927h-30.769s1.41.103 2.475-.824c.928-.755 1.238-.378 1.925-.035.551.275 1.101.378 3.266.172 4.057-.378 4.057-1.236 7.667-6.488 1.169-1.682 2.888-4.6 4.813-7.518s3.919-3.227 6.016-3.639 8.629-.103 8.423-.103c-5.398.412-6.773 2.712-6.773 2.712l-9.248 13.526.482.068s7.253-10.436 8.904-12.907c1.615-2.437 5.431-2.884 5.431-2.884-.756.721-1.581 1.51-2.165 2.266l-9.489 14.04s3.988.79 7.048 1.099m-64.357.446-.275 2.746h-6.36s-1.1-.137-1.341.721c-.309 1.064.619.927.619.927h5.019s2.304.79 2.269 3.193c-.034 2.265-1.134 3.947-2.922 3.947h-8.251l.172-2.643h7.976s1.444-1.133 0-1.854h-5.707s-1.753-.103-1.822-2.677c-.034-2.129.378-2.678 1.238-3.433 1.031-.927 2.509-.927 2.509-.927zm-156.835 0-.275 2.746H5.419s-1.1-.137-1.34.721c-.31 1.064.584.927.584.927h5.02s2.303.79 2.268 3.193c0 2.265-1.134 3.947-2.956 3.947H.778l.172-2.643h7.976s1.41-1.133 0-1.854H3.219s-1.787-.103-1.822-2.677c0-2.129.378-2.678 1.238-3.433 1.065-.927 2.51-.927 2.51-.927zm145.559-.034h-8.87L147.85 46h9.179l.172-2.643h-6.395l.069-1.751h6.188l.138-2.678h-6.12l.138-1.82h6.222zm-10.177.034L146.577 46h-2.681l-4.435-6.9-.481 6.9h-2.716l.894-11.603h2.647l4.4 7.346.55-7.346zm-11.998 0L134.579 46h-2.75l.928-11.603zm-8.973 0-.584 8.857h5.26l-.344 2.677h-7.838l.825-11.534zm-14.438 0-.825 11.569h2.647l.688-8.651h4.263s.687-.103.515.961c-.137.858-.687.652-.687.652h-3.369L118.903 46h3.094l-2.647-4.978s2.613-.137 2.613-3.192-2.132-3.433-2.854-3.433h-7.15zm-9.901 0h-2.716l-6.463 11.569h3.3l1.444-2.54h4.538l.791 2.54h3.025zm-3.335 7.209 1.788-3.33 1.066 3.33zm-20.283-7.209h-2.716l-6.463 11.569h3.266l1.478-2.54h4.504l.79 2.54h3.026l-3.92-11.569zm-3.335 7.209 1.788-3.33 1.066 3.33zm35.066-7.209L109.38 46h-2.716l.928-11.603zm-23.755 0L85.625 46H82.91l.894-11.603zm-54.627 0h-2.716l-6.463 11.569h3.266l1.478-2.54h4.503l.791 2.54h3.06zm-3.335 7.209 1.788-3.33 1.065 3.33z" fill="#e6002d"/><path d="m70.464 34.397-.894 11.569h-2.647l.309-4.257h-4.779l-.412 4.257h-2.682l.894-11.569h2.785l-.344 4.634h4.71l.413-4.634zm-46.618 0-.894 11.569h-2.647l.31-4.257h-4.779l-.412 4.257h-2.648l.86-11.569h2.785l-.344 4.634h4.71l.412-4.634zm35.067 0h-7.048s-3.919.172-4.125 3.604c-.172 3.433-.138 4.429-.138 4.429s-.068 3.536 3.06 3.536h7.563l.275-7.14h-5.225l-.103 2.608h2.647l-.172 1.82H51.04s-.79.103-.79-.824.206-4.085.206-4.085 0-1.27 1.753-1.27h6.498l.206-2.644zm-12.067-.034L46.09 45.93h-2.785l-4.4-6.762-.482 6.797h-2.75l.86-11.603h2.646l4.435 7.346.654-7.346zm-16.812-6.832c-.515 1.58 1.444 3.124 2.27 1.854 3.093-4.84 2.68-8.445 2.68-8.445s-4.571 5.355-4.95 6.591m79.278-4.325c-.344.72-2.269 1.064-2.269 1.064v-2.54s4.125-1.51 1.684-2.3-6.36 1.922-6.36 1.922c.516 1.236 2.75.893 2.75.893l-.068 2.3s-3.026.48-3.851.48c-1.272 0-2.028.687-2.028 1.305s1.753.961 1.753.961c.413-.72 3.954-.961 3.954-.961s5.397-.755 5.947-1.51c.825-1.065-1.169-2.3-1.512-1.614m29.152-3.158-.515 2.265c-.585-.514-3.438 1.168-3.438 1.168s-.653.24-.757-.275c-.068-.515 3.094-3.57 3.094-4.566 0-.995-1.925-.446-1.925-.446l-4.435 5.527s-.515 1.339 1.101 1.75c2.612.721 6.806-1.956 6.806-1.956s.688 1.854 1.444 1.51c.757-.343 2.132-1.579 1.41-3.364-1.341-3.33-2.75-1.682-2.75-1.682M15.94 19.155c-1.788.893-3.404.79-3.404.79l.516-6.214h2.784c2.82-1.167.172-3.02.172-3.02h-5.26c-1.03-2.06-2.165-1.065-2.715.171-.757 1.682 1.443 9.818 1.443 9.818s-1.375.446-2.475.55c-1.1.068-6.566 1.27-6.876 2.3-.687 2.162 1.616 2.23 2.888 2.505s14.611-2.849 15.367-3.124 1.616-.96 1.513-2.471c-.069-1.51-3.163-1.648-3.988-1.27m19.493-5.63c-.585-4.806-3.3-3.468-3.3-3.468s-1.617.618-.413 2.472c2.544 2.78 3.747.996 3.747.996m-2.235 6.076c-.619-4.806-3.3-3.467-3.3-3.467s-1.616.618-.447 2.506c2.544 2.78 3.747.995 3.747.995m17.843.035c-.928-.55-2.647.514-2.647.514s.757-4.29-.103-4.462-4.16 1.853-4.263.892c-.069-.995 4.676-4.462 4.676-4.462s.584-.55-.172-.893c-1.685-.79-7.735 3.399-8.08 3.57-.343.172-.412-.275-.412-.275s4.607-7.483 4.95-8.444c.345-.996-.687-1.957-2.2-1.339-1.546.618-.584 3.124-.584 3.124.413.55-1.96 3.398-1.96 3.398s-2.646 4.188-2.715 4.91c-.07.72.687 1.887 1.203 1.166.516-.72 4.744-1.716 4.744-1.716l-3.644 6.248s-2.716.103-3.713.618c-1.031.515-.515 1.682-.515 1.682s3.025-.412 2.475.274c-2.2 2.575-1.788 4.635-1.788 4.635l7.15-1.064s-.859 4.085-.068 4.016c2.991-.343 3.128-4.085 3.128-4.085l.757-.893s.516-4.016.516-4.806 2.956-.343 3.644-.549c.687-.171.584-1.51-.344-2.025m-9.214.583s.688.275.585.824h-.963l.344-.824zm-3.403 6.076c-.688-.206 2.303-3.57 2.303-3.57s2.475 1.717 2.372 2.335c-.172.96-3.231 1.716-4.675 1.235m5.26-7.38c-.275.652-.482.034-.757 0-.859-.172.344-1.27.344-1.27s.894.103.413 1.27m.962 4.977c-.584.515-1.787-1.888 0-2.06 0 0 1.444.79 0 2.06m.688-3.123c-.31.583-1.719-2.026 0-2.3 0 0 1.169 0 0 2.3m69.651-12.667c-1.788 1.338-4.916 1.99-5.363 1.888-.413-.103-3.644-3.296-3.644-3.296-2.888-.515-2.544 1.167-2.544 1.785s2.2 2.746 2.2 2.746c-.688.618-5.948 1.236-5.948 1.236s-2.716-.686-3.403 0c-2.063 2.06-.585 5.63-.069 6.282.516.618 1.272-.618 1.547-.995.24-.343-.275-2.678-.069-3.124.172-.446 4.504-1.442 4.504-1.442.516 4.291-1.616 4.806-1.616 4.806l-.069.652s.585.618 1.1.103c4.057-4.256 2.304-6.35 2.716-6.282.413.103 4.229-.858 4.229-.858s5.191-2.06 5.432-1.339c.481 1.408-2.132 2.678-2.132 2.678.413.446 2.029-.344 2.029-.344s2.784.55 3.472-1.613c.447-1.373-1.685-3.398-2.372-2.85" fill="#e6002d"/><path d="M111.958 15.345c-.24.343-.859.171-.859.171.791-1.235-.172-3.57-1.032-3.57-.859 0-1.718 3.468-1.1 4.978.619 1.51 3.988.892 3.988.892s.31-.343.757-1.235c.687-1.34-1.513-1.58-1.788-1.236m20.283-.618c.619-.721-.412-2.78-2.131-2.472-1.685.275-3.748 4.669-3.129 5.493.757 1.098 4.676-2.3 5.26-3.021m10.967-5.012c-2.887 1.27-.584 5.973-.171 6.591s2.269.412 2.44-.343c.516-1.854-.343-7.072-2.269-6.248m27.022-4.635c-.241.275-6.635 2.575-6.635 2.575s-2.991-.892-3.128 1.442c.859 2.85 3.231.961 3.231.961 3.713-2.849 5.432-2.574 5.432-2.574l.172 15.688s-2.613 2.574-1.272 4.462c1.203 1.717 2.475 0 2.991-.617.515-.619.859-19.602.859-20.392s-1.341-1.785-1.616-1.51" fill="#e6002d"/><path d="m158.301 15.002-2.029.068c-.24 1.442 1.719 1.957 2.888 1.442 5.26-2.3 6.051-4.12 6.051-4.12-.757-1.51-6.91 2.61-6.91 2.61m4.4 1.51c-1.1.103-6.016 4.257-6.016 4.257.343 3.57 4.159 2.78 5.019 2.403.859-.344 2.819-4.566 3.128-5.081.344-.515-1.031-1.682-2.131-1.58m-1.616 4.909c-1.272.79-2.475.995-2.613-.343 0 0 3.232-3.021 3.404-2.575s.515 2.128-.791 2.952m-75.461-.994s0-.31-.343-.138c-1.341.79-.688 4.703-3.095 5.218-2.922.618-4.022-1.27-4.297-2.506-.31-1.544 1.685-5.32 1.994-6.488.344-1.167-2.234-1.235-2.234-1.235 1.134-1.854 2.062-3.056 3.162-2.781l.069-.996h-.756s.172-2.231-2.235-3.673c-1.34-.824-2.716.31-2.785.584-.79 3.02 2.888 2.712 2.888 3.707 0 .721-3.781 1.133-4.469 1.51-.516.275-.55 1.1-.103 1.408.962.55 3.094-1.27 3.54-1.682.413-.103.173.515.104.824-.378 1.339-3.403 4.978-6.016 9.955-.138.24.034 1.167.516.755.48-.412 3.437-5.973 4.503-7.003 1.478-1.407 2.063-.755 2.028-.343-.034 1.236-2.544 6.9-.618 8.994 1.375 1.51 6.807.79 8.113.069.31-.172.756-.824-.103-1.648-.62-.618.172-4.566.172-4.566" fill="#e6002d"/><path d="M70.36 17.61c-.172-.583 1.41-2.06.722-3.192-.24-.687-1.684-.584-1.684-.584s1.375-2.3 1.615-3.467c.275-1.167-1.719-1.75-1.719-1.75-3.128 2.471-6.703 9.234-6.703 9.234s.378.927.618.24c.275-.72 3.507-2.746 3.507-2.746 1.066 1.922 2.372.309 2.372.309v1.648c0 .24-1.581-.687-2.269-.584-1.478.206-.069 1.75-.069 1.75 0 .516-.034.79 0 .996-.309.275-.996.103-.996.103s.274-2.677-.138-2.712c-.378-.034-.86.858-.86.858s-.309 1.683-.378 2.815c-5.466 1.202-5.81 1.991-5.81 1.991s.07.927.722 1.27c.62.344 1.272.515 1.822-.411.447-.687 3.163-1.923 3.163-1.923l-.172 5.012s.035 1.682.928 1.305c1.204-.515.894-6.317.894-6.317h.379c.378 2.78 2.234 2.575 2.234 2.575s.413.72.275 1.167c-.172.446-1.237.309-1.237.309.55.79.928.343 1.272 2.609.137.72 1.512-.103 1.753-.72.206-.584-.207-7.416-.207-7.416 2.407-2.54.138-2.231.035-2.3m-1.96 3.536-.31-.103s-.102-.858.104-.961c.206-.137.31-.069.31-.069s.068 1.064-.104 1.099" fill="#e6002d"/></svg>