<svg width="147" height="46" fill="none" xmlns="http://www.w3.org/2000/svg"><mask id="mask0_597_3588" style="mask-type:luminance" maskUnits="userSpaceOnUse" x="0" y="0" width="147" height="46"><path d="M147 0H0v46h147z" fill="#fff"/></mask><g mask="url(#mask0_597_3588)"><path d="M40.335 6.994h2.51l-4.41 12.762h3.155q.323.107.538-.433L45.964 8.11h2.438l-4.015 11.645c-.43 1.442-1.327 2.09-2.617 2.054l-12.8.109 4.697-13.663h2.581l-3.98 11.572h3.621L40.3 7.03zm8.964 12.87h1.219c.287 0 .645-.217 1.004-.65l1.075-1.441h2.438l-2.33 2.992c-.502.577-1.148.865-1.972.937h-2.08zm10.54-12.618.216-.577h2.438l-.215.577H68.3l-.645 1.839h-5.988l-.215.649h5.63L65.11 15.43c-.43 1.297-1.398 1.946-2.832 1.91h-3.442l-1.47 4.326h-2.51l1.47-4.29h-5.7l2.617-7.57h5.772l.215-.65h-5.95l.645-1.838h5.952zm-6.094 8.111h3.298l.323-.937h-3.299zm4.553-3.677h-3.299l-.322.938h3.298zm4.446 3.389.25-.721H59.84l-.323.937h2.976s.215-.108.287-.216m-2.87 5.371-.286-2.74h2.438l.215 1.587c-.036.396.143.54.61.433h.967l-.645 1.838h-1.9c-.933-.072-1.399-.469-1.434-1.117m4.051-8.833h-3.19l-.324.938h3.156l.322-.938zm9.609-4.218h1.541l.43-.649h2.009l-.359.65h3.227l-2.151 6.236h.322l-.68 1.947h-.395l-1.506 4.362h.25c.252.036.431-.108.503-.397l3.298-9.59h6.131l-3.37 9.734c-.072.18 0 .253.251.253h.215l-.61 1.766h-.86c-1.111 0-1.506-.505-1.075-1.55l2.868-8.327h-2.187l-2.833 8.219c-.394 1.081-1.075 1.658-2.115 1.658h-1.111l.502-1.442c-.43 1.01-1.184 1.478-2.224 1.442H71.67l.61-1.766h1.29c.323 0 .574-.144.718-.613l1.29-3.785h-3.155l-1.577 4.578c-.395 1.01-1.004 1.514-1.829 1.586h-1.04l.646-1.838h.25c.18 0 .324-.145.395-.397l1.363-3.93h-.43l.645-1.874h.502l2.187-6.309zm-1.327 10.6.61-1.767h1.613l-.323.9c-.143.253-.107.397.108.397h.18l-.574 1.695h-.825c-.896.072-1.147-.36-.789-1.226m2.51-8.725-1.506 4.362h3.12l1.505-4.362zm-.287 2.415.574-1.694h1.613l-.25.757c-.108.36-.072.505.143.469h.215l-.574 1.694h-.896c-.897.072-1.148-.36-.825-1.226m6.346-4.398h2.187l.18-.54h2.15l-.178.504h2.724l-.68 1.947-7.028.072.681-1.947zm15.202 8.364h-5.952l.646-1.839 14.377-.108-.645 1.875h-5.952l-1.29 3.821h6.13l-.645 1.803-14.772.108.646-1.839h6.202l1.291-3.821zm-.538-5.083.682-1.226h2.51l-1.399 2.524c-.538.973-1.434 1.442-2.725 1.333h-3.872l.717-2.018h3.012c.394 0 .753-.18 1.04-.613m3.62-3.786.216-.648h2.653l-.215.648h6.059l-1.398 2.957h-2.187l.43-1.226-9.895.072-.467 1.298h-2.366l1.04-3.028h6.13zm.825 5.084.359-2.56h2.402v1.262c-.036.468.251.72.825.649h2.653l-.645 1.802h-4.195c-1.112.144-1.578-.288-1.363-1.19m10.613 6.562 6.812-7.282h3.048l-6.705 7.246h5.629l-.789 2.235-10.146.072.789-2.307h1.362zm.215-6.345h.717c.287.072.681-.144 1.112-.65l1.577-1.693h2.976l-3.119 3.569c-.753.757-1.542 1.117-2.51 1.117h-1.542l.825-2.343zm3.048-3.209.788-2.27 9.036-.073c.251 0 .394.144.537.505l.717 2.343c.216.577.502.793.861.793h.43l-.789 2.271h-1.685c-.681.072-1.111-.288-1.326-1.01l-.753-2.126q-.162-.433-.538-.433h-7.314zm6.31 10.996-1.578-4.94h2.976l1.219 3.534c0 .144.108.18.323.18h.251l-.681 1.983h-1.291c-.61 0-1.04-.289-1.219-.757m17.174.288-9.358.072 2.689-7.823 10.792-.072-2.223 6.381c-.287 1.01-.932 1.478-1.9 1.442m-6.382-8.688.681-1.983 10.9-.072-.682 1.947-10.899.072zm7.493 2.956h-5.951l-1.327 3.893h5.557q.376 0 .538-.432zm5.486-6.273-12.011.108.681-2.018L147 6.093l-4.302 12.509c-.395 1.55-1.255 2.271-2.546 2.163h-1.542l.646-1.875h.573c.215.036.359-.072.466-.396l3.586-10.347z" fill="#e86d26"/><path d="M35.603 31.364c-.574 1.622-2.08 2.74-3.8 2.74-1.399 0-2.116-.721-1.973-2.055l1.112-.505q-.162 1.623 1.183 1.622a2.53 2.53 0 0 0 2.367-1.658c.286-.793 0-1.37-.753-1.767l-.897-.468c-1.004-.469-1.29-1.262-.932-2.343.43-1.262 1.793-2.2 3.263-2.2 1.075 0 1.685.433 1.792 1.334l-1.075.577c-.144-.685-.502-1.01-1.148-1.01-.788 0-1.541.541-1.792 1.299-.215.648 0 1.081.681 1.442l1.076.54c1.004.505 1.29 1.298.896 2.452m3.872-6.417 1.075-.036-1.219 3.424 4.697-.036 1.22-3.424h1.039l-3.155 8.94h-1.04l1.578-4.506-4.697.072-1.578 4.47h-1.04zm12.835 8.76h-1.147l-.18-2.704h-3.441l-2.115 2.776h-1.148l7.279-9.301zm-4.159-3.57h2.833l-.251-3.28zm8.534-5.695 3.908 7.066 2.402-6.741 1.04-.037-3.263 9.265-3.944-6.993-2.366 6.705h-1.04zm9.68.288h1.685c1.65 0 2.94-.036 3.729.793.717.758.825 2.02.251 3.605-.574 1.587-1.542 2.849-2.832 3.605-1.327.83-2.474.866-3.908.866h-2.08l3.155-8.905zm-1.075 7.895c1.505 0 2.545 0 3.513-.648.932-.613 1.685-1.587 2.115-2.849q.645-1.892-.107-2.811c-.502-.613-1.542-.613-3.084-.613h-.68l-2.439 6.921zm15.165-.252c-1.219.901-2.617 1.406-3.836 1.406-1.255 0-2.259-.469-2.868-1.334-.61-.865-.682-2.019-.216-3.28a7.1 7.1 0 0 1 2.546-3.317c1.183-.901 2.546-1.37 3.8-1.406 1.255 0 2.295.469 2.869 1.334.573.865.645 2.019.215 3.28-.43 1.262-1.327 2.416-2.546 3.317m-.502-.721a5.73 5.73 0 0 0 1.972-2.596c.359-.973.323-1.91-.143-2.595s-1.22-1.046-2.187-1.046c-.968 0-2.008.397-2.94 1.082-.932.72-1.65 1.622-2.008 2.631-.359 1.01-.287 1.875.143 2.596.466.685 1.22 1.082 2.188 1.082s2.007-.397 2.94-1.118m6.74-7.462 3.908 7.03 2.366-6.742 1.076-.036-3.263 9.265-3.943-6.994-2.367 6.706h-1.04zm16.637 4.506-.108.288c-1.004 2.848-3.334 4.543-6.023 4.579-.86 0-1.578-.18-2.044-.505-1.183-.793-1.47-2.235-.825-4.038.502-1.478 1.399-2.703 2.69-3.605q1.612-1.19 3.549-1.19c1.685 0 2.725.578 3.083 1.84l-1.111.72c-.251-1.081-1.04-1.622-2.295-1.586-2.043 0-4.015 1.586-4.804 3.821-.753 2.127.143 3.641 2.187 3.605 1.757 0 3.478-1.225 4.231-2.956h-2.51l.323-.937h3.657zm-64.143 17.16H37.97l-.18-2.704h-3.441l-2.116 2.776h-1.147l7.278-9.301zm-4.159-3.605h2.797l-.251-3.28zm8.426-5.336h1.075l-3.155 8.905h-1.075zm3.406-.036h2.08c.824 0 1.47 0 1.864.433.358.397.43 1.118.143 1.983-.502 1.442-1.613 2.235-3.19 2.235h-.18l1.864 4.218h-1.326l-1.721-4.218h-.144l-1.506 4.254h-1.04zm-.323 3.858h.789c1.398 0 2.151-.217 2.581-1.442.467-1.298-.107-1.55-1.505-1.514h-.79l-1.039 2.992zm7.136-3.93h1.075l-2.796 7.895h3.334l-.358 1.01-4.375.036zm5.879-.036h1.04l-3.155 8.905-1.04.036zm3.514-.36 3.908 7.066 2.402-6.778h1.04L67.082 46l-3.943-6.994-2.367 6.706h-1.04zm9.681.252 4.66-.036-.358.973-3.585.036-.933 2.56 3.622-.036-.359.973-3.585.036-1.22 3.425 3.622-.036-.359.973-4.66.072zm9.358 6.309c-.574 1.622-2.08 2.74-3.8 2.74-1.4 0-2.116-.721-1.973-2.055l1.112-.469c-.108 1.082.286 1.658 1.183 1.622 1.04 0 2.008-.685 2.366-1.658.287-.793 0-1.37-.753-1.766l-.896-.469c-1.004-.505-1.29-1.262-.932-2.343.43-1.262 1.792-2.2 3.262-2.2 1.076 0 1.686.433 1.793 1.335l-1.076.576c-.143-.685-.501-1.01-1.147-1.01-.789 0-1.542.542-1.793 1.299-.215.649 0 1.081.682 1.442l1.075.54c1.004.505 1.291 1.298.897 2.416" fill="#0e3665"/><path d="M13.23 19.611C19.255 13.411 9.539 8.4 19.829 2.2a14 14 0 0 0-.968-.577c-9.717 7.751-.79 10.166-5.63 18.025m3.873.109c5.7-5.732-2.438-9.77 6.023-14.348-.215-.289-.43-.613-.68-.866-8.283 5.696-.754 9.085-5.343 15.214M24.92 9.05c-2.868 1.622-1.936 3.497-1.936 4.145.896 6.597-4.553 8.76-4.553 8.76l-13.374.109C18.609 15.97 3.228 9.193 14.916.18A16 16 0 0 0 12.62 0C5.594.072-.07 5.84.001 12.906c.036 7.066 5.808 12.762 12.835 12.69 7.028-.036 12.693-5.84 12.657-12.906 0-1.262-.215-2.488-.574-3.641" fill="#103d69"/></g></svg>