<svg width="118" height="46" fill="none" xmlns="http://www.w3.org/2000/svg"><path d="M117.905 16.346h-72.07v.216h72.07zm.072 11.608H45.835v.215h72.142z" fill="#d71718"/><path fill-rule="evenodd" clip-rule="evenodd" d="M15.708 28.146c6.016-2.178 9.262-4.284 12.15-6.678 3.462-2.872 6.303-6.701 8.857-12.78C38.195 5.146 39.27 0 39.27 0c.047.335.143 2.824-.55 6.558-1.814 9.789-5.848 16.011-10.073 19.434-4.751 3.829-9.955 5.074-14.252 6.15-5.467 1.34-9.43 2.753-11.172 4.045 3.628-4.02 5.443-5.456 12.485-8.017" fill="#d71718"/><path fill-rule="evenodd" clip-rule="evenodd" d="M29.339 31.113c-4.25 2.777-10.743 3.16-12.963 3.112 8.427-2.8 13.034-6.223 15.589-9.239 2.65-3.159 4.392-6.03 6.159-12.062.668-2.226 1.217-5.241 1.217-5.241 0 2.201-.358 7.395-1.528 10.937-2.244 6.87-4.703 10.052-8.45 12.517" fill="#d71718"/><path fill-rule="evenodd" clip-rule="evenodd" d="M36.476 29.007c-3.127 5.026-8.88 5.218-10.074 5.218 3.605-1.484 7.854-4.045 10.48-9.909 1.122-2.513 1.934-5.696 2.435-8.831-.024 1.508.645 7.467-2.84 13.498m-23.3 11.082c1.385-.36 2.507.047 2.77.263a3.2 3.2 0 0 0-1.003-.048c-1.122.12-1.647.646-1.647 1.412 0 .598.716 1.197 1.6 1.316.883.12 1.79-.047 2.363-.622.381-.383.859-1.316 0-2.417-.621-.814-1.934-1.604-3.796-2.178-2.554-.766-6.589-1.173-11.483-1.053L0 36.929s.143-.024 1.767-.407c.763-.167 3.843-1.196 9.978-.933 6.278.263 9.358 2.274 10.36 4.667.86 2.082-.381 4.81-3.867 5.553-1.742.383-4.106.167-5.466-.647-1.433-.837-1.839-1.77-1.79-2.68.023-.79.668-1.987 2.267-2.393m75.556-7.037h-1.552v.048l-1.6 5.84c-.716 2.656-2.315 4.57-2.315 4.595v.048l1.026.98.048-.07s.43-.575.86-1.437c.453-.861 1.384-3.16 1.79-4.643l1.146-4.212h2.22l-2.077 7.61c-.19.695-.263.79-.74 1.078-.501.287-.979.406-.979.406h-.071l.358 1.077h.047s.645-.167 1.48-.574c.788-.383.86-.718 1.003-1.292l.072-.24 2.483-9.19v-.048h-1.648l.526-1.1v-.049h-.024l-1.385-.143h-.048v.047z" fill="#d71718"/><path fill-rule="evenodd" clip-rule="evenodd" d="M91.716 37.336h-6.779v.048l-.31 1.101-.024.048h6.851v-.048l.31-1.101.024-.048zm-2.243-2.609-1.099.264-.047.023v.048l-.024 1.652v.048h.071l1.099-.24.047-.024v-1.771zm-1.169 4.165-1.099.263h-.071v1.771h.047l1.099-.263h.047v-.048l.024-1.675v-.048zm11.434-5.122h-7.52l-.023.048-.31 1.173-.025.047h7.592l.024-.047.31-1.173v-.048z" fill="#d71718"/><path fill-rule="evenodd" clip-rule="evenodd" d="m96.229 31.52-1.242.527-.047.024v.048l.43 1.675v.048l.047-.024 1.241-.503.048-.024v-.047l-.406-1.7-.024-.048zm-.359 10.076.31-1.148.24-.886.954-3.566v-.048h-4.13v.048s-.501 1.843-.787 2.944c-.31 1.149-.573 1.986-1.385 3.04-.788 1.028-1.432 1.531-1.432 1.531l1.098.742s-.072.167 1.67-2.082c.74-.958 1.051-2.082 1.29-2.992l.501-1.915h1.504l-1.193 4.404-.406 1.46c-.144.55.19 1.005.764 1.005h1.456c.382 0 .788-.359 1.217-1.029.478-.79.645-1.484.645-1.484v-.048l-.979-.861-.072-.048v.096s-.286.91-.572 1.531c-.287.599-.359.694-.478.694h-.477s.095-.742.238-1.316m10.505-8.496h-1.361l-.74 2.776h1.361z" fill="#d71718"/><path fill-rule="evenodd" clip-rule="evenodd" d="M116.401 34.273h-11.602l.286-1.101h11.602z" fill="#d71718"/><path fill-rule="evenodd" clip-rule="evenodd" d="M116.042 35.613h-1.36l.62-2.25h1.337zm-7.639-.503 1.074.766-5.108 3.088-.621-1.245s.931-.335 2.196-1.1c1.266-.767 2.435-1.509 2.435-1.509m2.46 1.03 3.246 2.656.024.024.048-.024 1.408-1.22.072-.024-.048-.048-3.342-2.418-.024-.023-.047.023-1.313.982-.072.048zm2.601 2.44h-7.997l-.024.048-.31 1.125-.024.048h8.069l.024-.048.31-1.125.024-.047zm.549 4.237h-11.077v.048l-.31 1.125-.024.047h11.125l.023-.047.287-1.125.024-.048z" fill="#d71718"/><path fill-rule="evenodd" clip-rule="evenodd" d="M109.955 39.706h-1.337l-.024.071-.835 3.04v.048h1.384l.024-.048.812-3.04.024-.071zm1.91-6.51-1.408.694-.573-1.915 1.408-.694z" fill="#d71718"/><path d="m74.17 44.325.096-1.364h1.528c.716 0 1.098-.24 1.29-.934.166-.43.381-1.245.691-2.393h-3.652l1.862-6.941h1.313c.239-.43.43-.862.62-1.268l1.385.167c-.215.36-.43.718-.668 1.101h2.029c-.43 1.556-.74 2.68-.955 3.375-.263 1.125-.93 1.675-1.957 1.627-.24.024-.621.048-1.17.048a6.5 6.5 0 0 0 .095-1.149h1.098c.43 0 .717-.215.836-.646.048-.144.12-.455.239-.933q.286-.862.358-1.15h-2.34l-1.217 4.524h3.82c-.263.981-.645 2.226-1.123 3.758-.358 1.46-1.193 2.154-2.53 2.13h-1.576z" fill="#d71718"/><path d="M77.346 36.068c-.072-.192-.168-.455-.335-.814-.095-.215-.143-.383-.19-.479l.93-.43c.215.406.43.813.597 1.196l-1.026.55zm-6.852 7.395s.86-.263 1.099-1.053l.62-2.25h-.93c-.407 1.532-1.147 2.92-2.078 4.308l-.764-.694c.788-1.053 1.266-1.7 2.34-5.576l1.623-6.055h3.008L72.523 42.96c-.167.622-.525.957-1.67 1.436m2.244-11.01-.573 2.13h.93l.574-2.13zm-1.29 4.81-.19.719h.93l.573-2.13h-.93zm-5.156 5.267s.883-.263 1.098-1.053l.62-2.25h-.93c-.406 1.532-1.146 2.92-2.1 4.308l-.765-.694c.788-1.053 1.265-1.7 2.34-5.576l1.623-6.055h3.008L68.656 42.96c-.167.622-.525.957-1.67 1.436m2.291-11.01-.573 2.13h.931l.573-2.13zm-1.29 4.81-.19.719h.931l.573-2.13h-.931zm5.253 3.664.31-1.221h3.39l-.335 1.22zm-12.342-4.955c-.287-.12-.693-.263-1.17-.478l-.43-.216-.215.814h-3.08l-.405 1.484h4.488l-.334 1.244h-4.488l-.812 3.04h5.276l-.334 1.245H47.1l.334-1.245h5.3l.811-3.04H49.01l.335-1.244h4.535l.382-1.484h-3.175l.215-.766a56 56 0 0 1-1.886.814c-.047-.12-.31-1.053-.501-1.508 3.223-1.053 5.634-2.417 7.185-4.116l1.839.167-.454.479c.979 1.555 2.53 2.632 4.631 3.255q-.86 1.04-1.217 1.58m-10.504 5.743-.239-.478c-.334-.623-.597-1.101-.788-1.46l1.385-.766c.12.215.286.478.477.813.287.503.526.886.669 1.15zm5.873-9.453a19.3 19.3 0 0 1-3.916 2.537h6.303c-1.003-.695-1.815-1.532-2.388-2.537m.453 9.453-1.05-.742c.74-.646 1.48-1.292 2.196-1.938l1.098.694a32 32 0 0 1-2.268 1.986" fill="#d71718"/><path fill-rule="evenodd" clip-rule="evenodd" d="m71.043 24.388-.453 1.7h-1.337l1.122-4.189h1.337l-.191.742c.382-.503 1.074-.862 1.695-.886l-.334 1.269c-.836.024-1.624.574-1.815 1.364m-3.795 1.532v-.311l.047-.144-.119.096c-.43.311-.93.479-1.6.479-.93 0-1.48-.48-1.336-1.197.215-.934 1.146-1.22 1.6-1.317.238-.047.691-.12 1.24-.167l.43-.096.31-.335c.072-.311-.071-.574-.596-.574s-.836.24-.955.574h-1.194c.358-1.1 1.456-1.388 2.435-1.388 1.17 0 1.886.479 1.576 1.628l-.62 2.345-.049.263v.12h-1.145zm-.454-1.89-.358.07-.334.12a.8.8 0 0 0-.478.551c-.071.335.144.503.621.503.597 0 1.122-.383 1.265-.91l.143-.55-.095.048c-.263.095-.525.143-.764.191m13.87 1.867v-.311l.047-.12-.119.096c-.43.31-.93.502-1.6.502-.93 0-1.48-.478-1.336-1.196.215-.934 1.146-1.22 1.6-1.317.238-.048.692-.12 1.24-.167l.43-.096.31-.335c.072-.311-.071-.574-.596-.574-.502 0-.836.239-.955.574h-1.194c.358-1.1 1.457-1.388 2.435-1.388 1.17 0 1.886.479 1.576 1.627l-.62 2.346-.049.263v.12h-1.145zm-.454-1.89-.358.07-.334.12a.8.8 0 0 0-.478.551c-.071.335.144.503.621.503.597 0 1.122-.407 1.265-.91l.144-.55-.096.048c-.263.095-.525.143-.764.191m-5.156-2.154-.095.55.12-.12c.31-.262.835-.574 1.408-.574.955 0 1.337.694 1.145 1.412l-.787 2.92h-1.313l.692-2.584c.12-.407-.048-.79-.525-.79s-.86.359-.955.766l-.692 2.608h-1.313l1.122-4.188z" fill="#d71718"/><path d="M90.93 26.088h-1.41l-.167-1.437h-2.555l-.93 1.436h-1.361l4.25-6.294h1.36zm-1.672-2.49-.238-2.321-1.504 2.321zm2.363 2.49 1.265-4.548h1.218l-1.265 4.547zm1.432-5.17.31-1.125h1.218l-.31 1.125zm2.221 5.169h-1.217l1.265-4.547h1.146l-.191.646c.286-.31.501-.502.692-.598l.573-.144c.286 0 .525.072.74.216l-.668 1.053-.526-.192-.477.144q-.215.144-.43.503c-.143.239-.31.742-.525 1.531l-.382 1.412zm2.291.001 1.743-6.295h1.241l-1.766 6.294zm2.483 0 1.265-4.548h1.218l-1.266 4.547zm1.432-5.17.311-1.125h1.217l-.31 1.125zm5.253 5.169h-1.218l.645-2.321c.143-.503.191-.814.191-.957l-.167-.335-.382-.12-.621.167-.477.455c-.12.192-.239.527-.382 1.053l-.573 2.058h-1.218l1.265-4.547h1.146l-.191.67c.549-.526 1.122-.766 1.743-.766.263 0 .501.048.692.144l.406.359.096.503c0 .191-.072.454-.167.813zm4.32-1.555 1.17.191c-.286.431-.62.766-1.026 1.006-.406.239-.86.335-1.361.335-.812 0-1.337-.264-1.576-.766q-.287-.61 0-1.58c.215-.742.573-1.34 1.099-1.771.525-.43 1.074-.646 1.694-.646.693 0 1.17.215 1.457.67.262.455.262 1.125 0 2.058h-3.08c-.095.36-.071.646.072.838s.334.287.62.287l.526-.168q.25-.143.429-.502m.406-1.173c.096-.359.072-.622-.048-.79-.119-.191-.31-.263-.549-.263a1.1 1.1 0 0 0-.74.287c-.238.192-.382.455-.477.79h1.838zm1.504 1.364 1.289-.191c0 .24.047.407.167.526.119.12.334.192.621.192.31 0 .572-.048.763-.168l.239-.31v-.24l-.382-.168c-.931-.215-1.504-.406-1.719-.598-.286-.24-.382-.598-.262-1.03.119-.382.358-.717.764-1.004.382-.264.931-.407 1.575-.407.645 0 1.075.096 1.337.311.263.191.382.503.382.91l-1.217.215-.168-.407s-.286-.144-.549-.144c-.334 0-.573.048-.74.12l-.214.24.047.215s.43.191 1.051.335c.62.143 1.026.335 1.217.526.191.216.239.503.143.886-.119.407-.382.766-.835 1.077-.43.311-1.003.455-1.695.455-.621 0-1.098-.12-1.385-.383a1.25 1.25 0 0 1-.429-1.03M56.1 25.752v-.215c-.31.359-.812.55-1.432.55-.98 0-1.361-.454-1.122-1.316l.907-3.087h1.289l-.812 2.776c-.19.574 0 .861.525.837.502 0 .836-.287 1.003-.837l.812-2.776h1.289l-1.075 3.71s-.071.31-.143.574h-1.265v-.216m4.416-3.398c.502-.383 1.29-.718 1.862-.742 1.504.048 2.053.814 1.647 2.274-.525 1.388-1.504 2.13-2.936 2.201-.668.048-1.146-.359-1.384-.837l-.669 2.345H57.7l1.409-5.002c.095-.287.19-.574.238-.861h1.313zm.382 2.896c.716 0 1.242-.455 1.552-1.388.286-.886.072-1.34-.62-1.389-.74.048-1.266.503-1.576 1.389-.263.909-.048 1.364.668 1.388m-10.838-.072c.788 0 1.241-.287 1.385-.838.19-.383-.191-.694-1.146-.885-1.242-.263-1.719-.886-1.432-1.843.334-1.22 1.312-1.843 2.96-1.867 1.337 0 1.862.646 1.551 1.867h-1.217c.143-.598-.12-.91-.74-.91-.597.048-.979.36-1.17.91q-.215.61.86.79c1.527.287 2.1.933 1.694 1.938-.238 1.197-1.241 1.771-3.008 1.747-1.551 0-2.124-.67-1.742-2.058h1.289q-.322 1.185.716 1.149" fill="#d71718"/></svg>