<svg width="123" height="46" fill="none" xmlns="http://www.w3.org/2000/svg"><g clip-path="url(#clip0_583_2643)"><path fill-rule="evenodd" clip-rule="evenodd" d="M45.682 22.996C45.682 35.696 35.457 46 22.845 46S0 35.703 0 22.996 10.226 0 22.845 0s22.837 10.297 22.837 22.996" fill="#d71618"/><path fill-rule="evenodd" clip-rule="evenodd" d="M37.909 9.154c-3.66-2.373-7.87-3.169-11.566-2.638-3.6.516-7.62 3.656-7.62 7.953 0 2.55-2.115 4.385-4.625 4.385-3.426 0-5.256-2.712-8.425-2.712-2.474 0-4.019 1.194-4.853 1.953q-.273.243-.271.486c0 .163.139.361.344.435 1.515.53 3.41 1.342 5.673 2.941 2.92 2.071 4.955 4.209 6.69 6.663 7.049 10.017 18.233 9.508 22.061 7.946 3.975-1.622 7.078-4.799 8.513-8.314.103-.258-.249-.435-.41-.185-.439.7-2.672 3.7-6.822 3.7-4.59 0-8.264-3.759-8.264-8.27 0-3.84 2.884-8.254 8.477-8.254 4.699 0 8.761 4.068 8.834 8.667.037-7.34-4.12-12.404-7.73-14.748" fill="#f4e127"/><path d="M74.112 34.472c.036-.007.095-.022.16-.022q.22.002.308.125.099.124.022.435a.93.93 0 0 1-.41.568c-.168.103-.344.199-.512.295-.096-.022-.183-.06-.279-.089-.095-.066-.11-.191-.087-.383.073-.25.168-.457.307-.612.146-.162.315-.265.49-.324m-14.397.45c.125-.133.278-.243.447-.34.175-.095.336-.147.483-.147q.197.002.285.126c.059.073.066.22.044.42a1.36 1.36 0 0 1-.33.663c-.116.14-.278.288-.497.45a.36.36 0 0 1-.227.095.7.7 0 0 1-.227-.066 1 1 0 0 0-.168-.096c-.008-.25 0-.516 0-.781a.74.74 0 0 1 .19-.324m-.791 3.103s.095.014.198 0l.176-.015c.124 0 .153.11.087.317a2.7 2.7 0 0 0-.292.604q-.064.201-.14.524-.154.73-.234.965a.56.56 0 0 0 .154.39c.102.082.22.14.366.148.22.015.447-.066.666-.22l.088-.09c0 .111-.022.214-.051.31a1.3 1.3 0 0 1-.403.575 1.1 1.1 0 0 1-.541.265c-.184.104-.337.155-.498.148q-.23-.014-.49-.192c-.103-.059-.184-.125-.272-.191q-.26-.278-.16-.951c.05-.31.153-.723.314-1.216.073-.214.117-.369.154-.472.161-.236.293-.42.402-.53q.233-.257.476-.37m6.977.089a1 1 0 0 1 .387-.088c.227 0 .403.132.506.39.087.243.124.56.102.958.007.037 0 .133-.03.303q-.052.243.037.31c.125-.097.498-.495 1.106-1.195q.658-.752 1.12-.752c.073 0 .153.015.197.03q.033.033.725 2.123c.183.5.41.759.717.759.11 0 .249-.03.425-.104 0 .089 0 .177-.03.244-.036.17-.146.324-.292.471a1.8 1.8 0 0 1-.432.273 1.9 1.9 0 0 1-.6.133c-.293 0-.542-.125-.762-.376-.183-.214-.351-.538-.512-.958a67 67 0 0 0-.088-.87q-.054-.562-.373-.56c-.293.28-.6.7-.937 1.275-.264.48-.534.943-.79 1.422-.037 0-.103.008-.198.008a.62.62 0 0 1-.395-.125c-.096-.074-.147-.214-.132-.42.022-.14.102-.546.249-1.195.146-.656.175-1.142.102-1.459l-.622.03a1.1 1.1 0 0 1 .198-.354q.076-.08.307-.258" fill="#d71618"/><path d="M74.112 34.472c.036-.007.095-.022.16-.022q.22.002.308.125.099.124.022.435a.93.93 0 0 1-.41.568c-.168.103-.344.199-.512.295-.096-.022-.183-.06-.279-.089-.095-.066-.11-.191-.087-.383.073-.25.168-.457.307-.612.146-.162.315-.265.49-.324" fill="#d71618"/><path d="M74.178 35.025a2 2 0 0 1-.3.044c-.125.045-.205.148-.25.295.11.015.22 0 .316-.044a.53.53 0 0 0 .227-.302m1.763-.103c.124-.133.278-.243.44-.34.182-.095.343-.147.49-.147.131 0 .227.044.278.126.066.073.073.22.05.42a1.4 1.4 0 0 1-.328.663 2.7 2.7 0 0 1-.505.45.3.3 0 0 1-.22.095.7.7 0 0 1-.227-.066.7.7 0 0 0-.176-.096c0-.25 0-.516.008-.781a.74.74 0 0 1 .19-.324m-.314 3.103s.094.007.197-.015c.102-.022.168-.03.168-.03q.189-.001.103.317a2.1 2.1 0 0 0-.256.62c-.037.14-.074.309-.11.538-.073.493-.14.81-.183.972.029.17.088.295.183.384.11.08.227.118.38.118.22 0 .432-.081.652-.258l.073-.096c.007.11 0 .214-.03.31a1.34 1.34 0 0 1-.365.604c-.183.155-.352.258-.535.295a.8.8 0 0 1-.475.176c-.154 0-.33-.058-.505-.162a2 2 0 0 1-.286-.176q-.274-.264-.22-.937c.03-.316.11-.73.242-1.23.066-.222.102-.384.132-.48.146-.258.27-.442.359-.56.146-.177.3-.31.46-.39m2.651.088a1.1 1.1 0 0 1 .388-.088q.362.002.505.39c.087.243.131.56.11.958 0 .037-.008.133-.037.303-.03.162-.022.265.036.31.125-.097.49-.495 1.106-1.195q.658-.752 1.12-.752a.7.7 0 0 1 .204.03q.02.033.733 2.123c.168.5.402.759.71.759.102 0 .248-.03.417-.104a.6.6 0 0 1-.022.244c-.052.17-.147.324-.308.471a1.8 1.8 0 0 1-.432.273 1.9 1.9 0 0 1-.6.133q-.426 0-.754-.376c-.183-.214-.358-.538-.505-.958a53 53 0 0 0-.088-.87c-.05-.376-.168-.56-.38-.56-.293.28-.6.7-.93 1.275-.27.48-.534.943-.805 1.422-.037 0-.102.008-.19.008a.6.6 0 0 1-.396-.125c-.102-.074-.153-.214-.139-.42.03-.14.103-.546.25-1.195q.22-.984.102-1.459l-.622.03a1 1 0 0 1 .205-.354c.043-.052.146-.14.3-.258m18.76-3.206c.132-.133.278-.243.447-.34.183-.095.344-.147.49-.147.124 0 .22.044.278.126.059.073.073.22.051.42a1.5 1.5 0 0 1-.322.663q-.175.209-.505.45a.32.32 0 0 1-.22.095.6.6 0 0 1-.226-.066 2 2 0 0 0-.169-.096v-.781a.9.9 0 0 1 .19-.324m-.321 3.103s.095.007.197-.015.161-.03.161-.03c.132 0 .161.104.103.317-.103.192-.19.398-.25.62a4 4 0 0 0-.102.538c-.087.493-.146.81-.183.972.022.17.081.295.184.384a.54.54 0 0 0 .373.118c.22 0 .439-.081.659-.258l.08-.096c0 .11 0 .214-.03.31a1.34 1.34 0 0 1-.365.604 1.2 1.2 0 0 1-.527.295.87.87 0 0 1-.476.176c-.161 0-.322-.058-.512-.162a2 2 0 0 1-.286-.176q-.274-.264-.22-.937c.03-.316.103-.73.242-1.23q.075-.335.117-.48a5 5 0 0 1 .374-.56c.146-.177.292-.31.46-.39m5.044-.207c.029.037.117.06.249.074.139 0 .219.066.249.184l-.805 1.46a1 1 0 0 1-.279-.052c-.278-.11-.453-.162-.534-.162a.5.5 0 0 0-.329.14c-.103.103-.176.28-.257.538l-.629 1.806a.4.4 0 0 1-.322.162s-.088 0-.154-.03c-.058-.014-.102-.036-.146-.051q-.066-.286.197-1.91c.132-.795.008-1.208-.373-1.208-.058.008-.095.015-.124.015a.65.65 0 0 1 .336-.398 6 6 0 0 0 .432-.148.56.56 0 0 1 .586.228q.176.246.197.657c.491-.87 1.062-1.305 1.699-1.305m2.291-4.142c.226 0 .424.147.57.428.132.22.22.523.271.884l-1.793 5.727c-.022.147-.007.243.029.295q.057.075.191.074c.117-.008.19-.023.241-.023.103 0 .161.037.161.11a.8.8 0 0 1-.058.325 7 7 0 0 1-.593.347 1.15 1.15 0 0 1-.498.118.9.9 0 0 1-.315-.067 2 2 0 0 1-.124-.921 7.6 7.6 0 0 1 .256-1.238c.044-.155.08-.31.117-.465.037-.154.088-.31.139-.479.051-.191.088-.354.117-.501a3 3 0 0 0 .073-.45c.066-.154.125-.294.162-.434.043-.14.095-.303.131-.472.059-.214.132-.546.22-.973.095-.442.176-.767.227-.98q.12-.42.197-.664a9 9 0 0 1 .279-.648m2.034 1.253c.125-.133.271-.243.447-.34.175-.095.336-.147.483-.147q.2.002.278.126c.066.073.073.22.044.42a1.4 1.4 0 0 1-.322.663c-.11.14-.286.288-.505.45a.32.32 0 0 1-.212.095.6.6 0 0 1-.235-.066 1 1 0 0 0-.175-.096c0-.25 0-.516.007-.781a.7.7 0 0 1 .19-.324m-.307 3.103s.088.007.198-.015c.102-.022.161-.03.161-.03.132 0 .161.104.102.317-.102.192-.19.398-.248.62-.037.14-.074.309-.11.538-.088.493-.139.81-.183.972.022.17.088.295.183.384a.58.58 0 0 0 .373.118c.22 0 .439-.081.659-.258l.073-.096q.002.165-.029.31a1.34 1.34 0 0 1-.366.604c-.183.155-.359.258-.535.295-.168.118-.322.176-.483.176s-.314-.058-.497-.162a2 2 0 0 1-.286-.176q-.275-.264-.219-.937c.022-.316.102-.73.241-1.23.051-.222.103-.384.117-.48a5 5 0 0 1 .374-.56c.146-.177.3-.31.461-.39m2.415.088c.146-.059.271-.088.388-.088q.349.002.512.39.132.363.11.958c0 .037 0 .133-.029.303-.037.162-.022.265.036.31q.185-.145 1.106-1.195.657-.752 1.105-.752a.8.8 0 0 1 .212.03c.015.022.256.73.732 2.123.168.5.403.759.695.759.118 0 .257-.03.432-.104 0 .089 0 .177-.029.244-.044.17-.146.324-.293.471a1.8 1.8 0 0 1-.432.273 1.6 1.6 0 0 1-.322.096 2 2 0 0 1-.278.037c-.293 0-.542-.125-.761-.376-.183-.214-.351-.538-.505-.958a67 67 0 0 0-.088-.87c-.044-.376-.161-.56-.373-.56-.293.28-.601.7-.937 1.275-.271.48-.535.943-.805 1.422-.037 0-.103.008-.191.008a.62.62 0 0 1-.395-.125c-.095-.074-.146-.214-.132-.42.015-.14.103-.546.249-1.195q.207-.984.095-1.459l-.607.03a1.1 1.1 0 0 1 .197-.354c.052-.052.147-.14.308-.258m10.38.943q.525-.465 1.083-.73a2.4 2.4 0 0 1 1.083-.272c.351 0 .637.103.878.295a1 1 0 0 1-.021.154.84.84 0 0 1-.176.325.9.9 0 0 1-.22.228 1.05 1.05 0 0 0-.417-.28 1.3 1.3 0 0 0-.498-.088q-.408 0-.827.177c-.461.176-.666.339-.834.5-.073.17-.051.192.036.222.088 0 .161.022.249.03.147 0 .388-.038.74-.111a3.5 3.5 0 0 1 .761-.11c.197 0 .366.029.49.095.132.052.293.125.344.354 0 .073 0 .177-.036.287a1 1 0 0 1-.096.258 4 4 0 0 1-.314.53 2.46 2.46 0 0 1-.886.65c-.41.147-.71.25-.878.316-.066 0-.191 0-.352.023q-.263.031-.285.03a.7.7 0 0 1-.381-.09q-.134-.1-.19-.368c-.007-.037-.022-.088-.037-.162 0-.081.015-.14.022-.184.03-.081.066-.126.147-.14.124 0 .249 0 .38.014h.381c.439 0 .629 0 .951-.066.337-.059.63-.147.791-.45a.54.54 0 0 0 .059-.258c0-.206-.323-.073-.901-.088-.585-.03-1.003-.118-1.281-.273-.051-.08-.095-.17-.066-.287.015-.081.059-.162.096-.243.051-.081.153-.17.212-.266m-64.494-4.098h1.903a9 9 0 0 1 1.23-.073l.68-.067c.696-.154.886-.236 1.216-.294.007.066 0 .147-.008.235-.036.11-.11.273-.227.48q-.175.31-.22.397c-.24.229-.526.398-1.104.546l-.476.066h-.373c-.118 0-.206.081-.25.236q-.131.53-.373 1.46c-.16.619-.322 1.238-.475 1.857-.162.619-.235.84-.323 1.194-.022.088-.007.214.052.361.058.155.073.258.058.324-.029.096-.11.185-.263.266-.117.014-.242.037-.352.037-.278 0-.57-.052-.746-.229-.308-.31.022-1.164.036-1.238.008-.06.681-2.123.784-2.499.117-.376.22-.685.292-.936.088-.25.19-.486.315-.722v-.045s-.03-.029-.051-.058a.2.2 0 0 1-.037-.052h-.82c-.629 0-1.105-.059-1.449-.17-.124-.117-.16-.28-.095-.508.022-.103.088-.258.168-.435.088-.184.147-.295.161-.332.074-.044.125-.066.169-.066.03 0 .066.007.088.03.029.022.058.058.11.11.043.052.087.089.11.118a.3.3 0 0 0 .131.037.5.5 0 0 0 .154-.03m10.437 5.542q.097-.686.183-.965c.073-.31.183-.552.308-.744a.83.83 0 0 0-.352-.501 4 4 0 0 0-.527-.258 2 2 0 0 0-.424-.037c-.513 0-1.032.14-1.538.42a3.8 3.8 0 0 0-1.346 1.253c-.117.184-.213.435-.3.73-.03.118-.059.28-.096.471-.036.207-.058.317-.05.332.036.037.065.11.072.206.008.045.008.126.008.214.241.207.52.317.834.317.315 0 .688-.103 1.069-.295a6 6 0 0 0 1.156-.788.3.3 0 0 1 .052.184c-.008.037-.022.11-.059.236l-.051.214c-.015.036-.022.095-.037.191-.022.089 0 .155.037.2.278 0 .49-.06.637-.2a1.6 1.6 0 0 0 .322-.626c.029-.11.058-.295.095-.546m-.857-.634c-.227.126-.46.251-.68.384-.154 0-.374.051-.666.162-.293.103-.506.162-.637.162a.8.8 0 0 1-.205-.044c-.066-.03-.132-.06-.168-.11.417-.42.805-.753 1.163-.989q.66-.42 1.186-.42c.176 0 .344.037.52.126a1.17 1.17 0 0 1-.505.73m30.45.029q.11 0 .256.022c.095.007.16.015.16.015q.155-.002.22-.06c-.022-.176-.058-.324-.117-.42a2.6 2.6 0 0 0-.263-.383c-.03-.044-.088-.059-.161-.059h-.073l-.066.008c-.125 0-.19-.06-.205-.177 0-.324.007-.663.022-.995.007-.34.036-.73.066-1.165.036-.435.065-.84.095-1.223q.052-.562.073-1.135c-.073-.052-.161-.133-.278-.236a2.4 2.4 0 0 0-.3-.243.8.8 0 0 0-.293-.126 65 65 0 0 0-1.632 2.602c-.535.892-1.157 1.968-1.882 3.221a2 2 0 0 1-.35.022c-.17 0-.308.022-.433.06a.8.8 0 0 0-.337.154c-.007.184.03.361.103.523a.56.56 0 0 0 .315.31.6.6 0 0 1-.03.191q-.044.144-.197.42c-.103.185-.183.332-.212.436.036.051.095.103.16.176a.8.8 0 0 0 .198.163.6.6 0 0 0 .271.059c.278-.28.556-.65.805-1.114.059 0 .132 0 .22.015s.153.022.153.022c.776.48 1.845.877 3.258 1.21.131 0 .241-.126.307-.362a1 1 0 0 1-.124-.45q-.012-.257 0-.678c.014-.287.022-.494.007-.619.08-.118.161-.17.242-.17m-2.438-1.783q.474-.84.718-1.26c.16-.288.366-.575.585-.877h.08q.067.365.044.906c-.021.354-.029.715-.043 1.076-.022.361 0 .663.043.907-.021.059-.036.096-.065.118a.4.4 0 0 1-.117.051.2.2 0 0 0-.11.03c-.19 0-.344.007-.454.03q-.186.045-.68.147c-.337.073-.572.118-.725.125q.263-.422.724-1.253m1.376 3.243s-.058 0-.095-.007l-.073-.015c-.293 0-.564-.022-.827-.074a6 6 0 0 1-.761-.191c-.25-.082-.527-.17-.835-.273l.03-.11c.197-.03.504-.096.936-.185.418-.088.754-.155.996-.199a6 6 0 0 1 .717-.11.8.8 0 0 1 .059.294c0 .11.007.236.007.369q0 .201.044.324c-.037.125-.103.177-.198.177m24.441-.892c-.256.06-.476.133-.695.2-.535.169-.915.257-1.157.257q-.24 0-.446-.066a.84.84 0 0 1-.344-.243c.087-.081.278-.14.541-.177.286-.044.454-.081.527-.11.344-.163.696-.325 1.04-.495q.601-.377.841-1.054c-.065-.243-.124-.42-.19-.53-.095-.192-.212-.288-.359-.288-.585 0-1.119.126-1.625.354a3.57 3.57 0 0 0-1.529 1.386 1.93 1.93 0 0 0-.235 1.002c-.044.428.022.781.301.988.27.118.556.213.929.213.586 0 1.157-.154 1.72-.471a1.2 1.2 0 0 0 .403-.302.97.97 0 0 0 .249-.465.44.44 0 0 0 .036-.199m-1.917-1.378c.314-.199.636-.31.973-.361.073-.008.227-.008.307 0 .066.007.198 0 .198.147 0 .148-.688.583-1.098.774-.395.184-.776.288-1.12.288.176-.384.417-.664.74-.855m-41.481.95c-.227.103-.461.2-.688.302a.4.4 0 0 1-.059-.228c.008-.103.037-.221.073-.369l.096-.324c.05-.147.073-.25.087-.31.022-.088.044-.198.074-.324-.052-.317-.132-.56-.257-.737a.6.6 0 0 0-.52-.258c-.072.31-.168.723-.277 1.253a43 43 0 0 1-.484 2.123c-.292.295-.534.62-.717.965-.19.354-.33.73-.439 1.143-.08.28-.132.53-.161.76q-.047.342.03.53c.058.133.131.199.248.199.059 0 .103 0 .146-.022.323-.413.66-1.032.996-1.843.44-1.047.717-1.703.85-1.946.006-.014.27-.17.76-.457a1.3 1.3 0 0 0 .403-.383.25.25 0 0 0-.161-.052m-2.701 3.089a1.08 1.08 0 0 1 .124-.73 3 3 0 0 1 .19-.214.5.5 0 0 1 .162-.125l-.381 1.496c-.073-.265-.11-.413-.102-.42M96.042 6.538h.63l.563.64-.066.627c-.037.376-.63.656-1.764.84h-.417l-.374-.42.022-.213L96.05 6.53zm5.021 0c.805.383 1.163.87 1.098 1.481-2.057 2.292-3.119 3.84-3.206 4.636h.204a7.3 7.3 0 0 0 2.277-1.68q1.218.42 1.076 1.68l-2.416 5.064h1.047c.776.56 1.149 1.046 1.098 1.474h.212l2.482-3.796.856-2.108h.41l-.059.627c-.914 5.196-2.239 7.798-3.959 7.798l-1.545-3.162-.812-.214c-.725 1.076-1.428 1.85-2.123 2.314l-.38-.427.094-.84c.513-1.357 1.376-2.978 2.606-4.85l.015-.214-.227.214h-.622l-.74-1.054.132-1.26 1.171-3.163c-.695 0-1.039-.14-1.002-.42l.022-.206q.627-.002.695-.634l1.603-1.268zm-3.675 3.169h-.212q-1.416.146-3.316 1.695l-.937-1.061-.666.427c-1.09 4.637-1.954 6.958-2.606 6.958l-.117 1.047h.827l-.124 1.26-.322 1.054q.405 1.472.9 1.474h.417l.227-.213-.066-3.369.088-.847.652-.214h.205L92 19.178c.234.892 1.083 2.012 2.576 3.369h.213l.227-.214-.176-2.314.066-.627c.066-.7.322-1.128.761-1.268l-.315-1.054.015-.206c.717-.56 1.105-1.054 1.208-1.474l-.08-1.268c.058-.516.475-1.216 1.266-2.108l.117-1.046c.08-.7-.096-1.128-.498-1.268m-4.846 6.331-.651.206h-.213l.872-2.314h.212zm2.518-2.108h-.212c-.322 0-.476-.56-.447-1.68l1.07-.214h.204l-.615 1.901zm19.941-7.658c2.1-.066 2.971.84 2.598 2.735 2.167-.686 3.814-.907 4.919-.664.571.48.637.922.241 1.32-.183.118-.775.31-1.756.56-.41.125-.666.184-.783.191-.293.118-.308.067-.052-.162q.286-.177.923-.95c.197-.17.183-.222-.059-.163a44 44 0 0 0-3.411 1.032c-2.884.988-4.714 1.386-5.512 1.187q-.252.011-.219-.155s.095-.037.263-.096h.161c1.179-.376 2.035-.715 2.591-1.01a2 2 0 0 0-.475-.059h-.169c.015-.058.088-.132.22-.257q1.877-1.648.132-2.83c-.22.014-.286-.097-.183-.325.087-.17.27-.288.563-.354m2.159 6.331c1.135-.147 2.189-.073 3.184.222q.22.574-.132 1.083c-.746.464-1.961.9-3.63 1.29-.403.125-.425.074-.051-.17.622-.353 1.222-.921 1.822-1.717q.233-.345-.095-.413-2.033-.099-3.923 1.548a16 16 0 0 1-.813.781c-.38.848-.783 1.187-1.193 1.04q-.474-.067-.717-.973c.022-.391.197-.583.527-.605.285-.007.578-.096.885-.28a45 45 0 0 1 4.136-1.806m-5.021 5.492c.161.051.629-.133 1.434-.546a39 39 0 0 0 1.969-.818c.535-.184 1.128-.229 1.764-.14q.264.323.198.656c-.483.796-1.317 1.85-2.511 3.162.718-.03 1.296-.052 1.75-.059q.657-.024.973.052c.557.258.696.832.41 1.732-.212.22-.746.545-1.595.965-.037-.051-.396.045-1.04.288q-.81.356-1.259.545c-.293.06-.307 0-.051-.17q1.34-.959 2.152-1.732c.088-.169.132-.258.132-.258-.052-.051-.125-.08-.242-.073q-.975.363-1.654.471c-.527.133-.996.177-1.435.133-.476-.088-.593-.501-.336-1.238.512-.405 1.09-1.054 1.698-1.968q-1.79.73-2.613-.575c-.088-.103-.103-.192-.037-.25.015-.052.102-.118.278-.177m-.9-4.622c-.476.744-.952.921-1.427.545-.41-.98-.447-1.51-.103-1.577q1-1.361 1.537-1.96c.132-.17.242-.258.3-.258.11 0 .169.073.198.243.037.943-.132 1.946-.498 3.007M73.438 8.44c.476.714-.11 3.073-.688 3.714v.11h.102c.293-.847 1.37-2.498 2.043-2.948l.058-.058.212.22.052.052.124-.11c.073-.487.373-.811.249-1.364-.212-.9-1.984-2.771-3.22-2.786-.067.037-.06.037-.17.052-.16.22-.731.751-.46 1.208.03.634 1.376 1.408 1.698 1.91" fill="#d71618"/><path d="M85.245 7.518c.146-.125.285-.258.439-.383.168-.229.212-.516.402-.708 0-.155-.007-.236-.087-.324-.103-.147-.776-.442-1.164-.28l-.19.221c-.22.096-.374.022-.586.11-.55.229-1.193.502-1.72.767-.19.089-.227-.03-.41.11h-.117c.073-.847.183-2.1.512-3.161.176-.538-.044-.973.351-1.253-.05-.126-.087-.118-.153-.221-.652.007-1.098.125-1.618.22.095.185.147.111.337.111l.051.052c-.08.125-.183.118-.256.22-.03.126-.059.259-.088.384l-.176.052a7 7 0 0 1-.036.383c0 .015-.117.206-.088.332.007.044.183.177.154.28-.052.162-.227.45-.286.597-.198.508-.476 2.469-.38 2.896-.82.369-1.626.878-2.401 1.312-.498.273-.981.406-1.435.708-.212.147-.322.435-.512.604-.037.325 0 .494.044.708.248-.147.578-.28.9-.383q.25-.031.512-.052c.9-.383 2.035-.892 2.686-1.37h.06c-.074.154-.133.478-.162.545-.285.552-1.515.877-1.947 1.363v.11c-.432-.021-.944.48-1.325.708-.63.376-1.251.649-1.859 1.04-.52.331-.908.796-1.464 1.098-.198.213-.805-.568-1.017-.715.029-.155.066-.288.146-.383l.015-.111c-.183.081-.183.25-.315.332h-.286l-.073.22c-.102.075-.27.008-.351.111-.132.14-.08.273-.264.384.037.84.366 1.614.513 2.403 0 .604 0 1.2.007 1.805-.066.745-.146 1.49-.212 2.234-.088.25-.403.656-.308.877l-.022.162c.154.03.293.073.447.103.146.088.249.324.417.383.322.11.498-.073.68.06.462-.155.572-.79.791-1.202.308-.59.681-1.283.974-1.916.154-.332.139-.642.366-.87l.022-.214h-.059c-.044.11-.044.14-.131.214v.051h-.059c.161-.685.212-1.665.38-2.233.132-.472.037-1.061.3-1.415a7 7 0 0 1 .06-.553c.19-.052.38-.11.578-.162.475-.184 1.178-.501 1.559-.818h.117v.051c-.395.222-.571.664-.944.87 0 .25-.074.406 0 .656.497.192 2.144-.302 2.561-.604h.059l-.059.059c-.16.324-1.544 1.813-1.888 1.909-.059.36-.051.884.176 1.142.131.155 1.046-.663 1.207-.766.088-.052.147-.037.286 0l.153.162-.087.324c-.476.11-.842.862-1.135 1.201q-.44.335-.856.656c-.088.133-.059.266-.147.384-.227.294-.585.538-.82.818-.117.14-.095.273-.212.442q-.239.187-.49.376c-.176.25-.22.685-.483.98.029.2.16.295.307.384.183.014.754-.317 1.003-.435.168-.081.3.022.403 0 .212-.052 2.086-1.01 2.217-1.15h.117c-.16 1.74.096 3.287-.446 4.747-.066.169.073.162.095.265.08.626-.154 1.548-.307 2.027-.242.73.153 1.341-.066 1.968-.19.53-.315.656-.403 1.304h.169l.05.06c-.065.257-.16.434-.226.655.146 0 .395-.03.447.052.058.096-.103.243-.088.273.073.14.22.228.249.442.102.015.22.03.336.051.212-.22.783-.84 1.105-.877l-.16-.162c.285-.442.065-1.01.065-1.253.022-.243.044-.472.059-.715-.066-.31.095-1.415.146-2.122.044-.738.227-1.91.132-2.625-.103-.7.19-.508.102-1.142-.102-.693.344-2.093.118-2.513.043-.531.095-1.054.146-1.585.124-.184.974-.612 1.215-.76.6-.375 1.127-.972 1.618-1.473.256-.266.812-.774.695-1.364-.102-.53-.586-.906-.842-1.312-.212-.332-.344-.693-.593-.988-.241-.265-.6-.228-.746-.604h-.11c.066.361.234.767.542.929-.147.08-.286-.052-.403 0v.051c-.212.133-.666.258-.842.443h-.117c-.036-.31.03-.671.088-.988l1.252-1.15c.278-.177.505-.066.761-.213.249-.104.242-.34.44-.494.014-.214.007-.325-.081-.435-.059-.214-.264-.28-.476-.325.564-.899 1.757-1.319 2.467-2.078h.175c.08-.295.264-.405.396-.656-.19-.221-.147-.405-.586-.435m-11.873 10.15c-.19.353-.431 1.194-.695 1.422v.052h-.066c-.175-1.681.49-3.214.659-4.644.095.052.124.155.337.11l1.47-.545h.118c-.644 1.194-1.193 2.47-1.815 3.604m5.409 1.747c-.3.538-2.152 1.04-2.694 1.474h-.11c.308-.64.637-1.179 1.07-1.687.072-.089.277-.118.358-.214.088-.103.102-.243.198-.324l.234-.111.088-.273c.336-.324.746-.516.944-.988l.102.111c-.066.67-.124 1.342-.19 2.02m.68-7.43c.103.037.06.015.118.059l-.132.103h-.11c.066-.11.059-.073.125-.162m-.05 3.059h-.11c.08-.184.19-.243.27-.435l.11.059c-.066.221-.146.221-.27.376m-.923-1.695h-.058c.38-.524.907-.848 1.31-1.305h.066c-.088.877-.886.818-1.318 1.305m3.214 2.189c.139.059.417.08.57 0 .074-.052.198-.34.279-.494h.168c.03.177.073.287.19.383q.002.354-.007.708c-.344.906-1.786 1.46-2.357 2.181h-.176c.154-.36-.102-1.547.235-2.02.087-.33.717-.574 1.098-.766m-.6-3.987-.103-.052h-.059c.183-.184.418-.317.623-.494l.102.052c-.19.162-.373.324-.564.494m1.573-2.233c-.388.132-.871.597-1.164.877h-.168c.278-.362.74-.546 1.04-.877.124-.023.11-.023.182-.06h.117v.06zm.205-1.585c-.212.427-.915.641-1.23.98h-.117q.032-.267.051-.545c.337-.067.989-.288 1.245-.494h.117l-.059.051zM65.314 20.616c-.805-.266-1.223-1.224-1.837-1.696-.813-.626-1.603-1.245-2.445-1.857l-.044-.155h-.227c-.278-.213-.447-.656-.783-.877.16-.847.944-1.341 1.537-1.747.234-.17 1.42-1.481 1.515-1.747.205-.516-.044-.751-.066-1.09-.41-.14-1.047.103-1.31.051-.315-.059-.469-.376-.812-.435.395-.5.9-.987 1.324-1.474.169-.199.505-.295.681-.494.183-.206.498-.516.63-.707.183-.273.227-.553.468-.767.051-.744-.52-.987-1.025-1.253-.93-.479-2.518-.87-4.04-.656l-.125.162c0 .487.44.708.696.988.746.774 1.5 1.452 3.045 1.526-.227.936-1.179 1.489-1.684 2.189-.117-.177-.088-.538-.102-.656-.14-.686-.41-.98-1.09-1.209-.242-.074-.564-.199-.726-.103a.9.9 0 0 0-.344.059c.022.28.161.464.22.707a61 61 0 0 1-.059 1.15l.154.273c.03.17-.132.848-.154.929q-.045.566-.102 1.142c-.102.25-.461.494-.63.715-.739.892-1.5 1.747-2.232 2.624-.468.546-1.069 1.747-1.823 1.916-.058.708.11.959.374 1.467.732-.007 2.159-.413 2.569-.759h.124c-.102.214-.19.435-.292.656-.103.118-.315.287-.388.435-.11.22-.088.368-.22.545-.146.192-.432.398-.564.597-.841 1.29-1.544 2.211-3.045 2.786l-.073.104v.11c.41-.052.652-.221.981-.214l-.242.104c-.05.066-.036.059-.065.162 1.53-.052 3.616-1.96 4.26-3 .197-.34.212-.575.475-.818q-.007-.111-.05-.162c-.089-.06 0 0-.17 0l.191-.222c.103-.17.051-.066.242-.051.095-.214.285-.354.388-.546.131-.258.131-.575.183-.766l.248-.214c.03-.044-.022-.368.052-.545a15 15 0 0 1 .57-1.253l.125-.052c.373.914.871 1.776 1.413 2.565.417.612 1.222 1.18 1.471 1.916h.176c.058.494.622.811.849 1.202.22.015.439.162.556.162.761.015 1.303-.67 1.793-.936.418-.214.791-.265 1.186-.494.25-.147.322-.346.666-.435v-.162c-.724.06-1.486.627-2.408.324m-4.64-9.345c.226.117.248.456.387.655-.066.42-.314.627-.636.767l-.066.059c-.044-.265.249-.914.314-1.474m-2.313 3.427c-.087.2-.314.295-.446.435a23 23 0 0 1-2.145 2.24h-.11c.842-1.414 1.991-2.682 2.826-4.097.08.147-.037 1.194-.132 1.415m1.53 1.43h-.117v-.11l.117.05zm.044.051c.293.14.527.442.68.715a31 31 0 0 0-.68-.715" fill="#d71618"/></g><defs><clipPath id="clip0_583_2643"><path fill="#fff" d="M0 0h123v46H0z"/></clipPath></defs></svg>