<svg width="26" height="45" fill="none" xmlns="http://www.w3.org/2000/svg"><g clip-path="url(#clip0_583_2590)"><path d="M25.855 12.855c0 7.1-5.756 12.855-12.855 12.855S.145 19.954.145 12.855 5.9 0 13 0c7.099 0 12.855 5.756 12.855 12.855" fill="#e60012"/><path d="M21.482 5.11c-2.055-1.33-4.439-1.778-6.507-1.475-2.028.29-4.294 2.042-4.294 4.452 0 1.423-1.198 2.45-2.608 2.45-1.923 0-2.963-1.515-4.741-1.515-1.396 0-2.253.672-2.727 1.094l-.158.276.198.237c.856.29 1.923.751 3.187 1.647 1.647 1.159 2.793 2.357 3.767 3.727 3.965 5.598 10.26 5.321 12.42 4.439 2.24-.909 3.978-2.687 4.795-4.65.066-.144-.145-.237-.224-.105-.25.395-1.501 2.068-3.846 2.068-2.581 0-4.65-2.107-4.65-4.623 0-2.147 1.62-4.61 4.769-4.61 2.647 0 4.926 2.278 4.965 4.847.027-4.11-2.318-6.941-4.346-8.245" fill="#f4e028"/><path d="m7.994 40.83.053-.012.119.052v.158l-.145.198-.198.118-.092-.039-.04-.132.119-.224zm-5.308.159.171-.132.171-.053.106.053.013.158-.119.237-.184.171-.079.027-.092-.027-.053-.026v-.29zm-.29 1.133h.132l.027.118-.106.224-.053.198c-.039.17-.065.29-.092.355l.066.145.132.053.237-.08.026-.026v.106l-.158.21-.197.093-.185.052-.184-.065-.105-.066s-.08-.185-.066-.343c.026-.118.052-.263.118-.448l.053-.17.145-.198.171-.132m2.608.013.145-.04.184.145c.026.093.04.198.04.356v.211c.039-.04.184-.185.408-.435.158-.184.303-.276.408-.276h.066l.263.79c.066.184.145.276.264.276l.158-.04v.093l-.119.171-.158.093-.118.04H6.4l-.276-.133a1.1 1.1 0 0 1-.185-.355c-.013-.145-.026-.25-.026-.316-.013-.132-.066-.198-.132-.198a2.5 2.5 0 0 0-.342.461c-.106.171-.198.343-.29.514h-.066l-.145-.04-.04-.158s.04-.197.093-.434c.053-.238.066-.422.04-.527h-.224l.079-.119.118-.092" fill="#d71718"/><path d="m7.994 40.83.053-.012.119.052v.158l-.145.198-.198.118-.092-.039-.04-.132.119-.224z" fill="#d71718"/><path d="m8.021 41.028-.118.014-.092.105.118-.013zm.645-.039.158-.132.184-.053.093.053.026.158-.119.237-.184.171-.092.027-.08-.027-.065-.026.013-.29zm-.119 1.133h.08l.065-.014.04.119-.092.224-.04.197a4 4 0 0 1-.066.356l.066.132.132.04.237-.093.026-.04v.12l-.145.223-.197.105-.172.066-.184-.066-.105-.066c-.066-.065-.092-.17-.08-.342.014-.118.04-.263.093-.448l.053-.171.131-.21.171-.146m.963.053.145-.04.184.145c.04.093.053.198.04.356v.211c.04-.04.184-.185.408-.435.158-.184.303-.276.408-.276h.08s.091.276.276.79c.066.184.145.276.263.276l.158-.04v.093l-.118.171-.158.093-.119.04h-.105l-.277-.133a1.1 1.1 0 0 1-.184-.355c0-.145-.026-.25-.026-.316-.014-.132-.066-.198-.145-.198a2.5 2.5 0 0 0-.343.461c-.105.171-.197.343-.303.514h-.066l-.145-.04-.052-.158s.04-.197.092-.434c.053-.238.066-.422.04-.527h-.224l.079-.119.118-.092m6.875-1.159.158-.132.184-.053.092.053.027.158-.119.237-.197.171-.066.027-.092-.027-.066-.026v-.29zm-.118 1.133h.079l.052-.014.04.119-.092.224-.04.197a4 4 0 0 1-.066.356l.066.132.132.04.237-.093.026-.04v.12l-.145.223-.197.105-.171.066-.185-.066-.105-.066c-.066-.065-.092-.17-.08-.342 0-.118.04-.263.093-.448l.04-.171.131-.21.171-.146m1.87-.065.093.026.092.066-.303.54h-.105l-.198-.08-.119.053-.092.198-.237.659-.118.052h-.053l-.053-.026c-.013-.066 0-.303.08-.698.052-.29 0-.448-.132-.448h-.053l.118-.145.159-.053h.039l.171.08.066.236q.276-.474.632-.474m.856-1.501.21.158a.7.7 0 0 1 .093.316l-.659 2.094v.106l.08.026h.092l.052.026-.026.119-.224.132-.184.039-.119-.026a.9.9 0 0 1-.052-.343c0-.118.04-.276.092-.448l.04-.17.052-.172.04-.184.026-.172.052-.158.053-.17q.04-.12.08-.357.058-.237.078-.355l.08-.237.105-.237m.791.474.158-.132.184-.053.092.053.027.158-.119.237-.197.171-.08.027-.078-.027-.066-.026v-.29zm-.119 1.133h.066l.053-.014.04.119-.093.224-.04.197a4 4 0 0 1-.065.356l.066.132.131.04.25-.093.027-.04v.12l-.145.223-.198.105-.184.066-.184-.066-.106-.066c-.066-.065-.092-.17-.079-.342 0-.118.04-.263.092-.448l.04-.171.131-.21.172-.146m.908.053.145-.04.184.145c.026.093.04.198.04.356v.211c.052-.04.184-.185.408-.435.158-.184.29-.276.408-.276h.08s.091.276.276.79c.053.184.145.276.25.276l.158-.04v.093l-.118.171-.158.093-.119.04h-.105l-.277-.133a1.1 1.1 0 0 1-.184-.355c0-.145-.027-.25-.027-.316-.013-.132-.066-.198-.145-.198a2.5 2.5 0 0 0-.342.461c-.092.171-.197.343-.29.514h-.066l-.145-.04-.052-.158s.04-.197.092-.434c.053-.238.066-.422.04-.527h-.224l.066-.119.118-.092m3.82.356a1.7 1.7 0 0 1 .395-.264.9.9 0 0 1 .395-.105c.132 0 .238.04.33.105v.053l-.066.118-.08.08-.157-.106-.185-.026-.302.066c-.172.065-.25.118-.303.184v.079h.105q.08 0 .277-.04c.131-.026.21-.04.276-.04l.185.04.131.132v.105l-.052.093-.119.197a.85.85 0 0 1-.33.237c-.144.053-.263.093-.315.119h-.132l-.105.013-.145-.026-.066-.132v-.119l.052-.052h.29c.158 0 .237 0 .356-.027.119-.026.237-.052.29-.158l.026-.092c0-.079-.119-.026-.33-.04-.21 0-.368-.039-.473-.092l-.027-.105.04-.092.079-.092M.592 41.015h.699c.118-.013.263-.026.447-.026l.25-.026c.25-.053.33-.093.448-.106v.092l-.092.172-.079.145c-.079.078-.197.144-.408.197l-.171.026h-.132l-.092.093c-.027.131-.08.303-.132.526-.066.224-.119.461-.171.685s-.092.303-.119.435v.132l.04.118-.092.093H.856l-.277-.066v-.448s.264-.777.303-.922c.04-.132.08-.25.106-.343l.118-.263-.013-.04-.303-.013a1.7 1.7 0 0 1-.527-.066l-.04-.184.066-.158.053-.119.066-.026h.026l.04.053.04.04h.105m3.503 1.791-.25.144-.25.066-.237.066h-.08l-.065-.053c.158-.158.29-.276.421-.355q.237-.158.435-.158l.198.04-.185.263m.343.224c.026-.172.04-.29.066-.356l.105-.277-.132-.184-.197-.092h-.158a1 1 0 0 0-.567.145 1.5 1.5 0 0 0-.5.46l-.106.264-.04.171v.277l.304.119c.118 0 .25-.04.395-.106.145-.079.29-.171.421-.29v.238l-.026.065v.066l.25-.066.119-.224.04-.197m10.524.303h-.067l-.303-.027-.276-.066-.303-.105v-.04c.079 0 .197-.039.355-.065.159-.04.277-.053.37-.08l.263-.039.026.105v.132l.013.119zm-.514-1.186c.118-.197.21-.355.263-.46l.21-.317h.027c.013.092.026.198.013.33 0 .131 0 .263-.013.395 0 .131 0 .237.013.329l-.026.04h-.04l-.04.026h-.17s-.132.04-.25.066c-.12.026-.212.04-.264.04.066-.106.158-.251.263-.462m.922.659h.093l.065.013.08-.026-.04-.145-.105-.145-.066-.027h-.053l-.08-.066v-.368c0-.119.014-.264.027-.422s.027-.303.04-.448c0-.145.013-.276.026-.421l-.105-.092-.106-.093-.105-.039c-.198.316-.408.632-.606.948-.198.33-.421.725-.698 1.173h-.132l-.158.026-.118.053.04.197.118.119v.066l-.08.158-.078.158.052.066.08.065.105.027c.105-.106.21-.237.303-.409h.079l.053.014c.29.17.684.316 1.198.447l.105-.131-.04-.158v-.474l.093-.066m7.916-.29a1 1 0 0 1 .356-.132h.118l.08.053c0 .053-.25.21-.409.276a1 1 0 0 1-.408.106.66.66 0 0 1 .276-.316m.685.513-.263.08a1.5 1.5 0 0 1-.422.092l-.158-.027-.131-.092.197-.066.198-.04c.131-.065.25-.118.382-.184a.72.72 0 0 0 .303-.382l-.066-.197-.132-.106c-.21 0-.421.04-.593.132a1.3 1.3 0 0 0-.566.5.73.73 0 0 0-.092.37c-.013.157 0 .29.118.355.106.04.198.08.343.08.21 0 .421-.067.632-.172l.145-.105.092-.172v-.079M6.967 44.018v-.184l.053-.092.066-.08.052-.052-.131.553-.04-.158m1.001-1.133-.25.106-.026-.08.026-.144.04-.119.039-.105.026-.119-.092-.263-.184-.092c-.027.118-.066.263-.106.46-.079.383-.145.646-.184.778a1.4 1.4 0 0 0-.264.355 2 2 0 0 0-.158.422l-.065.276v.198l.105.08h.053c.118-.159.237-.396.368-.686q.237-.573.316-.711s.093-.066.277-.171l.145-.145-.053-.026m8.087-12.276h.237l.211.237-.026.224c-.013.132-.237.237-.645.303h-.159l-.131-.145v-.08l.526-.54zm1.844 0c.29.145.422.316.409.54q-1.126 1.265-1.186 1.699h.08a2.6 2.6 0 0 0 .842-.62c.303.106.435.317.395.62l-.895 1.857h.382c.29.198.421.382.408.54h.079l.922-1.383.316-.777h.158l-.026.224c-.343 1.897-.83 2.858-1.462 2.858l-.567-1.159-.302-.079c-.264.395-.527.672-.79.843l-.146-.158.04-.303c.184-.5.5-1.093.961-1.778v-.08l-.079.08h-.224l-.276-.382.052-.461.435-1.16c-.263 0-.382-.052-.369-.157v-.08c.158 0 .25-.078.264-.236l.592-.461zm5.137-.105c.777-.027 1.093.303.948 1q1.205-.375 1.818-.236c.21.17.237.342.092.487-.066.04-.29.105-.645.21a1 1 0 0 1-.29.066v-.052s.171-.158.329-.356l-.026-.052c-.382.092-.804.223-1.252.381-1.067.356-1.738.514-2.028.435l-.079-.053.092-.04h.066c.435-.144.75-.263.948-.368l-.17-.026h-.067l.08-.092c.46-.396.474-.751.052-1.04l-.066-.12.21-.131m.779 2.305a2.9 2.9 0 0 1 1.172.079.39.39 0 0 1-.053.395c-.277.171-.711.33-1.33.474-.145.04-.158.026-.014-.066q.336-.197.672-.632l-.04-.158c-.5-.026-.974.171-1.448.566a5 5 0 0 1-.303.29c-.145.316-.29.435-.435.382-.118-.013-.197-.132-.263-.356 0-.144.079-.21.197-.223l.33-.106c.58-.277 1.093-.5 1.528-.658m-1.858 2.015s.237-.04.527-.198c.29-.105.527-.21.724-.303.198-.066.409-.079.646-.052l.079.237c-.172.29-.488.684-.922 1.159.263 0 .474-.014.645-.027.158 0 .277 0 .356.027.21.092.25.303.158.632q-.12.118-.593.356c-.013-.014-.145.013-.382.105a7 7 0 0 1-.46.197v-.065a10 10 0 0 0 .776-.633l.053-.092-.092-.026a3 3 0 0 1-.606.171c-.198.053-.369.066-.527.053-.171-.04-.21-.185-.118-.448.184-.145.395-.382.619-.711-.435.17-.764.105-.962-.211v-.092l.092-.066m-.355-1.699c-.171.276-.355.329-.527.197-.158-.355-.17-.553-.04-.58.251-.328.436-.566.567-.724l.106-.092.079.092c.013.343-.053.712-.185 1.094M7.744 31.308c.171.263-.04 1.12-.25 1.357v.04h.039c.105-.304.5-.91.75-1.08v-.027l.093.079h.013l.04-.027c.026-.184.131-.302.092-.5-.08-.33-.738-1.014-1.186-1.014H7.27c-.066.105-.277.29-.172.46 0 .238.5.514.62.699" fill="#d71718"/><path d="M11.221 31.045c-.079.158-.342.237-.461.355h-.04v-.197c.145-.027.382-.106.475-.185h.04-.027zm-.079.58c-.145.052-.316.223-.421.315h-.066c.105-.132.276-.197.382-.316l.065-.026h.04zm-.58.816h-.039l-.026-.014.223-.184h.04l-.21.198m.236 1.462h.211l.105-.185h.066l.066.145v.264c-.132.329-.658.526-.87.803H10.3c.053-.132-.04-.566.092-.737.027-.12.264-.211.409-.277m-1.186-.817h-.013c.145-.197.33-.316.474-.474h.027c-.027.316-.33.303-.488.474m.33.62h-.04l.092-.159h.04l-.106.158m.04-1.12h.04l-.04.053h-.04l.053-.052m-.263 2.713c-.106.198-.79.382-.988.54h-.04c.119-.237.237-.435.395-.619l.132-.079.066-.119.092-.04.026-.104c.119-.119.277-.185.343-.356l.04.04-.08.737m-1.989-.632c-.065.132-.158.434-.25.514v.026h-.026c-.066-.606.184-1.172.237-1.7l.119.04.54-.197h.039c-.237.434-.435.909-.672 1.317m4.386-3.715.158-.144.158-.264-.026-.118s-.29-.158-.435-.106l-.065.08-.211.039c-.198.079-.435.184-.632.276l-.145.04h-.04c.027-.316.066-.764.185-1.16.065-.197-.014-.355.131-.46l-.052-.08c-.237 0-.409.04-.593.08l.119.04h.013l-.092.092-.04.144h-.066l-.013.159-.026.118.052.105-.105.224c-.066.185-.171.896-.145 1.054-.303.132-.593.316-.882.474-.185.106-.356.145-.527.264l-.185.223v.264c.106-.053.224-.105.343-.132h.184c.33-.158.75-.342.988-.527h.026l-.052.198c-.106.197-.567.316-.725.5v.04c-.158 0-.342.171-.487.263-.237.132-.461.237-.685.382-.184.119-.33.29-.54.395l-.382-.263.053-.145v-.04l-.106.12h-.105l-.026.078-.132.04-.092.145c.013.303.131.592.184.882v.659l-.079.816-.105.316v.066l.158.04.158.131c.118.04.184-.026.25.027.171-.053.21-.29.29-.435.105-.21.25-.474.355-.698.053-.118.053-.237.132-.316v-.079l-.053.079v.026h-.026c.066-.25.08-.605.145-.816.053-.172.013-.395.105-.514v-.197l.237-.066c.172-.066.435-.185.58-.303h.04c-.145.105-.211.263-.343.342v.25c.184.066.79-.105.935-.224-.052.145-.566.685-.698.725-.013.132-.013.33.066.421l.448-.276h.105l.053.066-.026.118c-.172.04-.303.316-.422.435l-.316.237-.053.145-.303.303-.079.158-.184.145-.171.355.105.132.369-.158h.145l.816-.422h.04c-.053.633.04 1.212-.158 1.74l.04.105c.026.223-.053.566-.12.737-.091.264.053.487-.026.724-.065.198-.118.237-.158.475h.066v.026l-.066.237h.172l-.027.119.092.158.119.026.408-.33-.052-.052c.105-.158.026-.369.026-.461l.026-.263c-.026-.106.04-.514.053-.777.013-.277.079-.699.053-.962-.04-.263.065-.184.04-.422-.04-.25.13-.763.039-.922.013-.197.04-.381.052-.579l.448-.277c.224-.144.422-.355.593-.54.092-.092.303-.276.25-.5-.04-.198-.21-.33-.316-.474-.079-.119-.132-.25-.224-.356s-.224-.079-.277-.224h-.039c.026.132.092.277.198.343h-.145l-.303.184h-.04l.027-.356.46-.421.277-.08.158-.183-.026-.158-.184-.12c.21-.328.645-.486.908-.763h.066l.145-.237c-.066-.08-.053-.145-.21-.158M2.74 34.127H2.7v-.04l.04.013zm-.554-.527-.158.158c-.25.303-.5.553-.79.816h-.04c.316-.513.738-.974 1.04-1.501l-.052.514m.856-1.238.145.237c-.026.158-.119.224-.237.276l-.026.027c-.014-.093.092-.343.118-.54m1.712 3.411c-.29-.105-.447-.448-.671-.62a40 40 0 0 0-.896-.684v-.053h-.092c-.106-.079-.171-.237-.29-.316.053-.316.342-.487.566-.632l.567-.645c.079-.185-.013-.277-.027-.396-.158-.052-.382.04-.487.014-.119-.027-.171-.145-.303-.158.145-.185.33-.356.487-.54l.25-.185.238-.263.171-.277c.013-.276-.184-.355-.369-.46a2.73 2.73 0 0 0-1.488-.238l-.053.053c0 .171.158.263.264.355.276.29.553.527 1.12.554-.08.342-.436.54-.62.803l-.04-.237c-.052-.25-.157-.356-.395-.435l-.263-.04-.132.027.08.264c0 .144-.014.276-.027.421l.053.105-.053.343c0 .145-.026.276-.04.421l-.237.264c-.276.329-.553.645-.816.961-.171.198-.395.646-.672.698-.026.264.04.356.132.54.276 0 .79-.158.948-.276h.04l-.106.237-.145.158-.079.197-.21.224c-.303.474-.567.804-1.12 1.014l-.026.04v.04c.158-.014.237-.08.368-.08l-.092.04-.026.066c.553-.026 1.33-.724 1.567-1.093.08-.119.08-.211.172-.303v-.066h-.08l.066-.08h.093l.144-.223.066-.277.093-.079v-.197c.079-.145.158-.316.223-.461l.053-.027c.132.343.316.646.527.936.158.223.448.434.54.698h.066c.026.184.237.303.316.434l.198.066c.276 0 .474-.25.658-.342.158-.08.29-.092.435-.185.092-.052.118-.131.25-.158v-.066c-.263.027-.553.238-.882.119M15.7 33.31h-.08c-.118 0-.171-.21-.171-.619l.395-.079h.08zm-.923.764-.237.079h-.079l.316-.843h.08l-.08.777zm1.792-2.305h-.08c-.342.04-.75.237-1.224.62l-.343-.383-.25.158c-.395 1.7-.725 2.542-.962 2.542l-.04.382h.304l-.04.461-.118.382c.105.356.21.54.33.54h.157l.08-.079-.027-1.238.026-.316.237-.08h.08l-.133.462c.093.33.396.738.949 1.238h.079l.092-.079-.066-.843.027-.224c.026-.263.118-.408.276-.46l-.118-.383v-.079c.263-.21.408-.395.448-.54l-.027-.46c.013-.185.171-.449.461-.778l.04-.382c.026-.263-.04-.408-.185-.461" fill="#d71718"/></g><defs><clipPath id="clip0_583_2590"><path fill="#fff" d="M0 0h26v44.598H0z"/></clipPath></defs></svg>