<svg width="81" height="46" fill="none" xmlns="http://www.w3.org/2000/svg"><g clip-path="url(#clip0_583_2360)"><path d="M8.427 36.396c.475-4.044 4.417-6.504 8.698-7.617 2.038-.505 4.315-1.01 5.334-1.213 1.053-.236 2.888-.471 3.567-.573-1.29-.1-2.446-.91-2.752-1.314-2.242.27-2.922.37-4.077.607-3.296.573-14.576 2.696-14.27 10.986.306 6.908 12.571 8.054 17.498 8.256.34 0 .543 0 .713-.067-11.382-.775-15.221-4.583-14.677-9.065" fill="#0c68ae"/><path d="M1.767 37.036c-2.48-8.492 9.717-15.064 18.11-18.501a173 173 0 0 0 9.683-4.246s.815-.438.815-.472c4.043-2.966 8.63-5.965 9.174-13.783-3.942 5.358-12.232 8.795-22.221 13.951C7.508 19.04-.883 26.05.068 33.767.78 42.529 9.819 44.854 16.41 45.393c-5.878-.808-13.013-2.931-14.644-8.39" fill="#d3171a"/><path d="M3.16 34.846c.238-5.898 9.989-9.976 19.774-12.705.782-2.595 4.213-5.325 7.441-8.358-3.126 1.517-6.795 3.202-10.499 4.718-8.392 3.471-20.59 10.043-18.11 18.535 1.598 5.46 8.767 7.582 14.645 8.391 1.053.101 2.072.135 2.99.135-7.51-.54-16.547-2.797-16.207-10.716" fill="#f4d924"/><path d="M22.424 45.495c-4.45-.203-14.27-1.247-16.342-6.37-.238-.539-.408-.842-.51-1.786-.136-1.146.102-2.157.408-3.066 2.004-5.628 10.43-7.414 13.285-7.92 1.732-.303 1.834-.404 4.009-.708-.374-.505-.612-1.415-.578-2.089 0-.404.102-.977.238-1.382C12.674 24.702 3.432 28.982 3.16 34.88c-.34 7.886 8.698 10.177 16.206 10.683 1.292 0 2.345 0 3.024-.067" fill="#6cab2f"/><path d="m74.103 38.654 1.257-1.146-.442-.27c-1.019-.708-1.63-.505-2.786.27V36.26h6.388c.51 0 .577-.034.577.37v1.315l1.631.1v-1.65c-.034-.371.034-.81.204-1.247H76.38a2.3 2.3 0 0 1-.17-.573h-1.902c.068.202.17.37.305.573H71.59l-1.02 1.078-.068 3.134c.578-.337 1.733-1.044 2.379-1.146.577-.1.951.236 1.257.506m3.432-1.988-1.801.876c1.019 1.18 1.359 1.55 3.941 1.18.476-.068.34-.27.068-.27-1.597-.101-1.767-.708-2.175-1.753m3.364 8.493-.136-1.112c-.136-1.113-.815-1.55-2.174-1.618a61 61 0 0 0-2.549-.067c.034-.607.102-1.247.272-1.787h2.922l.51-1.213h-7.917l-.475 1.213h3.16v1.82c-1.054 0-2.107.068-3.262.135l-.612 1.752c2.31-.64 5.233-.606 6.931-.539 1.597.101 2.175.202 2.752.977l.374.506c.136.236.238.135.204-.067m-20.114-4.584h-.951l-.068 1.416h1.12l-.135-1.416zm8.596 2.932c-.204-.91-.713-.943-1.8-1.112l-.137-4.448.374-1.078h-4.179l.102 7.885c0 .64.238-.472.51-1.18.271-.64.781-.842.781-1.819l.068-3.74h.951v5.728c1.767-.135 2.854-.438 3.262.742.204.572.238.539.17 0a8 8 0 0 0-.136-.978m-.747-8.492h-2.379v-.438l-1.359-.236v.674h-1.87l-.373 1.146h5.606l.408-1.146zm-7.781 4.111.136-1.145H59.9v1.145h-.748v-1.55h2.582v1.55h-.849m-1.733-2.696v-.64s1.223.101 2.243 0l.271-1.415c-.713.303-1.834.37-2.854.438l-.883.842-.068 3.505h-.917l.407 1.146h.476l-.102 4.987s.068.674.17-.236c.102-.74.34-1.078.85-1.482.475-.405.407-.438.407-.843 0-.809-.034-1.617-.068-2.426h2.582v2.291c-1.087-.1-1.732.101-1.732.101-.272.068-.306.135 0 .169a4.8 4.8 0 0 1 2.684 1.213c.306.27.543.64.51.27l-.306-6.808.407-1.112zm-8.12.337h-2.31v-.606h2.31zm-2.99 4.718c.17.405.578.607 1.087.674v.371H47.84s.068-.472.238-1.045m.985-2.123h.408l-.102.607c-.374.067-.68.202-.951.404.17-.37.373-.741.645-.977m1.393 1.146c.442.573-.985 1.348-1.29.943-.34-.505.916-1.415 1.29-.943m5.233 2.932c-.238-.742-1.088-.81-1.563-.91l-.306-1.483c.51-.37.883-.809 1.053-1.618l.17-1.01H53.65l-.102.775s0 .202-.068.27l-.34-1.585h1.971l-.34-1.483h-1.46l.067.337h-.917v-.606h2.684l.374-1.146H52.46v-.438l-1.393-.236v.674h-2.31v-.438l-1.394-.236v.674h-2.752l-.407 1.146h3.16v.606h-.374c-.918 0-1.427.236-1.427 1.315v1.449h-.306v-1.382h-1.19v1.517c0 .337-.135.876-.135.876h1.698v.606h-1.019c-.51 0-.577.034-.577 1.011v2.36c0 .606.17.437.305 0l.714-2.258h.578v2.965c.068.775.237.741.373 0l.918-5.931h.68c-.646 1.28-.612 2.965-.68 4.347h4.383v-1.18H49.98l.102-.404s.237-.033.373-.067c.782-.236 1.427-.742 1.36-1.416-.069-.572-.612-.775-1.258-.808l.17-.506h.815l-.17-1.078h-4.28c.101-.303.305-.37.713-.37h3.907l.612 3.1-.068.067c-.34.438-.612.775-.578 1.584 0 .573 0 1.449.068 2.022 0 .64.068 1.617.272.438.102-.674.204-1.416.306-2.022.034-.37.102-.708.238-.944l.272 1.348c.033.27.067.303.407.303h1.156c.679.102 1.019.236 1.358 1.045.17.405.272.506.204 0-.068-.438-.136-.977-.271-1.382m-21.372-1.988c-.34.169-.781 0-.883-.27-.306-.74.578-1.246 1.291-1.145.034.472.102 1.247-.408 1.449m1.733-1.18c.748.573.952.843 1.495 1.652.476-.135 1.121-.337 1.36-.37v-3.068h.883v4.28c-2.005-.505-4.112-.539-6.66.034v-1.247c1.155 1.247 2.752.169 2.922-1.28m.034-1.82h1.461v1.787a4.6 4.6 0 0 0-1.46-.876zm0-2.257h1.461v1.146h-1.46zm-3.092 2.258h1.733v.707c-.272 0-.577.068-.883.135a1.45 1.45 0 0 0-.816.54v-1.382zm-2.276-2.258h4.01v1.146H31.53l-.407 1.145h.611l-.17 5.83c0 .203.034.203.17.135l1.427-.775v-.202c3.874-.742 6.66.607 7.713 1.18.475.269.475.067.475-.203l-.135-5.998.407-1.146h-2.718v-1.146h2.82l.408-1.146H31.157l-.408 1.146zm4.586-9.099-.272.472h.782a3.8 3.8 0 0 0-.544.943c-.136.304-.204.64-.238.977.204-.067.408-.1.578-.134.204 0 .408-.034.611-.034.238 0 .476.067.68.202s.374.337.544.573c.136.202.237.438.34.708.101.27.203.606.271.943.068.371.136.674.204.944.034.27.102.505.136.674 0 .034 0 .067.034.067h.068c.068 0 .068-.067.068-.168a121 121 0 0 0-.714-3.202q-.306-1.314-1.427-1.314h-.475s-.272 0-.442.068c.204-.573.578-.978 1.121-1.281h1.733l.204-.472h-3.296zm3.806 0-.204.573h.306s.102 0 .102.1v.136c.204-.101.34-.405.476-.81zm5.708.001-.238.472h.578c-.272.438-.408 1.112-.408 2.055.17-.033.34-.1.51-.1s.306-.034.475-.034c.238 0 .442 0 .646.1.476.136.985.473 1.529.978.068.067.102.067.17.034 0-.068 0-.102-.034-.169a9 9 0 0 0-.714-.809 4.6 4.6 0 0 0-.713-.505c-.17-.068-.306-.135-.476-.169-.17-.033-.34-.067-.476-.067h-.305c-.102 0-.204 0-.306.034.136-.674.374-1.18.781-1.416h1.97l.239-.471h-3.194zm4.247 0-.238.472h.612c-.306.404-.51.91-.612 1.55.17 0 .34 0 .476.034.136 0 .306.067.442.134.102.068.237.135.373.236s.272.202.374.337c.034 0 .068.034.102 0v-.135a2.6 2.6 0 0 0-.612-.808c-.237-.203-.51-.304-.849-.371.068-.135.136-.27.272-.404.102-.135.238-.27.374-.371.305.236.68.573 1.019 1.01a13 13 0 0 1 1.189 1.686c0 .034.034.067.068.067v-2.932l.17-.471h-.612l-.204.471c.306.068.476.877.476 2.46-.238-.539-.51-1.01-.747-1.415a9.5 9.5 0 0 0-.782-1.045H51l.204-.471H48.96zm3.805 0-.204.573h.306s.102 0 .102.1v.136c.204-.101.34-.405.476-.81zm1.326.001-.17.472h1.257s.136.168.17.27c.034.1.068.235.102.336a2 2 0 0 0-.612-.1.84.84 0 0 0-.51.168.94.94 0 0 0-.441.91c0 .606.34.91.985.91a.82.82 0 0 0 .612-.236c.17-.135.34-.371.475-.674.238.235.442.471.646.74q.305.355.611.81l.068.033V27.6l.204-.472h-.645l-.238.472c.306 0 .475.944.475 2.73-.747-1.213-1.257-1.921-1.562-2.022 0-.101.068-.203.068-.304V27.6h.51l.169-.472h-2.31zm.713 1.483c.204 0 .408.033.578.1.136.068.305.203.475.371-.272.371-.577.573-.985.573-.51 0-.781-.168-.781-.438 0-.37.237-.573.713-.573m4.214-1.516c-.51.135-.782.741-.782 1.786v2.763s0 .135.102.135c.068 0 .102-.067.102-.135V29.22c.034-1.011.34-1.55.85-1.618h.713a3.6 3.6 0 0 0-.578 1.651h.612c.17 0 .305.068.475.135a5 5 0 0 1 .51.303c.204.135.408.337.645.573v-1.685c0-.37 0-.707-.067-.943l.17-.472h-2.753m1.97.472c.306.303.442 1.044.476 2.156-.612-.741-1.156-1.112-1.7-1.112.069-.202.17-.37.273-.573q.153-.252.407-.505h.544zm2.753-.472c-.68.337-1.053.809-1.223 1.449 0 .135-.034.303-.034.438 0 .169 0 .337.068.506s.102.337.204.539a.9.9 0 0 0 .238-.27c.068-.101.102-.202.136-.303a1.4 1.4 0 0 1-.204-.708v-.135c.102-.505.34-.876.747-1.044h.951c.34.236.51.505.51.842 0 .101 0 .202-.034.303 0 .102-.068.236-.136.337-.102-.033-.17-.067-.272-.1-.102 0-.203-.034-.305-.034-.442.033-.714.27-.748.707.136-.033.238-.067.374-.1h.646q.407.05.713.404.306.303.51.91c0 .067.034.1.102.067.034 0 .068-.067.034-.135-.17-.741-.442-1.28-.884-1.55.204-.303.34-.607.374-.809v-.168c0-.101 0-.203-.034-.304 0-.1-.068-.202-.102-.337l.272-.471h-1.869zm2.786 0-.204.573h.306s.102 0 .102.1v.136c.203-.101.34-.405.475-.81zm2.412.001c-.68.337-1.053.809-1.223 1.449 0 .135-.034.303-.034.438 0 .169 0 .337.068.506.034.168.102.337.204.539a.9.9 0 0 0 .238-.27c.068-.101.102-.202.136-.303a1.4 1.4 0 0 1-.204-.708v-.135c.102-.505.34-.876.747-1.044h.952c.34.236.51.505.51.842 0 .101 0 .202-.035.303 0 .102-.068.236-.136.337-.101-.033-.17-.067-.271-.1-.102 0-.204-.034-.306-.034-.442.033-.714.27-.748.707.136-.033.238-.067.374-.1h.646q.408.05.713.404.306.303.51.91c0 .067.068.1.102.067.034 0 .068-.067.034-.135-.17-.741-.442-1.28-.884-1.55.204-.303.34-.607.374-.809v-.168c0-.101 0-.203-.034-.304 0-.1-.068-.202-.102-.337l.272-.471h-1.869zm6.49 0h-3.262l-.17.472h.612a3.3 3.3 0 0 0-.612 1.449h.136s.272 0 .408.033c.136 0 .272.068.408.102s.272.134.441.235c.17.102.34.236.51.371V28.14c0-.168 0-.337-.034-.505h.748q.356 0 .407 3.64a7 7 0 0 0-.85-.54c-.305-.169-.61-.303-.916-.438-.238-.101-.476-.169-.646-.169-.374 0-.612.236-.646.674.17-.067.374-.1.578-.134h.306c.102 0 .238.033.34.067a6.4 6.4 0 0 1 1.902.775c.034 0 .068.034.102 0v-3.842l.17-.471zm-1.97.472c.203.337.305.91.271 1.786a2.5 2.5 0 0 0-.68-.54 2 2 0 0 0-.747-.27c.17-.336.442-.673.816-.976h.339m-1.53 3.37h-.136v.1c.069.034.136.136.272.27.136.135.306.304.544.506.204.202.408.404.578.539s.305.27.441.37c.374.304.68.439.884.439q.407 0 .611-.202c.17-.135.238-.304.238-.54 0-.202 0-.37-.102-.471q-.102-.253-.408-.203-.51 0-.51.506v.101s.239-.168.409-.168q.356 0 .407.303c0 .168-.204.27-.577.27-.408 0-.782-.17-1.156-.506-.305-.303-.611-.54-.849-.741-.272-.203-.476-.405-.68-.54m7.781-3.875H79.2l-.136.472s.238.303.306.573c0 .134.034.337.067.606v.944c-.237-.27-.441-.506-.645-.674s-.408-.337-.612-.405c.034-.134.068-.236.102-.337v-.539q0-.101-.102-.202l.17-.438h-1.36q-.407.404-.611.708c-.136.235-.204.438-.204.64 0 .337.034.606.136.842l.475-.303s-.136-.236-.17-.337-.067-.202-.067-.303a.94.94 0 0 1 .407-.775h.748s.272.236.306.404q.05.202 0 .607h-.34c-.34 0-.544.236-.544.573.17-.068.34-.102.578-.102h.204c.441.034.985.371 1.563.978.033.033.067.067.135.067.034 0 .068-.034.068-.101v-2.325l.136-.506zm.477 0-.204.472c.272 0 .408.37.475 1.044 0 .337.069.91.069 1.685v3.033c0 .068 0 .101.101.135q.102 0 .102-.101V27.67l.17-.471h-.747zm-46.855.472c.272.27.442.808.442 1.65v.843a7 7 0 0 0-.612-.707 2.2 2.2 0 0 0-.577-.438c-.306-.169-.714-.236-1.19-.236h-.203q.102-.354.306-.607c.136-.168.34-.337.543-.472h1.291zm-.95-.472s-.035-.101-.069-.169c0-.1-.068-.168-.102-.235q.153-.354.612-.304h.17c.238 0 .407 0 .577-.067a.77.77 0 0 0 .374-.169q.306-.252.408-1.01c0-.034 0-.068-.068-.068h-.034v.034c0 .168-.102.27-.17.37a.8.8 0 0 1-.238.236c-.17.068-.51.135-.985.169q-.51 0-.714.606c-.102-.168-.204-.337-.306-.438-.136-.1-.237-.202-.34-.27-.067 0-.135-.033-.203-.033s-.17 0-.238.067a.7.7 0 0 0-.34.405c.646 0 1.155.303 1.53.876h-1.054l-.238.472h.51c-.306.471-.476 1.01-.51 1.65.306-.033.578-.066.85 0 .237 0 .475.068.713.17.204.067.442.202.68.37.237.169.475.37.747.64 0 .034.068.034.068.034V27.67l.238-.471H32.48zm9.683-.506s.238-.067.374-.067h.204c.441 0 .747-.067.951-.236.102-.101.204-.202.272-.37.068-.17.102-.371.136-.64 0-.035 0-.068-.034-.068s-.068 0-.102.067q-.102.455-.408.607c-.102.033-.204.067-.373.1-.17 0-.374.034-.646.068q-.51 0-.714.607c-.203-.337-.407-.607-.645-.708 0 0-.068-.034-.102-.034h-.102c-.068 0-.17 0-.238.068a1 1 0 0 0-.204.168.54.54 0 0 0-.136.236c.578 0 1.054.27 1.427.741h-.747c-.238.203-.408.405-.578.607-.136.169-.238.337-.272.506-.033.134-.067.27-.033.438v.236c0 .067.033.134.067.168l.442-.37s-.102-.203-.102-.371v-.135c0-.101.068-.202.136-.303a.9.9 0 0 1 .238-.27h.917s.17.202.17.303v.337h-.306c-.373.068-.577.236-.543.54.136-.034.34-.068.544-.068h.203c.272 0 .544.101.782.236q.306.152.611.404h-2.174l-.17.472h.374s-.136.27-.17.405c-.034.134-.102.27-.102.404 0 .067 0 .168-.034.27v.64c.204 0 .374-.067.51-.067h.373c.204 0 .408 0 .578.1.306.068.645.338 1.053.81.034.033.102.067.136.033v-.135c-.34-.539-.68-.91-.985-1.078a1.4 1.4 0 0 0-.612-.169 3.6 3.6 0 0 0-.85 0v-.168c0-.067 0-.101.035-.135h1.903l.17-.472h-1.937s.17-.27.34-.37h1.562l.102-.337c.034.033.068.033.136 0 .068-.034.068-.068.068-.135V27.7l.102-.472h-.645l-.136.472c.271.101.441.674.475 1.685-.204-.236-.407-.472-.645-.607a3.4 3.4 0 0 0-.646-.404c0-.067.068-.135.068-.202v-.169c0-.135 0-.236-.102-.337l.136-.438h-.374a1 1 0 0 0-.136-.27.8.8 0 0 1 .238-.235" fill="#040000"/></g><defs><clipPath id="clip0_583_2360"><path fill="#fff" d="M0 0h81v46H0z"/></clipPath></defs></svg>