<svg width="162" height="46" fill="none" xmlns="http://www.w3.org/2000/svg"><path d="M51.297 12.575h-6.57v13.71h6.57zm-9.692 0h-6.57v7.586l-6.122-7.586h-6.53v13.71h6.53v-7.504l6.204 7.505h6.488z" fill="#139244"/><mask id="mask0_597_3592" style="mask-type:luminance" maskUnits="userSpaceOnUse" x="0" y="0" width="162" height="46"><path d="M162 0H0v46h162z" fill="#fff"/></mask><g mask="url(#mask0_597_3592)"><path d="M12.692 12.575v8.884c0 .73-.932 1.379-2.068 1.379H8.597c-1.136 0-2.068-.609-2.068-1.38v-8.883H0v10.952c0 1.542 1.825 2.759 4.096 2.759h11.07c2.27 0 4.096-1.217 4.096-2.759V12.575zm53.568 8.356 1.663-3.326 1.662 3.326zm5.961 5.355h6.448l-7.016-13.711h-7.502l-7.055 13.71h6.488l.973-1.946h6.731zm14.962-13.67h-6.367v13.67h6.367zm13.787 5.435h-4.46v-1.987h4.46a1.03 1.03 0 0 1 1.014 1.014c0 .567-.446.973-1.014.973m5.474 2.028c1.622 0 1.582-1.825 1.582-1.825V15.9c0-3.002-3.163-3.285-3.163-3.285H90.266v13.67h6.366V21.58h4.217c.892 0 .852.893.852.893v3.853h6.366v-3.853c0-2.231-1.581-2.394-1.581-2.394M7.664 31.235v1.744H.162v1.947h17.356v-1.947h-7.421v-1.744zm5.758 12.737 2.19-8.397h-2.555l-2.19 8.397H6.814l-2.23-8.397-2.393.608 2.068 7.789H0v1.987h17.64v-1.987zm60.745-2.596h6.935V39.51h-16.14v1.866h6.813v2.596H64.07v1.987h18.005v-1.987h-7.908zM66.3 34.399s.082-.203.244-.203H79.56s.243.081.243.203v1.663h2.27v-3.367c0-.243-.161-.365-.445-.365h-7.421v-1.136h-2.392v1.136h-7.3c-.284 0-.405.122-.446.365v3.367h2.271v-1.663z" fill="#139244"/><path d="M67.72 36.71h-3.122v1.867h4.906c.811 0 1.379-.447 1.784-1.177l1.258-2.271h-2.677l-.81 1.217c-.244.324-.406.365-1.298.365m5.758-1.582v2.109c0 .974.567 1.339 1.662 1.339h6.245V36.71H76.56c-.284 0-.406-.122-.406-.365v-1.177H73.52zm-34.875-3.124-1.865-.608q-.304.912-1.217 2.312l1.825.69c.568-.893.974-1.664 1.217-2.394m-8.474.285c.283.486.526 1.176.81 2.068l1.947-.446c-.284-.974-.609-1.785-1.014-2.434l-1.825.527-1.703-.527c-.203.608-.608 1.42-1.176 2.353l1.825.69c.486-.812.892-1.542 1.135-2.191m-5.759 1.541c-.405-.973-.81-1.785-1.256-2.393l-1.825.65c.406.567.77 1.338 1.217 2.352l1.906-.609z" fill="#139244"/><path d="M25.83 35.494c.771.487 1.501.973 2.11 1.46h-4.42q1.338-.609 2.31-1.46m7.584.852c.365-.244.649-.528.973-.812.852.487 1.663.974 2.352 1.42h-4.501c.446-.203.851-.406 1.176-.608m5.84 4.34V37.32c0-.243-.163-.365-.447-.365h-.568l.73-.852c-1.257-.73-2.514-1.42-3.812-1.987.082-.325.163-.65.163-.933v-1.907h-2.15v1.907c0 .851-.527 1.541-1.622 2.109a5.4 5.4 0 0 1-1.297.487l1.054 1.217h-2.514l.973-1.055c-1.014-.649-2.027-1.257-3.082-1.785q.244-.608.244-1.217v-1.622h-2.15v1.622c0 .69-.324 1.258-.892 1.704-.608.487-1.46.892-2.635 1.176l.892 1.136h-.487c-.284 0-.405.122-.446.365v3.367h2.27v-1.663s.082-.203.244-.203h5.434v.811h-4.907v1.745h3.771c-1.946.973-4.176 1.622-6.69 2.028l.973 1.785c2.068-.325 4.298-1.096 6.853-2.394V46h2.27v-3.164c1.663.974 3.894 1.744 6.53 2.434l1.297-1.704c-2.798-.527-5.11-1.176-6.731-2.15h3.811v-1.744h-4.866v-.811h5.394s.243.08.243.203v1.663h2.27zm20.599 3.002c-.365 0-.446-.203-.487-.406v-7.504s-.162-.325-.324-.325h-5.758s-.325.163-.325.325V43.2s-.121.446-.446.446h-.892v2.272s1.663.04 2.27-.081c0 0 1.299-.203 1.34-2.393v-5.923c0-.121.08-.203.242-.203h1.38s.202.081.202.163v6.165c0 1.826 1.297 2.15 1.297 2.15.65.163 2.312.081 2.312.081v-2.312h-.852m-4.785-12.33v1.46H51.58v1.866h9.124v-1.866h-3.325v-1.46zm-6.285 4.867c-.162-.243-.365-.527-.527-.811-.324-.487-.568-.811-.69-.974l-1.58.609v-.73s.08-.203.243-.203h2.352s.243.081.243.203v1.906zm0 1.177-2.798.243v-2.15c.568.811.933 1.42 1.176 1.785l1.622-.527v.648m3.366 1.5-.243-1.784-.852.08v-4.34c0-.405-.162-.527-.567-.527h-2.069c.081-.243.163-.527.244-.77l-2.19-.569c-.081.325-.284.771-.527 1.298H44.24c-.405 0-.567.203-.567.568v4.95l-1.217.12.405 1.786.771-.081c-.04 2.23-.406 4.218-1.054 5.922l2.433.446a17.5 17.5 0 0 0 .932-5.638v-.933h.487v3.975h1.825v-4.219h.486v4.828c0 .08-.08.162-.202.202-.163 0-.811 0-1.947-.203l.365 1.988c1.46.081 2.312.081 2.636.04.324 0 .649-.202.933-.405.121-.081.283-.284.283-.284.163-.162.203-1.095.203-1.095V38.86l1.095-.122z" fill="#139244"/><path d="m158.999 0-16.018 45.96h3.001L162 0z" fill="#de5511"/><path d="M99.39 45.96h41.97L157.337 0h-21.979z" fill="#139244"/><path d="m145.496 25.028-7.583-1.906 2.311-4.95-4.987 2.272-1.866-10.506-1.906 10.506-4.987-2.271 2.311 4.949-7.583 1.906 7.583 1.866-2.271 4.99 4.947-2.272 1.906 10.466 1.866-10.507 4.906 2.272h.081l-2.311-4.949z" fill="#fff"/></g></svg>