<svg width="48" height="48" fill="none" xmlns="http://www.w3.org/2000/svg"><rect x="6" y="6" width="36" height="36" rx="8" fill="#04d11e"/><mask id="a" style="mask-type:alpha" maskUnits="userSpaceOnUse" x="11" y="11" width="26" height="26"><circle cx="24" cy="24" r="13" fill="#d9d9d9"/></mask><g mask="url(#a)" fill="#fff"><path d="M23.5 18.222a1 1 0 0 1 1 0l4.254 2.456a1 1 0 0 1 .5.866v4.912a1 1 0 0 1-.5.866L24.5 29.778a1 1 0 0 1-1 0l-4.254-2.456a1 1 0 0 1-.5-.866v-4.912a1 1 0 0 1 .5-.866zm12.133 0a1 1 0 0 1 1 0l4.254 2.456a1 1 0 0 1 .5.866v4.912a1 1 0 0 1-.5.866l-4.254 2.456a1 1 0 0 1-1 0l-4.254-2.456a1 1 0 0 1-.5-.866v-4.912a1 1 0 0 1 .5-.866zm-24.266 0a1 1 0 0 1 1 0l4.253 2.456a1 1 0 0 1 .5.866v4.912a1 1 0 0 1-.5.866l-4.253 2.456a1 1 0 0 1-1 0l-4.254-2.456a1 1 0 0 1-.5-.866v-4.912a1 1 0 0 1 .5-.866z"/><path d="M28.754 20.678a1 1 0 0 1 .5.866v4.912a1 1 0 0 1-.5.866L24.5 29.778a1 1 0 0 1-1 0l-4.254-2.456a1 1 0 0 1-.5-.866v-4.912a1 1 0 0 1 .5-.866l4.254-2.456a1 1 0 0 1 1 0zm6.066 10.508a1 1 0 0 1 .5.866v4.912a1 1 0 0 1-.5.866l-4.253 2.456a1 1 0 0 1-1 0l-4.254-2.456a1 1 0 0 1-.5-.866v-4.912a1 1 0 0 1 .5-.866l4.254-2.456a1 1 0 0 1 1 0zM22.687 10.17a1 1 0 0 1 .5.866v4.912a1 1 0 0 1-.5.866l-4.254 2.456a1 1 0 0 1-1 0l-4.254-2.456a1 1 0 0 1-.5-.866v-4.912a1 1 0 0 1 .5-.866l4.254-2.456a1 1 0 0 1 1 0z"/><path d="M18.746 21.544a1 1 0 0 1 .5-.866l4.254-2.456a1 1 0 0 1 1 0l4.254 2.456a1 1 0 0 1 .5.866v4.912a1 1 0 0 1-.5.866L24.5 29.778a1 1 0 0 1-1 0l-4.254-2.456a1 1 0 0 1-.5-.866zm6.067-10.508a1 1 0 0 1 .5-.866l4.254-2.456a1 1 0 0 1 1 0l4.254 2.456a1 1 0 0 1 .5.866v4.912a1 1 0 0 1-.5.866l-4.254 2.456a1 1 0 0 1-1 0l-4.254-2.456a1 1 0 0 1-.5-.866zM12.68 32.052a1 1 0 0 1 .5-.866l4.253-2.456a1 1 0 0 1 1 0l4.254 2.456a1 1 0 0 1 .5.866v4.912a1 1 0 0 1-.5.866l-4.254 2.456a1 1 0 0 1-1 0L13.18 37.83a1 1 0 0 1-.5-.866z"/></g></svg>