<svg width="48" height="48" fill="none" xmlns="http://www.w3.org/2000/svg"><rect x="6" y="6" width="36" height="36" rx="8" fill="#ff7a00"/><ellipse cx="24.5" cy="20" rx="6.5" ry="7" fill="#fff"/><path d="M22 23.5v1l2.5 2 4-4.5-.5-4.219-1.5 1.719-2 2-2 1.5z" fill="#000"/><path d="M20.5 38.5C22 35 20 33 17 31l.5-5H22c7-4 5.216-10 5.216-10S24.588 21.184 21 22.5c-4.312 1.581-9.737-.71-10-1.5-.5-1.5 8-13.5 18.5-10 4.5-1.5 8.5 1 10 3.5.3.5-3 .5-4.5 3 2.5 7.5-2 15-10 17-.5 2.5-5 4.5-4.5 4Z" fill="#eff0f2" stroke="#000"/><circle cx="20.5" cy="14.5" r="3.5" fill="#000"/><circle cx="21" cy="15" r="3" fill="#fff"/><circle cx="21" cy="15" r="2" fill="#21000f"/><circle cx="22" cy="15" r="1" fill="#fff"/><circle cx="19.5" cy="14.5" r=".5" fill="#fff"/><path d="M22.5 24.5c3 1.8 3.756 5.5 1.756 7.5S18.5 33.5 16 31.5s-2.75-4.625-1.5-6.5 5-2.3 8-.5Z" fill="#f6c106" stroke="#000" stroke-width=".8"/><path d="M21 23.5c-2.5 1.5-5 4.5-5 8-.567-1.985-.181-3.97 1-5.5-2.012-1-7-2.5-7.712-1-.832 1.754 1.846 3.667 3.875 5-2.388-1-5.928-2.97-4.663-5.5 1-2 6.833-.207 9 .94.875-.894 2.058-1.58 3.5-1.94" fill="#000"/><path d="M24.5 21.5s.5 2.238.18 2.5-2.18-1-2.18-1 .363 1.145 0 1c-2.5-1-1.4-1-1-1 .5 0 2.88-1.57 3.5-2.5.445-.667 1.414-2 1.695-2.5.305.5 0 2.21-.195 1.5 0 0-.156 2.5-.5 2.608-.589.186-1.5-.608-1.5-.608" fill="#fff"/><path d="m20.5 28 4.5-2.063 1.5.563.5 3-1.5.5-3-.5z" fill="#eff0f2"/><path d="M19.5 27.5c0-.5 3 .5 6.5-2.5-1.5 2.5-5 3-5 3 3.5 2.5 7 1.5 9.5-2.5-2 7-10.5 5-11 2" fill="#000"/></svg>