<svg width="46" height="46" fill="none" xmlns="http://www.w3.org/2000/svg"><path fill-rule="evenodd" clip-rule="evenodd" d="M33.677 23.766c4.121 0 7.46 3.328 7.46 7.43v5.902c0 4.103-3.339 7.429-7.46 7.429H22.704a7.45 7.45 0 0 1-4.372-1.409 7.47 7.47 0 0 1-2.72-3.706l-6.537 3.262a3.625 3.625 0 0 1-4.86-1.607 3.6 3.6 0 0 1-.383-1.615V28.869a3.613 3.613 0 0 1 3.62-3.605c.569 0 1.13.132 1.636.388l6.508 3.28a7.47 7.47 0 0 1 2.715-3.74 7.45 7.45 0 0 1 4.393-1.424zm-.047 3.826H22.815a3.72 3.72 0 0 0-2.612 1.061 3.73 3.73 0 0 0-1.119 2.592v5.742c.003.977.39 1.914 1.076 2.61a3.72 3.72 0 0 0 2.593 1.105h10.814a3.72 3.72 0 0 0 2.611-1.062 3.73 3.73 0 0 0 1.119-2.59v-5.744a3.73 3.73 0 0 0-1.075-2.609 3.72 3.72 0 0 0-2.592-1.105M8.66 29.895a.984.984 0 0 0-.986.966v6.652a.99.99 0 0 0 .937.982 1 1 0 0 0 .483-.097l.015-.009 6.135-3.116V33.07l-6.14-3.068a1 1 0 0 0-.444-.106m9.108-27.978a10.1 10.1 0 0 1 5.1 1.375 10.1 10.1 0 0 1 3.71 3.765 8.65 8.65 0 0 1 5.892-2.302c4.787 0 8.667 3.865 8.667 8.632s-3.88 8.632-8.667 8.632a8.66 8.66 0 0 1-7.005-3.548 10.1 10.1 0 0 1-7.697 3.548c-5.575 0-10.094-4.501-10.094-10.053 0-5.551 4.519-10.05 10.094-10.05m0 4.041c-3.333 0-6.034 2.69-6.034 6.01s2.7 6.01 6.034 6.01c3.332 0 6.034-2.691 6.034-6.01s-2.702-6.01-6.034-6.01M32.47 8.8a4.59 4.59 0 0 0-4.253 2.83 4.6 4.6 0 0 0-.354 1.76 4.61 4.61 0 0 0 2.848 4.243c.558.23 1.155.347 1.759.345a4.6 4.6 0 0 0 3.253-1.338 4.6 4.6 0 0 0 1.355-3.25 4.6 4.6 0 0 0-1.355-3.251A4.6 4.6 0 0 0 32.47 8.8" fill="#ff3d13"/></svg>