<svg width="48" height="48" fill="none" xmlns="http://www.w3.org/2000/svg"><rect x="6" y="6" width="36" height="36" rx="8" fill="#f53c3d"/><path d="M10 14a4 4 0 0 1 4-4h20a4 4 0 0 1 4 4v10a2 2 0 0 1-2 2H12a2 2 0 0 1-2-2z" fill="#fff"/><path d="M10 17.5h9c2 0 1.5-5 2.5-5s.5 5 2.5 5 1.5-6.5 3-6.5 1 6.5 3 6.5h8v.5H10zm0 1h9c2 0 1.5 5 2.5 5s.5-5 2.5-5 1.5 6.5 3 6.5 1-6.5 3-6.5h8V18H10z" fill="#f53c3d"/><path d="M15 29h18m-18 9h18m-22-6h26m-26 3h26" stroke="#b92d2f" stroke-width="1.5" stroke-linecap="round"/></svg>