<svg width="48" height="48" fill="none" xmlns="http://www.w3.org/2000/svg"><path d="M16.535 38.955c1.875.187 3.29-.773 4.222-1.883.903-1.075 1.519-2.46 1.946-3.724.852-2.523 1.18-5.276 1.18-6.131 0-.324-.072-.655-.112-.835a14 14 0 0 0-.212-.814 38 38 0 0 0-.723-2.21 55 55 0 0 0-2.477-5.848c-.996-1.99-2.212-4.033-3.57-5.455-1.248-1.309-3.39-2.833-5.801-1.627-1.214.606-1.887 1.746-2.27 2.785-.396 1.07-.596 2.329-.676 3.627-.16 2.608.145 5.763.741 8.793.597 3.03 1.512 6.071 2.648 8.436.565 1.177 1.224 2.271 1.988 3.12.74.82 1.779 1.632 3.116 1.766Zm14.812 0c-1.874.187-3.29-.773-4.222-1.883-.903-1.075-1.519-2.46-1.946-3.724C24.327 30.825 24 28.072 24 27.217c0-.324.07-.655.111-.835.053-.239.126-.515.212-.814.174-.602.42-1.361.723-2.21a55 55 0 0 1 2.478-5.848c.995-1.99 2.21-4.033 3.568-5.455 1.249-1.309 3.39-2.833 5.803-1.627 1.213.606 1.886 1.746 2.27 2.785.395 1.07.595 2.329.675 3.627.16 2.608-.145 5.763-.741 8.793-.597 3.03-1.512 6.071-2.647 8.436-.566 1.177-1.225 2.271-1.989 3.12-.74.82-1.779 1.632-3.116 1.766Z" stroke="#f99d3b" stroke-width="4"/></svg>