<svg width="126" height="37" fill="none" xmlns="http://www.w3.org/2000/svg"><path d="M60.146 5.66h-3.64v21.36c0 1.777-.64 2.29-1.888 2.29h-1.18V33h1.18c3.708 0 5.528-1.743 5.528-5.98zm-11.09 7.553c0 7.245-.27 10.047-2.056 13.02l3.169 1.846c2.123-3.623 2.528-6.732 2.528-14.866zm14.832 0c0 8.134.405 11.244 2.528 14.866l3.169-1.845c-1.787-2.974-2.056-5.776-2.056-13.02zm55.731-3.74V6.434h-8.952V5h-3.704v1.434H98.01v3.04h14.475v1.98h-7.34v-1.298h-3.705v1.298h-4.116v3.005h22.981v-3.005h-4.116v-1.98zm0 19.361v-3.005h-8.952v-1.127h8.952v-9.22H98.01v9.22h8.953v1.127H98.01v3.005h8.953v1.161h-9.639V33h22.981v-3.005h-9.638v-1.161zm-17.904-9.63v-1.4h5.248v1.4zm14.2-1.4v1.4h-5.248v-1.4zm-14.2 4.576v-1.4h5.248v1.4zm14.2-1.4v1.4h-5.248v-1.4zM74.751 7.527h-3.978v3.688h3.978v1.844h-3.978v3.687h1.012v3.449h-1.012v3.688h3.978v1.741h-3.978v3.688h3.978V33h3.674v-3.688h3.978v-3.688h-3.978v-1.741h3.978v-3.688h-1.011v-3.449h1.01V13.06h-3.977v-1.844h3.978V7.527h-3.978V5h-3.674zM86.718 9.37h2.663c-.068 1.4-.371 1.81-1.214 1.81v3.687c3.034 0 4.854-1.741 4.854-5.975v-3.21h-9.607V33h3.304v-2.663L87.998 33c.675-.615 1.281-1.23 1.787-1.878A11.7 11.7 0 0 0 91.774 33l1.584-3.312c-.674-.478-1.213-1.025-1.719-1.605 1.45-3.21 1.72-7.103 1.72-12.43h-6.641zM75.425 20.195v-3.449h2.326v3.449zm14.225 4.063a17.6 17.6 0 0 1-.54-2.902l-2.392.683V19.34h3.606c-.1 1.98-.303 3.552-.674 4.917m-2.932-1.536c.202 1.605.539 3.415 1.213 5.156a9.6 9.6 0 0 1-1.213 1.468z" fill="#333"/><rect width="37" height="37" rx="7" fill="#b14b43"/><path fill="#fff" d="M8 8h11v3H8zm12-2h9v3c0 3-1 5-4 5v-3c.5 0 1-1 1-2h-6zm0 9h9v3c0 7-1 9.5-4.5 12-.5-1.5-.656-2-1-3 2.5-2.5 2.5-7 2.5-9h-6zM8 13h11v3H8zm0 6h11v3H8zm0 5h11v3H8z"/><path fill="#fff" d="M15 5v10h-3V5zm8 4v21h-3V9z"/><path d="M24.5 20.5c1 3.5 3.5 6 5 7.5L28 30c-2.5-2-5-6.5-5.5-9zM15 21v9h-3v-9z" fill="#fff"/><path d="M12.5 13v9H10v-9zm4.5 0v9h-2.5v-9z" fill="#fff"/></svg>