<svg width="72" height="32" fill="none" xmlns="http://www.w3.org/2000/svg"><path fill-rule="evenodd" clip-rule="evenodd" d="M63.799 10.483c.002.028.022.045.049.048q.066.004.132.004h1.913q.229 0 .45-.05a2.1 2.1 0 0 0 1.607-2.51 2.09 2.09 0 0 0-2.332-1.629c-1.054.14-1.816 1.022-1.823 2.091-.005.644-.001 1.289 0 1.933q-.001.056.004.113M33.483 23.15c-.535.002-3.564.01-4.44.006a6.7 6.7 0 0 1-2.017-.33.066.066 0 0 0-.082.036l-1.884 4.08a.07.07 0 0 0 .029.085 3.3 3.3 0 0 0 1.303.327c.316-.002.291.01.607.01l4.61-.01c.027 0 .05-.016.06-.04l1.875-4.07a.066.066 0 0 0-.061-.094M9.938 10.562h-3.9c-.047 0-.13 0-.175.007-.021.003-.025.013-.028.02a2 2 0 0 0-.023.21q-.045.633-.093 1.265l-.093 1.152-.092 1.208-.097 1.246-.095 1.265-.093 1.17c-.02.253-.043.504-.056.756-.031.632-.09 1.024-.355 1.598-.069.15-.087.11.007.297.122.24 1.796 4.009 2.075 4.58.02.041.029.053.043.053.021 0 .087-.066.125-.114.388-.494.706-1.03.977-1.595.396-.822.688-1.681.912-2.564q.245-.955.37-1.933c.036-.288.055-.578.077-.867l.16-2.058.143-1.812c.034-.44.064-.881.098-1.322l.136-1.699.06-.774c.006-.074-.005-.085-.083-.089M25.01 20.46c-.265-.574-.324-.966-.356-1.598-.012-.252-.036-.503-.055-.755l-.093-1.17-.095-1.266-.097-1.246q-.045-.605-.092-1.208l-.094-1.152c-.032-.421-.06-.844-.093-1.265a1.3 1.3 0 0 0-.025-.216c-.011-.029-.138-.02-.2-.02q-1.893-.002-3.787-.001h-.114c-.078.004-.088.015-.082.09l.06.773.135 1.699c.035.44.065.881.099 1.322q.07.906.143 1.812l.16 2.058c.022.29.041.58.077.867q.125.978.37 1.933c.224.883.516 1.742.911 2.564.272.564.59 1.101.978 1.595.038.048.096.135.126.129.015-.003.018-.02.033-.05.249-.502 1.96-4.354 2.084-4.598.094-.187.075-.148.007-.297m10.172-2.405h-2.298a.332.332 0 0 1-.305-.468l3.102-6.915a.066.066 0 0 0-.061-.093l-3.47-.007a.39.39 0 0 1-.358-.551l2.31-5.149a.066.066 0 0 0-.062-.093h-4.11a.07.07 0 0 0-.06.04l-2.44 5.447c-.249.497-.487.998-.702 1.51a8 8 0 0 0-.35.96 1.4 1.4 0 0 0-.052.505c.035.434.232.766.604.994q.162.1.341.161c.283.098.572.152.872.152h1.554c.061 0-1.54 3.506-1.828 4.186a9 9 0 0 0-.37 1.01c-.043.148-.066.3-.059.454.023.461.22.812.606 1.047q.171.104.36.168.432.15.891.147h4.253l.118-.001q.042-.001.062-.04l1.514-3.37a.066.066 0 0 0-.061-.094M16.922 5.052l-3.976.002a.085.085 0 0 0-.086.084c-.002 1.002-.03 10.664-.03 15.54v2.451c0 .756-.706.689-.737.689h-1.947c-.107.003-.116.01-.108.125.006.096 1.227 2.8 1.464 3.325a.15.15 0 0 0 .136.089c.412.005 2.02.022 2.47-.037a3.4 3.4 0 0 0 1.154-.348c.787-.413 1.293-1.105 1.567-2.015.138-.455.197-.93.197-1.405.004-3.018.002-6.037.002-9.055 0-2.884-.017-8.6-.02-9.36a.085.085 0 0 0-.085-.085m31.044 18.166c-.002-.038-.026-.057-.061-.058l-.17-.002h-3.692c-.126-.002-.126-.003-.129-.127V10.755c0-.19-.013-.187.185-.185h2.272c.208 0 .196.012.196-.193V6.569c0-.217.018-.2-.208-.2h-9.22c-.17 0-.198-.017-.198.192v3.808c0 .216-.017.2.208.2h2.253c.197 0 .184-.009.185.186v12.181c0 .249.019.222-.225.222-.976 0-2.922-.007-3.436 0-.127.002-.158.08-.158.08l-1.837 3.999s-.037.067-.02.095.035.022.153.022c.673 0 3.034.005 4.456.005h9.354c.078-.004.09-.016.094-.087q.002-.047.001-.095v-3.846q0-.057-.003-.113m11.004-9.036c-.002.035-.02.06-.056.064a1 1 0 0 1-.113.006c-.612 0-1.909.005-2.52.005q-.047 0-.095-.003-.055-.006-.06-.06-.002-.075-.002-.152L56.1 10.76c-.002-.19-.014-.186.183-.186.416.001 1.518-.005 1.935-.005a1 1 0 0 1 .317.04c.26.084.409.266.433.537q.005.066.003.132zm8.941 3.276c-.223-1.176-.845-2.065-1.907-2.632-.727-.388-1.508-.565-2.328-.586-.158-.004-.316 0-.474-.001-.103-.001-.106-.007-.11-.106v-2.776c0-.348-.017-.694-.065-1.04a4.8 4.8 0 0 0-.403-1.394 4.04 4.04 0 0 0-1.785-1.872 5.7 5.7 0 0 0-2.632-.68c-.404-.008-1.494.003-1.898.002-.182 0-.18.01-.18-.172V4.903c0-.038-.005-.065-.027-.087s-.092-.017-.092-.017H52.01s-.043-.001-.061.018a.08.08 0 0 0-.022.061v1.287q0 .075-.003.151c-.002.037-.026.056-.062.057q-.075.003-.151.002h-2.348q-.075-.001-.152.001c-.058.003-.074.02-.077.083q-.002.066 0 .132v3.77c-.001.237-.012.214.214.214h2.405c.217 0 .19.337.19.337l-.003 2.842v.182s.01.309-.158.309H47.88c-.178 0-.158.217-.158.217v3.806s-.028.179.168.179h3.838c.216 0 .2-.016.2.208v8.496c0 .232-.018.213.216.213h3.768c.235 0 .215.019.215-.213v-8.61c.003-.076.016-.09.087-.093q.075-.002.151 0c.821 0 2.328-.006 3.148-.006h2.822c.256 0 .502.05.733.16.452.214.686.58.724 1.073.01.12.008.24.008.36v2.762c0 .681-.282.967-.868.967h-3.21c-.06.003-.074.02-.072.084.001.057 1.234 2.854 1.485 3.407l.012.027a.12.12 0 0 0 .105.07h.048c.238.005.784.012 1.3.006.393-.005 1.362.01 1.753-.025a5.4 5.4 0 0 0 1.077-.2c1.552-.472 2.565-1.836 2.566-3.458l.001-5.219c0-.336-.023-.668-.086-.998" fill="#ff2442"/></svg>