<svg width="48" height="48" fill="none" xmlns="http://www.w3.org/2000/svg"><path d="M35 14c-3 0-5.5 2-6.156 6C33.5 20 35 15.5 35 14" fill="#383e6f"/><path fill-rule="evenodd" clip-rule="evenodd" d="M31.5 32.781c2-.5 6.5-1.281 8.281 0 2.587 0 4.604-9.052 3.719-11.281-.55-1.383-2.428-1.857-3-2C38.5 19 29 20 28 21c-1.225 1.837.517 12.527 3.5 11.781m-.5-9.45V25c1.396-.167 3.9-.5 5.5-.5 2 0 2 2.5 1 2.5s-5.5.344-6 .5c-.25.078-.5 1 0 2 2.5 0 4.5 0 7.5-.156.5-1.844 1-5.344.5-6.844-1.146-.536-6.5 0-8.5.83Z" fill="#383e6f"/><path d="M8.5 23.5c-1 1-3.75 2.5-4 2-.132-.264 1.895-3 3-5.5.988-2.236.881-4.19 1.5-4.5.906-.453 3 1 3 2s-.523 1.936-1.5 3.5c4-1.5 4.672-.5 4.672 0 0 .24.537 1.935-3.172 2.5V25c0 .5.5 1 .5 1H9s.5-.5.5-1v-1.5c-.316.01-.649 0-1 0" fill="#383e6f"/><path d="M17.5 22.5c-1 1-3.244 3.085-3.494 2.585-.132-.264.89-2.584 1.994-5.085.988-2.236.69-4.381 1-5 .5-1 3.5 0 3.5 1s-.517 2.436-1.494 4c4-1.5 4.994-1 5.494-.5s.709 2.435-3 3V31s0 2.5-2 2.5-3.767-2.84-3.5-3h2.5v-8c-.316.01-.649 0-1 0M9 26.297h3.5c-.5.32-.5 1.484 0 1.82H9c.5-.5.5-1.5 0-1.82m0 2.084h3.5C11.934 29.5 11.934 31 12.434 32c-.5 1-3 1-3.5 0 .5-1 .5-2.5.066-3.619" fill="#383e6f"/></svg>