<svg xmlns="http://www.w3.org/2000/svg" viewBox="0 0 128 40.9"><defs><style>.cls-1{fill:#1a5aa9;fill-rule:evenodd}</style></defs><g id="_图层_1" data-name="图层_1"><path class="cls-1" d="M16.1 13.2c-1.4 2.2-2.1 4.7-2.1 7.2 0 2.7.8 5.1 2.1 7.2v-1.4c-.9-1.8-1.4-3.8-1.4-5.8 0-2.1.5-4.1 1.4-5.8zm.5 14v1.2c-.2-.2-.4-.5-.5-.7v-1.4c.2.3.3.6.5.9m0-14.7v1.2c-.2.3-.4.6-.5.9v-1.4c.2-.3.3-.5.5-.7m.2 15v1.2l-.2-.2v-1.2s.1.2.2.3Zm0-15.2v1.2s-.1.2-.2.3v-1.2l.2-.2Zm.6 16v1.1c-.2-.2-.4-.5-.6-.7v-1.2c.2.3.4.6.6.8m0-16.8v1.1c-.2.3-.4.5-.6.8v-1.2c.2-.2.4-.5.6-.7m.3 17.2v1c0-.1-.2-.2-.3-.3v-1.1c0 .1.2.2.3.3Zm0-17.5v1c0 .1-.2.2-.3.3v-1.1c0-.1.2-.2.3-.3Zm.4 17.9v1c-.1-.1-.3-.2-.4-.4v-1c.1.1.2.3.4.4m0-18.2v1l-.4.4v-1c.1-.1.2-.3.4-.4m.1 18.3v1l-.1-.1v-1s0 .1.1.2Zm0-18.5v1l-.1.2v-1h.1v-.1Zm0 18.6v1zm0-18.6v1zm.1 18.6v1zm0-18.6v1zm.1 18.7v1h-.1v-1.1h.1zm0-18.8v1l-.1.1v-1zm0 18.8v1zm0-18.9v1-.9ZM19 30v.9c-.2-.2-.4-.3-.6-.5v-1zm0-20v.9l-.6.6v-1c.2-.2.4-.4.6-.5m1.7 21.2v.8c-.6-.3-1.1-.7-1.6-1.1V30c.5.4 1 .8 1.6 1.2m0-22.3v.8c-.6.4-1.1.8-1.6 1.2V10c.5-.4 1.1-.8 1.6-1.1m.2 22.5v.8h-.2v-.9h.2Zm0-22.6v.8h-.2v-.7h.2Zm.8 23v.8c-.3-.1-.5-.3-.8-.4v-.8c.3.2.5.3.8.4m0-23.4v.8c-.3.1-.5.3-.8.4v-.8c.3-.1.5-.3.8-.4m.1 23.4v.8zm0-23.5v.8-.7Zm1.4 24.1v.7c-.5-.2-1-.3-1.4-.6v-.8c.5.2.9.4 1.4.6Zm0-24.6v.7c-.5.2-1 .4-1.4.6v-.8c.5-.2.9-.4 1.4-.6Zm1.5 25.1v.7c-.5-.1-1-.2-1.5-.4v-.7c.5.2 1 .3 1.5.4m0-25.5v.7c-.5.1-1 .2-1.5.4v-.7c.5-.2 1-.3 1.5-.4m.7 25.6v.7c-.3 0-.5 0-.7-.1v-.7c.2 0 .5 0 .7.1m0-25.8v.7c-.3 0-.5 0-.7.1v-.7c.2 0 .5 0 .7-.1m.8 25.9v.7h-.7v-.7zm0-25.9v.7h-.7v-.7zm.7 25.9v.7h-.7v-.7zm0-26v.7h-.7v-.7zm1 26v.7H27v-.7zm0-26v.7H27v-.7h1Zm.9 26v.7h-.9v-.7zm0-25.9v.7h-.9v-.7zm.5 25.8v.7h-.6V33zm0-25.7V8h-.6v-.7zm.6 25.6v.7h-.5v-.7zm0-25.6V8h-.5v-.7zm0 25.6v.7zm0-25.5v.7zm.8 25.3v.7c-.3 0-.5.1-.8.2v-.7c.3 0 .5-.1.8-.2m0-25.2v.7c-.3 0-.5-.1-.8-.2v-.7c.3 0 .5.1.8.2m2.6 24.2v.8c-.8.4-1.7.7-2.6 1v-.7c.9-.2 1.8-.6 2.6-1Zm0-23.2v.8c-.8-.4-1.7-.8-2.6-1v-.7c.9.2 1.8.6 2.6 1Zm.5 22.9v.8c-.2 0-.3.2-.5.2v-.8c.2 0 .3-.2.5-.3Zm0-22.7v.8c-.2 0-.3-.2-.5-.3v-.8c.2 0 .3.2.5.2Zm.9 22.1v.8c-.3.2-.6.4-.9.5v-.8l.9-.6Zm0-21.5v.8l-.9-.6v-.8c.3.2.6.4.9.5Zm1 20.7v.9c-.3.3-.7.5-1 .7v-.8c.4-.2.7-.5 1-.8m0-20v.9c-.3-.3-.7-.5-1-.8v-.8c.3.2.7.5 1 .7m.3 19.8v.9s-.2.1-.3.2V30s.2-.2.3-.2m0-19.6v.9s-.2-.2-.3-.2V10s.2.1.3.2m.4 19.1v1c-.2.1-.3.3-.5.4v-.9zm0-18.6v1l-.5-.5v-.9c.2.1.3.3.5.4m.2 18.5v1h-.1v-.8l.1-.1Zm0-18.4v1l-.1-.2v-1l.1.1Zm.3 18v1l-.3.3v-1c.1-.1.2-.3.3-.4Zm0-17.7v1c-.1-.1-.2-.3-.3-.4v-1l.3.3Zm.8 16.8V29c-.2.3-.5.5-.7.8v-1c.3-.3.5-.6.7-.9m0-16V13c-.2-.3-.5-.6-.7-.9v-1c.2.3.5.5.7.8m0 17.1v-1.1c1.6-2.2 2.4-4.7 2.4-7.4s-.8-5.2-2.4-7.4V12c2 2.4 3.1 5.4 3.1 8.5 0 3.2-1.2 6.2-3.1 8.5"/><path class="cls-1" d="M38.9 22.4h-.6l-.8.2v-.2l.6-.2-.5-.3v-.2l.8.5h.6v.3Zm-.3 1.2-1.1-.3v.3h-.3l.2-.8h.2v.4l1.1.3v.2Zm-.3.9L37 24v-.2l1.3.5zm-.9 1v-.2h.3l.1-.1V25l-.1.1-.2.2h-.3s-.1 0-.2-.1v-.4c0-.1.1-.2.2-.2h.3v.2h-.2v.3s.1 0 .2-.1l.2-.2h.4s.1 0 .2.1v.4c0 .1-.1.2-.2.2h-.4Zm-.8.8V26h-.1v.1c0 .1.3.3.3.3Zm.5.6-1.2-.7.2-.4s0-.1.2-.2h.4l.2.2v.2h.7l-.1.2H37l.5.3v.2h-.1Zm-.8 1.1-1.1-.8.5-.6h.2c0 .1-.3.6-.3.6l.2.2.3-.4h.2c0 .1-.3.6-.3.6l.3.2.4-.5h.2c0 .1-.5.8-.5.8Zm-.7.8-1.2-.7.2-.2.9.5-.5-.9.2-.2.7 1.2-.2.2Zm-.8.7-.9-1h.2c0-.1.9.9.9.9h-.2zm-1 .8-.8-1.1h.2c0-.1.9.4.9.4l-.5-.7h.2c0-.1.8 1 .8 1h-.2c0 .1-.8-.4-.8-.4l.5.7h-.2v.1Zm-2-.5h.2l.3.5c0 .1 0 .2.1.2h.2v-.4l-.4-.7h.2l.3.5c0 .1.1.2.1.3v.4s0 .1-.2.1h-.4l-.1-.1s-.1-.2-.2-.3l-.3-.6Zm-2.1 1.6v-.2h.4v.7s-.1 0-.2.1h-.3s-.2-.1-.2-.2-.1-.2-.1-.3v-.4c0-.1 0-.2.1-.3 0 0 .1-.1.2-.1h.3s.1.1.2.3h-.5s-.2 0-.2.2v.3c0 .2 0 .3.2.3h.3v-.3h-.3Zm-1.8.8v-1.3h.1l.5.9v-.9h.1v1.3h-.1l-.5-.8v.9h-.1Zm-1.4-.7v.4s.1.1.2.1c0 0 .2 0 .2-.1v-.6s-.1-.1-.2-.1c0 0-.2 0-.2.1v.3Zm-.2 0v-.3s0-.1.1-.2l.1-.1h.2c.1 0 .3 0 .4.2 0 .1.1.3.1.5s0 .4-.2.5c0 .1-.2.2-.4.2-.1 0-.3 0-.4-.2 0-.1-.1-.3-.1-.5Zm-1 .5.2-1.1h-.3v-.3h.8v.4h-.3l-.2 1.1h-.2Zm-1.4-1.1v.4c0 .1 0 .1.2.2h.2s.1-.2.2-.3v-.4s0-.1-.2-.2h-.2s-.1.2-.2.3m-.2 0c0-.1 0-.2.1-.3 0 0 0-.1.1-.2h.4c.1 0 .3.1.3.3v.5c0 .2-.2.4-.3.4s-.3.1-.4 0c-.1 0-.3-.1-.3-.3v-.5Zm-.8-.2v-.5l-.3.4h.3zm.1.6h-.2v-.4l-.4-.2-.2.2H22l.9-1.2h.2l-.2 1.5Zm-1.4-.7.7-1.2h.2c0 .1-.7 1.3-.7 1.3h-.2zm.1-1.5h.2c0 .1-.5.8-.5.8s-.1.2-.2.2h-.4s-.1-.1-.1-.2c0 0 0-.2.1-.3h.2v.3h.1s.1 0 .1-.2l.5-.7ZM19 27.9l.2-.2.3.3-.4.4h-.2s-.2 0-.2-.1c0 0-.1-.2-.1-.3v-.3c0-.1.1-.2.2-.3 0 0 .2-.2.3-.2h.3s.1 0 .2.1c0 0 .1.2.1.3s0 .2-.1.3h-.2v-.5s-.1-.1-.2 0c0 0-.2 0-.3.2-.1.1-.2.2-.2.3v.2h.3c0-.1-.2-.3-.2-.3Zm-1.6-1.3 1.1-.8v.2c.1 0-.4.9-.4.9l.7-.5v.2c.1 0-1 .8-1 .8v-.2c-.1 0 .4-.8.4-.8l-.7.5-.1-.2Zm-.3-.6 1.2-.7v.2c.1 0-1.1.7-1.1.7s-.1-.2 0-.2Zm.9-1.2v.2l-.7.4h-.4s-.1 0-.2-.2v-.3s.1-.2.3-.2v.3h.2l.8-.4Zm-1.6-.4 1.3-.5v.2l-1.2.5v-.2Zm-.4-1.2 1.3-.4.2.7h-.2l-.1-.5h-.3l.1.6h-.2l-.1-.4h-.4l.2.7h-.2l-.2-.7Zm.9-1.3h-.3v.4h.1V22Zm-.5 0H16v.3h.1v-.4Zm.7-.3v.7h-.5v.2h-.5v-.6l1.3-.2Zm18.6-6v.4-.6.3Zm.3.2v.2h-.2v-.4.2Zm0-.7v.1-.2Zm.4.3s-.2-.1-.3-.2H36c0 .2.2.2.3.2zl-.3.2v.2l.1-.2s0-.2.1-.2Zm0-.3V15Zm0-.3c-.2 0-.4 0-.4-.1h.2-.2v.1zm0-.2h-.1zm.2.9v.2h.1Zm0-.2h-.1zm0-.1h-.1Zm0-.4h-.1zm0-.2h-.1zm0 .8h.2Zm0 .3v-.2h.1v.1h-.2Zm.3-.5h-.1Zm0-.2h-.3.2Zm0-.3h-.2zm0-.6v.3h-.1v-.1s.1-.2.1-.3Zm.8.5v-.1zs-.2.2-.2.1.3-.5.2-.5c0 0-.1.3-.2.3v.1h-.1.1v.1h.1l.2.2-.3-.2s-.1 0-.2-.1v.1c0 .2.2.3.3.3h.1v-.1l-.1-.2v-.1h.4-.6v-.2s.4.2.4 0v-.1h-.4v-.1h.4v-.1Zm0-.1h.4v-.4.1h-.5Zm0 .7h.5L38 15s-.3-.2-.4-.3v.1l.4.2v.1h-.5Zm-4.4-2.8c-.2.2-.4.2-.6.2.1 0 .3 0 .4-.1h.2Zm.5-.3v.2h-.1c-.1 0-.2 0-.4.1.1-.2.3-.3.5-.4Zm.9-.8v.3l-.2.2h.2v.1h-.2l-.4.3v.1c.2.3.2.4.4.5h.2-.3s-.2-.2-.1-.3c0 0 0-.4-.2-.4H34v-.2c.1 0 .2-.1.2-.2v-.2s.1.1.3.2c0 0 .4-.2.5-.4Zm0 .3v-.4.3s0 .1-.2.2Zm0 .4c0-.1 0-.1.1-.1 0 0 .1 0 0 .1h-.2Zm-5.4-1.5c-.1 0-.3-.2-.4-.2 0 0 .2.2.3.2zm0-.3v.2-.1Zm0-.4v.2h-.1v-.2l.1.2Zm0 .3v-.2.1Zm0 .3v-.2zm.6.4v.2s-.2-.2-.3-.2c0 0-.2-.2-.3-.2h.2s.2.2.3.2Zm0-1.1v.5-.2s-.1-.1-.1-.2c0 0 .1 0 .1-.2v.4-.2l.2-.4v-.1Zm0-.7v.2h-.1s.2 0 .3-.1Zm0 1.8v.2zm0-1v.6-.5Zm0-.2v.1zm0-.6v.2zm0 1.4v-.6c.1-.2.3-.3.4-.3s0 0 0 .1l-.1.3v.5l-.1-.1s.1-.2.1-.3v-.2l.1-.3s-.3 0-.3.1v.1s.1 0 .1.2l-.2.2v.2Zm0 .6v-.2h.4c-.2 0-.5.2-.5.2h-.1Zm.8-2.3v.2c-.1 0-.3.2-.3.2s.1.1 0 .1H30s.2 0 .2-.2l.2-.2c-.2 0-.3.2-.4.3 0 0-.1 0-.2.1V9c.2-.1.4-.2.6-.2h.1Zm0 .2v.2Zm-5.3.8v.3s-.2-.2-.3-.2c0 0 .3.2.3.3v.1c0 .1 0 .2-.2.3l-.2.2s-.1 0-.2.1c.5-.3.5-.6.6-.6zm0-.4s0 .2-.1.3c0 0-.2 0-.3.1l-.2.1s.1-.2.2-.2c0 0 .1-.2.2-.2 0 0 .2 0 .2-.1m0-.5c0 .1 0 .1-.1.2h-.1s-.1 0-.2.1c0 0 .2-.2.2-.3s-.2-.1-.2-.2h.4c.1 0 0 .1.1.2Zm0 .3V9h.3-.1s-.2 0-.2.1m0 .2s.2 0 .3.1h-.1v-.1Zm.8 1.3c0 .2-.1.2-.1.2-.2 0-.2 0-.4-.2 0 0 0-.3-.2-.3v-.5s.2 0 .2.1c0 .2-.1.3-.1.3s.4.3.5.3h.2Zm0 .1c0-.1 0-.1.1 0h.2-.2Zm-5.5-.2h-.1.2v-.2Zm.2.7v.2h-.1v-.1Zm0-.7v.4-.3Zm0 .3h-.1v.3Zm0 .5v-.4h.1v.1s0 .1-.1.2Zm.8.6h-.1v-.4h-.2v.3s.1.1.2.1v-.2.3h.1zv-.2.1h.1v-.3Zm0-.3c0 .1 0 0 0 0m0 .6v-.3.2Zm.1-.7v.2-.1Zm0 .2v-.2h.1v.1Zm-5 2.6c0 .1-.1.2-.2.2l.1-.1Zm.6.1v.4l-.2-.2s-.2-.1-.3 0v-.2c.1-.2.4 0 .5 0m.3 1.1v.3h-.3l.1-.1.1-.2Zm0-.6v.2h-.1v-.7s0 .2.1.3c0 0 0 .1.2.2Zm0-1.1v.2l-.1-.2zm0 2v-.3h.3v.6-.2l-.1-.1h-.1Zm.4-.5v.2l-.1-.1-.3-.2h.1l.3.2Zm0-1.3v.4l-.3-.3v-.3h.4v.1Zm.1 2.5v.2h.1Zm0-1.1v.2-.3h.1Zm0-.7v.1zm0-.8v.4-.5h.1Zm0 2.6v.3-.2Zm0-1.1v.3-.2Zm0-.8q0 .15 0 0v-.2Zm0-.5v.4zm.1 2.3v.3zm0-1v.9zm0-1.3v.6zm.1 1.4v1.3h-.1v-1.2h.1Zm0-1.7v.8-.6s0-.1.1-.1Zm0 2.5v.4-.7zm0-.8v.3zm0-1.7v.9-.8Zm0 .9v-.9V15s-.2-.4-.3-.4Zm0 1.1v-.3h.1v.2h-.2Zm0 .9v-.4s.1.2 0 .3Zm.6-2v.4h-.1v-.3Zm0 .4.1.3v-.7h-.2v.3Zm-.9 5.6v.4zm0-.8v.4zm.1 1.6v.4zh.1Zm0-.8v.4h-.1v-.4zm0-.8v.4h-.1v-.4zm0-.8v.4h-.1v-.4Zm0 2.4v.4zm0-.8v.4zm0-.8v.4zm0-.8v.4zm.1 2.4v.4zm0-.8v.4zm0-.8v.4zm0-.8v.4zm0-.6v.2zm.1 3.8v.4-.3h.1Zm0-.8v.4h-.1v-.4zm0-.8v.4h-.1v-.4zm0-.8v.4h-.1v-.4zm0-.8v.4h-.1v-.4zm0-.8v.4h-.1v-.4Zm0 4v.4zm0-.8v.4zm0-1.9v1.6-1.7Zm0-.5v.4zm0-.8v.4zm.6-1.5v1.8q-.45 1.8 0 3.6v1.9h-.2s-.1-.2-.2-.3h.3c0-.1-.1-.5-.1-.5h-.3s0-.1-.1-.3h.3l-.1-.5h-.2v-.3h.1v-3.5h-.1v-.4h.2l.1-.3h-.3c0-.2 0-.4.1-.5h.3c0 .1.1-.3.1-.3h-.3c0-.2.1-.4.2-.5h.2zm0-.5v.1zm1.7 9.4v1.2l-.3-.3.2-.2-.3-.3-.3.2c0-.1-.2-.2-.3-.3l.3-.2-.2-.3-.3.2c0-.1-.2-.2-.2-.3l.3-.2-.2-.3-.3.2c0-.1-.1-.2-.2-.3s.3-.2.3-.2l-.2-.4h-.1v-1.8c.3 1.3.8 2.4 1.6 3.4Zm0-11.6v1.1c-.8 1-1.4 2.2-1.6 3.4v-1.8l.2-.3h-.2v-.3s0-.2.1-.3l.3.2.2-.3-.3-.2c0-.1.1-.2.2-.3l.3.2.2-.3-.3-.2c0-.1.2-.2.3-.3l.2.2.3-.3-.2-.2c0-.1.2-.2.3-.3m.2 11.8v.7l-.2.2v-1.2s.1.2.2.3m0-11.7v.7s-.1.2-.2.3v-1.1l.2.2Zm.8 13.4v.2Zm0-.9v.6l-.2-.2-.2.3c-.1 0-.2-.2-.3-.3l.2-.2-.3-.3v-.7c.2.3.5.5.8.8m0-13.2v.6c-.3.2-.5.5-.8.8v-.7l.2-.2-.2-.2c0-.1.2-.2.3-.3l.2.2zm0-.4v.3l-.2-.2s.1 0 .2-.1m.1 14.4v.4-.3Zm0-.7v.6-.7Zm0-13.8v1-.8Zm1.4 14.8v.9s-.2 0-.3-.1l.2-.3-.3-.2-.2.3c-.1 0-.2-.1-.3-.2l.2-.3-.3-.2-.2.3h-.1v-1c.4.4.9.7 1.4 1Zm0-15.7v.9c-.5.3-1 .6-1.4 1v-1l.2.3.3-.2-.2-.3c.1 0 .2-.2.3-.2l.2.3.3-.2-.2-.3c.1 0 .2-.1.4-.2Zm1.5 16.4v.8h-.3V29c.1 0-.3-.1-.3-.1v.3c-.2 0-.4 0-.5-.2v-.3c.1 0-.2-.2-.2-.2v.3h-.2v-.9c.5.3 1 .5 1.5.7Zm0-17v.8c-.5.2-1 .4-1.5.7v-.9.3c.1 0 .5-.2.5-.2v-.3l.2-.2v.3c.1 0 .5-.1.5-.1v-.3s.1 0 .3-.1m.7 17.2v.8h-.3v-.3l-.3-.1v.3h-.2v-.8c.2 0 .5.2.7.2Zm0-17.3v.8c-.3 0-.5.1-.7.2v-.8.3l.5-.1v-.3h.3Zm.8 17.4v.8H26v-.3h-.3v.3h-.2v-.8c.2 0 .5 0 .7.1Zm0-17.6v.8c-.2 0-.5 0-.7.1v-.8.3h.4v-.4zm.7 17.7v.8h-.1v-.3h-.4v.3h-.2v-.8zm0-17.7v.8h-.7v-.8h.1v.3h.4v-.4h.2Zm1 17.7v.8h-.3v-.3h-.4v.3h-.3v-.8h.9Zm0-17.7v.8H27v-.8h.2v.3h.4v-.3h.4Zm.9 17.6v.7c-.1.1-.3.2-.4.2v-.3H28v.3h-.1v-.8c.3 0 .6 0 .9-.1m0-17.2v.5c-.3 0-.6 0-.9-.1v-.8.3h.4v-.3h.4v.3Zm0 18c0-.1 0 0 0 0m.5-.9v.8h-.2v-.3h-.4v-.5c.2 0 .4 0 .6-.1Zm0-17.3v.8c-.2 0-.4 0-.6-.1v-.5h.3v-.3h.3Zm.6 17.1v.5h-.4v.4h-.2v-.8c.2 0 .4 0 .5-.2Zm0-17v.8c-.2 0-.4-.1-.5-.2v-.8h.1v.3l.3.1v-.3Zm0 17v.6zm0-17v.8zm.8 16.7v.8-.3l-.5.1v.3s-.1 0-.3.1v-.8c.3 0 .5-.2.8-.3Zm0-16.4v.9c-.3-.1-.5-.2-.8-.3v-.8c.1 0 .2 0 .4.1v.3c-.1 0 .3.1.3.1v-.3h.2Zm2.6 14.6v.8l-.3.2.2.3c-.1 0-.2.2-.3.3l-.2-.3-.3.2.2.3c-.1 0-.2.2-.3.2l-.2-.3-.3.2.2.3c-.1 0-.2.1-.4.2v-.3c-.1 0-.5.2-.5.2v.3l-.2.2v-.9c1-.4 1.9-1 2.6-1.8Zm0-12.9v.2c-.1 0-.4-.3-.4-.3l.2-.2c-.1 0-.2-.2-.3-.2l-.2.3-.3-.2.2-.3c-.1 0-.2-.1-.3-.2l-.2.3-.3-.2.2-.3c-.1 0-.2-.1-.4-.2v.3c-.1 0-.5-.2-.5-.2V12l-.2-.1v.9c1 .4 1.9 1 2.6 1.8v-.9Zm.5 12.4v.7l-.2.2.2.2-.3.3-.2-.2v-.8l.5-.5Zm0-11.7v.7c-.1-.2-.3-.3-.5-.5v-.9c.1 0 .2 0 .3.2l-.2.2.3.3Zm.9 10.4v1c-.1 0 0 0 0 0v.3h-.1c0 .1-.3 0-.3 0l-.3.3.3.2c0 .1-.2.2-.3.3l-.2-.2v-.6c.3-.4.7-.8.9-1.3m0-9.8v.2h-.2c0 .1.2.4.2.4v.9c-.3-.5-.6-.9-.9-1.3v-.7l.2-.2.3.3-.2.2.3.3.3-.2.2.2Zm0 .2v-.2zm0 11.1v-.3h.1c0 .2 0 .2-.1.3m1-4.3V24h-.2l-.2.3h.3c0 .3-.1.4-.2.5l-.3-.2-.2.3.3.2c0 .1-.1.2-.2.3l-.3-.2h-.1v-.7c.5-.9.8-1.8 1-2.9Zm0-5.1h-.2l-.2-.3h.3c0-.3-.1-.4-.2-.5l-.3.2-.2-.3.3-.2c0-.1-.1-.2-.2-.3l-.3.2v.8c.5.9.8 1.8 1 2.9v-2.4Zm0 .4v-.4s.1.2.2.3h-.2Zm.3 6.6c0 .2 0 .3-.1.4h-.1v-.5h.3Zm0-6.3v5.9h-.2l-.1.2v-1.8q.15-1.35 0-2.7v-1.8.2zm0 .5v-.4h.1s0 .2.1.3h-.3Zm0 5.4v-.4h.3c0 .2 0 .3-.1.5H36Zm.4-4.3v.4h-.2v.4h.2v.4h-.2v.4h.2v.4h-.2v.4h.2v.4h-.3v.3h.3v.5h-.3v.2-4.6c0 .1.3 0 .3 0v.4h-.3v.4zm0 .4V19zm0 2.4v-.4h.1v.4Zm.2-1.2v.3h-.1v-.4h.1Zm0-.6v.2h-.1v-.4h.1zm0 .2V20zm0 .7v-.3zm-8.2 6.8v.1zv-.1zm.4-.4h-.2v.2h.4v.4h-.2s-.2 0-.2-.1V27l.2-.1h.2v.2Zm-1.2.1v-.1zv.1zm-.4.4h.2v-.2H27v-.4h.2s.2 0 .2.1v.8l-.2.1H27V28Zm-.8-.1v.1zv-.1Zm0-.2h-.1v-.3h.4v.2s0 .2-.1.2h.1v.3h-.4s-.1-.1-.1-.2 0-.2.2-.2m-.7.5h-.2v-.7s-.1.1-.2.1v-.2h.2l.1-.1h.1zm8.1-3.5v-1.7h.2V22h-.2v-1.3h.2v-.8h-.2v-1.3h.3v.6H34v.2l.3.2V21l-.3.1v.4l.3.2v1.4l-.3.1v1.4h-.1Z"/><path class="cls-1" d="M33.8 18.5v1.2h-.2v.8h.2v1.3h-.2v.8h.2v1.8h-.2V23h-.3v-1.5l.3-.2v-.5h-.3v-1.5l.3-.2v-.2h-.3v-.7h.5Zm-.5 0v.7c-.7.2-1.5.4-2.1.8v-1.5zm-2.6 1.7v-2h.2V20h-.2Zm0-2.2v-1.9l.6 1.4-.5.5zm0-1.9V18h-.8v-3.6zm0 2.2v2s-.2 0-.2.2v-2.1h.2Zm-.8 2.5v-2.5h.2v2.4l-.2.2Zm0-6.4V18v-3.7Zm0 3.9v2.5-2.6Zm0-4V18l-.5-1.1v-2.8h.3c0-.1.2.3.2.3Zm0 4v2.6c-.2.2-.4.3-.5.4v-3zm-.6 6.1v-.9l.3.4v.5z"/><path class="cls-1" d="M29.3 14v2.8l-.5-1.1v-1.5zm0 4.3v3l-.4.4h-.2v-3.4zm0 5.1v.9h-.6V23h.3zm-.5-.7h.2v-.6h-.2zm-.9-1h.9v-3.4h-.9zm0 1h.9v-.6h-.9zm0 1.7h.9v-1.3h-.9zm0-6.4h.8v-4.6h-.8zm0 0v-4.6zm-1 3.7h.9v-3.4h-.9zm0 1h.9v-.6h-.9zm0 1.7h.9v-1.3h-.9zm0-6.4h.6v-4.6h-.6zm-.6 0h.6v-4.6h-.6zm-.1 3.7h.7v-3.4h-.7zm0 1h.7v-.6h-.7zm0 1.7h.7v-1.3h-.7zm0-6.2v-.7zm0-.8v-.7zm0-.8v-.7zm0-.9v-1.9zm0-1.9v1.9h-.7v-1.3c.2-.1.5-.3.7-.5Zm-.8 2.8h.7v-.7h-.7zm0 .8h.7v-.7h-.7zm0 .8h.7v-.7h-.7zm0 3.5h.7v-3.4h-.7zm0 1h.7v-.6h-.7zm0 1.7h.7v-1.3h-.7zm0-10.1v1.3h-.7v-1.1c.2 0 .5 0 .7-.2m-.7 2.3h.7v-.7h-.7zm0 .8h.7v-.7h-.7zm.7.1v.7h-.1l-.6-.3v-.4zm0 .8v3.4h-.7v-1.3l.6-2.1zm-.2 4.4h.2v-.6h-.2zm.2.4v1.3h-.7v-.8l.4-.5h.4Zm-.7-3.8.3-1h-.3zm0-4.8v1.1h-1.5v-.4c.2-.1.7-.6 1.3-.7zm-1 2.1h1v-.7h-1zm0 .8h1v-.7h-1zm1 .1v.4h-.3c0-.1-.1.3-.1.3h-.6v-.7z"/><path class="cls-1" d="M24.7 18.1h-.1l-1.4 4.3v1.5l1.5-4.8V18Zm0 2.2v1.2l-.3-.2zm0 3.2v.8h-.2v-.5zm0 2.8h-.8v-1.6h.8zm.7 0h-.7v-1.6h.7zm.8 0h-.7v-1.6h.7zm.7 0h-.7v-1.6h.7zm1 0H27v-1.6h.9zm.9 0h-.9v-1.6h.9zm.5 0h-.6v-1.6h.6zm.6 0h-.5v-1.6h.5zm0 0v-1.6zm0-1.6h.4v1.6h-.4zm-6.7 1.1v-.4h.2c0 .1-.1.4-.1.4zm0-5.1v-2.4h1l-.8 2.6-.2-.1Zm0-5.5v.4zm0 3.1v2.4l-.5-.3v-2.1zm0 4.2V24l-.4 1.2.4.2v.4c-.2 0-.7 0-1.1-.1l-.4-.2v-.7c.1 0 .6.2.6.2l.8-2.5Zm-1.4-2.6v-1.6h.7v2zm0-1.6v1.6zm0 6.8v.3zm-.1-6.8v1.5l-.5-.3v-1.3h.5Zm27.1 4.3V24c-.2.4-.3 1-.8 1.2-.9.4-2.4-1.6-1.3-2.1.2.1.3.3.5.4.5.1 1-.4 1.5-.8Zm0-2.3v.6c-.2.1-.4.3-.6.2.1-.1.4-.5.6-.9Zm0-2.7v1.2c-.2 0-.5 0-.7-.2l-1.2-1.1v-.1c.4.1.8.2 1.1.3.3 0 .5 0 .7-.1Zm0 3.3c.1-.1.3-.2.4-.3.7-.5 2.1-1.4 1.3-2.5-.3-.4-1-.6-1.6-.5v1.2s.2 0 .2.2c.2.3 0 .9-.2 1.3v.6Zm0 3.1v-1.4l.7-.7c.7-.5 1.5-1.1 1.9-2 .1-.3 0-.7 0-1.1l.2-1.1v-3.9c.1-.6.3-1.6.2-2.5-.2-.9-.5-1.5-1-2-.2-.1-.8-.3-.8-.5.4 0 .7.1 1 .2.5 0 1 0 1.4.2.6.4 1.3 1.7 1 2.9-.2.6-.5 1.1-.8 1.6-.3.7-.4 1.6-.6 2.4v2.5c.1.5.3.9.4 1.4v.5c.1.6.5 1.3-.3 1.7-.4 0-1-.4-1-.7v-.4H51c-.2.1-.4.6-.5.8-.5.7-1.2 1.3-1.6 2.1Zm9.3-3.6v1.5h-.2c-.3.5-.6 1.2-1.1 1.6-.1.1-.5.3-.7.1.2-.4 1-1.3.8-1.8 0-.1-.1-.2-.2-.2-.6 0-1.1.2-1.5 0 .4.1 1.4-.2 1.5-.4l.3-.6h.9Zm0-6.9v.3s-.1 0-.2-.1c-.3.3-.2 1.1 0 1.3h.1v1.5c-.2.1-.4.2-.6.4-.2.3-.2 1-.4 1.3-.5.8-1.2 1.6-2 2.1.3-.8.6-1.6.9-2.5.1-.5-.2-1-.6-.9-.2 0-.4.2-.6.2.3-.4 1.1-.5 1.3-.9.2-.5-.1-1.1 0-1.7.2-1.4 0-2.7.6-3.7.4.1 1.1 1.2 1.3 1.6.1.5-.1.8.2 1.1 0 0 .1 0 .2.1Zm0 3V15h.4c.1-.4 0-.9-.4-1.1v-.3c.2.1.5.3.7.4l.9.3c0 .3-1.4 2-1.6 2.2m0 5.4v-1.5c.4 0 .7-.2.9.2.6.8 0 1.3-.9 1.3m7.6-4.1c-.2.2-.3.5-.4.7 0 .2.2.4.2.7-.3.3-.7.4-1.1.6-.5.3-1 .7-1.4 1-.2 0-.5.2-.7.3-.1 0-.2.2-.3.3.1.3.3.5.4.8.5.3.9-.1 1.1-.4.2-.2 1.9-1.8 2.1-1.9v.8c-.2.1-.5.1-.6.3.2.5.4 1 .8 1.3v-4.5Zm0-1.5v1.4H65c0 .9-.1 1.8-.9 1.8-.5-.3-.4-2.3-.3-2.9 0 0 .2-.1.3-.2.2.1.4.2.6.4.4-.2.7-.4 1-.6Zm0-1.8v.7c-.3.1-.7.3-1 .3-.4 0-1.7 0-1.6-.4h.9c.7 0 1.2-.4 1.8-.7Zm0-1.5v.4h-.2c-.2 0-.3.3-.7.3.1-.3.6-.4.8-.7Zm0-1.8v1.2c-.3-.5-1.4-.9-1.6-1.3h1.6Zm0 2.2v-2.1h.2c.6.2 1.3.6 1.4 1.2.1.7-1 .9-1.6 1Zm1.9 5.8h-.7c0 .3.3.3.4.5.2.3.2.6.3.8v-1.4Zm0-3.8v1c-.2.2-.4.5-.6.7s-.7.4-.8.7.5 0 .5 0v-.2h.8v.4c-.3.5-1.2.7-1.8.8 0 .7 1 3.2-.1 3.4v-5.9c.3-.3.7-.5 1.1-.8.3 0 .5 0 .8-.1Zm0-1.8v.9c-.3 0-.6.2-.9.3s-.7.3-1 .5v-.7c.3 0 .5-.2.8-.3.2-.1.4-.3.6-.4.2 0 .3-.2.5-.2Zm8.1 2.4c.5.1 1.1.7.9 1.5-.1.4-.6.6-.9.9 0 .4.5.8.8 1 .9.7 1.6 1.6 2.7 2.2.4.2 1 .3 1.3.7-.5 0-.9-.1-1.3-.2-.4 0-.7.1-1 .2-.9.2-1.8-.8-2.1-1.3-.5-.6 0-2.1-1.1-2.1-.4.2-.6.7-.9 1-.5.6-1.3 1.1-2.1 1.4-.3.1-.9.5-1.3.3.8-.4 2-1.1 2.5-1.8.3-.3.4-.8.7-1.2.2-.3.6-.5.6-.9-.3-.5-1-1.3-1.4-1.7 1 0 1 1.2 1.7 1.4.4-.3.6-.9.8-1.4Zm1-2.6c1 0 2.1.9 1.1 1.4-.2 0-.5-.3-.8-.2-.2 0-.3.2-.6.2 0-.3.3-.4.4-.6 0-.4-.5-.4-.8-.2-.4.3-.5.9-1 1.1-.4.2-1 .1-1.4.3l-1.3.6s-.1 0-.1-.1c.1-.7.9-.9 1.3-1.2.3-.3.6-.6.8-.9 0 .2-.2.4-.1.5l.1.1c.4.1 1.9-.6 2.2-.8Zm-2.5-4.1c.4 0 2.1.6 2.2.8.2.2 0 .8.2 1 .2 0 .9.1 1.2 0l.6-.3c.4 0 1.1.2 1.1.5-.2.4-.6.2-1.2.4-.4 0-1.9.9-2.2.8.3 0 .6-.3.8-.4v-.2l-.1-.1c-.6-.2-1.2.5-1.7.7-.4.2-.9.3-1.3.3.2-.4 1.7-.8 1.5-1.7-.1-.6-.8-.9-1.1-1.5Zm-6.6 5.2v-.9c.1 0 .3-.1.4-.2.3 0 .6.2.7.4-.3.2-.5.3-.8.5h-.3Zm0 1.9v-1h.7v.4c-.3.1-.5.3-.7.5Zm0 4.2v-1.4c.9.2 1.5 1 1 1.8-.7.2-.9 0-1-.4m16.5.3c-.3 0-.5-.2-.8-.2-.4-.1-.8-.3-1.4-.3v.2c.4.2.9.4 1.3.6.3 0 .6.2.9.2V21Zm0-1.5v1l-.4-1.2c.1 0 .3.1.4.2m0-1.5v.6c-1 .3-1-.7-1.2-1.5 0-.3-.2-.4-.3-.7.3 0 1.1.9 1.4 1.6Zm0 .6v-.6c0 .2.1.4 0 .5Zm0 1.9h.4c0-.2-.2-.7-.5-.9v1Zm2.8 1.6v1c-.2-.1-.3-.3-.4-.3q-.9-.75-2.1-1.2h-.3v-.4c.6.2 1.1.3 1.7.5.4.2.7.4 1.1.6Zm0-2.5v.8-.9Zm0-3.9v.5c-.1.1-.2.2-.3.4 0 .1 0 .1.1.2h.1v1.2s-.1.1-.1.3c0 0 0 .1.1.2v.5c0-.2-.3-.3-.7-.6.2-.4.6-.8.4-1.4h-.3c-.1.4-.4.5-.5.9-.1.7 0 1.5-.3 1.9-1.2-1.2.2-2.5.2-3.8h.1c0 .3-.1.5 0 .7h.2c0-.3.4-.7.7-1Zm0-3.8v1.3c-.4.3-.8.5-1.6.4h-.7c.3-.2.6-.5 1-.7l1.2-.9Zm0 1.2v-1.3c.8-.4 1.5-.8 2.3-1.2.3-.2.5-.5.9-.8.4 0 .7.2.8.5-.2.7-.8 1.2-1.3 1.6-.2.1-.5.4-.5.6 0 .3.5.5.6.6 0 .2 0 .2-.1.3-.6.2-1.2.5-1.7.7.2-.3.7-.4.9-.8.1-.3-.2-.6 0-.9.3-.4.9-.7 1-1.3l-.2-.2c-.6.2-1.6 1.2-2 1.6-.2.2-.4.5-.6.7Zm0 7.4v-.9c0-.3.1-.5 0-.7v-.5h.1v-.4h-.1v-1.2h.1c.3-.1 0-.5 0-.6v-.5c.7-.8 1.9-1.6 2.8-1.4.1.1.2.3.3.4l-.2.5v.5c-.1.4-.2.8-.4 1.1-.2.7-.1 1.3-.3 2.1 0 .6.2 1.6-.3 1.8-.5.1-.8-.5-1-.7.2 0 .3.2.5.1.3-.2.3-.7.4-1 .1-.5 0-1.3 0-2l.3-1.5c0-.4.1-.8-.3-.8q-.9.3-1.5.9c0 .2 0 1.2.1 1.2.2.3.7.2.7.8-.2.4-.6.6-.8 1v1.5l-.2.3h-.3Zm4.4 1.9c-.7.3-1.3.8-1.9 1.2l-.6.3c-.5 0-1.3-.5-1.9-.9v-1c.3.2.6.3 1 .4h.7c.4 0 .9.3 1.4.2.3 0 .9-.3 1.2-.2Zm0-1.2v.1Zm0 .1c1.8-.8 3.4-2.6 4.5-4 .2-.3 1.3-1.4 1.1-1.8-.1-.2-.4-.2-.5-.4v-.3c-.1-.1-.2 0-.4-.2s-.5-.5-.7-.8c.4-.1 1.6.7 2.5.4.4-.1.6-.7.8-1 .5-.9 1-1.9 1.2-3 0-.3-.1-.5-.1-.7.2 0 .4.3.5.4.8 1.1.1 1.9-.4 2.9-.1.2-.4.6-.3.9.7.2 1.9-.9 2.4 0v.1c-.4.2-.9.2-1.4.4-.1 0-.3.2-.5.2-.5.1-.9 0-1.2.3-.4.2-.6.9-.9 1.2-.1.2-.7.8-.6 1.1s.7.5.9.7c.7.6 1.3 1.4 2.3 1.7.5.1 1.3-.1 1.7 0 0 .4-1.3.5-1.6.8-.2.1-.2.3-.4.3h-.1c-1.4-.5-1.7-3.2-3-3.2-1 1.2-2.1 2.2-3.6 2.9l-2.1.9Zm0 1.2c0-.1 0 0 .1 0Zm13.5 1.7v.3c-.1 0-.3-.2-.4-.3h.3Zm0-2.6v.5c0-.2-.2-.3-.2-.5zm0-2.9v.4c-.2.1-.3.2-.5.4-.3.3-.5.6-.8.8h-.3c0-.2-.1-.4-.2-.5v-.2c0-.5.3-.9.6-1.1-.1.4-.4.7-.3 1.2l.1.1c.5 0 .9-.7 1.3-.9Zm0-1.6v.3c-.3.4-.8.8-.9.8.3-.2.6-.7.9-1Zm0-3.2v1.6l-.2-.2v-.6c-.2-.5-.3-.9-.5-1.4l.6.6Zm0 1.6v-1.6q.45.45.6.9c.1.3 0 .8-.3.9-.1 0-.2-.1-.3-.2m0 1.8c.2-.2.3-.4.3-.5s0 0-.1 0c0 0-.1.2-.2.3v.3Zm3.1 7.8v1l-1.7-1c-.4-.2-.9-.3-1.3-.5v-.3c.3.1.5.3.8.4.2 0 .4.1.6.2h.3c.2 0 .4.2.6.3h.8Zm0-4.4v.4c-.6.2-1.3.8-1.8 1-.2.1-.5.4-.9.3-.2 0-.3-.2-.4-.4v-.5c.2.1.3.3.6.2l2.4-.9h.1Zm0-1.7c-.6.2-1.3.3-1.7.2.5.7 1.2.2 1.7 0zm0-2.1v.2c-.2 0-.3.2-.5.2s-.3.1-.5.2c-.7.5-1.4 1.1-2.1 1.6v-.4c.8-.6 1.7-1.2 2.6-1.7.2 0 .3-.1.5-.2Zm0-4c-.2.5-.5 1.1-.6 1.2-.6 0-.5-.7-.7-1.1-.3-.8-.7-2-1.4-2.3-.2.1.2.7.3.9.2.4.5.8.5 1.3 0 .3 0 1 .1 1.4 0 0 .1 0 .2.1l.6-.2h.2s0 .2.1.3c-.4.6-.7 1.2-1.1 1.7s.1 0 .2 0c.4-.4.8-.9 1.2-1.3.1 0 .3 0 .4.2v-2.4Zm0-1.3v.5c-.1-.2-.4-.3-.4-.5zm.8 8.8v.3s-.1 0-.2.1c0 .2 0 .5.2.8v4.6c-.2.1-.5 0-.8 0v-1h.3c.3-.4.4-2.9.2-3.9 0 0-.1 0-.2-.1h-.3v-.4c.1 0 .2-.2.3-.2h.5Zm0-1.8v1c-.2.1-.4.3-.6.4v-.2c.1-.2.3-.3.3-.6-.1-.2-.3-.2-.6-.1v-.2c.3-.1.6-.2.8-.3Zm0-.7v.2-.1Zm0-1.5v.3c-.3.1-.5.2-.8.3v-.2c.3 0 .7-.2.8-.5Zm0-4.5v1.6c-.3.3-.7.5-.7 1 .2.3.5.4.7.3v1.4c0-.3-.2-.6-.4-.7-.1 0-.3-.1-.4-.2v-2.4c.1-.3.1-.7 0-.9v-.5c.2.1.2.4.6.4zm0-.7c-.2 0-.3.1-.4 0 .1-.1.2-.3.4-.5v.4Zm0 2.3c.2-.1.3-.2.4-.4v-.8s-.2-.2-.2-.3h.2v-.2l-.4.2v1.6Zm0 1.7c0-.2.2-.3.4-.4v-.2c-.1 0-.3.1-.4.2zm0 1.6h.3v-.6c-.2-.1-.3-.4-.4-.6v1.2Zm0 1.2c.1 0 .3 0 .4-.1v-.3c-.1 0-.3.1-.4.2zm0 8.2v-4.6c0 .1.1.2.1.3v.6c.2.9.6 2.7 0 3.5 0 0-.1.2-.2.2Zm.4-5.9v.3h-.5v-.3zm0-1.6v.6c-.2.1-.3.2-.5.4v-1h.4Zm0-1.1v.2zm0-1.4v.6zm0-1.6v.2-.1Zm0-2.2v.6-.8.1Zm0-.8v.2zm0-.7s-.3.2-.5.3v-.4c.2-.2.3-.4.5-.6zm0 2.1v-.6.5Zm0 6.3v-.6h.4v.1c-.1.2-.3.4-.4.5m.9.7v1h-.2c-.2 0-.4.4-.7.3v-.1c.2 0 .3-.2.4-.3v-.2h-.3v-.3h.3c.2 0 .4-.2.5-.3Zm0-2.7v.3h-.4c-.1 0-.3.1-.4.2v-.2l.9-.3Zm0-1.6v.6c0 .1-.2.3-.4.3h-.5v-.6h.2c.2-.1.4-.3.6-.5Zm0-1.8v.5c-.3.1-.6.3-.9.4v-.2s.1 0 .2-.1c.3-.2.5-.4.7-.6m0-2.6c-.1.2-.3.3-.4.4 0 .2.2.4.4.6v.4-.1c-.2-.3-.3-.6-.7-.6v-.2c.3-.1.6-.3.9-.4Zm-.5-3.4c.2 0 .3.2.5.3v2.3c-.3.2-.7.3-.9.4v-.7c.3-.4.6-.9.7-1.5 0-.4-.3-.6-.3-.8m.5 3.5c.3-.2.6-.3.9-.4q-.45 0-.9.3Zm0 2.9v-.5c.2-.3.3-.7 0-1.3V12c.4.5.9 1 .8 1.5 0 .3-.4.5-.8.7m0 2c0-.1.1-.2.2-.3h.7v-.2h-.3c-.2-.1 0-.5.3-.9v-.4l-.9 1.2zm0 1.3h.9v-.6c-.3 0-.6.2-.9.3zm1 2v1.2s-.1 0-.2.1h-.8v-1c.2-.1.4-.3.6-.4h.4Zm0-2.6v.6zm0-1.2v.2zm0-1.3v.4-.3Zm0-3.7v.2zm-1-2.6c.4.3.8.6 1 1v.6c-.2.3-.6.6-1 .8V8.2Zm1 6.7v-.4c.5-.8.9-1.6 1.4-2.4.2-.3.9-1.2.9-1.4v-.2h-.3c-.3.1-.5 0-.9.1-.3 0-.7.2-1.1.3.2-.2.4-.3.7-.4h.7c.5-.1.9-.2 1.4-.3h.1c.3 1.8-.7 1.8-1.4 2.7-.3.4-.7.9-1 1.3l-.4.6Zm0 2.7v-.6c.1 0 .3 0 .4-.1.5-.2 1.2-.3 1.5-.8v-.2c-.6 0-1.2 0-1.8.1v-.2h.7c.5-.1 1.3-.4 2-.2.1.1.2.2.2.5-.5.7-1.4 1.4-2.4 1.6h-.5Zm0 3.2v-1.2c.4.1.9.4 1 .6v.1c-.2 0-.5.1-.7.2 0 0-.2.2-.3.2Zm0-11.6v.7-.6Zm1.3 24v-1.2l-1.1-1.7h.7l.7 1.2.7-1.2h.7l-1.1 1.7v1.2zm-2.7 0v-2.4h-.9v-.5h2.3v.5h-.9v2.4h-.6Zm-1.9-2.9h.6v2.9h-.6zm-3 2h.6c0 .1.1.3.2.4.1 0 .2.1.4.1s.3 0 .4-.1c0 0 .1-.2.1-.3v-.2s-.1-.1-.2-.1c-.2 0-.3 0-.5-.1-.3 0-.5-.2-.7-.3s-.3-.4-.3-.6 0-.3.1-.4c0-.1.2-.2.4-.3.2 0 .4-.1.6-.1.4 0 .6 0 .8.2q.3.3.3.6h-.6c0-.1 0-.2-.2-.3h-.4c-.2 0-.3 0-.4.1v.4s.3.1.5.2c.3 0 .5.1.6.2.1 0 .2.2.3.3 0 .1.1.3.1.5 0 .4-.2.7-.5.8-.2 0-.4.1-.6.1-.4 0-.7 0-.9-.3-.2-.2-.3-.4-.4-.8Zm-2.3-.8h.9s.1 0 .2-.1v-.4s-.1-.1-.2-.1h-.9v.7Zm-.6 1.7v-2.9h1.9c.1 0 .3.2.3.3s.1.3.1.5 0 .4-.2.5q-.15.15-.6.3c.1 0 .2.2.3.2 0 0 .2.2.3.5l.4.6h-.7l-.4-.6c0-.2-.2-.3-.3-.4 0 0-.1 0-.2-.1h-.4v1.2h-.6Zm-2.8 0v-2.9h2.2v.5h-1.6v.7h1.5v.5h-1.5v.8h1.6v.5H99Zm-2.1 0-1.1-2.9h.6l.7 2.2.7-2.2h.6l-1.1 2.9h-.6Zm-2-2.9h.6v2.9h-.6zm-3.1 2.9v-2.9h.6l1.2 2v-2h.6v2.9h-.6l-1.2-1.9v1.9zm-3.1-2.9h.6v2.1c0 .1 0 .2.2.3s.2.1.4.1.3 0 .4-.1c0 0 .1-.2.2-.3v-2.1h.6v2.2c0 .1 0 .3-.2.4 0 .1-.2.2-.3.2h-1.2c-.1 0-.3-.1-.3-.3 0 0-.1-.2-.2-.3v-2.3ZM85.3 32v-.5h1.3v1.2c-.1.1-.3.2-.5.3-.2 0-.5.1-.7.1-.3 0-.6 0-.8-.2-.2-.1-.4-.3-.5-.6-.1-.2-.2-.5-.2-.8s0-.6.2-.8c.1-.2.3-.4.6-.5.2 0 .4-.1.7-.1s.7 0 .9.2.3.4.4.6h-.6l-.2-.2c-.1 0-.3-.1-.4-.1-.3 0-.5 0-.6.2-.2.2-.2.4-.2.7s0 .6.2.8q.3.3.6.3h.4c.1 0 .2-.1.3-.2V32h-.7Zm-4.4 1.1v-2.9h.6l1.2 2v-2h.6v2.9h-.6l-1.2-1.9v1.9zm-2.8-1.4c0 .3 0 .6.2.8.1.2.4.3.6.3s.4 0 .6-.3.2-.4.2-.8 0-.6-.2-.8c-.1-.2-.4-.3-.6-.2-.2 0-.4 0-.6.3-.2.2-.2.4-.2.8Zm-.6 0c0-.3 0-.6.1-.8 0-.2.2-.3.3-.4s.2-.2.4-.3c.2 0 .4-.1.6-.1.4 0 .8.1 1 .4.3.3.4.6.4 1.1s-.1.8-.4 1.1-.6.4-1 .4-.8-.1-1-.4c-.3-.3-.4-.6-.4-1.1Zm-1.8 1.4v-2.4h-.9v-.5h2.3v.5h-.9v2.4h-.6Zm-3.4-1.4c0 .3 0 .6.2.8.1.2.4.3.6.3s.4 0 .6-.3.2-.4.2-.8 0-.6-.2-.8c-.1-.2-.4-.3-.6-.2-.2 0-.4 0-.6.3-.2.2-.2.4-.2.8Zm-.6 0c0-.3 0-.6.1-.8 0-.1.2-.3.3-.4s.2-.2.4-.3c.2 0 .4-.1.6-.1.4 0 .8.1 1 .4.3.3.4.6.4 1.1s-.1.8-.4 1.1-.6.4-1 .4-.8-.1-1-.4c-.3-.3-.4-.6-.4-1.1Zm-1.4.3-.4-1.1-.4 1.1zm1.1 1.1h-.6l-.3-.7h-1.2l-.2.7h-.6l1.1-2.9h.6zm-3.9-2.9h.6v2.9h-.6zm-1.3 0h.6v2.5c0 .2-.2.3-.3.4-.2.1-.3.2-.6.2s-.5 0-.7-.2-.2-.4-.2-.7h.6v.3c0 .1.2.2.3.2s.2 0 .3-.1v-2.4ZM61.7 32v-.5H63v1.2c-.1.1-.3.2-.5.3-.2 0-.5.1-.7.1-.3 0-.6 0-.8-.2-.2-.1-.4-.3-.5-.6-.1-.2-.2-.5-.2-.8s0-.6.2-.8c.1-.2.3-.4.6-.5.2 0 .4-.1.7-.1s.7 0 .9.2.3.4.4.6h-.6l-.2-.2c-.1 0-.3-.1-.4-.1-.3 0-.5 0-.6.2-.2.2-.2.4-.2.7s0 .6.2.8q.3.3.6.3h.4c.1 0 .2-.1.3-.2V32h-.7Zm-4.5 1.1v-2.9h.6l1.2 2v-2h.5v2.9h-.6l-1.2-1.9v1.9h-.6ZM56 30.2h.6v2.9H56zm-1.3 0h.6v2.5c0 .2-.2.3-.3.4-.2.1-.3.2-.6.2s-.5 0-.7-.2-.2-.4-.2-.7h.6v.3c0 .1.2.2.3.2s.2 0 .3-.1v-2.4Zm-2.3 0h.6v2.9h-.6zm-2.9 2.9v-2.9h2.2v.5h-1.6v.7h1.5v.5h-1.5v.8h1.6v.5h-2.2Zm-2.4-1.3v.8h.9s.2 0 .2-.1v-.4s-.1-.1-.2-.1h-1Zm0-1.1v.7h.8s.2 0 .2-.1v-.4s-.1 0-.2-.1h-.8Zm-.6-.5h1.7c.1 0 .2 0 .3.1 0 0 .2.1.2.2v.3c0 .3-.2.5-.4.6.2 0 .3.1.4.3 0 .1.1.3.1.4 0 .3-.1.5-.3.7-.1 0-.3.1-.4.1h-1.7V30Z"/></g></svg>