<svg width="128" height="128" fill="none" xmlns="http://www.w3.org/2000/svg"><path fill-rule="evenodd" clip-rule="evenodd" d="m28.528 29.27.609 41.39c-.042 4.508 5.983 30.32 34.485 37.34 32.744-8.437 35.006-36.906 35.006-36.906s1.477-33.658.522-41.563c-24.953-13.457-45.186-11.85-70.622-.26Z" fill="#fff"/><path fill-rule="evenodd" clip-rule="evenodd" d="M92.239 47.702h1.578v.612h-1.578l-2.325 1.69v-.71l1.876-1.274-1.876-1.298v-.71zm-1.877 6.274h-.448V50.35h.448v1.52h3.455v.587h-3.455zm-.448 1.448h3.903v-.613h-3.903zm1.13 1.153v.564q-.746.048-.788 1.127.02 1.005.682 1.004.427 0 .49-.538l.256-1.274q.213-1.005 1.066-1.005.598 0 .875.49.255.539.255 1.273 0 .957-.34 1.348-.32.49-.982.466v-.589q.896-.023.917-1.225-.02-1.174-.661-1.2-.297 0-.448.196-.148.196-.255.784l-.172.93q-.233.957-.938.957-.618-.025-.938-.54-.255-.366-.255-1.028 0-1.69 1.236-1.74m-.703 7.28v-1.52q0-.807.66-.807.683 0 .683.905v1.421H90.34Zm1.79 0h1.686v.612h-3.903v-2.083q0-.686.213-1.028.214-.466.831-.466c.428 0 .89.437 1.09.862l1.769-1.019v.745l-1.686.906v1.47Zm1.216 1.643h.47v3.307h-3.903v-3.258h.448v2.646h1.215v-2.45h.47v2.45h1.3zm-.36 6.288-3.216-1.553.054-.685 3.763 1.942-.051.658-4.02 1.333.054-.683zm-3.678 2.43 3.826.769-.12.6-3.827-.769zm2.533 3.038-3.012-.946.176-.56 3.724 1.17-.206.653-3.694 1.229-.007.022 3.011.946-.176.562-3.724-1.17.22-.7zm-4.54 3.197 2.19 1.106q.952.48.43 1.561-.516.975-1.48.515l-2.188-1.105-.276.546L88.3 84.25q.61.309 1.184.022.477-.281.807-.936.399-.788.292-1.335-.159-.63-.757-.96l-2.247-1.134-.276.547Zm-2.071 5.833q-.944-.8-2.087.446-.448.487-.507.93-.112.595.327 1.032.52.476 1.337-.07l.756-.57q.475-.361.718-.406.243-.042.462.16.455.45-.323 1.331-.828.87-1.505.283l-.397.433q.471.465 1.037.32.517-.059 1.163-.763.496-.54.672-1.11.127-.55-.313-.953-.629-.577-1.465.02l-1.05.765q-.41.354-.725.066-.487-.446.176-1.202.76-.766 1.343-.297zm-1.067 4.718-2.016 1.789-.863-.973 1.832-1.625-.312-.351-1.831 1.625-.807-.91 1.978-1.755-.297-.335-2.437 2.162 2.59 2.92 2.474-2.196zm-5.502.552-.502.35 2.23 3.202.502-.35zm-3.729 2.948 1.543 2.606 1.012-.598q1.063-.705.367-1.977-.771-1.255-1.952-.604zm1.244 3.304 1.56-.923q.906-.537.948-1.38.077-.64-.325-1.319-.413-.697-1.042-.895-.747-.25-1.548.222l-1.581.936zm-3.349-2.391.976 2.25q.424.979-.669 1.476-1.02.419-1.467-.55l-.974-2.25-.563.243 1.035 2.387q.271.627.896.774.546.089 1.22-.203.81-.351 1.078-.84.282-.585.031-1.221l-1-2.31zm-6.72 3.228-.18-.41 3.32-1.459.18.41-1.392.612 1.39 3.163-.537.236-1.39-3.163-1.39.611Zm-.32.537-.52.218q-.335-.668-1.344-.29-.918.411-.661 1.019.165.393.686.243l1.273-.258q1.01-.194 1.34.593.232.551-.112.996-.397.445-1.075.73-.88.37-1.374.208-.576-.104-.81-.723l.542-.228q.37.816 1.485.37 1.075-.477.85-1.076-.116-.273-.354-.337-.24-.06-.822.069l-.925.203q-.97.155-1.244-.493-.219-.58.133-1.074.238-.379.849-.635 1.558-.656 2.083.465m-8.75.413-.676-3.82-.664-.316-1.68 3.523.532.253 1.358-2.85.022.011.698 3.83.62.295 1.68-3.523-.531-.252-1.358 2.849Zm-5.272-3.763 1.16.732q-.355.609-.951.636a1.67 1.67 0 0 1-.924-.28q-1.264-.798-.399-2.168.87-1.243 2.097-.569.921.607.696 1.422l.496.314q.431-1.14-.933-2.102-1.703-.974-2.883.576-.578.871-.276 1.769.198.603.965 1.087.819.493 1.539.315c.7-.192.866-.461 1.114-.755l.196-.31-1.658-1.046zm-1.836-3.707-.49-.367-2.34 3.123.49.368zm-3.428 1.393-2.023-1.78.86-.977 1.838 1.62.31-.353-1.838-1.619.804-.913 1.985 1.75.296-.336-2.445-2.154-2.58 2.928 2.482 2.187zm-3.258-7.527-1.02.876.927 1.077q.59.688 1.108.243.5-.43-.026-1.044zm-1.359 1.168.958 1.114-.688 1.786.496.576.065-.056.669-1.877c.428.296.998.219 1.322-.06q.469-.402.327-.895-.062-.4-.509-.92l-1.357-1.578-2.96 2.543.4.465zm-1.101-1.608a2.32 2.32 0 0 0 1.12-1.177q.251-.767-.176-1.676-.386-.82-1.01-1.149-.863-.381-1.8.033-.723.368-1.055 1.065-.29.787.179 1.783.438.93 1.19 1.228.75.243 1.552-.107m-.26-.554q1.347-.743.799-2.109-.694-1.325-2.134-.729-1.34.71-.762 2.09.704 1.293 2.096.748Zm-3.134-6.478-1.675.57-.197-.58 3.695-1.258 1.002 2.946-.425.144-.804-2.365-1.15.391.71 2.087-.446.151zm-1.886-8.479h.448V72h-.505c-.396-.058-.771-.193-1.095-.54q-.533-.513-.554-1.469 0-.906.405-1.397.597-.734 1.642-.71 1.942.172 2.026 2.13-.084 1.668-1.28 1.912v-.588q.81-.245.832-1.347-.084-1.396-1.6-1.47-1.62 0-1.62 1.494 0 .54.256.931.34.49 1.045.466zm-.896-3.913h3.157v.587h-3.903v-.686l3.156-2.278v-.024h-3.156v-.589h3.903v.735zm-.746-4.428h3.903v-.613h-3.903zm1.258-4.6v.564h-.277q-.64 0-.64.686 0 .71.682.71h2.88v.613h-2.858q-.555 0-.853-.319-.256-.391-.256-.98.02-1.2.938-1.273h.384Zm-1.258-1.07h3.903v-.613h-3.903zm.47-1.904h-.47v-3.307h3.903v3.258h-.448V51.43H36.1v2.449h-.47v-2.45h-1.3v2.696Zm1.343-7.343v1.176q0 1.078-.661 1.078-.682-.024-.705-.956v-1.298zm-1.813-.613h3.903v1.985q-.044 1.2-.981 1.25-.576 0-.811-.588-.255.832-.96.832a.96.96 0 0 1-.725-.318q-.426-.417-.426-1.225zm3.476.613v1.078q0 .93-.575.93-.662.026-.64-.93v-1.078zm54.905-6.92.32 1.03.96.028-.762.666.273 1.049-.791-.62-.792.62.274-1.049-.763-.666.96-.028zm-56.654-.113.32 1.031.96.028-.762.666.273 1.048-.791-.62-.792.62.274-1.048-.763-.666.96-.028zm-5.172-8.63.576 39.185c-.04 4.268 5.665 28.706 32.649 35.352 31-7.988 33.142-34.94 33.142-34.94s1.398-31.867.494-39.35c-23.624-12.742-42.78-11.22-66.86-.247Zm.494.484.567 38.608c-.038 4.205 5.582 28.284 32.17 34.832 30.544-7.87 32.654-34.426 32.654-34.426s1.377-31.398.486-38.771c-23.277-12.553-42.15-11.055-65.876-.243Zm-2.383-2.333.608 41.388C29.095 75.166 35.12 100.98 63.622 108c32.744-8.437 35.006-36.906 35.006-36.906s1.477-33.658.521-41.563c-24.953-13.457-45.185-11.851-70.62-.26Zm.947.926.592 40.285c-.04 4.387 5.824 29.511 33.565 36.344 31.87-8.212 34.072-35.921 34.072-35.921s1.438-32.76.508-40.454c-24.288-13.098-43.98-11.535-68.737-.254M40.64 40.8c13.364-6.504 31.55-8.69 46.508.172.629 5.206-.344 30.834-.344 30.834s-1.49 19.453-23.053 23.74C43.993 90.92 41.013 74.487 41.04 71.519l-.401-30.72Z" fill="#262852"/><path fill-rule="evenodd" clip-rule="evenodd" d="m70.558 46.191 12.882.12.12 25.284s-2.563 21.702-26.487 15.29c10.114-.36 13.244-9.03 13.485-14.207z" fill="#fff"/><path fill-rule="evenodd" clip-rule="evenodd" d="m44.432 46.191 9.362.085 3.882.035-.048 25.164s.805 11.29 10.643 6.02c-3.924 10.233-20.832 11.767-23.599-4.214z" fill="#fcef11"/><path fill-rule="evenodd" clip-rule="evenodd" d="M60.095 46.191h8.055v3.17h-4.62v4.225h3.829v3.17h-3.83v7.526h-3.433z" fill="#fff"/><path fill-rule="evenodd" clip-rule="evenodd" d="M51.482 61.268q4.14 0 4.088-3.766-.051-2.216-1.583-2.822 1.174-1.008 1.225-2.687.053-3.16-3.833-3.095h-4.494v12.37zm-.408-9.479q1.328-.134 1.278.94 0 1.076-1.073 1.076h-1.277V51.79zm-.102 4.302q.97.002 1.328.204.358.265.357.94.053 1.21-1.328 1.142h-1.327v-2.286zm30.839-3.629q-.519-3.803-4.543-3.871-4.425.133-4.54 3.937.689 3.803 4.082 4.002 1.838.334 2.01 1.27 0 .865-1.493.865c-.385 0-.709-.088-.98-.265q-.4-.337-.573-1.002h-3.333q.516 3.803 4.712 4.002 4.83-.066 4.945-4.136-.688-3.604-4.025-3.868-1.895-.334-2.068-1.27 0-.73 1.148-.731.577 0 .863.264.46.201.518.803z" fill="#262852"/><path fill-rule="evenodd" clip-rule="evenodd" d="M55.577 42.38h-.452V39.5a2.3 2.3 0 0 1-.428.312 3 3 0 0 1-.476.233v-.437a2.7 2.7 0 0 0 .663-.432q.284-.253.402-.492h.291zm6.185-2.476q0-.389-.207-.617a.65.65 0 0 0-.498-.229.69.69 0 0 0-.525.246q-.224.246-.224.638a.8.8 0 0 0 .212.571.7.7 0 0 0 .524.22q.314 0 .516-.22.202-.219.202-.609m-1.85 1.625.434-.04q.056.307.21.444a.58.58 0 0 0 .4.138.7.7 0 0 0 .365-.095.8.8 0 0 0 .258-.255q.1-.16.168-.43a2.3 2.3 0 0 0 .065-.643 1 1 0 0 1-.37.35q-.235.135-.508.134-.457 0-.774-.331-.316-.332-.316-.874 0-.56.33-.902.33-.34.828-.34a1.18 1.18 0 0 1 1.108.743q.155.359.155 1.036 0 .705-.154 1.124a1.3 1.3 0 0 1-.455.636 1.18 1.18 0 0 1-.71.219q-.432 0-.706-.24t-.328-.674m7.343-.445v-1.66l-1.152 1.66zm0 1.296v-.88h-1.597v-.415l1.68-2.385h.369v2.385h.497v.415h-.497v.881zm6.231 0h-.452V39.5a2.3 2.3 0 0 1-.428.312 3 3 0 0 1-.475.233v-.437q.378-.178.662-.432a1.7 1.7 0 0 0 .402-.492h.291z" fill="#fff"/><path fill-rule="evenodd" clip-rule="evenodd" d="m40.338 30.223-.092-.06-.122-.08-.143-.049-.468-.086-.177.038-.065.067-.06.092-.01.08.022.102.272.657.153.47.028.258.624 2.936.181.729.243.768.094.192.15.206.133.13.092.06.082.01.08.008.076-.016.071-.041.065-.067.035-.087.01-.08-.03-.26-.084-.273-.256-.58-.205-.59-.185-.623-.154-.602-.104-.613-.11-.638-.052-.624-.003-.634.055-.117.018-.163-.002-.132-.002-.132-.082-.14zm5.004 5.496-.036-.045-.396.004-.172.063-.171.064-.167.088-.161.113-.251.186-.096.047-.101.021-.107-.004-.087-.034-.092-.06-.067-.065-.046-.096-.112-.4-.08-.38-.065-.303-.095-.323.029-.112.054-.117.08-.123.11-.103.206-.15.232-.155.451-.492.176-.17.12-.184.088-.204.042-.3-.016-.076-.041-.07-.062-.04-.08-.01-.082-.009-.071.042-.447.386-.416.405-.421.01-.156-1.104-.124-.212-.15-.205-.17-.176-.055-.015-.082-.01-.081-.008-.096.047-.07.041-.04.062-.01.08.008.158.032.152.058.146.984 4.632-.215.23-.09.205-.038.193.037.045.03.02.213.008.228-.048.197-.069.857-.447 1.137-.876.043-.168-.041-.07zm-5.013.06.03.02-.12 1.295-.001.371-.051.381-.03.113-.054.117-.085.097-.116.078-.121.052-.127.027-.131.001-.113-.029-.214-.139-.108-.136-.177-.333-.05-.36.087-.336.051-.38.02-.402.027-.376-.03-.39-.105-.745.269.023.42.36.447.857.087.035.05-.01.04-.063.015-.056.04-.06zm8.953-2.559-.515.553-.073.038-.068.063-.04.084-.013.081.016.103.072.12.067.093.118.086.127.138.17.077.025-.003.164-.289.059-.454.033-.45-.016-.103-.063-.068zm2.299-5.498.042-.06.014-.08-.034-.047-.148-.108-.165-.052-.106-.01-.128.02-.12.072-.115.097-.108.148-.052.165-.002.157-3.125 2.434-.998.315-.198.398-.195.424-.023.187.063.069.077-.012.334-.21 4.1-3.217zm-2.344.423.348.207.08.013.103-.016.047-.034.043-.059.009-.106-.023-.31-.074-.303-.119-.086-.114-.061-.14-.056-.136-.031-.153.024-.153.024-.145.076-.232.194.004.025.304.266zm2.655.549-.081-.014-.346.134-.166.105-1.314.968.373.202.499-.157.132.005.029.022.03.021-.018.055-.137.127-.15.207-.117.254-.032.136-.005.132.05.15.072.119.114.06.136.031.132.005.127-.02.15-.05.14-.1.116-.098.082-.143.057-.14-.008-.051-.034-.047-.165-.053-.161-.027-.18.028-.037-.072.017-.055.695-1.237.142-.258-.024-.153-.06-.043zm-2.265 2.9.063.068.085.039.076-.012.077-.012.072-.038.1-.2.074-.194.019-.213-.054-.175-.093-.09-.229-.12-.25-.092-.276-.087-.263-.01.359.78zm2.302.97-.09-.064-.14-.056-.106-.01-.285.02-.277.07-.042.059-.018.055.02.128.068.094.033.047.093.09.093.09.114.06.386.123.18-.029.068-.063.068-.063.01-.106-.011-.234-.072-.12zm-.897 1.453.046.123.016.102-.005.133-.035.11-.121.228-.124.046-.225-.095-.26-.483-.71-.516.128-.02h.157l.242.041.138-.126.017-.055-.012-.077-.223-1.405.04-.085.072-.038.073-.038.106.01.055.017.23.959.21.989.092.09zm8.862-5.483-.093-.09-.114-.061-.14-.056-.455-.06-.234.011-.451.124-.385.219-.192.108-.155.182-.174-1.099-.136-.528-.038-.073-.034-.047-.08-.014-.413.04-.2.058-.124.046-.167.105-.163.13-.159.156-.107.148-.13.178-.151.364-.126.36-.1.357.178-.028.598-.854.352-.423.09-.093.044-.059.127-.02.128-.02.081.013.067.094.158.5.132.502.08.511.081.512.035.544v.498l-.021.527.04.256.066.251.087.222.034.047.11.035.048-.034.137-.126.035-.11.025-.502.025-.502-.055-.515-.118-.741.1-.2.133-.152.158-.156.138-.126.196-.084.23-.036.11.035.115.06.067.095.068.094.05.149.053.175.003.183-.188.632.191.048.322-.443.29-.492.056-.14.03-.136-.023-.153-.02-.128-.05-.15zm-3.6 1.25.046.124.016.103-.031.135-.035.11-.104.174-.133.152-.14.102-.167.105.04-.243-.026-.494-.042-.098-.144-.082-.234.011-.027.817-.058.795-.109.803-.043.06-.043.058-.102.017-.059-.043-.152-.134-.063-.068-.037-.23.15-.705.21-.662.257-.695-.93.251-.109-.69.13-.177.198-.398.188-.632.056-.14.026-.005.1.142.137.528.11.533.15-.05.183-.003.161.027.166.052.148.108.122.111.127.138.067.094Zm9.152-.602-.181-.052.103.31.156.31.077.027h.078l.077-.026.052-.078.026-.103v-.078l-.052-.103zm1.681 3.26-.051-.337-.078-.284-.31-1.01-.13-.49-.077-.544-.052-.517-.026-.518v-.517l.026-.544.052-.491.078-.518.155-.957.026-.44-.052-.155-.052-.078-.078-.026-.103-.026-.207 1.371-.181 1.372-.052.543v1.113l.052.569.078.544.077.543.052.543v.647l-.155.155-.104.026.155.103.13.156.103.232.155.207.207.182.078.051h.078l.103-.026.078-.051.051-.078.026-.078-.026-.336zm-3.13-5.46.285-.155.233-.18.258-.208.207-.207.647-.543.595-.544v-.051l-.026-.026-.698.336-.337.207-1.19.828-1.216.802.104.026.129.026.103-.026.31-.051.311-.104zm-.207 4.916-.026.104v.026l.026.052h.052l.414-.026.388-.078.414-.104.414-.129.078-.077.025-.104v-.078l-.051-.103zm.673-3.518-.078.051v.026l-.905.777h.232l.104.051.103.052.078.104.052.103.051.207.052.207v.233l.13-.104.18-.258.182-.285.18-.284.13-.311.104-.284v-.078l-.026-.078-.052-.052-.077-.026-.078.026-.078-.62.233-.621.026-.13-.026-.155-.026-.026h-.051l-.363.233-.31.258-.776.44.077.26.337-.027.31-.051.104-.026.051.026.078.051.052.052.026.078v.103zm-.13 2.898.31-.104.182-.052.207-.13.155-.128.052-.104v-.13l-.078-.568-.026-.052-.051-.052-.052-.026-.052.207-.077.207-.311.44-.077.104-.13.051-.077.026h-.13l-.103-.026-.078-.051-.026-.052v-.26h-.026l-.233.337-.18.389v.051l.025.078.052.026.077.026.389-.104zm-1.578-1.89.026.389v.414l-.052.362-.026.388-.077.363-.13.388-.078.18-.103.182-.155.103-.026.026-.052-.026-.155-.13-.103-.206.155-.31.13-.337.103-.336.077-.337.052-.336.052-.854.025-.854.104.026.078.078.051.104.052.336.052.388Zm11.562-.252.087.077.118.058.056-.011.032-.019.16-.198.059-.118.058-.118.044-.363-.125-.034-.138.017-.075-.02-.126.368zM73.23 30.29l-.1-.026-.094-.052-.086-.077-.03-.088-.022-.22.17-.33.24-.203.441-.445-.15-.335-.177-.342.352-.012.365-.063.297-.108.213-.399.196-.43-.187-.103-.136-.09-.148-.147-.135-.197-.037-.063.002-.107 1.265.178.1.027.061.07.037.063-.047.175-.27.41-.227.449.224.06.225.06-.102.481-.115.532.024.006.069.046.054.095.005.081-.015.157-.04.15-.008.131-.027.1-.064.037-.8.188-.788.244-.152.066-.195.028zm-1.262-1.088-.17.035-.177.06-.569.223-.308.05-.994.11.14.278.105.108.143.066.143.065.125.033.132.009.156.015.146-.041.102-.08.146-.149.159-.09.183-.086.202-.053.195-.028.206.028-.525.663-.52.638-.103.187-.103.186-.057.413.01.163.034.17.092.159.098.133.123.14.272-.515.254-.549.229-.554.31-.855.34-.873-.324-.087zm3.34 1.03-.182-.023-.195.028-.17.035-.151.067-.16.09-.336.259-.38.22.155.122.123.14.11.19.03.088-.002.107-.052.093-.174.248.087.077.048.12.048.12.013.352.13.115.143.065.168.072.032-.018.057-.012.09-.137.047-.175.005-.32-.048-.12-.213-.405.007-.025.04-.15.059-.118.09-.137.108-.105.134-.098.151-.066.096-.055.076-.086.027-.1.033-.125.027-.1-.023-.114zm-1.959 1.51-.01-.163-.01-.163-.036-.064-.043-.039-.068-.044-.057.011-.063.037-.04.043-.203.562-.098.268.073.127.105.108.075.02.081-.005.057-.011.07-.062.063-.036.045-.069.052-.093.002-.107zm-1.675-4.145-.042-.44.175.047.181.021.164-.01.113-.022.093.052.093.05.055.096.035.17-.436.526-.076.087-.127.073-.145.042-.138.016-.15-.04.11-.211.06-.226zm10.671 6.118-.067-.152-.086-.077-.123-.14-.18-.128-.162-.097-.2-.054-.174-.047-.194-.078.128.222.103.215.065.258.06.177.084.184.117.165.148.146.068.046.075.02.075.02.096-.055.076-.087.059-.118.04-.15.009-.132zm-.59-2.3-.289.082-.202.053-.213-.003-.2-.054-.74 1.463-.136.204-.167.223-.191.217-.21.185-.23.153-.202.16-.272.114-.24.097-.284.058-.245.014-.463-.07-.05-.013-.03-.089.013-.05.277-.033.252-.04.233-.071.45-.281.32-.29.268-.303.25-.334.593-.913.014-.05-.044-.039-.056.012-.134.099-.12.047-.12.048-.288-.023-.225-.06-.212-.11-.18-.13-.173-.152-.141-.173-.012-.056.07-.062.195-.028.182.022.282.049.294-.002.27-.008.805-.105.275-.623.217-.612.067-.25.042-.256.017-.263-.008-.27-.04-.252-.21-.512-.03-.088-.024-.114.007-.025.031-.018.225.06.367.232.148.147.135.197.11.19.016.138.016.139-.014.157-.034.125-.066.143-.332.74-.264.787.093.052.2.054.088-.03.31-.158.286-.165.158-.092.184-.084.05.014.075.019.036.064.012.056-.072.169-.072.168-.115.13-.134.098-.151.066-.297.108Zm4.885 5.947-.045-.139-.115-.059-.14-.012-.104.034-.314.217.046.081.08.07.093.047.104.024.139-.045.139-.045.082-.103zm2.247-.249-.036.127-.07.08-.07.081-.116.057-.22.033-.047-.023-.23-.176-.53-.212-.105-.024-.127.023-.104.033-.047.092-.082.104-.024.104-.035.127-.06.173-.105.15-.093.126-.268.183-.15.01-.127-.035-.75-.353-.092-.047-.069-.093-.034-.105-.022-.127.047-.092.129-.196.152-.184.186-.137.185-.08.198-.102.232-.056.22-.034.162-.033.435-.853.036-.127v-.115l-.022-.128-.034-.105-.068-.093-.104-.081-.092-.047-.127-.036-.07-.035-.069-.036-.045-.08.012-.082.035-.069.035-.07.059-.056.07-.023.138.013.15.047.139.07.299.211.092.047.08.07.058.116.034.104-.001.116-.071.196-.187.254-.178.519-.012.08.046.082.092.047.704.214.242.094.427.247zm2.516-3.683-.07-.035-.427-.19-.438-.165-.462-.119-.496-.108-1.494.024-1.527.035-.15.01-.139-.07-.38-.107-.21.01-.058.057-.024.104-.012.139.08.127.045.14.115.116.138.07.173.06.185.036.186-.022.185-.022.186-.08 1.065-.153 1.112-.13.266.048.3.095.08.07v.058l-.036.184-.105.15-.163.091-.186.08.22.082.219.026.475-.02.463-.054.429-.101.452-.147.036-.07.034-.068-.022-.07zm.864-1.07-.08-.186-.091-.163-.126-.15-.138-.13-.127-.093-.173-.059-.013.139-.035.127-.07.138-.105.092-.105.092-.104.034-.117-.001-.103-.024-.115-.059.01.035.3.21.161.083.185.036.162.024.197.014.15-.011.15-.01.14-.046.046-.034zm-4.829-1.125.241.326.161.14.15.106.161.082.233-.172.186-.195.176-.23-1.143-.38-.08-.011-.06.057-.034.07-.001.115zm1.932.142-.02-.474 1.477.578.057.058-.243.08-.255.044-.231-.002-.232-.001-.23-.06-.116-.059z" fill="#262852"/></svg>