<svg width="128" height="128" fill="none" xmlns="http://www.w3.org/2000/svg"><path d="M26.98 40.206A43.83 43.83 0 0 0 20 64a43.83 43.83 0 0 0 6.98 23.794v-4.577A41.55 41.55 0 0 1 22.297 64a41.55 41.55 0 0 1 4.683-19.217zm1.693 45.962v4.068a50 50 0 0 1-1.693-2.442v-4.577a45 45 0 0 0 1.693 2.95Zm0-48.404v4.068a46 46 0 0 0-1.693 2.951v-4.577a50 50 0 0 1 1.693-2.442m.586 49.31V91a94 94 0 0 1-.586-.765v-4.068c.195.301.391.608.586.906Zm0-50.08v3.934q-.293.444-.586.904v-4.068zm2.002 52.834v3.565A46 46 0 0 1 29.259 91v-3.927a40 40 0 0 0 2.002 2.754Zm0-55.22v3.564a41 41 0 0 0-2.002 2.756v-3.935a48 48 0 0 1 2.002-2.386Zm.933 56.36v3.436a59 59 0 0 1-.933-1.011v-3.565q.453.578.933 1.14m0-57.372v3.437q-.48.56-.933 1.139v-3.565c.306-.341.619-.682.933-1.01Zm1.234 58.757v3.287a40 40 0 0 1-1.234-1.236v-3.437c.4.476.809.933 1.234 1.386m0-59.991v3.285c-.425.453-.833.91-1.234 1.386v-3.437c.4-.42.816-.833 1.234-1.234m.464 60.49v3.228c-.157-.144-.314-.296-.464-.44v-3.287q.227.254.464.498Zm0-60.933v3.23q-.237.244-.464.498v-3.285a24 24 0 0 1 .464-.443m.062 60.994v3.223a.4.4 0 0 1-.062-.055v-3.23c.017.022.038.038.062.062m0-61.05v3.224a.3.3 0 0 0-.062.062v-3.23c.017-.016.038-.04.062-.055Zm.056 61.106v3.218a.3.3 0 0 1-.056-.05v-3.224q.022.033.056.056m0-61.156v3.218a.3.3 0 0 0-.056.056v-3.223q.022-.027.056-.05Zm.373 61.547v3.184l-.373-.357v-3.218c.122.133.25.262.373.391m0-61.904v3.185c-.122.128-.25.257-.373.39v-3.218zm.168 62.07v3.164c-.056-.05-.112-.095-.168-.146V93.36l.168.167Zm0-62.215v3.162l-.168.168v-3.185zm2.05 64.127v2.99a44 44 0 0 1-2.05-1.738v-3.163a41 41 0 0 0 2.05 1.91Zm0-65.866v2.99a41 41 0 0 0-2.05 1.911v-3.162a43 43 0 0 1 2.05-1.74ZM41.95 99.4v2.682a44 44 0 0 1-5.348-3.654v-2.99A43 43 0 0 0 41.95 99.4m0-73.482V28.6a42 42 0 0 0-5.348 3.962v-2.99a44 44 0 0 1 5.348-3.654m.709 73.918v2.648c-.235-.133-.475-.267-.71-.402V99.4c.235.146.475.29.71.436m0-74.32v2.648c-.235.146-.475.29-.71.436v-2.682c.235-.135.475-.269.71-.402m2.548 75.717v2.56a42 42 0 0 1-2.548-1.309v-2.648a44 44 0 0 0 2.548 1.397m0-77.024v2.558a44 44 0 0 0-2.548 1.397v-2.648q1.249-.696 2.548-1.307m.32 77.187v2.547l-.32-.15v-2.56c.107.056.213.107.32.163m0-77.339v2.547c-.107.056-.213.107-.32.163v-2.558zm4.721 79.322v2.425a44 44 0 0 1-4.721-1.861v-2.547a41 41 0 0 0 4.721 1.983m0-81.183v2.426a41 41 0 0 0-4.721 1.982v-2.547q2.297-1.065 4.721-1.86Zm4.917 82.563v2.353a44 44 0 0 1-4.917-1.308v-2.425a41 41 0 0 0 4.917 1.38m0-83.87v2.352a40 40 0 0 0-4.917 1.381v-2.425a44 44 0 0 1 4.917-1.309Zm2.459 84.328v2.319a39 39 0 0 1-2.459-.424v-2.353q1.217.267 2.459.458m0-84.753v2.32a40 40 0 0 0-2.459.457v-2.353q1.217-.25 2.459-.424m2.436 85.049v2.308a43 43 0 0 1-2.437-.285v-2.319q1.207.186 2.437.296m0-85.334v2.308q-1.23.11-2.437.296v-2.32a44 44 0 0 1 2.437-.284m2.431 85.491v2.303a44 44 0 0 1-2.431-.152v-2.308q1.207.117 2.431.157m0-85.643v2.303q-1.224.043-2.431.157v-2.308a45 45 0 0 1 2.431-.152m3.106 85.643v2.296Q64.804 108 64 108q-.754-.001-1.509-.027v-2.303q.755.034 1.509.034c.536 0 1.067-.018 1.597-.034m0-85.636v2.296c-.53-.016-1.06-.033-1.597-.033q-.754 0-1.509.033v-2.303A46 46 0 0 1 64 20q.803-.001 1.597.034m3.036 85.412v2.314a45 45 0 0 1-3.035.206v-2.296a45 45 0 0 0 3.035-.224m0-85.206v2.314a42 42 0 0 0-3.035-.224v-2.296c1.017.033 2.034.105 3.035.206m1.877 84.955v2.325q-.931.14-1.877.24v-2.314q.946-.109 1.877-.251m0-84.715v2.325a52 52 0 0 0-1.877-.251V20.24q.946.1 1.877.24m1.766 84.396v2.342c-.582.112-1.174.212-1.766.302v-2.325a36 36 0 0 0 1.766-.319m0-84.093v2.336a46 46 0 0 0-1.766-.314V20.48c.592.09 1.184.191 1.766.303m.111 84.076v2.336q-.052.014-.111.023v-2.342zm0-84.054v2.335q-.052-.006-.111-.021v-2.336q.06.006.111.022m2.655 83.417v2.381q-1.315.338-2.655.592v-2.336a43 43 0 0 0 2.655-.637m0-82.825v2.38a43 43 0 0 0-2.655-.637v-2.335a42 42 0 0 1 2.655.592m8.561 79.417v2.587a44 44 0 0 1-8.56 3.202v-2.381c3-.821 5.866-1.972 8.56-3.408m0-76.215v2.588a41.5 41.5 0 0 0-8.56-3.41v-2.38a43.8 43.8 0 0 1 8.56 3.202m1.52 75.36v2.643q-.748.417-1.52.799v-2.587a37 37 0 0 0 1.52-.855m0-74.566v2.648a36 36 0 0 0-1.52-.854v-2.588q.772.385 1.52.794m3.007 72.62v2.784a43 43 0 0 1-3.007 1.805v-2.643a38 38 0 0 0 3.007-1.945Zm0-70.81v2.783a39 39 0 0 0-3.007-1.945v-2.648a45 45 0 0 1 3.007 1.81m3.33 68.179v2.996a44 44 0 0 1-3.33 2.419v-2.783a41 41 0 0 0 3.33-2.632m0-65.76v2.996a41 41 0 0 0-3.33-2.632v-2.783a43 43 0 0 1 3.33 2.42Zm.854 64.995v3.062c-.284.235-.564.47-.854.699v-2.996c.29-.251.57-.508.854-.765m0-64.296v3.062c-.284-.256-.564-.514-.854-.765v-2.996c.29.23.57.464.854.699m1.576 62.754v3.213a45 45 0 0 1-1.576 1.391v-3.062a49 49 0 0 0 1.576-1.542m0-61.363v3.213a44 44 0 0 0-1.576-1.542v-3.062a45 45 0 0 1 1.576 1.391m.476 60.87v3.264c-.157.146-.32.29-.477.442v-3.213a20 20 0 0 0 .477-.493m0-60.428v3.263a20 20 0 0 0-.477-.492v-3.213c.157.152.32.298.477.442m1.128 59.178v3.391q-.552.57-1.128 1.123v-3.264q.576-.612 1.128-1.25m0-58.055v3.387a39 39 0 0 0-1.128-1.247v-3.263q.576.553 1.128 1.123m2.364 55.07v3.755a46 46 0 0 1-2.364 2.621v-3.391a41 41 0 0 0 2.364-2.985m0-52.45v3.757a42 42 0 0 0-2.364-2.99v-3.387a46 46 0 0 1 2.364 2.62m0 56.205v-3.755A41.5 41.5 0 0 0 105.703 64a41.5 41.5 0 0 0-7.845-24.346v-3.756A43.84 43.84 0 0 1 108 64a43.84 43.84 0 0 1-10.142 28.102" fill="#1a5aa9"/><path d="m101.978 70.194-1.848-.283-2.734.85.122-.8 1.86-.531-1.62-1.045.12-.787 2.361 1.633 1.843.282-.104.68Zm-.923 4.192-3.564-.963-.266.98-.726-.197.71-2.625.727.197-.266.978 3.565.962zm-.927 2.87-4.185-1.495.232-.65 4.187 1.493-.234.651Zm-2.992 3.343.201-.647q.426.127.69.043a.63.63 0 0 0 .394-.37q.14-.303.043-.535a.62.62 0 0 0-.32-.331.5.5 0 0 0-.275-.047.6.6 0 0 0-.278.147q-.1.09-.405.423-.394.432-.724.528a1.32 1.32 0 0 1-.944-.082 1.4 1.4 0 0 1-.517-.398 1.02 1.02 0 0 1-.233-.576 1.36 1.36 0 0 1 .138-.676q.266-.586.735-.731t1.033.094l-.25.645q-.33-.102-.528-.031-.195.071-.316.337-.125.274-.05.495a.37.37 0 0 0 .205.214q.145.066.29.018.183-.06.532-.455t.6-.547a1.1 1.1 0 0 1 .567-.157 1.6 1.6 0 0 1 .702.17q.348.156.584.443a1.1 1.1 0 0 1 .26.626q.023.34-.16.745-.27.591-.768.746-.499.156-1.206-.091m-2.828 2.68.265-.437q.26-.425.278-.558a.4.4 0 0 0-.06-.264.7.7 0 0 0-.248-.233.64.64 0 0 0-.356-.11.4.4 0 0 0-.285.13q-.057.066-.276.424l-.28.46zm1.828 1.926-3.792-2.317.757-1.24q.285-.468.517-.62a.88.88 0 0 1 .572-.117q.339.033.675.238.427.26.588.625.159.363-.003.79a1.8 1.8 0 0 1 .512-.12q.249-.02.82.04l.957.096-.43.705-1.085-.079a7 7 0 0 0-.748-.029.53.53 0 0 0-.266.08.9.9 0 0 0-.224.271l-.073.12 1.584.967zm-2.725 3.631-3.486-2.757 1.574-1.99.59.466-1.146 1.45.773.61 1.066-1.348.588.466-1.067 1.347.95.75 1.185-1.498.588.463zm-2.47 2.633-4.008-2.277.53-.53 2.938 1.713-1.733-2.918.519-.518 2.276 4.01zm-2.335 2.11-2.873-3.39.526-.447 2.875 3.39zm-3.531 2.643-2.566-3.628.548-.39 2.857 1.616-1.713-2.424.525-.37 2.565 3.629-.567.4-2.799-1.57 1.674 2.366zm-6.322-1.518.61-.325 1.13 2.126q.27.506.373.642a.77.77 0 0 0 .392.288q.225.067.48-.068.26-.14.318-.347a.66.66 0 0 0-.02-.422 7 7 0 0 0-.33-.681l-1.155-2.17.61-.325 1.098 2.06q.374.707.482 1.025.105.318.079.588-.026.272-.184.51-.16.237-.519.43-.433.229-.724.219a1.14 1.14 0 0 1-.534-.15 1.4 1.4 0 0 1-.402-.343q-.24-.306-.59-.964zm-7.031 5.323-.156-.732 1.457-.307.367 1.732a1.9 1.9 0 0 1-.517.601q-.36.287-.773.375a1.56 1.56 0 0 1-.977-.093q-.45-.204-.76-.694a3.4 3.4 0 0 1-.44-1.118 3.2 3.2 0 0 1-.036-1.253q.108-.575.47-.946.278-.285.756-.386.623-.13 1.047.134.421.265.649.844l-.637.304a1 1 0 0 0-.373-.448.7.7 0 0 0-.528-.084.85.85 0 0 0-.627.515q-.184.42-.033 1.138.165.773.51 1.105.347.331.777.241a1 1 0 0 0 .404-.199q.19-.153.31-.34l-.117-.551zm-6.092 2.437-.342-4.43.67-.053 1.624 2.851-.227-2.959.64-.049.342 4.431-.692.053-1.599-2.783.224 2.89zm-4.473-2.314q-.039.755.21 1.157.247.404.66.424.41.022.697-.35.285-.372.325-1.145.04-.763-.2-1.151a.79.79 0 0 0-.663-.411q-.428-.022-.707.344-.282.367-.322 1.132m-.712-.007q.035-.677.215-1.13.134-.334.35-.591.216-.261.462-.377.33-.158.746-.138.756.039 1.178.672.42.632.365 1.716-.057 1.075-.537 1.659-.481.583-1.235.544-.762-.04-1.18-.667-.42-.628-.364-1.688m-3.317 1.719.624-3.64-1-.17.127-.74 2.679.457-.127.743-.998-.172-.624 3.64zm-4.472-3.412q-.216.723-.072 1.174t.541.568q.397.12.76-.174.365-.296.588-1.034.22-.733.08-1.167-.137-.433-.548-.556-.408-.125-.768.165c-.36.29-.434.534-.58 1.024Zm-.69-.176q.196-.651.477-1.046.21-.292.48-.493.272-.2.54-.255a1.5 1.5 0 0 1 .757.044q.724.217.983.932.26.714-.052 1.753-.31 1.03-.916 1.484a1.42 1.42 0 0 1-1.328.235 1.44 1.44 0 0 1-.989-.928q-.257-.71.048-1.726m-2.656-.614.248-1.697-1.1 1.313zm.436 2.126-.685-.31.142-1.042-1.247-.562-.672.803-.667-.301 3.042-3.504.666.3zm-4.869-2.393 2.179-3.874.602.338-2.178 3.874zm.55-4.873.574.38-1.555 2.344q-.305.461-.53.666-.299.269-.649.32-.35.049-.709-.189-.422-.28-.447-.74-.023-.456.368-1.051l.596.278q-.2.325-.226.498-.04.263.151.387.194.129.368.039t.472-.54zm-9.048-4.14.564-.495.983 1.12-1.33 1.167a1.8 1.8 0 0 1-.776-.154 1.8 1.8 0 0 1-.707-.49 1.55 1.55 0 0 1-.4-.896q-.042-.494.234-1.003.275-.51.756-.933a3.2 3.2 0 0 1 1.075-.647q.552-.188 1.054-.053.383.1.707.47.42.476.397.976-.023.498-.416.98l-.579-.406a1 1 0 0 0 .21-.545.7.7 0 0 0-.188-.5.84.84 0 0 0-.756-.294q-.456.045-1.007.53-.593.522-.712.987-.118.465.172.794.144.164.37.254c.226.09.301.095.449.105l.424-.373zm-5.107-4.099 3.691-2.476.374.558-1.684 2.817 2.464-1.655.358.534-3.69 2.477-.387-.576 1.639-2.76-2.407 1.614zm-1.156-2.04 3.894-2.144.332.606-3.893 2.143zm3.037-3.852.288.626-2.558 1.172q-.503.23-.804.285a1.2 1.2 0 0 1-.718-.07q-.323-.144-.503-.536-.211-.46.01-.862t.869-.701l.359.552q-.342.171-.455.303-.17.203-.076.41.096.21.292.226.194.015.686-.209zm-5.347-1.31 4.167-1.548.241.648-4.166 1.547zM26.6 73.142l4.282-1.192.681 2.443-.724.203-.496-1.78-.95.266.462 1.653-.72.202-.463-1.655-1.165.324.513 1.842-.722.201zm2.92-4.598-1.017.153.068.448q.06.399.089.495a.42.42 0 0 0 .2.25.54.54 0 0 0 .358.05.6.6 0 0 0 .318-.136.37.37 0 0 0 .116-.282q0-.103-.074-.585zm-1.748.264-1.176.177.095.633q.057.369.098.464a.4.4 0 0 0 .213.22.64.64 0 0 0 .388.04.7.7 0 0 0 .325-.124.45.45 0 0 0 .169-.244q.04-.148-.029-.615zm2.376-1.058.204 1.354q.06.4.046.605a.8.8 0 0 1-.127.381 1.1 1.1 0 0 1-.329.315 1.3 1.3 0 0 1-.498.182 1.3 1.3 0 0 1-.586-.044.9.9 0 0 1-.438-.29.93.93 0 0 1-.328.537q-.257.21-.638.266-.299.045-.599-.02a1.2 1.2 0 0 1-.497-.224.85.85 0 0 1-.276-.427q-.051-.168-.155-.82l-.174-1.152zM91.46 47.913v1.267c-.135-.318-.168-1.022-.191-1.112-.094-.395-.251-.704-.257-1.15l.04-.034c.01.011.022 0 .043.027.035.04.174.805.27.923.016.023.06.05.095.079m.854.626v.558c-.05.04-.118.088-.206.162-.219.083-.42.235-.592.027a.5.5 0 0 1-.056-.106v-1.267l.032.032c.03.03.101.33.123.36l.152.194c.027.028.05.15.072.179a.19.19 0 0 0 .263.033c.028-.022.062-.083.089-.107.012-.01.061-.032.123-.065m0-2.119v.464a.8.8 0 0 1-.23-.128c-.166-.208-.016-.397.085-.682.022.005.056-.011.078.016.023.029.018.224.067.33m0-1.48v.228l-.073-.089a.4.4 0 0 1 .073-.139m1.575 2.928v.077l-.021-.027.005-.045q.008-.006.016-.005m0-.565c-.016-.017-.032-.027-.049-.04-.274-.049-.743-.352-1.09-.563-.218-.135-.402-.224-.413-.24a.1.1 0 0 1-.023-.04v.464c.229.101.575.224.855.323.184.114.386.157.419.197.029.04.045.151-.027.213l-1 .805a5 5 0 0 1-.247.117v.558l.14-.112c.038-.022.084-.04.112-.061.027-.022.123-.174.15-.196l.186-.145c.027-.028.357-.441.384-.464l.168-.134c.028-.023.307-.458.336-.48q.041-.026.1 0v-.202Zm0-1.09v.224a1 1 0 0 1-.133-.11.39.39 0 0 1-.022-.398c.027.14.083.19.128.251a.1.1 0 0 1 .027.033m0-.865c-.603-.168-1.29-.32-1.306-.336-.035-.045 0-.117.034-.146.128-.1.39-.133.586-.211-.252-.085-.61.005-.777.139 0 0-.062.072-.112.146v.228l.05.063c.023.027.514.038.744.083.162.034.458.106.61.151.054.022.11.033.171.045zm0-.699v.09a4 4 0 0 1-.474-.051s-.011-.017-.006-.044c.163.005.32.005.48.005m.477 3.04v.57a2 2 0 0 0-.18-.173c-.073-.061-.257-.09-.279-.117l-.018-.024v-.077c.069 0 .242.1.32.038.05-.044.016-.105-.006-.14-.023-.016-.184-.205-.314-.261v-.202c.141.117.303.274.477.386m0-.704v.173c-.135-.04-.264-.079-.347-.084-.01-.017-.023-.056-.018-.078.09-.011.258.016.365-.011m0-.408v.156c-.123-.073-.336-.2-.477-.296v-.224c.085.095.168.14.264.213.045.034.095.1.139.128.028.018.05.018.074.023m0-1.09v.112c-.152-.034-.32-.056-.477-.089v-.162c.174.044.336.094.477.139m0-.838v.073q-.01.009-.018.01c-.028.022-.24.022-.459.006v-.089q.235 0 .471-.012c0 .007 0 .007.006.012m0 0v.073c.01-.023.01-.056 0-.073m0 2.51c.272.083.586.183.664.122.005-.005.029-.034.01-.09-.01-.033-.066-.083-.077-.128a2 2 0 0 0-.084-.19c-.067-.079-.111-.034-.273-.134-.067-.034-.152-.111-.208-.145q-.016-.017-.032-.017v.156c.05.034.083.056.088.061.023.029.017.124-.038.168q-.018.016-.05.023v.173Zm0 1.1v-.57c.144.094.306.162.48.14.045-.006.224.1.245.129.029.038.085.233.123.419.011.06.056.117.061.173.018.11-.01.2-.038.222-.106.09-.324-.16-.37-.173-.139-.038-.312-.06-.368-.128-.022-.028-.078-.145-.1-.174-.006-.005-.017-.021-.033-.038m1.128-1.498v.128c-.101-.06-.414-.207-.43-.229l-.05-.061c.005-.022-.006-.016.021-.038.05-.045.258.11.275.121q.1.035.184.08Zm0-.732v.117c-.24-.134-.665-.336-.699-.363-.106-.095-.256-.145-.43-.184v-.112c.073.027.145.05.201.078.218.084.464.173.659.28.061.028.162.122.269.184m0-1.145v.2c-.246-.01-.53-.016-.592-.027l-.04-.05c.006-.023-.01-.034.017-.056.006-.006.324-.04.615-.067m0-1.778v.235c-.056.302-.162.827-.274.917-.1.083-.296.168-.369.072-.045-.05-.061-.325.011-.385l.163-.135c.1-.077.407-.586.469-.704m0 .235v-.235q.009-.007.01-.016l.035.045c-.006.016-.023.1-.045.206m2.364 1.33c-.173-.084-.296-.157-.325-.19-.1-.122.017-.308-.016-.346-.023-.029-.056-.029-.08-.056-.026-.029-.037-.095-.06-.123-.022-.028-.039-.023-.067-.023-.006.062-.006.247-.017.336l-.296.24c-.061.05-.704.28-.77.195-.046-.05-.085-.156-.051-.212.235-.375.955-1.541.743-1.804-.023-.03-.04-.022-.068-.03-.043.096-.48 1.002-.603 1.096-.027.024-.067.017-.1.04-.028.022-.039.112-.068.134l-.256.202c-.074.061-.151.173-.061.283.021.035.206.12.234.146.038.056.056.202-.04.275 0 0-.218.027-.463.05v.2c.19.006.352.022.368.046.034.034.034.184.056.29.018.072.063.112.085.163.038.1-.184.424-.23.458-.084.067-.184.038-.28-.012v.117c.09.05.152.09.169.106.021.029.061.123.083.152.1.128.269.245.442.24.067 0 .179-.045.229.016.218.264.553.498.77.766.006.005.214.19.096.285-.196.157-1.05-.504-1.095-.542a5 5 0 0 0-.693-.408v.128l.034.022.144.179c.024.029.185.135.208.162l.29.365c.19.227.793.474 1.134.49.134.006.32.068.408-.005.101-.077.146-.218.029-.363-.023-.028-.069-.04-.096-.066l-.195-.253c-.04-.045-.431-.296-.431-.301l-.117-.145c-.022-.029-.224-.18-.246-.207-.005-.011-.056-.073.006-.123.106-.083.738-.128 1.196-.146v-.184c-.816.1-1.688.157-1.828-.017-.123-.156.067-.552.135-.61.251-.2 1.168.57 1.47.325.093-.072.167-.245.223-.43v-.418c-.074.217-.218.451-.29.507a.85.85 0 0 1-.403.129c-.05-.006-.765-.201-.839-.29-.05-.063-.117-.33-.033-.398.206-.167.984.095 1.157-.044.161-.128.083-.296.168-.364.078-.06.222.09.228.1.007 0 .012.008.012.012zm0-.47v.095c-.05-.027-.095-.05-.14-.078 0 0-.011-.016-.006-.045a.4.4 0 0 0 .146.029Zm0 .095c.24.117.52.213.76.32.128.055.251.184.39.212.213.033.314-.005.431-.1.285-.23.14-.867.14-1.174-.028-.006-.022-.011-.051.01-.006.006-.112.313-.168.364-.206.162-1.112.296-1.502.274zm0 2.202c.246-.011.44-.016.48-.011.66.029 1.045.269 1.408-.027.034-.023.107-.096.28-.258.016-.017.045-.089.029-.117-.029-.028-.632-.497-.655-.526l-.123-.156c-.089-.106-.939-.486-1.419-.732v.145c.056.079.044.213 0 .348v.419c.094-.309.14-.654.168-.677.184-.145 1.256.693 1.256.698l.14.168c.023.028.207.14.229.168.04.05 0 .145-.017.161-.077.063-.408.012-.469.023-.274.05-.782.128-1.307.19zm-14.255-9.132v.46c-.637.128-1.308.134-1.951.166l-.022-.05c.408-.1.9-.145 1.368-.307a8 8 0 0 0 .605-.269m1.52-.815v.693c-.152.1-.302.207-.364.223-.364.123-.749.28-1.156.36v-.46a14 14 0 0 0 1.52-.816m3.006-2.67v.849c-.303.296-.639.592-.677.698-.022.067.061.152.101.162.105.04.363.04.576.034v.39a2 2 0 0 0-.213-.027c-.14 0-.162.033-.301.022-.09-.01-.242-.061-.36-.072-.155-.022-.278.005-.395.027-.123.029-1.162.872-1.18.917-.038.117.207.314.247.38.536.95.648 1.419 1.391 1.682.039.011.223.078.531.15.011.024.027.029.016.062-.021.068-.274.084-.301.084-.838-.117-.866.161-1.034.105-.307-.11-.496-.642-.486-.96 0-.061-.133-1.218-.514-1.346-.056-.023-.234.09-.408.206v-.693c.347-.223.615-.435.67-.598.056-.15-.145-.245-.2-.312-.056-.072.01-.134.01-.197-.01-.11-.144-.122-.2-.217a4 4 0 0 1-.218-.508c.022-.017.032-.011.072 0 .067.022.487.435.911.58l.246.09c.296.106 1.296-.87 1.597-1.335.034-.05.08-.111.119-.173m0 .849v-.849c.083-.124.173-.258.211-.37.011-.032.011-.162.006-.25.028-.017.04-.011.068-.022.206.345.312.635.222.899-.05.139-.267.363-.507.592m0 1.285v-.39c.166 0 .307-.007.345.01.09.028.335.224.296.341-.044.11-.396.073-.641.039M70.51 31.069c-.485-.23-1.056-.508-1.151-.52-.045-.005-.101-.016-.157-.022l-.01.089c.324.196.614.442.966.576.112.04.235.095.352.157zm0-.928v.704a.17.17 0 0 1-.079-.072c-.038-.107-.027-.251-.049-.38-.018-.095-.112-.263-.106-.3.005-.04.038-.07.077-.064.056.013.112.05.157.112m0-1.234v.805c-.017.005-.04 0-.05 0-.168-.03-.307-.112-.363-.318-.061-.213-.018-.47-.034-.693-.006-.101-.101-.23-.083-.33.005-.04.032-.067.072-.062.112.017.312.307.458.598m0 .805v-.805c.078.151.14.307.163.413.016.074.016.235.01.274-.01.101-.106.118-.173.118m0 1.133v-.704c.15.179.251.532.24.592-.016.107-.144.135-.19.124a.2.2 0 0 1-.05-.012m1.765 1.269v.721a6.3 6.3 0 0 1-.843-.788 3.6 3.6 0 0 0-.922-.698v-.28c.285.14.542.258.66.308.251.1.715.536 1.105.737m0-3.655v.253a.3.3 0 0 0-.032.077c-.007.034.01.062.032.085v.72a.17.17 0 0 0-.106.118c-.005.016 0 .151.085.162h.021v1.139a.14.14 0 0 1-.083.034l-.173-.029c-.012-.021-.034-.027-.029-.067.006-.005.208-.608.224-.709.04-.274-.386-.419-.363-.541.011-.074.33-.302.374-.565.01-.072.01-.207-.105-.224-.063-.01-.063.04-.13.117-.078.09-.19.168-.234.28a2.2 2.2 0 0 0-.134.509l-.078.525c-.012.067-.151.168-.168.163-.229-.035-.229-.81-.229-.81.044-.28.726-1.293.637-1.342l.056.006a.1.1 0 0 1 .038.1c-.005.039-.072.173-.077.212-.011.05-.017.157.077.168.04.005.067-.011.09-.045.084-.107.19-.218.307-.336m0-2.1v.62a1.2 1.2 0 0 1-.24-.01c-.04-.006-.368-.09-.408-.096s-.167-.011-.268-.027c.29-.152.564-.285.916-.487m.112 5.81v.75a2 2 0 0 0-.112-.084v-.721q.06.033.112.056Zm0-3.251v1.99a.3.3 0 0 1-.112.105v-1.14c.067-.01.107-.111.112-.145.006-.022 0-.123-.072-.134h-.04v-.72a.24.24 0 0 0 .101.044zm0-.558v.234c-.04.039-.083.078-.112.118v-.253q.06-.05.112-.1Zm0-2.063v.671a1 1 0 0 1-.112.011v-.62a.6.6 0 0 0 .112-.062m0 4.61v-1.99c.101.018.128-.027.146-.128.011-.072.011-.173-.067-.24-.028.011-.05.028-.079.045v-.234c.374-.32.845-.604 1.218-.616.101-.005.262-.066.302-.06l.168.028c.128.016.218.285.218.318-.011.04-.146.2-.152.24l-.032.234c-.011.067-.33.699-.336.715l-.034.218c-.005.04-.117.19-.14.285a35 35 0 0 0-.167.789c-.061.245-.095.318-.1.357-.006.04.005.168 0 .208-.023.155-.118.301-.291.273-.206-.028-.251-.257-.425-.486l.006-.05c.022-.017.016-.017.056-.011.04.005.173.122.213.128.184.028.402-.677.44-.9.085-.464.101-.676.107-.715.01-.067.391-.968.418-1.15.011-.085-.032-.191-.139-.208-.1-.01-.899.208-.933.42-.005.039.022.295.011.335-.005.038-.061.117-.067.155-.05.314.425.33.375.666-.028.173-.476.374-.553.586l-.145.76q0 .01-.018.029Zm0 2.012v-.75a1 1 0 0 0 .174.051l.229.034c.01 0 .496.174.642.195.307.045.626-.034.72-.021l.253.038c.016.023.016.04.027.061-.547.123-1.536.604-1.614.592-.124-.016-.274-.094-.43-.2Zm2.655-7.627v.525c-.336.325-1.034.632-1.061.788-.018.14.334.335.312.475-.023.156-.504.19-.626.206-.174.018-.341.135-.514.173l-.028-.05c.179-.123.564-.24.598-.458.005-.039-.028-.262-.017-.302.028-.19.726-.603.76-.792.006-.074-.067-.123-.09-.13-.061-.005-1.078.57-1.391.89-.212.21-.401.312-.598.351v-.67c.018-.012.034-.017.05-.028.593-.336 1.369-.509 1.973-.778.24-.11.262-.306.453-.278a.45.45 0 0 1 .179.078m0 .525c.094-.095.157-.184.173-.28.01-.077-.08-.178-.173-.245zM57.623 28.6q-.006.002-.022-.006c-.05.173-.095.888-.324.928-.145.022-.625-.71-1.067-.632-.04.006-.061.028-.072.067.045.04.978.715 1 .855.034.161-.118.268-.206.459-.157.334-.197.809-.532 1.117-.134.123-.358.446-.508.547-.19.128-.47.301-.593.475.063.028.106.04.146.034.04-.011.184-.112.269-.157 1.68-.939 1.508-1.872 1.848-1.933q.036-.006.061-.005zm0-1.364v.095c-.15.173-.133.475-.48.749-.218.173-.597.195-.837.352-.213.14-.531.419-.592.431-.04.004-.09-.029-.096-.068-.045-.274.386-.614.53-.755.18-.173.347-.502.504-.72.005.022.022.011.027.05.011.046-.045.207-.038.246.022.128.161.089.195.085.062-.012.514-.292.787-.465m0-.921c-.094.067-.195.128-.211.16l.045.035c.054-.034.11-.061.166-.096v-.1Zm0-.66v.335a1.5 1.5 0 0 0-.363.2c-.111.085-.218.203-.328.28-.29.202-.532.32-.767.365l-.061.01c-.022-.017-.022-.005-.028-.044-.005-.006.816-.582.731-1.062-.06-.34-.563-.474-.797-.805.016-.023.032-.045.072-.05.162-.029 1.061.157 1.151.162.374.017.206.486.39.609m0 .76v-.1c.107-.068.208-.152.191-.235a.127.127 0 0 0-.14-.1c-.017.005-.028.005-.05.01v-.335c.044.028.1.04.185.023.038-.006.112-.05.15-.056l.313-.056c.095-.018.217-.235.38-.263.09-.017.597-.011.626.162.016.089-.33.307-.38.318l-.263.045c-.045.005-.146.112-.223.146-.24.117-.52.29-.789.44Zm0 .916v-.095l.096-.056c.178-.118.139-.167.296-.195.296-.05.794-.011.871.453.022.117-.111.25-.167.263-.039.004-.363-.074-.403-.063-.056.005-.211.151-.262.157l-.1.016c-.006-.021-.023-.016-.028-.056-.005-.043.2-.346.195-.39-.016-.1-.162-.173-.25-.157a.38.38 0 0 0-.248.123m2.437 4.057v.464c-.129.05-.369.144-.403.15-.53.095-.586.023-1.307-.542-.128-.1-.296-1.09-.727-1.111v-1.75c.168.039.56.235.587.425l.056.312c.04.213-.42.576-.408.655.034.195 1.414 1.033 1.599 1.134.195.111.402.196.602.263Zm0 .464v-.464c.15.056.295.094.436.128.213.056.397.056.541.184.006.024-.01.045-.027.067l-.252.045c-.006 0-.446-.022-.625.011zm-18.11 2.14v.19a.18.18 0 0 1-.14-.023c-.01-.022-.034-.027-.028-.056.007-.005.01-.016.017-.022l.039-.027q.052-.028.111-.063Zm0-2.744c-.19.124-.19.14-.302.179-.05.034-.157.063-.207.096-.156.06-.262.083-.42.128-.005.006-.01.006-.016.01a.1.1 0 0 1-.028.018c-.004.028.012.067.04.073.044.061.223.034.295.045.191.032.36.061.56.05.016 0 .045-.005.078-.005zm.709 2.074v.469c-.027.022-.056.04-.128.117-.14.096-.235.128-.369.213-.04.005-.151.056-.19.056-.006.005-.017.005-.023.005v-.19c.09-.055.196-.111.275-.156.106-.112.061-.106.094-.146.034-.038.185-.094.18-.128-.007-.022.089-.14.16-.24Zm0-2.135v1.13c-.067.077-.145.122-.172.15-.052.055-.14.357-.247.335 0-.05.022-.19.061-.218.024-.112.085-.168.107-.273.016-.112.005-.28-.078-.386-.05-.011-.061-.062-.106-.072-.062-.03-.085 0-.146-.024-.022.006-.078.006-.129.013v-.594c.006 0 .006-.005.011-.005.09-.022.174-.022.224-.038.096-.029.173-.029.28-.029a.5.5 0 0 1 .195.01Zm0 1.13a.05.05 0 0 0 .023-.024c.05-.061.078-.16.123-.206.061-.073.072-.04.117-.1.112-.129.112-.152.168-.28.05-.107.016-.18-.012-.262-.033-.101-.24-.213-.42-.258zm0 1.474v-.47a.5.5 0 0 0 .056-.077c.034-.034.079-.162.135-.247.043-.072.133-.2.19-.273.06-.09.083-.106.093-.151.09-.062.191-.363.23-.47.068-.083.13-.167.196-.245a1 1 0 0 1 .045-.128c.017-.05.055-.14.11-.157.085-.029.387-.05.443.033.005.034-.056.146-.056.146s-.05.139-.107.234c-.022.04-.056.146-.083.179-.072.078-.145.19-.224.301a3 3 0 0 1-.184.23c-.04.079-.196.34-.245.397-.04.05-.085.1-.125.156a2.5 2.5 0 0 0-.357.436.5.5 0 0 1-.117.106m2.548 2.106a1.4 1.4 0 0 1-.269-.267c-.038-.062-.11-.107-.166-.157-.023-.034-.056-.05-.074-.078-.056-.056-.168-.112-.217-.157-.04-.04-.04-.056-.05-.1-.029-.04-.056-.078-.09-.112.005-.017.005-.028.028-.033.168-.062.145-.235.246-.303 0 0 .224-.29.256-.313.034-.083.029-.139.062-.223.005-.038.012-.078.012-.118a.4.4 0 0 0-.151-.162c-.056.007-.374.23-.392.28-.016.05.023.067.011.117-.033.018-.116.074-.15.096-.023.021-.05.056-.09.061 0-.01-.006-.029-.006-.045-.005-.1.03-.094.035-.134.016-.022.038-.05.056-.078l.032-.156c.023-.112.062-.179.085-.285.01-.157.061-.32.027-.51.063-.037.101-.24.197-.396.055-.105.027-.128.021-.14-.005-.016-.05-.077-.077-.117-.096-.1-.543.285-.515.257-.056.045-.106.09-.162.13-.04.043-.072.088-.112.133-.033.162-.155.296-.218.447-.027.067-.033.134-.072.196.017.167-.14.306-.195.447-.024.072-.05.206-.112.251-.107.01-.179.034-.28.01-.04.013-.106 0-.14.013q-.008 0-.017.011c-.022.061-.056.105-.061.145v.022c.005 0 .005.006.005.006.023.118.107.161.163.302.01.061.128.178.14.24.078.117.11.234.206.386.134.206.336.44.542.419a.26.26 0 0 0 .124-.152c.016-.05.01-.056.016-.128.006-.061.05-.157.062-.24.005-.056-.03-.096-.03-.135-.12-.19-.2-.329-.312-.525.017-.118.146-.217.24-.279.046.006.069-.045.096-.028.022.034-.01.072-.005.112 0-.011.072.419.05.38.005.056.117.105.161.118.05.072.106.133.151.211a.76.76 0 0 1-.139.32c-.017.05-.007.021-.056.122-.05.067-.095.155-.146.224-.04.094-.072.195-.106.29-.117.296-.083.15-.145.334a2.4 2.4 0 0 0-.151.376c-.056.095-.128.178-.23.306-.016.085-.044.185-.06.264.028.049.066.027.117.049.112.057.223.13.33.19.106.023.224-.09.307-.15.01-.051.05-.118.067-.174.023-.038.017-.072.034-.106 0-.14.061-.323.094-.48.029-.107.034-.129.045-.195 0-.05.04-.202.079-.224.027-.112.056-.195.083-.296.062-.207.034-.37.117-.514.074.016.168.357.208.418-.023.134-.218.197-.208.33.134.14.475.28.487.286.017.005.09.05.156.088.016.011.034.011.056.018zm0-1.262v.347a2 2 0 0 1-.218-.045c-.011 0-.073-.067-.039-.112 0-.006.011-.018.022-.023a.7.7 0 0 1 .235-.167m0 2.157v-.895l.022.017c.117.185.23.375.241.587.006.105-.106.257-.106.257s-.09.034-.157.034m.32-2.247v.592l-.113-.083c-.045-.018-.084-.045-.13-.056l-.077-.016v-.347a.9.9 0 0 1 .32-.09m0 .592v-.592c.093-.005.183-.005.277.011.05.011.157.023.213.062.067.028.318.218.341.285 0 .028 0 .061.006.084.01.044.016.078.028.123-.028.145-.14.195-.263.273-.05.012-.1.028-.15.034-.052-.006-.101-.04-.151-.045-.05-.033-.08-.067-.123-.112-.04-.033-.062-.033-.117-.078zm-16.855 8.986q.001.009-.005.007c-.01.016-.083.088 0 .144 0-.005.005-.005.005-.01v.005c-.01 0-.021 0-.039-.011-.027-.028-.022-.056-.005-.073.005.033-.011.033.017.062q.018.009.027.01v.006a.1.1 0 0 1-.044-.023c.012 0 .028.007.044.012v-.13Zm.587-.513v.458c-.24.006-.458.067-.587.195v.006a.1.1 0 0 0 .046-.011c-.013-.006-.03 0-.046 0v.005c.017 0 .04 0 .046-.005q-.024-.008-.046-.006v-.13c.056-.043.376-.272.398-.3l.19-.212Zm2.002 5.084v.18a1 1 0 0 0-.168.028.16.16 0 0 1-.029-.08c.034-.021.107-.066.197-.128m0-4.682v.011c-.013-.01-.018-.023-.035-.029l.035.051v1.236c-.03-.063-.063-.13-.23-.28l-.698-.62c-.224-.196-.677-.325-1.074-.313v-.458l.072-.085c.464-.52 1.432-.005 1.66.197.028.027.095.083.246.262.006.01.017.016.024.028m.933 3.727v.944c-.202.145-.616.152-.934.19v-.179c.18-.111.407-.262.425-.285.162-.184.088-.224.352-.52.05-.056.106-.106.157-.15m0-1.994v.491l-.33-.301c-.08-.069-.185-.224-.258-.298l-.217-.19a.4.4 0 0 1-.128-.166v-1.236q.009.014.027.029c-.011-.018-.017-.035-.027-.05v-.012c.178.24.29.609.418.95.017.045.268.44.515.783m0-3.695v.699c-.202-.28-.41-.605-.37-.648.045-.05.195-.062.37-.05Zm0 6.633v-.944c.323-.252.702-.258 1.045.05.094.084.15 1.503-.023 1.889 0 0-.017.016-.046-.01-.01-.012-.016-.286-.15-.544-.023-.033-.017-.1-.04-.121-.127-.146-.217-.309-.357-.431-.077-.073-.285-.062-.352.034a.3.3 0 0 1-.077.077m1.234 2.347v.185c-.028-.079-.04-.146-.005-.18q-.001-.006.005-.005m0-4.068v.503a11 11 0 0 1-.38-.464l-.854-.765v-.491c.144.2.283.38.384.464zm0-4.426v1.47l-.961-.91a8 8 0 0 1-.273-.347v-.699c.346.022.803.123.826.14l.374.335c.006.006.017.006.034.011m.464 8.326v.772a.53.53 0 0 1-.274-.09 1.3 1.3 0 0 1-.19-.328v-.186c.073-.078.284.034.425-.123.01-.016.027-.027.04-.045Zm0-3.626v.816a.95.95 0 0 0-.245-.392l-.213-.19q-.007.001-.006-.005v-.503l.056.05c.062.056.228.14.408.224m0-1.933h-.018l-.005-.067c-.016.022-.027.056.005.083-.032-.027-.021-.061-.01-.083.005.022.005.061.016.072 0 0 .007-.005.012-.005m0-.352v.352h-.018l-.005-.067c-.016.022-.027.056.005.083q.01.01.018.011v-.005h-.005c-.074-.067-.04-.212.005-.374m0-2.532v.184c-.1-.016-.19-.006-.235.045-.055.068.017.162.055.202.023.016.063.072.18.15v1.359c-.074-.085-.106-.096-.135-.119a2 2 0 0 0-.28-.19l-.049-.045v-1.469c.073.005.257-.045.464-.117m0 2.884c.011-.006.022-.022.038-.056.007.027-.005.072-.016.083.01-.01.01-.049.01-.049-.01.01-.026.016-.032.022m.062 5.476v.86q-.037-.006-.062-.005v-.772a1 1 0 0 0 .062-.083m0-3.516v1.029a3 3 0 0 0-.062-.24v-.816q.025.009.062.027m0-2.57q-.027.129-.062.258v.352c.006-.006.022-.011.033-.022 0 0 0 .038-.011.05 0 0-.006.011-.022 0v-.006c.022.023.038.01.038.01l.024-.077zm0-.061v.034a.1.1 0 0 1-.017.032.3.3 0 0 0 .017-.066m0-1.593v1.42c-.006-.017-.011-.033-.024-.044l-.038-.056v-1.36c.016.012.038.03.062.04m0-.648v.224a.3.3 0 0 0-.062-.012v-.184c.016-.011.038-.017.062-.027Zm0 2.275a.2.2 0 0 0 .016-.101l-.016.067zm.056 6.001v.973h-.056v-.861a.4.4 0 0 0 .056-.112m0-3.38v3.084a2.3 2.3 0 0 1-.03-.453c0-.475.068-1.117-.026-1.626v-1.029c.016.007.032.018.056.023Zm0-4.215v2.029c-.024.05-.04.106-.056.157v-.565a.5.5 0 0 0 0-.235V43.04a.4.4 0 0 0 .056.033Zm0-.698v.252q-.034-.009-.056-.01v-.224zm.373 5.102v1.045c-.05-.067-.117-.195-.207-.089-.067.073.084.33.09.341.05.167.085.363.117.57v2.252a1.4 1.4 0 0 1-.373.045v-.973c.021-.083.01-.168 0-.296v-3.085c.178.084.34.163.373.19m0-5.281v2.644a.39.39 0 0 0-.312.123.6.6 0 0 0-.061.139v-2.029l.01.012c.168.095.208.039.291-.055.112-.123.078-.191-.034-.286a1 1 0 0 0-.267-.117v-.252c.133-.055.267-.118.373-.179m.168 8.086v1.258q-.075.032-.168.056v-2.253c.056.314.101.648.168.939m0-2.666v.968l-.123-.017a.2.2 0 0 1-.045-.045v-1.045l.152.134s.005.005.016.005m0-5.525v2.816a.3.3 0 0 0-.168-.067v-2.644c.056-.033.107-.06.14-.089.012-.005.017-.01.028-.016m0 2.816V42.09a.12.12 0 0 1 .096.027c.133.118.19 1.184.256 1.375.067.196-.078.352-.05.564a.54.54 0 0 0 .1.235l.163.146c.29.256.312 1.781.301 1.949-.04-.072-.648-1.29-.85-1.47q-.007-.009-.016-.01m0 3.677v-.968c.078.04.352.152.392.191.117.101.318.448.178.609-.095.1-.352.173-.57.168m0 2.956V50.28q.027.119.061.218c.04.14.376.648.157.894a.6.6 0 0 1-.218.146Zm2.05-6.398v1.039l-.021.016c-.029.035-.202.32-.224.352-.112.123-.134.174-.346.219-.017-.017-.035-.056-.006-.089.029-.029.101-.063.123-.09.14-.157.162-.408.262-.587.052-.1-.044-.296-.105-.408-.017-.028-.04-.112-.013-.14.007-.006.231-.161.247-.184.011-.011.045-.067.084-.128Zm0 1.039c.067-.056.18-.056.264.016.184.163.368 1.006.374 1.006.028.029.04.012.061.012l.08-.084c.222-.257-.18-1.257-.192-1.336l.258-.29c.089-.095.117-.458 0-.566-.117-.099-.498-.245-.715 0-.017.018-.079.12-.13.203zm-3.173 18.513v1.252q-.043-.622-.061-1.252zm0-2.66v1.359h-.068q.01-.687.05-1.365zm.464 5.286v1.352l-.157.023a27 27 0 0 1-.184-1.346zm0-2.626v1.32l-.458.037c-.006-.032-.006-.072-.006-.105v-1.252zm0-2.62v1.319h-.464v-1.36zm0-2.656v1.348l-.38-.034q.074-.681.173-1.352zm.061 7.897v1.346l-.06.011V67.32l.06-.005Zm0-2.62v1.311l-.06.007v-1.319zm0-2.616v1.314h-.06v-1.32zm0-2.648v1.34l-.06-.005v-1.348zm0-1.6v.275l-.05-.01.05-.264Zm.056 12.144v.2c-.017-.066-.028-.128-.045-.194zm0-2.666v1.341l-.056.011v-1.346zm0-2.615V66l-.056.005v-1.312zm0-2.61v1.309h-.056v-1.314zm0-2.642v1.335l-.056-.007v-1.34zm0-1.867v.542l-.056-.01v-.275c.017-.083.033-.173.056-.257m.374 12.333v1.369l-.117.028c-.089-.375-.179-.749-.257-1.13v-.2zm0-2.633v1.309l-.374.067v-1.342zm0-2.58v1.273L34.01 66v-1.307h.374Zm0-2.577v1.275h-.374v-1.309zm0-2.61v1.302l-.374-.033v-1.335l.374.067Zm0-2.687v1.363l-.374-.067v-.542c.056-.274.112-.543.18-.81zm.168 13.059v1.352l-.168.045v-1.369zm0-2.616v1.285l-.168.035v-1.309l.168-.01Zm0-6.007v5.231l-.045-.53-.123.01v-1.274h.05v-1.301h-.05v-1.275l.09.006.078-.866Zm0-1.721v1.285l-.168-.01v-1.302zm0-2.671v1.348l-.168-.03V56.82zm0-1.491v.139l-.033-.011zm2.05 22.122v.078l-.032-.061zm0-25.436v5.833a28.1 28.1 0 0 0 0 11.954v6.213l-.592.274a31 31 0 0 1-.53-1.252l1.01-.369-.44-1.224-1.023.369c-.145-.424-.285-.86-.414-1.296l1.04-.28-.336-1.256-.765.206v-1.352l.475-.084-.224-1.285-.25.038v-1.285l.066-.01-.067-.766v-5.23l.04-.43-.04-.007v-1.285l.19.034.223-1.285-.413-.072v-1.348l.677.178.334-1.256-1.01-.274v-.14c.11-.391.234-.783.362-1.167l1.018.368.446-1.224-1.022-.373q.245-.639.514-1.258zm0-1.9v.458l-.19-.084c.062-.124.124-.252.19-.375ZM41.95 81.15v3.951a33 33 0 0 1-.916-.99l.816-.687-.833-1-.826.693q-.43-.529-.833-1.073l.877-.614-.748-1.068-.89.62a31 31 0 0 1-.731-1.14l.927-.542-.653-1.128-.933.542a22 22 0 0 1-.605-1.14v-.079l.94-.436-.548-1.184-.392.184v-6.213A27.8 27.8 0 0 0 41.95 81.15m0-38.044v3.482a27.8 27.8 0 0 0-5.347 11.304V52.06l.247.112.547-1.18-.794-.374v-.459q.21-.42.436-.832l.933.536.648-1.128-.933-.542c.23-.391.475-.772.72-1.151l.885.614.747-1.067-.888-.615c.269-.369.542-.731.827-1.083l.816.687.839-1.001-.827-.692c.301-.342.603-.677.915-1.007l.23.23Zm.71 38.91v2.386l-.699.704c-.005 0-.01-.005-.01-.005v-3.95c.229.295.469.586.709.865m0-38.569v2.275c-.24.28-.48.57-.71.866v-3.482l.526.526zm0-1.52v.046l-.022-.023c.01-.006.016-.017.022-.022Zm2.548 45.476v.61c-.106-.08-.211-.157-.312-.24zm0-2.778v2.012l-.626-.525-.686.827a32 32 0 0 1-1.012-.91l.754-.76-.915-.922-.063.056v-2.387a28 28 0 0 0 2.548 2.609m0-43.519v2.006a27 27 0 0 0-2.548 2.61v-2.275l.738-.738-.738-.736v-.045c.32-.307.644-.61.973-.9l.693.815zm0-1.386v1.152l-.58-.688q.286-.236.58-.464m.32 47.298v1.245l-.32-.25v-.61zm0-2.108v1.996l-.32-.269v-2.012zm0-45.435v3.352l-.32.285v-2.006l.112-.1-.112-.134V39.72c.107-.077.213-.162.32-.245m4.721 48.767v2.944c-.308-.15-.615-.313-.917-.475l.537-.933-1.129-.654-.543.939c-.384-.235-.77-.476-1.144-.727l.614-.877-1.067-.75-.62.885q-.227-.162-.453-.33v-1.246l.055-.068-.055-.044V84.91a28 28 0 0 0 4.722 3.332m0-51.651v2.906a27.8 27.8 0 0 0-4.721 3.33v-3.352c.06-.045.117-.085.171-.128l.616.877 1.073-.744-.62-.888c.368-.258.754-.503 1.14-.738l.536.933 1.129-.653-.542-.939c.395-.218.798-.431 1.2-.638zm4.917 53.813v2.727a32 32 0 0 1-.955-.303l.368-1.01-1.223-.448-.369 1.017c-.424-.162-.844-.33-1.258-.514l.453-.973-1.184-.552-.458.984q-.142-.07-.29-.146V88.24a27.7 27.7 0 0 0 4.916 2.163Zm0-55.797v2.727a27.6 27.6 0 0 0-4.917 2.163V36.59l.44.944 1.18-.553L51.41 36q.621-.277 1.257-.531l.37 1.016 1.224-.446-.376-1.017c.426-.145.85-.286 1.28-.414Zm2.458 56.478v2.665a39 39 0 0 1-.848-.19l.274-1.039-1.258-.34-.28 1.05-.346-.1v-2.727q1.209.395 2.458.68Zm0-57.097v2.664q-1.25.286-2.458.682v-2.727q.009.001.016-.005l.28 1.045 1.263-.341-.285-1.045q.59-.15 1.184-.273m2.437 57.539v2.626a28 28 0 0 1-.67-.089l.184-1.057-1.285-.228-.184 1.067c-.162-.034-.32-.062-.482-.096v-2.665q1.198.276 2.437.442m0-57.942v2.627a26 26 0 0 0-2.437.44v-2.664q.075-.02.14-.029l.19 1.061 1.286-.229-.19-1.066c.336-.051.67-.102 1.01-.14Zm2.431 58.17v2.605c-.15-.005-.301-.017-.453-.023l.09-1.067-1.297-.117-.094 1.078c-.224-.022-.453-.044-.677-.078v-2.626q1.2.168 2.431.229Zm0-58.377v2.604c-.821.038-1.632.118-2.431.23v-2.627q.168-.024.335-.04l.096 1.068 1.301-.112-.094-1.078c.262-.016.53-.034.793-.045M65.6 91.734v2.609c-.303.017-.6.028-.9.04V93.31h-1.303v1.078q-.452-.01-.905-.028v-2.604c.464.022.922.034 1.386.034.581 0 1.151-.018 1.722-.056m0-58.34v2.61a28 28 0 0 0-3.108-.022v-2.604c.19-.011.374-.016.565-.022v1.072h1.301V33.35q.62.012 1.242.045Zm3.032 57.994v1.536l-.117.021.118.666v.414c-.425.061-.849.122-1.273.167l-.096-1.068-1.301.118.094 1.073c-.15.011-.307.022-.457.028v-2.609a28 28 0 0 0 3.032-.346m0-56.574v1.537a28 28 0 0 0-3.032-.347v-2.61c.038 0 .078.006.117.006l-.095 1.068 1.301.117.096-1.084q.676.074 1.346.173l-.184 1.061zm0 59.21q.034-.009.074-.01l-.073-.403zm1.88-3.028v2.671c-.174.038-.347.078-.526.11l-.184-1.054-1.17.2v-1.535a30 30 0 0 0 1.88-.392m0-56.925v2.671a29 29 0 0 0-1.88-.391v-1.536l.829.144.19-1.067c.29.056.575.112.86.179Zm1.764 56.433v1.593l-1.245.336.285 1.045c-.269.066-.536.133-.805.19v-2.672a26 26 0 0 0 1.765-.492m0-55.992v2.721a26 26 0 0 0-1.765-.49V34.07q.234.05.47.106l-.28 1.04 1.258.34.283-1.05c.013 0 .024.005.034.005Zm.112 55.953v2l-.095-.368h-.017v-1.593c.04-.011.08-.028.112-.039m0-55.92v2.728c-.032-.018-.072-.029-.112-.04v-2.721l.112.034Zm2.655 54.92v2.67l-.325-.883-1.223.448.37 1.016q-.638.227-1.293.42l-.184-.67v-2a26 26 0 0 0 2.655-1Zm0-54.013v2.816a28 28 0 0 0-2.655-.995v-2.727c.392.112.771.234 1.152.363l-.365 1.012 1.226.446.368-1.022c.089.04.184.072.274.107m8.56 48.178v2.471l-.172-.207-.995.839.693.826q-.528.43-1.073.833l-.62-.878-1.068.75.62.882q-.562.387-1.14.738l-.536-.928-1.128.648.541.939a26 26 0 0 1-1.202.637l-.458-.973-1.179.549.459.984q-.62.277-1.258.53l-.044-.135v-2.67a28 28 0 0 0 8.56-5.835m0-42.523-.436.52-.994-.84.687-.821a22 22 0 0 0-1.084-.821l-.62.882-1.068-.749.615-.877c-.375-.25-.76-.491-1.145-.726l-.542.939-1.128-.653.536-.934a24 24 0 0 0-1.208-.62l-.463.983-1.18-.554.454-.978a32 32 0 0 0-.984-.406v2.816a28.1 28.1 0 0 1 8.56 5.838zm1.52 40.875v2.275l-.772.77.767.76c-.325.32-.659.626-.994.928l-.52-.614v-2.47a26 26 0 0 0 1.52-1.649Zm0-38.68v2.454q-.721-.854-1.52-1.65v-3l.263-.308q.511.444 1.007.911l-.76.76.92.923zm3.007 34.41v2.846l-.413.592.413.29v.961q-.169.227-.346.453l-.828-.688-.838.995.832.698q-.445.514-.915 1l-.756-.752-.155.15v-2.275a28 28 0 0 0 3.006-4.27m0-32.382v.549l-.61.43.61.871v2.845a28 28 0 0 0-3.006-4.27v-2.452l.675-.677q.47.492.922 1l-.821.688.839 1 .827-.693c.195.234.379.47.564.71Zm0 .549v-.549q.142.183.273.358zm0 36.522v-.96l.475.328q-.234.321-.475.632m3.33-14.17v5.929l-.084.228.085.034v1.402l-.554-.256-.553 1.178.99.459a48 48 0 0 1-.621 1.213l-.939-.543-.654 1.13.945.54q-.351.59-.726 1.152l-.884-.615-.335.476v-2.846a27.6 27.6 0 0 0 3.33-9.481m0-16.692-.698.325-.548-1.18.978-.459a36 36 0 0 0-.637-1.2l-.944.541-.648-1.128.933-.543q-.36-.577-.738-1.14l-.888.622-.14-.197v2.845a27.6 27.6 0 0 1 3.33 9.483v-5.93l-.201-.552.202-.074zm0 1.413V51.54l.291-.134q.275.613.525 1.251zm.856 21.777v.257c-.14.347-.28.694-.431 1.033l-.424-.195v-1.402zm0-20.698V55.4l-.213.056.213.794v15.244l-.13.458.13.033v1.359l-.492-.179-.363.995v-5.93a28.3 28.3 0 0 0 0-8.722v-5.93l.245.677zm0 1.369v-1.37l.413-.151c.15.426.285.86.414 1.297zm0 17.944v-1.359l.926.252c-.122.436-.262.867-.4 1.297zm0 1.642v-.257l.083.034a6 6 0 0 0-.083.223m1.576-15.92v1.351l-.755.069.11 1.296.645-.056v1.318l-.57.007-.007 1.301h.577v1.32l-.616-.057-.111 1.296.727.067v1.347l-.878-.15-.23 1.28 1.074.189q-.134.669-.285 1.33l-1.046-.28-.211.8V56.25l.123.464 1.05-.28q.166.654.302 1.325l-1.062.19.223 1.279.94-.163Zm0 1.351v-1.352l.128-.021q.108.669.184 1.346zm0 7.908v-1.347l.352.029c-.045.453-.107.904-.168 1.352zm.474-3.973v1.034c-.006.107-.01.213-.023.324l-.451-.039v-1.319zm0-2.023v.715h-.474v-1.318l.435-.04c.01.213.029.431.04.643Zm0 .715v-.715c.011.241.022.476.028.715zm0 2.342v-1.034h.033a33 33 0 0 1-.032 1.034ZM67.388 87.779q0 .285.13.44.131.156.3.156.163 0 .272-.127.107-.126.108-.417 0-.299-.117-.437a.36.36 0 0 0-.291-.139.37.37 0 0 0-.287.134q-.115.131-.115.39m1.327-1.277-.568.062a.4.4 0 0 0-.107-.258.32.32 0 0 0-.228-.084.38.38 0 0 0-.314.167q-.128.165-.161.694a.68.68 0 0 1 .544-.259.83.83 0 0 1 .628.28q.262.279.262.72 0 .471-.276.753a.94.94 0 0 1-.705.284.94.94 0 0 1-.761-.36q-.299-.359-.298-1.179 0-.84.31-1.21a1 1 0 0 1 .806-.371q.349 0 .577.195.228.194.29.566Zm-3.874.32q0-.283-.13-.44a.39.39 0 0 0-.302-.156.34.34 0 0 0-.27.129q-.106.127-.108.42 0 .294.118.434a.37.37 0 0 0 .292.138.37.37 0 0 0 .285-.133q.114-.133.115-.391Zm-1.325 1.28.566-.062q.02.172.11.256a.32.32 0 0 0 .23.083.38.38 0 0 0 .308-.166q.129-.168.162-.693a.7.7 0 0 1-.55.258.83.83 0 0 1-.623-.279q-.262-.278-.262-.724 0-.465.276-.75a.94.94 0 0 1 .704-.284q.464 0 .762.359.299.36.298 1.182 0 .839-.31 1.21a1 1 0 0 1-.809.37q-.358 0-.58-.19-.22-.191-.282-.57m-2.618-1.532a.37.37 0 0 0 .1.273.36.36 0 0 0 .263.098.36.36 0 0 0 .267-.1.37.37 0 0 0 .1-.272.36.36 0 0 0-.099-.265.36.36 0 0 0-.262-.098.36.36 0 0 0-.268.1.36.36 0 0 0-.101.264m-.054 1.309q0 .241.123.377.126.135.31.136a.4.4 0 0 0 .3-.13q.12-.13.12-.377a.5.5 0 0 0-.121-.345.4.4 0 0 0-.307-.13q-.214 0-.32.148a.54.54 0 0 0-.105.32Zm-.066-.718a.7.7 0 0 1-.33-.265.7.7 0 0 1-.104-.368q0-.342.239-.565t.678-.222q.435 0 .676.222.24.223.24.565a.65.65 0 0 1-.11.378.7.7 0 0 1-.31.255q.255.1.386.297a.8.8 0 0 1 .133.453q0 .421-.27.687-.27.265-.718.264-.417 0-.694-.218a.86.86 0 0 1-.328-.708q0-.25.124-.456a.78.78 0 0 1 .388-.319m-2.232 1.648h-.585v-2.207a2 2 0 0 1-.758.443v-.53q.23-.077.498-.286.27-.21.37-.488h.475zm26.577-11.487v-5.71l.76-.308v-2.359l-.755-.43h-.005v-4.017l.76-.308v-2.358l-.755-.436-.005.005v-3.995h.837v1.867c-.128.01-.25.027-.373.04v.781l1.022.581-.005 4.666-1.017.413v1.453l1.022.587-.005 4.66-1.017.414v4.454zm0-19.915V61.4l-.755.431v2.358l.755.308v4.018l-.755.43v2.358l.755.307v5.71h-.525v-4.464l-.984-.403V67.79l.984-.558v-1.493l-.984-.397v-4.666l.984-.56v-.68c-.336.05-.666.105-.995.173v-2.201h1.52Zm-1.521 0v2.201c-2.57.53-4.923 1.525-6.945 2.653v-4.855h6.945Zm-31.616-8.55h8.18v2.397h-8.18zm0 2.631h8.18v2.285h-8.18zm0 2.594h8.18v2.285h-2.871l-3.058-1.246-.413 1.246h-1.838zm8.65-13.367h3.973v15.138h-3.973zm4.963.078h2.743v15.06H65.6zm6.023 1.57-2.604 1.079-.022 5.052 3.067 7.415 3.382-.017 1.725-1.62-5.548-11.91Zm4.157 20.402-1.48.965v-6.96h1.48zm-32.164-5.99h4.247v6.66L43.62 60.92l-.006-4.145Zm4.855-.005h5.16l-2.61 8.392-2.55-1.458zm4.147 21.104H73.65v5.193H52.617zm18.91-1.106v-1.793l-1.973-2.436H56.322l-1.893 2.436v1.793zm-2.117-7.426H56.863v2.085h12.545v-2.085ZM57.222 56.77h15.87v7.817a26 26 0 0 0-3.906 3.425H55.997l-1.848-1.056z" fill="#1a5aa9"/><path d="m54.813 56.2 1.364.57-7.125 22.748 1.983.894-.424 1.01a7 7 0 0 1-3.33-.171 7 7 0 0 1-.604-.213l-1.553-.743.894-1.984 1.597.626zm-4.711-8.02h10.08V41.9a8.6 8.6 0 0 1-2.415 1.774 8.7 8.7 0 0 1-2.602.802c-.32.023-.712.072-1.151.175 0 0-.597.138-1.183.379-1.32.543-2.456 1.595-2.729 1.854zm26.555 9.227h9.303v1.866q-.911.076-1.896.248c-3.035.535-5.522 1.642-7.407 2.74z" fill="#1a5aa9"/></svg>