<svg xmlns="http://www.w3.org/2000/svg" viewBox="0 0 128 36.9"><defs><style>.cls-1{fill:#005093;fill-rule:evenodd}</style></defs><g id="_图层_1" data-name="图层_1"><path class="cls-1" d="M17.8 23.4v-.2c-.2 0-.2 0-.2-.1h-.1v.4c.1 0 .4-.2.4-.2Zm-.5.3v-.2H17v.3c.1 0 .3-.1.3-.1m-.2.7-.4-.7c0-.1-.1-.2 0-.3 0 0 0-.2.1-.2h.4v-.3s0-.1.1-.2h.4l.1.1s.1.1.1.2l.4.6zm-1-1.7-.4-1.1h.3c0-.1.3.6.3.6h.2l-.3-.7h.3c0-.1.3.5.3.5h.3c0-.1-.3-.8-.3-.8h.3c0-.1.4 1 .4 1l-1.3.5Zm-.7-1.7v-.4c-.1 0 1.3-.3 1.3-.3v.4c.1 0-1.3.3-1.3.3m-.3-1.7v-.4h1.1s.2 0 .2.2c0 0 .1.2.1.3v.3s0 .1-.1.2h-.3v-.4H15Zm0-1.2v-.4h1.4v.4zm.1-1.1v-.4l1-.3-.8-.2v-.4l1.5.3v.4l-.9.3.8.2v.4l-1.5-.3Zm1.6-2.3h-.3c0-.1.3-.7.3-.7l.5.2v.4c0 .1 0 .2-.1.3 0 .1-.1.2-.2.3 0 0-.2.1-.3.1h-.4q-.15 0-.3-.3c0-.1-.1-.2-.1-.4v-.4c0-.1.1-.2.2-.3 0 0 .1 0 .2-.1h.2v.4h-.3l-.1.1v.2l.2.2h.3s.2 0 .2-.2v-.3h-.1l-.1.2Zm.5-2.5.3-.3h.9c0 .1-.6-.4-.6-.4l.3-.3 1 .9-.3.3H18c0-.1.6.4.6.4l-.3.3zm2.2-1.1c0 .1.2.2.2.2h.2s.1-.1.1-.2c0 0 0-.2-.1-.3 0-.1-.2-.2-.2-.2h-.2s-.1.1-.1.2c0 0 0 .2.1.3m-.4.2c-.1-.2-.2-.4-.1-.5 0-.2.1-.3.3-.5.2-.1.4-.2.5-.2.2 0 .3.1.5.3 0 .1.1.3.2.4v.3c0 .1-.2.2-.3.3-.1 0-.2.1-.4.2h-.3c-.1 0-.2-.2-.3-.3Zm2.1-1.4h.2v-.1H21l.1.3Zm-.1 1-.5-1.3.7-.3h.5s.1.1.1.2v.4l-.1.1h.1l.4.3-.5.2-.4-.3h-.2l.2.5-.4.2Zm1.3-2h.6c0-.1.4.7.4.7v-.9l.6-.1.3 1.4H24l-.2-1v1.1h-.4l-.5-1 .2 1h-.3l-.3-1.3Zm3.1.5v-.5c-.1 0-.3.5-.3.5zm.1.4h-.5v.2h-.4l.6-1.4h.5l.5 1.4h-.5v-.3Zm1.1-1.1h.4l-.2 1.1.7.2v.3l-1.2-.3.3-1.4Zm3.4 1.3.4.2-.4.7s0 .1-.1.2c0 0-.1 0-.2.1h-.2c-.1 0-.2 0-.3-.1 0 0-.1 0-.2-.1 0 0-.1 0-.1-.2v-.6l.4-.7.4.2-.4.7v.2s0 .1.1.1h.2s.1 0 .1-.1l.4-.7Zm1.1.7.3.3v.9c-.1 0 .4-.6.4-.6l.3.3-.9 1-.3-.3v-.9c.1 0-.4.6-.4.6l-.3-.3zm1.4 1.5.3.3-1.1.9-.3-.3zm.6.8.2.4-.7.8 1-.2.2.4-1.5.2-.2-.4 1-1.1Zm1 1.8.4 1.1h-.3l-.2-.6h-.2l.2.7h-.3l-.2-.5h-.3l.2.8h-.3l-.4-1 1.3-.4Zm0 2.4v.3-.4h-.3Zm-.9-.4 1.4-.2v.7q.15.15 0 .3s0 .1-.1.2h-.4s-.1 0-.2-.1v-.1.1l-.4.3v-.5l.3-.3v-.1h-.6v-.4Zm.7 1.7v.4h-.2v.3-.2c0-.2.1-.3.2-.4 0 0 .2-.1.3 0h.2s.1.1.1.2v.3c0 .2 0 .3-.1.4 0 0-.2.1-.3.1v-.4h.1V19v.1c0 .1 0 .3-.2.4 0 0 0 .1-.2.2h-.5l-.2-.2v-.3c0-.2 0-.4.2-.5.1 0 .2-.1.4-.1Zm.7 2v.4l-1.5-.3v-.4zm-.3 1-.5 1.2h-.3c0-.1.2-.5.2-.5l-1-.4.2-.4 1 .4.2-.4h.3v.1Zm-.7 1.7-.3.4h-.5l.2.5-.3.4-.4-.9-.5-.3.2-.4.5.3h1Z"/><path class="cls-1" d="M25 10.5c-4.3 0-7.9 3.5-7.9 7.9s3.5 7.9 7.9 7.9 7.9-3.5 7.9-7.9-3.5-7.9-7.9-7.9m7.4 7.8c0 4.1-3.4 7.5-7.5 7.5s-7.5-3.4-7.5-7.5 3.4-7.5 7.5-7.5 7.5 3.4 7.5 7.5"/><path class="cls-1" d="M25 7.5c-6 0-10.9 4.9-10.9 10.9S19 29.3 25 29.3s10.9-4.9 10.9-10.9S31 7.5 25 7.5m10.4 10.9c0 5.7-4.6 10.4-10.4 10.4s-10.4-4.7-10.4-10.4S19.3 8 25 8s10.4 4.7 10.4 10.4"/><path class="cls-1" d="M22.8 28h-.2l.2-1.1c-.1 0-.3.1-.4.1v-.2c.1 0 .2 0 .3-.1 0 0 .1 0 .2-.2h.1l-.2 1.4Zm1.6-.8V27H24s-.1.1-.1.2v.2h.4v-.2Zm-.8.5h.2v.2h.2c.1 0 .2 0 .3-.1v-.4s-.2.1-.4.1c-.1 0-.2 0-.3-.2 0 0-.1-.2 0-.4 0-.1 0-.3.2-.3 0 0 .2-.1.3-.1.2 0 .4.1.4.3v.8c0 .2-.3.3-.5.3-.1 0-.2 0-.3-.1 0 0-.1-.2-.1-.3Zm1.6-.3c0 .2 0 .4.1.5 0 .1.3.1.4 0v-.5c0-.2 0-.4-.1-.5s-.1-.1-.2-.1c0 0-.2 0-.2.1zm-.2 0V27s0-.2.2-.2h.5s.1 0 .2.1c0 0 0 .1.1.2v.7s0 .2-.2.3c0 0-.2.1-.3.1s-.3 0-.4-.1-.2-.3-.2-.6Zm2.5.3v.2c-.4 0-.7.1-1.1.2V28s0-.1.1-.2c0 0 .1-.2.2-.2.1-.2.2-.3.3-.4V27s0-.1-.1-.2h-.2s-.1 0-.2.1v.2h-.2c0-.1 0-.2.1-.3 0 0 .2-.1.3-.2h.3s.2.1.2.3v.4c0 .1-.2.2-.2.3s-.2.2-.2.2v.1c.3 0 .5 0 .8-.1Zm-1-11.1h-.3v.3h.2v-.2h-.2v.1h.3-.3v-.2zv.2h-.3v.3h.3v-.4h-.2v.2h.2-.1v-.1h.2v.2h-.3v-.3h.3c.1-.1 0-.2 0-.2v-.2Zm.6-.2h-.3v.3h.2v-.2h-.2v.1h.3-.3v-.2zv.2h-.3v.3h.3v-.4h-.2v.2h.2v-.1H27v-.1h.2v.2h-.3v-.3h.3c.1 0 0 0 0-.1v-.2Zm.5-.2h-.3v.4h.3v-.3h-.2v.1h.3-.3v-.2h.3q0-.15 0 0v.2h-.3v.4h.3v-.4h-.2v.3h.2-.1.2c0-.1 0 0 0 0v.2h-.3v.1-.3h.3v-.4Zm-1 2.2h-.3v.3h.3v-.2h-.2v.1h.3v.1h-.3v-.2h.3v.2h-.3v.3h.3v-.4h-.2v.2h.2-.1.2v.2h-.3v-.3h.3c.1-.1 0-.2 0-.2v-.2Zm.6-.1h-.3v.3h.3v-.2H27v.1h.3-.3v-.2h.3v.2H27v.3h.3v-.4h-.2v.2h.2-.1.2v.2h-.3v-.3h.3c.1-.1 0-.2 0-.2v-.2Zm.5-.2h-.3v.4h.3v-.3h-.2v.1h.3-.3v-.2h.3q0-.15 0 0v.2h-.3v.4h.3v-.4h-.2v.3h.2-.1.2v.2h-.3v.1-.3h.3v-.4Zm-4.3-1.5v.2h.3v.3h-.3v-.3h.2-.1v.1h.2v-.2h-.2v.2h.3v-.3h-.3v-.3h.3v.2h-.3.3v-.1h-.2v.2h.3v-.2h-.3Zm-.5-.2v.3h.3v.3h-.3v-.3h.2-.1v.1h.2v-.2H23v.2h.3v-.3H23v-.2h.3v.3H23v-.1h.3v-.1h-.2v.2h.3v-.2h-.3Zm-.6-.2v.3h.3v.4h-.3v-.4h.2v.1h-.1v.1h.2v-.2h-.2q0-.15 0 0v.2h.3v.1-.3h-.3v-.4h.3v.3h-.3v-.1h.3v-.1h-.2v.2h.3q0 .15 0 0v-.2h-.3s0-.1 0 0Zm1 2.2v.2h.3v.3h-.3v-.3h.2-.1v.1h.2v-.2h-.2v.2h.3v-.3h-.3v-.2h.3v.2h-.3.3v-.1h-.2v.2h.3v-.2h-.3Zm-.6-.1v.2h.3v.3h-.3v-.3h.2-.1v.1h.2v-.2h-.2v.2h.3v-.3h-.3V18h.3v.3h-.3v-.1h.3v-.1h-.2v.2h.3v-.2h-.3Zm-.5-.2v.3h.3v.4h-.3v-.4h.2v.1h-.1v.1h.2v-.2h-.2c0-.1 0 0 0 0v.2h.3v.1-.3h-.3V18h.3v.3h-.3v-.1h.3v-.1h-.2v.2h.3s0 .1 0 0v-.2h-.3s0-.1 0 0Zm.4-2.6c-.1 0-.2 0-.2.1 0 0 0 .2.2.2.1 0 .2 0 .2-.1 0 0 0-.2-.2-.2m.5.2c-.1 0-.2 0-.2.2s0 .2.2.2c.1 0 .2 0 .2-.2 0 0 0-.2-.2-.2m.5.2c-.1 0-.2 0-.2.1 0 0 0 .2.2.2.1 0 .2 0 .2-.1 0 0 0-.2-.2-.2m4-.2s-.1-.1-.2-.1-.2.1-.2.2c0 0 .1.1.2.1s.2-.1.2-.2m-.5.2s-.1-.2-.2-.2-.2 0-.2.2c0 0 .1.2.2.2s.2 0 .2-.2m-.5.1s-.1-.1-.2-.1-.2.1-.2.2c0 0 .1.1.2.1s.2-.1.2-.2m1.1 1.5s-.1-.1-.2-.1-.2.1-.2.2c0 0 .1.1.2.1s.2-.1.2-.2m-.5.2s-.1-.2-.2-.2-.2 0-.2.2c0 0 .1.2.2.2s.2 0 .2-.2m-.6.1s-.1-.1-.2-.1-.2.1-.2.2.1.1.2.1.2-.1.2-.2m1.2 1.5s-.1-.1-.2-.1-.2.1-.2.2.1.1.2.1.2-.1.2-.2m-.5.2s-.1-.2-.2-.2-.2 0-.2.2c0 0 .1.2.2.2s.2 0 .2-.2m-.5.1s-.1-.1-.2-.1-.2.1-.2.2c0 0 .1.1.2.1s.2-.1.2-.2m-4.3-2.2c-.1 0-.2 0-.2.1 0 0 0 .2.2.2.1 0 .2 0 .2-.1s0-.2-.2-.2m.5.2c-.1 0-.2 0-.2.1 0 0 0 .2.2.2.1 0 .2 0 .2-.1 0 0 0-.2-.2-.2m.6.1c-.1 0-.2 0-.2.1 0 0 0 .2.2.2.1 0 .2 0 .2-.1 0 0 0-.2-.2-.2m-1.3 1.5c-.1 0-.2 0-.2.1s0 .2.2.2c.1 0 .2 0 .2-.1s0-.2-.2-.2m.6.2c-.1 0-.2 0-.2.2 0 0 0 .2.2.2.1 0 .2 0 .2-.2 0 0 0-.2-.2-.2m.5.1c-.1 0-.2 0-.2.1 0 0 0 .2.2.2.1 0 .2 0 .2-.1 0 0 0-.2-.2-.2"/><path class="cls-1" d="M27.8 16c-.6.3-1.8.5-1.8.5s1.1-.1 1.8-.4v.9s-.9.4-1.7.5c.9-.1 1.8-.5 1.8-.5v-1.1Zm-5.6 0c.6.3 1.8.5 1.8.5s-1.1-.1-1.8-.5v.9s.9.4 1.7.5c-.9-.1-1.8-.5-1.8-.5v-1.1Zm5.7 1.9c-.6.3-1.9.5-1.9.5s1.2-.1 1.9-.4v.9s-1 .4-1.8.5c.9 0 1.9-.5 1.9-.5v-1.1Zm-5.8 0c.6.3 1.9.5 1.9.5s-1.2-.1-1.9-.4v.9s1 .4 1.8.5c-.9 0-1.9-.5-1.9-.5v-1.1Z"/><path class="cls-1" d="M24.4 17.4h-.1zm-.1-.7h.1zm0 .4c-.1 0 0 0 0 0h.3c.2 0 .1-.2.1-.2 0-.2 0-.1-.2-.2h-.3c-.1 0 0-.1 0-.1 0-.2-.1-.2-.1-.2-.1 0-.1.2-.1.2v1.1h.3c.2 0 .2 0 .3-.2v-.2c0-.2-.4-.1-.4-.1Zm.8-.6h.8s.1 0 .1.1c0 0 0 .1-.1.1h-.2.1s.3 0 .3.1c0 0 .1.2 0 .4 0 0 0 .2-.2 0V17h-.1s-.1 0-.1.1v.3s0 .2-.1.2c0 0-.1 0-.1-.2v-.2l-.1-.1s-.1 0-.1.2c0 .1 0 .2-.1.2 0 0-.1 0-.1-.2v-.2s0-.2.2-.2h.1s.2 0 .2-.1h-.3v-.1s0-.1.2-.1Zm-.8 1.6h.4s.1-.2.3-.2c0 0 .1 0 .2.2h.5s.2 0 .3.2v.3s.2.5.3.8c0 0 .1.1 0 .2 0 0-.1.1-.3-.2 0 0-.1-.2-.3-.9 0 0 0-.2-.1-.2h-.3s0 .3.2.6c0 0 0 .2.1.3v.2s-.2 0-.2-.2l-.2-.6v-.3s-.1-.2-.2 0v.3s-.2.6-.3.7c0 0-.1.2-.2.1 0 0-.1 0 0-.3 0 0 .1-.3.2-.5v-.4h-.2l-.1.1-.2.5v.4c-.1 0-.2.1-.2.1h-.1v-.4l.2-.7V18s.1-.1.2-.1h.1Zm.8 2.6c.3.3.7.4 1.1.5-.4 0-.8-.2-1.1-.5m-.4-.4s0 .1.2.2z"/><path class="cls-1" d="M25 20.8c.3.2.7.5 1.3.6-.5 0-1-.3-1.2-.6Zm-.4-.5s0 .1.3.3c-.2-.2-.2-.3-.2-.3Z"/><path class="cls-1" d="M24.9 20.9c.4.3.9.6 1.4.6-.5 0-1-.3-1.4-.6m-.6-.7s.2.3.4.5c-.1-.1-.3-.3-.4-.5m1.1 1.1v.2c.2.3.5.4.6.4h.2v-.1h-.1s-.3 0-.3-.2c0 .2.3.3.4.3h-.1s-.4 0-.5-.3v-.2Z"/><path class="cls-1" d="M25.5 21.3s0 .4.5.4c-.5 0-.5-.4-.5-.4m1.3-.4s.1 0 .1.1c-.1 0-.3-.1-.3-.1.2-.2.3 0 .3 0Zm-.9-.1c-.2 0-.3.1-.4.3 0-.1.2-.2.4-.2s.4 0 .6.2c0 0 .2.2.3.1h.1s0-.1-.1-.2c0 0-.1-.1-.4 0-.2-.1-.4-.2-.6-.1Z"/><path class="cls-1" d="M26.4 20.8s.3-.2.5 0c0 0 .1.1 0 .3 0 0 0 .1-.3 0 0 0-.7-.5-1.1 0 .3-.4 1 0 1 0 .3.2.4 0 .4 0 .1-.2 0-.4 0-.4-.3-.2-.5 0-.6 0Z"/><path class="cls-1" d="M26.2 20.8c.4-.4.8 0 .8 0 .2.2 0 .4 0 .5-.2.2-.5 0-.5 0-.5-.4-.8 0-.8 0s.3-.3.8 0c0 0 .3.2.5 0 0 0 .3-.3 0-.5 0 0-.4-.4-.9 0Zm.3-.5v.3zv.2c0-.1 0-.2-.1-.3h-.1Z"/><path class="cls-1" d="M26.4 20.3v.3s0-.2-.1-.3Zm1 0c-.3.1-.2.6-.2.6s0-.4.2-.6h.2s-.1.2-.1.5c0 0 0 .2-.1.3h-.3.3c.2-.1.2-.3.2-.4 0-.3.1-.4.1-.4v-.2h-.2Z"/><path class="cls-1" d="M27.5 20.4s-.2 0-.2.1v.6h.1v-.6h.2Zm-1.3.6v.5s.2.4 0 .5c.2-.2 0-.6 0-.6v-.5Z"/><path class="cls-1" d="M26.3 21.1v.1c0 .2.1.5.1.5v.2c0 .2-.1.3-.1.3s.2-.1.1-.6c0 0-.2-.4-.1-.6Zm.2.1v.5s.2.4 0 .7c.3-.2.1-.7.1-.7v-.4Zm.1.4h.1-.2Zm1.3-.7h.2-.1l-.2.2s-.2.2-.6.3c0 0-.2 0-.2.1v.1s0 .2.3.3.3.1.4.4c0 0 .2.5.6.6h.1s0 .1-.3 0-.3-.2-.5-.6c0 0 0-.2-.5-.4 0 0-.4-.1-.3-.5 0 0 0-.2.4-.3 0 0 .4 0 .5-.3s.1-.2.3-.3Zm0-.1c-.2 0-.3.3-.3.3 0 .2-.4.3-.4.3-.4 0-.5.3-.5.3 0 .4.3.6.4.6.3.2.4.4.4.4.2.4.5.6.5.6h.3v-.1l-.1-.1c-.3 0-.5-.6-.5-.6-.1-.3-.4-.4-.4-.4-.2 0-.2-.2-.2-.2v-.1h.2c.4 0 .6-.3.6-.3 0-.2.1-.2.1-.2s.1 0 .1-.1V21h-.2Z"/><path class="cls-1" d="M28.1 20.9s-.3.2-.4.4c0 0-.1.2-.5.2 0 0-.4 0-.4.4 0 0 0 .3.3.4 0 0 .4.2.5.4 0 0 .4.6.7.7-.3 0-.6-.6-.6-.6-.1-.3-.5-.5-.5-.5-.2 0-.3-.2-.3-.3 0-.3.3-.3.3-.3.4 0 .5-.3.5-.3.1-.2.4-.4.4-.4Z"/><path class="cls-1" d="M27.6 21.5v.5h.2c.1 0 .2-.1.2-.2v-.2h.2c.2.2 0 .4 0 .4-.2.3-.5.1-.5.1-.3-.1-.2-.6-.2-.6s0 .5.2.6c0 0 .4.2.6-.1 0 0 .2-.3 0-.5h-.2s-.1 0-.1.1v.2h.1s0 .1-.1.1h-.1v-.4Z"/><path class="cls-1" d="M27.5 21.6s-.1.4.2.6c0 0 .3 0 .4-.1v-.2h-.2s-.2 0-.2.2l.1-.1h.1v.2c-.1.2-.3.1-.3.1-.3-.1-.2-.5-.2-.5Zm-.6 1.1v.4h.2v-.4h.2c-.2-.2-.3 0-.3 0-.1 0 0 .2 0 .2v.1-.3c0-.3.3-.2.3-.2s-.3 0-.4.2"/><path class="cls-1" d="M27.1 22.6s-.1.2 0 .4c-.2-.2 0-.3 0-.4s.3 0 .3 0zm-.7-.9s-.2 0-.3.3c0 .1 0 .3.1.5 0 0 .2.2.2.3h-.1l-.1.1v.1s.2.1.4 0c0 0 .1-.2.1-.3s0-.2-.2-.4c0 0-.1 0-.2-.2v-.2.2c0 .1.2.2.2.3.1 0 .2.2.2.3v.3c-.1.1-.3 0-.4 0 .1 0 .2 0 .2-.1s-.2-.3-.2-.3c0-.1-.1-.2-.1-.3 0-.2.3-.2.3-.2Z"/><path class="cls-1" d="M26.4 21.8s-.2 0-.2.2v.3l.2.2s.2.2.1.4c0 0-.1.2-.2.2q.3 0 .3-.3c0-.2-.2-.4-.2-.4l-.2-.2V22c0-.1.2-.2.2-.2m-.8.1c.3.2.4.2.4.2s-.2 0-.4-.2m0 .1s.3.2.5.2c-.2 0-.5-.2-.5-.2m-.1.1s.3.2.6.2c-.3 0-.6-.2-.6-.2m-.4-1.8s-.4.7-1.4.8c1.1-.2 1.5-.9 1.5-.9Z"/><path class="cls-1" d="M25.2 20.4s-.6.9-1.6 1c1.1 0 1.6-1 1.6-1"/><path class="cls-1" d="M25.5 20.3s-.6 1-1.9 1.2c1.3-.1 1.9-1.2 1.9-1.2"/><path class="cls-1" d="M24.5 21.2v.2c-.1.3-.5.3-.5.3h-.1s.4 0 .4-.3c0 .2-.3.2-.3.2h-.1v.1s0 .1.2.1c0 0 .4 0 .5-.4v-.2Z"/><path class="cls-1" d="M24.4 21.2s0 .4-.5.4c.5 0 .5-.4.5-.4M23 21l.1-.1h.3s-.2.1-.3.1Zm.4-.2c-.2-.2-.4 0-.4 0s-.1 0-.1.2c.1 0 .3-.1.3-.1.2-.2.4-.2.6-.2.1 0 .3.1.4.2 0 0-.1-.2-.4-.3-.2 0-.4 0-.6.1Z"/><path class="cls-1" d="M22.9 20.8s-.2.2 0 .4c0 0 .1.2.4 0 0 0 .7-.5 1 0-.3-.4-1 0-1.1 0-.2.1-.3 0-.3 0-.1-.2 0-.3 0-.3.2-.2.5 0 .5 0s-.3-.3-.6 0Z"/><path class="cls-1" d="M22.8 20.7c-.2.3 0 .5 0 .5.3.2.5 0 .5 0 .5-.4.8-.1.8 0 0 0-.3-.3-.8 0 0 0-.3.2-.5 0 0 0-.2-.2 0-.5 0 0 .3-.4.8 0-.5-.4-.9 0-.9 0Z"/><path class="cls-1" d="M23.3 20.3s-.1.1-.1.3v-.2.3-.3h-.1Z"/><path class="cls-1" d="m23.4 20.3-.1.3v-.3Zm-1.1 0v.2s.1.1.1.4c0 0 0 .3.2.4h.3-.3c-.1 0-.1-.3-.1-.3 0-.3-.1-.4-.1-.5h.2c.2.1.2.5.2.6 0 0 0-.5-.2-.6h-.2Z"/><path class="cls-1" d="M22.3 20.3h.2c.1.1 0 .4 0 .4v.3h.1v-.6s-.1-.1-.2-.1Zm1.3.7v.5s-.2.4 0 .6c-.2-.2 0-.5 0-.5v-.5Zm-.1 0c0 .2-.1.6-.1.6-.1.4.1.6.1.6s-.1 0-.1-.3v-.2s.1-.3.1-.5v-.1Z"/><path class="cls-1" d="M23.4 21.1v.4s-.2.5.1.7c-.3-.2-.1-.7-.1-.7.1-.3 0-.5 0-.5Zm-.3.5h.1-.2Zm-1.2-.8c.2 0 .3.3.3.3 0 .3.5.3.5.3.4 0 .4.3.4.3 0 .4-.3.5-.3.5-.4.2-.5.4-.5.4-.2.4-.5.6-.5.6-.2.2-.3 0-.3 0h.1c.3-.1.5-.6.6-.6.1-.2.4-.4.4-.4.2 0 .3-.3.3-.3v-.1l-.2-.1c-.4 0-.6-.3-.6-.3 0-.2-.2-.2-.2-.2h-.1v-.1h.2Zm-.1 0v.2s0 .1.2.1l.1.2s.2.3.6.3h.2v.1s0 .2-.2.2-.3.1-.4.4c0 0-.2.5-.5.6 0 0-.1 0-.1.1v.1h.3s.3-.2.5-.6c0 0 0-.2.4-.4 0 0 .4-.1.3-.6 0 0 0-.3-.5-.3 0 0-.4 0-.4-.3 0 0-.1-.2-.3-.3h-.2Z"/><path class="cls-1" d="M21.8 20.8s.3.1.4.4c0 0 .1.2.5.3 0 0 .3 0 .3.3s0 .2-.3.3c0 0-.4.2-.5.5 0 0-.3.6-.6.6.3 0 .6-.6.7-.7 0-.3.5-.5.5-.5.3-.1.3-.4.3-.4 0-.3-.4-.4-.4-.4-.4 0-.5-.2-.5-.2-.1-.2-.4-.4-.4-.4Z"/><path class="cls-1" d="M22.2 21.4v.4h-.1c-.1 0-.1-.1-.1-.1h.1v-.2s0-.1-.1-.1h-.2c-.3.2-.1.5-.1.5.2.3.6.1.6.1.3-.1.2-.6.2-.6s0 .4-.2.6c0 0-.3.1-.5-.1v-.2c0-.2 0-.2.1-.2h.2v.2s0 .2.2.2h.2v-.5Z"/><path class="cls-1" d="M22.4 21.5s.1.4-.2.5c0 0-.2 0-.3-.1h.1s.1 0 .1.1c0-.1-.1-.2-.2-.2h-.2v.2c.1.2.4.2.4.2.3-.1.2-.6.2-.6Zm.2.9s.3 0 .3.2v.3-.3h-.3c.1-.1.2 0 .2 0v.4h.2v-.4c0-.3-.4-.2-.4-.2"/><path class="cls-1" d="M22.5 22.5h.3s.1.2 0 .4c.2-.2 0-.4 0-.4 0-.2-.3-.1-.3 0m1-.8s.2 0 .3.2c0 0 0 .2-.1.3 0 0-.2.2-.2.3 0 0 0 .1.2.1 0 0-.2.1-.4 0v-.3c0-.1 0-.2.2-.3 0 0 .2-.1.2-.3v-.2.2c0 .1-.1.2-.2.2-.1.1-.2.2-.2.4s0 .3.1.3c.2.2.4 0 .4 0v-.1s0-.1-.1-.1h-.1s.1-.2.2-.3c.1-.2.2-.3.1-.5 0-.2-.3-.3-.3-.3Z"/><path class="cls-1" d="M23.5 21.8s.1 0 .2.2v.2l-.2.2s-.2.2-.2.4q0 .15.3.3c-.1 0-.2-.1-.2-.2 0-.2.1-.3.2-.4l.2-.2V22c0-.1-.2-.2-.2-.2Zm1.1 0c-.2.2-.8.2-.8.2s.5 0 .8-.2"/><path class="cls-1" d="M24.8 21.8s-.4.4-1 .4c.6 0 1.1-.4 1.1-.4Z"/><path class="cls-1" d="M25 21.8s-.4.4-1.3.4c.9 0 1.3-.4 1.3-.5Z"/><path class="cls-1" d="M24.5 21.5s-.3.2-.2.4c0-.2.2-.4.2-.4.4-.2.9.2.9.2s-.6-.4-1-.2Z"/><path class="cls-1" d="M24.7 21.6c-.2 0-.2.3-.2.3s0-.2.2-.2c0 0 .3 0 .7.3-.4-.3-.7-.3-.8-.3Z"/><path class="cls-1" d="M24.6 21.8c.3-.2.7.2.7.2s-.5-.4-.8-.2Z"/><path class="cls-1" d="M25.2 21.6h.2v.1c0 .1-.3.2-.3.2-.1 0-.3.1-.3.1s.2 0 .3-.1c0 0 .3 0 .3-.3v-.1s0-.1-.2-.1Z"/><path class="cls-1" d="M25.2 21.6h.2c.2.1 0 .3 0 .3 0 .2-.4.3-.5.3 0 0 .5-.2.6-.4v-.3h-.3Zm.4.1v.3c-.1.2-.4.3-.4.3s.3 0 .5-.3v-.3Zm-.6-.2h.4c-.2-.1-.4 0-.4 0"/><path class="cls-1" d="M24.6 22.1s.1.2.5.2c0 0 .5.2.5.5v.1h-.2c0-.2-.2-.3-.4-.3 0 0-.5 0-.5-.3 0 .3.6.3.6.3.3 0 .4.3.4.3 0 .2.2.1.2.1.1 0 .1-.1.1-.2 0-.3-.5-.5-.5-.5-.4 0-.4-.2-.4-.2Z"/><path class="cls-1" d="M24.5 22.2s.1.2.5.2c0 0 .5.1.5.5 0-.5-.6-.6-.6-.6-.3 0-.4-.2-.4-.2Zm.1.2s-.2.1-.3.3v.2h.2l.1-.1s.1-.2.2-.3c-.1 0-.3.3-.3.3v.1h-.1v-.1c0-.2.2-.3.3-.3Z"/><path class="cls-1" d="M24.7 22.5c-.2.2-.3.4-.3.4s0-.3.3-.4m-2.8-8v.1s3 1.5 6.1 0v-.1h-.1c-3 1.5-5.9 0-6 0h-.1Z"/><path class="cls-1" d="m28 14.6.6 9.1c-.7-.3-1.4-.5-2.2-.7-1.3-.2-3.1-.3-5.1.7l.7-9.2c.4-.2 3.4-1.4 6 0Zm-6.2-.1-.7 9.7h.1c2-1.1 3.9-1.1 5.1-.8 1.4.2 2.3.7 2.3.7h.1l-.7-9.5c-2.9-1.7-6.2 0-6.3 0Z"/><path class="cls-1" d="M25 11.5c-1.2 0-1.3 2-1.3 2.1 0 .4-.2.9-.2.9v.1h.1s.2-.6.2-.9 0-1.9 1.1-1.9.2 0 .4.1c.2.2.5.6.6 1.8 0 0 0 .8.2 1h.1v-.1c-.2-.2-.2-.7-.2-.9 0-1-.3-1.6-.7-1.9-.3-.2-.5-.2-.6-.2Z"/><path class="cls-1" d="M24.7 12.1c-.4.4-.4 2.2-.4 2.4 0-.5 0-2 .3-2.3l.2.1c.1.2.4.7.2 2.2v.1h.1c.2-1.5 0-2.1-.3-2.4-.1-.1-.3-.2-.3-.2s-.2 0-.2.1Zm-5.4 5.1h-.2V17s.5 0 .6.2v1.7s0 .7-.1.7c0 0-.1 0-.1-.4v-1.9 2s-.1.3-.3.3c0 0-.1 0 0-.3l.2-2Zm.9 0s-.2 0-.2.2v2.3s-.1 0-.1-.3v-2s0-.2.2-.3c0 0 .4-.2.5 0 0 0 0 .1-.2.1v2.1c.1 0 .2.2 0 .2 0 0-.1 0-.1-.3v-2Zm9.7-.1s.2 0 .2-.2c0 0 .1-.2.2 0 0 0 0 .1.2.2 0 0 .5 0 .5.2 0 0 0 .1-.3 0 0 0-.4 0-.5-.2s-.2.1-.5.2h-.3l.2-.1h.2Zm.5.9h-.5s-.1 0-.1-.1c0 0 0-.1.1-.1h.5s.1 0 .1.1c0 0 0 .1-.1.1m.1-.4h-.6q-.3 0-.3.3t.3.3h.6q.3 0 .3-.3t-.3-.3"/><path class="cls-1" d="M30 18.1v1.4s0 .2.1.2v-1.6h-.2Z"/><path class="cls-1" d="M29.7 19.6v.1-.2s0-1.3.6-1.2c0 0 .5 0 .6 1.2v.1s-.1 0-.1-.2c0 0 0-1.1-.4-1.1 0 0-.3-.1-.4 1.1Zm15.4.7v-.6c0 .1-.3.6 0 .6m-.4.9c-.1 0-.2.2-.4.3-.1 0-.3 0-.4.2 0 .6-.1 1-.6 1.1-.1.4-.7 1.1-1.3 1.1-.3 0-.5-.3-.7-.5s-.4-.4-.5-.7c0-.4.3-.8.5-1.1.6-.9 1.3-2.2 1.3-3.5 0-.2 0-.5-.2-.7-.2-.5-.6-.4-.7-1.1.3 0 .8 0 1.2.2.5.1 1 .3 1.4.6.3.3.7 1.1 0 1.3h-.6c-.4.2-.5.9-.6 1.4 0 .2-.2.4-.2.7.4-.1.7-.4 1-.6s.7-.4 1-.6c0-1.2-.1-2.1 0-3.4 0-1.6.2-3 .3-4.6v-1.2c0-.9.2-1.6-.2-2.3.5.1 1.8.9 1.9 1.5v.9c-.1.9-.2 1.8-.3 2.6v8.3c-.1.4-.6.8-1 .8-.5 0-.7-.6-1-.7Zm6.4-7.6c.2-.1.4-.3.5-.4.4-.4.3-.8 0-1.3-.5-.7-.9-1.4-1.2-2.2h-.1c0 .4.1.7.2 1.1.2 1 .1 2.1.2 3.1.2 0 .3-.2.5-.3Zm-.7 5.9c.5.1.9-.3 1.4-.6.5-.2 1.8-.5 1.9.2 0 .2 0 .6-.1.8-.2.2-.8.3-1.2.4-.8.2-1.5.4-2.5.3-.5 0-1-.2-1.2-.6-.5-.9.3-2.2 0-3.2-.6-.2-1.1.4-1.7.2 0-.2.1-.3.2-.3.2-.2.6-.4 1-.6.2-.1.6-.2.7-.4v-.8c0-.9-.1-1.6 0-2.6.1-.9.4-1.9.7-2.6.1-.2.2-.6.4-.7.4-.3.6.2.8.6.3.6.5 1.1.9 1.6l.6.6c.4.5 1.3 1.8.9 2.8 0 .2-.4.6-.6.8 0 .1-.2.2-.3.4q-.15.3-.3.3c-.2 0-.3-.1-.6-.1-.8 0-.8 1.2-.8 2.1v1.4Zm33.5-8.2c0-.2.2-.3.3-.4.3-.3.6-.7.9-1-.6-.1-1 .1-1.5.4-.2.1-.6.4-.6.5 0 .2.2.4.2.7s-.4.7-.7.7c-.4 0-.6-.5-.7-.9-.1 0-.2-.2-.3-.3-.2-.1-.6 0-.7-.2 0-.1.1-.2.2-.3 0 0 .2-.1.3-.2.4-.1 1 0 1.4 0 .2 0 .5-.2.9-.4.5-.3 1.2-.5 1.8-.8.3-.2.7-.5 1.1-.4.2 0 .7.4.6.7 0 .4-.8.4-1.1.6-.4.2-.9.6-1.3.8-.2.1-.5.3-.7.3Zm-4 .9c0 .4 0 .7-.2.9-.5.1-1-.4-1.1-.9-.2-1 .8-1.9 1.1-2.4.2.5 0 1.1 0 1.6 0 .2.3.3.3.4 0 .2-.2.2-.2.3Zm-1.2 6.9c-.2.2-.5.3-.4.6.6-.2 1-.5 1.6-.8v-.4c-.6-.2-.9.3-1.2.6m2.6-1c.4 0 .2-.7.2-.9-.1.3 0 .7-.1 1Zm.4-2.6c.3 0 .4-.3.5-.6-.3-.1-.8.3-.5.6m-.2-2.5c-.1.5.3.7.3 1s-.3.3-.3.8c.4 0 1-.3 1.3 0 0 .7-.3 1.1-.7 1.5-.1.1-.3.2-.3.4.1 0 .2-.3.5-.2 0 .2-.2.4-.3.6 0 .2 0 .4.1.7 0 .2.3.3.3.5 0 .3-.4.6-.5.7-.3.2-.7.3-.9.6 0 .2-.1.6-.2.9-.1.6-.2 1.1-.4 1.8 0 .3-.2.8-.5.8-.2 0-.4-.3-.5-.4 0-.1-.3-.4-.3-.6 0-.3.1-.7.2-1 0-.3.2-.6.2-.9-.6.1-.9.3-1.4.6-.1 0-.3.2-.5.2-.5 0-.7-.6-.4-1l.3-.3.9-.9c.4-.3 1.2-.9 1.2-1.2 0-.2-.3-.3-.3-.5 0-.3.5-.3.5-.6h-.5c-.4.2-.7.8-1.3.6-.2-.6.2-1 .5-1.3.1.1 0 .2 0 .4.6-.2 1-.7 1.5-1v-.5c0-.1-.3 0-.4-.2.1-.5.6-.7.9-1.1 0-.2-.1-.2 0-.4 0-.3.5-.2.7 0Zm4.4.7c-.3-.1-.9.2-1.1-.1 0-.2.3-.2.5-.3.3-.1.7-.4.9-.5.4-.1.9 0 .9.6 0 .2-.3.4-.5.6-.4.4-.6.7-1 1.1-.2.2-.4.5-.4.6 0 .4.7.4.8.8 0 .4-.4.7-.8.5v-.1H85c-.2-.2-.5-.5-.5-.7 0-.6.3-.9.6-1.3.1-.2.3-.4.4-.6.2-.2.4-.3.4-.5Z"/><path class="cls-1" d="M84.3 15c.2 0 0 .3 0 .5v1.6c0 .3.1.6 0 .8 0 .6-.4 1.1-.2 1.7.2.3.6.2.9.2.7 0 1.3-.1 2-.2.3 0 .8 0 .9-.2.2-.2.2-1.3 0-1.8 0-.6-.4-1-.4-1.6.1 0 .2.1.3.2.3.3.5.9.7 1.4 0 .3 0 .7.2 1 .2.4.6 1.1.2 1.6-.2.2-.7.3-1.1.4h-2.9c-.7 0-1.6 0-1.9-.5-.4-.5-.3-1.4-.2-2.2 0-.4 0-.8.2-1.1.2-.7.6-1.2.9-1.8 0 0 0-.1 0 0Zm-18.2.7c-.3-.2 0-.5 0-.7.7-1 1.5-1.9 2-3.1.2-.5.5-.9.7-1.4 0-.2.2-.6.2-.9s-.3-.3-.5-.5V9c.3 0 1.2.3 1.5.5.1.1.2.3.2.6 0 .4-.8.9-1 1.2-1 1.2-1.9 2.6-2.7 3.8-.2.2-.3.6-.6.5Zm6.8 1.2h.5c.4-.3.7-.8 1-1.2.1-.2.3-.4.4-.6-1.2-.5-1.9.8-1.8 1.8Zm2.6-2c0 .7-.5 1-.8 1.4-.3.3-.5.6-.8.9-.1.2-.4.5-.6.6-.2 0-.4-.1-.6-.1-.1.2 0 .5 0 .7V22c0 .2-.2.9-.5 1-.3 0-.6-.3-.6-.6v-1.3c0-1.4.2-3.1.3-4.3-.2 0-.4.4-.6.6s-.4.6-.8.3c.2-.4.8-.8 1.2-1.1.3-.2.4-.4.5-.8v-.4c0-.2-.2-.3-.2-.5s.1-.3.2-.5c.1-.1.3-.2.3-.4 0-.4-.8-.2-1-.4.1-.4.6-.6 1.1-.9l.6-.3c.2-.1.4-.3.6-.3.3 0 .6 0 .8-.2.2 0 .8 0 .9.2 0 .3-.3.6-.5.8-.6.4-.9.7-1.5 1.1-.2.1-.7.4-.8.5 0 .2.4.5.6.5.3 0 .4-.2.7-.3.5-.2 1.3-.2 1.5.2m-5.3-1.4c.5.6-.5 1.4-.8 1.9.3.1.6.3.5.8-.2.2-.7.3-1.1.2 0 0-.1-.2-.2-.3-.3 0-.3-.5-.1-.7-.4-.1-.9.6-1.4.2 0-.4.6-.7 1-1 0 0 .2-.2.3-.2 0 0 .2-.1.3-.2.3-.3.7-.8 1.4-.6Zm-3.3 3c.3 0 .2.4.3.7 0 .3.4.8.5 1.3 0 .5-.1 1.4-.6 1.4s-.8-.7-.8-1.2.4-.8.5-1.1v-1.1Zm3.3.2c.1.3 0 .7-.2 1-.1.3-.2.6-.4.9v.4c0 .1-.3.3-.5.4-.5 0-.8-.5-.6-1 0-.2.4-.4.4-.6 0-.3-.6 0-.7-.3 0-.2.2-.2.4-.3.4-.2.9-.6 1.6-.4Zm26.1-7.8c.3 0 .6.3.8.4.4.3.8.6.7 1.5 0 .4-.1.8-.2 1.2-.2 1.1-.6 2.9-.8 4 .2 0 .5-.2.9-.3.3-.1.6-.3.9-.4.2-.1.4-.3.4-.5 0-.4-.2-.5-.3-.9.2 0 .3 0 .5.2.1 0 .3.2.4.3.2.1.7.2.8.5 0 .3-.5.8-.8 1-1.1.1-2 .5-2.9.9-.6 1.4-.8 3.1-1.8 4.1-.2.2-.5.3-.7.6-.5.2-1.4.5-2.1.3-.3 0-.7-.2-.7-.6.3 0 .5.1.9 0 .8 0 1.4-.7 1.8-1.2.6-.7 1.2-1.8 1.5-2.8-.6.2-1.7.6-2.4 1-.4.2-.6.5-1.2.4-.4 0-.7-.5-.5-1h.5c.4 0 .7-.1 1.1-.3.9-.3 2-.8 2.8-1.1.5-2.2.6-5.1.4-7.4Z"/><path class="cls-1" d="M97 17.7c.4.4.8.9 1.3 1.3h.2c.2.1.3.3.4.5.6.6 1.5 1 2.6 1.1.1 0 0 .2 0 .2l-.6.6c-.4.4-.8.9-1.6.7-.7-.2-.9-.8-1.2-1.5-.3-.9-.8-2.1-1.2-2.8Zm-36.8-6.6c-.1-.3.2-.4.2-.6.2-.8-.7-1-.9-1.5.2-.3.9-.1 1.3 0 .3 0 .7.3.9.5s.5.6.3 1c-.2.3-.8.3-1.3.5-.2 0-.3.2-.5.2Zm.7 2c-.5.2-1 .7-1.5 1.1-.8.6-1.8 1-2.2 1.9 0 .1 0 .2-.2.3-.2.3-.8.4-1 .1 0 0 0-.4-.1-.6-.1-.4-.4-.6-.2-1.1 0-.2.3-.3.6-.4.1.1 0 .5.2.7.6 0 1.1-.4 1.6-.8 1.2-.8 2.5-1.5 3.8-2.2.3-.1.6-.3.7-.5.2-.2.2-.7.6-.7.2 0 .4.2.7.3.2.1.5.3.5.5 0 .3-.3.3-.6.4-.6.2-1.2.6-1.8 1-.3.2-.6.3-.9.5s-.6.4-.9.4c0-.2.2-.3.4-.5.2-.1.4-.3.6-.4Zm1.4 1.2c-.4.7-1.1 1.1-1.4 1.9.1.1.6-.1.7 0 0 .6-.7.6-1.1.9-.3 0-.5.2-.8 0-.2-.5.3-.9.6-1.2s.6-.6.8-1.1c-.4.1-.7.4-1 .7s-.7.6-.9.9c-.1.4 0 1-.2 1.2-.6.5-1.3-1.4-.7-1.9.2 0 .3.3.5.3s.5-.4.7-.6c.3-.4.7-.6 1-.9.4-.3 1.2-.9 1.8-.4Z"/><path class="cls-1" d="M59.2 19.1c-.3.2-.6.5-.9.8s-.6.5-.7.9c.4.2.9.2 1.5.2.2-.5.1-1.3.2-1.9Zm.3-1.7c.3 0 .2.6.4.8h.8c.3 0 .7.5.9.8l.4.4c.1.2.3.4.3.5.1.8-1 1-1.6.5 0-.6.2-1.6-.3-1.9h-.5v2.4c0 .6.1 1.2 0 1.6-.2 0-.5 0-.7-.1-.2 0-.3-.3-.5-.5s-.6-.4-.9-.6c-.2-.1-.4-.2-.6-.2-.3 0-.2.4-.3.7-.8.6-1.7-.9-.9-1.2.1 0 .2.3.4.3s.6-.3.8-.5c.6-.6 1-1 1.7-1.5.1-.1.3-.2.3-.3.2-.4-.2-1 .2-1.2Zm51-5.8c.1 0 0 .3 0 .3z"/><path class="cls-1" d="M108.6 19.4c-.8 0-1.7.5-2.4.8-.1.3-1 .4-1 .7 0 .2.4.5.7.6.6.3 1.2.5 1.9.6.4 0 .7.2 1.1.1.1-.5.2-1 .2-1.5v-1.4h-.4Zm-3.4-2.5c.3-.2.7-.5 1.1-.7.8-.5 1.5-1 2.2-1.4.3-.2 1.6-.5 1.2-.9q-.9.45-1.8.6c-.2 0-.5 0-.8.1-.1 0-.3.2-.5.4-.6.5-1 1-1.5 1.5-.4.4-.8.7-1 1.1.4-.1.8-.4 1.1-.6Zm4.3-4.5c0 .3.4.3.4.6 0 .4-.7.4-1.1.2-.3.2-.6.4-.7.7.8 0 1.3-.5 1.9-.8v-1s0-.2-.1-.3c-.2.1-.4.3-.3.5Zm1-.8c.1 0 0 .3 0 .3zm-2 .4h.3s.1-.1.1-.3c0 0 .2-.2 0-.2-.2.1-.5.3-.5.5Zm-.9-.1c.2 0 .2-.3.4-.4.2 0 .3-.2.4-.4-.2 0-.5 0-.6-.2-.3.2-.2.6-.1 1Zm5.4-3c-.5.2-.9.6-1.3.8-.2.1-.5.3-.7.4s-.5.2-.6.5c.3.2.6.1.8.3.5.6 0 1.8-.2 2.4.3-.2.5-.6.6-1 .6-1.1 1.1-2.2 1.5-3.5Zm-2.9 1.1c.8-.3 1.6-.8 2.4-1.3.1 0 .3-.1.4-.2.2-.1.3-.2.7-.2.3.7-.2 1.5-.4 2.2-.3.9-.7 1.8-1 2.7.7 0 1.6 0 1.6.5 0 .3-.3.6-.6.8-.8.5-1.4 1-2.2 1.4-.2 0-.3.2-.5.2s-.6 0-.7.1c.2.2.5.2.6.4 0 .3-.5.7-.4 1.2.3.2.5.2.8 0 .2 0 .3-.2.4-.2.7 0 1.5.9.9 1.5h-2.2c-.1.6 0 1.3 0 2V23c-.8.4-1.5-.2-2.3-.6-.2-.1-.5-.2-.7-.3l-1.2-.6c-.2-.1-.3-.2-.5-.3-.3-.2-.8-.4-.9-.6 0 0-.2-.4-.2-.5 0-.3.7-.7 1-.8 1.4-.7 2.8-1.1 4.3-1.4 0-.3.1-.6 0-.9-.3-.1-.9 0-.9-.5 0-.4.6-.4 1-.5.8-.2 1.3-.7 2.1-1s1.5-.5 1.8-1.2c-.3-.2-.9-.1-1.3 0s-.6.5-.9.5h-.7c-.6.2-1.1.6-1.7.8-.2 0-.3.1-.5.2-.9.4-1.8 1-2.5 1.8-.2.2-.4.4-.7.6-.4.3-.6.7-1.3.6-.2-.2-.5-.3-.4-.8 0-.3.6-.8.8-1 .3-.3.6-.7.8-.9.5-.4 1.1-.8 1.6-1.2 0 0 .1 0 .2-.1l.4-.4s.2-.1.3-.2c.4-.3.6-.8.8-1.1 0-.2-.1-.5 0-.7-.3 0-.4.4-.6.6-.4.4-.7.8-1.1 1.3-.2.3-.7.8-1.1.4-.3-.4 0-1.2-.2-1.8 0-.2-.2-.4 0-.6.2 0 .5 0 .6.2.3.3.2.9.5 1.1.2 0 .5-.3.6-.5V12c0-1-.2-2-.5-2.9 0-.2-.2-.4-.2-.6.4 0 .8.3 1.1.5.2 0 .4.2.5.3.3.2.6.3.6.8.3-.2.5-.6.7-.9s.4-.6.5-1V8c.5 0 1.5.5 1.2 1.2 0 .2-.3.2-.5.3 0 0 0 .1-.1.2s-.3.3-.4.5Zm-68 17.5h.8v-.4h-.8v.6Zm0-1.1h.7V26h-.7v.6Zm-.9-1.2h1.7c.3 0 .5 0 .6.2.1.1.2.3.2.5s0 .3-.2.4c0 0-.2.2-.3.2.2 0 .4.1.5.3.1.1.2.3.1.5 0 .2 0 .3-.1.4 0 .1-.2.2-.3.3h-2.2v-2.9Zm3.3 0h2.4v.6h-1.5v.5h1.4v.6h-1.4v.6h1.5v.7h-2.4v-2.9Zm3.1 2.9h.9v-2.9h-.9zm2.8-2.9h.9v2.4c0 .2-.2.3-.4.4s-.4.2-.7.2-.5 0-.7-.1c-.2 0-.3-.2-.4-.3 0-.2-.1-.4-.2-.6h.8v.2s0 .1.1.2h.1s.2 0 .2-.1v-2.2Zm1.7 2.9h.9v-2.9h-.9zm1.7-2.9h.8l1.1 1.6v-1.6h.8v2.9h-.8l-1.1-1.6v1.6h-.8zm5 1.9v-.6h1.4v1.2c-.2.2-.4.3-.7.4-.2 0-.5.1-.7 0-.3 0-.6 0-.8-.2-.2-.1-.4-.3-.5-.5s-.2-.5-.2-.8 0-.6.2-.8c.1-.2.3-.4.6-.5.2 0 .5-.1.8-.1h.7c.2 0 .3.1.4.3.1.1.2.3.2.5l-.9.2c0-.1 0-.2-.2-.3h-.3c-.2 0-.4 0-.5.2-.1.1-.2.4-.2.6s0 .5.2.7c.1.1.3.2.5.2h.3c.1 0 .2 0 .3-.1v-.3h-.6Zm3.5-1.9h.8l1.1 1.6v-1.6h.8v2.9h-.8l-1.1-1.6v1.6h-.8zm4.3 1.5c0 .3 0 .5.2.6.1.1.3.2.4.2.2 0 .3 0 .4-.2.1-.1.2-.3.2-.7s0-.5-.2-.6c-.1-.1-.3-.2-.4-.2-.2 0-.3 0-.4.2-.1.1-.2.3-.2.6Zm-.9 0c0-.5.1-.8.4-1.1s.6-.4 1.1-.4.8.1 1.1.4.4.6.4 1.1 0 .6-.2.8c-.1.2-.3.4-.5.5s-.5.2-.8.2-.6 0-.8-.2c-.2-.1-.4-.3-.5-.5s-.2-.5-.2-.8m4.5-.3h.7V26h-.7v.6Zm-.9 1.7v-2.9h2.1c.1 0 .3.1.4.3 0 .1.1.3.1.5s0 .3-.1.4c0 .1-.2.2-.3.3 0 0-.2 0-.3.1 0 0 .2 0 .2.1l.1.2s.1.1.1.2l.4.8h-1l-.5-.9s0-.2-.2-.2h-.2v1.2h-.9Zm3.3-2.9h1.2l.4 1.8.4-1.8h1.2v2.9h-.7v-2.2l-.6 2.2h-.7l-.6-2.2v2.2h-.7v-2.9Zm5.5 1.8-.3-1-.3 1zm.2.7h-1v.5h-1l1.1-2.9h1l1.1 2.9h-.9l-.1-.5Zm1.5-2.5h.9v2.2h1.4v.7h-2.3zm6.2 0h.9v2.2c0 .2-.1.3-.2.4 0 .1-.2.2-.4.2s-.4.1-.6 0h-.5c-.1 0-.3 0-.4-.1-.1 0-.2-.1-.3-.2 0 0-.2-.2-.2-.3v-2.2h.9V27c0 .1 0 .3.1.4 0 0 .2.1.4.1.1 0 .3 0 .4-.1 0 0 .1-.2.1-.4v-1.8Zm1.7 0h.8l1.1 1.6v-1.6h.8v2.9h-.8l-1.1-1.6v1.6h-.8zm3.5 2.9h.9v-2.9h-.9zm1.4-2.9h.9l.6 2.1.6-2.1h.9l-1.1 2.9h-1l-1.1-2.9Zm3.6 0h2.4v.6h-1.5v.5h1.4v.6h-1.4v.6h1.5v.7h-2.4v-2.9Zm4 1.2h.7V26h-.7v.6Zm-.9 1.7v-2.9h2.1c.1 0 .3.1.4.3 0 .1.1.3.1.5s0 .3-.1.4c0 .1-.2.2-.3.3 0 0-.2 0-.3.1 0 0 .2 0 .2.1l.1.2c.1.2.1.1.1.2l.4.8h-1l-.5-.9s0-.2-.2-.2h-.2v1.2h-.9Zm3.1-.9h.8s0 .2.1.3c0 .1.2.2.4.2h.3s.1-.1.1-.2v-.2s-.2-.1-.5-.2c-.4 0-.7-.2-.8-.4q-.3-.15-.3-.6c0-.2 0-.3.1-.4 0-.1.2-.2.4-.3.2 0 .4-.1.7-.1s.6 0 .8.2c.2.1.3.4.3.7h-.8s0-.2-.1-.2h-.5v.3s.1 0 .3.1c.4 0 .7.2.8.3.2 0 .3.2.4.3 0 .1.1.3.1.4 0 .2 0 .4-.2.5-.1.2-.3.3-.4.4-.2 0-.5.1-.7.1-.5 0-.8 0-1-.3-.2-.2-.3-.5-.3-.7Zm3.2.9h.9v-2.9h-.9zm1.5-2.9h2.7v.7h-.9v2.2h-.9v-2.2h-.9zm3 0h1l.6 1 .6-1h1l-1.1 1.7v1.2h-.9v-1.2l-1.1-1.7Z"/></g></svg>