<svg xmlns="http://www.w3.org/2000/svg" viewBox="0 0 128 50.9"><path d="M29.5 10.5C38 10.5 45 17.4 45 26s-6.9 15.5-15.5 15.5S14 34.6 14 26s6.9-15.5 15.5-15.5M36 32.3h.3v-.2c0-.1-.3-.4-.4-.4 0 .2 0 .4.2.5v.2Zm-13.1 1.1c0-.2.2-.3.2-.5v-.2c0-.1.3-.1.4-.3V32c.1-.2 0-.7-.2-.7 0 0-.2.1-.2.2v.2c0 .2-.1.4-.2.6 0 .1 0 .2-.1.3 0 0-.1.2-.2.2h.1v.2c0 .2-.3.6 0 .8h.5c.2-.1.4-.2.5-.3v-.1c-.1-.2-.2 0-.4 0Zm2-.2h-.1s0 .2-.1.3c0 0-.1 0-.2.1-.2 0-.3.2-.5.3h-.2v.2h-.1c0 .2.1.4.4.3 0 0 .3-.3.3-.4h.8v-.8Zm-.5.6.2-.2c.1 0-.1.3-.2.2m1.1-.6c0-.1-.1-.2-.3-.2v.4c0 .2 0 .3.2.3.1 0 .3-.1.2-.3 0 0 0-.1-.1-.2m-3.7-2.3c-.1 0 0 .2 0 .4v.2c0 .3-.2.7-.1 1.1v.8c0 .1-.1.1-.2.2-.1.2-.3.3-.4.4-.2.1-.3.2-.4.5h.2c.2 0 .4-.4.5-.5v-.2s.1-.2.2-.2c0 0 .1.2.2.1v-1.1c0-.3 0-.6.1-.8 0-.2.2-.4.2-.6V31c0-.2-.2-.4-.4-.4Zm-.8 2.5c0 .2-.2.4-.1.6l.2-.2c.1 0 .3-.2.3-.3 0-.2-.3-.3-.5-.3h-.2c-.1.3.1.2.1.4Zm4.8-2.2c-.2 0-.4.1-.5 0 0 0 0-.1-.1-.1h-.5c0 .2.2.2.2.3l-.2.2s-.2.1-.2.2c0 0-.2 0-.3.2l.1.1h.4l.2-.2c.1 0 .2-.1.4-.2.1 0 .2-.2.3-.2h.1s.2-.1.1-.2Zm-.5 1.2s.2-.3.3-.3c0-.1 0-.2-.2-.2 0 0-.1 0-.2.1l-.5.3s-.2 0-.2.1c.2.1.3 0 .4 0v.2c-.1.1-.3.2-.4.4 0-.2 0-.2-.1-.3h-.2c0 .1 0 .2.1.3 0 .1.2.2.2.2.1 0 .1 0 .2-.1h.4c0-.1.2-.2.2-.2s.2-.2.2-.3v-.1Zm3.2 0c0 .1-.1.1-.2.2l-.5.2s0-.2.1-.3v-.3c.2-.1.4-.3.4-.4 0-.2-.2-.3-.4-.3h-.8c0 .2.3.6.5.5.1 0 .2-.1.2-.2v.2c0 .2 0 .3-.1.6v.2s-.3.2-.4.2c-.2.1-.4.2-.7.3-.1 0-.4.1-.5.2 0 .2.3.4.5.2.3-.2.7-.4 1-.6 0 0 .3-.2.4-.2l-.1.1c.1 0 .3-.2.5-.2h.1c.2 0 .4-.2.5-.3 0-.1-.2-.3-.3-.3Zm6.3 1s-.3-.2-.4-.2h-.2c0 .2 0 .2.1.3v.2c0 .1.3.1.5.1zm2.6 0h-.1c-.1 0-.2.2-.4.2 0-.1.1-.2 0-.3 0-.1-.3-.2-.4-.2 0 .3 0 .2.2.3v.3s-.2 0-.3.2c0 0-.2 0-.3.1.1.1.3.2.4.1h.2q0-.15 0 0v.1c-.1.4-.4 0-.6.1 0 .2.5.3.7.2.1 0 .4-.2.3-.4v-.3.1h.1s.1 0 .2-.1h.2c0-.1 0-.2-.2-.2Zm.2-1.4s0 .2-.2.2c0-.1.1-.3.2-.3v-.2c0-.2.2-.2.2-.4v-.2h-.3v.4c0 .2-.1.3-.2.4v-.2s-.1 0-.1-.1c0-.2 0-.3-.1-.3.1-.1.2-.3 0-.4h-.2v.2s0 .2-.1.3c0 0-.2 0-.3.1 0 0 .1 0 .1.1 0 0 0 .1-.1.2s.2 0 .2 0h.1v-.1.3h-.2v.1h.1c0 .1-.2.3-.2.4l.4-.2h.3v.1s-.2 0-.2.1c-.1 0-.6.4-.7.3v-.2c0-.2-.2-.4-.4-.4v.2c0 .3 0 .3.3.4 0 0 .3.1.4 0 .2-.1.4-.3.6-.4h.1s.2-.1.3-.1c0 .2-.5.5-.7.7.2 0 .3-.1.4-.2h.2c.2-.2.4-.4.5-.6 0-.1-.2-.3-.4-.3Zm-.7 0v-.2zm-1.5 1.1v.2s-.2.2-.1.4c0 0 .2.2.3.1.2 0 .3-.7 0-.7Zm-3.1-1.6c0-.1-.2-.1-.3 0 0 0-.1 0-.2.1-.1 0-.3.2-.4.2 0 0-.2.2-.3.1v-.2h.2c.2-.1.5-.3.6-.5 0 0-.2-.2-.3-.2s-.2.1-.3.2c-.1 0 0-.3-.2-.3v.3c0 .2-.1.2-.2.3 0-.2 0-.4-.3-.3v.5c0 .1-.3.1-.5.2 0 .1.2.3.3.3h.2s.1.1.2.1h.1s-.4.2-.5.2l-.6.3c-.1 0-.2.2-.4.3-.1 0-.5.2-.4.4h.5c.2-.1.3-.3.4-.4 0 0 .1 0 .2-.1 0 0 .1-.2.3-.2v.3c.2 0 .2-.1.3-.2 0 0 .1 0 .2-.1 0 .1 0 .2-.2.3h-.1c0 .1.1 0 .2.1h-.2c0 .1.1.1.2.2l-.1.1s.2.2 0 .3c0 0-.4.2-.5.2h-.1c-.2.1.1.4.2.4 0 0 0-.2.1-.3.1 0 .2 0 .3.1.2.1 0 0 .1-.2 0 0 .4-.2.5-.2 0-.2-.1-.3-.2-.4-.1 0 0 .3-.2.4 0-.2 0-.4.1-.6 0 0 .1-.2.1-.3v-.5c.1 0 .3-.2.4-.3 0 0-.2-.2-.3-.2h-.1c.1 0 .2-.2.4-.2h.5s.2-.1.2-.2Zm-.9-.4s-.1.2-.2.3c0-.2.1-.2.2-.3m-.6 3.1h-.2c0-.1 0-.2.1-.2s0 0 0 .2Zm-.1-2.6h.1v.2Zm0 1c0-.2.2-.3.3-.3h.1s-.4.3-.5.4Zm3.8-.7s-.2-.1-.3 0c-.1 0-.2.2-.3.3h-.1v-.7c0-.1-.4-.4-.5-.4-.1.3 0 .4.1.6 0 .1.1.8 0 .9s-.3.2-.3.2c-.2.1-.4.3-.6.4h-.3c0 .1-.1.1-.2.1 0 .3 0 .4.4.3.2 0 .3-.2.5-.3.1-.1.3-.3.5-.3v.3c-.1.2-.3.4-.6.5-.1 0-.3 0-.4.1h.5c.4 0 .5-.2.7-.5 0 0 0-.1.1-.2 0-.2 0-.3.1-.5v-.2s.2-.1.2-.2h.1c0-.2.1-.2.2-.3 0 0 .2-.1.1-.3ZM26.4 24h3.3v-.5h-3.3zm0 3h3.3v-.5h-3.3zm-2.8-6h10c1.5 0 2.2 1.3 2.1 2.4-.1.8-.8 1.4-1.1 1.5.8.2 1.4.9 1.5 1.6.3 1.8-1.3 2.4-1.9 2.4H23.6v-1.1h7.7c1.6-.1 1.3-2 0-2h-7.7v-1h7.6c.9 0 1.5-1.2 1.2-1.9h-6v-.4h5.7c-.3-.3-.8-.5-1.3-.5h-7.2zm5.9-9.5c4 0 7.6 1.6 10.2 4.2 2.7 2.7 4.2 6.4 4.2 10.2 0 4-1.6 7.6-4.2 10.2-2.7 2.7-6.4 4.2-10.2 4.2-4 0-7.6-1.6-10.2-4.2-2.7-2.7-4.2-6.4-4.2-10.2 0-4 1.6-7.6 4.2-10.2 2.7-2.7 6.4-4.2 10.2-4.2m9.8 4.6c-2.6-2.6-6.1-4.1-9.8-4.1s-7.2 1.5-9.8 4.1-4.1 6.1-4.1 9.8c0 3.8 1.6 7.3 4.1 9.8 2.6 2.6 6.1 4.1 9.8 4.1 3.8 0 7.3-1.6 9.8-4.1 2.6-2.6 4.1-6.1 4.1-9.8 0-3.8-1.6-7.3-4.1-9.8M27.7 36.6h-.1v-1.2h-.2c0-.1.4-.1.4-.1v1.3Zm1-.5q.3 0 .3-.3t-.3-.3h-.2v.4h.2Zm0 .5h-.2l.3-.5h-.1c-.1 0-.2 0-.3-.1 0 0-.1-.2-.1-.3 0-.2.2-.5.4-.5s.5.2.5.4c0 .1 0 .2-.2.4s-.3.5-.3.5Zm1.2-.7q-.3 0-.3.3t.3.3h.2v-.4h-.2Zm.1-.6h.2l-.3.5c.1 0 .2 0 .3.1 0 0 .1.2.1.3 0 .2-.2.5-.4.5s-.4-.2-.5-.4c0-.1 0-.2.2-.4s.3-.5.3-.5Zm.8.9v.3h.4v-1.1h-.4zm-.1 0v-.7c0-.1.2-.2.4-.2.1 0 .3 0 .3.1 0 0 .1.2.1.4v.7s0 .1-.2.1h-.2c-.1 0-.3 0-.4-.2v-.3Zm-12-4.9c0-.2-.1-.3-.2-.3h-.3l-.2.2v.4l.4-.2Zm.6-.3v-.1c0-.1-.1-.2-.2-.3h-.3c-.1 0-.2.1-.2.2v.4l.4-.2Zm.4.3s0-.1-.1-.1h-.2l-.9.4s-.1 0-.1.1v.2l-.3-.6v-.4c0-.1 0-.2.2-.2h.2s.2 0 .2.1v-.3s0-.1.2-.2h.4c.1 0 .2.2.3.4l.3.6Zm-.7-1.4v-.1h-.2l-1 .3h-.1v.2l-.4-1.2h.3c0-.1 0 0 0 0s-.1 0-.2.1v.6h.5v-.4c-.1-.1-.1-.2-.2-.2h-.2l.5-.2-.1.1v.5h.5v-.5c-.1-.1-.2-.2-.2-.3h-.3.4l.4 1.3Zm-.4-1.6v-.2h-.2l-1 .2h-.1v.2l-.1-.7v.2h.2l1-.2h.1v-.2zm-1.7-1.6v.2h1.4s.1.2.1.3v.2h-1.1s-.1 0-.2.1v.2-.7Zm1.4-.3v-.2h-1.4c-.1 0 0 0 0 .2v-.7.2h1.4v-.2zm-.2-1.3h.2v-.2.5-.2h-1.2c0-.1 0-.1-.1 0v.1-.4l1.2-.7h-.8c0-.1-.1-.1-.2 0v.2-.5.2h.2l1.2.2-1.3.9h.9v.1Zm.7-2.9v.6c0 .2-.2.4-.4.5q-.3.15-.6 0c-.2 0-.4-.2-.5-.4 0-.2-.1-.4 0-.6 0 0 0-.2.1-.3v-.1h.4c-.1 0-.2 0-.3.1 0 0-.1.2-.2.3v.5c0 .1.2.2.4.3h.5c.2 0 .3-.2.3-.4v-.4h-.4c0-.1-.1-.1-.2-.1v.2l.2-.6v.2h.5v.1Zm-.9-1.3.3-.6v.2l.1.1.6.3c.2 0 .3.1.4 0s.2 0 .3-.2v-.4q0-.15-.3-.3l-.6-.3h-.2l-.1.1.2-.5v.2c0 .1 0 0 .1.1l.5.3c.2 0 .3.2.3.4v.5s-.1.2-.2.2c0 0-.1 0-.2.1h-.2s-.2 0-.3-.1l-.5-.3h-.2l-.1.1Zm2.2-1.4h.1l.1-.1-.3.4v-.3l-.8-.7H19l.2-.3h1.4L20 18h-.1l-.1.1.3-.4v.3l1 .8h-1.6l.7.6Zm1.1-1v-.3l-.7-.7h-.3l.5-.5v.3l.7.7h.3zm1.2-1.1-1.2-.6h-.3l.5-.4v.1l.2.2c.1 0 .4.2.7.4l-.2-.9H22l.4-.3v.3l.3 1.3Zm.8-.7s.1-.1.1-.2v-.2l-.5-.9s0-.1-.1-.1h-.2l1.1-.7.2.3s-.1 0-.2-.1h-.2l-.3.2.2.3h.3c.1-.2.2-.2.2-.3v-.2l.2.4-.1-.1h-.5v.2l.2.4.3-.2c.1 0 .2-.1.2-.2V15v.4L23 16Zm1.5-1.7c.2 0 .3-.1.3-.2v-.3s-.1-.2-.2-.2h-.4l.2.4Zm-.1.9h.1v-.2l-.4-.9v-.1h-.2l.7-.3h.4c.1 0 .2 0 .2.2v.3s-.1.2-.2.2q.45.3.6.3h.2l-.3.2c-.1 0-.3-.1-.4-.2-.1 0-.3-.1-.4-.2h-.1v.3c.2 0 .2.1.2.1h.2zm1.7-.6-.2-.4s.2.2.3.2h.3s.1 0 .2-.1v-.3h-.5c0-.1-.2-.2-.2-.2s0-.1-.1-.2V14s.2-.2.3-.2h.3l.1.4s-.1-.2-.2-.2h-.4v.3h.5c0 .1.2.2.3.2 0 0 0 .1.1.2v.3c0 .1-.2.2-.3.2h-.3Zm1.2-.3s.1 0 .2-.1v-1.2c-.1 0-.2-.1-.2-.1h-.2l.7-.1s-.1 0-.2.1v1.2c.1 0 .2.1.2.1h.2zm1.2-.2h.2v-1.3h-.3v.2-.4H30v.4-.2h-.3c-.1 0 0 0 0 0v1.3h.2-.7Zm1.7 0h.2c.1 0 0 0 0-.1v-.4l-.4-.7h-.1.7-.1l.3.5.4-.4h-.1.5-.1l-.1.1-.5.5v.5h.2-.7Zm2.2-.3v.5c0 .1.2.3.3.3h.4c.1 0 .2-.2.3-.4v-.5c0-.1-.2-.3-.3-.3h-.4c-.1 0-.2.2-.3.4m-.2-.1c0-.2.2-.4.4-.5h.6c.2 0 .4.2.5.4v.6c0 .2-.2.4-.4.5h-.6c-.2 0-.4-.2-.5-.4zm1.4 1.3h.2l.1-.1.5-.9v-.2c0-.1 0 0-.1-.1s1.1.5 1.1.5v.3h-.2V15s0-.1-.2-.2h-.3v-.2l-.2.4h.2c0 .1.2.2.2.2l.1-.1-.2.5v-.2l-.2-.1h-.2v-.1l-.2.4v.2l.1.1-.6-.3Zm1.9 1h.2l.1-.1.6-.9c-.1-.1-.2-.1-.3-.1 0 0-.1 0-.2.1s.2-.3.2-.3l1.1.8-.2.3v-.3c0-.1 0-.1-.2-.2l-.6.9v.2l.1.1-.6-.4Zm1 .8h.3l.7-.7v-.3l.9.8-.2.3v-.2s0-.1-.1-.2l-.3-.3-.3.3.2.2.2.1h.2l-.3.4v-.2s0-.1-.1-.2l-.2-.2-.3.3.3.2c.1 0 .2.2.3.2h.3l-.3.2-1-.9Zm2.3 2h-.4c-.1 0-.2-.1-.3-.2-.1-.2-.2-.4-.2-.6s.1-.4.3-.5.4-.2.6-.2.4.1.5.3l.1.2v.2l-.3.4c0-.1.1-.3.1-.4s0-.2-.1-.3c0-.1-.2-.2-.4-.2s-.3 0-.5.2c-.1.1-.2.3-.3.4 0 .2 0 .3.1.4l.2.2h.3Zm-.2.4.1.1h.2l.9-.5s.1 0 .1-.1v-.2l.3.6-.1-.1h-.2l-.3.2.3.5.3-.2s.1 0 .1-.1v-.2l.3.6-.1-.1h-.2l-.9.5s-.1 0-.1.1v.2l-.3-.6.1.1h.2l.4-.2-.3-.5-.4.2s-.1 0-.1.1v.2zm1.3 1.8H40v.2l-.2-.5v.1h.2l1-.3V21l.1.3-.7 1.2.8-.2h.1v-.2l.2.5v-.1h-.2l-1.2.4.8-1.4-.9.3Zm1 1.7c-.2 0-.4.1-.5.2s-.1.3-.1.4c0 .2.1.3.2.3h.5c.2 0 .4-.1.5-.2s.2-.3.1-.4c0-.1-.1-.3-.2-.3zm-.1-.3c.2 0 .4 0 .6.1s.3.3.3.5 0 .4-.1.6-.3.3-.5.3-.4 0-.6-.1-.3-.3-.3-.5 0-.4.1-.6.3-.3.5-.3m-.4 1.9v.2H42V25v.7-.2h-1.3v.7l.2.2h-.4v-1.2Zm.7 1.9h-.5c-.1 0-.2.2-.2.3s0 .3.1.4.3.2.5.2h.5c.1 0 .2-.2.2-.3s0-.3-.1-.4-.3-.2-.5-.2m0-.3c.2 0 .4.1.5.3s.2.4.1.6c0 .2-.1.4-.3.5s-.4.2-.6.1c-.2 0-.4-.1-.5-.3s-.2-.4-.1-.6c0-.2.1-.4.3-.5s.4-.2.6-.1m-1.2 3.2v-.6c0-.2.2-.4.4-.5q.3-.15.6 0c.2 0 .4.2.5.4 0 .2.1.4 0 .6 0 0 0 .2-.1.3v.1h-.4c.1 0 .2 0 .3-.2 0 0 .1-.2.2-.3v-.5c0-.1-.2-.2-.4-.3h-.5c-.2 0-.3.2-.3.4v.4h.4c0 .1.1.1.2.1v-.2l-.2.6v-.2h-.5Zm-.4.6v.2l.1.1.4.2.8-.2h.1v-.1l-.3.6V31l-.6.1.3.5v-.1l-.2.4v-.3l-.4-.6-.4-.2h-.1l-.1.1.3-.6ZM51.8 34h.5v-.6h-.5v.5Zm0 1h.5v-.5l-.1-.1h-.6v.6Zm-.6.2h.1v-1.5h-.1c0-.1 1-.1 1-.1h.5s.1 0 .2.2v.2c0 .1 0 .2-.1.3l-.1.1h.1s.1 0 .2.1v.5s0 .1-.2.2c0 0-.2 0-.3.1h-1.3Zm2.1 0h.1v-1.5h-.1c0-.1 1.7-.1 1.7-.1v.5h-.1v-.2h-.8v.5h.6v-.1h.1v.7h-.1v-.2h-.6v.6h.9l.1-.1v-.2l-.2.5h-1.8Zm2.1 0v-.1h.1v-1.5h-.1c0-.1 1-.1 1-.1h-.1V35h.1-1Zm2.4-2v.1h-.1v1.5s0 .1-.1.2c0 0-.1 0-.2.1h-.5v-.2h.1v-1.5h-.1c0-.1 1-.1 1-.1Zm.3 2v-.1h.1v-1.5h-.1c0-.1 1-.1 1-.1H59V35h.1-1Zm1.6-.3v.1h.1c0 .1-.8.1-.8.1V35h.1v-1.5H59c0-.1.5-.1.5-.1l1.1 1.4v-1.1h-.1c0-.1.8-.1.8-.1v.1h-.1v1.8h-.1l-1.3-1.6v1.2Zm3.9.1c-.1 0-.3.1-.4.2h-.8c-.1 0-.3-.1-.4-.2-.1 0-.2-.2-.2-.3v-.8q.15-.45.6-.6c.3 0 .6-.1.8 0h.2v.6h-.1s0-.2-.1-.2c0-.1-.2-.2-.3-.2h-.5s-.2.1-.2.2c0 0-.1.2-.2.3v.8c0 .1 0 .2.2.3 0 0 .2.1.2.2h.6v-.6h-.2c0-.1.9-.1.9-.1v.1h-.1v.7Zm1-1.7c0-.1.9-.1.9-.1v.1h-.1v1.4l.2.1h.5s.1 0 .2-.1c0 0 0-.1.1-.2v-1.2h-.1.8v.1H67v.9c0 .3 0 .5-.2.7 0 0-.2.1-.3.2h-1c-.1 0-.2-.2-.3-.3v-1.4h-.1Zm3 1.6v.1h.1c0 .1-.8.1-.8.1V35h.1v-1.5l-.1-.1c0-.1.6-.1.6-.1l1.1 1.4v-1.1h-.1c0-.1.8-.1.8-.1v.1h-.1v1.8h-.1l-1.3-1.6V35Zm1.9.3v-.1h.1v-1.5h-.1c0-.1 1-.1 1-.1h-.1V35h.1-1Zm2.2.1-.7-1.6v-.3h-.2c0-.1.9-.1.9-.1h-.1v.3s0 .2.2.4c0 .2.2.3.2.5l.5-1.1v-.1h-.1.7v.1H73v.1l-.7 1.7Zm1.4-.1h.1v-1.5h-.1c0-.1 1.7-.1 1.7-.1v.5h-.1v-.2h-.8v.5h.6v-.1h.1v.7h-.1v-.2h-.6v.6h.9l.1-.1v-.2l-.2.5h-1.8Zm2.8-1.1h.5l.1-.1v-.5H76v.6Zm-.7 1.1v-.1h.1v-1.6h-.1c0-.1 1-.1 1-.1h.3s.2 0 .2.1c0 0 .1.1.1.2v.6s-.1 0-.2.1h-.2c.1.2.2.3.3.4 0 .1.2.2.2.3 0 0 .1.1.2.1 0 .1-.5.1-.5.1-.3-.3-.5-.6-.7-.9h-.2v.6h.1c0 .1-1 .1-1 .1Zm2.5.1v-.6h-.1.1s0 .2.1.2c0 0 0 .1.1.2 0 0 .1 0 .2.1h.3s.1 0 .2-.2v-.3h-.1l-.3-.2s-.1 0-.2-.1l-.1-.1V34c0-.1 0-.3.2-.4 0 0 .1 0 .2-.1h.7v.6h-.1v-.2s0-.1-.1-.2-.3-.2-.4-.1v.4h.1l.3.2s.1 0 .2.1l.1.1v.5s0 .1-.1.2c0 0-.1 0-.2.1H78Zm1.6-.1v-.1h.1v-1.5h-.1c0-.1 1-.1 1-.1h-.1V35h.1-1Zm1.6 0v-.1h.2v-1.6h-.3v.3h-.1v-.5h1.8v.6h-.1v-.3H82v1.6h.1-1Zm2.3 0v-.1h.2v-.6l-.6-.9h-.1c0-.1 1-.1 1-.1v.1h-.1l.4.6.4-.6v-.1c0-.1.7-.1.7-.1v.2l-.5.8v.6h.1c0 .1-1 .1-1 .1Zm2.7-1v.4c0 .1 0 .2.1.3l.2.2h.6s.1 0 .2-.2c0 0 .1-.2.1-.3v-.8c0-.1 0-.2-.1-.3l-.2-.2h-.6s-.2.1-.2.2c0 0-.1.2-.1.3zm-.4 0v-.4c0-.3.3-.5.6-.6h.8c.3 0 .5.3.6.6v.8c0 .3-.3.5-.6.6h-.8c-.3 0-.5-.3-.6-.6zm2.4 1h.1v-1.5h-.1c0-.1 1.7-.1 1.7-.1v.5h-.1v-.2h-.7v.5h.5v-.1h.1v.8h-.1v-.2h-.5v.7h.2v.1h-1Zm2.9 0v-.1h.2v-1.6h-.3v.3h-.1v-.5h1.8v.6h-.1v-.3h-.4v1.6h.1-1Zm1.6 0h.1v-1.5h-.1c0-.1 1.7-.1 1.7-.1v.5H94v-.2h-.8v.5h.6v-.1h.1v.7h-.1v-.2h-.6v.6h.9l.1-.1v-.2l-.2.5h-1.8Zm4.1-.5s-.1.2-.2.2c-.1.1-.3.2-.4.2h-.7c-.3 0-.5-.3-.6-.6v-.8c0-.1.1-.2.2-.3 0 0 .2-.2.3-.2h1.1v.7h-.1s0-.2-.1-.2c0 0 0-.1-.1-.2h-.4c-.2 0-.4 0-.5.2 0 0-.1.2-.2.3v.8c0 .1 0 .2.2.3l.2.2h.5c.1 0 .3 0 .3-.2l.2-.2Zm.2.5h.1v-1.5h-.1c0-.1.9-.1.9-.1v.1h-.1v.6h.8v-.6h-.1.9v.1H99v1.5h.1c0 .1-1 .1-1 .1h.1v-.6h-.8v.6h.1c0 .1-.9.1-.9.1Zm3-.3v.1h.1c0 .1-.8.1-.8.1V35h.1v-1.5H99c0-.1.6-.1.6-.1l1.1 1.4v-1.1h-.1c0-.1.8-.1.8-.1v.1h-.1v1.8h-.1l-1.3-1.6v1.2Zm2.3-.7v.4c0 .1 0 .2.1.3l.2.2c.1.1.2 0 .3 0h.3s.1 0 .2-.2c0 0 .1-.2.1-.3v-.8c0-.1 0-.2-.1-.3l-.2-.2h-.6s-.2.1-.2.2c0 0-.1.2-.1.3zm-.4 0v-.4c0-.3.3-.5.6-.6h.8c.3 0 .5.3.6.6v.8c0 .3-.3.5-.6.6h-.8c-.3 0-.5-.3-.6-.6zm2.4 1v-.1h.1v-1.5h-.1 1v.1h-.1v1.5h.7l.1-.1v-.2h.1l-.2.6h-1.7Zm2.5-1v.4c0 .1 0 .2.1.3l.2.2c.1.1.2 0 .3 0h.3s.1 0 .2-.2c0 0 .1-.2.1-.3v-.8c0-.1 0-.2-.1-.3l-.2-.2h-.6s-.2.1-.2.2c0 0-.1.2-.1.3zm-.4 0v-.4c0-.3.3-.5.6-.6h.8c.3 0 .5.3.6.6v.8c0 .3-.3.5-.6.6h-.8c-.3 0-.5-.3-.6-.6zm4.4.8c-.1 0-.3.1-.4.2h-.8c-.1 0-.3-.1-.4-.2 0 0-.2-.2-.2-.3v-.8q.15-.45.6-.6c.3 0 .6-.1.8 0h.2v.6h-.1s0-.2-.1-.2c0 0 0-.1-.1-.2h-.7s-.2.1-.2.2c0 0-.1.2-.2.3v.8c0 .1 0 .2.2.3 0 0 .2.1.2.2h.7v-.6h-.2c0-.1.9-.1.9-.1v.1h-.1v.7Zm.8.2v-.1h.2v-.6l-.6-.9-.1-.1c0-.1 1-.1 1-.1v.1h-.1l.5.6.4-.6v-.1h-.1c0-.1.7-.1.7-.1v.1s-.2 0-.2.1v.1l-.5.8v.6h.1c0 .1-1 .1-1 .1Zm-4.6-13.3c.2 0 1.2 0 1.3-.2V21c-.2-.4-1-1.5-1.6-1.5-.2.7.3 1.4.6 1.7 0 .2-.1.4-.1.6Zm-48.5 4.2v-.2c.2-.6.6-1.1.8-1.6 0-.2 0-.4.2-.6.3-.4 1.2-.5 1.4-1.1 0-.3 0-.7-.2-.8-.1 0-.3 0-.3-.1-.1-.2.2-.6.3-.8.4-.9 0-2.6-.9-2.6-.2.1-.6.4-.7.7v.6c-.2.7-.5 1.5-.8 2.1-.2.4-.2.8-.4 1.1s-.5.6-.9.8h-.2v.3c.1 0 .3.1.5.1.2.3 0 .6-.2.8-.3.7-1.2 2.2-.4 2.8.2.1.4.2.7 0l.9-.4c.6-.2 1.6-.2 1.8-.8 0-.2 0-.3-.1-.4-.4-.7-.8 0-1.4-.1Zm7.5-.8c0-.2-.2-.2-.4-.2h-.2c-.3.2-.2.8-.5 1h-.3c-.2.2-.5.3-.8.5l-1.8 1.2-.6.3-.3.3c-.2.1-.4 0-.5.2 0 .7.5 1.5 1.5 1.1.2 0 1.1-1.3 1.2-1.5h.5c.4 0 .9-.2 1.4-.1.4 0 .9.2 1 0 .3-.5 0-1.2 0-1.7 0-.3.2-.7 0-.9Zm-2 2.1c-.2-.2.6-.7.8-.8.5 0-.4.9-.8.8m4.2-2c-.3-.4-.4-.9-1.1-.9h-.1v1.4l.2.3c.2.4.3.7.8 1 .5 0 1.1-.5.9-1.1-.1-.3-.4-.5-.5-.7Zm-13.7-8.5c-.5.3-.2.9-.1 1.4v.9c-.3 1.2-.6 2.7-.5 4.1v1.3c0 .4.2 1.5.1 1.9s-.5.5-.7.8c-.4.6-1 1.1-1.6 1.6-.6.4-1.2.8-1.4 1.7.2.2.2.2.5.3.1 0 .3.2.5.2.6-.1 1.5-1.5 1.8-2 .1-.2.2-.5.3-.7s.4-.8.8-.7c.2.1.4.7.8.5.2-.1.3-.8.3-1.1 0-.4-.2-.9-.3-1.4v-1.4c.1-1.1.1-2.1.5-3 .2-.7.7-1.3.8-2.1 0-.3 0-.4-.1-.6-.2-.7-.6-1.5-1.5-1.5ZM51.4 26c.1.8-.7 1.4-.5 2h.3c.2-.2.5-.4.7-.7 0-.1 0-.3.2-.4.5-.4 1-.6 1.3-1.1 0-.7-1-1.2-1.8-1.2l-.7.2c-.4.7.5.6.5 1.1Zm17.7-8.1c-.8-.3-1.3.5-1.7.3-.2-.1-.2-.4-.5-.5H66c-.2-.1-.5-.2-.8-.2q-.15 0-.3.3c0 .8.7.8.9 1.3-.2.3-.5.4-.7.6-.3.2-.6.5-.9.7s-.8.3-.9.6c.1.2.3.3.5.4.2 0 1.4-.3 1.6-.4.3-.1.4-.4.6-.6.4-.3.8-.5 1.3-.8.4-.2.6-.6 1.1-.7h.5c.2 0 .7-.5.5-.8 0-.2-.2-.2-.3-.2m-2 4.3c0-.3.7-1.1.9-1.2.2-.4-.2-.9-.6-.9-.3.2-.5.4-.7.5-.6.3-1.1.6-1.7 1-.2.1-.8.3-.9.5.6.5 1-.2 1.7-.2.1.2 0 .5-.2.6-.6.4-1 .8-1.4 1.4l-.3-.5c-.1-.2-.3-.3-.4-.5-.4 0-.7 0-.8.2 0 .4.4.8.5 1.2v.5c.1 0 .7.3.7.3.4 0 .4-.3.6-.5.1-.1.4 0 .6-.1l.6-.5.7-.3c.3-.2.6-.7.8-1.1v-.5Zm11.9.3-.3.2c-.3.2-.6.2-.8.4l-1.8.8c0-.2.3-.9.4-1.1l.5-1.1c.3-.5.8-1 1-1.6s-.9-1.2-1.5-1.2c-.5.2-1.2.2-1.9.2h-.8l-.5.3c-.3.5 1 1.8 1.7 1.7.4 0 .6-.5.9-.7h.1c.1.3-.2.6-.2.8-.3.7-.4 1.3-.5 2.1 0 .3-.2.6 0 .8 0 .4-1 .6-1.4.7-.8.4-1.6.8-2.5 1.1-.5.2-1.5.4-1.8.8 0 .6 1 1.3 1.7.9 1.2-.7 2.5-1.4 3.7-2.2.3-.2 1.1-.8 1.5-.9-.2.2-.3.3-.4.5l.1.1c.6-.3 1.2-.6 1.7-.8h.5c.6-.3 1.4-.6 1.7-1.1 0-.4-.7-1.1-1.2-.9Zm23.4 3.5c-.1-.2-1.1-.6-1.4-.7s-.4-.3-.8-.3h-.3c-.3.6.2.9.4 1.2s.2.6.3.9c.2.5 1.1.5 1.8.4.3-.4.3-.4.1-.9 0-.2 0-.4-.1-.5Zm9.4 0s-.2-.2-.4-.1c-.5.1-.8.9-1.4.7-.2-.4.4-.6.3-1.1s-1-.6-1.6-.6c-.4 1 .3.8.6 1.2 0 .2-.2.4-.2.7v.5c-.3.2-.7.4-1.1.6l-.2.2c-.3.2-.8 0-1.1.3.3.3 1 .6 1.7.5l.9-.5v.5c-.4 1.3-1.5.2-2.4.5 0 .7 1.7 1.2 2.4.9.5-.2 1.3-.8 1.2-1.6 0-.3-.2-.7-.3-1 0-.1.2-.2.3-.3 0 .2-.1.2-.1.4.3 0 .4-.2.5-.3.2-.1.4-.3.7-.4s.7-.2.9-.4c.1-.5-.3-.6-.6-.7Zm.7-5.3c-.3.2-.3.6-.8.7-.1-.5.4-.9.6-1.2l.2-.4.2-.2v-.2c.3-.3.7-.7.8-1.1 0-.3 0-.6-.1-.8-.3-.2-.8-.1-1.2 0l-.2.5.2.4c0 .3-.2.5-.2.6-.3.6-.5 1.1-.8 1.6v-.8c-.1-.2-.5-.3-.5-.4v-.2c.2-.5 0-.7-.4-.8v-.2c.5-.5.6-1 0-1.5-.2-.2-.4-.3-.8-.3 0 0-.2 0-.3.2-.1.3.2.4.2.7 0 .1-.4.9-.5 1-.2.3-.8.2-1.1.5.1.3.4.3.5.5 0 .3-.4.5-.5.7v.2h.2l.6-.3h.5c.1-.2 0-.4.3-.4.1.3-.2.8-.4 1h-.8v.4c.2 0 .3.1.4.3.1.4-.6 1.1-.7 1.5.4.2 1.3-.7 1.5-.9.6 0 .6 0 1-.2.1.1.3.3.2.5-.1.3-.6.4-.9.5-.5.2-2.1 1.3-2.7 1.2v-.6c-.2-.6-.7-1.6-1.5-1.6-.2.3 0 .5.2.8.3 1.1 0 1.2 1 1.6v.2c-.1 0-.3.1-.4.2.2.3 1.3.4 1.5.2.7-.5 1.3-1 2.1-1.5l.5-.3h.2c.2-.1.7-.5.9-.5-.1.9-1.9 1.8-2.5 2.4v.1c.6 0 1.1-.5 1.6-.7l.9-.2c.9-.4 1.5-1.1 2-1.9 0-.1.3-.2.4-.3.2-.5-.9-1.2-1.5-.9Zm-2.3.2h-.2c0-.5 0-.7.3-.9.2.3.1.8-.2.9Zm-5.7 4-.3.2v.5c-.1.3-.6.9-.5 1.3.1.2.6.6 1 .5.6-.3 1-2.6-.1-2.5Zm-11.6-6c-.2-.4-.7-.4-1.1-.2-.3.1-.5.3-.7.5l-1.5.9c-.2.1-.9.6-1 .4 0-.2 0-.8.2-.9l.6-.2c.7-.3 1.9-1.1 2.2-1.8-.1-.3-.8-.8-1.3-.7-.4 0-.8.4-1.1.6-.4 0 0-1-.8-1-.3.3-.3.7-.3 1.2v.3c0 .3-.4.6-.6.8h-.1c-.2-.6-.2-1.4-1.1-1.1-.1.2 0 .4 0 .7l-.2.5v.6c-.3.5-1.2.4-1.7.7-.1.5.7 1 1.2.9.3 0 .3-.2.6-.2.2.2.4.5.8.4.2 0 .3-.1.5-.2v.2c-.1.2-1.3.7-1.7.9-.7.4-1.5.8-2.2 1.3-.4.3-.8.7-1.3 1-.4.2-1.7.8-1.5 1.4.3.2.5.1.8 0l1-.2c.7-.3 1.1-.9 1.6-1.3.3-.2.5-.4.8-.5.3-.2.5-.6.9-.6-.1.5-.4.8 0 1.2.6.1.7-.5 1-.8.2-.2.4-.3.7-.4.1 0 .2-.1.3 0 0 .2-.2.2-.4.3 0 .5-.2.8-.7.9-.2 0-.3 0-.4.3.3.4.4.2.7.4v.3c-.1.1-.5.1-.6.2-.2.5.4.5.6.8v.1c-.1.1-.5.2-.5.4-.1.4.7.6.3 1.1-.1.1-1.5.6-1.7.6h-.5c-.7.5.5 1.4.9 1.4.3-.3.2-.8.5-.9.4 0 .9.3 1.1.5l.3.3c.9.2.3-.6.5-1 .1-.2 1.3-.8 1.7-.8.4-.6-.4-1.2-.8-1.3-.4.2-.3 1.1-.7 1.4h-.1c-.1-.8.2-1.5.4-2.1.1-.3.5-.7.4-1.2 0-.2 0-.4-.1-.5 0-.1-.3 0-.4-.2l-.3-.5h.3c0-.3-.1-.5 0-.7 0 0 .2-.1.3-.2.4-.3 1.2-.7 1.4-1.2 0-.4-.6-.8-1.1-.6-.1 0-.2.2-.4.3.4-.4.9-.7 1.4-.9h.4l.7-.3c.4-.1.6 0 .9-.2.2-.1.9-.5.6-.9Zm-3.3-1.2c.1.3-.5.8-.7 1h-.1c-.4-.6.5-.8.8-1m-2.2 11.1c-.1.1-.3.2-.6.2v-.2c0-.3.2-.4.4-.6h.2zm-.1-9.3c0-.2.3-.2.4-.3.1.2-.1.5-.3.6h-.2v-.3Zm.1 1v-.2h.1v.3Zm-.3 2.5-.1-.1c-.2-.6.8-1.1 1.1-1.3h.5c.1 0 .1 0 .2.1 0 .3-1.4 1.2-1.7 1.3m14-2.4c-.1-.3-.6-.4-.9-.2-.5.3-.7.9-1.2 1.2-.1 0-.3.3-.5.2s0-.5 0-.8c0-.6.1-1.2 0-1.8 0-.5-1.5-1.4-2-1.5h-.1c-.5 1 .1 1.4.4 2 .2.4.4 2.8.2 3.2-.1.3-.9.7-1.2.9-.7.5-1.4 1-2.3 1.3l-1 .4h-.6c-.2 1.1.3 1.6 1.4 1.2.7-.2 1.2-.8 1.7-1.2.4-.4 1.2-1 1.7-1.2h.1c.2.4 0 .9-.2 1.2-.4.9-1.1 1.6-2.1 2-.5.2-1.2 0-1.4.4.4.2 1.1.2 1.5.1h.4c1.4-.3 2-.7 2.6-1.7.1-.2.4-.5.4-.8.2-.6.2-1.2.4-1.8v-.6c.2-.3.6-.5.9-.6l.5-.4c.3-.2.5-.3.8-.5.2-.2.7-.5.5-1" style="fill:#0094b0;fill-rule:evenodd" id="_图层_1" data-name="图层_1"/></svg>