<svg xmlns="http://www.w3.org/2000/svg" viewBox="0 0 128 38.9"><defs><style>.cls-2,.cls-7,.cls-8,.cls-9{fill-rule:evenodd}.cls-2{fill:#fff}.cls-7{fill:#231f20}.cls-8{fill:#00a650}.cls-9{fill:#005c33}</style><mask id="mask" x="16.6" y="11.2" width="16.5" height="16.5" maskUnits="userSpaceOnUse"><path d="M16.6 19.5c0 4.5 3.7 8.2 8.2 8.2S33 24 33 19.5s-3.7-8.2-8.2-8.2" style="fill:#fff" id="b"/></mask></defs><g id="_图层_1" data-name="图层_1"><path d="M14 19.5c0-6 4.9-10.9 10.9-10.9s10.9 4.9 10.9 10.9-4.9 10.9-10.9 10.9S14 25.5 14 19.5" style="fill-rule:evenodd;fill:#97401a"/><path class="cls-9" d="M16.6 19.5c0-4.5 3.7-8.2 8.2-8.2S33 15 33 19.5s-3.7 8.2-8.2 8.2-8.2-3.7-8.2-8.2"/><g style="mask:url(#mask)"><path class="cls-8" d="M24.8 24.7v.1s-.1 0 0 0v.7h-.4s-.2 0-.2.1h-.3s-.1.1-.2.1h-.2s0 .2-.1.2H23s-.1.2-.2.2c0 0-.3.1-.3.2h-.8 6.4s-.4-.1-.6-.1c0 0-.2-.1-.3-.2h-.7s-.2-.1-.2-.2h-.1s0-.1-.1-.1h-.3s-.2 0-.3-.2h-.3v-.8ZM22 26.8s.2 0 .3.1c.2.1.2.5.2.5h.5s-.1 0 0 0h.2-.2.4v-.1h-.5s0-.4-.3-.5h-.5Zm.9.1v.4zm.1 0v.4zm.2 0v.4zm1.6 0v.4zm.1 0v.5zm.2.1v.4-.3Zm1.5-.1v.4zm.2 0v.5zm.2.1v.4-.3Z"/><path class="cls-8" d="M25.2 27.4v.2H25s.1 0 0 0h-.7s0-.4-.2-.5h-.6c-.2 0-.3.4-.3.4s0-.3.1-.4c0 0 .2-.2.5-.2s.5 0 .7.2c.1.1.1.4.1.4h.4s0-.3.2-.4c0 0 .2-.2.5-.2s.5 0 .7.2c.1.1.1.4.1.4h.4s0-.4.3-.5c.2-.1.5-.1.5-.1v.2h-.5c-.1 0-.2.3-.2.4h-.2.1-.2.1-.6s0-.4-.2-.5h-.6c-.2 0-.3.4-.3.4Z"/></g><path d="M24.9 11.3c-4.5 0-8.1 3.6-8.1 8.1s3.6 8.1 8.1 8.1 8.1-3.6 8.1-8.1-3.6-8.1-8.1-8.1m0 16.5c-4.6 0-8.3-3.7-8.3-8.3s3.7-8.3 8.3-8.3 8.3 3.7 8.3 8.3-3.7 8.3-8.3 8.3" style="fill-rule:evenodd;fill:#d0a58c"/><path class="cls-2" d="M23.9 26c0 .1 0 .1-.2.1h.2v.5h.1v-.7Zm.6.4h.2c0 .2 0 .2-.2.2s-.1 0-.1-.1c0 0 0 .2.2.2.3 0 .3-.3.3-.4s0-.3-.3-.3-.3.1-.3.2.1.2.2.2"/><path class="cls-8" d="M24.5 26.4s-.2 0-.2-.1 0-.1.2-.1.2 0 .2.1-.1.1-.1.1Z"/><path class="cls-2" d="M25.4 26.5h-.1v-.4l-.4.4h.3v.2-.2h.1Z"/><path class="cls-8" d="M25.2 26.1v.3h-.3l.2-.3Z"/><path class="cls-2" d="M26.1 26.3c0-.1 0-.3-.3-.3s-.3.2-.3.3 0 .3.3.3.3-.2.3-.3"/><path class="cls-8" d="M26 26.3c0 .2 0 .3-.2.3s-.2 0-.2-.3 0-.3.2-.3.2 0 .2.3"/><path class="cls-2" d="M23.2 9.6h.1s.2-.1.3-.1h.1v.6h-.6V10h.1v-.3Zm-.1 0s-.1.1-.1.2c0 0 0 .1-.1.2l-.2.1s0 .1-.1.1V10s.2-.2.3-.2Z"/><path d="M23.8 9.5h.1Zm-.3.4" style="fill-rule:evenodd;fill:#8c492c"/><path class="cls-2" d="M20.3 10.8h.1v.3s.1.2.2.3v.1h-.1v-.3Zm.3.5h.1Zm-.6.5h-.1v-.1Zm-.2-1.5v.1l.1-.1v.3s-.2.1-.2.2v-.1l.1-.1v-.1h-.1Zm13.1 2.4h-.2zh-.8v-.2h.5-.5v-.1h.3l.1-.1v-.1.1Zm-15.9.4.1.1v.6H17c-.1 0 0 0 0 0v-.2h-.1l-.1-.1h-.1Zm.6-.7v.1h.1v.2h.1v-.2Zm9.7-2.7h-.2v.2h.2-1v-.1h.5c.1 0 .2-.1.2-.2h.6Zm2.7.9v.1h-.2v.8-.6H29h.5v-.1h.2l.1-.1Z"/><path class="cls-8" d="m24.9 24.4-1.1-.2.3-1.3c-2.9-.2-5.1-.9-5.1-.9-.4-.3-.8-.9-.8-.9s.7.2 1.3.2c1.1 0 2.9-.1 4.2 0h2.4c1.3-.1 3.1 0 4.2 0 .5 0 1.3-.2 1.3-.2s-.4.6-.8.9c0 0-2.1.7-5.1.9l.3 1.3z"/><path d="M24.9 19.7h1.7c1.3-.2 2.8-.1 3.5-.1.4 0 .9-.1.9-.1 0 .2-.4.6-.8.9-.3.2-.7.3-1 .5-.4.1-1.8.5-2.4.5-.4 0-.8 0-1.1.1l.3 1.2-1.1.2-1.1-.2.3-1.2c-.3 0-.7 0-1.1-.1-.6 0-2.1-.4-2.4-.5s-.7-.3-1-.5c-.4-.3-.7-.7-.8-.9 0 0 .5.1.9.1.7 0 2.2 0 3.5.1z" style="fill-rule:evenodd;fill:#2bb673"/><path d="M24.9 21.4h-1c0-.1.3-1.3.3-1.3h-.9c-.7-.1-1.3-.3-2-.6-.4-.2-.7-.4-1-.7s-.6-.6-.8-.9c0 0 .6 0 .9.1.5 0 1.5 0 2.9.2h3.4c1.4-.1 2.3-.1 2.9-.2.3 0 .9-.1.9-.1-.1.2-.4.6-.8.9-.3.3-.7.5-1 .7-.6.3-1.3.5-2 .6h-.9l.3 1.2-1 .1Z" style="fill-rule:evenodd;fill:#81ca9c"/><path d="M24.9 19.7h-1l.3-1.1h-.7c-.5 0-1-.2-1.4-.5-.5-.3-.9-.6-1.3-1-.3-.3-.6-.8-.6-1 0 0 .3 0 .5.1.3 0 1.5.3 3.1.4h2.3c1.6 0 2.8-.3 3.1-.4.2 0 .5 0 .5-.1 0 .2-.3.7-.6 1-.4.5-.8.8-1.3 1-.4.2-.9.4-1.4.5h-.7l.3 1.1h-1Z" style="fill-rule:evenodd;fill:#bfe2ca"/><path class="cls-2" d="m24 18 .2-.9s-.3.1-.6 0c-.4-.1-.5-.4-.5-.4s-.5 0-.8-.2-.3-.7-.3-.7-.5-.1-.9-.5q-.3-.45-.3-.9c.7.2 2 .5 3.6.5l.2-1c0-.1 0-.4.3-.4s.3.3.3.4l.2 1c1.6 0 2.9-.3 3.6-.5 0 .1 0 .5-.3.9-.4.4-.9.5-.9.5s0 .4-.3.7-.8.2-.8.2-.1.3-.5.4c-.3.1-.6 0-.6 0l.2.9z"/><path class="cls-9" d="M24.1 17.9h1.6l-.2-1h.1s.1.1.3.1h.2c.4-.1.5-.4.5-.4.1 0 .4 0 .6-.2.3-.2.3-.6.3-.6s.5-.1.8-.5c.2-.3.3-.6.3-.8-.5.2-1.8.5-3.5.5H25l-.2-1c0-.2 0-.4-.2-.4s-.2.2-.2.3-.2 1-.2 1h-.1c-1.7 0-3-.4-3.5-.5 0 .2 0 .5.3.8.3.4.8.5.8.5s0 .4.3.6c.2.2.5.2.6.2 0 0 .1.3.5.4h.6l-.2.9Zm1.7.1h-1.9l.2-.9h-.6c-.2 0-.4-.2-.6-.4-.2 0-.5 0-.7-.2-.3-.2-.3-.5-.4-.7-.3 0-.6-.3-.9-.6-.2-.3-.3-.6-.3-1 .4.1 1.7.5 3.5.5l.2-.9c0-.1 0-.5.4-.5.3 0 .4.3.4.5 0 0 .1.7.2.9 1.8 0 3.1-.4 3.5-.5 0 .2 0 .6-.3 1q-.3.45-.9.6c0 .1 0 .5-.4.7-.3.2-.6.2-.8.2-.1.2-.3.4-.6.4h-.6l.2.9Z"/><path class="cls-2" d="M24.8 13.8h.2c.7-.2 1.5-.6 1.9-1.1l.1-.1v.2c-.4.5-1.3 1-2.2 1.2-.1 0-.1-.1 0-.1Z"/><path class="cls-2" d="M25.5 13.6s-.2-.2-.1-.5c0-.3.3-.5.3-.5v.5c0 .2-.2.4-.2.4Zm.6-.3s-.1-.2-.1-.5.2-.5.2-.5v.5c0 .2-.2.4-.2.4Zm-.5.4h.4c.2.1.4.3.4.3h-.5c-.3 0-.4-.3-.4-.3Zm1-.7s-.1-.2-.1-.5.2-.5.2-.5v.5c0 .2-.2.4-.2.4Zm.4-.4s.2 0 .3-.3v-.5s-.2 0-.3.3c-.1.2 0 .5 0 .5m-.8.9s.2-.1.5 0 .4.3.4.3h-.5c-.2 0-.4-.3-.4-.3m.5-.4s.2-.2.4-.2h.5s-.2.2-.4.2-.5-.1-.5-.1Zm-11.3 6.1v.3zh-.2Zm-.5 0v.4h.2v-.3h-.3Zm1-.2v.7h-.4c0 .1-.1.2-.2.2H15v-.7h1.1Zm-1.1 1.2h1.1v.6-.5h-.3v.5-.5h-.3v.6-.8Zm1.2.9v.2l-1.1.2v-.2zm.2.9v.2l-.8.2h-.3s-.1-.1-.1-.2v-.3s.1-.1.3-.1 0 .2 0 .2h-.1v.1h.1l.8-.2Zm.2.5v.2l-1 .4v-.2zm-.7 1.1v-.2l1-.5v.2l-.5.7.7-.3v.2l-1 .5V24l.5-.7zm.7 1.4c0-.1-.1-.2 0-.4 0-.1.1-.3.3-.3.1 0 .3-.1.4-.1s.2 0 .3.2v.3c0 .1 0 .2-.1.3v-.3c0-.1 0-.3-.2-.3h-.3s-.2.1-.2.2v.2s.1.1.2.1h.1l-.1-.2h.2c0-.1.2.3.2.3l-.5.3c0-.1.1-.2.1-.2-.1 0-.2 0-.3-.2Zm1.7.4v.2l-.8.7v-.2zm-.3 1.3v-.1l.7-.8v.1l-.2.8.5-.6v.1l-.7.8h-.2c0-.1.2-1 .2-1l-.5.6Zm1.7.4v-.2h-.2s0 .1.1.2c0 .1.2.2.2.3v.2s-.1.1-.2.1-.2 0-.3-.1c0 0-.2-.1-.2-.3V27h.2v.4h.2s0-.1-.1-.1c-.1-.1-.2-.2-.2-.3v-.2s.1-.1.2-.1h.3l.2.2v.3zm.7.3h-.3v-.2l.7.3v.2h-.3c0-.1-.4.6-.4.6v-.1l.4-.8Zm.8.2-.5 1zm.6.5h-.3v-.2l.8.2v.2h-.3l-.3.8h-.2l.3-.9Zm1.4.9c0 .2 0 .3-.2.3h-.3c-.1 0-.2 0-.3-.2v-.3l.2-.7h.2l-.2.7v.2c0 .1 0 0 .1 0h.2v-.2l.2-.7h.2l-.2.7Zm.7-.4h-.3v-.1h.8v.2h-.3l-.1.9h-.2l.1-.9Zm.8 1v-1.1h.7v.2h-.5v.2h.5l-.5.1v.3h.6v.2h-.8Zm2.4-.5v-.3s0-.2-.1-.3h-.2s-.1 0-.2.1v.3s0 .2.1.3h.2s.1 0 .2-.1m-.5.3c-.1 0-.2-.2-.2-.4v-.4c0-.1.2-.2.3-.2h.4c.1.1.2.2.2.4v.4c0 .1-.2.2-.3.2zm1.2-.2-.3-1 .7-.2v.2l-.5.2v.2l.5-.1v.2h-.4c0 .1.1.6.1.6h-.2Zm1.4-1.5h-.3c0 .1 0 0 0 0l.7-.5v.2h-.3c0 .1.4.9.4.9v.1l-.4-.8Zm1.1.4-.6-.9.6-.4v.2l-.4.3v.2c.1 0 .5-.3.5-.3v.2l-.4.3.2.2.5-.3v.2l-.6.4Zm1.4-1.5s.1.2 0 .3c0 .1 0 .2-.2.3 0 0-.2.1-.4 0-.1 0-.3-.1-.4-.2s-.2-.3-.2-.4 0-.3.2-.3c0 0 .2-.1.3-.1s.2 0 .3.1h-.4v.2s0 .2.1.3c0 0 .2.1.2.2h.2v-.3h.2Zm-.2-.8v-.2l.3.3.3-.3-.3-.3v-.2l.8.7v.2l-.4-.3-.3.3.4.3v.2zm1.7-.4v.2l-.9-.6v-.2c.1 0 1 .1 1 .1l-.6-.4v-.2l.9.6v.2h-.9c0-.1.6.3.6.3Zm.7-1.6s-.1-.2-.2-.2h-.3s-.2 0-.2.1v.2l.2.2h.3s.1 0 .2-.1zm-.1.6h-.4c-.1 0-.3-.2-.3-.3v-.4c0-.1.2-.2.3-.2h.4c.1 0 .2.2.3.3v.4c0 .1-.2.2-.3.2m.6-1.1-1-.4v-.2l.8.3.2-.5-.3.7Zm.3-1.7s-.2-.1-.3-.1h-.3s-.1 0-.1.2v.2s.1.1.3.1h.3s.1 0 .1-.2zm0 .5h-.4c-.2 0-.3-.1-.4-.2 0-.1-.1-.2 0-.4 0-.1.1-.2.2-.3h.4c.2 0 .3.1.4.2v.4c0 .1-.1.2-.2.3m.4-1.7c0 .1 0 .3-.2.3-.1 0-.3.1-.4 0-.2 0-.3 0-.4-.2 0 0-.1-.2-.1-.4 0-.1 0-.2.1-.3 0 0 .2-.1.3-.1v.2H34v.3s.2 0 .3.1h.3s.1-.1.1-.2v-.2h-.1v.2h-.2v-.4h.6c0 .1-.1.1-.1.1s.1.2.1.3Zm-.3-1.1-.7.4v-.2l.5-.2-.5-.2v-.2l.7.3h.4c0 .1-.4.1-.4.1"/><path class="cls-7" d="M41.4 27.7h.7c.1 0 .3 0 .3-.1 0 0 .1-.2.1-.3s0-.2-.1-.3h-1v.8Zm0-1.3h.9s.1-.1.1-.3 0-.2-.1-.2h-.9v.6Zm-.5-1.1h1.3c.3 0 .5 0 .6.2.1.1.2.3.2.5s0 .4-.2.6h.2q.3.15.3.6c0 .45 0 .5-.3.7-.2.2-.4.2-.7.2h-1.2v-2.9Zm2.8 2.9v-2.9h2v.5h-1.4v.6h1.3v.5h-1.3v.8h1.5v.5h-2Zm2.6-2.9h.6v2.9h-.6zm2.2 0h.6v2.1c0 .3 0 .5-.2.7-.1.2-.4.2-.6.2s-.5 0-.7-.2c-.1-.2-.2-.4-.2-.8v-.2h.5v.6s.1.1.3.1h.2v-2.4Zm1.2 0h.6v2.9h-.6zm1.8 2.9H51v-2.9h.6l1.1 2v-2h.5v2.9h-.6l-1.1-2.1zm3.5.1c-.4 0-.7-.1-.9-.4s-.3-.6-.3-1.1.1-.9.4-1.1c.2-.3.6-.4 1-.4s.6 0 .8.3c.2.2.3.4.4.7h-.6c0-.1 0-.3-.2-.3-.1 0-.2-.1-.4-.1s-.4 0-.6.3c-.1.2-.2.4-.2.8s0 .6.2.8q.15.3.6.3c.2 0 .4 0 .5-.3 0-.1.1-.2.1-.4s-.6 0-.6 0v-.5h1.1v1.6h-.4v-.4c-.2.3-.5.4-.8.4Zm3-3h.6v2.9H58zm1.7 2.9h-.5v-2.9h.6l1.1 2v-2h.5v2.9h-.6l-1.1-2.1zm3.8-2c0-.1 0-.2-.2-.3-.1 0-.3-.1-.4-.1h-.3s-.1.2-.1.3c0 0 0 .2.1.2 0 0 .3.1.5.2.4 0 .7.2.8.3s.2.3.2.6 0 .5-.3.7c-.2.2-.5.2-.8.2s-.6 0-.8-.3c-.2-.2-.3-.4-.3-.7h.5c0 .1 0 .3.2.4 0 0 .2.1.4.1h.4c.1 0 .2-.2.2-.3s0-.2-.1-.2c0 0-.2-.1-.5-.2q-.6-.15-.9-.3c-.1-.1-.2-.3-.2-.6s0-.5.3-.7c.2-.2.4-.2.8-.2s.5 0 .7.3c.2.2.3.4.3.7h-.5Zm1.8-.4h-.8v-.5h2.2v.5h-.8v2.4h-.6zm1.8-.5h.6v2.9h-.6zm1.8.5h-.8v-.5h2.2v.5h-.8v2.4h-.6zm4 1.3c0 .4 0 .7-.3.9-.2.2-.4.3-.8.3s-.6 0-.8-.3q-.3-.3-.3-.9v-1.8h.6v1.8c0 .2 0 .4.1.5 0 .1.2.2.4.2s.3 0 .4-.1c0 0 .1-.3.1-.5v-1.8h.6v1.8Zm1.3-1.3h-.8v-.5h2.2v.5h-.8v2.4h-.6zm1.8 2.4v-2.9h2v.5h-1.4v.6h1.3v.5h-1.3v.8h1.5v.5h-2Zm5.5-.7c.1-.2.2-.4.2-.7s0-.6-.2-.8c-.1-.2-.3-.3-.5-.3s-.4 0-.5.3c-.1.2-.2.4-.2.8s0 .6.2.7c.1.2.3.3.5.3s.4 0 .5-.3m-1.4.4c-.2-.3-.3-.6-.3-1.1s.1-.9.3-1.1c.2-.3.5-.4.9-.4s.7.1.9.4.3.7.3 1.1-.1.8-.3 1.1-.5.4-.9.4-.7-.1-.9-.4m2.8.3v-2.9h1.9v.5h-1.3v.7h1.2v.5h-1.2v1.2zm4.2-2.4h-.8v-.5h2.2v.5h-.8v2.4h-.6zm1.8 2.4v-2.9h2v.5h-1.4v.6h1.3v.5h-1.3v.8H91v.5h-2Zm4.9-1c0 .3-.2.6-.4.8s-.5.3-.8.3-.7-.1-.9-.4-.3-.6-.3-1.1.1-.9.3-1.1c.2-.3.5-.4.9-.4s.6 0 .8.3c.2.2.3.4.4.8h-.6c0-.1 0-.3-.2-.4-.1 0-.3-.1-.4-.1-.2 0-.4 0-.5.3s-.2.4-.2.7 0 .6.2.7c.1.2.3.3.5.3s.3 0 .4-.2c.1-.1.2-.3.2-.4h.6Zm.6-1.9h.6v1.1h1v-1.1h.6v2.9H96v-1.3h-1v1.3h-.6zm3.3 2.9h-.5v-2.9h.6l1.1 2v-2h.5v2.9h-.6l-1.1-2.1zm4.1-.7c.1-.2.2-.4.2-.7s0-.6-.2-.8c-.1-.2-.3-.3-.5-.3s-.4 0-.5.3c-.1.2-.2.4-.2.8s0 .6.2.7c.1.2.3.3.5.3s.4 0 .5-.3m-1.5.4c-.2-.3-.3-.6-.3-1.1s.1-.9.3-1.1c.2-.3.5-.4.9-.4s.7.1.9.4.3.7.3 1.1-.1.8-.3 1.1-.5.4-.9.4-.7-.1-.9-.4m2.8.3v-2.9h.6v2.4h1.3v.5zm4.2-.7c.1-.2.2-.4.2-.7s0-.6-.2-.8c-.1-.2-.3-.3-.5-.3s-.4 0-.5.3c-.1.2-.2.4-.2.8s0 .6.2.7c.1.2.3.3.5.3s.4 0 .5-.3m-1.5.4c-.2-.3-.3-.6-.3-1.1s.1-.9.3-1.1c.2-.3.5-.4.9-.4s.7.1.9.4.3.7.3 1.1-.1.8-.3 1.1-.5.4-.9.4-.7-.1-.9-.4m4 .4c-.4 0-.7-.1-.9-.4s-.3-.6-.3-1.1.1-.9.4-1.1c.2-.3.6-.4 1-.4s.6 0 .8.3c.2.2.3.4.4.7h-.6c0-.1 0-.3-.2-.3-.1 0-.2-.1-.4-.1s-.4 0-.6.3c-.1.2-.2.4-.2.8s0 .6.2.8q.15.3.6.3c.2 0 .4 0 .5-.3 0-.1.1-.2.1-.4s-.6 0-.6 0v-.5h1.1v1.6h-.4v-.4c-.2.3-.5.4-.8.4Zm2.6-1.2-.9-1.8h.7l.6 1.3.5-1.3h.6l-.9 1.8v1.1h-.6zM75.2 15c0 .1-.2.4-.3.5h-.5c-.1 0-.1-.3-.1-.4 0-.3.6-.2.9-.4zm-.5 1.6c0 .2-.3.3-.4.3 0 0-.2-.1-.2-.2v-.4c.2 0 .2 0 .4-.1h.2v.3Zm-1.4-1.1c0 .2-.3.3-.4.4l-.2-.1v-.4c0-.3.3-.2.4-.3.2 0 .3 0 .3.3Zm-.3 1.7h-.4V17s0-.2.1-.2h.5s.1 0 .1.1c0 .2-.2.4-.3.5Zm3.9-3.7h-.8c-.2 0-.2-.2-.4-.2s-1.3.4-1.7.6h-.6c-.3 0-.5.2-.7.3l-.4.1H72c-.2 0-.2-.2-.3-.2s-.3.3-.3.6c0 .2 0 .4-.1.5v.3c0 .2.1.3.1.4v1c0 .2-.2.4-.2.6s0 .3.1.4c0 0 .2.1.2.4v.3s0 .1.1.2h1v.4s0 .1-.2.2h-.6c-.1 0-.2.1-.2.2v.6s.1.1.3.1h.3s.2 0 .1.2c-.3 0-.5.2-.8.3-.2 0-.4.2-.6.2-.1 0-.1 0-.2-.1 0 0-.1.1-.2.1s-.1.2-.2.3v.9c0 .1.3.2.5.2.4 0 .6-.2.7-.2h.7c.1 0 .4-.1.7-.1h2.7c.6 0 .5.1.6.1.4 0 .7-.5.7-1s-.4-.4-.4-.6c-.1-.1-.3 0-.5 0-.1 0-.4 0-.5.1h-.4c-.1 0-.5.1-.6.1s-.2 0-.2-.2.1-.2.1-.3c.1 0 .3 0 .4-.2.2-.1.3-.2.4-.3v-.2s-.1-.2-.1-.5c0 0 0-.2-.2-.2s-.4-.1-.4-.1c-.1 0-.3 0-.3.1 0 0-.3.2-.4 0v-.4c0-.1.4 0 .5-.2 0 0 .3 0 .3-.1h.3l.3-.3c.2-.6.5-1 .8-1.6l.4-.4c.1-.3.2-.5.4-.7v-.4s.2-.3.2-.5-.2-.5-.3-.5c0 0 0-.3-.1-.3ZM70 19.6h-.3v-.4c.1-.3.7-.8.9-.9v-.2c0-.1 0-.2-.2-.5v-.3s-.2.1-.3 0c-.1 0 0-.3 0-.4v-.6l.5-.5c.2-.2.3-.3.3-.4 0-.3.2-.4.2-.5s.1-.4 0-.5c0-.2-.2-.6-.4-.5h-.5c-.6 0-1.3.7-1.9.9h-.4c-.1 0-.3 0-.3.2 0 0 0 .2-.2.2-.1 0-.2 0-.2.1 0 0 0 .4.1.5 0 0 .1 0 .2.1 0 .1.1.3.2.3s.3 0 .4.1c.1 0 .4 0 .3.3v.6c0 .2-.2.3-.4.3h-.3c-.2 0-.4.2-.4.5s.3.5.3.5 0 .2.1.2c0 0 .1.2.1.3v.6q0 .15-.3.3s-.3.2-.4.3c-.3 0-.6.4-.6.6s0 .4.1.6c0 .1.1.2.2.3 0 .1 0 .3.2.3s.3 0 .4.1h.3c.2 0 .4-.5.7-.6.3-.2 1-.5 1.4-.7.4-.3.8-.6.9-1v-.3s-.2-.2-.3-.2Zm-10.5-2c0 .1-.2.2-.3.3-.2.1-.3.2-.4.3-.1 0-.3.1-.4.1-.2 0-.2-.1-.2-.2 0-.2 0-.2.2-.3.2 0 .4-.2.6-.2 0 0 .2 0 .2-.1h.6s0 .2-.1.3Zm1.8 0c0-.1.3-.2.5-.5v-.3s0-.3-.2-.5c0-.1-.4-.3-.5-.4h-.4c-.1 0-.3-.1-.3-.1h-.2s-.1 0-.2.1c0 0-.2 0-.2.1-.1 0-.2.1-.4.2h-.3c-.1 0-.2 0-.4.1-.2 0-.4 0-.5.1-.3.1-.5.2-.7.2 0 0-.1-.2-.2-.2-.1-.1-.2-.2-.3-.2 0 0-.2 0-.4.2-.1.2-.4.3-.4.7v.6c0 .2 0 .4.1.6 0 .2.1.4.1.5v.8s.1.1.2.1h.7c.1 0 .2.1.3 0 0 0 .1.1.1.2v1.4c0 .4-.2.5-.4.5s-.3-.2-.5-.2c0 0-.4 0-.3.1 0 0 .4.3.5.6 0 .2.1.3.2.4 0 0 .3.1.4.2l.2.2s.2 0 .3.1c0 0 0 .1.2.1s.2-.1.4-.2c.2 0 .3-.4.4-.4s.4-.3.4-.6v-2.6c0-.2.2-.3.2-.3h.2c.1-.1.2-.3.3-.4.2-.4.4-.9.7-1.3l.2-.4Z"/><path class="cls-7" d="M62.8 20.4c-.1-.2-.5-.6-.6-.6h-.3c-.1 0-.2-.1-.3 0h-.3l-.3-.2h-.3c-.1 0 0 .3-.1.4v.3s.1.2.1.5c0 .1.2.2.2.4 0 0 .2.3.3.5v.3c0 .2.1.3.2.3s.2-.1.3-.2h.3c.2 0 .3 0 .4-.1l.2-.2s.1-.3.2-.4c0 0 .2-.1.2-.3v-.3c0-.1-.1-.2-.2-.2Zm-6 1.1v-.6h-.7s-.3.1-.4.1-.1-.5-.4-.5-.2.1-.3.2c-.2.1-.3.5-.4.7 0 0-.2.2-.2.3v.6c0 .3.3.5.5.5s.4-.2.5-.2h.3c.2 0 .2-.1.3-.2s0-.3.2-.4c0 0 .2-.1.2-.2s.2-.2.2-.2Zm6.6-7.7c-.1 0-.3-.1-.4-.3h-.3c-.1 0-.2-.1-.3-.1-.2 0-.4 0-.7.2-.2 0-1 .2-1.2.3-.1 0-.1-.1 0-.2.2-.2.3-.2.3-.6s-.2-.5-.3-.6c0 0 0-.3-.1-.4 0 0-.3 0-.3-.1 0 0 0-.2-.2-.2h-1.1s-.1 0-.3.1h-.4s-.1.2 0 .2c0 .1.3.6.3.7v.7s.1.2.2.2h.2v.2c0 .1-.2.2-.3.2-.2 0-.7.2-.8.3h-.5c-.4 0-.7.2-1.1.2-.1 0-.4.2-.4.2s-.1-.1-.2-.1c-.2 0-.6.3-.8.4v.6c0 .2 0 .3.1.4h.4c.2 0 0 .2.2.2.1 0 .2 0 .3-.2 0 0 .2 0 .3-.1h2.2c.1 0 .3 0 .4-.1 0 0 .8-.2 1.4-.3.2 0 .5-.2.6-.2h.4c.2 0 .3-.1.4-.2.1 0 .3-.1.4-.1h1.1c.2 0 .3.1.3.1.2-.1.6-.3.6-.5v-.4c0-.1 0-.2-.2-.2Zm50.4 1.7c0-.1-.2 0-.3-.1h-.3l-.2-.2h-.3s-.3.2-.4.2h-.2v-.9l.1-.3c.1-.3 0-.7.4-.9.2-.2.5-.4.5-.4v-.8c-.1 0-.2-.2-.4-.2h-.3s0 .1-.1.1c0 0-1 .2-1.1.6 0 .2.2.3.2.5v.3s-.1.3-.2.3c0 0-.2 0-.3.2-.2.2 0 .3 0 .4s-.1.2-.2.2l-.2.2v.4s.3 0 .3.1c0 .2-.2.4-.4.4-.3 0 0-.4-.2-.3-.2 0-.5-.1-.4-.2 0 0 .4-.5.3-.5.3-.6.5-.8.5-.9 0-.2-.2-.3-.2-.3V13c0-.2.2-.3.3-.4s.3-.4.2-.5c0-.1-.2-.3-.4-.3h-.4c-.2 0-.2.4-.3.5 0 .2-.3.5-.4.5 0 0-.2-.2-.3-.2 0 0-.3.2-.3.3 0 0 .1.3.2.4 0 .1 0 .3-.1.4 0 .1-.1.4 0 .5.1 0 0 0 .2-.1.1 0 .3-.1.3-.1s.4.3.2.5c0 0-.2.4-.4.4 0 0 0-.1-.2-.2h-.4s-.1 0-.1-.2c0-.1 0-.8-.1-.8v-.2c0-.2 0-.4-.1-.4 0 0-.2 0-.2.1s-.2.3-.2.4v.9c0 .1.1.3 0 .5v.8c0 .2 0 .3.2.4 0 0 .1 0 .2-.1 0 0 .1 0 .1-.2 0 0 0-.3.1-.3s.2.1.2.2v.3s.2 0 .3-.1c.1 0 .3-.1.3 0v.2s-.1.1-.2.1H108s-.3.1-.4 0c0 0-.1 0-.2-.2 0 0 .1-.2.1-.4v-2.9c0-.1 0-.1-.1-.2h-.4c-.1 0-.3.3-.2.3v3s.1.2.1.3l-.2.2c-.1 0-.3.1-.4.2-.1 0-.2 0-.2-.2s0-.6-.1-.7h-.1c-.2.3-.3.6-.5.9 0 0-.1.1-.2.1 0 0-.1.2-.1.3.1.5 0 .5 0 .7 0 .3.2.6.2.7.1.1.2.2.3.1.3 0 .5-.4.8-.6l.2-.2c.2-.3.2-.4.4-.5.1 0 .4-.2.6-.3.2 0 .4 0 .5-.1h1.1s.3-.1.4 0h1.9s0 .4-.2.4c0 0-.3.2-.4.2h-1.1l-.2.1c-.3 0-.2 0-.3.1h-.4c-.2 0-.3 0-.5.1h-.4l-.2.1h-.5c-.3.3-.3.7-.3.8v.4c0 .1 0 .2.1.3h.3c.1 0 .3 0 .4-.2 0-.1.2-.2.3-.2h.3c0 .1 0 .3-.1.4v.4s0 .1-.1.2c0 0-.1 0-.3.2-.2 0-.4 0-.5.1-.1 0-.3.3-.4.3 0 0-.3-.1-.4-.1-.2 0-.5.2-.6.4v.8h.2c.2.2.3.1.5.1 0 0 .4-.2.5-.2.2 0 .5 0 .6-.1.1 0 .6-.1.6-.1.2 0 .2.2.2.3-.2.3-.3 1-.7 1.2-.2 0-.5 0-.9.2-.2 0-.4 0-.4.2 0 .1.7.4.7.6v.4h.7c.2 0 .2 0 .5-.1.2 0 .4-.1.6-.2.3 0 .3-.5.4-.8 0 0 .2-.2.2-.3 0-.2 0-.3.1-.5v-1c0-.2.6-.3.8-.3 0 0 .2 0 .3-.1h.5c.1 0 .2-.1.3-.2 0-.1.1-.4.1-.5s-.2-.2-.2-.2c-.2 0-.4-.2-.5-.2-.3 0-.4-.2-.5-.2 0 0-.2.1-.3.1s-.3.1-.4.2-.2 0-.2 0v-.5c.1-.1.3-.4.4-.4s.2-.2.3-.3c0-.2.5-.5.8-.6h.9s.2-.1.3-.1c.5 0 .9-.2 1-.3s.2-.5.2-.6c0-.2 0-.6-.2-.7Zm-68-.7c0-.2-.2-.3-.3-.4 0 0-.2 0-.3-.1h-1.3s-.2-.2-.3-.2h-.2c-.1.1-.2.1-.3.2v.2c0 .1.3.2.3.7 0 .4-.1.6-.2 1 0 .2-.2.3-.3.5-.1.1-.4.2-.5.2H42c-.2 0-.3.1-.5.2-.1 0-.4.1-.4.4v1.4s0 .1.2.2h.3c.1 0 .3-.1.4-.1h.4s.2 0 .2.1v.9c0 .2-.3.3-.4.4-.2.1-.5.4-.8.5-.1 0-.3 0-.5.2-.1.1-.3.2-.4.3h-.3s-.2.1-.2.3c0 0 0 .2.1.3v.4c.2.1.2.1.3.2.1.2.3.5.5.4s.7-.5.7-.5c.1 0 .4-.1.5-.2.2-.2.5-.3.8-.5.2 0 .5-.2.6-.3.2 0 .3-.5.6-.5.2 0 .5-.3.7-.4.1 0 .2-.2.2-.3 0-.3.2-.5.2-.6v-.5c0-.1-.1 0-.1-.3v-2.5c0-.2.2-.4.2-.5v-.8Zm5.3 5.5h-.5s-.2 0-.3-.1h-.7c-.2 0-.4 0-.6-.3-.2-.2-.1-.5-.2-.7v-.4c0-.2.1-.7.3-.8.2 0 .6-.2.8-.4.2-.1.3-.2.5-.3 0 0 .2-.2.3-.2h.4c.1 0 .2-.1.2-.2v-.4c-.1-.2-.2-.6-.3-.6-.3 0-.4-.3-.6-.2 0 0-.2.2-.3.2 0 .2-.3 0-.3-.1v-.4c.1-.3.4-.4.4-.8 0-.2 0-.4-.1-.6 0 0-.1-.2-.2-.2h-.2s-.1-.2-.3-.2H48c-.2 0-.3 0-.3.2v.5s-.1.6-.2.8c0 .2-.1.3-.1.5v.8s0 .3-.1.5c0 .2 0 .2-.1.5 0 0-.1.2-.1.3 0 .6-.2.7-.2 1v1.4s.1.6.2.7v.6c0 .1.2.4.3.5 0 0 .2.1.3.2h.6c.2 0 .4.1.4.1h1s.2.1.3.1.3 0 .5-.1h.5c.1 0 .1-.3.2-.4 0-.2.2-.4.2-.6s0-.5-.3-.6Zm38.6.3v-.3c0-.2-.3-.3-.5-.4-.1 0-.3-.2-.4-.2h-.7c-.1 0-.2.1-.3.1h-1.3c-.1 0 0-.4 0-.7v-.9s.1-.2.1-.3c0-.4-.2-.2-.2-.6 0-.3.4-.3.7-.5.1 0 .3-.2.4-.2.1-.2.3-.3.5-.4.3-.2.6-.2.6-.6 0 0-.1-.2-.2-.2 0-.1 0-.3-.1-.4s-.3-.2-.4-.4c0 0-.2-.1-.3-.2H87c-.5.3-.7.4-1.2.5h-.5c-.6.1-1.5.3-1.6.3-.2 0-.6-.2-.7-.2-.2 0-.4.1-.4.3v.8q.3.3.3.6c0 .2 0 .4.2.5h.9v.9c-.1.3-.1 1.1-.8 1.4-.3.1-.7.3-1 .4h-.4c-.3.1-.9.3-.9.4h-.5c-.1 0-.7.2-.8.4v.9l.7.7s1.2-.5 1.8-.7q.75-.3 1.5-.3h.8c.2 0 .6 0 .7-.1.2 0 .5-.1.8 0H89s.2-.1.2-.2c0 0 .1-.2.1-.3v-.3Zm13.6 1.3s-.2 0-.3-.1l-.9-.3s-.2-.2-.4-.2c-.1 0-.4 0-.5-.2q-.3-.3-.9-.6c-.3-.2-.6-.8-.8-1-.6-.5-.9-.8-1.1-1.2 0 0-.2-.4 0-.5 0-.1.2-.3.2-.3.1 0 .6-.2.7-.3h.5c.2 0 .2 0 .4-.2.2 0 .4 0 .7-.3.1 0 .2-.2.3-.2s.1 0 .1-.2c0-.3-.1-.7-.4-.7-.2 0-.4 0-.5-.2 0-.1-.6 0-.6 0s-.3.2-.4.3c0 0-.2 0-.3.1l-.3.1h-.2v-.3c0-.2.2-.5.2-.6v-.3c0-.2 0-.2-.1-.3-.2 0-.4-.2-.4-.4H97s-.2 0-.2.2v1.1c-.1.3-.2.6-.2.9-.3.2-.6.3-1 .4H95c-.1 0-.2.1-.3.2 0 0-.2 0-.3.1 0 0-.1.2-.2.2s-.2.2-.1.4c0 .4.4.6.5.6.2 0 .3.2.4.2h1.1s0 .3-.1.4c0 .2-.2.6-.5 1-.4.4-1 1.1-1.4 1.3h-.2l-.3.2c-.2.1-.2.2-.4.3-.2 0-.2.2-.2.2h.3c.1 0 .1.3.2.4 0 0 .1.2.2.2h.3c.1 0 .4 0 .6-.2.1 0 .5-.3.7-.4s.6-.2.9-.6c.4-.4.6-.5.9-.9.3-.3.6-1 .6-.9.1 0 .5.5.9.8.1 0 .4.4.4.4.2.2.4.6.6.8.6.6.4.7.6 1 0 .1.2.2.4.3h2.2s.1-.2.2-.2c.2 0 .4-.1.5-.3v-.3s.1-.2 0-.2Z"/></g></svg>