<svg width="128" height="137" fill="none" xmlns="http://www.w3.org/2000/svg"><g filter="url(#a)" fill="#004098"><path d="m58.325 86.975.97-.47h.097v3.353q0 .332.027.417.03.08.117.124.09.044.36.051v.11h-1.498v-.11q.28-.008.363-.047a.26.26 0 0 0 .115-.115q.03-.073.031-.43v-2.143q.001-.434-.029-.557a.23.23 0 0 0-.076-.138.2.2 0 0 0-.128-.045.8.8 0 0 0-.303.092zm2.75 3.632v-.11q.38-.003.712-.172.328-.175.633-.603.309-.427.429-.94-.46.296-.833.295a.95.95 0 0 1-.72-.32q-.3-.33-.3-.862 0-.521.3-.929.361-.495.943-.495.49 0 .839.403c.287.336.43.746.43 1.24q0 .66-.327 1.233a2.76 2.76 0 0 1-.905.949 1.85 1.85 0 0 1-1.034.311zm1.822-2.042a5 5 0 0 0 .053-.608q0-.285-.097-.613-.098-.33-.278-.508a.55.55 0 0 0-.403-.175q-.26-.002-.457.235c-.13.155-.196.39-.196.695q-.001.623.262.97a.57.57 0 0 0 .47.251q.134.001.32-.066a1 1 0 0 0 .326-.181m3.933-1.978-.23.5h-1.197l-.26.531c.515.077.928.268 1.231.578q.393.396.392.938.001.312-.128.58a1.6 1.6 0 0 1-.322.454 1.7 1.7 0 0 1-.43.301c-.228.107-.457.16-.696.16q-.356.001-.522-.12-.16-.122-.16-.267 0-.086.067-.145a.23.23 0 0 1 .172-.066q.071 0 .132.025.058.023.196.12a.77.77 0 0 0 .445.152.83.83 0 0 0 .602-.258.87.87 0 0 0 .262-.633 1.1 1.1 0 0 0-.233-.67 1.46 1.46 0 0 0-.64-.485c-.214-.086-.502-.138-.872-.153l.764-1.543zm3.449 3.207-.28.766h-2.352v-.11q1.04-.94 1.46-1.54.425-.599.425-1.094a.86.86 0 0 0-.233-.619.73.73 0 0 0-.555-.243.87.87 0 0 0-.528.173.97.97 0 0 0-.344.5h-.11q.075-.542.378-.832t.761-.289q.484-.002.807.31a.97.97 0 0 1 .326.732q0 .301-.14.602-.22.475-.704 1.005-.733.8-.916.961h1.04q.318.001.445-.022a.58.58 0 0 0 .41-.3zm30.582-34.841c-.196.012-.394.026-.409-.174-.408-.17-.911-1.73-.938-2.126-.015-.196.35-.621.155-.609-.013-.196-.225-.381-.225-.381-.21-.186-.225-.384-.24-.584-.195.016-.195.016-.406-.17l-.21-.183c-.213-.188-.225-.384-.438-.57-.012-.198-.21-.183-.224-.383-.196.012-.409-.171-.423-.367-.196.012-1.025-.528-1.04-.724-.251-.782 1.733-.722 1.96-.339.222.384-.37.425-.34.821.197-.012.183-.212.381-.225.196-.014.38-.224.773-.253l.184-.21c.196-.015.38-.227.38-.227.183-.213.563-.44.761-.454-.013-.196.185-.21.185-.21.211.183.211.183.225.383-.169.41-.734.85-1.13.874-.394.03-.578.242-.972.269.015.198-.183.212-.183.212s-.182.21.014.198c.015.198.21.184.21.184.184-.212.382-.225.578-.241l.394-.025c-.012-.198.184-.212.382-.227.181-.21.181-.21.379-.225.198-.012.186-.212.384-.225.392-.029.604.157.419.37.014.198-.169.408-.363.422l-.396.027c.012.2-.186.215-.38.227 0 0-.198.013-.396.03l-.198.011s-.181.21-.38.225c0 0-.198.015-.183.213l.196-.015c.198-.012.408.172.606.157 0 0 .182-.212.382-.225.208.184.029.398.223.384 0 0 .21.184.198-.014 0 0-.213-.186-.227-.382-.013-.2.383-.227.579-.242l.182-.21.198-.014c.014.198.029.398.241.581.407.172.957-.466 1.197.116q.022.298.041.596c-.184.213-.367.423-.778.254-.208-.186-.024-.398-.418-.371l-.201.014c.015.198-.181.213-.167.41-.183.213-.606-.156-.804-.144l-.394.029.014.2-.198.012c-.183.21-.156.609.24.58.198-.012.183-.21.171-.408l.194-.017c.212.186.239.58.635.555-.014-.198.155-.609.338-.82.394-.028.254.777.66.95l.382-.227c.196-.012.169-.406.169-.406l.198-.017c.015.2.211.184.211.184.212.183.422.371.633.555l.041.594.012.2c-.365.425-.785.054-1.196-.115l-.592.04c-.196.013-.394.025-.604-.158l-.592.04c-.198.016-.198.016-.407-.168l.013.196.014.2c.209.184.421.37.435.567.213.186.24.582.069.99 0 0-.199.015-.184.215"/><path d="M98.033 54.152c-.606-.157-.423-.37-.65-.753-.012-.198-.208-.186-.223-.384 0 0-.014-.198-.224-.381-.196.012-.578.237-.776.251l-.183.215c-.197.012-.197.012-.395.027-.38.224-1.8-.275-1.83-.67.172-.413.51-1.232.892-1.459 0 0 .181-.212.194-.012.214.183.227.383.241.579.013.2.013.2.213.186.22.385.235.581.616.356.196-.012.396-.029.592-.04.157-.611-.885-1.335-.742-2.142.196-.014.183-.212.38-.227 0 0 .212.184.226.384.194-.013.209.184.223.384.014.195.254.777.268.977.208.186.59-.041.786-.055.2-.013.2-.013.396-.03l-.21-.183c-.213-.183-.227-.382-.423-.367-.027-.398-.056-.794.34-.823l.21.183c.013.2.042.599.252.782.213.184.225.384.438.57.21.183.42.369.616.356.015.196.254.776.07.988 0 0-.196.017-.394.03-.014-.199-.21-.186-.225-.384-.21-.186-1.029-.524-1.029-.524-.167.406.254.775.479 1.16 0 0 .014.2.225.383 0 0 .014.198-.184.214.015.196-.181.209-.17.409Zm-5.2-8.289c-.396-.01-.78-.42-.966-.823-.196-.006-.39-.21-.381-.408l-.388-.411.006-.196q.01-.299.017-.598l.029-.992c.006-.2.245-1.584.245-1.584-.192-.207-.592-.019-.796.175l-.594-.019c-.4.188-.794.178-.986-.029-.396-.01-.78-.418-.966-.822.007-.199-.194-.203-.187-.403-.184-.404.408-.388.606-.38l.576.613c.585.217 1.576.244 1.982-.14l.006-.2c.004-.198.004-.198-.192-.206-.185-.405-.38-.605-.765-1.017l-.19-.202.013-.396s.006-.2.202-.196c.004-.198.406-.386.6-.182.196.006.192.206.382.413l.192.202.383.408.396.013c.192.204.188.402.582.412.198.008.809-.573.813-.77.21-.393.22-.791.814-.775.006-.196.203-.192.203-.192.191.207.191.207.39.21-.007.199-.011.399.18.605-.005.196.19.202.184.402l-.006.196c-.212.592-.614.78-1.008.77-.198-.006-.397-.013-.403.185-.4.188.386.409.386.409.394.014.974.427.767.819q-.297-.009 0 0c-.204.194-.012.398-.216.59-.204.194-.592-.017-.784-.221 0 0-.192-.202-.39-.21.006-.198-.582-.413-.784-.223 0 0-.206.196-.21.392-.208.394-.035 1.194-.054 1.79.194.206-.01.396.182.602-.017.595-.027.993-.046 1.59.192.203.186.403.18.599zm-8.303-8.107c-.784-.093-1.939-.431-2.459-1.091-.173-.22-.321-.64-.495-.86-.127-.615-.229-1.428-.55-2.067l.022-.198c-.196-.023-.173-.221-.369-.244a1.09 1.09 0 0 1-1.052.477c-.61.13-1.592.012-1.962-.231-.173-.223-.369-.246-.346-.444.023-.196.241-.371.241-.371.198.023.567.268.763.293.39.045 1.42-.233 1.64-.409s-.297-.837-.276-1.033c-.198-.024.05-.396.268-.57.435-.348 1.304.756 1.574.186.24-.37.093-.79.115-.988-.177-.22-.52-.66-.08-1.01 0 0 .196.022.392.047.192.023.563.268.96.314l.78.092c.397.048.985.116 1.154.336.177.221.177.221.155.42-.027.195-.27.566-.466.544l-.197-.023-.022.198c-.198-.023-.613.126-.809.103s-.369-.241-.59-.068l-.022.198c-.023.196.173.221.173.221.37.244.959.311 1.108.73.344.442-.269.57-.46.547-.617.128-1.156-.338-1.597.01-.194-.023-.07.594.126.617.15.419.103.815.276 1.033.15.419.301.836.67 1.081q.222.627 1.036 1.322c-.023.198.37.246.347.442l.173.22c-.198-.024-.22.176-.22.176Zm-27.904-5.864c-.396 0-.592 0-.592-.198-.196-.796.396-.796.79-.796.198 0 .592-.198.792-.396 0 0 .196 0 .196-.2 0-.198-.396-.398-.592-.596v-.399s-.198-.197 0-.197c0-.199.196-.199.396-.199 0-.2.196-.2.396-.398 0-.198.196-.398.396-.596.196-.4.196-.796.392-1.194.198-.198.398-.198.594-.198s.596-.398.596-.598c0 0 0-.198-.2-.198-.2.198-.396.198-.592.198-.2.2-.398.2-.594.398 0 0-.196 0-.396.2-.196 0-.396.198-.792.398-.196.198-.79.396-.986.594-.2 0-.2.2-.2.2l-.588.598h-.2l-.2-.2c-.196-.198-.394-.398-.394-.796 0-.396.794-1.392 1.186-1.392.196-.198.396.2.196.2v.398c.2.198 1.186-.398 1.186-.398.2 0 .2-.2.396-.2-.396 0-.396-.396-.592-.597 0 0-.198-.197-.396-.197 0-.199-.198-.199-.198-.199-.196-.198.396-.397.594-.596.196 0 .592 0 .988-.2.2 0 .396.2.592.398.198.2.398.596.198.794 0 .2-.198.2-.198.2.398 0 .594 0 .99-.2h.396c.196 0 .396-.197.592-.197.394-.198.594.198.79.398.2.198.396.396.396.596-.396.198-.396.398-.792.398h-.79c-.196.198-.196.198-.392.198h-.2c-.2 0 0 .2 0 .398v.198c-.2.198-.396.398-.592.398-.398.2-.594.598-.79.796l-.2.198c.2 0 1.186-.396 1.382-.198 0 .398-.196.794-.592.994H58.8c-.196.198 0 .198 0 .397l-.196.2c.594 0 1.386-.399 1.778-.2.2 0 .396.2.594.398 0 .2 0 .596-.198.596-.196.198-.396 0-.592 0-.196.198-.396.198-.792.198-.196 0-.396.2-.594.2h-.592c-.196 0-.196.198-.396.198-.196 0-.396.2-.592.2-.198.198-.396.198-.594.198"/><path d="M57.418 28.314h-.394c0-.2-.198-.598 0-.796.196-.198.394 0 .592 0l.396-.198v.198c0 .198 0 .198-.198.198v.398c-.198.2-.198.2-.396.2m3.74 22.078 5.185-.869-5.235-.967-.878-5.303-1.007 5.179-5.491.885 5.417 1.173.926 5.306zm-28.94 5.475c-.196 0-.397-.198-.592-.198-.198.198-.396 0-.396-.198-.198-.2.198-.398.198-.598 0 0-.198-.994-.198-1.192-.198-.198-.394-.398-.593-.398-.792-.794-.792.794-1.582.596-.592-.198 0-1.193-.198-1.39-.394-.597-.988-.199-1.384-.597-.396-.4.198-1.392.594-1.59.396-.2.79 0 .988 0 .394.198.394.198.592.396.198.2.397.398.592.398.398.396.99.597 1.387.994 0 .2.195.2.396.398v.597c0 .198.196.398.196.596.198.396.198.598.198.794.198.398.396.996-.198 1.392m.396-5.564h-.396c-.397-.202-.79-.398-1.187-.398 0-.202-.195-.202-.195-.202-.198-.196-.597-.196-.793-.399q-.297-.295-.594-.594h-.394c-.592 0-.792-.197-.988-.596-.198-.2 0-.596 0-.796.196-.2.396-.2.592-.396.594 0 .594.794.988.794.198 0 .198-.198.198-.398v-.2c0-.196.198-.594.595-.594 0 0 .197 0 .395.196v.202c.197.396 0 .794 0 .992-.198.2-.198.2-.198.398l.395.398s.198 0 .198.198c.197.2.591.396.792.396h.392c.2-.196.2-.396.2-.594 0-.398.198-.596.198-.796.196 0 .394-.198.394-.198.198-.198.394 0 .592 0 .2.198.398.198.398.398 0 .596-.792 1.589-.99 1.987-.198 0-.592 0-.592.202m4.568-4.948h-.396c-.196-.2-.79-.796-.592-.996.196-.196.592 0 .592-.196 0 0 .396-.398.396-.2v.396c.198.398.394.796 0 .996m2.571-4.374h-.396c-.2 0-.2 0-.394-.2h-.594l-.196-.198c.196-.598.984-1.192 1.58-1.192 0 .196.196.196.196.196.2.202.396.796.2.996 0 .198-.2.398-.396.398m-6.327.993s-.196 0-.394-.2c0 0-.198 0-.198-.198-.2-.398.396-.596.592-.794 0-.2.198-.598.398-.796 0-.198.196-.398.196-.596q.294-.3 0-.596h-.196c-.2.198-.792.396-.792-.2V38c.198 0 .394-.2.592-.4.2 0 .2-.198.396-.398.394-.198.79.2.79.598.396 0 .396-.398.594-.398l.196-.2c.198-.198.99-1.193 1.186-.794.198 0 .198.2.198.2-.198.198-.394.396-.394.594-.2.2-.396.2-.594.398-.396.598-.988.994-1.186 1.59-.198.398-.198.598-.396.796v.398c-.198.198-.394.596-.394.794-.196.198 0 .398-.196.597 0 .2-.2.2-.398.2Z"/><path d="M38.963 43.366h-.396c-.198 0-.99 0-.99-.2 0-.198.395-.198.395-.398v-.198c0-.198-.592-.596-.788-.596-.395 0-.395.398-.593.398-.397.198-1.585-.994-1.585-1.194.2-.196.396-.794.396-.992.2-.2.2-.397.396-.797 0 0 .2-.2.2-.398.196-.198.394-.198.394-.398.198-.196.396-.594.594-.398h.199c.195 0 .195 0 .195.202 0 .196 0 .594-.196.992v.4c0 .197.392.197.392.595v.2s0 .198-.196.198c.396.2 1.187.994 1.387 1.192 0 .198.196.198.196.198.196.2.196.596.196.796 0 .198-.196.398-.196.398m-2.769-2.188c0-.196.198-.594.198-.992h-.198c-.196.198-.592.796 0 .992m9.619-9.624-.2-.2c-.194-.398.2-.596.398-.796 0-.196.196-.396.196-.396 0-.398-.594-.2-.594-.398-.194-.199.2-.795.2-.995.198 0 .59-.198.79-.396.198-.198.79 0 .79.396v.599c.198.198.792-.797 1.186-.599 0 .2 0 .398-.198.398 0 .2-.394.596-.594.596-.394.199-.394.199-.592.399-.196 0-.196.2-.394.2-.198.396-.594.992-.988 1.192m-.99 5.168c-.79-.2-.592-1.392-.986-1.392l-.198.2s-.2.198-.2.398l-.394.198c-.396 0-.396-.398-.396-.596 0-.2 0-.398.198-.398 0-.198.198-.198.396-.198.196-.2.396-.596.396-.796 0-.198 0-.198-.2-.396 0-.398 0-.797-.196-.996-.198-.199-.396-.199-.396-.398-.198-.199-.394-.199-.394-.399-.198-.198.196-.594.196-.794.198-.396-.196-1.192.198-1.39.198-.2.198-.2.396-.2.196 0 .396-.198.594-.198 0 0 .196.198.394.198 0 .2.198.398 0 .796 0 .198-.592.596-.792.794-.196 0-.196.2-.394.2 0 .198-.198.198-.198.396 0 0 0 .198.198.198.198.2.198.2.394.2v-.398c0-.198.2-.396.2-.596.198-.198.394-.198.592-.198.592-.198.79.596.988.992v.398c.2.398.394.598.394.996.2.198.2.398.2.596.394.399.988 1.59.79 2.187 0 .198-.396.198-.396.198-.196-.198-.196-.396-.394-.596-.2-.198-.594-.398-.792-.794 0-.2.198-.2.198-.2l.394.398h.2c0-.198-.2-.794-.394-.794v-.2l-.2-.198c-.198.197-.198.197-.198.398-.198.197-.198.197-.394.396v.398c0 .398.394 1.192.196 1.59m-.592-3.18v-.199c0-.2-.394-.598 0-.598h.396c0-.198 0-.398-.198-.398 0-.198-.396-.596-.396-.398-.196 0-.196.2-.196.398v.598c0 .198.196.596.394.596Zm2.964 1.591c-.196 0-.394-.2-.394-.2v-.398c0-.397-.198-.596-.198-.794v-1.193c0-.2-.198-.598-.198-.598.198 0 .198-.198.198-.198.198 0 .396-.198.592-.198.2-.398.2-.996.592-.996.792-.396.398.598.596.996 0 .396.196.794.594.994 0 .198.196.198.196.198.196.2 1.186 0 1.186-.198 0-.2-.198-.598-.198-.796v-.198s.198 0 .198.198c.196 0 .196.198.394.398l.594.596c0 .2.198.398 0 .596 0 .2-.196.2-.396.399 0 0-.198 0-.396.198-.394 0-1.578 0-1.976-.397q-.294-.597-.592-1.194c-.2-.198-.2-.398-.394-.398h-.198c-.396.398 0 .996 0 1.393.198.596.198 1.391-.2 1.79m-.196-1.392v-.995H46.8v.2c0 .198 0 .596.198.795ZM72.583 26.7c-.396 0-.99-.399-.99-.797 0-.198 0-.198.198-.198 0-.2.2-.2.396-.2h.99c0 .2.196.2.196.2.196.398-.396.796-.79.994Zm-4.35-.995h-.196c0-.398.196-.596.392-.796.2-.198.2-.198.2-.396.196-.198.394-.398.59-.398.2 0 .4 0 .596.2 0 0 .396 0 .396.198.198 0 .198.198.198.396-.198.796-.79.398-1.386.398h-.198c-.196.2-.396.398-.592.398m4.942 6.362c-.2 0-.594-.198-.792-.398-.394-.198-.79-.794-.79-1.192 0-.396 0-1.193.196-1.39v-.2h-.196s-.2 0-.396.2c-.198.396-.396.596-.594.994-.196 0-.196.198-.392.396-.2.198-.396.198-.594.198s-.398 0-.398-.198c-.196-.198.596-.396.792-.396v-.2c.2-.398.396-.596.592-.995 0-.197-.196-.596 0-.796h.198c.396 0 .396.4.792.4.196 0 .396-.4.79-.4.198 0 .396 0 .396.4 0 0-.396.199-.396.396-.198.2-.394.995-.394 1.195 0 .198 0 .198.196.396 0 .198.594.596.79.398.2-.2.2-.398.396-.596h.198l.198.198s0 1.192-.198 1.192c0 .2-.198.2-.394.398m-2.965-4.374-.197-.198v-.2c.198 0 .198 0 .198-.198h2.172c.396 0 .594-.198.794-.198.196-.2.196-.2.392-.2h.2c.196 0 .394.398.196.596-.196 0-.592.2-.788.2h-.99c-.196.198-.594.198-.792.198zm-1.781 3.58h-.196c-.196-.2-.592-1.59-.196-1.59l.196.398c.196-.2.396-.995.196-1.195-.196 0-.984.398-.984.398-.398.198-.794 1.193-1.19 1.193v-.597c.2-.198.396-.198.594-.596-.198-.198-.394 0-.594 0h-.196c-.396-.198 0-.994.196-1.192.2-.198.396.198.594.198h.396s.2 0 .2-.198c.196-.198.196-.598.196-.996.196-.198.196-.594.396-.794 0-.198 0-.198.196-.198.196.198 0 .596 0 .992h.396l.196.2h.198l.196-.596c-.196-.198-.59-.198-.59-.198v-.2l.196-.198c.394 0 .794-.2.99.198v.398l-.196.198c0 .198-.2.596-.2.794-.2 0-.396.202-.396.4h.196c.2 0 .2.198.2.198v.198c-.2.2-.396.2-.396.398v.398c0 .198-.198.398-.198.597 0 .596 0 .994-.396 1.392m-.196-2.983v-.796h-.196c0 .198 0 .4-.2.598v.198zm-7.542 32.8c.005 0-2.766-.889-5.352-.95l-.068-.287 3.015-1.393v.322l-2.337 1.07s3.113.399 4.571.861c.174.37.17.376.171.377m23.747-14.703.181.244-25.578 37.753-.264-.163 4.56-13.292.38-.57-4.164 12.703L83.96 46.94l-7.32 3.426.383-.57 7.413-3.409Zm-.228 22.621-.577-2.188-12.15-.01-1.468 2.186zm-19.948-2.163-3.717-.009c-.163.642-.435 1.362-.658 2.16l3.843-.008a36 36 0 0 0 .532-2.144Zm-4.451-.042-17.585.023-.584 2.162 17.548.029c.196-.698.435-1.473.62-2.214Z"/><path d="M41.382 63.21c0-6.126 7.438-11.235 17.308-12.392a13.1 13.1 0 0 0-8.393 12.25c0 1 .112 1.974.324 2.91h-8.72a7.7 7.7 0 0 1-.519-2.767Zm9.452 3.59c.224.767.52 1.501.872 2.2h-7.931c-.615-.696-1.16-1.433-1.547-2.2h8.605Zm1.196 2.8q.212.372.45.728h-7.354q-.413-.356-.788-.728zm.87 1.327c.63.843 1.358 1.608 2.168 2.277h-5.326c-1.45-.66-2.753-1.423-3.875-2.277zm2.952 2.875c.53.373 1.09.712 1.673 1.002l-.215.611c-2.205-.35-4.272-.897-6.136-1.613zm2.193 1.235c.602.269 1.279.522 1.924.696a37 37 0 0 1-2.083-.223c.047-.147.11-.328.159-.473m10.247-24.073a31.5 31.5 0 0 1 5.031 1.166l-1.76.813a12.9 12.9 0 0 0-3.27-1.979ZM79.59 55.18c3.071 2.182 4.915 4.98 4.915 8.032a7.8 7.8 0 0 1-.61 2.99h-7.95a13.2 13.2 0 0 0 .106-5.796zm4.033 11.62a10.4 10.4 0 0 1-1.51 2.2H74.91a13 13 0 0 0 .874-2.2zm-2.076 2.8q-.372.372-.785.728h-6.624q.234-.356.448-.728h6.962Zm-1.528 1.327c-1.122.853-2.428 1.617-3.878 2.277h-4.596a13 13 0 0 0 2.17-2.277zm-5.307 2.875c-2.296.879-4.895 1.51-7.688 1.823a13 13 0 0 0 3.742-1.823z"/><path d="M80.291 44.13 54.027 56.758s2.809.19 4.962 1.382l.01.004q.005.006.01.006c1.352.755 2.441 1.906 2.406 3.655v.11l-.004-.002v.033c-.252 4.67-5.875 20.5-5.875 20.5zM61.415 61.805l-.004.108.004.002z"/><path d="m84.357 70.94.965 2.262H67.121l1.605-2.26 15.63-.003ZM62.78 73.201h-.72l1.279-2.275.196-.003c-.24.74-.483 1.506-.755 2.278m-1.27-.017h-2.885c.269-.8.465-1.538.685-2.246l3.674-.033-1.475 2.28Zm-3.48.017H41.226l.481-1.388.02-.058.265-.825 16.69.008c-.259.798-.397 1.553-.653 2.263Zm39.766 1.169.332-.96.074.027-.019.055a.4.4 0 0 0-.008.167.7.7 0 0 0 .066.234q.058.112.208.3l.79 1.028.675.241c.163.058.272.079.328.054q.111-.045.167-.212l.031-.091.074.027-.404 1.167-.074-.027.033-.097q.061-.174-.017-.284-.048-.066-.272-.149l-.638-.227-1.386.353a2.4 2.4 0 0 0-.31.09.7.7 0 0 0-.187.153.3.3 0 0 0-.062.114l-.072-.027.406-1.175.075.026-.02.062a.35.35 0 0 0-.017.19.14.14 0 0 0 .1.126q.073.027.302-.03l1.064-.263-.641-.836c-.097-.123-.176-.2-.236-.218a.15.15 0 0 0-.11-.007.2.2 0 0 0-.098.058.5.5 0 0 0-.08.157zm-1.812 4.424.607.285-.037.072a.8.8 0 0 0-.252-.062.42.42 0 0 0-.24.074.7.7 0 0 0-.183.231l-.185.365 1.932 1.017q.232.123.316.103.116-.03.192-.181l.045-.09.07.034-.559 1.098-.068-.035.048-.093c.053-.11.062-.203.018-.285q-.034-.072-.25-.186l-1.93-1.016-.159.311a1 1 0 0 0-.105.27.4.4 0 0 0 .052.242q.065.122.228.227l-.037.072-.577-.343zm-.771 6.149.062.047-.728 1.005-.06-.048.058-.082q.106-.147.07-.275c-.015-.051-.09-.134-.23-.237l-1.48-1.11a1 1 0 0 0-.246-.152.18.18 0 0 0-.121.018.4.4 0 0 0-.157.128l-.06.085-.064-.05.726-1.004.064.05-.062.084q-.102.142-.068.27c.017.056.091.134.23.237l1.478 1.114a.9.9 0 0 0 .246.149q.055.015.126-.017a.4.4 0 0 0 .154-.128zm-5.008 1.955.736.663-.05.061a1.2 1.2 0 0 0-.428-.2.67.67 0 0 0-.384.035.75.75 0 0 0-.322.219.53.53 0 0 0-.14.367.41.41 0 0 0 .132.312q.098.09.24.092.203.005.723-.192.427-.162.609-.198a.9.9 0 0 1 .35.009.75.75 0 0 1 .549.73.94.94 0 0 1-.254.652 1.3 1.3 0 0 1-.169.165 2 2 0 0 1-.235.156 1 1 0 0 0-.22.155.12.12 0 0 0-.034.083q.004.046.068.123l-.051.06-.73-.658.05-.058q.266.164.443.194a.7.7 0 0 0 .375-.045.9.9 0 0 0 .353-.252.6.6 0 0 0 .17-.412.436.436 0 0 0-.341-.436.7.7 0 0 0-.268.002 5 5 0 0 0-.498.165q-.395.14-.59.178a.9.9 0 0 1-.356 0 .7.7 0 0 1-.295-.16.7.7 0 0 1-.24-.536.86.86 0 0 1 .231-.606q.151-.176.403-.295a.6.6 0 0 0 .148-.09.15.15 0 0 0 .035-.093.3.3 0 0 0-.06-.13zm-8.395 7.426.587.978.535-.336q.209-.132.239-.24.044-.14-.072-.36l.066-.042.517.862-.066.042a1.2 1.2 0 0 0-.19-.203.26.26 0 0 0-.166-.03.7.7 0 0 0-.248.103l-.532.338.489.813a1 1 0 0 0 .136.194q.034.024.082.024a.4.4 0 0 0 .149-.066l.412-.258q.207-.132.283-.218a.54.54 0 0 0 .11-.227 1.7 1.7 0 0 0 .022-.485l.07-.045.165.75-1.873 1.178-.039-.066.085-.053a.44.44 0 0 0 .138-.145q.04-.067.027-.138a1 1 0 0 0-.126-.251l-.966-1.607q-.142-.236-.222-.26-.107-.034-.258.062l-.085.053-.041-.068 1.873-1.175.35.523-.07.044a1 1 0 0 0-.243-.217.35.35 0 0 0-.202-.025 1 1 0 0 0-.268.13zm-2.993 1.578.03.072a.47.47 0 0 0-.17.184.9.9 0 0 0-.056.377l.055 2.674-.072.03-1.957-1.858a1.4 1.4 0 0 0-.198-.167.4.4 0 0 0-.16-.043.6.6 0 0 0-.208.04l-.032-.073 1.068-.477.03.075q-.175.098-.208.167a.16.16 0 0 0-.004.14q.042.1.219.266l1.33 1.262-.039-1.815q-.007-.27-.045-.357a.16.16 0 0 0-.101-.082.4.4 0 0 0-.223.01l-.035.008-.029-.074zm-4.745 4.825.021.076-1.184.318-.019-.076.097-.027q.17-.046.223-.169c.023-.052.01-.163-.03-.332l-.463-1.816a1 1 0 0 0-.097-.276.2.2 0 0 0-.107-.066.4.4 0 0 0-.2 0l-.097.027-.02-.077 1.183-.317.019.076-.101.029q-.169.043-.219.165-.034.08.029.334l.462 1.815a1 1 0 0 0 .097.277q.033.044.11.065a.4.4 0 0 0 .197.002l.1-.028Zm-7.582-1.785.769-.092 1.97 1.959-.184-1.664q-.029-.267-.097-.326c-.057-.054-.142-.077-.253-.06l-.097.01-.01-.078.983-.118.009.079-.097.01q-.178.024-.246.142-.033.072-.008.316l.272 2.436-.076.008L67.3 99.46l.198 1.78q.028.267.093.326.09.079.256.06l.097-.012.01.078-.984.12-.008-.079.097-.014c.122-.012.2-.062.245-.14q.037-.074.009-.318l-.223-2.007a1.3 1.3 0 0 0-.208-.171.7.7 0 0 0-.2-.066.7.7 0 0 0-.182.004zm-3.5.131.002-.08 1.008.022-.002.08-.107-.002a.29.29 0 0 0-.262.136q-.048.067-.052.31l-.03 1.177q-.012.44-.104.675a.84.84 0 0 1-.344.408q-.254.167-.681.157-.468-.012-.703-.181a.9.9 0 0 1-.333-.45q-.06-.194-.049-.72l.031-1.137q.006-.265-.064-.352-.07-.083-.233-.089l-.107-.002.002-.08 1.231.028-.002.079-.11-.002q-.175-.004-.255.107-.053.078-.06.322l-.033 1.264q-.004.172.02.39a.8.8 0 0 0 .104.344.6.6 0 0 0 .223.207.8.8 0 0 0 .367.088q.282.006.503-.113a.66.66 0 0 0 .31-.312q.086-.19.099-.654l.029-1.177q.006-.272-.05-.343-.08-.096-.241-.099zm-9.054-1.595-.217.893-.068-.023q0-.36-.113-.581a.9.9 0 0 0-.54-.446q-.517-.175-.923.15a1.6 1.6 0 0 0-.499.76 1.8 1.8 0 0 0-.088.773q.043.375.237.607a1 1 0 0 0 .445.322 1.2 1.2 0 0 0 .609.035l.262-.799q.067-.206.058-.282a.22.22 0 0 0-.064-.128.6.6 0 0 0-.217-.112l.025-.076 1.046.35-.025.08-.05-.017q-.154-.054-.247.035c-.044.039-.089.136-.138.282l-.277.842a2 2 0 0 1-.514.033 2 2 0 0 1-.515-.107q-.781-.263-1.021-.912a1.47 1.47 0 0 1-.015-.99q.121-.365.4-.642.335-.326.76-.42.353-.078.759.062.146.045.26.113.112.065.305.223a.5.5 0 0 0 .136.09q.04.015.076-.012a.3.3 0 0 0 .079-.128zm-7.651-3.336.693.351.605 2.742.734-1.504q.114-.239.093-.326-.03-.115-.182-.192l-.088-.045.035-.07.889.447-.035.072-.091-.045q-.16-.083-.279-.017-.07.041-.177.258l-1.07 2.2-.069-.034-.658-2.95-.783 1.605q-.118.241-.095.326c.02.076.082.143.18.192l.09.045-.035.072-.887-.45.035-.072.087.048q.166.08.282.014.072-.04.178-.258l.884-1.813a1.5 1.5 0 0 0-.082-.26.63.63 0 0 0-.289-.264zm-8.76-5.48.945.942.571-.594a1 1 0 0 0 .181-.23.2.2 0 0 0 .003-.129.4.4 0 0 0-.104-.173l-.07-.072.054-.058.87.869-.055.057-.073-.072a.4.4 0 0 0-.169-.101.2.2 0 0 0-.138.008 1 1 0 0 0-.21.188l-1.29 1.343a1 1 0 0 0-.18.227.2.2 0 0 0-.003.128q.03.103.103.175l.072.072-.055.056-.869-.868.054-.056.072.072q.123.124.254.105.085-.013.264-.198l.608-.635-.944-.943-.609.633a1 1 0 0 0-.18.227.2.2 0 0 0 0 .132.4.4 0 0 0 .102.174l.072.072-.054.056-.87-.869.053-.058.072.073q.126.126.256.107.082-.014.262-.2l1.29-1.345a.9.9 0 0 0 .181-.23.2.2 0 0 0 .002-.125.4.4 0 0 0-.103-.173l-.072-.072.056-.058.87.868-.054.058-.074-.072a.4.4 0 0 0-.17-.101.18.18 0 0 0-.135.008 1 1 0 0 0-.215.186zm-3.645-1.838-.062.047-.726-.998.062-.047.06.084q.105.144.235.145.084.002.29-.157l1.48-1.122a1 1 0 0 0 .212-.194.2.2 0 0 0 .023-.128.4.4 0 0 0-.074-.188l-.062-.082.064-.05.726 1-.062.048-.062-.085q-.104-.142-.233-.144-.087-.004-.293.153l-1.479 1.122a1 1 0 0 0-.212.198.2.2 0 0 0-.021.126q.013.105.072.19zm-.788-6.594-.96.604.327.544q.128.21.233.244.139.04.355-.076l.039.064-.846.534-.039-.068q.161-.137.196-.194a.27.27 0 0 0 .033-.17.65.65 0 0 0-.101-.253L32 80.916l-.8.504a1 1 0 0 0-.188.138.12.12 0 0 0-.025.085q.001.05.064.154l.252.417q.126.211.212.287.085.08.223.111.176.044.474.023l.044.072-.739.171-1.147-1.906.066-.043.054.089c.035.055.08.105.14.138a.16.16 0 0 0 .134.025.9.9 0 0 0 .248-.126l1.578-.992q.232-.145.256-.227.033-.11-.06-.262l-.052-.09.066-.042 1.147 1.908-.516.36-.043-.071a1 1 0 0 0 .213-.25.34.34 0 0 0 .026-.204.9.9 0 0 0-.127-.276l-.409-.68Zm-2.883-3.233q.052.307-.023.497a.66.66 0 0 1-.372.374.72.72 0 0 1-.455.023.8.8 0 0 1-.388-.24q-.176-.185-.357-.644l-.51-1.274.075-.03.04.102q.066.171.203.2.087.02.316-.074l1.745-.695q.252-.102.293-.186.058-.112-.004-.264l-.042-.101.075-.03.466 1.165q.13.324.163.544a.97.97 0 0 1-.058.524.65.65 0 0 1-.371.359q-.444.177-.796-.25m-.31-1.085q.031.157.122.388.204.506.52.56a.6.6 0 0 0 .313-.036.53.53 0 0 0 .345-.423q.046-.258-.077-.563a1.5 1.5 0 0 0-.185-.342zm-1.291.516c.027.17.068.326.128.477.08.2.192.35.328.451a.53.53 0 0 0 .532.064q.374-.15.386-.577a1.3 1.3 0 0 0-.108-.514 3 3 0 0 0-.158-.344zM42.261 93.83l-.918-.65-.427.26a.7.7 0 0 0-.206.164q-.092.127.169.342l-.045.064-.747-.528.045-.064q.168.079.24.066.147-.019.439-.2l2.217-1.363.062.043-.571 2.558a1.4 1.4 0 0 0-.046.371q.015.179.18.308l-.045.066-.937-.664.045-.064q.247.16.345.025a1 1 0 0 0 .103-.294zm.041-.168.279-1.242-1.094.666zm47.092-1.514-.586.507-1.631-.375q-.083.071-.134.117l-.097.083.553.635q.178.205.27.217.122.016.245-.09l.085-.075.051.062-.938.816-.052-.06.083-.072q.139-.121.121-.262-.013-.082-.175-.268l-1.233-1.417q-.18-.206-.269-.219-.124-.016-.25.091l-.082.072-.053-.057.8-.698a3 3 0 0 1 .458-.344.83.83 0 0 1 .547-.11.65.65 0 0 1 .4.227q.384.44-.054 1.034l1 .23q.308.076.463.06a.84.84 0 0 0 .427-.166zm-2.54.227.048-.04.044-.038q.265-.23.34-.481a.56.56 0 0 0-.126-.553.6.6 0 0 0-.42-.22.6.6 0 0 0-.45.168c-.064.052-.14.139-.23.252z"/><path d="M108 64.001c0-24.3-19.699-44-44-44-24.299 0-44 19.7-44 44s19.701 44 44 44c24.301 0 44-19.7 44-44m-1.264 0c0 23.602-19.134 42.736-42.736 42.736S21.264 87.603 21.264 64.001 40.398 21.266 64 21.266s42.736 19.134 42.736 42.735"/><path d="M94.13 63.91c0-16.555-13.42-29.975-29.975-29.975-16.556 0-29.978 13.42-29.978 29.976s13.422 29.976 29.978 29.976c16.555 0 29.975-13.42 29.975-29.976Zm-1.516 0c0 15.72-12.741 28.46-28.46 28.46-15.717 0-28.459-12.74-28.459-28.46 0-15.717 12.742-28.459 28.46-28.459s28.46 12.742 28.46 28.46Z"/></g><defs><filter id="a" x="-13" y="0" width="154" height="157" filterUnits="userSpaceOnUse" color-interpolation-filters="sRGB"><feFlood flood-opacity="0" result="BackgroundImageFix"/><feColorMatrix in="SourceAlpha" values="0 0 0 0 0 0 0 0 0 0 0 0 0 0 0 0 0 0 127 0" result="hardAlpha"/><feOffset dy="16"/><feGaussianBlur stdDeviation="6.5"/><feColorMatrix values="0 0 0 0 0 0 0 0 0 0 0 0 0 0 0 0 0 0 0.03 0"/><feBlend in2="BackgroundImageFix" result="effect1_dropShadow_49_9939"/><feBlend in="SourceGraphic" in2="effect1_dropShadow_49_9939" result="shape"/></filter></defs></svg>