<svg xmlns="http://www.w3.org/2000/svg" viewBox="0 0 128 38.9"><defs><style>.cls-1{fill:#45478b}.cls-1,.cls-4,.cls-5,.cls-6{fill-rule:evenodd}.cls-4{fill:#e83819}.cls-5{fill:#d02c1e}.cls-6{fill:#1f8d3f}</style></defs><g id="_图层_1" data-name="图层_1"><path class="cls-4" d="M88.8 10c.4.2.3.1.7.3-.3.5-.6 2.2-1.2 2.4h.1s1 0 1.5-.2c0 .1.2.2.3.3v.3c-.8.1-1.5 0-2.3.3 0 .1-.3.6-.6.8-.1 0-.1-.1-.1 0-.1 0-.1-.1 0 0 0 0 0-.5.3-.5v-.3h.2l-.1-.3c.5-.3 1.1-2.4 1-2.7h.2v-.2h.1Zm-3.1.7c.3 0 .4.1.7.3 0 .5.4 1.3.5 1.5v.5c0 .1 0 0 0 0 0 .1 0 0-.2.1.1.2.3 1 .1.8 0 .1 0 .1-.2.2h-.4c-.2-.2-.3-.4-.4-.5l-.1.1-.1.1c-.4.2-.9.2-1.4.4-.2 0-.2-.2-.3-.4v-.4c.7 0 1.5-.1 2.1-.5-.2-.5-.4-1.9-.2-2.3Zm27.4-.7s0 .1.1 0zm0 .2v.2l.1-.1h-.1Zm.7 1.8c0 .1 0 0 .2 0zm-23.4.6c0 .1 0 0 0 0m7-2.5c.2 0 .4 0 .6.3.4.5 0 4 0 4.3.4-.1 1-.1 1.2-.3 0-.2 0-.1.2-.2.4 0 2-.1 1.8.5l-.2.6c-.5-.1-2.9 0-3.1.4.1.7 2 3 2.8 3.6l2.1 1.2c0 .1-.2.1-.2.1.1.2.1.2.2.5h-.2c0 .1-.9.2-.9.2-.5 0-1.1-.6-1.6-.7-.3-.4-.9-1.3-1.2-1.8-.4-.5-1.3-2-1.4-1.9 0 .5-1.4 3.4-1.5 3.4h-.1c-.2.3-.6.8-.6.8-.4.2-1.1 0-1.6.2v-.1c1.6-1.1 2-2 2.8-3.4l.5-1.6c-1.1.3-2.4 1-3.5-.5h.2c.9-.3 2.3-.3 2.6-.4.3-.2.8-.3 1.1-.3v-.5c.1 0 0 0 0 0 .2-1.1 0-1.9.2-3 0-.6-.2-.8 0-1.4ZM55.8 10c1.4.1 1.9 1.6 1.2 2.7h.1s2.3-.2 2.3 0c.2.1.2.6.1.5.1.3 0 .3-.1.4-1.8-.1-2.6.2-4.3.1l-.9.3c-1.3 0-1.9 1-3-.5.1-.7 3.1-.6 3.3-.7.3 0 1.3 0 1.3-.1s-.6-.4-.5-.5c.1 0 .3-.2.4-.2-.2-.7-.3-1-.8-1.5 0-.5.7-.4.9-.5m-9.6.9c1.6.2.8 1.3 1 2.4 0 .4.3 1.1.3 1.3.9-.4 1.4 0 1.7.8-.2.2-.3.5-.5.7-.3.1-.9 0-1 .2-.4.7-.2 2.1-.5 2.7h.3c.6.1.9 0 1.5.4v.2l-.2.3c-.9.3-3.4.1-3.5-.7.2-.1.3-.3.6-.3 0-.2.1-3.5.1-3.5h-.2c.5-.7.2-2.3.3-3.1 0-.4-.2-1.1 0-1.4v-.1Z"/><path class="cls-4" d="m42.9 12.5 1.1.3c.6.5.7 3.1.5 3.9h.1l.7-.6v.2l.3-.2v.3c-.2 0-.6.2-.6.5h.3c0 .4-.4.5-.5.9 0 .2-.2 1.1-.2 1.1-1.3.9-2 .9-2.7 2.5-.3 0-.9 0-1-.2-.9-.4.9-2.3 1-2.6.2.1 0 .2.3 0v.5l.4-.4c-.1-.4-.5-.8-.4-1 0 0 0 .1.2.2s.1.1.2 0l.1-.1c-.1 0 0-.8 0-.8h-.5c0-.3-.2-.5-.4-.7-.2 0-1.1-.2-1.4-.7.2-1 1.6-.5 1.9-.8-.2-.6-.4-1.5-.3-2.1.2-.1.5 0 .8-.3Zm36.6 1.2c0 .1 0 0 0 0m29.5 1.1v-.6h-.1c0-.1.1 0 0-.1.3.2 1.2 0 1.3-.2.3.1 1.3.2 1.6.2v.2l-.6.3h.2c-.3.3-.7-.4-.8-.3-.6 0-1 .5-1.4.7Zm.4.7h-.3v-.3c.1 0 .4 0 .4-.2.1.2 0 .4-.1.5m-1-2.1c.3-.9 0-1 .3-1.8 0 0 .7 1 .8 1.1-.1 0 0 0 0 .1l-.8.4c.1.1.1 0 .2 0 0 .2-.1.1-.4.1Zm2.5 1.6c.1-.2 0-.2.2-.4.5.4 1.4 0 2.1 0v-.5c-.6-.9-1.5-.9-2.3-1.1-.2 0-.1 0-.2.2h-.4.1c0-.2-.2-.1-.4-.1.5-.5 1.5-1.4 2.2-1.6 0 0 0-.4.1-.4-.2-.6-1.1-1.1-1.1-1.1h-.3c-.1.8-.4 1.3-.9 1.6-.2-1.1-1.2-.9-1.4-1.4 0 .6 0 .6-.3 1.3 0 0-.4-.7-.4-.8 0 0-.2-.1-.3-.2-.6.3-1.1 2.5-.2 3.1h-.6c0 .1-.2-.5-.2-.5h-.2c-.6.2-.9 1.5-1.2 1.7 0 0-.2.1-.3.2 0 .4.1.7 0 1 .2 0 .3 0 .3.3 0-.1 0 0 0 0 .2 0 .1-.1.2 0 .3-.2.5-.4.7-.4v-.2c-.2-.3.2-.2.3-.7s0 .2 0 .2l.3-.4 1.2-.5v.2c0-.1 0 0 0 0v-.1c-.2.8-.9 1.2-.5 2.2h.4c.3-.1.4-.3.5-.7h.1l.3.8s-3.7.7-3.8.7h-.2c.6 1 1.8.2 2.6 0l1.3-.2c.4.3.3 3.8-.4 4 .2.2-1.5-.1-1.7-.1.6.8 1.2.8 2.1 1.1 1.2-.8 1.1-3.6.7-5h1c.3 0 1.1.4 1.6.2.2 0 .3 0 .3-.3l-.7-.3h-2.1c-.1-.2 0-.4-.3-.6.3-.5 1-.5 1.2-.8Zm-24.8 1.3c-.1.1-.3.4-.6.5v-.2l.3-.2c.2-.4.5-.6.7-.8 0 .3-.2.7-.4.8Zm4.9.7c.3-.9-2.4-.9-2.8-.7V16c.2 0 .6-1.3 1-1.5 0-.2 0-.3-.2-.4s-.2 0-.4-.1l-.7 1.7c-.1.1-.4.4-.5.6h-.3c.1-.2.2-.1.3-.3-.2-.2-.3-.4-.5-.6l-.3.2c.4-1.1 0-.7-.5-1.2-.1 0-.1 0-.2.2.1-.1 0 .3 0 .3s-.4.9-1 1.3c-.4.3-.6.6-.9 1l-.6.2c0 .1-.2.6 0 .7 0 .1.4.4.6.4h.2c.3-.3.7-.4 1-.6 0 .3-.8 1.6-1.1 1.8v.5c.3.4.5.3.8.4.2-.6 1.9-1.3 2.1-2 .1 0 0-.1 0-.2h.3l-.1-.5c.3.1 1.1 1.1 1.1 1.3.4 0 .4-.2.8-.3-.3-1.2-.9-1.1-2-1.4v.3l-.8.2c-.3.2-.3.4-.6.6.4-.8.9-1.8 1.3-2 0 .1.1.2.1.4h.3q.15 0 .3-.3H89l.9.2c.2 1.3-.3 3.5-1.5 4.3-.4-.2-.6-.3-.7-.7h-.4v.3c.4.2.8 1.4.9 1.6.4.1.4 0 .9 0 .7-1 2.2-3.8 1.8-5.2Zm-22.5-3.4c0 .5-.8.7-1.1 1v.2c.1 0-.5.1-.5.1v-1.4c.3-.2.7-.1 1-.1.3.1.4 0 .6.3Zm-2.8 1.6c-.3.1-.6 0-1.1 0-.4-.4-.3-.7-.5-1 .3-.3.8-.3 1-.3s.4 0 .6-.1c-.1.5 0 .9 0 1.4m4.7-1.4c0-.6-.4-.9-1-1.1h-2.5c.1-.2 0-3.1 0-3.2-.2-.2-.4-.3-.5-.4l-.4.2v.8c0 1-.2 2 0 2.8-.4-.1-1 .3-1 .3h-.3c-.5.2-1.1 0-1.3.2-.1.4-.2.7-.4 1.1.2 1.1 0 1.7 1.6 2.2 0-.2.1-.2.3-.2v-.2c.1 0 .4-.3.4-.4h.8c0 1.5.1 2.9-.1 4.5v1.8l.4.3h.3c.7-.4.4-.8.5-1.6v-2.8c0-.5.2-1.9 0-2.5.3 0 1.3-.3 1.5 0 .1 0 .2-.2.4-.2v-.6c.6 0 1.4-.4 1.6-1.2Zm-13.7 1.6c.1.3-.1.5-.3.9l-.6.2h-.2c0-.2 0-.8-.1-.9.3-.3.6-.2 1-.5h.2v.2h-.1Zm.4-1.1c-.3.3-1.5.4-2.1.5-.2-.1-.5-.2-.8-.1 0 .9 0 2.7.8 3.2 0 0 .2.1.4.1.2-.1.3-.3.4-.2 0 0 .1.6 0 .8-.2.8 0 1.7-.3 2.6h-.2l-.8-.5h-.1c.3.6 1.1 1.7 1.8 1.3.5-.3.2-.9.3-1.5 0-.4.2-2.9 0-3.2.3 0 .4-.1.8 0 .2-.4 1.2-1.3 1.2-1.9.3-.6-1-1-1.5-1Z"/><path class="cls-4" d="M89.9 15.1c0 .1 0 0 0 0m-13.2 2v.2c-.2.2-.9 1.6-.9 1.7-.1 0 .5.5.6.6-.2 0-1.1 0-1.2.1-.3-.4-.3-3-.2-3.4.2.2.5.4.6.5.5.1.9 0 1.2 0v.2Zm3-5.4v-.4c-.2 0 0-.2-.2-.3-.3-.2-.5-.1-.8-.2-.3.3-.8 0-1.1.1-.6.3-2.1 0-2.6.2-.4.1-.6.2-1 .3v.2c1 .5.8.9 1.9.5.2.1.6 0 .9-.1v.1l-.5 1.2c-.8 1.1-1.6 1.6.3 1.9.2-.3.4-.4.5-.7h.2c-.2.3-.2.7-.1.9-.4 0-1.5.3-1.9.4-.2-.1-.2-.2-.2-.3v-1.8h.1c-.1-.2 0-.5 0-.9l-.3-.2h-.1c-.2.3-.5.7-.7 1.1.2.4-.4 2-.2 2.7 0 .2-.2 1.9 0 2.1.3.6.3 1.5.6 2.3h.8l.3-.2-.3-.6c0 .2.9.2 1 .1.5-.2 1.4 0 2-.2.2.1 1 .3 1 .3l.4-.3c-.2-.8-2.6-.6-3-.4.2-.9.7-1.1.8-1.9.3 0 .5 1 1.2.9.3 0 .4-.1.6-.2-.3-.7-.9-1.1-1.6-1v-.2c.2-.1 0-.7.3-.9 0 0 1-.2 1.3-.2h.1l-.2-.7c-.4 0-.7-.2-1.1 0 0-.5-.1-.4-.3-.9.3-.3 1.2-.4 1.7-.4 0-.2 0-.5-.3-.6-.3-.2-.8-.2-1.3 0q.3-.6 0-1.5c.5-.1 1.5-.5 2.1-.3Zm-10.5 4h-.1v.2Zm.1 0c0 .1 0 0 0 0m-24.1.5c0 .1 0 0 0 0m8.2 2.1v.2h.3c0-.1.1.5.1.5.2 0 .4 0 .4.2.1.7-.1 1-.4 1.7-.3 0-.5 0-.8.1-.6-1.3-.4-1.7.3-2.6Zm4.4 0h.9c.3.7.4.7.6 1.3-.2 0-.2.1-.3.3-.9.1-1.4-.7-2.1-1.4l.9-.3Zm29 .7c.3 0 .3.1.5.4h-.2c0 .7-1.8 2-1.9 2.3h-.7v-.4c.5-.2 1.2-1.1 1.6-1.5.2-.2.8-.5.8-.5l-.2-.2c.1 0 0 0 0-.1Zm-8.4-.1v.2z"/><path class="cls-1" d="m14.8 10.3 2.4 2.8s4.4-2 8.1-2 7.8 2.1 7.9 2c.3-.2 2.3-2.7 2.3-2.7s-6.7-3-10.5-2.8-7.2 1.6-10.1 2.8Z"/><path class="cls-5" d="M19.8 11.2c-.2.3-.4.2-.4.1 0-.2-.1-.4-.2-.6 0 0 .1 0 .2-.2.1 0 .7.4.4.7m-.9-1.1.2-.2c.2 0 .5 0 0 .6l-.1-.4Zm1.4.6c-.2-.3-.4-.3-.7-.4.6-.6 0-.8-.2-.7l-1.3.5c.2 0 .2.2.2.2s.3 1 .4 1.2v.4s.8-.3 1.1-.4c.4-.1.6-.4.4-.8ZM22 9s.2 0 .2.3c0 .4 0 1.3.4 1.4.5 0 .8 0 1-.2s.3-.2 0-1.4c0-.3.2-.4.2-.4h-.6c0 .1.2.1.3.4 0 .3.3 1.1 0 1.3-.3.1-.5 0-.6-.1 0-.2-.1-1-.1-1.1 0 0 0-.3.2-.3h-.9v.2Zm5.5.6v-.8H27c-.3 0-1.1-.1-1.1.9 0 .9.7 1 1.1 1.1h.5c0-.1.3-.6.3-.6s-.2.6-.9.3c-.5-.3-.5-1.3.1-1.4.2 0 .4 0 .6.5Zm2.4 1.7s-.2 0 0-.4c.1-.3.4-1 .4-1v1.2c.1 0 1-.8 1-.8l-.3 1s0 .3-.3.2l.8.3s-.1 0 0-.4.4-1.1.4-1.1 0-.2.2-.1l-.8-.3s.1.1 0 .3l-.3.3V10l-.9-.4s.2 0 0 .4c-.1.3-.4 1.1-.4 1.1s0 .3-.2.2l.5.2Z"/><path class="cls-1" d="M16.3 24.2c-1.9-3.2-2.7-7.4-2-13.1l2.1 2.5s-1.2 5.7 1.4 10.5c1.4 2.1 3.2 3.9 6.7 5.5.3 1.3.3 1.6.3 1.6s-5.8-2.2-8.6-7Zm9.5 5.4-.4 1.6S39 25.8 35.8 11.3c-1.1 1.2-2 2.4-2 2.4s3.3 10.2-7.9 15.9Z"/><path class="cls-6" d="M19.5 15.5s2 .3 1.8 2.1c.2.5.3.8.2 1.2 0 .4-.3.9-.7 1.7.2-.3.6-.6.7-.7.2-.1.8-.6.8-.9 0 .5-.2 1-.4 1.5-.2.4-.6.8-1.5.8 0 .5-.3 1.4.1 2.2 0-.9.1-1.1.6-1.7.5-.5 1-.7 1.2-.8-.2.3-.6 1-.6 1.4 0 .5-.5 1.2-1 1.4.2.4.7 1.2 1.5 1.8-.3-.5-1-1.1.2-3.2 0 .5 0 .8.2 1.7s-.1 1.5-.2 1.7c.4.3 2 1.1 4.4 1.1l-.1.2s-3.5 0-5.4-1.9c-.8.3-1.7.5-2.7-.4-.9-1-.9-1.1-1.1-1.5.3.2 1 .5 1.6.6s1.1.2 1.8.8c-.4-.6-.8-1.4-.9-2-.8-.5-.9-.6-1.3-1.4S18 20 17.9 20c.4 0 1.8.5 2.1 1.7.1-.7.5-1.4.5-1.6-.4-.3-.7-.6-.9-1.5-.2-.8-.4-1.1-.5-1.2.4.2 1.9 1 1.5 2.5.1-.3.4-.8.6-1.4 0-.4 0-.8-.2-1.2-.7-.4-.8-.9-1-1.2 0 0-.4-.7-.6-.9Z"/><path class="cls-6" d="M30.7 15.5s-2 .3-1.8 2.1c-.2.5-.3.8-.2 1.2 0 .4.3.9.7 1.7-.2-.3-.6-.6-.7-.7-.2-.1-.8-.6-.8-.9 0 .5.2 1 .4 1.5.2.4.6.8 1.5.8 0 .5.3 1.4-.1 2.2 0-.9-.1-1.1-.6-1.7-.5-.5-1-.7-1.2-.8.2.3.6 1 .6 1.4 0 .5.5 1.2 1 1.4-.2.4-.7 1.2-1.5 1.8.3-.5 1-1.1-.2-3.2 0 .5 0 .8-.2 1.7s.1 1.5.2 1.7c-.4.3-2 1.1-4.4 1.1l.1.2s3.5 0 5.4-1.9c.8.3 1.7.5 2.7-.4.9-1 .9-1.1 1.1-1.5-.3.2-1 .5-1.6.6s-1.1.2-1.8.8c.4-.6.8-1.4.9-2 .8-.5.9-.6 1.3-1.4s.7-1.2.8-1.2c-.4 0-1.8.5-2.1 1.7-.1-.7-.5-1.4-.5-1.6.4-.3.7-.6.9-1.5.2-.8.4-1.1.5-1.2-.4.2-1.9 1-1.5 2.5-.1-.3-.4-.8-.6-1.4 0-.4 0-.9.2-1.2.7-.4.8-.9 1-1.2 0 0 .4-.7.6-.9Zm-6-3.4c0 .5-.4.8-.9.9-.7 0-.9-.3-.9-.8 0-.4.4-.8.9-.8.6 0 .8.3.8.8Zm-1.3 1s.4.2 1-.2v.7s-.5.3-.9.6c0-.4-.2-1.1-.2-1.1Zm.3 1.8.8-.3c0 .2.3 3.9.3 3.9s-.4.2-.6.1c0-.3-.6-3.7-.6-3.7Z"/><path class="cls-6" d="m24.5 20 .5-.2.3 4.2h-.2zm.7 4.6h.2v1.2h-.1l-.2-1.2Z"/><path class="cls-5" d="M22.2 15.5s0-1 1.3-1c.7-.5 1.2-1 2.3-1.2 1 0 1.8.8 1.1 2.4-.7 1.7-2 2.7-2 2.7 0-.4-.1-1.4-.1-1.4s1.8-2.3.8-2.7c0 0-.5-.3-2 .5-.3.5-.5.7-1.2.7l.2-.2c.1 0 .2-.1.2-.1s-.5.2-.6.2Z"/><path d="M22.9 14.7v-.1h.1-.2v-.1Z" style="fill-rule:evenodd;fill:#fff"/><path class="cls-5" d="M24 18.1v.6s.2.2 1.3-.2c1-.2 2.4-.5 3.2 1.7.4 1.4 0 2.8-1.2 3.8-1.2.8-2.5.8-4.1-.7.5.5 2.2 1.5 3.8.1 1-1 1-2 .5-3.1-.5-1-1.2-1.1-2.2-.8-1.1.3-1.7.7-1.9-.3 0 0-.1-.6.6-1.1"/><path d="M41.1 25.9h.4c.2 0 .4 0 .5-.1.1 0 .2-.2.2-.3 0-.2-.1-.4-.3-.4h-.7v.9Zm0-1.1h.7s.1 0 .2-.2v-.2c0-.1 0-.3-.2-.3-.1 0-.3-.1-.5-.1H41v.9Zm.9.1c.1 0 .3 0 .4.2.1 0 .2.2.2.4s-.2.5-.4.5h-1.7.2v-2h-.2 1.4c.2 0 .3.1.4.2.2.2.2.5 0 .7 0 0-.2.2-.3.2Zm1.4-.9v.9h.8v-.3.8-.2h-.7v.9h.8s.1 0 .2-.1c0 0 .1-.2.2-.3l-.2.6h-1.7.2v-2h-.2 1.7v.5-.2l-.1-.1h-.8Zm2.4 2h-1 .2v-2h-.2 1-.2v2zm.4-2.1h1-.2v1.8c0 .1-.1.2-.2.3 0 0-.2.1-.3.1h-.2v-.3h.1s0 .1.1.2v-1.9h-.2Zm2.1 2.1h-1 .2v-2h-.2 1-.2v2zm0-2.2h.6l1.4 1.7v-1.6h-.2.8-.2V26l-1.5-1.8v1.7h.2-.8.2v-1.8s0-.1-.1-.2h-.2Zm4.6 0v.7c0-.1-.1-.3-.2-.4s-.3-.2-.5-.2c-.3 0-.5.1-.7.3-.1.2-.2.4-.2.7s0 .4.1.6c0 .2.2.3.3.4.1 0 .3.1.4.1.2 0 .3 0 .5-.1V25h-.2.9-.2v.9c-.1 0-.3.1-.4.2h-.4c-.4 0-.8-.1-1-.4-.2-.2-.3-.5-.3-.7s0-.4.1-.6.3-.4.5-.5c.2 0 .4-.1.6-.1h.6v-.1Zm2.9.1h.8s-.2 0-.2.1v1.6q0 .15-.3.3c-.1 0-.3.1-.5.1s-.4 0-.6-.1c-.1 0-.2-.2-.3-.3v-1.8c0-.1 0 0-.2 0h1-.2v1.8l.2.2h.7c.1 0 .2-.1.2-.2v-1.7h-.2Zm.8-.1h.6l1.4 1.7v-1.6h-.2.8-.2V26l-1.5-1.8v1.7h.2-.8.2v-1.8s0-.1-.1-.2h-.2Zm3.5 2.2h-1 .2v-2h-.2 1-.2v2zm2.5-2.2s-.1 0-.2.1c0 0-.1.2-.2.2l-.8 1.9-.8-1.9v-.2h-.3.9c-.1 0-.2 0-.2.1v.3l.6 1.3.5-1.3V24h-.2.7Zm.8.2v.9h.8v-.3.8-.2h-.7v.9h.8s.1 0 .2-.1c0 0 .1-.2.2-.3l-.2.6h-1.7.2v-2h-.2 1.7v.5-.2l-.1-.1h-.8Zm2 .9c.2 0 .4 0 .5-.1.1 0 .2-.2.2-.4 0-.1 0-.3-.1-.3 0 0-.2-.1-.3-.1h-.3zm1.6 1.2h-.6l-.8-1.1h-.2v1h.2-1 .2v-2h-.2 1.3c.1 0 .2 0 .3.2 0 0 .1.2.1.3s0 .3-.1.4c0 .1-.2.2-.4.2l.5.6.3.3h.3Zm1.6-2.3v.8c0-.1 0-.2-.1-.4s-.3-.3-.5-.3c-.1 0-.2 0-.3.1 0 0-.1.1-.1.2v.2s.2.2.5.3c.2.1.4.2.4.3l.2.2c.1.2 0 .5-.1.7-.1.1-.3.2-.5.2h-.6v.1-.8c0 .1 0 .2.1.4 0 0 .1.2.2.2h.3c.1 0 .2 0 .3-.1 0 0 .1-.2.1-.3v-.2s0-.1-.1-.2c-.1 0-.2-.1-.4-.2-.1 0-.3-.2-.4-.3l-.2-.2c-.1-.2 0-.5.1-.7.1-.1.3-.2.5-.2h.5v-.1ZM70 26h-1 .2v-2H69h1-.2v2zm2-2.2v.5-.2s0-.1-.1-.1h-.5v2h.2-1 .2v-1.9h-.5s-.1 0-.1.1v.2-.5h1.9Zm1.8 0h.8c-.1 0-.2 0-.3.1 0 0-.1.2-.2.2l-.5.9v.9h.2-1 .2v-.7l-.6-.9s0-.1-.1-.2h-.2 1-.1v.1s0 .1.1.2l.5.7.4-.7v-.2h-.1Zm2.7.1c-.2 0-.4 0-.5.2-.2.2-.2.5-.2.8s0 .7.2.8c.1.2.3.2.5.2s.4 0 .5-.2.2-.4.2-.8 0-.7-.2-.9c-.1-.2-.3-.2-.5-.2Zm.1-.1c.3 0 .5.1.8.3.2.2.3.5.3.8s-.1.6-.3.9c-.2.2-.5.3-.8.3s-.6-.1-.8-.3q-.3-.3-.3-.9c0-.6.1-.7.4-.9.2-.2.5-.3.8-.3Zm1.9.2v.9h.6v-.2.8-.2h-.6v.9h.2-1 .2v-2h-.2 1.7v.5s0-.2-.1-.2l-.1-.1h-.8Zm4.1-.2v.8c0-.2-.2-.4-.3-.5s-.3-.2-.5-.2c-.1 0-.3 0-.4.1-.1 0-.2.2-.3.4 0 .2-.1.4-.1.6v.5c0 .2.2.3.3.3s.3.1.4.1h.4c.1 0 .2-.2.4-.4-.1.2-.2.4-.4.5-.2 0-.3.1-.5.1-.4 0-.7-.1-.9-.4-.2-.2-.2-.5-.2-.7s0-.4.2-.6c0-.2.2-.3.4-.4s.4-.2.6-.2.3 0 .5.1v-.1Zm.9 1.1h1v-.8h-.2 1-.2V26h.2-1 .2v-1h-1v.9h.2-1 .2v-2h-.2 1-.2v.8Zm2.8 1.1h-1 .2v-2h-.2 1-.2v2zm.1-2.2h.6l1.4 1.7v-1.6h-.2.8-.2V26l-1.5-1.8v1.7h.2-.8.2v-1.8s0-.1-.2-.2h-.2Zm3.2.2v.9h.8v-.3.8-.2h-.7v.9h.8s.1 0 .2-.1c0 0 .1-.2.2-.3l-.2.6H89h.2v-2H89h1.7v.5-.2l-.1-.1h-.8Zm2.9-.2v.8c0-.1 0-.2-.1-.4s-.3-.3-.5-.3c-.1 0-.2 0-.3.1 0 0-.1.1-.1.2v.2s.2.2.5.3c.2.1.4.2.4.3l.2.2c.1.2 0 .5-.1.7-.1.1-.3.2-.5.2h-.6v.1-.8c0 .2 0 .3.1.4 0 0 .1.2.2.2h.3c.1 0 .2 0 .3-.1s.2-.3 0-.4c0 0 0-.1-.1-.2-.1 0-.2-.1-.4-.2-.1 0-.3-.2-.4-.3l-.2-.2c-.1-.2 0-.5.1-.7.1-.1.3-.2.5-.2h.5v-.1Zm1 .2v.9h.8v-.3.8-.2h-.7v.9h.8s.1 0 .2-.1c0 0 .1-.2.2-.3l-.2.6h-1.7.2v-2h-.2 1.7v.5-.2l-.1-.1h-.8Zm3.7 2.1-.9-1.9V26h.2-.8.2v-1.9h-.2.6l.8 1.8.8-1.8h.6-.2v2h.2-1 .2v-1.7l-.9 1.9Zm2.3-2.1v.9h.8v-.3.8-.2h-.7v.9h.8s.1 0 .2-.1c0 0 .2-.2.2-.3l-.2.6h-1.7.2v-2h-.2 1.7v.5-.2l-.1-.1h-.8Zm2.1 1.9h.4c.3 0 .5 0 .6-.3.2-.2.3-.4.3-.7s0-.6-.3-.7c-.2-.2-.4-.3-.7-.3h-.3v1.9Zm-.7.2h.2v-2h-.2.9c.3 0 .6 0 .8.1.2 0 .3.2.4.4s.2.4.2.6 0 .6-.3.8c-.2.2-.5.4-1 .4h-1Zm3.5-.1h-1 .2v-2h-.2 1-.2v2zm2.1-2.2v.8c0-.2-.2-.4-.3-.5s-.3-.2-.5-.2c-.1 0-.3 0-.4.1-.1 0-.2.2-.3.4 0 .2-.1.4-.1.6v.5c0 .2.2.3.3.3s.3.1.5.1h.4c.1 0 .2-.2.4-.4-.1.2-.2.4-.4.5-.2 0-.3.1-.5.1-.4 0-.7-.1-.9-.4-.2-.2-.2-.5-.2-.7s0-.4.2-.6c.1-.2.2-.3.4-.4s.4-.2.6-.2.3 0 .5.1v-.1Zm1.3 2.2h-1 .2v-2h-.2 1-.2v2zm0-2.2h.6l1.4 1.7v-1.6h-.2.8-.2V26l-1.5-1.8v1.7h.2-.8.2v-1.8s0-.1-.1-.2h-.2Zm3.3.2v.9h.8v-.3.8-.2h-.7v.9h.8s.1 0 .2-.1c0 0 .2-.2.2-.3l-.2.6h-1.7.2v-2h-.2 1.7v.5-.2l-.1-.1h-.8Z" style="fill-rule:evenodd;fill:#231916"/></g></svg>