<svg xmlns="http://www.w3.org/2000/svg" viewBox="0 0 128 46.9"><g id="_图层_1" data-name="图层_1"><path d="M103.7 10h-.2c0-.1-1.8 2.4-1.8 2.4.8-.7 1.8-1.2 2-2.4m-20.3 7c.5-.6.3-1.4-.6-2.2 0 .8.2 1.6.3 2.3h.3Zm18.8.2c0-.3.3-.7.2-1-.2-.7-.6-1.4-.9-2-.5.8 1.2 1.9-.4 2.5l1.2.5Zm2.9.9-2.3 1.6c.8.9 1.5.4 2.1.2l.2-.2c.4-.5.6-1 0-1.6m-51.3 6.7c.3.9.5 1.8.9 2.7 0 .2.6.2.9.4 0-.4.4-.8.2-1-.6-.8-1.2-1.4-1.9-2.1l-.2.1Zm47.8-7.2-1.2 1.5c-.5.5-.5 1-.2 1.5.1.2.5.5.6.5.2 0 .5-.4.6-.6.2-.5.2-.9.3-1.4 0-.5 0-.9.1-1.4h-.2Zm5-4.1c.6-.2 1-.7.7-1.3-.2-.6-.9-.8-1.7-.5.7 1.2-.6 1.6-1 2.6.7-.3 1.3-.5 1.9-.8Zm-41.4 2.4c-.4-.6-.8-.5-1.2 0-.5.6-1.1 1.2-1.7 1.7-.3.3-.5.5-1 .9 2-.3 3.1-1.2 3.9-2.6M48 11.2c-.1.5.1 1.2.4 1.6.4.5.8 0 1.2-.3.9-.9 1.7-1.8 2.7-2.9l-1.5.6c-.4.2-.9.4-1.4.6l-.3-1.1c-.5.6-1 1-1.2 1.5ZM36.3 22c.7 2 .7 4.2 2.9 5.4.3-1.9-1.2-4.6-2.9-5.4m64-10.2c-.9.7-1.7 1.3-2.6 2l-.6.6c.3.2.5.5.9.6.9.2 2.1-.5 2.6-1.5.4-.8.8-1.6 1.2-2.6-.5.3-1 .6-1.4.9ZM63 15.1c.3 0 .6-.1.8-.3.7-.7 1.2-1.5 1.9-2.3.3-.4.7-.7.9-1.1.4-.7-.1-1.1-.6-1.4-.2-.1-.7 0-.8.2-.6.8-1.1 1.6-1.6 2.5-.3.6-.6 1.3-.9 1.9.1.2.2.5.3.5m44.2-.1-2.6 2.2c.1-1.1 1.3-2.1 2.6-2.2m-5 2.2c-.3.6.1.9.5 1.1.3.1.7.2 1 0 .8-.4 1.6-.9 2.4-1.4.7-.5 1.2-1 1.8-1.6.2-.2 0-.6.1-.9-.3 0-.6-.1-.8 0-.6.2-1.3.5-1.9.9-1.1.6-2.1 1.3-3.1 2Zm-3.1-1.6c-.5 2.3-1 4.6-1.4 6.9-.2 1.1-.2 2.3-.1 3.4 0 .4.5.7.7 1.1.2-.2.7-.5.7-.7.2-.9.4-1.9.3-2.8-.2-1.3-.4-2.7.2-3.9.5-.9.5-1.9.8-2.8s0-1.3-.9-1.5c0 .1-.1.2-.2.4ZM72.1 26c-.7-.3-1.3-.6-2-.8.5.7 1.1 1.2 1.7 1.7s1.3.4 1.5-.4v-5.4c0-.9.2-1.8-.8-2.3 1.1-1 2.8-.9 3.8-2.4-.5 0-.8-.1-1 0-1.3.6-2.6 1.2-3.9 1.9-.5.3-1 .6-1.6.9v-.9c-.4.7-.6 1.2 0 1.7s1 0 1.4-.3c.3-.2.6-.4.8-.6V26Zm-1.6-10.6-1.9 3.7c0-2.5.2-3 1.9-3.7m-.1-1c-.6-.1-.6-.5-.4-.9.2-.6.4-1.3.4-2 0-.3-.4-.6-.6-.8-.2.2-.5.3-.6.5-.2.6-.4 1.1-.5 1.7-.4 2.2-1.3 4-3.6 4.8-.4.1-.6.8-.8 1.2-.2.5-.2 1-.4 1.7-.4-.6-.7-1-1.1-1.7-.5 1.6-.6 3-.4 4.4 0 .5.6.7 1.1.3.2-.2.4-.6.5-.9.3-1.1.6-2.3.9-3.5 0-.2.2-.5.4-.5.8-.4 1.6-.7 2.5-1-.2.8.2 1.8-.7 2.5-.4.3-.7.9-.9 1.4-.3.6 0 1.1.7.9.4 0 .7-.3 1-.5l.5 1.3h.3v-1.1c-.4-1-.3-1.9.2-2.8.4-.8.8-1.5 1.3-2.2.3-.4.8-.7 1.2-1l.2.2-.7 1 4.8-3.5c0-.1-.1-.2-.2-.3-1.7-.4-2.8 1.2-4.3 1.6-.2-.2-.4-.5-.7-.6Zm-16.9.5c-.4.1-.8.3-1.3.4.2-1.5 1.9-1.6 2.5-2.7-.7-.9-1.9.6-2.5-.6 1-.6 2-1.1 3-1.8.5-.3 1.1-1.2.9-1.4-.4-.7-1.1-.3-1.7 0l.6.2c-.9.8-1.7 1.5-2.5 2.2-.4.4-.9.8-1 1.3-.1.8-.5 1.1-1.1 1.4-.2 0-.4.3-.6.4.4.5 1.1 1 1.1 1.5s-.6 1-.9 1.6c.6.4 1.2.9.7 1.6-.4.5-1.2.7-1.9 1.1.3.2.7.7.8.7.8-.4 1.3.3 2.3.1-.3.7-.4 1.5-.8 1.7-1.9.9-3.9 1.7-5.9 2.5-.3.1-.7.4-.6.6 0 .3.2.8.4 1 .2.1.7 0 .9-.2.4-.3.8-.7 1.2-.9l3.6-1.8c-.4 1.8-1.4 3-2.7 4.1.7-.2 1.3-.4 1.8-.7 1.2-.8 2-2 2.4-3.4.2-.6.5-.8 1-.9 1.2-.3 2.3-.6 3.5-.9.6-.1.9-.5.7-1 0-.1-.8-.1-1.1 0-1.2.3-2.3.8-3.1 1.1-.5-.6-.9-1-1.2-1.4-.1-.2-.2-.5-.1-.6.2-.3.5-.5.8-.7.5-.3.6-.8 0-1.2-.5-.4-.4-.6 0-1 .4-.5.7-1.1 1.1-1.6l-.2-.2Zm-16 .5c-.1.1-.6-.1-.9-.2.1-.2.2-.6.4-.7.5-.3 1-.5 1.5-.7l.3.3c-.4.5-.8 1-1.3 1.3m.9 2.7-1.8.6H36s-.1-.4 0-.4c.6-.5 1.2-1.2 1.9-1.5.3-.1.9.3 1.3.5v.3c-.3.2-.5.3-.8.5m.8-1.7c-.2-.1-.4-.3-.6-.4.2-.2.3-.4.5-.6.5-.5 1.1-1 1.5-1.6.2-.3.2-.9 0-1.3 0-.2-.7-.2-1.1-.2-.8.2-1.7.5-2.6.7 0-1 .3-1.9.2-2.7-.2-.8-.8-1.5-1.3-2.4-.2.3-.2.4-.2.5 0 1.2-.1 2.4-.2 3.6 0 2.4 0 2.2-2.2 2.4-.5 1.6 1 1.1 1.7 1.4-.2 1.1-.3 2.1-.6 3.1 0 .2-.3.3-.5.5-.2-.2-.4-.4-.4-.6-.2-.8-.4-1.6-.7-2.4h-.2c-.2.7-.3 1.4-.6 2s-.6 1.2.2 1.7c-1.7 1.2-3.7 1.8-5 3.5 2.1-.5 4.1-1.5 6.3-2.5-.8 2.8-2.2 5-3.9 7.1.7-.4 1.5-.8 2-1.4 1.5-1.9 2.8-3.9 3.5-6.3 0-.2.3-.3.5-.4 1-.4 2-.9 3.1-1.3.6-.2 1.3-.3 1.9-.6.4-.1.7-.5 1.2-.8-1.1-.5-1.9-.9-2.7-1.3Zm72.7 8.2c-1-1.3-2.3-2.2-3.4-2.5l1.6 2.3c-1.4 0-2.6.2-3.9.2-.6 0-.9-.2-1-.9 0-.6-.3-1.3-.4-1.9q.75-.75 1.5-1.8c.1-.1 0-.5 0-.7-.2 0-.4.2-.6.3-.6.5-1.1 1.1-1.7 1.6l1-1.5-.2.2c-1 .7-2 1.4-2.9 2.2-.8.7-.8.7 0 1.4-.3.5-.7 1-1 1.5-.2.4-.2.9-.3 1.3.8.2.8-.6 1-1 .6-1.3 1.7-2.1 2.8-3.1 0 .7-.1 1.3-.1 1.8 0 1.2.5 1.9 1.8 1.9s2.5-.2 3.8-.4c.7-.1 1.4-.4 2.2-.7v-.3Zm-88.4-8.8.2.3-1.5 1.3-.3-.4 1.5-1.2Zm-.5-.7c-.2.2-.6 0-.9 0 .1-.4.2-.9.4-1.1.6-.4 1.3-.6 1.9-.9 0 0 .2.2.2.3-.6.6-1.1 1.2-1.7 1.7Zm-7.1.6c.2.3.4.6.5.9 0 1 .2 2 0 3-.1 1 .4 1.5 1.1 2q.6.45.9-.3c.2-.7.3-1.4.5-2.1.3 0 .7-.1 1.1-.2 0 .2.1.4 0 .5-.2 3.2-.5 6.3-.7 9.5 0 .4 0 .7.1 1.1h.2c0-.2.2-.3.3-.5.6-3.4 1.1-6.8 1.6-10.2q0-.9.9-1.2c.6-.2 1.1-.6 1.7-.9.6-.4.8-.9.3-1.5-.4-.5-.2-.7.2-1.1q1.05-.9 1.8-2.1c.2-.2.2-.8.1-.9-.3-.2-.7-.4-1.1-.3-.5 0-.9.4-1.3.6-.6.3-1.3.5-2.2.9.2-1.9.5-3.7-1.5-4.7 0 .4-.2.7-.2 1.1v4c0 .4-.4.8-.7 1.2-.2.3-.5.6-.7.9.4.1.7.2 1.1.3l.2.2-.2 1.8-1.5.8c-.6-1-1.2-2-1.8-3.1-.2-.3-.2-.9-.8-.6v.7Zm72.5-3c1-.4 1.9-.8 2.9-1.1.3-.1.7 0 1.2-.2l-2.8 4.3c1 0 2-.2 2.9-.2 0 .2.1.3.2.4-.5.5-1 1.1-1.6 1.4-1.2.6-2.4 1-3.6 1.5-.4.2-.8.3-1.1.6-.5.4-.8.9-.3 1.5.2.3.3.8.5 1.3.5-.2.9-.3 1.4-.4 1.4-.3 1.7.2 1.2 1.2-.5.1-1.1.2-1.6.3-.7.2-.9.7-.6 1.4.5 1.1.6 2.3 0 3.4 0 .2-.2.3-.3.5l-2.9-2.2c0-.1 2.7 1.1 2.7 1.1l.3-.2-1-3.1-1.5.6c-.8.3-1.3 0-1.6-.7-.1-.4 0-.6.4-.7.8-.2 1.6-.5 2.4-.8-.2-.6-.3-1-.4-1.5-.3-.8-.1-1.5.6-1.9 1.4-.8 2.8-1.5 4.2-2.3.5-.2 1-.5 1.4-.7v-.3c-.7.2-1.3.3-1.8.6-2.6 1.5-5.2 3-7.9 4.5-.5.3-1 .5-1.6.8s-.9 0-1.2-.5c-.3-.6 0-.8.5-1 .7-.3 1.3-.7 1.9-1 1.8-.8 3.5-1.6 5.3-2.5.4-.2.8-.4 1.4-.6-.7-.5-1.2-1-1.7-1.4-.6-.4-.8-.9-1-1.5l1 .7 1.3-1.8s0-.1-.1-.2c-.4.2-.8.5-1.2.7s-.7.4-1.1.6h-.7c.2.7.3 1.5-.5 2.2.3-1.7-.8-2.8-1.4-4.1.2.2.5.4.7.6s.5.4.7.7c.3-.1.5-.4.8-.4 1.2-.2 1.8-1 2.5-1.8s1.5-1.6 2.2-2.4c.3-.3.5-.7.7-1h.3c-.6.9-1.1 1.8-1.8 2.6-.5.7-1.2 1.3-1.9 2.1.4.1.7.2 1 .3l-.2.6c-.5.5-.9 1-1.4 1.5l.8.7.2-1.4c.5 0 1 .3.9.8 0 .4-.5.7-.9 1.1.2.2.5.9 1.1.2 1-1.2 1.8-2.5 2.7-3.7-.6 0-1 .3-1.4.5-.6.2-1.2.2-1.9.3Z" style="fill-rule:evenodd;fill:#363c44"/><path d="M112 36.4s-.2-.2-.3-.2h-.6s-.1.1-.1.2v.3c0 .1.2.2.3.3.3.2.5.4.6.5s.2.3.2.5c0 .3-.1.5-.3.7s-.5.3-.7.3h-.4c-.1 0-.3 0-.4-.1v-.7c.1.1.3.3.4.3s.3.1.4.1.2 0 .3-.1c0 0 .1-.2.1-.3 0 0 0-.2-.1-.3s-.2-.2-.4-.3c-.2-.2-.4-.3-.5-.5 0-.1-.1-.3-.1-.5q0-.45.3-.6c.2-.2.5-.3.8-.3h.3s.2 0 .3.1v.6Zm-2.8 2.5c-.3 0-.4 0-.6-.2-.1-.1-.2-.4-.2-.7v-1.8h-.5l1.1-1.1v.7h.8v.4h-.8v1.6c0 .2 0 .4.1.5 0 .1.2.2.3.2h.3s.2 0 .3-.1l-.3.6h-.6Zm-3-1v-1.8c0-.2 0-.3-.1-.5h.8v.6l.5-.5h.7v.7h-.2c-.1 0-.3-.1-.4-.1s-.3 0-.5.1h-.1v2.2c0 .1 0 .2.1.3h-.9s0-.2.1-.3V38Zm-3.6-1h1.2l-.6-1.4zm-.9.7 1.6-3.3 1.6 3.3c.2.4.3.7.5.9.1.2.2.3.3.5h-1.2v-.4c0-.2-.1-.4-.2-.6l-.2-.3h-1.8c-.1.3-.2.6-.3.8v.5h-1.2c.1-.1.3-.3.4-.5s.3-.5.5-.8Zm-3.5-.7c0-.3 0-.5-.2-.6-.1-.1-.3-.2-.5-.2s-.4 0-.5.3c0 .1-.2.3-.2.6h1.3Zm-.5 2c-.5 0-.8-.1-1.1-.4s-.4-.7-.4-1.1.1-.9.4-1.2.6-.5 1-.5.7.1.9.4c.2.2.3.6.3 1.1v.3H97c0 .3.1.5.3.7s.4.4.7.4h.4c.1 0 .3 0 .4-.1l-.3.6h-.6Zm-4.6-1v-1.8c0-.2 0-.3-.1-.5h.8v.5l.5-.5h.4c.3 0 .5 0 .7.3.2.2.2.4.2.8v2.1h-.9s0-.2.1-.3v-1.8c0-.2 0-.3-.1-.4 0 0-.2-.1-.4-.1s-.3 0-.5.1h-.1v2.2c0 .1 0 .2.1.3h-.9s0-.2.1-.3v-.6Zm-1.2-3.5c.1 0 .2 0 .3.1 0 0 .1.2.1.3s0 .2-.1.3c0 0-.2.1-.3.1s-.2 0-.3-.1c0 0-.1-.2-.1-.3s0-.2.1-.3c0 0 .2-.1.3-.1m-.3 3.5v-1.8c0-.2 0-.3-.1-.5h.9s0 .2-.1.4v2.5c0 .1 0 .2.1.3h-.9s0-.2.1-.3zm-3-.3V35c0-.2 0-.4-.1-.6h2.6l-.2.4-.2.4c-.2 0-.3-.2-.5-.2h-.8v1.5h1.5l-.2.4-.2.4c-.1 0-.3-.1-.5-.2h-.6v1.4c0 .2 0 .4.1.6h-1c0-.2.1-.4.1-.6v-.7Zm-3.2-1.4v2.4c0 .1 0 .2.1.3h-.9s0-.2.1-.3v-2.4h-.4l.2-.4h.1v-.2c0-.4 0-.6.3-.8.2-.2.5-.3.8-.3h.6l-.2.6s-.2-.1-.2-.2h-.2c-.1 0-.3 0-.3.1 0 0-.1.2-.1.4v.4h.7v.4h-.7Zm-2.3 1.9c.1-.2.2-.4.2-.7 0-.4 0-.7-.3-1-.2-.2-.5-.4-.8-.4-.2 0-.3.2-.4.4s-.2.4-.2.7c0 .4 0 .7.3 1 .2.2.5.4.8.4.2 0 .3-.2.4-.4m-1.8.4c-.3-.3-.4-.7-.4-1.1s.2-.9.5-1.2.7-.5 1.1-.5.8.1 1 .4c.3.3.4.7.4 1.1s-.2.9-.5 1.2-.7.5-1.1.5-.8-.2-1-.4m-2.9-1.9-.5 1.4q-.3.75-.6 1.2c-.1.2-.3.5-.5.6h-.9l.6-.6c.2-.2.3-.5.5-.8v-.2l-.8-1.7c0-.2-.2-.4-.3-.5 0-.1-.2-.3-.3-.4h.9v.2s0 .2.2.4l.6 1.3.5-1.3v-.6h.9c0 .1-.2.2-.2.4 0 .1-.1.3-.2.5ZM71 37.9v-1.8c0-.2 0-.3-.1-.5h.8v.6l.4-.5h.1c.1-.2.3-.2.5-.2.3 0 .5 0 .6.2.1.1.2.3.2.5l.5-.5h.1c.1-.1.3-.2.4-.2.3 0 .4 0 .6.2.1.2.2.4.2.7v2.3h-.9s0-.2.1-.3v-1.8c0-.2 0-.3-.1-.4s-.2-.1-.4-.1-.3 0-.5.2h-.2v2.1c0 .1 0 .2.1.3h-.9s0-.2.1-.3v-1.8c0-.2 0-.3-.1-.4 0 0-.2-.1-.4-.1s-.3 0-.5.2h-.1v2.1c0 .1 0 .2.1.3h-.9s0-.2.1-.3v-.6Zm-1.1-1c0-.3 0-.5-.2-.6-.1-.1-.3-.2-.5-.2s-.4 0-.5.3c0 .1-.2.3-.2.6h1.3Zm-.4 2c-.4 0-.8-.1-1.1-.4s-.4-.7-.4-1.1.1-.9.4-1.2.6-.5.9-.5c.4 0 .7.1.9.4.2.2.3.6.3 1.1v.3h-1.8c0 .3.1.5.3.7s.4.4.7.4h.4c.1 0 .3 0 .4-.1l-.3.6h-.6Zm-3.4-2.8c-.3 0-.5 0-.6.3-.1.2-.2.5-.2.9s0 .6.2.8q.3.3.6.3h.6v-2.1c-.2-.1-.3-.2-.6-.2m-.2 2.8c-.4 0-.7-.1-1-.4-.2-.2-.4-.6-.4-1s.2-1 .5-1.4.8-.6 1.2-.5h.4v-.7c0-.1 0-.3-.1-.4h.5l.5-.2v4.1c0 .1 0 .2.1.3h-.8v-.4l-.4.4H66Zm-2.6-.5v-.9h-.8v.5c0 .1 0 .3.2.3 0 0 .2.1.5.1h.4Zm-.7.5c-.3 0-.6 0-.7-.2q-.3-.15-.3-.6c0-.45 0-.3.2-.5.1-.1.3-.3.5-.3l1-.4v-.3c0-.2 0-.3-.2-.4-.1-.1-.3-.2-.4-.2h-.3c-.1 0-.3.1-.4.2l.2-.6c.1 0 .3 0 .4-.1h.4c.4 0 .6 0 .8.3.2.2.3.4.3.8v2.1h-.8v-.3l-.5.4h-.1Zm-1.6-.1h-.7c-.4 0-.8-.1-1.1-.4s-.4-.7-.4-1.1.2-.9.5-1.2.7-.5 1.2-.5h.7v.7c-.1-.1-.3-.2-.4-.3h-.4c-.3 0-.5.1-.7.3s-.3.5-.3.8 0 .7.3.9c.2.2.4.3.7.3h.3c.1 0 .3 0 .5-.2l-.3.6Zm-5.5-1.9h1.2l-.6-1.4zm-1 .7 1.6-3.3 1.6 3.3c.2.4.3.7.5.9.1.2.2.3.3.5h-1.2v-.4c0-.2-.1-.4-.2-.6l-.2-.3h-1.8c-.1.3-.2.6-.3.8v.5h-1.2c.1-.1.3-.3.4-.5s.3-.5.5-.8Zm-3.8.3v-3c0-.1 0-.3-.1-.4h.5l.5-.2c0 .2 0 .3-.1.5v3.7c0 .1 0 .2.1.3h-.9s0-.2.1-.3v-.6Zm-1.4.5v-.9h-.8v.5c0 .1 0 .3.2.3 0 0 .2.1.5.1h.4Zm-.6.5c-.3 0-.6 0-.7-.2q-.3-.15-.3-.6c0-.45 0-.3.2-.5.1-.1.3-.3.5-.3l1-.4v-.3c0-.2 0-.3-.2-.4-.1-.1-.3-.2-.4-.2h-.3c-.1 0-.3.1-.4.2l.2-.6c.1 0 .3 0 .4-.1h.4c.4 0 .6 0 .8.3.2.2.3.4.3.8v2.1h-.8v-.3l-.5.4h-.1Zm-3-1v-1.8c0-.2 0-.3-.1-.5h.8v.6l.5-.5h.7v.7h-.2c-.1 0-.3-.1-.4-.1s-.3 0-.5.1h-.1v2.2c0 .1 0 .2.1.3h-.9s0-.2.1-.3V38Zm-1.3 1c-.3 0-.4 0-.6-.2-.1-.1-.2-.4-.2-.7v-1.8h-.5l1.1-1.1v.7h.8v.4h-.8v1.6c0 .2 0 .4.1.5 0 .1.2.2.3.2h.3s.2 0 .3-.1l-.3.6h-.6Zm-4.1-1v-1.8c0-.2 0-.3-.1-.5h.8v.5l.5-.5h.4c.3 0 .5 0 .7.3.2.2.2.4.2.8v2.1h-.9s0-.2.1-.3v-1.8c0-.2 0-.3-.1-.4 0 0-.2-.1-.4-.1s-.3 0-.5.1h-.1v2.2c0 .1 0 .2.1.3h-.9c0-.1 0-.2.1-.3v-.6Zm-1.2-1c0-.3 0-.5-.2-.6-.1-.1-.3-.2-.5-.2s-.4 0-.5.3c0 .1-.2.3-.2.6H39Zm-.4 2c-.5 0-.8-.1-1.1-.4s-.4-.7-.4-1.1.1-.9.4-1.2.6-.5 1-.5.7.1.9.4c.2.2.3.6.3 1.1v.3H38c0 .3.1.5.3.7s.4.4.7.4h.4c.1 0 .3 0 .4-.1l-.3.6h-.6Zm-1.9-.3c-.3.1-.5.2-.7.3h-.7c-.7 0-1.2-.2-1.7-.6-.4-.4-.7-.9-.7-1.6s.2-1.3.7-1.7c.5-.5 1.1-.7 1.8-.7h.6c.2 0 .4 0 .6.2v.7l-.6-.3c-.2 0-.5-.1-.7-.1-.5 0-.9.2-1.2.5s-.5.8-.5 1.3.1.9.4 1.3c.3.3.7.5 1.1.5s.6 0 .8-.1.5-.2.7-.4v.7Zm-7-.2v-.9H29v.5c0 .1 0 .3.1.3s.2.1.5.1h.4Zm-.7.5c-.3 0-.6 0-.7-.2q-.3-.15-.3-.6c0-.45 0-.3.2-.5.1-.1.3-.3.5-.3l1-.4v-.3c0-.2 0-.3-.2-.4-.1-.1-.3-.2-.4-.2h-.4c-.1 0-.3.1-.4.2l.2-.6c.1 0 .3 0 .4-.1h.4c.4 0 .6 0 .8.3.2.2.3.4.3.8v2.1h-.8v-.3l-.5.4h-.1Zm-4-1v-1.8c0-.2 0-.3-.1-.5h.8v.5l.5-.5h.4c.3 0 .5 0 .7.3.2.2.2.4.2.8v2.1h-.9c0-.1 0-.2.1-.3v-1.8c0-.2 0-.3-.1-.4 0 0-.2-.1-.4-.1s-.3 0-.5.1h-.1v2.2c0 .1 0 .2.1.3h-.9s0-.2.1-.3v-.6Zm-1.2-3.5c.1 0 .2 0 .3.1 0 0 .1.2.1.3s0 .2-.1.3c0 0-.2.1-.3.1s-.2 0-.3-.1c0 0-.1-.2-.1-.3s0-.2.1-.3c0 0 .2-.1.3-.1m-.3 3.5v-1.8c0-.2 0-.3-.1-.5h.9s0 .2-.1.4v2.5c0 .1 0 .2.1.3h-.9c0-.1 0-.2.1-.3zm-3.3 0v-3c0-.1 0-.3-.1-.4h.5l.5-.2c0 .2 0 .3-.1.5v1.4l.5-.5h.4c.3 0 .5 0 .7.3.2.2.2.4.2.8v2.1H22c0-.1 0-.2.1-.3v-1.8c0-.2 0-.3-.1-.4 0 0-.2-.1-.4-.1s-.3 0-.5.1H21v2.2c0 .1 0 .2.1.3h-.9c0-.1 0-.2.1-.3V38Zm-.6.7c-.2.1-.5.2-.7.3h-.7c-.7 0-1.2-.2-1.7-.6-.4-.4-.7-.9-.7-1.6s.2-1.3.7-1.7c.5-.5 1.1-.7 1.8-.7h.6c.2 0 .4 0 .6.2v.7l-.6-.3c-.2 0-.5-.1-.7-.1-.5 0-.9.2-1.2.5s-.5.8-.5 1.3.1.9.4 1.3c.3.3.7.5 1.1.5s.6 0 .8-.1c.3 0 .5-.2.7-.4v.7Z" style="fill:#363c44"/></g></svg>