<svg width="128" height="128" fill="none" xmlns="http://www.w3.org/2000/svg"><path d="M108 64c0 24.301-19.7 44-44 44S20 88.301 20 64s19.7-44 44-44 44 19.7 44 44" fill="#1d2a75"/><path d="M106.619 64.108c0 23.537-19.08 42.618-42.618 42.618s-42.62-19.08-42.62-42.618 19.081-42.62 42.62-42.62c23.537 0 42.618 19.081 42.618 42.62" fill="#fff"/><path d="M29.373 47.83c-.001-.244.118-.655.362-1.11.916-1.71 2.956-1.665 5.115-.51 2.869 1.537 3.237 3.538 2.54 4.839-.246.457-.518.72-.689.796l-1.125-.884c.16-.108.316-.24.47-.528.395-.736.029-1.788-1.858-2.799-1.82-.975-2.854-.75-3.28.046a2.3 2.3 0 0 0-.223.687zm6.869 5.707-3.268-1.142-.51 1.457 3.266 1.143-.487 1.394-8.154-2.853.488-1.393 3.412 1.193.51-1.457-3.412-1.195.489-1.392 8.152 2.851zm-1.447 5.19-8.457-1.76.302-1.446 8.457 1.76zm-8.842.247 8.617.633-.1 1.35-3.462.92c-.681.177-1.82.466-2.578.625l-.002.022c.912.022 2.415.03 4 .147l1.905.14-.096 1.293-8.616-.633.1-1.35 3.357-.917c.748-.193 1.86-.462 2.652-.574l.001-.022c-.87-.03-2.204-.072-3.93-.199l-1.943-.142zm1.798 7.753-1.997-.148-.135-1.425 8.756.812.168 1.761-8.46 2.296-.136-1.425 1.934-.513zm1.418 1.097 1.776-.419c.515-.13 1.36-.312 1.93-.435l-.005-.034c-.58-.022-1.485-.049-1.99-.08l-1.814-.108zm5.964 3.308.992 3.148-1.394.442-.548-1.742-2.115.668.515 1.634-1.333.42-.515-1.632-3.398 1.074-.444-1.41zm-.649 9.634c-2.94 1.398-4.569 1.05-5.187-.253-.74-1.56.848-3.06 2.99-4.08 2.131-1.013 4.325-1.145 5.044.372.789 1.66-1.063 3.113-2.847 3.96Zm-1.563-2.937c-1.772.842-2.535 1.566-2.28 2.106.265.56 1.526.223 3.113-.531 1.366-.65 2.519-1.422 2.233-2.022-.251-.53-1.386-.352-3.066.447m5.463 1.571c.348.32.735.764 1.057 1.226.462.666.77 1.33.631 2.032-.127.65-.522 1.091-1.132 1.516-.76.527-1.668.68-2.447.277l-.023.015c.108.557-.197 1.085-.872 1.732-.706.67-1.463 1.446-1.648 1.74l-.883-1.268c.149-.213.768-.85 1.483-1.485.807-.727.925-1.097.641-1.505l-.122-.175-2.831 1.973-.841-1.214zm-2.252 3.366.149.211c.366.528 1.062.496 1.684.064.598-.418.882-.931.525-1.492-.071-.101-.165-.214-.243-.257zm3.874 6.132-1.191-1.262-1.697 1.605 1.347 1.425-1.062 1.004-2.36-2.497 6.28-5.94 2.267 2.399-1.062 1.004-1.253-1.326-1.445 1.366 1.192 1.26zm5.322-1.808-5.588 6.598-1.125-.954 5.588-6.598zm-.387 9.967c-.357-.05-1.026-.303-1.488-.606-.725-.475-1.117-1.069-1.225-1.83-.153-.96.258-2.223 1.091-3.455 1.75-2.612 3.786-2.841 5.134-1.959.48.315.768.656.896.894l-1.01 1.07c-.11-.224-.31-.433-.621-.636-.838-.55-1.937-.334-3.174 1.556-1.138 1.738-.951 2.75-.376 3.126a.8.8 0 0 0 .266.128l1.144-1.75-.564-.369.751-1.148 1.706 1.116zm1.663 1.166 3.459-7.925 1.238.541-.28 3.573a73 73 0 0 1-.267 2.64l.02.008c.322-.853.83-2.27 1.467-3.726l.763-1.752 1.188.518-3.457 7.923-1.24-.54.25-3.473c.065-.77.18-1.909.34-2.693l-.02-.008c-.319.811-.8 2.057-1.493 3.644l-.78 1.787zm9.822 1.334-.704 1.875-1.406-.269 3.251-8.18 1.737.334-.187 8.768-1.404-.269.053-2.002zm1.455-1.053.098-1.823c.022-.531.085-1.394.128-1.974l-.034-.006c-.187.552-.467 1.412-.64 1.889l-.616 1.71zm3.255-4.924 3.298.142-.065 1.46-1.823-.078-.096 2.216 1.71.074-.06 1.396-1.711-.074-.155 3.562-1.475-.063.377-8.636Zm3.99.11 3.287-.305.134 1.454-1.818.17.204 2.21 1.706-.16.128 1.392-1.706.16.328 3.549-1.469.137zm6.254 5.885.111 2-1.394.322-.331-8.793 1.725-.397 3.37 8.091-1.394.321-.76-1.85-1.328.306Zm.904-1.55-.647-1.706a74 74 0 0 1-.68-1.858l-.034.008c.053.58.144 1.48.178 1.985l.128 1.813zm2.45-6.375 2.92 8.132-1.389.5-2.92-8.13 1.39-.502Zm.944-.183c.366-.3.86-.622 1.363-.876.725-.366 1.426-.578 2.1-.344.626.214 1.007.669 1.343 1.334.414.823.438 1.745-.071 2.461l.012.024c.566-.028 1.047.347 1.592 1.104.565.793 1.225 1.652 1.49 1.877l-1.378.697c-.19-.178-.734-.88-1.262-1.675-.606-.9-.956-1.068-1.398-.844l-.191.095 1.554 3.08-1.318.666zm3.017 2.699.231-.118c.574-.29.64-.984.299-1.659-.33-.653-.799-1.005-1.403-.728-.11.056-.236.134-.288.203zm5.058.668c.359-.02.863-.205 1.213-.453.569-.405.607-.936.28-1.396-.362-.512-.817-.568-1.614-.582-1.262.016-2.109-.499-2.562-1.136-.801-1.129-.807-2.54.489-3.461.404-.287.879-.436 1.151-.442l.646 1.32a1.65 1.65 0 0 0-.96.32c-.515.366-.511.897-.245 1.274.297.419.637.507 1.634.49 1.218-.015 2.026.48 2.553 1.222.912 1.286.677 2.727-.537 3.59-.495.352-1.087.55-1.385.56zm1.535-10.184 4.128 3.803c.932.86 1.446.872 1.705.59.29-.315.24-.774-.72-1.66l-4.13-3.804 1.002-1.087 3.912 3.605c1.63 1.503 2.02 2.859 1.027 3.937-1.077 1.169-2.41.783-4.003-.686l-3.922-3.611zm9.706 1.93-7.268-4.667.73-1.138 3.48.84c.683.17 1.823.46 2.564.682l.011-.02c-.79-.454-2.105-1.177-3.444-2.036l-1.605-1.033.7-1.09 7.267 4.665-.73 1.14-3.388-.795c-.748-.186-1.854-.48-2.603-.76l-.013.018c.752.443 1.905 1.115 3.36 2.05l1.639 1.052-.7 1.093ZM91.14 75.948l7.814 3.68-.63 1.338-7.814-3.681zm8.949.866-8.736-1.107.515-1.552 3.71.662c.92.163 1.978.349 2.972.57l.008-.02a80 80 0 0 1-2.77-1.3l-3.34-1.656.513-1.54 7.65 4.37zm-1.82-8.462-.303 1.71 2.297.407.342-1.931 1.439.254-.6 3.384-8.506-1.505.576-3.251 1.438.254-.319 1.799 1.956.346.305-1.71zm-4.539-1.598a7.7 7.7 0 0 1-.126-1.615c.021-.812.168-1.53.695-2.012.485-.45 1.066-.57 1.808-.551.924.023 1.746.438 2.136 1.226l.026.002c.244-.514.802-.76 1.728-.881.965-.122 2.034-.299 2.358-.425l-.04 1.544c-.246.084-1.122.23-2.074.32-1.079.106-1.392.336-1.406.831l-.005.214 3.447.088-.038 1.476-8.51-.217Zm3.805-1.38.006-.258c.018-.643-.561-1.03-1.317-1.05-.731-.018-1.264.227-1.306.892-.003.124.006.27.041.35zm2.987-4.14c.155-.326.231-.857.178-1.282-.087-.694-.535-.978-1.095-.909-.623.078-.887.452-1.278 1.147-.586 1.12-1.44 1.624-2.217 1.72-1.373.172-2.617-.49-2.813-2.068-.062-.491.032-.981.157-1.224l1.468.056a1.65 1.65 0 0 0-.173.999c.078.626.547.873 1.005.816.51-.063.75-.32 1.206-1.206.564-1.083 1.384-1.559 2.287-1.672 1.565-.194 2.721.694 2.905 2.17.075.605-.03 1.22-.165 1.487zm-7.831-4.794 8.405-2.004.341 1.435-8.404 2.005zm.951-2.245.449 1.263-1.462.52-1.396-3.927 1.462-.521.453 1.273 6.68-2.379.493 1.391z" fill="#000"/><path d="m98.147 46.606-2.917 1.56-3.922 3.983-.743-1.393 1.578-1.43c.423-.379.919-.81 1.432-1.21l-.01-.021c-.597.216-1.209.403-1.816.573l-1.999.556-.72-1.351 5.448-.981 2.975-1.587z" fill="#000"/><path d="M39.396 35.95s.157-1.678.441-1.972c.283-.296.84-.575 1.036.278.195.855.267.324.267.324s1.225-.383 1.64.397c.416.78.604 1.944.224 2.297 0 0 1.285.25 1.497.485.211.235-.378 1.325-1.4 1.282-1.024-.044-.399 1.399-.736 1.605 0 0 .093.795-.835.693s-.418-.352-.418-.352l.16-2.106s-.938-.766-1.157-.693.362-1.133.49-.604l.638-.39.085-.051.118-.133s.318-.91.01-1.407c-.305-.495-.67.365-.826.599-.156.23-1.034.585-1.16.297-.128-.287-.074-.549-.074-.549m3.243-6.819s-.13 1.403-.147 1.778c-.018.377 1.919 3.025 1.99 3.302.071.276-.564.619-.555.795.01.177.735.463.972.684.235.22 3.944 6.624 3.944 6.624s1.194.32 1.133-.828c-.062-1.149-3.16-5.597-3.16-5.597l.073-.367s1.823-.11 2.273-.43c.45-.321.365-.862.283-.995-.081-.132-1.555-.098-2.577.024-1.02.122-.638-.066-.776-.209-.139-.144-.334-.298-.637-.706l.184-.432s-1.297-1.855-1.189-1.92c.11-.067.2-1.127.2-1.127s-.819-1.325-2.011-.596m11.545-2.263s.68.28 1.253.223c0 0 .545.037.945-.48 0 0 .254-.582-.133-.735l-.473-.14-1.624.2s-.637.202-.034.81c.603.607.066.122.066.122m-.496 1.963s1.33-.326 1.52-.27 1.2.679 1.364 1.586c.163.909.029.665-.004.983-.032.317.068.122.068.122s.627.245.856.517.52 1.649.331 2.084c0 0 .251.402.476.406 0 0 1.797.26 1.408 1.088 0 0-.053.947-1.63.915 0 0-.733-.584-.95-.546-.217.04-1.261.225-1.794.008 0 0-.447.257-.498-1.027 0 0-.664-.687-.82-1.06l.017-.404s1.319-.146 1.457-.125c.14.019.2-.884-.498-1.027 0 0-.094-1.77-.32-1.774 0 0-1.013-.89-1.254-.982s.27-.494.27-.494Zm4.09.299.187 1.038s.362.516.754.445c.392-.069 1.043-.185 1.302-.99 0 0 .088-.507-1.053-.616 0 0-.722-.273-1.012-.132-.288.14-.178.255-.178.255m10.796-1.058s.61-2.197.534-2.56.74-.766.97-.246c0 0 .05-.036.087.85 0 0 .572-.263 1.045.12l.238.169s2.026-1.624 2.3-1.67c.272-.045 1.31.117 1.059.871 0 0-1.06 1.112-.453 2.043 0 0 .204.957-.718.901 0 0-.962.203-1.41-.042 0 0-.128-.593.338-.74l.388.06s-.144-.772-.456-1.041c0 0-.34-.096-.56.178-.22.273-.737 1.03-.916 1.047 0 0-.753.28-.45.326 0 0-.506-.167-.778-.12-.274.046-.13-.02-.343.21-.213.231-.669.028-.669.028zm-3.642 1.768 1.122-.662s.486-.278.828.084c0 0 5.744-.472 7.672.223 0 0 2.334.936.688 1.825 0 0-.818.137-1.2.034 0 0-.77-.472-.322-1.063 0 0-3.468-.759-4.12-.553 0 0-1.15.263-1.439.13l-.156.15-.17.24-.343.21-.293.175-.244.138-.385.204-.28.09-.323.08-.193.104-.39-.06-.308-.005-.11-.15-.139-.241.003-.308.055-.344z" fill="#e60012"/><path d="M70.562 30.727s-.187 1.467-.313 1.713l-.048.301s-1.517-.207-1.633-.033c0 0-.278.645.473 1.219l.953.147s.053 1.638-1.293 2.31l-.125.42s.375.25 1.14-.114c0 0 .627.243 1.487-2.706 0 0 .863.338 1.526-.322 0 0 .79-.698-.58-1l-.502-.093s.006-.616.15-.68c.143-.067.52-.493.07-.739 0 0-.51-.695-1.305-.423m12.223-.78s1.155.46 1.234.974l.14.263s-.8 2.244-1.535 2.574c0 0-.647.27-1.224-.278 0 0-2.238 3.96-2.675 4.309 0 0-.534 1.208-1.725.09l.004-.4.733-1.195s.34-.125.592-.19c.253-.067 1.071-1.551 1.105-1.76s-.024-.36-.024-.36l.743-1.13.285-.276.349-.291.285-.277.024-.272 1.063.52.23.204.364-.396.212-.323-.212-.31-.222-.374-.07-.45-.04-.255zm2.965 1.983s-1.675.408-1.84.82l-.398.606s.122.366.814.816c0 0 .674.322 2.392.402 0 0 2.035.228 2.267.666l.516.163s.227.608.068.85c0 0 .122.368.907.359 0 0 .862-.36.24-1.63 0 0-3.356-1.545-4.37-1.744l-.365-.236s.843-.49-.231-1.072" fill="#e60012"/><path d="M88.81 31.997s.847.397.56 1.364c0 0 .045.566-.597.379-.64-.185-.816-.338-.933-.53s-.123-.923.116-1.076c.24-.151.854-.137.854-.137m-2.864 3.247c-.18.01-.28.164-.28.164s-.162.932.033 1.057c.194.126.374.435 1.106.373.587-.31.37-1.14-.094-1.175 0 0-.656-.426-.765-.419M83.2 38.949l-.093.247-1.127 1.609c-.463.968.272 1.484.272 1.484l1.318.74c1.987 1.252 2.75.673 2.75.673.875-.699.92-1.82.92-1.82.46-1.545-.564-.674-.564-.674-.302.88-1.288 1.273-1.288 1.273-2.175-.49-1.775-1.153-1.775-1.153.188-.76.932-1.313.932-1.313.422-.378.494-.909.494-.909l-.076-.201c-.052-.187.501-.71.501-.71.925.176.633-.436.633-.436s.002.156-.265-.44c-.268-.595-1.618-1.128-1.618-1.128s-.526-.15-.404.774c0 0 .136.741-.506.824 0 0-2.07.458-2.508.751 0 0-.632.434 0 .844 0 0 .29.458.82.34 0 0 .53.193 1.583-.775Z" fill="#e60012"/><path d="m39.297 64.529.164.003h10.713a26.7 26.7 0 0 0 1.009 6.716c.616 2.188 1.484 4.275 2.559 6.29a24.9 24.9 0 0 0-6.725 4.401l-.287-.276c-3.203-3.156-5.41-6.897-6.59-11.239a22.6 22.6 0 0 1-.691-3.704c-.056-.568-.086-1.138-.13-1.707-.004-.053-.014-.106-.022-.16zm49.406.325c-.017.223-.036.447-.049.67a24 24 0 0 1-.93 5.393 24.5 24.5 0 0 1-5.448 9.7c-.398.438-.826.849-1.24 1.272-.014.015-.032.027-.055.047a24.9 24.9 0 0 0-6.723-4.398c1.075-2.015 1.945-4.102 2.56-6.29a26.7 26.7 0 0 0 1.008-6.716H88.54l.163-.003zm-49.406-1.702q.029-.342.05-.684a24 24 0 0 1 .594-4.076c.994-4.224 2.971-7.928 5.905-11.123.348-.38.723-.738 1.087-1.107.025-.026.054-.048.088-.078a24.8 24.8 0 0 0 6.657 4.37 4 4 0 0 1-.082.167c-1.135 2.194-2.03 4.481-2.624 6.881a24.5 24.5 0 0 0-.64 3.613c-.07.743-.107 1.489-.15 2.234-.007.115-.038.144-.15.144q-2.94-.004-5.88-.003l-4.693.002c-.054 0-.107.007-.162.01zm49.406.35c-.06-.004-.117-.01-.174-.01q-5.261-.003-10.524-.002c-.182 0-.18 0-.185-.179-.059-2.474-.473-4.888-1.19-7.253a32 32 0 0 0-2.226-5.437l-.082-.166a25 25 0 0 0 6.695-4.405c.224.242.441.484.666.718 2.803 2.893 4.805 6.259 5.975 10.116.396 1.306.687 2.636.842 3.992.08.703.12 1.412.18 2.117q.01.08.023.16zM63.445 52.593v10.889H51.219c.102-4.495 1.353-8.662 3.431-12.62 1.405.552 2.839.972 4.312 1.264 1.477.29 2.966.44 4.483.467m1.108 10.889V52.595a26 26 0 0 0 4.474-.468c1.475-.29 2.91-.71 4.322-1.265 2.077 3.953 3.33 8.124 3.431 12.62zm-1.106 1.058v10.895h-.18a24.6 24.6 0 0 0-8.404 1.644c-.115.044-.165.034-.227-.08-1.167-2.206-2.088-4.507-2.68-6.936a24.4 24.4 0 0 1-.62-3.668c-.05-.585-.076-1.172-.113-1.759v-.096z" fill="#1e2973"/><path d="M73.29 77.133a24.9 24.9 0 0 0-8.733-1.704v-10.89h12.222c-.108 4.491-1.375 8.651-3.49 12.594Zm-25.459 5.553a24.8 24.8 0 0 1 6.465-4.148c2.17 3.751 4.912 7.043 7.978 10.084-5.46-.4-10.263-2.386-14.443-5.936m25.872-4.148a24.8 24.8 0 0 1 6.465 4.148c-4.178 3.55-8.98 5.536-14.443 5.937 3.065-3.041 5.808-6.332 7.978-10.085m-11.386-39.16c-3.218 2.966-5.925 6.293-8.09 10.074a24.8 24.8 0 0 1-6.396-4.118c4.18-3.551 8.989-5.538 14.486-5.956m3.399.017c5.462.4 10.269 2.386 14.453 5.94a24.8 24.8 0 0 1-6.397 4.118 40 40 0 0 0-3.642-5.333 44 44 0 0 0-4.414-4.725m-2.27 12.167A24.9 24.9 0 0 1 55.2 49.86c2.203-3.807 4.959-7.144 8.247-10.085v11.788Zm9.346-1.718c-1.224.743-6.533 1.843-8.234 1.708V39.777c3.282 2.937 6.036 6.272 8.234 10.067m-9.348 38.428c-1.973-1.905-3.799-3.903-5.443-6.065a40 40 0 0 1-2.728-4.074 24.8 24.8 0 0 1 8.17-1.675zm1.109.004V76.46c2.821.095 5.537.651 8.176 1.673-2.214 3.79-5.018 7.087-8.175 10.143Z" fill="#1e2973"/><path d="M45.422 49.592s5.994 3.86 7.992 4.113l.956.754s-1.042 4.7.262 7.386c-.002 0-8.862-5.203-9.21-12.253" fill="#fff"/><path d="M53.067 47.66s1.912-1.174 2.432-1.929c0 0 3.477-2.098 5.56 4.28 0 0 .87 2.35.87 3.778l.173.335.349.084s5.387-7.05 5.907-7.218c.522-.167 1.043-.42 1.303-.42s10.774-1.51 11.034-1.26c.262.254 1.217 1.343 1.217 1.343s-4.952 3.61-8.08 3.61c0 0-3.735 5.54-4.17 5.54 0 0-.608.839-.26.923 0 0 1.91.167 15.204-1.764l.173-.167s-.695 4.532-.782 6.212c-.087 1.678-.347.503-.347.503s-5.127-2.939-5.56-3.106c0 0-.957-.252-1.65.336l-4.345 3.945s-4.519 3.357-7.298 3.44c0 0-4.953.757-7.56-2.014 0 0-3.91-3.02-1.65-10.322 0 0 1.042-4.7-2.694-5.875z" fill="#fff"/><path d="M57.064 47.703a.64.64 0 0 0-.651-.629.64.64 0 0 0-.652.63c0 .346.291.629.652.629a.64.64 0 0 0 .651-.63m19.306.425s1.29-.997 2.496-.83c0 0-.86.582-2.496.83" fill="#1d2a75"/><path d="M66.528 76.42v1.287h-5.134V76.42H47.438v-2.435h6.576s6.27-3.543 9.87-.844c0 0 2.194-2.793 10.103.844h6.578v2.435" fill="#fff"/><path d="M81.526 77.457H67.41v.878h-6.818v-.878H46.474v.82H59.47v.565l-.403.61h9.707l-.401-.61v-.564h13.154" fill="#fff"/><path d="M38.715 42.414a1.44 1.44 0 0 0-1.444-1.436 1.44 1.44 0 0 0-1.444 1.436 1.44 1.44 0 0 0 1.444 1.436 1.44 1.44 0 0 0 1.444-1.436m54.994 0a1.44 1.44 0 0 0-1.445-1.436 1.44 1.44 0 0 0-1.444 1.436 1.44 1.44 0 0 0 1.445 1.436 1.44 1.44 0 0 0 1.444-1.436" fill="#e60012"/></svg>