<svg xmlns="http://www.w3.org/2000/svg" viewBox="0 0 128 42.9"><defs><style>.cls-3,.cls-4,.cls-5{fill-rule:evenodd}.cls-3{fill:#231916}.cls-4{fill:#fefefe}.cls-5{fill:#007147}</style><mask id="mask" x="14" y="5.8" width="31.4" height="31.4" maskUnits="userSpaceOnUse"><path d="M14 5.8h31.4v31.4H14z" style="fill:#fff" id="a"/></mask></defs><g id="_图层_1" data-name="图层_1"><path class="cls-3" d="M105.6 17.8s-.2.1-.3.2h-.6c-.2-.6 0-1.1-.1-1.7v-.4c0-.1 0-.3-.1-.4v-.8h.3c.1 0 .2.2.2.2.1.2.2.4.3.7 0 .1 0 .3.2.4.2.3.5.4.6.7v.7c0 .1 0 .2-.1.4v.2Z"/><path class="cls-3" d="M109 13.6c0 .5 0 .6-.1.8-.2.3-.6.5-.7 1 .3.2.3-.2.5-.2 0 .2 0 .4.1.6.3 0 .4-.4.6-.5.1 0 .1-.1.2-.2.1-.2.3-.3.3-.5 0-.5-.2-1-.3-1.4h-.7v.5Zm2.9-1.7c-.2 0-.7.3-1 .4h-.2c-.2 0-.6.3-.6.5.1.2.3.4.5.7.2.2.5.6.5.8 0 0-.1.3-.2.4-.1.3-.3.5-.5.5-.2.6-1 .6-1.1 1.3.2.2.2.4.2.8h.2c.3-.5.8-1 1-1.4.3-.3.4-.7.7-1 0-.3.3-.6.4-.9 0-.1.1-.2.1-.3V12h-.2Zm-3-1.6c.1 0 0-.1 0-.2v-.7c-.1-.2 0-.4 0-.6.3 0 .5 0 .7.1.2.2.4.4.7.6l.3.3s.1 0 .2.1v.5c-.2.3-.5.5-.7.8v.2c0 .1-.2.2-.3.3-.3.3-.5.7-.6 1h.2c.9-.6 1.9-1.4 3.1-1.6h.8c.1 0 .3 0 .4.1.3.1.1.5 0 .7 0 .3-.2.6-.3.9l-.9 1.5c-.2.2-.3.5-.5.7-.3.5-.8 1.4-.8 2.1.7-.3 1.7-.8 2.6-.8h.4c.1 0 .1.2.2.3v.4c0 .2-.2.5-.4.7-.3.4-.8.7-1.2.9-.2 0-.3.2-.5.2 0 0-.2 0-.2.1h-.2c-.1 0-.2 0-.3.1h-.3c-.1 0-.2 0-.4.1h-.4c-.3 1.1-1.3 1.7-2.1 2.6 0-.2.1-.5.2-.7v-.2c0-.1-.9.1-1.2.1-.1 0-.3-.1-.4-.1v-.3c0-.2.3-.2.4-.2.2 0 .4-.1.6-.2.4-.1.8-.3 1.1-.6.2-.2.3-.3.5-.6h.3c.3 0 .6-.2.9-.3.5-.2.9-.5 1.3-.8 0 0 .2-.1.3-.2.2-.2-.3-.2-.4-.2-.2 0-.5.2-.7.2s-.3 0-.5.2c0 0-.2 0-.3.1-.2.1-.5.2-.9.4 0 0-.2 0-.2.1h-.5s-.2.1-.2.2c-.2 0-.4 0-.5.2 0 0-.1 0-.2.1h-.5c-.2 0-.5.1-.7.2h-.3c-.2 0 0-.3.1-.3 0-.1.2-.2.3-.3 0 0 .2 0 .3-.1.1 0 .2-.1.3-.2h.4c.3 0 .5-.1.8-.3.5-.3.6-.9.5-1.3 0 0 0-.2-.2-.2v.2c-.1.1-.6.2-.7 0 0 0-.3-.4-.3-.5-.4-.2-.8.9-1 1.3-.2.3-.4.8-.8 1h-.2c-.2 0 0-.3 0-.4 0 0 0-.2.2-.3 0-.1.2-.2.3-.3 0 0 .1-.2.1-.3 0 0 0-.2.1-.3.2-.3.4-.6.5-1 .1-.3.6-1.1-.1-1.1 0 0 0 .4-.4.3-.5-.6-.6-1.8-.7-2.7V12c0-.1 0-.2-.1-.3 0 0-.1-.1-.1-.2v-.2s-.2-.3-.1-.4h.5s.2.1.2.2c.2.2.3.5.4.8.3.5.5 1.1.6 1.6 0 .3.1.7.2 1 0 0 .1 0 .1.1.2-.2.6-.5.7-.8 0-.4-.5-.9-.3-1.4.8-.6 1.3-1.6 1.4-2.6ZM62.4 23.9c-.3.6-.2.9-.5 1.6.5.3.8-.6 1.1-.7v-.1c-.2-.2-.3-.5-.7-.7Zm1.3-.8v.6c.3 0 .5-.3.5-.5-.1-.2-.3 0-.6 0Zm-2.2-9.2v2.2c0 .4 0 .8-.1 1.2v1.6c0 .5-.1.9 0 1.4 0 .1 0 .3.2.4.2 0 .4 0 .6-.2.2-.1.3-.3.4-.5.2-.3.5-.8.8-1 .1 0 .7-.3.8-.2.2.1.2.3.2.5s-.2.2-.3.4c0 .1-.1.2-.2.3-.3.4-.5.9-.7 1.3 0 .3-.2.5-.3.8 0 .2 0 .5-.2.7.4 0 .9-.4 1.3-.6.2-.1.4-.2.7-.3.4-.1.8-.4 1 .2 0 .1 0 .3.1.4 0 0-.3.4-.4.5-.1.2-.3.3-.4.5s-.4.3-.5.6c0 .3.3.4.5.5.4.3.9.4 1.2.9.2.3.3.7 0 1 0 0-.6.4-.7.2 0-.2-.1-.3-.2-.5s-.4-.4-.6-.6-.9-.5-1.1-.2c-.2.2-.8.8-1 1.1-.1 0-.4.4-.5.5-.3.3-.6.6-.7 1-.2.2-.2.5-.5.7-.4 0-.5-.5-.7-.8v-1.1c.1-1.1.8-2.3 1.2-3.3 0-.1 0-.3-.1-.4-.2 0-.2.1-.3.2-.5.6-.9 1.2-1.4 1.7-.1.2-.4.5-.6.7-.5.8-1.3 1.4-2.1 2.1-.5.4-1 .7-1.8.7 0 0 0-.2-.1-.2V28c0-.3 0-.7.1-1.1.3-.7 1.2-1.1 1.7-1.5.7-.6 1.4-1.1 2-1.7.3-.3.6-.6.8-1l.3-.6c.2-.4.3-1.1.3-1.5V19c0-.2 0-1 .1-1.3v-3.2c0-.3-.2-.5-.2-.9v-.9c0-.1-.2-.5-.3-.6 0-.2-.2-.5-.3-.7 0-.3-.2-.6-.4-.9-.1-.2-.2-.3-.2-.6 0-.2 0-.5.3-.5.5 0 1 .5 1.2 1 0 .2.2.4.3.5l.1.1c0 .2 0 .6.1.8.2.5.2 1 .2 1.5v1Zm1.7-2.3c-.1 0-.2-.2-.3-.3l-.3-.3s-.2-.2-.2-.3c0 0-.1-.5 0-.5 1 0 1.9.5 2.5 1.3 0 .1.3.4.2.6-.1.3-.8.4-1.1.4V12c0-.1-.2-.3-.4-.3h-.3Zm16.9 2.1c.6-.2.9-.5 1.6-.6 0 .3.3.4.4.6 0 .2.1.4.1.6s-.2.3-.3.5-.3.3-.4.5c-.3.3-.6.7-1 1 0 0-.2.2-.3.2-.2.1-.3.3-.5 0-.1-.1-.2-.3-.2-.5.1-.2.3 0 .5-.2.1 0 .2-.4.3-.6l.4-.8v-.5c-.5 0-.8.4-1 .5-.2 1-.8 2-1 2.8 0 .1-.2.7-.2 1 0 0 .5-.1.5-.2.3 0 .6-.3.9-.4.5-.2 1-.4 1.5-.5.3-.1.7-.2 1-.3.3 0 .6-.1.8-.2.3 0 .5.2.4.6 0 .1-.1.1-.2.2 0 .1 0 .2-.1.3-.5.2-1.2.3-1.6.4-.3 0-.7.1-1 .2-.4 0-.8.2-1.2.3-.3 0-.5.1-.8.3-.2.1-.4.3-.7.4-.2.9-.6 1.4-.5 2.5 0 .1.2.1.4 0 .2 0 .2 0 .2-.2s.2-.3.2-.5 0-.4.1-.6c.1-.3.2-.8.3-1.1.6-.1 1.1.3 1.2.7 0 0-.3.3-.3.4s-.1.3-.2.4c0 0-.3 1-.3 1.1.3.1.5.2.8.3.2 0 .5.1.6.3 0 .2 0 .6-.2.8-.8 0-1.1-.2-1.8-.1-.3.8-1.1 1.6-1.7 2.3-.2.2-.4.3-.6.5-.5.7-1.4 1.3-2.2 1.5-.4.1-.9.2-1.3.2h-.5c-.4-.3-.7-.9-.3-1.3.8 0 1.6.1 2.2-.1.2 0 .4-.3.6-.5 1.1-.8 2.2-1.9 2.7-3.1-.2 0-.3-.2-.5-.2s-.3-.3-.4-.5-.2-.5-.2-.7c0-.5.6-1.1.5-1.7-.4 0-.7.3-1 .5-.7.3-1.3.7-1.9 1.1-.2.1-.5.2-.7.3 0 0-.4.2-.5.2-.2.1-.2.4-.5.4-.7.1-1.1-.7-1.1-1.2 2.3-.6 4.2-1.6 6.3-2.4.2-.6.3-1.1.4-1.7 0-.2.2-.6.2-.8s.2-.5 0-.7h-.3s-.2.2-.2.3c0 0-.2.2-.2.3-.1.2-.3.4-.4.6s-.3.4-.4.6c0 .1-.1.3-.2.4h-.5c-.1-.2-.2-.6-.2-1v-.3c0-.6.2-1.4.2-2.1-.1 0 0-.3 0-.5 0-.1.3 0 .3 0 .1.1.2.3.3.5 0 .2.1.4.2.5v.6c1-.1 1.3-.9 1.9-1.4 0-.7.4-1.9.3-2.7-.2-.2-.3-.2-.3-.4.3-.1.7 0 1.1 0 .2 0 .3 0 .5.1 0 0 .2 0 .2.1v.3c.2.5-.3 1.2-.3 1.9Zm13.6 4.9c-.4.7-.5 1.5-.7 2.1v.5c1.3 1 2.9 2 4.8 1.5v.3c0 .1-.1.2-.2.3 0 .1-.1.2-.2.3-.2.3-.6.4-.8.7-.2.2-.6.2-.8.2-.6-.2-1-.6-1.5-1.1-.1-.1-1.4-1.8-1.6-1.7-.1 0 0 0-.1.2 0 .2-.2.4-.3.6-.1.3-.2.6-.4.9-.1.2-.3.5-.5.7-.1.2-.2.5-.4.7-.4.5-.7 1.1-1.1 1.6l-.6.6s-.1 0-.1.1l-.3.2c-.1 0-.2.2-.3.2-.3.2-.6.3-1 .4 0 0 0-.2-.1-.2.5-.7 1.3-1.4 1.7-2.2.7-.8 1.3-1.8 1.8-2.8.3-.6.5-1.3.7-1.9 0-.2.1-.4.2-.6v-.3s0-.1-.1-.1h-.9c-.2 0-.5-.2-.7-.3 0 0-.2 0-.3-.2V19c0-.1.3 0 .3-.1.2 0 .4 0 .5-.1.4 0 .7-.2 1.1-.4.2 0 .3-.2.5-.4.4-.3.6-.8.7-1.2.1-.5 0-.9 0-1.4 0-.7.2-1.4.2-2.1.4-.4.8-.3 1.1.1.3.5 0 .9 0 1.5 0 .3-.1.6-.2.9v.3c0 .1 0 .2-.1.3v.7c.4-.2.8-.5 1.3-.5.2.1.5.3.4.5 0 .2-.2.5-.3.7-.3.3-1 .6-1.5.7Z"/><path class="cls-3" d="M63.7 14.9v.3c0 .2.2.4.2.5s.5.8.3.9c0 0-.2.2-.3.2s-.2.1-.4.2h-.2l-.3-.3s0-.1-.1-.2h-.1l-.1-.1v-.2l-.1-.1v-.3s0-.2.1-.3c.1-.2.3-.4.4-.6 0 0 0-.1.1-.2v-.4c0-.2-.1-.4 0-.6v-.5c.9 0 2.3.5 1.5 1.3 0 0 0 .1-.1.2h-.7s-.1 0-.2.1ZM105.3 26c.8.1 1.7.6 2.6.4V23s-.5.2-.6.2c-.2 0-.4.2-.6.3-.4.2-.8.3-1.3.3h-.4s-.2 0-.2-.1v-.5c.2 0 .3 0 .5-.1h.8c.1 0 .3 0 .4-.1.2 0 .5 0 .7-.1.1 0 .3-.2.4-.3.4-.2.8-.4 1.3-.6.6-.3 1.4-.5 2-.6.2.1.5 0 .6.3 0 .2-.1.4-.1.5-.9.7-1.9.6-2.9.9.1.7.3 1.3.4 1.9 0 .5.2.9.1 1.3 0 .2 0 .4-.1.6 0 .1 0 .3-.1.4 0 .1-.1.2-.2.3v.3c0 .1-.2.3-.2.4v.2s-.2.1-.3 0c-.2 0-.4-.2-.6-.3s-.4-.3-.6-.4l-1.2-.9-.4-.4s0-.1-.1-.1Zm-.7-7.2v1.3l-.2.2c0 .1-.1.3-.2.4 0 .2-.1.4-.2.7v.2h.2l.2-.3c0-.1.1-.2.2-.3 0-.1.1-.2.2-.3 0 0 0-.2.1-.2h.2v.7c-.1.4-.4 1-.7 1.4-.2.2-.6.7-1 .8-.2 0-.4-.2-.6-.5-.2-.4-.1-1 0-1.4.2-.4.4-.6.5-1 0 0 0-.1.1-.1 0-.3.5-.8.6-1.2l.1-.1v-.2s0-.1.1-.2h.2ZM57.9 30.9V32c0-.3-.2-.6-.4-.7s-.4-.2-.7-.2c-.2 0-.4 0-.6.2-.2.1-.3.3-.4.5 0 .2-.1.5-.1.9s0 .5.1.8c0 .2.2.4.4.5s.4.2.6.2.4 0 .6-.1c.2 0 .3-.3.5-.5-.2.3-.3.5-.6.7-.2.1-.5.2-.8.2q-.75 0-1.2-.6c-.2-.3-.3-.7-.3-1s0-.6.2-.9q.15-.45.6-.6c.3-.1.5-.2.8-.2s.5 0 .7.2h.2v-.2Zm1.4 1.6h1.5v-1.3h-.3 1.4-.3l-.1.1v2.8h.3-1.4.1c.1 0 .2 0 .3-.1v-1.4h-1.5V34h.3-1.4.1c.1 0 .2 0 .3-.1V31h-.3 1.4-.3l-.1.1v1.2Zm4.6.5-.5-1.3-.6 1.3zm.1.1h-1.3l-.2.5v.4h.3-1c.1-.1.2-.1.3-.2 0 0 .2-.2.3-.5l1.1-2.7 1.1 2.7c0 .2.2.4.2.4s.2.1.3.1h-1.3c.1 0 .2-.1.3-.2v-.4l-.2-.5Zm1.2-2.1h.9l2 2.4v-2.3h-.4 1.1-.1c-.1 0-.2 0-.3.1v3l-2.1-2.6V34h.4-1.1.1c.1 0 .2 0 .3-.1v-2.5s-.1-.2-.2-.2h-.4Zm6.6-.1v1c0-.3-.2-.4-.3-.6-.2-.2-.4-.3-.7-.3s-.7.2-.9.5-.3.6-.3 1 0 .6.2.8c.1.3.3.4.5.6.2.1.4.2.6.2s.5 0 .7-.2v-1.2l-.1-.1h-.3 1.2c-.1 0-.2 0-.3.1V34c-.2 0-.4.2-.5.2H71c-.6 0-1.1-.2-1.4-.6-.2-.3-.4-.7-.4-1s0-.6.2-.8c.1-.3.4-.5.7-.7.2-.1.5-.2.8-.2h.3s.2 0 .4.1h.2c.1 0 0 0 0 0v-.2Zm1.6.5c0-.2 0-.4.1-.6 0-.2 0-.3.1-.3h.2v.3c0 .2-.1.4-.2.6 0 .2-.2.4-.4.8 0-.3.2-.6.2-.8m4.2 1.6-.5-1.3-.6 1.3zm0 .1h-1.3l-.2.5v.4h.3-1c.1-.1.2-.1.3-.2 0 0 .2-.2.3-.5l1.1-2.7 1.1 2.7c0 .2.2.4.2.4s.2.1.3.1h-1.3c.1 0 .2-.1.3-.2v-.4l-.2-.5Zm1.2-2.1h.9l2 2.4v-2.3h-.4 1.1-.1c-.1 0-.2 0-.3.1v3l-2.1-2.6V34h.4-1.1.1c.1 0 .2 0 .3-.1v-2.5s-.1-.2-.2-.2H79Zm8.4.1h1.1-.1c-.1 0-.2 0-.3.2v2.4c0 .2-.2.4-.4.5s-.4.2-.8.2-.6 0-.8-.2c-.2-.1-.3-.3-.4-.5v-2.5c0-.1-.1 0-.3 0h-.1 1.4-.1c-.1 0-.2 0-.3.1v2.2c0 .1 0 .3.1.4 0 0 .2.2.3.2h.4c.2 0 .4 0 .6-.1.2 0 .3-.2.3-.4v-2.4s-.2-.1-.3-.1h-.1Zm1.1-.1h.9l2 2.4v-2.3h-.4 1.1-.1c-.1 0-.2 0-.3.1v3l-2.1-2.6V34h.4-1.1.1c.1 0 .2 0 .3-.1v-2.5s-.1-.2-.2-.2h-.4Zm5.1 3.1H92h.1c.1 0 .2 0 .3-.1v-2.9h-.3 1.4-.1c-.1 0-.2 0-.3.1V34l.1.1zh.1ZM97 31s-.2.1-.3.2c0 .1-.2.2-.2.4l-1.1 2.7-1.2-2.8s0-.2-.1-.3l-.1-.1h-.2 1.3c-.1.1-.2.1-.3.2v.1s0 .2.1.4l.8 1.9.8-1.9c0-.2.1-.3.1-.4v-.1h-.2 1Zm1 .2v1.3h1.1s.1-.2.1-.4v1.1-.3s0-.1-.1-.1h-1v1.4h1.1s.2 0 .2-.2c0 0 .2-.2.3-.4l-.3.8h-2.5.3l.1-.1v-2.8h-.4 2.5v.7c0-.2 0-.3-.1-.4 0 0-.1-.1-.2-.1h-1.2Zm3 1.3h.1c.3 0 .5 0 .7-.2.2-.1.2-.3.2-.5s0-.4-.2-.5c-.1-.1-.3-.2-.5-.2h-.4v1.3Zm2.3 1.7h-.9l-1.1-1.5h-.3V34s.1.1.3.1h.1-1.4.1c.1 0 .2 0 .3-.1v-2.8s-.2-.1-.3-.1h-.1 2c.2 0 .3.1.4.3.1.1.2.3.2.5s0 .4-.2.5-.3.2-.6.3l.7.9c.2.2.3.4.4.4s.3.1.4.1Zm2.2-3.3V32c0-.2 0-.4-.2-.5 0-.1-.2-.2-.3-.3-.1 0-.3-.1-.4-.1-.2 0-.3 0-.4.2-.1 0-.2.2-.2.3 0 0 0 .2.1.3 0 .1.3.3.7.5.3.2.5.3.6.4.1 0 .2.2.3.3.2.3 0 .7-.2 1-.2.2-.4.3-.7.3h-.9v.2-1.1c0 .2 0 .4.2.5 0 .1.2.2.3.3.1 0 .3.1.5.1s.4 0 .5-.2c.2-.2.2-.4.1-.6 0 0-.1-.2-.2-.2-.2-.1-.3-.2-.5-.3s-.4-.2-.6-.4c-.1 0-.2-.2-.3-.3-.2-.3 0-.7.2-1 .2-.2.4-.3.7-.2.2 0 .4 0 .5.1h.2v-.1Zm2 3.2h-1.4.1c.1 0 .2 0 .3-.1v-2.9h-.3 1.4-.1c-.1 0-.2 0-.3.1v2.9zm2.9-3.1v.8-.3s-.1-.2-.2-.2h-.8v2.9h.4-1.4.1c.1 0 .2 0 .3-.1v-2.8h-.7s-.2 0-.2.2c0 .1-.1.2-.1.3V31h2.7Zm2.5 0h1.1-.2s-.2 0-.2.2c0 0-.1.2-.2.3l-.8 1.2v1.2h.4-1.4.1c.1 0 .2 0 .3-.1v-1.1l-.9-1.3c0-.1-.1-.2-.2-.3 0 0-.1-.1-.2-.1h-.1 1.4-.2v.2s0 .2.1.3l.7 1 .6-1c0-.2.1-.3.1-.3s0-.2-.1-.2h-.2Z"/><path class="cls-5" d="M14 21.5c0 8.7 7 15.7 15.7 15.7s15.7-7 15.7-15.7-7-15.7-15.7-15.7S14 12.8 14 21.5" style="mask:url(#mask)"/><path d="M44.9 21.5c0 8.4-6.8 15.2-15.2 15.2s-15.2-6.8-15.2-15.2S21.3 6.3 29.7 6.3s15.2 6.8 15.2 15.2" style="fill:#6eb92c;fill-rule:evenodd"/><path class="cls-4" d="M15.7 20.3h.7c-.2 0-.4.1-.5.3 0 .1-.2.3-.1.4 0 .1 0 .3.1.4 0 .1.2.2.3.3.2 0 .3.1.6.1h.5q.15 0 .3-.3c0-.1.1-.3.1-.4v-.4c0-.1-.2-.2-.3-.4.2 0 .3.2.4.3 0 .2.1.3.1.5 0 .3-.1.6-.4.8-.2.1-.4.2-.7.2-.2 0-.4 0-.6-.2-.2 0-.3-.2-.4-.4 0-.2-.1-.4-.1-.5 0-.2 0-.3.1-.4h-.1Zm1.1-1 .2-1h-.6c0-.1-.1-.1-.2-.1v.1l.2-.9v.1h.2l1.3.3h.2v-.1l-.2.9v-.2h-.8c0-.1-.2.8-.2.8h.6c0 .2.1.2.2.2v-.1l-.2.9V20h-.2l-1.3-.3h-.2v.1l.2-.9v.1h.2l.6.1Zm1.3-3h-.9l.6.7zm.1 0-.3.8.3.3.1.1.1-.2-.3.6v-.2s0-.2-.2-.3L16.6 16h2.2s.1 0 .1-.2-.3.8-.3.8v-.2h-.5Zm-.8-1.7.3-.5 2-.2-1-.7c-.1 0-.2-.1-.2-.1s-.1 0-.2.1l.4-.6v.2l.2.2 1.5 1-2.2.2 1.1.7c.1 0 .2.1.2.1s.1 0 .2-.1l-.4.6v-.2l-.2-.2-1.2-.8h-.3v.1Zm3-3.7.5.4h-.4c-.2 0-.3 0-.5.2s-.3.4-.2.7c0 .2.2.4.3.6.1.1.3.2.5.3h.5c.2 0 .4-.2.5-.4v-.2l-.4-.4s-.1 0-.2-.1h-.1s-.1 0-.1.1.6-.6.6-.6v.2s0 .1.1.2l.5.5c0 .1 0 .2-.1.3 0 .1-.1.2-.2.3-.3.3-.6.4-.9.4-.2 0-.5-.1-.6-.3-.1-.1-.2-.3-.3-.5V12c0-.2.1-.3.3-.5 0 0 .1 0 .2-.1 0 0 .1 0 .2-.1h.1Zm1.3-.7c0-.1 0-.3-.1-.4v-.2h.1l.1.2v.9c0-.1 0-.3-.1-.5m3.4-.5-.7-.6v.9zm.1 0-.8.3v.6h.2l-.6.3c0-.1.1-.1.1-.2V8.5l1.4 1.3c.1.1.2.2.3.2h.2l-.8.4s.1-.1.1-.2c0 0 0-.1-.1-.2l-.2-.2Zm.6-1.7h.6c0-.1 1.6 1.2 1.6 1.2L27.8 8v-.2h-.2l.7-.2s-.1 0-.2.1v.2l.4 1.7-1.7-1.4.3 1.3v.2h.2l-.7.2s.1 0 .2-.1v-.2l-.3-1.4s-.1 0-.2-.1h-.2Zm6.1-.3h.7-.2v1c-.1.2-.2.4-.2.5s-.2.2-.3.3h-.5c-.2 0-.4 0-.5-.2-.1 0-.2-.2-.2-.4V7.6q.15-.15 0-.3h-.2.9v.2h-.2v1.1c-.1 0-.1.2-.1.3v.3s0 .1.1.2h.7c.1 0 .2-.1.3-.2 0 0 0-.2.1-.5v-.8c.1-.1.1-.2.1-.3h-.2Zm1.2.1.5.2.7 1.9.4-1.2v-.2l-.2-.1.7.2H35l-.1.2-.6 1.7-.8-2.1-.4 1.2v.2l.2.1-.7-.2h.2l.1-.2.5-1.4v-.2l-.1-.1h-.1Zm2.4 3.2-.8-.4h.2l.1-.2.6-1.2V9h-.1l.8.4h-.2l-.1.2-.6 1.2v.2zm3.1-.4h-.2s-.2 0-.3.1l-1.6 1 .4-2v-.3l-.1-.1.7.4h-.2v.2l-.3 1.3 1.1-.7s.1 0 .2-.2v-.1l.5.4Zm.7.9-.6.6.3.3.2.1s.2 0 .2-.1-.5.6-.5.6 0-.2.1-.2v-.1s0-.1-.1-.2l-.3-.3-.5.5-.1.1.3.3s.2.1.2.2h.5l-.5.3-1.1-1.2h.2s.1 0 .2-.1l1-1 .1-.2v-.2l1.1 1.2-.3.3c0-.1 0-.2.1-.3v-.2s0-.1-.1-.2l-.4-.4Zm.8 2.2c.1.2.2.3.4.3h.4c.1 0 .2-.2.2-.3v-.3l-.2-.2-.7.5Zm0 1.8-.3-.5.4-1.2v-.1l-.5.3c-.1 0-.2.1-.2.2v.3l-.5-.7s.1.1.2.1c0 0 .1 0 .2-.1l1.1-.8c.1 0 .2-.1.2-.2v-.2l.4.6c.1.2.2.3.2.4v.3c0 .1 0 .2-.2.3-.1 0-.2.1-.3 0-.1 0-.3 0-.4-.2l-.2.7v.7Zm2.5.4-.7.3.3-.3v-.6s-.1-.2-.2-.2h-.2s-.1 0-.1.1v1s0 .2-.1.2c-.2.2-.4.3-.6.2-.2 0-.3-.2-.4-.4v-.6l.7-.4-.3.3v.6c0 .1.1.2.2.2h.3l.1-.1v-1.1s0-.2.1-.2c.1-.2.4-.3.6-.2.2 0 .3.2.3.3v.5h.1Zm-1.5 2.2-.3-.8s0 .1.1.2h.2l1.3-.4h.2v-.2l.3.9s0-.1-.1-.2h-.2l-1.3.4h-.2zm2.5 1.4h-.5c0 .1 0 0 0 0h.2l.1-.2v-.5l-1.6.3h-.2v.2l-.2-.9s0 .1.1.2h.2l1.6-.3v-.2s0-.1-.1-.2l-.1-.1h-.2l.5-.1.3 1.7Zm.1 2v.7-.2s0-.1-.1-.1l-.2-.2-.8-.5h-.7v.2-.9.3h.7l.9-.6c.1 0 .2-.1.2-.1v-.2.9-.2h-.3l-.7.5.7.4zv-.1Z"/><path class="cls-5" d="M31.2 29.9v.5h1v-.5c0-.3-.2-.5-.5-.5s-.5.2-.5.5m-3 0c0-.3-.2-.5-.5-.5s-.5.2-.5.5v.5h1zm2.2-.2c0-.4-.3-.7-.7-.7s-.7.3-.7.7v.7h1.5v-.7Zm6.7-3.4.3-.4-.4-.3-.3.4zm1.7-2.7.2-.4-.5-.2-.2.4zm.5-2.8v-.4H39v.4zm-.2-3.2h-.3v.3h.3zM37.9 15h-.2l.1.3h.2zM22.7 26l-.3-.4-.4.3.3.4zM21 23.4V23c-.1 0-.6.2-.6.2l.2.4.5-.2Zm-.6-2.6v-.4h-.3v.4zm-.2-2.9h.3v-.2h-.3zm1.1-2.7h.2l.1-.1h-.2zM40.2 21c0 5.9-4.7 10.6-10.5 10.6S19.2 26.8 19.2 21s4-10 9.6-10.3h-.1c-.7.1-1.4.3-2 .6-.4.1-.7.3-1 .5s-.6.4-1 .6c-.7.4-1.3 1-1.8 1.6h-.2l-.3.4h.2c-.4.7-.8 1.3-1 1.9h-.2c0-.1-.2.3-.2.3 0 .2-.2.5-.2.5h.2q-.3.9-.3 1.8h-.3V20h.3c0 .5 0 1 .1 1.5h-.3s0 .5.1.6v.3h.3c.2.6.4 1.2.7 1.7l-.3.2c.1.3.3.5.5.8l.3-.2c.4.5.8 1 1.2 1.4l-.2.2.8.7.2-.3s1.3.7 2.1.7l.2-.3h.8v-.4h-.9c.5-.2.7-1.1.7-1.1l.2.2h4.7l.2-.2s.2.9.7 1.1h-.9v.3h.8l.2.4c.9 0 2.1-.7 2.1-.7l.2.3.8-.7-.2-.2c.5-.4.9-.9 1.2-1.4l.3.2s.2-.3.2-.4l.2-.4-.3-.2c.3-.6.6-1.2.7-1.8h.3V22c0-.1.1-.5.1-.5h-.3c0-.6.1-1.1.1-1.6s.3 0 .3 0v-1h-.3c0-.6-.2-1.1-.3-1.7h.2s-.1-.4-.2-.6l-.2-.5h-.2c-.3-.5-.6-1.1-1-1.7h.2c0-.1-.3-.5-.3-.5h-.2c0 .1 0 0 0 0-.5-.7-1.1-1.2-1.8-1.6-.3-.2-.6-.4-1-.6-.3-.2-.7-.3-1-.5-.4-.1-.8-.3-1.2-.4-.3 0-.5-.1-.8-.2h-.1c5.5.3 9.6 4.6 9.6 10.3Z"/><path class="cls-4" d="M29.2 16.5h1v-5.1h-1z"/><path class="cls-4" d="M29.9 12.9h1.6v-.8h-1.6zm0 1.5h1.8v-.8h-1.8zm0 1.4H32V15h-2.1zm-3.8 2.8c-.9 1.3-1.4 3.1-1.4 5 0 .2.2.4.4.4s.4-.2.4-.4c0-3.5 1.9-6.4 4.2-6.4s4.2 2.9 4.2 6.4c0 .2.2.4.4.5.2 0 .4-.2.5-.4 0-1.9-.5-3.7-1.4-5-1-1.4-2.2-2.2-3.6-2.2s-2.7.8-3.6 2.2Z"/><path class="cls-4" d="M28.4 17.1v1c0 .2 0 .5.2.6.1.1.4.3.7.3h1.5c.2 0 .4-.2.4-.5 0-.2-.2-.4-.4-.4h-1.5c-.2 0-.2-.1-.2-.2V17c0-.2-.2-.4-.4-.4s-.4.2-.4.4Z"/><path class="cls-4" d="M30.1 17.1v1.4c0 .2.2.4.4.4s.4-.2.4-.4v-1.4c0-.2-.2-.4-.4-.4s-.4.2-.4.4m-.8 1.7v2.5c0 .2.2.4.4.4s.4-.2.4-.4v-2.5c0-.2-.2-.4-.5-.4-.2 0-.4.2-.4.4Z"/><path class="cls-4" d="M26.5 21.4c0 .2 0 .5.3.5.2 0 .4 0 .5-.2.3-.7 1.3-1.2 2.4-1.2s2.1.5 2.4 1.2c0 .2.3.3.5.2.2 0 .3-.3.2-.5-.5-1-1.8-1.7-3.2-1.7s-2.7.7-3.2 1.7Z"/><path class="cls-4" d="M27.3 23.4c0 .2.2.4.4.4s.4-.2.4-.4c0-.8.7-1.5 1.5-1.5s1.5.7 1.5 1.5c0 .2.2.4.4.4s.4-.2.4-.4c0-1.3-1.1-2.4-2.4-2.4s-2.4 1.1-2.4 2.4Zm3.1-12.2c0 .2-.3.4-.7.4s-.7-.2-.7-.4.3-.4.7-.4.7.2.7.4m1.2 1.9c-.2 0-.4-.3-.4-.6s.2-.6.4-.6.4.3.4.6-.2.6-.4.6m.3 1.4c-.2 0-.4-.3-.4-.6s.2-.6.4-.6.4.3.4.6-.2.6-.4.6m.3 1.5c-.2 0-.4-.3-.4-.6s.2-.6.4-.6.4.3.4.6-.2.6-.4.6m-4.6 16.7h.4v.3h-.2c-.1 0-.2.1-.4.2h-.1v-.1h.1l.1-.1s.1-.1.1-.2h-.3c-.1.2-.3.4-.4.6 0 0 0 .2-.1.2h1.1s.1 0 0 .2h-1.3c0 .2-.2.3-.3.5v-.1s0-.2.1-.2.2.1.2.2l-.1.2s.1 0 .2.1c0 0 .1 0 .1.1v.2c-.2 0-.2-.1-.4-.1-.1.2-.4.3-.5.4h-.2c-.2.1-.4.2-.6.2h-.4s-.1-.2 0-.3c.2 0 .4.1.5.1h.2c.3-.1.6-.3.8-.5v-.3c0-.1.2-.2.2-.3h-.3c-.2 0-.3 0-.5.1h-.4c-.2 0-.2-.2-.2-.3.6 0 1 0 1.6-.2 0-.1.1-.2.2-.3 0 0 0-.1.1-.2V33l-.2.2h-.1v.2-.2c0-.1.1-.3.2-.5v-.1.4c.2 0 .4-.1.5-.2 0-.2.2-.4.2-.6v-.1h.3c0 .1-.1.2-.2.4Zm5 .8c0 .2-.1.4-.1.5v.1c.3.2.7.4 1.2.3l-.2.2h-.2c-.2 0-.3-.1-.4-.2l-.4-.4v.7c0 .1-.1.3-.2.4l-.1.1s-.1 0-.2.1c.1-.2.3-.4.4-.6.2-.2.3-.5.4-.7 0-.2.1-.3.1-.5v-.2h-.3.1s.2 0 .2-.1c.1 0 .2-.2.3-.4V32c0-.1.2 0 .3 0v.7s.2-.1.3-.1c0 0 .1 0 0 .1v.2s-.2.2-.3.2Zm-11.4-1c-.1 0-.1.1-.3.2 0 .1.2 0 .3 0zm.3 0v.1h.2Zm.8-1.8v.1s0 .1-.1.2v.1l-.2.2s0 .1-.1.2c0 .2-.1.3-.2.3h.7v.1c-.1 0-.2 0-.3.1H22l-.1.1h.5s.2 0 .1.2h-.4v.1s.1.2 0 .3c0 0 0 .2-.1.2h-.1v-.3s0-.2-.2-.2h-1v-.2s0-.1.1-.2c.2-.2.4-.3.6-.4-.2 0-.3 0-.5.1h-.8c-.1 0-.3 0-.4-.1 0 0 0-.1.2-.2h1.5l.2-.2.1-.1V31s.1-.2.2-.2v-.1c0-.1 0-.2.1-.2v-.3s0-.1.1-.2v-.6h.1s.1.2 0 .3v.3c0 .1 0 .2-.2.3 0 0 0 .1-.1.2Zm.6-.2c.2.1.3.3.3.5v.1H23V31Zm-.3.6v.3h.1v-.1c.2.1.3.4 0 .4Zm14.4.6c-.1 0-.2-.2-.2-.3h.3v.2Zm0-1.2v.5-.1h.1v-.3s-.2-.1-.3-.2h-.1Zm.3-.7s0 .2-.1.2v.2h.4v.6l.1.1v-1Zm-.7.2-.1-.1h.3v.4c0-.2.1-.5.3-.7l.1-.1.1.1v.8c0 .1 0 .3.1.5 0-.2.2-.4.3-.5v.7c.1.2 0 .5 0 .7v-.1l-.2.2v-.6c0-.2.1-.3.2-.4v.5-.4s0 .1-.1.1h-.1v.6-.2s0-.3-.2-.2v.1c-.2 0-.3-.2-.5-.4h.2c.1 0 .2.1.3.2 0 0 .1 0 .2.1v-.2s-.2 0-.3-.2c0-.2 0-.4-.1-.6Zm1.5 3.1c.1 0 .4-.1.5-.3v-.2s0-.1-.1-.2c0 0 0-.1-.2-.2v.2s0 .2-.2.2l.1-.1v-.1s0-.2.1-.3c0-.1.2-.3.3-.4h.1v.1c0 .2-.2.4-.4.5.1 0 .2.2.3.3l.2.2v.1h-.7ZM37 32v.2zv.7h-.2l-.2-.2V32Z"/></g></svg>