<svg width="128" height="137" fill="none" xmlns="http://www.w3.org/2000/svg"><g filter="url(#a)" fill-rule="evenodd" clip-rule="evenodd" fill="#004b9d"><path d="M62.087 44a20 20 0 0 1 3.827-.003l.872-2.467.039.005c2.05.255 4.057.796 5.962 1.594l.036.015-.48 2.58a20 20 0 0 1 3.313 1.912l1.99-1.701.031.023a22.6 22.6 0 0 1 4.272 4.244l.034.044H80.2l.053-.062a21.5 21.5 0 0 0-2.437-2.437L75.85 49.43l-.032-.025a19 19 0 0 0-5.084-2.94l-.038-.015.474-2.547a21 21 0 0 0-3.329-.89l-.863 2.443-.04-.007a18.5 18.5 0 0 0-2.937-.229c-.983 0-1.966.073-2.937.23l-.04.006-.863-2.443a21 21 0 0 0-3.328.89l.473 2.547-.038.014a19 19 0 0 0-5.084 2.94l-.032.026-1.967-1.682a21.5 21.5 0 0 0-2.437 2.437l.053.062h-1.783l.034-.044a22.6 22.6 0 0 1 4.272-4.244l.031-.023 1.987 1.699a20 20 0 0 1 3.316-1.912l-.48-2.578.036-.015a22.7 22.7 0 0 1 5.963-1.594l.038-.005.873 2.47Z"/><path d="M64 46.532c4.047 0 7.772 1.377 10.733 3.687h-1.105A16.73 16.73 0 0 0 64 47.188c-3.582 0-6.901 1.12-9.628 3.03h-1.105A17.4 17.4 0 0 1 64 46.532m22.343 9.045c1.324 1.476 2.188 3.242 2.155 5.773.675-.527.922-2.735 2.09-3.565.28 3.13-.93 5.367-2.826 7.362-.131-2.006-1.704-.753-2.14-5.675.793.46.817 1.7 2.032 2.38-1.403-2.529-1.266-3.715-1.31-6.275ZM82.59 79.832c.02.275.06.544.087.695-.707.205-1.397.47-2.05.913 1.017-1.318 1.41-3.325 1.182-4.761-1.668 2.355-3.98 4.179-3.754 6.756-.02.16-.015.459-.006.69a6.7 6.7 0 0 0-2.338 1.206c-.14.112-.318.334-.351.286-.033-.047.164-.25.285-.404.948-1.21 1.552-2.85 2.082-4.131-3.539 2.726-4.473 2.618-6.331 4.973-.528.67-2.878 1.152-3.64 1.304-.182.036-.182.285-.007.27.867-.076 2.422.028 3.018.256 3.095 1.186 5.512.56 8.743-1.16-1.701.149-3.405.047-5.112-.427.282-.094.55-.349.844-.28 3.7.85 6.271-.535 8.807-3.19-2.201.561-3.904.762-5.605 1.188l.003-.008c.108-.326.62-.57.62-.571 2.53-1.103 5.31-.123 7.922-4.365-1.319.822-2.677 1.012-4.024 1.377.003-.21-.02-.474.126-.739 1.927-1.875 4.372-1.062 6.762-6.346-1.226.172-2.467 1.213-3.524 2.004.073-.27.216-.626.39-.941 2.08-1.843 4.11-3.22 4.428-6.178-.658.662-1.782 1.325-2.615 1.806 1.493-2.24 2.925-4.816 2.623-8.085-.587 2.69-2.242 2.997-3.197 5.05-.539-1.574-1.145-2.445-2.003-3.462-.243 4.61 1.529 4.435 1.68 7.757l-.666.525c.002-1.601-.556-3.24-1.36-4.576-.112 2.415-1.042 5.306.397 7.354.122.411.107.734.071.936-.556.404-1.049.71-1.441.74.244-1.406.243-2.994-.305-4.416-.379 2.585-2.147 4.662-1.741 7.954M41.657 55.577c-1.324 1.476-2.188 3.242-2.155 5.773-.675-.527-.922-2.735-2.09-3.565-.28 3.13.93 5.367 2.826 7.362.132-2.006 1.704-.753 2.14-5.675-.793.46-.817 1.7-2.032 2.38 1.403-2.529 1.266-3.715 1.31-6.275Zm3.753 24.255c-.02.275-.06.544-.087.695.707.205 1.397.47 2.05.913-1.017-1.318-1.41-3.325-1.182-4.761 1.668 2.355 3.98 4.179 3.754 6.756.02.16.015.459.006.69.816.244 1.59.607 2.338 1.206.14.112.318.334.351.286.033-.047-.164-.25-.285-.404-.948-1.21-1.552-2.85-2.082-4.131 3.539 2.726 4.473 2.618 6.331 4.973.529.67 2.878 1.152 3.64 1.304.182.036.182.285.007.27-.867-.076-2.422.028-3.018.256-3.094 1.186-5.512.56-8.743-1.16 1.701.149 3.405.047 5.112-.427-.282-.094-.55-.349-.844-.28-3.7.85-6.27-.535-8.807-3.19 2.201.561 3.904.762 5.605 1.188l-.003-.008c-.108-.326-.62-.57-.62-.571-2.53-1.103-5.31-.123-7.922-4.365 1.319.822 2.677 1.012 4.024 1.377-.003-.21.02-.474-.125-.739-1.928-1.875-4.373-1.062-6.763-6.346 1.226.172 2.467 1.213 3.525 2.004a4.6 4.6 0 0 0-.39-.941c-2.082-1.843-4.11-3.22-4.43-6.178.66.662 1.783 1.325 2.616 1.806-1.493-2.24-2.925-4.816-2.623-8.085.587 2.69 2.242 2.997 3.197 5.05.539-1.574 1.145-2.445 2.003-3.462.243 4.61-1.529 4.435-1.68 7.757l.666.525c-.001-1.601.556-3.24 1.36-4.576.112 2.415 1.042 5.306-.397 7.354a2 2 0 0 0-.071.936c.556.404 1.049.71 1.441.74-.244-1.406-.243-2.994.305-4.416.379 2.585 2.147 4.662 1.741 7.954M64.002 87.8l1.232-2.133H62.77l1.232 2.134ZM87.97 50.22 64.002 91.74 40.03 50.22zM63.985 79.76l-1.138-1.97H59.45l-.613 1.064.523.906h4.626Zm-1.517-2.626-1.32-2.286-1.32 2.286zm-4.156 0 1.138-1.969h-2.744l1.137 1.97zm1.517-2.625.562-.974-.576-.996h-3.038l-.794 1.374.344.596zm-.393-2.626-1.137-1.97h-.006l-1.137 1.97zm-3.796 0 1.137-1.97h-3.103l1.137 1.97zm1.516-2.626 1.137-1.97h-6.135l1.137 1.97zm1.144-1.97 1.137 1.97h3.424l1.137-1.97zm1.515 2.626 1.334 2.31 1.333-2.31zm4.189-2.626 1.137 1.97h3.424l1.137-1.97zm1.516 2.626 1.333 2.31 1.333-2.31zm4.188-2.626 1.137 1.97h3.864l1.137-1.97zm1.516 2.626 1.137 1.97h.832l1.137-1.97zm.795 4.003-.795-1.377h-3.038l-.575.996.562.974h3.504zm-1.174-2.033-1.137-1.97h-.006l-1.137 1.97zm-2.293 3.282 1.137 1.97h.472l1.137-1.97zm.615 3.691-.615-1.065h-3.398l-1.137 1.97h4.628zm-.994-1.722-1.32-2.286-1.32 2.286zm-6.267-3.599.563.974h3.064l.562-.974-.575-.996h-3.038zm.941 1.63 1.138 1.97h.032l1.137-1.97zm2.294-3.282-1.137-1.97h-.007l-1.136 1.97zm-21.7-19.694h41.122l-4.548 7.877H47.99zm5.685 9.847h29.752l-1.137 1.97H50.263zM65.613 85.01l1.137-1.97h-5.496l1.137 1.97zm1.516-2.626 1.137-1.97h-8.528l1.137 1.97zm9.096-15.755H51.779l-1.137-1.97h26.72z"/><path d="M64 20c24.3 0 44 19.7 44 44s-19.7 44-44 44-44-19.7-44-44 19.7-44 44-44m0 2.626c-22.851 0-41.374 18.523-41.374 41.374S41.149 105.374 64 105.374 105.374 86.851 105.374 64 86.851 22.626 64 22.626"/><path d="M72.452 32.665c-.137.462-.273.787-.332 1.157-.023.146.939-.097 1.032-.108l.032-.002.041-.011c.173-.041.357-.058.532-.107l.443-.145.079-.031.088-.028c.03-.012.07-.038.073-.071s-.001-.067.001-.095c.003-.029-.035-.039 0-.058.029-.006-.04-.082.056-.06l.069.032.056.03c.048.031.094.087.134.13a.8.8 0 0 1 .152.212c.027.06.073.222.076.285l-.008.003-.003.04a1 1 0 0 1-.065.166c0 .031-.016.08-.05.094l.003.005c-.04.035-.06.02-.113.044-.022.08-.255.14-.32.135-.004-.011-.373.061-.707.113-.484.106-.987.176-1.266.22l-.028.011-.014-.004-.108.017c-.076.014-.236.017-.215.09.049.168.005.349.198.71.058.105.116.508.162.652.055.173.167.5.229.666.053.143.155.343.22.491.047.11.079.228.13.332.141.287.244.452.415.67.057.072.159.205.22.267.06.06.148.138.21.19.143.117.323.203.466.28.256.14.465.23.637.284.084.025.188.048.236.066.121.046.073.072-.182.13-.157.034-.415.124-.772.146-.125.008-.297.01-.446.037-.176.034-.412-.068-.57-.161-.178-.104-.285-.169-.43-.365-.064-.087-.117-.225-.174-.32-.192-.325-.35-.604-.422-.858-.073-.233-.123-.517-.18-.705-.176-.575-.287-.956-.4-1.232-.038-.094-.046-.124-.114-.137-.057-.011-.077.051-.093.077-.166.255-.291.562-.472.816-.159.224-.369.397-.565.58-.246.227-.515.427-.894.483a3 3 0 0 1-.426.01c-.246-.01-.51-.102-.871-.18-.383-.084-1.024-.14-1.425-.275-.396-.134-.421-.208-.217-.295.463-.01 1.576.011 2.007-.054.415-.061.73-.227 1.078-.488.173-.13.302-.296.458-.485.125-.15.307-.366.368-.566.037-.022.183-.284.316-.566-.105.008-.2-.003-.284.009-.155.022-.272.017-.37.038-.196.042-.298.1-.356.106-.101.011-.115.012-.243.028-.1.012-.11.06-.21.077-.094.015-.1.021-.173.049-.049.018-.124.023-.146.05-.107.088-.237.056-.324.11-.085.007-.26-.057-.325-.186l-.074-.174a.8.8 0 0 0-.106-.198c.007-.287.248-.388.415-.415l.31-.05c.173.017.4-.067.696-.12.393-.068.863-.066 1.29-.178l.224-.059c.078-.197.17-.41.261-.637.162-.628.723-2.106.908-2.976l.163-1.035-.014-.002c.02-.131-.14-.331-.12-.453l.014.02c.004-.028.009-.047-.004-.074l.001-.001.006.008a.3.3 0 0 1 .123-.19l.094.01-.005-.001c.246.035.498.15.719.248l-.002.012.046.033c.016.002.045.06.046.082.044.02.089.062.088.113.04.025.09.08.081.131l.009.002c.012.076.063.098.055.181.084.087-.096.384-.151.46l-.017-.002c-.02.125-.077.299-.154.4l-.055.145s-.01.02-.012.028c-.231.471-.555 1.533-.748 2.145zm10.918 4.654c.171.1.13.206.157.35.014.077.063.14.045.232-.03.145-.33.46-.424.478-.122.024-.21.008-.34.015q-.124.045-.249.088c-.285.103-.595-.523-.508-.764.193-.13.404-.115.623-.167.113-.027.192-.12.301-.158.114-.04.278-.05.394-.074Zm7.407-.596c-.554.133-1.276.248-1.565.337-.058.015-.092.143-.078.183.034.095.088.211.085.304-.042.035-.27.007-.36.027-.149.032-.214.013-.395.016-.263.004-.36-.015-.468.079-.071.062.038.563-.063.732-.11.182-.456.131-.492.342.091.096.115.189.068.299.1.036.296-.007.477-.025.117-.01.191.026.27-.042l.05-.044c-.027-.213-.07-.399.048-.618.02-.037.092-.258.281-.334.124-.05.17-.257.279-.277.165-.032.3.008.409.055.232.21-.013.494.11.765.159.096.904-.222 1.08-.288l.005-.024c-.287-.231-.64-.44-.62-.734.264-.286.816.104 1.132.233.236.096.37-.025.56.055.275.114.403 1.4.055 1.534-.715-.227-2.312.107-3.14.306l-.019.04c.04.066.022.097.008.164.34.278.756.488 1.134.767.12.09.255.3.392.731.085.265-.253.349-.319.429-.147.099-.284.02-.575.012-.169-.005-.4-.088-.6-.136-.197-.048-.362-.06-.582-.135-.176-.06-.505-.106-.692-.168-.382-.127-.772-.22-1.138-.331a.5.5 0 0 1-.153-.03c-.041.003-.083-.026-.113-.052l-.007.008-.12-.054.005.002-.02-.015-.096-.039-.174-.075c-.057-.016-.106-.022-.13-.008l-.059-.048-.064.078.157.13.002-.004h.001c.023.1.299.12.375.183l.009-.01.2.075c.017.037.187.129.223.159.003.028.01.056.033.076l-.004-.004.01.09v.001c.028.023.02.081.041.11l-.027.033c.05.042.038.036.043.09.002.017-.02.041-.03.053l.008.006-.004.138-.055.078.011.008-.065.079-.01-.008-.011.013h-.132l-.005.007-.134.011-.004-.003-.033.014-.074.03-.037-.03c-.044.053-.05.03-.114.037l-.029-.023-.014.017c-.21-.02-.247-.045-.447-.043a.5.5 0 0 0-.17.027c-.044.019-.051.048-.081.077-.036.034-.088.074-.063.121.023.044.137.092.168.104h-.001c-.012-.01.022.012.037.016l-.006-.004c.04.031.104.03.142.06a9 9 0 0 1 .605.25c.302.134.69.336.698.337l-.006-.004c.27.214.17.172.294.48l-.016.02c.044.037.042.05.047.102l-.034.041.043.035c-.002.099.102.298.026.38-.188.207-.104.165-.372.072-.103-.035-.261-.164-.358-.208-.203-.092-.378-.204-.576-.29-.234-.104-.426-.253-.636-.345-.22-.096-.319-.238-.5-.297.008-.01-.128-.006-.145-.02-.386.43-.967 1.389-1.307 1.822-.09.266-.29.367-.49.52l-.007-.006-.174.208.004-.003a.1.1 0 0 0-.029.023l.005-.001-.19.114-.018-.013c-.055.067-.122.133-.16.097-.105-.1-.421-.394-.744-.682l.002-.007-.055-.165.016-.018-.042-.034c-.003-.032-.07-.15-.05-.174l-.005-.003a.6.6 0 0 0-.09-.202l.002-.002-.054-.086s-.103-.127-.108-.18c-.019-.194-.087-.776-.232-.896a.08.08 0 0 0-.028-.066l-.041-.193.034-.06-.053-.057.007-.032c.084-.016.226.159.439.383.135.144.28.234.423.39.112.122.175.28.266.392.065.081.117.148.172.19.035.027.084.04.098.052l.05-.062c.218-.282.483-.717.662-.949.156-.203.394-.491.612-.726-.209-.172-1.653-.748-1.721-.718l.022-.01c-.185-.153-.661-.253-.688-.553-.011.006-.005-.025-.012-.035l.008-.011c-.061-.051-.07-.123-.111-.185l.019-.023c-.049-.043-.15-.297-.106-.35l-.021-.135.007-.009-.03-.06c-.017.022-.002-.06.016-.083l-.017-.014c-.002-.028-.002-.041-.014-.068.032-.025.099-.167.154-.155.13-.156.377.157.49.156.537.265.478.358.928.584.5.251 1.148.609 1.226.673l.04.018c.098.082.442.165.652.17.248.006.37-.159.502-.255l.096-.008a.36.36 0 0 0 .197-.1l.158-.134c-.144-.119-.21-.268-.343-.382h.001l-.073-.073.01-.011c-.161-.132-.297-.197-.333-.395l.005-.006-.007-.006.043-.128c.04.008.156-.003.187-.03a.9.9 0 0 0 .263.05c.031-.004.065.04.086.057l.033-.038c.085.069.488.038.591.025l.027.022.015-.018c.064.022.126.02.181.052l.041-.002.006-.007.026.004c.066-.005.133-.013.2-.013.072 0 .149.027.213.042.904.214 1.855.298 2.687.319l.021-.026-.002-.016c-.581-.506-1.58-.704-2.308-.957-.477-.165-1.07-.38-1.482-.524a.45.45 0 0 1-.208-.117.1.1 0 0 0-.032-.013.1.1 0 0 0-.049-.02l-.016-.005a.2.2 0 0 0-.04-.019l-.02-.01a.1.1 0 0 0-.03-.018l-.187-.156-.012.016c-.027-.024-.05-.046-.082-.062l-.096-.08-.015-.016a.1.1 0 0 0-.038-.055l.001-.001-.354-.292a.1.1 0 0 0-.016-.024.1.1 0 0 0-.019-.03.2.2 0 0 0-.025-.048.08.08 0 0 0-.028-.053l.016.014-.004-.029.014-.017.09-.111a.1.1 0 0 0 .015-.027l.013-.025.047-.056-.027.003a.1.1 0 0 0 .043-.018l.017-.008c.014-.017.057-.017.076-.019.005 0 .022.005.032.005a.2.2 0 0 0 .047.006l.073.06.031-.037a.1.1 0 0 0 .03 0q.015.006.033.008c.008.005.023.01.032.013q.013.011.03.017c.015.013.034.031.053.038q.007.006.016.01l.083.07.019-.023.023.007c.014.01.05.022.068.026a.1.1 0 0 0 .037.01.1.1 0 0 0 .037.008c.021.004.027.01.044.023l.007-.01.023.002a.1.1 0 0 0 .028.005.1.1 0 0 0 .04.008q.016.008.034.012.02.01.04.009l.027.006.028.02.003-.003.024.003a.1.1 0 0 0 .03.008l.027.01c.02.005.038.017.06.017l.025.01.16.03c.675.102 1.425.807 1.91-.117-.014-.064.031-.298-.067-.328-.143.006-.374.043-.517.049-.139-.008-.439.025-.647-.028a1 1 0 0 1-.216-.075l-.001-.016c.056-.07.121-.154.195-.203.322-.214.783-.244 1.133-.335-.022-.11-.063-.253-.072-.4-.017-.28-.203-.077-.352-.111-.15-.035.053.043.002.213-.052.172-.478.193-.592.224-.114.03-.218-.037-.316.06-.202.2-.393.706-.763.472-.068-.042-.486-.583-.415-.627.042-.101.18-.283.219-.33.144-.175.37-.508.436-.779.028-.111-.006-.217-.023-.298-.01-.05.039-.062.063-.07.213.143.406.532.418.762.141.296.562-.522.74-.658.145-.112.31.03.347.114s0 .409-.095.525c-.096.116.143.171.143.171l.242-.315s.05-.19-.081-.333c-.09-.099-.15-.44-.104-.584.061-.189.312.112.36.101.17.016.29.072.454.156.118.06.172.113.277.177.235.144.01.666.282.684.664-.205 1.392-.398 2.056-.649l.068-.026c.06-.01.229-.028.253-.065a.1.1 0 0 0 .026-.014.3.3 0 0 0 .054-.033c.069-.04.142-.05.209-.103l.034-.02a.1.1 0 0 0 .048-.034c.075-.052.23-.165.228-.257 0-.025.01-.033.023-.054.094-.154.07-.051.104-.201.008-.012.024-.03.028-.044l.022-.034.014.004c.118.078.042.002.14.065a.1.1 0 0 0 .021.022l.015.017c.022.043.18.176.19.183l.01.013a.07.07 0 0 0 .027.035c.056.043.023.015.059.073.021.035.054.07.083.09.01.008.015.016.026.025q.007.014.017.024l.01.016c.004.023.017.04.03.057q.007.016.019.028a.1.1 0 0 0 .028.043q.01.023.03.042l.017.018a.1.1 0 0 0 .022.022l.008.01.007.017a.2.2 0 0 0 .02.055c.002.004.004.02.006.026.004.02.015.035.02.054q.003.029.015.056c.006.03.015.019.007.047a.1.1 0 0 0-.002.037c-.002.019.004.036.007.055a.1.1 0 0 0 0 .044v.012a.1.1 0 0 0-.003.035v.035a.1.1 0 0 0-.003.033.1.1 0 0 0 0 .061c0 .012-.007.026-.004.048a.1.1 0 0 0 0 .042l-.002.025q-.008.023-.008.045a.1.1 0 0 0-.005.031l-.054.083q-.026.01-.041.039c-.007.011-.018.016-.026.028-.018.009-.04.052-.074.074-.018.01-.04.036-.06.04q-.023.004-.042.013l-.015.004c-.057.004-.184.008-.234.034a.2.2 0 0 0-.056.007c-.03-.003-.027-.005-.054.012a.1.1 0 0 0-.04.004.1.1 0 0 0-.042 0H91.4a1.2 1.2 0 0 0-.428-.003c-.015-.001-.035-.009-.051-.008l-.025-.002a.1.1 0 0 0-.029-.004l-.092-.002zm-32.409-1.201c.236-.043.429-.16.625-.276.12-.072.248-.152.383-.178.444-.086.747.317.579.756-.11.287-.225.572-.334.859-.038.1-.066.205-.108.338.13.047.239.092.35.126.116.036.234.061.35.093.337.092.408.158.415.381a.66.66 0 0 1-.426.602.72.72 0 0 1-.737-.146l-.37-.313c-.266.31-.518.597-.762.891a.74.74 0 0 1-.937.153q-.027-.018-.053-.04c-.376-.278-.367-.374.032-.62.28-.172.55-.36.816-.554.103-.075.18-.186.269-.282-.054-.13-.108-.237-.145-.35-.069-.21-.01-.29.206-.293.118-.003.236 0 .375.001l.168-.628c-.159-.134-.3-.146-.455-.073-.068.033-.149.085-.213.072-.308-.06-.405.154-.553.355-.445.603-.802 1.254-1.144 1.917a10 10 0 0 1-.49.814c-.057.089-.147.159-.23.228-.109.092-.226.084-.321-.021-.125-.138-.254-.274-.353-.43a.5.5 0 0 1-.037-.474c.145-.36.338-.692.63-.944a5.1 5.1 0 0 0 1.224-1.614c.072-.145.175-.276.28-.437q-.094-.141-.195-.287c-.051-.07-.12-.131-.16-.207-.124-.232-.026-.441.229-.489.15-.028.306-.028.457-.053a.72.72 0 0 0 .608-.571c.027-.111.016-.197-.092-.249-.098-.047-.155.01-.221.082-.366.394-.655.429-1.09.14l.211-.505c-.238-.174-.243-.18-.411-.01-.118.119-.235.19-.423.085.018-.117.04-.232.053-.348.011-.116.012-.234.018-.345-.17-.051-.227.058-.292.138a.7.7 0 0 0-.116.198c-.336.961-.917 1.795-1.386 2.687q-.506.96-.993 1.93c-.256.508-.487 1.029-.75 1.533-.223.427-.476.837-.718 1.253a1 1 0 0 1-.12.156c-.289.32-.421.295-.591-.109a.7.7 0 0 0-.095-.172c-.223-.262-.192-.546-.076-.836.114-.284.252-.56.346-.851.049-.15.184-.077.25-.155.168-.202.37-.382.505-.604 1.16-1.913 2.307-3.834 3.46-5.751.08-.133.14-.257.13-.426-.013-.232.167-.39.335-.496.13-.082.21-.18.288-.297.228-.348.462-.692.688-1.042.043-.066.06-.149.118-.296-.22.087-.37.141-.517.204q-.648.279-1.293.565c-.11.049-.212.114-.318.172-.455.246-.925.34-1.42.134-.306-.128-.399-.274-.382-.555.593-.15 1.194-.267 1.77-.46.574-.191 1.154-.39 1.727-.735-.388-.25-.73-.476-1.079-.692-.172-.107-.28-.244-.285-.449-.003-.166.086-.25.248-.206.387.103.778.099 1.173.111.234.008.48.078.692.178.303.142.354.322.238.692.111-.036.199-.056.278-.094.266-.127.523-.276.795-.39.426-.18.575-.042.696.275.024.061.056.12.078.181.117.33-.015.595-.35.69-.314.089-.633.164-.944.262a.6.6 0 0 0-.295.183c-.47.633-.926 1.277-1.385 1.918-.025.035-.036.08-.058.128.044.06.083.128.136.18.156.155.236.143.358-.037.08-.117.159-.237.25-.346.352-.414.654-.85.673-1.42.205-.129.396-.061.565.04.064.038.118.167.107.245-.031.224-.099.443-.154.67.221.16.25.168.426-.004.132-.128.263-.27.353-.429.074-.132.166-.159.291-.15.235.014.434.187.523.438.085.237-.01.404-.194.54-.176.13-.342.28-.532.385-.383.21-.619.549-.849.898-.023.035-.03.08-.047.128.132.128.253.119.366-.009.102-.115.187-.247.299-.35a1.1 1.1 0 0 1 .348-.231c.196-.07.324.023.404.22.047.119.108.235.182.338.128.18.126.333-.048.49-.13.117-.28.212-.416.322-.213.17-.224.213-.143.473.083.264.044.379-.2.515-.21.118-.43.22-.64.336a.8.8 0 0 0-.428.63m-.457-2.908c.13-.23.253-.424.347-.631.027-.06 0-.189-.05-.228-.041-.033-.166-.006-.225.035-.215.15-.303.39-.418.634zm-1.332 1.92-.093.354c.08.208.217.392.199.56-.02.187-.154.383-.287.532-.246.275-.575.33-1.068-.064.147-.64.507-1.05 1.25-1.381Zm-16.456-2.426c.033-.003.02-.033.163-.01.115.056.12.048.237.079s.329.188.529.327.48.499.558.809.057.695-.013.966c-.016.066-.118.315-.192.632-.085.366-.15.83-.275 1.324-.062.24-.17.526-.226.75-.063.248-.094.497-.144.686-.06.223-.13.394-.156.471-.141.433-.321 1.022-.435 1.1 0 0 .043-.772.07-1.353.011-.25.02-.466.02-.568-.008-.295.058-.605.062-.896.012-.79-.008-1.557-.015-2.407a3.7 3.7 0 0 0-.092-.89c-.06-.301-.233-.91-.09-1.02Zm4.4 9.072.31.325.024.016c.115.18.224.4.293.564.037.088.09.145.125.184.05.055.113.026.252-.026.076-.029.143.005.21-.004a.23.23 0 0 1 .181.06c.04.032.153.122.186.217.042.115.044.244.058.32.026.137.019.233.019.233-.004.183-.004.273.025.438.04.223.034.389.034.389.089.033.14-.026.202-.086.165-.16.297-.49.297-.49.092-.302.218-.315.307-.38.086-.062.419-.001.596.143.192.157.193.425.127.518-.177.25-.346.435-.526.684-.132.182-.274.428-.404.612-.011.04-.218.209-.268.456-.043.216-.397.388-.505.365-.202-.043-.726-.178-.8-.395-.059-.178-.145-.478-.166-.526-.027-.059-.007-.57-.144-.861-.09-.193-.164-.308-.207-.435-.03-.085-.058-.106-.124-.126 0 0-.12.007-.257.018-.087.007-.185.09-.277.084-.058-.003-.205 0-.25-.014-.057-.02-.077-.084-.017-.188.018-.032.032-.126.063-.163.028-.033.063-.07.084-.096.015-.017.053-.054.064-.066.14-.146.338-.243.338-.243l-.015-.042c-.026-.056-.038-.095-.1-.157-.046-.049-.15-.126-.235-.225-.07-.08-.29-.479-.406-.738l-.158-.23-.002-.003-.07.082c-.054.097-.054.25-.154.325.014.02-.124.186-.093.23l-.03.108-.015.01c.025.051-.009.076.001.126-.033.023-.268.855-.3.809a.1.1 0 0 0-.002.034c-.1.084-.195.101-.321.134-.027-.038-.13.029-.173.046l-.074-.037-.003.002c-.284-.195-.353-.513-.323-.823.007-.005.046-.252.038-.279.022-.067-.052-.086-.013-.244a.5.5 0 0 0 .028-.272l-.002-.056a.37.37 0 0 0-.003-.25c.007-.032 0-.058.024-.086-.006-.015.044-.24.05-.287.01-.082.035-.207.053-.29.025-.017.047-.246.053-.289.003-.002.007-.46.01-.512l.002-.024.037-.13c-.033-.053.05-.293.047-.297.007-.034.043-.304.042-.304l.019-.105c-.016-.032-.012-.063-.028-.095-.015-.03-.05-.062-.066-.093l-.086.06c.029.04-.068.173-.111.203.004.007-.168.369-.224.407.013.02-.105.325-.139.348.01.015-.23.397-.192.453-.014.059-.159.318-.155.324-.055.046-.157.32-.134.354-.015.033-.017.098-.046.117l.004.006c-.024.046-.118.195-.098.224-.018.03-.012.097-.044.119l.002.002c-.039.127-.112.205-.13.34l-.01.006.006.009-.03.084c-.02.101-.082.26-.117.383l-.008.04c-.014.049-.072.261-.053.289-.019.03-.008.098-.042.122l.003.004c-.043.232-.267.612-.296.787-.023.13-.425.44-.55.457a1.4 1.4 0 0 0-.227.036c-.005-.006-.272.084-.317.09-.002-.002-.56.166-.636.175-.011-.015-.215.07-.243-.058l-.063-.294c.04-.055.038-.375.093-.413l-.003-.005c.013-.053.13-.36.127-.366.016-.033.125-.183.118-.194l.037-.046c.167-.151 1.459-2.358 1.459-2.358.138-.174.243-.547.422-.67l-.005-.005c.026-.055.31-.467.307-.47.029-.068.306-.47.304-.474.03-.04.209-.247.197-.264.123-.085.134-.318.236-.389l-.003-.004c.032-.063.053-.156.115-.199l-.003-.005c.026-.039.053-.091.024-.136l.006-.004-.364-.527c.017-.033.142-.342.14-.346.014-.05.441-.776.462-.79-.055-.01.086-.035.126-.081l.084.046c.014.034.052.046.072.075.02-.013.085.094.099.112l.004-.024c-.005.028.214.371.252.426l.064-.09c.092-.027.589-.47.554-.52.21-.144.162-.11.374-.137l.122.085c.3.161.037.459.065.5-.023.068-.028.233-.07.262.029.043-.06.42-.08.434l.008.012-.253.452v.001c.008.012-.046.406-.08.434.01.013.087.603.222.798-.002.002.102.171.11.185l.152-.329c.12-.084.116-.435.242-.522-.025-.036.367-.323.35-.326.283-.112.72-.169.92.123.007-.037.135.237.05.296.023.032-.003.072-.007.13l.001.666c-.005.003 0 .11.008.12-.026.018-.047.367-.049.435l-.004.129c-.024.016-.004.301-.005.372-.053.13-.058.204-.115.304-.05.091-.158.177-.245.288-.124.213-.183.228-.373.357Zm.014-1.779c-.024.224.025.313-.04.49.034.05-.09.312-.125.37l-.002.007-.163.12-.31-.449c.018-.012.01-.077.074-.172l.002.007.157-.413.1-.16-.002.001.072-.143.086-.059.11.052c-.01.104.026.224.04.35Zm-2.044 2.317c-.081-.168-.027-.597-.035-.756-.004-.118.068-.36.08-.434h.001c.01-.066.092-.413.078-.434l.037-.046.048-.013.06.074.177.269c.047.109.154.197.032.405-.018.045-.008.115-.079.259a2 2 0 0 0-.11.226c-.035.08-.06.169-.103.252a1 1 0 0 1-.134.205c-.03.019-.039.02-.052-.007m6.757 17.129v-.602q.514-.008.697-.134c.183-.126.183-.238.183-.461v-2.617q0-.36-.153-.47-.152-.11-.726-.122v-.564a6 6 0 0 0 .923-.08c.27-.047.508-.296.718-.391h.67v4.244q0 .335.189.461.19.127.727.135v.601zm10.637-2.276a2.8 2.8 0 0 1-.721.322 3 3 0 0 1-.784.103q-.93 0-1.518-.473a1.5 1.5 0 0 1-.59-1.22q0-.812.693-1.315.692-.505 1.814-.505 1.236 0 1.907.67.672.668.672 1.901 0 1.325-.742 2.06c-.742.735-1.187.734-2.08.734q-.867 0-1.426-.295-.56-.294-.559-.717a.52.52 0 0 1 .183-.419q.182-.155.49-.155.48 0 .674.581.025.075.04.108a.35.35 0 0 0 .162.218q.113.056.377.056.655 0 1.03-.44.378-.44.378-1.214m-.077-1.319q0-.501-.257-.774-.257-.274-.726-.274-.489 0-.759.27-.27.271-.27.763 0 .478.26.755.26.276.705.276.517 0 .781-.26.266-.259.266-.756m18.15 1.319a2.8 2.8 0 0 1-.721.322 3 3 0 0 1-.784.103q-.93 0-1.518-.473a1.5 1.5 0 0 1-.59-1.22q0-.812.693-1.315.692-.505 1.814-.505 1.236 0 1.907.67.672.668.672 1.901 0 1.325-.742 2.06c-.742.735-1.187.734-2.08.734q-.867 0-1.426-.295-.56-.294-.559-.717a.52.52 0 0 1 .183-.419q.182-.155.489-.155.48 0 .675.581.025.075.04.108a.35.35 0 0 0 .162.218q.113.056.377.056.655 0 1.03-.44.378-.44.378-1.214m-.077-1.319q0-.501-.257-.774-.257-.274-.726-.274-.489 0-.759.27-.27.271-.27.763 0 .478.26.755.26.276.705.276.516 0 .781-.26.266-.259.266-.756m-12.726 3.596c.425-1.737 1.027-1.922 2.539-2.524.745-.297.975-.866.975-1.32 0-.273-.169-.485-.332-.635q-.243-.225-.686-.226a1.2 1.2 0 0 0-.602.143q-.253.144-.252.32 0 .026.108.208.11.182.11.37a.5.5 0 0 1-.204.417q-.204.156-.544.156-.33 0-.523-.198-.19-.2-.19-.54c0-1.112 1.45-1.613 2.326-1.613.72 0 1.386.18 1.816.474.84.574.865 2.044-.065 2.57-.758.426-2.911.419-2.942 1.155-.007.175.054.392.483.375.38-.015 2.022-.024 2.3-.239.174-.134.294-.361.43-.648h.53l.117 1.755zm27.561-7.666q.06.127.13.224a1 1 0 0 0 .163.177q.142.127.323.201.18.077.387.135.43.117.93.239.497.121 1.094.26.381.094.563.082.183-.011.593-.151l.737-.252a.55.55 0 0 0 .214-.127.4.4 0 0 0 .096-.243 2 2 0 0 0-.022-.284 3 3 0 0 0-.051-.31l.285-.098.99 2.873-.284.097a11 11 0 0 0-.13-.282 1.3 1.3 0 0 0-.144-.248.38.38 0 0 0-.219-.132.56.56 0 0 0-.253.033l-.916.312q-.12.041-.212.077a.6.6 0 0 0-.145.077 1.3 1.3 0 0 0-.147.149l-.225.256a69 69 0 0 0-1.41 1.647 1.8 1.8 0 0 0-.24.361q-.077.168-.11.326a.9.9 0 0 0-.002.267q.02.15.051.267l-.285.097-1.022-2.963.286-.097q.151.404.245.53.097.128.177.1a.6.6 0 0 0 .143-.108q.102-.095.31-.316.194-.205.53-.586.335-.382.78-.91a86 86 0 0 0-1.87-.426q-.527-.11-.626-.075-.125.043-.14.217-.011.175.087.522l-.285.097-.661-1.917zM73.195 94.21q-.108.033-.309.113a.9.9 0 0 0-.323.205q-.128.124-.139.38-.011.257.085.748l.392 1.993q.172.88-.323 1.532-.496.655-1.486.846-1.154.224-1.886-.17-.735-.395-.916-1.32l-.538-2.74a.5.5 0 0 0-.095-.218.47.47 0 0 0-.229-.13 1 1 0 0 0-.258-.034q-.15-.001-.243.005l-.058-.294 2.818-.548.058.294a2.3 2.3 0 0 0-.486.188q-.135.075-.165.189a.6.6 0 0 0-.002.248l.53 2.705q.158.797.583 1.091.427.293 1.101.162.663-.128.962-.602.3-.474.146-1.253l-.356-1.816q-.096-.485-.209-.711a.65.65 0 0 0-.271-.307 1 1 0 0 0-.374-.084 4 4 0 0 0-.36-.016l-.06-.302 2.352-.456.06.302Zm6.933-3.052a7 7 0 0 0-.262.169.8.8 0 0 0-.267.288q-.085.153-.033.41.052.254.26.698l1.652 3.55-.635.293-4.872-2.412 1.084 2.328q.202.433.364.632.165.199.342.243a1 1 0 0 0 .366-.002q.236-.037.368-.072l.126.272-2.152.992-.127-.272a2.4 2.4 0 0 0 .29-.196.9.9 0 0 0 .24-.26.58.58 0 0 0 .045-.394q-.045-.227-.27-.712l-1.095-2.352a1.1 1.1 0 0 0-.208-.306.74.74 0 0 0-.294-.19 1 1 0 0 0-.368-.058 1.8 1.8 0 0 0-.41.06l-.126-.273 1.881-.867 4.268 2.112-.877-1.883q-.21-.45-.371-.64a.66.66 0 0 0-.342-.237 1 1 0 0 0-.368 0 4 4 0 0 0-.36.071l-.124-.265 2.152-.992zm6.265 1.993-2.504 1.711-.17-.247.239-.192a1 1 0 0 0 .203-.195.37.37 0 0 0 .075-.236.5.5 0 0 0-.094-.227l-2.206-3.195a.5.5 0 0 0-.173-.162q-.098-.055-.255-.023a1.6 1.6 0 0 0-.27.09 3 3 0 0 0-.29.129l-.17-.247 2.504-1.712.17.248q-.088.074-.22.19a2 2 0 0 0-.206.213q-.096.127-.077.242a.6.6 0 0 0 .096.227l2.204 3.192a.5.5 0 0 0 .177.166.4.4 0 0 0 .256.02q.086-.015.258-.095.174-.078.283-.144zm2.332-9.328a1.1 1.1 0 0 0-.236.447.9.9 0 0 0-.038.327q.012.143.086.342.102.271.307.788a199 199 0 0 0 .991 2.462l.552 1.336-.555.544-2.681-1.143a166 166 0 0 0-1.9-.8 1.3 1.3 0 0 0-.33-.086 1 1 0 0 0-.33.04 1 1 0 0 0-.238.09 2 2 0 0 0-.227.15l-.212-.214 2.119-2.077.206.208a3 3 0 0 0-.327.47q-.066.142-.006.204a.4.4 0 0 0 .073.055l.12.063q.329.155 1.103.476.775.32 2.342.996a156 156 0 0 0-.681-1.61l-.501-1.153q-.105-.244-.211-.441a1.3 1.3 0 0 0-.182-.274q-.088-.088-.273-.022-.186.067-.56.378l-.216-.22 1.587-1.555zm3.829-4.12-.158.256a2.1 2.1 0 0 0-.744-.002q-.419.065-.61.264a2 2 0 0 0-.197.258 10 10 0 0 0-.184.287l-.417.676 1.812 1.105.296-.48a1.4 1.4 0 0 0 .16-.356.74.74 0 0 0 0-.37 1 1 0 0 0-.173-.317 2 2 0 0 0-.273-.304l.158-.255 1.953 1.19-.157.256q-.151-.064-.41-.112a1.1 1.1 0 0 0-.383-.022.65.65 0 0 0-.322.157 1.4 1.4 0 0 0-.256.314l-.296.48 1.353.824q.212.13.355.173.143.046.262 0a.56.56 0 0 0 .221-.175q.11-.13.261-.378.07-.114.167-.278a3 3 0 0 0 .264-.584.44.44 0 0 0 .014-.237 3.2 3.2 0 0 0-.276-.657 4 4 0 0 0-.338-.564l.15-.242 1.405.979-2.7 4.378-.257-.157q.05-.096.13-.267.075-.17.09-.253.025-.156-.03-.25a.5.5 0 0 0-.18-.167l-3.305-2.015a.6.6 0 0 0-.22-.085q-.099-.01-.247.09a1.4 1.4 0 0 0-.222.196 4 4 0 0 0-.187.209l-.257-.157 2.551-4.137 1.197.73Zm2.169-4.918q-.514-.2-.863-.004-.351.194-.558.724l-.113.286 2.15.834.108-.274q.21-.53.045-.93t-.77-.636Zm4.765-.962-.767 1.953a32 32 0 0 0-1.57.36q-.59.155-1.393.419l-.08.202 1.553.603a.5.5 0 0 0 .239.036.4.4 0 0 0 .224-.126q.057-.058.143-.192.09-.132.14-.233l.281.109-1.068 2.719-.281-.11.078-.287a1.2 1.2 0 0 0 .046-.263.38.38 0 0 0-.073-.24.5.5 0 0 0-.207-.134l-3.612-1.402a.6.6 0 0 0-.233-.045q-.103.007-.226.132a1.7 1.7 0 0 0-.187.241 8 8 0 0 0-.144.23l-.28-.11 1.123-2.86q.377-.958.874-1.339.495-.38 1.108-.143.538.21.744.644.206.433.144 1.134.413-.121.959-.284.545-.164 1.12-.345.184-.056.463-.17.278-.112.383-.242a3 3 0 0 0 .219-.365zm.756-3.248a3.5 3.5 0 0 1-.646 1.598l.232.3-.045.328-1.971-.22.045-.329a5 5 0 0 0 .628-.202q.333-.13.61-.322a2 2 0 0 0 .488-.465q.2-.264.254-.651.07-.519-.145-.83a.84.84 0 0 0-.603-.364.7.7 0 0 0-.566.162q-.248.205-.475.676l-.273.564q-.126.257-.251.482-.294.516-.74.725a1.64 1.64 0 0 1-.946.142 1.4 1.4 0 0 1-.594-.221 1.6 1.6 0 0 1-.472-.473 2 2 0 0 1-.27-.694 2.6 2.6 0 0 1-.02-.874q.062-.452.244-.827.18-.377.338-.585l-.199-.264.046-.329 1.859.221-.046.329q-.315.074-.648.185-.335.112-.566.256a1.5 1.5 0 0 0-.414.383q-.165.225-.211.554-.056.413.142.704.198.294.544.34a.7.7 0 0 0 .564-.154q.24-.199.463-.659.136-.269.271-.55.137-.281.257-.498.292-.524.71-.762.418-.235.98-.16.352.048.66.257.307.21.49.518.199.338.274.756.076.42.002.953m.366-6.761-.084 3.02-.301-.008-.015-.306a1 1 0 0 0-.039-.279.37.37 0 0 0-.148-.198.5.5 0 0 0-.24-.058l-3.896-.107a.5.5 0 0 0-.234.044q-.102.046-.168.191a3 3 0 0 0-.152.579l-.301-.009.083-3.02.302.008q.007.115.025.29.016.172.051.291.047.152.152.204a.6.6 0 0 0 .24.057l3.893.106a.5.5 0 0 0 .24-.044.38.38 0 0 0 .166-.194q.038-.079.075-.264.038-.186.05-.312zm-4.52-6.22.037.298a3.3 3.3 0 0 0-.697.472q-.365.31-.369.536 0 .123.012.305.01.18.027.31l.022.18 4.275-.532a.6.6 0 0 0 .238-.08q.1-.061.142-.215a1.6 1.6 0 0 0 .037-.28q.015-.19.013-.32l.299-.038.378 3.014-.299.037-.071-.306a1.2 1.2 0 0 0-.086-.265q-.082-.142-.19-.178a.6.6 0 0 0-.253-.02l-4.313.536.023.18q.016.131.05.307.034.178.064.298.06.218.49.43t.793.286l.037.298-1.559.193-.659-5.252zM28.944 53.19q.192-.57.547-1.003a2.57 2.57 0 0 1 1.878-.966q.58-.038 1.19.166a3.1 3.1 0 0 1 1.052.587q.444.383.694.89.246.498.272 1.088t-.175 1.187q-.145.43-.372.75-.226.318-.441.519l.125.294-.107.314-1.912-.607.11-.322q.965.02 1.505-.226.538-.247.724-.797.233-.686-.256-1.246-.487-.562-1.588-.931a4.3 4.3 0 0 0-1.104-.234 2.3 2.3 0 0 0-.816.082q-.35.118-.58.362a1.6 1.6 0 0 0-.347.594 1.63 1.63 0 0 0-.027 1.002q.145.495.6 1.012l-.297.25a3.3 3.3 0 0 1-.457-.552 2.3 2.3 0 0 1-.282-.61 2.5 2.5 0 0 1-.1-.743 2.8 2.8 0 0 1 .164-.86m-.092 16.983q.373.128.825.15a6 6 0 0 0 1.011-.048q.475-.06.915-.181.44-.123.77-.328.331-.207.509-.505a1.07 1.07 0 0 0 .127-.702q-.087-.693-.793-.971-.706-.276-1.912-.127a6 6 0 0 0-.958.198q-.444.135-.763.345-.321.214-.479.502t-.109.675q.048.377.275.626.226.247.582.366m4.029.496a2.7 2.7 0 0 1-.812.746 2.9 2.9 0 0 1-1.162.383 3.3 3.3 0 0 1-1.158-.058 2.7 2.7 0 0 1-1-.457 2.9 2.9 0 0 1-.744-.847q-.291-.502-.383-1.237a3.2 3.2 0 0 1 .055-1.143q.131-.55.453-.998.315-.444.809-.74.493-.3 1.136-.379c.444-.055.86-.03 1.24.077q.572.16 1.01.509.431.346.703.861.275.514.351 1.127.075.606-.056 1.163a2.9 2.9 0 0 1-.442.993m2.957 7.528a7 7 0 0 0-.153-.27.8.8 0 0 0-.273-.283q-.15-.094-.41-.058a3.5 3.5 0 0 0-.717.216l-3.663 1.426-.255-.647 2.718-4.692-2.403.936q-.447.174-.656.323-.211.152-.266.325a1 1 0 0 0-.02.364 4 4 0 0 0 .05.369l-.28.11-.865-2.197.28-.11q.066.135.18.3.111.165.247.253a.6.6 0 0 0 .392.07q.23-.031.73-.226l2.428-.945q.181-.07.32-.188a.74.74 0 0 0 .208-.28 1 1 0 0 0 .08-.362 1.8 1.8 0 0 0-.033-.41l.28-.11.756 1.92-2.38 4.109 1.944-.757q.463-.18.665-.33A.66.66 0 0 0 35 76.73a1 1 0 0 0 .022-.366 4 4 0 0 0-.049-.362l.274-.107.864 2.196-.273.107Zm1.28 7.536a3 3 0 0 0-.139-.163 1.5 1.5 0 0 0-.176-.162q-.13-.107-.254-.087a.6.6 0 0 0-.233.089l-.54.342a10 10 0 0 0-.5.337q-.405-.199-.985-.723a5.4 5.4 0 0 1-.922-1.055 3.3 3.3 0 0 1-.449-1.035 2.51 2.51 0 0 1 .385-2.061q.33-.477.911-.846.54-.344 1.117-.46a2.67 2.67 0 0 1 2.154.495q.483.36.856.94.253.391.37.788.117.396.145.684l.31.088.179.279-1.674 1.101L37.49 84q.605-.732.755-1.312a1.34 1.34 0 0 0-.189-1.103q-.4-.622-1.165-.612-.767.01-1.73.622-1.021.65-1.385 1.35-.365.699.027 1.308.183.286.412.453a1.3 1.3 0 0 0 .422.218l.94-.597a.5.5 0 0 0 .168-.167.4.4 0 0 0 .031-.257 1.4 1.4 0 0 0-.082-.29 4 4 0 0 0-.114-.271l.254-.162 1.538 2.393-.254.161Zm3.012 4.743a3 3 0 0 0 .735-.404q.365-.269.755-.673.331-.346.595-.717.263-.373.39-.74.124-.368.073-.711a1.07 1.07 0 0 0-.347-.624q-.508-.483-1.233-.253-.722.23-1.564 1.105-.357.372-.617.757a2.9 2.9 0 0 0-.373.748 1.44 1.44 0 0 0-.052.69q.06.322.343.592.276.263.61.312t.685-.082m3.442-2.153q.036.546-.156 1.09-.19.54-.657 1.026-.661.69-1.508.882-.846.192-1.699-.181a1.3 1.3 0 0 0-.35.767q-.041.427.224.678a2.6 2.6 0 0 0 .565.417l-.234.243a4 4 0 0 1-.603-.316 4.3 4.3 0 0 1-.723-.558q-.471-.447-.507-1.016-.035-.57.41-1.105a3.2 3.2 0 0 1-.55-.895 2.7 2.7 0 0 1-.197-.993 2.7 2.7 0 0 1 .193-1.006 2.8 2.8 0 0 1 .61-.933 3.1 3.1 0 0 1 1.011-.722 2.8 2.8 0 0 1 1.107-.24 2.7 2.7 0 0 1 1.093.225q.54.225.987.652.445.423.696.938.251.517.288 1.047m1.557 7.003-2.558-1.63.163-.252.27.144q.18.097.26.111.151.028.248-.023a.5.5 0 0 0 .174-.175l2.103-3.263a.5.5 0 0 0 .083-.222.36.36 0 0 0-.078-.242 1.6 1.6 0 0 0-.188-.213 3 3 0 0 0-.232-.215l.163-.252 2.558 1.63-.163.252-.262-.127a2 2 0 0 0-.278-.108q-.154-.038-.254.024a.6.6 0 0 0-.173.176l-2.101 3.26a.5.5 0 0 0-.085.228.38.38 0 0 0 .081.242q.048.072.188.2.141.129.243.203zm9.722-1.054a7 7 0 0 0-.3-.087.8.8 0 0 0-.393-.012q-.173.037-.334.243a3.5 3.5 0 0 0-.36.653l-1.616 3.567-.638-.285-1.356-5.244-1.06 2.34q-.195.436-.241.688-.044.254.038.417.062.119.242.274.181.151.295.229l-.124.273-2.162-.969.123-.273q.142.051.34.09.196.04.354.008a.58.58 0 0 0 .329-.223q.142-.181.364-.669l1.07-2.364a1.1 1.1 0 0 0 .097-.357.74.74 0 0 0-.048-.345 1 1 0 0 0-.197-.314 1.8 1.8 0 0 0-.313-.27l.124-.274 1.89.847 1.188 4.593.857-1.893q.204-.452.244-.698a.65.65 0 0 0-.044-.412 1 1 0 0 0-.242-.277 4 4 0 0 0-.29-.225l.121-.266 2.163.968-.12.267Zm6.232 4.06c-.08-.006-.159-.014-.222-.015a1.5 1.5 0 0 0-.24.018q-.166.022-.236.126a.6.6 0 0 0-.093.23l-.114.627a10 10 0 0 0-.092.594q-.423.16-1.203.227a5.4 5.4 0 0 1-1.406-.046 3.4 3.4 0 0 1-1.068-.377 2.6 2.6 0 0 1-.805-.696 2.5 2.5 0 0 1-.452-.986 3.1 3.1 0 0 1-.004-1.24q.115-.628.42-1.126a2.64 2.64 0 0 1 1.83-1.235 3.6 3.6 0 0 1 1.274.015q.462.083.833.267.372.184.604.359l.275-.166.327.059-.326 1.97-.335-.06q-.128-.94-.454-1.443a1.36 1.36 0 0 0-.942-.613q-.728-.131-1.244.434-.513.567-.717 1.684-.216 1.188.052 1.928.268.741.984.87.336.06.614.008.28-.054.448-.16l.199-1.09a.5.5 0 0 0-.009-.237.4.4 0 0 0-.168-.197 1.4 1.4 0 0 0-.27-.139 5 5 0 0 0-.277-.1l.053-.295 2.767.505zM27.322 64.12l.225-2.95.3.023.003.284q0 .186.027.258.046.145.138.208a.5.5 0 0 0 .237.072l1.893.143.178-2.336-1.85-.14a.5.5 0 0 0-.24.038.38.38 0 0 0-.177.178 2.7 2.7 0 0 0-.15.532l-.3-.023.225-2.95.3.023q-.002.097.004.285.007.19.032.277a.34.34 0 0 0 .137.204.5.5 0 0 0 .238.072l3.878.294a.5.5 0 0 0 .232-.032q.097-.04.177-.185.06-.108.114-.287a2 2 0 0 0 .069-.258l.3.022-.225 2.95-.301-.023a3 3 0 0 0-.055-.547q-.039-.154-.145-.21a.6.6 0 0 0-.23-.067l-1.637-.123-.179 2.336 1.599.12a.5.5 0 0 0 .232-.032.44.44 0 0 0 .177-.188q.054-.097.106-.262.054-.165.074-.264l.3.023-.225 2.95-.301-.023a3 3 0 0 0-.054-.563q-.04-.15-.143-.209a.6.6 0 0 0-.232-.068l-3.883-.293a.5.5 0 0 0-.24.032.4.4 0 0 0-.177.184q-.045.09-.09.263t-.06.285z"/></g><defs><filter id="a" x="-13" y="0" width="154" height="157" filterUnits="userSpaceOnUse" color-interpolation-filters="sRGB"><feFlood flood-opacity="0" result="BackgroundImageFix"/><feColorMatrix in="SourceAlpha" values="0 0 0 0 0 0 0 0 0 0 0 0 0 0 0 0 0 0 127 0" result="hardAlpha"/><feOffset dy="16"/><feGaussianBlur stdDeviation="6.5"/><feColorMatrix values="0 0 0 0 0 0 0 0 0 0 0 0 0 0 0 0 0 0 0.03 0"/><feBlend in2="BackgroundImageFix" result="effect1_dropShadow_49_4975"/><feBlend in="SourceGraphic" in2="effect1_dropShadow_49_4975" result="shape"/></filter></defs></svg>