<svg width="128" height="128" fill="none" xmlns="http://www.w3.org/2000/svg"><path fill-rule="evenodd" clip-rule="evenodd" d="M64.079 20C39.774 20 20 39.704 20 63.923c0 24.304 19.774 44.076 44.079 44.076 24.218 0 43.919-19.772 43.919-44.076 0-24.219-19.7-43.923-43.919-43.923" fill="#fff"/><path fill-rule="evenodd" clip-rule="evenodd" d="M99.131 82.941c-.415.02-.8.18-1.117.43a147 147 0 0 0-4.853-5.947 32.1 32.1 0 0 0 2.971-13.52c0-17.665-14.37-32.036-32.034-32.036l-.07.001a39.6 39.6 0 0 1-.196-6.81c.037.001.072.01.11.008 1.094-.053 1.987-1.064 1.93-2.194-.04-.898-.68-1.657-1.49-1.905 23.546.155 42.654 19.355 42.654 42.937a42.96 42.96 0 0 1-5.858 21.706c.062-.216.1-.44.089-.672-.053-1.13-1.042-2.05-2.136-1.998m-35.035 24.06c-15.675 0-29.42-8.413-36.962-20.96.389.33.91.51 1.462.484.973-.048 1.787-.725 1.92-1.667 2.574.196 5.499-.018 8.69-.48q.988 1.2 2.101 2.316c6.064 6.064 14.158 9.403 22.79 9.403 11.556 0 21.701-6.181 27.337-15.426a27 27 0 0 1 6.05 3.316 2.1 2.1 0 0 0-.284 1.15c.054 1.127 1.04 2.048 2.135 1.995.483-.03.938-.237 1.279-.581-7.578 12.264-21.113 20.45-36.518 20.45m18.3-28.46c-4.42 5.425-11.134 8.722-18.317 8.722-3.47 0-6.826-.761-9.977-2.264-1.54-.712-3-1.59-4.35-2.619 10.441-2.227 22.149-4.938 32.644-3.839m4.953-7.698c3.61-11.328-1.758-23.983-12.975-29.333a24.2 24.2 0 0 0-8.734-2.204 39.5 39.5 0 0 1-1.52-6.714c17.255.012 31.29 14.053 31.29 31.312 0 4.602-.996 8.97-2.77 12.915a392 392 0 0 0-5.291-5.976M65.884 40.051a23.5 23.5 0 0 1 8.182 2.113c10.75 5.129 15.973 17.17 12.725 28.058-8.628-9.587-17.086-18.916-20.907-30.171M48.822 82.578a24 24 0 0 0 4.974 3.076 23.7 23.7 0 0 0 10.283 2.332c7.559 0 14.612-3.544 19.159-9.344 2.593.325 5.106.894 7.503 1.77-5.523 8.97-15.399 14.962-26.643 14.962-9.604 0-18.212-4.329-23.989-11.133 2.748-.43 5.672-1.02 8.713-1.663m8.074-41.432c-3.697 11.902-6.992 24.142-14.008 32.798a24 24 0 0 1-.925-2.208c-2.157-5.97-1.842-12.41.89-18.136 2.768-6 7.932-10.456 14.043-12.454M42.198 53.292c-2.813 5.9-3.139 12.536-.916 18.69.32.885.692 1.74 1.103 2.57a31.3 31.3 0 0 1-5.498 5.133 31.27 31.27 0 0 1-4.26-15.781c0-15.747 11.746-28.812 26.977-30.988q-1.296 3.67-2.447 7.389c-6.51 1.978-12.033 6.648-14.959 12.987m21.048-32.317a2.13 2.13 0 0 0-1.44 2.097c.035.742.48 1.389 1.088 1.733-1.105 2.356-2.096 4.819-3.015 7.347-15.765 2.063-27.976 15.512-27.976 31.752 0 5.806 1.517 11.365 4.35 16.23a29.8 29.8 0 0 1-6.094 3.207c-.394-.57-1.05-.88-1.758-.844-1.095.051-1.993.903-1.932 2.194.005.097.025.188.043.28a42.8 42.8 0 0 1-5.511-21.066c0-23.395 18.873-42.477 42.245-42.93m.85-.975c-24.295 0-44.06 19.696-44.06 43.905 0 24.295 19.765 44.06 44.06 44.06 24.21 0 43.904-19.765 43.904-44.06C108 39.695 88.306 20 64.096 20" fill="#c6ad23"/><path fill-rule="evenodd" clip-rule="evenodd" d="M62.754 27.619c-.19 9.06 3.259 18.744 7.247 23.398-8.534 1.868-4.327 14.265-19.875 13.727 4.726-12.51 8.34-25.285 12.628-37.125" fill="#cb3531"/><path fill-rule="evenodd" clip-rule="evenodd" d="M94.807 80.832c-7.732-4.31-16.244-5.189-21.99-4.098 2.916-10.966-9.87-9.543-2.27-24.128C78.58 63.04 85.884 71.41 94.807 80.832" fill="#033d82"/><path fill-rule="evenodd" clip-rule="evenodd" d="M33.452 83c7.633-4.248 14.178-11.512 16.093-17.259 5.819 6.827 15.031-3.64 22.155 10.715C58.93 78.206 45.588 81.12 33.452 83" fill="#1a923e"/><path fill-rule="evenodd" clip-rule="evenodd" d="M51.44 65.972c14.272.116 12.71-12.732 17.698-13.297-6.404 13.397 3.723 15.328 3.113 22.141-7.687-13.035-17.8-4.952-20.81-8.844z" fill="#fff"/><path d="M29.577 72.765q-.469-.253-1.083-.225l-.04.183q.566-.042.973.175a1 1 0 0 1 .525.64q.17.61-.343 1.038-.512.427-1.542.71-.948.264-1.672.133-.725-.127-.878-.686a.93.93 0 0 1 .091-.768q.21-.343.7-.65l-.098-.144-1.142.583q.098.029.142.088a.4.4 0 0 1 .075.162q.036.13.018.332-.017.203.032.384.217.785 1.03 1.053t1.86-.02q1.236-.343 1.697-.936.457-.593.255-1.327a1.16 1.16 0 0 0-.6-.725m-4.402-2.328q-.607-.196-.674-.667-.078-.555.515-.879.59-.324 1.615-.468 1.28-.18 1.845.022.565.203.632.675.062.443-.451.811-.514.37-1.737.543-1.136.16-1.745-.037m-.279-1.852q-.663.506-.565 1.208.096.675.833.996.737.322 1.84.168 1.13-.159 1.745-.7.616-.542.529-1.162-.092-.647-.817-.984-.725-.34-1.885-.176-1.016.144-1.68.65m.004-11.004q-.112-.015-.16-.095a.3.3 0 0 1-.031-.197l.015-.116-.17-.021-.12.92L28 59.38l-.008.057-3.777.279-.1.757.17.022.012-.1q.017-.124.08-.166.063-.045.176-.029l4.046.536q.113.013.163.076t.031.197l-.01.08.17.023.106-.81-.17-.023-.01.08a.27.27 0 0 1-.08.17q-.065.06-.178.045L25 60.095l.007-.054 4.129-.306.02-.163-3.98-1.46.007-.054 3.706.489q.114.017.163.077.05.062.032.197l-.018.135.169.022.157-1.188-.169-.023-.016.116a.3.3 0 0 1-.082.182q-.065.066-.178.05zm4.659-2.138q-.253.171-.805.023l-3.223-.866q-.112-.03-.15-.111a.26.26 0 0 1-.008-.186l.035-.13-.165-.046-.31 1.158.165.046.035-.134q.035-.13.104-.168.069-.037.18-.008l3.224.866q.607.163.977-.118.371-.28.498-.754c.08-.298.045-.615-.1-.888q-.222-.44-.773-.589l-3.198-.859q-.109-.028-.149-.106a.25.25 0 0 1-.012-.174l.04-.147-.165-.045-.24.894.164.045.04-.147q.033-.123.101-.157.07-.033.18-.005l3.197.859a.97.97 0 0 1 .614.462.95.95 0 0 1 .096.744q-.099.369-.352.541m-2.832-5.931-.331.797.158.066.071-.171q.06-.142.135-.178.077-.035.182.01l3.769 1.566q.104.045.137.115.032.074-.021.198l-.083.202.158.065.418-1.005-.158-.066-.084.2a.26.26 0 0 1-.12.143q-.08.04-.184-.004l-3.558-1.479.02-.05 4.727-.293-.005.014.062-.15-4.137-1.722a.2.2 0 0 1-.132-.127.28.28 0 0 1 .015-.185l.085-.202-.159-.066-.418 1.006.159.066.083-.201q.052-.126.125-.154.075-.029.18.014l3.083 1.283-.02.05zm2.562-4.979q.068-.117.144-.136.077-.02.176.038l3.531 2.047q.098.056.12.132.023.078-.046.194l-.315.541.149.087 1.093-1.885-.148-.088-.315.543a.27.27 0 0 1-.138.125q-.082.03-.182-.026l-3.53-2.047a.22.22 0 0 1-.115-.145.27.27 0 0 1 .04-.182l.315-.541-.15-.088-1.092 1.887.148.086zm7.201-2.836a2.06 2.06 0 0 0-.473-1l-.17.079q.375.425.447.881a1 1 0 0 1-.195.805q-.385.503-1.034.351-.65-.152-1.498-.803-.779-.598-1.112-1.254-.334-.655.018-1.116a.94.94 0 0 1 .669-.388q.4-.04.941.167l.055-.165-1.153-.56a.3.3 0 0 1 .016.166.4.4 0 0 1-.085.157 1 1 0 0 1-.254.215 1.1 1.1 0 0 0-.288.256q-.496.647-.219 1.457.278.81 1.137 1.472 1.017.781 1.766.79t1.214-.596q.3-.39.218-.914m2.808-3.395q.18.102.22.202.043.1-.074.214l-.076.078.12.121.832-.833-.122-.12-.057.058a.28.28 0 0 1-.186.084.53.53 0 0 1-.267-.075l-3.941-2.476-.193.397 2.36 3.85q.103.141.096.25a.28.28 0 0 1-.084.186l-.058.058.121.12.704-.705-.121-.12-.057.058q-.136.135-.286.062-.148-.073-.294-.295l-.58-.948.851-.85zm-1.221-.8-.815.816-1.288-2.101.023-.02zm4.99-1.86-.194.15a.27.27 0 0 1-.176.062q-.09-.004-.159-.096l-2.435-3.163q-.157-.204-.153-.243.003-.04.22-.206.301-.233.497-.18.197.054.746.412l.09-.106-.834-.727-2.05 1.578.467 1.01.147-.078q-.224-.646-.193-.854.03-.208.33-.44.152-.117.19-.11.04.006.18.187l2.453 3.187q.07.09.062.17-.008.078-.116.161l-.194.15.104.136 1.122-.865zm.613-5.846q.115-.067.193-.046.075.022.132.12l2.05 3.53q.058.098.039.175-.017.077-.136.144l-.542.316.086.148 1.885-1.095-.086-.148-.542.315a.27.27 0 0 1-.182.04.22.22 0 0 1-.145-.115l-2.05-3.529q-.056-.098-.027-.182a.27.27 0 0 1 .125-.139l.542-.313-.086-.149-1.885 1.094.086.149zm4.604-1.798q.037-.639.476-.82.516-.217.98.275.462.492.86 1.445.498 1.194.444 1.79-.053.598-.492.782-.412.173-.9-.23-.486-.405-.962-1.544-.441-1.06-.406-1.698m1.72-.738q-.657-.514-1.31-.24-.629.26-.754 1.057-.126.794.303 1.82.44 1.055 1.119 1.513.677.46 1.256.218.605-.252.747-1.04.144-.786-.306-1.865-.396-.948-1.055-1.463m2.836-1.657-.833.226.045.167.179-.05q.148-.04.222-.002.075.04.105.149l1.071 3.938q.03.111-.008.18-.038.07-.17.106l-.21.056.047.166 1.05-.287-.045-.165-.21.057a.25.25 0 0 1-.186-.01q-.08-.035-.11-.146l-1.011-3.716.052-.015 3.128 3.556-.014.003.157-.042-1.175-4.324q-.03-.11.02-.183a.26.26 0 0 1 .157-.102l.209-.057-.044-.165-1.051.286.044.166.21-.058q.133-.035.199.005.068.041.098.152l.876 3.221-.053.014zm18.085 3.473q-.179-.24-.062-.8l.67-3.271q.02-.112.096-.153a.24.24 0 0 1 .177-.024l.127.027.034-.17-1.119-.227-.034.167.127.027q.126.026.167.092.039.067.016.178l-.668 3.272q-.126.616.16.964.285.35.743.444.431.09.842-.164.407-.25.524-.81l.661-3.243q.024-.112.094-.157a.22.22 0 0 1 .166-.024l.142.03.035-.168-.864-.176-.035.167.142.029q.119.024.154.09.037.067.014.177l-.663 3.242a1 1 0 0 1-.41.647.88.88 0 0 1-.705.146q-.357-.073-.531-.312m4.525-3.557-.785-.243-.052.162.17.053q.14.043.18.116.039.072.005.18l-1.209 3.898q-.034.11-.1.15-.067.037-.191 0l-.198-.062-.05.163.99.308.052-.164-.2-.062a.25.25 0 0 1-.143-.104q-.045-.074-.011-.182l1.141-3.68.05.015.637 4.65-.014-.004.149.046 1.327-4.28q.034-.108.112-.144a.25.25 0 0 1 .18-.004l.197.061.051-.163-.992-.308-.05.163.198.063q.123.037.157.108.032.07-.001.178l-.989 3.19-.05-.015-.56-4.09zm4.004 1.581q.12.052.146.123.025.075-.02.18l-1.59 3.757q-.044.107-.113.138c-.05.023-.11.015-.191-.019l-.548-.232-.067.157 1.911.81.067-.158-.55-.232a.25.25 0 0 1-.133-.118q-.037-.08.007-.184l1.59-3.758q.045-.106.126-.132a.24.24 0 0 1 .178.013l.549.232.067-.158-1.911-.808-.067.157zm4.484 2.173q.136.074.134.187-.001.113-.144.263l-2.195 2.402-.046-.026.915-3.195a.4.4 0 0 1 .121-.195q.076-.055.188.006l.092.049.082-.15-.973-.53-.082.15.114.063q.113.06.124.18 0 .16-.064.307l-1.218 4.243.136.075 2.995-3.276q.155-.175.277-.207a.28.28 0 0 1 .212.017l.09.05.082-.15-.828-.451-.081.151zm1.742 1.021q.106.072.117.149.011.076-.053.171l-2.296 3.374q-.064.094-.136.115-.072.02-.172-.05l-.12-.081-.097.142 2.168 1.475.862-.76-.076-.121q-.418.337-.78.384a.95.95 0 0 1-.683-.171l-.558-.379a.25.25 0 0 1-.107-.142q-.022-.083.043-.178l1.204-1.77.622.424q.213.144.219.347.003.204-.168.452l-.061.09.129.089.93-1.37-.128-.087-.096.142q-.16.236-.338.288-.177.053-.391-.094l-.623-.423.996-1.463q.064-.094.15-.105a.25.25 0 0 1 .172.047l.6.409q.237.161.308.468.074.31.005.78l.139.026.309-.964-2.102-1.429-.097.142zm4.893 3.812q-.064-.425-.517-.803l-1.125-.938-.108.13.11.094q.093.077.093.152c0 .075-.023.105-.072.162l-2.614 3.134q-.074.09-.147.1-.075.014-.167-.064l-.112-.094-.109.133.876.73.11-.13-.111-.093a.22.22 0 0 1-.085-.145q-.01-.083.064-.171l1.316-1.577.421.35-.878 2.466.558.464.11-.13-.12-.101a.26.26 0 0 1-.082-.125.35.35 0 0 1 .012-.195l.754-2.12q.316.188.736.131.42-.058.786-.497.365-.437.301-.863m-1.3-.936q.074-.088.158-.09c.06-.001.12.02.166.06l.214.181q.37.31.375.666.002.355-.31.727-.347.418-.707.45a.87.87 0 0 1-.653-.21l-.43-.36zm1.932 5.416c-.015.244-.091.437-.229.57q-.391.385-.752.432-.36.045-.67-.269a1.1 1.1 0 0 1-.32-.722q-.031-.426.362-1.068l-.15-.07-.842 1.138q.135.015.229.028a.26.26 0 0 1 .148.072q.12.14.174.317.081.228.264.412.434.44.943.392.51-.05.876-.41a1.34 1.34 0 0 0 .408-.78q.064-.443-.167-1.082-.25-.793-.231-1.045.018-.25.246-.475.249-.245.592-.33.345-.087.686.26a.9.9 0 0 1 .282.602q.015.328-.263.924l.131.051.753-.904a.36.36 0 0 1-.195.028.25.25 0 0 1-.128-.07q-.074-.075-.166-.31a1.2 1.2 0 0 0-.271-.42q-.418-.422-.918-.383-.5.041-.806.342-.387.38-.387.745-.002.363.245 1.104.178.553.156.921m3.953.091q.08.101.07.178-.013.075-.1.148l-3.177 2.563q-.09.072-.165.067-.078-.005-.158-.106l-.375-.464-.133.108 1.303 1.614.132-.106-.374-.465a.24.24 0 0 1-.061-.167q.003-.086.091-.158l3.177-2.563q.089-.074.174-.059.085.016.15.096l.375.465.133-.108-1.304-1.615-.132.109zm-.838 6.559-.126-.194a.25.25 0 0 1-.045-.173q.013-.086.11-.149l3.337-2.19q.216-.142.254-.135.038.005.18.223.2.302.129.49-.072.186-.474.7l.095.091.792-.767-1.352-2.061-1.035.4.063.144q.653-.18.856-.142.2.04.4.341.1.153.091.19-.012.038-.203.163l-3.361 2.207q-.096.061-.173.05-.078-.012-.148-.12l-.128-.196-.143.095.74 1.128zm3.287 1.577-.025-.05 1.552-1.61q.126-.127.215-.142.088-.017.16.121l.072.137.152-.079-.538-1.029-.152.08.024.046a.27.27 0 0 1 .022.226.7.7 0 0 1-.143.222L97.141 46.7l-1.316.689q-.101.052-.175.032-.075-.019-.135-.134l-.108-.207-.152.08.626 1.195.151-.08-.108-.206a.24.24 0 0 1-.028-.176q.02-.084.122-.138l1.467-.766 2.369-.336a.8.8 0 0 1 .349.023.34.34 0 0 1 .198.162l.038.07.151-.08-.481-.918-.152.08.024.046q.084.159.039.258-.045.098-.21.153zm3.8 3.801q.63.065.778.494.172.504-.351.924-.525.417-1.502.755-1.224.419-1.81.339-.59-.079-.737-.507-.139-.405.3-.85.439-.447 1.606-.847 1.086-.375 1.716-.308m.597 1.68q.561-.604.342-1.241-.21-.615-.989-.772-.778-.159-1.83.204-1.08.37-1.59.998-.507.627-.315 1.192.204.59.972.763.77.174 1.876-.205.972-.334 1.534-.939m-3.308 3.207a.24.24 0 0 1 .017-.176q.04-.078.152-.103l2.027-.479.197.833q.059.252-.08.406-.14.152-.473.232l-.112.025.035.152 1.612-.38-.036-.152-.138.034q-.279.064-.429-.02-.154-.082-.212-.335l-.197-.834 1.777-.42q.111-.025.182.024c.049.037.082.09.094.15l.167.708a.97.97 0 0 1-.079.658q-.157.331-.553.638l.084.113.93-.542-.626-2.648-.167.04.038.16q.031.136-.011.202-.043.067-.154.094l-3.97.937q-.114.025-.18-.011-.068-.038-.098-.164l-.041-.177-.167.04.286 1.212.166-.039zm1.159 6.454q.412.316 1.021.393l.072-.164q-.562-.057-.923-.328a.93.93 0 0 1-.396-.689q-.053-.602.529-.915.584-.314 1.647-.406.979-.085 1.667.158.688.244.736.792a.88.88 0 0 1-.232.705q-.27.286-.81.49l.07.154 1.23-.355a.27.27 0 0 1-.123-.106.4.4 0 0 1-.044-.165.8.8 0 0 1 .045-.315c.036-.118.049-.243.04-.366-.047-.515-.317-.901-.818-1.16q-.75-.389-1.829-.295-1.28.111-1.84.59-.561.478-.497 1.201.04.466.454.781zm4.192 3.77q.114 0 .171.071a.3.3 0 0 1 .055.182l-.001.112.171.002.011-1.142-.171-.002-.001.112q-.002.14-.06.196t-.171.052l-1.827-.016.016-1.531 1.826.018q.113 0 .17.071c.04.052.06.117.056.183l-.002.111.172.001.01-1.14-.171-.003-.001.112q-.002.14-.059.195t-.171.055l-4.081-.039q-.116-.003-.17-.053-.058-.054-.056-.182l.001-.13-.17-.002-.013 1.141.172.002.002-.13q0-.104.057-.168.059-.064.172-.063l2.084.02-.015 1.53-2.082-.02q-.115-.001-.171-.053-.058-.053-.055-.182v-.13l-.171-.002-.011 1.142.172.002.001-.13a.24.24 0 0 1 .059-.168q.057-.064.172-.063zm.06 2.328q-.015.128-.076.175-.064.044-.175.033l-4.06-.433q-.111-.014-.164-.07-.05-.06-.037-.187l.064-.595-.17-.018-.222 2.065.17.018.064-.594a.24.24 0 0 1 .074-.162q.064-.056.178-.045l4.058.434q.113.011.162.083a.25.25 0 0 1 .04.174l-.064.592.17.018.221-2.062-.17-.019zm-.332 3.594.167-.805-.168-.036-.035.174q-.031.143-.098.19-.068.045-.18.022l-3.995-.829q-.113-.022-.157-.085-.047-.064-.02-.19l.043-.203-.167-.036-.212 1.017.168.034.043-.202a.24.24 0 0 1 .089-.154q.069-.052.181-.028l3.773.782-.012.05-4.567 1.082.003-.015-.032.153 4.388.91q.112.024.154.099a.25.25 0 0 1 .022.176l-.043.204.169.035.211-1.016-.169-.036-.041.204q-.027.127-.094.167-.066.037-.177.015l-3.27-.678.012-.051zm-5.479 3.987q-.207-.01-.288-.077-.084-.067-.038-.215l.03-.1-.162-.051-.335 1.07.164.05.023-.073a.26.26 0 0 1 .122-.153.54.54 0 0 1 .27-.052l4.626.415-.021-.42-3.89-2.273q-.156-.075-.202-.17a.26.26 0 0 1-.013-.195l.023-.075-.165-.051-.282.905.163.05.024-.073q.054-.174.22-.175.165-.002.398.123l.958.56-.344 1.094zm1.447.156.327-1.048 2.124 1.239-.01.026-2.44-.218zM24.221 63.55q-.114 0-.172-.07a.3.3 0 0 1-.055-.182v-.111l-.171-.001-.003.885 3.704.805v.054l-3.71.72-.005.727.172.001v-.095q0-.121.059-.169a.27.27 0 0 1 .17-.046l4.081.016q.115 0 .171.053.058.052.057.18v.079h.171l.003-.778h-.17v.077a.25.25 0 0 1-.06.169q-.056.064-.171.064l-3.653-.014v-.052l4.057-.788v-.156l-4.134-.9v-.051l3.739.015q.113 0 .17.052.058.053.056.183v.13h.172l.003-1.142h-.17v.112q0 .111-.058.18-.058.07-.172.07z" fill="#040303"/><path fill-rule="evenodd" clip-rule="evenodd" d="M72.1 98.454a1 1 0 0 1 .107-.049l-.004-.01.01-.002-.013-.019.008-.002a.2.2 0 0 0-.016-.066l-.01.002-.009-.038h-.01l-.008-.028-.018-.006-.005-.02-.03-.013-.02-.036-.03-.012-.005-.02-.071-.033-.005-.019q-.01.001-.018.004l-.006-.02c-.024 0-.03-.004-.043-.03-.05-.002-.04-.026-.068-.055l-.064-.034q-.011-.03-.024-.056l-.007.001-.008-.028h-.009l-.002-.009h.008c-.011-.047-.023-.09-.033-.139-.006-.015-.018-.033-.018-.035l.006-.002-.008-.039-.008.002-.023-.046-.041-.022-.007-.028-.03-.013-.008-.029h-.009l-.016-.025-.009.001-.001-.008-.034.008q-.008-.007-.014-.018l-.036.01v-.01l-.017.004-.004-.008-.033.008-.014-.017-.043.01-.003-.009-.015.005-.003-.012c-.04-.004-.065.032-.082.041q-.029.009-.059.016c-.04.026-.068.074-.1.108.026.096.05.108.095.162l.02.035h.007c.015.011.017.013.027.035l.018-.006.006.03q.011.002.02.006l.004.02.032.011c.02.02.023.04.049.05q.01.03.023.056l-.01.002q.008.02.011.04l-.016.013q.006.03.008.06l-.009.002.006.02h-.009q.001.03.007.061l-.016.016q.001.009.005.018-.007.009-.015.015l.005.02-.015.014a.2.2 0 0 0-.017.076c-.024.014-.027.03-.04.053l.001.008-.015.004.002.01q-.01.004-.018.004l.001.01-.024.007q0 .006.002.01l-.016.005.001.01-.016.003.002.01-.018.005-.01.034-.033.008.002.008-.017.004.003.01-.017.006.002.01-.023.015-.004.023c-.014.011-.06.008-.07.006l-.002-.01c-.041-.004-.052.027-.073.04.001.05-.035.086-.062.118q0 .01-.003.02l-.017.006-.003.022-.034.01q-.003.008-.004.021l-.028-.004v.01l-.016.004.003.01c-.032.025-.065.007-.089.042a.18.18 0 0 1-.128-.04l-.015-.026-.01.002-.03-.086q-.004.002-.01.002l-.003-.018-.01.002-.021-.087-.01.002q-.01-.034-.024-.066-.005 0-.01.003l-.005-.02q-.004 0-.007.003l-.011-.04-.007.001a.04.04 0 0 1-.005-.019l-.008.004q-.012-.03-.026-.058-.002.002-.008.003l-.027-.107q-.004 0-.007.002l-.006-.018-.009.001q-.003-.019-.009-.039l-.01.003-.025-.066-.01.002c-.013-.016-.027-.015-.042-.029l-.05.022.003.01h-.036l.004.01h-.009c.006.024.009.047.023.057q.013 0 .027.004l.01.038.01-.003q.001.015.005.03l.01-.003.02.087.01-.003.023.13.008-.002.003.008q-.004.004-.008.003 0 .01.005.02-.005 0-.008.002l.011.122-.008.001.005.018-.008.003.01.04-.009.002.013.047c-.002.015-.01-.002-.006.013l.014.016q-.006.004-.01.003l.008.03-.01.001.01.04-.009.002.005.02-.008.001-.002.062-.009.004.01.038-.007.002q0 .008.004.02l-.008.001.004.02q-.004 0-.008.003l-.005.02-.016.005-.01.034-.04.02-.004.021-.034.01q.002.003.003.01l-.016.003v.01l-.173.063-.03-.002.004.01c-.018.006-.02-.005-.02-.005l-.06.015.002.01-.027-.005q0 .006.002.011a.1.1 0 0 0-.05.023c.013.05.023.104.05.122.014.024.007.022.032.022l.006.02c.011.003.02.01.032.013q.004.014.015.026l.036.001.003.01.016-.004.046.038a.04.04 0 0 0 .018-.004l.014.018q.025-.005.05-.014.004.006.003.012l.018-.005.025.025h.08l.003.008.017-.004c.005.002.01.013.022.016q.06.1.075.218l-.01.004q.012.038.02.077l.009-.003.007.029.008-.002q.009.025.013.049l.008-.002.006.02q.004-.003.009-.004l.008.041.01-.001.004.018.009-.003.01.038q.041.023.084.042l.067.055.037.001.013.016.017-.004.004.011.016-.004.002.007.02-.002v.009l.018-.004.003.01a.03.03 0 0 1 .016-.005q0 .005.003.01l.036.002.014.016.017-.005q0 .007.002.011l.027-.006q0 .005.002.008l.024-.005.003.009.009-.003c0-.001-.001-.016.014-.013q.003.005.003.01l.016-.004q.009.008.014.017a.03.03 0 0 0 .018-.006l.013.018.018-.005c.006.002.009.013.022.017.008.018 0 .007.011.016.006.031.005.025-.005.043l.002.01q-.008.001-.018.006l-.003.02-.033.008v.01l-.014.004q0 .006.002.01l-.01.002-.003-.01-.05.013q-.001-.005-.004-.009l-.109.028q0-.005-.003-.01l-.015.015c-.028.01-.066.004-.08.01l.002.009q-.026.008-.05.012s-.001.009-.015.015l.042.164.018-.003q0 .009.005.02c.018.001.021.001.039.01l.001.009.017-.005.014.018.01-.004q.003.011.012.021.008-.004.017-.005.007.007.013.017l.018-.006.035.034c.038.015.06-.011.108-.007l.002.011.052-.015.001.01.053.028.036.105-.009.002.013.047-.008.004v.041l-.027.038c.002.007.004.011.005.02l-.015.012-.03.092-.018.004c0 .025 0 .017-.01.033l.004.011q-.01 0-.017.003a.14.14 0 0 0-.02.067l-.018.005q.005.015.007.028a.3.3 0 0 0-.052.087l-.016.003.005.02a.07.07 0 0 0-.036.071c-.041.024-.015.036-.03.058l-.033.019-.015.045c-.016.029-.037.029-.037.073q-.01 0-.017.004l.005.019-.009.002c-.013.028-.03.017-.03.06-.018.01-.02.012-.03.028l.003.008c-.022.025-.027-.01-.027.037-.017.012-.017.016-.03.031l.002.007-.03.021q-.006.013-.01.033-.008 0-.018.004l-.002.02-.018.005-.027.07-.018.004.066.262.009-.003.017.037.01-.002.021.047.01-.003c.014.015.024.019.035.042.067.004.08.067.137.069l.005.019.029.003.045.042c.026.009.014-.014.04.009l.083-.032.003-.021.034-.008-.002-.01.026-.006-.004-.011.018-.004-.001-.009q.014-.005.033-.009l-.002-.009.018-.005-.003-.009.025-.008-.001-.009.014-.004-.001-.009c.01-.008.021-.011.032-.019l-.003-.01.058-.024-.001-.011.015-.004.005-.022.016-.004-.002-.008q.035-.022.071-.04l-.002-.009q.008-.005.017-.006 0-.012.005-.02l.016-.004c0-.009.003-.014.004-.023l.017-.004-.002-.01.017-.003-.003-.011.018-.004q-.004-.005-.003-.01.007-.003.017-.004l.004-.021.016-.004.004-.023.026-.005q.012-.03.02-.058.04-.03.077-.062l.002.011c.045-.006.063.016.098.026.013.026.031.044.044.062l.018.068.008-.001.007.028.007-.002q.018.063.033.125l.009-.001.012.047.007-.002v.033s.013.001.013.018l-.008.002.008.029-.01.001.045.174-.006.001q0 .016.005.031l-.008.002.05.195-.01.002.004.02-.008.002.013.046-.009.003.005.019-.009.003.01.038-.009.003.005.017-.003.004-.005.001.01.038-.014.014.004.02q-.004 0-.006.002l-.024.057a.3.3 0 0 1-.158-.011l-.017.004-.002-.01-.018.005-.003-.009-.035-.003-.015-.017-.042.011-.001-.009h-.047l-.001-.008-.037-.002q0-.004-.004-.01-.02.007-.041.012l-.003-.012-.053.006.001.006q-.003.004-.008.004l.003.01.008-.001c.009.02.007.026.019.036l.008-.002.004.019.021.005q.004.01.004.019l.01-.001c.015.014.024.018.037.042.04.002.037.024.064.035q.007 0 .016-.004.022.021.046.041c.03.013.038.006.064.035l.025-.007.006.02c.024 0 .016.002.031.012l.01-.002.003.02.053.027.005.02.017-.004q.01.018.017.036l.01-.002q.007.034.017.067l.01-.002q.01.065.022.129l.008-.002q.014.05.024.097l.01-.002.018.036.008-.002c.021.019.037.027.051.059a.1.1 0 0 1 .041.013l.002.006q.014.004.028.005l.013.018.018-.004.002.008c.006 0 .011-.004.016-.004q0 .006.003.01l.018-.004.002.01q.007-.004.017-.006l.002.011.017-.004q.008.007.013.016c.024.014.047.026.079.022.013.026.022.024.038.042l.046-.002.002.011.05-.014v-.009c.008-.004.025.011.043-.002l-.001-.009q.012-.002.025-.007 0-.01.004-.02l.046-.033-.02-.078.008-.002c-.003-.013-.006.006-.01-.007q-.005-.01-.005-.021l.008-.002-.002-.008-.009.002-.002-.011.008-.001-.017-.069.01-.001-.017-.069.007-.002-.007-.029-.009.002q0-.006-.003-.009l.01-.003-.017-.067q-.004 0-.01.003l-.008-.039-.01.001-.06-.201.008-.002-.009-.039-.01.002-.032-.126.009-.003s-.001-.007-.003-.009l-.007.002-.02-.078.01-.002-.012-.039-.008.003-.003-.051-.01.002.002-.032-.008.002-.006-.021-.008.005-.064-.222-.043-.165-.009.003-.006-.03-.01.004-.019-.079-.008.002-.002-.01.008-.001c-.003-.024-.023-.056-.023-.057q.004 0 .007-.003l-.02-.076.01-.002-.013-.09-.007.001c-.005-.013.004.004.004-.011l-.018-.067c-.006-.013-.008.005-.01-.007l.01-.003c-.006-.023-.02-.026-.02-.036l.008-.002-.012-.05.01-.002-.011-.039.007-.001q-.011-.04-.027-.076l.009-.002-.008-.03.009-.002-.01-.111q.007-.006.013-.014l-.003-.019.008-.003-.005-.019.01-.002-.009-.03.01-.002-.005-.05.016-.013-.006-.02c.002-.007.01-.011.012-.023l.017-.005c-.002-.053.022-.058.041-.092l.008-.034.017-.005.012-.034.03-.018-.002-.01.026-.005-.002-.01.023-.017q0-.01.004-.022l.024-.007-.001-.007.034-.011q-.002-.002-.004-.01l.019-.004q-.003-.004-.003-.009l.026-.006-.003-.012.017-.002.009-.034.034-.008c.004-.004 0-.018.013-.024l.004.009.07-.039.01-.032c.011-.009.006.003.012.006.019-.006.012-.012.014-.014l.035-.008-.003-.01c.015-.015.031-.018.058-.024l-.04-.124-.01.001-.005-.019-.009.002-.006-.029-.009.003-.03-.086-.01.003q-.008-.019-.018-.037l-.016.004c-.017-.037-.04-.045-.057-.078l-.017.003-.006-.019-.016.004-.008-.028c-.04-.011-.043-.026-.075-.042-.032-.024-.067.008-.115.006l-.002-.009c-.017.003-.015.015-.015.015l-.198.051q0-.006-.002-.011l-.044.002c-.012-.017-.017-.027-.037-.033l-.018-.078c0-.025.012-.072-.01-.112-.02-.036-.089-.117-.084-.186l.008-.001v-.041l.008-.002-.006-.02.015-.014-.004-.019.013-.012-.007-.031q.008-.006.015-.014v-.041l.012-.014-.004-.019.015-.015-.004-.018.014-.015-.007-.03q.014-.016.027-.036l.001-.032.013-.015-.003-.02.027-.037c.019-.065-.04-.196-.034-.27q.005 0 .01-.003l-.005-.019.02-.024-.005-.02.015-.016-.002-.048.031-.05-.005-.02.014-.015q-.002-.018-.009-.038l.02-.026v-.04l.016-.015-.008-.06.008-.003-.006-.028q.003-.003.008-.003l-.004-.02.008-.002c-.004-.01-.006-.027-.01-.039h.007q0-.012-.003-.02l.008-.004-.013-.048.008-.002-.007-.03q.006 0 .008-.002l-.04-.165h.008l-.006-.063h.006v-.042l.01-.002-.005-.019h.007c.011-.029.02-.045.018-.08l.024-.015a.01.01 0 0 1-.003-.01l.017-.005.004-.022.045-.03.005-.024.029.004q-.004-.004-.004-.01c.017-.01.03-.02.048-.032zm-1.004 1.781-.017.004-.015-.026c-.083-.004-.175-.172-.182-.285.015-.01.007 0 .014-.014.015.008.016.02.024.025l.017-.005.025.025.029.004.004.018.03.015.006.019q.03.038.072.064c.017.078.003.103-.007.156m.3-1.15q.001.01.005.02h-.01l.006.053-.009.002.004.05-.015.016.005.017-.01.002.007.02-.009.002.005.02-.015.014.005.02-.015.014.008.03-.016.012.005.02-.008.002-.015.045-.019.005-.003.021-.07.04a.3.3 0 0 1-.118.04l-.003-.01-.017.004q0-.006-.003-.01c-.039-.005-.082.03-.113.018-.012.005.003.007-.005.012-.049.024-.136.03-.162.01-.03-.01-.048-.03-.063-.065.015-.029.009-.067.02-.1q.025-.031.048-.063l.017-.004.016-.044.086-.056.005-.02c.014-.012.04.004.069-.018l-.002-.01.016-.004-.004-.009.036-.01q-.004-.005-.003-.008l.042-.013.004-.019.018-.007-.003-.01.052-.01-.002-.01.025-.007-.004-.01.053-.013.002-.022c.014-.015.019-.005.031-.027.044-.013.073-.017.101.005h.008q.013.03.025.063-.004 0-.007.003zm-1.943.917.008-.003-.007-.03h.01l-.016-.059.009-.003-.017-.069h.01l-.012-.04.01-.003-.04-.155h.008l-.01-.04.014-.015-.004-.02.015-.013-.005-.02h.008l-.004-.02.008-.003-.006-.06.008-.002-.007-.029.015-.015-.015-.057.007-.003c0-.023-.015-.027-.015-.027l.001-.03c-.005-.007-.01.002-.013-.019 0 0 .01-.006.003-.022l-.008.002-.013-.088-.009.002c-.01-.02 0-.032 0-.032-.001-.02-.012-.017-.012-.017l-.027-.106-.01.001-.006-.029-.01.002-.003-.019-.007.002-.009-.029-.02-.005-.029-.076-.019-.004-.005-.022-.008.004c-.022-.019-.043-.027-.061-.056-.038.007-.042.004-.072-.005l-.003-.009c-.032-.005-.073.025-.092.035l.035.137s-.01 0-.004.02q.005-.003.01-.002v.01l-.014.014.023.087-.01.002.006.02-.007.002.008.038-.015.015.033.198-.01.001.007.022-.01.001.01.038-.007.002q.001.01.005.021l-.009.001.007.03q-.005 0-.009.003.001.008.006.02h-.01q.003.015.01.03-.009 0-.01.003c0 .017.012.014.013.017l.004.008q-.006 0-.01.002.002.015.008.03l-.009.001.007.03-.015.013.008.03h-.01l.008.03q-.003.003-.008.004l.006.028-.006.002.014.163q-.01.005-.016.013.001.046.006.093-.005 0-.01.003l.006.018-.01.002.008.029h-.007c0 .014.015.016.017.039q-.005 0-.008.003l.012.048-.008.001.015.057-.01.004.005.019-.01.003.01.039-.01.001q.007.015.01.029l-.01.002q.008.023.015.051-.007 0-.009.002l.007.025q-.005.004-.009.003l.006.02-.01.003q.004.014.006.029l-.006.002q-.001.01.004.02l-.021.026v.031c-.011.017-.015-.002-.022.026-.07.009-.134-.042-.183-.078l-.03-.012-.005-.02-.03-.013q-.005-.01-.006-.02c-.007.002-.01.004-.017.005l-.005-.019c-.036-.003-.01-.003-.032-.023l-.009.003-.016-.028-.009.003-.007-.029-.018.004-.016-.026-.008.002q-.002-.015-.007-.031l-.019-.005-.022-.046-.008.004c-.017-.016-.02-.018-.031-.046l-.015.005-.005-.021-.02-.003-.028-.077-.02-.004q-.001-.011-.005-.02-.003.002-.008.002l-.01-.039-.007.001-.006-.018-.01.002-.022-.056-.009.002-.01-.038-.019-.006-.007-.03-.02-.004-.013-.05-.02-.004q-.017-.058-.037-.115l-.009.004-.005-.02-.008.001-.02-.078-.008.002-.007-.028q-.006 0-.009.002l-.005-.02-.008.003-.021-.078c-.002-.005-.012.002-.024-.025q-.024.008-.052.014l.006.06c.006.012.008-.007.012.007l-.015.014q.011.054.019.11h-.008c0 .032.028.07.03.087l-.008.002.028.115c.002.002-.01.013 0 .033l.004-.001.004-.003.012.08h.008l-.003.02s.005 0 .009-.002l.007.03.008-.002.012.049q.004-.004.007-.003l.01.038.01-.002.013.047h.007l.075.218q.004 0 .008-.003l.004.02.009-.003.007.03h.007q.005.008.008.017l.008-.002.02.045h.01l.021.046.017.005q.007.015.01.03l.04.02q.005.014.007.029l.01-.001.005.018.008-.002q.001.01.005.019.02.011.043.021l.001.01.02.005.005.02a.13.13 0 0 0 .069.023q0 .01.006.019c.02.002.022.003.039.011l.001.011.018-.005.014.015.008-.001.013.017.016-.003q.002.004.002.009l.018-.004c.005.002.011.011.023.015.027.106 0 .156-.015.232-.008.04.02.041-.019.066q0 .007.006.018l-.018.006c.002.063-.02.042-.034.08l.004.02-.014.014.003.01-.047.032q0 .01-.003.022l-.067.025-.004.022c-.005 0-.01.005-.016.005q-.02.063-.042.125a.03.03 0 0 0-.016.004q.001.01.005.019l-.018.004.002.011q-.024.043-.05.084v.041l-.015.015c-.013.028-.044.081-.043.114l-.017.003c.002.037-.024.075-.038.105q-.007.004-.014.013l.001.041c-.003.008-.034.038-.042.052-.014.027-.012.058-.023.089l-.02.026.004.018-.032.051.004.018-.02.026.005.02-.022.026.005.019-.02.026v.031l-.019.005c.002.066-.075.134-.096.188a.03.03 0 0 1-.019.006c.006.07-.02.047-.05.085l-.003.021-.04.063c-.01.029-.007.056-.026.078l.04.083.02.006.03.084.01-.002.004.018q.011.003.019.008l.006.017q.004 0 .007-.002l.008.03.009-.001.006.028.01-.001-.004.022.021.003.004.02.03.014.006.02.03.012.05.09.02.005q.029.022.057.048l.026-.006q.004.008.004.018c.028 0 .056.01.077.012l.052-.014.001.012.016-.005.004.009.025-.007.003.009.017-.003.002.01q.01-.001.017-.005l.013.019.017-.004q.02.015.036.031c.027.017.02-.011.044.03q.01-.002.017-.006l.006.021.064.035q0 .006.002.009l.016-.003.006.02.016-.004.006.019.017-.004.002.008.02.006.004.02.075.042.005.021.03.012.004.011.018-.005q.006.013.015.027.015.008.03.011c.036.026.063.056.108.066l.004.02q.009 0 .019-.004c.018.036.004.012.032.023l.001.01q.01-.004.018-.004.002.004.002.01l.017-.005.003.008.018-.003.013.017.029.003.001.009c.005 0 .013-.003.016-.004l.004.011q.007-.004.018-.003v.007l.019-.004.002.012q.01-.005.016-.006l.015.018q.008-.005.016-.005l.002.007q.018-.002.035-.006l.015.018.093-.025-.003-.009.017-.004q-.002-.005-.002-.011l.04-.02-.002-.01.016-.005.016-.045q.013-.006.025-.017l-.006-.019.016-.004c-.002-.03-.002-.032.007-.053l.007-.002-.001-.04.008-.002-.004-.051.021-.027-.006-.029q.003 0 .008-.003l-.02-.076q.004-.002.01-.002l-.009-.03.01-.001-.017-.059.01-.001-.01-.038.007-.002-.018-.078.008-.003-.004-.02.007-.003c.002-.031-.032-.094-.035-.104q.006 0 .009-.002l-.005-.019.008-.003-.007-.028q.007 0 .007-.003l-.049-.203.007-.002-.004-.019.008-.003-.009-.039.008-.002-.007-.03.007-.001-.016-.069.008-.002c-.001-.014-.006-.024-.01-.039q.004-.002.01-.002l-.027-.107.009-.002-.014-.048.01-.003-.002-.04.009-.003-.02-.079h.008l-.008-.029.01-.002q-.005-.015-.008-.031l.009-.001-.03-.157.007-.002-.006-.02.01-.002-.01-.078.008-.003-.005-.02.008-.002-.011-.081h.008l-.01-.04.01-.002-.02-.078.007-.002-.008-.038.008-.003-.01-.039.015-.013q-.007-.02-.01-.04l.009-.001-.01-.04.008-.002-.01-.039.008-.001-.012-.05.009-.002-.01-.039.009-.002-.005-.02.008-.002-.01-.039.01-.002-.008-.028.008-.002-.01-.039.015-.013-.015-.059.01-.003-.008-.028q.002-.002.008-.002l-.007-.03.008-.002-.008-.03h.008l-.008-.039q.003 0 .008-.004l.002-.061.009-.002-.044-.145.007-.001c-.002-.016-.014-.018-.014-.018-.007-.02.004-.021.004-.021l-.025-.097.01-.002-.02-.068.01-.003-.002-.009-.009.003-.023-.129.008-.003-.004-.018.015-.016-.006-.018.01-.003-.017-.099.01-.003-.008-.029.008-.001-.008-.03.014-.013q-.003-.076-.01-.153l.01-.001q0-.021-.003-.042l.008-.002zm-.36 1.877-.01.001q.007.02.01.04l.02.076-.007.004.007.029-.01.002.022.087-.008.002.004.02-.008.003.01.038-.008.002.007.029-.01.002.029.107q-.004.002-.009.002l.005.019-.009.003q.009.028.014.058l-.008.002.006.02-.01.002.006.018-.014.014q0 .01.003.02l-.007.002q.007.055.018.109l-.014.015.009.039-.01.001q.004.009.006.021l-.008.002.005.091-.008.002.005.02h-.01q.004.01.006.022l-.016.012c.002.008.005.012.006.021l-.014.014.005.019-.016.013.008.03-.009.002.007.018-.01.002.005.02-.022.027.007.02-.01.001-.01.035c-.023.009-.035.032-.052.043-.033.023-.112.021-.133.012l-.013-.016h-.046l-.013-.018-.017.007q-.013-.013-.024-.027h-.038l-.013-.017-.026.006q-.005-.008-.014-.017l-.016.005-.004-.009-.03-.014a.56.56 0 0 1-.021-.335q.007-.007.016-.013l-.004-.052.014-.014-.006-.018.028-.04-.001-.04q.005-.007.015-.014l-.006-.02.028-.037-.005-.019.02-.028-.002-.009c.019-.023.03-.019.03-.059.023-.013.026-.018.023-.048.053-.021.05-.078.07-.12.012-.023.034-.036.04-.061l.017-.004-.001-.042.023-.016.034-.08.014-.015-.001-.042.01-.001c.01-.03.02-.051.044-.073l-.002-.01.075.012c.01.021.032.048.032.085m5.21.093-.01.003c-.01-.013-.009-.014-.018-.037l-.016.005c-.013-.024-.022-.025-.039-.042l-.007.003q-.006-.016-.009-.031l-.007.003-.02-.037-.025.007c-.016-.031-.025-.021-.04-.052-.03 0-.037-.016-.061-.025q-.005-.01-.005-.02c-.045-.002-.047-.037-.093-.039-.021-.044-.049-.035-.084-.05l-.012-.017a.3.3 0 0 0-.114-.044l-.005-.019c-.024-.002-.03-.008-.049-.018l-.003-.012-.016.005-.015-.017-.016.005-.003-.011-.016.004q-.003-.004-.003-.009-.01.004-.017.005l-.003-.01-.015.003-.018-.015-.015.003-.003-.009-.037-.001v-.011l-.027.008-.002-.01q-.009 0-.018.004l-.024-.025-.018.005-.002-.01-.17.042-.004-.009q-.007.003-.016.004l-.002-.009-.097.014q0 .005.003.011h-.046l.002.01c-.041.021-.13.012-.15.047-.036.024-.023.066-.05.096q.008.025.013.049l.008-.003.069.057h.036l.003.01.03.012q.004.011.005.02c.045.001.067.033.104.046l.005.02c.031.001.026.015.057.016.024.041.018.012.044.029l.016.027.075.043.006.019q.015.01.029.014l.02.038.017.004.01.03.019.005.011.048.02.006.005.019.042.02.007.029.021.006.003.02.01-.002q.007.013.016.025l.036.003q.004.008.004.018c.03.002.053.017.08.023l.052-.006.058.048.028.005c.005.003.01.011.014.016q.048-.005.097-.014s-.001-.014.013-.015l.004.01q.029-.006.06-.015.002.004.002.011l.018-.005q0 .005.002.009l.059-.015c.07-.016.138-.041.195-.059l-.006-.019c.02-.012.017-.016.03-.028l.01-.105c0-.027-.026-.063-.026-.067l.015-.014-.002-.01-.003-.009-.01.002zm-3.187 1.324-.008.002-.01-.038-.008.001-.018-.036q-.004.002-.01.002-.001-.009-.005-.019l-.075-.043-.004-.019-.061-.026-.005-.019q-.008 0-.017.004l-.005-.02q-.008.001-.017.006c-.01-.022-.014-.024-.028-.035l-.008.001-.005-.02-.018-.003-.008-.03q-.014-.008-.032-.014l-.003-.019-.02-.005-.006-.019q-.003.003-.007.002-.01-.014-.016-.027l-.07.017q0 .01-.003.022l-.026.005c-.004.005-.04.049-.04.054l-.001.031q-.014.019-.029.036l.005.051-.015.015.004.02-.008.002.012.049-.008.001.004.02-.007.002.042.163q-.006 0-.01.004l.013.048-.009.002q.009.029.015.059l-.009.001q.005.015.007.03l-.007.002.014.058q-.005 0-.007.003l-.004.061-.007.003.003.05-.022.028.006.018-.04.061.007.019-.016.015.008.03-.009.001.049.227h-.01l.007.061-.016.015.006.018-.021.027q.004.01.005.019-.004 0-.007.003c-.001.041.041.051.043.102h-.01c.004.062.069.102.095.122l.021.007.007.028.064.035.012.016a.04.04 0 0 0 .018-.004l.058.048.036.002.005.019a.2.2 0 0 1 .068.014l.012.017.058.008.002.008.016-.003.003.008.042-.011.003.011q.017-.007.034-.008l.013.016.018-.004.002.01c.029.007.013-.014.039.011q.03-.01.06-.016l.005-.02q.008-.01.023-.018v-.03c.005-.014.023-.023.039-.031l-.005-.052c.016-.008.007 0 .015-.012q.004-.002.009-.002l-.011-.04.014-.014-.006-.028.006-.003-.003-.021.008-.001q-.008-.038-.019-.076.004-.002.009-.002l-.012-.05.008-.001-.011-.05.006-.002-.01-.049.008-.001-.016-.058.01-.003q-.002-.004-.002-.01a.35.35 0 0 1-.049-.153l.008-.002-.01-.04.01-.001-.018-.068.008-.001q0-.005-.003-.011l-.006.002-.018-.067.007-.003-.009-.038.008-.003-.059-.234-.048-.192-.008.002q-.006-.015-.009-.03M52.41 96.5l.024.038q-.001.01-.005.021l.014.015-.006.017.009.004.012.045c.02.028.03.026.037.063.019.006.03 0 .037.003l-.004.008c.02.013.09.04.119.037q0-.006.003-.01.007.004.016.005l.003-.009.053.006.015-.016.058.018.027-.024.026.008.012-.017.017.008.004-.012.017.005.003-.01.06.02.002-.01.016.007.015-.02.025.008q0-.004.004-.008l.076.022c.04 0 .085 0 .14.023l.014.015.003-.01.127.038.008-.027q.004.002.01.002l-.01.028c.066-.007.194-.003.23-.064.029 0 .026-.006.045-.018l.008.002.017-.026h.036l.027-.023.017.005.025-.023.016.006c.018-.029.027-.027.05-.038l.001-.008a.1.1 0 0 1 .03-.004q.004-.008.005-.018l.018.004.008-.027.026.007q.008-.015.017-.026l.01.003c.017-.014.014-.019.04-.019.011-.017.002-.009.014-.016q.004-.006.004-.01l.026.008q.001-.01.005-.02l.02-.005c.023-.015.047-.024.064-.053.028 0 .036-.016.062-.023l.008-.029c.047.011.048-.005.084-.005l.006-.018.017.005c.014-.025.01-.02.035-.02v-.063q-.007-.005-.017-.007c.002-.02.004-.006-.002-.02l.002-.012-.05-.014.004-.01-.034-.01.002-.01-.126-.038s-.01.01-.028 0c.002 0 .003-.006.003-.008l-.127-.04s-.01.014-.028.002q0-.005.004-.009l-.085-.026-.003.01-.009-.004.003-.007q-.02-.008-.041-.014l-.004.008h-.008q0-.007.003-.01c-.009-.005-.017-.005-.027-.01l-.001.011q-.011-.01-.023-.017l-.003.01c-.03-.004-.029-.026-.067-.022q0 .004-.004.01l-.016-.005c0 .005-.002.005-.003.008l-.025-.007-.015.017-.126-.04-.003.01-.135-.01-.005.02c-.028-.007-.051-.017-.07-.012l-.015.017-.056.002-.005.01-.025-.008-.002.011-.046-.005-.013.016a.04.04 0 0 1-.018-.004l-.002.01-.095.002c-.027.01-.012.031-.06.023-.012.018-.003.008-.015.017l-.004.01-.045-.004-.014.015-.025-.006-.014.018-.027-.009-.001.01h-.03l-.005.02-.034-.01c-.026.041-.041.026-.076.038l-.037.032c-.032.017-.044 0-.068.04l-.016-.004-.01.028-.02.005-.02.035-.02.005-.006.02-.02.004-.033.075.01.001-.02.066zm2.145-.04.034.01a.2.2 0 0 0 .007-.083q0-.004.003-.008l-.038-.002-.011.07c.007.011.001 0 .005.013m.025.037-.001.031a.1.1 0 0 0 .054.007l.017-.057-.025-.008.006-.02-.026-.008-.008.06q-.01-.001-.017-.005m.065.115.033-.074-.034-.01-.003.01-.008-.003-.029.064zm-.01.007-.012.038.017.006-.01.03.018.004a.1.1 0 0 0-.007.05q.005 0 .008.003l-.002.01-.01-.004-.011.037.017.008c-.001.02-.003.006.002.021l-.002.01.026.007-.03.066q.008.005.013.014l-.016.12q.01.005.024.007c-.012.048-.003.064-.016.11l.018.006a.2.2 0 0 0-.014.07l.01.002-.018.058q.004 0 .008.003l-.01.09a.01.01 0 0 0 .01.003.02.02 0 0 1-.015.017l-.007.05.025.007a.3.3 0 0 0-.04.072l.017.005-.012.07q-.012-.005-.025-.008l-.015.08s-.017.003-.018.026h.008c0 .018-.005.036-.006.052l.008.004-.013.016-.002.01.004.01c-.004.021-.015.017-.015.017l-.026.087q.004 0 .008.003-.021.06-.047.12c-.017.06-.048.138-.052.174l.008.002c-.004.02-.025.03-.03.066l.01.001c-.005.02-.014.016-.014.016l-.016.047.009.004-.026.054.008.002-.017.058-.01-.002-.034.115.01.002-.004.01c-.006.007-.016.001-.019.027h.01l-.021.07q.003-.001.008.001l-.008.03.008.002-.011.037.007.003-.005.02q.003.002.008.002l-.06.255.008.002-.006.018.008.003-.014.05h.008l-.011.04h.008q-.012.044-.027.088l.02.026q-.011.028-.027.055l.007.002c-.005.025-.012.045-.017.068l.006.002-.025.088h.008l-.003.011q-.004 0-.008-.003l-.02.068.008.002-.053.203c.01.01.01.011.03.02l-.002.01-.027-.008-.009.06.035.01-.003.007c.044.015.033.01.065.003l.01-.038-.008-.004q0-.004.004-.01l.008.004.018-.058-.01-.002c.003-.024.019-.024.021-.037l-.008-.003q.008-.022.014-.047-.003.001-.008-.004l.032-.104h-.01c.007-.019.037-.054.037-.086h-.008l.009-.03q-.005.001-.008-.004l.023-.076-.01-.003q.002-.003.003-.01l.01.003.05-.163.011-.037c.001-.015-.01 0-.005-.014l.01.003.07-.228q-.006 0-.01-.003a.3.3 0 0 0 .015-.05h-.007l.016-.058-.008-.002.017-.026-.009-.005.012-.037-.007-.003.03-.095-.009-.004.009-.027-.009-.002.015-.08q-.004 0-.008-.003l.005-.019-.008-.003.003-.009.008.002.02-.065q-.002-.002-.008-.002l.01-.06q-.009-.005-.016-.006c0-.025.003-.02-.01-.035.014-.009.023-.009.035-.022l.008.003.001-.062.01.002v-.03l.007.002.01-.028q-.005-.004-.009-.004l.003-.008.009.002q.007-.028.017-.058c.005-.016.003-.04.005-.04s.004 0 .006.002l.022-.067-.009-.002c.005-.015.006.005.01-.008q.011-.028.019-.056l-.008-.003.018-.058q-.005 0-.009-.003l.01-.028q-.006 0-.01-.002l.01-.03-.01-.003.037-.144-.01-.004.014-.038-.009-.002.027-.088-.01-.002.01-.059c-.015-.01-.009 0-.014-.016q-.005 0-.008-.002l.005-.02.007.003-.004.02.026.01.009-.03-.017-.006.037-.062-.008-.002.008-.03h-.008l.024-.11-.008-.003.009-.06c-.014-.01-.009 0-.014-.014l.016.005.02-.066-.013-.016.017-.026h-.008c-.001-.033-.005-.056-.001-.086l-.017-.005.002-.01c.013.004.02-.022.02-.036l-.008-.002.009-.03-.008-.002.011-.039-.014-.013.002-.033-.023-.016.009-.03-.018-.005.01-.028-.009-.003c-.003-.01.002-.028-.019-.026l-.003.01c-.016-.039.019-.06-.028-.092l.007-.02q-.014-.005-.025-.007-.015.025-.026.054zm-3.051 5.229.058.018.004-.009.028-.002-.007.019.038.001.003-.009.125.039.004-.011.056-.003.003-.007.013.012.004-.008.028-.002c.004.005-.003.017.015.014l.014-.015.041.011.004-.008q.009.001.016.005 0-.006.003-.009c.026-.007.046.004.074.001l.003-.01.082.003.025-.023c.012-.001.002.007.006.014l.053.005.026-.024q.02 0 .037.002l.013-.018.058-.003q.011-.011.026-.022l.044.001.026-.022.018.005.012-.016.018.004.06-.044.017.005q0-.004.003-.008l.031-.014.007-.018.03-.011.007-.02.042-.016.016-.028.02-.003.024-.047.008.003.006-.018.009.002.005-.02.009.003q.016-.026.035-.052l.008.001q.023-.071.043-.142a.7.7 0 0 0 .054-.171l-.008-.004q0-.02.003-.041l-.009-.003.012-.038-.008-.003.008-.028-.008-.002.01-.029-.01-.002.021-.068-.013-.014v-.032l-.008-.003.008-.028-.008-.002v-.063l-.007-.003.015-.047-.01-.004.01-.028-.01-.003.007-.018-.009-.003c-.003-.015 0-.019.004-.041l-.017-.005.012-.132-.008-.004.015-.046-.007-.003.008-.03-.009-.001.036-.116q.003.002.009.002l.005-.018.009.003.008-.029.008.002.03-.064.008.002c.015-.013.009-.011.03-.011a.4.4 0 0 1 .132-.096l.01-.029.016.005c.017-.026.031-.029.051-.045q.004.002.009.002l.008-.03.01.002.005-.018.009.003v-.032l.009.005.004-.02.01.002.01-.027h.008l.014-.046q.005 0 .008.002l.043-.113.023-.076h.01l.009-.027.009.004.02-.067q-.005 0-.009-.004l.003-.009.008.002c.01-.02 0-.03 0-.03.004-.016.014-.017.016-.017q0-.004.003-.01l-.01-.002.017-.017c-.004-.013-.013.002-.008-.013 0 0 .016-.003.018-.026q-.005 0-.008-.002l.012-.039q.003.003.009.004c.02-.034.003-.06.004-.082.002-.014.008.007.013-.007a.2.2 0 0 0-.001-.084c0-.03.004-.023-.018-.036.002-.02.005-.01-.002-.024l.004-.007-.026-.01.004-.008c-.02-.023-.034-.013-.043-.045-.049-.011-.055.014-.091.024l-.02.1q.008.005.013.014l-.008.03.008.002-.006.02.009.001-.01.06.01.003-.033.105c-.007 0-.014.004-.022.004a.1.1 0 0 1-.008.028l-.008-.002-.038.031-.027.002-.006.02c-.039-.004-.053.012-.101 0-.011.016-.001.006-.015.013l-.003.011q-.03-.002-.061-.008l-.004.01-.037-.002-.005.02a.2.2 0 0 0-.09.024l-.026.024h-.037l-.003.008q-.055-.02-.106-.042c-.005-.015-.022-.028-.026-.04l.005-.018q-.01-.022-.023-.04l.008-.06q.004.003.01.002l.008-.028.03-.01.018-.027.017.005c.032-.055.095-.052.143-.07.024-.012.044-.044.07-.053q.018-.052.032-.105l-.008-.003v-.063l-.007-.002.006-.02h-.009c0-.029.013-.06.006-.085l-.021-.016.002-.008-.017-.007q-.005-.016-.008-.034l-.008-.003.006-.019-.047-.056.003-.01-.035-.01.003-.01c-.005 0-.01-.005-.016-.005l.003-.008-.042-.014.003-.01-.026-.009.004-.007-.06-.02.004-.008-.018-.007.002-.008-.032-.01q.001-.006.004-.01c-.015-.017-.017-.02-.015-.046l-.009-.003.018-.058-.008-.002q0-.005.003-.009l.008.001.059-.16q.005.001.009.004l.028-.066.02-.004.01-.027.007.003q.026-.057.053-.11l.02-.006.023-.045.03-.01.006-.02q.006 0 .01.003l.005-.02.009.004.008-.03.009.003.009-.03.02-.003.006-.02q.002.003.008.003l.016-.025q.01.001.019.005l.071-.146.004.003h.004l.006-.02q.006 0 .01.003.023-.069.053-.142h-.009l.009-.06c-.03-.024-.007-.009-.017-.036a.14.14 0 0 0-.047-.058c.003-.058-.009-.024-.031-.05l-.024-.072-.093-.027-.003.008q-.008-.002-.016-.007l-.004.012-.024-.008-.004.01-.025-.009q-.018.014-.037.032l-.063-.01-.014.018q-.007-.004-.017-.006 0 .006-.002.008l-.039-.02-.002.01c-.027 0-.043-.025-.05-.027l-.002.01q-.017-.007-.033-.01s.003-.01-.015-.016c0 0-.008.011-.019.005 0-.005.002-.005.002-.009l-.025-.009.004-.01-.018-.005.003-.009-.072-.033-.002-.02-.082-.036.005-.02c-.029-.01-.11-.064-.148-.056l-.014.017-.017-.006-.003.01-.017-.005-.003.01-.034-.012-.015.017c-.007.002-.028-.003-.035 0-.017.057-.005.062-.006.103l-.013.046.007.004-.004.02.012.014c.01.022.01.05.024.07l-.017.057c0 .003.01.007.003.023-.036.071-.104.095-.16.13l-.025.021-.025-.007-.016.016-.056.005-.015.015-.034-.01-.002.01-.017-.005-.003.01-.04-.013q-.003.003-.004.01l-.018-.006-.003.009a.3.3 0 0 1-.053-.006l-.003.01-.067-.02-.003-.023-.016-.004.005-.02c-.028-.013-.03-.023-.054-.038l.007-.018q-.037-.024-.033-.073l-.008-.004.021-.066-.01-.002c.003-.015.001.002.013-.008.005-.018-.003-.02-.003-.02.002-.023.017-.027.017-.027l.032-.105.01.002a.2.2 0 0 0 .034-.083l-.009-.002.024-.078-.008-.003q0-.005.003-.009c.006-.008.016.001.022-.013l-.008-.002q.014-.044.026-.089h-.008q0-.006.003-.01l.008.003.012-.04h-.008l.02-.037-.008-.003.014-.08h-.008l.012-.039-.026-.04.01-.029c-.002-.003-.01-.013-.011-.024l-.05-.014c-.006.022-.005.023-.004.038a.1.1 0 0 0-.04-.022c-.012.03-.014.03-.03.043l-.009-.002-.012.038-.02.005a.2.2 0 0 0-.009.058.1.1 0 0 1-.032.012l-.008.03-.008-.004-.007.02-.008-.004-.035.054-.008-.002a.3.3 0 0 0-.025.054q-.012-.001-.02.004a.2.2 0 0 0-.07.103l-.029.004c-.016.032-.032.04-.048.067l-.017-.005-.046.091-.043.02-.005.017-.02.005-.03.065-.042.017-.024.046-.018.004-.008.02-.007-.003-.01.03-.03.01a.2.2 0 0 0-.02.037l-.02.002-.009.03-.009-.003-.007.028-.02.005a.3.3 0 0 0-.062.075l-.016-.003c-.018.044-.023.038-.05.07q-.003-.005-.008-.006l-.025.055-.01-.002-.004.018h-.008l-.01.026-.02.007-.02.035-.009-.003-.02.035-.01-.002-.025.054q-.008.004-.02.004l-.012.04-.02.004-.016.024-.008-.002-.07.106-.008-.003-.005.02q-.006-.001-.01-.004l-.014.048-.009-.002-.005.02-.01-.004-.008.03-.009-.002-.03.061-.017.005-.022.037-.02.003-.039.103-.021.005-.008.028h-.01l-.004.018-.009-.004-.01.028q-.015.008-.03.012l-.006.02-.009-.002-.034.083-.009-.004-.009.03q-.005-.001-.008-.004l-.01.03-.007-.003-.01.028h-.008l-.006.02-.008-.005-.018.06-.009-.005-.006.02-.007-.003-.012.038-.008-.004-.007.02-.008-.003-.013.038-.007-.002-.007.02-.008-.003q-.007.019-.012.04l-.008-.004-.006.02-.009-.004-.02.068q-.005-.004-.008-.003-.004.007-.007.02l-.007-.004-.012.038-.009-.002-.005.019-.01-.003q-.011.029-.026.055l-.008-.003-.006.02-.009-.003-.008.028q-.005 0-.008-.003l-.041.103h-.009l-.01.027q-.002-.003-.007-.003l-.009.03-.008-.005-.012.04-.009-.003-.034.052-.008-.003-.044.111-.008-.003c-.018.027-.022.055-.042.074l-.02.004-.011.04q-.005-.005-.008-.005l-.011.038h-.01l-.018.056q-.001-.003-.007-.004l-.007.02-.008-.004-.011.04-.02.002-.011.04-.01-.002-.012.037h-.008l-.014.047-.008-.003c-.01.017.005.04-.013.069l-.009-.002a1 1 0 0 1-.035.083l-.008-.002c-.009.013.003.018.003.021-.001.006-.022.021-.023.046q.005 0 .008.002l-.026.085-.01-.002-.008.091.008.004a2 2 0 0 0-.04.134q.007.001.014.006c-.002.016-.001.036-.002.04l-.01-.003-.012.047.009.003a.1.1 0 0 0-.01.029q.002.002.009.003a.1.1 0 0 0-.009.028c.002.004.01.01.012.015q-.008.022-.014.049l.008.001-.005.019.009.003-.02.058.015.014-.008.03h.007v.033l.014.015-.008.028.008.004c.001.052-.022.07.001.114q0 .007-.003.009l.025.008c-.008.029-.017.053-.01.07l.012.016c.007.032-.022.02.015.046a.2.2 0 0 0 .009.086l.014.015-.006.019q.005 0 .009.003c.007.018.012.028.01.055l.026.008c-.005.06.036.074.066.115l.008.035.027-.005.01.036q.016.004.032.011l.014.045.05.017-.003.008.026.008-.003.009q.056.013.113.024l.001-.009q.014.009.024.018l.015-.017c.01.007.01.023.01.024l.127.04.003-.01.017.006.002-.012q.034.012.068.021l.015-.015.033.01.003-.008c.02-.002.034.021.039.02l.002-.008.018.004.002-.01c.028-.001.089.022.099.042.03.005.028.007.042-.02q.023.004.045.005l.003-.01.076.023.014-.016.084.025q0-.004.003-.008l.017.004.026-.024.023.019.014-.017.042.014q0-.007.004-.01.015.003.033.01l.014-.017q.036.005.071.012l.026-.025.084.026.026-.023q.007.005.017.005l.002-.009h.037l.003-.008q.025.006.05.016a.23.23 0 0 1 .164.039l.042.013.002.021.008.003.004-.009.022.018.002-.011.034.011s.003.017.023.017l.003-.01.106.043.015-.015.051.014.028-.032.008.003.026-.023.016.004.015-.017.026.007.038-.03a.1.1 0 0 0 .033.011l.003-.01.024.007zm.662-.801.006.002q.006-.01.007-.017l.01.001.006-.018.031-.012.005-.019.02-.005q.004-.009.006-.019l.008.003.038-.03c.036-.012.036.013.071-.021.015.011.007.002.014.015.037.014.031.024.05.048-.015.105-.032.121-.085.183l-.056.002-.006.02-.018-.005q0 .005-.002.009l-.059-.017-.002.009-.018-.006-.002.01c-.033.004-.045-.007-.068-.021l.01-.029-.009-.001c.013-.046.02-.058.043-.082m-.536.243q-.022.001-.046-.004a.3.3 0 0 1-.048.037l-.079-.013-.003.01-.017-.004-.002.007q-.009-.001-.016-.004-.008.01-.017.017l-.033-.011-.003.01-.033-.012-.003.011-.067-.022q-.004.006-.004.011-.01-.01-.022-.017-.003.004-.002.01-.01-.005-.018-.006l-.004.009-.015-.003-.014.016-.044-.014-.013.017-.11-.033-.002.006c-.009.001-.018-.004-.025-.005l-.004.009-.037-.001-.003.011-.025-.01-.002.011-.052-.015-.002.009-.025-.008-.048.038-.085.005-.027.022q-.028.005-.056.005c-.013.024-.019.018-.03.042-.035-.002-.069.011-.098.013l-.05-.015q-.001.005-.004.008l-.016-.003-.003.008-.016-.005-.015.016-.034-.01-.003.009-.025-.008-.003.01-.034-.01-.014.017-.084-.025-.003.006-.026-.006-.002.009q-.014-.003-.026-.008l-.015.017-.05-.015-.015.017-.067-.022q0 .007-.003.01l-.053-.005-.003.009-.017-.005-.014.015q-.064-.002-.127-.006c-.025.038-.02.017-.054.025l-.003.009-.025-.006-.003.008-.017-.005-.026.023-.045-.004-.002.012c-.02-.001-.024-.018-.024-.018l-.067-.021q.001-.007.004-.01-.01-.002-.019-.007.003-.003.004-.007l-.066-.054-.003-.02q-.01-.001-.017-.006c-.017-.019-.023-.039-.047-.057q.005-.049-.033-.072c.006-.067-.031-.102-.024-.164l-.017-.005c.002-.028-.004-.034-.01-.057l-.008-.002.012-.037-.009-.004.015-.047.008.002.008-.05.018-.004.059-.098.01.003a.04.04 0 0 1 .004-.019l.007.002.01-.029c.007-.012.01.008.012-.006.001-.014-.015-.001-.006-.014l.008.004.02-.036.02-.004.007-.019.008.003.051-.08q.01 0 .02-.003l.02-.037.01.002.004-.018.01.002.006-.018.007.002q.004-.015.01-.029l.019-.003.006-.02.02-.004.005-.019.02-.005.026-.054.009.002c.014-.012.017-.013.029-.032q.007.003.017.004c.018-.031.041-.055.057-.097l.028-.002.104-.156.017.004a.2.2 0 0 1 .04-.07l.009.001q.033-.056.063-.116l.02-.003.009-.03.021-.004.045-.09.02-.005.051-.079.01.003.004-.018q.006 0 .01.002.016-.043.035-.084l.009.004.005-.02.007.002.025-.044.009.003q.016-.03.032-.052l.01.001.028-.064.01.001.005-.019.008.004q.016-.027.034-.052.006 0 .01.002l.012-.037.008.002.005-.02q.005.004.01.003l.026-.054.008.003.005-.02.01.003.005-.02.02-.004.042-.08.01.002q.004-.01.005-.02l.01.002.01-.037q.012-.004.02-.004c.02-.02.024-.049.04-.072l.009.002.037-.093-.007-.002q0-.006.003-.01l.008.003.02-.035.008.001.027-.054.008.001.012-.037.008.003.024-.044.009.001.005-.019.008.004.023-.046.032-.012.006-.02.02-.004.05-.078q.006.001.01.004l.006-.02.019-.004v-.03l.01.001.017-.057.008.002.01-.029q.002.002.008.003l.05-.162.008.002.006-.02.008.004.01-.029.02-.004.005-.02a.04.04 0 0 1 .02-.004l.005-.02.032-.01.009-.029.008.002.017-.026c.028-.019.06-.01.086-.037q.062.022.125.04c.012.006-.006.01.007.011l.002-.008c.039.002.131.03.152.047l-.002.009.024.008-.002.008q.11.036.219.067l.019-.002-.002.01.026.006-.004.01.033.01-.002.01.1.03-.002.01.03.02-.005.02.052.036-.005.02.017.005c-.004.028.005.052.004.075 0 .041-.057.122-.072.145l-.026.054-.031.013-.017.025h-.01a.13.13 0 0 0-.053.055c-.052-.004-.056.024-.091.054q-.016.006-.031.014l-.014.014a.04.04 0 0 1-.018-.005l-.015.018-.016-.007q-.028.023-.06.046-.007-.005-.016-.006l-.007.02c-.032 0-.046.018-.079.017-.02.04-.04.024-.068.042l-.015.016q.006 0 .01.004l-.003.008-.026-.008-.003.011c-.025.011-.044.03-.073.03l-.003.008c-.01-.003-.018-.003-.027-.009l-.005.02-.017-.005a.4.4 0 0 1-.148.122l-.015.047h-.008c-.023.087.016.088.029.144l.098.04h.028l-.002.008.09.038.002-.01.042.012.003-.008c.013.004-.006.006.006.012l.095.02.003-.01h.038l.002-.01.025.008.004-.008.016.004.002-.01q.021.009.044.013l.024-.02.018.003q.012-.013.026-.024c.022-.004.067.024.072.034.06.02.048.05.076.085-.031.102-.053.107-.104.157l-.007.02-.05.046-.017-.007-.015.017-.026-.008-.024.025a.04.04 0 0 1-.018-.006l-.048.038h-.037c-.03.021-.064.043-.093.065l-.017-.007-.037.032c-.032.013-.047.005-.07.043q-.01-.005-.023-.009a.14.14 0 0 1-.075.061l-.004.009-.016-.005-.041.04-.008-.003-.014.017-.017-.005-.026.024q-.005 0-.008-.004l-.005.019c-.015.012-.023 0-.043.02l-.017-.006-.006.02-.017-.005-.006.019-.016-.006q-.024.02-.049.037c-.046.028-.099.042-.137.084l-.016-.005-.007.02-.008-.003-.059.043-.018-.004-.013.016q-.005 0-.009-.002l-.006.018-.02.005q0 .004-.003.01l-.016-.006q-.019.014-.038.032c-.03.012-.047.001-.073.029l-.034-.011c-.013.023-.017.025-.038.031-.026.096.012.127.022.196l.07.021-.003.01q.008 0 .015.004l-.003.009c.018.015.06.009.062.009l-.002.009q.064.03.133.02.005.009.014.016s.004-.014.019-.005c0 0 .005.015.022.017.038-.002.072-.03.111-.029l.006-.019c0-.001.016.022.03.019q0-.005.003-.008l.017.005q0-.006.003-.009.015-.003.028-.002l.017-.027.038.001.014-.016.045.003.025-.022.029-.003.002-.011.018.006.014-.016.025.007.008-.028c.03 0 .047-.013.072-.021l.017.006.003-.01.045.004.013-.017.026.008.002-.009.018.005q.007-.007.014-.018l.025.009.014-.017.027.008.002-.009.025.007.004-.009.017.005.002-.009.026.007.003-.009.016.006.014-.016q.013.007.022.016l.004-.01.025.008q0-.007.003-.01l.054.006.015-.016.015.006.004-.011q.008.005.016.006l.004-.01a.2.2 0 0 1 .052.008l.004-.012c.025 0 .02.004.033-.02.03 0 .049-.014.071-.021l.019.006.047-.037.017.005.004-.009.018-.006.007-.019.028-.002c.037-.021.057.013.092.029q-.001.026-.006.051l.009.002c0 .042-.031.064-.043.081l-.03.064-.019.004-.02.037c-.016.016-.034.025-.052.046-.027-.001-.034.007-.064.002l-.007.018a.3.3 0 0 0-.075.009l-.005.01-.044-.005q-.001.006-.004.01l-.016-.005q0 .006-.003.01h-.028l-.02.038q-.005 0-.008-.003l-.001.031s-.014.002-.018.026l.01.003-.004.01-.008-.003-.044.143.008.001-.012.04q.005 0 .008.002a.2.2 0 0 1-.032.106l-.019.004-.023.045-.03.002zm2.21-3.58-.044-.036-.003-.02-.025-.009-.002-.023a.03.03 0 0 1-.016-.004l.001-.01q-.03-.006-.061-.008l-.006.02q-.01-.004-.018-.005c-.01.02-.008.023-.02.033h-.009l-.007.028-.021.004-.012.037-.02.005-.011.037h-.008l-.006.02-.01-.006-.024.078-.006-.002-.006.018-.01-.002-.017.057-.02.004-.014.047-.008-.002-.009.03-.01-.003-.008.03-.02.003q-.007.028-.017.057l.008.003-.003.01q-.004 0-.009-.003l-.02.066-.008-.002-.006.02-.008-.003-.021.067-.007-.002-.008.02-.009-.005-.02.067.01.004-.005.01-.016.025.008.002-.006.02.01.003q-.008.02-.012.037l.008.003c.002.017 0 .018-.004.042l.018.004c-.004.028.004.025.001.054q.009.001.017.005c-.003.028.005.025.002.052l.079.046-.005.01.086.025s.003.018.021.018c.021 0 .044-.013.068-.01l.01-.03q.02.008.042.013l.003-.01.016.007.003-.01.02-.005.007-.02.004.002.004.001.036-.03q.017-.005.032-.012l.005-.019.009.003.032-.074.008.002.01-.028.008.002.015-.078h.01c.01-.019-.003-.028.002-.04l.008.003a.16.16 0 0 0 .035-.083l-.009-.002.01-.028-.009-.004q.018-.04.035-.083-.005 0-.008-.002l.02-.068-.008-.003.007-.017-.01-.005.01-.029q-.008-.006-.014-.013l.012-.038-.01-.002.007-.02-.009-.003.014-.049h-.007l.006-.023-.015-.012.006-.02zm.125 2.707-.008-.001.023-.046-.008-.003.026-.054.01-.059c0-.004.011-.002.014-.018l-.01-.002.011-.061c-.002-.028-.013-.032-.006-.075-.038-.012-.047-.006-.073-.001l-.049.131.008.003-.017.057-.01-.002-.029.097-.019.002a.02.02 0 0 0 .002.023c-.005.022-.013.016-.013.016l-.016.048-.008-.002-.006.019q-.005 0-.009-.003l-.014.047.009.002-.003.012-.009-.004-.018.058c0 .003.01.006.002.022l-.008-.002-.02.067-.02.004-.03.064-.02.005-.004.018q-.004 0-.01-.004l-.031.075.008.002q0 .008-.003.011l-.008-.002c-.01.012-.012.013-.02.035l.017.005c-.04.057-.043.17-.082.237l-.009-.004-.003.011v.031c-.007.013-.007-.007-.01.007-.011.028-.008.09-.032.127l-.007-.002-.01.028-.008-.002-.006.018-.01-.002q0 .005-.003.009l.01.004-.02.066q-.005 0-.01-.003l-.015.049-.02.004-.012.069-.007-.002q-.007.019-.012.039l-.008-.003c-.012.018.001.029-.003.04l-.007-.003q-.008.015-.011.029l-.008-.003-.001.032-.009-.003-.023.077-.006-.001c-.02.027-.023.079-.023.096l-.034.106a.4.4 0 0 1-.009.091s-.015.004-.017.027c0 0 .01.012 0 .032l-.01-.005c0 .019-.003.033-.005.052-.002.001-.011 0-.014.017l.008.002-.003.009q-.004 0-.008-.004l-.012.039-.009-.002-.011.038q-.004-.002-.01-.002c-.008.02.004.061-.017.088q-.01 0-.02.005l-.01.028-.03.011-.072.146-.017-.006c-.022.053-.027.027-.052.048l-.02.035q-.026.015-.053.025l-.014.017-.017-.005q-.009.008-.015.016l-.017-.005-.014.018-.018-.006-.013.016-.07-.01-.004.009q-.027-.003-.052-.008l-.004.01h-.037l-.002.01-.072-.011s-.002-.017-.021-.019q-.002.008-.004.01-.02-.004-.042-.012l-.003.01-.016-.006-.003.009-.11-.033c-.01-.006.006-.01-.006-.013l-.002.012-.05-.017-.005.011-.025-.008-.002.009-.023-.018-.003.011-.033-.012.002-.01-.087-.016.003-.008-.026-.009.004-.009-.022-.02q0 .008-.003.013l-.202-.063q0-.006.003-.011l-.017-.006.002-.007q-.054-.019-.11-.036.003-.002.003-.009l-.024-.009-.002-.019-.035-.012-.003-.021-.033-.01.004-.01q-.01-.004-.018-.005l.003-.011c-.025-.02-.032-.002-.044-.035-.058-.019-.098-.034-.124.015l-.026-.007c-.002.035.004.023.014.046q.003 0 .008.004l-.01.028.024.018.001.021.018.004-.003.01.017.004.007.035.03-.001-.006.019c.02.014.018.007.016.035.035.017.018.022.053.038-.003.028-.005.022.016.038l.006-.02.008.002-.008.028q.038.024.077.045l-.005.019.055.029v.008q.006.005.015.005l-.003.011c.018.013.036-.001.044.004l-.002.009c.022.016.039.022.06.041l-.001.008q.042.012.084.028c.012.008.035.038.063.038q0-.005.002-.009l.05.015-.003.01.034.01c.033.024.04.014.093.029l.01-.029c.018.035-.003.041.055.06l.005-.02.009.004-.003.008.025.008-.003.009.087.017-.003.01.053.006-.003.009.009.003.003-.009q.058.022.115.046l.003-.01.034.01q-.003.004-.004.01c.018.009.03-.002.03-.002l.033.011-.002.009c.011.003.016-.011.035 0l-.002.011c.017.005.038-.024.064-.001l.004.022.007.001.003-.01.026.009.001-.01.064.01c.03-.049.024-.016.062-.024q.008-.008.013-.017.01.002.017.006l.004-.01.033.01.004-.009.065-.032q.001-.01.005-.019l.078-.04.02-.036.01.002.019-.064c.08-.132.125-.293.184-.479l.042-.135-.01-.002.012-.039.009.004v-.031l.009.001q.008-.029.018-.056l.008.002.011-.039.01.004.013-.047q.006 0 .01.002.007-.029.017-.059l.008.001.019-.056-.008-.002c.002-.018.012-.015.012-.015.012-.023.01-.059.011-.061l.007.002q.02-.06.039-.125h-.009l.015-.05q.005 0 .008.003l.003-.009-.008-.003q.008-.008.014-.017c.002-.014-.011.002-.005-.012l.008.002c.011-.022 0-.025.003-.04l.03-.094.009.002c.01-.019.001-.031.001-.031l.014-.049.009.003a.2.2 0 0 0 .017-.089l.103-.335.009.003c.008-.017-.003-.022-.003-.022q.022-.051.04-.102l.007.002.009-.018.008.002.004-.009-.01-.004.047-.091.008.003.012-.038.009.001a.3.3 0 0 0 .03-.125c.017-.044.06-.126.066-.19m6.31-1.494.004-.03q-.008-.002-.017-.002v-.01c-.02-.03-.005-.048-.044-.067-.007-.075-.072-.113-.079-.192l-.017-.004.003-.019-.017-.004.003-.029-.018-.002c0-.029-.007-.025-.01-.05-.026-.015-.037-.039-.054-.06l-.004-.022-.038-.005-.01-.032-.028.006v-.01h-.008q0 .01-.003.02h-.008l.001-.01-.035-.008-.004.03c-.052.007-.02.016-.043.045l-.019.007-.043.055-.004.03-.04.024q0 .015-.004.03l-.018.008-.003.02-.01-.002c-.009.012-.008.017-.013.04q-.01-.004-.019-.003l-.003.03-.017-.005c-.013.035-.035.051-.048.086l-.017-.002-.004.02q-.008 0-.017-.004c-.028.076-.09.107-.116.187l-.017-.004-.016.049-.017-.003-.048.084q-.013.005-.027.006l-.004.022q-.003-.002-.008-.002l-.003.02-.008-.002-.004.02h-.008l-.004.017h-.008l-.002.02-.02.007-.002.02-.01-.002-.012.03-.03.015-.004.04-.011-.002a.1.1 0 0 1-.011.028l-.03.016-.005.04c-.017.032-.05.032-.064.072q-.009 0-.017-.004l-.04.098-.04.023-.004.03h-.009c-.015.032-.011.07-.012.09l-.02.006-.005.04h-.01q.002.014.007.03l-.02.007-.005.03-.02.008-.002.018h-.008l-.008.05-.029.016-.003.02-.008-.003-.013.03-.017-.003a.3.3 0 0 1-.049.094l-.04.025-.003.02-.019.006-.003.021-.048.032-.004.021-.018.008-.003.019h-.009l-.003.019q-.003-.002-.009-.002l-.013.028c-.03.005-.034.008-.042.045l-.017-.001c-.009.025-.016.02-.025.045l-.017-.001-.013.026-.008-.001-.006.04-.04.026-.012.017-.028.018c-.01.013-.004.028-.013.036l-.05.026-.004.029-.038.025-.004.02-.02.016-.02.008q-.001.02-.005.04l-.018.007-.012.029-.01-.001-.013.028c-.043.007-.012.007-.033.036l-.019.007-.004.03-.008-.002-.014.03q-.008.002-.018.008l-.006.038-.019.008-.015.038-.018.008a.24.24 0 0 0-.041.105l-.018-.003c-.004.011-.009.017-.014.028h-.008l-.003.02-.018.006q-.004.016-.005.03l-.02.008-.016.058-.048.033-.018.048-.018.007-.043.054-.018-.002a.1.1 0 0 1-.02.032.1.1 0 0 1-.031.021l-.005.091.009.001-.002.01q.05.019.102.036l.011-.02.035.006.002-.007q.01-.002.018 0l.001-.01.035.003.001-.008.026.004.002-.01h.008v.012l.008.001v-.012l.027.004q.002-.002.003-.01l.026.005v-.011c.01.002.02.022.043.017v-.011l.019.004.001-.01.061.009-.001.009c.023.005.068-.021.098-.007l-.001.012.088.011q-.003.006-.002.011l.035.005-.001.009q.038.007.079.012l-.002.008q.022.005.044.007l-.002.011.043.016.005.021.018.002-.002.01.078.022-.001.01.048.026v.01l.016.004-.001.01.051.016.014.032q.048.03.1.054c.004.054.034.035.039.099l.025.003c0 .035.012.051.025.074l.009.001.005.031.023.024.004.03q.008 0 .018.004c-.005.088.04.133.051.209l-.007.05.009.001q-.003.006-.002.01s-.016.008-.014.028l.01.002-.003.08.009.001-.005.03.009.001-.004.029.01.001c-.01.049-.015.093-.023.141h.011l-.02.058.012.001c-.005.014-.008-.004-.012.009l-.016.119-.01-.001-.008.058q-.009.006-.019.008l.008.072-.01-.001-.021.089-.008-.002q-.013.084-.024.169l-.01-.002-.006.049-.01-.001-.022.097h-.008l-.002.009.008.002-.017.059-.009-.002-.008.06-.008-.001-.005.029-.009-.001-.004.039-.01-.001-.009.059.01.001-.003.011-.008-.001-.009.058-.008-.001-.01.071-.009-.002-.003.02-.008-.002-.032.158q-.005 0-.008-.002l-.004.021-.008-.002c-.024.047-.013.113-.032.167l-.01-.001q.001.016.004.031l-.008-.002-.011.08.009.001c.002.03-.025.102-.025.109h.008l-.01.07-.008-.001v.01l.008.001-.005.03.01.002-.003.008-.007-.001a.3.3 0 0 0-.008.171l-.017-.003-.008.049.026.004-.004.102.017.002-.003.02.018.003-.001.009c-.015-.001-.014.024-.015.037a.3.3 0 0 0 .006.083.08.08 0 0 0 .042.068c-.004.034-.002.052-.001.08l.018.002c-.001.033.003.03.01.052l.044.006c.008-.018 0-.008.011-.018l-.003.02q.04.004.079.011l.001-.01.019-.007.002-.021c.012-.01.023.003.036-.004l.014-.029c.01-.011.03-.011.047-.014q0-.009.003-.021l.019-.005c.01-.021-.004-.029-.003-.041l.039-.026.014-.046h.01l.013-.03q.007.003.016.003c.012-.043.027-.052.034-.106l.019.004q.011-.06.024-.119h-.008c-.001-.035.02-.046.012-.09l-.009-.001.003-.02h-.008l.01-.071-.008-.001.01-.07-.01-.001.011-.078q-.004-.004-.008-.003l.003-.021h-.01c.004-.013.016-.014.016-.037l-.009-.003v-.009l.01.002.002-.01-.01-.001.026-.179.01.001.002-.019.009.001q.008-.065.018-.129l.01.001.003-.03.009.002.006-.04.008.001.003-.021.01.003.007-.06.009.002.004-.029.009.001q.004-.032.01-.06l.007.001.003-.031.01.002.016-.109.009.001.001-.009-.008-.001.018-.069.009.001.012-.087h.01l.003-.03.009.001.005-.029.007.001.005-.031q.004.002.01.002.001-.02.005-.04l.01.002.001-.01-.01-.002.047-.326.027-.189-.009-.001.014-.028-.01-.002.003-.02-.009-.001.008-.049-.009-.002.003-.019q-.005 0-.008-.002l.005-.038-.01-.002.003-.02-.008-.002.011-.08h-.008l-.009-.062-.008-.001q0-.01.002-.019l-.016-.014.003-.02-.018-.012.01-.049-.01-.001-.004-.041-.008-.002.004-.02-.018-.011a.2.2 0 0 1-.015-.075l-.018-.001c-.002-.02.003-.009-.006-.02-.003-.028.002-.024-.021-.036 0-.022.002-.025-.004-.04l-.008-.001.004-.029-.016-.013.002-.021-.016-.012.002-.009-.023-.024.003-.02-.009-.001.003-.02-.009-.002.002-.019-.008-.001.003-.02-.008-.002c-.011-.018-.018-.026-.02-.051-.023-.012-.018-.019-.04-.027l.002-.021c-.022-.01-.025-.019-.04-.036l.003-.01-.05-.025q-.005-.013-.006-.024l-.05-.016v-.01l-.018-.003.001-.008-.032-.016.002-.01-.06-.018.001-.011-.017-.002.001-.011-.025-.003-.007-.021-.035-.006.001-.009q-.013 0-.027-.005.003-.005.002-.009l-.052-.008.002-.009q-.022-.01-.043-.016l.001-.011-.016-.001v-.011l-.026-.003.002-.01-.017-.003v-.009l-.06-.01v-.009l-.033-.006v-.01l-.045.005.002-.01a.3.3 0 0 0-.052-.007l.001-.01-.07-.011.001-.01c-.014-.005-.017.007-.02.007l-.182-.025.002-.011-.026-.004.001-.009c-.012-.011-.02-.012-.042-.016q0-.01.003-.02c-.016-.009-.008 0-.016-.013l-.01-.001.008-.05q0-.005.002-.009l-.01-.001c-.003-.057.075-.097.092-.139.035-.004.06-.032.072-.071.046-.008.033-.042.087-.048.018-.045.033-.03.06-.052l.034-.035h.007l.004-.018.018-.009.002-.009.017.002.012-.017h.008l.004-.021.018-.007q.004-.014.005-.03l.01.002.012-.029.017.002.046-.074q.005.003.009.002 0-.015.004-.029l.026.003c.011-.03.026-.033.035-.065.03-.005.038-.019.053-.044q.008.002.017.002c.017-.062.062-.05.08-.119l.026.003v-.01l.1-.076.003-.021c.021-.021.034.005.051-.043l.038-.004q.005-.022.014-.037c.033 0 .048-.012.058-.045l.037-.002.003-.021.018.002.002-.019a.3.3 0 0 1 .076-.03q0-.011.004-.019c.027-.004.034-.019.064-.022.02-.049.061-.048.092-.077l.017.001c.018-.046.056-.042.083-.079q.008.003.017.002a.1.1 0 0 1 .034-.054h.01l.013-.037.02-.009.002-.019.05-.032.015-.05.03-.016.002-.02.019-.006.002-.012c.035-.03.092-.043.111-.094q.03-.003.057-.022l.002-.01q.023-.001.045-.004v-.01l.017.002.013-.018.018.002.001-.01c.018-.01.023-.02.047-.024q.004-.007.004-.018h.017c.015-.039.03-.037.046-.062l.003-.03h.01l.013-.038.01.001.003-.02.008.002.005-.03q.008-.004.018-.006l.007-.051.008.001q0-.008.004-.02.003.002.009.002l.005-.04c.019-.034.037-.02.049-.083l.016.001c.008-.034.028-.064.013-.09.005-.04.003-.05-.026-.063m2.528 3.75q.006-.009.01-.019c-.004-.012-.01.004-.007-.01l.01.001.01-.07-.01-.001-.009-.063c-.04-.019-.032-.053-.079-.072.003-.055-.022-.059-.049-.088l-.005-.02-.018-.002-.006-.022-.038-.046.002-.02-.024-.013-.006-.022-.017-.002-.006-.021-.017-.004-.007-.02-.017-.002q-.004-.01-.006-.021l-.026-.003-.005-.022-.019-.002.002-.01c-.012-.011-.021-.012-.043-.017q0-.01.005-.019l-.046-.007q-.001-.01-.005-.021l-.086-.012v-.01l-.026-.003.001-.011-.079-.011.001-.008-.007-.003-.002.01-.157-.022-.002.01-.017-.004q0 .007-.002.011l-.217-.032-.002.011q-.014-.002-.026-.006l-.002.01c-.056.013-.124-.026-.154-.041l-.149-.021v-.01l-.024-.004v-.01l-.043-.006c-.005-.004.002-.012-.023-.025.003-.033-.01-.096.011-.139l.01.001c0-.004 0-.014.002-.019h.01q.01-.058.024-.117l.019-.007.003-.03c.016-.026.027-.026.037-.066l.018.004.01-.07.019-.008.016-.048.008.001.002-.019.019-.008.005-.03.03-.016.033-.045c.028.003.041.005.062-.002l.003-.01.059.01.001-.01q.023.002.045.006l.001-.01.105.014v-.009l.036.005.002-.01c.012 0-.002.002.007.012l.019-.008-.001.01.036.005v-.01q.089.007.176.016l-.001.008.104.016q.003-.006.002-.01l.054-.004c.021-.035.051-.045.066-.091a.1.1 0 0 0 .076-.029l.003-.019.046-.015.004-.019c.065-.092-.021-.156-.03-.235l-.018-.005.003-.019c-.048-.014-.076-.054-.112-.078l-.167-.022.002-.01-.019-.002.002-.011-.035-.005.002-.01-.017-.002v-.01l-.016-.003-.006-.021-.053-.007q0-.006.002-.01l-.018-.003.001-.01-.017-.002.002-.01-.032-.035.004-.02-.018-.002c-.003-.049-.034-.062-.038-.106l-.017-.004.002-.019-.017-.002c0-.037-.02-.101.003-.152l.01.001.002-.018h.008l.005-.02.017-.007.006-.03.029-.016.026-.066c.026-.004.031-.009.048-.025l.01.003.011-.029.028.004.001-.011q.008.002.017.002v-.008l.037-.006q.003-.004.002-.009l.027.004.011-.019.055-.004v-.007l.127-.015.004-.019h.007l.002-.01c.027-.016.02.023.04-.023.038.002.029-.002.055-.013l.003-.03c.018-.004.008.003.021-.006h.007l-.004-.03.017.001c.003-.033.003-.04-.008-.062h-.01l.003-.02c-.004-.01-.038-.034-.046-.048l-.02-.052q-.015-.008-.033-.015l-.02-.045-.044-.005.001-.01-.017-.003.002-.01-.027-.004q-.004-.008-.005-.02l-.044-.005v-.01q-.003-.002-.008-.002v.01c-.022 0-.022-.013-.035-.015a.3.3 0 0 1-.082.008q0-.004.004-.01l-.062-.008-.006-.022-.035-.005c-.008-.005.002-.014-.024-.023l.003-.02c-.04-.02-.04-.044-.05-.088h-.009l.008-.05q-.007 0-.01-.003l.003-.02-.017-.01v-.053l-.016-.012.002-.02q-.019-.021-.038-.046l-.002-.03-.028-.005-.006-.02-.034-.016q-.001-.01-.006-.02l-.017-.002-.006-.022-.017-.002-.006-.022h-.017v-.013l-.025-.003v-.01l-.017-.002q.003-.004.002-.01c-.049-.026-.111.01-.154.01-.013.032-.02.024-.047.032l-.04.217.007.001-.003.03.016.012-.004.02.01.002c.005.036-.012.085-.02.128l-.012.09-.019.007-.016.057-.02.008-.003.03h-.01q-.01.011-.02.026-.01.001-.02-.004 0 .012-.002.02c-.02.005-.022.007-.037.016l-.002.01-.037.005v.01l-.044-.007-.013.02-.016-.004-.001.01-.036.006-.003.01-.035-.005c-.023.007-.024.027-.058.03a.23.23 0 0 1-.095.11l-.007.05q.013 0 .026.003l-.005.03.01.001c.003.036.011.039.036.055l-.001.01c.01-.001.016-.004.027-.006l-.001.01.024.013q.008.017.013.033c.033.027.099.008.139.029l-.002.01q.046.008.088.013l.002-.011q.003.002.008.002l-.002.011c.034.016.03.044.054.069l-.016.229.016.012-.007.051.008.001-.005.049h.008q0 .007-.003.01h-.008q0 .015-.004.029l-.009-.001c-.018.021-.021.01-.039.026l-.022.026q-.01 0-.017-.003l-.011.018-.019-.002-.01.018q-.014.005-.029.007 0 .006-.002.01l-.026-.003v.01l-.045.003-.021.028-.028-.006v.013l-.035-.007-.002.01-.017-.002-.002.01-.027-.005v.012l-.028.004q-.005.01-.012.018-.022-.001-.043-.005-.003.006-.002.01l-.017-.002-.002.01-.035-.006-.01.019q-.015-.001-.028-.004l-.011.019-.026-.004q-.002.005-.002.011l-.036.004a.1.1 0 0 0 .002.051h.008v.012l-.01-.002c-.005.031.005.03.01.051l.053.008q0 .01-.003.02l.046-.003.004.02.036.006-.001.009.035.006-.002.01.051.007v.01l.07.009-.001.011q.035.008.068.02l-.001.009q.007.002.016.002 0 .006-.002.011l.027.003c.016.014.019.05.037.067q-.008.07-.012.14l-.009-.001-.009.058.01.001-.01.069h-.009l.005.031q-.01.002-.02.008l-.025.177c0 .015.009-.002.007.012l-.008-.002q-.008.043-.013.09l-.01-.003-.007.051q-.003-.002-.009-.002c-.008.025.007.028.004.042l-.008-.001-.018.059-.008-.002-.014.088-.008-.002-.007.041-.008-.001-.01.068c0 .016.011-.002.008.012l-.01-.001-.002.02-.009-.001-.005.04-.008-.002q-.004.015-.005.029c-.005.013-.011-.005-.011.009l.01.001c.006.032.006.062.023.085l-.001.009c.017.014.036-.006.045-.003l-.002.01.026.004v.01c.014 0 .015-.016.02-.017l.061-.003.002-.009.017.003.012-.018.018.002.01-.019.036.005.032-.036.008.002q.005-.012.013-.017h.017v-.011l.018.003.043-.044.065-.01.03-.036.044.006.011-.019.045.007v-.011l.038-.004.001-.01.165.023.054.008c.01-.001-.003-.013.008-.009v.011q.016 0 .035.004v.011l.024.002v.011l.026-.006v.009l.017.003q-.003.006-.002.01l.035.005v.009l.025.004-.001.011.033.015-.001.01q.016.001.035.005l-.003.01q.01 0 .019.002l-.002.011.075.029.022.044.033.014q.008.019.012.034l.018.002.005.021.019.003.021.043.016.003.006.02.035.015-.002.01.03.035c.026.039.039.089.092.104l-.012.029.016.012-.025.168-.02.007c-.007.019.007.017.008.022l-.002.01h-.008c-.012.029.006.044-.014.078l-.017.008-.007.049-.02.007-.005.039h-.008l-.021.087-.02.008q0 .015-.003.03l-.02.007q0 .01-.003.019l-.008-.001-.003.019h-.01q0 .016-.003.031l-.009-.002-.003.02-.009-.002-.001.019-.02.008-.003.021-.018.007-.003.019-.02.009q0 .015-.005.028l-.008-.001-.003.021-.029.016-.002.018-.019.01-.004.018-.009-.002-.002.021-.018.007c-.02.023.005.019-.03.027l-.004.019q-.008-.002-.017-.002l-.006.039a.2.2 0 0 0-.062.051l-.016-.001q0 .01-.003.02l-.017-.003-.004.019-.028.007-.03.036-.019-.003-.022.027-.016-.002-.022.026-.017-.002-.023.026h-.017q-.007.008-.01.018c-.013 0-.026.005-.037.005l-.001.01q-.019-.004-.035-.004l-.003.009-.026-.004q0 .005-.002.009-.016-.001-.034-.005l-.002.011-.026-.004-.002.01c-.026.007-.022-.007-.046.013l-.023-.013v-.01l-.017-.003v-.009l-.017-.003-.005-.021c-.017-.022-.027-.046-.054-.059q0-.01.002-.019c-.033-.017-.007-.009-.02-.034q-.007 0-.01-.002v-.009l-.016-.002.001-.009-.031-.035.002-.021c-.041-.02-.016-.037-.036-.056l-.016-.003c-.004-.031-.012-.044-.038-.054-.002-.037-.015-.03-.017-.064-.032-.015-.035-.042-.053-.069l-.03-.034.002-.011q-.01 0-.019-.002l.002-.01-.016-.012.003-.021a.4.4 0 0 1-.046-.045l.002-.02-.018-.003.002-.02c-.036-.011-.032-.027-.054-.049l.002-.019c-.033-.009-.038-.025-.055-.047l-.006-.022-.026-.005-.026-.065-.027-.003q-.004-.01-.005-.021l-.026-.003c-.008-.016-.014-.028-.02-.044q-.014 0-.027-.003l.001-.01-.05-.027q0-.005.003-.011l-.053-.007-.007-.021q-.01-.004-.017-.003l.001-.01-.017-.002v-.01l-.1-.036-.006-.02c-.016-.008-.027.007-.027.007l-.078-.022v-.011l-.043-.005s.003-.011-.015-.014l-.001.009c-.014.004-.014-.01-.017-.01l-.079-.001-.001.01-.037.005-.002.01q-.026.002-.054.002l-.001.009-.017-.001c-.004.001-.012.012-.02.016l-.033.167.007.001-.004.04.015.014-.002.02h.008q-.003.04-.002.08l.008.002-.002.021.009.001-.007.038.01.001-.008.051.009.001q0 .02.003.041l.008.001-.003.03h.009l-.004.02.009.001-.002.021.015.012.004.102q.008.004.015.013l.005.029.008.001.019.125.016.014-.002.018.007.001c.01.019.018.027.02.054.022.009.018.016.04.026l-.002.02.017.004.014.032.017.001.013.032.009.002-.003.019.017.012q-.003.006-.002.011l.044.056q0 .01-.003.02l.017.014-.002.009.031.034.004.041h.008l-.027.19.009.001q-.003.005-.002.011l-.008-.002-.01.071-.01-.001-.003.028-.009-.002-.005.032q-.003-.004-.008-.003 0 .01-.004.021-.002-.002-.008-.002 0 .008-.003.018h-.007l-.004.019-.008-.001-.007.04-.007-.001c-.022.048-.015.089-.02.139l.053-.004v-.008q.028-.003.055-.002l.002-.012q.007.004.017.004l.001-.012q.023.007.045.007.008-.012.021-.027h.063l.01-.019q.018.002.035.006l.003-.01.025.004.002-.011.026.003.001-.009.035.005.002-.01.042.015.001-.009.026.004.002-.01c.014-.001.009.02.014.022l.096.014v.012l.034.002-.001.011.035.005.005.021.026.003-.001.01.097.014v.01l.048.017-.002.021c.035.003.045-.003.045-.003l-.001.009.024.015-.001.009c.023.014.09.001.098.003l-.001.011.096.012-.003.012.01.001v-.011l.027.005.002-.012.009.002-.002.01.054-.002c.023-.053.024-.017.058-.032q.005-.01.012-.018l.017.001.012-.018c.024-.015.012.013.031-.026.044.002.093-.041.116-.075l.026.004c.012-.03.034-.044.054-.062l.02-.008.003-.03.01.001-.002-.05h-.01l.004-.031-.015-.011.003-.021-.009-.001.003-.022h-.009q0-.01.003-.02l-.008-.001q0-.01.003-.019-.012-.013-.025-.024c-.01-.024-.012-.044-.026-.066-.022-.029-.088-.051-.062-.118h.008l.004-.029.01.002.002-.022.05-.032.002-.02.008.001q.012-.013.022-.027l.037-.005.033-.046.018.002.002-.009c.036-.013.024.028.047-.024l.082-.017.012-.02.018.004.012-.02.017.004.059-.044.027-.056.05-.034.013-.037.018-.008.005-.031c.002-.002.015-.007.02-.017l.018.002.04-.084c.054-.008.063-.066.094-.106q.01-.007.02-.01 0-.01.003-.019l.008.001.002-.02.01.002q.005-.014.013-.029l.017.003.012-.029.01.002q0-.011.002-.02l.02-.007.002-.021.009.001.003-.021.008.004q.003-.012.002-.022l.008.002a.04.04 0 0 0 .004-.019l.03-.017a.3.3 0 0 0 .045-.124l.017.002c.028-.077.096-.19.09-.312zm-15.07-8.12.059-.09-.007-.006c.002-.014.004-.015.013-.034l-.022-.026.014-.022-.014-.021.01-.016-.014-.008c.018-.032.006-.03.01-.059-.039-.028-.086-.085-.143-.102l-.005.007-.015-.02-.004.007c-.015 0-.015-.002-.032-.01l-.01.016-.048-.03-.004.007-.014-.01-.005.008-.02-.012-.017.01-.02-.013-.004.007q-.006-.003-.014-.01l-.005.01-.02-.013-.004.006q-.016-.003-.032-.01l-.005.01q-.01-.009-.02-.014l-.005.007-.032-.01s-.003.006-.006.008l-.033-.02-.016.01-.02-.014q-.003.006-.005.007a.2.2 0 0 1-.102-.033l-.02.018c-.045-.015-.088-.006-.133-.03q-.006.006-.01.014l-.045-.019-.005.008-.033-.02-.018.01-.02-.014-.004.008-.013-.008-.005.008-.085-.034-.004.007-.032-.01-.005.008-.027-.016-.005.007-.02-.013-.004.008-.027-.017-.005.007-.027-.018-.005.01-.02-.013-.005.005-.077-.026-.005.006-.04-.026q-.004.003-.005.01l-.007-.006.005-.008-.058-.027.004-.007-.047-.03c-.01-.006-.003.01-.011.002l.005-.007-.016-.022.005-.006-.026-.019.005-.007q-.006-.005-.014-.008l.004-.02-.027-.017q.002-.005.005-.007-.006-.006-.014-.01c-.002-.003 0-.014-.004-.024.01-.017.003-.018.005-.018l.023-.038-.006-.005.03-.034s-.003-.004-.006-.005c.006-.01.024-.012.032-.033q-.004 0-.007-.005l.025-.037-.008-.005.01-.015s-.003-.004-.006-.005c.005-.012.002.001.011-.003.012-.017.005-.02.005-.02l.053-.084-.006-.003.015-.022-.006-.004c.003-.007.007-.01.009-.018q-.004 0-.006-.003l.034-.054-.007-.003.015-.023-.007-.004.014-.024-.007-.017.019-.029.032-.11-.014-.02.022-.018-.01-.017.009-.026q-.004-.005-.007-.005l.015-.022-.007-.005.009-.016-.007-.016.01-.015-.008-.005q.01-.026.017-.053l-.021-.025.007-.028-.015-.02.005-.008c-.005-.013-.012-.017-.029-.028q.007-.014.015-.024a1 1 0 0 0-.035-.109.1.1 0 0 0-.032-.02q0-.011.003-.02l-.007-.005c-.004-.011 0 0-.002-.014 0 0-.005 0-.006-.003l.005-.007c-.02-.007-.021-.002-.038-.002l.01-.029q-.02-.016-.036-.032c-.002 0-.009.008-.019-.003l.004-.006-.025-.017-.016.022q-.011-.001-.025-.005c-.022.005-.038.02-.06.048q-.006-.006-.013-.01l-.014.025.008.014c-.004.016-.016.01-.016.01l-.025.04-.008-.005-.038.062-.008-.005c-.014.014-.004.028-.012.035l-.018-.002-.057.103-.007-.004-.08.122.007.005-.02.03q.004.001.007.004c-.007.022-.024.025-.03.033l-.035.053.003.004c-.005.023-.031.04-.034.042l.007.004-.09.138q.005.001.009.004l-.016.023.007.004c-.012.038-.03.034-.04.061l.007.006-.05.075q.005 0 .007.004l-.01.015.008.004c-.007.015-.016.01-.017.012a2 2 0 0 0-.122.201h-.017l-.027.038q-.003-.004-.006-.004l-.01.014-.006-.005q-.033.046-.067.087 0-.002-.006-.005l-.01.017-.018-.002-.01.016h-.019l-.014.022h-.019l-.01.014q-.004-.001-.006-.004l-.063.023q-.006-.005-.014-.008l-.009.015-.069-.012-.01.016-.025-.007-.005.01-.013-.01-.005.008-.027-.019-.004.008-.021-.013-.005.008-.014-.009-.004.008-.013-.009-.017.011-.014-.009-.005.008-.026-.019-.005.01-.013-.01-.005.007-.034-.022q-.002.005-.006.008l-.012-.009-.005.008-.027-.017-.005.007-.015-.008-.004.006-.058-.026-.005.008q-.01-.008-.02-.012l-.005.007-.05-.01-.003.004-.034-.02-.006.007-.014-.007-.004.006-.013-.007-.018.01a.1.1 0 0 0-.053-.035c-.006 0-.007.01-.03.002l-.01.016c-.016-.008-.019-.01-.033-.01l-.003.007-.02-.012-.018.01-.014-.01q-.008.008-.015.012l-.013-.007-.03.012-.012-.01-.005.01-.042.006-.01.015-.03.001-.01.015-.007-.004c-.017.007-.027.01-.045.025l-.011-.008-.017.022-.024-.005c-.015.014-.018.015-.033.021q-.005-.001-.008-.004l-.042.037-.019-.002-.08.11.007.005q-.011.008-.022.02l.006.004-.025.038.007.003-.015.023.008.004-.015.024q.003 0 .005.003l-.01.016.011.028c-.002.023-.017.02-.01.047q.026.03.066.043l.005-.007.013.008.006-.007.047.03.016-.01.013.008q.002-.004.006-.007.02.006.038.014.009-.005.015-.013.043.03.082.053l.04.027c.012.004.003-.012.012-.003l-.006.007.055.036s.002-.008.016 0q.033.024.064.051l.022-.018.014.02.017-.01.014.008.05-.02.025.005.017-.01.042-.006.009-.015q.005.004.008.004.004-.008.01-.014l.006.004.01-.017.007.005.01-.015.018.002.01-.016c.006-.002.013 0 .023-.006q.006.002.014.01c.02-.02.041-.026.062-.039l.009-.015.042-.004.014-.024h.02c.023-.009 0-.016.035-.007a.03.03 0 0 1 .009-.015c.025.008.114.043.12.078.029.017.03.021.036.045l-.005.007.014.01-.004.007c.01.025.008-.002.01.028l.006.005-.026.1.01.03q-.073.108-.144.22l-.013-.009c-.023.027-.023.016-.043.037l-.015-.009-.019.03-.03.002-.01.016-.006-.003q-.014.005-.028.013h-.02q-.002.005-.009.013h-.018l-.01.014h-.018q-.02.01-.04.017l-.008-.004-.01.015-.006-.003c-.014.004-.017.006-.033.02l-.02-.013c-.029.029-.038.016-.069.02l-.058.03-.012-.01-.063.023c-.006-.003-.014-.01-.02-.01q-.015.003-.029.011l-.014-.007-.027.014-.013-.01-.029.014h-.019l-.01.013h-.018l-.004.007q-.01-.007-.021-.012l-.016.01-.014-.008c-.009.003-.017.01-.028.013L44.123 95l-.052.022-.014-.01q-.042.016-.086.03l-.03.002q-.004.009-.01.016l-.018-.002-.01.015c-.014.007-.02-.004-.043.007l-.013-.01-.042.038-.014-.01c-.022.028-.022.018-.042.037l-.014-.007-.016.022c-.012.002 0-.002-.012.003a1 1 0 0 1-.09-.05c-.003-.028-.02-.045-.029-.072l.003-.02-.016-.02.01-.016-.011-.04.013-.034q-.005-.001-.008-.004l.036-.086-.01-.027.03-.122-.014-.02.01-.014-.057-.06.005-.007-.046-.03q0-.006.003-.008-.01-.008-.02-.012l.005-.009-.026-.019.005-.007c-.024-.032-.057-.032-.07-.066l-.008-.08-.012-.008.004-.02-.008-.004c0-.035.021-.048-.006-.08l.01-.015-.02-.014c.018-.046-.004-.04-.016-.075l.003-.02-.015-.008q.005-.003.006-.008l-.014-.01c.003 0 .003-.005.005-.006l-.02-.014.004-.018-.03-.042.002-.02-.026-.017.004-.02q-.019-.016-.036-.033l.004-.008-.012-.008.002-.02q-.008-.007-.02-.014l.003-.02-.028-.028.001-.03a.2.2 0 0 0-.033-.023l.004-.02-.015-.008.003-.031-.093-.05q-.002.005-.005.007l-.013-.009-.005.01-.015-.023-.018.011-.013-.008-.004.005c-.007 0-.015-.007-.02-.01l-.005.007-.02-.013-.017.01-.041.006-.01.015c-.033.014-.068.1-.085.128l-.023.051-.006-.004-.005.008q.004.001.007.005-.003.002-.005.008s-.015 0-.021.018l.006.003-.055.083q.004.005.007.005l-.017.041q.002.004.006.005c0 .022 0 .022-.012.05q.008.002.015.007c-.02.03-.023.031-.006.05l-.013.035.014.01c-.009.022-.003.022-.012.046.018.02.017.046.022.07l-.004.006.013.01.006.08.015.02-.001.03.02.013-.005.007c.005.017.004.02.017.033l-.01.015.015.022-.006.007.03.03-.001.03q.014.023.03.041l-.003.02.028.031-.002.03.028.018-.006.007.014.008-.003.022.03.04-.003.006q.021.023.046.044l-.004.008.02.014-.005.007.028.016-.006.008.013.01-.004.007.02.012-.006.01.04.023-.005.01q.008.002.015.008l-.006.007c.008.01.019.002.019.002.017.007.015.02.015.02l.045.02-.004.006.005.005.005-.007c.009.007-.005.002.002.011l.047.03.005-.007.078.04.006-.008.062.052q.06.037.12.078-.004.005-.004.008l.012.008v.031q.018.024.037.046l.007.092.013.01c0 .007 0 .02-.002.03l.008.004-.01.027.015.01-.009.026c0 .023.016.04.016.064l.02.014c-.006.017-.005.005-.003.02l-.004.006.04.04v.043c.01.015.044.015.045.017q0 .004-.003.007l.025.018-.003.01c.021.026.047.017.062.018.008.006.004.023.023.025l.017-.01.039.025.006-.008.013.01.004-.008.034.022.075.015.017-.01.008.004-.006.008.06.037q-.002.008-.005.01c.007.003.013.01.02.012l-.005.01q.013.006.026.016l-.004.008c.036.041.006.11-.012.164l-.025.04a.6.6 0 0 1-.086.16c-.008.012-.024.023-.025.025l.006.005-.024.037.006.005-.032.033c-.026.065-.085.148-.13.217l-.076.115-.006-.004-.009.015-.007-.005-.03.047q-.001-.003-.007-.005l-.015.022q0-.002-.006-.003a1 1 0 0 0-.07.106l.007.005-.014.022q.004 0 .006.003l-.103.16.008.005-.02.031s.003 0 .005.003l-.088.14s.006.011-.008.024l-.006-.003-.07.105q-.004-.001-.007-.004l-.01.015-.006-.004-.075.113-.006-.002-.014.02h-.004l-.004-.003-.11.17c-.003.01.011 0 .004.01l-.007-.005-.08.122-.003.02-.006-.004-.025.037.007.004c-.01.014-.045.042-.056.072l.006.004-.03.047q.005.001.007.004l-.06.09.007.005-.019.031.007.003-.005.008-.006-.004-.024.05q.002.003.008.004-.012.015-.02.03.003.004.006.004l-.033.034.008.005-.005.008q-.002-.004-.006-.004l-.055.082q.004.005.007.005l-.02.03.007.006-.02.03.007.004-.03.046.007.004-.015.022.008.006q-.026.043-.049.087l.007.004-.059.092.01.028q-.013.018-.024.038l.002.003.004.001-.01.015.007.006-.015.021q.003.003.008.004l-.012.017q.004.001.007.005l-.014.02.007.005q-.022.031-.04.061l.006.004-.014.025.006.002-.021.02.007.004-.035.053.007.005-.02.03.002.003.004.001-.053.085.006.003-.025.038.007.004-.04.061.01.016-.005.008q-.005-.004-.008-.003l-.02.03-.006-.005-.028.046.006.005-.03.044q-.004-.001-.007-.004-.013.025-.022.052l.006.002-.05.075q.004.005.007.005c-.006.012-.004-.006-.012.004l-.024.038q.004.002.006.005l-.005.007-.006-.004a.2.2 0 0 0-.025.038l.007.004-.02.03.006.003q-.004.009-.01.016l.009.006-.043.05.007.003q-.006.007-.01.015l.007.005-.038.072q.002.003.007.005l-.01.014.005.004-.017.042.007.006-.04.06-.003.02-.006-.005-.01.016-.007-.004c-.032.029-.065.101-.08.11-.015.042.002.011.012.04l-.005.008.007.004c-.014.008-.015.008-.027.025l.027.018.009-.015q.013.002.025.006l-.01.015c.046.028.035.026.074.003l.007.004.01-.014.006.004c.01-.01.003-.018.003-.018l.042-.052c.012-.008.056-.036.063-.054.007-.011-.011-.004 0-.011h.018l.036-.04.007.003c.006-.012-.003-.018.013-.035.01-.009.005.009.012-.003 0-.002-.009-.008.003-.018l.006.004c.012-.012.019-.043.019-.043h.018l.014-.022.006.004.035-.053.007.005.01-.017.007.006.02-.032.007.006.017-.042c.002-.009-.016-.013.001-.032q.005.001.008.005l.01-.016.006.003c.01-.01.003-.017.004-.019q.026-.042.054-.083a.5.5 0 0 1 .075-.144l.008.003q.016-.02.036-.04h.017l.02-.03.006.003.057-.07h.018q.014-.019.025-.038l.007.006.008-.016q.005.004.008.004l.01-.015h.017l.016-.023.007.006.015-.023.006.002q.01-.013.02-.03l.003.003.004.002.007-.026q.005 0 .008.004l.009-.015.007.005.03-.047.007.005.045-.069-.008-.004c.008-.01.018-.006.026-.027.006-.01-.008 0 0-.01q.01-.012.02-.02l-.007-.003.03-.047-.007-.004.03-.044-.006-.006c.008-.014.045-.04.056-.07q-.002-.003-.007-.005l.006-.009.016.001.035-.054.008.006.058-.09q.005 0 .008.004l.02-.032q.003.004.007.004c.015-.013.004-.025.011-.034l.008.005.034-.055q-.004 0-.006-.003l.005-.007.006.004.04-.06-.006-.004.026-.028q-.004.001-.007-.004l.075-.102c.01-.02.008-.036.029-.057l.007.004q.002-.014.008-.027s.014 0 .021-.018c.004-.012-.01-.004-.002-.012l.007.004.044-.07-.006-.003.005-.008.006.004.005-.007-.007-.003.017-.012-.006-.005.005-.007c0-.002.01.003.017-.01l-.007-.006.029-.045.004-.006.007.002.008-.025q.004 0 .007.003c.032-.031.032-.07.055-.084.009-.016.019-.058.042-.08 0 0 .013 0 .023-.018l-.008-.005.025-.037-.007-.006q.002-.001.005-.008.002.004.008.006l.009-.015h.018c.013-.01.002-.014.003-.02l.004-.007.008.003.034-.052.007.004q.003-.013.01-.026s.007.005.016-.01c0 0-.008-.01.002-.02l.007.003.01-.014.006.004.074-.114c.035-.037.084-.157.139-.212l.006.002.006-.008-.008-.004.065-.097c.005-.013.079-.137.108-.167l.005.003q.007-.014.01-.027l.006.005.01-.016.008.004.035-.054.004.005.026-.036.007.003.024-.038.008.004.009-.014.007.004.07-.107-.008-.004.006-.008c.035-.04.072-.084.108-.123l.007.004.01-.015.007.005.04-.063.005.005.016-.022.006.003.049-.075.008.004.009-.014.007.003q.12-.18.244-.36l.006.004.016-.022.005.003q.006-.006.01-.015l.008.005.009-.014c.029-.016.035.01.07-.02.026.007.06 0 .081-.023.03.012.026.002.05.01l.015-.023c.029.013.026.004.051.013l.01-.016.03.01c.035-.04.033-.015.058-.029l.03-.033q.025 0 .049-.002l.065-.055.045-.102-.006-.002.01-.017q-.001.001-.007-.004l.02-.03-.007-.003.015-.024q-.004.001-.007-.004l.02-.03-.007-.005.01-.015q-.004.001-.007-.004l.02-.03q-.003-.003-.007-.004l.038-.074-.007-.003q.014-.02.024-.039l-.004-.005.014-.022-.01-.017.016-.023-.009-.016.04-.06-.007-.005.015-.02-.007-.008.025-.037-.007-.004q.008-.018.013-.036l-.009-.016c.003-.028.017-.01.008-.039a.3.3 0 0 1 .116-.107l.02.002.042-.038h.018q.003-.007.01-.015.009.003.018.002l.01-.016q.027-.002.053-.008l.006-.008.02.014.004-.008q.008.004.014.01l.005-.009.013.01.006-.009q.005.005.012.008l.004-.008.028.02.005-.01q.01.009.021.014l.004-.008.02.014.005-.008q.014.008.027.018l.006-.008.019.014.005-.008.05.01.004-.007q.021.015.041.025l.022-.018.006.005.016-.01.015.008a.3.3 0 0 0 .11-.068l.014.008.01-.014q.027-.007.053-.01l.01-.016.04-.005.018-.011.014.01.086-.03q.007 0 .013.008l.052-.022.013.01.034-.02.02.01.04-.017.007.007.009-.018.017.002.1-.034.012.008q.012-.007.022-.016.007.002.013.008l.005-.008q.004.001.007.004l.027-.026h.018l.01-.014.006.006.011-.017.006.004.06-.08.02.001.014-.022.019.002.01-.015h.018l.01-.016.017.003.03-.014c.04-.004.034.011.075-.015q.008.002.014.008l.01-.017.014.01.039-.017.014.01.006-.01.04-.004.01-.016.088-.019.038-.04q.019-.004.041-.006l.02-.03.007.004c.015-.014.025-.055.026-.058l.008.005Zm-.934-.043c-.044-.014-.023.002-.052.02l-.018-.002-.01.016c-.006.003-.012-.002-.023.006l-.013-.009a.1.1 0 0 1-.045.025l-.007-.003-.01.014h-.018l-.005.006-.013-.009-.022.02-.006-.004a.1.1 0 0 0-.034.022l-.013-.01-.029.015-.024-.005c-.01.01-.018.015-.027.026q-.003-.004-.007-.004c-.016.004-.018.005-.032.02a.4.4 0 0 0-.177.037l-.02-.013-.01.014-.007-.004c-.03.012 0 .001-.03.003l-.005.007-.013-.009-.03.015-.012-.01q-.015.007-.028.016l-.013-.008-.006.006-.013-.01-.004.01c-.014 0-.017-.002-.032-.01l-.01.014-.014-.008-.01.015-.025-.006-.004.008-.014-.009q-.003.003-.005.01l-.101-.067.006-.01q-.007-.001-.014-.007l.005-.008-.013-.008.007-.027-.01-.028q.007-.007.01-.015-.003-.01-.007-.016l.01-.016-.007-.005.02-.03q-.005-.004-.008-.004l.035-.053s-.007-.008.003-.02l.007.004c.036-.04.03-.074.064-.1q.003.005.007.006l.01-.014h.018q.014-.015.027-.025l.006.004q.026-.013.052-.02.006.002.013.008c.022-.025.036-.03.063-.025.033-.03.055-.014.09-.05l.013.01.022-.02.012.01c.012-.002.016-.013.03-.014q0-.005.004-.009l.033.022c.001 0 .003-.006.006-.007l.039.014.015-.01.014.007q.004-.001.005-.006l.076.027.017-.01.028.018a.03.03 0 0 1 .016-.01l.033.022.005-.01.013.01q.002-.005.006-.008l.026.017.017-.01.02.012q.008-.004.015-.01l.015.008.017-.01.038.013.005-.007q.024.015.045.031 0 .004-.003.007l.026.006q0 .031.019.056c-.014.042.002.033.016.065q-.003.001-.005.007l.016.02-.01.014c0 .02-.029.038-.047.06Z" fill="#241916"/><path d="M85.762 93.087q0 .051-.027.095c-.026.039-.084-.01-.102-.045-.08-.158-.158-.347-.237-.505-.055-.11-.162-.217-.284-.208-.084.007-.126.06-.208.085-.042.007-.085-.06-.084-.101.09-.32.15-.544.26-.852.02-.054.058-.153.114-.166.07-.018.119.049.149.114.221.493.447 1.045.419 1.583M85.59 94.1c-.008.016-.023.028-.035.04-.08.08-.089.207-.125.315a2.7 2.7 0 0 1-.2.443c-.199.355-.24.729-.493 1.047-.012.015-.026.032-.046.032-.014 0-.027-.017-.025-.03-.005-.104.02-.207.047-.31l.07-.27c.062-.246.163-.474.243-.736.02-.064.052-.115.083-.174.035-.067.082-.158.107-.23.022-.065.037-.117.08-.171a.23.23 0 0 1 .184-.087c.056.002.133.08.11.13Zm-.997-.448a.04.04 0 0 1-.017.016c-.009.003-.018-.002-.026-.006l-.042-.021c-.02-.01-.04-.021-.047-.042-.006-.017 0-.036.008-.053.012-.033.014-.06.026-.093l.002-.006c.008-.018.035-.012.051-.002.063.045.084.14.045.207m-.283-.165c.007.043-.041.043-.034.086.007.037.028.075.024.105-.01.075-.098.125-.176.12-.075-.003-.115-.054-.161-.135l-.014-.03q-.008-.018-.017-.025a.17.17 0 0 1-.072-.121c-.002-.04-.017-.05.005-.085a.16.16 0 0 1 .075-.056c.016-.003.013.017.024.028a.2.2 0 0 1 .036.052c.018.034.02.03.041.063l.115-.08c.035-.023.035-.04.074-.037s.074.077.08.115m2.253.527q.2-.464.28-.962c.02-.117.03-.246-.09-.33a.3.3 0 0 0-.167-.052c-.137 0-.258.072-.367.15-.048.033-.131.128-.194.078-.024-.02-.04-.143-.05-.172-.13-.38-.205-.828-.434-1.375-.05-.117.04-.287-.047-.38a.22.22 0 0 0-.163-.072c-.102.002-.242.109-.282.18-.27.498-.41.8-.495 1.298-.021.123-.167.42-.239.26.014-.136.048-.3.096-.425.048-.127.073-.184-.001-.312a.4.4 0 0 0-.234-.147c-.167-.026-.38-.038-.564.062-.023.012-.044.034-.042.06.005.054.148.097.188.118.127.067.128.167.16.292.062.246.076.504.04.754a2.06 2.06 0 0 0-1.287-.073c-.05.013-.105.032-.114.093a.1.1 0 0 0 .022.082c.047.06.095.032.164.047.073.016.138.018.209.044.385.14.772.504.979.858-.05.094.01.25.13.2.07-.031.105.036.103.089-.016.055-.036.072-.086.055-.352-.123-.444-.143-.631-.013-.04.026-.056.038-.067.07-.037.112.122.172.221.23.11.063.158.176.217.26.112.163.376.367.579.095a.4.4 0 0 0 .048-.088c.023-.058.08-.155.061-.227-.014-.053-.077-.13-.092-.184-.02-.07.017-.113.03-.185.015-.085.022-.183.018-.27-.003-.056.005-.14.03-.172.023-.028.063.01.07.045.022.127-.037.202.008.41.005.02.05.038.063.023.105-.113.124-.192.166-.44.007-.036.013-.104.032-.136.031-.055.129-.067.178-.105.079-.057.068-.352-.124-.32-.058-.046-.027-.202.045-.174.112.112.231.242.23.4a.5.5 0 0 1-.03.158q-.108.352-.284.676c-.089.165-.19.323-.262.495-.053.127-.09.259-.127.39l-.27.974q-.056.166-.053.34c.008.115.064.234.167.285a.33.33 0 0 0 .28-.006c.178-.08.29-.258.35-.442.059-.184.073-.38.115-.57.06-.276.175-.537.29-.797.19-.432.383-.866.64-1.264.035-.054.071-.108.095-.168.026-.07.036-.144.051-.218.045-.21.149-.408.297-.565.019-.02.041-.04.07-.042.036-.003.066.028.084.06.079.14.03.315-.021.468-.14.417-.232.835-.537 1.153-.079.082-.178.152-.239.249s-.133.244-.076.344c.055.1.239.179.26.066.013-.07.073-.12.119-.103.027.01.053.053.072.1.03.079.142.306.12.385-.006.02-.124.1-.137.117-.55.704-.749 1.004-1.03 1.852-.004.013-.088.235.225.27.123.012.273-.018.394-.04a.1.1 0 0 0 .05-.021c.036-.035.014-.08 0-.117a.64.64 0 0 1 .066-.557c.185-.306.48-.57.69-.98.024-.047.1-.013.131.03.17.25.294.427.477.68.016.024.01.054.004.084a.22.22 0 0 1-.078.127 4.7 4.7 0 0 1-1.168.612c.048.084.17.07.263.046l1.203-.32c.124-.033.252-.067.347-.16a.3.3 0 0 0 .055-.072c.089-.162-.178-.41-.277-.57l-.476-.654c-.062-.077-.117-.18-.086-.276.066-.207.28-.313.435-.376a.7.7 0 0 0 .324-.217.14.14 0 0 0 .03-.05c.025-.074-.042-.12-.1-.152-.178-.1-.396-.24-.562-.12-.046.034-.067.173-.103.217a1.3 1.3 0 0 1-.31.276c-.104-.211-.221-.466-.233-.687-.01-.191.08-.373.158-.55Zm-6.696 5.723c.151.13.334.249.486.378q.092.076.194.138c.058.035.081.082.14.118.093.058.174.134.27.185.098.05.168.043.261-.014.056-.034.147-.062.182-.117.068-.105.136-.21.188-.324.07-.153.098-.298.188-.44.04-.063.103-.166.061-.227-.03-.043-.087-.015-.136.004a.7.7 0 0 0-.161.107c-.125.11-.318.18-.482.215-.294.06-.53-.058-.82-.138q-.083-.02-.164-.052c-.05-.021-.064-.034-.114-.055-.065-.025-.117-.073-.186-.088-.026-.005-.07-.016-.095-.004s-.02.068.001.084c0 0 .105.16.187.23" fill="#231916"/><path d="M77.929 96.986c.385.25.597.694.742 1.13.048.143.09.298.047.442-.053.18-.224.294-.384.39-.423.252-.795.45-1.246.65l-.001.001a.088.088 0 0 0 .065.132.3.3 0 0 1 .168.082c.07.063.126.144.205.195.213.137.499.004.684-.169.186-.172.348-.393.59-.464.158.404.195.859.079 1.276a1.7 1.7 0 0 1-.768 1.009c.28.053.58-.01.818-.17.236-.16.406-.415.462-.696.046-.24.013-.491.06-.731l-.04-.668.003-.419c0-.05.001-.103.022-.15a.4.4 0 0 1 .131-.134q.553-.39 1.143-.72c.108-.06.22-.12.28-.236a.24.24 0 0 0 .022-.176c-.042-.145-.21-.178-.352-.187-.32-.02-.679.003-.906.23-.103.103-.119.276-.209.39-.095.12-.226.224-.366.287-.162-.634-.403-1.262-.785-1.794-.037-.05-.173-.13-.234-.114-.054.012-.146.083-.163.136q-.075.234-.067.478" fill="#231916"/></svg>