<svg width="128" height="128" fill="none" xmlns="http://www.w3.org/2000/svg"><path fill-rule="evenodd" clip-rule="evenodd" d="m28.886 83.937-.39.038-.083-.135 1.24-.822.082.145c-.296.304-.49.584-.573.826q-.16.454.059.821c.159.263.41.404.746.432q.502.026 1.35-.477c.473-.293.777-.604.911-.946a.94.94 0 0 0-.093-.866 1.05 1.05 0 0 0-.635-.494c-.273-.07-.587-.035-.95.11l-.093-.145q.604-.278 1.105-.141c.328.086.587.297.787.618.16.262.235.542.235.839 0 .3-.086.587-.252.87q-.255.421-.7.687-.47.29-1.006.332a1.77 1.77 0 0 1-.942-.139 1.43 1.43 0 0 1-.615-.555 1.3 1.3 0 0 1-.17-.435 1.9 1.9 0 0 1-.013-.563m-1.129-1.475-1.222-2.638 1.101-.587.07.152q-.492.337-.615.632a.71.71 0 0 0 .02.604l.3.653a.17.17 0 0 0 .101.097q.058.026.152-.021l1.191-.552-.131-.28a.51.51 0 0 0-.342-.3c-.152-.042-.342-.018-.573.086l-.073-.156 1.554-.721.07.155c-.256.124-.412.263-.48.411a.54.54 0 0 0 .017.47l.117.262 1.333-.615a.15.15 0 0 0 .09-.103c.01-.042-.004-.104-.038-.176l-.239-.515q-.388-.838-1.522-.47l-.076-.162 1.274-.521 1.267 2.742-.17.082-.106-.224c-.042-.09-.083-.148-.131-.17a.17.17 0 0 0-.156.011l-2.659 1.226c-.058.028-.096.062-.11.11-.014.045 0 .1.028.166l.127.276zm-1.781-3.988-.273-.832 2.069-3.004-1.993.65c-.2.068-.338.162-.4.282-.066.114-.066.253-.018.422l-.18.055-.396-1.219.176-.055c.038.12.09.21.142.259a.47.47 0 0 0 .245.096q.16.028.324-.027l2.787-.908.072.217-2.161 3.115 2.12-.69c.193-.063.317-.156.383-.284q.093-.19 0-.494l.18-.058.431 1.329-.176.059a.57.57 0 0 0-.722-.366l-2.379.776-.03.06a1 1 0 0 0-.1.213.4.4 0 0 0 .027.19l.048.159zm-1.45-4.734-.598-2.914 1.35-.348.035.165c-.78.273-1.119.646-1.026 1.112q.028.144.09.183.058.042.173.02l2.886-.59c.06-.013.097-.037.121-.079q.034-.057.007-.176l-.072-.36.18-.037.345 1.668-.187.038-.083-.411a.2.2 0 0 0-.065-.121.18.18 0 0 0-.121-.02l-2.932.6c-.062.014-.107.038-.128.086-.024.038-.027.104-.01.187.045.235.2.41.453.518q.316.14.928.103l.038.18zm.816-5.276-.042-.431q-.045-.434-.23-.667-.187-.227-.612-.186c-.193.017-.345.062-.445.138a.47.47 0 0 0-.211.266q-.048.154-.007.594c.017.197.045.314.076.359q.046.061.148.055zm-1.585 1.271-.18-1.882c-.034-.362.021-.656.17-.873a.83.83 0 0 1 .631-.366c.16-.014.311.01.442.08a.83.83 0 0 1 .339.313q.135.223.228.694.063-.359.141-.5a.7.7 0 0 1 .225-.235q.139-.098.583-.242.32-.109.429-.204c.058-.048.082-.096.082-.148q-.006-.074-.127-.128c-.08-.038-.218-.052-.404-.045l-.021-.165c.566-.028.866.155.904.538a.54.54 0 0 1-.062.318.56.56 0 0 1-.252.228q-.13.062-.69.183-.326.068-.46.162a.6.6 0 0 0-.2.27q-.066.18-.045.417l.031.297 1.444-.138q.088-.005.124-.059a.3.3 0 0 0 .024-.19l-.03-.352.189-.013.159 1.695-.183.014-.038-.356q-.01-.119-.062-.17a.15.15 0 0 0-.135-.04l-2.938.279a.17.17 0 0 0-.135.07c-.031.04-.038.1-.035.179l.042.352zm.289-6.001 1.63.684.027-1.295zm-.711-.083.003-.165 3.398-1.26c.138-.053.207-.156.21-.322v-.114h.19l-.024 1.464-.186-.003.003-.118c0-.152-.013-.259-.048-.32a.12.12 0 0 0-.107-.07.3.3 0 0 0-.09.017l-.787.29-.024 1.45.449.177a.8.8 0 0 0 .28.072q.121.004.213-.107a.55.55 0 0 0 .094-.328v-.124l.186.004-.02 1.332-.187-.007a.53.53 0 0 0-.09-.338c-.059-.083-.18-.159-.349-.235zm.185-2.814.2-1.688.184.024-.049.404q-.012.095.038.148c.028.032.076.056.152.063l2.89.348c.073.007.121-.003.156-.041q.052-.052.069-.228l.065-.51a.9.9 0 0 0-.193-.702c-.166-.197-.466-.355-.908-.49l.024-.173 1.398.256-.366 3.031-.183-.02.035-.297c.01-.107.003-.18-.035-.221-.03-.049-.093-.08-.18-.083l-2.862-.349a.2.2 0 0 0-.145.035c-.038.03-.055.079-.065.148l-.045.37zm.92-5.967.47-1.626.18.052-.093.324q-.036.13-.01.2a.18.18 0 0 0 .117.087l2.003.577q.314.091.49.08a.75.75 0 0 0 .466-.184q.199-.176.304-.525c.09-.32.08-.587-.042-.804q-.176-.328-.597-.442l-1.63-.473a1.4 1.4 0 0 0-.335-.059.4.4 0 0 0-.2.035.34.34 0 0 0-.135.11 1 1 0 0 0-.107.28l-.183-.052.384-1.33.183.049-.031.097q-.064.218.024.369.092.139.324.21l1.74.498q.574.17.784.576c.16.308.18.667.063 1.068-.097.352-.228.61-.384.787a.97.97 0 0 1-.556.307 1.3 1.3 0 0 1-.57-.048l-2.144-.618a.15.15 0 0 0-.141.02c-.042.024-.073.08-.097.152l-.093.335zm1.471-4.83.345-.801 3.536-.898-1.93-.825c-.193-.08-.36-.097-.49-.048a.52.52 0 0 0-.284.3l-.172-.073.504-1.18.17.072q-.076.185-.063.293a.43.43 0 0 0 .117.232.7.7 0 0 0 .26.197l2.7 1.15-.094.213-3.674.922 2.048.87q.278.12.473.042.193-.08.328-.37l.17.073-.546 1.284-.176-.075a.58.58 0 0 0 .007-.45.58.58 0 0 0-.308-.3l-2.3-.984-.062.024a1 1 0 0 0-.217.097.4.4 0 0 0-.104.159l-.065.152zm1.999-4.416.809-1.485.165.093-.141.252q-.088.172-.073.235.02.072.16.148l2.454 1.337c.097.052.166.076.204.062q.078-.03.155-.162l.155-.287.163.09-.808 1.485-.166-.087.155-.283c.052-.097.073-.173.06-.214-.015-.048-.066-.093-.167-.148l-2.454-1.34c-.094-.048-.16-.07-.197-.055-.052.024-.114.086-.166.2l-.145.252zm1.231-2.262.853-1.288.159.107-.152.221q-.09.137-.09.211c0 .052.018.086.059.11a.4.4 0 0 0 .152.049l.052.01 2.593.57-1.492-2.023a.5.5 0 0 0-.127-.114.3.3 0 0 0-.225-.056.3.3 0 0 0-.186.145l-.138.211-.156-.104.75-1.132.155.107-.059.09c-.048.065-.059.159-.041.269a.96.96 0 0 0 .203.4l1.937 2.656-.1.152-3.466-.753a.55.55 0 0 0-.273.003.4.4 0 0 0-.187.166l-.069.097zm2.732-3.957 1.868-2.23.998.749-.107.128q-.52-.305-.833-.29c-.214.01-.39.1-.542.272l-.459.556a.17.17 0 0 0-.045.131.16.16 0 0 0 .08.121l1.008.85.203-.242a.52.52 0 0 0 .125-.428q-.042-.237-.321-.49l.11-.132 1.309 1.098-.107.128c-.225-.176-.418-.255-.58-.255a.54.54 0 0 0-.418.214l-.183.22 1.126.943a.14.14 0 0 0 .127.035q.067-.012.145-.107l.363-.435c.4-.473.321-.998-.228-1.578l.117-.135 1.016.925-1.941 2.317-.145-.117.159-.19q.094-.113.096-.19c0-.055-.03-.103-.075-.141l-2.245-1.882c-.048-.038-.096-.059-.141-.052-.049.007-.097.035-.142.097l-.197.228zm4.747-2.765.314-.308q.314-.296.38-.59.065-.29-.232-.594a.93.93 0 0 0-.383-.27.56.56 0 0 0-.338 0q-.149.064-.473.37-.208.204-.232.283t.049.145l.915.963Zm-1.979-.456 1.364-1.31q.4-.386.794-.41a.82.82 0 0 1 .677.27q.166.175.214.393a.85.85 0 0 1-.038.46c-.059.161-.19.369-.4.614.213-.118.376-.183.48-.2a.7.7 0 0 1 .32.024c.11.034.294.141.556.307q.28.186.425.218.11.02.162-.031.056-.052.024-.18-.03-.127-.217-.349l.12-.114q.553.646.142 1.043a.6.6 0 0 1-.297.152.6.6 0 0 1-.328-.059c-.09-.041-.28-.18-.573-.428q-.259-.217-.41-.259a.6.6 0 0 0-.336.007 1 1 0 0 0-.355.228l-.218.207 1.002 1.043c.044.048.086.066.127.066a.33.33 0 0 0 .166-.097l.256-.245.127.134-1.229 1.178-.128-.131.26-.25q.083-.081.09-.155a.15.15 0 0 0-.05-.13l-2.043-2.131c-.042-.041-.087-.066-.135-.062-.052.003-.1.03-.162.083l-.256.252zm5.158-4.161-.021-.39.141-.11.84 1.049-.128.097c-.335-.256-.642-.404-.915-.428a1 1 0 0 0-.718.203.72.72 0 0 0-.304.48.63.63 0 0 0 .13.511.65.65 0 0 0 .253.2.6.6 0 0 0 .321.025c.117-.021.307-.097.58-.225q.567-.273.843-.317a.94.94 0 0 1 .504.048.93.93 0 0 1 .393.307q.312.395.245.86-.056.46-.476.79a1.42 1.42 0 0 1-1.001.312l-.01.448-.142.107-.88-1.129.14-.107q.448.4.94.446a1.15 1.15 0 0 0 .856-.232.86.86 0 0 0 .339-.538.7.7 0 0 0-.142-.56.6.6 0 0 0-.262-.193.7.7 0 0 0-.353-.01q-.208.05-.721.283c-.38.172-.663.262-.853.255-.27-.007-.497-.134-.69-.38a1.1 1.1 0 0 1-.246-.818c.031-.293.18-.532.432-.728.12-.094.252-.166.397-.204q.212-.067.508-.052m1.225-1.226 1.412-.929.104.156-.242.159c-.11.072-.166.13-.18.176-.006.045.014.114.077.2l1.53 2.338c.065.09.113.141.155.148.051.01.124-.014.21-.069l.273-.18.104.16-1.416.928-.104-.159.273-.176c.087-.062.142-.114.152-.162q.012-.068-.08-.207l-1.532-2.338q-.089-.13-.145-.138c-.063-.01-.142.024-.246.093l-.241.16zm2.344-1.519 2.62-1.416.725 1.191-.151.083q-.734-1.004-1.364-.663c-.083.045-.135.094-.149.138q-.026.072.031.17l1.409 2.593c.031.052.066.086.107.093.045.01.1-.007.173-.041l.32-.18.094.166-1.498.811-.09-.162.373-.2q.072-.046.093-.1a.2.2 0 0 0-.017-.125l-1.426-2.624c-.032-.055-.073-.093-.121-.104a.3.3 0 0 0-.183.049q-.316.167-.363.583c-.028.232.031.535.173.919l-.159.086zm3.442-1.827 1.485-.621.073.176-.166.065q-.205.089-.256.145c-.03.038-.041.076-.02.118a.2.2 0 0 0 .076.093l1.415.988.145-1.402a.33.33 0 0 0-.03-.183.25.25 0 0 0-.156-.16.33.33 0 0 0-.249.018l-.162.07-.07-.177 1.292-.535.073.176a.7.7 0 0 0-.318.221.83.83 0 0 0-.124.4l-.187 1.765.446 1.077c.024.059.055.09.1.104a.36.36 0 0 0 .22-.035l.29-.12.074.172-1.558.646-.072-.173.31-.128a.3.3 0 0 0 .156-.117.16.16 0 0 0 .003-.148l-.431-1.05-1.737-1.216a.5.5 0 0 0-.224-.079.9.9 0 0 0-.325.08zm7.924-2.6q-.47.115-.67.577c-.135.307-.124.76.01 1.354.153.642.363 1.063.619 1.26.259.2.531.266.828.193a.94.94 0 0 0 .5-.293q.198-.223.25-.622.05-.4-.09-.99c-.1-.432-.225-.754-.366-.978q-.222-.333-.5-.449a.93.93 0 0 0-.581-.052m-.083-.176q.45-.102.901.038.45.148.777.525.322.373.453.912.128.539.003 1.022a1.7 1.7 0 0 1-1.233 1.26c-.286.066-.57.052-.86-.048a1.76 1.76 0 0 1-.766-.536 2.1 2.1 0 0 1-.456-.921 2.1 2.1 0 0 1-.007-1.009c.08-.317.228-.59.45-.808a1.5 1.5 0 0 1 .738-.435m3.007-.542 2.959-.366.204 1.26-.17.02c-.127-.424-.269-.697-.42-.81-.173-.135-.408-.187-.695-.149l-.58.072c-.059.004-.103.025-.124.06q-.034.04-.028.123l.17 1.326.31-.041a.51.51 0 0 0 .394-.221q.138-.195.1-.556l.18-.02.203 1.65-.176.024q-.07-.41-.242-.566a.5.5 0 0 0-.435-.125l-.314.038.173 1.399q.016.125.08.162.064.043.213.028l.38-.049.02.187-1.75.217-.024-.186.38-.045c.069-.01.124-.031.155-.066.024-.037.035-.086.028-.158l-.363-2.911c-.007-.07-.03-.11-.069-.135q-.058-.035-.183-.02l-.355.044zm6.085-.514 2.98.072.017 1.281-.172-.003c-.063-.442-.166-.732-.297-.867q-.228-.239-.663-.249l-.59-.014q-.085-.005-.129.039c-.027.024-.038.069-.041.12l-.035 1.333.318.01a.53.53 0 0 0 .425-.165c.103-.114.166-.29.18-.535l.179.003-.038 1.668-.18-.004q-.01-.415-.155-.597a.53.53 0 0 0-.414-.19l-.318-.007-.035 1.409q-.001.125.06.176.054.053.203.059l.38.003-.004.194-1.76-.045.003-.183.376.007c.08 0 .131-.01.166-.042q.046-.047.048-.152l.076-2.935q0-.099-.052-.141-.049-.048-.176-.049l-.359-.007.007-.19Zm3.989.169 1.678.18-.017.186-.29-.031q-.19-.023-.245.02c-.041.028-.059.097-.073.2l-.296 2.78q-.02.164.02.214c.038.042.104.07.21.08l.322.034-.02.187-1.682-.18.02-.186.322.031c.107.014.183.003.217-.024q.056-.044.076-.21l.297-2.78c.01-.104 0-.177-.028-.197-.034-.048-.124-.076-.248-.086l-.283-.035zm2.797.304.86.176 1.592 3.28.417-2.061c.038-.2.025-.37-.048-.487q-.099-.16-.36-.218l.042-.183 1.257.253-.034.186a.7.7 0 0 0-.3-.007.45.45 0 0 0-.208.166.7.7 0 0 0-.131.293l-.584 2.877-.228-.049-1.643-3.415-.446 2.186q-.057.293.063.473.114.173.428.242l-.035.183-1.374-.28.038-.18a.6.6 0 0 0 .442-.09.52.52 0 0 0 .228-.362l.497-2.451-.031-.052a1 1 0 0 0-.142-.194.4.4 0 0 0-.176-.069l-.159-.038zm6.059 2.134-1.136 1.357 1.23.404zm.29-.653.16.052.196 3.615q.016.223.245.297l.11.034-.058.18-1.388-.456.055-.18.114.039c.145.048.249.065.321.051a.11.11 0 0 0 .093-.082c.01-.025.01-.056.01-.09l-.044-.836-1.378-.456-.3.377a1 1 0 0 0-.156.248c-.024.08-.007.152.049.235q.077.123.283.183l.117.042-.058.18-1.26-.415.054-.18a.55.55 0 0 0 .353.017q.141-.05.324-.265zm2.724 1.029.794.366.797 3.56.877-1.903q.133-.289.07-.49c-.045-.12-.139-.218-.297-.294l.075-.169 1.171.535-.083.17a.6.6 0 0 0-.286-.073.44.44 0 0 0-.239.11.75.75 0 0 0-.2.26l-1.222 2.665-.214-.1-.815-3.701-.933 2.023q-.123.276-.055.473c.052.135.173.245.363.338l-.076.17-1.27-.587.079-.17a.58.58 0 0 0 .448.018.56.56 0 0 0 .308-.297l1.046-2.272-.02-.062a1 1 0 0 0-.094-.225.4.4 0 0 0-.152-.103l-.148-.07zm6.638 3.812.332-.214.131.079-.718 1.305-.138-.086q.185-.621.128-1.008-.066-.47-.432-.698-.393-.236-.856-.038-.466.206-.977 1.05c-.287.473-.415.887-.373 1.257q.045.458.48.728.382.229.79.142c.273-.059.532-.238.787-.539l.149.09c-.27.356-.57.563-.908.635q-.499.109-.98-.186a1.6 1.6 0 0 1-.602-.636 1.7 1.7 0 0 1-.172-.887q.03-.496.3-.936c.187-.314.439-.57.74-.76.3-.193.6-.3.897-.31q.441-.015.804.207.203.127.35.31.15.188.268.495m1.68.784 2.303 1.775-.708 1.025-.127-.1q.28-.527.255-.843a.74.74 0 0 0-.3-.528l-.57-.438c-.048-.031-.087-.049-.131-.042a.24.24 0 0 0-.125.087l-.8 1.042.248.194q.197.15.435.103c.159-.03.314-.141.476-.338l.135.107-1.043 1.35-.138-.104q.25-.341.235-.587a.53.53 0 0 0-.235-.407l-.22-.176-.902 1.16c-.031.045-.038.086-.031.131a.28.28 0 0 0 .117.142l.45.345c.483.38 1.01.28 1.567-.29l.141.107-.887 1.05-2.396-1.84.114-.15.2.153q.115.093.193.086c.049 0 .1-.027.138-.083l1.786-2.317q.059-.077.044-.145-.011-.071-.1-.138l-.234-.186zm5.19 5.338-1.647.66.904.939.743-1.6Zm.563-.442.114.12-1.527 3.284c-.058.135-.038.263.08.38l.076.083-.132.128-1.015-1.053.135-.132.083.083q.156.165.259.197.067.026.117-.027a.2.2 0 0 0 .055-.076l.356-.76-1.005-1.046-.442.19a.9.9 0 0 0-.248.145.25.25 0 0 0-.076.231q.016.14.162.297l.086.09-.134.127-.922-.956.138-.131a.53.53 0 0 0 .3.176c.1.017.242-.01.415-.08zm1.917 2.189.525.698-.966 3.515 1.67-1.271q.253-.187.287-.394.03-.19-.12-.4l.148-.11.777 1.021-.152.11a.56.56 0 0 0-.218-.2.44.44 0 0 0-.262-.013.8.8 0 0 0-.297.131l-2.334 1.775-.142-.187 1.019-3.646-1.771 1.347q-.245.18-.266.393-.028.208.159.467l-.149.11-.85-1.112.153-.114q.162.202.386.228a.57.57 0 0 0 .415-.117L95.59 39l.01-.069a.8.8 0 0 0 .024-.231.44.44 0 0 0-.083-.173l-.1-.13.149-.115Zm3.437 5.221c-.041-.062-.079-.107-.124-.121a.2.2 0 0 0-.152.024L96.21 44.9a.16.16 0 0 0-.086.117c-.007.055.017.121.069.207l.155.27q.211.362.556.524.232.104.51.066c.253-.038.56-.155.92-.366.531-.318.866-.635 1.004-.963.118-.28.083-.573-.1-.891l-.21-.36Zm-.51-1.243.956 1.636q.212.363.235.695.018.412-.232.856a2.06 2.06 0 0 1-.777.749c-.286.166-.57.276-.85.321a1.5 1.5 0 0 1-.645-.038 1.6 1.6 0 0 1-.594-.338 2.4 2.4 0 0 1-.424-.55l-.857-1.463.166-.1.173.297c.045.079.083.127.127.141q.064.02.142-.024l2.566-1.499a.15.15 0 0 0 .076-.114q.014-.067-.038-.151l-.187-.325zm3.219 6.08 1.039 2.714-1.139.511-.062-.159q.519-.299.659-.583a.73.73 0 0 0 .021-.608l-.256-.67c-.02-.051-.051-.09-.093-.107q-.06-.02-.155.014l-1.226.47.114.293a.51.51 0 0 0 .314.314c.152.06.345.042.587-.038l.059.16-1.595.61-.063-.159q.389-.163.508-.38c.076-.14.076-.296.014-.469l-.104-.27-1.37.526a.15.15 0 0 0-.094.096c-.014.042-.003.104.024.18l.204.532q.328.856 1.488.566l.066.17-1.305.43-1.084-2.82.176-.07.086.235c.038.09.076.149.128.176q.069.038.159 0l2.727-1.046q.092-.03.118-.103.026-.063-.011-.166l-.11-.28zm1.9 6.785.387.076.038.152-1.419.438-.045-.158q.565-.322.794-.632c.187-.263.245-.529.176-.808q-.118-.446-.594-.618-.47-.181-1.433.072-.797.207-1.139.642c-.19.239-.245.532-.159.857.073.29.232.507.466.652.239.145.556.204.943.163l.048.169c-.438.062-.808.003-1.094-.176-.294-.18-.484-.453-.58-.822-.08-.29-.073-.584.013-.87a1.66 1.66 0 0 1 .487-.76 2.1 2.1 0 0 1 .867-.466q.534-.138 1.063-.028c.353.07.636.204.857.4q.33.3.438.712.063.228.031.466c-.01.156-.062.339-.145.539m.79 3.404a.93.93 0 0 0-.514-.718q-.44-.243-1.347-.113c-.649.09-1.091.255-1.312.493q-.332.36-.266.808a.95.95 0 0 0 .246.532c.138.142.335.238.593.3q.389.088.995 0c.438-.055.773-.152 1.008-.272.231-.125.401-.277.494-.456a.94.94 0 0 0 .103-.573Zm.18-.068q.07.462-.117.894a1.67 1.67 0 0 1-.598.725 2.1 2.1 0 0 1-.949.37 2.14 2.14 0 0 1-1.015-.09 1.7 1.7 0 0 1-.774-.532 1.6 1.6 0 0 1-.366-.812 1.5 1.5 0 0 1 .128-.852q.183-.42.601-.715.414-.294.963-.37a2.06 2.06 0 0 1 1.001.087c.315.11.567.283.767.518.2.238.321.5.359.777m.278 3.031.021.877-2.859 2.272 2.103-.045q.311-.006.462-.152c.094-.09.135-.224.135-.393l.193-.007.025 1.284-.19.004c-.004-.128-.021-.228-.062-.29-.035-.066-.104-.118-.201-.17a.75.75 0 0 0-.317-.062l-2.932.059-.003-.235 2.969-2.348-2.227.045c-.2.004-.349.055-.445.162-.097.104-.152.256-.145.47l-.19.004-.024-1.399.186-.003a.57.57 0 0 0 .18.41q.168.15.404.149l2.499-.052.049-.045a.7.7 0 0 0 .155-.18.4.4 0 0 0 .031-.182l-.003-.17zm-.267 6.723q.05-.48-.325-.822-.374-.342-1.281-.428-.985-.1-1.395.173a.94.94 0 0 0-.452.718.93.93 0 0 0 .114.573c.1.17.269.318.507.432q.358.182.967.241.659.068 1.043-.03.383-.096.587-.325a.94.94 0 0 0 .235-.532m.193-.02q-.045.462-.328.842c-.283.38-.438.435-.746.56-.31.12-.645.168-1.011.134a2.16 2.16 0 0 1-.971-.332 1.73 1.73 0 0 1-.625-.7 1.55 1.55 0 0 1-.158-.874q.04-.44.321-.801c.186-.239.442-.422.756-.55a2.15 2.15 0 0 1 1.022-.13q.54.05.956.324.41.266.622.687c.134.273.193.556.162.84m-.409 2.927-.28 1.188-3.087.404 2.614 1.644-.287 1.215-.186-.041.072-.294q.037-.16.004-.224c-.021-.045-.076-.073-.149-.09l-2.845-.666a.17.17 0 0 0-.148.034.46.46 0 0 0-.097.218l-.062.269-.183-.041.38-1.637.183.041-.073.311q-.032.129.004.2a.17.17 0 0 0 .114.097l3.052.711-3.135-1.978.041-.162 3.691-.477-2.61-.611q-.233-.054-.363-.024a.4.4 0 0 0-.217.124c-.059.059-.114.176-.159.338l-.183-.045.314-1.346.183.045c-.041.22-.024.383.038.483q.091.147.401.214l2.482.58c.062.018.111.007.145-.02q.057-.048.094-.2l.069-.305zm-1.414 5.487-.556 1.595-.176-.062.097-.273c.041-.124.052-.204.035-.249-.025-.04-.08-.079-.18-.114l-2.641-.918c-.108-.034-.177-.045-.211-.024-.049.024-.093.083-.124.186l-.107.304-.177-.059.553-1.602.176.066-.104.3c-.038.107-.044.18-.027.225.024.041.086.076.19.114l2.641.915q.15.056.204.024c.048-.031.097-.107.138-.218l.09-.276zm-2.314 5.007.256.303-.066.142-1.38-.552.068-.149c.421.069.763.072 1.008 0q.466-.125.643-.514.19-.419-.069-.853-.26-.434-1.16-.843c-.501-.228-.936-.3-1.292-.217-.3.072-.525.262-.663.57a1.02 1.02 0 0 0-.045.804c.094.262.304.497.632.715l-.076.162q-.564-.343-.735-.825a1.3 1.3 0 0 1 .058-1.002 1.6 1.6 0 0 1 .56-.67c.245-.169.535-.265.86-.283q.492-.037.963.18.502.228.849.642c.228.273.366.56.415.853q.063.436-.107.825-.096.215-.263.383a2 2 0 0 1-.456.329m-1.83 3.356.17.355-.094.152-1.17-.663.082-.141q.612.178 1.012.062a.98.98 0 0 0 .594-.456.76.76 0 0 0 .1-.563.64.64 0 0 0-.31-.42.6.6 0 0 0-.315-.087c-.104 0-.2.027-.304.093q-.151.093-.452.425c-.283.303-.511.507-.667.604a.94.94 0 0 1-.486.145.95.95 0 0 1-.48-.142c-.287-.169-.47-.4-.55-.704q-.112-.456.153-.912c.19-.324.462-.549.814-.666l-.158-.414.093-.152 1.236.718-.093.152c-.373-.138-.722-.159-1.036-.066-.321.097-.556.27-.711.532-.121.214-.163.421-.11.628a.72.72 0 0 0 .338.47c.103.059.21.083.31.08a.67.67 0 0 0 .339-.125q.17-.12.562-.528.43-.454.698-.556c.248-.09.51-.055.78.097.28.162.456.39.532.67q.115.42-.131.838a1.3 1.3 0 0 1-.29.339q-.177.136-.456.235" fill="#173f69"/><path fill-rule="evenodd" clip-rule="evenodd" d="M33.321 33.425a43.77 43.77 0 0 0-12.706 30.924c0 12.078 4.854 23.01 12.706 30.92 7.852 7.918 18.694 12.81 30.679 12.814 11.975-.004 22.82-4.896 30.672-12.814a43.76 43.76 0 0 0 12.713-30.92 43.78 43.78 0 0 0-12.713-30.924C86.82 25.507 75.975 20.618 64 20.618c-11.985 0-22.827 4.89-30.679 12.807m-.438 62.283C24.92 87.683 20 76.593 20 64.348c0-12.243 4.92-23.334 12.883-31.355C40.842 24.965 51.846 20 64 20c12.147 0 23.148 4.965 31.11 12.993C103.073 41.014 108 52.105 108 64.35a44.4 44.4 0 0 1-12.89 31.359c-7.962 8.021-18.963 12.989-31.11 12.989-12.154 0-23.158-4.968-31.117-12.99" fill="#173f69"/><path fill-rule="evenodd" clip-rule="evenodd" d="M74.82 60.526c-.104.028-.177.218-.177.218.166 0 .608-.425.608-.425a3 3 0 0 1-.431.207m-3.654-2.34c-.051-.021-.048-.07-.11-.07 0 0-.073 0-.073.045.007.083.118.242.242.242.128 0 .11-.11.107-.155-.01-.073-.12-.045-.166-.063Zm-12.41 5.48c-.061-.018-.013-.056-.079-.056a.7.7 0 0 0-.145.02s-.038.039-.024.07c.01.034.052.196.19.238.142.034.276-.187.276-.187l-.086-.086s-.062.01-.131 0Zm14.855-4.735c.162 0 .138-.138.131-.19-.01-.09-.148-.062-.21-.086-.056-.024-.056-.086-.138-.086 0 0-.094 0-.09.062.01.096.148.3.307.3m-2.87.618-.275.163s-.308.127-.494.252c-.187.127-.463.193-.463.193.18.128.521-.128.6-.155.073-.028.633-.453.633-.453Zm.166.898v.003c.042-.02.342-.172.325-.431 0 0-.207.342-.325.428m4.123-.735c.017.017.142.11.187.11.044 0 .03-.166.038-.2.007-.031-.087-.073-.187-.087-.1-.01-.176-.09-.176-.09s-.024.073 0 .121c.024.045.12.125.138.146m-4.123.735c-.01-.01-.03.003-.082.059-.139.155-.511.417-.511.417.259-.103.593-.386.593-.386s.021-.07 0-.087h-.003.003zm-.407-.31-.318.296c-.183.18-.245.266-.245.266.097 0 .225-.097.31-.142.07-.034.598-.673.64-.728.03-.02-.387.307-.387.307Zm2.31.728c.107.038.28-.11.456-.294.172-.176.266-.452.266-.452-.235.287-.722.746-.722.746m-3.943-4.817s.556-.532.942-.235c.394.311.232.784.232.784s-.124-.287-.356-.418c-.231-.13-.262-.096-.428-.152-.159-.055-.39.021-.39.021m25.962 1.257-.045.148s.007-.162-.072-.245c-.073-.08-.16-.107-.29-.083-.121.021-1.078.187-1.171.187-.1 0-.445-.004-.6-.073-.153-.069-2.128-1.101-2.363-1.208-.241-.097-.455.03-.59-.017-.135-.049-.135-.142-.242-.225-.096-.09-.141-.148-.424-.159-.283-.01-.346.138-.474.138-.127 0-.407-.1-.538-.19-.138-.1-.366-.414-.477-.455s-.293 0-.424.072c-.128.066-1.9.508-2.324.632-.425.128-3.484.708-3.76.732-.27.028-.815.117-1.04.266-.224.152-2.303 1.937-2.424 2.12-.117.193-.02.204-.02.204s.18.03.245.166c.072.141.214.241.176.428 0 0-.259-.187-.387-.2-.13-.011-.531-.19-.687-.097-.152.086-.424.362-.424.362l-.501.5s.083.246-.055.36c-.139.104-.422.08-.422.08s-.22.6-.573.687c0 0-.1.024-.238-.273a18 18 0 0 0-.46-.87c-.086-.149-.2-.284-.286-.249s-.255.107-.255.107-.01.242-.018.331-.335.467-.373.515c-.038.052-.231.176-.324.224-.093.052-.2-.058-.3-.155-.104-.103-.498-.566-.653-.832l-.453-.763-.196.238s-.083.104-.042.218c.035.117.121.224.145.259.028.03.042.107-.03.19-.073.086-.847.804-.94.832a.28.28 0 0 1-.255-.087 8 8 0 0 1-.636-.649 7 7 0 0 1-.521-.69l-.038.062-.031.293s-.232.121-.321.138c0 0 .117.087.207.225.083.131.11.183.11.183s.021.065-.027.107c-.049.041-.767.711-1.164.894 0 0-.21-.128-.349-.207-.138-.072-.314-.124-.383-.197-.07-.072-.09-.29-.09-.29s.705-.407.988-.646c.276-.245.79-.739.908-.856.117-.114.47-.342.47-.342s.224.249.296.308c.07.062.049.034.1.034.056 0 .356-.114.443-.159.086-.041.38-.083.4-.083.024 0-.007.132-.007.132s.042.01.08-.018c.037-.02.217-.18.248-.255.028-.073.045-.314.055-.345.007-.035.042-.035.087-.035.038 0 .376-.031.449.007.069.045.113.076.113.076l.063-.19-.007-.352s-.218.235-.511.235c-.297 0-.387-.19-.404-.332 0 0-.187.11-.26.221 0 0-.355.028-.483.097-.134.062-.41.131-.452.217-.038.076-.024.076.052.073a2 2 0 0 0 .421-.128 1.8 1.8 0 0 1 .363-.107c.041 0 .065-.031.065-.031s.014.048.062.107c.045.055.125.131.125.131s-.346.097-.515.149c-.169.048-.552.148-.583.176-.028.024-.145-.16-.145-.16l-.194.053s-.11.238-.241.238c-.132 0-.322-.017-.363-.114-.048-.104.062-.028.062-.028s.114.052.204.052c.097 0 .19-.093.19-.155 0-.07-.066-.18-.173-.18-.1 0-.214.035-.214.035s.004-.073.093-.142a1.1 1.1 0 0 1 .415-.162c.096-.01.21 0 .352-.07.138-.068.48-.255.614-.272.132-.017.511-.072.567-.072h.055s.072-.287.432-.235c.359.052.542.235.542.235s.383.065.621.117c.239.045.518.093.518.093s-.286-2.317-1.488-3.187c-1.426-1.032-2.4-1.094-3.833-1.391-1.253-.256-1.215-1.627-1.215-1.627s.093-.373.117-.272.363 1.343 1.216 1.547c.85.2 2.472.414 3.36.935.91.535 1.698 1.668 2.099 2.504.407.832.383 1.491.383 1.491s.432.194.432.504c0 0 .2.125.466.2.266.08.431.097.666.073.238-.024 1.164.042 1.457-.052.29-.096.843-.445.843-.445s.804-.487 1.004-.663c.204-.17.777-.725 1.009-.863.228-.138.438-.377.608-.5.165-.129.562-.315.704-.322.135 0 1.17-.097 1.391-.145.342-.08.394-.076.646-.138.2-.052 1.184-.21 1.436-.28.253-.069 1.637-.442 1.893-.535.255-.1 1.146-.373 1.346-.373.204 0 .556-.045.736.124.172.173.507.36.766.45.26.089.49.234.563.234.07 0 .421.045.894-.294 0 0 .68.225 2.169.812 1.481.587 2.351.94 2.258 1.212M75.638 61.8c-.045.702-.073 1.851-.073 1.851-.024-1.16-.504-1.944-.504-1.944.307-.076.629-.673.629-.673s0 .066-.052.767Zm-1.568 3.333c-.11-.014-.224.024-.38-.121 0 0 .087-.121.246-.121.158 0 .383.159.383.425 0 0-.138-.17-.249-.183m.415 6.394c-.042-.138-.28-.162-.425-.152-.18.018-.238-.148-.435-.207-.314-.097-.729.266-.718.152.01-.117.224-.85.794-.79.697.069.784.997.784.997m-.135.974s-.128.235-.421.249c-.294.013-.632-.456-.632-.456s.307.093.47.086c.162-.017.293-.086.293-.086.31-.066.29.207.29.207m-.984-10.87c.48.767.46 1.492.46 1.492-.087-1.015-.805-1.626-.805-1.626s-.139-.632.345.134m-2.358 3.726c-1.237-.238-1.375-1.733-1.375-1.733s.618-.197.991.21c.37.411.901.411.901.411s.273.38.58.528c.311.149 1.099-.314 1.099-.314-.394.563-.96 1.136-2.196.898m1.025.552s.245-.01.383-.01c.135 0 .135.287.135.287s-.173-.076-.255-.114c-.09-.045-.263-.163-.263-.163m-2.027-.12s.024-.142.273-.142.36.37.36.37c-.09-.118-.336-.228-.412-.2-.076.023-.22-.028-.22-.028Zm2.631 5.334s-.165-1.395-1.37-2.154c-.819-.511-1.875-.163-1.875-.163s-.325-.234-.173-.549c0 0 3.764-.476 3.418 2.866m-2.503 2.718c-.912-.114-1.468-1.409-1.468-1.409.415.563.87.653 1.237.711.404.066.797-.107.797-.107.218.21.674.421.674.421s-.366.494-1.24.384m2.072 7.969c.994 1.675 1.536 2.507 3.27 3.674 0 0-2.8-1.243-4.6-3.926-1.802-2.686-2.327-4.575-2.168-4.986l.39-1.198s.59 2.455.95 3.038c0 0-.594-2.15-.45-3.266 0 0 .519 3.622 1.137 4.281 0 0-.712-2.379-.497-4.633 0 0 .283 4.181 1.968 7.016m-.17 10.953a32.1 32.1 0 0 1-12.24.87c1.423.245 2.883.438 4.389.545q1.736.121 3.435.11c-1.806.156-3.66.16-5.549.039a40 40 0 0 1-2.803-.287c3.729.666 7.73.932 11.981.843-16.725 2.037-29.601-3.315-37.543-19.516 3.529 7.11 8.518 12.043 14.727 15.168-2.573-1.426-4.824-3.2-6.844-5.22a32 32 0 0 1-3.643-4.016c4.313 4.796 9.81 8.58 16.319 10.6 5.345 1.399 11.83 1.085 18.255-1.298a33 33 0 0 0 2.469-1.019 29 29 0 0 1-3.916 1.803c-4.257 1.574-8.573 2.037-12.516 1.547 4.63.832 9.194.732 13.48-.17ZM54.683 81.665s.484-.515.957-.439c.48.08.95.65.977.722 0 0-.546.249-.956.135-.408-.118-.836-.435-.978-.418m-.076-5.065.145.086c-.02-.073-.017-.135-.017-.135.038.093.19.263.19.263-.048-.087.041-.266.041-.266l.032.165c.186.881 1.284 1.875 1.284 1.875a.85.85 0 0 1 .193.415c-1.43-.826-1.868-2.403-1.868-2.403m-.107-3.17s-.024-.142-.086-.232-.093-.079-.141-.062c-.052.018-.063-.02-.07-.051-.003-.038-.058-.038-.1.003-.041.035-.165.038-.165-.028 0-.065.024-.117-.07-.086-.09.024-.148.038-.138-.035.01-.072-.065-.113-.11-.093-.048.01-.09-.072-.11-.12-.021-.049-.042-.066-.087-.094-.038-.034-.038-.083-.038-.131 0-.052.017-.104-.031-.138-.045-.038-.245-.062-.245-.062s.397-.28.518-.325c0 0 .114.014.124.045.01.035-.017.086.01.11.025.018.135.035.152.063.014.03-.013.1-.013.1s-.097.034-.18.09-.069.055-.069.055l.235-.09c.086-.031.134-.055.159-.024.017.031.01.072.051.103.038.028.097.073.09.104-.003.028-.22.156-.273.193.035-.003.135-.017.37-.134 0 0 .12-.024.138-.004.028.025-.11.11-.11.11s.11.07.2.053l-.263.248s.132-.003.283-.072c.156-.07.221-.125.28-.125.055 0 .086.018.076.035s-.242.12-.318.193c0 0-.024.059.014.059a.6.6 0 0 0 .21-.072c.05-.028.218-.07.167-.021-.035.027-.145.141-.215.138-.062-.01-.117.01-.172.069a.44.44 0 0 0-.073.228m-1.605-2.428c1.195-.79 1.274-1.457 1.274-1.457a3.5 3.5 0 0 1-1.37 1.343c-.208-.124-.301-.38-.301-.38s.639-.2 1.146-.59c.504-.39.611-.967.611-.967.045.007.187-.01.232.06.044.061.065.12.065.12l.007-.048c.01-.045.035-.066.114-.066.08 0 .128.093.08.238-.042.142-.121.266-.121.266s.024 0-.246.867c-.262.863-.763 1.146-.763 1.146l-.462-.314c1.008-.922 1.177-1.747 1.177-1.747-.356.987-1.236 1.681-1.236 1.681-.052 0-.207-.151-.207-.151Zm-1.34.211-.176-.107c.99-.96 1.278-2.262 1.278-2.262-.66 1.475-1.44 2.196-1.44 2.196l-.214-.169c.69-.373 1.19-1.415 1.19-1.415-.738 1.139-1.308 1.319-1.308 1.319a2 2 0 0 1-.273-.211c1.402-.729 1.603-1.568 1.603-1.568-.836 1.112-1.716 1.458-1.716 1.458-.097-.06-.422-.56-.422-.56s.563-.117 1.22-.356c.655-.238.942-.95.942-.95s.141.05.248.039c.104-.007.249-.107.304-.107.052 0 .08.1.08.1l-.028.117c.148.049.463.142.697.177.308.044.618.13.618.13s-.106.532-.662.374a1.1 1.1 0 0 1-.674-.574c-.421 1.94-1.267 2.37-1.267 2.37Zm-1.243.67a1 1 0 0 1-.273-.004c-.19-.04-.476-.158-.5-.4-.018-.159.086-.338.18-.463.01 0 .016-.003.037-.007.076-.02.145-.058.214-.093l.035-.017a.74.74 0 0 0 .058.4c.07.166.156.322.242.477.01.017.038.059.066.1a.3.3 0 0 1-.059.007m-.99 1.485c-.954-.104-1.966.939-2.29 1.201a45 45 0 0 1-1.126.86c.155-.407.518-.936.819-1.143.307-.204.86-.815 1.205-.977.341-.166.818-.632.818-.632.418.366.763.387.763.387l-.19.304Zm-4.81-.47s.13-.024.248 0c.12.028.452.194.7.149.374-.063.719-.429.774-.474.049-.044.114.149.28.1s.242-.213.442-.217c.207-.007.231.131.46.035 0 0-.567.746-1.282.877-.628.117-1.088.02-1.623-.47Zm1.653-5.314c.535.6 1.032.6 1.37.76.34.152.695 0 .695 0 1.26.152 1.688-.477 1.688-.477.052.017.16.132.215.266.051.135.424.21.424.21s-.072.912-2.078.95c-2.01.035-2.314-1.709-2.314-1.709m1.94-.252c-.017.135.052.435-.48.632-.535.19-1.35-.342-1.35-.342.25-.062.87-.193 1.068-.193.193 0 .303-.11.441-.21.145-.09.339-.018.322.113Zm-3.273-4.212c-.628-.826-.207-2.09-1.05-3.543-.838-1.457-2.095-1.61-3.777-3.764-1.678-2.158.2-4.243.2-4.243l.01.007c-.196.666-.23 1.93.35 3.332.497 1.187 1.609 1.654 2.755 2.53 1.14.878 2.306 2.017 2.4 3.267.09 1.25.12 1.878.652 2.327.418.356.946.263 1.14.066.31-.318 1.036-.045 1.246.521-.235.352-.756 1.022-1.474 1.147-.684.117-1.823-.819-2.452-1.647m-1.364 1.598c-.804-.583.166-1.978.166-1.978 0 .5.02 1.063.404 1.498.328.366.95.605 1.14.605s.71.483.71.483c-1.042.276-1.612-.024-2.42-.608m-.01 3.778c-.88-.463-.694-1.554-1.267-2.832-.573-1.27-1.678-1.847-2.462-3.08-.78-1.236-.11-2.23-.11-2.23.196.252.058.373.272.904.21.532.598 1.326 1.368 1.848.766.514 1.578 1.605 2.037 2.455s.587 1.502.587 1.502c-.017.117.02.504.207.7.186.2.573.298.573.298s.01.224.221.476a.77.77 0 0 0 .487.266c-.56.224-1.029.159-1.913-.307m3.139-11.312c-1.343-1.53-.017-3.28-.017-3.28l.065-.055c.059 1.702-.024 2.075 1.347 3.304 1.367 1.233 1.678 1.675 1.892 2.02s.67.963.711 1.405c.045.446-.349.732-.656.718-.31-.017-.728-.158-.728-.158-.01-1.578-1.275-2.42-2.614-3.954m4.354 2.19c.2.054.241.14.241.14s-.12.035-.155.142c0 0-.086-.238-.193-.238s-.197.048-.197.048.1-.151.304-.093Zm.155-2.397c.363 0 .47.273.47.273s-.26.103-.373.114c-.117.01-.328-.114-.328-.114.041-.173.231-.273.231-.273m-.141-6.778c-.183.045-.466-.014-.819-.245-.359-.239-.37-1.074-.307-1.844.059-.774.059-1.257-.287-2.027-.386-.856-.207-1.599-.207-1.599s.035.757.276 1.24c.218.439.605.753.74 1.388.138.642.034 1.374.079 1.789.034.414.235.645.494.687.258.041.431-.21.476-.242.045-.034.218-.19.218-.19s3.508-2.783 7.23-1.288c1.326.535 1.94 1.385 2.593 2.714.656 1.336.37 1.965.37 1.965s-.567 1.492-.408.69c.031-.148-.297-.57-.297-.57s-.37.456-.387.304c-.02-.151-.055-1.115-.072-.828-.02.283-.352.487-.352.487s-.018-.187-.125-.605c-.107-.414-.338-.462-.227-1 .096-.47-.373-2.55-2.259-2.49-1.888.055-1.747 1.944-1.747 1.944-.069-.038-.159-.173-.245-.114-.09.058-.231.13-.387.093a.44.44 0 0 1-.231-.114s-.418.083-.439-.038c-.013-.12.021-.2.052-.432.035-.238.156-.504.156-.504-.415.508-.36.895-.394.936-.031.045-.452.038-.466-.09-.017-.128-.26-.29-.345-.252-.083.035-.356-.01-.284-.138.08-.128.505-.85 1.216-1.253.715-.408 1.464-.511 1.585-.529.12-.017.431-.252.32-.252-.106 0-1.412-.014-2.447.525-1.036.535-1.326.846-1.692 1.32-.36.469-.618.88-.618.88.01-.08-.007-.135-.16-.173-.154-.038-.244-.062-.168-.245s.373-.611.373-.611-.121.183-.322.386c-.203.197-.3.28-.486.325m.138-5.066c.093.014.176.076.31.177.135.103.318.32.318.32s.08.111.097.204c.017.09-.142.114-.142.114-.141-.521-.583-.815-.583-.815m.746 1.982c.062.025.12.173.186.173.059 0 .086-.031.086-.031s.245.725.708.801c.159.024.245.038.297.038l.045-.017s.055.024-.045.017a1.8 1.8 0 0 0-.58.328s-.739-.614-.808-1.26c0 0 .048-.07.11-.049Zm.262-7.6s.535.605.653 1.7c0 0-.59-.853-.643-1.047-.055-.193.025-.542-.01-.652Zm2.034 8.087a1 1 0 0 0-.083.035c-.135.055-.273.11-.411.176-.21.103-.366.183-.608.145a.73.73 0 0 1-.442-.276c-.207-.245-.238-.47-.252-.794a3 3 0 0 0-.131-.774c.276.432.639.742 1.088 1.002.28.162.563.32.839.486m-.349-2.579c.477 0 .59-.466.59-.466.032-.028.056-.124.211-.124 0 0 .88.832.314 1.505-.57.673-1.319.08-1.626-.266-.31-.342-.867-1.395-.96-2.81 0 0 .366.49.4.731.039.239.325 1.43 1.071 1.43m.646-7.945c.162-.732.172-1.23.172-1.23s.059.236.042.412c-.049.39-.073.87.041 1.547.09.562.47 1.798.753 2.271.28.473.463 1.257.463 1.257-.07-.127-.494-.259-.546-.314-.052-.048-.069.131-.069.131-.01-.452-.28-1.17-.442-1.643-.159-.473-.573-1.703-.414-2.431m2.303 8.342c.169 0 .32-.11.32-.11s.108-.142.436-.28c.335-.142.549.418.549.418-.356.763-1.316.863-1.316.863-.95-.066-1.388-.863-1.388-.863-.014-.774.428-1.371.428-1.371.073 1.153.808 1.343.97 1.343Zm1.036-4.002.003-.007c.041.777.404 1.613.546 2.051.141.442.138.819.138.819s-.024-.08-.087-.024c-.058.051-.145.359-.145.359 0-.18-.072-.902-.348-1.592-.277-.69-.107-1.606-.107-1.606m1.38 6.326c.18-.035.39-.318.39-.318.19.19.073.636-.044.546-.124-.09-.487-.176-.487-.176s-.038-.014.142-.052Zm.243-3.398s.082-.014.252-.131c.169-.114.193-.304.193-.304-.004.087.131.653.438 1.409.304.753.435 1.215.435 1.215l-.01.1c-.024-.069-.214.007-.27.018-.055.007-.175.055-.224-.118-.048-.172-.214-.587-.51-1.167-.29-.573-.304-1.022-.304-1.022m.38-2.296c.124.325.117.629.117.629s-.342.024-.342-.384c0-.41-.318-.828-.318-.828 0-.097.411.248.542.583Zm1.273 5.283a2.2 2.2 0 0 0-.01-.456c.11.252.394.484.556.69-.028.194-.035.401-.045.564-.038.445.024.904.173 1.325.107.3.203.49.31.774-.024.041-.21.069-.28.083-.244-.573-.569-1.181-1.028-1.592.155-.445.297-.922.324-1.388m.377-2.151c.673.797 1.18.942 1.426.977.241.035.404-.055.404-.055l.038.61s-.142.011-.605-.037c-.462-.052-1.05-.805-1.267-1.202-.21-.397-.694-.928-.694-.928s.031-.17.698.635m2.503 3.442c-.031.19-.131.487-.186.67-.087-.01-.208-.065-.29-.09-.232-.075-.056-.096-.28-.182-.221-.08-.294-.17-.456-.304a.9.9 0 0 1-.204-.36c.183.087.473.184.646.222.356.079.4.048.77.044m-.328-3.4.045-.011-.066.37s-.007-.108-.007-.163c0-.052.028-.197.028-.197Zm.67 2.168s.12.193.37.245c.251.059.027.135.027.135s-.925.507-1.084-2.1c0 0 .093 1.057.687 1.72m.12-1.492c.284.035.754.46.754.46l-.028.044c-.131.404-.442.539-.442.539-.173-.366-.4-1.033-.4-1.033s-.163-.051.117-.01ZM62.61 57.322c.988.062 1.04.035 1.133.055.093.025.269.104.231.183-.034.07-.235.156-.442.142-.22-.003-.57-.014-.87-.02-.283 0-1.05.072-1.288-.96 0 0 .249.531 1.236.6m.515-.632q.223-.002.445-.014h.059c.03.038.027.083.048.125.045.09.11.186.138.283-.822.048-1.826.02-2.334-.587q.03-.028.055-.055a5.3 5.3 0 0 0 1.589.248m-.58-1.985c.172.014.683-.017.683-.017-.027.158.049.576.049.576-.09.004-.249-.041-.308-.034a2 2 0 0 1-.331-.049c-.114-.024-.37-.09-.37-.09s-.528-.227-.49-.282c.048-.07.083-.149.083-.149.052-.003.518.038.684.045m-.076-3.004c.158-.321.165-.542.272-.818.014.006.37.096.384.103.11.052.103.014.217.083-.052.17-.003.394-.048.639-.004.02-.27.034-.28.048-.207-.003-.335-.052-.545-.055m.127 1.968q.164.022.335.048c.049.004.256.01.297.021-.01.221-.01.439-.01.666a5 5 0 0 1-.387-.003 78 78 0 0 0-.887-.08c.11-.172.172-.348.31-.714.021.003.318.059.342.062m2.79 6.291a.66.66 0 0 1 .36.597c.006.26-.142.35-.35.37-.079-.2-.193-.428-.403-.449-.166-.024-.339.104-.494.149q-.181.043-.363.082c-.152.035-.269.27-.227.425.024.104.044.21.062.31.01.084.293.167.29.253 0 .014-.01.038-.01.052-.025.03-.06.055-.094.08-.124.089-.29.1-.438.13a9 9 0 0 1-.743.118c-.231.03-.466.065-.7.083-.232.014-.463-.01-.695-.014-.065-.004-.141.01-.193-.049-.07-.072-.066-.183-.183-.203a1.5 1.5 0 0 1-.442-.145c-.176-.09-.245-.315-.332-.49-.113-.235.06-.456-.01-.719-.069-.248-.131-.51-.083-.773.038-.187.149-.37.242-.529a1 1 0 0 1 .055-.096l.049.003c.186.004.355.021.535-.024.317-.08.538-.293.704-.563.114.1.242.194.373.27.27.155.29.138.58.169.249.027.483.062.732.069q.18.005.366 0c.135 0 .487-.024.618.027.114.049.176.208.235.315.045.08-.138.276-.035.28.263.006.36.144.594.272m.832-12.845c.021-.041.083-.148.346-.148.255 0 .352.28.352.28-.028-.028-.166-.042-.228-.045-.062-.004-.283.01-.325.003-.044-.003-.062-.03-.086-.055-.028-.017-.076.014-.059-.035m-.072.822s.22.031.321-.007c.1-.034.176-.138.356-.227a.44.44 0 0 0 .235-.25s-.09.008-.004-.01c.09-.017.314.073.314.073s.049.048-.02.048c-.073 0-.18-.007-.222.004-.044.017-.183.131-.283.197a4 4 0 0 1-.341.203.7.7 0 0 1-.18.063zm.103 14.133a.44.44 0 0 0-.234.338c-.021.166-.007.435.007.49.01.052-.056.114-.16.066-.096-.048-.206-.255-.275-.387-.07-.134-.2-.252-.2-.252s.01-.083-.018-.01c-.028.076-.224.11-.224.11-.049-.417-.615-.783-.694-.935a19 19 0 0 0-.356-.55s.431-.092.646-.168c.207-.076.259 0 .32.076.056.079.17.328.17.328.314.013.48-.16.48-.16.041-.003.18-.006.12.039-.065.048-.324.238-.348.314-.028.08.276.293.321.349.038.051.114.176.328.2s.335-.093.314-.035c-.013.049-.107.149-.197.187m.325 5.42c-.034.27-.801 1.524-3.021 1.524s-2.963-.163-3.664-1.274c-.583-.93.021-3.667.021-3.667l.3-1.275s-.76-1.236-.835-1.654l-.107-.303s.873.928 1.032 1.046c0 0-.28-.684-.314-.822-.034-.131-.08-.338-.045-.245s.242.632.276.677c.038.048.142.342.239.438.096.1.369.249.51.273.139.02.15.031.18.08.035.048.09.165.155.179.07.014.377 0 .474.014s.714-.021.966-.056c.252-.037.919-.13 1.005-.155.083-.017.256-.062.256-.062s.276.152.483.397c.21.252.283.487.307.615.018.134.149.32.211.404.059.086.2.341.221.556.017.214.128.78.1.918-.024.135-.083.521-.321.856-.238.328-.518.884-1.654.884s-1.913-.228-2.1-.535a2.2 2.2 0 0 1-.324-1.012c-.03-.376-.11-.134-.11-.134s-.08.456-.035.708c.042.259.411 1.077.96 1.184.55.103.863.159.925.283s.142.732.246.836c.11.107.32.193.514.18.2-.011.446-.122.456-.274.01-.151 0-.4 0-.4s-.017.266-.052.321c-.038.059-.259.173-.373.173s-.359.114-.48-.246c-.128-.365-.09-.573-.186-.742 0 0 .307-.155.407-.114 0 0 .145.266.204.646 0 0-.02-.408-.07-.584 0 0 .125-.069.229-.069.11 0 .155-.01.19.035.034.045.069.114.069.114s.18.017.338-.042c.162-.055.984-.37 1.198-1.591 0 0 .197.531.073 1.643 0 0 .362-.456.276-1.357-.093-.904-.18-1.208-.214-1.55-.035-.342-.028-.58.034-.563 0 0 .891.497 1.102.95.217.459-.014 2.527-.052 2.793Zm-5.48 14.841c-.338-.462-.528-1.14-.528-1.14s.352.54.87.667c.556.125 1.406-.134 1.406-.134.372.714.783 1.65 2.914 3.066 2.327 1.543 5.034 2.351 5.034 2.351s-1.85-.19-5.355-1.996c-3.888-1.995-4.34-2.814-4.34-2.814Zm-2.928 2.542s-.856-.584-.96-.701c-.107-.114.429-.055.677.117.245.173 1.08 1.119 2.365 1.664 2.373 1.012 4.434 1.223 4.434 1.223s-1.395.145-5.66-1.216c-1.66-.528-2.43-1.294-3.197-1.85 0 0 .083-.149.508-.087l.428.052s.977.632 1.405.798M56.271 72.67a4 4 0 0 1-.518-.362s.183-.263.273-.36c.093-.096.258-.207.258-.207s.48.18.601.266a.6.6 0 0 1 .17.176s-.2.197-.29.211c0 0 .248-.055.38-.124 0 0 .09-.014.117.069.024.086-.173.262-.315.307 0 0 .208-.055.377-.21.172-.15.456.013.456.013s-.152.349-.418.473c0 0 .3-.096.51-.29.208-.197.664-.725.664-.725s0 .042.062.1a.3.3 0 0 0 .155.052v.1s-.48.984-1.011 1.388c0 0-.494-.27-.74-.386-.248-.128-.52-.377-.731-.49Zm-.78 1.516c.566 0 .814.549.814.836 0 0-.1.02-.155-.038a1 1 0 0 1-.087-.11s-.376.168-.48.293c0 0-.072-.145-.134-.177-.062-.027-.09.018-.162 0a.46.46 0 0 1-.26-.224c-.051-.12-.144-.08-.186-.055-.041.024-.152-.045-.166-.083 0 0 .25-.442.815-.442Zm3.21-3.429c-.051.138-.272.515-.365.611-.087.097-.373.346-.439.373-.066.031-.145-.013-.145-.013s.287-.194.497-.387c.204-.194.453-.584.453-.584Zm-3.148-1.57c.286 0 .587.217.587.217-.028.069-.287.276-.677.276s-.587-.521-.587-.521.39.027.677.027Zm-.629-.474c.148-.03.138-.138.242-.21.093-.08.228-.01.404.024s.242.017.338.027a.3.3 0 0 1 .162.07c.032.145.18.29.18.29h-.318a5 5 0 0 1-.78-.121c-.08-.025-.407-.025-.407-.025s.038-.017.18-.055Zm-3.726-1.298s.57.176.808.193c.245.021.142.197.142.197s-.85-.283-.95-.307c-.1-.017 0-.083 0-.083m-.114-.705c.107-.127.328-.303.37-.49l.107.017s-.028.149.069.17c.097.03.235-.076.259-.083.02-.007.217-.007.249.017.03.028-.28.497-.643.556-.362.059-.51-.059-.41-.187Zm1.295-8.942c.166.01.446.18.774.424.328.249.656.484.656.484s-.007.03-.21.165c-.208.132-.384.54-.384.54-.01-.24-.328-.647-.932-.647-.608 0-.919.522-.919.522-.38-.249-.172-.684-.172-.684.877.117 1.187-.804 1.187-.804m-.66-.094s.177.125.035.19c-.141.059-.559.166-.366.09a.95.95 0 0 0 .332-.28Zm5.329-.925s-1.993 1.947-5.024-1.15c0 0 .518.504 1.111.646 0 0-1.73-1.436-1.681-4.223 0 0 .539 2.7 2.013 3.916 1.623 1.336 3.01.953 3.58.811Zm.904-4.32c-1.516 0-1.823-1.747-1.823-1.747.024.128.453.428.756.553.308.131.88.103 1.14.131.262.024.687.352.998.38.307.024.849-.156.849-.156s-.404.84-1.92.84Zm1.198 4.13c-.248-.066-.538.142-.538.142s.304-.277.656-.277c.359 0 1.163.232 1.38.801 0 0-.445-.086-.562.215 0 0-.338-.719-.936-.88Zm-.103.988c-.07-.056-.118 0-.194-.049-.082-.045-.117-.124-.2-.13 0 0 .218-.25.411-.212.197.038.363.297.356.484 0 0-.056-.062-.09-.062-.035 0-.214.027-.283-.031m-3.37 5.158a.6.6 0 0 0 .242-.083c.044-.03.3 0 .3 0s.456.173.428.328c-.031.166-.577.194-.577.194-.883-.059-.783-.587-.783-.587.044.076.31.148.39.148m1.643-3.042s-.034-.79-.466-1.163c-.431-.37-.887-.273-1.26-.045 0 0 .135-.29.846-.29s.97 1.14.97 1.14-.08.047-.09.358m-1.222-.628c-.055 0-.11.103-.186.103-.08 0-.19-.151-.19-.151s.048-.353.528-.297c.477.051.487.828.487.828-.038-.176-.27-.39-.377-.4-.1-.01-.217-.083-.262-.083m1.398 2.61c0-.331-.355-.649-.604-.649-.248 0-.532.352-.532.352.014-.159.56-.587.895-.342.352.26.241.64.241.64Zm.563-2.496c-.442 0-.61.134-.61.134s.123-.186.624-.186c.497 0 .801.359.832.905 0 0-.134-.225-.172-.328s-.232-.525-.674-.525m.176.614c-.058-.038-.224-.038-.303-.03-.09.01-.304 0-.37-.1 0 0 .27-.26.449-.26.183 0 .511.207.511.584 0 .383-.183.583-.356.583-.172 0-.18.076-.42-.096 0 0 .172.048.362 0q.293-.08.345-.277c.041-.138-.162-.362-.218-.404m.522 4.776c-.815-.066-1.012-.96-1.012-.96-.204.376-.642.514-1.205.521-.56.007-.746-.47-.773-.545-.032-.073-.17-.032-.17-.032-.39.2-.745.215-.973.256-.225.041-.463-.086-.463-.304 0-.217.231-.293.407-.366a.46.46 0 0 1 .322 0s.227.145.3.156c.076.01.214-.083.214-.083s.297.172.504.193c.21.024.673-.08.673-.08 0 .049.121.194.252.225.135.031.311-.155.311-.155s.352.117.563.18c.214.058.718.006.718.006-.476-.066-.956-.476-1.198-.68-.238-.207-.383-.632-.383-.632.08.031.48.273.48.273s-.062-.204-.062-.325c0-.117.141-.155.141-.155.066.072.335.618.608.784.273.172.753.366.96.397.207.034.67.155.67.155-.16-.09-.877-1.215-1.07-1.474-.194-.256-.194-.629-.194-.629.045-.117.231-.234.276.066.045.297.594.956.808 1.309.204.355.508.414.508.414s-.104.628-.114.725c-.004.1-.28.829-1.098.76m-2.079 2.182s.273.22.642.124c0 0 .505.266.86.249.352-.014.414-.1.414-.1s.139.18.35.193c.206.017.255-.038.255-.038s.238.104.235.29c-.01.187-.035.187-.035.187s-.138.172-.546.172c-.41 0-.66-.19-.922-.525 0 0-.265.467-.845.467-.577 0-.967-.311-1.143-.815 0 0 .328-.018.735-.204m1.046-2.2c.06.056.18.035.18.035.086.107.497.352.497.352.29.076 1.036-.072 1.036-.072 0 .055.045.442.076.642s-.01.456-.01.456c-.176.003-.263-.049-.56-.145-.39-.125-.535-.615-.535-.615-.65.363-.89.266-1.412.052-.518-.214-.511-.763-.511-.763s.131 0 .266-.014c.134 0 .47-.093.47-.093s.079.034.127.083c.048.055.318-.025.318-.025s-.004.049.058.107m-2.651 1.057s.386-.07.587-.076c.203-.01.486-.017.552.007s.21.145.21.145.173-.138.15-.252c-.022-.107.047-.007.047-.007s.139.166.387.238c.249.083.642.118.88.031 0 0 .163.038.132.142-.031.107.048.069.114.055.062-.02.248.024.3.21.035-.013.142-.072.1-.21 0 0 .542.204.636.263.09.062.248.027.248.027l.049.035s.003.431.062.687c0 0-.218-.152-.428-.622 0 0-.328.47-.88.47-.553 0-.947-.266-1.092-.718 0 0-.062-.049-.1-.021-.045.02-.477.494-1.015.494-.535 0-.812-.342-.94-.898Zm-1.665.86s.194.11.446.169c.245.059.721-.2.739-.214-.035-.066.006-.004.006-.004l-.006.004c.01.01.01.014.017.024.062.117.207.093.207.093.162.214.31.073.31.073s.139.058.277.193c.138.142.383.176.383.176-.431.4-.839.598-1.35.598-.5 0-.642-.857-.642-.857s-.584.522-1.164.522c-.573 0-.366-.933-.366-.933.353.06.674-.18.674-.18-.007.17.048.367.169.408.12.045.3-.072.3-.072m.55-1.513s.251.094.258.342c0 0 .121.052.183-.017 0 0 .194.086.332.138.134.052.255.114.28.155 0 0-.667.546-1.278.546-.608 0-.522-.687-.29-1.064 0 0 .387-.006.514-.1Zm-1.21-5.286c-.051 0-.04.024-.148.024-.103 0-.335-.186-.335-.186s-.08.093-.183.093-.22-.1-.22-.1.03-.235.49-.235.528.466.528.466-.086-.062-.131-.062Zm-.414.611c.249 0 .49-.248.49-.248.025.172-.013.193-.175.252-.163.065-.315-.004-.315-.004m1.837 2.942c-.314.252-1.042.328-1.322.183-.276-.142.235-.407.235-.407-.494-.29-.577-1.088-.577-1.088s.104-.041.207-.114a.4.4 0 0 0 .128-.104c.297.843 1.33 1.53 1.33 1.53Zm.833-.929s-.16.038-.27.052c0 0-1.115-.19-1.367-1.764 0 0 .355 1.446 1.637 1.712m-.45-2.72c-.027-.115-.175-.26-.245-.263-.072-.007-.148-.055-.18-.055-.03 0-.072.065-.123.065-.049 0-.125-.1-.125-.1s.031-.231.349-.2c.321.038.325.552.325.552Zm.636 3.02s-.445.318-.75.287c-.303-.027-.434-.172-.434-.248 0-.073.096-.277.096-.277l.297.042s.059.055.131.072c.073.021.232 0 .232 0zm-.293-3.394s-.021-.051-.032-.124c-.01-.072-.276-.37-.535-.37s-.421.046-.604.146c0 0 .21-.228.546-.238.334-.01.87.28.87.28s-.045.265-.245.306m-3.222 5.529c-.245-.06.055-.453.055-.453l.004-.01c.114.03.497-.238.497-.238s.176.034.314.02c.135-.013.287-.228.287-.228s.217.007.397.004c.18-.004.466-.1.556-.1.086-.004.114.069.124.141a.4.4 0 0 0 .072.156c.056-.035.166-.014.277.003.11.014.3.173.3.173.055-.042.145-.052.231-.07.09-.013.54-.037.54-.037s.085.107.2.186c.113.087.31-.062.31-.062s.086.024.238.093c.156.07.297.245.297.245-.597.587-.984.667-1.481.546-.497-.124-.394-.829-.394-.829-.625.342-1.18.439-1.408.383s-.145-.566-.145-.566c-.553.522-1.03.694-1.271.642Zm6.92 4.157a5.7 5.7 0 0 1-1.53.086c-.052-.014-.062-.072-.062-.072.107-.025.155-.277.155-.277.539.1 1.157.014 1.157.014.069.118.28.249.28.249m1.377.47s-.22-.028-.373-.084c-.159-.055-.21-.3-.21-.3.065.038.428.038.563 0 .124-.045.165-.183.165-.183s.066-.014.17.138c.103.152.196.124.196.124-.08.25-.22.304-.51.304Zm.07 8.676s-.166-.086-.198-.38c-.01-.1 0-.559-.366-.87-.366-.317-.663-.486-1.011-.486-.349 0-.846.141-.846.141s.67-.466 1.46-.103c.874.404 1.074 1.053 1.053 1.567zm-2.96-2.917c.138-.45.366-.4.366-.4a.6.6 0 0 1 .521.248c.1.152.09.414.09.414a.33.33 0 0 0-.141-.259c-.087-.052-.273.073-.273.073s-.02-.049-.073-.076c-.048-.028-.141-.007-.196-.024s-.045-.052-.114-.052c-.07 0-.18.076-.18.076m2.227 2.883c-.024-.12-.086-.149-.165-.162-.08-.007-.197.086-.197.086s-.045-.104-.142-.093c-.1.007-.193-.132-.259-.156-.059-.02-.259.042-.307.042-.055 0-.062-.142-.1-.142-.035 0-.09.124-.17.11-.082-.01-.086-.14-.145-.162-.069-.017-.127.06-.245.032 0 0 .304-.619.967-.619.666 0 .846.587.936.688.09.093.197.1.197.1s-.014.552-.384.628c0 0 .045-.228.014-.352m.19 3.204c.107.929.425 1.405.425 1.405s-2.718-1.691-2.842-3.628c0 0 .553.873 1.336.76.777-.118 1.35-.284 1.703.168 0 0-.729.363-.622 1.295m1.834-10.904c-.456.421-.805.49-.87.49-.063 0-.163-.017-.294-.13-.128-.115-.642-.488-.925-1.013 0 0 .697-.02 1.156-.241.456-.218.801-.466.801-.466s.263.038.415.082c.152.049.414.138.414.138s-.242.722-.697 1.14m1.491 5.449L63 75.4c0 .152.125.705.39.864.27.165.311.393.311.393-.877-.259-.877-.942-.877-.942Zm-.062 4.803s-.207.02-.37-.228c-.082-.118-.276.117-.52.034-.25-.086-.298-.12-.443-.172-.141-.052-.3-.156-.345-.156a.43.43 0 0 0-.221.118 1.3 1.3 0 0 0-.266.632s.052-1.237 1.257-1.213c.898.01.908.985.908.985m-1.115-1.637c-.832-.01-1.292.711-1.292.711s.394-.756 1.292-.756c1.04 0 1.626.784 1.62 1.523-.004.531-.263.963-.263.963s.228-.445.207-.97c-.024-.528-.65-1.46-1.564-1.471m3.915-8.988c-.114.186-.473.594-.57.577s-.452-.225-.497-.26c-.044-.023-.148-.082.083-.265.228-.18.777-.701.777-.701s.045.135.093.21c.042.073.284.056.284.056s-.056.19-.17.383m-.76 2.932-.023-.173c1.54.425 1.56 1.896 1.56 1.896.021.21-.197-.16-.197-.16-.23-1.394-1.34-1.563-1.34-1.563m-.69 1.509a2.5 2.5 0 0 0 .497-.646c1.102.08.96 1.195.96 1.195-.186-.194-.193-.052-.632-.097-.438-.049-.825-.453-.825-.453Zm1.433.766s.463.135.107.542c-.556.646-1.126.535-1.126.535.843-.328 1.02-1.077 1.02-1.077Zm-3.88-2.842c.068.197.282.197.282.197s.45-.024.756.052c.311.08.525.152.75.19s.497.038.618-.304c.117-.338.117-.608.08-.784-.035-.18-.453-.38-.553-.414-.11-.042-.11-.055-.059-.131.045-.076.138-.177.138-.29 0-.114-.08-.194-.138-.28 0 0-.038.431-.466.431-.425 0-.37-.555-.37-.555s-.307.386-.048.721c0 0-.259.014-.2-.583.062-.594.224-.95.224-.95l1.223-.166s.13.066.12.149c-.013.093-.093.46-.038.653.06.19.239.417.429.504.19.09.473.393.424.783-.045.394-.203 1.354-.317 1.496-.121.141-.225.341-.428.3-.2-.035-.95-.414-1.257-.463-.308-.048-.84-.124-1.181-.103-.346.024-.701-.052-.715-.318-.01-.262.166-1.001.335-1.34.162-.345 1.088-.835 1.17-.9l-.12.849-.249.024s-.294.241-.352.473c-.059.228-.131.556-.059.76Zm-1.89-3.94.315.218s-.456.242-.701.207c0 0 .155-.207.096-.362 0 0-.127.362-.48.362-.352 0-.576-.207-.576-.466 0-.255.197-.418.466-.418 0 0 .362.007.438.132l-.062-.132h.207l.225.335-.11.059zm-10.29-.383c-.313.107-.67.125-.997.097-.007-.041-.007-.08-.01-.124a8 8 0 0 1-.032-.59c-.006-.298.025-.615.228-.833a.645.645 0 0 1 .78-.114c.208.118.301.37.336.604.03.17.038.252.02.415a1.6 1.6 0 0 1-.051.248c-.014.049-.025.09-.042.128-.007.024-.014.035-.017.049-.035.044-.138.09-.214.12Zm1.492-2.037s-.41-.639-.728-.956c-.321-.314-.801-.518-1.274-.57 0 0 .97-.3 1.567-.832 0 0 .819.556.957 1.088 0 0-.052.165-.028.286l.01-.017s.038.214.16.235c.117.013.345.013.88-.277l.059.018s.044.266.134.266.17-.08.2-.149c0 0 .467-.031.442.142-.024.169-.787.832-1.267.787 0 0-.32-.29-.286-.518l-.767.546.204-.48c-.131.224-.263.431-.263.431m1.099 2.514c-.339-.076-.688-.363-.688-.363s.58-.076.58.049c0 .127.107.314.107.314Zm-.822-.625.894.12-.042.084zm2.866.829s-.204.075-.57 0c-.37-.08-.473-.149-.473-.149s-.066-.103-.035-.148a1 1 0 0 1 .145-.135c.035-.017.066-.017.107.01.038.024.087.076.16.083.068.014.134-.007.175-.007.042 0 .152.059.207.059.06 0 .218-.02.218-.02s-.038.193.066.306Zm-.025-.45s-.248-.01-.507-.051c-.256-.042-.318-.042-.377-.214 0 0-.297.473-.71.473-.419 0-.346-.352-.346-.352s.069-.232.128-.277c0 0-.028-.11-.083-.12 0 0 .252.01.41-.128 0 0 .273.096.46-.07 0 0 .248.26.359.25.11-.008.09-.153.152-.153.066 0 .214.36.56.36.348 0 .386-.08.386-.08s.231.055.425.01l.027-.003a.1.1 0 0 0-.02-.02s.165-.014.02.02c.035.038.132.142.221.142.114 0 .38-.214.442-.249.066-.035.073-.08.125-.08.044 0 .214.225.317.26.104.034.242.127.242.127l.031.017s.145-.051.29-.051c.142 0 .383.096.432.138 0 0 1.132.086 1.364-.073.234-.148.01-.014.01-.014s.103-.103.17-.11l-.146.124s-.152.142-.21.346c0 0-.556.096-1.147.062 0 0-.055.41-.442.41s-.497-.255-.497-.41l.02-.159s-.079.073-.144.097c-.076.027-.39-.097-.511-.097-.118 0-.208.045-.27.038-.065-.01-.152-.18-.152-.18s-.076.456-.556.456-.359-.38-.359-.525zm1.661 2.846a5.3 5.3 0 0 1-1.011.473l-.08-.035s.6-.21 1.136-.6c.532-.39.663-1.178.663-1.178-.787 1.067-1.896 1.177-1.896 1.177l-.065-.058c1.923-.387 1.923-1.692 1.923-1.692s.09-.055.273-.028a.45.45 0 0 1 .283.166s.328 0 .621-.031c.3-.031.587.038.587.038s-.079.18-.324.19c-.252.007-.919.19-.919.19-.1.41-.262.839-.404 1.16l.211-.138c.432 0 .48-.028 1.195-.321.711-.29.832-1.347.832-1.347.193.124.584 0 .584 0s.013.124-.056.404c-.062.276-.362.846-.31.704.051-.138.075-.51.075-.51-.307 1.443-1.322 1.916-1.412 1.957-.09.038-.155 0-.155 0 1.312-.694 1.454-1.989 1.454-1.989-.584 1.433-1.558 1.727-1.661 1.765-.107.041-.038-.066-.038-.066.4-.128.856-.487 1.19-.89.34-.405.329-.888.329-.888-.193.57-.773.943-1.088 1.067-.31.128-1.14.252-1.15.252a2.4 2.4 0 0 1-.165.349c-.245.445-.905.866-.905.866l-.124-.038s.597-.355.842-.732c.131-.197.266-.542.339-.742-.059.114-.18.304-.453.58-.507.525-.97.753-.97.753l-.08-.059s.543-.325 1.026-.79c.477-.463.47-1.071.47-1.071-.125.345-.321.822-.767 1.112m14.9 14.585c-5.094-2.939-6.658-8.563-6.658-8.563l.487.576c-.072-.259-.014-.756-.014-.756.121.332.663.936.663.936-.162-.3.028-.808.028-.808l.186.687c1.105 5.017 5.307 7.928 5.307 7.928Zm-.85-15.649c1.298 0 1.336 1.33 1.336 1.33s-.328-.135-.445-.125c-.121.014-.17.107-.38.038-.148-.051-.124-.207-.249-.248-.21-.059-.383.124-.514-.083s-.439-.325-.642-.194c-.18.118-.446.501-.446.501s.049-1.219 1.34-1.219m-1.012-6.021c.349 0 .36.383.36.383a.5.5 0 0 0-.373-.131c-.108 0-.246-.056-.246-.056s-.086-.196.26-.196Zm-1.025 2.928.107.024c.007.462.08.687.255 1.022.183.328.463.58.546.628.083.052.038-.114.038-.114-.156-.034-.214-.2-.487-.542s-.238-.863-.238-.863c.19.152.19.342.425.756.238.418.631.487.631.539 0 .048-.1.255-.303.425-.211.162-.553.096-.553.096-.57-.725-.514-1.975-.514-1.975.082 1.05.656 1.727.707 1.764.052.035.052-.013.052-.013-.7-.808-.666-1.747-.666-1.747m-.059 1.101c.173.66.411.901.411.901l-.09.045c-.625-.142-.521-2.01-.521-2.01l.069.042s-.038.37.131 1.022m-.984-.366s.21-.066.345.135c.135.197.249.707.249 1.225 0 .512-.425 1.244-.466 1.299-.049.058-.11.096-.162.086-.056-.007-.78-.494-.84-.532-.048-.038-.11-.152-.034-.2.083-.045.431-.238.684-.76.258-.524.224-1.253.224-1.253m1.978-15.251c0 .145-.176.007-.238-.031-.069-.038-.19-.031-.248-.09-.066-.062-.049-.076-.121-.062a1 1 0 0 1-.231.045c-.045-.01-.076-.08-.076-.08s.176-.207.434-.19c.121.01.48.26.48.408m-3.183-6.381c.052-.031.041-.083.041-.083s.546.01.667-.01c.131-.025.186.134.186.134s.135-.746.428-.85c0 0-.303.436-.341.788 0 0 .155.397.155.445 0 .052.059.104.059.104s.093.031.19.02c.1-.01.352-.113.41-.123.06-.014.118.072.194.072s.224-.02.224-.02.028.134.135.165.376.072.376.072.149.049.235.01c.09-.04.214-.113.214-.113l.014.28s-.287.041-.556.103c-.273.066-.884.21-.884.21s-.135-.072-.214-.168c-.08-.094-.2-.249-.338-.273-.138-.017-.311-.059-.477-.017s-.328.124-.328.124.231-.207.477-.249c0 0-.1-.3-.177-.3 0 0-.1.062-.176.038 0 0-.038-.135-.086-.155a1 1 0 0 0-.22-.038c-.042 0-.118-.114-.156-.114-.042 0-.128.02-.128.02s.031-.038.076-.072m3.632-1.654c.207-.104.332-.107.494-.07.155.035.29.16.383.312a.9.9 0 0 1 .094.355c.007-.117-.11-.224-.11-.224s.01.017.01.03c0 .011-.052.028-.111.011-.059-.014-.245-.207-.266-.204-.02.007-.083.125-.093.125a.3.3 0 0 1-.142-.062c-.072-.049-.152-.114-.169-.11-.02 0-.027.016-.062.058a.8.8 0 0 0-.083.183l-.017-.207s0-.076-.017-.042c-.021.035-.145.055-.145.055-.021.004.027-.107.234-.21m.888 1.481s-.107.073-.17.104c-.062.038-.193.076-.245.1-.058.02-.117.08-.169.083-.048.007-.024.051-.024.051l.02.149s.015.097.004.131c-.007.038.031.052.045.038.017-.01.09 0 .059.035-.031.038-.093.141-.114.148a1 1 0 0 0-.138.052c-.035.014-.097.038-.097.104a1 1 0 0 1-.003.093s-.063-.145-.056-.204a.4.4 0 0 1 .07-.173.5.5 0 0 0 .086-.172c.02-.08.034-.114.024-.17-.007-.058-.004-.048.007-.134.007-.086.028-.09 0-.131-.028-.035-.02-.045-.062-.052-.031-.014-.1.02-.1.02s.003-.02.034-.044c.028-.021.045-.01.062-.038.017-.021.017-.042.038-.049 0 0 .11.11.166.076.059-.041.21-.03.238-.086.018-.055.07-.062.11-.066.035-.003.08-.103.094-.145s.045-.09.045-.09-.02.06-.024.09a.4.4 0 0 0 .02.163c.01.024.135.014.16.014.027 0-.08.103-.08.103m-1.033 2.245s.297-.142.394.04c.09.18.02.45.02.45s-.044-.328-.193-.408c-.148-.082-.22-.082-.22-.082Zm2.148 4.93c-.155-.041-.31-.2-.31-.2s-.115.048-.236.027c-.117-.017-.265-.117-.32-.106 0 0 .472-.373.735-.18.27.2.29.494.131.46Zm-.107-1.09c.38.054.563.085.563.085s-1.354-.145-1.588-.158c-.228-.018-.684-.042-.74-.052a.6.6 0 0 1-.248-.221c-.041-.083-.138-.404-.11-.515 0 0 .431.556.614.65 0 0 1.13.155 1.509.21Zm2.448 1.877c.242.108.494.411.37.677 0 0-.08-.127-.177-.235-.09-.107-.238-.03-.3-.069-.066-.038-.17-.038-.22-.08-.06-.037-.232-.116-.34-.096 0 0 .429-.307.667-.197m1.654 2.455c.349.263.221.826.221.826s-.083-.277-.131-.366c-.045-.09-.204-.176-.3-.176-.104 0-.235-.07-.298-.08-.065-.01-.303-.052-.369-.038 0 0 .528-.431.877-.166m9.164-1.305s.173-.124.314-.22c.145-.097.511-.353.622-.37.19-.042.476.093.673.062.19-.035.37-.017.466-.135.097-.11.08-.117.08-.117s.138-.093.186-.031c.041.069.059.22.024.28-.034.055-.328.186-.4.196-.07.01-.646.114-.719.194-.072.072-.23.11-.314.11-.08 0-.317-.045-.4.01-.076.056-.497.25-.542.25-.042 0 .01-.229.01-.229m2.897-2.282c.045-.028.124-.083.18-.121.048-.045.424-.297.773-.552.352-.249.842-.484.842-.484.404-.19.902-.414 1.247-.587.162-.083.373-.193.428-.186a.25.25 0 0 1 .1.045c.031.02.1.114.11.19.011.072-.01.12-.01.12-.162.798-.756 1.281-.88 1.326-.121.045-.449.052-.867.221-.418.163-1.681.722-1.681.712-.007-.014-.035-.083-.066-.135s-.131-.104-.166-.159c-.027-.062-.01-.148-.038-.214-.024-.066-.086-.066-.086-.066s.069-.076.114-.11m-5.908 34.88c1.706-.034 1.84 1.458 1.84 1.458s-.345.114-.766-.266c-.297-.27-.494.114-1.04.048-.52-.058-.67-.241-.96-.362-.272-.117-.517-.152-.731-.121a.76.76 0 0 0-.397.18c-.073.069-.522.445-.598.963 0 0 .239-1.844 2.652-1.9M49.576 53.01c-.311-.19-.218-1.074-.218-1.074.045.61.145.507.221.542.083.038.135-.346.187-.176.055.169.086.283.086.283.19.48.518.497.542.497.024.004.034.045.034.045-.127.069-.545.069-.852-.117m.01-2.096c.08.231.1.614.1.614-.02-.145-.235-.438-.255-.628a2.3 2.3 0 0 0-.121-.442c.069-.017.197.22.276.456m18.107-7.39c.041.063.08.252.08.252-.015.601-.108.598-.108.598.042-.187-.034-.535-.034-.535s-.052.37-.052.335-.08-.342-.08-.342l.038.355H67.5s-.051-.186-.124-.393c-.066-.207-.359-.404-.359-.404s.632.069.677.135Zm2.745 2.417c.03.035.09.042.09.042l.003-.083s.038-.055.107 0a.8.8 0 0 0 .238.104 1 1 0 0 0 .27.038.7.7 0 0 0 .2-.083s-.19.124-.256.2c-.065.076-.093.155-.12.176-.028.028-.118.052-.19.052-.07 0-.149-.052-.21-.104-.073-.048-.063-.096-.115-.165-.055-.073-.124-.239-.172-.26 0 0 .127.049.155.084Zm.936-.462c-.066-.204-.47-.332-.47-.332l.197.025c.083.01.224.169.224.169l.042-.004s.37-.007.435-.017c.058-.017.12-.045.12-.045s.042.02.094.055c.052.031.159.038.159.038s-.39.39-.415.435c-.024.042-.041.042-.041.042a.6.6 0 0 0-.242-.131c-.052 0-.21-.032-.321-.045-.107-.014-.256-.004-.256-.004.045-.09.436-.124.463-.127.035-.007.01-.06.01-.06Zm1.215.462a.6.6 0 0 1 .27-.02c.082.007.282.22.282.22l-.003.042.155.142-.234-.059c-.073-.02-.422-.01-.484-.003-.062.003-.238.09-.28.103-.048.01-.058 0-.086-.02-.028-.028-.08-.111-.1-.139-.017-.03.038-.048.073-.076.034-.03.293-.162.407-.19m-.114-.835c.128-.073.252-.062.332-.059.082.007.227.118.296.166a.4.4 0 0 1 .1.117s-.069-.048-.096-.048c-.028 0-.142.218-.142.218.035-.045.063-.228.049-.235-.021-.004-.16 0-.252.007-.09.003-.26.096-.363.093s-.176-.045-.176-.045.128-.142.252-.214m-.49 3.36c.18.09.262.12.521.22.266.1.394.211.394.211l-.01.028a1.2 1.2 0 0 1-.27-.014c-.145-.02-.573-.214-.794-.287-.218-.069-.69-.283-.767-.297-.076-.017-.373-.138-.373-.138s.397.1.494.1c.1 0 .114 0 .228-.027a.6.6 0 0 1 .26.007.2.2 0 0 1 .05.062s.084.048.267.134Zm1.029 1.011s-.024-.034-.056-.041c-.034-.004-.176.041-.3.024-.128-.017-.166-.059-.22-.062-.056-.007-.067-.035-.215-.1-.142-.059-.183-.118-.318-.197-.138-.08-.331-.231-.521-.3-.197-.07-.397-.19-.57-.273a3 3 0 0 1-.317-.166c-.028-.02-.035-.131.096-.086 0 0 .17.134.352.207.183.069.484.193.574.231.09.031.476.318.61.37.132.051.232.107.343.117.107.014.214.02.266.02a.3.3 0 0 0 .124-.037c.014-.01.017-.118.017-.152 0 .027 0 .076.017.1.021.028.166.159.152.242-.01.082-.034.103-.034.103m21.89 7.31c-.006-.014-.016-.02-.027-.028-.003-.01-.013-.01-.02-.017-.408-.307-.95-.473-1.402-.67a38 38 0 0 0-1.661-.673 57 57 0 0 0-1.281-.47c-.276.2-.822.49-.95.48-1.188-.076.118-.055.221-.217.239-.605.515-1.374.753-1.979.138-.342.276-.677.414-1.015a2.4 2.4 0 0 0 .142-.577c.048-.283.138-.61.128-.894-.01-.197-.2-.428-.397-.376-.225.065-.435.203-.65.304-.497.238-1.008.455-1.484.718-.49.27-.933.632-1.402.946-.522.352-.642 1.184-.905 1.73-.103.21-.414-.066-.604-.083-.224-.024-.397-.11-.611 0a5 5 0 0 0-.629.41c.004-.116-.003-.23-.051-.293-.152-.186-.36-.044-.48.107-.245.3-.567.532-.857.777-.252.208-.528.522-.852.574q-.587.085-1.175.134c-.359.035-.645.104-.966.297-.3.18-.567.46-.84.67-.32.266-.614.556-.935.811-.242.194-.515.36-.784.515-.138-.843-.4-1.464-.732-2.241-.528-1.215-1.34-2.151-2.296-3-.901-.802-2.137-.916-3.26-1.081q-.7-.104-1.405-.2c-.059-.004-.117-.014-.176-.018-.028-.003-.045-.017-.052-.02-.086-.094-.12-.25-.135-.398.087-.11.16-.241.221-.37.128-.248.156-.635.367-.82.148-.139.355-.015.514-.15a.8.8 0 0 0 .176-.245h.024c.062.163.138.318.21.474.132.276.305.362.577.452.277.096.525.114.774-.062.124-.087.235-.197.331-.315.415-.107.674-.666.38-1.011q.001-.052.007-.097c.007-.069.01-.152-.052-.197-.345-.228-.742-.328-1.108-.521.035-.135.045-.28-.028-.38a.2.2 0 0 0-.062-.069c-.003-.02 0-.052.035-.104.107-.145.272-.241.421-.328.421-.224.953-.3 1.177-.79.049-.107.094-.242 0-.335l-.09-.073c.15-.342.156-.766-.106-1.036-.377-.39-.798-.224-1.126.1-.08-.027-.159-.079-.242-.072-.138.004-.276.055-.424.059h-.11a.1.1 0 0 1-.025-.028.8.8 0 0 0-.328-.166c-.297-.09-.573.066-.777.297.035-.193.028-.397.004-.545a.792.792 0 0 0-.992-.642c-.71.207-1.022 1.29-.483 1.778-.325.051-.646.086-.963.166-.335.082-.674.324-1.03.293-.023-.135-.089-.273-.148-.397.049-.228.128-.442.328-.563.152-.093.346-.135.522-.176.32-.072.424-.407.483-.725a2.7 2.7 0 0 0-.007-.991c-.041-.238-.449-.245-.621-.28-.256-.052-.404-.034-.584.093-.014 0-.03.014-.062.025-.045.01-.07.048-.114.069-.048.03-.103.065-.152.103q-.254.19-.48.397c-.338.311-.6.584-.725 1.06a2.2 2.2 0 0 0-.059.64c0 .1.028.203.045.303a.4.4 0 0 0-.09.142 4 4 0 0 0-.334-.228.92.92 0 0 0-.563-.121c-.138-.242-.494-.722-.632-.746a1.54 1.54 0 0 0-.38.984c-.621.148-1.188-.476-1.592-.912-.234-.245-.621-.804-1.098-.766-.13.29 0 .929.07 1.215l.02.08c-.097-.242-.197-.48-.287-.712-.176-.473-.296-.873-.258-1.391.024-.425.058-.822-.056-1.233-.08-.297-.5-.89-.877-.987-.086.103-.08.297-.052.473.049.28.07.514.076.804 0 .332-.117.694-.152 1.03-.082.735-.069 1.474.197 2.168.228.604.584 1.301.028 1.826-.214.197-.542.1-.784.031-.186-.051-.37-.11-.556-.162-.045-.01-.169-.028-.266-.062a4 4 0 0 0 .232-.27c.207-.238.417-.493.566-.783.39-.756.325-1.689.19-2.507-.124-.77-.55-1.464-.632-2.244-.073-.722-.18-1.475-.107-2.2.014-.096.08-.352.003-.32-.21.044-.452.42-.545.576-.17.293-.256.652-.321.984a6.6 6.6 0 0 0 .01 2.455c.07.366.145.732.183 1.101.028.283-.007 1.009-.338 1.109-.239.076-.577-.304-.694-.48-.2-.297-.152-.67-.132-1.012.049-.773.121-1.554.038-2.334-.072-.69-.383-1.254-.66-1.868a7.3 7.3 0 0 1-.596-2.162 6 6 0 0 1-.028-1.056c.007-.228.028-.48-.045-.705-.014-.045-.045-.1-.093-.09-.307.063-.615.812-.698 1.05-.272.767-.227 1.589-.114 2.383.104.725.322 1.419.456 2.137.163.846.118 1.706.035 2.555-.028.31-.007 1.16-.415 1.147-.766-.018-.932-.926-.994-1.585-.066-.653-.035-1.306-.08-1.958-.086-1.264-.735-2.276-.81-2.206-.15.13-.308 1.011-.288 1.25.042.428.1.835.045 1.273-.09.75-.3 1.468-.31 2.228-.014.559.114 1.067.31 1.56-.176-.217-.37-.362-.618-.407-.08-.017-.286-.028-.359.003-.014.16.149.56.194.65.138.293.169.497.214.808.069.407.038.673.007 1.077-.025.376.003.614.155.95.104.224.12.438.12.673-.092.107-.2.224-.306.262-.37.117-.484-.345-.536-.615-.076-.441.042-.925-.003-1.374a2.6 2.6 0 0 0-.204-.79c-.166-.367-.435-.65-.611-1.009a3.1 3.1 0 0 1-.342-1.274.9.9 0 0 0-.103-.314c-.06.01-.183.128-.232.2-.342.487-.393 1.198-.262 1.775.076.338.266.611.38.932.117.346.165.732.162 1.098-.014.746-.231 1.488.041 2.214.11.303.283.552.497.78.097.107.204.207.311.3q.095.08.19.163.058.062.121.12l.003.01c-.006.277-.076.56-.113.833a6 6 0 0 0-.038.438c-.007.097.038.035-.083.038-.135.007-.239-.103-.328-.203-.356-.394-.228-1.22-.363-1.796-.041-.193-.297-.57-.428-.721a.9.9 0 0 0-.235.435c-.065.297-.086.587-.128.884-.041.317-.103.628-.124.946a3.5 3.5 0 0 0 .249 1.65c.141.332.473.487.763.639.155.086.318.159.473.242.19.096.283.324.373.51.141.294.245.608.349.92a1.6 1.6 0 0 0-1.105.97c-.114.3-.16.645-.166.99a4.5 4.5 0 0 0-.708-.666c-.59-.463-1.174-.96-1.644-1.56-.38-.488-.459-1.133-.49-1.745-.01-.207 0-.953-.014-1.146-.265.114-.749.639-.87.822-.383.56-.7 1.15-.825 1.82-.114.618-.117 1.291.073 1.892.207.652.583 1.257.956 1.816.335.5.711.97 1.015 1.499.17.283.304.593.37.925.048.255.03.75-.16.943-.338.345-.952-.142-1.142-.435-.183-.284-.232-.64-.239-.978a6.4 6.4 0 0 0-.107-1.174c-.23-1.132-1.066-1.916-1.857-2.638-.566-.514-1.184-.942-1.792-1.391-.611-.449-1.226-.974-1.544-1.71-.238-.559-.335-1.19-.362-1.798a4 4 0 0 1 .107-1.292c.03-.103.052-.5-.007-.48-1.115.45-1.916 1.516-2.165 2.714-.283 1.385-.028 2.808.76 3.944.694.997 1.688 1.667 2.613 2.386.27.207.47.493.66.783.266.397.518.819.697 1.264.104.273.249.642.16.932-.115.35-.343.629-.432.991-.004.021-.014.038-.014.056-.049-.052-.087-.107-.114-.135-.124-.128-.26-.256-.39-.383q-.416-.377-.846-.743c-.266-.235-.529-.442-.746-.739a4.5 4.5 0 0 1-.494-.939c-.114-.31-.172-1.233-.49-1.447-.415.232-.929 1.254-1.084 1.748a3 3 0 0 0 .1 2.02c.273.656.763 1.174 1.246 1.657.511.51.97.97 1.236 1.681.27.705.187 1.523.242 2.269.052.808.328 1.537.929 2.044.711.604 1.599.78 2.48.88.29.035.583.056.873.073.072 0 .045-.007.155 0 .138.01.304.08.318.245.014.11-.283.287-.352.328-.139.09-.26.156-.425.145-.314-.017-.566-.162-.891-.152-.331.018-.407.035-.228.428.062.149.149.339.225.477.13.249.317.452.531.625.208.173.48.259.74.328.092.028.193.041.296.055a2 2 0 0 0-.145.19 3.7 3.7 0 0 0-.338.684 4.2 4.2 0 0 0-.214 2.116c.096.56.39 1.07.835 1.357.47.294 1.274.411 1.633.411-.635-.607-.559-1.291-.559-1.512-.003-.342.104-.673.26-.98.192.407.534.58.831.914.674.311 1.371.67 2.09.829.445.3 1.018.483 1.44.41.068-.01.058-.12.023-.24.604.096 1.226.12 1.844.151q.051.084.097.173c.248.431.552.828.87 1.215a1.44 1.44 0 0 0-.767.335c-.359.294-.504.528-.6.884-1.416.048-2.87.104-3.685 1.692-.117.584-.404 1.333-.041 1.858.028.393.207.71.359 1.046.767.808 1.34 1.771 2.148 2.303.556.476 1.723 1.319 2.765 2.054-.065-.003-.127-.003-.193-.01-14.112-1.402-24.008-19.374-21.125-33.517 3.86-18.94 21.681-28.662 38.493-25.49 4.385.83 7.127 1.955 10.732 4.534-2.373-2.544-6.923-4.713-11.202-5.552-18.531-3.643-36.524 7.483-40.868 25.866-4.513 19.06 7.434 36.728 25.862 40.868 8.598 1.937 17.168.445 24.284-3.563 0 0 1.99-1.237 2.873-2.435q.172-.191.338-.51c.29-.636.163-1.665-.19-2.262a2.6 2.6 0 0 0-.687-.77c-1.415-1.126-3.473-.56-3.89-.428-1.068-.436-2.283-1.143-2.901-1.472-.718-.372-1.416-.915-2.037-1.453-.56-.487-1.02-1.098-1.423-1.737-.825-1.305-1.45-2.82-1.858-4.337-.317-1.18-.545-2.451-.57-3.68-.003-.09.004.02.104-.01.1-.039.197-.067.29-.111.19-.087.356-.187.518-.325.19-.162.556-.646.818-.552.777.28 1.554.331 2.183-.308.673-.676.935-1.916.517-2.807a2.8 2.8 0 0 0-.894-1.06c.667-.328 1.292-.694 1.73-1.333.042.066.08.138.114.204.028.048.08.045.12.041.432-.051.747-.559.975-.994.058.176.08.349.307.418.28.083.597-.708.708-.88.245-.36.552-.705.832-1.026.307-.36.614-.715.894-1.098.221-.297.456-.594.663-.905.238-.373.535-.732.56-1.205.017-.37-.028-.76-.052-1.129-.017-.31-.042-.618-.035-.929q.001-.015.007-.052c.546-.296 1.095-.597 1.637-.89h.038c.103.003.172.214.204.3.072.19.082.414.086.618 0 .059.03.152.1.145.452-.02.87-.47 1.215-.742.235-.187.47-.36.68-.563.007.145.007.293.056.428.096.262.445.055.604-.01.556-.235 1.143-.4 1.682-.677.162-.083.335-.155.4-.356q.054-.175.087-.355c.02-.104-.018-.128.096-.152a1 1 0 0 0 .235-.076c.114-.07.218-.204.314-.3.055-.06.104-.125.156-.184.082-.107.086-.065.203-.024.128.055.18.214.235.335.08.173.183.332.27.5.134.263.23.536.507.667.29.135.66.059.963.02.573-.065 1.14-.237 1.7-.39.476-.13.938-.303 1.398-.483.383-.152.932-.29 1.174-.67.182-.283.148-.552-.066-.773Zm-33.927 6.288s-.255.524-.266.8a18 18 0 0 1-.142 1.21c-.034.21-.058.931-.058 1.094 0 0 .117-.65.138-.798.024-.152.08-.614.117-.974.16-1.294.432-1.557.211-1.332m11.142-4.496c.038.01.076-.048.107-.041.042.007.139.041.246.076.107.038.266.093.297.114.03.024.051-.045.051-.045s-.13-.139-.307-.19c-.176-.052-.3-.035-.421-.052-.118-.01-.28-.017-.276.007.006.027.058.045.114.052.048.007.158.065.19.079Zm.684 1.378c.221-.073.484-.422.484-.422s-.363.273-.487.325c-.1.038-.263.08-.3.08a.6.6 0 0 0-.187.048c-.038.02-.152.007-.121.03.12.087.27.035.328.035.055 0 .083-.027.283-.096m2.234.88c-.055.066-.276.2-.276.2s-.194.166.076.045c.27-.11.48-.455.48-.455s-.225.141-.28.21m-1.657-1.025c-.2.252-.318.317-.415.39-.093.069-.155.09-.248.124-.097.031-.256.135-.256.135s0 .03.045.03.128 0 .456-.148c.331-.148.418-.531.418-.531m1.409.18c.062-.015.079-.132.079-.132s.172-.014.117-.048a1.7 1.7 0 0 1-.293-.287c-.086-.107-.093-.207-.093-.207-.073.038-.128.155-.149.248-.02.09.048.197.07.25.016.054.006.085-.156 0a6 6 0 0 1-.425-.26s-.124-.058-.09 0c.042.062.118.304.349.404.238.114.525.048.59.031Zm-.853-.788-.004.01s.093.056.135.076c.045.021.114.073.159.107.044.031.152.014.124-.007-.024-.017-.218-.165-.27-.2-.048-.03-.117-.052-.117-.052v-.207s-.055.093-.124.152c-.062.055-.193.01-.297-.01-.107-.028-.21-.114-.366-.239-.155-.117-.117-.366-.117-.366s.107-.058-.014-.006c-.118.051-.166.255-.166.341 0 .09.107.221.107.221s.01.09-.038.08c-.045-.014-.3-.1-.608-.173-.307-.076-.652-.09-.652-.09s-.01.211.03.211c.046 0 .236.041.353.08.11.038.442.103.532.113.086.01.418.06.456.07.03.013.107.075.169.051.062-.027.103-.186.103-.186s.052-.017.132 0c.082.01.262.117.341.124.056.004.104-.052.132-.1m1.153 1.026c-.107.038-.684.13-.684.13s.162.06.287.042c.124-.02.397-.172.397-.172M45.587 96.733c-.028-.597-1.22-.932-1.22-.932s.401-.677.546-1.174c.142-.5-.383-1.267-.383-1.267l-1.222 2.158c-.29-.094-2.57-.411-2.57-.411l-.144-.26s-.242.26-.38.67c-.142.405-.028 1.199-.028 1.199s-.649-.028-.697.425c-.042.466.048.704.528.704.483 0 1.688.38 1.688.38s-1.004 1.485-1.087 1.992c-.066.504.083.746.27.722.182-.028 1.263-2.11 1.508-2.445.238-.342.48-.08.836.02.366.094.673.384.96 0 .293-.386-.404-.72-.404-.72.027-.246.953-.142 1.343-.187.383-.059.487-.266.456-.874m-3.098-.045-1.56.073-.025-.912s.608-.02 1.081.024c.48.049.67.094.767.311.1.221-.263.504-.263.504m1.247.073.293-.456s.36.1.36.19c0 .097-.653.266-.653.266m9.19 4.665c-.283-.093-1.502-.107-1.55-.114-.056-.014.241-.252.6-.328.356-.083 1.112-.263 1.112-.912 0-.652-1.66-.677-1.66-.677s.583-.749.535-1.204c-.045-.463-.46-.809-.726-.874-.259-.066-.12.204-.12.204.19.165.293.514.148 1.011-.148.494-.611.794-.611.794-.415.007-1.702.25-1.702.25s-.221-.443-.401-.433c-.18.007-.197.26-.155.864.045.604.214 1.208.214 1.208s-.256.18-.763.328c-.511.149-1.067.266-1.091.763-.035.508.293.677.624.484.328-.19 1.52-.435 1.52-.435s-.225.324-.446.918c-.227.594.322.915.322.915.13-.432.89-1.578 1.591-1.944.694-.369 1.9-.162 2.448.059.546.228.653.093.653.093.473-.342-.256-.88-.542-.97m-3.65-.428c-.103-.011-.041-.843-.041-.843-.097-.024 1.025-.314 1.043-.121.044.587-.902.971-1.002.964m1.582-.494s.23-.539.455-.577c.221-.034.829-.003.829-.003s-.639.528-1.284.58" fill="#173f69"/><path fill-rule="evenodd" clip-rule="evenodd" d="M50.727 102.451s.266.712.131 1.447c-.124.729-.37 1.278.024 1.347.4.079.577-.601.532-1.478-.055-.881-.687-1.316-.687-1.316m11.212-.521c-.014-.173 0-.345.11-.825.114-.48.18-.812-.13-1.112-.315-.29-.878-.152-.878-.152.256.186.314.335.314.836 0 .486-.058 1.495-.058 1.495l-1.623.728c-.076-.169 0-.141.135-.863.141-.725-.06-1.16-.556-1.271-.49-.103-1.502.373-1.782.525-.28.149-.798.059-.798.059-.11.328.294.373.366.639.076.262-.466 1.298-.449 1.871.025.57.653.556.653.556.055-.017.283-.846.283-.846.145-.3.1-1.454.1-1.454s.142.011.373-.017c.228-.034.573-.421.729-.231.159.186 0 2.562 0 2.562-.17-.242-.605-.556-.605-.556s.387-.635.463-1.098-.756-.19-.756-.19c.425.069.449.19.307.483-.138.301-1.374 2.121-1.636 2.542-.266.411-.076.656.124.794.2.145.383-.383.711-1.015.328-.636.584-1.295.584-1.295.307.104.483 1.05.735 1.543.242.498.504.311.504.311l-.138-.501s.042.045.156.045c.11 0 .186-.566.186-.566s.159.294.511.304c.349.024 1.209-.442 1.209-.442.007.729-.097.763-.097 1.868 0 1.112.677.894.677.894v-3.207c.635-.67.48-1.354.386-1.475-.09-.121-.21-.248-.158-.383.069-.145.687-.107.687-.107.172-.449-.64-.449-.64-.449Zm-2.531 2.269v-.591l1.326-.618c-.235.729-1.326 1.209-1.326 1.209m8.198-4.065s.048.211-.014.283c-.065.076-1.878 1.855-1.888 2.134-.007.287.442.359.442.359s.3-.445.39-.431-.1.601-.284.915c-.186.3.056.721.484.404 0 0 .055.231-.062.801-.125.559-.446 1.381-.446 1.381s.422.791.546.47c.12-.322.028-.29.304-.922.269-.625.404-.715.404-.715l.28.345s1.177-1.402 1.557-2.037c0 0 .915-.097 1.453 0 .539.097.874.749 1.109.256.234-.491-.725-.812-2.383-.653 0 0 1.36-1.564 1.426-1.892.062-.328-.124-.636-.753-.515-.628.121-1.011 1.109-2.182.874 0 0 .138.494.984.532 0 0-.252.628-.88 1.374-.622.746-.774 1.288-.946 1.474 0 0 .041-.666-.059-.863-.093-.197-.314-.331-.314-.331s.618-1.074.442-1.164c-.187-.1-.535.045-.31-.235.223-.28 1.187-1.219 1.128-1.474-.059-.256-.28-.432-.428-.37" fill="#173f69"/><path fill-rule="evenodd" clip-rule="evenodd" d="M69.197 103.905s1.944-.135 1.885.221c-.069.359-.804.96-.804.96s1.094.024 1.022.566c-.07.535-.946.352-1.423.449-.476.103-1.07.3-1.229-.27-.162-.562-.007-.462.504-.804.511-.345.822-.642.822-.642s-.76-.166-.777-.48M75.829 98s.2.19.2.446c0 .259.1 1.744-.1 1.82-.197.069-.846.435-.846.435s.017 1.101.715.856c0 0 .255.936-.163 1.423-.414.497-.75.379-.918.172 0 0-.025 1.378.752 1.35.77-.024 1.534-.801 1.513-2.33 0 0 .352-.028 1.053.193.694.217 1.347.625 2.04.273.688-.356.905-.884 1.31-.867 0 0-.246-.283-.843-.325-.601-.058-1.492.418-2.017.356-.528-.066-1.26-.186-1.267-.642 0 0 1.512-1.081 1.512-1.354 0-.269-.507-.673-.832-.607-.335.058-1.025.338-1.025.338s.21-.994.09-1.202c-.121-.21-1.116-.676-1.174-.334Zm6.231-3.435s-.255 1.27.11 1.319c.377.048.584.059.746-.439.156-.486.132-.987.132-.987s.5-.235.5 0c0 .231-.704 2.572-1.046 2.31-.338-.252-.642-.542-.611-.176.038.373.532 2.569.936 2.707.4.131.915.162.918.024.014-.135-.853-1.57-.708-1.961.135-.397 2.124-3.056 2.417-2.814.304.22-.02.493.408.573.428.076.98-.5.863-.853-.128-.338-.456-.6-.987-.49-.532.114-1.32.604-1.32.604s.09-.525.014-.956c-.069-.429-.362-.418-.556-.418-.2 0-.397.283-.424.576l-.025.294s-.38 0-.51.197c-.142.193-.335 1.595-.425 1.33-.083-.274.124-.816-.11-.874-.232-.06-.322.034-.322.034" fill="#173f69"/><path fill-rule="evenodd" clip-rule="evenodd" d="M83.501 97.072c.034-.07.373.041.639-.653.276-.684.721-1.13 1.24-.994.51.134.082.863.082 1.232 0 .373.052.26.149.197.093-.066 1.19-1.005 1.578-.556.376.453-.283.577-.456.774-.166.2-.408.307-.345.435.069.124 1.094 1.74.935 2.11-.162.362-1.122.638-1.56.514-.446-.121-.67-.26-.978-.843 0 0 .853.38 1.185.128.324-.235.397-.438.2-.894-.17-.45-.414-.49-.414-.49s-.884 1.488-1.41.852c-.53-.638-.348-.649-.12-.663.221-.017.94-.59.704-.694-.245-.096-.335-.117-.335-.245a.5.5 0 0 0-.09-.245s-.23.332-.51.332c-.287 0-.66 0-.494-.297" fill="#173f69"/></svg>