<svg width="128" height="128" fill="none" xmlns="http://www.w3.org/2000/svg"><path d="M73.221 100.372q-.28-1.395-1.175-2.028t-2.127-.386a3 3 0 0 0-1.155.466 2.2 2.2 0 0 0-.618.657 2.7 2.7 0 0 0-.36.885q-.138.645.037 1.516.272 1.363 1.162 1.993.887.629 2.133.38 1.226-.246 1.804-1.174.575-.926.3-2.309Zm-2.306 2.498q-.671.134-1.21-.277-.536-.412-.731-1.381-.196-.988.13-1.56.33-.573 1.022-.714.698-.14 1.214.262.517.396.713 1.378.2.99-.132 1.575a1.43 1.43 0 0 1-1.006.717M34.292 44.965l.849-1.074-.482-.38 1.224-1.55 2.314 1.826.9-1.139-2.316-1.825 1.249-1.583.4.316.924-1.169-3.044-2.402-2.17 2.752-.668-.526a1.4 1.4 0 0 1-.43-.512q-.038-.083-.072-.089-.03-.024-.21.198-.091.109-.272.333l-.58.733 1.307 1.032-2.046 2.595zm1.841-7.219 1.176.927-1.248 1.582-1.173-.928 1.245-1.58Zm-2.145 2.72 1.175.926-1.223 1.55-1.176-.928zm13.552-8.384-.653.402.337-.606c-.033-.018-.12-.052-.262-.11q-.41-.166-.627-.26l.411-.254-.444-.722-1.545.947-.394-.636 1.682-1.034-.443-.723-4.325 2.658.445.724 1.545-.95.392.639-1.408.863.445.725 1.408-.865.588.954-1.614.994.464.753 4.461-2.744zm-1.75 1.078-.587-.955.685-.424-.336.607q.47.153.925.35l-.688.422Z" fill="#004f97"/><path d="m44.278 37.314-.232-.378 4.941-3.04.196.32 1.134-.697-4.023-6.537-7.171 4.41 4.056 6.596zm1.365-8.853 2.869 4.663-4.943 3.04-2.868-4.665zm6.477-.928 1.119-.154.32 2.323q-.445.17-.904.301-.278.083-.302.107.083.29.572 1.19.045-.01.403-.222.734-.449 2.474-1.343.04.009-.044-.297a7 7 0 0 1-.127-.64l-.876.432-.28-2.022.44-.06.44.986.514-.26.37 2.677q.08.775.555.927.439.189 1.848-.014l.998-.138q.943-.125 1.306-.233.42-.109.615-.29.383-.271.323-1.495a8.6 8.6 0 0 1-1.36-.12q.055.651-.15.83-.183.218-.951.316l-.719.101a6 6 0 0 1-.688.063.7.7 0 0 1-.361-.069q-.243-.103-.313-.733l-.322-2.325.57-.285.381 2.762 1.24-.17-.43-3.1.61-.29.208 1.5q.057.373-.038.472-.074.12-.465.163.311.453.577.933 1.021-.255 1.205-.48.22-.17.094-.866l-.449-3.251-1.872.876-.194-1.398a1.7 1.7 0 0 1-.005-.371q.013-.091-.002-.126-.076-.108-.895.005l-.419.057.32 2.308-.576.25-.132-.942a1.3 1.3 0 0 1 .012-.366q.026-.116-.002-.15-.012-.105-.85.014l-.44.06.25 1.803-.309.129-.1-.742-.96.132-.185-1.346a1.5 1.5 0 0 1-.005-.433.4.4 0 0 0 .01-.118q0-.074-.19-.068-.19.002-.764.08l-.379.052.277 2.006-1.117.153zm19.756 1.078q.027-.054-.027-.106-.32-.074-.997-.2c-.186-.037-.314-.058-.388-.073a5 5 0 0 1-.089.33q-.048.164-.09.332-.166.635-.456.894-.413.471-2.57.574.28.51.498 1.035 1.808-.214 2.918-.728a41 41 0 0 1 2.867 1.55q.27-.21.863-.897a35 35 0 0 0-3.088-1.416q.123-.208.278-.648.159-.439.281-.647" fill="#004f97"/><path d="m68.139 27.165.152-1.041 2.353.347-.09.606-1.954-.289-.416 2.827 1.196.174.28-1.915 3.032.446-.273 1.852 1.354.199.402-2.724-2.35-.348.094-.64 3.228.477.124-.84-3.188-.472.094-.638q1.315.12 1.889.18.91.096.807.046-.19-.428-.797-1.218-1.247.177-6.686-.507l-.487 3.296q-.271 1.766-1.561 3.129.722.399 1.158.706 1.32-1.537 1.639-3.653m.351-2.386q.268.026.802.087a65 65 0 0 0 1.607.165l-.089.606-2.393-.354zm13.949 8.372q-.199 2.21 1.696 4.385.623-.452 1.546-.555-2.706-2.522-1.698-4.986l3.078 1.759.505-.886-3.115-1.778.709-1.24q.149-.257.325-.437.079-.075.092-.13.014-.044-.101-.125-.059-.035-.162-.102l-.333-.19-.805-.46-1.088 1.904-3.22-1.836-.503.886 3.113 1.777q-1.481 2.145-5.215 1.33.36.773.391 1.427 3.178.4 4.785-.743m7.526 8.402q-.198.175-.955-.536a1 1 0 0 0-.135-.117 3.7 3.7 0 0 1-.573 1.038q.967 1.097 1.33 1.253.35.214.769-.2l.837-.732 2.388 2.726.72-.628-2.366-2.696.065-.056q1.335.645 2.42.262l-3.622-4.135-.691.604 2.085 2.378a3 3 0 0 1-.706-.307q-.155-.132-.275.014l-.205.18-2.602-2.97-.715.629 2.601 2.967z" fill="#004f97"/><path d="m91.092 37.138 4.01 4.575-.667.584.904 1.03 1.38-1.212-1.3-1.485.093.003q.907.032 1.234.068.193.015.42.059.15.029.178.006.054-.044-.624-1.488-1.34.282-2.297.27l-1.924-2.197q.144.061.499.204.326.13.416.17.172-.703.258-1.564-.626-.353-1.285-.641-.013.96-.166 1.512l-1.288-1.47-1.355 1.188.849.97z" fill="#004f97"/><path d="m95.542 37.87.037-.06q-.54-.522-1.13-.989-.31.651-.682 1.27.502.446 1.021.87.406-.526.754-1.092ZM26.813 54.25l.658-.964q-.574-.319-.766-.718a1.13 1.13 0 0 1-.066-.84q.173-.593.731-.834.558-.243 1.62.068.997.288 1.333.797.337.507.16 1.114a1.18 1.18 0 0 1-.47.672 1.23 1.23 0 0 1-.804.205l-.05 1.17q.724.009 1.191-.26.787-.45 1.081-1.45c.222-.765.144-1.454-.233-2.075q-.568-.927-1.962-1.334-1.319-.384-2.284.095-.964.478-1.281 1.563-.255.88.021 1.58.28.7 1.121 1.212Zm3.34 5.137-2.269-.314.31-2.227 2.268.315.158-1.137-5.762-.8-.159 1.136 2.52.35-.309 2.228-2.52-.35-.159 1.136 5.765.8zm-.145 2.064-5.817-.21-.041 1.146 5.816.212zm.102 5.38-3.878.245 3.73-2.568-.07-1.114-5.808.37.069 1.063 3.785-.239-3.642 2.524.075 1.15 5.807-.367zm.485 3.31-6.15-.973.25 1.192 1.39.189.466 2.223-1.193.757.256 1.221 5.23-3.42-.25-1.19Zm-3.16 2.07-.318-1.52L29.39 71l-1.954 1.21Zm3.477 8.525 2.81-1.204-.452-1.056-2.96 1.268q-.634.272-.929.346a.82.82 0 0 1-.579-.078q-.285-.15-.478-.597-.19-.443-.1-.782.09-.34.39-.55.188-.125.877-.422l2.898-1.24-.452-1.054-2.853 1.222q-.9.385-1.314.684a1.65 1.65 0 0 0-.467.55q-.186.347-.198.808-.012.465.31 1.21.266.621.593.937c.218.21.45.35.699.428q.372.112.807.025.433-.084 1.398-.495m6.022 3.865-4.618 3.546.698.91 4.619-3.544zm3.544 4.109-4.095 1.933 2.16-3.996-.85-.909-2.86 5.465.839.892 5.637-2.497zm-.253 4.157 2.22 1.794.615-.764-2.218-1.793.812-1.003 2.383 1.929.621-.766-3.277-2.652-3.661 4.525 3.36 2.72.617-.761-2.468-1.999zm8.024 3.486q.26-.447.252-.916a1.3 1.3 0 0 0-.283-.817q-.275-.345-1.06-.811l-2.076-1.233-2.971 5.004.986.584 1.241-2.088.2.12q.34.201.463.35.124.15.172.384.052.236.085 1.045l.068 1.511 1.18.703-.018-1.33q-.005-.796-.08-1.147a2.6 2.6 0 0 0-.279-.732c.468.188.88.228 1.243.11q.54-.174.877-.737m-1.059-.54a.76.76 0 0 1-.322.315.6.6 0 0 1-.402.047q-.214-.043-.924-.462l-.73-.434.754-1.272.77.457q.6.357.71.446a.7.7 0 0 1 .256.417.7.7 0 0 1-.112.486m4.573 3.07c-.194-.233-.522-.522-.987-.859q-.698-.502-.829-.76a.45.45 0 0 1-.023-.39.43.43 0 0 1 .305-.265q.344-.088.804.105.45.18.6.456.148.273.046.717l1.084.387c.184-.5.17-.97-.04-1.4q-.319-.652-1.31-1.057-.604-.252-1.11-.238a1.535 1.535 0 0 0-1.425.953q-.263.637.04 1.281.215.458.98 1.024.595.443.754.582.232.214.286.393a.55.55 0 0 1-.023.369q-.123.299-.474.415-.352.114-.864-.097-.485-.2-.666-.565-.185-.366-.06-.939l-1.075-.32q-.267.944.075 1.638.342.688 1.337 1.099.686.284 1.227.273c.36-.006.678-.106.956-.309.271-.191.482-.456.607-.763q.21-.51.142-.942a1.63 1.63 0 0 0-.357-.789Zm.74 3.615 1.1.324 1.645-5.58-1.104-.325zm2.915-4.123 1.655.318-.904 4.75 1.126.213.908-4.75 1.652.317.184-.967-4.439-.845zm7.386 2.444-1.218-2.367-1.344-.07 1.907 3.473-.125 2.446 1.143.056.125-2.435 2.26-3.266-1.32-.068zm14.274-2.238-2.26.723-.42-1.313 2.618-.836-.3-.939-3.711 1.185 1.773 5.546 1.093-.351-.754-2.355 2.26-.722-.3-.938Zm4.985-2.297.488.851 1.142-.654.365.639c-.09.222-.213.43-.364.616-.152.196-.34.36-.556.484q-.629.365-1.279.138-.646-.225-1.164-1.124-.478-.834-.335-1.477.14-.645.793-1.02.431-.245.84-.197.41.05.73.364l.879-.758q-.548-.611-1.29-.709-.742-.096-1.66.43-.706.405-1.036.928c-.284.44-.426.959-.404 1.483q.029.798.482 1.586.417.727 1.062 1.177c.41.296.903.455 1.409.455q.766.002 1.537-.44a3.8 3.8 0 0 0 1.067-.927q.457-.577.594-1.065l-1.156-2.011zm5.065-.791-.986-1.239 2.232-1.78-.609-.767-2.235 1.78-.802-1.011 2.398-1.91-.612-.771-3.298 2.626 3.625 4.552 3.384-2.693-.612-.767zm5.497-7.892q-1.043-.967-2.139-.959-1.097.008-1.952.929a3 3 0 0 0-.665 1.053c-.1.271-.136.57-.118.895.02.32.095.635.225.929q.265.603.916 1.208 1.017.947 2.108.938 1.088-.008 1.953-.937.851-.916.778-2.007-.075-1.088-1.106-2.049m-.412 3.375a1.44 1.44 0 0 1-1.144.483q-.677-.022-1.4-.695-.736-.685-.807-1.342-.067-.657.414-1.176.483-.522 1.138-.497.65.02 1.383.702.741.687.813 1.356a1.43 1.43 0 0 1-.397 1.169m4.284-6.878q-.453-.313-.892-.337a1.6 1.6 0 0 0-.842.183q-.406.205-1.047.783-.642.575-.918.65a.46.46 0 0 1-.39-.058.43.43 0 0 1-.192-.355q-.014-.354.268-.766.278-.401.575-.489.3-.087.71.105l.608-.976q-.678-.431-1.38-.257-.7.174-1.308 1.055-.373.54-.466 1.04a1.54 1.54 0 0 0 .63 1.59q.57.395 1.262.23.493-.11 1.209-.739.556-.487.728-.615.257-.182.442-.196a.54.54 0 0 1 .358.1q.264.183.304.551.038.368-.274.823c-.2.29-.429.47-.695.534-.267.069-.574.02-.93-.141l-.54.984q.87.46 1.617.272.747-.187 1.358-1.076.419-.609.526-1.14a1.65 1.65 0 0 0-.1-1 1.73 1.73 0 0 0-.621-.755m2.546-5.155-.816.837q.506.414.627.84.121.427-.083.837a1.24 1.24 0 0 1-.868.695q-.59.139-1.58-.352-.93-.46-1.172-1.02a1.28 1.28 0 0 1 .04-1.126 1.18 1.18 0 0 1 .58-.578c.25-.113.528-.136.826-.062l.256-1.139q-.713-.136-1.218.044-.854.305-1.319 1.239-.528 1.068-.136 2.082.397 1.014 1.697 1.657c.821.407 1.575.513 2.264.31q1.032-.3 1.535-1.314.405-.821.257-1.558-.15-.738-.89-1.392M95.58 76.54l5.454 2.034.399-1.074-5.452-2.035zm5.682-1.678-1.529-.406.731-2.757-.948-.252-.73 2.757-1.249-.332.789-2.962-.95-.252-1.084 4.073 5.625 1.492 1.107-4.178-.947-.253zm-3.367-8.169 3.859.463L97.617 69l-.132 1.108 5.778.694.128-1.059-3.77-.451 4.04-1.823.14-1.142-5.779-.695zm1.958-5.354-.304-1.129q-.693.211-1.057.607-.615.668-.591 1.707.028 1.193.85 1.908.818.713 2.271.68 1.375-.033 2.148-.78.775-.746.746-1.88-.019-.911-.496-1.497-.477-.583-1.435-.816l-.334 1.12q.641.128.948.45.306.323.316.778a1.25 1.25 0 0 1-.446 1.02q-.46.398-1.561.425-1.04.023-1.514-.358a1.29 1.29 0 0 1-.488-1.013 1.2 1.2 0 0 1 .243-.784 1.26 1.26 0 0 1 .704-.438m2.618-3.48-1.562.254-.457-2.815-.969.157.457 2.814-1.275.208-.489-3.027-.973.157.674 4.158 5.745-.93-.691-4.266-.968.157zm-4.637-6.198-.382-1.082q-.76.256-1.061.913-.306.66.007 1.684.191.626.52 1.01.326.384.77.509c.282.08.583.078.865-.006q.663-.2.969-.841.22-.455.174-1.407-.032-.739-.023-.954.016-.313.12-.467a.54.54 0 0 1 .302-.215q.308-.097.621.107c.206.13.364.376.471.729q.152.502-.017.873-.167.374-.689.637l.431 1.037q.902-.389 1.221-1.09.321-.704.008-1.735-.215-.71-.562-1.123a1.66 1.66 0 0 0-.844-.546 1.75 1.75 0 0 0-.978.013q-.526.16-.82.487a1.6 1.6 0 0 0-.383.771q-.089.448-.04 1.31.048.86-.066 1.12a.456.456 0 0 1-.497.282.4.4 0 0 1-.19-.084q-.284-.21-.43-.689-.14-.464-.023-.754.119-.29.526-.49Z" fill="#004f97"/><path d="M64 20c-24.26 0-44 19.74-44 43.999C20 88.26 39.74 108 64 108c24.262 0 44-19.74 44-44.001S88.262 20 64 20m0 85.873c-23.09 0-41.875-18.784-41.875-41.874S40.91 22.125 64.001 22.125s41.875 18.785 41.875 41.874-18.785 41.874-41.875 41.874Z" fill="#004f97"/><path d="M51.882 34.384c-11.543 4.799-19.687 16.233-19.687 29.544 0 17.62 14.268 31.954 31.81 31.954 17.538 0 31.807-14.334 31.807-31.954S81.543 31.972 64.004 31.972a31.5 31.5 0 0 0-12.077 2.395l-.023-.015zm-.161 1.123q.388.216.784.414c.308.154.675.325 1.087.506q1.7.739 3.486 1.235c-1.554 1.503-5.74 5.92-8.716 12.32a21 21 0 0 1 2.314-2.22c3.193-5.683 7.027-9.256 7.623-9.793 1.648.378 3.33.593 5.02.64v4.393a20.9 20.9 0 0 0-12.643 4.76c-.827.68-1.6 1.423-2.314 2.22q-.442.497-.851 1.021a54 54 0 0 1-4.43-1.645c3.824-7.086 9.217-11.849 10.51-12.931q-.549-.24-1.086-.506c-1.827 1.59-6.809 6.28-10.42 13.002a54 54 0 0 1-3.892-1.931A31.07 31.07 0 0 1 51.72 35.507Zm6.662 2.388-.11.07h-.001l.113-.071h-.002Zm15.92-1.568c1.065.858 6.728 5.64 10.522 13.075a53 53 0 0 1-4.324 1.603 21 21 0 0 0-1.252-1.448l-.002-.001c-3.036-6.091-7.106-10.354-8.653-11.851l-.381.101.38-.101c-.388-.375-.622-.582-.638-.597.018.016.252.221.64.597a25 25 0 0 0 3.709-1.379Zm-.202 55.025a28 28 0 0 0-4.715-1.53c-.057.055-.109.11-.165.167v-.001q.081-.084.165-.166a27 27 0 0 0-4.978-.667v-4.297a20.9 20.9 0 0 0 12.65-4.553c-1.958 3.236-4.517 6.414-7.672 9.517q.615.141 1.222.31c3.928-3.942 6.911-8.006 8.962-12.165l.021-.022.014-.028q.462-.518.891-1.064 1.947.627 3.826 1.396c-2.366 4.411-5.776 8.787-10.221 13.103m-3.84-.866q-.137.141-.28.284l-.38-.392.38.39q.143-.14.28-.282m-12.21-.49-.625.582.623-.583-.218-.241c-2.927-3.168-5.293-6.383-7.12-9.633a20.92 20.92 0 0 0 12.608 4.731v4.28a25 25 0 0 0-5.487.62c.074.082.144.164.219.245Zm-4.319 1.282.028.026zm-.541.981.337-.383-.337.385q-.126-.112-.246-.223.12.11.246.221m.386-1.125-.002-.001c-4.586-4.103-8.092-8.325-10.502-12.636a54 54 0 0 1 4.434-1.65q.412.525.855 1.024c1.92 4.124 4.688 8.19 8.308 12.18.203.222.396.447.603.67-.208-.223-.4-.448-.603-.67a25 25 0 0 0-3.093 1.083m10.425-47.148a19.95 19.95 0 0 1 14.216 5.936c.983.997 1.86 2.093 2.618 3.27v.002c2 3.105 3.091 6.709 3.15 10.402l-18.5-3.152v-4.12h-.001l-.005-3.218s-.212-2.77 14.81-.57c-.06-.044-10.17-7.272-27.93-4.984l-.598.598.638 3.121s.209 1.4 1.717.667c0 0 7.254-1.602 8.145.866v7.552l-18.241 3.16a19.8 19.8 0 0 1 2.879-9.9q.445-.728.952-1.414l.036.012q.309-.454.644-.889h-.002q.381-.467.788-.91c3.654-3.952 8.882-6.43 14.684-6.43Zm17.196 30.09.014-.04v.003l-.016.039q-.222.375-.463.739.249-.383.478-.778l.002-.005a20 20 0 0 1-1.068 1.615l-.027-.008q-.26.38-.538.745-.498.62-1.043 1.197l-.013.028c-3.648 3.85-8.807 6.257-14.521 6.257-5.784 0-10.999-2.467-14.653-6.396l-.002-.002c-.922-.99-1.74-2.07-2.444-3.225a19.8 19.8 0 0 1-2.876-9.567l18.181 3.151-.015 3.38v10.924s.023 1.54 1.612 1.54c0 0 1.698.061 1.681-1.515l.06-11.162h-.003l-.025-3.25L83.98 64.6a19.8 19.8 0 0 1-2.758 9.439l-.023.038Zm-18.98-8.252-.005 1.108-8.496-1.38-8.656-1.383h17.157zm3.339-1.69V61.37l8.822 1.382 8.67 1.38H65.558Zm-22.53-.652H39.12q0-.114.002-.227c.144-4.81 1.568-9.198 3.477-12.976a55 55 0 0 0 4.254 1.6 20.77 20.77 0 0 0-3.828 11.603Zm-4.993-.268q-.003.133-.004.268h-4.86a30.9 30.9 0 0 1 4.468-15.615 55 55 0 0 0 3.966 1.976c-1.96 3.89-3.422 8.411-3.571 13.371Zm-.005 1.403c.088 4.55 1.277 9.025 3.551 13.403a55 55 0 0 0-3.942 1.964 30.9 30.9 0 0 1-4.464-15.367zm1.092 0h3.91a20.77 20.77 0 0 0 3.824 11.356 55 55 0 0 0-4.275 1.61c-2.215-4.242-3.372-8.573-3.46-12.966Zm42.032 11.358a20.8 20.8 0 0 0 3.82-11.24h3.306c-.217 4.214-1.38 8.418-3.478 12.59a54 54 0 0 0-3.648-1.35m8.218-11.24h5.46a30.9 30.9 0 0 1-4.464 15.253 54 54 0 0 0-4.556-2.24c2.155-4.305 3.345-8.648 3.56-13.013m.037-1.136a29 29 0 0 0-.047-2.025c-.252-4.328-1.46-8.254-3.08-11.675a55 55 0 0 0 4.09-2.03 30.9 30.9 0 0 1 4.467 15.73zm-1.136-1.95q.056.975.045 1.95h-3.333a20.77 20.77 0 0 0-3.83-11.72 54 54 0 0 0 4.129-1.548c1.573 3.317 2.745 7.124 2.989 11.317Zm-18.93-23.626v.001c.624.565 4.271 3.983 7.463 9.325a20.93 20.93 0 0 0-12.397-4.355v-4.38a24 24 0 0 0 4.934-.591M38.19 80.859a54 54 0 0 1 3.88-1.926c2.412 4.337 5.89 8.575 10.428 12.693v.001q-.564.271-1.115.569A31.07 31.07 0 0 1 38.19 80.858Zm14.493 11.89c10.161-5.058 19.472-1.207 22.207.167a30.6 30.6 0 0 1-10.886 1.995 30.6 30.6 0 0 1-11.32-2.162Zm23.518-.368a16 16 0 0 0-1.04-.547c4.408-4.327 7.804-8.724 10.172-13.163a54 54 0 0 1 4.48 2.194A31.06 31.06 0 0 1 76.202 92.38Zm13.616-45.387a54 54 0 0 1-3.992 1.977C82.27 41.974 77.106 37.26 75.38 35.8c.227-.119.456-.231.684-.358l-.024-.046a31.1 31.1 0 0 1 13.778 11.597ZM64.004 32.94a30.6 30.6 0 0 1 10.771 1.952c-9.838 5.039-18.69 1.595-21.743.077a30.6 30.6 0 0 1 10.972-2.03ZM36.032 83.17l-3.426 2.028 2.206-4.072-.582-.98-5.13 3.038.558.937 3.344-1.982-2.143 3.993.603 1.011 5.127-3.038z" fill="#004f97"/><path d="M59.379 91.783a1.9 1.9 0 0 1-.6.3v.617q.261-.08.435-.168.174-.085.36-.227v1.808h.765v-2.76h-.626a1.2 1.2 0 0 1-.334.43m3.46-.29q-.248-.139-.656-.14-.34.001-.565.116a.84.84 0 0 0-.353.335.96.96 0 0 0-.128.492q0 .397.252.656a.83.83 0 0 0 .617.258.8.8 0 0 0 .33-.064.9.9 0 0 0 .28-.204q-.039.437-.111.573-.104.183-.285.183a.25.25 0 0 1-.173-.065q-.071-.063-.1-.224l-.752.095a1 1 0 0 0 .191.362.8.8 0 0 0 .312.22q.188.072.513.073.549.001.86-.34.309-.343.31-1.077 0-.5-.148-.805a1 1 0 0 0-.394-.444m-.358 1.135a.34.34 0 0 1-.264.116.33.33 0 0 1-.258-.12c-.069-.081-.103-.195-.103-.35q0-.223.1-.337a.32.32 0 0 1 .249-.113.36.36 0 0 1 .271.126.5.5 0 0 1 .111.344.48.48 0 0 1-.106.334m2.533-.337a1 1 0 0 0-.246.03q-.13.03-.25.088l.066-.407H65.8v-.6h-1.796l-.24 1.455.644.095a.6.6 0 0 1 .168-.142.45.45 0 0 1 .211-.053q.173 0 .276.113.105.113.106.355-.001.237-.104.356a.33.33 0 0 1-.261.119.34.34 0 0 1-.243-.094.45.45 0 0 1-.13-.279l-.765.082q.056.193.14.32a.9.9 0 0 0 .218.229 1 1 0 0 0 .327.151q.191.05.462.05.373 0 .616-.127a.9.9 0 0 0 .37-.37q.13-.242.13-.506a.83.83 0 0 0-.252-.619.92.92 0 0 0-.664-.246Zm2.254 1.209q.105-.102.181-.165.079-.064.306-.22.385-.27.53-.497a.85.85 0 0 0 .145-.473.73.73 0 0 0-.125-.421.76.76 0 0 0-.35-.28q-.223-.09-.621-.09-.383 0-.599.096a.76.76 0 0 0-.337.273 1.2 1.2 0 0 0-.162.498l.758.062q.03-.23.124-.322a.32.32 0 0 1 .235-.09.33.33 0 0 1 .233.087.28.28 0 0 1 .09.212.42.42 0 0 1-.092.243q-.093.128-.425.374-.544.402-.743.697a1.4 1.4 0 0 0-.237.63h2.27V93.5z" fill="#004f97"/></svg>