<svg width="128" height="128" fill="none" xmlns="http://www.w3.org/2000/svg"><path fill-rule="evenodd" clip-rule="evenodd" d="M33.88 33.881C26.17 41.59 21.402 52.237 21.402 64c0 11.765 4.767 22.412 12.478 30.123 7.711 7.709 18.356 12.474 30.121 12.474 11.763 0 22.41-4.765 30.12-12.474 7.712-7.711 12.477-18.358 12.477-30.123 0-11.763-4.765-22.41-12.476-30.119-7.711-7.71-18.358-12.48-30.121-12.48-11.765 0-22.41 4.77-30.12 12.48ZM20.001 64c0-24.299 19.7-43.998 44-44 24.299.002 43.998 19.701 43.998 44 0 24.303-19.7 44-43.998 44-24.3 0-44-19.697-44-44" fill="#1b5293"/><path fill-rule="evenodd" clip-rule="evenodd" d="M41.807 41.806c-5.68 5.683-9.193 13.525-9.193 22.193 0 8.67 3.513 16.514 9.194 22.197 5.68 5.679 13.524 9.192 22.193 9.192 8.668 0 16.512-3.513 22.193-9.192C91.876 80.513 95.387 72.67 95.387 64c0-8.668-3.51-16.51-9.193-22.193-5.68-5.68-13.525-9.192-22.193-9.192s-16.513 3.511-22.194 9.192Zm-10.18 22.193c0-17.88 14.494-32.372 32.374-32.372s32.376 14.492 32.376 32.372c0 17.884-14.496 32.378-32.376 32.378S31.627 81.883 31.627 63.999m-6.739 9.838 1.855-.59.093.295q-1.49 1.124-1.077 2.221.423 1.326 2.747.588 2.297-.731 1.841-2.271-.507-1.494-2.28-1.06l-.114-.352q2.049-.585 2.745 1.495.725 2.589-1.752 3.571-2.528.51-3.521-1.797-.205-.65-.026-1.615l-.418-.193zm1.758-3.435-.26-1.742-1.557.233c-.373.036-.51.287-.42.749l-.305.05-.412-2.751.305-.048q.093.83.633.687l3.73-.558q.558-.019.404-.842l.304-.045.412 2.75-.304.046c-.05-.474-.257-.669-.621-.595l-1.831.275.258 1.743 1.834-.274q.554-.054.42-.753l.304-.046.406 2.721-.305.044q-.089-.798-.628-.653l-3.729.556c-.374.014-.507.286-.41.812l-.304.044-.408-2.72.306-.045q.075.708.62.595z" fill="#1b5293"/><path fill-rule="evenodd" clip-rule="evenodd" d="m29.1 63.381.076 2.874-.308.008q.01-.833-.545-.758l-3.768.098q-.558-.047-.506.788l-.308.008-.074-2.872.308-.01q-.01.837.544.758l3.768-.1q.557.05.505-.782z" fill="#1b5293"/><path fill-rule="evenodd" clip-rule="evenodd" d="m23.905 63.004-.308-.03.18-1.906 3.936-2.301.004-.032-2.77-.259q-.518-.11-.693.775l-.307-.026.183-1.973.307.03q.022.779.55.766l4.492.416-.07.739-4.465 2.625-.002.032 3.354.312c.363.096.566-.199.61-.875l.306.028-.197 2.123-.309-.03q.11-.824-.45-.816l-3.753-.35q-.549-.11-.598.752m4.215-8.576-1.791.277 1.447 1.071zm1.897 1.567-.534 2.096-.3-.076q.071-.651-.744-1.21l-3.637-2.743.1-.39 5.053-.816c.369-.036.601-.229.693-.591l.299.078-.703 2.754-.299-.077.078-.299q.15-.469-.157-.515a2 2 0 0 0-.247-.034q.129.002-.068.016l-.967.167-.426 1.678.537.392c.086.086.233.165.45.24q.364.065.472-.358l.1-.388zm-3.491-7.245 1.218-2.5.279.136q-.405.768.12.954l2.915 1.42q.917.383 1.46-.525.594-1.221-.626-1.817L29.31 45.16q-.432-.313-.934.506l-.276-.136.877-1.803.279.133q-.27.764.23.94l2.527 1.232q1.556.755.649 2.617-.908 1.792-2.256 1.17l-2.804-1.367q-.471-.3-.796.434l-.279-.135Zm2.968-5.304-.252-.177 1.092-1.572 4.56-.066.018-.024-2.283-1.588q-.395-.35-.983.332l-.253-.177 1.129-1.622.253.177q-.365.685.101.937l3.704 2.576-.424.605-5.179.088-.018.026 2.765 1.922q.404.394.961-.462l.253.178-1.216 1.75-.255-.178q.503-.665.01-.934l-3.093-2.153q-.42-.366-.89.362m9.412-3.806-1.91 2.146-.232-.205c.384-.404.424-.71.122-.927l-2.815-2.506q-.374-.42-.905.226l-.231-.205 1.91-2.145.231.205q-.578.604-.121.927l2.815 2.508q.372.415.905-.23zm-3.416-3.913-.205-.23 1.958-1.748.207.229q-.598.493-.324.706-.152-.031 2.962 1.786l.021-.02q-.076-.178-.21-.516-1.142-2.995-1.077-2.6-.288-.322-.773.11l-.205-.233 1.336-1.19.207.231c-.265.29-.326.581-.181.864l1.797 4.566-.486.432-4.15-2.424q-.525-.36-.877.037m8.4-6.836 1.113 1.599-.285.185q-1.222-1.086-2.412-.31-.63.334-.276.767l.841 1.294q.906-.476.532-1.45l.259-.168 1.196 1.84-.26.168q-.735-.737-1.541-.105l.993 1.53q.26.458.814.06 1.28-.867.73-2.502l.287-.183 1.075 1.768-4.196 2.727-.167-.261q.712-.426.36-.86l-2.054-3.159q-.25-.5-.934-.022l-.169-.259 4.095-2.659Zm3.32-.728.7 1.548q1.335-.568.822-1.556-.45-.917-1.233-.63-.48.215-.288.638Zm4.101 1.878.283-.125q.507 1.125-.536 1.596c-.706.34-1.238.106-1.604-.702q-.487-1.303-1.417-.816l.67 1.492q.21.686.972.275l.127.28-2.561 1.155-.13-.278q.774-.317.49-.799l-1.549-3.435c-.115-.356-.422-.406-.92-.161l-.127-.28 2.534-1.143q1.816-.787 2.428.497.492 1.167-1.214 1.97l.014.027q1.05-.37 1.75.501.672.81.778.597.235-.072.012-.65Zm.997.934-.582-2.018.327-.096q.971 1.59 2.165 1.276.943-.305.733-1.144-.146-.504-1.513-.56-1.861-.107-2.136-1.056-.38-1.657 1.286-2.236c.374-.11.76-.111 1.155-.012a.8.8 0 0 0 .262.022c.08-.024.138-.113.178-.276a.5.5 0 0 1 .032-.106l.298-.087.522 1.81-.297.088q-.85-1.395-1.929-1.116-.853.278-.676.995.152.54 1.482.573 1.912.058 2.23 1.159.346 1.537-1.362 2.191a3.6 3.6 0 0 1-1.316.123q-.232-.03-.322-.003c-.1.025-.171.145-.219.35l-.022.04zm6.7-1.611-2.824.523-.058-.306q.828-.12.665-.657l-.685-3.704q-.041-.56-.856-.377l-.055-.306 2.824-.522.058.307q-.827.12-.665.657l.685 3.702q.041.561.856.378zm-.458-5.476 5.085-.362.165 1.909-.37.028q-.477-1.518-1.65-1.433l.299 4.221q-.021.56.901.464l.02.306-3.081.217-.022-.304q.99-.041.856-.587l-.297-4.224q-1.172.085-1.433 1.65l-.368.026zm6.023-.046.024-.309 2.62.2-.026.31q-.617-.048-.633.199-.009.09.095.348a.3.3 0 0 1 .026.094l.71 1.634.853-1.421c.095-.181.147-.319.157-.424q.025-.335-.653-.388l.022-.309 2.002.153-.022.309q-.713.005-.905.488l-1.316 2.225-.107 1.413q-.104.552.822.591l-.024.309-3.02-.231.026-.307q.984.106.932-.457l.111-1.448-.866-2.048q-.33-.955-.828-.931m8.507 3.572q-.67 2.347.578 2.703 1.207.376 1.887-1.998c.454-1.583.273-2.484-.547-2.695q-1.248-.356-1.917 1.99Zm-1.424-.408q.97-2.39 3.445-1.94 2.3.95 1.871 3.46-.935 2.368-3.4 1.888-2.378-.903-1.916-3.408m7.343 5.429-2.691-1.246.13-.28q.743.38.923-.152l1.584-3.42q.288-.476-.482-.8l.132-.28 4.426 2.054-.76 1.789-.31-.141q.27-1.612-1.017-2.212-.622-.353-.799.177l-.648 1.402q.886.514 1.51-.32l.28.129-.92 1.99-.281-.131q.233-1.015-.73-1.36l-.781 1.68c-.193.323-.006.601.563.842l-.13.279Zm7.024-1.116-.932 1.345.227.158q.916.638 1.549-.279.546-.898-.078-1.407-.431-.299-.766.183m-1.867 4.158-2.363-1.64.177-.253q.668.502.936.008l2.147-3.097c.245-.283.134-.57-.336-.872l.177-.253 2.335 1.62q1.513 1.125.772 2.302-.862 1.133-2.386.189l-.735-.51-.9 1.294q-.403.474.35.955zm8.788.336-1.278 1.469-.249-.229q.753-1.451-.288-2.416c-.32-.355-.592-.377-.812-.078l-1.051 1.135q.686.758 1.536.159l.227.209-1.489 1.612-.227-.211q.533-.896-.276-1.523l-1.24 1.338q-.379.364.141.806 1.155 1.026 2.603.093l.251.233-1.453 1.477-3.67-3.4.209-.226q.592.587.924.14l2.56-2.768q.423-.362-.21-.911l.21-.225zm.785.801 3.202 3.967-1.47 1.226-.233-.287q.968-1.257.23-2.171l-3.292 2.659q-.47.3.136 1.003l-.241.195-1.94-2.404.24-.195q.594.79.971.368l3.293-2.661q-.739-.912-2.172-.231l-.233-.289zm3.869 6.63-1.46.868q.713 1.261 1.64.64.858-.547.487-1.295-.269-.453-.667-.213m-1.409 4.283.16.267q-1.064.63-1.649-.354-.625-.993.518-1.67 1.244-.63.655-1.503l-1.41.838q-.659.28-.163.995l-.266.156-1.436-2.417.267-.157q.398.731.844.396l3.242-1.927q.51-.226.058-.93l.265-.158 1.421 2.39q.981 1.717-.225 2.47-1.105.62-2.092-.985l-.028.014q.488 1.004-.298 1.795c-.49.508-.661.786-.508.842q.098.226.645-.062m2.397 1.686q-2.277.878-1.81 2.088.424 1.194 2.73.307 2.309-.887 1.825-2.058-.466-1.209-2.745-.337m-.531-1.381q2.493-.662 3.623 1.584.627 2.41-1.639 3.575-2.454.68-3.552-1.578-.708-2.443 1.568-3.581m.405 10.571-.99-4.43.302-.068q.153.824.68.64l3.679-.823q.554-.06.344-.868l.301-.066.627 2.8-.301.069c-.101-.544-.328-.759-.68-.637l-3.649.816q-.55.087-.368.619.345 1.126 2.046 1.22l.074.332zm5.854 5.126-1.939.183-.022-.34q1.545-.529 1.457-1.95.016-.708-.533-.616l-1.543.098q-.03 1.023 1.003 1.174l.018.31-2.189.138-.02-.309q1.006-.282.85-1.291l-1.82.111q-.527.003-.453.683.127 1.536 1.821 1.863l.02.34-2.07.068-.313-4.996.309-.018q.021.833.573.738l3.762-.236q.557.028.474-.803l.31-.02zm.034.861-.223 2.773-.308-.026q.099-.86-.458-.842l-3.235-.26c-.66-.015-1.048.328-1.166 1.02q-.112 1.356 1.244 1.463l2.864.231q.517.135.685-.812l.308.026-.161 2.002-.306-.026q-.03-.809-.558-.788l-2.802-.227q-1.724-.14-1.559-2.201c.13-1.334.687-1.969 1.674-1.913l3.109.253q.55.108.584-.697zm-6.445 7.595.553-1.965.297.086q-.18.75.505.943l3.48.98q.465.162.639-.56l.296.084-.621 2.201-3.837.076-.01.026 3.238 2.068-.629 2.231-.297-.084q.255-.793-.296-.885l-3.629-1.02c-.344-.14-.583.056-.714.6l-.299-.084.747-2.647.296.084c-.153.473-.05.744.315.826l3.863 1.088-4.257-2.772.185-.653 5.061-.084-3.658-1.03q-.712-.2-.931.572zM59.77 90.048v3.025q-.002.23.19.231h.359v.19h-1.734v-.19h.339q.188-.02.189-.213v-2.366a3 3 0 0 1-.635.274l-.084-.15a3.6 3.6 0 0 0 1.079-.801zm2.075 1.036q-.041.887.38.868.192 0 .446-.172a5 5 0 0 0 .042-.57q0-.974-.466-.972-.423-.02-.402.846m-.275 2.452-.127-.147q.953-.293 1.184-1.376a.96.96 0 0 1-.549.191q-.87-.064-.931-1.015.084-1.057 1.1-1.142 1.12.063 1.163 1.439-.105 1.65-1.84 2.05m2.756-1.692.061-1.712h1.207q.17 0 .19-.105h.17l-.086.633h-1.29l-.02.657q.213-.065.442-.066c.749.046 1.145.416 1.187 1.123-.058.734-.5 1.12-1.334 1.164-.466-.014-.71-.15-.74-.404q.02-.273.274-.275.192 0 .34.257.147.23.317.229.466-.04.508-.717-.021-.761-.657-.804-.21 0-.422.106zm3.367 0-.085-.147q.571-.464.55-.826-.02-.38-.381-.4-.317-.001-.505.38l-.172-.062q.275-.722.974-.74.656.04.718.593.001.42-.571.758h.022q.76.041.824.91-.083 1.163-1.354 1.228-.716-.044-.782-.422.022-.256.297-.277.169 0 .338.233c.114.167.24.255.38.255q.445-.045.466-.74-.02-.744-.55-.785a.2.2 0 0 0-.085.022.2.2 0 0 1-.084.02M55.886 38.793h6.616v10.792s-2.126.887-4.548 3.756c0 0-2.942-.333-5.536.84-3.415 1.548-6.574 5.784-4.745 11.172 1.889 5.567 7.759 7.217 7.958 7.217 0 0-11.07 2.126-13.593-7.86-1.899-7.518 3.171-16.065 13.848-16.706z" fill="#1b5293"/><path fill-rule="evenodd" clip-rule="evenodd" d="M65.713 38.795v10.59s-11.27 4.599-9.836 14.634c.445 1.927 2.225 2.373 3.164 2.321.94-.05 3.163-.247 3.36-3.16.2-2.326 1.087-8.356 7.416-11.024 5.142-2.125 11.764-.547 15.57 3.904 0 0-3.165-7.859-13.1-8.008v-9.257z" fill="#1b5293"/><path fill-rule="evenodd" clip-rule="evenodd" d="M44.706 71.088s5.092 4.99 13.891 2.272c6.03-2.52 6.672-7.216 7.066-10.231.299-2.425 1.929-3.61 3.907-3.312 1.58.199 3.113 1.73 2.916 3.706-.199 1.976-1.088 9.442-9.986 13.198v7.612s-.246.891.743.989h1.877s.742 0 .692-.938v-7.907s3.066-1.88 4.153-3.659c0 0 4.27.37 8.303-3.608 3.856-3.808 4.994-14.584-6.425-16.067 0 0 5.932-2.42 11.666 2.57 4.893 4.303 2.964 15.077-3.708 19.23-3.412 2.373-7.561 3.066-7.561 3.066v5.73s.493 2.968-2.966 3.856h-10.53s-2.818-.541-2.868-3.607V77.91s-7.364-.94-11.17-6.822M37.07 87.37c-.176.07-.528 0-.576-.062-.048-.064.161-.195.161-.195a.28.28 0 0 1 .333.004c.085.066.256.18.081.253Zm1.406-1.873c.178-.408-.497-.787-.577-.673 0 0-.183.06-.141.406.04.348-.215.38-.432.57-.217.184-.816.62-.816.62s-1.586-.657-1.72-.784c-.131-.13-.153.352.088.493.243.14.921.418 1.06.49.14.072.3.13.178.225-.124.096-.414.422-.542.404-.127-.012-.808-.42-.963-.07-.153.35-.09.815-.008.898.084.082-2.157 1.523-2.689 2.005-.531.481-.52.684-.048.549.47-.14 1.135-.655 1.63-1.061.492-.402 1.418-1.077 1.551-1.115.135-.04.9-.159 1.264-.177.362-.024.486-.12.826.213.338.327.484.508.685.138.203-.375.35-1.05.043-1.338-.306-.289-.806-.442-.75-.52.056-.075 1.182-.871 1.361-1.273m-4.87 1.049c-.07.336.02.597.243.44.223-.16.308-1.464.22-1.81-.087-.342-.338-.41-.338-.41-.434-.091-.31.424-.113.699s.056.75-.012 1.08Zm16.86 12.365c-.14-.432-.444-.452-.762-.384-.317.066-.633-.064-.872-.02-.24.036.213.466.33.627.116.16-.23.29-.515.283-.283-.006-.364.11-.408.01-.042-.1-.141-.538-.255-.763-.11-.22-.404-.258-.404-.258-.22-.11.229.33.396.71.165.378.09.695.13.989.04.289.543.405 1.11.679.567.277.627.076.595-.018-.032-.095-.041-.531.06-.792.102-.265.145-.215.591-.195.444.022.145-.434.004-.868m-.032-2.577c.36-.044.799-.04 1.083.15.285.19.57-.021.18-.499-.393-.475-.323-.22-.894-.225-.568-.004-1.648-.27-1.668-.227 0 0-.052.102.063.267.118.162-.026.323.221.428.247.108.514.173.144.345-.369.17-3.677 2.215-5.53 2.601-.255.15.137.223 1.16-.034 1.024-.255 1.137-.253 2.188-.782 1.051-.53 2.6-1.385 2.8-1.642.202-.251-.107-.335.253-.382M66.89 98.26s.07.126.187.225c.115.102.207.83.215 1.254.006.422.185.713-.237.888-.42.177-.987.195-.812.45.177.251.601.424.733.412.13-.008.346.095.083.296-.263.203-1.612 1.549-1.801 1.599-.191.051.072.151.764.042.693-.114 1.149-.148 1.567-.532.42-.38.382-.703.507-.798.126-.094.088-.118.372.115.283.235 1.109 1.394 1.696 1.808.585.416.962.266 1.92.01.409-.197-.027-.225-.6-.436-.571-.211-1.157-.434-2.052-1.272-.898-.838-1.11-.93-.956-1.113.156-.179.585-.903.888-.913.3-.008.356-.546.002-.759-.354-.217-.754-.087-.92-.175-.163-.082-.246-.717-.533-.997s-1.264-.255-1.023-.104m11.905.525c-.197-.006-.414-.335-.603-.474-.191-.141.032-.352.163-.446.127-.093.366-.364.014-.579-.352-.213-.54-.358-.981.141-.44.498-1.17.952-1.014 1.08 0 0 .285.244.544.057s.45-.295.428-.13c-.02.164.004.35.294.512.293.165.625.217.494.338-.13.124-1.188.908-1.38 1.197-.19.288-.087.286.261.189.35-.098.842-.319 1.153-.54.308-.223.55-.298.645.08.093.372.13 1.349-.144 1.505-.274.153-1.528.543-1.462.694.065.154.925.066 1.194.211.27.146.965.124 1.114-.875.15-1.002.126-1.394-.268-2.2.07-.083.268-.259.505-.28.24-.024.225-.422-.177-.578-.404-.153-.581.106-.78.098m1.246-2.805c-.135-.229-.231-.515-1.097-.137-.868.382-1.523 1.142-2.05 1.493-.525.354.818-1.113 1.274-1.45.456-.334.288-.732-.098-.843-.384-.11-.672.04-.79.101s-.517.558-.762.661c-.243.102-.307.13-.285.185 0 0 .327.434.572.486.242.056.324-.03.342-.354.022-.319-.042-.683.2-.76s.49-.102.409.166c-.082.27-1.97 3.307-2.166 3.183-.197-.127-.348-.205-.481-.15-.132.057-.03.142-.11.383-.08.245-.346.812.126.975.473.166.111-.565.47-.885.36-.32.46-.546 1.307-1.463.848-.92 1.929-1.56 1.939-1.384.01.178.026.122-.26.281-.284.16-.499.601-.302.543.197-.055.498-.3.972-.438.477-.137.927-.364.79-.593m-4.453 1.376c.285.179.508.398.725.177.219-.225-.127-.792-.263-.866-.133-.074.032.193-.103.213-.136.018-1.119-.151-.92.167 0 0 .279.132.561.309m-15.423 3.33c-.16.062-.171.072-.255.434-.081.358-.481 1.449-.645 1.624s-.153-.048-.169-.189c-.014-.137-.3-.145-.418-.103-.12.043-.087-.162-.06-.406s.194-.12.562-.172c.37-.055-.132-.579-.21-.645-.077-.061.066-.784.066-.784.651-.195.892-.069 1.157-.014.265.054.131.195-.028.255m1.02.237c-.702-.669-.895-.862-2.182-.733.061-.087-.026-.708.163-.718.187-.008.42.006.195-.603-.227-.61-.727-1.059-.8-.836-.072.225.026.239-.026.716-.052.478-.064 1.258-.191 1.426-.126.163-.74.28-1.103.519 0 0 .038.165.283.108.245-.062.65-.269.746-.317s.167-.195.112.155c-.054.351-.106.83-.213.8-.11-.031-.661-.306-.583-.007.075.296.129.519.224.535.098.014.106.115.092.199-.012.086-.173.157-.309.149-.135-.01-.087.398-.354-.205-.265-.601-.517-1.19-.687-1.218-.17-.024-.119.046.052.297.171.25.263.613.355.977.091.36-.058.985.411.922.47-.06.486-.084.827-.042.342.042.382-.124.44-.016.057.107.145.88.47.955.322.076.544-.237.98-1.021.438-.79.434-1.24.749-1.262.314-.026 1.049-.105.348-.78Zm-5.81 1.427c-.331.356-.234.147-.598.165-.364.016.181.81.508.788.326-.021.772-1.566.772-1.566.04-.243-.352.255-.683.613Zm.548-1.182c.271.02.303-.187.315-.335.01-.149-.66-.925-.66-.925-.387-.076.075 1.242.345 1.26m.651-1.276c.227.135.289-.016.297-.227.01-.209-.677-.977-.677-.977-.334-.092.153 1.069.38 1.204m-16.549-5.433c-.116 0-.253-.068-.621-.345-.369-.276-.773-.567-.773-.567-.298-.299-.29.209-.043.418.248.207.607.478 1.134.87.528.398.448.298.484.101.038-.197-.066-.48-.181-.478Zm1.548-.126c.233.147.355.022.235-.452-.121-.473-.006-.784-.131-.905-.126-.122.237-.436.298-.512.066-.073.203-.008.546.201.346.207.696.098.587-.35-.108-.45-.082-.344-.985-.506-.904-.159-1.497-.595-1.378-.428 0 0-.107.478.16.524.268.048.704.091.67.207-.034.117-.243.446-.354.48-.114.037-.233-.032-.267-.108-.032-.078-.2-.09-.223.052-.024.143-.073.282-.095.424-.024.141-.092.167-.373.173s-.666-.056-.76.303c-.091.36-.032.638.273.684.302.044.366-.034.591.22s.49.057.474-.138c-.018-.193.268-.438.308-.484.04-.048.203-.107.197.115-.008.222-.006.353.227.5m-.838-3.286c.118-.16-.18-.249-.18-.249-.08-.002-.083.078-.29.327-.206.246-1.248 1.48-1.66 1.703-.411.22-.406.388-.39.596.02.212.522-.116.763-.365a70 70 0 0 0 1.757-2.012m3.963 2.118c.102-.335-.01-.936-.1-1.155-.089-.223-.354-.738-1.319-.901-.967-.164-1.903-.496-1.736-.191 0 0 .19.27.476.3.285.03 1.238.15 1.517.205.276.056.59.319.511.547-.075.225-.698.984-1.128 1.515-.43.532-1.949 2.954-2.08 2.647-.134-.304-.273-1.122-.384-.873-.112.245-.114.52-.203.915-.09.396-.436 1.061-.024 1.149.414.087.352.197 1.538-1.27 1.187-1.47 2.096-2.665 2.253-2.697.156-.03.576.145.68-.191Zm40.112 2.339a.592.592 0 1 1-1.186 0 .593.593 0 0 1 1.186 0m3.779-2.76a1.4 1.4 0 0 1-.118.28.46.46 0 0 0-.05.321.7.7 0 0 1-.01.259q.007.09 0 .153-.02.168.172.486c.028.057.048.085.06.073q.035.004.08-.093a6 6 0 0 0 .296-.83 7 7 0 0 0-.191-.313 3 3 0 0 1-.24-.336Zm-.64-3.03c-.039-.051-.023-.081.047-.099q1.01-.287 1.009-.1l.372.542q.178.258.327.484c.101-.207.195-.43.276-.66q.102-.3.484-.172.358.209.22.505-.173.362-.296.673c-.066.199-.163.312-.292.33q.19.469.326.641.28.301.508.088a.6.6 0 0 0 .189-.153 12 12 0 0 0 .199-.251q.225-.34.454-.368.346-.035.513.177.213.265-.02.515a10 10 0 0 1-.513.444q-.263.211-.41.299-.409.267-.78.035-.363-.14-.624-.615a6 6 0 0 0-.272-.495q-.046-.057-.08-.06t-.076.06q-.146.395-.185 1.238a3 3 0 0 0 .325.516.2.2 0 0 0 .042.089 1 1 0 0 1 .053.147q-.003.031.008.086.031.038.098.2.042.088.006.12-.003.035-.084-.026-.213-.11-.332-.107.078.563-.014.758a.39.39 0 0 1-.32.261q-.397.007-.55-.336a.6.6 0 0 0-.066-.198l-.01-.051c-.071-.09-.17-.378-.302-.876q-.314.189-.788-.205c-.054-.02-.082-.036-.078-.062q.003-.032.078-.095.169-.135.294-.329.183-.27.452-.52a2.4 2.4 0 0 0-.796-.602q-.084-.025-.096-.08.003-.031.078-.091c.346-.22.609-.275.796-.174.229.104.398.24.508.398.17.315.354.647.547.988q.095-1.04.205-1.441a7 7 0 0 0-.617-.806q-.278-.31-.44-.39-.02.012-.034-.005-.25-.081-.338-.227Zm7.248-2.084a4.2 4.2 0 0 0-.293.802q.322-.049.496-.219.24-.1.087-.255l-.17-.173a1 1 0 0 0-.12-.155m-.737-.29q.173.099.277-.174-.155-.154-.257-.085-.12.151-.02.258Zm.094-1.663q-.103 0-.104.24a1 1 0 0 0-.017.152 1 1 0 0 0-.034.171 3.3 3.3 0 0 0-.106.516c.251-.14.446-.171.581-.102q.039-.308-.1-.722-.1-.27-.22-.255m-2.633-.696q.12-.016.36-.152l.052-.053q.341-.272.702-.183.306.031.29.153.084.259-.294.497-.136.1-.326.39-.207.276-.585.888-.086.156-.07 0 .19-.424.4-.973.153-.289-.103-.309-.342-.034-.444-.139c-.046-.02-.064-.04-.052-.052q0-.033.07-.067m1.455-.046q.068-.306.207-.34a.26.26 0 0 0 .137-.036.6.6 0 0 0 .153-.05q.174-.032.223.052.068.069.016.29-.156.771-.09 1.079.31-.58.944-.422c.135.022.205.082.203.171q.018.154.034.205.202.791.032 1.198.033.104.085.122a8 8 0 0 1 .583-.649c.08-.08.19-.127.327-.153q.65-.033.818.52.017.15-.104.168a.3.3 0 0 1-.101.068 3 3 0 0 0-.31.068q-.034.034-.066.034-.276.066-.532.047-.052.02-.034 0l.068-.067q.412-.27.31-.444-.255-.259-.86.511.31.342.41.379.324.29.429.531-.003.067.065.171l.052.054q.087.187-.257.151-.308-.105-.702.014a1 1 0 0 1-.343.066 4 4 0 0 0-.189-.016q.033.413.118.635.087.257-.088.255-.238-.001-.462-.086-.118-.053-.153-.123v-.034q-.016-.256-.304-.548-.086-.121.067-.205a.3.3 0 0 1 .257.086q.104.138.223-.118.415-.785.553-.993l-.137-.137q-.462.257-.734-.155 0 .101.047.358.037.105.052.155.102.243-.07.273-.429.154-.615-.376-.051-.126 0-.14.052.055.002-.205a11 11 0 0 1-.131-1.68c.002-.065-.01-.08-.034-.03q-.277.613-.468 1.416c-.023.414-.258.689-.706.836-.215.101-.376.08-.478-.072q-.051-.05.018-.083l.018-.016q.375-.17.842-1.215a9 9 0 0 0 .19-.392q.242-.545.363-.802a1.6 1.6 0 0 0 .122-.326" fill="#1b5293"/></svg>