<svg xmlns="http://www.w3.org/2000/svg" viewBox="0 0 128 48.9"><defs><style>.cls-1{fill:#1b5293;fill-rule:evenodd}</style></defs><g id="_图层_1" data-name="图层_1"><path class="cls-1" d="M18.3 15.1c-2.5 2.5-3.9 5.9-3.9 9.4 0 3.7 1.5 7 3.9 9.4s5.7 3.9 9.4 3.9c3.5 0 6.9-1.4 9.4-3.9 2.4-2.4 3.9-5.7 3.9-9.4s-1.5-7-3.9-9.4c-2.5-2.5-5.9-3.9-9.4-3.9s-6.9 1.4-9.4 3.9M14 24.5c0-7.6 6.1-13.7 13.7-13.7s13.7 6.1 13.7 13.7-6.1 13.7-13.7 13.7S14 32.1 14 24.5"/><path class="cls-1" d="M20.8 17.6c-1.8 1.8-2.9 4.3-2.9 6.9 0 2.7 1.1 5.1 2.9 6.9s4.3 2.9 6.9 2.9 5.1-1 6.9-2.9c1.8-1.8 2.9-4.3 2.9-6.9s-1-5.1-2.9-6.9c-1.8-1.8-4.3-2.9-6.9-2.9s-5.1 1-6.9 2.9m-3.2 6.9c0-5.6 4.5-10.1 10.1-10.1s10.1 4.5 10.1 10.1-4.5 10.1-10.1 10.1-10.1-4.5-10.1-10.1m-2.1 3 .6-.2c-.3.3-.4.6-.3.8 0 .3.4.3.9.2.5-.2.7-.4.6-.7s-.3-.4-.7-.3c.4-.2.7 0 .9.4.1.5 0 .9-.5 1.1-.5.1-.9 0-1.1-.6v-.5h-.1v-.2Zm.6-1V26h-.6c-.1 0-.2 0-.1.2s-.1-.8-.1-.8c0 .2 0 .2.2.2l1.2-.2c.1 0 .2 0 .1-.3s.1.8.1.8c0-.1 0-.2-.2-.2h-.6v.6h.6c.1 0 .2-.2.1-.3s.1.8.1.8c0-.2 0-.2-.2-.2l-1.2.2c-.1 0-.2 0-.1.3s-.1-.8-.1-.8c0 .1 0 .2.2.2h.5Z"/><path class="cls-1" d="M16.8 24.3v.9c0-.2 0-.3-.2-.2h-1.2c-.1 0-.2.1-.2.3v-.9c0 .2 0 .2.2.2h1.2c.1 0 .2-.1.2-.3"/><path class="cls-1" d="M15.2 24.2v-.6l1.2-.7h-.9c-.1 0-.2 0-.2.2v-.6c0 .2 0 .2.2.2h1.4v.4l-1.4.8 1 .1c.1 0 .2 0 .2-.3v.7c0-.2 0-.3-.1-.3h-1.2c-.1-.1-.2 0-.2.1m1.3-2.7h-.6l.4.4v-.4Zm.6.5-.2.7c0-.2 0-.3-.2-.4l-1.1-.9c0-.1 1.6-.4 1.6-.4.1 0 .2 0 .2-.2s-.2.9-.2.9v-.3h-.3l-.1.6h.2c0 .2 0 .2.1.2 0 0 .1 0 .1-.1ZM16 19.7l.4-.8v.3l.9.4c.2 0 .3 0 .5-.2.1-.3 0-.4-.2-.6l-.8-.4s-.2 0-.3.2l.3-.6v.3l.8.4c.3.2.4.4.2.8s-.4.5-.7.4l-.9-.4s-.2 0-.2.1Zm1-1.6.3-.5h1.4l-.7-.5s-.2 0-.3.1l.4-.6v.3l1.2.8v.2h-1.7l.9.6s.2 0 .3-.1l-.4.6q.15-.3 0-.3l-1-.7s-.2 0-.3.1Zm2.9-1.2-.6.7c.1-.2.1-.3 0-.4l-.9-.8h-.3l.6-.7c-.1.2-.1.3 0 .4l.9.8zm-1.1-1.2.6-.6c-.1.2-.2.2-.1.3l.9.6v-.2c-.2-.6-.3-.9-.3-.8h-.2l.4-.4c0 .2-.1.3 0 .3l.6 1.4h-.2c0 .1-1.3-.6-1.3-.6h-.3Zm2.6-2.2.3.5c-.3-.2-.5-.2-.8 0-.1 0-.2.1 0 .2l.3.4c.2 0 .2-.2.2-.5l.4.5c-.2 0-.3-.1-.5 0l.3.5h.3c.3-.2.3-.4.2-.8l.3.5-1.3.8c.1-.2.2-.3.1-.3l-.6-1q0-.15-.3 0l1.3-.9Zm1.1-.2.2.5c.3-.1.4-.3.3-.5 0-.2-.2-.3-.4-.2-.1 0-.1.1 0 .2Zm1.2.6c.1.2 0 .4-.2.5s-.4 0-.5-.2c-.1-.3-.2-.4-.4-.3l.2.5c0 .1.1.2.3 0l-.8.4c.2-.2.2-.2.2-.3l-.5-1.1q0-.15-.3 0l.8-.4c.4-.2.6-.1.8.2.1.2 0 .4-.4.6.2 0 .4 0 .5.2s.2.2.2.2V14Zm.4.3-.2-.6h.1c.2.3.4.4.7.4.2 0 .3-.2.2-.4 0-.1-.2-.2-.5-.2-.4 0-.6-.1-.7-.3 0-.3 0-.6.4-.7h.4l.2.5q-.3-.45-.6-.3c-.2 0-.2.2-.2.3s.2.2.5.2c.4 0 .6.1.7.4 0 .3 0 .5-.4.7h-.5v.1Zm2-.5-.9.2c.2-.1.2-.2.2-.3l-.2-1.2c0-.1 0-.2-.3-.1l.9-.3c-.2.1-.2.2-.2.3l.2 1.2c0 .1 0 .2.3.1ZM26 12h1.6v.5h-.1c-.1-.3-.3-.5-.5-.4v1.3c0 .1.2.2.4.1l-1 .2q.3-.15.3-.3v-1.3c-.3 0-.5.2-.5.5h-.1V12Zm1.9 0h.8c-.1 0-.2.1-.2.2v.1l.2.5.3-.4v-.1s0-.1-.2-.1h.6c-.1 0-.2.1-.3.2l-.4.7v.4c0 .1 0 .2.2.2H28c.2 0 .3-.1.3-.2V13l-.2-.6c0-.2-.2-.3-.3-.3Zm2.6 1.1c-.1.5 0 .8.2.8s.4-.1.6-.6c.1-.5 0-.8-.2-.8-.3 0-.5.1-.6.6m-.4-.1c.2-.5.6-.7 1.1-.6.5.2.7.6.6 1.1-.2.5-.5.7-1.1.6-.5-.2-.7-.5-.6-1.1m2.3 1.6-.8-.4c.2 0 .2 0 .3-.1l.5-1.1s0-.2-.2-.2l1.4.6-.2.6c0-.4 0-.6-.3-.7h-.2l-.2.4c.2.1.3 0 .5 0s-.3.7-.3.7c0-.3 0-.4-.2-.5l-.2.5s0 .2.2.3Zm2.2-.3-.3.4c.2.2.3.2.5 0 .1-.2.1-.3 0-.4zm-.6 1.3-.7-.5h.3l.7-1s0-.2-.1-.3l.7.4c.3.2.4.5.2.7s-.4.3-.7 0l-.2-.2-.3.4s0 .2.1.3Zm2.7.1-.4.5c.2-.4.1-.6 0-.8 0-.1-.2-.1-.3 0l-.3.4c.1.2.3.2.5 0l-.5.6c.1-.3 0-.4 0-.5l-.4.4v.3c.2.2.5.2.8 0l-.5.5-1.1-1.1h.3l.8-.9v-.3l1.1 1Zm.3.2 1 1.2-.5.4c.2-.3.2-.6 0-.8l-1 .8v.3l-.6-.7q.15.15.3 0l1-.8c-.2-.2-.4-.2-.7 0l.5-.5Zm1.2 2.1-.5.3c.1.3.3.3.5.2s.2-.2.2-.4c0 0-.1-.1-.2 0Zm-.5 1.3c-.2.2-.4.2-.5 0s0-.4.2-.5c.3-.1.3-.3.2-.5l-.4.3c-.1 0-.2.2 0 .3s-.4-.7-.4-.7c0 .1.2.1.3 0l1-.6q.15 0 0-.3s.4.7.4.7c.2.4.2.6 0 .8-.2.1-.4 0-.7-.3.1.2 0 .4 0 .6-.2.2-.2.2-.2.3h.2Zm.8.6c-.5.2-.7.4-.6.7 0 .2.4.3.8 0q.75-.3.6-.6c0-.3-.4-.3-.9-.1Zm-.2-.5c.5-.1.9 0 1.1.5.1.5 0 .9-.5 1.1-.5.1-.9 0-1.1-.5-.1-.5 0-.9.5-1.1m.1 3.3-.3-1.4c0 .1.1.2.2.2l1.1-.3c.1 0 .2-.1.1-.3s.2.9.2.9c0-.1-.1-.2-.2-.2l-1.1.3c-.1 0-.2 0-.1.2 0 .2.3.4.6.4 0 .1-.6.2-.6.2Zm1.8 1.6h-.6c.3-.1.5-.3.5-.6 0-.1 0-.2-.2-.2h-.5c0 .2 0 .4.3.4l-.7.1c.2-.2.3-.3.3-.5h-.6c-.1 0-.2.1-.1.2q0 .45.6.6c0 .1-.6.1-.6.1v-1.6c0 .2 0 .2.2.2H40c.1 0 .2-.2.1-.3s0 1.5 0 1.5Zm.1.3v.9h-.2c0-.2 0-.3-.1-.3h-1c-.2 0-.3 0-.4.2 0 .3.1.4.4.5h.9c.1 0 .2 0 .2-.2v.6c0-.2 0-.3-.2-.3H39c-.4-.1-.5-.3-.5-.8 0-.4.2-.6.5-.6h1c.1.1.2 0 .2-.1Zm-2 2.4.2-.6c0 .2 0 .3.2.3l1.1.3s.2 0 .2-.2-.2.7-.2.7h-1.2l1 .6-.2.7v-.3l-1.1-.3c-.1 0-.2 0-.2.2s.2-.8.2-.8v.3l1.2.3-1.3-.9v-.2h1.6l-1.1-.3c-.1 0-.2 0-.3.2Zm-11.9 5.6v.9h.1-.5.1v-.7h-.2l.3-.3Zm.6.3c0 .2 0 .3.1.3h.1V33c0-.2 0-.3-.1-.3 0 0-.1 0-.1.3Zm-.1.8c.2-.1.3-.2.4-.5h-.2q-.3 0-.3-.3c0-.2.1-.3.3-.4.2 0 .4.2.4.4 0 .3-.2.6-.6.6Zm.9-.6v-.5h.4v.2h-.4v.2h.1c.2 0 .4.1.4.3s-.2.3-.4.4c-.1 0-.2 0-.2-.1h.1s.1 0 .2-.2c0-.2 0-.2-.2-.2h-.1Zm1 0c.1-.1.2-.2.2-.3 0 0 0-.1-.1-.1 0 0-.1 0-.2.1 0-.2.2-.2.3-.2s.2 0 .2.2c0 0 0 .2-.2.2.2 0 .2.1.3.3 0 .2-.2.4-.4.4-.1 0-.2 0-.2-.1h.2s.1 0 .1-.2 0-.2-.2-.2Zm-3.6-16.5h2.1V20s-.7.3-1.4 1.2c0 0-.9-.1-1.7.3-1.1.5-2 1.8-1.5 3.5.6 1.7 2.4 2.2 2.5 2.2 0 0-3.4.7-4.2-2.4-.6-2.3 1-5 4.3-5.2v-2.9Z"/><path class="cls-1" d="M28.2 16.6v3.3s-3.5 1.4-3.1 4.6c.1.6.7.7 1 .7s1 0 1-1c0-.7.3-2.6 2.3-3.4 1.6-.7 3.7-.2 4.8 1.2 0 0-1-2.4-4.1-2.5v-2.9h-2Z"/><path class="cls-1" d="M21.7 26.7s1.6 1.6 4.3.7c1.9-.8 2.1-2.2 2.2-3.2 0-.8.6-1.1 1.2-1 .5 0 1 .5.9 1.2 0 .6-.3 2.9-3.1 4.1v2.4s0 .3.2.3h.6s.2 0 .2-.3v-2.5s1-.6 1.3-1.1c0 0 1.3.1 2.6-1.1 1.2-1.2 1.6-4.5-2-5 0 0 1.8-.8 3.6.8 1.5 1.3.9 4.7-1.2 6-1.1.7-2.4 1-2.4 1v1.8s.2.9-.9 1.2h-3.3s-.9-.2-.9-1.1V29s-2.3-.3-3.5-2.1Zm-2.4 5h-.2.1Zm.5-.5c0-.1-.2-.2-.2-.2v.1c0 .1 0 .1-.1.2 0 0-.2.1-.3.2l-.5-.2v.2s.3.1.3.2c0 0-.1.1-.2.1 0 0-.3-.1-.3 0v.3s-.7.5-.8.6c-.2.2-.2.2 0 .2.1 0 .4-.2.5-.3.2-.1.4-.3.5-.3h.7c.1.1.1.2.2 0 0-.1.1-.3 0-.4 0 0-.2-.1-.2-.2s.4-.3.4-.4Zm-1.6.3v.1-.6c0-.1-.1-.1-.1-.1-.1 0 0 .1 0 .2v.3Zm5.3 3.8c0-.1-.1-.1-.2-.1H23s0 .1.1.2 0 0-.2 0h-.1v-.2h-.1s0 .1.1.2v.3s.2.1.3.2h.2v-.2h.2c.1 0 0-.1 0-.3Zm0-.8h.3s.2 0 0-.2c-.1-.1-.1 0-.3 0H23v.1s.2 0 0 .1c-.1 0-1.1.7-1.7.8h.4c.3 0 .4 0 .7-.2s.8-.4.9-.5v-.1Zm5.1.6v.7c-.1 0-.3 0-.3.1 0 0 .1.1.2.1 0 0 .1 0 0 0 0 0-.5.5-.6.5h.2c.2 0 .4 0 .5-.2.1-.1.1-.2.2-.2h.1s.3.4.5.6c.2.1.3 0 .6 0 .1 0 0 0-.2-.1-.2 0-.5-.2-.6-.4l-.3-.3s.2-.3.3-.3c0 0 .1-.2 0-.2h-.3s0-.2-.2-.3h-.3Zm3.7.2s-.1-.1-.2-.1v-.1s.1-.1 0-.2c-.1 0-.2-.1-.3 0-.1.2-.4.3-.3.3h.3v.2s.2 0 .2.1c0 0-.4.3-.4.4.1 0 .3 0 .4-.2h.2v.5l-.5.2h.4s.3 0 .3-.3v-.7h.2v-.2h-.2Zm.4-.9s0-.2-.3 0c-.3.1-.5.4-.6.5-.2.1.3-.3.4-.5.1-.1 0-.2 0-.3H32l-.2.2.2.2s.1 0 .1-.1v-.2h.1s-.6 1-.7 1h-.1v.1s-.1.3 0 .3 0-.2.1-.3.1-.2.4-.5.6-.5.6-.4c0 0-.2.2 0 .2 0 0 .2 0 .3-.1.1 0 .3-.1.2-.2Zm-1.4.5s.2.1.2 0v-.3h-.3.2Zm-4.8 1v.1c0 .1-.1.5-.2.5h-.1v-.1h.2c.1 0 0-.2 0-.2V36h.4Zm.3.1c-.2-.2-.3-.3-.7-.2v-.2s.1 0 0-.2-.2-.3-.2-.3v.6s-.2 0-.3.2h.2v.2h-.2v.2s0 .1-.1 0c0-.2-.2-.4-.2-.4s0 .2.1.3c0 .1 0 .3.1.3h.4s0 .3.1.3.2 0 .3-.3c.1-.2.1-.4.2-.4 0 0 .3 0 .1-.2Zm-1.8.4c-.1.1 0 0-.2 0-.1 0 0 .3.2.2.1 0 .2-.5.2-.5s-.1 0-.2.2Zm.2-.4v-.1l-.2-.3c-.1 0 0 .4.1.4Zm.2-.4-.2-.3c-.1 0 0 .3.1.4ZM20.2 34l-.2-.1c-.1 0-.2-.2-.2-.2v.1s.2.2.4.3.1 0 .2 0V34Zm.5-.1s.1 0 0-.1v-.5h.2c.1 0 .2 0 .2-.1s0-.1-.3-.2c-.3 0-.5-.2-.4-.1v.2h.2s0 .1-.1.1v.1h-.3v.2h.3v-.2.2Zm-.2-1v.1s-.4.5-.5.5-.1.1-.1.2c0 0 .2 0 .2-.1l.5-.6Zm1.2.7v-.4s-.1-.2-.4-.3c-.3 0-.6-.2-.5 0h.6s.2 0 .2.2c0 0-.2.3-.4.5-.1.2-.6.9-.6.8 0 0 0-.3-.1-.3v.3c0 .1-.1.3 0 .4.1 0 .1 0 .5-.4.4-.5.7-.8.7-.8h.2Zm12.5.7c0 .1 0 .2-.2.2s-.2 0-.2-.2c0-.1 0-.2.2-.2s.2 0 .2.2m1.2-.9v.2-.4Zm-.2-.9h.3v.2c.1 0 .2.2.2.2v-.2h.2v.5s0 .2.1.2h.2c0-.1 0-.2.1-.2h.2v.2s-.1 0-.2.1H36s-.2-.1-.2-.2v-.2.4s0 .1.1.2h-.1v.2s-.1 0-.2-.1 0-.1 0-.3h-.2v-.1s0-.1.1-.2c0 0-.2-.1-.2-.2h.2s.1 0 .2.1c0 0 .1.2.2.3V33s-.1-.2-.2-.3l-.1-.1h-.1Zm2.2-.7v.2h.2v-.1Zm-.2-.6v.2h.2v-.2Zm-.8-.2h.3v.2l-.1.1s-.1.2-.2.3c0 0 0-.2.1-.3h-.1Zm.4 0v-.1.3c0-.1.2-.2.3-.1v.4s.1-.2.2-.2h.1c.1 0 .2 0 .3.2h-.2s.1-.1 0-.2c0 0-.1 0-.3.2l.1.1s.1.1.1.2h-.3v.2H37v-.2c0-.2.1-.3.2-.3H37v.2s-.2 0-.2-.1v-.5c0 .1-.1.3-.1.4s0 .2-.2.3h-.1s.2-.2.3-.4v-.1c0-.1 0-.2.1-.2zm14.3-12c0 .3-.6.7-.7.7s0-.4 0-.4c0-.2.2-.4.4-.4s.5-.2.4.2Zm2.5.3c-.3-.7-1.1-1.6-1.8-1.5s-1.5.6-1.5.5c0-.2 0-2.5-.3-3.2-.4-.7-1.6-.2-1.5 0 0 0-.1.3.4.6s.3.7.3 1.2v1.8s-2.6 1.5-2.9 1.5.3.6.8.4 1.5-.8 1.8-.9c.2-.1.5-.3.5 0s.1 1 0 1.2c-.2.2-1.4.7-1.1 1.2.3.6 1 1 1.2 1s-.2 4.6-.1 5.8c0 1.2.4 1.4.7.7.3-.8.3-2.2.3-3.3s0-3.1.1-3.3c0-.2.7-1.4 1.1-1.9s.4-.8 1.2-.9 1.2-.1.9-.8Zm-8.7 1.4c-.6-.2-.9 0-.9 0-.6.5.2.9.8.9s1.1.7 1.5 1.2.8.6.9.1c0-.5-1.7-2-2.2-2.2Zm14.3 4.4c-.2.1-.4.2-1.3.2-.8 0-1.7.1-1.7.1-.8 0-.2.6.4.6s1.4 0 2.6-.1c1.2 0 1-.1.8-.4s-.7-.6-.8-.4m2-2c.5 0 .5-.4-.2-.9s-.9-1.1-1.2-1.1-.2-.9-.2-1.1.3-.2 1-.4c.7-.1 1.1-.7.4-1.2s-.5-.4-2 .5c-1.4.8-2.8.9-2.4 1 0 0 .4.8.8.5.4-.2 1.1-.7 1.2-.5 0 .2.2.9 0 1.1-.1.2-.4.2-.5.2s-.4.1-.2.3c.1.2.2.5.4.7.1.2 0 .3-.3.7-.4.3-1 .7-.7 1.3s.7.9 1.2.6.5-.5 1.1-.4c.6 0 .7-.5.5-.7s-.1-.9-.1-1 .2-.4.4 0c.2.3.4.5.9.4Zm-5-3.5c0-.4-.5-.1-.5-.1-.1 0 0 .2 0 .8s0 3.5-.3 4.3-.1 1 .2 1.3.6-.8.6-1.4.1-4.5 0-4.8Zm8-1.7c-.2-.6-1.1-1.3-1.5-1.5s-1.3-.6-2.9.3c-1.5.9-3.2 1.5-2.6 1.8 0 0 .6.2 1-.1s1.9-1.2 2.3-1.5c.5-.2 1.2-.2 1.3.2.2.4.2 2.2.2 3.4s.7 6.4.2 6.1-1.7-1.2-1.5-.8c.1.5.5.9.8 1.5.3.7.6 2 1.3 1.6s.7-.1.7-3.6c0-3.4-.2-6.1 0-6.4.2-.2 1-.5.7-1.1Zm10.7 4.4c-.6-.6-1.1-.4-1.6 0s-1.1.4-1.5.7.8.6 1.1.8-.2.7-.7.9-.5.5-.7.4-.7-.8-1.1-1.1-.9-.1-.9-.1c-.5 0 .7.4 1.3.9s.7 1.1 1.1 1.6c.3.5 1.3.2 2.5.2s1.1-.4 1-.5-.5-.9-.6-1.4c0-.5 0-.5.9-.8.8-.3-.1-.9-.7-1.5Zm-2.2-4.4c.6-.4 1.3-.7 2-.7s1-.5-.1-1-.7-.1-1.7.4-3.1.9-3.1 1c0 0 0 .2.3.4s.2.6.7.6 1-.1.5.5-4.5 6.9-7.4 9.1c-.3.5.4.3 2-1s1.8-1.4 3.1-3.2c1.4-1.8 3.3-4.6 3.5-5.2.1-.6-.5-.5.1-.9Zm20.7-2.1s.1.2.3.5c.2.2.3 1.6.2 2.4 0 .8.2 1.3-.6 1.6s-1.9.2-1.6.7 1.1.9 1.3.9.6.2.1.6c-.5.3-3.2 2.7-3.6 2.7s.1.3 1.4.2 2.2-.1 3-.8.8-1.3 1.1-1.4c.2-.2.2-.2.7.3s1.9 2.7 2.9 3.6 1.8.6 3.6.3c.8-.3 0-.4-1.1-.9-1-.5-2.1-1-3.6-2.7-1.6-1.7-1.9-1.9-1.6-2.2s1.2-1.6 1.8-1.6.7-1 .1-1.4c-.6-.5-1.4-.3-1.7-.5s-.4-1.4-.9-1.9c-.5-.6-2.3-.7-1.9-.3Zm16.4 6.4c-.3-.2-.5-.9-.7-1.3s.3-.6.6-.7.9-.4.4-1c-.4-.6-.7-1-1.8-.5s-2.7.8-2.5 1.1c0 0 .3.6.9.5s1-.2.8 0c-.2.3-.2.6.1 1.1.4.5.9.8.6.9s-2.7.7-3.3 1.1c-.5.4-.4.4.3.5s1.7 0 2.4 0c.7-.2 1.2-.1 1.1.6s-.8 2.4-1.3 2.5c-.6 0-3-.2-3 .1s1.6.8 1.9 1.2c.4.4 1.6.9 2.6-.7s1.2-2.3 1.1-4c.2 0 .7-.2 1.1-.1s.7-.6.1-1.1c-.6-.6-1.1-.2-1.4-.4Zm4.2-3.9c0-.5 0-1.1-1.8-1-1.8 0-3.5.9-4.6 1.1-1.2.2 2.2-1.3 3.3-1.6 1-.2 1-1.1.4-1.5-.6-.5-1.2-.4-1.4-.4s-1.3.6-1.8.6-.6 0-.6.1c0 0 .2 1 .6 1.3s.6.2.9-.4c.3-.5.4-1.2.9-1.2s.9.2.6.6-5.8 4.3-6.1 3.9c-.2-.4-.4-.6-.7-.6s-.2.2-.5.6-1.2 1.1-.5 1.8c.7.6.6-.9 1.5-1.2s1.2-.6 3.3-1.6 4.5-1.3 4.4-1 0 .2-.7.3c-.6 0-1.3.7-.9.7s1.1-.2 2 0c.9.1 1.9 0 1.8-.5Zm-8.7-.9c.4.5.6 1.1 1.1.8.5-.2.4-1.5.2-1.7s0 .4-.3.3c-.2 0-1.8-1.1-1.7-.4 0 0 .4.4.7.9Zm-18.2 3.2c-.3.2-.3.2-.3.9s-.4 2.8-.7 3.1c-.2.4-.3 0-.4-.3 0-.2-.6-.2-.8 0-.2.1-.2-.3-.2-.7s.3-.3 1-.5-.4-1-.6-1.1-.1-1.4-.1-1.4c1.1-.5 1.6-.4 2.1-.4s.3.3 0 .5Zm1.9.1c-1.5-1-1.9-1.3-4.2-.7 0-.2-.2-1.3 0-1.3.3 0 .8-.1.2-1.1s-1.6-1.7-1.7-1.3c0 .4.1.4.2 1.3 0 .9.2 2.3 0 2.6s-1.3.7-1.8 1.3c0 0 .1.3.5.1s1.1-.7 1.3-.8.2-.4.2.2 0 1.5-.2 1.5-1.3-.4-1.1.2c.2.5.4.9.6.9s.2.2.2.3-.3.3-.5.4c-.2 0 0 .7-.7-.3s-1.3-2-1.6-2-.2.1.2.5.7 1 .9 1.7c.3.6.2 1.8 1 1.5.8-.2.9-.3 1.5-.3s.7-.3.8-.2.5 1.6 1.1 1.6.9-.6 1.5-2.1.4-2.4 1-2.5 1.9-.5.4-1.5Zm-10.1 4.2c-.5.7-.4.3-1 .5-.7.1.6 1.4 1.1 1.3.6-.1.9-3.1.9-3.1 0-.5-.6.6-1.1 1.3Zm-.3-4.4c-.7 0 .5 2.2 1 2.2s.5-.4.5-.7-1.5-1.5-1.5-1.5m2.3-.8c0-.4-1.5-1.6-1.5-1.6-.6 0 .6 1.9 1 2.1s.5-.1.5-.5M47.5 32.6c0 .3-.2.5-.3.6-.2.1-.4.2-.6.2-.4 0-.6-.1-.8-.4-.2-.2-.2-.5-.2-.9s0-.7.3-.9c.2-.2.5-.3.7-.3s.4 0 .5.2c.2.1.3.3.3.5h-.3s-.1-.2-.2-.3c0 0-.2-.1-.4-.1s-.4 0-.5.3c-.1.2-.2.4-.2.7s0 .6.2.8c.1.2.3.2.5.2s.3 0 .4-.2c.1-.1.2-.3.2-.5h.3Zm2.1.8h-.3v-1.1h-1.1v1.1h-.3V31h.3v1h1.1v-1h.3zm.5 0h.3V31h-.3zm2.6 0h-.3l-1.1-1.9v1.9H51V31h.3l1.1 1.9V31h.3zm1.7-1-.3-.9v-.3c0 .2 0 .3-.1.5l-.2.7h.7Zm.6 1h-.3l-.3-.7h-.9l-.2.7H53l.8-2.4h.3zm3-1v.6q0 .15-.3.3c-.1 0-.3.1-.5.1h-.5q-.15 0-.3-.3c0-.1 0-.2-.1-.3V31h.3v1.8c0 .1 0 .2.1.3 0 0 .2.1.4.1h.4s.1-.2.2-.3v-1.8h.3v1.4Zm2.4 1h-.3L59 31.5v1.9h-.3V31h.3l1.1 1.9V31h.3zm.8 0h.3V31h-.3zm2.7-2.4-.8 2.4h-.3L62 31h.3l.6 1.8c0 .1 0 .2.1.4 0-.1 0-.3.1-.4l.6-1.8h.3Zm1.9 2.4h-1.6V31h1.6v.3h-1.3v.7h1.2v.3h-1.2v.8h1.3zm.5-1.4h.9s.1 0 .2-.1v-.2c0-.1 0-.2-.1-.3 0 0-.2-.1-.4-.1h-.7v.8Zm1.6 1.4h-.4c-.1-.2-.3-.5-.4-.7 0 0-.1-.2-.2-.2l-.2-.1h-.5v1.1h-.3v-2.4h1.3s.2 0 .2.1l.2.2v.3c0 .2 0 .3-.2.4-.1.1-.3.2-.4.2.1 0 .3.2.4.4l.4.7Zm1.4-1.7c0-.2 0-.3-.1-.3 0 0-.2-.1-.4-.1h-.4s-.1.2-.1.3 0 .2.1.2l.4.2c.2 0 .3 0 .4.1.1 0 .2.1.3.2 0 0 .1.2.1.4s0 .4-.2.5c-.1.1-.3.2-.6.2s-.5 0-.7-.2-.2-.4-.2-.6h.3c0 .2 0 .3.2.4.1 0 .3.1.4.1s.3 0 .4-.1c0 0 .2-.2.1-.3 0-.1 0-.2-.2-.3-.1 0-.3-.1-.5-.2-.2 0-.4-.1-.5-.2s-.2-.3-.2-.4c0-.2 0-.4.2-.5s.3-.2.6-.2.4 0 .6.2c.1.1.2.3.2.5h-.3Zm.6 1.7h.3V31h-.3zm2.3-2.1h-.7v2.1h-.3v-2.1h-.7V31h1.7zm2.1-.3-.9 1.4v1h-.3v-1l-.8-1.4h.3l.5.8s.1.2.2.3c0 0 .3-.5.7-1.1zm2.1 2.2c.2 0 .4 0 .5-.3.1-.2.2-.4.2-.7s0-.6-.2-.7c-.1-.2-.3-.3-.5-.3s-.4 0-.5.2-.2.4-.2.8 0 .5.2.7c.1.2.3.3.5.3m0-2.3c.3 0 .6.1.7.3q.3.3.3.9c0 .6 0 .7-.3.9-.2.2-.5.3-.7.3-.3 0-.6-.1-.8-.4-.2-.2-.3-.6-.3-.9 0-.4 0-.7.3-.9.2-.2.5-.3.7-.3Zm2.9.4h-1.2v.8h1v.3h-1v1.1h-.3v-2.4h1.5v.3Zm1.5.8h.6c.3 0 .5-.1.5-.4v-.3s0-.1-.2-.1h-.8v.9Zm-.3-1.1h1.1c.2 0 .4.2.4.4v.3c0 .2 0 .4-.2.5-.1.1-.3.2-.6.2h-.6v1h-.3V31Zm3.6 2.4h-1.6V31h1.6v.3h-1.3v.7H84v.3h-1.2v.8h1.3zm1.8-2.1h-.7v2.1h-.3v-2.1h-.7V31h1.7zm.5.7h.9s.1 0 .2-.1v-.2c0-.1 0-.2-.1-.3 0 0-.2-.1-.4-.1h-.7v.8Zm1.6 1.4h-.4c-.1-.2-.3-.5-.4-.7 0 0-.1-.2-.2-.2l-.2-.1h-.5v1.1H86v-2.4h1.3s.2 0 .2.1l.2.2v.3c0 .2 0 .3-.2.4-.1.1-.3.2-.4.2.1 0 .3.2.4.4l.4.7Zm1.2-.2c.2 0 .4 0 .5-.3.1-.2.2-.4.2-.7s0-.6-.2-.7c-.1-.2-.3-.3-.5-.3s-.4 0-.5.2-.2.4-.2.8 0 .5.2.7c.1.2.3.3.5.3m0-2.3c.3 0 .6.1.7.3q.3.3.3.9c0 .6 0 .7-.3.9-.2.2-.5.3-.7.3-.3 0-.6-.1-.8-.4-.2-.2-.3-.6-.3-.9 0-.4 0-.7.3-.9.2-.2.5-.3.7-.3Zm2.8 2.5h-1.3V31h.3v2.1h1.1v.3Zm2.2 0h-1.6V31h1.6v.3h-1.3v.7h1.2v.3h-1.2v.8h1.3zm1.8-1v.6q0 .15-.3.3c-.1 0-.3.1-.5.1h-.5q-.15 0-.3-.3c0-.1 0-.2-.1-.3V31h.3v1.8c0 .1 0 .2.1.3 0 0 .2.1.4.1h.4s.1-.2.2-.3v-1.8h.3v1.4Zm2.7 1h-.3v-2l-.6 2h-.3l-.6-2.1v2.1h-.3V31h.4l.5 1.7v.4s0-.2.1-.4l.5-1.7h.4v2.4Zm1.8-.3h.5c.2 0 .3 0 .4-.1 0 0 .1-.2.1-.3s0-.2-.1-.3c0 0-.2-.1-.4-.1h-.5zm0-1.1h.9v-.5h-.9v.7Zm1 .1c.1 0 .2.1.3.2 0 .1.1.2.1.4v.4c0 .1-.1.2-.3.2h-1.3v-2.4h.8c.3 0 .4 0 .6.2.1.1.2.3.2.4 0 .2-.1.4-.3.5Zm2.4 1.3h-1.6V31h1.6v.3h-1.3v.7h1.2v.3h-1.2v.8h1.3zm.2 0h.3V31h-.3zm1.7-.8c0 .3 0 .5-.2.6-.1.1-.3.2-.4.2-.2 0-.3 0-.4-.2 0-.1-.1-.3-.1-.5h.3v.3s.1.1.2.1h.2v-2.2h.3v1.6Zm.6.8h.3V31h-.3zm2.6 0h-.3l-1.1-1.9v1.9h-.3V31h.3l1.1 1.9V31h.3zm2.6-.4c-.3.3-.6.4-.9.4s-.6-.1-.8-.3q-.3-.3-.3-.9c0-.6 0-.4.1-.6 0-.2.2-.3.4-.5.2-.1.4-.2.6-.2s.4 0 .6.2c.1.1.2.3.3.5h-.3s-.1-.2-.2-.3c-.1 0-.3-.1-.4-.1-.3 0-.5 0-.6.3-.1.2-.2.4-.2.7v.5c0 .1.2.2.3.3.1 0 .3.1.4.1.2 0 .5 0 .6-.2v-.4h-.6v-.3h.9v.9Z"/></g></svg>