<svg width="128" height="137" fill="none" xmlns="http://www.w3.org/2000/svg"><g filter="url(#a)" fill-rule="evenodd" clip-rule="evenodd" fill="#004098"><path d="M89.225 80.433v-.346l-.076-.345-.077-.346-.116-.346-.191-.345-.115-.115-.308-.23-.153-.078-.192-.038h-.346l-.115.038-.23.154-.154.23-.115.308.077.23.153.23.384.423.307.384.115.23.039.23.192.077v.23l.077.193-.154.076h-.345l-.346-.115h-.23l-.307.307-.23.423.46.499.115.115.307.153.192.039.23.077.193-.039.153-.038.077-.115.192-.27.115-.153.153-.115.23-.077.116-.038.116-.115-.346-.806zm-2.61 2.572-.116.269.576.806.23.23.231.192.346.192.345.116.46.038.116-.115.115-.192.116-.422-.462-.346-.537-.346-.614-.268-.615-.23-.076.115zm3.263 1.42.154.577.038.307v.307l.192.038.115-.115.077-.115.077-.192v-.576l-.039-.269-.076-.998.038-.499.077-.576.115-.537.154-.538.23-.538.269-.537.191-.038.23.038.04.154.077.153.153.307.153.307.039.192v.154l.038.077.116.038.115-.499.076-.5v-.23l-.076-.46-.115-.192-.078-.077-.115-.115-.306-.115-.308-.077h-.154l-.115.038-.115.077-.154.077-.191.192-.193.307-.153.307-.307.73-.269 1.343.039.27v.268l-.039.5-.038.537v.268zm.039 1.537-.115.23.037.614.423.384.23.307.23.269.23.154.232.115h.23l.115-.039.077-.115.077-.115.076-.154.078-.23.037-.269-.46-.268-.5-.308-.46-.269-.422-.306zm5.989-1.268-.23-.268-.27-.23-.268-.27-.077-.115-.076-.153.114-.307.27-.538.384-.806-.116-.384-.383-.192-.116.038-.115.039-.192.192-.192.23-.154.307-.307.653-.23.537-.269.039-.23-.038-.154-.077-.115-.077-.115-.154-.077-.153-.153-.346-.115-.153-.116-.116-.077-.115-.038-.192-.153-.038h-.154l-.154.038-.115.077-.23.307-.077.23-.077.231-.038.23-.038.23v.154l.037.154.23.077h.154l.154-.116.115-.153h.115l.193.192.345.576.154.038.153.038h.192l.154-.038h.115l.115.038.115.192-.23.653-.115.614-.077.615-.077.614.039.154v.345l-.039.192.192.115.115-.115.231-.076.345-1.383.384-1.574.038-.038.27.115.268.192.307.192.346.23v.346l.115.384.077.384.115.384-.23.153-.269.077-.038.115.537.154.115-.154.154.077.115-.192.077-.154.038-.192.038-.153v-.384l-.076-.346-.154-.345-.153-.308-.192-.268-.154-.23ZM37.124 87.92l.077.115-.115.192-.077.192-.077.23-.038.23-.077.576v.576l.077 1.152.038.883-.46.384-.538-.691-.23-.346-.154-.345v-.307l.077-.5.153-.614.192-.69.422-1.306.308-.845v-.038h-.384l-.384.038-1.46.154-.345.038-.384-.038-.153-.039-.116-.038-.537-.307-.269-.115-.269-.077-.23-.115-.115-.077-.077-.115-.115-.115-.077-.193h.077l.154.039.307.115.384.154.23.076.422.077h.883l.5-.077.921-.153.883-.23.307-.077.269-.154.23-.192.077-.115.038-.115-.307-.154-.23-.192-.269-.23-.23-.307.077-.423.038-.422.5.038.268.039.192.077.23.115.23.153.5.384.269.192.268.154.23.077.193.038.384-.077.384-.192.383-.23.384-.307.423-.269.384-.269.384-.192.192-.077.192-.038.576.269.038.576-.614.46-.653.384-.653.308-.307.192-.23.191v.077l.652.653.23.384.078.192-.039.154-.038.192-.23.153h-.154l-.154-.038-.192-.077-.422-.192-.422-.269-.423-.23-.537-.384-.23.115-.27.077-.652.154-.307.076-.27.115-.153.116-.038.076v.077l.192.154.153.23v.154l-.153.384zm11.058 8.83-.269-.038h-.23l-.461-.038-.46-.077-.231-.077-.269-.115.077-.115.038-.077.307.038h.308l.268-.038.23-.077.538-.154h.538l.307-.652.154-.346.115-.345-.039-.039-.307.077-.384.115h-.192l-.23-.038-.192-.039-.192-.153-.115-.038-.154-.23v-.308l.038-.154.154-.307.23-.307.807-.806.23-.269.154-.23v-.039l-.384-.076-.269-.077-.115-.077-.077-.077-.038-.153v-.192l.076-.192.039-.077.077-.077.192-.115.23-.077.269-.038h.23l.538-.039.499-.038.153-.077.154-.115.23-.384.422-.845.384.077.154.077.192.115-.038.23v.384l.038.116.077.115.077.077.384.23.23.153.077.077.077.115.153.308-.269.268-.23.116-.23.076h-.192l-.461-.038-.269-.038-.346.038-.307.115-.307.154-.307.23-.269.269-.537.614-.46.538v.077l.268.038h.269l.192-.038.191-.116.193-.153.115-.192.23-.538.23.038.307.116-.038.192v.153l.038.116.077.115.115.153.154.27-.154.191-.46.23-.23.039-.077.153-.115.154-.23.345-.231.384-.077.192v.192l.038.154.192.038.192.077.116.077.076.153-.076.384-.27.077-.268.039-.23.076-.192.039-.116.192-.076.23-.116.46-.153.5-.115.23-.115.192-.116.115-.076.039-.077.077.038.076 2.726 1.306.077.077.038.115v.115l-.038.154-.384.23-.23-.038-.27-.039-.69-.077-.346-.076-.307-.077-.307-.115-.23-.154-1.959-1.843-.69-.614-.27-.154-.307-.153-.307-.077-.345-.077-.653-.115-.307-.077-.269-.115v-.192l.115-.077.115-.038.23-.039.27-.038.076-.038.116-.077v-.96l.076-.307.116-.23.153-.231.192-.23.23-.27.27-.383.076-.115.038-.154v-.307l-.038-.269.038-.153.077-.115.115-.077h.27l.153.077.307.115.23.192.039.268-.039.154-.038.23-.269.154-.23.154-.269.153-.23.154-.23.192-.193.23-.153.346-.077.422.269.768.192.46.153.27.154.114.269.193.806.46.768.46.383.154-.038-.038v-.192l.038-.23.308-.845.192-.46Zm14.513 4.262-.038-.153-.039-.231v-.499l.307-.153.346-.192.192-.039.153-.077h.192l.192.039v-.154l.115-.038v-.538l-.345-.077h-.192l-.077.039-.038.038h-.614l.076-1.075.23-.307.27-.269.307-.268.268-.27.308-.421.307-.5.268-.46.193-.461.076-.23.077-.461-.077-.46-.038-.193-.077-.192-.23-.307-.154-.115-.154-.115-.191-.077-.193-.039h-.422l-.46.154-.23.115-.385.307-.422.27-.384.268v.23h-.077l-.077.077-.153.154-.039.192v.192l.077.038.115.038.346-.153.307-.192.576-.422.346-.193.345-.153.422-.115h.538l.192.23.038.192v.192l-.077.422-.115.423-.192.422-.23.384-.23.346-.27.268-.23.192-.153-.115.077-.269.192-.307.076-.154.116-.115.115-.076.153-.039v-.614l-.192-.115-.076-.077-.039-.115h-.23v-.192l-.46-.192h-.078l-.038.192-.038.153-.116.27-.153.23-.154.153-.153.192-.116.154-.076.191v.23l.076.116.346.23.115.077.039.115v.116l-.116.153v.039l-.038.115-.154.153-.153.077h-.269l-.038.077-.077.077h-.115l-.077-1.613-.346-.153h-.192l-.153.153-.116.192-.153.307-.115.307-.077.346-.038.307v.307l.038.154.077.115.038.077.154.038v.154l.345.153.154-.038.115-.038.077-.116.077-.076.384.115h.499l.038.307-.038.307-.077.269-.115.269-.154.192-.384.307-.23.038v.192l.077.231.077.076.191.154.192.192-.153.691-.384.077-.384.115-.307.153-.154.039-.192.038v.154l.039.115.115.115.077.115.115.192 1.267-.268.653-.077h.345l.346.038.307.039.268.115.308.038h.307l.115-.038.115-.077.154-.154.154-.192.076-.076.115-.039-.038-.192-.038-.115-.23-.23-.116-.077-.154-.038-.383-.039zm-2.15-2.419h-.039l-.192.154-.153.192-.269.384-.269.46-.192.423-.23.461-.269.422-.307.384-.192.153-.192.154.039-.461.153-.844.154-.346.268-.73.23-.69v-.27l-.038-.23-.076-.23v-.23l.422-1.536.154-.192.153-.23.269-.346.154-.192.115-.192.076-.23v-.269l-.191-.192h-.308l-.268.115-1.229.46-.269.116-.23.192-.192.192v.384l.192.23.192.039h.192l.537-.154.346-.038-.384 1.65-.154.078h-.153l-.346.076-.346.039-.307.153-.076.115-.077.154-.077.23-.077.27-.038.268v.23l.077.23.038.077.077.039.115.077h.115l.23.038.5-.115.307-.346.038.077v.384l-.077.346-.191.691-.116.345-.077.384-.076.845.192.153.192-.038.153-.115.346-.346.307-.499.346-.576.576-1.19.422-.883zm-2.726.5-.154.038-.077-.192v-.154l.039-.153.115-.116.46-.383.154.038.115.038-.115.27-.153.23-.192.23zm14.436-3.917.346-.077.307-.076h.269l.268.038.192.115.154.192.153.23.115.346-.153.5-.23.537-.116.23-.153.23-.192.192-.192.154.038.077.077.038.269-.038.23-.077.46-.192.692-.192.538-.115h.46l.5.038.038.192v.346l-.039.153-.307.615-.422.038-.922.23-.422.154-.883.346-.73.345-.383.23-.192.077-.192.039-.423.269-.422.307-.384.23-.23.077-.27.038-.268-.269-.115-.192-.077-.268.384-.538.422-.499.23-.154.231-.115.269-.077.269-.115.268-.153.23-.154.308-.307.192-.384.192-.46.192-.346.038-.23v-.23l-.076-.078-.192.115-.154.116-.307.307-.192.153-.192.077-.269.038h-.269l-.192-.153-.038-.115-.077-.154.077-.269.115-.23.154-.192.192-.192.422-.346.192-.192zm11.442-5.606.192.231.038.154-.038.115v.192l-.154.307-.077.115-.269.192-.23.23-.269.23-.076.116-.116.153-.076.384.038.23.038.308.116.46.076.154.346-.115h.307l.269.077.23.077.5.268.23.077.307.077h.998l.96-.038.96-.077 1.037-.038.076.191-.192.116-.153.153-.077.154-.115.153-.116.308-.076.115-.115.153-.346.23-.346.154-.345.077h-.346l-.345-.038-.346-.116-.345-.153-.384-.192-.653-.384-.653-.422-.614-.384-.307-.154-.269-.077-.153.115.115.461.076.422-.076.768-.23.691-.231.73-.077.307-.077.192-.115.154-.115.192-.154.115-.191.115h-.385l-.153-.077.077-.038.384-.999.307-.92.077-.462.038-.499v-.537l-.077-.615.115-.076-.345-.538-.269.269-.269.192-.307.192-.307.115-.269-.192-.115-.115-.077-.192.73-.845.384-.46.345-.461-.153-.27-.077-.306-.154-.538-.115-.576-.192-.576-.077-.192-.115-.192-.269-.345-.268-.307-.077-.154-.038-.115v-.269l.46-.23.154.077.384.153.153.115.23.308.154.307.154.384.077.422.115.768.115.653.154.076v-.076l.345-.154.346-.269.384-.268z"/><path d="m64 20-2.265.076-2.227.154-1.114.153-1.075.154-1.113.154-2.15.46-2.073.538-1.075.307-.999.346-1.036.345-.999.384-.998.423-.96.422-.998.422-.921.5-.96.498-.922.5-.921.537-1.766 1.152-.883.614-.845.614-1.69 1.306-.806.69-.768.692-1.535 1.459-1.46 1.536-.69.768-.692.806-1.305 1.69-.614.844-.615.884-1.151 1.765-.538.922-.5.921-.997 1.92-.423.96-.46.96-.768 1.996-.691 2.074-.615 2.073-.23 1.075-.23 1.037-.231 1.075-.153 1.113-.154 1.075-.154 1.114-.153 2.226-.039 1.152L20 64l.038 1.152.039 1.113.153 2.227.308 2.227.153 1.075.691 3.225.615 2.073.345 1.037.346.998.768 1.997.46.998.422.96.5.96.499.921.499.96.538.883.575.922.576.883.615.883.614.845.653.844.652.806 1.383 1.613 1.459 1.536.767.73.768.69.768.73.806.653.845.69.845.615.845.653.883.576.883.614.883.537 1.843 1.075.96.5.921.46.998.461.96.423.998.422.999.384 1.036.345.999.346 1.075.307 2.073.538 1.075.23 1.075.192 1.113.192 1.075.153 2.227.231 1.114.077 1.152.038h2.265l1.114-.038 1.113-.077 2.227-.231 1.113-.153 2.15-.384 1.075-.23 1.075-.269 1.037-.269 1.037-.307 1.036-.346.999-.345.998-.384 1.996-.845 1.92-.921.922-.5.96-.537.883-.538.921-.537.883-.614.883-.576.845-.653.845-.614.806-.691.806-.653.806-.73.768-.69 1.498-1.498.69-.768.73-.806.653-.806.691-.807.614-.844.653-.845.576-.883.614-.883.538-.922.538-.883.537-.96.499-.921.921-1.92.845-1.996.346-.999.384-.998.345-1.037.308-1.036.268-1.037.269-1.075.231-1.075.383-2.15.154-1.114.23-2.227.077-1.113.038-1.113v-2.266l-.038-1.152-.077-1.113-.23-2.227-.154-1.075-.192-1.113-.191-1.075-.231-1.037-.269-1.075-.268-1.037-.308-1.036-.345-1.037-.384-1.037-.346-.998-.422-.998-.423-.96-.921-1.92-.499-.96-1.075-1.843-.538-.883-.614-.883-.576-.883-.653-.845-.614-.844-.691-.845-.653-.806-.73-.768-.69-.768-1.498-1.497-.768-.73-1.612-1.382-.806-.653-.845-.652-.845-.615-.883-.614-.883-.576-.921-.576-.883-.538-.96-.499-.922-.499-.96-.499-.96-.422-1.996-.845-.998-.384-.999-.345-1.036-.346-1.037-.307-1.037-.269-1.075-.269-2.15-.46-1.075-.154-2.226-.307-2.227-.154-1.114-.038zm1.075 85.696h-2.15l-1.075-.038-1.037-.077-1.075-.115-2.073-.23-2.073-.384-1.997-.461-.998-.269-.998-.307-.96-.307-1.92-.691-.921-.384-.96-.423-.922-.422-1.766-.921-1.766-.999-1.69-1.075-.806-.576-1.612-1.228-.768-.615-1.536-1.305-1.459-1.382-.691-.73-.653-.73-.69-.729-.653-.767-.615-.768-.614-.807-.576-.806-.576-.845-.537-.806-.538-.883-.537-.845-.461-.883-.5-.883-.422-.921-.46-.922-.384-.921-.384-.96-.384-.922-.308-.96-.345-.998-.269-.96-.537-1.996-.192-1.037-.23-.998-.308-2.073-.115-1.076-.077-1.036-.076-1.075-.077-2.15.077-2.15.076-1.037.077-1.075.115-1.037.307-2.073.23-1.037.193-.998.806-2.995.346-.96.307-.96.384-.96.384-.92.384-.96.46-.884.423-.921.499-.883.46-.883.538-.883 1.075-1.69 1.152-1.613.614-.805.615-.768.652-.768.691-.768.653-.73 1.42-1.42.73-.653.768-.69.768-.616.768-.652.806-.614 1.613-1.152 1.69-1.076.882-.537.883-.46.883-.5.883-.422.922-.46.96-.385.921-.384.96-.384.96-.306.96-.347 2.994-.806.999-.192 2.073-.384 1.037-.154 1.036-.115 1.075-.076 1.037-.077 1.075-.038h2.15l1.075.038 1.075.077 1.037.076 1.037.115 1.075.154.998.193 1.037.191.998.192 1.036.27.96.268.999.268.96.346.998.307.921.384.96.384.921.384.922.461.883.422.922.5.883.46 2.534 1.613.845.575.806.577.806.614.768.652.768.615.73.69.729.654 1.42 1.42.692.73 1.305 1.536.614.768 1.228 1.612.577.806 1.075 1.69.998 1.766.461.883.46.921.423.883.422.96.384.922.691 1.92.308.96.306.998.269.998.461 1.996.192 1.037.307 2.073.116 1.037.115 1.075.076 1.037.039 1.075v2.15l-.039 1.075-.076 1.075-.115 1.037-.116 1.075-.307 2.073-.192.998-.231 1.037-.23.998-.269.998-.306.96-.308.999-.345.96-.346.92-.384.96-.845 1.844-.46.921-.461.883-.499.883-.499.845-.538.883-.537.806-.577.845-1.228 1.613-.614.767-.653.768-.652.73-1.383 1.459-1.459 1.382-.73.653-.767.652-.768.615-1.612 1.228-.845.576-1.69 1.075-.844.5-.883.499-.922.46-.883.461-1.843.845-.96.384-.921.345-.998.346-.96.307-.999.307-.96.269-1.036.23-.998.231-1.037.192-.998.192-1.075.115-2.074.23-1.075.077z"/><path d="M85.04 62.771h5.376l-.077-1.229-.115-1.19-.192-1.19-.538-2.304-.345-1.152-.384-1.075-.461-1.113-.998-2.073-.576-.998-.614-.96-.653-.96-.691-.922-.73-.883-.768-.844-.806-.845-.844-.768-1.767-1.459-1.92-1.305-.998-.576-.998-.538-1.075-.5-1.075-.46-1.075-.422-1.114-.346-1.151-.307-1.152-.269-2.38-.384v-1.113l-.116-.038-.422-.115-.384-.077-.5-.039-.652-.038-.806-.039-.845.038-.653.04-.537.038-.384.038-.423.115-.115.039v1.19l-1.19.154-1.19.191-1.152.27-1.152.306-1.113.385-1.075.383-1.075.46-1.037.5-1.037.538-.998.614-.96.614-.921.653-.922.73-.883.729-.845.806-.767.807-.768.844-.768.883-.691.922-.653.96-.614.96-.538.998-.537 1.036-.5 1.075-.422 1.075-.384 1.075-.345 1.152-.307 1.152-.23 1.152-.193 1.19-.154 1.19-.076 1.229h5.375l.077-.96.115-.921.154-.922.46-1.766.269-.883.614-1.69.384-.806.423-.806.422-.768.5-.768.498-.73.538-.729.538-.652.614-.691.614-.615 1.305-1.228.691-.538.73-.537.73-.5.767-.46.768-.423.806-.422.807-.346.845-.345.883-.307.844-.269.883-.192.922-.192.921-.153v1.996l-.038.269-.154.23-.153.269-.23.23-.231.192-.269.192-.23.115-.192.077-.691.192-1.306.46-.652.27-.653.307-1.229.614-1.152.768-.537.384-.576.422-.5.423-.537.46-.46.5-.5.499-.422.499-.46.537-.384.576-.423.538-.345.614-.346.576-.346.614-.307.615-.268.652-.461 1.306-.23.69-.308 1.383-.115.691-.115.73-.038.729h4.76l.077-.614.23-1.229.154-.576.192-.576.23-.576.461-1.075.307-.537.615-.998.345-.5.384-.46.768-.845.461-.422.422-.384.461-.384.5-.346.46-.307.537-.307.5-.307.537-.23 1.152-.461.576-.192.576-.154.575-.115.615-.115.614-.077.653-.038h1.267l.614.038.615.077 1.228.23.576.154.576.192.576.23 1.075.46.538.308.998.614.46.346.922.768.845.844.384.423.345.46.691.999.308.499.537 1.075.23.537.384 1.152.154.576.153.614.154 1.229h4.8l-.154-1.459-.154-.69-.115-.692-.192-.691-.192-.653-.46-1.305-.308-.653-.269-.614-.345-.615-.691-1.151-.384-.576-.845-1.075-1.382-1.498-.5-.46-1.612-1.268-.576-.384-.576-.345-.614-.346-.614-.307-.615-.269-1.305-.537-1.305-.384-.23-.115-.27-.115-.268-.154-.308-.192-.23-.23-.192-.27-.153-.306-.039-.154v-2.111l.922.153.883.154.921.23.845.269.883.307.845.346.806.345.806.422.768.423.768.46.73.5.729.537.691.538.691.575.615.615 1.228 1.305.576.691.5.73.537.73.46.767.423.768.422.806.384.807.346.844.307.845.269.883.23.883.192.883.154.922.115.921zm-1.42 8.984-.269.615-.307.653-.614 1.228-.73 1.19-.768 1.114-.883 1.113-.921.998-.96.96-1.075.883-1.114.845-1.151.73-1.19.69-.653.308-.615.269-.652.268-.653.23-.691.231-.653.23-2.073.461-.73.115v-3.263l1.075-.23 1.076-.27.998-.345 1.036-.384.96-.46.922-.5.921-.576.845-.614.845-.653.767-.729.73-.73.73-.806.614-.844.614-.884.538-.92.499-.922h-5.53l-.46.575-.499.576-.538.538-.575.499-.576.46-.615.461-.614.384-.691.384-.653.307-.73.308-.729.268-.73.192-.767.154-.768.115-.806.077-.807.038-.806-.038-.768-.077-.806-.115-.768-.154-.73-.192-.729-.268-1.382-.615-1.306-.768-.614-.46-.576-.461-.576-.5-.499-.537-.5-.576-.46-.576h-5.567l.5.922.537.921.614.883.653.845.69.768.73.768.768.73.845.652.844.614.922.576.922.5.96.46.997.384 1.037.346 1.075.269 1.075.23v3.263l-.73-.115-1.381-.307-1.383-.384-1.305-.46-.653-.27-.614-.306-.653-.308-1.19-.652-1.152-.768-1.113-.806-1.037-.884-.998-.96-.921-1.036-.845-1.075-.806-1.114-.692-1.19-.652-1.228-.27-.653-.268-.615h-5.72l.345.999.384.998.384.96.46.96.461.921 1.075 1.766.576.883.614.845.653.806.653.768.73.768.729.73 1.536 1.382 1.69 1.228.844.576.883.538 1.843.998.96.423.998.383.96.384 1.036.308.999.307 1.075.23 1.036.192 1.075.154 1.114.115 1.075.077h2.227l1.113-.077 1.075-.115 1.075-.154 1.075-.192 1.037-.23 1.037-.307.998-.308.998-.383.96-.384.96-.423 1.843-.998.883-.537.883-.577.845-.614.806-.614.806-.691.73-.691.768-.73 1.382-1.536.614-.806.615-.845.614-.883.537-.883.5-.883.499-.921.844-1.92.692-1.996H83.62Zm-15.78-6.834-.999.077-.422.115-.768.307-.307.154-.537.384-.385.384-.268.345-.154.23-.038.078-.269-.384-.614-.615-.307-.23-.346-.192-.307-.192-.346-.115-.307-.115-.576-.154-.499-.077H37.585l.038 1.19.154 1.152.153 1.19.23 1.152h22.193l-.039-.038.384.038.384.077.461.115.5.192.498.27.5.345.23.23.268.23.192.27.23.306.193-.307.23-.307.346-.346.46-.345.27-.192.306-.154.346-.153.384-.115.422-.077.46-.077v.038h22.5l.192-1.151.192-1.19.115-1.153.077-1.19zm-34.018 6.643-6.373 1.228-.27-1.344-.076-.46.038-.346.039-.153.115-.192.115-.154.154-.192.192-.154.23-.153.538-.269.652-.23.807-.192.499-.116.499-.038h.46l.423.038.384.039.307.077.269.115.23.153.192.192.115.192.116.23.076.308zm-.845-.384-.153-.845-.077-.23-.077-.192-.23-.308-.154-.077-.192-.076-.192-.077h-.23l-.384-.038-.768.076-.921.154-.384.115-.346.154-.307.153-.23.154-.192.154-.116.153-.114.192v.115l-.039.154.039.384.191.844 4.876-.96Zm.153-3.494-6.603-1.152-.038-.576 6.412-1.996.038.614-1.958.576.115 1.65 1.997.346zm-2.764-.999-.076-1.343-1.766.537-1.344.346.614.038.653.115 1.92.308Zm2.573-3.455-6.489-.384v-.538l5.76.346.115-1.958.768.038zm-6.067-4.992 6.448.96-.074.5-6.448-.96.075-.5Zm6.528.116-5.951-3.072.153-.537 6.72-.039-.154.576h-2.035l-.384 1.613 1.804.883zm-2.304-1.766.307-1.306-1.843-.038-1.382-.077 1.152.538zm3.455-2.573-6.066-2.419.192-.499 5.567-.038-4.76-1.92.153-.46 6.066 2.418-.192.5-5.529.038 4.762 1.92zm-1.42-11.442.307-.46 3.148 2.073.692.5.537.46.192.23.154.23.115.27.038.23.039.23-.039.27-.076.23-.116.23-.23.269-.269.23-.153.077-.192.038-.346.038-.384-.076-.499-.154-.576-.307-.614-.384-3.149-2.073.27-.423 3.148 2.074.652.384.5.23.191.038.154.039h.192l.153-.039.116-.038.153-.077.115-.115.077-.115.115-.23.077-.23v-.231l-.077-.23-.153-.231-.269-.269-.384-.307-.46-.307zm6.489 2.189-4.915-4.3.346-.422 5.221 1.804-3.84-3.379.346-.384 4.877 4.3-.346.423-5.222-1.805 3.84 3.38zm-1.037-8.408 4.447 4.753-.377.353-4.447-4.754zm6.297 3.187-5.222-4.224.46-.346 3.725 3.11.806.73-.499-.96-2.035-4.415.461-.346 2.726 6.143zm2.342-1.69-3.264-5.644 2.496-1.46.384.654-2.035 1.19.998 1.728 1.881-1.114.423.692-1.92 1.075 1.114 1.92 2.111-1.191.384.653zm3.532-1.996-2.457-6.028 1.612-.653.27-.115.191-.039h.384l.154.039.46.345.154.193.154.191.23.46.115.347.077.307.038.307-.038.269-.077.268-.115.231-.154.192-.192.153.23.116.193.115.384.268.345.346 1.305 1.382-.614.23-.998-1.036-.5-.538-.345-.268-.23-.154-.192-.077h-.192l-.23.039-.576.23 1.113 2.687zm-.883-3.571 1.036-.423.308-.153.192-.154.076-.23.039-.23v-.308l-.115-.306-.116-.231-.115-.153-.115-.154-.154-.115-.307-.077h-.192l-.191.077-1.152.46zm4.262.038.46-.192.193.422.191.346.23.192.27.154.307.076h.153l.154-.038.23-.077.307-.23.116-.154.038-.191.038-.231v-.192l-.038-.23-.077-.269-.153-.23-.154-.154-.192-.115-.345-.077-.576-.077-.5-.115-.192-.038-.192-.077-.268-.192-.23-.27-.193-.345-.115-.383-.077-.384-.038-.346.038-.345.116-.27.153-.268.192-.23.23-.154.27-.115.23-.039h.192l.23.039.192.039.154.076.192.115.153.154.154.192.153.192.116.23.076.23.116.308-.5.154-.076-.27-.154-.23-.115-.192-.307-.23-.384-.077-.192.038-.192.077-.192.116-.116.115-.115.153-.077.307v.193l.039.23.038.154.077.153.115.115.077.116.154.076.192.077.537.077.538.076.345.077.192.077.192.115.154.154.153.153.154.192.115.23.154.461.076.269.039.269v.268l-.038.23-.039.27-.077.192-.115.192-.115.192-.154.115-.153.154-.192.076-.23.077-.346.038h-.307l-.346-.115-.269-.192-.268-.268-.23-.346-.193-.384zm4.722 1.075-.998-6.45.5-.077 1.036 6.412zm2.803-.345-.384-5.76-1.305.116-.077-.768 3.187-.23.038.768-1.305.076.384 5.76zm3.84-.077.153-2.726-1.305-3.878.653.039.652 2.035.346 1.113.499-1.113.883-1.881.614.037-1.804 3.648-.154 2.765zm5.144-2.611.23-.73.27-.652.153-.27.154-.267.192-.231.192-.192.384-.307.192-.115.191-.077.193-.039.191-.038h.192l.192.038.23.078.231.153.192.192.192.192.115.268.115.308.077.345.038.384.039.423-.038.46-.077.46-.115.5-.192.653-.23.576-.308.5-.307.421-.23.192-.384.308-.384.153-.23.038-.193-.038h-.23l-.192-.077-.192-.115-.154-.115-.153-.154-.115-.192-.116-.192-.115-.268-.076-.27-.077-.498v-.576l.038-.576zm.538.154-.115.576-.039.499v.422l.077.422.115.346.192.23.192.192.269.116.269.038.307-.077.269-.153.268-.231.27-.307.23-.422.192-.5.153-.575.115-.423.039-.384.038-.345v-.384l-.077-.461-.077-.23-.115-.192-.115-.192-.115-.116-.154-.115-.192-.038-.268-.038-.308.076-.268.115-.269.23-.269.347-.23.422-.192.537zm3.11 4.146 2.419-6.066 2.496.999-.308.729-1.996-.807-.73 1.882 1.728.691-.307.69-1.728-.652-1.075 2.726zm5.49 2.573 2.957-4.915-1.114-.691.384-.652 2.726 1.65-.422.653-1.114-.69-2.956 4.914zm2.304 1.458 4.031-5.106 2.266 1.767-.5.614-1.842-1.459-1.23 1.574 1.729 1.344-.461.614-1.766-1.344-1.344 1.728 1.92 1.497-.5.615zm6.719 2.996.23.537-.46.307-.385.192-.384.154-.383.077-.615-.077-.268-.154-.23-.192-.193-.192-.115-.23-.077-.23-.038-.27.038-.268.077-.307.115-.346.154-.345.23-.384.27-.346.69-.768.384-.345.384-.308.384-.23.345-.192.346-.153.346-.115.306-.039h.27l.268.039.27.076.23.115.192.193.153.23.115.23.077.269v.307l-.076.346-.116.307-.192.384-.23.384-.5-.269.154-.268.153-.23.078-.27.038-.192.038-.23-.038-.193-.077-.153-.115-.153-.308-.23-.383-.078h-.192l-.23.039-.23.115-.27.115-.268.154-.308.191-.306.27-.308.268-.422.461-.346.422-.269.384-.153.384-.077.346v.307l.077.269.153.23.192.115.154.077.23.038h.23l.27-.038.306-.115.308-.192zm-.614 2.764 5.26-3.84.307.423-2.15 1.574 1.229 1.69 2.15-1.575.307.423-5.26 3.84-.308-.423 2.458-1.843-1.19-1.651-2.496 1.804zm2.496 3.571 5.758-3.072.23.46-3.532 4.263 4.531-2.42.23.462-5.759 3.071-.23-.499 3.532-4.262-4.53 2.419zm4.915 2.649.767-.23.69-.116.308-.038h.576l.269.038.46.154.193.077.191.115.154.153.23.308.077.192.038.23.039.269-.039.268-.23.538-.192.269-.23.23-.307.269-.346.23-.384.23-.422.193-.46.192-.692.192-.614.153-.577.038-.537-.038-.269-.077-.23-.038-.23-.115-.192-.115-.154-.116-.153-.153-.115-.192-.077-.192-.039-.192-.038-.23v-.192l.077-.23.077-.193.115-.23.115-.192.192-.23.384-.346.46-.346.538-.268.576-.27Zm.19.537-.536.192-.461.27-.346.23-.307.307-.192.307-.115.269-.039.268.039.27.153.268.192.192.27.154.345.076.422.039.46-.039.538-.115.576-.154.384-.153.345-.192.346-.154.27-.23.23-.154.152-.153.154-.192.078-.192.076-.192.039-.192v-.192l-.039-.192-.154-.23-.191-.23-.27-.116-.345-.115-.422-.039-.5.039-.537.153zm-1.689 5.069 6.374-1.344.115.499-5.605 1.228.422 1.92-.768.154zm3.879 2.994.767-.038.691.077.614.115.269.077.461.23.192.154.192.115.115.153.116.192.076.154.077.192.038.192v.269l-.076.268-.115.23-.154.231-.192.23-.537.384-.346.192-.845.23-.46.078-.5.076-.691.039-.653-.039-.537-.115-.537-.192-.461-.23-.307-.307-.154-.192-.153-.384-.039-.192v-.23l.039-.193.153-.383.307-.384.192-.154.23-.154.461-.268.538-.192.576-.154zm0 .538-.538.077-.5.115-.422.153-.345.23-.27.231-.19.23-.116.27-.038.268.076.269.154.268.23.192.307.192.384.154.46.077h1.153l.422-.038.384-.078.921-.307.193-.153.191-.115.154-.192.115-.154.077-.192.038-.153v-.192l-.038-.27-.153-.268-.231-.192-.307-.192-.384-.153-.5-.077zm-.462 6.604.769.038-.077 1.69-2.42-.154-.421-.422-.154-.23-.154-.193-.076-.23-.077-.23-.038-.192v-.23l.038-.27.077-.269.153-.23.192-.23.23-.192.27-.192.306-.154.384-.115.384-.077.461-.077h.96l.538.039.921.23.384.115.384.192.307.192.23.192.193.23.153.231.115.23.038.27v.498l-.076.23-.077.154-.231.307-.153.154-.153.115-.231.077-.192.115-.269.039-.653.115-.153-.5.46-.076.346-.115.269-.154.192-.192.153-.23.039-.307v-.192l-.039-.192-.076-.192-.115-.192-.154-.154-.192-.153-.231-.116-.268-.115-.307-.115-.346-.077-.383-.077-.385-.038h-.614l-.537.038-.46.115-.385.154-.307.192-.23.23-.116.27-.077.306v.154l.039.154.115.345.23.307.231.23 1.19.078zm-3.071 3.686 2.726.575 3.993-.729-.153.614-2.074.384-1.152.154 2.764 1.843-.153.576-3.34-2.342-2.688-.538z"/><path d="M58.394 75.365h.73v-3.648h-.73zm4.992-2.265-.039-.308-.076-.269-.154-.269-.192-.23-.46-.307-.308-.077-.307-.038-.307.038-.307.077-.27.154-.191.153-.192.23-.154.27-.076.268-.039.307.039.307.076.27.154.268.384.384.269.153.307.077.307.039-.46.806h.806l.883-1.42.115-.193.115-.23zm-2.38.153v-.346l.038-.153.077-.116.23-.23.153-.077.154-.038.192-.039.154.039.192.038.115.077.153.115.154.23.077.154v.346l-.154.307-.077.115-.153.115-.115.077-.192.039h-.346l-.154-.039-.153-.077-.23-.23-.077-.154zm9.79.077v-.538l-.23-.538-.192-.23-.23-.153-.27-.154-.307-.077-.307-.038-.307.038-.269.077-.268.154-.23.153-.193.23-.153.27-.077.268-.039.307.039.307.077.27.153.268.192.192.23.192.27.153.268.077.307.039-.46.806h.806l.883-1.42.153-.193zm-2.38-.077v-.346l.076-.153.077-.116.23-.23.154-.077.307-.077.192.039.154.038.153.077.23.23.078.116.038.153v.346l-.038.153-.077.154-.23.23-.154.077-.154.039h-.345l-.154-.039-.154-.077-.23-.23zm-1.229.653h-.422V72.6h-.73v1.306h-1.267l1.152-2.42h-.691l-1.651 3.188h2.457v.806h.73v-.806h.422zm1.766-15.205-3.34 3.763h-1.19v-.922l2.726-3.877-3.34-3.84-3.341 3.84 2.726 3.877v.922h-1.19l-3.34-3.763-4.186 1.037 1.959 3.302h6.719v1.996h1.305V63.04h6.719l1.958-3.302z"/></g><defs><filter id="a" x="-13" y="0" width="154" height="157" filterUnits="userSpaceOnUse" color-interpolation-filters="sRGB"><feFlood flood-opacity="0" result="BackgroundImageFix"/><feColorMatrix in="SourceAlpha" values="0 0 0 0 0 0 0 0 0 0 0 0 0 0 0 0 0 0 127 0" result="hardAlpha"/><feOffset dy="16"/><feGaussianBlur stdDeviation="6.5"/><feColorMatrix values="0 0 0 0 0 0 0 0 0 0 0 0 0 0 0 0 0 0 0.03 0"/><feBlend in2="BackgroundImageFix" result="effect1_dropShadow_49_5529"/><feBlend in="SourceGraphic" in2="effect1_dropShadow_49_5529" result="shape"/></filter></defs></svg>