<svg xmlns="http://www.w3.org/2000/svg" viewBox="0 0 128 38.9"><g id="_图层_1" data-name="图层_1"><path d="M40.7 27.1v-.6h-1.4V26h1.3v-.5h-1.3v-.4h1.4v-.6h-2.2v2.6zm1.3 0v-.4h1v.4h1l-1-2.6h-.9l-1 2.6h.8Zm.9-1h-.6l.3-.9zm2.8 1c.3 0 .5 0 .6-.1.2 0 .3-.2.4-.3 0-.1.1-.3.1-.5 0-.1 0-.3-.1-.4 0-.1-.2-.2-.3-.3-.2 0-.4-.2-.8-.2h-.3v-.2h.5s.1.1.1.3h.8q0-.45-.3-.6c-.2-.1-.4-.2-.8-.2s-.5 0-.6.1c-.1 0-.3.2-.4.3 0 .1-.1.2-.1.4s0 .4.2.5.4.2.8.3c.2 0 .4 0 .4.2v.4h-.3c-.1 0-.3 0-.4-.2 0 0 0-.2-.1-.3h-.8c0 .3.1.5.3.7q.3.3.9.3Zm3.3 0v-2h.8v-.6h-2.5v.6h.8v2h.8Zm3.5 0h.6c.2 0 .3-.2.4-.3s.2-.3.2-.5l-.7-.2c0 .1 0 .3-.2.4 0 0-.2.1-.3.1s-.3 0-.4-.2c0-.1-.1-.3-.1-.6s0-.4.1-.5c0-.1.3-.2.4-.2.2 0 .4.1.5.4l.7-.2c0-.3-.2-.5-.4-.6s-.4-.2-.8-.2-.7.1-1 .3-.3.6-.3 1 0 .6.2.8c.1.2.3.4.5.4s.4.1.7.1Zm2.7 0V26h.9v1.1h.8v-2.6h-.8v.9h-.9v-.9h-.8v2.6zm3.4 0v-2.6h-.8v2.6zm1.6 0v-1.4l1 1.4h.8v-2.6h-.8v1.4l-1-1.4h-.8v2.6zm3.1 0v-.4h1v.4h1l-1-2.6h-.9l-1 2.6h.8Zm.9-1h-.6l.3-.9zm3 1v-1.4l1 1.4h.8v-2.6h-.8v1.4l-1-1.4h-.8v2.6zm3.9 0c.3 0 .5 0 .7-.2s.3-.3.4-.5.2-.4.2-.8-.1-.7-.4-1c-.2-.2-.6-.3-1-.3s-.8.1-1 .4c-.2.2-.4.6-.4 1s0 .6.2.8c.1.2.3.3.5.4.2 0 .4.1.7.1Zm-.1-.6c-.2 0-.3 0-.4-.2 0-.1-.1-.3-.1-.6s0-.5.1-.6c0-.1.2-.2.4-.2s.3 0 .4.2c0 .1.1.3.1.5s0 .5-.1.6-.2.2-.4.2Zm3 .6V26h.2s.1.1.1.2l.4.8h.9l-.4-.8s0-.1-.1-.2l-.1-.1h-.2s.2 0 .3-.1q.15 0 .3-.3v-.4c0-.2 0-.3-.1-.4 0-.1-.2-.2-.3-.2h-1.9v2.6h.8Zm.3-1.6H74V25h.7v.4h-.3Zm2.7 1.6v-2l.5 2h.6l.5-2v2h.7v-2.6h-1.1l-.4 1.6-.4-1.6h-1.1v2.6zm3.6 0v-.4h1v.4h1l-1-2.6h-.9l-1 2.6h.8Zm.9-1h-.6l.3-.9zm3.8 1v-.6H84v-2h-.8v2.6zm2 0h.6c.1 0 .2-.1.3-.2s.2-.2.2-.4v-2h-.8v1.6c0 .1 0 .3-.1.3 0 0-.2.1-.3.1s-.2 0-.3-.1c0 0-.1-.2-.1-.3v-1.6H86v2c0 .1 0 .2.2.3 0 0 .2.2.3.2s.2 0 .4.1zm2.8 0v-1.4l1 1.4h.8v-2.6h-.8v1.4l-1-1.4h-.8v2.6zm3.5 0v-2.6h-.8v2.6zm2.5 0 1-2.6h-.8l-.6 1.9-.6-1.9h-.8l1 2.6h.9Zm3.7 0v-.6h-1.4V26h1.3v-.5h-1.3v-.4h1.4v-.6h-2.2v2.6zm1.6 0V26h.2l.1.2.4.8h.9l-.4-.8s0-.1-.1-.2l-.1-.1h-.2s.2 0 .3-.1c.1 0 .2-.2.3-.3v-.4c0-.2 0-.3-.1-.4 0-.1-.2-.2-.3-.2h-1.9v2.6h.8Zm.4-1.6h-.3V25h.7v.4h-.3Zm3 1.6c.3 0 .5 0 .6-.1.2 0 .3-.2.4-.3 0-.1.1-.3.1-.5 0-.1 0-.3-.1-.4 0-.1-.2-.2-.3-.3-.2 0-.4-.2-.8-.2h-.3v-.2h.5s.1.1.1.3h.8q0-.45-.3-.6c-.2-.1-.4-.2-.8-.2s-.5 0-.6.1c-.1 0-.3.2-.4.3 0 .1-.1.2-.1.4s0 .4.2.5.4.2.8.3c.2 0 .4 0 .4.2v.4h-.3c-.1 0-.3 0-.4-.2 0 0 0-.2-.1-.3h-.8c0 .3.1.5.3.7s.5.3.9.3Zm2.8 0v-2.6h-.8v2.6zm2.3 0v-2h.8v-.6h-2.5v.6h.8v2h.8Zm3.1 0V26l1-1.5h-.9l-.5.9-.5-.9h-.9l1 1.5v1.1z" style="fill:#ad1d32"/><path d="M99.8 20.4c0 .3-.1.3-.2.5-.1.3-.5.1-1 .2-.5 0-1.1.2-1.6.1-1.2-.3-3.2-.9-3.3-2.1 0-.4.2-1.1.5-1.1s.9.9 2.1 1.2c.4.1 1 .3 1.6.3 1 0 1.8.2 1.9.8Zm-3.1-3.9c.5-.3.8-.8.4-1.2-.2-.1-.2-.2-.6-.2-.7 0-.6.4-1.1.4-.2 0 0-.7.4-.8.8-.2 1.7-.6 1.9-1.3.1-.6 0-1.2-.9-.9-.5.1-1.2.4-1.9 1-.8.8-1.6 1.7-2.4 2.1-.5.3-.4 0-.9.1-1.4.3-2.4.8-2.2 1.6.1.5.7.7 1 .7.4 0 .7 0 .6.1 0 .2-.7.8-1.1 1.3-.2.2-.7.6-1.3.9-.9.4-1.2.6-1.2.9 0 .4.4.5.9.5s2.6-1.2 4-3c.2-.3.7-.6 1-.8.3-.3.4-.6.7-.8 1.1-.5 2.1-.2 2.8-.6Zm12.6 2.4c-.2 0-1.4.3-2 .4-.2 0-.3-.1-.3-.2 0-.5 1.5-.4 1.4-.9 0-.7-.6-1-1.3-.9 0 0-.9.2-1.8.3-.7 0-1.6.6-1.4 1.1s.8.5 1.3.2c.2-.1.1-.2.2-.3.1-.2.3-.1.4-.2.2-.2.4-.4.5-.2 0 0 0 .5-.1.6 0 .2-.3.5-.5.6-.8.4-1.8.6-1.9 1.2 0 .1.3.5.5.6.2 0 .3-.1.8-.3h.7c.3-.1.6-.4.7-.3.2.3 0 1-.4 1.5-.2.3-.6.6-.8.5 0 0-.7 0-.7.5s.2.7.4.8c.9.3 1.4-.5 2-1.2.3-.4.6-.8.6-1.1 0-.4.2-.4.2-.5 0-.3-.2-.5 0-.6.3-.3.8-.1 1-.1s.7 0 .9-.2c.5-.3 0-1-.3-1.1Zm-23.7.1c-.4 0-.6.4-.7.9v.3c-.3.6-1.5 1.1-2.5 1.2h-.3c-.5.1-.9.2-1.3-.2-.2-.2-.3-.6-.2-1.1 0-.4.2-.6.4-.7h.1c0 .1.2.2.7 0 0 0 0-.1.2-.3 0-.2.1-.4.2-.5l.2-.3.2-.2c.2-.4.1-.8-.1-1.1-.3-.3-.7-.5-1.2-.5-.7 0-1.5.5-2.1.8-.7.3-1.2.6-1.7.6-.2 0-.3-.1-.3-.2 0 0-.2-.2-.3-.1-.1 0-.3.2-.6.7 0 0-.1.3-.2.5 0 .3-.2.7-.4.8h-.2l-.1-.1c0-.3.3-.8.3-.8l.2-.5c0-.1 0-.3.1-.4.4-.6 1-.7 1.7-.7.3 0 .9-.3 1-.4.2-.2 0-.5-.2-.7-.3-.4-.6-.5-.9-.4-.3 0-.7.4-1.1.7-.3.3-.7.5-1 .7h-.1c-.7.5-1.6 1-1.6 1.3v.2c.2.2.5 0 .8-.3.2-.2.4-.3.5-.2v.1s0 .2-.2.3c-.1.2-.3.3-.4.8-.2.6 0 .8 0 1l.2.3v.7c.1.2.2.2.3.2h.1c0 .2 0 .6-.1.6 0-.1-.3-.1-.4-.1-.2 0-.3.2-.4.3-.4.7-.1 1 .2 1.3.2.2.3.3.8.2.3-.1.5-.6.6-1.2v-.2c.2-.5.4-1 .5-1.2.2-.3.2-.5.2-.7v-.3c.2-.3.4-.4.7-.6.1 0 .3-.1.5-.3l.4-.3c.5-.4.9-.6 1.5-.8.2 0 .4-.2.6-.3.3-.2.6-.3.9-.4.2 0 .7-.1.8 0 0 0 .1.5 0 .6h-.2c-.1 0-.1-.1-.1-.2v-.2h-.5c-.2 0-.3.2-.5.3l-.4.4c-.6.4-.9 1.3-.8 1.9 0 .7.4 1.1.6 1.3h.1c.4.8 1.1 1.3 3 1 1.2-.2 2.3-.7 2.8-1.4.2-.3.4-1.3.2-1.8 0-.2-.2-.3-.4-.3Zm-14.8-2.5c0-.3-.3 0-.6 0s-.7 0-.8.3v.7c0 .1.2.4.4.4s.4-.1.7-.4c.4-.4.4-.9.4-.9Zm-2.4-2c-.1 0-.2-.1-.5.4-.2.4-.7 1-.5 1.2.2.1.5 0 .6-.5.2-.6.5-1 .4-1Zm-4-.7c-.1 0-.5.2-.7.6s-.2.8-.4 1.3c-.2.4 0 .9 0 1.1 0 .1.2.1.2 0 0-.3.1-.7.7-1 .3-.1-.1-.3 0-.5.1-.3.2-.3.1-.9 0-.2.3-.5.1-.7Zm7.6 1.9c0 .4-.1 1.4-.4 1.7-.2.3-.5.9-.9 1-.4.2-1.1.5-1.3 1-.2.4-.2 1.4-.2 2 0 .8 0 2.1-.6 2.1-.4 0-.5-.3-.5-.5 0-.7-.2-1.4-.1-2.3v-3.5c-.2 0-.2.1-.3.2-.2.5.2 1.5-.4 1.7h-.6c-.3-.2-.3-1.2-.3-1.6 0-.9.2-1.7.6-2.3.3-.5 1-1 .8-1.1q-.45-.15-.9.3-.3.3-.6.9c-.2.3-.4.7-.6 1l-.3.9c0 .3-.3.3-.3.6v.8c0 .4-.4.9-.7.9-.7 0-.7-.9-.2-1.5.2-.3.5-.7.2-.8s-.4.3-.7.4c-.2 0 0-.4-.2-.4-.1 0-.2 0-.2.1-.2.2-.2.4-.2.7 0 .7.5 2 0 2.1-.5 0-.4-.4-.6-.7-.3-.6-.4-1.2-.4-2.1 0-.4 0-1.2.1-1.8 0-.4.2-.8.3-1.1.1-.7.2-1.3.6-1.6.2-.2.6-.3.9-.3.5 0 1 0 1.3.3.4.3.2.9.2 1.6 0 .3-.4.8-.7 1-.1 0-.2 0-.2.1v.3c.2 0 .5 0 .6.1.2.3.2-.6.7-1.1.2-.2.2-.5.3-.8 0-.2.2-.5.3-.7.1-.4 1.2-.6 2.2-.8.9-.2 1.8-.3 2.1-.2.2.1.4.4.3.6-.2.5-.5.6-1.1.7h-.7c-.2 0-.2.3 0 .3.3 0 .5.3.5.6 0 .2-.2.5 0 .6.3.3 1.2-.5 1.8-.3.4 0 .6.3.6.8Zm37.2-1.7c.3 0 .4-.4.4-.7s-.2-.6-.5-.6c-.2 0-.2.2-.6.4-.2 0-.6.4-.6 1.5 0 .2-.6.7-.3.9.1.2.6 0 .6 0 0-.1-.1-.4 0-.5 0 0 .3-.2.3-.3.1-.2.2-.5 0-.6-.2-.2 0-.5.3-.5.2 0 .2.4.5.4Zm-2.4.6s-.6.5-.5.7v.2c.4.5 1-.8.5-.9m-.8-.3c0-.1.7-.7 0-.6-.3 0-.7.5-.8 1.1 0 .3 0 .2.2.3.2 0 .4-.7.5-.9Zm-1.3-.6c0-.1-.5.3-.6.4v1.3c0 .4-.1.8 0 .8.2 0 .1-.2.3-.5.3-.5 0-.4.1-.9 0-.3.4-.9.2-1.2Zm6.6 3.2c-.3.3-.8.2-1.2 0-.2-.1 0-.5-.4-.5h-1c-.6 0-1.4.3-2.3.4-.6 0-1.1.3-1.4.4-.8.2-2 .4-2.2.7-.2.5.3 1.4-.3 1.6-.3 0-.6-.3-.6-.5-.3-1 .4-2.7.8-2.7.3 0 .2.2.4 0 .2-.1 0-.7.2-1.2.1-.5.2-1.1.4-1.5.2-.5.4-.8 1.1-.9.4 0 .8-1.1 1.2-.9.1 0 0 .5.2.5.3.2.6-.5.9-.6h.7c0 .2-.4.7-.5 1 0 .2.1.5.5.4.4 0 .7-.9 1-1.2s.9-.5 1.3 0c.2.2.1.4.2.6 0 .3.2.4.1.8-.1.5-.5 1-.8 1.4.1-.1-.5.5-.4.6.2.5 2.1-.4 2.4.5.2.5 0 .9-.2 1Zm-55.9.5s.2-.3.3-.5c.4-.3.8-1 .7-1.4 0-.1-.8 0-1.3 0-.3 0-.3.7 0 .8s.2.6.1.8c-.1.4 0 .5.2.3m4.3 3.2c.7.6.3 1.1-.4 1.1-1.2 0-3-.5-3.9-1.3-.4-.3-.6-.7-.8-.7 0 0-.1.4-.1.8v2c0 .6-.7.5-1 .1-.1-.2.3-2.2 0-2.1-.3 0-.8.6-1 .9-.3.4-.9 1.2-1.3 1.2-.8 0-1.1-.3-.7-.9.4-.5 1.1-1.3 1.7-1.8.3-.3.7-.6.8-.9 0 0 0-.6.3-.6 0 0 0 .1.2.1.1 0 .4-.3.3-.3-.6-.3 0-.5-.2-.7 0-.2-.3-.4-.3-.6s.2-.5.5-.6c.2 0 .1-.3.1-.3-.8 0-.9.6-1 .7-.2.3-.4.7-.4 1.3.1 1 .1 1.6-.5 1.5-.5-.1-.5-.8-.7-1.7-.2-1 0-2.2.5-2.6.1-.1.3-.2.5-.3.5-.2 1.2-.4 1.2-.3 0 0-.3.3-.4.5v.3c.4-.2.9-.2 1.3-1 .1-.2.1-.5 0-.6-.2-.2-.7 0-1.2.1s-1.4.9-1.6.9c-.5 0-.8-.5-.6-.8.1-.2.3-.3.4-.5.4-.4 1-.2 1.7-.3.7-.2 1.3-.2 1.6-.3v-.6c0-.1.4-.2.5-.3.6-.3.5.4.7.5.5.3 1.4-.4 1.6.2.2.8-1.4.8-1.8 1-.3.2-.2.3-.3.6 0 .5.3 0 .6 0 .6 0 1 0 1.4.1.5.2.3 1.5 0 2-.4.5-.7.9-1 1.2-.2.2-.6.4-.8.6s.2.4 0 .7c-.4.5 0 .5.2.6.4.3.8.5 1 .6.5.1 1.5.4 1.7.5.8.1.6-.2.9 0l.3.3Zm-16.1-3.3c.3.2 1.1-.7 1.2-.9s.2-.4 0-.4c-.3 0-.4-.2-.5-.4-.1-.3.1-.6 0-.7 0 0-.6 0-.7.2v.7c-.3.6-.2 1.4 0 1.6Zm-1.3-2.8c-.3 0-1.9.9-1.7 1.2s1-.2 1.5-.6c.4-.3.4-.5.2-.6m0 1.5s-.2.2-.5.4c-.2.1-.4.1-.7.3s-.3.7-.5 1.6c0 .3-.4.3-.2.4.1 0 .5-.2.9-.3.3 0 .6 0 .8-.2.1-.1 0-.6 0-1.2v-1Zm-2.1 1.3c-.2 0-1 .6-.6.9s1-.9.6-.9m7.5.9c.4.8 0 1.4-.7 1.3-.5 0-.4-.1-1.1 0-1 0-2.3-.3-2.5.3 0 .2-.1.5 0 .5.5 0 1.3-.2 1.8-.3.3 0 .7.3.5 1.1-.2.7-1.9.3-2.4.7-.2.1 0 1.3-.2 1.7 0 .3-.5.2-.8 0-.5-.3 0-1.2-.3-1.4-.2-.2-.8.2-1 .2s-.9 0-1.2-.1c-1.2-.8 1.5-1.6 2.1-1.8.3 0 .4-.4.1-.5h-.9c-1 .3-1.3.4-2.2.4-.5 0-.7 0-.7-.2s0-.6.2-.7c.3-.2.8-.3.8-.4 0-.2-.7 0-.7-.6v-.7c0-.3.6-.7 1-.9s0-.5-.1-.6c-.3-.7.3-1 .9-1.4.9-.6 2.2-1 2.2-1s.1-.1 0-.2c-.4-.3-.5 0-.9.1-.8 0-1.4.7-1.7.6-.7-.3-.3-1.1 0-1.2.3-.2.9 0 1.1-.1.6-.3 1.7-.2 2-.2s.2-.2.3-.3c.1 0 .5.1.5.2.3.2.8 0 1.4-.1 1.1-.3 1.3.8.3 1 0 0-1 0-1.5.1-.4 0-.4.5-.2.6s.9 0 1 0c.8 0 .4.3.9.8 1.4 1.3-1 3-1.8 3.1 0 0-.6.1-.3.4s.6 0 1.5 0c.7-.1 2.5-.3 2.7 0Zm-5.8-6c.9-.3.2-1.3-.6-1.2 0 0-.4 0-.6.1-.2 0-.1.2-.2.3-.2.1-.1.3 0 .5.1.4.8.5 1.5.2Zm1.9 0h1.3c.7-.5.4-1-.3-1.1-.4 0-1 .2-1.4.8-.2.3.3.4.5.4ZM76 14.8c-.2-.3-.2-.7 0-.9s.4-.5.5-.7.3-.5.5-.7c.3-.4 1-1 1.4-1 .2 0 .4 0 .5.3v.5l-.3.3c-.2.1-.5.3-.7.6-.1.3-.3.5-.2.6 0 0 .2-.1.3-.3l.3-.3c.2-.1.5 0 .9 0h.5c.1 0 .3-.1.5-.3.3-.2.6-.4 1.1-.5.2 0 .3-.2.5-.3s.3-.2.5-.3h.7v.4c0 .1-.1.2-.2.3-.2.2-.3.4-.1.7s0 0 .1 0c.1-.1.3-.3.7 0 .2.2.4.4.4.6s0 .4-.2.5-.3.2-.5.2-.4 0-.6.2c-.1.1-.2.3-.3.5-.2.3-.3.5-.6.5-.2 0-.3 0-.4-.1s-.2-.4 0-.7c0-.2.3-.3.4-.4.2 0 .4-.2.4-.4 0 0 0-.1-.1-.2 0 0-.2-.2-.2-.3v-.5h-.4c-.4 0-1.7 1.2-2 1.5l-.2.2c-.2.3-.5.6-.8.6s-.4-.2-.5-.3c0-.1-.2-.2-.3-.2-.3 0-.4.2-.5.3 0 0 0 .2-.2.2-.3 0-.6-.2-.8-.5Z" style="fill:#ad1d32;fill-rule:evenodd"/><path d="M24.4 26.3c-3.8 0-6.8-3-6.8-6.8s3-6.8 6.8-6.8 6.8 3 6.8 6.8-3 6.8-6.8 6.8m7.1-6.8c0-3.9-3.2-7-7-7-3.9 0-7 3.2-7 7 0 3.9 3.2 7 7 7 3.9 0 7-3.2 7-7m-7.1 10c-5.5 0-10-4.5-10-10s4.5-10 10-10 10 4.5 10 10-4.5 10-10 10m0-20.4C18.7 9.1 14 13.8 14 19.5s4.7 10.4 10.4 10.4 10.4-4.7 10.4-10.4S30.1 9.1 24.4 9.1m.4 10.5 2.1 1.4v-.6L24.8 19zm-2.9-.1 2.1-1.4v-.6l-2.1 1.4zm0 1.6 2.1-1.4v-.6l-2.1 1.4zm6.6-2.1c.2.1.2.4.1.6s-.4.2-.6.1l-.3-.2v.6l.7.5c.2.1.2.4 0 .6s-.4.2-.6 0-.3-.2-.3-.2v.6l.7.5c.2.1.2.4.1.6s-.4.2-.6.1l-3.2-2.2v.6l3.2 2.3c.2.1.2.4 0 .6-.1.2-.4.2-.6 0s-2.8-1.9-2.8-1.9v2.2c0 .2-.2.4-.4.4s-.4-.2-.4-.4v-2.2l-2.8 1.9c-.2.1-.4 0-.6 0s0-.4 0-.6 3.2-2.3 3.2-2.3v-.6l-3.2 2.2c-.2.1-.4 0-.6-.1-.1-.2 0-.4 0-.5s.7-.5.7-.5v-.6l-.3.2c-.2.1-.4 0-.6 0s0-.4 0-.6l.7-.5v-.6l-.3.2c-.2.1-.4 0-.6-.1-.1-.2 0-.4 0-.5s3.6-2.5 3.6-2.5v-.6l-3.2 2.2c-.2.1-.4 0-.6 0-.1-.2 0-.4 0-.6l.7-.5v-1c0-.2.2-.4.4-.4s.4.2.4.4v.4l2.1-1.4v-.9c0-.2.2-.4.4-.4s.4.2.4.4v.9l2.1 1.4v-.4c0-.2.2-.4.4-.5.2 0 .4.2.5.4v1l.7.5c.2.1.2.4 0 .6-.1.2-.4.2-.6 0L23.2 16v.6l3.6 2.5Zm-4.1-5.9c-3.5 0-6.4 2.9-6.4 6.4s2.9 6.4 6.4 6.4 6.4-2.9 6.4-6.4-2.9-6.4-6.4-6.4m.4 4.9 2.1 1.4v-.6l-2.1-1.4zm-6.4 7.1v.1h-.2s0-.1.2-.2h.1Zm-.5 0-.1.1h-.2c.1 0 .2-.1.2-.1zh.1l-.1.1Zm-.5-.2h.2s-.2.1-.2 0m.4-.2h.3-.2Zm1 .2s-.2 0-.2-.2c0 0-.2-.2-.3-.2 0 0 0-.1-.1-.1 0 0-.2 0-.1.1 0 0 .2 0 .3.1h.1s-.2 0-.4-.1h-.3s0 .1 0 0h-.2v.2h-.2v.1c.1 0 .1.1.3.2h.1s-.5-.3-.5 0c0 0 0 .1.1.2h.1s-.2.1-.1.2c0 0 0 .1 0 0l.2-.2c.1 0 .3.3.4.2.1 0 .1-.2 0-.2 0 0-.2-.1-.2-.2l.3.3.1.1h.2l-.3-.3c-.1 0-.2-.1-.2-.2.1 0 .6.2.6-.1v-.2s-.1 0-.1-.1l.2.2c.1 0 .3 0 0-.2Zm-.3-.6s0 .1.1.2c.1 0 .2-.1 0-.2Zm-1.4-2.1h-.2l.2.6-.4.2-.2-.5h-.2l.2.5-.4.2-.2-.5h-.2l.3.8 1.4-.6-.3-.8Zm3.3 4.6-.2.2v-.2l.2.1Zm.2-.6v-.1h-.1s-.1 0-.3-.1c-.1 0-.2-.1-.3 0h-.1v.2h.5-.3c-.1 0 0 0 0 0h.1-.3c-.1 0-.2.2-.3.3 0 .1-.1.2 0 .3 0 0 .1 0 .2-.2l.2-.2s0-.1.2 0H20v.2h-.2c-.1 0-.3 0-.4.1-.1 0-.1.1 0 .2h.5l-.2.3s.1.2.2 0v-.4.2c0 .2.3.4.5.5.1 0 .2 0 .2-.1h-.1l-.2-.2s0-.1-.1-.2v-.2h.5s.2-.2.2-.3c0 0-.1 0-.2-.1 0 0-.1 0 0 0 0 0 .3.1.4 0 0-.1-.2 0-.2-.2Zm-4.9-4.5.7-.4v.4zm1.3.1h-.4l-.1-.5.3-.2v-.3l-1.4.9v.3l1.7.1v-.3Zm1.8 2.9h-.3s0 .1.1.1.2 0 0-.2Zm4.5 3.3h-.1v-.1h.2zm-.3-.4h-.1s0-.1.1-.2l-.1.2Zm-.6-.1c-.1 0-.1 0-.2.1v-.2s0-.1.1-.2h.1v.2Zm1.2.2h-.3v-.2h.3v-.1h-.8v.1c-.1 0-.1.2-.2.2 0 0 .1 0 .2-.1v-.3s-.1 0-.2-.1h-.2l-.2.2v1-.4h.1v.1s-.1.2 0 .2c0 0 .1 0 .1-.1V28l.1-.1.1-.1h.2l-.2.1c-.1 0-.2.2-.2.4v.3s0-.2.1-.3c0 0 0 .4-.1.6v.5s.2-.2.2-.3 0-.3.1-.3h.3s.2 0 .2-.1c0 0 .1-.2.1-.3v-.2Zm2.5-.3v-.1H26v-.1h-.1s-.1 0-.1.1h-.1v.1-.1l-.2.2v.3h.1v-.1s.2-.3.2-.4Zm7.1-5.7-1.3-.3v.3l1.2.3v.3h.1l.2-.9h-.2zm.4-2c0-.1 0-.2-.2-.3H33l-.2.2v.2l-.1-.1v-.3h-.3v.7l.1.1h.3s.1 0 .2-.1v-.3h.3v.5h.2v-.4ZM32 20.8l1.5.2v-.3l-1.5-.2zm-.5 1.6v.3c-.1 0 .5.2.5.2l.7.8v-.3c.1 0-.3-.5-.3-.5h.7l.1-.3h-1l-.6-.2Zm-2.6 4.2v-.2h-.1s0 .1-.1.1v-.2c.1 0 .2-.2.2-.3 0 0 0-.2-.2 0 0 0-.2.2-.2.3 0 .2 0 .4-.2.5h-.1c-.2.2-.3.3-.2.4h.3v.3s0 .2-.1.2c-.1.1-.1.2 0 .2h.2s.3-.4.3-.8v-.4c.1-.2.3-.2.3-.3Zm.8.3h-1.1v.2c.1.2.5 0 .6 0l.2-.1s.1 0 .1-.1Zm.8-1.8V25s.2.2 0 .2Zm-.1-.5v-.1h.1v.1zv-.2c-.1-.1-.1-.2-.1-.3Zm-.1.5v-.2zm0 .4h-.1s-.2-.1-.1-.2v-.1s0 .1.1.2v.1Zm.3-.3c.1-.1.2-.3.2-.3l.1-.1h.1s.2 0 .2-.1c0 0 0-.1-.1-.1s-.3.3-.3.2v-.4h-.2c-.1 0-.2 0-.2.1v.3h-.1v-.2.6l.1.2s.1.1.1.2c0 0 0 .3.2.4h.1l-.2-.2s.1-.2.2-.3c0 0 0-.1.1-.2Zm.6-.1s-.1.2-.2.3c0 0 .1-.2 0-.3h-.3s0 .1-.2.2c0 0-.1.3 0 .3 0 0 .2 0 .2-.1v.1c0 .1-.1.3 0 .4h.1v-.2s.1.1.1.2v.3h.1c.1 0 .1-.2 0-.4v-.2s0-.1.1-.1v-.1c0-.1-.1-.1-.2 0ZM26.9 28v.2c0 .2-.2.3-.3.3h-.2v-.3h.1V28h-.2c-.1 0-.2.1-.3.2l-.2.2v.2-.2c0-.1.1-.1.2-.2 0 0 .1 0 .1-.1V28h-.2l-.1.2s0 .1-.1.2c0 .1-.2.2-.2.3h.1v.7h.1v-.7c0-.1.1-.2.2-.3h.2v.3c0 .1.1.2.1.2s.2.2.5 0c.2 0 .3-.2.4-.3v-.3Zm.4-17v.7h-.4c0-.1.4-.7.4-.7m-.7 1.1.2-.3.5.2v.4h.3v-1.6h-.3l-1 1.3zm-5.7.5-.5-1.1 1 .9h.3c0-.1-.6-1.5-.6-1.5h-.2c0 .1.5 1.2.5 1.2l-1-.9h-.3c0 .1.6 1.5.6 1.5h.2Zm7.6.1-.5-.2.6-1.2h-.3c0-.1-.7 1.2-.7 1.2l.7.4v-.2h.1Zm-4.8-2.2h.2v.4h-.3v-.4zm0 1.3v-.7h.1v.1l.2.5h.3l-.2-.6c.2 0 .3-.2.3-.4v-.2l-.1-.1h-.9l.1 1.6h.3Zm-1.7-.9v-.1h.3l.1.2v.9h-.3l-.1-.2zm-.1.9s.1.2.2.2h.2c.2 0 .3 0 .5-.1l.2-.2V11c0-.1 0-.2-.1-.3 0 0-.1-.2-.2-.2s-.3-.1-.5 0H22l-.2.2v.7c0 .1 0 .2.1.3Zm3.2-1.3.2 1.3h.2l.5-1.2-.2 1.3h.3l.2-1.5h-.4l-.5 1.1-.2-1.2h-.4l-.2 1.5h.3l.2-1.2Zm6.8 7.4h.2l-.1-.6h.4c0-.1.1.4.1.4h.2l-.1-.5h.4c0-.1.1.4.1.4h.2l-.2-.8-1.5.4.2.8Zm-2.6-4.4s0 .1.1.2c0 0 .1 0 .2.1h.4l.2-.2.7-.8-.2-.2-.7.8-.2.2h-.2v-.2s0-.1.1-.2l.7-.8-.2-.2-.7.8s-.1.1-.1.2v.4Zm4 4.8v.3h-.4v-.2c0-.1.5-.2.5-.2Zm-1.3.1h.7v.1h-.1l-.5.2v.3l.6-.3c0 .2.2.3.4.3h.2l.1-.1V18l-1.6.2v.3Zm-1.8-4 .9-.8-.6 1.2.2.3 1.2-1-.2-.2-.9.8.6-1.2-.2-.3-1.2 1zm1.3 2.1 1.6-.2V16c-.1 0-1.3.2-1.3.2l1-.8v-.3c-.1 0-1.3 1.1-1.3 1.1l.1.3Zm-.4-.9 1.3-.8v-.2c-.1 0-1.5.8-1.5.8l.1.2ZM18 15.2l-1.3-.8-.2.2 1.3.8zm-.7 1.2-.6-.3.2-.4.6.3v-.3c.1 0-1.3-.7-1.3-.7v.3c-.1 0 .4.3.4.3l-.2.4-.6-.3v.3c-.1 0 1.3.7 1.3.7l.1-.3Zm-1.9 2.8h1.3V19h-1.3v-.4h-.2v1h.2v-.3Zm.2-1.8.2.2s.2 0 .3.1h.6s.2 0 .2-.2c0 0 .1-.2.1-.3v-.3h-.3v.4l-.1.1h-.5s-.2 0-.2-.1c0 0-.1 0-.1-.1v-.6h-.2v.5s0 .2.1.3Zm0 3.3h.2s.1-.1.1-.2v-.2h.2l.1.1v.3h.3v-.6s0-.1-.1-.2h-.6v.3h-.3v-.5h-.2v.6s.2.1.3.1Zm2.7-5.9-.9-.8 1.2.4.2-.3-1.2-1-.2.2.9.8-1.3-.4-.2.3 1.2 1 .2-.2Zm.4-2.3.6.4-.3.3zm.5 1.3v-.4c-.1 0 .3-.3.3-.3l.3.2.2-.2-1.4-.9-.2.2.6 1.5.2-.2Z" style="fill:#ac1e32;fill-rule:evenodd"/></g></svg>