<svg width="128" height="137" fill="none" xmlns="http://www.w3.org/2000/svg"><g filter="url(#a)"><path fill-rule="evenodd" clip-rule="evenodd" d="M64.002 92.77c-15.887-.03-28.74-12.88-28.771-28.771C35.26 48.11 48.115 35.259 64 35.23c15.89.029 28.74 12.88 28.769 28.768-.028 15.89-12.88 28.741-28.768 28.77Zm29.785-28.771c-.031-16.449-13.334-29.754-29.785-29.784C47.553 34.245 34.246 47.55 34.215 64c.031 16.453 13.338 29.755 29.787 29.786C80.453 93.755 93.756 80.452 93.787 64Zm-29.785 42.31c-23.364-.045-42.265-18.941-42.309-42.31.044-23.365 18.945-42.266 42.309-42.307 23.366.041 42.265 18.942 42.308 42.307-.043 23.369-18.942 42.265-42.308 42.31m0-86.309c-24.299.043-43.957 19.7-44.003 43.999.046 24.304 19.704 43.955 44.003 44.001 24.3-.046 43.954-19.697 43.999-44.001-.045-24.299-19.698-43.956-44-43.999Zm1.761 44.748 8.72 6.104v-2.704l-8.72-6.105zm-12.239-.73 8.72-6.106v-2.706l-8.72 6.105zm0 6.834 8.72-6.106v-2.703l-8.72 6.105zm27.592-9.025.011.008a1.69 1.69 0 1 1-1.952 2.763L78 63.776v2.704l3.117 2.182a1.695 1.695 0 0 1 .426 2.365 1.695 1.695 0 0 1-2.357.416q-.004-.006-.01-.01v.002L78 70.612v2.706l3.117 2.18a1.693 1.693 0 1 1-1.931 2.779l-.01-.007-13.412-9.393v2.657l13.653 9.562a1.694 1.694 0 0 1 .428 2.363 1.694 1.694 0 0 1-2.357.416l-.012-.006-11.712-8.204v9.143h-.002l.002.013a1.76 1.76 0 0 1-3.52 0v-9.156L50.53 83.869l-.008.006a1.692 1.692 0 0 1-1.941-2.772q.004-.004.01-.006v-.001l13.654-9.562v-2.657L48.832 78.27a1.694 1.694 0 0 1-2.368-.407 1.693 1.693 0 0 1 .414-2.357l.014-.007h-.003l3.115-2.181v-2.706l-1.172.823v-.002a1.694 1.694 0 0 1-2.368-.405 1.695 1.695 0 0 1 .428-2.366h-.003l3.115-2.182v-2.704l-1.172.822-.012.008a1.692 1.692 0 0 1-1.942-2.771l.014-.008h-.003l15.355-10.75V48.37l-13.412 9.391a1.695 1.695 0 0 1-2.368-.406 1.696 1.696 0 0 1 .414-2.359q.007 0 .014-.004h-.003l3.115-2.183v-4.016h.003q-.001-.009-.003-.013a1.762 1.762 0 1 1 3.521 0v1.565l8.719-6.107v-3.794a1.76 1.76 0 1 1 3.52 0l-.003.012h.002v3.782l8.72 6.107V48.78a1.76 1.76 0 0 1 1.758-1.762c.972 0 1.758.79 1.758 1.762v4.029l3.117 2.183.011.004c.766.538.95 1.592.415 2.359a1.696 1.696 0 0 1-2.367.406l-13.412-9.39v2.705l15.353 10.75ZM64.002 36.923c-14.952.025-27.048 12.124-27.076 27.076.028 14.956 12.124 27.048 27.076 27.078C78.959 91.047 91.05 78.955 91.08 64c-.03-14.952-12.121-27.051-27.078-27.076Zm1.761 20.989 8.72 6.106v-2.707l-8.72-6.104zm-27.33 29.731c-.041.059-.34.128-.407.31-.069.19-.117.36.043.485.093.067-.039.147-.222.192-.139.034-1.007.087-1.028-.148-.012-.165.38-.603.801-.738.13-.087.219-.323.34-.365.202-.087.515.21.473.264m-2.072.017c-.351.241-.493.57-.618.55-.195-.024-.343-.19-.512-.266-.306-.14-.585-.22-.613-.297-.06-.159.147-.024.3-.133.554-.377.796-.617 1.026-.564.238.054.34.158.478.187.283.055.464 0 .45.055-.013.048-.237.276-.511.468m-1.997-.727c-.033-.35.663-.25.77-.142.197.203-.728.518-.77.142m1.783-.69c.075-.277 1.327.018 1.446.232.079.142-.07.234-.388.192-.464-.065-1.133-.155-1.058-.425Zm3.933.608c-.41-.226-.707-.4-.785-.648-.004-.022-.077-.281-.164-.32-.087-.044-.123.103-.275-.022-.144-.125-.65-.685-1.098-.868-.187-.078-.4-.47-.632-.502-.227-.033-.815.134-.611.627.093.213.71.178 1.158.559.218.184.469.078.533.397.026.124-.039.109-.104.112-.04 0-.854-.408-1.603-.586-.521-.124-.983-.224-1.174.243-.046.102.046.498-.255.387-.287-.1-.758-.174-.942-.038-.068.05-.294.269-.346.337-.239.294.16.574.043.666-.055.045-.341-.168-.61-.231-.182-.038-.388.144-.467.242-.116.147 0 .188.27.454.434.427.627.504 1.304.848.136.07.4.244.488.398.098.163-.128.298-.33.19-.413-.226-2.178-1.145-1.974-.138.048.236.396.567.525.632.144.073.588.144.606.364.022.251-.67.445-.554.86.072.27.214.478.397.395.287-.132.818-.733.971-.716.447.05 1.077 1.111 1.544.87.556-.28.498-.683.33-.804-.293-.207-.802-.471-1.024-.713-.088-.1.094-.222.24-.305.36-.191.858.642 1.366 1.093.38.336.293.372.518.609.32.339.853.256 1.035-.3.067-.213-.946-1.026-1.33-1.3-.489-.35-.777-.439-.78-.695.003-.288.343-.075.352-.067.43.416 2.487.69 2.429-.608-.018-.442.355-.473-.058-.807-.034-.03-.5-.296-.529-.43-.022-.123.186-.332.398-.175.291.21.72.636.78.663.603.326 1.075-.27.358-.673m-1.229-2.613s-.24-.2-.358-.22c-.14-.042-.16.044-.287.051-.134-.017-.228.08-.276.182-.126.27.154.614.624.856.573.29.75-.54.297-.869m-5.539-8.846-.875.38.93 2.142-1.771.769-.842-1.946-.88.384.847 1.945-1.598.693-.896-2.053-.877.38 1.372 3.154 6.001-2.609zm13.806 19.42c-.054.366-.59.606-.964.687-.14.03-.308.15-.394.17-.226.048-.197-.064.021-.28.121-.118.397-.385.23-.58-.163-.195.131-.668.283-.523.28.268.837.437.824.527Zm.888-2.163c-.09-.176.246-.578-.238-.592-.064-.006-.34-.05-.428 0-.083.048-.236.365-.274.35-.226-.097-.603-.281-1.135-.431-.51-.137-.79-.508-1.201-.394-.173.054-.313.06-.464.162-.27.175-.212.576.081.766.128.084 1.02-.033 1.36.052.402.095.805.216.842.385.014.086-.088.221-.252.337-.597.404-.9.197-1.221.194-.067-.003-.046-.14.073-.197.15-.083.444-.105.457-.162.017-.072-.449-.242-.88-.28-.166-.016-.3.014-.442.04-.423.076-1.053.75-1.313 1.48-.212.604-.497 1.059-.191 1.335.37.325.59-.08.87-.759.16-.386.527-.588.724-.693.08-.046.367-.431.871-.083.021.013-.018.148-.17.137-.198-.008-.458.102-.51.21-.062.142.007.328-.023.518-.028.196-.403.143-.149.535.018.03-.227.12-.318.057-.043-.027-.015-.11-.06-.13-.143-.062-.378.263-.416.295-.21.18-.522.247-.852.323a14 14 0 0 0-1.743.556c-.506.209-.433.58.103.847.236.118.924-.158 1.265-.28.235-.083.742-.245.96-.183.23.07-.782 1.198-.77 1.38.027.307.467.663.685.289.095-.17.181-.397.322-.659.102-.204.287-.412.397-.589.155-.255.3-.503.37-.477.167.063.133.332.267.712.326.892 1.261 1.882 2.06 2.293.484.249.867.041.677-.599a4 4 0 0 0-.106-.319c-.094-.236-.1.02-.556-.335-.13-.096-.652-.675-.936-.926-.136-.123-.344-.442-.473-.745-.078-.2-.315-.307.1-.494.25-.112.082-.403.295-.439.178-.027.514-.004.745-.054.278-.054.634-.25 1.07-.396.406-.132.995-.907.776-1.226-.151-.224-.456-.334-.843-.578-.193-.129-.628.106-.409-.194.151-.204.176-.304.404-.31.356-.003 1.389.59 1.536-.009.123-.482-.735-.347-.937-.72M27 73.555l-.006-.017 2.756-1.557.433 1.69L27 73.554Zm5.777.203-1.642-.068-.553-2.18 1.411-.834-.307-1.2-5.82 3.657.327 1.275 6.881.511zM40.5 85.934c-.216-.228-.628-.386-1.074-.293-.289.058-.033.36.029.421.059.06.129.048.183.088.217.168.351.445.497.47.566.095.718-.313.364-.686Zm19.001 14.226c-.25.14-.4.197-.553.163-.082-.017-.237-.226-.182-.317.131-.225.063-.326.126-.452.113-.209.417-.105.613-.096.261.02.435-.064.44.126 0 0-.104.39-.444.576m-1.368-1.741c-.185.25-.413.347-.523.212-.075-.097.386-.465.601-.705.263-.296.31-.24.391-.166.087.087-.212.313-.469.659m-2.736-.54c-.441.092-.572.41-.655.588-.036.084-.144.046-.151-.041-.02-.199.01-.547.194-.792.246-.335.357-.609.549-.819.239-.27.538-.365.6-.284.115.153-.197.298-.219.438-.06.4-.13.398-.258.58-.084.13.168.28-.06.33m5.254.754c-.407-.22-1.133.137-1.3-.122-.064-.107.125-.296.163-.433.065-.231-.057-.448-.24-.507-.115-.044-.103-.2.036-.2.211-.001.305.031.51.065.386.066.614.06.876-.268.083-.1.064-.336-.084-.465-.192-.168-.834-.231-1.51-.271-.725-.036-1.492-.111-1.661.139-.083.124-.252.261-.343.417-.138.233-.222.443-.364.528-.453.264-.622.87-.688.655-.048-.146-.262-.148-.383-.186-.057-.02-.038-.183.03-.24.074-.054.08 0 .18-.03.273-.087.612-.345.683-.541.167-.492.396-.856.194-1.164-.173-.261-.499-.396-.838-.443-.178-.024-.476-.02-.666.047-.33.116-.472.505-.702.975-.093.194-.298.429-.404.728-.134.387-.31.925-.392 1.208-.184.625-.244 1.065-.13 1.529.058.24-.043.564.29.608.275.036.216-.997.338-1.457.047-.191.107-.368.263-.439.049-.023.096-.111.182-.064.079.05-.086.316.051.329.242.02.395-.268.574-.143.141.099-.091.339-.3.49-.398.293-.62.881-.11 1.059.219.076.5-.209.632-.504.108-.23.093-.386.195-.567.079-.143.21-.161.324-.335.108-.16.194-.354.353-.542.184-.223.437-.442.608-.617.19-.198.356-.388.56-.496.202-.104.492-.163.655-.034.115.095-.411.352-.742.614-.453.367-.738.857-.88 1.502-.06.263-.253.978-.093 1.152.12.122.23.173.392.167.412-.011.318-.788.58-1.093.057-.067.112-.191.223-.12.116.075-.316 1.582-.584 2.46-.183.605-.245 1.116-.322 1.598-.03.205-.054.397.239.476.416.11.644-.781.78-1.333.118-.458.32-1.137.54-1.359.236-.248.773-.376 1.1-.425.334-.051.638-.422.832-.559.272-.191.548-.875.617-1.122.097-.342 0-.523-.264-.666Zm10.542-.978c-.112.096-.222.196-.222.345.007.188.07.343.181.41.082.057.187.062.3.016.162-.064.217-.248.278-.445a1.6 1.6 0 0 1 .141-.362c.097-.158.206-.2.321-.247.1-.04.207-.08.295-.204a.38.38 0 0 0 .068-.343c-.041-.139-.164-.246-.35-.315-.256-.088-.355.075-.426.183-.022.038-.046.077-.063.078l-.02-.009c-.151-.125-.094-.291-.034-.467a1 1 0 0 0 .07-.255q.013-.177-.087-.249-.151-.099-.5.075c-.103.047-.176.149-.257.257-.071.1-.149.209-.258.282-.293.18-.483.384-.634.546-.107.12-.195.212-.283.256-.067.031-.186.052-.315.076-.226.043-.482.089-.563.202l-.122.227c-.054.112-.106.227-.165.245l-.04-.003c-.096-.055-.038-.23.02-.397l.024-.066c.076-.232.212-.386.327-.522a.9.9 0 0 0 .167-.229.32.32 0 0 0-.046-.374.38.38 0 0 0-.407-.097c-.257.097-.59.612-.741.911-.09.18-.146.368-.197.552-.059.197-.115.387-.212.56-.103.184.002.422.153.579.14.145.377.271.58.165.05-.024.064-.08.085-.14.036-.107.075-.241.279-.297.091-.023.17.033.257.103.107.083.227.17.403.108.174-.065.286-.312.38-.529l.074-.162c.129-.26.782-1.204 1.053-1.34.131-.064.215-.083.264-.06.057.027.076.11.103.223l.021.095c.03.095.108.134.176.17.062.031.113.056.12.118.009.14-.092.232-.198.33M101 73.285l-5.404-1.418-.306 1.16 5.404 1.42-.368 1.406.926.244 1.043-3.98-.922-.243zm2.03-8.328a1.9 1.9 0 0 0-.308-.668 1.7 1.7 0 0 0-.544-.47 1.7 1.7 0 0 0-.765-.198q-.64-.023-1.053.252a2.4 2.4 0 0 0-.703.754l-.357.596a7 7 0 0 1-.24.367q-.11.157-.228.258a.8.8 0 0 1-.245.153.9.9 0 0 1-.316.037 1 1 0 0 1-.414-.092.8.8 0 0 1-.288-.234.9.9 0 0 1-.16-.325 1.2 1.2 0 0 1-.046-.374q.016-.478.18-.84.157-.36.276-.534l-1.064-.106c-.211.318-.32.812-.345 1.48a2.8 2.8 0 0 0 .088.87q.103.407.342.709c.153.2.35.366.593.487q.365.178.86.199c.234.01.434-.007.612-.047.166-.043.329-.105.465-.193q.203-.137.384-.34a4 4 0 0 0 .346-.488l.419-.688c.051-.094.109-.176.163-.259q.084-.117.186-.212a.7.7 0 0 1 .235-.147.9.9 0 0 1 .322-.042q.336.013.545.248.205.238.188.689a2.3 2.3 0 0 1-.124.71 7 7 0 0 1-.203.505l1.002.093q.052-.138.158-.485.106-.353.124-.872a2.6 2.6 0 0 0-.085-.793m-6.963 4.593 6.476.957.176-1.188-6.472-.957zm-1.965 6.928-.475 1.099 2.386 1.03 2.86 3.336.515-1.19-1.933-2.136 2.909-.137.515-1.187-4.366.222-2.41-1.037ZM82.937 94.33c.187-.364.205-.784-.19-.832-.147-.018-.209-.043-.447.108-.41.255-.238.441-.518.623-.112.077-.256-.453-.05-.644.43-.4.85-.995.677-1.483-.14-.403-.384-.73-.895-.223-.27.263-.613.642-.791 1.245-.234.77-.352 1.625-.7 2.155-.224.34-.271.141-.544.4-.758.71-1.158 1.353-.76 1.744.277.271.648.175.845.105.246-.087.385-.29.43-.157.049.135-.136.737-.22 1.213-.033.192-.204.634-.457.98-.42.583-.539.777-.403.952.171.208.459.173.692-.004.268-.196 1.153-1.649 1.383-3.232.04-.282.222-.61.29-.845.095-.311.02-.513.18-.732.497-.65 1.231-.9 1.478-1.373m3.275 1.23c-.288-.36-.869-.216-1.486.18-.362.229-.809.294-1.08.363-.83.217-1.5-.06-1.709-.003-.205.058-.094.578.08.819.487.705 1.904.421 2.737.141.325-.11.664-.441.937-.63.294-.191.595-.26.568-.461-.026-.203.076-.256-.047-.409m3.393-7.81s-.075-.078-.085-.08c-.189-.067-.155-.59-.133-.61.273-.22.673.763.218.69m-.1-2.276c.1-.314-.006-.39.082-.529.118-.18.377-.131.57.036.179.156.302.422.172.572-.142.173-.35-.032-.45.056-.117.108-.074.385.111.372.164-.016.27.162.31.345.015.079-.059.245-.027.315.037.1.235.127.285.226.044.09-.112.37-.278.356-.266-.029-.21-.532-.32-.641-.564-.567-.499-.964-.455-1.108m-.432 2.53c-.132.036-.18.104-.298-.053-.265-.348-.301-.806-.175-.975.274-.365.255.247.278.326.051.172.323.668.195.702m-.218 1.287c-.113.047-.25-.223-.451-.414-.289-.279-.663-.628-.634-.69.046-.101.004-.528.118-.51.19.034.375.535.492.695.188.336.29.123.382.514.052.22.243.34.093.405m1.435-.94c.445-.505.752-1.06 1.009-1.381.142-.174.353-.304.483-.496.146-.22.306.068.448.04.355-.064.678-.33.665-.605.011-.17-.119-.443-.456-.603-.624-.305-1.103 1.08-1.47.965-.08-.025-.084-.6-.079-.486-.02-.329-.094-.743-.31-1.087-.175-.278-.32-.25-.486-.355-.135-.084-.23-.213-.418-.231-.47-.053-.69.301-.68.614.009.335.279.914.093 1.127-.206.233-.415.222-.5.061-.114-.228-.133-.69-.278-.772-.085-.045-.277.08-.386.281-.111.203.11.695-.144.791-.117.043-.262-.198-.366-.173-.295.067.037.839-.139 1.054-.31.377-.262.628-.084.99.134.267.442.64.607.951.184.355.538.568.509.742-.038.186-.122.07-.235.219-.166.212.335 1.384 1.004 1.77.124.07.474.099.577-.092.189-.349-.552-.56-.69-.94-.092-.25.486-.947.777-1.475.134-.242.283-.606.549-.91Zm2.65-.416c-.145.077-.568.884-.876 1.224-.12.133-.219.108-.293.038-.256-.232.534-.955.269-1.195-.394-.358-.807-.232-1.128.215 0 0-.377.569-.767 1.034-.325.387-.495 1.136-.139 1.278.372.15.677-.192.763-.596.027-.133-.02-.153-.045-.271-.03-.147.085-.204.085-.287-.006-.249-.025-.385.167-.366.07.006.229.295.266.376.067.154.134.417.057.598-.25.613-.611 1.212-.356 1.543.056.073.435.11.572.04.16-.08.131-.232.236-.552.04-.125.301-.275.343-.38.08-.197.084-.536.19-.512.214.05.507.472.563.94.032.278-.008.595-.152.705-.055.037-.31.367-.113.6.225.26.48.223.618.153.594-.309.446-.95.417-1.614-.014-.35-.146-.716-.254-.864-.168-.242-.093-.27-.184-.355-.181-.166-.349-.148-.345-.235.022-.279.37-.49.428-.564.094-.112.352-.328.403-.554.097-.427-.558-.493-.726-.399Zm-18.346 11.96c-.284.037-.28.389-.28.678l-.007.215c-.04.429-.727.935-1.35 1.197l-.168.07c-.301.136-.535.24-.909.1-.163-.057-.317-.359-.347-.671-.024-.245.036-.436.17-.513.057-.036.075-.018.104.017.072.071.153.115.459-.118.028-.021.034-.095.043-.239.01-.119.022-.254.05-.337l.105-.247.067-.174a.74.74 0 0 0-.27-.685c-.234-.182-.56-.22-.87-.099-.46.18-.876.563-1.243.897-.373.341-.699.636-.996.668-.105.012-.184-.032-.254-.075-.072-.034-.133-.075-.2-.046-.094.037-.179.198-.281.542-.023.062-.023.187-.019.334.004.23.009.52-.094.61a.13.13 0 0 1-.11.024.12.12 0 0 1-.096-.065c-.093-.17.053-.567.055-.572s.024-.336.024-.336c0-.102-.003-.195.018-.279.133-.471.535-.607.961-.751.222-.071.524-.382.574-.465.088-.163-.086-.313-.227-.434l-.022-.019c-.235-.2-.448-.233-.655-.102-.174.112-.373.37-.603.668-.177.225-.36.456-.55.654l-.067.07c-.401.396-.85.88-.803 1.098a.11.11 0 0 0 .079.089c.183.072.338-.136.473-.316.107-.146.202-.274.283-.232.034.019.045.036.05.063.017.043-.01.119-.07.22l-.03.043c-.071.118-.142.223-.153.531-.011.434.084.522.243.665l.166.161c.073.083.09.226.103.321l.025.104c.11.103.188.089.238.073.047-.008.074-.012.109.033.08.112.072.402.018.443-.006.005-.011.011-.039-.02-.06-.077-.208-.038-.266-.024-.156.043-.194.176-.226.294l-.027.087c-.155.428.08.616.328.747.15.075.279.139.522-.012.21-.133.21-.504.21-.895v-.126c.001-.366.035-.679.087-.862a.96.96 0 0 0 .002-.516l-.023-.189c.023-.243.145-.348.305-.48.083-.069.177-.147.267-.257l.203-.254c.246-.316.443-.567.808-.816.12-.08.24-.201.356-.318.16-.16.321-.325.495-.398l.032-.017c.156-.067.44-.198.546-.105.04.028.16.275.12.404-.016.049-.047.071-.104.076-.088.006-.104-.043-.12-.126-.013-.056-.027-.11-.08-.137-.09-.044-.367.03-.373.032-.103.026-.17.157-.255.312a1.6 1.6 0 0 1-.213.332c-.323.364-.342.973-.193 1.386.173.476.45.631.615.725l.1.065c.404.349.94.599 2.117.063.776-.35 1.351-.873 1.58-1.437.103-.255.022-.893-.207-1.189q-.135-.177-.31-.157Zm1.83-71.776.017.008-.218 3.156-1.65-.566 1.85-2.598Zm-3.348 4.718.961-1.335 2.126.736-.082 1.634 1.17.407.145-6.875-1.24-.428-4.21 5.468zm-23.839 2.215L47.11 30.42l.017-.01 4.097 3.736 1.303-.6-2.725-5.948-.99.454 2.139 4.669-.016.009-4.116-3.761-1.302.59 2.732 5.949zm32.024.32-1.905-1.006 2.606-4.943-1.06-.558-3.055 5.785 2.97 1.566.444-.843Zm-20.248-9.311c.34-.024.607.026.801.135q.294.169.33.729.036.507-.242.77c-.182.172-.438.273-.755.294l-.486.033-.133-1.929zm-.1 5.648-.195-2.806.274-.018a1 1 0 0 1 .567.108q.24.129.385.514l.79 2.078 1.275-.088-1.02-2.432a2 2 0 0 0-.19-.355.8.8 0 0 0-.2-.212.6.6 0 0 0-.192-.101 1 1 0 0 0-.193-.038v-.03c.364-.08.652-.26.873-.548q.326-.424.285-1.07a2 2 0 0 0-.195-.764 1.4 1.4 0 0 0-.433-.503 1.7 1.7 0 0 0-.64-.273 3 3 0 0 0-.797-.047l-2.037.136.445 6.529zm-6.986-3.97a1.2 1.2 0 0 1 .328-.509q.213-.186.487-.256a1.13 1.13 0 0 1 1.073.3q.248.232.461.663.22.431.38 1.086.162.656.168 1.134.008.484-.1.803a1.11 1.11 0 0 1-.812.764 1.1 1.1 0 0 1-.544.002 1.13 1.13 0 0 1-.525-.3c-.166-.157-.317-.377-.465-.665a5 5 0 0 1-.377-1.083 5 5 0 0 1-.17-1.134 2.5 2.5 0 0 1 .096-.805m-.557 3.66c.244.377.512.669.814.877.3.202.613.334.954.384a2.52 2.52 0 0 0 1.9-.47c.279-.2.498-.466.665-.786q.252-.48.31-1.151.052-.671-.153-1.53c-.144-.566-.332-1.04-.573-1.418a3 3 0 0 0-.81-.881 2.3 2.3 0 0 0-.958-.387 2.6 2.6 0 0 0-.997.045 2.6 2.6 0 0 0-.903.427q-.415.304-.668.79-.25.479-.31 1.15-.054.672.159 1.525.21.857.57 1.425m13.379-5.229.019.002.867 5.61.843.111 2.319-5.208.014.002-.686 5.413 1.08.138.822-6.491-1.716-.218-1.986 4.67-.017-.002-.722-5.016-1.78-.227-.825 6.493 1.08.138zm29.11 31.18.925-.25-.618-2.254 1.86-.51.562 2.046.921-.254-.557-2.044 1.682-.458.591 2.161.921-.25-.907-3.322-6.311 1.727zM84.577 38.881q.22.367.575.668.349.303.739.465.391.166.812.142.419-.017.847-.248.43-.232.852-.724l2.767-3.205-.906-.783-2.771 3.206q-.532.619-.93.69-.396.072-.786-.262c-.264-.234-.392-.478-.382-.748q.01-.405.546-1.018l2.767-3.21-.908-.785-2.769 3.208q-.423.492-.588.946-.165.461-.125.877.04.422.26.781m17.219 20.095.06.482c.036.334.007.603-.1.803q-.152.3-.709.365-.506.059-.781-.21-.275-.263-.332-.737l-.055-.485zm-5.585.64 2.793-.322.031.27q.038.325-.081.571-.115.244-.495.408l-2.039.89.146 1.265 2.38-1.133q.214-.1.349-.205.132-.105.203-.205a.6.6 0 0 0 .087-.202 1 1 0 0 0 .03-.193l.028-.002q.148.54.59.847.439.312 1.084.235.449-.05.752-.23.308-.174.486-.455c.12-.187.202-.407.241-.651.041-.245.044-.514.011-.797l-.232-2.03-6.503.746zm-7.692-16.882 3.969-3.2.016.014-2.615 4.888.899 1.117 5.096-4.104-.68-.85-4.001 3.224-.013-.011 2.635-4.922-.894-1.108-5.094 4.106zm5.391 8.617 6.785-.867-.506-1.125-5.16.83-.007-.017 4.058-3.277-.532-1.178-5.156 4.482zm-1.798-3.575 5.593-3.398-.624-1.026-5.594 3.398zm-55.246-1.735L31.358 42.5l-.648 1.011 5.503 3.54.651-1.009Zm-2.769 5.016-2.606-1.24.833-1.751 2.607 1.238.515-1.082-5.912-2.812-.51 1.086 2.402 1.144-.833 1.75-2.404-1.14-.516 1.084 5.909 2.805zm-8.289 11.737 5.582.282.062-1.199-5.583-.281.073-1.451-.952-.05-.209 4.11.955.05zm.943-7.676q.337.475.88.83c.36.235.773.419 1.227.546.467.132.91.19 1.34.178q.64-.02 1.176-.256c.36-.162.668-.399.935-.712q.401-.47.606-1.193a5.3 5.3 0 0 0 .168-.827q.039-.392-.009-.6l-1.073-.235c.059.158.088.342.099.55.005.206-.031.454-.11.734q-.104.36-.317.645-.219.284-.565.45-.341.169-.816.188c-.315.017-.679-.036-1.089-.15-.408-.116-.742-.257-1.002-.44a2.1 2.1 0 0 1-.603-.586 1.54 1.54 0 0 1-.24-.679 1.8 1.8 0 0 1 .066-.716c.085-.293.19-.522.33-.69.139-.166.252-.302.35-.406l-1.022-.354a7 7 0 0 0-.321.498 3.5 3.5 0 0 0-.333.828 3 3 0 0 0-.105 1.309c.065.407.207.766.428 1.088m.083 14.257c.424-.04.763-.163 1.012-.382a2.4 2.4 0 0 0 .605-.834l.284-.638a5 5 0 0 1 .19-.394q.087-.165.188-.285c.07-.076.15-.14.23-.178a.9.9 0 0 1 .304-.08q.242-.022.428.041a.86.86 0 0 1 .512.495c.051.118.078.238.09.37q.044.476-.07.855a3.4 3.4 0 0 1-.209.563l1.074-.03c.163-.343.214-.844.158-1.512a3 3 0 0 0-.2-.852 2 2 0 0 0-.425-.658 1.7 1.7 0 0 0-.655-.408 2.1 2.1 0 0 0-.879-.09q-.342.03-.598.123a1.4 1.4 0 0 0-.436.25 1.8 1.8 0 0 0-.337.383 3.4 3.4 0 0 0-.282.53l-.332.734c-.043.099-.082.191-.131.272a1.3 1.3 0 0 1-.157.24.7.7 0 0 1-.217.171.7.7 0 0 1-.308.087.73.73 0 0 1-.573-.179q-.237-.212-.274-.66-.038-.42.035-.722.069-.301.133-.526l-1 .032c-.025.098-.054.265-.098.504q-.06.357-.016.882c.022.272.085.53.18.771.096.242.23.452.393.625q.252.261.599.4.347.14.782.1M38.299 44.03l-3.883-3.3.012-.015 5.284 1.651.932-1.09-4.983-4.241-.709.828 3.918 3.328-.017.015-5.32-1.67-.925 1.085 4.985 4.24.706-.83Zm1.528-9.4.016-.015 2.573 1.841-1.349 1.11zm2.262 5.32-.637-1.513 1.744-1.427 1.352.929.957-.785-5.775-3.73-1.018.832 2.446 6.454z" fill="#ac1e32"/></g><defs><filter id="a" x="-13" y="0" width="154" height="157" filterUnits="userSpaceOnUse" color-interpolation-filters="sRGB"><feFlood flood-opacity="0" result="BackgroundImageFix"/><feColorMatrix in="SourceAlpha" values="0 0 0 0 0 0 0 0 0 0 0 0 0 0 0 0 0 0 127 0" result="hardAlpha"/><feOffset dy="16"/><feGaussianBlur stdDeviation="6.5"/><feColorMatrix values="0 0 0 0 0 0 0 0 0 0 0 0 0 0 0 0 0 0 0.03 0"/><feBlend in2="BackgroundImageFix" result="effect1_dropShadow_49_9104"/><feBlend in="SourceGraphic" in2="effect1_dropShadow_49_9104" result="shape"/></filter></defs></svg>