<svg width="128" height="137" fill="none" xmlns="http://www.w3.org/2000/svg"><g filter="url(#a)" fill-rule="evenodd" clip-rule="evenodd" fill="#243881"><path d="M80.904 38.264c-.37-.309-.453-.563-.303-.77.303-.42.925.232 1.378-.307l4.36-5.221c.458-.547-.287-1.022.075-1.431.168-.19.42-.174.79.135l4.575 3.822c.588.492.594.94-.146 1.859-.18.22-.426.386-.594.215s-.088-.453-.177-.933c-.069-.362-.163-.633-.574-.975l-1.43-1.196a.866.866 0 0 0-1.216.113l-1.557 1.864 1.988 1.66c.456.381 1-.132 1.279.1.223.187-.155.74-.517 1.173-.483.58-.95 1.063-1.173.864-.285-.25.196-.83-.34-1.278l-1.966-1.643-1.558 1.864a.86.86 0 0 0 .105 1.215l1.616 1.35c.42.35.8.365 1.154.32.445-.05.713-.16.917-.055.276.147.177.414.02.58-.82.87-1.315 1.182-1.856.727z"/><path d="M64.001 22.226c-23.036 0-41.775 18.742-41.775 41.775 0 23.034 18.74 41.773 41.775 41.773 23.034 0 41.773-18.74 41.773-41.773s-18.74-41.775-41.773-41.775m0 85.774C39.74 108 20 88.264 20 64.001 20 39.74 39.74 20 64.001 20S108 39.739 108 64.001C108 88.264 88.261 108 64.001 108"/><path d="M64.001 36.84C49.023 36.84 36.84 49.023 36.84 64s12.184 27.16 27.162 27.16c14.976 0 27.16-12.184 27.16-27.16C91.16 49.023 78.977 36.84 64 36.84Zm0 56.549c-16.204 0-29.387-13.183-29.387-29.388 0-16.204 13.183-29.387 29.387-29.387C80.203 34.614 93.39 47.797 93.39 64c0 16.205-13.186 29.388-29.388 29.388Zm32.102-29.415c-.712.03-.535.773-.963.834-.254.036-.412-.163-.434-.644l-.1-2.402c-.018-.461.095-.655.352-.638.414.03.347.792 1.06.762l6.942-.29c.713-.027.575-.812 1.077-.875.26-.033.412.185.431.668l.099 2.397c.02.48-.132.654-.378.646-.505-.022-.428-.776-1.143-.748z"/><path d="M103.134 52.933c.26.956.191 1.608.155 2.094-.025.323-.124.682.207.88.475.293.251.68-.146.9a11 11 0 0 1-1.856.782c-.246.075-.514.089-.602-.176-.149-.437.469-.685.966-1.668.362-.716.478-1.522.197-2.433-.313-1.022-.964-1.464-1.704-1.1-1.682.83.853 5.711-2.776 6.791-1.924.575-3.565-.359-4.227-2.806-.221-.814-.188-1.69-.075-2.383.07-.422-.45-.42-.525-.773-.06-.282.243-.558.575-.806a9.2 9.2 0 0 1 1.93-1.085c.533-.205.815-.1.903.22.182.66-2.032 1.93-1.582 4.294.26 1.376.977 1.903 1.897 1.655 2.09-.564-.718-5.637 2.74-6.943 1.628-.613 3.324.337 3.923 2.557m-.464 21.584c.321-.022.517-.199.577-.508l1.257-6.686c.061-.312-.061-.546-.351-.684-.29-.136-1.16-.387-1.45-.442-.226-.042-.444-.003-.521.254-.172.552 1.135 1.314.991 2.093l-.075.395a.54.54 0 0 1-.626.428l-6.727-1.268c-.702-.132-.448-.875-.829-1-.243-.08-.42.045-.5.478l-.475 2.525c-.077.41.036.615.293.626.381.017.434-.762 1.135-.63l6.724 1.268a.535.535 0 0 1 .428.627l-.072.392c-.149.779-1.643 1.014-1.687 1.59-.019.269.171.385.398.426.29.055 1.19.135 1.51.116m-10.156.544c.193-.439.383-.503.618-.4.53.232-.09.778.563 1.063l2.378 1.04 5.079-.723s.411-.082.615-.19c.445-.23.671-.459.92-.392.246.066.279.331.19.527l-1.231 2.822c-.116.271-.348.36-.552.227s-.147-.497-.373-.76c-.166-.19-.464-.13-.464-.13l-3.496.498 2.129 2.93s.18.257.381.223c.276-.041.577-.588.897-.546.191.025.313.226.174.543l-.966 2.21c-.102.234-.31.384-.505.207-.208-.18-.141-.594-.335-1.105-.138-.356-.265-.51-.265-.51l-3.01-3.969-2.38-1.038c-.655-.287-.632.541-1.165.31-.235-.103-.315-.285-.125-.727zM31.45 61.287a.805.805 0 0 0 .9-.693l.093-.732c.152-1.177-.712-2.593-3.338-2.93-2.477-.315-3.864.522-4.038 1.894-.063.5-.107.823-.107.823-.056.44.26.84.701.895zm-6.316 1.212c-.752-.096-.865.701-1.381.624-.218-.036-.384-.243-.323-.707l.442-3.465c.436-3.386 2.664-4.51 5.39-4.162 2.95.378 4.788 2.367 4.413 5.305l-.456 3.576c-.063.478-.262.61-.472.602-.52-.025-.362-.842-1.069-.933zm-.796 9.674c-.055-.329.08-.564.312-.58.486-.042.616.665 1.19.569.431-.075 3.104-.53 4.817-.823 1.303-.221 2.333-.856 2.032-2.607-.248-1.453-1.516-1.942-2.814-1.72-.983.168-4.634.792-4.706.803-.137.025-.38.091-.494.29-.168.298-.232.674-.491.76-.24.077-.423-.078-.459-.29l-.362-2.113c-.058-.343.086-.472.299-.497.257-.028.397.303.75.513.15.094.399.036.553.009l4.593-.785c1.836-.312 3.924.105 4.437 3.107.483 2.833-1.066 4.344-3.117 4.695-1.74.298-4.261.729-4.673.798-.624.107-.467.897-.922.988-.243.05-.434-.127-.492-.47zm14.7-25.909c-.354.4-.58.404-.73.213-.237-.304.453-.991-.082-1.46l-5.26-4.618c-.537-.472-1.006.434-1.464.102-.197-.14-.18-.408-.003-.607l1.099-1.254c.569-.646.95-.707 1.778-.596 1.185.157 6.175.748 6.175.748l-3.44-3.024c-.537-.47-1.103.32-1.498.05-.19-.127-.215-.367.105-.73l1.323-1.51c.235-.265.475-.282.627-.072.251.343-.334.923.204 1.395l5.744 5.042c.434.382.437.785.163 1.122-.152.19-.425.317-.84.27l-8.458-1.146 4.512 3.963c.536.47 1.039-.265 1.392-.025.188.13.194.381-.11.726zm32.052-13.57c-.119.705.638.793.616 1.174-.014.257-.216.376-.69.296l-2.397-.41c-.464-.076-.619-.253-.558-.502.1-.406.85-.201.969-.905l1.157-6.832c.119-.704-.64-.765-.61-1.207.016-.235.234-.36.693-.282l2.394.406c.464.08.627.254.558.506-.133.455-.856.223-.975.925zm21.893 10.152.69 1.071c.663 1.027 1.66 1.577 2.837.82.814-.524 1.085-1.397.179-2.8-.5-.776-.92-.883-1.397-.577zm-5.57 1.013c-.262-.406-.22-.621.006-.737.32-.163.67.458 1.245.088l5.78-3.722c.6-.387.121-1.02.577-1.295.221-.133.467-.02.726.384l2.392 3.714c1.03 1.593 1.024 3.457-.577 4.396-1.207.707-2.453.243-3.328-.39 0 0-1.378 2.494-1.626 2.964-.332.624.09 1.226-.293 1.524-.16.124-.384.088-.525-.13l-1.693-2.629c-.102-.157-.116-.433.108-.527.293-.119.514.273.812.234.232-.03.35-.24.43-.383.084-.158 1.415-2.59 1.415-2.59l-.834-1.296-2.262 1.456c-.602.386-.13.914-.434 1.17-.185.152-.414.105-.673-.298zM48.518 26.603c.315-.114.569-.025.627.201.124.473-.547.727-.348 1.273l1.665 4.593c.447 1.242 1.237 2.093 2.908 1.485 1.386-.502 1.66-1.784 1.21-3.024l-1.627-4.487c-.047-.132-.155-.359-.373-.436-.323-.113-.701-.11-.831-.345-.122-.224 0-.431.198-.506l2.016-.729c.329-.119.484-.003.544.205.075.245-.229.447-.375.83-.06.164.038.398.091.545l1.588 4.38c.635 1.75.594 3.882-2.267 4.918-2.704.98-4.466-.276-5.175-2.234-.602-1.66-1.472-4.065-1.613-4.457-.218-.594-.967-.299-1.14-.732-.092-.23.052-.447.378-.566zm9.861 7.069c-.533.02-.69-.143-.654-.381.055-.381 1.03-.353 1.002-1.066l-.262-6.992c-.028-.713-1.008-.43-1.08-.991-.033-.243.171-.412.436-.423l1.668-.063c.859-.03 1.166.204 1.654.88.702.97 3.703 4.999 3.703 4.999l-.17-4.576c-.028-.715-.99-.58-1.067-1.052-.038-.23.122-.409.602-.428l2.008-.075c.353-.014.53.152.483.403-.077.42-.897.395-.873 1.108l.288 7.638c.022.575-.268.856-.705.892-.24.02-.521-.094-.77-.425l-4.984-6.929.223 5.998c.028.713.909.575.978.997.036.224-.147.398-.605.417zm-6.647 32.969c-.516.39-1.176.517-1.811.539-1.522.196-2.933.113-4.36-.489-1.144-.765-1.37-1.8-1.539-3.096 3.112-.414 5.957-1.093 9.074-.397.039 1.312-.21 2.576-1.364 3.443m-6.647-10.416c1.047-.828 2.243-.994 3.532-1.035.859.082 1.729.09 2.58.237.759.105 1.352.619 1.62 1.309.37.936.365 1.582.276 2.57-3.192.136-6.19.423-9.383.368.008-1.397.257-2.485 1.375-3.449M80.2 45.671c-1.367-.11-3.457-.207-4.824-.086-4.477.144-6.47.903-10.936 1.193-.662-.005-.972-.853-.809-1.521.423-1.461 1.069-2.066 1.257-3.593.154-.862-.268-1.74-.912-2.295-1.27-.792-3.277-.03-3.553 1.488-.351 1.417-.6 2.096-1.373 3.358-1.118 1.762-2.665 3.187-3.974 4.8-.284.378-.654.74-.682 1.242.089.895.989 1.638 1.889 1.472 1.547-.207 2.87-1.135 3.99-2.165.221.155.508.254.669.48-1.188 1.719-2.836 3.102-3.9 4.922-.254.453-.414.972-.809 1.33-.196-1.413-.364-2.976-1.737-3.769-2.507-1.458-7.215-1.7-10.446-.397a7.2 7.2 0 0 0-1.806 1.021c-.812.61-1.182 1.56-1.453 2.373-.883 3.14-1.182 6.276-.726 9.5.334 2.545 2.212 4.793 4.625 5.644 1.464.519 3.049.306 4.568.273 2.173-.072 4.319-.53 5.912-2.124 1.312-1.441 1.497-3.47 1.693-5.318.086-1.483 1.279-2.662 1.814-3.993.48-1.135 1.052-2.494 1.547-2.903s.814.216.63.442c-2.121 4.41-2.643 10.486-2.671 15.313-2.585-.16-5.145-.042-7.724.105-1.337.074-3.468.124-5.912.588-.48.09-1.988.566-2.447.79-1.262.72-.688 2.532.298 3.396.594.517 3.077.025 3.532-.055 5.02-1.074 7.594-1.09 12.101-.98.075 2.438.105 5.086.646 8.168.235 1.466.285 2.977 1.315 4.153.508.638 1.425.641 2.148.453.81-.279.961-1.273.992-2.019-.086-1.341-.373-2.454-.459-3.796a78 78 0 0 1-.329-6.054c-.052-3.15-.34-6.315.003-9.46.025-.738.158-1.464.227-2.199.223-1.45.34-2.93.745-4.346.426-1.547 1.108-3.021 1.403-4.606.097-1.392-.95-2.519-1.102-3.866-.1-.622.346-1.157.831-1.478.788-.513 1.724-.698 2.602-1.002 1.267-.431 2.61-.406 3.93-.528 2.421-.085 3.714-.439 6.133-.229 1.48.036 2.847.254 4.332.24.793.028 1.461-.389 1.536-1.118.1-1.281-1.14-2.706-2.784-2.844"/><path d="M79.016 55.145c-3.474.105-6.302.304-9.776.224-.249 0-.494-.108-.619-.312-.124-.207-.245-.56.13-.817.563-.384 1.384-.288 2.035-.324 3.052-.138 5.424-.201 8.478-.151.301.005.638 0 .97.05.494.071.748.538.546.935-.199.398-1.149.351-1.764.395m4.031-3.112c-1.692-1.124-3.827-1.25-5.796-1.105-1.602.04-3.203-.033-4.805.047-1.84.296-3.209-.071-4.954.71-.856.436-1.71 1.146-1.886 2.138-.039.798-.008 1.62.26 2.38.231.707.822 1.334 1.576 1.45 3.712.433 6.862.036 10.585.182 1.811-.005 3.808-.105 5.277-1.298.489-.331.613-.947.732-1.488.204-1.075-.044-2.353-.989-3.016M79.86 63.038c-.245.027-.71.06-.927.074-2.67.155-3.745.323-7.572.304-1.017-.008-2.105.025-2.88-.083-.34-.047-.638-.16-.641-.386a.58.58 0 0 1 .364-.528c.426-.168 1.306-.248 2.323-.268 2.046.003 4.087-.149 6.13-.182 1.14-.066 2.21-.166 3.347-.014.735.1.765.591.644.743-.105.13-.47.304-.787.34Zm4.485-2.058c-.27-.825-.784-1.474-1.817-1.745-1.497-.39-3.61-.447-6.08-.392-1.997.044-4.405.124-5.579.213-1.17.085-1.9.121-2.78.256-1.083.166-1.773.61-2.304 1.16a3.7 3.7 0 0 0-.825 1.356c-.398 1.486-.07 2.897 1.148 3.783.671.49 1.632.597 2.486.583 4.388-.251 8.8.041 13.175-.445 1.046-.113 1.969-.803 2.48-1.709.513-.936.416-2.074.096-3.06m-5.012 13.791c-1.027.122-2.742.334-3.918.453a24 24 0 0 1-.009-2.021c1.295-.091 3.071-.5 4.374-.346-.041.743-.005 1.273-.447 1.914m4.082-7.044c-.625-.216-1.202.21-1.685.546-.671.597-1.193 1.751-1.974 1.829-1.155.115-2.947.361-4.22.466.334-.544.652-.986 1.033-1.452.676-.702.886-1.257.588-1.73-.204-.325-.572-.43-1.063-.394-2.836.202-6.053.224-9.016.5-.953.088-.773 1.817.116 2.2 1.074.468 3.029-.018 4.1-.005-.05.5-.118.983-.118 1.3-1.381.274-1.933.29-3.413.545-1.668.3-3.027.414-3.693 1.035-.555.517-.745 1.232-.502 1.93.132.39.997 1.282 2.3.945.961-.251 1.861-.715 2.488-.955.98-.373 1.908-.608 2.781-.68.102.785.121.936.119 1.72-1.447.236-2.444.542-3.712.912-.809.27-2.021.74-2.554 1.146-.503.384-1.18.853-1.248 1.439-.282 1.237.809 2.452 1.458 2.366.933-.127 2.118-.875 2.891-1.322 1.276-.735 2.361-1.315 3.783-1.42.216.495.406 1.743.66 2.414.475 1.27 1.168 2.496 2.107 3.775.61.836 1.762 1.342 2.555.892.812-.464.599-1.925.4-2.66-.569-1.847-1.03-1.877-1.494-3.752-.036-.202-.345-1.044-.337-1.249.57-.196 2.027-.45 2.858-.397 1.525.094 2.03.408 2.969.11.569-.182.743-.574.812-.768a95 95 0 0 0 2.129-6.873c.276-.911-.196-2.076-1.118-2.413M32.47 49.059l-3.476-.218 2.491 2.43zm-.203 2.98s1.126 1.096 1.441 1.413c.5.498.81-.392 1.232-.262.25.08.273.315.165.558l-.82 1.84c-.1.217-.268.35-.47.267-.375-.152-.107-.8-.582-1.281-.439-.445-5.912-5.948-6.144-6.183-.26-.265-.354-.644-.166-1.058.213-.464.666-.56.997-.55.831.028 8.306.442 8.726.456.425.014.72-.47 1.072-.34.245.092.265.393.154.639L36.74 50.08c-.116.262-.547.298-.616-.166-.055-.381-.154-.627-.638-.66-.27-.02-1.924-.124-1.924-.124zm51.987-23.216c.403.18.538.39.436.607-.157.33-.604.147-1.112.39-.274.127-.61.535-.61.535s-4.96 5.104-5.342 5.499c-.386.4-.817.701-1.59.359-.735-.326-.784-.98-.765-1.445.022-.466.43-7.185.43-7.185s.045-.552.012-.88c-.064-.655-.644-1.056-.448-1.445.11-.221.348-.26.69-.108l2.627 1.166c.367.16.456.345.362.571-.124.298-.65.268-.895.453-.226.171-.31.754-.31.754l-.378 6.117 4.366-4.515s.307-.335.307-.597c0-.439-.597-.704-.4-1.066.099-.177.32-.226.601-.102zM37.643 79.772c.199.44.138.685-.102.77-.395.144-.646-.615-1.298-.323l-6.227 2.795c-.652.293-.249 1.01-.72 1.226-.216.097-.448.03-.647-.408l-2.463-5.485c-.373-.834.453-1.275.939-1.507.35-.166.654-.194.767.096.061.155-.027.37-.212.795-.202.473-.288.658-.05 1.185l.782 1.737a.725.725 0 0 0 .96.362l2.279-1.025-.928-2.068c-.282-.627-1.105-.138-1.24-.69-.072-.296.5-.633.93-.829.774-.348 1.45-.607 1.616-.31.226.41-.572.677-.265 1.362l.928 2.069L35.42 78.3c.608-.273.16-1.035.586-1.226.226-.102.447.044.643.48zm7.213 17.602c-.34.552-.306.966.133 1.425.408.428.552.729.392.972-.194.29-.525.152-.765.002l-3.927-2.418c-.447-.277-.505-.525-.35-.746.184-.268.69-.144 1.126-.039.875.216 1.085-.066 1.323-.455l2.648-4.294c.461-.749.124-1.025-.16-1.263-.199-.165-.36-.287-.56-.444-.205-.163-.354-.434-.122-.68.243-.254.84.014 1.585.2 1.223.303 1.676.124 2.192.416.497.28.547.738.32 1.102zm13.208-.152c.216-1.033.147-2.342-1.138-2.61-1.223-.256-1.866.707-2.093 1.933-.168.928.009 2.229 1.188 2.491 1.2.268 1.775-.538 2.043-1.814m-2.996 2.877c-2.057-.444-3.15-1.828-2.723-3.871.52-2.477 2.773-3.082 4.73-2.67 2.555.535 3.845 2.631 3.325 5.116-.734 3.505-4.147 5.361-7.5 4.839-.353-.056-.84-.205-.812-.492.036-.362.801-.387 1.541-.594 2.152-.607 2.994-1.46 3.397-2.388-.572.234-1.345.196-1.958.06m25.339-5.47a5.6 5.6 0 0 1 1.566-1.701c1.621-1.201 3.659-1.447 4.882.226 1.652 2.256.431 4.61-1.963 6.004-1.477.859-3.032.726-3.709.055-.428-.425-.29-1.121.252-1.43.463-.268.927-.103 1.367.212.723.52 1.25.423 1.728.152 1.003-.572 1.24-1.729.246-3.132-.737-1.038-1.737-1.209-2.723-.45-.817.63-1.146 1.657-1.599 1.945-.328.21-.571-.042-.731-.31l-2.218-4.004a.44.44 0 0 1 .138-.585l5.065-3.386a.37.37 0 0 1 .555.188l.45 1.21a.516.516 0 0 1-.202.593l-4.04 2.698zm-9.182 8.445c1.14-.23 1.461-1.768.915-4.493-.547-2.72-1.445-4.052-2.588-3.82-1.14.23-1.51 1.812-.964 4.532.525 2.615 1.566 3.999 2.637 3.781m-1.908-9.331c2.748-.556 4.86 1.057 5.501 4.241.585 2.916-.373 5.487-3.338 6.136-2.569.561-4.968-.975-5.598-4.371-.644-3.45 1.06-5.531 3.435-6.006"/></g><defs><filter id="a" x="-13" y="0" width="154" height="157" filterUnits="userSpaceOnUse" color-interpolation-filters="sRGB"><feFlood flood-opacity="0" result="BackgroundImageFix"/><feColorMatrix in="SourceAlpha" values="0 0 0 0 0 0 0 0 0 0 0 0 0 0 0 0 0 0 127 0" result="hardAlpha"/><feOffset dy="16"/><feGaussianBlur stdDeviation="6.5"/><feColorMatrix values="0 0 0 0 0 0 0 0 0 0 0 0 0 0 0 0 0 0 0.03 0"/><feBlend in2="BackgroundImageFix" result="effect1_dropShadow_49_8860"/><feBlend in="SourceGraphic" in2="effect1_dropShadow_49_8860" result="shape"/></filter></defs></svg>