<svg width="128" height="128" fill="none" xmlns="http://www.w3.org/2000/svg"><path fill-rule="evenodd" clip-rule="evenodd" d="M64 21.55c-23.44 0-42.45 19.01-42.45 42.45S40.56 106.45 64 106.45c23.442 0 42.45-19.01 42.45-42.45S87.442 21.55 64 21.55m0 10.5c-17.64 0-31.948 14.307-31.948 31.95S46.36 95.95 64 95.95c17.643 0 31.951-14.307 31.951-31.95s-14.308-31.95-31.95-31.95Zm0-.951C45.834 31.099 31.1 45.83 31.1 64c0 18.169 14.735 32.901 32.901 32.901s32.901-14.732 32.901-32.9c0-18.17-14.735-32.902-32.9-32.902Zm2.975 43.884v3.952c1.753 1.733 3.401 2.849 6.06 3.162l-.05-7.114zm8.699.024v7.127c1.464-.289 3.29-.925 5.989-3.226v-3.886zm.027-2.932h5.962V67.42H75.7v4.654Zm-8.729-4.614.008 4.597 5.947-.033.059-4.564zm-4.381-22.39v2.498l4.401.074v3.217l6.855 2.913 7.307-2.881.072-3.3 3.747-.07c.205 3.079 1.378 6.754 2.503 8.191.635.768 2.627-.22 1.797-1.017-.952-1.261-1.305-1.965-1.74-4.14-.23-.758.28-2.752-.748-3.38-.257-.044-1.577.408-1.51-.19v-1.819zm-19.616 13.31c.393 6.792.264 13.156-.773 25.336l3.91.165c.704-9.21 1.21-18.107.771-25.488l-3.908-.012Zm-.308-6.556-.013 3.804 6.737-.025-.03 30.194 4.239.061.333-30.267 6.811-.012.005-3.79zm.17-3.086h17.492v-3.384H42.837zm12.928 9.954.484 25.498 4.238-.186-.627-25.364zm7.974-6.947.071 6.823c4.735 5.717 17.399 3.496 20.141-.18l-.032-6.717c-1.027-.286-2.634-.128-3.725.101l.022 4.644c-2.49 3.354-10.861 3.147-12.765.027l-.044-4.698c-.709-.378-2.958-.309-3.668 0m-.645 12.708v14.449c2.44 8.423 18.961 9.911 22.44 0l-.065-14.528-22.375.08ZM64 33.992c-16.569 0-30.008 13.437-30.008 30.008 0 16.572 13.439 30.008 30.008 30.008 16.572 0 30.008-13.436 30.008-30.008S80.572 33.992 64 33.992M26.27 65.837a2.05 2.05 0 0 0-2.049 2.049 2.05 2.05 0 0 0 2.05 2.049 2.05 2.05 0 0 0 2.048-2.05 2.05 2.05 0 0 0-2.049-2.048m75.245-.393a2.05 2.05 0 0 0-2.049 2.05 2.05 2.05 0 1 0 2.049-2.049Zm-.935-5.82 2.518.999q.414.165.548.311.137.18.241.543l.336-.066-.395-2.04-.336.067.02.101q.07.366-.076.499-.153.1-.529-.037l-1.765-.696 1.538-1.723q.175-.171.329-.096.118.08.18.38l.025.135.335-.066-.548-2.807-.333.064.012.067q.067.334.023.481-.042.147-.274.368l-2.084 2.31-1.205.235q-.592.15-.723-.518l-.047-.232-.333.064.573 2.94.333-.064-.025-.136q-.19-.794.491-.857zm.92-7.693.351.958q.185.514.074.699-.084.174-.709.548l.119.318 1.489-.686-.104-.287q-.242-.059-.301-.328l-1.422-3.903a.8.8 0 0 1-.05-.237.8.8 0 0 1 .072-.205l-.094-.256-1.594.4.128.353q.717-.118.893-.037.208.07.381.55l.36.992-3.742 1.363q-.598.253-.842-.42l-.106-.286-.319.116 1.072 2.943.32-.116-.071-.193q-.31-.755.353-.923zm-2.848-6.764.046.092q.338.588-.283.871l-3.096 1.575q-.529.309-.84-.296l-.046-.092-.301.153 1.251 2.46.301-.156-.059-.121q-.355-.622.267-.899l3.066-1.563c.382-.195.679-.09.883.314l.062.121.304-.156-1.252-2.458zm-6.725-1.402.133.198q.151-.018.21.064.039.058.114.294.277.715.526 1.083c.684.936 1.466 1.158 2.345.677q.51-.343.674-1.072.11-.567-.027-1.624-.111-1.199.256-1.447.519-.266.985.363c.373.595.321 1.21-.16 1.832l.19.284 1.064-.921-.096-.143q-.069-.037-.047-.008-.116-.048-.153-.103a2 2 0 0 1-.077-.237 4 4 0 0 0-.469-.998q-1.017-1.324-2.175-.668-.93.873-.555 2.224.262 1.177-.338 1.747c-.48.267-.896.154-1.26-.343q-.61-.902.235-1.965l-.19-.281zm.566-7.467-1.901 1.654.222.256q1.118 1.285 2.046.432.904-.83-.054-1.982zm-2.158 1.876.447.513q.018.436-.198 1.434c-.11.46-.175.768-.185.929q-.03.433.136.832.216.35.728.943.225.257.358.412l.205-.18q-.441-.561-.348-1.23a9 9 0 0 1 .175-1.098q.173-.785.18-1.195 1.082.728 1.901.06a1.33 1.33 0 0 0 .477-.956q.11-.86-1.124-2.227-.311-.36-.99-1.034-.177-.206-.604-.647a1 1 0 0 1-.183-.158l-.26.225.114.128q.539.57-.017.965l-2.597 2.257q-.491.47-.98-.141l-.089-.104-.256.222 1.987 2.289.257-.222-.178-.205q-.448-.517.042-.94zm-1.563-4.9q.45.25.018.992l.271.205.679-1.066-3.836-2.891-.205.271.081.062q.648.445.23.94L83.9 34.59q-.363.536-.914.08l-.272-.205-.204.271 4.186 3.157.904-1.027-.272-.205q-.71.66-1.32.114l-1.173-.881q-.338-.173-.005-.56l.943-1.25 1.034.778c.496.318.585.64.257.963l.272.205 1.044-1.388-.272-.205q-.364.536-.883.1l-1.143-.863 1.165-1.55zm-9.407-.02.498.222 3.367-3.123q.745-.75 1.306-.424l.032.012.139-.311-2.022-.899-.138.311.185.084q.64.32.303.655l-2.515 2.384-.052-3.229c-.012-.303.042-.488.173-.555q.193-.1.691.12l.124.058.14-.314-2.77-1.232-.138.311.062.03q.341.15.442.346.084.147.108.68zm-3.99-6.942.097.032q.659.178.414.815l-1.073 3.303q-.157.594-.803.385l-.099-.032-.103.323 2.621.852.107-.323-.131-.042q-.69-.19-.447-.827l1.064-3.271q.2-.614.847-.405l.128.042.106-.324-2.621-.851zm-6.695-.538 3.51 4.863.475.067.644-4.59q.034-.474.77-.338l.102.015.047-.338-2.225-.31-.047.337.1.013q.541.076.656.23.117.151.05.624l-.366 2.6-3.024-4.175-1.753-.247-.05.338q.409.057.652.262l-.56 3.982q-.042.545-.713.449l-.07-.01-.046.336 2.09.294.047-.336q-.919-.063-.743-.83zm-4.32-1.168h.136q.75-.034.714.884v2.11q-.034 1.57-1.701 1.603-1.534-.034-1.565-1.432v-2.587q-.002-.578.612-.578h.133v-.34h-2.722v.34h.17q.646-.033.614.578v2.587q.03 1.942 2.553 1.977 2.419-.033 2.451-2.248v-2.18q-.032-.748.783-.714h.069v-.34H64.36zm-16.6 3.192.123-.059q.655-.36 1.03.481l.925 1.899q.657 1.422-.83 2.184-1.393.643-2.034-.6l-1.133-2.325q-.255-.52.297-.787l.12-.06-.15-.308-2.447 1.195.149.308.155-.076q.566-.315.802.252l1.136 2.325q.88 1.73 3.16.657 2.16-1.093 1.22-3.096l-.956-1.96c-.24-.437-.109-.768.39-.983l.062-.032-.149-.306-2.021.985.15.306Zm-8.177 7.586q1.733 1.975 3.373.864 1.28-1.124-.013-2.883-1.733-1.925-3.3-.832-1.285 1.174-.06 2.851m-.748 1.13q1.794 1.836 4.155.102 2.345-2.031.745-4.33c-1.175-1.271-2.564-1.325-4.169-.173q-2.328 2.105-.73 4.402Zm-.822 4.392.262.22 1.795-2.14-.262-.217-.086.103c-.292.378-.6.415-.934.106l-2.66-2.234q-.519-.389-.055-.888l.109-.131-.262-.22-1.795 2.14.262.218.044-.052q.456-.596.956-.131l1.044.876-1.861 2.217-1.07-.898q-.519-.39-.031-.916l.086-.104-.26-.22-1.796 2.14.261.218.09-.104q.415-.493.883-.101l2.661 2.232q.497.417.08.913l-.085.104.26.22 1.794-2.14-.26-.218-.088.103q-.44.522-.935.107l-1.2-1.008 1.861-2.219 1.175.988q.52.436.106.933l-.089.104Zm-4.15 2.995-.17.296q.592.538.699.834.105.297-.119.682l-1.342 2.328-1.923-5.592-.415-.24-2.52 4.365 1.234.793.17-.296q-.848-.57-.43-1.23l1.175-2.034 1.923 5.589.413.24 2.757-4.777-1.451-.958Zm-7.03 6.448.05-.126q.248-.709 1.088-.33l1.958.79q1.44.616.847 2.179-.607 1.408-1.914.916l-2.4-.97q-.535-.216-.305-.785l.05-.126-.317-.126-1.022 2.525.319.126.064-.158c.14-.41.395-.523.765-.35l2.4.967q1.814.698 2.787-1.627.876-2.254-1.163-3.115l-2.022-.817q-.707-.248-.37-.992l.027-.065-.316-.126-.844 2.084zm-2.21 8.225.267-1.683q.019-.549.825-.42l.047-.304-1.21-.192-.689 4.34.304.049.017-.101q.057-.579.825-.422l3.463.547c.363.038.504.23.427.586l-.022.135.336.055.405-2.558-.336-.054-.027.17q-.033.646-.832.454l-1.377-.22.212-1.345q.067-.645.7-.508l.055-.338-1.716-.272-.051.338q.682.038.486.835l-.193 1.212-1.915-.304Zm65.198 36.629c-.148.148-.903.568-.027.61.603-.037.61-.388.67-.447.064-.131.014-.84-.642-.163Zm-4.386-5.43c-.052.118-.08.367-.032.458.03.06.074.094.135.111.033.01.043.02.07.04.098.081.214.086.36.089.242 0 .343.071.568-.052.323-.16.343-.822.63-1.247.263-.661.496-.355.476-.094-.07.921-.388 1.827-.674 2.499-.39.913-1.34 2.634-1.16 2.97.436.853 1.12.47 1.031-.035-.034-.282-.012-.457.17-.825.304-.642.759-1.533 1.149-2.133.58-1.073 1.518-.918 1.575-.096-.193 1.274-.67 1.094-1.452 1.755-.738 1.042-.086.835.173.595.025-.022.04-.037.067-.057l.051-.042c.588-.513.432.56.403.924-.005.071-.008.084.025.138.185.311-.015.469-.428.78a.3.3 0 0 1-.054.032c-.491.195-.365.496-.227.632.02.017.025.022.054.022.326.017.573.09.86.134q.017 0 .034.007c.308.094.58.037.871.057.548-.023 1.114-.534 1.185-1.309.04-.674-.5-.752.175-1.202.45-.373.77-1.096-.118-.933a.1.1 0 0 0-.044.015c-.21.116-.334.385-.864.8q-.047.037-.09.074c-.219.21-.777.58-.648-.348.002-.018.002-.032.002-.05-.007-.63.096-.654.311-.923.602-.884.745-2.69-.452-2.661-.387.015-1.232.696-.94-.205.027-.123.017-.202.05-.395l.001-.044c-.007-.59.282-1.509-.476-1.326l-.032.005c-.111.002-.163-.022-.304.032a.2.2 0 0 0-.054.027c-.281.18-.582.378-.758.652a.4.4 0 0 1-.108.126c-.321.252-.447.563-.966.684-.2.074-.414.04-.545.318Zm-.76.843c-.144.235-.057.556.004.694.015.03.02.057.028.086.1.403.313.341.53.319.36-.052.54-.057.613-.558.049-.24.13-.472-.257-.568a.3.3 0 0 1-.07-.022c-.073-.035-.152-.04-.273-.052-.02-.002-.028-.002-.042-.012-.099-.062-.287-.082-.474.052a.2.2 0 0 0-.06.061Zm-44.92-2.466c-.086.14.02.185.062.254.044.119.007.188.054.37.008.043.015.161.057.255q.004.009.005.017c-.01.227.022.264.054.385.003.005.003.01.01.015q.037.062.2.114a.1.1 0 0 1 .035.015c.143.081.358.153.52.1.067-.021.104-.11.094-.155l-.005-.024c.005-.183-.084-.25-.086-.36l-.002-.03c-.018-.104-.05-.22-.07-.326-.002-.018-.005-.023-.017-.037-.143-.183-.269-.368-.467-.563l-.022-.015c-.254-.136-.335-.079-.402-.03q-.008.004-.012.008zm1.072 2.007c-.605-.076-1.524-.015-2.178-.126a.1.1 0 0 0-.037 0c-.353.047-.654-.005-.725-.044-.015-.008-.023-.015-.038-.022-.407-.176-.222-.321-.4-.47l-.01-.007c-.086-.044-.234-.067-.375.104l-.007.012c-.244.464-.188.914-.037 1.034l.03.03c.19.207.488.222.666.23q.008 0 .015.002l.007.003c.17.076.102.175-.002.281a.04.04 0 0 1-.017.012c-.139.07-.252.09-.346.104l-.02.005c-.59.25-1.039.235-1.296.202-.565-.041-.933-.227-1.367.223a.2.2 0 0 0-.025.032c-.22.39-.22.62-.121.7.185.186.617-.014.91-.073l.013-.005c.183-.052.274-.08.48-.037.468.15.172.427.024.52-.77.549-.721.968-.602 1.119l.02.017c.194.15.32.07.434.022l.032-.014c.061-.042.133-.067.192-.119a.2.2 0 0 1 .047-.034c.045-.03.055-.052.077-.067l.034-.025c.035-.02.087-.034.129-.064.022-.017.047-.03.066-.05.208-.2.163-.3.511-.713.037-.044.067-.079.094-.126.21-.36.41-.086.558.074.05.055.104.1.148.156.131.168.264.12.398.138.012 0 .022.003.034 0 .22-.02.778-.116.689-.498-.101-.208-.304-.045-.462-.043q-.04.002-.079.008c-.202.02-.474-.086-.392-.417l.002-.013c.018-.113-.002-.212.126-.345a.6.6 0 0 1 .227-.138c.178-.055.282-.067.58-.178.015-.005.023-.008.037-.008.129-.007.225-.09.346-.11.074-.008.101-.023.153-.045q.11-.065.227-.114l.027-.007c.062-.015.102-.022.17-.06l.01-.007a2 2 0 0 1 .326-.165c.26-.146 1.124-.289 1.047-.59l-.007-.015c-.077-.133-.057-.207-.329-.279zm2.925 1.338c-.094-.31-.299-.247-.44-.274l-.02-.002c-.434-.003-.765.086-1.011.01-.336-.124-.563-.627-.948-.41a.1.1 0 0 0-.023.017c-.15.18-.066.365.065.484.113.101.266.101.313.197.089.15-.057.215-.128.245-.188.096-.26.18-.299.19l-.022.005c-.096.03-.198.02-.287.096a3 3 0 0 0-.452.178c-.093.061-.249.076-.375.113-.084.04-.13.037-.202.062-.101.044-.21.109-.284.121a.1.1 0 0 0-.047.015c-.103.057-.197.091-.316.183-.192.123-.308.269-.481.298a.1.1 0 0 0-.037.02c-.23.19-.35.378-.709.57-.217.136-.474.37-.659.42a.07.07 0 0 0-.042.027c-.33.326-.298.73-.187.827.224.195.563-.346.817-.546.2-.172.432-.234.637-.387.21-.158.44-.48.585-.56.348-.213.743-.41 1.093-.482.257-.054.968-.232.82.198-.091.138-.35.251-.523.377-.312.287-.39.257-.583.383-.286.4-.104.726.05.736.932.281 1.503.328 1.35 1.108-.556.938-.845 1.01-1.373 1.36-.41.116-1.046.163-1.165-.19.086-.21.232-.173.34-.318.043-.084-.054-.218.04-.306.136-.149.193-.124.388-.24.249-.148.518-.328.353-.553-.188-.63-.85-.38-1.168-.365-.111.002-.24.027-.291-.168-.015-.067-.057-.188-.267-.207-.224-.055-.417.2-.578.343-.071.069-.182.185-.182.264.005.205.034.538.11.622.156.155.34.16.517.252.18.135-.012.303-.217.313-.131.008-.388-.042-.413.087.023.16.287.187.373.207.208.05.215.215.208.309v.014c.032.316.167.408.352.536a.03.03 0 0 0 .015.01c.356.17.79.202 1.343.116.319-.072.454-.123.721-.385a.2.2 0 0 1 .064-.045c.143-.064.282-.185.366-.286q.008-.01.017-.017c.14-.104.306-.225.41-.363.328-.444.925-.773.632-1.533-.262-.617-.763-.598-1.148-.889q-.011-.008-.018-.017a.17.17 0 0 1 0-.225q.007-.009.018-.015c.066-.044.123-.03.212-.054a.7.7 0 0 0 .26-.14c.108-.107.049-.245.26-.351.238-.124.64-.143.64-.452.008-.138-.04-.232-.31-.378-.154-.084-.31-.15-.334-.276-.017-.163.195-.15.301-.217.005-.005.01-.005.017-.008.17-.037.294-.079.467-.165.225-.08.55-.101.847-.121.316-.022.595-.05.538-.368m6.82 8c-.093.196-.064.359-.088.534a.1.1 0 0 0 .002.04c.143.575.499.345.605.116.064-.087.17-.398.114-.697-.01-.158-.235-.6-.633.008Zm-.115-1.288c-.116.173-.072.287-.346.514-.21.353.111.286.267.182.138-.094.051-.145.412-.284.242-.286-.106-.688-.333-.412m.187-3.513c-.234-.158-.684.284-1.01.49-.056.034-.076.058-.118.108-.272.326-.748.585-1.118.881a.2.2 0 0 0-.045.042c-.343.395-.745.943-1.09 1.215a.3.3 0 0 1-.05.03c-.595.315-1.536.806-1.832 1.84a.3.3 0 0 0-.007.063c-.008.195-.032.52.254.61.02.007.027.01.044-.008.072-.084.237-.514.35-.74.07-.139.374-.443.692-.741.064-.052.257-.141.346.066.037.104.143.242.412.082.146-.111.235-.188.34-.324a.2.2 0 0 0 .038-.064c.047-.108.14-.269.237-.355.14-.138.343-.348.73-.393.613-.047 1.27.15 1.032.519l-.022.034c-.454.822-1.234 1.355-1.775 1.75-1.19.711-1.479.736-1.8.408-.15-.136-.395-.153-.515-.151-.055 0-.07.022-.094.064-.193.348-.07.536.02.645l.066.091c.296.469.938.454 1.254.402q.02-.004.037-.012c1.03-.365 1.597-.622 2.506-1.634a1 1 0 0 1 .163-.18c.2-.131.363-.257.232.182-.094.22-.26.516-.111.887.047.116.056.175.074.301a.8.8 0 0 0 .133.36c.032.049.07.091.101.138.035.047.067.097.104.139.309.328.817-.119.968-.314.21-.212.44-.595.42-.975.031-.538.355-.264.444-.054a1 1 0 0 0 .056.108c.482.761.541 2.205-.148 2.847-.75.765-1.797.187-1.824.387-.244.348.538.827 1.042.763.116-.012.247-.062.358-.101.59-.193 1.515-.761 1.459-2.713-.109-1.003-.502-2.076-1.373-2.684a1.2 1.2 0 0 1-.222-.397c-.13-.183-.252-.41-.467-.578a.9.9 0 0 1-.172-.33.16.16 0 0 1 .005-.092c.022-.11.027-.264.002-.377l-.027-.131c-.032-.15-.131-.395-.34-.42-.206.025-.277.276-.282.38.308.538-.316.59-.682.222-.283-.185-.404.003-.61-.056-.076-.03-.234-.121-.007-.319.608-.637 2.234-1.449 1.822-1.91Zm4.12 4.106c-.118.32-.106.451-.12.678-.05.504-.339.512-.53.724-.429.39.02.402.243.318.044-.017.089-.044.133-.066.22-.107.4-.267.662-.316.081-.015.145-.02.222-.052.244-.094.674-.311.442-.516-.04-.035-.074-.054-.109-.094-.103-.118-.252-.257-.23-.471.005-.065.023-.102.008-.168-.116-.57-.578-.376-.72-.037Zm20.941-1.568c.87 1.83.748 1.963.375 2.3-.106.095-.143.14-.279.171-1.078.254-.903.605-.903.938 0 .077-.015.106.037.171.173.222.716.402.822.392.195-.005.42-.217.607-.188.297.121.208.494.215.961-.03.355.106.74.72.725.235-.039.339-.439.322-.511-.116-.491-.682-1.762.069-2.443a1 1 0 0 0 .084-.084c.578-.667 1.192-1.383 2.597-2.05.061-.029.079-.034.108-.098.232-.452-.022-.938-.93-.899a.3.3 0 0 0-.144.032c-.293.144-.424.482-.651.78-.245.317-.595.588-.86.867-.278.237-.609.825-.86-.506-.018-.086 0-.128-.003-.21-.005-.232-.36-.63-.627-.925-.017-.02-.032-.038-.057-.052-.133-.09-.575-.339-.72.288-.035.149.014.205.078.341m3.508 2.678c-.175.941.713 1.185 1.12 1.272.107-.003.751-.2.734-.842-.04-.183-.257-.405-.958-.53-.306-.03-.77-.23-.896.1m-19.07-.244-.34-.032a4.2 4.2 0 0 1-1.326.817l.081.18q.354-.068.76-.251l-.241 2.735q-.02.217-.242.224l-.39-.034-.02.22 2.002.175.022-.22-.417-.034q-.219-.023-.197-.289zm2.313 1.2q-.08 1.028.413 1.017.218.008.518-.18a5 5 0 0 0 .069-.659q.031-1.129-.508-1.143-.49-.038-.492.965m-.4 2.834q2.022-.407 2.2-2.318-.004-1.593-1.304-1.704-1.178.067-1.31 1.289.044 1.104 1.046 1.207a1.1 1.1 0 0 0 .642-.202q-.303 1.24-1.414 1.555zm3.343-1.945.175.093q.24-.129.486-.133.737.033.78.913-.033.789-.57.847c-.13.003-.257-.084-.373-.262q-.177-.288-.4-.286-.294.007-.31.328.058.438.868.445c.96-.069 1.47-.531 1.514-1.38q-.1-1.223-1.4-1.269a2 2 0 0 0-.514.084l.01-.76 1.494-.032.081-.739-.195.005q-.021.123-.217.126l-1.397.03zm4.86-1.371q-.128-.698-.71-.639-.509.101-.457.612c.032.343.353.6.955.778q.278-.288.212-.751m.425 2.242q.03-.5-1.086-.832-.305.293-.205.8.115.8.75.731.6-.137.541-.699m.18-2.353q-.223-.835-1.323-.75-1.059.23-1.014 1.214.061.583.831.943-.706.426-.617 1.032.23.91 1.383.815 1.152-.244 1.123-1.303-.096-.655-.985-.973.703-.449.602-.978M64 20c24.296 0 44 19.704 44 44s-19.704 44-44 44-44-19.704-44-44 19.704-44 44-44" fill="#e50012"/></svg>