<svg xmlns="http://www.w3.org/2000/svg" viewBox="0 0 128 48.9"><defs><style>.cls-1{fill:#e61c3d}.cls-3{fill-rule:evenodd;fill:#17439a}</style></defs><g id="_图层_1" data-name="图层_1"><path class="cls-1" d="M24.4 33.5v.1H24s-.4-.2-.7-.2h-1.4s.7.1 1.1.2c.5 0 .7.2.7.2h.7Zm-3.2 1.9s0 .1 0 0c.2 0 .3 0 .4-.2v-.1H21Zm1.2-.1v.3s0 .2.1.2v-.4Zm.6-.6s0 .2-.2.2h-.2s-.1.1 0 .2.6-.3.7-.3H23Zm-.6.1v.2h.1Zm0-.9-.3.2s-.1 0-.1.1h.9s.2-.1.3-.1h-.3s0 .2-.1.2-.1 0 0-.1 0-.1 0-.1h-.3Zm.5-.1v-.1zh.6l.2-.1v.2s-.3 0-.5.2h.6v.2h-.9v.1c.1 0 .5 0 .6.2v.2l-.7.3h-.3s-.2-.1-.3-.1 0 0 0-.2c0 0 .1-.2.2-.2 0 0 0 .2.2.1 0 0 .1 0 .2-.1h-.9l-.3.1s-.3.2-.4.3c0 0-.3.2-.5.2 0 0 .6-.3.9-.5s.8-.6.8-.6l.7-.5s-.3.3-.3.4h.2Zm.7-1.1v.4-.1c0-.1 0-.2-.1-.3v-.1Zm3 3.4s.1 0 .2.6c0 0 0 .1-.1.2v-.7Zm1.3-1.3h-.3s-.2 0 0 0c0 0 .2.1.5.2 0 0 .1 0 0 0 0 0-.2.2-.2.3 0 0-.2.4-.5.3v-.2.2s0 .1-.1.2l-.1.1v.1h.1v.1s.1.1.2 0c0-.1 0-.3.1-.3 0 0 .2-.1.2 0v.1h.3v-.2s-.1 0 0 0 .1-.1.3-.2h.2l-.5.6s-.1.2-.1 0c0 0 0-.1-.3 0h-.2.4v.2s.2-.2.3-.4c0 0 0-.1.2-.3.1-.1.2-.3.2-.4 0 0 0-.2-.3-.1h-.4s-.1 0 0 0c0 0 0-.2.1-.2 0 0 0-.1.2-.1.1 0 .5 0 .5-.1l-.1-.2c-.1 0-.9-.2-.9-.2Zm4.4.8.4.4.4.4h.5-.1c-.3 0-.6-.2-.9-.4l-.3-.2Zm-.8.2s-.3.2-.4.3v.1s.2 0 .4-.2c0 0 .2-.2.2-.3 0 0 0-.1.1 0v.3s-.1.4-.2.6c0 0 0 .1-.5.4 0 0 .3 0 .6-.3.1-.1.2-.2.3-.8v-.4s0-.3.2-.4c0 0 .3-.1.4-.3 0 0 0-.1-.1-.1h-.1l-.1.2v-.4s0-.3-.3-.4h-.2v.1c0 .1.1.3.1.5v.5l-.3.3Zm3.8-2.5s.1 0 .4.3v.1-.1l-.1-.1Zm.8-.9.2.3v.1-.2h-.2l.2-.1Zm.4.3v.1h.1v-.1zm.7-.3s-.2.2-.3.4l.2-.2v-.1Zm-1.8 1.7h.1c.1 0 .4.3.4.4h-.1c0-.1 0-.2-.2-.3Zm-4.3-20.9c-.1-.1-.2-.2-.3-.4v-.2s.3 0 .6-.1h.1c0-.2-.2-.3-.3-.3h-.5c-.2 0-.3.1-.4.2.2 0 .4 0 .5.1h-.6c.1 0 .3.2.4.4 0 0 .2.1.3.2h.3Zm1.7-.7s-.2-.2-.3-.2-.3-.2-.5-.2h-.5c.1 0 .2.2.3.4h.7c0-.1 0-.1.3-.1Zm-1.7.4c.3.3.8.7 1.9.5-.1-.1-.3-.3-.4-.5 0 0-.2-.1-.3-.2-.2 0-.5-.1-.7 0h-.2.4v.3l-.5-.1Zm1.6 1.3-.3-.3h-.1c0-.1.2-.2.2-.2s.4 0 .7-.1c-.7.2-1.2.1-1.5 0-.2 0-.4.2-.6.2.1.1.4.4.7.5.3 0 .5.1.6.1h.4Zm.9-.9.2.2v-.4c-.1-.1-.3-.2-.4-.3-.1 0-.3-.1-.4-.1h-.2s.2.1.3.2v.2c-.2 0-.2 0-.3-.1l.2.2c.2.2.5.5.8.6s0 0 .1 0v-.2l-.2-.2v-.1Zm1 .5s.3.1.5.3v-.5l-.2-.2c-.1 0-.2-.1-.3-.2h-.5c0 .1.2.3.3.4v.2c-.2-.1-.3-.3-.4-.4 0 .2 0 .5.1.6.2.2.5.4 1 .3-.1 0-.5-.2-.5-.3v-.1Zm-.4 1.1h-.4c.1.2.4.5.7.5h.8c-.3-.2-.5-.4-.6-.8-.1.1-.3.2-.4.2Zm2 0c-.1-.1-.3-.4-.4-.5h.1c0 .1.1.2.2.3v-.2c0-.3-.4-.6-.6-.7h-.4v.6h.2c.1.1.3.2.4.4h.3Zm-.7.1s.3.3.5.4c0-.4-.3-.6-.5-.8s-.4-.2-.5-.2l.2.2H35c.1.3.4.7 1.1.9-.1-.1-.3-.2-.4-.4Zm.5.5c.2 0 .3 0 .5.2q-.3-.3-.3-.6H36v.5Zm.9.7-.2-.2c-.1-.1-.3-.2-.4-.3h-1c0 .1 0 .4.2.5.1 0 .3.2.5.3.1 0 .2 0 .3.1 0-.1-.1-.3-.2-.4h.1c0-.1.2 0 .5 0zm.6.1c-.2 0-.3-.1-.5-.2 0 0 0 .1.1.2.2 0 .3.2.4.3v-.2Zm-.4-.9s.2.2.4.5v-.7s0-.2-.1-.2c0-.1-.2-.2-.3-.2h-.5c.1 0 .3.2.3.4h-.2c0-.1-.2-.3-.2-.3v.6c0 .2.2.3.4.5.1.1.3.2.5.3 0-.2-.4-.6-.4-.6Zm-4.3-1.6c.1 0 .3 0 .4.1v.2c-.2 0-.3 0-.4-.1l.2.2c.1.2.3.3.6.4h.9c-.2 0-.4-.2-.6-.3 0 0 .4.2.7.2-.1-.2-.3-.3-.5-.4-.3-.2-.5-.3-.7-.3zm5.6 2.4c-.1-.4-.6-.6-.8-.7v.8c0 .2 0 .3.2.5 0 0 .1.2.2.2v-.8c0-.1.1 0 .1 0zm-.3 1.4h.3s-.2-.2-.2-.4 0 0-.1 0c0 .1 0 .3.1.4Zm.3 1.4c-.1-.1-.3-.2-.4-.4s-.2-.5-.1-.7h-.4l.4.4h-.1c0-.1-.2-.2-.3-.3v.2c0 .1.1.4.4.7 0 0 .2.2.4.2h.3Zm.7-1v-.6c0-.2 0-.4-.2-.7-.1-.3-.5-.4-.7-.4 0 .1.3.4.4.5h-.1c-.1-.1-.2-.3-.3-.5v.6c0 .3.2.5.4.8 0 0 .1 0 .2.1h.1v.2-.2Zm.6 1.5c0-.2.1-.4.1-.4v-.2l.2.1.2.2v-.3q0-.3-.3-.6c-.1-.1-.2-.3-.3-.4 0 .3.2.8.2 1h-.2c0-.2 0-.6-.2-.9v1.2c0 .2.2.3.3.4Zm-.1.3v-.1c-.1 0-.2-.2-.3-.3l.2.2s.1.2.2.2Zm-.4.4.4.4v-.4c0-.2-.2-.3-.3-.5 0 0-.2-.2-.2-.3-.1-.1-.3-.2-.5-.2.1 0 .4.3.5.5H39c0-.2-.4-.5-.4-.5v.3c0 .1 0 .4.1.6 0 .2.2.3.3.4.2.1.4.1.5.2h.1l-.4-.4Zm1 1c0-.2-.1-.4-.1-.4h.1v.1c0-.2.2-.4.3-.5v-.2c0-.1 0-.2-.1-.3 0 0-.2-.2-.3-.4v.5h-.2v-.6c0 .1 0 .2-.1.4v.6c0 .2 0 .4.2.6.1.2.3.3.3.3Zm-.4.9c0-.2-.1-.4-.1-.4h.1v-.5s-.2-.2-.3-.2l-.4-.2H39c.2.2.4.4.5.7h-.2c0-.3-.2-.5-.4-.6v.1c0 .3 0 .9.8 1.2v-.3Zm.7-.5c.2-.3.3-.5.3-.5v-.2l.2.2s0 .1.2.3v-.5c0-.1-.2-.3-.3-.4 0 .1-.2.3-.2.4v.7Zm.2 1.7c0-.1 0-.2-.1-.3 0 0 0-.2-.1-.3v-1.2h-.1c0 .3-.2.9 0 1.2l.3.3.3.3Zm.1-.9v.5c.2-.2.3-.3.4-.5 0-.2 0-.4-.2-.6l-.2-.4c0 .1-.1.2-.2.4v.9s0 .2.1.3v-.5h.1Zm-1.5-.1v.6c0 .1.1.3.2.4 0 0 .1.2.2.3 0-.3.2-.8.2-1-.2 0-.4-.2-.6-.3m1.3 1.8v.3c.3-.7 0-1.1-.4-1.4v.4H40v-.5c0 .2-.1.5-.1.7 0 0 0 .3.2.5 0 .2.2.4.4.5V24h.1Zm.5-1.1s-.2.5 0 1.1c.1-.2.3-.4.3-.4 0 .1 0 .3-.2.5.5-.3.5-.6.5-.9 0-.2-.1-.5-.2-.7v.5h-.2v-.3s-.1.2-.2.2m.2 2.3s0 .4-.3.6c.3-.1.4-.3.5-.5s.2-.5.2-.7 0-.4-.1-.6v.4h-.1v-.3s-.2.1-.3.2c0 .2-.3.8-.3 1.2v.2c.2-.2.2-.6.2-.6h.2Zm-.7.4v.7c.1-.2.3-.6.3-.9 0-.4.1-.9.2-1.1v-.2q0 .3-.3.6v.8Zm-.7-.1c.1-.2.2-.5.2-.5v-.2l.2.2.2.2v-.6c-.1-.1-.2-.3-.3-.5v.4H40v-.4c0 .1-.1.3-.2.4v.4c0 .2 0 .3.2.5Zm.2.8v.6-.3c0-.4.2-.9.1-1 0-.1-.1-.2-.2-.3 0 .1-.1.4-.2.4 0 0-.1.2-.2.3v.4c0 .1 0 .3.1.4 0 0 0 .2.1.3v-.9h.2Zm.8.6s-.2.2-.3.4c0 .1-.1.4-.2.6.1 0 .2-.2.4-.3.3-.4.6-.8.6-.9V26c-.2.1-.4.2-.6.2v.2c0 .2-.2.3-.2.3 0 .3-.2.6-.3.8v.5-.2c.1-.2.2-.5.2-.6 0-.3.3-.4.3-.4h.2v.1Zm-1.4 2h.1c.5-.7.4-1.2.2-1.7v.8h-.2v-.9c-.1.2-.3.4-.3.6v.6c0 .2 0 .5.2.6m2.9-2.3c-.6.4-2.9 2.1-3 3.8h-.5c0-.5.5-1.3-.2-2 0 0 .2 0 .5.1v-1.2c0-.3.4-.7.5-.9v-.8c0-.1 0-.2.1-.3-.1-.2-.2-.4-.2-.6v-.5c0-.1.2-.3.2-.4v-.3c-.1-.1-.2-.3-.4-.4-.1-.2-.2-.4-.3-.5v-.8c-.3-.4-.3-.8-.3-1 0-.3-.1-.4-.1-.4-.2-.2-.3-.4-.4-.6-.1-.3-.2-.6-.2-.7V19c-.2 0-.5-.2-.6-.3-.2-.2-.4-.5-.5-.8 0-.2-.2-.4-.2-.4v-.2c-.1-.1-.3-.3-.4-.6v-.1c-.2 0-.4-.1-.5-.2-.2 0-.4-.2-.5-.3-.2-.2-.3-.6-.3-.7h-.7c-.5-.1-.9-.7-.9-.7-.3-.2-.5-.3-.7-.5h-.5c-.2 0-.5 0-.7-.1-.6-.1-.9-.6-.9-.6 0-.1.2-.2.2-.2s.2 0 .5-.1H31c-.2 0-.3-.1-.4-.2-.4-.4-.7-.6-.7-.6v-.2s.3 0 .9-.3h.3s.8-.1 1.1 0c.2 0 .4.1.6.2s.3.2.4.4c.2 0 .4 0 .5.1.2 0 .3.2.4.3s.4 0 .7 0c.1 0 .3.1.4.2.1 0 .2.2.2.3.1 0 .5 0 .6.2.2.2.6.5.7.9h.6c.2 0 .3.2.4.3 0 .1.2.3.2.4.2 0 .9.4 1 .9.2 0 .5.2.6.5.1.2.2.5.2.7v.1s.3.3.5.7c.1.2.2.5.3.7v.5c.1.1.2.3.3.4 0 .1.1.2.1.3v.1s.4.5.5.7v.8c0 .1.1.2.2.4s.5.7.5 1.1c0 .3 0 .5-.2.8 0 .1.3.4.2.8 0 .2 0 .5-.2.8 0 0 0 .1-.1.2s0 .8 0 1.1c0 0 0 .2-.1.4.3-.2.7-.4 1-.5Zm-5.8-10.3c.2.1.4.3.5.5H37c-.2-.2-.5-.4-.6-.5 0 .1.2.3.3.5q.15.3.6.6c.2.1.4.2.7.2-.2-.2-.4-.5-.4-.5h.1l.3.3c0-.5-.3-.8-.6-1-.2-.1-.4-.2-.6-.2Zm2.5 2.2c0-.2-.2-.4-.3-.5 0 0-.1 0-.2-.1h-.4c.1 0 .2.2.3.4h-.2c0-.2-.2-.3-.3-.4v.1c0 .2 0 .5.1.6s.3.3.6.5c.2 0 .3.2.4.2v-.6Zm-9 10q-.3.3-.6.3c-.9 0-1.5-.2-2-.5-.7-.5-1-1.3-1.1-1.9.1-1.7 1.4-2.5 2.7-3.4.6-.4 1.3-.8 1.8-1.3 1.6-1.9.3-3-.3-3.4 0 .9-.3 1.6-.8 2.3-.6.8-1.5 1.3-1.9 1.6-2.2 1.3-2.4 3-2.4 3v1.3c.2.8.7 1.4 1.3 1.8s1.3.7 1.8.8h.6c.4 0 .7-.3.9-.5Zm-.1-.4c-.2.2-.5.3-.7.3-.3 0-.5 0-.8-.2-.2 0-.3-.2-.5-.3-.8-1-.6-1.8.1-2.3.5-.4 1.3-.8 2-1.1.2 0 .3-.1.5-.2 3-1.7 1.8-3.5 1.3-4.1 0 .4-.3.9-.8 1.5-.6.6-1.2 1-1.9 1.4-1.3.8-2.4 1.6-2.6 3.1 0 .5.4 1.3 1 1.7.4.4 1 .6 1.8.5.2 0 .4-.2.6-.4Zm.2-2.4v.5h.3v-.1s0-.1.2-.1v-.3h-.4Zm-1.1-10.6c-2.4 0-4.8 1-6.5 2.7-3.6 3.6-3.6 9.4 0 13s9.4 3.6 13 0 3.6-9.4 0-13c-1.7-1.7-4.1-2.7-6.5-2.7m0 .7h-.3c.2 0 .3.1.5.2.6.4 1 1 1.2 1.6v.3c.3.2 1.5.9 1.4 2.1.4.4 2.4 2.7-1.2 4.7-.2 0-.3.1-.5.2-.7.3-1.5.6-2 1-.6.5-.8 1.1 0 1.9l.4.2c.2 0 .4.1.7.1.2 0 .5-.1.6-.3 0 0 .1-.2.2-.3 0-.2 0-.3-.2-.5s-.6-.4-1.1-.6v-.3c.5 0 .9 0 1.2.2.1-.2.2-.3.2-.4 0-.2 0-.4-.1-.5h.5c.1 0 .2 0 .3-.2h.1c-.1.3-.1.3 0 .4 0 0 .1.2.2.2v.2h-.3v.3h-.2c0-.1-.1-.2-.2-.2h-.3c.1 0 .2.1.3.2.3.2.5.4.6.7.1.2.2.5.2.7 0 .3-.1.7-.2.9l-.5.5c-.7.5-1.6.7-2.5.5s-1.8-.6-2.5-1.4c-.3-.3-.6-.6-.8-1-.5-.7-.6-1.7-.5-2.7.1-1.2.6-2.4 1.1-3.4.3-.6.6-1.1 1-1.5.3-.5.7-.9 1.1-1.3q.75-.9.9-1.5v-.6c0-.1-.1-.2-.2-.3 0 0-.2-.1-.3-.2-1.7.2-3.3 1-4.5 2.2-3.4 3.3-3.4 8.8 0 12.1 3.3 3.4 8.8 3.4 12.1 0 3.4-3.3 3.4-8.8 0-12.1-1.6-1.6-3.8-2.5-6.1-2.5Zm0-.3c2.4 0 4.7 1 6.3 2.6 3.5 3.4 3.5 9 0 12.5-3.4 3.5-9 3.5-12.5 0-3.5-3.4-3.5-9 0-12.5 1.7-1.7 3.9-2.6 6.3-2.6Zm0-.9c2.6 0 5.1 1 6.9 2.9 3.8 3.8 3.8 9.9 0 13.7s-9.9 3.8-13.7 0-3.8-9.9 0-13.7c1.8-1.8 4.3-2.9 6.9-2.9Zm-1.2 1.4c.1.1.2.3.3.5v.7c-.1.4-.4.9-.9 1.6-.4.4-.7.9-1.1 1.3-.3.4-.7.9-1 1.5-.6 1-1 2.2-1.1 3.3 0 .9 0 1.8.5 2.5.2.4.5.7.8.9.7.7 1.6 1.2 2.4 1.3s1.6 0 2.3-.5c.2-.1.3-.3.5-.4.1-.2.2-.4.2-.7 0-.2 0-.4-.1-.6s-.3-.4-.5-.5c-.1 0-.2-.1-.4-.2.2.1.4.3.5.5.2.2.2.5.2.7 0 .3 0 .5-.2.7-.2.3-.6.6-1.1.7h-.7c-.7-.1-1.3-.4-1.9-.8-.6-.5-1.2-1.1-1.4-2 0-.5-.1-.9 0-1.4s.2-1.8 2.5-3.2c.4-.3 1.2-.8 1.9-1.6.6-.7 1-1.6.6-2.7-.2-.5-.6-1.1-1.1-1.4-.3-.2-.7-.3-1.1-.2Zm4.4-4.9h-.7v-.1h-.7c0-.1-.7-.2-.7-.2h-1.6v.4h-4l-.1.1H24v.1h-.1l-.5.3-.2-.4h-.3l-.1.2h-.2l-.1.2h-.1l-.1.2h-.1l-.1.2h-.3l-.1.2h-.1l-.1.2h-.1c0 .1-.1.2-.1.2h-.1c0 .1-.1.2-.1.2l-.1.1h-.1c0 .1-.1.2-.1.2h-.1v.1h-.1v.1l.3.4v.1l-.3.4h-.1c0 .1-.1.2-.1.2l-.1.1v.6l-.2.2v1.8c-.1.3-.3.6-.4.9h-.4c0-.1 0 0 0 0v.6l-.1.3v4.1h.5v5l.2.5v.1l-.4.2.2.5.3.5.3.4.3.4.3.4.3.4.3.4.3.4.4.4.4.4.4.3.4.3.4.3.4.3.4.3.4.3.5.3.5.2.5.2.5.2.5.2.5.2.5.1h.5c0 .1.5.2.5.2H34l.7-.2.7-.2.7-.2.6-.2.6-.2.6-.3.6-.3.6-.3.6-.4.5-.4.4-.3h-.9l.4-.1s.1 0 0 0c0 0 .4-.1.4-.2v-.1c0-.1-.3-.4-.3-.5-.1 0-.2.1-.2.1s-.4.6-.5.6c0 0-.1 0-.2.1H39c.1 0 .4-.4.5-.4 0 0 .3-.3.3-.4v-.5c0-.2-.2 0-.2 0l.1-.2v-.1l-.2.2s0 .1-.1.2c-.1.2-.3.3-.3.3v-.2c.3-.2.4-.5.4-.5v.2-.2.2s-.1 0-.2-.2c-.2-.2-.1-.2-.1-.2s0-.1-.1-.2c-.1-.2-.4-.3-.4-.4.2 0 .4.1.5.2.1 0 .3.3.3.3.1 0 .1-.1.1-.1v-.2c0-.1 0 0 0 0v-.1s.1-.1.1-.2v-.4.2h.3v.2-.5l-.2.2-.1.1v-.1c0-.1.3-.3.3-.3h.2v.2l.1.5v.2l.2-.2.2-.2c.2 0 .2.2.2.2v.2c0 .1-.3.3-.4.3l-.2.2-.1.1h.3v.1l-.2.3v.1l.2-.2c.1 0 .2-.3.2-.3h.4v.2c-.3.1-.3.1-.5.2-.2 0 0 .2 0 .2l.4.5.1.1h.1l.4-.4.5-.5.5-.5.4-.5.4-.5.4-.5.4-.6.3-.6.3-.6.3-.6.2-.6.2-.6.2-.6v-.7h.1v-.7c.1 0 .2-.7.2-.7v-3.5l-.2-.7-.2-.7-.2-.7-.2-.6-.2-.6-.3-.6-.3-.6-.3-.6-.4-.6-.4-.5-.4-.5-.4-.5-.5-.5-.5-.5-.5-.4-.5-.4-.5-.4-.6-.3-.6-.3-.6-.3-.6-.3-.6-.2-.6-.2-.6-.2ZM20.7 35.6l-.4-.3-.4-.3-.4-.3-.4-.4-.4-.4-.3-.4-.3-.4-.3-.4-.3-.4-.3-.4-.3-.4-.3-.5-.2-.5v-.1l.5-.3-.2-.4v-5.3h-.5v-4.7h.1v-.8l.4.1.2-.4v-.7l.1-.3V16l.2-.2v-.5c0-.1.1-.2.1-.2l.1-.1h.1c0-.1.3-.4.3-.4l-.3-.4v-.1l.1-.2.1-.1h.1c0-.1.1-.2.1-.2h.1c0-.1.1-.2.1-.2h.1v-.1h.1c0-.1.1-.2.1-.2h.1l.1-.2h.1l.1-.2h.3l.1-.2h.1l.1-.2h.1l.1-.2h.2l.1-.2h.4l.2.4.4-.2h.4V12h.3l.1-.1h.3l.1-.1h3.3v-.4l.1-.1h3.1v.1l.7.2.7.2.6.2.6.2.6.3.6.3.6.3.6.4.5.4.5.4.5.4.5.5.5.5.4.5.4.5.4.5.4.6.3.6.3.6.3.6.3.6.2.6.2.7.2.7.1.7v4.2l-.1.7-.2.7-.2.7-.2.6-.2.6-.3.6-.3.6-.3.6-.4.6-.4.5-.4.5-.4.5-.5.5-.5.5-.5.4-.5.4-.5.4-.6.4-.6.3-.6.3-.6.3-.6.3-.6.2-.7.2-.7.2H28v.1h-5v-.1h-.5v-.1H22v-.1l-.5-.2-.5-.2-.5-.2-.5-.2-.5-.2-.5-.3-.4-.3-.4-.3-.4-.3Zm19.5-8.1v.3zm1.2-1.5c-.2.1-.4.2-.6.4z"/><path class="cls-1" d="M15.2 30.3V30c-.1 0 .1-.1.1-.1h.2c-.6-1.7-1-3.4-1-5.1H14v-.3c0-1.9.4-3.9 1.1-5.7v-.3c.1 0 .6.2.6.2.6-1.4 1.5-2.8 2.6-3.9l-.2-.2-.2-.2.2-.2c.7-.7 1.4-1.3 2.2-1.9.8-.5 1.6-1 2.5-1.4h.3c0-.1.1.1.1.1v.2c1.6-.6 3.1-1 4.7-1.1v-.5h.3c4-.2 7.8 1.1 10.8 3.8 3 2.6 4.7 6.3 5 10.3.2 4-1.1 7.8-3.8 10.8-4.8 5.4-12.8 6.6-19 2.8-2.6-1.6-4.7-4-5.9-6.8Zm.7.1c1.2 2.6 3.1 4.7 5.5 6.2 2.5 1.5 5.4 2.3 8.3 2.1 3.8-.2 7.3-1.9 9.9-4.8 2.5-2.8 3.8-6.5 3.6-10.3s-1.9-7.3-4.7-9.8c-2.7-2.5-6.3-3.8-10-3.7v.5h-.3c-1.7 0-3.3.5-4.9 1.2H23c0 .1-.3-.3-.3-.3-1.5.7-2.8 1.7-4 2.8l.2.2.2.2-.2.2q-1.8 1.8-2.7 4.2v.3h-.6c-.6 1.5-.9 3.1-1 4.8h.5v1.1c0 1.6.5 3.2 1.1 4.6v.3c.1 0-.4.2-.4.2Z"/><path d="M19.8 30.3h.2v.2c.2 0 .2.1.2.2h.2c.1 0 .2-.2.2-.3v-.3c0-.1-.1-.1-.2-.1s-.3 0-.4.1c0 0-.1 0-.2.2m-1 .3s0-.2.1-.2h.2c0-.2.1-.2.2-.2V30c0-.1-.2-.2-.3-.2h-.3s-.1.2-.1.3 0 .2.1.3l.2.2Zm.3 1h-.2v-.2c-.2 0-.2-.1-.2-.2h-.2c-.1 0-.2.2-.2.3v.3s.1.1.2.1.3 0 .4-.1c0 0 .1 0 .2-.2m1-.3s0 .2-.1.2h-.2c0 .2-.1.2-.2.2v.2c0 .1.2.2.3.2h.3s.1-.2.1-.3 0-.2-.1-.3l-.2-.2Zm-1.5-3.8s.1 0 .1.1v.4h.2c.1 0 .2-.1.3-.2v-.3c0-.1-.1-.1-.2-.2h-.4s-.1 0-.2.1Zm-1.1 0s0-.1.1-.2h.4v-.2c0-.1-.1-.2-.2-.3h-.3s-.2.1-.2.2v.4s0 .2.1.2Zm0 1s-.1 0-.1-.1V28h-.2c-.1 0-.2.1-.3.2v.3l.2.2h.4s.1 0 .2-.1Zm1 0s0 .1-.1.2H18v.2c0 .1.1.2.2.3h.3s.2-.1.2-.2v-.4s0-.2-.1-.2Zm-.7 0c0-.1 0 0 0 0 0 .1-.2.2-.4.3H17q-.15 0-.3-.3v-.4c0-.1.2-.2.4-.3h.4c-.1-.2-.2-.3-.2-.5v-.5q0-.15.3-.3h.4c.1 0 .2.2.3.4v.4c0 .1 0 0 0 0 0-.1.2-.2.4-.3h.4c.1 0 .3.2.3.3v.4c0 .1-.2.2-.4.3h-.4c.1.2.2.3.2.5v.5q0 .15-.3.3h-.4c-.1 0-.2-.2-.3-.4zm.4-4.1v.7h.2c.1 0 .3 0 .4-.1l.1-.2s0-.2-.1-.2-.2-.1-.4-.1h-.2Zm-1-.3s.1-.1.2-.1h.5v-.2c0-.1 0-.2-.1-.3 0 0-.2-.1-.3-.1s-.2 0-.3.2c0 .1-.1.2-.1.3v.2Zm-.3 1v-.7h-.2c-.1 0-.3 0-.4.1l-.1.2s0 .2.1.2.2.1.4.1h.2Zm.9.3s-.1.1-.2.1h-.5v.2c0 .1 0 .2.1.3 0 0 .2.1.3.1s.2 0 .3-.2c0-.1.1-.2.1-.3v-.2Zm-.6-.2c0-.1-.1-.1-.1-.1-.1 0-.3.1-.4.1-.2 0-.3 0-.4-.1-.1 0-.2-.2-.2-.4 0-.1 0-.3.2-.4.1 0 .3-.1.4-.1.2 0 .3 0 .4.1h.1v-.1c0-.1-.1-.3-.1-.4 0-.2 0-.3.1-.5 0-.1.2-.2.3-.2s.3 0 .3.2c0 .1.1.3.1.5s0 .3-.1.4c0 .1.1.1.1.1.1 0 .3-.1.4-.1.2 0 .3 0 .4.1.1 0 .2.2.2.4 0 .1 0 .3-.2.4-.1 0-.3.1-.4.1-.2 0-.3 0-.4-.1h-.1v.1c0 .1.1.3.1.4 0 .2 0 .3-.1.5 0 .1-.2.2-.3.2s-.3 0-.3-.2c0-.1-.1-.3-.1-.5s0-.3.1-.4m1.4-3.9v.4l-.2.2h.6s.2-.1.2-.2v-.3c0-.1-.2-.2-.3-.2h-.2Zm-.8-.5h.4l.2.2s0-.1.1-.2v-.4s-.1-.2-.2-.2H18s-.2.2-.2.3v.2Zm-.6.8v-.4l.2-.2h-.6s-.2.1-.2.2v.3c0 .1.2.2.3.2h.2Zm.9.6h-.4l-.2-.2c-.1.2-.2.4 0 .6 0 0 .1.2.2.2h.3s.2-.2.2-.3v-.3Zm-.6-.4v-.1h-.4c-.1 0-.3-.1-.4-.2 0-.1-.1-.3 0-.4 0-.1.1-.3.3-.3h.4c.2 0 .3.1.4.2v-.4c0-.2.1-.3.3-.4.1 0 .2-.1.4 0q.15 0 .3.3v.5c0 .1-.1.3-.2.4v.1h.4c.2 0 .3.1.4.2 0 .1.1.3 0 .4 0 .1-.1.3-.3.3h-.4c-.1 0-.3-.1-.4-.2v.4c0 .2-.1.3-.3.4-.1 0-.2.1-.4 0q-.15 0-.3-.3v-.5c0-.1.1-.3.2-.4m2.5-3.3v.4c-.2 0-.2.1-.3.1l.2.2c.1 0 .2.1.4 0 .1 0 .2 0 .2-.1v-.3q0-.15-.3-.3zm-.7-.8h.4c0 .2.1.2.1.3l.2-.2v-.4c0-.1 0-.2-.1-.3h-.3c-.1 0-.2.1-.3.2v.2Zm-.8.7V18c.2 0 .2-.1.3-.1l-.2-.2c-.1 0-.2-.1-.4 0-.1 0-.2 0-.2.1v.3q0 .15.3.3zm.7.8h-.4c0-.2-.1-.2-.1-.3l-.2.2v.4c0 .1 0 .2.1.3h.3c.1 0 .2-.1.3-.2v-.2Zm-.5-.5v-.1c-.2 0-.3 0-.4-.1-.1 0-.2-.2-.3-.3v-.4c0-.1.2-.2.4-.2s.3 0 .4.1c.1 0 .2.2.3.3 0-.2 0-.4.1-.5 0-.1.2-.2.4-.3h.4c.1 0 .2.2.2.3 0 .2 0 .3-.1.5 0 .1-.2.2-.3.3v.1c.2 0 .3 0 .4.1.1 0 .2.2.3.3v.4c0 .1-.2.2-.4.2s-.3 0-.4-.1c-.1 0-.2-.2-.3-.3 0 .2 0 .4-.1.5 0 .1-.2.2-.4.3h-.4c-.1 0-.2-.2-.2-.3 0-.2 0-.3.1-.5 0-.1.2-.2.3-.3m3.3-2.5v.2l-.2.2h-.2s0 .1.1.2.2.2.3.2h.3v-.3c0-.1 0-.3-.2-.4 0 0-.1-.1-.2-.1Zm-.4-1h.2l.2.2v.2s.2 0 .2-.1c0 0 .2-.2.2-.3v-.3s-.2-.1-.3 0c-.1 0-.2 0-.3.2 0 0-.1.1-.1.2Zm-.9.4v-.2l.2-.2h.2s0-.1-.1-.2c0-.1-.2-.2-.3-.2h-.3v.3c0 .1 0 .2.2.4 0 0 .1.1.2.1Zm.4 1h-.2l-.2-.2v-.2s-.2 0-.2.1c0 0-.2.2-.2.3v.3s.2.1.3 0c.2 0 .4-.2.5-.4Zm-.3-.6v-.1c-.1 0-.3-.1-.4-.2s-.2-.3-.2-.4 0-.3.1-.4c.1 0 .3-.1.4-.1s.3.1.4.2.2.3.2.4c0-.2.1-.4.2-.5s.3-.2.4-.2.3 0 .4.1c0 0 .1.2 0 .4 0 .2-.1.3-.2.4s-.3.2-.4.2v.1c.1 0 .3.1.4.2s.2.3.2.4 0 .3-.1.4c-.1 0-.3.1-.4.1s-.3-.1-.4-.2-.2-.3-.2-.4c0 .2-.1.4-.2.5s-.3.2-.4.2-.3 0-.4-.1c0 0-.1-.2 0-.4 0-.2.1-.3.2-.4s.3-.2.4-.2m3.9-1.5s0 .1-.1.2h-.2c0 .1-.1.1-.2.1v.2c0 .1.2.2.3.3h.3s.1-.1.1-.2v-.4s0-.1-.1-.2Zm-.2-1s.1 0 .2.1v.2c.1 0 .1.2.1.2h.2c.1 0 .2-.1.3-.2v-.3s-.1-.2-.2-.2h-.4s-.1 0-.2.2m-1 .1s0-.1.1-.2h.2c0-.1.1-.1.2-.1v-.2c0-.1-.2-.2-.3-.3h-.3s-.1.1-.1.2v.4s0 .1.1.2Zm.2 1s-.1 0-.2-.1v-.2c-.1 0-.1-.2-.1-.2h-.2c-.1 0-.2.1-.3.2v.3s.1.2.2.2h.4s.1 0 .2-.2m-.2-.6v-.1c-.1 0-.2-.2-.3-.3v-.4c0-.1.1-.3.2-.3h.4c.1 0 .2.2.3.3v.4c0-.1.2-.2.3-.3.1 0 .3-.1.5 0 .1 0 .3.1.3.2v.4c0 .1-.2.3-.3.3h-.4v.1c.1 0 .3.2.3.3v.4c0 .1-.1.3-.2.3h-.4c-.1 0-.2-.2-.3-.3v-.4c0 .1-.2.2-.3.3-.1 0-.3.1-.5 0-.1 0-.3-.1-.3-.2v-.4c0-.1.2-.3.3-.3zm4.2-.3s0 .1-.2.1h-.4v.2c0 .1 0 .3.2.3 0 0 .2.1.3 0 0 0 .2 0 .2-.2v-.6Zm.1-1.1s.1 0 .1.2v.4h.2c.1 0 .2 0 .3-.2 0 0 .1-.2 0-.3 0-.1 0-.2-.2-.2h-.6Zm-1-.1s0-.1.2-.1h.4v-.2c0-.1 0-.3-.2-.3 0 0-.2-.1-.3 0 0 0-.2 0-.2.2v.6Zm-.1 1s-.1 0-.1-.2v-.4h-.2c-.1 0-.2 0-.3.2 0 0-.1.2 0 .3 0 .1 0 .2.2.2h.6Zm0-.7h.1v-.1c-.1-.1-.2-.3-.2-.4v-.4c0-.1.2-.2.3-.3.1 0 .3 0 .4.1.1 0 .2.2.2.4v.5h.1c.1-.1.3-.2.4-.2h.5c.1 0 .2.2.2.3s0 .3-.1.4-.3.2-.4.2h-.5v.1c.1.1.2.2.2.4v.4c0 .1-.2.2-.3.3-.1 0-.3 0-.4-.1s-.2-.2-.2-.4v-.4h-.1c-.1.1-.3.2-.4.2H26c-.1 0-.2-.2-.2-.3s0-.3.1-.4.3-.2.4-.2h.4Zm-7.3 18.8c0 .2-.2.3-.3.4-.1 0-.3.1-.4.1s-.3 0-.4-.2v-.4c0-.1.2-.3.3-.3s.3-.1.4-.1V31c-.1 0-.3-.2-.3-.3s-.1-.3-.1-.5c0-.1 0-.3.2-.3h.4c.2 0 .3.2.4.3 0 .1.1.3.1.4 0-.2.2-.3.3-.4.1 0 .3-.1.4-.1s.3 0 .4.2v.4c0 .1-.2.3-.3.3s-.3.1-.4.1v.1c.1 0 .3.2.3.3s.1.3.1.5c0 .1 0 .3-.2.3h-.4c-.2 0-.3-.2-.4-.3 0-.1-.1-.3-.1-.4" style="fill:#e61c3d;fill-rule:evenodd"/><path class="cls-1" d="m36.7 22.4-1 .3.1.3 1-.3v.1s-.1 0-.2.1.3-.1.3-.1l-.2-.7h-.3v.1h.2Zm-.2-1.1-1 .5.2.4 1-.5zm-.9-.9c-.1 0-.2.2-.2.5 0 .2 0 .3-.1.4h-.4V21l-.2.2v.2s.1.2.2.2h.3c.1 0 .2-.2.2-.5v-.4h.4v.2l.2-.2v-.2c0-.1-.2-.2-.3-.2h-.3Zm-1.1-1.7-.7.7.6.7.3-.2h-.2l-.2-.2.4-.4v.2l-.1.2.4-.3h-.1l.3-.4.2.2v.3l.2-.2-.6-.6Zm-.8-.7-.5 1.2 1-.8-.2-.2-.8.6.5-.9-.3-.2Zm-.6-.6-.6.9.3.3.6-.9-.3-.2Zm-1 1 .6-1.1-.2-.2v.1l-.4.8v-1.1c.1 0-.1-.1-.1-.1v.1l-.5 1 .2.2V18l.5-.9v1.3c-.1 0 0 0 0 0ZM31 17.3l.3-.7-.3-.2-.3.7v.5s.1.2.2.2h.3s.2-.2.2-.4l.3-.7-.2-.2-.3.7c0 .1-.1.2-.2.3h-.2l-.1-.2v-.4Zm4.2 2.3v.2H35v-.2c-.1 0 .2-.3.2-.3Zm-.1-.1-.8.7.2.3.4-.3v.2h.1s0 .1-.1.1l-.2.2-.1.2v.2h.3-.1l.2-.2s.1-.1.1-.2h.4l.1-.2v-.3l-.4-.4Zm1.9 3.6-.6.4H36v.4h1.3v-.3h-.6l.5-.4v-.4Zm-11.9-4.3-.6-.3V18h-.1l-.2.2v.4c.1 0-.2-.2-.2-.2l-.3.2.5.3.2.5.2-.1v-.4c-.1 0 .3.2.3.2l.3-.2Zm-2 .5c0 .2.2.3.3.5.1.1.3.2.5.2h.3v-.2h.2l-.4-.3v-.1l-.3.3c0 .1 0 .2.1.2v.1h-.3s-.2-.1-.3-.2l-.2-.2s0-.1-.1-.2v-.1h.4l-.4-.3v.1h-.2s-.1.2 0 .3Zm.7 1.2-1.1-.7-.1.2.7.5-1.1-.2v.2c-.1 0 0 0 0 0l.9.6.1-.2-.9-.6 1.3.2Zm-1.7 2.3-.7-.2v.3c-.1 0 0 0 0 0l.7.2h.5s.2-.1.2-.2v-.3s-.2-.2-.4-.2l-.7-.2v.2l.7.2c.1 0 .2 0 .3.2v.2l-.1.1h-.4Zm-1 1.1c.1.1.3.2.5.2h.5q.15 0 .3-.3v-.1l-.1-.1h.2v-.1H22v-.2.4h.3v.1h-.8s-.2 0-.2-.1v-.2h.3-.4v.1l-.1.2c0 .1 0 .2.1.3Zm.9-2.7.6.2v.2c-.1 0-.6-.4-.6-.4m1.1.1-1.3-.3v.2l.9.8.1-.2-.3-.2v-.3h.5l.1-.2Zm1.8-3.9.6.9.3-.1-.6-.9v-.1zM27 32l.7-1.5h-.6c0 .1 0 .1.2.1l-.5 1.1h-.2c0 .1.8.3.8.3 0-.1-.1-.1-.2-.2Zm5.4-2 .1-.1h.2s.1 0 .2.1v.3h-.3s-.1 0-.1-.1V30Zm.9.6s.1 0 .2.1v.2s0 .1-.1.2h-.2s-.1 0-.2-.1v-.4h.4Zm.4 0c0-.1-.2-.2-.3-.2h-.3V30s-.2-.2-.3-.2h-.4c-.1 0-.2.1-.2.2v.3s.1.2.2.2h.2s0 .2-.1.3v.2s.1.1.3.2h.4c.1 0 .2-.1.2-.3v-.3Zm-4.4.8-.1.1H29s-.1 0-.2-.1v-.3c0-.1 0-.2.1-.3h.2s.1 0 .2.1zm.3.1v-.6c0-.1-.2-.2-.4-.2-.1 0-.2 0-.3.1s-.2.3-.2.4v.4c0 .1.2.2.3.1.1 0 .2 0 .3-.1v.4s0 .1-.1.2H29v.1h.3c.1 0 .2 0 .3-.1 0 0 .2-.2.2-.3s.1-.3.1-.5Zm2.1.4v-.4h-.1v.2H31l.1-.2.3-.5c.1-.2.1-.3.1-.5 0-.1-.1-.2-.2-.3h-.4c-.1 0-.2.1-.3.2v.4h.1s0-.1.2-.1h.2l.2.2v.5c0 .1-.2.3-.3.4 0 .2-.1.3 0 .5l.9-.2Z"/><path class="cls-3" d="M98.8 20.9s.2-.3.6.4c.3.5.9 2.2.5 3 0 .1-.2.3-.4.2s-.4 0-.4 0c-.2 0 0-.3-.2-.4l-.2-.6s-.1-.3 0-.6c0-.5.3-1.8.3-1.8V21Zm1.8-4s.7 0 1 2.3c0 .4 0 .8-.1.8h-.4s-.2-.4-.3-.5v-.6s0-.4-.2-.6c0 0-.2-.4-.2-.8v-.2s-.1-.1 0-.3h.2Z"/><path class="cls-3" d="M106.6 15.2V17s-.5.1-.7.3c-.1 0-.3 0 0-.2.2-.1.7-.8.4-1.1-.2-.3-.5-.7-.6-.8h1Zm.4 2.4s-.5.3-.3.6c.1.2.3.4.6.2l.2-.2s.4-.4.2-.5c0 0-.2-.5-.5-.3-.1 0-.2.1-.2.1Zm3.7.6s-1.5.2-2.3.9c.2 0 1.1-.3 1.5-.4s.8-.4.8-.4Zm-7.9 10.5s-1.7-.4-2-.4.6.7.6.7.7.6 1.9.8c0 0 1.3.2 1.6.6.3.2 1.1.9 1.6.3 0-.1.2-.6-.1-1.1 0-.2-.1-.8-.1-.8s-.4-2.9-.4-3.1 0-.9.8-1c.9 0 .9-.1 2.6.2.2 0 1.1-.2 1.1-.8 0-.2 0-.7-1.6-1.2h-.2s-.8.8-1.5.7c-.2 0-1 0-1.4.2s-.3-.1-.3-.1c0-.1.2-.3.4-.4h.3c0-.1 1.4-.9 1.6-1.1.2 0 .3-.3.2-.7-.2-.2-.6-1-1.4-.9 0 0-.4 0-.2-.1.2-.2.6-.2.8-.3.2 0 1.1-.4 1.5-.4.5 0 1.9 0 2.4-.4.6-.3.8-.7.8-.8 0 0 .5-1.2-.4-1.5-.2 0-1.2 0-1.5.3-.3.2-1.2.4-1.2.4s-.6.2-.5-.2.5-1.2.5-1.2l1.3-2.6.3-1s.2-.6-.9-.8c-.1 0-1.4.3-2.1.7-.2.1-.6.5-.3.7 0 0 .4.1.9-.1.2-.1 1.1-.6 1.3-.4v.6s-.7.8-.7 1.1c0 .2-.2 1.3-.5 1.5h-.3s-.2-.1 0-.3c.1-.2.6-.7.3-1s-.5-.5-1.3-1c0 0-.2-.3 0-.5.3-.3.6-.8.6-.8s.2-.3 0-.7c-.2-.2-.4-.3-.4-.3s0-.1-.2.3-.7 1.7-1 2c-.1.1-.6.5-1 .3h-.1s-.4 0-.4.2v.5c.1 0 .3.3.3.3s.2.2-.1.3c0 0-.4.3-.3.7 0 0 .3.2.5 0 0 0 .2 0 .2-.1s.3-.2.2.2c0 .4-.4.9-.4.9s-.3.5-.7.2c0 0-.2-.1-.2-.5 0-.2 0-1.6-.3-2.1-.2-.4-.7-1.3-1.5-2 0 0-.2-.2-.3 0 0 .1-.1.2 0 .5 0 .3.8 1.5.7 2.7 0 .3.1.8 0 1v1.3c0 .3.2.9.3 1.2 0 0 0 .2.3 0 .2-.2.3-.4.6-.9 0 0 .2-.4.6-.1 0 0 .2 0 0 .3 0 .2-.2.9-.2 1 0 0 .4-.3.5-.4 0-.1.3-.5.4-.5 0 0 0-.2.3 0h.1c0 .1.2.4.2.4s-1.1.9-3.1 1.1h-.3l-.7.3s-.2.3.2.4h.3s1 .2 2.2-.2c.3-.1 1-.4 1.1-.5.2 0 1.4-.6 1.6-.4 0 0 .3 0-.2.3h-.3c0 .1-.9.5-1.1.8s-.3.5.1.5c.2 0 1.3.4.8 1-.3.4-.6.7-.6.8-.1.3-.4.9-.9 1-.3.1-2.2.8-2.4.8s-2.5.7-3.1.5c0 0-.4 0-.4.2s0 .4.2.6c.2.3.7.7.8.7.2 0 .4.2 1 0 .5-.2 3.7-1.6 3.7-1.6s1.1-.6 1.3 0c0 .4.3 2.4 0 3.1 0 .1-.1.5-.1.6 0 0-1.8-.3-2.1-.4.3.2-.2 0-.2 0ZM62.3 13.9s.6 0 .4.7c-.1.1-.6.8-2 .8-.1 0-2.5.4-3.8.9-.4.1-2.2 1-2.9 1.3-.1 0-.8.3-1.1.4-.1 0-.8.2-2.2 1.1-.1 0-.4.2-.8.1H49c-.1 0-.4-.3-.4-.3v-.3s3.7-1.2 6.1-2.1 3.8-1.3 3.8-1.3 1.6-.7 2.2-1.1c.6-.3 1.1-.6 1.5-.4h.1Zm-9.6 18.2s.6.5.7.2c.3-.3 1.2-1.4 1.6-2.1v-.8c-.2 0-2.3.8-2.8 1.5 0 0-.3.4 0 .6l.6.6Zm5.4-3.9s0 .8.5 1.6c0 .2.7.9 1.2.5l.2-.2v-.7s-.1-.3-1-.9c-.2-.2-.5-.3-.8-.3zm1.2-4.6s0 1.2-.6 1.5c-.2 0-.9.3-.9 1 0 .3-.1 1 .3.9s.1 0 .3-.3v-.2c.1 0 2.3-2.9 2.5-3 0-.1.3-.4-.1-.3-.2 0-1.1.2-1.5.4h-.1Zm-2.8 2.3s.1.8 0 1c0 0 0 .1.3 0 .1-.2.3-.7.4-.8 0 0 0-.6-.4-.4-.2 0-.3.2-.3.2m-2.2-4.3c0 .2-.8 1.5-.9 1.9-.1.3-.3.6-.3 1.1 0 0 .5 0 .8-.4.2 0 .2-.1.2-.1s1.4-.9 2-1.3 1.5-1.1 1.5-1.1.2-.3.2-.4c0-.2.6-1.1.9-1.5 0 0 .3-.5-.1-.4s-1.6.4-1.4 1.1c0 .2.3.9 0 1.1s-.6.2-.8-.3c0 0 0-.7-.5-.6-.3.1-1.5.5-1.6.9m.5-4.1s.2-.5.4-.1h.2s-.3 2.2-.5 2.5c0 .1-.3.5.7 0 .3-.2 1-.6 1.3-.7 0 0 1.4-.5 2.2-1.3 0 0 .5.1.7-.2s.3-.4.7-1.4h.4l.7 1.1s.1.3 0 .3c0 .1-1.2 1.2-1.8 2.6 0 .1-.2.5.3.3s2.3-1.1 2.7-1.2c0 0 .4-.3.9 0 .1 0 .7.3.5.7l-.2.2s-.7.3-1 .3-1.1.4-1.5.5c-.3.1-1.5.4-1.5.2 0 0-.1-.1-.3.2-.1.3-.2.2-.2.2s0-.3-.2-.1h-.2s-.3.2-.5.3c0 0-.4 0-.1.6 0 0 0 .5.6.3.5-.2 2.4-1 3.3-.7.1 0 .5.3.2 1.1-.3.5-2.5 3.4-2.5 3.4l-1.2 1s-.2.2-.5-.1c-.3 0-1.1 0-1.5.3 0 0-.2-.1-.6-.1 0 0-.1-.2.1-.4s-.1-.3-.2-.4h-.1s-.4-.1-.3-1c0-.6.2-1.3.4-1.6 0 0 .7.7 1.5-.1.1-.2.4-.5.5-1.2 0 0 0-.4-.4 0s-1 .8-1 .8-.2.1-.3 0c0-.1-.2 0-.5.2l-.3.2-3 1.9s-.5 0-.9 1.2l-.3.6s-1 1.6-1.3 2.2c-.1.2-1 1.8-1.8 2.3 0 0-.2 0-.2-.1 0-.2-.3-.3 0-.5.3-.4 2-3.1 2.6-4.8.7-1.7 2-4.8 2-5 0-.1 1.8-4.2 2-4.4l.1-.2Zm1.5-5.3s-.4-.3-.3.3c0 .1.3.5.7 1.1 0 0 .6.5.2.8 0 0 .5.3.6.4.2.1.5 0 .6 0l.4-.2s.1-.4 0-.7c-.1-.2-.6-.8-1.6-1.2-.1 0-.6-.3-.6-.3Zm11.6 12.1s.7.3 1.2 2.6c0 .2.3.7-.5 1.1 0 0-.1.2-.3 0h-.4s0-.4-.2-.5c0 0-.3-.4 0-1v-.2s.1-.2 0-.8c0-.6-.1-1.1 0-1.1s.1-.1.1-.1Zm4.8-6.6h-1.2c-.3 0-.8 0-.2.4 0 0 .3.2.3.4 0 0 1 .6 2.3.8.2 0 .5 0 .2.2-.1.2-.5 1-.7 1.6-.2.5-.6 1.8-1.9 1.5 0 0-.4 0-.3-.8 0 0-.2-.4-.4-.4 0 0-.1.6-.1 1s0 .6-.5 1l-.3.2-.5.4s-.3.3.4.5c.2 0 .9 0 .6.3 0 0 0 .4.2.7 0 .1.7.6.9 0s0-1.2.3-1.5c.2-.2.8-.8 1-.2.3.6.3.4.3.6 0 0 .6.4 1.2.3h.3c0-.1.2-.5-.2-1H74s-.5 0-.4-.2.4-.7 1.4-.9c.3 0 .8-.3.8-.3h.3s.2 0 0 .4-1.6 3.1-1.6 3.1-.4.8-.5-.2c0-.1-.2-.6-1.4-.1-.3.1-.7.3-.8.5 0 .2-.1 0 .1.2.2.1.9.2 1.2.2 0 0 .6 0 .7.3v.2c.1 0 .6.5.6.5h.5s.6-.8 1.2-2.1c.2-.3.3-.6.7-1.3.5-.7.8-1.5.8-2 0-.2-.4-.8-1.3-.4-.4.1-1.7.5-1.7.5s-.5.2-.4-.3c.1-.4.2-.8.3-1.1 0-.1 0-.5.9-.6.6 0 2.2 0 2-.8 0-.1 0-.5-.6-.6-.7-.2-3.9-.7-3.9-.7Zm16.2 5.4s0-.2-.2 0v.2c0 .2.7 1.8 1.1 2.5.3.7 1.1 2.3 1.4 2.3 0 0 .7.1 1.3.2s.9 0 1.2 0c.1 0 .3-.2.5-.2 0 0-.2-.2-.5-.4s-1.8-1.1-3.6-3.1c-1-1.3-1.2-1.5-1.2-1.5m-3.9-.4s-1.4.4-2.1 1c-.2 0-.4.2.2.7.1.1.6.4 2-.5.5-.2 1.3-.8 1.5-1 .2-.1.5-.4.4.3 0 .1 0 .6-.6 1.3-.2.3-1.1 1.8-1.7 2.2-.3.3-.2.5-2.8 1.3-.1 0-.5 0-.2.4 0 0 1.5.5 3.3-.4.7-.5 1.3-.8 2.4-3.1.2-.5.3-1 .5-1.8.1-.4.3-1.2 1.7-1.7 0 0 1.7 0 2.1-.7 0 0 .3-.5-.4-.7h-1.1s-.4.1-.7.5c0 0-.2.3-.5.2 0 0-.1-.1 0-.4 0-.3.4-1.7.4-1.8s.4-1.4-.8-2.1h-.8s-.1 0-.2.6c0 .6.2 1.3 0 2.3v1c0 .4 0 1.1-.5 1.2-.4.2-2 .9-2 .9Z"/><path d="M48.6 36.8h1.8v1.3c-.2.1-.4.3-.7.4s-.7.2-1 .2c-.4 0-.8 0-1.1-.2-.3-.1-.5-.3-.7-.6s-.2-.6-.2-.9 0-.6.3-.9c.2-.3.4-.5.8-.6.3-.1.6-.2 1-.2s.9 0 1.2.3c.3.2.5.4.5.7h-.8l-.3-.3c-.2 0-.4-.1-.6-.1-.4 0-.6 0-.9.3-.2.2-.3.5-.3.8s.1.7.3.9.5.3.8.3h.5c.2 0 .3-.1.4-.2v-.4h-.9V37Zm3.6-1.5v2.3c0 .1.1.3.3.3.1 0 .3.1.5.1s.4 0 .5-.1c.1 0 .2-.2.2-.3v-2.4h.8v2.5c0 .2-.1.3-.2.4s-.3.2-.5.3H53c-.3 0-.7 0-.9-.1-.2 0-.3-.2-.5-.3-.1 0-.2-.2-.2-.4V35h.8Zm7.3 3.3h-.9l-.4-.7h-1.6l-.3.7h-.9l1.6-3.3h.9zM58 37.3l-.6-1.2-.5 1.2zm2.3 1.3v-3.3h.8l1.7 2.2v-2.2h.8v3.3h-.8l-1.6-2.1v2.1h-.8Zm6.3-1.8h1.8v1.3c-.2.1-.4.3-.7.4s-.7.2-1 .2c-.4 0-.8 0-1.1-.2-.3-.1-.5-.3-.7-.6s-.2-.6-.2-.9 0-.6.3-.9c.2-.3.4-.5.8-.6.3-.1.6-.2 1-.2s.9 0 1.2.3c.3.2.5.4.5.7h-.8l-.3-.3c-.2 0-.4-.1-.6-.1-.4 0-.6 0-.9.3-.2.2-.3.5-.3.8s.1.7.3.9.5.3.8.3h.5c.2 0 .3-.1.4-.2v-.4h-.9V37Zm2.4 1.8 1.4-1.7-1.3-1.6h1l.8 1.1.8-1.1h.9l-1.3 1.6 1.4 1.7h-1l-.9-1.1-.9 1.1h-1Zm4.5 0v-3.3h.8v3.3zm3.9-3.3h.8v2.3c0 .1.1.3.3.3.1 0 .3.1.5.1s.4 0 .5-.1c.1 0 .2-.2.2-.3v-2.4h.8v2.5c0 .2-.1.3-.2.4s-.3.2-.5.3H79c-.3 0-.7 0-.9-.1-.2 0-.3-.2-.5-.3-.1-.1-.2-.2-.2-.4V35Zm4.4 3.3v-3.3h.8l1.7 2.2v-2.2h.8v3.3h-.8l-1.6-2.1v2.1h-.8Zm4.4 0v-3.3h.8v3.3zm3 0-1.4-3.3h.9l1 2.4 1-2.4h.9l-1.4 3.3h-.9Zm3.1 0v-3.3h3v.6h-2.2v.7h2v.6h-2v.9h2.3v.6h-3.1Zm4.1-3.3H99c.2 0 .4.2.5.3s.2.3.2.5 0 .5-.3.6c-.2.2-.4.3-.8.3.2 0 .3.2.4.3.1 0 .3.3.5.5l.5.6h-1l-.6-.7c-.1-.2-.3-.3-.4-.5l-.2-.1h-.6v1.4h-.8v-3.3Zm.8 1.4h1.3s.2 0 .2-.1v-.2c0-.1 0-.2-.1-.3 0 0-.2-.1-.3-.1h-1.2v.8Zm3.4.8h.8c0 .2.1.3.3.4.1.1.3.2.6.2s.5 0 .6-.1c.1 0 .2-.2.2-.3v-.2s-.2-.1-.3-.1c-.2 0-.4-.1-.7-.1-.4 0-.7-.2-.9-.3-.2-.2-.4-.4-.4-.7s0-.3.2-.5c.1-.1.3-.3.5-.3s.5-.1.8-.1c.5 0 .9 0 1.1.3.3.2.4.4.4.7h-.8c0-.1-.1-.3-.2-.3s-.3-.1-.5-.1-.4 0-.6.1c0 0-.1.1-.1.2s0 .1.1.2c.1 0 .4.1.8.2.4 0 .7.2.9.2s.3.2.4.3c.1.2.2.3.2.5s0 .4-.2.5c-.1.2-.3.3-.5.4-.2 0-.5.1-.9.1-.5 0-.9 0-1.2-.3-.3-.2-.4-.5-.5-.8Zm4.3 1.1v-3.3h.8v3.3zm2.8 0v-2.7h-1.2v-.6h3.2v.6h-1.2v2.7zm4 0v-1.4l-1.5-1.9h1l1 1.3.9-1.3h.9l-1.5 1.9v1.4z" style="fill:#17439a"/></g></svg>