<svg width="128" height="128" fill="none" xmlns="http://www.w3.org/2000/svg"><path fill-rule="evenodd" clip-rule="evenodd" d="M64.003 20c24.234 0 44.003 19.763 44.003 43.997S88.243 108 64.003 108 20 88.237 20 64.003C20 39.763 39.763 20 64.003 20m0 1.267c-23.532 0-42.73 19.198-42.73 42.73 0 23.538 19.198 42.73 42.73 42.73 23.538 0 42.73-19.198 42.73-42.73s-19.198-42.73-42.73-42.73" fill="#a4130e"/><path fill-rule="evenodd" clip-rule="evenodd" d="M64.003 22.875c22.65 0 41.122 18.471 41.122 41.122 0 22.65-18.471 41.122-41.122 41.122-22.65 0-41.122-18.472-41.122-41.122-.006-22.644 18.472-41.122 41.122-41.122M42.18 35.31a9 9 0 0 1-.236.28q.076.11.143.23c.068-.044.13-.087.198-.137q.175-.142.342-.292l.13-.112c.093.081.087.23.075.335l-.02.106c-.011.056-.03.118-.043.174-.062.199-.136.385-.21.577-.013.038-.032.075-.044.112l-.106-.087a3 3 0 0 0-.18-.118l-.13-.068c-.068-.031-.13-.062-.199-.087a2 2 0 0 0-.205-.068 5 5 0 0 0-.565-.118 5 5 0 0 0-.422-.037q-.214-.009-.428-.007l1.664 1.708q.102-.017.205-.044l.13-.043a1 1 0 0 0 .112-.05l.093-.062.05-.05a.4.4 0 0 0 .062-.087l.03-.062a1 1 0 0 0 .032-.099c.018-.105.025-.217.025-.323h.167c.118-.186.242-.366.36-.552.019.018.031.043.05.062.105.161.174.341.242.515.044.112.08.23.13.342-.49.943-.98 1.88-1.452 2.83q-.373.748-.727 1.503c-.05.075-.105.143-.174.205-.037.038-.08.075-.118.112-.099.087-.205.168-.298.26a2 2 0 0 0-.111.125l.111.161.075.081.074.068.081.05.087.031.087.013.08-.007.081-.024.075-.038.068-.05.062-.062.062-.068.056-.074.056-.081.056-.087.05-.093.093-.193.13-.298.075-.192c.062-.186.124-.366.18-.559.149-.348.28-.695.416-1.05.105-.272.21-.54.329-.806l.205-.447c.056-.106.105-.212.161-.31.112-.2.23-.392.379-.566l.018.05c-.037.03-.062.062-.093.1.013.036.025.074.044.105.037.074.1.118.161.167.025.025.056.044.081.062l.093-.037.044-.025.037-.03c-.08.123-.155.248-.236.372l.304-.093.062-.025.112-.05q.082-.046.155-.093l.1-.074q.073-.058.136-.125c.044-.043.08-.087.124-.13.062-.075.125-.155.18-.242q.148-.226.286-.46c.056.093.105.18.161.274.112.198.218.397.31.602a1 1 0 0 1 .075.217l-.006.05q.075.138.15.267c.235.41.483.807.738 1.204.186.292.379.584.559.882a5 5 0 0 0-.516.118c-.006-.248-.006-.49 0-.739l-.068-.056q-.075-.057-.149-.105a2 2 0 0 0-.186-.1c-.037-.012-.075-.03-.112-.043a1 1 0 0 0-.192-.037c-.038-.007-.081-.007-.118-.007a1.2 1.2 0 0 0-.323.063.4.4 0 0 0 .062-.13c.012-.063.012-.131.012-.193.137-.093.274-.174.41-.261-.105-.168-.21-.33-.317-.497-.086.013-.173.025-.254.044-.13.03-.255.062-.379.111-.136.05-.267.112-.397.168l.08.118.044.05a.6.6 0 0 0 .093.074c.031.019.062.031.087.05.056.025.118.05.161.1.056.074.05.167.05.254q.084.129.168.267a.7.7 0 0 0-.031.23c-.075-.094-.156-.18-.236-.268a8 8 0 0 0-.398-.39 33 33 0 0 1-.484-.454l-.143-.149a8 8 0 0 1-.236.112c.056.093.118.186.174.28.261.453.466.937.752 1.384-.007.043 0 .08 0 .118l.018.062c.013.043.031.08.056.124l.056.087q.057.075.124.13l.087.069c.056.037.106.062.161.093.038.012.069.025.106.037l.124.025.1-.106.05-.074.036-.08.025-.082c.013.212.019.416.025.627-.006.112-.019.23-.03.348q-.021.186-.05.373c-.044.248-.1.49-.15.739-.043.087-.093.174-.136.26q-.03.066-.05.13a.4.4 0 0 0-.019.125c0 .056.007.105.02.161.018.075.043.143.061.212l.18-.125.075-.062.068-.068.068-.075.063-.08.062-.087.055-.087.056-.093.05-.1.093-.205.08-.217.113-.335.062-.23q.12-.485.223-.968c.019-.1.044-.2.062-.298.124.124.298.18.466.23l.242.055.354.056c.211.025.416.043.627.056q.343.019.677.05a1 1 0 0 0 .255-.156c.05-.05.08-.099.117-.155.031-.062.069-.13.1-.199-.069-.124-.137-.242-.205-.366l-.1-.025-.061-.012c-.075-.013-.143-.013-.218-.019a5 5 0 0 0-.695.019c-.242.018-.478.05-.714.087.068-.056.136-.112.198-.18l.075-.093q.028-.046.056-.1l.025-.068.018-.068.006-.075a1 1 0 0 0-.012-.112l-.025-.074a1 1 0 0 0-.143-.267l-.055-.025-.025-.012-.056-.044a1 1 0 0 1-.15-.18l-.061-.093a3.3 3.3 0 0 1-.341-.758.2.2 0 0 1-.013-.062l.006-.037-.105-.167a21 21 0 0 1-.311-.485 2 2 0 0 1-.124-.248c-.013-.044-.025-.08-.037-.124a2 2 0 0 1-.031-.174 2 2 0 0 1-.007-.267l.019-.224-.05-.08c-.037-.05-.068-.1-.105-.143a2 2 0 0 0-.112-.124 2 2 0 0 0-.118-.106l-.087-.062-.155-.006-.093-.038-.1-.024-.099-.013h-.105l-.106.013-.112.018-.112.031-.118.044-.155.074-.03.112a7 7 0 0 1-.1.33q-.064.186-.137.365-.076.177-.161.354c-.093.174-.186.348-.292.516l.012-.044q.018-.074.025-.155l.006-.112q.002-.083-.006-.167a4 4 0 0 0-.093-.56c-.006-.036-.019-.074-.025-.117.05-.087.093-.18.143-.273a5 5 0 0 1 .248-.454 1 1 0 0 0-.043.224c-.006.068 0 .143 0 .217q.111-.036.224-.08c.03-.02.062-.032.093-.05.037-.025.068-.056.105-.087a.6.6 0 0 0 .08-.1 1 1 0 0 0 .094-.16c.044-.094.075-.187.106-.28.006-.019.006-.031.018-.044.106-.118.211-.223.304-.347.038-.056.069-.106.1-.168a.8.8 0 0 0 .087-.298l.068-.068c.087-.094.18-.18.248-.292.013-.025.031-.056.038-.081a.5.5 0 0 0 .024-.093v-.1a.5.5 0 0 0-.024-.099c-.013-.037-.031-.068-.044-.105a2 2 0 0 0-.1-.168l-.105.025c-.105.025-.217.037-.329.056-.1.012-.199.012-.298.03a.5.5 0 0 0-.087.026c-.149.304-.28.62-.422.931q-.166.384-.36.758a3.4 3.4 0 0 1-.36.564 15 15 0 0 1-.193-.552c.093-.137.199-.26.304-.385.038-.05.075-.093.112-.143l.069-.118.03-.087.02-.093.005-.05v-.105l-.012-.112-.031-.124a2 2 0 0 0-.093-.248l.161-.336.255-.565c.068-.136.136-.273.217-.403l.118-.174-.043-.087-.05-.075-.025-.03-.093-.075-.037-.019c-.038-.012-.075-.025-.112-.03l-.075-.007q-.055-.002-.111.006-.075.011-.15.031a1.7 1.7 0 0 0-.31.124l-.1.05.007.1v.037l-.019.111-.024.075-.056.118a1 1 0 0 1-.106.155c-.149.193-.316.354-.49.522l-.044.043-.614-1.23-.013-.061-.037-.15-.05-.142-.062-.137-.074-.124-.044-.062-.043-.056-.05-.056-.05-.05-.111-.099-.063-.043-.124-.075-.068-.03-.075-.026-.068-.024-.074-.02-.075-.012-.08-.012-.081-.006h-.08l-.082.006-.087.012-.087.02-.173.049-.193.074c.15.224.292.447.435.67q.308.487.59.982.168.3.329.608c.167.33.335.659.484 1-.075.13-.149.267-.236.391zm3.731 5.433c-.006-.043-.006-.093-.006-.136-.031-.038-.068-.069-.1-.1l.038.075.037.087zm-.87-2.005.169.13.068-.1c.056-.08.112-.16.155-.248a1 1 0 0 0 .062-.223c.006-.044.006-.08.013-.124l-.087-.056-.044-.025-.043-.019-.044-.012-.087-.012h-.043l-.075.018c-.037.013-.074.019-.111.037l-.069.031a1.6 1.6 0 0 0-.205.15c-.062.05-.117.105-.18.155-.05.03-.105.055-.155.087.069.074.13.155.199.23l.403-.075zm22.75-7.42-.074.124-.08.118-.174.236-.1.112-.105.111-.224.212-.118.099-.124.1-.13.093-.13.086-.274.162-.286.149-.149.068-.142.05-.15.056-.31.099-.155.043-.155.038-.156.03-.155.026-.155.018-.155.013-.18.006c-.025.025-.056.043-.075.074a.3.3 0 0 0-.025.174q-.002.064.007.137l.695.019h.304c.18-.007.367-.02.547-.032l.099-.024.1-.032.21-.074.224-.093.236-.106.242-.118.242-.13.242-.143.243-.155.23-.162.111-.086.211-.174.1-.087.093-.087.087-.093.08-.093.075-.093.068-.094.062-.093.056-.093.05-.093.024-.068c.038.099.075.192.112.291.168.429.33.857.522 1.267l.347.708.05.031.075.037q.064.02.136.037c.243.044.49.056.733.063.217.006.435.006.652.018l.192.019.075-.342-.186-.087-.118-.056-.112-.062-.211-.124-.199-.136-.093-.069-.174-.142-.167-.15a4 4 0 0 1-.23-.235l-.143-.168a8 8 0 0 1-.273-.341c-.23-.305-.454-.615-.683-.92l-.056-.074c.012-.112.08-.205.136-.292.025-.043.056-.093.075-.143.267-.105.54-.204.807-.304.429-.155.863-.298 1.292-.447.142-.05.285-.093.422-.143q.075-.026.149-.062l-.013-.074c-.012-.056-.012-.118-.018-.174l-.162-.019-.093-.006h-.08l-.094.006-.093.013-.174.037-.087.025-.08.03-.162.07-.155.074c-.18.093-.354.192-.534.285l-.149.075-.149.068-.149.056-.074.025-.075.018-.075.013-.08.006-.062.006a4 4 0 0 1 .198-.571c.069-.168.15-.335.23-.497.106-.217.205-.428.298-.645.044-.1.08-.2.118-.299.031-.087.056-.18.087-.267-.068-.105-.143-.204-.217-.304-.05-.062-.1-.124-.162-.18-.043-.043-.074-.062-.099-.087-.031-.025-.062-.043-.093-.062-.037-.018-.068-.037-.106-.056a1 1 0 0 0-.118-.043 2 2 0 0 0-.18-.044c-.074-.012-.142-.025-.217-.03-.025.074-.056.148-.08.223l.03.087.019.062.012.062.019.13.006.137v.143l-.019.23-.037.235c-.03.162-.068.317-.105.478-.062.249-.137.503-.199.752l-.012.043a1 1 0 0 0-.112.186 5 5 0 0 0-.168.354q-.04.084-.068.168c-.025.019-.056.025-.087.037-.155.05-.317.087-.472.125-.67.167-1.347.322-2.024.484a20 20 0 0 0-.609-.08l-.03.098-.013.069c-.006.037-.006.068-.006.105l.006.062a1 1 0 0 0 .031.094l.031.055.056.075.068.068c.038.031.075.05.112.075l.242.105.106.031 2.29-.906-.036.1-.056.13zm-12.815-.51-.056-.03-.062-.025-.068-.019-.255-.05.087.23q.057.16.093.33c.013.068.025.13.032.198.006.08.012.162.006.248-.006.05-.006.094-.019.143-.006.05-.018.093-.03.137a1 1 0 0 1-.088.186c-.062-.285-.105-.583-.155-.87a6 6 0 0 0-.118-.54q-.026-.09-.062-.192l-.075-.18-.08-.161a23 23 0 0 1-.64-.106 2 2 0 0 0-.124.093c-.056.044-.112.093-.168.137q.009.102.025.205c-.025.012-.05.018-.074.03-.025.013-.05.032-.069.044l-.037.727c-.05.645-.124 1.291-.23 1.93l-.13.05a2.4 2.4 0 0 0-.397-.242l-.069-.025a1 1 0 0 0-.205-.055 2 2 0 0 0-.279-.02 4 4 0 0 0-.28.026l.206.354q.118.186.248.372.083.113.174.224.091.11.192.21l.137.131.143.118.074.05.08.05.081.043.081.037.087.031.087.025.087.019.093.012.093.006.093-.006.094-.012.093-.019.1-.03.148-.063.025-.124.012-.137c0-.068-.006-.13-.012-.199l-.019-.13a3 3 0 0 0-.105-.366c-.044-.124-.087-.242-.13-.367-.032-.105-.069-.217-.05-.329l.03-.08c-.018-.075-.03-.156-.043-.23a4 4 0 0 1-.025-.273l-.006-.857-.043-.584c.1.187.167.385.248.578l-.018.062-.013.062-.006.062v.068l.012.081c.013.075.025.143.044.211l.043.15c.1.303.224.608.31.918l.032.137.018.118v.099l-.006.043-.012.038-.031.074.037.112.037.155.031.18.019.199q.008.156.006.323c-.006.112-.006.223-.019.341l-.037.348a3 3 0 0 1-.056.341 4 4 0 0 1-.068.323 4 4 0 0 1-.112.385c-.043.13-.093.261-.167.38q-.149.054-.305.092c-.093.019-.186.031-.273.062l-.149.056q.085.15.162.298l.155.05.112.025.105.012h.106l.099-.012.093-.019.087-.031.087-.043.075-.05.074-.056.068-.062.062-.068.056-.075.05-.08.05-.087.043-.087.08-.187.07-.198c.043-.137.074-.267.11-.404.063-.255.113-.503.175-.758l.006-.173c0-.087-.006-.168-.006-.249q-.012-.165-.031-.323c-.05-.385-.137-.763-.174-1.154l-.013-.143q-.008-.14-.006-.28c.093.038.186.075.286.093a1 1 0 0 0 .174.02c.124-.007.236-.038.354-.075l.192-.063-.056-.16c-.074-.243-.13-.491-.192-.74a6 6 0 0 0-.106-.36 2 2 0 0 0-.08-.199l-.063-.124-.074-.111-.087-.1-.05-.043zm4.316 4.055c.068.093.13.18.205.267l.136.137q.054-.047.118-.093c.044-.038.093-.075.137-.106-.714-2.049-1.422-4.104-2.205-6.122l.044-.08-.037-.094a6 6 0 0 0-.249-.54c-.043-.08-.087-.155-.13-.236q-.075-.119-.15-.23l-.11-.136-.057-.062-.062-.056-.056-.062-.062-.044-.068-.037-.075-.031-.074-.019-.08-.006-.082.006-.08.019-.075.031-.074.05-.075.062-.068.074-.1.13.056.137c.087.18.205.348.317.522.143.223.286.447.385.695a.6.6 0 0 1 .037.143l.007.075-.013.055-.025.075c.162.379.317.757.478 1.136a3 3 0 0 1-.36-.28c-.05-.055-.1-.105-.136-.173-.019-.037-.038-.068-.056-.112a1 1 0 0 1-.05-.192c-.012-.075-.012-.15-.018-.224l-.249.019-.199.025.081.23.044.52-.143.057a1.3 1.3 0 0 0-.224-.298l-.062-.056a.5.5 0 0 0-.1-.062c-.036-.019-.068-.031-.105-.05-.05-.018-.1-.025-.149-.037-.068-.006-.13-.013-.198-.013-.15.007-.299.032-.447.056l.192.174c.1.1.174.218.248.335l.05.094c.106.204.193.416.211.645 0 .038 0 .069-.006.106l-.031.1q.169.351.329.713l.112.28q.063.177.118.354c.03.117.062.236.08.354.013.074.019.142.031.217.007.074.007.143.007.217l-.007.205q.086.066.18.13c.143.094.305.15.46.205.062.025.124.044.186.069l.1-.087c.05-.044.086-.087.13-.137l.068-.087.05-.093.037-.093.019-.093.006-.093-.006-.093a.8.8 0 0 0-.05-.174c-.05-.143-.118-.28-.18-.423-.03-.068-.056-.136-.087-.205l-.062-.03c-.031-.02-.05-.044-.074-.069a1.4 1.4 0 0 1-.156-.23l-.062-.124a9 9 0 0 1-.397-1.037l-.031-.099c.167.019.329.025.49.006l.087-.012.124-.037.081-.038.075-.05.03-.03.032-.038.025-.037.018-.043-.006-.038c.46 1.087.919 2.18 1.385 3.266l.03.019.02.025q.073.091.13.192c.161.236.31.478.472.714m20.856-1.086q-.066.076-.13.142l.092.1.044.037.043.031.087.05.05.018.1.025.098.013h.1q.077-.009.143-.025l.099-.025c.112-.037.217-.08.33-.13.098-.044.198-.094.297-.137.075.08.112.192.13.298.007.044.007.08.007.124-.298-.012-.596-.006-.888-.018a11 11 0 0 1-.621-.031 3 3 0 0 1-.565-.1c.1-.1.168-.217.23-.335l.068-.155.062-.162.05-.167.043-.174.031-.168.019-.167.006-.162v-.074l-.006-.075-.013-.068-.018-.069-.019-.062-.025-.055-.03-.05-.038-.044-.05-.037-.192-.105.019.217v.05l-.013.099-.012.05c-.019.055-.038.105-.056.161l-.056.112c-.062.118-.13.223-.205.335-.168.273-.354.578-.317.913-.025 0-.05.006-.074.006l-.056.149q-.007.037-.025.075l.087.093.062.062.069.056.068.05.074.049.075.043.08.044.081.037.174.062.18.056q.14.035.28.062l.192.031c.1.013.192.019.292.031l.391.019c.242.006.484 0 .726-.006a.4.4 0 0 0 .087.024c-.03.063-.062.118-.093.18-.068.007-.143.007-.21.007q-.288-.002-.585.025c-.055.006-.117.012-.173.024l-.168.038-.106.037-.093.043-.043.025-.075.062-.03.038-.032.043-.043.087.068.093.043.05.044.043.043.038.1.062.05.024.105.044a1 1 0 0 0 .162.037l.111.013c.218.018.441.012.658.037l.05.006a5 5 0 0 1-.584.118c-.174.031-.347.056-.521.1-.106.03-.23.068-.31.155-.025.012-.044.024-.069.037l-.043.037a.5.5 0 0 0-.069.087c-.012.025-.025.044-.03.068-.032.093-.044.193-.063.292-.006.025-.012.056-.025.08a43 43 0 0 0-1.77-.39 32 32 0 0 0-1.658-.273 55 55 0 0 0-.992-.125c-.038-.043-.069-.087-.118-.118-.056-.037-.13-.05-.193-.062l-.074.05-.038.031-.03.037-.025.037-.038.087-.012.044-.006.043v.044l.012.087.025.087.056.13.05.08c.03.044.055.081.086.119q.064.075.137.149c.062.056.124.105.186.155l.1.062h.167c.565-.006 1.13-.025 1.701-.019q.187.002.373.013c.186.011.248.019.366.025q.186.017.373.043.186.03.372.068c.224.05.454.1.671.168-.124.224-.224.46-.317.69q-.093.22-.186.434a4.3 4.3 0 0 1-.391.695 2 2 0 0 1-.317-.149l-.136-.093c-.069-.05-.137-.105-.2-.155l-.13-.118c-.204-.199-.397-.404-.602-.602l-.124-.112-.136-.087-.13-.087-.138-.074-.068-.032-.186-.068-.006.162.006.05.025.049.05.106c.124.23.279.44.428.651.08.119.168.23.254.348.218.292.435.578.634.882.043.068.08.13.124.205.192.068.385.136.571.21l.118-.061.15-.093.13-.093.118-.1.105-.1q.073-.072.137-.154l.08-.106c.038-.056.075-.105.106-.168.124-.217.23-.44.348-.664l.167-.298v-.025l.037-.167q.066-.27.15-.54l.18.037c.291.074.57.18.863.248.05.012.105.025.155.031.074.012.143.025.217.031q.093.008.186.006l.075-.043.05-.037.087-.075.037-.037.05-.087.012-.044.012-.05v-.086l-.006-.044-.012-.043-.019-.044-.043-.08a1 1 0 0 0-.081-.106l-.062-.062c-.044-.043-.093-.074-.143-.118a2 2 0 0 0-.18-.105l-.08-.038h-.119c-.205.006-.416.025-.627.006-.037-.006-.068-.006-.105-.012a2 2 0 0 1-.18-.043 2 2 0 0 1-.193-.081c0-.15.006-.292.006-.44.1.011.193.018.292.024.193.012.385.025.578.025.086 0 .173-.007.26-.007.087-.006.168-.012.255-.024l.18-.038q.084-.019.168-.05l.124-.055.056-.1.03-.074.026-.068.012-.069.006-.062-.006-.062-.012-.062-.025-.056-.031-.05-.038-.043-.043-.037-.05-.037-.05-.031-.055-.032c-.062-.024-.118-.05-.18-.068a1.5 1.5 0 0 0-.224-.056c.273-.006.54-.006.814-.006l.08.013.267.018h.267c.087-.006.174-.006.267-.012q.216-.02.441-.05c.435-.062.87-.155 1.304-.23l.23-.037.037-.136.012-.081-.006-.075-.012-.068-.025-.062-.037-.062-.044-.05-.05-.043-.055-.038-.063-.037-.068-.025-.149-.05a3 3 0 0 0-.242-.043l-.174-.018a8 8 0 0 0-.683-.025q-.086.002-.161-.007c.062-.043.118-.086.18-.124.453-.316.906-.62 1.36-.937q.148-.105.298-.217a2 2 0 0 0 .173-.106l.156-.124c.025-.025.05-.056.074-.081.037-.05.075-.093.1-.149a1 1 0 0 0 .043-.093c.019-.056.037-.106.043-.168.007-.037.013-.068.013-.105V32.1l-.093-.037a4 4 0 0 0-.367-.137c-.05-.012-.099-.03-.149-.043a4 4 0 0 0-.353-.075l-.2-.018h-.192l-.136.012-.143.031-.013.069-.006.167.075.038c.08.037.161.074.248.099l.199.056q-.094.12-.199.242c-.074.08-.143.155-.223.236-.1.093-.193.18-.298.267a6 6 0 0 1-.74.54c-.111-.05-.136-.18-.16-.292l.005-.006a1 1 0 0 1 .094.062 1.3 1.3 0 0 0 .304-.124.4.4 0 0 0 .105-.1c.044-.05.075-.105.106-.155-.056-.118-.106-.236-.174-.354a1 1 0 0 0-.1-.136l-.055-.056a1.4 1.4 0 0 0-.267-.155c.1-.013.199-.019.298-.038a2 2 0 0 0 .236-.05l.093-.036c.031-.02.056-.032.087-.056.031-.025.056-.044.08-.075.026-.031.044-.062.069-.093l.062-.118-.05-.08c-.105-.162-.192-.336-.298-.497-.05-.069-.093-.13-.155-.193-.03-.031-.062-.056-.093-.087a1 1 0 0 0-.106-.074 1 1 0 0 0-.118-.063l-.161-.068-.037.087c-.006.019-.013.031-.013.05 0 .062.019.118.044.18.025.074.05.155.068.23a2 2 0 0 1-.186.21c-.025.026-.056.05-.08.075-.138.124-.287.23-.43.348-.012 0-.024-.006-.037-.006a7 7 0 0 0-.341-.069 7 7 0 0 0-.168.218l.13.111a.7.7 0 0 1-.217.13 2 2 0 0 1-.18.063l.007-.05.012-.105q.001-.084-.006-.168l-.013-.118-.037-.18c-.012-.062-.031-.118-.05-.18q-.029-.082-.068-.174c-.025-.056-.05-.105-.074-.161-.025-.05-.056-.093-.087-.143l-.069-.08-.068-.07-.13-.105c-.025.069-.056.13-.075.2l-.012.061q-.007.093-.006.186c.006.137.024.274.018.416a2 2 0 0 1-.025.187l-.025.087.013.055a.5.5 0 0 1-.062.205c-.106.2-.242.373-.367.56q-.054.075-.099.16c.062.032.124.056.186.088.118.05.236.099.348.161.05.031.106.062.155.106.05.043.1.093.143.142l-.05.044c-.05.037-.093.062-.148.093l-.1.037-.143.038-.192.024h-.354l-.124-.012zM76.78 35.56l.019.111c.106.032.217.069.323.106.025.006.05.019.068.025l.093-.013.069-.024.062-.032.055-.037.05-.043.044-.05.043-.056.037-.062.031-.068.025-.068.037-.15.025-.155c.013-.08.013-.155.019-.236v-.161q-.001-.111-.013-.23a2 2 0 0 0-.105-.509l-.056-.118-.136.08-.106.075-.1.087-.086.093-.081.1-.075.105q-.046.082-.093.174l-.05.118c-.018.062-.043.118-.061.186-.013.063-.032.125-.044.187a2 2 0 0 0-.025.186c0 .062-.006.124 0 .186.019.075.025.13.031.193m5.8-.503-.044.025c.205-.02.397-.056.602-.094l.503-.099-.198-.037-.156-.006-.155.012-.155.031a1 1 0 0 0-.155.05c-.05.018-.1.043-.15.062zm.26-1.068a.4.4 0 0 1-.062-.08l-.037-.082q-.187-.035-.366-.062c.068-.087.124-.18.21-.254a.8.8 0 0 0-.204.006c-.08.018-.162.056-.236.093.062.112.112.23.161.348.013.037.031.074.044.111.025.063.05.13.08.187.094 0 .18 0 .274-.019a.3.3 0 0 0 .118-.056.7.7 0 0 0 .111-.124c-.037-.025-.068-.043-.093-.068m-.292-1.285a1 1 0 0 1 .087.043c-.062-.056-.136-.1-.204-.149q-.363.076-.715.161c-.03.05-.055.1-.087.15l.038.055a.73.73 0 0 0 .26.273 1 1 0 0 0 .23-.16l.044-.044c.1-.112.174-.242.248-.373l.1.044ZM39.552 85.46l-.205.193.13.136q.16.166.144.286-.01.12-.224.317L37.05 88.59c-.143.136-.255.192-.323.18q-.111-.019-.298-.224l-.08-.08-.205.186 1.21 1.291.205-.192c-.18-.193-.28-.317-.298-.385-.019-.069.056-.18.236-.354l1.087-1.018 1.626 1.732-1.055.987a1.5 1.5 0 0 1-.267.217.18.18 0 0 1-.168.007c-.056-.025-.13-.1-.236-.205l-.087-.093-.205.192 1.199 1.28.205-.193a2 2 0 0 1-.242-.305c-.038-.068-.044-.124-.013-.18q.046-.084.211-.236l2.316-2.173c.155-.143.267-.21.348-.205q.112.012.273.18l.106.112.205-.192-1.199-1.28-.205.193.124.13q.177.194.15.305c-.02.074-.112.192-.267.341l-.926.87-1.626-1.733.95-.894c.155-.149.273-.217.353-.217q.122.001.317.217l.08.087.206-.192zm-3.228-4.514-1.348.15.025.31c.422-.019.758.03 1 .149q.363.176.726.788l.49.826-4.991-.534-.243.143 1.807 3.055 1.515-.286-.062-.316q-.68.084-1.117-.1c-.292-.118-.572-.416-.851-.881l-.559-.944 4.992.528.242-.143zm-2.012-4.284-.249.137.069.124c.093.168.118.286.074.366-.037.075-.149.168-.329.261l-2.7 1.472q-.29.156-.41.118-.121-.039-.243-.255l-.068-.124-.248.136.838 1.54.248-.136-.062-.118q-.14-.252-.074-.373c.037-.08.142-.161.31-.254l2.639-1.44c.217-.119.379-.169.472-.15s.18.106.254.248l.063.118.248-.136zM32.077 70l-.267.08.05.162q.072.245.006.348c-.044.068-.162.13-.342.192l-2.186.67q-.82.25-1.061.901a2 2 0 0 0-.044 1.304c.155.503.435.876.838 1.105q.607.347 1.447.087l2.055-.633q.27-.084.392-.019c.08.044.148.143.198.31l.031.106.267-.08-.453-1.466-.267.08.037.125q.082.26-.012.379c-.056.08-.174.143-.348.198l-1.925.59q-.605.186-.912.112a1.24 1.24 0 0 1-.572-.335 1.33 1.33 0 0 1-.397-1.236 1.1 1.1 0 0 1 .28-.577c.142-.155.41-.292.794-.41l2.012-.615q.271-.085.385-.03c.08.036.149.142.205.328l.03.112.268-.08zm-.454-3.005-.31-.118q.389-.502.397-1.198c.006-.628-.23-1.162-.695-1.609q-.699-.669-1.714-.676c-.708-.007-1.291.21-1.738.645q-.682.65-.683 1.627c0 .51.161 1.006.484 1.478l-.41.174v.322l1.614.007q.288 0 .38.074c.061.05.092.156.092.336v.148h.28l.012-1.856h-.28c0 .304-.037.49-.099.571q-.1.12-.471.118h-.224c-.18 0-.31-.018-.41-.056a.76.76 0 0 1-.285-.23 1.45 1.45 0 0 1-.305-.9q0-.455.261-.863.253-.402.758-.645a2.46 2.46 0 0 1 1.086-.236c.56 0 1.03.167 1.422.49q.587.486.578 1.167c0 .348-.106.652-.317.9-.211.25-.528.466-.962.646l.099.299 1.44-.373zm18.67 26.736-.086.267.161.056c.162.055.261.117.292.198s.013.205-.043.391l-.727 2.167q-.272.812.118 1.391c.26.385.602.646 1.037.795.503.168.969.155 1.39-.037.423-.193.727-.572.914-1.124l.683-2.043c.062-.18.13-.286.21-.329q.122-.065.373.019l.106.037.087-.267-1.46-.49-.086.266.124.044c.167.056.273.13.298.23.03.093.012.23-.044.403L53 97.612c-.136.404-.285.67-.44.808q-.24.203-.602.266a1.4 1.4 0 0 1-.696-.043 1.4 1.4 0 0 1-.546-.348 1.13 1.13 0 0 1-.304-.565c-.044-.21 0-.503.124-.888l.67-1.993c.063-.18.125-.291.2-.335q.112-.066.384.025l.106.037.087-.267-1.69-.577Zm-7.078-1.366c-.353.596-.453 1.198-.31 1.819.15.62.51 1.105 1.093 1.447.584.347 1.186.44 1.794.267.609-.168 1.1-.56 1.46-1.174.347-.584.446-1.18.31-1.794q-.205-.921-1.043-1.422c-.596-.354-1.205-.447-1.838-.286q-.934.26-1.465 1.143Zm3.434 2.005q.485-.81.41-1.49-.074-.671-.714-1.055c-.453-.274-.907-.323-1.354-.168q-.67.243-1.173 1.093c-.323.54-.447 1.049-.373 1.515s.317.825.74 1.074q.621.371 1.31.1c.446-.168.831-.529 1.154-1.069m36.987-4.501.18.217a1.4 1.4 0 0 1 .33-.224c.074-.03.142-.03.192-.006.05.025.118.093.198.193l2.043 2.483q.168.197.168.33 0 .131-.224.31l-.1.08.18.218 2.994-2.459-.534-1.453-.305.106q.213.678.063 1.16c-.1.324-.336.634-.708.945l-.534.434c-.13.106-.218.156-.273.15s-.137-.075-.255-.218l-.969-1.173.429-.354q.327-.27.552-.243c.15.019.298.125.454.31l.111.138.243-.2-1.304-1.583-.242.2.05.055c.173.217.26.404.248.571q-.019.251-.317.49l-.428.355-1.087-1.323.857-.708q.58-.473.962-.509c.255-.025.546.062.863.255l.155-.267-1.111-.67zm12.691-24.93h.28c0-.148.012-.254.037-.328.025-.069.13-.162.335-.286l2.18-1.236 1.055-.012c.199 0 .323.025.385.074.062.05.093.174.099.36v.143h.28l-.019-1.794-.279.006q0 .345-.056.466c-.037.08-.18.124-.416.124l-1.18.012-2.117-1.223q-.252-.148-.298-.248a.9.9 0 0 1-.05-.335h-.28l.013 1.415h.28v-.167q-.001-.159.024-.224.02-.063.094-.062a.6.6 0 0 1 .23.087l1.756.975-1.676.906c-.124.068-.211.106-.273.106-.087 0-.13-.093-.137-.273v-.187h-.28l.013 1.702Zm-.844 5.781 1.328.584.137-.286c-.335-.167-.571-.335-.72-.497-.143-.167-.205-.428-.174-.788.006-.106.031-.174.062-.192.031-.025.106-.032.211-.02l3.297.28a1 1 0 0 1 .317.062c.062.025.099.081.124.162q.027.12.006.39l.28.026.149-1.764-.28-.024q-.026.326-.118.447-.092.12-.447.093l-3.222-.267q-.213-.021-.249-.069c-.025-.037-.037-.118-.025-.254.025-.31.125-.546.286-.695q.252-.226.801-.386l-.087-.304-1.403.36-.019.243.156.037-.218 2.626-.161.019zm-1 4.377.273.05.025-.136q.056-.282.168-.33c.08-.037.217-.037.422 0l3.024.566q.326.056.39.167.074.104.026.348l-.025.136.273.05.323-1.72-.273-.05-.025.131q-.054.288-.174.335c-.08.038-.217.038-.403 0l-2.956-.552c-.248-.044-.397-.106-.46-.18q-.081-.111-.043-.36l.025-.13-.273-.05zm-.615 2.105.193.292c-.398.118-.72.379-.975.776-.248.385-.348.77-.31 1.155q.065.579.484.85.38.243.807.15.428-.094.932-.534l.645-.559q.408-.354.696-.447a.64.64 0 0 1 .565.08c.198.125.304.33.329.615a1.32 1.32 0 0 1-.205.801q-.29.457-.87.652c-.384.13-.813.143-1.285.031l-.118.292 1.577.646.125-.193-.299-.366a2.7 2.7 0 0 0 .677-.317 1.9 1.9 0 0 0 .51-.546c.266-.41.372-.832.316-1.254q-.084-.635-.559-.944a1.07 1.07 0 0 0-.832-.155q-.435.093-.956.54l-.677.584q-.399.335-.676.428a.58.58 0 0 1-.51-.062q-.25-.166-.279-.51-.028-.346.205-.7.271-.421.776-.61.502-.186 1.155-.105l.087-.304-1.397-.484-.13.198Zm-5.557 8.401.224.168.112-.156c.093-.124.18-.192.267-.192s.198.043.329.143l2.47 1.813c.224.161.342.285.355.36.012.08-.031.193-.13.33l-.094.13.23.167 1.043-1.422-.223-.167-.075.099c-.118.161-.217.248-.298.248-.074 0-.205-.062-.379-.186l-1.16-.85.347-.472 2.794-.044.615-.844-.23-.168-.05.062a.7.7 0 0 1-.298.242 1.7 1.7 0 0 1-.478.081l-1.93.087c.303-.435.452-.826.434-1.174-.019-.347-.18-.64-.497-.869q-.948-.698-1.98.708zm1.006-.751 1.416 1.037.559-.764c.26-.354.39-.652.403-.9q.011-.363-.378-.652c-.236-.174-.46-.23-.671-.18-.211.056-.422.217-.627.496zm-11.437 8.55.124.254q.224-.11.354-.08.132.036.348.223l3.18 2.906.415-.205-.404-4.297c-.018-.186-.012-.329.025-.41q.056-.13.28-.242l-.124-.248-1.273.633.124.249.13-.069a.5.5 0 0 1 .255-.074.17.17 0 0 1 .136.1.8.8 0 0 1 .05.254l.385 3.508-2.57-2.415a.9.9 0 0 1-.174-.212.14.14 0 0 1 .006-.155c.031-.05.105-.1.23-.161l.118-.062-.125-.255zm-3.396 1.645.093.267.13-.05q.27-.093.373-.018c.103.075.137.174.205.366l1.012 2.906c.075.205.087.347.05.422q-.058.114-.292.199l-.137.043.093.267 1.652-.577-.093-.267-.13.043c-.18.062-.311.069-.38.019q-.103-.077-.198-.348l-.993-2.837q-.123-.353-.069-.49c.038-.088.13-.162.292-.212l.124-.044-.093-.266zm-6.433 1.105.02.28.117-.007q.225-.018.317.019a.2.2 0 0 1 .13.137q.03.103.05.366l.223 2.95c.019.235 0 .397-.05.477-.049.081-.186.131-.403.149l-.08.007.018.279 1.552-.118-.018-.279c-.267.018-.435-.007-.503-.087q-.095-.114-.125-.46l-.248-3.328 2.831 4.005.398-.031-.286-3.819c-.012-.21.006-.353.069-.44.061-.087.186-.137.366-.15l.087-.006-.019-.28-1.534.119.02.28.11-.007q.241-.016.361.087.114.112.143.428l.199 2.658-2.348-3.334zm-7.252.429v.279h.168c.168 0 .286.031.335.093.056.062.081.193.081.385v2.291q.001.858.553 1.279.548.421 1.235.422.792-.001 1.304-.478c.342-.316.51-.77.51-1.353v-2.155c0-.186.03-.316.092-.378q.092-.102.36-.1h.106v-.28h-1.534v.28h.13q.27-.002.36.118.087.12.088.391v2.018c0 .429-.056.727-.162.907a1.2 1.2 0 0 1-.484.447q-.325.178-.67.18c-.218 0-.423-.05-.628-.155a1.1 1.1 0 0 1-.465-.435q-.16-.278-.162-.882V97.35c0-.186.025-.316.087-.378q.084-.102.373-.1h.111v-.279H60.8zm3.204-58.34c-14.187 0-25.755 11.567-25.755 25.755s11.568 25.755 25.755 25.755c14.188 0 25.755-11.568 25.755-25.755 0-14.181-11.573-25.755-25.755-25.755" fill="#a4130e"/><path fill-rule="evenodd" clip-rule="evenodd" d="M59.024 82.984v4.42c-.025.25.068.367.279.342h.528v.28h-2.54v-.28h.497c.18 0 .28-.105.28-.31V83.97a2.9 2.9 0 0 1-.926.404l-.124-.211a4.7 4.7 0 0 0 1.583-1.18h.423Zm2.57 5.104-.18-.224c.907-.285 1.49-.95 1.732-2.005-.267.205-.54.298-.807.28-.863-.038-1.322-.541-1.36-1.491.062-1.03.603-1.583 1.608-1.67 1.068.087 1.64.782 1.702 2.105-.106 1.626-1 2.632-2.695 3.005m.404-3.59c-.038.889.142 1.305.552 1.268.18.024.404-.063.646-.249a7 7 0 0 0 .062-.838c-.025-.925-.242-1.403-.683-1.422-.397 0-.596.416-.577 1.242Zm3.222 1.05c.037-1.583.584-2.434 1.64-2.564q1.545.188 1.639 2.564-.056 2.41-1.64 2.54c-1.049-.062-1.595-.913-1.639-2.54m1.025-1.08v2.067c-.038.907.167 1.348.614 1.304q.653.082.615-1.428v-1.763q0-1.389-.615-1.39-.652-.02-.614 1.21m3.092 3.558v-.28a4 4 0 0 0 .341-.403c1.323-1.323 1.906-2.217 1.764-2.689-.038-.64-.311-.98-.808-1.018-.472.037-.776.341-.894.9h-.31c.167-.975.689-1.49 1.577-1.552.863.062 1.328.528 1.39 1.39 0 .516-.372 1.118-1.117 1.795q-.68.616-1.025 1.018h1.49c.348.038.547-.155.584-.596h.243l-.15 1.422h-3.085zM50.654 44.333c.453.093.987.484 1.44 1.59 0 0 .118.285 1.093.285l5.992-.167s2.88.341 1.21 2.359l-1.037.174-5.377.335c-1.9.118-2.266 1.453-1.136 1.453l6.973-.174c1.583-.037 1.64 2.595-.739 2.682l-4.098.143s.621.41 1.093.814c.664.57.615.788-.056 1.272-.41.299-1.118.572-2.185.28 0 0-3.918-.807-4.44-4.036 0 0-.273-1.372-.348-3.005-.068-1.528-.074-4.34 1.615-4.005m25.724-1.366c-.447.13-.938.565-1.298 1.708 0 0-.087.297-1.068.378l-5.986.348s-2.843.584-1.005 2.452l1.055.087 5.383-.13c1.9-.044 2.385 1.254 1.255 1.354l-6.96.422c-1.578.093-1.41 2.726.968 2.608l4.098-.212s-.466.367-.882.764c-.795.764-.708 1.161.36 1.559.441.161 1.062.223 1.87-.075 0 0 3.836-1.136 4.072-4.396 0 0 .156-1.39.087-3.024-.056-1.52-.292-4.321-1.95-3.843Z" fill="#a4130e"/><path fill-rule="evenodd" clip-rule="evenodd" d="M64.587 40.595c.54.584.782 1.509.62 2.95l.479 11.84 15.994-.348c2.689-.056 2.31 3.198.174 3.198h-3.72s1.038.69 1.038 1.298c0 0 .006 6.072-.193 10.195-.149 3.086-.143 4.96-3.793 6.023-1.503.434-2.54.875-3.012-.783-.149-.521-.186-1.037.26-1.037 0 0 3.931-.372 2.522-2.887l-5.29.304c-1.913.112-2.738-1.93-1.304-2.75l6.793-.354c.745-.037.763-1.18.024-1.347l-6.88.068c-1.763.018-1.986-2.087-.155-2.577.51-.137 1.323-.267 2.59-.31l4.849-.205c.534-.025.397-1.422-.106-1.422l-7.42.136c-.415.007-.732.007-.943-.149-.398-.291-.485-1.428-.205-1.782.136-.173.36-.341.714-.502 0 0 3.483-.597 6.892-.665 0 0 2.67-.298 1.26-1.41l-9.785.665v10.667s2.297 5.185 5.632 7.705c0 0 2.123 1.677 3.477 2.546.788.51 1.775 1.242.068 2.08-.528.26-1.39.26-2.807-.403 0 0-4.96-2.223-7.481-7.333 0 0-3.956 7.569-8.941 9.115-1.08.335-2.105.57-2.13-.97-.013-.862.981-1.303 1.763-1.874 2.23-1.633 6.271-5.359 6.83-11.232l-.13-9.208s0-.776-1.552-.776l-9.016.39s-.844.907 1.23.907l7.587-.192s3.048 1.167.062 3.049l-7.91.39v1.23l7.78.062s2.657.907.062 2.856l-7.52.391s-.583.975.324.975l7.587-.13s1.583 2.03-1.1 3.11l-5.382.454s-1.112 0-.696.764c.46.844 1.217.863 2.111.993.764.118.64 0 .963.826.31.807.521 1.95-.826 1.95 0 0-6.221.521-6.29-5.967l-.838-9.27s-.26-1.36.714-1.882c0 0 .062-.26-.646-.26-.379 0-1.838-.094-3.135-.137-3.03-.093-2.285-3.272-.236-3.272l16.15-.596.707-.236c-.174-3.95-.348-7.892-.515-11.84-.056-1.243-.031-1.795.217-2.466.559-1.496 1.05-2.117 2.484-.565" fill="#a4130e"/></svg>