<svg xmlns="http://www.w3.org/2000/svg" viewBox="0 0 128 36.9"><defs><style>.cls-1{fill:#a4130e;fill-rule:evenodd}</style></defs><g id="_图层_1" data-name="图层_1"><path class="cls-1" d="M26.8 5.5c7.1 0 12.8 5.8 12.8 12.8s-5.8 12.8-12.8 12.8S14 25.3 14 18.3 19.8 5.5 26.8 5.5m0 .3c-6.8 0-12.4 5.6-12.4 12.4S20 30.6 26.8 30.6 39.2 25 39.2 18.2 33.6 5.8 26.8 5.8"/><path class="cls-1" d="M26.8 6.3c6.6 0 12 5.4 12 12s-5.4 12-12 12-12-5.4-12-12 5.4-12 12-12m-6.3 3.6.1-.1v.2h-.2l.5.5v-.2h.1v.2c-.1.3-.3.5-.4.8 0 .1-.1.3-.2.4v-.3c0-.1 0-.2.1-.3 0-.1 0-.2.2-.4 0 0 0-.1.1-.2 0 .1 0 0 0 0v-.1.3c0 .1.1.2.2.3 0 0 .1.2.2.3h-.1v-.2h.1V11H21l-.2-.2-.1-.1c0 .2.1.4.2.5v.7-.6h.6v-.2h-.3s0-.2-.1-.2v-.1.5-.7s0 .2-.1.3c0 0 0 .1-.1.2 0 0 0 .1-.1.2v-.8h-.1s0 .1-.1.2-.2-.3-.2-.3c.1.2.3.5.4.7 0 0 0 .2.1.3v.1Zm.8 1h.1Zm6.6-2.1v.1h.4c0 .2 0 .3.2.5v.2h.5v-.1l-.2-.3v-.1h.2c.1 0 .2 0 .4-.1h.1l-.2.1v-.7.7h-.1c-.2 0-.4 0-.6.1h-.2l.7-.3Zm-3.7-.2v.3zv-.2H24v.8h-.3v.3-.7V10v-.9h.1v-.3Zm1.2 1.2L24.8 8v-.3.2s0 .1.1.2.1.4.1.4h-.1v.2h-.1v.9h.1v-.1c0-.1 0-.2-.1-.3s0 0 .1 0c.1.3.3.6.4.9 0 0 0 .1.1.2Zm6.1-.3v.1h-.7v.2s-.1.2 0 .3.1 0 .1 0h.2-.2.2-.4v.1c-.2 0-.4 0-.7-.1h-.6 1.1v.3s0 .1-.1.2c0 0-.1-.2-.2-.2 0 0 0 .1.1.2v.1s.1.2.2.3h.2s0-.1.1-.2v-.3h.2-.3v-.1h1.1-.2c.1 0 .3-.2.4-.3h-.2c0 .2-.2.2-.3.3v-.3l-.1.1v.1s0 .1-.1.2 0 0 .1 0h-.1Zm-1 .5v-.2Zm1.7-.1h.3Zm.1-.4h-.1v.1Zm-.1-.3H32v-.1ZM19.7 24.5l-.7.6.4.4v-.3l.3-.3.5.5-.3.3.4.4V26l.7-.6h.1l-.3-.4-.3.3-.5-.5.3-.3h.1c.1 0 0 0 0 0l-.4-.4Zm-.9-1.3h-.4v.1h.3l.2.2v.2c.1 0-1.3-.2-1.3-.2l.5.9h.4v-.2h-.3s-.2-.1-.2-.3l-.2-.3 1.5.2-.5-.8Zm-.6-1.2v.1l-.8.4h-.1l.2.4v-.1l.8-.4h.1zm-.7-2v.1h-.1l-.6.2q-.3 0-.3.3v.4c0 .1.1.2.2.3h.4l.6-.2h.1v-.4h-.2v.1h-.1l-.6.2h-.3q-.15 0-.3-.3v-.4s.1 0 .2-.1l.6-.2h.1v-.5h-.1Zm-.1-.9c0-.1.1-.3.1-.4 0-.2 0-.3-.2-.5-.1-.1-.3-.2-.5-.2s-.4 0-.5.2c-.1.1-.2.3-.2.5 0 .1 0 .3.1.4h-.1c0 .1.5.1.5.1h.1v-.5.2h-.2v-.6l.2-.2h.3c.2 0 .3 0 .4.1.1 0 .2.2.2.3v.3s-.2.1-.3.2h.4Zm5.4 7.8v.1l-.2.6v.4c0 .1.2.2.3.2h.4c.1 0 .2-.2.3-.3l.2-.6h.1-.4c0-.1 0 0 0 0v.1l-.2.6s0 .2-.1.2h-.4s-.1 0-.2-.1v-.5l.2-.6h.1l-.5-.2Zm-2-.4c0 .2-.1.3 0 .5 0 .2.1.3.3.4s.3.1.5 0c.2 0 .3-.2.4-.3 0-.2.1-.3 0-.5 0-.2-.1-.3-.3-.4-.3-.2-.7-.1-.9.2Zm1 .6c0-.2.1-.3.1-.4s0-.2-.2-.3h-.4c-.1 0-.2.2-.3.3 0 .2-.1.3-.1.4s0 .2.2.3h.4c.1 0 .2-.2.3-.3m10.7-1.3.6.7.9-.7-.2-.4v.4c0 .1-.1.2-.2.3h-.2v.2l-.3-.3h.1c0-.2.1-.2.2-.2h.1l-.4-.5v.3H33c0 .1-.3-.3-.3-.3l.2-.2c.1 0 .2-.1.3-.1h.2l-.3-.3-.8.7Zm3.7-7.2.6-.4h.4v.1-.5.1h-.4l-.6-.4v.4-.1l.5.3-.5.3v.5Zm-.2 1.6.4.2c0-.1-.1-.2-.2-.2V20h1v.1-.5.1h-1v-.2s.1 0 .2-.1H36zh-.1Zm-.3 1.3h.1l.9.2h.1v-.5.1h-.1l-.9-.2h-.1V21zm-.2.6-.3.3v.3c0 .1 0 .2.1.2h.2c.1 0 .2 0 .3-.2l.2-.2s.1 0 .2-.1h.2v.4s-.1.2-.3.2h-.4l.5.3v-.2h.2s.1 0 .1-.2c0-.1.1-.2 0-.4 0-.1 0-.2-.2-.3h-.2c-.1 0-.2 0-.3.2l-.2.2s-.1 0-.2.1h-.1v-.3l.2-.2h.3l-.4-.2Zm-1.6 2.5.7.5.1.1.3-.4h-.1l-.3-.2c0-.1.8-.2.8-.2l.2-.2h-.7c0-.1.1-.2.1-.3s0-.2-.1-.3c-.2-.1-.4 0-.6.2l-.4.6Zm.3-.3.4.3.2-.2s.1-.2.1-.3c0 0 0-.1-.1-.2h-.2s-.1 0-.2.1zm-3.4 2.5h.2l.9.8h.1l-.1-1.3v-.1l-.4.1v1c.1 0-.6-.7-.6-.7l-.4.2Zm-.9.5h.1v.1l.3.8v.1l.5-.2h-.1V28l-.3-.8v-.1zm-1.9.3v1.1h-.1.5v-.1h-.1v-1.1l.8 1.2h.1v-1.2h.1-.4v.1h.1v.9l-.6-1H28Zm-2.1.2v.8c0 .2 0 .3.2.4.1 0 .2.1.4.1s.3 0 .4-.1c0 0 .1-.2.1-.4v-.7h.1-.4.1v1s0 .1-.1.1h-.4s-.1 0-.1-.1v-1h.1-.5Zm.9-17c-4.1 0-7.5 3.4-7.5 7.5s3.4 7.5 7.5 7.5 7.5-3.4 7.5-7.5-3.4-7.5-7.5-7.5"/><path class="cls-1" d="M25.4 23.8v1.3s0 .1 0 0h.2-.7.1v-1s-.2 0-.3.1c.2-.1.3-.3.5-.4h.1Zm.7 1.5c.3-.1.4-.3.5-.6h-.2c-.3 0-.4-.2-.4-.4 0-.3.2-.5.5-.5s.5.2.5.6c0 .5-.3.8-.8.9Zm.1-1.1c0 .3 0 .4.2.4h.2v-.2c0-.3 0-.4-.2-.4-.1 0-.2.1-.2.4Zm1 .3c0-.5.2-.7.5-.7s.5.3.5.7c0 .5-.2.7-.5.7s-.5-.3-.5-.7m.3-.3v.6c0 .3 0 .4.2.4.1 0 .2-.1.2-.4v-.5c0-.3 0-.4-.2-.4-.1 0-.2.1-.2.4Zm.9 1.1v-.2c.4-.4.6-.6.5-.8 0-.2 0-.3-.2-.3-.1 0-.2 0-.3.3 0-.3.2-.4.5-.5.2 0 .4.2.4.4s-.1.3-.3.5l-.3.3h.4c.1 0 .2 0 .2-.2v.4h-.9Zm-5.5-12.7c.1 0 .3.1.4.5h2s.8 0 .4.6h-.3l-1.6.1c-.6 0-.7.4-.3.4h2c.5 0 .5.7-.2.7h-1.2l.3.3c.2.2.2.2 0 .4-.1 0-.3.2-.6 0 0 0-1.1-.2-1.3-1.2 0 0 0-.4-.1-.9 0-.4 0-1.3.5-1.2Zm7.5-.4c-.1 0-.3.2-.4.5l-.3.1H28c0 .1-.8.3-.3.8h1.9c.6 0 .7.4.4.4h-2c-.5.2-.4.9.3.9h1.2s-.1 0-.3.2-.2.3.1.5h.5s1.1-.3 1.2-1.3v-.9c0-.4 0-1.3-.6-1.1Z"/><path class="cls-1" d="M27 11.5c.2.2.2.4.2.9v3.4c.1 0 4.8-.1 4.8-.1.8 0 .7.9 0 .9h-1.1s.3.2.3.4v3c0 .9 0 1.4-1.1 1.8-.4.1-.7.3-.9-.2v-.3s1.1-.1.7-.8h-1.5c-.6.1-.8-.5-.4-.7h2c.2-.1.2-.4 0-.5h-2c-.5 0-.6-.6 0-.7h2.2c.2 0 .1-.5 0-.5h-2.5c-.1 0-.1-.4 0-.5 0 0 .1 0 .2-.1 0 0 1-.2 2-.2 0 0 .8 0 .4-.4l-2.8.2v3.1s.7 1.5 1.6 2.2c0 0 .6.5 1 .7.2.1.5.4 0 .6-.2 0-.4 0-.8-.1 0 0-1.4-.6-2.2-2.1 0 0-1.1 2.2-2.6 2.7-.3 0-.6.2-.6-.3 0-.2.3-.4.5-.5.6-.5 1.8-1.6 2-3.3v-2.7s0-.2-.5-.2h-2.6c0 .1-.2.4.4.4h2.2s.9.3 0 .8h-2.3v.5h2.3s.8.3 0 .8h-2.2c0 .1-.2.4 0 .4h2.2s.5.6-.3.9H24c0 .1-.3.1-.2.4.1.2.4.3.6.3s.2 0 .3.2c0 .2.2.6-.2.6 0 0-1.8.2-1.8-1.7l-.2-2.7s0-.4.2-.5h-1.1c-.9 0-.7-1 0-1l4.7-.2h.2c0-1.2-.1-2.4-.1-3.5v-.7c.2-.4.3-.6.7-.2Zm82.2-.2h-.6c0 .4 0 .7-.3 1.2-.4 0-.7-.1-.9-.2v-.4l.9-.9c.3 0 .6 0 .9.3m.3.7c-.5.3-.6.3-.9.8.6.3.8.6 1.1.7.5-.3.6-.4.6-.9-.3 0-.4 0-.5-.2-.1 0-.3 0-.4.2 0-.3.1-.4.1-.5Zm.7 2.7c.4-.9 1-1.6 2.1-1.7-.4.3-1.6 1.5-2.1 1.7m-5 1c-.8-.7 0-2.2-.6-3 .7-.1 1.5 2.2 1.1 2.9h-.4Zm3.3 2.2c.7-.4 1.9-.9 2.4-1.6 0-1.4-1.6-.3-2.4-.2.7-.4 1.3-.8 2-1.3 1.3-.6 2.3-1.7 3.4-2.6-.3-1.2-2.3.3-3 .6 0-.2 1.3-2.9 1.5-3.5.4-.6.4-1.1 0-1.6-.7 0-1.7.4-2.1.8v.1c.5 0 .6-.1.9-.2 0 1-.4 2.1-.9 3.1-.3.1-.5-.2-.7-.3V11h.3c.2-.3.3-.4.3-.7-.7-.4-.7-.4-1.4-.3v-.2c.5-.4 1-.6.9-1.3-.6-.3-1.1-.7-1.8-.6 0 .1.3.3.5.5 0 .6-.2.9-.4 1.5-.2 0-.4.1-.5.2v.2h.2c0 .3-.3.7-.6 1 0-.6-1.1-1.6-1.7-1.7 0 .4.6.8.7 1.4.3.2.1 1.2.1 1.6.6 0 .9-.2 1.5 0 0 .6-.7 1.1-1.3 1.4v.4c.8.2 1.2-.7 1.7-1.3.2 0 .6.3.8.6-.9.5-2.2 1.4-3.2 1.6h-.6v.2c1.3.4 2.9-.6 4.1-1.4h.3v.5c-.5.3-1.8 1-1.7 1.6.9.4 1.6-.6 2.5-.7-.4.7-1.7 1.4-1.8 1.9Zm-5 1.6c-.6-.7-.9-1.9-.4-2.8.4.2 1.8 2 .9 2.6-.2 0-.3 0-.5.1Zm5-1.6c.1.2.3.5.5.8.8 0 1.1-.4 1.8-.8.5 0 1.7 0 1.1 1-.7.5-1.6.5-2.4.8 0 0 .3 1.2.4 1.2 0 1.4.4 2.1-.4 3.4-.3 0-.5 0-.8.2-.8-.5-3.6-1.4-3.7-1.8 1.1-.3 2.6.8 4 .4.1-1.3-.3-2.3-.3-3.4-2.3.5-3.7 1.6-5.7 2.8-.7 0-1.7-.4-1.4-1.1h.5c2.3-1.1 4.2-1.8 6.5-2.5 0-.4-.4-.7-.1-1.1Zm-54.6-4.7c-.4.7-.6.9-1.4.6l-.7-3c.9.5 1.8 1.3 2.1 2.4m1.7 4.5c0-.1 0-.2-.1-.3-.2 0-.4-.1-.5-.2V17c.4 0 1.1-.3 1.4.3-.2.3-.4.3-.7.5Zm-.2 1.6V19c.4-.6-.1-.6-.2-1.1.4 0 .8.1 1.3.3v.6h-.6c-.1.2-.2.4-.5.4Zm-1.5-6s.2 0 .3.2c.3-.2.6-.3.9-.4.2.3 0 1.3-.1 1.7-2 1.2-4.1 2.5-6 3.8-.5.2-.9.2-1.3.3 0 1.9 2.7-.5 2.9-.7 1.3-.9 3-2.5 4.5-2.9 0 .1 0 .3-.1.4h-.2v.4c.6.2 1-1.3 1.1-1.6.5-.3 1.4-.9 1.9-.9-.3.2-.8.4-1 .8.5.1.9-.2 1.2-.5.5-.1.9-.2 1.2-.6.7-.2 1-.2 1-.9-.6-.2-.7-.3-1-.4-.8.5-2.4 1.8-3.3 2 0-.4.2-.7.2-1.1.9-.4 1.5-.2 1.6-1.5.7-.4 1.3-.9 2-1.3 0-.6-.7-.7-1.1-.7-.3.6-1.3.8-2 .9 0-.7.1-1.5.2-2.2.4-1 0-2.4-1.4-2.6 0 1.8 0 3.6-.2 5.4l-1.2.6v.2c.6 0 1-.2 1.2-.2.4.6-1.1 1.5-1.5 1.8Zm.4 8c1.3-.3.2-3 0-3.9h-.1c0 .9-.1 1.7-.1 2.7-.3.3-.1 1 .2 1.3Zm2.8.6c.9 0 1.2-.2 1.2-1-.4-.4 0-2.1 0-2.1 0-1.3-.1-1.7.5-2.6 0-1-.4-1.5-1.4-1.6-.8.8-1.6 1.3-2.7 1.8.9.3 1.8-.3 2.5-.7 0 .3 0 2-.2 2.1v4Zm-.9-.2c.8.2 2.7 1 3.3 1.6v.5c-.3.2-.4.3-.8.2-.7-.5-2.5-1.6-2.5-2.3m-.1-.1c-.8.8-2.4 2.8-3.8 2.9.1-.5.4-.5.7-.8q.9-1 1.4-1.7c.7-1.1.7-1.4.8-1.5-.1-.7-.3-.6.1-1 .7 0 1 .4 1.3 1.1-.2.3-.4.6-.6 1Zm15.9-6v-.2c.7-.3.9-1.1.9-1.8.7.4.2 1.7.2 2.5-.6 0-.7-.2-1.1-.5m-.7-2.8c0 .8-.6 1.7-.8 2.6-.4.3 0 1.4-.4 2-1.3 0-1.7-1.6-1.8-2.6.5.1.7.4 1 .9h.3q.9-1.5 1.5-3h.1Zm2.7 5.6c.9-.3.7-.7.6-1.6-.4-.3-.2-2.1-.2-2.5.2.1 1 .6 1.3.2-.4-.5-.5-.9-.3-1.4h-.2c0 .2-.1.6-.2.9h-.4c0-.7-.3-.9-.9-1.1.2.4.3 1.5 0 1.8 0 1 .2 2-.3 3q.2.3.7.7Zm-2.6-5.7c.2.2.2.9.2 1.3-.5.4 0 2.2-.5 2.6 0 1-1.2 3-1.9 3.5h-.8v.2c1.2 1 2.1-.8 2.8-1.7.5-1 .4-2.1.9-3v-.2c0-.9.5-1.9.3-2.6l-.6-.3h-.3v.2Zm5.2 8.2c-.2-.5-.4-1.8-.5-1.9 0-2-.1-4-.2-6 .4-.4-.1-1.8-.1-2.3 1.2-.8 1.2 1.4 1.2 2 0 2.7-.1 5.4-.2 8.1h-.2Zm7.5.9v-.4c2.7-.5 5.5-2.8 5.8-5.4-1.2.7-2.5 1.5-3.7 2.2-.7 0-1.2-.3-1.1-.9h.9q4.1-1.7 4.2-1.8c0-.2.3-1.2.4-1.3 0-1.2.4-3-.2-4V10c1 0 1.2.2 1.9.9-.2 1.4-.8 2.7-.9 4.1 1.5-.2 2.3-2 4-2v.2c-.3.2-2 1-4.1 2.2 0 .3-.3.6-.2.9 1.6 1.5 2.6 2.9 5 3.5v.4c-.7 0-2.4.4-2.9.2q-1-1.3-2.3-3.6h-.2c0 1.6-3 3.9-4.5 4.5q-.9.2-2.4.4Zm-29.7 8q-.3 0-.3.3v.7q-.6.3-1.2.3c-1.1 0-1.7-.6-1.7-1.6 0-.9.6-1.5 1.7-1.5.3 0 .5 0 .7.1h.5v.9h-.2c-.1-.5-.5-.8-1-.8-.7 0-1.1.5-1.1 1.3 0 .9.4 1.3 1.1 1.4.2 0 .4 0 .5-.1v-.7q0-.3-.6-.3v-.2h1.5v.2Zm2.8-1.6c.3 0 .4.2.4.5v1.2q0 .9-.9.9c-.6 0-.8-.3-.8-.8v-1.4q0-.3.3-.3v-.2h-1.4v.2c.2 0 .3 0 .3.3V30c0 .7.5 1.1 1.3 1.1.9 0 1.3-.4 1.3-1.3v-1.2c0-.3.1-.4.4-.4V28h-1.2v.2Zm1.6 0c.2 0 .4.1.3.4v1.9c0 .2-.1.4-.3.3v.2h1.5v-.2c-.3 0-.4-.1-.4-.4v-1.9c0-.2.1-.4.4-.4v-.2h-1.5v.2Zm4.9 1.9c0 .5-.3.8-.5.7h-1.4l2.1-2.5V28h-2.7v.8h.1c0-.4.2-.6.4-.5h1.2l-2.1 2.5v.3h2.9zh-.1Zm4.5.9v-.2c-.3 0-.4-.1-.4-.4v-1.9q0-.3.3-.3V28h-1.5v.2c.3 0 .4.1.4.4v.8h-1.5v-.8c0-.2.1-.3.4-.3v-.2h-1.5v.2q.3 0 .3.3v1.9c0 .3-.1.4-.3.4v.2h1.5v-.2c-.3 0-.4-.1-.4-.4v-.9H67v.9c0 .3-.1.4-.3.4v.2h1.5Zm.6-1.4c0 1 .6 1.5 1.7 1.5s1.7-.6 1.7-1.6-.6-1.5-1.7-1.5-1.7.6-1.8 1.7Zm1.7-1.5c.7 0 1 .6 1.1 1.5 0 .8-.4 1.2-1 1.3-.7 0-1.1-.6-1.1-1.6 0-.8.3-1.2 1-1.2m4.7.1c.3 0 .4.2.4.5v1.2q0 .9-.9.9c-.6 0-.8-.3-.8-.8v-1.4q0-.3.3-.3v-.2h-1.4v.2c.2 0 .3 0 .3.3V30c0 .7.5 1.1 1.4 1.1s1.3-.4 1.3-1.3v-1.2c0-.3.1-.4.4-.4V28H75v.2Zm5.1 0c.3 0 .4.2.4.5v1.2q0 .9-.9.9c-.6 0-.8-.3-.8-.8v-1.4q0-.3.3-.3v-.2h-1.4v.2c.2 0 .3 0 .3.3V30c0 .7.5 1.1 1.4 1.1s1.3-.4 1.3-1.3v-1.2c0-.3.1-.4.4-.4V28h-1.2v.2Zm4.4 2.8h.2v-2.6c0-.2.1-.2.4-.2V28h-1.2v.2c.3 0 .5.1.4.4v1.5L82.6 28h-.9v.2h.4v2.2q0 .3-.3.3v.2h1.1v-.2c-.3 0-.5-.1-.5-.4v-1.8l2.2 2.4Zm1.2-2.8c.2 0 .4.1.3.4v1.9c0 .2-.1.4-.3.3v.2h1.5v-.2c-.3 0-.4-.1-.4-.4v-1.9c0-.2.1-.4.4-.4v-.2h-1.5v.2Zm3.8 2.9 1-2.4c.1-.4.3-.5.5-.5V28H90v.2h.1c.3 0 .3 0 .3.3l-.7 1.8-.7-1.6v-.3s.2-.1.4-.1v-.2h-1.6v.2c.2 0 .4 0 .5.4l1.1 2.5h.3Zm4.3-2.4h.2V28h-2.6v.2c.3 0 .4 0 .4.3v2c0 .2-.1.4-.4.3h-.2v.2h2.8v-.8h-.1c0 .4-.2.5-.5.5h-.8c-.1 0-.2 0-.2-.2v-.9h.7c.3 0 .4.1.4.3h.2v-1h-.2q0 .45-.3.3h-.8v-1.1h1c.2 0 .3.1.3.4Zm2.3 1c.2.2.3.4.5.6.1.2.2.3.3.4.2.2.5.3 1 .3h.3v-.2c-.2 0-.5-.1-.6-.3-.1-.1-.3-.3-.4-.5s-.3-.4-.4-.5c.4-.1.7-.4.7-.8 0-.2 0-.4-.2-.5-.2-.2-.6-.3-1.3-.3h-1.4v.2c.3 0 .4.1.4.4v1.9c0 .3-.1.4-.4.4v.2h1.6v-.2h-.1c-.3 0-.4-.1-.4-.4v-.7zm-.1-1.5c.5 0 .8.3.8.7 0 .5-.3.7-.9.7h-.2v-1.4zm3 2.8h.8c.6 0 .9-.3 1-.9 0-.2 0-.4-.3-.6-.2-.1-.4-.3-.7-.5q-.6-.3-.6-.6c0-.2.2-.3.4-.3.4 0 .6.2.8.6h.2v-.8h-.3c-.2 0-.4-.1-.6-.1-.6 0-.9.3-.9.8 0 .3.3.7.8 1 .4.2.7.5.7.7 0 .3-.2.5-.5.5-.4 0-.7-.2-.8-.7H99v.9zm2.5-2.8c.2 0 .4.1.3.4v1.9c0 .2-.1.4-.3.3v.2h1.5v-.2c-.3 0-.4-.1-.4-.4v-1.9c0-.2.1-.4.4-.4v-.2h-1.5v.2Zm4.4.1c.3 0 .5.1.5.6h.2V28h-.2s-.1.1-.2 0H104v.9h.1c0-.4.2-.6.5-.6h.6v2.2c0 .3-.1.4-.4.4h-.2v.2h1.7v-.2h-.1c-.3 0-.4 0-.4-.4v-2.2h.5Zm4 .3c0-.2.3-.3.5-.3v-.2h-1.1v.2h.2v.3l-.5.9-.7-1v-.2h.2v-.2h-1.5v.2c.2 0 .3 0 .4.2l1 1.4v.7c0 .2-.1.4-.3.3h-.1v.2h1.6v-.2c-.3 0-.4-.1-.4-.4v-.7l.8-1.3Z"/></g></svg>