<svg width="128" height="128" fill="none" xmlns="http://www.w3.org/2000/svg"><path fill-rule="evenodd" clip-rule="evenodd" d="M69.92 52.328c-.872 1.716-1.685 3.974-2.577 6.005-.54 1.232-.8 2.464-1.345 3.57.75-.8 1.755-1.617 2.503-2.208.564-.65 1.126-1.264 1.69-1.913.577-1.534 1.605-3.273 1.075-4.383-.24-.502-.676-.757-1.347-1.072ZM56.523 65.4c-.68.082-1.813.916-2.4.075-.355-2.816 2.07-6.044 3.321-7.758.045-.14.042-.264.087-.404.752-.878 1.765-1.7 2.739-2.503l3.087-2.179c.783-.45 1.385-.865 2.482-1.242.237-.374.358-.724.588-1.098.18-.292.466-.611.651-.903l2.91-3.937c.127-.376.344-.706.759-.937.314-.023.559-.502.874-.679.23-.25.53.105.76-.002q.58.092.94.507c-.003.476-.036.953-.008 1.428.01.18.006.163-.113.318-.183.238-.26.644-.425.894-.201.302-.224-.03-.33.143-.402.603-.94 1.64-1.341 2.244-.368 1.896 2.095 1.57 1.918 3.319.772 3.77-3.614 8.699-7.042 10.436-.506.256-.475.349-.659.901-.11.334-.192.68-.327.99-.058.13-.18.247-.226.387-.23.566-.375 1.176-.605 1.743l-.269 1.433c-.044.48-.21.916-.254 1.397-.046.035-.005.04-.052.076-.178.14-.207.261-.183-.003.01-.107.045-.212.057-.27-.033.029-.09.016-.123.044-.198.173-.45.538-.648.695-.002.355-.046.719-.049 1.075-.068.08-.095.151-.164.23-.1.116-.148.103-.21.107-.19.012-.272-.027-.463-.1l-.066.503c-.06.026-.26.021-.447.1-.24.101-.477.291-.469.335a1 1 0 0 1-.068.446c-.056.127-.133.193-.464.052-.033-.303.285-1.953.759-1.188.07-.157.199-.237.268-.392.079-.178.099-.433.177-.61l-.505.436c-.59-.009-.389-.208-.328-.675.026-.194.041-.425.085-.643.238-.823.52-1.578.755-2.396.05-.17.047-.352.097-.526.062-.221.198-.442.265-.665.082-.269.088-.597.164-.863-1.126.455-1.874 1.152-3.079.485-.979-1.117-1.68-1.515-1.053-2.266l1.265-1.938c.276-.48.472-.94.748-1.42.299-.64.706-1.321 1.23-1.826.036-.034.014-.164.05-.195.382-.342.735-.809 1.015-1.626l.63-.687c.098-.14 1.754-2.492 1.263-1.248l-.506.625-.95 1.5q-.442.626-.886 1.251l-.886 1.438-.826 1.565c-.338.646-.595 1.32-.933 1.968-.512 2.355 1.084 1.761 3.146 1.308.246-.192.151-.501.246-.751q.047-.127.102-.25l1.343-4.387 1.15-3.445.638-2.131.318-.5q-.003-.279-.565-.003c-4.466 2.48-8.708 5.825-10.48 10.673.015.393-.127.918.246 1.005.377.003.834.103 1.211.104.233.09.142.408.058.41" fill="#e8380e"/><path fill-rule="evenodd" clip-rule="evenodd" d="M61.614 72.583c.066-.119.198.053.404.091.023.112.044.225-.06.36-.038.094-.15.13-.188.224-.033.084.01.223-.023.306-.563.308.308.376-.544.593-.121-.312-.111-.285.108-.54l.058-.188c-.286-.018-.073-.093-.121-.351l-.094-.02c.04-.766.217-.03.46-.475m-1.283 1.081c-.294.262-.19.465-.157.839l.217.001c.062-.142-.006-.334.12-.426.168-.125.177-.733-.18-.414m2.204-1.094a.2.2 0 0 1-.23.007c-.185-.349.334-.31.23-.007m.935-1.727c.065-.185.086-.348-.119-.465-.454.603-.015.848.118.465Z" fill="#e8380e"/><path fill-rule="evenodd" clip-rule="evenodd" d="M64 105.989c-23.186 0-41.989-18.804-41.989-41.99C22.011 40.814 40.814 22.01 64 22.01s41.99 18.804 41.99 41.989c0 23.186-18.804 41.99-41.99 41.99M64 108c24.297 0 44-19.704 44-44.001S88.297 20 64 20c-24.296 0-44 19.703-44 43.999S39.704 108 64 108" fill="#365f8f"/><path fill-rule="evenodd" clip-rule="evenodd" d="M64.001 94.25c-16.704 0-30.25-13.546-30.25-30.252 0-16.703 13.546-30.25 30.25-30.25 16.706 0 30.251 13.547 30.251 30.25 0 16.706-13.545 30.253-30.25 30.253Zm0 .682c17.082 0 30.934-13.852 30.934-30.934 0-17.08-13.852-30.932-30.934-30.932-17.08 0-30.933 13.852-30.933 30.932C33.068 81.08 46.92 94.933 64 94.933ZM33.193 54.254c-.139.294-.724.167-.959.075a3 3 0 0 1-.07-.248c.04-.18.136-.85.36-.883.152.072.152.072.238.148.001.146.181.231.273.333.297.193.283.273.158.575M26.13 49.9c-.044.35.174.518.49.574l.013-.028a.1.1 0 0 0 .03.008c.124-.087.194-.112.336-.068.015.24-.088.406-.018.648-.025.07-.128.346-.047.385-.165.324-.195.338-.313.561l-.037-.005c-.067.078-.1.114-.127.206.026.03.053.06.033.103.263.415.742.409 1.137.224.135.059.19.177.263.293.226.137.481.298.651.488.244.175.404.476.644.63.193.243.384.467.639.64.07.196.632.555.798.669.01.027.277.276.358.326.09.141.206.254.342.359.143.225.4.416.643.531.382-.267-.017-.566-.26-.803-.067-.189-.433-.397-.393-.581a8 8 0 0 1-.245-.303c.014-.067-.295-.348-.367-.44-.09-.328-.534-.666-.756-.91-.066-.043-.237-.112-.183-.226-.093-.085.05-.302.148-.336l.182-.35c-.034-.185.07-.577-.024-.697.019-.125.019-.125.067-.253l-.037-.018c.038-.145.034-.245.104-.392.467.08.032.52.12.766a.4.4 0 0 0-.029.084c.054.107.21.17.315.231.063-.01.128-.026.199-.04.088-.126.252-.276.385-.323.037.058-.002.127.005.2.256.145.345.094.504-.145.122 0 .213.09.319.15a5 5 0 0 0-.012.332q.015.006.037.019c-.01.034.01.055.015.105-.039.068-.072.14-.104.206-.123-.035-.541-.39-.653-.304l-.125-.04c-.065.014-.336.143-.34.14-.244.147-.797.199-.42.592.204.108.367.244.563.371.028-.01.18.027.278.027l.013-.03c.118.022.118.022.406.014.07-.049.147-.053.24-.05l.017-.038c.13-.002.219-.13.318-.205a.04.04 0 0 1-.01-.027l.177-.376.038.019.129-.27c.027-.22.053-.505.139-.713q.178-.125.367-.247.118-.239.247-.475c.29-.228.493.066.798.059a.44.44 0 0 1 .322-.069c.26-.091.368-.505.133-.658-.087-.127-.47-.43-.601-.266a1 1 0 0 0-.03.148c-.05-.087-.05-.087-.106-.132-.011.013-.02.02-.025.03-.192-.038-.344.186-.424.328-.066.044-.15.085-.195.157a.45.45 0 0 1-.192-.073l.015-.034c-.062-.064-.056-.125-.126-.188-.314-.49-.974-.85-1.487-1.092a.67.67 0 0 1-.349.149c-.39.419-.39.419-.418.428-.111.233-.153.37-.148.629-.043.067-.08.136-.12.204-.042-.007-.084.007-.15-.013.002-.04.002-.04-.05-.116l.084-.692a.1.1 0 0 1-.023-.024c.013-.237.125-1.027.455-.987.183-.227.399-.67.105-.91-.147-.045-.182-.033-.222-.046l-.045.095q-.024-.002-.038-.006c-.073.07-.165.177-.266.194-.124.15-.288.24-.376.426-.1.47-.032.99-.2 1.444-.2-.146-.3-.373-.327-.613-.04-.036-.057-.062-.043-.118-.013-.008-.028-.013-.037-.019-.001-.169.118-.397.177-.56-.026-.019-.024-.047-.109-.162a2 2 0 0 1-.147-.047c-.357-.042-.303.065-.42.313l-.033-.017q-.02.02-.027.035c-.33-.017-.584.236-.696.536-.029-.002-.029-.002-.06-.034.06-.314.15-.55.287-.84-.057-.16-.017-.293-.026-.46.083-.397-.204-.492-.548-.486-.04.022-.126.167-.197.244l-.038-.019c-.278.218-.327.608-.32.936q-.1.188-.192.38c-.076.063-.176.062-.26.133l-.038-.018-.017.032-.032-.016c-.126.069-.169.148-.244.269-.03.066-.12.316-.183.338m6.122 3.297a.04.04 0 0 1-.01-.027l.177-.376.038.019q-.107.194-.205.384m.105-1.78c-.028.01-.096.129-.168.193-.087-.048-.219-.126-.202-.234q-.027-.015-.043-.032c.033-.206-.252-.353-.434-.31-.073.115-.126.143-.246.063 0-.122.017-.23.051-.342q.014.005.038.006c.034-.07.052-.109.121-.145.249.088.803.206.833.574q.04.046.092.09a1 1 0 0 0-.042.137m-3.002 1.293c-.156-.022-.327-.142-.33-.32l-.098-.063c.066-.09.205-.164.288-.253.001-.161.012-.232.12-.35.105.01.14.009.213.078-.063.33-.079.584-.193.908m.162-1.567c-.135.04-.269-.059-.388-.114-.08-.185-.097-.47.012-.652q.145.14.297.28c.094.172.094.172.13.195-.028.168-.018.196-.051.29Zm-.85 1.097c-.093.071-.36-.014-.468-.042l-.138.045q-.039-.026-.07-.05c0-.024.003-.045.011-.072-.074-.15.006-.292-.066-.425-.014-.252-.014-.252 0-.32-.095-.046-.078-.374-.069-.444a.1.1 0 0 1-.023-.024c.029-.061.033-.205-.015-.25.16-.46.149-.488.195-.623 0-.146.01-.286.037-.43l-.037-.035a.3.3 0 0 1 .027-.069c.275.13.666.361.593.71.06.168-.102.388-.036.57l-.073.153-.254.047c-.338.247-.235.517.102.676.058.103.027.24.07.36.148.127.148.127.214.223M26.13 49.9c.022-.083.022-.083.169-.345l.014.007c-.03.066-.12.316-.183.338" fill="#365f8f"/><path fill-rule="evenodd" clip-rule="evenodd" d="m98.505 52.562-.033.016.216.48.033-.016q.029.031.056.073c.249.054.358.322.46.523-.025.023-.025.023-.034.103-.193.11-.364.278-.6.27l-.016-.04a1 1 0 0 0-.11-.001c-.153-.094-.383-.105-.555-.13-.043-.097-.139-.055-.198-.12l-.037.017c-.062-.059-.062-.059-.136-.083-.11.113.222.418.305.486.126.242.366.427.341.721-.055.094-.22.254-.21.354-.075.063-.15.124-.223.192-.287-.009-.341-.555-.436-.777a2 2 0 0 1-.238-.337c-.052-.01-.667.427-.691.45a3 3 0 0 0-.234.042l-.01.028c-.258.028-.55-.007-.809-.005-.133-.05-.182-.097-.34-.066a.1.1 0 0 0-.026-.029c-.134.02-.397-.116-.458-.226q-.017-.002-.038.005c-.045-.1-.057-.268.01-.349a.1.1 0 0 0-.01-.047c.013-.012.02-.021.029-.026q-.007-.029-.017-.05c.23-.235-.467-.602.014-.84.235-.054.455.307.56.466a1 1 0 0 1 .217.175l.04-.018c.053.045.137.18.165.19.08.178.943.088.99-.037.425-.017-.025-.559-.2-.624-.082-.136-.196-.234-.307-.351l-.038.018c-.076-.168-.191-.208-.276-.32-.155.04-.407-.342-.468-.476.016-.093-.013-.195.05-.263-.033-.072.133-.268.17-.324q.165-.073.335-.14c.09.212.256.852.548.964.094.118.23.23.334.344.097.164.097.164.154.23l.04-.018.351.36c.113-.004.078-.16.073-.221q.068-.024.137-.04a.3.3 0 0 1 .05.058c.053-.023.092.063.116.092.077-.034.388.194.45.029-.091-.18-.091-.18-.14-.237-.066.007-.253-.1-.302-.147l-.029.014c-.054-.109-.356-.383-.177-.498q-.001-.024-.01-.047c.25-.123.546-.003.818-.026l.014.033c.233-.007.253-.028.33.196m-2.375-1.477c.129.208.218.265.461.18.064 0 .32-.035.362.061a1 1 0 0 1 .13-.019c.088.082.158.096.271.132.017.02.344.29.387.27l.04.05a.63.63 0 0 1 .326.263c.076-.011.11.054.143.114a.4.4 0 0 1 .08-.013l.024.053a.1.1 0 0 1 .032-.008c.02.019.042.043.07.03.027.034.107.172.154.15q.098.12.197.245a.1.1 0 0 1 .037-.01c.044.061.044.061.42.358.109.142.22.27.302.429a.04.04 0 0 1 .028-.001c.07.118.098.129.183.292.014-.007.026-.006.039-.006.03.084.02.111.05.23-.09.042-.19.023-.289.022l-.018-.039c-.035.01-.035.01-.094-.003q-.07.032-.139.074l.014.029-.04.017c.034.238.327.429.11.636a.3.3 0 0 1-.05.252c.028.126.164.48.33.463l.017.038c.355.008.795.012 1.064-.26-.005-.037.041-.139.07-.163l-.015-.035c.084-.118.095-.25.087-.395l.038-.018-.017-.037c.071-.085.06-.212.019-.303-.206-.138-.355-.215-.455-.435.407-.211.841-.258 1.296-.335.032.009.197-.036.241-.028.317-.063.669-.047.967-.182-.003-.015-.004-.032-.008-.042.122-.124.082-.29.092-.462-.143-.316-.529-.482-.778-.18l.016.039c-.04.035-.04.035-.095.147-.108.054-.206.104-.317.101-.015-.033-.027-.061-.045-.088q.017-.018.029-.024c-.023-.296-.25-.799-.566-.414l.036.157c-.042.058-.044.094-.08.117-.246-.035-.504.006-.748-.01l-.03-.068.03-.047a.78.78 0 0 0 .545-.044c.035-.05.035-.05.155-.156-.005-.102.027-.133.053-.226q.135-.068.272-.128c.112.083.255.237.398.27a.2.2 0 0 1 .033.048c.115 0 .284-.034.362-.128.019-.1-.025-.12-.109-.128a1 1 0 0 0-.032-.084c.105-.048.218.074.337.044.081-.152.134-.175.292-.246q-.001-.025-.006-.039c.08-.105.143-.247.08-.386l-.034.015c-.117-.131-.456-.17-.636-.21-.039-.086.002-.214.059-.28-.012-.04-.051-.178.001-.201-.065-.132-.134-.401-.287-.424-.388.226-.787.48-1.191.697a.4.4 0 0 1-.249-.004c-.097-.215-.025-.362.072-.557q.002-.076-.001-.142.017-.018.029-.024c-.207-.345-.523-.037-.812.088-.464.07-.902.429-1.102.84.084.112.207.178.268.313-.14.126-.207.27-.43.302-.28-.161-.435-.328-.545-.624q.147-.075.287-.14c.02-.05 0-.144.042-.164a2 2 0 0 0-.08-.166c-.151-.132-.295-.183-.468-.285l-.038.018c-.067-.085-.29-.146-.4-.096-.123-.158-.514-.092-.682-.08-.088.045-.482.245-.41.404l-.035.015.016.034c-.078.058-.104.075-.139.166.002.04.02.21-.028.23q.006.075.005.154m2.375 1.477.216.48-.033.015-.216-.48q.022-.008.033-.015m1.712-1.127-.093.025c-.16.25-.622.32-.897.3l-.276.09-.03.076c.06.117.234.327.359.386.082-.215-.237-.256.084-.39.226.032.395.111.6.018a.7.7 0 0 1 .264-.428c-.018-.039-.018-.039-.011-.077m-.888.936a.3.3 0 0 1 .07-.026l.029.027c.121-.037.227-.085.31.022-.063.028.038.328.049.353-.15-.025-.38-.255-.458-.376m.466.395c.054.004.054.004.232.068q.138-.037.271-.064c.049.11.049.26.092.384a2 2 0 0 0-.209.049c-.13-.097-.31-.27-.396-.41zm1.041.228c.057-.146.29-.112.37-.01-.09.069-.28.068-.37.01m-.48-1.633c.047-.01.097-.014.141-.017.053.052.104.102.158.159.177.1.273-.059.403.164-.129.11-.263.096-.409.052a1.2 1.2 0 0 0-.293-.358m.963-.174c.167-.104.419-.16.611-.193.048.03.048.03.129.033.014.017.022.036.032.056-.137.106-.499.223-.675.205-.058-.042-.058-.042-.097-.101M49.712 32.763c.376.692.845 1.326 1.26 1.99.165.1.26.004.393-.084-.006-.136-.007-.202-.074-.32a.1.1 0 0 1 .022-.025.5.5 0 0 1-.04-.081c-.02-.375-.245-.718-.379-1.06-.355-.655-.722-1.322-1.05-1.994.098-.232.444-.355.57-.602.159-.114.159-.114.205-.17-.021-.037-.021-.037-.004-.072-.028-.092-.245-.163-.32-.296.016-.111.016-.111.004-.152l.036-.021-.018-.032.05-.029-.01-.084.069-.057c-.02-.213.02-.423.118-.612-.027-.056.01-.332.07-.366l-.02-.03.038-.023q-.009-.013-.01-.029c.016-.022.016-.065.08-.162a5 5 0 0 0-.368-.83c-.048-.063-.391-.357-.445-.327-.15-.102-.429.045-.574.098q-.019-.015-.027-.027c-.164.062-.164.062-.273.082l-.424.242c-.128.242-.095.428-.342.569l-.179-.315a.1.1 0 0 1 .021-.037c-.103-.183.03-.385.048-.564-.092-.13-.188-.13-.302-.222l-.032.019c-.274-.249-.807.036-1.04.23-.026.05-.19.348-.158.403l-.037.02c.026.119.102.21.16.314.122.01.208.13.262.227.012-.001.028-.005.048-.003.04.037.081.08.128.12.017-.003.017-.003.127.116l.022-.013.27.475-.033.017q-.009.014-.016.035c-.012.03-.012.03-.308.254-.073.137-.123.166-.133.341.115.17.198.262.412.237l.028.026c.063-.018.28-.08.327.001a.1.1 0 0 1 .04-.015q.021.024.054.053.02-.013.044-.02c.005.01.014.016.028.027a.2.2 0 0 1 .056-.026c.056.035.148.163.187.19l.036-.021.328.575-.046.027q.059.131.128.265c-.001.158-.201.296-.317.38-.133-.076-.148-.315-.285-.406-.269-.355-.31-.374-.383-.483-.079-.064-.17-.096-.241-.147-.046-.059-.23-.244-.32-.192q-.02-.015-.028-.027c-.04.005-.15.043-.174.002l-.037.021-.02-.036c-.05.009-.05.009-.122-.011-.309-.3-.434-.115-.686.143l.021.037c-.033.036-.034.056-.029.107l-.027.015c.046.252.183.494.237.748q.009.004.03.007l.269.476c.014-.009.03-.012.05-.018q.105.07.22.142l.031-.019c.075.067.201.044.295.039.1.016.1.016.333.118l.036-.02.019.032c.038.002.102-.022.128.023.171-.06.33.06.504.058.078-.032.096-.067.19-.114.188.14.173.306.395.398.164-.093.271-.257.446-.32.185.305.185.305.23.414l.228.4Zm-.229-.401.229.4-.032.02-.229-.403zm-.892-1.632c-.126-.255-.126-.255-.318-.581l.036-.021.328.575zm.725-.692c-.104-.055-.17-.223-.231-.321.02-.072-.2-.424-.245-.514a.4.4 0 0 1 .142-.273l-.021-.036.036-.021c.001-.158.097-.201.218-.287.115.032.149.199.15.307.08.203.142.44.196.65-.048.173-.104.392-.245.495m-1.778-.957q.007-.021.017-.035-.136-.24-.26-.48c-.11-.118-.11-.118-.127-.115q.18.313.37.63m.017-.035q-.136-.24-.26-.48l.022-.012.27.475zm1.036-1.356-.021-.037.424-.242.021.037zm13.484 2.547c0 .063.021.22-.02.262-.006.283.005.52.047.794.162.178.31.435.51.567.194 0 .194-.231.34-.305q.032.023.069.053c.063.157.152.22.305.293.336-.026.65-.215.992-.257.3.147.336.227.352.568a1 1 0 0 0 .069.078c.23 0 .294-.21.462-.242a.4.4 0 0 1 .032-.052c.147-.047.162-.262.288-.304q.016-.065.032-.12c.194-.195.215-.506.236-.773h-.02c0-.126-.048-.799.02-.867.006-.462.01-.925.021-1.387-.026-.131-.121-.356-.274-.356a1.8 1.8 0 0 0-.929-.232c-.141-.242.163-.242.3-.242.036-.016.036-.016.152-.01q.411-.01.83-.011v.036c.015.053.656.295.778.295.099-.063.099-.063.156-.068.1-.221.053-.279-.036-.525h-.042v-.042h-.042v-.042h-.057c-.084-.148-.342-.194-.5-.215-.11-.19-.331-.017-.372-.284-.11-.221-.158-.221-.385-.294q-.002-.048.006-.095h.038v-.037c.078-.042.21-.131.22-.236.215-.084.236-.42.162-.615h-.037c-.084-.142-.204-.12-.356-.12q-.007-.168-.006-.326a2 2 0 0 0 .242-.31c.483-.242.588-.515.457-1.009-.026-.01-.026-.01-.036-.047h-.038q-.009-.023-.01-.037l-.132-.047q-.009-.023-.01-.037c-.231-.063-.284-.01-.456.147-.112.052-.347.069-.448 0-.015-.08-.047-.131-.057-.22-.042-.073-.105-.084-.142-.163-.158.01-.23 0-.368.084-.037.189-.068.43-.137.604-.088.132-.14.178-.157.231-.084.026-.11.069-.11.163h-.022c-.01.01-.01.02-.01.032 0 .078.037.425-.01.472q.029.104.068.216c.041.01.041.01.1.078.094-.005.199-.01.225-.116.08 0 .132-.157.242-.178-.02.1-.02.1-.026.252.084.2.141.336-.12.378-.29.106-.395.394-.3.678.12.037.257.01.383.005q.002-.022.011-.037.022-.006.052-.005c.021-.037.027-.079.079-.079a.1.1 0 0 1 .01-.036c.074-.038.074-.038.274-.078a.42.42 0 0 1-.1.345c-.347.079-.63-.046-.93.2-.068 0-.462-.015-.462-.11-.053-.011-.064-.042-.095-.042q-.002-.023.006-.048c.158-.141.404-.236.404-.488-.11-.242-.137-.284-.425-.263-.09.053-.18.116-.284.116.01-.11.01-.11.036-.168.116-.068.263-.316.395-.316.005-.03.032-.042.053-.078q.04-.006.088-.005c.042-.148.105-.174.063-.352-.047-.015-.063-.037-.084-.084-.157 0-.378.069-.524.021a1 1 0 0 1-.021-.1.66.66 0 0 1 .345-.167q.002-.024.011-.038.03-.006.069-.005v-.042a.7.7 0 0 0 .362-.205c.037-.3-.074-.362-.341-.442q-.01-.022-.011-.036c-.079-.031-.079-.031-.21-.053-.162-.11-.32.137-.404.242-.142.042-.384.163-.53.184q-.014.065-.022.136.023.002.048.011c.02.073.088.163.12.248h.053q.001.014.01.035.15.018.3.043c.026.183-.294.3-.357.488.015.174.078.336.152.489.242.12-.148.41-.257.472a.3.3 0 0 0-.021.084h-.042c-.084.29.01.352.252.489.068.137-.168.295-.247.367-.042.058-.09.147-.163.163q-.024-.062-.037-.115c.031-.452.058-.936.136-1.382.08-.22.1-.43.022-.65h-.043a5 5 0 0 0-.246-.557c-.037-.027-.137-.08-.137-.132q-.1-.001-.194.006c-.126.204-.1.42-.115.64a.4.4 0 0 0-.011.079q-.015.229-.021.457c.015.094.015.094-.01.614a1 1 0 0 0-.042.163c.073.173.084.352.088.536.08.148.122.253.122.42.093.094.12.22.157.347.074.11.173.178.247.289.063 0 .126 0 .162.058-.068.068-.288.11-.372.136-.4.074-.762.105-.778.122-.03.046-.556.02-.567.01l-.388.047q-.102.065-.195.136c-.026.137.174.242.283.257l.021.084c.059.006.221.038.221.122.116.036.206.11.31.162.063.2.689.042.74-.126.111-.015.594-.173.594-.278.042-.021.174-.073.174-.126.215-.122.405-.189.645-.189q.008.023.023.047a.5.5 0 0 1 .198.142c-.032.047-.095.068-.152.09a.1.1 0 0 0-.01.036h-.036a.37.37 0 0 0-.044.2h.044c.02.204.252.372.45.305.079-.143.174-.326.357-.326.038.183-.157.32-.315.362-.074.073-.21.11-.305.147-.072.105-.072.105-.131.258.09.183.163.188.373.241.153.152-.23.33-.23.426h-.042a1 1 0 0 0-.09.11c.026.042.131.157.131.21h.042c.021.069.09.12.153.168 0 .095-.263.488-.399.488-.017-.047-.017-.047.01-.734l-.015-.463h.036c.036-.116-.01-.315-.01-.447-.026-.104-.053-.194-.059-.304a6 6 0 0 1-.12-.268.2.2 0 0 0-.043-.01c-.073-.222-.262-.205-.46-.205v.042c-.258.084-.227.881-.233 1.05 0 .32 0 .32-.02.384Zm2.842-1.413c-.042-.263-.325-.427-.42-.1-.12.047-.132.215-.095.32h.043c.157.316-.2.535-.473.572a.74.74 0 0 0-.163.394c.163-.01.194-.026.341-.02.273.205.268.493.032.699-.152.057-.452.13-.452.335.12-.005.336-.042.452 0v.037h.042v.042c.01 0 .027.005.042.01.084.253.194.295.456.163a5 5 0 0 1 .053-.273q.016-.006.032-.005c.126-.3.021-.677.094-1.003a5 5 0 0 1 .006-.536q.001-.102.01-.194zM63 30.458c-.026.687-.026.687-.01.734.136 0 .399-.393.399-.488-.063-.047-.132-.1-.153-.168h-.041c0-.053-.105-.168-.132-.21h-.021c-.026.048-.026.048-.042.132m2.79-.526v.867h-.022c0-.126-.047-.799.021-.867Zm-2.79.526c.016-.084.016-.084.042-.132-.063-.095-.021-.22-.021-.331h-.036zm.042-.132c-.063-.095-.021-.22-.021-.331.036-.116-.01-.315-.01-.447h.041c.09.184.163.19.373.242.153.152-.23.33-.23.426h-.042a1 1 0 0 0-.09.11zm-.967-.09c-.052-.052-.02-.304-.02-.383h.041c0 .32 0 .32-.02.384Zm2.826-.241a5 5 0 0 1 .006-.536q-.007.268-.006.536m.016-.73h.042v-.441h-.042zm-1.429-.12c-.015-.016-.032-.027-.042-.037.079-.143.174-.326.357-.326.038.183-.157.32-.315.362Zm.048-.826a5 5 0 0 0-.126-.178.4.4 0 0 1 .015-.058c.32-.11.437-.126.547-.178q.001-.016.01-.032h.142c.116.29.016.31-.241.325a1.2 1.2 0 0 1-.347.121m-2.968-.12q.284-.01.567-.01c-.03.046-.556.02-.567.01m2.815-1.14c.058.163.105.241.027.398-.084.059-.341.175-.394.279.22.005.43-.062.64-.104.206-.122.206-.122.357-.18q-.022-.078-.046-.146c.025-.174.299-.221.299-.358-.095-.063-.331 0-.442.005-.162.096-.246.105-.44.105Zm1.524.656q.3-.001.599.005l-.447-.015c-.116-.006-.116-.006-.152.01m.599.005-.447-.015q.411-.01.83-.011v.036c-.132-.004-.258-.01-.383-.01m-3.278-.389q.125.04.257.079-.014.016-.032.043a2 2 0 0 0-.193-.011c-.038-.068-.038-.068-.032-.11Zm.341.048c.105-.153.284-.368.431-.467.09.005.215.047.273.105-.189.063-.341.23-.504.352a3 3 0 0 0-.2.01m2.107-.042q-.007-.03-.006-.052c.084-.053.247-.163.279-.257l.341.047c-.011.178-.473.236-.614.262m-3.125-1.219c.025-.52.025-.52.01-.614a13 13 0 0 1-.01-.457h.03q.002-.04.012-.08h-.042c0 .154-.079 1.073 0 1.151m.01-.614a13 13 0 0 1-.01-.457h.03q-.014.229-.02.457m2.411-.515q-.009-.236-.01-.461.006-.01.02-.011c0 .078.037.425-.01.472m.635-.022c.027-.303.227-.524.526-.315a.4.4 0 0 1-.163.294c-.132 0-.248-.046-.363.021m12.37 9.503c.027.03.078.058.06.101l.032.015q.008.063.011.131c.036.038.158.138.133.196.356.132.565.138.753-.227.288-.276.355-.418.435-.796.306-.738.306-.738.33-.756q.076-.174.154-.339c.218-.065.653.08.894.134l.33.161c.298.067.481.095.684.34.044.041.319.253.295.306q.02.01.044.031.234.092.467.192c.108-.09.148-.078.224-.25q-.016-.139-.028-.266c-.072-.215-.115-.273-.11-.311-.292-.33-.279-.386-.703-.411-.348-.147-.717-.234-1.058-.4-.166.064-.524-.178-.704-.107-.135-.06-.17-.189-.248-.31-.221-.19-.262-.2-.542-.242-.116.172-.116.172-.183.234-.31.082-.696-.178-1.036-.12a1.1 1.1 0 0 0-.429-.057c-.11-.049-.64-.28-.758-.234-.028-.012-.927-.422-.994-.269q-.021-.007-.047-.01c-.116.185.02.228.017.405l.039.016-.017.038c.045.032.045.032.154.2l-.016.033c.091.097.102.177.163.313.245.107.503.185.738-.01.196-.029.296-.01.323-.02.515.083 1.034.023 1.526.21l.012-.029q.056.026.116.062c.002.035.002.035-.141.43-.06.387-.322.732-.507 1.081-.135.136-.475.009-.629-.046-.21.023-.339.04-.326.287q.029.031.055.07a.04.04 0 0 1 .027-.01l.473.206-.013.029Zm-.487-.223a.04.04 0 0 1 .027-.011l.473.206-.013.029c-.46-.196-.46-.196-.487-.224m-.558-.336c-.2-.157-.263-.213-.262-.476-.078-.333.156-.604.318-.859q.112-.019.22-.03c.153.068.24.133.35.17.105-.017.21-.046.313-.035l.013-.028q.124-.006.255-.008c.155.21-.414.62-.56.808-.07.16-.151.543-.379.5l-.013.03c-.075-.011-.075-.011-.255-.072m3.436 1.463c-.11-.156-.194-.251-.169-.441-.074-.261-.242-.26-.139-.56.126-.116.31-.316.305-.498-.08-.091-.078-.32-.015-.424.175-.01.431.126.515.289.113.056.21.109.3.194.173.31.226.7.08 1.038-.213.183-.467.37-.733.453a2 2 0 0 0-.144-.05Zm-.967-1.484c.306-.738.306-.738.33-.756.033.083-.256.64-.303.745a.04.04 0 0 0-.027.01Zm2.731-.123q.234.092.467.192c-.144-.052-.347-.1-.467-.192m-2.403-4.83c-.102-.057-.192-.102-.264-.002a.1.1 0 0 0-.04-.012c-.018.027-.046.027-.115.065-.037.059-.069.12-.104.185q-.193-.165-.382-.317c-.11-.003-.11-.003-.218.024-.087.186-.091.247-.166.42l-.228.285c-.3-.09-.463.52-.47.718.133.116.19-.002.292.042l.017-.039c.01.005.018.009.034.014.044-.048.094-.044.153-.024-.122.228-.367.263-.467.49.08.12-.078.286.001.378q0 .104.007.21c.146.047.305.127.433.017l.058.025c.076-.07.187-.073.287-.052a.1.1 0 0 1 .024-.028c.1.048.2.104.303.16a.1.1 0 0 1 .022-.024l.037.016c.062-.035.107-.074.184-.063a1 1 0 0 1 .068-.09c.045-.119.045-.119.07-.28-.064-.114-.014-.4-.114-.445q0-.025.004-.038-.053-.052-.102-.091a.04.04 0 0 0-.028.01q-.085-.047-.165-.083c.067-.074.142-.138.247-.144.074-.076.285-.23.301-.27.028-.01.17-.19.21-.217q.03.006.065.022c-.09.242-.342.573-.24.835-.036.123-.104.213-.127.358-.007.134-.004.244-.045.376q0 .061-.004.13.083.046.162.1c.043-.021.043-.021.099-.107.251-.027.254-.032.423.134-.005.01-.004.021-.006.038.069.042.08.07.232.205.133.075.374.076.463-.062q.032.008.069.025c.038.424.25.23.562.327l.017-.039a1 1 0 0 1 .105.034c.147-.033.197.023.332.082.014.059.008.165.066.19q-.008.014-.008.03c.02.02.047.038.032.072.048.01.093.024.143.04a2.5 2.5 0 0 0 .378-.288l.107-.245c-.023-.09-.023-.09-.013-.166l-.034-.015c.022-.14-.093-.415-.193-.515.084-.192.307-.204.42-.356l.033.016c.209-.19.419-.368.55-.614-.04-.172-.224-.642-.457-.62-.049.072-.049.072-.141.14-.098.221-.005.468-.23.629-.09.142-.128.138-.27.213l-.097-.042a6 6 0 0 0 .391-.776c-.011-.038-.088-.152-.077-.176-.2-.11-.191-.193-.419-.172-.044.129-.045.157-.015.296-.14.335-.14.335-.194.404-.164-.147-.04-.494-.217-.669-.241-.117-.241-.117-.314-.172.05-.075.067-.062.16-.079l.017-.038c.043.019.142-.024.175-.06a.2.2 0 0 0 .144-.053c.163-.009.37-.164.547-.202.14.06.16.093.305.179.237.3.404.257.772.229.065-.148.144-.292.153-.454l-.034-.015.016-.034c-.018-.013-.03-.024-.045-.03a.1.1 0 0 1 .004-.034c-.018-.013-.03-.024-.044-.03-.035-.159-.288-.183-.424-.225a.3.3 0 0 1 .035-.065l.038.016c.017-.027.054-.034.21-.149-.012-.029-.012-.029.037-.179l.003-.4-.034-.015.017-.038-.04-.017-.006-.089-.033-.014c.007-.056-.025-.087-.06-.124l.01-.065c-.037-.033-.037-.033-.165-.079q-.025.017-.054.041c-.218.001-.412.026-.521.224-.01.1.017.289.01.343a.04.04 0 0 0-.028.011c-.07.16-.172.263-.256.415-.14-.02-.14-.02-.313-.074q-.126.016-.256.037c-.127-.038-.127-.038-.154-.027-.173-.024-.508-.176-.667-.113l-.06-.061c.018-.17.094-.332.159-.493-.039-.029-.138-.09-.118-.137-.023-.027-.046-.039-.031-.072-.088-.05-.088-.05-.099-.077-.073-.043-.073-.043-.474-.174-.075.066-.264.184-.374.198-.082.188.08.328-.004.52l-.038-.017c-.1.084-.326.024-.45.02-.186.178-.291.522-.114.731q.129.038.261.086a.1.1 0 0 1 .024-.03c.129.01.396.014.362.21Zm-.534 2.398c.045-.119.045-.119.07-.28a.4.4 0 0 1 .05-.063c-.006.134-.003.244-.044.376-.036-.033-.036-.033-.076-.033m-.73-.52a1 1 0 0 1 .102-.14c.067.029.087.06.155.103-.003.004-.002.016 0 .027-.077.03-.077.03-.101.06zm.85.177c.024-.145.092-.235.129-.358-.103-.262.15-.593.24-.835q-.036-.016-.066-.022c-.04.028-.182.207-.21.218-.016.038-.227.193-.301.27-.105.005-.18.069-.247.143.053.023.109.054.165.084a.04.04 0 0 1 .028-.011q.05.04.102.091-.004.014-.004.038c.1.044.05.331.115.445a.4.4 0 0 1 .05-.063Zm1.748.5c.088-.173.092-.274.285-.27l.017-.039c.073.004.073.004.121.025-.053.12-.3.281-.423.285Zm-.351-1.278a1 1 0 0 1 .017-.145c-.094-.11-.315-.156-.444-.086.011.027.067.057.182.187.016.134-.05.22-.103.34-.163.187-.38.12-.425.434.097.041.19.089.285.135.118-.046.266-.36.32-.456q.08-.206.168-.409m1.006 1.473-.023-.027a1 1 0 0 1 .054-.109c.094-.003.094-.003.175.02.037.057.02.136-.033.181a2 2 0 0 0-.173-.065m-3.115-1.844c-.024-.154.166-.18.267-.205.033-.048.066-.057.126-.065-.07.159-.209.321-.393.27m1.94.78q.082-.206.169-.409l.047.023q-.09.2-.176.403zm.891-.005c.021-.06.021-.06.078-.122q.033.017.073.043-.037.046-.069.103a.3.3 0 0 0-.082-.024m-1.661-1.588c.139.102.273.177.453.158.065-.07.114-.024.143.052-.107.245-.271.213-.508.167-.1-.348-.1-.348-.088-.377m.694-.091c-.01-.045-.01-.045.01-.116q.026.001.048.01l.031-.073c.066-.006.066-.006.128.01a.1.1 0 0 1 .025-.03c.035.01.076.023.114.04.198-.046.417-.008.612.055-.075.105-.288.24-.407.302-.178-.037-.386-.14-.561-.198m-39.458 9.816c.105.07.136.149.199.247l.395.338c.247.272.438.52.622.838.308.26 1.023.795 1.386.345-.003-.03-.003-.03.066-.216-.029-.064-.221-.346-.142-.444a3.6 3.6 0 0 0-.519-.486c-.305-.292-.305-.292-.316-.327-.037-.003-.037-.003-.333-.214l-.347-.104-.232-.207c-.136-.116-.294-.223-.402-.364a.9.9 0 0 0-.348-.213c-.497-.379-1.043-.757-1.483-1.198a.1.1 0 0 1 .014-.036q-.21-.238-.41-.478c-.07-.056-.326-.222-.336-.304-.18-.085-.293-.323-.413-.474-.084-.256-.294-.465-.445-.688l-.525-.159c-.214.097-.4.338-.565.51-.142.067-.123.251-.127.375.15.19.486.384.552.62.27.277.401.322.587.688.168.168.273.314.376.53a3 3 0 0 0-.127.175c-.048.252.355.596.194.73-.08-.052-.168-.135-.262-.144-.06-.11-.174-.2-.27-.284-.05-.182-.228-.413-.357-.544-.092-.296-.437-.19-.639-.095-.26.322-.294.357-.077.726.048.214.04.282.218.424.075-.061.253-.14.348-.198.102.014.169.108.233.18q.223.201.454.405a.3.3 0 0 0-.035.061c-.014.01-.024.013-.03.022a8 8 0 0 1-.256-.253c-.131-.138-.131-.138-.16-.202l-.21-.11c-.095.06-.138.106-.161.21.084.107.514.627.222.73l-.233-.187a.1.1 0 0 1 .014-.036c-.268-.236-.216-.552-.645-.505-.087.024-.626.25-.643.239q-.076.09-.14.183.005.015.022.03c-.075.143-.021.254.058.37.127.104.13.133.309.297.213.171.496.256.617.524-.088.319-.258.195-.491.318l-.075-.033q-.094.055-.184.102a6 6 0 0 0-.127.302c.078.145.088.199.145.272.077.264.108.444.386.566.156.16.517.497.756.386q.012.006.035.014c.031-.022.188-.125.22-.1.102-.1.203-.2.312-.3l.027.007c.19-.237-.131-.449-.214-.623l.02-.026c-.034-.04-.06-.034-.037-.096-.04-.074-.015-.148-.067-.208.01-.04.01-.04.047-.051.33.285.5.678.815.973.058.12.182.192.26.296.037.13.128.345.227.439a.1.1 0 0 0-.018.04c.24.287-.104.59.219.85.154-.073.428-.473.334-.615l.02-.024q-.036-.05-.062-.091l.023-.029-.029-.023.026-.033-.032-.027c.026-.058.016-.12-.006-.185l.026-.033a.4.4 0 0 1-.048-.066.1.1 0 0 1 .015-.036c-.057-.113-.169-.242-.128-.378-.074-.107-.142-.216-.123-.357-.103-.081-.156-.258-.213-.372a13 13 0 0 1-.303-.31c-.08-.12-.122-.268-.232-.357a.1.1 0 0 1 .01-.031c-.041-.04-.093-.075-.081-.133-.151-.121-.25-.301-.385-.444-.002-.022-.002-.022.077-.128.163.133.29.267.43.42.051-.006.103-.01.159-.02q.102-.13.217-.263c.248.003.485.302.586.505q.166.181.338.359c.254.17.5.274.803.342.256-.151.23-.387.214-.636-.336-.27-.336-.27-.589-.5-.148-.2-.297-.41-.533-.517l-.724-.744c-.004-.044-.004-.044.044-.147.073-.008.247.037.283-.008.15.032.27-.167.324-.286q-.016-.015-.022-.03a1 1 0 0 1 .06-.109l-.026-.06c.076-.195-.23-.501-.36-.618-.095-.031-.095-.031-.165-.086a.2.2 0 0 0-.038.03c-.037-.03-.175-.101-.218-.081-.128-.151-.288-.32-.358-.51l-.33-.327a.2.2 0 0 1 .036-.038c.243.067.438.31.634.47.493.51 1.03.948 1.61 1.34q.182.19.37.372c.073.06.404.285.412.359m.779-.23c-.136-.116-.294-.223-.402-.364q.208.166.428.33zm-.78.23-.434-.33.023-.03c.073.06.404.286.412.36Zm-3.35-.216q.122.128.254.253c.007-.009.017-.013.031-.022zm.285.231-.286-.23c-.131-.139-.131-.139-.16-.203l.027-.033q.223.201.454.405a.3.3 0 0 0-.035.061m-2.162.492c.127.103.13.132.309.296q-.165-.134-.332-.266zm57.744 1.23c.026-.003.257.084.391.105a.74.74 0 0 0 .314-.184c.086-.35-.247-.782-.391-1.056-.112-.148-.44-.205-.6-.251-.07-.011-.151-.003-.208-.059.051-.052.103-.105.155-.149l.022.022a.1.1 0 0 1 .038-.03c.01.004.022.007.033.018.24-.243.535-.446.85-.579l.253-.257c.034-.1.028-.26.099-.332l-.022-.023q.053-.099.106-.19c-.042-.173-.241-.414-.401-.468a3 3 0 0 0-.663.194c-.072-.07-.324-.023-.379.07.05.167.092.349.182.504-.055.064-.055.064-.247.222-.312.046-.498.527-.798.63-.093-.012-.171-.014-.245-.074-.193-.013-.325-.17-.518-.207-.194-.133-.337-.272-.575-.337q-.195-.196-.396-.383c-.187-.03-.306.288-.253.436-.08.357-.068.383-.104.547.019.04.042.151.006.19q.06.084.116.173c.06-.023.103-.008.166-.057.246-.039.588.137.765.309-.263.236-.578.34-.88.52-.246-.035-.504.13-.747.083-.207.062-.281.062-.326.092l-.022-.022c-.14.076-.29-.034-.427.014a5 5 0 0 0-.287-.009c-.144.066-.68-.05-.803-.172a.1.1 0 0 0-.027.02l-.066-.022c-.437.091.038.523.26.521.128.059.284.087.4.143.292-.037.526.077.798.16.1-.034.324.046.428.083.141-.017.62-.143.724-.078.356-.128.482-.15.671-.216.348-.188.544-.335.547.126-.048.182.033.43-.074.606.038.133.004.497-.062.602.075.119-.08.275-.012.41-.024.144-.022.479-.11.606.063.099-.035.26.028.322-.073.097.029.375-.026.431l.03.03q-.023.047-.044.104c.016.052.09.193.047.237.052.112.153.211.243.3.012-.011.019-.02.03-.023.07.04.142.08.208.124.343.065.362.636.726.634.215-.217.043-.584.042-.866-.042-.092-.05-.189-.062-.29.011-.062-.12-.648-.094-.674-.015-.046-.084-.178-.046-.216a.54.54 0 0 1-.022-.352c-.116-.189-.243-.83-.171-1.076-.035-.093-.035-.093-.042-.174.087-.202-.044-.441.054-.64-.011-.048-.064-.181-.023-.222-.013-.018-.02-.033-.031-.044.036-.142.023-.87.326-.572a.1.1 0 0 1 .034-.018c.074.022.152.032.209.088.01-.012.022-.015.033-.02.047.033.1.07.149.11.09-.015.163.037.235.092.033.01.033.01.157.14l.318.313zm-.486-.464c.033.01.033.01.157.14l.318.313.011.011-.023.024-.463-.459zM27.816 61.915c.468 0 .85-.382.85-.85a.85.85 0 0 0-.85-.85.85.85 0 0 0-.851.85c0 .468.382.85.85.85Zm73.297 0c.468 0 .85-.382.85-.85a.85.85 0 0 0-.85-.85.85.85 0 0 0-.851.85c0 .468.382.85.851.85m2.111 3.045-.124 2.381-3.99-.209.118-2.264.443.023-.091 1.727 1.238.066.083-1.587.443.023-.083 1.587 1.424.074.096-1.844.443.024Zm-.25 3.245-.102.575-3.075.762-.004.023 2.852.503-.094.53-3.935-.694.102-.576 3.074-.763.005-.023-2.852-.503.094-.528zm-.766 4.044-.122.523-3.893-.9.12-.522zm-2.032 1.653q.838.296 1.085.746.247.448.096.915-.173.533-.731.77-.555.237-1.51-.073-1.044-.34-1.438-.873-.39-.534-.203-1.11.159-.49.63-.692.472-.203 1.131.035l-.159.49q-.49-.16-.784-.083a.54.54 0 0 0-.396.386q-.116.357.182.686.299.33 1.165.612.8.26 1.192.153.39-.105.499-.44c.053-.16.023-.336-.089-.519q-.168-.275-.836-.493zm.161 4.506-.192.503-3.731-1.432.192-.502zm-2.869 1.642q-.772-.393-1.21-.302-.441.09-.695.59l-.117.228 2.77 1.412.118-.23q.253-.499.08-.902-.177-.405-.946-.796m.254-.5q-.958-.489-1.56-.336-.602.151-.995.921l-.36.709 3.56 1.814.361-.708q.35-.686.151-1.3-.2-.614-1.157-1.1m.356 3.736-1.192 2.065-3.461-1.998 1.134-1.963.384.222-.865 1.497 1.073.62.796-1.377.383.222-.794 1.377 1.235.713.923-1.6zm-1.633 2.763L93.212 83.7l-.426.586 1.833 1.967-.027.037-2.437-1.136-.426.587 3.232 2.349.275-.378-2.306-1.677.027-.037 2.636 1.222.22-.302-1.978-2.13.029-.037 2.306 1.675zm-2.903 3.842-1.657 1.714-2.874-2.775 1.575-1.631.32.307-1.202 1.244.89.861L91.7 88.47l.32.308-1.105 1.142 1.026.99 1.283-1.327zm-2.973 1.492a.93.93 0 0 0-.658-.297q-.404-.022-.923.175-.537.215-.735.189a.54.54 0 0 1-.341-.177.54.54 0 0 1-.16-.41.64.64 0 0 1 .223-.414q.222-.208.485-.164.263.042.422.246l.392-.367a1.3 1.3 0 0 0-.731-.39q-.444-.082-.887.333a1.18 1.18 0 0 0-.383.773q-.04.453.294.81.239.258.595.278.354.022.907-.209.402-.149.691-.148.289 0 .45.172a.7.7 0 0 1 .197.47q.007.265-.266.52a.7.7 0 0 1-.487.198q-.282.007-.52-.25l-.096-.103-.392.367.111.12q.334.36.797.375.462.016.89-.382.428-.4.46-.86.033-.463-.335-.855m-1.622 2.969-1.878 1.467-2.46-3.148 1.787-1.396.272.35-1.362 1.065.763.977 1.251-.98.274.351-1.253.978.878 1.124 1.455-1.137zM86.35 96.34l-2.118-3.388-.455.284 1.534 2.455-.02.013-2.624-1.775-.495.31 2.117 3.388.456-.284-1.534-2.456.019-.012 2.624 1.774zm-3.498 2.12-.479.244-1.814-3.56.478-.245zm-2.031 1.041-1.497-3.705-.5.201.632 1.562-1.234.498-.631-1.56-.499.201 1.498 3.705.497-.201-.7-1.734 1.236-.498.7 1.733.498-.201Zm-3.296-.26q.238.859.012 1.318a1.11 1.11 0 0 1-.696.603q-.535.165-1.048-.154-.514-.322-.807-1.282-.322-1.05-.11-1.678.213-.626.793-.803.491-.15.93.12.434.269.618.946l-.492.15q-.15-.491-.382-.69a.54.54 0 0 0-.544-.102q-.358.11-.456.543-.101.434.166 1.305.245.805.558 1.064.31.26.646.157.245-.074.375-.371.129-.297-.077-.967l.514-.158Zm-4.936-.573-1.873.4.272 1.279 1.416-.301.092.435-1.416.3.374 1.761-.526.111-.83-3.908 2.4-.511zm-3.138 2.141q-.121-.975-.366-1.25-.246-.276-.547-.24-.302.038-.484.366-.184.33-.064 1.303.119.975.379 1.261.258.286.559.248.303-.037.472-.375.17-.34.05-1.313Zm.556-.069q.134 1.09-.144 1.607c-.278.517-.479.542-.88.591a1.12 1.12 0 0 1-1.01-.359q-.408-.432-.54-1.523-.135-1.089.157-1.597.29-.505.894-.58t.995.349q.395.422.528 1.512m-4.458-1.483-1.1 2.196v1.8h-.537v-1.8l-1.098-2.196h.537l.817 1.703h.026l.816-1.703zm-3.065.393-.93-.082-.31 3.539-.535-.047.309-3.539-.932-.081.04-.442 2.397.21zm-4.4 3.071-.53-.093.695-3.935.529.093zm-1.953-1.499a.94.94 0 0 0-.123-.712q-.208-.348-.661-.667-.475-.327-.567-.504a.54.54 0 0 1-.044-.381.53.53 0 0 1 .25-.362.62.62 0 0 1 .468-.047q.297.067.408.31a.64.64 0 0 1 .032.487l.524.121a1.3 1.3 0 0 0-.088-.824q-.179-.414-.77-.55a1.18 1.18 0 0 0-.855.115 1.02 1.02 0 0 0-.508.697.85.85 0 0 0 .102.647q.18.307.681.637.348.249.51.489.16.242.108.469a.7.7 0 0 1-.28.428q-.215.154-.579.069a.7.7 0 0 1-.436-.293q-.163-.23-.084-.57l.032-.137-.524-.121-.037.159q-.111.478.134.871.246.394.815.523.57.132.97-.098.402-.232.522-.756m-2.988-2.577q.102-.311-.03-.55-.13-.239-.553-.376l-.49-.16-.425 1.311.623.204q.265.085.513.007.248-.08.362-.436m-.258 2.914-.533-.173-.253-1.901-.591-.192-.535 1.645-.512-.166 1.236-3.8 1.11.36q.534.174.785.537.25.364.063.942-.144.445-.447.618a1.03 1.03 0 0 1-.612.144zm-3.1-1.088.16-.415-1.725-.662.51-1.33 1.485.569.16-.413-1.484-.57.443-1.157 1.615.62.159-.415-2.116-.812-1.432 3.73zm-1.018-4.728-2.875 3.072-.418-.212.795-4.133.5.255-.645 3.108.009.004 2.136-2.348zm-5.609 1.514 2.117-3.389-.456-.284-2.117 3.388zm-1.884-1.282-.466-.35.717-3.088-.019-.013-1.743 2.313-.428-.324 2.404-3.191.467.352-.717 3.086.018.013 1.743-2.312.428.324zM39.5 93.157l1.892-2.102-.399-.359-1.892 2.101q-.266.296-.53.31a.67.67 0 0 1-.49-.19.67.67 0 0 1-.24-.467q-.013-.263.253-.56l1.892-2.1-.4-.36-1.891 2.1q-.377.418-.378.856-.002.44.467.86.47.424.905.375.437-.047.811-.464m-3.338-3.223q-.41.383-.849.392-.436.01-.868-.453-.432-.461-.39-.898.04-.436.45-.82l2.068-1.927.366.393-2.068 1.928q-.29.271-.3.536a.67.67 0 0 0 .199.486.67.67 0 0 0 .47.231q.265.01.556-.262l2.068-1.928.367.394zm-1.638-3.3q.773-.603.883-.957.11-.352-.076-.591-.188-.24-.563-.228-.377.013-1.15.617t-.886.974q-.111.37.075.608.188.24.566.21.377-.028 1.151-.633m.346.443q.865-.677 1.025-1.23.16-.556-.215-1.035-.375-.48-.958-.466-.585.01-1.45.687-.866.675-1.026 1.246a1.12 1.12 0 0 0 .212 1.051q.373.48.96.45.586-.027 1.452-.703m-3.54-1.387-.293-.45 1.568-1.018-.726-1.117-1.567 1.017-.293-.45 3.35-2.176.293.45-1.41.917.724 1.117 1.411-.916.294.45zm-1.65-2.704.393-.207-.921-1.734 3.633.213.391-.209-1.075-2.022-.391.208.823 1.549-3.634-.213-.392.207 1.174 2.208Zm-1.462-2.925-.162-.362.27-.198a.7.7 0 0 1-.333-.171 1 1 0 0 1-.26-.357q-.201-.45.06-.986.258-.538 1.176-.946 1.004-.446 1.637-.345.634.102.88.657.219.49-.02.93-.24.438-.815.695l-.21-.47q.448-.2.607-.448a.53.53 0 0 0 .033-.527q-.151-.342-.58-.355-.428-.014-1.261.357-.789.35-.994.697-.203.347-.08.625a.58.58 0 0 0 .398.347q.273.069.7-.12l.236-.105-.294-.662.404-.18.485 1.089zm-1.135-2.944 3.821-1.168-.158-.513-2.768.846-.007-.022 2.393-2.075-.17-.56-3.822 1.168.157.515 2.77-.847.006.022-2.393 2.076.17.558Zm.561-4.222 1.314-.676-.006-.032-1.476-.083zm-1.437 1.325-.117-.548 1.146-.56-.22-1.041-1.277-.046-.116-.548 4.197.303.097.457zm.493-3.449q-.558.07-.918-.181-.36-.25-.437-.877-.078-.626.212-.955.29-.33.846-.4l2.806-.344.066.534-2.806.344q-.396.049-.557.258a.66.66 0 0 0-.126.51.67.67 0 0 0 .245.464q.21.163.602.115l2.807-.345.066.532zm-1.52-3.034-.034-.395.32-.1a.7.7 0 0 1-.258-.27 1 1 0 0 1-.13-.422q-.045-.49.376-.913t1.421-.512q1.095-.095 1.66.208.565.301.619.907.045.536-.322.872-.37.338-.998.392l-.045-.512q.489-.043.72-.227a.53.53 0 0 0 .203-.486q-.033-.372-.433-.525-.401-.153-1.309-.073-.86.076-1.167.336-.305.262-.278.564a.58.58 0 0 0 .263.457q.236.156.701.115l.257-.022-.063-.722.442-.038.104 1.187zm47.573-8.103a2 2 0 0 0-.324.287s-.148.15-.085.176.537.01.566-.083c.165-.51.995-.522.892-.823-.179-.53-.542.111-1.049.443m-2.583 5.728 12.068-.012c-1.89 8.798-9.113 14.689-14.863 16.285-28.824 7.999-30.152-24.269-11.951-36.593 2.932-1.985 6.587-3.727 10.246-4.248.856-.122 1.816-.198 2.666-.307.973-.124 3.993.137 5.218.364 2.063.385 4.696 1.294 6.206 2.617 2.687 2.356 2.896 5.867 1.395 8.9-.496 1.002-1.553 2.852-2.715 3.343-.235.1-.278.34-.466.493-1.13.926-2.408 1.793-3.556 2.692-.26.203-.785-.049-.273-.272.277-.12 1.019-.736 1.258-.93a8 8 0 0 0 .845-.837c.224 0 .282-.093.43-.221.173-.028.465-.358.255-.482.035-.03.684-.966.76-.452q.073-.024.147-.043c.003-.001.1-.172.118-.194.022-.025.135-.1.12-.124-.074-.118-.621.157-.524.027.006-.008.965-1.133 1.12-1.147.237.057-.033.293.261.079.328-.239.558-.438.463-.512-.252-.198-.526.127-.296-.281.375-.67.885-1.324 1.044-2.063.445-2.06.312-4.356-1.168-6.123-1.337-1.599-3.906-2.437-6.01-2.639-3.92-.375-8.215.319-11.46 2.34-7.536 4.696-15.237 14.862-11.33 24.635 2.892 7.238 12.68 7.293 19.017 2.705 4.129-2.99 3.61-4.837.239-6.354zm-2.68 21.21.18-.58h-2.414l-.467 1.832.218-.068a3.3 3.3 0 0 1 .946-.156c.323 0 .578.084.78.256.194.166.29.378.29.647q.001.448-.298.727c-.203.191-.463.284-.796.284-.216 0-.417-.048-.595-.142a1.5 1.5 0 0 1-.492-.436l-.082-.11-.292.254.073.095a1.9 1.9 0 0 0 .639.552q.358.182.801.182c.475 0 .878-.133 1.196-.396.325-.267.49-.608.49-1.01q-.001-.578-.457-.942c-.295-.236-.68-.355-1.146-.355a4 4 0 0 0-.741.07l.18-.704zm-6.402 1.615a1.8 1.8 0 0 1-.764 1.004q-.286.167-.582.168a.96.96 0 0 1-.768-.342c-.2-.23-.302-.543-.302-.928q.001-.452.163-.841.162-.382.422-.595c.138-.11.28-.19.418-.244q.199-.076.422-.077a.97.97 0 0 1 .774.339c.201.228.304.534.304.91q0 .321-.087.606m-.884-2.25q-.431 0-.818.191a2.2 2.2 0 0 0-.687.555 2.6 2.6 0 0 0-.462.768q-.16.419-.16.86c0 .45.132.819.39 1.095.26.278.604.42 1.024.42q.52-.001.996-.29.137-.085.258-.189a2.7 2.7 0 0 1-.505.69c-.364.357-.857.63-1.466.809l-.133.04.126.325.112-.031a4.5 4.5 0 0 0 1.197-.512 3.7 3.7 0 0 0 .913-.815c.27-.34.478-.703.62-1.075.139-.372.21-.75.21-1.122 0-.519-.148-.938-.437-1.247q-.441-.471-1.178-.472m12.947 3.109c-.269.31-.598.46-1.008.46-.346 0-.612-.112-.811-.34-.201-.232-.302-.557-.302-.965q0-.423.163-.772.164-.345.476-.601a1.3 1.3 0 0 1 .379-.22c.135-.05.27-.074.415-.074a.97.97 0 0 1 .784.35c.204.236.307.554.307.944 0 .497-.136.907-.403 1.218m.576-2.572q-.414-.43-1.058-.43a1.8 1.8 0 0 0-1.212.456 3 3 0 0 1 .51-.682c.372-.374.859-.659 1.447-.849l.111-.035-.084-.37-.132.043c-.875.281-1.585.746-2.11 1.379-.531.636-.8 1.346-.8 2.11 0 .534.153.977.452 1.314.303.342.7.515 1.178.515q.462 0 .861-.213a2.14 2.14 0 0 0 .7-.617c.175-.226.31-.475.404-.737q.141-.396.141-.782c0-.447-.138-.818-.409-1.102ZM53.84 89.847h.58l.687-4.067-.648.449z" fill="#365f8f"/></svg>