<svg width="128" height="128" fill="none" xmlns="http://www.w3.org/2000/svg"><path fill-rule="evenodd" clip-rule="evenodd" d="M69.12 99.309q.233.205.38.511.146.305.178.688.032.385-.065.709a1.6 1.6 0 0 1-.296.564 1.52 1.52 0 0 1-1.051.546 1.5 1.5 0 0 1-.634-.075 1.4 1.4 0 0 1-.52-.311 1.6 1.6 0 0 1-.367-.51 1.9 1.9 0 0 1-.173-.665q-.033-.394.065-.713.097-.32.294-.562.195-.24.47-.383.274-.142.583-.168.322-.026.616.07.295.097.52.299m27.661-22.187a.5.5 0 0 0-.023.125.8.8 0 0 0 .03.277q.015.04.09.175.156.265.328.506.173.243.44.61.099.136.169.198.069.061.223.13l.562.253a.3.3 0 0 0 .142.029.23.23 0 0 0 .134-.063q.037-.036.11-.138.075-.1.108-.169l.147.067-.62 1.376-.147-.066q.022-.06.063-.182a.8.8 0 0 0 .043-.174.22.22 0 0 0-.04-.141.3.3 0 0 0-.119-.088l-.715-.322a.4.4 0 0 0-.139-.015 6 6 0 0 0-.24.01 34 34 0 0 0-1.24.088q-.15.015-.234.041a.7.7 0 0 0-.16.073.5.5 0 0 0-.102.099 1 1 0 0 0-.077.115l-.147-.066.565-1.254.147.066a1.4 1.4 0 0 0-.105.312q-.015.098.03.118a.2.2 0 0 0 .05.008h.094q.066-.002.153-.009a24 24 0 0 0 .623-.044q.228-.018.597-.05-.378-.56-.594-.864-.216-.302-.275-.33a.1.1 0 0 0-.092.002.3.3 0 0 0-.087.073.7.7 0 0 0-.081.12l-.07.126-.148-.066.46-1.023zm.338 3.565-.05.14a.5.5 0 0 0-.034.151.2.2 0 0 0 .04.132.4.4 0 0 0 .116.094l.221.12.327.172.142.067a3.4 3.4 0 0 1-.1.632 2.5 2.5 0 0 1-.216.556 1.57 1.57 0 0 1-.915.756q-.293.09-.627.055a1.8 1.8 0 0 1-.671-.216q-.327-.175-.547-.432a1.6 1.6 0 0 1-.32-.564 1.5 1.5 0 0 1-.068-.624q.03-.324.192-.625a1.54 1.54 0 0 1 .595-.63l-.092-.155.086-.161 1.007.517-.089.166a3 3 0 0 0-.38-.07 1.3 1.3 0 0 0-.374.006.85.85 0 0 0-.33.132.8.8 0 0 0-.258.298.94.94 0 0 0-.12.431.95.95 0 0 0 .104.433q.1.213.314.413a2.5 2.5 0 0 0 1.068.575q.275.064.518.033a.99.99 0 0 0 .78-.53q.094-.175.118-.351a.7.7 0 0 0-.004-.267 2 2 0 0 0-.202-.131l-.18-.099-.157-.084a.5.5 0 0 0-.162-.057.18.18 0 0 0-.147.044.7.7 0 0 0-.142.155q-.076.106-.115.169l-.147-.08.672-1.25zm-3.29 2.617q.305-.052.635.027.33.078.647.294.32.217.51.497.193.279.252.585a1.5 1.5 0 0 1-.236 1.16q-.191.28-.457.446a1.4 1.4 0 0 1-.569.208 1.6 1.6 0 0 1-.627-.035 2 2 0 0 1-.626-.284 1.9 1.9 0 0 1-.513-.5 1.6 1.6 0 0 1-.252-.582 1.5 1.5 0 0 1-.002-.606 1.5 1.5 0 0 1 .237-.559 1.52 1.52 0 0 1 1.002-.651zm1.708 1.575a1.5 1.5 0 0 0-.284-.418 2.7 2.7 0 0 0-.453-.379 2.7 2.7 0 0 0-.543-.29 1.5 1.5 0 0 0-.5-.11.86.86 0 0 0-.762.388.84.84 0 0 0-.158.455 1 1 0 0 0 .101.45q.102.206.293.404.192.199.437.366.272.185.525.284.252.1.495.11a.9.9 0 0 0 .434-.08.85.85 0 0 0 .346-.306.86.86 0 0 0 .069-.874m-1.808 1.926.688.671-1.628 1.924-.123-.105.09-.13a.5.5 0 0 0 .07-.13.2.2 0 0 0-.002-.13.3.3 0 0 0-.09-.118l-1.763-1.492a.3.3 0 0 0-.12-.068.2.2 0 0 0-.14.017 1 1 0 0 0-.136.078 1 1 0 0 0-.124.099l-.123-.104.88-1.04.123.105q-.04.05-.09.14a1 1 0 0 0-.066.135.17.17 0 0 0 .002.142q.032.064.09.112l1.653 1.4q.114.096.187.138a.2.2 0 0 0 .142.03.3.3 0 0 0 .141-.084 4 4 0 0 0 .307-.349 2 2 0 0 0 .098-.144 1 1 0 0 0 .066-.136.24.24 0 0 0 .017-.115 2 2 0 0 0-.1-.37 2.3 2.3 0 0 0-.153-.353zm-3.615 1.365q.31.007.619.148.308.139.579.412a1.9 1.9 0 0 1 .406.584q.135.311.135.623a1.52 1.52 0 0 1-.454 1.094q-.24.238-.533.35a1.4 1.4 0 0 1-.599.096 1.6 1.6 0 0 1-.608-.155 2 2 0 0 1-.56-.398 1.9 1.9 0 0 1-.41-.588 1.6 1.6 0 0 1-.135-.62 1.5 1.5 0 0 1 .113-.595q.119-.285.34-.503.229-.228.516-.343a1.5 1.5 0 0 1 .591-.105m1.376 1.872a1.5 1.5 0 0 0-.198-.465 2.7 2.7 0 0 0-.373-.458 2.7 2.7 0 0 0-.477-.389 1.5 1.5 0 0 0-.47-.203.86.86 0 0 0-.822.236.83.83 0 0 0-.243.416 1 1 0 0 0 .014.46q.062.223.21.454.15.23.36.442a2.7 2.7 0 0 0 .46.38q.23.146.465.202.23.057.442.004a.85.85 0 0 0 .398-.234.86.86 0 0 0 .234-.845m-3.51-.037a1 1 0 0 0-.124.152.7.7 0 0 0-.098.173q-.025.096.057.234.081.14.239.326l1.504 1.774-.149.126-3.148-.737 1.06 1.25q.177.21.3.3a.4.4 0 0 0 .216.091.5.5 0 0 0 .221-.067q.152-.071.192-.103l.103.12-.994.843-.102-.12a1.3 1.3 0 0 0 .126-.166.6.6 0 0 0 .092-.17.33.33 0 0 0-.043-.215 2.2 2.2 0 0 0-.262-.354l-1.012-1.193a.6.6 0 0 0-.16-.134.4.4 0 0 0-.177-.06.7.7 0 0 0-.248.045.8.8 0 0 0-.207.1l-.102-.12.691-.587 2.93.692-.978-1.153a2 2 0 0 0-.303-.302q-.123-.09-.207-.084a.8.8 0 0 0-.21.07q-.134.06-.193.105l-.103-.121.985-.836zM86.95 94.9l-1.115.773-.093-.134.124-.103a.5.5 0 0 0 .102-.105.2.2 0 0 0 .036-.127.3.3 0 0 0-.057-.138l-.663-.955-1.261.876.648.934a.3.3 0 0 0 .099.097.23.23 0 0 0 .141.02 1.1 1.1 0 0 0 .28-.117l.094.134-1.114.773-.093-.134.123-.103a.5.5 0 0 0 .103-.105.2.2 0 0 0 .035-.127.3.3 0 0 0-.056-.138l-1.344-1.937a.3.3 0 0 0-.101-.093.2.2 0 0 0-.14-.02 1 1 0 0 0-.154.043 1 1 0 0 0-.142.065l-.093-.135 1.114-.773.093.135a1 1 0 0 0-.118.106 1 1 0 0 0-.094.108.17.17 0 0 0-.034.136q.015.068.059.13l.577.832 1.261-.875-.564-.814a.3.3 0 0 0-.101-.093.2.2 0 0 0-.14-.02 1 1 0 0 0-.154.043 1 1 0 0 0-.141.065l-.094-.134 1.114-.773.093.134a1 1 0 0 0-.118.107 1 1 0 0 0-.094.107.17.17 0 0 0-.034.136q.015.069.059.13l1.342 1.935q.046.066.1.096a.22.22 0 0 0 .14.02 1.1 1.1 0 0 0 .28-.116zm-6.409 2.746.342.887-2.428 1.12-.067-.146a3 3 0 0 0 .156-.094.7.7 0 0 0 .122-.09.2.2 0 0 0 .054-.122.3.3 0 0 0-.031-.138l-.97-2.102a.3.3 0 0 0-.078-.11.2.2 0 0 0-.134-.042 1.2 1.2 0 0 0-.332.066l-.068-.146 2.263-1.044.325.705-.155.071a1.1 1.1 0 0 0-.331-.25q-.22-.114-.35-.073a2 2 0 0 0-.158.058q-.09.037-.204.089l-.46.212.536 1.162.33-.152a.7.7 0 0 0 .218-.137.35.35 0 0 0 .083-.159.6.6 0 0 0 .003-.195 1 1 0 0 0-.044-.208l.154-.072.528 1.144-.155.072a1 1 0 0 0-.141-.19.6.6 0 0 0-.149-.124.32.32 0 0 0-.193-.038 1 1 0 0 0-.227.074l-.33.152.405.878q.061.132.114.2a.2.2 0 0 0 .126.082.34.34 0 0 0 .17-.017q.098-.032.269-.11l.179-.083q.111-.051.183-.095.075-.045.148-.104a.3.3 0 0 0 .092-.114q.049-.142.06-.39a2 2 0 0 0-.003-.358zm-3.257-.048-.148.053a1 1 0 0 0-.137-.16 2 2 0 0 0-.185-.16 1 1 0 0 0-.204-.123.3.3 0 0 0-.179-.032q-.069.015-.172.047a5 5 0 0 0-.19.063l-.125.045.88 2.448a.3.3 0 0 0 .077.12q.05.048.139.054.043 0 .177-.017a1.3 1.3 0 0 0 .203-.042l.055.153-1.445.519-.055-.153q.059-.026.178-.083a.8.8 0 0 0 .16-.094.23.23 0 0 0 .076-.119.3.3 0 0 0-.018-.153l-.886-2.468-.125.045-.166.064a2 2 0 0 0-.184.081.28.28 0 0 0-.117.138q-.05.104-.08.225a1.5 1.5 0 0 0-.044.452l-.15.054-.3-.83 2.667-.958zm-4.91 1.534-.168.03a1.2 1.2 0 0 0-.263-.341q-.184-.174-.324-.17a2 2 0 0 0-.166.017 5 5 0 0 0-.216.034l-.53.096.23 1.27.362-.065a.8.8 0 0 0 .25-.08.4.4 0 0 0 .137-.135.5.5 0 0 0 .054-.167 1 1 0 0 0 .008-.231l.17-.03.223 1.241-.17.03a1 1 0 0 0-.085-.214.6.6 0 0 0-.116-.165.34.34 0 0 0-.189-.083 1 1 0 0 0-.25.014l-.362.065.196 1.091a.3.3 0 0 0 .053.126q.039.053.12.075a1 1 0 0 0 .151.012q.115.002.174-.006l.029.158-1.371.247-.029-.158.176-.046a.6.6 0 0 0 .14-.053.2.2 0 0 0 .081-.103.3.3 0 0 0 .006-.142l-.412-2.282a.3.3 0 0 0-.048-.126q-.035-.052-.12-.075a1.2 1.2 0 0 0-.337-.02l-.028-.157 2.48-.448zm-13.64 3.029-1.442-.184.02-.16.179.009a.7.7 0 0 0 .165-.006.23.23 0 0 0 .12-.067.26.26 0 0 0 .05-.136l.295-2.318a.3.3 0 0 0-.008-.135q-.017-.055-.105-.104a1.3 1.3 0 0 0-.329-.121l.02-.16 1.442.183-.02.16a1.4 1.4 0 0 0-.344.011q-.09.016-.126.073a.3.3 0 0 0-.046.132l-.295 2.315a.3.3 0 0 0 .016.136.22.22 0 0 0 .1.106q.045.024.15.059.102.035.178.047zm-7.468-2.827-.402.861-2.49-.972.059-.15q.066.02.176.047a.7.7 0 0 0 .148.026.2.2 0 0 0 .127-.046.3.3 0 0 0 .077-.118l.842-2.157a.3.3 0 0 0 .025-.132.2.2 0 0 0-.063-.126 1.2 1.2 0 0 0-.278-.194l.059-.15 2.321.907-.282.723-.16-.062a1.1 1.1 0 0 0-.048-.413q-.07-.236-.19-.302a2 2 0 0 0-.152-.074 5 5 0 0 0-.206-.085l-.47-.184-.467 1.192.339.133a.7.7 0 0 0 .25.061.36.36 0 0 0 .171-.05.6.6 0 0 0 .143-.133q.073-.09.12-.177l.158.062-.458 1.173-.159-.062q.03-.104.038-.233a.6.6 0 0 0-.013-.193.32.32 0 0 0-.106-.166 1 1 0 0 0-.211-.112l-.339-.132-.351.9a1 1 0 0 0-.065.222.22.22 0 0 0 .028.147.34.34 0 0 0 .13.11q.091.05.266.118l.184.072q.114.044.195.066.084.023.178.035a.3.3 0 0 0 .146-.013q.136-.065.323-.228.188-.165.255-.25zm-6.336-1.809-1.259-.726.081-.14.16.077q.106.05.156.058a.23.23 0 0 0 .135-.015.26.26 0 0 0 .1-.106l1.168-2.024a.3.3 0 0 0 .045-.127q.005-.06-.057-.137a1.3 1.3 0 0 0-.257-.24l.081-.14 1.259.727-.081.14a1.4 1.4 0 0 0-.32-.123q-.09-.019-.145.02a.3.3 0 0 0-.094.103l-1.166 2.021a.3.3 0 0 0-.039.132q0 .067.052.136.032.04.115.112.082.072.147.112zm-9.19-8.696-.772.556-1.697-2.065.124-.102q.047.05.13.127a.7.7 0 0 0 .117.095.2.2 0 0 0 .133.022.3.3 0 0 0 .125-.066l1.788-1.47a.3.3 0 0 0 .087-.104q.028-.056.007-.14a1.2 1.2 0 0 0-.148-.305l.124-.102 1.583 1.924-.6.494-.108-.132a1.1 1.1 0 0 0 .158-.384q.054-.24-.018-.357a2 2 0 0 0-.096-.139 5 5 0 0 0-.138-.174l-.321-.391-.989.813.23.28q.111.136.188.177a.4.4 0 0 0 .175.04.6.6 0 0 0 .19-.047q.108-.042.19-.096l.108.132-.973.8-.108-.132q.078-.076.148-.184a.6.6 0 0 0 .082-.176.32.32 0 0 0-.012-.196 1 1 0 0 0-.13-.2l-.23-.281-.747.614a1 1 0 0 0-.164.161.2.2 0 0 0-.047.142.34.34 0 0 0 .059.16q.055.087.175.232l.125.153q.078.094.138.153.062.06.139.117a.3.3 0 0 0 .133.06q.15.01.394-.04.244-.053.345-.095zm46.855 8.87a1.4 1.4 0 0 1-1.105.085 1.6 1.6 0 0 1-.525-.31 1.9 1.9 0 0 1-.428-.556 2 2 0 0 1-.22-.672q-.043-.33.036-.629.078-.293.27-.532a1.5 1.5 0 0 1 .473-.387 1.46 1.46 0 0 1 .808-.173l.01-.179.161-.084.55 1.003-.163.086a3 3 0 0 0-.266-.27 1.4 1.4 0 0 0-.303-.215.8.8 0 0 0-.34-.093.67.67 0 0 0-.344.082.88.88 0 0 0-.471.683q-.03.222.035.508.066.284.228.593.142.273.331.463t.407.295q.218.103.443.107a.9.9 0 0 0 .443-.11.95.95 0 0 0 .436-.467 1.25 1.25 0 0 0 .067-.602l.187-.007q.05.512-.139.844-.189.33-.58.536ZM29.59 81.593l-.555-1.237.15-.067.078.14a.5.5 0 0 0 .084.12.2.2 0 0 0 .118.058.3.3 0 0 0 .147-.03l1.06-.476-.629-1.4-1.037.465a.3.3 0 0 0-.113.079.23.23 0 0 0-.046.136 1.1 1.1 0 0 0 .063.297l-.149.067-.555-1.237.15-.067.078.14a.5.5 0 0 0 .084.12.2.2 0 0 0 .118.058.3.3 0 0 0 .146-.03l2.15-.965a.3.3 0 0 0 .111-.082.2.2 0 0 0 .045-.134 1 1 0 0 0-.051-.31l.15-.067.554 1.237-.149.067a1 1 0 0 0-.083-.136 1 1 0 0 0-.088-.113.17.17 0 0 0-.128-.058.4.4 0 0 0-.139.034l-.924.414.629 1.401.903-.405a.3.3 0 0 0 .11-.083.2.2 0 0 0 .045-.133 1 1 0 0 0-.05-.31l.148-.067.555 1.237-.149.067a1 1 0 0 0-.083-.136 1 1 0 0 0-.088-.113.17.17 0 0 0-.127-.058.4.4 0 0 0-.14.034l-2.148.964a.3.3 0 0 0-.113.08.22.22 0 0 0-.045.135 1.1 1.1 0 0 0 .063.297zm2.559 2.439-.85.427-1.352-2.306.139-.082q.039.057.108.147.07.09.101.112a.2.2 0 0 0 .128.042.3.3 0 0 0 .133-.045l1.998-1.171a.3.3 0 0 0 .102-.089.2.2 0 0 0 .028-.137 1.2 1.2 0 0 0-.098-.324l.139-.082 1.26 2.15-.67.392-.085-.147a1.1 1.1 0 0 0 .216-.354q.092-.23.038-.355a2 2 0 0 0-.073-.152 5 5 0 0 0-.108-.195l-.256-.436-1.105.648.184.313q.089.15.158.203a.36.36 0 0 0 .166.067.6.6 0 0 0 .195-.016 1 1 0 0 0 .203-.065l.086.147-1.087.637-.086-.147a1 1 0 0 0 .175-.159.6.6 0 0 0 .11-.16.32.32 0 0 0 .018-.196 1 1 0 0 0-.097-.218l-.183-.313-.834.489a1 1 0 0 0-.188.133.2.2 0 0 0-.069.133.34.34 0 0 0 .034.167q.04.095.136.257l.1.17a1.3 1.3 0 0 0 .23.31.3.3 0 0 0 .122.08q.147.035.395.022a2 2 0 0 0 .356-.038zm2.848 1.543-.097-.14q.121-.14.203-.38t.021-.365a2 2 0 0 0-.083-.145 4 4 0 0 0-.12-.183l-.305-.444-1.064.732.21.304a.8.8 0 0 0 .175.195.4.4 0 0 0 .179.07q.066.01.175-.02a1 1 0 0 0 .213-.088l.098.142-1.04.715-.097-.142q.078-.062.16-.167a.6.6 0 0 0 .103-.174.34.34 0 0 0-.003-.205 1 1 0 0 0-.115-.222l-.209-.304-.912.628a.3.3 0 0 0-.094.1.2.2 0 0 0-.019.14 1 1 0 0 0 .051.143 1 1 0 0 0 .078.156l-.133.09-.79-1.147.133-.09.115.14a.5.5 0 0 0 .105.107.2.2 0 0 0 .128.031.3.3 0 0 0 .132-.053l1.91-1.315a.3.3 0 0 0 .095-.095q.034-.053.019-.14a1.2 1.2 0 0 0-.121-.316l.132-.09 1.429 2.076zm1.278 5.233-.99-1.063.117-.11.132.12q.085.08.131.102a.23.23 0 0 0 .134.025.26.26 0 0 0 .126-.073l1.71-1.593a.3.3 0 0 0 .08-.108q.022-.055-.015-.148a1.3 1.3 0 0 0-.175-.304l.118-.11.991 1.063-.118.11a1.4 1.4 0 0 0-.27-.21q-.08-.045-.145-.025a.3.3 0 0 0-.12.072l-1.707 1.59a.3.3 0 0 0-.075.115.23.23 0 0 0 .01.145 1 1 0 0 0 .077.141q.057.095.107.15zm6.014 1.307a1 1 0 0 0-.16-.1.6.6 0 0 0-.201-.073q-.093-.011-.222.095-.129.105-.283.285l-.913 1.067a.93.93 0 0 1-.823.34 1.2 1.2 0 0 1-.403-.112 1.6 1.6 0 0 1-.67-.603 1.2 1.2 0 0 1-.156-.405.83.83 0 0 1 .187-.691l1.241-1.452a.3.3 0 0 0 .067-.119.26.26 0 0 0-.016-.144.5.5 0 0 0-.078-.133 1 1 0 0 0-.095-.113l.105-.123 1.023.874-.105.123a1 1 0 0 0-.135-.088 1 1 0 0 0-.13-.067.17.17 0 0 0-.139.002.4.4 0 0 0-.11.089l-1.16 1.357a1.4 1.4 0 0 0-.155.225.66.66 0 0 0-.036.588.9.9 0 0 0 .266.332q.19.163.37.212a.7.7 0 0 0 .341.015.8.8 0 0 0 .268-.11 1 1 0 0 0 .204-.18l.861-1.008q.165-.192.241-.338.078-.145.056-.229a.6.6 0 0 0-.108-.209 1.4 1.4 0 0 0-.136-.165l.105-.122 1.004.858.727.514.064 3.009.871-1.235q.16-.228.217-.37.056-.141.03-.22a.8.8 0 0 0-.12-.187 1 1 0 0 0-.151-.16l.092-.13 1.056.744-.092.13a1 1 0 0 0-.178-.081.7.7 0 0 0-.191-.052q-.1 0-.213.114-.115.113-.256.313l-1.34 1.9-.16-.111-.075-3.234-.944 1.34q-.158.225-.216.365a.4.4 0 0 0-.034.233.5.5 0 0 0 .12.198q.108.128.15.16l-.092.13-1.065-.752.091-.13q.053.03.192.082a.6.6 0 0 0 .187.046.33.33 0 0 0 .198-.095 2.2 2.2 0 0 0 .277-.343l.902-1.278a.6.6 0 0 0 .089-.19.4.4 0 0 0 .013-.185.7.7 0 0 0-.105-.23.8.8 0 0 0-.148-.173h-.002Zm7.126 4.221a.64.64 0 0 0-.287-.05.4.4 0 0 0-.164.055q-.075.046-.16.117a196 196 0 0 0-2.16 1.939l-.167-.083a1064 1064 0 0 0 .303-2.944.4.4 0 0 0-.01-.142.5.5 0 0 0-.159-.254 1 1 0 0 0-.112-.082l.071-.144 1.184.587-.07.143a2 2 0 0 0-.27-.096q-.116-.03-.143.027a.6.6 0 0 0-.028.111l-.077.766-.155 1.508a72 72 0 0 0 1.404-1.272q.159-.15.204-.215a1 1 0 0 0 .068-.11.1.1 0 0 0-.003-.098.4.4 0 0 0-.083-.108 1 1 0 0 0-.12-.098 3 3 0 0 0-.132-.085l.072-.143 1.065.528zm4.985 5.008-.846-.24a19 19 0 0 0-.596-1.706l-.322-.091-.282.996a.4.4 0 0 0-.014.143q.007.065.079.119a1.6 1.6 0 0 0 .295.131l-.045.157-1.328-.376.045-.157.158.028q.105.018.149.011a.2.2 0 0 0 .12-.057.3.3 0 0 0 .07-.132l.643-2.271q.022-.078.016-.144t-.077-.12a1.4 1.4 0 0 0-.278-.141l.044-.157 1.45.41a1.7 1.7 0 0 1 .361.147q.165.09.28.221a.7.7 0 0 1 .153.294.7.7 0 0 1-.015.367.9.9 0 0 1-.147.306.7.7 0 0 1-.231.194 1 1 0 0 1-.286.097q-.16.03-.341.032.144.374.239.627.094.254.233.618.06.16.12.246t.127.147a.6.6 0 0 0 .131.085 1 1 0 0 0 .14.058zm-.501-2.672a.64.64 0 0 0-.036-.499q-.116-.213-.415-.297l-.376-.107-.382 1.347.29.082a.73.73 0 0 0 .564-.051q.26-.138.355-.475m3.006 1.637a.7.7 0 0 1 .102.271.9.9 0 0 1-.01.316.9.9 0 0 1-.437.633q-.36.213-.818.128a1.5 1.5 0 0 1-.41-.144 1.7 1.7 0 0 1-.336-.228l-.126.145-.178-.034.17-1.087.181.034q.018.211.063.386a1.3 1.3 0 0 0 .14.338.81.81 0 0 0 .576.405.8.8 0 0 0 .276.009.5.5 0 0 0 .207-.078.5.5 0 0 0 .138-.153.7.7 0 0 0 .036-.594.67.67 0 0 0-.272-.307q-.135-.085-.308-.19a5 5 0 0 1-.298-.193 1.1 1.1 0 0 1-.356-.392.84.84 0 0 1-.053-.536.8.8 0 0 1 .136-.323.9.9 0 0 1 .6-.363q.187-.031.379.003.218.04.379.14.158.099.285.214l.119-.134.178.033-.178 1.051-.18-.033a4 4 0 0 0-.045-.365 1.2 1.2 0 0 0-.104-.328.7.7 0 0 0-.195-.25.7.7 0 0 0-.324-.14.52.52 0 0 0-.386.07.44.44 0 0 0-.21.302.6.6 0 0 0 .032.357.7.7 0 0 0 .237.273q.147.11.294.195.146.086.28.178.124.083.233.179a1 1 0 0 1 .183.212m5.152-.183-.158-.011a1 1 0 0 0-.06-.201 2 2 0 0 0-.105-.222 1 1 0 0 0-.137-.195.3.3 0 0 0-.15-.101 2 2 0 0 0-.177-.027l-.199-.019-.132-.01-.184 2.596a.3.3 0 0 0 .022.141.2.2 0 0 0 .106.105q.039.018.169.056.129.036.202.044l-.011.162-1.532-.108.011-.163.198-.004a1 1 0 0 0 .183-.021.23.23 0 0 0 .118-.078.3.3 0 0 0 .046-.148l.185-2.615-.133-.01-.177-.008a2 2 0 0 0-.201 0 .28.28 0 0 0-.163.079q-.087.075-.163.174a1.5 1.5 0 0 0-.224.395l-.16-.011.063-.88 2.727.193 1.375.026-.003.161q-.232 0-.328.026t-.096.075q0 .014.012.048t.037.087q.028.06.068.137l.074.148q.104.204.211.408l.281.529q.368-.569.56-.887.195-.317.196-.382a.1.1 0 0 0-.037-.084.3.3 0 0 0-.102-.052.7.7 0 0 0-.142-.026q-.078-.007-.144-.016l.004-.161 1.12.021-.002.162a.6.6 0 0 0-.124.028.8.8 0 0 0-.243.136 1 1 0 0 0-.126.151 7 7 0 0 0-.337.501q-.154.254-.388.645a1.2 1.2 0 0 0-.115.232 1 1 0 0 0-.032.256l-.012.616a.3.3 0 0 0 .03.143q.032.06.11.098.048.02.17.047.122.03.198.033l-.003.161-1.51-.028.003-.162q.065-.003.192-.013a.8.8 0 0 0 .178-.029.22.22 0 0 0 .114-.092.3.3 0 0 0 .034-.145l.015-.784a.4.4 0 0 0-.042-.133 5 5 0 0 0-.102-.217 33 33 0 0 0-.57-1.106 1.3 1.3 0 0 0-.13-.198.45.45 0 0 0-.26-.173l-.047-.012-.05.712Zm6.915 1.502a1.5 1.5 0 0 0 .147-.484 2.7 2.7 0 0 0 .009-.59 2.7 2.7 0 0 0-.115-.605 1.5 1.5 0 0 0-.23-.458.86.86 0 0 0-.781-.348.83.83 0 0 0-.454.164 1 1 0 0 0-.285.361q-.097.21-.13.483a3 3 0 0 0-.01.57 2.7 2.7 0 0 0 .11.586q.08.26.225.454a.9.9 0 0 0 .336.287q.196.097.456.076a.87.87 0 0 0 .722-.496M31.09 51.367c-.06-.552-.08-1.1-.383-1.611-.04-.07-.065-.108-.082-.185l-.119-.56c-.124-.707-.347-1.335-.556-1.973-.2-.672-.573-.88-.892-1.22-.347-.66-.766-1.242-.913-2.088.003-.193.3-.487.45-.554.706.188 1.181.533 1.616.95.089.086.459.16.562.227a8.6 8.6 0 0 1 1.805-.604c.239-.055.479-.153.746-.2.69-.696 1.695-1.922 2.086-1.838q.5.08.419.792c-.22.569-.52 1.216-.918 1.756-.13.177-.168.185-.387.25-.564.165-1.124.352-1.668.593l-.17.07-.144-.047-.179.035-.137.12-.314.023c-.832-.017-1.245.283-1.152.965l.006.449c.002.127.14.227.207.346l.135.27-.008.207.16.248.11.406-.038.211c.075.168.135.327.14.45l.032.613c.068.198.115.411.183.614l.053.082a.18.18 0 0 1 .041.128l-.005.127c-.003.073.054.097.112.135.05.032.05.041.056.095l.023.197.03.18-.145.232-.13.15-.109.082-.143.028-.1-.018c-.155-.018-.263.031-.28-.133m1.517-4.263-.187.132-.339-.126-.13-.275-.052-.195-.051-.14.045-.09.02-.182.046-.09c.127-.27.267-.49.404-.72l.229.023.224.162.147.135.035.13.094.146.006.176.038.143-.025.114-.045.09-.068.11-.061.134.052.195.035.13.042.155-.086.044-.144-.122zm.299.857.168-.046.5-.67.078-.179.023-.223.042-.104.075-.137.235-.209.201-.025.243.076.24.063.223.161.307.214.065.138.187.182.112.156.074.122.029.158a1.5 1.5 0 0 1-.403.57l-.074-.068-.096.21.077.135.009.135-.061.135-.118.077c-.38.123-.845.113-1.35.042l-.253-.115-.258-.236-.09-.024-.089-.283zm1.05-.23.014-.098.046-.091.071-.096.065-.067.102-.033.19.086.094.091-.018.14.035.13.011.093-.068.109-.047-.073-.062.08-.092.018-.144-.068-.116-.073zm8.679-9.08-.168-.179-.173-.223-.179-.268-.18-.205-.281-.335-.14-.314-.134-.332.014-.331.015-.099-.089-.165.066-.182-.07-.157.052-.083-.087-.227-.014-.196-.118-.2-.1-.19-.07-.158-.13-.225-.167-.242-.167-.242-.108-.11.033-.091-.21-.24-.142-.252-.093-.21-.087-.227s-.089-.923-.017-1.06c.07-.138.51-.409.51-.409l.017-.224c.188-.264.38-.444.584-.438l.168-.053.213.114.203.258.087.228-.028.135.007.214.19.294.192.231.081.184.004.107.197.275.196.276.027.16.628.78.014.196.165.305.205.195.255.112c.167.036.31.177.4.304.235.331.287.891 0 .819l-.238-.105-.238-.104-.306-.092-.121-.075.012-.268-.148-.234-.125-.18-.218-.16-.216.01-.205.037-.112.077-.066.182-.032.26.06.3.008.214.105.236.313.306.027.159.044.23.045.167.022.115.222.266-.01.143.071.095-.14.212-.033.09-.047.128-.016.16.024.285-.078.156zm.76-5.453-.274-.013-.094-.041-.169-.136-.129-.242c-.012-.404.039-.754.174-1.034l.155-.426.222-.396c.164-.21.348-.333.535-.444l.35-.109.328-.136c.391-.095.438.225.434.563l.076.388.053.41.047.298.035.246-.13.36-.004.307-.084.318-.107.292.025.273q.34.644.9.519l.371-.254.502-.397c.207-.155.395-.356.602-.512l.326-.284.148-.15c.018-.108.011-.202-.05-.265l-.051-.228-.311-.383-.106-.093-.136-.013-.062-.043-.144-.202.037-.184.144-.014.237.12.102.06.177.154.147.065.173.122.188.083.21.061c.319-.015.521.242.484.552l.027.181-.193.317-.122.208-.142.262-.126.176-.319.277-.177.06-.17.081-.26.117-.13.144-.163.02-.19.056-.19.133-.17.126-.26.163-.216.121-.188.134-.166.112-.243-.014-.216-.048-.187-.083-.143-.078-.172-.168-.216-.218-.117-.19-.1-.152-.177-.155-.1-.152-.058-.226-.059-.18-.129-.072-.12-.099-.138-.045Zm-.032-1.62.108.218.096.12.13.026.175.076.096-.05.139.045.165-.112.114-.058.052-.1-.081-.16-.105-.139-.102-.106-.165-.057-.155.04-.127.052-.142.046-.132.065zm.21 1.05.202-.174.134.059.186.053.078.076.202.044.11.126.024.103-.039.106-.042.074-.126-.04-.102-.06-.091.037-.12-.053-.058-.056-.099-.028-.093-.087zm-1.698 1.34-.119.012-.032.088.045.122.117.064.091-.075.058.089.11.048.082-.053.125-.06.054-.115.051-.105-.005-.091-.116-.102-.094.047-.121-.053-.102.07zm-.798-1.645-.181.089-.065.119-.053.145.02.178.077.139.022.114.2.151.133.1.214.053.118-.033.123.012.103-.165.04-.11-.027-.158-.04-.123-.15-.172-.072-.094-.09-.103-.121-.074-.117-.03zM56.4 26.768l.285-.197.18-.088.23-.15.18-.088.225-.073.239-.123.167-.084.288-.094.072-.082c.568-.17 1.072-.315 1.634-.355.21-.015.377.221.306.553l-.028.277-.054.329-.105.108-.21.128-.097.136-.164.142-.068.186-.081.19-.053.194-.086.266-.177.236-.138.045-.114.126-.238.078-.121.099-.131.161-.047.12-.118.112.031.198.002.192.158-.022.313-.057.271-.059.197-.079.2-.065.205-.141.13-.072.276-.09.2-.065.175-.058.138-.044.158-.023c.551-.01 1.24.009 1.236.74l-.16.157-.134.058-.25.082-.2.02-.196.035-.154-.01-.233.002-.141-.013-.27-.076-.183-.014-.178-.001-.246.006-.063.02-.166-.005-.283.063-.171.026-.137-.045-.051.106-.23.06-.095.002-.296.066-.242.064-.176.058-.1.032-.038.102-.22-.003-.118.068-.151.139-.2.065c-.01.179-.102.347-.377.494l-.167.084-.15.049-.167.04-.191.003-.216-.034-.142-.013-.149-.04-.15-.041-.106-.129-.035-.166-.04-.225.11-.184.115-.126.284-.108.162-.053.226-.073.125-.041.209-.038.175-.058.113-.036.28-.077.191-.047.13-.117.135-.103.093-.194.014-.138.035-.16.073-.128.084-.131.098-.136.006-.165.067-.096.035-.115-.128-.063-.092-.03-.082-.046-.1-.012-.104.019-.187-.029-.187-.028-.149-.085-.103-.07-.102-.115-.032-.108-.015-.144-.036-.122.013-.093.006-.165-.011-.086zm14.455.312.048-.141.077-.17.124-.093.102-.177-.108-.08.017-.095.01-.134.093-.164.032-.146.248-.187a.6.6 0 0 1 .515.05l.213-.14.068-.41.016-.311q.454-.705.796-.659.414-.085.797.132l.092.212-.011.351.05.118.016.222.167.1.107-.099.26-.221.294-.268c.32-.353.708-.367.807-.302.127.085.192.422.082.956l.1.093.24.103.262.059c.072.144.12.286.093.381-.045.16-.224.369-.547.273l-.618-.067q-.439.235-.113.591l.334.042.183.107.196.07.22.002.211.077c.144.157-.08.7-.334.696l-.203-.042-.139.028-.903-.091c-.062.312.037.668-.275.65-.619-.038-1.119.429-.844.998-.043.452-.236.65-.594.826-.077.038-.127.154-.215.191-.072.03-.201.304-.268.35-.269 1.135.2 1.958-.73 1.768a.42.42 0 0 1-.281-.152l-.369-.38-.155-.294-.18-.065-.309-.113c-.081-.053-.157-.182-.22-.475l.125-.31.254-.204c.31-.012.565.05.596.236l-.094.047-.05.158-.042.281.165.16.26.152.201.035.115-.156.132-.17c.085-.193.003-.328.005-.492l-.257-.054-.128-.106q-.172-.2.006-.35l.332-.258q.15-.192.176-.667l-.115-.2-.043-.193-.122-.124-.137-.188.024-.228.067-.193.152-.123.126-.152.205-.063.252.013c.039.064.142.06.162.122.13.404.122.625.665.297l.177-.034.372-.122.235-.151.232-.034.173-.076.01-.135-.18-.065-.152-.036-.122.035-.195-.071-.163-.06-.226.017-.13-.047-.138.029-.128.052-.826-.103-.87-.139-.223.117-.287.034-.12.046c-.054.003-.109.047-.161.01l-.158-.058-.246-.03-.278.115a.2.2 0 0 1-.157.062l-.19-.069-.105.04c-1.197.232-1.536.226-1.343-.137.08-.15.48-.283.87-.319.235-.021.367-.044.612.053l.21-.023.242-.01.258-.005.252.013.161-.04.108-.1Zm2.852 4.001-.125-.022-.081.043-.063.084-.088-.032-.184-.043-.099-.035-.09.038-.04.117-.028.11-.03.12-.02.124-.01.092-.026.075-.074.02.06.178.137.181.149.114.148.019.078-.032.11-.032.048-.042.084-.053.08-.007.064-.12.103-.106.041-.057.044-.127-.002-.12.033-.097-.07-.12-.085-.103-.01-.1zm-2.446-4.08.136-.066.177-.029.11-.052.307.024-.042.263-.18-.005-.219-.001-.132.011-.123-.034-.034-.11Zm2.05-.45-.03-.13.049-.14.083-.187.108-.1.134-.07.142.013.13.047.057.1-.036.106-.048.14-.094.006-.046.081-.049.14-.138.105-.14.012-.123-.124Zm10.376 5.319.647.235.28.03.167.125.328-.05.328-.05.255-.26a4.4 4.4 0 0 1 1.104-.694c.294-.13.523-.141.603.263.056.29-.087.663-.385 1.239q-.005.216.178.308c.166.126.35.219.292.43-.06.224-.298.547-1.018.526l-.424-.092c-.144-.086-.259-.072-.37-.004-.17.103-.192.261-.24.438.151.977.41 1.83.699 2.716.078.2.195.372.326.53.058.07.116.095.196.135.18.09.29.16.31.312.022.175-.095.264-.212.273a.56.56 0 0 1-.304-.047 10 10 0 0 1-.856-.45l-.163-.2-.218-.375-.056-.222-.168-.62-.012-.393-.07-.284-.03-.216-.029-.217-.012-.392-.076-.256-.119-.205-.32-.144-.1.16-.148.072-1.219.444-.429.163-.343.107-.43-.002-.182-.07-.301-.274-.067-.404c.2-.254.201-.271.46-.111l.15-.028.182.07.176-.068.155.063.168-.04.086-.056.126.012.215.001.15-.028.173-.113.22-.072.175-.068c.241-.142.32-.343.104-.562l-.445-.275-.182-.234.034-.187.04-.262.052-.198.14-.21.111-.096zm12.61 12.036c.084-.1.097-.205.341-.287l.501-.37.13-.026.108-.029.212-.139.162.018.123.013.122.013.088.09.197-.06.118.154.088.09.033.165-.031.178-.083.233-.119.088-.177.062-.15.145-.052.176q.244.32.48-.01l.149-.024.122.013.153-.044.204.022.088.09.25.228.06.248.006.203-.028.158-.025.139.102.131.159.038c.245.219.835.047 1.15.011.484.08.499.5.154.833l-.174.042-.058.095-.13.147-.038.218-.416.238c-.542.07-.461-.206-1.065-.315l-.272.132-.028.158-.14.086-.133.168-.11.15.003.221.145.237-.045.258.016.264c-.433.548-.889.742-1.397.153l-.028-.18-.154-.202-.115-.174-.125-.114-.08-.25c.056-.511.494-.007.547.078l.19.101.15-.145-.003-.222c-.1-.613-.404-1.082-1.04-1.16l-.304.19-.199.303-.395.256-.204.203-.066.255-.042.237-.024.139.06.127-.096.312.026.205.074.259a.74.74 0 0 1-.44.548c-.442.221-.487.029-.642-.216-.244-.177-.595-.36-.949-.326-.265-.061-.516-.206-.763-.374l-.235-.315c-.105-.192-.292-.358-.331-.625-.024-.166.083-.326.192-.47.265-.364.477-.43.573.161-.013.17-.023.33.152.49l.08.2c.289.224.52.29.62.006.076-.478-.127-.86-.408-1.213-.152-.124-.222-.218-.1-.313.103-.117.315-.082.526.137l.253.33q.226.185.523-.026l.467-.293.21-.018.18-.081.022-.119-.05-.187.031-.178.11-.15.159.038c.166.004.21-.126.171-.265l-.257-.188-.163-.018-.173-.078-.132-.196-.132-.075-.227-.125-.135-.054-.187-.121-.217-.063-.08-.13-.204-.022-.098-.151c-.221.015-.245-.015-.366-.146-.25-.272-.503-.59-.455-.728q-.118-.306.587-.224c.263.03.369.322.524.514l.198.172.114.173.177.06.162.138.186.12.214.084.155.178.214.083.252-.135.204-.099.15-.145.157-.185.106-.13zm.902 1.323-.194-.32-.13.033-.089.01-.183-.002-.117.175.032.088-.044.089-.025.137-.066.05.036.069-.016.092.116.162.075.064.128-.07.117-.063.073-.086.067.054.072-.02.091-.084.026-.091.082-.085-.02-.105zm.707.253.071-.02.101-.027.085.01.066.006.088.047.08.093.04.107v.112l-.02.11-.09.131-.028.044-.112.091-.059.06-.075-.009-.089.01-.061-.035-.06-.147-.1-.095-.039-.05.02-.064.019-.101.022-.129.05-.06.09-.084Z" fill="#1b1918"/><path fill-rule="evenodd" clip-rule="evenodd" d="M64 32.454c15.423 0 28.263 11.075 31.004 25.703H94.7C91.963 43.694 79.258 32.752 64 32.752S36.037 43.694 33.3 58.157h-.303C35.738 43.53 48.577 32.454 64 32.454m29.391 43.022c-4.591 11.746-16.02 20.07-29.39 20.07s-24.8-8.324-29.392-20.07h.32C39.504 87.054 50.797 95.247 64 95.247s24.496-8.193 29.072-19.771z" fill="#ae1623"/><path fill-rule="evenodd" clip-rule="evenodd" d="M92.686 59.513h-1.53v1.061h1.53zm-1.857 1.576h15.914v10.733H90.829v2.274h14.71v.33H22.77v-.33h14.371v-2.274H21.233V61.089H37.14v-2.51H21.965v-.72h15.176l-.038-3.866h-.476v-.94h16.097v-1.009h5.18v1.008h12.182v-1.008h5.18v1.008h16.076v.94h-.513v3.867h15.388v.72H90.829zm-55.6 8.789h1.53v1.06h-1.53zm-2.678 0h1.529v1.06h-1.53zm-2.679 0h1.53v1.06h-1.53zm-2.678 0h1.529v1.06h-1.53zm-2.679 0h1.53v1.06h-1.53zm-2.678 0h1.529v1.06h-1.53zm13.392-2.591h1.53v1.06h-1.53zm-2.678 0h1.529v1.06h-1.53zm-2.679 0h1.53v1.06h-1.53zm-2.678 0h1.529v1.06h-1.53zm-2.679 0h1.53v1.06h-1.53zm-2.678 0h1.529v1.06h-1.53zm13.392-2.591h1.53v1.06h-1.53zm-2.678 0h1.529v1.06h-1.53zm-2.679 0h1.53v1.06h-1.53zm-2.678 0h1.529v1.06h-1.53zm-2.679 0h1.53v1.06h-1.53zm-2.678 0h1.529v1.06h-1.53zm13.392-2.591h1.53v1.06h-1.53zm-2.678 0h1.529v1.06h-1.53zm-2.679 0h1.53v1.06h-1.53zm-2.678 0h1.529v1.06h-1.53zm-2.679 0h1.53v1.06h-1.53zm-2.678 0h1.529v1.06h-1.53zm15.635-5.495h15.626v-2.617H37.434zm15.958 0h3.768v-2.617H53.43zm4.1 0h12.93v-2.617H57.53zm13.262 0h3.768v-2.617h-3.768zm4.1 0h15.605v-2.617H74.891zm15.605 12.203H74.891v5.283h15.606zm-15.937 0h-3.772v5.283h3.772zm-4.304 0h-3.82v5.283h.496v-1.99h2.713v1.99h.611zm-4.353 0h-3.82v5.283h.581v-1.99h2.714v1.99h.525zm-4.352 0h-3.82v5.283h.666v-1.99h2.713v1.99h.44zm-4.353 0H53.43v5.283h3.768zm-4.1 0H37.472v5.283h15.626zm23.624.818h-1.53v1.308h1.53V69.63ZM22.77 75.846V75.3h82.768v.547zm12.458-3.377h1.53v1.06h-1.53zm-2.678 0h1.529v1.06h-1.53v-1.06Zm-2.679 0h1.53v1.06h-1.53zm-2.678 0h1.529v1.06h-1.53v-1.06Zm-2.679 0h1.53v1.06h-1.53zm-2.678 0h1.529v1.06h-1.53v-1.06Zm51.603-.363H71.91v1.307h1.53v-1.307Zm-17.362 0H54.55v1.307h1.53v-1.307Zm-3.23 0H51.32v1.307h1.53v-1.307Zm-2.678 0h-1.53v1.307h1.53zm-2.678 0h-1.53v1.307h1.53zm-2.679 0h-1.529v1.307h1.53v-1.307Zm-2.678 0h-1.53v1.307h1.53zm-2.679 0h-1.529v1.307h1.53v-1.307Zm37.266 0h-1.53v1.307h1.53zm2.678 0h-1.53v1.307h1.53zm2.679 0h-1.53v1.307h1.53zm2.678 0h-1.53v1.307h1.53zm2.679 0h-1.53v1.307h1.53zm2.678 0h-1.53v1.307h1.53zm2.572.363h-1.53v1.06h1.53zm2.678 0h-1.53v1.06h1.53zm2.679 0h-1.53v1.06h1.53zm2.678 0h-1.53v1.06h1.53zm2.679 0h-1.53v1.06h1.53zm2.678 0h-1.529v1.06h1.529zM39.456 69.63h-1.529v1.308h1.53V69.63Zm2.679 0h-1.53v1.308h1.53zm2.678 0h-1.529v1.308h1.53V69.63Zm2.679 0h-1.53v1.308h1.53zm2.678 0h-1.53v1.308h1.53zm2.679 0h-1.53v1.308h1.53zm3.23 0h-1.53v1.308h1.53zm2.318 0h2.713v1.238h-2.713zm4.267 0h2.714v1.238h-2.714zm4.268 0h2.713v1.238h-2.713zm12.468 0h-1.53v1.308h1.53zm2.679 0h-1.53v1.308h1.53zm2.678 0h-1.53v1.308h1.53zm2.679 0h-1.53v1.308h1.53zm2.678 0h-1.53v1.308h1.53zm-16.674 0h-1.529v1.308h1.53V69.63ZM35.23 59.513h1.53v1.061h-1.53zm-2.678 0h1.529v1.061h-1.53zm-2.679 0h1.53v1.061h-1.53zm-2.678 0h1.529v1.061h-1.53v-1.06Zm-2.679 0h1.53v1.061h-1.53zm-2.678 0h1.529v1.061h-1.53v-1.06Zm53.108-6.46v-.689h-4.538v.688zm-17.362 0v-.689h-4.539v.688zm15.857 1.802h-1.529v1.061h1.53v-1.06Zm3.306 0h-1.53v1.061h1.53zm2.664 0h-1.53v1.061h1.53zm2.664 0h-1.53v1.061h1.53zm2.664 0h-1.53v1.061h1.53zm2.664 0h-1.53v1.061h1.53zm2.663 0h-1.529v1.061h1.53v-1.06Zm-23.133 0h2.713v1.061h-2.713zm-4.268 0h2.714v1.061h-2.714zm-4.267 0h2.713v1.061h-2.713zm-3.848 0h1.53v1.061h-1.53zm-3.305 0h1.53v1.061h-1.53zm-2.664 0h1.53v1.061h-1.53zm-2.664 0h1.53v1.061h-1.53zm-2.664 0h1.53v1.061h-1.53zm-2.664 0h1.53v1.061h-1.53zm-2.664 0h1.53v1.061h-1.53zm57.44 4.658h-1.53v1.061h1.53zm2.679 0h-1.53v1.061h1.53zm2.678 0h-1.53v1.061h1.53zm2.679 0h-1.53v1.061h1.53zm2.678 0h-1.529v1.061h1.529zm-68.154 6.988h1.53v1.06h-1.53zm2.664 0h1.53v1.06h-1.53zm2.664 0h1.53v1.06h-1.53zm2.664 0h1.53v1.06h-1.53zm2.664 0h1.53v1.06h-1.53zm2.664 0h1.53v1.06h-1.53zm3.305 0h1.53v1.06h-1.53zm3.848 0h2.713v1.06h-2.713zm4.267 0h2.714v1.06h-2.714zm4.268 0h2.713v1.06h-2.713zm23.133 0h-1.529v1.06h1.53v-1.06Zm-2.663 0h-1.53v1.06h1.53zm-2.664 0h-1.53v1.06h1.53zm-2.664 0h-1.53v1.06h1.53zm-2.664 0h-1.53v1.06h1.53zm-2.664 0h-1.53v1.06h1.53zm-3.306 0h-1.529v1.06h1.53v-1.06Zm0-2.863h-1.529v1.06h1.53v-1.06Zm3.306 0h-1.53v1.06h1.53zm2.664 0h-1.53v1.06h1.53zm2.664 0h-1.53v1.06h1.53zm2.664 0h-1.53v1.06h1.53zm2.664 0h-1.53v1.06h1.53zm2.663 0h-1.529v1.06h1.53v-1.06Zm-23.133 0h2.713v1.06h-2.713zm-4.268 0h2.714v1.06h-2.714zm-4.267 0h2.713v1.06h-2.713zm-3.848 0h1.53v1.06h-1.53zm-3.305 0h1.53v1.06h-1.53zm-2.664 0h1.53v1.06h-1.53zm-2.664 0h1.53v1.06h-1.53zm-2.664 0h1.53v1.06h-1.53zm-2.664 0h1.53v1.06h-1.53zm-2.664 0h1.53v1.06h-1.53zm0-2.863h1.53v1.06h-1.53zm2.664 0h1.53v1.06h-1.53zm2.664 0h1.53v1.06h-1.53zm2.664 0h1.53v1.06h-1.53zm2.664 0h1.53v1.06h-1.53zm2.664 0h1.53v1.06h-1.53zm3.305 0h1.53v1.06h-1.53zm3.848 0h2.713v1.06h-2.713zm4.267 0h2.714v1.06h-2.714zm4.268 0h2.713v1.06h-2.713zm23.133 0h-1.529v1.06h1.53v-1.06Zm-2.663 0h-1.53v1.06h1.53zm-2.664 0h-1.53v1.06h1.53zm-2.664 0h-1.53v1.06h1.53zm-2.664 0h-1.53v1.06h1.53zm-2.664 0h-1.53v1.06h1.53zm-3.306 0h-1.529v1.06h1.53v-1.06Zm-35.516-2.863h1.53v1.06h-1.53zm2.664 0h1.53v1.06h-1.53zm2.664 0h1.53v1.06h-1.53zm2.664 0h1.53v1.06h-1.53zm2.664 0h1.53v1.06h-1.53zm2.664 0h1.53v1.06h-1.53zm3.305 0h1.53v1.06h-1.53zm3.848 0h2.713v1.06h-2.713zm4.267 0h2.714v1.06h-2.714zm4.268 0h2.713v1.06h-2.713zm23.133 0h-1.529v1.06h1.53v-1.06Zm-2.663 0h-1.53v1.06h1.53zm-2.664 0h-1.53v1.06h1.53zm-2.664 0h-1.53v1.06h1.53zm-2.664 0h-1.53v1.06h1.53zm-2.664 0h-1.53v1.06h1.53zm-3.306 0h-1.529v1.06h1.53v-1.06Zm19.246 11.966h-1.53v1.06h1.53zm2.678 0h-1.53v1.06h1.53zm2.679 0h-1.53v1.06h1.53zm2.678 0h-1.53v1.06h1.53zm2.679 0h-1.53v1.06h1.53zm2.678 0h-1.529v1.06h1.529zm-13.392-2.591h-1.53v1.06h1.53zm2.678 0h-1.53v1.06h1.53zm2.679 0h-1.53v1.06h1.53zm2.678 0h-1.53v1.06h1.53zm2.679 0h-1.53v1.06h1.53zm2.678 0h-1.529v1.06h1.529zm-13.392-2.591h-1.53v1.06h1.53zm2.678 0h-1.53v1.06h1.53zm2.679 0h-1.53v1.06h1.53zm2.678 0h-1.53v1.06h1.53zm2.679 0h-1.53v1.06h1.53zm2.678 0h-1.529v1.06h1.529zm-13.392-2.591h-1.53v1.06h1.53zm2.678 0h-1.53v1.06h1.53zm2.679 0h-1.53v1.06h1.53zm2.678 0h-1.53v1.06h1.53zm2.679 0h-1.53v1.06h1.53zm2.678 0h-1.529v1.06h1.529z" fill="#ae1623"/><path fill-rule="evenodd" clip-rule="evenodd" d="M64 20c24.296 0 44 19.703 44 44 0 24.296-19.704 44-44 44-24.297 0-44-19.704-44-44 0-24.297 19.703-44 44-44m0 1.962c23.213 0 42.038 18.825 42.038 42.038S87.213 106.038 64 106.038 21.962 87.213 21.962 64 40.787 21.962 64 21.962" fill="#ae1623"/><path fill-rule="evenodd" clip-rule="evenodd" d="M57.848 80.914H54.67v-.332h3.178zm1.67 1.658h-.642v-2.758h-.836v-.248q.502-.001.78-.145a.7.7 0 0 0 .363-.435h.334zm3.34-1.824q0 .85-.405 1.358-.404.508-1.157.508-.529 0-.849-.29-.32-.291-.32-.642h.64q0 .208.153.373.154.165.405.165a.68.68 0 0 0 .627-.352q.209-.353.265-1.037a.93.93 0 0 1-.39.352 1.24 1.24 0 0 1-.558.124q-.53 0-.864-.29-.335-.29-.335-.83 0-.538.334-.87.335-.331 1.004-.331.67 0 1.06.414.39.415.39 1.348m-.697-.477q0-.456-.21-.684-.208-.228-.57-.228a.64.64 0 0 0-.446.176q-.195.176-.195.653 0 .353.153.549.152.198.488.197.362 0 .57-.186a.61.61 0 0 0 .21-.477m4.13 1.389h-.585v.912h-.64v-.912h-1.868v-.394l1.867-2.28h.641v2.28h.585zm-1.226-.394v-1.534l-1.255 1.534zm4.327.021q0 .623-.405.974-.403.353-1.072.353-.587 0-.962-.29a1.02 1.02 0 0 1-.405-.788h.641q0 .311.195.498.195.186.558.186.362 0 .57-.228.21-.228.21-.705 0-.415-.18-.612a.63.63 0 0 0-.488-.197 1 1 0 0 0-.432.083 1 1 0 0 0-.348.29h-.558l.168-1.824h2.396v.394h-1.866l-.113.953q.167-.124.363-.186t.529-.062q.528 0 .865.3.333.302.334.861m3.888-.373h-3.178v-.332h3.178z" fill="#ae1623"/></svg>