<svg xmlns="http://www.w3.org/2000/svg" viewBox="0 0 128 42.9"><path d="M41.2 29.2v-2.7h.4v1.2h1.1v-1.2h.4v2.7h-.4V28h-1.1v1.2zm3-.9h1l-.5-1.3zm-.8.9 1.1-2.7h.4l1.1 2.7h-.4l-.3-.7h-1.2l-.3.7zm3.3-1.4h.2c.2 0 .4 0 .5-.1.1 0 .2-.2.2-.4s0-.3-.1-.3h-.8v.9Zm-.4 1.4v-2.7h1.3c.3.1.4.3.4.6s0 .3-.1.5c0 .1-.2.2-.5.3l.9 1.2h-.5L47 28h-.4v1.1h-.4Zm2.9-.3h1c.1 0 .2-.2.2-.3s0-.3-.2-.4c-.2 0-.4-.2-.7-.2h-.2v.9Zm0-1.2h.1c.6 0 .8-.2.8-.5s0-.3-.2-.3h-.8v.8Zm-.5 1.5v-2.7h.9q.9 0 .9.6c0 .2 0 .3-.2.4-.1.1-.3.2-.5.2.5.1.7.3.7.7s0 .4-.2.5c0 0-.2.1-.3.2h-1.4Zm2.5 0v-.3h.7v-2.1h-.7v-.3H53v.3h-.7v2.1h.7v.3zm2.4 0v-2.7h.4l1.2 1.9v-1.9h.3v2.7h-.4l-1.2-2v2zm4.6 0v-.3h.7v-2.1h-.7v-.3H60v.3h-.7v2.1h.7v.3zm2.4 0v-2.7h.4l1.2 1.9v-1.9h.3v2.7h-.4l-1.2-2v2zm4.3-2.6v.4c-.3-.1-.5-.2-.8-.2-.4 0-.6.1-.6.4s0 .2.1.2l.4.2h.3l.2.2c.4.1.6.4.6.7 0 .2-.1.5-.3.6s-.5.2-.8.2-.5 0-.9-.1v-.4c.4.2.7.2.9.2s.4 0 .5-.1c.1 0 .2-.2.2-.3 0 0 0-.2-.1-.2l-.4-.2h-.3c-.3-.2-.5-.3-.6-.4s-.2-.3-.2-.4c0-.2 0-.4.2-.6.2-.1.4-.2.7-.2s.5 0 .8.1Zm1.4 2.6v-2.4h-1v-.3h2.5v.3h-1v2.4h-.4Zm1.8 0v-.3h.7v-2.1h-.7v-.3h1.8v.3h-.7v2.1h.7v.3zm3.2 0v-2.4h-1v-.3h2.5v.3h-1v2.4h-.4Zm1.7-2.6h.4v1.6c0 .3 0 .5.1.6 0 .1.2.2.4.2s.4 0 .5-.2c0-.1.1-.3.1-.6v-1.6h.4v1.6c0 .3 0 .6-.1.7-.2.3-.4.5-.8.5s-.6 0-.7-.3c-.2-.2-.2-.5-.2-.8v-1.6Zm3.3 2.6v-2.4h-1v-.3h2.5v.3h-1v2.4h-.4Zm1.8 0v-2.7h1.8v.3h-1.4v.8h1.2v.3h-1.2v.9H80v.3h-1.9Zm4.6-1.3c0 .3 0 .6.2.8.1.2.3.3.5.3s.4 0 .5-.3c.1-.2.2-.5.2-.8s0-.6-.2-.8c-.1-.2-.3-.3-.5-.3s-.4.1-.5.3-.2.5-.2.8m-.4 0c0-.4.1-.8.3-1 .2-.3.5-.4.8-.4s.6.1.8.4.3.6.3 1-.1.8-.3 1c-.2.3-.5.4-.8.4s-.6-.1-.8-.4-.3-.6-.3-1m2.8 1.3v-2.7H87v.3h-1.5v.9h1.3v.3h-1.3v1.1h-.4Zm5.1 0v-2.4h-1v-.3h2.5v.3h-1v2.4h-.4Zm1.9 0v-2.7h1.8v.3h-1.4v.8h1.2v.3h-1.2v.9H94v.3h-1.9Zm4.4 0c-.2 0-.5.1-.8.1-.4 0-.8-.1-1-.4-.3-.3-.4-.6-.4-1s.1-.8.4-1c.3-.3.6-.4 1-.4s.5 0 .8.1v.4c-.2-.1-.5-.2-.8-.2s-.5.1-.7.3-.3.5-.3.8.1.6.3.8.5.3.8.3.4 0 .7-.2v.3Zm.4 0v-2.7h.4v1.2h1.1v-1.2h.4v2.7h-.4V28h-1.1v1.2zm2.5 0v-2.7h.4l1.2 1.9v-1.9h.3v2.7h-.4l-1.2-2v2zm2.7-1.3c0 .3 0 .6.2.8.1.2.3.3.5.3s.4-.1.5-.3.2-.5.2-.8 0-.6-.2-.8c-.1-.2-.3-.3-.5-.3s-.4.1-.5.3-.2.5-.2.8m-.4 0c0-.4.1-.8.3-1 .2-.3.5-.4.8-.4s.6.1.8.4.3.6.3 1-.1.8-.3 1c-.2.3-.5.4-.8.4s-.6-.1-.8-.4-.3-.6-.3-1m2.8 1.3v-2.7h.4v2.4h1.4v.3zm2.6-1.3c0 .3 0 .6.2.8.1.2.3.3.5.3s.4-.1.5-.3.2-.5.2-.8 0-.6-.2-.8c-.1-.2-.3-.3-.5-.3s-.4.1-.5.3-.2.5-.2.8m-.5 0c0-.4.1-.8.3-1 .2-.3.5-.4.8-.4s.6.1.8.4.3.6.3 1-.1.8-.3 1c-.2.3-.5.4-.8.4s-.6-.1-.8-.4-.3-.6-.3-1m4.7-1.3v.4c-.2-.1-.5-.2-.8-.2s-.5.1-.7.3-.3.5-.3.8.1.6.3.8.5.3.8.3h.3v-.7h-.5V28h.9v1.2c-.3 0-.5.1-.8.1-.4 0-.8-.1-1-.4-.3-.3-.4-.6-.4-1s.1-.8.4-1c.3-.3.6-.4 1-.4s.5 0 .8.1m1.2 2.6v-1.1l-1-1.6h.5l.8 1.2.8-1.2h.4l-1.1 1.6v1.1zM58.1 21s.2.1.2.2c0 0-.1.2-.2.2 0 0-.2-.1-.2-.2s0-.2.2-.2m.1-1.6.2.1s-.1.1-.2.1c0 0 0-.1.1-.2Zm.3-2.2s.1-.2.1-.3c0 0 0-.2.1-.3h.9c.1 0 .2.2.1.3-.1.2-.3.4-.5.5s-.3.2-.5.3h-.2s0-.1-.2-.2c0-.1.1-.2.2-.4Zm1.3.9v.5h-.2c0-.1-.2-.2-.3-.3v-.2c.1 0 .2-.2.3-.3.1 0 .3 0 .3.3Zm-.2 1.5h-.1s-.2-.2-.2-.3c0 0 .1-.3.2-.3 0 0 .2 0 .2.1v.2c0 .1 0 .2-.1.3m0 1.6h-.1v-.8h.1s0 .2.1.2v.7Zm-1.2-2.5c.1-.1.3-.2.4 0v.1c0 .1-.2.2-.3.2s-.2 0-.2-.1v-.2Zm.5 1.7c0 .1-.2.2-.2.2-.2 0-.4 0-.6-.1v-.1h.1c.2 0 .3 0 .4-.1h.2s.1.2 0 .3Zm-1.6-.5h-.1v-.2s0-.1.1-.1h.2v.3Zm-.2.7-.2-.2s.1-.2.2-.2c0 0 .2 0 .2.2s-.1.2-.2.2m-.4.6s-.1.2-.3.2h-.3v-.1c.1 0 .2-.1.4-.2h.2v.2Zm-.7 1s-.1 0-.2-.2c0 0 .1-.2.2-.2 0 0 .1.1.1.2 0 0-.1.2-.2.2Zm-1.9-5s.2.1.3.2h.2c.3.1.5 0 .7 0 0 0 .2-.2.3-.2h.1v.2c-.2.3-.5.5-.7.7-.1.1-.3.2-.4.3q-.15.15 0 .3c.2.2.6.2.8 0 .2-.1.4-.3.7-.4.2-.1.5-.3.7-.4.3-.2.4-.8 0-1.1-.2-.2-.2-.3 0-.5 0-.1.2-.1.3 0 .2.2.3.4.2.6v1.2c-.2.2-.3.4-.6.5h-.2c-.2 0-.4.2-.6.2h-.2c-.1 0-.2.2 0 .3.2.3.4.5.8.5h.1v.1c-.1.1-.2.2-.4.1H56c-.1 0-.1.1 0 .2l.1.1v.2h-.2c0-.1-.2-.2-.3-.3 0 0-.2-.1-.2 0 0 0-.1.1-.1.2 0 .2 0 .5-.2.7v.3c0 .1 0 .3-.1.4 0 .1-.1.3 0 .4v.1c0 .4.2.8.7.9h.2c.2 0 .2-.3.3-.5 0-.2.2-.3.4-.4.1 0 .2 0 .3-.1h.2c.2.1.4.3.4.6v.2c0 .2.3.4.4.3.2 0 .3-.2.4-.4.2-.2.2-.3 0-.6 0 0 0-.2-.1-.3v-.2s.1-.1.3-.1h.3c.2-.1.2-.1.4 0 .2.2.3.2.6.1h.2v.2c0 .2-.2.3-.4.2h-.2c-.1 0-.2-.1-.4-.2h-.2v.3c.1.2.3.4.4.6.2.4.4.7.6 1.1.2.2.4.3.6.2.4 0 .7-.5.5-.8V23c0-.6 0-1.3-.1-1.9v-2c0-.2 0-.4.1-.5q0-.45.3-.9c.2-.2.1-.6 0-.9l-.4-.4c-.2-.2-.2-.2 0-.5v-.3c0-.3-.4-.6-.7-.6H59c-.2 0-.3.2-.2.4v.3h-.2s-.2 0-.2-.2c-.2-.2-.2-.4 0-.5s.4-.3.5-.4c.3-.2.7-.4 1-.6h.3c.1.2.2.2.4 0 .4-.2.7-.4 1.1-.6.3 0 .4-.3.4-.6 0-.1 0-.2-.1-.3 0-.1-.2-.2-.3-.2-.4 0-.8 0-1.2.2 0 0-.2.1-.3.2-.2 0-.3.2-.5.3s-.4.3-.6.4c-.3.2-.6.4-.9.5H58c-.2.1-.5.3-.7.4h-.1c-.1 0-.3.1-.4.2 0 0-.2.1-.3.2q-.3 0-.6.3c-.3.2-.7.2-1 .3h-.6c-.2 0-.3 0-.4.2v.3c.1.2.2.4.3.5Zm14 2.9s0-.2.1-.2c.1-.2.3-.2.5-.1h.4s.1 0 .2-.1c.2 0 .3 0 .3.2v1.9c0 .2 0 .3.2.5l.2.2c.1.2 0 .3-.2.3h-.2c-.1 0-.2-.2-.2-.3v-.3c-.1-.1-.1-.3 0-.4v-.3c-.2-.1-.2-.3 0-.5 0 0 0-.2.1-.3v-.3c-.1-.2-.2-.2-.4 0-.1 0-.2.2-.4.2h-.3s-.1-.2 0-.3Zm.4 1.7h-.2s-.1-.1 0-.3V21s.1-.1.2-.1l.2.2c-.1.2 0 .3 0 .5v.3Zm-.1.9s-.2 0-.1-.2v-.3s0-.1.1-.2h.2c.2.2 0 .5-.1.5ZM64.9 24c.1.3.3.3.5 0 .1-.2.3-.3.3-.6v-.9c0-.3 0-.6.1-1v-.2q0-.15.3 0c.3.2.5.1.7 0l.8-.8h.2s.1.1.1.2c0 .3-.1.6-.2.8-.2.3-.2.5-.2.8s.1.4.4.5c0 0 .1 0 .2.1v.2s-.2.1-.3.2c-.2 0-.2.2-.2.3s.2.3.3.4c0 0 .2.1.2 0 .2 0 .4-.2.6-.4.1-.2.2-.3.3-.5.2-.3.3-.3.6 0s.5.6.8.9c.2.2.3.4.6.5h.3l.4-.4c0-.1.1-.3 0-.4 0-.2-.2-.3-.2-.5-.1-.3-.3-.4-.6-.5-.2 0-.3-.2-.3-.4V20c0-.2 0-.4.2-.7v-.7c-.1-.2-.4-.2-.5 0-.2.2-.4.4-.7.5h-.3v-.2s.1-.2.2-.2c.2-.2.4-.3.6-.5l.2-.2c.2-.2.5-.3.7-.5.2-.1.3-.4.2-.7v-.2c0-.1-.1-.3-.2-.4h-.2l-.3.6c-.1.3-.4.5-.6.7 0 0-.1.1-.2 0 0 0-.1-.2 0-.3 0-.1.1-.2.2-.3.2-.2.4-.4.5-.7 0-.1 0-.2-.1-.3h-.2l-.2.2c-.1 0-.2.2-.3.2s-.3 0-.4.1h-.6c-.2 0-.4 0-.4-.3 0-.1 0-.2-.2-.3-.1 0-.2-.2-.3-.3 0 0 0-.1-.2 0 0 0-.1.1 0 .2 0 .3 0 .5-.2.8 0 .1-.1.3-.2.5v.3c0 .1.2.2.3.3q.15.15 0 .3v.2c0 .1 0 .2.2.3.2.2.5.3.7 0 .2-.2.4-.3.4-.6v-.3h-.3c-.1 0-.2.1-.3.2h-.3v-.2c.2-.1.3-.2.4-.4h.2c.1 0 .3.1.4.2.2 0 .3.2.2.3v.1c0 .3-.2.6-.4.8l-.4.4s0 .1-.2.2c-.3.3-.6.6-.9.8-.1 0-.2.2-.3.3h-.2V20c0-.2.2-.4.2-.6v-.1c0-.2.2-.4.3-.6v-.1s0-.1-.1-.1h-.1s0 .1-.1.2c-.1.3-.2.5-.3.8-.1.4-.2.8-.4 1.1 0 .2-.1.4-.2.6h-.2s-.1-.1 0-.2c0-.3.2-.6.3-.9v-.3c0-.1.1-.3.2-.4.1-.2 0-.5 0-.7s-.2-.3-.3-.5-.1-.3 0-.5c.2-.4.4-.7.7-1l.2-.2c.2-.2.2-.3.1-.5v-.1c0-.2-.2-.4-.4-.5-.2-.2-.4-.3-.6-.5-.2-.1-.3-.1-.4 0-.1.3 0 .6 0 1 0 .2.1.4.2.5v.6c0 .2-.1.4-.2.6 0 .2 0 .5-.2.7v1c.1.2.1.5 0 .7 0 .3-.1.5-.2.8 0 .3-.2.6-.3.9q-.3.45 0 .9c.2.3.4.7.6 1Zm2.8-7.9c.1.1.3.2.4.3h.5c.2 0 .3-.2.5-.3.3-.2.6-.4.9-.8.1-.1.3-.2.4-.3h.3v.2l-.4.4v.2h.4c.3 0 .5-.2.8-.3.2 0 .4-.2.6-.3.2-.2.2-.3.2-.5 0-.3-.2-.5-.5-.6H71c-.2.2-.4.4-.7.5-.2.1-.3.2-.5.3-.1 0-.2.2-.3.2s-.3.2-.4.2c-.3.2-.5.3-.9.3H68c-.2 0-.3.2 0 .4Zm44 .1-.2.2h-.2s-.1-.1 0-.2c0-.2 0-.3.2-.5v-.6c0-.3 0-.3.2-.4.1 0 .2 0 .3-.1h.1c.2 0 .3.1.2.2-.1.3-.2.6-.3.8-.1.1-.2.3-.3.5Zm-.5.8c-.2.1-.3.3-.5.4h-.2s-.1-.1 0-.2c0-.1.4-.4.6-.4 0 0 .1 0 .2.1v.1Zm-1-.5v-.3c0-.1 0-.2.2-.3.3-.1.3-.2.4-.5v-.2s.1-.1.2 0c0 0 0 .2.1.3 0 .2 0 .5-.2.7 0 .2-.2.3-.3.4s-.3 0-.4-.1m-.4-.7c0 .3-.2.4-.4.4h-.4c-.2 0-.2-.2 0-.4.1-.1.3-.2.5-.3.2 0 .4 0 .4.3v.1Zm2.3.6c.1-.2.3-.3.4-.5.2-.4.4-.7.7-.9.4-.3.6-.8.8-1.2 0-.2-.1-.4-.3-.4s-.5 0-.7.1c-.2 0-.3.1-.5.3s-.5.4-.8.5h-.2c0 .1-.2.2-.3.4 0 .1-.2.2-.3.2-.2-.1-.4-.4-.1-.6.1 0 .2-.2.3-.2.3-.2.5-.4.8-.6.1 0 .3-.2.3-.4v-.5c0-.2-.2-.3-.2-.5s-.2-.3-.3-.4h-.2l-.2.2c0 .2-.1.4-.2.6 0 .3-.2.5-.3.7-.2.2-.3.4-.4.7 0 .1 0 .2-.2.3 0 0-.2.2-.3.2h-.9v.2s0 .1.1.2.1.2 0 .4l-.5.5h-.1l-.1-.2v-.2c0-.2 0-.3.1-.5v-.4c0-.1.1-.3.1-.4v-.2c0-.2-.2-.4-.5-.5s-.5-.2-.8-.3c-.1 0-.3 0-.3.1v.4q.3.6.3 1.2v2.1h-.2v-1.2c0-.2 0-.3-.1-.5-.1-.1-.2-.2-.4-.3h-.1c-.2 0-.3.2-.2.4 0 .2.1.4.2.6 0 .2.1.4 0 .6 0 .3-.2.5-.4.8 0 0-.1.2-.1.3 0 .2.2.4.4.5h.4c.2-.1.3-.4.5-.6 0-.1.1-.3.2-.4v-.2l.5-.5h.2c.1 0 .2.1.3.2v.3l-.2.2s-.2.2-.2.3v.3q.15.15.3 0c.1 0 .2-.2.3-.2s.2-.2.4-.1c.1 0 .2.1.3.2s.1.2 0 .4q-.3.3-.6.3c-.4 0-.9 0-1.3.2-.4.1-.4.4-.2.6 0 0 .2.2.3.2.2.1.5.1.7 0s.4-.3.7-.4c.2 0 .4-.2.5-.3.2-.2.5-.2.7 0h.2c.2-.1.4-.3.5-.5.2-.2.4-.3.7-.1.1 0 .1.2 0 .3s-.2.2-.4.3c-.3.2-.5.4-.8.6-.3.1-.5.3-.8.4-.2.1-.4.2-.6.1-.2 0-.4 0-.6.2v.2s.2.2.3.2h.4c.1 0 .2 0 .3.2v.2s-.2.1-.2.2c0 0-.1.2 0 .3v.2c-.1.1-.3 0-.4.1-.4 0-.8.1-1.1.2h-.6c-.2 0-.3 0-.4.2v.4c.2.2.4.4.7.5h.5c.3-.2.7-.4 1-.6h.3c.1 0 .2.2.2.4v.8c0 .2-.2.4-.4.4h-1s-.2 0-.2.1v.2c.4.3.8.6 1.1 1 .2.3.5.3.7 0 .2-.2.4-.5.6-.7.1-.2.2-.4.2-.6V23c0-.3 0-.6-.1-.9v-.2c.2-.1.4-.2.6-.1h.7c.1 0 .3 0 .3-.2 0 0 0-.2.1-.3 0-.2 0-.4-.2-.5s-.4 0-.6 0c-.3.2-.6.2-1 .3h-.3v-.3c.1-.2.3-.4.5-.6s.3-.5.2-.8c0-.2 0-.4.3-.4.1 0 .3 0 .4-.1h.2c.3-.1.5-.2.7-.5.1-.2.3-.3.4-.5l.3-.3c.1-.1.2-.4.1-.5q-.3-.6-.9-.3c-.2.1-.5.3-.7.4h-.3v-.3c0-.1.2-.2.3-.4Zm-43.3-2.5c.2 0 .3.2.2.5v.3h.2c.3-.2.7-.4 1-.6 0 0 .2-.1.2-.2.1-.1.2-.3 0-.4-.1-.3-.4-.5-.6-.6h-.4c-.2 0-.4.1-.5.2-.3 0-.4 0-.4.3 0 .2 0 .3.2.4Zm-22 8 .1-.1h.6v.2c-.1.2-.3.4-.5.6-.1.1-.3 0-.3-.1v-.7Zm-5.2 1.4h1c.3 0 .6-.2.9-.3h.1c.2-.1.4-.2.5-.3.2-.1.4-.3.6-.4s.4-.3.5-.4h.2c.1.1.1.2 0 .4v.5c0 .3 0 .6.2.8l.2.2c.2.1.4.1.5 0 0 0 .1-.2.2-.3 0-.2.2-.2.3 0l.1.1s.2.1.3.1h.7c.5.1.8-.2 1-.5 0-.3 0-.5-.3-.5 0 0-.1 0-.2-.1v-.2l.5-.5c.1-.1.2-.3.2-.5 0-.3-.2-.5-.5-.7-.2-.1-.3-.1-.5 0-.1 0-.2.2-.3.2-.3.1-.5.2-.8.3h-.2c-.2 0-.3 0-.4.3 0 .1-.2.3-.3.2-.1 0-.3-.2-.4-.3-.1 0 0-.2 0-.3 0 0 .1-.2.2-.2.2-.2.3-.4.4-.6 0 0 .1-.1.2 0 0 0 0 .1.1.2 0 .1.1.2.2.1.1 0 .2-.1.4-.2.1 0 .2-.1.3-.1.3 0 .6-.2.8-.4v-.3c0-.2-.2-.3-.4-.4h-.2c-.1.1-.3.2-.5.2h-.3v-.3c.2-.2.3-.5.5-.7 0-.1.1-.2.2-.3h.2s.2.2.2.3c.2.4.4.8.5 1.3 0 .2 0 .3.2.5.1.2.3.4.6.4.2 0 .5-.1.7-.2.2 0 .4-.2.5-.2.2 0 .4-.3.6-.5s0-.4-.2-.4-.5 0-.7-.1 0 0-.1 0c-.3 0-.5-.2-.7-.4s-.5-.5-.7-.8c-.2-.2-.4-.5-.6-.8v-.3c0-.1.1-.2.2-.4 0-.3.3-.5.5-.7.2-.1.3-.3.2-.6 0-.2-.1-.3-.2-.5 0 0 0-.2-.1-.3 0 0-.1-.2-.1-.3q0-.15-.3-.3s-.2-.1-.2-.2h-.2c-.1.1-.2.3-.2.5v.4c0 .3-.2.5-.3.8-.2.4-.3.8-.5 1.2s-.3.7-.5 1.1c-.2.3-.3.6-.5.9v.1c0 .1-.1.3-.2.4-.2.2-.4.4-.5.6-.2.4-.5.7-.8 1-.2.2-.4.4-.6.5-.3.2-.7.5-1 .7-.2.2-.5.3-.8.4-.2 0-.5.1-.7.2h-.4c-.2 0-.3.2-.1.4 0 0 0 .2.2.3 0 .1.2.2.3.1Zm.3-5.7v2c0 .2.1.3.2.5 0 .2.2.3.4.3.3 0 .4-.2.6-.3s.3-.3.3-.5.2-.3.4-.2c.2.2.5.1.7 0 .2 0 .5-.2.7-.3.2 0 .4-.2.4-.5 0-.2 0-.3-.2-.4-.1-.2-.1-.3 0-.4.2-.2.4-.4.7-.6.1 0 .2-.2.3-.3v-.3c0-.1-.1-.2-.2-.3 0 0-.1-.2-.2-.3l-.4-.4c-.1-.1-.2-.2-.4-.1-.2 0-.4.2-.6.3s-.5.3-.7.4c-.1 0-.3 0-.4.2 0 0-.1.1-.1.2 0 .2.4.6.6.5.2 0 .3.1.2.3-.1.3-.3.5-.4.8v.1h-.2V18c0-.3 0-.6-.2-.7-.1-.1-.3-.2-.4-.4s-.3-.3-.5-.4h-.3s0 .2-.1.2c-.1.1 0 .3 0 .4v.3Zm32.5 4.3c0 .3.3.6.6.6h1.1c.4 0 .4 0 .7-.4.3-.5.8-.9 1.3-1.3.2 0 .3-.1.5-.2.5-.3 1.1-.5 1.7-.5.2 0 .4-.1.5-.3.2-.2 0-.6-.2-.7h-.8s-.1.2-.2.2c-.2 0-.5.2-.7.2h-.2v-.3c.2-.2.4-.5.6-.7.4-.4.8-.8 1.2-1.1.2-.2.3-.5.2-.8 0-.2-.2-.4-.3-.5-.1-.2-.6-.3-.8-.2-.2 0-.3.2-.5.3-.3.2-.6.4-1 .6 0 0-.2 0-.3.1-.1 0-.2 0-.3.1h-.9c-.2 0-.3-.2-.5 0l-.2.2c-.2.2-.2.5 0 .7l.3.3c.1.1.3.3.4.3h.6c.2-.2.4-.3.6-.5.2-.1.3-.3.5-.4h.1v.2c0 .1 0 .2-.2.3-.3.3-.5.6-.8.9-.1.2-.2.3-.3.5 0 .1-.2.2-.3.3-.2.2-.4.5-.7.7-.1.1-.3.2-.5.2h-.3c-.2 0-.5.2-.7.2h-.4c-.2 0-.3 0-.4.2v.4c0 .1.1.2.1.4Zm20-.6c.2.4.7.5 1 .2.2-.1.3-.3.5-.4l.9-.6c.2-.1.3-.2.5-.3h.3v.3c-.1.5-.4 1-.8 1.4-.3.3-.7.6-1.2.7-.3 0-.5.1-.8 0h-.2c-.2 0-.3.2-.2.4.2.3.6.5 1 .5h.6c.3 0 .5-.2.8-.3.2-.1.3-.3.4-.4.4-.3.7-.6.9-1.1.2-.4.4-.7.5-1.1 0 0 0-.1.1-.2 0 0 .1 0 .2.1.1.3.3.5.4.8.1.4.3.7.5 1 0 .2.2.3.3.5 0 .1.2.2.2.3.1.2.3.3.5.4.2 0 .4.1.6 0 .3 0 .5-.2.7-.4.1-.1.2-.3.4-.4.1-.1.2-.2.3-.4v-.2c0-.1-.2-.2-.3-.1h-1.1c-.2 0-.5-.2-.7-.3 0 0-.2-.1-.2-.2 0 0-.2-.2-.2-.3 0 0-.1-.2-.2-.3-.3-.3-.5-.7-1-.8 0 0-.2 0-.2-.2 0-.3.1-.5.4-.5.1 0 .3 0 .4-.1.1 0 .2 0 .3-.1.5-.2 1-.3 1.5-.5h.2c.4-.2.5-.3.5-.7 0-.2 0-.4-.3-.6-.2-.1-.4-.3-.7-.4h-.2v.5c0 .3-.3.4-.6.5 0 0-.2 0-.3.1-.2.2-.5.3-.8.3-.2 0-.3 0-.3-.2V18c0-.2.2-.5.1-.7 0-.2 0-.5.1-.7 0-.2.2-.4.2-.6v-1.5c-.1-.4-.3-.7-.7-.9-.2-.1-.3 0-.5 0-.2.2-.3.3-.2.6v3.5c0 .3 0 .6-.1.9q0 .3-.3.3c-.3.1-.5.2-.8.4h-.1c-.3.1-.7.3-1 .4h-.4c-.3 0-.4 0-.5.2 0 .1-.1.2-.2.3-.2.2-.2.5 0 .7Zm10.5 0s.2.2.4.1c.3-.2.5-.4.7-.8 0-.1 0-.3.1-.4.1-.2.3-.5.4-.7v-.2h-.2s-.2.1-.3.2h-.2v-.2c0-.2.2-.3.3-.5.2-.2.2-.3 0-.6 0 0 0-.1-.1-.2h-.2s-.1.2-.2.3c-.3.4-.7.7-1 1.1-.1.2-.3.3-.2.5 0 .5.2.9.5 1.3ZM88 16.1v-.6h.1c0 .1.2.2.3.3h.1s.1.2 0 .2c0 0-.1.2-.2.2s-.2.2-.3.2c-.2 0-.3 0-.3-.1v-.5Zm1.2-.7c.2-.2.3-.4.5-.6 0 0 .1-.1.2 0 0 0 .1.1 0 .2-.1.2-.2.4-.4.6l-.1.1h-.2l-.2-.2v-.2Zm-1.4 7.4c0 .2 0 .4-.3.4-.1 0-.3 0-.4-.2v-.2c0-.2.2-.4.2-.5 0 0 0-.1.1-.2 0 0 .1-.1.2 0 0 0 .2.1.1.2v.4Zm-3.5-2.6h.3c.2 0 .4-.2.6-.3.3-.2.5-.5.8-.7.2-.2.4-.4.6-.5h.2v.4l.2.2h.2s.2-.1.2-.2h.2v.2l-.2.2s-.2 0-.2.1c-.2 0-.3.2-.5.3-.3.3-.2.5.1.6h.7v.2s-.2 0-.2.1c0 0-.1 0-.1.1 0 0 0 .1.1.1h.2c.2 0 .2.2.1.3-.2.2-.4.3-.7.2-.1 0-.3 0-.3.1 0 0 0 .2-.1.3v.2s.2.1.3.2q.3.15 0 .3c-.2.2-.5.3-.7.5-.2 0-.4.1-.5 0 0 0-.2 0-.2-.1h-.2c-.2.1-.3.5-.2.7s.2.3.4.5.5.2.7 0c.2-.1.3-.2.5-.4s.3-.3.4-.5c.1-.1.2-.2.3 0l.2.2c0 .2.2.4.3.6s.2.3.4.2c.3 0 .5-.3.7-.5.1-.1.2-.3.1-.4v-1.7c0-.1.1-.2.2-.1.2.2.4.3.5.6s.2.6.2.9c0 .2.2.4.4.3.2 0 .4 0 .6-.1.1 0 .3-.1.3-.3v-.9s0-.2-.1-.3c-.2-.2-.4-.4-.7-.5s-.6 0-.9 0h-.3v-.2c0-.1.1-.2.2-.3v-.3h-.2s-.2.1-.3.2h-.2c-.1-.1-.1-.3 0-.4.1 0 .3-.1.4-.2.2-.2.3-.3 0-.5v-.3s.1-.2.2-.2c.1-.1.1-.3 0-.4 0 0 0-.1-.1-.2H89s-.1.2-.2.3c0 0-.1.2-.2.2h-.2v-.2c.1-.1.2-.2.4-.3.2-.2.5-.3.7-.4.3 0 .5-.3.7-.5.1-.2.1-.3 0-.5s-.3-.2-.5-.2h-.3q-.3 0-.3.3c0 .1 0 .2-.2.3 0 0-.1.1-.1.2v.2c-.1.3-.3.5-.5.7 0 0-.1.1-.2 0v-.2l.3-.4c0-.1.2-.2.2-.3v-.2h-.2l-.1.1c-.2.1-.3.3-.5.4h-.3v-.2c.2-.2.4-.3.7-.4.2-.1.4-.3.6-.3h.2c.3-.1.6-.2.9-.2.2 0 .5-.1.7 0h1.2c.3 0 .5 0 .7-.3.2-.2.2-.4 0-.7s-.4-.3-.6-.2c-.3.1-.6.3-.9.4-.2 0-.5.2-.7.3h-.2v-.2l.1-.1c.2-.1.5-.3.7-.4.4-.2.5-.6.2-.9l-.1-.1c-.2-.3-.8-.3-1-.1s-.4.4-.5.6c-.2.2-.4.5-.8.6-.2 0-.3 0-.4-.2 0-.2 0-.3.2-.4V15c0-.3 0-.6-.3-.8-.2-.2-.4-.4-.7-.2q-.3 0-.3.3v1.2c0 .3 0 .6-.1.8 0 0 0 .1-.1.2-.1 0-.2.1-.3.2-.2.2-.4.1-.6 0q-.15-.15-.3 0c0 .2-.1.3-.2.5v.7c0 .2.2.3.4.3s.3-.1.4-.3c.1-.3.3-.5.5-.8h.2s0 .1.1.2v.6c0 .1 0 .2-.1.3 0 0-.2 0-.3.1-.2.1-.5.3-.7.4-.4.2-.8.4-1.1.6s-.7.3-1.1.2c-.2 0-.4 0-.5.1-.1.2-.3.5 0 .8q.45.45.9.6Zm-51 2.1c.3-2.3-.5-4.5-2.1-6.1-1.4-1.4-3.3-2.2-5.3-2.2-4.1 0-7.5 3.4-7.5 7.5v.8h.5c-.4-3.8 2.3-7.3 6.2-7.7h.8c3.9 0 6.9 3 6.9 6.9v.9h.5Zm-5.4 7.3h.5v-1h.8v-.2h-2.1v.2h.8zm-2.3 0h.5v-1.2h-.5zm-2.8-.6h1v.5h.5v-1.2h-.5v.5h-1v-.5h-.5v1.2h.5zm-4.6-4.8h.2v-.3h-.2zm0-.5h.2v-.3h-.2zm0-.4h.2V23h-.2zm.3 1.4h.2v-.3h-.2zm-.6-.5h.2v-.3h-.2zm.3.5h.2v-.3h-.2zm-.3-1.4h.2V23h-.2zm0 .4h.2v-.3h-.2zm.9.5h.2v-.3h-.2zm0 .5h.2v-.3h-.2zm0-1h.2v-.3h-.2zm0-.4h.2V23h-.2zm.4 1.4h.2v-.3h-.2zm-.7-.5h.2v-.3h-.2zm0-.5h.2v-.3h-.2zm-.6 1h.2v-.3h-.2zm1.3-.5h.2v-.3h-.2zm-.7-.9h.2V23h-.2zm-2.7 1.4h.2v-.3h-.2zm.4-.5h.2v-.3h-.2zm0-.5h.2v-.3h-.2zm.5 1h.2v-.3h-.2zm-.5-1.4h.2V23h-.2zm0 1.4h.2v-.3h-.2zm.5-.5h.2v-.3h-.2zm-.9 0h.2v-.3h-.2zm0-.5h.2v-.3h-.2zm0-.4h.2V23h-.2zm1.2.4h.2v-.3H17zm.5 1h.2v-.3h-.2zm-.8-1h.2v-.3h-.2zm.3-.4h.2V23H17zm.5.4h.2v-.3h-.2zm0 .5h.2v-.3h-.2zm-.8-.9h.2V23h-.2zm.3 1.4h.2v-.3H17zm0-.5h.2v-.3H17zm2.2-.5h.2v-.3h-.2zm-1.7-.4h.2V23h-.2zm12.4-1.4s-.1 0-.1.1v.3h.2V22s0-.1-.1-.1m-.1.9h.2v-.3h-.2zm0 .5h.2V23h-.2zm0 .5h.2v-.3h-.2zm.3.9h.2v-.3h-.2zm0-1.4h.2V23h-.2zm0 .9h.2v-.3h-.2zm0-1.4h.2v-.3h-.2zm0 1h.2v-.3h-.2zm-.3.4h.2v-.3h-.2zm-.4 0h.2v-.3h-.2zm0 .5h.2v-.3h-.2zm-.4-1.9h.2v-.3H29zm.1-.9s-.1 0-.1.1v.3h.2V22s0-.1-.1-.1m.4 0s-.1 0-.1.1v.3h.2V22s0-.1-.1-.1m.3 2.8h.2v-.3h-.2zm-.4-1.4h.2V23h-.2zm0-.5h.2v-.3h-.2zm0 1h.2v-.3h-.2zM26 19.4h.2v-.3H26zm-.6.8h.2v-.3h-.2zm0 .3h.2v-.3h-.2zm.6-1.6h.2v-.3H26zm-.3 0h.2v-.3h-.2zm4.5 3s-.1 0-.1.1v.3h.2V22s0-.1-.1-.1M26 20.2h.2v-.3H26zm0 .3h.2v-.3H26zm-.3-.3h.2v-.3h-.2zm0 .3h.2v-.3h-.2zm-6.5 2.8h.2V23h-.2zm6.5-3.9h.2v-.3h-.2zm4.8 4.8h.2v-.3h-.2zm0 .5h.2v-.3h-.2zm0-1.4h.2V23h-.2zm0 .5h.2v-.3h-.2zm-5.1-4.9h.2v-.3h-.2zm5.1 3.9h.2v-.3h-.2zm.1-.9s-.1 0-.1.1v.3h.2V22s0-.1-.1-.1m-5.2-2.5h.2v-.3h-.2zm7.9 5.3h.2v-.3h-.2zm1.9 0h.2v-.3h-.2zm-.4-1.4h.2V23h-.2zm0 1.4h.2v-.3h-.2zm0-.5h.2v-.3h-.2zm0-.5h.2v-.3h-.2zm.9.5h.2v-.3h-.2zm-.5 0h.2v-.3h-.2zm0-.5h.2v-.3h-.2zm0-.4h.2V23h-.2zm.5 1.4h.2v-.3h-.2zm-1.7-.5h.2v-.3H34zm.4-.9h.2V23h-.2zm-.4 1.4h.2v-.3H34zm-.4-1.4h.2V23h-.2zm.4.4h.2v-.3H34zm.4 0h.2v-.3h-.2zm0 .5h.2v-.3h-.2zm-18.9-.9h.2V23h-.2zm18.5 0h.2V23H34zm2.3 0h.2V23h-.2zm.3 0h.2V23h-.2zm0 .9h.2v-.3h-.2zm.4.5h.2v-.3H37zm-.4 0h.2v-.3h-.2zm0-1h.2v-.3h-.2zm1-.9H32h1.9c0-.1 2-.1 2-.1 0 .1 1.9.1 1.9.1Zm-2 2v-1.9h1.9v1.9zm-.5-2h.4v2h-.4zm-.7 0h.7v2h-.7zm-.5 0h.4v2h-.4zm-1.7.1h1.7v1.9h-1.7zm-.3 0h.3v1.9h-.3zm5.7 1.9c0 .1-5.9.1-5.9.1 0-.1 5.8-.1 5.8-.1Zm0 .4h-5.9c0-.1 5.9-.1 5.9-.1zm-5.9-.6h-.3v.2V23h.6v1.8h-.1v-.2Zm-.3.4h-3.5 3.6v.1Zm-.1.1h-2.2c-.2 0-.4-.1-.6-.1h2.8Zm-2 .2h-.1zh.1zm-1.3-.1h.1-.6zm.2.1h-.5c0-.1.5-.1.5-.1Zm.2 0h.1zh-.1zm-.7.1v-.1Zm-.1 0H24c0-.1 3.6-.1 3.6-.1Zm-3.6 0h-.5zv.1Zm-.7 0h-.1zh.1zm.3-.2h.6-.7zm-3.3-.2c0-.1 3.6-.1 3.6-.1h-3.5Zm2.2.1h-2.2c0-.1 2.8-.1 2.8-.1-.2 0-.4 0-.6.1m-.1.2h-.1zh-.1Zm-2.1-.7H20v.2h-.1V23h.6v1.8-.2Zm-.3.4h-5.9c0-.1 5.8-.1 5.8-.1v.1Zm-.1.2h-5.8c0-.1 5.9-.1 5.9-.1Zm-5.7-2.3h1.9v1.9h-1.9zm2.4 1.9h-.4v-2h.4zm.7 0h-.7v-2h.7zm.5 0h-.4v-2h.4zm1.7 0h-1.7v-1.9h1.7zm.3 0h-.3v-1.9h.3zm-5.7-2H16c0-.1 2-.1 2-.1 0 .1 1.9.1 1.9.1h-2v-.1h-3.6Zm6.3-1h.3zm.4 3h-.3V22h.3zm-.4-2.9h.3c0 .1-.3.1-.3.1Zm-.1-.2h4.3c0 .1-4.2.1-4.2.1h-.2v-.1Zm4.4 1.8h-.8zm-.1-2.9h2.6-2.5Zm-.1 0h.8v-.8h1v.8h.8-2.7Zm.6-.1h-.4zm0-.1h-.4.5Zm.1 0H25v-.6h.3v.7h-.2v-.1Zm-.3-.6h1.9zm-.1-.2h2.1H25Zm0 0h2.1zm.1-.2h.4zm.3-1h1.3-1.1Zm0 0h1.3zm.3-.1h-.2zm-.3-.1h.3zm.9.1h-.6zm-.5-.3v.2zm.1-.1v.1zm0-.2h.4-.3Zm0-.1h.4zm.3 0h-.3.4Zm-.4-.1h.4zm.5.5v-.1zm-.2 0v.2h-.1V18Zm-.1 0v.2zm.1 0v-.1Zm0-.2v.1Zm-.2 0h.3zm0 .2v-.1zm0 0v.2zm0 0v-.1zm0 0v.2zm.3.2V18h.1v.2Zm.4.1h-.2zm-.3-.1h.3zm.3 1.3h-1.1zm-1.1 0v-.8h1.1v.8zm1.5-.1h-.4zm-.3 1c0 .1-.1.1-.1.1v-.7h.3v.6zm.5.1h-.4zm0-.1h-.4.5Zm.8 3.7v-.4h-.7V22h3.8v3h-3.1v-.8Zm0-.1h-.2zm0 1h-.3v-.9h.2v.9Zm-.9-1.1h-2.1v-.4h2.1zm.1-.5c0 .1-.1.1-.1.1h-2.2c0-.1 2.4-.1 2.4-.1Zm-1.8-.1h-.5v-2.5h.5zm1.2 0h-1.2v-2.5h1.2zm.6-2.5h-2.4zm0 2.5h-.6v-2.5h.6zm-.1.2h.8zm.9.3H27zm-.1 0h-.8v-.2h.8zm-3.8.1h3.8zm3.3 1.1h.1zm-.4-1h.2zm.1.9V24h.2v.9h-.3Zm-.8-.9h.2zm0 .9V24h.2v.9H26Zm-.7-.9h.2zm0 .9V24h.2v.9h-.3Zm1.8.2h-2.9zM24.6 24h.2zm.1.9V24h.2v.9h-.3Zm-.5.3h3.2zm-.3-.2h.4-.6zm.1-.1V24h.2v.9h-.3Zm-.1-.9h.2zm.1-.4h.7v.2H24zm.7.2h-.8zm-.8-.2v1.1h-3.1v-3h3.8v1.6h-.7Zm3.5 1.5h.6-.5Zm3.5-3.3h.3zm.3 3h-.3V22h.3zm-.3-2.9h.3c0 .1-.3.1-.3.1Zm.5-.2h-.2c0 .1-4.2.1-4.2.1 0-.1 4.3-.1 4.3-.1Zm5.5.8h-1.1l-1-.4-.9.4h-1.2l-.9.2v.1c0 .1-.5.1-.5.1v-1.1h.2v-.1l-1.5-.3h-2.9v-.6h.1-.2v-.1h-.3v-.6h.1-.5.4-.4v-1h-.1v-.2.2-.2.2-.2h.1-.1v-.3h-.1V17c.1 0 .2-.2.2-.3q0 .3-.3.3c-.3 0-.3-.1-.3-.3 0 .1 0 .3.2.4v1.6h-.2v.1l-.1.2v.2c.1 0 0 0 0 0V19v.2-.2.2h-.1v1h-.4.4-.5.1v.8h-.3c0 .1-.2.1-.2.1h.1v.7h-2.9l-1.5.2h.2v1.2H20v-.1c0-.1-.9-.3-.9-.3h-1.2l-.9-.4-1 .4h-1.1l-.8.2v2.5H20v-.2h.1v-.2H20v-.2h.2v.6h1.9s0 .2.2.2.2 0 .2-.2c.4-.2.7-.2 1.1-.2-.2 0-.4.2-.5.2 0 0 0 .1.2.1h5s.2 0 .2-.1c-.1 0-.3-.2-.5-.2.4 0 .7 0 1.1.2 0 0 0 .2.2.2s.2 0 .2-.2h1.9v-.6h.2v.2l-.1.2.1.2h5.9v-2.3c0-.1-.8-.3-.8-.3Zm.1 1.7h.2v-.3H37zm0-.5h.2v-.3H37zm0-.4h.2V23H37zm-1 .4h.2v-.3H36zm-2.4 0h.2v-.3h-.2zm2.1 0h.2v-.3h-.2zm0-.4h.2V23h-.2zm.3 1.4h.2v-.3H36zm0-.5h.2v-.3H36zm.3-.5h.2v-.3h-.2zm-.3-.4h.2V23H36zm.3 1.4h.2v-.3h-.2zm0-.5h.2v-.3h-.2zm-1.9.5h.2v-.3h-.2zm-19.9-1h.2v-.3h-.2zm.3 1h.2v-.3h-.2zm0-.5h.2v-.3h-.2zm-.3-.9h.2V23h-.2zm0 .9h.2v-.3h-.2zm5.5-.8h.2v-.3H20zm-5.5 1.3h.2v-.3h-.2zm5.5-.4h.2V24H20zm0-.5h.2v-.3H20zm-5.2-.1h.2v-.3h-.2zm.7 1h.2v-.3h-.2zm0-.5h.2v-.3h-.2zm0-.5h.2v-.3h-.2zm16 .6h.2V24h-.2zm-16.4-1h.2V23h-.2zm0 .4h.2v-.3h-.2zm-.3-.4h.2V23h-.2zm.3 1.4h.2v-.3h-.2zm0-.5h.2v-.3h-.2zm18.5.5h.2v-.3h-.2zm-.6-1.4h.2V23H33zm0 .9h.2v-.3H33zm0-.5h.2v-.3H33zm-4-.4h.2V23H29zm4.6.9h.2v-.3h-.2zm-.3 0h.2v-.3h-.2zm-.3.5h.2v-.3H33zm-1.5-.9h.2v-.3h-.2zm1.8-.1h.2v-.3h-.2zm0-.4h.2V23h-.2zm-1 .9h.2v-.3h-.2zm0-.5h.2v-.3h-.2zm0 1h.2v-.3h-.2zm-.8-1.3h.2v-.3h-.2zm1.1 1.3h.2v-.3h-.2zm0-1h.2v-.3h-.2zm-.3-.4h.2V23h-.2zm.3 0h.2V23h-.2zm0 .9h.2v-.3h-.2zm-8.3-.9h.2V23h-.2zm1-1.1h.3v-.3h-.3zm0-.5h.3v-.3h-.3zm0-.5h.3v-.3h-.3zm.4 2h.3v-.3h-.3zm-3.6 1.5h.2v-.3h-.2zm3.2-1.5h.3v-.3h-.3zm0-.5h.3v-.3h-.3zm-3.2 1.5h.2v-.3h-.2zm4-1.5h.3v-.3h-.3zm-.4 0h.3v-.3h-.3zm.4-.5h.3v-.3h-.3zm0 1h.3v-.3h-.3zm-.4-1h.3v-.3h-.3zm0-1h.3v-.3h-.3zm0 .5h.3v-.3h-.3zm-.9-.5h.3v-.3h-.3zm-3 .7s-.1 0-.1.1v.3h.2V22s0-.1-.1-.1m3 1.3h.3v-.3h-.3zm0-1h.3v-.3h-.3zm-3.5 2h.2v-.3h-.2zm0-.9h.2V23h-.2zm3.5-1.6h.3v-.3h-.3zm-3.5 2.1h.2v-.3h-.2zm3.5-1.1h.3v-.3h-.3zm-2 1.1h.2v-.3h-.2zm-1.1 0h.2v-.3h-.2zm0-1h.2v-.3h-.2zm4.4-1.1h.3v-.3h-.3zm-4.4 2.5h.2v-.3h-.2zm-.4-1.4h.2v-.3h-.2zm.4 1.9h.2v-.3h-.2zm-.3-2.8s-.1 0-.1.1v.3h.2V22s0-.1-.1-.1m1.8 2.3h.2v-.3h-.2zm.1-2.3s-.1 0-.1.1v.3h.2V22s0-.1-.1-.1m.2 1.9h.2v-.3h-.2zm0 .9h.2v-.3h-.2zm0-.5h.2v-.3h-.2zm.1-2.3s-.1 0-.1.1v.3h.2V22s0-.1-.1-.1m-.1 1.4h.2V23h-.2zm0-.5h.2v-.3h-.2zm-.7.5h.2V23h-.2zm0-.5h.2v-.3h-.2zm0 1.4h.2v-.3h-.2zm.1-2.3s-.1 0-.1.1v.3h.2V22s0-.1-.1-.1m.3 1.9h.2v-.3h-.2zm0-.5h.2V23h-.2zm-1.9 1.4h.2v-.3h-.2zm1.9-1.9h.2v-.3h-.2zm0 1.9h.2v-.3h-.2zm-1-2.8s-.1 0-.1.1v.3h.2V22s0-.1-.1-.1m4.4-.2h.3v-.3h-.3zm-4.5 1.1h.2v-.3h-.2zm4.5-.1h.3v-.3h-.3zm0-.5h.3v-.3h-.3zm-4.5 1.6h.2v-.3h-.2zm4.5-.6h.3v-.3h-.3zm-4.5.1h.2V23h-.2zm.3 0h.2V23h-.2zm0-.5h.2v-.3h-.2zm.4 1.9h.2v-.3h-.2zm-.3-2.8s-.1 0-.1.1v.3h.2V22s0-.1-.1-.1m-.1 2.3h.2v-.3h-.2zm3.7-3h.3v-.3h-.3zm.5 0h.3v-.3h-.3zm-4.2 2.6h.2v-.3h-.2zm0 .9h.2v-.3h-.2zm-.7-1.4h.2V23h-.2zm3.5-4.2v.2zm-.3 4.4h1.8v.2h-1.8zm0 .3h1.9v-.3h-1.9zm.1-4.5v-.2zm3.4 2.6s-.1 0-.1.1v.3h.2V22s0-.1-.1-.1m-.1.9h.2v-.3h-.2zm.4 1.4h.2v-.3h-.2zm-.8 0h.2v-.3h-.2zm-.2-2.3s-.1 0-.1.1v.3h.2V22s0-.1-.1-.1m1 2.8h.2v-.3h-.2zm-.8 0h.2v-.3h-.2zm-.7-1.4h.2V23h-.2zm1.1.9h.2v-.3h-.2zm0 .5h.2v-.3h-.2zm-1.1-1.9h.2v-.3h-.2zm.1-.9s-.1 0-.1.1v.3h.2V22s0-.1-.1-.1m1 1.4h.2V23h-.2zm-1.5-4.2v.2zm-.2.2v-.2zm-.7-3.8c0-.1 0 0 0 0h-.1zv.2h.2c0-.1.1-.2.1-.2H26Zm2.4 8.3h.2v-.3h-.2zm-.7-1h.2v-.3h-.2zm.3 0h.2v-.3h-.2zM21 24.7h.2v-.3H21zm3.1-2.7s0-.1-.1-.1c0 0-.1 0-.1.1v.3h.2zm-.2 1.3h.2V23h-.2zm-2.9.9h.2v-.3H21zm2.9-1.4h.2v-.3h-.2zm-2.9 1h.2v-.3H21zm8 .4h.2v-.3H29zm-.3-.4h.2v-.3h-.2zm.3.9h.2v-.3H29zm-8-1.4h.2V23H21zm0-.5h.2v-.3H21zm7.7 0h.2v-.3h-.2zm.1-.9s-.1 0-.1.1v.3h.2V22s0-.1-.1-.1m-.8 0s-.1 0-.1.1v.3h.2V22s0-.1-.1-.1m-.1 1.9h.2v-.3h-.2zm.8-.5h.2V23h-.2zm-4.4-.5h.2v-.3h-.2zm3.3.5h.2V23h-.2zM24.5 22s0-.1-.1-.1c0 0-.1 0-.1.1v.3h.2zm3.4 1.3h.2V23h-.2zm-6.8-1.4s-.1 0-.1.1v.3h.2V22s0-.1-.1-.1m7.9 1.9h.2v-.3H29zm-4.9 3v-.9H24s-.1.1-.2.1h.3v.6h.1Zm2.4-.4s-.2 0-.3.1c-.1 0-.2.2-.2.3h.8-.6s0-.1.2-.1c.1 0 .2 0 .4-.2 0 0 .2-.1.1-.2 0 0 0-.2-.2-.2h-.3q-.3 0-.3.3h.2c0-.2.1-.2.3-.2 0 0 .2 0 .2.1v.2Zm.9.2v-.4c0-.1.1-.1.2-.1s.2 0 .2.2v.1c0 .2 0 .3-.2.3-.1 0-.2 0-.3-.1Zm.6-.2c0-.2-.1-.4-.4-.4-.2 0-.4.2-.4.4 0 .3.1.4.4.4s.4-.2.4-.4m-2.8.1c-.1 0-.2 0-.2-.2 0-.1 0-.2.2-.2.1 0 .2 0 .2.2s-.1.2-.2.2m-.2.2h-.2c0 .2.5.2.6 0 .2-.1.2-.5 0-.6-.1-.1-.4-.2-.6 0 0 0-.1.1-.1.3 0 0 0 .2.2.2h.5s0 .2-.1.2c0 .1-.3.1-.3 0ZM16.2 22h.2c.2 0 .4 0 .5-.2h.1c.1 0 .2.1.4.2h.1v-.6h-.8c0-1 .1-2.1.4-3.1l.8.3c0-.2.1-.4.2-.7.2-.3.3-.6.5-1s.4-.7.7-1l-.3-.3-.3-.3c.7-.8 1.5-1.5 2.4-2 0 0 0 .2.1.2 0 .1.2.3.2.4h.1s.1 0 .2-.1c.2 0 .3-.1.5-.2.3-.1.6-.2.8-.4.2 0 .4-.2.6-.2h.5s.1 0 0 0v-.7c.3 0 .6 0 1-.1h2.2l-.2.9c1 .1 1.9.5 2.8 1 0-.1.1-.3.2-.4 0-.1.1-.2.2-.4.9.5 1.7 1.2 2.4 1.9-.1.1-.3.2-.4.4 0 0-.2.2-.3.2v.1c.1.2.3.3.4.5.2.3.4.7.6 1 .1.3.3.6.4.9 0 0 0 .1.1 0 .2 0 .4-.1.7-.2h.2c.3.8.6 2.6.5 3.1h-.8l-.1.1v.5c.1 0 .3-.1.4-.2h.2c.1 0 .3.2.5.1h.1v-1.9c0-.7-.2-1.4-.5-2 0-.2-.1-.4-.2-.6-.3.1-.5.2-.8.4h-.1c0-.2-.2-.4-.3-.6s-.3-.5-.4-.7-.2-.4-.3-.5l.8-.6c-.3-.3-.5-.6-.8-.9-.7-.8-1.6-1.4-2.5-1.9H30c0 .2-.2.3-.3.5 0 0-.1.1-.2 0-.1 0-.2-.1-.4-.2-.2 0-.4-.2-.6-.2s-.5-.1-.7-.2V12c0-.1 0-.3.1-.4-1.6-.4-3.2-.4-4.7 0l.2.6c0 .2 0 .2-.1.2-.2 0-.5.1-.7.2-.3 0-.5.2-.8.3h-.3l-.2-.5c-1.4.7-2.6 1.8-3.6 3.1l.7.3s.1 0 0 .1c0 .1-.2.2-.2.4-.2.3-.3.5-.5.8 0 .2-.2.4-.3.6-.2 0-.4-.2-.6-.3h-.2c-.2.5-.4 1-.5 1.6 0 .4-.1.8-.2 1.2v1.5Zm16 6.2c.3.8.6 1.6.9 2.5h-5.7l.2.7h-3.5l.4-.7h-5.9l.4-1.1c.2-.5.4-1 .5-1.5 0 0 0-.1.2-.2h.1c.1-.1.3-.2.5-.1l-.9 2.5h5.8l-.4.7H27l-.4-.7h5.7l-.9-2.5h.4c.2 0 .3.2.4.4m.4.2c.3.9.7 1.7 1 2.6h-5.8l.4.8h-4.9l.4-.8h-5.8l.2-.4.9-2.4.1-.1c.1 0 .2-.1.3-.2l-1 2.8h5.9l-.4.7h3.7l-.2-.7h5.7L32 27.9c.2.1.4.3.5.5Zm-12.1-.8h5l.3.3h.2l.3-.3h5s.1 0 .2.1c.3.8.6 1.5.9 2.3h-5.7l.4.7h-1.9l.4-.7h-5.8v-.2c.3-.7.5-1.4.8-2.1 0-.1.1-.1.2-.1Zm12.1.2.3.3c.7-.8 1.4-1.7 1.9-2.7h-.6c-.2.5-.5.9-.9 1.3-.1.2-.3.3-.4.5l-.5-.4-.6.6c-.1.2-.4.2-.6.2H30c.4-.3.8-.6 1.2-1s.7-.8 1-1.2h-.5c-.3.4-.6.7-1 1.1-.5.4-.9.8-1.5 1h-2.7l-.3.3-.3-.3h-3q-1.5-.75-2.4-2.1h-.6c.6.9 1.3 1.6 2.1 2.2h-1.2c-.1 0-.3 0-.3-.1-.2-.2-.5-.4-.7-.7l-.5.4c-.4-.5-.8-1.1-1.1-1.7h-.6c.3.7 1.5 2.4 1.9 2.7.1-.2.2-.3.3-.4h.1l.2.2c-.2 0-.3.2-.4.2s-.2 0-.3.1h-.1c-.3.8-.6 1.5-.9 2.3l-.3.8h5.7l-.4.8h6.2l-.5-.8h5.7c-.2-.4-.3-.8-.5-1.3-.2-.6-.5-1.2-.7-1.8-.3 0-.5-.3-.7-.4q.2-.2.4 0Z" style="fill:#2b5f76;fill-rule:evenodd" id="_图层_1" data-name="图层_1"/></svg>