<svg xmlns="http://www.w3.org/2000/svg" viewBox="0 0 128 38.9"><defs><style>.cls-1{fill:#c8161e}</style></defs><g id="_图层_1" data-name="图层_1"><path class="cls-1" d="M113.5 15.5c-.2 0-.3 0-1 .3-.7.4-.5 0-.4-.2 0-.2 1.5-3.7 1.5-4.1s.4-.9.4-.9c0-1-.7-.9-1-.9s-.3.2-.1.5 0 .6 0 .6-.8 1.3-1.6 3.5c-.5 2.3-.9 1.8-.9 1.3 0-.4.2-.3.7-1.5s-.5-1.3-.5-1.3-.7 0-.5-.1 1.9-1.5 2.5-2.1-.1-.7-.1-.7-2.3 1.5-2.9 2.1-.6.3-.5.2c0 0 .8-.7 1.3-1.2.6-.5.3-.6.3-.8s-1.1-.8-1.4-.9c-.3 0-.8.4-.6.5s.3.3.2.6c-.1.2-.8 1.4-.8 1.6s-.3.7-.5.2-.9-.9-1.1-1c-.2 0-1.1-.9-1.5-.9s-.5.3-.5.3 0 .2.3.4c1 .7.7.5.8 1.5 0 1 .4.5.4.9v1.3s-.4.6-.4 1-.5.5-.4 0c0-.6-.2-.6-.3-.8s-1.1-.8-1.3-.3c0 .7.4.8.5 1.2s-.1.6-.1 1.4c.9.8.9.8 1.4.2.2-.4.1-.9.4-.9.5 0 .5-.3.5-.3l.5-1c.2-.4.5-.5.4-.3 0 .2.2.3.1.5 0 .2-.9 1.5-.9 1.5s-3.3 2.9-4.7 4.6c.6 1.6 1 2 2.4.3s3.7-3.3 4.2-3.6 1.9-1 1.9-1 .6.2 1.2-.3.1-.2.5-.4c2-.7 1 .2 1 .2s-.2 0-1.2.8c-.9.8-2.1 1.1-2.7 1.6-.1.4-.3.4-.3.4h-.9c-.3.9-.1.9.5.9.7 0 .5 0 .6.6 0 .7 0 .6-.6.9-2.3.3-4.9 2.2-4.9 2.2-.8.9-1.7.5.5 1.8 2.2 1.7 2.5 1.2 4.1 2s1.6.2 1.7-.6c0-.8-.4-.8-.2-2.6s-.2-1.6 0-1.7c.6-.2.7 0 2 0 1.2-.2.9-1 .8-1s-.5-.5-.7-.8-.7-.1-.9 0c-.2.2-.6.8-1.1.5-.4-.5.3-1.1.4-1.3s0-.5-.2-.5c-.3 0-.3-.3 0-.3 1.3-.4 3.1-1.9 3.9-2.6s0-1.4-.2-1.4Zm-4.3-.3c-.3-.3-.4-.2-.5-.3 0-.1.5-.7.5-.7s.2 0 .2.3.2.9-.1 1.3-1 .5-1.5.7-.5 0-.5 0 .3-.6.7-.7c1 0 1.3-.3 1.1-.7Zm-1.1-1c-.3.4-.5.5-.7.3l.5-.6s.4-.1.1.3Zm-1.7.1c0-.7.4-.8.4-.8h.2c.2 0 .3.3.5 0s0-.2.3-.3.1.2.1.2-.5.4-.5.5c0 0-.9 1-.9.3Zm3.2 2.7s-.2.1-.8.2c-.5.1-3.6 2.4-4.9 3.4s-.9.4-.9.4 2-2.2 2.6-2.5c.7-.3.7-.9 1.1-.9s.9-.3 1.4-.3 1.3-.7 1.3-.7c.5 0 .2.4.1.4Zm.4-2.7c-.2.1-.2-.2-.2-.4s.2-.4.3-.3v.7Zm-4.6 12c-.8-.7-2.2-.8-.7-1.3 1.6-1.2 3.7-1.8 3.7-1.8v3.1c0 .3-2.6 0-3-.2ZM91.9 10.4s1.5.9 1.7 1.5.2 1.6-.1 2.5c-.3 1-.6 1.9-.7 2.6 0 .7-.3 1.5-.4 1.7 0 0-.3.6.7 0 .9-.6 1.1-.5 1.4-.7s1.1-.2 0-1.3c-.2-.8.6-.9.8-.3s.7.6.7.6 1.8-.2.3 1.2c-1.5 1.3-2 .7-2.7 1.2s-1.1.5-1.3.7-.9 3.7-2.2 5-4.3 1.7-4.4.2c.6-.8.7 0 1.2 0s1.9 0 3.5-2.7.8-2.3.5-2-3.4 1.7-3.4 1.7-.5.8-1.2-.2 0-1 .5-.9c.6 0 .2.3 1.4-.3.9-.4 3.2-1.4 3.2-1.4s.5-1.7.5-2.3v-5.8c-.2-1.1.1-1 .1-1Z"/><path class="cls-1" d="M92.6 21.2s3.2 3.4 3.5 3.4h1.8c.4 0 0 1-1.2 1.6-1.1.6-2 1.2-2.9-.6s-1.7-4.3-1.7-4.3 0-.4.4 0Zm-22.8-9.4s-1.1 2.3-1.1 2.5-.2 1.3.7 1.7 1.1-.5 1.1-.5v-.8s.8-.8 0-.8c-.3-.4 0-.4 0-.4V12s-.2-.5-.7-.2m2.4.6s1.5.8 2.5 0 2-.9 2.1-.9.6-.8.9-.8 1.6.8 1.6.8.7.6-.9 1-2.6 1.6-2.7 1.7c-.2.1-.8.3-.7-.5.6-.7 2.1-1.8.7-1.2 0 0 0 .3-.5.4 0 0-.7 0-.8.3 0 .2.3.7.3.8s.3.3-.8 1c0 0-.5.7-.7-.2-.1-.9-1.2-1-1.4-1.1-.1 0-.4-.2 0-.7.3-.5.5-.6.5-.6Zm.8 7.3c.5-.2 1.1-1.5 1.2-1.7 0-.2-.3-.7-1.1-.4-.8.2-.7 0-.3-.3.3-.2 0-.8-.1-.8-.2 0 0-.2-.1-.8 0-.5-.9-.2-.9-.2 0 1.2-.2 1.3-.2 1.3-.4 0-.8 1-.5 1.1.8 0 .2.6.2.6s-1.5 1.3-1.6 1.1c0-.2-.2-.4-.4-.3-.2 0-.3-.2-.4.9 0 1.1.4.7.7.6.3 0 .6-.6 1.2-1.1.5-.5.2.3.2.3l-.4.2s-.5.4-.1.6 0 .6 0 .6-1.3 1.1-1.8 1.7.1.5.1.5 1-.8 1.3-1 .3-.5.4-.1c0 .4-.1.5-.1.5s-1 .6-1.4.9c-.5.3-.4 0-.4-.1s-.4-.7-1.2 1c.1 1.8 1.4.6 2.3-.1s.6.5.6.5 0 .5-.4.7-.1 1.4.3 2c.6.3.5.2.9-.1s.6-1.6.6-2.2.2-.9.3-1.4c0-.5 0-.4.7-.8 1.6-.7 1.1-1.1 1-1.4s-.3-.4-.3-.7.3-1-.1-1c-.3 0-.6-.3 0-.5Zm-.8 2.4c-.3.4-.4-.3-.4-.5s.4-.9.4-.9l.2.3c.2.3.1.7-.2 1.1m.3-3.1v-.6c.1 0 .6-.5.6-.2s0 .5-.3.8-.4 0-.4 0Zm4-1.8s-.4-.3.7-.8c.7-.5 1.1-.5 1.4-.4.3 0 1.3.3.7 1s-2 2.3-2.3 2.5.3.6.3.6.5 0 .6.3.3.5-.7.9c0 0-.9-.3-1.1-1.1s.9-2.5 1.2-2.7c.2-.2.7-.7-.1-.3s-.6.1-.6.1Z"/><path class="cls-1" d="M75.8 18.6v2.6c.1 0 .5.5.1 1.5-.4 1.1 0 1.3 0 1.4 0 .2-.1.3.6.3s3.4-.4 3.8-.6c.3-.2.3-2.5 0-3.2-.3-.6 0-1.5.6-.2.1.3.6 1 .6 1.5s0 1.2.4 2c.2.9.3 1.6-3.1 1.6-3.3.3-3.8.3-4.5-.8 0 0-.3-2.2.4-4s1.1-2.1 1.1-2.1m-22-8.9s.3-.3.8 0 1.4.2 1.7 1.2c.3.9-.7 1.2-1 1.4s-4.4 6.5-4.9 6.5c-.4 0-.7.5-.5-.8.9-1 4-5.5 4.4-6.3.3-.8.3-.8 0-1-.3-.3-.6-.4-.5-.9Zm-2 8.3s3-2.5 3.6-2.6c.5 0 1.3.6.6 1.3-.6.6-1.7 1.3-1.1 1.6.7.3 1.2.9-.2 1-1.3.1-1.3-.1-1.5-.5 0-.2.4-.7.5-.8 0-.1.2-.6-.9 0s-1-.2-1-.2Zm-.4 1.6s.6 0 .6 1.3c.3 1.3.6.8.5 2.5 0 .6 0 .9-1 1.3-.9 0-1-2.5-.8-2.7s.5-.3.5-1.1c0-.7-.2-1 .2-1.3m1.6 1s1.7-.8 2.3-.8 1.2-.3.6 1.7-.9 2-1.3 2.1c-.4 0-1.6-.3-1.2-1.5.8-.6 1.2-.7.1-.8-1.1-.4-.5-.8-.5-.8Zm9-4-2 .8s0-.4-.3-.7 0-.6 0-.6 1.8-1.1 2.7-1.8.4-1.4-.3-1.3-4.6 2-4.6 2-.6.8.6.8c1.6 0 .7.4.4 1.1s.6.2.2.9c-.4.8.1.2-.3 1.1-.5.9-1.3.9-1.9 1.7-.4.9.8.7 1 .5s.9-1.5.9-1.2.1 1.3-.3 1.9v2.7c-.1 0-.5 2.3-.3 3.1s.6 1.2.8 1.2.6-1.1.8-1.9 0-4.3 0-5.1c0-.9.2-.3.8-.4.5-.1 1.4-1.2 2.7-3.1s-.9-1.6-.9-1.6Zm-.3 1.5c-1 1-1.6 2-1.6 2s-.7.2-.2-1.1c.4-1.3 1.2-1.5 1.7-1.6.5-.2 1.2-.3.2.7Zm-17.5-2.8c-.2 0-1.4.2-1.9.8-.8.6-3 2-3 2s-1.8 1.3-1.5.8 1-1.5 1.2-1.9c.2-.3 2.1-1.5 2.1-1.5s.2-.3 1-.5c.4-.1.9 0 .5-.9-.3-.6-1.2-.4-1.3-.3-.2 0-.8.4-.8.2s0-.9.2-1.7c.1-.8-1.2-2-2.1-2.2-.1 0-.6 0-.7.4.7.3.5 3.2.3 4.4.2.6-2.3 1.3-2.5 1.4-.2 0-1.7 0-1.7.1 0 0-.4 1.1.2 1.1s.9 0 1 .2c.1.1 0 .4 1.3.2s.7.4.7.4l-.3.4c-1.5 1.8-1.1 1.5-2.1 1.9-.9.9-1.8.6-2.4 1.2.4.7 0 .5 0 1.8s-.2.8-.2 2c.9 1.8 1.6.5 1.6.5.6-1.3-.4-2.7-.6-2.9-.2-.3 0-.7 0-1 .4-.2 2.6-.8 2.6-.8.7.4 1.3.8 2 .5s1.2-1.6 1.7-1.8.3.3.3.3-1.7 2.3-1.8 2.5-.3 0-.4.2c-.1 0-.5.7.1.7s.4.3.4.4-.4.1-.4.1c-.3.3-.7.6-.4 1.3s.3.2.7 0c.4-.3.3.3.2.4l-.2.5c0 .8.4.7 1.2.4.9-.3.6-1.5.6-1.8s0-.8.4-.7c.4.2 2 1.8 2.6 2.3s1.5.2 1.5-.3c.2-2.5 0-8 .8-9.1.4-1.5-.5-1.5-.7-1.6Zm-.9 2.2c-.2.9-.2 6.2-.3 6.7 0 .5-.4.8-1.1.4-.5-.3-.9-.6-1.4-.9 0 0 .4-.8-.7-.6-.2 0-.2-.4.2-.4s.4-.9.1-.9-.8.3-.3-.6c.5-.8.8-.6 1-.9s1.3-1 0-1.6c-1.2-.2-1.6.7-2.1 1-.5.2-1.2 1.1-1.4 1.1s-.8 0-.6-.4l6-3.5s.6-.4.5.5Zm-15.7-5.1c-.2 0-.5-.3-1.2 0-1 .6-1.5.6-2.1 1.2-.4.7-.5.4-.8.7s-.4 1.1-.3 1.4c.2.2.2.5.2.5 0 1.2-.6 2-1 2.3-.4.4-.8 1.9-1.1 1.7s0-.3-.3-.5c-.2-.2-.7-.2-1.1 0s-.7.6-.6 0c0-.5.4-1.4.5-2.1.7-.3 2.7-2 3-2.6.4-.6 0-.8 0-.8s-.5 0-.9.5c-.4.6-1.6 1.8-1.6 1.3 0-1.4 2-3.4 2.4-3.9s-.2-.9-.5-.8c-2.3 2.1-3.2 4.8-3.7 6.4-1.9.6-2.3 1.4-2.7 2.5-.4 1.2 0 4.2 0 4.7 0 .4-.3.4-.4 0v-4.7c.1-.8.6-1.5.9-1.9s0-.4 0-.4c-1.2-1.9-1.1-2.3-.8-2.7.2-.3.6-1.2.6-1.2.3-.5.2-1 .4-1.4.2-.5.2-.5.4-.6h.5s.6-.2.6-.8c0-.5-.2-.8-.4-1.1s-.7-.9-1.5-.9-1.2.1-1.2.1v2c.5.6.5 1.1.4 1.5s-1.2 3.3-1.2 4c0 .3.2 1.2.3 1.8 0 .6-.2 1.5-.2 1.5s.1 4.9.6 5.7.9.7 1 .6 1.1-1.4.6-1.7-.4-.5-.4-.5 0-.7.1-1v-1.8c0-.7.3-.9.3-1.2s0-.4.9-.9 1-.4 1-.3-.2.6-.3 1.4-.2.7-.5.8c-.2.2-.8.1-1 .5s0 1.4 0 1.4.5 1.3 1.2.9c.6-.4.4-.8.4-1.1s-.3-.3-.3-.6.3-.6.8-1c1-.7.7 0 .6.3-.1.2-.6.5-.9 1.3s1 .9 1.4.8c.3 0 .5-.2.5-.8s.2-.5.5-.7S22 21 22 20.9v-.5c0-.5.4-.7.4-.4 0 .8-.7 1.5-.8 1.9-.1.3.4 2.2 0 2.7s-.2 1.5-.2 1.6.2 1.1.7.7.4-.6.7-.9c.3-.4 0-1.7.2-1.7s.9 1.1 1.4 1.8c.5.8 1.9 1.5 2.3-.2-.3-2.5-.3-7.7 0-9.4s.6-2.5 1.2-2.4c.9-1.3 0-2.1-.2-2.2Zm-4 5.3c0-.2.3 0 .3 0s.1 0 0 .3v.3s-.3 0-.2-.3v-.4Zm-.5 6.6c-.2-1.4 0-3.2 0-3.2.3 0 .9.4 1.3-.2s.5 0 .5.3 0 3.9.2 4.2c-.2.4-.9-.2-2.1-1.1Zm2.8-9s-.6 1.8-.6 2.4-.1 1.4-.3 1.6-.5.5-.4-.2c.2-.6.4-1.2.5-1.6 0-.4-.8-.6-1-.7-.1 0-.3-.2-.3-.2s.7-1.6 1.7-1.9.3.5.3.5Z"/></g></svg>