<svg width="128" height="136" fill="none" xmlns="http://www.w3.org/2000/svg"><g filter="url(#a)" fill-rule="evenodd" clip-rule="evenodd" fill="#e60013"><path d="M102.104 54.04s-1.37-4.758-1.55-5.047l1.622-.649.538 1.623-.54.18-.322-.974-.574.289.466 1.514 1.802-.613s-.433-1.838-1.045-2.92l-2.884 1.154s1.982 5.983 1.946 6.272l2.962-.765s-.511-2.535-.727-2.787l-1.694.488.446 1.55.599-.155-.252-1.035.549-.166s.352 1.536.352 1.716l-1.261.325zM99.6 46.936s-2.362-4.352-2.6-4.595l1.445-.983.874 1.469-.49.292-.523-.881-.498.405.78 1.378 1.629-.986s-.819-1.702-1.65-2.627L96 42.156s3.223 5.417 3.25 5.706l2.728-1.385s-1.044-2.365-1.309-2.565l-1.55.842.77 1.417.551-.28-.469-.956.5-.28s.675 1.424.713 1.6l-1.162.588zm-3.792-6.609s-3.192-3.785-3.474-3.974l1.216-1.255 1.153 1.262-.42.385-.691-.757-.407.497 1.044 1.192 1.395-1.295s-1.145-1.502-2.146-2.239l-2.162 2.23s4.252 4.654 4.337 4.932l2.391-1.907s-1.5-2.106-1.8-2.248l-1.348 1.137 1.04 1.233.483-.386-.652-.842.433-.376s.949 1.26 1.022 1.424l-1.02.811zm-5.183-5.606S86.85 31.52 86.54 31.38l.99-1.44 1.348 1.053-.351.45-.807-.632-.318.558 1.227 1.002 1.16-1.508s-1.378-1.291-2.487-1.852l-1.762 2.558s4.966 3.883 5.095 4.143l2.042-2.278s-1.83-1.827-2.149-1.917l-1.14 1.345 1.23 1.043.413-.461-.783-.721.365-.443s1.144 1.083 1.244 1.234l-.87.969-.36.24Zm-5.968-4.613s-4.329-2.405-4.66-2.482l.691-1.604 1.526.77-.256.509-.915-.463-.202.61 1.398.743.844-1.706s-1.603-.997-2.8-1.33l-1.23 2.852s5.628 2.84 5.806 3.07l1.558-2.633s-2.15-1.435-2.481-1.461l-.857 1.541 1.41.784.315-.533-.908-.555.272-.505s1.333.84 1.46.967l-.665 1.12zm-6.95-3.358s-4.75-1.396-5.091-1.398l.322-1.718 1.658.416-.138.553-.994-.25-.064.639 1.527.419.45-1.85s-1.784-.621-3.025-.684l-.573 3.053s6.114 1.536 6.338 1.72l.942-2.91s-2.413-.928-2.742-.88l-.496 1.691 1.547.455.19-.59-1.008-.341.154-.552s1.486.526 1.638.623l-.403 1.238zm-7.33-1.957s-4.934-.418-5.268-.353l-.027-1.746 1.707.076-.024.57-1.024-.047.064.639 1.58.105.072-1.903s-1.872-.252-3.1-.065l.048 3.105s6.297.284 6.553.42l.342-3.04s-2.55-.427-2.862-.315l-.149 1.757 1.607.136.069-.615-1.056-.133.04-.573s1.56.22 1.73.284l-.148 1.294zm-7.651-.432s-4.941.317-5.261.43l-.286-1.722 1.7-.178.06.567-1.02.105.159.623 1.578-.13-.212-1.893s-1.888.029-3.076.395l.508 3.064s6.27-.652 6.544-.555l-.112-3.057s-2.585-.045-2.878.112l.114 1.76 1.61-.104-.024-.618-1.064.024-.045-.572s1.576-.014 1.752.024l.046 1.302zm-7.564.939s-4.778 1.3-5.069 1.476l-.625-1.63 1.63-.515.172.543-.978.308.28.578 1.521-.444-.586-1.811s-1.845.405-2.935 1.003l1.111 2.9s6.012-1.895 6.3-1.855l-.722-2.972s-2.541.473-2.797.686l.463 1.701 1.557-.424-.147-.6-1.038.236-.158-.551s1.541-.33 1.722-.327l.306 1.266zm-7.126 2.4s-4.39 2.29-4.637 2.523l-.959-1.46 1.483-.85.284.493-.89.51.397.505 1.392-.758-.96-1.645s-1.715.79-2.653 1.606l1.704 2.597s5.47-3.134 5.76-3.156l-1.34-2.75s-2.382 1.004-2.586 1.266l.815 1.564 1.43-.746-.271-.556-.963.453-.273-.505s1.436-.651 1.612-.687l.57 1.172zm-6.739 3.79s-3.837 3.13-4.032 3.41l-1.234-1.237 1.28-1.132.379.426-.769.678.49.415 1.21-1.024-1.272-1.416s-1.52 1.12-2.274 2.109l2.194 2.198s4.723-4.175 5.003-4.255l-1.868-2.422s-2.13 1.465-2.277 1.763l1.114 1.366 1.25-1.02-.378-.49-.852.64-.368-.44s1.274-.928 1.44-.999l.794 1.033zm-5.729 5.018s-3.29 3.7-3.437 4.007l-1.415-1.025 1.083-1.32.442.36-.651.792.55.331 1.031-1.203-1.481-1.196s-1.323 1.348-1.91 2.444l2.517 1.821s3.998-4.874 4.26-4.997l-2.229-2.094s-1.87 1.785-1.967 2.103l1.318 1.171 1.072-1.205-.452-.424-.739.766-.434-.375s1.11-1.119 1.262-1.215l.949.893zm-4.722 5.882s-2.474 4.289-2.556 4.62l-1.593-.718.794-1.514.505.264-.477.908.606.213.766-1.386-1.692-.873s-1.023 1.588-1.376 2.78l2.832 1.275s2.93-5.58 3.163-5.756l-2.606-1.6s-1.47 2.127-1.502 2.458l1.528.88.805-1.397-.527-.323-.57.9-.5-.28s.86-1.32.99-1.445l1.11.683zm-3.396 6.908s-1.601 4.685-1.619 5.025l-1.701-.397.488-1.638.546.162-.293.982.635.092.485-1.508-1.828-.53s-.698 1.756-.815 2.993l3.025.706s1.8-6.042 1.995-6.257l-2.866-1.069s-1.033 2.37-1 2.7l1.668.571.522-1.526-.58-.216-.385.992-.546-.178s.591-1.46.694-1.608l1.22.456zm-6.753 5.366s1.97.53 2.74 1.707c0 0 1.105-1.707 1.754-.529l.432.913s2.14-1.08 3.124-.36c0 0-1.562.12-1.994 1.754 0 0-.553 2.548-2.403 3.485l-.048.841s.576.577.673 1.01c0 0 1.321-1.106 3.027-.962 0 0-1.85.937-1.874 3.437 0 0-.216 2.187-1.682 2.619v.985s.769.169.961.721c0 0 1.034-1.322 2.908-1.442 0 0-1.538.962-1.298 4.038 0 0-.288 1.682-1.057 2.45l.12.77s.865.312 1.057.745c0 0 1.562-1.995 2.644-1.85 0 0-1.442 1.345-.577 3.292 0 0 .505 1.922-.553 3.605l.36.576s.842.145 1.13.841c0 0 .12-1.898 2.163-2.499 0 0-1.298 1.802.337 4.061 0 0 .384 1.25-.265 2.764l.505.721s.89.048 1.081.409c0 0 .385-2.524 1.85-2.788 0 0-1.008 2.163.313 3.004 0 0 1.634 1.802.962 3.941l.552.553s.865-.24 1.202.144c0 0-.144-1.995 1.25-3.148 0 0-.601 2.307 1.345 3.46 0 0 1.346 1.442 1.082 3.197l.576.504s.169.313-.384.24l-.625-.288s-1.97.793-3.22.048c0 0-1.658-1.322-4.11-1.105 0 0 .601-1.058 2.596-1.37 0 0-.192-.673-.072-1.274l-.529-.576s-2.836.24-3.87-.77c0 0-.96-1.658-3.34-1.49 0 0 .289-.84 2.932-1.033 0 0-.264-.673-.144-1.297l-.577-.794s-1.874.481-3.268-1.225c0 0-1.25-1.85-3.244-2.235 0 0 1.49-.6 3.124-.337 0 0-.144-.865 0-1.321l-.336-.625s-2.043.072-3.22-2.163c0 0-1.034-2.139-2.788-2.571 0 0 1.682-.505 3.316.192 0 0-.048-.721.216-1.322l-.144-.817s-2.331-.649-2.836-2.692c0 0-.697-1.922-2.235-2.86 0 0 1.539-.095 3.22.602 0 0 .025-.625.385-.89l-.048-1.057s-1.802-.336-2.259-2.643c0 0-.096-2.091-1.634-3.677 0 0 1.658.072 2.836 1.225 0 0 .408-.865.649-.961l.024-1.033s-1.418-.601-1.61-2.596c0 0 .24-3.124-1.13-4.037l-.157-.235zm86.606 0s-1.971.53-2.74 1.707c0 0-1.105-1.707-1.754-.529l-.432.913s-2.139-1.08-3.125-.36c0 0 1.562.12 1.995 1.754 0 0 .553 2.548 2.403 3.485l.048.841s-.576.577-.672 1.01c0 0-1.322-1.106-3.029-.962 0 0 1.851.937 1.875 3.437 0 0 .216 2.187 1.682 2.619v.985s-.769.169-.961.721c0 0-1.033-1.322-2.908-1.442 0 0 1.538.962 1.298 4.038 0 0 .288 1.682 1.057 2.45l-.12.77s-.865.312-1.057.745c0 0-1.563-1.995-2.644-1.85 0 0 1.442 1.345.577 3.292 0 0-.505 1.922.552 3.605l-.36.576s-.84.145-1.13.841c0 0-.12-1.898-2.162-2.499 0 0 1.297 1.802-.337 4.061 0 0-.384 1.25.265 2.764l-.505.721s-.889.048-1.082.409c0 0-.384-2.524-1.85-2.788 0 0 1.01 2.163-.312 3.004 0 0-1.634 1.802-.962 3.941l-.552.553s-.865-.24-1.202.144c0 0 .144-1.995-1.25-3.148 0 0 .601 2.307-1.345 3.46 0 0-1.346 1.442-1.081 3.197l-.577.504s-.169.313.384.24l.625-.288s1.97.793 3.22.048c0 0 1.658-1.322 4.11-1.105 0 0-.6-1.058-2.596-1.37 0 0 .192-.673.072-1.274l.53-.576s2.835.24 3.868-.77c0 0 .961-1.658 3.34-1.49 0 0-.288-.84-2.931-1.033 0 0 .264-.673.144-1.297l.576-.794s1.875.481 3.269-1.225c0 0 1.249-1.85 3.244-2.235 0 0-1.49-.6-3.124-.337 0 0 .144-.865 0-1.321l.336-.625s2.043.072 3.221-2.163c0 0 1.033-2.139 2.787-2.571 0 0-1.682-.505-3.316.192 0 0 .048-.721-.216-1.322l.144-.817s2.331-.649 2.836-2.692c0 0 .697-1.922 2.235-2.86 0 0-1.538-.095-3.221.602 0 0-.024-.625-.384-.89l.048-1.057s1.802-.336 2.259-2.643c0 0 .096-2.091 1.634-3.677 0 0-1.658.072-2.836 1.225 0 0-.408-.865-.649-.961l-.024-1.033s1.418-.601 1.611-2.596c0 0-.241-3.124 1.129-4.037l.157-.235z"/><path d="m33.806 78.362-.666-1.4.218-.103.097.156a.4.4 0 0 0 .108.131.24.24 0 0 0 .162.052.6.6 0 0 0 .21-.06l1.551-.738-.754-1.585-1.517.722a.6.6 0 0 0-.169.113.3.3 0 0 0-.077.17 1 1 0 0 0 .06.347l-.218.105-.666-1.4.218-.104.097.157a.4.4 0 0 0 .108.13.25.25 0 0 0 .162.052.5.5 0 0 0 .21-.06l3.146-1.497q.097-.046.165-.116a.3.3 0 0 0 .077-.168.8.8 0 0 0-.004-.19.8.8 0 0 0-.039-.175l.218-.103.666 1.4-.217.103a1 1 0 0 0-.106-.15 1 1 0 0 0-.114-.122.22.22 0 0 0-.174-.05.7.7 0 0 0-.2.063l-1.352.643.754 1.584 1.321-.628a.6.6 0 0 0 .165-.117.3.3 0 0 0 .077-.168 1 1 0 0 0-.004-.189.8.8 0 0 0-.039-.175l.218-.104.667 1.4-.219.103a1 1 0 0 0-.104-.15 1 1 0 0 0-.115-.121.22.22 0 0 0-.174-.05.7.7 0 0 0-.2.062l-3.143 1.496a.6.6 0 0 0-.168.114.3.3 0 0 0-.078.169.6.6 0 0 0 .013.17 1 1 0 0 0 .047.177zm6.846 2.374a1 1 0 0 0-.154-.157.6.6 0 0 0-.222-.13q-.114-.031-.337.076-.222.107-.518.304l-1.746 1.164q-.334.222-.652.28a1.32 1.32 0 0 1-1.367-.553 1.5 1.5 0 0 1-.237-.564 1.3 1.3 0 0 1 .011-.538q.063-.254.222-.467t.385-.364l2.375-1.584a.6.6 0 0 0 .149-.135.35.35 0 0 0 .056-.184.5.5 0 0 0-.031-.183 1 1 0 0 0-.063-.159l.2-.134.863 1.293-.201.134a1 1 0 0 0-.128-.137 1 1 0 0 0-.133-.108.22.22 0 0 0-.18-.025.7.7 0 0 0-.19.09l-2.22 1.48a3 3 0 0 0-.32.253 1.3 1.3 0 0 0-.257.328.86.86 0 0 0-.1.402q0 .212.17.469.16.24.368.337a.9.9 0 0 0 .432.084q.212-.012.405-.086.192-.074.36-.188l1.648-1.098q.315-.21.49-.378.178-.168.194-.276a.6.6 0 0 0-.03-.283 1.2 1.2 0 0 0-.089-.233l.201-.134.847 1.27zm3.186 3.761a1 1 0 0 0-.193-.132.7.7 0 0 0-.223-.092q-.127-.014-.329.124-.201.137-.477.385l-2.626 2.366-.154-.17 1.421-4.324-1.85 1.666q-.311.28-.451.46-.14.181-.154.307-.014.095.064.279t.117.232l-.18.161-1.025-1.138.18-.161q.052.048.209.133a.6.6 0 0 0 .22.086.55.55 0 0 0 .301-.102q.168-.105.52-.422l1.767-1.591q.116-.105.204-.241a.6.6 0 0 0 .104-.246.8.8 0 0 0-.028-.32.8.8 0 0 0-.112-.252l.18-.161.713.792-1.33 4.024 1.707-1.537q.313-.283.453-.466.14-.181.142-.291a.8.8 0 0 0-.067-.264 1 1 0 0 0-.12-.234l.18-.161 1.016 1.128zm.682 6.485-1.239-.94.146-.193q.174.111.313.152.14.042.184-.018a.7.7 0 0 0 .075-.135l.407-1.049-1.041-.79a10 10 0 0 0-.61.467 3 3 0 0 0-.182.16 1 1 0 0 0-.1.113q-.083.108.003.268t.245.296l-.146.192-1.12-.849.147-.192a1 1 0 0 0 .16.072.5.5 0 0 0 .186.033.8.8 0 0 0 .246-.055q.107-.044.258-.153a230 230 0 0 0 1.73-1.25l1.7-1.24.168.126-1.526 4.07a1 1 0 0 0-.06.225.7.7 0 0 0 .017.211.5.5 0 0 0 .076.16.6.6 0 0 0 .109.127zm-.007-2.482.682-1.833-1.574 1.156zm7.277 1.436a1 1 0 0 0-.224-.063.7.7 0 0 0-.24-.017q-.126.028-.273.223a5 5 0 0 0-.33.516l-1.737 3.079-.2-.113-.028-4.551-1.224 2.168q-.205.365-.281.58-.075.216-.048.34.016.095.148.244.134.15.185.183l-.119.21-1.333-.753.119-.21q.064.028.24.06.176.03.236.01a.55.55 0 0 0 .253-.192q.126-.152.359-.565l1.168-2.07q.077-.138.117-.294a.6.6 0 0 0 .02-.266.8.8 0 0 0-.128-.294.8.8 0 0 0-.186-.204l.119-.21.928.524.02 4.238 1.129-2q.207-.368.281-.585.075-.219.042-.322a.8.8 0 0 0-.147-.228 1 1 0 0 0-.188-.184l.119-.21 1.322.746zm9.074 2.392a1 1 0 0 0-.218.02.6.6 0 0 0-.242.09q-.095.068-.154.31-.057.239-.09.592l-.202 2.09a1.7 1.7 0 0 1-.195.681 1.4 1.4 0 0 1-.384.452 1.32 1.32 0 0 1-.908.258 1.5 1.5 0 0 1-.586-.172 1.3 1.3 0 0 1-.41-.348 1.3 1.3 0 0 1-.223-.467 1.6 1.6 0 0 1-.038-.529l.273-2.841a.6.6 0 0 0-.012-.2.34.34 0 0 0-.107-.16.5.5 0 0 0-.16-.091 1 1 0 0 0-.164-.053l.023-.24 1.547.149-.023.24a1 1 0 0 0-.187.013 1 1 0 0 0-.168.035.22.22 0 0 0-.133.123.7.7 0 0 0-.05.204l-.255 2.656a3 3 0 0 0-.007.407q.014.216.092.407a.9.9 0 0 0 .249.332q.164.135.47.164a.9.9 0 0 0 .494-.071.9.9 0 0 0 .339-.283q.124-.171.188-.368.064-.194.083-.398l.19-1.97q.035-.377.017-.62-.02-.243-.093-.325a.6.6 0 0 0-.237-.156 1.3 1.3 0 0 0-.237-.077l.023-.24 1.519.146zm5.039.152a1 1 0 0 0-.227.052.7.7 0 0 0-.22.102q-.095.085-.13.326-.036.24-.038.612l-.031 3.535-.23-.002-2.227-3.97-.022 2.49a4 4 0 0 0 .035.644q.04.225.122.32.06.075.248.142.19.067.25.07l-.002.242-1.531-.013.002-.242a1.2 1.2 0 0 0 .24-.064.6.6 0 0 0 .211-.105.55.55 0 0 0 .129-.29q.036-.195.04-.669l.021-2.377a1.2 1.2 0 0 0-.04-.314.6.6 0 0 0-.11-.242.8.8 0 0 0-.255-.195.8.8 0 0 0-.261-.089l.002-.241 1.066.01 2.067 3.699.02-2.297q.004-.42-.036-.648-.04-.227-.119-.302a.8.8 0 0 0-.24-.129 1 1 0 0 0-.253-.07l.002-.24 1.52.013zm3.297 4.296-1.676.134-.02-.24q.071-.015.204-.038a.6.6 0 0 0 .186-.056.3.3 0 0 0 .116-.13.5.5 0 0 0 .022-.215l-.278-3.486a.6.6 0 0 0-.044-.196q-.035-.077-.147-.124a1.3 1.3 0 0 0-.403-.086l-.02-.241 1.678-.134.019.241a1.3 1.3 0 0 0-.385.112.23.23 0 0 0-.123.143.6.6 0 0 0-.018.206l.277 3.483a.5.5 0 0 0 .054.195q.045.084.14.128.058.023.185.045a1 1 0 0 0 .215.019l.019.24Zm4.267-5.889a.6.6 0 0 0-.145.087.52.52 0 0 0-.206.351 3 3 0 0 0-.02.287q0 .567.019 1.767.018 1.197.046 2.494l-.207.067a1280 1280 0 0 0-2.446-3.61.66.66 0 0 0-.317-.25.5.5 0 0 0-.177-.034.7.7 0 0 0-.163.016l-.075-.23 1.469-.477.075.23a1.7 1.7 0 0 0-.3.15q-.12.078-.089.169a1 1 0 0 0 .08.152l.636.936 1.254 1.85a132 132 0 0 0-.053-2.785 3 3 0 0 0-.036-.438 2 2 0 0 0-.046-.19.18.18 0 0 0-.092-.108.5.5 0 0 0-.164-.041 1 1 0 0 0-.184.006q-.09.011-.18.03l-.076-.23 1.322-.429zm5.319 1.07.578 1.302-2.767 1.396-.11-.216q.069-.042.175-.12a.7.7 0 0 0 .133-.118.3.3 0 0 0 .044-.172.6.6 0 0 0-.063-.2l-1.564-3.098a.6.6 0 0 0-.115-.165.27.27 0 0 0-.172-.072.8.8 0 0 0-.206.017 1 1 0 0 0-.188.05l-.109-.216 2.58-1.301.524 1.038-.177.09a1.8 1.8 0 0 0-.45-.388q-.288-.181-.44-.135a2 2 0 0 0-.184.07q-.104.045-.233.11l-.524.264.864 1.713.377-.19q.18-.09.241-.177a.44.44 0 0 0 .073-.221 1 1 0 0 0-.031-.28 2 2 0 0 0-.092-.302l.176-.09.85 1.687-.176.088a2 2 0 0 0-.206-.283 1 1 0 0 0-.205-.192.4.4 0 0 0-.243-.071.8.8 0 0 0-.263.087l-.376.19.652 1.294q.1.195.176.296.079.101.168.129.09.026.205-.01.115-.038.309-.135l.204-.103a2 2 0 0 0 .207-.12q.084-.057.163-.137a.3.3 0 0 0 .092-.155q.033-.201.003-.556a4 4 0 0 0-.07-.513zm5.639-1.913-.807.599q-.673-.346-1.183-.58a29 29 0 0 0-1.076-.47l-.306.228.912 1.23a.7.7 0 0 0 .148.15q.076.056.181.037a.6.6 0 0 0 .16-.063 2 2 0 0 0 .174-.1l.144.194-1.268.941-.144-.194q.047-.043.133-.129a.5.5 0 0 0 .108-.135.25.25 0 0 0 .015-.171.6.6 0 0 0-.1-.196l-2.08-2.804a.7.7 0 0 0-.148-.153.22.22 0 0 0-.182-.039 1 1 0 0 0-.17.058 1 1 0 0 0-.164.08l-.144-.194 1.385-1.027q.19-.14.394-.214t.423-.062a.95.95 0 0 1 .42.13q.21.119.395.367.165.225.24.436t.065.413a1.2 1.2 0 0 1-.078.373 2 2 0 0 1-.185.364q.504.216.844.367.338.15.828.363.214.096.348.118.132.021.243.016a.6.6 0 0 0 .178-.047q.096-.043.153-.08zm-3.256-2.067q-.26-.352-.571-.443a.65.65 0 0 0-.595.122l-.359.266 1.235 1.664.276-.205a.74.74 0 0 0 .306-.602q.015-.387-.292-.802m4.829-2.054q.202.045.38.158.18.11.36.31.43.473.439 1.026a1.16 1.16 0 0 1-.393.918q-.185.168-.437.263a1.8 1.8 0 0 1-.483.11l.084.26-.157.142-1.14-1.199.159-.144a5 5 0 0 0 .485.306q.232.123.483.184.236.055.452.022a.77.77 0 0 0 .394-.198.8.8 0 0 0 .193-.259.55.55 0 0 0 .046-.276.8.8 0 0 0-.085-.279 1.3 1.3 0 0 0-.204-.285 1.2 1.2 0 0 0-.457-.315.85.85 0 0 0-.533-.026q-.185.05-.422.118a5 5 0 0 1-.418.107 1.33 1.33 0 0 1-.688-.026q-.33-.102-.651-.457a1.5 1.5 0 0 1-.283-.438 1.4 1.4 0 0 1-.102-.482 1.1 1.1 0 0 1 .08-.447 1 1 0 0 1 .253-.366q.191-.174.41-.236.22-.061.436-.074l-.076-.243.156-.142 1.094 1.171-.157.143a8 8 0 0 0-.451-.302 2 2 0 0 0-.447-.21 1 1 0 0 0-.416-.048.67.67 0 0 0-.375.183.54.54 0 0 0-.175.44.75.75 0 0 0 .21.494q.21.232.433.307.222.075.47.029.224-.04.42-.101t.39-.106q.176-.04.359-.055.184-.016.364.023m4.195-1.458-1.06 1.306-.188-.152.114-.173a.6.6 0 0 0 .088-.173.3.3 0 0 0-.014-.174.5.5 0 0 0-.14-.164l-2.716-2.204a.6.6 0 0 0-.173-.103q-.08-.028-.19.021a1.3 1.3 0 0 0-.341.232l-.188-.152 1.06-1.306.187.152a1.3 1.3 0 0 0-.102.168 1 1 0 0 0-.081.188.23.23 0 0 0 .018.187q.05.085.137.156l2.713 2.202a.5.5 0 0 0 .178.096.3.3 0 0 0 .19-.014 1 1 0 0 0 .16-.103 1 1 0 0 0 .16-.142zm.112-6.113-.1.151a2 2 0 0 0-.29-.09 3 3 0 0 0-.342-.06 1.6 1.6 0 0 0-.324-.009q-.15.013-.21.077-.057.06-.131.159t-.133.187l-.085.127 3.217 2.136q.094.063.193.084a.27.27 0 0 0 .19-.028q.047-.025.165-.13a1 1 0 0 0 .167-.171l.201.134-.975 1.468-.202-.134q.035-.064.103-.202a.7.7 0 0 0 .072-.202.3.3 0 0 0-.035-.178.5.5 0 0 0-.163-.157l-3.242-2.153-.085.127q-.045.069-.108.172a2 2 0 0 0-.109.205q-.036.08.012.224.05.144.133.295.083.15.194.296.11.145.19.228l-.102.153-1.092-.725 1.8-2.708zm.962-4.931a.5.5 0 0 0-.011.15q.003.105.025.16.038.126.065.177.026.05.161.218.27.33.561.635.292.306.743.769.165.172.277.25.111.079.345.173l.855.346q.114.045.211.044a.3.3 0 0 0 .182-.067q.047-.04.136-.158a1 1 0 0 0 .125-.196l.224.09-.654 1.62-.224-.09.06-.215a.7.7 0 0 0 .03-.208.28.28 0 0 0-.08-.174.6.6 0 0 0-.189-.114l-1.089-.44a.7.7 0 0 0-.202-.027 9 9 0 0 0-.345-.006 59 59 0 0 0-1.776.02 2 2 0 0 0-.329.033 1 1 0 0 0-.22.077.5.5 0 0 0-.128.112 1 1 0 0 0-.091.135l-.224-.09.596-1.477.224.09q-.095.252-.098.37t.066.145a.3.3 0 0 0 .072.013l.136.007h.456q.326-.002.655-.01l.853-.018q-.644-.705-1.009-1.086t-.454-.418a.18.18 0 0 0-.133-.005.3.3 0 0 0-.113.082.7.7 0 0 0-.095.14l-.08.147-.224-.09.486-1.204zm-37.898 29.326q1.44-.05 1.784-1.473.184-1.208-.696-1.458-.82-.103-1.054.806-.1.843.58 1.049.217.048.466-.071-.355.902-1.157.996zm.605-2.096q.12-.76.453-.669.369.08.216.931a5 5 0 0 1-.124.492q-.228.103-.38.07-.338-.054-.165-.824m2.586 2.829.444.056 1.236-2.702.017-.187-1.757-.219-.14.815.153.019q.052-.201.124-.23.056-.05.26-.024l.87.108zm4.435-2.271q-1.457.046-1.794 1.528-.16 1.176.706 1.403.813.14 1.03-.773.124-.876-.558-1.063a.73.73 0 0 0-.484.067q.311-.853 1.157-.996zm-.622 2.092q-.105.784-.456.688-.352-.078-.193-.965a5 5 0 0 1 .085-.365l.013-.074a.5.5 0 0 1 .382-.089q.338.054.17.805Zm1.454.35-.004-.384.78-.007.003.384zm2.745-2.322-.24-.014a2.8 2.8 0 0 1-.889.663l.066.136a2.3 2.3 0 0 0 .52-.214l-.042 2.102q-.004.168-.159.179l-.274-.016-.003.169 1.406.08.004-.169-.292-.016q-.155-.009-.15-.216zm1.796 3.07q1.427-.2 1.622-1.651.057-1.22-.844-1.377-.825-.018-.964.911-.012.849.685.983.222.025.456-.119-.259.934-1.047 1.11l.093.143Zm.385-2.147q.04-.77.38-.713.377.042.312.904-.016.205-.072.502-.217.126-.37.109-.343-.02-.25-.802m2.573 1.649 1.7-.25-.072-.861-.136.02q.034.374-.258.398l-.816.12q.156-.289.462-.713.523-.665.4-1.14-.195-.768-.919-.718-.724.144-.696 1.051l.17-.025q.01-.514.394-.609.428-.044.554.544.199.408-.655 1.747a3 3 0 0 0-.16.27zm4.109-3.945q-1.388.447-1.301 1.964.171 1.175 1.067 1.153.82-.09.775-1.028-.124-.876-.83-.867a.73.73 0 0 0-.446.198q.062-.906.836-1.277zm-.019 2.181q.116.784-.248.788-.36.023-.451-.873a4 4 0 0 1-.02-.374l-.008-.075a.5.5 0 0 1 .342-.192q.341-.041.385.726m17.952-62.203c-.004.004 0 1.306-.996 1.854 0 0 1.425.39 1.835.536 0 0 .48-.055-.294-.772 0 0-.339-.045-.448-.228 0 0 .21.026.322-.032 0 0-.235-.443.136-.16l.371.39s.329-.078 1.677-.07c0 0 .774.173 1.048-.499 0 0 .225.973-1.223.796 0 0-.715-.171-1.235-.066 0 0 .394.614.17.815 0 0 2.289.935 1.963 1.535 0 0-1.256.23-3.214.173 0 0 .455.81-.467.807 0 0-2.038-.741-2.183-.704 0 0-.157.023-.387.186 0 0 1.556 1.123 1.005 1.62 0 0-.979-.247-1.445-.745 0 0 1.615.713 1.018-.108 0 0-.702-.615-.856-.507 0 0-1.906 2.168-2.403 1.844 0 0-.74-1.133-.618-1.805 0 0 .267 1.334 1.044 1.375 0 0 1.346-.948 1.798-1.505 0 0-2.078-1.127-2.247-1.095 0 0-.696-.88-.396-.809 0 0 2.538 1.237 2.987 1.575 0 0 .123-.26 1.402-.052 0 0 1.94.223 1.007-.121 0 0-1.97-1.028-2.433-1.66 0 0 2.312 1.166 2.506 1.523 0 0 .37-.133.275-.289 0 0 .138-.001.215.167 0 0 3.383.12 2.819-.343 0 0-1.564-.986-1.9-.924l-.852.026-.149.407-.118-.427s-.947-.05-1.093-.217c0 0 2.1.13 1.203-.226 0 0-1.612-.474-2.09-.137 0 0 .038-.505.468-.95 0 0 .266-.22.47-.508 0 0-.056.757-.445 1.062l.46.075s.856-.618 1.257-1.904l.028.059z"/><path d="M92.395 43.005s-.127.618-1.127.509l-.532-.203s.982.131 1.647-.347l.006.022zM74.118 29.519s.882-1.31.606.231c0 0-1.177 2.373-1.63 2.797 0 0 1.093-.106 1.652-.454l.044-.76s.3.856.101 1.142c0 0-1.216.602-2.156.659 0 0-1.602 2.138-3.143 2.127 0 0 1.968-.694 2.319-2.08l-.922.009s-.417-.141-.046-.29l1.554-.256 1.55-2.881z"/><path d="M72.727 33.634c.004-.008 1.315 2.496 2.53 2.85 0 0 .22.353-.642.202 0 0-.733-.073-.934-.734 0 0-.645-1.714-.978-2.158l-.049-.098s.07-.053.073-.062M31.27 43.708c-.013-.007 2.03.817 2.15 1.511 0 0-.024-.682-.689-1.388 0 0-.511-.321-1.377-.164l-.047.013s-.023.035-.036.028Zm6.966 3.069s.082.52-.504.216c0 0-.183-.092.001-.328 0 0-.81-1.945-.17-1.954 0 0 .43.207.698.541 0 0 .2-.122.028-.307 0 0-.41-1.128-.806-1.46 0 0 .03-.61.385-.334 0 0 .575.7.838.904 0 0 2.663 2.246 3.017 3.23 0 0 .224.553-1.081.197 0 0 .892-.117.324-.634 0 0-2.462-2.723-2.85-2.821 0 0 .832 1.86 1.118 2.361 0 0-.268.374-.624.072 0 0-1.147-2.08-1.127-1.103 0 0 .442.925.647 1.286l.056.082z"/><path d="M36.511 42.647s.576-1.128.354-1.976c0 0-.006-.5.323-.199 0 0 1.403 1.881 4.62 3.946 0 0-1.088.717-1.294.672 0 0 1.804-.304 2.222-.471 0 0 .126-.162-.44-.457 0 0-4.168-2.92-4.63-4.002 0 0-.58-1.145-1.088-.18 0 0-.007 2.35-.067 2.507l-.053.16z"/><path d="M36.957 42.836s.903-.686 1.576-.044l.314.732s.444.285.936.227c0 0-.203.402-.728.22 0 0-.498-.279-.602-.682 0 0-.322-.798-1.55-.406l.037-.033zm-1.55 4.95s2.648 1.525 1.686.344c0 0-.942-1.426-1.327-1.551 0 0-.246.069-.355-.537l.019-2.01s-2.396-2.439-1.523-2.166l.265.062 1.372-.12s.269-.254.68.21c0 0-.306 2.477-.023 3.28 0 0 .019.165-.324.607 0 0-.086.11.308.417 0 0 1.033 1.36 1.423 1.915 0 0 1.417 1.734 1.364 2.046 0 0-.407.443-.807.007 0 0-1.267-1.111-1.555-1.31l-1.033-1.005zm-1.022-5.734s.736-.102.876-.017c0 0 .395.24.423.397 0 0-.016.842-.237.692l-.999-.888zm15.035-8.555c.01.033.176.216 2.13-1.698 0 0-.205-2.148.234-2.373 0 0 .502 1.117.37 1.82 0 0 .42-.008.79-.72 0 0-.272-.46-.024-.257 0 0 .468.185.341.352 0 0-1.725 2.334-3.04 2.832l-.907.135s.095-.125.106-.091m1.266 3.57s.004.414-.343-.143c0 0-.248-.757.284-2.4 0 0 1.21-1.887 2.873-2.943 0 0 .334-.477.715-.306 0 0 .055-.053.321.98 0 0 .677 2.895 1.289 3.935 0 0 .217 1.328-1.161.547 0 0 1.035.175.793-.563 0 0-1.247-3.201-1.264-4.14 0 0-.086-.482-.762-.112 0 0-2.175 1.708-2.05 2.312 0 0 .531.57.99-.629 0 0 .504-.452.517.031 0 0-.607.913-.195 1.063 0 0 .91.07.624.967l.233 1.21s-.1.19-.465-.867c0 0-.56.719-.71.262l.189-1.19s-.471-.168-.253-.552c0 0-.135-.302-.012-.368 0 0-.394.345-.315.587 0 0-.195.179-.393-.04 0 0-.562-.279-.856.318 0 0-.486.947-.17 1.858l.052.11zm2.121-2.018s.331.237.258.621c0 0-.368.426-.451.171l.083-.686z"/><path d="M64.026 36.112c15.023 0 27.276 12.253 27.276 27.277 0 15.022-12.253 27.275-27.276 27.275S36.75 78.41 36.75 63.389c0-15.024 12.253-27.277 27.276-27.277m-23.6 15.658s.54-1.06 1.124-2.056c0 0 6.675-.853 14.822-5.287 0 0 .432-.396.937 0l2.38 2.019 4.289-4.542 4.181 4.542 2.776-2.127s.397-.108.649.108c0 0 10.85 5.948 14.707 4.939 0 0 1.348 2.285 1.334 2.415l-6.056.014-3.353-1.492 2.307 4.65-2.122-.004-.016 2.972-2.223.02v1.181l-1.863-.88 1.843-2.885-3.805-.08 1.822-4.445-4.325 2.082-11.796-.02-4.32-2.086 1.67 4.423h-3.603l1.704 2.981-1.639.82v-1.147l-2.228.032v-2.981H47.33l2.457-4.653-3.44 1.475zm17.071 24.195 13.057.04.16 1.482-13.497.08s.28-1.723.28-1.602m-.6 2.683-.16.882h14.419l-.321-.882zm-.521 2.203v.962h15.14l-.08-.962s-15.06.08-15.06 0m-.32 2.123-.04 1.081h15.82v-1.161zm.28-7.05-15.5-.08s3.283 6.282 9.242 9.857c0 0 5.35 3.714 12.805 3.991 0 0 7.539.582 14.496-3.63 0 0 5.812-2.92 9.777-10.201l-15.536.072 1.694 9.192-18.853-.072s1.91-9.209 1.875-9.129m16.638-13.377-1.392.842-.008 11.324 1.57-.111s-.089-12.104-.17-12.055m3.653 7.599h2.568v-4.19h-2.568zm-6.194-5.893-3.498.036-.035 8.147 3.533 1.838v-10.02Zm-8.113-.937 3.352.036.072 9.841 3.28 1.73h-10.02l3.316-1.766zm-4.83.937 3.496.036.036 8.147-3.533 1.838v-10.02Zm-2.81-1.983 1.659 1.119.008 11.324-1.658-.023s-.087-12.473-.009-12.42m-13.656-9.385h6.198l-1.663 3.16 2.994.027v3.16h2.05l-.027 1.857h-.749l-.013-1.094.018-.01-3.36.015-.014-.404h.432l.017-1.512-4.815-.013v1.523h.459l-.005.39-2.769.016-.06 13.434S36.7 66.497 38.05 59.29l2.928-2.207s-.06-4.198.046-4.198m-1.09-.013.022 3.56-1.617 1.276s.821-3.547 1.595-4.836m11.93 7.376 1.031.884-.998-.016zm-3.138 9.898h2.568v-4.19h-2.568zm7.128-17.072 1.843.782-1.17 8.33-3.46-2.427 1.946-1.057-1.37-2.451 3.293-.024s-1.13-3.204-1.082-3.153m2.956 1.158-1.178 8.002h1.226l.913-8.002zm1.995 0-.842 7.979h1.202l.265-8.003zm1.922 0-.432 8.027 1.177-.025v-8.026s-.744 0-.745.024m1.827 0h.745l.432 8.002-1.153-.023zm2.62 0 .84 7.979h-1.202l-.264-8.003zm1.994 0 1.177 8.002H69.12l-.913-8.002zm6.888 6.016-1.032.884.999-.016zm10.985-7.187h-6.198l1.663 3.16-2.994.027v3.16h-2.05l.027 1.857h.748l.013-1.094-.017-.01 3.36.014.014-.403h-.432l-.017-1.513 4.815-.011v1.522h-.458l.004.39 2.77.015.06 13.435s3.017-6.937 1.666-14.145l-2.928-2.206s.06-4.198-.046-4.198m1.139-.016-.022 3.56 1.603 1.276s-.873-3.546-1.581-4.836m-16.088.09-1.843.78 1.17 8.332 3.46-2.428-1.947-1.057 1.37-2.451-3.292-.024s1.13-3.204 1.082-3.152m-29.736-4.606s5.688-.681 14.38-5.608c0 0 .52 0 .76.2l2.043 1.763 4.446-4.566 4.286 4.686 2.443-1.963s.24-.16.64 0c0 0 9.343 5.207 14.18 5.267 0 0-4.006-6.788-13.098-9.833 0 0-12.033-4.854-23.929 3.677-.024-.017-3.855 2.833-6.038 6.168l-.13.199zm1.184 45.427-.037 4.254-7.137.108s8.399 6.669 15.86 8.003l.361-1.226s12.436 2.74 22.566-.144l.504 1.442s9.409-2.415 15.825-8.111l-7.138-.036-.107-4.145s-4.723 3.1-7.606 3.749l-.505-1.118s-11.24 4.547-24.316.017l-.618 1.39s-7.172-3.423-7.653-4.183Zm33.373 5.15c-.03 0 5.047-1.983 6.278-3.065v3.304l5.047-.03s-5.708 4.056-11.716 5.768l-.09-.3s1.923-.721 2.163-.932l-1.532-4.295s-.12-.45-.15-.45m-24.582-1.112-1.603 5.246s11.952 4.847 26.227.017l.198-.109-1.622-4.956s-12.827 4.167-22.92-.198l-.214-.101s-.052.094-.066.1Zm-7.832-1.915.052 3.295h-4.788s3.964 3.45 11.635 5.612l.051-.258s-1.908-.727-2.072-.891c0 0 1.648-4.594 1.552-4.762 0 0-3.557-1.322-6.273-2.98l-.144-.108s-.014.077-.013.092"/></g><defs><filter id="a" x="-13" y="0" width="154" height="157" filterUnits="userSpaceOnUse" color-interpolation-filters="sRGB"><feFlood flood-opacity="0" result="BackgroundImageFix"/><feColorMatrix in="SourceAlpha" values="0 0 0 0 0 0 0 0 0 0 0 0 0 0 0 0 0 0 127 0" result="hardAlpha"/><feOffset dy="16"/><feGaussianBlur stdDeviation="6.5"/><feColorMatrix values="0 0 0 0 0 0 0 0 0 0 0 0 0 0 0 0 0 0 0.03 0"/><feBlend in2="BackgroundImageFix" result="effect1_dropShadow_49_9903"/><feBlend in="SourceGraphic" in2="effect1_dropShadow_49_9903" result="shape"/></filter></defs></svg>