<svg xmlns="http://www.w3.org/2000/svg" viewBox="0 0 128 42.9"><defs><style>.cls-1{fill:#0b6f4f;fill-rule:evenodd}</style></defs><g id="_图层_1" data-name="图层_1"><path class="cls-1" d="M89.5 20.4c0-.4.3-.6.6-.8.1-.1.5-.2.5-.4s.3-.3.6-.5q.3-.3.3-.9c0-.4.8-.9.9-1.3 0-.1.2-.4.5-.7 0 0 .2-.2.2-.3.1-.1.2-.2.3-.4.1-.3 0-.5 0-.6-.1-.3-.4.2-.7.7 0 .1-.3.1-.4.2s0 .2-.2.3c-.3.3-.3.6-.8.6s-.5 0-.6-.2c-.1-.3-.2-.8-.1-1.3 0-.7.3-1.3.3-1.5 0-.3 0-.7-.1-1-.1-.2-.2-.4-.5-.4-.2 0-.3 0-.4.1-.2.1-.1.4-.2.7v1.4c0 .2-.3.3-.3.4 0 .6-.1 1.3-.3 2 0 .1-.1 0-.2.2 0 .2-.2.6-.3.8s-.3.4-.5.6c-.3.3-.7.4-1.1.6l-.7.4-1.4.3c-.2 0-.4.2-.6.2s-.5 0-.6.1c-.1.2 0 .2 0 .4 0 .1 0 .3.2.5.3.4.9.7 1.6.8.4 0 .9-.1 1.1-.1h.5c0 .3 0 .4-.2.8-.1.2-.3.4-.4.6 0 0-.1.3-.2.4 0 .1 0 .3-.2.4 0 .2-.3.3-.3.4s0 .4.3.4c.3.1.5.3.7.2.1 0 .3 0 .4-.1.1 0 .1-.2.2-.3.3-.3.7-.6.9-1s.4-.8.7-1.2c.1-.2.2-.4.4-.6.1-.2.3-.4.3-.7Zm2.3 4.2c0-.4.2-.5.3-.8 0-.2.2-.5.2-.6 0-.3-.4-.3-1.1-.2s-.9-.3-.7-.6c.1-.1.4-.3.7-.3h1.9c.7 0 1.1.6.9 1 0 .1-.3.2-.4.3-.4.3-1.7 1.4-1.7 1.2ZM73.3 17c-.2.5-.3 1-.3 1.6v1.1c0 .2-.1.3-.2.5 0 .2 0 .3-.1.5 0 0 .1.2 0 .3 0 .1-.1.2-.1.3v.4c0 .2.2.3.2.5v.7c.1.2.3.4.5.6.1.1.6.3.8.3.8.2 1.3 0 1.9-.2.4-.1.6-.2 1-.4.3-.2-.2-.6-.3-.7-.2-.2-.7-.3-1.1-.2-.5.1-1.1.4-1.4.4s-.3-.4-.2-.8v-.6c0-.2.4-.2.5-.2v-.2c0-.1 0-.2.1-.4 0-.2.2-.3.3-.5.1-.1.2-.2.3-.2 0 0 .2 0 .3-.2 0-.1 0-.3.2-.4l.6-.3c.3-.2.4-.2.5-.4 0 0 .3 0 .3-.2v-.1c-.1-.1-.2-.2-.4-.5 0 0 0-.1-.1-.1 0 0-.2 0-.3-.1-.1 0-.3 0-.4-.2-.5-.4-1.7-.5-1.3 0 0 0 0 .1.2.2.2 0 .4.1.5.2 0 0 .2.4.1.5 0 .1-.4.2-.6.3s-.3.2-.5.3c-.3.1-.6.2-.7 0-.3-.2-.2-1.1-.2-1.7v-.7c0-.2-.2-.3-.3-.3-.2 0-.4 0-.4.7Zm-2.6 5.6v.2s.2.1.2.2c-.2.5-.8 1.1-1.1.3 0-.1 0-.2-.3 0-.1 0-.2.1-.3.2-.2.1-.4.3-.6.4h-.2c-.1.1-.2.2-.3.2-.1.2-.6.3-1 .4h-.4c-.4 0-.7-.1-.8-.3-.2-.2-.1-.3 0-.4.8-.3 2.4-.8 3-1.2.2-.1.5 0 .6-.4v-3.4s-.1 0-.2-.1c-.1 0 .3 0 .3-.2s-.2-.4-.3-.5c-.2-.3-.5-.7-.6-.9v-.2h.5c.3 0 .5.2.8.2h.6l.2.2c.1.1.2.2.3.4v.5c0 .4-.1 1-.1 1.3v.6s-.1.2-.1.3v1c-.1.8 0 1 0 1.1Zm-4-.8c.2 0 .4-.3.6-.4h.8c.2 0 .4-.3.5-.4.2-.4-.5-.4-.7-.5-.5 0-1-.1-1.5-.1-.1 0-.2 0-.3.2 0 0 0 .2.1.3.2.1.6.1.6.2l-.1.2s0 .2-.1.3l-.2.2c0 .2.3.1.4.1Zm-12.5.3c0-.2.2-.3.2-.5.2-.3.3-.7.3-1v-.5c0-.4-.2-.2-.3 0 0 0 0 .3-.1.5v1.6Zm-.4 3.5c.1-.4.3-1 .4-1.4l.4-1.2c.1-.4.2-.6.3-.9 0-.2.2-.3.2-.5V21h.2v.3s0 .2.1.3c0 .1 0 .2.1.3 0 0 .2.2.3.2s.3.2.4.2h.2s0-.2.1-.3c0 0 .3-.1.4-.2 0-.3-.2-.7-.5-.9l-.6-.6v-.5l-.2-.2c0-.2-.1-.3 0-.4 0 0 .1-.1.3-.2s.2-.4.4-.6c.3-.2.7-.6 1-.8 0 0 .2-.1.2-.2 0-.2.2-.3.2-.4s-.2-.1-.2-.3c0 0 0-.1-.1-.2v-.2c-.1-.1-.7-.2-.8-.3v-.5c0-.1-.2 0-.3 0l-.2.1s-.1 0-.2-.1v-.2c0-.2-.3-.3-.3-.3s-.2.2-.3.5v.3c0 .1-.1.2-.2.3-.1.4-.2.8-.2 1v.2c0 .3-.2.7-.3 1 0 .4-.2.7-.3 1v1.3l-.3.3-.2.4v.8l-.2.4v.7l-.7 1.8-.2.4c-.3.6-.4.7.3.7s.6.1.7 0l.2-.2Zm4.5-3.1c-.1 0-.5-.4-.8-.5-.2-.1-.3 0-.3 0v.3l.4.6v.4c.3.5.3 1.4.5 1.9.2.3.9 0 1.3 0s.4-.9.4-1.7l-.1-.1c0-.2-.1-.3-.1-.5v-2.6c0-.5.1-.2 0-.7 0-.2-.2-.7-.1-.9 0-1.2.4-2.2.8-3.3.1-.3.4-.6.6-1 .6-.9.8-1.9 0-2.3-.5-.2-1 0-1.5.5-.4.3-.7.7-1 .8 0 0-.3 0-.4.2-.1 0-.5.2-.7.4-.2.1-.3.4-.4.5 0 .1-.2.2-.3.3 0 .1-.2.2 0 .4h.2c.1 0 0-.2.2-.2.1 0 .2-.3.3-.3.4 0 .4.1.7.1s.5-.1.7-.3.6-.6.7-.6c0 0 0 .3-.1.6 0 0 0 .2-.1.3-.2.3-.3.8-.4 1.3s-.2 1.1-.2 1.6v4.9h-.1Zm-7.4-3.2c-.4.4-.9 1-1 1.5l-.1.3s.2 0 .2-.1c.1-.1.4-.5.4-.5 0-.1.2-.3.4-.5 0-.2.3-.3.4-.4.5-.7 1.1-1.4 1.7-1.1 0 0 .3 0 .2.1v.4c0 .2-.2.3-.3.5-.1.3-.2.5-.2.7v1.1c0 .6-.1.9-.5 1.1-.3 0-.5.2-.9.1-.4 0-.7-.3-.6-.6 0 0 .2-.2.2-.4 0 0-.1 0 0 0v-.1c.2-.1.8-.8.4-.7H51c-.2 0-.4.6-.6 1 0 .1-.1.2-.2.3-.2.2-.2.4-.3.7 0 .2-.4.4-.7.5-.3 0-.6-.1-.6-.5s0-.5.2-.8c.1-.3.3-.6.4-.8.2-.2.3-.5.4-.8 0 0 1-1.4.8-1.5l-1.2-.3c-.2 0-.2-.5 0-.7 0-.2.4-.2.7-.3s.6-.2.8-.3c.2 0 .4-.2.6-.3s.3-.2.5-.4.7-1.4.8-1.7.3-.6.4-.9c0-.2.1-.3.2-.5 0-.2.1-.3.2-.6v-.2c-.2-.3 0-.6.3-.8.4-.2 1 .3 1.3.6.4.4.4.6.4 1.1 0 .7 0 .5-.2.8-.1.3-.5.5-.5.6 0 0 0 .2.3 0 .1 0 .1.3-.2.4-.2.1-.5.5-.7.7-.4.4-1.1 1.2-1.6 1.4-.4.2-1.3 1.5-1.3 1.7Zm-3.4 3.3c.2 0 0 .4 0 .4s-.2.4-.2.3v-.4c0-.1.2-.4.3-.4Zm.1-.6c.2-.3.4-.9.5-1.4 0-.3.3-.7.2-1.4v-.9c0-.3.2-.6.3-.8 0-.2 0-.3.1-.5.2-.3.5-.5.8-.7.4-.2.7-.5.8-.8.1-.5-.2-1.2-.8-1.8-.5-.4-.7 0-.7.7s0 1-.2 1.3c-.3.3-.2 1.1-.4 1.5-.5.7-.4 2.1-.5 3 0 .7-1.1 2.1-1.3 2.7-.2.4 0 .9-.2 1.4-.2.6.2 1.8 1 1 .4-.4.4-.5.7-1 .1-.3.1-.9.2-1.2 0 0 0-.3.2-.6v-.3c.2-.2.2-.1.9-1.3v-1.5c0-.4-.3.4-.3.4 0 .2-.2.6-.2.7 0 .4 0 .5-.4.9-.2.3-.7 1.3-.7.4Zm60.5.5c.2 0 .5-.2.6-.5s0-.5-.3-.1c0 0-.8.6-.3.6m-1.6 1.2c.3 0 .5-.3.4-.6 0-.2-.4-.1-.5 0l-.5.4c-.2.2-.2.3 0 .4s.5-.2.6-.2m5.2-11.2s0-.1.3-.2h.6c.4 0 .6 0 .8.3 0 0 .2 0 .2.2 0 .1.2.3.2.5v.2c-.2.4-.7.4-1.1.6-.3.1-.6.3-.9.4l-1.4.7s-.2.1-.3.2c0 0 0 .2-.2.2h-.2c-.1.1-.2.1-.4.2-.4.2-.9.4-1.3.6-.3.2-.9.5-.9.6v.2c.1 0 .3-.1.6 0 .4.1.7.6.5 1-.1.2-.3.5-.5.6-.3.2-.5.4-.5.7-.1.5 0 1.4 0 2.1s0 .1.3 0c.2 0 .5-.2.7-.3.1 0 .2-.2.3-.2.3 0 1.1-.2 1.3 0 .1.1.2.5 0 .6-.4.4-1.1.6-1.5 1 0 0-.3.2-.3.3v.5c0 .6-.4.9-.9 1.1-.7.3-1.5.5-2.2.5s-.8 0-.9-.1c-.2-.2-.1-.5 0-.9 0-.2.2-.6.3-.8s.3-.3.6-.4c.2-.1.4-.3.5-.3.3 0 .5-.2.6-.3 0 0 .2-.1.2-.2v-.3c-.2-.3-.3-.7-.2-1.1 0 0 .1-.1.1-.2V20c0-.4.2-.7.3-1.1 0 0 .2-.2.2-.3 0 0-.1-.2-.1-.1h-.1s-.2.2-.4.3-.6.2-.9 0c-.2-.1-.2-.4 0-.6 0 0 0-.2.2-.3.1-.1.3 0 .4-.2.1-.1.3-.2.4-.3.5-.2.9-.9 1.4-1.2.4-.2.9-.6 1.3-.8l.9-.5.4-.4.6-.4c.2-.1 1-.6 1-.9 0-.2-.1-.3-.6-.2h-.2c-.2 0-.5.2-.7.3h-.3c-.1 0-.2.2-.3.2-.2 0-.3.2-.5.3-.1 0-.2 0-.4.2 0 0-.2.1-.3.2-.2.1-.4.4-.6.5-.8.6-1.4.6-1.9.1-.2-.1-.2-.2-.3-.5-.2-.4-.1-.8.4-.7h1c.6-.1 1.1-.2 1.3-.2.3-.1.7-.2 1.1-.4.2 0 .4-.1.6-.2.1 0 .2-.1.3-.2h.8Zm-11 2.7c-.4 0-.5 1.3-.1 1.7 1 1.4 3.4-1.2 3.5-1.6-.8.4-1.6.6-2.2.6-.4 0-.6-.7-1.1-.7Zm12 16.8h-2.2v-.2h.2c.2 0 .3 0 .4-.1 0 0 .1-.3.1-.5v-.9l-1.2-1.6c0-.1-.2-.2-.3-.4l-.2-.1h-.2V28h1.9v.2c-.2 0-.4 0-.4.2v.2s.1.2.2.3l.8 1.1.8-1c.2-.3.3-.4.3-.5v-.2h-.4v-.2h1.6v.2c-.2 0-.3 0-.4.1-.2.1-.3.3-.4.4l-1.1 1.6v1.3s0 .2.2.2h.4v.2Zm-3.8-3.1h-.2c0-.2 0-.4-.2-.5-.1 0-.3-.1-.6-.1h-.5v3.3s0 .2.2.2h.4v.2h-2.2v-.2h.1c.2 0 .3 0 .4-.1 0 0 .1-.3.1-.5v-2.9h-.5c-.3 0-.5 0-.6.1-.1 0-.2.3-.3.5h-.2v-1h3.8v1Zm-4.2 3.1h-2.2v-.2h.2c.2 0 .4 0 .5-.1 0 0 .1-.3.1-.5v-2.8s0-.2-.2-.2h-.6V28h2.2v.2h-.4l-.2.2v3.2s0 .2.2.2h.4zM99 30.7h.2c0 .2.2.4.3.6s.3.3.5.4c.2 0 .3.1.5.1h.4c.2 0 .3-.3.3-.5s0-.4-.2-.5c0 0-.2-.2-.3-.2s-.3-.2-.5-.3-.4-.2-.5-.3c-.1 0-.2-.2-.3-.2-.3-.3-.4-.8-.2-1.1q0-.15.3-.3c.1 0 .2-.2.4-.2h1.6c.1 0 .2 0 .2-.2h.2v1.3h-.2c0-.2-.2-.4-.3-.5l-.4-.4c-.1 0-.3-.1-.5-.1s-.3 0-.4.1c-.1 0-.2.2-.2.4 0 .1 0 .3.2.4l.4.2c.2 0 .3.2.5.3.2 0 .3.2.5.3.2 0 .3.2.4.3s.2.3.3.4v.5c0 .2 0 .4-.2.6-.1.2-.3.3-.5.4-.2 0-.4.2-.6.2h-.4c-.1 0-.3 0-.4-.1h-.5s0 .1-.1.2h-.2v-1.4Zm-3.7-.9h.5c.3 0 .5 0 .7-.2s.2-.4.2-.6v-.3s-.1-.2-.2-.2c0 0-.2-.1-.3-.2h-.9zm1.3.2 1.2 1.4s.2.2.3.2h.4v.2h-1.3L95.7 30h-.4v1.4s0 .1.2.2.2 0 .4 0v.2h-2.1v-.2h.4s.2 0 .2-.2v-2.9c0-.2 0-.4-.1-.4 0 0-.2-.1-.4-.1v-.2h2.9c.2 0 .3 0 .5.2.1 0 .2.2.3.3 0 .1.1.3.1.5 0 .3 0 .5-.3.7-.2.2-.4.3-.7.4ZM93 27.9v.9h-.2c0-.2-.2-.4-.3-.5-.1 0-.3-.1-.4-.1h-1.2v1.4H92c.2 0 .3 0 .4-.1 0 0 .1-.2.1-.4h.2v1.5h-.2c0-.2 0-.4-.1-.5 0 0-.2-.1-.4-.1h-1.1v1.7h1.6q.15 0 .3-.3c0-.1.2-.3.3-.5h.2l-.3 1.2h-3.6v-.2h.4s.1 0 .2-.2v-3.2s0-.2-.2-.2h-.4v-.2h3.5Zm-5.7 4.2h-.2l-1.6-3.4c0-.1-.1-.3-.2-.4l-.2-.2h-.2v-.2h1.8v.2c-.2 0-.4 0-.4.3v.2s0 .2.2.3l1 2.1.8-2c0-.2.1-.4.1-.5v-.2h-.3v-.2h1.2v.2h-.2l-.2.2c0 .1-.1.3-.2.5l-1.2 3.1Zm-2.8-.1h-2.2v-.2h.2c.2 0 .4 0 .5-.1 0 0 .1-.3.1-.5v-2.8s0-.2-.2-.2h-.6V28h2.2v.2h-.4l-.2.2v3.2s0 .2.2.2h.4zm-4.3-4.1h1.7v.2h-.5l-.2.2V32h-.1L78 28.8v2.7s0 .2.2.2h.5v.2h-1.8v-.2h.2c.2 0 .3 0 .4-.1 0 0 .1-.2.1-.4v-2.7c0-.1-.2-.2-.3-.3-.1 0-.3-.1-.4-.1v-.2h1.3l2.7 2.8v-2c0-.2 0-.3-.1-.4 0 0-.2-.1-.4-.1h-.2V28Zm-8.6 0h2.2v.2h-.4l-.2.2v2.2c0 .3 0 .5.2.6.1.2.3.3.4.4s.4.1.6.1q.6 0 .9-.3c.3-.3.4-.5.4-.9v-1.8c0-.2 0-.3-.1-.4 0 0-.2-.1-.4-.1H75v-.2h1.6v.2h-.3l-.2.2v2.1c0 .4 0 .7-.2.9s-.4.4-.7.5-.6.2-.9.2-.6 0-.9-.2c-.3 0-.5-.3-.7-.5s-.3-.5-.2-.8v-2c0-.2 0-.3-.1-.4 0 0-.2-.1-.4-.1h-.2v-.2ZM67.8 32h-2.2v-.2h.2c.2 0 .4 0 .5-.1 0 0 .1-.3.1-.5v-2.8s0-.2-.2-.2h-.6V28h2.2v.2h-.4l-.2.2v3.2s0 .2.2.2h.4zm-3-4.1v.9h-.2c0-.2-.2-.4-.3-.5-.1 0-.3-.1-.4-.1h-1.2v1.4h1c.2 0 .3 0 .4-.1 0 0 .1-.2.1-.4h.2v1.5h-.2c0-.2 0-.4-.1-.5 0 0-.2-.1-.4-.1h-1v1.7h1.6q.15 0 .3-.3c0-.1.2-.3.3-.5h.2l-.3 1.2h-3.6v-.2h.4s.1 0 .2-.2v-3.2s0-.2-.2-.2h-.4v-.2h3.5ZM58.5 30v1.5h1c.3-.1.5-.4.4-.7 0-.2 0-.3-.1-.4 0-.1-.2-.2-.4-.3-.2 0-.4-.1-.6-.1h-.4Zm0-1.8v1.5h.9c.1 0 .3-.1.3-.3 0-.1.1-.3.1-.4s0-.3-.1-.4c0-.1-.2-.2-.3-.3h-.9Zm-1.5-.3h2.3c.3 0 .5 0 .7.1s.4.2.5.4.2.3.2.5 0 .3-.1.4c0 .1-.2.2-.3.3-.1 0-.3.1-.5.2.2 0 .4 0 .6.2.2 0 .3.2.4.4 0 .1.1.3.1.5s0 .3-.1.5-.3.3-.5.4-.5.2-.8.2h-2.4v-.2h.4l.2-.2v-2.9c0-.2 0-.4-.1-.4 0 0-.2-.1-.4-.1H57V28Zm-5.4 0h2.2v.2h-.4l-.2.2v2.2c0 .3 0 .5.2.6.1.2.3.3.4.4.2 0 .4.1.6.1.4 0 .7-.1 1-.3s.4-.5.4-.9v-1.8c0-.2 0-.3-.1-.4 0 0-.2-.1-.4-.1h-.2v-.2h1.6v.2h-.3l-.2.2v2.1c0 .4 0 .7-.2.9s-.4.4-.7.5-.6.2-.9.2-.6 0-.9-.2c-.3 0-.5-.3-.7-.5s-.3-.5-.2-.8v-2c0-.2 0-.3-.1-.4 0 0-.2-.1-.4-.1h-.2v-.2Zm-3.8 2.2v1.5s0 .2.2.2h.5v.2h-2.2v-.2h.4l.2-.2v-2.9c0-.2 0-.3-.1-.4 0 0-.2-.1-.4-.1h-.2V28h2.2v.2h-.5l-.2.2v1.4h2v-1c0-.2 0-.4-.1-.4 0 0-.2-.1-.4-.1H49v-.2h2.2v.2H51c-.2 0-.3 0-.4.1 0 0-.1.3-.1.5v2.8s0 .2.2.2h.4v.2h-2.2v-.2h.4s.1 0 .2-.2v-1.5h-2ZM18.4 16h.3l.1.1s0 .1-.1.2c0-.1-.2-.2-.3-.3m.9-1.4c.2.2.5.3.7.6h-.7c0-.2-.2-.4 0-.5Zm-1.2.7c0-.1-.3-.1-.4 0 0 .2.3.7.3.7s.9.9.8 1c-.1.5.6.4.3-.2-.3-.2-.1-.2 0-.1v-.1s-.2-.2-.2-.3l.2.2v-.2s-.6-.9-.6-.5-.1-.6-.1-.6c.3.2 1.2 1.1 1.1 1.5.1 0 .2 0 .3-.2-.2-.4-.5-.7-.3-.8s.3-.2.7 0c.2-.1.2-.2.2-.2-.5-.4-1-.7-1.4-1.3-.1-.3-.4-.5-.4-.4 0 0 0 .1-.1.2 0 .2 0 .3-.2.4 0 0 0 .2.1.2l.3-.3s.2.2.2.3c-.1.2-.3.3-.5.1 0 0-.1 0-.2.1 0-.1-.2-.2-.3-.2s-.1.2-.1.3 0 .2.2.3c.2.3.3.6.1.9 0 0-.3-.3-.3-.7Zm16.9.3v.1h.3s-.2-.2-.3-.1m1.5-1.4s.8.2.8.3c.1 0 .3.2.3.2 0 .2 0 .3-.1.3h-1.3l-.2.2h-.2l-.2.2s.2.2.3.2c0 .2.2.1 0 .3 0 .1-.5 0-.5.1h-.3c-.3 0-.5-.3-.4-.6 0 0 .2-.4.4-.2.2.1.3 0 .3 0l.3-.3h-.1c-.2-.2 0-.4.2-.3 0 .2.6 0 .7 0h.7s-.8-.2-.9-.2c-.1-.5.2-.3.3-.2Zm-13.7-1.7c-.2-.3 0-.7.4-.5.2.2 0 .5-.4.5"/><path class="cls-1" d="M23.1 10.9s.2-.2.3 0c0 .2.4 1.5.7 1.6.1.2 0 .2 0 .3h-.2l-.4.4c-.2 0-.3 0-.3-.2.3-.1.4-.2.6-.5l-.6-1.5Zm1-.4H24v.3c.2.5.3 1.1.6 1.6 0 .1.2.2.3.2.2 0 .3-.1.5-.2V12c-.1 0-.1 0-.2.1 0 .1-.1 0-.2 0 0-.2-.2-.3-.2-.5.2-.4.5-.7.4-1 0 0-.1-.2-.2-.2h-.2c0 .3.1.4 0 .5h-.2l-.3-.6Zm6.3 1.1c.1-.4.3-.6.5-1.1 0 0 0-.1.1-.2h.2c0 .3-.2.5-.3.7h.1c.1 0 .3-.2.3-.3h.1c-.1.4-.5.8-.8 1.1-.1.3-.4.6-.8.7-.2 0-.2-.2 0-.4l.2-.1s.1-.1 0-.2h-.4c-.1 0-.2-.1-.2-.3-.2-.3.7 0 .9-.2Zm.3.7s.4 0 .6.1c.1.1-.3.4-.5.4v-.2c0-.1-.2-.3-.2-.3Zm4.9 1.4c0 .2 0 .3.2.3-.3.1-.5 0-.5-.2 0-.3.2-.2.4-.1Z"/><path class="cls-1" d="M27.4 34.7c-7 0-12.8-5.7-12.8-12.8S20.3 9.1 27.4 9.1s12.8 5.7 12.8 12.8-5.7 12.8-12.8 12.8m.1.7c7.4 0 13.5-6 13.5-13.5S35 8.4 27.5 8.4c-7.4 0-13.5 6-13.5 13.5s6 13.5 13.5 13.5"/><path class="cls-1" d="M27.5 31.3c-2.4 0-4.8-1-6.5-2.7s-2.7-4.1-2.7-6.5c0-5.1 4.1-9.2 9.2-9.2s9.2 4.1 9.2 9.2c0 2.4-1 4.8-2.7 6.5s-4.1 2.7-6.5 2.7m0-.3c2.4 0 4.7-.9 6.3-2.6 1.7-1.7 2.6-4 2.6-6.3 0-4.9-4-9-9-9s-9 4-9 9c0 2.4.9 4.7 2.6 6.3 1.7 1.7 4 2.6 6.3 2.6Z"/><path class="cls-1" d="M27.5 13.1c-4.9 0-8.9 4-8.9 8.9s.9 4.6 2.6 6.3 3.9 2.6 6.3 2.6 4.6-.9 6.3-2.6 2.6-3.9 2.6-6.3c0-4.9-4-8.9-8.9-8.9m0 18c-2.4 0-4.7-1-6.4-2.7s-2.7-4-2.7-6.4c0-5 4.1-9 9-9s9 4.1 9 9c0 2.4-1 4.7-2.7 6.4s-4 2.7-6.4 2.7Zm0-18.2c-5 0-9.2 4.1-9.2 9.2s1 4.7 2.7 6.5c1.7 1.7 4 2.7 6.5 2.7 2.4 0 4.8-1 6.5-2.7s2.7-4 2.7-6.5c0-5-4.1-9.2-9.2-9.2m0 18.4c-2.5 0-4.8-1-6.6-2.7-1.7-1.7-2.7-4.1-2.7-6.6 0-5.1 4.2-9.3 9.3-9.3s9.3 4.2 9.3 9.3c0 2.5-1 4.8-2.7 6.6-1.7 1.7-4.1 2.7-6.6 2.7"/><path class="cls-1" d="M30.2 27.4v1.4h-.4v-.9s-.1 0-.2.1h-.2v-.3c.1 0 .2 0 .3-.2l.2-.2h.3Zm-1.9.4h-.4c0-.2 0-.3.2-.3.1 0 .2-.1.4 0 .2 0 .3 0 .4.1s.2.3 0 .4l-.2.1h.1l.1.1v.4l-.2.2h-.6s-.1 0-.2-.1c0 0 0-.1-.1-.2h.4v.1h.2v-.4h-.2v-.3h.1zv-.1h-.2v.1Zm-1.1.1v-.2H27v.4h.3v-.2Zm-.7.6h.5v-.3l-.1.1h-.2c-.1 0-.2 0-.3-.1 0 0-.1-.2-.1-.3v-.3l.2-.2h.6s.2.1.2.2v.4c0 .3 0 .4-.2.6-.1.1-.3.2-.4.2h-.3s-.1 0-.2-.1v-.2Zm-.6-1.1v1.4h-.4v-.9c-.1 0-.3.2-.4.2v-.3c.1 0 .2 0 .3-.2l.2-.2zm3.5-5.3s-.2 0-.3.1c0 0-.1 0 0 .1h.4s.2-.1 0-.2Z"/><path class="cls-1" d="M29.4 22.1s-.2 0-.3.1c0 0-.1 0 0 .1h.4s.2-.1 0-.2Z"/><path class="cls-1" d="M29.4 22.1s-.2 0-.3.1c0 0-.1 0 0 .1h.4s.2-.1 0-.2Zm-1.1.8s.3 0 .4-.1h.1l.2.1v.2s-.5-.1-.7 0v-.3Zm.3-4.4s-.4.2-.1.6c0 0 .2.1.4 0v-.2h-.1s-.2 0-.2-.2c0 0 0-.2.2-.2 0 0 .2 0 .3.1v-.3s-.3-.1-.4 0Zm.4 4v-2.4c-.2-.3-.7-.3-.7-.3.7.5.5 1.2.5 1.2 0 .2-.5.8-.5.8v.8c.1 0 .3-.2.3-.2.2 0 .4.1.4.1"/><path class="cls-1" d="m27 18.5-.2-.2c-.1 0-.1.1-.1.1 0 .7-.5 1.7-.5 1.7 0 .2-.2 0-.2 0-.2 0 0-.3 0-.3.8-1 .6-1.6.6-1.6v-.3c0-.4-.1-.5-.1-.5 0-.3.1 0 .1 0 0 .2.2.4.2.4v.3l.2.3c.3.2.1.3.1.3Zm-2.5-.8-.3.3s-.2 0 0-.1c0 0 .3 0 0-.3 0 0-.2-.2-.3 0v.2s0 .2-.1 0c0 0-.2-.6 0-.8 0 0 .1 0 .1.2 0 0 0 .3.2 0v-.5s0-.1.1-.2l.2-.4s.1-.2.1 0c0 0-.2.2 0 .5v.2s-.2.3-.2.5c0 0 0 .3.2 0 0 0 .3-.4.3-.1 0 0-.2.4-.3.5m-.4 1.7v.5s0 .3-.2 0v-.4s0-.6-.3-.3c0 0-.2.6-.2 1 0 0-.2.4-.2 0 0 0 .2-.8.2-1 0 0 0-.2.1-.4 0 0 .3-.2.4-.4 0 0 .2-.2.2 0 0 0-.2.3 0 .5 0 0 .2.2.1.4Zm-1.2 5.1s0 .2-.2 0h-.1v-.1s0-.2.2 0v.4Zm5.3-11h-1v.3h-.7v.2h.7v.2h-.8v.2h.7v.4h-3s-.1 0-.2.2c0 .2-1 4.2-1 4.2s-.1 1.1.5 1.5c0 0 .2.3-.1.1h-.2c0-.1-.1-.3-.2 0 0 0-.3.5 0 .9l.2.5v.1s-.3-.3-.3-.4c0 0 0-.2-.1 0 0 .2 0 .3-.1.4v.7s.2-.3.2 0c0 0-.1.2-.2.3 0 0 0 .1-.1.1 0 0-.2 0-.2.3 0 0 0 .2.1 0 0 0 .2-.2.2 0 0 0-.1.1 0 .2 0 0 .2.2 0 .1 0 0-.3-.2-.3 0 0 0 .5.4.6.4h.1v.6s0 .1-.1.2h-.1v-.7s0-.1-.1-.1l-.4-.2s-.2 0-.1.1c0 0 .3.1.1.2 0 0-.1.1 0 .2 0 0 .3.1 0 .1 0 0-.4 0-.3.2l-.3 1.8c1.9-1.6 4.4-2.4 6.9-2.2V22h-.7c-1.3.1-2.1-1-2.1-1-.6-1 0-1.9 0-1.9.5-.4.5.2.5.2l-.2.7c0 1.6 1.3 1.8 1.3 1.8h.8l.4-.1v-.3c-.6.3-1.4 0-1.4 0-1-.2-.9-1.3-.9-1.3 0-.2.2 0 .2 0 .9 1.1 2.1.4 2.1.4v-1.8h-.2c-.1 0-.2.4-.2.4 0 .1.2 0 .2 0 .2 0 0 .2 0 .2-.1 0-.3 0-.3-.1-.1-.4.2-.6.2-.6h.3v-6.2Zm1.2 8.6s-.2 0-.3.1c0 0-.1 0 0 .1h.4s.2-.1 0-.2Z"/><path class="cls-1" d="M29.4 22.3c-.1.1-.4 0-.4 0v-.1l.3-.1c.2 0 0 .2 0 .2Z"/><path class="cls-1" d="M32 24.7v-.6c0-.2.1 0 .1 0v.3s-.2 0-.2-.1Zm-.8-5.4c-.3.3-.2.6-.2.6 0 .2-.2 0-.2 0v-.5c0-.1.2-.2.3-.3.1-.2 0-.2 0-.2l-.2-.2c-.2-.3.2-.2.2-.2.6.3.6.9.6.9.1.2.2 1.1.2 1.1 0 .3-.2 0-.2 0-.1-.4-.2-1.2-.2-1.2-.1-.2-.3 0-.3 0m-.6-1.6v-.6c.1-.2 0-.4 0-.4 0-.2-.3-.4-.3-.4-.2-.3.1-.1.1-.1 0 .2.4.5.4.5.1.3 0 .5 0 .5-.1.3 0 .4 0 .4v.2c0 .2-.1.1-.1.1zm-.1 0s-.1.2-.1 0v-.2s.1-.1.1 0zm-.2-.9v.3c-.2.2-.2 0-.2 0 0-.2.1-.4.1-.4.2-.1.1 0 .1 0Zm.7-.4.1.3H31s-.1-.1 0-.2Zm2.2 9.7c0-.2 0 0 0 0-.1.3-.3.3-.3.3-.3.1 0 0 0 0l.1-.1v-.2c.1-.1 0-.3 0-.3-.2 0 0-.2 0-.2h.2c0 .2 0 0 0 0v-.3c0-.2-.2-.1-.2-.1l-.4.3c-.1 0-.1.1-.1.1v.3c0 .2-.2 0-.2 0v-.3c-.2 0 0-.2 0-.2.7-.3.7-.4.7-.4.2-.2 0-.1 0-.1-.1 0 0 0 0 0 0-.1-.1-.1-.1-.1-.1-.1 0-.2 0-.2h.2c.2 0 0-.2 0-.2 0-.3-.1-.2-.1-.2-.2 0-.2-.2-.2-.2-.1-.2.1-.1.1-.1.2 0 0-.3 0-.3v-.5c0-.2-.2 0-.2 0-.1 0-.3.4-.3.4-.2.1 0-.3 0-.3.3-.5 0-1.3 0-1.3 0-.2-.2 0-.2 0l-.3.1c-.2 0 0-.2 0-.2.2-.1.3-.4.3-.4.2-.2 0-.8 0-.8l-.4-2.2c0-.2-.1-.3-.1-.3-.3-.2-.5-.7-.5-.7 0-.2.2 0 .2 0 0 .1.3.5.3.5.1 0 0-.2 0-.2-.1-.3-.3-1.7-.3-1.7 0-.1-.3-.3-.3-.3-.9-.3-1.8 0-1.8 0-.2.1-.2.3-.2.3v2.4l.2.1c.3.2.5.9.5.9.1.4 0 .9-.2 1.3 0 .2-.1-.1-.1-.1 0-.2-.2-.5-.2-.5v-.4c.3-.7-.2-1-.2-1v1.5s.4.2.2 1.1c0 0 0 .2 0 0 0 0 .4-.5.6-1.4 0 0 0-.6-.4-1.4 0 0-.3-.7-.3-.8 0 0-.1-.4 0-.7 0 0 .2-.4.6-.1 0 0 .3.3.1.5v.3s-.1 0-.1-.1h-.2s-.1 0-.2-.1v-.2s0 .2.1.1c0 0 .2 0 0-.3 0 0-.1-.2-.4-.1 0 0-.2.2-.1.6 0 0 .1.6.4 1 0 0 .4.7.4 1.2 0 0 0 .9-.7 1.6 0 0-.2.3-.3.3 0 0-.1.2-.2 0v.9h.3s.1 0 0 .1h-.2v2.7q2.55.45 4.5 2.1l-.3-1.7ZM18 25.7v-.2c0 .3.2.5.3.8s0-.2 0-.2l-1.4.5v.2-.8.2h.2l.6-.2-.3-.9-.6.2v.2-.3c0-.1-.1-.3-.2-.4s.1.2.1.2l1.4-.5v-.2.4c0 .1 0 .3.2.4s0-.2 0-.2l-.6.2.3.9.6-.2Z"/><path class="cls-1" d="M18.9 27h-.2l-.9.6c-.1 0-.2.2-.2.3v.4l.2.2h.4s.2 0 .3-.2l.7-.4v-.4s0 .1.2.3-.1 0-.1 0h-.2l-.7.5c-.2.1-.4.2-.6.2s-.3-.1-.5-.4c-.1-.2-.2-.4-.2-.6s.1-.3.3-.4l.9-.6v-.2c.1.2.2.4.3.5v.1Z"/><path class="cls-1" d="m19.3 29 .1.1.2.1s.2 0 .3-.1l.1-.2s0-.2-.1-.2l-.2-.2-.5.5Zm-.1.1-.5.4v.2s0 .1.1.2c0 0 .2.1.3.1s.2 0 .3-.1c.2-.2.2-.4 0-.7V29Zm.2-1.1h.1l.3.3.2.2.2.2s0 .1.1.2v.2s0 .1-.1.2H20c-.1 0-.2 0-.3-.1 0 0 0 .1.1.2v.2c0 .1 0 .3-.2.4 0 0-.1 0-.2.1h-.3s-.2 0-.3-.1c0 0-.2-.1-.3-.2-.2-.2-.3-.3-.4-.5l-.2-.2h.2l1-.9v-.1Zm2 3.5s-.2.1-.2.2l-.2.2c-.1 0-.2-.2-.3-.2s-.2-.2-.4-.3l-.4-.3c-.1 0-.2-.2-.4-.3h.2l.9-1.2h-.2v-.2s.2.1.3.2l.4.3.4.3c.1 0 .2.1.2.2v.2-.3l-.4-.3-.4.5.4.3h.3c0-.1 0 0 0 0-.2.2-.3.4-.4.6s0-.3 0-.3V31l-.1-.1-.3-.2-.4.5.4.3h.5s.1 0 .2-.1Zm.2.5.7-1.3h-.2v-.2s.2.1.5.3c.1 0 .2.1.3.1h-.2l-.7 1.3h.2v.2h-.1c-.2 0-.3-.2-.5-.3h-.2.2Zm3.6-.3H25v.1l-.3 1v.4c0 .1.2.2.3.2h.4s.1-.1.1-.2c0 0 0-.2.1-.3l.2-.8v-.2h-.2v-.2h.5-.2l-.1.1-.2.9c0 .3-.2.4-.3.5q-.15.15-.6 0c-.3 0-.5-.2-.6-.3s-.1-.3 0-.5l.3-1v-.1h-.2v-.2c.2 0 .3 0 .5.1h.3Zm1.4 2v.1h.2v.1H26l.2-.1h.1v-1.4H26v-.1h.5l1.1 1.2v-1.1h-.2v-.1h.8-.2v1.8h-.2l-1.4-1.6v1.3Zm2.4 0-.2-1.5h-.2s.2-.1.6-.2h.3l-.2.1.2 1.5h.2-1c0-.1.2-.1.2-.1Zm2.4-2.3h-.1v2h-.2L29.9 32h-.1c.1 0 .3 0 .4-.1h.3c0-.1.1-.1.2-.2v.1s-.1 0-.1.1v.2l.7.9v-1.3h-.2.3c.2-.1.3-.2.3-.2Z"/><path class="cls-1" d="M33.5 31.6v.5c-.1 0-.2.1-.3.2l-.4.2-.4.2c-.1 0-.3.2-.4.2l.2-.2-.7-1.3h-.2s.2 0 .3-.2c.1 0 .3-.2.5-.2l.4-.2c.1 0 .2-.1.3-.2v.4l-.1-.1h-.1l-.5.3.3.5.4-.2v-.2l.3.6-.2-.1h-.2l-.3.2.3.6h.1l.5-.2.2-.2v-.5Zm.4-.9.2-.2v-.4s-.1-.1-.3-.2c0 0-.2 0-.3.1l.5.6Zm.1 1.2v-.3l-.8-1.1v-.1l.3-.3s.2-.1.3-.2h.4s.1 0 .2.1v.5l.6.2h.5l-.3.3-.1.1-.9-.4.4.6h.2s-.1 0-.2.1h-.2c0 .2-.1.2-.2.3H34c0 .1 0 0 0 0Zm1.5-3.2h-.3s-.2 0-.3.1c0 0 0 .1-.1.2v.2h.5c0-.1.2-.1.2-.2h.4s.1 0 .2.1c0 0 .1.1.1.2v.4s-.1.2-.2.2c-.1.1-.3.2-.5.3l-.3-.4h.6c.1 0 .3-.2.3-.4v-.2h-.6c0 .1-.2.2-.2.2h-.5s-.1-.1-.1-.2v-.4s0-.1.1-.2.2-.2.4-.2zm1.4.3-1.2-.9h-.1c0 .1 0 0 0 0s.1-.2.4-.5c0 0 .1-.2.2-.2v.2l1.2.9h.1c0-.1 0 0 0 0 0 .1-.2.2-.3.4 0 0-.1.2-.2.2v.1l.1-.2Zm-.9-1.7.6-1.1v-.1l.5.3h-.3v.1l-.2.3 1.3.7h.1l.2-.2v.2s0 .1-.1.2l-.2.3v.2c-.1 0-.1 0-.2.1s0-.3 0-.3v-.1l-1.3-.7-.2.3v.3l-.3-.3Zm2.9-2v-.2h.2c0 .2-.1.4-.2.5v.2s0 .1-.1.2 0-.2 0-.2h-.5v-.2l-.9.2h-.2c0 .1 0 0 0 0s0-.2.1-.4v-.5.1l.8-.2-.3-.3-.3-.3v.1-.6.2s0 .1.1.2l.5.6h.5c0 .2.1.1.1 0Z"/></g></svg>