<svg width="128" height="128" fill="none" xmlns="http://www.w3.org/2000/svg"><g filter="url(#a)" fill-rule="evenodd" clip-rule="evenodd"><path d="M47.568 81.499c-8.746-3.678-14.561-10.148-14.561-17.5 0-7.254 5.663-13.65 14.217-17.352v-.001h.003c4.914-2.126 10.781-3.363 17.077-3.363C81.56 43.283 95.6 52.577 95.6 64c0 7.33-5.782 13.784-14.486 17.467v.035h-.082c-4.842 2.035-10.582 3.214-16.73 3.214s-11.886-1.18-16.728-3.214h-.007v-.003Zm33.353-.701C89.328 77.227 94.9 71.031 94.9 64c0-6.936-5.421-13.06-13.637-16.652H79.06c6.587 3.703 10.898 9.813 10.898 16.711 0 6.916-4.333 13.04-10.948 16.739zm-3.416 0c2.339-1.158 4.418-2.614 6.154-4.3H44.967c1.735 1.686 3.815 3.142 6.154 4.3zm-27.888 0c-6.616-3.7-10.948-9.823-10.948-16.739 0-6.898 4.31-13.008 10.897-16.71h-2.22c-8.216 3.592-13.637 9.715-13.637 16.65 0 7.032 5.57 13.228 13.977 16.799h1.93Zm-.144.704a40 40 0 0 0 5.22 1.5c-1.3-.42-2.546-.923-3.73-1.5zm3.188 0c3.48 1.46 7.446 2.288 11.652 2.288s8.172-.828 11.651-2.288zm25.002 0a29 29 0 0 1-3.694 1.489 40 40 0 0 0 5.166-1.49zm-26.6-34.154c-7.017 3.496-11.69 9.68-11.69 16.711 0 2.599.639 5.082 1.798 7.356h46.284c1.159-2.274 1.797-4.757 1.797-7.356 0-7.031-4.672-13.215-11.69-16.71zm-2.468 19.058 1.97-6.695h2.658l-1.15 4.12h.889l1.225-4.12h2.673l-1.898 6.695h-2.717l.469-1.78h-.898l-.479 1.78zm-3.214 2.126c.712-.51 1.791-.955 3-1.403 3.433.373 6.866.412 10.299.176 3.198-.264 5.417-1.182 6.558-2.817 1.65-2.211.913-4.472-2.007-5.45-3.796-1.532-6.937-2.67-7.705-3.691-1.186-1.487.256-2.653 3.13-2.642l.916-.774c1.733-1.004 5.23-1.356 9.848-1.484 2.81.112 6.59.441 9.986 2.034 1.525.824 1.582 2.425.762 3.823-1.018 1.31-2.07 2.52-3.187 3.532h-1.89l-2.548 8.745H69.3l2.575-8.8H69c.782-1.293 1.563-1.939 2.744-2.02l5.032.044c.805-.095 1.113-.348.127-.887Q69.886 53.733 60.662 53c-2.232-.28-2.673.86-1.595 1.687 1.84 1.338 3.71 2.602 5.6 3.815a34 34 0 0 1 1.978 2.017c1.809 1.45 2.81 2.089 3.34 3.122.402 1.603-1.134 3.882-2.633 4.94zm12.427-8.793h2.59l-1.684 5.89h.918l1.755-5.89h2.606l-1.855 6.726h-6.343zm21.726-13.093a40.5 40.5 0 0 0-6.768-1.882 29 29 0 0 1 4.957 1.882zm-3.5 0c-3.496-1.48-7.487-2.319-11.721-2.319-4.235 0-8.226.84-11.722 2.319zm-25.132 0a29 29 0 0 1 4.995-1.893 40.5 40.5 0 0 0-6.824 1.893zm9.242 31.025v1.286a2 2 0 0 1-.013.308.4.4 0 0 1-.079.181.4.4 0 0 1-.173.142.6.6 0 0 1-.253.049.7.7 0 0 1-.285-.058.44.44 0 0 1-.185-.148.4.4 0 0 1-.072-.194 5 5 0 0 1-.011-.427v-1.14h.468v1.444q0 .126.013.161a.05.05 0 0 0 .052.036q.044 0 .057-.039a.8.8 0 0 0 .013-.183v-1.418zm1.339 0v1.925h-.468v-.809h-.14v.809h-.47V77.67h.47v.688h.14v-.688h.468Zm2.552 0v1.925h-.41l-.245-.875v.875h-.391V77.67h.391l.263.867v-.867h.392Zm4.144 1.925h.477V77.67h-.477v1.925Zm1.814-1.925v1.925h-.418l-.248-.875v.875h-.398V77.67h.398l.267.867v-.867h.399Zm1.095 0 .273 1.925h-.488l-.023-.346h-.172l-.028.346h-.493l.242-1.925h.69Zm-.252 1.238a24 24 0 0 1-.073-.808q-.072.552-.09.808zm-11.93-1.238-.209 1.925h-.585a15 15 0 0 1-.141-1.008q-.028.24-.13 1.008h-.582l-.21-1.925h.456l.047.671.05.649q.026-.502.129-1.32h.487q.01.084.051.635l.051.73q.04-.697.13-1.365zm9 0v1.925h-.476v-.809h-.143v.809h-.477V77.67h.477v.688h.143v-.688h.476Zm-1.348.84h-.476v-.336a.6.6 0 0 0-.016-.183q-.015-.036-.067-.036-.06 0-.075.044a.7.7 0 0 0-.016.19v.895a.7.7 0 0 0 .016.183q.015.043.072.043.052 0 .07-.044a.7.7 0 0 0 .016-.2v-.241h.476v.074q0 .299-.04.424a.43.43 0 0 1-.178.218.6.6 0 0 1-.339.094.7.7 0 0 1-.345-.08.38.38 0 0 1-.18-.22 1.5 1.5 0 0 1-.044-.424v-.562q0-.208.013-.312a.46.46 0 0 1 .268-.352.65.65 0 0 1 .274-.056q.212 0 .348.086a.4.4 0 0 1 .18.213q.043.128.043.398v.183Zm-3.998-.84.268 1.925h-.48l-.022-.346h-.169l-.027.346h-.485l.238-1.925zm-.248 1.238a24 24 0 0 1-.071-.808q-.072.552-.089.808z" fill="#00659f"/><path d="M92.829 42.471c.135.334.093.813-.192 1.056-.297.345-.745.078-1.092-.032-.434-.134-.977-.214-1.426-.146-.022.044.026.184.04.227.004.177.091.494-.04.638-.051.068-.186.074-.261.066-.367-.035-.87-.166-1.236-.111-.06.112.114.178.183.226.312.225.41.7.437 1.065-.031.254-.383.157-.557.139a2.15 2.15 0 0 0-.84-.277c-.232-.118.218-.357.291-.458.062-.133.026-.226-.093-.307a1 1 0 0 0-.275-.062c-.228.166-.797.756-1.001.965 0 0-1.013 1.188-1.102 1.311-.207.225-.501.529-.832.49l-.149-.05a.26.26 0 0 1-.135-.104l-.092-.138a5 5 0 0 1-.368-.837c-.072-.214-.325-.534-.325-.762.041-.016.097-.05.133-.011.296.262.697.84 1.15.741.552-.422 1.177-1.065 1.654-1.565.057-.086.218-.186.201-.302-.156-.17-.784-.154-.994-.193-.617-.05-1.356.05-1.968-.028-.225-.139-.282-.57-.365-.798-.006-.162-.182-.597-.05-.733.221.033.478.192.677.291.14.049.52.175.665.228.88.248 1.861.563 2.741.782.4-.007.856-.161 1.198-.369.072-.231-.305-.233-.447-.293a4 4 0 0 1-.485-.14c-.23-.032-.594-.08-.8-.19-.243-.028-.352-.394-.44-.586.02-.186.21-.08.31-.039l.402.15c.388.134.91.342 1.3.477.182.053.56.178.735.253.505.078 1.106-.175 1.598-.277.918-.17.864-.532.013-.791-.14-.07-.364-.2-.52-.157-.078.505-.4.995-.961.97-.482.003-.647-.18-.864-.583l-.054-.189a.2.2 0 0 1 .024-.168c.096-.156.229-.332.37-.428l.346-.131c.07-.01.29-.021.32-.104-.033-.198-.49-.208-.635-.267-.202.004-.33-.086-.371.184-.074.17-.209.44-.23.624-.08.16-.282.301-.464.297-.227-.025-.234-.334-.241-.509 0-.123.047-.388-.166-.31-.218.446-.786.685-.533-.062.076-.195.422-1.078.494-1.252.039-.153.006-.617.212-.67.36.161.283.84.251 1.167l.059.043c.206-.17.297-.68.392-.935.016-.211.031-.648.03-.858.027-.215.208-.186.318-.043.253.5.205 1.115.081 1.645-.069.246-.12.28.149.382.29-.014.712.198.605-.3-.006-.147-.142-.407-.007-.521.146-.086.237-.027.321.104.07.104.24.358.304.46.04.066.165.076.232.075.127-.036.473-.113.543-.245.278-.212.44.072.462.333.127.969-.146.72-.893.775-.06.231.312.19.445.192.46.143 1.007.346 1.476.458.198.066.287.338.342.517m-2.996-.682c-.05-.074-.257-.022-.326-.017-.131.039-.182.16-.193.286.03.076.118.21.17.273.18.048.283-.136.377-.256.025-.085.094-.246-.028-.286m-8.745-2.759c.276.085.56.47.401.737l-.169.084a15 15 0 0 0-.645-.114l-.997-.012c-.176.032-.45-.02-.614.053-.895.791-2.124 1.782-3.404 1.487-.207-.037-.589-.214-.769-.323-.024-.038-.553-.319-.499-.406.072-.117.342-.002.448 0 .339.032.863.112 1.203.077.232-.06 1.07-.227 1.245-.394.115-.074.425-.192.395-.377-.413-.054-.974.12-1.389.164-.224-.028-.353-.314-.44-.492l-.137-.357c-.049-.107-.207-.38-.13-.503.237-.121.637.151.868.219.61.131 1.505.098 2.127.122.583-.621 1.156-1.51 1.56-2.258.029-.145.13-.343.19-.474l.11-.156.202-.05c.108.037.21.426.248.517.08.268.339.732.22 1.014a.53.53 0 0 1-.242.248 21 21 0 0 1-.615.652c-.032.067-.454.536-.369.625.07.029.637-.007.721-.012.124-.068.34-.111.481-.07Zm-.912 3.821c.148.15.588.29.5.553-.382.058-.788-.153-1.18-.156-.494-.179-.713.1-.895-.544.068-.581.145-1.23.218-1.814.019-.127.067-.38.096-.506 0-.16.046-.237.21-.255.237.055.184.384.199.567-.01.259.087.777.158 1.026.11.413.392.832.694 1.129m-8.216-2.758c.097-.004.184-.02.235.085-.122.216-.67.277-.885.378-.389.116-.896.29-1.304.212-.163-.013-.252-.246-.316-.368-.136-.205-.333-.59-.524-.747-.384.396-1.018.844-1.504 1.114-.409.169-.473.228-.721-.19l-.051.01c-.035.25-.27.488-.513.548-.089-.012-.121-.048-.144-.132l-.123-.12c-.293-.273-.677-.473-1.002-.7l.002-.081c.19-.142.345-.049.534.022.092.013.28.034.373.04.265-.051.294-1.337.362-1.521.034-.135.162-.639.197-.761l-.055-.024c-.165.158-.377.49-.523.666a2 2 0 0 0-.29.41.5.5 0 0 1-.106.136c-.194.175-.487.4-.707.498a.1.1 0 0 1-.063.004 1.5 1.5 0 0 1-.31-.134c-.312-.397-.39-.406.105-.654.101.002.257-.093.327-.16.237-.207.71-.633.939-.848.248-.242.728-.503.847-.845a3.6 3.6 0 0 1 .18-.636c-.082-.04-.153.057-.2.107l-.105.013c-.127.002-.285-.242-.351-.327-.021-.05-.17-.298-.145-.354a.56.56 0 0 1 .358-.077l.737-.373c.08-.194.193-.618.236-.826l.057-.26c.059-.04.204-.145.281-.13.159.111.819.681.598.879l.05.04c.16-.199.245.163.318.238l-.026.143-.216.138c-.157.095-.466.3-.61.413-.54 1.27-.778 2.84-.954 4.21.127.323.59.056.796-.042.22-.094.679-.58.85-.747.037-.09.234-.271.15-.373a6 6 0 0 1-.19-.4c-.07-.153-.278-.424-.212-.601.164-.091.364.105.498.18.124.036.25.264.358.313.09-.152.433-.504.391-.697l-.085-.044c-.106.042-.25.157-.362.18-.08-.01-.152-.113-.182-.18a.44.44 0 0 1-.071-.227c-.02-.085.124-.277.165-.343.084-.25.346-.657.361-.908-.245.09-.596.431-.867.468-.182-.037-.678-.154-.636-.391.578-.195 1.17-.596 1.73-.823l.225-.169.145-.362.125-.331c.004-.114.026-.374.07-.48l.142-.056.14.048c.234.169.62.398.628.723a.6.6 0 0 0 .16.081l.166.275a.19.19 0 0 1-.079.197c-.152.078-.386.223-.55.269-.277.114-.455.538-.623.768-.148.204-.372.58-.369.841.078.015.187-.028.268-.004.206.097.482.258.531.5-.042.017-.09.2-.107.233l-.166.136c-.138.204-.51.582-.567.816.654.724 1.138 1.168 2.18 1.114Zm-21.803 2.442c.217.335.496.947.453 1.355-.073.126-.167.263-.334.223-.218-.094-.553-.267-.668-.482-.367-.423-.456-1.086-.597-1.61-.095-.086-.95-2.951-1.097-2.26-.21.478-.355 1.092-.471 1.597-.27.286-.834.036-1.146-.08-.266-.26-.228-.733-.273-1.074a4 4 0 0 1-.066-.66c.005-.201-.042-.46.247-.439.03.056.104.123.175.177q.126.094.227.215c.166.205.37.434.578.553.066.071.558-1.16.58-1.177-.138-.368-.45-.843-.621-1.2-.179-.221-.488-.416-.645-.655-.038-.181.173-.553.243-.72.063-.088.247-.047.329-.04.138-.003.42.045.556.074.36.057.274.51.35.78.063.227.142.482.244.69.124.125.188-.108.246-.183.105-.176.328-.522.446-.689.094-.144.322-.457.459-.56.103-.044.404-.2.507-.232.56-.09.71.378.405.784a2.6 2.6 0 0 0-.643 1.122c-.058.447.081.428.46.51l.125.058c.024.027.036.117.036.117-.034.09-.113.397-.207.445-.198.17-.45.464-.626.654-.05.023-.178.092-.231.101-.071-.005-.104.035-.128.097-.042.137.914 2.128 1.087 2.509m-.974-4.138c-.04-.185-.02-.547-.154-.691-.073.008-.16.16-.196.214-.12.198-.37.523-.34.767.075.171.204.4.24.587.147.296.313-.074.422-.2.136-.186.072-.47.028-.677m-6.56 8.055c.054.12.26.467.276.892.002.055-.053.434-.132.448-.084.01-.28-.033-.362-.05a1.3 1.3 0 0 0-.227-.215c-.08-.118-.514-.793-.61-.937-.079-.091-.177-.278-.26-.367a23 23 0 0 1-.308-.51c-.292.213-.636.854-.857 1.143-.16.174-.414.595-.663.65-.36.048-.463.034-.347-.35a7.8 7.8 0 0 1 .742-1.986c.11-.223.34-.491.264-.757-.18-.29-.263-.196-.386.068-.163.213-.476.732-.612.969-.309.378-.437.993-.793 1.317-.245.19-.792.211-1.086.231-.151.009-.192-.13-.233-.25.75-.725 1.525-1.492 2.173-2.312.128-.18.384-.41.46-.614-.093-.126-.206-.48-.4-.472-.291.324-.117 1.08-.487 1.312-.28-.06-.73-.141-1.015-.149l-.039-.08c.064-.095.217-.274.168-.397-.197-.211-.578-.38-.717-.638-.027-.222.205-.17.348-.154.302-.01.67.088.966.096.072-.092-.017-.267.046-.36.147-.03.327.02.474.011l.031-.063c-.08-.21-.327-.37-.486-.514-.07-.084-.033-.215-.002-.305.007-.084.115-.09.178-.11.074-.011.207 0 .244-.082-.004-.044-.002-.446-.027-.476-.25-.1-.744.646-.93.802l-.331.437c-.072.158-.207.317-.4.277-.256-.062-1.01-.065-.772-.494.181-.097.434-.33.62-.403.233-.172.518-.352.754-.521.075-.058.429-.259.434-.372l-.036-.057c-.147.029-.521-.178-.657-.29-.204-.103-.858-.284-.95-.37-.162-.257-.05-.318.18-.415.075-.056.973-.052 1.036-.02.072.027.222.311.254.354.002.056.155.312.184.363.014.076.06.278.108.34.441-.176.372-.541.274-.917-.1-.357-.149-.856.024-1.196.282-.142.906.119 1.192.173.212.163.23.391.195.636-.082.21-.285.653-.43.824-.371.346-.39.349-.435.861l-.074.416c.003.058.165.049.199.059.112.02.342.155.439.05.117-.15.26-.368.26-.567-.014-.108-.056-.334-.115-.427l-.124-.205c-.005-.131.022-.237.156-.283.171.005.44.047.609.07a.57.57 0 0 1 .423-.021c.12.128.01.381-.048.515-.043.145-.19.292-.223.439.022.086-.135.773.04.767.218-.27.4-.729.579-1.023a.55.55 0 0 1 .49-.2c.172.026.424.096.518.259-.067.367-.476.814-.642 1.157-.133.208-.3.461-.446.705-.085.174-.142.19-.084.285.148.028.526-.001.683 0 .29-.014.65-.1.487.348-.197.363-.618.723-.768 1.107.055.099.346.559.413.664.126.226.484.641.593.884m-1.653-2.608c-.054.112.19.439.275.478l.014.017s.085-.032.126-.086a.5.5 0 0 0 .055-.187c-.077-.125-.335-.175-.47-.223Zm-1.725-4.255c-.034.044-.044.137-.035.19.006.058.002.349.045.392.063.062.162-.01.196-.071a.6.6 0 0 0 .106-.337c-.035-.128-.184-.217-.312-.174m1.334 5.469c-.04-.068-.11-.222-.215-.174-.184.474-.515.96-.672 1.444l.02.03c.09-.018.26-.275.313-.341.138-.17.404-.527.522-.71.038-.068.08-.175.032-.249m.784-2.753c-.164.008-.277.266-.345.39-.126.23-.423.463-.459.733.3.124.38-.096.456-.332.066-.096.166-.3.195-.413.075-.088.196-.256.153-.378m-1.05-.315c-.113-.083-.252.048-.355.09-.148-.008-.182.13-.129.245.157.182.25.51.44.66.056.026.109-.032.14-.07a.47.47 0 0 0 .12-.31c0-.213-.134-.428-.217-.615Zm16.782-7.844c.027-.071.061-.13.135-.117.42.112.67.714.417 1.083-.134.216-.487.23-.706.32-.446.161-.951.567-1.344.827l-.207.048c-.061.028-.165.101-.234.07-.045-.046.147-.19.163-.215.297-.404.724-.937 1.111-1.259.077-.103.78-.579.665-.757m-.242 1.928c.187.008.463.13.558.297.108.088.274.234.273.386-.116.247-.291.61-.328.885l-.048.421c-.004.083-.085.305.075.29.038-.072.288-.347.345-.412.112-.134.249-.468.404-.542.044.062.076.183.047.256a8 8 0 0 1-.378.787c-.139.275-.484.642-.437.97.028.203.09.446.077.65.014.099.12.224.048.316-.076.107-.228.165-.356.168-.09-.056-.27-.083-.33-.177-.029-.118-.012-.354-.097-.445-.068-.01-.28.291-.319.334-.1.096-.27.394-.428.394-.192-.11-.175-.401-.278-.577-.059-.432.374-.78.529-1.154.186-.143.283.256.282.315 0 .06-.053.085-.048.124 0 0 .064.027.104.005a.6.6 0 0 0 .138-.21c.003-.033-.051-.583-.056-.647-.006-.063-.003-.385-.003-.385s0-.537-.076-.539c-.386.2-.84 1.245-1.424 1.295-.052.005-.131.015-.183.009-.185-.022-.406-.12-.525-.27.676-.647 1.695-1.138 2.172-1.975.038-.193.056-.478.262-.569m.847-.5c-.052-.686.974.113 1.098.375.117.325-.018.723-.11 1.039-.021.338.422.537.452.867l.014.238c-.023.095-.137.235-.112.333l.04.017c.076-.033.398-.332.471-.387.06-.04.046-.22.047-.28-.099-.589-.106-1.389-.214-1.974-.017-.174-.075-.554-.141-.715-.1-.292-.283-.72 0-.963 1.1.088 1.187.716 1.029 1.64a.5.5 0 0 0-.008.1c.005.34-.032.795.002 1.122.006.036.02.135.07.145.213-.168.293-.505.352-.755.005-.058-.05-.34.037-.365.077.007.104.106.117.203a.57.57 0 0 0 .135.293c.106.124.219.273.277.396.055.209-.507.703-.608.854-.217.186-.28.283-.254.575.05.363.073.91.12 1.27.006.237.199 1.463.08 2.224-.022.135-.164.374-.304.426-.317.036-.261-.19-.297-.411-.103-.915-.216-2.172-.325-3.08-.057-.018-.218.221-.25.254l-.321.309c-.19.107-.49.19-.631-.034-.035-.184.149-.487.205-.659.044-.192.035-.453-.063-.628-.077-.2-.156-.483-.243-.678-.002-.228.154-.527.047-.75-.258-.274-.618-.624-.712-1.002Z" fill="#d9282f"/><path d="M64 97.433c-24.262 0-44-14.998-44-33.433s19.738-33.433 44-33.433S108 45.565 108 64 88.262 97.433 64 97.433m0-65.57c-23.547 0-42.704 14.416-42.704 32.137 0 17.72 19.157 32.137 42.704 32.137S106.705 81.72 106.705 64c0-17.721-19.157-32.138-42.705-32.138Z" fill="#00659f"/><path d="m35.26 85.152-.119.151-1.149-.875.119-.152.073.056a.23.23 0 0 0 .222.03.6.6 0 0 0 .22-.15q.094-.082.423-.504l2.872-3.67q.336-.43.4-.55a.6.6 0 0 0 .075-.242.21.21 0 0 0-.084-.191l-.073-.056.12-.153 1.149.876-.12.153-.073-.056a.23.23 0 0 0-.22-.031.6.6 0 0 0-.222.147 6 6 0 0 0-.423.505l-2.872 3.671a6 6 0 0 0-.4.55.6.6 0 0 0-.074.242.21.21 0 0 0 .083.193zm7.1-3.541-.118.178q-.169-.03-.484.224c-.157.127-.47.463-.972.982l-3.579 3.71-.057-.038 2.072-5c.29-.7.495-1.098.534-1.228q.06-.198-.052-.332l.119-.178 1.144.758-.12.178-.038-.025q-.154-.103-.28-.035a.5.5 0 0 0-.182.184 2 2 0 0 0-.122.213q-.063.127-.325.694l-1.648 3.572 2.392-2.568q.433-.466.57-.631.138-.165.221-.29.096-.143.14-.272a.44.44 0 0 0 .03-.222.3.3 0 0 0-.146-.215l.119-.178zm1.287.992-1.434 2.327.048.028c.138.08.51.477.853.165.215-.195.123-.157.41-.545l.18.052-1.289 2.148-.192-.076c.208-.309.186-.215.271-.461s.102-.305.085-.416-.48-.383-.595-.451l-1.014 1.688q-.297.494-.346.615a.5.5 0 0 0-.044.218q.002.098.108.16l.146.084q.34.2.78-.069c.293-.177.373-.186.752-.682l.176.185-1.107 1.366-2.108-1.232.097-.163.081.047a.23.23 0 0 0 .227.006.6.6 0 0 0 .2-.17q.082-.092.354-.545l2.367-3.942q.245-.406.29-.504a.7.7 0 0 0 .077-.277q.006-.164-.113-.234l-.081-.047.099-.164 2.041 1.193-.735 1.462-.196-.094c.225-.454.162-.428.212-.653q.076-.338-.018-.571-.053-.14-.33-.3zm.741 4.267-.914 1.736q-.264.504-.308.642a.5.5 0 0 0-.024.246q.021.105.189.178l-.089.169-1.253-.546.088-.168q.17.074.273.019a.6.6 0 0 0 .194-.17q.093-.118.356-.62l2.114-4.017q.265-.503.31-.644a.5.5 0 0 0 .022-.244q-.02-.106-.188-.178l.09-.17 1.137.495q.444.195.568.439t.034.72q-.09.473-.385 1.035-.36.684-.791 1.048a1.14 1.14 0 0 1-.572.272l-.514 2.353q-.099.456-.103.578 0 .173.09.23l-.088.169-.772-.336.697-3.166zm1.598-3.036-1.427 2.712.103.045q.25.11.436.048.186-.063.417-.336.231-.271.488-.76.373-.707.42-1.103.048-.395-.244-.522zm3.433.86-.766 2.192-.084-.026q.24-.84.189-1.413-.051-.572-.318-.655-.208-.064-.423.163-.217.225-.341.57a1.7 1.7 0 0 0-.097.4q-.024.247.027.507.038.19.237.703.279.716.265 1.271t-.248 1.203q-.297.823-.78 1.332t-.897.381a.5.5 0 0 1-.224-.139 1.5 1.5 0 0 1-.205-.327q-.063-.127-.125-.145-.053-.017-.147.06a1 1 0 0 0-.202.267l-.075-.023.894-2.477.075.023q-.288 1.071-.23 1.7.056.63.35.72.228.07.47-.184a1.8 1.8 0 0 0 .383-.645q.084-.232.11-.467a1.7 1.7 0 0 0-.008-.461 3.2 3.2 0 0 0-.19-.626 4.5 4.5 0 0 1-.27-.917 3 3 0 0 1-.003-.77q.05-.408.215-.87.283-.782.724-1.26.441-.475.809-.362a.5.5 0 0 1 .232.157q.075.088.155.288.081.199.135.216t.111-.052q.06-.067.191-.354zm4.495 1.366-.544 1.79-.074-.018q.123-.639.124-.928a1.1 1.1 0 0 0-.089-.488q-.051-.11-.246-.159l-.208-.053-1.55 5.1q-.155.505-.17.64a.55.55 0 0 0 .025.245q.04.114.16.145l.092.023-.055.18-1.46-.377.054-.18.093.024q.121.031.227-.052a.6.6 0 0 0 .155-.213q.059-.11.21-.608l1.55-5.1-.202-.052q-.28-.074-.495.177-.3.348-.569 1.069l-.078-.02.545-1.792zm3.308.618-.033.189a.4.4 0 0 0-.259.165q-.146.197-.547 1.11l-1.074 2.396-.291 1.662q-.094.533-.092.666 0 .131.054.24a.21.21 0 0 0 .17.128l.165.023-.033.187-1.652-.238.033-.187.154.022a.25.25 0 0 0 .225-.077.6.6 0 0 0 .132-.231q.045-.117.136-.635l.242-1.379-.177-3.043q-.054-.901-.112-1.068-.057-.167-.197-.192l.033-.188 1.411.203-.033.189-.063-.01q-.128-.018-.194.061a.36.36 0 0 0-.083.175q-.031.181.013.941l.133 2.353.894-1.997q.33-.731.374-.98a.4.4 0 0 0-.017-.235q-.051-.137-.245-.191l.033-.189zm3.128.472q.7.011 1.01 1.063t.127 2.566q-.156 1.293-.597 2.242-.585 1.26-1.366 1.178-.78-.08-1.058-1.37-.218-1.017-.055-2.364.183-1.515.745-2.478.561-.964 1.194-.837m-.012.323q-.398-.041-.72.89-.264.763-.441 2.226-.21 1.74-.051 2.599.111.6.438.634.22.022.398-.212.226-.3.416-.995.19-.693.328-1.825.163-1.35.137-2.028-.026-.68-.158-.974-.132-.292-.347-.315m2.286.327-.046 2.82.083.001a.4.4 0 0 0 .31-.132q.123-.135.21-.458.09-.323.123-.874h.073l-.056 3.448-.073-.002q-.024-.977-.196-1.29-.173-.315-.398-.319h-.082l-.035 2.1q-.007.525.014.659a.6.6 0 0 0 .09.23.22.22 0 0 0 .19.104l.094.001-.003.187-1.49-.022.004-.187.094.001a.23.23 0 0 0 .201-.104.6.6 0 0 0 .088-.242q.025-.12.034-.637l.074-4.515q.009-.525-.012-.658a.55.55 0 0 0-.09-.231.22.22 0 0 0-.188-.102l-.095-.001.004-.189 2.402.036-.032 1.97-.086-.002q-.019-.694-.133-1.03-.116-.335-.343-.475-.124-.078-.464-.083zm7.604-.864.457 2.382-.083.015q-.272-.914-.624-1.365-.351-.45-.676-.39-.27.05-.425.462t-.144 1.03q.012.792.191 1.728.177.923.421 1.663.243.74.527 1.089.283.35.616.288.273-.05.446-.376.172-.325.291-1.067l.114.594q-.127.648-.34.967a.84.84 0 0 1-.563.386q-.462.084-.906-.29-.444-.375-.798-1.165a8 8 0 0 1-.533-1.724 8 8 0 0 1-.14-1.905q.045-.923.32-1.477.275-.555.69-.63.303-.058.703.194.233.146.285.137.069-.012.095-.141a1.3 1.3 0 0 0-.007-.39zm3.063 6.32.036.183-1.42.29-.035-.184.09-.018a.23.23 0 0 0 .17-.144.6.6 0 0 0 .033-.255q0-.122-.1-.63l-.86-4.432a5 5 0 0 0-.149-.641.55.55 0 0 0-.133-.208.21.21 0 0 0-.2-.06l-.09.019-.036-.185 1.42-.29.036.186-.09.018a.23.23 0 0 0-.17.142.6.6 0 0 0-.036.256q.002.124.1.63l.862 4.431q.1.517.148.642a.6.6 0 0 0 .134.207.21.21 0 0 0 .2.062zm20.51-8.587-.107-.155.086-.06a.25.25 0 0 0 .12-.2.6.6 0 0 0-.06-.276q-.042-.1-.35-.542l-2.614-3.755q-.304-.437-.402-.532a.5.5 0 0 0-.22-.132.26.26 0 0 0-.23.04l-.087.06-.11-.156 1.17-.815q.47-.326.95-.246.584.098 1.245.662.662.566 1.268 1.436.42.603.683 1.171.265.57.354.997.09.43.045.758t-.235.622q-.083.132-.336.309zm-2.75-6.077 3.1 4.453q.246.353.316.422a.3.3 0 0 0 .137.086q.098.029.195-.041.321-.224.158-.822-.22-.809-1.17-2.173-.764-1.098-1.38-1.645-.482-.426-.808-.475-.23-.034-.548.195m10.144-21.957 2.334-.607.567 2.423-.179.054-.021-.09a.21.21 0 0 0-.147-.16.55.55 0 0 0-.253-.009 5 5 0 0 0-.616.166l-4.327 1.328a6 6 0 0 0-.626.215.6.6 0 0 0-.199.158.23.23 0 0 0-.052.211l.021.09-.18.056-.34-1.455.18-.055.028.118q.027.12.146.161a.6.6 0 0 0 .252.01q.122-.013.617-.165l4.19-1.287q.505-.155.638-.22a.4.4 0 0 0 .184-.159q.032-.064-.013-.256l-.054-.227a.42.42 0 0 0-.268-.307q-.218-.088-.641-.07-.423.015-1.222.16zm-69.097-6.38-1.766-1.205q-.437-.299-.562-.351a.54.54 0 0 0-.252-.041.26.26 0 0 0-.205.121l-.06.09-.156-.106.957-1.401.155.105-.061.09a.28.28 0 0 0-.039.248.5.5 0 0 0 .149.217q.083.09.514.384l3.751 2.561q.437.3.562.351.124.054.25.043a.26.26 0 0 0 .205-.123l.06-.089.157.107-.956 1.4-.157-.106.06-.09a.28.28 0 0 0 .041-.246.55.55 0 0 0-.147-.22q-.087-.09-.515-.383l-1.615-1.102-.646.946 1.615 1.102q.437.299.562.352a.5.5 0 0 0 .252.042.27.27 0 0 0 .204-.124l.06-.087.156.106-.956 1.4-.156-.107.06-.087a.27.27 0 0 0 .04-.248.6.6 0 0 0-.147-.22q-.087-.09-.515-.382l-3.75-2.561q-.438-.299-.563-.352a.5.5 0 0 0-.251-.042.27.27 0 0 0-.206.123l-.06.088-.155-.106.956-1.4.155.106-.06.087a.28.28 0 0 0-.039.249q.024.09.147.22.084.088.515.382l1.766 1.206zm1.505 4.055-.937 1.407-.16-.107.047-.07q.105-.159.075-.265a.5.5 0 0 0-.14-.215q-.11-.109-.608-.442l-2.86-1.905c-.525-.35-.883-.56-1.078-.638a1.3 1.3 0 0 0-.543-.099.46.46 0 0 0-.38.208q-.149.22-.038.519.11.298.433.625.322.327 1.254.947l2.383 1.588q.393.26.586.334.194.075.296.06a.4.4 0 0 0 .27-.191l.16.107-.628.942-.16-.107.037-.056a.28.28 0 0 0 .028-.256.8.8 0 0 0-.223-.308 4 4 0 0 0-.479-.357l-2.219-1.478q-1.03-.687-1.445-1.054a2.5 2.5 0 0 1-.634-.868q-.22-.502.062-.925.236-.353.567-.412.45-.079.954.099.503.179 1.233.664l2.86 1.906q.503.336.644.392.14.055.256.04.117-.015.227-.191zm-6.335 1.88.473-1.005-.833-.614c-.19-.14-.233-.238-.368-.303q-.27-.128-.435-.092-.1.022-.229.225l-.174-.083.388-.947.174.083q-.01.178.183.388c.128.139.294.375.743.703l4.627 3.37-.078.146-5.543-1.498c-.536-.145-.883-.207-1.038-.205-.117.001-.308.042-.36.12l-.173-.082.67-1.378.173.083-.023.056q-.067.166.01.283a.5.5 0 0 0 .198.15q.085.04.18.07c.03.01.164.019.38.105zm.44.095 2.117.427-1.72-1.167zm3.216 4.512-6.156-2.842-.098.545q-.071.387.017.562.137.284.59.553.455.27 1.261.485l-.015.083-2.453-.56.474-2.625 6.166 2.846.077-.425q.045-.248.023-.332a.7.7 0 0 0-.21-.325 1.8 1.8 0 0 0-.478-.308 5.4 5.4 0 0 0-.792-.28l.014-.079 1.99.437zm-3.913.994-2.141-.257q-.53-.063-.666-.054a.6.6 0 0 0-.242.074.24.24 0 0 0-.123.19l-.011.102-.188-.023.172-1.592.188.023-.011.1a.26.26 0 0 0 .085.227.56.56 0 0 0 .235.119q.118.039.64.102l4.547.545q.531.063.666.054a.54.54 0 0 0 .243-.072.24.24 0 0 0 .12-.191l.012-.101.19.022-.173 1.592-.19-.022.012-.101a.26.26 0 0 0-.084-.226.6.6 0 0 0-.235-.122q-.12-.04-.64-.101l-1.957-.235-.117 1.076 1.958.234q.531.063.666.055t.242-.073a.24.24 0 0 0 .122-.193l.01-.099.19.023-.172 1.59-.19-.022.011-.1a.26.26 0 0 0-.083-.226.6.6 0 0 0-.235-.121q-.12-.039-.64-.102l-4.547-.544a5 5 0 0 0-.666-.055.54.54 0 0 0-.242.073.24.24 0 0 0-.123.193l-.011.099-.188-.023.172-1.59.188.022-.011.099a.26.26 0 0 0 .085.227.6.6 0 0 0 .235.121q.118.039.64.102l2.14.256zm3.568 3.902q.125.684-.874 1.17-1 .488-2.562.573-1.333.073-2.375-.19-1.383-.351-1.454-1.126t1.173-1.27q.984-.39 2.373-.468 1.561-.086 2.642.293 1.082.378 1.077 1.018m-.328.044q-.036-.394-1.037-.547-.822-.123-2.33-.04-1.795.099-2.628.405-.584.214-.554.538.02.22.29.35.348.168 1.085.233.735.065 1.903 0 1.392-.077 2.07-.221.68-.144.952-.325.268-.18.25-.393Zm.568 2.088L26.985 70.3l2.895-.646q.605-.135.8-.263.263-.174.196-.433l.185-.041.229 1.032-.185.04q-.098-.184-.2-.234a.7.7 0 0 0-.306-.043 4 4 0 0 0-.681.113l-5.606 1.252-.018-.08 5.137-3.364-4.28.956q-.579.13-.756.299t-.142.327l.016.074-.183.04-.246-1.108.183-.04q.063.257.309.308.246.052.782-.068l4.751-1.061.165-.107q.244-.158.313-.254a.32.32 0 0 0 .045-.24l.185-.04zm1.436 4.066-2.234 1.004-.028-.073q.866-.542 1.24-1.019.377-.474.257-.786-.115-.297-.592-.313-.475-.018-1.221.22-.748.24-1.5.579-.912.41-1.564.808t-.897.744q-.246.345-.139.62a.44.44 0 0 0 .126.174q.087.08.221.142l2.198-.847c.255-.099.409-.193.475-.24a.6.6 0 0 0 .165-.178q.063-.107.026-.203l-.026-.068.172-.078.44 1.173-.171.077q-.08-.136-.175-.16a.6.6 0 0 0-.275.02 4 4 0 0 0-.442.178l-2.141.96a1.9 1.9 0 0 1-.613-.344 1.26 1.26 0 0 1-.359-.507.96.96 0 0 1 .004-.736q.15-.36.474-.729.327-.369.785-.702a8 8 0 0 1 1.392-.786q1.43-.643 2.578-.666t1.395.613q.075.196.064.388-.006.104-.106.374-.101.27-.088.307.022.054.135.058a1.5 1.5 0 0 0 .396-.077zm1.156 1.584 1.01 1.355-.154.115-.05-.067q-.114-.153-.225-.16a.5.5 0 0 0-.25.06q-.139.066-.62.424l-2.756 2.054q-.756.564-.962.8a1.3 1.3 0 0 0-.276.478.46.46 0 0 0 .068.429q.159.213.476.21.318-.005.734-.198.417-.195 1.314-.864l2.296-1.71q.378-.282.512-.44a.65.65 0 0 0 .155-.26q.03-.157-.089-.317l.155-.115.676.908-.154.115-.04-.054a.28.28 0 0 0-.232-.113.8.8 0 0 0-.366.107q-.153.075-.496.331l-2.138 1.594q-.993.739-1.478 1.007a2.5 2.5 0 0 1-1.031.305q-.547.04-.85-.369-.254-.34-.198-.672.078-.452.414-.866t1.04-.937l2.756-2.054q.485-.362.585-.475a.5.5 0 0 0 .123-.228q.027-.115-.103-.278zM36.6 77.1l-2.083 4.06 2.183-2.01q.456-.42.561-.628.142-.282-.047-.473l.14-.128.714.78-.14.127q-.177-.112-.29-.103a.7.7 0 0 0-.287.116 4 4 0 0 0-.533.438l-4.23 3.887-.053-.06 2.766-5.481-3.23 2.968q-.436.402-.504.636-.07.235.04.355l.051.055-.138.127-.767-.837.138-.127q.183.192.421.113.24-.078.643-.45l3.585-3.294.089-.175q.133-.26.144-.377a.32.32 0 0 0-.08-.23l.139-.128.767.837Zm12.347 14.584-.06.178-1.38-.416.06-.178.088.026q.115.034.218-.046a.6.6 0 0 0 .156-.21q.06-.107.224-.602l1.437-4.311a5 5 0 0 0 .187-.635.54.54 0 0 0-.013-.246.2.2 0 0 0-.145-.147l-.087-.026.06-.18 1.38.416-.06.18-.088-.027a.23.23 0 0 0-.218.045.6.6 0 0 0-.158.209q-.06.11-.224.602l-1.436 4.311a6 6 0 0 0-.188.636.6.6 0 0 0 .015.246q.034.115.144.148zm18.162-4.544.44 2.291-.091.019q-.22-.85-.57-1.327-.35-.474-.643-.414-.228.045-.31.35a1.5 1.5 0 0 0-.019.665q.043.228.121.397.108.225.293.43.135.147.593.496.638.487.92.978.279.492.402 1.172.156.864-.027 1.546-.183.681-.638.775a.6.6 0 0 1-.283-.011 1.6 1.6 0 0 1-.365-.186q-.126-.08-.194-.064-.058.01-.105.125a1 1 0 0 0-.048.332l-.083.016-.47-2.6.081-.017q.297 1.077.683 1.596.384.521.708.455.25-.05.342-.39t.018-.752a2 2 0 0 0-.143-.462 1.7 1.7 0 0 0-.251-.398 3.4 3.4 0 0 0-.508-.453q-.497-.38-.736-.667a3 3 0 0 1-.41-.67 3.8 3.8 0 0 1-.258-.865q-.15-.822.012-1.457.162-.63.566-.713a.56.56 0 0 1 .3.022q.116.04.296.176.181.133.241.121.06-.011.077-.1.02-.087-.008-.402zm6.446-.42.539 2.68.054-.012c.157-.036.699 0 .737-.462.023-.289-.018-.198-.073-.677l.167-.086.524 2.45-.192.076c-.059-.369-.011-.285-.117-.523-.105-.237-.134-.292-.221-.362s-.612.047-.743.077l.41 1.925q.12.565.168.686a.5.5 0 0 0 .116.19q.07.07.188.042l.164-.037q.386-.088.524-.583c.092-.33.145-.39.084-1.012l.254.015.124 1.755-2.383.537-.04-.185.092-.021a.23.23 0 0 0 .17-.15.6.6 0 0 0 .03-.261q-.003-.124-.113-.64l-.96-4.496a9 9 0 0 0-.132-.567.7.7 0 0 0-.133-.255q-.109-.124-.242-.094l-.092.021-.04-.187 2.307-.521.46 1.57-.207.065c-.146-.485-.174-.423-.291-.622q-.175-.3-.403-.405-.133-.067-.446.005zm2.548-.93 2.816 3.662-.866-2.845q-.181-.595-.326-.782-.2-.251-.46-.166l-.056-.182 1.049-.297.055.182q-.184.11-.228.215a.7.7 0 0 0-.023.308q.02.204.163.672l1.676 5.51-.08.023-3.824-4.902 1.28 4.207q.173.57.36.735.186.165.347.12l.076-.021.054.18-1.126.319-.055-.18q.261-.08.297-.328.036-.25-.124-.776l-1.42-4.67-.122-.158q-.18-.234-.284-.296a.34.34 0 0 0-.25-.029l-.055-.181zm4.603-1.512.747 2.307-.08.025q-.384-.873-.788-1.277t-.719-.304q-.261.083-.365.511t-.016 1.04q.11.783.403 1.691.289.894.623 1.598.332.705.657 1.016.324.312.647.21.265-.083.396-.429.132-.343.158-1.094l.186.575q-.048.66-.217 1.002a.84.84 0 0 1-.512.452q-.449.142-.936-.176-.486-.317-.935-1.057a8 8 0 0 1-.741-1.645 8 8 0 0 1-.375-1.874q-.068-.921.137-1.505.203-.585.605-.71.296-.095.723.106.248.117.3.1.066-.02.077-.151a1.3 1.3 0 0 0-.055-.386zm1.384-.055.997 2.545.052-.021c.147-.063.688-.122.645-.583-.028-.29-.052-.193-.19-.655l.15-.113.943 2.32-.176.11c-.123-.353-.061-.28-.206-.495-.146-.215-.183-.264-.282-.318-.097-.053-.594.153-.718.205l.74 1.824q.217.535.284.647a.5.5 0 0 0 .147.166q.082.057.193.01l.155-.066q.365-.153.415-.666c.033-.34.074-.41-.094-1.01l.253-.03.427 1.706-2.252.945-.072-.176.087-.037a.23.23 0 0 0 .141-.177.6.6 0 0 0-.016-.262q-.024-.122-.223-.61l-1.728-4.26a9 9 0 0 0-.23-.536.7.7 0 0 0-.175-.228q-.128-.103-.254-.05l-.087.037-.072-.178 2.181-.915.727 1.467-.194.1c-.227-.453-.244-.387-.394-.563q-.225-.263-.467-.328-.142-.043-.439.083zm6.412 1.494-.963.554.33.98c.076.223.055.329.129.459q.148.259.304.325.094.04.316-.053l.095.167-.86.554-.095-.167q.11-.141.072-.423c-.026-.188-.026-.477-.207-1.002l-1.86-5.413.147-.076 3.685 4.405c.356.426.605.675.733.763.097.066.276.142.364.106l.095.168-1.34.745-.094-.167.052-.033q.15-.098.154-.237a.5.5 0 0 0-.077-.237 2 2 0 0 0-.107-.16c-.019-.026-.124-.11-.25-.304zm-.305-.329-1.491-1.563.74 1.941.75-.378Zm-.3-4.88 3.825 2.587-1.718-2.427q-.36-.508-.556-.64-.267-.174-.489-.012l-.11-.155.902-.612.11.155q-.141.162-.15.275a.7.7 0 0 0 .076.3q.083.188.366.587l3.328 4.701-.07.047-5.173-3.447 2.54 3.59q.345.485.574.583.23.099.368.004l.064-.043.109.153-.97.658-.107-.154q.222-.157.178-.405-.045-.247-.362-.697l-2.82-3.985-.166-.11q-.244-.165-.362-.192a.34.34 0 0 0-.246.052l-.11-.155zm6.624-6.437 1.486 1.139-.044.062q-.555-.34-.825-.443a1.1 1.1 0 0 0-.488-.087q-.121.01-.235.175l-.123.176 4.23 3.242q.42.321.54.383.12.06.239.062.12.003.192-.098l.054-.078.149.114-.865 1.236-.15-.115.056-.078a.25.25 0 0 0 .03-.23.6.6 0 0 0-.145-.221q-.082-.093-.496-.41l-4.23-3.242-.12.171q-.169.238-.009.526.222.402.801.908l-.046.066-1.486-1.139zm1.033-.875 2.308 1.465.029-.048c.082-.137.484-.504.176-.85-.193-.218-.155-.126-.54-.417l.054-.18 2.131 1.316-.077.192c-.307-.213-.213-.19-.458-.278-.245-.087-.304-.105-.416-.09-.11.014-.388.475-.458.59l1.675 1.035q.491.303.61.354a.5.5 0 0 0 .218.047q.099-.001.161-.106l.087-.145q.203-.338-.059-.782c-.174-.294-.182-.374-.673-.76l.187-.173 1.352 1.124-1.26 2.093-.162-.1.049-.08a.23.23 0 0 0 .01-.227.6.6 0 0 0-.169-.202q-.092-.085-.54-.361l-3.91-2.417a9 9 0 0 0-.502-.298.7.7 0 0 0-.276-.08q-.163-.007-.234.11l-.048.08-.163-.1 1.22-2.026 1.452.754-.097.195c-.45-.23-.425-.168-.65-.22q-.338-.08-.572.01-.14.05-.304.326zm1.295-3.44 2.314.723-.026.08q-.934-.192-1.497-.095-.562.098-.663.41-.085.263.206.594.29.332.84.615a10 10 0 0 0 1.613.648 14 14 0 0 0 1.663.415q.768.136 1.209.05.442-.082.545-.406.085-.264-.121-.57-.204-.305-.801-.761l.577.18q.51.42.692.756a.83.83 0 0 1 .072.68q-.142.446-.684.66-.54.215-1.403.153a8 8 0 0 1-1.771-.346 8 8 0 0 1-1.746-.777q-.79-.477-1.149-.981-.359-.505-.23-.905.094-.296.504-.528.239-.135.256-.187.021-.065-.08-.15a1.3 1.3 0 0 0-.346-.178zm3.893-.525 2.101.484q.52.12.656.125a.6.6 0 0 0 .249-.047.24.24 0 0 0 .143-.177l.022-.1.184.043-.341 1.565-.185-.043.022-.099a.26.26 0 0 0-.06-.234.56.56 0 0 0-.222-.144q-.112-.05-.625-.17l-4.463-1.028q-.52-.12-.656-.125a.54.54 0 0 0-.249.045.24.24 0 0 0-.14.178l-.023.1-.185-.044.34-1.564.187.043-.021.099q-.03.13.058.233a.6.6 0 0 0 .221.146q.115.052.625.17l1.922.442.23-1.056-1.921-.443q-.52-.12-.657-.126a.5.5 0 0 0-.248.047.24.24 0 0 0-.142.179l-.02.097-.187-.043.341-1.563.186.043-.02.097a.25.25 0 0 0 .058.234.6.6 0 0 0 .22.146q.115.051.626.17l4.463 1.028q.52.12.656.126a.54.54 0 0 0 .249-.047.24.24 0 0 0 .143-.179l.021-.097.184.043-.341 1.563-.185-.043.022-.097a.26.26 0 0 0-.06-.234.6.6 0 0 0-.221-.146q-.112-.051-.625-.17l-2.101-.484zm-2.923-4.245 4.383-1.456-2.972-.118q-.621-.024-.846.052-.301.105-.308.38l-.19-.008.065-1.088.19.008q.042.21.128.286.084.075.283.123.2.048.689.067l5.755.229-.005.083-5.887 2 4.394.174q.595.023.812-.099.217-.12.228-.288l.004-.078.188.007-.069 1.169-.188-.007q.012-.273-.212-.389-.223-.115-.774-.138l-4.877-.194-.189.064q-.28.093-.373.17a.34.34 0 0 0-.109.227l-.19-.008zm-.132-3.344q-.166-.68.796-1.242.963-.56 2.506-.758 1.318-.167 2.368.025 1.392.256 1.509 1.032t-1.087 1.364q-.952.462-2.325.638-1.544.196-2.638-.108-1.096-.306-1.13-.95Zm.321-.068q.06.396 1.063.478.821.066 2.313-.124 1.774-.225 2.583-.593.565-.256.517-.582-.033-.218-.311-.333-.354-.145-1.089-.157-.734-.013-1.887.134-1.377.175-2.041.369-.667.194-.924.394-.255.2-.224.414m-3.8-7.957 2.083-1.387.042.066q-.78.69-1.073 1.224-.293.535-.115.82.173.27.659.203.486-.068 1.2-.437.716-.37 1.416-.836a15 15 0 0 0 1.44-1.075q.59-.508.775-.892.185-.383.026-.635a.45.45 0 0 0-.159-.148 1 1 0 0 0-.252-.1l-2.076 1.226c-.24.142-.38.262-.438.32a.6.6 0 0 0-.135.205q-.045.116.011.205l.039.062-.16.107-.664-1.075.16-.107q.106.12.207.127a.65.65 0 0 0 .276-.068q.093-.04.416-.255l1.998-1.328q.4.063.686.23.287.164.458.434.217.345.132.725t-.348.802a4.8 4.8 0 0 1-.667.831q-.525.526-1.27 1.023-1.332.886-2.495 1.115t-1.53-.354a.9.9 0 0 1-.136-.37q-.014-.103.038-.388.053-.285.032-.317-.03-.05-.147-.033t-.387.146l-.043-.066Zm-2.014-2.759.153-.114a.4.4 0 0 0 .301.057q.242-.044 1.16-.433l2.425-1.007 1.352-1.01q.433-.323.524-.42a.55.55 0 0 0 .125-.213.21.21 0 0 0-.037-.21l-.103-.13.152-.113 1.04 1.306-.153.114-.097-.122a.25.25 0 0 0-.217-.098.6.6 0 0 0-.254.078q-.112.053-.535.368l-1.121.838-1.959 2.336q-.579.692-.652.854-.072.16.013.274l-.154.115-.887-1.116.153-.115.04.05q.08.102.183.09a.36.36 0 0 0 .18-.071q.147-.11.636-.694l1.517-1.804-2.02.841q-.742.306-.944.457a.4.4 0 0 0-.149.182q-.057.135.047.307l-.154.114zm4.119 6.16q-.355-.602.395-1.424t2.16-1.468q1.202-.552 2.255-.679 1.397-.168 1.734.538t-.636 1.626q-.77.725-2.022 1.3-1.41.645-2.538.68-1.13.033-1.348-.574Zm.286-.161q.171.36 1.147.142.8-.181 2.16-.806 1.62-.743 2.281-1.333.463-.414.322-.71-.096-.199-.391-.226-.378-.033-1.081.173-.699.206-1.753.689-1.255.576-1.83.958-.577.382-.763.65-.185.267-.092.463" fill="#5e5d5b"/><path d="m53.281 75.722.028.002-.07-.003h.042Zm0 0a13 13 0 0 0-.539-.037q-.186 0-.412-.036a.3.3 0 0 1-.07-.017q-.146-.096-.241-.416a3 3 0 0 0-.02-.162q-.03-.141-.075-.142-.025.005-.101.138 0 .015-.015.029a.7.7 0 0 0-.095.194.26.26 0 0 0-.04.133q0 .052-.075.052-.021 0-.246-.072-.136-.052-.136-.09a.04.04 0 0 1 .015-.032.7.7 0 0 1 .095-.113q.081-.093.236-.202a.3.3 0 0 1 .116-.07q.12-.068.12-.096-.015-.036-.12-.198.01-.036.085-.036a.8.8 0 0 0 .205-.025 1.6 1.6 0 0 1 .392-.073q.27-.072.542-.072.226.032.302.202 0 .036-.061.048a.2.2 0 0 1-.08.013q-.035.003-.035.028.005.02.05.044a2 2 0 0 1 .13.097q.252.24.252.275.06.03.15.142a.4.4 0 0 0 .075.093.63.63 0 0 1 .156.344q0 .024-.03.036a.4.4 0 0 1-.166.025l-.125.008a3 3 0 0 0-.239-.012m-.504-.58a.3.3 0 0 0-.126.037h-.02q-.055-.004-.12-.1a.6.6 0 0 1-.136-.26q-.03-.092-.09-.092-.05 0-.066.024-.019.024-.02.089 0 .328.081.424.11.15.683.15.2-.004.26-.052.045-.057.046-.085a.5.5 0 0 0-.105-.276q-.041-.056-.06-.056-.031.004-.137.101a.6.6 0 0 1-.19.097Zm-.236-.326q.005.007.02.02a4 4 0 0 0 .422-.004.02.02 0 0 0 .01-.02.2.2 0 0 0-.026-.037 3 3 0 0 0-.155-.133l-.326.068q-.02.004-.02.017 0 .011.075.089m-1.224-1.6q-.15.09-.252.18-.25.194-.36.194-.045-.004-.046-.045a.1.1 0 0 0 .01-.032 1 1 0 0 0 .085-.166.7.7 0 0 1 .13-.198.7.7 0 0 1 .166-.219l.076-.1q.065-.081.13-.081t.186.113q.105.085.105.12-.01.047-.23.234m-1.998.232a11 11 0 0 0-.005.337q.025.176.025.29 0 .894.074 1.373a.7.7 0 0 0 .025.164q.02.02.02.037-.001.06-.074.061a.7.7 0 0 1-.174-.041 3 3 0 0 0-.456-.135q-.504-.184-.583-.27a.3.3 0 0 1-.035-.07q0-.038.267-.008.411.032.47-.009.03-.037.03-.114 0-.21-.014-.504-.03-.246-.035-1.352v-.017q-.03-.307-.09-.344a.17.17 0 0 0-.103-.032.7.7 0 0 0-.213.04q-.138.058-.139.18l-.005.12q.005.048.035.049.11-.021.213-.033.134.004.133.119a.2.2 0 0 0-.005.045q-.024.094-.291.229a.24.24 0 0 0-.134.222q.005.04.05.04.044-.012.34-.037.04 0 .055.025.015.012.03.098.01.148-.025.185a.6.6 0 0 1-.183.057l-.054.029q-.293.18-.366.242-.01.011-.01.016a.5.5 0 0 0-.07.11q-.33.554-.33.627-.006.06-.08.102-.435.21-.589.21-.065-.004-.065-.033a1 1 0 0 1 .12-.123.3.3 0 0 1 .079-.065q.261-.222.261-.258-.005-.025-.083-.05-.164-.044-.555-.303a.4.4 0 0 0-.104-.098 1 1 0 0 0-.158.082 2 2 0 0 1-.163.127l-.252.216q-.07-.003-.223-.118-.11-.078-.11-.115.005-.041.174-.094.04-.016.148-.078.218-.156.218-.205-.084-.352-.084-1.303.004-.065.203-.118.252-.083.846-.193.352 0 .446.086.025.024-.08.197a.45.45 0 0 0-.08.225q-.013.045-.029.561a8 8 0 0 1-.024.5q-.065.082.01.443l.004.016.005.008v.012h.026l.004-.008q.045-.159.104-.197.164-.29.164-.499a.3.3 0 0 0 .014-.09q.005-.156.055-.426a3.4 3.4 0 0 0 .005-.799q0-.054.074-.082a.2.2 0 0 1 .074-.012 3 3 0 0 0 .425-.058q.214-.066.382-.077.119-.02.608.077.03.02.03.05-.004.003-.004.016-.17.23-.17.745Zm-2.257.844h-.004q0 .017-.016.017a1.3 1.3 0 0 0-.223.151.3.3 0 0 0-.049.041q.015.013.015.016a.8.8 0 0 0 .297.066q.054-.004.054-.07 0-.195-.044-.233zm.074-.5q-.009-.404.005-.446a.2.2 0 0 1-.014-.082q0-.127-.06-.176a.14.14 0 0 0-.104-.045.2.2 0 0 0-.153.078q-.03.024-.044.102-.04.151.064.2a.5.5 0 0 1 .183.153.4.4 0 0 1 .035.16q-.006.048-.055.06a.6.6 0 0 1-.198.062q-.12.037-.123.11a2 2 0 0 0-.026.169q0 .016.005.04a.5.5 0 0 1 .129-.065l.148-.09a.1.1 0 0 1 .04-.025q.164-.07.168-.205m6.68.85q.09 0 .322.048.084.02.16.032.055.008.07.045.08.177.05.328-.025.076-.07.076a6 6 0 0 1-.246-.076 4 4 0 0 0-.206-.11q-.427-.258-.427-.295-.004-.06.146-.06zm-.291-1.408h-.477a1 1 0 0 0-.195.036.4.4 0 0 1-.096.02q-.08.012-.08.073.003.052.055.052l.095-.015q.593-.028.923.117.11.056.11.093a.3.3 0 0 1-.039.069q-.155.161-.176.258a2 2 0 0 0-.115.154 5 5 0 0 1-.166.219.1.1 0 0 0-.025.024q-.15.097-.301-.024-.156-.179-.688.008-.145.052-.256.076a.5.5 0 0 1-.145-.08 3 3 0 0 1-.13-.11q-.267-.326-.267-.452.006-.052.156-.09.421-.084.577-.158a.12.12 0 0 0 .045-.089q-.005-.035-.05-.035-.145 0-.507.072-.04 0-.07-.048a.2.2 0 0 1-.025-.053l-.056-.093a.06.06 0 0 1-.014-.036q0-.025.074-.085l.066.064q0-.004.015-.004.312-.117.386-.117.192-.028.251-.076l.056-.191a.3.3 0 0 0 .014-.101q.016-.052.03-.15a.4.4 0 0 1 .04-.133.23.23 0 0 1 .102-.037q.075.005.165.045.035.02.035.032a1 1 0 0 0-.04.138l-.06.311q.005.05.05.049a2 2 0 0 1 .382-.048l.06-.013a.04.04 0 0 1 .024-.008.5.5 0 0 1 .127-.036q.04.004.13.089a.4.4 0 0 1 .07.105l.005.157q-.02.021-.065.021m-1.451.603a.2.2 0 0 0-.08.028q-.02.02-.02.057 0 .064.045.125.045.053.105.053l.07-.009q.045-.02.046-.036l-.05-.13q-.04-.088-.116-.088m.382-.07v.159q0 .105.09.105.036-.005.096-.065.055-.06.055-.255-.027-.016-.106-.016-.075 0-.135.073Zm.502.077a.4.4 0 0 0-.005.07.3.3 0 0 0-.035.093q0 .076.075.076l.055-.011.065-.013q.126-.069.156-.324 0-.09-.076-.113l-.065-.008q-.105.004-.126.081l-.039.118zm-1.857 1.19q-.036.124-.016.493-.005.118-.115.118-.125-.005-.17-.04-.02-.026-.02-.098 0-.578.044-.651.025-.028-.02-.214-.02-.033-.05-.033a.1.1 0 0 1-.04.009l-.066.044q-.135.092-.511.218a.2.2 0 0 1-.06.012q-.086 0-.086-.036.006-.15.487-.562l.065-.065q.07-.074.146-.146a.6.6 0 0 1 .1-.117q.015-.016.226-.32.236-.238.251-.238.04.004.116.052.13.101.13.138-.01.118-.221.243l-.08.072q-.02.025-.02.02a2 2 0 0 0-.221.21q-.005.006-.005.017-.05.134.19.195.09.031.106.056 0 .044-.076.263-.07.077-.084.36m6.533-.554-.016-.025q-.133-.114-.133-.14.025-.048.241-.052.145-.013.206-.066.077-.085.077-.147l-.02-.012q-.031 0-.155.024a1 1 0 0 1-.175.066 3 3 0 0 0-.735.278.3.3 0 0 1-.122.05.13.13 0 0 1-.083-.034 2 2 0 0 1-.21-.204q.005-.03.02-.033a.1.1 0 0 1 .057-.013q.092-.003.374-.052 0-.005.006-.005.154-.04.308-.069l.267-.057q.335-.086.365-.086.36-.005.504.07.03.016.092.04.083.041.083.078 0 .036-.062.074l-.37.163q-.051.02-.051.062a.2.2 0 0 1 .01.053q.01.004.015.016l.077-.004q.175-.02.962.004l.051.028q.117.14.21.226.015.081-.03.122-.052.016-.267-.045a4 4 0 0 0-.401-.073q-.52.003-.566.045-.02.036-.005.433-.005.005-.005.008a3 3 0 0 0-.031.192q-.087.315-.087.328-.031.04-.093.04l-.03-.008-.247-.024a.2.2 0 0 0-.041-.008q-.736-.201-.843-.311-.083-.07-.083-.098.119 0 .334.037l.33.053q.118.003.154.008a.5.5 0 0 1 .093-.013q.117-.02.138-.06.051-.103.051-.373-.005-.159-.05-.184-.011 0-.017.004-.915.107-1.407.253a.12.12 0 0 1-.078-.024.21.21 0 0 1-.082-.172q.005-.04.118-.04l.139-.017q.159-.05.468-.11.303-.065.734-.189.006-.007.011-.007m-2.667.818q.004-.075.426-.398a.14.14 0 0 1 .052-.044q.005-.005.005-.017.15-.122.431-.495.067-.13.19-.315a2 2 0 0 0 .097-.196l.017-.008.164-.356a.3.3 0 0 1 .041-.106l.031-.123a1 1 0 0 0 .046-.192q.005-.261.083-.458.014-.032.092-.032l.072.008a1 1 0 0 0 .124.04q.034.004.514-.057.272-.07.564-.106.253-.061.299-.061.045-.001.092.037a.2.2 0 0 1 .067.073.2.2 0 0 0 .031.045q.082.097.082.135-.005.045-.04.045-.367 0-.813.127-.395.003-.504.053l-.206.053-.035.024a.6.6 0 0 0-.026.152q.015 0 .036.004.771-.189 1.002-.188.494-.082.817.065.15.074.154.114-.184.177-.339.598-.01.005-.01.008a.5.5 0 0 0-.067.115.2.2 0 0 1-.113.024 1 1 0 0 0-.159-.045q-.19-.053-.596.02a8 8 0 0 1-.504.12q-.128-.054-.375-.447l-.015-.004q-.01 0-.01.004a.3.3 0 0 0-.067.127.2.2 0 0 0-.031.04l-.036.038q-.026.061-.134.257l-.092.127a2 2 0 0 0-.176.225q-.22.282-.22.38-.005.115-.041.152a1 1 0 0 1-.14.11q-.035.015-.04.029l-.411.237q-.165.064-.196.07-.088.016-.133-.008m2.672-2.14-.17.062q-.18.073-.195.073-.082.026-.087.037-.026.02.01.29.01.017.01.021l.026.02q.057 0 .766-.098.046.03.097.078h.03q.105-.082.105-.34-.006-.126-.058-.154a.3.3 0 0 0-.154-.037q-.282 0-.38.048m-.154.39q-.134-.005-.154-.022l-.015-.024a1 1 0 0 1-.057-.086q.005-.032.025-.045a.4.4 0 0 1 .093-.024q-.015 0 .061-.013.309-.098.417-.098.097 0 .097.098-.004.075-.04.11a.8.8 0 0 1-.427.103Zm4.004-1.06a3 3 0 0 1 .37-.087q.032.006.032.029l-.033.106a1.5 1.5 0 0 0-.199.348q-.031.03-.066.031a.4.4 0 0 1-.24-.095q-.162-.094-.162-.201 0-.035.057-.051.124-.044.24-.08Zm-.54.328q.27.203.27.273 0 .103-.184.103a1.3 1.3 0 0 0-.265-.016q-.19-.015-.19-.075-.064-.276.02-.36a.23.23 0 0 1 .147-.047q.042 0 .203.122Zm-.013 1.719a4 4 0 0 1 .652-.158q.081-.024.081-.06l-.094-.181q.004-.04.066-.064a.4.4 0 0 0 .27-.094q.104-.111.104-.146 0-.06-.057-.06a.3.3 0 0 0-.218.11 1 1 0 0 1-.123.1 4 4 0 0 0-.335.094q-.214.144-.256.143a.2.2 0 0 1-.085-.028q-.165-.114-.166-.237 0-.04.042-.05a.1.1 0 0 1 .033-.009q.961-.3 1.145-.3.071-.008.559.158a.8.8 0 0 0 .194-.091q.105-.087.104-.186 0-.075-.1-.122a.6.6 0 0 0-.193-.055q-.014 0-.02.003-.595.087-.809.17a8 8 0 0 0-.7.17q-.213 0-.473.095a.12.12 0 0 1-.066-.031.13.13 0 0 1-.038-.087v-.017q.005-.055.16-.066.47-.186.702-.261.325-.108.43-.17.157-.13.525-.656.108-.138.165-.138h.005q.165.02.364.257 0 .023-.17.11a1.4 1.4 0 0 0-.184.162q-.241.229-.242.233.006.024.034.028.444.05.506.067.005 0 .018.012.744.387.743.565-.004.055-.061.06l-.095.011a6 6 0 0 1-.756.047 2 2 0 0 0-.223.135.5.5 0 0 1-.151.059 2 2 0 0 0-.17.055q0 .052.005.103.018.06.066.059.661-.083.95-.035.09.034.109.141.01.056.023.108a.5.5 0 0 1 .03.11q-.006.087-.081.087-.014 0-.285-.071-.405-.044-.435-.02-.25.004-.278.028-.039.012-.081.501-.066.49-.18.633a.1.1 0 0 1-.075.035h-.005a3.3 3.3 0 0 1-.804-.253q-.218-.094-.218-.181a.06.06 0 0 1 .02-.032 4 4 0 0 0 .443.087q.134-.02.275-.032a.5.5 0 0 1 .08-.055q.033-.107.076-.214v-.355q0-.063-.042-.063h-.01q-1.003.141-1.272.26-.138-.18-.11-.229.015-.02.682-.19Zm-1.16-.474v-.008a.5.5 0 0 1 .171-.225q.204-.14.336-.139.075.005.07.04a.76.76 0 0 0 .01.423q-.005.079-.122.079-.052 0-.2-.036-.264-.063-.264-.134Zm8.682-.838a2 2 0 0 0-.162-.014.05.05 0 0 1-.033-.01l-.018-.008a.1.1 0 0 1-.037.007q-.12 0-.148-.063.005-.28.009-.301.01-.025.07-.046.013.01.018.011.074.032.13.074.291.117.338.18.064.05.064.156-.018.003-.022.014a1 1 0 0 1-.21 0Zm-1.774 1.061.01.007q-.006.05-.025.064a.14.14 0 0 1-.064.017q-.385.053-.51-.01a.17.17 0 0 1-.069-.142.4.4 0 0 1 .05-.208q.024-.032.052-.032l.042.011q.013.01.013.014a.3.3 0 0 0 .052.05q.32.123.361.155.018.018.088.07zm-.788-.654v-.018a.1.1 0 0 1 .028-.028l.297-.036q.347-.042.375-.042a1 1 0 0 1 .213-.05.6.6 0 0 0 .186-.063q.064-.443.068-.463.01-.106.015-.213.018-.25.06-.272.051.005.106.014l.01-.01h.018l.028.021q.171.039.227.081v.022l-.07.056-.009.018q-.056.042-.056.615.004.046.052.046l.388-.074a.07.07 0 0 1 .047.025q.19.219.19.254 0 .037-.042.046a.6.6 0 0 1-.13.01 9 9 0 0 1-.459.117q-.054.022-.054.106 0 .203.027.234.027.06.097.06a1 1 0 0 0 .214-.102 5 5 0 0 1 .435-.272q.005-.012.019-.015.069-.05.097-.05.07.004.143.082a.18.18 0 0 1 .051.12 1.4 1.4 0 0 0-.194.067.4.4 0 0 0-.135.068q-.435.22-.435.25.398.33.83.52l.045-.003.496.106.023.007h.01q.36.07.43.159a.1.1 0 0 0-.009.04.7.7 0 0 1-.301.066q-.555.015-.695 0-.26-.003-.26-.099-.083-.176-.156-.212l-.163-.11a.3.3 0 0 1-.046-.024q-.357-.188-.426-.188-.032 0-.047.022l.005.502q.005.184.037.354l.037.176q-.005.072-.019.081a.1.1 0 0 1-.041.011.8.8 0 0 1-.236-.064l-.125-.05q-.505-.154-.603-.23a.4.4 0 0 0-.055-.038.6.6 0 0 1-.149-.102v-.025l.093.007q.228.06.343.064h.01q.18.021.264-.025l.027-.025q.032-.05.005-.665a2 2 0 0 1-.032-.297q-.03-.05-.029-.392l-.023-.018a1 1 0 0 0-.19.004q-.454.045-.528.091a.5.5 0 0 1-.134.043q-.014 0-.042-.021-.014-.011-.014-.014-.138-.128-.139-.255m.649.89q.245-.15.329-.151.037 0 .037.032-.004.03-.06.067-.028.036-.519.438l-.37.266q-.112.12-.153.124a.24.24 0 0 1-.107-.057q-.204-.177-.204-.202 0-.045.213-.123a9 9 0 0 1 .44-.195q0-.01.014-.01a5 5 0 0 1 .38-.188Zm3.68.451a1 1 0 0 1 .114-.064q.2-.19.255-.237.19-.225.19-.326 0-.064-.057-.06-.024 0-.028.003-.615.079-.786.192-.051-.004-.128-.076l-.018-.022q-.067-.147-.01-.146 1.136-.306 1.774-.376.279-.054.294-.064a1 1 0 0 0-.11-.076.7.7 0 0 0-.17-.07q-.027-.012-.473.157-.113 0-.142-.102a1 1 0 0 1-.018-.105q-.166-.674-.11-.831.025-.064.086-.067a.5.5 0 0 1 .1-.02q.756-.158 1.153-.146.276.016.318.087-.048.105-.076.206-.104.767-.104.857.004.075.066.075l.388-.052q.076 0 .132.072a.45.45 0 0 1 .085.225q.006.015.005.03-.004.057-.076.057-.175-.042-.856.003a.4.4 0 0 1-.057.008q-.07.008-.09.053a.1.1 0 0 0-.013.045q0 .052.056.048l.1-.007q.33 0 .345.022.014.028.014.064.005.037.005.027.023.06.023.07-.004.043-.033.054a1.06 1.06 0 0 0-.468.098q-.061.025-.104.139a.3.3 0 0 0-.01.049q.006.06.067.082l.662.241q1.008.204 1.348.304.114.038.114.072 0 .038-.057.053l-.275.075q-.028-.011-.382.01a7 7 0 0 0-.389-.022 1.4 1.4 0 0 0-.303-.018q-.15-.012-.165-.057c-.025-.063-.03-.132-.066-.184a1 1 0 0 0-.066-.075q-.128-.127-.398-.166a1.7 1.7 0 0 1-.487-.157q-.615-.154-.676-.083-.114.094-.114.199a.2.2 0 0 1-.114.102l-.07.026q-.28.11-.568.11-.194 0-.194-.057 0-.046.17-.102zm1.207-.387-.014-.233q-.01-.154-.124-.154-.08 0-.108.045a.17.17 0 0 0-.066.143q.005.082.047.117.151.12.236.12.03-.004.029-.038m-.095-1.166q.318-.04.331.004.029.136.058.147.028.015.046.015.053-.004.053-.06-.005-.662-.038-.707-.062-.068-.133-.068a.37.37 0 0 0-.24.095q-.082.075-.077.097.006.019.02.034l.198-.038.038-.004q.042 0 .057.023.024.14-.02.207-.037.03-.298.136-.084.037-.084.085.004.031.061.034zm5.54.642-.024-.403a.1.1 0 0 1-.014-.047q.004-.083.097-.083l.015.004q.316.044.375.09.019.012.019.028-.093.3-.092.411-.005.206-.093.264a.2.2 0 0 1-.117.036.11.11 0 0 1-.088-.055.46.46 0 0 1-.078-.245m-.112 1.058q.054 0 .156.06.093.079.575.13.204-.003.239-.04.01-.015-.034-.955-.006-.344-.01-.467a.4.4 0 0 1-.01-.083l-.004-1.204q0-.075.043-.099a.13.13 0 0 1 .068-.023q.02.003.259.079.17.058.17.118l-.005.024q-.01.003-.01.008-.14.145-.063 1.402-.068.328.107 1.56-.005.11-.121.11-.161-.003-.615-.17l-.072-.027a1.3 1.3 0 0 1-.278-.106q-.395-.205-.395-.317m-1.423-1.587.488-.561a.3.3 0 0 0 .039-.048q.268-.284.33-.284.045 0 .108.083a.4.4 0 0 1 .097.13q-.004.024-.21.241.006.055.099.072.014.015.219.031.248.036.248.13-.004.06-.165.142a.7.7 0 0 1-.16.048q-.108.016-.23-.083a.4.4 0 0 0-.234-.099.24.24 0 0 0-.122.047 2 2 0 0 0-.142.127.6.6 0 0 0-.14.146q-.21.253-.21.312.004.04.039.04.035-.008.224-.095.015-.015.21-.08.375-.129.638 0 .073.04.073.064 0 .087-.058.134a.2.2 0 0 0-.01.056l-.02.083a1 1 0 0 1-.054.146l-.077.15q-.015.008-.02.031-.126.198-.273.198-.297-.027-.316-.004-.054.036-.088.213-.058.206.03.277a.25.25 0 0 0 .146.047q.083 0 .233-.035a.16.16 0 0 0 .113-.091.5.5 0 0 0 .053-.194q.015-.142.102-.142.025.005.04.02l.101.248q.045.112.064.265-.006.072-.034.095a.3.3 0 0 1-.137.044l-.034.004q-.6.102-.692.027-.254-.121-.282-.34 0-.027.093-.798-.006-.062-.025-.066l-.137-.028-.014.004-.088.059a.8.8 0 0 0-.175.118.3.3 0 0 1-.083.052.4.4 0 0 0-.068.027q-.22.091-.249.095a4 4 0 0 0-.272.064.2.2 0 0 1-.05.011q-.029-.003-.029-.028a.06.06 0 0 1 .02-.031.4.4 0 0 0 .088-.095.3.3 0 0 1 .068-.083.04.04 0 0 0 .024-.02 7.4 7.4 0 0 0 .911-.876m.687.557q-.005-.044-.019-.056a.3.3 0 0 0-.19.012q-.37.19-.37.218.009.015.024.015l.049-.004q.136-.004.195.055a.2.2 0 0 1 .014.08q.005.043.093.043.087 0 .122-.036a.33.33 0 0 0 .077-.213q0-.063.005-.114m4.168.833q.044.3-.003.416-.034.052-.113.052-.082-.004-.41-.136a.1.1 0 0 0-.029-.016l-.024-.02q-.22-.178-.299.027a.13.13 0 0 1-.111.053 1.3 1.3 0 0 1-.235-.08q-.068-.045-.069-.08 0-.058.279-.346l.059-.064q.03-.036.03-.032a.3.3 0 0 1 .063-.056q.004-.016.01-.02 0-.008.004-.008l-.014-.012q-.386.084-.45.124l-.044.012q-.093-.045-.122-.096-.038-.052-.02-.1.015-.03.108-.044.483-.13.528-.13.166-.062.331-.115l.191-.048q.02-.025.02-.037a.1.1 0 0 0-.02-.048.05.05 0 0 0-.044-.02q-.273 0-.469.096a.4.4 0 0 1-.078-.02q-.069-.044-.113-.188.04-.052.074-.052a.2.2 0 0 1 .044-.008.5.5 0 0 1 .093-.032q.59-.185.649-.237.172-.156.172-.253 0-.056-.044-.056-.123.004-.23.149-.162.22-.264.248a.3.3 0 0 1-.073.02q-.074-.004-.074-.088a.13.13 0 0 1 .025-.072q.068-.146.141-.277a.25.25 0 0 0-.146.004q-.107.032-.2.056-.093-.132-.093-.204.048-.045.87-.205.493-.136.688-.052v.008l.01.008q-.004.144-.186.196a.3.3 0 0 0-.102.04q.004.025.01.029a.1.1 0 0 0 .034.016q.054.028.112.052.186.096-.034.209-.127.055-.127.108l.005.024a.3.3 0 0 0 .054.012q.097.004.126.028a.1.1 0 0 1 .035.08q-.006.093-.181.164-.2.069-.23.093a.1.1 0 0 0-.015.052q0 .036.045.06.215-.06.273-.06.044 0 .108.048.078.072.078.145-.004.056-.18.092a.1.1 0 0 0-.054.016 3 3 0 0 0-.255.036q-.073.02-.073.056v.025a1 1 0 0 0 .156.067q.186.073.186.157 0 .04-.058.088-.006 0-.006.004-.043.016-.322.016-.01.012.005.132zm-.677.014v.017a.14.14 0 0 0 .064.052.4.4 0 0 0 .16.028q.114 0 .147-.036.034-.02.034-.069.02-.337-.039-.42a.6.6 0 0 0-.126.016.5.5 0 0 1-.098.011q-.069.01-.083.032-.025.025-.024.157l-.01.048a1 1 0 0 0-.025.165Zm.879.165v-.028q.034-.06.196-.24l.15-.221a.3.3 0 0 1 .026-.053q.019-.036.121-.324l.045-.2q.014-.118.034-.225.005-.559.019-.57.025-.04.367-.1l.009-.005q.547-.18.709-.18a.17.17 0 0 1 .126.048q.065.073.065.132l-.01.073q-.025.04-.26.112a.8.8 0 0 1-.185.068q-.355.03-.43.14-.162.169-.118.278h.05q.855-.217 1.035-.233.127-.013.19-.013.046.005.118.077.034.028.127.184a.3.3 0 0 1 .054.129q-.006.072-.098.072a.6.6 0 0 0-.118-.012q-.444-.028-.473.008a.15.15 0 0 0-.068.105q-.064.256-.05.34-.024.113-.004.642 0 .454.014.694-.005.1-.2.1a.4.4 0 0 1-.097-.016q-.084-.052-.084-.526a9 9 0 0 0-.01-.38q-.048-.85-.097-.887a.06.06 0 0 0-.044-.016.4.4 0 0 0-.137.032q-.318.129-.318.43.045.123-.106.34a.72.72 0 0 1-.548.225m-.146-2.92.014.012.059.072q.23.289.166.518a.5.5 0 0 1-.146.035.44.44 0 0 1-.308-.12q-.074-.073-.073-.124 0-.213.146-.333a.2.2 0 0 1 .142-.06" fill="#fffffe"/></g><defs><filter id="a" x="-13" y="0" width="154" height="157" filterUnits="userSpaceOnUse" color-interpolation-filters="sRGB"><feFlood flood-opacity="0" result="BackgroundImageFix"/><feColorMatrix in="SourceAlpha" values="0 0 0 0 0 0 0 0 0 0 0 0 0 0 0 0 0 0 127 0" result="hardAlpha"/><feOffset dy="16"/><feGaussianBlur stdDeviation="6.5"/><feColorMatrix values="0 0 0 0 0 0 0 0 0 0 0 0 0 0 0 0 0 0 0.03 0"/><feBlend in2="BackgroundImageFix" result="effect1_dropShadow_49_8910"/><feBlend in="SourceGraphic" in2="effect1_dropShadow_49_8910" result="shape"/></filter></defs></svg>