<svg width="128" height="137" fill="none" xmlns="http://www.w3.org/2000/svg"><g filter="url(#a)"><path fill-rule="evenodd" clip-rule="evenodd" d="M74.044 58.753h9.355l-.203.795-3.124.581-2.448.79-1.917.953-1.415 1.043-.874 1.122-.407 1.078-.045 1.042.378.91.7.793.998.542 1.206.288 1.456-.04 1.663-.417 1.743-.879 1.872-1.32.954-.88.958-.993.169.74-.045.8-.496 1.495-2.2 1.33-2.419 1.207-2.612.993-2.83.834-2.99.58-3.208.25-3.362-.044-3.58-.413zm-32.968 1.33.853-.32 1.769.862 1.827-.024.199.01.168.035.144.06.13.078.124.104.114.12.258.298 1.068 1.191 1.623 1.62 1.535 1.251 1.455.914 1.455.62 1.37.333 1.336.045 1.326-.214 1.33-.451 1.377-.666 1.325-.834 1.416-.999 6.281-5.278h2.945L59.782 71.853l-4.484-1.713-2.126-.914-2.16-1.077-2.2-1.416-2.373-1.698-2.578-2.204-2.785-2.747Zm31.076-15.01-1.252.074-.079-.173-.06-.06-.07-.054-.153-.07-.204-.025-.159.03-.149.054-.119.09-.1.119-.074.149-.054.179-.03.208-.005.243.248-.144.258-.104.273-.065.294-.02.332.04.293.08.253.124.12.08.094.083.094.1.085.11.133.248.1.282.055.333-.04.363-.04.153-.054.16-.06.134-.084.133-.095.115-.11.099-.123.1-.134.08-.313.124-.362.089-.422.034-.259-.01-.248-.03-.234-.05-.213-.069-.189-.079-.183-.104-.155-.125-.149-.133-.123-.159-.115-.17-.094-.193-.074-.208-.055-.229-.045-.248-.03-.263-.01-.279.025-.277.03-.254.045-.243.059-.223.074-.214.09-.189.104-.174.12-.153.139-.145.144-.118.164-.11.173-.09.194-.068.204-.055.223-.04.234-.02.382.025.337.06.298.099.253.134.11.08.11.093.083.1.08.11.134.242zm-1.818 1.326.134.02.104.034.1.054.079.066.07.088.045.1.039.11.02.138-.015.144-.035.134-.044.114-.075.086-.085.073-.104.05-.118.03-.14.01-.129-.02-.119-.04-.1-.05-.079-.074-.074-.079-.055-.104-.035-.12-.02-.13.01-.148.03-.12.05-.108.074-.095.085-.064.11-.055.133-.03zm-4.727-1.252v1.395H64.51zm-2.145 2.4v-1.074l2.17-2.553h1.256v2.622h.585v1.004h-.585v.973h-1.281v-.973zm-4.654-.155 1.257-.074.08.158.059.07.07.05.153.063.2.016.162-.016.144-.05.115-.088.104-.11.08-.144.055-.183.04-.219.014-.238-.258.154-.273.104-.273.06-.288.015-.339-.035-.297-.085-.258-.113-.114-.075-.105-.095-.089-.094-.085-.104-.133-.249-.09-.292-.05-.338.01-.193.025-.175.034-.164.05-.154.07-.143.08-.13.099-.129.104-.1.129-.099.134-.088.155-.07.163-.06.377-.089.437-.04.249.01.243.03.223.05.214.07.184.078.178.11.154.124.15.139.118.159.11.178.1.194.074.219.06.233.044.248.025.269.02.288-.025.272-.03.259-.045.243-.065.224-.069.203-.094.189-.105.169-.114.159-.139.129-.144.124-.164.104-.174.08-.193.074-.208.05-.214.03-.243.014-.383-.024-.343-.06-.297-.099-.259-.124-.11-.075-.103-.094-.09-.09-.074-.104-.13-.233zm1.818-1.322-.13-.02-.109-.029-.09-.055-.073-.065-.07-.083-.044-.105-.036-.124-.01-.133.005-.15.03-.123.045-.105.065-.095.089-.064.094-.055.12-.035.139-.015.134.03.12.035.093.055.09.064.07.085.084.198.024.124-.02.15-.024.128-.055.114-.075.09-.088.07-.105.059-.13.035zm-3.804-2.224v4.673H55.46v-2.682h-1.067v-.943l.288-.01.247-.05.219-.079.2-.114.079-.07.074-.074.134-.184.094-.224.065-.243h1.028Zm19.382 28.127 1.46-.453-.02.667-.055.654-.084.646-.12.635-.148.626-.18.616-.213.601-.242.586-.269.571-.298.561-.323.537-.347.53-.373.498-.403.481-.421.477-.443.446-.461.433-.492.408-.506.381-.522.358-.546.338-.561.313-.58.283-.592.263-.611.233-.62.203-.636.174-.646.149-.66.115-.67.08-.671.044-.69.02-.69-.02-.68-.045-.671-.08-.66-.114-.64-.149-.637-.174-.62-.203-.611-.233-.596-.263-.581-.283-.561-.313-.542-.338-.52-.358-.512-.381-.482-.408-.472-.433-.437-.446-.427-.477-.397-.481-.373-.497-.347-.531-.323-.537-.298-.56-.268-.572-.249-.586-.208-.601-.178-.616-.155-.626-.119-.635-.08-.646-.054-.654-.02-.666v-2.752l1.43.78v1.952l.06 1.192.184 1.132.298 1.097.391 1.053.508.998.6.953.686.885.77.82.849.739.923.67.989.576 1.047.492 1.103.392 1.151.288 1.193.174 1.226.06 1.221-.06 1.192-.174 1.147-.288 1.108-.392 1.043-.492.988-.576.924-.67.849-.74.775-.82.69-.884.596-.953.501-.998.402-1.053.293-1.097.179-1.132zm.025-9.505 1.435-.82v6.262l-1.435.154zm1.435-4.117h-1.435v-7.235H64.926l.02 10.92-1.514 1.217V51.116H52.284v14.525l-1.431-.944v-15.01h26.81v8.666ZM63.432 72.916l1.494.278v3.72h-1.494zm.57-33.058-.62.01-.616.02-.616.04-.61.055-.607.065-.605.089-.596.099-.59.11-1.168.277-1.137.318-1.127.388-1.098.432-1.068.482-1.037.54-1.018.582-.487.307-.491.323-.472.328-.477.337-.457.358-.456.368-.443.377-.432.383-.427.387-.407.407-.412.417-.392.417-.388.442-.372.442-.362.452-.358.462-.343.466-.332.482-.318.486-.313.488-.582 1.017-.531 1.038-.486 1.068-.432 1.097-.383 1.117-.327 1.153-.269 1.167-.114.59-.094.597-.085.6-.073.606-.055.611-.04.61-.025.622-.01.62.01.621.025.616.04.616.055.61.073.601.085.601.094.596.114.596.269 1.167.328 1.142.382 1.118.431 1.102.487 1.062.531 1.048.582 1.014.313.487.318.49.332.478.343.471.358.462.362.442.372.437.388.436.392.428.413.412.406.407.427.398.432.377.442.382.457.363.458.352.476.343.472.333.491.323.487.307 1.018.58 2.105 1.02 1.098.436 1.127.378 1.137.328 1.168.268.59.114.596.1.605.083.606.07.611.055.616.034.616.026.62.01.621-.01.621-.026.615-.034.607-.055.606-.07.6-.084.591-.099.591-.114 1.167-.268 1.152-.328 1.118-.378 1.092-.437 1.073-.482 1.042-.536 1.01-.58.5-.308.477-.323.486-.333.463-.343.466-.352.448-.363.446-.382.432-.377.422-.398.422-.407.397-.412.398-.428.387-.436.378-.437.357-.442.358-.462.342-.471.328-.477.323-.492.308-.486.58-1.014.537-1.048.487-1.062.436-1.102.377-1.118.323-1.142.273-1.167.115-.596.104-.596.08-.6.069-.602.055-.61.04-.616.02-.616.014-.62-.015-.621-.019-.622-.04-.61-.055-.61-.069-.606-.08-.601-.104-.596-.115-.59-.273-1.168-.323-1.153-.377-1.117-.436-1.097-.487-1.068-.536-1.038-.581-1.017-.308-.488-.323-.486-.328-.482-.342-.466-.358-.462-.357-.452-.378-.442-.387-.442-.398-.417-.397-.417-.422-.407-.422-.388-.432-.382-.446-.377-.448-.368-.466-.358-.463-.337-.486-.328-.477-.322-.5-.308-1.01-.582-1.042-.54-1.073-.482-1.092-.432-1.118-.388-1.152-.318-1.167-.278-.591-.11-.591-.098-.6-.09-.606-.064-.606-.055-.616-.04-.62-.02zm0-2.1-.674.01-.677.025-.67.04-.66.054-.66.084-.65.09-.647.104-.64.129-.636.14-.63.154-.626.168-.621.184-.61.199-.606.218-1.197.472-1.162.521-1.133.586-.55.308-.552.318-.536.337-.527.349-.516.367-.511.372-.497.383-.496.391-.482.413-.472.417-.462.427-.452.447-.436.442-.433.466-.417.462-.412.487-.393.487-.387.506-.368.512-.362.511-.352.536-.333.536-.323.547-.312.547-.581 1.136-.522 1.163-.477 1.192-.209.605-.203.611-.183.615-.17.626-.158.636-.14.641-.123.64-.105.651-.09.65-.073.66-.065.661-.045.666-.025.67-.005.68.03 1.346.045.67.065.66.074.656.09.651.104.656.123.64.14.636.159.63.169.626.183.621.203.61.21.606.476 1.187.521 1.167.582 1.132.312.556.323.542.333.54.352.528.362.51.368.512.387.497.393.487.412.486.417.467.433.467.436.447.452.447.462.427.472.422.482.407.496.392.497.383.51.377.517.362.527.349.536.332.552.323.55.313 1.133.58 1.162.527 1.197.472.606.213.61.194.62.189.627.174.63.153.636.134.64.13.646.104.65.089.66.08.661.06.67.044.676.024.675.01.67-.01.677-.024.664-.044.661-.06.66-.08.66-.089.647-.104.64-.13.64-.134.632-.153.62-.174.62-.19.617-.193.606-.213 1.191-.472 1.158-.526 1.132-.58.556-.314.546-.323.532-.332.53-.349.523-.362.506-.377.501-.383.492-.392.482-.407.476-.422.457-.427.452-.447.437-.447.432-.467.423-.467.401-.486.398-.487.382-.497.378-.511.362-.511.342-.527.338-.541.323-.541.308-.557.58-1.132.532-1.167.467-1.186.213-.607.204-.61.184-.621.174-.626.15-.63.143-.635.119-.641.11-.656.094-.65.074-.656.054-.66.046-.671.024-.67.01-.676-.01-.68-.025-.67-.045-.666-.054-.66-.074-.66-.095-.65-.109-.651-.12-.641-.143-.64-.15-.637-.173-.626-.184-.615-.204-.61-.213-.606-.467-1.192-.532-1.163-.58-1.136-.308-.547-.323-.547-.338-.535-.342-.537-.362-.51-.378-.513-.382-.506-.398-.487-.401-.487-.423-.462-.432-.466-.437-.442-.452-.447-.457-.427-.476-.417-.482-.413-.492-.39-.501-.384-.506-.373-.522-.366-.531-.349-.532-.337-.546-.318-.556-.308-1.132-.586-1.158-.52-1.191-.473-.606-.218-.616-.2-.621-.183-.62-.169-.632-.154-.64-.14-.64-.128-.646-.104-.66-.09-.66-.084-.662-.054-.665-.04-.676-.025zm0-14.515-1.052.015-1.043.04-1.033.07-1.033.093-1.022.11-1.009.148-1.009.164-1.002.194-.988.219-.979.233-.968.268-.958.288-.953.313-.94.328-.933.352-.918.382-.909.398-.9.422-.883.438-.874.46-.86.483-.843.496-.839.526-.82.542-.8.562-.798.57-.776.601-.764.61-.75.636-.73.65-.72.672-.7.684-.676.7-.67.711-.655.74-.631.745-.616.765-.591.779-.581.79-.561.804-.541.824-.521.835-.498.84-.486.862-.457.875-.447.884-.421.894-.393.908-.383.92-.352.928-.333.943-.308.948-.288.964-.258.969-.243.983-.218.987-.195.994-.169 1.013-.258 2.036-.089 1.028-.064 1.033-.045 1.048-.015 1.047.015 1.048.045 1.038.064 1.043.09 1.028.119 1.018.138 1.018.17 1.008.194.998.218.988.243.974.258.972.288.964.308.954.333.938.352.934.383.908.393.91.421.888.447.884.457.879.486.859.498.849.52.83.542.824.56.804.582.795.59.78.617.76.63.744.656.735.67.72.676.695.7.685.72.67.73.651.75.631.764.616.776.596.799.58.799.552.82.547.839.52.844.497.859.486.874.463.884.442.9.417.908.402.918.377.934.353.939.332.953.314.958.282.968.263.979.244.988.214 1.002.193 1.01.164 1.008.144 1.022.119 1.033.095 1.033.064 1.043.041 1.052.013 1.048-.013 1.043-.041 1.039-.064 1.022-.095 1.023-.119 1.017-.144 1.004-.164.998-.193.989-.214.983-.244.973-.263.963-.282.949-.314.944-.332.928-.353.919-.377.908-.402.9-.417.878-.442.874-.463.86-.486.849-.496.828-.521.82-.547.814-.551.785-.581.785-.596.759-.616.75-.631.73-.65.71-.67.705-.686.686-.694.66-.721.65-.735.636-.745.612-.76.6-.779.581-.795.56-.804.537-.824.523-.83.506-.85.476-.858.467-.879.432-.884.423-.889.401-.909.373-.908.357-.934.333-.938.308-.954.288-.964.263-.972.244-.974.213-.988.189-.998.174-1.008.138-1.018.12-1.018.094-1.028.059-1.043.04-1.038.015-1.048-.015-1.047-.04-1.048-.059-1.033-.094-1.028-.12-1.023-.138-1.013-.174-1.013-.189-.994-.213-.987-.244-.983-.263-.969-.288-.964-.308-.948-.333-.943-.357-.929-.373-.919-.401-.908-.423-.894-.432-.884-.467-.875-.476-.863-.506-.84-.523-.834-.536-.824-.56-.804-.582-.79-.6-.78-.612-.764-.635-.745-.65-.74-.66-.71-.687-.7-.705-.685-.71-.672-.73-.65-.75-.635-.76-.61-.784-.602-.785-.57-.814-.562-.82-.542-.828-.526-.85-.496-.859-.482-.874-.461-.878-.438-.9-.422-.908-.398-.92-.382-.927-.352-.944-.328-.949-.313-.963-.288-.973-.268-.983-.233-.989-.219-.998-.194-1.003-.164-1.018-.149-1.023-.109-1.022-.094-1.039-.07-1.043-.04zm0-3.243-1.136.015-1.128.045-1.117.07-1.113.1-1.097.128-1.097.148-1.083.184-1.083.209-1.062.229-1.063.257-1.047.294-1.033.308-1.033.328-1.019.362-.997.388-.994.406-.983.422-.968.462-.958.467-.94.506-.928.517-.913.541-.904.566-.879.581-.87.606-.863.626-.84.645-.819.66-.81.681-.788.706-.776.72-.75.734-.745.76-.72.77-.7.794-.684.804-.667.83-.645.84-.62.853-.607.87-.586.883-.56.904-.537.914-.526.929-.496.943-.478.953-.451.964-.432.979-.403.997-.382 1.003-.363 1.018-.338 1.023-.307 1.038-.283 1.047-.258 1.063-.234 1.068-.208 1.072-.18 1.088-.277 2.2-.105 1.112-.073 1.113-.04 1.132-.016 1.132.015 1.133.04 1.126.074 1.113.105 1.117.119 1.103.159 1.092.179 1.088.208 1.078.234 1.067.258 1.058.283 1.043.307 1.042.338 1.028.363 1.013.382.994.403.998.432.978.451.969.478.958.496.938.526.929.536.914.561.903.586.885.607.868.62.854.645.845.667.824.684.8.7.794.72.77.745.765.75.734.776.715.789.71.81.681.819.665.839.645.864.622.87.605.878.586.904.562.913.541.929.521.939.497.958.471.968.457.983.432.994.408.997.382 1.019.357 1.033.338 1.033.308 1.047.283 1.063.263 1.062.233 1.083.205 1.083.183 1.097.154 1.097.124 1.112.099 1.118.075 1.128.034 1.136.016 1.128-.016 1.127-.034 1.122-.075 1.108-.099 1.107-.124 1.092-.154 1.094-.183 1.067-.205 1.078-.233 1.052-.263 1.048-.283 1.043-.308 1.023-.338 1.013-.357 1.007-.382.994-.408.978-.432.968-.457.954-.471.944-.497.928-.521.914-.541.899-.562.883-.586.88-.605.849-.622.839-.645.824-.665.805-.68.79-.71.774-.716.755-.734.74-.765.725-.77.695-.795.686-.799.66-.824.645-.845.625-.854.606-.868.582-.885.566-.903.546-.914.512-.929.501-.938.472-.958.456-.969.427-.978.413-.998.378-.994.362-1.013.333-1.028.308-1.042.287-1.043.259-1.058.238-1.067.203-1.078.18-1.088.154-1.092.134-1.103.093-1.117.071-1.113.044-1.126.02-1.133-.02-1.132-.044-1.132-.071-1.113-.093-1.112-.134-1.102-.154-1.098-.18-1.087-.203-1.073-.238-1.068-.259-1.063-.287-1.047-.308-1.038-.333-1.023-.362-1.018-.378-1.003-.413-.998-.427-.978-.456-.964-.472-.953-.501-.943-.512-.93-.546-.913-.566-.904-.582-.884-.606-.869-.625-.854-.645-.84-.66-.829-.686-.804-.695-.794-.726-.77-.739-.76-.755-.734-.775-.72-.789-.706-.805-.68-.824-.66-.84-.646-.848-.626-.88-.606-.883-.58-.899-.567-.913-.541-.93-.517-.942-.506-.955-.466-.968-.463-.978-.422-.994-.406-1.007-.388-1.013-.362-1.023-.328-1.043-.308-1.048-.294-1.052-.258-1.078-.228-1.067-.209-1.094-.184-1.092-.148-1.107-.129-1.108-.1-1.122-.069-1.127-.045zm-.72 7.837.085 2.06.616-.024.168-.01.15-.045.119-.07.099-.11.08-.148.054-.169.02-.208v-.244l-.02-.238-.039-.214-.065-.183-.08-.145-.09-.119-.108-.083-.13-.056-.144-.02zm.637 4.39-.457.019.148 3.665-1.524.06-.432-10.539 2.215-.084.258-.01.243.01.228.04.21.06.193.093.174.12.164.14.143.168.13.194.109.218.099.248.08.268.059.3.05.321.03.348.015.372v.507l-.02.447-.05.407-.075.353-.09.303-.128.248-.074.104-.07.09-.09.084-.089.07.105.054.109.07.09.08.083.104.154.253.13.312.11.378.074.442.05.506.024.572-.005.457.025.66.05.457.034.144.04.089.04.035.044-.02.016.348-1.555.06-.04-.24-.04-.387-.073-1.202-.011-.47-.04-.393-.07-.329-.093-.267-.065-.095-.07-.09-.074-.074-.08-.05-.093-.029-.1-.015h-.1zm6.33 60.319-.008.035-.016.04-.01.034-.01.035-.01.03-.01.034-.005.03-.005.035v.035l-.005.035v.034l.005.035v.035l.005.034.005.04.01.03.01.04.01.045.01.044.016.045.024.09.04.099.04.104.049.119.114.263.353 1.038.06.125.148.268.616 1.459.119.572-.442.466-.04.025-.04.025-.044.02-.04.02-.045.02-.044.02-.094.034-.045.02-.045.02-.044.02-.04.03-.04.025-.045.029-.02.015-.02.015-.014.015-.02.02.02.04.02.039.034.075.04.089.02.035.024.04.01.02.01.014.01.015.016.016.029.029.015.01.04.02.02.009.02.01.025.005.019.005h.03l.03.005h.025l.01.01.004.005.005.01.005.01v.08l.005.01.005.005.005.01.08.084.035-.005.03-.005.03-.01.029-.01.035-.014.024-.016.03-.015.02-.014.055-.04.05-.035.024-.015.03-.016.03-.009.03-.02.348-.406.02.009.029.02.01.01.015.01.01.015.005.014.01.026.014.03.01.034.015.035.005.015.01.014.204.71.01.07.01.08.009.08.01.084.01.09.015.099.015.109.02.118-.044.046-.055.054-.16.124-.168.169-.094.084-.085.08-.04.05-.044.039-.03.045-.035.04-.035.039-.034.04-.025.035-.025.035-.02.039-.015.031-.005.019-.005.01v.015l-.005.015v.01l.005.014v.01l.005.011.005.009.005.01.01.01.01.005.254.09.869-.069.04.01.804.128.461.159.522-.094.025-.01.03-.005.03-.01.023-.015.026-.01.025-.015.025-.015.025-.02.05-.03.079-.059.024-.014.02-.011.005-.039.005-.04.01-.04.01-.034.015-.045.01-.04.015-.03.02-.034-.174-.79-.458-1.108-.009-.01-.005-.01-.005-.005-.005-.01v-.02l.005-.02.005-.009.005-.01.006-.005.003-.01.01-.005h.02l.05.015.04.015.075.035.04.015.034.014.02.005.04.01h.02l.46.09.02.03.026.019.02.02.02.016.024.01.02.008.02.006.025.005.044.01.026.005.02.005.025.01.02.01.019.015.025.02.76.342.014-.01.015-.01.01-.005.016-.005.01-.005.014-.005h.01l.01.005h.01l.005.005.02.01.02.016.02.014.024.015.02.015.02.014.015.006.01.004h.01l.015.006h.044l.015-.006.016-.004.015-.01.044.035.015.01.01.01.005.02.01.014.01.035.015.035.004.02.01.015.005.014.01.015.016.015.014.01.015.01.02.01.08-.04.074-.04.164-.079.089-.05.084-.04.045-.024.045-.03.045-.025.054-.03.045-.034.044-.03.05-.035.05-.045.05-.04.05-.035.049-.049.055-.044.044-.05.05-.055.05-.064.054-.055.054-.065.055-.063.045-.076.054-.07-.089.01-.03.006h-.06l-.004-.005-.01-.005v-.024l.01-.02.01-.025.015-.06.01-.035.01-.04-.045.015-.03.01h-.005l.005-.004.02-.015.04-.02.089-.065.129-.064.154-.085.159-.09.154-.094-.154-.124-.054-.025-.065-.024-.07-.03-.094-.036-.1-.044-.054-.015-.05-.02-.12-.03-.063-.015-.06-.014-.06-.016-.064-.014-.075-.01-.069-.01-.07-.01-.064-.005h-.224l-.07.005-.069.01-.08.01-.04.005-.034.01-.04.01-.03.01-.039.01-.035.01-.045.015-.034.015-.065.034-.054.04-.05.045-.045.04-.093.074-.086.07-.04.03-.04.034-.043.034-.05.03-.045.03-.05.03-.055.03-.054.03-1.927.233-.014-.025-.03-.02-.02-.024-.02-.03-.015-.025-.02-.025-.015-.024-.03-.055-.203-.363-.015-.055-.025-.06-.02-.054-.03-.045-.024-.05-.025-.049-.054-.11-.055-.088-.065-.1-.024-.054-.025-.05-.03-.054-.02-.05-.006-.005v-.01l-.004-.005v-.005l.004-.016v-.014l.01-.015.011-.015.014-.03.02-.024.01-.015.01-.03v-.04l-.004-.005-.01-.015-.01-.015-.02-.024-.02-.025-.025-.03-.005-.016-.01-.014-.01-.02-.005-.014v-.06l.005-.02.124-.14.12-.137.103-.135.11-.124.109-.13.094-.119.105-.119.105-.119.044-.054.054-.055.05-.055.055-.055.06-.059.054-.054.054-.045.055-.055.06-.05.064-.05.065-.054.06-.05.064-.045.069-.05.145-.093.407-.199-.02-.035-.015-.034-.03-.066-.024-.063-.02-.046-.016-.024-.014-.025-.015-.025-.016-.025-.019-.019-.025-.02-.024-.02-.026-.024-.079.054-.07.05-.074.049-.074.04-.075.04-.07.045-.068.034-.08.035-.08.035-.084.03-.08.03-.1.023-.098.026-.1.02-.114.025-.124.029-.556.08-.06.064.453.447-.423.59-.363.399-.084-.13-.09-.129-.079-.134-.07-.12-.074-.123-.08-.125-.069-.124-.07-.124-.059-.119-.07-.119-.065-.12-.058-.118-.06-.13-.055-.114-.064-.124-.055-.118-.015-.026-.164-.258-.03-.04-.024-.045-.03-.044-.025-.05-.02-.045-.025-.054-.044-.09-.045-.094-.02-.045-.02-.05-.025-.05-.029-.033-.035-.045-.035-.04v-.02l-.005-.015-.01-.015-.005-.02-.02-.044-.025-.055-.029-.06-.035-.08-.02-.043-.014-.055-.02-.055-.02-.07-.02-.183-.015-.283-.06-.04-.05-.035-.019-.02-.026-.01-.024-.014-.02-.011-.024-.01-.02-.01-.02-.004-.025-.005h-.025l-.035-.005-.025-.005h-.03l-.074.039-.07.05-.03.025-.034.02-.035.024-.034.026-.03.03-.03.024-.024.024-.026.031-.02.03-.02.025-.014.03-.015.038Zm15.201-7.2-.01.029-.005.03-.005.025v.06l.005.02.005.014.005.02.005.015.005.015.005.01.02.03.02.02.04.05.02.03.02.023.004.015.01.016.005.02.005.014.005.02v.02l.005.02v.025l.005.014v.02l.005.016v.024l-.005.045v.07l.005.02v.019l.005.025.005.02.015.025.03.04.01.04v.109l-.005.035v.029l-.01.06-.005.03v.079l.004.02.005.014.006.015.004.015.005.015.01.016.01.019.01.015.045.074-.18.229-.028-.016-.03-.014-.055-.03-.05-.034-.054-.04-.055-.036-.05-.034-.05-.039-.044-.04-.09-.08-.099-.088-.05-.036-.049-.04-.055-.034-.044-.035-.026-.02-.004-.01v-.025l.004-.014.006-.01.01-.016.01-.01.02-.02.019-.02.005-.01v-.01l.005-.004v-.004l-.005-.005v-.01l-.01-.01-.362-.612.72-.451.03.01.034.019.03.015.035.02.03.025.035.02.055.04zm-2.204 1.286.119.313.05.074.68.526.094.035.015.005h.02l.084-.01.045-.005.044-.005.05-.005h.08l.382-.074.287.005.11-.09.07.01.317.249.03.059-.01.025-.01.025-.004.024v.02l-.006.025.006.03v.025l.005.025.01.1v.069l-.005.02.222.184.22.937-.26.22.026.441.094.045.085.04.089.044.044.025.045.02.05.014.045.02.045.016.044.015.05.015.044.015.055.01.045.01.044.009.05.01.05.005.05.005.05.005h.153l.05-.005.05-.005.054-.005.055-.01.054-.01.05-.014.05-.016.054-.015.353-.377-.02-.025-.025-.034-.025-.025-.03-.02-.024-.025-.03-.025-.05-.044-.01-.005-.005-.005-.004-.01-.005-.005-.005-.015V89.5l-.005-.024v-.03l-.006-.005v-.009l-.004-.006-.01-.005-.006-.014-.01-.005-.01-.005-.014-.01-.015-.005-.015-.005-.04-.01-.045-.015-.07-.02-.008-.014-.01-.016-.006-.015-.01-.04v-.02l-.005-.02v-.019l-.004-.024.004-.051.005-.054.005-.05.005-.06.016-.058.013-.06.016-.07.035-.134.04-.14.014-.073.02-.075.015-.075.02-.074.01-.08.02-.07.01-.079.004-.074.005-.08v-.104l-.01-.074v-.035l-.01-.044-.009-.036-.01-.03-.005-.033-.01-.036-.015-.03-.03-.069.204-.536.07-.417.034.005.03.005h.105l.02-.005.019-.005.015-.006.02-.01.04-.014.044-.025.054-.02.016.015.014.02.026.014.02.015.039.026.034.024.026.01.02.016.014.014.02.02.015.015.015.02.01.024.005.01.005.015.497.859.01.408.004.04.229.654.005.006.005.005.005.02.01.02v.029l.004.026v.024l-.004.02v.004l-.005.006-.01.06.159.347.025.02.01.015.01.01.015.01.019.01.01.004.02.005h.035l.02-.005.024-.005.02-.005.045-.014.025-.01.02-.015.025-.005.024-.005h.035l.01.005.477-.05-1.167 2.12-.477.685.005.065.01.085v.044l.005.05v.045l-.005.034.02.006.02.005.02.004.02.005h.074l.034-.005.036-.004.039-.011.035-.01.06-.014.03-.005.034-.005h.11l.02.005h.019l.08-.005.287-.363.005-.01v-.005l.005-.005v-.02l-.005-.009-.005-.01-.02-.02-.01-.014-.024-.021-.015-.015-.025-.025-.01-.009-.005-.016-.004-.019.297-.572 1.043-1.414.114-.07.08.06.079.054.064.045.055.044.05.045.045.035.04.035.039.029.03.03.025.025.034.046.04.039.035.044.01.08-.044.064-.046.06-.04.06-.044.064-.099.12-.094.114-.09.123-.105.12-.193.233-.105.119-.098.12-.095.118-.1.115-.093.124-.045.064-.04.06-.045.06-.044.064-.045.065-.04.064.01.025.01.02.015.014.015.02.03.03.02.015.015.015.014.015.02.01.02.015.015.005.02.01.02.01.025.005.025.004.541-.421.034.01.03.01.03.014.03.02.025.015.024.02.026.02.024.02.04.04.04.04.025.02.024.02.025.018.03.016.02.015.01-.01.01-.005.004-.01.01-.006.01-.005.01-.004.025-.005.02-.004.02-.006h.095l.019-.005h.015l.02-.01.005-.005.009-.005.006-.01.01-.005.382-.57.437-.725.08-.666-.215-.388-.024-.034-.025-.03-.055-.07-.024-.03-.03-.034-.035-.03-.025-.03-.064-.069-.07-.05-.07-.06-.074-.053-.06-.05-.079-.055-.074-.055-.08-.045-.148-.094-.15-.1.01-.014.01-.02.005-.015.005-.02.005-.014.01-.01.005-.02.015-.016.025-.019.025-.025.024-.02.075-.075.044-.049.035-.055.04-.05.04-.054.04-.055.078-.12.04-.054.035-.05.035-.054.046-.05.044-.049.019-.02.025-.03.388-.372.115-.209-.006-.02v-.024l-.005-.02v-.04l.005-.02v-.02l.006-.025.018-.079.02-.04.016-.04.02-.039.024-.04.025-.03.025-.04.11-.139.014-.07-.015-.019-.01-.02-.01-.014-.01-.016-.014-.015-.01-.014-.015-.015-.02-.015-.014-.01-.016-.015-.03-.02-.035-.02-.04-.02h-.01l-.01-.004h-.05l-.014.009-.015.005-.03.015-.03.02-.025.006-.014.004h-.04l-.01-.004h-.01l-.014-.006-.01-.005-.015.005-.015.006-.025.014-.025.02-.015.02-.02.02-.02.024-.014.025-.015.02-.04.055-.03.05-.015.025-.02.019-.02.025-.02.015-.059.03-.01-.01-.014-.005-.01-.01-.01-.005-.01-.005-.01-.005h-.02l-.025-.005-.03.005-.02.005-.025.005-.044.01-.025.005-.025.005-.024.005h-.05l-.015-.005-.01-.005-.025-.015-.015.035-.02.03-.024.035-.02.024-.02.025-.025.035-.044.05-.05.054-.02.025-.02.03-.02.029-.02.03-.02.03-.014.035-.04.05-.214.719-.288.492-.054.005h-.055l-.05.005-.044.01-.05.005-.04.01-.04.014-.04.01-.049.016-.04.019-.04.015-.034.02-.04.025-.04.025-.034.024-.04.03-.015-.004h-.026l-.014-.006-.015-.005-.01-.01-.015-.005-.01-.009-.01-.01-.01-.01-.01-.01-.014-.02-.036-.055-.227-.65.009-.025.005-.02.005-.03.005-.02v-.064l-.005-.02-.005-.04-.01-.044-.01-.035-.014-.04-.01-.044-.01-.036-.01-.034-.006-.02v-.09l.006-.02.005-.019.02-.04-.184-.442-.199-.556-.01-.075-.034-.025-.04-.029-.035-.03-.045-.03-.07-.059-.063-.065-.036-.03-.034-.025-.035-.03-.04-.024-.045-.025-.04-.024-.043-.02-.026-.01-.02-.01-.019-.005-.02-.005h-.035l-.045.005h-.049l-.05.005h-.07l-.025-.005-.019-.005-.02-.01-.393.278-.486 1.416-.02.018-.02.016-.014.02-.01.02-.03.054-.03.044-.015.026-.02.02-.015.019-.02.02-.019.02-.02.015-.025.015-.03.014-.045-.034-.025-.044-.04-.09-.02-.055-.018-.05-.045-.1-.016-.054-.015-.054-.014-.06-.01-.053-.015-.056-.02-.119-.01-.055-.005-.07-.004-.054-.011-.064v-.06l-.005-.064-.004-.065v-.19l.004-.063v-.065l.005-.06.005-.064.006-.065.009-.07.005-.058.01-.06.6-.77-.004-.025-.005-.025-.005-.024v-.065l.005-.044v-.05l-.005-.02-.005-.025-.005-.01-.006-.01-.004-.01-.01-.015-.01-.01-.005-.009-.025-.025-.025-.055.368-.477.367-.03.452-1.017-.004-.02-.005-.016v-.019l-.006-.02v-.04l-.005-.04v-.069l-.01-.015v-.015l-.005-.02-.004-.01-.01-.02-.016-.019-.01-.015-.014-.015-.02-.015-.015-.015-.034-.025-.036-.024-.034-.025-.015-.01-.015-.015-.015-.015-.014-.02-1.282.099-.368.19-.511.188-.014.01-.016.01-.024.025-.03.024-.025.035-.02.03-.02.03-.034.059-.02.03-.02.03-.02.03-.02.025-.02.025-.03.025-.03.03-.015.009-.024.01-.015.02-.005.01-.005.01v.024l.005.01.005.01.005.015.01.01.02.01.02.02.01.005.01.01.004.01.006.005v.025l-.006.01-.004.004-.005.005-.095.125-.094.12-.04.054-.035.054-.044.064-.035.055-.045.06-.035.054-.034.055-.03.06-.03.06-.05.118-.014.055-.179.169-.03.014-.03.02-.025.016-.025.014-.014.015-.02.02-.04.03-.035.025-.025.029-.024.035-.02.025-.199.536.005.016.005.01.005.019.005.01.004.01.006.01.01.01.01.01.01.014.019.01.046.02.019.015.015.01.02.016.01.005.005.009.005.005.01.02.004.015.006.01v.034l-.005.03-.01.03-.01.035-.01.03-.015.024-.015.026-.02.024-.02.025-.02.025-.02.02-.02.024-.024.02-.025.016-.03.019-.06.045-.56-.442-.12-.09-.03.035-.03.03-.05.064-.023.026-.025.029-.01.015-.01.02-.005.015-.005.02-.01.014v.015l-.01.016v.054l.01.035.005.034.01.03.02.08.009.034.01.075v.015l.006.02-.005.015v.02l-.005.014v.016l-.01.02-.006.009-.01.015-.01.015zm-31.31 10.935h-.015l-.015-.005h-.015l-.016-.01-.008-.005-.01-.01-.01-.01-.006-.01-.005-.015-.01-.01-.005-.02v-.04l.005-.01.01-.009.005-.015.005-.01.005-.01.01-.016.006-.009.008-.005.01-.01.01-.005.016-.005.01-.005h.02l.014.005.016.005.014.01.015.01.015-.005.01-.005.01-.005.01-.005v-.01l.005-.01v-.015l.005-.014v-.01l.005-.005.005-.006.01-.01.014-.004h.015l.065-.005.01.01.01.015.005.009.004.015.006.015v.01l.005.01v.065l-.01.024-.005.02-.015.02-.01.025-.02.03-.04.04-.025.02-.02.02-.024.02zm3.973-3.824.005.01.005.015.005.01.004.01.005.014.005.016v.024l.005.035-.005.03-.005.03-.014.045-.01.009-.006.01-.01.015-.01.01-.01.01-.015.015-.01.01-.014.004-.016.015-.014.006-.015.005h-.014l-.015.004h-.02l-.015-.004-.601.407-.036.02-.034.014-.025.01-.034.01-.03.005-.036.005-.054.014-.03.006-.029.01-.025.01-.03.01-.025.01-.025.014-.024.02-.03.03-.05.045-.253-.11v-.059l.005-.03.005-.025.01-.03.01-.024.015-.025.01-.025.025-.054.03-.044.01-.026.01-.025.01-.03.004-.025.497-.576.283-.242.253-.25.343-.153.014.01.01.01.01.01.005.01.01.01.005.01v.01l.005.01.005.019v.124l.005.02.005.015.005.01.005.01.005.01.005.01.005.01.01.01.014.004.015.01.016.006-.01.025zm-.011-1.45-.01.02-.01.014-.02.016-.015.014-.014.015-.02.015-.034.025-.04.03-.02.01-.015.015-.02.015-.015.019-.015.015-.01.03-.63.481-.403.433-.283.238-.015.01-.005.015-.01.015-.005.014-.009.035-.005.03-.01.03-.015.045-.01.014-.005.011-.01.015-.67.644-.02.011-.015.01-.02.01-.015.005-.035.01-.04.01-.044.01-.035.014-.02.005-.014.01-.021.011-.014.014-.75-.144-.928-.159-.016.04-.02.034-.04.065-.014.03-.015.034-.005.02-.005.015-.005.02-.005.02.318.532.303.133.024-.014.02-.015.03-.01.025-.01.045-.015.044-.014.05-.015.055-.016.06-.024.034-.01.03-.015.417-.03.02.01.025.005.025.01.024.01.02.01.01.01.015.005.005.01.01.01.015.01.005.01.005.014.005.015v.02l.005.02-.005.01v.014l-.005.016v.01l-.01.01-.005.014-.016.01-.01.01-.003.01-.016.01-.02.015-.03.02-.03.015-.029.01-.03.014-.055.03-.03.015-.03.01-.084.06-.079.064-.14.11-.138.104-.114.105-.115.093-.104.085-.188.169-.095.084-.094.075-.09.08-.108.078-.055.04-.055.04-.05.04-.07.035-.06.05-.069.039-.069.045-.064.04-.045-.006-.04-.005h-.035l-.034-.004-.036.004h-.029l-.03.005-.03.005-.03.01-.03.005-.029.01-.03.01-.055.02-.054.02-.01.024-.005.02-.01.015-.005.02-.01.015-.015.04-.02.03-.01.015-.004.014-.01.02-.005.02-.006.015v.044l.006.026-.075.51v.021l-.005.015-.005.014-.01.015-.014.036-.02.029-.015.025-.02.035-.006.015-.004.02-.005.015-.005.02-.01.014-.01.02-.005.02-.01.015v.03l.005.005v.014l.01.01.005.01.015.01.035.025.03.015.034.025.035.02.04.014.035.025.064.03.13.06.064.03.03.015.03.015.024-.02.025-.02.05-.035.039-.035.04-.035.04-.04.05-.034.024-.015.025-.015.02-.014.03-.02.025-.016.02-.019.02-.016.024-.014.02-.015.025-.01.024-.014.03-.011.025-.01.03-.01.025-.004.02-.01.03-.005.025-.005h.029l.03-.006h.03l.025-.005h.034l.03.005h.03l.03.006.024.005.03.005.036.005.029.005.03.009.03.005.03.01.034.015.03.01.03.015-.05.085-.054.079-.095.179-.045.089-.039.084-.036.085-.034.085-.034.079-.036.085-.059.154-.05.143-.05.13-.009.049-.015.04-.005.044-.005.045-.005.035-.005.04v.03l.005.034v.024l.01.03v.026l.01.014.01.025.014.02.01.02.015.02.02.015.02.01.015.015.025.009.02.011.025.009.024.01.03.005.054.015.051.01.059.01.065.01.05-.099.059-.11.044-.093.05-.1.05-.11.05-.094.044-.104.05-.11.045-.094.034-.104.04-.11.04-.099.08-.218.044-.105.035-.109.02-.054.119-.353.035-.02.034-.025.03-.02.06-.03.025-.01.024-.009.025-.005.01-.005.02-.005h.05l.015.005.01.005.015.005.01.004.009.005.02.016.02.02.02.014.02.02.02.016h.01l.015.004.02.01.063.06.016.04-.02.074-.025.07-.015.064-.025.07-.025.064-.024.07-.03.059-.03.06-.06.134-.064.134-.06.144-.073.154 1.37-.01.015.004h.014l.015.006.02.005.025.01.03.015.06.025.024.014.03.015.005.03v.055l-.005.025-.005.03-.01.025-.01.024-.01.025-.01.02-.015.02-.09.149-.024.044-.01.025-.01.02-.01.025-.004.025-.005.024-.005.015v.025l.005.025.005.035.009.025.01.024.015.025.02.03.02.025-.01.019-.01.021v.034l.005.006.005.009.01.01.015.01.024.02.035.025.016.01.014.014.015.01.01.016-.01.025-.005.029-.01.025-.005.024-.01.02-.025.051-.02.044-.05.094-.024.05-.02.044.015.026.015.024.015.02.01.02.005.02.01.02.005.025v.094l-.005.025-.01.054-.01.055v.03l.005.015.005.019.015.035.02.04.01.02.004.02.005.02.01.024.005.026v.054l-.015.025.258.114.04-.034.04-.041.02-.015.015-.009.02-.015h.02l.01-.011.02-.009.02-.005.019-.005h.08l.014-.025.015-.024.015-.026.025-.024.035-.045.035-.05.014-.03.01-.025.015-.029.015-.025.016-.035.008-.034.01-.04.006-.04.01-.04.005-.025v-.074l-.005-.04-.005-.055-.005-.049-.01-.055-.014-.059.058-.159.06-.169.06-.159.035-.08.03-.084.024-.074.07-.159.04-.084.034-.07.045-.08.05-.074.05-.08.104.02.035.025.024.03.044.02.015.004.02.006.01.005h.005l.005.005.01.01.005.01.006.019.01.064.019.1.109.65.104.329.299.213.07.055h.009l.005.005.005.005.005.004.005.016.005.019.005.021v.114l.005.014.01.03.004.006v.005l.005.005.01.004.026.005.024.01.026.005.024.01.044.02.046.024.054.02.025.015.025.01.02.005.049.01.03.005.025.01.01-.025.03-.04.024-.034.03-.03.06-.119.014-.04.015-.045.025-.089.03-.074.016-.04.018-.04.016-.04.025-.034-.02-.045.06-.059-.026-.021-.024-.024-.02-.02-.015-.021-.01-.019-.015-.015-.005-.02-.01-.019-.015-.036-.02-.045-.005-.024-.015-.025-.015-.02-.02-.024v-.075l-.004-.035-.01-.029-.01-.031-.01-.029-.01-.035-.015-.025-.015-.02-.015-.024-.035-.055-.029-.055-.04-.064-.02-.075-.01-.04-.02-.059-.01-.024-.009-.036-.02-.109-.035-.09-.03-.079-.035-.08-.025-.074-.029-.07-.035-.069-.02-.04-.02-.04-.025-.044-.025-.05-.615-.347.08-.169.074-.179.089-.174.04-.094.04-.084.044-.09.045-.084.05-.09.054-.09.055-.088.05-.094.055-.085.059-.094.154-.13.005-.009.005-.01.01-.01.005-.005v-.005l.009-.01.01-.006.025-.009.04-.01h.154l.025-.005.015-.01.034.01.025.005.03.005.025.005h.03l.024.005h.06l.07-.005h.169l.123-.005.408-.07.149-.213.174-.407.01-.025-.046-.383-.034-.064-.03-.05-.06-.11-.025-.058-.019-.06-.025-.074-.02-.065-.014-.02-.01-.025-.01-.02-.006-.02-.005-.025v-.074l.005-.02.005-.025.006-.02.01-.025.005-.024.01-.025.02-.05.024-.05.024-.049.06-.1.026-.044.024-.05.02-.049.005-.02.005-.025.079-.238-.05-.045-.034-.04-.015-.015-.02-.02-.014-.01-.02-.01-.02-.01-.03-.01-.025-.004-.03-.005-.035-.005-.04-.005-.094-.005.005-.01v-.045l-.005-.019-.005-.03-.01-.03-.055-.17-.392.29-.755 1.27-.694.85-.135.089-.099.02-.372-.045-.293-.04-.219-.035-.163-.024-.06-.01-.055-.01-.04-.01-.035-.01-.029-.01-.03-.01-.06-.025-.005.025v.02l-.004.015v.07l.004.015.006.014.004.01.01.026.015.019.015.02.04.064.015.02.005.015.01.02v.055l-.01.034-.005.015-.01.025-.015.025-.03.054-.015.035-.02.025.035.03.06.04.024.02.03.014.035.01.03.01.035.004.034.011.045.005h.035l.04.005.073.005h.08l.249.01.02.01.06.02.044.01.03.01.02.009.02.01.014.01.005.005.005.005.005.016.005.004v.03l-.01.02-.005.01-.01.01-.014.015-.015.014-.02.015-.025.015-.02.01-.025.01-.02.01-.024.01-.025.005-.026.01-.024.005h-.025l-.02.005h-.025l-.024-.005h-.02l-1.192.453-.75.044-.015-.005h-.014l-.011-.005-.004.005h-.006l-.005.005-.01.01-.01.009-.004.01-.01.015-.016.03-.01.01-.009.015-.01.01-.01.01-.01.01-.01.005h-.01l-.005-.01-.005-.01-.005-.005-.004-.01-.01-.005-.006-.006-.02-.01-.02-.004-.024-.005-.02-.005h-.025l-.045-.005-.02-.005-.024-.005-.02-.005-.02-.01-.01-.005-.005-.005-.01-.01-.005-.004v-.02l.005-.016.01-.018.005-.016.02-.045.02-.035.01-.014.005-.015.01-.02v-.02l.005-.02-.005-.02v-.01l-.005-.01v-.01l-.005-.01.193-.451.094-.223.05-.115.05-.114.055-.115.059-.114.055-.12.054-.118.055-.109.065-.11.065-.118.064-.105.05-.13.005-.024.005-.015.005-.015.005-.014.01-.015.004-.005h.005l.006-.01.02-.01.014-.006.025-.01.05-.01.025.006h.019l.016.005.02.005.014.01.025.02.034.01.015.01.02.009.04.01.164-.03.154-.02.16-.03.073-.014.08-.02.074-.015.085-.02.07-.02.073-.025.08-.025.074-.024.07-.03.075-.035.526-.198.407-.463.184-.407.01-.024.04-.522-.045-.387h-.01l-.005-.01-.01-.005-.005-.005-.005-.01-.01-.01-.01-.02-.004-.02-.011-.025-.005-.024-.01-.03-.005-.055-.004-.02-.005-.019-.01-.025-.006-.02-.01-.015-.005-.005-.005-.01h-.01l-.004-.01-.005-.004-.005-.01v-.005l-.005-.01v-.02l.005-.02.005-.015.014-.025-.044-.054-.03-.01-.03-.01-.029-.01-.026-.01-.06-.035-.063-.03-.03-.015-.03-.015-.03-.014-.034-.01-.03-.01-.03-.005-.03-.005zm-17.926-4.638.094.1.02.028.02.026.025.029.02.035.034.025.026.03.049.055.055.054.054.05.11.1.054.044.045.05.019.02.02.024.02.025.015.02.015.025.015.02.01.014.01.025.01.02v.025l.005.024v.02l.01.02.005.025.005.02v.06l-.005.019-.005.015-.006.02-.01.015-.005.015-.01.02-.014.015-.01.024-.03.03-.03.035-.03.03-.034.025-.035.03-.07.049-.034.025-.026.02-.824.084-.014-.005-.01-.005h-.016l-.008-.005-.016-.004h-.08l-.034.004-.075.025-.014.01-.01.006-.015.01-.01.009-.015.01-.01.015-.01.01-.005.015v.01l-.005.015v.014l.005.015.005.02.005.015.01.02.034.04.035.05.035.044.03.045.08.1.084.094.184.218.094.11.1.119-.194.213-.328.144-.015.01h-.01l-.01.005h-.02l-.015-.01-.02-.01-.025-.015-.02-.01-.03-.005-.024-.01-.03-.005-.015.06-.015.06-.01.054-.009.06-.006.055v.044l.006.02v.02l.004.02.005.015-.015.01-.02.01-.01.01-.014.014-.025.025-.014.035-.015.014-.01.01-.016.016-.014.01-.02.005-.015.01-.03.004-.025.005-.62-.72-.01-.005-.01-.005-.006-.004-.005.004h-.005l-.009.005-.005.01-.015.02-.015.02-.01.01-.015.01-.01.004-.015.005h-.03l-.338-.635-.029-.045-.035-.044-.04-.03-.034-.04-.075-.079-.074-.075-.03-.04-.035-.04-.04-.039-.034-.04-.03-.039-.03-.046-.03-.044-.02-.05-.02-.024.08-.035.258-.437.412-.15.03.026.03.015.03.014.025.015.025.01.019.01.02.006.025.004.02.005.025.005h.02l.02.005.025-.005h.064l.04-.01.03-.004.08-.016.034-.01.04-.005h.09l.252.085.03.03.02.02.02.014.02.015.025.01.013.01h.046l.025.006.024-.006h.02l.026-.004.024-.005.02-.01.03-.01.024-.011.045-.025.04-.03.08-.049.039-.02.015-.01.02-.005.015-.005.015-.005h.03l.03-.01.019-.009.015-.005.015-.01.02-.01.015-.015.02-.015.02-.014.02-.016.02-.02.018-.02.016-.02.02-.029.019-.03.016-.034-.01-.046.004-.02v-.06l-.004-.013-.006-.02-.005-.016-.004-.014-.005-.015-.01-.016-.01-.014-.024-.035-.026-.025-.015-.014-.02-.015-.014-.016-.02-.009-.02-.015-.036-.02-.044-.025-.054-.025-.055-.02-.055-.014-.06-.015-.019-.006-.015-.005-.04-.005-.04-.01-.05-.004h-.044l-.044-.005-.09.005-.104-.005h-.1l-.054-.005-.045-.005-.055-.01-.06-.015h-.058l-.05-.005-.045-.01-.035-.01-.055-.015-.024-.004-.035-.006-.015-.005-.014-.005-.015-.01-.016-.004-.01-.01-.014-.01-.02-.02-.02-.02-.02-.015-.014-.015-.016-.005-.02-.02h-.004l-.016-.005-.01-.004h-.044l-.02.004-.03.006-.05.019-.064.015-.034.01-.035.01-.04.005-.05.005h-.115l-.014.005-.02.004-.015.01-.014.01-.02.01-.016.01-.029.03-.04.035-.04.035-.04.04-.039.044-.045.05-.04.05-.04.054-.034.055-.09.104-.079.114-.263.189-.015.02-.02.02-.035.04-.034.035-.035.039-.02.015-.015.015-.02.02-.019.01-.026.015-.024.01-.03.01-.03.004-.372-.138-.015-.01-.01-.01-.015-.01-.01-.01-.02-.02-.02-.03-.029-.05-.02-.02-.015-.025-.005-.02v-.014l.005-.02v-.025l.01-.04.01-.039.01-.045.005-.044.005-.02v-.056l.02-.02.02-.014.024-.02.03-.02.025-.025.024-.025.026-.024.024-.03.02-.03.025-.03.015-.03.015-.029.01-.03v-.02l.005-.014v-.086l-.005-.014.024-.02.026-.02.024-.03.025-.02.01-.014.01-.01.015-.016.005-.014.01-.015.005-.02.004-.02.006-.02-.006-.02v-.02l-.004-.014-.01-.015-.01-.015-.01-.015-.015-.015-.015-.01-.03-.034-.024-.025-.016-.015-.01-.01-.014-.015-.01-.02.024-.055.304-.268.04.005.015-.02.009.025.005.01.01.01.005.01.01.006h.005l.015.004h.045l.03-.01.014-.005.015-.005h.035l.02.005h.005l.01.006.01.009h.01l.014.01.015.005.015.005.005.005.03.005h.124l.075-.01.065-.005.029-.006h.064l.03.006.025.01.02.005.025.005h.159l.025.005h.044l.024.005.021.005.02.01.243-.209.02-.02.08-.07.039-.038.04-.03.035-.036.029-.035.035-.04.03-.038.015.009.01.015.014.005.01.01.016.005.015.005.014.005h.01l.02.005h.044l.055-.01.05-.01h.065l.01.005h.01l.01.005.01.005.004.01.01.01.006.01.01.01v.02l-.005.015-.005.01-.01.004-.026.025-.014.015-.01.015-.01.01-.01.024-.01.015v.01l-.005.01v.03l.005.01.109.407.025.024.01.011.014.01.015.005.02.01.025.015.026.01.034.01.044.015.05.02.13.03.074.014.193.035.224.025zm4.678-4.221-.005.004v.005l-.005.005h-.055l-.015-.005-.02-.005h-.07l-.01.005-.014.005h-.01l-.015.005-.015.006-.015.01-.01.01-.015.014-.015.016-.02.02-.034.004h-.044l-.026-.005h-.03l-.03-.015-.03-.01-.028-.01-.036-.014-.029-.02-.035-.02-.03-.03-.035-.035-.04-.04-.04-.045-.367-.422-.288-.223-1.306.815-.03-.01-.029-.015-.025-.02-.024-.02-.026-.025-.02-.025-.025-.03-.024-.025-.015-.029-.02-.03-.015-.04-.01-.03-.01-.024-.01-.03-.01-.03-.005-.03-.005-.01-.005-.01v-.024l.005-.005v-.01l.005-.005.01-.016.015-.013.02-.02v-.045l-.392-.442-.015-.005-.02-.005-.014-.005h-.016l-.025-.006h-.094l-.024.006-.026.005h-.024l-.026.01-.024.005-.025.01-.025.004-.02.01-.025.01-.019.015-.02.01-.025.01-.02.015-.02.02-.014.015-.015.024-.015.02-.016.02-.009.02-.015.075v.04l.005.02v.034l-.005.03-.005.04-.005.044-.01.04-.01.04-.01.04-.005.04v.089l.005.02.005.024.005.02.01.02.01.014.015.016.014.02.015.014.02.02.1.348.297.67.075.04-.025.035-.024.034-.026.035-.034.03-.03.03-.035.03-.06.06-.068.049-.06.059-.07.055-.06.054-.104.09-.024.014-.03.015-.03.01-.04.01-.03.006-.034.01-.036.004h-.108l-.035-.004h-.04l-.044-.01-.04-.005-.04-.01-.04-.01-.044-.005-.036-.015-.039-.015-.04-.015-.05-.015-.04-.02-.044-.02-.04-.02-.074-.039-.084-.045-.08-.05-.08-.049-.01-.005h-.01l-.014-.005-.005-.005-.015-.01-.01-.015-.01-.015-.01-.014-.01-.015-.01-.02-.01-.015-.005-.02-.01-.02-.004-.015-.01-.02v-.02l-.03.005-.024.005h-.07l-.025-.005h-.02l-.015-.005-.034-.01-.036-.01-.03-.014-.039-.01-.01.019-.01.01-.015.01-.014.01-.03.02-.03.02-.015.01-.015.01-.01.014-.015.01-.005.016-.01.015-.01.04.01.014.01.015.02.02.03.02.024.025.015.01.01.02.016.009.01.015.004.015.01.02v.04l-.01.03-.01.015-.01.014-.01.015-.015.015-.024.025-.03.024-.035.02-.025.026-.03.03.02.133.005.06.005.054v.12l-.005.034-.004.03-.005.035-.01.035.015.09.983.625.01.025.005.02.005.025.005.024v.07l-.005.025-.01.03-.005.025-.01.02-.015.03-.015.029-.01.034-.02.03-.025.03-.015.065.422.293.05-.02.044-.02.046-.015.044-.015.074-.02.065-.02.064-.02.03-.01.036-.01.034-.014.035-.01.035-.02.029-.01.15.11.04.004.327.328 1.201.392.581-.034h.05l.055.01.04.004.03.006.03.01.024.014.02.01.02.01.014.015.016.01.029.024.01.01.015.005.015.006.02.005.02.005.02.005h.074l.044-.005h.095l.02.005.015.005.015.005.015-.01.01-.015.015-.006.014-.015.036-.024.029-.02.02-.015.015-.01.01-.01.014-.014.006-.01.004-.01v-.026l-.004-.009-.06-.03-.04-.04-.04-.05-.044-.034-.035-.045-.034-.044-.036-.05-.064-.09-.06-.089-.035-.04-.07-.084-.069-.08-.039-.04-.159-.714v-.02l-.005-.01-.015-.015-.015-.015-.014-.015-.015-.014-.03-.03-.015-.016-.015-.014-.01-.016v-.01l-.005-.004v-.015l.005-.015v-.004l.005-.011.005-.005.01-.005.01-.01.014-.004.015-.01.016-.005.019-.006h.064l.036.006.025.01.034.01.03.009.034.01.03.01.03.01.03.01h.045l.015-.01.01-.005.015-.004.01-.005.015-.011.129-.01.01.026.015.029.014.025.02.02.015.014.024.016.02.01.02.01.02.009.025.005.015.005.025.005.02.005h.219l.024.005h.015l.02.005.025.005.02.005.02.01.014.005.02.014.015.015.02.015.01-.015.02-.02.014-.004.01-.005.016-.005h.01l.01-.005h.02l.02.005.019.005.015.01.02.004.024.011.02.004h.045l.01-.004.01-.005.015-.005.015-.005.01-.01.015-.01h.044l.005.005.01.005v.01l.01.01.005.015.005.01.005.004.01.005h.035l.098-.05.016.021.675.333.422-.319-.69-.789-.427-.323-.074-.084-.005-.045-.01-.044-.005-.046v-.02l-.005-.02V84.8l.005-.02v-.024l.01-.02.005-.02.014-.02.01-.015.045-.035.005-.005.01-.005.005-.005h.03l.01.01.01.01.01.01.01.01.019.02.015.01.005.01.01.005h.02l.004-.005h.011l.02-.025.024-.024.02-.026.03-.024.05-.05.054-.045.12-.094.049-.04.055-.044-.01-.02v-.026l-.005-.019-.005-.02v-.084l.005-.025.005-.025.005-.02.005-.015.01-.014.004-.02.011-.02.015-.015-.457-.313-.243-.268ZM32.056 71.068l-.173-1.27 1.335-.175.115-.019.113-.02.24-.075.083-.04.095-.049.07-.055.064-.06.04-.049.024-.06.016-.06.005-.058-.02-.055-.03-.045-.04-.05-.05-.044-.074-.035-.094-.03-.09-.03-.099-.015-.249-.01-.114.01-.124.01-7.513.993-.184-1.355 7.135-.938.339-.035.342-.026.328-.004.318.004.313.03.298.04.278.044.258.066.238.074.234.094.199.105.183.103.11.096.098.094.07.09.075.104.05.098.05.1.028.109.02.11.011.104-.005.119-.01.11-.025.108-.05.125-.05.11-.064.113-.08.11-.093.104-.115.104-.119.094-.134.1-.144.089-.154.089-.164.09-.178.074-.175.08-.203.064-.393.124-.421.1-.422.11zm3.437-4.642-10.423-.363.05-1.356 10.417.363zm.179-2.945-10.365-1.157.15-1.277 7.89.88.24-2.115 2.467.272zm.188-4.583.372-1.306-10.036-2.851-.362 1.306zm.998-2.484-9.424-4.469.654-1.39 6.486 1.376-5.82-2.767.547-1.151 9.425 4.464-.66 1.39-6.154-1.217 5.497 2.598-.55 1.166ZM38.19 45.52l-5.224-4.95.939-.994 5.218 4.951.18.15.094.069.095.06.094.059.099.055.184.074.084.025.089.025.075.015h.149l.065-.02.064-.015.055-.03.1-.065.088-.079.14-.203.024-.055.015-.065.015-.07-.005-.078-.025-.145-.05-.178-.084-.169-.129-.19-.139-.172-.168-.174-5.22-4.952.949-.993 5.218 4.951.219.218.218.224.194.239.194.238.169.244.149.232.139.244.119.229.075.228.069.208.04.21.02.198.01.213-.015.204-.035.193-.055.179-.07.164-.078.154-.104.14-.115.123-.125.12-.133.103-.145.105-.163.07-.174.065-.194.05-.199.023-.223.005-.193-.015-.209-.034-.21-.06-.222-.07-.243-.094-.249-.123-.248-.14-.238-.164-.258-.164-.244-.193-.238-.199zm6.222-1.851 1.023-.771-3.625-4.88 4.857 3.972 1.236-.92-6.212-8.376-1.023.765 3.834 5.174-5.07-4.256-1.237.913zm4.907-4.052 1.157-.711L45.038 30l-1.162.706 5.443 8.909Zm3.347-1.694-4.976-9.346 1.39-.452 2.841 5.632-1.068-6.218 1.37-.451 1.58 10.457zm3.063-1.251-1.26-10.354 3.729-.453.272 2.255-2.453.298.214 1.693 2.2-.263.248 2.062-2.204.262.252 2.081 2.628-.318.273 2.264zm13.701-3.72-.03.224-.02.228.016.209.03.183.044.174.03.08.04.059.06.1.063.069.07.06.075.044.09.035.074.015.159.034.163.011h.085l.089-.015.085-.02.079-.035.09-.054.089-.075.09-.11.049-.064.044-.08.04-.089.03-.109.06-.213.02-.115.014-.104.005-.218-.01-.1-.01-.1-.015-.103-.029-.07-.04-.07-.04-.06-.08-.103-.099-.095-.109-.089-.214-.163-.445-.29-.225-.138-.213-.169-.1-.094-.108-.1-.1-.114-.09-.114-.129-.169-.108-.179-.1-.208-.09-.243-.03-.12-.034-.149-.04-.293-.02-.323-.004-.327.01-.373.014-.297.045-.299.07-.362.08-.323.104-.313.114-.288.128-.263.135-.219.149-.208.149-.173.163-.145.17-.139.183-.099.179-.075.179-.054.178-.025.18-.014.183.004.169.02.173.025.17.05.174.06.158.07.169.103.144.12.159.133.129.18.104.142.095.175.079.188.075.199.064.243.045.259.025.268.01.288-.015.282-.025.294-.07.575-1.261-.158.035-.253.01-.25-.005-.113-.015-.114-.02-.104-.034-.095-.036-.064-.04-.07-.044-.07-.035-.044-.064-.065-.075-.05-.07-.044-.069-.035-.15-.059-.138-.025h-.159l-.153.01-.16.044-.074.036-.07.034-.045.015-.034.025-.04.035-.044.044-.075.13-.06.148-.04.155-.03.178v.17l.02.157.03.12.05.124.075.129.084.11.08.099.093.09.1.069.09.069.193.125.388.223.188.119.189.124.125.085.113.089.109.104.11.125.099.129.09.149.089.174.085.193.044.15.04.163.035.159.03.188.038.368.026.372-.01.408-.04.407-.054.397-.07.402-.11.393-.118.367-.14.333-.079.164-.074.144-.08.134-.09.118-.089.11-.094.109-.084.094-.1.085-.184.149-.163.094-.154.065-.154.05-.154.04-.158.019-.155.005-.159-.005-.144-.02-.159-.024-.139-.04-.15-.04-.133-.06-.149-.079-.139-.094-.134-.1-.134-.119-.119-.154-.13-.173-.109-.194-.089-.234-.095-.268-.054-.288-.05-.323-.02-.323-.004-.327.015-.348.029-.352.035-.358zm4.122 4.191 1.306.397 4.35-9.42-1.31-.551zm3.406 1.951 3.63-7.294-1.216-.606 1.023-2.04 3.58 1.787-1.013 2.036-1.222-.606-3.63 7.3-1.151-.577Zm3.839 1.952 1.033.75 2.463-3.391 4.936-4.127-1.172-.85-2.84 2.603 1.604-3.501-1.177-.855-2.384 5.98zm13.715 6.277.368-.253.174-.13.154-.123.154-.139.124-.149.1-.13.09-.133.073-.15.05-.154.015-.06v-.133l-.015-.055-.015-.064-.025-.05-.024-.05-.036-.044-.044-.045-.055-.04-.065-.03-.064-.03-.064-.03-.075-.019-.17-.03-.187-.005-.204.005-.174.03-.174.035-.372.094-.388.124-.387.154-.377.154-.377.174-.378.178-.368.2-.347.203-.338.213-.312.239-.14.119-.133.129-.144.144-.144.154-.1.149-.08.144-.064.144-.035.13v.128l.025.104.055.1.08.09.094.068.064.026.055.024.154.04.159.025.184.005.203-.01.17-.015.177-.04.185-.034.178-.05.199-.07.188-.074.367-.174.537 1.068-.442.193-.442.184-.442.175-.432.148-.219.055-.213.05-.209.034-.198.036-.198.018-.19.016-.193.01-.179.005-.199-.025-.203-.024-.189-.036-.169-.05-.159-.06-.159-.064-.133-.084-.135-.075-.11-.084-.118-.1-.1-.104-.074-.11-.08-.113-.054-.13-.03-.124L87.73 49v-.129l.02-.139.024-.138.05-.15.064-.143.07-.15.079-.153.104-.16.105-.153.124-.154.134-.16.134-.148.303-.313.333-.308.223-.178.229-.18.237-.174.25-.169.51-.327.537-.313.596-.313.477-.237.502-.205.635-.248.57-.203.28-.08.277-.079.278-.065.274-.06.258-.044.258-.025.283-.02.273-.005.243.02.13.02.104.015.198.07.164.09.17.098.128.105.149.153.124.164.11.175.084.187.035.096.03.098.025.11.014.099.005.11-.004.118-.01.11-.02.119-.03.114-.035.109-.045.11-.054.124-.14.238-.173.239-.09.124-.109.123-.249.25-.273.247-.292.234-.318.219-.333.217-.347.204-.358.199-.542-1.063Zm-4.45 5.343.398 1.302 3.993-1.237.477 1.55-3.998 1.23.408 1.307 9.962-3.05-.403-1.32-3.61 1.112-.478-1.544 3.611-1.112-.398-1.302-9.961 3.064Zm1.52 5.463 10.324-1.375.18 1.35-10.34 1.371-.163-1.346Zm.597 2.855 10.413.352-.045 1.54-6.494 1.317 6.444.217-.039 1.277-10.433-.348.05-1.534 6.132-1.336-6.078-.204zm1.177 7.32-1.445-.526.288-1.426 9.847 3.898-.268 1.336-10.597-.218.293-1.421 1.534.07.348-1.714Zm2.155.81-.2.997 3.249.14zm-6.878-26.076-.214-.055-.183-.094-.174-.13-.134-.153-.115-.18-.069-.203-.035-.203.01-.218.055-.219.099-.19.12-.168.163-.14.175-.109.198-.069.208-.03.219.01.218.05.19.095.163.129.144.149.11.184.068.198.03.203-.01.229-.055.208-.088.188-.13.175-.148.134-.184.115-.199.068-.209.036z" fill="#0836bf"/></g><defs><filter id="a" x="-13" y="0" width="154" height="157" filterUnits="userSpaceOnUse" color-interpolation-filters="sRGB"><feFlood flood-opacity="0" result="BackgroundImageFix"/><feColorMatrix in="SourceAlpha" values="0 0 0 0 0 0 0 0 0 0 0 0 0 0 0 0 0 0 127 0" result="hardAlpha"/><feOffset dy="16"/><feGaussianBlur stdDeviation="6.5"/><feColorMatrix values="0 0 0 0 0 0 0 0 0 0 0 0 0 0 0 0 0 0 0.03 0"/><feBlend in2="BackgroundImageFix" result="effect1_dropShadow_49_8931"/><feBlend in="SourceGraphic" in2="effect1_dropShadow_49_8931" result="shape"/></filter></defs></svg>