<svg xmlns="http://www.w3.org/2000/svg" viewBox="0 0 128 46.9"><path d="M51.1 32.5v4.3c0 .1-.2.2-.3.3h-.7c-.2 0-.4 0-.6-.1-.3-.2-.4-.5-.4-1v-.5h.8v.8h.2c.1 0 0 0 0 0s.1 0 .2-.1v-4.1h.9Zm21.1 0v3.2c0 .4 0 .6.1.8 0 .1.3.2.5.2s.3 0 .4-.1c0 0 .1-.1.1-.2v-3.9h.9v4c0 .1 0 .3-.2.4-.1.2-.3.3-.5.4-.2 0-.5.1-.8.1h-.1c-1 0-1.4-.5-1.4-1.6v-3.3h.9Zm27.8-.1h.1c.2 0 .5 0 .7.2.3.2.5.6.5 1.2v.2h-.9v-.7s-.2-.1-.4-.1c-.1 0-.2 0-.3.1v.3c0 .2.2.4.5.6s.5.4.5.4c.3.2.5.4.7.6 0 .2.1.4.2.6 0 .4-.1.8-.4 1-.2.2-.6.4-1.1.4h-.6s-.2-.1-.2-.2c-.2-.2-.4-.6-.4-1.1v-.3h.9v.4c0 .2 0 .4.1.5 0 .1.2.2.4.2s.3 0 .4-.1.1-.2.1-.4c0-.1 0-.3-.1-.4 0 0-.2-.2-.4-.3l-.5-.4c-.3-.2-.6-.4-.7-.6 0-.2-.1-.4-.1-.6v-.2c0-.3.2-.5.3-.7.2-.2.6-.3 1-.3Zm11.5.1.7 1.8.5-1.4.2-.4h1v.2l-1.2 2.6v2h-.9v-2l-1.3-2.8zm-2.4 0v.8h-1v4h-.9v-4h-1v-.8h3Zm-26.7 0v4.8h-.9v-4.8zm22 0v4.8h-.9v-4.8zm-27.1 0 1.3 3.4v-3.4h.8v4.8h-.9l-.5-1.4-.7-2v3.4h-.8v-4.8h.9Zm7.8 0 .2 1 .5 2.9.6-3.8h.9l-.3 1.5-.7 3.3h-1.2L84 32.6h1Zm-27.9 0v4h1.6v.8h-2.5v-4.8zm-3 0v4.8h-.9v-4.8zm10.4 0 1.3 3.4v-3.4h.8v4.8h-.9l-.6-1.6-.7-1.8v3.4h-.8v-4.8zm30.7 0c1 0 1.4.4 1.4 1.3s0 .6-.2.8l-.2.2h-.2c.6.2.6.5.6 1v1c0 .1.1.3.2.4h-1.1v-1.5c0-.1 0-.2-.1-.3-.1 0-.3-.1-.6-.1h-.4v2.1h-.9v-4.8h1.6Zm-3.6 0v.8h-1.6v1.1h1.5v.8h-1.5v1.3h1.6v.8h-2.5v-4.8zm-30.1 0v4.8h-.9v-4.8zm33.4.7h-.4v1.4h.5c.2 0 .4 0 .5-.1 0 0 .1-.2.1-.3v-.4s0-.2-.1-.3c-.1 0-.3-.1-.6-.1Zm-38.2-9.8c0 .4 0 1.3-.5 1.6 0 0-1.1 1.4-.9 1.5.1 0 .6 0 1-.1 0 0 .7 0 1.2-.2 0 0 .3 0 .4.1 0 0-.7 1.2 0 1.8 0 0 0 .3-.2.3 0 0-1.3.2-1.5.4 0 0-.4.2-1.1-.1 0 0-.6 0-.7.2h-.2c-.3 0-.9 0-1.2-.3 0 0-.6-.7.4-1.7 0 0 .2-.6.6-.8 0 0 .5 0 .7-.2 0 0 .9-1.4.8-1.7-.3 0-1.6 0-2.8 1.2 0 0-.5.5-.7.5 0 0-.6.4-.4 1.5 0 0 .6 1.5 0 2.3 0 0-.9.4-1.2-.3 0-.1-.3-1-.6-1.2-.1 0-.6-.3-.4-.9 0 0 .2-.4.5-.7 0 0 .6-1.8.9-2.3 0 0 .2-.2.9.3 0 0 2-1.3 3-1.3h1.9Zm47.4-11.5s0 2 .9 1.7c0 0 .4 0 .9-1 0 0 .3-.1.7 0 0 0 .7.1 1.4 0 .4 0 .8-.2 1.1-.5 0 0 1.7.1 2.4.5 0 0 1.4 1.5 1.4 1.9 0 0-.1.5-.8.5 0 0-.3 0-.5.3 0 0-.5-.3-.7-.5 0 0-.3-.2-.4.2 0 0 0 .7-1 .8 0 0-1.5.1-2.7 1.6-.2.2-.7 1-.8 1.3 0 0 0 .4.4 0 0 0 2.7-2 3.6-1.1 0 0 .5.6.3 1.6 0 0-.2 1.7-1.2 3 0 0-.7.8-.3 1.1.2.2.8.7 1.2.5.2-.1 1.7-.8 2.2-.8 0 0 1.3.3 1.6.7 0 0-.3.2-.6.3 0 0-.3.7-.7.7 0 0-1.5 0-2.4.4 0 .1.3 2.4-.3 3.4l-.3.3s-1.7.5-3.5.7c0 0-.4-1-1.1-1.1 0 0-.6-.2-.6-.8 0 0 .5-.4 1.3-.3 0 0 2.6.1 3.2-.9 0 0 .4-.8-.1-.9 0 0-.6.1-1.2.3h-.2c-.5.1-.9.2-1.1.2 0 0-1.1 0-1.5.5 0 0-.9.7-1.5 0 0 0-.5-.6-.1-.9 0 0 .3-.4.8-.4 0 0 4.4-.5 4.6-1 0 0 .3-.4-.2-.5-.2 0-.6 0-.5-.7 0 0 .4-1.4 1.2-2.2.1-.3 1.6-3.2.2-3.2 0 0-1.5.6-2 1.4v.1c-.2.2-.7.7-1 .8 0 0-.9.6-.9 1.2 0 0 .1 1.3-.6 1.2 0 0-.7-.3-.8-.7s-.9 0-.8-1.8c0 0 0-.2.4-.5 0 0 .5-.8.9-1.6s.8-1.4.9-1.6c0 0 .1-.4-.4-.5-.2 0-1.3 0-1.4-.9v-.1c0-.2-.1-.6-.3-.8 0 0-.4-1 .2-1.9 0 0 .2-.4.1-.7 0 0 .3-.4.7 0Zm-32.6 1.8s1.3 1.5.8 3.5c0 0-.3.7-.6.7 0 0-.2.3-.4.4 0 0-.2.2-.5.3-.3.2-.7.4-1.1.5 0 0-.3.2-.5.5 0 0 0 .9-.2 1.9v.2c-.1 1-.2 2.1-.2 2.2 0 0 0 .3.6 0 0 0 .9-.5 1.2-.5s.3 0 .6-.5c0 0 .6-.8 1.2-1.1 0 0 1-.7.6-1 0 0-.2 0-.6.4 0 0-.4.4-.4.6 0 0-.7-.2-.9-.8 0 0 .9-.9 2-1.1s.3 0 .4-.6c0-.2.4-3.2 1.5-3.9 0 0 .5 0 .6.3 0 .1-.3.9.4 1.5 0 0 1.2 1.4.8 1.8 0 0-1.3.8-1.6 1 0 0-.5.6-.5 3.3 0 0 1.1 0 1.7 1.1 0 0 .4.8.7.9 0 0 .8.6.9 1.4v.6s0 .1-.3.1c0 0-.2.1-.2.2 0 0-.6-.3-.8-.5 0 0-.7-.2-1.1-.9 0 0-.3-.9-1.1-.8 0 0-.3.2-.2 1.3v.6s.5 1.4 0 2.1c0 0-.5 0-.9-.3 0 0-.5-1.2-.8-1.7 0 0-.3-.6-.2-1.1 0 0-.5-.1-1 0-.2 0-.5.2-.7.5 0 0-.6.1-.9.1 0 0 .2-2.2-.4-2.4 0 0-.6 0-.6.6v4s-.5 0-.8-.5c0-.1-.1-.3-.2-.5 0 0-.2-1.4 0-2.2v-.2c-.2 0-.6 0-1.1.7 0 0-.6.7-1.4.4 0 0-.7-1-.4-1.7 0 0 .5 0 .9-.8 0 0 .8-1 1.4-2.1 0-.2.1-.3.2-.4.6-.9 1.1-1.8.9-2 0 0-.6.2-1.1.5-.2 0-.3.1-.4.2 0 0-.6.6-.8.5-.1 0-1.5-.3-1.1-1.2h.3c.3 0 .9-.1 1.4-.2h.4c.7-.1 1.3-.3 1.4-.5 0-.3.4-1.9 1.8-4.1 0 0 .1-.2.2-.3 0 0 .4-.6.9-.6Zm17.2-3.9s1 .2 1 .7c0 0-.4 8.3-.3 8.5 0 0 1.7.1 2.6-1 0 0 .1-.4-.4-.9s.7 0 2.3.4c0 0 1.3.3 1.4.8 0 0-.7.2-1.5.3h-.2c-.7.2-1.3.3-1.5.4 0 0-1 .4-1.2.6-.1 0-1.2.1-1.4.6 0 0-.4 1.7-.2 3.3 0 0 1.2.7 2.3 1 0 0 1.1.6 1.7.9s.3 0 1 0c0 0 .8 0 2.1 1.2 0 0 .5.5.5.8 0 .1 0 .5-.9.5 0 0-.5.3-.7.3 0 .2 0 .8-.4.8 0 0-.7 0-1.2-.2 0 0-1.3.1-1.6-.4 0 0-.2-.7-1-1.1 0 0-.4-.5-.7-1.1 0 0-.9-1.3-1.2-1.5 0 0-.2.2-.3.5 0 0-.2 2.8-.9 3.1 0 0-.9.6-1.5 0 0 0 .1-.4-.9-.4 0 0-.6 0-1.6-1.2s0-.1-.5 0c0 0-.2 0-.2-.5 0 0 0-.2-.5 0 0 0-.7 0-.3-.6 0 0 .3-.6 1.2-.8 0 0 1 .4 2.1-2.9 0 0 0-.4-.7-.2 0 0-.9.5-1.2.4 0 0-.3-1.2-.4-1.4 0 0 .2-.4.4-.5 0 0 .6.2 2.2-.4 0 0 .3 0 .4-1.3v-.4c0-.6.3-1.9.5-3.1v-.4c.3-1.7.6-3.4.7-3.7 0 0 .2-.6.8-.7ZM68.1 23.2c-.2 0-.4.5-.4.6-.4.1-.1.3-.1.3-.3.2-.3.5-.3.5 0 .4.3.2.5 0 .1-.2.3-.3.3-.3.3-.4.1-1.1.1-1.1ZM55.5 12.5s.4.1.4.7c0 .3-.1 1.1 0 1.2 0 0 .2.3.7-.1 0 0 1.2-.5 1.7-.4 0 0 .6.1 0 1 0 0-.8.8-1 .9 0 0-.3.9-1.1 1-.2.1-.7.4-.4.8 0 0 .6.6 2.5.7 0 0 .8.2.3.6 0 0-.5.2-.4.4 0 .2 0 .6-.6.6 0 0-.4 0-.9.6 0 0-.3.6-2.7 1.5l-.4.4s-.2.7-.9.5c0-.2.2-.5-.3-.6 0 0-1.1.2-1.5.5-.2 0-.9.4-1.4-.6 0 0 0-.3-.5-.5 0 0-.5-.2 0-.8s.3-.4 1.2-.4c0 0 .4 0 1.1-.2 0 0 .4.3.4-.3v-.2c0-.6 0-1.8-.8-1.9 0 0-1.9-.2-2.3-1 0 0-.3-.4.1-.9 0 0 .8-.5 1.5-.3 0 0 1.2.4 1.4 0 0 0 .5-1.9.3-2.3 0 0 0-.2.3-.2h1.4s.1-.6.6-.6c0 0 .8 0 1.2-.2Zm15.8 2.3c-.3 0-.5.3-.7.6-.6.9-.9 2.4-.9 2.4-.2.3 0 .7 0 .7.3 0 .8-.4 1.2-.8.3-.3.5-.6.5-.6 1.2-2.3 0-2.3 0-2.3Zm35.2-1.5c-.6 0-1.1 1-1.1 1-.4.5-.3 1 0 1.5.2.4.4.6.4.6.5.4 1.7-1.6 1.8-1.8 0-.3-.4-.5-.4-.5s0-.1-.2-.2l-.4-.6ZM32 21.7h3.1v.3l-1.1.2-.8.3-.6.3-.5.3-.3.4v.4c-.1 0-.1.3-.1.3v.3c.1 0 .4.3.4.3l.3.2h1.5c0-.1.6-.4.6-.4l.6-.4.3-.3.3-.3v.5l-.2.5-.7.4-.8.4-.9.3-.9.3-1 .2h-3.4c0-.1 4.2-4.5 4.2-4.5m-11 .5h.3c0-.1.6.2.6.2h.6v.1l.4.4.5.5.5.4.5.3.5.2h.5c0 .1.4.1.4.1h.4l.4-.2.5-.2.4-.3.5-.3 2.1-1.8h1l-4.2 4.3-1.5-.6-.7-.3-.7-.4-.7-.5-.8-.6-.9-.7-.9-.9Zm10.4-5H31v.2h.1v.5h-.3v-1.2h.3v.2Zm-2.2 0v.5h-.4zm-.7.8v-.4l.7-.8h.4v.9h.2v.3h-.2v.3h-.4V18zm-1.6-.1h.4v-.3h-.2v-.5h.2v1.2h-.2v-.2Zm-.6-1.1v1.6h-.5v-.9h-.4v-.4h.3Zm6.4 9.3.5-.2v1l-.1.2v.2l-.2.2v.2l-.2.2v.2c-.1 0-.2.2-.2.2v.2c-.1 0-.3.2-.3.2v.2c-.1 0-.3.1-.3.1h-.2c0 .1-.2.3-.2.3h-.2c0 .1-.2.2-.2.2h-.2c0 .1-.2.2-.2.2h-.2l-.2.2h-.2l-.2.1h-.2l-.2.1h-1.8l-.2-.1h-.2l-.2-.1h-.2l-.2-.2h-.2c0-.1-.2-.2-.2-.2h-.2c0-.1-.2-.2-.2-.2h-.2c0-.1-.2-.3-.2-.3h-.1c0-.1-.1-.3-.1-.3v-.2c-.1 0-.3-.2-.3-.2v-.2c-.1 0-.2-.2-.2-.2v-.2c-.1 0-.2-.2-.2-.2v-.2l-.2-.2v-.2l-.1-.2V25l.5.3v1.8c.1 0 .2.3.2.3l.2.3.2.3.2.3.3.3.3.2.3.2.3.2.3.2h.4c0 .1.4.2.4.2h2l.4-.2.3-.2.3-.2.3-.2.3-.2.3-.3.2-.3.2-.3.2-.3v-.3c.1 0 .2-.4.2-.4v-.6Zm0-3.1.5-.3v2.1h-.5zm.5-1.4h-.5v-2.4h-3.8v3.6l-.5.4v-4h-3.7V24l-.5-.3v-5h8.9v2.9Zm-4.7 4.8h.5v1.3h-.5zm.1-11h-2l-.4.2h-.4c0 .1-.4.3-.4.3l-.4.2-.3.2-.3.2h-.2c0 .1-.2.2-.2.2h-.2c0 .1-.2.2-.2.2h-.2c0 .1-.2.2-.2.2h-.1c0 .1-.1.3-.1.3h-.1c0 .1-.1.3-.1.3h-.1c0 .1-.1.3-.1.3h-.1c0 .1-.1.3-.1.3v.2c-.1 0-.2.2-.2.2v.2c-.1 0-.2.2-.2.2v.2c-.1 0-.2.2-.2.2l-.2.3-.2.3-.2.4v.4c-.1 0-.3.4-.3.4v.4c-.1 0-.2.4-.2.4v3.6l.2.4v.4c.1 0 .3.4.3.4l.2.4.2.3.2.3v.2c.1 0 .2.2.2.2v.2c.1 0 .2.2.2.2v.2c.1 0 .2.1.2.1h.1c0 .1.1.3.1.3h.1c0 .1.1.3.1.3h.1c0 .1.1.3.1.3h.1c0 .1.1.3.1.3h.2c0 .1.2.2.2.2h.2c0 .1.2.2.2.2h.2c0 .1.2.2.2.2l.3.2.7.3h.4c0 .1.4.3.4.3h.4c0 .1.4.2.4.2h3.6l.4-.2h.4c0-.1.4-.3.4-.3l.4-.2.3-.2.3-.2h.2c0-.1.2-.2.2-.2h.2c0-.1.2-.2.2-.2h.2c0-.1.1-.2.1-.2h.1c0-.1.1-.3.1-.3h.1c0-.1.1-.3.1-.3h.1c0-.1.1-.3.1-.3h.1c0-.1.1-.3.1-.3h.1c0-.1.1-.3.1-.3v-.2c.1 0 .2-.2.2-.2V28c.1 0 .2-.2.2-.2l.2-.3.2-.3.2-.4v-.4c.1 0 .3-.4.3-.4v-.4c.1 0 .2-.4.2-.4v-3.6l-.2-.4v-.4c-.1 0-.3-.4-.3-.4l-.2-.4-.2-.3-.2-.3v-.2c-.1 0-.2-.2-.2-.2v-.2c-.1 0-.2-.2-.2-.2v-.2c-.1 0-.2-.2-.2-.2h-.1c0-.1-.1-.3-.1-.3h-.1c0-.1-.1-.3-.1-.3h-.1c0-.1-.1-.3-.1-.3H34c0-.1-.1-.3-.1-.3h-.2c0-.1-.2-.2-.2-.2h-.2c0-.1-.2-.2-.2-.2h-.2c0-.1-.2-.2-.2-.2l-.3-.2-.3-.2-.4-.2h-.4c0-.1-.4-.3-.4-.3h-.4c0-.1-.4-.2-.4-.2h-1.6Zm0-.7h-2.2l-.2.1H26l-.2.1-.4.2-.4.2-.4.2h-.2c0 .1-.2.2-.2.2H24c0 .1-.2.2-.2.2h-.2c0 .1-.2.2-.2.2h-.2c0 .1-.2.3-.2.3h-.2c0 .1-.2.3-.2.3h-.2c0 .1-.1.3-.1.3h-.1c0 .1-.1.3-.1.3v.2c-.1 0-.3.2-.3.2v.2c-.1 0-.3.2-.3.2v.2c-.1 0-.2.2-.2.2v.2c-.1 0-.2.2-.2.2v.2c-.1 0-.2.2-.2.2l-.2.4-.2.4-.2.4v.2l-.1.2v.2l-.1.2v.2l-.1.2v3.6l.1.2v.2l.1.2v.2l.2.4.2.4.2.4v.2c.1 0 .2.2.2.2v.2c.1 0 .2.2.2.2v.2c.1 0 .2.2.2.2v.2c.1 0 .3.2.3.2v.2c.1 0 .3.2.3.2v.2c.1 0 .3.1.3.1h.1c0 .1.2.3.2.3h.2c0 .1.2.3.2.3h.2c0 .1.2.3.2.3h.2c0 .1.2.2.2.2h.2c0 .1.2.2.2.2h.2c0 .1.2.2.2.2l.4.2.4.2.4.2h.2l.2.1h.2l.2.1h4.2l.2-.1h.2l.2-.1.4-.2.4-.2.4-.2h.2c0-.1.2-.2.2-.2h.2c0-.1.2-.2.2-.2h.2c0-.1.2-.2.2-.2h.2c0-.1.2-.3.2-.3h.2c0-.1.2-.3.2-.3h.2c0-.1.2-.3.2-.3h.1c0-.1.1-.3.1-.3v-.2c.1 0 .3-.2.3-.2v-.2c.1 0 .3-.2.3-.2v-.2c.1 0 .2-.2.2-.2v-.2c.1 0 .2-.2.2-.2v-.2c.1 0 .2-.2.2-.2l.2-.4.2-.4.2-.4v-.2l.1-.2v-.2l.1-.2v-4.2l-.1-.2v-.2l-.1-.2-.2-.4-.2-.4-.2-.4v-.2c-.1 0-.2-.2-.2-.2v-.2c-.1 0-.2-.2-.2-.2v-.2c-.1 0-.2-.2-.2-.2v-.2c-.1 0-.3-.2-.3-.2v-.2c-.1 0-.3-.2-.3-.2v-.2c-.1 0-.3-.1-.3-.1h-.2c0-.1-.2-.3-.2-.3h-.2c0-.1-.2-.3-.2-.3h-.2c0-.1-.2-.3-.2-.3h-.2c0-.1-.2-.2-.2-.2h-.2c0-.1-.2-.2-.2-.2h-.2c0-.1-.2-.2-.2-.2l-.4-.2-.4-.2-.4-.2h-.2l-.2-.1h-.2l-.2-.1h-2Zm0-4.8h-2.2l-.3.1h-.3l-.3.2h-.3l-.3.2h-.3c0 .1-.3.2-.3.2H24c0 .1-.3.2-.3.2h-.3c0 .1-.3.3-.3.3h-.3c0 .1-.3.3-.3.3l-.3.2-.3.2-.3.2-.3.2-.3.2-.3.2-.3.2-.3.2-.2.2-.2.2-.2.2-.2.2-.2.2-.2.2-.2.2-.2.2-.2.3-.2.3-.2.3-.2.3-.2.3-.2.3-.2.3-.2.3-.2.3v.3c-.1 0-.3.3-.3.3v.3c-.1 0-.3.3-.3.3v.3c-.1 0-.2.3-.2.3v.3c-.1 0-.2.3-.2.3v.3l-.2.3v.3l-.1.3v.3l-.1.7v3.3l.1.3v.3l.2.3v.3l.2.3v.3c.1 0 .2.3.2.3v.3c.1 0 .2.3.2.3v.3c.1 0 .3.3.3.3v.3c.1 0 .3.3.3.3l.2.3.2.3.2.3.2.3.2.3.2.3.2.3.2.3.2.2.2.2.2.2.2.2.2.2.2.2.2.2.2.2.3.2.3.2.3.2.3.2.3.2.3.2.3.2.3.2.3.2h.3c0 .1.3.3.3.3h.3c0 .1.3.3.3.3h.3c0 .1.3.2.3.2h.3c0 .1.3.2.3.2h.3l.3.2h.3l.3.1h.3l.3.1h3.4l.3-.1h.3l.3-.1h.3l.3-.2h.3l.3-.2h.3c0-.1.3-.2.3-.2h.3c0-.1.3-.3.3-.3h.3c0-.1.3-.3.3-.3l.3-.2.3-.2.3-.2.3-.2.3-.2.3-.2.3-.2.3-.2.3-.2.2-.2.2-.2.2-.2.2-.2.2-.2.2-.2.2-.2.2-.2.2-.3.2-.3.2-.3.2-.3.2-.3.2-.3.2-.3.2-.3.2-.3v-.3c.1 0 .3-.3.3-.3v-.3c.1 0 .3-.3.3-.3v-.3c.1 0 .2-.3.2-.3v-.3c.1 0 .2-.3.2-.3v-.3l.2-.3v-.3l.1-.3v-.3l.1-.3v-3.3l-.1-.3v-.3l-.1-.3v-.3l-.2-.3v-.3l-.2-.3v-.3c-.1 0-.2-.3-.2-.3v-.3c-.1 0-.3-.3-.3-.3v-.3c-.1 0-.3-.3-.3-.3l-.2-.3-.2-.3-.2-.3-.2-.3-.2-.3-.2-.3-.2-.3-.2-.3-.2-.3-.2-.2-.2-.2-.2-.2-.2-.2-.2-.2-.2-.2-.2-.2-.2-.2-.3-.2-.3-.2-.3-.2-.3-.2-.3-.2-.3-.2-.3-.2-.3-.2-.3-.2h-.3c0-.1-.3-.3-.3-.3h-.3c0-.1-.3-.3-.3-.3h-.3c0-.1-.3-.2-.3-.2h-.3c0-.1-.3-.2-.3-.2h-.3l-.3-.2h-.3l-.3-.1h-.3l-.3-.1h-1.5Zm0-1.1h-2.8l-.4.1H25l-.4.2h-.3l-.3.2h-.3c0 .1-.3.2-.3.2h-.3c0 .1-.3.3-.3.3h-.3c0 .1-.3.3-.3.3l-.3.2-.3.2-.3.2-.3.2-.3.2-.3.2-.3.2-.3.2-.3.2-.3.2-.3.2-.3.2-.3.2-.2.2-.2.3-.2.3-.2.3-.2.3-.2.3-.2.3-.2.3-.2.3-.2.3-.2.3-.2.3-.2.3-.2.3-.2.3v.3c-.1 0-.3.3-.3.3v.3c-.1 0-.3.3-.3.3v.3c-.1 0-.2.3-.2.3v.3c-.1 0-.2.3-.2.3v.4l-.2.4v.4l-.1.4v.7l-.1.4v3.6l.1.4v.4l.1.4v.4l.2.3v.3c.1 0 .2.3.2.3v.3c.1 0 .2.3.2.3v.3c.1 0 .3.3.3.3v.3c.1 0 .3.3.3.3l.2.3.2.3.2.3.2.3.2.3.2.3.2.3.2.3.2.3.2.3.2.3.2.3.2.3.2.2.3.2.3.2.3.2.3.2.3.2.3.2.3.2.3.2.3.2.3.2.3.2.3.2.3.2.3.2h.3c0 .1.3.3.3.3h.3c0 .1.3.2.3.2h.3c0 .1.3.2.3.2h.3l.4.2h.4l.4.1h.4l.4.1h4.4l.4-.1h.4l.4-.1h.4l.3-.2h.3c0-.1.3-.2.3-.2h.3c0-.1.3-.2.3-.2h.3c0-.1.3-.3.3-.3l.3-.2.3-.2.3-.2.3-.2.3-.2.3-.2.3-.2.3-.2.3-.2.3-.2.3-.2.3-.2.3-.2.3-.2.3-.2.2-.3.2-.3.2-.3.2-.3.2-.3.2-.3.2-.3.2-.3.2-.3.2-.3.2-.3.2-.3.2-.3.2-.3.2-.3v-.3c.1 0 .3-.3.3-.3v-.3c.1 0 .2-.3.2-.3V28c.1 0 .2-.3.2-.3v-.3l.2-.4v-.4l.1-.4v-.4l.1-.4V21l-.1-.4v-.4l-.1-.4v-.4l-.2-.3v-.3c-.1 0-.2-.3-.2-.3v-.3c-.1 0-.2-.3-.2-.3v-.3c-.1 0-.3-.3-.3-.3l-.2-.3-.2-.3-.2-.3-.2-.3-.2-.3-.2-.3-.2-.3-.2-.3-.2-.3-.2-.3-.2-.3-.2-.3-.2-.3-.2-.3-.2-.3-.3-.2-.3-.2-.3-.2-.3-.2-.3-.2-.3-.2-.3-.2-.3-.2-.3-.2-.3-.2-.3-.2-.3-.2-.3-.2-.3-.2-.3-.2h-.3c0-.1-.3-.3-.3-.3h-.3c0-.1-.3-.2-.3-.2H33c0-.1-.3-.2-.3-.2h-.3l-.4-.2h-.4l-.4-.1h-.4l-.4-.1h-2Zm-.2 2.6v.7h.2v-.6h-.2Zm.2 1.5h-.2v1.2h-.5l-.1-3.5h.7v3c0 .1-.5.1-.5.1v-1.1ZM30.7 33l.1.4v.1l.2.5v.2l-.1.2.1-.1v.2h1v-.3l-.2-.4h.5v.1h-.6v-.1h.1-.2l.2.2v.2c-.1 0-.3.1-.3.1v-.2Zm5.1-2.4v-.2c-.1 0 .1-.2.1-.2Zm-.7.4v.1l.2.2h.3v.7h.1v-.4l.2.3v.4h.2l-.4.7-.2.2v-.3l.3-.5v.1h.2v-.1l.1-.2V32c.1 0 .2-.2.2-.2v-.1l.1-.1v.2l-.2.2v-.5h-.1l-.2.5v-.1l.2-.3.1-.2h.1l.2-.3h-.7v.2h-.2v-.2ZM26 33.4l-.2.1.2-.2v-.2h.1v.1Zm-.1-.5-.2.2h-.1v.2l-.2.2h-.5l.1.2h.2v.2-.2h.5v-.1.3h.1-.2v-.3h.1v-.3h-.1l-.3.4-.2.3H25h.1l-.4.2h-.2V34h.2v-.2c.1 0 .2-.1.2-.1v-.3ZM20 31.3h-.3v.1l-.1.1-.2-.2v-.2h-.1v-.2h.1v.1h-.1.1v.1l.2.1Zm1.5-1.4h-.1v-.2l-.4.3-.1-.2v.3l.3.2.1.1.1.1h.4c0 .1.2.1.2.1v-.3h.2c0 .1.1 0 .1 0l-.2-.3H22v-.1l-.2-.1ZM18 25.8v-.4h.4l-2.5.3v-.4l2.3-.3h.5-.7Zm1.2-1.5h-3.5v-.6h3.5zm0-1-3.4-.4v-.4l2.7.3v-.7h.9l-.1 1.1Zm.1-1.5v-.4c.1 0-3.2-.9-3.2-.9v.4c-.1 0 3.2 1 3.2 1Zm.3-.9-3.1-1.5.2-.5 2.2.5-1.9-.9.2-.4 3.1 1.5-.2.5-2-.4 1.8.9-.2.4Zm.5-3.6-1.7-1.6.3-.3 1.7 1.6v-.3l-1.7-1.6.3-.3 1.7 1.6v1.2-.3Zm2-.6.3-.3-1.2-1.6 1.6 1.3.4-.3-2.1-2.8-.3.3 1.3 1.7-1.7-1.4-.4.3zm1.7-1.3.4-.2-1.8-3-.4.2zm1.1-.6-1.7-3.1.5-.2.9 1.9-.4-2.1.5-.2.5 3.5-.4.1Zm1-.4-.4-3.4 1.2-.2v.8H26v.6h.8v.7h-.7v.7l1-.1v.8l-1.2.2Zm4.6-1.3v.3-.2h-.1v-1.6 1.1H30v-.2h-.1v.2l.1.1v1.6-1h.4Zm1.3 1.4h.4c0 .1 1.4-3 1.4-3l-.4-.2zm1.2.7 1.2-2.4-.4-.2.3-.7 1.2.6-.3.7-.4-.2-1.2 2.4zm1.2.6.3.2.8-1.1 1.6-1.4-.4-.3-.9.9.5-1.2-.4-.3-.8 2-.8 1.1Zm4.6 2.1h.1v-.1h-.4l-.1.1h-.1l-.1.1h-.1l-.1.1h-.1v.3h.1l.2.4h-.1l-.1.1h-.1l-.1.1v-.3h.1c0-.1.1-.2.1-.2v-.2h.2c0-.1.2-.2.2-.2h.2c0-.1.2-.2.2-.2h.2l.2-.2h.2v.6l-.1.2h-.1l-.1.1H39l-.2-.3Zm-1.5 1.8v.4c.1 0 1.5-.4 1.5-.4l.2.5-1.3.4v.4c.1 0 3.5-1 3.5-1v-.4c-.1 0-1.3.4-1.3.4l-.2-.5 1.2-.4v-.4c-.1 0-3.4 1-3.4 1Zm.5 1.8 3.4-.5v.5l-3.4.5v-.4Zm.2 1h3.5v.6l-2.2.4h2.1v.5h-3.5v-.6l2-.4h-2v-.5Zm.4 2.4-.5-.2v-.5l3.4 1.3v.4h-3.6v-.5h.6v-.6Zm.7.3v.3h1l-1-.4Zm-2.3-8.7v-.4z" style="fill:#0836bf;fill-rule:evenodd" id="_图层_1" data-name="图层_1"/></svg>