<svg xmlns="http://www.w3.org/2000/svg" viewBox="0 0 128 36.9"><defs><style>.cls-2,.cls-3{fill-rule:evenodd}.cls-2{fill:#231916}.cls-3{fill:#0073bd}</style></defs><g id="_图层_1" data-name="图层_1"><path d="M24.9 29.3c5.9 0 10.8-4.8 10.8-10.8S30.9 7.7 24.9 7.7s-10.8 4.8-10.8 10.8 4.8 10.8 10.8 10.8" style="fill:#fff;fill-rule:evenodd"/><path class="cls-3" d="M14 18.5c0-6 4.9-10.9 10.9-10.9s10.9 4.9 10.9 10.9-4.9 10.9-10.9 10.9S14 24.5 14 18.5M24.9 7.8c-5.9 0-10.7 4.8-10.7 10.7S19 29.2 24.9 29.2s10.7-4.8 10.7-10.7S30.8 7.8 24.9 7.8"/><path class="cls-3" d="M15.5 18.9c.1 0 .2 0 .2-.2h-.9v-.2h1s.1.3 0 .4c0 0 0 .1-.2.2v-.2Zm.8-.4c0-4.7 3.8-8.5 8.5-8.5s8.5 3.8 8.5 8.5-3.8 8.5-8.5 8.5-8.5-3.8-8.5-8.5m8.6-8.4c-4.6 0-8.4 3.8-8.4 8.4s3.8 8.4 8.4 8.4 8.4-3.8 8.4-8.4-3.8-8.4-8.4-8.4"/><path class="cls-3" d="M27.4 12.3v11h-1.6s0-.2-.1-.3c-.1-.3-.3-.7-.4-1 0-.1-.1-.2-.1-.3v-.2c0-.2-.1-.3-.2-.5v-.4 2.8h-1.9v-11h1.6v.2c0 .2.1.3.2.5 0 0 0 .2.1.3v.1s0 .2.1.3c0 .1 0 .2.2.3 0 .1 0 .2.1.4 0 .2.1.3.2.5v.1-2.7h1.9Zm-5.5 1.5v2.4h-.5l-.1.1v2.8c.1.1.6 0 .8 0v2.4h-2.5c-.2 0-.4-.2-.5-.4V14c0-.1 0-.2.2-.3 0 0 .2-.1.3-.1h2.3ZM26 25.5h-.1v.2h-.2v-.2h-.6v-.3l.3-.3.1-.1h.1c.2 0 .2 0 .3.2v.6Zm-.5-.7-.2.2h.3v-.3Zm1.7 0v.8l-.2.2h-.6v-.6s.1-.1.2-.1h.4s0 .1.1.1Zm-.5 0s-.1.4 0 .5c0 0 0 .2.1.2h.1V25h-.1Zm-3.1.3v-.3s.1-.2.2-.2h.3c.1 0 .2 0 .3.1 0 .1.1.3.1.5v.3s0 .2-.2.2h-.5c0-.1 0-.2.2-.2h.2c.1 0 .1 0 .2-.2v-.1h-.5s-.1 0-.2-.2Zm.4-.3v.2c0 .2.4.1.3 0H24Zm-.8-.3v1.2H23V25h-.3v-.2h.1s.1-.3.3-.2Zm-6.8-11.1s0 .1-.1.2h-.2v.1c0 .2 0 .3.2.4.1 0 .3.2.5 0l.2-.2h-.1s0 .1-.1.2h-.1v-.2c.1 0 .3.1.4.2 0 .2-.2.4-.2.5h-.4s-.1-.2 0-.3v-.2s.2-.2.3-.2h.2Zm.1 1.6c0 .1 0 .2-.1.3h-1.1.1s.2 0 .3.1h.2v.2h-.4c-.2 0-.4-.1-.6-.2v-.3h1-.6.4Zm-.5 1.3v.1h-.2v.5s.2 0 .2.1c-.3-.2-.6-.3-.9-.5H15v-.2zm-.6.3h-.1s.1 0 .2.1h.1v-.3h-.2Zm.4 1.1v.2h-1.1v-.2h1Zm10.9-9.3v.7h.4v.2h-.6V9c0-.2 0-.4.1-.6v-.2h.2ZM29 9.5v.1s-.1.2 0 .3c0 0 .2.1.3.1.2 0 .2-.1.3-.2 0 0 0-.2.1-.2 0 0 0-.1.1-.2v-.1c0 .1 0 .2-.1.3 0 0 0 .2-.1.2 0 0 0 .1-.1.2s-.4 0-.6 0l-.2-.2v-.7h.2v.2Zm1.5 1.5c.1-.2.3-.3.4-.5-.1.1-.2.3-.4.5v-.6l-.1.1c0 .1-.2.2-.3.4v.1c0-.1.1-.2.2-.2l.1-.1c.1-.1.3-.4.4-.5h.2v.8Zm.4.6.2-.2.6-.6.2.1v.1l-.6.6h-.1Zm-6.5-3.4v1h-.2v-.8.4H24v-.2c0-.2-.2-.4-.2-.6v-.1.9h-.2V7.6h.3c0 .1 0 .2.1.3v.3-.6h.4Zm1.5 1.2h-.2v-.1s0-.1-.1-.1h-.2v.2h-.2s0-.2.1-.3c0-.1.1-.3.2-.4 0 0 0-.2.1-.3v-.1h.2v.9Zm-.3-.6v-.2s0-.1 0 0zv.1h.3v-.2Zm-3.1.3h.1v.2h-.2s0-.2-.1-.3c0-.1-.2 0-.3 0v.4h-.2c0-.2 0-.4-.1-.5 0-.2-.1-.4-.1-.5h.5v.3l-.1.1Zm-.1 0v-.3h-.3V9h.3Zm-1.9.2h.3l.2.2v.5s-.1 0-.2.1h-.4s-.1 0-.2-.1c0 0-.1-.1-.1-.2v-.2Zm.6 0h-.3c-.1 0-.2.2-.2.4v.2s.2.2.3.2c0 0 .2 0 .2-.1 0-.2 0-.5-.2-.6Zm-.9 1.4h-.1s-.1 0-.2-.1h-.4s-.1 0-.2-.1v.1c0 .1.1.2.2.3 0 0-.1 0-.2.1-.1-.1-.2-.3-.3-.4 0 0-.1-.2-.2-.2 0 0-.1-.2-.1-.3 0 0 .2-.1.2-.2.1 0 .3.2.4.2 0 0 .2.1.3.2h.1v-.1s-.1-.2-.2-.3c0 0-.1-.1-.1-.2h.1v.1c0 .2.2.3.3.5.1 0 0 .1-.1.1Zm-1.9 1.5-.3-.3c-.1 0-.2-.2-.3-.2 0 0-.1 0-.1-.1h.1c.1 0 0 0 0 0 .2.2.4.4.6.5Zm-.4.4s0 .1-.1.2h-.5v.4-.6h-.6s0-.1.1-.2h.5v-.2s0-.1.1-.2v.4h.7Zm9.8 6.7h.8v-2.9H28V14h2.4s.2 0 .2.2v7.1h-2.8v-2.4Zm4.1-7.1h.6-.3s-.2 0-.3.1h-.4l-.1-.1v-.4c0-.1.1-.3.2-.4 0 0 .2.2.1.2v.2s0 .2-.1.2v.2Zm1.8.9h-.1V13s0-.1-.1-.2c0 0 0-.1-.1-.1h-.1v.2s0 .1.1.2h-.1s-.1-.1-.1-.2H33v.2h-.1v-.2h.1s.2-.1.3-.2c.1 0 .3-.2.4-.3h.1c0 .1.1.2.2.3 0 0 .1.2.2.3Zm.3.5v.4h-.2s0-.1-.2 0c0 0 0 .1-.2.2h-.1v-.1l.1-.1s.2 0 .2-.1v-.1s0-.1-.1-.2H33v-.1c.2 0 .4-.2.5-.3.1 0 .3-.1.4-.2Zm-.2.7h.2v-.4s-.2 0-.2.1 0 .2.1.3Zm.7 1.4v-.3c0-.1-.1-.2-.3-.1v.3c0 .2 0 .4-.1.5h-.3s-.2-.1-.2-.2v-.4h.1v.2s.1.1.2 0c.1 0 0-.4 0-.6 0 0 0-.1.1-.1h.3c.1 0 .3.4.2.6h-.1Zm.4.5v.1H34v-.2h.9Zm.2.7v.8h-.2v-.3h-1v-.2h.9c.1 0 0-.1 0-.2v-.2h.2Zm.1 1.3v.2h-.4c.1 0 .3.2.4.2v.2c-.2 0-.3-.2-.5-.3h-.4v-.2h.9Zm-17.6 5.4s0 .1-.1.1-.2-.1-.2-.2h.2v.2Zm-.6.2h-.1s-.1 0-.2-.1v-.2h.1v.2Zm-.5.1h.4-.2s-.1 0-.2.1c-.1 0-.2 0-.2-.1 0 0 0-.1.1-.2h.2Zm.9 1.2v.2h-.2l-.2-.2c0-.2-.2-.2-.4-.3 0 0-.1-.2 0-.3h.3v.1s0 .1.2.2h.1s.2 0 .2-.2l-.1-.1v-.2h.4s-.1 0-.1-.1V24h.3l.1.1s.3.4.2.5h-.4v.3h-.2Zm1.8 1.4h1s.1 0 .1.1c0 0 0 .1.1.2 0 0 .1.2 0 .3 0 0-.2.1-.3.2h-.4c-.1 0-.5-.3-.6-.4v-.1h.2-.2v-.1h-.2s-.2 0-.2.1v.2h-.2c0-.2 0-.5.1-.6h.9s-.6-.3-.8-.3v-.2q1.05.15 1.8.9v.2h-.2s-.1-.2-.2-.2-.3-.2-.4-.2c-.2 0-.3-.1-.5-.1h-.6Zm.5.5h.4l-.2-.1h-.2zm.4.1h-.5c0 .1 0 .1.2.2 0 0 .1.1.3 0h.1s.1 0 .1-.1h-.1Zm3.1.2h.3v.5l.1-.1v-.2s0-.1.1-.1h.1c.2 0 .4 0 .7.1v.1H24v.2h.3v.2l-.1.1H24v.2c0 .1 0 .4-.2.4 0 0 0-.5.1-.6v-.3h-.2v.1-.3s0 .1-.1.2h-.1c-.1 0 0-.1 0-.2h.1v-.1h-.1v-.2h.1v-.2h-.2c-.1.2 0 .3-.1.5v.3c-.1 0-.1-.4 0-.5q0-.45.3-.9s.2 0 .2.2Zm.3.4s.1-.2.2-.1v.1h-.1v-.1Zm.2 0h-.1.2v-.1Zm.2.6h.1s.1 0 .1-.1h-.2v.2Zm3.1-.5c-.2 0 .2-.3.1-.4-.1 0-.2 0-.3.1v.2h-.1v-.1s0-.1.2-.2v-.5h.1v.3s.3-.1.4-.2c.1 0 .2-.3.3-.4v.1c0 .1 0 .2-.2.3-.2 0-.4.4-.5.5Zm.8.7s.3-.1.4-.2v-.2h.1v.2c-.1.2-.4.5-.8.5 0 0-.2 0-.3-.1v-.3s0-.3.1-.3c0 0 .2 0 .2-.1h-.2s-.1 0-.2.1c-.1.2-.2.5-.2.7v.2h-.1v-.2l-.1-.1v-.6s0-.1.2-.1v.1l-.1.1v.5-.1c0-.2.1-.4.2-.5 0-.1.1-.3.2-.4.1 0 .4-.2.5 0v.3s0 .1-.1.1-.3 0-.4.3v.1h.3Zm2.5-2.8v.2l.1-.1h.1v.2c0 .1-.3.2-.3.4s-.1.7-.2 1c0 0 0 .2-.1.2 0 0-.1 0-.1-.1 0 0 0-.1.1-.2v-.5l-.1.1h-.1c-.2 0-.1-.2 0-.3h.1l.1-.1v-.7s.2-.1.3 0Zm1.3.9s0 .1-.2.1h-.9l.1-.1zm.9-3v-.1h.2v.2s0 .1-.2.1c-.3 0-.7.6-.8.8v.3h-.1s-.1-.1-.1-.2v-.1c0-.2 0-.3.2-.4.1-.1.4-.4.4-.6v-.2.2h-.2s0 .3-.1.3h-.1v-.2s0-.1.2-.1v-.1l.1-.1s.1-.1.1-.2.2-.2.3-.2v.2Zm.7.5v.2l-.2.2v.6h-.2v-.2s0-.1-.1 0c0 0-.1.2-.2.3l.2-.4-.1-.1c-.1 0-.2.3-.3.2v-.2c0-.1.1-.2.2-.3 0 0 .2-.2.2-.1v.1h.2s.1-.2.3-.2Z"/><path class="cls-2" d="M43 11.4c.3.3.4.8.1 1.1-.3.6-1.3.5-1.8.3 0 0-.2-.1-.2-.2-.1-.2 0-.7.1-.9 0-.2.6-.4.7-.4.2 0 .8 0 1 .1Zm-1.3 3.5v.8c-.1.6-.7.4-1.1.3-.3 0-.7-.6-.6-1 0-.2.3-.3.5-.4.4-.1.7 0 1.1.3Zm-1.2 3c.2-.4.5-.4.9-.7.3-.2.7-.4 1-.7.2-.1.3-.3.4-.2s0 .3-.2.5c0 0-.5.8-.6 1v1.6c-.2.6-.8.9-1.2.6-.3-.3-.3-.7-.3-1.1s-.1-.6.1-1Zm8.5 0c0 .5.6.5.7.9 0 .3 0 .8-.3.9-.4.2-1 0-1.4 0-1-.2-1.8.2-2.7.5-.5.1-1.3 0-1.5-.6.3-.3.8-.8 1.2-.9.2 0 .3 0 .6-.1h.9c.4 0 .9 0 1.2-.2.1 0 .5-.3.6-.4.3-.3.2-.9-.2-1.2-.2-.2-.6 0-.9 0-.4 0-.8-.2-.9-.6 0-.4.3-.8.5-1.3 0-.2.4-.7.4-.8-.2-.3-.5 0-.7 0-.3.2-.7.4-1 .1-.4-.2-.5-.6-.6-1 0-.4.2-.5.5-.7.3-.1.4-.2.7-.2s.7 0 1-.1h.6c.5 0 2.6 0 2.6.7 0 .3-.3 1-.7 1.2-.2 0-.5.2-.7.2s-.6 0-.7.3c-.1.2-.1.4 0 .5s.5 0 .7.2c.6.2.8.7.7 1.2 0 .3 0 .5-.1.7 0 .2-.2.4-.2.6Zm5.8-1.8c.5 0 1-.3 1.6-.5.2 0 .5 0 .7-.2.2-.1.4-.3.5-.4.2-.2.5-.6.8-.3v.4c.1.2.4.1.7 0h.3c.3-.1.6-.4.9-.5.3 0 .7 0 .9.2.3.4.7.4 1.1.4s1.1.6 1 1.1c0 .6-.6 1.1-1 1.6-.1.2-.3.4-.4.4-.2.2-.4.2-.6.4s-.3.8-.5.9c-.6.4-3.1.2-3.7-.2-.2 0-.3-.3-.4-.4v-.4c0-.1.1-.2.2-.3.2-.2.6-.4.8-.6l.4-.4v-.2c-.2-.3-.7.4-1 .3-.2-.1-.4-.3-.5-.6 0-.1 0-.3-.1-.4-.2-.2-.8.1-.9.3-.3.2-.6.7-.5 1s.5.7.5 1c0 .4-.3.7-.7.5-.9-.4-1.4-2.2-1.1-3 0-.3.2-.6.5-.8.7-.6 2.7-1.1 3.1-1.8-.3-.3-3.4.5-4.2.7-.5.1-1-.6-.6-1 4.4-1.7 8-1.3 10.5-.7.3 0 .5 0 .7.2.1 0 .4.2.5.4.2.4-.4.7-.7.7-.5 0-1-.3-1.6-.4-.8 0-1.7 0-2.5.1-.9.1-1.6.3-2.5.8-.7.4-1.5.6-2.1 1.1-.3.2-.4.4-.3.7Zm3.7.9c-.2-.3-.3-.5-.2-.8.2-.1.5-.2.8-.3.4-.2.9-.5 1.1 0 .2.4-.3.6-.8.9-.4.2-.6.4-.9.2m2.2-.4c-.2.2-.5.4-.8.6-.5.2-1.3.3-1.1.9s.8.4 1.3.2h.2c.4.1.8.1 1.4-.3.2-.1.3-.3.5-.5.3-.4.5-.6.2-1-.1-.1-.3-.3-.5-.3h-.3c-.3 0-.4 0-.6.1s-.2.2-.3.4Zm8.4-3.9c.5.2 1.5-.6 1.6 0 0 .2 0 .8-.1 1 0 .2-.2.5-.3.7 0 .3 0 .6.3.8.2-.2.3-.6.5-.9.1-.4.3-.7.2-1.2 0-.3.1-.7.4-.8.2-.1.4 0 .6 0 1.2 0 2.3-.4 3.6-.1.2 0 .3.3.2.5-.2.3-.7.6-1.2.7-.2 0-1.1-.3-1.1.2 0 0 .4.8.5.9.2.1.7 0 1.1 0 .3 0 .5.1.8.2.2 0 .4.1.5.4.1.4 0 1.1-.2 1.4 0 .2-.4.5-.6.7l-.4.4c-.3.2-.5.6-.9.6-.2 0-.2 0-.3-.1q-.3.45-.3.9c0 .6 0 1.9-.6 2.2-.4 0-.1-2.9-.1-3.1v-1.7c-.2-.2-.8-.1-1 0-.2.2 0 .5 0 .8 0 .2-.1.3-.2.4 0 .1-.3.2-.5.1s-.2-.5-.3-.8c0-.2-.2-.9-.4-.8l-.2.4c0 .2-.3.8-.4 1s-.2.4-.4.6c0 0-.4.4-.5.4-.6.2-.5-.7-.3-1 .1-.2.4-.2.5-.3.2-.2.4-.5 0-.7-.3 0-.6.2-.8 0-.3-.2 0-.7.2-.9.3-.2.5-.3.5-.7 0-.3-.4-.5-.4-.9-.2-.1-.5 0-.7.2s-.4.3-.5.6c-.3 1-.1 1.9 0 2.8 0 .4.2 1 .2 1.4 0 .1-.1.2-.1.3-.8-.2-.9-1.7-.9-2.6 0-1.8-.2-3.5.8-5 .4-.3 1.3-.2 1.3.7Zm2.2 1.8c.2-.4.4-1.2.9-.8 0 .3-.1.4-.2.7 0 .1-.1.2-.2.2-.2.2-.3.6-.5.6-.3 0-.1-.5 0-.6Zm1.4-.2c-.2.2-.5.4-.6.6.1.4.7.2 1 0 0-.2.1-.4 0-.6zm1.4 2.7c0 .2.5.3.8.2.2-.3.6-.5.5-.9s-.7-.3-1.1-.3c-.2.2-.3.7-.3 1Zm8.3-2c-.7-.5 1.5-1.3 1.3-1.9-.5 0-1.1.1-1.6.3-.1.4-.2.7-.5.9-.2.2-.3.2-.5 0 0 0 0-.2-.1-.2-.3-.1-.5.3-.7.3s-.2-.4-.1-.7.6-.6 1-.6c.3-.2.1-.7.2-1.3 0-.4.3-1 .5-1.2.3-.2.5-.2.6.2v.4c0 .5-.6 1.5-.2 1.7.3.1 1.7-.2 1.9-.4.7-.2 1.6-1.3 2.2-1.3.3 0 .3.5.2.8-.1.6-.6 1.1-1.2 1.2-1.3.2-2.4 1.6-3 1.8"/><path class="cls-2" d="M85.4 19.3c.5 0 1.8-.2 2.1-.8.2-.3.3-.7.5-1.1.3 0 .3.3.4.5 0 .3.1.5 0 .9-1 1-2.7 1.8-4.5 1.3-.5-.1-.9-.2-1.2-.9 0-.4 0-.9.1-1.4.2-.4.7-1.2 1.1-1.3s1 0 1.3-.4v-.2c0-.1.1-.2.1-.3-.3-.3-.7-.2-1.1-.1-.3 0-.7.1-1 .3-.1 0-.3.1-.3.2-.7.6-1.7 2.4-2 3.3-.1.3-.1.7-.3.9-.2.1-.4.2-.7 0 0 0-.2-.5-.3-.7v-.6c0-.4-.2-.6-.4-.8 0-.4 0-.7.1-1.1s.2-.6.3-.9c.2-.4.3-.5.5-.9.2-.3.6-.4.9-.4.1.2 0 .6-.2.7 0 0-.6.5-.7.5-.1.1-.3.3-.4.6 0 .2.3.4.3.7s-.3 1.4 0 1.5c.3 0 .4-.2.5-.5.5-.9 1.1-1.6 1.6-2.4.3-.5 1-1.3 1.5-1.5.7-.2 2.2-.5 2.5.2v.7c-.1.2-.4.4-.4.7 0 .2.2.2.2.4s-.5.4-.7.5c-.7 0-1.8 0-2.1.9v.6c0 .2.2.4.4.5.4.3 1.1.3 1.6.3Zm13.4-7.4c0 .2-.5.7-.8.9-.2.1-.2 0-.3.3v.2c.1.1.7 0 .9 0 .3 0 .4.2.6.4.2.3 0 .7-.3.9l-.4.4c-.7.4-2 0-2.4.6-.1.1-.1.3-.2.5-.5.8-2.7 2.6-3.9 3.4-.3.2-.7.5-1.1.2-.2-.2-.3-.7-.2-.9.2-.2.8-.2 1.2-.5.1 0 .3-.2.4-.3.7-.6 1.6-1.5 1.7-2.1 0-.1 0-.1-.2-.1h-1.6c-1-.3 0-1.4.7-1.6h.8c.3 0 .6 0 1-.2.1 0 .4-.1.5-.2.3-.2.4-.8.7-1.2.4-.6.9-1.3 1.6-1.5.4-.1 1.4 0 1.3.6Z"/><path class="cls-2" d="M101.7 19.9c0 .1-.2.2-.3.2-.3.1-.7.2-1.2 0-.5-.3-1-.7-1.4-1-.7-.5-1.5-1-2-1.7l-.3-.6c-.1-.2-.2-.5 0-.6.2-.2.6-.2.8 0 .2.1.6.4.8.6.3.5.5.6 1 .9.8.5 1.7.9 2.4 1.2.1 0 .2.2.3.3.2.3.4.4.2.7Zm10.2-7c.1 0 .6 0 .8-.2h.4c.2 0 .4 0 .6.2.3.2.4.3.3.7 0 .4-.3.8-.7 1.1s-.8.1-1.1-.2c-1.2-1.1-4.7-.4-6-.2-.2 0-.5 0-.7.3-.2.2-.2.5-.2.8 0 .2-.2.5-.3.6-.2.1-.6.2-.7-.1-.2-.3 0-.8 0-1.1 0-.2.1-.7.2-.9.5-.8 1.4-.6 1.9-.7.9-.1 3.1 0 3.7-.5.3-.2.6-.8.4-1s-.6 0-.8 0c-.2.2-.2.4-.5.5h-.5c-.2 0-.3-.2-.4-.3-.2-.3-.5-.2-.7-.4-.7 0-1 1.2-1.7.9-.3-.1-.3-.4-.3-.6 0-.3 0-.6.3-.8s.8-.2 1.1.2c.2 0 .4-.2.6-.3.1 0 .4 0 .5-.1h.8c.1 0 .2.2.4.3.3.1.9 0 1.3-.3.5-.3 1.4-.2 1.7.4 0 .1.1.4 0 .5-.1.4-.7.6-.6 1Z"/><path class="cls-2" d="M112.7 17.2c.1.4-.5.8-.9.9s-.8 0-1.2.1c-.2 0-.3 0-.4.2v.2c0 .3-.1.8-.3 1 0 0-.1.2-.3.4-.4.5-1 1.3-1.7 1.3-.3-.2-.6-.9-.4-1.1h.4c.4 0 .6 0 .8-.5 0-.1.2-.3.2-.5s.1-.6 0-.8h-.4c-.7 0-1.3.3-2 .4-.2 0-.4 0-.6-.2V18c.3-.3 2-.8 2.3-.8h.4c.2-.2.1-.6.2-.9-.7-.1-1.6.4-2.1-.3-.3-.4.4-.9.7-.9.8-.2 1.1-.2 1.9-.3.4 0 1.3-.1 1.4.4v.5c0 .2-.2.4-.4.5-.1.1-.3.2-.3.3-.2.5.5.5.8.4.6 0 1.4-.4 1.7.3ZM52 25h.3c0 .2 0 .3.1.4 0 0 .2.1.3.1h.2s.1 0 .1-.2v-2.2h.4v2.4q0 .15-.3.3c-.1 0-.3.1-.4 0-.2 0-.4 0-.6-.2-.1-.1-.2-.3-.2-.6Zm2.1-1.2h.3v2h-.3zm0-.8h.3v.4h-.3zm2.1 1.7c-.1 0-.3 0-.6.1h-.3c-.1 0-.2.2-.2.4v.1h.6s.2-.1.2-.2v-.4Zm0 .8c-.1 0-.2.2-.4.2h-.4c-.2 0-.4 0-.5-.2-.1-.1-.2-.3-.2-.4 0-.2 0-.4.2-.5 0 0 .2 0 .2-.1h.3c.3 0 .5 0 .6-.1v-.3s-.2-.1-.4-.1h-.4s-.1.2-.2.3h-.3c0-.2 0-.3.1-.4 0 0 .2-.2.3-.2h.9c.1 0 .2 0 .2.2 0 0 0 .1.1.2v1.5h-.4v-.2Zm.9.2v-2h.3v.3c.1-.2.4-.3.6-.3h.3s.2 0 .2.2c0 0 0 .2.1.2v1.5h-.3v-1.5s0-.1-.1-.2H58c-.1 0-.3 0-.4.1-.1 0-.2.3-.2.5v1.1h-.3Zm2.3-1c0 .3 0 .5.2.6.1.1.2.2.4.2s.3 0 .4-.2c.1-.1.2-.3.2-.6s0-.4-.2-.6c0-.1-.2-.2-.4-.2s-.3 0-.4.2c-.1.1-.2.3-.2.5Zm-.2 1.2h.3c0 .2 0 .2.1.3.1 0 .2.1.3 0h.4s.1-.2.2-.3v-.4q-.15.3-.6.3c-.3 0-.5 0-.6-.3-.2-.2-.2-.5-.2-.7s0-.4.1-.5c0-.2.2-.3.3-.4.1 0 .3-.1.5-.1s.4 0 .6.3v-.2h.3v2.4c0 .1-.2.2-.3.3-.2 0-.3.1-.5.1s-.4 0-.6-.2-.2-.3-.2-.5Zm1.9-.2.7-1-.7-1h.4l.3.5.1.2s.1-.2.2-.2l.3-.5h.4l-.7.9.7 1.1h-.4l-.4-.6v-.2c-.1 0-.6.8-.6.8H61Zm2.2-1.9h.3v2h-.3zm0-.8h.3v.4h-.3zm1.9 2.7V23h.4l1.4 2.2V23h.3v2.7h-.4l-1.4-2.2v2.2zm3-.9c0 .3 0 .4.2.6s.3.2.4.2c.2 0 .3 0 .4-.2.1-.1.2-.3.2-.6s0-.4-.2-.6c-.1-.1-.3-.2-.4-.2-.2 0-.3 0-.4.2-.1.1-.2.3-.2.6m-.4 0c0-.4.1-.6.3-.8.2-.1.4-.2.6-.2.3 0 .5 0 .7.3.2.2.3.4.3.7s0 .5-.1.6c0 .1-.2.3-.3.3s-.3.1-.5.1c-.3 0-.5 0-.7-.3-.2-.2-.3-.4-.3-.8Zm2.3.9v-2h.3v.3c0-.1.2-.2.2-.3h.2c.1 0 .2 0 .3.1v.3h-.6s-.1.1-.1.2v1.4zm1.3 0v-2h.3v.3c.1-.2.4-.3.6-.3h.4s.2.2.2.3q.3-.3.6-.3c.3 0 .3 0 .5.2.1.1.2.3.2.5v1.4h-.3v-1.6s0-.1-.1-.1h-.6s-.1.2-.1.4v1.2h-.3v-1.6s-.1-.1-.3-.1h-.3l-.2.2v1.4h-.3Zm4.4-1c-.1 0-.3 0-.6.1h-.3c-.1 0-.2.2-.2.3 0 0 0 .2.1.2h.6s.2-.1.2-.2v-.4Zm.1.8c-.1 0-.2.2-.4.2h-.4c-.2 0-.4 0-.5-.2-.1-.1-.2-.3-.2-.4 0-.2 0-.4.2-.5 0 0 .2 0 .2-.1h.3c.3 0 .5 0 .6-.1V24s-.2-.1-.4-.1h-.4s-.1.2-.2.3h-.3c0-.2 0-.3.1-.4 0 0 .2-.2.3-.2h.9c.1 0 .2 0 .2.2 0 0 0 .1.1.2v1.5h-.4v-.2Zm.8.2h.3V23h-.3zm3.8-2.7h.4v2.3c0 .2-.2.3-.3.4-.2.1-.4.2-.6.2s-.5 0-.6-.1c-.2 0-.3-.2-.4-.4 0-.2-.1-.4-.1-.7v-1.6h.4v2.1c0 .1.1.2.2.3h.4c.3 0 .5 0 .6-.2.1-.1.2-.4.2-.7V23Zm.9 2.7v-2h.3v.3c.1-.2.4-.3.6-.3h.3c.2 0 .3.2.3.4v1.5h-.3v-1.5s0-.1-.1-.2h-.2c-.1 0-.3 0-.4.1-.1 0-.2.3-.2.5v1.1h-.3Zm2.1-1.9h.3v2h-.3zm0-.8h.3v.4h-.3zm1.4 2.7-.8-2h.4l.4 1.2c0 .1 0 .3.1.4 0-.1 0-.2.1-.4l.4-1.2h.3l-.8 2h-.3Zm1.7-1.1h1.1c0-.2 0-.3-.1-.4s-.3-.2-.4-.2-.3 0-.4.2c-.1.1-.2.3-.2.4m1.1.5h.3c0 .2-.2.4-.3.5-.2.1-.4.2-.6.2-.3 0-.5 0-.7-.3-.2-.2-.3-.4-.3-.8s0-.6.3-.8c.2-.2.4-.3.7-.3s.5 0 .7.3c.2.2.3.4.3.8h-1.5c0 .2 0 .4.2.5.1.1.2.2.4.2h.3s.2-.2.2-.3m.7.6v-2h.3v.3c0-.1.1-.2.2-.3h.2c.1 0 .2 0 .3.1v.3h-.6s-.1.1-.1.2v1.4zm1.2-.5h.3s0 .2.2.3c.1 0 .2.1.4.1h.3s.1-.1.1-.2v-.2s-.2 0-.3-.1c-.2 0-.3 0-.5-.2 0 0-.2-.1-.2-.2v-.5s0-.1.2-.2h.9c.1 0 .2 0 .3.2 0 0 0 .2.1.3h-.3s0-.1-.1-.2h-.6v.3h.4c.2 0 .4.1.5.2 0 0 .2 0 .2.2v.6c0 .1-.2.2-.3.2h-.4c-.3 0-.5 0-.6-.2-.1-.1-.2-.3-.3-.5Zm2-1.4h.3v2h-.3zm0-.8h.3v.4h-.3zm1.6 2.4v.3h-.5s-.1 0-.1-.2V24h-.2v-.3h.2v-.5l.3-.2v.7h.3v.3h-.3v1.4h.2Zm.4 1.1v-.3h.4l.1-.1s0-.1.1-.3l-.8-2.1h.4l.4 1.2c0 .1.1.3.1.5 0-.2 0-.3.1-.5l.4-1.2h.3l-.8 2c0 .2-.1.4-.2.5 0 0-.1.2-.2.2h-.5Z"/></g></svg>