<svg xmlns="http://www.w3.org/2000/svg" viewBox="0 0 128 38.9"><path d="M25.5 26.4v-.3h-.2c0 .4.2.4.3.2Zm1.6 0c-.2 0-.1.5 0 .4 0 0 .1-.1.1-.3 0-.1 0-.2-.2-.2Zm.1 3.3H27l-.1-1h.2v.9Zm-10.1-5.1v-.2l.8-.5v.2s-.8.4-.8.5m2.4 1.9-.5.5-.1-.1s.3-.3.3-.4l.2-.3h.1c0 .2 0 .2-.2.3Zm16.1-9h.5v.2c-.4 0-.3 0-.7.3l-.2.1v-.2s.3-.2.3-.3h-.4v-.3h.4Zm-19.6.2v.5h-.3v-.7l1 .2v.2l-.8-.1Zm20.3 2.5v.8l-1.1-.1v-.2h.8v-.6h.3Zm-19.6.2-.4.3h.1c.2.1.2 0 .2.3h-.2c-.1 0-.3-.2-.5-.1h-.3v-.2c.5-.1.2 0 .7-.3h.2v.2Zm1.8 6.2h-.1c0-.1.6-.7.6-.7l-.2-.2.1-.1c0 .1.4.4.5.6l-.1.1h-.1c0-.1 0-.2-.1-.2l-.1.1-.4.4Zm1.2-.1.3.3.3.3h-.4l-.5.6s-.1 0-.1-.1l.2-.3.2-.3-.2-.2Zm13.9-1.2s.5.4.6.5c0 0 0 .1-.1.1l-.3-.2-.2-.1-.2.2-.1-.1s.3-.4.4-.5c0 0 .1-.1.1-.2l.1.1-.2.2Zm-12.5 2.8.2-.3s-.2-.1-.3-.1v-.2h.3c.1 0 .4.3.5.3v.2h-.3l-.3.5H21l.2-.3Zm2.1-18.4h.1l.2-.2c.1 0 .1 0 .1.1v.7-.2.7h-.2v-.5s-.1 0-.1-.2h.1v-.3h-.2s-.1 0-.1-.1Zm10.2 3.7c-.1.1-.3.2-.4.4 0 0-.2.2-.2 0 0 0 0-.2.1-.2.1-.1.6-.5.8-.4h.3l-.2-.2s.4.1.4.3v.2H34l-.3.2s0 .1-.2.1v-.2Zm-8.7 15.3v.2l-.7-.1v.2h.5v.2H24v.4h-.2s.1-.8.2-1l.8.1Zm-3.8-1.4s.1 0 .2.1l-.3.5c-.2.2-.3.3-.5 0-.4-.3-.2-.5 0-.8 0 0 .1-.2.2-.2 0 .1-.4.5-.4.6s0 .2.1.2c.2.1.3 0 .4-.2 0-.1.2-.3.3-.4Zm8.8 1.4h.2c0 .3 0 .4-.3.5q-.45.15-.6-.3c-.1-.2 0-.5.2-.7h.3c.1 0 .2.1.3.2h-.2s-.2-.1-.4 0c-.2.2 0 .6.3.6.2 0 .2-.2.2-.3m-3 .7h.2c0 .3-.2.4-.5.4-.6 0-.6-.9 0-1h.4s.2.1.2.3h-.2l-.1-.1c-.2 0-.4 0-.4.3s.3.3.4.2v-.2Zm8.1-5.8v.2c-.4 0-.5.4-.2.5s.5-.1.4-.3c0 0 0-.1-.1-.2v-.2c.2.2.3.3.1.6-.3.5-1.1.1-.9-.4 0-.2.2-.4.5-.3Zm-3.5 4.7-.2-1 .2-.1c.1.1.3.2.4.3 0 0 .2.1.2.2h-.3l-.3.2v.2h-.1Zm.2-.7s.1 0 .1.1l-.2.1v-.4h.1Zm-14.8-9.2v.2c-.5 0-.8-.2-.8.2 0 .3.3.2.8.3v.2H16c-.2 0-.3-.2-.3-.4s.1-.4.3-.4h.7Zm.1 3v.2l-.6.4-.2.1v-.2s.1 0 .1-.1v-.4h-.3v-.2h1Zm-.5.3v-.3h.4l-.3.3Zm18.6.9.9.4v.2l-.4-.2-.2.4.4.2v.2c-.1 0-.9-.4-1-.4v-.2l.4.1.2-.4c-.1 0-.2 0-.3-.1zm.5-2.9c0-.3.2-.5.4-.5.3 0 .5.1.6.4 0 .7-.9.7-1 .1m.4-.4c.2 0 .4 0 .4.2 0 .1 0 .3-.1.3-.5 0-.6-.4-.2-.5Zm-20.1.5c0-.6.9-.7 1-.2.1.6-.9.7-1 .2m.8 0c-.1.3-.7.2-.6-.1 0-.1.2-.2.4-.2.1 0 .3.2.2.3m18.7 1.7c0-.3.2-.5.4-.5.3 0 .5.2.5.4 0 .7-.9.6-1 0Zm.4-.3c.2 0 .4 0 .4.2s-.1.5-.4.3c-.2 0-.3-.4 0-.5M23.7 29c-.1.6-.7.5-.8.3 0-.1-.1-.2 0-.4.1-.7 1-.5.9 0Zm-.2 0c0 .4-.4.3-.5.1 0-.2 0-.6.3-.5.2 0 .2.2.2.4m1.6.4h.2c0 .1 0 .2.2.2h.2v-.1s-.4 0-.5-.2c0-.1 0-.4.3-.4.2 0 .5 0 .5.3h-.2c0-.1-.1-.1-.2-.1-.2 0-.2.1 0 .2.2 0 .4 0 .5.2v.3h-.3c-.2 0-.4 0-.4-.4Zm-7.2-4.1h.1c-.2.3.2.7.2.5 0-.1-.2-.4-.2-.6 0-.1.3-.3.5 0 .2.2.2.5 0 .5l-.1-.1v-.2c-.1-.3-.3-.2-.3 0s.3.4.1.6c0 0-.2.1-.3.1s-.4-.3-.4-.4 0-.2.1-.3Zm14.3 1.2c.2-.1.5-.7.9-.2.1.1.2.3.1.5l-.2.2-.2.2-.5-.5-.2-.2Zm.3 0s.2-.2.3-.2c.2 0 .5.2.4.4 0 0-.1.2-.2.2 0 0-.1-.2-.2-.2l-.2-.2Zm3.8-8.2c.1.1.1.4 0 .6-.1.1-.4.2-.6.1-.5-.2-.4-.8 0-.8v.2c-.2 0-.2.5.2.5s.4-.5.1-.5v.2h-.2v-.4c.6 0 .5-.1.5.1m-19.4 5.3v-.2h.1l.1.3-.4.2v-.2c-.2-.1-.3-.5 0-.7.2-.2.6-.2.7.1v.3s0 .2-.2.2V23s-.2-.1-.4 0c-.3.1-.2.5 0 .5Zm4.9 4.7.5.2v.2c-.2 0-.5-.2-.6-.2v.2l.5.3v.2l-.7-.3s.3-.7.4-.9c0 0 .6.3.7.3v.2c-.2 0-.5-.2-.7-.2v.2Zm5.6 1.4-.2-1h.8c0-.1 0 0 0 0h-.6v.2h.6v.1h-.5v.3h.6c0-.1 0 0 0 0l-.8.1Zm6.5-4.9s.1 0 .2.1v-.1l.2-.3h.1l-.3.5s.1.1.2.1c0 0 .3-.5.4-.5h.1l-.3.5s0 .1-.1.2c0 0-.5-.3-.6-.4 0 0-.1-.1-.2-.1 0 0 0-.1.1-.2l.2-.3s0-.1.1-.2h.1s-.3.4-.3.5Zm-3.4 3.1-.6.3v.2c.1 0 .3 0 .3-.1 0 0 .2 0 .3-.1v.2l-.5.2v.2c.2 0 .5-.2.7-.3v.2c-.1 0-.6.3-.7.3l-.4-.9.7-.3v.2Zm1.1-.9s.1-.1.2 0c.2 0 .5.2.6.2 0 0-.3-.4-.4-.5h.2v.2c.2 0 .5.5.6.6 0 0-.1.1-.2.1s-.5-.2-.7-.2c0 .1.4.5.4.5h-.1l-.5-.6v-.1Zm3.9-4.8h-.4v-.3l.9.3v.2s-.3.1-.4.1c0 0-.3 0-.3.1l.6.2v.2l-1-.3c0-.2 0-.2.4-.3h.2ZM17.7 25s.4-.3.5-.3v.1s-.5.4-.6.4l-.2.1s-.1-.1 0-.2c0-.1.2-.6.3-.6 0 0-.4.3-.5.3v-.1l.8-.5v.3l-.2.4Zm10.5 3.6s.1 0 .3.2l.3.3v-.6c-.1 0 0 0 0 0 0 .1 0 .3.1.5 0 .1.1.4.1.5h-.2l-.2-.2-.3-.3v.6c.1 0 0 0 0 0 0-.2-.2-.9-.2-.9h.1Zm-11.6-5.9.6-.2v.2s-.8.3-.9.3v-.2l.4-.5-.6.2v-.2l.9-.3c0 .2.1 0-.1.4 0 0 0 .1-.1.2 0 0 0 .1-.1.2Zm7.2-13.2.2-.1c.2-.1.6 0 .5.2l-.2.4c0 .1 0 0-.1.1.1 0 .4 0 .4.1 0 0-.2.2-.2.3.1 0 .3 0 .3.2-.2 0-.2.1-.4.2-.1 0-.2-.2-.1-.3 0 0 .2 0 0-.2H24s.1 0 .2-.1c0 0 .1 0 .2-.1-.2 0-.4-.3-.4-.5 0 0 .2 0 .2.1h.1c0-.2-.1 0-.2-.2h.1v-.2l.1.1v-.2H24s0 .2-.3.1Zm.4.3v-.1zm3.4-.3h.4c.2 0 .4.2.1.4 0 0-.4.2-.4.3h.4c.1.4-.2.3-.4.3h-.2c-.2 0-.2-.3-.2-.5h.2c.2-.2.1-.2 0-.3v-.2Zm6.7 4v-.3.2h-.1s.2.2.1.3h-.4c0 .1.1 0 0 .2h-.1s-.2.1-.2.2c-.1 0-.2.2 0 .3.1 0 .2.1.4 0l.3-.1s0 .1-.1.2c-.1.3-.4.2-.6 0 0 0-.1 0-.2-.1s-.1-.3 0-.4c0 0 .1 0 .2-.2H33v-.2h.2-.1v-.1h.5c-.2 0-.2-.2 0-.2h.4Zm-.1.1c.1.1 0 0-.1 0 0 0-.2 0-.1-.2h.2Zm-3.3-2.9c-.2-.1 0-.4 0-.4v.2h.2c.1 0 .4-.2.4 0s-.3.2-.4.2h.1c.1 0 .3.3.2.4 0 .1-.2 0-.3 0h-.3s.2 0 .2.2-.3 0-.3 0l-.1.1s-.2.4-.4.2c0 0-.1-.2-.2-.3V11c0 .2 0 .3.2.3l.2-.2s-.2 0-.2-.1v-.2h.3-.3v-.2H30l-.3.3v-.2h.1c0-.2.2-.2.2-.3h.2c.3.2.3.1.5 0 .2 0 .4 0 .4-.2 0 0-.2 0-.2.1h-.2l-.2.2Zm.3.4h-.5.4c.1 0 .3 0 .3.1h-.1Zm-10.7-.5h-.1s0-.1.2 0l.3.3s.1-.2.2-.2 0 0 0 .1c-.2.2-.2.2 0 .3 0 0 .2-.1.3-.2h.2v.3c.2 0 .2 0 .2.2s-.3 0-.3.1v.4c-.2 0-.3-.6-.4-.7v.4-.3s0 .2-.1.2c0 0-.1 0 0-.2v-.2s0 .3-.1.3c0 0 0 .1.1.2 0 0 .3.3.2.3-.2 0-.2-.2-.3-.3-.1-.2-.2-.3-.3-.5V11c0-.3-.2 0-.3 0 0 0-.1.1-.2.1 0-.2.2-.2.2-.2.1 0 .2 0 .3.1v.4s.1-.2.1-.3V11c-.1-.2 0 0 .2 0 0 0-.1-.1-.1-.2Zm.6.6c.1-.3.5.3.2.3 0 0 0-.1-.2-.2Zm-2.2 2.2s0 .1-.1.2c.1.2 0 .2 0 .4.3.1 0 .3 0 .3s-.2-.1-.2-.2v-.3l-.1.2v.2l.2.2h-.3v.2h-.1s0 .1.1.2c0 0 .1.1.1.2 0 0-.1.1-.2 0 0 0-.1 0-.2-.1l-.4-.4-.2-.2v-.4c.2-.2.4 0 .4 0s-.1 0-.2.1c0 .1.2.2.3.2v.2h.1V14h-.2c-.2 0-.1-.2-.2-.3v-.3s.2-.1.3 0v.3s.2-.2.3 0c.1.1 0 .3 0 .3.2.1.5-.4.7-.4v.2Zm-1 .3v-.2zm.4.3v-.2h.2l-.2.3Zm7.7-1.5c.4 0 .7 0 1.1.2h.3c-.2 0-.5.3-.7.5-.7.5-.8.5-1.5 0-.2-.2-.4-.3-.7-.5 0 0 .5-.2.6-.2h.8Zm-11.2 7.3c0 1.7.4 3.1 1.1 4.5.2.4.3.6.5.9.1.2.4.6.6.8.2.3.4.5.6.8.1.1.2.2.3.4.5.5.9.9 1.5 1.3 0 0 .1 0 .2.1.6.4 1.3.8 2 1.1 3 1.3 6.3 1.2 9.2-.2.1 0 .6-.3.7-.4 0 0 .1 0 .2-.1.6-.4 1-.7 1.6-1.2.3-.2.5-.5.8-.8s.6-.7.8-1 .5-.7.7-1.1c0 0 0-.1.1-.2.2-.3.3-.6.5-.9.1-.3.3-.7.4-1 .9-2.7.6-5.8-.6-8.2-.3-.6-.4-.8-.8-1.3-.1-.2-.2-.3-.4-.5-.1-.2-.3-.3-.4-.5-.4-.5-1.1-1.2-1.6-1.6-.6-.5-1-.8-1.7-1.1-.6-.3-1.3-.6-2-.8-1.2-.4-2.3-.6-3.7-.5-1.7 0-3.2.4-4.5 1.1-.4.2-.6.3-.9.5s-.6.4-.8.6c0 0-.6.5-.7.5-.3.2-.5.4-.7.7-.2.2-.5.5-.7.8l-.2.2-.3.4s0 .1-.1.2l-.3.4c-.4.8-.8 1.6-1.1 2.4-.4 1.1-.6 2.5-.5 3.7ZM25.7 8.4c-.9 0-1.6.1-2.4.3q-1.8.45-3.3 1.5c-.1.1-.5.3-.6.4l-.2.2c-.1 0-.4.4-.6.5l-.5.5c-.1.1-.2.2-.3.4s-.3.4-.5.6c0 0 0 .1-.1.2-.4.5-.7 1.1-1 1.7 0 .2-.1.3-.2.5-.3.6-.5 1.4-.7 2.1-.3 1.6-.3 3.3.1 5 .3 1 .7 2 1.2 2.9 0 0 0 .1.1.2 0 0 0 .1.1.2.1.2.4.6.6.8 0 .1.5.6.6.7l.4.3.2.2c.1.1.4.4.6.5.3.2.4.4.8.6.6.4 1.2.7 1.8 1 1.4.6 3 .9 4.7.9 1.2 0 2.3-.3 3.5-.7.6-.2 1.3-.5 1.9-.9.3-.2.6-.4.8-.6 0 0 .1 0 .2-.1s.3-.2.4-.3l.2-.2c.1-.1.2-.2.4-.3.1-.1.2-.2.4-.3l.2-.2.2-.2c.3-.3.5-.6.8-1 .5-.6.8-1.3 1.1-2 .3-.6.5-1.4.7-2.1.6-3.1-.1-6.3-1.9-8.7-.2-.3-.4-.5-.6-.8l-.9-.9-.4-.3c-.8-.7-1.8-1.3-2.8-1.7-1.3-.5-3.1-.9-4.7-.9ZM14 19.1v1.5c0 .6.2 1.2.3 1.9.2.8.5 1.5.8 2.1.7 1.5 1.7 2.8 2.8 3.8 1.9 1.8 4.4 2.9 7 3.1H27c1-.1 2.1-.3 3-.7.4-.1.7-.3 1-.4.2 0 .3-.2.5-.2.4-.2.8-.4 1.2-.7l.2-.2c.3-.2.6-.4.8-.6.3-.2.9-.8 1.1-1.1.2-.2.4-.4.6-.7v-.1c0-.1.4-.5.5-.6.4-.5.7-1.1.9-1.6.6-1.3 1-2.6 1.1-4.1v-2c0-.6-.2-1.3-.3-1.9-.3-1.1-.5-1.7-1-2.7-.2-.3-.7-1.2-.9-1.5v-.1c-.3-.3-.5-.7-.8-1l-.3-.4c-.4-.4-.7-.7-1.2-1-1.8-1.4-4-2.3-6.3-2.5h-1.5c-.2 0-2.2 0-4.7 1.1-.9.4-1.7.9-2.5 1.5h-.2l-.4.3c-.4.3-.8.7-1.1 1.1-1.2 1.4-2 3-2.5 4.8-.2.6-.3 1.2-.3 1.9v.7ZM25.7 8c-2.1 0-3.9.6-5.5 1.6-.2.1-.5.3-.7.4 0 0-.1 0-.2.2-.2.2-.5.4-.7.6-1.2 1-1.9 1.9-2.6 3.3-.5.9-.9 2.1-1.1 3.2-.5 2.3-.2 4.6.7 6.8 0 .2.1.3.2.5.3.7.8 1.4 1.2 2 .1.2.3.4.5.6l.2.2c.1.1.4.4.5.6.1.1.2.2.4.3l.3.2h.1c.1.2.5.5.6.5l.4.3h.2c.5.3.9.5 1.4.7.6.3 1.4.5 2.2.7 2.5.5 5.1.2 7.3-.9.8-.4 1.2-.7 1.9-1.1.3-.2.8-.6 1.1-.9.5-.5.9-1 1.3-1.5.3-.4.6-.8.8-1.3.2-.3.3-.6.5-1 .6-1.5 1-3.2.9-4.8 0-2-.7-4-1.6-5.5-.1-.2-.3-.4-.4-.7l-.3-.4c-.3-.4-.5-.6-.8-1-.3-.3-.8-.8-1.1-1s-.5-.4-.8-.6c0 0-.1 0-.2-.1 0 0-.1 0-.2-.1-1.1-.7-2.3-1.1-3.6-1.4-.9-.2-1.8-.3-2.6-.2Zm-7.9 11.8c0 1.6.5 2.8 1.2 4 0 .1.3.5.4.6.2.2.3.4.5.6.5.6 1.1 1 1.7 1.4 1.4.9 3.1 1.4 4.8 1.4 4.6-.2 8.1-4 8-8.6 0-1.4-.5-2.8-1.2-4-.3-.5-.9-1.3-1.4-1.7-.2-.2-.5-.5-.7-.6l-.5-.3c-2.4-1.6-5.5-1.8-8.2-.5-.2.1-.5.2-.7.4h-.2s-.1 0-.2.1c-.3.2-.6.4-.9.7-.1 0-.4.4-.5.5l-.2.3c-.4.5-.8 1-1.1 1.5-.1.2-.2.4-.3.7-.4 1-.7 2.3-.6 3.5Zm3.7 5.5c0-.1 0-.4.1-.9q.15-.75.6-1.5c.2-.3.5-.9.7-1.1.1-.1.4-.7.5-.8.2-.3.4-.7.4-1.1v-.5l-.5.3c-.6.3-.9.5-1.6.8-.9.3-1.8.5-2.7.4 0-.2.2-.4.3-.6.4-.6.8-.8 1.5-1 .4-.1.9-.3 1.3-.4.3-.1.6-.2.9-.4 0 0 .2 0 .3-.1 0-.2-.2-.2-.3-.6-.5-1.5 1.1-3 .4-4.2 0 0-.1-.2-.2-.3V13c.3-.1 1 .2 1.1.6.2.4 0 1.1-.1 1.5-.2.6-.5 1.4-.5 2.1 0 .2 0 .5.2.6l.1-.1c.2-.1.3-.3.5-.4.5-.4 1.2-1.2 1.4-1.8 0 0 0 .2.2.4.3.5.7 1 1.1 1.4.1.1.6.6.8.6.1-.2.2-.3.2-.7 0-1.1-1-2.7-.6-3.6 0-.2.2-.3.4-.4.4-.2 1.1-.2.7.3v.1c-.7 1.2.9 2.7.4 4.2 0 .3-.2.4-.3.6.3.2.8.4 1.2.5s.9.3 1.3.4c.2 0 .4.1.6.2.4.2.6.4.9.8 0 0 .3.5.3.6-.9 0-1.8-.1-2.7-.4-.6-.2-1.1-.5-1.6-.8l-.5-.3c-.1.2 0 .7 0 .9.1.4.4.8.6 1.2.2.3.3.5.5.8.1.2.3.4.4.6s.2.4.3.7c.1.2.2.5.3.8v.9h.8c.3 0 .2 0 .5-.3.2-.2.6-.7.7-.9l.2-.3c.3-.5.6-1.1.8-1.7.6-1.7.5-3.7-.1-5.3-.3-.7-.7-1.4-1.1-2-.3-.4-.7-.8-1.1-1.2l-.3-.3c-.3-.3-.7-.5-1.1-.7-1.2-.6-2.4-.9-3.8-.9-1.3 0-2.6.3-3.7 1-.5.3-1 .6-1.4 1l-.4.4c-.8.8-1.4 1.8-1.8 2.9-.6 1.7-.7 3.6 0 5.3.4 1.2 1 2.1 1.8 2.9l.2.2.2.2h.8Zm3.1-6.6s.3-.3.4-.3l.2-.2.2-.2c.2-.2.5-.7.7-.7.1 0 .3.2.4.3s.2.2.3.4c.1.1.2.2.3.4l.4.3c0 .1-.1.2-.2.4-.4.9 0 1.7.5 2.5l.3.5s0 .1.1.2c0 .1.1.2.2.3.1.2.2.5.3.7.2.5.3 1.3.2 1.9H26h1.8-.1c-.4-.2-.7-.2-.9-.3h2-3.9l1 .2c.1 0 .3 0 .3.1-.1.2-.7.2-.9.2h-1 .9c0 .1-1.9.1-1.9.1-.1-1.1 0-1.8.5-2.7.2-.4.6-.9.8-1.4.5-.8.7-1.5.2-2.3v-.2Zm2.8 7.2h.3c.7 0 1.5 0 2.2-.2h-2.2 3.6s-.6.5-.7.6l-.3.2h-1.8c-.4-.1-.7-.2-1-.2Zm-6.6-.5s.7.6.8.6l2.7-.2c.4 0 .9 0 1.3-.1-.1 0-.4 0-.6-.1-1 0-2.1-.1-3.1-.2h-1.2Zm6.1 1c.2-.2.4 0 .4.3 0 .4-.4.4-.5.2s-.1-.5 0-.7c0 0 .1-.2.3-.2.1 0 .2.1.2.2h-.1v-.1c-.1 0-.2 0-.2.3Zm-.8-.1h.4v.4c-.1.3-.6.2-.5-.1h.1c0 .1 0 .2.2.2s.2-.4 0-.5zH26v-.5h.5c0 .1-.4.1-.4.1v.3Zm-1.8-.2h.2V26v1h-.1v-.8h-.2Zm-2.4.1c.2 0 2.1.3 2.1.3h-1.2c-.3 0-.2 0-.5-.1zm3.2.5h.1c0 .3.3.2.3-.2h-.3c-.2 0-.2-.5 0-.6h.3c.1.2.1.9-.3.9-.1 0-.2-.1-.2-.2Zm88 .1v-.7l-.6-1h.4l.4.7.4-.7h.4l-.6 1v.7h-.3Zm-1.7-.6v-.3h.7v.7s-.2.1-.3.2h-.4c-.2 0-.3 0-.4-.1-.1 0-.2-.2-.3-.3V26c0-.2 0-.3.1-.5 0-.1.2-.2.3-.3h.4c.2 0 .4 0 .5.1.1 0 .2.2.2.4h-.3l-.1-.1h-.2c-.1 0-.3 0-.3.1 0 0-.1.2-.1.4s0 .3.1.4c0 0 .2.2.3.1.1 0 .3 0 .4-.1v-.2h-.4Zm-2.5-.3c0 .2 0 .3.1.4 0 0 .2.1.3.1s.2 0 .3-.1c0 0 .1-.2.1-.4s0-.3-.1-.4c0 0-.2-.1-.3-.1s-.2 0-.3.1c0 0-.1.2-.1.4m-.4.1v-.4s0-.2.2-.2l.2-.2h.4c.2 0 .4 0 .6.2.1.2.2.4.2.6s0 .5-.2.6c-.1.2-.3.2-.6.2s-.4 0-.6-.2c-.1-.2-.2-.4-.2-.6m-1.5.8v-1.6h.3v1.4h.8v.3H107Zm-1.8-.9c0 .2 0 .3.1.4 0 0 .2.1.3.1s.2 0 .3-.1c0 0 .1-.2.1-.4s0-.3-.1-.4c0 0-.2-.1-.3-.1s-.2 0-.3.1c0 0-.1.2-.1.4m-.3.1v-.4s0-.2.2-.2l.2-.2h.4c.2 0 .4 0 .6.2.1.2.2.4.2.6s0 .5-.2.6c-.1.2-.3.2-.6.2s-.4 0-.6-.2c-.1-.2-.2-.4-.2-.6m-1.8.8v-1.7h.3l.7 1.1v-1.1h.3v1.7h-.3l-.7-1.1v1.1zm-1.9 0v-1.7h.3v.7h.6v-.7h.3v1.7h-.3v-.7h-.6v.7zm-.9-.6h.3c0 .3-.1.4-.2.5-.1 0-.3.1-.4.1-.2 0-.4 0-.5-.2s-.2-.4-.2-.6 0-.5.2-.6c.1-.2.3-.2.6-.2.2 0 .4 0 .5.2 0 0 .1.2.2.3h-.3l-.1-.1h-.2c-.1 0-.2 0-.3.1 0 0-.1.2-.1.4s0 .4.1.4c0 0 .2.1.3.1h.2s.1-.2.1-.3Zm-4.1.6v-1.4h-.5v-.3H97v.3h-.5v1.4zm1.3 0v-1.7h1.2v.3h-.9v.4h.8v.3h-.8v.4h.9v.3zm-4.3-1.4v1.1h.5v-1h-.6Zm-.3-.3h.9s.2 0 .2.2.1.2.2.3v.8c0 .1 0 .2-.2.3 0 0-.1.1-.2.1h-.9zM91 26.8v-1.7h.3l.7 1.1v-1.1h.3v1.7H92l-.7-1.1v1.1zm-1-.7-.2-.6-.2.6zm.6.7h-.4v-.4h-.8v.4h-.5l.6-1.7h.3l.7 1.7Zm-4.2 0v-1.7h1.2v.3h-.9v.4h.8v.3h-.8v.4h.9v.3zm-.9-.6h.3c0 .3-.1.4-.2.5-.1 0-.3.1-.4.1-.2 0-.4 0-.5-.2s-.2-.4-.2-.6 0-.5.2-.6c.1-.2.3-.2.6-.2.2 0 .4 0 .5.2 0 0 .1.2.2.3h-.3l-.1-.1h-.2c-.1 0-.2 0-.3.1 0 0-.1.2-.1.4s0 .4.1.4c0 0 .2.1.3.1h.2s.1-.2.1-.3Zm-2.9.6v-1.7h.3l.7 1.1v-1.1h.3v1.7h-.3l-.7-1.1v1.1zm-1.8 0v-1.7H82v.3h-.9v.4h.8v.3h-.8v.4h.9v.3zm-.9-1.7h.3v1.7h-.3zm-.8 1.1h.3c0 .3-.1.4-.2.5-.1 0-.3.1-.4.1-.2 0-.4 0-.5-.2s-.2-.4-.2-.6 0-.5.2-.6c.1-.2.3-.2.6-.2.2 0 .4 0 .5.2 0 0 .1.2.2.3h-.3l-.1-.1H79c-.1 0-.2 0-.3.1 0 0-.1.2-.1.4s0 .4.1.4c0 0 .2.1.3.1h.2s.1-.2.1-.3Zm-2.9 0h.3s0 .2.1.2h.4v-.2h-.4c-.2 0-.3 0-.4-.2 0 0-.2-.2-.2-.3 0-.2.1-.3.3-.4h.3c.2 0 .4 0 .5.1.1 0 .2.2.2.4H77v-.2h-.4v.1s.1 0 .3.1c.2 0 .3 0 .4.1 0 0 .1 0 .2.2v.3c0 .2-.1.4-.3.5h-.4c-.2 0-.4 0-.5-.1-.1 0-.2-.2-.2-.4Zm-2.6.6v-1.7h1.1v.3h-.8v.4h.7v.3h-.7v.7zm-1.8-.9c0 .2 0 .3.1.4 0 0 .2.1.3.1s.2 0 .3-.1c0 0 .1-.2.1-.4s0-.3-.1-.4c0 0-.2-.1-.3-.1s-.2 0-.3.1c0 0-.1.2-.1.4m-.3.1v-.4s0-.2.2-.2l.2-.2h.4c.2 0 .4 0 .6.2.1.2.2.4.2.6s0 .5-.2.6c-.1.2-.3.2-.6.2s-.4 0-.6-.2c-.1-.2-.2-.4-.2-.6m-2.8.8v-1.7h1.2v.3H69v.4h.8v.3H69v.4h.9v.3zm-1.3 0v-1.4h-.5v-.3h1.3v.3h-.5v1.4zm-2.2-1.7h.3v1.4h.4v-1.3h.3v1.5s-.1.1-.2.1h-.7s-.1 0-.2-.1v-1.5Zm-1.3 1.7v-1.4h-.5v-.3h1.3v.3h-.5v1.4zm-1.3-1.7h.3v1.7h-.3zm-1.2 1.7v-1.4h-.5v-.3h1.3v.3h-.5v1.4zm-2.2-.6h.3s0 .2.1.2h.4v-.2h-.4c-.2 0-.3 0-.4-.2 0 0-.2-.2-.2-.3 0-.2.1-.3.3-.4h.3c.2 0 .4 0 .5.1.1 0 .2.2.2.4H60v-.2h-.4v.1s.1 0 .3.1c.2 0 .3 0 .4.1 0 0 .1 0 .2.2v.3c0 .2-.1.4-.3.5h-.4c-.2 0-.4 0-.5-.1-.1 0-.2-.2-.2-.4Zm-1.8.6v-1.7h.3l.7 1.1v-1.1h.3v1.7h-.3l-.7-1.1v1.1zm-.9-1.7h.3v1.7h-.3zm-2.6 1.1v-.3h.7v.7s-.2.1-.3.2h-.4c-.2 0-.3 0-.4-.1-.1 0-.2-.2-.3-.3V26c0-.2 0-.3.1-.5 0-.1.2-.2.3-.3h.4c.2 0 .4 0 .5.1.1 0 .2.2.2.4h-.3l-.1-.1h-.2c-.1 0-.3 0-.3.1 0 0-.1.2-.1.4s0 .3.1.4c0 0 .2.2.3.1h.4v-.2h-.4Zm-2.6.6v-1.7h.3l.7 1.1v-1.1h.3v1.7h-.3l-.7-1.1v1.1zm-1.1-.7-.2-.6-.2.6zm.6.7h-.4v-.4h-.8v.4h-.5l.6-1.7h.3l.7 1.7Zm-2.6 0v-.7l-.6-1h.4l.4.7.4-.7h.4l-.6 1v.7h-.3Zm-2.1-.9c0 .2 0 .3.1.4 0 0 .2.1.3.1s.2 0 .3-.1c0 0 .1-.2.1-.4s0-.3-.1-.4c0 0-.2-.1-.3-.1s-.2 0-.3.1c0 0-.1.2-.1.4m-.4.1v-.4s0-.2.2-.2l.2-.2h.4c.2 0 .4 0 .6.2.1.2.2.4.2.6s0 .5-.2.6c-.1.2-.3.2-.6.2s-.4 0-.6-.2-.2-.4-.2-.6m-1.8-.9h.3v1.4h.4v-1.3h.3v1.5s-.1.1-.2.1H44c-.1 0-.2-.2-.3-.3v-1.3Zm-1.6 1.7v-1.6h.3v1.4h.8v.3h-1.2Zm3.2-10.7c.3.7.6.6 1.2.9-.3.7-1.8 2-1.9 2.1 0 0 0-.4-.2-.7l-.5-.5c0-.6.3-1.3.1-1.9-.2-.7-.6-.7-.4-1.6.5-.1.5-.2.8.1 1.3 1 1.2-.6.9-1.2-.3-.5-.7-.7-1.3-.7.3 1.1-.6 1.3-1.4 1.9-.8.7-.6 5-.6 6.5 0 1.2.5 2.2 1.7 1.7.3-.9 0-1.6.5-2.8 0 .6 0 .5.2.8.9-.1.5-.8 1.4-1 .2.6 0 1.8 1.1 2.1 0-.6-.2-1.3-.1-1.7.4-.6 1.4-1 2.4-.9-.2.7-2.4 1.1-1.8 2.6.3.6.8.6 1.8.6.7-1 .1-.5 0-1.5 2.5-1.1 1.2-1.6 1.8-1.8 1 0 1.7.2 2.2-.5-.4-1.5-3.1-1-4-1.4-.4-.2-.9-.4-1.1-.8 0 0 1.2-.7 1.3-1.2.2-1.1-.9-1.1-1.2-1.2h-.2c.4-.9 1.9-.4 1.4-1.9-.1-.3-.5-.7-.9-.8-1-.1-.3.3-.8.9-.3.3-.4.1-1.2 1.1-.4.5-1.1 1.1-1.2 1.6-.1.7.3.5-.2 1-.5.6.2-.5-.1.2Zm1.1 0c.4-.3.8-.5 1.5-.6-.1.2 0 0-.2.2 0 0-.2.1-.2.2-.1.1-.2.2-.3.4zm.3 2.7c.2-1.6 2.2-1.2 2.3-.3-1.8 0-1.7.3-2.3.3m13.3-6.4c.1.3.1.2.7.6v1.5c-.6-.1-.3-.8-1-1-.3.3-.7 1.6-.8 2.2-.1.4 0 .2 0 .7-.6.2-.7.4-1.3.6.4-.9 2-1.7.8-3.1-.4-.5-.9-.6-1.7-.6-.7 0-1.7-.1-2.3 0 .9 1.8 4.2-.8 2.9 2.2-.4-.1-.3-.3-.6-.4-1 .9-1.1 2.5-1.2 3.4-.1 1.1-.9 2.6.3 3.4.9-.4.3-3.1.8-3.6h.3c.1 0 0 .2.5-.1l1.7-.8c-1 .9-2.4.9-1.5 2.2.6-.2.8-.6 1.6-.7-.6.9-1.1.8-1.2 2.2 1-.2 1.5-1.1 2-1.7 0 .2-.8 1.9-1 2.3-.3.8-1 1.6-.5 2.6.9.1.5-1 1.4-2.6.2 0 1.4 1.6 2.4.4.4-.6.5-1.6.7-2 .2-.6 0 0 .4-.6 0-.8-.5-1.2-1-1.5-.5-.2-1.6-.2-2.2-.2.3-.4.3-.2.8-.2.2-1.5.5-1.1 2-1.2.8 0 .6-.2.7-.3-.5-.6-1.2-.4-2.1-.3 0-.8.3-1.8.3-2.5 0-1.3-1.5-.7-1.6-.6ZM60 16c0-.3.2-.7.4-.9l.4.2c-.2.3-.4.5-.8.7m-2.6.9s.5-.2.2 0c0 0-.3.3-.2 0m3.3 3.2c.1-.4.3-.2.4-.6.2-.5-.2-.9 0-1.3.7-.2 1 .5.7 1.3-.5 1.5-1.3 1.1-1.2.6Zm6.5-6.3c-.1.8 1 1 1.7.7l-.6 1.9h-.8c0 1.2 1 .4.2 2.7-.4 1-1 2.1 0 2.7.6-.3.7-.5 1.2-1.6.2-.5.2-.4.5-.9l.6-.9c.7 1.6.6 1 2 .6.5-.2.5-.3.7.3-.6.5-1.5.3-1.4 1.9.2 1.8 3.5.6 3.5.6 0-.6 0-.7-.3-1-.2-.1-.2-.2-.5-.2l-.5-.2c.5-.2.6-.5 1.2-.7.8-.3.8-.2 1.1-1-1.1-1.4-1.6-.6-2.4-1.1.1-.8.3-.1.8-.8.3-.4.2-.5.7-.9.1-.1.3-.2.4-.4.2-.3.1-.3.3-.5.4-.5.6 0 .8-.9-.2-1-1.4-1.5-2.6-1.4-1 0-2.5.5-2.8 1.2 1.3.4.9.3 1.8-.2.5-.3 2.1-.4 2 .1l-.3.6c-.3.4-.3.5-.7.6-.4-.8 0-1.2-.8-1.3 0 .4-.1.6-.3.9h-1c0 1 1.2.5.6 1.4-.3 0-.5 0-.9-1-.2-.6-.4-1-.9-1.1-.5.7.5 2.2 1 2.8.4.4.4.3.8.6 0 .7-.2.6-.8.8s-.5.3-1.5.3c.1-.5.5-1.1.1-1.6-.4.2-.5.8-.7 1.2-.1-.2 0 0-.1-.3v-.3c-.3-1.4.3-3.2 1.5-3.9 0-.5 0-.8-.5-.9-.7-.1-.4.2-2 .9-.5.2-.9.1-1.2.3Zm6.3 1.6h.4c-.2.4-.2.2-.5.6v-.6zm20.3-3.1c-.6-.2-.8-.6-1.2 0l-.2.3c-.1-.5-.2-.6-.7-.8-.1.6 0 .8.1 1.5.2.7.2.9 1 1l.4-1.4c.4 0 .8 0 1.1.2-.5.9-1.4 1.7-2.5 2l-.3-.8c-.5.1-.3.1-.6.6-.3.6 0 .3-.6.6 0 2.5-1.7 3.2-.1 4.2.6-.9.2-2.9 1.4-3.3.4.4.2 1.3 1.2 1.2.8 0 1.1-.6 1.7-.8l-.3 1.2c-.7.4-1.1.2-1.6.4-.2.6 0 1.2.4 1.5.5.3 1.2 0 1.8 0 0 .4 0 1.3-.3 1.6 0 0 0 .2-.6.1-.4 0-1.2-.4-1.4-.7v-.5l-.6.8c.4 1.5 3.1 2.3 3.3 2.2.4-.4.4-.9.5-1.6 0-.9.1-1.2.3-2 .8-.2 1.6-.3 1.5-1.3 0-1.1-1.1-.6-1.9-.7.1-.4.2-.5.4-.7.3-.4.2-.4.7-.6 0 0 2.9-.4 1.5-1.7-.2-.2-.1-.1-.4-.2-1.2-.5-1.5-.3-2.6-.4.4-.6 1.3-1.3 1.3-2.4l-1-.7c-.8.5-.9.8-1.5 1.5Zm.7.6c.7-1.3.2-1.4.9-1.8.3.8-.6 1.4-.9 1.8m-2.1 3.6c0-.6-.1-.4.3-.6s.9-.2 1.1-.3l.5-.3c.5-.4 1.4-.7 2.1-.3-.1.4-.2.3-.3.6-1.2 0-1-.2-1.9.3-.5.2-1.1.4-1.7.5Zm15.9-3.5-2.9 1.4c.1.5.7.9 1.1.4l.7 1v.1c-.7.3-.5.5-1.5 1.3-.9.8-.9.3-.8 1.8l.9-.3c-.2.4-1.6 1.6-.5 2.4.3 0 .3-.1.8-.6.3-.3 1-1.7 2.1-2.3 0 1.6-.5 2.3.6 3.1.7.5 2.2.3 3.1 0s1.7-.8 1.9-1.8c.2-.9 0-.8-.2-1.4-.4-.9.2-.9-.7-1.3-.4.7-.4 3.5-2.8 3.7-1.2 0-1.3-1-1-2l.3-1.1c.2-.4.7 0 .2-1.1h-.9c.6-.6 0-.7.9-1 .7-.2.9-.2 1.2-.8.5-1.2-1.1-1.3-2.1-1.4.9-.8-.3-1.4-1.3-1.4 0 .7.1.8.5 1.2l.3.3Zm-1.2 1.4c.6-.5 1.5-.7 2.4-.6-.1.4-.4.5-.7.7-.7.4-1.1.9-1.7 0Zm-25.8 1.3c0 .7-.3.9-.6 1.4l-1.1 1.1c0 1.1.3 2.3 1.3 2.5 0 0 4.2 0 4.7-1 .1-.3-.1-1.2-.2-1.5-.5-1-2.1-.2-3.1-.2.2-.8 1.2-1.9 1.8-2.3.3-.2.7-.4.8-1.4 0-.7-.4-1.1-.8-1.4-1.2-.6-1.9.8-3.1.8-1.9 0-.5 1.4.3 2m19.8-2.7h1.6c.8 0 .7-.2 1.3-.4 0 .4-.2.8-.4 1.2-.4.8-.4.1-.9.8-.9 1.1-.8 3.2-1 3.8-.1.7-.5 2.2-.2 2.8.2.4.6.6.9.5.9-.4.2-2.3.8-4.8.2.2.3.5.7.6.2-.5.2-2 .2-2.7 0-1.6.9-1.3 1.2-2 .4-.8-1.1-1.1-1.9-.9l-1.8.5c-.7.2-.4 0-.6.4Z" style="fill:#004097;fill-rule:evenodd" id="_图层_1" data-name="图层_1"/></svg>