<svg width="128" height="137" fill="none" xmlns="http://www.w3.org/2000/svg"><g filter="url(#a)" fill-rule="evenodd" clip-rule="evenodd" fill="#d7000f"><path d="M63.999 20c12.15 0 23.151 4.928 31.113 12.89C103.074 40.85 108 51.85 108 64s-4.926 23.151-12.887 31.113C87.15 103.075 76.15 108 64 108s-23.151-4.926-31.113-12.887S20 76.151 20 64.003c0-12.15 4.926-23.152 12.887-31.114C40.85 24.927 51.85 20 64 20Zm.002.977c-11.877 0-22.634 4.818-30.42 12.604-7.788 7.787-12.605 18.543-12.605 30.42 0 11.876 4.817 22.633 12.604 30.42S52.123 107.025 64 107.025c11.876 0 22.633-4.817 30.42-12.604 7.786-7.787 12.604-18.543 12.604-30.42 0-11.876-4.817-22.633-12.604-30.42C86.633 25.796 75.877 20.978 64 20.978Z"/><path d="M63.999 31.154c9.07 0 17.283 3.678 23.226 9.621C93.17 46.72 96.845 54.93 96.845 64s-3.676 17.284-9.62 23.227-14.154 9.62-23.224 9.62-17.284-3.677-23.227-9.62c-5.943-5.944-9.62-14.155-9.62-23.225s3.677-17.283 9.62-23.227S54.93 31.154 64 31.154Zm.001.976c-8.797 0-16.765 3.569-22.534 9.337-5.769 5.769-9.337 13.736-9.337 22.534 0 8.796 3.568 16.765 9.337 22.534 5.768 5.768 13.736 9.337 22.533 9.337s16.766-3.569 22.534-9.337c5.769-5.769 9.337-13.736 9.337-22.534s-3.568-16.765-9.336-22.533C80.765 35.698 72.798 32.13 64 32.13"/><path d="M72.712 70.208h9.129v6.017h-6.41a2.72 2.72 0 0 1-2.719-2.708zm9.572-24.283H52.593s-1.828.09-1.936 2.37 0 28.628 0 28.628-.392 4.866 5.258 5.572h9.624s1.087.041 1.99-.784c.905-.826 1.872-2.563 1.872-2.563s.413 2.955 2.297 3.269c1.883.314 11.074 0 11.074 0l-6.296 6.211h-7.131s-1.93-.16-2.443-2.713c0 0-.71 2.267-2.18 2.545-1.471.277-13.83 0-13.83 0s-6.12-.314-6.12-7.613V45.533s0-5.808 5.65-5.808h25.976zm-9.572 18.336h9.129v-6.363h-9.129zm-15.63 0h9.613v-6.363h-9.612zm0 5.947h9.613v3.31c0 1.489-1.288 2.707-2.863 2.707h-5.318c-.787 0-1.431-.889-1.431-1.633zM46.61 96.248l-1.617-.863-.648 1.228 1.617.863.16-.287.487-.94Zm2.449.595a21 21 0 0 1 .601.266q.06.032.032.087a113 113 0 0 0-1.332 2.567q-.042.08-.126.034l-.513-.274q-.072-.039-.03-.117l.122-.23-1.544-.823a86 86 0 0 0-.696 1.333q-.358.7-.366.743-.033.09-.093.058l-.61-.325q-.053-.029.004-.107l1.146-2.03-1.605-.857-.141.265a.6.6 0 0 1-.061.1q-.045.038-.104.006l-.213-.11-.2-.103a.7.7 0 0 1-.136-.088q-.045-.039.041-.156a3 3 0 0 0 .222-.358q.15-.265.487-.898l.68-1.273q.06-.115.133-.076l.532.353 1.605.857.478-.97a1 1 0 0 1 .053-.142q.039-.072.099-.04.219.125.435.26.214.133.231.205.008.042-.07.102t-.165.12l-.434.8zm-.95 1.779.654-1.224-1.544-.825-.512.944-.148.278zm5.298-.024-1.14-.26-.345 1.514 1.015.252a10 10 0 0 0 .47-1.506m2.192-.145.483.068q.06.014.043.087a183 183 0 0 0-.46 2.083l.67.132.114.025q.066.016.05.061l-.131.573q-.003.042-.018.045a.2.2 0 0 1-.074-.01l-.094-.021-2.234-.565q.126.464.242.753.117.29.226.454.235.356.67.693a5 5 0 0 0 .984.575l-.072.13q-.034.028-.577.346-.105.06-.752-.424-.705-.533-.935-1.005a6 6 0 0 1-.307-.758 3.5 3.5 0 0 1-.155-.722q-.553.828-1.373 1.286a3.5 3.5 0 0 1-1.26.421q-.542.073-.572-.011a2.5 2.5 0 0 0-.22-.387q-.141-.214-.129-.268.005-.02.048-.024.106.024.533-.033a3.8 3.8 0 0 0 1.177-.335q.746-.348 1.179-.986a35 35 0 0 0-.987-.208l-1.232-.242-.107-.024q-.037-.015-.027-.062l.129-.567q.012-.054.085-.037l.074.017.688.178.468-2.053q.027-.12.101-.103.24.054.399.112.158.057.16.078l1.147.262.134-.713-.015-.179q.015-.066.133-.089l.113.026q.06.015.161.03a3 3 0 0 1 .343.095q.137.05.126.096a.3.3 0 0 1-.055.103q-.045.056-.092.109l-.155.68zm-.592 2.109.346-1.52-1.253-.285a11 11 0 0 1-.47 1.513zm5.82-.032-1.613-.06-.027.738 1.692.117-.039-.425a3 3 0 0 1-.014-.37Zm2.165-1.932.452-.01q.06.002.059.064-.064 1.721-.036 1.9.01.096-.093.093l-.526-.02-.054-.022-1.277-.048a7 7 0 0 0 .018.801q.39.015.745.014 1.239-.002 1.3.001l.137-.002q.054.002.046.049l-.022.595q.013.048-.057.046l-.13-.005-1.938-.12a4 4 0 0 0 .152.512q.193.513.604.871.617.536.825.441.09-.052.14-.453a1 1 0 0 1 .016-.16q.014-.093.062-.091.16.096.312.169.15.075.301.08.02 0 .019.062-.01.246-.21.69-.232.504-.424.518-.212.02-.623-.16a3 3 0 0 1-.948-.63 2.83 2.83 0 0 1-.74-1.245 7 7 0 0 1-.142-.628l-1.805-.019-.064 1.715q.53-.07.992-.169a61 61 0 0 0 1.035-.249q.02-.006.061.009a.02.02 0 0 0 .014.008l-.023.608q-.002.054-.05.059-.58.123-1.145.238a21 21 0 0 1-1.198.209l-.07.039a1 1 0 0 1-.166.055q-.096.016-.228-.309-.13-.327-.083-.352.064-.039.116-.352l.033-.895.06-1.595q.037-1.015.088-2.21a1 1 0 0 0-.01-.182 1 1 0 0 1-.014-.1q0-.02.09-.017a2 2 0 0 1 .327.047zm-.195 1.375.028-.751-3.553-.132-.035.751zm3.257-.062-.448.053-.096.009q-.06.005-.065-.043l-.054-.613q-.004-.047.05-.052l.103-.009q.136-.012.615-.033.478-.021.648-.036.198-.018.618-.075t.544-.068l.142-.02q.054-.004.052.044l.055.627q.01.046-.044.052-.075 0-.143.005-.184.016-.639.039c-.455.023-.48.025-.53.029l-.101.009a6 6 0 0 0 .024.746l.722-.063.492-.105q.027-.003.058.359.057.647.077 1.695t-.032 1.321a.76.76 0 0 1-.38.513 1.3 1.3 0 0 1-.549.172q-.224.02-.243-.034l-.119-.302a2 2 0 0 0-.099-.228q-.008-.02.005-.028a.14.14 0 0 1 .054-.011 2 2 0 0 1 .133-.005l.12-.004a.7.7 0 0 0 .249-.056.43.43 0 0 0 .195-.196q.116-.243.063-1.405a26 26 0 0 0-.072-1.051l-.62.055.006.061q.03.347.014 1.059a8 8 0 0 1-.09 1.137q-.095.557-.199.861a4 4 0 0 0-.137.239 1.3 1.3 0 0 0-.354-.209 2 2 0 0 1-.243-.103 2 2 0 0 0 .137-.32 5 5 0 0 0 .156-.656 6 6 0 0 0 .078-.864q.015-.493-.046-1.194zm1.134-.922a1.5 1.5 0 0 1-.327.104q-.209.045-.275.072-.047.018-.09-.095a5 5 0 0 0-.404-.843l.004-.035q.059-.033.274-.079t.301-.088l.05.01q.207.33.363.63.158.298.104.324m2.697 1.335.505-.037q.19-.017.51-.058.319-.042.448-.053l.081-.014q.04-.003.038.044l.051.579q.01.048-.043.052-.049-.002-.07-.001a6 6 0 0 1-.399.018q-.27.007-.36.014l-.063.13a13 13 0 0 0 .04.703q.355-.031.64-.073l.602-.091.143-.019q.034-.003.031.045l.053.606q.01.048-.043.052a49 49 0 0 0-.668.018 9 9 0 0 0-.53.032q.115.279.186.389.161.267.396.446t.536.323q.093.048.25.109.045.05.048.085.005.061-.069.15-.23.267-.259.338-.17-.06-.339-.114a3.6 3.6 0 0 1-.554-.377 2 2 0 0 1-.288-.301 3 3 0 0 1-.253-.386 2.06 2.06 0 0 1-.548.872 2.4 2.4 0 0 1-.667.456q-.317.144-.363.093a8 8 0 0 0-.318-.336q-.12-.119-.123-.16-.005-.042.13-.08.34-.12.523-.225.562-.323.75-.827.018-.05.046-.148a1.4 1.4 0 0 0 .045-.23q-.375.031-.67.075l-.517.076-.09.008q-.054.005-.058-.043l-.052-.592q-.004-.055.036-.058a71 71 0 0 0 .794-.025q.363-.015.594-.035l-.03-.358a7 7 0 0 1-.022-.317 1 1 0 0 0-.019-.136l-.257.037q-.255.633-.43.648a.2.2 0 0 1-.056-.009 6 6 0 0 0-.304-.138 2 2 0 0 0-.202-.071q.072-.123.195-.326c.123-.203.146-.274.193-.415q.206-.636.195-.752a1 1 0 0 1-.023-.114q-.007-.082.101-.091.102-.009.471.123.22.077.224.131.004.048-.078.131a.3.3 0 0 1-.044.038zm-.631-1.571 1.045-.057q.279-.024.537-.058a33 33 0 0 0 .732-.101q.041-.004.039.045l.055.633q.01.047-.037.051-.062 0-.116.003-.11.01-.547.028t-.608.032q-.265.023-.55.062-.285.04-.672.086l-.028.078q-.08.33-.258.695-.177.366-.246.358-.07-.008-.35-.141a.7.7 0 0 0-.239-.068l.217-.43q.165-.318.245-.616.08-.299.136-.591a1.7 1.7 0 0 0 .046-.423 1 1 0 0 1-.035-.169q-.004-.047.03-.05.129-.012.44.013.31.024.317.099a.3.3 0 0 1-.036.137l-.088.169zm6.894-.516q.372-.115.942-.31 1.326-.456 1.45-.493.085-.028.111-.034.039-.011.048-.008.015.002.02.044l.183.595q.022.05-.03.066a45 45 0 0 1-1.243.352q-.833.226-1.206.34.302.515.602.845.236.256.55.49.417.308 1.006.507.432.147.905.224.231.03.468.057a7 7 0 0 0-.019.291 3 3 0 0 1-.26.524q-.03.044-.486-.066a6 6 0 0 1-1.055-.364 4 4 0 0 1-1.113-.718 6 6 0 0 1-.692-.79l-.003.201a4.5 4.5 0 0 1-.482 1.836 4.1 4.1 0 0 1-.815 1.099q-.404.388-.47.337a6 6 0 0 0-.389-.246q-.237-.142-.254-.201-.009-.026.027-.051.084-.026.415-.327.485-.449.785-.984.436-.776.457-1.662.011-.36-.028-.75l-2.205.74-.085.025q-.052.016-.069-.036l-.18-.589q-.018-.059.054-.08l.066-.02 2.334-.643q-.065-.33-.139-.629a10 10 0 0 0-.272-.925.2.2 0 0 0-.033-.061 1 1 0 0 1-.064-.095q-.021-.066.066-.135.033-.008.046-.014a1 1 0 0 0 .115-.042q.255-.078.425-.108.168-.03.185.022.015.052.011.153a1 1 0 0 0-.002.108l.107.468q.114.516.216 1.056Zm5.182-2.75a2 2 0 0 1-.17.209q-.241.262-.266.305l-.382-.297a7 7 0 0 0-.547-.427l-.016-.046a1 1 0 0 1 .124-.163q.213-.246.25-.31a.3.3 0 0 1 .06-.016q.33.184.66.435.326.251.288.31Zm1.327-.89a1.3 1.3 0 0 1-.2.178q-.308.225-.323.241-.03.03-.299-.255a5 5 0 0 0-.581-.524l-.013-.04a1.3 1.3 0 0 1 .228-.178q.186-.125.268-.22l.051-.004a10 10 0 0 1 .628.51q.28.247.24.291Zm2.119-.375.39-.229q.054-.029.082.027l.336.658q.173.341.297.508.052.074-.039.12l-.47.239q-.066.033-.106-.045l-.332-.652-4.113 2.095.308.603.043.085q.007.044-.06.077l-.209.11a5 5 0 0 1-.196.104.5.5 0 0 1-.11.041q-.055.013-.087-.094-.04-.156-.53-1.118-.048-.092.02-.126l.335-.14zm-.657-1.154q.007.043-.036.103t-.042.075l-.07.765a2 2 0 0 1-.097.467q-.07.2-.14.199l-.637-.044.048-.209q.12-.29.152-.5a4 4 0 0 0 .029-.356 1.7 1.7 0 0 0-.01-.328 1 1 0 0 1-.037-.104q-.013-.055.047-.101.04-.028.407-.039t.386.072m.023 3.495-.947.475q-.42.215-.854.44-.435.224-.599.354a.3.3 0 0 1-.057.037q-.055.028-.086-.033l-.236-.463q-.047-.09.076-.123.116-.028.66-.283a30 30 0 0 0 1.533-.765 8 8 0 0 0 .539-.321l.189-.127.07-.043.173-.112q.048-.024.218.142.17.168.16.21a8 8 0 0 1-.344.95q-.15.354-.313.62.335-.17 1.04-.556.705-.385.979-.526l.11-.055q.06-.031.073.008l.249.487q.02.028.012.04a.3.3 0 0 1-.07.044l-.086.043-2.157 1.038.354.71q.045.084.048.228a.55.55 0 0 1-.092.331 1 1 0 0 1-.196.196 1.6 1.6 0 0 1-.257.165q-.19.096-.2.072a2 2 0 0 0-.358-.278l-.102-.094.107-.055.119-.06.134-.069a.6.6 0 0 0 .152-.1q.042-.044-.032-.191a2 2 0 0 1-.08-.143l-.101-.198a4 4 0 0 1-.098-.207q-.47.24-1.04.549l-1.257.682-.079.04q-.055.029-.076-.014l-.245-.481q-.022-.043.045-.077l.067-.034q.237-.121 1.06-.51t1.243-.602a.2.2 0 0 0-.043-.04.2.2 0 0 1-.04-.049.07.07 0 0 1 .002-.07 5 5 0 0 0 .205-.32q.228-.383.428-.862M24.478 72.277l.034-.008 5.22-1.375-.322-1.222-6.113 1.61.54 2.047 4.825.213.01.034-4.122 2.463.566 2.147 6.112-1.61-.322-1.222-5.22 1.375-.042-.024 4.827-3.003-.287-1.09zm-1.615-4.956L23 68.68l6.289-.633-.137-1.36zm6.338-7.91-6.316-.248-.05 1.264 4.95.194.034.035-5.079 2.195-.079 2.014 6.316.248.05-1.264-5.224-.205-.032-.035 5.354-2.253zm.226-1.238 1.194-4.702-1.027-.26-.782 3.078-3.307-4.046-1.027-.261-1.127 4.437 1.027.26.723-2.847 3.299 4.08zm-2.407-12.51 3.12 1.47q1.034.45 1.275.903.302.483-.034 1.193-.334.712-.913.817-.502.102-1.508-.41l-3.12-1.471-.584 1.237 3.585 1.69q2.162.944 3.375-1.47 1.06-2.406-1.028-3.506l-3.585-1.69zm5.944-8.958 2.672 2.183q.895.686 1.018 1.184.175.54-.321 1.15-.497.607-1.084.57-.512-.022-1.364-.762l-2.672-2.183-.865 1.06 3.07 2.507q1.868 1.438 3.63-.61 1.611-2.08-.15-3.65l-3.07-2.509zM44.4 34.866l-4.042-4.86-.973.81 3.167 3.808-.003.048-5.03-2.305-1.549 1.29 4.042 4.859.973-.81-3.343-4.019.004-.047 5.256 2.472zm-.48-6.916-1.2.658 3.04 5.54 1.2-.657zm6.09 3.98 1.355-.569-.302-6.727-1.228.515.416 5.235-.032.013-3.441-3.966-1.355.569zm4.548-1.6 4.248-.883-.216-1.038-2.91.606-.341-1.639 2.609-.543-.216-1.037-2.609.543-.299-1.437 2.81-.585-.216-1.038-4.147.863zm7.053-6.46 1.128-.015q.956-.048.967.773.011.888-.945.9l-1.128.015zm.036 2.732 1.434-.018q.514-.007.593.811.045.888.26 1.705l1.47-.019q-.245-.374-.362-1.498a1 1 0 0 0-.036-.205q-.087-1.365-1.145-1.386v-.033q1.259-.325 1.276-1.555-.054-1.605-2.208-1.612l-2.698.036.083 6.32 1.366-.018zm10.3-1.194q.165-1.841-1.849-2.237-2.521-.227-2.903 1.686-.18 1.252 1.813 2.023a1 1 0 0 0 .227.102q1.149.41 1.055 1.051-.144.772-1.368.63-1.039-.219-.882-1.302l-1.352-.196q-.333 2.058 2.102 2.411 2.647.315 2.966-1.641.218-1.281-1.915-2.04a1 1 0 0 0-.165-.057q-1.192-.344-1.02-1.046.14-.74 1.13-.664.98.143.878 1.093zm3.964-.813-1.312-.383-1.769 6.069 1.313.382zm1.297 1.515 1.74.711-1.992 4.87 1.265.517 1.992-4.87 1.74.712.4-.98-4.743-1.94-.401.98Zm5.142 8.355 1.114.73 1.124-1.715 4.113-2.41-1.143-.749-2.706 1.698.506-3.14-1.344-.88-.54 4.752zm7.1 6.086q2.057 2.05 4.398-.049 2.273-2.32.316-4.463-2.082-2.075-4.498.095-2.224 2.222-.217 4.417Zm3.998-3.827q1.088 1.136-.592 2.742-1.653 1.584-2.74.448-1.11-1.16.542-2.744 1.68-1.607 2.79-.446m-.382 8.375 2.295-1.421 1.35 2.18.899-.557-1.349-2.18 1.278-.79 1.439 2.324.9-.558-2.139-3.457-5.375 3.326zm8.53 8.665q2.007-.787 1.27-3.205-.868-2.376-3.96-1.495-2.971 1.023-2.255 3.485.814 2.43 2.83 1.892l-.438-1.367q-1.116.322-1.513-.806-.279-1.094 1.814-1.838 2.17-.622 2.579.431.32 1.117-.764 1.535zm-3.554 3.853 2.718-.516.452 2.383-2.718.516.25 1.309 6.209-1.18-.255-1.342-2.451.466-.446-2.35 2.45-.466-.248-1.308-6.21 1.179zm6.909 6.51-.042-1.367-6.318.193.042 1.367zm-7.091 7.454 6.27.797.16-1.255-4.914-.625-.03-.038 5.249-1.743.255-2-6.27-.798-.16 1.256 5.186.66.029.037-5.53 1.777zm-.725 2.269 1.1.89-.822 2.355-1.415.012-.45 1.291 6.699-.014.529-1.515-5.213-4.246zm1.989 1.562 2.243 1.76-.012.033-2.829-.083z"/></g><defs><filter id="a" x="-13" y="0" width="154" height="157" filterUnits="userSpaceOnUse" color-interpolation-filters="sRGB"><feFlood flood-opacity="0" result="BackgroundImageFix"/><feColorMatrix in="SourceAlpha" values="0 0 0 0 0 0 0 0 0 0 0 0 0 0 0 0 0 0 127 0" result="hardAlpha"/><feOffset dy="16"/><feGaussianBlur stdDeviation="6.5"/><feColorMatrix values="0 0 0 0 0 0 0 0 0 0 0 0 0 0 0 0 0 0 0.03 0"/><feBlend in2="BackgroundImageFix" result="effect1_dropShadow_49_4972"/><feBlend in="SourceGraphic" in2="effect1_dropShadow_49_4972" result="shape"/></filter></defs></svg>