<svg width="128" height="128" fill="none" xmlns="http://www.w3.org/2000/svg"><path d="M58.5 74.043h-.24l-.957.479v.956l.958-.478v4.304h.956V74.76a.717.717 0 0 0-.717-.716Zm3.826 0h-1.435a.72.72 0 0 0-.717.718v1.913c0 .396.321.717.717.717h1.196v.957h-1.913v.957h2.152c.396 0 .716-.32.718-.715v-3.83a.72.72 0 0 0-.718-.717m-.24 2.392h-.956V75h.957zm4.066-2.392h-1.435a.72.72 0 0 0-.717.718v3.825c0 .397.321.719.717.719h1.435a.72.72 0 0 0 .718-.718V74.76a.72.72 0 0 0-.718-.718Zm-.24 4.304h-.956V75h.957zm4.305-1.478a.7.7 0 0 0 .478-.672v-1.436a.72.72 0 0 0-.717-.718h-1.435a.717.717 0 0 0-.717.718v.717h.957V75h.957v1.057l-1.436.421a.7.7 0 0 0-.477.674v2.152h2.868v-.957h-1.912v-1.056zM55.63 54.195h1.404l3.498-2.152h-8.489v3.826h3.587zm11.837-2.152 3.499 2.152h1.405v1.674h3.586v-3.826zm.12.956-3.109-1.912v-.957h-.957v.957l-3.108 1.912zm3.108 2.87h.959v-.956h-.958l-1.943-1.196h-9.507l-1.942 1.195v.001h-.957v.956h.956v2.391h-5.26v1.435h5.26v2.392h-5.26v1.434h5.26v2.392h-5.26v1.434h5.26v2.392h-5.26v2.391h23.914v-2.391h-5.262v-2.392h5.262v-1.434h-5.262V63.52h5.262v-1.434h-5.262v-2.392h5.262V58.26h-5.262zm-.956 15.304h-2.153v-2.87h-1.434v2.87h-.957v-2.87h-2.39v2.87h-.958v-2.87h-1.434v2.87H58.26v-3.827h11.478v3.827Zm0-4.784h-2.153v-2.868h-1.434v2.868h-.957v-2.868h-2.39v2.868h-.958v-2.868h-1.434v2.868H58.26V55.87h2.152v2.87h1.434v-2.87h.957v2.87h2.391v-2.87h.957v2.87h1.434v-2.87h2.153v10.52Zm-6.934-3.824h2.39v-2.87h-2.39zm-2.392 0h1.435v-2.87h-1.435zm5.74 0h1.433v-2.87h-1.434z" fill="#006f4f"/><path fill-rule="evenodd" clip-rule="evenodd" d="M65.674 88.152c-.73-.582-.717-2.152-.717-2.152h-1.913s.013 1.57-.717 2.152c.751.767.717 3.562.717 3.587h1.913c0-.025-.034-2.82.718-3.587ZM50.878 73.047c.223-.328-.466-.877-1.55-.11-.439.311-1.163 1.23-1.566 2.616-.406 1.397-.274 2.344-.196 2.748.07.36.387.613.7.661.484.075.588-.227.665-.445.142-.4.17-1.463.503-2.54.425-1.368 1.118-2.453 1.444-2.93m-1.082-2.651c.274-.303-.343-.961-1.554-.327-.491.258-1.36 1.095-1.973 2.455-.617 1.372-.623 2.357-.603 2.78a.87.87 0 0 0 .611.773c.48.145.629-.151.74-.363.203-.387.387-1.47.884-2.525.631-1.338 1.494-2.349 1.895-2.793m-.772-2.771c.319-.27-.19-1.007-1.486-.524-.525.196-1.515.927-2.33 2.214-.82 1.297-.978 2.286-1.024 2.712-.04.383.193.72.486.853.452.205.645-.073.787-.271.26-.363.609-1.427 1.262-2.42.832-1.264 1.841-2.17 2.305-2.564m-.411-2.92c.357-.23-.032-1.026-1.388-.704-.55.13-1.642.735-2.647 1.914-1.014 1.19-1.324 2.154-1.435 2.572-.1.376.08.74.35.909.414.258.648.007.819-.174.313-.328.824-1.343 1.625-2.252 1.017-1.154 2.156-1.93 2.676-2.265m-.023-2.813c.386-.18.12-1.015-1.265-.876-.563.057-1.73.51-2.894 1.542-1.174 1.04-1.62 1.949-1.792 2.347a.81.81 0 0 0 .21.94c.37.31.64.091.835-.064.357-.282 1.01-1.216 1.934-2.007 1.173-1.004 2.41-1.62 2.973-1.882Zm.29-2.785c.4-.127.275-.949-1.085-.97-.553-.01-1.751.29-3.04 1.14-1.3.855-1.875 1.668-2.104 2.026a.76.76 0 0 0 .055.916c.31.335.603.158.817.033.39-.23 1.168-1.042 2.186-1.689 1.293-.823 2.586-1.27 3.171-1.456m.611-2.62c.408-.071.406-.87-.911-1.06-.536-.077-1.742.06-3.118.71-1.386.655-2.063 1.358-2.338 1.672-.245.282-.244.648-.08.88.252.357.562.226.788.132.412-.17 1.286-.848 2.368-1.34 1.375-.623 2.695-.888 3.291-.994m.674-2.449c.394-.022.491-.76-.728-1.073-.496-.127-1.65-.128-3.028.325-1.388.456-2.113 1.032-2.41 1.291-.267.232-.311.571-.185.802.193.355.503.267.727.205.409-.112 1.318-.645 2.399-.983 1.373-.428 2.652-.533 3.225-.567m.907-2.295c.374.014.545-.633-.57-1.016-.453-.155-1.541-.253-2.888.034-1.358.29-2.103.741-2.411.947-.276.184-.355.482-.26.697.143.334.444.28.661.244.399-.065 1.312-.463 2.368-.672a14 14 0 0 1 3.1-.233Zm.95-2.033c.343.044.552-.553-.447-1.007-.406-.185-1.405-.37-2.672-.211-1.277.158-2.002.522-2.304.69-.27.151-.366.425-.296.636.106.327.39.303.594.287.373-.028 1.248-.327 2.24-.436a12.7 12.7 0 0 1 2.885.04Zm.948-1.802c.304.066.539-.452-.322-.938-.35-.198-1.23-.442-2.378-.4-1.157.042-1.835.312-2.119.44-.253.114-.36.351-.315.547.07.301.325.302.51.304.337.004 1.144-.195 2.041-.215 1.14-.026 2.137.166 2.583.262m.892-1.51c.261.085.51-.384-.204-.905-.29-.212-1.042-.508-2.053-.555-1.017-.05-1.634.152-1.893.25a.48.48 0 0 0-.322.49c.036.288.26.308.422.324.294.029 1.02-.096 1.807-.047a9.4 9.4 0 0 1 2.243.443m.88-1.372c.215.096.468-.319-.093-.846-.228-.214-.84-.535-1.695-.648-.86-.114-1.4.031-1.63.103a.45.45 0 0 0-.316.428c.006.269.194.302.33.327.248.047.874-.02 1.54.078a7.5 7.5 0 0 1 1.864.558m.842-1.184c.17.1.42-.27.006-.787-.168-.21-.646-.54-1.345-.691-.705-.151-1.17-.048-1.368.007a.44.44 0 0 0-.306.379c-.021.247.132.288.242.319.202.057.73.029 1.274.156.691.162 1.25.47 1.497.617m.862-1.13c.128.095.36-.197.07-.654-.119-.186-.477-.49-1.028-.659-.555-.17-.938-.112-1.1-.078a.38.38 0 0 0-.279.297c-.037.205.083.248.169.281.158.06.585.069 1.013.208a4.2 4.2 0 0 1 1.155.605M52.264 75.47c.17-.344-.558-.778-1.487.105-.377.359-.945 1.336-1.145 2.72-.2 1.393.05 2.282.178 2.658.114.337.448.552.753.54.471-.02.528-.3.573-.519.083-.4-.033-1.424.143-2.5.223-1.37.74-2.501.985-3.004m1.62 2.17c.114-.352-.634-.667-1.4.301-.31.393-.72 1.405-.724 2.753-.006 1.359.35 2.174.521 2.516.154.307.499.46.787.414.445-.07.463-.357.476-.572.025-.394-.22-1.357-.197-2.41.03-1.336.37-2.488.537-3.002m1.937 2.052c.07-.342-.686-.55-1.31.443-.253.403-.528 1.394-.377 2.65.152 1.269.59 1.989.795 2.287.183.268.53.365.8.277.426-.14.402-.386.39-.588-.022-.37-.365-1.223-.465-2.208-.127-1.25.066-2.364.167-2.861m2.312 1.884c.038-.317-.733-.423-1.264.545-.216.393-.4 1.322-.138 2.445.266 1.133.765 1.736.996 1.985.206.223.55.267.813.163.433-.174.366-.395.335-.577-.055-.333-.463-1.067-.65-1.948-.24-1.12-.148-2.15-.092-2.613m2.473 1.555c.01-.29-.734-.3-1.156.628-.173.377-.27 1.234.077 2.215.35.99.877 1.479 1.118 1.678.215.177.574.218.808.084.331-.192.297-.453.252-.614-.08-.293-.536-.879-.79-1.652-.323-.98-.323-1.917-.309-2.339" fill="#45b035"/><path fill-rule="evenodd" clip-rule="evenodd" d="M39.282 79.87c-.512.113-.897-.813.555-1.66.59-.346 2.07-.761 3.996-.667 1.94.096 3.073.587 3.546.82.424.207.6.633.52.978-.122.533-.55.53-.86.53-.564 0-1.916-.368-3.421-.42-1.912-.065-3.589.257-4.336.42Zm2.858 3.597c-.465.177-.952-.682.29-1.708.505-.415 1.836-1.02 3.653-1.18 1.832-.161 2.962.173 3.437.338.426.149.664.545.623.894-.063.532-.443.592-.733.634-.53.074-1.847-.11-3.265.038-1.801.188-3.327.725-4.005.984m3.253 3.032c-.41.228-.983-.529.036-1.665.413-.462 1.572-1.208 3.245-1.593 1.687-.388 2.785-.216 3.252-.118.417.087.693.435.703.774.017.52-.331.621-.596.698-.483.138-1.738.132-3.04.454-1.654.408-3.003 1.116-3.6 1.45m3.645 2.498c-.343.266-1.046-.432-.228-1.602.334-.477 1.265-1.345 2.748-1.907 1.496-.569 2.535-.525 2.98-.484.397.036.713.338.765.666.077.49-.211.64-.444.743-.425.19-1.581.326-2.732.785-1.463.584-2.59 1.408-3.09 1.799Zm4.02 1.963c-.267.295-1.031-.315-.492-1.566.218-.506.923-1.437 2.19-2.12 1.275-.69 2.204-.727 2.62-.727.374.001.76.204.893.57.18.492-.11.656-.305.778-.358.223-1.4.46-2.377 1.011-1.243.705-2.139 1.627-2.529 2.054m4.194 1.324c-.195.303-1.035-.19-.732-1.439.121-.5.601-1.447 1.65-2.208 1.056-.768 1.885-.88 2.27-.917.344-.031.759.149.913.443.239.457-.099.716-.258.849-.29.244-1.069.49-1.874 1.102-1.024.778-1.683 1.73-1.969 2.17M36.835 75.539c-.553.024-.78-1.025.887-1.656.677-.255 2.294-.424 4.278.03 2 .457 3.086 1.183 3.535 1.515.403.298.506.78.358 1.13-.226.542-.67.46-.992.404-.588-.105-1.924-.742-3.48-1.072-1.976-.42-3.779-.386-4.586-.351m-1.712-4.805c-.57-.07-.643-1.14 1.149-1.482.728-.138 2.4-.033 4.353.748 1.969.786 2.966 1.684 3.374 2.085.364.361.398.853.196 1.175-.312.494-.752.338-1.071.229-.582-.2-1.85-1.052-3.384-1.64-1.95-.745-3.79-1.014-4.617-1.115m-.87-5.074c-.559-.166-.488-1.211 1.351-1.225.746-.006 2.404.39 4.25 1.482 1.863 1.103 2.74 2.143 3.092 2.6.316.412.283.892.036 1.166-.378.422-.797.195-1.101.034-.555-.297-1.707-1.339-3.162-2.173-1.849-1.06-3.652-1.642-4.466-1.884m-.009-5.067c-.528-.255-.303-1.269 1.521-.982.74.117 2.325.778 3.992 2.156 1.681 1.39 2.395 2.556 2.675 3.064.253.457.149.924-.135 1.152-.439.353-.82.06-1.097-.148-.506-.38-1.493-1.595-2.81-2.654-1.675-1.347-3.375-2.214-4.146-2.587Zm.741-4.534c-.483-.312-.14-1.275 1.601-.78.707.202 2.17 1.032 3.626 2.571 1.469 1.553 2.022 2.774 2.235 3.303.19.474.031.916-.273 1.106-.47.292-.806-.037-1.051-.274-.447-.43-1.26-1.73-2.414-2.918-1.468-1.51-3.018-2.555-3.724-3.008m1.365-4.249c-.43-.357.022-1.25 1.65-.574.66.275 1.975 1.244 3.195 2.901 1.23 1.67 1.614 2.914 1.753 3.45.126.481-.084.893-.403 1.041-.491.23-.776-.127-.984-.383-.38-.47-1.005-1.82-1.977-3.1-1.233-1.627-2.606-2.817-3.234-3.336Zm1.868-3.772c-.368-.388.101-1.162 1.54-.32.584.34 1.718 1.415 2.723 3.117 1.013 1.715 1.284 2.925 1.377 3.444.083.463-.134.82-.434.917-.463.15-.7-.22-.872-.485-.315-.486-.798-1.825-1.601-3.145-1.02-1.676-2.194-2.963-2.733-3.528m2.184-2.879c-.31-.387.19-1.066 1.452-.175.513.361 1.475 1.443 2.264 3.095.798 1.666.946 2.804.99 3.29.038.436-.192.748-.479.814-.441.103-.628-.258-.766-.516-.253-.475-.589-1.75-1.223-3.033-.806-1.63-1.786-2.911-2.238-3.475m2.401-2.249c-.249-.374.256-.947 1.325-.045.435.366 1.218 1.417 1.798 2.969.587 1.563.631 2.602.631 3.044 0 .396-.233.659-.497.696-.406.059-.547-.28-.651-.526-.19-.446-.392-1.623-.862-2.83a17.7 17.7 0 0 0-1.744-3.308m2.433-1.649c-.193-.343.337-.82 1.243.037.368.346.992 1.317 1.377 2.718.388 1.413.323 2.331.278 2.721-.041.349-.285.568-.536.586-.385.028-.483-.28-.554-.5-.132-.405-.2-1.455-.516-2.545a14.4 14.4 0 0 0-1.292-3.017m2.424-1.175c-.142-.305.367-.675 1.095.113.295.319.762 1.185.982 2.402.221 1.225.085 2.002.012 2.331-.065.294-.3.464-.523.462-.343 0-.403-.268-.447-.462-.082-.353-.051-1.249-.237-2.197a12 12 0 0 0-.882-2.65Zm2.212-.739c-.1-.261.395-.538.983.16.238.283.584 1.03.672 2.052.09 1.03-.104 1.667-.2 1.935a.52.52 0 0 1-.517.35c-.31-.02-.34-.246-.363-.41-.042-.297.066-1.038-.016-1.836a9 9 0 0 0-.559-2.251m2.045-.437c-.067-.213.389-.4.847.191.186.24.427.855.422 1.67-.005.822-.227 1.313-.333 1.52a.475.475 0 0 1-.48.244c-.27-.038-.278-.219-.284-.35-.014-.238.142-.818.134-1.455a6.5 6.5 0 0 0-.306-1.82m1.892-.207c-.04-.164.35-.271.687.198.137.192.294.665.233 1.27-.061.611-.278.96-.38 1.107-.091.13-.271.18-.414.15-.221-.046-.215-.181-.212-.279.006-.178.175-.599.213-1.073a4.3 4.3 0 0 0-.127-1.373m23.313 34.344c-.222-.328.466-.877 1.55-.11.44.311 1.164 1.23 1.567 2.616.405 1.397.273 2.344.195 2.748a.86.86 0 0 1-.7.661c-.483.075-.587-.227-.665-.445-.142-.4-.17-1.463-.503-2.54-.424-1.368-1.117-2.453-1.444-2.93m1.084-2.651c-.275-.303.34-.961 1.553-.327.492.258 1.36 1.095 1.973 2.455.616 1.372.622 2.357.603 2.78a.87.87 0 0 1-.613.773c-.477.145-.628-.151-.738-.363-.203-.387-.387-1.47-.884-2.525-.632-1.338-1.495-2.349-1.894-2.793m.77-2.771c-.319-.27.191-1.007 1.487-.524.525.196 1.514.927 2.329 2.214.821 1.297.979 2.286 1.024 2.712a.85.85 0 0 1-.487.853c-.45.205-.644-.073-.786-.271-.26-.363-.609-1.427-1.263-2.42-.83-1.264-1.84-2.17-2.304-2.564m.412-2.92c-.357-.23.032-1.026 1.387-.704.551.13 1.643.735 2.648 1.914 1.014 1.19 1.323 2.154 1.434 2.572a.83.83 0 0 1-.348.909c-.414.258-.649.007-.82-.174-.313-.328-.824-1.343-1.625-2.252-1.018-1.154-2.156-1.93-2.676-2.265m.022-2.813c-.385-.18-.12-1.015 1.266-.876.562.057 1.728.51 2.893 1.542 1.175 1.04 1.62 1.949 1.793 2.347.153.357.03.74-.21.94-.372.31-.64.091-.836-.064-.357-.282-1.01-1.216-1.934-2.007-1.173-1.004-2.409-1.62-2.972-1.882m-.29-2.785c-.401-.127-.275-.949 1.085-.97.553-.01 1.751.29 3.04 1.14 1.3.855 1.875 1.668 2.105 2.026.204.321.146.699-.055.916-.31.335-.604.158-.818.033-.39-.23-1.168-1.042-2.186-1.689-1.293-.823-2.586-1.27-3.17-1.456Zm-.61-2.62c-.408-.07-.407-.87.912-1.06.534-.077 1.74.06 3.116.71 1.387.655 2.063 1.358 2.338 1.672.245.282.244.648.081.88-.253.357-.563.226-.788.132-.412-.17-1.287-.848-2.37-1.34-1.374-.623-2.694-.888-3.29-.994Zm-.675-2.449c-.393-.022-.49-.759.73-1.073.494-.127 1.65-.128 3.027.325 1.388.456 2.113 1.032 2.41 1.291.267.232.31.571.185.802-.193.355-.503.267-.727.205-.41-.112-1.318-.645-2.399-.983-1.374-.428-2.652-.533-3.226-.567m-.907-2.295c-.373.014-.545-.633.57-1.016.453-.155 1.541-.253 2.888.034 1.357.29 2.103.741 2.412.947.276.184.354.482.26.697-.143.334-.444.28-.663.244-.398-.065-1.311-.463-2.365-.672a14 14 0 0 0-3.102-.233Zm-.948-2.033c-.344.044-.554-.553.446-1.007.406-.185 1.404-.37 2.672-.211 1.277.158 2.002.522 2.303.69.27.151.366.425.297.636-.107.327-.389.303-.593.287-.374-.028-1.25-.327-2.24-.436a12.7 12.7 0 0 0-2.885.04Zm-.949-1.801c-.304.066-.538-.453.321-.939.35-.198 1.23-.442 2.379-.4 1.157.042 1.835.312 2.118.44.254.114.361.351.315.547-.069.301-.325.302-.509.304-.336.004-1.144-.195-2.042-.215a11.3 11.3 0 0 0-2.582.263m-.893-1.511c-.262.085-.509-.384.205-.905.29-.212 1.042-.508 2.051-.555 1.019-.05 1.635.152 1.894.25a.48.48 0 0 1 .322.49c-.036.288-.26.308-.42.324-.296.029-1.02-.096-1.81-.047a9.4 9.4 0 0 0-2.242.443m-.879-1.372c-.216.096-.467-.319.093-.846.228-.214.84-.535 1.694-.648.86-.114 1.4.031 1.63.103.204.065.32.256.316.429-.006.268-.193.3-.33.326-.247.047-.873-.02-1.539.078a7.4 7.4 0 0 0-1.864.558m-.843-1.184c-.169.1-.42-.27-.006-.787.169-.21.647-.54 1.346-.691.706-.151 1.17-.048 1.367.007a.44.44 0 0 1 .306.379c.022.247-.13.288-.242.319-.201.057-.73.03-1.274.157-.69.161-1.25.47-1.497.616m-.861-1.13c-.128.095-.36-.197-.07-.654.12-.186.476-.49 1.027-.659.555-.17.938-.112 1.102-.078.146.03.253.165.277.297.038.205-.082.248-.169.281-.158.06-.585.069-1.012.208a4.2 4.2 0 0 0-1.155.605m4.181 32.758c-.169-.344.558-.778 1.487.105.377.359.945 1.336 1.145 2.72.202 1.393-.05 2.282-.177 2.658a.8.8 0 0 1-.754.54c-.47-.02-.528-.3-.573-.519-.082-.4.033-1.424-.143-2.5-.222-1.37-.739-2.501-.985-3.004m-1.619 2.17c-.115-.352.633-.667 1.399.301.31.393.72 1.405.725 2.753.006 1.359-.35 2.174-.522 2.516a.77.77 0 0 1-.787.414c-.444-.07-.462-.357-.475-.572-.026-.394.22-1.357.197-2.41-.03-1.336-.37-2.488-.537-3.002m-1.937 2.052c-.07-.342.686-.55 1.309.443.253.403.528 1.394.377 2.65-.152 1.269-.59 1.989-.794 2.287a.72.72 0 0 1-.8.277c-.427-.14-.403-.386-.39-.588.021-.37.364-1.223.465-2.207.126-1.25-.066-2.365-.168-2.862Zm-2.312 1.884c-.04-.317.733-.423 1.264.545.215.393.4 1.322.137 2.445-.265 1.133-.766 1.736-.997 1.985-.206.223-.55.267-.812.163-.432-.174-.365-.395-.335-.577.055-.333.463-1.067.651-1.948.24-1.12.148-2.15.092-2.613m-2.473 1.555c-.01-.29.733-.3 1.157.628.171.377.268 1.234-.078 2.215-.35.99-.878 1.479-1.119 1.678-.214.177-.573.218-.807.084-.332-.192-.297-.453-.253-.614.08-.293.536-.879.79-1.652.324-.98.324-1.917.31-2.339" fill="#45b035"/><path fill-rule="evenodd" clip-rule="evenodd" d="M88.719 79.87c.512.113.896-.813-.555-1.66-.59-.346-2.07-.761-3.996-.667-1.94.096-3.074.587-3.547.82-.423.207-.599.633-.52.978.124.533.55.53.86.53.564 0 1.917-.368 3.421-.42 1.913-.065 3.589.257 4.337.42Zm-2.859 3.597c.465.177.952-.682-.29-1.708-.505-.415-1.836-1.02-3.653-1.18-1.833-.161-2.961.173-3.437.338-.426.149-.664.545-.623.894.063.532.443.592.733.634.53.074 1.847-.11 3.265.038 1.801.188 3.327.725 4.004.984Zm-3.252 3.032c.409.228.982-.529-.036-1.665-.415-.462-1.573-1.208-3.246-1.593-1.686-.388-2.785-.216-3.251-.118-.418.087-.694.435-.705.774-.016.52.333.621.596.698.484.138 1.739.132 3.042.454 1.653.408 3.003 1.116 3.6 1.45m-3.645 2.498c.343.266 1.046-.432.228-1.602-.335-.477-1.265-1.345-2.75-1.907-1.494-.569-2.533-.525-2.978-.484-.398.036-.713.338-.765.666-.077.49.211.64.443.743.425.19 1.582.326 2.733.785 1.462.584 2.59 1.408 3.09 1.799Zm-4.021 1.963c.267.295 1.032-.315.493-1.566-.218-.506-.924-1.437-2.19-2.12-1.277-.69-2.204-.727-2.621-.727-.374.001-.76.204-.893.57-.18.492.11.656.305.778.358.223 1.4.46 2.378 1.011 1.242.705 2.138 1.627 2.528 2.054m-4.194 1.324c.195.303 1.035-.19.733-1.439-.121-.5-.602-1.447-1.65-2.208-1.057-.768-1.886-.88-2.27-.917-.344-.031-.76.149-.913.443-.24.457.099.716.257.849.29.244 1.07.49 1.875 1.102 1.023.778 1.683 1.73 1.968 2.17m20.418-16.745c.553.025.78-1.025-.887-1.656-.677-.255-2.294-.424-4.279.03-2 .457-3.086 1.183-3.534 1.515-.403.298-.506.78-.359 1.13.227.542.67.46.991.404.589-.105 1.926-.742 3.481-1.072 1.977-.42 3.78-.386 4.587-.351m1.711-4.805c.57-.07.643-1.14-1.15-1.482-.727-.138-2.399-.033-4.352.748-1.97.786-2.967 1.684-3.374 2.085-.365.361-.398.853-.195 1.175.311.494.751.338 1.07.229.582-.2 1.85-1.052 3.384-1.64 1.95-.745 3.79-1.014 4.617-1.115m.871-5.074c.558-.166.488-1.211-1.351-1.225-.746-.006-2.404.39-4.252 1.482-1.862 1.103-2.738 2.143-3.09 2.6-.317.412-.284.892-.037 1.166.379.422.797.195 1.102.034.555-.297 1.707-1.339 3.162-2.172 1.849-1.06 3.652-1.643 4.466-1.885m.008-5.067c.528-.255.303-1.269-1.52-.982-.74.117-2.324.778-3.993 2.156-1.681 1.39-2.394 2.556-2.676 3.064-.252.457-.148.924.137 1.152.438.353.818.06 1.096-.148.507-.38 1.493-1.595 2.81-2.654 1.676-1.347 3.375-2.214 4.146-2.587Zm-.741-4.534c.484-.312.141-1.275-1.6-.78-.707.202-2.17 1.032-3.626 2.571-1.47 1.553-2.022 2.774-2.234 3.303-.192.474-.033.916.271 1.106.47.292.806-.037 1.051-.274.447-.43 1.26-1.73 2.415-2.917 1.467-1.51 3.018-2.556 3.723-3.01ZM91.65 51.81c.43-.357-.022-1.25-1.649-.574-.66.275-1.975 1.244-3.196 2.901-1.23 1.67-1.614 2.914-1.753 3.45-.126.481.083.893.403 1.041.492.23.776-.127.984-.383.38-.47 1.006-1.82 1.977-3.1 1.234-1.627 2.607-2.817 3.234-3.336Zm-1.868-3.772c.37-.388-.1-1.162-1.538-.32-.585.34-1.72 1.415-2.725 3.117-1.013 1.715-1.284 2.925-1.376 3.444-.083.463.134.82.433.917.464.15.7-.22.872-.485.316-.486.8-1.825 1.602-3.145 1.02-1.676 2.194-2.963 2.733-3.528Zm-2.183-2.879c.309-.387-.19-1.066-1.453-.175-.513.361-1.475 1.443-2.264 3.095-.797 1.666-.946 2.804-.989 3.29-.039.436.192.748.478.814.441.103.63-.258.767-.516.252-.475.588-1.75 1.223-3.033.804-1.63 1.785-2.911 2.237-3.475Zm-2.402-2.249c.249-.374-.256-.947-1.325-.045-.434.366-1.217 1.417-1.798 2.969-.587 1.563-.631 2.602-.631 3.044 0 .396.233.659.497.697.406.057.548-.282.651-.527.19-.446.392-1.623.862-2.83.597-1.533 1.382-2.764 1.744-3.308m-2.433-1.649c.194-.343-.336-.82-1.243.037-.368.346-.991 1.317-1.376 2.718-.388 1.413-.323 2.331-.277 2.721.04.349.284.568.535.586.385.028.482-.28.554-.5.132-.405.2-1.455.517-2.545a14.4 14.4 0 0 1 1.29-3.017m-2.424-1.175c.142-.305-.367-.675-1.094.113-.295.319-.763 1.185-.983 2.402-.221 1.225-.085 2.002-.012 2.331.066.294.3.464.523.462.343 0 .403-.268.447-.462.082-.353.052-1.249.238-2.197.236-1.204.674-2.205.882-2.649Zm-2.212-.739c.1-.261-.394-.537-.983.16-.238.283-.583 1.03-.672 2.052-.088 1.03.105 1.667.201 1.935a.52.52 0 0 0 .516.35c.311-.02.34-.246.364-.41.042-.297-.066-1.038.015-1.836a9 9 0 0 1 .559-2.251m-2.044-.437c.067-.213-.389-.4-.847.191-.186.24-.428.855-.423 1.67.006.822.227 1.313.333 1.52a.48.48 0 0 0 .48.244c.271-.038.278-.218.285-.35.013-.238-.142-.818-.135-1.455.01-.809.209-1.507.307-1.82m-1.892-.207c.04-.164-.35-.271-.688.199-.137.191-.294.664-.233 1.27.061.61.279.96.38 1.106.092.13.271.18.415.15.22-.046.214-.181.212-.279-.007-.178-.176-.599-.213-1.073a4.3 4.3 0 0 1 .127-1.373" fill="#45b035"/><path fill-rule="evenodd" clip-rule="evenodd" d="M20 64c0-24.3 19.7-44 44-44 24.299 0 44 19.701 44 44s-19.7 44-44 44-44-19.701-44-44m11.956 0c0-17.697 14.347-32.044 32.044-32.044 17.698 0 32.043 14.348 32.043 32.044S81.697 96.043 64 96.043 31.956 81.696 31.956 64m54.949-31.464-2.19 2.846-.938-.721 3.142-4.083 1.258.969-.497 3.341 1.8-2.339.938.722-3.143 4.083-.987-.76zm1.605 4.772.525.522 2.36-2.381-.526-.521.634-.64 1.97 1.954-.633.639-.525-.522-2.361 2.381.526.522-.633.639-1.97-1.954zm8.64 3.358-5.13 1.832-.842-1.054 2.918-4.6.839 1.049-2.028 3.055 3.428-1.304.816 1.022Zm-50.205-7.47q-1.02.566-1.952.255-.933-.312-1.53-1.389-.603-1.086-.373-2.04.231-.952 1.251-1.519 1.017-.563 1.95-.26.931.305 1.538 1.396.606 1.093.369 2.043t-1.253 1.514m-2.466-3.56a1.04 1.04 0 0 0-.18.446q-.042.253.033.591.075.339.299.741.23.414.463.643.234.228.478.334a.96.96 0 0 0 .478.085 1.05 1.05 0 0 0 .766-.432 1 1 0 0 0 .175-.448 1.7 1.7 0 0 0-.03-.583 2.8 2.8 0 0 0-.302-.729 2.8 2.8 0 0 0-.463-.639 1.6 1.6 0 0 0-.48-.34.99.99 0 0 0-.9.047q-.21.117-.337.284m54.755 31.908 4.164-.21-.077-1.52.981-.05.219 4.333-.981.05-.077-1.52-4.164.21zM96.01 46.78l-.84.51-1.807-2.98 4.405-2.671 1.807 2.98-.84.509-1.14-1.879-.772.469 1.05 1.73-.84.51-1.05-1.731-1.113.674zm1.822 1.711-1.733.753-.514-1.18 4.725-2.054.827 1.9q.171.393.249.707t.029.628q-.05.324-.236.582-.183.257-.567.425-.542.236-.987.138a1.9 1.9 0 0 1-.822-.42l-1.317 2.463-.63-1.447 1.16-2.07zm2.294-.526-.171-.396-1.273.552.147.34q.11.247.213.407a.7.7 0 0 0 .257.238q.138.075.286.077a.9.9 0 0 0 .348-.085.7.7 0 0 0 .277-.201.5.5 0 0 0 .099-.313 1 1 0 0 0-.047-.274 4 4 0 0 0-.136-.345m-68.869.54-3.003-1.49-.33.663-.805-.4 1.234-2.486.805.4-.329.663 3.004 1.49.329-.663.807.4-1.235 2.486-.806-.4.33-.663Zm-2.306 2.241-1.933-.731-.417 1.104-.874-.33.875-2.314 3.405 1.287q.313.12.55.33.237.212.349.501.127.327.107.696a2.7 2.7 0 0 1-.184.8q-.12.32-.252.592a4 4 0 0 1-.257.47l-.977-.37.041-.11q.113-.125.224-.264.11-.14.205-.389.12-.32.095-.528a.56.56 0 0 0-.16-.34q-.131-.134-.336-.221-.206-.088-.461-.183m-.258 14.34-3.472 2.188 3.586-.205.068 1.181-5.144.296-.091-1.586 2.852-1.81-2.947.17-.068-1.182 5.144-.296zm12.669-31.017 1.326 1.774-1.031.77-3.085-4.126 2.763-2.066.589.788-1.733 1.295.583.779 1.593-1.192.588.787zm-12.75 29.273-4.983-2.179.123-1.406 5.283-1.288-.115 1.326-1.076.23-.14 1.613 1.02.412zm-1.814-2.067.09-1.048-1.738.377zm3.068-6.402-3.953 1.104 3.495.829-.273 1.152-5.013-1.19.367-1.546 3.25-.917-2.87-.681.272-1.152 5.013 1.19zm39.904-27.63-.457-.075-.306 1.865-1.27-.208.833-5.084 2.045.334q.424.07.729.174.306.105.544.316.246.218.361.513.117.294.05.707-.096.584-.419.904a1.9 1.9 0 0 1-.798.464l1.358 2.442-1.558-.255zm.344-2.289-.427-.07-.223 1.369.365.06q.266.044.457.041a.68.68 0 0 0 .558-.285.9.9 0 0 0 .118-.338.7.7 0 0 0-.02-.341.5.5 0 0 0-.21-.254.9.9 0 0 0-.255-.109 4 4 0 0 0-.363-.073M57.838 28.18l.215.958-3.4.761-1.125-5.028 3.4-.76.214.96-2.144.478.197.881 1.976-.441.214.959-1.975.441.284 1.27 2.144-.48ZM31.02 43.334l2.99 1.988-.654.986-4.29-2.853.878-1.322 3.368.265-2.457-1.634.654-.985 4.29 2.852-.689 1.038zM54.262 29.94l-1.48.55-2.003-1.273-.435.162.658 1.77-1.207.449-1.793-4.83 1.942-.721q.404-.15.72-.21t.63.004q.32.07.567.268t.393.59q.205.554.084.993t-.464.798zm-4.724-2.73.483 1.3.348-.129q.252-.095.417-.19a.7.7 0 0 0 .252-.244.6.6 0 0 0 .092-.281.9.9 0 0 0-.066-.352.7.7 0 0 0-.185-.287.5.5 0 0 0-.307-.117.9.9 0 0 0-.276.033 4 4 0 0 0-.352.116l-.406.15Zm13.473-3.718 4.338.124-.029.983-1.522-.044-.12 4.168-1.292-.037.119-4.168-1.522-.044zm20.827 8.989q-.46.834-1.184 1.016t-1.66-.333q-.908-.503-1.155-1.212-.246-.709.22-1.554l1.591-2.88 1.133.625-1.554 2.814q-.26.47-.21.798.051.327.45.548.391.216.697.096t.575-.607l1.554-2.814 1.132.626zm-8.66-7.39.414 2.058 1.478-1.466 1.36.426-2.593 2.331-.643 2.054-1.235-.387.623-1.99-.81-3.466zm26.159 41.17 3.194-1.57-.112 1.47-1.912.867 1.761 1.109-.109 1.422-2.855-2.003-2.146-.164.098-1.29zm-.446-10.668q-.244.339-.76.484a1.5 1.5 0 0 1-1.353-.248q-.613-.456-.889-1.445a4.2 4.2 0 0 1-.17-1.033q-.01-.461.048-.877l1.18-.33.032.113a2.9 2.9 0 0 0-.256.96q-.045.496.074.92.03.105.102.274.073.17.152.262a.64.64 0 0 0 .22.176.4.4 0 0 0 .293.014.38.38 0 0 0 .262-.231.95.95 0 0 0 .073-.398 12 12 0 0 0-.025-.576 5 5 0 0 1-.004-.58q.042-.632.316-.978.273-.346.789-.49.696-.196 1.294.273.596.47.842 1.353.124.443.157.906a4 4 0 0 1-.024.853l-1.132.316-.032-.11q.16-.342.211-.786a2.2 2.2 0 0 0-.065-.864 2 2 0 0 0-.105-.286 1.2 1.2 0 0 0-.166-.249.6.6 0 0 0-.215-.157.38.38 0 0 0-.259-.02.39.39 0 0 0-.264.22q-.075.165-.055.578v.014l.024.498a5 5 0 0 1-.007.536q-.043.568-.288.908M61.396 25.768q.553.142.844.444.29.3.34.835.073.765-.484 1.287c-.557.522-.898.554-1.58.619a4.2 4.2 0 0 1-1.046-.016 5.3 5.3 0 0 1-.855-.204l-.116-1.22.118-.01a2.9 2.9 0 0 0 .899.422q.48.131.918.09.11-.01.29-.052.178-.041.283-.103a.65.65 0 0 0 .212-.185.4.4 0 0 0 .067-.286.38.38 0 0 0-.181-.3 1 1 0 0 0-.378-.14q-.27-.045-.573-.078a5 5 0 0 1-.57-.1q-.616-.153-.909-.483-.291-.33-.342-.865-.069-.72.5-1.224.565-.503 1.479-.59a4.5 4.5 0 0 1 1.756.181l.11 1.171-.113.011a2.6 2.6 0 0 0-.737-.347 2.2 2.2 0 0 0-.861-.09 2 2 0 0 0-.301.054 1.2 1.2 0 0 0-.274.12.6.6 0 0 0-.193.183.38.38 0 0 0-.064.252q.018.195.169.298.15.102.558.157l.25.032.26.035q.243.032.524.102M36.455 39.034l-.714-.65 1.515-1.666 1.876 1.706q-.125.345-.393.833a4.5 4.5 0 0 1-.62.879q-.818.898-1.822.96-1.002.063-1.956-.803-.895-.816-.95-1.84-.054-1.026.788-1.952.436-.478.799-.695a6 6 0 0 1 .81-.395l.894.813-.08.087q-.104.017-.286.051l-.046.009q-.217.04-.397.1a2.2 2.2 0 0 0-.443.202 1.8 1.8 0 0 0-.42.345q-.224.245-.331.518a1.4 1.4 0 0 0-.093.575q.016.29.172.593.156.302.467.587.668.608 1.29.561.624-.045 1.151-.628a5 5 0 0 0 .21-.25l-.749-.68zm66.705 19.259-3.31.534.119.731-.89.144-.44-2.74.887-.143.118.73 3.31-.534-.117-.73.888-.144.442 2.74-.889.143zm-9.844 32.15q.023.044.048.077a1 1 0 0 0 .134.133q.045.037.089.081c-.06.084-.158.15-.25.212l-.06.04-.038.027a.2.2 0 0 0-.03.029c-.017.021-.032.038-.067.023-.033-.016-.083-.057-.075-.104-.09-.128-.2-.22-.314-.316l-.095-.081-.048-.042a3.5 3.5 0 0 0-.439-.349c-.159-.1-.258-.164-.323-.348-.02-.058.002-.098.02-.13.02-.034.034-.06-.018-.09-.036-.023.035-.152.085-.245a1 1 0 0 0 .043-.084c.035-.112-.178-.23-.249-.255-.112-.04-.212-.13-.31-.22-.06-.054-.12-.109-.182-.15-.101-.067-.183-.154-.266-.241a1.7 1.7 0 0 0-.24-.224 2 2 0 0 0-.25-.138 1.6 1.6 0 0 1-.26-.146 1.2 1.2 0 0 1-.363-.41c-.04-.078-.051-.16-.063-.242a.7.7 0 0 0-.059-.227c-.091-.18.138-.287.28-.311.18-.03.296.07.414.173.081.07.163.14.266.17.085.022.147.066.212.112a.5.5 0 0 0 .225.105.5.5 0 0 1 .155.058q.054.035.113.068c.079.046.159.093.225.156a1 1 0 0 0 .076.065c.066.052.137.107.159.186.098-.024.296.205.345.277l.007.013c.025.042.101.174.128.123.05-.096.086-.182.033-.275-.046-.081-.128-.135-.21-.189-.1-.066-.202-.133-.234-.252-.146-.046-.27-.2-.384-.34a2 2 0 0 0-.16-.181q-.075-.073-.147-.153a3 3 0 0 0-.196-.197c-.092-.08-.182-.108-.286-.142l-.08-.026c-.124-.044-.207-.15-.29-.258-.088-.113-.175-.226-.312-.269a1 1 0 0 0-.18-.033.7.7 0 0 1-.245-.06.7.7 0 0 1-.253-.24l-.015-.023c-.109-.164-.27-.407.04-.46l.027-.005c.1-.017.264-.046.334.012.037.03.053.07.07.11.023.056.045.11.116.133.056.018.124-.002.193-.023a.6.6 0 0 1 .138-.029.6.6 0 0 1 .318.091 1.1 1.1 0 0 1 .237.225q.049.059.102.113c.082.083.181.13.284.176l.062.03c.25.12.49.338.659.559.12.16.268.292.416.423q.095.083.185.169c.192.182.294-.207.308-.373-.049-.027-.298.068-.356.09h-.001c-.114.044-.148-.184-.166-.302a1.2 1.2 0 0 0-.103-.344c-.02-.044-.052-.05-.086-.056a.2.2 0 0 1-.057-.016.7.7 0 0 0-.144-.038c-.103-.021-.216-.044-.241-.101.037-.05.194-.124.252-.114.025-.044.062-.051.09-.057.042-.008.066-.013.008-.127l-.05-.09c-.077-.138-.17-.304-.142-.462.038-.21.453-.28.556-.136.057.08.097.19.136.294l.024.062q.015.042.032.08l.016.043.013.041c.025.084.053.177.13.201.117.037.458.088.558-.042a.4.4 0 0 0 .06-.311c-.023-.068-.09-.106-.158-.144s-.136-.076-.162-.145c-.016-.041.005-.08.026-.118.024-.044.049-.088.021-.139-.057-.1-.118.015-.152.08-.03.056-.08.084-.13.113a.3.3 0 0 0-.124.105c-.013.022-.043.022-.072.022-.035 0-.069 0-.064.041-.046-.047-.053-.156-.059-.257-.004-.06-.007-.116-.018-.155-.047-.162-.133-.205-.25-.263l-.042-.022-.034-.017c-.068-.037-.084-.074-.065-.153.017-.068.025-.074.049-.093a.4.4 0 0 0 .045-.04c.078-.08.145-.067.211-.054.05.01.098.02.15-.01.033-.08-.045-.16-.122-.236-.069-.068-.136-.135-.123-.202-.058-.033-.077-.097-.097-.162-.015-.049-.03-.098-.06-.133a1 1 0 0 1-.057-.073l-.011-.015a.7.7 0 0 0-.12-.14c-.06.13-.12.246-.225.35l-.025.02c-.023.02-.049.041-.057.067l-.038.002a.2.2 0 0 0-.1.02c-.195.103-.389-.005-.524-.126l-.036-.03-.056-.038c-.092-.059-.146-.094.01-.246q.03-.03.076-.063c.072-.057.157-.123.17-.194v-.001c.018-.1.02-.115.085-.196.015-.018.016-.036.016-.053.001-.02.002-.04.027-.06a.4.4 0 0 0 .053-.047l.044-.041c.065-.055.035-.087-.009-.134l-.008-.01c-.075-.08.065-.361.18-.355.04.002.077.019.113.036.03.014.06.028.093.034l.084.005a.3.3 0 0 1 .11.01l.049.016c.168.052.385.12.464.272q.03.058.054.116a.8.8 0 0 0 .12.219c.096.111.185.219.257.347l.087.15c.09.153.174.296.239.477.075.213.246.394.4.556l.078.084.05.06c.088.11.157.197.281.003l.039-.059c.116-.178.25-.383.242-.594a.5.5 0 0 0-.053-.147c-.054-.116-.116-.248-.002-.302l.107-.049.164-.077c.053-.026.112-.056.169-.063l.1-.014c.183-.026.4-.058.545.027.176.103.041.425-.049.64l-.046.115c-.023.064-.025.12-.027.175a.6.6 0 0 1-.02.147l-.006.019-.004.012-.008.023a.6.6 0 0 0-.041.175c-.003.06-.016.286-.1.303-.069.014-.135.011-.203.008a.8.8 0 0 0-.219.011c-.062.014-.114.068-.165.12-.054.055-.106.109-.165.108-.023-.044-.012-.1 0-.156.012-.064.024-.127-.015-.17l-.032.054a.5.5 0 0 0-.058.115c-.009.031-.006.06-.003.09a.2.2 0 0 1-.007.1.7.7 0 0 1-.112.181c-.032.042-.063.082-.085.126-.03.058-.085.09-.14.121-.05.03-.1.058-.133.108a.8.8 0 0 0-.099.249 2 2 0 0 1-.039.129 5 5 0 0 1-.176.402 4 4 0 0 0-.195.453q-.02.058-.049.127c-.078.197-.177.443-.072.59l.01.014c.044.063.096.138.027.218-.026.031-.066.032-.101.033l-.018.001a1 1 0 0 1-.143.13c-.22.172-.244.372-.258.618-.004.064.03.115.063.165.032.048.063.095.057.15-.006.063-.078.11-.14.152l-.046.031-.028.024a1 1 0 0 0-.114.146.7.7 0 0 1-.135.166l-.01.01c-.057.048-.133.113-.157.183.04.03.088.032.137.034.054.003.108.006.15.045q.047.04.101.068a.4.4 0 0 1 .115.082.5.5 0 0 1 .067.107c.025.047.049.094.09.13l.004.003a.6.6 0 0 0 .13.094c.077-.049.145.05.188.112l.018.025c.027.036.059.056.091.077q.037.02.071.052c.022.02.04.055.06.09m-.9-3.965-.005-.01-.005-.009-.006-.015.001.053v.027c0 .097-.002.199.074.207a1 1 0 0 0-.06-.253Zm.62-.203c.024.024-.053.197-.078.207-.012-.037-.034-.319.078-.207m5.4 3.077c.006.07.008.099.087.146.156.093.028.3-.067.453l-.038.062-.016.029c-.123.21-.247.425-.353.644-.12.247-.285.436-.467.628l-.051.051-.03.03H97.5q-.076.073-.145.153a1 1 0 0 0-.062.079c-.044.062-.08.114-.165.088-.07-.022-.183.084-.191.158l-.003.057v.015c.001.041.002.059-.05.128-.026.036-.062.071-.098.107a.7.7 0 0 0-.142.174l.005-.002a.3.3 0 0 0-.042.053l.01-.003.01-.002q.007-.001.01.006c.009.04-.09.096-.158.133l-.054.032c.003.009.014.01.024.01s.02.001.018.011c-.01.052-.071.113-.118.159a.4.4 0 0 0-.057.066c-.029.04-.072.099-.096.104-.023.004-.08-.08-.074-.084q-.003-.002-.013-.033c-.015-.046-.04-.123-.066-.128-.052-.011-.05-.063-.048-.105.001-.035.002-.063-.028-.054-.036.01-.246.004-.258-.035-.023-.067.08-.169.14-.228l.025-.026c.025-.026.036-.07.047-.113.015-.066.03-.128.094-.116.101.018.21-.13.283-.232l.037-.05c.183-.235.35-.49.515-.74l.04-.064.078-.116.016-.024c.142-.215.202-.406.269-.623l.016-.053.044-.135c.091-.271-.022-.435-.15-.62q-.037-.052-.072-.107a.24.24 0 0 0-.08-.068c-.05-.03-.097-.06-.09-.137.007-.072-.02-.09-.065-.121l-.015-.01-.025-.02a3 3 0 0 1-.326-.31c-.092-.095-.184-.19-.285-.276l-.004-.003a.5.5 0 0 0-.176-.112c-.05-.013-.069.022-.089.058a.2.2 0 0 1-.029.044.5.5 0 0 0-.093.185c-.043.12-.087.242-.242.264.006.04.054.329.077.334.084.017.023.099-.028.167l-.018.024a.2.2 0 0 1-.092.07c-.02.01-.041.02-.064.039-.03.024-.03.049-.03.074 0 .02 0 .04-.013.06a.2.2 0 0 1-.044.04.13.13 0 0 0-.055.06.2.2 0 0 0-.01.072.3.3 0 0 1-.005.053c-.01.043-.018.042-.032.04-.009 0-.02-.002-.034.005-.013.007-.029.056-.04.094l-.014.042q-.023.04-.053.079c-.046.063-.091.125-.075.202.06.285-.369.231-.508.202-.175-.038-.339-.287-.384-.451a1 1 0 0 0-.063-.151.6.6 0 0 1-.08-.26c.002-.04.014-.195.087-.166.18.073.223-.018.3-.179l.01-.02.027-.056c.039-.081.078-.163.127-.239a.1.1 0 0 1 .071-.052.1.1 0 0 0 .06-.034c.048-.055.055-.132.062-.204q.004-.049.012-.092l.02-.06c.017-.046.036-.099.03-.133q-.002-.007-.015-.002c-.011.004-.026.008-.032-.01.027-.098.087-.164.149-.233a.8.8 0 0 0 .134-.183c.064-.133.002-.188-.125-.12l-.045.024c-.131.07-.238.129-.39.16a.3.3 0 0 1-.074 0c-.042-.003-.08-.006-.104.03-.036.059-.08.046-.118.006a.15.15 0 0 0 .07-.09.15.15 0 0 1 .055-.082l.032-.026q.067-.052.132-.108l.026-.024a6 6 0 0 0 .382-.361l.043-.049c.064-.072.128-.144.203-.2a.6.6 0 0 1 .126-.066c.047-.02.094-.039.129-.068.052-.043.078-.126.1-.196l.018-.054a.8.8 0 0 1 .183-.255 43 43 0 0 1 .713-.765v-.001l.03-.032c.025-.07.146-.218.226-.16.027.02.049.09.066.145l.018.056c.019.045.107.217.162.21.075-.009.108.016.15.048l.055.038c-.007.028-.002.053.002.078q.008.03.005.064c-.007.048-.054.103-.092.147l-.027.033a.7.7 0 0 1-.12.113c-.043.035-.087.07-.121.115a4 4 0 0 1-.15.184q-.087.1-.166.206c-.06.079-.09.171-.046.256.025.048.075.067.125.086.04.014.08.03.107.059a.5.5 0 0 0 .128.092.6.6 0 0 1 .117.08 4 4 0 0 0 .412.334c.141.102.293.213.38.356l.014.026.022.052c.018.048.034.09.093.125.091.055.15.104.205.2q.049.083.101.164c.081.128.162.256.216.4a.2.2 0 0 0 .025.047l.027.04c.029.04.057.079.063.13zm-1.787 3 .017-.019-.006.01zm-2.288-3.061-.028.053c.069.018.296-.2.29-.27a.13.13 0 0 1-.027-.094c-.045.011-.043.049-.042.087.001.03.002.06-.02.078a.1.1 0 0 1-.054.023c-.023.005-.047.01-.068.035a.4.4 0 0 0-.051.088m-3.928-4.278c-.024-.018-.04-.03-.11-.016-.12.009-.196-.04-.222-.157-.027-.112.112-.065.19-.038a.2.2 0 0 0 .05.013.3.3 0 0 0 .01-.064c.003-.045.005-.069.097-.093.073-.02.117-.021.183-.024l.044-.003c.084-.112-.176-.461-.287-.61l-.012-.017-.03-.042c-.038-.058-.065-.229-.02-.297.04-.06.34-.11.41-.113.236-.008.434.202.476.427l.005.027.01.05c.035.204.066.38.318.326l.062-.014.032-.009c.112-.03.222-.06.332-.006.061.03.067.08.069.147 0 .056.019.081.04.111l.012.016.008.011.013.023c.084.158-.261.2-.413.218l-.063.009c-.151.042-.082.154-.023.236.08.112.092.186.06.335-.062.285-.497.254-.653.113a.3.3 0 0 0-.055-.036c-.041-.024-.088-.05-.097-.088.007.032.054-.147.046-.138q.013.002.019.017c.007.011.013.023.029.011.029-.048-.186-.257-.223-.263l-.056-.011c-.058-.013-.12-.027-.178-.012a.2.2 0 0 1-.073-.039m3.149 2.355c-.039.103-.085.257-.075.363.018.185.1.363.176.532l.061.136.039.085c.025.056.05.11.072.171.03.083-.094.136-.166.134h-.069c-.177.002-.493.005-.478-.192.01-.132.002-.273-.033-.395a.4.4 0 0 0-.03-.07c-.028-.058-.053-.107.012-.178a.3.3 0 0 1 .096-.067c.045-.023.088-.046.112-.102.04-.091.058-.19.076-.285l.001-.004c.05-.276.12-.577.277-.822a.5.5 0 0 0 .031-.104c.018-.077.039-.166.085-.185.069.044.019.17-.012.248l-.008.02-.003.01a.5.5 0 0 0-.023.222l.002.088c-.003.082-.052.189-.095.284q-.029.061-.048.11Zm.582-1.095c.02-.081-.017-.188-.05-.256a.4.4 0 0 1-.023-.058c-.016-.049-.034-.1-.076-.123l-.045-.017c-.06-.02-.126-.04-.066-.14a.34.34 0 0 1 .12-.099.4.4 0 0 0 .103-.073.6.6 0 0 1 .21-.148c.128-.058.321-.138.445-.07.117.063.07.215.027.349a1 1 0 0 0-.037.15c-.012.133.008.266.028.4.017.114.034.228.032.342q0 .156.012.313.007.107.01.212c.003.141-.03.248-.174.187-.012.016-.012.034-.012.051 0 .021 0 .041-.02.059-.038-.03-.04-.026-.06-.004a.2.2 0 0 1-.033.035c-.02.02-.093.086-.114.043a.5.5 0 0 1-.026-.168 1 1 0 0 0-.01-.11 1 1 0 0 0-.074-.233c-.031.099-.003.195.024.29.017.059.034.116.037.174-.033-.017-.034.004-.036.029l-.002.02-.006.019c-.102-.031-.124-.402-.12-.498a1 1 0 0 0-.024-.187c-.023-.118-.048-.246-.002-.332.02-.04.002-.066-.016-.09-.014-.02-.029-.04-.022-.067m-5.587 9.957c.144.016.154.266-.009.287 0 .052.054.064.103.075.062.014.115.026.045.112-.024.028-.013.09-.005.143l.006.038.001.022c0 .102-.132.145-.223.176l-.033.01c-.114.04-.229.07-.344.1-.14.035-.278.07-.414.125-.105.041-.213.07-.321.1a2 2 0 0 0-.449.16 2.8 2.8 0 0 1-.638.277q-.083.022-.164.037l-.133.03a.3.3 0 0 0-.11.059c-.043.032-.083.062-.157.054l-.013-.001c-.242-.027-.535-.06-.752-.15a2 2 0 0 0-.192-.06.9.9 0 0 1-.302-.122l-.055-.047c-.08-.07-.2-.178-.27-.162-.052.012-.097-.008-.142-.027a.3.3 0 0 0-.108-.031 2 2 0 0 1-.191-.022 2 2 0 0 0-.192-.022 1 1 0 0 1-.103-.017c-.156-.029-.413-.077-.413.021 0 .045.014.088.028.13l.008.026.006.02q.015.048.038.094a.4.4 0 0 1 .046.148q-.002.078-.011.154c-.012.11-.024.218.023.325q.012.03.028.06c.045.096.095.203.09.307 0 .032-.012.036-.025.042a.05.05 0 0 0-.025.017c-.028.032-.032.095-.035.141l-.002.029-.003.027-.004.03c-.014.114-.031.251.002.35.076-.056.071.198.07.302v.03l.002.047c.005.066.012.15-.026.197-.017-.02-.013-.043-.01-.066.004-.023.008-.046-.008-.066-.062.033-.049.093-.036.153.01.044.019.087 0 .12a.6.6 0 0 0-.042.154 1 1 0 0 1-.037.148q-.053.139-.096.279l-.024.076-.025.073c-.015.045-.04.077-.063.109a.3.3 0 0 0-.054.085.4.4 0 0 0-.016.056c-.013.054-.028.119-.073.138-.043-.057 0-.131.045-.205.044-.074.089-.148.05-.208-.095.09-.137.216-.177.335l-.01.03-.014.038-.004.013c-.022.063-.046.132-.118.161l-.032.071c-.025.058-.049.116-.1.161-.006-.076.035-.149.076-.222.031-.056.063-.112.073-.168-.057-.004-.149.175-.214.303-.027.054-.05.099-.063.117-.05.063-.156.128-.231.093-.023-.011-.041.009-.061.032-.03.032-.064.069-.122.026-.05.049-.072.043-.107.034-.021-.005-.048-.012-.088-.008-.1.009-.104-.009-.112-.043a.15.15 0 0 0-.033-.071c-.041-.048-.051-.042-.103-.01-.07.041-.116-.044-.028-.055.04-.005.07-.046.103-.091.033-.047.07-.098.125-.12l.034-.012c.046-.016.049-.017.08-.098.02-.049.063-.152.12-.174.008.06-.029.12-.063.176l-.026.046c.037.005.018.03-.001.054-.025.031-.05.063.041.056.15-.009.2-.171.234-.286a4 4 0 0 1 .137-.369l.04-.099c.026-.068.044-.137.063-.205.02-.081.042-.162.078-.241a1 1 0 0 0 .018-.1c.007-.047.013-.091.017-.086.052-.062.056-.174.06-.258v-.022l.002-.023q.004-.085.003-.17t.004-.172l.01-.069c.005-.035.011-.071.009-.105s-.025-.058-.047-.08c-.02-.022-.04-.043-.04-.07-.071.095-.072.012-.073-.061l-.001-.046c-.007-.096-.065-.046-.06.028a1.6 1.6 0 0 1-.014.265 1.4 1.4 0 0 0-.01.305c.018.15-.083.385-.105.119-.005-.066.019-.127.043-.189a1 1 0 0 0 .033-.094c.008-.027-.003-.059-.012-.088l-.01-.037a.6.6 0 0 1 .008-.164l.003-.018.008-.073a4.6 4.6 0 0 0-.047-.84l-.006-.044c-.023-.2-.208-.131-.355-.07-.17.073-.28.103-.435.021a.8.8 0 0 1-.238-.181.4.4 0 0 1-.068-.152.5.5 0 0 0-.058-.141c-.033-.049-.037-.118-.041-.187-.004-.056-.007-.113-.026-.159-.014-.035-.044-.06-.072-.084-.052-.043-.1-.083-.04-.174a.4.4 0 0 0 .039-.082c.02-.056.043-.113.09-.131.085-.033.13-.098.175-.165a1 1 0 0 1 .056-.079c.037-.043.085-.04.135-.037.044.003.09.006.131-.022l.076-.046c.075-.042.163-.092.195-.148.05-.092.008-.245-.022-.35l-.013-.047c-.03-.12-.07-.236-.11-.353a11 11 0 0 0-.183-.524h-.001a8 8 0 0 1-.173-.503 1 1 0 0 0-.213-.346c-.035-.033-.082-.077-.051-.123l.018-.02c.026-.029.06-.066.027-.092a.5.5 0 0 0-.084-.032c-.105-.036-.26-.088-.19-.133l.02-.04c.02-.045.031-.068.1-.075l.044-.003a.26.26 0 0 0 .135-.03c.07-.044.163-.035.255-.026.05.005.099.01.143.006l.015-.001c.186-.017.777-.07.752.154.08.225.135.444.117.69-.014.189.057.458.144.618.021.04.053.072.084.105a1 1 0 0 1 .066.075c.024.035.13-.13.159-.174l.006-.01q.034-.051.066-.104c.047-.078.095-.155.162-.222a.7.7 0 0 0 .098-.114c.015-.023.01-.043.003-.063-.005-.018-.01-.036 0-.058.087-.04.151-.143.212-.24.034-.055.067-.107.102-.146a.3.3 0 0 0 .04-.06c.023-.044.046-.085.104-.09a.3.3 0 0 0 .105-.058c.007.015.166.213.146.045 0-.01-.016-.026-.032-.043-.027-.028-.056-.059-.031-.07-.008-.017.022-.05.05-.08.039-.043.074-.082-.002-.07-.003-.024.016-.036.035-.048q.02-.01.031-.027c.014-.024 0-.039-.015-.053-.015-.015-.03-.03-.014-.055q.044.004.098-.001c.046-.005.09-.008.116.005.034.018.077.005.12-.008a.2.2 0 0 1 .102-.016c.042.008.066.087.08.132l.01.026.004.01c.013.03.014.034 0 .076.01.01.022.01.034.009.014-.001.028-.002.036.015a.1.1 0 0 0-.053.051l.019.01a.4.4 0 0 0 .152.055c.023.05.027.053.092.058.006.04.004.05.008.057q.001.005.012.013l.034.03c.028.027.006.06-.015.091l-.017.028-.043.053c-.06.071-.15.175-.016.145.007.05-.042.134-.085.21a1 1 0 0 0-.06.117.4.4 0 0 1-.084.126 1 1 0 0 0-.058.07q-.058.09-.11.184l-.043.075c-.058.1-.125.169-.195.241q-.062.063-.127.14c-.142.174-.208.361-.277.563a1.2 1.2 0 0 1-.188.35c-.078.086-.085.127.042.131.152.004.305-.003.46-.01a7 7 0 0 1 .43-.01c.447.007.83.087 1.223.254.189.082.349.148.57.085.095-.027.186-.065.277-.102.11-.044.218-.089.334-.117l.196-.052c.148-.042.297-.084.446-.1.211-.022.45-.05.654-.121a.7.7 0 0 1 .175-.028q.059-.004.116-.013a1 1 0 0 0 .116-.034.5.5 0 0 1 .213-.04m-6.842-.011a.1.1 0 0 0 .08-.07c.05-.159-.121-.553-.228-.8l-.027-.062c-.008-.026-.056-.03-.037.026l-.01.008a.2.2 0 0 0 .046.081c.02.026.04.052.048.084a1 1 0 0 1 .015.106q.002.045.011.092.018.089.042.175c.03.116.061.233.06.36m-11.737 8.439a.3.3 0 0 1 .137-.011c-.003.15-.265.362-.38.455l-.002.001c-.136-.038-.138.184-.138.277v.025c-.004.191-.032.287-.199.434-.21.185-.427.076-.558-.104a.5.5 0 0 0-.146-.131l-.062-.043c-.045-.033-.03-.244-.016-.302-.065-.091.047-.249.13-.366q.039-.053.062-.091l.026-.047c.04-.074.089-.163.14-.195.083-.051.066-.126.05-.194l-.004-.017c-.017-.081.133-.08.174-.035.025.027.052.021.082.014.033-.007.069-.015.106.022.05.051.11-.018.168-.088.046-.053.09-.106.132-.106a1 1 0 0 0-.01.159c.008.08.02.083.1.094.013.002.05.06.083.111v.001c.029.045.055.085.058.079l-.003.006c-.022.034-.108.172-.042.159.03-.007.041-.027.052-.049.012-.022.024-.046.06-.058m3.735-1.26.032.064c.056.132.131.255.206.379l.078.129c.085.15.153.364-.08.427-.076.02-.121.077-.165.133-.052.067-.102.131-.199.126-.149-.006-.25-.132-.335-.237l-.052-.064a1 1 0 0 1-.12-.194 1 1 0 0 0-.131-.208 1.7 1.7 0 0 0-.371-.276l-.045-.028-.04-.025-.061-.041-.017-.011c-.125-.085-.237-.161-.052-.259.163-.085.03-.105-.094-.117-.06-.006-.065-.073-.049-.084.053-.039.052-.044.051-.057-.001-.009-.002-.021.013-.05.012-.024.052-.044.09-.062q.035-.016.056-.032c.047-.037.185-.051.095.028l-.029.023-.014.009c-.03.02-.06.04-.075.072.04.019.136-.027.182-.049l.01-.005a.2.2 0 0 0 .087-.087.12.12 0 0 0 .082-.034c-.009-.035-.042-.03-.076-.026-.032.005-.065.009-.078-.02.087-.088.18-.049.275-.01.065.027.13.054.195.042-.02-.026-.053-.033-.086-.04-.035-.008-.07-.015-.088-.045.125-.014.26.05.384.108q.073.034.138.06l.04.014c.093.033.184.065.155.139-.028.077.04.212.088.308m-6.421-2.041q-.021.006-.02-.014.016-.006.016-.003v.005q-.001.006.004.012m4.879 3.769c.045.11.091.219.076.34a.08.08 0 0 1-.03.051c-.015.013-.03.026-.033.055l-.007.078v.001l-.008.08a.4.4 0 0 0 .004.075l.003.03.005.044c.009.078.02.178-.024.242-.015.022-.029.024-.04.025-.017.003-.03.004-.038.052-.008.049-.062.052-.106.054l-.035.003c-.136.025-.276.034-.415.043l-.214.015-.174.022c-.173.023-.354.047-.517.022q-.068-.008-.135-.01c-.083-.004-.165-.007-.24-.04-.02.007-.014.024-.01.038.007.02.012.036-.046.017a.2.2 0 0 0-.063-.007c-.024 0-.047.001-.073-.013l-.062-.027c-.078-.03-.171-.067-.151-.153.007-.026.026-.042.046-.057.022-.016.043-.033.047-.063q.003-.042-.003-.082l-.004-.039-.006-.084a3 3 0 0 0-.019-.199c-.057.017-.112-.003-.072-.081.005-.01.024-.009.046-.008.03.002.069.005.092-.021.043-.048.22.003.365.044.073.021.138.04.172.042l.035.003c.063.005.156.014.19-.029.036.016.057.002.08-.014.016-.011.032-.022.055-.022q.033.063.098.025c.216-.037.156-.301.12-.459l-.009-.042a3 3 0 0 0-.046-.187 1.5 1.5 0 0 1-.067-.355 3 3 0 0 0-.036-.338c-.014-.099-.029-.197-.035-.295-.012-.208-.12-.47-.284-.613-.082-.072-.127-.032-.182.018q-.03.027-.066.052a4 4 0 0 1-.169.094 1.6 1.6 0 0 0-.287.18c-.088.073-.847.309-.858.226-.004-.029-.05-.022-.096-.015a.2.2 0 0 1-.08.004c-.084-.027-.067-.077-.05-.126.008-.023.016-.045.013-.066a.28.28 0 0 0-.081-.171c-.02-.017-.05-.017-.078-.018-.034 0-.065-.001-.07-.032-.015-.07.044-.111.101-.15l.039-.028c.04-.032.07-.073.101-.114q.036-.051.08-.095c.056-.052.293-.126.365-.087.016.094-.146.22-.263.31q-.06.046-.093.076c.058.063.17-.057.201-.098l.026-.035v-.001q.048-.07.108-.133.046.014.095.01a.3.3 0 0 1-.077.109.4.4 0 0 0-.072.096c.153.049.397-.169.533-.29l.026-.023.026-.023c.081-.068.187-.118.293-.167.163-.077.328-.154.406-.303.033-.061-.003-.335-.13-.27a1 1 0 0 0-.202.148c-.026.031-.023.052-.02.069.003.021.005.036-.048.057a1 1 0 0 0-.084.041c-.055.03-.113.062-.172.059-.022-.036.075-.074.137-.098l.027-.011.01-.004.01-.005q.117-.14.221-.288c-.044-.026-.115.058-.19.145-.069.082-.142.167-.2.173a2 2 0 0 1-.188.015c-.071.003-.112.044-.155.087q-.025.025-.052.048c-.094.074-.199.127-.167-.027.018-.091-.084-.13-.169-.163l-.013-.006-.028-.011c-.132-.054.032-.177.097-.226l.006-.005c.066-.05.12-.109.175-.169.053-.06.107-.119.173-.169l.025-.022c.027-.024.058-.051.092-.056.017-.002.023.005.03.012.009.009.018.018.046.01-.049.068-.115.123-.18.178a.8.8 0 0 0-.206.218c.022.017.126-.09.204-.17a1 1 0 0 1 .082-.08c-.02.037.028.003.075-.03a.4.4 0 0 1 .07-.045c-.001.099-.081.173-.166.251q-.05.044-.096.095c.057.065.293-.119.4-.201l.043-.033c.143-.099.26-.196.323-.358a.32.32 0 0 0-.027-.268c-.04-.057-.09-.006-.138.042-.024.024-.048.048-.069.056a1.4 1.4 0 0 0-.303.177c-.145.1-.294.203-.46.218a1.6 1.6 0 0 1-.374-.007c-.058-.013-.055-.033-.048-.071l.002-.013c.003-.015-.04-.017-.071-.019l-.023-.002-.008-.002c-.075-.029-.067-.169-.025-.221.056-.07.162-.095.248-.114.117-.026.22-.032.341-.039h.001c.1-.005.201-.077.292-.141l.094-.062q.052-.03.12-.062c.153-.074.337-.163.33-.317a.4.4 0 0 0-.157.083c-.063.047-.125.094-.216.082q-.056-.01-.11-.029a.4.4 0 0 0-.162-.031q-.031.001-.064.008a.4.4 0 0 1-.082.008.7.7 0 0 1-.233-.086.4.4 0 0 1-.057-.049c-.041-.039-.07-.067-.141-.04-.095.034-.191.086-.289.138-.193.105-.393.213-.604.195-.066-.006-.126.036-.186.077-.04.026-.078.053-.118.066a1.7 1.7 0 0 1-.312.067c-.067.009-.121.027-.177.045a1 1 0 0 1-.139.04c-.058.012-.115.04-.171.067a.6.6 0 0 1-.172.066c-.11-.016-.206.001-.305.018a2 2 0 0 1-.198.027c-.068.004-.17-.004-.148-.09.014-.054.051-.177.108-.198.07-.077.066-.096.055-.169l-.002-.014a1 1 0 0 1 .137-.156c.044.002.064-.025.085-.052.024-.032.049-.063.108-.051.028.005.053.02.077.034a.2.2 0 0 0 .06.028c.15.023.331.022.483.004a5 5 0 0 0 .573-.097c.078-.018.142-.06.206-.102a1 1 0 0 1 .12-.072 1 1 0 0 1 .278-.074c.067-.011.135-.021.2-.042a2 2 0 0 0 .353-.149c.13-.074.023-.432-.02-.53-.035-.076-.146-.04-.258-.005-.067.021-.135.043-.187.04-.074-.003-.277-.073-.28-.14-.003-.064-.03-.094-.063-.133l-.032-.038c-.02-.028-.013-.062-.006-.096l.003-.013c-.07-.013-.067-.034-.048-.093l.005-.013c.025-.072.07-.197.124-.244-.05-.082.043-.116.138-.151.05-.019.1-.038.131-.064l.051-.042a1 1 0 0 0 .156-.149c.032-.044.014-.136-.002-.22-.01-.05-.02-.098-.017-.131.008-.151.038-.304.113-.442.024.004.028.045.031.088.005.05.01.102.048.095.054-.01.085-.112.1-.161l.005-.014c.02-.057.031-.115.042-.173a.8.8 0 0 1 .094-.28c.144-.223.36.05.445.168.044.061.02.201-.006.266-.032.08.05.184.121.23.084.054.132.268.14.36q.004.061.005.124c.001.085.002.17.028.251q.015.046.03.082c.027.068.047.118.028.218a.47.47 0 0 0 .03.245 1 1 0 0 1 .035.13l.004.057c.004.096.01.254.097.218.087-.035.166-.167.203-.242a.56.56 0 0 0 .059-.292l-.004-.032c-.008-.07-.02-.175.041-.218.022.004.03.022.036.04.007.02.014.038.043.038l-.003-.091a1 1 0 0 0-.051-.346 1.3 1.3 0 0 1-.106-.38c-.01-.113.011-.221.033-.33.025-.121.05-.243.03-.371a.6.6 0 0 0-.038-.152c-.008-.021-.027-.037-.046-.054-.024-.02-.048-.041-.05-.072a.5.5 0 0 1 .061-.189l.013-.026.012-.029.042-.102a1.5 1.5 0 0 1 .204-.392 1 1 0 0 0 .073-.119c.067-.123.122-.224.318-.146.192.078.282.196.25.392l-.013.07c-.021.092-.047.209.006.276.029.038.094.018.149.002l.056-.014c.214-.03.445.13.615.248l.001.001.057.039c.074.051.417.469.152.502a.3.3 0 0 0-.143.076.4.4 0 0 1-.139.08.7.7 0 0 1-.247.01 1 1 0 0 0-.123-.007.4.4 0 0 1-.095-.026c-.066-.021-.14-.046-.152-.025a.34.34 0 0 0-.034.158l-.005.072c-.02.118.028.237.076.354.041.1.082.199.08.297-.003.208.197.108.358.027a1 1 0 0 1 .14-.063q.08-.019.155-.032l.077-.014a.3.3 0 0 0 .066-.028c.033-.018.066-.036.103-.031.034.004.04-.014.047-.033q.004-.013.01-.024a.2.2 0 0 1 .117-.013c.089.002.18-.035.269-.07.057-.024.114-.047.169-.059.127-.029.258-.088.379-.143l.039-.017q.056-.027.12-.063c.15-.083.325-.181.472-.094a.3.3 0 0 0 .01.155c.014.073.03.146-.015.208-.061.085-.218.125-.347.157q-.064.016-.114.032a2 2 0 0 0-.318.146l-.096.05q-.127.036-.255.075a8 8 0 0 1-.267.08c-.29.078-.703.202-.925.392a.9.9 0 0 0-.327.612c-.024.158-.267.315-.448.281-.056-.01-.067-.064-.076-.115a.2.2 0 0 0-.02-.065c-.033-.061-.141-.009-.213.025l-.025.012-.02.009-.02.007c-.135.051-.284.106-.385.206q-.001.035-.007.077c-.012.104-.025.216.113.176.058-.017.1.013.141.042.044.031.089.062.152.038l.074-.028.071-.026q.105-.037.204-.078c.232-.099.449-.252.662-.403q.156-.111.31-.211l.019-.012c.07-.047.267-.178.269-.069 0 .033.008.064.015.094a.4.4 0 0 1 .015.096c-.005.254-.128.335-.319.459l-.083.054a1 1 0 0 1-.144.083 1 1 0 0 0-.18.108l-.05.043c-.047.042-.098.088-.158.101l-.045.006c-.029.002-.041.003-.088.05-.027.025-.067.069-.033.103.067.066.16.096.26.066.112-.033.204-.095.296-.157.092-.061.184-.123.297-.158l.076-.028c.1-.04.236-.095.26-.031a1 1 0 0 0 .054.107c.048.083.098.17.061.26-.064.159-.266.245-.427.314l-.025.011-.031.012-.01.004c-.108.043-.337.134-.327.213.029.222.332.18.525.122q.09-.028.177-.059.126-.047.257-.082c.13-.033.184-.027.3-.015l.014.002a.2.2 0 0 1-.102.056c.01.055.058.076.1.093.058.025.102.043.008.141-.037.04-.029.068-.02.094.01.028.018.055-.037.096a2 2 0 0 1-.333.188l-.007.003a1 1 0 0 0-.085.05c-.064.041-.137.087-.188.086-.137-.002-.246.087-.255.208-.006.071-.029.138-.052.206-.02.057-.04.114-.049.174-.026.169.042.329.107.481l.035.082c.072.18.11.371.147.56l.01.051c.021.108.026.217.031.327.006.117.011.234.036.348.014.066.041.129.068.193m-16.432-3.249c.173.128.173.408.072.56-.115.172-.329.275-.526.356-.257.105-.452.249-.51.509l-.055.236c-.055.235-.11.468-.143.708a12 12 0 0 1-.09.546l-.018.131c-.014.109-.028.224-.073.316-.05.1-.058.2-.066.304l-.012.126c-.015.101-.039.083-.069.061-.025-.019-.054-.04-.086 0a.1.1 0 0 1-.023-.032c-.011-.02-.023-.042-.047-.047l-.057.029c-.078-.02-.084-.094-.08-.151.004-.061-.026-.104-.056-.147a.3.3 0 0 1-.052-.103.64.64 0 0 0-.122-.3c-.038-.051-.15-.434.002-.35a.3.3 0 0 1 .105.122c.038.063.075.127.156.139.075-.032.077-.203.078-.31l.002-.068c.01-.103.036-.206.062-.309.021-.085.043-.17.055-.256.026-.17.065-.333.105-.498l.03-.121c.045-.182-.041-.181-.2-.109a2 2 0 0 1-.554.18c-.107.017-.28.046-.33.097-.015.017-.016.043-.016.07 0 .026-.001.053-.015.074a1 1 0 0 1-.161.172c-.112.092-.227.154-.323.013a.7.7 0 0 0-.11-.112c-.092-.083-.192-.171-.153-.277q.041-.11.091-.215l.02-.044.015-.031c.049-.108.1-.218.17-.315l.005-.005c.012-.017.04-.054.06-.042.036.021.026.026.014.033-.009.004-.018.009-.013.019.06.146.332-.142.374-.187l.004-.004a8 8 0 0 1 .418-.409 5 5 0 0 0 .156-.156c.072-.074.144-.149.223-.216l.074-.057c.088-.066.191-.143.21-.237-.035-.007-.06.021-.084.047-.025.027-.049.053-.083.04.016-.051.11-.127.215-.21.205-.164.45-.359.22-.466-.145-.068-.317.013-.482.09-.175.082-.341.16-.456.052-.289-.274-.28-.653 0-.919.14-.134.282-.277.417-.419q.03-.03.06-.067c.079-.094.168-.199.305-.206.034-.001.075-.031.114-.06a.4.4 0 0 1 .084-.052c.041-.016.094-.007.145.002l.021.004.048.005c.042.003.07.028.098.053.032.029.064.057.116.05a.32.32 0 0 0 .192-.114c.181-.207.22-.495.257-.776.023-.175.046-.347.103-.497.026-.07.066-.137.106-.206.073-.124.146-.25.144-.391a.8.8 0 0 0-.053-.239c-.036-.11-.072-.22-.04-.34.039-.145.251-.194.186-.008l-.002.005c-.013.031-.073.175-.002.149.024-.01.034-.032.044-.054.009-.02.018-.04.039-.051l.027.05c.034.058.08.138.075.17-.013.091.01.145.054.227.108.2.125.471.1.683-.02.171-.111.311-.202.452-.052.08-.104.162-.143.25-.015.033-.132.448.017.425.028-.004.028-.026.029-.047 0-.032 0-.064.091-.039.066.018.129.047.19.075l.047.021c.111.052.193.097.255.2q.036.067.065.135l.005.012a.2.2 0 0 0 .042.047c.02.017.038.033.038.046v.017l.002.02c.005.043.01.091-.02.106-.074.035-.015.066.035.078.083.02.132.053.03.096-.125.051-.101.071-.043.119l.037.032c-.008.039-.092.053-.152.063l-.034.006-.013.004c-.02.005-.037.029-.058.055-.022.029-.047.062-.081.079.008.032.037.03.067.028.023-.001.046-.003.06.011-.014.016-.05.022-.087.029-.05.01-.104.02-.104.054.01.021.026.014.043.008.016-.007.032-.013.043.002.007.09-.202.124-.343.147-.05.008-.09.014-.112.021a2 2 0 0 1-.126.037c-.155.042-.332.089-.394.218-.053.11-.092.224-.132.338s-.078.229-.132.339l-.018.039c-.066.138-.147.305-.12.458.02.121.273-.012.36-.058l.016-.009a.3.3 0 0 0 .1-.103c.056-.077.108-.149.233-.056m-1.61.631c.187.029.334-.117.363-.269a.3.3 0 0 1 .034-.089.25.25 0 0 0 .036-.111c-.189-.008-.393.333-.432.469Zm7.462 1.566c.089.075.176.149.287.207l.006.003c.075.039.205.107.176.199a.2.2 0 0 0 0 .058c.001.023.003.045-.004.058-.007.015-.022.023-.036.031-.018.01-.036.019-.04.041l.059.03c-.01.049-.161.375-.209.364-.026-.007-.055.006-.085.02-.034.015-.07.032-.109.026a.8.8 0 0 1-.233-.081 3 3 0 0 1-.25-.141.6.6 0 0 1-.088-.074.4.4 0 0 0-.13-.095c-.168-.055-.32-.172-.466-.285q-.09-.069-.176-.13-.04-.03-.078-.063c-.059-.052-.118-.103-.197-.113a.7.7 0 0 1-.2-.068c-.055-.024-.11-.049-.163-.061-.206-.05-.434-.209-.58-.353a.8.8 0 0 1-.176-.25.5.5 0 0 0-.126-.162 1 1 0 0 1-.071-.073c-.082-.097-.092-.21-.101-.324-.01-.11-.019-.22-.092-.315-.062.027-.095.165-.123.284a1 1 0 0 1-.047.158l-.02.037c-.046.079-.098.169-.065.26a.6.6 0 0 1 .033.205c.005.173-.021.35-.074.514a.4.4 0 0 0-.008.144.4.4 0 0 1-.005.149.5.5 0 0 1-.07.134.5.5 0 0 0-.075.145c-.026.096-.04.195-.056.293l-.015.097q-.015.1-.017.208c-.005.129-.01.261-.065.375-.032.066-.052.133-.073.199a1.2 1.2 0 0 1-.081.216c-.036.069-.028.143-.02.216.01.085.019.168-.042.239-.095.113-.287.121-.435.114a1 1 0 0 0-.14-.005c-.166-.005-.335-.01-.487-.066l-.142-.055c-.138-.054-.276-.109-.422-.143l-.093-.018c-.162-.029-.413-.075-.464-.181-.01-.018 0-.035.015-.048l-.092-.066-.044-.035c-.031-.027-.06-.05-.108-.055-.051-.006-.053-.102-.005-.107.03-.001.046.02.063.042.02.026.04.053.082.042.002-.057-.027-.068-.052-.077-.028-.011-.05-.02-.015-.088a.6.6 0 0 1 .059-.159c.035-.07.107-.091.18-.111.057-.017.115-.033.154-.075.042.02.05.071.058.115l.008.04c.018.061.086.09.145.114l.006.003c.187.077.369.149.573.179l.042.006.036.006c.232.038.446.073.462-.197.025-.377.074-.742.14-1.114.032-.174.073-.346.114-.518a8 8 0 0 0 .13-.622c.022-.131.03-.263.04-.396a6 6 0 0 1 .017-.236c.002-.016.01-.048.018-.088.029-.129.075-.336.002-.325-.145.021-.2.101-.268.212-.053.085-.12.158-.189.232q-.079.083-.148.173a2.5 2.5 0 0 1-.37.402c-.055.047-.111.082-.167.118a.9.9 0 0 0-.228.182q-.028.036-.043.062c-.026.042-.043.069-.126.097l-.053.015c-.056.014-.127.033-.15.058-.033-.008-.052.009-.072.027-.018.016-.036.032-.065.028-.014-.005-.008-.013-.003-.021s.01-.017 0-.023c-.046-.006-.084.024-.12.054-.026.02-.051.04-.078.048-.118.035-.054-.065-.003-.092.084-.046.177-.102.25-.16l.015-.012c.058-.045.148-.115.166-.168-.048-.029-.189.108-.218.137l-.002.002c-.026.028-.085.091-.134.069 0-.024 0-.076-.036-.084-.058-.011-.305.208-.284.237.022.004.038-.006.053-.015.017-.01.034-.02.056-.013.002.011-.006.026-.013.041-.017.034-.035.071.053.071.068 0-.047.125-.068.137-.017-.018-.02-.043-.022-.067-.002-.027-.005-.053-.026-.07-.023-.02-.05.007-.075.03a.1.1 0 0 1-.036.027c-.043-.026-.048-.066-.052-.102-.005-.035-.008-.066-.046-.074-.03-.007-.031-.061-.033-.114-.002-.036-.003-.072-.013-.093-.023-.049.001-.074.027-.101.022-.022.044-.046.04-.084.077.013.068.15.05.195.128.036.377-.203.498-.319v-.001l.05-.046.13-.117c.155-.138.309-.275.453-.424l.066-.068c.089-.089.179-.18.244-.283a.5.5 0 0 0 .04-.084.5.5 0 0 1 .051-.101l.042-.048c.07-.077.184-.202.086-.235.038-.088.108-.159.177-.229l.064-.066q.056-.064.105-.132.054-.076.118-.145c.051-.052.095-.108.14-.164a2 2 0 0 1 .117-.142 1 1 0 0 1 .087-.076c.05-.04.1-.08.13-.136-.026-.042-.136-.018-.257.008-.127.029-.267.059-.33.016-.224-.153-.319-.358-.245-.598.024-.079.039-.162.053-.246.025-.14.05-.282.12-.401.054-.093.123-.201.264-.197.087.002.159.071.224.133q.038.037.073.065c.12.09.244.038.35-.033.158-.103.18-.158.245-.32.08-.205.107-.417.133-.63.02-.15.038-.3.076-.448.026-.102.039-.276.019-.382a.5.5 0 0 1-.002-.126c.004-.076.009-.152-.035-.214a.1.1 0 0 1-.02-.08c.002-.03.005-.057-.045-.096a.2.2 0 0 1-.004-.061c.001-.035.003-.071-.02-.088-.124-.091-.099-.102.026-.145a.2.2 0 0 0-.037-.062c-.054-.077-.135-.193-.024-.19.064.003.135.059.2.11a1 1 0 0 0 .108.077l.114.056c.16.077.32.153.447.276.051.05.092.107.133.163q.045.065.098.126c.21.239.092.51-.024.777-.064.146-.127.29-.136.429a1 1 0 0 1-.028.15c-.04.17-.08.339.22.273a.63.63 0 0 1 .588.124c.19.142.214.347.155.55a.4.4 0 0 1-.047.107.4.4 0 0 1 .029.063q-.027.026-.045.04c-.038.032-.044.037-.026.135q.006.03.023.066c.026.06.054.125-.018.138q-.022.004-.046.006a.24.24 0 0 0-.102.024c-.047.027-.118.02-.187.013-.05-.005-.1-.01-.139-.003-.072.014-.155.002-.24-.01-.15-.022-.305-.044-.413.075-.122.133-.168.398-.2.583l-.009.048c-.014.081-.013.55.168.515.214-.041.506.353.644.539l.023.031.018.024c.13.171.222.355.314.54q.073.153.157.302c.101.061.208.113.315.165.168.083.336.166.483.28l.04.032c.152.12.312.246.483.354.085.053.157.113.229.174m-2.435-4.888-.021-.007c-.111.06.036.198.14.123.073-.053-.058-.096-.119-.116m.072.912c-.075-.007-.148-.014-.205.029-.026.019.014.038.053.056.025.012.049.023.052.034.094.014.308.023.39-.016.027-.013.065-.014.103-.016.053-.002.106-.004.127-.036-.032-.042-.265-.077-.32-.072-.059.035-.13.028-.2.021M41.24 98.394a.6.6 0 0 1-.126.107q-.06.04-.118.087c-.085.068-.17.136-.27.149a.3.3 0 0 1-.2-.04c-.037-.024-.043-.055-.05-.085-.005-.024-.01-.048-.03-.066-.036-.031-.031-.054-.026-.079.004-.02.008-.04-.005-.068a.4.4 0 0 1-.059-.205.06.06 0 0 0-.031-.028c-.02-.008-.035-.015-.024-.083l.003-.016c.01-.065.018-.118.08-.155q.066-.04.13-.075a1 1 0 0 0 .288-.205.6.6 0 0 1 .362-.183c.062-.009.294-.04.335.035-.048.096.132.14.222.142h.013c.04-.001.153-.004.142.018q-.008.014-.023.023-.019.012-.025.026c.007.026.042.027.093.028q.047 0 .11.008l.046.007c.134.018.482.064.44.194-.02.006-.042-.004-.063-.014-.033-.016-.064-.031-.08.018-.017.052-.066.051-.116.05a.3.3 0 0 0-.056.003l-.017.003c-.041.006-.106.016-.12.05s.003.039.022.044c.015.004.03.008.033.025l.01.01c.04.037.101.092.014.102h-.036c-.028-.001-.055-.002-.076.02-.032.03-.042.07-.05.109-.007.028-.013.055-.028.075-.008.011-.172-.023-.289-.048l-.11-.022a.3.3 0 0 1-.118-.012c-.059-.014-.116-.029-.162.016zm7.894-2.884c-.01.043-.009.161.024.188.021.017.108.09.076.122-.02-.016-.295-.2-.196-.054.037.055.023.055-.002.056-.017 0-.04 0-.053.019-.011.015.007.032.029.052.03.027.065.06.036.099-.032.043-.004.066.028.092.023.02.048.04.053.07q-.03.041.019.07c-.022.018-.052.016-.081.013-.037-.003-.074-.007-.091.032-.049-.01-.096-.061-.132-.1l-.015-.016c-.117-.122-.239-.223-.412-.238a.77.77 0 0 1-.392-.168.3.3 0 0 0-.124-.043.4.4 0 0 1-.135-.042 1 1 0 0 0-.177-.078.8.8 0 0 1-.227-.11 1.2 1.2 0 0 0-.405-.183 2 2 0 0 0-.32-.06q-.069.019-.075-.06c-.038.004-.581-.077-.549-.189a.4.4 0 0 0-.134-.027c-.057-.004-.117-.008-.173-.046a2 2 0 0 0-.168-.1c-.07-.04-.122-.069-.107-.073-.024-.08-.156-.044-.22-.026l-.018.005c-.048.011-.05.008-.073-.032l-.003-.005c-.017-.027-.06.004-.083.02l-.013.01c-.099.04-.219.033-.34.027-.147-.008-.296-.015-.407.06.104.014.213 0 .32-.015q.077-.012.15-.017c.147-.01.085.013.022.037-.033.013-.067.026-.07.035.02.024.037.024.05.024.018 0 .03 0 .039.05a.2.2 0 0 1-.11.042c-.046.01-.093.019-.121.059.02.01.037.004.054-.002.017-.005.034-.011.054-.002a.1.1 0 0 1-.017.03c-.014.02-.031.046-.016.055q.045.025.094.045c.04.018.08.035.12.06.008.006.033.013.061.021.074.02.175.048.109.086-.038.022-.028.047-.017.074.008.023.018.046-.003.07.032.07.106.062.167.055l.017-.001c.043-.005.066.021.09.048.02.022.041.044.073.052q.045.013.092.03c.045.016.09.032.137.038.105.016.107-.026.108-.067.002-.032.003-.064.055-.066.048-.002.094.034.137.068q.028.024.054.04a.8.8 0 0 0 .174.067l.024.008.039.012a.2.2 0 0 1 .06.033c.023.017.04.03.087.023a.4.4 0 0 1 .172.004c.054.01.11.02.162.01a.2.2 0 0 1 .061.002.15.15 0 0 0 .08-.003c.012-.006.023-.023.034-.041q.014-.025.032-.043c.02-.016.023-.037.026-.06.005-.028.01-.057.048-.075q.06.053.132.09c.086.05.124.124.167.205l.005.008a.6.6 0 0 1 .045.132q.011.047.028.095a.2.2 0 0 1 .011.102c0 .028-.002.056.006.085l.005.013c.044.149.09.304-.062.394a.8.8 0 0 1-.219.074.7.7 0 0 0-.226.08 1 1 0 0 1-.274.097 1.3 1.3 0 0 0-.222.07.8.8 0 0 1-.227.053.7.7 0 0 0-.262.072.8.8 0 0 1-.235.091c-.077.02-.064.052-.046.1l.017.051c.005.02.04.048.074.076.055.045.11.09.044.104.053.11.137.307-.076.234-.055-.02-.038.02-.023.056.009.02.017.04.013.048-.026.059-.117.074-.18.056l-.078-.02a1 1 0 0 1-.23-.072.2.2 0 0 1-.061-.052c-.02-.023-.035-.041-.082-.038-.053.004-.099-.023-.15-.053s-.107-.063-.18-.068a1 1 0 0 1-.24-.072 2 2 0 0 0-.146-.051.4.4 0 0 1-.204-.112c-.074-.073-.056.025-.02.067l.014.016c.037.044.071.085.127.11l.075.03c.125.052.197.082.251.235.028.079.002.088-.066.11h-.004c-.052.018-.038.075-.028.12l.006.025c.035.175-.023.426-.09.58a2 2 0 0 1-.17.302q-.072.113-.136.233c-.102.2-.193.363-.35.528-.075.079-.13.167-.186.256-.055.086-.11.173-.18.248-.08.085-.16.16-.242.235l-.14.131a.3.3 0 0 1-.09.054c-.04.018-.08.035-.106.08-.034.055-.063.062-.109.072l-.048.013c-.039.012-.08.061-.122.109-.054.063-.106.124-.147.093-.006.059-.039.037-.076.013-.022-.015-.045-.03-.064-.03-.04.001-.033-.014-.025-.031.007-.015.015-.032-.004-.045-.018-.013-.033.004-.047.021-.018.019-.034.038-.052-.001-.014-.031 0-.06.012-.088a.1.1 0 0 0 .016-.053c0 .025-.12-.025-.134-.041-.016.003-.015.015-.014.026s0 .022-.01.028c-.04-.016-.059-.051-.078-.087-.016-.029-.032-.059-.06-.077l-.052-.044c-.025-.021-.05-.043-.071-.055a2 2 0 0 1-.188-.13c-.057-.042-.114-.086-.18-.126a2 2 0 0 1-.45-.37l-.04-.041a2 2 0 0 1-.157-.182q-.018-.039-.04-.073c-.04-.063-.075-.118-.003-.172a.4.4 0 0 1 .066.108c.052.1.115.225.197.193.005-.05-.053-.113-.105-.17a1 1 0 0 1-.068-.083c-.04-.074.006-.118.054-.162a.3.3 0 0 0 .061-.071.5.5 0 0 1 .156-.192l.037-.032q.02-.018.042-.05c.04-.055.084-.116.125-.034.026.05.043.099.06.145a.7.7 0 0 0 .116.232c.094.118.173.19.314.252.11.047.208.086.323.07a.3.3 0 0 0 .048-.013c.035-.012.073-.025.108-.008.01.02.005.039 0 .057-.005.021-.01.042.006.065.053.012.128-.09.204-.19.083-.11.166-.221.217-.177-.019.097-.094.174-.166.247-.069.07-.134.136-.143.214.118.033.249-.165.33-.288l.05-.073q.06-.075.123-.149c.075-.09.15-.179.215-.274l.005-.007c.036-.05.076-.108.068-.175-.004-.028-.019-.035-.034-.042-.011-.005-.022-.01-.029-.026-.045-.109.088-.285.196-.429.055-.073.104-.138.12-.181l.031-.087c.046-.126.093-.256.128-.383l.03-.097c.037-.114.084-.258.068-.347l-.007-.028c-.013-.043-.033-.111.01-.12.059-.013.002-.116-.024-.137-.078-.063-.052-.104-.026-.146.019-.029.037-.058.025-.096-.064-.194-.169.11-.195.185l-.003.008-.026.084c-.039.13-.09.3-.204.352-.037.016-.047-.004-.057-.025-.012-.025-.025-.052-.085-.021-.094.047-.091.038-.082.007.008-.024.019-.061-.007-.098-.025-.001-.024.016-.024.033 0 .014 0 .03-.016.032-.027-.014-.036-.035-.045-.053-.013-.028-.022-.048-.08-.017-.087.047-.135-.035-.147-.11-.024-.001-.034.009-.042.016-.011.011-.017.017-.052-.024a.13.13 0 0 1-.024-.118c.01-.04.03-.075.05-.11a.5.5 0 0 0 .05-.111 1.7 1.7 0 0 1 .152-.36q.041-.08.078-.16c.068-.147.11-.307.153-.466q.042-.162.094-.319c.038-.11.067-.217.085-.332.013-.086.058-.114.116-.152l.046-.03c.03-.022.033-.049.036-.075.002-.03.005-.06.055-.083a1 1 0 0 1 .12-.044l.078-.026c.073-.028.137-.01.212.01l.027.006.029.007c.029.007.056-.01.086-.026a.2.2 0 0 1 .071-.032l.031-.004c.083-.013.246-.037.28-.076-.002-.05-.096-.059-.142-.063l-.022-.002a.13.13 0 0 0-.062.013c-.023.009-.046.018-.069.01a8 8 0 0 1-.36-.202c-.116-.067-.23-.133-.29-.165a.7.7 0 0 0-.247-.072l-.102-.016c-.137-.028-.336-.125-.412-.245q-.025-.036-.059-.078c-.038-.048-.077-.097-.093-.143-.028-.077 0-.204.016-.282l.003-.012.03-.135a2 2 0 0 0 .07-.47c-.002-.1.14-.038.22-.002l.04.017c.088.031.11.006.154-.045l.01-.011c.005-.007.247.043.264.07.05.078.027.158.007.231-.017.06-.032.115-.007.161.05.088.23.3.348.24.007-.034.179-.037.208-.002.085.104.475.223.644.243.015.011.009.026.002.041s-.014.032.004.045c.056.037.113.036.173.035h.027c.115-.002.28.052.41.094l.036.011.025.009c.141.043.669.142.738.14.105-.004.13-.051.116-.116a.4.4 0 0 0-.11-.178l-.046-.047c-.109-.111-.194-.198-.226-.36q-.016-.077-.037-.148a1 1 0 0 1-.049-.293c.004-.18.06-.36.156-.507a.08.08 0 0 1 .046.052c.009.031.012.072.017.115.006.063.012.13.034.178.022.052.058.083.118.066.014-.005-.01-.107-.033-.211a1 1 0 0 1-.037-.214.6.6 0 0 1 .206-.329c.098-.082.158-.129.276-.103.017.004.035-.006.053-.016.026-.013.052-.027.073-.004.014.014.02.032.028.05.011.033.023.063.069.066q.044.002.066-.006c.03-.007.043-.01.07.048.016.03.037.033.056.035s.035.005.038.035q-.002.03.028.049a.6.6 0 0 1-.026.178c-.024.101-.048.208-.016.235l.014.012c.034.031.105.096.129.093a.6.6 0 0 0 .058.225q.015.033.022.077c.01.052.02.106.065.131q.036.02.066.025c.04.012.073.02.1.085q.017.045.024.09c.011.05.021.1.06.148l.017.02c.047.057.093.113.05.183a1 1 0 0 1-.076.111l-.079.04-.025.08q-.012.052-.034.102c-.086.169.073.257.225.313.108.04.202.101.296.163q.11.077.232.136c.12.057.25.085.382.114a2 2 0 0 1 .464.146c.136.053.283.11.37.218l.016.021c.052.063.107.131.152.196.027.04.002.045-.029.052-.024.005-.052.012-.058.037m-4.469 1.804c.05.002.1.004.142.022l.039.018c.082.038.193.09.264.044-.01-.099-.568-.193-.634-.137.047.046.118.05.189.053m.727.068c-.138-.067-.054-.145.04-.075.088.066.063.124-.04.075m-1.001-1.985c.01-.089.024-.212.01-.22-.029-.019-.163.087-.183.105a1 1 0 0 1-.203.145l-.025.015c-.13-.057-.167.227-.192.425-.01.075-.018.137-.03.165q-.016.04-.055.11c-.09.166-.23.423-.099.498.014.008.057-.009.108-.028.062-.024.135-.052.18-.045a.8.8 0 0 0 .336-.041l.048-.013.038-.01q.06-.014.122-.031h.001c.11-.03.224-.061.33-.067.076-.003.14-.017.203-.03a2 2 0 0 1 .135-.026c.06-.008.115-.024.17-.04a1 1 0 0 1 .213-.044.7.7 0 0 0 .311-.08c.124-.076-.093-.072-.144-.056-.124.038-.188.007-.305-.047l-.028-.013a.6.6 0 0 0-.178-.045.44.44 0 0 1-.23-.08.54.54 0 0 0-.231-.094.6.6 0 0 1-.187-.064c-.103-.062-.119-.205-.124-.303 0-.01.004-.044.009-.086m1.451 3.631c.04.088.066.148.182.204.082.04.314.444.267.534-.014.025-.037.01-.062-.004-.022-.014-.044-.027-.061-.015-.042.032-.075.079-.105.121v.002c-.092.131-.148.3-.197.451a.6.6 0 0 0-.019.192.45.45 0 0 1-.037.231l-.037.057c-.045.064-.106.15-.082.202 0 0-.031.068-.087-.009-.022-.001-.032.017-.042.036-.015.028-.03.057-.084.029-.09-.047-.06-.125-.03-.2.017-.044.034-.087.026-.123-.036.01-.049.042-.06.069-.013.035-.023.061-.076.02a.1.1 0 0 0-.026.05c-.008.024-.015.047-.037.061-.006.004-.027-.011-.048-.026a.2.2 0 0 0-.045-.027.4.4 0 0 0-.161-.003c-.085.01-.16.019-.238-.082-.08-.102-.04-.255-.01-.368l.01-.039c.045-.181.09-.389.083-.58-.004-.163-.06-.299-.12-.45l-.009-.019a.33.33 0 0 1-.004-.27c.012-.03-.006-.05-.023-.068-.016-.019-.031-.036-.012-.058s.031-.056.043-.086c.025-.068.044-.121.124-.007.021.03.12.044.14.016.026-.034 0-.046-.021-.057-.013-.006-.025-.011-.025-.02 0-.035.088-.041.084-.026-.016.056.067.036.102.028l.01-.003c.127-.026.103-.07.067-.138-.02-.038-.044-.083-.048-.135.084.012.114.076.142.14a.3.3 0 0 0 .065.104l.02.015c.032.025.093.07.09.071.015-.003.018-.014.022-.025.004-.016.009-.031.046-.023a.08.08 0 0 0 .08.006c.066-.042.126.068.152.115l.003.006q.03.056.048.101M30.648 86.813a1 1 0 0 1-.105.111 2 2 0 0 1-.298.16.3.3 0 0 0-.08.06.3.3 0 0 1-.085.063c-.018.008-.039.002-.06-.004-.023-.007-.047-.014-.066.002q.09.09-.027.08c.044.075-.037.093-.107.108l-.013.003a.5.5 0 0 0-.222.111c-.048.038-.106.07-.135-.007-.035-.09-.058-.066-.101-.02l-.004.004c-.032-.027-.024-.066-.017-.1.006-.035.012-.065-.03-.067-.057-.003-.041-.033-.024-.065.014-.026.028-.054.005-.07-.066-.048-.158 0-.208.026l-.005.003c-.031.015-.097-.133-.051-.229a.2.2 0 0 1 .041-.06c.02-.023.034-.039.022-.07-.027-.084 1.416-1.118 1.554-1.211.068-.048.59-.492.62-.517l.05-.039a.4.4 0 0 0 .1-.093c.015-.023.008-.032.002-.041-.005-.008-.01-.016 0-.033a.5.5 0 0 1 .098-.099.73.73 0 0 0 .216-.353c-.066-.071-.02-.212.078-.19.048.012.08.068.109.12.032.059.062.112.109.099.115-.032.137-.027.16.116l.017.109c.052.32.097.592-.102.865a4 4 0 0 1-.576.628c-.06.05-.36.22-.44.246-.009.086-.108.13-.19.166l-.07.034a.7.7 0 0 0-.165.154m7.813-.73a.04.04 0 0 0-.01.019.3.3 0 0 0 .046.122c.038.04.018.102 0 .158a.3.3 0 0 0-.017.074c-.001.07-.034.06-.071.048-.026-.008-.055-.017-.076 0-.016.014-.012.038-.01.061.004.024.008.046-.01.053-.016.005-.022 0-.029-.007l-.005-.004-.01-.006a.1.1 0 0 0-.007.034c-.002.017-.003.034-.016.041q-.06-.008-.074.055l-.01.033c-.018.055-.035.105-.094.13q-.03.014-.062.02c-.042.011-.084.022-.116.056-.008.01-.01.029-.014.049-.004.03-.008.06-.034.062-.086 0-.17-.05-.253-.097a1 1 0 0 0-.138-.072.7.7 0 0 1-.24-.164c-.044-.04-.09-.082-.148-.12a9 9 0 0 0-.473-.299c-.093-.053-.17-.056-.25-.06a.7.7 0 0 1-.17-.024 3 3 0 0 1-.163-.058c-.158-.06-.314-.119-.481-.079.007.047.072.087.122.118l.042.027a.6.6 0 0 1 .111.128l.043.058a8 8 0 0 0 .506.56l.024.028c.037.044.075.09.127.11.024.009.048.006.072.004.03-.003.059-.006.089.012a.7.7 0 0 1 .193.218c.035.052.069.104.11.146.052.055.112.107.17.156q.03-.045.08-.01c.069.033.077.088.087.154l.003.018c.021.138.008.313-.033.435a.24.24 0 0 0-.005.107c.003.032.006.064 0 .096a2 2 0 0 1-.042.169l-.023.064c-.038.097-.094.24-.004.286.017-.01.02-.029.023-.047.004-.02.007-.04.03-.05.13.145.013.403-.073.591l-.051.118c-.22.139-.449.271-.674.4a1 1 0 0 1-.144.067.8.8 0 0 0-.22.122 2 2 0 0 1-.285.205 1.3 1.3 0 0 1-.188.087c-.11.045-.217.088-.294.185-.032.04-.071.052-.112.063-.028.009-.057.017-.085.036q-.07.043-.149.076a1 1 0 0 0-.156.08 2 2 0 0 0-.341.318 4 4 0 0 1-.167.174c-.116.11-.263.168-.41.227a3 3 0 0 0-.167.07.5.5 0 0 1-.093.03.3.3 0 0 0-.113.045q-.074.05-.137.11l-.01.008c-.065.055-.259.198-.364.13.004-.013.02-.024.035-.035.027-.02.056-.04.031-.073a.2.2 0 0 0-.076.05c-.033.028-.065.055-.11.054-.024-.001-.026.024-.029.055a.2.2 0 0 1-.018.074c-.08.13-.302.292-.344.275-.03-.013-.039-.002-.055.017l-.006.007a.6.6 0 0 1-.225.163c-.074.03-.15-.023-.223-.073a1 1 0 0 0-.086-.055c-.155-.081-.381-.24-.603-.575-.05-.078-.277-.466-.26-.578l-.009-.043c-.01-.052-.02-.11-.067-.136a.21.21 0 0 1-.111-.135 1 1 0 0 0-.05-.102c-.024-.044-.049-.088-.06-.14a.7.7 0 0 1-.011-.15q0-.045-.003-.091a.8.8 0 0 0-.09-.256l-.022-.077c-.013-.055-.029-.119-.053-.135-.024.017-.006.075.01.124.007.027.015.052.015.065-.072.091-.165-.257-.172-.293-.022-.121.164-.078.21-.03.031-.013.021-.04.012-.066-.011-.03-.023-.06.028-.07.044-.008.071.01.093.025.031.02.052.034.096-.048l.012-.023c.029-.06.07-.144.144-.082.022.018.04.022.055.026.024.006.04.01.05.064q.01.056.01.11c.024.258.16.585.284.817q.058.11.112.227c.084.18.17.36.3.507l.039.05c.056.074.129.17.21.149.098-.025.207-.077.296-.12.128-.063.242-.146.356-.23.105-.076.21-.153.326-.213q.166-.084.34-.156c.166-.07.33-.141.48-.235.133-.084.251-.189.37-.293.093-.084.187-.167.289-.24.203-.145.43-.278.66-.376.143-.06.256-.142.375-.23l.136-.097.012-.008c.19-.129.36-.245.515-.423.101-.117.313-.388.214-.573-.091-.166-.294-.349-.436-.468-.03-.027-.067-.046-.104-.066a.4.4 0 0 1-.148-.113.54.54 0 0 0-.181-.17c-.051-.028-.107-.018-.166-.007a.3.3 0 0 1-.162.001c-.053-.019-.11-.022-.168-.026a.7.7 0 0 1-.148-.02l-.043-.012c-.087-.026-.212-.062-.278-.034-.027.011-.062.176-.054.208.015.008.05-.007.082-.02.03-.014.059-.026.064-.016.008.015-.002.038-.013.06-.008.017-.016.034-.015.047q.002.042.014.083.009.037.013.075a.6.6 0 0 1-.038.212l-.012.04c-.067.24-.165.327-.383.142l-.158-.129c-.134-.107-.272-.217-.378-.336-.098-.11-.326-.325-.468-.379-.023-.008-.039.066-.053.134a.4.4 0 0 1-.026.097q-.018.027-.045.057c-.044.05-.094.108-.071.179.028.083.162.147.248.188l.023.012.01.005c.044.021.077.058.11.093.034.038.067.075.11.09.021.036.056.067.09.099.051.045.102.09.115.154q.005.034.008.079c.004.066.008.142.049.184-.002.039-.024.062-.046.086l-.023.026c-.017.022-.012.041-.008.06s.008.037-.01.056c-.029.028-.066.006-.102-.016-.037-.023-.073-.045-.099-.014.005.026.023.036.036.043.019.01.03.016-.015.056-.013-.002-.025-.014-.038-.027-.022-.022-.044-.044-.063-.01 0 .023.016.041.028.056.02.025.033.04-.046.052l-.011.001c-.03.005-.082.012-.087.03-.005.021-.147-.094-.24-.17l-.076-.06-.072-.05a3 3 0 0 0-.456-.27c-.125-.056-.245-.045-.363-.034a2 2 0 0 1-.131.01c-.233.003-.466.189-.602.36a.9.9 0 0 1-.305.25c-.036.018-.076.023-.116.029a.3.3 0 0 0-.125.035c-.144.093-.337.12-.487-.029-.012-.01.012-.042.038-.076.026-.035.054-.072.048-.093-.03-.102-.103-.047-.155-.008l-.007.005-.01.008c-.008-.023-.007-.046-.006-.069 0-.035.002-.068-.03-.098a.1.1 0 0 0-.037-.024c-.02-.01-.04-.019-.048-.048-.017-.057.015-.098.048-.138.029-.036.058-.072.052-.12-.014-.01-.026-.004-.037.001-.012.007-.024.013-.038 0-.013-.036.003-.07.018-.1l.01-.022c.03-.075.101-.221.158-.276.072-.07.188-.104.3-.138a1.4 1.4 0 0 0 .242-.092c.13-.054.326-.137.276-.296a.13.13 0 0 1-.004-.06.2.2 0 0 0 0-.05l-.037-.064a.4.4 0 0 1-.053-.103c-.016-.053-.068-.086-.12-.12a.4.4 0 0 1-.107-.09c-.131-.197.032-.368.18-.454.034-.02.065-.03.091-.04.054-.019.094-.032.132-.112.035-.071.06-.037.093.007l.022.028c.015.018.04.015.063.013l.023-.002.013.01.033.027a.5.5 0 0 0 .103.07c.084.038.182.04.272.04l.037.001c.131.003.28.037.41.066l.006.001c.03.007.037.026.046.047a.1.1 0 0 0 .027.046c-.014.024-.112 0-.195-.021a.5.5 0 0 0-.112-.022c.068.057.231.085.312.085.021 0 .044-.023.064-.043q.015-.016.027-.025c.046-.035-.008-.073-.048-.102l-.027-.02a1 1 0 0 0-.132-.1c-.132-.094-.29-.205-.305-.337-.022-.17.087-.353.183-.468.09-.11.39-.346.33-.042-.004.025-.055.32.028.228.021-.023.027-.056.032-.089q.004-.037.019-.07c.022-.043.008-.046-.006-.05-.01-.001-.022-.003-.02-.021 0-.014.044-.05.08-.078.018-.015.034-.028.04-.035a.2.2 0 0 1 .078-.048.2.2 0 0 0 .075-.047l.05-.07a1 1 0 0 1 .057-.077c.07-.076.002-.23-.074-.323-.098-.118-.064-.482-.048-.633.01-.106.047-.205.083-.304.045-.125.09-.25.087-.392-.002-.06-.006-.238.097-.2.055.021.095.073.133.124a.6.6 0 0 0 .074.087q.036.027.076.043c.037.017.075.034.1.073.02.03.03.07.04.109l.022.075c.055.132.142.252.233.362l.017.021.038.048c.133.167.299.375.495.407.073.011.25.032.282-.054.013-.035 0-.094-.013-.149-.008-.034-.016-.068-.016-.093a.4.4 0 0 1 .008-.073.16.16 0 0 0-.023-.138c-.036-.062.005-.199.049-.25.092-.11.23-.188.358-.26q.067-.037.128-.075l.097-.04c.122-.048.324-.128.396-.179.156-.11.389-.12.516.056a.44.44 0 0 1 .056.205c.01.096.022.193.09.248.035.03.078.046.12.062a.3.3 0 0 1 .125.07c.075.08.178.063.261.03.239-.096.483-.232.697-.37l.027-.017c.146-.093.256-.163.309-.337.008-.027.107-.19.125-.06 0 .027.02.064.05.073-.044-.112.051-.075.07-.068l.004.001c.044.02.106.32.106.371.11.188.114.546.107.75-.008.194-.037.485-.154.634-.08.101-.196.12-.32.097a.4.4 0 0 0-.146.007c-.047.007-.094.015-.142.007-.04.066.177.112.294.137q.054.011.068.017a.4.4 0 0 1 .091.058.5.5 0 0 0 .13.08l.075.04c.027.017.044.04.061.063.024.031.047.062.095.075.028.007.05-.011.072-.029a.1.1 0 0 1 .037-.024c.04.008.038.032.036.057-.002.02-.004.04.014.055a.1.1 0 0 1-.015.035m-6.297 1.201c-.044.018-.187-.062-.208-.107.106-.032.466.001.208.107m.036-.136a.2.2 0 0 1 .049.011c.041.018.082.002.118-.011l.011-.004c-.004-.076-.218-.052-.248-.02.02.018.045.021.07.024m.753-.543a.4.4 0 0 0 .105.109.1.1 0 0 0 .085.039c-.003-.052-.142-.168-.19-.148m.766.149c.049.01.098.02.148.021 0 0 .348.137.533.008-.032-.122-.204-.258-.35-.373-.068-.054-.13-.103-.17-.145a2 2 0 0 1-.107-.13c-.1-.127-.212-.271-.346-.298.021.071-.063.104-.132.131a.3.3 0 0 0-.068.032.6.6 0 0 0-.153.217 1 1 0 0 1-.065.12l-.002.004c-.022.032-.048.07-.042.113v.003-.003c.001.009.015.113-.005.085.035.048.162.156.116.036.073.018.144.045.215.072.105.039.208.078.317.088q.056.007.11.019Zm.481.736c-.038.05.174.11.195.112.03.002.125-.022.128-.063 0-.013-.294-.085-.323-.049m-3.411 2.773c.044.278.148.57.302.814.043-.05-.033-.221-.092-.353a1 1 0 0 1-.057-.14l-.003-.014c-.018-.078-.07-.305-.15-.307m1.96 1.63c.026-.02.048-.039.062-.047l.005-.002c.065-.036.376-.206.349-.279-.07-.044-.206.087-.282.16q-.025.024-.04.035a.5.5 0 0 1-.096.054c-.09.044-.198.096-.19.177.044.021.129-.047.192-.098m.58-.074.016-.008c.021-.012.174-.107.135-.136-.033-.024-.058-.003-.085.018-.032.026-.065.053-.115.008a.2.2 0 0 0-.092.112c-.04.11.09.035.142.006Z" fill="#006f4f"/></svg>