<svg width="128" height="137" fill="none" xmlns="http://www.w3.org/2000/svg"><g filter="url(#a)" fill-rule="evenodd" clip-rule="evenodd" fill="#711a5f"><path d="m45.36 28.835 1.73-.9 3.615 7.208-1.56.898zm17.79-4.765 1.977-.107.129 5.075a4.2 4.2 0 0 1-.18 1.36 3 3 0 0 1-.645 1.14q-.447.495-.949.709-.692.303-1.677.345a10 10 0 0 1-1.243-.027q-.674-.051-1.134-.277a2.8 2.8 0 0 1-.846-.658 2.5 2.5 0 0 1-.535-.906q-.245-.761-.261-1.354l-.129-5.075 2-.106.131 5.188c.011.44.137 1.137.381 1.376.243.236.976.344 1.395.326.414-.018 1.163-.154 1.391-.408.23-.255.34-.964.327-1.412l-.132-5.19Zm5.916.333 1.918.276 3.076 6.512 1.19-5.254 1.618.269-1.82 8.085-1.773-.472-2.92-6.466-1.236 5.366-1.706-.134zm11.102 3.083 1.751.764-3.592 7.59-1.64-.854zM47.773 99.715l2.612-5.03-1.47-.447.43-1.146 3.135 1.12-3.249 6.262zm13.303-.056q.036-.116.063-.224.027-.109.038-.188.151-1.036-.082-1.328-.236-.29-1.157-.426l-1.943-.286q-.74-.11-1.045.037-.305.143-.378.647l-.059.391q-.075.511.212.736c.189.152.598.27 1.226.365a31 31 0 0 0 3.125.276m-.238 1.063a19 19 0 0 1-1.559-.049 23 23 0 0 1-1.573-.174q-1.699-.25-2.274-.74-.576-.486-.426-1.502l.137-.942q.13-.875.771-1.207.645-.334 1.876-.151l2.96.436q1.327.193 1.75.731.422.536.239 1.77l-.135.922q-.289 1.958-1.797 2.826-1.512.869-3.979.506-.206-.03-.308-.049a2 2 0 0 1-.193-.045l-.797-1.263.445.066q2.242.33 3.3.065 1.059-.264 1.563-1.2m6.949 2.509-.604-5.481-1.542.17-.1-.902 3.02-.775.755 6.82zm11.153-6.568a2.6 2.6 0 0 0-.107-.41q-.354-.985-.698-1.132-.346-.147-1.222.168l-1.848.665q-.701.252-.903.523-.202.272-.03.751l.134.373q.174.486.532.55t1.254-.258q.632-.227 1.365-.537a31 31 0 0 0 1.523-.693m.291 1.05q-.68.372-1.399.691-.719.317-1.47.59-1.616.578-2.353.42-.736-.16-1.083-1.125l-.324-.895q-.298-.834.112-1.43.408-.594 1.583-1.017l2.813-1.01q1.263-.455 1.889-.18.624.274 1.046 1.448l.315.876q.67 1.863-.254 3.34-.921 1.48-3.269 2.323-.196.07-.294.101a2 2 0 0 1-.193.05l-1.296-.737.423-.152q2.13-.766 2.94-1.497.811-.734.814-1.796"/><path d="M20 64c0-24.263 19.737-44 44-44s44 19.738 44 44c0 24.263-19.737 44-44 44-24.262 0-44-19.737-44-44m44-42.254c-23.298 0-42.254 18.956-42.254 42.255 0 23.297 18.956 42.253 42.255 42.253 23.297 0 42.253-18.956 42.253-42.253 0-23.3-18.956-42.255-42.253-42.255Z"/><path d="m64 36.449 8.285 8.285h11.107V55.84l8.474 8.474-2.596 2.592-5.253 5.252v11.296h-11.92L64 91.552l-7.972-7.974H44.36V72.285l-8.223-8.223 8.223-8.222V44.546h11.544l8.098-8.097Zm0 2.47-7.373 7.373H46.105v10.271l-7.5 7.5 7.5 7.498v10.271h10.648L64 89.082l7.373-7.374H82.27V71.435l7.124-7.122-7.749-7.75V46.48H71.561l-7.56-7.562Z"/><path d="M34.618 64c0-16.201 13.18-29.38 29.383-29.38S93.382 47.799 93.382 64s-13.18 29.38-29.381 29.38c-16.202 0-29.383-13.179-29.383-29.38m29.383-27.635c-15.238 0-27.637 12.398-27.637 27.634 0 15.238 12.399 27.636 27.637 27.636 15.237 0 27.635-12.398 27.635-27.636 0-15.236-12.397-27.634-27.635-27.634M25.42 74.87l-.127-1.954 4.708-4.873-5.568.843-.271-1.561 8.264-1.283.045 1.752-4.94 5.144 5.946-.882.08 1.533-8.136 1.281Zm4.182-15.361-3.44.756 3.297 1.423zm1.383-.359-.228 3.325 1.747.717-.352 1.7-7.79-3.72.216-2.215 8.426-2.263-.209 2.028zm-5.069-6.669.754-1.708L33.347 49l-5.232-2.02.505-1.551 7.78 2.987-.694 1.597-6.873 1.974 5.199 2.257-.64 1.552z"/><path d="m30.304 42.595 1.203-1.601 2.76 1.943-1.28-4.066 1.326-1.751 1.436 4.582 5.413.291-1.168 1.819-4.76-.157 3.009 2.178-1.078 1.617zm13.252-6.41-2.888-2.031 1.184 3.273zm1.311.8-2.602 1.86.543 1.808-1.324 1.068-2.68-8.284 1.825-1.468 7.337 4.589-1.572 1.349zm39.096-7.522 1.796.968-1.953 6.285 5.075-3.976 1.46 1.371-7.097 4.693-1.392-.987zm8.726 6.562 2.927 3.712-1.151.951-1.887-2.378-1.294 1.144 1.974 2.43-1.1.907-1.975-2.43-1.689 1.507 1.956 2.46-1.104.891-3.113-3.677zm2.829 9.664.532.863c.46.847 1.195.572 1.334.485.209-.129.93-.513.33-1.463l-.556-.9zm-5.04.834 6.883-4.025 1.683 2.856c.639 1.017.361 1.89.203 2.27-.159.382-.353.61-.763.863q-.535.33-1.07.336a2.14 2.14 0 0 1-1.03-.258c-.21-.11-.475-.343-.855-.553l-2.089 3.66-1.235-1.797 1.796-2.538c.287-.35.38-.977.38-.977l-2.925 1.926zm5.192 6.047s-.623 1.398-.414 1.979c.117.328.465.727.716.817.471.169.673.053.89-.014a.74.74 0 0 0 .462-.424c.098-.22.096-.556.16-1.022.155-1.139.262-1.524.5-2.074q.357-.831 1.297-1.124a2.44 2.44 0 0 1 1.296-.034c.453.105.753.227 1.135.601.382.376.754.882.946 1.683a3.04 3.04 0 0 1-.538 2.492l-1.146-.876c.135-.622.226-1.315.152-1.651-.118-.539-1.28-1.264-1.802.438-.32 1.035-.203 3.79-2.784 3.696-.551-.021-1.62-.055-2.42-1.659-.506-1.009-.439-2.272.37-3.569l1.18.74Zm7.914 5.439.135 1.82-8.403.876-.136-1.786zm.557 3.931-.116 6.239-1.699-.03.039-2.202-6.927-.09.038-1.92 6.927.092.039-2.118zm-.405 7.91-.607 2.139-3.241.715 2.644 2.341-.633 1.896-3.79-3.756-3.484-.607.286-1.903 3.856.675zM37.57 86.739a1.38 1.38 0 1 1-2.758-.002 1.38 1.38 0 0 1 2.758.002m55.511 0a1.378 1.378 0 1 1-2.756 0 1.378 1.378 0 0 1 2.756 0m-38.264-27.44c-.617-.024-1.664-.51-2.212-.077-.394.31-.125.607.15.907.417.454.776.846 1.106 1.37.315.505.704 1.206 1.404 1.124 1.025-.12 1.126-1.587 1.695-2.234.072-.082.242-.14.337-.197q.178-.108.346-.236c.147-.116.394-.33.285-.544-.122-.24-.525-.266-.752-.273-.359-.014-.713.046-1.068.09a8 8 0 0 1-1.291.07m1.413-10.962c.343.297.573.8.579 1.285.014 1.248-.449 2.468-.076 3.718.086.29 1.18.372 1.404.364.451-.013 1.111-.134 1.288-.619.19-.521-.299-1.144-.443-1.619-.163-.529-.151-1.354.293-1.775 1.015-.957 2.085.95 2.308 1.718.284.985.405 2.309-.173 3.218-.531.835-1.698.982-2.578 1.014-.6.023-2.078-.209-2.062.702.01.685.918 1.317 1.532 1.334.695.02 1.427-.261 2.128-.28.617-.015 1.51.128 1.865.703.39.632.653 2.462.758 3.73.3 3.623-.336 8.597-.252 11.06.064 1.928.734 4.28-1.643 3.473-.54-.583-.171-1.293-.128-2.058.12-2.085 0-4.695 0-7.202 0-1.114.171-2.229.145-3.343-.017-.752.127-2.94-.82-3.197-.84-.227-1.613.787-1.979 1.395.251.432 1.154.198 1.264.771-.167.56-.037 1.42-.379 1.802-.638.342-1.702-.296-2.402.129-.267.39-.506.883-.126 1.284 1.092.112 2.485-.101 2.654.901.27 1.594-1.675.874-2.528 1.671-.63 2.647.375 7.177 0 9.518-.071.452-.281 1.45-.884 1.544-1.127.175-1.556-1.987-1.643-3.087-.248-3.118.417-5.647-.126-8.231-1.118-.286-2.384.067-2.53-.9-.214-1.424 1.897-.743 2.53-1.8.084-1.524-1.704-.434-2.403-1.03-.293-.25.068-1.898.05-2.282-.032-.733-.795-2.032-1.355-.874-.585 1.204-.282 2.94-.165 4.217.07.76.173 1.522.206 2.283.1 2.217.82 8.856-.632 9.133-1.53.288-1.554-2.143-1.643-3.731-.177-3.16.196-8.148 0-10.932-.064-.904-.617-2.483-.506-3.087.442-2.39 3.8-1.266 5.399-1.959.373-.161 1.336-.823 1.046-1.329-.239-.413-1.436-.289-1.852-.336-1.117-.128-2.421-.22-2.95-1.393-.19-2.045.29-4.908 1.77-4.5 1.47.404.135 1.971.632 3.215.207.516 1.018 1.214 1.897.9 1.913-.681-.073-4.112 1.038-5.35.527-.587 1.087-.52 1.492-.168M68.012 59.59c.301.075.788-.17 1.037-.304.313-.168.551-.41.712-.683.536-.894.066-2.578-1.483-1.905-.792.345-.866 1.291-.805 1.924.027.28.145.85.516.961zm-.518-5.86c-.433.474-.14 1.213.794 1.377.342.06 1.386-.036 1.55-.416.267-.619.181-1.244-.157-1.447-.339-.203-.93.014-1.484.129-.321.064-.555.196-.703.357m3.807 7.273c-.549.522-1.643-.01-2.33.212-2.15.698-.994 6.113-1.272 8.522-.17 1.49-.657 3.01-1.016 4.326-.267.971-.4 2.056-.797 2.984-.563 1.32-1.996.353-1.91-.799.061-.838.594-1.522.797-2.313 1.475-5.693 1.4-14.76.637-20.987-.062-.503-.145-1.032-.053-1.537.06-.333.315-1.038.692-1.104.374-.068.894.524 1.192.713 1.02.652 1.79.558 2.112-.743.258-1.043-.42-1.337.382-1.78 1.762-.973 1.954 3.313 2.035 4.325.15 1.856.143 3.71-.005 5.565-.058.717.02 1.623-.255 2.3a.9.9 0 0 1-.21.316Zm5.513-1.678a.7.7 0 0 0 .159-.282c.165-.577.115-1.214-.223-1.711-.178-.261-.887-.496-1.2-.446-.18.03-.5.046-.614.164s-.077.25-.135.404c-.213.566-.098 1.7.495 2.052.45.267 1.18.195 1.518-.18Zm-2.043-4.835c.152.217.375.387.656.474.594.184 1.654.33 1.919-.438.071-.204-.247-.743-.36-.905-.2-.282-.48-.492-.788-.64-.471-.225-1.327-.445-1.568.194-.175.463-.113.955.14 1.315Zm1.324-3.069c.185.009.683-.415.875-.502.294-.131.595-.245.923-.246 1.233-.005 1.257 1.198 1.145 2.102-.171 1.376-.314 2.713-.332 4.102-.037 2.767.043 5.511.192 8.275.085 1.547.205 3.094.291 4.643.05.911.092 1.824.138 2.735.043.836-.097 1.804.137 2.613.218.748.963 2.42-.318 2.736-1.668.412-1.904-2.54-2.034-4.07-.173-2.054.83-11.172-.635-12.211-.703-.498-1.391-.286-2.175-.22-1.027.087-1.627-.22-1.61-1.254.016-1.003-.137-1.978-.187-2.979-.114-2.239-.245-4.578.136-6.8.08-.471.242-1.55.91-1.594 1.407-.097.962 2.61 2.544 2.67"/><path d="M75.368 62.405q.063.134.087.305c.046.339-.07.706-.167 1.027-.112.384-.48.777-.262 1.176.175.324.654.319.687.755.036.495.043.907-.198 1.358-.243.453-.52.618-.544 1.155-.022.51.003 1.025-.013 1.537-.035 1.235-.092 2.473-.008 3.71.067.999 1.211 3.863-.213 4.401-.686.258-1.374-.35-1.573-.936-.31-.915-.114-2.036-.083-2.98.065-2.06.373-4.166-.039-6.21-.165-.827-.795-1.745-.36-2.596.108-.215.328-.346.322-.572-.004-.174-.244-.447-.32-.599-.243-.47-.39-.901-.15-1.411.293-.616.924-.785 1.56-.75.525.029 1.06.175 1.274.63m-4.107 5.298c-.257 2.862-.023 6.064-.89 8.649-.293.87-1.413 3.242-2.29 3.053-1.524-.33.098-2.543.38-3.307.782-2.094 1.288-5.515.892-8.14-.646-.457-.731-1.44-.521-2.142.104-.342.698-.681.76-1.008.074-.398-.539-.671-.735-.974-.373-.583-.297-1.178.27-1.608.801-.607 2.855-.443 2.507.958-.143.576-.757 1.005-.65 1.624.094.548.928 1.07.913 1.624-.016.579-.505.968-.636 1.271"/></g><defs><filter id="a" x="-13" y="0" width="154" height="157" filterUnits="userSpaceOnUse" color-interpolation-filters="sRGB"><feFlood flood-opacity="0" result="BackgroundImageFix"/><feColorMatrix in="SourceAlpha" values="0 0 0 0 0 0 0 0 0 0 0 0 0 0 0 0 0 0 127 0" result="hardAlpha"/><feOffset dy="16"/><feGaussianBlur stdDeviation="6.5"/><feColorMatrix values="0 0 0 0 0 0 0 0 0 0 0 0 0 0 0 0 0 0 0.03 0"/><feBlend in2="BackgroundImageFix" result="effect1_dropShadow_49_8131"/><feBlend in="SourceGraphic" in2="effect1_dropShadow_49_8131" result="shape"/></filter></defs></svg>