<svg xmlns="http://www.w3.org/2000/svg" viewBox="0 0 128 38.9"><defs><style>.cls-1{fill:#00532e;fill-rule:evenodd}</style></defs><g id="_图层_1" data-name="图层_1"><path class="cls-1" d="M27.8 5.6C20.2 5.6 14 11.8 14 19.4s6.2 13.8 13.8 13.8S41.6 27 41.6 19.4 35.4 5.6 27.8 5.6m0 .8c7.2 0 13 5.8 13 13s-5.8 13.1-13 13.1-13.1-5.8-13.1-13.1 5.8-13 13.1-13"/><path class="cls-1" d="M27.8 10.3c-5.1 0-9.2 4.1-9.2 9.1 0 5.1 4.1 9.2 9.1 9.2 5.1 0 9.1-4.1 9.1-9.2s-4.1-9.1-9.1-9.1Zm0 .7c4.7 0 8.5 3.8 8.5 8.5S32.5 28 27.8 28s-8.5-3.8-8.5-8.5 3.8-8.5 8.5-8.5"/><path class="cls-1" d="M25.7 26.5h.3l-.2.7h.2s.3-.9.4-1h-.3c-.1 0-.3 0-.3.2Zm3.3.1h.2c0-.1 0-.3.2-.2s0 .3 0 .3v.2h.3s.1.3 0 .3-.1 0-.1-.1h-.2c.1.5.8.3.7-.2 0-.1-.1-.2-.3-.2 0 0 .1-.2 0-.3 0-.2-.3-.2-.5-.1-.2 0-.2.2-.2.4Zm-1-.2v.6c.1 0 .1-.2.3 0 .2 0 .1.3 0 .4-.2 0-.2 0-.2-.1h-.2c.1.7 1.1.2.7-.3 0-.1-.2-.2-.4-.1 0-.2 0-.1.4-.2v-.2H28Zm-.7.6v.2h-.4c0 .4.5.4.6.2s.2-.7 0-.9-.5-.2-.7.1c-.1.3.2.6.5.4m-.2-.5c.2-.1.3.3.1.4s-.3-.3-.1-.4m1.6-.6h4.1c-.1 0-.7-.2-.9-.2-.7-.1-1.5-.1-2.2 0-.2 0-.9.1-1 .2m-5.8 0H27s-.7-.2-.9-.2c-.7-.1-1.5 0-2.2 0-.2 0-.8.1-1 .2m9.7-.4-.4-1.7c-1.4-.3-3-.3-4.4.2-1.4-.4-2.9-.5-4.4-.2l-.5 1.7c.4-.1.8-.2 1.2-.2 1.2-.2 2.5 0 3.7.2 1.2-.3 2.5-.4 3.7-.2.4 0 .7.1 1.1.2m.6.4c-.5-.2-.9-.3-1.4-.4-1.6-.3-3 0-3.9.3-.9-.3-2.3-.6-3.9-.3-.5 0-1 .2-1.4.4l.7-2.2c1.5-.4 3.1-.3 4.6.2 1.5-.5 3.1-.6 4.6-.2zm-4.8-.3v.4h-1.3v-.4z"/><path class="cls-1" d="M27.8 11.9c-.2 0-.4 0-.6.3L27 12c.2-.2.5-.4.8-.4s.5.1.8.4l-.2.2q-.3-.3-.6-.3m-.7.5c-.2.3-.5.8-.6 1.3h-.3c.2-.7.4-1.2.7-1.5l.3.2Zm2.1 1.3c-.2-.6-.4-1-.6-1.3l.2-.2c.3.3.5.8.7 1.4h-.3Zm-2.9.3q-.15.6-.3 1.5h-.3c0-.6.2-1.1.3-1.6h.3Zm3.3 1.5c0-.5-.2-1-.3-1.5h.3c.1.4.2.9.3 1.4h-.3Zm-3.6.3c0 .5-.1 1-.1 1.5h-.3c0-.5 0-1 .1-1.5zm3.8 1.5c0-.5 0-1-.1-1.5h.3c0 .4.1 1 .1 1.5zm.1 1.1v-.8h.3v1.5h-.3v-.8Zm-4.1-.8v1.5h-.3v-1.5zm0 1.8c0 .5 0 1 .1 1.5h-.3c0-.5-.1-1-.1-1.5zm3.9 1.5c0-.5.1-1 .1-1.5h.3c0 .5 0 1-.1 1.5zm-3.7.4c0 .5.2 1 .3 1.5H26c-.1-.4-.3-.9-.3-1.4h.3Zm3.3 1.4q.15-.6.3-1.5h.3c0 .6-.2 1.1-.3 1.6h-.3Zm-2.9.3c.2.6.4 1 .6 1.3l-.2.2c-.3-.3-.5-.8-.7-1.4h.3Zm2.2 1.4c.2-.3.5-.8.6-1.3h.3c-.2.7-.4 1.2-.7 1.5zm-1.3.2q.3.3.6.3c.3 0 .4 0 .6-.3l.2.2c-.2.2-.5.4-.8.4s-.6-.1-.8-.4z"/><path class="cls-1" d="M23.2 17c-.6-.1-1.1-.2-1.5-.1v-.3c.4 0 .9 0 1.5.1zm-1.8-.1c-.3 0-.4.2-.5.3 0 .2-.1.4 0 .6h-.3V17c.1-.2.4-.4.7-.5v.3Zm3.5.6c-.5-.2-.9-.3-1.4-.5v-.3c.5.1 1 .3 1.5.5v.3zm1.7.7c-.5-.2-.9-.4-1.4-.6v-.3c.6.2 1 .4 1.5.6v.3zm.9.5c-.2-.1-.4-.2-.7-.4V18c.6.2 1 .5 1.5.8l-.2.3c-.2-.1-.4-.3-.6-.4m-6.6-.5c.2.4.4.8.8 1.2l-.2.2c-.4-.5-.7-.9-.9-1.3zm8.8 2-1.2-.9.2-.3c.4.3.9.6 1.3.9l-.2.2Zm-7.7-.6c.3.3.7.7 1.1 1l-.2.2c-.4-.3-.8-.7-1.1-1zm9 1.8c-.3-.3-.7-.7-1.1-1l.2-.2c.4.3.8.7 1.1 1zm-7.6-.6 1.2.9-.2.3c-.4-.3-.8-.6-1.3-.9l.2-.2Zm8.7 2.1c-.2-.4-.4-.8-.8-1.2l.2-.2c.4.5.7.9.9 1.3h-.3Zm-7.2-1c.4.3.9.5 1.3.8v.3c-.6-.2-1-.5-1.5-.8zm1.6.9c.5.2.9.4 1.4.6v.3q-.9-.3-1.5-.6v-.3Zm5.6 1c0-.2.1-.4 0-.6h.3v.8c-.1.2-.4.4-.7.5v-.3c.2 0 .3-.2.4-.3Zm-4-.3c.5.2 1 .3 1.4.5v.3c-.5-.1-1-.3-1.5-.5zm1.8.6c.6.1 1.1.2 1.5.1v.3c-.4 0-.9 0-1.5-.1z"/><path class="cls-1" d="M32.4 16.7c.6-.1 1.1-.2 1.6-.1v.3c-.4 0-.9 0-1.5.1v-.3Zm1.9-.1c.3 0 .6.2.7.5.1.2.2.5 0 .9h-.3v-.7c0-.2-.3-.3-.5-.3v-.3Zm-3.7.6c.5-.2 1-.3 1.5-.5v.3c-.4.1-.9.3-1.4.5v-.3Zm-1.7.8c.5-.2.9-.5 1.4-.6v.3c-.3.2-.8.4-1.3.6V18zm-.9.5c.2-.1.5-.3.7-.4v.3c-.3.2-.7.5-1.2.8l-.2-.3c.2-.1.4-.3.7-.4m7-.2c-.2.4-.5.8-.9 1.3l-.2-.2c.4-.4.7-.9.8-1.2zm-9.2 1.6c.4-.3.8-.6 1.3-.9l.2.3-1.2.9-.2-.2Zm8.1-.1c-.3.3-.7.7-1.1 1l-.2-.2c.4-.3.8-.7 1.1-1zm-9.5 1.4c.3-.3.7-.7 1.1-1l.2.2c-.4.3-.8.7-1.1 1zm8.1-.1c-.4.3-.8.6-1.3.9l-.2-.3c.4-.3.9-.6 1.2-.9l.2.2Zm-9.2 1.6c.2-.4.5-.8.9-1.3l.2.2c-.4.4-.7.9-.8 1.2zm7.7-.6c-.4.3-.9.5-1.3.8v-.3c.3-.2.7-.5 1.2-.8l.2.3Zm-1.7 1c-.5.2-.9.5-1.4.6v-.3c.3-.2.8-.4 1.3-.6v.3Zm-6.1.8c-.1-.2-.2-.5 0-.9h.3v.7c0 .2.3.3.5.3v.3c-.4 0-.6-.2-.8-.5Zm4.4-.1c-.5.2-1 .4-1.5.5V24c.4-.1.9-.3 1.4-.5zm-1.8.6c-.6.1-1.1.2-1.6.1v-.3c.4 0 .9 0 1.5-.1v.3Z"/><path class="cls-1" d="M28.6 19.6s-.1-.2-.2-.3c0-.2-.1-.4-.2-.5v-.4h-1v-.2h1.4s.1 0 .2.1v.1c-.1.2-.1.5 0 .7 0 .1.1.3.2.4v.2l-.3.2Zm.1.9h-1.8v-.2q-.15 0 0 0h1.9v-.1h.2c.1 0 .1 0 0 .2 0 0 0 .1-.2.2ZM27 18.7h.3c0 .4-.2.7-.5.9v-.7Zm6.9-1.4h-4.6l-1.4-4.4-1.4 4.4h-4.6l3.8 2.7-1.4 4.4 3.8-2.7 3.8 2.7-1.4-4.4 3.8-2.7Zm-9.7 11.8-.4-.2v.2l-.4 1c-.2.4-.1.1-.2.3h.2l.2.1v-.4l.2-.4c0-.1.1-.3.2-.4v-.2c0-.1 0 0 .1-.1Zm-3.8-2.3c.1-.2.4 0 .2-.2l-.3-.3v.2l-.1.2-.3.3c0 .1-.2.2-.3.3-.3.3-.2 0-.3.2l.2.2s.1.2.2.1v-.1l.3-.3.2-.2.2-.2.2-.2Zm-4.5-6.2v.5h1.5v-.4h-1.5Zm23.7.9s-.5-.2-.5-.1 0 0 .2.2c0 0 .1.2 0 .3-.1 0-.9-.2-1-.2H38c-.2 0 0-.2-.2-.1v.5h.7c.1.2.3.2.4.2.5.1.1.2.3.2 0 0 .2-.7.2-.8ZM21 27.1s0-.1-.1-.2c-.1 0-.1-.2-.2-.2v.2c-.1.2-.7 1.2-.8 1.3 0 0 .3-.1.4-.2l.9-.6h.2l-.2-.2c-.1 0 0 0 0 .2-.1 0-.2.2-.3.2 0 0-.2.2-.3.2zh.1Zm16.6-1.6v.1c.2.1.2.4 0 .4s-.5-.2-.7-.3c-.2 0-.4-.3-.5-.4-.1-.2 0-.2.2-.2s.3.1.3 0c0 0-.4-.3-.5-.3v.2c-.3.1-.2.5 0 .7.3.4 1.1.8 1.4.3v-.4l-.1-.1Zm.4-6.6v.4c.1 0 0 0 .2-.1.4-.1.8-.3 1.3-.3 0 .1 0 .1.1 0v-.5c-.2 0 0 0-.2.1h-.7c-.1 0-.3 0-.4-.1-.3 0-.1-.2-.3-.2v.4c.2 0 0-.2.4 0 .1 0 .3 0 .4.1-.1 0-.5.2-.6.2 0 0 0-.1-.1 0Zm-21.7.4h-.4v.5h.2s.5-.1.6-.2c.3 0 .6-.1.9-.2 0-.2 0-.2-.3-.2l-1.2-.3c-.1 0 0 0-.2-.1v.4c.2 0 0-.2.4 0v.3Zm.1-.1v-.3c.1 0 .4 0 .5.1l-.5.1Zm9.2 10.3h-.4V31l-.1.1h.5c0 .1 0 0 0 0s-.1 0 0-.2c0-.5.2-.5.4-1 .2-.3.2-.1.3-.3 0 0-.3-.1-.4-.1v.2s-.3.5-.3.6v-.7h.1-.1Zm8.5.2c0-.2 0 0 .3-.1s.2-.5 0-.7c-.3-.3-1.1-.2-1-.5 0-.3.4 0 .5 0h.2s-.3-.4-.3-.5l-.1.1c-.2 0-.2 0-.3.2v.4c.2.4.7.2 1 .4 0 0 .2.2 0 .3H34c-.2-.1-.2-.2-.3-.1 0 0 .3.4.3.5ZM16 20.2h1.4c0 .2-.3.2-.4.2-.2 0 0 .1 0 .1h.5v-.9H17c0 .1 0 0 .1 0h.2c.1 0 .2 0 .2.1H16zl.1-.1Zm6.4 9.9h.3c.2.3.6.1.7-.2 0-.3 0-.4-.1-.7 0-.3-.2-.5.2-.5v.5s.2-.4.2-.5h-.2l-.1-.1H23c-.5.3.3 1.2 0 1.4-.1 0-.2 0-.3-.2v-.3l-.1-.1-.2.5Zm13.1-3.5c.2 0 .3.2.5.2l-.4-.5-.6.6s.3.4.4.4c0-.1-.2-.4-.2-.5.1 0 .2.2.3.3l.1.1.4.4c.3.3 0 .2.2.3l.1-.1h.1c.3-.4 0-.3 0-.3l-1-1Zm-11.4 3.2h.1c0-.1.1-.3.3-.4l-.4 1.4H24l.5.1v-.2s.1-.5.1-.6v-.4c.1 0 .2-.2.2-.2v-.2c.1.4 0 .4 0 .5s.1-.5.1-.6L24 29l-.2.6Zm6.8-.4c.4-.1.3.2.5.3s-.2-.5-.2-.5l-.8.2c0 .2 0 0 .1.1l.4 1.2c0 .1-.1 0 0 .2h.5-.1c0-.2-.2-.4-.2-.6.3 0 .2.3.3.2l-.2-.6v.3s-.2-.5-.2-.6Zm-11.6-4.3c-.1 0 0 0-.1.2 0 0-.1.1-.2.1-.1.1-.7.5-.8.6-.2 0-.4-.2-.2-.3l.8-.6.2-.1c.1 0 .4.2 0-.3-.1-.2 0-.2-.2-.2 0 .1 0 0-.1.2 0 0-.1 0-.2.1-.5.4-1 .6-.7 1s.6.1.8 0l.4-.3c.3-.2.2-.2.4-.1 0-.2-.1-.3-.2-.3Zm8.5 5.4v-.4c0-.1 0-.3.1-.2.1 0 .2 0 .2.2v.2h.1v-.5h-.9v1.6h.5c0-.2 0 0-.1-.1v-.6c.2 0 0 .3.3.3v-.8c-.1 0 0 0 0 0s0 .2-.2.2Zm6.1-.7c0-.1-.1-.3-.2-.4 0-.1-.1-.2-.2-.4l-.2-.4c-.2-.3 0-.2 0-.4 0 0-.3.1-.3.2s.1 0 .2.1l.4.7c-.3-.2-.6-.5-.9-.6 0 0-.3.1-.3.2h.1c.2.2.4.7.6 1s0 .2 0 .4h.2c.3-.2 0-.1 0-.2l-.5-.9.9.6s.2.2.3.2h.1ZM38 19.4v.4c0 .3.3.5.7.6.3 0 .8 0 1-.3v-.3s.1 0 0-.2h-.9v.4h.2s.6 0 .6.1c0 .2-.6.1-.8.1h-.4c-.2 0-.3 0-.3-.2 0 0 .1 0 .2-.1.1 0 .3 0 .2-.1H38Zm-8 10.3c0-.1.3 0 .3 0 .1.2 0 .2.2.2v-.5c-.2 0-.8.1-1 .2 0 .2 0 0 .1.1 0 0 .1.5.1.6v.8h.4c.1-.1.3-.1.4-.2v-.5.2c0 .2 0 .4-.3.3 0 0-.1-.5-.1-.7.1 0 .1 0 .2.1 0 .1 0 .2.2.1V30c0-.3 0-.3-.1-.3 0 0 0 .3-.1.3 0-.2 0-.4-.1-.6Zm-8.1-1.3s.3-.3.3-.4c-.2-.1-.6-.4-.7-.5-.1.1 0 0 0 .2l-.6.9-.1.2h-.2l.7.6.2-.2s.2-.2.1-.2c0 0-.2 0-.3.1H21s.1-.2.2-.3c0 0 .2-.2.2-.3v.4h.2l.3-.4c-.1 0-.1.1-.3 0 0 0 .3-.4.4-.5 0 0 .2.1.2.3s-.2.2 0 .3Zm12.4-.7c.2-.3.5 0 .6 0 0 0-.2-.4-.3-.4l-.7.5c.1.1 0 0 .1 0h.1l.6.8.1.1c.1.1-.1.4.3 0l.5-.4c0-.1-.2-.3-.3-.4-.1 0 0 0 0 .2s.1.5-.1.5c0-.1-.3-.5-.4-.5.3 0 .2.2.4.1-.1-.2-.3-.4-.5-.6 0 .2.1.2 0 .4 0 0-.4-.4-.4-.5ZM19.9 26v.2l-.5.4.4-.9-.2-.2s0-.1-.1 0v.1l-.7.7c-.4.4-.3 0-.5.2 0 0 .2.3.3.3 0-.1 0-.1.1-.3l.5-.4s.2-.1.2-.2l-.6 1.2.1.1s.3-.3.4-.3c.1-.1.3-.2.4-.3l.3-.2h.2v-.1l-.2-.2Zm18.6-1.8c.4.2 0 .2.3.2v-.2h-.2s-.9-.3-1-.4h1.1c.2 0 .2 0 .2-.1l-1.4-.5-.1.1v.2c.1.1 0 0 .2 0 0 0 .7.2.7.3h-1s-.1.3-.1.4h.2l1 .4ZM36.1 26s.1-.2.3-.1c.2 0 .2.1.3 0l-.3-.2s-.6.6-.6.7c.1.1 0 0 .2 0 0 0 .1 0 .2.1l.7.6c.4.3 0 .2.2.3 0 0 .1 0 .2-.2l.4-.5s-.3-.4-.4-.4c0 .2.3.4.1.6h-.2l-.4-.3h.4s-.5-.4-.6-.5c0 .2.1.2.1.4 0 0-.3-.2-.4-.3Zm-4.3 3.1h.3c.2.1.1.2.2.2 0 0-.1-.4-.2-.5l-.7.3c-.1 0 0 0 0 0 0 .1 0 0 .2.1l.2.6c0 .1.1.3.2.4v.4s.8-.3.8-.4c0 0 0-.2-.1-.3 0-.2 0-.2-.2-.2 0 0 .1.5-.2.6l-.3-.6c.2 0 .2.1.3.2 0-.1-.1-.3-.1-.4 0-.2-.1-.3-.2-.3v.4s-.1-.2-.1-.3c0 0 0-.2-.1-.3Zm-14.4-7s-.2.2-.3.2l-.1.1-.4.4c-.1 0-.2.1-.2.2l1.2-.4c.4-.1.1 0 .4 0v-.2s0-.1-.1-.1v.1l-.7.3.6-.5.2-.2v-.4c-.3 0-.2 0-.2.2 0 0-.6.2-.7.2s-.2 0-.4.1c-.3.1-.2 0-.4 0v.3c0 .2.1 0 .1 0zm20.2.5c0 .1.2.3.3.4.4.3 1.5.4 1.4-.2 0-.7-1.7-.9-1.7-.2m.5-.2c.2 0 1 .2 1.1.4 0 .3-.6 0-.8 0s-.5-.2-.7-.3c0-.1 0-.1.1-.2h.2Zm-20.5-.9c0-.2 0-.4-.2-.4-.5-.2-1.3 0-1.4.5-.2.7 1.3.7 1.6 0Zm0-.2c0 .2-.4.3-.6.4-.1 0-.7.2-.8 0 0-.2.5-.3.6-.4.2 0 .6-.2.8 0m9.8 9.4c0-.4 0-.9-.3-1-.6-.4-1 1.3-.4 1.6.4.2.6-.3.7-.6m-.4-.9c.1.2 0 .6 0 .8s0 .8-.3.6c-.2 0 0-1 0-1.2s0-.3.2-.3Zm11-8.9c0 .1.2.3.3.3s.4.1.5.1c.4 0 .9-.2.8-.5 0-.3-.6-.5-.9-.5-.4 0-.9.1-.8.5Zm.1-.2c.2-.1.6 0 .8 0 .3 0 .7 0 .7.3-.2.2-.9 0-1.2 0-.1 0-.3 0-.3-.2Zm-22.3-2.1c.1 0 1.1.1 1.3.1.4 0 .1.1.3.2v-.4h-1l1-.4v-.4.1h-1.2c-.2-.1-.2-.2-.2-.2v.3h1.2l-1.3.5v.1Zm12.8 11.2c0 .1 0 0 .1.1V31c.1.4 0 .1 0 .4.3 0 .6 0 .8-.2.3-.3.3-1.2-.2-1.4h-.8Zm.6 1.5c0-.1-.2-1.4-.1-1.4 0-.1.2 0 .2 0 0 .2.1.8.1 1s0 .3-.2.3ZM22.8 29s.2-.3 0-.4c0-.2-.5-.4-.6-.5-.1.1 0 0 0 .2 0 0 0 .1-.1.2l-.6.9h-.2l.4.3v-.2l.4-.5c.2.2 0 .3-.2.7 0 .2 0 .3.2.3.1 0 .3 0 .3-.2h-.2c0-.2.4-.5.1-.8h.4Zm-.6-.2c0-.2.2-.3.3-.5.3 0 0 .5 0 .5h-.2Zm16.1-3.6-.6-.3v-.2c.3 0 .4.1.5.2h.2c.1 0 0 0 0 .2 0-.1.2-.3.1-.4h-.1l-.4-.2c-.2 0-.3-.2-.5-.2-.1 0-.3-.1-.4-.2 0 0-.1 0-.2.2v.1c.2 0 0-.1.2 0l.4.2v.2c-.2 0-.3-.1-.4-.2-.3-.2-.2-.1-.2-.2h-.1c0 .1-.2.3-.2.4h.2l.6.3.4.2c.4.2 0 .1.3.3zm-20-1.8c-.1 0 0 0-.1.2l-1 .6c-.1 0-.1 0-.1-.1s1.1-.9 1.2-1c-.2-.1-1 0-1.3.1h-.4s0 .2.1.3c.1.2.1 0 .1 0h.3v.3c-.4.4 0 0-.3.1 0 .2.6 1.1.6 1.3 0 0 .2 0 .3-.1.2-.1.2 0 .2-.2-.1 0-.5.2-.6-.2l.6-.4.5-.3h.2s-.1-.3-.2-.4Zm-.6-.3-.4.3v-.2c-.1 0 .4-.1.4-.1m17.6-9.9c.1 0 .2-.2.3-.3 0-.3-.2-.7-.3-.8 0 0-.2-.2-.3-.2v.3c0 .2.1.7.2.9ZM23.9 8.5c.3 0 .1 0 .4-.1 0 0 .1.1.1.2l-.5.3h-.2c0 .2.4.5.6.3 0 0 0-.1.2-.2 0 .2-.1.4-.2.5 0 0-.1.1-.1.2s0 .2.2.2l.3-.3c0 .2.1.7.3.7v-.9c0-.1 0-.2.1-.3v-.4s0 .1-.1.2c0 0 0 .2-.2.2 0-.5.3-.5 0-.6-.2 0 0 0-.1-.1 0 0 .3 0 .3-.2s-.1-.4-.3-.4v.3c-.1.1-.3.4-.5.5h-.1Zm1.5-1c.2.2.1 0 .3.5 0 .2.1.5.1.7 0 0-.5.4-.6.4 0-.1.3-.4.4-.5 0 0 .1 0 .1-.2-.2-.2-.2 0-.3-.1 0-.2.3 0 .3-.3 0 0-.1-.2-.2-.2h-.4s.1 0 .2.2c0 .2-.2.2-.1.4h.2c0 .3-.5.7-.3.8s.4-.3.8-.4c0 .2.3 1.3.4 1.3.1-.3-.2-1.2-.1-1.4 0-.1.2-.2.4-.3.3-.1 0-.3-.2-.2 0 0-.2.1-.3.1-.1-.3 0-1.1-.3-1.1-.1 0-.3 0-.3.2Zm10.5 2.9c.3 0 .3 0 0 .3l-.4.3h-.2c-.1 0 0 0-.2-.1-.4-.2-.3-.2-.4-.3 0 .1 0 .5.1.6-.2.1-.2.2-.5.2h-.5v-.1h-.2c.1.2.3.4.5.5.3.1.8-.2 1.1-.3.3 0 .7.3 1 .2h.2c0-.3-.3-.4-.4-.6.2-.2.5-.3.4-.5 0 0-.1-.3-.2-.3h-.4Zm.1.9h.1Zm2.7 3.1s-.2.1-.3.2-.1.2-.2.3l-.2-.1h-.2c0-.1.1-.1.2-.2-.2 0-.4.2-.6.2s-.2 0-.2.1c0 0-.1.2 0 .3h.3c.6-.2.6-.1.8.2l.2.2c.2.3.6.4.6.6h-.3c-.2 0-.1 0-.2-.2-.2-.2-.3-.2-.4-.4h-.3c0 .2.2.2.3.4h-.3l-.2-.1c-.1-.1-.3-.4-.5-.4 0 0 0 .1-.1.2v.8c.1.1.3.2.5 0 .4 0 .3-.2.5-.2l.1.2s0 .1.2.1c.1 0 0-.3 0-.4 0 0-.2-.2-.2-.3h.6l.3.3c.2.1.3 0 .4-.1 0-.2-.1-.5-.2-.6h.2c.2 0 .5.1.6-.1 0-.2 0-.3-.1-.4-.2-.1-.2 0-.4 0v-.3c0 .2-.3.2-.2.5-.2 0-.3 0-.4-.2l.2-.2c.1-.1.2-.1.2-.2h-.2v-.3Zm.2.9h.1s.2-.1.3 0c0 0 .4.3 0 .2h-.4Zm-1.8.4.3.2c.1.1.2.2.2.3-.2 0-.5.4-.6-.1v-.4ZM20.7 9.9c0-.1 0-.2-.2-.2h-.3c-.1 0-.1 0-.2.1v.2s.8-.2.6.2c-.1.2-.3.5-.4.6-.2 0-.2 0-.2-.2v-.4c-.2 0-.3 0-.3.1v.4c0 .3-.1.3 0 .3s.2-.1.4-.2c.2.3.6.2.6.4-.2 0-.5-.2-.6-.1 0 .1 0 .2.1.2l.8.9c.2.2.2.2.5.1 0-.2 0-.1-.3-.4 0-.1-.1-.3-.3-.3v.3l-.4-.4h.3c0-.2 0-.4-.2-.5.2 0 .2-.1.3-.3 0-.1.1-.2.2-.3.2.1.5 1.2.6 1.4v.2c.1 0 .1-.1.1-.3v-.8c0-.2 0-.2-.1-.3 0 0 .1-.2.2-.2 0 0 .5.8.5 1h-.3c0 .1.2.2.2.2s.2.1.3 0v-.3c0-.2-.2-.6-.3-.8 0-.2-.1-.4-.3-.4h-.3c-.1 0 0 .1-.2.2l-.2-.3s0-.1.1-.2l.1-.1s.2-.3.2-.4h-.2c-.2 0-.3.3-.4.4Zm9.6-2.3V8c0 .2 0 .3-.2.3-.1 0-.4.1-.6.2h-.3c0 .1.1.4.3.4h.5c0 .3 0 .3-.4.4 0 0-.2 0-.3.1H29c0 .2.2.3.3.4s.2.3.3.5c.2 0 .2 0 .3-.2h.5c.3 0 .4-.2.4 0v.2c0 .1.1.2.2.2h.4c.1 0 .1.1.3 0 0-.3-.6-.6-.7-.9.1-.3.4-.4.1-.6h-.2c.1-.3.6-.2.7-.3 0-.1 0-.2-.1-.2h-.3c0-.1.2-.4.2-.5 0-.2-.2-.3-.4-.2 0 .1.2.1 0 .4 0 .1-.1.2-.2.4 0 0-.3.1-.4.1-.2 0-.2.1-.3.2 0-.3 0 0 .3-.3 0-.1-.1-.1 0-.2v-.3c0-.2-.2-.3-.4-.3Zm-.2 2.3c.2 0 .6-.1.7-.2 0-.1-.1-.2-.2-.3-.2 0-.3 0-.3-.2h.5c0-.2 0-.3.1-.5-.2 0-.2-.2-.4 0-.1 0-.2.1-.2.3s-.2.7-.2.8Zm-.5-.3s0-.1.2-.2c0 0 0-.1.2-.2v.5c-.2 0-.3-.1-.4-.2Zm1.3-.3h.3s0 .2-.2.2l-.2-.1Zm-13.5 6.9c.2 0 .3.1.5.2.2 0 .2.1.5 0 .3 0 .3-.5.5-.8 0-.2 0-.3.2-.4.1-.1.3 0 .5-.2 0-.2-.2-.3-.4-.4-.5-.2-1.3-.5-1.7-.8-.1-.1-.2 0-.3 0-.4.2-.5.1-.6.6-.2 1.1.1.8.3 1.3 0 0-.1 0-.2.1l.9.4Zm.2-.2.6.3V16h-.1v-.3h-.6c-.1-.1-.1-.4-.2-.5h-.1s0 .3-.4.3v-.8h.3c0 .2 0 .4.3.4h.2V15c0-.1-.1-.3.1-.3h.2c.1.1 0 .2 0 .3l.6.2c0 .2 0 .3-.1.7 0-.3.1-.7.3-.8-.4-.2-.8-.4-1.2-.5l-.6-.3c-.4-.1-.2.3-.3.6 0 .2-.3.4-.2.6s.3.3.5.4c.2 0 .4.2.6.3Zm.1-1c0 .2.2.2.3.4v-.2s-.3-.2-.4-.3Zm-.1.4h.2s0 .1-.1.1v-.2ZM99 18.2h-1.1.6s.1 0 .2.2c.3.3.7.5 1 .8 0 0 .1 0 .2.1.1 0 .2.1.3.2.1 0 .3.1.4.2.1 0 .2.2.3.2s.2.1.4.2h.4s.2 0 .2.1h.1v-.9c0-.1-.1-.3-.2-.4 0 0 0-.1-.2-.2-.1 0-.2-.2-.3-.3 0 0-.1-.1-.2-.1s-.2-.1-.4-.1c0 0-.2 0-.3-.1h-1.8ZM72.2 20v.4c0 .1 0 .2.1.3h.1v-3.3s0-.2.1-.2c0-.1.2-.2.3-.3l.5-.5c0-.1.2-.3.2-.4v-.4s-.1.1-.1.2c-.1.2-.3.3-.4.5-.2.2-.3.3-.5.4v-.4c0-.2.1-.4.2-.6v-.1c.1-.2.2-.3.4-.5v-.4s-.1 0-.2-.1l-.1-.1v-.3c-.1 0-.2-.1-.3-.2h1.1v-.9c0-.1-.2-.2-.2-.3-.1 0-.2-.2-.4-.3v.4l-.2.2c-.1 0-.3.1-.4.2-.2.1-.3.2-.5.3-.1 0-.3.2-.4.2-.2 0-.3.2-.4.3-.1 0-.3.2-.4.2h-.2 1.1s.1 0 .2.1c0 .1 0 .2.1.3v.4s0 .1-.1.2h-.3c-.2 0-.3 0-.5.1h-.3c-.2.1-.4.2-.5.2h-.9v.2s0 .2.2.3c0 0 0 .1.1.2 0 0 0 .2.2.3 0 0 .1.2.2.2 0 0 .2 0 .3.2h.5s.1 0 .2-.1l.1-.1c.2-.2.3-.3.5-.4h.2v.3c0 .1-.1.3-.2.4-.2.2-.3.4-.5.6-.1.1-.2.2-.4.3-.1 0-.2.1-.3.2v.7s0 .2.2.2h.3s.1 0 .2-.1l.6-.5.2-.2h.1v1.8Zm4.6-4.3c0 .2 0 .3-.1.3 0 0-.1 0-.2.1h-.2l-.1.1h-.1s-.2 0-.3.1c-.1 0-.3.1-.4.2 0 0-.2 0-.3.1-.1 0-.3 0-.5.2h-.2v-.1l.1-.1c.2-.2.4-.3.6-.5l.1-.1h.1s.1 0 .2-.1h.2s.2 0 .2-.1c0 0 .2 0 .3-.1.1 0 .2-.2.2-.3v-.1s0-.1-.1-.2l-.3-.3c-.2 0-.1-.1-.4-.1h-.1s-.1 0 0-.2c0 0 0-.1.2-.2.1 0 .3 0 .4-.1h.3s.2 0 .2-.1l.1-.2v-.1s0-.2-.1-.2c-.1-.2-.3-.3-.5-.4h-1.2v.1s.2.1.2.2c0 0 .1 0 .2.1 0 0 .2.2.2.3v.2s0 .2-.2.2c-.1.1-.3.2-.4.4l-.1.2v.5h.2c.1 0 .2 0 .3.1v.3c0 .1-.2.2-.3.3-.3.4-.7.7-1.1 1-.1 0-.2.2-.2.3v.5c0 .1.3.2.4.2h.3c.1 0 .2 0 .4-.1 0 0 .1 0 .2-.1.1 0 .2-.1.4-.1h.2l.1-.1h.7v4.5-4.7c0-.1 0-.2.2-.3h.1c.1 0 .3-.1.4-.1h1s.2 0 .3-.1v-.2l-.1-.1c-.1 0-.2-.2-.4-.2h-.6c-.1 0-.3.1-.4.2h-.4v-3.4c0-.1-.1-.2-.2-.4 0 0 0-.1-.2-.2h-.4c-.2 0-.5 0-.7.1h-.1v.1c.1 0 .2.2.2.3v3.6Zm21.9-1.2c.1 0 .3 0 .4-.1h-.3l-.2.2Zm-1.2-1.3v-1.3c0-.1-.1-.2-.2-.2H97s-.1 0-.2.1h-.1s0-.2.1-.3v-.1s.1-.2.2-.2c0-.1.2-.2.3-.2h.4l.4.2c.2 0 .3.2.4.3 0 0 .1.2.2.3v1.7h2s.2 0 .3.1v.6c0 .1 0 .2-.2.3-.1.1-.3.2-.4.3h-.1c-.1 0-.2.1-.3.2-.1 0-.2 0-.3.2-.1 0-.3.2-.4.2h-.5s-.1 0-.2.1l-.1.1c-.1.1-.3.3-.3.5 0 0 0 .2-.1.3 0 .1-.1.2-.2.4v.3c0 .1-.1.3-.2.4v1c0 .1-.1.3-.2.4 0 0-.1.2-.2.3 0 .1-.2.2-.2.3H97c-.1 0-.3.1-.4.1h-1.2c-.2 0-.5 0-.7-.1h-.3v-.1c.1 0 .2-.2.2-.3v.1l.2.1h.2c.2 0 .4-.2.6-.4l.9-.9c.2-.2.3-.4.4-.6 0-.1.1-.2.2-.4 0-.1 0-.2.1-.4v-.2h-.7c-.1 0-.2 0-.3-.2-.2-.2-.5-.4-.7-.6 0 0-.2-.2-.2-.3h.7c.2 0 .4 0 .6-.2h.9s.1 0 .2-.1c0 0 .1 0 .2-.1 0 0 0-.1.1-.2v-2Zm12.6-.2v.3h.1l.5-.7s.1-.2.2-.3l.2-.2.1-.1v-.4c0-.1-.2-.2-.4-.1h-.3c-.1 0-.2 0-.3.2 0 0 0 .1-.1.2v.1c0 .2-.1.3-.1.5v.2Zm.6 5.9v-.4s0-.2-.1-.2h-1.5s0 .1-.2.1c0 0-.2 0-.2.1 0 0-.2.1-.3.1 0 0-.1 0-.2.1v.1l.2.2s.1 0 .2.1c.1 0 .3.2.4.2s.2 0 .3.1c.3.1.5.2.8.1.1 0 .2 0 .3-.1 0 0 .1-.2.1-.3v-.6Zm-2.3-6.1v1.6h.4c.1 0 .2 0 .3-.1.2-.1.3-.3.4-.4v-.1c-.2 0-.3-.1-.4-.3-.1-.1-.2-.3-.2-.5s0-.3-.1-.4v-.1l-.1-.1v-.1c.2 0 .3 0 .4.1 0 0 .1 0 .2.1h.2s0-.2.1-.3c0-.2.2-.3.4-.5 0 0 .2-.1.3-.2h.9c.3.1.5.3.7.5v.5c0 .1 0 .2-.2.3l-.6.6c-.1.1-.3.2-.4.3 0 0-.1 0-.2.1h-.1 2.4c.1 0 .3.1.3.3 0 0 .1.2.2.3v.6s0 .1-.1.2c-.1 0-.2.1-.3.2h-.1c-.2 0-.4 0-.6.1h-.5c-.1 0-.2.1-.2.2v.2c-.2.2-.4.3-.6.5-.1.1-.2.2-.3.4v.2h.5c.2 0 .3 0 .5-.1h.3c.2 0 .3.2.5.3v.2h-1.1s-.1 0-.1.1v1.9c0 .1 0 .3-.2.4v.1l-.2.2c-.2 0-.3.2-.5.2h-.6c-.2 0-.3-.2-.5-.3-.1 0-.3-.2-.4-.3 0 0-.1 0-.2-.1s-.3-.2-.4-.3l-.2-.2c-.1-.2-.2-.4-.4-.5 0-.1-.1-.2-.2-.3v-.2c0-.2 0-.3.1-.3s.2-.1.4-.2h1.9V17l.2-.2v-.2h-1.5c-.1-.1-.2-.3-.2-.4V16l.2-.2h3.1c.2-.1.4-.3.5-.4 0 0 .2-.1.2-.2l.1-.1v-.2h-.6c-.1 0-.2 0-.4.2-.1 0-.3.1-.4.1s-.3 0-.4.1h-.3c-.2 0-.4 0-.5.1-.2 0-.4 0-.6.1h-1.3c-.2 0-.3 0-.4.2l-.2.2c0 .1-.1.2-.1.4s-.1.4-.1.6v1.2s-.1.1-.2 0h-.2c-.1 0-.2-.2-.3-.3 0-.2-.1-.3-.2-.4v-.3s.1-.2.2-.3c0-.2.2-.3.2-.5v-1.2c0 .1.1.3.1.4 0 0 0 .2.1.3h.2s0-.1.1-.2c.1-.2.3-.3.4-.4h.4v-.1h-.1s-.1 0-.2-.1l-.2-.2c0-.2-.1-.3-.2-.5v-.9h.1l.4.4h.2c0-.2.1-.3.2-.4v.2Zm-49.4 7v.7s.2.1.3.2l.2.1h.2s.1-.2.1-.3v-.8c0-.3 0-.5.2-.8v-.7c0 .1 0 .3-.1.4 0 0 0 .1-.1.2h-.1v-1.9h.1c.1.1.2.3.3.4 0 .1.2.2.3.4h.1c.1 0 .2-.1.3-.2l.3-.6v-.8c0-.1 0-.2-.2-.3 0 0 .2.1.2.2h1.1c.2 0 .4 0 .5-.1h.7v.2c0 .1 0 .3-.2.4l-.2.5v.2c0 .1 0 .3-.2.4l-.2.4-.3.6v.1c0 .1-.1.3-.2.4 0 0 0 .2-.1.3 0 0-.1.2-.2.3 0 .2-.2.3-.3.5s-.3.4-.5.5c0 0-.1 0-.2.1v.1h.3l.3-.2.2-.2c.2 0 .3-.2.4-.4s.3-.3.4-.5.3-.4.4-.6c.2-.3.4-.5.5-.8 0-.1.2-.2.2-.4 0-.1.1-.3.2-.4 0-.1 0-.2.1-.3l.1-.1h.3c.2 0 .3 0 .5.1.1 0 .2.2.2.3v.5c0 .2 0 .3-.2.5 0 .2-.1.4-.2.5 0 .2-.1.3-.2.5v.4s0 .2-.1.2c0 0 0 .2-.1.3 0 0 0 .2-.1.2l-.1.1h-.1s-.1 0-.2-.1c-.2-.1-.4-.3-.6-.4h-.1c0 .2.1.4.2.5 0 0 0 .1.1.2 0 0 .1.2.1.3s0 .2.1.3c0 .1.1.2.2.3 0-.1.2-.2.3-.3 0 0 .1 0 .2-.1 0 0 .1 0 .1-.2 0-.1.2-.3.2-.4s.1-.2.2-.4c0 0 .1-.2.2-.3 0-.2.2-.4.3-.6 0-.2.2-.3.2-.5v-.6c0-.1 0-.2.1-.4v-1s-.1-.2-.2-.2c0-.1-.2-.2-.4-.2h-1.1s-.1 0-.1-.1c0-.2.1-.4.2-.6v-.3s0-.1.1-.1h1.9c.1 0 .2 0 .3-.1h.3c.1 0 .2-.1.2-.3 0 0 0-.1-.1-.2s-.3-.2-.4-.3H65c-.2 0-.3 0-.5.1h-.4s-.1 0 0-.1c0 0 0-.1.1-.2v-.5s0-.2-.1-.2c-.2-.2-.4-.3-.6-.4h-.2s-.2 0-.3-.1h-.3c-.2 0-.3 0-.5.1h-.3s-.2 0-.2.1v.1s.2 0 .3.1c0 0 .2.1.3.2 0 0 .2.1.2.2l.2.2.1.1.1.1v.5s0 .2-.1.2h-3v-.1s0-.2-.1-.3v-.2c0-.1 0-.2.1-.3.1-.2.2-.3.4-.5.1-.2.2-.3.3-.4l.1-.2s0-.1.1-.2v-.1s0-.2-.2-.3h-.1l-.2-.1h-.8c-.1 0-.2.1-.4.2-.1 0-.3.2-.4.3-.2.1-.4.2-.6.4-.1 0-.3.2-.5.2v.1s.1 0 .2.1c.1 0 .2.1.3.2h.5c.1 0 .2 0 .2.2v.7s0 .2.1.2c0 .2.2.4.3.5v.7h-.2l-.2-.2s-.2-.2-.2-.3-.1-.2-.2-.3c0-.1-.1-.3-.2-.4 0-.1 0-.2-.1-.3 0-.1-.1-.2-.2-.2h-.2c-.1 0-.2.2-.2.3v4.8Zm-8.5-3.4v-.2s0-.1-.1-.1h-.2s-.1 0-.2.1c0 0-.1 0-.2.2v.2h.5v-.3Zm1.5 0v-.2h-.1l-.3.6s0 .2-.1.3v.9h.4l.1-.2v-1.2Zm1.6-.4v-3.5q0-.15-.3-.3h-2.8c-.2 0-.4 0-.6.1s-.3.2-.4.4-.2.4-.3.5c0 0 0 .2-.1.3v5.2c0 .1 0 .2.2.2h.8v-.1c-.1 0-.2-.2-.2-.3v-.3s.1-.2.2-.2c0 0 .2 0 .3-.1v-.2l-.2-.2-.1-.1-.1-.1c0-.1-.1-.3-.2-.5V16l.1-.1s.2-.2.3-.2.2-.1.3-.2c0 0 .2-.1.2-.2h.1V15H50l-.2-.2s-.2-.2-.2-.3h.9c.1 0 .2 0 .3-.2l.1-.1s.1 0 .2-.1h.6s.2 0 .2.1c0 0 .1 0 .1.2v.4s-.1 0-.2.1c-.1 0-.2.2-.4.3l-.2.2s-.1.2-.2.3v.6h.2q.15 0 .3.3c0 .1.2.1.2 0l.1-.1c.1 0 .2-.1.4-.1h.1c.1 0 .3.2.4.3s.1.3.1.5c0 0 0 .1-.1.1h-.3c-.1 0-.3 0-.4-.1h-.1v1.9h-.2c-.2 0-.5 0-.7.1h-1.5 2.7c.1 0 .3.2.4.3l.1.1v-3.2Zm-6 1.5v-4s.1 0 .2.2l.1.1h.2c0-.1.2-.3.2-.4l.3-.6c.1-.2.3-.4.4-.5 0 0 .2-.2.3-.2h.2c.2 0 .3-.1.5-.2.2 0 .4-.1.6-.2.1 0 .3 0 .4-.1.2 0 .4 0 .6-.1h.9c.3.1.5.3.7.4s.2.2.3.3c.1.2.3.3.4.5 0 0 .1.2.2.3v.3c0 .2 0 .3-.1.5 0 .2-.1.4-.2.7v5.8c0 .1 0 .2-.1.3 0 .1-.2.3-.3.4h-.1c0-.1-.2-.2-.3-.3 0 0 0-.1-.1-.2 0-.1-.1-.2-.2-.3l-.1-.1s-.2-.2-.3-.2-.3 0-.4-.1h-3.5c-.1 0-.2 0-.3-.2-.1 0-.2-.2-.3-.3s-.2-.3-.3-.4v-1.5Zm40.2-.1h.1c.1-.1.2-.2.2-.4v-.3s0-.1-.1-.1h-.2s-.2 0-.3.1c-.1 0-.2.2-.4.2v.1s.2 0 .3.1h.2Zm-3.6.3s0 .1-.1.2c0 .1-.1.2-.2.4 0 0 0 .1-.1.2l-.2.2v.2c0 .1 0 .2.1.3.1 0 .2.1.3.2.1 0 .2 0 .3.1 0 0 .2 0 .2-.1v-1.7Zm2.8-2.1v-.1l-.1-.1h-1c-.1 0-.2 0-.3.1l-.3.3c0 .1-.2.2-.2.4v3.3s0 .1.1 0h.3l.6-.3h.2c.2-.1.5-.3.7-.5l.3-.3v-.3l-.2-.2c-.1 0-.3-.2-.4-.2-.2 0-.3-.1-.5-.1h-.9v-.2h1.5s.1 0 0-.1v-1.2ZM85.3 13v.6c0 .1 0 .2.1.3 0 0 .1 0 .2.1l.1.1v.2c0 .1-.1.3-.2.4h-.1s-.1.2-.2.3v.3c0 .1 0 0 0 0 .1-.1.2-.3.3-.4 0-.1.2-.2.3-.3.2-.1.4-.2.5-.3 0 0 .1 0 .2-.1h.1c.1 0 .2-.1.3-.2.3-.2.2 0 .3-.4v-2s-.2-.1-.2-.2h-.1v-.1h.9c.2 0 .3.2.4.3v2h1.1l.2.2v.3s-.1 0-.2.1c-.1 0-.2.1-.3.2-.1 0-.3.1-.4.2h-.2s-.2.1-.3.2l-.2.2s-.1.2-.2.3v.1s0 .1.1.1h.5c.1 0 .2.1.4.2l.1.1v.7c0 .2-.1.4-.2.7v.5l.1.1.2.2s.1 0 .2.1c0 0 .1 0 .2.1h.2c.1 0 .2.1.3.2 0 0 .1 0 .2.1 0 0 .2 0 .3.1.2.1.3.2.5.4 0 0 .1 0 .2.1s.3.2.4.4h-2.3c-.1 0-.2 0-.4-.1 0 0-.1 0-.2-.1l-.2-.2V19c0-.2-.2-.3-.3-.4 0 0 0-.1-.1-.2v-.1h-.2c-.1 0-.3.1-.4.2-.1 0-.2.1-.3.2-.1 0-.3.1-.4.2-.1 0-.3.1-.4.1h-.4c-.2 0-.4 0-.6.1H85c-.1 0-.2.1-.3.2 0 .1-.1.2-.2.3 0 0-.1 0-.2.1l-.1.1h-.1c-.2-.3-.5-.6-.7-.8l-.2-.2s-.2-.1-.3-.2c0 0-.2 0-.2-.1-.1 0-.3 0-.4-.1 0 0-.1 0-.2-.1 0 0-.2 0-.2-.2l-.2-.2v-.3s0-.1.2-.1.3-.2.5-.2h.1c.2-.1.3-.2.4-.3s.2-.2.4-.3.4-.3.6-.4c0 0 .2-.1.2-.2V15h-.2c-.1 0-.2.1-.4.2 0 0-.2 0-.3.1 0 0-.1 0-.2.1 0 0-.1 0-.2.1l-.2.2c-.1.1-.3.2-.5.2h-.2c-.1 0-.2-.1-.3-.2-.1 0-.2-.2-.3-.3l-.2-.2h.6c.1 0 .2-.1.4-.2 0 0 .2 0 .3-.1.3-.2.6-.3.8-.5.1-.1.3-.2.5-.3.1-.1.1 0 .2-.3v-1.2q-.1-.2-.3-.4l-.2-.2v-.2h.9c.1 0 .3.1.4.2l.1.2c0 .3.1.2 0 .6ZM53.4 25.2c.1 0 .2-.1.2-.3 0 0 0-.2-.1-.2h-.3s-.1 0-.1.2v.2h.2Zm13.1 0c.1 0 .3 0 .2-.3v-.1h-.3s-.1.2 0 .3c0 0 .1.1.2.1Zm7.2 0c.1 0 .2-.1.2-.2s0-.2-.2-.2h-.2c-.1 0-.2.2-.1.3h.2Zm-7 1v-.7h-.4V27h.3v-.7Zm-13.1-.5v-.2h-.3V27h.3v-1.1Zm20.3-.1v-.1h-.3v1.3h.4v-1.3Zm-2.9-.2h-.3s-.1 0-.1.1v1.3h.3v-1s.1-.1.2-.1h.2v-.3c-.1 0-.2 0-.3.1v-.2Zm37.1-.5v-.2h-.4v2.1h.4v-2Zm-47.9 0v-.2H60c-.2 0-.2 0-.2.2V27h.3v-2Zm41.2.8v-.2h-.7c-.2 0-.4.3-.4.5v.4c0 .3.2.6.6.6h.5v-.3h-.4c-.1 0-.2-.1-.3-.2v-.4s.1-.2.2-.2h.4Zm-27.2-.1v.9c0 .2.2.3.3.3h.4v-.1c0-.2 0-.2-.1-.2 0 0-.1 0-.2-.1v-.6h.2c0-.2 0-.2-.2-.2v-.4h-.4v.2c0 .1 0 .1-.2.1v.1ZM52.3 25H52v.1c0 .1 0 0 0 0-.1 0-.1 0-.1.2v.1c.2 0 .2 0 .2.2v.8c0 .1.2.2.3.3h.4c.1 0 .1 0 .1-.1v-.2h-.1s-.1 0-.2-.1v-.6h.2v-.2h-.2v-.2Zm40.5.4h-.4c-.1 0-.2.2-.2.4v.1s0 .2.1.2h.4v.1h-.6v.2h.9c.1 0 .2-.2.2-.3 0-.2 0-.3-.2-.4h-.4v-.2h.5c0-.3 0-.2-.2-.3h-.2Zm-20.9 1.3v.1h.8c.2 0 .3-.2.2-.4v-.2l-.1-.1h-.4v-.2h.5v-.2h-.8c-.2 0-.3.2-.2.4 0 .1 0 .3.2.3 0 0 .1 0 .2.1h.3v.2h-.5v.1Zm-4.1.2h.1l.5-1.3v-.1H68l-.3.9-.2-.8v-.2h-.4v.1l.4 1.2h.2Zm19.6-.2c0 .3 0 .3.3.3.2 0 .2 0 .2-.2v-1h.1v-.2h-.2v-.2s0-.2.2-.2V25h-.4c-.2 0-.3.2-.4.4v.3h-.1v.2h.1v.9Zm-6.7 0c0 .3 0 .2.2.2s.2 0 .2-.2v-.9h.1v-.2H81v-.2h.2v-.2h-.5c-.1 0-.2.2-.3.3v.4h-.1v.2h.1v.9Zm16.4 0v.2h.3v-1.7h.4V25c0-.1 0-.2-.1-.2h-1.5v.3h.3v1.4Zm-38.3-.3c0 .2-.2.3-.3.2-.1 0-.2-.1-.2-.2 0 0 0-.1.1-.2h.3v.1Zm.1.5h.3v-1c0-.2-.2-.4-.4-.4h-.7v.2s.1 0 .2-.1h.2s.1 0 .2.1v.2h-.6l-.2.2v.3c0 .2.2.3.4.4.2 0 .3 0 .4-.1v.2Zm10.4-.9s0-.2.1-.2h.1c.2 0 .3 0 .3.3h-.4Zm.5.3h.5v-.4c0-.2-.2-.4-.5-.4h-.2c-.3 0-.6.2-.7.5v.5c0 .3.3.5.6.6h.7v-.2h-.4q-.3 0-.3-.3h.4Zm19.1-.3s0-.2.1-.2.4 0 .4.1h-.5Zm.7.6H89s-.2-.1-.2-.2v-.1h.7v-.4c0-.2-.2-.4-.4-.4h-.3c-.3 0-.6.3-.7.6v.4c0 .3.3.5.6.6h.7v-.3h-.1Zm-3.7-.6s0-.2.2-.2h.4c0 .1 0 .2-.1.2H86Zm.5.3h.5v-.4c0-.2-.2-.4-.5-.4h-.3c-.3 0-.6.3-.7.6v.5c0 .3.3.5.5.5h.6c.2 0 .2 0 .2-.2h-.6s-.2-.1-.2-.2h.4ZM99 26s0-.2.1-.2.3 0 .4.1v.1h-.4Zm.4.3h.3c.3 0 .2 0 .2-.3v-.2c0-.2-.2-.4-.4-.4h-.3c-.3 0-.6.2-.7.6v.5c0 .3.2.4.5.5h.7v-.2h-.6l-.2-.2h.4ZM94 26s0-.2.2-.2h.4-.4Zm.5.3h.4v-.4c0-.2-.2-.4-.4-.4h-.3c-.3 0-.6.3-.7.6v.5c0 .3.2.5.6.5h.7v-.2h-.6s-.2-.1-.2-.2h.4Zm-43.9.3s-.1 0-.1-.2c0 0 0-.2.1-.2h.3c.1 0 0 0 0 0v.2s-.2.2-.3.2m.8-.5v-.2c0-.2-.2-.4-.4-.4h-.8v.2h.5s.1 0 .1.2h-.4s-.2 0-.3.1l-.2.2v.4c0 .1.1.2.3.2s.4 0 .6-.1c0 .1 0 .1.1.1h.2v-.7Zm13.3-.7h-.3v1.3h.4v-1.1c.1-.1.4 0 .4.1v1h.2v-1.1c0-.1-.1-.2-.3-.2h-.2c-.1 0-.2 0-.3.1v-.2Zm39.1.8v.5c0 .3 0 .3.3.3.2 0 .2 0 .2-.2v-.9s.2-.1.3 0c.1 0 .2 0 .2.2v.9l.1.1h.3v-1.2c0-.1-.1-.2-.2-.2-.2 0-.4 0-.6.1v-.2h-.3v.7Zm-13.6 0v.7h.3v-1.1c.1-.1.4 0 .4 0v1h.3v-1.2s0-.1-.2-.2h-.6v-.1c0-.1 0 0 0 0h-.3v.7Zm-34.2 0v.6c0 .1 0 .1.1.1h.3V26c0-.1.1-.2.2-.2s.2 0 .3.1v1h.3v-1.2l-.2-.2h-.6v-.1H56v.7Zm50.8.2v.1s-.4.1-.5 0v-.6c0-.2.4-.3.5-.2l.1.2v.4Zm-.6-1c-.3 0-.5.3-.5.6v.3c0 .2.2.5.6.6h.4c.3 0 .5-.2.6-.5v-.5c0-.3-.2-.5-.5-.6h-.6Zm-51.7.5c0-.2.4-.3.5-.2 0 0 .1 0 .1.2v.5c0 .1-.1.2-.3.2h-.1c-.1 0-.2 0-.3-.2v-.5Zm1.1.1c0-.3-.2-.5-.5-.6h-.6c-.3 0-.5.3-.5.6v.4c0 .3.3.5.6.6h.4c.3 0 .5-.2.6-.5v-.4Zm24.1.4s-.1.1-.2.1h-.1c-.1 0-.2 0-.2-.2v-.5c0-.2.3-.3.5-.2 0 0 .1 0 .1.2v.4Zm.5-.4c0-.3-.2-.5-.5-.6H79c-.2 0-.4.3-.4.5v.4c0 .3.3.5.6.6h.4c.3 0 .5-.2.6-.5zm29.5.3v.1l-.1.1h-.3l-.2-.2v-.4c0-.3.3-.3.5-.2l.2.2v.4Zm-1.2 0c0 .4.3.6.6.7h.4c.3 0 .5-.2.6-.5v-.6c0-.2-.2-.4-.5-.5h-.6c-.3 0-.4.3-.5.5v.2Zm-32.8-.9h-.2v.1l.5 1.2v.4c0 .1-.2.2-.3.2h-.1v.2c0 .1 0 .1.1.1h.1c.2 0 .3 0 .5-.2l.1-.2s0-.2.1-.2l.6-1.5v-.1h-.4l-.2.7v.3h-.1l-.3-.9v-.1h-.2Zm37.5 1-.2-.7v-.3h-.4v.1l.5 1.2v.4c0 .1-.1.2-.3.1v.3h.2c.2 0 .3 0 .4-.2 0 0 .1-.1.1-.2 0 0 0-.2.1-.2l.6-1.5h-.4l-.2.8v.2Zm-11.4.3v.2h.4v-1.1s.2-.1.3 0c0 0 .1 0 .2.2v1h.3v-1.2s-.1-.2-.2-.2h-.6v-.8h-.4zm-38.5-1.2v.9c0 .1-.2.2-.3.2-.2 0-.3 0-.4-.2V25h-.3v1.6c0 .3.3.4.6.5h.5c.3 0 .5-.2.6-.5v-1.5h-.4v.6Zm48.3.8v.1c0 .1-.2.2-.4.1 0 0-.1 0-.1-.1v-.5s0-.1.2-.2c.2 0 .3 0 .4.1v.3Zm-1 1v.3h.8c.3 0 .5-.3.6-.6v-1.5h-.5c-.2 0-.5 0-.6.2 0 0 0 .1-.1.2v.8c0 .2.3.4.5.4s.3 0 .5-.1v.1c0 .1-.1.3-.2.3h-.7Zm-26.9-1.9v-.1h.5c.2 0 .4.3.4.5v.5c0 .2-.3.4-.5.4h-.3v-1.1Zm-.5.5v1h1.1c.4-.1.6-.4.7-.8v-.5c0-.3-.3-.6-.6-.7h-1.2c-.1 0-.1 0-.1.1v.9Zm-35.6 0V25c0-.1 0-.1.1-.1h.3c0 .1.8 1.3.8 1.3V25h.3v2h-.3s-.1-.2-.2-.2c-.3-.4-.5-.8-.8-1.2v1.2c0 .2 0 .2-.2.2h-.2v-1.1Z"/></g></svg>