<svg width="128" height="137" fill="none" xmlns="http://www.w3.org/2000/svg"><g filter="url(#a)" fill-rule="evenodd" clip-rule="evenodd" fill="#00532e"><path d="M64 20c-24.261 0-44 19.738-44 44s19.739 44 44 44c24.262 0 44-19.738 44-44S88.262 20 64 20m0 2.47c22.937 0 41.53 18.594 41.53 41.53S86.937 105.53 64 105.53c-22.936 0-41.53-18.594-41.53-41.53S41.064 22.47 64 22.47"/><path d="M64 34.881c-16.081 0-29.12 13.036-29.12 29.119s13.038 29.119 29.119 29.119c16.082 0 29.119-13.037 29.119-29.12s-13.037-29.118-29.12-29.118Zm0 2.178c14.855 0 26.94 12.086 26.94 26.94 0 14.856-12.085 26.942-26.94 26.942S37.059 78.855 37.059 64s12.086-26.941 26.94-26.941Z"/><path d="m57.209 86.505.966-.138-.761 2.423.666.218c.138-.209 1.108-3.233 1.122-3.536-.936-.2-.323-.032-1.101.25-.392.142-.895.116-.892.784Zm10.416.14.627-.107c.084-.242.195-.942.673-.5.503.464-.31.803-.31.803l.116.52c.238-.056.5-.201.715-.078.241.14.468.99-.2 1.07-.35.043-.387-.12-.463-.38l-.658.299c.332 1.343 2.685.643 2.263-.785-.134-.452-.355-.65-.874-.694.115-.263.39-.622.18-1.017-.282-.532-1.062-.584-1.45-.39-.515.257-.735.651-.62 1.26Zm-3.022-.556-.187 1.888a.73.73 0 0 0 .398.102c.462.02.348-.473.917-.236.529.222.37.966.072 1.267-.49.066-.542-.165-.774-.437l-.674.123c.416 1.945 3.352.552 2.26-1.077-.297-.442-.69-.61-1.404-.444.023-.796-.028-.444 1.331-.606l-.067-.699-1.871.119Zm-2.363 1.956c-.021.308-.112.632-.304.764-.4.275-.502-.067-.632-.31l-.685-.016c.062 1.233 1.493 1.268 2.045.602.45-.543.601-2.152.143-2.798-.518-.732-1.739-.765-2.107.33-.341 1.012.512 1.958 1.54 1.428m-.613-1.593c.637-.382.888.94.39 1.17-.713.33-.841-.9-.39-1.17m5.166-2.129c2.176-.074 4.371-.156 6.558-.106 1.074.026 2.154.07 3.22.089.76.013 2.642.165 3.262.057-.388-.232-2.382-.61-2.983-.706-2.113-.34-4.902-.408-7.023-.093-.618.092-2.713.461-3.034.759m-18.626.052c.9.081 2.319-.051 3.277-.07 1.067-.018 2.147-.062 3.218-.088 1.106-.026 2.239 0 3.347.01 1.062.007 2.162.101 3.202.09-.31-.27-2.38-.651-2.959-.74-2.146-.331-4.891-.26-7.035.069-.703.107-2.594.43-3.05.73Zm31.037-1.192-1.279-5.278a28 28 0 0 0-6.653-.623c-3.1.081-5.602.662-7.273 1.17a27.5 27.5 0 0 0-7.271-1.17 28 28 0 0 0-6.653.623l-1.576 5.359a29 29 0 0 1 3.693-.772c4.746-.675 8.85-.066 11.809.692 2.997-.766 7.094-1.364 11.807-.692 1.217.172 2.35.413 3.396.691m1.782 1.218a26 26 0 0 0-4.57-1.221c-5.222-.89-9.65.027-12.415.88-2.767-.853-7.195-1.77-12.416-.88-1.721.294-3.25.736-4.57 1.221l2.345-7.038a24.45 24.45 0 0 1 14.64.692 24.45 24.45 0 0 1 14.64-.691zm-15.262-.84.2 1.364h-4.252l.194-1.364z"/><path d="M64 39.78c-.575 0-1.176.273-1.79.873l-.696-.712c.734-.717 1.57-1.157 2.486-1.157s1.752.44 2.486 1.157l-.696.712c-.614-.6-1.214-.873-1.79-.873m-2.409 1.589c-.745.997-1.436 2.428-2.03 4.219l-.945-.314c.612-1.847 1.345-3.387 2.177-4.501zm6.848 4.219c-.593-1.79-1.285-3.222-2.03-4.219l.798-.596c.832 1.114 1.565 2.654 2.178 4.5zm-9.177.96c-.41 1.4-.76 2.973-1.035 4.681l-.983-.159a40 40 0 0 1 1.062-4.802zm10.511 4.681a39 39 0 0 0-1.034-4.681l.955-.28a40 40 0 0 1 1.063 4.802zm-11.698 1.005a57 57 0 0 0-.459 4.79l-.994-.053c.092-1.7.25-3.334.467-4.876zm12.309 4.79a57 57 0 0 0-.459-4.79l.986-.139a58 58 0 0 1 .467 4.876zm.092 3.428q0-1.224-.046-2.411l.996-.038a65 65 0 0 1 0 4.898l-.996-.038q.046-1.187.046-2.411M57.57 58.041a64 64 0 0 0 0 4.822l-.995.038a65 65 0 0 1 0-4.898zm.046 5.838c.09 1.673.247 3.279.46 4.791l-.987.139a58 58 0 0 1-.467-4.876zm12.31 4.791a57 57 0 0 0 .458-4.79l.994.053c-.092 1.7-.25 3.334-.467 4.876l-.986-.139Zm-11.7 1.005a39 39 0 0 0 1.036 4.681l-.956.28a40 40 0 0 1-1.062-4.802zm10.513 4.681c.409-1.4.759-2.973 1.034-4.681l.984.159a40 40 0 0 1-1.063 4.802zm-9.178.96c.594 1.79 1.285 3.222 2.03 4.219l-.798.596c-.832-1.114-1.565-2.654-2.177-4.501zm6.848 4.219c.745-.997 1.436-2.428 2.03-4.219l.946.314c-.613 1.847-1.346 3.387-2.178 4.501zm-4.199.716c.614.6 1.215.873 1.79.873.576 0 1.176-.273 1.79-.873l.696.712c-.734.717-1.57 1.157-2.486 1.157s-1.752-.44-2.486-1.157z"/><path d="M49.196 56.027c-1.848-.38-3.433-.497-4.67-.35l-.117-.99c1.381-.163 3.082-.028 4.988.365zm-5.599-.172c-.827.231-1.363.615-1.65 1.113-.289.499-.353 1.155-.14 1.987l-.964.247c-.255-.994-.217-1.938.24-2.732.459-.793 1.258-1.298 2.246-1.574zm11.152 1.838a39 39 0 0 0-4.572-1.445l.236-.967c1.463.357 3.04.854 4.69 1.481zm5.324 2.37a57 57 0 0 0-4.379-2l.373-.922a58 58 0 0 1 4.457 2.033zm3.014 1.633a64 64 0 0 0-2.11-1.166l.465-.88a65 65 0 0 1 4.241 2.448l-.53.843a65 65 0 0 0-2.066-1.245m-20.97-1.847c.491 1.144 1.385 2.459 2.639 3.868l-.745.662c-1.292-1.454-2.26-2.86-2.809-4.137zm27.813 6.434a57 57 0 0 0-3.92-2.793l.543-.834a58 58 0 0 1 3.99 2.842zm-24.492-1.827a39 39 0 0 0 3.536 3.238l-.629.772a40 40 0 0 1-3.627-3.322zm28.823 5.698a39 39 0 0 0-3.537-3.237l.629-.772a40 40 0 0 1 3.628 3.32zm-24.492-1.827a57 57 0 0 0 3.92 2.794l-.544.834a58 58 0 0 1-3.99-2.843zm27.812 6.434c-.491-1.144-1.385-2.458-2.638-3.868l.744-.662c1.293 1.454 2.26 2.86 2.809 4.137zm-23.036-3.092a64 64 0 0 0 4.177 2.411l-.465.88a65 65 0 0 1-4.242-2.448zm5.08 2.879a57 57 0 0 0 4.379 1.998l-.373.924a58 58 0 0 1-4.457-2.034l.45-.888Zm18.127 3.094c.288-.498.352-1.155.139-1.987l.965-.247c.254.994.216 1.939-.242 2.732s-1.256 1.298-2.245 1.574l-.268-.959c.827-.231 1.363-.615 1.651-1.113m-12.802-.725a39 39 0 0 0 4.571 1.445l-.236.967a40 40 0 0 1-4.69-1.48zm5.553 1.666c1.847.38 3.433.498 4.668.35l.118.99c-1.381.163-3.082.028-4.987-.365l.2-.975Z"/><path d="M78.604 55.052c1.906-.392 3.606-.528 4.987-.364l-.117.989c-1.236-.147-2.822-.03-4.67.35zm6.067-.156c.989.277 1.788.782 2.246 1.575s.495 1.737.24 2.731l-.964-.247c.213-.832.15-1.488-.139-1.986-.288-.499-.824-.882-1.65-1.114zm-11.773 1.866a40 40 0 0 1 4.69-1.48l.236.967c-1.418.345-2.955.83-4.572 1.444l-.354-.93Zm-5.421 2.413a58 58 0 0 1 4.456-2.034l.373.923a57 57 0 0 0-4.379 1.999zm-3.062 1.66a65 65 0 0 1 2.144-1.185l.465.88a64 64 0 0 0-4.177 2.412l-.53-.843q1.022-.642 2.098-1.265Zm22.383-.593c-.548 1.278-1.516 2.683-2.809 4.137l-.744-.662c1.253-1.41 2.147-2.724 2.638-3.867zM57.458 65.5a58 58 0 0 1 3.99-2.843l.543.834a57 57 0 0 0-3.92 2.793zm25.825-.354a40 40 0 0 1-3.628 3.32l-.629-.771a39 39 0 0 0 3.537-3.237zm-30.263 4.32a40 40 0 0 1 3.628-3.321l.629.772a39 39 0 0 0-3.537 3.237zm25.825-.354a58 58 0 0 1-3.99 2.843l-.543-.834a57 57 0 0 0 3.92-2.793zm-29.34 5.257c.548-1.278 1.516-2.683 2.809-4.137l.744.661c-1.253 1.41-2.147 2.725-2.638 3.868zm24.48-1.857a65 65 0 0 1-4.241 2.45l-.465-.882a64 64 0 0 0 4.176-2.41zm-5.159 2.924a58 58 0 0 1-4.456 2.034l-.373-.923a57 57 0 0 0 4.379-1.999zm-19.44 2.704c-.458-.793-.496-1.737-.241-2.731l.965.246c-.213.832-.15 1.489.138 1.987.288.499.825.882 1.652 1.114l-.269.959c-.988-.277-1.787-.782-2.245-1.575m14.019-.292a40 40 0 0 1-4.69 1.482l-.236-.968a39 39 0 0 0 4.572-1.444zm-5.706 1.71c-1.906.393-3.606.529-4.987.365l.117-.989c1.236.147 2.822.03 4.669-.35l.2.974Z"/><path d="M66.592 64.32c-.113.066-.2.04-.293-.068a4 4 0 0 1-.544-.847c-.269-.542-.43-1.117-.558-1.704a5 5 0 0 1-.128-1.168 1 1 0 0 0-.025-.279c-.011-.045-.064-.104-.107-.112a2.3 2.3 0 0 0-.388-.034l-2.64.003q-.225-.001-.449-.01c-.078-.004-.152-.038-.19-.105-.116-.212-.228-.428-.271-.67-.006-.026.026-.081.05-.086.088-.02.181-.038.273-.038q.955-.003 1.909-.002v.002c.58 0 1.162-.008 1.741.004.311.006.595-.037.84-.244a.4.4 0 0 1 .145-.083c.05-.012.122-.02.161.006.187.124.367.258.547.393.136.1.156.172.074.336-.366.731-.35 1.479-.11 2.238.148.468.38.895.646 1.304l.281.42c.038.056.01.156-.048.2-.015.01-.028.025-.044.034q-.434.257-.872.51m.097 2.895-.45.005q-1.263.002-2.528.002l-2.528-.001q-.197-.001-.393-.008c-.101-.004-.185-.047-.229-.137a38 38 0 0 1-.364-.76c-.022-.045.02-.128.064-.13.168-.01.336-.026.503-.028l4.72-.02q.253-.001.505-.013a.4.4 0 0 0 .293-.146c.097-.115.187-.235.29-.343a.185.185 0 0 1 .209-.043c.17.076.333.166.504.242.346.155.368.248.177.545a12 12 0 0 1-.48.69.36.36 0 0 1-.293.145m-5.378-5.653c-.014-.092-.017-.185-.021-.278-.004-.07.063-.15.128-.162.055-.009.11-.025.166-.026.148-.003.297 0 .448 0v-.023l.558.036c.06.004.13.1.12.161-.178 1.202-.716 2.188-1.728 2.892a.4.4 0 0 1-.101.043c-.016.006-.047.006-.052-.002-.017-.032-.042-.071-.035-.098.024-.09.061-.176.093-.263.09-.244.187-.487.27-.735a3.3 3.3 0 0 0 .154-1.545m22.028-4.468H68.566L64 43.046l-4.565 14.048H44.659l11.954 8.685-4.565 14.051L64 71.147l11.953 8.683-4.566-14.051zM52.593 94.647c-.024-.018-1.176-.497-1.372-.497-.146.607.178.033.108.607l-1.252 3.185c-.574 1.43-.402.344-.76.98.086.196.056.135.343.236l.419.148.602.211c.01.003.03.003.04.004l.037-.004.069-.018c.315-.486-.202-.009-.086-.578.024-.119.181-.466.248-.636.166-.418.324-.802.489-1.216.18-.45.328-.825.506-1.262.076-.189.163-.447.257-.624.238-.452.27-.033.48-.346-.03-.194.012-.092-.128-.19M40.325 87.37c.476-.509 1.213-.192.623-.713-.414-.366-.62-.709-.942-.81-.149.37.09.327-.19.632-.158.171-.301.31-.466.482-.324.34-.604.628-.93.967-.311.324-.64.612-.953.94-1.01 1.061-.604.122-1.09.65.132.27.396.387.598.607.15.163.43.608.631.402.303-.31-.118-.045.06-.44l.87-.906c.21-.217.405-.366.617-.584.211-.213.374-.396.585-.614.211-.221.378-.39.587-.613M25.982 67.533c-.076.26.01 1.252.064 1.544.11.047.104.115.277 0 .11-.073.021-.05.136-.18.21-.241 1.273-.22 1.764-.243.798-.04 1.83-.173 2.586-.14.159.177.122.23.43.22.055-.2.002-.982-.031-1.252l-.083-.324c-.5.073.016.158-.401.31-.044.017-.522.043-.61.048l-3.66.253c-.264-.207-.039-.273-.472-.236m75.334 3.058c-.1-.058-1.464-.501-1.68-.393.017.43.198.14.794.73.281.276.47.554.26 1.037-.395.085-2.756-.566-3.307-.704-.285-.072-.538-.118-.817-.198-.685-.198-.018-.596-.509-.466-.106.03-.1-.01-.17.358l-.212 1.19c.445.033.085-.21.599-.171l2.01.469c.43.1.876.209 1.326.31 1.442.329.374.48 1.029.544.148-.178.658-2.365.677-2.706M42.435 88.228c.07-.292-.274-.452-.47-.632-.339-.314-.444-.499-.666-.518-.19.341.076.303-.135.683-.375.674-2.361 3.856-2.452 4.18l.305.203c.25-.093.947-.611 1.191-.788l2.843-1.956c.445-.155.398.145.62-.183-.077-.144-.624-.67-.798-.738-.434.303-.027.08-.079.622-.329.245-.722.502-1.063.747-.28.2-.754.586-1.093.716l1.337-2.315c.32.005.234.09.46-.021m52.825-4.941c-.15.25.038.297.224.415.586.37.742 1.14.19 1.306-.533.16-1.71-.592-2.077-.81-.487-.287-1.43-.894-1.698-1.27-.418-.582.242-.64.716-.58.504.062.839.357 1.05-.029-.166-.158-1.308-.856-1.52-.9-.248.313-.087.148-.155.588-1.047.367-.565 1.593-.037 2.194 1.05 1.195 3.525 2.404 4.307.888.211-.41.12-.902-.114-1.227-.152-.21-.228-.243-.424-.399-.09-.07-.14-.13-.216-.168-.066-.034-.054-.03-.121-.036-.128-.013-.055-.007-.125.028m1.084-21.089c-.01.061-.002.18.002.245.031.62-.083 1.307.24 1.252.336-.057-.092-.224.562-.445 1.398-.473 2.659-1.054 4.085-.81.173.33-.068.357.353.318.134-.213.058-1.416-.003-1.687-.675-.108-.012.216-.52.333-.474.107-1.852-.032-2.265-.143l-1.348-.36c-1.047-.278-.413-.547-1.105-.558l.064 1.15c.615.016-.168-.608 1.164-.209.328.098.969.239 1.23.396-.403.152-1.605.604-1.998.62-.209-.29-.013-.332-.396-.303-.1.155-.036-.024-.066.201Zm-69.108 1.095a5 5 0 0 1-.733.177c-.627.069-.101-.22-.619-.265-.127.21-.09 1.397-.024 1.604.443.033.13-.108.488-.32.19-.115 1.747-.435 2.03-.498.818-.182 1.934-.39 2.705-.634.156-.59-.05-.514-1.008-.743l-3.697-.913c-.437-.221.01-.304-.562-.35-.001.35-.07.911.068 1.173.56-.142-.166-.57 1.371-.232zm.4-.083.01-.807c.43.084 1.343.24 1.652.43l-1.661.377ZM57.019 95.9c-.358-.082-1.048-.3-1.293-.267-.053.487.111.16.24.504l.13 2.32c.042.605-.196 1.884-.36 2.051-.238.242-.309-.107-.37.415l1.615.385.08-.222c-.137-.231-.344-.059-.24-.619.297-1.587.545-1.698 1.352-3.083.62-1.064.625-.452.818-.907-.146-.175-.956-.356-1.153-.376-.018.532.031.16.265.502-.017.277-.821 1.615-1.005 1.875-.056-.438-.165-1.744-.085-2.126.34-.17.264.126.404-.253-.11-.177-.163-.144-.398-.199m27.08.5c.195-.15.088-.011.191-.234.242-.517.21-.182.8-.462.998-.473.692-1.454.15-2.138-.8-1.007-3.498-.534-3.338-1.621.122-.828 1.175-.135 1.542.14.296.22.212.183.55.065-.083-.252-.825-1.393-1.033-1.475-.262.231-.138.276-.355.465-.569.163-.73.055-1.002.572-.216.41-.178.85.039 1.222.702 1.207 2.316.797 3.287 1.385.32.195.558.637.213.994-.305.316-.865.095-1.175-.095-.698-.43-.523-.515-.95-.346.076.175.847 1.394 1.08 1.529ZM26.425 66.33c.207-.09 1.579-.143 1.858-.158.797-.046 1.738-.145 2.52-.13-.197.51-.91.603-1.316.701-.49.117-.15.321-.15.321.01.002.033.011.048.015.238.051 1.474-.08 1.743-.099.04-.354-.034-2.58-.13-2.806-.055-.07-.174-.065-.248-.07l-.695.036c-.299.003-.692-.03-.949.075.002.325-.004.275.323.309.243.025.297.024.54.088.352.094.64.147.758.465-.823.007-1.74.092-2.568.147-3.06.203-1.527-.212-2.314-.23-.005.308.027.624.044.924.043.76-.052.659.186.777.28-.144.03-.225.35-.365M46.63 97.832c.528.27.422-.278.914.284.79.905 1.87.35 2.163-.733.221-.825-.123-1.411-.348-2.088-.281-.843-.622-1.677.484-1.607.194.292.267.458.247.96-.008.19-.074.45-.075.59-.002.265.002.175.241.308.116-.128.745-1.29.738-1.522l-.026-.101c-.382-.13-.288.154-.583-.094-.113-.096-.23-.26-.397-.365-.378-.24-.816-.148-1.16.07-1.683 1.063.815 3.931-.223 4.579-.409.256-.793-.114-.89-.485-.114-.442-.068-.667-.026-1.066l-.005-.31-.32-.077c-.147.276-.735 1.442-.734 1.657m41.797-11.084c.796.015 1.057.48 1.623.688l.159-.183-1.376-1.327-2.055 1.983c.185.231 1.09 1.248 1.34 1.341l.149-.094c-.079-.365-.79-1.137-.57-1.651.349.194.588.601.874.902.156.164.303.256.458.424l1.291 1.36c.918.985-.019.641.546 1.032.147-.104.243-.265.39-.403.145-.14.244-.231.39-.368.848-.8.064-.458-.189-.468zM52.25 96.741c.327.04.274.095.406-.198.185-.416.477-1.012.965-1.144l-1.21 4.379c-.165.044-.522-.05-.374.261.07.15 1.445.451 1.619.474.12-.535-.011-.15-.18-.495-.1-.202.348-1.605.415-1.862.112-.436.224-.832.334-1.243l.172-.648.137-.445c.09-.175-.004-.027.093-.129.441 1.233.084 1.178.219 1.704l.241.062c.12-.213.443-1.578.453-1.845l-2.752-.722zm21.62-1.077c1.227-.326 1.085.605 1.642.93l.253-.079-.621-1.56-2.41.701c-.237.086-.168.005-.258.19.142.48.247-.047.44.448l1.24 3.929c.018.452-.373.041-.184.497.2.061.432-.056.815-.166.26-.076.617-.11.759-.287l-.036-.218-.398-.071c-.172-.527-.496-1.39-.603-1.974.886.093.693.859 1.065.763.074-.11.111.072.038-.297l-.61-1.924-.277.094c-.017.508.066.752-.305 1.014-.143-.238-.594-1.716-.55-1.99M36.824 81.923c-.432.295.055.288-.327.668-.125.124-.446.33-.619.458-.469.347-2.13 1.649-2.53 1.767-.59.174-1.136-.533-.641-1.026l2.448-1.844c.144-.105.49-.408.622-.454.465-.164 1.117.487.135-.85-.466-.635-.23-.553-.556-.504-.219.335.176.315-.373.689a12 12 0 0 0-.581.429c-1.53 1.193-3.32 1.938-2.233 3.32.97 1.232 1.818.35 2.678-.288l1.198-.885c.92-.678.734-.642 1.261-.387l.173-.188c-.08-.206-.496-.741-.655-.905M63.86 99.1q.004-.65 0-1.297c-.001-.452-.13-.903.422-.777.463.107.505.27.674.663.08.186.115.349.18.516.087.228.092.232.381.19l-.14-1.715-2.798.062c-.055.537-.001.152.284.483l.035 4.298c-.035.107-.218.07-.266.321-.023.115-.004.074.01.173.287-.004 1.4.02 1.647-.109.011-.586-.156-.044-.338-.424l-.062-2.02c.833.203.241 1.062.922 1.025.057-.364.019-.809.002-1.178-.021-.454.058-1.127-.163-1.162-.328.055-.122-.112-.228.254-.067.232-.1.695-.562.697m19.46-2.258c-.12-.336-.467-.836-.669-1.191-.224-.4-.435-.753-.668-1.163-.22-.385-.44-.767-.67-1.162-.632-1.09-.082-.733-.212-1.24-.123-.003-1.035.406-1.012.56.058.387.383-.08.713.433l1.136 2.075c-.87-.569-1.992-1.547-2.766-2.036-.233.056-.984.442-1.063.641l.05.167.454-.038c.493.727 1.332 2.318 1.867 3.238.587 1.01-.27.731.208 1.123.207-.096.322-.175.52-.304.85-.548.167-.37-.132-.528-.221-.12-1.631-2.825-1.71-3.015l2.715 2.008c.264.196.596.478.886.651l.352-.219ZM96.346 63.89c-.107.313.028.271.09.488.075.251-.085.307-.14.492-.275.899 1.107 1.649 2.333 1.781.975.106 2.688-.018 3.042-1.089.181-.549-.062-.748-.224-1.096.16-.212.352-.183.22-.52-.53-.192-1.829.064-2.176-.1-.316-.149.035-.258-.478-.186l-.052 1.41c.583.112.113-.066.546-.304.081-.035 1.83-.165 1.88.395-.17.695-1.878.468-2.516.432-.501-.028-.922-.003-1.414-.093-.779-.141-.859-.19-.853-.613.239-.193.371-.3.686-.423.475-.184.804-.092.786-.376-.077-.192.036-.057-.142-.145zM70.943 96.478c.293-.4.858-.021 1.01.147.478.525.116.774.71.716l-.325-1.495c-.406-.04-2.236.404-2.763.496.064.485.142.095.37.463.108.173.364 1.687.42 1.983.086.444.167.908.256 1.38.292 1.566-.254.621-.064 1.246l.105.029.053.008q.026.002.054.002l1.211-.231c.466-.094.923-.185 1.395-.267.003-.294-.1-.638-.156-.921l-.085-.424c-.077-.388-.088-.305-.149-.371-.274.098-.195.17-.247.52-.077.512-.306 1.172-.93 1.113-.193-.309-.4-1.645-.453-2.132.334.039.467.206.586.424.235.43.017.495.492.402-.012-.359-.158-.855-.237-1.226-.224-1.044-.087-.997-.474-.992-.105.223.125.819-.457 1.01-.107-.345-.319-1.477-.322-1.88m-25.837-4.135c.157-.109.899-1.085.973-1.302-.633-.402-1.818-1.4-2.263-1.641-.388.323.092.141-.123.64l-2.02 2.718c-.07.093-.357.504-.408.54-.362.271-.219-.144-.595.205l2.262 1.78c.204-.134.418-.445.595-.67.203-.26.556-.579.414-.73-.155-.167-.49.153-.912.357-.334.158-.716.214-1.038-.035-.147-.233.37-.784.557-1.016.144-.178.522-.716.72-.83.207.742-.17.897-.11 1.227.324.105.266.004.49-.306l1.039-1.42-.173-.163c-.395.162-.394.54-1.078.359.1-.227.93-1.409 1.263-1.555.276.14.538.394.487.844-.087.773-.495.702-.08.998m39.483-2.304c.549-.984 1.447.234 1.874.084.026-.23-.727-1.138-.914-1.312l-2.257 1.733c.34.387.101.15.418.202.19.031.266.157.376.313l1.888 2.468c.112.151.223.28.334.426.343.45-.342 1.153.854.224l1.591-1.222c-.199-.458-.754-.954-.963-1.427-.326.117-.294.14-.179.48.184.542.43 1.497-.386 1.576-.288-.473-1.114-1.44-1.234-1.72 1.071-.141.574.647 1.334.342-.122-.254-1.282-1.71-1.458-1.83l-.179.115c.13.57.365.38.107 1.117-.179-.116-1.136-1.32-1.206-1.57Zm-45.683-5.175c.09.405.12.386-.166.667l-1.682 1.416 1.408-2.97c-.182-.32-.38-.461-.61-.733-.092-.105-.186-.321-.357-.16-.183.174.004 0 .055.462-.78.77-1.739 1.495-2.327 2.07-1.366 1.337-1.096.297-1.548.787.06.196.633.819.806.905l.157-.13c-.003-.319-.292-.329.358-.906l1.46-1.25c.188-.16.547-.416.714-.564l-1.895 3.94c.088.147.18.244.329.32.28-.156.953-.808 1.227-1.05.392-.346.842-.683 1.236-1.039l.913-.791c.157-.145.152-.19.404-.163.19.018.29.198.416-.025.093-.165-.018-.2-.148-.35-.154-.175-.364-.47-.523-.614zm58.989-5.846c1.347.498.321.485.976.713.124-.136.177-.357.25-.555.032-.088.082-.197.107-.283.092-.323.08-.122-.001-.2-.263-.26-.186-.013-.482.123-.057.01-2.879-.858-3.136-1.125l3.58-.271c.5-.032.642.007.75-.201.03-.056.05-.197.064-.263l-4.563-1.673c-.016-.072-.023-.202-.04-.274-.049-.227.07-.066-.088-.218-.28.01-.254.201-.362.466-.076.187-.17.384-.225.575.436.356.185-.124.656-.1.234.013 2.068.618 2.303.808-.565.116-3.019.161-3.272.306-.172.127-.42.988-.443 1.172.492.226.158-.277.696-.19zm-7.686 5.907c.105-.31.44-.528.865-.473.648.084.683.457 1.019.195-.005-.227-.02-.144-.221-.3l-.906-.788c-.235.201-1.805 1.98-1.857 2.162.42.404.164-.187.603.147.19.145.368.305.513.441l2.081 1.772c1.15.954.142.606.693 1.057.119-.054.374-.341.502-.492l1.386-1.57c-.132-.284-1.076-1.186-1.29-1.238l-.153.15c.11.487.934 1.21.322 1.892-.311.026-.388-.126-.56-.259l-1.268-1.115c.596-.262.793-.036 1.18.227.085-.094.103-.12.172-.23-.23-.265-1.49-1.408-1.763-1.523l-.138.22c.213.349.444.43.338 1.056-.246-.109-.928-.755-1.182-.962-.087-.072-.1-.075-.197-.182-.157-.174-.052-.022-.139-.187m-13.507 9.722c.315-.282.747-.238 1.066.015.478.378.361.673.725.558.079-.227-.398-1.191-.584-1.44l-2.307.958c-.326.155-.172.038-.237.225.233.359.283-.104.512.39l.766 1.824c.177.422.341.812.528 1.238.06.135.242.526.26.626.077.399-.29.195-.024.59.089.075 2.504-1.042 2.62-1.132-.061-.264-.212-.567-.326-.844-.316-.765-.157-.73-.529-.645-.183.32.336 1.733-.716 1.807-.189-.288-.722-1.554-.844-1.965.562-.052.772.473.919.697l.284-.11c-.047-.313-.328-.87-.455-1.16-.248-.563-.345-1.114-.64-.932-.2.276.198.633-.252 1.131-.164-.143-.33-.654-.431-.896-.124-.294-.301-.616-.335-.935m-45.8-22.325c-.196.11-.633.602-.862.784-.206.163-.257.23-.46.421l-1.328 1.2c-.362.318-.637.379-.537.784.073.303.038.167.175.176l3.857-1.254c1.411-.467.377.25 1.209.005-.034-.257-.111-.394-.189-.628-.102-.309-.054-.447-.38-.434-.138.167-.02.185-.138.365-.144.219-2.122.832-2.346.882l1.846-1.703c.145-.121.468-.433.558-.563l-.424-1.184c-.402.109-.16.12-.316.487-.28.181-1.83.64-2.258.778-.397.13-.747.248-1.136.379-1.067.357-.638-.105-1.144-.06-.02.216.107.712.187.926.27.732.428-.258.427-.262l3.26-1.1Zm64.25 1.68c.05.456.595 1.045.905 1.297 1.167.944 4.635 1.126 4.38-.716-.297-2.144-5.532-2.871-5.285-.582Zm1.479-.53c.708.132 3.31.712 3.453 1.298.211.861-2.042.163-2.437.072-.768-.176-1.707-.475-2.178-.948.007-.344.028-.423.37-.476.265-.041.53.004.792.053Zm-65.05-2.88c.285-.67-.247-1.209-.678-1.418-1.48-.722-4.045.223-4.452 1.55-.668 2.19 4.126 2.233 5.13-.133Zm-.264-.66c.019.748-1.322.99-2.01 1.177-.426.117-2.3.715-2.525.213-.286-.636 1.46-1.018 1.956-1.16.706-.2 1.903-.62 2.579-.23m31.2 29.956c.241-1.255-.045-2.773-.91-3.268-2.014-1.157-3.217 4.221-1.257 5.169 1.247.602 1.982-.939 2.167-1.901M61.33 96.85c.403.587.23 1.843.169 2.656-.037.496-.123 2.397-.826 2.029-.552-.289-.185-3.141-.066-3.86.086-.517.126-.887.723-.825m34.972-28.342c.11.472.677.901 1.08 1.11.412.213 1.235.365 1.741.41 1.15.105 2.871-.552 2.535-1.716-.318-1.1-1.763-1.48-2.808-1.546-1.176-.073-2.858.413-2.548 1.742m.3-.522c.585-.423 1.775-.195 2.568-.097 1.026.128 2.224.095 2.164.895-.76.494-2.977.121-3.922-.082-.433-.093-.898-.182-.81-.716m-70.81-6.835c.445.12 3.346.35 4.185.42 1.21.103.448.447 1.023.478.156-.222.199-.842.167-1.158-.625-.069-.038.21-.617.275l-2.467-.2 3.175-1.042.093-1.36c-.367.061-.27.071-.391.356l-3.812-.256c-.74-.065-.652-.3-.673-.338-.117-.203.123-.083-.148-.168-.257.066-.15 0-.208.215-.015.058-.032.271-.04.347-.043.377-.108.444-.004.633.474.057.111.041.354-.215.153-.162.212-.129.463-.113l3.084.297-4.14 1.374zm40.644 35.831c0 .41.24-.108.365.444.036.158.053.507.073.691l.293 2.724c.155 1.403-.185.442-.184 1.201.997-.031 1.887-.087 2.437-.67 1.032-1.089.803-3.66-.535-4.456-.403-.238-.702-.292-1.244-.227-.565.069-1.205.033-1.205.293m1.855 4.606c-.246-.431-.496-4.434-.48-4.478.145-.407.662.033.758.246.294.646.479 2.467.479 3.162 0 .634-.134 1.081-.757 1.07m-20.337-7.35c.245-.287.517-.863.276-1.352-.238-.484-1.496-1.343-2.01-1.57-.337.407.121.136-.06.618-.042.112-.283.435-.377.575l-1.901 2.839c-.318.295-.283-.127-.553.241.122.164 1.182.94 1.41.929.26-.436-.214-.216.054-.7l1.127-1.714c.601.672-.2 1.07-.607 2.167-.176.475.063.943.49 1.064.449.127.885-.268.954-.578-.473-.238-.128.167-.645.21.087-.55 1.17-1.667.447-2.557.505.014 1.002.288 1.395-.172m-1.88-.407c.275-.57.657-.997.998-1.526 1.032.159.152 1.45-.3 1.638-.286.118-.464-.033-.698-.112m51.409-11.744c-.248.054-.078.095-.273.136-.25.05-1.305-.711-1.914-.902l.419-.677c.38.103.776.366 1.141.551.127.063.431.198.536.282.383.307-.065.28.31.509.176-.038.155-.116.254-.317.22-.453.635-1.005.385-1.124-.306-.143-.03.169-.45.065l-1.131-.581c-.531-.268-1.017-.51-1.554-.783-.448-.225-1.015-.395-1.124-.652l-.172-.371c-.278.136-.422.587-.563.857-.021.04-.227.45-.23.462-.018.1-.06.112.104.172.5.186-.045-.389.74.02l1.385.715-.39.701c-.32-.1-.687-.351-1.02-.51-1.018-.482-.523-.387-.733-.758-.286-.036-.202-.083-.347.227-.19.406-.5.852-.563 1.158.624.127.283-.186.706-.011l1.804.92c.415.21.8.402 1.218.611 1.425.715.225.455.978.822l.656-1.388zM33.72 76.455c-.371.179.14.237-.405.554l-3.296 2.026c-.417.136-.46-.287-.451-.349.046-.367 3.524-2.814 3.875-3.239l-.167-.451c-.55.03-3.23.649-4.101.839-.808.176-.838-.084-1.3-.006.062.308.219.552.354.822.357.704.391-.242.391-.242.335-.18.457-.241.93-.282l.427.912c-1.541 1.12-.5.288-1.297.45.05.682 1.87 3.49 2.05 3.99.263-.067.62-.28.84-.406.631-.36.652-.207.703-.532-.459-.304-1.651.528-1.923-.48.028-.255 1.78-1.185 2.071-1.357l1.59-.935c.419-.125.193.268.524.089.163-.159-.381-.897-.565-1.212-.127-.214-.107-.249-.25-.19Zm-2.053-.785c-.198.193-1.199 1.017-1.38 1.1l-.358-.746 1.738-.355Zm56.156-31.537c.367-.134.677-.538.805-1.026.213-.82-.673-2.292-1.075-2.678-.188-.18-.793-.765-1.091-.746-.002.21.088.196.242.393.154.196.162.224.207.54.109.771.358 2.284.712 2.964.054.102.083.142.119.262zM51.48 29.126c1.11-.249.38-.063 1.302-.377.192.133.367.441.443.759l-1.589.857c-.377.164-.452.019-.788.092.237.508 1.404 1.745 1.938.806.16-.279.316-.474.55-.62.068.651-.382 1.288-.677 1.565-.174.164-.444.322-.342.712.085.331.26.532.59.56.17-.047.599-.787.9-.972.098.598.362 2.26.914 2.344.126-.829-.175-2.088-.266-2.938-.05-.465.281-.762.469-1.103.31-.563.262-.691.269-1.394-.157.135-.17.386-.375.782-.162.31-.3.49-.526.666-.171-1.61.803-1.614.03-1.97-.554-.255.115-.219-.455-.437-.1-.038-.165-.034-.31-.105.26-.243.887-.275 1.08-.557.25-.718-.402-1.187-1.005-1.296.103.59.17.483-.203.86-.387.392-1.092 1.205-1.561 1.468-.205.115-.243.092-.388.298m4.645-3.11c.562.558.403-.224.823 1.646.115.52.386 1.61.385 2.104-.3.242-1.657 1.324-1.995 1.335.044-.403.972-1.212 1.268-1.447.24-.19.359-.186.343-.63-.775-.575-.785-.254-1.094-.418.172-.491.927-.305.976-.947a.94.94 0 0 0-.768-.506c-.352-.036-.9.006-1.146.19l.163.164c.17.108.391.108.71.411-.141.625-.586.665-.426 1.337l.601.128c.144.708-1.678 2-.862 2.525.603.389 1.342-.856 2.4-1.27.15.695.875 4.123 1.414 4.046.38-.936-.492-3.938-.427-4.488.05-.437.765-.712 1.15-.855.995-.373.066-1-.518-.713-.286.14-.506.368-.84.47-.445-1.02-.072-3.41-1.085-3.601a.975.975 0 0 0-1.072.52Zm33.627 9.228c.865.16.877.16-.06.915l-1.238.97c-.18.146-.389.305-.688.257-.473-.077-.317-.145-.699-.322-1.409-.654-.957-.653-1.315-.854-.178.328-.261 1.582.4 2.02l.228.17c-.585.242-.702.426-1.522.5-.734.067-1.112.067-1.72-.182.064-.3.038-.064.145-.339l-.514.117-.047.016-.046.02-.086.05c.33.735.914 1.145 1.658 1.488.818.377 2.473-.723 3.48-1.08.828-.294 2.337.83 3.122.536.067-.026.493-.205.558-.25.02-1.03-.982-1.176-1.3-1.823.76-.533 1.434-.876 1.24-1.632-.064-.255-.336-.835-.543-.92-.177-.07-.375-.014-.558.042-.52.162-.436.158-.495.3Zm.115 2.644c-.033.019.16.187-.236.027-.08-.033-.062-.049-.14-.128.273-.095.231-.113.376.1Zm8.709 9.898c-.306.02-.787.444-1.006.67-.327.332-.427.51-.485 1.102-.191-.069-.287-.27-.59-.393-.256-.103-.543-.075-.78-.166.094-.352.396-.407.544-.747-.543-.099-1.15.48-1.795.523-.613.04-.491-.005-.784.399-.146.2-.433.547-.159.82.221.213.718-.102.987-.18 1.894-.55 1.796-.457 2.515.529.175.239.436.46.633.691.73.856 1.88 1.395 1.898 1.874-.356.07-.624-.097-.912-.207-.536-.204-.341-.185-.664-.473-.686-.613-.846-.634-1.403-1.375a.576.576 0 0 0-1.016.205c-.136.538.652.655 1.005 1.183-.318.005-.435-.101-.696-.058-.268.042-.32.185-.47.295-.161-.172-.305-.236-.478-.412-.46-.464-.822-1.147-1.504-1.125-.191.25-.202.416-.366.761-.125.262-.264.462-.308.767-.08.55-.252 1.648.124 1.967.432.367.976.49 1.648.309 1.13-.307.969-.574 1.516-.69.23.189.26.299.445.498.201.216.23.4.502.468.331-.24.319-.804.031-1.127-.155-.174-.644-.541-.62-.812.34-.18.67.007.99.126.555.205.359.173.88.031l.92.947c.512.33.936.171 1.134-.34.289-.748-.38-1.475-.778-1.911a3 3 0 0 0-.219-.22c-.21-.2-.098-.01-.215-.27.368.088.355.203.677.309.682.22 1.574.406 1.797-.435.17-.642-.063-1.125-.397-1.406-.475-.398-.701-.294-1.35-.291-.007-.419.077-.654-.261-.9-.07.094 0-.047-.071.153l-.127.366c-.2.298-.879.416-.622 1.36-.481-.018-.908-.143-1.16-.553.268-.085.557-.494.723-.664.418-.429.628-.417.699-.638-.176-.07-.418-.064-.641-.035zm.538 2.923c.115-.164.194-.216.39-.32.26-.137.649-.367 1.058-.295.213.039 1.22.918-.203.695-.392-.061-.828-.048-1.245-.08m-5.676 1.177c.218-.022.851.509 1.008.653.401.364.776.478.778.968-.526.29-1.58 1.209-1.852-.461-.156-.953.025-1.023.04-1.121.003-.022.016-.026.026-.039m-52.21-18.334c-.177-.327-.136-.489-.585-.578-.398-.08-.625.027-.94.166-.379.165-.461.123-.67.47-.126.206-.309.517-.307.782.203.02 2.597-.695 1.814.596-.402.662-.835 1.638-1.172 1.986l-.098.104c-.495-.193-.524-.266-.626-.835-.061-.337-.045-1.015-.31-1.22-.482-.197-.88.084-1.052.373-.2.337-.226.852-.302 1.272-.153.841-.455.987-.006.951.436-.035.79-.372 1.125-.498.602.838 1.757.488 1.914 1.321-.789.156-1.534-.604-2.037-.334-.146.471.088.518.355.655l2.67 2.761c.48.482.611.69 1.489.368.072-.723-.204-.323-.833-1.15-.301-.397-.473-.912-.875-1.104.05.341.215.53.31.849-.24-.118-1.226-1.258-1.312-1.41l1.028.1c.22-.67.038-1.471-.687-1.823l-.31-.174c.708-.042.648-.206.95-.707.217-.361.396-.707.576-1.05.5.344 1.696 3.668 1.76 4.315.03.309-.112.524.025.725.342-.06.336-.39.366-1.01.016-.354-.103-.914-.168-1.256-.073-.378-.143-.775-.24-1.157-.096-.384-.296-.67-.4-1.047.124-.267.375-.54.768-.557.306.294 1.431 2.412 1.465 3.095l-1.049.166c.098.282.514.356.794.429.3.08.62.339.906.214.068-.056.137-.704.1-.908-.12-.67-.619-1.852-.903-2.436-.241-.496-.382-1.182-.886-1.327-.36-.103-.595-.03-.87.132-.359.213-.293.411-.578.585l-.614-.916c.126-.182.197-.367.336-.523.147-.165.294-.268.433-.451.118-.154.592-1.03.531-1.21-.076-.22-.361-.185-.624-.157-.673.07-.897.904-1.14 1.271l-.028.04-.029.038zm30.545-7.306c-.102.213.05.322.154.514.13.242.132.405.071.668-.143.615-.223.834-.616.965-.44.148-1.342.446-1.821.513-.314.044-.506-.028-.816.006.051.32.448 1.125.959 1.13.32.004.415-.174.73-.265.327-.095.602-.146.947-.166-.246 1.033-.245 1.048-1.14 1.426-.312.131-.57.294-.856.408-.372.148-.728.093-.994.32-.04.665.678.956.994 1.261.4.39.52.915.816 1.443.534-.054.698-.3.862-.562.544 0 1.142.06 1.672.012 1.103-.1 1.154-.567 1.343-.027.035.101.032.102.085.229.085.2.108.323.177.517.12.335.357.59.66.728.406.185.808.026 1.167.102.41.088.47.383.979.266-.12-.993-1.841-1.979-2.232-2.836.47-1.038 1.169-1.404.48-1.968-.354-.29-.335-.141-.673-.304.323-.913 2.057-.627 2.24-1.01.03-.345-.132-.553-.42-.65-.292-.097-.577-.168-.914-.114.1-.462.59-1.13.537-1.634-.06-.557-.653-.932-1.322-.794-.026.409.542.356.248 1.26-.08.24-.433.945-.572 1.129-.118.157-.98.385-1.242.466-.56.17-.693.332-1.098.585.255-.802.277-.273.859-.998-.06-.446-.354-.352-.247-.762.073-.279.248-.598.267-.89.042-.61-.784-1.1-1.284-.968m-.627 7.269c.683-.004 1.946-.402 2.308-.78.106-.378-.334-.744-.625-.878-.648-.298-.998-.095-1.04-.543.239-.098 1.317.164 1.642.254-.145-.688.226-.825.348-1.462-.626-.06-.694-.526-1.179-.12-.365.306-.52.409-.724.922-.201.505-.685 2.096-.73 2.607m-1.477-.883c.132-.315.3-.384.565-.59.257-.201.282-.368.596-.526l-.434 1.691c-.262-.03-.636-.409-.727-.575m3.963-.92c.286-.107.626-.246.971-.235.001.262-.293.554-.482.648-.236-.084-.308-.211-.49-.412ZM30.704 53.715c.483.207.957.395 1.43.592.604.249.752.47 1.496.23.912-.297 1.034-1.436 1.441-2.601.24-.684.145-.95.631-1.39.458-.412.996-.188 1.475-.536-.141-.676-.74-1.05-1.331-1.311-1.628-.719-4.018-1.433-5.314-2.578-.361-.32-.505-.302-1.007-.11-1.263.485-1.68.384-1.943 2.037-.572 3.599.477 2.673.893 4-.293.105-.439.076-.572.361zm.698-.762 1.999.845.363-1.063c-.185.16-.481.294-.772.08-.27-.195-.196-.444-.247-.825-.25.095-.558.296-.861.313-.242.013-.375 0-.544-.108l-.397-.237c-.337-.221-.325-.986-.487-1.411-.079-.209-.108-.169-.34-.27-.2.25-.15.915-1.276.887.152-.808.299-.973.062-1.84-.086-.319.055-.544.255-.714.302-.256.464-.222.914-.202.177.663.14 1.212.801 1.418l.57-.308c.127-.061.034.01.13-.076-.101-.364-.387-.818.363-1.086.205-.074.501-.071.65.07.371.356-.198.795-.31.997l2.023.568c.114.619-.262 1.09-.401 2.271l.183-.373c.209-.65.386-1.817.976-2.176l.25-.136c.013-.01.031-.02.043-.028l.085-.059c-1.332-.561-2.538-1.136-3.95-1.67l-2.003-.841c-1.206-.386-.796.932-.947 1.766-.144.796-.982 1.147-.618 2.01.326.772.854 1.074 1.544 1.299.762.245 1.25.637 1.942.899m.49-3.304c.309.536.598.768 1 1.121.092.08.146.123.216.178.192.155.053.202.18.077.112-.111.078-.451-.006-.58-.074-.114-.997-.76-1.39-.796m-.505 1.378c.369-.05.463.059.618.31-.092.235-.137.337-.433.36-.152-.18-.199-.333-.185-.67"/></g><defs><filter id="a" x="-13" y="0" width="154" height="157" filterUnits="userSpaceOnUse" color-interpolation-filters="sRGB"><feFlood flood-opacity="0" result="BackgroundImageFix"/><feColorMatrix in="SourceAlpha" values="0 0 0 0 0 0 0 0 0 0 0 0 0 0 0 0 0 0 127 0" result="hardAlpha"/><feOffset dy="16"/><feGaussianBlur stdDeviation="6.5"/><feColorMatrix values="0 0 0 0 0 0 0 0 0 0 0 0 0 0 0 0 0 0 0.03 0"/><feBlend in2="BackgroundImageFix" result="effect1_dropShadow_49_5374"/><feBlend in="SourceGraphic" in2="effect1_dropShadow_49_5374" result="shape"/></filter></defs></svg>