<svg xmlns="http://www.w3.org/2000/svg" viewBox="0 0 128 38.9"><path d="M18.3 14.9v-.2h-.2v-.2s-.1 0-.2-.1h-.2v-.1h.3s.1 0 .1.1l.1.1v.4Zm6.5 11.2v-.3l-.2.3zm.2.1v.3h-.2v-.2h-.3c0-.1.2-.3.3-.4v-.2h.1v.5Zm-1.1-.4v-.1h.4v.2h.1v.4s-.3.2-.5 0h.1c.1.2.3 0 .3 0s0-.1-.2-.2H24s.1 0 .1-.2h-.2Zm-.3.3v-.5s-.2.4 0 .4h.2Zm-.4.4h.2s.1-.2.2-.3h-.3v-.4s.2-.1.3-.1h.2s.1.2.1.3 0 .2-.1.3-.3.2-.4.2Zm-.1 0h-.5.1V26h.3v-.1.7h.1Zm.8-13.6c-3.4 0-6.1 2.8-6.1 6.1 0 2.9 2.1 5.5 5 6 .4-.4.3-.9-.2-1.2-2.9-1.7-1.5-2.8-.8-3.2-1.1-1-1-2.5-.7-2.9 0 0-.1 1.1 1.7 2.1.1-.2.5-.7-.3-1.1-3-1.8-1.3-2.9-.7-3.3 0 0-.2.2-.3.6 0 .3.4.8 1.2 1.3 1.7.9.7 2.3.2 2.6 1.7 1 .4 2.5-.2 2.6 0 0 .7-.8-.1-1.3-.3-.1-.6-.3-.8-.5-.1.2-.2.3-.3.6 0 .3.4.8 1.2 1.3.5.3 1.1.8 1.2 1.3 0-.6.7-1.1 1.2-1.3.8-.4 1.3-.9 1.2-1.3q0-.3-.3-.6c-.3.2-.5.4-.8.5-.9.5-.1 1.3-.1 1.3-.5 0-1.8-1.6-.2-2.6-.6-.2-1.5-1.7.2-2.6.8-.4 1.3-.9 1.2-1.3 0-.2-.2-.5-.3-.6.6.4 2.3 1.5-.7 3.3-.7.4-.4 1-.3 1.1 1.8-1 1.7-2.1 1.7-2.1.3.4.4 1.9-.7 2.9.6.4 2.1 1.5-.8 3.2-.5.3-.6.8-.2 1.2 2.9-.5 5-3.1 5-6 0-3.4-2.7-6.1-6.1-6.1m0 11.1v.2c-.3.6-1.2 1.2-2.3 1.6h-.2c-2.6-1-4.3-3.6-4.3-6.4 0-3.8 3.1-6.9 6.9-6.9s6.9 3.1 6.9 6.9c0 2.8-1.7 5.4-4.3 6.4h-.2c-1-.4-2-.9-2.3-1.6V24Zm0-10.2c.1.2.3.6.5.8.3.4.6 1.8-.5 2.7-1.1-.9-.8-2.2-.5-2.7.2-.3.4-.6.5-.8m0-3.8c-2.5 0-4.9 1-6.7 2.8s-2.8 4.2-2.8 6.7 1 4.9 2.8 6.7c3.7 3.7 9.6 3.7 13.3 0 1.8-1.8 2.8-4.2 2.8-6.7s-1-4.9-2.8-6.7-4.2-2.8-6.7-2.8Zm0-.4c2.6 0 5.1 1 7 2.9 1.8 1.8 2.9 4.4 2.9 7s-1 5.1-2.9 7c-3.8 3.8-10 3.9-13.9 0-1.8-1.8-2.9-4.4-2.9-7s1-5.1 2.9-7c1.8-1.9 4.3-2.9 6.9-2.9m-4.7 4.3-.2.2h-.1v-.2s0-.1-.1-.2v-.1h-.1s-.1 0-.2-.1v-.1c.1.1.2.2.4.3l.1-.2h.1v.1c0 .1-.1 0 0 .2 0 0 .1.2.2.2l.2.2V14h.1v.1Zm-3 1.9H16v-.6h.2v.4Zm.9.2h-.2v-.2l.1.1Zm.2-.1-.2-.2v-.3.2Zm-.2.3v.1H17v-.2h.2Zm.1.4h-.5.1v-.2h-.1l.1-.1h.1s0 .1.1.1v.4s0 .1-.1.2v.2l-.1.2v.1Zm2.9-4.7v-.2h.1s0-.1.1-.1l-.1.1-.1.1Zm.3 1.1v-.2h.1v.3Zm.1.3h-.1v-.6c0-.1 0-.3-.1-.4s0 0 0 .1v.4-.7h-.1v.2h-.1v-.4.1h.1v-.5.2c.1 0 .2-.2.4-.1h-.2v.3-.2.2h.5-.5v.4Zm9.1 1.7v-.9h-.7l-.1-.1h.5v-.1l-.2-.2v-.1h.1s.2.1.2.2h.6v-.1h.1s-.1 0-.2.1c0 0-.1 0-.2.1v.1s.1 0 .1.1c0 0 .1 0 .1.1l-.1-.1s-.1 0-.2-.1v.9h-.1Zm-7.2-3v-.3l.1-.1v.3Zm.4.3v-.2zv.2Zm.1.2h-.2v-.4s0 .1-.1.2h-.1v-.4h-.2.4v-.5h.1v.4h.2-.1.3v-.7.5h.3-.2v.2h.4-.6v.6Zm4.2.2v-.3h-.3Zm-.3.4V13s0-.1.1-.2h-.3.3v-.1s0-.1.1-.2h-.2.4v-.4.5h.1v.1H27v.1h.1-.2v.1h.1-.1v-.1c0-.1.1-.1 0-.1h.1s.1-.2.2-.2l.2-.2v.1l-.1.1v.1h.2-.3l-.1.1h.1-.1s0 .1.1.2l.1.1.1.1h-.3s-.1-.1-.1-.2v-.4h-.3v.1h-.1Zm-2-2.4h.1-.2Zm.1 1.7V12h-.1s0-.1.1-.2 0-.1 0-.1h-.3.3v-.3.1h.2s-.1 0-.1-.2c0 0 0 .1-.1.2v.4Zm.6.3v-.8h-.1.3v-.2h-.1.2v-.3.6s0 .1 0 0 .1 0 .1 0h-.1v.6Zm6.5 3v-.2h.1v.2Zm-.3-.4v-.4.1h-.1Zm-.5.4h.1v.1Zm-.3-.5h.3s0 .1.1.2v.2h.2v.3h-.2s-.1 0-.2-.1c0 0-.1 0-.2-.1 0 .1.2.2.2.4v.3l-.1.1h-.1v-.1h.1v-.1s-.1-.2-.1-.3c0 0 0-.1-.1-.2v-.2Zm-.7 1v-.3.5h.3s.2 0 .2-.1c0 0 0-.1-.1-.2 0 0 0-.1-.1-.2v.1l.1.1s0 .1.1.2h.1l.1.1h-.2v.1s0 .2.1.3v.1h-.1v-.1c0-.1 0-.2-.1-.3s0 0-.1 0H30Zm1.4 7-.3-.2h-.6v-.1h.4l-.2-.3v-.2l.4.5.3.2zm-.4.8-.6-.3v.2h-.2l.3-.6h.1l-.1.3.6.3Zm-.4.5-.7-.5c0-.1.7.3.7.3Zm-.7.5c0-.1 0 0 .1 0h.1v-.1h-.5v-.3s.1-.1.2-.1h.2-.1v.2h.5s.1.2 0 .3v.2s-.1.1-.2.1h-.2Zm-.7.4c0-.1 0-.2.1-.2l.1.2Zm.2.4-.6-.6.2-.2.1-.1h.2v.3h.5l-.1.2h-.3l.2.3h-.1v.1Zm-.6.6-.5-.6.5-.4c0 .1-.3.4-.3.4h.1c0 .1.3-.1.3-.1 0 .1-.3.4-.3.4v.2c.1 0 .5-.3.5-.3 0 .1-.5.5-.5.5Zm-.6.4-.7-.5h.1l.5.3-.2-.6h.1l.2.7h-.1Zm-.6.3-.4-.7h.1l.4.6h-.1Zm-.8.4-.3-.7h.1l.5.3-.2-.5h.1l.3.7h-.2l-.5-.3zh-.1Zm-1.1-.5h.2l.1.4v.1h.1V27c-.1 0 0 0 0 0v.4c.1 0 .2.2.2.2v.1h-.4v-.6Zm-1.2 1v-.8h.5c0 .1-.4.2-.4.2v.2h.4c0 .1-.3.2-.3.2v.3h-.1Zm-.7-.3-.2-.2Zm0-.2v-.1Zm.5.5H24v-.3l.1-.1v-.1h.4v.2l-.1.1h.1c0 .1 0 0 0 0h.1v.1h.1Zm-1.2-.3v-.3l-.2.3zm.2.4h-.2v-.2H23v.2h-.2l.4-.8h.2l.3.8Zm-1.9-.3.2-.7h-.2v-.2l.6.2c0 .1-.2 0-.2 0l-.2.7zm-.9-.6h.2v.2h.1-.1s-.1 0-.1-.1V27h.3s.2 0 .2.1v.2h-.2v-.2c0-.1 0 0 0 0H21l.1.1s.1 0 .1.1v.2s-.1.2-.2.2h-.2s-.2 0-.2-.1v-.2Zm-.9-.2.4-.7.5.3c0 .1-.4 0-.4 0v.2l.3.2c0 .1-.4 0-.4 0v.2c-.1 0 .3.2.3.2 0 .1-.5-.2-.5-.2Zm-.9-.5.3-.8h.1l-.2.6.4-.4h.2c0 .1-.2.7-.2.7l.4-.4h.1l-.6.7h-.1l.2-.7-.5.4h-.1Zm-.8-.7.5-.6h.1c0 .1-.2.4-.2.4l.2.2.2-.2h.1c0 .1-.5.7-.5.7h-.1c0-.1.2-.4.2-.4l-.2-.2-.2.3-.1-.1Zm-.5-.4.5-.5-.2-.2.5.4h-.2l-.5.5-.1-.1Zm-.2-1.1c0 .1 0 .2.1.2h-.2Zm-.5.2.6-.5.2.3s0 .1.1.2v.2h-.4v.5l-.2-.2v-.2l.1-.1-.3.2-.1-.1Zm-.1-.9s-.1.1-.1.2v.2h.3s.1-.1.1-.2v-.2l-.1-.1h-.2Zm-.1-.2h.4l.1.1v.3c0 .1-.1.2-.2.3h-.3c-.1 0-.2 0-.2-.2v-.3c0-.1.1-.2.2-.3Zm-.7-.6.7-.3c0 .1-.4.7-.4.7l.5-.2c0 .1-.7.5-.7.5v-.2l.3-.5-.5.2v-.1Zm23.6-.5h.6l1.5 2.5v-2.5h.6v3.6h-.6l-1.5-2.5v2.5h-.6zm5.2-.1c.3 0 .5 0 .7.2s.4.2.5.4.3.4.3.6.1.5.1.7 0 .5-.1.7c0 .2-.2.4-.3.6s-.3.3-.5.4c-.2 0-.5.2-.7.2s-.5 0-.7-.2-.4-.2-.5-.4-.3-.4-.3-.6-.1-.5-.1-.7 0-.5.1-.7c0-.2.2-.4.3-.6s.3-.3.5-.4c.2 0 .4-.2.7-.2m0 .6c-.2 0-.3 0-.5.1-.1 0-.2.2-.3.3 0 .1-.1.3-.2.4v.9c0 .1 0 .3.2.4 0 .1.2.2.3.3.1 0 .3.1.5.1s.3 0 .5-.1c.1 0 .2-.2.3-.3 0-.1.1-.3.2-.4v-.9c0-.1 0-.3-.2-.4 0-.1-.2-.2-.3-.3-.1 0-.3-.1-.5-.1M48 24h.7c.2 0 .3 0 .4-.1.1 0 .2-.2.2-.4 0-.1 0-.3-.2-.4-.1 0-.3-.1-.5-.1H48v1.1Zm-.6-1.7h2c.3 0 .5.3.6.6v.9c0 .1-.1.2-.2.3l-.2.2h-.2l.8 1.4h-.8l-.7-1.3h-.6v1.3h-.7v-3.6Zm4 .6h-1v-.6H53v.6h-1v2.9h-.7v-2.9Zm2.3-.6h.7v1.3h1.5v-1.3h.7v3.6h-.7v-1.6h-1.5v1.6h-.7zm3.5 0h.7l.5 2.8.5-2.8h.7l.5 2.8.5-2.8h.7l-.7 3.6h-.8l-.5-2.6-.5 2.6H58l-.7-3.6Zm4.7 0h2.5v.6h-1.9v.8h1.7v.6h-1.7v.9h2v.6h-2.7v-3.6Zm3.6 2.5c.1.2.3.3.5.4.2 0 .4.1.6.1h.5s.1 0 .2-.1v-.4l-.1-.1h-.9c-.1-.1-.3-.2-.4-.2s-.2-.1-.3-.2c0 0-.2-.2-.2-.3v-.4c0-.2 0-.3.1-.5s.2-.3.3-.3.3-.2.4-.2h.5c.3 0 .6 0 .8.2.2.1.5.3.7.5l-.6.4c0-.2-.2-.3-.4-.4-.2 0-.4-.1-.6-.1s-.3 0-.5.1c-.1 0-.2.2-.2.3v.2l.2.1h.9c.1.1.3.2.4.2s.2.1.3.2.2.2.2.3v.4c0 .2 0 .4-.1.6 0 .1-.2.3-.4.4-.2 0-.3.2-.5.2h-.6c-.3 0-.6 0-.9-.2-.1 0-.3-.1-.4-.2-.1 0-.2-.2-.3-.3l.6-.4Zm4-1.9h-1v-.6h2.6v.6h-1v2.9h-.7v-2.9Zm4.2-.6h.8l1.2 3.6H75l-.2-.7h-1.4l-.2.7h-.7zm.4.7-.5 1.6h1zm3.5 0h-.2v.4s0 .1.1.2c0 0 .2 0 .3-.1l.1-.2v-.2h-.2Zm-.4 1.3c-.1 0-.2.1-.3.2 0 0-.1.2-.1.4v.2s0 .1.1.2h.7s.2 0 .2-.1zm1 .5v-.1s0-.2.1-.3v-.1h.6v.2c0 .2-.1.4-.2.6 0 .1-.1.2-.2.3 0 0 .1 0 .2.1h.4v.5h-.6c-.1 0-.2 0-.3-.2-.1 0-.3.1-.4.2h-.9c-.1 0-.3-.1-.4-.2-.1 0-.2-.2-.2-.3v-.7c0-.1 0-.2.2-.3.1-.2.3-.3.5-.4 0 0 0-.1-.1-.2v-.6s.1-.2.2-.3c0 0 .2-.1.3-.2h.6c.2 0 .3.2.4.4v.3c0 .2 0 .4-.2.5l-.2.2s-.2 0-.3.1l.5.7Zm1.5-2.5H82v.6h-1.7v.9h1.5v.6h-1.5v1.5h-.7v-3.6Zm7 2.5c0 .2 0 .3-.1.5 0 .1-.2.3-.3.4s-.3.2-.5.2h-1.2c-.2 0-.3-.1-.5-.2-.1-.1-.2-.2-.3-.4 0-.2-.1-.3-.1-.5v-2.5h.7v2.6s0 .2.1.2c0 0 .1.1.2.1h.8s.2 0 .2-.1c0 0 .1-.1.1-.2v-2.6h.7v2.5Zm1-2.5h.6l1.5 2.5v-2.5h.6v3.6h-.6l-1.5-2.5v2.5h-.6zm3.7 3.6h.7v-3.6h-.7zm1.3-3.6h.7l.8 2.8.8-2.8h.7l-1 3.6h-.9l-1-3.6Zm3.6 0h2.5v.6h-1.9v.8h1.7v.6h-1.7v.9h2v.6h-2.7v-3.6Zm4 1.7h.7c.2 0 .3 0 .4-.1.1 0 .2-.2.2-.4 0-.1 0-.3-.2-.4-.1 0-.3-.1-.5-.1h-.6v1.1Zm-.7-1.7h2c.3 0 .5.3.6.6v.9c0 .1-.1.2-.2.3l-.2.2h-.2l.8 1.4h-.8l-.7-1.3h-.6v1.3h-.7v-3.6Zm3.7 2.5c.1.2.3.3.5.4.2 0 .4.1.6.1h.5s.1 0 .2-.1v-.4l-.1-.1h-.9c-.1-.1-.3-.2-.4-.2s-.2-.1-.3-.2c0 0-.2-.2-.2-.3v-.4c0-.2 0-.3.1-.5 0-.1.2-.3.3-.3s.3-.2.4-.2h.5c.3 0 .6 0 .8.2.2.1.5.3.7.5l-.6.4c0-.2-.2-.3-.4-.4-.2 0-.4-.1-.6-.1s-.4 0-.5.1c-.1 0-.2.2-.2.3v.2l.2.1h.9c.1.1.3.2.4.2s.2.1.3.2.2.2.2.3v.4c0 .4-.2.7-.5.9-.2 0-.3.2-.5.2h-.6c-.3 0-.6 0-.9-.2-.1 0-.3-.1-.4-.2-.1 0-.2-.2-.3-.3l.6-.4Zm3.3 1.1h.7v-3.6h-.7zm2.3-3h-1v-.6h2.6v.6h-1v2.9h-.7v-2.9Zm3.2 1.6-1.2-2.2h.7l.8 1.5.8-1.5h.7l-1.2 2.2v1.4h-.7v-1.4ZM75.7 11c.2 0 .3.2.4.3v3.5h1.6v.4h-1.8v.6c0 .3-.1.6 0 .9v.5h.2c.1 0 .2 0 .3.1.2 0 .5.2.7.3h.2c0 .1.2.2.3.2h.1s.2.1.3.1h.2c.1 0 .2 0 .4.1.3 0 .4 0 .5.3v.5c-.2.2-.7 0-.9-.2 0 0-.2 0-.2-.1h-.1c-.2-.1-.3-.2-.5-.2h-.2c0-.1-.2-.2-.3-.2h-.2c-.3-.2-.6-.3-.9-.5v2.5c0 .3 0 .4-.2.4h-.1c-.1 0-.2-.1-.3-.2h-.1s-.2-.1-.3-.2c-.1-.2-.2-.4-.3-.5v-.3h-.2s-.1-.2-.2-.3c0-.1-.1-.2-.2-.4 0 0 0-.2-.1-.2-.2 0-.3.1-.5.2 0 0-.2 0-.2.1v1.7c0 .1-.2.2-.5.2 0 0-.1 0-.2-.1h-.1v-3c-.1 0-.2.1-.3.2-.2.1-.3.3-.4.4h-.1c0 .2-.3.5-.4.5H71c-.2 0-.4 0-.5-.2 0 0-.1-.1-.1-.2V18l.2-.2v-.2c.2 0 .2 0 .2-.2 0 0 .1-.1.2-.1.2-.2.4-.4.5-.6v-.2c.2 0 .3-.2.4-.2 0 0 .2-.1.2-.2 0 0 .1-.2.2-.2 0 0 .2 0 .2-.1v-.6c-.1 0-.4 0-.5.1h-1.2c-.2 0-.3-.1-.5-.2l-.1-.1s-.2-.2-.2-.3v-.2s.2-.1.3-.1h.1c.2 0 .4 0 .6-.1h.2c.3 0 .5-.1.8-.2h.6v-2.4c0-.1.2-.2.4-.2.3 0 .4 0 .4.2v2.1h.5c.2 0 .4.2.3.4v.5s-.2 0-.3.1-.1 0-.1 0c-.1 0-.4.1-.4.2v.5c.1 0 .3 0 .3-.2v-.2h.7c.2 0 .5 0 .7-.1.1 0 .5 0 .5-.1v-3.7s0-.1.2-.2Zm-11.7.1c.2 0 .4.2.5.3v.6c0 .2-.1.4-.2.5v.3c0 .1.2 0 .3 0h1c.4 0 .6 0 .9.2 0 0 .2.1.2.2 0 0 0 .2.1.3v.2c0 .4-.4.4-.7.4h-.6c-.2 0-.4.2-.7.2h-.2c-.3 0-.5.1-.7.2h.1l.1-.1c.1 0 .2-.1.3-.2 0 0 .2 0 .2-.1s-.1 0-.2 0h-.2s-.4.2-.4.1c0 0 .3-.1.3-.2.1 0 .3-.1.4-.2l.3-.2h.1l.2-.1h.1-1.3s-.2.3-.2.4-.1.3-.1.3c0 .2-.2.3-.3.5 0 .1 0 .2-.1.3 0 .2.2.2.2.3v.8s.1 0 .2.1c.2 0 .4-.2.6-.2 0 0 .2 0 .2-.1 0 0 .2-.1.2-.2.2-.1.5-.2.7-.4l.2-.3c.2-.1.4 0 .5 0 0 0 .1.2 0 .3 0 .1-.2.2-.2.3 0 0-.2.1-.3.2 0 0-.2.2-.3.2 0 0-.2 0-.3.1-.1 0-.3.1-.4.2 0 0-.1 0-.2.1h-.2l.2.1h.2c0 .2.1.2.2.3 0 0 .2.1.3.2l.3.3h.1l.2.2s.2 0 .3.1.3.2.3.2.1 0 .2.1h.1c.4.2.9.4 1.4.6h.6v.4H67c-.2 0-.3-.2-.5-.2-.1 0-.2 0-.3-.1 0 0-.2-.1-.3-.2 0 0 0-.1-.1-.2-.1 0-.2-.2-.3-.2h-.2s-.1 0-.2-.1c0 0-.2-.2-.2-.3 0 0-.2-.1-.3-.2-.1 0-.3-.2-.4-.3-.2-.1-.4-.3-.6-.4l-.2-.2V19c.2 0 .3-.3.4-.5.2-.3.4-.6.6-1v-.4.6c0 .3-.1.5-.2.8l-.3.9s0 .2-.1.3c0 .2-.1.3-.2.5 0 .1-.2.4-.3.5h-.4s-.2-.2-.2-.3v-3.9c0-.2.1-.4.1-.7v-.3s-.1.2-.2.3c-.1.2-.3.4-.4.6v.3c-.2 0-.2.1-.3.2s-.2.3-.3.4l-.2.3c-.2.3-.4.5-.7.8l-.3.3-.2.2H60c-.1 0-.4-.2-.4-.3v-.4h.1s.1-.1.2-.1c.2-.2.4-.3.6-.6 0 0 0-.1.1-.2 0-.1 0-.2.1-.2l.2-.2s0-.1.1-.2h.1c.1-.3.3-.4.4-.6.2-.3.3-.5.4-.7s.3-.4.4-.7.2-.5.3-.7c0-.1 0-.3.1-.3l.2-.3c-.2 0-.4 0-.5.1h-.3s-.2 0-.3.1c-.2.1-.5.2-.6.4s-.2.5-.3.7c0 0 0 .2-.2.2h-.2c-.2 0-.3-.2-.4-.4v-.2c0-.1 0-.2.1-.3 0-.1.2-.3.2-.4.1-.2.2-.3.3-.5.1-.3.3-.4.4-.6 0-.1.2-.2.3-.4 0 0 0-.2.2-.2 0 0 .1 0 .2.1v.6h1.5s.1-.2.1-.3v-1.6Zm49.2.3c.2 0 .5.3.4.5l-.2.2v.2s-.1.2-.2.2c0 0-.1 0-.2.1h-.1v.2h-.1c0 .1 0 .1-.1.2-.1 0-.2.1-.3.2 0 0-.1 0-.2.1h-.1c-.2.2-.4.3-.6.4h2.1l.2.1c.1 0 .4.1.4.2.1.1.2.3.2.5v.2h-.2c-.2.1-.4.2-.6.2h-.2l-.3.2h-.2c0-.1-.1 0-.1 0h-.2c.1 0 .2-.2.3-.2s.1-.1.1-.1h-.2c0-.1.2-.2.3-.3 0-.2.1-.2.1-.3q0-.15-.3 0h-2.7c-.2 0-.4.1-.6.2h-.7s-.2.3-.2.4c0 .2-.2.3-.3.5 0 .2 0 .2-.2.3h-.1c-.1 0-.2-.1-.4-.2v-.1c0-.2.1-.4.2-.5v-.5l.1-.3v-.1c0-.2 0-.4.1-.4h.1c0 .1.2.2.3.3h.3c.2 0 .5-.1.7-.2h.6c.1 0 .2-.2.3-.3.1 0 .3-.1.4-.2l.2-.2s.2-.1.3-.2c0-.1.1-.1.2-.2l.3-.3h.2c0-.1.1-.3.1-.3.1-.1.3-.2.4-.4v-.1s-.2 0-.3-.1c0-.1.1 0 .2-.1h.7Zm-2.8.1c.3 0 .7.4.9.6h.1c0 .2.2.3.2.3l-.1.1c-.1 0-.2.1-.3.2h-.4l-.2-.2s-.1 0-.2-.1c0-.1-.2-.2-.2-.3 0 0-.3-.2-.3-.4l.2-.2h.2Zm-25.3.1c.2 0 .4.2.4.4v4h.2c.2 0 .6 0 .7-.1v-.4c.1 0 .2.2.3.3h.1c.1 0 .5 0 .5.3l-.1.2v.3h-.8c-.2 0-.4 0-.7.1v4.9h-.4V17h-.8c-.1 0-.2 0-.3.1h-.3s-.2.1-.3.1c-.2 0-.6-.1-.5-.3v-.2c0-.1.5-.2.7-.2s.5 0 .7-.2h.3s.2-.1.3-.1c.2 0 .5 0 .6-.2v-.6.4s-.4.2-.6.2c0 0-.2-.1-.2-.2h-.2c0-.1-.2-.2-.3-.3V15c.2 0 .4 0 .6.1h.4c.1 0 .2 0 .3.1v-1.1h-.4c-.1 0-.3.1-.4 0 0 0 .1-.1.1-.2 0 0-.1 0-.2-.1h-.1v-.1c0-.1 0-.2.1-.3h.9v-1.8Zm5.1 7.7c.1 0 .3.2.4.3v-2.4s-.1.2-.2.2h-.2v.3H90l-.2.2h-.2c0 .1-.3.4-.3.4l-.2.1c-.1 0-.3-.3-.4-.4 0-.2.2-.3.3-.4h.2c0-.1.1-.2.1-.2.1 0 .2-.2.3-.3h.2v-.2s.2-.1.2-.2v-.1l.2-.2.4-.3v-1.3c-.1 0-.2 0-.3.1h-.2l-.3.1h-.7c-.3 0-.4 0-.5-.2v-.1s0-.2.1-.2h.3c.1 0 .2 0 .3-.1h.8c.1 0 .3-.1.4-.2h.2v-2.5c0-.2.1-.2.2-.2.3 0 .4.2.5.4v1.9h.6c.3 0 .5 0 .6.3v.6h-.8c-.1 0-.2 0-.3.1v.9c.1 0 .3-.3.4-.4v.1s-.2.1-.2.2.1-.1.2-.1c0 0 0 .2-.1.2 0 .1-.2.4-.2.4 0 .1-.2.2-.2.2v2.6h.2c.1 0 .2-.1.3-.2 0 0 .1 0 .2-.1 0 0 .1-.1.2-.1s.3-.2.4-.3c0 0 0-.1.1-.2l.2-.1c0-.1-.2-.2-.3-.2-.2-.1-.4-.3-.7-.4-.1 0-.4-.1-.4-.2s0-.2.2-.2h.3c.1.1.2.2.3.2l.6.3s.2.2.3.1c0 0 .1-.2.2-.2l.2-.2v-.2s.1-.2.1-.3v-.4c-.1 0-.2.1-.3.2h-.1c0 .1-.1.2-.1.2H93c-.1-.1 0-.3 0-.4v-.4s.1-.2.1-.3v-.3h-.9s-.1 0-.2-.1c0-.1.1-.2.2-.2h.1c.2 0 .5 0 .7-.1.1 0 .2 0 .3-.2v-2.9l.1-.1h.1s.2 0 .2.1V13c0 .3 0 .5-.1.8v.6h.5c.1 0 .2-.1.3-.2h.2c.2-.2.4-.1.5 0 0 .2-.2.2-.4.3-.4.1-.8.3-1.2.4h-.4v.8h.3s.5-.1.6 0l.1.1s-.1.3-.1.4c0 .2 0 .3-.1.4 0 0-.1.2-.2.3 0 0-.1.2-.2.3 0 0-.1.2-.2.3s.2.2.2.2l.2.2c0 .1.1.1.2.1s.2 0 .3.1c0 0 .1 0 .2.1h.2c0 .1.1.2.2.2h.3s.2.1.3.2c.2 0 .5.1.7.2h.2s.2.1.3.1.3 0 .4.1v.2l-.2.1h-1c-.1 0-.3-.1-.4-.2-.2 0-.5-.1-.7-.2h-.2l-.2-.2h-.2c-.1-.2-.3-.2-.4-.3l-.2-.2s-.2-.1-.3-.2h-.1s-.1-.1-.2-.1-.1 0-.2.1l-.2.2c-.1 0-.2.2-.3.3 0 .1-.1.2-.2.2l-.1.2-.1.1c-.1 0-.2.1-.4.2-.1 0-.5.1-.6 0l-.1-.1v.7q0 .45-.3.6h-.3c-.4 0-.3-.6-.5-.9 0 0-.2-.2-.2-.3 0 0 .1 0 .2.1s0 0 0-.1c0 0-.2-.2-.2-.3Zm18.7-7.6c.1 0 .4.2.5.3 0 0 .2.1.3.1V12v.3l.1.1s.2.3.2.4v.2c0 .1-.4.3-.5.3-.2 0-.3-.2-.4-.3l-.1-.1c-.1-.2-.3-.4-.4-.6 0 0-.2-.2-.2-.3.1 0 .2-.2.3-.2h.2Zm-6.9.3s.2 0 .2.1V14c0 .2-.1.3 0 .5v.7h.6c.1 0 .2 0 .3-.1h1.5c.4 0 .5.1.6.3l.1.2h-1.8c-.1 0-.3.1-.4.2h-.5v.2c0 .2 0 .2.1.3 0 0 .1.2.2.3h.1s0 .1.1.2c.1.2.3.3.4.5 0 .2.2.3.3.4v.2c.1 0 .3.1.3.1l.3.3c.1 0 .2.1.3.2l.2.2c.1 0 .3.2.4.3 0 0 .1 0 .2.1.1 0 .3.1.4.2.1 0 .2.1.3.2.1 0 .4.1.4.3-.1.1-.3.2-.4.3s-.3 0-.3 0h-.3c-.2 0-.4 0-.6-.2h-.1l-.1-.1c-.2-.1-.4-.3-.5-.5 0 0-.1 0-.2-.1 0 0-.1-.2-.2-.2l-.6-.9v-.2c-.1 0-.2-.2-.3-.3 0-.1-.1-.2-.2-.3l-.2-.2-.1-.1s0-.1-.1-.2v.3c0 .1 0 .2-.1.4 0 .2-.2.4-.2.5-.1.3-.2.6-.4.9v.2h-.1v.2c-.2.1-.2.2-.3.2h-.1c-.1.2-.3.3-.4.4-.2 0-.3.1-.4.2h-.7c-.1 0-.2 0-.3-.1.1 0 .2-.1.4-.2.2 0 .3 0 .5-.2 0 0 .2-.1.2-.2h.2c0-.1 0-.2.2-.2 0 0 0-.2.2-.2h.1c0-.1.1-.3.2-.4.1-.2.2-.3.3-.5 0-.2.1-.4.2-.6s.2-.5.3-.8c0 0 .1-.2.1-.3v-.2h-1.2c-.1 0-.3 0-.5.1h-.2c-.3 0-.5 0-.6-.3h.1c.2-.1.4 0 .6-.1h1.9v-3.1h.2Zm-19.4.1h.6c.1 0 0 .4 0 .4h-.5s-.2.1-.3.2h-.2c-.1 0-.2.2-.4.2h-.1c-.1 0-.3.1-.4.2h-.6c0-.2 0-.2.2-.3l.1-.1h.1c0-.1.1-.1.2-.2.1 0 .2-.1.3-.2h.2c0-.1.2-.2.3-.2h.3Zm-27.5 0c.2 0 .4.3.4.4v2.6h1.1c.1-.1.4 0 .5 0 0 0 .1.1.1.2 0 0 .1.1 0 .2 0 .2-.3.1-.5.1h-1.4v3h1.5s.2.2.2.3l.2.3h-.1c0 .1-.2.2-.3.2h-.3c-.5.1-1.1 0-1.6 0H54c-.2 0-.4-.2-.6-.3V19c.2 0 .3-.1.5-.2h.1c.1 0 .2-.2.3-.3v-2.6c0-.2-.1-.3-.2-.3 0 0 0-.1-.2-.2s.1 0 .1 0h.2v-2.9s.2-.1.3-.2Zm-10.1.7h.3c.2.2.3.2.4.5v.3c0 .2 0 .5-.1.6h-1.9c-.3 0-.6 0-.8.1l-.2.1h-.3c0 .1-.1.1-.2.1H42s-.3.1-.4 0l-.2-.2c-.1 0-.3-.1-.4-.2-.2-.1-.4-.2-.5-.4 0 0-.1-.1-.1-.2v-.4H45Zm37 .3c.1 0 .3 0 .4.2v1.3s.3 0 .3-.1c0 0-.2-.3-.1-.4 0 0 .2.1.3.2l.2.2h.2s.1.1 0 .2c0 .1-.2.1-.3.2-.2 0-.3.1-.4.2h-.2v.8c.1-.2.3-.3.5-.4 0 0 0-.1.1-.2l.2-.2.2-.2s0 .2-.1.2v.1s.2-.2.2-.1v.1s-.1.2-.2.3c0 .1-.1.2-.2.3-.1.2-.2.4-.4.5l-.4.4v3.7h-.4c0-.1-.2-.2-.2-.3v-2.4l-.1.1c0 .2-.2.3-.3.4v.2l-.2.2s-.1.2-.3.1c0 0 0-.1-.1-.2 0-.1-.2-.3-.1-.4.3-.5.6-.9.9-1.4 0-.1.1-.2.2-.3 0 0 .1-.1.1-.2v-.6h-.7c-.1 0-.3 0-.4.2h-.1s-.2.1-.3 0H80v-.2s.3 0 .4-.1c.1 0 .3 0 .4-.1h.1c.2 0 .4-.2.6-.3h.4v-1.7c0-.1.1 0 .2-.1Zm-30.3.3h.7l.2.2q.15 0 .3.3v.8c0 .2 0 .4.1.6v1.1c0 .2.1.4.2.5v.1s.1-.1.2-.1c.2-.1.3-.2.5-.3 0 0 .1-.1.2 0 0 .1-.1.2-.2.3l-.3.3s-.2.1-.3.2v.8c0 .1-.3 0-.5.1H52c0 .2-.2.2-.2.3-.2.1-.4.2-.5.4-.2.1-.3.3-.5.4h-.1c-.3.1-.5 0-.7-.2 0-.5.3-.7.4-1v-.4.9c.2 0 .3-.1.4-.2.3-.2.6-.3.8-.6 0 0 .2-.2.1-.4 0-.1-.2-.3-.3-.4 0 0-.1 0-.2-.1.2 0 .4.1.5.1v-1.4s-.2 0-.2.1c-.1.1-.3.2-.4.4 0 0-.1.2-.2.1v-.4h-.8l-.2-.3c0-.1-.1-.3 0-.4v-.1s.3 0 .4-.1h1.4v-.9c0-.1 0-.3-.1-.4 0 0-.1-.5 0-.6 0 0 .1 0 .2-.1Zm60 1.2c.2 0 .3.3.2.5 0 0-.1.2-.2.2 0 0 0 .1-.1.2 0 .1-.2.2-.3.4h-.1v.2s-.1 0-.1.1v.3h2.5l.2.1c.1.2.2.4 0 .5h-2.6v3.4c0 .2-.3.3-.7.3h-1.1c-.1 0-.3-.1-.4-.2-.1 0-.3-.2-.4-.2s-.5-.1-.6-.2c0-.1.3-.2.5 0 .1 0 .3.1.5.2h.4c.2 0 .4.1.7.1h.2c.1 0 .3 0 .4-.2 0-.1.1-.3.2-.4 0-.1 0-.3.1-.5v-2.1c-.3 0-.7 0-.9.1h-.2c-.1 0-.3 0-.4.1h-.3c-.1 0-.3.1-.4.1 0 0-.1.1-.2 0-.2 0-.5-.2-.5-.4V17h1.4v-.1h1.2v-.2c0-.2-.1-.3-.2-.5 0 0 0-.2.2-.1.1 0 .2.2.3.2s.3-.3.4-.5v-.2h-.4s-.3.1-.3.2l-.1.3q0 .3-.3.3c-.2 0-.3 0-.3-.2V16s0-.2-.1-.3v-.3h.1s.2.1.3.2c0 0 0 .1.1.2.1 0 .3-.1.4-.1h.4c.2 0 .4-.2.5-.3Zm-68.2.2c.2 0 .5.4.4.7v.6h1.5c.3 0 .7-.2 1 0 .3 0 .7.5.7.8v.4c0 .3-.3.5-.5.7 0 .1-.1.2-.2.4 0 .2-.1.3-.2.4v.2c-.1.2-.3.3-.6.4 0 0-.2.1-.3.1h-4.2s-.2 0-.2.1v.1s-.1.2-.3.1c-.3 0-.4-.3-.5-.5-.1-.1-.2-.3-.3-.4 0-.1-.1-.2-.2-.4 0-.1-.2-.3-.2-.4v-1.8h.1c.2 0 .3 0 .4.1h.5c0 .1.3 0 .3 0h.2c.2 0 .4-.1.6-.2.1 0 .3 0 .4-.1V15h.3c.1 0 .3.3.3.5v.6h1.4v-1.3s0-.1.2-.1Zm31.9.3h-1.1c-.1 0-.3.2-.4.3-.2.2-.4.3-.5.5 0 0-.2.2-.3.2v1.6c.1 0 .2-.1.3-.2.2-.1.4-.2.6-.4 0 0 .1-.2.2-.3l.2-.2s.1 0 .2-.1l-.2-.2h.4s0-.1.1-.2c.1-.2.3-.3.4-.5l.2-.3v-.5Zm-1.9.2s-.1.2-.2.2c0 0-.2.1-.2.3h.4l.2-.2s.2 0 .1-.2h-.4Zm1.9 1c0 .1-.2.2-.2.4l-.1.2s.2.1.3.2v-.7Zm-30.3.4h-1.3v.5l-.1.1v.3c-.2.1-.2.2-.2.3v.9h.5c.3-.1.5-.2.7-.4.1 0 .3-.1.4-.2.2-.1.3-.3.4-.5l.2-.2c0-.1.1-.3.2-.4v-.5h-.5Zm-1.8.3h-.2c-.2 0-.3.1-.5.1 0 0-.3 0-.3.1v1.4s0 .3.2.3c0 0 .1-.2.2-.3v-.3s0-.1.1-.2v-.7h.1s.2-.3 0-.4Zm31.5.1s0 .1-.1.1-.2.2-.3.3c0 0-.1.2-.2.3l-.2.2h-.1c0 .1 0 .2-.1.2 0 .1.1.3.2.3 0 .1.2.2.3.3 0 0 .1.2.2.3l.1.1c0 .1.1.2.1.2s.2.2.3.2c.2-.1.1-.6.2-.9v-1.3l-.1-.1s-.3-.2-.4-.2Zm-33.3.3h-.3c-.2 0-.4.1-.5.2 0 0-.3.1-.3.2s.1.2.2.4c0 0 0 .2.1.3v.2c.2.1.2.3.3.4.2 0 .5-.1.7 0h.2s0-.1-.1-.2c0-.2-.1-.4-.2-.6v-.7Z" style="fill:#28603e;fill-rule:evenodd" id="_图层_1" data-name="图层_1"/></svg>