<svg width="128" height="138" fill="none" xmlns="http://www.w3.org/2000/svg"><g filter="url(#a)"><path fill-rule="evenodd" clip-rule="evenodd" d="M39.095 43.47c-.084.07-.111.069-.192.069-.226.051-.307.037-.328-.192-.055-.14-.183-.256-.286-.346-.019-.05.023-.103.019-.162a1.6 1.6 0 0 0-.392-.584l-.067-.125a.04.04 0 0 1 .007-.02c.17.107.276.255.414.413.135.028.034-.05.127-.08.083.059.083.059.172.148a.4.4 0 0 1 .138.055c.093-.048.095-.124.094-.234.073-.103.091-.37.108-.522-.029-.11-.075-.193-.013-.309-.04-.066-.012-.16-.038-.237-.084-.099-.08-.17-.126-.276-.043-.038-.074-.037-.113-.039-.114-.068-.427-.066-.522-.02-.075-.029-.113-.027-.162-.004-.02-.02-.02-.02-.025-.038l.058-.066c.14-.004.11-.103.23-.127.056-.05.2-.053.193-.146-.166-.147-.362-.273-.52-.402q-.155-.1-.309-.202c-.201-.158-.201-.158-.224-.167-.069.078-.084.299-.106.398.033.079.033.079.064.21.033.083.106.2.083.283l-.034.007a2 2 0 0 1-.112-.115c-.067.004-.066.025-.086.04a.5.5 0 0 1 .055.165c-.105.12-.163-.272-.298-.21-.067.089-.067.089-.122.187-.042.044-.09.079-.11.108a.5.5 0 0 1-.027.152c-.082.018-.09.052-.128.074-.08-.005-.08-.005-.106 0-.07.048-.182.093-.237.063.123-.139-.121-.14-.19-.16-.265-.145-.195-.252-.05-.486.078-.089.078-.089.2-.209.158-.232.158-.232.3-.427.064-.059.193-.11.218-.225l.05-.059c.137-.041.227-.076.098-.21-.244-.163-.493-.298-.725-.457a3 3 0 0 1-.702-.398c-.268-.137-.22-.266-.068-.5.096-.11.134-.189.293-.249.113-.015.258-.088.397-.096.316-.146.591.119.861.308.168.182.4.309.64.436.205.166.474.315.67.507.2.151.396.343.625.474a.3.3 0 0 0 .033-.109c.05-.072.04-.116.08-.182.086.075.032.209.052.294q.023.016.05.03c.038-.026.087-.048.091-.113q.02-.048.043-.093c.03-.127.024-.276.125-.391l.03-.007q.015.016.034.026c.016.256-.061.557.104.778q.007.049.017.096c.067.087.153.157.246.246a.37.37 0 0 1 .183.38c.041.1-.036.318-.09.402-.075.087-.093.136-.139.221-.045.052-.08.063-.121.08a.59.59 0 0 0-.09.628c.01.143-.044.22.022.355-.19.217-.12.373-.12.641-.017.126-.057.235-.09.346-.025.197-.05.228-.156.375Zm29.077 50.374V92.4a.07.07 0 0 0-.042-.065.06.06 0 0 0-.068.022L67.047 93.8a.07.07 0 0 0-.007.073c.01.024.031.038.055.038h1.015c.034 0 .062-.03.062-.068Zm.823.068h.3c.035 0 .062.031.062.07v.507c0 .038-.027.07-.061.07h-.301v.768c0 .038-.028.069-.062.069h-.7c-.034 0-.061-.031-.061-.069v-.769h-1.366c-.033 0-.053-.037-.073-.069-.13-.198-.243-.239-.112-.447.189-.3.642-.939.687-1.002q.299-.42.634-.867.282-.378.574-.756a.06.06 0 0 1 .047-.024h.37c.034 0 .062.031.062.069zm-5.044-1.586-.018-.01a.07.07 0 0 1-.03-.042.1.1 0 0 1 .005-.053q.153-.302.419-.52.375-.307.84-.308.438 0 .702.195.265.195.265.59a.76.76 0 0 1-.144.483q-.09.117-.334.268.34.129.521.404.182.276.182.62c0 .415-.094.742-.438 1.126-.38.424-1.368.672-2.193.166-.171-.105-.265-.233-.265-.407q0-.135.107-.23a.36.36 0 0 1 .25-.096c.169 0 .376.074.552.285.6.716 1.422.199 1.439-.412.011-.402-.306-.607-.701-.828a3.6 3.6 0 0 0-.517-.216.07.07 0 0 1-.043-.066c0-.03.01-.093.083-.104.363-.054.661-.318.661-.707a.62.62 0 0 0-.15-.437q-.15-.162-.46-.162a.65.65 0 0 0-.46.191 1.4 1.4 0 0 0-.195.249c-.018.027-.05.036-.078.02Zm-1.377 1.249c.27-.355.328-2.025-.413-2.025-.836 0-.714 1.6-.287 1.996.13.12.575.194.7.029m-1.68 1.821v-.02c0-.032.022-.06.053-.066q.531-.112.873-.374c.33-.254.595-.632.737-1.128-.181.09-.392.11-.591.11-.28 0-.647-.078-.837-.233q-.396-.32-.396-.988 0-.403.25-.769c.242-.356.733-.535 1.208-.535q.536 0 .9.338.494.454.494 1.39 0 .867-.658 1.507-.715.7-1.96.836a.06.06 0 0 1-.05-.017.07.07 0 0 1-.022-.051Zm-.332-.072v.003c0 .038-.027.069-.061.069h-2.035c-.034 0-.062-.031-.062-.069v-.003c0-.037.027-.068.06-.068q.409-.01.533-.151.091-.105.092-.43v-2.24a1 1 0 0 0-.023-.256q-.05-.146-.198-.146a.7.7 0 0 0-.187.041 5 5 0 0 0-.196.073.06.06 0 0 1-.056-.009.07.07 0 0 1-.025-.056v-.008c0-.029.015-.053.039-.064l1.39-.612.023-.005h.023c.034 0 .062.031.062.069v3.248q0 .32.092.418.11.119.47.127c.033.001.06.032.06.07Zm3.444-60.692h-.012c-15.054.007-27.331 12.315-27.331 27.406 0 13.39 9.667 24.588 22.362 26.947 1.623-1.822 1.227-4.104-1.08-5.366-12.953-7.69-6.53-12.494-3.705-14.444-4.73-4.388-4.46-11.084-2.928-12.89 0 0-.592 4.927 7.58 9.26q.153.081.298.164c.559-.771 2.036-3.318-1.246-5.112-13.614-8.082-5.822-12.978-3.303-14.721 0 0-1.061 1.001-1.466 2.815-.35 1.568 1.867 3.783 5.539 5.72 7.52 3.966 3.234 10.5.699 11.426 7.409 4.34 1.662 11.293-.712 11.583 0 0 3.33-3.625-.58-5.761-1.518-.647-2.77-1.472-3.794-2.403a6.2 6.2 0 0 0-1.152 2.458c-.35 1.567 1.867 3.783 5.539 5.72 2.128 1.122 4.994 3.35 5.286 6.01.293-2.66 3.158-4.888 5.286-6.01 3.672-1.937 5.89-4.153 5.54-5.72a6.2 6.2 0 0 0-1.153-2.458c-1.023.931-2.276 1.756-3.794 2.403-3.909 2.136-.58 5.761-.58 5.761-2.374-.29-8.12-7.243-.711-11.583-2.536-.926-6.821-7.46.698-11.426 3.672-1.937 5.89-4.152 5.54-5.72-.405-1.814-1.467-2.815-1.467-2.815 2.52 1.743 10.311 6.639-3.303 14.721-3.282 1.794-1.804 4.341-1.246 5.112q.146-.083.298-.164c8.173-4.333 7.58-9.26 7.58-9.26 1.533 1.806 1.802 8.502-2.928 12.89 2.825 1.95 9.249 6.755-3.704 14.444-2.307 1.262-2.704 3.544-1.08 5.366 12.695-2.359 22.362-13.557 22.362-26.947 0-15.09-12.277-27.4-27.332-27.406M64 84.322a4 4 0 0 1-.129.661c-.063.226-.087.356-.178.56-1.285 2.888-5.569 5.154-10.074 7.008a20 20 0 0 1-.905.38C41.36 88.406 33.296 77.273 33.296 64.312c0-16.949 13.79-30.773 30.698-30.78h.012c16.91.007 30.698 13.831 30.698 30.78 0 12.96-8.063 24.094-19.418 28.619q-.465-.182-.905-.38c-4.505-1.854-8.788-4.12-10.073-7.007-.092-.205-.115-.335-.179-.56A4 4 0 0 1 64 84.32Zm0-45.737.006.01c.545.937 1.445 2.466 2.242 3.74 1.218 1.944 2.693 7.957-2.242 11.85v.01L64 54.19l-.006.005v-.01c-4.935-3.893-3.459-9.906-2.242-11.85a146 146 0 0 0 2.242-3.74zm0-16.944c-11.638 0-22.203 4.757-29.86 12.43-7.656 7.674-12.402 18.264-12.402 29.93 0 11.664 4.746 22.253 12.402 29.927 7.657 7.674 18.222 12.431 29.86 12.431s22.205-4.757 29.86-12.431c7.657-7.674 12.403-18.263 12.403-29.928s-4.746-22.255-12.402-29.929-18.223-12.43-29.86-12.43Zm0-1.741c12.118 0 23.118 4.952 31.088 12.94C103.06 40.83 108 51.856 108 64s-4.941 23.17-12.912 31.16c-7.97 7.988-18.97 12.94-31.088 12.94-12.117 0-23.117-4.952-31.088-12.94C24.942 87.17 20 76.144 20 64s4.942-23.17 12.912-31.16C40.882 24.853 51.882 19.9 64 19.9M43.025 39.107l-.279.183c-.253.25-.488.48-.725.727a2.5 2.5 0 0 1-.21.31c-.113.072-.234.135-.309.22-.041.026-.041.026-.125.055a.93.93 0 0 1-.505.233c-.066.081-.14.056-.202.035-.024-.047-.055-.088-.05-.131.134-.257.316-.526.25-.861-.104-.293-.38-.495-.56-.722-.098-.087-.158-.182-.243-.256-.063-.021-.072-.088-.105-.137l-.24-.198c-.118-.152-.224-.274-.379-.358q-.161-.138-.32-.278l-.086-.143c-.165-.114-.342-.058-.476.017-.072-.025-.105-.03-.143-.072a.33.33 0 0 1 .158-.202c.076-.086.03-.145-.039-.215a3 3 0 0 1-.3-.3c-.047-.037-.362-.352-.402-.378-.237-.205-.455-.43-.68-.628a4 4 0 0 0-.366-.383c-.047-.105-.1-.105-.15-.16a1 1 0 0 1-.02-.088c-.08-.132-.258-.362-.174-.506.037-.02.077-.067.139-.062l.34.1c.145.097.265.17.394.318.533.475 1.05.953 1.585 1.445.05.06.095.115.17.17.014-.015.03-.029.037-.061.155-.213.43-.409.478-.701.059-.123.114-.268.277-.321.098-.073.312-.075.459-.018l.098.087c.033.16-.252.535-.367.577l-.21.25c-.413.585-.444.446-.026.905.339.325.657.683 1.043.99.258.238.514.508.788.762q.024.006.052.019a.4.4 0 0 0 .155-.218c.174-.258.174-.258.294-.414.067-.13.134-.267.293-.327.128-.139.178-.234.406-.18.176.08.309-.003.454.214.032.087.032.087.044.151q-.06.121-.113.24c-.021.151-.021.188-.11.31m-13.194 8.44c-.054.105-.265.187-.348.245-.17.075-.337.195-.489.235-.184.143-.474.143-.67.134-.104-.051-.164-.067-.259-.116-.155-.254.04-.6.201-.823.02-.068.02-.068.082-.203.018-.092.017-.127.04-.206.06-.137.158-.235.119-.393.01-.166.14-.298.206-.457.001-.069.075-.201.121-.283.037-.178.037-.178.045-.257.091-.298.141-.719.375-.96a2.2 2.2 0 0 1 .307-.591c.052-.05.115-.086.171-.167.067-.041.142-.024.233-.101.08-.004.176-.038.258.054.264.113.524.256.792.4.074.085-.012.263-.048.337-.129.117-.129.117-.185.185-.054.108-.054.108-.14.24-.085.188-.184.502-.306.651-.178.346-.363.711-.387 1.081.018.13-.026.276-.039.398 0 .21-.099.412-.079.598Zm3.964 1.092c-.02.013-.02.013-.041.013-.358-.157-.754-.288-1.12-.316l-.28-.158c-.019-.064 0-.1.02-.17.027-.23.116-.45.156-.68.075-.147.167-.046.28.052.154.195.346.368.507.576.05.045.137.124.136.204.111.08.138.143.201.272.054.052.132.119.141.206Zm.55-.513c-.068.037-.159-.111-.198-.147-.304-.26-.614-.554-.904-.82-.105-.059-.146-.11-.213-.188-.125-.08-.227-.126-.278-.253.096-.214.177-.505.339-.69.083-.164.129-.273.19-.385.04-.115.187-.517.37-.265.094.075.225.21.23.342.033.053.102.1.152.163.01.033.052.093.072.146.075.07.176.211.173.322.096.143.118.325.171.49a1 1 0 0 0-.037.21c.043.174-.005.317.05.492-.026.063-.026.067-.013.124-.06.12-.049.219-.092.32a.3.3 0 0 1-.012.139m-.543 1.422a2.3 2.3 0 0 0-.363.514c.002.022.002.022.036.075-.054.104-.27.02-.329.01-.191-.01-.428-.062-.6-.047-.12-.022-.226-.01-.323-.016-.213-.138-.139-.446-.078-.658.008-.094.008-.438.121-.507.085.014.193.09.3.127a4 4 0 0 0 1.043.348l.087.045c.043-.005.062-.02.121.01.006.043-.006.071-.015.099m.246 1.818c-.136.086-.282.092-.415.098a1 1 0 0 1-.076-.05c-.08.025-.16-.023-.23-.029-.286.055-.54.03-.79.025-.156-.049-.297-.045-.431-.075-.19-.001-.55-.076-.684-.003-.11-.054-.127-.073-.181-.102-.09-.008-.139-.045-.204-.046-.131-.064-.16-.07-.655-.32-.16-.151-.099-.214.007-.41.162-.152.43-.239.593-.445.14-.123.184-.305.247-.493-.02-.105-.021-.088.04-.19.02-.178.016-.348.084-.526.004-.187.076-.296-.152-.332-.118.013-.235-.075-.327-.117-.156-.039-.28-.126-.398-.206-.174-.09-.236-.089-.144-.268a1 1 0 0 0 .188-.105c.068-.001.099 0 .177-.044.11 0 .22-.028.353-.047.12.1.274.116.434.182.132.001.206-.302.216-.416.046-.098.08-.214.107-.325.028-.057.148-.31.097-.366-.152-.08-.293-.153-.413-.248-.233-.039-.458-.235-.66-.309-.066-.055-.088-.219.05-.22.1.02.196-.01.322-.063.064.004.12.045.21.037l.043.023c.012.039.022.076.085.066.135.061.291.069.39.216.062.04.136.033.225.058.062-.069.2-.24.165-.353.017-.033.067-.075.1-.126q.028-.093.061-.186c.085-.071.128-.12.119-.255.027-.053.103-.085.05-.174.032-.1.106-.2.163-.32.013-.118.008-.188.094-.305.092-.253.268-.387.539-.505.12-.003.221-.066.365-.03l.325-.037c.19.062.52.029.56.333l-.02.142q.181.353.457.665c.109.155.215.334.345.483.024.057.06.113.098.165q.06.207.123.41c.07.149.145.339.182.502-.034.128-.076.26-.133.37a5 5 0 0 0-.412.504c-.153.322-.31.65-.475.947-.13.33-.13.33-.34.81-.034.112-.303.811-.31.847-.162.368-.162.368-.173.414.014.169.127.283.125.479-.053.1-.1.17-.116.27m12.919-21.174h-.012l-.02-.033c-.002-.227-.09-.478.02-.672l.543-.32c.072-.06.469-.27.542-.257.008.017-.005.037-.009.047-.187.196-.361.42-.55.602l-.02.064c-.159.171-.369.383-.494.57Zm1.052 1.98c-.075-.006-.107-.037-.162-.032l-.01-.03.063-.02c.057-.06.128-.213.241-.2q.008.02.02.04a.7.7 0 0 1-.152.243Zm.83 1.115c-.054-.11-.097-.176-.075-.289-.036-.081-.043-.138-.054-.21.038-.047.135-.006.205.01.042.096-.019.222-.036.333 0 .047.002.124-.04.156m-.423 1.6c-.12-.084-.21-.487-.248-.613-.072-.194-.077-.228-.12-.322-.032-.115-.053-.244-.102-.335-.032-.192-.109-.364-.17-.542-.037-.147-.059-.32-.101-.447.038-.1-.084-.105-.006-.183.045 0 .066.013.127.043l.146.018c.158.06.355.113.542.19.035.004.069.007.123.038.033.075-.009.349-.036.44.01.25-.015.525-.033.784-.03.091-.06.163 0 .263-.064.138-.077.3-.077.457-.066.072-.04.13-.045.209m.43 1.475c-.164-.037-.33-.047-.456-.125q-.056-.062-.11-.125c-.133-.278-.206-.583-.372-.824a14 14 0 0 0-.26-.692c-.034-.243-.151-.46-.187-.684-.246-.583-.339-1.206-.538-1.798-.004-.093-.088-.424-.142-.178.009.26.009.26.003.322.064.144.024.432-.036.576.003.086-.032.202-.04.293-.09.142-.05.37-.123.524-.008.102-.01.198-.058.29-.05.23-.05.23-.06.312a10 10 0 0 1-.193.656c-.01.066-.02.147-.06.203-.039.2-.173.357-.17.575-.05.057-.093.116-.152.164-.116-.009-.255-.053-.34-.078-.149-.02-.248-.323-.227-.413.04-.02.1-.037.142-.087.046-.133.09-.235.107-.306.087-.144.14-.305.219-.448.027-.14.048-.198.114-.47.04-.077.052-.204.067-.288.009-.016.019-.117.04-.207.105-.274.133-.599.2-.88.031-.173.033-.238.051-.37.065-.31.064-.634.106-.946.012-.364.019-.73.006-1.086.019-.114.057-.253.001-.35-.242.108-.403.274-.574.445-.142.09-.245.26-.378.355-.06.062-.111.181-.157.256-.05.185-.044.405-.075.607q0 .202.003.406c-.018.085-.102.137-.16.176-.173-.03-.33-.073-.456-.164-.184-.056-.153-.127-.24-.262-.04-.156-.027-.237-.009-.38l.053-.142c.004-.165.041-.33.077-.488-.001-.229.038-.47.039-.699q.074-.3.097-.597c.128-.183.196-.229.38-.042.025.067.025.067.027.085.195.401.195.401.205.408.125-.03.195-.193.334-.217q.265-.209.534-.413c.054-.029.22-.097.237-.17.01-.398-.123-.784-.229-1.15-.062-.15-.158-.434-.081-.573.068-.055.184-.048.277.018.1.04.178.05.282.13.085.19.174.373.172.595.013.07.047.608.196.633.53-.257 1.095-.766 1.74-.608.066.027.066.027.131.042.117.077.281.193.364.337.044.037.07.113.135.156.062.138-.083.36-.19.447-.217.118-.42.258-.593.414-.029.088-.173.174-.24.218-.11-.006-.51.324-.584.426l-.155.078a.8.8 0 0 1-.343.243c-.04-.12.043-.144.123-.238a1 1 0 0 1 .053-.096c.021-.026.25-.254.203-.306a.37.37 0 0 0-.233.143c-.123.093-.219.267-.346.287-.04-.023-.046-.023-.067-.008-.042.267-.056.57-.06.847.023.053.14.082.204.122.063.074.13.171.195.265.044.156.116.401.22.545.055.023.124.053.206.056.113-.166.264-.306.393-.468.072-.118.18-.265.237-.395.112-.095.196-.306.265-.44.037-.165.09-.351.06-.512.014-.09.043-.093.116-.156.063-.114.032-.096.14-.033.18.05.356.222.319.452-.088.199-.12.405-.242.59-.107.221-.287.412-.404.624a4 4 0 0 1-.259.238c-.036.059-.036.059-.085.11-.069.04-.069.04-.08.056.024.053.085.051.155.053.135.023.165.038.479.11.206.022.364.146.613.157a.3.3 0 0 0 .207.044c.171.027.359.019.543.056.09.055.13.063.26.049.112.034.211.013.351.011l.077.033c.12-.04.397-.016.534-.001.07-.013.17-.051.25-.02.184-.017.184-.017.324-.019.067.01.067.01.1.005.06-.046.103-.063.172.012l.09-.019c.133.04.364-.069.518.005q.03.043.065.087c.022.055.09.175.097.249a.2.2 0 0 1-.093.05.72.72 0 0 1-.456.206 6 6 0 0 0-.226.07c-.202.001-.416.03-.596.023-.214.023-.45.063-.64.028-.282.021-.462-.113-.697-.163-.056-.025-.056-.025-.109-.065-.111 0-.292-.062-.385-.093a.66.66 0 0 1-.316-.093c-.099-.015-.248-.04-.298-.094-.07-.012-.117-.025-.163.002 0 .064 0 .064-.015.155.02.367.037.738.1 1.1-.01.128-.018.136-.017.171-.023.156-.032.31.011.475-.019.175-.02.422.002.605l.044.086c-.072.053-.089.186-.07.274a2 2 0 0 0-.052.288c.011.168-.033.257-.168.35m36.365 1.845-.016-.046.015-.013c.11.057.28.116.338.248-.076.083-.297-.147-.337-.189m4.263 5.624c-.052-.1-.086-.137-.143-.202a.9.9 0 0 0-.184-.372 1 1 0 0 0-.178-.282c-.047-.137-.047-.137-.055-.179-.139-.282-.213-.694-.239-.99.013-.057.001-.093-.002-.136a1 1 0 0 0 .023-.191c.025-.108.027-.1-.014-.157l.063-.046c.066-.235.16-.49.174-.71.081-.317.22-.629.25-.93.082-.208.186-.437.22-.636l.083-.253c-.006-.118.027-.194.055-.278.017-.102.03-.154-.061-.172-.281.068-.567.187-.842.295a1.8 1.8 0 0 0-.687.255l-.072-.012c-.095.033-.217.041-.313.094q-.332.07-.665.144c-.093-.012-.085-.008-.167.035-.053.003-.087-.026-.133-.031-.275.053-.532-.114-.769-.234a.7.7 0 0 1-.294-.152c-.235-.138-.435-.294-.557-.518-.016-.078-.025-.142-.046-.195.024-.034.039-.044.052-.055l-.037-.05.007-.019c.025.005.063.029.136.054.248.148.516.312.814.37.114.042.242.074.37.114.036-.03.237.016.295.03.142-.017.281-.007.42-.012q.203-.026.408-.048c.064-.014.13-.03.195-.03.216-.07.476-.065.665-.152.105-.026.215-.063.303-.072.342-.147.71-.241 1.02-.413.101-.206.115-.449.014-.629-.099-.112-.229-.192-.34-.276-.331-.28-.67-.544-.963-.84-.114-.177-.243-.53.023-.6.172.011.388.303.506.434.327.334.694.61 1.026.957.177.12.314.295.505.413.075.075.12.127.237.09.23-.145.474-.274.694-.413.176-.084.33-.184.47-.289l.74-.48c.061-.009.074-.024.1-.068.075-.058.165-.108.363-.243.155-.122.49-.383.66-.373a.4.4 0 0 1 .118.285.7.7 0 0 1-.282.267c-.139.108-.293.201-.436.328-.102.044-.18.106-.278.182-.29.134-.54.364-.836.505-.053.042-.11.093-.192.128-.237.174-.518.328-.78.49-.01.012-.016.018-.014.052q.13.134.26.271a3 3 0 0 1 .279.22c.212.134.485.262.674.454.144.088.259.224.412.308.176.143.52.346.634.59-.008.133.027.287-.09.42-.275-.067-.421-.295-.586-.493-.087-.07-.162-.126-.219-.196-.27-.213-.569-.417-.81-.652-.092-.038-.121-.103-.18-.168l-.139-.067c-.061-.128-.163-.118-.271-.166-.12-.107-.234-.231-.384-.258-.12.022-.298.042-.373.157-.014.063-.01.1-.026.17-.045.134-.045.134-.067.236a3 3 0 0 0-.225.85l-.057.264c-.098.193-.108.474-.169.714.013.131-.063.328-.035.484-.013.11.002.258.02.389-.024.087.028.263.037.39-.047.353.137.764.25 1.116.027.129.027.129.062.363.028.062.065.156.021.243q.006.002.01.008c-.028.202.101.597.224.775.026.022.12.081.043.13-.076-.04-.14-.112-.197-.157-.161-.051-.4-.057-.528-.178ZM57.23 28.381c-.072-.074.01-.162.063-.202.09-.139.168-.252.309-.344.137-.037.137-.037.17-.053.028-.053.117-.088.186-.053.007.062-.116.132-.166.165-.09.09-.09.09-.159.174-.146.123-.22.243-.403.313m2.01.86c-.24-.075-.22-.108-.092-.287a.4.4 0 0 1 .064-.032c-.015-.128.047-.204.1-.306a.1.1 0 0 1 .035-.008c.014.136.037.238-.031.373.015.066.04.17-.003.244l-.074.015Zm-1.865 1.205c-.056-.054-.041-.128-.048-.184-.004-.445-.06-.869-.039-1.296a.4.4 0 0 1 .108-.189c.124-.224.26-.433.456-.598.027-.08.065-.119.111-.184.051-.042.051-.042.064-.063.008-.132.075-.13.098-.22.033-.015.08-.015.134-.019.106.029.297-.075.416-.121.242-.067.242-.067.404-.099.17-.079.18-.09.22.113-.013.087.037.155.015.261q.004.067.012.139c-.034.168-.179.414-.287.552-.092.187-.166.411-.343.537-.148-.007-.406-.081-.207.13l.065.038c.01.087-.108.192-.164.264-.05.1-.177.196-.257.283-.078.126-.226.25-.323.365-.094.076-.306.268-.435.29Zm2.005 1.37c-.081-.064-.136-.075-.206-.101-.164-.108-.285-.256-.423-.364-.046-.062-.08-.096-.128-.114-.126-.119-.244-.221-.316-.35-.015-.126-.011-.147-.114-.184-.172-.174-.03-.219.028-.361.046-.06.083-.132.119-.199q.163-.228.33-.454c.057-.124.153-.27.306-.27.124.063.256.124.386.213.074.137.065.525.082.722-.016.102.012.206 0 .309.028.34.024.697.028 1.055-.034.073-.038.084-.092.097Zm.351.951a1.6 1.6 0 0 1-.727-.44.7.7 0 0 1-.22-.207c-.165-.155-.165-.155-.176-.157a.8.8 0 0 0-.163-.285.8.8 0 0 0-.13-.313c-.041-.114-.11-.182-.145-.26q-.01-.045-.016-.088a.8.8 0 0 1-.185-.287c-.104-.083-.292.148-.343.19-.126.048-.193.03-.229.155.015.147.02.281.07.44-.04.07-.022.054-.011.139-.053.087 0 .13.034.217-.028.014-.028.014-.05.034.012.131.05.261.066.412-.039.05-.04.161-.018.238.066.09.069.071.022.185-.042.041-.06.072-.09.122-.1.027-.236-.005-.33-.002-.103-.041-.219-.157-.27-.172-.086-.182-.101-.35-.113-.53-.031-.035-.052-.023-.07-.026-.004-.034.023-.045.051-.063.017-.09-.01-.183-.022-.258a.8.8 0 0 0-.002-.354 11 11 0 0 0-.077-1.435c-.018-.086-.012-.135-.076-.14-.212.217-.38.495-.552.742-.01.038-.01.083-.021.13a.3.3 0 0 0-.133.148c-.078.085-.157.153-.18.184-.042.145-.374.157-.472.169-.069-.035-.151-.06-.196-.095-.097-.134-.255-.267-.212-.418.098-.167.22-.332.312-.506.096-.115.25-.326.29-.463.099-.12.136-.226.188-.357.127-.117.259-.282.342-.43a1 1 0 0 0 .22-.314c.061-.076.114-.157.193-.217.06-.035.11-.068.169-.118.041-.24.01-.476-.008-.697-.039-.012-.061-.005-.087-.002-.148.072-.285.064-.407.16-.26.063-.509.18-.74.28a3 3 0 0 0-.171.032c-.09-.01-.09-.01-.198-.013l-.249-.1c-.129-.123-.319-.18-.424-.299-.088-.231-.037-.242.117-.394.176-.107.383-.171.583-.263.25-.038.566-.11.802-.243.171-.05.32-.123.51-.145l.175-.067c.034-.123.02-.245.025-.363-.087-.548-.192-1.099-.235-1.638-.003-.315-.002-.388.284-.548.231-.045.35-.102.487.153q.014.063.031.129c.066.101.078.325.062.467l.02.162c-.031.25.041.472.016.73.006.123.006.123.045.502l.031.022c.27-.038.563-.078.765.182.007.11.024.199-.07.275-.002.076.06.142.072.247-.008.034-.008.034-.058.13-.196.128-.447.096-.622.27-.126.052-.082.09-.076.232 0 .087-.028.232.032.325.163.043.266-.162.322-.274q.022-.029.049-.054c.307-.138.681-.104 1.002-.255.196-.038.403-.104.61-.157.067-.051.08-.14.093-.207-.018-.207-.045-.432-.016-.615q-.048-.396-.094-.793c.03-.275-.068-.515-.048-.776-.028-.092-.046-.084-.008-.16-.019-.32-.06-.617-.013-.925.006-.202-.006-.278.214-.223.082.088.19.204.218.359-.018.12-.015.252-.014.388a7 7 0 0 0 0 .901c.006.345.008.7.076 1.055-.016.04-.016.04-.02.073.023.2.017.419.069.632.028.047.044.014.104.046.004.05-.042.05-.068.063l-.001.024c.106.01.352-.058.466-.107.197-.037.387-.076.584-.156.172-.02.354-.018.546-.028.09.031.073.054.084.179q-.01.027-.017.053c-.133.043-.235.067-.356.124q-.148.005-.291.013c-.269.063-.269.063-.698.182-.108.056-.251.065-.333.123-.026.13.062.277.08.425-.04.204-.027.435-.038.657q.016.028.037.057c-.027.104-.02.2-.02.32.047.172.006.355.029.548.162.129.451.147.674.248.101.022.205.055.331.068.175.091.362.172.585.184.07.035.16.063.267.068.148.053.28.074.463.093a.8.8 0 0 0 .269.048c.13.018.313.011.448.073.042.05.126.132.152.221.06.075.066.245.039.36l-.056.034c-.088.174-.325.194-.474.133-.2-.158-.426-.168-.617-.272a7 7 0 0 0-.864-.287c-.305-.14-.622-.208-.879-.372-.053-.022-.306-.169-.329-.069.046.38.02.79.066 1.18-.031.225.035.52.07.772.059.09.063.326.066.468-.03.068-.03.068-.038.112.02.176.02.28-.16.35Zm18.832 1.106c-.07-.065-.027-.094.003-.151q.112-.178.226-.351c.068-.151.16-.368.265-.474.06-.154.14-.354.242-.454.041-.083.041-.083.06-.101.08.004.088.007.164.076.065.11.192.269.208.42.073.135.12.282.192.44.018.102.114.252.118.367l-.027.064c-.153.049-.345.12-.497.112-.03.013-.056.012-.129.031-.257.043-.573.07-.825.021m-1.343 1.544c-.071-.11-.225-.244-.256-.34.039-.11.076-.385.145-.437.063-.162-.007-.345.075-.463.08.023.046.084.112.147.031-.113.017-.222.055-.313h.02c.023.044.059.083.067.157l.032.017c.076-.024.251-.409.276-.459.083-.065.127-.148.18-.23.135-.094.196-.316.305-.42.16-.323.351-.6.516-.903l-.004-.031-.042-.022c-.34.122-.706.207-1.046.319-.02-.004-.377.072-.42.072-.182.053-.331.097-.52.096-.067-.038-.118-.14-.143-.184a.8.8 0 0 1 .07-.306c.035-.037.064-.075.111-.096.207-.012.407-.026.603-.09.193-.021.394-.075.595-.115.166-.081.376-.103.54-.176.08-.015.152-.053.233-.06.114-.037.197-.096.328-.099.195-.066.33-.3.388-.469.207-.233.345-.521.475-.782l-.029-.027c-.31-.086-.65-.083-.969-.118-.128-.038-.254-.047-.324-.15-.105-.092-.197-.156-.294-.234-.1-.048-.127-.049-.169-.128-.158-.127-.123-.154-.145-.344a.36.36 0 0 1 .29-.18c.537.087 1.064.268 1.614.354.11.016.23.048.346.088a.24.24 0 0 0 .099-.013c.104-.257.29-.46.396-.702q.047-.063.095-.122.208-.386.418-.77c.052-.122.133-.27.146-.384.119-.235.176-.302.437-.205.108.143.167.282.115.494-.065.16-.11.322-.234.485-.134.283-.187.415-.286.615-.15.2-.3.442-.375.7.002.029.017.047.06.07.254.007.438.045.67.186.093.113.258.445.077.578-.116.172-.324.321-.521.18-.246-.087-.453-.239-.718-.184-.172.121-.237.352-.384.524-.067.127-.067.127-.195.336.014.146.437-.035.535-.048.038-.021.093-.058.135-.017-.036.07-.246.088-.264.169.063.032.408-.16.406-.033a.4.4 0 0 1-.146.11l-.01.026.045.028c-.013.027-.695.242-.711.248-.18.05-.334.04-.405.236.007.058.075.122.133.179.066.11.213.28.224.446.1.136.144.337.244.509.06.134.103.285.22.406.039.006.244-.105.27-.125.096-.04.205-.086.29-.144.223-.107.223-.107.239-.106a2 2 0 0 1 .453-.329l.074-.073c.338-.155-.089-.212-.12-.112l.049.04c.033.146-.527.156-.61.15-.092.015-.15.078-.232.139-.087.04-.118.002-.188-.032-.062-.086-.206-.304-.165-.384q.193-.137.387-.27c.064-.064.064-.064.303-.258l.041-.069c.395-.44.475-.383-.03-.562a1.3 1.3 0 0 1-.432-.192l-.125-.203c.01-.13.131-.26.26-.236.22.122.409.24.666.309.078.04.196.107.306.109l.055-.042c.266-.377.623-.687.83-1.093a.4.4 0 0 1 .051-.036c.254-.308.477-.648.703-.956a.8.8 0 0 1 .249-.308c.053-.006.098-.015.157-.002.11.124.086.218-.006.383l-.314.467c-.06.053-.095.135-.163.206-.139.216-.336.413-.483.64a3 3 0 0 0-.384.47c-.134.114-.22.247-.303.411.078.065.291.127.403.17.092.013.202.05.296.084.108.01.2.058.309.074.271-.021.529-.08.693.194.024.1.056.198-.01.308a.8.8 0 0 1-.285.045.6.6 0 0 0-.265-.073c-.182-.106-.369-.16-.548-.23-.297-.026-.576-.174-.86-.213-.19.129-.312.373-.48.554l-.019.053c.035.018.096.006.145.004.205.052.449-.008.673.037.079.049.169.121.04.189-.045.084-.045.084-.112.187-.156.111-.328.224-.453.39-.075.049-.134.1-.205.167-.145.083-.269.18-.415.27-.05.005-.085.044-.132.077-.124.052-.243.116-.362.176l-.04.002-.023.032c.022.05.045.111.058.19.197.248.321.575.559.824.063.1.164.222.258.32 0 .134.32.41.441.512.129.128.244.23.385.377.049.016.055-.005.096.057.182.137.182.137.312.246.153.176.393.358.617.481.006.008.065.08.005.1-.187-.092-.378-.17-.564-.257h-.036l-.02.041c.07.115.278.071.386.173-.025.05-.036.058-.093.09a7 7 0 0 0-.509-.059c-.204.027-.204.027-.286.026a1.64 1.64 0 0 1-.643-.418c-.349-.267-.538-.538-.645-.947a9 9 0 0 0-.403-.839c-.115-.242-.217-.5-.33-.711-.1-.076-.286.028-.38.06-.09.018-.223.061-.374.09-.213.018-.496.082-.695.061l-.108.025c-.285-.055-.34-.059-.493.176-.012.042-.128.264-.135.299-.09.19-.178.448-.335.611-.17.075-.283.109-.467.062M68.174 24.95c-.028-.02-.068-.033-.1-.058-.003-.068.02-.077.052-.122.06-.163.109-.18.27-.239.073-.08.162-.075.215-.154.084-.04.183-.01.265-.066a.34.34 0 0 1 .272-.18c.131-.042.269-.091.413-.12q.097-.007.198-.012c.089-.036.089-.036.12-.042l.65.114c.051.03.111.101.05.181-.004.037.003.058-.004.103-.123.1-.139.113-.263.054-.193-.015-.25.046-.407.135-.165.05-.298.103-.437.142-.32.131-.672.161-.99.282-.094-.008-.231-.036-.304-.018m.37 7.486c-.238-.019-.253-.17-.333-.342a4 4 0 0 1-.052-.185c.005-.092.006-.18-.007-.26.015-.176.044-.34.045-.49.065-.117.086-.345.095-.463-.024-.082.008-.097.025-.155l.04-.589c.057-.165.054-.318.088-.473-.041-.104-.401.298-.45.346-.127.073-.21.176-.3.285-.042.073-.17.283-.29.212-.03-.044-.066-.086-.09-.094-.033-.132-.01-.321-.011-.44.037-.083.037-.083.071-.14.17-.215.376-.468.49-.708.077-.102.154-.181.176-.218.037-.115.134-.192.197-.29.058-.048.099-.156.132-.215.03-.013.074-.1.089-.127.11-.105.11-.105.138-.141.079-.207.092-.46.109-.663-.025-.099-.286 0-.334.03-.417.121-.864.236-1.283.234-.206.03-.216.024-.381-.09-.028-.082-.078-.157-.042-.223.126-.104.231-.134.398-.17.436-.01.887-.145 1.314-.28a.46.46 0 0 0 .227-.075q.08-.021.162-.04c.098-.182 0-.456.089-.624.056-.326.072-.654.098-.972.096-.176.25-.194.43-.108a.6.6 0 0 1 .14.322c-.069.092-.057.145-.092.256l-.042.059c.053.131-.027.273-.04.428l.037.08c-.007.082-.065.223-.003.324.078.005.16-.033.243-.062.009-.105-.057-.182-.07-.247.006-.07.033-.195.121-.118l.014.068c.088.079.17.188.29.265.08.11.236.061.268.254-.01.133-.1.234-.209.331-.107-.001-.273-.03-.35 0-.18-.014-.329 0-.411.156-.01.065.01.143-.025.214l-.009.118c-.027.129-.095.253-.03.397.018.01.018.01.056.009.142-.133.273-.275.432-.385.126-.038.264-.207.354-.293.077-.023.155-.146.197-.209.056-.034.062-.077.094-.126.039-.024.127-.117.176-.107 0 .013-.003.026 0 .039-.075.082-.152.2-.236.278-.03.12-.154.186-.18.314.065.005.249-.173.296-.227.03-.004.03-.004.051.002l.131-.224c.03-.011.057-.009.102.001.231.158.523.079.76.293.132.058.317.08.395.24-.009.103-.058.16-.15.203-.005.048 0 .134-.007.22-.101.126-.19.13-.34.1-.078.001-.124.022-.192.016-.022-.027-.022-.027-.043-.083-.248-.127-.653-.399-.63-.693-.006-.027-.015-.05-.033-.059-.036.067-.061.137-.102.211-.05.179-.32.375-.45.5a1.4 1.4 0 0 0-.24.384c-.085.1-.153.148-.269.222-.122.138-.356.164-.354.381-.016.092-.074.204-.025.308a.2.2 0 0 1-.027.083c-.015.177.055.402-.047.59-.005.06-.01.089.016.162-.004.06-.04.1-.015.192-.006.319-.06.644-.114.975-.044.142-.055.33-.04.498a.44.44 0 0 0-.023.287c-.017.134-.043.284-.055.432-.034.048-.107.073-.16.09Zm2.696 1.19c-.133-.106-.033-.158-.013-.265.016-.022.016-.022.035-.067.057-.442.106-.898.14-1.327.049-.13.034-.267.08-.371.049-.409.087-.825.148-1.226-.048-.121.001-.176.037-.276.033-.303.07-.618.05-.902.004-.094.024-.327.006-.39-.096-.04-.195-.001-.28.01-.141-.002-.253.05-.37.062q-.156.035-.31.074c-.18.006-.367.04-.52.076a1.2 1.2 0 0 0-.391.04c-.068-.006-.146-.048-.184-.04-.253-.059-.36-.151-.339-.401.068-.207.232-.187.423-.187.315-.032.315-.032.431-.035.21-.05.422-.117.643-.1.275-.049.564-.069.842-.147.153-.083.158-.057.171-.22.068-.229.064-.48.084-.702.04-.098.046-.386.029-.441.01-.125.055-.344.022-.442-.195-.106-.341-.22-.54-.2-.025.01-.148.073-.176.061.008-.106.133-.095.127-.19-.11-.108-.222-.18-.326-.256-.026-.073-.018-.137-.013-.188.117-.1.535-.033.706-.028l.086.027c.103.008.193.056.252-.084.024-.443.092-.89.126-1.32.004-.125.027-.236.035-.34.035-.082.057-.08.138-.082a.5.5 0 0 1 .169.285c-.025.12.005.383-.082.487-.025.214-.036.45-.055.69-.016.058.035.178.034.282-.043.128-.114.247-.054.398-.013.158-.021.347-.061.507.002.129-.057.27-.035.432-.05.271-.056.56-.067.844-.014.045-.125.509.052.422l.294-.036c.129.011.449.028.577-.039.006-.079-.004-.144.006-.21l.035.002c.037.064.048.149.131.205l.056-.003c.013-.03.013-.03.022-.084.044-.017.073.052.123.103.108.045.21-.037.314.105-.011.05-.011.05-.02.168-.03.032-.03.032-.09.079-.016.195-.065.318-.236.426-.143-.012-.175-.068-.274-.125l-.196-.022c-.134.01-.295.045-.42.016-.114.008-.427.006-.477.117-.01.128-.01.233-.06.371-.009.12.012.343-.057.458a.6.6 0 0 1-.022.272c-.005.358-.058.725-.088 1.101-.03.095-.066.216-.075.334.034.106-.023.228.008.353-.008.05-.02.127-.052.19l-.027.338c-.008.05-.015.165-.053.221-.05.323-.13.644-.157.984-.075.137-.167.189-.312.205Zm28.991 13.321c-.013-.056-.052-.149-.066-.205-.007-.202.033-.26.113-.414.084-.237.128-.438.268-.622.046-.135.101-.26.136-.373.237-.188.369.163.517.282.1.204.082.447-.014.67-.013.087-.018.136-.072.239l-.042.245c.067.2.05.11-.095.254l-.111.248c-.114.186-.253.03-.372-.076a.84.84 0 0 1-.262-.248m-1.154-1.499c-.06-.302.179-.485.227-.73l.073-.186c.1-.193.193-.368.32-.517.029-.077.043-.141.085-.172.137.09.296.184.423.293.092.165.162.403.108.608a.9.9 0 0 0-.077.305q.03.045.059.095c.082.01.095-.004.127.077-.06.058-.157.065-.247.119-.034.167-.034.167-.056.221-.15.134-.285.327-.527.26a.54.54 0 0 1-.399-.18zM96.795 47q-.011-.085-.019-.168c.025-.067.025-.067.032-.111.094-.126.247-.206.317-.318.192-.134.272-.219.479-.075.107.215-.163.407-.142.664.064.09.17.212.18.23.203.201.208.208-.056.056a.9.9 0 0 0-.34-.04l-.108-.011c-.192.07-.271-.093-.343-.227m-1.342-1.98c.006-.007-.024-.162-.026-.218.025-.154-.013-.285.037-.41.046-.25.04-.227.266-.24.083.002.249-.01.305.028.222.029.468.016.672.094.075-.003.075-.003.11.005.256.113.538.17.814.218a.5.5 0 0 1 .12.071c.212-.048.214.107.148.264-.014.012-.068.046-.072.086.134.26.331.51.467.786.169.21.306.453.443.704.15.166.343.184.51.332.112.055.21.102.315.182l.144.08c.16.05.201.057.225.07.049.049.118.07.185.101a.7.7 0 0 0 .317.161c.06.038.216.156.304.16.169.097.241.184.451.208.16.064.16.064.224.08.114.064.333.11.457.115.085-.036.142-.07.156-.143q.008-.007.014-.01c.001-.072-.145-.31.014-.283l.055-.025.062.06c.156.194.245.423.426.618.086.194.086.194.115.27.001.238-.146.439-.41.438-.119-.027-.119-.027-.19-.05-.255-.153-.59-.207-.846-.33-.031-.004-.031-.004-.063-.02-.249-.18-.536-.31-.79-.482a5 5 0 0 1-.696-.48c-.106-.073-.215-.195-.321-.247l-.058-.063c-.13-.083-.205-.194-.308-.282l-.025.012c.304.575.767 1.08 1.035 1.693.155.289.253.578.31.923.071.168.114.33.099.542l.014.086c-.057.242-.431.386-.646.506-.137.026-.17.055-.286 0-.194-.026-.369-.299-.47-.42-.127-.203-.257-.42-.39-.606-.108-.117-.201-.244-.297-.37-.092-.08-.144-.17-.227-.246-.058-.116-.043-.107.012-.204.136-.078.362-.175.481-.065.097-.036.111.004.198.048.23.18.23.18.439.33.042.016.102-.012.12-.035-.102-.2-.205-.413-.332-.578-.196-.399-.452-.763-.647-1.14-.116-.132-.167-.3-.274-.422-.103-.282-.3-.548-.478-.765-.128-.26-.302-.507-.406-.759-.127-.161-.245-.077-.41-.132-.07-.006-.15-.045-.226-.05-.102.031-.199-.016-.289-.06l-.294.029a1 1 0 0 0-.09-.026.76.76 0 0 1-.406-.001c-.022-.02-.022-.02-.091-.138m-3.347 4.524c-.017-.12-.051-.225-.08-.322a2 2 0 0 1-.02-.32c-.053-.142-.076-.27-.11-.398-.01-.324-.039-.635-.006-.938-.031-.19-.003-.413.017-.582l.03-.02c.154.157.213.356.248.599.058.16.066.398.084.59.075.217.2.459.242.695.088.19.143.365.308.52.176.11.348.115.539.052.17-.008.309-.092.473-.09.196-.098.415-.15.591-.237.017-.018.017-.018.072-.044.132-.027.265-.099.378-.146.32-.225.706-.381.996-.623.1-.133-.042-.326-.12-.415-.168-.258-.324-.522-.516-.739-.15-.255-.385-.454-.59-.669-.062-.044-.062-.044-.099-.056-.13-.153-.272-.281-.351-.443a.6.6 0 0 1-.018-.204c-.063-.168.034-.297.113-.415.162-.109.299-.085.388.08.075.205.21.396.29.623.028.055.082.111.128.162.156.237.346.411.556.632.166.223.313.47.493.7.061.107.118.222.209.32.136-.052.26-.22.363-.293.083-.08.17-.128.232-.193a.33.33 0 0 1 .266-.03c.06.11.055.2 0 .34-.001.036-.018.108.009.162.181.077.442.123.637.107.11.026.118.037.17-.043-.02-.111-.175-.246-.158-.338l.018-.012c.087.03.096-.053.152-.073.022.014.022.014.095.113l.194.194c.149.1.289.252.449.351.078.217.056.326-.176.441-.079.013-.079.013-.154.012-.262-.062-.606-.132-.855-.253-.137-.02-.27-.064-.399-.106a.8.8 0 0 1-.335-.03c-.068.01-.107.092-.182.143-.018.02-.02.026-.019.073.115.203.23.423.372.638.204.412.42.833.585 1.285.09.157.156.345.212.541 0 .23-.033.324-.267.433-.139.037-.422 0-.478-.168v-.043q-.015-.053-.031-.101c-.01-.231-.014-.465-.107-.653-.028-.085-.042-.138-.079-.202a15 15 0 0 0-.615-1.464q-.012-.014-.023-.024c-.145.032-.414.226-.573.312-.129.075-.269.145-.389.249l-.033.007c-.246.134-.5.3-.78.388-.231.157-.502.223-.775.312l-.42.17c-.056.012-.082.013-.147.05-.069-.024-.204.026-.288.037-.152 0-.38-.147-.492-.256-.08-.134-.127-.293-.224-.388m6.36 31.176-1.366-.677-2.468.26.38-.77 1.662-.13-.915-1.386.373-.757 1.295 2.13 1.362.675zm-1.835 3.329-2.57-1.567-.558.92-.524-.318 1.495-2.465.523.319-.556.918 2.57 1.566zm-1.53 2.3L92.183 84.2l.433-.59 2.919 2.148-.434.59Zm-3.432 2.418.407-.59q.315.185.57.143.255-.041.471-.295.229-.27.23-.505a.44.44 0 0 0-.15-.363.33.33 0 0 0-.217-.084.6.6 0 0 0-.289.1 9 9 0 0 0-.5.344q-.49.356-.806.398a.94.94 0 0 1-.772-.217.93.93 0 0 1-.293-.455 1 1 0 0 1 .013-.584q.095-.306.365-.626.441-.521.891-.591.451-.069.844.24l-.449.58q-.244-.145-.436-.106-.194.04-.393.275-.206.244-.223.466a.27.27 0 0 0 .096.235.28.28 0 0 0 .238.06q.178-.03.62-.357.441-.327.708-.435.27-.108.54-.068.273.042.533.264a1.06 1.06 0 0 1 .325 1.146q-.104.328-.41.688-.442.525-.923.601-.48.075-.99-.264m-2.842 1.658.391-.374q.38-.365.445-.487a.4.4 0 0 0 .042-.254.47.47 0 0 0-.134-.248.44.44 0 0 0-.274-.146.45.45 0 0 0-.298.088q-.073.053-.394.361l-.412.395zm.916 2.021-2.503-2.624 1.113-1.066q.42-.401.677-.513a.83.83 0 0 1 .544-.04q.287.072.509.304a.97.97 0 0 1 .292.654q.01.358-.287.738.268-.064.494-.051t.707.138l.808.205-.633.606-.926-.205a5 5 0 0 0-.647-.12.6.6 0 0 0-.263.044 1.2 1.2 0 0 0-.294.226l-.107.102 1.044 1.095zm-3.028 2.44-2.214-2.871 2.124-1.646.375.486-1.546 1.198.491.636 1.438-1.114.373.483-1.438 1.115.603.781 1.6-1.24.373.484-2.179 1.689Zm-2.47 1.716L81.2 94.248l.667-.43 2.219 1.765-.702-2.74.653-.42.865 3.756zm-2.544 1.441-1.684-3.213.647-.34 1.684 3.213zm-3.788 1.728-1.398-3.348.657-.276 2.3 1.663-.933-2.236.627-.263 1.398 3.348-.678.285-2.258-1.62.912 2.184zm-5.043-2.168.7-.21.564 1.882q.135.449.2.573a.6.6 0 0 0 .316.278q.209.08.502-.009.298-.09.413-.258a.5.5 0 0 0 .092-.354 4 4 0 0 0-.146-.6l-.576-1.923.7-.21.547 1.825q.188.627.208.902.021.276-.078.499a1.1 1.1 0 0 1-.323.406q-.225.182-.637.306-.495.15-.788.112a1.1 1.1 0 0 1-.495-.177 1 1 0 0 1-.311-.326q-.157-.278-.333-.861zm-5.267 4.609-.36-3.612 2.471-.247.061.61-1.743.176.086.854 1.504-.15.06.611-1.504.15.153 1.535zm-3.188-1.467a.94.94 0 0 0-.355.296.6.6 0 0 0-.114.351q.003.225.152.366.148.14.395.137a.8.8 0 0 0 .313-.068q.15-.066.326-.217zm.262-.758.187-.146q.204-.165.203-.322a.3.3 0 0 0-.103-.228.38.38 0 0 0-.272-.09.38.38 0 0 0-.258.086.25.25 0 0 0-.092.194q.002.128.163.31zm1.914 1.95-.413.541a2.4 2.4 0 0 1-.598-.408 1.5 1.5 0 0 1-.464.298 1.7 1.7 0 0 1-.586.101q-.677.008-1.022-.368a.98.98 0 0 1-.273-.676 1.02 1.02 0 0 1 .2-.629q.203-.282.614-.492a2 2 0 0 1-.285-.417.9.9 0 0 1-.098-.377.71.71 0 0 1 .257-.56q.259-.233.746-.239.47-.005.737.231a.763.763 0 0 1 .145 1.003q-.128.2-.523.456l.512.659a1.7 1.7 0 0 0 .149-.415l.629.135q-.09.336-.158.491a1.3 1.3 0 0 1-.144.261q.117.108.303.236.185.127.272.169m-5.35-1.077-.396-1.38-.589 1.306zm1.236 1.534-.794-.06-.253-.846-1.444-.109-.36.8-.773-.058 1.678-3.514.772.058zm-8.611-1.35.743-2.922-1.041-.266.152-.595 2.788.712-.151.595-1.039-.265-.742 2.922zm-4.261-2.673.691.182q-.065.36.062.586.125.225.438.342.331.122.551.043a.44.44 0 0 0 .29-.266.33.33 0 0 0 .005-.231.6.6 0 0 0-.193-.24 9 9 0 0 0-.494-.352q-.5-.34-.649-.623a.94.94 0 0 1-.06-.801.93.93 0 0 1 .326-.432 1 1 0 0 1 .552-.188q.32-.015.711.13.64.237.86.638.218.4.062.876l-.696-.224q.052-.28-.05-.448-.104-.168-.392-.275-.299-.112-.514-.05a.26.26 0 0 0-.187.17.28.28 0 0 0 .026.244q.09.158.547.461.456.304.65.52.192.215.247.485t-.064.592a1.07 1.07 0 0 1-.964.698q-.342.014-.785-.15-.645-.239-.88-.665t-.09-1.022m-3.79-.51 1.66-3.226 2.386 1.234-.281.546-1.736-.898-.368.715 1.615.836-.28.543-1.615-.836-.452.878 1.798.93-.28.544zm-4.047-2.525 1.265-3.509.625.412-.908 2.384 1.918-1.72.727.479-.858 2.468 1.853-1.813.615.405-2.722 2.55-.65-.427.884-2.665-2.087 1.873zm-3.686-2.945 2.294-2.81.567.465-.903 1.106 1.108.91.903-1.106.566.464-2.294 2.808-.565-.463 1.002-1.229-1.108-.909-1.003 1.229zm-1.983-2.01 2.138-2.12-.756-.766.435-.432 2.025 2.05-.435.432-.754-.763-2.139 2.12zm-1.186-4.58.338.423q.33.412.445.487.117.074.248.064a.47.47 0 0 0 .258-.112.44.44 0 0 0 .17-.261.45.45 0 0 0-.061-.305 7 7 0 0 0-.325-.425l-.356-.446zm-2.088.738 2.825-2.27.963 1.204q.363.454.451.722a.84.84 0 0 1-.007.546q-.097.28-.347.481a.97.97 0 0 1-.675.235q-.356-.021-.71-.351.041.273.009.497a4 4 0 0 1-.199.694l-.275.789-.546-.684.284-.908a5 5 0 0 0 .175-.634.6.6 0 0 0-.02-.267 1.2 1.2 0 0 0-.199-.314l-.092-.115-1.18.947zm-.486-4.252q-.522.325-.644.733a.93.93 0 0 0 .11.783.92.92 0 0 0 .645.446q.415.073.95-.26.53-.328.648-.72.116-.395-.12-.78a.93.93 0 0 0-.648-.459q-.408-.072-.94.257Zm-.416-.63q.47-.291.877-.348.3-.04.6.026.299.067.523.228.3.212.532.59.42.682.25 1.354-.169.67-.921 1.137-.746.462-1.419.316-.671-.147-1.09-.826-.425-.69-.257-1.355.17-.666.905-1.121Zm-3.289-2.688 3.29-1.517.298.648-1.578 2.363 2.197-1.013.284.619-3.29 1.516-.307-.668 1.536-2.319-2.146.99-.284-.62Z" fill="#28603e"/></g><defs><filter id="a" x="-13" y="0" width="154" height="157" filterUnits="userSpaceOnUse" color-interpolation-filters="sRGB"><feFlood flood-opacity="0" result="BackgroundImageFix"/><feColorMatrix in="SourceAlpha" values="0 0 0 0 0 0 0 0 0 0 0 0 0 0 0 0 0 0 127 0" result="hardAlpha"/><feOffset dy="16"/><feGaussianBlur stdDeviation="6.5"/><feColorMatrix values="0 0 0 0 0 0 0 0 0 0 0 0 0 0 0 0 0 0 0.03 0"/><feBlend in2="BackgroundImageFix" result="effect1_dropShadow_49_9202"/><feBlend in="SourceGraphic" in2="effect1_dropShadow_49_9202" result="shape"/></filter></defs></svg>