<svg xmlns="http://www.w3.org/2000/svg" viewBox="0 0 128 40.9"><defs><style>.cls-1{fill:#005ca1}</style></defs><g id="_图层_1" data-name="图层_1"><path class="cls-1" d="M28 7.2c.9 0 1.8 0 2.7.3.9.2 1.7.4 2.5.8 1.6.7 3 1.6 4.2 2.9 1.2 1.2 2.2 2.7 2.9 4.2.3.8.6 1.6.8 2.5q.6 2.7 0 5.4c-.3 1.7-1 3.3-2 4.8q-1.5 2.1-3.6 3.6c-1.4 1-3.1 1.7-4.8 2q-2.7.6-5.4 0c-.9-.2-1.7-.4-2.5-.8-1.6-.7-3-1.6-4.2-2.9-.6-.6-1.1-1.3-1.6-2s-.9-1.5-1.2-2.3-.6-1.6-.8-2.5q-.6-2.7 0-5.4c.2-.9.4-1.7.8-2.5 1-2.4 2.7-4.4 4.8-5.9 1.4-1 3.1-1.7 4.8-2q1.35-.3 2.7-.3Zm0-.7c-7.8 0-14 6.3-14 14s6.3 14 14 14 14-6.3 14-14c0-7.8-6.3-14-14-14"/><path class="cls-1" d="M28 11.2c1.8 0 3.7.5 5.2 1.6 1.5 1 2.7 2.4 3.4 4.1.5 1.1.7 2.4.7 3.6 0 1.8-.5 3.7-1.6 5.2-1 1.5-2.4 2.7-4.1 3.4-1.1.5-2.4.7-3.6.7-1.8 0-3.7-.5-5.2-1.6-1.5-1-2.7-2.4-3.4-4.1-.5-1.1-.7-2.4-.7-3.6 0-1.8.5-3.7 1.6-5.2 1.7-2.6 4.6-4.1 7.7-4.1m0-.9c-5.6 0-10.2 4.6-10.2 10.2S22.4 30.7 28 30.7s10.2-4.6 10.2-10.2S33.6 10.3 28 10.3m1.3 22.1v.7c0 .2-.2.4-.4.4-.3 0-.6 0-.7-.3 0-.2-.1-.5 0-.8 0-.2 0-.4.2-.6.1-.3.5-.4.8-.3.2.1.2.3.3.4v.4Zm-.3.1v-.3c0-.2 0-.3-.1-.5 0 0 0-.1-.2-.2-.2 0-.3 0-.4.2v1.1c0 .2 0 .3.1.4 0 0 .1.2.2.2s.2 0 .3-.2c0-.2.1-.4.1-.7m-2.3-.1s-.1 0-.2.1c-.3.2-.7 0-.7-.3s0-.5.2-.7.4-.2.6-.2c.3 0 .4.2.4.5s0 .5-.1.7c-.2.5-.6.7-1.1.8.4 0 .7-.4.8-.7Zm-.7-.5v.3c0 .2.2.3.3.3.2 0 .3-.1.4-.3v-.6c0-.1-.2-.2-.3-.2s-.2.1-.3.2v.2Zm4.4 1.1h.3c.1 0 .3-.1.4-.1 0 0 .1 0 .2-.1 0-.1 0 0 0 0v.3c-.3 0-.7.1-1 .2.2-.2.3-.5.4-.7s.2-.3.2-.5v-.4c-.1-.2-.4-.2-.6 0v.2-.4c.2-.1.3-.2.6-.2.2 0 .3.2.4.4v.6c-.1.3-.3.5-.5.8Zm-6.6-.4c.2 0 .2 0 .2-.1.1-.4.3-.8.4-1.2v-.1h-.1.5c-.2.5-.4 1-.6 1.6v.2c-.2 0-.4-.1-.6-.2h-.1.1Zm-1.1-2q0 .3-.3.3t-.3-.3c0-.3.2-.3.3-.3.2 0 .3.2.3.3m10.1.2q.3 0 .3.3t-.3.3-.3-.3c0-.2.2-.3.3-.3"/><path class="cls-1" d="M40.1 18.8h-1.2v.3c0-.3 0-.6-.1-.9 0-.1 0-.2-.1-.3.1.2.1.1.3 0l.2-.2c0-.2-.1-.5-.2-.7h-.4s-.1 0 0 0v.1c0-.2 0-.4-.1-.5 0 .2.3.2.5.2.3 0 .5 0 .8.1h.7c-.1.1-.3.2-.4.3-.3.3-.7.5-1 .8 0 0-.1.3 0 .4h1.5v-.2.5l-1.2 1.2h1.3v-.1.6-.2h-1.6v-.1l.8-.8.6-.6ZM38.9 17c0 .2.1.4.2.5.2-.1.4-.3.5-.4h-.8Zm-21.8 2.2c-.2 0-.4-.2-.6-.3-.2 0-.4-.2-.6-.2h-.1v-.6c0 .2.1.2.2.3.5.2 1 .5 1.5.7l-1.1.3c.4.2.7.3 1.1.5l-1.5.4c-.1 0-.2 0-.3.2v-.7c0 .2 0 .2.3.2.4 0 .8-.2 1.2-.3l-.9-.4H16s-.1 0-.1.1v-.7c0 .2 0 .2.2.1.4 0 .8-.2 1.2-.3Zm21 5.2s0 .1-.1.2c.1-.2.2-.5.3-.7v.3c.2.1.5.2.7.3.2 0 .4.2.6.3h.2v-.1c-.1.2-.2.5-.3.7v-.3c-.2 0-.4-.2-.6-.3-.1.3-.2.6-.4.8.2 0 .4.2.6.2h.1l.1-.1c-.1.2-.2.5-.3.7v-.3c-.3-.2-.7-.3-1.1-.5 0 0-.2 0-.3-.1h-.1l-.1.1c0-.2.2-.3.2-.5v-.2.3c.2 0 .3.1.5.2h.2c.1-.2.2-.5.3-.7-.2 0-.4-.2-.6-.3Zm-21.6-1.9c0-.3 0-.5-.1-.8 0-.1 0-.1-.1 0h-.6v.2-.7.2h1.6V21v.8c0-.2 0-.2-.1-.2h-.6v.8c0 .1 0 .1.1.1h.6v-.2.8-.2h-1.6v.3-.8.2h.6s.1 0 0 0Zm.7 2.8c.2 0 .3 0 .4.2.1-.2.2-.5.3-.7v-.4c0 .1.1.2.2.3-.2.3-.3.6-.5.8v.2c0 .1 0 .1.2 0 .1 0 .3-.2.4-.2v-.3c.1.2.2.5.4.7l-.1-.1h-.1c-.4.2-.9.4-1.3.7v.4c-.1-.3-.3-.6-.5-.9s0-.7.4-.7Zm.1.2c-.2 0-.3.2-.3.4 0 .1.1.3.2.4.2 0 .4-.2.6-.3 0 0 0-.2-.1-.2 0-.1-.2-.2-.4-.2ZM27.9 9.4v.4h.2-.8.2s.1 0 .1-.1V8.3c0-.2 0-.2-.2-.2h-.1 1c.3 0 .5.3.4.5 0 .2-.2.4-.4.4.1.2.3.4.4.6 0 .1.2.1.3.2h-.5c-.2 0 0 0 0 0-.2-.3-.4-.5-.6-.8q-.1 0-.1.1v.2Zm0-.9v.3h.2c.2 0 .4 0 .4-.3 0-.2 0-.4-.3-.4h-.4v.3Zm-7.8 21.7-.4-.4V28c-.2.3-.5.5-.7.8v.2l-.5-.5h.3l.6-.6c.2-.2.4-.4.5-.6 0 .4 0 .8-.1 1.2v.7c.3-.3.6-.6.8-.9V28l.5.5h-.2c-.4.3-.7.7-1 1v.1s0 .1.1.2v.1Zm2.5-19.4-.4-.7c0-.1-.1-.2-.2-.3h-.3c.2-.1.4-.2.6-.4l-.1.1v.2c.1.2.3.4.4.6s.3.5.5.7c-.5-.2-1.1-.4-1.6-.5h-.3c0 .1.1.2.2.3.2.3.3.5.5.8 0 .1 0 .1.2 0h.1c-.2 0-.4.2-.6.4l.1-.1v-.2c-.1-.2-.2-.4-.3-.5-.1-.2-.3-.5-.4-.7h-.3c.1 0 .3-.1.4-.2.5.2 1.1.4 1.7.6h.1Zm15.1 17.1c-.1 0-.2-.2-.3-.3l-.7-.6h-.3c.2-.2.3-.3.4-.5v.3c.2.2.4.3.6.5.2.1.3.3.5.4h.2s.1 0 .2-.1l-.3.3h-1.8l.1.1c.3.2.5.4.8.7h.3c-.2.2-.3.3-.4.5v-.3c-.1-.1-.3-.2-.4-.4-.3-.2-.6-.5-.9-.7h2Zm-19.1-1.7c.3 0 .6.2.8.4.1.1.2.3.2.5s0 .4-.2.5c-.2.3-.5.4-.8.5-.2 0-.4 0-.6-.1-.2-.2-.4-.4-.5-.7 0-.3 0-.5.2-.7s.4-.4.7-.4zm.8.8c0-.3-.3-.8-.8-.6-.3 0-.5.2-.7.4s-.2.5 0 .8c.1.2.4.4.7.3.3 0 .5-.2.7-.4.1-.1.2-.3.2-.5Zm18-14.5v-.3c.1.2.3.4.5.6h-.1c0 .1 0 .3-.1.4v.1h.6s.1 0 0-.2c.1.2.2.3.4.5-.1-.1-.3-.1-.5-.1h-.6c0 .3-.2.6-.3.9v.2c-.1-.2-.3-.4-.5-.6h.1c0-.2.1-.3.2-.5v-.2h-.7c-.1-.2-.2-.3-.4-.5 0 0 .2.1.3.1h.8c0-.3.2-.5.2-.8Zm-20.3 4.7H17v.5h-.1c.2 0 .5.1.7.2 0-.2.1-.4.2-.6v-.2l-.2-.2c.1 0 .2.2.3.2 0 .3-.2.6-.3.9 0 .2 0 .3-.1.5v-.3c-.2 0-.4-.1-.5-.2-.3 0-.5-.2-.8-.2H16v.1c.1-.3.2-.7.3-1 0-.1 0-.3.1-.4h.3-.3c0 .2-.1.4-.2.6.2 0 .4.1.6.2 0-.2 0-.3.1-.5v-.1h-.1c.2 0 .4.1.5.2Zm10.1-7.8v.5c-.4 0-.7 0-1.1.1h-.3.2v-.1c0-.4-.1-.9-.2-1.3 0-.2 0-.1-.2-.2.4 0 .7 0 1.1-.1h.3v.3-.2s-.1-.1-.2 0h-.6v.5s0 .1.1 0h.4c.2 0 .2 0 .2-.2v-.1.6V9h-.6v.7h.6s.2 0 .2-.1v-.2zm-7 3.8c-.2 0-.3 0-.4-.2-.2-.2-.5-.5-.7-.8 0 0-.1-.1-.2 0 .2-.2.4-.3.6-.5v.3s.1.2.2.2c.2.2.4.4.5.6.1.1.3.2.5 0 .2 0 .3-.2.4-.3.1-.2 0-.4 0-.6l-.6-.6-.2-.2H20c.2-.1.3-.3.5-.4v.3l.2.3c.2.2.3.4.5.5.2.3.2.6 0 .8s-.3.4-.6.4h-.1Zm15 15.3h-.1c.1-.1.3-.2.4-.3v.3c.1.5.3 1 .4 1.4v.2l-1.2-.6c-.2 0-.3-.1-.5-.2H34c.2-.1.4-.3.5-.4v.1c.1 0 .2.1.3.2l.6-.5c0-.1 0-.2-.1-.4Zm.5 1.4v-.2c0-.2-.1-.4-.2-.6-.1.1-.3.2-.4.3.2 0 .3.2.5.2 0 0 .2 0 .3.1Zm2.6-6.8c0-.3 0-.6.3-.8q.3-.3.6-.3c.3 0 .6 0 .8.3.2.2.3.5.3.8s-.1.5-.3.7h-.4.2c.1 0 .2 0 .3-.2.2-.2.2-.6 0-.9q-.15-.3-.6-.3H39c-.3 0-.4.3-.5.6v.6-.5Zm-21.8-7.4q0-.3.3-.6c0-.1 0-.1.2 0 0 0 .2 0 .2.1-.3 0-.5.1-.5.3s0 .4.3.4h.2c.1 0 .3-.2.4-.3s.3-.2.5-.1c.3 0 .5.3.4.6 0 .3-.2.5-.4.7-.1 0-.2-.1-.4-.2h.2c.2 0 .4-.1.5-.4 0-.3-.1-.4-.4-.4 0 0-.2 0-.2.1-.1 0-.2.2-.4.3s-.3.2-.5 0c-.2-.1-.3-.3-.3-.5ZM30 10.1c-.2 0-.4 0-.6-.2v-.4.1c0 .3.2.4.5.4q.3 0 .3-.3c0-.1 0-.2-.2-.3-.1-.1-.3-.2-.4-.3 0 0-.2-.2-.2-.3 0-.2.1-.5.3-.6.3 0 .5 0 .8.1v.3c0-.1 0-.2-.1-.3s-.4-.2-.5 0c-.1.1-.1.3 0 .4s.3.2.4.3c.1 0 .2.2.3.3.1.3 0 .6-.3.7H30Zm-11.8 3.4h-.4s-.1.2-.2.3c.4.3.8.5 1.2.7h.2l.1-.1c-.1.2-.3.4-.4.7v-.3c-.4-.3-.8-.5-1.3-.8 0 0-.1.2-.2.3v.2l.1.1c-.1 0-.2-.2-.3-.2.3-.4.5-.8.8-1.3h.1l.3.2ZM32.5 9h-.1s-.1.1-.1.2c0-.1.1-.2.2-.4.5.2.9.4 1.4.6v.1c0 .1 0 .2-.1.4v-.3c-.1 0-.2-.1-.4-.2-.2.4-.4.9-.6 1.4v.2h.1c-.2-.1-.5-.2-.7-.3h.3c.1-.3.3-.6.4-.9 0-.1.1-.3.2-.4l-.3-.2ZM16.7 24.9h.1-.5c-.1-.4-.2-.7-.4-1.1 0-.1 0-.2-.1-.3l.4-.2s-.1 0-.2.1v.2c0 .1 0 .2.1.3.5-.1 1-.3 1.4-.5v-.3c0 .2.1.5.2.7v-.2h-.1c-.4.1-.7.2-1.1.3-.1 0-.2 0-.3.1 0 .1 0 .3.1.4h.2Zm17.7-14.5v.4c.2-.1.5-.2.7-.4v-.1c.2.1.3.2.5.3h-.5c-.3.1-.5.2-.8.4 0 .1-.2.3-.3.4v.2l.1.1c-.2-.1-.4-.3-.7-.4h.3c0-.1.2-.3.3-.4V9.7s0-.2-.1-.2c.2.1.4.2.5.3-.2 0-.2 0-.2.1v.3Zm-9.6-.4V8.6c0-.1 0-.1-.1-.1.1 0 .2 0 .4-.1h.2c-.2 0-.2.3-.2.5v1.6c-.1-.1-.2-.3-.3-.4-.3-.3-.5-.7-.8-1h-.2c.2 0 .4-.1.6-.2-.2.1-.2.1 0 .3.2.3.5.6.7 1Zm13.9 4.2V14c.1.2.2.4.4.6 0-.2-.1-.2-.2-.1-.4.2-.8.5-1.2.7v.4c-.1-.2-.3-.4-.4-.7l.1.1h.1l.6-.4c.2-.1.4-.3.6-.4v-.1Zm-16-4.9h-.2c.2 0 .5-.2.7-.3h-.1s-.1 0 0 .2.2.5.3.7c0 .2.2.4.3.6 0 .1 0 .1.2 0h.1c-.2 0-.5.2-.7.3h.1s.1 0 0-.2v-.3c-.3-.3-.4-.7-.6-1zm14.4 17-.1.1c.2-.2.3-.4.4-.7v.3c.1 0 .2.1.3.2l.9.6h.1l.1-.1c-.1.2-.3.4-.4.7v-.3c-.4-.3-.8-.5-1.2-.8ZM32.2 8.8h-.3c0 .2-.1.3-.2.5 0 .3-.2.6-.3.9v.2h.1c-.2 0-.5-.2-.7-.2h.3c0-.2.1-.4.2-.7 0-.2.1-.5.2-.7v-.1h-.2v-.2c.2 0 .4.1.6.2h.1Zm7.4 12.3q.3 0 .3.3t-.3.3-.3-.3.3-.3M36.2 12c0 .2-.2.3-.3.3s-.3-.2-.3-.3.2-.3.3-.3c.2 0 .3.2.3.3m3 3.6c-.1 0-.3 0-.4-.1h.2v-.2h.2zs-.2.1-.3.1ZM28 12.4c2.2 0 4.2.8 5.7 2.4 1.5 1.5 2.4 3.6 2.4 5.7 0 2.2-.8 4.2-2.4 5.7-2.7 2.7-7 3.2-10.3 1-.9-.6-1.6-1.3-2.2-2.2-.9-1.3-1.4-2.9-1.4-4.5 0-2.2.8-4.2 2.4-5.7 1.5-1.5 3.6-2.4 5.7-2.4Zm0-.5c-4.7 0-8.6 3.8-8.7 8.5 0 4.7 3.8 8.6 8.5 8.7h.2c4.7 0 8.6-3.8 8.6-8.6 0-4.7-3.8-8.6-8.6-8.6"/><path class="cls-1" d="M22.8 15c.6-.6 1.4-1.1 2.2-1.5.8-.3 1.6-.5 2.5-.6h.4v6.7c-.3 0-.5.3-.6.6h-6.5q0-.9.3-1.8c.3-1.2 1-2.3 1.9-3.2v4.1q0 .3.3.3c.1 0 .3 0 .3-.2v-3.7s0-.1.1-.1h.5v3.7s0 .2.1.2c.2.1.4 0 .5-.2 0-.2 0-.3.1-.5v-3.3c0-.1 0-.1.1-.1h.2c.2 0 .3 0 .3.3v3.2c0 .2 0 .4.1.6 0 0 0 .1.1.1.3 0 .5 0 .4-.4 0-.2-.1-.4-.1-.6v-.2c0-.2 0-.4-.1-.6v-2.2s0-.2.1-.2h.4c.1 0 .1 0 .1.2v3.5c0 .2.1.2.2.2.2 0 .3 0 .4-.2v-.7c0-.3 0-.5-.1-.8v-2.5s0-.2-.1-.2-.3-.1-.4-.1h-1.1v-.3c0-.1 0-.2-.1-.3h-.4c-.1 0-.1 0-.2.2v.3s0 .2-.2.2h-1.6Zm5.5 6.4V28h.8c.3 0 .6-.1.9-.2 1.2-.3 2.3-.9 3.2-1.8v-.2l-.3-.3c-.1-.1-.1-.3-.2-.4 0-.2 0-.5-.1-.7 0-.3-.1-.6-.1-.8v-1.9s-.2-.1-.2 0v4.6c-.2.2-.5 0-.5-.2v-5.2c0-.1.1-.2.2-.1h1.5s.1 0 .2.1v.2c0 .2 0 .3-.2.3h-.4v.5c.1.3 0 .6.2.8v.4c0 .2.1.5.1.7v.2c.1.3.1.6.3.9 0 0 0 .1.1.2h.1c.4-.4.8-.9 1-1.5.6-1 .9-2.2.9-3.3h-6.6v.2h1.9v5.3h-.4s-.2 0-.2-.1v-4.6s0-.1-.2-.1l-.1.1v4.3c0 .1-.1.2-.2.4h-.2c-.1 0-.2 0-.2-.2v-.1c0-.2.1-.5.2-.7v-1.3c0-.2.1-.5.1-.8v-1.5c0-.2 0-.2-.2-.2h-.2q-.3 0-.3-.3h-.3Zm-4.4-.7h-3.5v.4c0 .4 0 .7.2 1.1.1.5.3 1 .5 1.5.3.5.6 1.1 1 1.5 0 0 .1.2.2.2V23s0-.1.1-.1H27v3.3h-.3c-.1 0-.2 0-.2-.2v-2.7h-3.4c-.1 0-.1 0-.2.2v1.7c0 .1 0 .3-.1.4l.2.2c1.3 1.2 3 1.8 4.8 1.9v-6.6c-.3 0-.5-.3-.6-.6h-1.5c-.5 0 0 0 0 0s.1.2.2.2c-.1 0-.2.2-.4.3v.1c.1 0 .2.2.3.3h.6-.5v-.2s.1-.1.2-.1h.4c.1 0 .1 0 .1-.2v-.2c0-.1 0-.2.2-.2h.1c.1 0 .2 0 .3.2v1.7h-1.4s-.1.1-.2.1-.2 0-.3-.1c0 0-.2-.1-.3-.1 0 0-.2 0-.2.1-.1 0-.3.1-.4.1s-.2-.1-.3-.2c0 0 0-.2.1-.3h.1v-.2l-.1-.1c-.1-.1-.2-.3 0-.5l.2-.2s-.2-.2-.3-.2-.1-.1 0-.2l.2-.2h-.2Zm1.4 4.8s-.1 0-.1.1v.5c0 .1 0 .2-.2.2h-1.5c-.1 0-.2 0-.2-.2v-.2h.8c.2 0 .2-.2.1-.3h-1.1c-.1 0-.2 0-.2-.2v-1.1c0-.1 0-.2.2-.2h.1c.1 0 .2.1.2.2v.6c0 .1.1.2.3.2h.3s.1 0 .1-.1c0 0 0-.1-.1-.2-.2-.1-.3-.2-.3-.4s0-.3.1-.4h1.4v.2c0 .1-.1.2-.2.4v.1l-.1.1h.5l.1-.1v-.6s0-.1.1-.2h.1c.1 0 .2 0 .2.2v.9c0 .2 0 .3-.3.3h-.8ZM23 22.2s0 .1.1.1h.5c.1 0 .2 0 .2.2 0 .1 0 .2-.2.3h-.9q-.15 0-.3-.3v-1.6c0-.2 0-.2.2-.2h.3v.1c0 .1 0 0 0 0 0 .2 0 .2.2.2h.5c.1 0 .2.2.2.3 0 0 0 .1-.2.1h-.7.8v.2s0 .1-.1.1h-.7Zm10-7.4v.9s0 .2-.1.2h-3.3c-.2 0-.2 0-.2.2 0 .1 0 .1.1.1h3.9c.2 0 .2 0 .3.2v3.1s0 .2-.2.2h-.1c-.1 0-.3 0-.3-.3v-2.7c0-.1 0-.2-.2-.2h-4.1c-.1 0-.2 0-.2-.2v-1c0-.2 0-.2.2-.3h3.5v-.2h-3.6v-.3s0-.1.1-.1h3.9c-1.1-.8-2.3-1.3-3.7-1.4h-.5v6.6c.3 0 .5.3.6.6h6.7v-.6c-.1-1.1-.5-2.1-1-3-.4-.7-1-1.4-1.6-1.9v.1Zm-.5 4.2v.4s-.1.2-.2.2h-3.4s-.2 0-.2-.2c0-.1-.1-.2-.1-.4v-1.8c0-.1 0-.2.2-.2h3.5c.2 0 .3.2.3.4v1.7Zm-6.2 3.4H26c-.1 0-.2 0-.3-.2 0 0-.2.1-.2.2v.1s.1 0 .2.1h.1s.1-.1.2-.1h.5Zm-2-1.7c.1.1.2.2.4.3h.2s.1 0 .2-.1c0 0 .1 0 .2-.1h-1Zm.5 1s-.1 0-.1.1c0 0 0 .1.2.1s.1 0 .1-.1c0 0 0-.1-.2-.1m-.1 2.8v-.1s-.1 0 0 0Zm4.5-5.8c.1-.2.3-.3.4-.5v-.1c-.1 0-.2-.1-.4-.2v.7Zm1.2.2s0-.1.1-.2v-.2h-.1l-.3.3v.1h.2c.1 0 .2 0 .3-.2Zm.4-1.3-.2.2v.1h.4c0-.1 0-.2.1-.3v-.1h-.3Zm1.2.6v-.4c0 .1-.2.3-.3.4l.2.1h.1v-.2Zm-.5.8s-.2-.1-.3-.1h-.1v.2h.4Zm-1.8-1.5s.1 0 .2.1h.2-.3Zm-1.3 3c0 .2-.2.4-.4.4s-.4-.2-.4-.4.2-.4.4-.4.4.2.4.4m18.2 7.8c0-.1 0-.2-.2-.2h-.2V28c0-.1 0 0 0 0h.8l.2.3s.1.2.2.2l1.9 2.4v-2.7c0-.1 0-.2-.2-.2h-.2v-.1c0-.1 0 0 .1 0h1.2-.1c-.1 0-.2 0-.3.2v3.3h-.2l-.4-.6-1.9-2.5V31c0 .1 0 .2.2.2h.2-1.2.1c.1 0 .2 0 .3-.2v-2.8Zm4.1 0c.3-.3.8-.5 1.4-.5s1.1.2 1.3.5c.3.3.4.8.4 1.5s-.1 1.1-.4 1.4-.8.5-1.4.5-1-.2-1.3-.5-.4-.8-.4-1.4.1-1.1.4-1.4Zm.4 2.8c.2.3.5.4 1 .4s.8-.1 1-.4.3-.7.3-1.3 0-1-.3-1.3c-.2-.3-.5-.4-1-.4-.8 0-1.3.6-1.3 1.7s0 1 .3 1.3m3.6-2.6c0-.2 0-.3-.2-.4h-.2V28c0-.1 0 0 0 0h1.8c.3 0 .6 0 .7.2.2.1.2.3.2.6q0 .9-.9.9l.8 1.2s.1.1.1.2.2.2.3.3v.1h-.7v-.2c-.2-.1-.2-.2-.3-.4l-.5-.7c-.2-.3-.3-.4-.3-.5H55V31c0 .2 0 .3.2.4h.2v.1h-1.3.2c.2 0 .2-.1.2-.4v-2.5Zm.5 1h.3c.4 0 .6 0 .8-.2.2-.1.2-.3.2-.6s0-.5-.2-.6c-.1 0-.3-.1-.6-.1h-.5v1.4Zm3.2-1.4H58l-.2.4v.2h-.3V28c0-.2 0-.2.1-.2h3.1v.8h-.2c0-.3 0-.5-.2-.5h-.9V31c0 .2 0 .3.3.4h.3v.1h-1.3.3c.2 0 .3-.1.3-.4v-2.9h-.5Zm3.1.4c0-.2 0-.3-.2-.4h-.2s-.1 0-.1-.1h1.3-.2c-.2 0-.2.1-.2.4v1h1.9v-1c0-.2 0-.3-.2-.4h-.2s-.1 0-.1-.1h1.4-.2c-.2 0-.2.1-.2.4v2.5c0 .2 0 .3.2.4h.3v.1h-1.3.2c.2 0 .2-.1.2-.4v-1.3H62v1.3c0 .2 0 .3.2.4h.3v.1h-1.3.2c.2 0 .2-.1.2-.4v-2.5Zm4.2.3c-.1-.5-.3-.7-.4-.7V28c0-.1 0 0 0 0h1.2-.1c-.1 0-.2 0-.2.2v.4l.6 2.3.8-3h.3l.1.1v.4c0 .3.2.7.3 1.1 0 .2.1.5.2.7l.2.8c.1-.4.2-.7.3-1.1l.2-.8c0-.4.1-.7.1-.8s0-.2-.2-.2V28c0-.1 0 0 0 0h.8c-.1 0-.2.2-.3.5-.3.9-.5 1.8-.7 2.7 0 .2 0 .3-.1.3h-.3l-.1-.1v-.5l-.4-1.5c0-.4-.2-.7-.3-1.1l-.6 2.2c0 .2-.1.4-.2.6 0 .3-.1.5-.2.5h-.3l-.7-2.7Zm5.1-.3c0-.2 0-.3-.2-.4h-.2V28c0-.1 0 0 0 0H73v.8h-.3v-.3c0-.1-.1-.2-.2-.3h-1.1v1.5h.8s.1-.1.1-.3v-.2h.2v1.3h-.2c0-.3 0-.4-.1-.5h-.8v1.6h1c.3 0 .5-.2.6-.5v-.2c0-.2 0-.2.2-.2h.1v.8s0 .1-.1.1h-2.6.2c.2 0 .2-.1.2-.4v-2.5Zm2.9 2h.2v.1c0 .5.3.8.8.8s.9-.3.9-.8-.2-.6-.6-.7c0 0-.2 0-.3-.1h-.1c-.2 0-.3-.1-.4-.2-.3-.2-.4-.5-.4-.8q0-.9 1.2-.9c1.2 0 .6 0 .9.1v.8h-.1c-.1 0-.2-.1-.2-.3s0-.3-.2-.4c-.1-.1-.3-.2-.5-.2-.5 0-.8.2-.8.6s.2.5.5.6c0 0 .2 0 .3.1h.1c.2 0 .3.1.4.2.4.2.5.5.5.9 0 .8-.5 1.1-1.4 1.1H74c-.2 0-.3 0-.5-.1 0 0-.1 0-.1-.1v-.8Zm4.4-2.4h-.9l-.2.4v.2h-.3V28c0-.2 0-.2.1-.2h3v.8h-.2c0-.3 0-.5-.2-.5h-.9V31c0 .2 0 .3.3.4h.3v.1h-1.3.3c.2 0 .3-.1.3-.4v-2.9Zm4.1.4c0-.2 0-.3-.2-.4h-.2V28c0-.1 0 0 0 0h1.3-.3c-.2 0-.2.1-.2.4v1.9c0 .4 0 .7.2.9s.4.2.8.2c.8 0 1.1-.4 1.1-1.1v-2q0-.3-.3-.3h-.1v-.1c0-.1 0 0 0 0h1.2-.1c-.2 0-.3.3-.3.8v1.9c0 .2-.2.4-.3.5-.2.2-.6.3-1.1.3s-.9 0-1.1-.3c-.2-.2-.3-.5-.3-1v-1.9Zm4-.2c0-.1 0-.2-.2-.2h-.2s-.1 0-.1-.1h.8l.2.3.2.2 1.9 2.4v-2.7c0-.1 0-.2-.2-.2h-.2v-.1c0-.1 0 0 .1 0h1.2-.1c-.1 0-.2 0-.3.2v3.3h-.2l-.4-.6-1.9-2.5V31c0 .1 0 .2.2.2h.2-1.3.1c.1 0 .2 0 .3-.2v-2.8Zm4.2.2c0-.2 0-.3-.2-.4H90V28c0-.1 0 0 0 0h1.3-.2c-.2 0-.2.1-.2.4v2.5c0 .2 0 .3.2.4h.2v.1H90h.3c.2 0 .2-.1.2-.4v-2.5Zm3.2 2.3c.1-.3.2-.5.3-.8s.2-.6.3-.8c.2-.5.2-.7.2-.8s0-.2-.2-.2h-.1v-.1c0-.1 0 0 0 0h1.1-.1s-.2 0-.2.2c0 0 0 .2-.1.3l-.7 1.9q-.3.75-.3.9c0 .2-.1.3-.1.3h-.3v-.1l-.2-.7-.6-1.8c0-.2-.2-.4-.2-.6s-.2-.3-.3-.3H92s-.1 0-.1-.1 0 0 .1 0h1.2-.2c-.1 0-.2 0-.2.2s.3 1 1 2.7v-.3h.1Zm2.2-2.3c0-.2 0-.3-.2-.4h-.2s-.1 0-.1-.1 0 0 .1 0H98v.8h-.3v-.3c0-.1-.1-.2-.2-.3h-1.1v1.5h.8s.1-.1.1-.3v-.2h.2v1.3h-.2c0-.3 0-.4-.1-.5h-.8v1.6h1c.3 0 .5-.2.6-.5v-.2c0-.2 0-.2.2-.2h.1v.8s0 .1-.1.1h-2.7.3c.2 0 .2-.1.2-.4v-2.5Zm3.2 0c0-.2 0-.3-.2-.4h-.2s-.1 0-.1-.1h1.8c.4 0 .6 0 .7.2.2.1.2.3.2.6q0 .9-.9.9l.8 1.2s.1.1.1.2.2.2.3.3v.1h-.7v-.2c-.2-.1-.2-.3-.3-.4l-.5-.7c-.2-.3-.3-.4-.3-.5h-.4V31c0 .2 0 .3.2.4h.3v.1h-1.4.2c.2 0 .2-.1.2-.4v-2.5Zm.5 1h.3c.4 0 .6 0 .8-.2.2-.1.2-.3.2-.6s0-.5-.2-.6c-.1 0-.3-.1-.6-.1h-.5v1.4Zm2.7 1h.2v.1c0 .5.3.8.8.8s.9-.3.9-.8-.2-.6-.6-.7c0 0-.2 0-.3-.1h-.1c-.1 0-.3 0-.4-.2-.3-.2-.4-.5-.4-.8q0-.9 1.2-.9c1.2 0 .6 0 .9.1v.8h-.1c-.1 0-.2-.1-.2-.3s0-.3-.2-.4c-.1-.1-.3-.2-.5-.2-.5 0-.8.2-.8.6s.2.5.5.6c0 0 .2 0 .3.1h.1c.2 0 .3.1.4.2.4.2.5.5.5.9 0 .8-.5 1.1-1.4 1.1h-.5c-.2 0-.3 0-.5-.1 0 0-.1 0-.1-.1v-.8Zm3.6-2c0-.2 0-.3-.2-.4h-.2s-.1 0-.1-.1h1.3-.2c-.2 0-.2.1-.2.4v2.5c0 .2 0 .3.2.4h.2v.1h-1.3.3c.2 0 .2-.1.2-.4zm2.1-.4h-.4l-.2.4v.2h-.3V28c0-.2 0-.2.1-.2h3v.8h-.2c0-.3 0-.5-.2-.5h-.9V31c0 .2 0 .3.3.4h.3s0 .1-.1.1H108h.3c.2 0 .3-.1.3-.4v-2.9h-.5Zm4.1 2s0-.2-.1-.4c0 0-.1-.2-.2-.3l-.5-.7c0-.1-.1-.2-.2-.3q-.15-.3-.3-.3h-.1s-.1 0-.1-.1 0 0 .1 0h1.4-.2c-.1 0-.2 0-.2.2s0 .2.1.3l.7 1.2c.1-.2.3-.4.4-.6 0-.1.2-.3.2-.5.1-.2.2-.4.2-.5 0 0 0-.1-.2-.1v-.1c0-.1 0 0 0 0h1-.1c-.1 0-.2 0-.3.2 0 .1-.2.2-.2.4l-.6 1s0 .1-.1.2v1.1c0 .2 0 .3.2.4h.3s0 .1-.1.1h-1.4.3c.2 0 .2-.1.2-.4V30Zm-6.1-5.9h-.2c-.3 0-.4-.2-.3-.5 0-.2 0-.4.3-.4.4 0 .7-.3 1.1-.4.2 0 .5-.1.7-.2.2 0 .4-.2.5-.3.2-.2.3-.4.2-.6v-.4q0-.15-.3-.3h-.7c-.2 0-.4 0-.6.1-.2 0-.4.2-.6.3h-.4c-.1 0-.2-.1-.2-.2s0-.3.2-.4l.6-.6c.1-.1.3-.2.4-.3.2 0 .3-.1.5-.2s.4-.3.3-.5v-2.1c.1-.5.3-.9.4-1.4v-.7c0-.1 0-.2-.2-.3h-.6c-.3 0-.6.2-.9.3l-.9.3c-.1 0-.2 0-.3.1-.2.1-.5.3-.7.4s-.5.3-.7.5c-.1.1-.3.2-.4.3h-.4c-.1 0-.2-.1-.2-.3v-.5s0-.2.1-.3c.2-.5.6-.7 1.1-.7h.5c.1 0 0 0 0 0q.3 0 .6-.3s.1 0 .2-.1c.3-.2.7-.4 1-.5.3 0 .7-.1 1.1-.2.2 0 .5 0 .7-.2.1 0 .2-.2.4-.2.1 0 .3-.1.4-.1 0 0 .2 0 .2-.1h.9c.3 0 .6.3.8.5s.2.4.2.7c0 .4-.3.8-.6 1-.2.2-.4.3-.6.4-.1.1-.3.2-.4.4-.3.4-.5.8-.6 1.3v.4c.1.3.3.5.4.7 0 0 .1.1.2 0 .4 0 .8 0 1.1-.1h.2l1.2.3c.1 0 .2 0 .3.1h.5c.4 0 .8.1 1.1.4 0 0 .1.2.2.3 0 .3-.1.4-.2.5-.2.1-.3.2-.5.2q-.6 0-1.2.3c-.3.2-.7.2-1.1.1h-.6c-.2 0-.2 0-.2.3v1.8c0 .2 0 .4-.3.5-.4.2-.8.3-1.1.5h-2.8ZM113 9.4c-.1 0-.3.2-.4.3h-.6c-.3-.1-.7 0-1.1 0-.1 0-.3 0-.4.1-.2 0-.5.1-.8 0-.2 0-.3-.1-.5-.2l-.2.2c-.1.1-.3.2-.5.2s-.3 0-.4.2c0 .2-.1.4-.1.6s0 .3.2.3c.3.1.6.2 1 .2 0 0 .2 0 .2-.1 0 0 0-.1.1-.2.3-.2.6-.2.9-.2h-.1c0 .1-.2.2-.3.3-.1 0-.2.2-.3.3s-.2.2-.2.4c0 .3 0 .4.4.4.2 0 .3-.1.4-.2.2-.2.4-.2.6-.3h.3c.3 0 .6-.1.8-.3.1 0 .2-.1.4-.1q.3 0 .6-.3s.2-.2.3-.2l.6-.6v-.3c0-.2-.2-.4-.4-.4h-.2Zm-6.4 2.1c0-.1-.1-.2-.1-.3v-.5c0-.3 0-.5-.2-.7 0-.2-.2-.3-.4-.4h-.4c-.1 0-.2.1-.2.2v1.6c0 .1 0 .2-.1.3v.6c.1.5.7.9 1.2.8.3 0 .4-.2.5-.5v-.3c0-.3 0-.6-.2-.9Zm-15.8-.3v-.8c.1-.1.2-.1.4 0 .1 0 .2 0 .3.2.2.2.5.3.7.5.2.1.4.3.5.5.2.2.2.5.3.7v.5c0 .2 0 .4.2.4.3 0 .6 0 .8-.3 0 0 .1-.1.2-.1 0 0 .1 0 .2-.1.4.1.6.6.4 1 0 0 0 .1-.2.2-.3.2-.5.4-.8.7 0 0-.2.2-.3.2-.3 0-.5.2-.7.4s-.4.3-.5.5c0 0-.1.2-.1.3v.2c0 .2-.1.4-.3.5-.1.1-.3.2-.4.3 0 0-.1.2-.2.3 0 .2-.1.4-.2.6 0 .2-.2.4-.4.5-.3.2-.5.4-.6.7 0 .3-.2.5-.4.8-.2.2-.3.5-.4.7 0 0-.1.2-.2.2-.3.2-.6.5-.8.8-.1.1-.2.3-.4.4-.1 0-.3.1-.4.1-.3 0-.4-.4-.4-.6 0-.1.1-.2.2-.3 0 0 0-.1.1-.2.2-.2.4-.5.5-.8.2-.4.4-.7.7-1.1.2-.4.4-.7.6-1.1 0-.2 0-.3.1-.5 0-.3.1-.5.2-.8v-.1s-.2-.1-.3-.2c-.3-.2-.7-.4-.9-.7-.2-.2-.2-.5-.2-.8 0 0 0-.1.1-.1h.7c.4 0 .7 0 1.1-.2.3-.2.5-.4.6-.8v-2.1Zm2.4 11.5s0 .1.1.1h.4l.9-.6c.2-.1.4-.2.6-.2h.4c.3 0 .5 0 .7-.3.3-.2.3-.5.1-.8s-.3-.6-.4-.9v-.2c0-.2-.3-.4-.5-.4s-.3-.1-.5-.2c-.2 0-.3-.1-.5-.2-.2-.2-.4-.3-.6-.4-.3-.2-.7-.3-1.1-.3-.1 0-.2 0-.3.2v1.1c0 .1 0 .2.1.2.4 0 .7.2.8.7V23ZM73 16.2v.6c0 .2 0 .4-.1.5 0 .2-.1.3-.2.5v.2c.1-.1.3 0 .4 0v.8c0 .3-.2.6-.5.8-.4.3-.7.6-.9 1-.1.2-.3.4-.4.6-.2.3-.5.5-.8.7-.2.1-.4.3-.6.5s-.4.4-.7.5h-.4c-.2 0-.4.1-.7.2-.4 0-.7 0-.9-.4-.1-.2-.2-.4-.2-.6s0-.4.2-.5c.2-.2.4-.3.7-.3h.1c.3 0 .6-.2.8-.3.4-.2.7-.4 1-.7.2-.2.4-.4.4-.6.1-.5.3-.9.5-1.3v-.1H70c-.2 0-.4-.2-.4-.3 0-.2-.1-.4-.2-.6 0-.3 0-.6.1-.9v-.2c0-.1.2-.2.3-.1.1 0 .2 0 .3.1h.4c.2 0 .3-.1.4-.3v-2.2c.1-.5.4-.9.8-1.2h.2c.2 0 .3 0 .3.3s.2.5.3.8v.6c0 .4 0 .8.1 1.1v.7Zm4.9-2.6c-.2-.6-.7-.8-1.3-1v1.1c0 .7-.1 1.4-.2 2.1v3.1c0 .3.1.6.4.8.1.1.2.2.4.3.3.3.7.5 1.1.7h.6c.6-.2 1.1-.5 1.5-1.1.1-.2.2-.4.4-.6.1-.2.3-.4.5-.5 0-.3-.3-.5-.5-.5h-.5c-.5.1-.9.3-1.3.6 0 0-.1.1-.2.1-.2.1-.4 0-.6-.2v-1.7c-.1-.3-.2-.7-.2-1s0-.5.1-.8c0-.3.1-.5.2-.8v-.6Zm1.8-2.2v.5c0 .2.1.4.2.6.1.3.2.6.2.9v.3q0 .1.2.2h.7c.4-.2.8-.5 1-.9 0 0 .1-.2.1-.3v-.4s-.2-.2-.3-.2h-.1c-.3-.1-.6-.2-.9-.4h-1.2ZM46 19.2v-.1c0-.3.2-.6.4-.8.2 0 .3 0 .4.1.2.2.4.3.5.5.2.3.4.5.7.8.2.2.4.5.4.8s.2.5.3.8c0 .2.2.5.2.7s0 .4-.1.5c-.2.4-.6.6-1 .6-.5 0-.9-.1-1.3-.5q-.3-.3-.3-.6v-.2c.1-.3 0-.6 0-.9-.1-.4-.2-.7-.2-1.1v-.5Zm8 4.8c.4 0 .7 0 1-.4.2-.2.4-.3.6-.4.1 0 .2-.1.3-.2.2-.2.5-.4.7-.5.1 0 .2-.2.3-.3 0-.1.2-.3.3-.4v-.7s0-.2.1-.3v-.4l-.2-.2s-.1-.2-.2-.3v-.2h.4c.5 0 .9-.2 1.4-.3.4-.1.7-.2 1-.5.5-.4.9-.8 1.3-1.2.1-.1.3-.3.4-.5.2-.4.4-.7.8-1v-.1s.1-.2.1-.3c0-.3 0-.6.1-.8v-.8c0-.3-.2-.5-.4-.6-.2 0-.4-.2-.5-.4-.1-.1-.3-.2-.5-.2h-2.4q-.6 0-1.2.3h-.2c-.3 0-.5.1-.8.1s-.5.1-.8.3c-.1 0-.2.2-.3.3 0 0-.2.1-.2.2-.4.2-.9.3-1.3.6-.1 0-.3.1-.5 0h-.8c-.2 0-.4 0-.5-.1-.1 0-.2-.1-.4-.2-.2 0-.5 0-.6.2q-.3.3-.3.6c-.2.5-.3 1-.4 1.6 0 .3 0 .6.1.9v.9s.1 0 .1.2v.9c0 .3.1.7.4.8h.4s.2-.1.3-.2c.5-.4.8-1 .9-1.6v-.5c0-.3.2-.5.4-.7 0-.1.2-.2.4-.2s.5 0 .7-.1c.1 0 .2 0 .1.1-.2.6-.5 1.2-.8 1.8-.2.4-.5.7-.8 1-.2.3-.4.5-.5.9-.1.3-.3.7-.5 1 0 .1-.1.2-.2.4 0 .3 0 .5.3.6h1.2c.1 0 .1 0 .1.2v.3q0 .3.3.3h.5Zm5.4-7.1c-.2.3-.4.6-.7.8-.1.2-.3.3-.5.4-.5.2-.9.5-1.4.8 0 0-.1.2-.1.3v.5c0 .2 0 .2-.3.2h-.6c-.3.1-.6.3-.9.5-.2 0-.4-.2-.3-.5 0-.2.1-.3.2-.5.2-.2.4-.4.7-.6.2-.2.3-.3.4-.6 0-.1.1-.3.2-.4 0-.2.1-.4.2-.6 0-.7.5-1.2 1-1.6.3-.2.7-.4 1.1-.6.3-.1.7-.3 1-.4h.2c.3 0 .4.2.4.5q0 .9-.6 1.8m-5.7-7.2H53c-.2.1-.4.3-.5.5-.1.1-.2.3-.2.4 0 .2 0 .4-.2.5q0 .45.3.6c.1.1.3.2.5.2h1.3c.3 0 .6 0 .9-.3.2-.2.3-.3.4-.5 0-.2.2-.3.4-.4.1 0 .2-.2.2-.4 0-.1 0-.2-.1-.3-.2-.3-.5-.5-.8-.6H55l-.1.1h-.1c-.3-.1-.6-.1-.9-.1Z"/></g></svg>