<svg xmlns="http://www.w3.org/2000/svg" viewBox="0 0 128 46.9"><defs><style>.cls-1,.cls-2{fill:#fff;fill-rule:evenodd}.cls-2{fill:#273b92}</style></defs><g id="_图层_1" data-name="图层_1"><path class="cls-2" d="M68.9 15c-.2-.2-.3-.5-.5-.7-.5-.4-.3-.6 0-.9.2-.1.3-.2.5-.2.5-.2.5-.6.5-1s-.3-.5-.7-.5c-.3 0-.6-.3-.9-.5-.2-.1-.3-.4-.5-.5-.5-.4-1.1-.6-1.6-.3s-.5 1-.4 1.5c.1.6-.2.9-.7 1.1-.6.2-1.2.5-1.7.8-.2 0-.3.4-.4.6 0 .6.9 1.4 1.7 1.2.4 0 .7-.3 1.1-.4-.1.2-.3.4-.5.5-.7.3-1.3.6-2 .9-.2 0-.4.4-.4.5 0 .2.3.5.5.5h2.2c-1 .8-2.1 1.4-3.2 2.1-1.4.9-2.7 1.8-4.1 2.6-.6.4-1.3.7-1.9 1-.4.2-.7.6-.4 1.1.6 1 1.2 1.4 2.2.7 1.8-1.4 3.5-2.8 5.2-4.2.3-.3.6-.6.9-.8h.2c-.3 1.3-.8 2.4-1 3.6-.2.8-.1 1.6-.1 2.4 0 .2.2.6.5.7s.7.2 1 0c.2 0 .3-.5.3-.7v-2.3c.2.1.3.3.5.3.3 0 .7.1.9 0 .1 0 .1-.6 0-.8 0-.2-.3-.3-.5-.5-.2-.1-.4-.2-.7-.4.7-.2 1.3 0 1.4-.8.1-.7-.4-1-.9-1.3.3 0 .6-.2.9 0 .2 0 .2.4.3.6v2.7c0 1.1 0 2.1-1.3 2.4v.5c.7.2 1.3.4 2 .4.6 0 .8-.3.8-.9v-5.1c0-.5.2-.9.2-1.4 0-.3 0-.7-.1-.9-.2-.2-.6-.2-.8-.1-.4 0-.8.3-1.1.5v-.2c.9-.7 2-1.4 3-2 .4-.2.9-.4.7-1-.2-.7-.4-.8-1.2-.7Zm24.6 7c.6.8 1 1.7 1.6 2.4.3.4.7.7 1.1.9.3.1.7.2 1 0 .5-.2 1-.6 1.4-1 .2-.2.3-.6.4-.9-.3-.1-.5-.3-.8-.3-.8 0-1.7 0-2.4-.5-.6-.4-1.2-.8-1.7-1.2-.6-.4-.5-.6.1-1 .9-.4 1.8-.9 2.7-1.3.4-.2.5-.6.4-1-.1-.5-.6-.6-1-.6s-.6.2-.8.5c-.4.3-.6.7-1 1 0 0-.4.1-.4 0 0 0-.1-.3-.1-.4.2-1.2.3-2.5.5-3.7.2-1-.2-1.8-.8-2.4-.2-.2-.6-.3-.9-.3-.2 0-.3.5-.3.8 0 2-.1 3.9-.2 5.9 0 .2 0 .5-.1.7 0 .2-.2.4-.4.4-.7.3-1.3.7-2.1.5-.5-.1-.8.2-.7.8 0 .3.2.5.4.7.6.7 1.2.7 1.9 0 .2-.2.4-.3.7-.5-.2 1.4-1 2.4-2.2 2.1-.4-.1-.9-.2-1.1.4-.1.5.3.9.9 1.1 1.1.3 2.2 0 2.9-1 .4-.6.7-1.3 1.1-2Z"/><path class="cls-2" d="M68.9 15c.8-.1 1 0 1.2.7.2.6-.3.7-.7 1-1.1.7-2.1 1.4-3.2 2v.2c.5-.2.9-.4 1.3-.5.3 0 .7 0 .8.1.2.2.2.6.1.9 0 .5-.2.9-.2 1.4v5.1c0 .6-.3.9-.8.9-.7 0-1.4-.3-2-.4v-.5c1.4-.3 1.4-1.3 1.3-2.4v-2.7c0-.2 0-.6-.3-.6-.2-.1-.6 0-.9 0 .5.4 1 .6.9 1.3s-.8.6-1.4.8c.3.2.5.3.7.4s.5.3.5.5.1.7 0 .8c-.2.1-.6 0-.9 0-.1 0-.3-.2-.5-.3V26c0 .3-.2.7-.3.7h-1c-.2-.1-.4-.5-.5-.7 0-.8 0-1.6.1-2.4.3-1.2.7-2.3 1-3.5h-.2c-.3.2-.6.5-.9.7-1.7 1.4-3.4 2.8-5.2 4.2-1 .8-1.6.3-2.2-.7-.3-.4 0-.8.4-1.1.6-.4 1.3-.7 2-1 1.4-.8 2.8-1.7 4.1-2.6 1.1-.7 2.1-1.3 3.2-2.1h-2.2c-.2 0-.4-.3-.5-.5 0-.2.2-.5.4-.5.7-.3 1.3-.6 2-.9.2 0 .4-.3.5-.5-.4.1-.7.3-1.1.4-.7.2-1.7-.6-1.7-1.2 0-.2.2-.5.4-.6.6-.3 1.1-.6 1.7-.8.5-.2.8-.5.7-1.1s-.2-1.2.4-1.5c.5-.3 1.1-.1 1.6.3.2.2.3.4.5.5.3.2.6.5.9.5.4 0 .7.1.7.5s0 .8-.5 1c-.2 0-.4.1-.5.2-.3.2-.6.5 0 .9.2.2.3.4.5.7Zm39.6.1v-.3c-.3-.4-.6-.3-.9 0v.4h.9Zm2.9 2.5c-.6-.3-2.5.9-3.1 1.8zm-2.9.1c-1.4 0-1.9 1.2-2.7 2 .5 0 2.7-1.6 2.7-2m.9-.8v.2c.3 0 .6 0 .7-.2.6-.9 1.3-1.8 1.8-2.7 0 0-.1-.5-.3-.5-.5-.2-1.2.4-1.1.9.3.8-.2 1.2-.6 1.7-.2.2-.4.4-.6.7Zm-1.5 2.6c-.7.6-1.3 1.3-2 1.9-.5.4-.9.9-1.6.9-.4 0-.8 0-1-.5s0-.9.3-1.2c.8-.8 1.6-1.5 2.4-2.3-.4-.3-.8-.5-.9-.8-.2-.3 0-.8 0-1.2v-.9c0-.3.2-.5.3-.8.3.2.6.3.8.5.2.1.2.4.4.5 0-1.1.1-2.3-1-3.1-.2-.1-.1-.6-.2-1 .3 0 .7-.2.9 0 .5.3.9.8 1.3 1.1.2.2.6.4.8.3s.5-.5.5-.8c.1-1 .3-1.3 1.1-1.3.7 0 1.1.6 1 1.6.4-.2.7-.4 1-.6.7-.4 1.5 0 1.5.8s-.2 1.6-.9 2.1c-.6.5-.5.6 0 .9 1 .5 1 .9.3 1.6-.5.5-.9 1.2-1.7 1.2 0 0-.2.2-.3.4-.3.6-.6 1.1-.9 1.8h.3c.9-.2 2 .6 2 1.5 0 .2-.4.6-.7.6h-1.8c-.5 0-.6.1-.6.5v3.2c0 .2 0 .5-.1.7s-.3.5-.5.5-.5-.2-.7-.3c-.4-.3-.8-.7-1.2-1.1-.2-.2-.5-.3-.7-.5-.3-.3-.9-.5-.5-1 .3-.4.7 0 1.1.2.3.2.7.2 1 .1.2 0 .3-.6.3-.9v-.6c0-.5-.3-.7-.8-.4-.7.4-1.3.8-2 1.1-.3.2-.7.2-1.1.1-.2 0-.4-.5-.3-.7.2-.4.5-.8.9-1 .7-.4 1.4-.6 2.1-.9.5-.2 1-.6 1.4-.9-.3-.2-.6-.4-.7-.7 0-.3.2-.6.4-.9l-.1-.1Zm-26.1 1.4-.6.4c.2.1.4.3.5.3.2 0 .3-.3.5-.4-.1 0-.3-.2-.4-.3m0-4.4c.4-.2.7-.3 1-.4 0 0 .2-.2.1-.3 0 0-.2-.2-.3-.2q-.75 0-.9.9Zm-.2 5.9c-1.1 0-2.8.6-2.9 1.1 1.3.1 2.7-.4 2.9-1.1m-6.8 2.2c.7-.3.9-.9 1.1-1.5.2-.5.3-1.2.4-1.7.5-1.8 1.2-3.4 3.1-4.2.5-.2.9-1.1 1.2-1.7.6-1.2 1.4-1.5 2.5-.8.4.2.7.3 1.1 0 .5-.3 1-.1 1.3.3.2.3.2.6-.2.8-1.1.5-2.2 1.1-3.3 1.6-.1 0-.2.1-.3.2-.3.4 0 1.7.4 2l.6.3c.5.3 1.1.5 1 1.3 0 .2.3.5.5.6.6.5.7 1.3.3 2-.6.9-1.5 1.3-2.5 1.7-.1 0-.3 0-.5-.1 0-.2 0-.4.2-.5.6-.4 1.2-.8 1.5-1.5 0-.2.2-.5.1-.7 0-.3-.3-.5-.7-.2l-.8.8c-.7.7-1.6.9-2.5.8-.7 0-1.4 0-2.2-.1-.5 0-.6-.5-.3-.8.5-.5 1.1-1 1.8-1.4.5-.3.8-.5.8-1.2 0-.5 0-1.1.1-1.8-.3.3-.5.6-.8.8-.2.1-.5.3-.7.2-.5-.3-.6 0-.8.3-.3.9-.6 1.8-.9 2.8s-.7 2-1.1 3c-.2.5-1.3.7-1.9.4-.5-.3-.7-.7-.3-1.4.9-1.7 1-3.5 1.1-5.3v-1.7c0-.5.3-.8.8-.7.6 0 1.3.7 1.2 1.3-.1.9-.4 1.7-.7 2.6-.2.9-.5 1.7-.7 2.6v.6ZM93.5 22c-.4.7-.7 1.4-1.1 2-.7 1.1-1.7 1.2-2.9 1-.6-.1-1-.6-.9-1.1.2-.6.7-.5 1.1-.4 1.2.4 2.1-.6 2.2-2-.3.2-.5.4-.7.5-.6.6-1.3.6-1.9 0-.2-.2-.3-.5-.4-.7-.1-.5.1-.9.7-.8.8.2 1.4-.2 2.1-.5.2 0 .3-.2.4-.4 0-.2.1-.5.1-.7 0-2 0-3.9.2-5.9 0-.3.2-.7.3-.8.3 0 .7 0 .9.3.6.7 1 1.4.8 2.4-.2 1.2-.4 2.5-.5 3.7 0 .1 0 .4.1.4h.4c.3-.3.6-.7 1-1 .2-.2.5-.5.8-.5.4 0 .8.1 1 .6.1.4 0 .8-.4 1-.9.5-1.8.9-2.7 1.3-.7.3-.7.5-.1 1 .6.4 1.1.8 1.7 1.2.7.5 1.6.4 2.4.5.3 0 .5.2.8.3-.1.3-.2.7-.4.9-.4.4-.9.7-1.4 1-.3.1-.7.1-1 0-.4-.2-.8-.5-1.1-.9-.6-.8-1.1-1.6-1.6-2.4ZM58.4 35.9h.1c0 .2.1.3.1.4 0 0 0 .1.1.2 0 0 .1 0 .2.1h.5s.2 0 .2-.2v.2c0 .2-.2.3-.3.3-.2.1-.4.1-.7 0 0 0-.1 0-.2-.1 0 0-.2-.1-.2-.2-.1-.1-.2-.3-.3-.4l-.2-.3c-.5 0-.8-.2-1.1-.5-.2-.3-.4-.8-.4-1.4s0-.8.2-1.1c.1-.3.3-.5.6-.7.2-.2.5-.2.8-.2s.6 0 .9.2c.2.2.4.4.5.7s.2.7.2 1.1 0 1-.3 1.3c-.2.3-.5.6-.8.7Zm-1.4-2c0 .6 0 1 .3 1.4.2.3.4.5.8.5s.4 0 .5-.2c.1-.1.3-.3.3-.6s.1-.6.1-.9 0-.8-.1-1c0-.3-.2-.5-.4-.6-.1-.1-.3-.2-.5-.2s-.3 0-.4.1c-.1 0-.2.2-.3.3 0 .2-.1.3-.2.5v.7Zm4.1 1.3v.4h.2c0 .1-1.2.1-1.2.1.1-.2.2-.2.2-.2v-3.4h-.2c0-.1 1.2-.1 1.2-.1 0 .2-.1.2-.2.2v2.9Zm3.4-.8.3.6v-2.6h-.2c0-.1 1-.1 1-.1 0 .2-.1.2-.2.2v3.6H65l-1.6-2.7c0-.2-.2-.3-.2-.4 0 0 0-.2-.1-.2v3h.2c0 .1-1.1.1-1.1.1.1-.2.2-.2.2-.2v-3.4h-.2c0-.1.9-.1.9-.1l1.4 2.4Zm4.5 1.5h-.2l-.2-.2c-.1 0-.3.1-.4.2h-.5c-.5 0-.9-.2-1.1-.5s-.4-.8-.4-1.5 0-.8.2-1.1c.1-.3.3-.6.6-.7.3-.2.6-.2.9-.2.4 0 .7 0 1.1.1v.8h-.3c0-.1-.1-.3-.2-.4 0 0-.2-.2-.3-.2h-.4c-.2 0-.4 0-.6.2-.2.1-.3.3-.4.6 0 .3-.1.6-.1 1s0 .7.1 1c0 .3.2.5.3.6s.3.2.5.2.4 0 .5-.2.2-.3.2-.5v-.8s-.1 0-.2-.1c0-.1 1.2-.1 1.2-.1 0 .2-.1.2-.2.2v1.6Zm3.9-.7v.4h.2c0 .1-1.2.1-1.2.1 0-.2.2-.2.2-.2v-1.7h-1.6v1.6h.2c0 .1-1.2.1-1.2.1.1-.2.2-.2.2-.2v-3.4h-.2c0-.1 1.2-.1 1.2-.1 0 .2-.1.2-.2.2v1.4h1.6V32h-.2c0-.1 1.2-.1 1.2-.1 0 .2-.2.2-.2.2v3Zm3 .8c0-.2.1-.2.2-.2h.1v-1.1h-1.5v.3c-.1.1-.2.2-.2.3v.5c0 .1.1 0 .3.1 0 .1-1.2.1-1.2.1.1-.2.2-.2.3-.3 0-.1.2-.3.2-.5l1.2-3.2h.5l1 3.2c0 .2 0 .3.1.3 0 0 0 .1.1.2h.2c0 .1-1.3.1-1.3.1Zm-1.1-1.6H76l-.6-1.9-.7 1.9Zm3.7.8v.4h.2c0 .1-1.2.1-1.2.1.1-.2.2-.2.2-.2v-3.4h-.2c0-.1 1.2-.1 1.2-.1 0 .2-.1.2-.2.2v2.9Zm6.6-.6v.5c0 .1 0 .3-.2.4 0 .1-.2.2-.3.3l-.4.2h-1.1c-.2 0-.3-.1-.4-.3-.1-.1-.2-.3-.2-.4v-2.9h-.2c0-.1 1.2-.1 1.2-.1 0 .2-.2.2-.2.2v3.1c0 .1 0 .2.2.3 0 0 .2.1.3.2h.8c.1 0 .2-.1.3-.2 0-.1.1-.2.1-.4v-2.8h-.2c0-.1 1.2-.1 1.2-.1 0 .2-.2.2-.2.2v2.4Zm3.2-.2.3.6v-2.6h-.2c0-.1 1-.1 1-.1 0 .2-.1.2-.2.2v3.6h-.4l-1.6-2.7c0-.2-.2-.3-.2-.4 0 0 0-.2-.1-.2v3h.2c0 .1-1.1.1-1.1.1.1-.2.2-.2.2-.2v-3.4H86c0-.1.9-.1.9-.1l1.4 2.4Zm2.6.8v.4h.2c0 .1-1.2.1-1.2.1.1-.2.2-.2.2-.2v-3.4h-.2c0-.1 1.2-.1 1.2-.1 0 .2-.1.2-.2.2v2.9ZM93 32c0 .2-.1.2-.2.2h-.1v.7l.7 2.4.8-2.4v-.7c0-.1-.1 0-.3-.1 0-.1 1.2-.1 1.2-.1 0 .2-.1.2-.2.2 0 0-.1.1-.1.2l-.2.4-1.2 3.2H93l-1-3.2c0-.1 0-.3-.1-.4 0 0 0-.1-.1-.2h-.2c0-.1 1.3-.1 1.3-.1Zm5.3 0v.9H98v-.4l-.1-.1h-1.2v1.5h.8l.1-.1v-.3h.3v1.1h-.3v-.3l-.1-.1h-.8v1.7H98l.1-.2v-.5h.3v1h-2.7c.1-.2.2-.2.2-.2v-3.4h-.2c0-.1 2.7-.1 2.7-.1Zm1.5 2.2v1.4h.2c0 .1-1.2.1-1.2.1.1-.2.2-.2.2-.2v-3.4h-.2c0-.1 1.4-.1 1.4-.1.5 0 .8 0 1 .2s.3.4.3.8 0 .5-.2.7c-.1.2-.4.3-.7.4.1 0 .2.1.3.2 0 0 .2.2.3.4l.3.5c0 .1.1.2.2.3l.2.2h.2c0 .1-.8.1-.8.1 0-.1-.1-.2-.2-.3 0-.1-.1-.2-.2-.4l-.3-.5c0-.1-.1-.2-.2-.3 0 0 0-.1-.1-.1h-.6Zm0-1.9V34h.7c.2 0 .4-.2.5-.4v-.9c0-.1-.2-.2-.3-.3h-.9Zm3 2.8c0 .2 0 .3.2.4 0 0 .2.2.3.2h.4c.2 0 .4 0 .5-.2.1-.1.2-.3.2-.5v-.4c0-.1-.1-.2-.2-.3-.2-.1-.3-.2-.5-.3-.2 0-.4-.2-.5-.3-.1 0-.2-.2-.3-.3V33c0-.2 0-.4.2-.6.1-.2.3-.3.4-.4.2 0 .4-.1.7-.1h.4c.1 0 .3 0 .5.1v.8h-.3c0-.2 0-.3-.2-.4 0 0-.1-.2-.2-.2h-.7s-.2.1-.2.2v.6s.1.2.2.3c.1 0 .3.2.5.3l.6.3c.1.1.2.2.3.4 0 .1.1.3.1.5v.5c0 .1-.1.3-.3.3-.1 0-.3.2-.4.2h-.5c-.3 0-.7 0-1-.2v-.8h.3Zm3.6.1v.4h.2c0 .1-1.2.1-1.2.1 0-.2.2-.2.2-.2v-3.4h-.2c0-.1 1.2-.1 1.2-.1 0 .2-.1.2-.2.2v2.9Zm.9-3.2h3.1v1h-.3c0-.1 0-.3-.1-.4 0 0 0-.2-.1-.2l-.2-.1h-.6v3.5h.3c0 .1-1.3.1-1.3.1 0-.2.1-.2.2-.2h.1v-3.4h-.6s-.1 0-.2.1c0 0-.1.1-.1.2s0 .2-.1.4h-.3v-1Zm4.7 2.3-.8-1.5c0-.1-.1-.3-.2-.4 0 0 0-.1-.2-.2h-.2c0-.1 1.2-.1 1.2-.1-.2.2-.3.2-.3.4v.2s0 .2.1.3l.6 1.1.6-1c0-.1.1-.2.2-.3v-.4h-.2c0-.1 1.1-.1 1.1-.1 0 .2-.1.2-.2.3l-.2.2c0 .1-.2.3-.3.4l-.8 1.4V36h.3c0 .1-1.3.1-1.3.1 0-.2.1-.2.2-.2h.1v-1.4ZM74.5 14.9c0-.2-.1-.3-.2-.5-.1-.4 0-.6.5-.6.7 0 1.9 1.2 2 1.9 0 .6-.3.9-.8.7q-1.2-.3-1.5-1.5"/><path class="cls-1" d="M44.7 23.3c0 7.2-5.8 13.1-13.1 13.1s-13.1-5.8-13.1-13.1 5.8-13.1 13.1-13.1S44.7 16 44.7 23.3"/><path class="cls-2" d="M24 24.4h5.8s1 .5 1.4 1.5h-4.9s0-.8-2.3-1.5m2.7 2.4h4.9s.3.9.6 1.2h-4.9s-.2-.9-.5-1.2Zm9.3-1.6h7.4s0 .8-.3 1.6h-7.7s.5-.9.6-1.6m-.9 2.2h7.8s-.1.6-.7 1.6h-8.5s.9-.8 1.3-1.6Zm-7.4 1.7h5.4s.6.6 1.2.6h7.5s-.5.9-1.1 1.5H30.6s-2.1-.2-3-2.1Z"/><path d="M36.1 24.3h5.7v-1c0-5.6-4.6-10.2-10.2-10.2s-10.2 4.6-10.2 10.2v1.1-.9c0-4.1 3.3-7.3 7.3-7.3 4.1 0 7.3 3.3 7.3 7.3v.8Z" style="fill-rule:evenodd;fill:#cb242b"/><path class="cls-2" d="M30.7 32.1c-1.7-.1-2.5-.8-2.8-1.3-3.3-.4-6-3-6.4-6.3.6 5.1 4.9 9.1 10.2 9.1s3.6-.5 5.2-1.4h-6Z"/><path class="cls-1" d="M31.8 10.8c-6.9 0-12.5 5.6-12.5 12.5s5.6 12.5 12.5 12.5 12.5-5.6 12.5-12.5-5.6-12.5-12.5-12.5m0 30c-9.7 0-17.6-7.9-17.6-17.6S22.1 5.7 31.8 5.7s17.6 7.9 17.6 17.6-7.9 17.6-17.6 17.6Z"/><path class="cls-2" d="M31.8 11c-6.8 0-12.3 5.5-12.3 12.3S25 35.6 31.8 35.6s12.3-5.5 12.3-12.3S38.6 11 31.8 11m0 24.9c-7 0-12.7-5.7-12.7-12.7s5.7-12.7 12.7-12.7 12.7 5.7 12.7 12.7-5.7 12.7-12.7 12.7m0-30c-9.6 0-17.4 7.8-17.4 17.4s7.8 17.4 17.4 17.4 17.4-7.8 17.4-17.4S41.3 5.9 31.8 5.9m0 35.1C22 41 14 33 14 23.2S22 5.5 31.8 5.5s17.8 8 17.8 17.8-8 17.8-17.8 17.8Z"/><path class="cls-2" d="M19.6 13c.1-.2.2-.2.3-.1.2 0 0 .2 0 .3 0 .3 0 .7-.1 1v-.3l.2-.2s.1 0 .2.1c0 0 .2.2.2.3.3.3.7.6 1 .9.1 0 .1.2 0 .3s-.3.2-.4.3c.2-.3 0-.5-.3-.7-.2-.1-.4-.3-.5-.5H20s-.1.1-.1.2h.4c.1.1 0 .3 0 .4h.4s.2 0 .2.1c0 0 0 .1-.1.2h-.1c.2.1.3.3.5.4 0 0 .1.1 0 .2 0 0-.1.2-.2.2h-.2c-.2-.1-.3-.3-.5-.4-.2-.3-.4-.5-.5-.8V17c0 .3-.2.4-.5.3-.1 0-.2-.1-.2-.3s0-.4.1-.6c0-.4.1-.9.2-1.3 0-.3 0-.7.1-1v.1c0 .1-.2.2-.3.3H19v-.2c0-.2.1-.4.2-.6v-.2c0 .1 0 .2-.1.3 0 .2-.4.3-.5.1v-.2c0-.2 0-.3.1-.5 0-.1 0-.2-.1-.3-.1 0-.3-.2-.2-.3 0-.2.2-.2.3-.3h.4s.1-.1.2 0c0 0 .2.1.1.3v.1c0 .1 0 .2.2.2h.2Zm25.6 1.2c0-.2 0-.2-.1-.2l.2.2Zm-.1.9c0-.2-.6-.4-.9-.4l.8.4Zm-.2-.5s0 .2.1.2h.9v-.1c0-.1-.3-.2-.4 0s-.3.2-.5.1h-.2Zm-.8.1c-.2 0-.5 0-.7-.1-.2 0-.3 0-.4-.2 0 0-.1-.2 0-.3 0-.1.2-.1.3-.1.3 0 .6.1.8.2v-.3s.2-.1.2-.2c0 0 .1 0 .2-.1h.2v.4c.2-.2.5-.3.5-.7l.2-.2s.1.1.1.2v.7h.2c.2-.1.3-.1.4 0 0 .2 0 .3-.2.5.1 0 .2 0 .3.1.2 0 .2.3 0 .4s-.4.2-.6.1c-.2 0-.2 0-.2.2 0 .3 0 .3-.3.3-.2 0-.4 0-.5-.2H44c.2.2.2.5 0 .7h-.2c-.1-.1-.2-.2-.3-.4 0-.1-.1 0-.2 0-.2.2-.5.3-.7.5h-.4v-.8c0-.1 0-.3.1-.3s.1.1.1.3c0 0 0 .2.1.2h.3c.1 0 0-.2 0-.2-.2 0-.4-.2-.5-.3 0 0-.2-.1-.2-.2v-.2h.3c.2 0 .3.2.5.3.1 0 .3.1.4.2V15h.2Zm-7.4-4.9c-.2.1-.3.2-.5.3-.3.2-.5.1-.8 0-.1 0-.2-.3 0-.3.1-.1.2 0 .3 0 .3.2.6 0 .8-.2h-.2c-.2 0-.4 0-.4-.2v-.2c0-.1.1-.2.2-.1.2.1.4.1.6.1h.1s0-.1.1-.2c.2-.5.5-.9.7-1.4 0 0 .1-.2.2-.1 0 0 .2 0 .2.2v.7c-.2.3-.4.5-.5.8v.1h.1c.1 0 .2 0 .3-.1h.2s.2.1.2.3c0 .1 0 .2-.2.2h-.8c-.2 0-.2 0-.1.2 0 .2.2.3.3.5s.3.3.5.4l.2.2-.2.2h-.4s-.2 0-.2-.1c0 0-.1-.2-.2-.3 0-.2 0-.5-.1-.8Zm-8.6-1.2v.2zH28Zm-.4-1.1s.2-.1.2-.2c-.1 0-.2.1-.1.3Zm.5 1.5c-.3 0-.6.4-.6.6.3 0 .6-.3.6-.6m-1.4 1.2c.1-.1.1-.3.1-.5v-.5c0-.5 0-.9.4-1.3.1-.1.1-.3.1-.5 0-.3.2-.5.5-.4h.3c0-.1.2-.1.3 0 0 0 .1.1 0 .2l-.7.7c0 .1.1.4.3.5h.2c.2 0 .3 0 .4.2 0 0 .1 0 .2.1.2 0 .3.3.3.5 0 .3-.3.5-.5.7h-.1v-.1c.1-.2.2-.3.2-.5v-.2h-.2s0 .2-.1.3c0 .2-.3.4-.5.4s-.4.1-.5.2c-.1 0-.2 0-.2-.2s.2-.3.3-.5c0-.1.1-.2 0-.4 0-.1 0-.3-.1-.5 0 .1 0 .2-.1.3l-.1.1c-.1 0-.2 0-.2.2v1.7c0 .2-.2.3-.4.3-.1 0-.2-.1-.2-.3 0-.5 0-1-.2-1.4 0-.1-.1-.3-.2-.4 0-.1 0-.2.1-.3.2 0 .4 0 .4.2v1.5Zm-1-2.4v-.1c0-.1 0-.2.1-.2.2 0 .5.3.5.5s0 .2-.2.2-.4-.2-.4-.4m-7.6 17.8c0-.3-.2-.4-.4-.5h-1.1c-.4 0-.7.2-.8.3-.2.1-.2.4-.2.6s.2.4.4.5h.8c.6-.1 1-.2 1.1-.4.2-.1.2-.3.2-.6ZM15 27.1h-.1v-.8c0-.2.3-.3.5-.4 0-.3.1-.5.3-.8.2-.2.5-.4.9-.4h.6c.2 0 .3 0 .5.2.2 0 .3.2.4.3.2.3.2.6.2.9 0 .1-.1.3-.2.4s-.2.3-.4.3-.3.2-.5.2h-1q-.45-.15-.6-.6c-.2 0-.4.1-.5.2s0 .3 0 .5Zm1.1.9.1.3 2.4-.8v-.3c-.1 0 0 0 0 0l.4 1-.1-.3-2.4.8v.3c.1 0 0 0 0 0zm.7 1.9.1.2 2.2-1.2v-.3c-.1 0 0 0 0 0l.4.7-1.2 1.9 1.6-.9V30c-.1 0 0 0 0 0l.4.7-.1-.2-2.3 1.3 1.6-2.7-2.2 1.2v.3c.1 0 0 0 0 0l-.4-.6Zm3.3 3.3.7.8-.2-.1c-.2.2-.5.3-.7.2-.2 0-.5-.2-.7-.4q-.3-.45-.3-.9t.6-.9c.2-.1.3-.2.5-.3h1q.45.15.6.6v.3h.2l-.5.4c.1-.2.2-.4.2-.6s0-.4-.2-.5c-.2-.2-.4-.3-.6-.2-.2 0-.5.2-.9.5-.3.3-.6.5-.6.8 0 .2 0 .4.1.6s.3.3.4.3.3 0 .5-.2l-.2-.4Zm.6 2.1.2.1 1.5-2-.2-.2.8.5-.2-.1-.7.9.9.7.7-.9-.2-.2.8.5-.2-.1-1.5 2 .2.2-.8-.5.2.1.8-1-.9-.7-.8 1 .2.2zm4 1.4.6.3.2-1.1zm-1.2.6h.3l2-2-.4 2.8h.3v.2l-.9-.5h.3v-.9c.1 0-.6-.3-.6-.3l-.6.6.3.2-.7-.3Zm2.9 1.4h.3l.8-2.4h-.3v-.2l1 .3h-.3l-.8 2.4h.3v.2zm2.3-.1.3-1.9h-.3v-.1l1 .2c0 .1-.3 0-.3 0l-.3 1.9v.5c0 .1.2.2.4.2s.4 0 .5-.1q.15-.15.3-.6l.3-1.7h-.3v-.1h.7v.2h-.3l-.3 1.7c0 .3-.2.5-.3.7s-.4.2-.7.1q-.45 0-.6-.3c-.1-.2-.2-.3-.1-.6Zm2.9 1.1c0-.1.3-.1.3-.1v-2.5h-.4c0-.1.8-.1.8-.1l1.2 1.9v-1.8h-.4c0-.1.7-.1.7-.1 0 .1-.3.1-.3.1v2.7c.1 0 0 0 0 0l-1.7-2.5v2.4h.4c0 .1-.7.1-.7.1Zm3.2-.3.3-.2-.5-2.4h-.3l1.1-.2-.3.2.5 2.4h.3zm2.9-.7-1.8-2.2h-.3c0 .1 0 0 0 0l1-.4-.3.2 1.3 1.6v-2.1l-.4.1.7-.4-.3.2v2.8Zm1.9-.9.3-.2-1.3-2.1-.3.2 1.7-1.1.3.6c-.1-.1-.3-.2-.4-.2s-.3 0-.5.2l-.4.3.6 1c.2-.1.2-.2.3-.3v-.4l.5.8c-.1-.1-.2-.2-.3-.2s-.2 0-.4.1.6 1.1.6 1.1l.5-.3c.2-.1.3-.2.3-.4v-.6l.4.6-1.8 1.1Zm2.1-3.3.2-.2c.2-.2.3-.3.3-.5 0-.1 0-.3-.2-.4-.1-.1-.3-.2-.4-.2s-.2 0-.4.2l-.3.2.7.8Zm.5 1.5.2-.2-1.7-1.8-.2.2.8-.8c.2-.2.4-.3.6-.4.2 0 .3 0 .5.2.1.1.2.3.1.5 0 .2-.1.4-.3.5.2 0 .3-.1.5-.1s.3 0 .4.1l.2.2.2.2h.2v-.1c0 .1 0 .2-.1.3l-.1.1c-.1.1-.3.2-.4.1-.2 0-.3-.2-.5-.4-.1-.2-.3-.2-.4-.2H42s-.2 0-.2.1l-.2.2.9 1 .2-.2-.8.8Zm2.5-2.2-.6-.4h.6c.2 0 .3-.1.4-.3.1-.1.2-.3.2-.5s0-.3-.2-.4-.4 0-.8.2c-.3.2-.5.4-.7.4s-.3 0-.5-.2c-.2-.1-.3-.3-.3-.5s0-.4.2-.6c.1-.1.2-.2.4-.3V31l.5.4h-.5c-.2 0-.3.1-.4.3 0 .1-.1.3-.1.4s0 .3.2.3h.3c.1 0 .2 0 .4-.2h.1c.3-.3.4-.4.6-.4h.3c.1 0 .2 0 .3.2.2.2.3.4.4.6 0 .2 0 .5-.2.7-.1.2-.3.3-.5.3s0 .2 0 .2Zm1.4-2 .2-.3-2.2-1.2-.2.3.5-1-.2.4 2.2 1.2.2-.3-.6 1Zm1.1-2.1.1-.4-2.3-.9v.5c0 .1.2.3.4.4l-.7-.2.8-1.9.7.3h-.6c-.1 0-.2.2-.3.4v.1l2.3.9v-.3h.2l-.4 1Zm.9-2.8v-.4l-1.1-.2-1.5.5v.3h-.2l.2-1.1v.4l1.3-.4-1-.9v.4h-.2l.2-.8v.3l1.2 1 1.1.2v-.3h.2l-.2 1.1Z"/></g></svg>