<svg width="128" height="137" fill="none" xmlns="http://www.w3.org/2000/svg"><g filter="url(#a)" fill-rule="evenodd" clip-rule="evenodd"><path d="M63.996 106.339h.008c11.307 0 21.937-4.404 29.932-12.4 7.998-7.997 12.403-18.63 12.403-29.938v-.008c-.001-11.305-4.405-21.935-12.4-29.931C85.942 26.065 75.31 21.66 64 21.66h-.009c-11.305 0-21.935 4.404-29.93 12.4-7.997 7.995-12.401 18.627-12.402 29.936v.01c.001 11.304 4.405 21.935 12.4 29.932 7.996 7.997 18.628 12.401 29.936 12.401Zm.008 1.661-.835-.01c-11.441-.21-22.168-4.764-30.282-12.879-8.112-8.114-12.667-18.838-12.878-30.276H20l-.002-1.66h.01c.208-11.444 4.763-22.173 12.88-30.289 8.113-8.112 18.835-12.666 30.274-12.877V20h1.66v.009c11.446.21 22.174 4.764 30.29 12.88 8.112 8.113 12.667 18.837 12.878 30.275h.008l.003 1.66h-.011c-.207 11.443-4.763 22.172-12.88 30.288-8.113 8.113-18.837 12.668-30.276 12.878v.007z" fill="#315064"/><path d="M26.175 67.032q.17.108.395.142.223.033.502-.006.574-.083.822-.375a.85.85 0 0 0 .19-.704.86.86 0 0 0-.38-.623q-.32-.215-.893-.133-.582.082-.834.378a.83.83 0 0 0-.197.685.8.8 0 0 0 .086.267q.105-.224.15-.443l.41.132a2.3 2.3 0 0 1-.25.68Zm-.301.593q-.142.27-.205.576l-.508-.18q.024-.158.082-.314.012-.034.232-.488a1.8 1.8 0 0 1-.245-.7q-.11-.767.28-1.264.388-.496 1.204-.612.812-.116 1.325.254.514.37.619 1.115.105.738-.286 1.235-.39.495-1.202.611a2.2 2.2 0 0 1-.773-.013 1.6 1.6 0 0 1-.523-.22m3.095 1.82-3.317.478-.096-.67 3.316-.479.097.67Zm-3.106 1.833 3.268-.74.145.643-1.88 1.83 2.182-.492.14.613-3.27.739-.149-.663 1.834-1.799L26 71.89l-.138-.612Zm2.663 5.105.533-.185.477 1.378-1.26.437a1.8 1.8 0 0 1-.544-.464 2.2 2.2 0 0 1-.416-.72 1.83 1.83 0 0 1-.092-.94q.081-.44.404-.76.323-.321.779-.479.495-.17.95-.097.458.074.8.403.264.249.421.703.204.59.072 1.007a1.18 1.18 0 0 1-.536.663l-.339-.593q.21-.149.281-.38a.8.8 0 0 0-.025-.508q-.144-.418-.496-.574t-.874.026q-.564.195-.759.544a.89.89 0 0 0-.054.754q.07.201.219.375.149.175.31.28l.402-.138zm2.659 2.49-2.003.956.217.455q.122.255.206.355.106.131.243.187.135.055.368.022a2.2 2.2 0 0 0 .583-.204q.352-.167.51-.318a.8.8 0 0 0 .21-.314.65.65 0 0 0 .007-.35 3 3 0 0 0-.21-.515zm.22-.855.533 1.117q.18.375.217.602.048.305-.061.59-.109.284-.353.522a2.5 2.5 0 0 1-.668.44 2.2 2.2 0 0 1-.687.214 1.5 1.5 0 0 1-.69-.07 1.2 1.2 0 0 1-.445-.313 2 2 0 0 1-.322-.51l-.548-1.15zm.899 5.978.817-1.046-1.296.267zm-.475 1.756-.386-.626.495-.65-.703-1.14-.793.164-.377-.61 3.537-.648.376.609-2.149 2.9Zm2.327.338q-.45.35-.519.738a.86.86 0 0 0 .179.706.85.85 0 0 0 .639.345q.39.025.848-.333.455-.354.522-.729.07-.372-.19-.703a.86.86 0 0 0-.64-.355q-.383-.025-.84.33Zm-.447-.535q.403-.316.772-.409a1.6 1.6 0 0 1 .554-.037q.282.03.504.156.298.165.549.488.456.585.367 1.217-.09.634-.734 1.137-.639.5-1.273.433-.632-.066-1.086-.647-.46-.591-.372-1.218.087-.63.719-1.12m3.877 6.861 1.878-2.055-.734-.67.383-.419 1.965 1.796-.382.419-.733-.67-1.878 2.055zm2.211 1.93 2.008-2.683 1.99 1.49-.34.453-1.447-1.084-.446.596 1.347 1.008-.338.45-1.346-1.007-.548.73 1.5 1.122-.339.452zm5.686 2.353.457.514q-.41.394-.848.443-.437.05-.902-.227-.572-.34-.709-.953-.135-.612.27-1.29.427-.72 1.036-.896.608-.177 1.213.184.528.314.672.823.086.302-.022.705l-.657-.204a.7.7 0 0 0-.002-.481.7.7 0 0 0-.316-.364.76.76 0 0 0-.657-.08q-.336.111-.643.626-.325.546-.267.894a.74.74 0 0 0 .373.536.68.68 0 0 0 .486.09q.255-.047.516-.32m1.203 2.053 1.391-3.049.616.28-.548 1.201 1.206.55.548-1.199.616.28-1.391 3.05-.616-.281.608-1.334-1.206-.55-.608 1.333zm3.888 1.681 1.049-3.183.625.206.603 2.555.699-2.125.597.196-1.047 3.183-.646-.213-.6-2.498-.683 2.076zm4.935-.28q-.115.557.081.898.198.341.594.423a.85.85 0 0 0 .71-.15q.313-.233.432-.803.116-.565-.073-.894a.86.86 0 0 0-.599-.413.86.86 0 0 0-.719.144q-.309.228-.426.795m-.688-.12q.105-.501.326-.81.162-.228.398-.387a1.3 1.3 0 0 1 .486-.207 1.8 1.8 0 0 1 .734.017q.725.15 1.067.69.342.541.175 1.342-.165.795-.69 1.154t-1.248.209q-.731-.152-1.071-.689t-.177-1.319m4.221 2.462.329-3.308.673.067-.273 2.746 1.674.166-.056.562zm4.222-1.376q.002.569.267.861a.85.85 0 0 0 .669.291q.404-.002.662-.295.258-.292.255-.875-.002-.577-.257-.858a.85.85 0 0 0-.672-.28.86.86 0 0 0-.673.29q-.255.287-.251.866m-.697.026q-.003-.512.148-.86a1.6 1.6 0 0 1 .31-.461 1.3 1.3 0 0 1 .432-.304q.312-.135.721-.136.741-.003 1.188.454t.45 1.275q.004.812-.435 1.272t-1.177.465q-.747.003-1.19-.451-.444-.454-.447-1.254m6.041.137-.067-.561 1.448-.174.159 1.326q-.186.23-.569.433a2.2 2.2 0 0 1-.792.253 1.8 1.8 0 0 1-.936-.11 1.4 1.4 0 0 1-.659-.556 2.04 2.04 0 0 1-.301-.863 1.9 1.9 0 0 1 .106-.95q.169-.429.564-.696.3-.204.776-.261.62-.075 1 .143.378.219.534.665l-.652.204a.7.7 0 0 0-.311-.354.8.8 0 0 0-.502-.084q-.44.052-.666.363-.227.31-.16.86.07.592.37.856.298.265.725.214.21-.026.413-.134t.34-.244l-.05-.422zm2.952-2.646.68 3.282-.663.137-.68-3.282zm3.794 1.188.688.015q.01.57-.252.923-.262.355-.779.507-.64.187-1.181-.129-.541-.317-.764-1.076-.235-.801.05-1.369.282-.565.959-.763.59-.173 1.061.067.28.142.502.496l-.597.342a.7.7 0 0 0-.354-.325.7.7 0 0 0-.482-.016.76.76 0 0 0-.505.427q-.147.323.02.896.18.611.475.805a.74.74 0 0 0 .646.091.67.67 0 0 0 .398-.295q.138-.219.115-.596m3.454-1.393-.905-.97.062 1.322zm1.66.744-.679.283-.563-.59-1.236.516.037.809-.662.277-.085-3.596.66-.275zm1.083-.553-1.587-2.92.595-.322 1.317 2.423L83.354 97l.27.496zm3.156-5.822.534-.416 1.116 1.432a4 4 0 0 0 .364.425q.161.136.367.134.205-.002.428-.176.228-.178.27-.36a.46.46 0 0 0-.039-.337 4 4 0 0 0-.326-.467l-1.14-1.461.533-.417 1.083 1.388q.37.476.48.706a.93.93 0 0 1 .1.456q-.01.226-.143.459a1.7 1.7 0 0 1-.446.476q-.378.296-.642.36a1.04 1.04 0 0 1-.486.014.9.9 0 0 1-.379-.176q-.228-.187-.574-.63zm5.426-.098-2.34-2.398.47-.46 2.545.643-1.563-1.601.45-.439 2.34 2.398-.485.474-2.493-.62 1.526 1.563zm.877-5.749 2.531 2.196-.443.511-2.531-2.196zm4.015.342-3.409-1.025.436-.59 2.499.789-1.509-2.132.427-.578 1.984 2.956zm1.835-2.627-2.89-1.697 1.258-2.142.489.286-.916 1.56.641.376.852-1.452.487.287-.852 1.45.787.461.947-1.613.487.286zm.504-4.963.206-.456q.199-.445.212-.571a.37.37 0 0 0-.052-.232.43.43 0 0 0-.201-.165.4.4 0 0 0-.286-.03.4.4 0 0 0-.225.178q-.044.071-.213.445l-.216.482zm1.487 1.41-3.057-1.373.584-1.3q.22-.49.402-.674a.77.77 0 0 1 .453-.225.97.97 0 0 1 .542.083.9.9 0 0 1 .477.458q.134.302.01.731.207-.146.406-.215a4 4 0 0 1 .654-.128l.764-.105-.332.738-.866.147a5 5 0 0 0-.595.124.54.54 0 0 0-.21.127q-.079.083-.174.296l-.056.125 1.275.574zm.595-4.157.142-.646q.334.046.538-.08.204-.124.299-.417.1-.312.02-.512a.41.41 0 0 0-.256-.257.32.32 0 0 0-.215.003.6.6 0 0 0-.212.187 9 9 0 0 0-.306.47q-.297.477-.55.625a.876.876 0 0 1-1.149-.2.9.9 0 0 1-.193-.502 1.7 1.7 0 0 1 .091-.664q.195-.6.557-.819a.98.98 0 0 1 .805-.09l-.18.653q-.26-.04-.41.062-.153.101-.24.373-.091.28-.028.477.041.127.165.166.113.037.225-.033.141-.09.404-.522.264-.435.455-.62a.93.93 0 0 1 .438-.248 1 1 0 0 1 .549.037.99.99 0 0 1 .68.865q.026.315-.109.731-.195.606-.58.838-.385.233-.94.123m-.878-5.086 3.26.772-.156.659-3.26-.773zm3.702-1.468-2.75-.432-.155.983-.56-.088.414-2.632.56.088-.155.98 2.751.434zm.411-3.791-1.396-.2-2.095.94.112-.784 1.424-.593-1.203-.953.11-.772 1.752 1.495 1.392.2zM34.625 39.674s0 .26.153.37c.154.109.25.09.414-.23s-.198-.81-.4-.781c-.203.03-.167.641-.167.641m-.894.232c-.591.214-.707.305-.941.114s-.292-.38-.092-.711.729-1.24.729-1.24.172-.212-.316-.61c-.487-.398-.653-1.063-.493-1.215.158-.153 1.258.754 1.313.904s.492-.561.492-.561.534.084.69.28c.157.2.335.24-.092.808.236.193.565.316.72.498.3.354.123.58.321.738.05.042.99-1.342 1.35-1.438.36-.094.632.655.261 1.023-.371.37-1.414 1.777-1.432 1.974-.02.196.084.633.084.633l1.07-1.568c.344-.505.583-.274 1.031.248.51.59 1.7 1.384 1.871 1.737s.49.788.301 1.234c-.186.447-.428.569-.428.569l-.845-.654s.311-.382.202-.506c-.11-.126-1.603-1.98-1.944-1.692s-.919 1.473-.547 1.495c0 0 .495-.868.76-.543.268.322.093.32.441.499.35.178.554.274.363.508-.19.234-.357.309-.578.234-.222-.075-.177-.392-.562-.352 0 0-.037.392.732.879.77.486.832.715.489.786-.342.075-1.165-.174-1.81-.77s-1.14-1.636-1.14-1.636-.242.297-.729 1.24-.743 1.3-.993 1.132c-.25-.17-.384-1.09.798-2.843-1.257-.272-.87-.63-1.076-1.194m11.463-9.558s.546-.273.65-.534c0 0 .487.145.593.72.105.577-.164.986-.472 1.133-.31.145-.559.136-.329-.231.23-.37.457-.553.283-.724-.173-.171-.47-.154-.585-.258-.116-.099-.14-.106-.14-.106m1.742 5.056-.166.11s.006.425-.123.678c-.13.254-.975.729-1.625.998s-.835-.49-.845-.85c-.01-.362-.117-.408.178-.77s.397-.131.492.083.039.488.198.708c.16.22.76-.103.76-.103s.022-.073-.123-.342.035-.466.035-.466.646-.124.867-.244c.223-.119.345-.572.736-.64.392-.067.523.29.356.585-.168.293-.74.253-.74.253m-.303-2.079s.839-.41.772-.762c-.067-.351-.3-.329-.687-.14 0 0-.217-.29.011-.433.23-.145.57-1.102.328-1.707-.244-.602-.417-.959-.553-1.252-.138-.293-.416-.469-1.014-.066-.599.404-.632.645-.963.825-.332.178-.211 1.01-.36 1.11-.15.102-.128-.237-.473-.194-.344.043-.5.168-.53 0s.688-.39 1.207-1.016c.518-.627.67-1.217.151-1.387-.52-.168-1.485.575-1.667 1.488s-.025 1.014.28 1.277-.191.328.237 1.24c.43.91 1.229 2.354 1.338 2.521.11.164.553.763 1.391.312.837-.452 2.212-1.498 2.61-1.629.398-.133.679.124.533.65-.144.527-.56.894-.715 1.019-.158.123-.503.126-.503.126s-.37.22-.177.544c.195.325.451.309.738-.03.288-.338.977-.953 1.22-1.37.245-.417.4-1.419-.11-1.836-.512-.42-1.001-.155-1.71.31-.71.462-1.98 1.247-2.202 1.326-.223.078-.4.092-.788-.82-.388-.913-.738-1.56-.745-1.801-.007-.242.077-.918.666-1.072 0 0-.131.437-.126.596.005.161.508.3.513.5.007.2-.073.773-.022.868s.385.221.594.27c.211.052-.249-.008-.103.568.146.573.859-.035.859-.035m13.541-8.369c.009-.051.228-.155.596-.282.366-.127.6-.249.752-.037.153.21.212.995.231 1.313.018.318-.562.903-.89.956-.33.053-.304-.205-.194-.357.11-.153.823-.438.6-.773-.224-.335-.724-.204-.855-.18-.132.019-.248-.587-.24-.64M56.19 28.14s-.415.354-.564.377c-.147.025-.235.41.039.332s.405-.1.614-.472c.163-.29.114-.56-.02-.642-.171-.104-.468.042-.42.224.087.323.35.18.35.18Zm.217-.95c.098-.015-.141-.348-.22-.52-.079-.174-.049-.296.046-.548.093-.252-.699.163-1.04.456-.34.292-1 .382-1.138.252-.14-.129.17-.923.28-1.076s.408-.084.827-.202c.42-.119 1.585-.934 1.965-.674.38.259.285.715.213.792-.072.08-.62.337-.727.61-.108.27.499.272.597 1.287.096 1.015-.48 1.515-.66 2.068-.179.553.227.352.41.238.184-.115.474-.72.775-.837s.255.634.14.857c-.117.22-.803.772-.937.878-.134.108-.08.436-.684.568-.602.13-.956-.59-1.018-.764s.196-.352.296-.774-.65.054-.995-.211c-.347-.264-.273-.85.189-1.534.462-.683 1.582-.848 1.68-.865Zm2.287 2.35c-.142.058-.082.215.209.556.292.341.81.427.663.552s-.366.55-.082.639c.284.09 1.275.063 2.084-.254.809-.318 1.016-.183.87-.867-.145-.689-1.176.02-1.274-.064-.098-.086-.092-.359.032-.63.124-.276-.03-1.112-.2-1.439 0 0 1.33-2.092 1.347-2.298.017-.204-.238-1.463-.404-1.76-.166-.29-.415-.472-.886-.26-.472.213-1.426.774-2.315.8-.89.026-1.238.27-1.22 1.009.02.74.25 1.953.587 2.05.336.098.78-.077.678-.6-.102-.525-.316-1.012-.234-1.23.083-.215.587-.651.766-.377s-.025.681-.004.913c.021.233.742.724.508.948s-.932.49-.88.599c.051.11.095.17.223.235.128.063.311.252.311.252s-.583.146-.575.399c.007.251.668.076.875.094.205.018.687-.027.457.533-.229.561-.66.699-1.004.57-.34-.131-.39-.427-.532-.37m12.405-3.248c.1-.085.008-.23-.119-.25s-1.32.029-1.706-.077c-.388-.107-.662-.73-.533-.81s5.05.218 5.29.257c.238.04.82.205.637.697-.181.49-.913.283-1.202.192-.289-.089-.456-.218-1.364.126-.908.342-1.16.822-.78.883s1.445.352 1.342.986c-.104.632-.255 1.027-.59 1.218-.334.19-.625.288-.669.382-.043.094.025.207.025.207s2.173.223 2.487.608c.313.383.17.909-1.407.652-1.575-.258-4.392-.53-5-.528s-.816-.22-.558-.741c.259-.522 1.909.08 3.4-.383 1.492-.466 1.415-1.143 1.044-1.348s-1.174-.062-1.26-.51c-.143-.543.862-1.477.963-1.561m15.049 6.388c.003.09-.337.21-.518.072-.183-.138-.416-.349-.41-.595.008-.245.707-.699.968-.502.261.198-.042.933-.04 1.025m-2.617.58c.032.147-.456 1.101-.194 1.961.264.859.65 2.026 1.13 2.388.478.36.828.321.988.44.16.122.447-.286.15-.743s-1.799-3.464-1.095-3.828c.384.06 1.435 1.103 1.9.845.462-.259.52-.502.514-.613-.005-.11-.37-1.333-.22-1.862s.24-1.642-.823-1.657c-1.06-.014-1.466 1.753-2.45.975-.984-.78-2.384-.39-1.662.71 0 0 .205.226.354.34.148.109-.355.303-.98.35-.624.047-1.662.05-1.994.37-.332.321-.087.47.682.587.772.117 1.943-.018 2.503-.168.559-.148 1.167-.244 1.197-.096Zm11.352 4.574c-.662.303-1.22.838-1.35.873-.13.033-.134.02-.254-.205s-.457-.524-.686-.498c-.23.025-1.639.46-1.505 1.093.134.632.543.618.751.537.117-.045.25-.193.342-.314.134-.17.187-.207.387-.14.257.084.668.303.795.564.166.349 2.316 2.893 2.148 3.244-.166.351-.63-.106-.437.68.193.785.972.244 1.14.146.169-.097.488-.506-.065-1.36 0 0 .571-.126.986-.126.415-.002 1.29-.455 1.376-1.011.085-.56-.432-.742-.66-.717s-.724-.101-.863-.255c-.138-.153-.41-.32-.044-.316.367 0 .493 0 .65-.093.154-.092-.138-.6-.386-.663-.247-.065-.706.066-.733-.003-.026-.07.225-.2.247-.35.043-.307-.287-.444-.479-.47-.279-.04-.488.134-.668.181-.131.035.007-.146.08-.285a.501.501 0 0 0-.772-.512m1.689 3.246s-.329.016-.402-.131c-.072-.147.395-.503.492-.54s.725.309.863.461c.139.153.133.346.035.416-.1.071-.98.476-.98.476-.227-.056-.008-.682-.008-.682m-.712-.234c-.234-.068-.5-.06-.669-.123-.168-.062-.411-.16-.352-.005.058.15.348.613.478.578s.562-.154.615-.222c.053-.07.161-.159-.072-.228m-.173-1.556c-.297.098-.847.28-1.07.366-.22.086-.487.507-.027.377.693-.196.453-.36 1.183-.189 0 0-.056.103-.322.157-.264.056-.422.1-.298.29.12.194.448.257.702-.032.254-.288.42-.56.345-.754-.076-.195-.218-.315-.513-.215m-1.01-.47s-.698.255-.834.356-.073.346.217.234c.291-.114.655-.365.663-.465.011-.098-.047-.124-.047-.124Zm-1.964 2.497c-.412-.571-.628-.633-.546-.919.08-.285.188-.502.66-.224.298.174.627.698.908 1.11.165.245.347.429.4.534.14.28.561.834.02 1.041-.54.21-.725-.354-.989-.332l-.082.033.262.678s.424.106.554.566c.13.458-.364.618-.686.201-.322-.416-.604-.863-.714-.854-.106.011-.599.218-.854.3-.255.084-.984.095-1.298.104-.315.012-1.229-.048-1.382-.275-.151-.228-.456-.524-.067-.708.392-.183.728-.138.728-.138l.265-.261s.47.597.794.488c.324-.11 1.145-.251.92-.58-.22-.327-.85-.722-1.266-1.054s-.436-.836.243-.892c.81-.066 1.001.928 1.562 1.297.321.214.78.473.78.473s.202-.015-.212-.588" fill="#315064"/><path d="M63.999 32.766c17.248 0 31.234 13.987 31.234 31.234S81.247 95.232 63.999 95.232c-17.247 0-31.233-13.985-31.233-31.232S46.752 32.766 64 32.766Z" fill="#315064"/><path d="M57.021 68.15h3.308c.343 0 .623-.261.623-.577v-1.154c0-.316-.28-.575-.623-.575h-7.975c-.343 0-.624.26-.624.575v1.154c0 .316.281.577.624.577h3.12v9.7h-3.12c-.343 0-.624.26-.624.577v1.153c0 .317.281.577.624.577h7.975c.343 0 .623-.26.623-.577v-1.153c0-.316-.28-.576-.623-.576H57.02zm1.876-15.395a.454.454 0 0 0-.453.451v.967c0 .25.204.453.453.453h.603a.454.454 0 0 0 .451-.453v-.967a.454.454 0 0 0-.451-.45h-.603Zm-2.963 0a.453.453 0 0 0-.45.451v.967c0 .25.202.453.45.453h.603c.25 0 .453-.204.453-.453v-.967a.454.454 0 0 0-.453-.45h-.603Zm2.963-4.053a.453.453 0 0 0-.453.452v.966c0 .25.204.453.453.453h.603a.454.454 0 0 0 .451-.453v-.966a.453.453 0 0 0-.451-.452zm-2.963 0a.453.453 0 0 0-.45.452v.966c0 .25.202.453.45.453h.603c.25 0 .453-.203.453-.453v-.966a.454.454 0 0 0-.453-.452zm2.56 8.318h2.711V46.105h-6.97V57.02h2.712v1.243h-2.711v6.657h1.152v-4.328h1.559v2.165h-.417c-.342 0-.623.26-.623.577v1.151c0 .317.28.577.623.577h2.38c.343 0 .624-.26.624-.577v-1.151c0-.317-.28-.577-.624-.577h-.417v-2.165h1.56v4.328h1.152v-6.657h-2.712zm13.856 8.203a.175.175 0 0 0-.176.174V66.8c0 .096.08.175.176.175h4.053a.177.177 0 0 0 .175-.175v-1.402a.175.175 0 0 0-.175-.174zm0-4.428a.176.176 0 0 0-.176.175v1.402c0 .096.08.175.176.175h4.053a.176.176 0 0 0 .175-.175V60.97a.176.176 0 0 0-.175-.176H72.35Zm-.176 19.499V69.469h4.22l-.064.192s-.047-.507-.047 5.954 2.992 13.192 2.992 13.192l5.983.068c-2.854-2.38-6.868-10.132-7.344-12.853-.103-.593-.063-2.426-.098-3.4a91 91 0 0 1-.056-3.153h.056V59.268c0-.571-.469-1.04-1.04-1.04h-4.86c-.572 0-1.041.467-1.041 1.04v21.026h1.3Zm-4.772-2.273h-3.343l1.672-1.925zm-4.649 2.285h5.954c.703 0 1.276-.573 1.276-1.276v-7.229h-1.53v4.703L66.4 74.448v-2.647h-1.34v2.647l-2.05 2.056v-4.703h-1.532v7.229c0 .703.574 1.276 1.275 1.276m20.694-41.047h-4.468s-2.85 3.36-2.927 7.277l.04.209h-1.618v-.55H73.18v.55h-2.21c-.342 0-.622.26-.622.576v1.153c0 .318.28.577.622.577h2.21v1.65h-2.21c-.342 0-.622.259-.622.576v1.152c0 .316.28.576.622.576h2.21v1.747h-2.21c-.342 0-.622.259-.622.575v1.153c0 .317.28.576.622.576h8.02v11.072a.34.34 0 0 0 .341.337h6.72a.34.34 0 0 0 .342-.337V57.651a.423.423 0 0 0-.423-.422h-3.384a.424.424 0 0 0-.423.422v6.924h1.458v-4.988c0-.044.035-.078.078-.078h1.395c.042 0 .077.034.077.078v6.636h-4.664V55.328c0-.317-.28-.576-.622-.576h-5.41v-1.747h2.541c.344 0 .625-.26.625-.576v-1.152c0-.317-.281-.577-.624-.577h-2.542v-1.649h2.541c.344 0 .625-.26.625-.577V47.32a.55.55 0 0 0-.136-.356q.104-.332.208-.746c.75-3.006 5.576-6.248 6.25-6.565.671-.317-.515-.395-.515-.395Zm-39.268 0s-1.186.078-.514.395 5.497 3.56 6.248 6.565c.183.728.366 1.254.542 1.633.065.143.128.25.187.33.076.215.348.376.614.376h.253v6.034h-3.594c-.343 0-.623.26-.623.577v10.894h-4.664v-6.636c0-.043.035-.077.078-.077h1.395c.043 0 .078.034.078.077v4.989h1.457v-6.924a.423.423 0 0 0-.424-.422H41.83a.423.423 0 0 0-.423.422V67.97a.34.34 0 0 0 .342.335h6.72a.34.34 0 0 0 .34-.335V56.898h2.701v5.628h-1.084c-.342 0-.623.26-.623.576v1.153l.001.036c.02.603.282 9.108-.178 11.731-.476 2.721-4.488 10.473-7.343 12.853l5.983-.068s2.993-6.733 2.993-13.192V64.832h1.82c.342 0 .622-.259.622-.577v-1.153c0-.315-.28-.576-.622-.576h-.274v-5.629h.274c.342 0 .622-.26.622-.576v-1.152c0-.318-.28-.577-.622-.577h-.274v-6.034h.274c.342 0 .622-.26.622-.576v-1.153c0-.317-.28-.578-.622-.578h-1.515c-.204-3.792-2.915-6.992-2.915-6.992zm7.083-.159h24.713c.342 0 .623.26.623.577v1.152c0 .318-.281.577-.623.577H54.133c-.302.368-.294.943-.213 1.416h8.624c.343 0 .623.26.623.576v6.14h4.898v-1H65.14a.686.686 0 0 1-.685-.685v-4.455c0-.317.28-.576.623-.576h9.72c.343 0 .623.26.623.576v1.152c0 .317-.28.577-.623.577h-8.985v1.16h3.335v8.4c0 .718-.298.76-.89.785-.671.032-1.677-.004-2.304-.004v.771l3.127.674c.504.108.777.669.63 1.161l-.133.448a.936.936 0 0 1-1.161.63l-4.022-1.235v-4.61a.35.35 0 0 1 .351-.35h3.318v-1.084h-4.898v6.644L69 60.248a.936.936 0 0 1 .63 1.16l-.133.45a.94.94 0 0 1-1.161.628L63.167 61v.952l5.915 1.715a.93.93 0 0 1 .666.832c.138.195.235.4.235.567v6.049h-1.53V67.18l-.035-1.275-4.254-1.123-.168.569 2.753.817c.492.147.775.67.628 1.161l-.132.449a.937.937 0 0 1-1.162.628l-2.75-.817-.223.756 3.054.909a.936.936 0 0 1 .63 1.162l-.133.447a.94.94 0 0 1-1.162.629l-4.228-1.466 1.821-5.98h-1.197V45.127h-8.644c-.343 0-.623-.26-.623-.577v-1.152c0-1.05-1.418-1.92-1.673-2.069l-.033-.017-.006-.004a.57.57 0 0 1-.277-.479v-1.152c0-.317.28-.577.623-.577m17.154 48.278q-.001 1.333 1.57 1.333 1.516-.103 1.647-1.204 0-.995-.915-1.255.863-.209.89-1.152-.106-1.045-1.57-1.177-1.494.053-1.57 1.308h1.02q.078-.547.55-.627.55.025.575.627.026.708-1.124.734v.652q1.098-.025 1.124.76-.052.654-.602.708-.55-.08-.574-.707zm-4.035.13q.054 1.177 1.543 1.203 1.57-.104 1.701-1.543-.026-1.543-1.413-1.597a1.17 1.17 0 0 0-.863.342l.053-1.232h1.96v-.653h-2.824l-.131 2.722.996.025q.154-.496.574-.523.603.052.655.837-.053.968-.68.996-.498-.028-.576-.578h-.995Zm-3.118-2.067q0-.837.654-.837.575.026.601.837-.026.76-.601.786-.655 0-.654-.786m-.968 2.066q.024 1.232 1.543 1.204.915-.001 1.335-.626.39-.604.366-2.095.026-2.094-1.675-2.067-1.543.105-1.65 1.57.131 1.284 1.388 1.414.524.025.916-.29.08 1.468-.707 1.468-.391-.001-.497-.578zm-3.669-1.883q.6-.234 1.099-.602v3.638h1.02v-4.632h-.942a7 7 0 0 1-1.177.681z" fill="#fff"/></g><defs><filter id="a" x="-13" y="0" width="154" height="157" filterUnits="userSpaceOnUse" color-interpolation-filters="sRGB"><feFlood flood-opacity="0" result="BackgroundImageFix"/><feColorMatrix in="SourceAlpha" values="0 0 0 0 0 0 0 0 0 0 0 0 0 0 0 0 0 0 127 0" result="hardAlpha"/><feOffset dy="16"/><feGaussianBlur stdDeviation="6.5"/><feColorMatrix values="0 0 0 0 0 0 0 0 0 0 0 0 0 0 0 0 0 0 0.03 0"/><feBlend in2="BackgroundImageFix" result="effect1_dropShadow_49_8783"/><feBlend in="SourceGraphic" in2="effect1_dropShadow_49_8783" result="shape"/></filter></defs></svg>