<svg xmlns="http://www.w3.org/2000/svg" viewBox="0 0 128 38.9"><defs><style>.cls-1{fill:#931f31;fill-rule:evenodd}</style></defs><g id="_图层_1" data-name="图层_1"><path class="cls-1" d="M93.1 10.6h.4v2.5h.9c0-.1 0 0 .1-.1H96v.3h-2.3v1s0 .1.2.2l.1.1s.1.2.2.2v.1h.1v.2s0 .1.1.1l.1.1v.1s0 .1.2.2h1.2v.3l-.1.1h-1.9l-.2-.2v-.2s0-.1-.1-.1v-.1s-.1-.2-.2-.2v-.5s0-.1-.1-.1v-1.3c-.2 0 .1 0 0 0h-.2s0 .1-.2.2v.2s0 .2-.1.2v2.4c0 .1-.1.2-.1.2l-.1.1h-1v-.2l.1-.1h.1s0-.1.1-.2v-2.4h-2.3v-.5h1.9V9.5c.2 0-.2 0 0 0Zm-9.6.1c.1 0 .2 0 .2.1v2.5h-2.3v3.8h.1s.1-.2.2-.2c0 0 0-.1.2-.2v-2.2h.6s.1 0 .2.1v.1s0 .1.1.1H84v.3h-.1v.1s0 .1-.1.1c0 0 0 .1-.1.1v.1h-.1v1.8h.7v-.1l.1-.1v-.9c.7.2-.7-.1 0 0v2.4l-.1.1-.1.1s0 .1-.2.2h-1.6s0-.1-.1-.1v-2.1H82v1.7l-.1.1h-.7v-7.4l.1-.1h.7c0 .1 0 0 .1.1h1.4v-1.1h-.9c-.2 0 .2 0 0 0V10l.1-.1h.4l.1-.1v-.1h1c0-.1 0 0 .1-.1.2 0-.2 0 0 0Zm-15.1.6h.1v3.9s-.1 0-.2.1h-.2l-.1.1h-.6v-2.1h.1V12l.1-.2s0-.2.1-.2v-.1l.1-.1h.1v-.1l.1-.1v-.3s0-.1.1-.1v-.2s0-.1.1-.1ZM42.1 9.9s-.2 0 0 0m6.1 4.6v-1.3h-3.5v-1.6h-.6v2h-.9v-.1h-.5v2.9h.1s.3.1.4.1h.1v-1.3s0-.2 0 0v-.6h1.2v2l-.1.1H44v.1h.6v6.6c0 .1 0 0 .1.1s.1-.1.1-.1v-6.6h3s0-.1.2-.2v-.2Zm-2.5-.8v.2l-.1.1h-.1v.1h-.9v-1.9h1.8v.5Zm64.2-4.2s-.2 0 0 0m3.9 6.6v-.5s-.1-.2-.2-.2l-.1-.1v-3.8h-2.3v.6h-.9v-.6l-.1-.1h-.2V17h-.6v-.2l-.1-.1h-.4v2.8l.1.1h.5v-1.7s0-.1.1-.1h.7c0-.1 0 0 .1-.1s0 0 .1 0h1.5v-.1l.1-.1h2.2-.5c0 .1 0 0-.1.1 0 0 0 .1-.2.2h-2.3v.1h1.1v1.5c0 .1 0 0-.1.1h-1.8l-.1.1h-.1s0 .1-.1.1 0 0 0 .1h1.8v.9h-2.1c-.4.1-.2 0 0 0h1.9v-2.1h1.3l.1-.1v-.6h-1.9v-1.4h.5v.1h.8v-.3Zm-6.1-4v-.5h.7c.4.1.2 0 0 0v.3s-.1.2-.2.2h-.2v-.2Zm1.2 1.5v.7h-.2s-.1 0 0 0v-1.6h.4s0 .1.1.1v.5Zm.5 1.4h-.2v-.1h.2zm.6-2.7v.4h-.3v-.1h.1s0-.1.2-.2zs0-.1.1-.1h.6v.6h-.1s0 .1-.1.1Zm1.4 1v.7h-.4c-.1 0 .1 0 0 0v-1h.1c0-.1.2 0 .2-.1h.4v.1Zm.4-1.3h-.1v.1h-.4v-.5h.3v.5Zm.3-1.5h-1.4v-.6h1.3v.3Zm-7.3.6v2.2h.5v-2.5h-.5Zm0-.1c.2 0-.5.1 0 0m-37.3 5h.5s.1.2.2.2h.1s0 .1.2.2v.1s0 .1.2.2 0 0 .1 0h.3l.1.1h1.7s0 .1.1.1l.1.1v.2h-2.8v-.3s0-.1-.2-.2v-.1s-.1-.2-.2-.2h-.1c0-.1 0 0-.1-.1s0 0-.1 0c0 0 0-.1-.2-.2l-.1-.1v-.1s0-.1-.1-.2H67c.5-.2-.5.1 0 0Zm-15.8 2.5h-.2zm8.5-1.5v-4.6h-.8c-.1 0 0 0 0 0h-3.5v.1c0 .1-.2.2-.3.3H60v7.8h-.2l-.1-.1h-.1c0-.1 0 0-.1-.1h-.1l-.1-.1v-.9s0-.1.2-.2V19l.1-.1v-4l-.1-.1h-.6v.1s0 .1.1.1c0 0 .1.2.2.2h.1v1.5h-.2v-1.9s0-.1-.1-.1v-.4h-.2v1.3h-.9v.7h.3v.1s0 .1-.1.1v.2h.3c0-.1.1-.1.2-.1v.6h-.1s0 .1-.1.1h-1v-.5h-.1l-.1.1c-.1 0-.2.2-.3.3 0 0 0 .1-.1.1h-.2v-3.6h-.2v5.9h.3v-1.4c-.2 0-.4 0 0-.1s0 0 .1 0h2.1v.5h.5v.5h-.1l-.1.1s0 .1-.1.1h-1.3v-.1l.1-.1V19h-.4v1.1h3.6v.1l.1.1v.3l.1.1h.1v.4h.2s.1-.2.2-.2v-4.8ZM56 17v-.4h.1v.4h-.2ZM39.4 27.7v-1.4h.2c.2 0 .4 0 .5.3v.4c0 .3 0 .5-.2.6-.1 0-.3.1-.6.1Zm-1.1 1.7h1.6c-.2-.1-.3-.2-.3-.2V28h.1l1 1.5h.9c0-.1 0-.1-.1-.1l-.9-1.3c.2 0 .3-.1.4-.2q.3-.3.3-.6c0-.3-.2-.6-.5-.7h-2.2c.2.1.3.2.3.2s.1.2.1.4v2.4h-.3v.1Zm3.3 0c0-.1.2-.1.3-.2 0 0 .1-.1.1-.3v-2.3c0-.1 0-.2-.1-.3h-.3c0-.1 2.7-.1 2.7-.1v1h-.1c0-.3-.2-.5-.3-.6s-.4-.2-.8-.2h-.3v1.3c.3 0 .4 0 .5-.1 0 0 .2-.3.2-.6h.1v1.6h-.1c0-.3 0-.5-.2-.6s-.3-.2-.5-.2v1.4h.3c.3 0 .5 0 .7-.2.2-.1.3-.3.5-.7h.1l-.2 1h-2.7Zm3-.1c.2 0 .3 0 .3-.1v-2.6l-.3-.3h-.1c0-.1 1-.1 1-.1l1.5 2v-1.7s-.2-.1-.3-.1c0-.1 1-.1 1-.1-.1.1-.2.2-.3.2v3.1h-.1l-2-2.6v2.2s.2.2.4.2c0 .1-1 .1-1 .1v-.1Zm3.3 0h.3v-2.9h-.3c0-.1 1.2-.1 1.2-.1l.9 2.2.9-2.2h1.2c-.2.1-.3.2-.3.2v2.7h.3c0 .1-1.5.1-1.5.1.1-.1.2-.1.3-.2 0 0 .1-.1.1-.3v-2.3l-1.1 2.8h-.1l-1.1-2.7v2.5c0 .1.2.1.4.1 0 .1-1.1.1-1.1.1v-.1Zm4.3 0h.3s.1-.1.1-.3v-2.3c0-.1 0-.2-.1-.3h-.3c0-.1 1.6-.1 1.6-.1-.1.1-.2.1-.3.2 0 0-.1.1-.1.3v2.3c0 .1 0 .2.1.3h.3c0 .1-1.6.1-1.6.1Zm1.8 0c.2 0 .3 0 .3-.1v-2.6l-.3-.3h-.1c0-.1 1-.1 1-.1l1.5 2v-1.7s-.2-.1-.3-.1c0-.1 1-.1 1-.1-.1.1-.2.2-.3.2v3.1h-.1l-2-2.6v2.2s.2.2.4.2c0 .1-1 .1-1 .1v-.1Zm7.2-3.1c-.2.1-.3.2-.4.2V29c0 .2.3.4.6.4s.6-.1.7-.4c0-.1.1-.4.1-.6v-1.9s-.2-.1-.4-.1c0-.1 1-.1 1-.1-.1.2-.2.2-.3.2v1.8c0 .4 0 .7-.3.9q-.3.3-.9.3c-.6 0-.9-.2-1.1-.5-.1-.2-.2-.4-.2-.7v-1.9h-.3c0-.1 1.6-.1 1.6-.1Zm1.7 3.1c.2 0 .3 0 .3-.1v-2.6l-.3-.3h-.1c0-.1 1-.1 1-.1l1.6 2v-1.7s-.2-.1-.3-.1c0-.1 1-.1 1-.1-.1.1-.2.2-.3.2v3.1h-.1l-2-2.6v2.2s.2.2.4.2c0 .1-1 .1-1 .1v-.1Zm3.3 0h.3s.1-.1.1-.3v-2.3c0-.1 0-.2-.1-.3h-.3c0-.1 1.6-.1 1.6-.1-.1.1-.2.1-.3.2 0 0-.1.1-.1.3v2.3c0 .1 0 .2.1.3h.3c0 .1-1.6.1-1.6.1v-.1Zm3.3-3.1c-.2.1-.3.1-.3.2v.1c0 .1 0 0 0 0l.7 1.8.6-1.6v-.4h-.3c0-.1 1-.1 1-.1 0 .1-.2.2-.2.2s-.1.2-.2.3l-1 2.8h-.1l-1.2-2.9s0-.2-.1-.2h-.2c0-.1 1.5-.1 1.5-.1Zm1.8 3.2c0-.1.2-.1.3-.2 0 0 .1-.1.1-.3v-2.3c0-.1 0-.2-.1-.3h-.3c0-.1 2.7-.1 2.7-.1v1h-.1c0-.3-.2-.5-.3-.6s-.4-.2-.8-.2h-.3v1.3c.3 0 .4 0 .5-.1 0 0 .2-.3.2-.6h.1v1.6h-.1c0-.3 0-.5-.2-.6-.1-.1-.3-.2-.5-.2v1.4h.3c.3 0 .5 0 .7-.2.2-.1.3-.3.5-.7h.1l-.2 1h-2.7Zm4.2-1.7v-1.4h.2c.2 0 .4 0 .5.3v.4c0 .3 0 .5-.2.6-.1 0-.3.1-.6.1Zm-1.1 1.7H76c-.2-.1-.3-.2-.3-.2V28h.1l.9 1.5h.9c0-.1 0-.1-.1-.1l-.9-1.3c.2 0 .3-.1.4-.2q.3-.3.3-.6c0-.3-.2-.6-.6-.7h-2.2c.2.1.3.2.3.2v2.8h-.3v.1Zm3.3-1.1h.1c0 .4.2.6.4.8s.3.2.6.2.4 0 .4-.2c0 0 .1-.2.1-.3s0-.3-.1-.3-.2-.2-.4-.2l-.3-.2c-.3-.2-.5-.3-.6-.4-.1-.2-.2-.4-.2-.6s0-.4.2-.7c.2-.2.4-.3.7-.3h.9V26h.1v1h-.1c0-.2-.2-.4-.3-.6q-.15-.3-.6-.3c-.1 0-.3 0-.4.1 0 0-.1.2-.1.3 0 .2 0 .3.1.3 0 0 .3.2.5.3l.3.2c.2 0 .3.2.4.3.2.2.3.4.3.7 0 .2 0 .5-.3.7q-.3.3-.9.3c-.2 0-.4 0-.6-.1s0 0-.1 0v.1h-.1v-1.2Zm2.5 1h.3s.1-.1.1-.3v-2.3c0-.1 0-.2-.1-.3h-.3c0-.1 1.6-.1 1.6-.1-.1.1-.2.1-.3.2 0 0-.1.1-.1.3v2.3c0 .1 0 .2.1.3h.3c0 .1-1.6.1-1.6.1v-.1Zm1.8-3.1h2.7v1h-.1c0-.3-.2-.6-.4-.7-.1 0-.3-.1-.5-.1v2.8h.4c0 .1-1.6.1-1.6.1.2-.1.3-.2.4-.2v-2.8c-.2 0-.4 0-.5.1-.2.1-.3.4-.4.7h-.1v-1Zm4.6 0c-.2.1-.3.1-.3.2v.1l.6 1.1.5-.8v-.6h-.3c0-.1 1-.1 1-.1 0 .1-.1.1-.2.2 0 0-.1 0-.1.1l-.9 1.5v1.2h.3c0 .1-1.6.1-1.6.1.2-.1.3-.2.3-.2v-1l-.8-1.6s-.1-.2-.2-.2h-.2c0-.1 1.5-.1 1.5-.1Zm5.6 3.1c-.3 0-.6-.2-.7-.6 0-.2-.1-.5-.1-.9v-.9c.1-.4.4-.6.7-.6s.4.1.6.4c.1.3.2.6.2 1.1s0 .7-.1.9c-.1.4-.4.6-.7.6Zm0-3.2c-.5 0-.9.2-1.2.5s-.5.7-.5 1.2.1.8.4 1.2c.3.3.7.5 1.2.5s.8-.2 1.1-.5.5-.7.5-1.2-.2-.9-.5-1.2-.7-.5-1.1-.5Zm1.8 3.2h.3s.1-.1.1-.3v-2.3c0-.1 0-.2-.1-.3H94c0-.1 2.6-.1 2.6-.1v1h-.1c0-.3-.2-.5-.3-.6s-.4-.2-.7-.2h-.3v1.3c.2 0 .4 0 .5-.2 0-.1.2-.3.2-.5h.1v1.6h-.1c0-.3 0-.4-.2-.6 0-.1-.3-.2-.5-.2V29c0 .1 0 .2.1.3h.4c0 .1-1.7.1-1.7.1zm7.2-3.1c.2 0 .3.1.3.1h.1v-.2h.1v1.1h-.1c0-.2-.2-.4-.3-.6-.2-.3-.5-.4-.7-.4-.3 0-.5.2-.7.4-.1.3-.2.6-.2 1.1s0 .6.1.8c.1.4.4.6.8.6s.5 0 .7-.2c.2-.1.3-.2.4-.4h.1c-.1.3-.3.4-.5.6s-.5.2-.8.2c-.5 0-.8-.1-1.1-.4s-.5-.7-.5-1.2.2-.9.5-1.3c.3-.3.7-.4 1.1-.4s.4 0 .6.1Zm1 3.1h.3s.1-.1.1-.3v-2.3c0-.1 0-.2-.1-.3h-.3c0-.1 1.5-.1 1.5-.1-.1.1-.2.1-.3.2 0 0-.1.1-.1.3v1h1.1v-1c0-.1 0-.2-.1-.3h-.3c0-.1 1.5-.1 1.5-.1 0 .1-.2.1-.3.2 0 0-.1.1-.1.3v2.3c0 .1 0 .2.1.3h.3c0 .1-1.5.1-1.5.1 0-.1.2-.1.3-.2 0 0 .1-.1.1-.3V28h-1.1v1.1c0 .1 0 .2.1.3h.3c0 .1-1.5.1-1.5.1v-.1Zm3.6 0h.3s.1-.1.1-.3v-2.3c0-.1 0-.2-.1-.3h-.3c0-.1 1.6-.1 1.6-.1-.1.1-.2.1-.3.2 0 0-.1.1-.1.3v2.3c0 .1 0 .2.1.3h.3c0 .1-1.6.1-1.6.1v-.1Zm1.8 0c.2 0 .3 0 .3-.1v-2.6l-.3-.3h-.1c0-.1 1-.1 1-.1l1.6 2v-1.7s-.2-.1-.3-.1c0-.1 1-.1 1-.1-.1.1-.2.2-.3.2v3.1h-.1l-2-2.6v2.2s.2.2.4.2c0 .1-1 .1-1 .1Zm4.1-1 .4-1.1.4 1.1h-.9Zm-.8 1.1h.9c0-.1-.2-.1-.2-.1s-.1 0-.1-.1v-.3s0-.2.1-.4h1v.3c.1 0 .2.1.2.2v.4h-.3c0 .1 1.5.1 1.5.1 0-.1-.2-.2-.2-.2s-.1-.3-.3-.5l-1-2.5h-.1l-1 2.6c0 .1-.1.3-.2.4 0 0-.2.1-.3.2v.1Zm-87-16.7c-3.8 0-6.9 3.1-6.9 6.9s3.1 6.9 6.9 6.9 6.9-3.1 6.9-6.9-3.1-6.9-6.9-6.9m0 13.4c-3.6 0-6.5-2.9-6.5-6.5s2.9-6.5 6.5-6.5 6.5 2.9 6.5 6.5-2.9 6.5-6.5 6.5"/><path class="cls-1" d="M23.9 10.2c-5.2 0-9.4 4.2-9.4 9.4s4.2 9.4 9.4 9.4 9.4-4.2 9.4-9.4-4.2-9.4-9.4-9.4m0 18.6c-5.1 0-9.3-4.1-9.4-9.2 0-5.1 4.1-9.3 9.2-9.4h.2c5.1 0 9.3 4.2 9.3 9.3s-4.2 9.3-9.3 9.3"/><path class="cls-1" d="M23.8 9.7c-5.4 0-9.8 4.4-9.8 9.8s4.4 9.8 9.8 9.8 9.8-4.4 9.8-9.8-4.4-9.8-9.8-9.8m.1 19.5c-5.3 0-9.7-4.3-9.7-9.7s4.3-9.7 9.7-9.7 9.7 4.3 9.7 9.7-4.3 9.7-9.7 9.7m2.6-2.7v-.1Zm-1.6.5v.1Zm3.2-1.2"/><path class="cls-1" d="M21 27.3v.2-.1Zm1.7-2.9h-.1l.3-.2v.9h-.2zm1.1.1h-.1Zm0 .3v.1h-.2.2s.2 0 .2-.2v-.5h-.5v.3h.4Zm.6-.2h.1-.2v-.2h.4v.4h-.3v-.1h.3v-.2Zm.6-.3c0-.1.7-.1.7-.1 0 .1-.4.9-.4.9h-.2l.4-.8zm-9.6-2.8v-.1h.1v.4h-.3v-.2Zm.5.1v-.4l.4-.2v-.2l-.5.2h-.4v1c.1 0 1.4-.3 1.4-.3v-.2l-.6.1Zm-.4-1.7h.2v.6h.4v-.7h.2v.9H15v-.8h.2v.6h.4v-.6Zm-.2-.6h1v.3H15v-.3l1-.6h-.9v-.3h1.3v.3l-1 .6Zm-.2-1.3v-.2l1.2-.2-.9-.8v-.2l1.3.3v.2l-1-.3.8.7v.2l-1.1.2.9.3v.2l-1.3-.3Zm1.9-1.6v.2l-1.3-.5v-.2zm-.5-1 .8.5v.2c-.1 0-1.2-.7-1.2-.7v-.2h1.3l-.8-.5v-.2c.1 0 1.2.7 1.2.7v.2zM18 13h.1c0-.1.6.5.6.5s0 .1.1.2v.4s0 .1-.1.2c0 0-.1 0-.2.1H18l-.6-.6h.1c0-.1.6.5.6.5h.3s.2-.1.2-.2v-.3l-.6-.6Zm.8-.2.5.8h-.2c0 .1-.7-.9-.7-.9h.2c0-.1 1.1.3 1.1.3l-.5-.8h.2c0-.1.7.9.7.9h-.2c0 .1-1.1-.3-1.1-.3m1.8 0h-.2l-.6-1.1h.2zm.8-.3-.9-1h.2l.7.7v-1.1h.3v1.4zm1.5-1.1v.2h-.6v.4l.7-.1v.2l-.8.1-.2-1.3h.9c0-.1 0 0 0 0h-.6v.5zm.7-.4h.1v.1h-.4v-.3h.3Zm-.2.5h.4v.5h.3v-.5c-.1 0-.1 0-.1-.1v-.6h-.8v1.3h.2zm1.1.2v.1h.2v-.1h-.6v-.4h.6s0 .1.1.2h-.2v-.2h-.2.5v.1h-.8l-.2-.2h.2Zm1.4.7h-.2l.3-1.3h.2zm.7-1v-.2l1.1.4v.2l-.5-.2-.4 1h-.2l.4-1.1-.4-.2Zm1.3 1.8h-.2c0-.1.3-.6.3-.6v-.9c-.1 0 0 .1 0 .1v.7l.7-.3h.2c0 .1-.8.5-.8.5l-.3.5Zm2.4.7v.2c0 .2-.2.3-.3.3h-.2c-.2 0-.3-.2-.3-.3 0-.2 0-.3.1-.4 0 0 .1 0 .2-.1.2 0 .3 0 .4.1 0 0 0 .1.1.2m-.3-.5h-.3c-.3 0-.6.4-.5.8 0 .1 0 .2.2.3.2.3.6.3.9 0 0 0 .1-.2.2-.3v-.3c0-.1 0-.2-.2-.3 0 0-.2-.1-.3-.2m.5 1.4-.5.3v-.2c-.1 0 .9-.7.9-.7l.5.7h-.1l-.4-.4-.3.2.3.5h-.1zm1.4 2.1v-.2s0-.1-.1-.2c0 0-.2-.1-.3-.1h-.4s-.2.2-.2.3 0 .3.1.4h.1v.2h-.2s-.1 0-.1-.1c0 0 0-.1-.1-.2v-.4s0-.1.1-.2c0 0 .2-.1.3-.2h.2c.1 0 .3 0 .4.1l.1.2s0 .1.1.2v.5-.2Zm.1.7v.7c.1 0 .6-.1.6-.1v.2l-1.2.3v-.2l.6-.1v-.7c-.1 0-.7.1-.7.1v-.2l1.2-.3v.2zm-.6 1.6V19h1.3v.2zm1 .6h-1v-.3h1.3v.3l-1 .6h.9v.3h-1.3v-.3l1-.7Zm-.6 1.5.5.4h-.6c0 .1.1-.4.1-.4m-.4-.5v.2l.2.2v.6h-.5v.2l1.3-.3v-.2l-1.1-.9ZM21.2 14h.2c.1 0 .2.1.3.2v1.4c0 .1 0 .2.1.3v.1c0 .1 0 .2.1.3v.3s.1 0 .2-.1l.2-.2.1-.1.5-.5s0-.1.1-.2v-1.4c0-.2.1-.3.3-.4h.2c.1 0 .3.2.3.3v2.2s.1 0 .2-.1c0 0 .1 0 .2-.1.1 0 .3-.3.4-.4l.1-.1c.2-.2.4-.5.5-.8v-1.4c0-.1 0-.2.2-.3h.2s.2.1.2.2V15c0 .1 0 .2.1.3v1.2s0 .1-.1.2c0 .1-.1.2-.2.3v2.5c0 .3-.1.4-.4.4h-.1c-.2 0-.2-.2-.3-.4v-2.1c0-.2.1-.4.2-.6v-.2c.2-.3.5-.7.6-1.1v-.6c0-.2 0-.3-.1-.4V14s-.2.2-.2.3c-.2.2-.4.5-.7.6l-.1.1s-.1 0-.2.1h-.1v.2l-.6.9c0 .1 0 .2-.1.3v1.6c0 .2.1.4.2.6v.4c0 .1-.1.2-.2.3h-.2s-.2-.1-.2-.2v-.1s0-.2-.1-.3v-2.3c0-.1 0-.3.2-.4v-.4s0-.1.1-.2v-.1s.1-.2.2-.3v-.9s-.1.2-.2.3l-.4.4-.3.3-.3.3h-.2v.1c0 .2 0 .4-.2.5-.1.2-.3.4-.4.6v.1s0 .2-.1.3v2.5c0 .2 0 .4-.2.5h-.3s-.2-.2-.2-.3v-2.2c0-.2.1-.4.2-.6 0-.1 0-.2.1-.3 0 0 .1-.2.2-.3.1-.2.3-.4.4-.7v-.9.1l-.1.1h-.1s-.1 0-.1.1c-.3.3-.5.5-.9.7-.1 0-.2.1-.4.2h-.2v-.2c0-.2.2-.2.4-.3h.1v-.1s.1 0 .2-.1l.2-.2v-.2s0-.1.1-.2.2-.3.3-.5v-1.6l.1-.1Z"/></g></svg>