<svg width="128" height="137" fill="none" xmlns="http://www.w3.org/2000/svg"><g filter="url(#a)" fill-rule="evenodd" clip-rule="evenodd" fill="#009844"><path d="M63.39 95.34c0-.1-.02-.19-.08-.26a.38.38 0 0 0-.24-.13c-.05 0-.21-.01-.48-.02h-.51v.82h.47c.2.01.39 0 .59-.03.08-.02.14-.07.19-.13a.42.42 0 0 0 .07-.24zm29.54-17.67c-.25-.16-.56-.21-.85-.16-.48.15-.74.65-.6 1.13v.03c.3.53.89.82 1.49.75.24-.06.44-.23.55-.45.12-.22.13-.47.04-.7-.13-.27-.36-.49-.63-.6M32.08 61.75c.29.05.6-.01.85-.17.2-.15.32-.38.33-.62.03-.25-.05-.5-.23-.68-.22-.2-.51-.31-.81-.32-.3-.05-.6.02-.85.18a.875.875 0 0 0-.11 1.29c.23.21.52.32.83.33zm9.4 24.32a.5.5 0 0 0 .23-.12.42.42 0 0 0 .12-.25c0-.09-.02-.19-.08-.26-.03-.04-.14-.16-.32-.35l-.35-.37-.59.57.34.35c.13.15.28.28.44.4.07.04.15.05.23.04zm41.21 2.72c-.09-.02-.19 0-.27.05-.05.03-.18.12-.39.28l-.41.31.49.66.38-.29q.255-.165.45-.39c.05-.07.07-.15.06-.23 0-.08-.04-.16-.09-.23a.4.4 0 0 0-.23-.16zm6.24-4.21-1.2-.43.64 1.1.57-.68zm6.52-12.76-1.28.1 1.03.75.24-.85zm-15.4 18.86a.905.905 0 0 0-1.12.62c0 .01 0 .02-.01.04-.04.3.03.6.2.85.13.27.36.48.63.6.23.08.49.05.7-.08.22-.12.37-.32.42-.56a1.2 1.2 0 0 0-.21-.86c-.13-.27-.35-.48-.62-.6zM43.3 88.83l.47-1.19-1.13.6zm28.59-56.28-.09-.04c-.19.18-.3.44-.28.71l.09.02c.18-.19.27-.43.27-.69zM35.62 47.64s0-.04-.02-.05c-.02-.21-.39-1.24-.57-1.34l-.06.05c-.13.56-.1.96.65 1.34m10.3-9.35s.03.07.05.1c-.02.4-.5.77-.33 1.2h.06c.11-.03.23-.04.34-.05v.02c.03.05.04.1.04.15-.06.06-.1.15-.09.24l.08.07c.13-.08.13-.11.25-.1.09.13.19.25.31.37.16.1.94.25 1.11.04-.14-.83-.57-1.55-.88-2.49-.1-.38-.27-.72-.52-1.02l-.14.07c-.14.36-.84.88-.68 1.31l.41.09z"/><path d="M64 25.22c-21.36 0-38.78 17.42-38.78 38.79S42.64 102.78 64 102.78s38.78-17.42 38.78-38.77S85.36 25.22 64 25.22m33.62 37.71-3.24.06v-.65l3.22-.06v.65zm-.02-1.55-3.2.45-.33-2.38.54-.07.24 1.73.71-.1-.23-1.61.54-.08.23 1.61.87-.12-.25-1.79.54-.08zm-.9-5.05c.14.2.23.42.28.66.1.32.09.67-.05.98-.15.28-.41.48-.71.58l-.21-.6c.17-.06.31-.18.4-.34.07-.16.08-.33.03-.49a.73.73 0 0 0-.25-.43.39.39 0 0 0-.34-.08c-.07.02-.13.06-.17.11-.05.08-.08.17-.08.26 0 .08-.01.26-.01.54.02.27-.03.54-.13.79-.19.38-.64.57-1.04.42a.93.93 0 0 1-.42-.31c-.13-.18-.22-.38-.26-.59-.1-.31-.09-.65.04-.95.12-.24.35-.42.61-.49l.19.63a.6.6 0 0 0-.31.26c-.05.14-.05.29 0 .43.03.16.11.3.23.4.06.06.15.08.23.05.07-.02.14-.07.17-.14q.09-.315.06-.63c0-.25 0-.5.06-.74.04-.16.11-.31.23-.43.27-.25.66-.34 1.01-.23.18.06.34.18.45.34zm-5.06-10.16c.08-.1.05-.19.21-.27l.07.04c.05.27-.09.48-.14.73l.07.09c.18.02.35.14.54.04v-.29c.33-.21.34-.36.53-.64.04 0 .07 0 .11.02l.03.05c.16.38-.08.71-.11 1.06.26.35.82.33 1.15.26v-.03c-.02-.03-.05-.06-.07-.09-.25-.09-.56 0-.79-.21v-.05c.23-.15.34 0 .56-.1a.8.8 0 0 1-.17-.4l.04-.05.09-.04c.28.16.48.42.77.51.42.13.97-.11 1.4-.04.1.11.18.24.23.38l-.02.04c-.43.1-.83-.01-1.25 0l-.05.06c-.34.68 1.33.64 1.45 1.48-.38.53-2.03.52-2.47.35-.21-.08-.56-.16-.6-.45l.03-.05c.27-.11.65.06.92-.02.17-.05.2-.17.33-.19.04.08.06.18.14.23.19.09.82.02 1.03-.1-.51-.66-1.67-.75-2.33-.66-.12.16-.11.51-.17.71l-.06.05-.21-.04c-.25-.28 0-.45-.23-.71-.29-.07-.63.06-.88-.24l.06-.12c.25 0 .54.11.8-.06-.42-.41-1.51-.13-1.71-.52.08-.45.4-.37.67-.73zm-3.6.45c.06-.1.18-.16.3-.14l.33.35.68.4c1.36.75 2.71 1.24 4.12 1.82.11.19.14.41.09.62l-.08.06c-.51.04-1.11-.2-1.58-.35-.14-.04-.27-.23-.07-.3.33-.07.63.19.96.04a3 3 0 0 1-.17-.18l-1.61-.61c-.79-.26-1.66-.28-2.43-.64-.4-.18-.78-.69-.53-1.07zm-.29 2.51.07.02c.23.16.5 1.16.92 1.55.28-.03 1.4-.66 1.27-.89-.38-.23-.63-.63-.68-1.07l.1-.12c.35-.06.68.2.98.35l2.58 1.4c.18.21.21.51.07.75-.35.17-1.88-.63-2.35-.69-.04-.05-.04-.12-.01-.18-.07-.12-.11-.11-.23-.15-.73.53-1.59 2.01-2.49 1.64-.11-.23-.01-.56-.02-.78-.01-.42-.19-.81-.25-1.21-.03-.23-.19-.44.05-.63zm-9.04-9.08c.74.14 2.06-.02 2.54-.72-.56-.18-1.28.45-1.76-.4a.85.85 0 0 1-.18-.53l.06-.03c.75.27 2.06.66 2.57.25.7-.55.88-1.81 1.39-2.4h.07c.24.36.31.81.17 1.23-.14.32-.9.98-.84 1.23.51.15 1.17-.2 1.65.2.02.05.03.09.05.14l-.07.09c-.33.21-1.32-.12-1.75-.06-.44.06-.73.55-1.13.85-.51.37-1.13.58-1.76.6-.26 0-.9-.06-1.04-.42l.04-.03zm4.86 1.9c-.05.05-.04.05-.08.06-.28.19-1.01.07-1.31-.18.03-.68-.11-1.33 0-2.05.06-.04.12-.06.19-.07.23.37.07.87.25 1.25.1.21.23.4.4.56.23.17.44.22.54.41zm-13.54-8.34c.43.05.76.17.96-.3.04-.14.07-.28.11-.42-.4-.03-.48.36-.87.33-.05-.04-.07-.05-.1-.11-.25-.4.77-.82.76-1.28-.07 0-.06 0-.1.02-.14.05-.27.39-.51.26-.28-.15 0-.66.12-.81.48-.62 1.04-1.17 1.68-1.64.19.11-.02.35-.12.47-.26.29-.97.68-.94 1.2h.02c.5 0 .75-.6 1.3-.55l.08.09v.02c-.17.54-1.45.74-1.36 1.39l.03.06h.06c.33-.02.54-.33.85-.42.12.03.16.07.18.17s-.1.16-.1.23c0 .11.32.2.37.32.08.38-.37.59-.57.74l-.51.4c-.45.49-.77 1.39-1.62 1.31l-.03-.03v-.1c.26-.13.73-.37.84-.69v-.04c-.33-.12-.64-.1-.55-.58h.03zm1.29.75h.04c.5.07 1.06.36.99.86l-.12.15c-.21.05-.56.03-.63-.2v-.27c-.07-.19-.27-.29-.29-.54zm-2.15-4.42.15-.54.12-.04c.09 0 .18.03.26.08.21.16.36.83-.01.99-.26.09-.54.11-.8.04v-.06c-.04-.17.21-.32.28-.47m-2.64 5.4c.87-1.2 1.94-2.09 2.71-3.43l-.04-.02h-.06c-.34.24-.72.71-1.15.8s-.74-.51-.48-.8c.19.05.24.23.41.21.47-.02 1.43-.81 1.9-1.03.08.03.1.05.13.12.16.36-.59.37-.68.7.18.09.32.26.37.45-.2.4-.56.52-.7.83l.02.02c.32.03.7-.14.81.23.18.42-.99 1.62-1.23 1.83-.13.11-.3.36-.51.26l-.09-.05-.06-.57c.07.06.19.16.33.13.19-.05.98-1.03.9-1.36 0-.06-.04-.11-.09-.13a.3.3 0 0 0-.26-.05c-.23.06-.31.28-.45.43-.55.54-.98 1.28-1.69 1.58l-.09-.04zM89.23 64c0 13.89-11.33 25.22-25.22 25.22S38.79 77.88 38.79 64s11.33-25.23 25.22-25.23S89.23 50.1 89.23 64M43.69 40.67l.03-.06c.28-.05 1.72.78 1.24 1.3-.45.48-.79-.17-.94-.62l-.34-.62zm14.01-7.11c.06.13.68.65.8.56.06-.05.23-.97.36-1.1l.05-.03c.14.13.05.43.07.65.05.55.39.99-.19 1.16-.4-.07-.76-.27-1.03-.58-.13-.13-.2-.33-.38-.38h-.1c-.17.14-.29.33-.37.53l.03.05.32.09.1.23c-.11.53-.55.84-.74 1.31-.07.17-.04.34-.19.47l-.35.09-.03-.03c-.25-.52 0-.96.03-1.36 0-.34.01-.68.02-1.03 0-.23-.23-.7-.09-.84l.05-.03.09.05c.25.66.4 1.38.3 1.94l.06.06.07-.02c.11-.16.38-.48.21-.69-.12 0-.15 0-.19-.13.05-.45.32-.69.51-1.05-.1-.36-.35-.47-.48-.82l.04-.07h.06c.16.14.29.47.49.56h.02s.05-.05.07-.12c0-.28-.14-.53-.06-.73.14 0 .16.06.25.13.58.48-.03.77.15 1.13zm-1.95-1.81c.05-.21 1.2-1.56 1.46-1.66.2.05.36.19.42.38-.16.16-.43.53-.35.78.26 0 .26.11.39.21-.1.34-.37.59-.71.68l-.15-.06c-.2-.3-.07-.55.07-.79 0-.04-.02-.07-.03-.11-.39.12-.55.6-1.1.61v-.06h.01zm-12.87 7.07.66-.4c.52-.43.73-1.13.55-1.78-.11-.34-.36-.47-.45-.76v-.07l.1-.09c.78-.4.87.35 1.16.37l.57-.14.08.07c0 .47-.38.66-.57 1.06-.1.21-.05.51-.05.75l.14.1c.66-.35.66-1.16 1.29-1.56l.38.04c.33.23.38.8.64 1.17.49.69 1.29 2.65.9 3.21-.72.08-1.28-.39-1.94-.4l-.06.09c.08.27.3.47.37.73-.02.06-.03.11-.04.17-.11.08-.24.13-.37.16-.16-.09-.19-.31-.36-.45-.1-.09-.17-.01-.28-.16.06-.11.06-.24.02-.35-.03-.01-.06-.03-.09-.04-.13.04-.2.07-.28-.05.04-.28.38-1.47.08-1.65-.5.35-.01.64-.24.96-.17.15-.39 0-.54-.05-.2.12-.35.26-.55.23-.01-.03-.03-.06-.04-.09.21-.63.87-.99.47-1.82l-.05.02c-.23.34-.29.9-.65 1.17-.28.2-1.05-.15-.86-.47h.01zm-10.62 6.41c.09-.08.18-.15.29-.21.79.31 1.05 1.2 1.9 1.66.57-.35.16-1.74.82-1.76l.03.05c-.05.7.33 1.46.48 2.15.07.31 0 .6.18.9l.18.05c.09-.08.19-.15.31-.2l.06.02c.13.26.09.56.28.81l.93.77c.35.39 1.24 1.21 1.78 1.43.07.03.12-.04.17-.03.35.05.53.7.19.84l-.49-.12-1.89-1.61c-.17-.19-.72-.66-.9-.65-.23.16-.08.61-.19.85l-.09.02c-.21-.1-.38-.25-.51-.43v-.65c-.08-.54-.42-1-.9-1.24-.45.61.59 1.65-.44 2.29-.14-.17 0-.58 0-.78v-1.92l-.59-.54c-.61-.49-1.45-1.04-1.64-1.58l.05-.12zm3.16 5.96c.07.17-.17.33-.32.33-.21 0-1.52-.32-1.54-.62.3-.18 1.57-.24 1.85.28zM31 57.24c.05-.33.23-.64.49-.86.26-.18.59-.25.9-.2l-.08.63a.76.76 0 0 0-.51.12.73.73 0 0 0-.25.43c-.05.16-.04.34.02.49.05.11.15.2.27.23.07.02.14 0 .21-.02.08-.05.14-.12.19-.2.04-.07.13-.23.26-.48.11-.25.27-.47.48-.65.2-.15.46-.2.7-.14.16.04.31.12.42.24.12.13.2.29.23.47.03.22.02.43-.03.65-.05.32-.22.62-.47.83-.22.16-.5.22-.77.15l.12-.64c.14.02.28-.02.39-.09.11-.1.18-.24.2-.38.04-.15.04-.31-.01-.45a.2.2 0 0 0-.17-.14c-.08-.02-.15 0-.21.05-.15.16-.27.34-.35.54-.1.23-.23.44-.38.64-.11.13-.25.22-.4.28-.17.05-.36.05-.53 0a.9.9 0 0 1-.47-.27.9.9 0 0 1-.25-.51c-.04-.24-.02-.48.03-.71zm-.53 3.47c.02-.43.21-.83.54-1.1.36-.27.8-.38 1.24-.32.28.02.56.09.81.23.16.09.3.2.42.34.11.13.2.28.25.44.07.23.09.47.07.71-.02.43-.22.83-.54 1.1-.36.27-.82.39-1.27.32-.45-.01-.88-.2-1.18-.53-.28-.33-.4-.76-.34-1.18zm-.1 3.64c-.01-.24.03-.48.11-.7.06-.15.16-.28.28-.38.1-.09.23-.15.36-.18.27-.05.55-.07.82-.07h1.73v.65h-1.75c-.18 0-.36 0-.54.02a.48.48 0 0 0-.32.2c-.09.13-.13.28-.12.43-.01.15.03.3.11.42.07.09.17.15.28.17.18.02.37.03.55.03h1.79v.65h-1.69c-.28 0-.55 0-.82-.05a.84.84 0 0 1-.4-.2.84.84 0 0 1-.26-.38c-.07-.2-.11-.41-.11-.62zm.17 2.92 2.67-.33-.11-.95.54-.07.31 2.55-.54.07-.12-.95-2.67.33-.09-.65zm.68 4.19 1.38-.32-.28-1.26-1.38.32-.15-.64 3.15-.73.15.63-1.24.29.29 1.25 1.24-.29.15.64-3.16.73-.14-.63zm2.12 2.19-.6.17-.33-1.17.59-.17.33 1.17zm-.85 2.3c-.16-.36-.16-.78 0-1.15.2-.39.54-.69.96-.84.41-.2.89-.23 1.32-.08.38.15.69.46.83.85.15.32.17.69.05 1.03-.09.21-.24.4-.43.53l-.39-.54c.28-.18.39-.53.25-.84a.72.72 0 0 0-.45-.45c-.29-.07-.59-.03-.86.11-.3.09-.55.28-.73.53a.7.7 0 0 0-.03.63c.06.15.17.28.32.35.18.08.39.1.59.06l.05.66c-.31.05-.63 0-.9-.15-.26-.16-.47-.41-.57-.7zm.87 1.96 2.9-1.47 1.09 2.14-.49.25-.79-1.55-.64.33.74 1.45-.49.25-.74-1.45-.8.4.82 1.61-.49.25-1.12-2.2zm2.9 5.11-.35-.56 1.1-2.22-1.79 1.12-.32-.52 2.74-1.71.34.54-1.13 2.26 1.83-1.15.32.52-2.75 1.72zm1 1.31 2.12-1.65-.59-.75.43-.34 1.58 2.03-.43.34-.59-.75-2.12 1.66-.4-.52zm3.44 3.89-.54-.56.17-.82c.05-.19.08-.38.1-.58 0-.08 0-.15-.04-.23a.9.9 0 0 0-.2-.26l-.09-.09-.97.94-.45-.47 2.33-2.26.96.99q.27.27.45.6c.07.15.08.32.04.49a1 1 0 0 1-.27.45c-.15.16-.36.25-.58.26-.24 0-.48-.09-.66-.25.04.14.05.29.05.44-.02.21-.06.43-.12.63l-.17.73zm2.11 1.9.28-.73-.95-.87-.68.37-.54-.47 3.1-1.56.51.45-1.2 3.27-.53-.46zm3.22 1.66-.32.45-1.84-1.34 1.89-2.6.53.38-1.57 2.16zm3.67 1.87c-.1.12-.22.21-.36.26s-.3.07-.45.05q-.315-.045-.6-.21c-.22-.1-.41-.25-.57-.42a.96.96 0 0 1-.2-.42.9.9 0 0 1 0-.4c.08-.26.19-.52.33-.75l.81-1.52.58.31-.82 1.55c-.09.16-.16.32-.23.49-.04.12-.03.26.03.38.07.14.18.25.32.31.13.08.28.11.42.1.11-.02.21-.08.28-.17.1-.15.2-.31.28-.48l.84-1.58.58.31-.8 1.5c-.12.25-.27.49-.43.71zm2.34 1.76-.42-2.44-.79 1.96-.56-.23 1.21-3 .59.24.42 2.5.81-2 .56.23-1.22 2.99-.61-.24zm2.07.75-.61-.23 1.1-3.04.61.23-1.11 3.04zm1.64.47-.4-3.41.69.16.26 2.52 1.31-2.16.68.16-1.86 2.89zm5.21-1.81-1.72-.27-.11.71 1.6.26-.09.54-1.6-.26-.14.87 1.78.28-.09.54-2.43-.39.51-3.19 2.37.38-.08.54zm2.56 2.81-.45-.71c-.1-.17-.21-.33-.34-.48a.5.5 0 0 0-.19-.14c-.11-.03-.22-.04-.33-.04h-.13l-.02 1.36h-.65l.06-3.24 1.37.02c.25 0 .51.03.75.1.16.06.29.17.37.32.09.15.14.33.13.51a.9.9 0 0 1-.23.6c-.17.17-.4.27-.64.29.13.08.24.17.35.28.14.17.26.34.36.53l.38.64-.79-.02zm3.65-.56c-.09.17-.23.31-.4.4q-.33.15-.69.18c-.34.05-.68-.02-.96-.2-.25-.2-.41-.48-.45-.79l.63-.12c.04.18.13.34.27.45.14.09.32.13.49.11.17 0 .33-.07.45-.18.09-.08.14-.2.13-.32 0-.07-.04-.14-.09-.19a.6.6 0 0 0-.25-.12c-.08-.02-.26-.05-.53-.1-.27-.02-.53-.11-.76-.26a.85.85 0 0 1-.26-1.09.9.9 0 0 1 .38-.36c.19-.1.41-.16.62-.17.32-.05.66.01.94.19.22.16.36.41.38.68l-.65.09a.55.55 0 0 0-.21-.34.62.62 0 0 0-.42-.07c-.16 0-.31.06-.43.15-.06.05-.09.13-.09.21s.05.15.11.19c.19.09.4.15.62.16.25.03.49.09.72.17.15.06.29.16.39.3.1.15.16.32.17.5.02.18-.02.37-.11.53m.98.29-.45-3.2.65-.09.45 3.2zm2.84-.44-.64.11-.47-2.65-.94.17-.09-.54 2.53-.45.09.54-.94.17.47 2.65zm3.25-.87-.62.19-.4-1.3-1.68-1.45.73-.23 1.11 1.01.34-1.44.72-.23-.59 2.14.39 1.3zm3.16-1.19-.59.28-1.37-2.94 2.01-.94.23.5-1.41.67.32.69 1.22-.57.23.5-1.22.57zm4.13-2.64c-.11.41-.39.76-.76.95-.36.23-.8.3-1.22.19-.42-.14-.77-.44-.97-.84-.15-.24-.25-.51-.29-.79-.02-.18 0-.36.04-.54.04-.16.12-.32.23-.45q.225-.285.54-.45c.36-.23.8-.3 1.21-.19.85.34 1.36 1.22 1.23 2.13v-.02zm2.91-1.54-.8-.28c-.18-.07-.37-.13-.56-.17a.6.6 0 0 0-.23.01 1 1 0 0 0-.28.17l-.11.08.81 1.08-.52.39-1.96-2.58 1.1-.83c.2-.16.42-.29.65-.38a.75.75 0 0 1 .49.02c.17.07.31.18.42.32.14.17.21.39.19.61a1 1 0 0 1-.33.62q.225-.03.45 0c.21.05.41.11.61.2l.7.27-.63.48zm3.27-2.84-2.4-.61 1.47 1.52-.44.42-2.25-2.33.45-.44 2.45.63-1.5-1.55.44-.42 2.25 2.33-.47.46zm2.53-2.83-.74-.26-.83.99.39.68-.45.53-1.67-3.05.45-.53 3.31 1.09-.46.54zm1.06-1.37-2.23-1.5-.54.8-.45-.31 1.44-2.13.45.31-.54.79 2.23 1.5zm1.28-1.87-2.71-1.76.35-.55 2.71 1.76zm1.47-2.56c-.17.39-.5.69-.9.82-.43.12-.89.05-1.27-.17-.26-.12-.49-.29-.68-.51-.11-.14-.2-.3-.26-.47-.06-.16-.08-.33-.07-.5.02-.24.09-.47.2-.68.18-.39.51-.69.92-.82.44-.11.9-.05 1.29.18.41.18.74.52.9.94.13.41.08.85-.13 1.22zm1.64-3.89-2.44.45 1.97.75-.23.57-3.02-1.16.23-.59 2.49-.45-2.02-.77.23-.57 3.02 1.16zm1.15-3.64-.78.07-.36 1.24.63.45-.19.66-2.76-2.1.19-.66 3.46-.34zm.21-1.29-3.16-.5.1-.64 2.63.42.25-1.6.54.08-.36 2.25zm.45-2.94-3.23-.23.05-.65 3.23.23zm.13-2.24h-2.7v.96h-.55v-2.58h.55v.96h2.69v.66z"/><path d="M64 87.83c13.16 0 23.82-10.67 23.82-23.83S77.15 40.18 63.99 40.18 40.17 50.85 40.17 64.01C40.2 77.16 50.85 87.81 64 87.83m0-45.39c11.91 0 21.56 9.66 21.56 21.57S75.9 85.57 63.99 85.57s-21.56-9.65-21.56-21.55c.02-11.9 9.66-21.55 21.57-21.57z"/><path d="M59.72 81.22s-.03-.06-.05-.08a.14.14 0 0 0-.07-.02h-.83v-4.8s0-.05-.01-.07c-.02-.02-.04-.04-.06-.04-.05-.01-.09-.02-.14-.02H58s-.05 0-.08.02c-.02 0-.03.02-.05.03l-1.09.81s-.05.04-.07.07c-.02.02-.03.05-.04.08-.01.04-.02.08-.02.12v.44s.02.09.05.13c.02.03.06.04.09.03q.075-.015.15-.06l.82-.51v3.78h-.95s-.05 0-.06.02c-.02.02-.04.05-.05.08a.3.3 0 0 0-.03.14c0 .08-.01.15-.01.23 0 .07 0 .14.01.21 0 .05.02.09.03.14 0 .03.03.05.05.07s.04.02.06.02h2.8s.05 0 .07-.02.04-.05.05-.07a.3.3 0 0 0 .03-.14c0-.07.01-.14.01-.21 0-.08 0-.15-.01-.23 0-.05 0-.1-.02-.14zm4.41-3.76c-.04-.19-.11-.38-.2-.56a1.4 1.4 0 0 0-.77-.69c-.2-.07-.41-.1-.62-.09-.27 0-.53.04-.77.15-.22.09-.41.24-.56.42-.15.19-.27.4-.34.63-.08.26-.12.53-.12.8 0 .25.02.5.08.74.05.2.13.39.26.56.12.15.27.27.45.35.22.08.45.13.68.12.2 0 .4-.03.59-.1.16-.05.3-.13.44-.23 0 .21-.03.43-.07.63-.04.19-.11.36-.21.53-.09.15-.22.27-.37.36-.17.09-.36.14-.56.14-.12 0-.23-.01-.35-.03-.09-.02-.19-.04-.28-.07l-.21-.07s-.09-.03-.13-.03c-.02 0-.04 0-.06.02s-.04.04-.04.07a.6.6 0 0 0-.02.14v.24c0 .08 0 .17.02.25 0 .05.03.1.06.14.04.04.09.07.14.09.07.04.15.06.23.09.1.03.2.05.31.07a2.34 2.34 0 0 0 1.16-.11c.22-.09.43-.22.6-.39s.3-.36.4-.57c.1-.22.19-.45.25-.69s.1-.49.12-.74a9 9 0 0 0 0-1.47q-.015-.33-.09-.66zm-1.25 1.45c-.14.05-.28.08-.43.08-.11 0-.21-.02-.31-.06a.46.46 0 0 1-.21-.18.8.8 0 0 1-.12-.3c-.03-.14-.04-.28-.04-.42s.01-.27.04-.4c.03-.11.07-.22.13-.32.06-.09.13-.16.23-.21a.6.6 0 0 1 .32-.07c.12 0 .23.03.33.08.1.07.18.16.23.27.07.16.12.34.14.52.03.27.05.54.05.8-.11.09-.23.16-.35.21zm5.32-.03c-.15-.15-.34-.26-.54-.32a2.3 2.3 0 0 0-.73-.11h-.28c-.09 0-.18 0-.27.02v-1.24h1.81q.075 0 .12-.12c.03-.13.05-.26.04-.39v-.23c0-.05-.02-.1-.03-.15 0-.03-.03-.06-.05-.09a.1.1 0 0 0-.07-.03h-2.42c-.07 0-.15.02-.2.08-.04.08-.07.17-.06.26v2.52c0 .08 0 .17.05.24.04.05.1.07.16.07.12 0 .23 0 .35-.03q.21-.03.42-.03c.16 0 .33.02.49.06a.71.71 0 0 1 .51.46c.04.12.06.25.06.38 0 .15-.02.29-.07.43-.04.11-.11.21-.2.3-.09.08-.2.14-.32.17-.14.03-.28.05-.42.05-.15 0-.3-.02-.45-.05-.19-.05-.37-.12-.53-.23-.04-.03-.08-.04-.12-.05-.02 0-.04 0-.05.02-.02.02-.03.05-.04.07l-.03.14v.42c0 .06 0 .1.01.14 0 .03.02.07.03.1s.03.05.05.07a1.3 1.3 0 0 0 .42.18c.13.04.25.07.38.09q.225.03.45.03c.28 0 .55-.04.82-.14.48-.16.86-.54 1.03-1.01.1-.27.15-.55.14-.84 0-.25-.03-.5-.11-.73-.07-.2-.19-.38-.34-.52zm4.85 2.34s-.03-.06-.05-.08a.14.14 0 0 0-.07-.02h-.83v-4.8s0-.05-.01-.07c-.02-.02-.04-.04-.06-.04-.05-.01-.09-.02-.14-.02h-.56s-.05 0-.08.02c-.02 0-.03.02-.05.03l-1.09.81s-.05.04-.07.07c-.02.02-.03.05-.05.08-.01.04-.02.08-.02.12v.44s.02.09.05.13c.02.03.06.04.09.03q.075-.015.15-.06l.82-.52v3.78h-.95s-.05 0-.06.02c-.02.02-.04.05-.05.08a.3.3 0 0 0-.03.14c0 .08-.01.15-.01.23 0 .07 0 .14.01.21 0 .05.02.09.03.14.01.03.03.05.05.07s.04.02.06.02h2.8s.05 0 .06-.02c.02-.02.04-.05.05-.07a.3.3 0 0 0 .03-.14c0-.07.01-.14.01-.21v-.23c0-.05-.02-.09-.03-.14M48.44 60.78c.3 9.31 7.66 7.89 7.66 7.89v-2.63s-4.88 1.36-4.96-4.36c-.07-5.71 5.56-5.56 5.56-5.56.3-7.58 7.14-7.58 7.14-7.58 7.89-.23 8.04 7.28 8.04 7.28 6.01.07 5.48 4.66 5.48 4.66.3 4.81-4.96 4.79-4.96 4.79v2.87c6.91-.15 7.66-6.53 7.66-6.53.82-7.96-6.46-8.34-6.46-8.34-1.88-7.96-8.94-7.58-8.94-7.58-10.06-.23-10.44 8.33-10.44 8.33-6.31 1.35-5.78 6.75-5.78 6.75z"/><path d="M70.6 56.65h-4.81l-1.5 2.11-1.24-2.15H57.9v9.43h4.21v-2.1h-2.1v-4.96h1.95l2.1 1.58 2.25-1.43h1.73v4.81h-4.96l.08 9.16h2.1v-6.92h5.33v-9.53z"/><path d="M64 20c-24.23 0-44 19.77-44 44.01S39.77 108 64 108s44-19.77 44-43.99S88.23 20 64 20m0 86.43c-23.37 0-42.43-19.06-42.43-42.42S40.63 21.57 64 21.57s42.43 19.06 42.43 42.44S87.37 106.44 64 106.44z"/></g><defs><filter id="a" x="-13" y="0" width="154" height="157" filterUnits="userSpaceOnUse" color-interpolation-filters="sRGB"><feFlood flood-opacity="0" result="BackgroundImageFix"/><feColorMatrix in="SourceAlpha" values="0 0 0 0 0 0 0 0 0 0 0 0 0 0 0 0 0 0 127 0" result="hardAlpha"/><feOffset dy="16"/><feGaussianBlur stdDeviation="6.5"/><feColorMatrix values="0 0 0 0 0 0 0 0 0 0 0 0 0 0 0 0 0 0 0.03 0"/><feBlend in2="BackgroundImageFix" result="effect1_dropShadow_49_8455"/><feBlend in="SourceGraphic" in2="effect1_dropShadow_49_8455" result="shape"/></filter></defs></svg>