<svg xmlns="http://www.w3.org/2000/svg" viewBox="0 0 128 40.9"><defs><style>.cls-1{fill:#bd2319;fill-rule:evenodd}</style></defs><g id="_图层_1" data-name="图层_1"><path class="cls-1" d="M29.6 25.9H29v-6.5c0-.5 0-.8-.6-.8-.4 0-.7.3-.7.8 0 1.9 0 3.9-.1 5.8 0 1.2.5 2.1 1.8 2.1s1.8-.9 1.8-2.1c0-1.9 0-3.9-.1-5.8 0-.6-.3-.9-.7-.8-.6 0-.6.4-.6.8v6.5ZM17.7 15.6h-.3l-.2.2s0 .3.2.4 1 .3 1.1.3.3-.3.1-.3c-.1 0-.4-.1-.5-.3 0-.1-.2-.4-.2-1 0-.5.2-.8.3-.9h.2l.2.5s0 .1 0 0h-.3s-.2.1 0 .3c0 0 .2.1.3 0h.2v.4s-.1.1 0 .2h.3v-.5c0-.1 0-.4.2-.4 0 0 .2 0 .3-.1.1 0 .3-.3.3-.5 0-.1.1-.9.2-1 0-.1.3-.2 0-.4-.2-.2-1-.3-1.3 0q-.6.45-.9 1.2c-.2.5-.2.8-.2 1.1s.1.4 0 .4Zm1.1-1V14c0-.2-.1-.2-.3-.2h-.2c0-.2.1-.3.2-.5.2-.2.4-.4.7-.5.2 0 0 .5 0 .6v.7c0 .1-.1 0-.2 0s-.2.2-.2.2Zm4.6-5.7c-.1 0-.2.1 0 .3.1.2.2.1.3.5 0 .3.3 1 .3 1.1v.4c0 .1 0 .3.2.3s0-.2 0-.3c0 0-.2-.9-.3-1.1 0-.2-.1-.4-.2-.6 0-.1 0-.2-.1-.3s-.2-.2-.3-.2Zm.8-.2s-.1 0-.1.1.1.2.2.3c0 0 .1.2.2.3l.3.7s.2 0 .2-.2 0-.3-.1-.4c0 0-.1-.2-.1-.3s0-.3-.2-.4c0 0-.2-.1-.3 0Zm.5-1.3s-.2 0-.2.1c0 0 0 .2.1.3.1 0 .2.2.2.3s.4.8.4 1 .2.6.3.8.3.7.4.8c.1 0 .2-.2.1-.3 0-.1 0 0-.2-.3-.1-.2-.7-1.5-.7-1.6 0 0-.2-.5-.2-.6s.1-.3 0-.4c0-.1-.3-.2-.4-.2Zm9.7 3.1c0 .2.1.8.4.8s.3-.3.3-.5c0-.1-.5-.6-.5-.6-.2-.2-.2 0-.2.2Zm7.1 4.1-.1.1s0 .1-.1.1h-.6l-.1.1v.1h-.1l-.5-.5-.1-.2s0-.1-.1-.1-.2 0-.2.1v.3c.1.1.3.2.4.3.2.1.3.3.5.4.1.1.4.4.4.6v.2s-.1 0-.2-.1v.2c0 .2.1.3.2.3 0 0 .3-.2.3-.4s-.1-.3-.2-.4c0 0 0-.1 0 0 0 0 .2.1.3.1h.2s.1-.2.2-.2h.2s.2.2.3 0v-.2h.1c.1 0 0 .1.1 0l.1-.1v-.2h-.6c-.2 0 0-.1-.1-.1h-.2v.1h-.4v.1c0 .1-.1 0-.2 0l-.1-.1V15h.4s.1 0 0 0c0 0 .1 0 0 0v-.1h.6c.2 0 .2 0 .2-.2 0 0-.1-.2-.2-.2l-.2.2s-.3.1-.4.1h-.2s-.2-.1 0-.2c.1 0 .3 0 .4-.1 0 0 .2-.3.1-.3h-.2Z"/><path class="cls-1" d="M40.1 15.5s-.1.1-.1.2c0 0 .1 0 .2.2 0 .1-.2.2-.3.2l-.3-.3s-.1-.3-.2-.3c0 0-.2.2-.1.3l.2.2.2.2s0 .1-.2.1h-.4v-.5s0 .1-.1.2c0 0-.1.2 0 .3 0 0 .2.2.4.2h.6s0 .3.2.3c.1 0 .3 0 .2-.2l-.2-.3v-.1h.3s.2 0 .2-.1-.2-.3-.3-.4c0 0-.1-.1-.2-.1Zm-5.2-6.9s-.2.2-.3.4h-.4s-.2-.2-.3-.2c0 0-.2 0-.2.1s0 .2.1.4.2.1.3.1h.2s0 .1-.1.1c0 0-.3.3-.5.4-.1.1-.5.3-.5.3 0-.1 0 0-.2 0-.1 0 0 .2 0 .3 0 0 0 .1.1.1.2 0 .3-.2.5-.3.2 0 .5-.2.7-.4.1-.1.3-.4.5-.6h.8c.1 0 .2 0 .2-.2 0 0-.1-.2-.3-.2H35l.1-.2s0-.1.1-.1l.2-.2V8h-.3c0 .1 0 .4-.1.4Zm-5.6 4.9h-.2c0-.3-.2-.6-.5-.6h-.7c-.3 0-.4 0-.5-.2 0 .3.2.7.5.7h1c-.6 0-1.2.3-1.4.9-.2.5-.1 1.8-.2 2.3h-.8c-.7 0-.9.6-1 1.3-.1 2.1-.3 4.2-.4 6.3 0 1.7-.4 2.4-1 3h1.1c.2-.2.3-.3.6-.8-.1.4-.2.6-.3.8h1c.2-.4.2-.8.3-1.3.1-2.3.2-4.7.3-7 0-.4.1-.6.4-.6H29v-3.1c-.4 0-.6-.4-.6-.8s.4-.8.8-.8.8.4.8.8-.3.7-.6.8v3.1h1.5c.3 0 .4.2.4.6.1 2.3.2 4.7.3 7 0 .5 0 .9.3 1.3h1c-.1-.2-.2-.5-.3-.8.3.4.4.6.6.8h1.2c-.5-.6-.9-1.3-1-3-.1-2.1-.2-4.2-.4-6.3 0-.7-.3-1.3-1-1.3h-.8c-.1-.6 0-1.8-.2-2.3-.2-.6-.8-.8-1.4-.9h1c.4 0 .5-.4.5-.7-.1.1-.3.2-.5.2h-.7c-.3 0-.5.3-.5.6h-.2Z"/><path class="cls-1" d="M29.3 5.5c8.4 0 15.3 6.9 15.3 15.3s-6.9 15.3-15.3 15.3S14 29.2 14 20.8 20.9 5.5 29.3 5.5m0 .5c-8.1 0-14.8 6.6-14.8 14.8s6.6 14.8 14.8 14.8S44.1 29 44.1 20.8 37.5 6 29.3 6"/><path class="cls-1" d="M15.9 20.4h.7c-.2 0-.3.1-.4.2s-.2.3-.2.5v.3h.2c.1 0 .3-.2.4-.5 0-.2.2-.4.3-.4 0 0 .2-.1.3-.1.2 0 .3 0 .4.2.1.1.2.3.2.5v.6h.1-.6c.1 0 .3-.2.4-.3 0-.1.1-.3.1-.4v-.2h-.2c-.1 0-.2.1-.3.4 0 .2-.1.3-.2.4 0 0 0 .1-.1.2s-.3.2-.4.2c-.2 0-.4 0-.5-.2-.1-.1-.2-.3-.2-.5v-.6Zm.7 3.1h-.2v.2l-.2-1.1s0 .1.1.2h.2l1.2-.2h.2v-.2l.2 1.1s0-.1-.1-.2h-.2zm.8 2.6c-.2 0-.3-.1-.4-.2s-.2-.3-.3-.4v-.8q0-.15.3-.3c.1 0 .2-.2.4-.2h.8c.3 0 .4.3.5.6v.6l-.6.3.3-.3V25c0-.2-.2-.3-.3-.3h-.6c-.3 0-.5.2-.6.3s-.1.3 0 .4c0 0 0 .2.2.3 0 0 .2.1.3.2v.1Zm.7 1.3.5-.3.3.5-.5.3h-.2s-.1 0-.2-.1.6 1 .6 1v-.2s0-.1.1-.2l1.1-.7h.2s.1 0 .2.1-.6-1-.6-1v.2s0 .1-.1.2l-.4.3-.3-.5.4-.3h.2s.1 0 .2.1-.6-1-.6-1v.2s0 .1-.1.2l-1.1.7h-.2s-.1 0-.2-.1.6 1 .6 1v-.2s0-.1.1-.2m2.7 2.7.6-.6s.1-.1.1-.2v-.2l.4.4h-.2s-.1 0-.2.1l-.6.6c-.1 0-.2.2-.3.2h-.5c-.1 0-.2-.1-.3-.2-.2-.2-.3-.4-.3-.5 0-.2 0-.3.3-.5l.7-.6s.1-.1.1-.2v-.2l.8.8h-.2c-.1 0-.1 0-.2.1l-.8.7c-.1 0-.2.2-.2.3 0 0 0 .2.1.3s.2.2.3.1.3 0 .4-.2Zm.6 1 .3-.2.4.3v.4h-.3l.8.7V32l.5-1.8h-.2c0-.1-1.5.8-1.5.8h-.3l.5.4v-.2Zm.4-.2.5-.3-.2.6-.3-.2Zm2.1.3V31s0-.1-.1-.1l.7.3.4 1.4.3-.7v-.2l-.1-.1.6.2h-.2s-.1 0-.1.2l-.7 1.4h-.2l-.5-2-.5 1.1v.2s0 .1.1.1l-.6-.2h.2s.1 0 .1-.2l.5-1.1Zm4.8 2.2v-1.1h-.2.6s-.2 0-.2.1v1.1c0 .1-.1.2-.1.3 0 0 0 .1-.1.2 0 0-.2.1-.3.2H28c-.3 0-.4 0-.6-.2-.1-.1-.2-.3-.1-.5v-1.1h-.2 1.1s-.2 0-.2.1v1.3c-.1.1 0 .3 0 .3s.1.1.3.1.3 0 .4-.1l.2-.4Zm1.1-.8v-.2h-.2l.8-.2 1.1 1v-.8c-.1 0-.1-.2-.2-.2h-.2l.6-.2-.2.2v.2l.2 1.6h-.2L30 32.7l.2 1.2v.2h.2l-.6.2.2-.2v-.2l-.2-1.2Zm3.5.6s0 .2.1.2h.2l-1.1.4.2-.2v-.2l-.3-1.2s0-.2-.1-.2h-.2l1.1-.4-.2.2v.2zm1.8-.3h.1L35 31v-.3l-.5.2h.2V32l-.7-.7h.1l-.9.5h.1l.2.1 1.4 1.2Zm1.5-.8c0-.1.1-.2.1-.2v-.2l-.8-1s-.1-.1-.2-.1h-.2l1.3-1.1.3.4c-.1 0-.2-.1-.3-.1s-.2 0-.3.2l-.2.2.5.6.1-.2s0-.2-.1-.3.6.7.6.7c-.1 0-.2-.1-.3-.1h-.2l.4.5.1.1.2-.1.3-.3v-.4l.3.5-1.3 1.1Zm1.8-3c0-.1.1-.2 0-.3 0 0 0-.2-.2-.3-.1 0-.2-.1-.3-.1 0 0-.2 0-.3.2l.6.5Zm.5.5-.4-.3 1 .2.5-.6h-1.1v-.5c0-.1 0-.2-.2-.3-.1-.1-.3-.1-.4 0-.2 0-.3.2-.5.4l-.7.8h.4l1 .8s.1.1.1.2v.2l.7-.8h-.4Zm1.6-1.3-.6-.3h.5c.2 0 .3-.2.4-.3v-.3s0-.1-.1-.2c-.1 0-.3 0-.6.2-.2.1-.3.2-.5.2h-.3c-.2 0-.3-.2-.3-.4v-.5s.1-.2.2-.3l.2-.1.5.2h-.4c-.1 0-.3.2-.3.3v.2s0 .1.1.2c0 0 .2 0 .5-.2q.3-.15.3-.3h.6c.2 0 .3.2.3.4s0 .4-.1.6c0 .1-.1.2-.2.3-.1 0-.2.2-.2.2Zm1-3-1.2-.4s-.2 0-.2-.1v-.2l-.4 1s0-.1.1-.1h.2l1.2.4s.2 0 .2.1v.2l.4-1s0 .1-.1.1zm-.8-3h.5v.2h-.3s-.1.1-.2.3c0 .1 1.4.5 1.4.5h.2l.1-.2-.2 1.1V24l-.2-.1-1.4-.3v.4s.1.1.3.2h-.5l.4-1.8Zm1-1.5h.8v-.2 1.1-.2h-.7l-.9.5s-.1 0-.2.1v.1-1 .1l.7-.4-.6-.4h-.1v.1-.6.1h.1l.8.4Zm-15 9.3c.2 0 .3 0 .3-.1v-1h-.1l.6-.3v1.2h.3-1.1Zm1.9-.6s-.1 0-.2.1v.2s0 .2.1.2h.5v-.2c0-.1 0-.1-.1-.2-.1 0-.2-.1-.3-.2Zm.2-.3.1-.1v-.3h-.4v.3s.2 0 .3.1m-.4.2s-.2-.1-.2-.2V29c0-.1 0-.2.2-.3.1 0 .3-.1.4-.1h.4s.1.1.1.2v.2s-.1 0-.3.2c.1 0 .2.1.3.2v.2c0 .1 0 .2-.2.3-.1 0-.3.1-.5.1s-.3 0-.5-.1c-.1 0-.2-.2-.2-.3v-.2s.2-.1.3-.2Zm1.2.6h.2c.2 0 .4 0 .5-.1 0-.1.2-.3.1-.4l-.2.2H30c-.1 0-.2 0-.3-.1 0 0-.1-.2-.1-.3 0-.2 0-.3.2-.4.1 0 .3-.2.5-.2s.4 0 .5.2c.1.1.2.3.2.5v.3c0 .1-.1.2-.2.3 0 0-.2.1-.3.2h-.8Zm.6-.5h.2V29s-.1-.1-.2-.1H30v.5h.2Zm1.5-.2h-.2v.5s.1.1.2.1h.2v-.5s-.1-.1-.2 0Zm.6-.5h-.2c-.2 0-.4 0-.5.1 0 .1-.2.3-.1.4l.2-.2h.2c.1 0 .3 0 .3.1 0 0 .1.2.1.3 0 .2 0 .3-.2.4-.1.1-.3.2-.5.2s-.4 0-.5-.2c-.1-.1-.2-.3-.2-.5v-.3s.1-.2.2-.3c0 0 .2-.1.3-.2h.8Z"/><path class="cls-1" d="M29.3 10.7c5.5 0 10.1 4.5 10.1 10.1s-2.1 7.1-5.2 8.8l-.2-.4c3-1.6 5-4.8 5-8.4 0-5.3-4.3-9.6-9.6-9.6s-9.6 4.3-9.6 9.6 2 6.8 5 8.5l-.2.4c-3.1-1.7-5.3-5-5.3-8.8 0-5.5 4.5-10.1 10.1-10.1Zm20.4 20.1h.4c0 .3 0 .6.2.7s.3.2.6.2.4 0 .5-.2c.1 0 .2-.2.2-.4 0-.1 0-.2-.1-.3 0 0-.3-.2-.5-.3-.4-.2-.7-.4-.9-.5-.2-.2-.2-.4-.2-.6 0-.3.1-.6.3-.8s.5-.3.9-.3h.5c.2 0 .4 0 .6.1v1h-.3c0-.3 0-.5-.2-.6-.1-.1-.3-.2-.5-.2s-.3 0-.4.1c-.1 0-.2.2-.2.4 0 .1 0 .2.1.3 0 0 .3.2.6.3h.2q.45.15.6.3c.1.1.2.2.2.3v.4c0 .4-.1.6-.4.9-.2.2-.6.3-1 .3h-.6c-.2 0-.4-.1-.6-.2zm3.2 1.2v-.2h.3v-3.2h-.3v-.2h1.8v.2h-.3v3.2h.3v.2zm5.7-3.6v1.1h-.3c0-.3-.1-.6-.3-.8-.1-.2-.3-.2-.6-.2s-.6.1-.8.4-.3.6-.3 1.1.1.9.3 1.2.5.4.8.4c.2 0 .4 0 .5-.2.2-.1.3-.3.5-.5l.2.2c-.2.3-.4.5-.7.7-.2.1-.5.2-.9.2-.6 0-1-.2-1.3-.5s-.5-.8-.5-1.4.2-1 .5-1.4c.4-.3.8-.5 1.4-.5s.6 0 1.1.1h.1Zm.6 3.6v-.2h.3v-3.2h-.3v-.2H61v.2h-.3v1.3h1.5v-1.2h-.3v-.2h1.7v.2h-.3v3.1h.3v.2H62v-.2h.3v-1.6h-1.5v1.5h.3v.2h-1.7Zm5.1-3.1v-.3H64v-.2h1.8v.2h-.3v2.6c0 .1 0 .2.1.3 0 0 .2.2.3.2h.4c.3 0 .5 0 .7-.3.1-.2.2-.5.2-.9v-1.9h-.3v-.2H68v.2h-.3c-.1 0 0 .1 0 .3v1.7c0 .5-.2.9-.4 1.1s-.6.3-1.1.3-.8-.1-1.1-.3c-.2-.2-.4-.5-.4-.9v-2Zm5.2.4-.5 1.3h1l-.4-1.3Zm-.9 2.2v.2s.1.1.4.2v.2h-1.2v-.2c.1 0 .2 0 .3-.1 0 0 .2-.2.2-.3l1.3-3h.4l1.2 3.2s0 .1.1.2h.3v.2h-1.7v-.2h.4v-.1l-.2-.7h-1.2l-.3.7Zm6.5-.8v-2.1h-.4v-.2h1.2v.2h-.3V32h-.3L73 29v2.7h.4v.2h-1.3v-.2h.4v-3.1h-.3v-.2h1.2l1.8 2.3Zm4.1-1.8v-.3h-.3v-.2h1.8v.2h-.3v2.6c0 .1 0 .2.1.3 0 0 .2.2.3.2h.4c.3 0 .5 0 .7-.3.1-.2.2-.5.2-.9v-1.9h-.3v-.2h1.1v.2h-.3c-.1 0 0 .1 0 .3v1.7c0 .5-.2.9-.4 1.1s-.6.3-1.1.3-.8-.1-1.1-.3c-.2-.2-.4-.5-.4-.9v-2Zm6.9 1.8v-2.1h-.4v-.2h1.2v.2h-.3V32h-.3L84 29v2.7h.4v.2h-1.3v-.2h.4v-3.1c0-.1-.2 0-.3 0v-.2h1.2l1.8 2.3Zm1.2 1.3v-.2h.3v-3.2h-.3v-.2h1.8v.2h-.3v3.2h.3v.2zm4.2 0h-.4L90 28.8s0-.2-.2-.2h-.2v-.2h1.7v.2H91v.2l.8 2.2.9-2.2v-.1h-.3v-.2h1v.2h-.2s-.1.2-.2.2l-1.3 3.2Zm2.1 0v-.2h.3v-3.2h-.3v-.2h2.6v.9H96c0-.2 0-.4-.2-.5-.1 0-.3-.1-.6-.1h-.3V30h.5c.2 0 .3 0 .3-.1s.1-.2.1-.4h.2v1.2h-.2v-.4s-.2-.1-.3-.1H95v1.5h.2c.4 0 .7 0 .9-.2.2-.1.3-.3.4-.6h.2c0 .4-.1.7-.2 1.1zm3.7 0v-.2h.3v-3.2h-.3v-.2h1.8c.4 0 .8 0 1 .2.2.1.3.4.3.6s0 .4-.2.6c-.1.2-.4.3-.7.4.1 0 .3.2.4.4s.3.5.5.8c.1.3.2.5.4.5v.2h-1l-.2-.4c0-.1-.1-.3-.2-.4-.2-.4-.3-.7-.4-.7h-.3v1.3h.3v.2h-1.6Zm1.2-1.9h.2c.3 0 .4 0 .6-.2.1-.1.2-.3.2-.6s0-.5-.2-.6c-.1-.1-.3-.2-.6-.2h-.2V30Zm2.9.7h.4c0 .3 0 .6.2.7s.3.2.6.2.4 0 .5-.2c.1 0 .2-.2.2-.4 0-.1 0-.2-.1-.3 0 0-.3-.2-.6-.3-.4-.2-.7-.4-.9-.5-.2-.2-.2-.4-.2-.6 0-.3.1-.6.3-.8q.3-.3.9-.3h.5c.2 0 .4 0 .6.1v1h-.3c0-.3 0-.5-.2-.6-.1-.1-.3-.2-.5-.2s-.3 0-.4.1c-.1 0-.2.2-.2.4 0 .1 0 .2.1.3 0 0 .3.2.6.3h.2q.45.15.6.3c.1.1.2.2.2.3v.4c0 .4-.1.6-.4.9-.2.2-.6.3-1 .3h-.6c-.2 0-.4-.1-.6-.2v-1Zm3.3 1.2v-.2h.3v-3.2h-.3v-.2h1.8v.2h-.3v3.2h.3v.2zm2.9 0v-.2h.3v-3.1c-.2 0-.4 0-.6.1-.1 0-.2.3-.3.5h-.2v-.9h3.1v.9h-.1c0-.2-.1-.4-.3-.5-.1 0-.3-.1-.6-.1v3.1h.3v.2h-1.8Zm5.1-1.6v1.4h.4v.2h-1.9v-.2h.4v-1.4l-.9-1.6c-.1-.2-.2-.3-.4-.3v-.2h1.7v.2h-.3l.7 1.3.7-1.3h-.3v-.2h1.1v.2h-.2s-.1 0-.1.2l-1 1.6ZM55 17.5c-.2 0-.2-.7-.6-.9-.3-.2-.6-.3-.9-.2-.3 0-.8.5-.8 1.4s.9 3.6 1.3 4c.3.4 1.5.2 1.4-.2-.2-.4-.5-1.6-.2-2.2s.9-1.5 2.6-2.5 3-.9 3.3-.8.2.6.1.8c0 .1-1.2 1.5-1.2 1.6s-.4.3-.4 0c0-.4 0-.8-.5-1-.4-.2-.8-.3-.9.3-.1.4 0 .8.3 1.1.2.2.5.5.3.5-.3 0-1.1.6-1.1.6s-.6 0-.7.4c0 .5.2 1.1.5.9.2-.2 1-.6 1.5-.8s1.3-.5 1.6-.3.3.5.9.8 1.6.3 2 .1 2.9-1.3 3.4-1.3 1.1.5 1.3-.4-1-3.5-2.5-4.1c-1.6-.6-3.4-.8-5.4-.4-2.1.4-3 .8-3.8 1.6s-1 1.1-1.2 1Zm5.3 1.7h-.4c-.2 0 1.3-.9 1.9-1.3.6-.3.3-.7 0-1.1q-.3-.4-.4-.6c.7-.1 1.2-.1 1.9 0 1 0 2.1.4 2.8 1.2.3.5-1.4 1.2-1.9 1.4s-1.9 1-2.2 1.1-.4-.2-.7-.5c-.3-.4-1-.1-1-.1Zm14.4-4.8c-.5 0-.7.2-.6 1 0 .7.5.8.4 2s-.4 3.7-.4 4-.3 1-.4 1.3-.3 1.1.4 1.2.6-.7.7-1c0-.4.5-3.5.5-4s0-1.7.2-2.1c.1-.4.3-.8 0-1.3-.2-.5-.3-1.1-.7-1Zm2.9.5c-.2 0-.5 0-.7.3s0 .9.1 1.3c.1.3.2.7.2 1.1 0 .3 0 2.6.1 2.8.2.2.6 0 .8-.5s.4-1.2.2-1.5c-.1-.3-.1-.7 0-1.1.2-.5 0-1.1 0-1.6 0-.4-.4-.6-.8-.7Zm3.7-3.7c-.2 0-.7 0-.9.1-.2.2-.2.6 0 1.1s.3.9.2 1.2v4.1c0 .8-.1 2.3 0 3.3 0 1 0 2.8.4 3.3s1-.2.8-.7c-.1-.5-.2-.4-.3-1.3-.1-1-.2-6-.2-6.3 0-.4.1-1.8.3-2.3s.8-.9.7-1.4c0-.4-.7-1.1-1-1.1m12 9.1c.4.6 1.6 2.6 2.7 2.2s.6-1.6.2-1.9-2.5-1.2-2.5-1.2c-.9-.4-.6.6-.4 1Zm-1.1-6.8c.1 0-.1-1-.1-1.5s.4-.8.7-.7c.3 0 .7.8.7 1.1s-.2.6-.3.9c-.1.1-.2.3-.2.7 0 .2-.1.5-.2.9.3 0 .7-.2.8-.3.2-.1.6-.3 1-.6.3-.3.7 0 1.1.2s0 .6-.3.8c-.4.2-.7.1-1 .2-.2.1-1.3.6-1.8.9-.1.8-.4 2.1-.7 2.7-.3.7-1.1 1.7-1.6 2.3s-.8 1.4-1.2 1.7-.6.1-.7-.2-.5-.7-.2-1.1.4-.8.6-.5c.2.4.6.2.5.2 0 0 1-1.2 1.3-1.7s.7-1.8.9-2.1c0 0 0-.3.2-.7-.2.1-.5.3-.7.5-.4.3-.5.4-1.2.1s-.9-.7-1-1.1.2-.7.4-.7.9 0 1.3.2c.4 0 1.3-.4 1.5-.5.2-.9.3-1.7.4-1.7Zm11.6-.9c0 .1.2.4.3.5s.4.4.4.5v1.3c0 .2-.1.8 0 1l.3.6s.3.1.4-.1c0-.2.3-.2.3-.2s.5.2.3.3 0 .2-.3.3-2.3 1.3-2.3 1.3-.7.2-.8.2c-.2 0-.5 0-.5.2s0 .6.2.8c0 0 .6.2 1 0 .5-.2 1-.9 1.4-1.2.6-.5 1.2-.9 1.9-1.2.6-.3 1.8-.8 2.4-.9.6 0 .7.2.6.4s-.4.5-.6.6-.1.3-.1.3.2 0 .7-.2 1.3-.1 1.4-.3c0-.2-.2-1.3-.9-1.4s-1.5.1-1.7.2c-.2 0-.4 0-.2-.3s.6-.5.7-1.1c.2-.5.4-.6.2-.9-.2-.2-.5-.7-.6-.8-.1 0 0-.3.4-.5s.8-.6.6-.9-.7-.1-.7-.4-.2-.4 0-.5c.2 0 .5-.1.4-.3 0-.1-.2-.4-.4-.6s-.6-.2-.6 0v1.4c.1.1.2.2.2.3s0 .4-.3.5-.5.1-.5.3v.8s.4 0 .3.4-.6 1.3-.5 1.5.3 0 .3.3c0 .2.1.6 0 .7s-.6.3-.6.3-.5.1-.4-.3.2-1.2.3-1.3c0-.1.2-.3 0-.4-.2 0 0-.4-.2-.3-.2 0-.4.2-.4-.1s.4-1.4.5-2c0-.6-.1-.8-.3-.9s-.8.2-.8.4.3.5.3.9v2.3c0 .1-.7.6-.6 0 0-.5.1-1.2 0-1.5s-.7-.8-.9-.8-.3.4-.3.5Zm1.5 5.9c0-.3.4-.5.6-.5s1.2-.5 1.6-.5.4.6.3.9-.3.7-.5.9.5.3.5.3.9-.2 1.3-.2.4.6.3 1c0 .4-1.1.3-1.3.2-.2 0 0 .4-.1.6 0 .2 0 .6-.2 1.3s-.7 1.2-1 1.4-.9-.2-1.1-.5c-.1-.3-.4-.2-.5-.6s.6-.2.9 0 .8.1 1 0c.3 0 .4-1 .5-1.4s-.2-.6-.4-.7c-.1 0-.6.2-1 .4s-.7.5-1.1.6-.8-.3-.9-.7c0-.4 1-.4 1.2-.5.2 0 1.5-.6 1.5-.6 0-.3.2-1.1-.3-1.2-.3 0-.5.4-.7.4-.3 0-.5-.3-.5-.6Z"/></g></svg>