<svg width="128" height="137" fill="none" xmlns="http://www.w3.org/2000/svg"><g filter="url(#a)" fill-rule="evenodd" clip-rule="evenodd" fill="#144e8c"><path d="M80.522 80.474h2.004v-.586h-2.004zm.025-5.031v4.226l1.563.024.049-.049.025-.074.024-.147.025-.17.024-.17v-.172l-.024-.147-.025-.122-.122-.22-.171-.195-.146-.122-.05-.073.05-.147.073-.44-.025-.17-.024-.171-.073-.171-.098-.147-.122-.122-.098-.122-.146-.099-.123-.096v-.099l-.072-.293-.05-.097-.073-.098-.073-.098-.098-.073-.146-.097-.074-.05Zm-.097-5.471h.44v-.562h-.44zm.048 2.1h.391v-.561h-.39v.56Zm-.024-2.76v-.244h.097v-.098l.026-.195.048-.171.049-.073.073-.073.098-.074.097-.048.171-.098.147-.097.024-.123-.024-.073h.024l.025-.025h.073l.049.025.025.025.048.024.05.097v.22l-.025.073-.098.147-.073.049-.05.073-.072.098-.05.122-.049.17-.072.147-.05.049-.073.049-.073.024zm-2.003-.244v.195l-.122.025-.196-.025-.097-.024-.123-.049-.121-.048-.098-.074-.049-.073-.048-.049-.026-.05v-.12l.026-.05.048-.05.073-.047.074-.05v-.121l.049-.074.097-.073.074-.025h.22l.073.025v.733zm-.024 4.08.024-.953H77.47l.024.023.024.074.05.098.073.098.097.073.074.073.196.146.195.098.17.171.074.098Zm-3.029 0v-.953h1.002l-.025.023-.024.074-.05.098-.072.098-.098.073-.073.073-.196.146-.195.098-.171.146-.098.123Zm0-1.076h3.053v-.561h-3.053v.56Zm0-.708h3.053v-1.197h-3.053zm-2.222-2.687v-.22h-.074l-.024-.097v-.195l-.073-.171-.293-.244-.269-.195.025-.124.024-.072-.049-.025h-.049l-.073.025-.05.024-.073.024-.049.05-.048.072-.024.049v.073l.147.319.219.292.049.17.073.148.073.049.05.048.097.025h.098zm1.147-3.687h.099l.048.048.073.05.048.073.1.17.047.147.05.22v.098l.073.073.097.073.074.097.049.098.024.098.024.122-.024.073-.048.098-.075.073-.024.073v.025l-.048.024h-.049l-.562-.024h-.659v-.025l-.025-.024v-.049l-.073-.098-.049-.073-.024-.098v-.097l.048-.098.05-.122.073-.098.073-.073.098-.048v-.123l.05-.22.047-.147.098-.145.05-.074.047-.073.074-.024.073-.025h.073zm-3.785 7.131h-1.026v1.002h.073l.098-.05.049-.097.073-.17.05-.074.097-.05.122-.048.122-.098.122-.073.098-.098.073-.097.073-.073v-.05zm4.86-2.15h3.053v-.56h-3.053zm0-.66h.342v-.487h-.342zm0-.634-.025-.22h.099l.024-.097v-.195l.048-.171.318-.244.269-.195-.024-.124-.05-.072h.025l.049-.025h.049l.073.025.049.024.073.024.05.05.048.072.024.049v.073l-.17.319-.196.292-.049.17-.073.148-.073.049-.074.048-.074.025h-.097zm3.957-2.613h.122l.073.024.098.049.073.098.025.073.097.171.05.195.023.122.05.05.073.048.048.074.025.048.024.073v.075l-.024.097-.122.122-.024.049v.024l.024.024.024.05.025.048v.073l-.025.025h-1.196l-.024-.025v-.073l.048-.098.025-.024-.025-.025v-.048l-.048-.05-.074-.072-.024-.097v-.148l.048-.048.05-.074.048-.049.074-.049.024-.122.049-.195.073-.171.049-.073.073-.098.098-.05zm-.806 1.759-.073.024-.025.048v.929l.025.049.073.024h1.758l.074-.024.025-.05v-.928l-.025-.048-.074-.024zm.098 1.245v.61l.049.025V80.4h1.562V69.068zm-5.35-2.198-.023.024h-.025l-.025.05v1.245l.025.025.025.024.024.024h2.003l.024-.024.024-.024.024-.025v-1.245l-.024-.05h-.024l-.024-.024h-2.003Zm.147 13.58h1.66V68.555h-1.66zm-1.319-8.329h1.026v1.002h-.073l-.098-.05-.05-.097-.072-.17-.05-.074-.096-.05-.123-.048-.121-.098-.123-.073-.097-.098-.074-.097-.073-.073v-.05l.025-.024Zm-2.613-.27h3.639v-.536h-3.64v.537Zm0-.707h3.639v-1.612h-3.64zm0-1.807h3.639v-.562h-3.64zm0-.684h.538v-.683h-.538zm.073-1.612h.074l.122-.073.122-.123.097-.122.147-.073.196-.025.073-.024.073-.049.049-.049.024-.048-.024-.074-.049-.073.049.024.024-.024.049-.024.098-.025.097.049.074.098.073.073v.098l-.025.097-.097.147-.122.123-.147.121-.073.074-.049.146-.073.195-.049.098-.073.098-.098.048-.097.026h-.465zm-1.22-3.859.097.024.073.025.073.073.05.073.121.147.074.17.048.27v.121l.097.074.099.073.073.097.048.099.025.097v.122l-.025.097-.048.099-.049.147v.121l-.024.024-.024.026h-1.515l-.024-.026-.025-.024v-.121l-.048-.147-.05-.099-.024-.097v-.122l.024-.098.05-.098.073-.097.073-.073.122-.074v-.121l.049-.27.073-.17.098-.147.073-.073.073-.073.074-.025.098-.024h.097Zm-1.15 2.15h2.2l.049.024.024.025.024.024v1.367l-.024.05h-.024l-.05.023h-2.198l-.024-.024h-.05v-.049l-.024-.024v-1.32l.025-.023v-.024l.049-.025.024-.025Zm.196 15.093h1.807v-13.36h-1.807zm-.293-12.627v-.684l-.024-.025-.098-.097-.171-.22-.17-.195-.098-.074-.123-.024-.121.024-.147.05-.147.22-.121.268v.17l.024.098.048.098.073.073.074.098.097.073.27.073.293.05.243.024zm-1.27 4.079 1.222.024v1.123h-.074l-.147-.073-.072-.073-.05-.073-.024-.073-.024-.074v-.073l-.025-.049-.073-.024-.171-.05-.121-.048-.099-.073-.097-.098-.074-.098-.121-.17zm-20.516 8.597h2.003v-.586h-2.003zm1.978-5.031v4.226l-1.539.024-.048-.049-.05-.074-.023-.147-.025-.17v-.489l.049-.122.122-.22.146-.195.148-.122.048-.073-.048-.147-.074-.44.024-.17.05-.171.048-.171.098-.147.122-.122.122-.122.122-.099.122-.096v-.099l.073-.293.05-.097.073-.098.073-.098.098-.073.171-.097.048-.05Zm-.341-5.471h.464v-.562h-.464zm0 2.1h.39v-.561h-.39v.56Zm.415-2.76v-.244h-.074l-.024-.098-.024-.195-.05-.171-.048-.073-.073-.073-.098-.074-.073-.048-.196-.098-.147-.097-.024-.123.024-.073h-.024l-.024-.025h-.073l-.024.025-.05.025-.049.024-.048.097v.22l.048.073.025.074.074.073.048.049.049.073.073.098.05.122.048.17.073.147.073.049.049.049.098.024zm2.002-.244v.195l.123.025.195-.025.098-.024.122-.049.122-.048.098-.074.073-.073.025-.049.024-.05v-.12l-.024-.05-.05-.05-.073-.047-.073-.05v-.121l-.049-.074-.098-.073-.048-.025h-.245l-.073.025.024.733-.17.024Zm.025 4.08v-.953h.977v.023l-.05.074-.048.098-.073.098-.073.073-.098.073-.195.146-.195.098-.172.171-.073.098Zm3.029 0v-.953h-.977v.023l.024.074.073.098.074.098.072.073.099.073.195.146.196.098.145.146.099.123Zm-3.054-1.076h3.054v-.561h-3.054v.56Zm0-.708h3.054v-1.197h-3.054zm5.276-2.687v-.22h.073l.025-.097.025-.195.048-.171.293-.244.269-.195-.024-.124-.026-.072.05-.025h.049l.073.025.073.024.049.024.049.05.049.072.024.049.025.073-.171.319-.22.292-.05.17-.072.148-.05.049-.073.048-.097.025h-.098zm-1.124-3.687h-.097l-.073.048-.073.05-.05.073-.073.17-.073.147-.049.22v.098l-.073.073-.098.073-.048.097-.074.098-.025.098-.024.122.024.073.05.098.073.073.024.073v.025h.025l.024.024h.05l.56-.024h.66l.024-.025v-.073l.073-.098.05-.073.025-.098v-.097l-.05-.098-.049-.122-.072-.098-.075-.073-.073-.048-.024-.123-.048-.22-.05-.147-.073-.145-.073-.074-.05-.073-.072-.024-.073-.025h-.05zm3.761 7.131h1.026l.025.978-.025.024h-.072l-.098-.05-.05-.097-.048-.17-.073-.074-.098-.05-.122-.048-.122-.098-.123-.073-.097-.098-.072-.097-.05-.073-.025-.05zm-7.913-2.15h3.054v-.56h-3.054zm2.712-.66h.342v-.487h-.343v.488Zm.342-.634.024-.22h-.098v-.097l-.025-.195-.048-.171-.318-.244-.244-.195v-.124l.049-.072h-.025l-.024-.025h-.073l-.073.025-.05.024-.072.024-.05.05-.049.072-.024.049v.073l.171.319.196.292.048.17.099.148.048.049.073.048.074.025h.097zm-3.957-2.613h-.123l-.073.024-.073.049-.098.098-.024.073-.073.171-.074.195v.122l-.073.05-.073.048-.049.074-.025.048-.024.073v.075l.049.097.049.073.05.049.023.049v.048l-.049.05-.024.048.024.073v.025h1.197l.025-.025v-.073l-.05-.098v-.049l.05-.097.073-.073.024-.097v-.148l-.048-.048-.05-.074-.049-.049-.073-.049-.024-.122-.048-.195-.074-.171-.05-.073-.072-.098-.098-.05zm.83 1.759.049.024.024.048v.929l-.024.049-.05.024H47.55l-.048-.024-.025-.05v-.928l.025-.048.048-.024zm-.122 1.245v.61l-.049.025V80.4H47.6V69.068h1.612Zm5.348-2.198.026.024h.024l.025.05v1.245l-.05.049-.025.024h-1.978l-.048-.024-.05-.05v-1.245l.026-.049h.024l.048-.024zm-1.807 13.58h1.662V68.555h-1.662zm3.005-8.329h-1.05v1.002h.098l.072-.05.049-.097.074-.17.049-.074.097-.05.123-.048.122-.098.122-.073.195-.195.049-.073.024-.05zm-1.05-.27h3.663v-.536h-3.664v.537Zm.023-.707h3.615v-1.612h-3.614v1.612Zm-.024-1.807h3.64v-.562h-3.64zm3.103-.684h.536v-.683h-.536zm.464-1.612h-.074l-.122-.073-.097-.123-.122-.122-.148-.073-.17-.025-.098-.024-.072-.049-.05-.049-.025-.048.024-.074.05-.073-.025.024-.098-.048-.097-.025-.074.049-.097.098-.049.073-.025.049.025.05.024.096.074.147.122.123.146.121.075.074.048.146.072.195.05.098.073.098.097.048.099.026h.464zm1.22-3.859-.072.024-.098.025-.074.073-.048.073-.098.147-.073.17-.074.27v.121l-.195.147-.05.097-.048.099-.048.097v.122l.024.097.073.099.05.147v.145l.023.026H60.3l.05-.026v-.145l.049-.147.048-.099.024-.097v-.122l-.024-.098-.048-.098-.074-.097-.073-.073-.098-.074-.025-.121-.049-.27-.072-.17-.098-.147-.073-.073-.073-.073-.074-.025-.073-.024h-.122Zm1.148 2.15h-2.197l-.05.024-.024.025-.025.024v1.367l.025.05h.025l.049.023h2.197l.05-.024h.023l.025-.049v-1.367l-.025-.024-.024-.025-.048-.025ZM58.64 80.424h1.807v-13.36H58.64zm2.1-12.627v-.684l.05-.025.072-.097.172-.22.17-.195.098-.074.122-.024.122.024.147.05.146.22.123.268.024.024v.074l-.024.073-.025.097-.048.098-.074.073-.073.098-.098.073-.268.073-.294.05-.244.024zm1.27 4.079-1.22.024v1.123h.072l.147-.073.073-.073.05-.073.024-.073.024-.074v-.073l.025-.049.073-.024.17-.05.123-.048.098-.073.097-.098.098-.098.122-.17.025-.098Zm5.13-3.932h-6.4v.659h6.4zm0 3.15h-6.4v.66h6.4zm0-2.271h-6.4v2.002h6.4zM42.958 80.67h42.4l-3.395 3.492h-36.49L42.96 80.67Zm18.001-29.578-.17.098-.172.073-.122.098-.146.097-.221.22-.17.196-.172.17-.146.22-.146.27-.098.291-.074.05-.073.025-.147.024-.22.048-.267.05-.294.024h-.293l-.268-.025-.22-.073-.196-.072-.391-.246-.44-.34-.22-.124-.243-.146-.244-.098-.245-.122-.416-.146-.17-.05.097-.097.27-.244.293-.317.244-.294.17-.269.147-.268.074-.147.097-.122.122-.146.122-.123.147-.122.146-.097.147-.098.171-.098.195-.048.22-.074.268-.024.294-.025.317-.024.269.049.245.049.219.073.22.098.195.122.195.147.196.146.195.171.171.22.147.22.122.244.171.39.049.171zm.488-3.321.147.024.121.024.123.074.098.073.074.122.073.098.023.146.025.122-.025.146-.023.123-.073.122-.074.098-.098.097-.244.098H61.3l-.121-.049-.123-.049-.097-.097-.074-.098-.073-.122-.048-.123v-.268l.048-.146.073-.098.074-.122.097-.073.123-.074.121-.024zm5.3 3.321.073-.025.05-.17.17-.391.123-.245.147-.22.17-.219.195-.171.196-.147.195-.146.196-.122.195-.098.22-.073.537-.098.318.024.292.025.27.024.22.074.195.048.171.098.146.098.147.097.147.122.12.123.1.146.097.122.098.147.293.537.244.294.561.561.123.098-.172.049-.415.146-.244.122-.268.098-.245.146-.195.123-.464.341-.39.245-.196.073-.22.073-.244.025h-.318l-.269-.025-.268-.049-.22-.048-.171-.024-.049-.024-.073-.05-.122-.293-.122-.269-.171-.22-.146-.17-.196-.196-.22-.22-.123-.097-.145-.098zm-.464-3.321.122.024.147.024.097.074.099.073.096.122.05.098.049.146.025.122-.025.146-.048.123-.05.122-.097.098-.099.097-.097.05-.147.048h-.268l-.122-.049-.122-.049-.098-.097-.098-.098-.049-.122-.049-.123v-.268l.049-.146.05-.098.097-.122.098-.073.122-.074.122-.024zm-2.418 8.377-.195-.196-.293-.268-.318-.293-.317-.269-.147-.073-.171-.073-.195-.05-.22-.073-.464-.097-.415-.123-.147-.024-.122-.073-.097-.073-.123-.074-.17-.195-.147-.22-.122-.22-.074-.22-.024-.22.024-.195.05-.17.072-.172.074-.147.073-.146.196-.244.097-.098.122-.098.123-.073.121-.073.123-.05.146-.048.27-.073h.292l.22.024.244.074.244.097.22.098.44.27.317.243.098.049.074.024h.219l.097-.024.075-.049.34-.244.416-.27.245-.097.244-.097.22-.074.22-.024h.293l.292.073.123.049.121.05.147.072.123.073.097.098.122.098.097.122.099.122.073.146.074.147.073.171.049.17.023.197-.097.44-.122.219-.147.22-.196.195-.096.074-.124.073-.121.073-.122.024-.44.123-.439.097-.22.073-.195.05-.171.073-.147.073-.318.269-.341.293-.27.268zm.147 1.514h-.293l-.147-.024-.147-.05-.146-.072-.269-.147-.244-.196-.219-.243-.196-.245-.146-.269-.122-.268-.147-.317-.049-.22.196.073.219.097.22.147.244.22.44.415.318.318.195.195.146.097.122-.097.22-.195.318-.318.415-.416.244-.219.245-.147.195-.097.195-.074-.049.22-.122.318-.122.268-.17.269-.196.245-.22.243-.245.196-.268.147-.122.073-.146.049zm-.147-10.306.122.023.148.025.12.073.1.074.072.121.073.099.025.146.025.122-.025.147-.025.121-.073.123-.073.097-.098.098-.121.049-.148.05-.122.023-.146-.024-.123-.05-.122-.048-.097-.098-.098-.097-.049-.123-.049-.121v-.269l.05-.146.048-.099.098-.121.097-.074.123-.073.122-.025zm-.44 1.953v2.15l-.048-.025-.049-.05-.025-.145-.024-.196-.098-.317-.146-.343-.171-.39-.22-.342-.171-.269-.073-.097-.66.488.17.195.148.27.147.293.122.268.049.122.048.098-.17-.05-.171-.023-.172-.025h-.17l-.05-.146-.073-.196-.098-.268-.17-.319-.123-.219-.146-.22-.171-.22-.171-.195-.195-.195-.22-.171-.269-.172-.317-.146-.294-.122-.292-.074-.318-.048-.318-.024v-.025l.024-.415.05-.367.097-.342.148-.39.072-.22.098-.244.049-.245.024-.219.05-.44.048-.268h.049l.196.097.292.098.49.097.56.123.489.122.17.073.172.073.171.098.171.098.318.22.317.243.317.245.318.22.146.098.172.097.17.073.171.05.171-.05.171-.073.148-.097.17-.099.317-.219.294-.245.317-.243.317-.22.171-.098.171-.098.171-.073.195-.073.49-.122.537-.123.488-.097.293-.098.22-.097h.024l.05.268.072.44.025.22.048.244.074.243.098.22.146.391.098.343.049.366v.44l-.293.024-.318.048-.317.074-.27.122-.317.146-.268.172-.244.171-.195.195-.172.195-.147.22-.145.22-.148.22-.146.318-.122.268-.049.196-.049.146h-.17l-.172.025-.171.024-.17.049.024-.098.049-.122.122-.268.146-.294.171-.269.147-.195-.659-.488-.074.097-.171.269-.195.341-.196.392-.121.342-.099.317-.024.196-.024.146-.073.049-.05.024V49.31h-.855Zm-2.515 6.13.098.293.122.294.122.293.147.292.17.294.392.537.22.22.17.171.196.146.17.123.22.097.196.098.244.073.22.05.268.024.245-.024.245-.05.219-.073.22-.098.195-.097.195-.123.171-.146.391-.39.22-.27.17-.268.172-.294.146-.292.147-.293.122-.294.097-.292.27-.098.268-.123.22-.146.22-.196.17-.219.147-.244.147-.293.098-.318v-.048l.024-.05v.05l.073.024.22.048.317.05.342.048h.343l.292-.048.27-.05.194-.024.147-.048.147-.05.146-.098.147-.097.293-.244.342-.245.415-.219.464-.22.463-.196.441-.17.195-.05.122-.073.098-.073.073-.073.049-.074L74 51.8v-.122l-.024-.073-.049-.073-.073-.074-.098-.122-.293-.244-.39-.317-.22-.172-.196-.22-.17-.22-.148-.219-.146-.244-.146-.22-.172-.22-.195-.22-.27-.22-.291-.22-.318-.17-.22-.098-.244-.074-.294-.048v-.464l-.024-.318-.024-.22-.22-.586-.22-.586-.072-.293-.075-.342-.048-.39-.025-.392v-.292l-.024-.074-.024-.049-.025-.048-.049-.024-.122-.05-.17-.049h-.27l-.097.05-.22.097-.244.097-.27.099-.267.072-.319.05-.366.098-.365.096-.27.099-.341.146-.318.146-.293.172-.268.17-.563.392-.562.439h-.048l-.586-.44-.538-.39-.586-.343-.293-.146-.342-.146-.269-.099-.366-.096-.39-.099-.294-.049-.268-.072-.269-.099-.269-.097-.219-.098-.074-.049h-.268l-.171.05-.147.049-.048.024-.025.048-.024.05v.073l-.025.145.025.148-.025.39-.049.39-.073.343-.293.88-.22.585-.05.22-.023.318v.293l.023.17-.292.05-.244.073-.245.098-.293.17-.317.22-.269.22-.195.22-.146.22-.172.22-.147.244-.145.22-.343.44-.22.17-.39.318-.294.244-.122.122-.073.074-.05.073-.023.073v.122l.024.074.049.073.073.073.098.073.147.073.17.05.44.17.49.196.463.22.39.22.343.244.317.244.147.097.146.099.147.048.146.049.171.024.269.05.317.048h.318l.366-.048.318-.05.195-.048.098-.025.024.049.098.318.122.293.147.244.195.22.195.195.245.146.244.123.268.098z"/><path d="m63.988 20.977-1.1.024-2.198.099-1.099.097-2.149.293-1.05.17-1.05.196-1.05.22-1.05.269-1.026.268-1.002.318-1.002.317-1.002.342-1.953.782-.952.415-.953.44-.928.464-.928.488-1.808 1.026-.879.562-.855.562-.855.585-.83.611-.83.635-.807.66-.781.66-.782.683-.757.709-.733.707-.708.758-.708.733-.684.782-.66.782-.66.806-.634.83-.61.83-.587.855-.562.854-.56.88-1.028 1.807-.488.928-.463.928-.44.953-.415.952-.416.977-.366.977-.684 2.003-.293 1.001-.269 1.026-.268 1.05-.22 1.051-.196 1.05-.17 1.05-.171 1.075-.122 1.074-.098 1.1L21 62.889l-.024 1.1v.023l.024 1.1.098 2.197.098 1.1.122 1.074.17 1.075.171 1.05.196 1.05.22 1.05.268 1.05.269 1.026.635 2.004.341 1.001.367.977.416.977.415.952.44.953.463.928.488.928 1.027 1.807.561.88.562.855.586.854.61.83.636.832.66.806.66.781.683.78.708.758.708.734.733.708.757.707.782.685.781.66.806.659.831.635.83.61.855.586.855.562.88.562 1.807 1.026.928.489.928.463.953.44.952.415.977.415.976.367 2.004.684 1.002.292 1.025.27 1.05.268 1.05.22 1.051.196 1.05.171 1.074.17 1.075.122 1.1.098 2.197.098 1.1.024 1.123-.024 2.199-.098 1.074-.098 1.1-.122 1.074-.17 1.05-.171 1.05-.196 1.05-.22 2.052-.538 1.026-.316 1.001-.318 1.001-.342.978-.367.976-.415.953-.415.953-.44.928-.463.928-.489.904-.513.879-.513 1.76-1.124.853-.586.83-.61.807-.635 1.611-1.32.758-.684 1.515-1.415.707-.734.709-.757.684-.78.66-.782.659-.806.635-.831.586-.83.61-.855.562-.855.538-.88.537-.903.513-.904.488-.928.464-.928.44-.953.415-.952.782-1.954.342-1.001.317-1.002.318-1.002.268-1.025.489-2.101.195-1.05.172-1.05.145-1.075.123-1.074.097-1.1.074-1.099.049-1.099.024-1.099h-.024v-.024h.024l-.024-1.1-.049-1.098-.074-1.1-.097-1.099-.123-1.074-.145-1.075-.172-1.05-.195-1.05-.489-2.1-.268-1.027-.318-1.001-.317-1.002-.342-1.001-.782-1.954-.415-.952-.44-.953-.464-.928-.488-.928-.513-.904-.537-.904-.538-.879-.561-.854-.611-.855-.586-.83-.635-.83-.66-.806-.66-.782-.683-.782-.709-.733-.707-.758-1.515-1.416-.758-.684-.805-.659-.782-.66-.83-.635-.83-.61-.855-.586-1.76-1.124-.878-.512-.904-.514-.928-.488-.928-.464-.953-.44-.953-.415-1.954-.782-1.001-.342-1.001-.317-1.026-.318-1.026-.268-1.026-.27-1.05-.22-1.05-.195-1.05-.17-1.074-.171-1.1-.122-1.074-.097-2.199-.1-1.123-.024Zm.733 15.241h-1.442l-.708.024-.708.049-.708.073-.71.074-.683.097-1.367.245-.685.146-.659.171-.659.17-.66.196-.66.22-.634.22-.635.244-.61.245-.636.268-1.221.587-.586.317-.587.342-.586.341-.562.342-.561.367-1.612 1.172-.513.44-.513.415-.513.44-.488.463-.464.465-.929.977-.439.489-.416.512-.439.513-.781 1.075-.391.537-.367.562-.367.586-.342.562-.317.586-.317.61-.293.587-.293.61-.27.635-.243.61-.245.636-.244.66-.195.634-.196.66-.17.66-.171.683-.147.66-.147.684-.097.683-.098.709-.073.684-.073.708-.05.708-.024.708v1.441l.024.709.05.708.073.708.073.71.195 1.366.294 1.368.17.66.171.659.391 1.32.244.634.245.635.244.61.269.636.293.61.293.611.317.586.317.586.342.586.734 1.124 1.172 1.612.44.513.415.512.44.514.464.464.464.488.61.611.635.562.66.561.659.538.708.537.684.489 1.465.927.758.44.757.415.782.367.806.366.806.342.805.317.831.294.855.244.561-.855-.83-.244-.806-.27-.83-.316-.782-.318-.806-.342-.757-.39-.757-.391-.758-.416-.731-.439-.71-.489-.683-.488-.684-.513-.66-.513-.66-.562-.634-.562-1.05-1.05-.44-.488-.415-.464-.415-.489-.415-.512-.782-1.026-.366-.538-.342-.537-.343-.562-.341-.537-.318-.562-.586-1.172-.537-1.173-.244-.61-.22-.61-.22-.636-.22-.61-.171-.635-.195-.636-.148-.66-.145-.634-.123-.659-.097-.66-.098-.684-.073-.659-.074-.684-.049-.683-.024-.685v-1.392l.024-.684.05-.684.073-.684.073-.659.098-.684.097-.66.123-.66.145-.634.172-.66.342-1.27.22-.61.22-.635.22-.61.244-.611.537-1.173.586-1.172.318-.563.341-.536.343-.562.342-.537.366-.538.782-1.026.415-.488.415-.513.416-.464.439-.489.439-.44.465-.463.487-.44.466-.415.488-.415.512-.415.513-.391.513-.366 1.075-.733.537-.342 1.124-.635.586-.318.586-.292 1.172-.538.61-.244 1.223-.44.634-.22.636-.17.634-.172.66-.17.635-.147.659-.122.66-.098.684-.098.659-.073.684-.073.683-.049.684-.024h1.392l.685.024.683.049.685.073.659.073.66.098.683.098.66.122.634.146.66.171.635.172.635.17.61.22.636.22.61.22.586.244.612.269.585.269.586.292.563.318.585.318.538.317.562.342.537.367.537.366.513.366.513.39.977.831.489.416.464.44.464.463.464.44.44.488.415.464.415.513.415.488.39.514.367.512.733 1.075.342.562.318.536.317.587.317.562.293.586.538 1.173.244.61.22.61.22.636.195.61.195.636.172.635.17.659.147.635.122.66.098.659.098.684.073.66.073.683.074 2.052v.024l-.074 2.052-.073.684-.073.66-.098.683-.098.66-.122.66-.146.633-.171.66-.171.636-.196.635-.196.61-.219.635-.22.61-.244.611-.538 1.173-.293.586-.317.586-.317.562-.318.537-.342.562-.733 1.075-.366.512-.391.514-.415.512-.415.489-.416.464-.44.488-.463.44-.611.61-.61.562-.66.562-.66.513-.683.513-.684.488-.733.489-.733.44-.732.415-.757.39-.782.391-.782.342-.806.318-.805.317-.806.269-.856.244.587.855.855-.244.83-.294.806-.317.806-.342.806-.366.782-.367.757-.415.757-.44.732-.439 1.417-.977 1.367-1.075.66-.561.636-.562.61-.61.464-.49.464-.463.44-.514.83-1.025.415-.537.782-1.075.367-.562.342-.562.684-1.172.317-.586.586-1.221.268-.635.246-.611.243-.635.22-.66.22-.634.195-.66.342-1.319.147-.684.244-1.367.097-.709.075-.684.072-.708.05-.708.023-.709v-1.44l-.024-.709-.049-.708-.073-.708-.074-.684-.097-.709-.244-1.367-.147-.66-.17-.684-.172-.66-.195-.659-.22-.635-.22-.659-.243-.635-.246-.61-.268-.636-.292-.61-.294-.586-.317-.611-.343-.587-.341-.561-.342-.586-.367-.562-.782-1.075-.415-.537-.83-1.025-.44-.489-.928-.977-.488-.465-.489-.463-.488-.44-.513-.415-.514-.44-1.611-1.172-.563-.367-.585-.342-.561-.34-.587-.343-.61-.318-.586-.293-.611-.293-.636-.268-.61-.245-.635-.243-.66-.221-.634-.22-.66-.195-.66-.17-.683-.172-.66-.146-1.368-.245-.708-.097-.684-.075-.708-.072-.708-.05zM63.988 20l2.27.048 1.125.074 1.123.098 2.198.293 1.074.17 2.15.44 1.074.27 1.052.267 1.025.319 2.052.683 1 .39 1.002.416.977.416 1.906.927.952.514.928.512.904.537.903.562 1.76 1.173.854.635.83.634.83.66.806.684.807.71 1.514 1.464 1.466 1.514 1.367 1.613.66.805.66.855 1.22 1.71.587.903.562.88.537.927.512.929.514.928.463.977.465.953.415.976.415 1.002.367 1 .365 1.027.342 1.026.294 1.026.292 1.05.269 1.075.22 1.05.22 1.099.171 1.075.147 1.099.122 1.1.098 1.122.073 1.124.049 1.123.024 1.124v.024l-.024 1.123-.049 1.124-.073 1.124-.098 1.123-.122 1.1-.147 1.098-.171 1.075-.22 1.099-.22 1.05-.269 1.075-.292 1.05-.294 1.027-.342 1.025-.365 1.026-.367 1.002-.415 1-.415.978-.465.977-.463.952-.514.928-.512.928-.537.928-.562.88-.587.904-1.22 1.709-.66.856-.66.805-1.367 1.612-1.466 1.514-1.514 1.466-.806.708-.807.684-.83.66-.83.634-.854.636-.856.585-.904.586-.903.562-.904.537-.928.514-.952.513-1.906.928-.977.415-1.001.415-1.001.391-2.052.683-1.025.319-1.052.268-1.074.268-2.15.44-1.074.171-2.198.293-1.123.098-1.125.073-2.27.049-2.247-.049-1.124-.073-1.123-.098-2.199-.293-1.074-.171-1.1-.22-1.05-.22-1.074-.268-1.05-.268-1.027-.319-2.05-.683-1.002-.391-1.002-.415-.977-.415-.977-.465-.952-.463-.929-.513-.927-.514-.928-.537-.905-.562-.879-.586-.854-.585-1.71-1.27-.806-.66-.805-.684-.807-.708-1.514-1.466-1.466-1.514-.708-.806-.684-.806-.66-.805-1.27-1.711-.586-.854-.586-.905-.562-.879-.537-.928-.538-.928-.488-.928-.464-.952-.463-.977-.416-.978-.415-1-.391-1.002-.684-2.051-.318-1.027-.268-1.05-.268-1.074-.22-1.051-.22-1.099-.171-1.075-.294-2.198-.097-1.123-.074-1.124L20 64.012v-.024l.048-2.247.074-1.124.097-1.123.294-2.198.17-1.075.22-1.099.22-1.05.269-1.076.268-1.049.318-1.026.684-2.052.39-1 .416-1.003.416-.977.463-.952.464-.977.488-.928 1.075-1.856.562-.88.586-.902.586-.856 1.27-1.71.66-.805.684-.806.708-.807 1.466-1.514.756-.733.758-.732.807-.71.805-.682.805-.66 1.711-1.27.854-.586.88-.587.904-.562.928-.537 1.856-1.026.952-.463.977-.464.977-.416 1.002-.415 1.001-.391 2.051-.683 1.026-.319 1.051-.268 1.074-.268 1.05-.22 1.075-.22 1.1-.17 2.198-.294 1.123-.098 1.124-.074 1.123-.023z"/><path d="m27.816 50.946-.05-.05-.097-.097-.073-.024-.05-.025-.048.025-.049.097-.049.195-.073.171-.024.074-.049.024-.024.049h-.05l-.121-.024-.123-.025-.049-.049-.048-.024-.025-.05v-.048l.025-.146.024-.172.024-.072-.024-.073v-.05l-.049-.024-.17-.05-.27-.072-.244-.074-.097-.049-.074-.024-.17-.048-.099-.05-.072-.049-.074-.048-.049-.073-.024-.196.024-.244v-.122l.097-.244.05-.098.049-.074.048-.048.05-.025h.219l.074-.024h.096l.05.024.073.025.05.048.268.27.244.22.098.048.098.049h.048v-.074l-.048-.22-.074-.317-.098-.342-.146-.366-.22-.464-.244-.391-.099-.17-.096-.148-.024-.122v-.097l.048-.123.072-.121.075-.074.097-.073.17-.097.172-.05h.073l.074.05.195.097.146.122.05.05v.34l.024.318.073.294.122.464.049.341.024.318.049.39v.66l.05.097.023.05.098.049h.073l.147.073.171.147.22.195.195.196.171.17.147.098.048.024.024-.024.025-.05v-.073l-.024-.145v-.099l-.025-.048-.048-.099-.147-.195-.17-.269-.05-.146-.024-.122v-.073l.024-.025h.244l.147-.024.049-.025.024-.024-.024-.048-.049-.074-.195-.22-.196-.244-.17-.22-.123-.17-.122-.147-.097-.172-.05-.195.05-.073.073-.073.073-.024.073-.025h.146l.123.073.147.245.073.121.048.074.024.049.05.048.073.025.073.049.074.048h.024l.024-.023v-.05l-.024-.097-.048-.244-.099-.27-.097-.244-.05-.146v-.122l.05-.172.073-.17.098-.146.049-.025h.024l.05.025.023.048.05.122.049.146.024.123.048.22.049.268.05.294.023.22-.023.22v.17l.023.122.172.318.293.537.293.537.195.294.05.073h.048l.048-.025.025-.024.025-.024-.025-.05-.049-.513-.024-.805v-.83l.024-.294.024-.195.074-.196.073-.17.024-.074.049-.024.025-.025h.049l.121.098.123.147.098.17.024.172v.146l-.049.171-.073.17-.073.147-.024.123-.026.22-.024.244v.805l.024.343.026.293v.147l.317.146.513.293.268.122.245.098.122.024.097.025h.074l.049-.025.024-.048v-.098l-.024-.22.048-.245.025-.121.049-.075.049-.072.073-.048h.097l.074.024.097.024.05.024.072.074.025.049.024.073v.073l-.073.22-.049.269-.024.122v.122l.024.098.049.048.39.122.685.196.708.17.44.123.146.049.195.049.196.097.195.123.171.122.098.122.024.072v.075l-.098.145-.292.246-.27.17-.194.098-.147.025-.122-.025h-.098l-.024-.024v-.099l.024-.048.024-.073.025-.05v-.073l-.049-.072-.072-.075-.148-.097-.22-.123-.292-.12-.538-.27-.39-.146-.123-.05-.073-.024h-.049l-.024.025v.171l.048.243.05.246.073.121.121.123.172.195.048.147v.195l-.024.049-.049.073-.048.049-.147.098-.147.073-.146.024h-.147l-.195-.048-.073-.05-.025-.073.025-.146v-.123l-.025-.17-.097-.342-.074-.366-.024-.318.024-.318.025-.073-1.49-.562h-.024l-.074.025-.025.024-.024.05v.219l.074.39.097.563.073.341.098.342.122.39.122.367.27.636.194.39.05.122.049.148v.121l-.025.171-.049.17-.073.148-.073.121-.05.099-.073.072-.048.05h-.05l-.023-.025-.22-.097-.245-.099-.098-.22-.073-.243-.073-.245-.049-.244-.098-.538-.098-1.123-.048-.538-.025-.512-.049-.489-.049-.317-.024-.27-.024-.17-.024-.048-.147-.098-.318-.171-.366-.22-.22-.122H29.5l-.024.048v.196l.024.342.048.39v.538l.098.269.049.269v.121l-.024.099-.049.097-.074.073-.17.05h-.22l-.098-.075-.048-.072-.05-.098-.024-.122-.025-.147-.024-.562v-.366l-.097-.073-.098-.049-.196-.195-.22-.196-.22-.195-.244-.195Zm13.531-12.408-.196.122-.074.05h-.17l-.098-.099-.05-.048-.023-.099v-.096l.049-.075.072-.097.099-.098.097-.073.074-.074.049-.073.024-.072v-.074l.024-.073.049-.098.049-.073.073-.097.073-.05.074-.049.073-.024h.098l.073.024.073.025.074.048.049.05.048.097-.024.05-.098.17-.146.22-.123.22-.048.196-.025.049v.047l-.024.025h-.024l-.05.024-.024-.024zm.268.465.39-.294.342-.22v-.538l.05-.145.098-.074.145-.073h.074l.05.024.023.049.024.098-.024.244-.024.269v.22l.024.146.171.244.319.366.439.514.048.073.073.195.025.098-.025.097v.025l-.048.05-.05.023h-.047l-.123.024h-.244l-.123-.024-.097-.048-.098-.05-.121-.073-.099-.122-.195-.171-.122-.121h-.098l-.049.024-.048.048-.123.171-.195.171-.074.049-.048.024-.024-.049v-.097l.122-.27.097-.17.074-.122.048-.049zm-3.762-.563.024-.097.05-.318.05-.342.12-.464.075-.22.073-.195.073-.146.073-.099h.098l.049.05.048.049.098.146.122.195.22.44.147.317.048.099.074.096.073.074.146.147.074.073.049.098v.097l-.025.22-.098.244-.097.269-.073.268v.05l.024.024.024.024.025-.024.122-.05.122-.071.27-.221.12-.098v-1.148h.171l.319.05.073-.026.048-.024.05-.072.048-.074v-.244l-.048-.074-.05-.146-.024-.22-.024-.22-.025-.171v-.098l.025-.097.073-.122.073-.122.147-.318.146-.39.05-.171v-.147l-.05-.123-.048-.073-.073-.073-.075-.049-.097-.049-.098-.024-.073-.025-.048-.048-.024-.05v-.097l.024-.293.097-.489.024-.244.05-.17.048-.098.05-.05h.047l.05.025.025.049.048.073.22.367.464.708.561.806.49.635.536.635.611.733.294.342.243.292.171.245.049.123v.098l-.073.047-.098.074-.122.049-.294.098-.267.098-.172.097-.073.073v.05h.025l.024.024.244.024h.44l.562-.024.512-.049.123-.025.097-.025.073-.048.074-.049.122-.122.073-.122.073-.22.024-.122-.12-.122-.319-.342-.537-.586-.708-.782-.391-.415-.415-.465-.44-.536-.464-.563-.44-.536-.415-.563-.342-.488-.292-.464-.05-.073-.048-.025-.073-.024-.075.024-.072.05-.073.073-.05.072-.196.392-.072.317-.073.293-.074.293-.097.562-.147.562v.024h-.025l-.072.024-.05.05-.049.073-.024.073-.024.074v.195l.024.097.024.024v.025l.05.147.073.195.024.123.05.121v.294l-.026.244-.024.219-.048.196-.074.147-.073.147-.074.12-.073.075-.049.073h-.049l-.048-.025-.025-.073-.049-.073-.073-.196-.073-.122-.049-.146-.049-.293-.073-.416-.122-.537-.049-.245-.05-.219v-.391l.099-.366.098-.391.048-.22v-.195l-.048-.171-.05-.171-.17-.245-.171-.195-.074-.049-.073-.024-.049.048-.048.05-.073.195-.05.195-.048.147-.073.049h-.147l-.244-.05-.464-.048-.44-.073-.293-.025h-.05l-.048.025-.025.049v.024l.025.122.098.122.122.172.146.292.22.342.293.465.122.22.098.195.048.146.025.122v.22l-.049.123-.097.316-.122.392-.073.366-.074.343-.097.415-.099.366-.073.268-.122.196-.22.366-.024.073-.024.049.024.049v.049l.073.048.122.05h.123l.097-.026.123-.024.048-.024.05-.049h.194l.099-.048.121-.05.074-.073.073-.17.024-.196.024-.196zm1.54 1.637.024-.049.049-.098.048-.05.074-.023.073-.024.073-.024.122.024.122.073.172.073.195.122.39.293.44.317.391.367.317.342.123.147.098.146.073.122v.073l-.098.195-.244.294-.122.147-.122.122-.123.048-.097.025-.049-.05-.074-.048-.072-.097-.05-.098-.121-.22-.123-.22-.146-.243-.171-.27-.171-.244-.196-.244-.415-.464zM54.12 27.889h.049l.025.025.072.097.025.244.024.391.025.44.024.44v.17l-.024.148-.049.096-.171.172-.073.024-.171.073-.366.269-.074.098-.073.073-.024.025-.024.024h-.025l-.025-.024-.024.097-.049.244v.123l.025.121v.025l.024.049h.074l.195-.074.244-.121.244-.123.17-.048.074.024.073.073.025.098.05.122.023.22-.024.147-.05.121-.097.22-.073.245-.073.17-.025.171-.024.195-.025.246-.05.219-.023.122.024.073.05.074.073.048.098.025h.097l.098-.025.122-.073.098-.073.121-.122.123-.171.122-.196.097-.268.123-.318.146-.367.123-.439.195-.83.122-.586.049-.367v-.122l-.074.17-.121.367-.05.147-.073.097-.048.025h-.073l-.074-.025-.097-.048-.075-.05v-.072l.025-.074.05-.097.121-.147.074-.17v-.098l-.024-.05-.05-.048-.049-.025-.122-.048-.049-.024.024-.172.025-.44.026-.512.024-.415.024-.22.097-.318.074-.317.049-.294v-.097l-.05-.098-.049-.073-.073-.074-.147-.146-.073-.098v-.049l-.048-.024-.024-.024h-.05l-.121.048-.123.074-.269.195-.219.195-.22.171-.39.268-.196.147-.195.172-.195.147-.123.146-.073.098v.122l.025.097v.098l.048.025.049.048.097.049.122.049.367.122.098-.024.097-.074.074-.073.073-.097.171-.147zm2.027-.928.05.072.024.1.049.146.073.317.024.342.025.293.049.244.048.098.074.073.122.05.146.023.171-.024.097-.024.075-.074.048-.073v-.342l-.049-.244-.074-.44-.073-.44-.048-.34-.05-.099-.072-.073-.074-.025-.121-.024-.245.049-.269.048-.097.05-.049.049-.024.048v.024l.048.099.074.048zm1.515-.88-.587.318.024-.098.075-.243.096-.172.1-.17.17-.22.22-.22.488-.465.415-.439.196-.171.17-.17.147-.098.146-.074.122-.049.147-.024h.268l.123.024.097.049.025.049.024.05.025.047v.05l-.025.317-.049.317-.097.342-.098.244-.098.538-.146.952-.122.953-.074.513-.023.073-.074.098-.098.098-.122.097-.244.147-.172.098-.048.024-.048.073-.025.073v.098l-.024.268.024.391.025.367.048.22.025.048.048.05.05.024h.073l.219-.024.27-.025h.146l.097.025.049.024.049.025.024.048v.22l-.073.22-.098.244-.121.269-.245.463-.098.22-.097.171-.025.147v.05l.049.048.049.025h.098l.22-.074.22-.098.22-.098.194-.097h.098l.098-.024h.048l.074.024.245.244.072.123.024.121v.123l-.024.121-.048.123-.098.122-.146.074-.196.048-.342.073-.171.049-.146.049-.172.049h-.317l-.39-.025-.196-.024-.171-.073-.073-.025-.05-.049-.048-.072-.024-.05-.025-.122.025-.073.048-.048.074-.05.073-.049.048-.024.05-.073-.025-.074-.025-.244v-.684l-.024-.097-.024-.025-.147-.025-.146-.073-.074-.073-.048-.073-.024-.074.024-.073.097-.098.098-.17v-.27l-.024-.292-.05-.244-.049-.171-.145-.122-.196-.148-.074-.072-.048-.098-.025-.049v-.049l.025-.048.024-.074.098-.098.098-.146.048-.22.05-.244.024-.22.049-.146.024-.049v-.074l-.048-.024h-.319l-.048-.049-.05-.048-.023-.074v-.073l.024-.098.05-.073.12-.073.147-.049.099-.025.072-.049.074-.072.049-.075.049-.34.024-.343.048-.415v-.049l.05-.024.121-.098.074-.025h.074l.048.025.024.049.024.195v.22l-.024.22v.22l.024.195.05.146.049.05.048.024.05-.025.048-.049.122-.415.147-.732.147-.709.097-.464.05-.22v-.22l-.026-.073-.024-.048h-.049l-.073.048-.342.392-.83.732zm16.754 1.124-.073-.073v-.147l.073-.073.074-.024h.171l.097.024.099.024.097.074.195.098.171.097.172.098.195.073.44.098.659.122.342.024.268.025.245-.025.17-.024.27-.025h.195l.244.123.294.22.244.195.121.097-.024.074v.171l-.024.097-.05.098-.048.098-.098.073-.244.17-.464.367-.586.44-.586.513-.342.318-.269.293-.171.195-.074.097-.048.098v.05l.048.023h.098l.245-.023.317-.074.147-.098.122-.073.146.073.195.098.148.122.097.098.024.073v.097l-.049.123-.072.122-.05.048-.073.074-.073.024-.074.05-.121.024-.098.024h-.147l-.122-.024-.317-.025h-.293l-.293.025-.293.024-.611.122-.61.171-.66.172-.66.22-.293.121-.269.122-.22.098-.146.098-.049.048-.073.024-.049.025h-.073l-.147-.025-.146-.072-.294-.172-.317-.195-.122-.073-.098-.098-.097-.121-.074-.148-.024-.146-.024-.122v-.269l.024-.097.05-.074.048-.048.097-.025h.245l.146.025.146.024.269.049.245.05h.146l.171-.05.39-.098.514-.147.464-.097.366-.097.22-.05.39-.268.685-.611.708-.61.44-.391.39-.294.562-.415.244-.195.195-.195.075-.074.023-.073v-.024l-.023-.05h-.172l-.22.025-.269.049-.292.049-.611.17-.44.099-.097.097-.073.098-.123.024h-.147l-.121-.024-.147-.049-.244-.146-.123-.098-.097-.147-.098-.22-.097-.292-.05-.147-.024-.147v-.122zM90.781 35.9l-.318.513-.341.537-.22.27-.048.048-.098.024-.122.025h-.44l-.22-.025-.293-.048-.415-.049-.465-.049-.365-.049-.221-.049h-.22l-.073.05-.048.072-.05.074-.048.097v.147l.024.098.074.122.146.147.17.122.172.048.195.05.366.023.319-.024.244-.025h.17v.05l-.049.073-.073.121-.048.075-.074.049-.098.072-.122.049-.269.098-.341.073-.757.195-.807.269-.195.049-.196.025-.195.024-.22.024h-.464l-.464.024-.587.075-.536.072-.44.098-.269.024-.17.025-.123.049-.146.097-.025.05-.024.049.024.023.025.025.537.05.977.047h.781l.367.025h.415l.39-.025.514-.073.66-.097.586-.1.342-.071.244-.074.39-.17.44-.22.392-.245.317-.146.342-.098.366-.245.342-.22.122-.048.146.025.147.024.146.074.27.145.195.123h.097l.074-.024.049-.025.121-.073.099-.122.097-.147.049-.147.024-.145-.024-.148-.05-.024-.048-.049h-.073l-.098-.024-.196-.025-.219-.024h-.121l-.026.024-.024.025v.024h-.049l-.024-.049.024-.073.073-.147.147-.195.171-.22.39-.44.294-.366.098-.146.048-.147-.048-.244-.147-.244-.171-.22-.122-.195-.098-.074-.097-.024-.147.048-.195.05-.147.048-.073.05-.05.023-.023.049v.27l-.025.096-.049.074zm-1.147 3.298-.05.22-.073.488.025.366.024.464.074.489.097.39.123.343.12.317.123.269.123.195.073.146.048.147-.024.073-.024.025h-.098l-.122-.05-.732-.634-.22-.147-.22-.097-.195-.074-.123-.097-.073-.073-.049-.074-.024-.073v-.391l.049-.464.048-.195.024-.172.05-.17.073-.123.073-.244.048-.194.026-.196.049-.196.024-.072.049-.075.048-.048.074-.05.341-.023zm8.254 10.624.099.024.097.05.073.048.05.048.048.074.025.073.024.073v.074l-.024.073-.073.024h-.196l-.244-.048-.171-.074h-.074l-.073-.024H97.4l-.075.024-.048.025-.025.05-.024.023.025.05.024.047.073.05.074.025.121.048.27.072.341.099.147.073.098.074.048.073.025.049-.025.048-.024.05-.098.048h-.098l-.122.025h-.073l-.048.024-.074.05-.073.048-.024.024v.025l.024.024.024.025.098.024.122.024.27.025h.365l.098.024.146.049.147.073.146.025h.171l.171-.025.098-.024.05-.025.048-.048.048-.049.05-.147.073-.244.048-.098.074-.073h.074l.097.049.171.147.147.146.145.147.196.17.171.171.122.171v.074l-.024.048-.049.025-.097.024h-.196l-.195-.024-.244-.025-.343-.024-.366-.024-.367-.025-.34-.049-.343-.024h-.562l-.05-.05-.072-.023-.146-.147-.244-.22-.246-.195-.219-.122-.44-.22-.219-.146-.22-.172-.195-.195-.22-.244-.123-.098-.097-.074-.122-.024h-.074l-.073.024-.05.074v.073l.05.122.196.122.195.099.122.17.196.22.22.22.243.195.465.367.268.17.073.05v.024l-.073.024-.17.05-.098.024h-.342l-.171-.049-.342-.074-.196-.073-.147-.097-.17-.123-.073-.073-.098-.024-.074-.05h-.097l-.171.025-.171-.048-.17-.074-.197-.122-.146-.097-.22-.123-.244-.147-.244-.097-.22-.099-.147-.023-.22-.122-.22-.195-.219-.22-.147-.196-.073-.122-.073-.122-.098-.098-.073-.048-.073.024-.122.073-.074.098-.049.073.123.318.17.292.074.123.097.097.098.123.098.073.244.195.269.147.488.293.391.269.122.122.098.122.049.073v.073l-.025.05-.024.048-.074.049-.073.05-.122.096-.17.123-.245.147-.245.146-.317.074-.292.048-.196.072-.098.025-.05-.025-.072-.096-.073-.098-.074-.146-.122-.27-.121-.244-.05-.073-.049-.025h-.048l-.024.025-.05.097-.025.099.025.121.05.22.072.294.05.316.023.319.026.22.024.048.024.024.049.05.048.024.147.024.147.025.293-.025.195-.048.27-.123.39-.22.415-.243.293-.147.268-.172.318-.268.073-.074.074-.048.073-.025.073-.024h.074l.073.049.122.074.097.121.074.074.025.049.024.048-.024.024-.099.024-.097.025h-.342l-.073.025h-.074l-.024.025v.024l.098.073.22.098.268.145.318.172.268.196.171.098h.074l.073-.025.073-.073.073-.122.05-.147v-.171l-.025-.17-.05-.173-.072-.17-.074-.122-.097-.098-.049-.024-.122-.049-.098-.073-.122-.147-.122-.17-.025-.05-.024-.024.024-.025v-.024l.098-.024.122.024.318.073.317.098.269.098.318.097.146.098.17.098.172.122.195.172.17.17.148.098.146.048.098.024.17-.024.172-.048.049-.049v-.147l-.024-.097-.049-.123-.025-.098-.025-.12.025-.124.025-.073.049-.049.073-.024h.097l.269.024.342.025h.22l.22.048.195.05.22.073.415.17.367.122.17.05.171.023.196.026.195-.05.171-.073.146-.098.098-.146.049-.147.024-.122.025-.171-.025-.097-.024-.074-.073-.073-.098-.049-.317-.195-.391-.269-.391-.244-.245-.146h-.072l-.073-.05-.074-.048-.049-.05-.048-.047-.025-.074-.024-.05.024-.072v-.123l-.049-.122v-.195l.049-.074.097-.096.075-.025.072-.025.172.025.195.049.268.097.318.098.342.122.293.122.146.05.097.023h.099l.073-.024.147-.073.121-.024h.05l.073-.025.048-.098.05-.22.024-.317-.024-.17-.05-.148-.048-.097-.073-.049-.074-.025h-.073l-.049.025-.024.024-.025.074-.073.048-.147.05-.268.17-.098.024-.122.05h-.147l-.146.024-.342-.025-.366-.024-.635-.097-.318-.074-.049-.025-.048-.048-.026-.049-.024-.073-.049-.122-.073-.171-.097-.123-.098-.121-.098-.074-.122-.073-.025-.025-.024-.073v-.147l.05-.146.024-.049v-.049l.048-.097.025-.073v-.074l-.025-.073-.024-.098-.049-.049-.049-.048h-.122l-.05.048-.072.05-.049.073-.049.121-.17.27-.27.365-.293.367-.268.293-.146.122-.099.073-.121.05-.098.023-.073-.024-.05-.024-.024-.025.025-.048.146-.367.099-.341.023-.099v-.146l-.048-.122-.074-.171-.049-.049-.024-.024-.048.024-.025.049-.098.147-.097.244-.123.22-.122.195-.122.17-.122.074-.098.05-.073.048-.073.073-.098.122-.049.073-.024.025.024.05.025.023.097.024.147.05.27.073.365.048.39.05.293.024Zm.342-.122h.172l.293-.05.049-.024.048-.073.025-.073v-.195l-.049-.05-.098-.024h-.097l-.123.074-.097.048-.05.098-.048.074-.025.121zm.66-.587-.024-.024-.025-.098-.024-.048v-.05l.024-.048.049-.05.122-.072.073-.05.025-.023h.05l.023.024.024.073.074.122.073.122.025.074v.097l-.025.025-.049.073-.073.05-.098-.025-.098-.05-.122-.097zm.122.733-.024-.097.024-.147.024-.049.049-.048h.074l.097.048.171.123.123.097.048.049.025.049.024.049v.17l-.025.074-.024.024h-.024l-.024-.024-.05-.025-.146-.073h-.098l-.097-.074zm-.317 1.246.024-.098.05-.122.048-.049.024-.048.073-.025h.074l.268-.024.244-.024.098.048.098.122.024.049v.073l-.024.025-.049.024-.097.049-.147.073-.049.025-.098.024h-.171l-.293-.073zM45.06 94.517l-.734-.635 1.856-1.782zm-1.198-.219.928.806-1.05 2.173.562.319 2.809-6.107-.635-.415-5.007 4.714.488.342zm-3.59.586.513.367 4.762-4.86-.513-.367-3.004 2.955 1.955-3.615-.734-.635-4.762 4.665.537.464 4.152-4.2zm-2.59-2.198-.439-.415 4.91-4.494.463.416zm-1.098-1.074-.416-.391 2.565-2.272-1.026-1.27-2.76 2.198-.415-.463 5.153-4.153.416.464-1.93 1.563 1.026 1.27 1.954-1.783.415.44zm-1.44-4.3.292.538-.22.147-.195.122-.195.098-.172.073-.17.048-.147.05-.171.024h-.147l-.122-.024-.146-.05-.099-.048-.121-.073-.098-.074-.098-.121-.097-.123-.074-.147-.073-.17-.073-.195-.025-.172v-.17l.025-.196.025-.171.073-.195.097-.172.122-.22.171-.219.22-.22.22-.244.269-.245.292-.244.294-.244.317-.22.342-.22.318-.22.635-.341.318-.123.292-.122.27-.073.244-.049h.17l.17.025.172.049.147.073.122.097.122.098.098.147.098.17.073.147.049.147.048.293v.293l-.048.146-.049.147-.05.147-.073.122-.097.146-.122.147-.122.122-.147.122-.146.147-.171.122-.294-.537.27-.22.22-.195.146-.196.073-.17.049-.172v-.147l-.05-.122-.048-.147-.097-.146-.123-.122-.073-.025-.097-.024-.099-.024h-.121l-.123.024-.17.025-.172.073-.195.073-.367.195-.366.196-.366.195-.342.244-.342.245-.317.244-.318.268-.293.27-.294.341-.097.123-.098.146-.049.122-.048.122-.024.097v.099l.024.195.048.171.073.122.099.097.121.074.147.024h.195l.244-.073.294-.146.342-.22Zm-4.348-2.906 5.959-3.15-.343-.538-2.49 1.27-.855-1.636 2.466-1.124-.268-.56-6.107 2.807.294.563 2.98-1.466.952 1.71-2.906 1.587zm2.71-8.182.513-.22 1.075 2.37-.537.195-.415-.904-5.667 2.32-.268-.635 5.69-2.27-.39-.856Zm-6.399.465.098.244.146.22.074.122.097.073.098.097.122.074.245.097.146.025.146.024h.148l.145-.024.147-.025.171-.048 5.031-1.808-.22-.586-5.03 1.783-.172.05h-.17l-.147-.026-.146-.048-.148-.098-.122-.098-.073-.122-.049-.146-.024-.147v-.147l.024-.17.074-.172.073-.146.122-.147.147-.097.147-.098 4.982-1.686-.146-.56-5.13 1.684-.147.098-.146.073-.098.122-.121.098-.074.122-.097.147-.05.122-.097.293-.024.122-.025.147.025.293zm-.561-3.957.048.244.098.097.049.074.073.048.098.05.122.049.122.049.171.023h.391l.342-.048.538-.074.56-.097.416-.098.415-.122.489-.122.463-.147.318-.122.196-.098.17-.073.122-.097.123-.098.073-.098.074-.097.049-.098.024-.073.048-.123v-.122l-.048-.122-.098-.097-.049-.05-.073-.073-.097-.048-.122-.05-.123-.049-.171-.024h-.39l-.367.024-.44.05-.488.097-.514.098-.488.147-.463.122-.44.146-.342.147-.195.098-.147.073-.146.097-.123.098-.073.098-.074.097-.048.098-.05.098zm-.513.244-.025-.196v-.17l.05-.293.072-.122.098-.123.098-.147.122-.121.196-.171.22-.147.268-.122.268-.147.318-.122.317-.121.342-.099.342-.097.685-.147.659-.097.634-.074.538-.025.244.025.244.024.245.074.195.097.17.147.148.171.073.097.049.099.049.121.024.123.049.22v.17l-.025.172-.048.146-.074.147-.097.122-.098.146-.146.122-.171.147-.245.122-.318.146-.341.147-.366.147-.367.122-.733.195-.366.074-.391.072-.415.05-.39.049-.392.024-.366.025-.293-.025-.22-.049-.171-.049-.146-.073-.122-.098-.123-.098-.073-.122-.074-.121-.072-.172zm4.738-2.932-.074-.659.123-.024.147-.024.145-.025.147-.073.148-.097.096-.123.05-.073.025-.098.023-.097v-.098l-.049-.22-.049-.171-.073-.121-.073-.099-.122-.122-.123-.098-.145-.072-.123-.05-.147-.024h-.244l-.146.048-.269.123-.268.17-.27.22-.267.245-.49.562-.439.561-.22.269-.17.22-.172.17-.146.147-.147.098-.17.049-.22.048-.27.05h-.145l-.196-.05-.22-.048-.22-.123-.122-.073-.098-.073-.097-.098-.073-.122-.074-.122-.073-.17-.024-.147-.025-.171-.025-.269.025-.22.049-.22.073-.17.098-.171.097-.147.123-.097.121-.099.27-.146.244-.098.244-.048.22-.024.05.634-.294.049-.245.073-.195.074-.147.121-.097.123-.05.17-.048.172v.22l.024.17.074.122.049.123.097.073.122.05.123.047.146.025h.147l.22-.024.17-.074.147-.073.122-.097.39-.465.391-.464.415-.463.416-.416.22-.196.244-.17.244-.147.269-.122.268-.073.293-.049h.318l.343.024.12.05.1.072.12.074.099.073.097.073.098.098.073.123.074.121.073.147.049.147.024.195.024.171v.39l-.048.17-.05.148-.072.122-.074.122-.097.122-.098.073-.244.147-.22.098-.244.073zm68.681-.61 3.053.562.097-.635-3.102-.586-3.32-1.71-.05.66 2.638 1.294-2.93.537-.123.684 3.737-.805Zm2.784 2.052-3.248-.708-.27 1.44.538.123.147-.757.293.049.391.073.366.073.244.073.245.098.195.098.073.073.074.074.049.073.048.073.049.097v.342l-.049.171-.097.148-.074.072-.073.05-.097.048-.098.025-.221.049-.219.048h-.488l-.538-.049-.562-.073-.56-.122-.538-.147-.465-.146-.39-.171-.171-.074-.17-.097-.148-.098-.097-.073-.098-.098-.049-.098-.049-.073-.05-.097-.023-.147v-.244l.049-.123.048-.097.074-.098.122-.073.146-.073.171-.05h.196l.22.025.244.049.122-.635-.317-.049-.294-.025h-.293l-.268.074-.171.049-.147.097-.146.123-.122.121-.123.147-.073.171-.05.147-.023.171v.195l.024.195.025.172.073.17.049.171.098.147.122.122.122.147.195.146.244.147.27.122.633.245.367.121.367.074.366.097.366.073.391.05.367.049.341.023.342.025.293-.025.294-.023.244-.05.146-.049.147-.073.146-.072.123-.123.097-.122.098-.147.073-.17.049-.196.024-.147v-.293l-.024-.146-.049-.122-.049-.123-.049-.121-.097-.123.44.098zm-2.662 5.642h-.489l-.195-.048-.268-.05-.342-.097-.367-.123-.341-.121-.391-.171-.489-.196-.733-.367-.342-.244-.22-.22-.146-.195-.098-.195-.024-.098v-.098l-.025-.097.025-.098.024-.098.05-.073.048-.074.073-.073.098-.072.098-.05.122-.048.146-.025.147-.024h.146l.171.024.22.05.318.073.464.17.487.171.416.147.318.146.366.147.318.146.244.122.343.245.22.22.096.097.074.098.073.098.049.097.024.122.024.097.025.099-.025.097-.024.074-.049.097-.072.074-.074.073-.097.05-.123.047-.147.05zm1.246-.171-.073.17-.098.172-.123.122-.145.098-.172.097-.171.05-.195.072-.171.025-.22.025h-.22l-.269-.05-.293-.048-.635-.147-.317-.122-.317-.122-.709-.293-.708-.367-.318-.196-.293-.17-.244-.195-.147-.17-.122-.148-.122-.17-.073-.196-.073-.196-.05-.195-.024-.195v-.196l.048-.22.075-.17.097-.172.122-.146.147-.098.146-.097.17-.074.172-.049.195-.024.22-.024.27.024.316.073.367.074.758.22.707.268.635.293.587.293.268.147.22.171.195.146.148.171.121.171.123.171.072.171.099.22.048.195.025.196v.195zm-7.108-.22-.244.586 5.788 3.347.953-2.248-.489-.268-.732 1.66zm4.005 5.837.05-.195.049-.171-.024-.122v-.098l-.05-.121-.049-.123-.072-.122-.245-.293-.147-.171-.268-.22-.391-.317-.415-.318-.342-.244-.366-.245-.391-.268-.39-.268-.49-.245-.17-.049-.147-.049-.147-.024h-.121l-.099.024-.097.025-.074.049-.121.121-.123.148-.073.17-.025.196v.097l.025.098.098.245.073.121.098.147.122.147.146.17.27.22.365.293.39.318.343.244.318.22.39.244.342.195.27.147.22.098.243.121.22.099.17.049h.123l.097-.025.099-.024.073-.049.122-.098zm.44.319-.097.17-.098.146-.122.123-.147.097-.147.074-.145.048-.171.025h-.172l-.219-.05-.27-.097-.292-.122-.342-.171-.684-.415-.635-.415-.294-.22-.316-.244-.294-.245-.293-.268-.269-.245-.244-.243-.171-.22-.121-.22-.099-.172-.048-.195-.049-.17v-.367l.049-.17.048-.197.099-.17.097-.171.122-.147.122-.146.122-.098.147-.073.171-.049h.341l.196.024.269.098.269.122.317.171.684.391.635.415.61.464.61.538.27.244.244.268.195.22.122.196.098.195.049.17.05.196v.366l-.05.171-.05.196zm-1.587 2.636-5.374-2.466 4.348 3.884-.342.512-5.032-4.494.562-.83 4.495 2.222-3.713-3.346.294-.537 5.104 4.543-.342.513Zm-1.93 2.664-4.713-4.91-.391.464 2.198 2.174-1.05 1.294-2.174-2.198-.367.489 4.617 4.86.39-.464-2.05-2.248 1.049-1.294 2.1 2.296zm-4.054 1.66.245.342.17.293.122.269.024.195v.195l-.024.147-.073.122-.098.122-.146.098-.147.073h-.17l-.123-.024-.098-.05-.146-.047-.122-.099-.17-.097-.148-.147-.22-.244-.293-.318-.292-.366-.27-.318-.244-.366-.293-.415-.269-.39-.17-.319-.098-.195-.073-.195-.074-.172-.024-.145-.025-.148-.024-.121.024-.098.025-.098.074-.171.097-.146.122-.073.098-.074.122-.049.146.025.171.048.171.123.22.195.22.268.415-.439-.269-.317-.268-.244-.147-.099-.122-.073-.146-.073-.123-.024-.122-.025h-.268l-.245.098-.122.073-.097.074-.122.122-.123.146-.097.147-.098.171-.05.17-.023.172-.025.195v.195l.049.195.074.22.097.294.147.318.195.317.195.342.22.342.22.341.244.318.489.587.513.537.244.244.22.195.22.171.195.098.171.049.171.05h.146l.171-.026.147-.05.147-.072.146-.098.245-.244.097-.121.073-.147.05-.147.048-.123.025-.17v-.293l-.025-.172-.048-.17-.05-.17-.073-.197-.22-.366-.268-.39zm-2.735 5.105-3.519-5.814 1.784-1.538.341.537-1.318 1.124 1.05 1.855 1.051-.903.342.538-1.05.903 1.44 2.37 1.417-1.222.342.538zm-5.936-3.322.953-.66 3.174 5.227.464-.342-3.15-5.227.928-.659-.342-.537-2.345 1.66zm-1.246 7.67-2.492-6.278 2.053-1.1.268.612-1.563.806.733 1.734 1.368-.733.22.61-1.368.733 1.294 3.346zm-2.173.292-.171.05h-.148l-.096-.026-.099-.049-.073-.072-.097-.074-.098-.122-.123-.147-.097-.17-.098-.196-.146-.293-.17-.44-.147-.44-.147-.414-.122-.391-.122-.415-.122-.367-.073-.293-.025-.244-.025-.22v-.171l.025-.17v-.123l.049-.122.024-.097.074-.075.121-.121.147-.098.147-.049h.171l.097.024.074.05.097.049.099.097.096.098.099.146.097.171.244.489.147.342.293.781.122.416.147.464.121.439.074.342.025.244.024.195v.343l-.024.146-.025.122-.048.099-.05.072-.122.123zm.17.587.172-.098.146-.098.123-.097.097-.147.098-.147.073-.17.05-.196.023-.196.025-.244-.025-.293-.048-.318-.074-.366-.171-.781-.22-.758-.147-.39-.121-.342-.147-.342-.147-.318-.17-.292-.147-.27-.147-.195-.147-.171-.121-.122-.147-.097-.147-.075-.146-.048-.17-.024h-.172l-.146.05-.196.047-.146.099-.147.096-.122.123-.122.122-.073.171-.073.17-.05.172-.024.22-.024.22.024.268.048.293.05.342.171.708.244.733.269.757.293.734.146.317.171.269.147.244.147.17.121.123.147.098.147.073.17.048.146.025h.172l.147-.049zm-6.154-1.32.659 3.151.537-.171-.659-3.126.44-3.835-.538.17-.318 2.932-1.22-2.589-.538.171zm-4.568-2.198-.048-.635 2.686-.39.049.586-1.074.22.757 6.007-.562.098-.758-6.032zm.22 6.106-.561-6.717-.562.074.562 6.716zm-6.423-3.737.097-2.222.538.024.147.024.146.074.122.097.097.147.074.147.048.17.025.195.024.221-.024.22-.073.244-.074.22-.097.195-.098.123-.122.097-.147.049h-.17zm1.856 3.933-.733-3.347.098-.049.097-.072.074-.074.073-.073.244-.39.074-.245.049-.22.048-.024.024-.05.025-.17v-.683l-.049-.27-.072-.269-.123-.268-.073-.123-.098-.096-.097-.099-.123-.073-.122-.073-.122-.049-.147-.049h-.146L61.3 96.13l-.293 6.742.587.024.12-3.2.587.025.684 3.224.61.024Zm-5.764-.488.806-6.645 2.222.319-.072.659-1.662-.244-.244 2.173 1.245.196-.073.66-1.245-.172-.342 2.467 1.758.244-.073.635zm-1.685-1.734-.025-5.399-.586-.195.122 6.937.537.121 2.028-6.448-.538-.097zm-2.32.878 1.392-6.545-.562-.147-1.393 6.546.562.146Zm-1.833-.562.025-6.325-1.734 5.739-.537-.22 1.929-6.399.855.318-.073 5.202 1.27-4.811.537.195-1.734 6.473zm-3.785-1.49h.244l.122-.048.123-.05.121-.073.122-.072.098-.098.098-.122.098-.123.097-.146.073-.146.074-.172 1.831-4.811-.537-.269-1.807 4.836-.097.196-.099.146-.121.122-.147.098-.147.049-.122.025h-.147l-.122-.05-.122-.073-.098-.097-.073-.147-.073-.171-.049-.171v-.196l.025-.195.048-.195 1.808-4.836-.513-.27-1.807 4.813-.049.195-.05.17-.023.172v.513l.048.146.025.147.097.17.098.172.098.146.122.122.146.122.172.074.195.073zm18.44-1.49h-.513v-.268l-.098-.44-.073-.17-.098-.123-.121-.097-.148-.073-.17-.025-.196.025-.171.049-.146.097-.098.122-.097.172-.05.22-.048.243v.44l.024.146.024.122.05.123.146.195.073.074.098.072.146.098.22.098.195.097.147.074.27.147.218.17.172.171.146.196.097.219.074.245.049.268v.293l-.049.416-.073.391-.049.17-.073.147-.05.147-.096.121-.073.123-.123.098-.098.073-.122.073-.122.074-.146.049-.171.024h-.367l-.22-.049-.17-.074-.172-.097-.146-.147-.122-.171-.122-.22-.098-.219-.025-.196-.048-.268v-.758h.488v.391l.025.342.048.269.098.22.05.098.072.072.073.074.098.049.073.024.098.049h.244l.195-.024.171-.074.148-.073.097-.122.098-.171.073-.195.048-.22.025-.244-.025-.22-.024-.195-.048-.148-.074-.145-.073-.123-.122-.122-.123-.073-.146-.097h-.049l-.049-.074-.122-.05-.17-.072-.367-.22-.244-.17-.123-.099-.122-.122-.073-.147-.073-.17-.073-.196-.024-.22-.025-.244v-.269l.025-.415.048-.342.049-.17.073-.147.05-.147.073-.121.097-.099.073-.097.123-.098.097-.049.122-.073.122-.025.293-.048.147.024.17.024.123.025.147.049.097.073.123.073.096.098.075.123.073.121.072.147.05.147.049.17.049.366.023.416Zm-1.636-8.255.024-.121.024-.098.05-.073.048-.074.049-.048.073-.025.098-.025h.195l.073.025.074.049.073.049.049.073.024.097.025.123.025.146v.122l-.05.147-.049.122-.097.098-.098.097-.098.074-.097.049-.122.024v.098l.22.024.17.025.122.073.123.073.073.098.073.097.049.098.024.123v.195l-.024.097-.024.099-.05.097-.073.098-.072.073-.074.049-.098.073-.098.024-.122.025-.122.024-.097-.195-.074-.073-.049-.025-.073-.025-.073.025-.073.049-.049.073-.025.098v.098l.05.048.073.074.097.073.098.024.073.049h.293l.171-.049.172-.073.17-.122.122-.147.123-.146.097-.195.048-.171v-.196l-.024-.195-.024-.099-.097-.195-.075-.073-.097-.097-.098-.074-.097-.073-.147-.074.196-.145.146-.172.073-.17.05-.172v-.146l-.026-.171-.048-.146-.073-.123-.122-.097-.122-.098-.123-.05-.146-.023-.171.024-.146.049-.147.098-.122.146-.073.098-.025.122-.024.147-.025.146zm-2.614-.244-.073-.146-.122-.098-.049-.024-.073-.025h-.147l-.098.025-.048.024-.074.074-.049.073-.024.097-.025.147-.023.122v.464l.048.318.049.146.073.098.073.048.05.025h.17l.147-.049.146-.049.098-.097.024-.05.025-.072.024-.172.025-.244-.025-.146-.024-.171-.05-.147zm-1.075 2.882v-.097l.195-.074.172-.073.17-.098.123-.146.171-.245.146-.244.098-.292.073-.27-.171.098-.121.097-.074.025-.073.026h-.196l-.122-.026-.098-.073-.098-.073-.072-.147-.073-.147-.075-.17-.024-.196v-.195l.024-.17.05-.196.049-.17.073-.172.073-.122.073-.073.098-.074.074-.049.17-.073h.245l.097.024.098.05.073.048.146.17.123.197.097.219.074.27.025.292v.318l-.025.292-.074.294-.048.147-.073.145-.074.147-.097.123-.098.121-.122.123-.146.097-.123.098-.17.073-.172.074-.196.073zm-3.004-.707-.048.024-.025.024-.05.025-.073.024-.17-.024-.22-.025-.025.097 1.295.343.025-.098-.171-.073-.123-.074-.024-.048-.024-.05v-.097l.756-2.858-.243.098-.27.049-.268.048-.268.025-.025.122h.196l.195.025.074.048.048.05v.097l-.024.122zm10.99-.807-.39-1.636-.561 1.88zm-.218-2.198.512 2.125.269-.05.098.318-.293.05.244.952-.294.073-.244-.953-1.123.27-.098-.342.781-2.418z"/></g><defs><filter id="a" x="-13" y="0" width="154" height="157" filterUnits="userSpaceOnUse" color-interpolation-filters="sRGB"><feFlood flood-opacity="0" result="BackgroundImageFix"/><feColorMatrix in="SourceAlpha" values="0 0 0 0 0 0 0 0 0 0 0 0 0 0 0 0 0 0 127 0" result="hardAlpha"/><feOffset dy="16"/><feGaussianBlur stdDeviation="6.5"/><feColorMatrix values="0 0 0 0 0 0 0 0 0 0 0 0 0 0 0 0 0 0 0.03 0"/><feBlend in2="BackgroundImageFix" result="effect1_dropShadow_49_9205"/><feBlend in="SourceGraphic" in2="effect1_dropShadow_49_9205" result="shape"/></filter></defs></svg>