<svg xmlns="http://www.w3.org/2000/svg" viewBox="0 0 128 38.9"><defs><style>.cls-1{fill:#144e8c;fill-rule:evenodd}</style></defs><g id="_图层_1" data-name="图层_1"><path class="cls-1" d="M29.5 23.7h.5v-.2h-.5zm0-1.3v1.1h.4v-.3Zm0-1.4h.1c0-.1-.1-.1-.1-.1Zm0 .5h.1c0-.1-.1-.1-.1-.1Zm0-.7h-.1Zm-.5 0v.2Zm0 1v-.2h-.3Zm-.8 0v-.2h.3Zm0-.3h.8c0-.1-.8-.1-.8-.1zm0-.1h.8v-.3h-.8zm-.5-.7v-.2.1h.1Zm.2-1h-.4Zm-.9 1.9h-.3v.3Zm1.2-.6h.8c0-.1-.8-.1-.8-.1zm0-.2v-.1Zm0-.1v-.2.1Zm1-.7h-.3Zm-.2.5v.2h.5v-.2zm.1.3v3h.4v-2.9h-.4Zm-1.4-.6v.3h.5v-.3zm0 3.5h.4v-3.1h-.4zm-.3-2.1h.3v.3Zm-.7-.1h.9c0-.1-.9-.1-.9-.1Zm0-.2h.9v-.4h-.9zm0-.5h.9c0-.1-.9-.1-.9-.1Zm0-.1h.1v-.2h-.1zm0-.4h-.1v-.2Zm-.3-1v.1H26v-.1Zm-.3.5h.6v.4h-.6v-.3Zm.1 3.9h.5v-3.4h-.5zm-.1-3.3v-.3.1Zm-.3 1.1h.3v.3Zm-5.3 2.2h.5v-.2h-.5zm.5-1.3v1.1h-.4V23Zm-.1-1.4h.1c0-.1-.1-.1-.1-.1Zm0 .5h.1c0-.1-.1-.1-.1-.1Zm.1-.7h.1Zm.5 0v.2Zm.1 1v-.2h.3Zm.7 0v-.2H22Zm-.8-.3h.8c0-.1-.8-.1-.8-.1Zm0-.1h.8v-.3h-.8zm1.4-.7v-.1zm-.3-1h.3Zm1 1.9h.3v.3Zm-2.1-.6h.8c0-.1-.8-.1-.8-.1Zm.7-.2v-.1Zm.1-.1v-.1zm-1-.7h.3Zm.2.5v.2H21v-.2zm0 .3v3h-.4v-2.9h.4Zm1.4-.6v.3h-.5v-.3zm-.5 3.5h.4v-3.1h-.4zm.8-2.1h-.3v.3Zm-.3-.1h.9c0-.1-.9-.1-.9-.1Zm0-.2h.9v-.4h-.9zm0-.5h.9c0-.1-.9-.1-.9-.1Zm.8-.1h.1v-.2h-.1zm.1-.4h.1v-.2Zm.3-1v.1h.4v-.1Zm.3.5h-.6v.4h.6zm-.5 3.9h.5v-3.4h-.5zm.6-3.3v-.3.1Zm.3 1.1h-.3v.3Zm1.3-1h-1.6v.2h1.6zm0 .8h-1.6v.2h1.6zm0-.6h-1.6v.5h1.6zm-6.2 3.1h10.9l-.9.9h-9.4zm4.6-7.6v.3h-.3v-.1h-.1v-.3.3Zm.1-.9h-.1v-.1Zm1.4.9v-.3h.1v.2h.1v.2H26l-.1.2v-.2Zm-.1-.9v-.1Zm-.6 2.2v-.2h-.2V17h.2v.1l.1-.1h.2v.3h-.2v.2Zm0 .3h-.1v-.3l.1.2zv-.1h.1v-.2.4Zm0-2.6v-.1Zm-.2.5v.6-.4h-.2v.3V15h.3v.1-.1h.3v1.2-.2l-.2-.2v.4-.6h-.2Zm-.6 1.6v.4l.1.2h.1v-1l.1-.1h.1l.1-.1h.1-.1v-1.6l-.1.1h-.1v.1h-.1c0-.1-.1-.2-.1-.2h-.1V15h-.2v.5l-.1.2v.7l-.1.1h.2l.1.1h.1v.1h.2v.2Z"/><path class="cls-1" d="M25.3 8.4h-1.2l-.6.1h-.9l-.3.1H22l-.3.2h-.3l-.3.2-.5.2h-.2c0 .1-.2.2-.2.2H20c0 .1-.2.2-.2.2l-.5.3h-.2c0 .1-.2.3-.2.3l-.2.2-.2.2-.2.2-.2.2-.2.2-.2.2-.2.2-.2.2-.2.2-.2.2-.2.2-.2.2-.2.2-.2.2-.2.2v.2c-.1 0-.3.2-.3.2v.2c-.1 0-.4.5-.4.5v.2c-.1 0-.2.2-.2.2v.2c-.1 0-.2.2-.2.2v.3c-.1 0-.2.2-.2.2l-.2.5v.3l-.1.3v.3l-.1.3v4.8l.1.3v.3l.1.3.2.5v.3l.2.2v.3c.1 0 .2.2.2.2v.2c.1 0 .2.2.2.2v.2c.1 0 .4.5.4.5v.2c.1 0 .3.2.3.2v.2c.1 0 .3.2.3.2l.2.2.2.2.2.2.2.2.2.2.2.2.2.2.2.2.2.2.2.2.2.2.2.2.2.2.2.2h.2c0 .1.2.3.2.3l.5.3h.2c0 .1.2.2.2.2h.2c0 .1.2.2.2.2h.3c0 .1.2.2.2.2l.5.2h.3l.3.1h.3l.3.1H28l.5-.2h.3l.3-.2h.3l.2-.2h.3c0-.1.2-.2.2-.2h.2c0-.1.2-.2.2-.2h.2c0-.1.2-.3.2-.3h.2c0-.1.5-.4.5-.4l.2-.2.2-.2.2-.2.4-.3.2-.2.4-.4.2-.2.2-.2.2-.2.2-.2.2-.2.2-.2.2-.2.2-.2v-.2c.1 0 .3-.2.3-.2v-.2c.1 0 .3-.2.3-.2V25c.1 0 .2-.2.2-.2v-.2c.1 0 .2-.2.2-.2l.2-.5v-.3l.2-.3V23l.2-.3v-.5c.1 0 .2-.3.2-.3v-5c-.1 0-.2-.3-.2-.3v-.3l-.2-.3v-.3l-.3-.5V15c-.1 0-.2-.2-.2-.2v-.2c-.1 0-.2-.2-.2-.2v-.2c-.1 0-.3-.2-.3-.2v-.2c-.1 0-.3-.2-.3-.2l-.2-.2-.2-.2-.2-.2-.2-.2-.2-.2-.2-.2-.2-.2-.2-.2-.4-.4-.2-.2-.2-.2-.2-.2-.2-.2-.2-.2-.2-.2-.5-.3H31c0-.1-.2-.3-.2-.3h-.2c0-.1-.2-.2-.2-.2h-.2c0-.1-.2-.2-.2-.2l-.5-.2h-.3l-.3-.2h-.3l-.3-.2H28l-.3-.1h-2.4Zm.2 3.9h-2.8l-.2.1h-.2l-.2.1h-.2l-.3.2h-.1l-.1.2h-.2l-.1.2H21l-.4.4h-.1c0 .1-.1.2-.1.2h-.1c0 .1-.1.2-.1.2h-.1c0 .1-.2.4-.2.4h-.1c0 .1-.1.3-.1.3h-.1c0 .1-.2.4-.2.4h-.1v.5l-.2.1v.2l-.2.2v.2l-.2.2v.2l-.1.2v.2l-.1.2v4l.1.4v.7c.1 0 .2.2.2.2v.2l.1.2v.2l.1.2v.2l.2.2v.2l.2.2.2.3.3.4h.1c0 .1.1.3.1.3h.1c0 .1.1.3.1.3h.1c0 .1.2.3.2.3h.2c0 .1.2.3.2.3h.2c0 .1.2.3.2.3h.2c0 .1.4.4.4.4h.2c0 .1.2.2.2.2h.2l.2.2h.2l.2.2h.2l.2.1v-.2c.1 0 0 0 0 0h-.2l-.2-.2H23l-.2-.2h-.2l-.2-.2h-.2c0-.1-.2-.2-.2-.2h-.2c0-.1-.2-.3-.2-.3h-.2c0-.1-.2-.3-.2-.3H21c0-.1-.2-.3-.2-.3l-.3-.3h-.1c0-.1-.1-.2-.1-.2h-.1c0-.1-.1-.3-.1-.3l-.2-.3v-.6c0-.1-.1-.4-.1-.4v-.3c-.1 0-.2-.2-.2-.2v-.2l-.1-.2v-.2l-.1-.2V18l.1-.3v-.2l.1-.2v-.2l.1-.2v-.3c.1 0 .3-.3.3-.3v-.6c0-.1.2-.4.2-.4h.1c0-.1.1-.3.1-.3h.1c0-.1.1-.2.1-.2h.1c0-.1.1-.2.1-.2h.1c0-.1.1-.2.1-.2h.1c0-.1.1-.2.1-.2h.1l.1-.2.3-.2h.1l.3-.3h.1l.1-.2h.3c0-.1.2-.2.2-.2h.3c0-.1.2-.2.2-.2h5.2l.2.1h.1l.2.1h.1l.1.1h.1l.1.2h.1l.1.2h.1l.1.2h.1l.1.2.2.2h.1c0 .1.1.2.1.2h.1c0 .1.1.2.1.2h.1c0 .1.1.2.1.2h.1c0 .1.1.3.1.3h.1v.3l.2.3v.5l.2.1v.2l.2.3v.2l.1.2v.2l.1.2v5l-.1.2v.2l-.2.3v.2l-.2.2v.3c0 .1-.2.4-.2.4 0 .1-.1.3-.1.3H31c0 .1-.1.3-.1.3h-.1c0 .1-.1.2-.1.2h-.1c0 .1-.2.3-.2.3h-.2c0 .1-.2.3-.2.3h-.2c0 .1-.2.3-.2.3h-.2c0 .1-.2.3-.2.3H29c0 .1-.2.2-.2.2h-.2l-.2.2h-.2l-.2.2h-.2l-.2.2h-.2l.2.3h.2l.2-.1h.2l.2-.2h.2l.2-.2h.2c0-.1.2-.2.2-.2h.2c0-.1.4-.4.4-.4l.4-.3h.2c0-.1.2-.3.2-.3l.2-.2h.1c0-.1.1-.2.1-.2h.1c0-.1.2-.4.2-.4h.1c0-.1.2-.4.2-.4v-.3l.2-.3v-.2l.2-.3v-.2l.1-.2v-.2l.1-.2v-.2l.1-.2V22l.1-.2v-4.1l-.1-.2v-.2l-.1-.2v-.2l-.1-.2v-.2l-.2-.2v-.2l-.2-.1v-.2l-.2-.1-.2-.3h-.1c0-.1-.2-.4-.2-.4h-.1c0-.1-.2-.4-.2-.4h-.1c0-.1-.1-.2-.1-.2h-.1c0-.1-.1-.2-.1-.2h-.1c0-.1-.4-.4-.4-.4h-.1l-.1-.2h-.1l-.2-.2h-.2l-.1-.2h-.2l-.2-.1h-.2l-.2-.1H28l-.2-.1h-2.2Zm-.2-4.1h1.2l.6.1h.3l.6.2h.3l.3.1h.3l.5.3h.3l.3.2h.2c0 .1.5.3.5.3h.2c0 .1.2.3.2.3h.2c0 .1.2.3.2.3l.5.3.2.2.2.2.2.2.2.2.2.2.4.4.4.4.4.4.2.2.2.2.3.4.2.2v.2c.1 0 .3.2.3.2v.2c.1 0 .3.2.3.2v.2c.1 0 .2.2.2.2v.3c.1 0 .2.3.2.3v.3l.2.3v.3l.2.3v.3l.1.3v.3l.1.3v4.8l-.1.3v.3l-.2.3v.3l-.2.3v.3l-.2.3v.2c-.1 0-.2.3-.2.3v.2c-.1 0-.2.2-.2.2v.2c-.1 0-.3.2-.3.2v.2c-.1 0-.3.2-.3.2l-.3.4-.2.2-.2.2-.4.4-.4.4-.4.4-.2.2-.2.2-.2.2-.2.2-.2.2-.2.2-.2.2h-.2c0 .1-.2.3-.2.3h-.2c0 .1-.2.3-.2.3l-.5.2h-.2c0 .1-.3.2-.3.2h-.3l-.5.3h-.3l-.3.2h-.3l-.6.2h-.3l-.6.1h-3l-.3-.1h-.3l-.3-.1h-.3l-.3-.1h-.3l-.5-.3h-.3l-.3-.2h-.2c0-.1-.3-.2-.3-.2h-.2c0-.1-.2-.2-.2-.2h-.2c0-.1-.2-.3-.2-.3h-.2c0-.1-.2-.3-.2-.3l-.2-.2-.4-.3-.2-.2-.2-.2-.2-.2-.4-.4-.4-.4-.2-.2-.2-.2-.2-.2-.3-.4v-.2c-.1 0-.3-.2-.3-.2v-.2c-.1 0-.3-.2-.3-.2v-.2c-.1 0-.3-.2-.3-.2v-.2c-.1 0-.2-.2-.2-.2v-.3c-.1 0-.2-.3-.2-.3v-.3c-.1 0-.3-.5-.3-.5v-.3l-.2-.3v-.3l-.1-.3v-1.2l-.1-.3v-2.7l.1-.3v-.3l.1-.3v-.3l.1-.3v-.3l.3-.5v-.3c.1 0 .2-.3.2-.3v-.2c.1 0 .2-.2.2-.2v-.2c.1 0 .2-.2.2-.2l.3-.5V14c.1 0 .3-.2.3-.2l.2-.2.3-.4.2-.2.2-.2.2-.2.4-.4.2-.2.2-.2.2-.2.2-.2.2-.2.4-.3.2-.2.2-.2h.2c0-.1.2-.3.2-.3l.5-.3h.2c0-.1.2-.2.2-.2h.3c0-.1.3-.2.3-.2h.3l.5-.3h.3l.3-.2h.3l.3-.1h1.2l.3-.1h.9Z"/><path class="cls-1" d="M16 16.1v-.6.9-.1h.1v-.2.6-.6.5h.1v.1h.6v.1h-.1l-.1-.1v.2-.4l-.4-.2v1.1-1.2.5-.3Zm3.5-3.2v.1Zm0 .2h.1v-.3.4h.1v.2-.1l-.1-.2Zm-.9-.2v-.4.3-.3h.1v-.8.3c.1 0 .3.2.3.2v.2c.1 0 .3.2.3.2l.2.2v.2h.4v-.3c-.1 0-.3-.2-.3-.2h-.1c0-.1-.1-.2-.1-.2h-.1c0-.1-.1-.3-.1-.3h-.1c0-.1-.1-.3-.1-.3v-.2 1-1.1h-.2v1.3Zm.4.4h.1l.1.2h.1v.4-.2l-.1-.2-.1-.1Zm3.8-3.1v.7-.8c0-.1 0 0 0 0zv-.7l-.1.1Zm.5-.2v.3-.5Zm.4-.3h-.2v-.1l.1-.2h.1v-.2 1.7h-.2v-.8.3-.7.1l-.2.2v.1Zm4.3.3h.4-.1l-.1.2h-.1v.3h-.8l-.2.1h.4l.2-.2.2-.2h.1l.1-.2h.1v-.2h-.4v-.2Zm4.2 2.3v.3h-1.3 1.6v-.5.1Zm-.3.8v.9l-.2-.2v-.3Zm2.1 2.7h.1zh-.1v.1h.1v.1h-.1v-.1.2h.1v.1-.1.3l.1-.1h.2-.1v-.2H34v.4-.2.1Zm.1 0h.1ZM20.4 27.3l-.2-.2.5-.5-.3.6Zm-.3-.1.2.2-.3.6h.1l.7-1.5h-.2c0-.1-1.3 1.1-1.3 1.1h.1l.5-.4Zm-.9.2h.1l1.2-1.2h-.1l-.8.7.5-.9-.2-.2-1.2 1.2h.1c0 .1 1.1-1 1.1-1l-.7 1.3Zm-.7-.6h-.1c0-.1 1.3-1.3 1.3-1.3h.1c0 .1-1.3 1.3-1.3 1.3m-.2-.2h-.1l.7-.7-.3-.3-.7.6h-.1c0-.1 1.3-1.2 1.3-1.2h.1c0 .1-.5.5-.5.5l.3.3.5-.5h.1c0 .1-1.3 1.2-1.3 1.2Zm-.4-1.1v.2-.5l.2-.1v.2-.3.5Zm-1.1-.8 1.5-.8c0-.1-.6.2-.6.2l-.2-.4.6-.3c0-.1-1.6.6-1.6.6 0 .1.8-.2.8-.2l.2.4-.7.4zm.7-2.1h.1l.3.6h-.1l-.1-.2-1.5.6v-.2l1.4-.6v-.2zm-1.7.1v.1l1.3-.5v-.2l-1.3.5v-.1l1.3-.5c0-.1-1.3.3-1.3.3v.2Zm-.1-1h.8-.7Zm-.2.1v-.2h.7v.1h-.6Zm1.3-.8v-.2h-.1v.1l-.1.2h-.1v.2-.2.3h.1c0-.1.1-.2.1-.2h.1c0-.1.1-.2.1-.2h.2v.2Zm17.6-.1h.8c0 .1 0 0 0 0l-.8-.2-.9-.4v.2l.7.3h-.8v.3zm.7.5-.8-.2v.4-.2h.1v.1h-.6v-.3.1h.2v-.1h.1v-.1Zm-.7 1.4h-.3l-.2-.1v-.2h.3v.1Zm.3 0h-.2l-.2-.1h-.2v-.4h.2l.2.1h.2l.2.1v.2Zm-1.8-.1v.2l1.4.9.2-.6h-.1l-.2.4-1.4-.8Zm1 1.5V24h-.1v-.2l-.1-.1v.5Zm.2.1h-.2c0-.1-.2-.2-.2-.2v-.6h.3l.2.2h.2c0 .1.2.3.2.3v.4Zm-.4.7-1.4-.6 1.1 1c0 .1-1.3-1-1.3-1v-.2c.1 0 1.3.6 1.3.6l-1-.9c0-.1 1.3 1 1.3 1Zm-.5.7L32 24.4h-.1c0 .1.6.7.6.7l-.3.3-.6-.6c0 .1 1.2 1.4 1.2 1.4 0-.1-.5-.7-.5-.7l.3-.3.5.6v-.1Zm-1.1.4v.3-.8.1h.1v-.2h-.1v1c.1 0 .3.1.3.1v.1-.2h-.1Zm-.7 1.3-.9-1.5.5-.4c0 .1-.3.4-.3.4l.3.5.3-.2c0 .1-.3.4-.3.4l.4.6.4-.3c0 .1-.5.6-.5.6Zm-1.5-.8.2-.2.8 1.3h.1l-.8-1.4.2-.2c0-.1-.6.3-.6.3v.1Zm-.3 1.9-.6-1.6.5-.3v.2l-.3.2.2.4.4-.2v.2l-.3.2.3.9h-.1Zm-.6.1v-.9 1.1Zm.1.2v-1.3.5l.1.2v.2l.1.2v.3Zm-1.6-.4.2.8h.1l-.2-.8v-1c.1 0 0 0 0 0v.8l-.4-.7h-.1zm-1.2-.5v-.2h.7v.2h-.3l.2 1.5h-.1l-.2-1.5zm.1 1.5v-1.7h-.3v1.7zm-1.7-.9v-.6h.2v.3h-.1Zm.5 1-.2-.9v-.5h-.3v1.7h.1V29h.1l.2.8h.2Zm-1.5-.2.2-1.7h.6v.3h-.4v.5h.3v.2h-.3v.6h.5v.2H24Zm-.4-.4v-1.4h-.2v1.8h.2l.5-1.7h-.1zm-.6.2.4-1.7H23l-.4 1.6h.1Zm-.5-.1v-1.6l-.4 1.5h-.1l.5-1.7h.2v1.4l.3-1.2h.1l-.4 1.7h-.1Zm-1-.4.5-1.2h-.1l-.5 1.2v-.1l.5-1.3h-.1l-.5 1.2v.2Zm4.8-.4h-.1V28v.8h-.2v-.4h.1v.3h.1v-.6.2Zm-.4-2.1v.2h.1v-.2Zm-.7-.1v.3-.1Zm-.3.8v-.2.5Zm-.8-.2.3.1.2-.8v.5h-.1Zm2.9-.2V26c-.1 0-.2.5-.2.5h.2Zm-.1-.6v.5h.2v.2-.2h-.4l.2-.7Zm85.8 4.5.5-1-.8-2h.4v1.3l.2-.4V28l.2-.2v-.2l.2-.2h.2l-.4.9v.3c-.1 0-.3.3-.3.3v.3c-.1 0-.2.3-.2.3v.2c-.1 0-.2.2-.2.2v.2l-.2.2h-.3Zm-1.9-2.3v.4-.7.2Zm1.2-.7v.2h-.4v.7h-.1.4v.8h-.4v-1h-.1v-.7h.1v-.1h1Zm-1.5 2.2v-.1h-.2Zm-1.8-2.1v1.1-1.3Zm0 1.9h-.3l-.1-.2v-1.5h.6V29l-.1.2h-.3Zm-1.7-3.1v3.1h-.6v-3.1h.3Zm-2.2 1.2v1.2-1.3Zm0 1.9h-.3v-1.7h.5v1.6h-.2Zm-3.4 0v-2h.3v.3h.1v-.2 1.9h-.6v-1.5 1.5h-.6Zm-1.9-3.1v1.4-.1 1.7h-.6v-1.4 1.4H98v-3.1h.3Zm-1.1 1.2-.2.4h-.1v-.3V29h-.7v-1.5l.2-.2h.7Zm-2.3.9h-1.2v.9h-.5L94 29v-1.4h.3v.8Zm-1.2-.2h.6v-.5.4Zm-1.8-1.3v2.5h-.6v-2.5h-.7v-.4h2.1v.1h-.3Zm-3.5.8H89v-.2h.3v-.9 1h.4v.2h-.4v1.7h-.6v-1.7Zm-1.7-.2v1.2-1.3Zm0 1.9h-.3v-1.5l.1-.2h.6v1.6h-.3Zm-3.9 1 .5-1-.8-2h.4v1.3l.2-.4V28l.2-.2v-.2l.2-.2h.2l-.4.9v.3c-.1 0-.3.3-.3.3v.3c-.1 0-.2.3-.2.3v.2c-.1 0-.2.2-.2.2v.2l-.2.2h-.4Zm-1.1-2.7v1.5h-.1v-1.5h-.3v-.2h.3v-.5h.1l.1-.1h.1l.1-.1v.7h.3v.2h-.3Zm-2-1v-.1zv.1zm0 2.7v-2h.3v2h-.6Zm-1.9-.5h.1v.3-.5l.1.1v.4h-.1V29v.5h-.2v-.3Zm-1.7.5v-2h.4v.5-.3 1.8h-.6Zm-.6-1h-1.2v.9h-.6v-1.6h.3v.8Zm-1.2-.2h.6v-.5.4Zm-2.3-.8.4 1.4v-.2l.2-.3V28l.1-.2v-.2l.1-.2v-.2h.3v1l-.1.2v.2l-.1.1v.3l-.1.1h-.4v-.5l-.2-.3v-.2l-.2-.2v-.2l-.1-.2v-.2l-.1-.2h.4Zm-1.8-.7v-.1zv.1zm0 2.7v-2h.3v2h-.6Zm-2.5 0v-2h.3v.3-.2 1.8h-.6v-1.5 1.5h-.6Zm-3.3-1v-1.8h.3v2.2h.3v-2.3h.3v2.5h-.8v-.8Zm-1.7-.5V29h-.1v-.1.1h-.1v-.4h.1v-.4h.3v.1Zm-.6.8v-.4.3-.2Zm-3.5.7v-2h.3v.3h.1c0-.1.2-.2.2-.2v1.8h-.6v-1.4zh-.6Zm-1.3-2.7v-.1zv.1zm0 2.7v-2h.3v2h-.6Zm-2-3.1v1.4-.1 1.7h-.6v-1.5 1.5H55v-3.1h.3ZM55 28.8v.4h-1.4v-1.8h.9v.4h-.1v-.3h-.2v2.2h.2v-.1Zm-5.1-2.6v1.4-.1 1.7h-.6v-1.5 1.5h-.6v-3.1h.3Zm-1.5 1.4v1.6h-.1v-1.5H48v-.1c0-.1.3-.1.3-.1V27h.1l.1-.1h.1l.1-.1v.7h.4v.2h-.4Zm-1.3-.3v2h-.5V29v.1-1.6h.3v1.4h.1v-1.4h.4Zm-3.4.1v1.2-1.3Zm0 1.9h-.3v-1.7h.6v1.6h-.3ZM41.9 27v-.3.4h.1l.1.1h.2v1.5h-.4v-.6.1-.1h-.1l-.1-.1v-1.1h.2v-.1h.2v.3Zm3.8-17.4c.2-.8 1.2-.8 1.3.2 0 .3 0 .6-.2.9-.3.6.1.7.6.2.9-.4 1.1-1.2 1.9-1.9.3-.3.6-.4.8-.2.3.2.5.4.5.7s-.2.5-.5.6c-.5 0-1.2.3-1.7.8s-1.2.9-2.1 1.1c0 .7-.2 1.1-.5 1.9-.2.5.3.6.7 0 .2-.7.5-.9.9-.8.4.4.6.4.9-.3l.3-.8c.2-.5.9-.4.9.1-.2.2-.2.2-.4.5-.3.5 0 .8.5.2.2-.2.4-.4.6-.5.3-.1.7-.2.8 0 0 .5-.4.6-.9.7-.6.2-1.1.6-1.6.8-.4.4-.7.8-1 1.5s-.1.8.7.3c.8-.4 1.5-.8 2.1-1 .9-.4 1.4.2.7.6-.5.3-1.1.4-1.7.4-.5.5-1.7.3-2.2 1v1.3c-.2.6 0 .7.5.5.4-.3 1 0 1 .4s-.2.6-.7.7h-.7c-.2 1-.1 1.9.1 2.9.1.5.3 1.1 0 1.4-.2.3-.7.4-1 .1 0 0-.1 0-.1-.2l-.5-.6c-.2-.3 0-.5.5-.8.2-.7 0-1.5.1-2.3h-.5c-.2.1-.3.4-.6.8-.4.5-.8.7-1.2 0l-.2-.4c0-.3 0-.5.4-.6.4-.3.8-.6 1.4-.8.3-.2.5-.5.5-.8v-.7c0-.8-.2-1-.8-.5-1.7.5-2.4 1.7-3.2 2.5-.3.2-.6.4-.9.5-.7.2-1.5-.4-.5-1 1.8-1 3.2-2.1 5.2-2.8.2-.1.4-.2.5-.4l.3-1.1c0-.3 0-.4-.3-.4-.4 0-.5.2-.9.7-.3.1-.6.2-.8 0 0 .3-.2.5-.4.6-.3 0-.6 0-.7-.1-.1-.2 0-.4.2-.6.4-.3.8-.4 1.2-.5.2-.2.3-.3.2-.6 0-.3.1-.9.4-1.2v-.5h-.5c-.4-.2-.3-.6 0-.7.3 0 .5-.1.4-.4-.2-.5-.2-1 0-1.4ZM85 14.1c.8 0 1.5 0 2.3-.2.6-.1.8-.2 1.2 0 .7.5.2 1.3-.3 1.8-.7.7-1.2 1.3-1.4 1.8-.4.5-.1.7.3.4.8-.5.9 0 .5.5-.7.3-1.3.5-1.9.5l-2.5 1.5c-.6.3-1.1.2-1.3-.2-.9 0-.8-.7 0-.8s1.7-.5 2.5-.9c1-1.4 1.9-2.6 2.9-3.5.3-.4.2-.6-.4-.5l-1.2.6c-.4.4-.9.4-1.2 0-.9-1.2-.4-1.4.5-1.1Zm25.3-3.1c.2.6-.5 1.6-.8 2.2-.1.4-.5.5-1 .4-.1 0-.3 0-.3.1-.2.4-.5.4-.8 0-.5-.4-1-.3-.6.3.3.5.7 1 1 1.6s0 .9-.3.6c-.1-.2-.4-.4-.6-.5-.4 0-.7 0-.4.4.3.3.4.5.6.8 0 .7.3 1 .8.6.3-.5.6-1 .8-1.2.5-.6 1 0 .4.4-.3.3.1.5.3.1.1-.2.3-.4.5-.4.4-.4.6-.2.5.2 0 .4.2.3.4 0 .2-.7.9-.9.8-1.8-.3-.2-.5-.3-.1-.6.3 0 .6-.3.9-.4.4-.3.6 0 .5.3-.5.9-1.1 1.8-1.5 2.6-.1.4-.4.7-.9.7-.6.2-1.3.7-1.9 1.1-.7.3-.7.6 0 .4.6-.2 1.1-.4 1.7-.8.4-.4.7-.3.6.2-.3.4-.6.8-.9 1.3-.8.3-.5.6-.8.9-1.2.3-2 1.5-2.6 1.6-.9 0-1.2 1 .5.5.7-.4 1.4-.9 1.9-1 .7-.4.9 0 1 .5v1.1c0 .7-.3.9-.9.9-.7 0-1.3.5.8.5.8.3 1.1 0 1-.4.3-.3.1-1.6-.2-2.6-.4-.3-.4-.7.1-1.1.5-.3.7-.2.6.1-.4.2-.2.6 0 .3.1-.1.4-.3.8-.5.4-.4.6-.9-.4-1-.3 0-.6 0-.9.4-.5.4-.9.1-.2-.5L112 18c.8-.5 1.2-.8.7-1.2-.4 0-.8-.2-.3-.8.3-.3.8-.9 1.1-1.3 0-.4.4-.7.8-1.1.2-.7.1-1.5-1.3-.8-.4.1-.9.5-1.3.8-1.2.2-1.5-.1-1.2-.6.5-.4.9-.9 1.3-1.3.6-.4.7-.9-.1-1.4-.8-.6-1.5 0-1 .7Zm-2.4 3.5c0-.3.1-.3.3-.2v.3h-.3Zm.9.1q.3-.3.6-.3c.2 0 .3.1.2.3-.4.3-.7.2-.8 0m1.5.4c.2-.4.4-.4.5 0 0 .2 0 .3-.2.5-.2.3-.4.3-.5 0 0-.2.1-.4.1-.5Zm-2.1.2c.1-.2.3-.2.4 0v.4c-.2.2-.4.2-.4 0v-.3Zm-11.6-1.8v1.7c0 .6-.2 1-.7 1.2-.3.2-.8.4-1.3.6-.9-.2-.9.9.1.8.4 0 .8-.2 1.1-.6.5-.3.5-.1.3.4-1 1.6-2.3 3-3.8 4.2-.8.5-.3.8.4.3.5-.3.8-.7 1.3-1.1 1.6-1.1 2.8-2.7 3.6-4.5 0-.3.2-.7.6-.7.3 0 1.1-.2.8-.7-.1-.2-.4-.3-.7 0-.3.2-.6.3-.4-.3.1-.2.2-.4.2-.6 0-.5.6-.9-.2-1.2-.6-.8-1.5-.9-1.2.7Zm.7 4.9c0-.9.4-.9.9-.2.6 1 1.3 1.6 2.1 1.9.7.3.3.5-.1.5s-.7-.2-1 0c-.3-.2-.7-.3-.9-.6-.3-.5-.7-1-.9-1.6Zm-28-4.1c.5-.4.9-.8 1.4-1 .3-.3.6-.2.8 0 .4.3.2.6 0 1-.2.3-.3.7-.2 1-.2.6-.3 1.2-.3 1.9s0 .7.3 0l.3-.3c.3-.2.3 0 .2.4 0 .4-.3.7-.4.9-.3 1.4-.7 2-1.2 2.5-.7.3-1 .2-.9-.4 0-.7.4-1.3.8-1.4v-.6c-.1-.2-.4-.1-.6 0-.7 0-.8-.2-.6-.5.3-.3.6-.4.8-.5.3 0 .5-.3.5-.6 0-.5 0-1 .2-1.6 0-.5-.2-.6-.5-.2-.2.1-.6.2-.7 0-.5-.3-.3-.7.3-.8Zm3.6-.5c.4.1.5-.2.8-.6.6-.8 1-1 1.5-1 0-.2.4-.4.7-.5.4-.6.7-.6.9-.3.6.6.4 1.1 0 1.6-.3 1-.8 2.1-1.2 3.1-.2 0-.4.2-.6.3-.3.2-.4.5-.4.9-.2.7-.1 1 .5.8.9-.3 1.1.4.3.9-.1.3-.4.6-.5.9-.3.6 0 .6.6.3.8-.2 1.3 0 1.3.5 0 .7-.4.8-.7.5h-.5c-.5.4-1.1.3-1.5 0-.5-.2-.5-.4-.2-.8s.5-.9.1-1.4c-.3-.2-.1-.5 0-.8 0-.2-.1-.6 0-1q-.6-.6 0-.9c0-.2 0-.5.3-.8-.4-.3-.5-.6 0-.8.2-.3.3-.7.4-1.1.1-.5.3-.5.4-.1v.7c0 .5.2.5.4 0 .3-.6.5-1.3.8-1.9 0-.3-.1-.3-.4 0-.5.5-.8.6-1.4.8-.6.3-.7.8-1 .8-.2.4 0 .9 0 1.4 0 .9-.8 1-.9.3v-.9c-.2-.9-.2-1.5.5-1.2Zm-14.6-.3-2.7 1.3c-.6 0-.9.3-.5.8l.5.4c.2.2.5.2.8 0 .3-.4.8-.7 1.3-.8.4-.5 1-.4.8.2-.3.6-.4 1-.4 1.5q-.3.45-.9.6c-.6 0-.8.4-.3.6.4.2 1 0 1.4-.4.2-.4.4-.4.6-.1.3.3.6.2.8-.3.5-.8 1.3-.7 2-1.1.5-.1.4-.4.2-.8-.2-.2 0-.4.2-.6l.7-.5c.4-.2.6-.2.5.3v.5c-.7 2.1-.9 4.1-1 6 0 .4-.3.5-.6.2l-.6-.4c-.4-.3-.7-.4-.5.2l1.5 1.4c.3.5.7.5 1 0v-1.1c-.1-.6 0-1.2.2-1.9 0-1.1.2-2.5.5-4.1 0-.5.1-.9.4-1.3-.2-.6-.7-.6-1.5-.2-.7.5-1 .8-1.8 1.2-.5.3-1.3.9-1.7 1.3-.4.2-.6.2-.6-.1.3-.4.4-.4.4-.7.5-.4 1-.9 1.3-1.5.2-.4.7-.5 1.1-.5.5-.4.8-1 .5-1.4h-1c-.2-.5-.6-1-1.1-1.4-.2 0-.3-.1-.5 0l-.2.4v.8c-.2.3-.3.7-.3.9 0 .4-.3.6-.6.7ZM56 18.7c0-.8.6-.9.9 0 .1.5.2.9.2 1.3.2.5.2 1.1 0 1.7-.4.4-.7.5-1 0-.4-.4-.4-.9-.1-1.5.1-.5.2-1 .1-1.5Zm3.1-.9c.4-.1.8-.2 1.2-.2.5.1.5.4.1.7-.4 0-.6.3-1.1.1-.1 0-.3-.1-.6-.2 0-.3.1-.5.4-.4m-.2 1.7c0-.6.2-.7.7-.4.2.2.4 0 .7 0 .5-.3.8-.3.8.2-.1.3-.3.4-.5.4-.3 0-.4.4-.4.7v1c0 .3-.1.5-.3.7q-.3.3-.6 0c-.1-.2-.3-.3-.2-.6v-.6c0-.3-.3-.5-.6-.4-.5 0-.5-.3-.2-.4.4 0 .6 0 .6-.4Z"/></g></svg>