<svg width="128" height="137" fill="none" xmlns="http://www.w3.org/2000/svg"><g filter="url(#a)" fill="#7b0203"><path d="M64.024 20C39.686 20 20 39.766 20 64.147c.016 24.119 19.85 43.872 44.021 43.853 24.245-.029 44.002-19.795 43.973-43.995C107.968 39.74 88.227 20 64.024 20m0 85.008c-22.633-.036-41.09-18.454-41.051-40.952.052-22.69 18.45-41.096 41.06-41.073s40.994 18.473 40.975 41.035c-.02 22.562-18.477 41.025-40.97 40.99z"/><path d="M52.538 28.151c.574-.322 1.125-.696 1.312-1.39.026-.1.062-.19.194-.167a.38.38 0 0 1 .322.322 1.61 1.61 0 0 1-.496 1.477q-1.077.958-2.164 1.883a.8.8 0 0 0-.322.471c-.12.661-.245 1.322-.384 2.067.432-.322.8-.58.742-1.164-.02-.43.07-.859.26-1.245a.468.468 0 0 1 .72-.255c.554.249.828 1.161.413 1.645a2.28 2.28 0 0 0-.484 1.735c.032.816 0 1.631 0 2.486a8 8 0 0 1-.935-.587c-.361-.293-.561-.206-.716.19a2 2 0 0 1-.155.252c-.393.645-.38.645-.896.096-.22-.232-.261-.36.061-.532a5 5 0 0 0 1.21-.925 1.22 1.22 0 0 0 .396-1.222c-.168 0-.261.148-.371.248-.542.474-.532.468-1.093 0a.323.323 0 0 1-.11-.454c.239-.613.442-1.239.684-1.851.09-.236.042-.345-.178-.455a1.32 1.32 0 0 1-.812-.78c1.064.064 1.545-.552 1.857-1.413.313-.86.671-1.715.916-2.602.026-.084-.029-.219.113-.238a.27.27 0 0 1 .27.18 1.35 1.35 0 0 1 .075 1.1c-.132.367-.287.748-.429 1.128m-.4 70.527c.48-1.187.932-2.293 1.37-3.402.104-.258.168-.413.517-.271.348.142.27.323.17.558-.57 1.4-1.135 2.802-1.712 4.192-.058.138-.029.441-.287.364s-.577-.093-.645-.49c-.293-1.503-.615-2.996-.925-4.492-.177 0-.148.145-.187.239-.426 1.051-.855 2.099-1.27 3.153-.094.239-.181.342-.461.2-.233-.116-.368-.16-.236-.477.6-1.425 1.164-2.86 1.754-4.288.058-.136.036-.442.28-.355.246.087.578.077.646.487.277 1.47.596 2.93.9 4.395q.037.096.086.187m21.937.545c-.303-1.226-.584-2.438-.91-3.638-.08-.29.016-.348.236-.4.219-.051.4-.148.483.19.38 1.584.78 3.16 1.174 4.741.023.103.087.238-.09.274-.258.048-.506.248-.777 0-.565-.529-1.142-1.045-1.713-1.564l-1.812-1.638c.323 1.29.59 2.45.9 3.605.084.322.074.442-.277.548-.416.126-.39-.158-.445-.371-.361-1.434-.726-2.866-1.064-4.304-.042-.171-.275-.42.016-.548.29-.13.548-.236.848.048.967.928 1.986 1.825 2.986 2.731.118.144.271.256.445.326M36.722 88.459c1.003-.874 1.935-1.664 2.834-2.466.19-.168.294-.281.532 0 .239.28.149.39-.064.574-1.148.986-2.286 1.986-3.438 2.97-.119.102-.248.376-.419.209-.17-.168-.483-.323-.367-.726.342-1.167.645-2.347.967-3.52.084-.323.165-.63.274-1.055-.99.858-1.896 1.641-2.795 2.428-.19.167-.323.345-.578.035s-.132-.383.081-.567c1.138-.968 2.257-1.967 3.402-2.934.12-.104.22-.436.445-.233.226.203.484.361.358.777-.397 1.339-.745 2.693-1.11 4.04-.035.11-.077.233-.122.468m20.588 7.369c1.139 0 2.087.644 2.322 1.586.1.403-.032.529-.425.516-.2 0-.245-.087-.271-.258-.116-.706-.616-1.019-1.258-1.135-.725-.129-1.39 0-1.84.645a2.76 2.76 0 0 0-.436 2.209c.197.938 1.257 1.528 2.325 1.328.806-.148.848-.203.941-.877.036-.248 0-.364-.27-.397-.323-.038-.646-.112-.968-.16-.206-.03-.297-.114-.22-.323.059-.165 0-.42.323-.355a60 60 0 0 0 1.8.323c.196.032.245.116.212.3a63 63 0 0 0-.283 1.55.41.41 0 0 1-.271.323 3.37 3.37 0 0 1-2.057.338c-1.136-.199-2.029-.757-2.29-1.934a3.09 3.09 0 0 1 1.026-3.163 2.27 2.27 0 0 1 1.64-.516m27.59-6.856c.19.077.248.261.352.403s-.058.2-.139.258c-.703.519-1.403 1.038-2.115 1.538-.19.132-.216.21-.075.413.765 1.1.755 1.102 1.842.293.345-.258.693-.503 1.035-.758.168-.125.297-.296.493 0 .158.239.194.355-.074.532-.613.413-1.196.871-1.806 1.29-.264.18-.296.323-.077.568.3.341.474.967.851 1.009s.72-.442 1.077-.7c.442-.322.893-.619 1.31-.967.244-.203.322-.052.454.106s.197.287-.042.455a121 121 0 0 0-2.792 2.028c-.187.139-.284.145-.43-.051a419 419 0 0 0-2.87-3.954c-.109-.148-.125-.225.046-.345.922-.66 1.838-1.331 2.754-1.999.067-.038.138-.087.206-.12Zm10.669-4.433c0 1.331-1.39 2.63-2.58 2.405a2 2 0 0 1-.422-.132c-.12-.058-.322-.12-.174-.306.148-.188.064-.478.442-.387a1.61 1.61 0 0 0 2.025-1.451.79.79 0 0 0-.323-.82.706.706 0 0 0-.87.059c-.323.241-.63.528-.948.79a6 6 0 0 1-.742.564 1.2 1.2 0 0 1-1.432-.042 1.34 1.34 0 0 1-.564-1.422 2.72 2.72 0 0 1 1.216-1.783 1.35 1.35 0 0 1 1.18-.187c.174.055.541 0 .432.358-.078.248-.19.558-.626.37-.435-.187-.803.075-1.067.413-.323.403-.645.845-.39 1.39a.56.56 0 0 0 .344.337q.119.041.245.027a.6.6 0 0 0 .233-.08c.34-.201.653-.446.929-.729.238-.2.464-.42.712-.603a1.38 1.38 0 0 1 1.57-.19 1.46 1.46 0 0 1 .81 1.419M26.717 71.408c0-.922.322-1.509 1.045-1.873.119-.061.322-.242.393.032.042.187.37.445-.032.613-1.032.428-.771 2.015-.223 2.58a.75.75 0 0 0 .764.222.71.71 0 0 0 .523-.597q.105-.684.08-1.377a2.5 2.5 0 0 1 .22-1.2 1.316 1.316 0 0 1 2.086-.373 2.64 2.64 0 0 1 .612 2.644 1.3 1.3 0 0 1-.644.725c-.142.068-.323.355-.48.075-.11-.21-.355-.465.096-.716.696-.39.555-1.935-.168-2.277-.435-.213-.838.016-.932.535-.11.62-.025 1.248-.087 1.87-.122 1.194-1.222 1.8-2.215 1.23a1.9 1.9 0 0 1-.661-.72 3.1 3.1 0 0 1-.377-1.393m6.416 2.999c0 .168-.145.158-.238.197-.487.203-.967.396-1.464.59-.203.077-.323.142-.21.419.29.645.549 1.306.797 1.967.093.258.21.27.438.17.48-.212.968-.383 1.458-.602.322-.148.345.08.425.274.081.193.162.322-.132.442q-2.258.88-4.485 1.812c-.38.161-.342-.136-.451-.306-.149-.236-.055-.323.177-.423.567-.213 1.125-.464 1.696-.667.27-.097.368-.187.235-.487a32 32 0 0 1-.78-1.916c-.09-.242-.18-.287-.422-.18-.571.254-1.161.46-1.732.712-.274.123-.374.04-.461-.216-.087-.254-.174-.364.142-.49 1.5-.587 2.989-1.203 4.485-1.802.2-.08.532.245.523.506Zm34.841 25.045a284 284 0 0 0-.232-2.706c-.02-.229-.042-.425.3-.419.258 0 .451-.032.47.348.056 1.084.168 2.167.24 3.25.051.765-.188 1.423-.91 1.774a2.57 2.57 0 0 1-2.508 0c-.603-.345-.755-.967-.823-1.612-.113-1.032-.18-2.067-.29-3.099-.026-.274.048-.361.322-.348s.445-.106.471.284c.065 1.035.165 2.067.271 3.098.126 1.206 1.29 1.726 2.296 1.026a.9.9 0 0 0 .38-.61 4.2 4.2 0 0 0 .013-.986m10.299-67.789c-.822-.106-.987-.37-.758-1.11a2 2 0 0 1 .135-.367c.094-.151.12-.464.358-.38.239.084-.016.3-.019.458s-.097.232 0 .322.239-.016.348-.068c.174-.087.323-.206.516-.29.406-.19.687-.416.413-.919a.32.32 0 0 1 .129-.429c.174-.135.322-.016.432.094a.9.9 0 0 1 .197.22c.225.396.503.467.85.148.294-.271.45-.062.61.17.223.323-.132.323-.245.394a4.3 4.3 0 0 0-1.422 1.422c-.86 1.444-2.18 2.49-3.547 3.457-.256.182-.56.288-.873.303-.097 0-.213 0-.236-.117-.023-.116.049-.141.132-.177 1.416-.625 2.174-1.86 2.98-3.13Zm2.918 60.021c.216 1.896.42 3.708.645 5.52.029.23-.035.345-.226.41-.19.064-.322.322-.567.096a995 995 0 0 0-4.211-3.646c.422-.416.741-.416 1.164 0 1.019 1 2.092 1.934 3.176 2.924-.213-1.544-.397-3.044-.645-4.537-.08-.545.329-.545.664-.767M34.127 49.791c.058-1.444.106-2.76.167-4.076 0-.106-.083-.29.123-.322s.229.097.264.235c.4 1.635.574 3.273.158 4.934-.09.354-.26.416-.612.435a.966.966 0 0 1-1.152-.825 4 4 0 0 0-.754-1.435c-.223-.278-.048-.323.155-.39a.87.87 0 0 1 .873.322q.45.519.778 1.122M95.17 74.152a.97.97 0 0 1 .78-1.141c.703-.207 1.374-.51 2.1-.787-.542-.548-1.035-1.097-1.587-1.58-.435-.377-.57-.764-.261-1.319.693.735 1.412 1.454 2.076 2.218.308.362.741.592 1.213.645.422.065.835.187 1.254.252.365.058.229.28.187.474s-.045.406-.358.277c-1.457-.61-2.805-.219-4.133.448-.394.21-.823.339-1.27.513Zm4.091 3.763c0 .461-.287.668-.645.532-1.228-.47-2.457-.928-3.679-1.415-.287-.113-.4-.065-.49.219-.106.345-.261.674-.38 1.012-.068.19-.12.349-.368.197-.161-.097-.426-.058-.284-.416.468-1.154.906-2.322 1.335-3.492.107-.29.265-.21.452-.142s.322.136.206.384c-.158.345-.252.716-.42 1.051s-.044.39.227.49c1.244.461 2.482.942 3.72 1.422.126.048.317.036.326.158M77.802 99.239c-.084.2-.323.193-.47.29-.15.097-.226.016-.288-.132-.645-1.525-1.29-3.044-1.934-4.57-.146-.348.206-.29.351-.396.226-.168.322 0 .39.174l1.545 3.673.406.96Zm14.943-19.995.264.135c1.41.716 2.812 1.442 4.228 2.138.27.136.258.245.135.468-.122.222-.18.396-.503.229-1.409-.745-2.834-1.461-4.253-2.186-.12-.062-.322-.081-.194-.304.104-.167.13-.393.323-.48M30.548 43.068c.67-.394 1.257-.345 1.696.193.438.539.8 1.084 1.18 1.642.098.152.162.323.187.503a.41.41 0 0 1-.232.451c-.151.055-.184-.155-.255-.252-.729-.973-1.473-1.928-2.576-2.537m5.626 3.05c-.303-.774-.574-1.473-.848-2.17-.074-.187-.084-.322.178-.322h.293c1.093-.049 1.1-.045.864 1.044a4.6 4.6 0 0 1-.487 1.448m43.892-10.782c.49-.73.438-1.477.322-2.232.706.074 1.051.323 1.077.755.03.612-.551 1.264-1.4 1.477Z"/><path d="M52.89 33.662c.379-.077.77-.052 1.136.074a.8.8 0 0 1 .522.703c.022.226 0 .452-.21.565s-.293-.142-.403-.249c-.342-.332-.66-.683-1.044-1.093Zm10.879 1.27a29.124 29.124 0 0 0-29.056 29.192c0 15.945 13.098 28.972 29.088 28.96a29.075 29.075 0 1 0-.032-58.152m2.305 56.726a27.67 27.67 0 0 1-26.44-14.13H87.91c-3.128 6.127-10.941 13.253-21.837 14.13Zm22.42-16.49q-12.356-.03-24.715 0t-24.83 0a.745.745 0 0 1-.815-.561 27.69 27.69 0 0 1 7.932-31.904c5.985-4.907 12.853-6.994 20.55-6.278 10.696.997 20.192 8.668 23.494 18.922 2.086 6.474 1.838 12.862-.661 19.182a.864.864 0 0 1-.955.639m9.862-30.984c-.545-.342-1.21-.503-1.635-1.042a.3.3 0 0 0-.184-.064 3.7 3.7 0 0 1-.967-.242c-.893-.258-.922-.322-.67-1.222-.29.171-.54.4-.736.674-.293.322-.164.564.165.745.409.212.856.34 1.315.377.371.042.645.084.69.542.026.238.207.603.526.341.416-.345.619-.048.996.178-.396.055-.683.113-.967.132a13.2 13.2 0 0 1-4.015-.4c-.322-.074-.912.2-.967.477-.08.43.297.497.568.623.212.1.445.158.748.264l-.674.245c-.68.248-.665.242-.394.906.184.448.416.9.29 1.522-.138-.235-.216-.377-.3-.513-.444-.725-.967-1.386-1.754-1.75-.786-.365-1.057-.232-1.093.664a15.5 15.5 0 0 0 .323 2.989c.12.767.645 1.041 1.36.742a5.6 5.6 0 0 0 1.168-.852 1.5 1.5 0 0 1 .258 1.22c-.087.36.22.373.403.438.267.1.21-.187.232-.303a2.96 2.96 0 0 0-.213-1.738c-.051-.12-.193-.22-.07-.397a1.54 1.54 0 0 0 .1-1.467c-.146-.429.032-.62.39-.745.296-.103.596-.187.886-.3.522-.2.548-.374.158-.758-.1-.096-.258-.167-.264-.36.464.09.909.186 1.357.254.907.18 1.84.18 2.748 0 .254-.064.519-.161.57-.474a.71.71 0 0 0-.348-.706m-7.236 5.333c-.393.216-.66.132-.89-.28a4.8 4.8 0 0 1-.49-2.041c.735.3 1.4.615 1.812 1.29.265.412.13.722-.432 1.031m.283 38.778a4.8 4.8 0 0 0-1.547-.058c.351-.613.474-1.168.09-1.729-.61-.886-1.612-.932-2.431-.087-.548.565-1.067 1.158-1.612 1.725-.168.174-.207.268 0 .458a217 217 0 0 1 3.495 3.267c.226.216.338.148.496-.045.158-.194.323-.271.042-.497-.454-.38-.874-.803-1.29-1.216-.074-.074-.3-.138-.141-.293.432-.426.751-1.042 1.522-.916.548.094 1.102.165 1.654.261.664.12.867.02 1.145-.612-.484-.087-.955-.162-1.422-.258Zm-2.282-.142c-.323.383-.69.748-1.029 1.125-.123.139-.21.168-.355.023-.322-.323-.883-.616-.967-1.003s.516-.668.8-1.01c.198-.282.47-.505.786-.644a.812.812 0 0 1 1.09.803 1.07 1.07 0 0 1-.325.706m-46.175.671c-.484-.47-1.003-.903-1.486-1.37-.188-.178-.281-.123-.426.038a225 225 0 0 1-3.196 3.547c-.21.23-.145.323.045.497.445.39.871.803 1.323 1.183a2.22 2.22 0 0 0 1.802.626c1.254-.18 2.634-1.748 2.634-3.067.049-.57-.277-1.044-.696-1.454m-2.222 3.824a1.57 1.57 0 0 1-1.073-.419c-1.074-.845-1.077-.841-.19-1.831.547-.613 1.112-1.213 1.644-1.842.206-.245.322-.216.535 0 .29.294.6.565.893.852a1.2 1.2 0 0 1 .361.86c0 .968-1.206 2.313-2.17 2.38m5.295-1.186c-1.47 0-2.802 1.45-2.802 3.066a2.6 2.6 0 0 0 2.631 2.538c1.413 0 2.75-1.484 2.75-3.073a2.58 2.58 0 0 0-2.579-2.531m.535 4.678a1.65 1.65 0 0 1-1.899-.145 1.61 1.61 0 0 1-.674-1.735 2.94 2.94 0 0 1 1.01-1.709 1.61 1.61 0 0 1 1.844-.219 1.71 1.71 0 0 1 1.032 1.654 2.79 2.79 0 0 1-1.313 2.154M35.952 80.453c-.055-.19-.18-.213-.384-.184-1.802.261-3.608.506-5.446.758.155.51.352.774.92.645 1.14-.242 1.15-.206 1.715.832.496.91.496.91-.174 1.709-.465.558-.465.558 0 1.248 1.186-1.48 2.37-2.948 3.547-4.418.196-.248-.12-.393-.178-.59m-2.257 2.444-.835-1.509c.832-.193 1.65-.216 2.547-.477z"/><path d="M54.21 81.91q-.661.501-1.404.87c-.222.107-.341.146-.348-.19a.74.74 0 0 1 .458-.809 3.46 3.46 0 0 0 1.46-1.29.504.504 0 0 1 .584-.241c.271.054.145.293.145.448v6.223c0 .323-.06.468-.425.445-.303-.02-.503 0-.497-.425.042-1.655.026-3.3.026-5.03Zm18.027 0a6.4 6.4 0 0 1-1.68.968c-.126-.532-.077-.906.493-1.158a3.1 3.1 0 0 0 1.339-1.209.506.506 0 0 1 .616-.261c.238.068.129.322.129.468v6.174c0 .345-.055.487-.449.471-.393-.016-.48-.07-.474-.46.026-1.481 0-2.964 0-4.444l.026-.548Zm17.355-13.22c-.174-.226-.287-.258-.49-.035-.253.262-.56.466-.9.596-2.235.906-4.392.887-6.41-.574a.457.457 0 0 0-.69.032c-.236.23-.506.423-.8.571a5.63 5.63 0 0 1-6.617-.967c-.322-.297-.458-.21-.693.026a4.8 4.8 0 0 1-1.135.938 6.9 6.9 0 0 1-3.354.667c-.264 0-.277-.138-.283-.338a708 708 0 0 0-.261-5.675c0-.271.151-.203.28-.203q.692.038 1.383-.017c1.013-.158 1.664.145 1.835 1.222.049.294.232.378.532.365.906-.036 1.812-.032 2.718-.055.48 0 .968-.042 1.484-.068l-.561-1.45h2.544a.43.43 0 0 1 .451.286c.21.449.439.884.645 1.326.068.132.123.251.323.248h3.646c-.303-.593-.519-1.048-.767-1.487-.184-.322-.087-.377.242-.37.738.019 1.483-.017 2.222 0 .393.019.55-.059.528-.497a28 28 0 0 1 0-2.422c0-.37-.067-.51-.477-.5-1.335.03-2.67 0-4.005.023a.645.645 0 0 1-.667-.422 2549 2549 0 0 0-5.266-10.215c-.56-1.09-1.125-2.177-1.712-3.312l-2.938 5.06-6.075-12.138-7.003 13.117-5.353-4.859c-.08.136-.151.245-.21.361a2871 2871 0 0 0-4.453 8.964.645.645 0 0 1-.667.43c-2.109-.02-4.218 0-6.326-.02-.397 0-.503.113-.49.496.028.79.041 1.584 0 2.374-.026.47.128.56.567.554 1.644-.026 3.286 0 5.001 0-.503 1.023-.967 1.987-1.473 2.983a37 37 0 0 0 3.804.097.57.57 0 0 0 .594-.387c.387-.803.796-1.59 1.203-2.38.07-.139.093-.322.322-.322h3.295l-1.212 2.866c1.145.116 2.228.21 3.305.323a.603.603 0 0 0 .726-.387c.39-.816.841-1.612 1.248-2.412a.644.644 0 0 1 .674-.416c.89.029 1.78 0 2.67 0h1.115c-.713 1.228-1.377 2.376-2.131 3.672h2.425c.251 0 .345.075.341.34v4.1c0 .23-.07.323-.287.362-1.68.255-3.302.129-4.73-.877-.358-.255-.552-.242-.858 0a6.22 6.22 0 0 1-4.698 1.4c-1.325-.11-2.58-.436-3.489-1.487-.148-.168-.213-.107-.345 0-1.844 1.464-4.94 1.583-6.926.303-.187-.12-.322-.51-.62-.294-.19.192-.314.441-.35.71-.096.318-.082.658.038.967a2.43 2.43 0 0 0 1.187 1.342 6.4 6.4 0 0 0 6.19.045c.275-.139.497-.48.762-.507.264-.025.412.423.686.574.084.049.162.116.246.165a6.22 6.22 0 0 0 4.282.764c1.367-.213 2.58-.703 3.295-2.002.239.222.439.445.67.622 1.784 1.354 5.057 1.377 6.895.035.261-.19.41-.322.616.068.176.28.42.512.71.674a6.23 6.23 0 0 0 4.372.816c1.315-.194 2.495-.67 3.256-1.89.257.477.64.874 1.11 1.145a6.35 6.35 0 0 0 6.449-.055c.322-.17.554-.625.831-.645.278-.02.523.442.842.623a6.54 6.54 0 0 0 4.547.645 4.43 4.43 0 0 0 2.434-1.216 1.783 1.783 0 0 0 .18-2.396Zm-17.29-13.93q.501-.348.967-.745c.19-.158.28-.154.394.075 1.019 2.057 2.04 4.107 3.105 6.239H74.51a.393.393 0 0 1-.43-.3q-.966-2.4-1.934-4.792a.323.323 0 0 1 .155-.477Zm-17.029.926c-.032.054-.048.122-.077.18-.239.465-.268 1.142-.687 1.367s-.993.046-1.5.046v.028h-1.29c-.238 0-.322-.032-.199-.296a213 213 0 0 0 1.612-3.205c.113-.232.207-.232.384-.065a60 60 0 0 0 1.644 1.49c.178.145.226.268.113.455m10.964-1.574c0-.322-.065-.445-.407-.413-.558.055-1.119.078-1.676.08-.294 0-.352.12-.355.381 0 .939-.032 1.877-.052 2.815 0 .165.032.323-.238.323h-4.292l5.195-9.867c1.006 2.496 1.976 4.91 2.95 7.33.293.728.577 1.466.884 2.192.1.242.119.354-.2.345h-1.532c-.245.026-.28-.087-.277-.306zm2.334 3.66c.087.206.142.322.194.461.27.667.538 1.335.825 2.048h-2.476zM62.29 81.956a2.305 2.305 0 0 0-2.17-1.716 2.22 2.22 0 0 0-2.145 1.445c-.37 1.015-.078 2.257.677 2.844.867.687 1.867.577 2.947-.378a4.7 4.7 0 0 1-.364 1.732c-.102.226-.26.422-.458.57a1.144 1.144 0 0 1-1.844-.512c-.181-.545-.571-.323-.832-.252-.323.078-.071.378 0 .53a1.72 1.72 0 0 0 1.373 1.205 2.32 2.32 0 0 0 2.744-1.612 6.8 6.8 0 0 0 .071-3.856Zm-2.129 2.202a1.387 1.387 0 0 1-1.4-1.464c0-.948.581-1.66 1.377-1.68.797-.02 1.332.645 1.339 1.567s-.507 1.567-1.316 1.587zm7.978-2.476c-.345-.868-.967-1.403-1.935-1.442a1.97 1.97 0 0 0-1.996 1.326 6.4 6.4 0 0 0 .036 4.675 1.85 1.85 0 0 0 1.805 1.222 1.97 1.97 0 0 0 1.935-1.109c.423-.78.458-1.632.468-2.492a5.6 5.6 0 0 0-.313-2.18m-.81 4.011c-.203.645-.644 1.019-1.183 1.016a1.234 1.234 0 0 1-1.19-1.061 7.6 7.6 0 0 1 .02-3.615c.164-.645.58-1 1.115-1.019a1.26 1.26 0 0 1 1.226.968c.154.624.23 1.265.222 1.909a8.6 8.6 0 0 1-.21 1.802"/></g><defs><filter id="a" x="-13" y="0" width="154" height="157" filterUnits="userSpaceOnUse" color-interpolation-filters="sRGB"><feFlood flood-opacity="0" result="BackgroundImageFix"/><feColorMatrix in="SourceAlpha" values="0 0 0 0 0 0 0 0 0 0 0 0 0 0 0 0 0 0 127 0" result="hardAlpha"/><feOffset dy="16"/><feGaussianBlur stdDeviation="6.5"/><feColorMatrix values="0 0 0 0 0 0 0 0 0 0 0 0 0 0 0 0 0 0 0.03 0"/><feBlend in2="BackgroundImageFix" result="effect1_dropShadow_49_9022"/><feBlend in="SourceGraphic" in2="effect1_dropShadow_49_9022" result="shape"/></filter></defs></svg>