<svg xmlns="http://www.w3.org/2000/svg" viewBox="0 0 128 42.9"><defs><style>.cls-1{fill:#871920}.cls-2{fill:#7b0203}</style></defs><g id="_图层_1" data-name="图层_1"><path class="cls-1" d="M90 18.8c-.2 0-.3.1-.5.1-.3 0-.7 0-1-.2-.4-.3-.7-.6-1.1-.9-.1-.1-.2-.2-.3-.4-.1-.4 0-.7.4-.7 1.3 0 2.2-.8 3.2-1.4.8-.5.7-.8.4-1.5 0-.3-.2-.6-.3-.9 0-.6.3-.9.8-.6.6.3 1.1.7 1.4 1.2.1.2.2.2.3.1.4-.2.7-.4 1-.7q.45-.6 1.2-.9c.2 0 .3-.2.4-.4 0 0 0-.3.3-.2.2 0 .4.2.3.4-.2.7-.6 1.4-.9 2.1 0 0-.2.1-.2.2-.6.4-1.2.7-1.8 1.1 0 0-.2 0-.2.2-.1 1.3-.8 2.5-1.4 3.6-1.7 2.8-3.9 5.3-6.5 7.5-.4.3-.8.6-1.3.6h-.3v-.3c0-.2.2-.3.4-.4 1.7-1.4 3.1-2.9 4-4.9.4-.9.9-1.8 1.4-2.7Zm-36.2 3.7c0 .7-.2 1.3-.4 1.9 0 .1-.1.2 0 .3.1 0 .2 0 .2-.1 1.1-.8 2.2-1.5 3.2-2.5.2-.2.6-.3.9-.5.5-.4.9-.8 1.3-1.3.1-.2.3-.3.5-.2.2.2 0 .4 0 .5-.8 1.6-1.9 3-3.1 4.2-.7.7-1.6 1.1-2.4 1.5l-1.2.6h-.4c-.4-.4-.7-.8-1.1-1.3v-.3c.8-1.1 1.2-2.5 1.5-3.8 0-.2 0-.4.2-.4s.3 0 .4.2c.4.4.4.9.3 1.3Zm6.2-8.3v.2c-.5 1.1-.7 2.3-.8 3.5 0 .6-.5 1.1-.9 1.5-.1.1-.3.1-.4 0v-.3c.5-.9.4-1.9.5-2.8.1-.6.1-1.3.3-1.9.1-.5 0-1.1-.3-1.5-.1-.1-.2-.3 0-.4.1-.1.3-.3.5-.1.5.5 1 1 1.3 1.8v.1Zm37.2 8.9c0 .2 0 .4-.2.5-.8.7-1.3 1.5-1.9 2.3 0 0 0 .2-.2.2 0 .1-.3.2-.4.1-.2 0-.1-.2 0-.4.8-1.2.4-2.4.2-3.6 0-.3-.2-.5-.2-.8 0-.2 0-.4.3-.4.9 0 2.1 1 2.3 1.8v.2Zm-32.4-1.9c0 .3-.2.5-.5.6-1 .1-1.8.7-2.7 1.2-.2 0-.3.2-.5.3-.1 0-.3.1-.4 0v-.4c.9-.7 1.3-1.7 1.7-2.7 0-.1 0-.3.1-.4 0-.2 0-.3.2-.4h.5c.5.5 1 1.1 1.5 1.7v.2Zm14.6 4.4c-.2.4-.3 1-.9 1.3-.3.2-.6 0-.7-.3-.2-.7-.6-1.2-1.1-1.7-.2-.2-.3-.3-.5-.4-.2-.2-.2-.3 0-.4h.4c.7.2 1.4.3 2 .6.4.2.6.5.6 1Zm-20.7 9.2h-1.4c.4-.2.6-.8.4-1.2 0-.1-.1 0-.2-.1H57c-.8 0-.9.2-.8 1 0 .2.2.2.4.4h-1.4c.5-.1.4-.5.4-.8v-1.4c0-.3 0-.5-.4-.7h1.4c-.4.2-.6.9-.4 1.2h1.5c.2-.4 0-1-.4-1.2h1.3c-.4 0-.4.3-.4.7v1.5c0 .5 0 .5.4.7Zm22-2.1c-.1 0-.2 0-.2-.1-.3-.5-1-.7-1.5-.5s-.8.8-.7 1.5c0 .6.5.9 1.1 1h.1c.7 0 1-.5.7-1.1 0-.2-.3-.1-.4-.2h1.3c-.6.2-.4.6-.4.9s-.1.5-.4.5c-.7.2-1.3.2-2 0-.5-.2-.8-.6-.8-1.1s.2-1.1.7-1.3c.5-.3 1.1-.4 1.6-.2h.3c.6-.2.4.3.5.5v.2Zm-3.8 2.1-2.3-2.2v1.8c0 .3.3.3.4.4h-1.1c.5-.1.4-.5.4-.8v-1.3c0-.3 0-.6-.4-.7.4 0 .9-.1 1.2.3.5.6 1 1.1 1.6 1.7v-1.7c0-.2-.2-.2-.4-.3h1.1c-.5.1-.4.5-.4.9v2Zm18.5 0c.4-.1.4-.4.4-.7v-1.5q0-.5-.5-.7h2.6c.1 0 .2 0 .2.1v.4H98c0-.3-.4-.3-.6-.3h-.5c-.3 0-.5 0-.4.4 0 .2-.2.5.1.6.4.2 1.1 0 1.3-.4v1.1c-.3-.7-.8-.4-1.3-.5-.2.3 0 .6 0 1 0 .2.1.2.3.2.6 0 1.2.1 1.6-.5h.1c0 .7 0 .7-.7.7h-2.2Zm-32.1-2.2v1.5c0 .3 0 .5.4.6h-1.1c.5 0 .4-.4.4-.8v-1.3c0-.4 0-.6-.6-.7.6-.1 1.1 0 1.4.4.4.5.9 1 1.5 1.6v-1.6c0-.2-.2-.2-.5-.3h1.3c-.6.1-.5.5-.5.9v1.9c-.2 0-.2-.1-.3-.2-.5-.5-1-1.1-1.5-1.6-.1-.1-.2-.2-.3-.4Zm40.9-.8v1c-.1 0 0-.2-.2-.3-.2-.3-.5-.5-.9-.4-.2 0-.4.1-.4.3s0 .3.2.4l.6.3.6.3c.3.2.4.4.4.8 0 .3-.3.5-.6.6s-.7.1-1 0c-.2 0-.3 0-.5.1-.1-.3-.1-.6-.2-.9.2 0 .2.2.3.3.3.4.7.6 1.1.4.2 0 .3-.2.4-.3 0-.2 0-.4-.2-.5-.3-.2-.5-.3-.8-.5q-.75-.45-.6-.9c0-.4.5-.6 1-.6h.3c.2 0 .4 0 .6-.1Zm-19.3.1H86c-.5.2-.4.6-.4.9v1c0 .5-.2.8-.7.9-.3 0-.6.1-.8 0-.7 0-1.1-.4-1.1-1.2v-1.1c0-.3 0-.6-.4-.6h1.3c-.4 0-.4.4-.4.7v1.2c0 .6.3.8.9.8s.9-.3.9-.8v-1.2c0-.3 0-.6-.4-.7Zm25.9 2.9c.5-.2.7-1 .3-1.4-.4-.5-.7-1.1-1.4-1.4h1.4c-.3.2-.4.2-.1.5.2.2.3.4.5.6q.15.3.3 0c.1-.2.3-.4.5-.6s.3-.4 0-.5h1c-.7.4-1 .9-1.4 1.5-.2.3-.1.7 0 1.1 0 .2.3.1.5.2zm-24.2-2.6-.3-.2c.4 0 .8-.2 1.1.2.5.6 1.1 1 1.7 1.5v-1.4c0-.2-.2-.3-.4-.4h1.1c-.4 0-.4.4-.4.8v2c-.1 0-.2 0-.2-.1-.7-.7-1.3-1.4-2-2-.3 0-.3-.3-.4-.4Zm5.1-.3H93c-.3.1-.3.3-.2.5.3.5.5 1 .9 1.6.3-.6.5-1.1.8-1.6.1-.3 0-.3-.2-.5h.9c-.5.4-.6 1-.9 1.5-.2.4-.4.8-.5 1.1 0 0 0 .2-.2.2-.1 0-.1-.1-.2-.2l-1.2-2.1c0-.3-.4-.3-.5-.5m17.1 2.9h-1.4c.5-.1.4-.5.4-.9v-1.5c0-.2 0-.3-.3-.2-.4 0-.8 0-.8.6-.3-.6-.2-.8.4-.8h1.9q.7 0 .5.7c-.1-.5-.5-.6-.9-.6-.2 0-.2 0-.2.2v2c0 .3.2.3.4.4ZM54.2 34c-.2-.3-.6-.4-.9-.6-.6-.3-.8-.6-.7-1.1.1-.4.6-.6 1.2-.5.2 0 .4.2.6 0h.1v.8c-.2 0-.2-.1-.2-.2-.2-.3-.6-.5-1-.5q-.3 0-.3.3c0 .2 0 .3.1.4.2.2.4.2.6.3s.5.3.7.4c.4.3.4.7 0 1-.2 0-.2 0-.3-.2v-.3Zm50.7.8c.4 0 .5-.3.5-.7v-1.5c0-.3 0-.6-.4-.6h1.4c-.4 0-.5.4-.4.7V34c0 .4 0 .7.5.7H105Z"/><path class="cls-1" d="m86.6 32.2.4.4c-.1 0-.1.1-.1.2v1.3c0 .4 0 .4.5.6h-1.2c.5 0 .5-.5.5-.8v-1.8ZM54.2 34c.2.1 0 .5.3.5-.4.4-.8.3-1.3.2-.2 0-.4-.1-.6 0 0-.3-.1-.6-.2-1 .2 0 .2.2.3.3.2.3.5.4.8.5.5 0 .7-.2.7-.6Zm37.1.7c-.2 0-.3-.2-.3-.4v-1.9c0-.4.3-.3.5-.5h-1.4c.4 0 .4.3.4.7v1.3c0 .4.1.8-.5.8h1.4s.1 0 0 0Zm18.6-19.8c0-.3.3-.5.6-.7.1 0 .2-.2.3-.3.4-.6.9-1.1 1.5-1.6.9-.8 1.2-1.9 1.7-3 0-.1 0-.3-.1-.3-.4-.3-.8-.5-1.2-.5-.2 0-.4 0-.6.2-.3.3-.6.5-1 .7s-.8.4-1 .9c0 .1-.2.2-.4.2h-.7c-.4-.1-.6 0-.8.4 0 .1 0 .3-.2.4-.8.6-1.7 1.2-2.5 1.7-.3.2-.6 0-.7-.3v-.6c0-.2 0-.4-.2-.5-.2 0-.3.2-.4.3-.3.7-.4 1.5-.3 2.3 0 .1 0 .2.1.3.4.3 1.3.1 1.6-.4 0-.2.2-.3.3-.4.8-.6 1.5-1.1 2.3-1.7.2-.1.3-.1.4 0 .3.3.7.4 1.1.5.4 0 .5.2.2.6-.2.3-.5.5-.8.8-.8.9-1.7 1.8-2.6 2.7-.7.7-1.4 1.4-2.4 1.8l-.1.1q-.3.6-.3 1.2c0 .2 0 .3.1.4.3.3 1.2.3 1.6 0 .5-.3.9-.7 1.4-1.1v.2c0 .6-.4 1.1-.7 1.6-.2.3-.2.7 0 1s.5.3.8.2h.3c.7-.1 1.5.1 1.8.6 0 0 .1.2 0 .3 0 .1-.2 0-.3 0H107c-1.9.2-3.7 1-5.4 2-.2.1-.2.3-.2.5.2.3.4.6.7.9 1.4 1.3 3.1 2.1 4.8 2.8 1.1.4 2.1 0 2.6-1 .5-.9.5-2 .6-3 0-.3.2-.4.4-.3.5.2 1.2.2 1.5.8 0 0 .2.2.3.1.4-.2.8-.3 1-.7.1-.2 0-.3 0-.5-.2-.3-.5-.6-.9-.7l-2.1-.6c-.2 0-.3 0-.2-.3 0-.4 0-.8-.4-1.1-.4-.4-1-.6-1.6-.8-.3 0-.4-.2-.2-.4.4-1 .8-1.9 1.2-2.9.1-.3 0-.5-.2-.7-.2-.1-.4-.2-.7-.2s-.6.2-1 .3c.6-.6 1.2-1.2 2.1-1.6.2 0 .4-.3.5-.5Zm.9-4.5c.3-.2.5-.3.8-.4-.1.3-.3.6-.5.8-.1.2-.3.2-.5 0s0-.3.1-.5Zm-1.6 15c-.1.5-.3 1-.6 1.4-.3.6-.8.8-1.3.8-.8 0-1.4-.2-1.9-.5-.3-.1-.6-.3-.9-.4-.4-.2-.4-.4 0-.7.3-.3.7-.5 1.1-.6l2.7-.9c.7-.2 1.1.1.9.9M80 11.1c-.2 0-.3-.1-.3.1 0 .3-.3.5-.5.6-.8.4-1.5 1-2.2 1.6.3-.8.5-1.6.8-2.3q.3-.9 0-1.8c0-.2-.1-.4-.3-.4s-.3.2-.3.4c-.1.3 0 .6-.2.9-.9 1.7-1.7 3.4-2.6 5.1 0 .2-.2.3-.3.4-.7.3-1.3.9-2.2.8-.4 0-.5.2-.4.6 0 .2.1.3.3.4.3.3.7.6 1 .8.2.2.2.3.1.5-.7 1.3-1.3 2.7-1.9 4 0 .2-.1.3.1.4.3.2.5.3.7.5.1.1.3.1.5 0l1.5-.9s.2-.1.3 0v.2c-.3.8-.4 1.7-1.2 2.3-.5.3-.9.7-1.5.8-.3 0-.5.1-.8.3-1 .6-.9 1.3 0 1.8q.75.45 1.2-.3c.2-.4.5-.8.7-1.2.1-.2.2-.2.4 0 .6.5 1.3 1 1.9 1.5.3.2.4.2.5-.1.2-.4.2-.8.2-1.2v-3.8c0-.5.1-1.1.4-1.5.3-.6.7-1.2 1.2-1.7 0 0 .2-.2.2-.3-.3-.6.4-1.4-.4-1.9v-.3c-.1-.3-.3-.5-.7-.6-.1 0-.4 0-.4-.2s.2-.3.3-.4c0 0 .2-.1.3-.2.8-.5 1.5-.9 2.3-1.4.2 0 .3-.2.3-.4.3-.8.7-1.6 1.1-2.4.2-.5.1-.7-.3-.9Zm-4.7 6.6c-.2 1.2-.6 2.4-1.2 3.5-.2.4-.7.5-1.1.6.3-1.1.6-2.1 1-3.2.2-.5.6-.9 1.1-1.2.2-.1.3 0 .2.2Zm25.1 15.7h.2c.5-.2.7-.4.7-.8 0-.3-.3-.6-.8-.7-.6-.1-1.3 0-1.9 0 .3 0 .4.3.4.6v1.6c0 .3 0 .5-.4.6h1.3c-.5 0-.4-.4-.4-.7v-.6c.2 0 .3 0 .3.2.2.3.5.5.7.8.4.4.6.5 1.2.3-.6-.3-.9-.9-1.4-1.3Zm-.6-.1c-.5 0-.1-.5-.2-.8 0-.3 0-.5.3-.4q.9 0 .9.6c0 .6-.4.7-1 .6m-30 0c0-.7-.4-1.1-1.2-1.3-.7-.2-1.5 0-2.2 0 .5 0 .4.4.4.7v1.4c0 .3 0 .6-.4.7.8 0 1.6.2 2.4-.1.7-.2 1.1-.7 1-1.3Zm-2.3 1.3c-.1 0-.2-.2-.2-.3v-1.9c0-.1 0-.3.2-.3.8 0 1.7.3 1.7 1.3 0 .8-1 1.5-1.7 1.2m4.4-2.7c-1 0-1.7.6-1.7 1.5s.7 1.5 1.7 1.5 1.7-.6 1.7-1.5-.7-1.5-1.7-1.5m-.3 2.7h-.1c-.5-.2-.8-.9-.7-1.7q.3-1.05 1.2-.9c.5 0 .9.6.9 1.3s-.6 1.4-1.4 1.3Zm-10.5.2h1.3c-.2-.1-.3-.3-.4-.5-.4-.7-.8-1.4-1.1-2.1 0 0 0-.2-.2-.2-.1 0-.1.1-.2.2-.2.4-.4.9-.7 1.3-.3.5-.4 1-.9 1.3h1c-.3-.2-.3-.2-.2-.6 0-.3.3-.4.5-.3h.6c.4 0 .5.3.6.5.1.3-.1.3-.3.4m-.9-1.1c-.2 0-.2 0-.1-.2.1-.3.3-.5.4-.9.2.3.4.7.5 1.1h-.9Z"/><path class="cls-2" d="M30 5.5c-8.8 0-16 7.2-16 16s7.2 15.9 16 15.9 16-7.2 16-16-7.2-16-16-16Zm0 30.8c-8.2 0-14.9-6.7-14.9-14.9S21.8 6.5 30 6.5s14.9 6.7 14.9 14.9S38.2 36.3 30 36.3"/><path class="cls-2" d="M25.8 8.4c.2-.1.4-.3.5-.5 0 0 .1 0 .1.1 0 .2 0 .4-.2.5-.3.2-.5.5-.8.7 0 0 0 .1-.1.2 0 .2 0 .5-.1.8.2-.1.3-.2.3-.4v-.5s.1-.1.2-.1c.2 0 .3.4.1.6-.1.2-.2.4-.2.6v.9c-.1 0-.2-.1-.3-.2s-.2 0-.3 0c-.1.2-.1.2-.3 0v-.2c.2 0 .3-.2.4-.3s.2-.3.1-.4h-.1c-.2.2-.2.2-.4 0V10c0-.2.2-.5.2-.7v-.2q-.15 0-.3-.3c.4 0 .6-.2.7-.5l.3-.9v.4c0 .1-.1.3-.2.4ZM25.7 34c.2-.4.3-.8.5-1.2 0 0 0-.2.2 0 .1 0 0 .1 0 .2l-.6 1.5s0 .2-.1.1-.2 0-.2-.2c-.1-.5-.2-1.1-.3-1.6-.2.4-.3.8-.5 1.1 0 0 0 .1-.2 0 0 0-.1 0 0-.2.2-.5.4-1 .6-1.6 0 0 0-.2.1-.1 0 0 .2 0 .2.2.1.5.2 1.1.3 1.6Zm7.9.2c-.1-.4-.2-.9-.3-1.3v-.1h.2c.1.6.3 1.1.4 1.7h-.3l-.6-.6-.7-.6c.1.5.2.9.3 1.3v.2c-.2 0-.1 0-.2-.1-.1-.5-.3-1-.4-1.6 0 0-.1-.2 0-.2h.3c.3.3.7.7 1.1 1l.2.1Zm-13.5-3.9c.4-.3.7-.6 1-.9 0 0 .1-.1.2 0v.2c-.4.4-.8.7-1.2 1.1 0 0 0 .1-.2 0 0 0-.2-.1-.1-.3.1-.4.2-.9.4-1.3v-.4l-.9.9s-.1.1-.2 0v-.2c.4-.3.8-.7 1.2-1.1 0 0 0-.2.2 0 0 0 .2.1.1.3-.1.5-.3 1-.4 1.5v.2Zm7.4 2.7c.4 0 .8.2.8.6 0 .1 0 .2-.2.2 0-.3-.2-.4-.5-.4s-.5 0-.7.2-.2.5-.2.8.5.6.8.5c.3 0 .3 0 .3-.3v-.1h-.4s-.1 0 0-.1c0 0 0-.2.1-.1.2 0 .4 0 .7.1v.1c0 .2 0 .4-.1.6v.1c-.2.1-.5.2-.7.1-.4 0-.7-.3-.8-.7s0-.9.4-1.1c.2-.1.4-.2.6-.2Zm10-2.5.1.1c-.3.2-.5.4-.8.6v.2c.3.4.3.4.7.1.1 0 .3-.2.4-.3 0 0 .1-.1.2 0v.2c-.2.2-.4.3-.7.5 0 0-.1.1 0 .2s.2.3.3.4c.1 0 .3-.2.4-.3.2-.1.3-.2.5-.4h.2v.2c-.3.2-.7.5-1 .7h-.2c-.3-.5-.7-1-1-1.4v-.1c.3-.2.7-.5 1-.7Zm3.9-1.6c0 .5-.5 1-.9.9h-.2s-.1 0 0-.1c0 0 0-.2.2-.1.3 0 .6-.1.7-.4v-.1c0-.1 0-.2-.1-.3h-.3c-.1 0-.2.2-.3.3 0 0-.2.1-.3.2-.2.1-.4.1-.5 0-.2-.1-.3-.3-.2-.5 0-.3.2-.5.4-.6.1 0 .3-.1.4 0 0 0 .2 0 .2.1 0 0 0 .2-.2.1-.2 0-.3 0-.4.2-.1.1-.2.3-.1.5 0 0 0 .1.1.1s.2-.2.3-.3c0 0 .2-.2.3-.2.2-.1.4-.2.6 0 .2 0 .3.3.3.5Zm-25-4.8c0-.3.1-.5.4-.7h.1s.1.2 0 .2c-.4.2-.3.7 0 .9 0 .1.3.1.4 0v-1c.1-.2.4-.3.6-.2h.1c.2.3.3.6.2 1 0 .1-.1.2-.2.3 0 0-.1.1-.2 0 0 0-.1-.2 0-.3.3-.1.2-.7 0-.8-.2 0-.3 0-.3.2v.7c0 .4-.4.7-.8.4-.1 0-.2-.2-.2-.3 0-.2-.1-.3-.1-.5Zm2.4 1.1c-.2 0-.4.1-.5.2 0 0-.1 0 0 .2s.2.5.3.7h.2c.2 0 .4-.1.5-.2h.2v.2c-.5.2-1.1.4-1.6.7-.1 0-.1 0-.2-.1v-.2c.2 0 .4-.2.6-.2 0 0 .1 0 0-.2s-.2-.5-.3-.7c0 0 0-.1-.2 0-.2 0-.4.2-.6.3H17v-.2c.5-.2 1.1-.4 1.6-.7 0 0 .2 0 .2.2m12.6 9.1v-1s0-.2.1-.2c0 0 .2 0 .2.1v1.2c0 .3 0 .5-.3.6q-.45.3-.9 0c-.2-.1-.3-.4-.3-.6 0-.4 0-.8-.1-1.1 0 0 0-.1.1-.1s.2 0 .2.1v1.1c0 .4.5.6.8.4 0 0 .1-.1.1-.2v-.4Zm3.7-24.6c-.3 0-.4-.1-.3-.4v-.1s0-.2.1-.1v.3c0 .1 0 0 .1 0 0 0 .1 0 .2-.1.1 0 .2-.2.2-.3v-.2h.2c0 .1.2.2.3 0h.2v.1c-.2.1-.4.3-.5.5-.3.5-.8.9-1.3 1.3 0 0-.2.1-.3.1.5-.2.8-.7 1.1-1.1m1.1 21.8c0 .7.2 1.3.2 2v.1s-.1.1-.2 0c-.5-.4-1-.9-1.5-1.3.2-.2.3-.2.4 0 .4.4.8.7 1.2 1.1 0-.6-.1-1.1-.2-1.6 0-.2.1-.2.2-.3ZM19.1 16.3v-1.6c.1.6.2 1.2 0 1.8 0 .1 0 .2-.2.2s-.4 0-.4-.3c0-.2-.1-.4-.3-.5v-.1c.1 0 .2 0 .3.1s.2.3.3.4Zm22.2 8.8c0-.2 0-.4.3-.4s.5-.2.8-.3l-.6-.6c-.2-.1-.2-.3 0-.5l.8.8c.1.1.3.2.4.2h.5c.1 0 0 .1 0 .2 0 0 0 .1-.1.1-.5-.2-1 0-1.5.2-.1 0-.3.1-.5.2Zm1.5 1.4c0 .2-.1.2-.2.2-.4-.2-.9-.3-1.3-.5h-.2c0 .1 0 .2-.1.4 0 0 0 .1-.1 0 0 0-.2 0-.1-.2.2-.4.3-.8.5-1.3 0-.1 0 0 .2 0 0 0 .1 0 0 .1 0 .1 0 .3-.2.4v.2c.5.2.9.3 1.3.5h.1ZM35 34.2s-.1 0-.2.1 0 0-.1 0l-.7-1.7c0-.1 0-.1.1-.1h.1l.6 1.3v.3h.1Zm5.4-7.2c.5.3 1 .6 1.5.8v.2c0 .2 0 .1-.2 0-.5-.3-1-.5-1.5-.8 0 0-.1 0 0-.1 0 0 0-.1.1-.2ZM17.8 13.8c.2-.1.5-.1.6 0 .2.2.3.4.4.6v.4c-.3-.4-.5-.7-.9-.9Zm2.1 1.1-.3-.8V14h.1c.4 0 .4 0 .3.4 0 .2 0 .4-.2.5ZM35.8 11c.2-.3.2-.5.1-.8.3 0 .4.1.4.3s-.2.5-.5.5m-9.9-.6h.4c.1 0 .2.1.2.3v.2h-.1l-.4-.4Zm4 .5c-5.8 0-10.6 4.8-10.5 10.6C19.4 27.3 24.2 32 30 32s10.5-4.8 10.4-10.7c0-5.7-4.7-10.4-10.5-10.4m.8 20.6c-3.9.3-7.7-1.7-9.6-5.1h17.5c-1.1 2.2-4 4.8-7.9 5.1m8.1-6h-18c-.1 0-.3 0-.3-.2-1.7-4.1-.5-8.8 2.9-11.6 2.2-1.8 4.7-2.5 7.5-2.3 3.9.4 7.3 3.1 8.5 6.9.8 2.3.7 4.7-.2 7 0 .2-.2.3-.3.2Zm3.6-11.3c-.2-.1-.4-.2-.6-.4h-.3c-.3 0-.3-.1-.2-.4-.1 0-.2.1-.3.2s0 .2 0 .3c.1 0 .3.1.5.1.1 0 .2 0 .2.2 0 0 0 .2.2.1s.2 0 .4 0h-.4c-.5 0-1 0-1.5-.1-.1 0-.3 0-.3.2s.1.2.2.2h.3-.2c-.2.2-.2.2-.1.4 0 .2.2.3.1.6 0 0 0-.1-.1-.2q-.3-.45-.6-.6c-.3-.1-.4 0-.4.2 0 .4 0 .7.1 1.1 0 .3.2.4.5.3.2 0 .3-.2.4-.3 0 .1.1.3 0 .4 0 .1 0 .1.1.2v-.8c.1-.2.1-.4 0-.5 0-.2 0-.2.1-.3.1 0 .2 0 .3-.1q.3 0 0-.3v-.1h1.5s.2 0 .2-.2c0-.1 0-.2-.1-.3Zm-2.6 2c-.1 0-.2 0-.3-.1-.1-.2-.2-.5-.2-.7.3.1.5.2.7.5 0 .2 0 .3-.2.4Zm.1 14h-.6c.1-.2.2-.4 0-.6-.2-.3-.6-.3-.9 0l-.6.6v.2c.4.4.8.8 1.3 1.2h.2s.1 0 0-.2c-.2-.1-.3-.3-.5-.4 0 0-.1 0 0-.1.2-.2.3-.4.6-.3h.6c.2 0 .3 0 .4-.2h-.5Zm-.8 0c-.1.1-.2.3-.4.4h-.1c-.1-.1-.3-.2-.4-.4 0-.1.2-.2.3-.4 0-.1.2-.2.3-.2s.3 0 .4.2v.1s0 .2-.1.3m-16.8.2c-.2-.2-.4-.3-.5-.5h-.2c-.4.4-.8.9-1.2 1.3v.2c.2.1.3.3.5.4.2.2.4.3.7.2.5 0 1-.6 1-1.1 0-.2-.1-.4-.3-.5m-.8 1.4c-.1 0-.3 0-.4-.2q-.4-.3 0-.7c.2-.2.4-.4.6-.7h.2l.3.3s.1.2.1.3c0 .4-.4.8-.8.9Zm1.9-.4c-.5 0-1 .5-1 1.1 0 .5.4.9 1 .9.5 0 1-.5 1-1.1 0-.5-.4-.9-.9-.9Zm.2 1.7c-.2.1-.5.1-.7 0s-.3-.4-.2-.6c0-.2.2-.5.4-.6.2-.2.5-.2.7 0 .2.1.4.3.4.6s-.2.6-.5.8Zm-3.8-5.7h-.1c-.7 0-1.3.2-2 .3 0 .2.1.3.3.2.4 0 .4 0 .6.3q.2.3 0 .6t0 .5l1.3-1.6v-.2Zm-.8.9-.3-.5c.3 0 .6 0 .9-.2z"/><path class="cls-2" d="M26.4 27.9c-.2.1-.3.2-.5.3h-.1c0-.1 0-.2.2-.3s.4-.3.5-.5c0 0 .1-.1.2 0v2.5c0 .1 0 .2-.2.2-.1 0-.2 0-.2-.2v-1.8Zm6.6 0c-.2.1-.4.3-.6.4 0-.2 0-.3.2-.4.2 0 .4-.2.5-.4 0 0 .1-.1.2 0v2.4c0 .1 0 .2-.2.2-.1 0-.2 0-.2-.2v-1.8Zm6.2-4.8H39s-.2.2-.3.2c-.8.3-1.6.3-2.3-.2h-.2s-.2.2-.3.2c-.8.4-1.8.3-2.4-.3-.1-.1-.2 0-.3 0-.1.1-.3.2-.4.3-.4.2-.8.3-1.2.2 0 0-.1 0-.1-.1v-2.1h.6c.4 0 .6 0 .7.4 0 .1 0 .1.2.1h1.5l-.2-.5h.9s.1 0 .2.1c0 .2.2.3.2.5H37c-.1-.2-.2-.4-.3-.5v-.1h.8c.1 0 .2 0 .2-.2v-.9c0-.1 0-.2-.2-.2H36c-.1 0-.2 0-.2-.2-.6-1.2-1.3-2.5-1.9-3.7l-.6-1.2-1.1 1.8-2.2-4.4-2.5 4.8-1.9-1.8v.1c-.5 1.1-1.1 2.2-1.6 3.3 0 .1-.1.2-.2.2h-2.3c-.1 0-.2 0-.2.2v.9c0 .2 0 .2.2.2h1.8c-.2.4-.4.7-.5 1.1h1.4s.2 0 .2-.1c.1-.3.3-.6.4-.9 0 0 0-.1.1-.1h1.2l-.4 1c.4 0 .8 0 1.2.1.1 0 .2 0 .3-.1.1-.3.3-.6.5-.9 0-.1.1-.2.2-.2h1.4l-.8 1.3h.9s.1 0 .1.1V23s0 .1-.1.1c-.6 0-1.2 0-1.7-.3h-.3c-.5.4-1.1.6-1.7.5-.5 0-.9-.2-1.3-.5h-.1c-.7.5-1.8.6-2.5.1 0 0-.1-.2-.2-.1 0 0-.1.2-.1.3v.3c0 .2.2.4.4.5.7.4 1.5.4 2.2 0 .1 0 .2-.2.3-.2 0 0 .1.2.2.2.5.3 1 .4 1.6.3.5 0 .9-.3 1.2-.7l.2.2c.6.5 1.8.5 2.5 0 0 0 .1-.1.2 0 0 .1.2.2.3.2.5.3 1 .4 1.6.3.5 0 .9-.2 1.2-.7 0 .2.2.3.4.4.7.4 1.6.4 2.3 0 .1 0 .2-.2.3-.2 0 0 .2.2.3.2.5.3 1.1.4 1.6.2.3 0 .6-.2.9-.4.2-.2.3-.6 0-.9Zm-6.2-5c.1 0 .2-.2.4-.3h.1c.4.7.7 1.5 1.1 2.3h-.8s-.1 0-.2-.1c-.2-.6-.5-1.2-.7-1.8v-.1Zm-6.2.3c0 .2 0 .4-.2.5h-1s-.1 0 0-.1l.6-1.2h.1c.2.2.4.4.6.5v.2Zm4-.6c0-.1 0-.2-.1-.2h-.6c-.1 0-.1 0-.1.1v1.1h-1.6l1.9-3.6 1.1 2.7c.1.3.2.5.3.8v.1h-.6s-.1 0-.1-.1v-1Zm.8 1.4v.2l.3.7H31l.5-.9Zm-2.3 8.7c0-.4-.4-.6-.8-.6-.3 0-.7.2-.8.5-.1.4 0 .8.2 1 .3.2.7.2 1.1-.1 0 .2 0 .4-.1.6 0 0 0 .2-.2.2-.2.2-.4.1-.6 0v-.1c0-.2-.2-.1-.3 0-.1 0 0 .1 0 .2 0 .2.3.4.5.4.4 0 .9-.2 1-.6.1-.5.2-.9 0-1.4Zm-.7.8c-.3 0-.5-.2-.5-.5s.2-.6.5-.6.5.2.5.6c0 .3-.2.6-.5.6Zm2.9-.9c-.1-.3-.4-.5-.7-.5s-.6.2-.7.5c-.2.5-.2 1.2 0 1.7 0 .3.4.5.7.4.3 0 .6-.1.7-.4.2-.3.2-.6.2-.9s0-.5-.1-.8Zm-.3 1.5c0 .2-.2.4-.4.4s-.4-.2-.4-.4c-.1-.4-.1-.9 0-1.3 0-.2.2-.4.4-.4s.4.1.4.3z"/></g></svg>