<svg width="46" height="46" fill="none" xmlns="http://www.w3.org/2000/svg"><path d="M23.107 2.204c-11.52 0-20.893 9.33-20.893 20.796 0 11.467 9.373 20.796 20.893 20.796S44 34.466 44 23c0-11.467-9.372-20.796-20.893-20.796m0 40.924c-11.15 0-20.22-9.03-20.22-20.128s9.07-20.127 20.22-20.127S43.329 11.902 43.329 23c0 11.099-9.072 20.128-20.222 20.128" fill="#9d0a12"/><path d="m39.085 23.073-.043.558.91.626-.995.49-.045.569 1.464-.773 1.014.078.036-.482-1.01-.077zm.193 2.474-.399-.088-.412 1.867.399.088.154-.698 1.96.43.105-.474-1.96-.43zm-1.095 2.589 2.296.748.152-.461-2.296-.75zm1.422 1.162a.73.73 0 0 0-.39-.07.7.7 0 0 0-.334.143 2.3 2.3 0 0 0-.374.407q-.222.288-.332.341a.19.19 0 0 1-.163.006.18.18 0 0 1-.105-.132.55.55 0 0 1 .057-.338q.084-.186.2-.247.118-.06.3-.013l.18-.451a.7.7 0 0 0-.583.001q-.276.129-.463.54-.114.255-.118.467a.64.64 0 0 0 .1.375q.103.16.27.235a.63.63 0 0 0 .535-.004q.195-.085.445-.402.193-.245.256-.311a.4.4 0 0 1 .167-.117.22.22 0 0 1 .154.014.3.3 0 0 1 .164.204q.04.149-.055.364a.53.53 0 0 1-.248.274q-.155.075-.392.015l-.152.45q.39.121.684-.014.293-.138.482-.554.128-.285.135-.512a.71.71 0 0 0-.42-.671M38.138 31.9q-.149.027-.313.108.135-.29.073-.52a.64.64 0 0 0-.29-.376.7.7 0 0 0-.377-.118.56.56 0 0 0-.347.11q-.15.11-.361.434l-.558.859 2.028 1.306.265-.407-.846-.545.053-.083a.8.8 0 0 1 .157-.19.4.4 0 0 1 .164-.07q.1-.018.437-.021l.633-.01.317-.488-.556-.009a3 3 0 0 0-.479.02m-.64-.042q-.022.089-.214.382l-.196.301-.515-.33.208-.32q.16-.246.2-.293a.3.3 0 0 1 .179-.101.3.3 0 0 1 .201.052q.09.06.126.139.033.08.01.17m-1.231 3.267-.492-.435.806-.902-.305-.27-.805.903-.4-.354.865-.97-.305-.27-1.19 1.332 1.806 1.598 1.22-1.367-.304-.269zm-2.44-.398.7 1.74-1.62-.97-.404.34 2.216 1.286.398-.334-.894-2.394zm-2.001 1.532 1.354 1.992.404-.272-1.354-1.992zm-.885.541.75 1.422-1.625-.964-.42.22 1.123 2.129.401-.21-.733-1.389 1.595.938.433-.227-1.123-2.129zm-1.843.91-.462.155.427 1.26q.092.273.11.395a.33.33 0 0 1-.053.236q-.073.114-.27.18a.52.52 0 0 1-.333.018.4.4 0 0 1-.218-.177 3 3 0 0 1-.145-.375l-.42-1.234-.462.155.413 1.215q.13.384.24.564.077.12.216.21a.76.76 0 0 0 .335.104q.195.02.522-.091.272-.09.417-.217a.74.74 0 0 0 .206-.276.7.7 0 0 0 .042-.333 3.3 3.3 0 0 0-.16-.592zm-3.884 1 .097.942-.95.097-.098-.94-.485.048.247 2.393.485-.05-.108-1.046.95-.098.109 1.047.485-.05-.247-2.392zm-3.4.653a.55.55 0 0 1 .446-.168q.194.01.324.125a.5.5 0 0 1 .162.305l.489-.089a.96.96 0 0 0-.223-.456q-.262-.273-.705-.298-.507-.027-.836.288-.33.315-.36.914-.033.568.26.91.292.344.772.37.389.02.651-.156.263-.179.393-.566l-.464-.174q-.075.26-.222.376a.5.5 0 0 1-.34.105.53.53 0 0 1-.417-.216q-.156-.202-.13-.658.023-.43.2-.612m-3.333 1.322 1.8.372.082-.397-1.32-.273.133-.64 1.187.245.084-.397-1.188-.245.109-.522 1.276.264.083-.399-1.753-.363zm-1.698-3.105-.14.383.675.242-.681 1.879.46.164.68-1.878.673.241.139-.383zm-1.819 1.78.44.209 1.043-2.17-.44-.21zm-2.611-1.518.44.273.459-.358.819.508-.112.575.45.28.46-2.55-.439-.272zm1.801-.003-.56-.348.752-.584zm-1.144-2.569-.625.716-.72-.623.623-.715-.37-.318-1.582 1.817.368.318.692-.795.722.623-.692.795.369.318 1.582-1.816zm-3.005-1.402-.313.26.358.427-.236.195a1 1 0 0 1-.282-.11.9.9 0 0 1-.242-.197.63.63 0 0 1-.155-.52q.042-.283.374-.557.306-.255.583-.239t.481.26q.135.162.145.335a.5.5 0 0 1-.093.326l.38.313a.84.84 0 0 0 .192-.58q-.015-.316-.304-.658a1.24 1.24 0 0 0-.462-.366 1.07 1.07 0 0 0-.642-.07 1.4 1.4 0 0 0-.617.307q-.267.22-.404.518a1 1 0 0 0-.079.613q.058.318.3.608.19.228.464.378.272.151.485.175l.74-.614zM9.58 31.41l-1.392.812.891-1.661-.24-.408-2.084 1.216.23.39 1.359-.794-.867 1.63.248.42 2.084-1.216zm-1.446-2.931-2.594.002.188.48.585-.014.35.896-.433.394.192.492 1.899-1.771zm-1.148 1.07-.24-.61.955-.023zm.624-2.745-.93.201-.202-.93.929-.2-.104-.474-2.36.51.103.473 1.032-.223.203.93-1.033.223.104.475 2.36-.51zm-2.476-1.87a.7.7 0 0 0 .395.09.7.7 0 0 0 .378-.119.7.7 0 0 0 .229-.28q.079-.175.14-.535.063-.358.134-.454a.19.19 0 0 1 .142-.081.17.17 0 0 1 .154.068.55.55 0 0 1 .108.325q.014.204-.062.312-.075.105-.259.15l.051.484a.7.7 0 0 0 .517-.274q.184-.24.156-.692a1.2 1.2 0 0 0-.113-.468.66.66 0 0 0-.262-.284.6.6 0 0 0-.351-.082.63.63 0 0 0-.472.25q-.132.167-.204.56a6 6 0 0 1-.082.396.4.4 0 0 1-.093.181.22.22 0 0 1-.143.059.3.3 0 0 1-.24-.105q-.107-.112-.121-.346a.52.52 0 0 1 .09-.358q.103-.137.34-.194l-.076-.47q-.402.075-.598.33-.196.258-.168.712.02.313.12.517.102.205.29.308m12.362.445h-.337v2.21h.337zm.723-.626h-.337v2.466h.337zm1.444-.835h-.337v2.655h.337zm-.722.399h-.337v2.565h.337zm1.445-.693h-.336v2.746h.336zm.721-.229h-.337v2.783h.337zm-4.334 2.671h-.337v1.985h.337zm-.722.96h-.336v1.533h.336zm-.723 1.008h-.337v1.106h.337zm-.722.807h-.337v.77h.337zm-.722.596h-.337V30h.337zm-.722.506h-.337v.414h.337zm15.894-4.564h-.337v2.21h.337zm-.724-.627h-.337v2.467h.337zm-1.443-.834h-.337v2.655h.337zm.721.399h-.337v2.565h.337zm-1.445-.693h-.337v2.746h.337zm-.723-.229h-.337v2.783h.337zm4.335 2.671h-.336v1.985h.336zm.723.96h-.337v1.533h.336zm.723 1.008h-.337v1.106h.337zm.723.807h-.336v.77h.336zm.721.596h-.337V30h.337zm.722.506h-.337v.414h.337zm-12.523 4.331q.175-.158.242-.242.1-.129.147-.246a.7.7 0 0 0 .047-.245.5.5 0 0 0-.163-.38q-.163-.154-.447-.153a.7.7 0 0 0-.433.131q-.173.133-.206.435l.367.035q.01-.158.08-.228a.24.24 0 0 1 .183-.069q.117 0 .182.067.067.065.067.187a.4.4 0 0 1-.076.225q-.057.082-.306.314-.31.283-.414.458a.9.9 0 0 0-.126.366h1.292v-.34h-.732a.6.6 0 0 1 .075-.102q.047-.052.221-.213m1.583-1.266a.52.52 0 0 0-.436.195q-.188.24-.188.778 0 .551.172.766a.55.55 0 0 0 .452.215.53.53 0 0 0 .435-.196q.189-.238.189-.781 0-.542-.187-.78a.52.52 0 0 0-.437-.197m.2 1.455a.3.3 0 0 1-.08.152.18.18 0 0 1-.12.042.18.18 0 0 1-.12-.041q-.05-.042-.085-.169a2 2 0 0 1-.034-.462q0-.336.038-.479.03-.11.081-.15a.18.18 0 0 1 .12-.043q.067 0 .118.042.052.042.087.168t.034.462q0 .337-.039.478m1.197-1.15a1 1 0 0 1-.314.178v.334q.275-.09.476-.278v1.382h.37v-1.921h-.3a.67.67 0 0 1-.232.305m1.994.588q.278-.15.277-.403a.45.45 0 0 0-.134-.318.57.57 0 0 0-.436-.172.7.7 0 0 0-.287.06.5.5 0 0 0-.198.161.8.8 0 0 0-.108.278l.34.058a.3.3 0 0 1 .081-.191.23.23 0 0 1 .163-.065q.096 0 .152.057a.2.2 0 0 1 .058.155.23.23 0 0 1-.079.181q-.078.07-.228.065l-.04.299a.7.7 0 0 1 .17-.028q.106 0 .181.082a.3.3 0 0 1 .074.22.33.33 0 0 1-.077.232.25.25 0 0 1-.193.085.25.25 0 0 1-.18-.07.34.34 0 0 1-.093-.21l-.356.046q.027.24.199.39a.64.64 0 0 0 .433.149q.275 0 .46-.178a.57.57 0 0 0 .185-.43.47.47 0 0 0-.098-.296.45.45 0 0 0-.265-.157" fill="#9d0a12"/><path d="M26.192 31.811h-.452v-.178h-.452v-.18h-.958l.37-1.988a.1.1 0 0 0 .012-.045.1.1 0 0 0-.014-.05l-.448-1.996v-.002l-.003-.017.226-1.33h.248v-2.8h-.336v1.074l-.214-1.016.003-.015-.005-.014.312-2.014q.003-.011.004-.024-.002-.012-.006-.023l-.002-.008-.005-.017-.38-2.021-.001-.002.27-1.989a.1.1 0 0 0-.003-.089l-.348-1.994.003-.01q-.001-.005-.003-.007l.249-2.032.006-.113h-.97l-.092-2.001h-.192l-.091 2.001h-.976l.261 2.141-.355 2.045v.01l-.002.021.273 2.021-.383 2.038-.001.006-.001.004v.006q-.003.015-.002.028l.313 2.034-.215 1.029v-1.07h-.337v2.802h.243l.228 1.337v.008l-.456 2.027v.018q-.002.012 0 .021l.374 2.015h-.96v.18h-.45v.179h-.453v.2h6.17zm-3.088-6.262.875 1.723h-1.748zm.001-4.09.801 1.709h-1.599zm.654-6.497h-1.303l.651-1.672zm-.654 2.413.728 1.69h-1.456zm.001 12.257.99 1.82h-1.98zm.165-.311.29-.575.548-1.078.372 1.653zm-.006-4.101.764-1.633.343 1.633zm-.008-4.104.162-.376.535-1.233.304 1.61zm-.004-4.101.616-1.58.277 1.58zm-.91-1.58.41 1.053.206.527h-.891zm-.085 4.073.21.488.484 1.12h-.997zm-.072 4.077.763 1.635h-1.105zm-.082 4.087.835 1.649h-1.204z" fill="#9d0a12"/><path d="M28.134 36.393c.191 0 .357-.03.508-.093.46-.19.746-.654 1.01-1.13.18.015.362.028.537.028.413 0 .716-.072.952-.23.412-.274.601-.783.766-1.3.54-.059 1.078-.145 1.426-.491.348-.348.434-.885.495-1.424.517-.164 1.027-.352 1.3-.759.272-.404.252-.944.206-1.482.48-.262.947-.547 1.137-1.004.188-.45.058-.979-.093-1.5.416-.348.816-.717.912-1.2.096-.475-.132-.966-.38-1.445.34-.424.659-.866.659-1.365 0-.495-.314-.935-.652-1.356.247-.477.467-.966.37-1.45-.098-.487-.493-.857-.908-1.206.15-.52.28-1.048.092-1.498-.19-.457-.658-.741-1.137-1.004.046-.537.068-1.079-.203-1.482-.276-.41-.786-.598-1.304-.762-.06-.537-.147-1.073-.494-1.419-.35-.347-.89-.432-1.432-.492-.165-.515-.354-1.023-.762-1.295-.24-.159-.546-.234-.963-.234-.171 0-.35.013-.526.028-.263-.475-.55-.94-1.008-1.13a1.3 1.3 0 0 0-.508-.093c-.32 0-.662.09-.998.186-.351-.414-.723-.812-1.209-.909a1.2 1.2 0 0 0-.23-.022c-.404 0-.817.194-1.22.401-.426-.338-.87-.654-1.37-.654-.498 0-.939.312-1.362.648-.4-.206-.81-.393-1.219-.393q-.124 0-.24.024c-.49.097-.862.491-1.213.904-.335-.096-.675-.185-.993-.185-.19 0-.356.031-.508.093-.46.19-.746.656-1.01 1.132a6 6 0 0 0-.538-.029c-.414 0-.716.074-.952.23-.411.274-.601.782-.765 1.298-.54.06-1.077.146-1.425.492-.349.348-.434.885-.495 1.424-.517.164-1.028.353-1.301.759s-.253.945-.208 1.482c-.478.261-.944.546-1.134 1.003-.187.45-.058.98.093 1.5-.417.349-.817.718-.914 1.201-.095.476.132.966.381 1.445-.34.424-.658.865-.658 1.363 0 .495.314.934.652 1.356-.248.478-.469.968-.371 1.452.097.487.493.857.909 1.207-.151.52-.28 1.047-.092 1.495.19.457.657.742 1.136 1.004-.046.538-.07 1.08.203 1.484.275.41.786.599 1.304.762.06.537.147 1.073.494 1.419.349.346.889.432 1.43.492.166.515.355 1.024.763 1.296.24.159.546.233.963.233.172 0 .35-.013.526-.028.264.476.55.94 1.008 1.13a1.3 1.3 0 0 0 .51.093c.318 0 .66-.09.996-.186.351.415.722.814 1.208.91q.112.022.23.022c.405 0 .82-.194 1.223-.402.426.34.869.655 1.37.655.496 0 .936-.312 1.36-.648.4.206.81.393 1.218.393q.125 0 .241-.023c.49-.097.862-.492 1.213-.906.336.097.676.185.994.185m-2.205-.778q-.156 0-.293.028c-.43.084-.825.396-1.207.704-.436-.227-.886-.458-1.323-.458-.445.001-.894.225-1.33.451-.38-.305-.772-.614-1.197-.697a1.6 1.6 0 0 0-.295-.028c-.35 0-.725.104-1.09.21-.313-.373-.639-.751-1.042-.918-.206-.085-.447-.125-.76-.125-.207 0-.425.018-.638.037-.234-.427-.479-.86-.842-1.101-.364-.243-.86-.306-1.346-.358-.147-.465-.305-.939-.616-1.248-.31-.307-.786-.463-1.253-.608-.053-.485-.114-.98-.36-1.345-.241-.36-.675-.603-1.103-.836.043-.486.079-.983-.09-1.39-.167-.4-.549-.724-.924-1.037.138-.468.27-.949.184-1.381-.084-.427-.399-.82-.706-1.2.228-.434.46-.882.46-1.317-.001-.443-.227-.89-.454-1.324.306-.378.616-.769.7-1.191.086-.431-.045-.911-.183-1.378.376-.312.755-.636.923-1.037.17-.406.132-.906.088-1.394.429-.231.864-.476 1.107-.836.243-.363.305-.856.359-1.34.467-.146.944-.302 1.254-.612.31-.309.465-.782.61-1.248.488-.052.986-.114 1.351-.357.363-.242.607-.674.84-1.1.21.019.424.037.63.037.315 0 .558-.04.767-.126.402-.165.727-.546 1.04-.92.366.107.742.21 1.094.21q.156 0 .295-.026c.428-.084.823-.397 1.205-.703.436.227.886.457 1.324.457.444 0 .893-.225 1.33-.451.38.305.772.613 1.197.697q.138.027.294.027c.351 0 .725-.103 1.09-.21.313.374.638.752 1.042.919.205.085.447.125.759.125.209 0 .427-.018.64-.037.234.427.48.86.841 1.1.365.243.86.306 1.346.358.147.466.304.94.616 1.25.31.307.787.461 1.254.607.053.485.114.98.36 1.343.242.36.675.603 1.103.835-.043.487-.08.985.09 1.393.166.4.548.724.924 1.036-.138.468-.269.948-.184 1.38.085.426.399.82.707 1.2-.229.434-.46.882-.46 1.318 0 .443.225.89.453 1.324-.306.377-.616.767-.7 1.19-.085.432.046.912.184 1.378-.377.312-.756.637-.924 1.038-.17.406-.132.906-.09 1.393-.428.233-.861.476-1.103.837-.245.363-.307.856-.36 1.34-.467.146-.944.303-1.256.613-.308.308-.464.782-.61 1.247-.486.052-.983.114-1.35.358-.362.241-.606.674-.84 1.1a7 7 0 0 0-.631-.036c-.314 0-.558.04-.767.125-.401.166-.727.545-1.04.919-.366-.106-.741-.21-1.094-.21m2.585.376a1 1 0 0 1-.38.067c-.233 0-.488-.057-.757-.13.266-.313.524-.591.815-.71.166-.07.369-.101.638-.101q.22.002.453.023c-.22.385-.448.718-.769.85m2.44-1.301c-.178.119-.421.174-.765.174q-.175-.001-.361-.016c.193-.345.399-.677.661-.852.266-.177.654-.24 1.05-.286-.139.418-.297.788-.585.98m2.141-1.75c-.243.241-.637.323-1.077.378.122-.378.258-.744.482-.968.226-.225.595-.363.975-.485-.055.439-.137.833-.38 1.075m1.753-2.132c-.19.284-.56.441-.98.58.047-.393.11-.78.288-1.041.176-.262.507-.466.855-.658.032.437.026.837-.163 1.12m1.312-2.428c-.133.32-.47.547-.857.766-.032-.398-.045-.792.077-1.086.122-.292.41-.557.716-.815.118.426.195.822.064 1.135m.8-2.637c-.067.338-.35.625-.685.913-.108-.382-.196-.762-.134-1.076.06-.306.283-.611.537-.93.198.392.348.763.282 1.093m-.22-1.706c-.184-.356-.346-.714-.347-1.037 0-.316.162-.664.353-1.031.263.339.486.685.486 1.03 0 .347-.227.696-.493 1.038m.217-3.78c.067.336-.082.717-.271 1.099-.258-.322-.483-.63-.545-.939-.062-.315.026-.695.135-1.077.326.282.613.578.681.917m-.797-2.64c.13.313.054.708-.064 1.133-.314-.264-.594-.522-.715-.812-.123-.297-.11-.69-.078-1.087.387.219.723.446.857.766m-1.31-2.428c.19.28.193.68.16 1.12-.347-.193-.679-.396-.853-.657-.178-.264-.242-.65-.289-1.046.42.139.791.296.983.583m-1.375-1.06c-.38-.12-.75-.256-.974-.479-.226-.225-.364-.592-.487-.97.44.055.837.136 1.08.379.243.241.325.634.38 1.07m-2.523-2.816c.285.189.443.558.582.975-.394-.046-.781-.11-1.045-.286-.262-.174-.468-.506-.661-.852a5 5 0 0 1 .348-.014c.348 0 .594.056.776.177m-2.439-1.305c.321.133.55.466.769.85a6 6 0 0 1-.462.024c-.266 0-.467-.031-.63-.098-.292-.122-.56-.408-.817-.712.27-.074.526-.131.761-.131q.216 0 .38.067m-2.65-.797c.339.068.627.349.917.682-.39.109-.784.194-1.08.135-.308-.06-.614-.283-.934-.536.398-.195.776-.343 1.096-.281m-1.715.22c-.357.183-.717.344-1.041.345-.318 0-.667-.161-1.034-.35.34-.262.688-.484 1.034-.484.35 0 .699.225 1.041.49m-3.797-.217c.327-.064.716.084 1.104.273-.322.256-.63.48-.941.54-.297.06-.693-.026-1.084-.135.283-.323.58-.61.921-.678m-2.65.794a1 1 0 0 1 .38-.067c.233 0 .488.057.756.13-.265.313-.524.592-.816.712-.166.068-.369.1-.638.1q-.22-.002-.451-.022c.22-.386.448-.72.769-.853m-2.442 1.302c.178-.118.421-.174.765-.174q.175.001.362.016c-.193.345-.398.676-.66.85-.266.178-.655.24-1.052.287.14-.418.298-.787.585-.979m-2.138 1.749c.242-.242.636-.323 1.075-.379-.121.379-.258.746-.482.97-.226.224-.594.362-.974.484.055-.439.137-.833.38-1.075m-1.755 2.132c.19-.284.561-.441.98-.58-.046.393-.11.778-.287 1.041-.176.26-.509.465-.857.658-.03-.437-.026-.837.164-1.12m-1.311 2.427c.133-.32.468-.547.856-.766.032.398.046.793-.077 1.088-.121.29-.41.556-.714.813-.118-.426-.196-.822-.065-1.135m-.801 2.639c.068-.339.35-.627.686-.915.108.382.196.762.134 1.076-.061.306-.283.611-.538.93-.199-.391-.348-.761-.282-1.091m.22 1.705c.183.356.346.714.347 1.037 0 .316-.162.662-.352 1.03-.263-.34-.486-.685-.486-1.03 0-.348.226-.696.492-1.037m-.217 3.779c-.068-.337.082-.717.273-1.1.257.322.483.63.544.939.062.315-.027.697-.136 1.08-.325-.283-.613-.58-.681-.92m.798 2.64c-.13-.314-.054-.707.064-1.132.314.264.594.522.713.812.124.296.111.689.08 1.085-.388-.219-.724-.446-.857-.766m1.307 2.429c-.188-.28-.19-.682-.159-1.12.348.19.68.395.856.656.177.265.241.652.287 1.047-.42-.139-.79-.297-.984-.583m1.377 1.059c.38.121.749.258.974.48.225.225.364.591.486.97-.44-.055-.836-.137-1.08-.38-.242-.24-.325-.633-.38-1.07m2.522 2.817c-.285-.19-.442-.558-.582-.976.395.046.782.11 1.046.286.263.175.468.507.662.853q-.18.014-.35.015c-.347 0-.594-.056-.775-.178m2.44 1.304c-.321-.132-.55-.465-.769-.85.157-.012.314-.023.46-.023.267 0 .468.032.631.099.292.121.56.408.817.71-.27.075-.526.132-.76.132a1 1 0 0 1-.38-.068m2.65.799c-.34-.068-.628-.35-.918-.683.39-.108.785-.193 1.081-.135.308.06.615.282.934.536-.398.197-.778.343-1.097.282m1.715-.22c.357-.183.717-.344 1.04-.345.319 0 .666.162 1.034.35-.34.262-.687.484-1.033.484-.349 0-.698-.226-1.041-.49m3.796.217c-.325.064-.715-.083-1.105-.272.323-.257.632-.481.943-.543.297-.058.693.028 1.084.137-.283.324-.58.61-.922.678" fill="#9d0a12"/><path d="M15.894 16.969H14.72l.155-.094-.272-.439-.214.13.25.403h-1.05v.25h2.305zm.159 1.759h-.915l.447-1.19-.266-.006-.455 1.196h-.376l-.004-.02.107-.049-.46-1.12h-.281l.5 1.19h-.937v.248h2.64zm-2.729 3.249.216.124.377-.643-.217-.124zm1.57-.216.214-.127-.343-.57-.214.127zm.508-.374.536.663.196-.156-.536-.664zm.382-.633h-.922v-.395h1.143v-.25h-1.143v-.44h-.25v.44h-1.198v.25h1.197v.395h-.921v.25h2.094z" fill="#9d0a12"/><path d="M15.156 22.059h-.719q-.07-.014-.078-.089v-.61h-.25v.757c0 .043.012.185.174.19h1.045v-.002h.01c.145-.014.29-.291.316-.347l-.277-.122c-.043.092-.115.203-.22.223m4.305-.039.003-.007v-1.46h.798v-.235h-.798v-.657h-.25v.657h-1.392v.235h1.3l-.01.017c-.311.462-.759.86-1.29 1.142v.305a3.8 3.8 0 0 0 1.372-1.108l.02-.024v.952c-.02.096-.135.146-.22.181l-.025.012.145.305c.055-.027.334-.169.347-.315m8.826.43h.236v-2.625h-2.412v2.625h.237v-.166h1.939zm-1.94-2.391h1.94v1.99h-1.94z" fill="#9d0a12"/><path d="m27.624 21.34.185.222h-.367v-.457h.563v-.235h-.563v-.335h.622v-.234h-1.479v.234h.62v.335h-.56v.235h.56v.457h-.673v.235h1.585v-.235l-.31-.372zm5.112-4.404-.384-.416-.174.159.383.418zm-.879-.27-.19-.14-.339.454.19.14zm-.807.3-.302-.48-.2.126.301.479zm-.91 1.124.15.22a2.4 2.4 0 0 0 .31-.273l.019-.019v1.127h.237v-1.053l.25.303.19-.141-.269-.325.243-.233-.164-.167-.221.209-.013.005-.012-.016.005-.007q.131-.187.224-.384h-.001l.004-.01a2 2 0 0 0 .08-.228h-.965v.234h.586l-.009.016a2.4 2.4 0 0 1-.643.742" fill="#9d0a12"/><path d="m31.188 18.011.167.208a1 1 0 0 0 .134-.105l.018-.015v1.046h.236v-.141h.55v.141h.236v-1.103l.018.013c.06.047.124.09.183.124l.16-.213a1.94 1.94 0 0 1-.76-.85l.028-.083-.28-.007c-.234.64-.615.93-.69.985m1.105.757h-.55v-.575h.55zm-.634-.828q.184-.213.326-.49l.008-.016.01.016q.172.28.402.49l.022.018h-.783zm-5.172-.058-.472.169v.259l.479-.18v.545h-.002q-.018.122-.224.218l.123.269c.056-.027.333-.169.338-.31l.001-.01.007-.804.316-.111v-.26l-.323.122v-.43h.323v-.235h-.323v-.654h-.236v.654h-.488v.235h.488zm.933-.114.004-.012h.019l.002.01c.01.034.107.354.35.699l.005.007-.005.006c-.107.12-.212.216-.288.284l-.016.01v.347c.173-.111.34-.253.486-.413l.007-.009.008.009q.274.29.607.434l.007-.304a1.5 1.5 0 0 1-.448-.34l-.007-.007.006-.007a2.1 2.1 0 0 0 .32-.705l.005-.023c.012-.044.036-.143.048-.233h-.164v.001h-.947v-.665h.752v.13h-.002q-.016.122-.224.22l.123.265c.055-.025.324-.164.336-.303l.004-.008v-.54h-1.225v2.514h.236v-1.367m.788-.012-.005.015a1.6 1.6 0 0 1-.225.474l-.009.013-.01-.013c-.13-.2-.203-.383-.234-.474l-.005-.015zm4.147 4.307c-.041 0-.093-.038-.153-.08l-.017-.013q-.261-.206-.394-.668l-.004-.013h.733v-.237h-.789l-.001-.008a3 3 0 0 1-.041-.342v-.01h.831v-.82l-2.054-.001v2.192h.002v.01c.009.142.28.279.335.306l.12-.26c-.087-.04-.22-.122-.22-.242v-.588h.806l.002.008c.108.427.292.736.547.915l.006.007q.192.126.331.127c.267 0 .31-.363.315-.433h-.284c-.002.068-.012.15-.071.15m-1.653-1.01v-.361h.719v.01c.004.074.013.194.037.337l.002.013zm0-.946h1.583v.35H30.7zm-12.533-2.309v-.01h.457v.67h.007l-.005.013c-.02.066-.08.116-.31.153l.03.223c.233-.034.472-.108.508-.38l.008-.008v-.906h-.696v-.362h.95v.01q.057.613.22 1.072a2.5 2.5 0 0 1-.433.426v.334a2.7 2.7 0 0 0 .55-.483l.01-.011.007.013c.116.21.332.516.61.516a.7.7 0 0 0 .149-.017v-.287c-.103.03-.332.064-.58-.46q.247-.34.43-.757l-.29-.006a4 4 0 0 1-.244.441l-.013.02-.007-.023a4.3 4.3 0 0 1-.143-.777l-.001-.011h.77v-.238l-.283-.483h-.296l.287.485h-.495v-.01a5 5 0 0 1-.005-.48h-.265c-.003.073-.007.246.004.48v.01H17.89v.867c0 .257-.034.877-.332 1.136l.277.155c.044-.054.332-.447.332-1.315m-7.845-4.115-.407.302.053.362-.525.985-1.588-.836.727-1.368-.155-.082h-.001l-.41.303.055.364-.373.7-1.355-.713-.235.441 3.1 1.634-.774 1.453.156.084 1.89-3.548zm8.973-6.697.035.173 1.353-.275.248 1.212.493-.101-.248-1.211.607-.123-.036-.175-.607.124-.494-2.408-.494.102.495 2.407z" fill="#9d0a12"/><path d="m18.162 5.382.111.542-.701.142.036.175.593-.121c-.01.15-.082 1.11-.346 1.726l.128.065s.313-.468.487-1.027l.338 1.642.492-.1-.408-1.993c.286.227.299.325.428.401.11.062.23.034.277-.054.184-.328-.538-.5-.745-.543l-.05-.24.598-.122-.034-.173-.599.122-.132-.644c.21-.102.403-.215.526-.33l-.49-.246s-.461.5-1.222.862l.03.148s.316-.09.683-.232m19.871 7.763a2 2 0 0 0 .186-.129l1.47 2.625-.587.17.096.169.77.159.001.002h.007l.148-.08-.034-.51-.335-.154v.001l-.234-.416c.166.052.5.142.95.194l-.126-.609s-.644.175-.972.15l-.599-1.07a.2.2 0 0 0 .074.034c.468.103.322-1.086.322-1.086l-.118-.028c-.17.562-.316.648-.356.837a.3.3 0 0 0 0 .1l-.34-.604c.062-.064.132-.146.132-.146l-.065-.113-.026.01c-.392.132-.575-.012-.806.116-.11.062-.197.21-.12.347.109.196.322.165.562.03" fill="#9d0a12"/><path d="M39.359 14.33c.447.09.33-1.028.33-1.028l-.112-.027c-.17.53-.32.622-.358.797-.03.128.038.237.14.258m-3.069 1.063c.456.616.912.37.912.37l.676-.375.74 1.321.152-.086v.002-.003l-.034-.503-.331-.152-.373-.664.234-.13.702.309.154-.086-1.043-1.863-.154.086.77 1.375-.67-.255-.003-.004-.234.131-.898-1.601-.154.084.897 1.603-.675.374c-.07.04-.103-.008-.16-.108-.05-.091-.261-.535-.307-.628l-.127.071c.275.648-.075.732-.075.732m-8.708-9.238-.657-.161-.043.17.076.02c-.002.497.112.916.274 1.262-.68.412-1.296.52-1.296.52l-.037.155c.58.067 1.107-.07 1.554-.28.402.603.906.891.906.891.15-.275.375-.291.429-.291l.03-.122a2.9 2.9 0 0 1-.977-.691 4.6 4.6 0 0 0 1.09-.958h.004l.041-.171-.906-.224.138-.556 1.142.283.043-.172h.002l-.398-.32-.34.14-.406-.101.195-.788-.488-.12-.196.787-.658-.162-.042.172.658.162zm-.037 1.083a2.5 2.5 0 0 1-.365-1l1.103.272a3.6 3.6 0 0 1-.738.728" fill="#9d0a12"/><path d="m25.21 7.953.131.032v.001l.488.12.443-1.788c.224-.06.394-.112.492-.144l.044-.184a8 8 0 0 1-.469.056l.184-.74.429.105.041-.17-.428-.105.195-.79-.488-.119-.195.79-.564-.14-.042.17.564.139-.22.891c-.424.016-.723.002-.723.002l.034.471q.323-.048.597-.104l-.229.922.007-.037c-.035.142-.058.19-.332.124-.123-.03-.237-.07-.237-.07l-.026.108c.343.156.303.46.303.46m-13.809.93c.02-.435-.966-.138-.966-.138l-.008.113c.53.08.577.186.75.198.126.005.22-.072.224-.173m-.689.745-.009.112c.53.08.578.186.75.2.127.005.22-.075.224-.175.02-.436-.965-.137-.965-.137m4.511-.651-.11-.136-.279.219-.472-.597.279-.218-.11-.14-.28.22-.583-.738-.296.234-1.19.933a5 5 0 0 0-.024-.4l1.585-1.243-.11-.14-.5.112-.097.354.005-.002-.91.715a3.4 3.4 0 0 0-.108-.48l-.514.229s.435.764.485 1.594l.139.002s.018-.106.033-.277l.364.459-.316.247.11.14.316-.248.471.596.109.138.058.073.394-.31-.058-.073.934-.733c.103.135.142.239-.02.365l-.588.46.07.087s.52-.344.707-.107c0 0 .673-.54.225-1.114zm-2.775-.208.934-.734.475.6-.205.16q.001-.008.004-.014c.02-.438-.966-.136-.966-.136l-.008.108c.53.081.577.19.749.199l.025-.002-.533.418zm1.791.757.002-.007c.018-.434-.966-.135-.966-.135l-.008.107c.53.082.577.189.75.2l.015-.002-.527.413-.471-.595.934-.734.467.59h-.002l.006.007z" fill="#9d0a12"/><path d="m11.591 10.773.1.125s.381-.18.902.48l.296.367.26-.204s-.615-.796-.811-1.07c-.183-.255-.654-1.688-.728-1.917l-.139.11c.114.37.456 1.498.437 1.753-.018.24-.317.356-.317.356m23.948-.677-.226-.456-.367-.014.003.004-.79-.627c.436-.398.718-.788.797-.903l-.468-.37c-.25.378-.506.683-.76.93l-1.251-.993-.11.136 1.229.977c-1.105.989-2.176.923-2.673.818l-.128.16c1.312.593 2.446.022 3.202-.613-1 1.406-.437 2.809-.437 2.809.356-.233.63.07.63.07l.09-.114c-.716-1.132-.181-2.532-.12-2.68l1.268 1.006.11-.137-.007-.005z" fill="#9d0a12"/></svg>