<svg width="128" height="128" fill="none" xmlns="http://www.w3.org/2000/svg"><path fill-rule="evenodd" clip-rule="evenodd" d="M63.765 78.603c2.797-2.754 5.548-2.71 9.056-3.154 3.72-.47 5.55-1.377 7.192-3.107s2.753-5.728.978-9.459c-1.777-3.726-4.707-5.148-4.707-5.148s.266.886.266 2.132c0 1.242.045 4.171-.088 6.703-.134 2.53-.266 6.481-5.506 7.592-5.238 1.108-6.393 2.485-6.393 2.485v-2.085s.89-.534 2.22-1.022c1.332-.489 4.173-1.821 5.105-4.617s.355-6.971.355-7.814c0-.845-.131-3.107 2.398-8.212 0 0-4.748.93-6.216 6.303-.31 1.646-.443 5.105-.443 6.88 0 1.777.532 5.019-2.264 6.307 0 0-.445-.4-1.155-.4V59.82h1.555s.22-1.151-1.509-1.464v-6.793s-.179-1.776.442-2.574c.622-.8 1.554-1.288 2.71-1.42 1.152-.133 2.752.043 2.752 1.82s-2.043 1.643-2.176 1.509c-.133-.133-.488-.93-1.732-.266-.754.356-.089 1.598.8 1.953.887.354 2.708 1.11 4.795-.667 2.086-1.773 1.242-4.438-.401-5.637-1.642-1.199-5.149-1.687-8.034.889h-.045c-2.886-2.576-6.395-2.088-8.036-.89-1.641 1.2-2.486 3.865-.4 5.638 2.088 1.777 3.906 1.021 4.794.667.889-.355 1.556-1.597.8-1.953-1.243-.664-1.597.133-1.73.266-.134.134-2.177.268-2.177-1.51 0-1.776 1.6-1.952 2.752-1.82 1.156.133 2.088.62 2.708 1.421.623.799.445 2.574.445 2.574v6.793c-1.73.313-1.51 1.464-1.51 1.464h1.554v12.167c-.708 0-1.153.4-1.153.4-2.798-1.288-2.264-4.53-2.264-6.306s-.134-5.235-.444-6.88c-1.467-5.374-6.216-6.304-6.216-6.304 2.53 5.105 2.398 7.367 2.398 8.212 0 .843-.577 5.017.355 7.814.933 2.796 3.773 4.128 5.105 4.617 1.33.488 2.22 1.022 2.22 1.022v2.085s-1.154-1.377-6.392-2.485c-5.24-1.111-5.373-5.061-5.508-7.592-.13-2.532-.088-5.461-.088-6.703 0-1.245.267-2.132.267-2.132s-2.932 1.422-4.706 5.148c-1.776 3.73-.667 7.728.977 9.459 1.643 1.73 3.472 2.638 7.193 3.107 3.506.445 6.258.4 9.056 3.154zm-14.28 5.571h4.505l-2.31-1.735zm-.71.249 2.825-2.238.076-.057 3.057 2.295z" fill="#1e8274"/><path fill-rule="evenodd" clip-rule="evenodd" d="M50.207 83.927h2.935l-1.441-1.118zm-.446.15 1.896-1.42.046-.034 1.873 1.454H49.76Zm10.862-.013h6.279l-3.168-2.903-3.11 2.903Zm-.752.296 3.761-3.511.1-.092 3.931 3.603z" fill="#1e8274"/><path fill-rule="evenodd" clip-rule="evenodd" d="M62.3 83.507h2.941l-1.435-1.425zm-.745.296 2.15-2.036.104-.099 2.151 2.135zm-.815.865h5.984v-.086H60.74zm-.148.15v-.383h6.281v.383h-6.28Zm-.209.22c0 .03.02.052.048.052h6.53a.05.05 0 0 0 .049-.052.05.05 0 0 0-.05-.047h-6.529a.047.047 0 0 0-.048.047m.048.201a.2.2 0 0 1-.199-.2c0-.109.089-.196.199-.196h6.53c.109 0 .197.087.197.195a.2.2 0 0 1-.198.201zm.589.531v3.832h.34V85.77h.136v-.358h-.63v.358zm-.15 3.983v-3.835h-.153v-.653h.927v.653h-.134v3.834zm1.857-3.983v3.832h.339V85.77h.136v-.358h-.63v.358zm-.15 3.983v-3.835h-.153v-.653h.926v.653h-.137v3.834h-.635Zm1.843-3.983v3.832h.337V85.77h.138v-.358h-.63v.358zm-.15 3.983v-3.835h-.153v-.653h.926v.653h-.134v3.834zm1.83-3.983v3.832h.34V85.77h.137v-.358h-.63v.358zm-.147 3.983v-3.835h-.154v-.653h.926v.653h-.137v3.834z" fill="#1e8274"/><path fill-rule="evenodd" clip-rule="evenodd" d="M60.122 89.852h7.331v-.037h-7.331zm-.098.097v-.234h7.527v.234zm-.112.211h7.703v-.06h-7.703zm-.148.15v-.36h8v.36zm-.224.408h8.485v-.163H59.54zm-.197.195v-.556h8.88v.556zm-9.893-.927v-5.665h.198v5.467h4.032v-5.49h.195v5.688z" fill="#1e8274"/><path fill-rule="evenodd" clip-rule="evenodd" d="m53.723 89.808.463-.318.001-5.191h.198v5.296l-.55.373z" fill="#1e8274"/><path fill-rule="evenodd" clip-rule="evenodd" d="M49.55 86.86v-.2h4.212l.482-.31h6.714v.199h-6.655l-.484.31h-4.27Zm.888-.743h.854V84.93h-.854v1.188Zm-.196.198V84.73h1.248v1.584zm1.868-.198h.854V84.93h-.853v1.188Zm-.198.198V84.73h1.25v1.584zm21.652-2.141h4.504l-2.195-1.734zm-.742.249 2.98-2.24.075-.055 2.902 2.295z" fill="#1e8274"/><path fill-rule="evenodd" clip-rule="evenodd" d="M74.41 83.927h2.937l-1.495-1.118zm-.432.15 1.83-1.419.043-.036 1.942 1.454zm-.304 5.909v-5.688h.198v5.49h4.031V84.32h.196v5.665h-4.425Z" fill="#1e8274"/><path fill-rule="evenodd" clip-rule="evenodd" d="M73.168 89.595v-5.296h.197v5.191l.464.317-.112.161z" fill="#1e8274"/><path fill-rule="evenodd" clip-rule="evenodd" d="m73.733 86.86-.484-.311h-6.683v-.199h6.743l.482.31H78v.2h-4.269Zm2.526-.743h.853V84.93h-.853v1.188Zm1.052.198h-1.25V84.73h1.25zm-2.721-.198h.853V84.93h-.853v1.188Zm1.05.198h-1.248V84.73h1.249zm-23.716-3.687h10.074v-.295H51.924zm13.603 0h10.075v-.295H65.526v.295ZM54.15 84.28h6.15v-.3h-6.15zm13.075 0h6.15v-.3h-6.15zm-12.993 5.406h6.744v-.298h-6.744zm12.286 0h6.744v-.298h-6.744zm-11.38-3.89h.825v-.99h-.825zm-.197.197v-1.386h1.221v1.386zm1.979-.197h.825v-.99h-.825zm-.198.197v-1.386h1.22v1.386zm2.044-.197h.825v-.99h-.825zm-.197.197v-1.386h1.22v1.386zm9.264-.197h.826v-.99h-.826zm-.197.197v-1.386h1.22v1.386zm1.98-.197h.824v-.99h-.824zm-.199.197v-1.386h1.22v1.386zm2.046-.197h.824v-.99h-.824zm-.198.197v-1.386h1.22v1.386zm-31.399-4.236c.197.292.473.694.797 1.135.605.828 1.371 1.794 2.038 2.416.09-.077.22-.18.376-.285.308-.201.708-.414 1.135-.417.13 0 .265.023.395.077l.178-.208a3.5 3.5 0 0 1-.039-.515c0-.318.044-.73.22-1.145.151-.36.402-.722.8-1.017l-2.603-2.984a3 3 0 0 0-.503.503 3.3 3.3 0 0 0-.703 1.96l-.011.267-.253-.088-.023-.008a3 3 0 0 0-.33-.09 3.7 3.7 0 0 0-.817-.102c-.307 0-.617.051-.865.192q.08.121.208.309m2.702 3.964c-.739-.654-1.57-1.704-2.224-2.596-.652-.89-1.124-1.623-1.125-1.624l-.097-.151.14-.112c.373-.296.837-.374 1.26-.374.425 0 .815.08 1.055.145.088-.869.435-1.51.774-1.938.367-.466.725-.683.741-.692l.14-.084 3.132 3.59-.197.12c-.439.27-.687.614-.837.964a2.6 2.6 0 0 0-.188.99c0 .28.04.481.049.522v.008l.024.1-.414.471-.112.128-.144-.092a.6.6 0 0 0-.333-.094c-.252-.003-.554.128-.808.283a4 4 0 0 0-.537.402l-.032.029-.13.123zm-6.122-10.712c.15.4.359.952.605 1.542.462 1.116 1.06 2.387 1.576 3.062a3.1 3.1 0 0 1 1.14-.223c.212 0 .44.023.679.083.025-.209.086-.52.22-.86.213-.533.637-1.146 1.42-1.439-.159-.28-.457-.808-.778-1.402-.48-.88-1.009-1.89-1.238-2.48q-.02-.051-.036-.101l-.004.004a6 6 0 0 0-.53.458c-.395.386-.803.909-.885 1.416l-.057.34-.263-.219-.006-.004c-.006-.006-.01-.012-.021-.018l-.096-.067a3.13 3.13 0 0 0-1.88-.51c.04.107.09.25.154.418m1.972 4.977c-.601-.722-1.23-2.083-1.732-3.281a43 43 0 0 1-.85-2.222l-.08-.228.238-.034a3.53 3.53 0 0 1 2.306.492c.179-.531.566-.992.922-1.341.422-.413.817-.673.82-.677l.293-.194.015.35a.8.8 0 0 0 .05.192c.033.1.086.222.149.366.124.285.3.645.494 1.023.39.758.855 1.6 1.164 2.151.206.367.342.604.342.608l.128.22-.248.069c-.744.2-1.131.694-1.352 1.184a3.1 3.1 0 0 0-.257 1.056v.019l-.003.279-.263-.097a2.3 2.3 0 0 0-.786-.138c-.601 0-1.06.226-1.102.249l-.145.078z" fill="#1e8274"/><path fill-rule="evenodd" clip-rule="evenodd" d="M37.68 72.868c.077-.15.195-.358.358-.583.29-.394.724-.841 1.327-1.081a40 40 0 0 1-.408-1.562c-.21-.88-.422-1.911-.457-2.686-.143.06-.334.144-.543.26-.434.241-.937.619-1.218 1.14l-.171.318-.174-.318-.005-.006q-.005-.006-.014-.025l-.07-.1a3 3 0 0 0-.3-.338 3.1 3.1 0 0 0-1.053-.658l.019.268c.027.35.07.842.139 1.407.124 1.082.333 2.431.66 3.569.088-.01.21-.016.35-.016.433.002 1.057.06 1.56.41Zm-.064.457c-.39-.382-1.045-.477-1.495-.473a4 4 0 0 0-.464.03l-.171.03-.05-.168c-.727-2.41-.896-5.776-.899-5.785l-.012-.274.266.075a3.47 3.47 0 0 1 1.767 1.144c.337-.478.806-.81 1.207-1.035.471-.263.864-.378.873-.382l.258-.074-.005.268-.001.056c0 .535.126 1.318.285 2.074.16.756.353 1.491.48 1.958.085.31.142.5.142.503l.055.188-.186.054c-.55.17-.965.557-1.253.932a3.7 3.7 0 0 0-.47.794l-.006.014-.108.277z" fill="#1e8274"/><path fill-rule="evenodd" clip-rule="evenodd" d="M35.529 65.303c.336.151.711.36.96.672.106-.12.257-.275.447-.427.357-.295.849-.601 1.429-.646-.01-.26-.024-.74-.024-1.305 0-.578.014-1.243.061-1.853.04-.458.093-.885.181-1.23-.1.022-.222.052-.356.093-.389.12-.887.345-1.329.752l-.194.176-.115-.235s-.007-.01-.019-.034a5 5 0 0 0-.245-.417c-.164-.254-.392-.557-.625-.748a1 1 0 0 0-.265-.163l-.058.299c-.058.309-.135.738-.214 1.228-.156.977-.311 2.189-.31 3.107q.001.266.019.491c.145.041.39.122.657.24m.758 1.087c-.111-.251-.436-.49-.776-.657a4.5 4.5 0 0 0-.87-.323l-.134-.031-.017-.138a6 6 0 0 1-.032-.67c.001-1.914.629-4.9.629-4.908l.034-.164.167.009c.252.007.47.131.664.288a3.2 3.2 0 0 1 .508.554c.151.204.277.407.361.552a3.95 3.95 0 0 1 2.033-.826l.312-.022-.117.29c-.12.304-.204.84-.25 1.434s-.062 1.25-.062 1.819c0 .42.008.79.015 1.06.008.266.015.428.015.43l.011.216-.218-.01-.057-.001c-.462-.003-.908.24-1.25.507a3.8 3.8 0 0 0-.62.617q-.006.01-.007.008l-.197.265-.142-.3Zm.751-7.31c.311-.233.983-.653 1.892-.686.053-.216.158-.64.283-1.106.143-.537.31-1.121.466-1.537-.37.022-1.021.107-1.5.411l-.231.144-.066-.263-.039-.142a9 9 0 0 0-.109-.356c-.1-.283-.236-.63-.39-.876a2 2 0 0 0-.126-.172c-.076.176-.187.442-.315.754-.234.563-.519 1.28-.73 1.872a9 9 0 0 0-.253.816c.226.171.769.608 1.117 1.141Zm-.23.394c-.286-.571-1.015-1.141-1.185-1.263a.2.2 0 0 0-.036-.027l-.103-.071.022-.127c.041-.238.152-.587.295-.994.142-.403.318-.857.488-1.283.343-.857.664-1.598.664-1.6l.077-.177.18.073c.204.088.343.26.468.453.125.198.229.424.314.642.091.229.158.445.207.603.675-.33 1.431-.35 1.693-.354l.096.003.3.014-.131.27c-.118.243-.277.737-.421 1.245a42 42 0 0 0-.455 1.755l-.037.155-.163-.001q-.02-.004-.05-.003c-1.07-.001-1.825.66-1.902.733q-.007.004-.006.005l-.19.182z" fill="#1e8274"/><path fill-rule="evenodd" clip-rule="evenodd" d="M38.841 53.86c.077.145.144.284.178.424.285-.12.726-.25 1.322-.265.13-.308.482-1.128.825-1.765q.099-.19.197-.35c-.33.01-.85.067-1.382.29l-.275.116v-.34a3.4 3.4 0 0 0-.08-.577 2.7 2.7 0 0 0-.388-.916l-.422.73c-.282.488-.615 1.07-.847 1.492.191.212.616.706.872 1.16Zm-.221.643.019-.015c0-.001.005-.011.005-.032.003-.063-.038-.192-.113-.337a4 4 0 0 0-.302-.474 10 10 0 0 0-.599-.73l-.047-.05-.097-.104.07-.126c.473-.872 1.485-2.601 1.486-2.601l.134-.23.18.195c.38.407.563.909.655 1.306.038.163.058.308.072.429a4.3 4.3 0 0 1 1.387-.228c.175 0 .28.014.287.014l.365.038-.234.282c-.154.185-.378.589-.58 1.004a25 25 0 0 0-.65 1.444l-.051.124h-.134c-.983 0-1.503.33-1.596.392l-.027.02z" fill="#1e8274"/><path fill-rule="evenodd" clip-rule="evenodd" d="M40.588 49.313c.191.306.389.703.42 1.126.22-.062.56-.13 1.003-.13q.147-.002.31.013c.089-.146.259-.426.469-.739.213-.315.462-.664.709-.947-.324.001-.767.028-1.087.13l-.222.065-.032-.229s-.005-.047-.02-.131a7 7 0 0 0-.067-.333 4.3 4.3 0 0 0-.282-.865 1.4 1.4 0 0 0-.133-.225l-1.375 1.839c.08.1.191.244.307.426m.012 1.38a1 1 0 0 0 .014-.156c.001-.29-.132-.624-.292-.9a4 4 0 0 0-.438-.606l-.113-.12 1.823-2.442.157.117c.174.124.295.31.394.515s.176.434.236.645a7 7 0 0 1 .132.583 5.4 5.4 0 0 1 1.017-.09c.26 0 .443.015.447.015l.48.037-.368.311c-.215.183-.49.52-.734.86a17 17 0 0 0-.61.922l-.147.242-.063.112-.125-.013a5 5 0 0 0-.399-.018c-.707 0-1.106.188-1.128.195l-.086-.175.056.112.03.063-.348.175z" fill="#1e8274"/><path fill-rule="evenodd" clip-rule="evenodd" d="M42.934 46.286c.113.307.23.693.234 1.048.209-.04.512-.084.809-.088.187.004.376.018.546.077.179-.205.577-.654.908-.996q-.096-.019-.208-.046a5.6 5.6 0 0 0-1.064-.13h-.236l.041-.231.008-.057.02-.157c.014-.133.03-.311.03-.494a2 2 0 0 0-.057-.521c-.098.084-.224.192-.359.314-.3.267-.646.59-.813.78l-.042.056c.042.095.112.254.183.445m-.18 1.253a.8.8 0 0 0 .02-.187c0-.236-.078-.55-.172-.819a6 6 0 0 0-.252-.614l-.036-.072.022-.075c.03-.088.07-.134.122-.202.052-.063.12-.134.192-.211.153-.156.34-.332.524-.5.372-.336.73-.639.73-.639l.16-.135.126.162c.199.271.221.631.226.965-.001.21-.018.407-.033.549.726.047 1.48.273 1.488.273l.33.098-.251.236c-.199.189-.51.522-.765.805a19 19 0 0 0-.457.518l-.106.118-.139-.077c-.103-.057-.295-.088-.506-.088-.344 0-.73.074-.897.111l-.083.023-.32.082.076-.32Z" fill="#1e8274"/><path fill-rule="evenodd" clip-rule="evenodd" d="M46.672 45.104c.207-.175.707-.603 1.081-.895q.03-.026.061-.048c-.09-.03-.195-.063-.304-.096-.363-.11-.804-.216-1.026-.214h-.252l.058-.245s.012-.038.026-.109a4 4 0 0 0 .056-.278c.041-.22.08-.495.08-.7l-.385.299c-.288.222-.61.47-.804.622.033.2.09.621.09 1.028 0 .144-.006.286-.026.421.326.005.89.032 1.345.215m-.054.407c-.381-.193-1.065-.23-1.37-.228h-.124l-.04.002-.301.014.105-.282c.049-.117.071-.327.069-.549a7 7 0 0 0-.102-1.075l-.02-.12.092-.071c.348-.273 1.534-1.189 1.534-1.189l.16-.125.121.164c.099.146.102.293.107.463-.001.32-.073.714-.123.96.282.036.606.127.897.21.376.114.683.227.684.228l.396.144-.364.213a5 5 0 0 0-.344.25c-.154.123-.335.271-.506.415-.345.284-.652.549-.652.549l-.1.086z" fill="#1e8274"/><path fill-rule="evenodd" clip-rule="evenodd" d="M48.874 42.955c.125.052.242.105.344.178l1.101-.76a7 7 0 0 0-.6-.25 1.3 1.3 0 0 0-.305-.077l-.25-.02.074-.236.05-.172c.03-.105.073-.255.112-.414.055-.21.108-.45.137-.64l-1.653.933c-.015.211-.05.69-.11 1.04q-.01.072-.024.136c.274.046.749.134 1.124.282m.181.555c-.058-.077-.31-.198-.587-.273a6 6 0 0 0-.781-.171c-.132-.023-.214-.033-.214-.033l-.28-.034.129-.25c.01-.016.042-.135.064-.276s.044-.315.06-.479c.033-.33.052-.626.052-.626l.006-.11 2.38-1.349.058.265q.014.074.013.149c-.002.269-.087.646-.172.98-.038.15-.075.286-.106.392q.083.024.172.052c.145.05.298.114.44.175.28.124.512.242.514.245l.294.151-1.928 1.326z" fill="#1e8274"/><path fill-rule="evenodd" clip-rule="evenodd" d="M51.49 41.38c.095.04.182.074.263.13l.978-.544-.13-.077c-.229-.13-.524-.26-.744-.278l-.276-.026.112-.252s.016-.035.042-.099c.026-.06.062-.148.105-.253a7 7 0 0 0 .24-.696l.012-.04-1.087.438c-.007.229-.036.71-.151 1.117a1.5 1.5 0 0 1-.15.373c.239.045.542.114.785.206Zm.076.486s-.008-.012-.032-.028a1 1 0 0 0-.096-.053 2 2 0 0 0-.308-.106 8 8 0 0 0-.676-.15l-.189-.03-.036-.383c.036-.01.098-.063.155-.185.059-.117.107-.282.14-.453.069-.343.086-.72.089-.864v-.2l1.93-.776v.29a2 2 0 0 1-.081.462 6 6 0 0 1-.168.508 9 9 0 0 1-.143.366c.235.065.456.175.642.28.254.143.43.277.435.28l.247.182-1.806 1.002zm31.79 42.797c.426.002.828.214 1.133.413.156.104.287.208.379.288 1.023-.953 2.268-2.714 2.833-3.552q.13-.19.209-.311c-.248-.138-.556-.19-.864-.19a4 4 0 0 0-1.171.198l-.254.09-.01-.269a3.3 3.3 0 0 0-.672-1.918 3 3 0 0 0-.534-.545l-2.603 2.989c.396.293.65.654.8 1.014.174.415.22.825.22 1.144 0 .227-.023.41-.04.516l.18.208a1 1 0 0 1 .394-.075m1.375 1.105-.03-.027q-.034-.032-.097-.083a4 4 0 0 0-.334-.25c-.273-.182-.63-.354-.914-.351a.6.6 0 0 0-.334.093l-.144.092-.525-.601.022-.098.003-.008.005-.028q.007-.032.016-.106a2.5 2.5 0 0 0 .026-.387c0-.282-.04-.64-.187-.99a2.03 2.03 0 0 0-.837-.963l-.2-.123 3.133-3.59.142.087c.014.007.373.223.742.69.339.428.684 1.07.772 1.937a4.3 4.3 0 0 1 1.056-.145c.422 0 .886.083 1.26.376l.14.11-.096.15c-.003.005-.475.735-1.125 1.629-.656.89-1.487 1.943-2.226 2.593l-.135.121zm4.209-6.098c.38-.498.804-1.317 1.186-2.157a41 41 0 0 0 1.149-2.868 2 2 0 0 0-.17-.006c-1.026 0-1.755.54-1.827.6l-.005.004-.263.218-.057-.336c-.075-.445-.39-.903-.735-1.266a5.6 5.6 0 0 0-.683-.613 9 9 0 0 1-.297.694c-.214.45-.492.986-.769 1.504-.4.742-.793 1.445-.986 1.785.784.294 1.206.903 1.417 1.441.137.337.197.65.222.858.239-.062.466-.083.68-.083.515 0 .927.135 1.138.225m-.034.418-.018-.007a2 2 0 0 0-.288-.117 2.8 2.8 0 0 0-.797-.126c-.245 0-.512.038-.789.138l-.263.095-.002-.28v-.016q-.004-.017-.004-.056c-.005-.052-.01-.125-.026-.217a3 3 0 0 0-.184-.687c-.211-.519-.603-1.065-1.397-1.282l-.247-.069.129-.22c0-.003.106-.183.268-.474.164-.295.389-.695.625-1.134.474-.869 1.005-1.888 1.216-2.433.06-.15.09-.274.089-.296l.015-.35.292.191c.007.006.398.266.82.68.36.35.744.809.923 1.34a3.55 3.55 0 0 1 2.306-.491l.237.033-.078.226c0 .004-.354 1.025-.852 2.222-.499 1.198-1.132 2.563-1.73 3.282l-.105.125z" fill="#1e8274"/><path fill-rule="evenodd" clip-rule="evenodd" d="M89.53 72.34c.163.223.281.432.357.58.504-.348 1.129-.407 1.56-.408q.213.002.352.014c.498-1.732.718-3.955.798-4.973l.018-.27c-.967.365-1.392 1.048-1.436 1.121l-.004.005-.173.317-.175-.318c-.263-.487-.718-.848-1.134-1.091a4.4 4.4 0 0 0-.625-.305c-.038.774-.249 1.806-.457 2.685a39 39 0 0 1-.409 1.56c.606.242 1.038.69 1.328 1.084Zm.1.967-.005-.012-.019-.041a3.4 3.4 0 0 0-.396-.68c-.288-.397-.725-.825-1.31-1.004l-.186-.057.057-.187c0-.002.056-.19.14-.502.087-.311.2-.742.315-1.22.228-.952.45-2.095.45-2.814v-.055l-.002-.269.258.075c.008.005.398.12.87.383.403.225.871.557 1.209 1.033.26-.326.82-.872 1.767-1.143l.266-.075-.015.276c-.001.007-.17 3.373-.898 5.784l-.05.165-.171-.027-.03-.004c-.022-.002-.054-.009-.095-.012a4 4 0 0 0-.338-.014c-.451-.004-1.108.087-1.494.47l-.214.207z" fill="#1e8274"/><path fill-rule="evenodd" clip-rule="evenodd" d="M90.633 65.603c.186.155.338.306.446.427.25-.312.626-.52.961-.672.267-.12.512-.199.658-.24.013-.149.018-.315.018-.489 0-1.38-.35-3.416-.523-4.339q-.037-.178-.059-.3a1 1 0 0 0-.207.121c-.135.1-.275.244-.397.395a5.5 5.5 0 0 0-.55.848l-.116.238-.196-.178c-.591-.551-1.294-.766-1.683-.844.088.342.142.77.179 1.229.05.61.062 1.275.062 1.851 0 .565-.012 1.047-.021 1.306.577.044 1.07.351 1.428.647m.31.875-.01-.01c-.006-.009-.016-.017-.026-.036l-.111-.13a4 4 0 0 0-.414-.395c-.349-.288-.824-.564-1.317-.563q-.03 0-.057.003l-.216.01.008-.219s.008-.159.016-.43c.008-.264.016-.638.016-1.058 0-.568-.014-1.225-.062-1.817-.046-.594-.13-1.132-.253-1.432l-.114-.292.311.02c.022.002 1.078.067 2.033.828.163-.283.48-.781.87-1.108.192-.152.413-.28.665-.289l.165-.006.034.161c.001.011.628 2.993.63 4.914q0 .36-.033.666l-.016.139-.133.03s-.02.007-.057.016l-.162.045c-.134.046-.317.106-.51.195-.383.167-.792.435-.92.722l-.14.303zm-.413-7.343c.349-.532.892-.972 1.118-1.142-.073-.323-.265-.873-.483-1.44a53 53 0 0 0-.712-1.755 8 8 0 0 0-.102-.246 2 2 0 0 0-.088.113c-.09.133-.178.306-.256.484a7 7 0 0 0-.32.947l-.066.264-.231-.144c-.481-.306-1.13-.39-1.5-.411.155.415.322 1 .465 1.536.126.468.231.892.282 1.105a3.37 3.37 0 0 1 1.893.69Zm-.085.445s0-.002-.006-.007q-.007-.008-.025-.02a1 1 0 0 0-.1-.085 3.4 3.4 0 0 0-.39-.256 2.9 2.9 0 0 0-1.388-.37l-.05.003-.16.001-.04-.158-.088-.37a40 40 0 0 0-.225-.874c-.177-.666-.403-1.43-.561-1.756l-.13-.27.298-.013.095-.001c.263.001 1.02.025 1.696.351.092-.309.27-.845.519-1.242.126-.196.264-.367.47-.453l.18-.073.075.178s.724 1.669 1.153 2.88c.142.407.253.754.294.999l.023.122-.103.07-.037.028c-.025.02-.06.043-.103.08-.09.067-.211.168-.345.29-.268.242-.574.571-.739.893l-.123.238z" fill="#1e8274"/><path fill-rule="evenodd" clip-rule="evenodd" d="M88.55 54.34a1.7 1.7 0 0 1 .177-.424c.11-.2.257-.405.399-.593a8 8 0 0 1 .474-.568 109 109 0 0 0-1.271-2.22c-.397.568-.462 1.306-.467 1.488l-.002.044v.299l-.274-.12a4 4 0 0 0-1.383-.29q.1.163.2.35a25 25 0 0 1 .824 1.765c.596.017 1.038.145 1.322.268Zm.137.518q-.02-.016-.068-.046a3 3 0 0 0-.296-.139 3.4 3.4 0 0 0-1.23-.209h-.13l-.051-.121s-.11-.27-.275-.636a19 19 0 0 0-.584-1.213 4 4 0 0 0-.373-.599l-.233-.283.364-.04c.007 0 .112-.01.287-.01.305 0 .821.033 1.387.225.011-.118.035-.264.072-.427.091-.397.272-.899.655-1.309l.18-.192.134.228s1.013 1.73 1.487 2.603l.068.125-.099.105-.098.109c-.063.07-.149.166-.244.284a6 6 0 0 0-.567.794c-.099.172-.152.334-.15.401q.001.032.007.036l.017.012-.229.322z" fill="#1e8274"/><path fill-rule="evenodd" clip-rule="evenodd" d="M86.563 50.495c.028-.425.228-.823.418-1.128.113-.179.228-.328.306-.425l-1.375-1.841a1 1 0 0 0-.1.162 2.7 2.7 0 0 0-.198.493 6 6 0 0 0-.194.842l-.008.055-.031.232-.225-.067c-.32-.1-.763-.13-1.087-.13.249.284.498.632.71.95.21.311.382.59.47.736q.162-.009.31-.009c.442 0 .783.066 1.004.13m.123.463-.014-.005c-.01-.004-.026-.014-.05-.021a2 2 0 0 0-.214-.07 3.5 3.5 0 0 0-.85-.102c-.123 0-.256.004-.397.02l-.127.011-.063-.11s-.055-.093-.148-.244c-.093-.15-.222-.356-.371-.578-.298-.445-.68-.96-.971-1.204l-.368-.309.48-.037c.003 0 .186-.016.445-.016.286 0 .666.018 1.019.09.052-.286.165-.808.365-1.226.101-.205.222-.393.396-.52l.156-.112 1.823 2.44-.112.121-.03.031-.084.1a5 5 0 0 0-.257.361c-.185.296-.364.68-.361 1.01a1 1 0 0 0 .015.159l.07.387z" fill="#1e8274"/><path fill-rule="evenodd" clip-rule="evenodd" d="M84.4 47.388c.005-.356.122-.741.234-1.049.07-.19.14-.348.184-.446a1 1 0 0 0-.088-.103 7 7 0 0 0-.333-.331 26 26 0 0 0-.766-.69l-.028-.024a2.2 2.2 0 0 0-.057.521 5 5 0 0 0 .057.708l.041.232h-.234c-.432 0-.945.1-1.272.176.33.343.728.791.905.994.173-.058.36-.072.548-.075.3.003.6.045.808.087Zm.172.442-.086-.02a6 6 0 0 0-.228-.045 4 4 0 0 0-.667-.068c-.21-.002-.404.031-.507.092l-.139.075-.104-.12s-.205-.234-.46-.515a16 16 0 0 0-.763-.807l-.251-.233.33-.1c.008 0 .761-.227 1.487-.273a6 6 0 0 1-.031-.55c.003-.334.03-.693.224-.962l.124-.164.16.134c.002 0 .276.235.594.518.32.284.673.613.855.832.052.068.091.115.123.202l.02.075-.034.07s-.005.014-.017.036q-.02.038-.049.106c-.04.09-.094.216-.148.364-.109.29-.212.657-.21.931q0 .107.019.185l.077.322-.32-.085Z" fill="#1e8274"/><path fill-rule="evenodd" clip-rule="evenodd" d="M79.816 44.264c.16.124.343.275.516.42.233.19.447.373.565.473.454-.18 1.018-.21 1.346-.214a3 3 0 0 1-.028-.421c0-.406.059-.827.09-1.028l-.804-.624-.386-.296c0 .309.09.773.138.978l.025.11.06.243h-.254c-.165 0-.46.058-.741.134a13 13 0 0 0-.589.175c.021.019.041.032.062.05m.917 1.275s-.173-.148-.406-.344c-.23-.195-.522-.437-.755-.62a4 4 0 0 0-.343-.252l-.363-.213.395-.146c.003 0 .308-.11.686-.223.291-.087.618-.174.895-.214a5.4 5.4 0 0 1-.122-.955c.004-.171.008-.319.105-.464l.121-.166.162.124s1.186.915 1.533 1.19l.095.071-.023.12-.014.093a6 6 0 0 0-.087.982c-.003.222.024.432.068.55l.108.282-.304-.016h-.043q-.041-.003-.115-.002c-.31-.002-.995.035-1.375.232l-.119.055z" fill="#1e8274"/><path fill-rule="evenodd" clip-rule="evenodd" d="M78.35 43.186c.1-.071.219-.124.347-.178a4.4 4.4 0 0 1 .597-.176c.199-.046.386-.08.524-.105a8 8 0 0 1-.09-.64c-.022-.214-.037-.419-.046-.534l-1.651-.936c.019.119.045.259.077.396a13 13 0 0 0 .222.83l.073.241-.248.015c-.09.003-.303.07-.509.154a6 6 0 0 0-.399.175zm-1.879-.815.296-.149c.002-.002.518-.27.952-.42q.09-.03.172-.054a9 9 0 0 1-.106-.393c-.083-.33-.17-.709-.172-.978a.6.6 0 0 1 .016-.15l.055-.262 2.288 1.297.092.051.007.108s.01.166.029.39c.018.222.048.503.083.718.021.135.056.257.066.273l.125.25-.28.036-.122.017c-.08.011-.193.031-.318.053a5.4 5.4 0 0 0-.815.22c-.162.06-.287.14-.325.188l-.115.134z" fill="#1e8274"/><path fill-rule="evenodd" clip-rule="evenodd" d="M75.816 41.563c.077-.053.166-.089.264-.13.158-.057.337-.108.51-.147q.144-.033.274-.059-.04-.067-.07-.139a3 3 0 0 1-.168-.643 6 6 0 0 1-.064-.708l-1.084-.437q.032.132.083.276c.078.242.178.485.24.643.044.104.074.169.074.169l.112.252-.276.025c-.19.017-.442.117-.654.228q-.12.065-.221.128zm-1.723-.502.246-.181c.003-.004.184-.138.435-.281.187-.104.408-.215.642-.278a8 8 0 0 1-.308-.876 1.8 1.8 0 0 1-.082-.462v-.291l1.93.777v.131l.002.111c.001.067.006.168.015.28.017.228.053.519.122.757.042.155.105.29.162.358.033.04.061.057.084.065l-.036.384s-.037.004-.1.014c-.062.01-.15.025-.25.044-.202.04-.456.095-.659.162a1 1 0 0 0-.282.132l-.012.012-.105.142zM34.131 44.5c-.599-1.01-1.658-1.305-2.347-1.226-.69.076-.938.443-1.043.688-.107.246-.446 1.135-.538 1.66-.092.52-.305 1.35-.369 1.703-.06.353.017.399.262.505.246.108.584-.2.63-.353.044-.152.215-2.087.276-2.21.06-.121.138-.966.889-1.012.754-.047 1.856.983 1.873 2.562.014 1.58-.43 2.21-.43 2.21-.322-1.227-.876-2.379-.905-2.456-.032-.077-.079-.597-.492-.597-.415 0-.89.537-.89.537-.091.047.016.168.186.23.246.09.965 1.059 1.196 1.442.23.385.537 1.015.462 1.304-.079.29.259.738.612.707.352-.031.568-1.152.568-1.411 0-.262.552-1.152.659-1.874.108-.721 0-1.396-.599-2.409m-2.47 4.357c.445.264.582.108.736-.03.156-.138-.047-.398-.259-.582-.216-.185-.385-.382-.646-.382-.26 0-.43.227-.43.227-.091.11.155.508.6.767Zm.703 1.623c-.35 0-.719-.182-1.22-.634-.504-.453-.854-.602-1.205-.618-.352-.018-.636.451-.636.451-.116-.017.084.451.636.97s1.02.804 1.722.836c.703.035.97-.217 1.156-.418.183-.202-.102-.587-.453-.587m14.499-12.498c-.198-.545-.462-.858-.99-1.519-.528-.657-1.631-2.14-2.225-3.066-.592-.922-1.254-1.878-1.254-2.06 0-.18-.278-.792-.856-.643 0 0-.28.215-.364.578-.082.36.1.542.364.66.263.114.725.987.905 1.252.182.266 1.386 2.178 1.98 2.852.592.676 2.126 2.77 2.209 2.967.082.199.428-.477.23-1.02ZM41.47 33.96c-.494-.71-.544-1.073-.891-1.073h-.444s-.314.1-.297.576c.015.48.279.827.775 1.517.495.696.971 1.484 1.45 1.502.479.016 1.007-.098.792-.512-.214-.41-.89-1.303-1.385-2.01m-.528 3.891c-.133-.15-.89-1.948-1.285-2.786-.396-.842-.478-.742-.956-.742s-.99.215-1.023.644c-.033.427.181.408.181.408s.38.12.643.332c.264.213.989 1.633 1.122 2.013.131.378.048.509.544.873.495.361.923.114 1.072-.132.147-.248-.165-.462-.298-.61m14-5.673s.371-1.212.865-1.916c0 0-.037.27.32.261 0 0 .027.048-.06.146-.086.1-.84 1.001-1.125 1.51Zm.63-3.463c-.086-.011-.063-.222.024-.233 0 0 .2-.125.31-.125s.198.11.11.173c-.086.063-.358.197-.443.185Zm-.025-1.296c.076-.051.223-.039.273.035 0 0 .062.112-.05.2-.112.085-.223.195-.321.085-.099-.114.024-.272.098-.32m.285-1.436c.16-.026.235.161.062.247s-.37.1-.37.1c-.075-.212.147-.323.308-.347m-.68 2.04c-.087.162-.421.348-.485.234-.062-.11.064-.148-.062-.11-.12.038-.196.099-.233-.124-.037-.222-.06-.79.113-.765 0 0 .084.147.32.308.235.16.434.296.347.457m1.841-1.854c-.023-.186-.197-.236-.457-.224s-.185-.099-.185-.099c.014-.284.52-.545.816-.493.297.048.444.493.444.953 0 .456-.53 1.26-.618 1.26-.085 0-.147-.135-.283-.198-.138-.064-.345-.05-.397-.075-.051-.023-.011-.148.052-.32.06-.174.196-.162.43-.334.236-.173.224-.286.198-.47m.892 6.147s.196-.114.296-.312.074-.408-.185-.383c-.261.026-.605.407-.605.407-.014.05-.348-.407-.609-.17-.258.233.174.865.238.913.06.05 0 .113-.1.25-.098.133-.482.626-.607.542-.123-.088.076-1.361.1-1.495.025-.136.086-.347.26-.435.173-.084.853-.433 1.113-.606.258-.172.346-.209.455-.482.113-.272-.197-.26-.59-.087-.397.173-1.707.918-1.707.918s1.05-1.164 1.149-1.311c.1-.152-.05-.286-.148-.286-.1 0-.163.062-.298.087-.134.026-.693.098-.693.098s.335-.53.618-.903c.286-.37.274-.407.2-.519-.073-.113-.42-.134-.42-.134l.013-.136c.148.022 1.222-.05 1.58-1.46.36-1.411.162-1.819-.407-2.08-.568-.259-1.087.053-1.087.053s0-.273-.062-.557c-.064-.285-.459-.336-.533-.311-.073.026-.011 1.064-.011 1.064-.062.012-.532.32-.532.32-.087-.418-.197-.59-.335-.679-.135-.086-.395-.036-.432.065-.039.098.222.788.21.839-.014.05-.445.283-.581.48-.138.2-.075.448.172.57.248.125.52-.11.52-.11-.038.024.075.345.075.345-.26-.087-.396.26-.457.26-.063 0-.037-.196-.161-.322-.126-.123-.495-.16-.704-.048-.212.11-.249 1.1-.224 1.57.023.47.569.68.704.667.138-.012.211-.345.211-.345s.11.221.222.333c.11.11.285-.011.383-.087.1-.073.149-.073.187-.073.036 0-.013.16-.013.16s-.432.283-.593.432c-.162.148-.173.235.024.409.197.172.507.088.68.088s.582-.51.582-.51-.397.557-1.015 2.055c-.618 1.496-.779 2.016-.779 2.31 0 .3.123.347.285.038.16-.31.85-1.446.85-1.446s-.02.125.115.136.655-.37.655-.37c-.15.381-.271 1.58-.271 1.867s.16.506.295.518c.137.013.272-.136.545-.47.27-.336.964-1 .964-1 .062.024.297.297.606.445.309.147.643-.075 1.237-.087.592-.014.963-.051.988-.074-.766-.076-2.373-.95-2.373-.95Zm14.912-4.281c-.197.037-.556 0-.816 0s-.297-.085-.198-.122c0 0 .668-.297 1.867-.288.013.015-.67.262-.853.41m-2.35 3.29c-.21.013-.495.062-.42-.038.074-.098.718-.26.718-.26.136.011-.089.286-.298.297Zm5.637-3.994c-.023-.333-.197-.447-.914-.471-.715-.024-2.163.199-2.249.199s.717-.433.989-.543c.272-.112.199-.1.334-.05.137.05.235-.05.335-.151.098-.098.134-.27.049-.347a2 2 0 0 1-.409-.53c-.11-.222-.284-.345-.545-.345-.258 0-.246.446-.308.618-.062.174-.284.384-.359.384-.074 0 .036-.199.1-.371.062-.173-.05-.383-.223-.555-.174-.175-.42-.41-.668-.347-.247.061-.26.37-.297.64-.037.274-.099.385-.223.434-.122.049-.431.223-.431.223s.011-.186.036-.26c.022-.075-.036-.297-.296-.297s-.42.236-.509.643c-.085.409.039.631.26.644.223.01.198-.134.41-.333.208-.201.42-.185.468-.201-.098.658.321.77.321.77-.58.295-2.127.64-2.472.64s-.384-.072-.384-.072-.147.136-.396.26c-.247.122-.258.569.273.569.533 0 1.385-.272 1.915-.435.534-.16.694-.134.583-.012-.11.126-.322.15-.42.383-.1.236.161.384.345.384.186 0-.258.196-.493.297-.236.1-.161.023-.41.11-.444.275-.407.508-.245.632.16.123.432.036.728-.062.297-.098.31-.012.31.062 0 .072-.148.11-.482.308-.334.199-.286.421-.186.434s.16.013.024.087c-1.619.729-1.434.853-1.36 1s1.126.014 1.126.014c-.15.198-.272.653-.272.653-.396.016-1.001.112-1.113.112s-.161-.357-.112-.406c-.555.284-.644.765-.357.853.282.087 1.148-.185 1.395-.26.248-.074.162-.037.075.099s-.11.407-.11.407c-.1.037-.372-.098-.372-.098s.1.148.297.31c.197.16.098.408.446.568.346.161.42-.211.48-.47.062-.26.199-.717.199-.717a.92.92 0 0 1 .594.196c.085.076-.21.248-.21.248s.048.026.444 0 .136.26.518.185c.385-.074.287-.493.076-.741s-1.21-.26-1.248-.26.098-.396.295-.655c.198-.26.409-.32.657-.333q.37-.015.37-.31c0-.2-.532-.099-.618-.136-.087-.037-.073-.148.149-.234s.31-.112.297-.323c-.014-.21-.384-.26-.483-.395-.099-.136.21-.148.58-.148.373 0 .655-.161.655-.333s-.184-.348-.493-.348-.718.197-1.027.197-.42-.021-.432-.035c-.012-.012 1.545-.705 1.718-.805.17-.097 0-.235.17-.306.177-.076 1.104-.522 1.265-.546.16-.028.52.012.904.012.383 0 .964 0 .936-.334m10.017 10.696c-.123-.31-.445-.31-.445-.31-.135.05-.37.259-.444.828-.075.57.075 1.67.197 2.178.125.508.408.519.667.493.26-.024.347.148.545.2.198.048.346-.569.372-1.077.023-.505-.557-1.336-.657-1.57-.098-.237-.11-.432-.235-.742m2.15-2.014c.422.06.807-.323 1.115-.545.309-.223.396-.58.309-.916-.086-.331-.345-.753-.792-.656-.444.1-.47.57-.728.952-.558.582-.992.767-1.238.792s-1.223-.567-1.223-.567c-.086-.026-.247.331-.407.825a.55.55 0 0 0 .271.695c-1.236 1.024-5.008.792-5.144.854.21.26 1.62.702 3.325.656 1.708-.052 2.066-.67 2.474-.78.408-.112.36-.037.792-.025s1.595.507 1.681.53c.086.026.123-.236.347-.407.222-.173.446-.297.446-.308 0-.494-1.349-1.077-1.227-1.1Zm5.085 9.359c.308-.013.582-.136.52-.174-.31-.37.223-.445.223-.445-.1-.098-.496-.186-.645-.172-.148.012-.668.222-.654.432.013.21.247.372.556.359m6.871-.4c-.148-.072-.256.074-.535.197-.281.126-.33.157-.48.108-.146-.05-.346-.28-.346-.28-.373-.005-.316.375-.266.486.049.113-.063.209-.31.15-.248-.063-.482-.137-.618-.026-.137.111-.087.422.01.482.1.061-.22.1-.42.185-.197.087-.245.236-.147.347.1.112.172.297.16.444-.012.15-.408.11-.878-.159-.47-.273-1.41-1.235-1.669-1.483-.26-.249-.396-.36-.581-.2-.186.162-.012.385.222.558.236.173 1.857 1.595 2.227 2.089s.011.43-.384.334a4 4 0 0 1-.975-.397c-.2-.112-.25-.605-.448-.801-.197-.2-.296-.075-.296.047 0 .123.086.31-.124.31a.9.9 0 0 0-.627.248c-.176.172-.324.458-.51.495-.185.036-.678-.842-.929-1.274-.246-.435-.442-.52-.64-.335s.048.632.259.89c.21.26.57.792.691 1.065-.085.296-.803.307-1.21.146-.408-.16-.408-.543-.372-.852s.284-.409.198-.544c-.087-.137-.583.161-.68.544-.099.382-.124 1.04.456 1.336.583.297 1.188.26 1.436.211.248-.052.472-.298.508-.298s.457.656.679.963c.222.31.53.336.668.125.134-.21-.632-1.52-.632-1.52.063 0 .457-.582.595-.632.135-.047.346-.073.58-.061.236.014.804.52 1.311.926.507.41.878.595 1.088.482.21-.11.26-.308.234-.652-.024-.349-.699-1.263-.699-1.263.429.206.832.107.94.033.107-.072.132-.297.132-.553s.197-.32.348-.32c.146 0 .534.46.665.509.133.05-.024-.56-.033-.708-.008-.148.107-.1.42-.09.315.007.447.023.568-.05.127-.075-.007-.197-.023-.297-.016-.098.14-.114.314-.148.172-.032.313-.058.354-.256s-.085-.437-.231-.511m-3.793.454c-.188.27.084.494.347.494s.453-.24.7-.37c.247-.131.439-.232.676-.314.242-.083.405-.205.43-.396.024-.189-.166-.495-.166-.495-.147-.099-.228.01-.387.18-.155.174-.468.308-.807.447-.338.14-.603.181-.793.454m-.089-.354c.155-.026.082-.247.115-.366.032-.113.363-.253.577-.268.215-.019.38-.045.536-.15a.44.44 0 0 0 .18-.264c-.098-.494-1.047-.32-1.59-.09-.544.232-.643.444-.553.782.09.339.577.377.735.356m-38.547-6.227v-.812q.556-.232 1.043-.605h.837v4.108h-.907V38.31a5 5 0 0 1-.973.535m3.782-.163q0 .698.58.697.487.002.534-.697-.047-.718-.534-.74-.58.022-.58.74m-.86 1.832h.906q.093.513.44.513.699.001.628-1.3a1.15 1.15 0 0 1-.812.253q-1.116-.09-1.23-1.25.07-1.278 1.462-1.394 1.485-.001 1.484 1.834.093 2.435-1.508 2.414-1.369 0-1.37-1.07m5.292-1.021q-.002-1.53-.533-1.552-.559.022-.533 1.552-.025 1.509.533 1.534.532-.025.532-1.534Zm.928 0q-.045 2.045-1.484 2.091-1.392-.046-1.417-2.091.025-2.11 1.417-2.157 1.439.047 1.484 2.157m2.437.743q-.023-.743-.556-.764-.511.046-.556.764.02.767.556.792.511-.026.556-.791Zm.811-1.81h-.88a.9.9 0 0 0-.114-.392.6.6 0 0 0-.35-.094c-.387.017-.58.424-.58 1.231q.255-.304.767-.302 1.18.092 1.275 1.277-.025.626-.347.996c-.31.28-.706.424-1.184.442q-1.462-.002-1.44-1.741-.07-2.53 1.625-2.506 1.207.069 1.228 1.089" fill="#1e8274"/><path fill-rule="evenodd" clip-rule="evenodd" d="M33.936 33.937c-7.695 7.695-12.451 18.32-12.451 30.062s4.756 22.37 12.45 30.065c7.697 7.696 18.32 12.452 30.064 12.452s22.369-4.756 30.065-12.453c7.695-7.695 12.453-18.32 12.453-30.064 0-11.742-4.758-22.367-12.453-30.063C86.368 26.24 75.743 21.484 64 21.484s-22.367 4.757-30.063 12.454ZM19.999 63.999C20.001 39.697 39.7 20 64 20c24.302 0 44.002 19.697 44.002 43.999C108.002 88.3 88.302 108 64 108c-24.3 0-43.998-19.7-44-44.001Z" fill="#1e8274"/><path fill-rule="evenodd" clip-rule="evenodd" d="m29.93 59.575-.03.24-1.493.18-.05-.32q.635-.216 1.014-.616.378-.404.44-.912.055-.435-.122-.743-.175-.307-.479-.345a.59.59 0 0 0-.495.172q-.216.21-.43.7l-.363.844q-.278.645-.635.929a1.1 1.1 0 0 1-.83.228q-.573-.073-.922-.625-.353-.555-.261-1.305a2 2 0 0 1 .225-.735c.11-.2.273-.4.478-.598l-.428-.206.028-.238 1.729-.108.02.326q-.719.162-1.16.61-.446.444-.51.995c-.04.305.014.581.158.836.143.25.333.394.567.423a.65.65 0 0 0 .555-.177q.22-.219.435-.73l.347-.811q.264-.634.616-.913a1.04 1.04 0 0 1 .803-.222q.504.061.816.571.313.506.225 1.207-.09.726-.554 1.157zm-.07.991-.085 1.801-.285-.013.006-.14q.011-.255-.09-.357-.104-.105-.486-.12l-3.043-.144q-.291-.013-.406.057-.116.073-.13.37l-.007.139-.283-.014.086-1.804.283.015-.007.145q-.012.257.074.354.087.1.418.114l3.114.145q.313.016.423-.054.113-.074.126-.365l.006-.145zm-.025 5.808.008.242-1.564.48-.099-.311q.693-.296 1.023-.698.333-.399.316-.99-.023-.728-.614-1.197-.59-.468-1.474-.44-.915.03-1.481.565-.57.534-.544 1.282c.006.3.104.604.283.912.183.309.43.573.749.802l-.173.276a2.8 2.8 0 0 1-.935-.935 2.43 2.43 0 0 1-.345-1.2 2.24 2.24 0 0 1 .648-1.703q.677-.703 1.708-.733.66-.02 1.24.282.585.303.93.848.346.542.367 1.176a2.1 2.1 0 0 1-.36 1.241l.317.1Zm.017.828.267 1.805-.284.04-.017-.121q-.043-.298-.143-.37-.096-.074-.42-.024l-1.306.191.36 2.423 1.268-.185q.33-.05.421-.13t.049-.347l-.027-.185.281-.042.266 1.784-.282.044-.025-.16q-.031-.23-.124-.31c-.057-.052-.194-.063-.402-.034l-3.188.473a1 1 0 0 0-.312.077q-.084.042-.095.161-.01.116.03.399l-.281.04-.263-1.785.28-.042.02.132q.035.225.076.311a.18.18 0 0 0 .143.095c.06.007.18-.002.35-.025l1.449-.215-.356-2.424-1.492.22q-.373.054-.402.154-.028.105.028.504l-.281.04-.266-1.807.282-.041.017.117q.04.283.118.365.08.084.376.038l3.223-.473q.287-.042.365-.134.076-.094.043-.327l-.03-.193z" fill="#1e8274"/><path fill-rule="evenodd" clip-rule="evenodd" d="m30.562 72.006.506 1.754-.272.078-.033-.112q-.084-.285-.205-.34c-.079-.04-.212-.03-.393.02L28.117 74q-.587.171-.81.41a1.14 1.14 0 0 0-.289.585 1.42 1.42 0 0 0 .394 1.287q.264.267.571.353.307.083.928-.096l1.96-.567q.267-.079.357-.198.094-.121.016-.388l-.036-.125.273-.08.441 1.522-.276.078-.03-.106q-.073-.262-.2-.324-.122-.067-.396.011l-2.093.606q-.854.25-1.467-.12-.612-.366-.842-1.155a2.07 2.07 0 0 1 .058-1.34q.252-.665 1.085-.906l2.227-.646q.28-.082.35-.186.07-.108-.003-.363l-.05-.167zm-.587 6.822.574 1.347 1.807-1.566-2.38.219Zm2.892-.58.218.51-3.286 2.996a1.2 1.2 0 0 0-.263.33.42.42 0 0 0 .012.336l.031.07-.262.111-.66-1.552.259-.113q.116.263.188.33c.047.046.108.053.173.024.065-.03.164-.102.3-.224l.714-.645-.672-1.577-1.078.066a.8.8 0 0 0-.24.043q-.109.043-.114.15-.004.102.107.364l-.262.112-.555-1.304.26-.11c.071.16.15.265.239.306q.132.065.486.042l4.405-.264Zm.697 2.285.721 1.262-2.01 3.628 2.345-1.34q.282-.164.33-.317.045-.156-.078-.372l-.058-.103.247-.141.787 1.373-.248.142-.045-.078q-.14-.248-.299-.276-.157-.034-.432.127l-3.369 1.929-.204-.355 2.408-4.374-2.933 1.683q-.301.172-.365.31-.064.144.144.504l-.247.142-.799-1.393.249-.142.04.073q.167.29.314.309c.1.012.25-.039.46-.16l2.602-1.49q.232-.131.31-.207a.2.2 0 0 0 .071-.179 1 1 0 0 0-.127-.303l-.062-.108zm2.478 8.577L37 90.217l1.238-2.049-2.196.944Zm2.572-1.443.363.418-2.2 3.865a1.1 1.1 0 0 0-.146.393c-.015.11.025.215.111.317l.05.053-.213.193-1.108-1.274.216-.19q.185.216.277.256c.06.026.118.02.174-.03q.079-.071.213-.307l.483-.832-1.127-1.293-1.006.396a.8.8 0 0 0-.216.113q-.087.078-.062.177.03.101.216.316l-.216.19-.929-1.071.215-.188q.173.198.319.22.147.018.476-.11zm4.122 4.377.187.166-.665 1.353-.298-.122q.212-.68.129-1.17a1.43 1.43 0 0 0-.494-.854q-.529-.457-1.292-.338-.764.12-1.322.758a2.46 2.46 0 0 0-.533.99 1.8 1.8 0 0 0 0 1.015 1.65 1.65 0 0 0 .939 1.049 1.3 1.3 0 0 0 .47.106.8.8 0 0 0 .367-.063c.09-.046.195-.14.313-.273l.15-.172q.246-.286.219-.442-.029-.158-.38-.465l.188-.214 1.444 1.262-.187.213-.115-.102q-.204-.177-.32-.155-.12.026-.309.242l-1.078 1.235-.25-.22.139-.43c-.588-.07-1.078-.275-1.476-.624q-.757-.663-.818-1.62-.057-.96.65-1.768c.451-.519 1.004-.803 1.663-.86q.984-.084 1.713.55.538.471.67 1.112zm2.128 1.999-.941 1.509.824.514q.58.361.953.349.375-.01.638-.431.234-.376.124-.697-.107-.313-.562-.597zm-.853-.965 2.072 1.293q1.521.946.888 1.96-.315.508-.848.57-.533.057-1.235-.362l.252 1.957q.04.313.123.482a.7.7 0 0 0 .272.287l.072.043-.152.243-.914-.568-.277-2.833-.514-.322-.771 1.239q-.173.276-.161.393.012.118.278.283l.104.069-.15.24-1.543-.963.152-.24.14.087q.225.141.345.107c.081-.017.195-.148.343-.384l1.642-2.631q.133-.214.118-.344-.016-.132-.224-.262l-.165-.104zm3.832 2.307 1.62.8-.129.252-.124-.06q-.229-.113-.364-.06-.135.055-.305.396l-1.346 2.734q-.13.261-.11.394.017.134.286.266l.124.06-.126.257-1.618-.8.125-.255.132.066c.154.075.27.102.355.072q.122-.039.27-.337l1.379-2.797q.14-.279.115-.412-.018-.125-.28-.258l-.132-.064zm5.603 2.355.228.084-.136 1.63-.325-.025q-.02-.753-.268-1.208-.247-.456-.802-.66-.685-.25-1.339.125-.655.375-.955 1.206-.315.858-.03 1.585.286.724.99.98.424.156.954.077a2.6 2.6 0 0 0 1.02-.399l.192.264a2.8 2.8 0 0 1-1.213.521 2.5 2.5 0 0 1-1.243-.124 2.27 2.27 0 0 1-1.341-1.237q-.397-.89-.045-1.857.225-.618.721-1.046a2.4 2.4 0 0 1 1.132-.55q.633-.117 1.229.097.626.23 1.02.793l.21-.257Zm.66.249 1.783.402-.063.277-.117-.023q-.289-.067-.396.013c-.072.051-.128.173-.17.357l-.47 2.078q-.134.597-.032.906c.065.208.19.39.372.537q.275.225.598.301.353.077.718-.026.365-.099.587-.328.222-.228.365-.858l.449-1.99q.06-.27 0-.41-.061-.14-.333-.2l-.128-.028.062-.278 1.545.35-.062.273-.11-.023q-.264-.056-.38.016-.118.08-.18.357l-.481 2.129q-.194.864-.814 1.225-.617.357-1.415.177a2.06 2.06 0 0 1-1.146-.697q-.465-.544-.271-1.389l.51-2.263q.064-.281.005-.396-.06-.112-.318-.171l-.169-.037zm4.992 1.074 1.82.209-.033.283-.164-.019a.65.65 0 0 0-.34.027q-.108.056-.14.322l-.378 3.278q-.031.276.013.331.047.061.323.092l.247.03q.629.069 1.022-.168.396-.24.76-.858l.286.138-.694 1.407-3.264-.374.034-.283.144.014q.27.033.368-.036.1-.071.134-.367l.366-3.194q.035-.286-.026-.393-.062-.105-.365-.14l-.145-.018zm3.962.267.233.008.032.161 2.711.086.035-.158.25.007.448 1.405-.31.102c-.126-.369-.272-.629-.436-.791q-.247-.24-.732-.255-.208-.007-.258.036-.051.044-.056.257l-.106 3.28c-.008.238.031.39.122.446q.13.089.466.099l-.012.284-1.824-.058.009-.286q.278.011.401-.024c.082-.022.135-.068.159-.128q.039-.1.046-.326l.108-3.351q.004-.171-.031-.214-.037-.047-.204-.053c-.374-.013-.643.062-.806.215q-.243.232-.475.752l-.3-.122zm3.723.298 1.795-.336.052.278-.116.025q-.292.053-.36.166c-.045.079-.05.207-.013.396l.392 2.094q.114.6.328.848.215.246.556.344c.227.066.446.081.667.04a1.5 1.5 0 0 0 .65-.309q.292-.237.408-.535.112-.297-.006-.929l-.377-2.008q-.049-.273-.161-.376-.11-.102-.384-.054l-.13.026-.052-.278 1.556-.294.052.282-.108.022q-.265.044-.344.164-.077.115-.028.396l.405 2.141q.164.88-.262 1.448-.425.577-1.233.727-.687.13-1.326-.185-.64-.315-.797-1.168l-.427-2.279q-.058-.287-.154-.366-.1-.08-.36-.031l-.17.03zm6.297-1.038.567 1.685.921-.313q.645-.214.874-.515.23-.295.071-.762-.14-.42-.454-.54-.317-.115-.822.057zm-1.29.046 2.315-.78q1.697-.573 2.08.558.19.565-.1 1.016-.29.449-1.065.725l1.674 1.048q.269.165.452.21.184.046.394-.029l.078-.025.092.27-1.02.345-2.366-1.584-.573.193.466 1.384q.105.308.204.375.1.063.394-.036l.12-.041.09.269-1.722.584-.092-.27.158-.053q.248-.086.305-.196.053-.117-.082-.512l-.993-2.94q-.08-.235-.191-.307-.112-.073-.342.005l-.185.06z" fill="#1e8274"/><path fill-rule="evenodd" clip-rule="evenodd" d="m78.198 99.095 1.328-.616-1.627-1.753.3 2.369Zm-.678-2.869.503-.236 3.106 3.182q.188.19.339.253a.4.4 0 0 0 .334-.022l.07-.031.121.257-1.531.713-.12-.26q.258-.12.323-.195.064-.075.016-.176-.043-.097-.233-.288l-.67-.694-1.552.725.101 1.076q.016.162.051.239.049.104.156.108.102-.001.36-.118l.121.257-1.284.595-.121-.256q.24-.112.299-.247.061-.135.026-.487zm2.338-.843 1.576-.94.144.245-.141.088a.66.66 0 0 0-.255.224q-.053.112.084.343l1.687 2.835q.142.24.212.258.073.022.312-.128l.215-.124q.541-.326.712-.751.168-.43.082-1.145l.31-.062.303 1.54-2.822 1.679-.145-.245.125-.073q.235-.139.267-.252.039-.118-.114-.372l-1.646-2.764q-.147-.253-.26-.295-.112-.048-.375.108l-.125.075zm5.772-3.743 1.344-1.239.193.207-.087.083q-.22.203-.215.334.005.133.197.343l1.446 1.568c.276.297.518.48.726.541q.314.093.656-.001a1.5 1.5 0 0 0 .585-.323 1.5 1.5 0 0 0 .387-.605 1.3 1.3 0 0 0 .061-.669q-.06-.314-.498-.787l-1.384-1.499q-.188-.21-.337-.234-.15-.032-.355.16l-.097.088-.192-.209 1.164-1.072.193.209-.082.076q-.198.18-.203.323 0 .139.192.349l1.477 1.603q.604.652.547 1.366c-.036.475-.258.899-.657 1.267q-.517.475-1.223.548-.71.072-1.297-.565l-1.573-1.706q-.198-.215-.324-.227-.13-.016-.32.161l-.13.12-.193-.21Z" fill="#1e8274"/><path fill-rule="evenodd" clip-rule="evenodd" d="m89.157 88.38.922-1.12 4.107.586-2.09-1.714c-.167-.14-.305-.202-.413-.195q-.162.01-.32.205l-.074.09-.22-.18 1.003-1.224.22.179-.056.072q-.182.219-.154.376c.02.105.11.228.274.36l3.003 2.462-.261.316-4.942-.694 2.615 2.142q.268.223.422.23t.417-.312l.221.181-1.018 1.24-.219-.18.054-.065q.209-.255.176-.402c-.023-.098-.127-.219-.314-.375l-2.319-1.903a2 2 0 0 0-.303-.216.2.2 0 0 0-.192 0 1 1 0 0 0-.24.227l-.078.096-.22-.181Zm2.883-3.63.998-1.506.236.158-.075.115c-.095.142-.13.263-.106.355q.035.14.352.35l2.544 1.684q.24.164.377.16.135-.003.3-.252l.076-.115.237.158-.997 1.503-.238-.156.082-.122q.141-.215.119-.342-.025-.128-.303-.313l-2.598-1.721q-.262-.172-.392-.169-.132.006-.294.247l-.081.122-.237-.157Zm1.164-1.624.792-1.54.252.132-.063.124q-.096.184-.093.272 0 .087.087.131a.8.8 0 0 0 .272.069l3.555.42-2.4-2.66a.7.7 0 0 0-.2-.18.15.15 0 0 0-.168.002.6.6 0 0 0-.163.219l-.07.135-.253-.13.67-1.303.255.128q-.118.23-.088.37.03.141.221.356l2.886 3.3-.22.427-4.35-.455q-.293-.024-.422.029c-.087.038-.17.13-.247.284z" fill="#1e8274"/><path fill-rule="evenodd" clip-rule="evenodd" d="m95.399 78.834 1.168-3.666 1.32-.045.016.32c-.378.012-.673.102-.879.261q-.312.245-.547.981l-.347 1.09 1.654.53.173-.544q.12-.377 0-.6-.123-.228-.525-.354l-.075-.024.1-.31 1.978.628-.1.312-.171-.055q-.352-.111-.556-.015-.207.101-.34.518l-.173.542 1.467.468q.26.08.333.043.074-.036.153-.284l.215-.674q.228-.713.09-1.212-.135-.499-.685-.968l.201-.262 1.247.953-1.21 3.802-.274-.085.041-.125q.09-.286.02-.396t-.323-.19l-3.102-.99a.8.8 0 0 0-.274-.052q-.09.01-.163.113a1.5 1.5 0 0 0-.16.375zm1.918-5.368 1.745.33.182-.956q.125-.67-.021-1.014-.149-.346-.634-.437c-.289-.055-.522-.01-.69.135q-.258.216-.356.743l-.227 1.2Zm-.59 1.146.452-2.401c.217-1.173.721-1.688 1.503-1.54q.589.112.836.583.25.477.113 1.283l1.734-.944c.182-.103.319-.2.403-.294a.7.7 0 0 0 .17-.355l.013-.083.283.053-.2 1.057-2.54 1.29-.11.594 1.433.27q.32.058.427.007.107-.055.163-.363l.023-.122.279.051-.334 1.789-.281-.054.03-.163q.05-.26-.021-.36-.075-.105-.485-.178l-3.05-.576q-.245-.044-.363.018-.116.064-.163.3l-.035.192zm1.083-7.619.02-.242 1.483-.238.064.322q-.629.239-.989.652a1.6 1.6 0 0 0-.406.927q-.038.44.148.738.185.3.492.328a.58.58 0 0 0 .487-.193q.21-.216.406-.711l.33-.858q.249-.656.6-.953.35-.3.819-.258.576.049.948.59t.308 1.295q-.039.435-.196.744a2.8 2.8 0 0 1-.456.614l.434.19-.017.235-1.724.173-.034-.323q.711-.19 1.137-.65.428-.463.474-1.017a1.3 1.3 0 0 0-.19-.828q-.228-.37-.583-.401a.63.63 0 0 0-.545.199q-.215.225-.413.743l-.314.823q-.243.644-.582.934t-.796.254q-.504-.044-.833-.542c-.223-.327-.31-.727-.272-1.2q.062-.727.513-1.174l-.313-.172Zm.05-1.395.013-1.804h.285l-.002.14q-.001.256.107.355.105.099.488.101l3.047.022q.293-.001.404-.073.111-.079.115-.375l.001-.14.282.001-.011 1.804h-.285l.001-.145q.003-.26-.087-.351-.089-.096-.424-.097l-3.118-.023q-.311 0-.42.076-.106.074-.111.365v.148zm-.138-2.398-.015-.233.158-.049-.174-2.707-.161-.017-.016-.25 1.354-.582.13.3q-.528.24-.743.508-.215.27-.184.755.013.208.061.252t.263.034l3.271-.212q.36-.025.434-.163.075-.139.052-.473l.287-.02.116 1.824-.285.02a1.6 1.6 0 0 0-.062-.397q-.047-.12-.147-.148a1 1 0 0 0-.329-.013l-3.344.214q-.167.011-.21.05t-.031.21q.035.56.288.78c.171.15.437.281.797.402l-.093.313zm-.056-3.606-.29-1.749.28-.046.033.193q.046.28.176.258.089-.012.257-.148l1.535-1.184-1.914-.715q-.173-.065-.242-.051-.065.008-.08.078a.7.7 0 0 0 .013.233l.029.172-.282.047-.237-1.436.283-.05q.034.242.103.336.063.093.335.206l2.314.916 1.179-.196q.354-.06.396-.195.042-.131-.018-.48l.282-.049.304 1.823-.282.046-.024-.144q-.049-.285-.152-.35-.107-.065-.401-.014l-1.056.175-1.987 1.596q-.271.231-.287.342-.016.11.014.339z" fill="#1e8274"/></svg>