<svg width="128" height="137" fill="none" xmlns="http://www.w3.org/2000/svg"><g filter="url(#a)" fill="#b62537"><path d="M64 20c-24.262 0-44 19.738-44 44s19.738 44 44 44 44-19.738 44-44-19.738-44-44-44m42.924 44c0 23.668-19.256 42.924-42.924 42.924S21.075 87.668 21.075 64 40.332 21.075 64 21.075 106.924 40.332 106.924 64"/><path d="M64 21.641c-23.357 0-42.36 19.002-42.36 42.359S40.643 106.359 64 106.359 106.359 87.357 106.359 64 87.357 21.641 64 21.641M105.957 64c0 23.135-18.822 41.957-41.957 41.957S22.045 87.135 22.045 64 40.865 22.045 64 22.045 105.957 40.865 105.957 64"/><path fill-rule="evenodd" clip-rule="evenodd" d="M50.624 26.18c-.06 1.582 1.407.751 2.342.679.329-.025 3.283-1.179 2.869.035-.258.755-1.227.506-1.825.574-.718.084-1.526.343-2.182.644-.64.294-.163.706.35.577a4.5 4.5 0 0 1 1.405-.135c1.163.068 2.39.407 3.35 1.086.488.346 1.88 1.724 1.002 2.142-.53.252-1.26-.487-1.638-.817-.611-.534-1.016-1.004-1.82-1.258-1.448-.456-2.927-.173-4.075.821-1.047.907-1.816 1.937-2.06 3.307-.101.566-.345 2.598-1.279 1.924-1.03-.745.438-3.162.71-3.591.133-.216.391-.5.667-.8.179-.195.581-.667.888-1.017.166-.191.713-.711.932-.883.323-.255.458-.71-.144-.683-.567.024-.818.363-1.511.653-.692.293-2.469 1.929-2.807.96-.418-1.2 2.24-1.683 2.96-1.97.166-.066.393-.144.569-.21a1.3 1.3 0 0 0 .352-.21c.147-.196.253-.48.196-.621-.146-.357-.41-.797-.41-1.168.291-.265.85-.284 1.159-.04Zm-2.346 48.573-3.11-1.663-1.033 1.8c.745.508 1.105 1.278 1.206 2.167l5.546 2.97 1.698-2.967-2.777-1.486 8.586-15.987c.04-.064.023-.13-.058-.176l-1.312-.701c-.091-.042-.15-.02-.187.048z"/><path fill-rule="evenodd" clip-rule="evenodd" d="M53.408 76h22.555a.84.84 0 0 1 .834.839v5.186a.84.84 0 0 1-.834.839H53.408a.84.84 0 0 1-.836-.839V76.84a.84.84 0 0 1 .836-.84m.277.73h21.923c.251 0 .455.204.455.457v4.49a.456.456 0 0 1-.455.457H53.792a.46.46 0 0 1-.455-.457v-4.6c0-.19.157-.346.346-.346zm-1.788-26.408v1.674h7.66v-1.674zm0 2.546v1.673h7.66v-1.673zm0 2.546v1.673h7.66v-1.673zm29.45 11.166h.478c.133 0 .24.088.24.192v.55a.8.8 0 0 0 .409-.69v-2.285a.79.79 0 0 0-.41-.69v.448c0 .104-.107.194-.24.194h-.477c-.132 0-.241-.088-.241-.194v-.449a.79.79 0 0 0-.407.69v2.287c0 .296.164.553.407.69v-.551c0-.105.107-.193.241-.193Zm-31.042-6.59c-.27-.005-.526.016-.665.233-.414.656-.32 2.462-.32 3.184h-1.971l-.491-.482v-3.289c.477-.77 1.676-1.342 3.889-1.34l4.788.006c.15 0 .207.128.162.209L53.07 63.4l-2.766.006v-3.419zm6.83 4.294h6.99a.43.43 0 0 1 .43.428v.437a.43.43 0 0 1-.43.428H56.61c.397.32.815.974 1.02 1.375h.578s1.088.644.961 1.483c-.128.836-.386 1.028-1.154 1.672-.768.645-2.18 2.063-2.755 2.837-.578.772-.578 1.932.063 1.932h9.23v.001h9.293q.134-.001.231-.065c.399-.254.33-1.205-.167-1.868-.577-.773-1.986-2.192-2.756-2.837-.77-.644-1.024-.836-1.154-1.672-.05-.34.096-.646.29-.892l.014-.018.003-.002.011-.015.002-.004.012-.013.001-.003.015-.015v-.003q.009-.007.015-.016h.002q.006-.009.016-.018v-.001q.007-.01.016-.018l.022-.02c.001-.005.007-.009.01-.014.259-.266.532-.428.536-.43h.575c.314-.734.837-1.33 1.35-1.779a7 7 0 0 1 1.47-.994h1.668c1.389-1.596 3.202-2.147 5.081-2.466v.98a1.294 1.294 0 0 0-1.171 1.281v3.053c0 .671.517 1.224 1.171 1.284v1.704a1.29 1.29 0 0 0-1.171 1.282v2.99c0 .71.577 1.288 1.286 1.288h.73c.706 0 1.287-.579 1.287-1.288v-2.99a1.29 1.29 0 0 0-1.171-1.282v-1.704a1.293 1.293 0 0 0 1.171-1.284v-3.053c0-.667-.518-1.222-1.171-1.282v-1.125c.23-.032.458-.087.69-.117 2.407-.4 2.397-1.298 2.397-1.223v-1.91h-26.44l1.092.57c.09.039.149.144.078.259l-2.749 5.135-.001.002Zm24.931 6.695v.417c0 .106-.108.194-.24.194h-.479c-.132 0-.241-.088-.241-.194v-.417a.79.79 0 0 0-.407.69v2.223c0 .434.356.789.787.789h.2a.79.79 0 0 0 .788-.789V71.67a.79.79 0 0 0-.408-.69Zm-24.033 1.234h12.993c.236 0 .431.195.431.43v.436c0 .236-.195.43-.43.43H58.032a.43.43 0 0 1-.43-.43v-.436c0-.235.193-.43.43-.43Zm2.283-2.806h8.428c.236 0 .43.197.43.431v.437c0 .236-.194.43-.43.43h-8.428a.434.434 0 0 1-.431-.43v-.437c0-.234.193-.43.43-.43Zm.322-2.642h7.784c.235 0 .43.195.43.43v.436a.43.43 0 0 1-.43.428h-7.784a.43.43 0 0 1-.429-.428v-.436a.43.43 0 0 1 .428-.43Zm6.761-2.481h3.492a.43.43 0 0 1 .429.428v.437a.43.43 0 0 1-.429.428H67.4a.435.435 0 0 1-.428-.428v-.437a.43.43 0 0 1 .428-.428Zm-7.224-13.962v1.674h1.32v-1.674z"/><path fill-rule="evenodd" clip-rule="evenodd" d="M52.896 48.797c2.343-.128 4.876-.915 7.084-2.035l.688 1.521c-2.431 1.169-5.168 1.95-7.372 2.06zm9.556-1.393-.692-1.495-1.199.578.688 1.501zm-2.277 5.464v1.673h1.32v-1.673zm0 2.546v1.673h1.32v-1.673zm9.339-7.543 2.422-1.337 5.095 9.247-2.421 1.334zm1.541 1.28 1.087-.608.295.513-1.089.607zm.62 1.114 1.09-.607.294.511-1.091.606z"/><path fill-rule="evenodd" clip-rule="evenodd" d="M66.661 45.333h2.913v11.773H66.66V45.333Zm-4.213-1.086h3.259v12.86h-3.26v-12.86Zm1.005 1.661H64.7v.581h-1.247v-.58Zm0 1.277H64.7v.581h-1.247zm0 1.275H64.7v.581h-1.247v-.58Zm0 1.276H64.7v.58h-1.247zm4.04-2.551h1.249v.581h-1.249zm0 1.275h1.249v.581h-1.249v-.58Zm0 1.276h1.249v.58h-1.249z"/><path fill-rule="evenodd" clip-rule="evenodd" d="M63.992 89.03c-13.79 0-25.017-11.235-25.017-25.015 0-13.795 11.227-25.03 25.017-25.03s25.033 11.235 25.033 25.03c0 13.78-11.244 25.015-25.033 25.015m30.483-25.837-2.39-.31a.3.3 0 0 1-.218-.124c-.016-.39-.031-.776-.061-1.149q.045-.117.185-.139l2.33-.622c.031-.015.076-.03.076-.124-.03-.202-.045-.434-.091-.697v-.032c-.033-.25-.063-.481-.094-.683-.015-.093-.062-.093-.11-.093h-2.407c-.091 0-.17-.031-.217-.093-.078-.372-.155-.744-.233-1.133a.25.25 0 0 1 .17-.154l2.237-.932c.032-.015.078-.031.047-.124-.046-.202-.093-.419-.17-.667v-.031a9 9 0 0 1-.188-.682c-.03-.078-.076-.078-.124-.078l-2.39.326a.26.26 0 0 1-.234-.063 12 12 0 0 0-.373-1.086.35.35 0 0 1 .156-.202l2.097-1.195c.031-.016.062-.046.031-.124-.061-.202-.156-.419-.248-.652l-.017-.015V52.3c-.107-.25-.2-.451-.28-.652-.03-.078-.077-.063-.123-.063l-2.329.637a.25.25 0 0 1-.25-.046 19 19 0 0 0-.496-.993c0-.11.046-.172.125-.233l1.91-1.458c.03-.033.061-.063.03-.14-.108-.186-.217-.388-.34-.607 0 0 0-.015-.016-.015v-.015c-.14-.233-.25-.435-.357-.605-.047-.078-.094-.062-.14-.047l-2.222.932c-.094.046-.17.03-.263-.016a43 43 0 0 0-.607-.9c-.031-.11 0-.186.078-.264l1.708-1.706c.032-.032.063-.063.016-.14a15 15 0 0 1-.419-.559h-.015v-.016h-.015c-.156-.217-.296-.388-.42-.558-.063-.063-.109-.048-.14-.016l-2.082 1.194a.26.26 0 0 1-.278.017c-.233-.265-.467-.543-.715-.806a.27.27 0 0 1 .046-.265l1.476-1.908c.03-.032.047-.078-.016-.14a7 7 0 0 0-.481-.497V42.4h-.015v-.015h-.017a7 7 0 0 0-.495-.482c-.063-.063-.11-.031-.14-.016l-1.91 1.474a.27.27 0 0 1-.265.047c-.263-.233-.543-.482-.809-.699-.045-.109-.045-.185.018-.278l1.21-2.095c.016-.032.031-.078-.03-.124-.172-.14-.343-.28-.56-.436v-.015h-.016v-.015a12 12 0 0 1-.558-.42c-.077-.046-.109-.015-.14.017l-1.708 1.706c-.078.078-.155.11-.248.093a33 33 0 0 0-.917-.62.27.27 0 0 1-.015-.264l.932-2.22c.015-.046.031-.092-.048-.138-.17-.11-.372-.217-.604-.358h-.015s0-.015-.015-.015c-.219-.124-.422-.233-.607-.342-.078-.03-.11 0-.14.031l-1.459 1.91c-.063.093-.126.124-.233.124a18 18 0 0 0-.995-.496.24.24 0 0 1-.046-.249l.637-2.328c0-.032.015-.093-.063-.124-.202-.078-.404-.17-.652-.28h-.031c-.234-.108-.45-.186-.652-.263-.077-.032-.11.015-.124.046l-1.195 2.079c-.048.094-.11.14-.204.155a13 13 0 0 0-1.087-.372c-.061-.063-.078-.14-.061-.233l.326-2.389c0-.047 0-.093-.078-.109a14 14 0 0 0-.683-.185v-.017h-.03c-.25-.061-.468-.124-.67-.17-.093-.015-.108.015-.123.063l-.933 2.219c-.03.091-.076.139-.154.169a159 159 0 0 1-1.134-.232c-.061-.046-.094-.124-.094-.218V33.91c0-.031 0-.093-.093-.093a7 7 0 0 0-.683-.109h-.03c-.264-.03-.498-.061-.7-.076-.092-.017-.109.03-.109.061l-.635 2.327a.28.28 0 0 1-.14.202 27 27 0 0 0-1.15-.078.27.27 0 0 1-.109-.217l-.31-2.39c-.016-.03-.032-.077-.108-.077-.11-.015-.219-.015-.343-.015h-.758c-.124 0-.233 0-.341.015-.078 0-.094.046-.094.078l-.313 2.39c-.015.092-.047.17-.124.216-.389.017-.762.047-1.15.078a.3.3 0 0 1-.124-.202l-.62-2.327c-.017-.031-.032-.078-.11-.061-.217.015-.45.046-.698.076H60a7 7 0 0 0-.699.11c-.078 0-.093.06-.093.092v2.405c.015.094-.015.172-.079.218-.387.078-.76.154-1.132.232a.23.23 0 0 1-.17-.17l-.917-2.218c-.015-.048-.048-.078-.124-.063-.203.046-.435.109-.684.17h-.016c-.015 0-.015 0-.015.017a10 10 0 0 0-.669.185c-.092.017-.076.062-.076.11l.31 2.388c.016.094 0 .17-.062.233-.357.11-.73.233-1.087.372-.078-.015-.14-.061-.187-.155l-1.211-2.079c-.015-.031-.046-.078-.124-.046a14 14 0 0 0-.652.263h-.032c-.233.11-.45.202-.636.28-.077.031-.077.092-.062.124l.62 2.328a.28.28 0 0 1-.03.248c-.342.155-.683.325-1.009.497a.26.26 0 0 1-.233-.124l-1.445-1.91c-.03-.031-.06-.061-.139-.031-.172.109-.388.218-.605.342v.015h-.032c-.218.14-.419.248-.605.358-.063.046-.047.092-.032.139l.917 2.22c.046.092.046.185-.016.262-.295.202-.606.404-.9.621a.28.28 0 0 1-.264-.093l-1.693-1.706c-.031-.032-.078-.063-.14-.017q-.256.188-.56.42l-.015.015h-.016v.015c-.2.156-.387.296-.543.436-.076.046-.046.092-.031.124l1.211 2.095c.048.093.063.17.016.278-.28.217-.544.465-.807.699a.3.3 0 0 1-.28-.047l-1.91-1.474c-.03-.015-.077-.047-.14.016-.155.14-.311.295-.496.482l-.015.015s0 .015-.017.015c-.17.172-.34.34-.481.496-.063.063-.03.11-.015.14l1.474 1.91a.27.27 0 0 1 .047.264c-.232.263-.467.541-.699.806-.109.046-.187.046-.28-.017l-2.096-1.194c-.03-.032-.077-.047-.124.016-.14.17-.28.341-.435.558h-.015v.016q-.256.325-.42.558c-.062.078-.03.11 0 .14l1.709 1.707c.077.078.109.154.092.263-.216.295-.418.59-.62.9a.27.27 0 0 1-.264.017l-2.222-.932c-.03-.015-.076-.031-.124.047-.109.17-.232.372-.357.605h-.015v.03a7 7 0 0 0-.341.606c-.048.078-.017.108.015.14l1.925 1.459c.079.061.11.124.11.233-.172.325-.326.65-.498.993a.25.25 0 0 1-.248.046l-2.33-.637c-.03 0-.078-.015-.124.063-.078.2-.17.403-.265.652h-.015v.03c-.108.233-.185.45-.263.652-.031.078.015.108.046.124l2.08 1.195c.095.047.141.11.156.202-.139.358-.248.714-.372 1.086-.062.063-.14.078-.233.063l-2.392-.326c-.031 0-.093 0-.109.078a14 14 0 0 0-.185.682h-.015v.03c-.063.25-.126.466-.172.668-.015.093.031.11.063.124l2.219.932c.094.031.14.076.172.154-.078.389-.156.761-.217 1.133-.063.078-.14.093-.233.093h-2.407c-.032 0-.079 0-.094.093-.031.202-.078.434-.109.683v.032c-.031.263-.061.495-.078.697-.015.094.032.109.063.124l2.33.622a.27.27 0 0 1 .202.14c-.032.372-.063.759-.078 1.148-.048.077-.11.109-.218.124l-2.391.31c-.032 0-.078.016-.078.094-.015.217-.015.45-.015.697v.046c0 .248 0 .481.015.698 0 .078.046.095.078.095l2.39.31c.11.016.171.046.22.125.014.386.045.76.077 1.147a.27.27 0 0 1-.202.139l-2.33.62c-.031.017-.078.032-.063.125.017.202.047.435.078.683v.047c.031.248.061.481.11.683 0 .093.06.093.093.093h2.407c.092 0 .17.015.233.076.061.389.139.761.217 1.15a.25.25 0 0 1-.172.154l-2.22.932c-.046.016-.077.03-.062.124.046.186.109.419.172.667v.031h.015c.061.249.124.482.185.683.017.077.078.077.11.077l2.39-.326c.095-.015.172 0 .234.063.109.372.233.73.372 1.086a.22.22 0 0 1-.155.187l-2.08 1.21c-.032.015-.078.046-.047.124.078.202.155.418.263.652v.03c.11.25.202.45.28.652a.094.094 0 0 0 .124.048l2.33-.621a.24.24 0 0 1 .248.046c.156.326.326.667.498.993 0 .108-.031.17-.125.234l-1.91 1.458c-.032.031-.063.061-.032.139.11.187.219.387.343.606.015 0 .015.015.015.015v.016h.015c.125.232.248.434.357.604.032.063.078.063.124.047l2.222-.932a.27.27 0 0 1 .264.016c.202.311.404.606.62.9a.28.28 0 0 1-.092.265l-1.71 1.707c-.03.031-.06.061 0 .139.11.155.25.34.406.56h.015v.014h.015c.155.217.296.388.435.558.047.063.094.046.124.016L42.42 82c.093-.062.171-.062.28-.017.232.265.467.544.699.808a.27.27 0 0 1-.047.264l-1.474 1.907c-.015.033-.048.08.015.14.14.156.294.327.481.497 0 0 0 .015.017.015v.015h.014c.186.187.342.343.497.482.063.063.11.031.14.016l1.91-1.474a.27.27 0 0 1 .264-.047c.264.234.544.482.807.699.048.107.048.2-.015.28l-1.196 2.093c-.032.032-.045.078.015.14q.258.187.559.42v.016h.016v.014c.217.155.404.295.575.42.062.046.094.015.124-.015l1.709-1.708a.28.28 0 0 1 .263-.093c.295.217.59.419.9.62a.27.27 0 0 1 .017.264l-.932 2.22c-.016.046-.016.092.047.138.17.11.372.217.605.358h.015c0 .015.017.015.017.015.217.125.418.233.605.342.078.032.108 0 .14-.031l1.444-1.91c.063-.091.124-.124.233-.124.326.172.667.342.993.498a.24.24 0 0 1 .047.248l-.62 2.312c-.016.047-.016.093.06.124.187.078.39.17.637.28h.017c.015 0 .015 0 .015.015.233.093.45.186.652.247.078.033.109 0 .124-.045l1.211-2.064a.21.21 0 0 1 .187-.154c.358.14.714.262 1.087.371.062.061.078.14.062.233l-.326 2.375c0 .046 0 .091.078.108.201.061.435.124.683.2h.031c.249.078.48.126.667.172.093.032.11-.015.126-.046l.931-2.236a.25.25 0 0 1 .156-.154c.387.076.76.154 1.147.217.064.046.08.124.08.217v2.406c0 .045 0 .093.092.108a21 21 0 0 0 .684.093h.046c.248.047.481.062.683.094.093 0 .108-.048.124-.078l.621-2.329c.016-.092.063-.154.124-.185.374.031.761.046 1.15.061.076.063.11.124.124.219l.31 2.39c0 .03.016.076.094.092h1.442c.078-.016.093-.063.108-.093l.31-2.39c0-.094.047-.155.11-.218.387-.015.777-.03 1.148-.061.08.031.124.093.156.185l.622 2.329c0 .03.031.078.108.078.203-.032.435-.048.7-.094h.03c.264-.03.482-.062.7-.093.076-.015.076-.062.076-.108v-2.406c0-.093.032-.17.094-.217.372-.063.76-.14 1.133-.217.078.031.14.076.17.154l.917 2.236c.015.031.047.078.125.046.2-.046.418-.094.682-.172h.032c.249-.076.466-.139.669-.2.076-.017.076-.062.076-.108l-.326-2.375a.3.3 0 0 1 .063-.233c.372-.11.728-.232 1.087-.371.093.014.154.061.202.154l1.195 2.064c.031.045.063.078.14.045.186-.061.403-.154.652-.247v-.015h.015q.374-.164.652-.28c.078-.031.063-.077.063-.124l-.637-2.312c-.016-.093-.016-.172.047-.248.34-.156.668-.326 1.009-.498.093 0 .172.033.218.124l1.475 1.91c.015.031.063.063.124.031.185-.109.387-.217.622-.342v-.015h.015c.232-.14.434-.247.604-.358.08-.046.063-.092.048-.139l-.914-2.22c-.046-.092-.046-.186 0-.262.311-.202.62-.404.917-.621a.26.26 0 0 1 .248.093l1.708 1.708c.031.03.063.061.14.015q.255-.187.558-.42v-.014h.017s0-.016.015-.016c.202-.156.388-.295.544-.42.061-.062.046-.108.031-.14l-1.211-2.095c-.063-.078-.063-.17-.018-.278.281-.217.544-.465.81-.699a.3.3 0 0 1 .279.047l1.91 1.474c.03.015.062.047.125-.016.154-.14.325-.295.512-.482v-.015h.015V85.6c.186-.17.357-.34.497-.496.047-.062.03-.108 0-.14l-1.46-1.908a.25.25 0 0 1-.062-.264c.248-.264.48-.543.715-.808a.26.26 0 0 1 .278.017l2.082 1.194c.031.03.077.047.14-.016.124-.17.264-.341.434-.558v-.015h.016q.232-.327.42-.56c.046-.077.014-.108-.017-.138L86.959 80.2c-.078-.076-.093-.154-.078-.263.202-.295.404-.59.606-.9.093-.047.17-.063.263-.017l2.237.932c.032.015.078.015.124-.047.11-.17.219-.372.358-.604v-.016h.015v-.015c.124-.219.25-.42.342-.606.047-.078 0-.108-.031-.14l-1.91-1.459c-.08-.061-.124-.124-.124-.232.17-.326.34-.668.495-.994a.25.25 0 0 1 .25-.045l2.33.62c.046.016.092.016.124-.047.093-.202.185-.403.278-.652V75.7l.016-.017c.093-.232.187-.448.249-.65.031-.078 0-.11-.032-.126L90.375 73.7q-.117-.048-.14-.187c.125-.356.249-.714.358-1.086a.26.26 0 0 1 .232-.063l2.391.326c.048 0 .094 0 .124-.077.048-.201.11-.434.187-.683v-.03c.078-.25.124-.483.172-.668.03-.094-.016-.11-.048-.124l-2.236-.932a.25.25 0 0 1-.171-.154c.094-.389.155-.761.233-1.15.047-.061.125-.076.217-.076H94.1c.048 0 .094 0 .11-.093.03-.202.062-.435.094-.683v-.047c.046-.248.06-.481.092-.683 0-.093-.046-.108-.077-.124l-2.33-.621q-.138-.022-.186-.14c.03-.388.045-.76.062-1.146a.32.32 0 0 1 .218-.126l2.39-.31c.031 0 .078-.016.094-.094v-1.443c-.016-.076-.063-.092-.094-.092h.001Z"/><path fill-rule="evenodd" clip-rule="evenodd" d="M61.745 80.351c0 .11-.1.204-.222.204h-2.194c-.122 0-.22-.092-.22-.204v-.443c0-.112.098-.202.22-.202h2.194c.124 0 .222.09.222.202zm-2.601-1.88c0-.11.1-.201.222-.201h2.12c.124 0 .225.091.225.202v.43c0 .111-.1.203-.225.203h-2.12c-.123 0-.222-.092-.222-.202v-.431Zm3.321.924-.028-.012-.074-.027.071-.035.027-.012a.53.53 0 0 0 .287-.476v-.657c0-.277-.255-.52-.544-.52h-3.598a.52.52 0 0 0-.517.52v.657c0 .203.112.39.285.476l.028.014.07.033-.073.028-.029.011a.52.52 0 0 0-.327.493v.762c0 .286.216.52.48.52h3.791c.265 0 .481-.234.481-.52v-.763a.52.52 0 0 0-.33-.492m-5.827 1.772h-1.113v-2.648c-.003-.102-.086-.106-.126-.107-.056 0-.118.013-.178.025l-.828.194v-.635l.874-.221q.058-.014.116-.032c.15-.04.306-.083.45-.084h.667q.137.002.138.144zM31.352 45.684c-.274-.301.28-1.171.558-.628.04.364-.308.717-.558.628m5.796-4.081c-.484.015-2.154.26-2.51.453-.851.46-1.188.907-1.715 1.7-.214.322-.447.762-.815.43-.275-.244-.54.13-.857.035-.344-.101-.33-.407-.464-.667-.192-.373-.638.034-.89.077-.201-.137-.067-.706-.267-.845-.654-.008-.8.398-.652.933.159.563-.368.89-.33 1.426.18.174.45.118.639 0 .248.11.34.393.418.625.133.39.303.18.612.168 1.564-.068.474 1.865.267 2.62-.112.408-.265.996-.042 1.393.137.246.522.99.601 1.153.357.608 2.11 1.46 1.5.13-.399-.863-1.203-1.386-1.048-2.425.18-1.215.403-2.108.907-3.227.414-.92 1.282-1.689 2.057-2.296.382-.298.779-.547 1.28-.553.503-.007 1.039.173 1.526-.039.22-.3.015-.862-.217-1.091m-2.633 5.923-.001.01c-.05.664-.647.692-.715.475-.05-.15.295-.91.636-.714a.33.33 0 0 1 .084.151l-.002.052zm-1.217-.329c-.316-.465.246-1.027.373-1.484.054-.075.084-.177.215-.187.131-.008.025-.014.257.127.23.14-.53 2.01-.845 1.544m2.368-3.27c-.034.007-.085.065-.095.086-.224.516.262 2.161-.565 2.17-.286-.455.218-1.398-.453-1.699-.504-.23-.864.086-1.107.505-.519.89-1.106 1.901-1.003 3.033.17.3.603.26.786.542-.116.361-.576.457-.442 1.015a.3.3 0 0 0 .09.103c1.37.552 1.358-1.267 2.347-1.13.18.147-.066.721.197.934.784.083 1.181-1.042.83-1.63-.53-.884-.107-1.151.15-2.008.072-.596.69-1.153.177-1.779-.107-.153-.712-.183-.912-.142m-5.506-1.594c.192-.134.268-.126.376-.355.106-.226.273-.4.538-.412.326.38-.35 1.016.167 1.338.51.041.316-.465.826-.424.407.551-.39.723-.146 1.377.81.27 1.054-.893 1.034-1.46-.015-.38-.099-.945-.4-1.207-.327-.284-.772-.658-1.179-.812-.582-.222-.93.186-1.175.66-.234.45-.678.852-.65 1.4.02.378.478-.014.609-.105m.157 4.21c-.02-.028-.168-.076-.213-.066-.53.112-.57 1.11-.854.908-.287-.201.184-.844-.149-1.178-.964-.223-.389.971-1.031 1.327-.154-.05-.265-.059-.304-.203-.04-.145.653-1.297.421-1.41-.615-.4-.666.223-.71.696a2.2 2.2 0 0 1-.166.543c-.36.62.127.99.73 1.23.472.186 1.482.495 1.846.016.337-.442.802-1.325.43-1.862ZM80.48 29.104a.5.5 0 0 1-.086-.075c-.43-.502-1.333-.85-1.99-.892a.7.7 0 0 1-.144-.033s-.042-.029-.045-.033c-.133-.15-.348-.746.138-.592.532.17.53.208.925.35.353.125.934.315 1.25.463l.033.017.064.034h-.006a1 1 0 0 1 .158.114c.416.38.27.796-.296.647Zm-1.506 1.41c.106-.634.915.048.721.47-.01.021-.076.055-.094.05a.6.6 0 0 1-.262-.18c-.108-.108-.368-.315-.365-.34m.987 1.846c-.136.391-1.185-.304-1.163-.794 0-.019.026-.063.035-.064.326-.044 1.266.46 1.128.858m-.802 1.712a.35.35 0 0 1-.142.082c-.566.023-1.44-.273-1.455-.922-.008-.37.278-.591.622-.635a.52.52 0 0 1 .32.07c.153.08.317.135.468.24a1 1 0 0 1 .096.07c.368.305.37.717.091 1.095m-1.997-2.702c-.162-.074-.742-.382-.672-.625.07-.19.397-.313 1.039.119.026.017.071.135.066.177-.03.255-.074.495-.433.329m-1.16 1.525c-.346-.217-.605-.596-.523-.775.355-.598 1.615-.505 1.62.303.003.478-.758.686-1.098.472Zm1.374-2.973c.122-.33.62-.147.688.135.005.024-.041.078-.064.082-.221.043-.412.05-.616-.138-.008-.008-.013-.06-.008-.079m-3.443 1.433c.124-.12.33-.265.705.046.02.016.069.102.072.125.15 1.108-1.565.62-.777-.171m-1.682.612c-.348-.15.178-2.135.827-1.694.648.44-.48 1.844-.827 1.694m9.565-3.829c-1.236-.7-2.503-1.236-3.908-1.484-.684-.12-1.35 1.364-.66 1.765.274.16 1.35.115 1.308.572v.001c-.049.287-1.1-.256-1.929.205a1 1 0 0 0-.113.075c-.248.169-.453.466-.683.679-.236.218-.577.71-.951.647-.299-.052-.812-.54-.779-.606.135-.266.517-.098.754-.404.431-.555.339-1.202.583-1.811.262-.658 1.32-.472 1.333-1.416.005-.385-.354-.603-.617-.861l-.327-.233c-.156-.097-.801-.088-.697.391.05.232.47.877.047.984-.574.143-1.372-.112-1.927-.254-.097-.025-.794-.27-.9-.254a.4.4 0 0 0-.206.08c-.234.235-.215.647-.024.877l.01.01c.01.011.044.04.06.044.124.031.578.06.588.06.26-.003.719.102 1.053.25v-.003c.363.17.563.301.168.421l-.02.007-.006.002c-.572.195-1.599-.31-2.166-.02a.2.2 0 0 0-.067.05c-.05.087-.207.409-.025.507.172.091.416.146.557.158.112.01.837-.002 1.174-.016.1-.004.23-.041.262-.053a.8.8 0 0 1 .204-.06c.24-.036.444.01.334.307-.14.37-1.479.739-1.832.653-.355-.083-.748.382-.761.453-.063.326-.032.687-.183 1.033-.2.462-.618 1.096-.39 1.612.06.168 1.102.218 2.297.386.082.01.162.024.243.034.757.116 1.552.281 2.182.554q.364.156.615.25c.87.444 1.767 1 1.907 1.163.692.8 1.761 2.114 2.172 1.552-.029-.562-.35-.97-.59-1.451-.102-.205.174-.293.282-.434.402-.518.504-1.308.64-1.93.111-.52.186-1.049.321-1.563.156-.59-.648-.995-1.175-1.146-.07-.02-.194-.151-.183-.192.097-.422.869-.082 1.347.222.185.117.66.09.759-.08.148-.254.247-.576.378-.78.313-.493-.058-.725-.459-.953"/><path d="M25.46 66.292c-.017-.265-.008-.884-.006-1.304.253.028.556.045.864.047l.003.036a1.86 1.86 0 0 0-.4 1.271c.027.426.256.69.625.667.265-.018.42-.139.59-.393.257-.377.403-.82.706-1.231.343-.457.685-.575 1.112-.602.417-.029 1.244.153 1.345 1.723.02.293.035.755.02 1.147-.22-.044-.54-.09-.836-.121l-.003-.037c.226-.214.399-.461.362-1.011-.034-.521-.337-.758-.644-.738-.37.023-.576.089-1.001 1-.528 1.139-.876 1.19-1.315 1.22-.53.034-1.325-.208-1.422-1.674m3.269 6.15c-.544.095-1.779.347-2.29.546-.03-.278-.05-.38-.086-.581-.03-.158-.058-.303-.142-.647.657-.063 1.64-.215 2.148-.31a18 18 0 0 0-.121-.77c-.05-.26-.103-.512-.17-.798-.763.15-1.422.28-2.115.492-.029-.264-.067-.466-.087-.582-.032-.166-.056-.303-.14-.64.652-.046 1.8-.229 2.315-.326.504-.093 2.156-.356 2.306-.623l.027-.006a10 10 0 0 0 .241 1.301c-.469-.002-1.144.123-2.017.286.046.372.075.523.125.79.048.261.071.384.167.777 1.05-.202 1.534-.278 1.946-.548l.024.002c.021.235.053.401.102.669.038.202.094.468.14.638-.62.034-1.739.22-2.373.33m2.118 2.198-.01-.029c-.606-.008-1.133 0-1.694.022.044.179.081.314.134.475.075.23.115.326.183.49a29 29 0 0 0 1.387-.958m-3.043 2.69a7 7 0 0 0-.23-.628c.48-.18 1.16-.62 1.48-.833a10 10 0 0 0-.185-.636c-.067-.202-.152-.421-.21-.573-.395.007-1.244.069-1.66.281-.07-.238-.094-.354-.151-.529a9 9 0 0 0-.2-.546c.291.06.816.112 1.033.126a51 51 0 0 0 3.356.083c.164.001.43.007.573-.095l.04-.014c.073.225.137.396.19.535.073.199.15.391.239.593-.134.067-.38.217-.59.356-.425.278-.949.636-1.344.913a38 38 0 0 0-1.37.989c-.14.109-.485.383-.762.683a18 18 0 0 0-.21-.705Zm4.158 3.799c-.29.139-1.495.7-2.004 1.001a5 5 0 0 0-.428-.765 61 61 0 0 1 1.376-2.037l.95-1.352-.009-.02-1.23.59c-.234.112-1.468.793-1.865 1.114a6 6 0 0 0-.194-.453 7 7 0 0 0-.234-.442c.684-.14 2.349-.914 2.67-1.068.246-.118 1.262-.572 1.592-.933l.032-.017a10 10 0 0 0 .578 1.206c-.24.278-.768.939-1.017 1.311-.489.731-.804 1.176-1.074 1.581l.01.02.82-.392c.473-.227 1.685-.89 1.915-1.154a6 6 0 0 0 .425.888c-.603.151-1.978.76-2.313.92zm1.701 4.864a7 7 0 0 0-.8.543 8.4 8.4 0 0 1-1.083-1.353c-.833-1.265-.698-2.269.775-3.239.906-.596 2.22-.968 3.358.763.313.472.647 1.044.801 1.329-.326.091-.58.199-.881.342l-.029-.042c.112-.39.033-.918-.306-1.435-.53-.804-1.374-.66-2.326-.033-1.333.877-1.329 1.507-.84 2.25.222.338.428.255.61.136l.42-.277c.193-.127.426-.281.579-.584l.033-.014c.102.18.225.38.342.558.154.234.198.302.358.505-.234.091-.704.357-1.011.551m4.187 2.989c-.42.359-1.351 1.207-1.688 1.64a6 6 0 0 0-.373-.456c-.106-.121-.203-.232-.453-.483.534-.39 1.3-1.023 1.69-1.365-.218-.27-.324-.401-.499-.6a17 17 0 0 0-.553-.598c-.579.517-1.08.967-1.568 1.503-.158-.213-.294-.368-.37-.457a10 10 0 0 0-.448-.477c.537-.374 1.43-1.119 1.823-1.464.385-.337 1.67-1.408 1.663-1.713l.02-.02c.18.226.295.369.43.523.142.16.287.315.444.472-.405.239-.921.69-1.59 1.277.233.296.333.412.514.615.174.2.256.293.538.584.801-.712 1.179-1.024 1.394-1.468l.02-.01c.14.192.252.319.43.523.137.156.321.355.448.478-.516.345-1.382 1.077-1.872 1.496m2.947.808-.022-.018c-.528.301-.975.58-1.446.884a6 6 0 0 0 .763.667c.245-.491.492-1.03.705-1.53v-.002Zm-1.245 3.868c-.171-.149-.321-.28-.517-.424.32-.399.682-1.124.848-1.47a10 10 0 0 0-.484-.452c-.16-.14-.347-.285-.472-.386-.339.207-1.037.693-1.285 1.088-.184-.169-.264-.258-.401-.378a9 9 0 0 0-.45-.367c.28-.098.758-.32.953-.42.408-.21.975-.513 1.416-.76a44 44 0 0 0 1.513-.88c.14-.083.372-.215.443-.374l.029-.032c.176.154.319.27.435.362.165.135.329.26.509.39a7 7 0 0 0-.326.607c-.224.455-.493 1.03-.69 1.47a33 33 0 0 0-.673 1.55 6.5 6.5 0 0 0-.308.977 17 17 0 0 0-.54-.501m1.782 1.335a14 14 0 0 0-.56-.379c.558-.597 1.15-1.405 1.471-1.854.463-.64 1.126-1.51 1.219-2.03l.012-.016c.177.145.327.262.5.386.172.126.373.251.584.396-.439.434-1.206 1.511-1.361 1.727-.258.357-1.001 1.376-1.387 2.14-.255-.2-.37-.292-.478-.37m5.525.627c-.317.571-.666 1.216-.794 1.45-.387.697-1.012 1.006-2.54.368l.136-.427c.622.256.993.254 1.397-.355a25 25 0 0 0 .725-1.247c.424-.765 1.12-1.883 1.117-2.396l.017-.032a12 12 0 0 0 1.164.646c-.449.536-.968 1.536-1.222 1.994Zm1.225 3.288c-.288-.15-.418-.22-.538-.275-.199-.094-.335-.149-.62-.268.436-.691.867-1.594 1.102-2.095.336-.716.825-1.693.821-2.22l.008-.02c.2.11.371.197.564.288s.412.176.648.28c-.352.507-.906 1.709-1.02 1.95-.185.399-.727 1.536-.966 2.36Zm3.908-2.477-.029-.01c-.379.474-.694.897-1.021 1.352a6 6 0 0 0 .955.342 31 31 0 0 0 .095-1.684m.258 4.056a7 7 0 0 0-.637-.206c.151-.489.222-1.296.25-1.68a10 10 0 0 0-.616-.242c-.2-.073-.427-.138-.581-.186-.239.317-.71 1.025-.795 1.484-.233-.091-.34-.144-.513-.206a7 7 0 0 0-.554-.174 10 10 0 0 0 .734-.742 49 49 0 0 0 2.124-2.6c.1-.127.269-.336.275-.51l.015-.04c.221.079.397.135.538.177.203.066.4.122.615.176a8 8 0 0 0-.08.684c-.041.507-.08 1.139-.104 1.62-.04.812-.057 1.273-.057 1.689-.002.179.004.619.07 1.023a15 15 0 0 0-.684-.267m2.859-1.581c-.233 1.08-.1 1.889.72 2.065.963.207 1.33-.701 1.53-1.632.189-.875.253-1.935-.681-2.136-.942-.203-1.35.682-1.57 1.703Zm3.346.654c-.23 1.068-.809 2.289-2.725 1.877-1.165-.251-2.134-.81-1.712-2.774.245-1.142.82-2.344 2.73-1.932 1.639.352 2.032 1.318 1.707 2.83Zm5.972-1.351-.042-.002c-.16-.083-.655-.199-1.265-.22-.005.147-.063 1.096-.098 2.104-.037.993.022 2.009.052 2.173-.292-.026-.374-.035-.63-.045-.221-.008-.382-.014-.655-.003.125-.611.187-1.912.206-2.387.018-.503.035-1.413.046-1.882-.515-.018-1.177.013-1.372.125l-.045-.001c.052-.202.106-.487.113-.669.68.067 1.239.094 1.862.116.677.025 1.33.05 2 .025-.073.158-.126.43-.172.666m1.364 1.714c.093 1.102.457 1.838 1.292 1.767.98-.082 1.07-1.059.989-2.007-.075-.893-.324-1.926-1.276-1.846-.96.081-1.092 1.047-1.005 2.086m3.392-.349c.092 1.089-.105 2.425-2.06 2.59-1.186.1-2.277-.152-2.445-2.155-.098-1.163.1-2.478 2.049-2.643 1.67-.14 2.327.668 2.456 2.208m4.458-.843c.07.315.344 1.615.523 2.178a5 5 0 0 0-.842.246 61 61 0 0 1-1.674-1.8l-1.102-1.231-.022.004.298 1.333c.057.252.442 1.607.664 2.066a6.4 6.4 0 0 0-.967.217c.016-.699-.362-2.495-.44-2.843-.058-.266-.272-1.358-.55-1.762l-.008-.034a10 10 0 0 0 .665-.127c.236-.053.457-.109.64-.165.217.296.742.962 1.048 1.287.602.64.964 1.047 1.3 1.403l.02-.005-.198-.888c-.114-.512-.486-1.842-.691-2.127.132-.014.34-.053.499-.089a3.4 3.4 0 0 0 .46-.125c.012.622.297 2.1.377 2.462m5.125-.541c.057.18.173.54.347.901-.594.352-.981.53-1.568.746-1.421.52-2.368.159-2.973-1.498-.374-1.017-.434-2.381 1.511-3.093.532-.195 1.165-.39 1.477-.475.015.338.06.611.133.936l-.05.018c-.353-.2-.886-.242-1.466-.03-.903.331-.957 1.185-.566 2.256.548 1.499 1.164 1.638 1.998 1.333.38-.138.347-.358.272-.561l-.173-.474c-.08-.216-.176-.48-.435-.697l-.006-.035a9 9 0 0 0 .622-.206c.262-.096.337-.123.572-.23.037.246.187.765.305 1.11Zm5.044-5.155c.258.465.565 1.023.842 1.485.452.757.468 1.53-.795 2.284-1.325.79-1.925.47-2.427-.37-.128-.217-.46-.8-.693-1.192-.165-.276-.714-1.269-1.084-1.472l-.011-.018c.172-.086.383-.204.573-.318.188-.113.34-.203.576-.367.195.584.847 1.662 1.014 1.946.42.702.699 1.155.876 1.31.25.217.636.249 1.001.03.867-.515.617-1.06.073-1.973-.763-1.281-1.031-1.774-1.518-2.175.139-.067.263-.133.482-.264.197-.118.3-.187.445-.29.186.6.487 1.104.645 1.384Zm4.232-2.059c.2.252 1.018 1.3 1.423 1.73a5 5 0 0 0-.65.588 63 63 0 0 1-2.291-.885l-1.53-.625-.017.013.85 1.068c.16.202 1.1 1.253 1.502 1.57a6 6 0 0 0-.4.288 6 6 0 0 0-.377.328c-.29-.636-1.416-2.085-1.638-2.364-.169-.213-.839-1.102-1.267-1.344l-.022-.027a10 10 0 0 0 1.046-.834c.325.172 1.088.54 1.505.7.823.311 1.326.52 1.783.692l.016-.014-.566-.712c-.327-.41-1.243-1.443-1.552-1.608.11-.071.282-.2.409-.299.172-.138.19-.151.36-.314.282.554 1.185 1.759 1.415 2.05zm2.9.319c-.158.153-.258.26-.47.486-.492-.655-1.183-1.378-1.57-1.773-.549-.57-1.288-1.373-1.785-1.554l-.014-.016c.172-.15.314-.277.467-.425s.312-.322.493-.507c.35.509 1.276 1.453 1.462 1.644.307.316 1.18 1.225 1.864 1.74-.24.216-.351.313-.447.405m.553-6.358c.227.39.587.978.898 1.498.313.519.93 1.551 1.206 1.992a4.7 4.7 0 0 0-.492.66 81 81 0 0 0-2.315-.978c-.618-.247-1.203-.488-1.618-.641-.252-.092-.604-.198-.775-.191l-.021-.018c.154-.149.317-.329.47-.517a12 12 0 0 0 .448-.554c.148.127.416.278.604.38.308.17.858.409 1.454.66.442.184.753.326 1.125.46l.02-.021a29 29 0 0 0-.801-1.26c-.505-.732-.9-1.273-1.297-1.508.13-.13.236-.243.361-.387.119-.14.216-.251.329-.416.112.31.269.61.404.841m5.414-.997c-.42.568-.662.936-.927 1.326-.28.413-.362.535-.795 1.209-.551-.498-1.114-.89-1.871-1.404-.783-.53-1.741-1.226-2.074-1.195l-.017-.012c.3-.408.68-.966.896-1.282.173-.255.469-.704.85-1.29.09.142.331.36.476.457l-.017.025c-.31.233-.702.722-1.112 1.325.348.297.993.717 1.3.926.261-.384.462-.69.662-1.124.136.138.327.303.503.43-.37.319-.586.651-.784.943l.689.468c.655.445.806.433 1.05.073.31-.456.565-.957.62-1.363l.025-.037c.18.236.34.372.524.525zm-2.449-4.471a3.4 3.4 0 0 0-.213.469c.278.177.645.368.75.423.273.143.426.23.68.363.088-.154.142-.242.199-.354.22-.422.187-.814-.46-1.15-.545-.283-.817-.019-.956.249m4.498.633c-.102.196-.171.358-.29.603a9 9 0 0 0-1.214-.275c-.448-.076-.783-.118-.959-.035-.177.082-.268.274-.402.544.348.165 1.51.752 1.995.88-.107.177-.218.375-.321.572a8 8 0 0 0-.268.563c-.556-.404-1.714-.998-2.08-1.19-.627-.325-1.765-.942-2.139-.937l-.019-.01c.183-.336.318-.597.491-.93.2-.384.344-.675.558-1.084.44-.848 1.007-.877 1.522-.608.534.278.834.839.581 1.536l.013.007c.192-.34.454-.434.77-.403.217.022.283.032.668.082.493.065 1.093.154 1.39.07l.038.019c-.152.26-.253.439-.335.596Zm1.043-2.359c-.094.248-.362.806-.538 1.188a9 9 0 0 0-.766-.405l.014-.034c.38-.192.721-.533.896-.986.153-.398.056-.734-.29-.868-.248-.094-.439-.049-.702.11-.39.235-.71.578-1.155.823-.502.272-.864.235-1.262.082-.392-.15-1.065-.66-.502-2.128.106-.275.285-.702.464-1.05.181.132.451.307.708.46l-.014.034c-.293.1-.554.252-.752.766-.187.487-.01.831.276.942.348.132.562.16 1.329-.492.956-.813 1.294-.714 1.705-.556.496.19 1.116.743.589 2.114m1.064-3.286c-.061.212-.096.355-.168.655-.751-.325-1.71-.611-2.241-.767-.76-.22-1.8-.554-2.32-.468l-.02-.005a9 9 0 0 0 .196-.6c.06-.206.113-.435.177-.685.555.27 1.828.632 2.083.706.424.123 1.631.482 2.481.591-.103.307-.151.446-.188.573m-2.888-5.717-.01.044c-.106.143-.3.614-.42 1.212.145.03 1.074.237 2.063.433.974.195 1.987.299 2.153.295-.071.286-.093.364-.145.615-.042.217-.074.375-.106.645-.584-.221-1.858-.49-2.325-.582-.494-.099-1.388-.262-1.85-.347-.1.505-.174 1.164-.096 1.375l-.007.044a3.7 3.7 0 0 0-.644-.219 27 27 0 0 0 .413-1.82c.133-.663.26-1.305.343-1.97.146.096.405.192.631.275"/><path d="M98.43 64.958c.364.289.74.563 2.08 1.426.461.039.712.06 1.047.066.317.004.71.008.938-.033a7 7 0 0 0-.074.636 8 8 0 0 0-.034.653c-.203-.076-.66-.158-.898-.178-.334-.028-.59-.071-1.051-.11a35 35 0 0 0-2.336 1.059c-.154.075-.435.25-.544.368l-.027-.002c.035-.249.062-.489.083-.739.02-.25.035-.505.045-.785a1.4 1.4 0 0 0 .505-.083c.376-.131.894-.287 1.718-.646l.002-.021a15 15 0 0 0-1.465-.794 1.6 1.6 0 0 0-.618-.163c.028-.181.046-.305.068-.562.015-.19.031-.372.025-.543.18.186.432.376.537.45Z"/><path fill-rule="evenodd" clip-rule="evenodd" d="M98.12 45.302c-.04.678-.756 1.134-1.32 1.45-.554.309-1.29-.418-1.414-.88-.06-.224-.12-.93.08-1.09.231-.186.564-.042.797-.234.022-.016.048-.12.044-.149-.08-.667.93-.246 1.461.17.16.128.359.612.352.733m1.368 4.353c-.043-.192-.185-.704-.202-1.04v.002c-.017-.878-.229-1.642-.348-2.51-.05-.376-.255-1.776.4-1.765.04 0 .158-.145.162-.19.06-.688-.388-.96-1.002-.71-.341.139-.535.185-.86-.028-.07-.044-.732-.422-1.34-.826-.385-.255-1.558-1.15-1.558-1.15-.535-.32-1.067-1.13-1.385-.203.41.822 1.333 1.115 1.966 1.69.31.273.524.869-.11.657-.62-.22-1.328-.986-1.709-1.203-.355-.207-1.178-.288-.894.367.167.385.477.726.862.904.213.099.96.344 1.004.512.116.239.064.835-.105 1.045-.279.341-1.022-.203-1.38-.484a7 7 0 0 0-.388-.243c-.235-.14-.749-.383-1.093-.539a8 8 0 0 0-.648-.24c-.378-.112-1.574-.408-1.338.44a.2.2 0 0 0 .075.084c.122.087.41.275.738.455.315.172 1.753.617 2.28.9.496.268 1.069.404 1.492.8a.87.87 0 0 1 .28.465c.036.154.22 1.08.22 1.41 0 .838-.215 1.83-.412 2.464-.201.658-.784 1.74.279 1.78 1.058.04 1.017-3.44 1.079-4.205.017-.233.098-1.281.559-.896.767.642.566 1.686.659 2.542.026.246.241.313.454.377.071.022.347.01.38-.041.174-.28.2-.634.182-.956-.03-.56-.297-1.339-.076-1.896.153-.32.394-.429.506-.037l.015.042c.032.117.082.483.079.56-.014.63.225 2.295.258 2.336.247.329.7.507 1.019.074.109-.131-.058-.551-.1-.744M67.82 78.968c0 .112-.1.202-.223.202h-2.17c-.124 0-.225-.09-.225-.202v-.498c0-.109.1-.2.225-.2v.002h2.17c.12 0 .223.092.223.201zm.587-1.312h-3.79c-.266 0-.48.233-.48.521v1.108c0 .286.214.52.48.52h2.98c.12 0 .223.093.223.203v.346c0 .11-.1.2-.223.2h-2.171a.22.22 0 0 1-.198-.111h-1.092v.207c0 .286.215.52.48.52h3.791c.265 0 .48-.234.48-.521v-2.472c0-.288-.215-.521-.48-.521m2.889 2.2c0-.11.099-.2.221-.2h2.17c.125 0 .226.09.226.2v.498c0 .11-.101.202-.225.202v-.003h-2.17c-.12 0-.222-.093-.222-.2zm-.59 1.314h3.793c.264 0 .48-.234.48-.521V79.54c0-.286-.216-.52-.48-.52l-2.981-.001c-.12 0-.222-.093-.222-.202v-.346c0-.11.099-.2.221-.2h2.174c.087 0 .16.044.197.11h1.091v-.208c0-.286-.216-.518-.48-.518h-3.793c-.263 0-.478.233-.478.521v2.472c0 .287.215.52.478.52Z"/></g><defs><filter id="a" x="-13" y="0" width="154" height="157" filterUnits="userSpaceOnUse" color-interpolation-filters="sRGB"><feFlood flood-opacity="0" result="BackgroundImageFix"/><feColorMatrix in="SourceAlpha" values="0 0 0 0 0 0 0 0 0 0 0 0 0 0 0 0 0 0 127 0" result="hardAlpha"/><feOffset dy="16"/><feGaussianBlur stdDeviation="6.5"/><feColorMatrix values="0 0 0 0 0 0 0 0 0 0 0 0 0 0 0 0 0 0 0.03 0"/><feBlend in2="BackgroundImageFix" result="effect1_dropShadow_49_8007"/><feBlend in="SourceGraphic" in2="effect1_dropShadow_49_8007" result="shape"/></filter></defs></svg>