<svg xmlns="http://www.w3.org/2000/svg" viewBox="0 0 128 40.9"><defs><style>.cls-1{fill:#1a6e99}</style></defs><g id="_图层_1" data-name="图层_1"><path class="cls-1" d="M92.9 13.5c.8 0 1 .5 1.3.9v.9c-.1.2-.2.4-.4.6-.2.4-.4.9-.6 1.4s-.6.9-.7 1.5l1-.2v-.2c.7 0 1.4 0 2 .2v.3c-.1.2-.2.4-.4.5-.5.3-1.1.6-1.7.8-.5.2-1.2.2-1.6.4-.5.3-1.8 2.2-1.8 2.8 1.3.8 2.2 2 3.6 2.6.9.4 1.9.3 2.9.3v.4c-.4.2-1.1.4-1.5.6-.2.2-.3.4-.4.6-.3.3-.9.3-1.6.3-.3-.4-.8-.5-1.1-.8-.4-.6-.6-1.2-1-1.8-.2-.3-.5-.6-.7-1-.2-.3-.4-.7-.8-.7-.3.7-1 1.2-1.5 1.8-1 1.3-2.3 2.1-3.8 3-1 .6-1.9 1.4-3.5 1.4v-.2c1-.3 1.5-1 2.2-1.5 1.8-1.3 3.2-3.1 4.4-5 .4-.7 1.3-1.4 1.4-2.3-.5-.1-1.8-1.3-1.9-1.8h.3c.7.5 2 .3 2.9 0 .2-.7.7-1.2 1-1.7s.4-1.1.7-1.6c.3-.7.8-1.3.9-2.4Zm-36.7-.6c.9 0 2.5.6 2.7 1.2.1.2.2.5.2.8q.75 0 1.5-.3s0-.2.2-.3h1.6c.2.2.2.4.2.6l-.2.2c-1.7.2-2.7 1.4-4.3 1.5v-.2l.4-.3h-.1c-.2.1-.4 0-.7.2-1 .4-2 .6-3.1.6v-.2c1-.1 2.1-1.1 2.1-2.2-.3-.5-.5-1.1-.7-1.6Zm2.3 6.7c0-.5.5-.9.1-1.1 0-.1 0 0 0 0-.6.2-.9 1-1.4 1.3-.7.5-1.7.7-2.5 1.1-.4.2-1.4.9-1.4 0 .1-.1.1-.3.2-.4.3-.3.6-.5.9-.7.4-.4 1-1.2 1.6-1.3v.7l1-.3c.5-.3 1.3-1.2 2.5-.9.2 0 .6.2.9.3 0 .1 0 .2.2.3 0 .5 0 .9-.4 1.1-.6 0-1.1.1-1.7.1Zm-1.2 1.8h.3c.2.3.6.4.8.6.2.3.4.5.6.8 0 .4 0 .7-.2 1.1s-.6.3-.7.8c.3.3.5.7.7 1 .6.9 1.3 1.6 2.1 2.3.3.2.5.6.8.8.4.3 2.1.6 2.1 1-.2.1-.4.2-.7.3h-.8c-.3 0-.7.2-1 .3-.6.1-1.1 0-1.6-.4-1.1-.7-1-1-1.6-2.1-.4-.7-.8-1.4-1.2-2.2h-.1c-1.1 1.8-2.1 2.5-3.9 3.6-.8.5-1.6.9-3 .8v-.2h.1c.2-.1.5 0 .7-.2.5-.2 1-.5 1.5-.8.5-.5 1-1 1.5-1.6.4-.4.9-.8 1.2-1.3.4-.6.7-1.3 1.2-1.8-.2-1-1.5-1.7-1.6-2.6.8 0 1.7 1 2.1 1.5.4-.5.6-1.1.7-1.7m16.2-2.9v-.2c.4-.4.9-.8 1.2-1.2-.3-.2-.2-.7-.2-1.1.5-.5 1-1.1 1.3-1.7h-.1c-.3.3-.6.5-1 .7-.6.5-1.1 1.1-1.7 1.6-.4.3-.6.8-1.2 1-.5.2-2.7.6-2.7-.1 1.1-.3 1.7-1.2 2.5-1.7 1-.8 2.1-1.4 3.1-2.1.2 0 .4-.3.5-.4.3-.2.6-.2.9-.4l.3-.4h1.2c.2.2.2.5.2.8-.3.2-.4.6-.6.9l-.5.4c-.3.5-.7 1-1.1 1.5v.1c.2.2.4.3.6.5v.4c-.7.8-1.7 1.3-2.8 1.3ZM67.6 22c1 0 1.9 1.2 1.8 2.3-.2.2-.5.3-.8.2-.1 0-.4 0-.5-.2s0-.3 0-.5c-.2-.6-.4-1-.4-1.8Zm1 3.7h.3c.4.5.8.5.8 1.5-.1 0-.2.1-.3.2h-.6V27c.3-.4 0-.9-.1-1.3Zm-2.5 1.2c.7 0 1.5.4 2.2.6s1.4.2 2.1.4c1.5.5 3.1 1.1 4.7 1.5.9.2 2.3-.2 3.2-.2v.4c-.3.2-.5.4-.8.6-.4.2-.8.1-1.1.3-.4.3-.8.6-1.1 1-1.5 0-2.2-.8-3.1-1.4-1.1-.7-2.3-1.3-3.6-1.7-.9-.3-2.3-.5-2.5-1.5m5.3-5.7v.9c.2-.2.8-1.1 1-1.3.5-.7 1.5-1.8 2.3-2.2.4-.2 2-.7 2.4 0 .5.7-1 1.7-1.2 3.9v.8c-.2.8-.3 1.8-.5 2.5-.2.8.1 2.1-.8 2.1-.1-.1-.3-.2-.4-.3-.2-.3-.2-.7-.6-.8-.1.4-.4.5-.9.5 0-.1 0-.3-.1-.4.3-.4.2-1.5.2-2.1h-.1c-.2.1-.6 0-.7 0v-.3q.6-1.05.9-2.1c-.3-.1-.2-.2 0-.3.4-.1.4-.3.4-.9-.6.9-1.3 1.8-1.6 3-.2.8.5 1.4 0 2.1-.2.1-.5.2-.7.2q-.45-.45-.6-.9c-.2-.9.3-2.2.5-2.7.2-.6.2-1.4.8-1.5Zm4-2.2c-.2.1-.4.3-.6.4-.4.3-.8.8-1.3 1.1.4.4.3 1.3.4 1.8.7.2.6.3 1 .8 0-.9.4-1.8.6-2.7 0-.4.2-1.1 0-1.3h-.1Zm-.7 4.4q-.45.6-.9.9c0 .7-.1 1.4-.1 2.1.2 0 .5.3.7.2.1-.2 0-.5.1-.8 0-.4.3-2.3.2-2.5Zm26.7-7.7h.2c.4.5 1.2 1 1.4 1.6.1.3.2.8 0 1.1 0 .2-.2.3-.4.4h-.5c-.5-.9-.8-2-.8-3Zm2.9 6.8c.8 0 1.5 0 2.2-.2.3-.1.5-.4.8-.5h.9v.4c-.1.2-.2.3-.4.5-.3.3-.6.5-.9.8-.3 0-.6.1-.8 0v-.2l.4-.2h-.1c-.6.5-2.1.3-2.1-.5Zm3.5 2.3c.2-.2.3-.3.5-.3-.3 0-.6 0-.9.1.4.4.3 1.1.4 1.7.2.9.1 1.9.1 2.9s0 1.5-.1 1.7c0 .2-.2.3-.4.4s-.4 0-.7 0c-.3-.4-.7-.4-1.2-.6-1-.5-2-1.1-2.9-1.6-.4-.2-1.1-.4-1.2-.9.7 0 1.2.5 1.9.7l1.8.2c.4.1.7.2 1.1.1.4-.4 0-1 .2-1.6.1-.6.4-2.2.3-2.7h-.2c-.3.2-.7.3-1 .5-.8.5-1.5 1.2-3 1-.2-.3-.4-.4-.4-1 .4 0 .5.2.9.1s.7-.3 1.1-.5c.7-.3 1.4-.6 2-.9.7-.3 1.5-.3 2.3-.6.4-.1.6-.5 1.2-.5.3.2.7.2 1 .4l.4.4v.4c-1.1.5-2.2.7-3.4.6Z"/><path class="cls-1" d="M108 9.5c1 0 1.9.9 1.9 1.8l-.6.6-1.8 1.2c-.2.2-.7.4-.8.6 0 0 .3.2.4 0 .4-.1.7-.4 1.1-.6 1.2-.5 2.2-.9 3.5-1.3.7-.2 1.3-.4 2-.2.1 0 .2 0 .2.3 0 .9-1 1.5-1.5 2-.7.9-1.4 1.8-2 2.8-.1.2-.1.3-.2.5-.3.3-.5.7-.7 1.1h.2c.4-.3 2.1-.5 2.7-.7.4 0 1.1 0 1.3.2.5.7-.6 1.4-1 1.6-.7.4-1.5.7-2.2.9l-1.4.2c-.9.3-1.7.6-2.9.6V21c.3-.2.6-.2.9-.4 1.2-.6 2.4-1.1 3.7-1.6.5-.2 1.3-.4 1.5-.8h-.2c-.2 0-.4.1-.7.1-.6.2-1.3.3-2 .5-.3 0-.5.1-.7.2-.3.2-.5.5-.8.6-.4.1-.6-.2-.9-.1-.3 0-.6.2-.8.4-1 .4-1.9.7-2.8 1.3-1 .7-1.7 2.9-3.1 3.3-.2 0-.4 0-.5-.1 0-.4 0-.8.2-1.2.4-.7 1-1.5 1.5-2.2.2-.2.3-.6.6-.6 0 .4-.3.5-.4.8-.4.8-.9 1.5-1.3 2.3h.1l1.1-.9c.4-.4.7-.9 1.2-1.2.6-.4 1.2-.8 1.9-1.2.5-.3 1.1-.5 1.6-.7.1 0 .4 0 .5-.2v-.8c-.5-.1-.9-.3-1.3-.7h-.1c-.6.4-.8 1.4-1.9 1.5v-.2c.6-.5 1.1-1.2 1.2-1.9 0 0-.2-.1-.3-.2-.3.2-.9.4-.9-.2.2-.2 0-.8-.1-1-.2-.6-.3-1.2-.5-1.8-.2-.3-.3-.7-.3-1h.2c.1.2.3.2.4.4.4.5.7 1.1 1.1 1.6.2.4.5.8.6 1.2 0 .2 0 .3.1.4.5-.5.8-1.2.9-1.9-.3-.3-.5-.7-.6-1.1h.7c.6-.8 2.1-2.3 2.2-3.3-.2-.2-.3-.5-.4-.7Zm4.7 2.7c-1.1 0-1.9.6-2.7.9-.5.2-1 .3-1.4.6.5.7 1.4 1.2 1.2 2.6.2-.3.4-.5.6-.8.5-.6 1-1.2 1.5-1.9.3-.4.7-.8.8-1.4m-3.1 4.4c-.5.3-1.1.5-1.6.7-.2 0-.6 0-.7.2v.5c.2.3 0 .7.5.8.5-.8 1.3-1.4 1.8-2.2m-2.8-.2h.2c.1.3 0 .5.3.5.6-.5 1.6-.5 1.7-1.6-.2-.2-.2-.6-.3-.8l-.6-.6h-.4c.2.3.7.6.5 1.1 0 .2-.4.2-.5.4-.5.4-.9 1-1.2 1.6.1 0 .2.1.4.1v-.7Zm-62.2 9.5c.1-.6.2-1.1.2-1.7 0-.4.1-.7.3-1 0-.4.1-.8.2-1.2v-1c0-.1-.2-.2-.4-.3h-.4c-.1 0-.2 0-.4.1-.2 0-.4.2-.5.3-.4.2-.7.6-.9 1-.1.3 0 1 0 1.3 0 0 0 .1-.2.1-.4 0-1 .1-1.4.4s-1.1.9-1.4.9c-.6.1-1.3.1-2 0-.2 0-.4-.2-.5-.4s-.2-.5-.2-.7c0 0 0-.1.1-.2h.5c.3 0 .5-.2.7-.2.4-.1.8-.3 1.2-.5.2 0 .6-.3.6-.6v-.3c-.1-.2-.3-.4-.5-.5s-.5.1-.7.2l-.6.3c-.3-.2-.8-.3-1.1-.7 0 0 0-.1-.1-.2v-.7c.1-.1-.2-.2 1-.1h.4s.2-.1.3-.1c.3 0 .6 0 1-.2.5-.2 1-.5 1.4-.9.2-.3.4-.7.5-1.1.1-.3.2-.6.3-1 0-.3.1-.5.2-.8v-.3c0-.2.2-.5.2-.7.2-.5.3-1 .6-1.1h.5c.1 0 .2 0 .3.2.5.9.5 1.1.6 1.3 0 .3-.1.9-.4 1.7q0 .15.6 0c.2 0 .5-.2.3-.1s.4-.3.5-.4l.5-.5s.7-.2.9 0c.4.4.5.5.2.9-.2.3-.6.6-1 .7-1.6.8-2.2 1-2.8 1.3-.5.3-.8.7-1.4 1.5-.3.3-.6.5-.7.6-.1.2.1.5.4.6.3 0 1.1-.6 1.5-.9.2-.2.8-.4 1.3-.7.2 0 .4-.2.6-.3.3-.2.5-.4.7-.6 0 0 .2-.1.3-.1.2 0 1.1 0 1.2.3v.9c0 .6-.2 1.2-.4 1.7-.2.4-.4.8-.6 1.3-.8 2.1-.8 4.3-1.2 5.8 0 .1-.2.3-.3.3-.5 0-.9-.3-1.2-.7-.2-.3-.4-.5-.5-.8 0-.1-.2-.2-.4-.3-.2 0-.3-.2-.4-.3 0 0-.4 0-.5.1-.4.4 0 0-.6 1.6 0 .1-.1.2-.2.3-.1.2-.1.3-.3.3H40c-.1 0-.2 0-.3-.1 0-.3.2-.9 0-1.2-.3-.3-.7-.2-.8-.2-.2-.2-.2-.5 0-.7s.3 0 .5-.1c.2-.2.2-.4.1-.5-.1 0-.2 0-.2-.1-.2-.3-.2-.7 0-.8.3-.2.7-.3 1.1-.4.5-.2 1.1-.3 1.6-.3.1 0 .3.3.1.5-.1.1-.3.2-.3.5 0 .5.6.7.9.9.4.3.8 0 1.2-.3.2-.2.3-.4.4-.7Zm-8.8 3.2c-.2-.8 0-1.5.1-2.2 0-.5.1-1.1.2-1.6v-.2c0-.1 0-.1.2 0 .1 0 .3 0 .4.4 0 .3.2.6.5.7.2.2.4.5.5.7q.3.45.3.9V29c0 .3-.2.6-.3.9-.1.2-.3.3-.5.2-.2 0-.4-.2-.6-.3-.4-.3-.9-.6-.9-.8Zm-11.9 1.1q-.3.3-.6.3H22c-.4 0-.8-.1-1.1-.2h-.6v-.8s0-.2.3-.2c.2 0 .3-.2.4-.2.5-.3 1.9-.8 1.7-.7-.1 0 .5-.2.5-.2.2 0 .6-.2.7-.2h.7c.2 0 .3.1.5.2 0 0 .3.2.4.2h.2c.3 0 .6-.2.8-.5 0-.2.2-.5.2-.7v-1.1c.1-.5.3-.9.6-1.4l.3-.6c.2-.5.5-.9.8-1.4 0-.1.2-.3.2-.4.2-.3.4-.5.5-.8s.2-.4.3-.4v-.3s-.2-.2-.3-.2c-.2 0-.4 0-.6.1h-.2l-.3.2c.5-.3.3-.1 0 0 0 0-.4.3-.5.3-.2 0-.6.5-.9.7s-.5.4-.7.7c0 .1-.1.2-.2.3v.9s-.2.1-.2.2c0 .6-.2.7-.3.8-.2 0-.3.1-.5 0-.2 0-.3-.3-.3-.4 0-.2 0-.4-.1-.5v-.4c0-.1-.2-.3-.3-.3-.3 0-.5.2-.8.4h-.1c-.1.2-.3.3-.4.4l-.1.1c-.2.2-.4.4-.5.7 0 .1-.2.2-.2.3 0 0-.1.1-.1.2s0 .1-.1.3-.3.5-.3.6c0 0-.1.3-.1.4 0 .2-.1.3-.2.5 0 .2-.2.4-.2.5h-.7v-1.8c0-.1-.1-.2-.2-.3 0 0-.2 0-.2.1-.1 0-.2.2-.4.3-.3.2-.5.5-.8.7-.4.6-.8 1.2-1.1 1.9-.1.4-.4.8-.5 1.1 0 .2-.2.5-.3.6-.3 0-.5.1-.8 0h-.5l-.1-.1s-.2-.1-.3-.2c0 0-.1 0-.2-.1h-.2s0-.1-.1-.2v-.8s.2-.9.2-1.2v-.5c0-.2 0-.3.4-.4.1 0 .2.2.4.3.1 0 .4.3.4.3h.3c.2 0 .7-.5.8-.6.2-.1.4-.3.6-.5l1.1-1.1c.1-.1.4-.4.7-.6l.3-.2s.7-.6 1.1-1l.4-.4v-3.3s0-.1.1-.2c0-.1.2-.2.3-.3.3-.3.7-.5 1-.8v-.4c-.2 0-.3-.2-.5-.2-.1 0-.3-.1-.4-.2-.4-.2-.7-.5-1.1-.8 0-.2-.3-.4 0-.4.3-.1 1.3 0 1.8 0h1s.9-.2 1.1-.3c.5-.2 1-.4 1.5-.7 0 0 .5-.3.8-.5 0 0 .3-.1.4-.2.2 0 .4-.2.5-.3.4-.2.7-.4 1.1-.7.2 0 .3-.2.5-.3s.5-.3.7-.4c.1 0 .2 0 .4.1h.2c.2.1.3.3.4.5 0 .2.1.4.2.6 0 .3 0 .6-.2.8-.4 0-.7.1-1.1.3-.3.1-.6.4-.9.5-.8.4-1.5.8-2.2 1.4 0 0-.1 0-.2.2v.3c.2.2.4.4.5.6 0 .4.1.7 0 1.1 0 .2 0 .3.2.4.3.2.5.1.8 0 .5-.2.9-.4 1.3-.6s.7-.5 1-.7c0 0 .3-.1.5-.2h.4c.2 0 .4.2.6.3s.4.2.5.4v.2c.3.3.1.7 0 1 0 .1 0 .2-.1.4q-.45.45-.6.9c0 .2-.2.3-.2.5 0 .3-.2.6-.4.8-.3.4-.6.6-.8 1.1 0 .2-.1.3-.2.4-.4.8-.5 1.3-.8 2.1 0 .2 0 .3-.1.5-.2.6-.4 1.1-.6 1.7 0 .3-.2.6-.4.9 0 .2-.2.4-.4.6 0 0-.1 0-.3.1-.2 0-.3.2-.5.2h-.7c-.3 0-.4 0-.5-.1-.2-.3-.3-.6-.5-.9 0-.1-.2-.3-.3-.4s-.3-.2-.5-.2c-.3.1-.5.4-.6.7 0 .2 0 .4-.1.6ZM21.7 20l-.2.2v.5c.2.3.3.7.5 1 .1.2.3.3.5.4h.4c.5-.1.9-.3 1.3-.5l.9-.6.2-.2c.1-.4.2-.8.2-1.2v-.7c-.1-.2-.3-.3-.5-.4h-.7c-.3.1-.7.3-.9.5l-.9.6c-.2.2-.5.4-.7.6Z"/></g></svg>