<svg width="128" height="143" fill="none" xmlns="http://www.w3.org/2000/svg"><g filter="url(#a)" fill-rule="evenodd" clip-rule="evenodd"><path d="M62.29 54.58h3.42v-7.512h-3.42z" fill="#0098e0"/><path d="M62.29 54.58h3.42v7.51h-3.42z" fill="#fcd000"/><path d="M62.29 69.602h3.42V62.09h-3.42v7.51Z" fill="#1f1117"/><path d="M62.29 69.6h3.42v7.512h-3.42v-7.511Z" fill="#009652"/><path d="M64 14c27.614 0 50 22.386 50 50s-22.386 50-50 50-50-22.385-50-50 22.386-50 50-50m0 2.282c26.354 0 47.718 21.364 47.718 47.718S90.354 111.719 64 111.719 16.282 90.354 16.282 64 37.646 16.282 64 16.282" fill="#d8181d"/><path d="M63.999 26.407c17.395 0 32.027 11.815 36.317 27.858h-7.76C88.507 42.382 77.252 33.836 64 33.836c-16.51 0-29.92 13.264-30.16 29.714h-7.429C26.653 42.996 43.388 26.407 64 26.407ZM101.58 63.18q.01.409.01.821c0 20.762-16.83 37.593-37.592 37.593-17.851 0-32.796-12.443-36.635-29.129h7.677c3.659 12.539 15.238 21.7 28.958 21.7 16.66 0 30.164-13.505 30.164-30.164q0-.412-.012-.821z" fill="#d8181d"/><path d="M62.29 39.557h3.42v7.511h-3.42zm-4.439 32.679a15.7 15.7 0 0 0-3.545 1.579c-2.634 1.601-4.622 3.96-5.767 6.94l-.141.366h-8.039l.104-.657c.712-4.486 3.62-8.326 7.819-11.046 2.725-1.765 6-3.059 9.57-3.747v1.154c-3.341.67-6.4 1.891-8.953 3.544-3.727 2.414-6.364 5.746-7.194 9.615h5.922c1.258-3.049 3.352-5.471 6.093-7.137a17 17 0 0 1 4.131-1.792zm12.069-6.608c3.658.677 7.013 1.987 9.797 3.79 4.2 2.72 7.106 6.56 7.819 11.046l.104.657h-8.039l-.14-.367c-1.146-2.98-3.134-5.338-5.768-6.94a15.8 15.8 0 0 0-3.773-1.646V70.99a17 17 0 0 1 4.359 1.857c2.74 1.666 4.835 4.088 6.092 7.137h5.922c-.83-3.87-3.466-7.201-7.193-9.615-2.61-1.69-5.751-2.93-9.18-3.589z" fill="#d8181d"/><path d="M65.184 36.324h3.625l2.17 47.543H65.5a895 895 0 0 0-.316-47.543m1.168 1.104h1.432l2.08 45.25-3.136-.025c.152-15.055-.117-30.17-.376-45.225m-3.536-1.104H59.19l-2.17 47.543h5.48a895 895 0 0 1 .315-47.543Zm-1.168 1.104h-1.431l-2.081 45.25 3.136-.025c-.151-15.055.118-30.17.376-45.225M22.165 69.436 22 68.502q.465-.12.666-.395.202-.275.168-.714-.035-.463-.25-.684-.215-.22-.477-.2a.44.44 0 0 0-.282.12q-.11.108-.179.362a11 11 0 0 0-.15.784q-.134.786-.393 1.12-.36.466-.93.51a1.24 1.24 0 0 1-.7-.154 1.3 1.3 0 0 1-.53-.557q-.196-.374-.237-.924-.068-.896.295-1.378.364-.483 1.026-.556l.107.964q-.365.09-.511.304t-.116.617q.03.418.223.64a.35.35 0 0 0 .31.129.37.37 0 0 0 .278-.165q.14-.195.254-.908t.265-1.063q.152-.35.445-.563.294-.214.745-.248a1.41 1.41 0 0 1 1.368.773q.207.404.253 1.026.069.904-.312 1.422-.38.516-1.171.67Zm-1.193-5.92q-.73-.054-1.21-.311a2.3 2.3 0 0 1-.621-.495 1.9 1.9 0 0 1-.385-.649 2.6 2.6 0 0 1-.11-1.044q.08-1.056.784-1.64t1.872-.495q1.16.089 1.765.767.607.679.526 1.73-.08 1.066-.78 1.645-.697.58-1.84.493Zm.044-.995q.81.061 1.26-.282.447-.343.49-.92a1.22 1.22 0 0 0-.343-.98q-.388-.402-1.22-.466-.821-.062-1.252.269-.432.328-.477.926-.046.598.335.994.382.397 1.207.459m-1.762-6.394.218-.945 2.527.584q.603.138.788.145a.78.78 0 0 0 .526-.178q.226-.186.316-.577.092-.396-.025-.636a.67.67 0 0 0-.347-.335 5.5 5.5 0 0 0-.784-.224l-2.581-.596.218-.945 2.452.566q.84.194 1.17.35.33.157.522.417.191.26.254.634.062.376-.064.927-.155.667-.387.974a1.5 1.5 0 0 1-.528.452 1.3 1.3 0 0 1-.579.143q-.421 0-1.205-.181zm6.472-5.702-3.7-1.46-.52 1.32-.753-.297 1.393-3.533.752.297-.517 1.312 3.7 1.46zm1.58-3.807-4.261-2.182.442-.863 1.678.86.86-1.679-1.679-.859.442-.863 4.26 2.182-.441.863-1.863-.953-.86 1.677 1.863.954zm3.258-5.741-4.46-2.073.616-.783 3.026 1.472-2.046-2.719.712-.906 3.146 1.409-2.18-2.64.602-.764 3.051 3.865-.64.813-3.397-1.469 2.227 2.959zm4.335-5.194-3.303-3.464 2.565-2.445.557.585-1.862 1.776.733.77 1.733-1.652.558.586-1.733 1.651.895.939 1.931-1.84.559.585-2.633 2.51Zm3.037-4.844.714-.623q.344.336.682.367.34.03.698-.225.379-.269.457-.566.078-.299-.075-.513a.44.44 0 0 0-.249-.179q-.148-.039-.402.033a11 11 0 0 0-.748.276q-.744.29-1.161.241a1.25 1.25 0 0 1-.918-.533 1.25 1.25 0 0 1-.23-.678q-.016-.38.204-.742.221-.361.67-.68.73-.52 1.332-.459.6.063 1.006.592l-.771.59q-.265-.267-.524-.282t-.59.22q-.34.241-.431.52a.368.368 0 0 0 .334.486q.239.02.909-.251.67-.272 1.046-.322a1.36 1.36 0 0 1 .713.09q.334.142.597.511a1.41 1.41 0 0 1 .043 1.57q-.24.386-.747.747-.74.526-1.38.466-.637-.059-1.179-.656m6.677-2.506L42.8 24.791l-1.261.646-.369-.72 3.38-1.731.369.72-1.255.643 1.813 3.54-.863.442Zm7.929-3.339-1.077-4.665 1.415-.326 1.57 2.988.092-3.371 1.418-.328 1.077 4.665-.873.201-.851-3.671-.072 3.884-.908.21-1.763-3.461.845 3.673zm6.536-1.274-.604-4.748.962-.122.603 4.748zm2.993-.259-.121-4.785.938-.023 2.05 3.157-.08-3.207.895-.023.12 4.785-.967.025-2.02-3.097.08 3.146zm5.519.09.109-.862 2.895-2.766-2.218-.282.102-.802 3.476.441-.095.743-3.007 2.873 2.7.343-.103.802-3.86-.49Zm6.862-3.75.933.266-.709 2.495q-.168.595-.184.78-.022.3.152.534t.56.344q.39.111.636.006.245-.105.352-.33.108-.224.263-.77l.724-2.55.933.265-.688 2.422q-.236.83-.408 1.15a1.35 1.35 0 0 1-.442.501q-.268.18-.646.222-.378.045-.923-.11-.657-.187-.953-.436a1.5 1.5 0 0 1-.425-.549 1.3 1.3 0 0 1-.114-.585q.022-.421.24-1.195l.7-2.46Zm10.84 4.107.84.483-1.292 2.25q-.309.536-.368.71a.78.78 0 0 0 .017.556q.112.27.46.47.352.203.616.16a.67.67 0 0 0 .422-.235 5.4 5.4 0 0 0 .442-.684l1.32-2.297.841.484-1.254 2.182q-.43.747-.676 1.018a1.34 1.34 0 0 1-.55.377 1.4 1.4 0 0 1-.68.059q-.377-.05-.869-.331-.592-.34-.82-.654a1.5 1.5 0 0 1-.278-.636 1.3 1.3 0 0 1 .031-.595q.123-.404.524-1.1zm2.65 7.3 2.959-3.764.737.58-.433 3.74 1.982-2.524.704.554-2.957 3.764-.762-.598.42-3.673-1.945 2.474-.704-.553Zm4.502 3.824 3.464-3.303.67.701-3.466 3.304zm2.852 3.122 2.706-4.305.647.824-2.034 3.145 3.506-1.272.637.81-4.816 1.618zm2.644 3.46 4.15-2.387 1.767 3.072-.701.403-1.283-2.23-.922.529 1.193 2.075-.701.403-1.193-2.075-1.125.646 1.33 2.313-.702.403zm2.771 4.846 4.453-1.756.747 1.893q.282.715.289 1.086a1.1 1.1 0 0 1-.222.686q-.23.316-.625.471-.501.198-.944.034-.442-.165-.757-.716a2.2 2.2 0 0 1-.185.626q-.129.27-.522.796l-.655.885-.423-1.075.718-1.028q.38-.551.465-.733a.75.75 0 0 0 .078-.344q-.007-.164-.13-.474l-.072-.183-1.859.734zm2.924-.111.263.665q.255.646.373.786a.52.52 0 0 0 .288.178.63.63 0 0 0 .371-.041.58.58 0 0 0 .316-.264.58.58 0 0 0 .041-.406 8 8 0 0 0-.243-.663l-.277-.701zm.577 5.008.348.881q-.432.21-.574.52-.143.309-.023.733.127.447.381.62.255.173.509.101a.44.44 0 0 0 .251-.175q.087-.127.104-.389.011-.18-.009-.798-.024-.797.161-1.175.261-.531.81-.686.352-.1.716.01.364.113.63.441.267.33.418.858.245.864-.015 1.41t-.894.75l-.297-.924q.34-.16.44-.4.1-.239-.009-.628-.115-.402-.347-.582a.35.35 0 0 0-.328-.066.37.37 0 0 0-.241.218q-.099.219-.067.94.032.723-.048 1.095a1.34 1.34 0 0 1-.324.64q-.245.27-.681.392a1.41 1.41 0 0 1-1.494-.485q-.284-.355-.453-.954-.248-.873.022-1.456.27-.581 1.014-.891m-.144 6.056 4.749-.603.122.961-4.749.604zm.455 4.056 3.977-.1-.036-1.417.809-.02.096 3.796-.809.02-.035-1.41-3.977.1zm-.046 5.376 2.009.153 2.897-1.54-.085 1.13-1.976.985 1.806 1.242-.084 1.11-2.638-1.961-2.002-.153zM58.742 90.167v-.192c-.646-.031-.72-.105-.72-.527v-3.217c-.681.142-1.31.254-1.927.322v.174l.345.024c.41.031.446.075.446.39v2.307c0 .428-.091.496-.737.527v.192zm3.292-3.937c-1.319 0-1.955.757-1.955 1.315 0 .65.61 1.165 1.664 1.165.137 0 .273-.03.464-.105l.392-.143c-.21.763-1.056 1.389-2.32 1.569l.054.217a7 7 0 0 0 1.465-.205c1.219-.353 2.083-1.16 2.083-2.25 0-.843-.618-1.563-1.847-1.563m-.181.249c.636 0 .845.675.845 1.27 0 .13-.008.26-.045.46-.11.036-.246.08-.446.08-.6 0-.964-.447-.964-.974 0-.39.163-.836.61-.836m3.929.476h2.128l.246-.589-.055-.062h-2.665l-.382 1.96c.19-.044.546-.106.891-.106.8 0 1.292.372 1.292.911 0 .49-.264.83-.783.83-.536 0-.936-.24-1.136-.365a.26.26 0 0 0-.274-.006c-.127.068-.263.192-.263.285 0 .087.054.149.182.223.173.106.536.205.9.205.5-.007 1.11-.161 1.592-.416.61-.31.873-.675.873-1.066 0-.545-.618-1.041-1.719-1.041-.236 0-.664.086-1.073.192zm6.741 3.212v-.192c-.646-.031-.72-.105-.72-.527v-3.217c-.681.142-1.309.254-1.927.322v.174l.345.024c.41.031.446.075.446.39v2.307c0 .428-.091.496-.737.527v.192zm-30.36 5.867c.333.238.445.464.452.704.002.074.034.168.018.246-.008.044-.034.099-.043.136l-.05.07c-.014.13-.182.292-.28.344l-.06.082c-.065.04-.115.101-.186.143-.033.021-.092.036-.128.054-.095.05-.148.135-.242.183-.094.049-.23.073-.255.2.183.137.341.154.502.213.123.045.225.115.347.152.087.026.178.063.274.093l.121.022c.04.016.051.034.086.042.048.012.105 0 .15.009.106.019.186.054.28.04.054-.078-.005-.195.095-.244.052-.02.24.086.317.175.014.016.04.062.052.079q.085.06.17.123c.087.106.39.311.393.418l-.022.04c-.006.035-.044.075-.097.086-.135.028-.572-.195-.758-.273-.056-.024-.082-.063-.14-.082-.27-.085-.53-.208-.803-.306-.084-.03-.201-.05-.283-.08-.044-.015-.058-.038-.104-.054-.064-.024-.154-.028-.216-.051-.191-.072-.638-.26-.775-.205-.046.019-.047.061-.09.086-.124.075-.511.183-.485.367.154.106.401.104.55.147.422.12.814.233 1.264.413l.094.069c.226.088.595.363.609.554.01.13-.218.549-.368.629l-.162.222c-.315.192-.548.552-.867.721l-.039.053c-.053.032-.12.098-.174.126l-.072.1c-.127.077-.248.257-.383.329l-.12.165c-.07.042-.113.175-.19.222-.158.097-.273.315-.436.402l-.07.096c-.094.058-.17.159-.25.268l-.096.133c-.078.043-.172.102-.246.14-.069.036-.094.086-.175.071-.042-.009-.063-.042-.114-.059-.311-.1-.262-.366-.31-.524-.145-.479-.164-.956-.164-1.436 0-.079-.025-.183-.01-.26l.022-.03c.003-.032-.026-.063-.021-.102l-.038-.033c-.03.015-.072.008-.102.018-.046.014-.064.048-.108.073l-.064.014-.051.069c-.078.048-.148.149-.23.193l-.052.073c-.066.089-.158.273-.274.272a.4.4 0 0 1-.084-.082l-.147-.107c-.096-.109-.133-.169-.133-.279l-.018-.059.038-.053a.25.25 0 0 1 .111-.152c.062-.034.074-.119.143-.149l.171-.235c-.072-.121-.315-.553-.129-.641.113-.046.338.05.457-.007.138-.066.044-.258.07-.37.026-.106.132-.078.183-.1.093-.04.108-.143.122-.215a2 2 0 0 1-.11-.12c-.054-.067-.128-.091-.178-.15-.026-.03-.025-.069-.04-.095-.03-.052-.066-.084-.094-.135l-.04-.15c-.054-.119-.12-.219-.124-.339-.003-.092-.085-.178-.046-.276.052.009.112.04.16.045.059-.058.355-.066.44-.033.137.052.262.143.391.178.253.068.675-.22.895-.327.065-.032.16-.092.187-.182l-.005-.004c-.08-.043-.186-.077-.257-.106-.043-.017-.061-.044-.104-.055q-.028 0-.057.004l-.058-.043c-.04-.013-.105-.01-.15-.028-.063-.026-.08-.055-.142-.078-.212-.08-.459-.124-.673-.176l-.1.008c-.13-.025-.276-.029-.41-.085l-.148-.108c-.269-.196-.356-.397-.307-.593.01-.036.045-.036.06-.044.074-.037.119-.068.224.002l.094.069c.061.02.172.077.232.103q.086.06.17.124l.073.012.188.137c.098.037.238.076.337.119l.076.055c.024.01.094.03.116.039l.094.068c.08.031.17.076.262.11l.075.01c.142.053.282.12.413.174.105.041.175.107.275.139.024.007.048 0 .08.012.032-.032.098-.049.14-.07.045-.023.044-.058.088-.083.098-.058.214-.143.312-.194.066-.034.084-.129.15-.169.196-.118.455-.465.537-.652.02.005.014.006.03-.004-.016-.081.057-.186.076-.264l.04-.056.034-.168c.008-.042.033-.111.076-.132a.6.6 0 0 1 .266-.01c.03.007.05.028.075.03m-.003 3.574c-.1-.008-.192-.052-.302-.093-.03-.011-.07.003-.103-.01-.065-.022-.089-.045-.153-.07l-.17-.038c-.085-.03-.155-.073-.234-.084-.105-.015-.21-.058-.318-.08a44 44 0 0 0-.624-.12l-.074.008c-.062-.015-.119-.039-.18-.045-.162-.017-.316.015-.472.02l-.013.036a.2.2 0 0 0 .063.036c.041-.037.142.008.197.002.161-.017.353.054.531.088.099.018.192-.004.301.037l.112.081c.198.144.321.332.225.472-.226.052-.444.04-.691.019l-.315.01c-.113-.002-.23-.015-.333.015-.075.022-.366-.048-.385.07-.005.109.225.239.279.349-.02.047.016.116.021.167-.076.102-.264-.028-.377-.036l-.031.053c.009.104.138.169.212.272.033.044.017.186-.067.224-.078.035-.201-.005-.27.061-.003.156-.005.316.024.474.016.089.072.21.072.296a2.2 2.2 0 0 0 .117.693c.048.127.07.352.2.469.225-.037.447-.39.618-.624l.183-.251c.045-.024.078-.122.138-.153.151-.08.269-.244.413-.332l.08-.11c.133-.07.23-.22.363-.302.07-.043.09-.145.16-.182.075-.04.154-.113.226-.15.061-.033.06-.095.119-.127.113-.059.229-.126.34-.193l.062-.086c.112-.06.393-.395.376-.527-.01-.08-.208-.258-.32-.34Zm-1.788-.203c-.171-.003-.36-.059-.54-.094-.248-.049-.537-.035-.768-.017-.097.008-.386.047-.328.217l.063.006.01.006c.016.088-.075.092-.142.1l-.005.007q.008.015.013.03c.058.043.07.032.111.035.035.031.019.04.054.039.071.032.251-.052.319-.072l.168-.015.054.02c.243-.024.487-.02.716-.082.057-.015.284-.052.296-.134-.001-.018-.006-.028-.021-.046m-3.74-.706.038.032c.012.018.013.022.012.04-.019.126-.19.262-.22.387l-.072.099c-.018.095-.07.192-.093.287-.014.057-.054.07-.064.126-.02.117-.025.26-.07.369a.54.54 0 0 0-.395.148l-.076-.01c-.02-.02-.023-.049-.062-.065a.7.7 0 0 1-.21-.133c-.043-.05-.024-.112-.038-.164-.008-.027-.028-.038-.042-.066a.75.75 0 0 1-.06-.312l-.02-.095c.06-.295.37-.315.542-.386l.041-.057c.04-.025.09-.087.137-.113.064-.035.182-.039.26-.048l.085.006a1 1 0 0 1 .307-.045m35.862 3.093c.446-.104.821.043 1.019.284.056.069.05.179.114.26.037.045.101.266.075.346-.02.062-.15.124-.222.161l-.085.019a2.3 2.3 0 0 1-.827.236l-.06-.033c-.03-.096.052-.157.074-.23.024-.081.034-.172.042-.257.006-.054-.031-.083-.028-.139.007-.098-.036-.23-.027-.331.004-.045-.05-.113-.064-.135a3 3 0 0 1-.034-.155zm3.379-.293.046-.006c.043.006.051.033.08.059.142.126.096.289.05.407-.052.132-.184.25-.21.393-.02.108.024.238-.02.337-.076.172-.187.324-.252.501-.04.106-.206.31-.094.46.173-.037.23-.148.312-.228.105-.103.188-.211.312-.304.07-.053.108-.153.192-.201.151-.087.39-.286.549-.094.047.058-.008.122-.013.161-.005.037.013.052.01.088-.003.034-.044.071-.055.101l-.004.066c-.014.035-.078.067-.11.097l-.048.078c-.094.083-.378.357-.399.453-.022.103.04.217-.001.312-.045.103-.147.179-.159.296l.03.082c-.002.028-.014.066.017.108.122-.027.395-.229.418-.295a.5.5 0 0 1 .118-.197c.043-.039.083-.062.13-.102.063-.051.197-.148.33-.146.204.002.295.167.427.271.114.09.3.026.424.174.117.142.109.367.086.497l-.029.041a.75.75 0 0 1-.255.462c-.062.051-.072.12-.143.173l-.054.089-.177.215-.013.054c-.063.092-.146.189-.18.292-.046.134-.048.272-.075.41-.02.105-.087.212-.115.312-.025.086-.036.185-.09.259l-.034.012c-.01.008-.208.288-.211.299-.012.044-.041.085-.05.117-.01.045.024.09.003.128l-.002.009c-.094.098-.269.064-.337.007a1.6 1.6 0 0 1 .006-.283c.02-.179.122-.287.038-.525q-.04-.019-.083-.036c-.055-.007-.133.008-.18.006l-.106.023c-.207-.009-.303-.092-.443-.199-.041-.032-.177-.16-.169-.231.003-.016.006-.019.022-.03.048-.029.34-.064.404-.061.025.001.108.018.156-.014.139-.09.508-.276.54-.394.01-.042-.023-.069-.022-.119.001-.069-.004-.155.004-.231.008-.092.035-.26-.047-.37-.1.026-.19.176-.245.235-.067.071-.14.131-.207.204-.068.074-.122.174-.23.231-.092.047-.316.061-.391.066l-.098-.076-.119-.332c.01-.212.198-.374.272-.564l.073-.098c.023-.072-.038-.175-.014-.236.029-.073.154-.21.086-.301-.099.026-.082.146-.121.203a.5.5 0 0 1-.414.216c-.037-.05-.098-.077-.139-.118a4 4 0 0 1-.15-.163c-.05-.058-.034-.13-.09-.193-.015-.016-.057-.052-.056-.094.01-.309.182-.534.305-.79.041-.086.142-.171.171-.26.108-.334.175-.677.325-.991.02-.042.094-.078.112-.123.085-.218.263-.406.406-.599m-2.036 2.506c.149-.019.372.164.318.316-.016.045-.061.083-.103.117l-.067.101c-.12.109-.228.21-.305.337l-.06.073c-.012.039.009.087.028.139.227.069.484.139.632.319.124.152-.062.447-.1.548l-.06.073c-.016.057-.012.122-.034.178-.01.026-.033.032-.057.052-.063.051-.041.171.029.215l.004-.001c.154-.042.323-.234.524-.224.284.013.626.374.6.68-.01.122-.108.221-.13.332-.019.1.061.265.005.345-.07.1-.189.158-.205.285-.036.286-.088.571-.122.864l-.029.04c-.006.036.013.053.01.088a1.2 1.2 0 0 1-.077.295c-.101.25-.172.383-.44.564l-.027.044c-.02.011-.166.05-.166.05-.09-.013-.32-.258-.383-.332-.027-.031-.069-.085-.063-.131l.034-.055c.058-.011.094.003.136.004.012 0 .25-.084.263-.093.027-.02.017-.046.028-.075.012-.034.063-.073.068-.109l-.024-.067c.002-.092.002-.129.091-.183-.054-.142.003-.273.016-.392.005-.043-.02-.064-.015-.103.01-.091.04-.195.06-.283.013-.053-.01-.081-.006-.139l.028-.04c.007-.036-.013-.053-.01-.088.004-.027.032-.069.036-.098.005-.036-.014-.051-.01-.087.007-.063.086-.115.092-.179l-.036-.102c.003-.112.05-.298-.124-.331-.073-.014-.135.017-.221.016-.228-.004-.26.093-.314.207l-.121.159a1.5 1.5 0 0 0-.184.361l-.012.101c-.042.09-.198.147-.227.239-.026.082-.07.145-.102.228l-.116.158c-.068.213-.292.47-.432.66-.17.042-.28-.048-.265-.184.005-.048.064-.112.078-.158.043-.142.085-.28.147-.417.134-.293.367-.554.481-.855.018-.047.086-.105.096-.154.019-.092.01-.179.045-.266.012-.031.04-.079.047-.109l.007-.116a2 2 0 0 0 .104-.267c.012-.044.008-.08.027-.121.024-.055.115-.144.13-.196.079-.292.302-.538.163-.928l-.068-.024c-.15.035-.23.346-.287.449-.018.033-.047.05-.08.078l-.095.14c-.194.176-.35.355-.619.502-.046.026-.24.028-.282.025-.072-.005-.144.023-.212.009-.122-.024-.325-.202-.402-.294-.07-.083-.198-.277-.13-.35.194-.165.58.08.867-.093l.06-.069c.2-.114.393-.323.532-.473.047-.05.08-.119.13-.166.04-.037.065-.065.11-.101l.08-.121c.022-.019.057-.032.066-.057.037-.108.12-.201.16-.305.02-.05.032-.107.065-.151a1 1 0 0 1 .225-.213c.041-.022.18-.065.2-.091m3.316.557c-.095.129-.135.401-.14.574 0 .028.057.228.072.244.013.012.02.013.038.017.052-.043.083-.109.115-.163.103-.174.207-.247.11-.519l-.05-.125-.044-.033c-.05.011-.065.004-.101.005m.074 2.058c.064-.002.207-.03.27-.027l.125-.028c.383.007.71.048.967.231.067.048.285.268.28.39-.001.051-.049.095-.064.138-.007.022.009.033-.009.049a.6.6 0 0 1-.207.085c-.017 0-.034-.019-.065-.002-.061.031-.2.106-.305.098-.113-.017-.179-.132-.294-.143l-.136.026c-.056-.068-.21-.124-.117-.222l.047-.019c-.09-.25-.551-.328-.492-.576m19.627-22.178c.08-.098.194-.118.278-.163.055-.03.073-.063.126-.098.043-.029.124-.037.169-.057.137-.062.335-.135.438.053.033.058.086.067.106.124.042.12-.09.278-.125.412-.033.128-.012.274-.033.4-.019.114-.077.257-.058.364l.035.022c.129-.165.387-.33.524-.344.08-.01.193.026.185.135-.06.194-.495.32-.65.422-.21.138-.093.454-.18.613-.027.001-.046.013-.073.002a2.4 2.4 0 0 0-.121-.317 1 1 0 0 0-.189.015l-.071-.064-.005-.017c.046-.041.208-.094.236-.17a1.3 1.3 0 0 0-.005-.395l-.021-.025.019-.03c.015-.07-.041-.212-.062-.282l.002-.105c-.021-.064-.055-.107-.073-.172-.015-.053-.018-.12-.046-.17-.075-.137-.331-.018-.4-.109zm2.144-1.822c.354-.462.485-.053.552.204l.002.108c.068.201.114.407.17.608.022.083.082.138.103.222.012.05.02.121.045.17.019.036.043.04.052.075.033.126.054.248.09.378l-.002.104c.036.095.149.47.234.513.246-.225.321-1 .721-.956l.103.076c.193.042.105.425.069.573l.01.075-.031.075c-.012.047-.011.119-.016.166-.011.095-.065.172-.094.271-.026.09-.061.217-.099.306-.177.419-.482.882-.534 1.28l-.056.187.009.047-.032.047c-.022.061-.022.152-.045.21l-.042.053c-.034.09-.031.213-.153.256l-.025-.027a.5.5 0 0 1 .029-.183l.042-.052c.038-.105.076-.279.092-.385l.043-.091c.019-.074.015-.165.027-.238.032-.193.068-.375.107-.566.017-.08.003-.175.012-.256.008-.066.038-.12.053-.19.041-.19.057-.4.127-.596l-.015-.012-.007.001a1.1 1.1 0 0 0-.104.401c-.006.054-.052.095-.069.152-.024.08-.01.185-.045.269a.8.8 0 0 1-.216.239c-.008.005-.244.332-.245.335-.043.115-.125.24-.169.363l-.056.254c-.03.073-.06.112-.08.188-.102.36-.166.737-.245 1.094-.015.069-.043.11-.067.178-.025.074-.028.178-.06.258-.016.04-.041.054-.053.096-.032.112-.087.438-.242.55-.129.093-.274.177-.4.278-.029-.011-.064-.006-.08-.038-.046-.115.04-.36.09-.5l.018-.118c.16-.397.247-.807.4-1.2.076-.195.274-.515.24-.68-.056-.04-.27-.097-.324-.08-.077.097-.033.147-.04.227-.015.149-.056.292-.086.443-.01.055-.026.19-.092.232l-.045.011-.028-.03c-.03-.074.031-.266.052-.357.022-.102-.04-.298-.067-.4-.013-.044-.022-.166-.105-.19-.066-.018-.137.027-.202.025a1.2 1.2 0 0 0-.237.009l-.072-.064-.004-.017a1 1 0 0 1 .149-.126l.243-.304a.5.5 0 0 0 .096-.09c-.025-.13-.18-.422-.273-.537.007-.062.112-.194.177-.25.192.002.454-.044.526.23.023.089-.03.208.038.289.07.083.37-.002.472.033.116.04.094.193.207.24.26-.317.205-.695.15-.963l-.028-.023c-.094.03-.24.174-.334.144-.08-.025-.096-.11-.164-.131-.016-.005-.259-.179-.296-.238-.035-.056-.05-.149-.082-.206-.059-.106-.29-.156-.366-.187l-.023-.045c.135-.278.338-.29.544-.26.03.003.118.031.149.085.09.157-.006.257.019.407.105.088.328.069.44.067l.025-.039c-.096-.081-.112-.32-.15-.426-.037-.1-.09-.188-.117-.294l-.015-.091c-.028-.06-.067-.092-.083-.153-.048-.184-.105-.379-.293-.534a2.4 2.4 0 0 1-.367.09l-.025-.026c-.03-.073.04-.122.072-.208.08-.208.183-.43.269-.642.031-.075.129-.127.132-.193m-2.736 3.84c.083-.104.173-.1.26-.09a.72.72 0 0 1 .59.392c.058.105-.207.607-.305.76l-.037.003-.043-.042c-.021-.05-.008-.128-.026-.18-.05-.145-.066-.307-.134-.44-.072-.138-.193-.228-.306-.365zm.944.836c.085-.111.167-.22.277-.236l.072.064c.046.117-.11.453.048.525.036-.036.047-.012.075-.027l.042-.052c.074-.053.175-.122.254-.149.119.09.182.147.184.254-.146.184-.274.216-.455.18l-.047.015a.34.34 0 0 1-.188-.118c-.037-.058-.04-.249-.144-.281-.042-.013-.1-.02-.147-.045.004-.037.027-.09.029-.13m.024.884c.164-.207.318-.09.493-.043l.159.014c.344.108.926.275.395.743a1.4 1.4 0 0 1-.302-.07l-.096-.077c-.11-.088-.224-.201-.301-.268l-.35-.288zm3.206-1.222c.125-.161.463-.338.588-.133.124.202.114.444.114.67l.013.13c-.019.115-.056.254-.01.357l.031.005c.22-.276.328-.685.645-.892.045-.029.051-.063.092-.078.033-.012.063.015.097.018.049.004.166.01.204.083.04.1.014.348-.034.459l-.055.069c-.05.127-.134.232-.183.351l-.081.101c-.031.082-.146.309-.126.377.026.095.183.147.252.17.081.026.11.104.195.13.031.009.113.05.144.061l.075.06a.7.7 0 0 1 .19.1c.049.039.103.023.134.074.007.013-.001.024.008.04.022-.001.025-.007.049.006a.6.6 0 0 0 .16.189l.097.077a.53.53 0 0 1 .086.309c-.169.217-.451.413-.635.513-.117.064-.201.176-.315.246l-.061.011-.147.088-.048.001c-.147.074-.275.184-.423.206l-.044-.041-.004-.017c.194-.24.368-.429.595-.712l.217-.278a3.6 3.6 0 0 0-.521-.498c-.065-.052-.211-.147-.26-.123-.168.082-.243.479-.285.603-.066.198-.116.42-.201.616l-.097.121c-.234.292-.562.34-.81.307-.121-.171.136-.7.217-.928.073-.203.146-.413.242-.63l.068-.086-.008-.02.016-.02c.01-.007.048-.006.06-.044l-.005-.031.11-.137c.033-.082.085-.165.106-.248s-.041-.205-.062-.282c-.058-.219-.055-.581-.204-.77l-.068.02c-.135.171-.349.504-.505.511-.026 0-.072-.007-.088-.044-.025-.061.066-.243.167-.318.014-.01.042-.005.056-.04.054-.13.096-.231.141-.36l.034-.165c.025-.064.075-.125.077-.184m-2.35 3.264.02-.017c.067-.02.16.007.228.03l.046.038c.212.043.421.042.638.12.143.05.234.268.202.347-.053.132-.144.145-.218.185-.25.135-.543-.068-.686-.331-.027-.052-.074-.057-.104-.111l.001-.032-.046-.037c-.042-.07-.08-.117-.081-.192M56.74 102.027c.28.061.51.184.568.363l-.014.137c.005.052.028.104-.023.154-.035.035-.33.158-.398.175-.066.017-.255.15-.306.194l-.141.072c-.108.106-.255.178-.369.28-.12.107-.37.177-.391.369l.036.031c.62.068.456-.19.749-.345.208.019.618.179.685.269v.065c.025.064.028.226-.036.277-.062.048-.186.04-.273.068-.145.046-.218.131-.402.151-.174.019-.286-.066-.45-.042-.007.124.197.201.285.278.282.25.596.363.725.711.032.084-.03.254-.064.297l-.024.232c-.028.048-.015.145-.048.202-.064.112-.072.245-.143.354l-.065.048c-.042.058-.066.133-.1.183l-.009.096-.03.034c.118.513.576.884 1.018 1.225.187.011.243-.128.303-.227.019-.03-.018-.042-.02-.057q0-.01.002-.019l.028-.015.014-.137c.086-.149.166-.348.277-.486.036-.045.015-.12.045-.171.066-.115.107-.271.154-.393.048-.016.111-.071.19-.04.133.061.147.382.188.507l-.013.119c.06.156.044.341.024.541l-.03.282c.011.022.05.07.021.117-.009.014-.054.015-.038.051.02.047.05.199.005.273l-.035.014c-.014.027.037.031.026.068-.006.019-.027.013-.036.023-.044.057-.019.249-.06.321a.8.8 0 0 1-.244.233l-.147.071c-.03.032-.039.062-.082.079-.24.064-.741-.164-.88-.243l-.06-.062c-.172-.09-.343-.315-.44-.451-.022-.03-.005-.054-.024-.089l-.074-.054-.093-.194-.05-.033-.001-.051c-.012-.023-.059-.053-.072-.08l-.018-.081-.05-.032-.093-.194a4 4 0 0 0-.271-.337l-.203-.164c-.034-.039-.047-.069-.09-.101-.162-.019-.222.014-.329.025-.088.01-.142-.017-.226-.005-.138.02-.276.043-.43.047l-.055-.051c.013-.115.12-.147.188-.211.032-.029.037-.053.069-.08l.14-.073c.039-.037.075-.084.125-.111.118-.064.253-.12.323-.225.076-.113-.07-.32-.098-.396-.02-.055.008-.086-.013-.135-.09-.216-.134-.454-.203-.67-.038-.119.114-.213.062-.344-.04-.1-.129-.207-.161-.302-.032-.091-.022-.165-.083-.234a.65.65 0 0 1 .242-.274c.045-.024.111-.02.146-.054.1-.101.149-.269.232-.381.061-.081.204-.124.274-.202.069-.075.293-.252.198-.366a2.3 2.3 0 0 1-.717-.212l-.132-.139.012-.049c.118-.034.208-.119.322-.155.269-.086.545-.174.807-.262.103-.034.302.025.374-.007m-2.043 1.514c.057.012.066.038.093.065-.017.138-.161.497-.003.543l-.002.023-.054.003c-.006.068.046.178.04.193-.008.019-.055.057-.068.071-.08.094-.121.201-.196.288-.084.097-.097.222-.167.328l-.02.182c-.004.041-.029.043-.04.061-.015.027.038.023.023.048l-.028.006c-.027.041.026.09.016.108-.012.02-.052.096-.066.117l-.01.096c-.108.186-.16.422-.283.606-.041.062-.011.127-.045.184-.05.082-.16.175-.22.248-.054.069-.115.129-.16.191l-.011.05-.055.021c-.044.047-.037.098-.07.15-.107.172-.458.594-.208.788l.079.008c.036-.034.057-.032.118-.047l.164-.098c.12-.048.231-.095.36-.133.103-.031.237-.169.31-.235a2.7 2.7 0 0 1 .43-.286c.079-.046.318-.182.492-.115.023.01.027.014.036.032l-.007.136c-.022.212-.069.33-.193.446-.19.176-.478.256-.745.369q-.007.017-.017.035c-.034.018-.091.012-.129.027-.067.027-.12.087-.191.11-.101.032-.343.141-.407.197-.042.036-.056.077-.099.114-.102.089-.259.167-.353.262-.075.075-.151.189-.258.235-.097.043-.366.198-.553.136-.06-.019-.078-.068-.124-.091-.051-.025-.093-.036-.12-.072-.211-.289-.303-.578-.075-.942.04-.064.134-.119.185-.17.098-.098.176-.196.283-.288.104-.09.253-.171.33-.284.038-.058.007-.116.045-.183.06-.107.083-.266.152-.371l.007-.073.09-.088c.08-.112.149-.222.232-.321.029-.033.015-.058.037-.092.079-.123.176-.268.261-.397l.008-.073c.053-.093.085-.234.147-.33.044-.067-.032-.146-.006-.193.168-.32.42-.626.623-.934l.012-.114c.038-.065.114-.169.164-.232l.008-.078a.6.6 0 0 1 .238-.237m.987 1.079-.023.021c-.025.034.005.275.02.319l.048.06-.007.06c.023.067.057.173.089.239.026.056-.01.092.01.153.047.142.097.277.221.377l.033-.001c.329-.286.126-.658-.044-.92-.054-.084-.083-.151-.191-.204-.06-.03-.073-.079-.156-.104m30.48-9.196c.06-.018.17-.066.248-.087a.6.6 0 0 1 .088.073l.048.104c.09.091.196.155.302.207l.046-.004.132.052c.136.01.264.012.378.088.012.074.01.168.018.244.005.058.061.147.068.196 0 0 .135.237.158.286a1 1 0 0 1 .07.255l.07.148c.005.033.013.057.017.088.013.085.124.272.141.3.033.055.002.129.061.182l.058.02c.034.08-.005.1-.006.154 0 .007.19.471.201.482l.037.013c.045-.014.182-.015.238-.081.045-.054.085-.14.139-.191.048-.047.079-.06.122-.112.083-.099.118-.243.21-.344a3 3 0 0 1 .188-.19l.148-.07.04-.067a2 2 0 0 1 .22-.12c.06-.001.21.115.213.212-.002.012.001.003-.005.014-.15.161-.31.274-.45.439l-.018.063c-.249.264-.42.532-.621.813l-.033.111c-.116.183-.283.414-.3.628-.023.269.06.573.066.845l.043.094c.022.046.02.071.022.098l.079.167c.028.201-.111.273-.123.431-.012.16.051.339.03.502l-.088.221c-.046.096-.049.205-.085.305-.087.233-.205.449-.133.741-.051.039-.081.101-.121.14l-.128.06c-.039.039-.102.073-.144.116-.034.035-.055.093-.077.132-.02.034-.052.033-.082.068l-.013.048c-.04.061-.087.093-.14.15-.023.024-.035.078-.056.098-.04.04-.22.19-.258.193-.018 0-.055 0-.07-.009a.14.14 0 0 1-.06-.062c.012-.256.152-.553.321-.751l.016-.068.052-.12c.006-.132-.01-.165.157-.242.006-.08-.002-.172.014-.253.083-.421.503-1.044.105-1.52-.115.052-.12.104-.177.161l-.06.027c-.05.052-.09.104-.15.167-.022.024-.025.066-.041.091-.1.156-.18.292-.257.451-.026.053-.025.099-.033.16-.024.163-.202.305-.413.325-.162.016-.299-.218-.449-.216-.174.003-.63.159-.75.093-.04-.023-.037-.061-.077-.102-.016-.016-.039-.014-.043-.052.007-.138.206-.112.312-.218.056-.055.124-.089.164-.125l.124-.058c.087-.086.226-.191.32-.276l.084-.039c.286-.258.684-.607.917-.928.054-.075.101-.166.16-.249l.021-.082c.13-.202.237-.388.252-.629.011-.17-.08-.346-.098-.53l-.067-.143c-.025-.172-.09-.373-.107-.55-.008-.07-.09-.175-.117-.21-.015-.02.003-.026.001-.037-.015-.101-.106-.215-.114-.294l-.106-.227a.8.8 0 0 1-.077-.216l-.056-.118c-.056-.122-.145-.279-.155-.384l-.07-.148a2 2 0 0 0-.375-.544c-.09-.102-.142-.32-.116-.39m3.36 4.455c.039-.013.078-.016.125-.028.16.102.305.242.468.345l.142.048c.247.153.665.209.976.185.033-.002.077.028.114.025.057-.004.079-.032.132-.038.085-.009.214-.005.295-.012l.123-.057c.098-.014.244-.056.342-.064.094-.009.282-.126.342-.065.042.043.045.125.048.152l.039.084c.017.179-.188.211-.315.34-.3.301-.544.678-1.129.822-.09-.053-.145-.172-.232-.227-.09-.056-.198-.026-.284-.119-.14-.15-.22-.365-.362-.503-.05-.05-.112-.063-.168-.09a2 2 0 0 1-.33-.23c-.07-.07-.397-.338-.407-.458 0-.021.002-.031.014-.048.026-.026.054-.033.067-.062M31.643 86.768c.145.349 0 .728-.346.865l-.153.061c-.207.017-.39-.056-.575-.094-.063-.012-.113-.076-.177-.094l-.017.006c-.038.152-.049.32-.184.429-.156.124-.41-.094-.578.027.045.224.212.36.375.496.282.236.584.453.832.74.083.095.216.37.19.494-.01.05-.056.114-.061.163-.004.033.014.046-.004.071-.048.07-.282.288-.452.294a.55.55 0 0 1-.234-.078l-.051-.049c-.27-.072-.5-.22-.787-.276l-.14-.064c-.147-.017-.216-.079-.334-.108-.045-.01-.08.001-.124-.008-.118-.025-.237-.124-.36-.141-.029-.004-.043.01-.066-.006l-.028-.04-.24-.094c-.097-.068-.326-.195-.439-.211-.195-.028-.412-.066-.611-.074-.174-.006-.332.007-.497-.023q-.066-.023-.131-.043c-.13-.013-.253-.01-.377-.04-.098-.024-.217-.099-.315-.109a1.14 1.14 0 0 1-.535-.23c-.172-.147-.595-.386-.608-.734-.004-.087.144-.264.17-.365-.069-.146-.256-.179-.36-.255a2.4 2.4 0 0 1-.256-.228c-.145-.17-.183-.477-.175-.646l-.026-.066c-.01-.155-.025-.42.052-.54.152-.235.605-.4.926-.424.115-.01.341.03.459-.057-.069-.162-.107-.552-.078-.671l.08-.12c.013-.032.089-.198.127-.203.353-.054.66.315 1.003.34.12.01.276-.076.393-.08l.137-.053c.42-.033.734-.089 1.071.067.105.265-.103.608-.218.79-.047.074-.155.148-.165.236-.02.168.14.312.212.39.208.23.646.45.944.448.09 0 .176-.022.256-.026.106-.004.14-.106.223-.108.05.005.192.086.258.107l.02-.014c-.193-.478-.503-.965-.523-1.457-.005-.1.037-.228.06-.328.005-.024.04-.035.046-.056.034-.113.167-.436.387-.382.055.013.365.384.42.453l.046.115q.06.042.117.086c.048.059.083.135.124.185l.056.142c.072.08.158.204.22.28.05.062.043.117.093.172.186.205.35.427.543.632l.15.124.064.159c.05.047.115.193.17.223Zm-2.27 1.884c-.045-.025-.058-.077-.099-.119-.143-.15-.314-.327-.455-.477-.1-.106-.154-.23-.262-.307-.158-.115-.236-.05-.43-.064-.056-.004-.131-.043-.204-.051-.032-.004-.045-.047-.072-.054-.091-.023-.175-.082-.261-.099l-.056.003c-.053-.035-.084-.07-.143-.088l-.11-.02c-.13-.063-.218-.132-.366-.158l-.28-.13a2 2 0 0 0-.356-.067c-.076-.008-.171-.114-.264-.028.039.167.17.71.078.786l-.153.01-.005.021c.213.175.546.133.82.168.09.011.161.043.262.054l.081.044c.118.037.236.046.358.072.058.013.12.07.178.082.595.12 1.134.407 1.748.494l.012-.017zm-4.388-5.282c.04.099.037.154.04.225l.062.159c.01.121.078.27.08.392.008.35-.309.711-.595.94-.062.05-.188.067-.242.121l-.011.036-.345.137c-.292.117-.824.22-1.004.102-.063-.041-.07-.112-.127-.177-.2-.228-.129-.521-.04-.687.028-.051.011-.121.047-.17.058-.08.09-.167.145-.242.103-.144.265-.261.41-.385l.568-.226c.063-.026.108-.096.2-.104.042-.004.179-.017.238-.07.088-.08.15-.24.297-.27.088.074.176.174.277.219" fill="#d8181d"/></g><defs><filter id="a" x="-13" y="0" width="154" height="157" filterUnits="userSpaceOnUse" color-interpolation-filters="sRGB"><feFlood flood-opacity="0" result="BackgroundImageFix"/><feColorMatrix in="SourceAlpha" values="0 0 0 0 0 0 0 0 0 0 0 0 0 0 0 0 0 0 127 0" result="hardAlpha"/><feOffset dy="16"/><feGaussianBlur stdDeviation="6.5"/><feColorMatrix values="0 0 0 0 0 0 0 0 0 0 0 0 0 0 0 0 0 0 0.03 0"/><feBlend in2="BackgroundImageFix" result="effect1_dropShadow_49_8348"/><feBlend in="SourceGraphic" in2="effect1_dropShadow_49_8348" result="shape"/></filter></defs></svg>