<svg xmlns="http://www.w3.org/2000/svg" viewBox="0 0 128 40.9"><defs><style>.cls-1{fill:#950040}.cls-2{fill-rule:evenodd}</style></defs><g id="_图层_1" data-name="图层_1"><path d="M102.1 31.6v.2c.1.6.4 1.2 1.1 1.2s.8-.2.8-.6c0-1-2-.5-2-1.7s.5-1 1.1-1 .7.2.9.2.1-.1.2-.1v.9c.1 0 .1.1.1.2l-.1-.3c-.2-.6-.5-.8-1-.8s-.6.2-.6.5c0 .8 2 .3 2 1.7s-.6 1.2-1.3 1.2-.7-.2-.9-.2-.2.2-.2.2v-1.4ZM95 30c0-.4-.4-.2-.4-.3s0 0 .1 0h2.5l.2.9v.1l-.2-.4c-.2-.4-.6-.5-1.2-.5h-.3v1.3h.1c.3 0 .6-.2.6-.6v-.1 1.5-.1c0-.4-.3-.6-.6-.6h-.1v1.2c0 .2.2.3.4.3.7 0 1.2-.5 1.3-1v-.1.1l-.2 1.1h-2.8c0-.1.4 0 .4-.3v-2.6Zm-9.4 2.2c0 .4.2.6.3.6h.3-1.3c-.2 0 0 0 0 0h.3c.1 0 .3-.2.3-.6V30c-.2-.2-.3-.3-.5-.3h-.1H86l1.6 2v-1.2c0-.4-.2-.6-.3-.6H87h1.3c.2 0 0 0 0 0H88q-.3 0-.3.6v2.8l-.1-.1-2-2.5v1.8Zm-35.9-.6v.2c.1.6.4 1.2 1.1 1.2s.8-.2.8-.6c0-1-2-.5-2-1.7s.5-1 1.1-1 .7.2.9.2.1-.1.2-.1v.9c.1 0 .1.1.1.2l-.1-.3c-.2-.6-.5-.8-1-.8s-.6.2-.6.5c0 .8 2 .3 2 1.7s-.6 1.2-1.3 1.2-.7-.2-.9-.2-.2.2-.2.2v-1.4Zm3.5-1.6c0-.4-.4-.2-.4-.3h1.5c0 .1-.4 0-.4.3v1.1h1.3V30c0-.4-.4-.2-.4-.3h1.5c0 .1-.4 0-.4.3v2.6c0 .4.4.2.4.3s0 0-.1 0h-1.5c0-.1.4 0 .4-.3v-1.2h-1.3v1.2c0 .4.4.2.4.3s0 0-.1 0h-1.5c0-.1.4 0 .4-.3V30Zm4.2 0c0-.4-.4-.2-.4-.3h2.5l.2.9v.1l-.2-.4c-.2-.4-.6-.5-1.2-.5H58v1.3h.1c.3 0 .6-.2.6-.6v-.1 1.5-.1c0-.4-.3-.6-.6-.6H58v1.2c0 .2.2.3.4.3.7 0 1.2-.5 1.3-1v-.1.1l-.2 1.1h-2.7c-.3 0 0 0 0 0 0-.1.4 0 .4-.3v-2.6Zm3.9 2.2c0 .4.2.6.3.6h.3-1.3c-.2 0 0 0 0 0h.3c.1 0 .3-.2.3-.6V30c-.2-.2-.3-.3-.5-.3h-.1 1.1l1.6 2v-1.2c0-.4-.2-.6-.3-.6h-.3H64c.2 0 0 0 0 0h-.3q-.3 0-.3.6v2.8l-.1-.1-2-2.5v1.8Zm4.4.6c.7 0 .8-.2 1.1-.5.2-.3.2-.6.3-.6s0 .1 0 .2l-.2 1h-2.4c-.4 0 0 0 0 0v-.1l1.8-3H66c-.7 0-.8 0-1.1.5-.2.3-.2.4-.2.4v-.1l.2-.9h2.2c.4 0 0 0 0 0v.1l-1.7 3h.4Zm18.2-.8c0 .7-.5 1.1-1.2 1.1s-1.3-.4-1.3-.9V30c0-.4-.4-.2-.4-.3h1.5c0 .1-.4 0-.4.3v2.2c0 .4.4.7.7.7s.7-.3.7-.9v-1.5c0-.4-.2-.7-.4-.7h-.2 1.2c.1 0 0 0 0 0H84c-.2 0-.4.3-.4.7V32Zm5.3-2c0-.4-.4-.2-.4-.3h1.5c0 .1-.4 0-.4.3v2.6c0 .4.4.2.4.3s0 0-.1 0h-1.5c0-.1.4 0 .4-.3V30Zm4 .5v-.4c0-.5-.5-.3-.5-.5h1.4c0 .1-.4 0-.7.7l-1.1 2.6v.1-.1L91.1 30c-.2-.4-.5-.3-.5-.4h1.5c0 .1-.3 0-.3.2v.2l.7 1.8.6-1.4Zm6.8 1.3c-.1-.2-.4-.3-.6-.3v1.1c0 .4.4.2.4.3h-1.5c0-.1.4 0 .4-.3V30c0-.4-.4-.2-.4-.3s0 0 .1 0h1.5c.8 0 1.3.4 1.3.9s-.3.8-1.3.9c.5 0 .8.1 1 .5l.4.7c.2.4.5.2.5.3h-1l-.6-1.3Zm-.4-.6c.6 0 .8-.3.8-.7s-.3-.7-.7-.7h-.3v1.4zm6-1.2c0-.4-.4-.2-.4-.3s0 0 .1 0h1.5c0 .1-.4 0-.4.3v2.6c0 .4.4.2.4.3s0 0-.1 0h-1.5c0-.1.4 0 .4-.3zm2.8-.2c-1 .3-1 1-1.1 1s0-.1 0-.2l.2-.9h2.4l.2.9v.2c-.1 0-.2-.7-1.1-1v2.7c0 .3.2.4.4.4h-1.6c-.3 0 0 0 0 0 .2 0 .4 0 .4-.4v-2.7Zm4 1.4.4-.6c.1-.2.2-.4.2-.6 0-.3-.3-.3-.3-.4s0 0 .1 0h1c.2 0 0 0 0 0 0 .1-.2 0-.7.8l-.6 1v1.2c0 .4.4.2.4.3h-1.5c0-.1.4 0 .4-.3v-1.1L111 30c-.2-.4-.5-.3-.5-.4h1.5c0 .1-.3 0-.3.3v.3l.5 1ZM68.1 30c0-.4-.4-.2-.4-.3h1.5c0 .1-.4 0-.4.3v1.1h1.3V30c0-.4-.4-.2-.4-.3s0 0 .1 0h1.4c.3 0 0 0 0 0 0 .1-.4 0-.4.3v2.6c0 .4.4.2.4.3s0 0-.1 0h-1.5c0-.1.4 0 .4-.3v-1.2h-1.3v1.2c0 .4.4.2.4.3h-1.5c0-.1.4 0 .4-.3V30Zm4.1 0c0-.4-.4-.2-.4-.3s0 0 .1 0h2.5l.2.9v.1l-.2-.4c-.2-.4-.6-.5-1.2-.5h-.3v1.3h.1c.3 0 .6-.2.6-.6v-.1 1.5-.1c0-.4-.3-.6-.6-.6h-.1v1.2c0 .2.2.3.4.3.7 0 1.2-.5 1.3-1v-.1.1l-.2 1.1h-2.7c-.3 0 0 0 0 0 0-.1.4 0 .4-.3v-2.6Zm3.9 2.2c0 .4.2.6.3.6h.3-1.3c-.2 0 0 0 0 0h.3q.3 0 .3-.6V30c-.2-.2-.3-.3-.5-.3h-.1 1.1l1.6 2v-1.2c0-.4-.2-.6-.3-.6h-.3 1.3c.2 0 0 0 0 0h-.3q-.3 0-.3.6v2.8l-.1-.1-2-2.5v1.8Z"/><path class="cls-2" d="M54.9 22c-.6.3-1.2.9-1.3 1.4 0 .8.6 1.1 1.3 1.4.2 0 .3 0 .4-.2.2-.7.4-1.2.9-1.7v-.2c-.2-.9-.7-1-1.3-.7m-2.7-1.1c-.8-.4-.3-2.8-.2-3.5.2-.6.5-1.6.4-2.2-.5-.9-.8-.9-1.5-.4-1.3 1.7-1.2 3.3-1.1 5.6.1 1.1.1 3.1 1.2 3.8 1-.2 1.9-2.3 1.9-3.4-.2-.4-.3.2-.7.2Z"/><path class="cls-2" d="M59.1 18c.1 0 .3-.1.5-.2.4-.2.8-.5.3-1h-.3c-.7 0-2 .5-2-.6.4-.6 1.2-1.6 1.3-2.3-.6-.2-.5-.3-.5-.8 0 0 .1 0 .1-.1.4-.2.7-.7 1.1-1.1.3-.3.5-.7.7-.9.5-1.3 0-1.8-.7-1.9-.6-.1-1.3 0-1.8.2-.3.1-1.2.6-1.2.8q-.3.15-.3.3c-.4.8 0 1 .8 1 .3-.1 1.1-1.3 1.7-.7v.3c-.2.5-1.2 1.5-1.5 1.8-.3.7.2 1.3.2 2.1 0 .2-.1.4-.2.6-.5.5-.8 1.4-1.4 1.8-.2.3-.7.7-.7.9l-.2.1c-.5.4-.9 1-1.4 1.4v.1c.3.2.8.4 1.3.4h.4v-.1c.5-.6.8-1.1 1.7-1.2 0 0 0 .9.1 4.6l-.4.2c-.2.1-.3.3-.4.5 0 .9.2 1.7 1 2.3.7-.1 1-.9 1.2-1.5v-6.5c.2-.1.4-.3.6-.4Z"/><path class="cls-2" d="M59.7 20.4h-.1c-.4.2-.7.8-.1 1.2.3.9-.5 1.2-.8 1.9v.1h.3c.2 0 .3 0 .5-.1.9-.2 2.2-.6 2-1.9-.5-1-1-1.3-1.9-1.3Zm-8.4-6.7c.7 0 .8 0 1.3-.5 0-.9-.3-1.4-.5-1.6-1.6-.8-2.7 1.3-.9 2.2Zm3.1.6h.3s.2-.1.2-.2c.4-.6.7-1.5.5-2.1h-.5c-.9 0-1.7 1.8-.5 2.5Zm17.2 5.2c-.4.4-.9 1.3-1.4 1.4-.1-1.1 0-2.3.2-3.3.3-.6.5-.6 1.1-.9.4-.2.5-.4.7-.8v-.2c0-.9-.3-1.1-1.1-1.2-.1-.7 0-1.3 0-1.8-.4-.5-1.2.1-1.4.5-.8.7-.3 1.5-.4 2.6-.4.3-1 .7-1.4 1.1-.5 1-.3 1.2.7 1.6.1.5-.2 1.8-.3 2.3 0 .8 0 2.2.8 2.7 1.1-.3 3.1-2.8 3.1-4.1-.2 0-.3.1-.5.2Zm1.2-3.9c0 1.4 0 2.7-.1 4.2-.1.5-.4 1.1-.5 1.7v.3c0 .2 0 .3.1.4.4 0 .8-.2 1.2-.7.7-1.7 1-4.2.8-6-.4-1.2-1.2-.6-1.5.2Zm5.3-4.2c-.6-.2-.8 0-1.2.2v.3c.1 4.4.3 8.9 0 13.4-.1.4-.2.6.2 1 1-.1 1.2-.5 1.4-1.7V11.8c-.2-.3-.3-.4-.5-.6ZM76.3 15c-.9-.4-1 1-1.2 1.6 0 .7-.8 3.3.3 3.8.3 0 .4-.1.6-.3.5-1.5.5-3.3.6-4.9 0 0-.3-.2-.3-.3Zm19 7.7h-.1c-.2 0-.6-.5-.8-.6 0 0-.1 0-.1-.1-.2-.1-.3-.3-.5-.4-.1 0-.2 0-.3-.2l-.4-.4c-.2-.3-.4-.5-.6-.8-.3-.3-.5-.6-.7-.9-.5 0-.8.1-.8.7.3.9.8 1.9 1.5 2.7.7.9 1.6 1.6 2.4 2.1.9 0 1.6 0 2.3-.7v-.4c-.6-.4-1.2-.7-1.7-.9Zm-3.1-6.4c.8-.4 1.7-.7 1.5-2-.4-.6-.6-.7-1.1-.8-.1 0-.3.1-.4.2l-.6.3c0-.7 0-1.3-.1-2-.4-.9-.4-1-1.1-1-.6.1-1.3.7-.3 1.2.4.4.2 2 0 2.4-.9.4-1.8.9-2.6 1.3-.4.4-.5.7-.5 1.3.2 1.2.9.4 1.8.7 0 .1 0 .9-.1 1 0 .3-.7 1.6-.8 1.8-.3 1-1.7 2-2.5 2.5 0 .1-.2.2-.2.3 0 .6.5.8 1.1.9.6 0 1 0 1.4-.5.9-1.3 1.8-2.8 2.4-4.4.3-.9.9-2.1 1.4-2.8.2-.2.5-.3.8-.4Zm14.6-1.9c.2 0 .3 0 .4-.2.1-.1.3-.3.4-.5.2-1.2.4-2.3.6-3.4 0-.4 0-.8-.3-1.1-.4-.1-.5-.1-.7 0 0 .1-.1.3-.2.4q-.45 1.5-.6 3c0 .6-.2 1.2.4 1.6Z"/><path class="cls-2" d="M109.1 13.1v.8c0 .1-.1.3-.2.4l-.3.4c-.4.4-.5.3-.9.6-.1 0-.3.2-.4.3-.5.4-.9.6-1.5.9-.2 0-.3.2-.5.3 0 .3.2.3.5.3s.5-.1.6-.2c.3-.1.6-.2.9-.4.7-.3 1.3-.5 2-.6.4 0 1.3-.3 1.9-.3.3 0 .4 0 .7.1.3.6-.6 1.1-.9 1.3 0 .2.2.2.4.3 1 0 2.4-.2 2.7-1.5 0-1.3-.9-1.5-1.7-1.6-.2 0-.7 0-1.4.1-.3 0-1.1.3-1.2.2.2-.2.6-.5.8-.7 0-.5-.3-.6-.5-.9-.2-1 .9-.7 1.3-1.3 0-.3-.3-.5-.6-.6-.2-.1-.4-.2-.5-.2 0-.4.5-.5.9-.6.6-.4.2-1.6 0-2.1-.4-.2-1.2-.3-1.4.2 0 .5.2.9 0 1.4-.2 0-.3 0-.4.1 0 0-.2.2-.3.2-.1.5 0 .9 0 1.1l-.2.2c-.3.4-.6.8-.5 1.3.2.3.6 0 .9.4Zm-3.8 1.4h.4c.1 0 .2 0 .3-.2 0-.4-.2-.6-.3-1-.1-.5 0-.9 0-1.2.1-.4.3-.8.5-1.3 0-.5 0-.8-.4-1h-.1c-.7 0-.8.3-1.1.9-.1.3-.2.6-.3 1-.2.7-.3 1.5 0 2.1.2.4.5.7 1 .8Zm5.1 6.4c-.5 0-.8 0-1.2-.2l-.2-.2c0-.2 0-.4.2-.5.2-.3.5-.6.7-.8.2-1.1 0-1.2-.7-1.7-.3-.2-.6-.3-.8-.2 0 0-.8 0-.9.2 0 0 0 .4-.1.4 0 .2.6 0 .9.4.2.3.3.4.4.8-.5.7-.7.9-.5 1.9-.2 0-.5.2-.9.3-.8.3-1 .4-1.2.5-.1 0-.3 0-.4.1-.1 0-.2 0-1.3.1h-.2c0 .2 0 .3.2.5.2.4.3.4.8.5h.7c.5 0 1-.3 1.4-.4.6 0 1.2 0 1.4.2.1.5-.3 1.5-.5 1.9-.4.4-.7.3-.9-.2-.2-.7-.2-.8-.7-.6-.2.5 0 1.2 0 1.8.2.6.2.9.6 1.2.1 0 .2.1.4.2.8-.1 1.1-.4 1.6-1.1v-.1c.6-1 .9-2 .8-3.2.3-.3 1.5-.3 2-.2.2.1.6.2.8.4.8 0 1.4-1.2.8-2-1.2-.3-2.2 0-3.3.2Zm-6.1-3.1c.1-.8.3-1.8 0-2.4-.8-.2-1.5 1.5-1.8 2.1-.3 1.3-.4 1.8 1 2.3.6-.2.6-1 .8-1.6zm-49.4-3s-.2.1-.2.2v.9c.1 0 .3.2.6.3.8-.2 1-1 1.1-1.8-.2-1.2-1.3-.3-1.8.4Z"/><path class="cls-1" d="M30.9 10c0 .5-.5.7-1 .7s-.9-.4-.8-.8l.2-1.5c0-.3-.3-.2-.3-.3h.5c.1.1.3.1.5.2 0 0-.3 0-.3.2l-.2 1.5c0 .3.2.6.4.6.4 0 .7-.1.7-.6l.2-1.1c0-.3 0-.5-.2-.6 0 0-.1 0 0 0h.4c.1 0 .3.1.4.1h-.1c-.2 0-.3.2-.4.5l-.2 1Zm1.1.5c-.1.3 0 .4 0 .5 0 0 .2 0 .1.1-.1 0-.2-.1-.4-.2-.1 0-.3-.1-.4-.2h.2c.2 0 .3 0 .4-.3l.6-1.4c0-.2-.1-.3-.2-.3.1 0 .2.1.3.2l.4.2.5 2 .4-1c.1-.3 0-.4 0-.5 0 0-.2 0-.1-.1.1 0 .2.1.4.2.1 0 .3.1.4.2h-.2c-.2 0-.3 0-.4.3l-.7 1.7s0 .1 0 0v-.1l-.6-2.4-.6 1.3Zm3.3 0c.2-.2-.2-.3-.1-.4.1.1.3.2.4.3.1 0 .3.2.4.3 0 0-.2-.2-.4 0l-1.1 1.5c-.2.2.2.3.1.4-.1-.1-.3-.2-.4-.3-.1 0-.3-.2-.4-.3 0 0 .2.2.4 0zm2.3 2.4s.1 0 .2-.1c.2-.2 0-.4 0-.5 0 0 .2.2.2.3 0 0 .2.2.2.3v.1s-.2-.2-.7 0l-1.9.7.9-2c.1-.3 0-.4 0-.4.1.1.2.3.3.4l.3.3s-.2-.2-.3 0v.1l-.7 1.4 1.1-.5Zm1 .8c.2-.1 0-.3 0-.4 0 .2.2.3.2.4.2.4.4.7.7 1.1l-.5.5.2-.3q.3-.45 0-.9v-.2l-1 .5c.1.3.4.3.6.2h.1l-.9.6c.3-.2.3-.4.2-.6l-.8.4c-.1 0-.2.2 0 .4.3.5.8.5 1.1.4h.1l-.8.3c-.2-.4-.5-.8-.7-1.2 0-.1-.2-.3-.3-.4 0 0 .1.3.4.1l1.6-.9Zm.5 4c.1-.1.2-.3 0-.5l-.8.2c-.3 0 0 .3-.1.4 0-.2 0-.3-.1-.5 0-.1 0-.3-.1-.5 0 0 0 .3.3.2l1.8-.5c.3 0 0-.3.1-.4 0 .2 0 .3.1.5 0 .2.1.3.2.5.2.6 0 1-.3 1.1-.3 0-.6 0-.9-.7.1.4 0 .6-.1.8l-.4.4c-.2.2 0 .4-.1.4 0-.1 0-.2-.1-.4v-.4c-.1 0 .6-.7.6-.7Zm.2-.5c.1.5.4.6.7.5.4-.1.5-.3.4-.6v-.2l-1.2.3Zm.3 2.1h-.1c-.4.1-.9.3-.9.8 0 .4.2.6.5.5.7 0 .3-1.4 1.2-1.5.4 0 .7.3.8.8 0 .3-.1.5-.1.6s0 0 .1.1h-.7c0 .1-.1.1-.1.1l.2-.1c.4-.2.6-.4.6-.8 0-.3-.1-.4-.4-.4-.6 0-.2 1.5-1.2 1.5-.5 0-.9-.4-.9-.9 0-.4.1-.5.1-.7 0-.1-.1-.1-.1-.2h1Zm1.1 2.9c.3 0 .2-.3.3-.3v1s0-.3-.2-.3l-1.8-.2c-.3 0-.2.3-.3.3v-1c.1 0 0 .3.2.3l1.8.3Zm-.3 2.3c0-.7-.5-.9-.4-1h.1l.6.3-.5 1.5h-.7c0-.1 0-.1-.1-.1 0 0 .6 0 1-.5l-1.9-.6c-.2 0-.3 0-.4.2 0-.2.1-.4.2-.5l.2-.5c0 .2 0 .3.2.4l1.9.6ZM38 27l.3.5c0 .1.2.2.3.3.2.1.3 0 .3 0s-.1.2-.2.3c0 0-.1.2-.2.3 0 0 .1-.1-.2-.7l-.4-.7-.7-.5c-.2-.2-.3.2-.4.1 0-.2.2-.3.3-.4 0-.1.2-.3.3-.4 0 0-.2.2 0 .4l.7.4h1.2c.3 0 .3-.1.4 0 0 .1-.2.3-.3.4 0 .1-.2.3-.3.4 0 0 .1-.2 0-.3H38Zm-18.6.8v-.1c.3-.3.6-.7.3-1.2-.2-.3-.5-.4-.7-.2-.6.4.5 1.4-.2 1.9-.3.2-.8.1-1-.3-.2-.3-.2-.5-.2-.6s-.1 0-.2 0l.5-.4-.1.2c-.2.3-.3.6-.1 1 .1.2.3.3.6.2.5-.3-.6-1.3.2-1.9.4-.3.9-.1 1.2.3.2.3.2.5.2.6s.2 0 .2 0l-.8.6Zm-2.6-2.1c-.3 0 0 .3-.1.4l-.2-.5c0-.1-.1-.3-.2-.5 0 0 0 .3.3.2l.8-.3-.3-.9-.8.3c-.3 0 0 .3-.1.4 0-.2-.1-.3-.2-.5 0-.1-.1-.3-.2-.5 0 0 0 .3.3.2l1.7-.6c.3 0 0-.3.1-.4 0 .2.1.3.2.5 0 .1.1.3.2.5 0 0 0-.3-.3-.2l-.9.3.3.9.9-.3c.3 0 0-.3.1-.4 0 .2.1.3.1.5 0 .1.1.3.2.5 0 0 0-.3-.3-.2l-1.7.6Zm-.9-3.5c-.3 0-.1.3-.2.3v-1.8l.7-.2-.3.2c-.3.2-.4.4-.4.8v.2h1c0-.3-.2-.5-.5-.5h1.1c-.3 0-.5.2-.5.5h.9c.2 0 .2 0 .2-.3 0-.6-.4-.8-.8-.9H17h.9v2c-.1 0 0-.3-.3-.3h-1.8Zm1.6-3c.3 0 .4 0 .5-.1 0 0 0-.2.1-.2v.8-.2c0-.1-.1-.3-.4-.3l-1.5-.3c-.2 0-.3.2-.3.3v-.8l1.9-.9-1-.2c-.3 0-.4 0-.5.1 0 0 0 .2-.1.2v-.8.2c0 .1.1.3.4.3l1.8.4h.1-.1l-2.3 1.1 1.4.3Zm1.3-2.7q.15-.45 0-.9c-.1-.2-.3-.3-.3-.4h.1l.6.5c-.1.3-.3.5-.4.8l-.4.8-1.4-2.1v.2c-.3.4-.2.6 0 .9.2.2.2.2.2.3l-.5-.5c.1-.2.2-.5.3-.7s.2-.5.3-.7l1.4 2.1v-.3zm-.8-2.7c-.2-.2-.3.1-.4 0 .1-.1.2-.3.3-.4 0-.1.2-.2.3-.4 0 0-.2.2 0 .4l.6.5.6-.7-.6-.5c-.2-.2-.3.1-.4 0 .1-.1.2-.3.3-.4 0-.1.2-.2.3-.4 0 0-.2.2 0 .4l1.4 1.2c.2.2.3-.1.4 0-.1.1-.2.3-.3.4 0 .1-.2.2-.3.4 0 0 .2-.2 0-.4l-.7-.6-.6.7.7.6c.2.2.3-.1.4 0-.1.1-.2.3-.3.4 0 .1-.2.2-.3.4 0 0 .2-.2 0-.4zm2.4-2.7c-.2-.2-.3 0-.4 0 .1-.1.3-.2.4-.3.4-.3.7-.5 1-.7l.5.4-.3-.1c-.3-.1-.6-.1-.9.1h-.2c0 .1.6.9.6.9.2-.2.2-.4.1-.7l.6.9c-.2-.2-.4-.3-.6-.1s.5.8.5.8c0 .1.2.2.4 0 .4-.3.5-.8.3-1.2V11l.3.7c-.4.3-.8.5-1.2.8-.1 0-.2.2-.4.3 0 0 .3-.1.1-.4l-1.1-1.5Zm3.3-.2c.1.3.2.3.4.3h.2c-.1 0-.2 0-.4.1-.1 0-.3.1-.4.2l.2-.1s.1-.2 0-.5l-.5-1.5c-.2-.1-.3-.1-.4 0 .1 0 .2 0 .4-.1h.4c0-.1 1.8.9 1.8.9l-.4-1c-.1-.3-.2-.3-.4-.3h-.2.4c.1-.2.3-.2.4-.3l-.2.1s-.1.2 0 .5l.6 1.7v.1h-.1l-2.2-1.3.5 1.3Zm-1.4 19.7c0 .2-.1.3-.3.4-.2 0-.3-.1-.4-.3 0-.2.2-.3.4-.3q.3 0 .3.3Zm12.6 0c0 .2-.1.3-.3.4-.2 0-.3-.1-.4-.3q0-.3.3-.3c.3 0 .3.1.3.3Z"/><path class="cls-1" d="M28.3 35.1c-1.9 0-3.8-.4-5.6-1.1-1.7-.7-3.2-1.8-4.5-3.1s-2.3-2.8-3.1-4.5c-.7-1.8-1.1-3.7-1.1-5.6s.4-3.8 1.1-5.6c.7-1.7 1.8-3.2 3.1-4.5s2.8-2.3 4.5-3.1c1.8-.7 3.7-1.1 5.6-1.1s3.8.4 5.6 1.1c1.7.7 3.2 1.8 4.5 3.1s2.3 2.8 3.1 4.5c.7 1.8 1.1 3.7 1.1 5.6s-.4 3.8-1.1 5.6c-.7 1.7-1.8 3.2-3.1 4.5s-2.8 2.3-4.5 3.1c-1.8.7-3.7 1.1-5.6 1.1m0-28c-7.5 0-13.6 6.1-13.6 13.6s6.1 13.6 13.6 13.6 13.6-6.1 13.6-13.6S35.8 7.1 28.3 7.1"/><path class="cls-1" d="M24.6 32.6c0 .1 0 .2.2.3.2 0 .2 0 .2.1-.2 0-.5-.2-.7-.2s-.5-.1-.7-.2h.2c.2 0 .3 0 .4-.1l.5-1.6v-.1l-.5-.2h1.1l-.6 1.9Zm2.4-1.7c.6 0 .9.6.8 1.1-.1 1-1.4 1.3-1.6 1.3 0 0 .8-.2 1-1-.1 0-.3.1-.5 0-.6 0-.8-.5-.7-.8 0-.4.4-.7 1-.7Zm-.1 1.4c.2 0 .4 0 .4-.1v-.3c0-.6-.1-.8-.4-.9-.2 0-.4 0-.5.6 0 .5.1.7.4.7Zm2-.1c-.2-.1-.3-.3-.3-.5 0-.4.3-.7.8-.8.4 0 .7.2.8.5 0 .2 0 .4-.2.5.3 0 .5.3.5.6 0 .4-.3.8-.9.8-.5 0-.9-.2-.9-.6 0-.2 0-.5.3-.6Zm.5 1.1c.4 0 .5-.3.5-.5s-.1-.3-.5-.4c-.4 0-.4-.1-.4-.1s-.2.2-.2.5c0 .4.3.6.7.6Zm0-2.3c-.2 0-.4.2-.4.4 0 .4.6.4.8.5 0-.1.1-.2.1-.4 0-.4-.2-.5-.6-.5Zm2.8.3c.3 0 .5.2.6.5.1.5-.2.9-.7 1.1s-.9 0-.9-.2c0-.1 0-.3.2-.3s.3 0 .4.3c0 .2.2.3.4.2.3 0 .4-.4.3-.7 0-.3-.3-.4-.5-.4h-.3s.1 0 .3-.2c0 0 .1-.3 0-.5 0-.3-.3-.3-.6-.3-.4.1-.3.4-.4.4 0 0 0-.6.5-.7.3-.1.7 0 .8.4v.4ZM25.9 22h.3-.4zm.8 1.7c0-.2 0-.2-.5-.2h-1.1s-.1 0-.1.1c0 .2 0 .1.7.1h.3c.5 0 .6 0 .7-.1Z"/><path class="cls-1" d="M34.3 17c0 .2 0 .4.2.5s2.2 2.3 2.2 2.3c.1.1.2.3.2.5v-2.8c0-.2 0-.3-.2-.4L32 12.4c-.1-.1-.3-.2-.4-.2h-.3s-.2 0-.2.2v2.2c0 .1-.1.2-.2.3h-.3v-2.2c0-.3-.2-.5-.5-.5h-3.7c-.3 0-.5.2-.5.5v2.2h-.3c-.1 0-.2-.1-.2-.3v-2.2s0-.2-.2-.2h-.3c-.2 0-.3 0-.4.2l-4.7 4.7c-.1.1-.2.3-.2.4v2.8c0-.2 0-.4.2-.5l2.2-2.3c.1-.1.2-.3.2-.5v.5c0 .2 0 .3-.2.5l-2.3 2.3c-.1.1-.2.3-.2.5v2.5c0-.2 0-.4.2-.5l2.2-2.3c.1-.1.2-.3.2-.5v.5c0 .2 0 .3-.2.5l-2.3 2.3c-.1.1-.2.3-.2.5v.4c0 .2 0 .3.2.4l.7.7 1.6-1.6c.1-.1.2-.3.2-.5v.5c0 .2 0 .3-.2.5l-1.4 1.4 3.8 3.8 1-1.8c0-.2.3-.3.5-.3h.4c-.2 0-.4.1-.5.3l-1.1 2h2.1l.4-2.1c0-.2.2-.3.3-.3h.3q-.3 0-.3.3l-.4 2h2.1l-.4-2c0-.2-.2-.3-.3-.3h.3q.3 0 .3.3l.4 2.1h2.1l-1.1-2c0-.2-.3-.3-.5-.3h.4c.2 0 .4.1.5.3l1 1.8 3.8-3.8-1.4-1.4c-.1-.1-.2-.3-.2-.5v-.5c0 .2 0 .4.2.5l1.6 1.6.7-.7c.1-.1.2-.3.2-.4v-.4c0-.2 0-.4-.2-.5L34.2 21c-.1-.1-.2-.3-.2-.5V20c0 .2 0 .4.2.5s2.2 2.3 2.2 2.3c.1.1.2.3.2.5v-2.5c0-.2 0-.4-.2-.5S34.1 18 34.1 18c-.1-.1-.2-.3-.2-.5V17Zm-4.2.2c0-.7 0-.6.5-.8.5 0 .7-.2.9-.1.2 0 .8 0 1.3.2.2 0 .1.1.1.9 0 .3 0 .3-.4.3h-.7c-.1-.1-.2-.8-.5-.8-.1 0 0 0-.2.4 0 0 0 .2-.2.3s-.5 0-.7 0c-.3 0-.2-.1-.2-.5Zm-.4-.6c0-.1 0-.2.1-.2.2 0 .2 0 .2.2v.8c0 .2 0 .5-.1.6-.1 0-.2 0-.2-.1v-1.2Zm0 1.8c.2 0 .2.6.2.6v1h-.2s-.1-.5-.1-.6v-.8c0-.3 0-.3.2-.3Zm-.6-.3v-1.7h.2c.2 0 .1.6.1.6 0 .6-.2 1.7-.2 2 0 .5.2 1.8 0 1.9H29c-.1-.3-.1-.9-.2-1.3v-1.3Zm-.5-.8v-.8h.2c.1 0 .2 1.2-.1 1.4h-.2v-.5Zm-.2 1.5c0-.5 0-.5.1-.7h.3v2.1h-.3v-1.4Zm-.4 5.5c0 .6 0 .5-.4.5h-1.3v.4c0 .2.1.3-.8.4-.2 0-1.6 0-1.7-.2s-.3-.4-.1-.7c.2.2.4.3.8.4.3 0 .9.1 1.2 0 .2 0 .2-.1.2-.4h-1.2c-.4 0-.3 0-.3-.2 0-.1 0-.2.3-.2H26V24h-.7c-.6 0-.5-.1-.5-.4 0-.5 0-.4.5-.4H27c.4 0 .4 0 .4.5 0 .2 0 .3-.4.4h-.5v.3h1s.3 0 .3-.3v-.7s0-.3-.3-.3h-2.6c-.5 0-.5 0-.6.3 0 .2 0 1-.2 1-.4 0-.3-.1-.3-.4s0-.6.1-.9c0-.2.1-.3 1.4-.3h2.3c.4 0 .5 0 .6.4v1.2Zm-3.7-2.6h.5c.3 0 .2 0 .3.2 0 0 0 .1-.2.1-.6 0-.5 0-.5.2 0 .1.1 0 .5 0 .2 0 .3 0 .3.1v.2h-1c-.2 0-.2 0-.2-.4 0-.3 0-.6.1-.9 0-.2 0-.1.8-.2.4 0 .3 0 .3.2 0 0 0 .1-.6.1-.3 0-.2 0-.2.2Zm.9-.3s0-.2.2-.2c0 0 .3.1.4.2h.2s.4-.2.5-.2c0 0 .2.2 0 .3-.1 0-.2.2-.3.2h.2c.1.2.2.2.2.4h-.1s-.1 0-.2.1h.2c.3.2.3.2.2.3s-.2 0-.3 0c0 0-.2 0-.4-.2-.1 0-.3.1-.4.2h-.3c-.1-.2 0-.2.1-.3 0 0 .1 0 .2-.1 0 0-.2 0-.3-.1 0 0-.1 0-.1-.1 0 0 0-.1.2-.3h.2c-.2 0-.3-.1-.3-.2Zm2.7 1.2h-1v-.1c0-.2 0-.2.3-.2s.5 0 .5-.1 0-.1-.5-.1H27c0-.2 0-.2.1-.2h.6c0-.1 0-.2-.2-.2H27c0-.2 0-.2.3-.2.4 0 .7 0 .8.1v.9c0 .3 0 .3-.1.3Zm0-1.7c-.1 0-.6-.6-1-1.1-.1-.2-.6-.5-1-.6-.6 0-1.4 1-1.7 1.4-.1.2-.2.3-.4.2s-.2-.1 0-.4c.2-.4.9-1.2 1.3-1.5.3-.3.4-.4.5-.7 0-.7 0-.9-.2-.9s-1.1-.2-1.1.4v.9c0 .3 0 .2-.3.2s0-.9 0-1.6c0-.4.3-.3.7-.3h.6c.3 0 .4-.2.4-.4 0-.3 0-.3.3-.3.2 0 .2.1.2.3 0 .3 0 .3.4.4h.9c.4 0 .6 0 .6.6 0 .5.1.9 0 1.1 0 0-.2.2-.4.1-.2 0 .2-1.2-.2-1.3-.2-.1-.9-.1-1.1 0-.2 0-.1.5-.1.7s0 .4.4.7.9.7 1.3 1.2c.2.3.5.6 0 .7Zm.2-6.1h-2c0-.3.2-.5.5-.5h1.2c.1 0 .2.1.2.2v.3Zm1.9 8.6s-.4.1-.4.2v.8h.4c.2 0 .2.5 0 .5h-1.4c-.2 0-.2-.1-.2-.3s0-.3.2-.2c.2 0 .3 0 .5-.1.1 0 0-.3 0-.5s0-.3-.2-.3c-.3 0-.4.1-.4-.4v-.5c0-.3 0-.4.3-.5.1 0 0 .4 0 .6v.4c.3 0 .1-.6.1-1.1 0-.4 0-.5.2-.6.2 0 .2 0 .2.3s0 1.2.1 1.2c.2 0 .2-.8.2-1s0-.3.2-.3.2 0 .2.2v1c0 .2-.1.3-.2.4Zm1.1 2.2h-.3c-.1 0-.2-.1-.3-.4 0-.2-.1-.4-.2-.7v-1c0-.2.1-.4.2-.6 0-.2.1-.3.2-.6v-.6c0-.1 0-.2-.1-.4 0-.2-.1-.3 0-.3.3 0 .3 0 .4.2.1.3.1.4.2.6 0 .2 0 .5-.2 1-.2.4-.3.6-.3 1.1s.1 1 .2 1.2c0 .1.2.4.1.5Zm.7-.7c0 .3.3.6.2.6h-.4c-.1-.1-.2-.4-.3-.8 0-.4-.1-.7 0-1.1.1-.6.4-.8.5-1.3v-.6c0-.2-.4-.6 0-.6h.3c.1 0 .3.5.3.8 0 .4-.1.7-.3 1.1-.1.4-.3.6-.3.9 0 .2 0 .6.2 1Zm1.1-2.2c-.2.6-.3.5-.4 1.2 0 .3.1.8.2 1 0 .2.2.6.1.6h-.4c-.1 0-.2-.5-.2-.6 0-.4-.2-1.1 0-1.6 0-.2.2-.4.3-.8 0-.6 0-.7-.1-.9 0-.2-.2-.3 0-.3.4 0 .4.1.5.4v1.1Zm-.1-2.1c-.2 0-.2 0-.2-.4 0-.2 0-.9-.3-1q-.45-.15-.6 0v1.3c0 .3-.1.2-.3.2s-.2-.2-.2-.4v-1.1s-.5 0-.6.4c0 .5-.1.8-.1.9v.2h-.3V20c0-.3.1-.5.2-.8 0-.2.5-.3.8-.4.2 0 .1-.3 0-.3h-.6c-.1 0-.3.1-.4-.1 0-.1 0-.2.3-.2h.7v-.3h.2c.2 0 .1 0 .1.3 0 0 0 .1.5.1h.7v.3h-1.1v.2l.2.1c.8.2.8.2 1 .7v.8c0 .1 0 .3-.2.3Z"/><path class="cls-1" d="M32.3 17.2h.2c.1 0 0-.2 0-.4 0-.1-.3-.1-.4-.1 0 0-.1 0-.1.1 0 .5 0 .4.3.4m-1.7.1h.1c.3 0 .3-.2.3-.4h-.3c-.2 0-.2 0-.2.1v.3Z"/></g></svg>