<svg width="128" height="137" fill="none" xmlns="http://www.w3.org/2000/svg"><g filter="url(#a)" fill-rule="evenodd" clip-rule="evenodd" fill="#006097"><path d="M20 63.977C20 88.268 39.627 108 63.813 108v-1.831c-23.202 0-41.98-18.885-41.98-42.192 0-23.26 18.778-42.235 41.98-42.235 23.154 0 42.02 18.975 42.02 42.235 0 23.307-18.866 42.192-42.02 42.192V108c24.137 0 43.807-19.732 43.807-44.023C107.62 39.736 87.95 20 63.813 20 39.627 20 20 39.736 20 63.977"/><path d="M32.16 63.977c0 17.548 14.17 31.834 31.653 31.834v-1.204c-16.81 0-30.446-13.707-30.446-30.63 0-16.877 13.635-30.584 30.446-30.584 16.805 0 30.44 13.707 30.44 30.584 0 16.923-13.635 30.63-30.44 30.63v1.204c17.432 0 31.647-14.286 31.647-31.834 0-17.502-14.215-31.788-31.647-31.788-17.483 0-31.653 14.286-31.653 31.788"/><path d="M53.483 38.931a4 4 0 0 1-.491 1.162c-.359.356-.628.623-.982.89l.354.8c.628-.445 1.03-.933 1.39-1.422l1.515 3.343 1.254-.575-1.966-4.6zm6.571 2.499v.85c-.493.043-.85 0-1.116-.134-.448-.178-.628-.452-.851-.85l1.388-.313c.086.224.177.312.31.355.044.093.135.093.269.093Zm0-4.33v.758c-.093 0-.134 0-.225.088a.9.9 0 0 0-.625.273c-.134.133-.221.443-.134.712 0 .36.134.582.357.716.134.089.402.128.627.089v.756c-.627.088-1.116 0-1.607-.265a1.43 1.43 0 0 1-.806-1.073c-.044-.492.09-.936.492-1.339.357-.364.937-.578 1.653-.715zm1.61.351c-.402-.305-.984-.44-1.61-.351v.758c.136 0 .36.088.581.225.18.136.359.354.402.625 0 .314-.043.488-.222.718-.135.13-.401.31-.625.31h-.136v.756c.492-.043.94-.265 1.25-.63 0 .587-.042.988-.176 1.209-.222.224-.448.36-.714.36-.134.046-.27.046-.36 0v.849h.36c.757-.134 1.426-.497 1.831-.942.494-.488.625-1.203.494-2.142-.137-.844-.494-1.471-1.074-1.745Zm4.739-.486v.76c-.134.09-.18.09-.268.09-.137.044-.27.177-.358.357-.134.265-.224.716-.268 1.254-.09.575-.09 1.023 0 1.203a.87.87 0 0 0 .268.486c.133.092.267.18.446.18h.18v.763h-.268c-.715-.09-1.254-.275-1.699-.763-.358-.355-.583-1.068-.402-2.099.044-.89.402-1.514.892-1.872.449-.313.85-.447 1.477-.36Zm.31 0h-.31v.76c.09 0 .134 0 .223.09.134 0 .268 0 .448.131.132.046.175.226.268.406.044.22.044.713 0 1.295-.093.58-.136.982-.268 1.203-.09.22-.223.357-.36.357-.088.088-.222.088-.311.088v.763c.582.088 1.071-.09 1.474-.275.536-.352.851-1.067.94-2.008.137-.887 0-1.603-.49-2.093a2.6 2.6 0 0 0-1.613-.718Zm4.293.85-.357.756 3.04 1.292c-.847.272-1.566.629-2.19 1.12-.624.584-1.072 1.163-1.343 1.788l1.298.49c.133-.4.401-.758.806-1.293.443-.4.937-.76 1.517-1.118.537-.27 1.119-.49 1.52-.623l.315-.671zm-32.724 1.381c-.356-.399-1.202-1.25-2.1-1.871-.801-.672-1.654-1.07-2.146-.716-.49.355-.357.537-.399.98-.136.27-.36.494-.584.717-.268.222-.893.625-1.205 1.069-.046.272-.494.138-.537.361-.091.177-.225.357-.137.536.27.935 2.237 2.858 2.237 2.858s.94.937.94.849a11.4 11.4 0 0 0 1.52 1.427c.356.041.804 0 .712-.134-.356-.672-1.34-1.293-1.74-1.876-.582-.757-1.206-1.338-1.79-2.057-.131-.132-.268-.4-.402-.622-.09-.088-.09-.268 0-.49.045-.134.27-.364.492-.67.268-.492.716-.986.893-1.474.179-.137.446-.358.446-.358.225-.224.628-.136.853-.044.269.044 1.07.756 2.054 1.745.67.667.853.575 1.027 1.334.093.31-.268.223-.268.355-.131.362-.131.668.584.853.133.09.402.218.535.09.089-.09 0-.229-.045-.49-.314-.851-.134-1.207-.94-2.372"/><path d="M34.887 39.913c0-.177-.137-.4-.358-.486-.314-.052-.85.708-.76.845 0 .22.09.445.224.357.134 0 .983-.357.894-.716m1.431.667c-.358.049-.76.137-.848.137-.27.354-.36.578-.763.977.043 0-.09.364.043.492.092.225.317.36.585.494.223.091.758.222.983-.357.088-.265-.27-.406-.446-.494v-.135h.221c0-.042.49.135.627.135.18-.352.448-.846.18-1.25-.18-.218-.317-.087-.582 0Zm14.887-14.149c.086-.047.086-.047.18-.134-.314-.357-.715-.984-.85-.938-.093.087-.136.087-.227.312-.13.226-.09.4.361.713.22.047.355.047.536.047m3.218.484c.043.098.134.229.134.363-.091.31-.225.445-.314.579-.134.226-.045.49.09.58.492.137.58-.672.58-1.34 0-.31-.088-.58-.088-.8.089-.226.489-.4.581-.357a2.8 2.8 0 0 0 .356.94c.134.349.494.709.627.755.627.222.356-.27.356-.72 0-.036-.088-.036-.134-.036-.177 0-.31.036-.447-.092-.044-.045-.49-.978-.49-1.116.088-.134.446-.312.49-.49.092-.184 0-.447-.044-.447-.181.09-1.162 1.206-1.295 1.337-.132.091-.268.091-.359 0-.043-.046-.134-.534.626-1.563.222-.354.177-.354 0-.491-.134-.043-.314.137-.535.137-.225 0-.359-.05-.359-.137-.089-.131 0-.354-.089-.488-.134-.36-.716-.134-.982.221-.27.355-1.117 1.964-.763 2.275.36.18.72-.578 1.03-.935.36-.356.715-.356.804-.356.359 0-.445 1.206-.134 2.145 0 .219-.357.487-.581.35 0 0-.356-.576-.625-.713-.134 0-.359.582-.134.85.134.357.85.223-.225 1.655-.269.262-.269.671-.269.98 0 .401.134.758.403.758.359.088.585-.357.628-.494.132-.128.356-.707.446-1.339.046-.44-.09-.843.046-1.203.177-.27.356-.494.67-.808m-3.489 1.077c.358-.49.224-.894-.355-1.25-.18-.089-.043.402-.043.76.043.087 0 .49 0 .624-.094.178 0 .67.398-.134m.719 3.617v-.984c-.09-.223-.495-.758-.853-1.83-.09-.221-.358-.221-.358 0 0 .131.448 1.47.492 2.321.09.719.137 1.43.224 2.143.047.401.718 1.208.852 1.118.132-.049.22-.181.044-.85a83 83 0 0 1-.401-1.918"/><path d="M59.427 25.94c-.086-.043-.223.085-.357.085-.58.046-1.07.137-1.473.046-.136 0-.314-.046-.314-.174-.044-.088 0-.226 0-.45 0-.134-.044-.357-.178-.357-.226 0-.448.223-.494.357-.177.133-.221.224-.221.624-.09.226-.09.36.044.445.177.137.536.137.85.137.67.09 1.428.226 1.698.09.311-.09.58-.312.67-.36.046-.178.046-.358-.225-.443m-2.322 2.006c-.226-.09-.36.046-.582.272-.223.219-.089 1.111-.36 1.474 0-.046-.133-.134-.224-.363-.043-.13-.043-.308-.265-.403-.137-.089-.137.139-.268.273-.224.31-.358.493-.448.574-.358.138-.18-.575-.492-.752-.134-.226-.402.177-.357.537 0 .215.134.58.134.795.089.23.089.54.089.63.134.358.225.803.446 1.075.18.265.491.219.314-.45 0-.358-.314-.983-.134-1.343.134-.218.448-.218.58-.04.136.177.136.622.267.668.134.223.358-.046.45-.268.045-.043.045-.36.18-.714 0-.219.176-.353.222-.582.088-.264.088-.492.313-.492.269-.042.401.318.535.492 0 .23.092.363.136.671.09.225 0 .893 0 1.34-.044.224-.044.36-.044.446.134.135.268.181.402-.802.088-1.073.134-1.073 0-1.829 0-.581-.628-1.163-.894-1.21Zm21.058-1.741c-.36.179-1.165.71-1.654 1.384-.536.63-.63.848-.856.715-.175 0-.13 0-.49-.221-.4-.137-.715-.137-1.026-.226-.314-.092-.715.226-.803.447-.137.27 0 .27.219.404.136.13.895.357 1.121.357.133-.044.356 0 .313.133 0 .085-.938.802-1.297 1.067-.356.226-1.072.719-1.206.94-.27.27.088.496.311.496.131 0 .49-.272 1.028-.45a3.14 3.14 0 0 0 1.34-.626c.315-.223.85-.852.984-.933.179-.046 1.342.8 1.656.8.132-.09.36-.267.535-.445.225-.18.088-.4-.175-.4a10 10 0 0 1-1.299-.492c-.356-.229-.047-.36.134-.581.177-.226 1.03-.985 1.428-1.43.493-.402.585-.713.493-.76-.088-.222-.4-.222-.756-.179m-1.706 5.045c-.131 0-.31.359-.444.536-.04.135.09.403.09.67.044.314.406.936.624 1.07.137.091.271-.134.585-.532.265-.448.265-.448-.09-.936-.271-.45-.495-.808-.765-.808m21.462 8.486c-.134-.31-1.028-.582-1.254-.714-.357-.134-.09-.36-.09-.45-.041-.135-.353-.044-.489-.22-.134-.133-.134-.36-.044-.406 0-.087.044-.13-.09-.264-.134-.18-.134 0-.581 0-.402 0-.402.043-.402.133 0 .131 0 .268-.225.357-.267.047-.49.134-.623.356-.226.27-.36.36-.36.403 0 .09.134.134.225.134.135 0 .624-.268.846-.357.137-.046.628-.18.719-.137.133.091.133.317.043.317q-.067.065-.265 0c-.226 0-.806.177-.99.308-.218.179-.31.36-.176.45.177.217 1.388.217 1.655.129.044 0 .134-.349.49-.349.226 0 .494.22.628.31.13.127.269.127.223.265 0 .134-.223.134-.45.226-.133 0-.175-.092-.175-.226 0-.138-.09-.226-.313-.138-.18 0-.493.23-.761.272-.357.092-1.071.137-1.207.137-.132 0-.848-1.076-1.074-1.207-.13-.177-.044-.268-.044-.403 0-.09 1.341-.847 1.742-1.073.494-.226.583-.443.583-.624-.09-.312-.583-.176-.85.046-.27.135-.94.67-1.074.848-.177.133-.401.447-.535.36-.223-.047-.223-.494-.311-.63-.046-.138-.18-.138-.405-.138-.314.05-.448.364-1.114.721-.317.18-.448.18-.582.356-.09.043-.09.27 0 .36.134.134.49.043.713 0 .18 0 .358-.18.492-.226.043 0 .491.492.759.713.27.181 1.208 1.342 1.342 1.385.494.31 1.074 1.157 1.074 1.208.043.09.134.218 0 .312-.225.131-.225.131-.225.266.088.093.627.491.806.584.178 0 .672 0 .758-.228.135-.042-.087-.222-.133-.356-.133-.135-.133-.488-.357-.629-.267-.134-1.208-1.288-1.208-1.288 0-.05.627-.18.76-.137.18.088.18.358.448.448.134 0 .134-.09.268-.09.222-.09.222 0 .937 0 .716-.09.762-.133.896-.401.134-.177.222-.448 0-.713M93.18 41.43c-.045-.135-.895-1.07-1.118-1.203-.225-.092-.358-.092-.492 0-.088.134-.268.353-.356.402-.043.088.222.31.356.354.134.132.358.448.492.494.223.09.49 0 .448.217 0 .135-.448.492-.673.452-.401 0-.758-.67-1.206-1.03-.133-.133-.402-.133-.534-.133-.134-.133-.314 0-.314.088 0 .136.18.267.18.406.044.217.178.306.402.44.358.23.714.586.849.721.088.133.222.264-.226.492-.357.221-.847.355-1.251.221-.447-.221-.716-.49-.76-.805-.09-.223-.222.093-.314.314-.043.177-.268.491-.22.625.086.131.086.219.444.357.36.045 1.21.268 1.568.225.759-.088 1.027-.671 1.205-.671.044 0 .177.22.311.308.091.049.314.497.582.497.225 0 .497-.091.358-.585-.087-.22-.267-.22-.581-.625 0-.13.18-.445.223-.445.09.093.983.093 1.117 0 .09-.043.225-.488.182-.578 0-.139-.584-.491-.673-.537ZM45.617 62.95c-.09.137-.18.225-.27.314-.716 1.16-1.7 5.044-1.385 6.83.313 1.652.447 2.723 1.655 4.199zm0-15.625v3.615c-.715.671-1.475.805-1.166 1.247.18.358.628.317 1.166.494v2.453c-.226-.088-.492-.088-.76-.088-1.477.088-2.326.85-2.326 1.476 0 .67.715 8.122.493 9.376-.226 1.295-1.835 5.49-1.343 7.544.582 1.965 2.64 3.84 3.13 3.84.179-.045.49-.183.806-.317v7.416c-1.655-1.826-4.873-5.582-5.903-7.815-1.432-3.078-.492-4.954-.087-8.081.444-3.124.31-8.172-.137-10.94-.491-3.792.627-4.057 1.835-5.266 1.115-1.113 2.323-1.339 2.637-2.99.133-1.208-.716-1.745-.805-2.409-.09-.538 1.566-.27 2.46.445m0 3.615v-3.615c.177.134.356.312.445.49.58.98.624 2.051-.223 2.899a.53.53 0 0 1-.222.226m0 4.194c.804.183 1.34.762 1.741.894v.094-2.187c-.09-.182-.18-.226-.311-.354-.492-.585-1.03-.808-1.43-.9zm0 19.159c.088.136.177.224.311.355.402.4.982.714 1.43.982v-3.707c-.09-.131-.18-.27-.18-.311-.492-.893-1.025-2.587-.667-4.553.268-1.876.131-2.506.756-2.856l.091-.049v-2.987c-.716.712-1.385 1.337-1.74 1.783zm0 10.088a25 25 0 0 0 1.025 1.116s-.221.715-.49 1.296c-.224.627.36.758.673.758.085 0 .353-.267.533-.625v-6.34c-.672-.403-1.205-1.116-1.43-1.698-.134-.53-.715-.894.225-1.113.177 0 .672 0 1.205.046v-1.206c-.311.088-.672.088-.937.088a2.2 2.2 0 0 0-.804.262zm2.055-3.614v5.489c-.09.133-.223.401-.314.581v-6.251c.09.092.225.134.314.181m0-4.152v1.25c-.09 0-.223 0-.314-.043v-1.207zm0-4.152v3.344l-.314-.177v-3.707c.09.181.225.36.314.54m0-11.61v3.08c-.09.044-.223.133-.314.221v-2.987zm0-6.432v1.7c-.09.044-.177 0-.314 0v-2.186c.137.132.225.31.314.486M52.23 88.58a15 15 0 0 0 2.013.67v-4.374c-.402-.09-.76-.318-.49-.988.088-.308.311-.666.49-1.025v-2.184c-.536.805-1.385 1.78-2.013 2.184zm2.013-31.25c-.76 0-1.61 0-2.013-.092v1.381c.628-.226 1.477-.442 2.013-.442v-.846ZM52.23 71.388c.494-1.874 1.163-3.926 1.477-5.04.046-.138.357-.094.536-.226v-1.34c-.045 0-.134-.09-.045-.228 0-.039.045-.219.045-.35v-2.816.044a35 35 0 0 1-.67 2.009c-.355 1.251.044 1.61-.983 1.836h-.36v1.07c.27 0 .494 0 .403.045-.043.22-.134.936-.403 1.783zm2.013 3.623c-.49-.094-1.385 0-2.013 0v1.065c.36.046.671.046.897.134.49 0 .714.045 1.116.847v.092zm0 14.239v-4.374c.223.043.535.043.715.043.134 0 .311.088.448.088v4.418c-.314 0-.581 0-.85-.087-.09 0-.224-.088-.313-.088m0-25.046v-2.816c.535-1.427.85-2.455.85-3.078 0-.133-.269-.226-.85-.133v-.846h1.163v3.523a69 69 0 0 0-1.163 3.35m0 1.918c.09 0 .223 0 .314-.138.043-.129.136-.623.043-.934 0-.221-.177-.221-.357-.267zm1.163 9.823v5.807c-.358.218-.806.619-1.163 1.111v-2.184c.357-.45.581-.763.581-.939.134-.494-.224-1.745-.581-2.591V75.01c.09 0 .18.037.223.037.448.181.626.315.94.897Zm0 13.48c.533.046 1.117.136 1.564.136v-4.554c-.359.226-.94.092-1.564 0zm0-28.571c.268-.98.49-1.606.533-1.741.09-.229.672-.18 1.03-.18v-1.386c-.224-.131-.849-.216-1.563-.216zM56.97 78.62c-.806.087-1.074.087-1.385-1.473-.048-.582-.134-.939-.179-1.204v5.807c.045-.091.179-.091.179-.091.31 0 .67 1.16.804 1.693.134.311.402.713.58 1.074v.09-3.75c-.09-.226-.178-.361 0-.584zm0-15.046c-.313.716-.67 1.433-.806 1.785-.713 1.921-.85 3.752-.402 5.18.401 1.341.85 2.277 1.208 2.948v.088-10Zm0 25.985v-4.554c.135-.131.135-.268 0-.49v-3.709c.046.093.135.227.18.447.221.625.49 1.07.85 2.276.31.763.49 1.208.712 1.388v6.964c-.402.315-.98-.226-.98-.226s.133-.402.223-.756c.132-.226.132-.494.267-.759.134-.445-.357-.445-1.252-.581m0-30.628c.046 0 .046 0 .135-.049.356-.127.492-.931-.135-1.337zm1.742 1.38v3.842c-.49.399-.625 1.7-.713 2.456-.224 1.522.223 2.635.713 3.574v10.268c-.134-.046-.265-.046-.402-.138-.85-.4-.939-.575-1.294-.131h-.046V78.62c.046 0 .046-.088.135-.088.85 0 1.519 0 1.519-.712 0-.627-.268-1.877-.625-2.414-.268-.49-.628-1.026-1.03-1.831v-10c.315-.806.672-1.561.896-2.01.268-.626.491-.847.847-1.253Zm0-6.603v1.697c-.222-.226-.356-.486-.265-1.074.043-.265.13-.486.265-.623m0 38.173c0-.045.09-.045.09-.045.136-.223.312-.67.402-1.208.137-.666.27-.843.27-.843s.94.043 2.01.126v-4.055c-.18-.05-.313-.137-.356-.272-.448-.71-.091-1.652.357-2.857v-3.483c-.448.088-.579-1.205-.579-1.92-.09-.622-.27-.71-.137-1.695 0-.354.359-.13.716.134v-2.322c-.716-.446-1.565-1.16-2.058-1.918-.223-.356-.49-.805-.715-1.294v-.046 10.268c.629.356.986.668 1.342.802.447.229.581.537.27 1.788-.362 1.251-.538 2.056-1.03 2.095-.224 0-.448 0-.582-.219zm2.773-36.925c-.357-.399-.579-.847-.85-1.022-.355-.319-1.43-.848-1.923-.226v1.697c.358.268.94.222 1.568.444.757.178 1.025.896.848 1.25-.627 1.076-1.342 1.783-2.014 2.634-.176.272-.311.45-.402.579v3.841c.09-.088.09-.177.226-.177.537-.131 1.742 1.384 2.547 1.92V63.13c-.491-.897-1.071-2.097-.579-3.17.088-.36.265-.668.579-1.028zm2.368 13.883v7.95c-.177-.087-.354 0-.49.047-.36.128-.493.799-.761 2.005-.223 1.253-.357 1.207-.85 2.909-.087.266-.13.619-.267.932v.045-3.483c.404-.043.494-1.25.538-1.783.222-.847.356-1.027-.044-1.34a2.2 2.2 0 0 1-.494-.358v-2.322.046c.404.222.76.353 1.028.353.314 0 .938-2.9 1.34-5Zm0-3.703v1.254c-.535-.138-1.519 0-2.1-.27-.088-.046-.132-.138-.268-.223V63.13v.085c.18.405.494.762.626 1.076.357.49 1.071.758 1.742.846Zm-2.368 24.775v-4.055.089c.538.178 1.519.042 2.368-.138v4.155h-.134c-.49 0-1.385 0-2.234-.05Zm2.368-33.884v1.163a5.3 5.3 0 0 0-.983.491c-.491.355-.98.76-1.385 1.25v-3.975c.404.67.85 1.208 1.117 1.165.268 0 .76-.094 1.251-.094m0 33.935c.717 0 2.282-.05 3.713-.05h.042v-3.837h-.042c-.672.223-1.074.049-.852-.356.137-.265.535-.802.852-.982h.042v-1.784s-.042 0-.042.088c-.092.622-1.568 1.964-2.414 2.413-.27.042-.806.265-1.299.353zm3.755-12.638-.042-.043c-.852-1.028-3.622-2.588-3.622-2.588-.09-.133-.09-.264-.09-.401v-.357c.09-1.702 1.298-5.267 1.52-6.609 0-.223.046-.49.135-.936.134-.316 1.028 0 .845-1.208 0-.267-.219-.892-.219-1.029.491-1.556.983-3.301 1.431-4.554l.042-.088v-4.195h-.042c-.852 0-1.656.09-2.28.357-.405.176-.94.314-1.433.354v1.163a22 22 0 0 0 1.79-.578c1.208-.359 1.342.442 1.342.442s.133.673-.582 2.591c-.716 2.011-1.251 5.27-1.744 5.491a2.4 2.4 0 0 1-.806 0v1.254c.225 0 .315.082.315.22 0 .135-.09.986-.315 2.058v8.122c.359.046.717.49 1.208.67.716.447 1.208.667 1.342 2.144.134 1.515 1.071 2.544 1.163 3.215h.042zm0-17.813c.357-.983.625-1.784.718-1.917.268-.494 1.203-.756 1.475-.849.803-.046.626-.492.266-.896-.178-.222-.979-.352-1.965-.444-.225-.09-.359-.09-.494-.09zm3.89 2.276v6.344c-.044.491-.224.98-.268 1.38-.087 1.073 0 1.875.268 2.37v9.732c-.355.265-.715.494-1.071.756-.986.584-.986 1.294-.76 2.011.09.625 1.116 1.116 1.831 1.204v5.806c-.4.446-1.071.134-1.071.134 0-.492-.134-.359.088-.762.134-.486.223-.85.223-.85h-3.13v-3.837c.718-.268.805-.268.942-.94.044-.49-.36-.58-.716-.49-.09 0-.134 0-.226.092v-7.413c.135.092.226.226.226.363.356.933.76 4.19 1.205 4.281.402.048 1.565-1.291 1.744-1.92.447-1.292-1.342-2.767-1.878-3.702-.579-.94-1.43-4.735-.492-7.862.404-1.515 1.88-4.551 3.085-6.697m0 29.603c.135-.137.223-.358.27-.628.087-.449.087-.8.221-1.203.09-.09.583-.136 1.433-.357.221 0 .401-.088.627-.134v-4.553c-.226 0-.272-.27-.272-.937 0-.49.136-1.075.272-1.562V78.4l-.092.087c-.18.27-.314.492-.535.401-.225 0-.496-.355-.938-1.2-.361-.723-.538-1.613.088-2.28.27-.266.537-.398.85-.398.221-.094.401 0 .627 0v-1.568c-.226-.088-.406-.088-.627-.134-.496 0-.85-.223-1.072-.313-.27-.27-.629-.532-.852-1.072v-.042 9.733c.448-.314.762-.58 1.12-.806.223-.13.667-.267.804 0 .046.14.046.358 0 .716-.088.136-.088.227-.088.267-.493 1.297-.762 3.706-1.479 3.794h-.357zm2.551-32.773c-.226.138-.406.314-.627.494-.447.354-.804.717-.984 1.071-.224.402-.583.896-.94 1.513v6.436-.092c.357-1.649.94-3.258 1.12-3.615.308-.491.445-.222.804.089.13.039.221.177.355.177.046 0 .18.09.272.137zm0-5.002c-.226 0-.406 0-.627.093-.225 0-.359.044-.496.226-.937.888-.354 1.382.496 1.693.221.046.401.13.627.13zm1.696 18.89v3.258c-.49 1.027-.715 2.636-.938 3.481-.133.58-.359 1.296-.536 2.055-.09.225-.134.45-.222.717V78.4c.088-.132.131-.272.222-.406.043-.358.134-.846.268-1.513.268-.982.09-1.252-.268-1.339-.09-.095-.134-.095-.134-.095l-.088-.037v-1.568h.222c.403 0 .847-.088 1.117-.223.134-.042.224-.357.357-.713ZM74.05 89.069v-4.553c.088.04.131.04.222.04.268-.04.716-.263 1.382-.49h.092v4.293c-.581.265-1.07.488-1.474.622-.09 0-.134 0-.222.088m1.696-31.613v1.656c-.223.18-.357.4-.49.534-.493.85-.807 1.073-.627 2.587.046 1.12.536 1.744 1.117 2.101v1.564c-.49-.136-1.07-.622-1.474-.89-.09-.092-.134-.18-.222-.18v-6.21c.088-.09.131-.09.222-.177.403-.358.983-.623 1.474-.985m0-3.256v2.142c-.267-.177-.581-.314-.849-.354-.134-.092-.448-.092-.625-.138-.09 0-.134 0-.222-.091v-2.142h.222c.403.092.893.318 1.34.493 0 0 .042.09.134.09m0-11.429v.58c-.983-.49-.983-.805 0-.58m0 45.588c.359-.137.712-.363 1.12-.497V83.53c-.356.183-.761.403-1.12.536zm1.12-32.953a3.7 3.7 0 0 0-1.12-1.206v2.142c.359.18.712.404.982.536-.27.177-.623.36-.982.578v1.656c.268-.356.712-.72 1.12-1.075v-2.63Zm0 17.59c-.223-.045-.138-.762 0-1.92v-6.432c-.356.047-.761 0-1.12-.31v1.564c.134.085.268.177.402.177.31-.093.67-.177.717-.22v.043c-.047.449-.356 2.587-.626 3.569-.134.717-.265 2.187-.493 3.039v3.258c.134-.357.268-.535.493-.717.219-.037.404-.175.626-.268zm0-29.866c-.138 0-.223-.093-.356-.139-.271-.089-.536-.13-.764-.22v.58c.228.134.402.179.712.353.14.138.27.183.407.275zM47.671 56.121c.402-.046.535-.805 0-1.7zm0 7.812v-3.081c1.476-1.34 2.997-2.677 2.907-2.949-.044-1.204-.627-.803-1.342-1.562-.537-.805-.223-2.232 1.653-1.162.85.494.267 1.52 1.12 2.011.044.046.132.046.22.046v1.381c-.176.046-.312.138-.49.183-.94.665-1.341.665-1.923 1.65-1.071 1.962 0 2.273.402 3.258.581 1.119 1.208 1.567 2.011 1.567v1.07c-.446 0-1.072.045-1.43-.138-.623-.354-1.074-.847-1.966-2.005-.447-.536-.804-.45-1.162-.27Zm0 22.322v-5.489c.137.04.268.087.446.133.226.047.582-.717.716-1.43.135-.713.49-1.202.135-1.43-.046 0-.625-.085-1.297-.175v-1.25c.535 0 .937 0 .937-.18 0-.135-.402-.36-.937-.628v-3.344c1.074 1.378 2.188 1.967 2.547 1.918.45-.088.715-2.458 1.343-3.931a20 20 0 0 0 .668-2.276v3.26c-.49 1.874-.845 3.438-.668 3.482.09.094.356.094.668.094v1.065c-.577-.09-1.159 0-1.296.272-.044.356.85 1.56.719 2.012-.362.753-1.345-.091-1.476.35-.45 1.34-.852 2.679-.94 3.042-.046.573.58.486 1.071.848.582.263.626.931 1.476.578.134-.089.27-.135.446-.315v5.717c-1.831-.804-3.755-1.922-4.47-2.503 0 0-.043.049-.088.18m31.784-4.731v4.73c-.09.093-.222.183-.314.222-.804.54-1.565.943-2.278 1.297V83.53a15.8 15.8 0 0 0 2.592-2.005Zm0-8.663v1.699a.48.48 0 0 0-.314-.132c-.624 0-1.565.132-2.278.35v-1.783c.803.13 1.967-.134 2.592-.134m0-17.103v4.96c-.268.846-.537 1.74-.805 2.72-.088.362.49.715.49 1.114-.089 1.301-.978 1.075-1.07 1.522-.494 1.827-.896 3.66-1.207 4.955v-6.386c.134-.091.22-.091.311-.091.402-.219.628-1.695.852-2.674.177-1.026.892-3.123 1.115-3.796.224-.537.136-1.607-.804-1.028-.403.182-.895.54-1.474.982v-2.63c.357.443.579.758.713 1.069.627-.311 1.117-.488 1.342-.58zm0-11.247v1.652c-.805-.846-1.7-1.652-2.592-2.185v-.85c.85.313 1.74.8 2.592 1.383m0 1.652v-1.652c1.295.935 2.546 2.097 3.622 3.213h.09v3.215h-.09c-.27-.49-.54-.982-.985-1.517-.535-.715-1.52-2.05-2.637-3.259m0 14.555v-4.96c.803-.131 1.385.09 1.385.09s2.727.493-.09 1.389c-.178.043-.67 1.475-1.295 3.48Zm0 25.536v-4.73l.046-.042c.535-.583 1.386-2.595 1.386-3.215 0-.58-.672-3.083-1.432-3.707v-1.7c.133-.044.224 0 .313 0 .49.224 1.342 2.903 1.43 3.125 0 0-.358-12.899.402-16.026.27-1.204.937-2.142 1.477-2.86h.09v2.5h-.09c-.177.406-.27.762-.27.985 0 .494.093 1.111.27 1.072h.09v15.979c0 .052 0 .052-.09.052a.8.8 0 0 1-.135.44c-.49 1.254-1.117 2.055-1.117 2.055-.627.983-.938 1.786.357.764.355-.406.626-.764.895-1.123.09 0 .09-.085.09-.085v3.081h-.09c-.895.98-2.147 2.363-3.622 3.436Zm8.136-33.168c-.537-.808-2.323-3.089-4.423-5.362v3.215c1.61 2.64 2.054 4.597 2.054 4.597s-1.074.491-2.054 1.564v2.5c.355-.8.98-1.65 1.428-2.055.76-.707 1.116 0 1.028.358-.046.852-.713 1.473-1.208 1.742-1.207.939-.85 1.74-1.207 1.92-.041 0-.041 0-.041.091v15.979c.712-1.915.625-3.075.577-5.402-.088-2.721-.222-5.398.048-4.953.355.402 1.205 3.887 1.205 5.58-.087 3.348-.087 4.6-1.83 6.878v3.081c.355-.362.712-.712.98-1.03 2.325-2.185 2.906-5.581 3.307-6.648.357-1.117.09-2.68-.622-4.692-.581-1.916-1.34-4.596-1.702-6.247-.401-1.605-.535-2.993-.046-3.707.408-.667.493-.762 1.167-.402.581.268.848.985.581 3.883-.269 3.082.088 3.794.936 1.92.674-1.694.625-3.527.674-4.687.176-1.204.356-2.278.67-2.818.267-.574-.494-3.703-1.522-5.305M26.619 76.209c-.136-.088-.27-.134-.404-.223-.715-.356-1.208-.976-1.432-1.832-.177-.8-.043-1.557.315-2.273.402-.713 1.117-1.2 2.01-1.43a2.3 2.3 0 0 1 .716-.138h.09v1.074c-.137 0-.27.046-.494.046-.982.22-1.652.671-2.053 1.204-.36.448-.36.939-.269 1.433.134.578.491.977 1.027 1.206.178.087.314.131.447.131.134.092.267.092.49.092h.046c.178 0 .312 0 .358-.092h.358l.09-.044v1.072c-.448 0-.852-.088-1.296-.226Zm1.295.226c.268 0 .491-.088.759-.181.848-.268 1.564-.67 2.011-1.383.402-.801.536-1.517.313-2.274-.179-.805-.627-1.338-1.342-1.79-.134-.088-.265-.127-.359-.222-.043 0-.043 0-.043-.046-.13 0-.27-.089-.446-.089v-.088c-.134 0-.27 0-.402-.049h-.49v1.074a4.1 4.1 0 0 1 1.381-.088v.088c.18 0 .314.046.451.046.49.22.76.671.937 1.164.134.58.045 1.07-.223 1.473-.446.49-1.165.94-2.145 1.206-.134.087-.27.087-.402.087zM24.74 66.347l4.556-.364.094.945c.086.176 0 .4-.094.533-.043.222-.13.31-.313.44-.085.051-.31.051-.578.139l.088.226 1.388-.226-.36-4.953h-1.385v.177c.27 0 .494 0 .628.176.219.046.268.18.358.361.043.133.043.353.131.624v.712l-4.601.362c-.36 0-.54 0-.716-.092-.137-.046-.267-.27-.267-.58v-.183l-.137.047.137 2.59h.218v-.222c-.088-.223 0-.449.05-.585.175-.083.355-.083.803-.127m9.742 15.761c.225.041.36.13.494.396l.09.224.135-.044-.94-1.917-.225.04.179.14c.046.22.136.44.046.578-.046.135-.268.266-.582.492l-3.172 1.562 2.415-5.45-.762-1.426h-.134c.134.223.134.262.134.445.046.134.046.314 0 .403 0 .137 0 .27-.134.577l-3.844 1.92c-.268.135-.494.18-.623.18-.23 0-.273-.133-.451-.313l-.046-.219-.223.043.985 1.92.133-.045-.043-.226a.7.7 0 0 1-.09-.58c.09-.04.221-.222.581-.402l3.309-1.698-2.549 5.849.088.089 4.606-2.322c.356-.175.538-.216.623-.216m3.401 8.206.134-.037-1.565-1.882-.134.184c.223.133.265.313.265.402v.268c-.042.175-.177.31-.402.448L34.842 90.9c-.226-.137-.445-.226-.581-.36-.225-.086-.359-.263-.582-.399a3.8 3.8 0 0 1-.402-1.072c-.09-.445 0-.936.223-1.433.179-.445.536-.843.982-1.288.585-.402 1.208-.714 1.836-.763.716-.088 1.339.135 1.83.763.361.445.497.936.497 1.427-.046.358-.23.712-.404 1.117l.04.177 1.433-1.384-.133-.134c-.133.085-.225.134-.314.134-.045 0-.133 0-.133-.049-.046-.085-.135-.134-.135-.352-.134-.267-.267-.491-.354-.718-.046-.128-.23-.354-.363-.49-.356-.491-.847-.8-1.248-.978a4 4 0 0 0-1.924-.092 3.9 3.9 0 0 0-1.431.714c-.536.492-.894 1.073-1.028 1.782-.223.985.045 1.922.85 2.812.267.316.535.586.85.806.265.134.625.359.892.494l1.477-1.208c.223-.219.447-.355.584-.355.131-.088.353.09.488.226zm5.229.94c.179-.088.359 0 .536.137l.224.134.09-.134-2.058-1.605-.088.126.133.139c.18.09.223.226.314.355v.268c0 .09-.134.226-.359.492l-2.637 3.261c-.133.222-.268.31-.402.31q-.197.069-.266 0c-.09-.088-.09-.22 0-.354.046-.265.046-.491.046-.583 0-.135-.046-.135-.136-.223-.093-.131-.227-.131-.361-.131-.131 0-.222.086-.265.219-.137.135-.226.273-.137.49 0 .228.18.453.402.582.225.225.585.362.85.362.358 0 .629-.137.852-.316.268-.134.577-.356.85-.754l1.921-2.284c.177-.354.357-.49.491-.49Zm2.101 1.122.224.174a.41.41 0 0 1 .268.268c.09.092.09.226.09.27 0 .086-.135.313-.224.577l-2.057 3.396c-.134.315-.268.49-.402.58-.134.088-.357 0-.581-.09l-.225-.133-.043.134 2.234 1.383.09-.223-.136-.09c-.13-.044-.223-.178-.355-.265-.088-.137-.088-.226-.088-.27 0-.178.134-.31.312-.584l1.967-3.385c.224-.318.355-.541.399-.586.224-.086.447 0 .672.133l.137.089.046-.177-2.194-1.25zm11.532 4.777.225.042c.269.089.401.181.49.357.045.089.045.357-.089.717l-.58 2.41c-.134.664-.357 1.065-.49 1.383-.18.178-.405.358-.764.401-.445.137-.712.137-1.114 0-.359-.043-.582-.131-.716-.354-.224-.137-.358-.273-.446-.493-.043-.227-.043-.403 0-.76 0-.314 0-.579.088-.805l.715-2.633c.045-.357.134-.494.268-.625.09-.088.268-.134.492-.088l.268.088v-.134l-2.502-.67-.09.18.267.042c.225.094.36.137.45.313q.066.202 0 .67l-.627 2.37c-.18.713-.226 1.203-.226 1.469.046.448.226.803.494 1.076.27.354.759.578 1.385.802.581.133 1.163.133 1.519 0 .401-.224.672-.448.895-.713.222-.315.359-.809.493-1.342l.625-2.412c.09-.357.18-.581.224-.666.223-.137.448-.226.625-.137l.222.088.092-.177-2.147-.54zm7.691.71h.223c.267 0 .402.046.493.224.046.044.134.357.134.668l-.134 3.577-3.53-4.78-1.702-.05v.227c.224 0 .36 0 .404.049.177.085.311.085.356.13.135.089.226.223.448.536l-.134 4.156c0 .352-.088.58-.179.714a.67.67 0 0 1-.535.224h-.226v.128l2.1.088v-.129h-.175c-.226 0-.448-.175-.494-.224-.088-.135-.18-.357-.088-.801l.088-3.665 3.89 5.048h.134l.134-5.228c0-.31.044-.535.134-.624.133-.134.267-.222.577-.222h.183v-.131l-2.1-.137v.222Zm6.482 5.048c-.135-.093-.18-.093-.27-.134 0-.177-.044-.357-.133-.668l-.714-3.89c-.134-.356-.134-.578-.044-.716.132-.127.268-.219.49-.308l.18-.042v-.141l-2.593.49.043.139h.673c.044.088.132.088.178.137.09.085.09.353.177.666l.762 3.888c.09.355.09.579 0 .712 0 .136-.226.222-.494.27l-.134.087v.137l2.548-.494v-.133zm5.59-7.679.088.224.046-.09c.222 0 .356 0 .533.09.046 0 .137.041.137.13.043.134.043.402.043.762l-.18 3.84-2.636-2.904c-.268-.272-.402-.403-.402-.579-.088-.135-.088-.181 0-.268.043-.132.177-.226.491-.358l-.09-.134-2.324.848v.131c.224-.043.358-.043.49-.043.091 0 .222.043.36.043 0 .088.133.137.358.452l3.89 4.24.13-.089.36-5.582c0-.358.045-.579.133-.803.136-.136.228-.27.403-.359l-.043-.134zm9.475-.133c.093.398 0 .76 0 .98-.044.226-.133.445-.221.49-.137.136-.268.312-.63.492l-.849.58c-.134.088-.223.088-.357.088-.045.049-.045 0-.132 0-.048-.088-.136-.177-.27-.445l-1.117-1.607 1.117-.805c.222-.135.357-.223.536-.223.09 0 .223 0 .357.088.09 0 .225.225.448.405l.047-.136-1.118-1.786-.136.181c.223.264.223.491.223.717-.087.127-.223.31-.49.531l-1.164.717-1.339-2.054 1.428-.936c.268-.141.405-.268.585-.268.134-.092.268 0 .399.09.134.037.358.129.581.398l.133-.046-.803-1.159-3.932 2.547.087.217.18-.126c.134-.137.357-.23.491-.137.179 0 .316.226.493.535l2.191 3.302c.18.268.314.402.314.54 0 .088 0 .175-.092.31-.042.133-.134.176-.268.269l-.137.136.046.131 3.981-2.545-.448-1.608-.134.136Zm1.83-7.324v.62h-.043c-.224 0-.355.092-.581.229l-.222.223c-.133.045-.268.268-.402.49l1.248 1.426v1.253l-1.472-1.562c-.265-.266-.491-.491-.58-.491-.182 0-.36.088-.538.225l-.136.218-.175-.13 1.653-1.564c.49-.444.85-.716 1.117-.85.088-.087.131-.087.131-.087m4.877 2.9c-.18.088-.628.088-1.03-.046l-2.19-.352c.313-.448.493-.853.493-1.208a2.04 2.04 0 0 0-.494-1.027c-.222-.18-.492-.406-.85-.406h-.224c-.134 0-.356 0-.49.05l-.092.088v.621h.091c.357 0 .625.184.896.452.313.268.355.577.355.982-.041.359-.268.8-.711 1.204 0 0-.049 0-.049.087 0 0-.09.046-.134.046l-.448-.403v1.253l1.3 1.296c.177.22.356.442.356.488a.6.6 0 0 1-.222.627l-.134.18.042.13 1.924-1.92-.091-.088-.176.181c-.181.177-.313.177-.496.177-.175 0-.353-.135-.58-.4l-1.292-1.296c.085 0 .085-.046.176-.046 0-.09.043-.09.043-.09.092-.088.137-.222.314-.27l3.442.54 1.21-1.071-.139-.14c-.31.226-.578.36-.8.36Zm3.664-6.65a1.04 1.04 0 0 0-.626-.226c-.268-.086-.491 0-.76.088-.27 0-.715.179-1.298.494q-1.004.536-1.474.537c-.225.088-.359 0-.536-.043-.178-.23-.314-.359-.358-.63 0-.312.044-.581.18-.892.178-.176.355-.31.67-.49a1.38 1.38 0 0 1 .849-.135c.267 0 .535.092.894.314l.134-.18-1.744-1.202-.09.13a.6.6 0 0 1 .135.227v.22c-.045.087-.179.133-.359.267-.31.224-.535.45-.757.717a1.93 1.93 0 0 0-.36 1.295c.092.49.317.85.628 1.118.222.086.446.223.67.223.267.089.492 0 .76-.05.267-.087.718-.31 1.25-.532.536-.27.85-.4 1.03-.49.179-.047.402-.047.536-.047.224 0 .313.046.447.18.268.18.4.357.4.667 0 .272-.041.627-.267.892-.222.316-.447.45-.714.58-.265.134-.491.227-.762.227-.31 0-.579-.134-.98-.267l-.091.04 1.699 1.302.09-.137c-.09-.18-.18-.226-.18-.315 0-.045 0-.045.09-.132 0-.09.134-.224.402-.45.224-.134.446-.267.446-.308.135-.18.268-.224.357-.45.358-.442.401-.933.401-1.43-.13-.491-.356-.844-.712-1.112m3.712-3.976a.62.62 0 0 1-.316.265c-.044.092-.132.092-.266.092-.09 0-.27-.092-.491-.223L95.46 78.4c-.357-.226-.583-.36-.628-.406-.088-.219-.088-.358.045-.577l.092-.223-.137-.046-1.162 2.322.182.09.043-.227c.09-.13.134-.221.268-.306.09-.048.226-.139.314-.139.046.091.267.139.535.314l3.533 1.745c.357.173.536.307.582.44.088.138.088.364-.046.582l-.088.18.134.088 1.206-2.322-.135-.09zm2.099-6.339c-.045.226-.134.36-.268.445-.134.049-.356.049-.714-.085l-4.518-1.208.226-.85c.045-.22.132-.4.268-.579.134-.046.27-.174.492-.174.088-.09.268-.09.49 0l.089-.183-1.34-.357-1.34 4.911 1.34.445.046-.22c-.271-.09-.402-.225-.582-.356a.6.6 0 0 1-.179-.452c0-.13 0-.353.047-.617l.221-.72 4.514 1.206c.358.094.494.226.628.313.087.133.087.355 0 .535v.222l.178.09.625-2.588h-.131zm1.429-8.527-.087.224c0 .221-.047.447-.225.49-.043.085-.356.178-.667.085l-1.568-.084-2.188-1.607a2.3 2.3 0 0 1-.582-.582c-.136-.09-.224-.223-.27-.445-.088-.134-.088-.177-.088-.314v-.092h-.18l-.176 2.15h.222c0-.18 0-.317.088-.364.046-.091.046-.13.134-.13.046-.09.134-.09.223-.09.181 0 .315.129.63.267l1.832 1.384-2.057 1.118c-.358.134-.494.268-.628.268a.41.41 0 0 1-.268-.268c-.088-.089-.088-.223-.088-.357v-.138h-.137l-.221 2.64h.136c0-.182.085-.225.085-.313.137-.185.225-.356.359-.402.046-.09.268-.138.538-.357l2.68-1.52 1.434.182c.355 0 .58 0 .626.132.223.044.309.267.223.537v.22h.133l.223-2.633z"/></g><defs><filter id="a" x="-13" y="0" width="154" height="157" filterUnits="userSpaceOnUse" color-interpolation-filters="sRGB"><feFlood flood-opacity="0" result="BackgroundImageFix"/><feColorMatrix in="SourceAlpha" values="0 0 0 0 0 0 0 0 0 0 0 0 0 0 0 0 0 0 127 0" result="hardAlpha"/><feOffset dy="16"/><feGaussianBlur stdDeviation="6.5"/><feColorMatrix values="0 0 0 0 0 0 0 0 0 0 0 0 0 0 0 0 0 0 0.03 0"/><feBlend in2="BackgroundImageFix" result="effect1_dropShadow_49_9812"/><feBlend in="SourceGraphic" in2="effect1_dropShadow_49_9812" result="shape"/></filter></defs></svg>