<svg width="128" height="137" fill="none" xmlns="http://www.w3.org/2000/svg"><g filter="url(#a)" fill-rule="evenodd" clip-rule="evenodd"><path d="m58.752 52.85-4.688 4.865-4.743-4.92 4.689-4.865z" fill="#b12c27"/><path d="m64.86 36.675 12.426 12.893c1.81 1.876 1.94 4.814.287 6.526L65.04 69.098l-3.036-3.15L73.06 54.475c.89-.922.823-2.505-.154-3.516L61.998 39.644l2.863-2.968Z" fill="#2e4c8f"/><path d="m59.748 41.977 8.763 9.08c1.537 1.545 1.537 2.259-.035 4.047l-8.465 8.78-3.658-3.796 5.477-5.679c.81-.841.746-2.285-.144-3.207l-5.417-5.62z" fill="#368e4a"/><path d="M64 21.009c23.677 0 42.991 19.312 42.991 42.99s-19.314 42.991-42.99 42.991c-23.68 0-42.99-19.313-42.99-42.99 0-23.679 19.31-42.991 42.99-42.991ZM64 20c24.236 0 44 19.766 44 44s-19.764 44-44 44c-24.234 0-44-19.766-44-44s19.766-44 44-44" fill="#2e4c8f"/><path d="M64 35.141c15.895 0 28.86 12.965 28.86 28.86S79.895 92.861 64 92.861C48.104 92.86 35.14 79.895 35.14 64s12.965-28.86 28.861-28.86Zm0-.809c16.34 0 29.667 13.327 29.667 29.668 0 16.343-13.327 29.67-29.667 29.67S34.332 80.343 34.332 64c0-16.34 13.328-29.668 29.668-29.668" fill="#2e4c8f"/><path d="M90.385 68.906a17 17 0 0 1-.658 3.661H38.286a16.4 16.4 0 0 1-.67-3.66h52.769Zm-1.55 6.135c-.386.901-.84 1.801-1.354 2.69H40.566a25 25 0 0 1-1.375-2.69zm-25.89 6.456H44.161c-.534-.425-1.214-.856-1.756-1.29h20.54zm22.803-1.29c-.508.45-1.157.856-1.712 1.29h-18.98v-1.29zm-28.692 4.945c.18-.105.181-.16.418-.357v3.407h.82v-4.339h-.758c-.295.246-.554.544-.892.725zm4.359.034c0-.522.284-.793.643-.783.318.008.6.279.6.783 0 .476-.282.727-.6.736-.36.01-.643-.245-.643-.736m-.902 1.834c.015.768.542 1.24 1.377 1.23.504-.005.872-.196 1.103-.588q.326-.564.303-1.961c.016-1.306-.448-1.95-1.383-1.936-.848.065-1.305.555-1.363 1.471.072.8.453 1.256 1.148 1.323.283.028.741.028.96-.168.044.916-.355 1.168-.788 1.168-.217 0-.558-.18-.615-.54zm5.577 1.183h.775v-1.036h.524v-.709h-.625v-2.696h-.675l-1.717 2.675v.73h1.717zm0-1.745h-.906l.905-1.441v1.441Zm3.09-.536c-.556.18-.853.54-.88 1.08.027.799.541 1.215 1.526 1.25q1.435-.075 1.53-1.25-.025-.858-.883-1.104c.507-.13.788-.458.834-.981q-.045-1.078-1.481-1.152-1.362.123-1.457 1.152.001.736.811.981zm.05-.956q.024-.515.573-.564.623.025.645.564-.023.54-.575.589-.617-.025-.643-.589m-.104 2.01c0-.424.319-.678.7-.686.382-.008.724.243.724.686 0 .426-.33.679-.698.687-.4.008-.726-.245-.726-.686Z" fill="#2e4c8f"/><path d="M87.394 87.18c.694.403 1.053.697 1.599 1.449.543.75.91.486.91.486.39-.392-.63-1.482-1.068-1.621-.246-.248-1.375-.523-1.44-.314Zm3.703-1.314s.296.458.283.753a5 5 0 0 1-.029.32l-.095.036c-.045-.213-.299-.428-.496-.398l-.23.034c.154-.508.26-1.119.037-1.811-.145-.45-.417-.392-.64-.244.181-.71.306-1.6.397-2.065a1.15 1.15 0 0 0-.521-1.237c-.099-.046-.333-.064-.127.384.208.445-.239 3.092-.298 3.38-.058.29-.694.566-.694.566.363.192.37.261.786-.008.096-.06.18-.203.262-.395l.04-.024c.355-.22.328.109.328.109s.082.522-.034.997c-.023.11-.055.257-.083.425-.424.066-.722.133-.867.28.248.065.511.118.784.177.059.416-.097.89-.141.904.215.036.388-.301.544-.812q.219.052.452.12a.46.46 0 0 0 .453-.156q.048.006.109.01c-.052.414-.114.866-.114.866a2.8 2.8 0 0 0 .566-.84c.741-.037.845-.65.845-.65s.453-1.653.334-2.635c-.118-.984-.294-.948-.955-.471-.665.478-1.05 1.773-1.05 1.773.173-.028.638-.826 1.052-1.226.402-.314.318-.086.414.142.099.229-.173 1.698-.235 2.01-.06.312-.071.298-.276.478 0 .003-.004.005-.004.005a1 1 0 0 0-.16-.525c-.168-.237-.61-.375-.637-.272m.931 4.488s.956-2.046.923-2.507c-.035-.459-.2-.798-.376-.479s-1.844 4.469-1.968 4.726c-.124.259-.628 1.04-1.652.949-.042-.052 1.091-2.291 2.09-3.662 1.009-1.387 1.034-1.765 1.483-2.2.453-.435 1.212-.296.92.704-.178 1.015-1.296 2.484-1.42 2.47Zm.345 1.08c.184.203.854.944.946 1.22.112.32.41.632-.192.74-.605.108-.683.19-.683.19l1.055.29s1.338.598.62-.69c-.668-1.202-1.151-1.664-1.59-1.939.275-.326.622-.734.82-.99.326-.417.519-.302.22-.475-.299-.174-.475.043-.666.236-.195.194-1.196 1.383-1.315 1.617-.12.237-.467.548-.467.548s.05.04.287-.023c.237-.062.566-.238.742-.457.042-.056.123-.15.223-.267m-3.364-.89c.09.296.24.358.355.271.114-.089.45-.304.162-.777-.571-.946-1.084-.817-1.347-.855.386.547.73 1.023.83 1.361m-13.053 10.314s.425.491.596.927a.9.9 0 0 1-.033.714c-.111.202-.049.381.09.205.14-.175.232-.224.44-.151.207.075.487-.167.442-.297-.044-.131-.154-.818-.58-1.054a4 4 0 0 0-.955-.344m-.402-3.212c.892-.91 1.087-.716.744-1.065-.194-.199-.248-.303-.225-.344.049-.078.355.085.588.162.069.021.425.095.313.552-.064.254-1.35 1.368-2.569 2.365a16 16 0 0 1-.726 2.45 7.7 7.7 0 0 1-1.113 1.912c-.534.685-.877.485-1.117.55q-.359.095-.354-.442s-.206-.494.132-.208c.33.284.447.199.696-.133.955-1.254 1.494-2.136 1.83-3.597a41 41 0 0 1-1.468 1.143c-.512.36-.633.223-.886.032-.248-.19-.306-.313-.306-.313.49-.311 1.043-.601 1.615-.96.413-.26.825-.532 1.218-.804.157-.914.302-1.737.405-2.595.055-.454.095-1.069.016-1.567a4 4 0 0 0-.319-1.054c.927-.368 1.226 1.64 1.169 2.026-.069.46-.375 1.26-.52 2.128q-.047.3-.103.594c.394-.298.734-.582.98-.832M36.224 83.96c-.819.788-1.743 1.498-2.467 1.858s-2.84 1.262-2.84 1.262-.466.321-.649.842c-.56 1.6 2.04.474 2.5.283.56-.234 1.137-.597 1.757-.866.776-.334 1.41-.474 2.596-1.038-1.715.21-4.412 1.217-4.959.98-.345-.15 2.157-1.452 3.87-2.145.202-.081.56-.142.534-.274-.02-.104-.12-.192-.142-.268-.128-.533-.148-.465-.2-.634m6.895 4.417c.243.113.418.169.467.107.04-.045-.068-.166-.281-.336a.8.8 0 0 1-.186.23Zm-3.738-3.053c.682.367 2.002 1.107 3.14 1.875.065-.185.123-.412.178-.606.067-.233.153-.393.186-.451.268.222.482.772.543 1.287.018.14.01.28-.014.413.286.224.536.442.731.644.297.312.164.64-.225.525-.195-.058-.628-.255-1.099-.484l-.06.012c-.332.156-.71.046-.695-.273a.4.4 0 0 0-.012-.117c-.482-.24-.868-.437-.888-.444-.047-.011-.279-.106-.18.142.096.247.322.844.084.967-.235.122-.464-.024-.52-.147-.055-.121-.344-.506-.61-.619-.155-.067-.087-.147.056-.15.109 0 .26.067.401.088.113.017.174-.144.154-.209-.089-.312.21-.484.43-.422.256.072.58.221.914.392-.143-.289-.328-.562-.314-.575.03.005.524.64.795.326-.13-.085-.271-.171-.414-.26-.74-.457-1.598-.858-2.094-1.08 0 0-.66-.597-.648-.729.02-.131.161-.105.161-.105m.509 4.372c.007-.067.483.15.915.227.334.06.589.018.675-.258.193-.62.46.429.087.846-.337.377-1.694-.668-1.677-.815m-1.957.507c.358.238 1.772 1.357 1.923 1.422.326.14.884.189.843-.284-.04-.471-.017-.507-.517-.594s-.75-.024-.75-.024-.132.177-.279.14c-.143-.039-.382-.21-.227-.444.154-.235.294-.394.497-.47.201-.075.277-.032.196.142s-.104.205.086.285c.53.225.989.094 1.305.699.096.177.04 1.016-.182 1.27-.222.256-.285.265-.617.053-.35-.227-2.114-1.793-2.278-2.195m.77.99c-.006.006-.104.148-.283.287a2.9 2.9 0 0 1-.728.412c-.374.126-.872.574-1.138.79-.268.21-.706.51-.963.29-.262-.222-.35-.347-.378-.333-.032.016.163.38.274.498.117.117.136.544.376.537s.395-.01.603-.202c.209-.19 1.042-1.05 1.41-1.195.368-.142.799-.345.835-.483.104-.182.035-.628-.007-.6Zm-1.597-1.974s.123 1.25.12 1.413c0 .164-.402.467-.556.19-.155-.273-.4-.72-.526-.402a2.4 2.4 0 0 0-.153.518c-.134.446-.78.427-.794-.287 0-.112.04-.257.033-.352-.041-.5-.184-.7-.111-.809 0 0 .156.287.24.422.084.131.266.494.481.264.213-.232.62-.105.654-.07.031.035.176.078.234-.105.033-.183.212-.686.378-.782m-2.63.815c-.532.064-1.07.055-1.587.114-.207.024-.398.09-.652.14-.132.027-.345-.227-.345-.227s.2-.295.528-.456c.328-.16 2.343-.68 2.45-.628.108.051.197.272.22.295.066.075.056.243-.152.1s-.173-.121-.319-.074c-.143.049-1.05.411-1.109.468-.06.057-.004.068.118.077.19.013.848.191.848.191m3.145-2.172c.188-.144.341-.325.403-.423.303.15.636.293.697.327.107.062.11.04.02.132-.087.093-.841.511-1.004.538-.164.026-.123-.08-.123-.08zm.212-.519a4.8 4.8 0 0 1-1.134.314c-.824.115-1.798.008-1.927-.025-.24-.06-.55.025-.675.092-.127.067-.482.248-.482.248s-.219.06.03.133c.25.074 1.127.258 1.363.269.234.008 1.836-.206 2.238-.312q.136-.04.264-.121c-.111.241-.262.617-.26.776.01.246.307.417.393.292.028-.04.136-.115.282-.206.03.08.066.187.114.331.175.523.701.923 1.038.864.124-.022.722-.407 1.075-.635.35-.229.064-.646.064-.646s-.286-.295-.392-.393-.04-.363-.04-.363-.022-.006-.269.032-.057.567.162.793c.22.228-.043.375-.39.63-.348.252-.602.092-.79-.08-.187-.165-.36-.457-.445-.61.309-.184.724-.408 1.033-.571.523-.278-.072-.624-.072-.624s-.864-.344-1.074-.4c-.021-.005-.152-.033-.264-.092-.242-.126-.314-.067-.143.11.052.052.163.12.3.194Zm.962-4.596s-.366.857-.208 1.02c.158.162.477.038.477.038.312-.59-.006-.788-.27-1.058Zm10.145 17.321s-.86.775-1.158 1.046c-.293.272-.336.627-.125.887.211.259.416.172.627-.029.427-.406.65-1.32.655-1.904Zm9.071-2.622s.33-.033.546.111c.219.146.262.34-.04.908-.3.57-2.02 2.601-2.194 2.834a88 88 0 0 0-1.216 1.763c-.114.18-.744.873-1.097.073-.354-.798-.17-.522-.17-.522l.362.295s.169.249.597-.359c.182-.259.539-.896 1.01-1.551.629-.869 1.397-1.785 1.578-2.054.322-.47.63-1.062.63-1.062a.9.9 0 0 0-.006-.436m-4.829 3.191s.408-.062.427-.148c.02-.088-.01-.141-.01-.141zm2.005-2.352s-1.436.885-1.82 1.042l-.296-.096s-.117.108.062.221c0 0 0 .368.115.443.122.076-.148.238-.148.238l-.662.273c-.174.07-.337.823.007.897.116.024.41-.017.724-.102-.013.121-.054.35-.155.562-.112.235-.342.435-.418.494-.17.143-.285.32-.153.353.128.032.15-.054.29-.158 0 0 .185.092.507-.103.324-.196.622-.926.648-1.055.023-.08.057-.285.081-.431a.8.8 0 0 0 .22-.209c.263-.416-.047-.562-.047-.562s.343-.077.184-.275c-.158-.2-.265-.318-.265-.318s.886-.333 1.127-.295c.245.037.575.005.563-.228-.013-.234.01-.595-.144-.724-.151-.13-.42.033-.42.033m-.967.094c-.238.222-.925.763-1.411.724-.396-.03-.384-.09-.153-.235.054-.032.127-.132.19-.17l.01-.007-.192.05c-.322.215-2.926.32-2.602.021.311-.28 1.404-.757 3.64-1.001q.149-.185.305-.392c-.407.045-.725.077-.725.077-.568.066-1.666-.847-1.218-.92.052-.01.148.051.264.043.505-.036 1.531-.137 2.354-.16.885-1.328 1.696-2.756 1.696-2.756.45.143.495 1.167.288 1.661-.156.357-.427.693-.718 1.048.123-.021.258-.012.402-.064.103-.035.213-.13.293-.146.18-.035.282.005.176.263-.236.585-.663.64-1.123.734-.092.02-.25.043-.438.068q-.193.232-.363.427c1.826-.182 2.222-.28 2.762-.15l-3.403.85c-.015.01-.023.024-.034.035" fill="#b12c27"/><path d="m24.721 72.489 5.11-.9q.9-.16 1.45-.53.83-.555.665-1.49-.198-1.123-1.243-1.354-.567-.125-1.462.034l-5.109.9-.158-.895 4.643-.819q1.524-.27 2.403-.09 1.602.33 1.893 1.98t-1.102 2.504q-.765.468-2.29.737l-4.642.819zm-.584-9.665.129-1.05 7.156-2.488-6.75-.829.105-.845 8.33 1.023-.122.997-7.156 2.538 6.743.828-.104.849zm1.511-9.874.31-.85 7.887 2.87-.31.85zm1.567-4.551 7.14 1.928-5.25-5.2.502-.87 6.062 6.287-.475.823-8.474-2.11zm4.108-7.564 3.1-3.694.788.66-2.538 3.026 1.952 1.638 2.347-2.798.744.625-2.347 2.797 2.18 1.83 2.582-3.078.766.643-3.144 3.746zm11.093-5.573q.517-.362.634-.834t-.361-1.156q-.515-.735-1.122-.707-.324.017-.7.28l-1.792 1.256 1.645 2.35 1.697-1.189Zm-4.636-1.448 2.508-1.756q.62-.434 1.183-.486 1.071-.095 1.9 1.09.433.617.507 1.15.075.535-.12 1.027a1.4 1.4 0 0 1 .78.096q.347.155.785.74l.671.904q.287.385.461.55.297.28.532.255l.108.155-.9.63a1.3 1.3 0 0 1-.22-.188 7 7 0 0 1-.417-.517l-.847-1.116q-.498-.656-1.027-.627-.3.021-.75.336l-1.67 1.17 2.064 2.949-.734.514zm10.032-.438q.274.66.647.999.705.63 1.762.246a2.25 2.25 0 0 0 .8-.486q.633-.607.32-1.466-.234-.645-.651-.803-.42-.15-1.178-.1l-.93.065q-.911.064-1.357-.096-.773-.279-1.13-1.26-.387-1.065-.055-1.957.33-.892 1.393-1.28.978-.354 1.879-.005.9.35 1.38 1.665l-.791.288q-.294-.61-.625-.873-.61-.477-1.532-.142-.744.271-.926.788-.18.515.01 1.041.21.58.69.71.312.081 1.286.018l.964-.065q.697-.045 1.155.146.794.337 1.176 1.39.477 1.31-.069 2.147t-1.54 1.199q-1.16.421-2.089-.091-.927-.508-1.38-1.79zm5.535-7.969.88-.211 1.96 8.161-.88.212zm8.586-1.434.104.994-2.217.233.773 7.353-.905.095-.772-7.353-2.217.233-.105-.994zm2.453-.04 1.044.052 1.697 4.123 2.099-3.934 1.048.052-2.745 4.88-.168 3.379-.895-.044.168-3.379zm15.49 2.895q1.624.654 1.872 2.294.192 1.28-.457 2.89-.703 1.744-1.866 2.618-1.365 1.027-2.882.415-1.415-.57-1.748-2.085-.26-1.435.445-3.184.637-1.579 1.708-2.454 1.374-1.12 2.928-.494m-2.852 7.314q1.098.443 1.992-.358t1.417-2.1q.552-1.372.325-2.437t-1.21-1.461q-.952-.384-1.888.202t-1.588 2.204q-.52 1.292-.363 2.388t1.315 1.562m9.329-3.341 3.782 2.6-.583.847-3.043-2.092-1.444 2.1 2.676 1.84-.566.823-2.676-1.839-2.162 3.146-.738-.508zm6.369 13.714q-.802.698-1.408.897-1.113.36-1.958-.613a1.76 1.76 0 0 1-.448-1.293q.041-.734 1.027-1.592l.453-.394.552.635-.452.394q-.518.45-.62.859-.102.408.232.792.47.54 1.084.298.378-.15 1.18-.847l4.219-3.673.582.67zm6.134-.491.488.763-7.067 4.527-.489-.762zm1.81 3.76.413.974-4.953 5.732 6.259-2.656.332.783-7.726 3.28-.392-.925 4.928-5.775-6.253 2.654-.335-.788zm-1.5 14.083 3.607-1.323-3.788-.74zm4.807-1.898.088 1.009-8.152 3.122-.086-.977 2.446-.888-.228-2.606-2.567-.495-.08-.915zm.207 7.575-.147 1.048-7.198 2.362 6.733.947-.118.843-8.312-1.169.14-.994 7.199-2.413-6.727-.945.119-.847z" fill="#2e4c8f"/></g><defs><filter id="a" x="-13" y="0" width="154" height="157" filterUnits="userSpaceOnUse" color-interpolation-filters="sRGB"><feFlood flood-opacity="0" result="BackgroundImageFix"/><feColorMatrix in="SourceAlpha" values="0 0 0 0 0 0 0 0 0 0 0 0 0 0 0 0 0 0 127 0" result="hardAlpha"/><feOffset dy="16"/><feGaussianBlur stdDeviation="6.5"/><feColorMatrix values="0 0 0 0 0 0 0 0 0 0 0 0 0 0 0 0 0 0 0.03 0"/><feBlend in2="BackgroundImageFix" result="effect1_dropShadow_49_8610"/><feBlend in="SourceGraphic" in2="effect1_dropShadow_49_8610" result="shape"/></filter></defs></svg>