<svg xmlns="http://www.w3.org/2000/svg" viewBox="0 0 128 42.9"><defs><style>.cls-1,.cls-2{fill:#b12c27;fill-rule:evenodd}.cls-2{fill:#2e4c8f}</style></defs><g id="_图层_1" data-name="图层_1"><path d="M48.8 31.5v2.2c0 .3 0 .5.2.6.2.3.4.4.8.4s.7-.1.9-.4c0-.1.1-.3.1-.6v-2.2h.5v2c0 .4 0 .8-.2 1-.2.4-.6.6-1.3.6s-1-.2-1.3-.6c-.1-.2-.2-.6-.2-1v-2zm3.3 0h.6l1.9 2.8v-2.8h.5V35h-.6l-1.9-2.8V35h-.5zm4.1 3.5h.5v-3.5h-.5zm1.8-3.5 1.1 3 1-3h.6L59.4 35h-.5l-1.3-3.5h.6Zm3.4 0h2.7v.4h-2.2V33h2v.4h-2v1.2h2.2v.4h-2.7zm5.3 1.6c.2 0 .4 0 .6-.1.1 0 .2-.2.2-.5s0-.4-.3-.5h-1.6v1.2h1.2Zm-1.6-1.6h1.7c.3 0 .5 0 .7.1.3.2.5.4.5.8s0 .4-.1.5c0 .1-.2.2-.4.3.1 0 .2.1.3.2 0 0 .1.2.1.4v.8c0 .1 0 .2.2.2h-.6v-1c0-.2-.1-.4-.3-.5h-1.5v1.5h-.5v-3.5Zm4.2 2.4c0 .2 0 .4.1.5q.3.3.9.3h.5c.3 0 .4-.3.4-.5s0-.3-.2-.4c-.1 0-.3-.1-.6-.2h-.5c-.3-.2-.6-.3-.7-.3-.2-.1-.4-.4-.4-.7s.1-.6.3-.8.6-.3 1-.3.7 0 1 .3c.3.2.4.5.4.8H71c0-.2 0-.3-.2-.4-.2-.2-.4-.3-.8-.3s-.5 0-.6.2c-.1.1-.2.3-.2.4 0 .2 0 .3.2.4 0 0 .3.1.7.2h.5c.2.2.4.2.6.3.2.2.4.4.4.7s-.1.7-.4.8-.6.2-1 .2-.8-.1-1.1-.3-.4-.5-.4-.9h.5Zm3.4 1.1h.5v-3.5h-.5zm4.2-3.5v.4h-1.2V35h-.5v-3.1H74v-.4h3Zm.4 0h.6l1.1 1.7 1.1-1.7h.6l-1.4 2.1V35h-.5v-1.4l-1.4-2.1Zm7.8-.1c.7 0 1.1.2 1.4.6.2.3.4.7.4 1.2s-.1 1-.4 1.3c-.3.4-.8.6-1.4.6s-1-.2-1.3-.5-.4-.8-.4-1.3.1-.9.4-1.2c.3-.4.8-.6 1.4-.6Zm0 3.3c.4 0 .8-.2 1-.4.2-.3.3-.6.3-1s-.1-.7-.3-1c-.2-.2-.5-.4-.9-.4s-.7.1-.9.4c-.2.2-.4.6-.4 1.1s.1.7.3 1 .5.4 1 .4Zm2.6-3.2h2.6v.4h-2.1V33H90v.4h-1.8V35h-.5zM96 34c0 .3 0 .5-.1.7-.2.3-.5.4-1 .4-.3 0-.5 0-.7-.2-.2-.1-.3-.4-.3-.8v-.2h.5v.2c0 .2 0 .3.1.4 0 0 .2.1.4.1s.4 0 .5-.3v-2.9h.5v2.5Zm1.1 1h.5v-3.5h-.5zm1.6-3.5h.6l1.9 2.8v-2.8h.5V35h-.6l-1.9-2.8V35h-.5zm5.8 2.1-.6-1.5-.6 1.5zm-.8-2.1h.6l1.3 3.5h-.5l-.4-1.1h-1.5l-.4 1.1h-.5zm2.5 0h.6l1.9 2.8v-2.8h.5V35h-.6l-1.9-2.8V35h-.5zm-3.1-17.6c.5 1.2.7 2 .6 3.5 0 1.5.7 1.5.7 1.5.9-.1.7-2.5.3-3.2 0-.6-1.2-2.1-1.5-1.9Zm6.1 2s0 .9-.4 1.3l-.4.4h-.2c.2-.3 0-.9-.2-1l-.3-.2c.7-.5 1.5-1.2 1.9-2.3.3-.7-.1-.9-.6-1 .9-.7 2-1.8 2.6-2.3 1-.9.7-2 .6-2.1 0-.2-.4-.4-.5.4-.2.8-3.4 3.7-3.8 4s-1.5 0-1.5 0c.3.6.2.7 1 .8.2 0 .4 0 .7-.2.7 0 .3.5.3.5s-.4.8-1 1.3l-.5.5c-.6-.3-1.1-.6-1.4-.5.3.3.5.7.8 1-.3.6-1 1-1.1 1 .2.3.8 0 1.5-.5.2.2.3.4.5.6.1.2.5.3.7.3l.1.1-1 1c.6 0 1.1-.2 1.6-.5 1 .7 1.7 0 1.7 0s2.2-1.7 3.1-3.1c.8-1.4.6-1.5-.8-1.6-1.3 0-3.1 1.2-3.1 1.2.3.1 1.7-.4 2.6-.5.8 0 .5.2.4.6s-1.9 2-2.3 2.3-.4.3-.8.3c.2-.3.3-.6.3-.8 0-.5-.4-1.1-.5-1m-3.3 6.7s3.3-1.7 3.7-2.3.5-1.2 0-1-6.9 3.9-7.3 4.1-1.9.7-3.1-.4c0-.1 3.7-1.9 6.4-2.6 2.7-.8 3.1-1.2 4.1-1.3s1.9.8.5 1.8c-1.2 1.1-4.2 1.9-4.3 1.8Zm-.7 1.8c0 .4.1 2.1 0 2.5-.2.5-.1 1.2-1 .8-.9-.5-1.1-.4-1.1-.4l1.1 1.4s1.1 2.1 1.5-.3c.3-2.2.2-3.3 0-4.1.7-.1 1.4-.3 2.1-.4.8-.2 1 .1.8-.4s-.7-.4-1.1-.4-2.9.6-3.3.8-1.2.2-1.2.2 0 .1.4.3 1 .3 1.4.2c.1 0 .3 0 .6-.1Zm-3.4-4.6c-.2.5 0 .7.2.7s.9 0 1-.8c.2-1.8-.6-2.1-.9-2.5 0 1.1 0 2.1-.3 2.6m-8.6 2.5s.4.9.4 1.6c0 .6-.3.9-.4 1-.3.2-.3.5 0 .3s.4-.2.7 0 .8 0 .8-.2.2-1.3-.3-1.8c-.5-.6-1.2-1-1.2-1Zm1-4.8c1.7-.9 1.9-.5 1.6-1.2-.2-.4-.2-.6-.2-.6.1 0 .5.3.8.5 0 0 .6.3.2.9-.2.3-2.6 1.3-4.9 2.1-.7 1.1-1.4 2.2-2.3 3.2-.7.9-1.6 1.6-2.5 2.2-1.1.7-1.5.3-1.9.2-.4 0-.5-.3-.3-.8 0 0 0-.8.3-.2s.5.5 1.1.2c2-1.3 3.2-2.3 4.4-4.3-1.3.5-2.4.8-2.7.9-.9.3-1 0-1.3-.4s-.3-.6-.3-.6c.9-.2 1.8-.3 2.8-.6.7-.2 1.5-.4 2.2-.6.7-1.2 1.3-2.3 1.9-3.5.3-.6.7-1.5.8-2.2.2-.9 0-1.7 0-1.7 1.5 0 1 3 .7 3.5-.3.6-1.2 1.6-1.8 2.8-.1.3-.3.5-.4.8.7-.2 1.3-.5 1.8-.7ZM50 15.1c0 2-.2 4.1-.7 5.5-.4 1.4-1.9 5.2-1.9 5.2s-.2 1 .3 1.9c1.3 2.7 3.1-2 3.5-2.8.4-1 .6-2.2 1.1-3.3.5-1.4 1.1-2.4 1.9-4.6-1.8 2.4-3.9 7.1-4.9 7.5-.6.3.8-4.6 2-7.6.1-.4.5-.9.3-1s-.4 0-.5-.2c-.8-.5-.8-.4-1.1-.5Zm14.2-3.4c.4-.2.7-.3.7-.5 0-.1-.3-.1-.8 0v.5Zm-8.5 1c1.3-.4 3.9-1.2 6.3-1.7-.2-.3-.4-.7-.6-1-.1-.3-.3-.5-.3-.8.6 0 1.6.3 2.3.9.2.2.4.3.5.5.6 0 1.2-.1 1.7-.1.8 0 1 .6.4.9-.3.2-1.1.5-2 .8-.2.6-.8 1-1.2.5 0 0-.1 0-.2-.1-.9.3-1.6.6-1.7.6 0 0-.5.2 0 .4.4.2 1.5.6 1.3 1.1-.1.5-.6.6-.8.5-.2 0-1.1-.2-1.5 0-.3.1-.3 0-.1-.3.1-.1.4-.3.6-.4s0-.4 0-.5c-.5-.3-.4-.9 0-1.1s1-.5 1.6-.7c-.5-.2-1.1-.3-1.1-.3s1.5.1 1.4-.6c-.3 0-.6.1-.8.2-1.5.4-3.1 1-4 1.3 0 0-1.6.1-1.7 0-.2-.2 0-.3 0-.3Zm6.2 4.8s.8-.4 1.4-.9c.5-.4.8-.7.5-1.2-.6-1 1.1 0 1.2.9 0 .9-2.9 1.3-3.1 1.1Zm-1.8 3.1c.7-.2 3.9-.6 4.2-.7.6-.2 1.3-.9.7-1.4-.7-.5-.7-.6-1.4 0-.7.5-1 .9-1 .9s0 .4-.2.5-.7.2-.9-.3q-.15-.75 0-1.2c.2-.3.3-.4.4 0 .1.3.1.4.5.2.9-.4 1.3-1.1 2.5-.8.3 0 1.3 1.2 1.4 1.8 0 .6 0 .7-.7.9s-4.9.5-5.6.2Zm2.2.3v.7c0 .5-.2 1.1-.4 1.4-.3.6-.3 1.8-.4 2.4 0 .6-.2 1.5-.8 1.6h-.9s.7.3 1 .3.9.5 1.2.2.5-.5.5-1 0-2.6.2-3.3c.3-.6.5-1.5.4-1.7-.1-.4-.8-.8-.8-.7Zm-4.5-.4s1.7 1.4 2 1.6c.2.2 0 1.1-.4.9-.5-.1-1.4-.4-1.2.2.3.6.5.8.5.8.4.7-.4 1.5-1.4.7-.1-.1-.3-.4-.4-.5-.7-.6-1.1-.6-1.2-.9 0 0 .6.2.8.2.3 0 1 .3.9-.3 0-.6.6-.9.7-.9s.3-.1.2-.4c-.2-.3-.6-1.1-.5-1.5Zm-2.2 4.3c-.6.8-1.3 1.4-1.8 2.2-.2.3-.4.6-.6 1-.1.2-.7.2-.7.2s-.1-.6 0-1.2c.2-.6 2-3.8 2.2-3.9h.6c.2 0 .4.2 0 .3s-.4 0-.5.3c-.1.2-.8 1.9-.8 2s0 0 .2 0c.3-.2 1.3-.8 1.3-.8Zm1.1-6.7v-1c.6-.2 1.2-.5 1.3-.5.2 0 .2 0 .2.1 0 .2-.4 1.7-.6 1.9s-.3 0-.3 0l-.6-.6Zm-.4-.9c-.3.7-.6 1.3-1 1.8-.9 1.2-2.2 2.3-2.4 2.4-.4.2-.6.7-.7 1l-.3.9s-.2.4.2.1c.4-.2 1.7-1.1 2-1.4s2-2.6 2.4-3.2c0-.1.1-.3.2-.5.2.4.5 1.1.7 1.3.3.3.9.1.9-.1v-.6q.15 0 .6.3c.9.4 2 .2 2.4-.3.1-.2.4-1.4.5-2.2.1-.7-.7-.9-.7-.9h-1c-.3 0-.5-.4-.5-.4l-.3.4c-.3.4.7.8 1.2.8s.4.5.3 1.3-.6.9-1.1.9c-.4 0-1-.1-1.3-.2.2-.7.4-1.4.5-2 .3-1-.9-.7-.9-.7s-1.5.7-1.8.9c0 0-.2.2-.4.2q-.75.3 0 .3c.1 0 .4 0 .6-.1Zm-4.6-6.9s.6 1.5 1 1.5.6-.6.6-.6c-.4-1.1-1-1-1.7-1Zm16.9 12.6s-1 1.5-1.3 2-.3 1.1.1 1.4.7.1.9-.3c.5-.8.5-2.2.3-3.1m12.7-7.4s.5-.2.9 0c.4.1.5.4.3 1.4s-2.1 4.7-2.2 5.1c-.2.4-1.1 2.8-1.2 3.1s-.8 1.6-1.6.5-.4-.7-.4-.7l.7.3s.3.3.8-.8c.2-.5.5-1.6.9-2.7.6-1.5 1.4-3.2 1.6-3.7.3-.8.6-1.8.6-1.8 0-.2 0-.5-.2-.7Zm-6.1 6.6s.6-.2.6-.4v-.2l-.5.6Zm2.1-4.2s-1.8 1.9-2.4 2.2h-.5s-.1.2.2.3c0 0 .1.6.3.6s-.1.4-.1.4l-.9.7c-.2.2-.2 1.4.3 1.3.2 0 .6-.2 1.1-.4v.9c0 .4-.4.8-.4.9-.2.3-.3.6-.1.6s.2-.1.4-.3c0 0 .3 0 .7-.3.4-.4.6-1.6.6-1.8v-.7c.1-.1.2-.2.3-.4.2-.7-.3-.8-.3-.8s.5-.2.2-.5c-.3-.2-.5-.4-.5-.4s1.2-.8 1.6-.9c.4 0 .9-.2.8-.6-.1-.3-.2-.9-.5-1s-.6.2-.6.2Zm-1.4.5c-.3.4-1.1 1.5-1.9 1.6-.6.1-.6 0-.3-.3 0 0 .1-.2.2-.3h-.3c-.4.6-4.3 1.7-3.9 1.1.4-.5 1.8-1.7 5.1-2.9.1-.2.2-.5.3-.7-.6.2-1.1.4-1.1.4-.8.3-2.8-.7-2.2-.9h.4c.7-.2 2.3-.8 3.5-1.1.8-2.3 1.5-4.8 1.5-4.8.7 0 1.2 1.6 1.1 2.4 0 .6-.4 1.2-.7 1.8.2 0 .4-.1.6-.2.1 0 .3-.3.4-.3.3-.1.4 0 .4.3-.1 1-.8 1.2-1.4 1.5-.1 0-.4.2-.6.3-.1.3-.3.5-.4.8 2.7-1 3.2-1.3 4.1-1.3l-4.8 2.5Z" style="fill-rule:evenodd;fill:#010604"/><path class="cls-1" d="M26.9 17.4 25.3 19l-1.6-1.6 1.6-1.6z"/><path class="cls-2" d="m29 12 4.1 4.3c.6.6.6 1.6 0 2.2l-4.2 4.3-1-1.1 3.7-3.8c.3-.3.3-.8 0-1.2L28 12.9l1-1Z"/><path d="m27.3 13.8 2.9 3c.5.5.5.8 0 1.4l-2.8 2.9-1.2-1.3 1.8-1.9c.3-.3.2-.8 0-1.1l-1.8-1.9 1.2-1.2Z" style="fill-rule:evenodd;fill:#368e4a"/><path class="cls-2" d="M28.7 6.8c7.9 0 14.4 6.4 14.4 14.4s-6.4 14.3-14.4 14.3-14.4-6.4-14.4-14.3S20.7 6.9 28.6 6.8Zm0-.3c8.1 0 14.7 6.6 14.7 14.7s-6.6 14.7-14.7 14.7S14 29.3 14 21.2 20.6 6.5 28.7 6.5"/><path class="cls-2" d="M28.7 11.5c5.3 0 9.6 4.3 9.6 9.6s-4.3 9.6-9.6 9.6-9.6-4.3-9.6-9.6 4.3-9.6 9.6-9.6m0-.2c5.5 0 9.9 4.4 9.9 9.9s-4.4 9.9-9.9 9.9-9.9-4.4-9.9-9.9 4.4-9.9 9.9-9.9"/><path class="cls-2" d="M37.5 22.8c0 .4-.1.8-.2 1.2H20.1c-.1-.4-.2-.8-.2-1.2zm-.5 2c-.1.3-.3.6-.5.9H20.8c-.2-.3-.3-.6-.5-.9h16.6ZM28.3 27H22c-.2-.1-.4-.3-.6-.4h6.9zm7.6-.4c-.2.2-.4.3-.6.4H29v-.4zm-9.5 1.6.1-.1v1.1h.3v-1.4h-.3s-.2.2-.3.2l.1.2Zm1.4 0c0-.2 0-.3.2-.3.1 0 .2 0 .2.3s0 .2-.2.2c-.1 0-.2 0-.2-.2m-.3.6c0 .3.2.4.5.4.2 0 .3 0 .4-.2 0-.1.1-.3.1-.7s-.1-.7-.5-.6c-.3 0-.4.2-.5.5 0 .3.2.4.4.4h.3c0 .3-.1.4-.3.4-.1 0-.2 0-.2-.2zm1.9.4h.3v-.3h.2v-.2h-.2v-.9h-.2l-.6.9v.2h.6v.3Zm0-.5h-.3l.3-.5zm1-.2c-.2 0-.3.2-.3.4 0 .3.2.4.5.4s.5-.2.5-.4-.1-.3-.3-.4c.2 0 .3-.2.3-.3 0-.2-.2-.4-.5-.4s-.5.2-.5.4 0 .3.3.3m0-.3c0-.1 0-.2.2-.2.1 0 .2 0 .2.2 0 .1 0 .2-.2.2-.1 0-.2 0-.2-.2m0 .6c0-.1.1-.2.2-.2s.2 0 .2.2-.1.2-.2.2-.2 0-.2-.2"/><path class="cls-1" d="M36.5 28.9c.2.1.4.2.5.5.2.2.3.2.3.2.1-.1-.2-.5-.4-.5 0 0-.5-.2-.5-.1Zm1.2-.4v.4s0-.1-.2-.1v-.6c0-.2-.1-.1-.2 0 0-.2.1-.5.1-.7s0-.3-.2-.4c0 0-.1 0 0 .1v1.1l-.2.2h.3v-.1h.1v.4h-.3.3v.3s.1 0 .2-.3h.4v.3s.1-.2.2-.3c.2 0 .3-.2.3-.2s.2-.6.1-.9c0-.3 0-.3-.3-.2-.2.2-.3.6-.3.6s.2-.3.4-.4c.1-.1.1 0 .1 0v.9-.2s-.2-.1-.2 0ZM38 30s.3-.7.3-.8c0-.2 0-.3-.1-.2 0 .1-.6 1.5-.7 1.6 0 .2-.3.3-.6.3 0 0 .4-.8.7-1.2.3-.5.3-.6.5-.7s.4 0 .3.2c0 .3-.4.8-.5.8Zm.2.3s.3.3.3.4.1.2 0 .2h-.2.4s.4.3.2-.1-.4-.6-.5-.6c0-.1.2-.2.3-.3s.2-.1 0-.2h-.2l-.4.5-.2.2s.2 0 .2-.2ZM37 30s0 .1.1 0c0 0 .2 0 0-.3s-.4-.3-.5-.3c.1.2.2.3.3.5Zm-4.3 3.5s.1.2.2.3v.2s0 .1 0 0h.2s0-.3-.2-.4c-.1 0-.2 0-.3-.1Zm-.2-1.1c.3-.3.4-.2.2-.4v-.1h.2s.1 0 .1.2c0 0-.5.5-.9.8 0 .3-.1.6-.2.8 0 .2-.2.4-.4.6s-.3.2-.4.2c0 0-.1 0-.1-.1 0 0 0-.2 0 0h.2c.3-.4.5-.7.6-1.2-.2.1-.3.3-.5.4s-.2 0-.3 0l-.1-.1c.2-.1.3-.2.5-.3.1 0 .3-.2.4-.3 0-.3 0-.6.1-.9v-.5c0-.2-.1-.4-.1-.4.3-.1.4.5.4.7s-.1.4-.2.7v.2c.1 0 .2-.2.3-.3Zm-13.1-4.6c-.3.3-.6.5-.8.6-.3.1-.6.3-.9.4 0 0-.2.1-.2.3-.2.5.7.2.8 0 .2 0 .4-.2.6-.3.3-.1.5-.2.9-.3-.6 0-1.5.4-1.7.3-.1 0 .7-.5 1.3-.7h.2v-.2Zm2.3 1.5h.2v-.1Zm-1.2-1c.2.1.7.4 1 .6v-.4s.2.3.2.4v.1s.2.1.2.2v.2c-.1 0-.2-.1-.4-.2H21v-.1s.1.3 0 .3h-.2s-.1-.2-.2-.2h.1c0-.1 0-.2.1-.1 0 0 .2 0 .3.1L21 29s.2.2.3.1h-.1c-.2-.1-.5-.3-.7-.4l-.2-.2Zm.1 1.4h.5c0-.2.2.1 0 .3-.1.1-.6-.2-.6-.3Zm-.6.2c.1 0 .6.5.6.5h.3c0-.2 0-.2-.2-.2h-.2s-.1 0 0-.1c0 0 0-.1.2-.2.2 0 .3 0 .4.2v.4h-.2c-.1 0-.7-.6-.8-.7Zm.2.3-.2.1c-.1 0-.3.2-.4.3 0 0-.2.2-.3 0l-.1-.1v.2s0 .2.1.2h.2s.3-.3.5-.4c.1 0 .3-.1.3-.2v-.2Zm-.5-.6v.5s-.1.2-.2 0c0 0-.1-.2-.2-.1v.2c0 .2-.3.1-.3 0v-.4.1s0 .2.2 0h.2s0-.2.1-.3Zm-.9.3H18l.2-.2c.1 0 .8-.2.8-.2h-.1s-.4.1-.4.2h.3Zm1.1-.8.1-.1c.1 0 .2 0 .2.1l-.3.2zm.1-.1c-.1 0-.2 0-.4.1h-1v.1h.5s.6 0 .7-.1v.3s.1.1.1 0c0 .3.2.4.3.4l.4-.2c.1 0 0-.2 0-.2l-.1-.1v-.1.3s0 .1-.1.2-.2 0-.3 0c0 0-.1-.1-.1-.2.1 0 .2-.1.3-.2.2 0 0-.2 0-.2s-.3-.1-.4-.1c0 0-.1 0 0 0Zm.3-1.6s-.1.3 0 .3h.2c.1-.2 0-.3 0-.4Zm3.4 5.8-.4.3s-.1.2 0 .3h.2c.1-.1.2-.4.2-.6m3-.9h.2v.3c-.1.2-.7.9-.7.9s-.4.5-.4.6c0 0-.2.3-.4 0-.1-.3 0-.2 0-.2h.1s0 .2.2 0c0 0 .2-.3.3-.5.2-.3.5-.6.5-.7zv-.1Zm-1.6 1.1h.1zm.6-.8s-.5.3-.6.3v.1h-.2c0 .1-.1.4 0 .4h.2v.2s0 .1-.1.2v.1h.2c.1 0 .2-.3.2-.4v-.3s.1 0 0 0v-.1s.3-.1.4 0h.2v-.2h-.1Zm-.3 0s-.3.3-.5.2q-.15 0 0 0c-.1 0-1 .1-.9 0 .1 0 .5-.3 1.2-.3l.1-.1h-.2c-.2 0-.6-.3-.4-.3h.8c.3-.4.6-.9.6-.9.1 0 .2.4 0 .6 0 .1-.1.2-.2.3h.1c0 .2-.2.2-.4.2h-.1l-.1.1h.9l-1.1.3Z"/><path class="cls-2" d="m15.6 24 1.7-.3c.2 0 .4 0 .5-.2.2-.1.3-.3.2-.5 0-.2-.2-.4-.4-.5h-.5l-1.7.3v-.3l1.5-.3h.8c.4 0 .6.3.6.7s0 .6-.4.8c-.2.1-.4.2-.8.2l-1.6.3v-.3Zm-.2-3.2v-.3l2.4-.8-2.3-.3v-.3l2.8.3v.3l-2.4.8 2.3.3v.3zm.5-3.3v-.3c.1 0 2.7 1 2.7 1v.3c-.1 0-2.7-1-2.7-1m.5-1.5 2.4.6-1.8-1.7.2-.3 2 2.1-.2.3-2.8-.7zm1.4-2.6 1-1.2.3.2-.8 1 .7.5.8-.9.2.2-.8.9.7.6.9-1 .3.2-1 1.2-2.1-1.8Zm3.7-1.8c.1 0 .2-.2.2-.3s0-.2-.1-.4-.2-.2-.4-.2H21l-.6.4.5.8.6-.4Zm-1.6-.5.8-.6c.1 0 .3-.1.4-.2.2 0 .5 0 .6.4 0 .1.1.2.2.4v.3h.3s.2.1.3.2l.2.3.2.2h.2l-.3.3s0-.1-.1-.2l-.3-.4c-.1-.1-.2-.2-.3-.2 0 0-.2 0-.2.1l-.6.4.7 1-.2.2-1.6-2.3Zm3.4-.2c0 .1.1.2.2.3.2.1.4.2.6 0 0 0 .2 0 .3-.2.1-.1.2-.3.1-.5 0-.1-.1-.2-.2-.3h-1.2c-.2 0-.3-.2-.4-.4v-.7c0-.2.2-.3.5-.4h.6c.2 0 .4.3.5.6H24l-.2-.2c-.1-.1-.3-.1-.5 0q-.3 0-.3.3v.3c0 .1.1.2.2.2h1.1c.2 0 .3.2.4.5s0 .5 0 .7c-.1.2-.3.3-.5.4h-.7c-.2-.1-.4-.3-.5-.6zm1.8-2.6h.3l.7 2.7h-.3zm2.9-.5v.3h-.7l.3 2.5h-.3L27 8.2h-.7v-.3l1.8-.2Zm.8 0h.3l.6 1.4.7-1.3h.4l-.9 1.6v1.1h-.4V9.5zm5.2 1c.4.1.6.4.6.8 0 .3 0 .6-.2 1q-.3.6-.6.9c-.3.2-.6.3-1 .1-.3-.1-.5-.4-.6-.7 0-.3 0-.7.1-1.1s.3-.6.6-.8.6-.3 1-.2Zm-1 2.4c.2.1.5 0 .7-.1.2-.2.4-.4.5-.7s.2-.6.1-.8c0-.2-.2-.4-.4-.5h-.6c-.2.1-.4.4-.5.7s-.2.6-.1.8.2.4.4.5Zm3.1-1.1 1.3.9-.2.3-1-.7-.5.7.9.6-.2.3-.9-.6-.7 1-.2-.2 1.6-2.3Zm2.2 4.6c-.2.2-.3.3-.5.3s-.5 0-.7-.2c-.1-.1-.2-.3-.1-.4 0-.2.1-.3.3-.5h.2c0-.1.2 0 .2 0h-.2c-.1.2-.2.3-.2.4v.3c.1.1.2.2.4 0 0 0 .2-.1.4-.3l1.4-1.2.2.2-1.5 1.3Zm2-.2.2.3-2.4 1.5-.2-.3zm.6 1.2v.3c.1 0-1.5 1.9-1.5 1.9l2.1-.9v.3c.1 0-2.5 1.1-2.5 1.1v-.3c-.1 0 1.5-1.9 1.5-1.9l-2.1.9v-.3c-.1 0 2.5-1.1 2.5-1.1m-.5 4.7 1.2-.4-1.3-.2v.7Zm1.6-.6v.3l-2.7 1v-.3l.8-.3v-.9l-.9-.2v-.3l2.8.6Zm.1 2.5v.3l-2.5.8 2.2.3v.3l-2.8-.4v-.3l2.5-.8-2.2-.3v-.3z"/></g></svg>