<svg width="128" height="137" fill="none" xmlns="http://www.w3.org/2000/svg"><g filter="url(#a)" fill-rule="evenodd" clip-rule="evenodd"><path d="M20 108h88V20H20z" fill="url(#b)"/><path d="M79.427 41.179c-1.992-1.084-3.871-1.937-6.433-2.563v5.235c2.279.513 4.44 1.31 6.433 2.22zM70.719 58.31c-.627 0-1.14.511-1.14 1.194l-.342 10.7h3.018l-.4-10.7c0-.683-.453-1.194-1.136-1.194m2.675 29.478c-3.189 0-5.464-.74-8.367-2.215-3.131-1.595-6.602-2.962-11.042-2.962-4.155 0-8.594 1.482-11.952 6.489 4.04-2.504 7.797-3.301 10.927-3.301 3.358 0 5.921.854 8.537 2.218 2.96 1.537 5.521 2.618 9.222 2.618 3.585 0 7.626-1.364 11.098-5.916-2.789 2.33-5.748 3.07-8.423 3.07Z" fill="#fff"/><path d="M55.236 59.504c0-.683.513-1.194 1.14-1.194s1.137.511 1.137 1.194l.4 10.7h-3.02zm.455 21.344c2.845 0 6.147.795 9.847 2.846V73.109l-1.537-1.94V56.488l3.017-4.667-1.253 4.495c.854-.11 1.708-.168 2.62-.168 2.96 0 5.69.51 8.024 1.423l3.017-2.79v-7.569c-1.992-.912-4.154-1.652-6.432-2.22-1.367-.343-2.846-.57-4.325-.74v-6.546a35 35 0 0 0-4.952-.34 43 43 0 0 0-4.724.284v6.202c-1.48.173-2.903.457-4.269.797v-6.145a30.8 30.8 0 0 0-6.887 2.845v12.75l2.902 2.788-.853 14.34-2.334 2.335v8.31l.798.853c1.934-1.022 4.381-1.876 7.341-1.876Z" fill="#fff"/></g><defs><linearGradient id="b" x1="20" y1="20" x2="108" y2="108" gradientUnits="userSpaceOnUse"><stop stop-color="#0c9cbb"/><stop offset="1" stop-color="#24376e"/></linearGradient><filter id="a" x="-13" y="0" width="154" height="157" filterUnits="userSpaceOnUse" color-interpolation-filters="sRGB"><feFlood flood-opacity="0" result="BackgroundImageFix"/><feColorMatrix in="SourceAlpha" values="0 0 0 0 0 0 0 0 0 0 0 0 0 0 0 0 0 0 127 0" result="hardAlpha"/><feOffset dy="16"/><feGaussianBlur stdDeviation="6.5"/><feColorMatrix values="0 0 0 0 0 0 0 0 0 0 0 0 0 0 0 0 0 0 0.03 0"/><feBlend in2="BackgroundImageFix" result="effect1_dropShadow_49_5452"/><feBlend in="SourceGraphic" in2="effect1_dropShadow_49_5452" result="shape"/></filter></defs></svg>