<svg xmlns="http://www.w3.org/2000/svg" viewBox="0 0 128 50.9"><defs><linearGradient id="_未命名的渐变" data-name="未命名的渐变" x1="14" y1="43.5" x2="50.9" y2="6.5" gradientTransform="matrix(1 0 0 -1 0 50.5)" gradientUnits="userSpaceOnUse"><stop offset="0" stop-color="#0c9cbb"/><stop offset="1" stop-color="#24376e"/></linearGradient><style>.cls-1{fill:#fff;fill-rule:evenodd}</style></defs><g id="_图层_1" data-name="图层_1"><path d="M71.4 43.3V43c-.6.1-.9.2-1.1.2-.7 0-1-.6-1-1.6s.4-1.5 1.1-1.5.5 0 .9.1v-.3c-.2-.1-.6-.2-.9-.2-1 0-1.5.7-1.5 2s.5 2 1.4 2 .8-.1 1.2-.3Zm3.5.2v-3.8h-.5v1.6h-1.8v-1.6h-.5v3.8h.5v-1.8h1.8v1.8zm1 0h.5v-3.8h-.5zm4.1 0v-3.8h-.4v3.4l-1.7-3.4h-.7v3.8h.4v-3.3l1.7 3.3zm1.4-1.3.7-2 .7 2zm1-2.5h-.5l-1.4 3.8h.4l.4-1h1.6l.4 1h.5zm11.1 3.8v-3.8h-.8l-1.1 3.4-1.1-3.4h-.7v3.8h.3v-3.4l1.2 3.4h.6l1.1-3.4v3.4zm1.4-1.3.7-2 .7 2zm1-2.5h-.5L94 43.5h.4l.4-1h1.6l.4 1h.5zm4.1 3.8v-.3h-1.7v-3.5h-.5v3.8zm1.3-1.3.7-2 .7 2zm.9-2.5h-.5l-1.4 3.8h.4l.4-1h1.6l.4 1h.5zm4.2 0h-.5l-1 1.8-1-1.8h-.5l1.3 2.1v1.7h.5v-1.7l1.3-2.1Zm2.6 2.8c0-.6-.2-.8-1.1-1.1-.7-.2-.8-.3-.8-.7s.3-.6.7-.6.5 0 .9.1v-.3c-.2 0-.6-.2-.9-.2-.7 0-1.1.4-1.1 1.1s.9.9 1.5 1.2c.3.1.4.3.4.6 0 .4-.4.7-.8.7s-.6 0-1-.1v.3c.3.1.6.2 1 .2.8 0 1.3-.4 1.3-1.1Zm.7 1h.5v-3.8h-.5zm1.9-1.3.7-2 .7 2zm1-2.5h-.5l-1.4 3.8h.4l.4-1h1.6l.4 1h.5zM59.9 42v-2.3h-.4v2.4c0 .3 0 .5-.1.7-.1.3-.4.4-.8.4-.6 0-1-.3-1-.9v-2.6h-.5v2.2c0 .7 0 .9.2 1.2s.6.5 1.1.5.8-.1 1.1-.3c.3-.3.3-.5.3-1.3Zm3.5 1.5-1.8-2 1.7-1.8h-.5l-1.7 1.7v-1.7h-.5v3.8h.5v-2l1.7 2zm2.4.4h.2v-4.6h-.2zm20.6 0h.2v-4.6h-.2zm26.1-9.8v-4.6c0-.6-.3-1.1-1.1-1.1s-.7.1-1 .4v5.3h-1.5v-4.6c0-.5-.1-1.1-1.1-1.1s-.6 0-.9.2v5.5h-1.5v-6c.8-.3 1.6-.5 2.4-.5.9 0 1.5.2 1.9.5.4-.3 1-.5 1.8-.5 1.5 0 2.2.9 2.2 2v4.6h-1.5Zm-15.4 0v-4.5c0-.6-.3-1.1-1.1-1.1s-.8.1-1.1.3v5.3h-1.5v-8.6h1.5v2.4c.5-.2.9-.3 1.4-.3 1.6 0 2.2 1 2.2 1.9v4.6H97Zm-17.8-7.4c-.6 0-.8-.4-.8-.8s.3-.8.8-.8.8.4.8.8-.3.8-.8.8m5.4 7.4v-4.6c0-.5-.2-1.1-1.2-1.1s-.7 0-1 .2v5.5H81v-6c.8-.3 1.7-.5 2.5-.5 1.9 0 2.5.9 2.5 2v4.6h-1.5Zm-6.1 0h1.5v-6.5h-1.5zm-2 .1c-1.3 0-1.8-.7-1.8-1.8v-3.8h-.7v-.9h.7v-1.3l1.5-.4v1.7h1v.9h-1v3.8c0 .6.3.7.7.7h.4v1h-.8Zm-3.9 0c-1.3 0-1.8-.7-1.8-1.8v-3.8h-.7v-.9h.7v-1.3l1.5-.4v1.7h1v.9h-1v3.8c0 .6.3.7.7.7h.4v1h-.8Zm-10.6-.1L59 28.9c-.2-.3-.4-.7-.5-1v6.2h-1.4v-8.2h1.5l2.9 4.8c.2.3.3.6.5.9v-5.8h1.4V34h-1.3Zm41-.8c-.3.1-.6.2-.9.2-.8 0-1.3-.5-1.3-1.4s.5-1.4 1.3-1.4h.8v2.5Zm-1-5.7c-.8 0-1.5.2-2.2.5l.3.9c.4-.2 1-.4 1.6-.4s1.3.2 1.3 1.1v.4h-.9c-1.5 0-2.7.8-2.7 2.3s.8 2.2 2.7 2.2 1.8-.2 2.4-.5V30c0-1.7-1.1-2.3-2.4-2.3ZM90.9 33c-.2.1-.5.2-.8.2-1 0-1.5-.8-1.5-2.3s.5-2.5 1.6-2.5.6 0 .8.1v4.4Zm-.7-5.4c-2.1 0-3.1 1.3-3.1 3.4s1 3.2 2.6 3.2 1 0 1.3-.2v.4c0 .9-.5 1.4-1.5 1.4s-1.2-.2-1.6-.4l-.4.9c.5.3 1.2.5 2.2.5 1.6 0 2.7-.9 2.7-2.6V28c-.4-.2-1.2-.5-2.2-.5Zm-23.1 5.8c-1 0-1.2-1.3-1.2-2.4s.2-2.5 1.2-2.5 1.2 1.3 1.2 2.5-.2 2.4-1.2 2.4m-.1-5.8c-1.8 0-2.7 1.4-2.7 3.4s.9 3.3 2.7 3.3 2.7-1.4 2.7-3.3-.9-3.4-2.7-3.4m34.3-10c-.5 0-.7.3-.7.7v.2h.8v.8h-.8v3.6h-1.2v-3.6h-.5v-.8h.5v-.3c0-.9.6-1.4 1.5-1.4h.5v.8h-.2Zm-10.9 7.1q-1.05 0-1.5-.3l.3-.7c.3.1.6.2 1.1.2.7 0 1-.3 1-.9v-.3c-.1 0-.4.2-.9.2-1.1 0-1.6-.5-1.6-1.4v-3H90v2.9c0 .4.1.7.7.7s.5 0 .6-.1v-3.5h1.2v4.2c0 1.4-.8 1.9-2 1.9ZM87.2 23c-.9 0-1.3-.5-1.3-1.2v-2.5h-.5v-.8h.5v-.9l1.2-.3v1.2h.7v.8h-.7v2.4c0 .4.2.5.5.5h.4v.7h-.8Zm-3.7-.1h1.2v-4.4h-1.2zm-2.4.1c-.5 0-.9-.1-1.4-.3l.3-.7c.2.1.5.3.9.3s.7-.1.7-.5-.2-.5-.7-.7c-.9-.3-1-.9-1-1.3 0-.7.5-1.3 1.5-1.3s.9.1 1.3.3l-.3.7c-.2-.1-.5-.2-.8-.2-.4 0-.6.2-.6.5s.3.4.7.6c.9.3 1.1.9 1.1 1.4 0 .8-.7 1.4-1.6 1.4Zm-1.8-3.7h-1v3.6h-1.2v-4.2c.2 0 .9-.3 1.6-.3h.7l-.2.8ZM67.1 18c-.4 0-.6-.3-.6-.6s.2-.6.6-.6.6.3.6.6-.2.6-.6.6m3.8 4.9h-1.1l-1.5-4.4h1.3l.6 2.1c0 .2.2.7.3 1 0-.3.2-.8.2-1l.6-2.1h1.2L71 22.9Zm-4.4 0h1.2v-4.4h-1.2zM84.1 18c-.4 0-.6-.3-.6-.6s.2-.6.6-.6.6.3.6.6-.2.6-.6.6m-19.6 4.9v-3.1c0-.3-.1-.6-.7-.6s-.5 0-.6.1v3.6H62v-4.2q.9-.3 1.8-.3c1.3 0 1.8.7 1.8 1.4v3.1h-1.2Zm-5.3.1c-1.1 0-2-.6-2-1.8v-3.9h1.2v3.9c0 .5.3.8.8.8s.8-.3.8-.8v-3.9h1.2v3.9c0 1.2-.9 1.8-2 1.8m37.4-.8c-.6 0-.7-.7-.7-1.5s.1-1.5.7-1.5.7.7.7 1.5-.1 1.5-.7 1.5m0-3.8c-1.3 0-1.9 1-1.9 2.3s.6 2.3 1.9 2.3 1.9-1 1.9-2.3-.6-2.3-1.9-2.3m-21.3 1.9h-1.7c0-.9.3-1.2.8-1.2s.8.3.8 1.1Zm1.1.3c0-1.4-.7-2.2-1.9-2.2s-2 .9-2 2.3.8 2.3 2.1 2.3 1.2-.1 1.6-.3l-.3-.8q-.6.3-1.2.3c-.5 0-1-.2-1.1-1.1h2.7v-.5Z" style="fill-rule:evenodd;fill:#25366d"/><path d="M14 43.9h36.9V7H14z" style="fill-rule:evenodd;fill:url(#_未命名的渐变)"/><path class="cls-1" d="M38.9 15.9c-.8-.5-1.6-.8-2.7-1.1V17q1.5.3 2.7.9v-2.1Zm-3.6 7.2c-.3 0-.5.2-.5.5v4.5h1.1l-.2-4.5c0-.3-.2-.5-.5-.5Zm1.1 12.4c-1.3 0-2.3-.3-3.5-.9-1.3-.7-2.8-1.2-4.6-1.2s-3.6.6-5 2.7c1.7-1.1 3.3-1.4 4.6-1.4s2.5.4 3.6.9c1.2.6 2.3 1.1 3.9 1.1s3.2-.6 4.7-2.5c-1 .8-2.2 1.3-3.5 1.3Z"/><path class="cls-1" d="M28.8 23.6c0-.3.2-.5.5-.5s.5.2.5.5l.2 4.5h-1.3zm.2 8.9c1.2 0 2.6.3 4.1 1.2v-4.4l-.6-.8v-6.2l1.3-2-.5 1.9h1.1c1.2 0 2.4.2 3.4.6l1.3-1.2v-3.2q-1.35-.6-2.7-.9l-1.8-.3v-2.8c-.7 0-1.4-.1-2.1-.1s-1.3 0-2 .1V17c-.6 0-1.2.2-1.8.3v-2.6c-1 .3-2 .7-2.9 1.2v5.4l1.2 1.2-.4 6-1 1V33l.3.4c.8-.4 1.8-.8 3.1-.8Z"/></g></svg>