<svg width="128" height="128" fill="none" xmlns="http://www.w3.org/2000/svg"><path fill-rule="evenodd" clip-rule="evenodd" d="M86.83 27.901c-.085-.05-.143-.114-.195-.142-.155-.098-.326-.148-.486-.24-.15-.085-.292-.205-.436-.29-.16-.098-.32-.148-.486-.24-.017-.01-.029-.08-.046-.097-.034-.029-.114-.029-.143-.045-.234-.137-.446-.263-.682-.388a50 50 0 0 0-3.875-1.836c-.497-.211-1.041-.406-1.5-.582-.549-.204-1.053-.399-1.597-.581-2.856-.959-5.994-1.62-9.452-1.934-1.768-.159-3.61-.285-5.524-.193-7.276.341-13.224 2.224-18.175 4.829-1.689.89-3.304 1.825-4.798 2.896-3.011 2.156-5.702 4.551-8.043 7.288a41 41 0 0 0-2.473 3.233c-.074.109-.194.286-.24.336-.04.04-.057.103-.098.143-.04.04-.058.102-.097.142-.04.04-.058.103-.097.143-.04.04-.058.102-.098.142-.04.041-.057.103-.097.144-.108.108-.171.222-.24.335-.12.19-.217.372-.293.53-.005.018-.084.03-.097.047-.068.114-.137.325-.194.387-.074.08-.103.166-.143.24-.183.32-.361.604-.533.918-.538.958-1.133 2.018-1.551 2.993-.023.058-.018.12-.047.195-.102.216-.245.41-.337.627-.131.307-.235.62-.338.865-.023.058-.08.098-.097.144-.05.13-.05.267-.097.388-.177.45-.373.894-.533 1.35a42 42 0 0 0-2.324 11.102 42.5 42.5 0 0 0 .533 10.668c1.528 8.583 5.335 15.248 10.035 20.664 3.343 3.77 7.31 6.912 11.924 9.415 4.093 2.132 8.685 3.809 14.105 4.584 5.91.85 11.978.308 16.867-.963.938-.245 1.843-.485 2.713-.777.59-.193 1.139-.416 1.694-.627a34 34 0 0 0 1.648-.678c.058-.023.139-.074.195-.097.07-.029.167-.011.241-.045.126-.058.257-.184.389-.24.063-.028.178-.023.24-.045.07-.029.143-.068.195-.097 1.3-.616 2.61-1.357 3.779-2.031.205-.119.394-.245.532-.336.057-.034.143-.063.195-.097.108-.068.223-.166.337-.24.12-.073.264-.113.39-.193.12-.075.216-.21.337-.291.046-.029.144-.063.194-.097.155-.096.23-.16.339-.239.144-.102.228-.165.338-.24.137-.091.234-.17.337-.239.138-.092.24-.166.338-.24.058-.045.137-.05.194-.097.098-.074.19-.216.292-.29.058-.045.139-.052.195-.098.183-.13.32-.256.487-.387.108-.086.229-.148.337-.24.097-.08.19-.21.293-.29.114-.092.223-.15.337-.24.223-.189.43-.365.63-.53.103-.086.183-.2.292-.291.115-.103.246-.16.338-.24.108-.096.183-.238.292-.335.205-.19.43-.332.63-.53l.583-.582c.389-.388.796-.754 1.163-1.158.045-.052.057-.149.097-.194.05-.063.097-.097.142-.143.482-.513.929-1.032 1.358-1.544.086-.103.206-.19.291-.292.052-.069.052-.137.097-.193.018-.023.081-.029.098-.047.035-.04.017-.102.046-.142.086-.114.2-.171.292-.29.08-.103.155-.23.24-.337 1.22-1.568 2.25-3.176 3.247-4.926a41.8 41.8 0 0 0 4.316-10.818c.103-.421.229-.809.292-1.157q.128-.75.241-1.494c.011-.08.079-.153.097-.24.056-.324.09-.666.142-1.014a43 43 0 0 0 .339-3.136 41.9 41.9 0 0 0-2.038-16.416c-.252-.74-.533-1.47-.779-2.127-.155-.41-.321-.787-.436-1.157-.005-.018-.085-.074-.097-.097-.121-.274-.223-.559-.337-.822-.12-.267-.264-.512-.39-.77-.126-.261-.206-.558-.337-.82-.132-.25-.299-.474-.436-.724s-.246-.525-.389-.77c-.212-.377-.424-.77-.629-1.112-.15-.245-.292-.49-.436-.724-.079-.137-.16-.262-.24-.388a48 48 0 0 0-4.024-5.308c-.213-.229-.424-.45-.63-.68-.177-.273-.487-.416-.63-.724-2.41-2.393-5.084-4.646-7.998-6.47zm-24.674-7.726h3.681c3.155.178 6.075.6 8.725 1.254a43.9 43.9 0 0 1 13.814 6.085c.394.262.824.49 1.162.821.326.13.584.404.87.627.04.028.103.017.142.046.041.028.058.113.099.142.045.034.103.018.142.045.063.047.132.143.195.195.304.234.601.467.921.724.236.188.43.37.683.58.034.03.068.076.097.098.034.023.108.018.142.047.076.067.11.164.195.238.063.057.178.086.24.142.15.137.287.297.436.434.675.622 1.426 1.318 2.083 2.03.195.21.43.393.63.627.063.074.08.171.144.24.268.303.565.57.824.867a44.1 44.1 0 0 1 8.776 16.028c1.042 3.433 1.683 7.202 1.843 11.392v2.27c-.241 6.722-1.78 12.43-4.07 17.334a43.8 43.8 0 0 1-8.822 12.55 44.1 44.1 0 0 1-12.6 8.786c-4.906 2.282-10.625 3.803-17.352 4.054h-2.324c-6.663-.256-12.377-1.738-17.255-4.009A46.3 46.3 0 0 1 36.9 98.56c-.103-.08-.166-.165-.292-.24-.028-.016-.068-.027-.097-.045-.24-.193-.44-.433-.682-.627-.04-.035-.108-.011-.142-.046-.103-.097-.276-.25-.436-.387A34 34 0 0 1 33.7 95.81c-.447-.422-.91-.815-1.356-1.305-.11-.12-.178-.268-.293-.388-.103-.108-.24-.182-.337-.291-.218-.233-.407-.478-.63-.723-.16-.177-.31-.337-.486-.532-.173-.187-.378-.483-.585-.723-.056-.068-.092-.126-.142-.194-.103-.125-.247-.216-.339-.337-.034-.04-.01-.108-.045-.142-.018-.022-.08-.028-.097-.046a9 9 0 0 1-.338-.484c-.029-.046-.092-.114-.143-.194-.028-.046-.091-.115-.143-.194-.03-.045-.092-.114-.143-.194-.029-.046-.092-.114-.144-.194-.074-.108-.234-.284-.338-.434-4.35-6.112-7.607-13.757-8.14-23.605v-3.666c.04-.012.058-.04.047-.097A42.1 42.1 0 0 1 23 48.018c.046-.108.064-.228.098-.337.005-.017.085-.073.097-.097.016-.04-.012-.102 0-.142.005-.017.085-.074.097-.097.017-.04-.012-.103 0-.143.006-.016.085-.074.097-.097.206-.483.378-.957.584-1.402.068-.148.172-.28.24-.433.149-.308.235-.622.39-.919.149-.29.331-.53.486-.82.15-.285.275-.582.435-.867.79-1.415 1.655-2.72 2.57-4.009 2.944-4.14 6.418-7.55 10.517-10.475 2.043-1.46 4.259-2.714 6.64-3.86 4.781-2.303 10.403-3.79 16.917-4.15z" fill="#274563"/><path fill-rule="evenodd" clip-rule="evenodd" d="M60.709 99.54c-.19.405-.917.041-1.214.144.108.056.217.148.292.238.08.097.177.234.194.389-.17.29-.464.627-.87.53-.132.097-.103.348-.292.388-.12-.359-.332-.638-.292-1.158-.166-.223-.303-.468-.68-.484.068.319.325.445.486.678.149.302.234.667.291 1.061.063.096.202.119.241.24.05.09.063.227.097.335.121-.005.155.074.195.143.32-.217.68.046 1.019-.046a.6.6 0 0 0 .097-.432c.218-.458.738-.617 1.31-.725.23-.833-.417-1.015-.869-1.306zm5.043.24c.132.513.143 1.146.24 1.688.257.377.412.844.922.963.12-.119.075-.301.046-.433-.046-.25-.315-.53-.24-.867-.075-.005-.177.018-.195-.045.108-.108-.046-.2 0-.387a2.1 2.1 0 0 1-.63-1.112c.029-.103.12-.314-.045-.337-.042.165-.03.308-.098.53m14.397-2.127c-.189-.074-.394-.188-.63-.193-.12.04-.257.063-.435.045 0 .433.218.65.241 1.06.207.12.475.229.772.195.19-.024.344-.154.488-.195.085-.177.119-.393.097-.678-.138-.142-.344-.171-.533-.24zm-13.956.582c.337-.063.429.12.726.097.115-.468-.274-.804-.434-1.157-.063 0-.069-.063-.144-.052-.005.29.006.827-.142 1.112zm-15.657-1.402c-.012-.013-.075.022-.046.045.01.01.074-.023.046-.045m-3.15-.143c-.01-.012-.074.022-.045.046.011.01.074-.024.045-.046m3.779-.194c.007-.05-.04-.126-.045-.045-.006.05.04.124.045.045m-.045-.24c0-.029-.04-.056-.047 0 0 .029.041.058.047 0m34.507-.142c-.01-.011-.074.023-.05.052.01.01.073-.023.05-.052m-16.332 1.688c-.177.114-.355.228-.583.29-.252.33-.59.57-.871.868-.177.084-.355.24-.486.387-.137.153-.32.325-.292.627-.018.24.302.148.338.337.08.262.297.375.434.581.236.115.488.268.774.434.177.103.405.267.531.335.23.126.396.069.63 0 .069-.09.11-.216.292-.193.572.04.974-.091 1.357-.239.034-.44-.252-.554-.338-.867.235-.377.624-.604.682-1.157.228-.177.435-.371.486-.725-.085-.25-.315-.359-.486-.53-.544-.137-1.271-.086-1.844-.194-.126-.65-.188-1.357-.532-1.785-.137-.005-.315.03-.39-.05.093.632.206 1.242.293 1.881zm-9.548-1.016c-.516.531-1.14.982-1.695 1.404-.211.159-.407.335-.584.485-.578.478-1.242.906-1.89 1.254-.228.119-.497.182-.68.388-.16.028-.355.034-.436.142.263.079.441.234.825.193.229-.171.493-.267.727-.387.28-.143.544-.33.772-.433.018-.006.035-.086.047-.097.195-.148.32-.251.486-.388.236-.194.486-.422.727-.53.018-.005.03-.086.046-.097.235-.166.487-.353.681-.485.063-.04.137-.058.195-.097.578-.393 1.087-.804 1.649-1.208.275.016.428-.086.727-.047.12-.398-.115-.803-.389-.962-.327.108-.745.319-1.163.29-.31-.023-.538-.195-.772-.29.034.495.447.62.727.865m15.897-2.605c.068.096.097.262.144.388.05.125.113.262.142.388a.55.55 0 0 1 .338.337c.017.095-.063.095-.097.142.142.205.155.717.337 1.015.012.764-.35 1.162-1.019 1.254.092.274.522.32.825.24.034.061.102.09.194.096-.034.273.218.268.241.484-.074.074-.08.211-.097.337-.092.04-.195.063-.241.143v1.402c.201-.022.246-.205.338-.336.155-.086.24-.24.338-.387.206-.034.28-.2.434-.292 0-.261.076-.438.098-.678.075-.165.291-.189.291-.434-.119-.296-.25-.45-.24-.723.012-.263.253-.502.292-.822.024-.16-.016-.297 0-.484.058-.006.052-.074.047-.143.045-.148.234-.153.24-.337-.011-.09.057-.108.046-.193-.029-.115-.07-.223-.046-.387-.087-.047-.126-.137-.292-.097.04-.2-.132-.195-.195-.292-.235.102-.475-.067-.727-.096a1.07 1.07 0 0 0-.291-.582c-.447-.011-.888-.045-1.214-.045-.046.09.08.068.097.096l.017.007Zm-24.427-.097c.142.262.126.678.338.867.114.029.223.069.389.045.338-.467-.15-1.014-.63-1.112 0 .097-.131.063-.097.195zm-3.779 2.8c-.142-.012.046-.2 0 0 .127.45.367.798.728 1.014.217.023.36-.022.532-.045.19.08.406.268.584.097-.006-.057.01-.086.045-.097.029-.285-.303-.21-.24-.53.39.016.762-.24 1.02-.194-.035.37-.109.946 0 1.306.28-.086.205-.61.24-1.015.074-.137.045-.37.097-.531-.395.057-1.002.16-1.312.142.425-.267 1.111-.28 1.552-.53.12.19.063.224-.097.337.15-.01.275-.052.389-.097.007-.28-.126-.422-.143-.678-.189.006-.223.164-.435.142-.2-.291-.292-.93-.24-1.306.343.047.458-.245.434-.433-.021-.194-.543-.53-.772-.724-.144-.114-.367-.32-.583-.097-.035.25.434.182.291.387-.201-.045-.338-.148-.487-.238.023.216.155.33.196.53-.207.164-.75.29-1.02.097-.132.211-.332.512-.143.77.372.034.63-.047.967-.047.155-.022.338-.171.435-.096.069.33-.228.347-.435.433-.55.222-1.39.325-1.986.53-.005.171-.178.177-.144.388.304.131.688.12 1.02.097.784-.058 1.592-.234 2.136-.485.005.137.091.2.097.337-.636.364-1.329.667-2.324.678-.139-.04-.241-.114-.39-.143h-.012Zm2.038-3.667c.425.303 1.123.246 1.844.337.606.074 1.402.217 1.454.723.023.206-.155.445-.292.725-.361.748-.761 1.512-1.065 2.218-.286.662-.59 1.312-.922 1.882-.113.2-.2.519-.486.53-.212-.034-.258-.28-.338-.433-.097-.189-.171-.394-.24-.582-.018-.16-.166.206-.144-.045-.113-.018-.045-.211-.142-.24-.006.314.12.952.194 1.208.143.492.4 1.181.727 1.209.298.024.435-.268.533-.432.195-.115.234-.343.337-.53.103-.178.252-.355.338-.532.098-.193.148-.427.24-.627.097-.205.236-.377.338-.58.292-.583.562-1.215.87-1.74.115-.194.252-.37.338-.582.155-.182.43-.25.486-.53.12-.171.03-.422-.045-.627-.252-.661-.835-.907-1.694-1.112-.831-.194-1.57-.348-2.422-.337-.03 0-.058.006-.046.052.063 0 .069.062.143.045zm-1.551-.045c-.03.04-.022.108-.045.143-.047.063-.098.124-.144.193-.337.497-.641 1.061-.922 1.546-.131.227-.257.45-.389.678-.092.154-.2.29-.292.434-.091.148-.2.307-.24.483.125.103.034.416.292.39.137-.132.166-.321.24-.486.32-.69.693-1.362 1.019-1.978.178-.337.378-.639.533-.965.086-.182.183-.376.194-.58q-.013-.062-.097-.047c-.018.115-.115.155-.142.195zm36.885-1.836c-.052.547-.373.821-.728 1.06.211.102.407.028.533-.046.103-.063.206-.295.24-.336.074-.08.052-.267.194-.239.12.348.092.838.488.918.228.05.313-.195.486-.045-.132.495-.67.586-.824 1.06-.19.086-.326.222-.533.29.207-.027.2.16.389.142.126.069.333.058.487.098.384-.308.429-.952 1.064-1.015 1.09.633.058 2.2-.63 2.56.047.051.178.017.144.143-.137.074-.32.096-.435.193.332.029.572-.25.824-.142.013-.085.086-.108.195-.097.28-.267.63-.467.921-.724.018-.434.236-.639.196-1.06a3.5 3.5 0 0 0-.099-.53c-.142-.377-.577-.549-.628-.965.131-.256.434-.335.434-.723-.229-.11-.308-.16-.486-.144-.247.023-.401.326-.63.337-.137.006-.229-.074-.389-.097-.223-.262-.15-.485-.097-.867-.35-.335-.843.063-1.116.24zM40.123 90.32c.068.398.131.804.486.918-.103-1.073-.55-1.808-1.213-2.315.205.501.51.912.727 1.402zm3.492-1.934c-.338.45-.488 1.096-1.019 1.352-.27-.097-.522-.222-.923-.193-.05.061.115.216.144.238.166.155.498.178.533.389-.058.233-.287.29-.339.53-.194.097-.234.348-.435.433-.195.012-.326.092-.486.24v.434a135 135 0 0 0-2.616 3.574c.378-.143.601-.501.87-.77.28-.28.606-.53.87-.82.064-.069.086-.171.143-.24.063-.074.178-.12.241-.194.142-.154.245-.33.389-.485.131-.142.31-.245.435-.388.028-.034.022-.113.046-.142a1 1 0 0 1 .389-.29c.47.034.802.198 1.213.29.161-.137.092-.337.144-.485.223-.063.704-.085.921 0 .115-.142.172-.348.39-.387.114.142.372.142.435.337-.166.016-.332.022-.436.095.286.098.641.052.774-.142.04-.667-.31-.946-.63-1.254-.12-.006-.235-.006-.292.046-.264-.268-.808-.257-1.02-.582.201-.166.328-.382.488-.582.148-.188.423-.377.337-.77a3 3 0 0 0-.584-.24zm42.408 1.404c-.057-.007-.086.01-.097.05-.069.03.005.058 0 0 .057.006.086-.01.097-.05.436-.097.801-.263.824-.77-.687-.16-1.013.433-1.407.723-.236-.324-.413-.717-.63-1.06-.013-.302-.069-.45 0-.724-.069-.08-.139-.153-.195-.24-.385-.04-.572.109-.87.143-.07.028-.012.131-.046.194-.023.045-.126.056-.144.097-.029.069.023.172 0 .24-.01.033-.137.05-.097.143.229.005.362-.092.533-.143.154.12.315.233.338.483-.178.035-.207-.079-.39-.045.08.206.378.411.63.29.08.098.16.2.194.338-.103.074-.246.108-.292.24-.074.005-.183-.024-.194.044q.233.058.389.195c.194-.018.355 0 .389.142-.195.32-.434.593-.629.918-.115.046-.08.24-.24.24.114-.194-.087-.404.044-.583.03-.17-.17-.119-.142-.29-.011-.422-.184-.672-.097-1.06-.047 0-.04-.057-.047-.097-.313-.229-.789-.005-1.064.097-.2-.108-.64-.155-.772.045.308-.016.349.23.337.53.126.148.435.115.584.24.211.034.114-.245.337-.193.047.261.173.438.241.678-.137-.011-.246.01-.291.097.136.005.315-.029.388.045.017.058-.023.137 0 .195.017.05.087.034.098.096.023.126-.058.279-.046.388-.12-.091-.251-.217-.39-.336-.108-.103-.218-.245-.337-.337-.04-.03-.104-.017-.143-.046-.024-.017-.024-.079-.046-.097-.034-.029-.104-.016-.143-.045-.017-.01-.035-.086-.046-.097-.264-.137-.595-.2-.87-.05h.24c.59.33 1.22.648 1.597 1.207.058.086.166.194.144.337-.041.137-.11.245-.241.29-.171-.142-.378-.359-.63-.53-.063-.04-.12-.05-.194-.097-.24-.153-.63-.507-1.214-.388-.052.013-.212.03-.194.143.257.046.538-.006.772.052.132.029.258.137.39.193.085.04.172.012.24.052.063.034.086.108.144.142.234.154.526.303.583.583-.155.427-.47.688-.727 1.014-.16.063-.383.069-.486.193.016.32.074.599.045.965.2.182.55.063.727-.053.074-.443-.04-.78.045-1.207.126-.098.121-.332.294-.388.063-.142.119-.297.291-.337.137-.018.297.182.39.045a.37.37 0 0 1-.293-.29c.127-.216.184-.467.533-.337.05-.182-.183-.074-.144-.24.263-.49.665-.849.922-1.35.173.069.367.32.63.143.029-.269-.108-.372-.097-.628.08-.16.263-.223.389-.337.091-.091.207-.336.338-.24-.04.19-.178.275-.241.435zm-20.94-11.587c-.058.006-.139-.005-.144.045.057-.005.137.007.144-.045m8.334-2.172a14 14 0 0 1-1.26.193c-.4 1.404-.743 2.862-1.116 4.3.132.61.275 1.208.389 1.835.516-.005 1.042.058 1.552.097.51.04 1.019.109 1.454.098-.394-2.116-.618-4.402-1.019-6.518zm-20.987-.097c.648.222 1.374.37 1.987.627.486 1.386.985 2.754 1.455 4.15 1.521-.353 3.004-.798 4.504-1.208s3.024-.799 4.505-1.255c-2.604.337-5.1.782-7.704 1.112-.304-.923-.607-1.932-.871-2.799-.143-.474-.286-1.015-.434-1.397-.03-.086 0-.25-.144-.24-1.11.325-2.227.644-3.298 1.015zm12.406-2.316c-.012-.01-.075.023-.046.047.012.01.075-.024.046-.047m-37.08 1.689c.006.587.258 1.236.533 1.642.51.74 1.323 1.112 2.324.964 1.1-.16 2.142-.925 2.28-2.031a3 3 0 0 0-.195-1.448c-.15-.382-.355-.593-.585-.821-.09-.09-.166-.24-.24-.29-.103-.07-.257-.098-.389-.143-.144-.058-.275-.132-.435-.143h-.533c-.016.388.086.656.047 1.06.315-.01.686.018.824.098.216.131.423.33.532.582.27.593.062 1.225-.292 1.494-.2.153-.281.17-.533.29-.131.063-.223.153-.337.193-.361.12-.785.166-.968.144-.274-.029-.429-.178-.583-.292-.047-.034-.11-.016-.144-.045-.085-.069-.137-.188-.195-.29-.16-.297-.228-.606-.194-1.017.097-.079.08-.279.194-.335.047-.148.236-.155.241-.337-.207-.274-.349-.622-.584-.867-.424.434-.778.822-.773 1.592h.006Zm45.85-1.545c.011.142.2-.047 0 0-.367-.195-.968-.537-1.454-.771-.171-.085-.4-.188-.533-.193-.216-.006-.67.222-.922.337-.131.061-.434.164-.628.238-.126.047-.252.08-.39.144-.092.045-.235.085-.39.142-.194.074-.406.137-.63.238-.097.047-.234.087-.388.144-.155.056-.573.239-.773.239-.138 0-.475-.096-.682-.143-.44-.103-.806-.21-1.31-.335-.184-.047-.39-.15-.63-.098.864.411 1.677.873 2.57 1.255q2.089-.794 4.22-1.545c.635.12 1.258.262 1.94.335zm21.954-1.404c.997.332 2.113.674 3.051 1.015.11.041.367.007.39.194-1.236-.084-2.56-.084-3.778-.194q-.187.495-.338 1.016c.48.285.938.61 1.408.918.48.313.962.616 1.409.964.16.068.326.124.389.29-1.174-.388-2.365-.764-3.539-1.157-.08.342-.234.604-.292.963 1.557.497 3.086 1.014 4.655 1.494.16-.52.337-1.015.486-1.545a218 218 0 0 1-2.473-1.689c-.12-.085-.32-.108-.337-.29 1.116.069 2.261.097 3.44.097.143-.537.36-.993.486-1.544-1.585-.463-3.114-.982-4.653-1.495-.08.341-.236.604-.292.963zm-23.7-2.462c-.28-.092-.796-.286-.967-.24-.545.13-1.094.359-1.649.53-.556.177-1.117.343-1.695.485-.177.182-.51.438-.68.627-.03.034-.224.193-.047.193 1.094-.25 2.273-.496 3.344-.723.526-.115.812-.04 1.31.045.848.154 1.597.309 2.422.433.275-.114.407-.37.63-.53-.922-.227-1.82-.559-2.668-.82m3.876-.39c-.83-.654-1.707-1.259-2.57-1.88 0-.028-.006-.057-.046-.046-.28.348-.699.559-.968.918 1.11.537 2.176 1.119 3.245 1.688.304-.052.396-.313.682-.387-.052-.16-.206-.211-.338-.292zm-20.5.195h2.038V67.53h-2.038v2.172Zm-.923 0h.39v-2.218h-.39zm-23.505-2.224c-1.185.23-2.427.474-3.538.68-.412.074-.853.068-1.162.24.138.284.104.735.24 1.014a18 18 0 0 1 1.89-.337c.086.736.28 1.363.338 2.127-.652.058-1.174.245-1.844.29-.052.269.126.703.144 1.062 1.648-.224 3.154-.593 4.797-.822.051-.267-.126-.701-.143-1.06-.756.068-1.369.28-2.136.337-.13-.69-.246-1.398-.388-2.076a27 27 0 0 1 2.135-.388c-.035-.194-.103-.348-.098-.582-.11-.113.006-.456-.194-.485h-.047zm27.388 1.74c.05.16-.11.524.097.53h.194c.115-.593.017-1.397.045-2.075a1.4 1.4 0 0 0-.336-.337zm39.648-2.852H97.8c-.275.024-.607.184-.727.292-.034.034-.11.016-.144.045-.05.046-.04.126-.097.195-.143.176-.24.21-.337.433-.259.587-.241 1.294-.241 2.076.131.364.32.678.583.917 1.14.462 2.68.52 4.072.725.05-.354.113-.69.142-1.062-.807-.063-1.751-.233-2.518-.335-.573-.076-1.1-.126-1.312-.434-.25-.365-.183-.958 0-1.306.304-.57.853-.479 1.551-.387.866.12 1.827.267 2.571.335a5.5 5.5 0 0 0 .144-1.06c-1.048-.126-2.589-.336-3.636-.434h-.006Zm-71.879-.723c-.028.415.087.69.046 1.11 1.598-.141 3.258-.226 4.894-.335-.01-.36-.08-.661-.045-1.06-1.66.068-3.212.244-4.895.29zm33.152.096h.825v-1.882h-.825zm-.921-.433c.045.132-.098.451.097.433h.194c.115-.501.017-1.208.045-1.784a1.4 1.4 0 0 0-.336-.337zm2.57-2.269c-.104.056-.189.13-.293.193v2.413c-.085.36.196.354.338.484-.034-1.015.063-2.154-.045-3.09m35.865-1.785c.005 1.363.08 2.658.045 4.054h.824c.069-1.049-.142-2.076 0-3.038.418.034.969-.063 1.312.045-.017.917.085 1.716.046 2.656h.824c-.063-.854-.052-1.784-.045-2.701.371.021.783-.137 1.116 0-.012.991.005 1.96.051 2.896.264-.012.469-.08.773-.047.035-1.368-.057-2.617-.052-3.956-1.643.023-3.297.029-4.894.097v-.007Zm-70.568-1.403c-.092.245-.035.645-.046.964 1.047.08 2.204.058 3.2.193-1.099.69-2.21 1.375-3.343 2.031-.03.343.057.799-.046 1.06 1.643.069 3.297.126 4.895.24.04-.314.063-.644.045-1.015-1.024-.074-2.164-.034-3.103-.194 1.042-.684 2.136-1.316 3.2-1.978.081-.303.04-.737.047-1.112-1.654-.029-3.19-.171-4.85-.194zm47.113 3.479c-.005.057.012.086.047.097.028.068.057-.006 0 0 .005-.058-.011-.086-.047-.097-.337-.76-.767-1.426-1.116-2.172-.016-.303-.022-.685-.045-1.015-.013-.144-.023-.348-.047-.485-.016-.097-.005-.342-.194-.292-.114.628-.017 1.466-.045 2.174.486.593.921 1.236 1.454 1.784zm3.59-6.13v.627h.487c.126-.29.234-.598.389-.867-.045-.119.218-.25 0-.24-.275.177-.578.326-.87.485zm19.195-.388c.234 1.215.395 2.504.63 3.718.234-.074.56-.052.773-.142-.138-.896-.269-1.791-.436-2.658 1.323-.211 2.605-.462 3.973-.627.007-.404-.103-.701-.143-1.06-1.637.222-3.223.49-4.797.77ZM76.43 55.408c-.087.01-.242-.052-.195.097v.678c.132.045.452-.097.434.097v.098c-.05.108-.302.016-.434.05v.582c.544.011.657-.41 1.064-.531.04-.438.15-.82.144-1.305-.28-.206-.453-.52-.774-.678h-.24v.917zm-49.582-.047q-.104.575-.24 1.112c.635.469 1.288.896 1.94 1.352.635.445 1.247.964 1.94 1.352.024.137.207.113.241.24.087 0 .126.04.143.097.063.01.097.074.097-.047.097-.335.155-.718.241-1.06a5.5 5.5 0 0 1-1.019-.68c.115-.324.16-.695.24-1.06s.133-.763.293-1.06c.412-.028.749-.12 1.116-.194.097-.353.171-.73.24-1.111-1.786.313-3.48.712-5.232 1.06Zm31.554-1.977c.075.25-.31.045-.194.335v7.967c.017.176-.087.473.194.387.16.052.16-.068.144-.194v-11.54c-.013-.04-.041-.057-.097-.046-.115.935-.018 2.075-.047 3.09ZM94.8 52.95c.046.382.298 1.164.487 1.351.04.04.056.103.097.143.245.25.573.633.87.775 1.134.531 2.788-.13 3.246-.82.08-.12.126-.2.194-.337.115-.24.144-.359.241-.627.058-.833-.092-1.306-.338-1.837-.32-.678-.595-1.043-1.259-1.305-.275-.108-1.037-.24-1.357-.097-1.374.223-2.365 1.146-2.181 2.754m-38.1-2.851a.23.23 0 0 1-.046.142c-.252.668-.607 1.443-.87 2.076-.046.108-.11.229-.143.337-.035.103-.126.262 0 .335.154-.034.149-.227.194-.335.115-.263.252-.514.338-.724.058-.132.092-.263.144-.388.08-.189.19-.416.24-.53.034-.075.023-.178.046-.24.04-.097.154-.223.195-.337.045-.131.166-.342 0-.336zm3.538.387c.16.406.338.793.486 1.159.057.148.092.301.144.432.045.114.15.23.194.337.058.137.018.348.195.388-.218-.975-.618-1.768-.87-2.703-.097-.08-.018-.336-.194-.336-.276.177-.035.52.045.723m-4.947-1.254c-.68.753-1.447 1.42-2.135 2.173.258-.08.402-.319.584-.485.201-.176.44-.297.584-.53a5 5 0 0 0 .87-.776c.097-.096.247-.143.292-.29-.132.034-.097-.098-.195-.098zm8.142 1.494c-.097-.108-.195-.193-.293-.29-.481-.48-.996-1.02-1.453-1.45-.07-.061-.287-.324-.293-.142-.056.007-.035.058 0 .097.298.348.71.69 1.065 1.062.171.182.35.348.533.53.189.187.331.438.583.53.103-.132-.074-.256-.142-.337m-10.568-2.127c-.355.143-.727.258-1.02.388-.09.04-.262.063-.29.194.176.045.36-.097.485-.142a52 52 0 0 0 1.889-.77c.097-.045.286-.04.293-.194-.482.097-.922.36-1.357.53zm9.405-1.157c.19.155.436.188.68.29.225.097.454.245.683.337.068.029.142.029.194.045.126.052.241.103.338.143.195.08.344.17.532.24.063.023.31.194.338 0a52 52 0 0 0-2.862-1.209c.005.074-.006.165.097.143v.01Zm-15.851-.24V61.88c-.074.274.17.212.291.194.241-.04.15 0 .195-.24.029-.17 0-.284 0-.484.005-.952 0-2.059 0-2.754V47.442c-.04-.12.092-.416-.097-.388h-.337c-.058.006-.052.074-.047.143zm7.076-.335c-1.053-.063-2.159.05-3.149 0-.057.005-.052.074-.046.142-.841.114-1.889.017-2.81.045v15.014h9.788V53.52c-.017-.126.269.045.195-.144-.011-.735.018-1.579 0-2.27-.006-.232.074-.518-.097-.677-.063.029-.184-.034-.241 0-.063.034-.006.132-.046.193-.074.103-.16.252-.194.337-.047.12-.052.268-.097.387-.052.127-.15.224-.195.337s-.052.269-.097.388c-.133.359-.378.759-.435 1.112-.178.045.273.097.097.142-.04.126-.047.274-.144.337a29 29 0 0 1-1.258-.484c-.121-.092-.367-.058-.39-.24.069-.074.062-.229.143-.29.04-.121.171.135.241 0 .268-.908.675-1.678.967-2.561.057-.092.189-.296-.045-.29-.076-.2-.236.005-.293.044-.092.069-.182.235-.24.29-.538.538-1.15 1.113-1.649 1.592-.131.132.126.12.097.29-.126.052-.165.195-.291.24-.27-.166-.46-.41-.682-.627-.211-.211-.498-.382-.63-.678a.64.64 0 0 0 .24-.24c.19.085.15.08.292 0 .139-.08.27-.319.436-.484.48-.48 1.019-.98 1.454-1.403.126-.149.148-.155.045-.337-.257-.108-.509.103-.727.195-.738.301-1.481.559-2.18.865-.126.041.09.213-.047.292-.176-.034-.183.103-.336.097-.167-.508-.425-1.038-.585-1.494-.023-.068-.114-.12-.045-.194.074-.056.2-.063.24-.143.212-.068.103.188.291.143a3 3 0 0 1 .488-.24c.17-.068.273-.096.389-.142.063-.03.114-.017.194-.045.115-.053.223-.148.338-.195.114-.045.263-.045.39-.096.12-.046.228-.15.337-.194.206-.085.595-.08.63-.388-.057-.155-.23-.092-.338-.097zm27.192 0c-.19.678-.452 1.345-.682 2.03-.114.352-.183.711-.292 1.06-.103.33-.337.66-.292 1.014.171-.062.19-.29.241-.433.441-1.22.778-2.532 1.214-3.718-.069-.01-.081-.08-.144-.097 0 .068-.022.11-.045.144m1.505 4.874c.023.091-.069.291.097.24.16.028.092-.172.097-.24.007-.096 0-.257 0-.336.029-1.465.07-3.102 0-4.488-.005-.063.07-.313-.097-.29h-.097zm-3.102-5.308c-.104.136-.236.256-.338.387-.109.142-.184.297-.292.434-.103.13-.236.256-.338.388-.109.137-.235.268-.292.432a7.5 7.5 0 0 0-.727.867c-.08.12-.19.23-.24.337-.029.063-.144.125-.144.193-.005.115.081.103.144.24.137-.05.206-.188.292-.29.068-.087.154-.19.194-.24.074-.108.12-.2.195-.29.016-.023.08-.023.097-.047.034-.04.018-.108.045-.142.47-.593.945-1.157 1.41-1.74.062-.176.246-.24.291-.432a1.6 1.6 0 0 0-.195-.24c-.01.069-.08.08-.097.143zM30.235 50.92c.728.193 1.455.89 2.376.627.103-.028.258-.165.292-.194.041-.027.11-.022.144-.045.023-.017.023-.08.045-.097.047-.035.11-.011.144-.046.205-.194.372-.542.533-.867.17-.347.349-.695.389-1.014.165-1.46-.99-1.768-1.89-2.172-.744-.337-1.271-.559-1.94-.92h-.098c-.211.275-.297.668-.486.965.612.262 1.15.507 1.843.82.452.206 1.54.577 1.649 1.062.108.49-.236.986-.39 1.157-.022.029-.022.074-.046.097-.04.034-.097.017-.142.045-.052.035-.092.12-.144.143a1 1 0 0 1-.292.046c-.234.006-.595-.17-.87-.291-.132-.057-.251-.13-.39-.194-.698-.325-1.505-.679-2.082-.964-.15.337-.339.633-.436 1.015.612.258 1.213.53 1.791.822zm47.258-4.875c-.647.222-1.403.353-2.083.53-.236.063-.51.12-.63.24.212.113.486.045.727 0 .51-.098.995-.234 1.5-.337.246-.05.538-.05.727-.193-.137.005.057-.314-.144-.24zm-11.827-.433c-.04.011-.057.04-.047.096-.09.303.26.166.436.195h7.9c.178-.018.475.091.39-.195.017-.193-.303-.05-.436-.096zm30.387 3.284c.72.222 1.258-.24 1.5-.627.354-.571.057-1.289-.195-1.784-.333-.656-.934-1.729-1.163-2.174 0-.029-.005-.056-.045-.045a.3.3 0 0 0-.144.097c-.635.348-1.391.662-1.94 1.015-.045.029-.103.074-.143.097-.343.182-.716.348-1.065.53-.338.177-.715.337-1.019.582.223.256.326.638.533.918.567-.354 1.195-.638 1.791-.964.138.326.344.537.338.867 0 .37-.291.764-.486 1.157-.201.41-.39.793-.487 1.158.183.365.367.73.584 1.06.4-.803.928-1.494 1.065-2.56.24.291.532.57.87.679zM74 44.506c.67.295 1.5.724 2.136 1.014.022.011.216.24.24.051-.762-.512-1.597-.952-2.376-1.447v.387zm-15.17-.627c-.55.69.114 1.55.87 1.447.383-.05.819-.45.727-1.06-.074-.496-.59-.764-1.066-.68-.273.053-.405.127-.531.293m-7.27-.725c.273.12.64.297.87.388.075.028.12.017.194.045.131.057.223.144.338.194.126.051.263.046.389.098.126.05.223.147.338.193.12.052.263.108.389.142.086.029.286.171.338 0-.94-.415-1.94-.775-2.862-1.208h-.144c-.01.103.04.154.144.143zm21.42 1.449c.03.256-.034.586.144.627.092-.326-.052-.713-.097-1.112-.023-.2-.018-.422-.046-.627-.022-.177 0-.422-.143-.531.058.526.092 1.13.143 1.643Zm-39.453-3.576c-.011-.005-.035.006-.046 0-.172.28-.372.53-.532.822.412.216.819.559 1.161.77.201.124.32.227.488.335.2.137.365.234.53.337.156.097.23.16.34.24.046.034.188.045.143.142h-3.928c-.149.314-.401.536-.532.867.24.2.514.393.727.53.097.063.2.085.291.142.069.046.12.143.195.195.092.062.207.085.293.142s.16.137.24.193c.086.058.206.087.291.143.076.052.126.144.195.194.196.143.367.222.532.337.139.09.281.177.39.24.23.142.44.313.63.433.097.063.166.142.292.142.137-.314.372-.53.532-.822-.699-.358-1.356-.997-2.038-1.305-.016-.005-.029-.085-.045-.097-.184-.12-.441-.159-.488-.388 1.271-.005 2.583.03 3.779-.045.206-.297.44-.558.584-.919-1.368-.854-2.656-1.779-4.024-2.656zm19.584-.337c.692.73 1.38 1.46 2.083 2.174.075.13.173.245.292.096.104-.136-.074-.257-.143-.336-.24-.28-.624-.524-.921-.822l-.584-.58c-.252-.252-.356-.532-.727-.532-.029-.068-.057.006 0 0m39.792-1.014c-.23.126-.39.319-.63.434.253.507.658.86.922 1.35-1.105.764-2.153 1.591-3.245 2.367.137.347.423.542.583.866.315-.131.567-.387.824-.58.281-.213.596-.366.825-.627.623-.332 1.07-.833 1.694-1.16.333.412.596.886.968 1.255.148-.222.475-.267.583-.53-.84-1.123-1.66-2.274-2.518-3.38zm-37.176-.143c-.006.058.01.087.045.097-.005.058.012.085.047.098.068.324.246.672.389 1.014.04.098.11.194.143.29.046.115.046.257.098.388.04.103.108.2.142.292.068.153.126.57.389.433.041-.206-.103-.45-.195-.627-.102-.2-.234-.383-.336-.582-.213-.399-.396-.839-.63-1.208.005-.058-.011-.087-.047-.098.007-.057-.01-.086-.045-.097-.029-.068-.058.006 0 0m-21.182.24c.31.25.613.513.922.775.16.131.326.25.486.388.155.131.286.308.436.434.034.028.11.022.143.045.04.034.057.114.098.142.04.035.097.018.142.047.04.027.058.114.097.142.16.137.328.256.488.388.16.13.326.25.486.387.155.132.28.32.486.388.173-.297.425-.508.63-.77.006-.137-.137-.12-.194-.194-.063-.085-.103-.188-.241-.193-.51-.485-1.059-.947-1.597-1.404-.544-.456-1.082-.917-1.649-1.35 0-.029-.005-.058-.045-.047-.201.297-.464.537-.682.822zm23.895-1.21c.023.97-.028 2.133 0 3.04.007.091-.08.36.098.388.114-1.095.017-2.4.045-3.575h-.143zm33.346-.192c-.812-.833-1.665-1.574-2.421-2.413-.063 0-.069-.062-.143-.046-.584.565-1.054.999-1.792 1.74l-.825.821c-.189.188-.83.775-.824.867 0 .017.275.222.39.336.899.895 1.723 1.744 2.519 2.56.142-.245.428-.342.532-.627a30 30 0 0 1-1.598-1.591c-.126-.229-.4-.308-.486-.582.16-.125.292-.256.486-.433.07-.068.425-.44.488-.434.05 0 .331.382.434.485.482.48 1.082 1.01 1.41 1.404q.377-.198.583-.582c-.59-.65-1.254-1.231-1.844-1.882.086-.155.229-.229.39-.388.09-.091.257-.394.39-.387-.042 0 .17.164.239.24.28.284.561.558.78.77.428.426.743.848 1.063 1.014.173-.166.292-.382.533-.485-.052-.155-.183-.274-.292-.387zm-52.3-3.621a.24.24 0 0 0-.143.142c-.206.023-.224.227-.39.29-.062.166-.27.183-.291.388.492.959.864 2.036 1.356 2.994-.017.165.212.337.097.434-1.156-.542-2.277-1.107-3.44-1.642-.12.17-.28.301-.436.432-.113.127-.417.269-.336.433.428.103.772.355 1.16.532.093.045.184.05.294.096 1.093.473 2.14 1.038 3.246 1.494.302-.262.63-.502.87-.82-.716-1.54-1.295-3.218-1.987-4.779zm40.57 12.407c-.005-.057.07-.029 0 0-.142.2-.4.445-.583.678a98 98 0 0 1-1.94 2.413c-.11.137-.19.348-.39.387-.23-.097-.505-.142-.63-.337-.211-.108-.395-.25-.435-.53.103-.234.287-.427.436-.627.228-.308.44-.598.68-.917.046-.058.046-.132.098-.195.068-.086.149-.153.24-.29.086-.126.235-.28.338-.434 0-.097.131-.063.097-.193.075 0 .16-.132 0-.097h-.773c-.944.398-1.924.758-2.908 1.112-.287-.263-.458-.64-.532-1.112H65.66c-.178.045-.024-.235-.242-.143-.84.056-1.809-.08-2.712 0-.063.006-.27-.068-.241.097-.04.199.194.194.291.239.07.034.133.075.195.097.046.018.126.023.196.045.113.047.216.144.336.195.115.045.276.052.39.097s.217.148.338.193c.126.052.275.052.389.097.126.052.217.142.338.195.115.045.263.034.338.142.211.069.126-.166.292-.142.04.102.212.079.291.142-.115.501-.372.85-.486 1.352-.143.045-.04.347-.24.335-.064-.08-.219-.074-.292-.142-.115.029.136-.29-.098-.24-.824-.387-1.717-.701-2.57-1.06-.08-.005-.304-.205-.292 0-.207.063 0 .245.097.29.52.56 1.065 1.102 1.65 1.642.073.069.205.116.194.24.16.052.212.148.338 0 .05.126.194.166.24.292-.046.148-.166.261-.292.387-.207.211-.436.45-.682.678-.09.08-.211.258-.337.195-.034-.143-.263-.092-.241-.292.201-.108.11-.125.047-.238-.081-.144-.373-.326-.585-.532-.143-.142-.263-.285-.434-.432-.092-.08-.184-.12-.293-.24-.04-.045-.069-.166-.098-.194-.045-.046-.154-.062-.194-.096-.04-.041-.058-.103-.097-.143-.172-.171-.36-.468-.584-.291-.057.24.108.456.195.679.04.108.102.222.142.335.047.115.052.269.097.388.178.468.43.913.533 1.404.081.108.126.182.292.095-.027.195.126.195.097.39-.257.153-.566.221-.87.335-.262.103-.543.313-.824.24-.068-.075-.063-.228-.142-.29.034-.114.252-.035.194-.24-.207-.406-.39-.941-.585-1.45-.084-.221-.2-.49-.291-.722-.074-.195-.098-.635-.436-.485-.176-.047-.068.187-.097.29v2.657c-.074.205.27-.011.196.194v8.496c.715.022 1.539-.057 2.18.046.075.097.212.165.292.29.293.456.143 1.506.143 2.366 0 .92.024 1.803-.097 2.367-.12.165-.27.308-.486.387h-2.04v2.174h1.216c.245.524.543 1.002.824 1.494h2.083v-2.754c1.134-.566 2.261-1.13 3.395-1.689 2.118.303 4.327.52 6.498.77.263-.656.503-1.334.772-1.979a13.5 13.5 0 0 1-1.407-1.208c-.224-.052-.252-.297-.488-.337-.263-.319-.618-.547-.922-.821-.148-.057-.2-.239-.337-.336-.046-.034-.104-.012-.143-.047-.074-.061-.12-.176-.195-.238-.068-.063-.246-.052-.194-.194.091-1.152.16-2.322.194-3.524.538-.764 1.122-1.489 1.694-2.224.31-.108.522-.319.825-.433.063-.376.068-.798.143-1.158-.446.166-.755.468-1.213.627-.183.588-.361 1.186-.63 1.689.08-.804.28-1.494.39-2.27.548-.387 1.086-.782 1.648-1.157.108-1.466.263-2.89.338-4.392.103-.108.148-.267.292-.335-.034-.114.103-.143.142-.195.041-.045.041-.187.144-.142-.12 1.483-.286 3.022-.435 4.636-.069.742-.109 1.539-.195 2.315-.137 1.22-.423 2.417.142 3.284.155-.456.454-.77.63-1.209.069-3.102.121-6.22.292-9.22.076.086.139.149.196.24.063.109.069.154.097.29.045.223.034.525.045.77.069 1.471.155 3.126.195 4.585.115.114.131-.075.24-.097.235-.2.43-.44.728-.582.366.029.646-.029.967-.045.292.148.527.382.774.58.245.2.515.395.725.628-.126.616-.16 1.323-.24 1.979-.206.297-.388.61-.63.867.075.263.219.461.293.724-.269.069-.675 0-.922.097.183.09.464.085.533.29-.476-.091-1.066-.068-1.552-.142-.183.638-.366 1.278-.63 1.837-.114-.696-.108-1.552-.24-2.316-.012-.074.074-.269-.097-.24-.154.029-.201-.045-.293 0-.085.04-.194.44-.24.582-.27.753-.566 1.568-.824 2.412.103.194.252.37.389.53.132.154.27.313.436.434.498-.274.96-.588 1.551-.77.578.177 1.082.438 1.649.627.142-.142.303-.284.434-.434.126-.148.247-.313.338-.484-.183-.428-.367-.86-.486-1.35 1.293-.19 2.592-.377 3.83-.628-.602-.041-1.232-.131-1.844-.194s-1.219-.063-1.746-.24c1.173-.04 2.279-.142 3.492-.142.155-.72.178-1.5.241-2.27.068-.78.142-1.551.194-2.314.526-.218 1.111-.405 1.694-.627.155-.058.315-.224.488-.144-.167.497-.493.771-.871 1.061-.137.108-.28.211-.436.337-.063.05-.2.08-.194.193.32.986.585 2.024.871 3.04-.682 2.366-1.38 4.703-2.038 7.098-.95.68-1.879 1.38-2.811 2.076-.332-.286-.675-.542-1.02-.821-.165-.137-.32-.303-.485-.433-.155-.126-.39-.205-.436-.434.234-.525.55-.963.727-1.545a1.7 1.7 0 0 1-.435-.24c-.252.024-.389.274-.533.433-.44.48-.972.953-1.408 1.494.332.269.647.548.967.822.178.132.31.303.488.433.131.16.372.21.434.434-.258.61-.51 1.352-.773 2.075-.086.24-.212.463-.24.679-.09.649 0 1.345 0 2.03v1.978c.046.132-.096.456.098.433.24.012.166-.285.292-.388.47-1.168 1-2.314 1.5-3.478.498-1.152.927-2.332 1.499-3.426-.234 2.292-.515 4.543-.772 6.807q-.644.447-1.26.92c-.109.13-.326.153-.39.335v3.38c.04.121-.091.417.098.39h.338c.19-.314.206-.703.292-1.062.16-.684.35-1.42.533-2.171.084-.348.131-.708.291-1.015.132.752.224 1.545.339 2.314-.413 2.037-.825 4.072-1.163 6.18 1.168.132 2.342.332 3.492.532.927.159 1.97.324 2.907.58.104.03.315-.034.339.143-2.359-.296-4.992-.347-7.51-.238-.454.016-.917-.024-1.358 0-2.673.119-5.256.306-7.756.58a67 67 0 0 0-7.128 1.159c-3.99.872-7.688 1.972-11.049 3.477-.182.08-.35.166-.531.24-.247.102-.602.223-.825.434 4.036 2.274 8.421 3.888 14.494 4.15.578.022 1.203.03 1.792 0 4.683-.205 8.61-1.283 11.97-2.845 3.303-1.534 6.189-3.621 8.68-6.13.497-.507.978-1.026 1.453-1.59.012-.012.092-.034.097-.046.12-.262.42-.554.63-.82.138-.172.252-.354.39-.532.09-.12.24-.245.337-.388.023-.034.018-.102.047-.142.063-.09.176-.148.24-.24.057-.085.086-.205.143-.29.011-.016.092-.034.097-.045.011-.024-.017-.074 0-.097.011-.018.092-.035.098-.046.01-.023-.018-.075 0-.097.01-.018.091-.034.097-.045.01-.023-.018-.075 0-.097.01-.018.092-.035.097-.047.011-.022-.018-.074 0-.096.011-.018.092-.034.097-.046.011-.022-.017-.074 0-.096.011-.018.092-.034.098-.047.212-.467.59-.997.87-1.494.39-.683.773-1.362 1.117-2.127.045-.096.102-.187.142-.29 1.54-3.42 2.668-7.6 2.668-12.117 0-8.267-2.868-14.523-6.686-19.215-.412-.508-.808-.998-1.26-1.494-.486-.53-1.065-1.146-1.649-1.642-.154-.131-.304-.28-.486-.434-.212-.182-.47-.416-.727-.627-.166-.137-.32-.301-.486-.433-.344-.274-.71-.508-1.066-.77-.017-.012-.034-.091-.045-.097-.023-.01-.075.017-.098 0-.017-.01-.035-.091-.046-.097a1.7 1.7 0 0 1-.435-.29 2 2 0 0 0-.194-.143c-.092-.063-.2-.086-.292-.142-.018-.013-.034-.092-.045-.097-.024-.013-.076.016-.098 0-.017-.013-.035-.092-.046-.098-.269-.119-.618-.347-.922-.53-2.255-1.362-4.831-2.548-7.756-3.33-1.964-.525-4.1-.912-6.35-1.015-3.337-.148-6.611.25-9.354.964-.097.022-.177.069-.292.097-.08.022-.205.022-.291.046-.172.05-.32.142-.486.193-.195.057-.396.086-.585.142-.315.103-.658.258-1.02.39-.165.055-.372.084-.532.142-.16.063-.326.176-.486.24-.48.198-1.001.392-1.5.626-1.86.866-3.641 1.985-5.232 3.187-4.351 3.268-7.694 7.447-9.841 12.7-.538 1.315-1.048 2.746-1.408 4.246a31 31 0 0 0-.63 3.575c-.052.417-.114.838-.142 1.255-.241 3.386.136 7.1.966 10.183a29.3 29.3 0 0 0 4.265 9.175c.052.074.097.125.144.194.029.034.016.102.045.142.018.023.08.029.097.047.034.045.018.102.047.142.131.171.365.456.532.678.085.108.16.21.24.337.08.113.27.29.389.432.063.075.08.16.144.24.034.04.063.052.097.097.08.114.263.29.389.433.418.485.876.97 1.357 1.449.229.222.418.53.727.68a48 48 0 0 1 8.192-2.129v-4.15c-.606-.217-1.202-.444-1.746-.724.046-.953.058-1.939.046-2.948-.206-.343-.533-.564-.773-.867-.229-.303-.549-.514-.727-.867v-4.39c1.672-.103 3.532-.024 5.283-.046v-3.427c.133-.188.247-.393.488-.484 1.035-.11 2.277-.018 3.395-.046v-1.882c-3.733-.034-7.591.063-11.244-.045-.115-.126-.27-.217-.338-.388-.115-5.793-.018-11.798-.045-17.67.132-.189.245-.394.486-.485 1.277-.108 2.76-.017 4.122-.046.108.018-.023.286.195.194.795-.023 1.849.035 2.765 0 .223-.005.727.126.63-.29.153-.11-.202-.12-.241-.194-.86-.354-1.746-.673-2.57-1.06-.195-.121-.15.09-.293.142a.9.9 0 0 0-.338-.143c.155-.473.373-.884.533-1.351.108-.086.04-.348.24-.337.04.103.212.08.293.142.05.126-.166.251.045.24.876.388 1.809.707 2.668 1.112.16.011.275.16.338 0 .131-.148.063-.256-.097-.337a219 219 0 0 0-1.793-1.835c-.148-.15-.292-.314-.389-.292-.069.018-.069.103-.194.098-.052-.125-.195-.166-.241-.29.327-.327.613-.685.968-1.016.102-.097.223-.251.389-.24.028.132.2.12.194.291-.189.206.138.332.338.53.447.44.98.975 1.455 1.45.189.187.337.53.63.432.131-.103.056-.233-.047-.336-.326-.98-.743-1.865-1.116-2.8-.023-.222-.207.074-.241-.05-.063-.098-.09-.23-.142-.338.389-.24.887-.37 1.31-.58.155.022.286-.23.389-.098.012.148.104.217.144.336-.103.092-.252.057-.144.24.39.9.774 1.807 1.117 2.754.098.08.04.313.292.24.155-.012.166-.16.143-.336v-3.04c.046-.177-.211-.051-.24-.143v-.388c.612.035 1.356-.063 1.889.046-.03.102.057.32-.046.337-.018.108-.286-.024-.194.194v3.284c1.98.445 3.188 1.653 3.634 3.62h2.954c.207.075-.01-.268.195-.194h5.862v-4.201c.195.027.515-.063.63.045.063 1.157-.08 2.525 0 3.763.006.085-.097.422.143.388.2.005.052-.337.097-.485v-3.284c.046-.131-.097-.45.097-.434.32-.108.229.16.292.292.167.358.24.667.435 1.014.058.098.15.206.241.337.098.137.252.314.39.484.223.274.435.531.727.77.108.091.183.138.336.239.047.034.092.115.144.144.132.085.292.119.436.193.142.074.252.131.389.194.543.233 1.179.473 1.843.53 1.013.085 2.153 0 3.246 0 .939 0 1.837-.057 2.811 0 .069.006.292-.074.292.098v.24c-1.793.113-3.796.016-5.674.044h-.389c-.166-.04-.229.03-.194.194.016.178.246.091.338.097 1.854.074 3.995-.056 5.913 0v1.112h-.63c-.034 1.802.063 3.734-.046 5.457-.412.142-1.322.188-1.597-.097v-2.657c0-.872.04-1.74-.045-2.56-.35 1.232-.75 2.394-1.163 3.62-.131.393-.246.793-.435 1.157-.35.035-.641-.05-.87-.142-.241-.097-.48-.206-.583-.433.446-1.402.938-2.766 1.355-4.203zm5.577-10.526c.405.035.778-.017.967-.097.292-.126.344-.2.533-.433.102-.126.252-.286.291-.389.2-.495.052-1.088-.194-1.35-.034-.034-.018-.103-.047-.142-.068-.081-.194-.11-.291-.195-.04-.034-.058-.108-.098-.142-.063-.058-.131-.045-.194-.097-.04-.035-.058-.114-.097-.143-.052-.04-.15-.057-.195-.097-.48-.382-1.116-.86-1.5-1.112 0-.027-.005-.056-.046-.045-.95 1.323-1.946 2.593-2.907 3.91.297.206.554.446.87.628.383-.467.703-1.01 1.115-1.447.573.41 1.095.872 1.793 1.157zm-41.929-4.927a.24.24 0 0 0-.142.142c-.344.179-.693.44-.967.628-.15.102-.264.2-.39.291-.085.056-.143.109-.195.143-.52.359-1.093.672-1.551 1.112.361.472.721.957 1.065 1.447.355.508.652 1.044 1.064 1.494.081.195.178.372.339.485.097.19.16.416.388.485.224-.148.499-.371.682-.485.046-.029.057-.068.098-.097.068-.05.165-.045.24-.096.023-.012.028-.08.046-.097.04-.034.097-.018.142-.045.024-.018.024-.081.047-.098.04-.028.108-.023.142-.046.115-.08.224-.182.292-.238.041-.035.097-.018.144-.047.023-.016.023-.08.045-.097.041-.028.11-.022.144-.045.12-.08.218-.188.291-.24.04-.034.098-.017.144-.045.022-.018.022-.08.045-.098.04-.028.109-.021.144-.045.223-.16.395-.342.629-.434-.011-.182-.182-.204-.195-.387-.154-.04-.108-.28-.291-.29-.836.553-1.615 1.162-2.474 1.687-.217-.394-.532-.69-.727-1.111.733-.497 1.431-1.022 2.182-1.494-.011-.184-.155-.234-.195-.39-.12-.073-.126-.26-.291-.29-.293.2-.59.457-.871.583-.017.005-.03.085-.045.097-.024.016-.076-.012-.098 0-.018.005-.029.085-.046.096-.371.257-.75.519-1.162.724-.172-.313-.4-.564-.584-.867.79-.546 1.562-1.117 2.376-1.642a2 2 0 0 0-.486-.678zm6.207-1.254c-.058-.36-.39-.723-.63-.867a1.4 1.4 0 0 0-.922-.193c-1.156.358-2.06.97-3.148 1.402.71 1.5 1.413 3 2.181 4.442.274-.194.618-.313.922-.484-.264-.656-.63-1.21-.871-1.882.338-.097.567-.303 1.065-.24.699.32 1.34.696 2.038 1.015.423-.16.841-.319 1.162-.582-.847-.359-1.459-.957-2.519-1.112.412-.359.83-.804.727-1.493zm26.076 2.8c.326.143.63.308.966.433.207-.473.483-.986.682-1.397.074-.153.098-.371.24-.485.635.366 1.363.638 2.04.964.039-.313.257-.45.29-.77-.681-.318-1.401-.598-2.037-.963.223-.296.297-.73.532-1.015.378.2.784.353 1.162.53.401.189.772.405 1.213.53.081-.273.236-.478.339-.723-1.157-.485-2.256-1.038-3.395-1.546-.659 1.5-1.386 2.93-2.038 4.442zm-21.909-5.697c-1.386-.159-2.513.32-3.006 1.21-.25.998.412 1.602 1.26 1.687.934.097 2.256-.376 2.376.337.045.279-.15.535-.338.679-.32.238-.767.319-1.259.29a1.6 1.6 0 0 1-.682-.627c-.268.171-.606.261-.922.387-.057.132.087.188.144.29.051.087.08.219.143.292.057.062.16.13.24.194.338.268.836.41 1.5.336.665-.074 1.644-.542 1.94-.917.035-.047.053-.16.098-.24.047-.08.126-.131.144-.194.21-.685-.092-1.112-.338-1.494-.339-.24-.727-.377-1.31-.388-.802-.01-1.833.4-2.085-.337.154-.416.882-.797 1.454-.678.303.069.338.325.584.433.275-.148.63-.21.921-.335-.113-.48-.491-.702-.87-.92zm16.723 2.897c.021.16.119.389.194.531.52 1.054 2.238 1.767 3.537 1.305.19-.068.304-.193.436-.29.04-.034.108-.018.142-.047.173-.13.367-.375.436-.53.005-.016.086-.029.097-.045.068-.108.097-.268.144-.388.176-.428.326-.953.291-1.448-.034-.502-.286-.929-.487-1.21a1.5 1.5 0 0 0-.584-.483c-.016-.007-.028-.086-.045-.097-.47-.28-1.425-.514-1.94-.485-.63.04-.992.33-1.455.627-.561.672-.921 1.648-.773 2.56zm-14.736-3.621c.229 1.193.457 2.532.68 3.667.075.399.155.792.292 1.157.299-.108.648-.16 1.02-.194-.343-1.59-.595-3.266-.968-4.829-.304.097-.63.177-1.018.193zm7.316-.678c.572.896 1.134 1.83 1.694 2.754.012.735-.05 1.397-.097 2.076q.575-.017 1.065.045c.05-.645.103-1.283.097-1.979.326-.495.722-.923 1.064-1.402.19-.216.356-.45.533-.68.183-.227.401-.45.533-.722-.436.034-.728-.081-1.163-.052-.538.547-.898 1.26-1.408 1.836-.401-.645-.772-1.323-1.162-1.979-.4.011-.893-.137-1.259 0 .058.006.068.058.097.097zm-5.136.24c-.034.324.052.53.047.82a34 34 0 0 0 1.597-.143c.143 1.336.234 2.727.389 4.055.361-.028.698-.074 1.065-.097-.155-1.328-.241-2.72-.389-4.053a34 34 0 0 0 1.597-.144c-.006-.296-.023-.586-.097-.82a87 87 0 0 1-4.22.387l.011-.006Zm34.366 7.868c.206.194.43.377.63.581.194.195.343.429.532.627.275.297.584.554.87.867.091.103.149.234.24.337.127.148.293.269.436.433.12.137.245.313.39.485.09.108.148.228.239.337.167.2.349.392.532.627.213.274.425.535.63.821l.242.336c.079.114.147.205.24.337.08.113.148.21.24.335.247.343.573.811.825 1.21.147.234.273.473.434.724.034.05.057.131.097.194.092.148.218.32.338.53.2.36.412.712.63 1.112a39 39 0 0 1 2.227 4.779c.108.284.183.582.292.866.046.125.154.267.194.388l.293.867c.314.952.618 2.132.87 3.187.108.468.252.946.338 1.402.097.491.16.993.24 1.494.109.656.212 1.34.291 2.03.51 4.487.23 9.015-.583 12.893-.659 3.152-1.689 6.083-2.909 8.741-.245.536-.463 1.083-.726 1.59-.132.25-.304.474-.435.725-.137.25-.241.524-.389.77a44 44 0 0 1-1.793 2.85c-.113.166-.205.337-.336.53-.07.103-.15.2-.241.337-.087.132-.27.325-.39.485-.338.456-.664.918-1.018 1.35A33 33 0 0 1 93.9 91.9c-.383.387-.767.764-1.163 1.157-.388.39-.749.788-1.16 1.159-.11.096-.23.148-.34.238-.096.086-.188.2-.29.292-.402.348-.82.712-1.26 1.06q-.404.316-.825.627c-.056.04-.137.052-.195.097-.102.074-.189.216-.291.29-.063.047-.132.052-.195.098-.102.074-.194.137-.338.24-.05.034-.092.108-.142.142-.069.045-.184.052-.241.097-.074.057-.074.097-.143.142-.167.114-.338.206-.533.337-.052.034-.08.103-.143.143-.114.074-.269.113-.39.193-.051.034-.097.115-.142.142-.057.034-.143.063-.196.097-.223.143-.457.274-.725.434-.126.075-.218.172-.339.24-.246.148-.527.25-.772.388-.047.022-.097.119-.144.142-.166.09-.372.182-.583.29a42 42 0 0 1-4.797 2.172 44 44 0 0 1-4.46 1.404c-.613.159-1.26.308-1.89.433-4.14.827-9.17 1.032-13.91.434-.328-.041-.636-.137-.968-.194-.658-.109-1.34-.2-1.986-.337a42.5 42.5 0 0 1-10.276-3.666c-.258-.132-.51-.262-.728-.433a29 29 0 0 1-2.907-1.689c-.029-.022-.069-.08-.097-.097-.035-.022-.104-.016-.144-.05-.074-.051-.12-.143-.194-.195-.046-.034-.103-.022-.143-.045-.036-.023-.07-.074-.099-.097-.034-.022-.108-.017-.142-.046-.058-.045-.184-.17-.292-.24-.343-.234-.75-.547-1.116-.82-.138-.102-.298-.183-.435-.291-.069-.056-.115-.132-.195-.193a33 33 0 0 1-.435-.337c-.034-.029-.063-.074-.097-.097-.035-.03-.109-.017-.143-.051-.144-.115-.252-.269-.39-.388-.069-.063-.171-.086-.24-.142-.057-.052-.086-.144-.144-.195-.074-.063-.16-.074-.24-.142-.177-.155-.372-.393-.584-.582-.137-.125-.303-.211-.434-.336-.126-.115-.218-.268-.338-.388-.263-.257-.584-.462-.825-.724-.131-.142-.212-.302-.338-.434-.108-.113-.269-.216-.389-.335-.252-.263-.475-.548-.727-.822-.12-.131-.263-.245-.39-.387-.033-.035-.022-.109-.046-.143-.045-.063-.124-.097-.194-.194-.092-.132-.303-.32-.434-.485-.218-.262-.447-.564-.682-.867-.029-.034-.074-.062-.098-.096-.05-.063-.086-.15-.142-.24-.046-.068-.167-.189-.24-.291-.482-.638-1.049-1.397-1.5-2.127-.047-.074-.092-.142-.144-.24-.022-.04-.022-.101-.046-.142-.046-.074-.149-.125-.194-.193-.034-.045-.023-.103-.047-.143-.05-.08-.17-.217-.24-.336a16 16 0 0 1-.337-.583 43 43 0 0 1-1.889-3.62c-1.283-2.794-2.296-5.793-3.006-9.174-.727-3.484-.979-7.653-.68-11.296.389-4.761 1.568-8.923 3.05-12.55.127-.307.327-.69.487-1.06.693-1.62 1.602-3.21 2.518-4.681 1.563-2.515 3.327-4.802 5.33-6.855 3.406-3.5 7.334-6.425 11.97-8.592.505-.234.985-.484 1.552-.724.177-.074.436-.195.68-.292.156-.061.328-.08.488-.142.022-.011.08-.09.098-.097.113-.033.21-.046.337-.096a37 37 0 0 1 2.376-.822 43.6 43.6 0 0 1 8.58-1.687c1.662-.155 3.395-.15 5.188-.097 5.656.17 10.58 1.523 14.683 3.284a41.4 41.4 0 0 1 12.36 8.205h-.023Z" fill="#274563"/><path fill-rule="evenodd" clip-rule="evenodd" d="M73.016 28.238c.991-.21 1.69.28 1.94.964.063.644-.063 1.065-.291 1.493-.195.37-.303.558-.681.724-.12.052-.326.137-.533.143-.554.017-1.3-.388-1.5-.918-.262-.69.046-1.465.487-2.127.212-.074.292-.29.585-.29zm-25.979 3.956c-.102-.432-.36-.7-.486-1.11.464-.269.956-.424 1.454-.725.058-.034.32.022.487 0 .2.166.389.308.389.58 0 .361-.372.567-.773.772-.383.199-.79.41-1.064.483zm38.098 1.5c.436.36.967.616 1.26 1.112.063.656-.377.964-.824.822-.464-.148-.98-.639-1.26-.822.275-.37.562-.723.824-1.112m-29.418 5.839c-.058.006-.029-.068 0 0m0 0c.04.011.056.04.045.097q-.061-.013-.045-.097m.045.097c.04.011.058.04.047.098-.041-.013-.058-.04-.047-.098m-2.668 1.06c-.057.006-.028-.068 0 0m41.786 5.458c.32-.182.698-.297.966-.53.08-.013.086.045.144.045.068.21.268.485.434.822.144.285.372.672.338.917-.045.359-.549.685-1.019.388-.32-.52-.664-1.015-.87-1.642h.006Zm-14.833 1.015c-.006-.058.068-.03 0 0m18.999 5.935c-.291.856-1.207 1.34-2.376 1.158-.68-.24-1.064-.776-1.018-1.739.04-.12.11-.24.194-.387a1.5 1.5 0 0 1 .338-.434c.195-.183.859-.457 1.214-.485 1.053-.08 1.735.667 1.648 1.881zm-22.538 2.126c.131.047.453-.095.435.098h-.435zm-46.777.628a9 9 0 0 1-.291 1.403c-.413-.24-.807-.542-1.214-.821-.12-.085-.315-.108-.338-.29.659-.053 1.186-.235 1.843-.292m43.434 7.481c.04.012.058.04.047.097q-.062-.013-.047-.097m.047.097c.027.069.056-.005 0 0m-8.433 10.236c-.024-.024.034-.063.045-.047.023.023-.034.063-.045.047m8.821.097c.012.142.2-.047 0 0m-8.679 4.487c.007-.057.086-.04.144-.046-.006.058-.087.04-.144.045Zm19.969 5.986c-.31-.056-.11.148 0 0m.096.098c-.022-.024.035-.063.047-.046.022.022-.034.062-.047.046m-24.524 3.044v3.576h-1.019v-2.27c-.355.143-.596.404-1.065.433v-.77c.55-.192 1.002-.484 1.26-.962h.824zm1.843.913c-.074.604.12.9.486.866.488-.04.556-.81.196-1.11-.322-.127-.561.027-.682.238v.007Zm-.87 1.835c.327 0 .584-.063.87-.097.137-.005.137.12.144.24.056.074.182.074.24.142.424-.045.51-.421.532-.865-.063-.137-.102.153-.24.096-.166.2-.681.165-.967.097-.315-.182-.539-.462-.682-.82v-.627c.115-.081.057-.206.098-.292.011-.022.09-.029.097-.045.19-.411.704-.656 1.453-.582.178.017.378.068.533.142.544.274.842 1.106.727 2.127-.091.787-.578 1.386-1.5 1.403a1.86 1.86 0 0 1-1.065-.337c-.063-.187-.326-.398-.24-.582m8.53-1.156c.131.142.354.194.487.336.171.33.154.73 0 1.06-.178.382-.647.662-1.26.68-.738.016-1.373-.332-1.551-.965.034-.176.367-.052.486-.142.23.04.315-.074.533-.045.068.313.194.517.435.53.486.022.68-.765.195-1.015-.19-.012-.355 0-.487.05.006-.25-.028-.547.051-.724.293.034.441-.074.533-.24.172-.677-.79-.586-.727 0-.298-.09-.676-.095-.967-.193.108-.656.835-1.032 1.746-.917.21.027.51.108.63.193.44.314.491 1.135-.099 1.402zm-2.713-1.545v.82h-1.5c-.167.029-.063.326-.144.434.103.034.252-.074.487-.097.104-.011.246-.011.338 0 .252.029.567.166.727.337.034.04.018.102.045.142.023.027.167.153.196.24.027.085.045.256.05.335.047.85-.674 1.386-1.454 1.403-.315.006-.778-.12-.966-.239-.213-.131-.494-.4-.533-.77.31-.028.596-.086.921-.097.16 0 .098.222.195.29.092.109.194.183.292.195.63.062.745-1.1.143-1.209-.304-.058-.4.148-.63.24-.302 0-.52-.098-.824-.098.144-.616.189-1.323.338-1.932h2.324zm18.656 2.411c.012-.04.041-.057.097-.052q-.013.061-.097.052m0 0c-.069.029.005.058 0 0m-42.894.582c.194.08.354.193.531.29-.25.154-.663.143-.967.24.137-.182.292-.353.436-.53m6.594 4.636c.007-.108.207-.023.293-.047.045.308.124.582.097.964-.16-.01-.138-.319-.196-.484-.056-.172-.131-.309-.194-.433m.046.82c-.378.332-1.116.308-1.746.388.143-.211.48-.177.727-.24.309-.085.618-.199.825-.336.166-.034.08.177.194.194zm35.917.285c-.023-.022.034-.062.05-.05.024.023-.034.062-.05.05m-34.509.097c.011-.056.052-.028.047 0-.013.058-.052.029-.047 0m.047.194c.01-.073.056 0 .045.046-.011.074-.058 0-.045-.045Zm-3.779.291c-.023-.023.035-.063.046-.045.023.022-.035.063-.046.045m.098.142c-.144-.01.045-.2 0 0m3.051 0c-.024-.021.034-.063.045-.045.023.024-.034.063-.045.045m21.084 1.5c-.029.223-.144.445-.241.627-.074.143-.155.245-.241.388-.022.04-.017.103-.05.142-.013.018-.093.034-.098.052-.029.069-.034.114-.097.195-.081.101-.144.187-.241.29l-.046.045c-.063.092-.11.258-.293.292-.21-.052-.257-.314-.24-.485.017-.223.247-.337.292-.485.081-.183.166-.353.241-.531-.052-.398-.406-.496-.435-.918.567-.142 1.248.011 1.454.388zm-2.326-.24c.179.16.064.611.098.92-.114.113-.384.068-.486.192.068.348.383.456.63.627q.059.3.142.583c-.04.084-.153.119-.194.239-.04.119.017.234-.046.337-.074.114-.17.09-.24.193-.143-.063-.372-.05-.584-.045-.32-.211-.653-.411-.87-.724-.149-.422.074-.76.097-1.158.154-.102.258-.263.487-.291.291-.273.612-.518.824-.866h.142z" fill="#274563"/></svg>