<svg width="228" height="46" fill="none" xmlns="http://www.w3.org/2000/svg"><g clip-path="url(#clip0_335_43)" fill="#c10230"><path d="M64.057 38.354v2.13c0 .4-.076.704-.221.898q-.396.54-1.652.54-.904 0-1.383-.291a.85.85 0 0 1-.387-.463 2 2 0 0 1-.104-.692v-2.129c0-.055-.014-.104-.041-.131a.3.3 0 0 0-.139-.07v-.09h1.183v.09a.3.3 0 0 0-.139.07c-.027.027-.041.076-.041.131v1.894c0 .222.014.38.034.484a.57.57 0 0 0 .139.263q.27.282.912.283.643-.001.913-.283a.56.56 0 0 0 .131-.263c.028-.103.035-.262.035-.484v-1.894c0-.055-.014-.104-.042-.131a.26.26 0 0 0-.138-.07v-.09h1.12v.09a.3.3 0 0 0-.138.07.23.23 0 0 0-.042.138m1.556 1.452v1.763c0 .055.013.103.041.131a.4.4 0 0 0 .138.076v.076h-1.03v-.076a.3.3 0 0 0 .138-.07.2.2 0 0 0 .042-.13v-2.544a.23.23 0 0 0-.035-.132.4.4 0 0 0-.138-.076v-.076h1.196v.076q-.124.03-.124.11c0 .042.027.098.09.16l1.666 1.652v-1.715c0-.055-.014-.103-.042-.13-.028-.035-.069-.056-.138-.077v-.076h1.037v.076c-.07.02-.11.042-.138.076-.028.028-.042.076-.042.132v2.544c0 .055.014.103.042.13a.3.3 0 0 0 .138.077v.076H67.34v-.076q.124-.02.124-.104a.14.14 0 0 0-.034-.083 2 2 0 0 0-.152-.159zm4.3-.774v2.544c0 .055.013.103.034.13a.4.4 0 0 0 .138.077v.076h-1.099v-.076a.3.3 0 0 0 .138-.07.2.2 0 0 0 .042-.13v-2.544a.23.23 0 0 0-.035-.132.4.4 0 0 0-.138-.076v-.076h1.1v.076c-.07.02-.111.041-.139.076-.035.02-.041.062-.041.125m2.433 1.838.754-1.645a.7.7 0 0 0 .069-.214c0-.09-.063-.16-.18-.194v-.076h1.203v.076a.34.34 0 0 0-.16.09q-.05.053-.13.221l-1.093 2.289a.6.6 0 0 0-.055.186c0 .09.062.152.186.173v.076h-1.223v-.076c.124-.028.18-.083.18-.173a.6.6 0 0 0-.056-.186l-1.092-2.289a1.6 1.6 0 0 0-.124-.22.34.34 0 0 0-.16-.084v-.076h1.245v.076q-.178.05-.18.194c0 .041.02.11.07.214zm3.09-.338v.76h1.977a.23.23 0 0 0 .132-.034.3.3 0 0 0 .076-.139h.076v.92h-.076a.3.3 0 0 0-.076-.139.2.2 0 0 0-.132-.041h-2.896v-.076a.3.3 0 0 0 .138-.07.2.2 0 0 0 .041-.13v-2.544a.23.23 0 0 0-.034-.132.4.4 0 0 0-.138-.076v-.076h2.806a.2.2 0 0 0 .139-.041.4.4 0 0 0 .076-.139h.076v.92h-.076c-.021-.07-.042-.11-.076-.139-.028-.027-.076-.034-.139-.034h-1.887v.684h1.175a.23.23 0 0 0 .132-.034.4.4 0 0 0 .076-.139h.076v.9h-.076c-.021-.07-.042-.111-.076-.14q-.043-.04-.139-.04h-1.175zm3.65.048v.989c0 .055.014.103.035.131a.4.4 0 0 0 .138.076v.076h-1.1v-.076a.3.3 0 0 0 .14-.07.2.2 0 0 0 .04-.13v-2.544a.23.23 0 0 0-.034-.132.4.4 0 0 0-.138-.076v-.076h2.04c.262 0 .47.014.608.042q.207.041.373.145c.221.145.339.387.339.719 0 .249-.07.45-.208.587-.138.145-.36.242-.663.311l.587.823q.164.228.256.311c.062.056.138.09.214.104v.076h-1.306v-.076q.145-.042.145-.124.001-.063-.09-.187l-.622-.892h-.754zm0-.567h1.12q.26-.001.373-.055c.118-.048.173-.152.173-.297q0-.196-.124-.277c-.083-.048-.221-.076-.429-.076h-1.12v.705zm5.918-.988-.373.726-.07-.035q0-.093-.062-.145c-.103-.097-.262-.173-.463-.235a2.2 2.2 0 0 0-.622-.09q-.27.001-.477.076c-.2.069-.297.18-.297.311q0 .133.145.194c.097.034.283.069.56.09l.435.034c.38.028.678.104.878.221a.86.86 0 0 1 .415.74q-.001.477-.429.746c-.27.18-.643.263-1.106.263-.47 0-.92-.096-1.355-.297a.2.2 0 0 0-.076-.02q-.052-.002-.103.068l-.07-.027.319-.76.069.027v.02q.001.074.055.125c.09.083.256.152.484.214.228.063.45.09.67.09q.299-.001.526-.076.29-.095.29-.304c0-.11-.069-.194-.2-.235a2.6 2.6 0 0 0-.484-.076l-.436-.035a5 5 0 0 1-.539-.069 1 1 0 0 1-.325-.131.74.74 0 0 1-.276-.304.86.86 0 0 1-.097-.422q0-.51.435-.781.396-.241.989-.242c.214 0 .415.02.594.069.187.048.401.131.657.249a.5.5 0 0 0 .16.055c.027 0 .068-.02.11-.062zm1.431.007v2.544c0 .055.014.103.041.13.028.029.07.056.139.077v.076h-1.1v-.076a.3.3 0 0 0 .139-.07.2.2 0 0 0 .041-.13v-2.544c0-.056-.014-.104-.041-.132a.3.3 0 0 0-.138-.076v-.076h1.099v.076c-.07.02-.11.041-.139.076q-.04.03-.041.125m2.668.276v2.26c0 .056.014.104.035.132a.4.4 0 0 0 .138.076v.076h-1.099v-.076a.3.3 0 0 0 .138-.07.2.2 0 0 0 .042-.13v-2.261h-.92a.2.2 0 0 0-.138.041.4.4 0 0 0-.076.139h-.076v-.92h.076c.02.07.041.11.07.139q.042.04.137.041h2.579a.2.2 0 0 0 .138-.041.4.4 0 0 0 .076-.139h.076v.92h-.076c-.02-.062-.041-.11-.076-.139-.027-.027-.076-.041-.138-.041h-.906zm3.893 1.182v1.079c0 .055.013.103.041.131s.07.055.138.076v.076h-1.099v-.076c.07-.02.11-.041.138-.076.028-.028.042-.076.042-.131V40.49l-.92-1.272a1.5 1.5 0 0 0-.248-.29.44.44 0 0 0-.222-.104v-.076h1.404v.076c-.118.028-.18.09-.18.173q-.002.063.131.242l.45.622.442-.622q.133-.186.131-.249-.001-.114-.18-.166v-.076H94.4v.076a.6.6 0 0 0-.221.104 2 2 0 0 0-.25.29zm4.777-1.811q.737-.002 1.237.38.592.454.594 1.272-.002.77-.594 1.217-.486.382-1.23.38c-.492 0-.906-.124-1.231-.38q-.593-.456-.595-1.244.001-.8.595-1.245c.325-.249.733-.373 1.223-.38m0 .588q-.48 0-.782.31a1 1 0 0 0-.283.727c0 .29.09.532.283.718q.3.312.788.312.479 0 .782-.312a.98.98 0 0 0 .283-.705q-.002-.458-.283-.74-.3-.3-.789-.31m3.223 1.265v1.037c0 .055.014.103.041.131s.07.055.139.076v.076h-1.099v-.076a.3.3 0 0 0 .138-.07.2.2 0 0 0 .041-.13v-2.544c0-.056-.014-.104-.041-.132a.3.3 0 0 0-.138-.076v-.076h2.786a.2.2 0 0 0 .138-.041.4.4 0 0 0 .076-.139h.076v.92h-.076c-.021-.062-.042-.11-.076-.138q-.043-.042-.138-.042h-1.867v.684h1.175a.2.2 0 0 0 .132-.034.4.4 0 0 0 .076-.138h.076v.898h-.076c-.021-.069-.042-.11-.076-.138q-.043-.041-.139-.041h-1.168zm7.563-2.143-.449.891-.076-.041v-.041c0-.063-.056-.132-.159-.201a2 2 0 0 0-1.162-.346q-.29-.002-.518.07a.54.54 0 0 0-.263.165.36.36 0 0 0-.104.242q-.002.218.256.29c.09.028.277.056.574.084l.435.041a3.5 3.5 0 0 1 .629.11c.159.05.305.118.429.201a.95.95 0 0 1 .297.36q.112.218.111.477c0 .262-.083.504-.263.712q-.228.278-.726.422-.362.103-.788.103a3.3 3.3 0 0 1-1.486-.36 1 1 0 0 0-.187-.075q-.04 0-.11.062l-.083-.042.415-.933.082.035v.034q.002.125.118.228c.118.104.304.2.56.277q.375.115.719.117.371 0 .629-.124a.5.5 0 0 0 .228-.187.4.4 0 0 0 .083-.242q-.002-.186-.2-.27c-.097-.034-.284-.068-.574-.103l-.429-.041a5 5 0 0 1-.608-.083 1.6 1.6 0 0 1-.36-.132.9.9 0 0 1-.394-.373 1 1 0 0 1-.131-.519c0-.318.111-.587.332-.794.29-.277.719-.415 1.3-.415.241 0 .47.027.677.076q.313.072.781.27a.8.8 0 0 0 .201.061c.034 0 .083-.02.138-.062zm3.166 2.115h-1.742v1.072c0 .055.014.103.042.13a.4.4 0 0 0 .138.077v.076h-1.099v-.076a.3.3 0 0 0 .138-.07.2.2 0 0 0 .041-.13v-2.544c0-.056-.013-.104-.041-.132a.3.3 0 0 0-.138-.076v-.076h1.099v.076c-.069.02-.111.041-.138.076-.028.028-.042.076-.042.132v.905h1.742v-.906a.24.24 0 0 0-.034-.13.3.3 0 0 0-.139-.077v-.076h1.1v.076c-.07.02-.111.041-.139.076-.027.028-.041.076-.041.132v2.544c0 .055.014.103.041.13a.3.3 0 0 0 .139.077v.076h-1.1v-.076a.3.3 0 0 0 .139-.07.2.2 0 0 0 .041-.13v-1.086zm3.823.574h-1.431l-.159.339a.44.44 0 0 0-.055.193c0 .09.055.145.18.166v.076h-1.141v-.076a.4.4 0 0 0 .159-.062.6.6 0 0 0 .117-.187l1.134-2.302a.6.6 0 0 0 .062-.228c0-.076-.055-.138-.152-.18v-.076h1.21v.076c-.104.042-.152.104-.152.187q-.001.095.069.221l1.175 2.233c.063.125.118.2.152.235q.052.054.166.076v.076h-1.272v-.076q.178-.03.18-.166a.45.45 0 0 0-.069-.214zm-.228-.436-.512-1.002-.483 1.002zm2.668-.836v1.763c0 .055.014.103.042.131a.4.4 0 0 0 .138.076v.076h-1.03v-.076a.3.3 0 0 0 .138-.07.2.2 0 0 0 .042-.13v-2.544c0-.056-.014-.104-.042-.132a.4.4 0 0 0-.138-.076v-.076h1.196v.076q-.124.03-.124.11c0 .042.027.098.09.16l1.666 1.652v-1.715c0-.055-.014-.103-.042-.13-.027-.035-.069-.056-.138-.077v-.076h1.03v.076c-.069.02-.111.042-.138.076-.028.028-.035.076-.035.132v2.544c0 .055.014.103.035.13a.4.4 0 0 0 .138.077v.076h-1.113v-.076q.124-.02.124-.104a.14.14 0 0 0-.034-.083 2 2 0 0 0-.152-.159zm6.181.85h-.705a.2.2 0 0 0-.139.042.3.3 0 0 0-.076.138h-.076v-.823h.076c.021.07.042.11.076.139q.043.04.139.041h1.479v.083a.3.3 0 0 0-.138.083q-.042.05-.042.152v.657c0 .055.014.103.042.131a.4.4 0 0 0 .138.076v.062c-.601.332-1.196.498-1.797.498-.512 0-.934-.124-1.252-.366a1.57 1.57 0 0 1-.601-1.237q-.001-.55.339-.976.527-.663 1.562-.663.458.002 1.03.2.228.075.27.076a.2.2 0 0 0 .11-.041l.069.034-.373.782-.069-.035v-.014q0-.103-.207-.207a1.7 1.7 0 0 0-.816-.2q-.5-.002-.823.276-.34.289-.339.774c0 .304.104.553.312.733q.31.282.891.283.549-.002.92-.2zm3.954-.152h-1.742v1.072c0 .055.014.103.041.13a.4.4 0 0 0 .139.077v.076h-1.099v-.076a.3.3 0 0 0 .138-.07.2.2 0 0 0 .041-.13v-2.544c0-.056-.014-.104-.041-.132a.3.3 0 0 0-.138-.076v-.076h1.099v.076c-.069.02-.111.041-.139.076-.027.028-.041.076-.041.132v.905h1.742v-.906a.24.24 0 0 0-.034-.13.3.3 0 0 0-.139-.077v-.076h1.099v.076c-.069.02-.11.041-.138.076-.027.028-.041.076-.041.132v2.544c0 .055.014.103.041.13a.3.3 0 0 0 .138.077v.076h-1.099v-.076a.3.3 0 0 0 .139-.07.2.2 0 0 0 .041-.13v-1.086zm3.823.574h-1.431l-.159.339a.5.5 0 0 0-.062.193q.001.135.18.166v.076h-1.141v-.076a.4.4 0 0 0 .159-.062.7.7 0 0 0 .124-.187l1.134-2.302a.6.6 0 0 0 .062-.228q.002-.115-.152-.18v-.076h1.21v.076c-.104.042-.152.104-.152.187q-.001.095.069.221l1.175 2.233c.063.125.118.2.152.235q.05.054.173.076v.076h-1.272v-.076q.179-.03.18-.166a.45.45 0 0 0-.069-.214zm-.228-.436-.512-1.002-.484 1.002zm2.738-1.61v2.544c0 .055.013.103.034.13a.4.4 0 0 0 .138.077v.076h-1.099v-.076a.3.3 0 0 0 .138-.07.2.2 0 0 0 .042-.13v-2.544a.23.23 0 0 0-.035-.132.4.4 0 0 0-.138-.076v-.076h1.099v.076c-.069.02-.11.041-.138.076q-.041.03-.041.125m3.069 1.5v1.037c0 .055.014.103.041.131a.4.4 0 0 0 .139.076v.076h-1.099v-.076a.3.3 0 0 0 .138-.07.2.2 0 0 0 .041-.13v-2.544a.24.24 0 0 0-.034-.132.4.4 0 0 0-.139-.076v-.076h2.786a.2.2 0 0 0 .139-.041.4.4 0 0 0 .076-.139h.076v.92h-.076c-.021-.062-.042-.11-.076-.138q-.043-.042-.139-.042h-1.866v.684h1.175a.2.2 0 0 0 .131-.034.4.4 0 0 0 .077-.138h.076v.898h-.076c-.021-.069-.042-.11-.077-.138-.027-.028-.076-.041-.131-.041h-1.182zm4.252-1.853q.737-.002 1.237.38c.394.304.595.726.595 1.272 0 .512-.201.92-.595 1.217-.325.256-.74.38-1.231.38-.49 0-.905-.124-1.23-.38q-.593-.456-.595-1.244.002-.8.595-1.245c.325-.249.733-.373 1.224-.38m0 .588q-.479 0-.782.31a1 1 0 0 0-.283.727c0 .29.09.532.283.718q.302.312.788.312.479 0 .782-.312a.98.98 0 0 0 .283-.705c0-.304-.097-.553-.283-.74q-.302-.3-.788-.31m3.228 1.313v.989c0 .055.014.103.041.131s.07.055.139.076v.076h-1.099v-.076a.3.3 0 0 0 .138-.07.2.2 0 0 0 .041-.13v-2.544c0-.056-.014-.104-.041-.132a.4.4 0 0 0-.138-.076v-.076h2.039c.263 0 .463.014.608.042.145.027.263.076.374.145.221.145.338.387.338.719 0 .249-.069.45-.207.587-.138.145-.36.242-.671.311l.588.823a1.8 1.8 0 0 0 .256.311c.062.056.138.09.214.104v.076h-1.306v-.076q.145-.042.145-.124.002-.063-.09-.187l-.622-.892h-.747zm0-.567h1.12q.26-.001.373-.055c.118-.048.173-.152.173-.297q0-.196-.124-.277c-.083-.048-.222-.076-.429-.076h-1.12v.705zm7.77-1.624-.449.891-.076-.041c0-.02.007-.035.007-.041q-.002-.096-.159-.201a2 2 0 0 0-1.162-.346q-.3-.002-.518.07a.54.54 0 0 0-.263.165.36.36 0 0 0-.103.242q-.002.218.255.29.137.042.574.084l.436.041q.392.04.629.11.24.076.428.201c.125.09.229.208.298.36q.112.218.11.477c0 .262-.083.504-.255.712q-.23.278-.726.422-.363.103-.788.103c-.505 0-.996-.117-1.487-.36a1 1 0 0 0-.186-.075q-.04 0-.111.062l-.083-.042.408-.933.083.035v.034q.001.125.117.228c.118.104.305.2.56.277.256.076.491.117.719.117q.372 0 .629-.124a.5.5 0 0 0 .228-.187.4.4 0 0 0 .083-.242q-.002-.186-.2-.27c-.097-.034-.283-.068-.574-.103l-.428-.041a5 5 0 0 1-.609-.083 1.6 1.6 0 0 1-.359-.132.9.9 0 0 1-.394-.373 1.1 1.1 0 0 1-.132-.519c0-.318.111-.587.332-.794.291-.277.719-.415 1.3-.415q.365.001.677.076.313.072.781.27a.8.8 0 0 0 .201.061c.041 0 .083-.02.138-.062zm3.54 2.351.47.683-.062.049a.2.2 0 0 0-.104-.049q-.044 0-.221.104a3.7 3.7 0 0 1-.671.311 2.5 2.5 0 0 1-.67.083q-.76-.002-1.238-.366a1.56 1.56 0 0 1-.608-1.258c0-.367.104-.685.318-.968.332-.436.836-.657 1.528-.657.255 0 .477.028.677.083s.422.159.671.311c.117.07.186.104.221.104q.042.002.104-.049l.062.049-.47.677-.062-.041c0-.02.006-.035.006-.042v-.034q0-.135-.373-.311a1.7 1.7 0 0 0-.719-.16q-.507.002-.836.263a.94.94 0 0 0-.374.768q0 .466.374.767.33.261.836.263c.263 0 .526-.07.788-.2q.303-.156.304-.27s.001-.028-.006-.076zm1.846-1.708v2.544c0 .055.014.103.041.13a.3.3 0 0 0 .138.077v.076h-1.099v-.076a.3.3 0 0 0 .139-.07.2.2 0 0 0 .041-.13v-2.544c0-.056-.014-.104-.041-.132a.4.4 0 0 0-.139-.076v-.076h1.099v.076c-.069.02-.11.041-.138.076q-.04.03-.041.125m1.652 1.5v.76h1.977a.23.23 0 0 0 .131-.034.3.3 0 0 0 .076-.139h.077v.92h-.077a.3.3 0 0 0-.069-.139c-.027-.027-.076-.041-.131-.041h-2.897v-.076a.3.3 0 0 0 .139-.07.2.2 0 0 0 .041-.13v-2.544a.24.24 0 0 0-.034-.132.4.4 0 0 0-.139-.076v-.076h2.814a.2.2 0 0 0 .138-.041.35.35 0 0 0 .076-.139h.076v.92h-.076c-.02-.07-.041-.11-.076-.139-.027-.027-.076-.034-.138-.034h-1.887v.684H161a.23.23 0 0 0 .131-.034.35.35 0 0 0 .076-.139h.076v.9h-.076c-.02-.07-.041-.111-.076-.14-.027-.027-.076-.04-.138-.04h-1.182zm3.581-.726v1.763c0 .055.014.103.041.131s.07.055.139.076v.076h-1.03v-.076a.3.3 0 0 0 .138-.07.2.2 0 0 0 .041-.13v-2.544c0-.056-.013-.104-.041-.132a.3.3 0 0 0-.138-.076v-.076h1.196v.076q-.125.03-.125.11-.001.065.09.16l1.666 1.652v-1.715a.24.24 0 0 0-.034-.13c-.028-.035-.077-.056-.139-.077v-.076h1.03v.076c-.069.02-.11.042-.138.076-.028.028-.041.076-.041.132v2.544c0 .055.013.103.041.13a.3.3 0 0 0 .138.077v.076h-1.113v-.076q.125-.02.125-.104a.14.14 0 0 0-.035-.083 2 2 0 0 0-.152-.159zm6.415.934.47.683-.062.049a.2.2 0 0 0-.103-.049c-.035 0-.104.035-.222.104a3.7 3.7 0 0 1-.67.311 2.5 2.5 0 0 1-.671.083q-.759-.002-1.237-.366a1.57 1.57 0 0 1-.609-1.258c0-.367.104-.685.318-.968.332-.436.837-.657 1.528-.657.256 0 .477.028.678.083q.298.083.67.311c.118.07.187.104.221.104q.042.002.104-.049l.062.049-.47.677-.062-.041c0-.02.007-.035.007-.042v-.034q0-.135-.373-.311a1.7 1.7 0 0 0-.719-.16q-.507.002-.837.263a.94.94 0 0 0-.373.768q0 .466.373.767.33.261.837.263c.262 0 .525-.07.788-.2.2-.104.304-.194.304-.27q.002-.002-.007-.076zm1.839-.208v.76h1.977a.23.23 0 0 0 .132-.034.3.3 0 0 0 .076-.139h.076v.92h-.076a.3.3 0 0 0-.076-.139c-.028-.027-.076-.041-.132-.041h-2.896v-.076a.3.3 0 0 0 .138-.07.2.2 0 0 0 .042-.13v-2.544c0-.056-.014-.104-.042-.132a.3.3 0 0 0-.138-.076v-.076h2.813a.2.2 0 0 0 .139-.041.4.4 0 0 0 .076-.139h.076v.92h-.076c-.021-.07-.042-.11-.076-.139-.028-.027-.076-.034-.139-.034h-1.887v.684h1.175a.23.23 0 0 0 .132-.034.4.4 0 0 0 .076-.139h.076v.9h-.076c-.021-.07-.042-.111-.076-.14q-.043-.04-.139-.04h-1.175zm6.167.546h-1.431l-.159.339a.4.4 0 0 0-.056.193c0 .09.056.145.18.166v.076h-1.141v-.076a.4.4 0 0 0 .159-.062.7.7 0 0 0 .125-.187l1.134-2.302a.6.6 0 0 0 .062-.228q.002-.115-.152-.18v-.076h1.21v.076c-.104.042-.152.104-.152.187 0 .062.02.138.069.221l1.175 2.233c.062.125.117.2.152.235a.34.34 0 0 0 .173.076v.076h-1.272v-.076c.117-.02.18-.076.18-.166a.5.5 0 0 0-.07-.214zm-.221-.436-.512-1.002-.484 1.002zm2.668-.836v1.763c0 .055.014.103.041.131s.07.055.139.076v.076h-1.03v-.076a.3.3 0 0 0 .138-.07.2.2 0 0 0 .041-.13v-2.544c0-.056-.013-.104-.041-.132a.4.4 0 0 0-.138-.076v-.076h1.196v.076q-.125.03-.125.11-.002.065.09.16l1.666 1.652v-1.715a.24.24 0 0 0-.034-.13c-.028-.035-.076-.056-.139-.077v-.076h1.037v.076c-.069.02-.11.042-.138.076-.028.028-.041.076-.041.132v2.544c0 .055.013.103.041.13a.3.3 0 0 0 .138.077v.076h-1.113v-.076q.125-.02.125-.104a.14.14 0 0 0-.035-.083 2 2 0 0 0-.152-.159zm3.553 1.77v-2.544c0-.056-.013-.104-.041-.132a.4.4 0 0 0-.138-.076v-.076h1.825q.568 0 .898.145.457.198.664.664.145.32.145.753 0 .798-.477 1.21a1.3 1.3 0 0 1-.504.263 2.7 2.7 0 0 1-.726.083h-1.825v-.076a.3.3 0 0 0 .138-.07.27.27 0 0 0 .041-.144m.747-.284h.795q.548 0 .795-.249.261-.26.263-.74c0-.317-.083-.566-.263-.74a.74.74 0 0 0-.318-.186 1.5 1.5 0 0 0-.477-.062h-.795zm6.222-2.599v2.876c0 .055.014.096.034.131a.3.3 0 0 0 .139.07v.089h-1.183v-.09a.3.3 0 0 0 .139-.069c.027-.028.041-.076.041-.131v-2.876h-1.182a.2.2 0 0 0-.124.034.3.3 0 0 0-.076.139h-.09v-.982h.09c.02.07.041.117.076.138.027.028.069.035.124.035h3.18a.23.23 0 0 0 .131-.035.35.35 0 0 0 .076-.138h.09v.982h-.09c-.02-.07-.041-.118-.076-.139-.027-.027-.076-.034-.131-.034zm2.758 1.839v.76h1.977a.23.23 0 0 0 .132-.034.3.3 0 0 0 .076-.139h.076v.92h-.076a.3.3 0 0 0-.076-.139c-.028-.027-.076-.041-.132-.041h-2.896v-.076a.3.3 0 0 0 .138-.07.2.2 0 0 0 .041-.13v-2.544c0-.056-.013-.104-.041-.132a.3.3 0 0 0-.138-.076v-.076h2.813a.2.2 0 0 0 .139-.041.4.4 0 0 0 .076-.139h.076v.92h-.083c-.021-.07-.042-.11-.076-.139-.028-.027-.076-.034-.139-.034h-1.887v.684h1.175a.23.23 0 0 0 .132-.034.4.4 0 0 0 .076-.139h.076v.9h-.076c-.021-.07-.042-.111-.076-.14q-.043-.04-.139-.04h-1.168zm5.773.208.47.683-.063.049a.2.2 0 0 0-.103-.049c-.035 0-.104.035-.221.104a3.7 3.7 0 0 1-.671.311 2.5 2.5 0 0 1-.671.083q-.756-.002-1.244-.366a1.5 1.5 0 0 1-.435-.526 1.56 1.56 0 0 1-.173-.732c0-.367.103-.685.318-.968.332-.436.836-.657 1.527-.657.256 0 .477.028.678.083q.299.083.671.311c.117.07.186.104.221.104q.041.002.103-.049l.063.049-.47.677-.063-.041c0-.02.007-.035.007-.042 0-.014.007-.027.007-.034q0-.135-.373-.311a1.7 1.7 0 0 0-.719-.16c-.339 0-.615.09-.837.263a.95.95 0 0 0-.373.768q0 .466.373.767c.222.173.498.263.837.263.263 0 .525-.07.788-.2q.302-.156.304-.27s-.007-.028-.007-.076zm3.47-.236h-1.742v1.072c0 .055.014.103.041.13a.3.3 0 0 0 .139.077v.076h-1.1v-.076a.3.3 0 0 0 .139-.07.2.2 0 0 0 .041-.13v-2.544c0-.056-.014-.104-.041-.132a.4.4 0 0 0-.139-.076v-.076h1.1v.076c-.07.02-.111.041-.139.076-.027.028-.041.076-.041.132v.905h1.742v-.906a.23.23 0 0 0-.035-.13.3.3 0 0 0-.138-.077v-.076h1.099v.076c-.069.02-.11.041-.138.076-.028.028-.041.076-.041.132v2.544c0 .055.013.103.041.13a.3.3 0 0 0 .138.077v.076h-1.099v-.076a.3.3 0 0 0 .138-.07.2.2 0 0 0 .042-.13v-1.086zm2.323-.698v1.763c0 .055.014.103.041.131a.4.4 0 0 0 .139.076v.076h-1.037v-.076a.26.26 0 0 0 .138-.07.2.2 0 0 0 .041-.13v-2.544c0-.056-.014-.104-.041-.132a.3.3 0 0 0-.138-.076v-.076h1.196v.076q-.125.03-.125.11-.001.065.09.16l1.673 1.652v-1.715c0-.055-.014-.103-.042-.13-.027-.035-.076-.056-.138-.077v-.076h1.03v.076c-.069.02-.11.042-.138.076-.028.028-.041.076-.041.132v2.544c0 .055.013.103.041.13a.4.4 0 0 0 .138.077v.076h-1.113v-.076q.125-.02.125-.104a.14.14 0 0 0-.035-.083 2 2 0 0 0-.152-.159zm5.122-1.127c.498 0 .906.124 1.238.38q.593.454.594 1.272-.001.77-.594 1.217-.486.382-1.231.38c-.49 0-.905-.124-1.23-.38q-.593-.456-.595-1.244.002-.8.595-1.245c.325-.249.74-.373 1.223-.38m.007.588q-.478 0-.781.31a1 1 0 0 0-.283.727c0 .29.097.532.283.718q.301.312.788.312.479 0 .781-.312a.98.98 0 0 0 .284-.705c0-.304-.09-.553-.284-.74q-.31-.3-.788-.31m3.222 2.025h1.742a.2.2 0 0 0 .131-.034.3.3 0 0 0 .076-.139h.076v.92h-.076c-.02-.07-.041-.11-.076-.139-.027-.027-.076-.034-.138-.034h-2.661v-.076a.3.3 0 0 0 .138-.07.2.2 0 0 0 .041-.13v-2.545c0-.055-.014-.103-.041-.131a.3.3 0 0 0-.138-.076v-.076h1.099v.076c-.069.02-.111.041-.139.076-.027.028-.034.076-.034.131zm4.092-2.613c.498 0 .906.124 1.238.38q.593.454.594 1.272-.001.77-.594 1.217-.486.382-1.231.38c-.49 0-.905-.124-1.23-.38q-.593-.456-.595-1.244.002-.8.595-1.245c.325-.249.74-.373 1.223-.38m.007.588q-.478 0-.781.31a1 1 0 0 0-.283.727c0 .29.09.532.283.718q.301.312.788.312.479 0 .781-.312a.98.98 0 0 0 .284-.705c0-.304-.09-.553-.284-.74q-.31-.3-.788-.31m5.102 1.389h-.712c-.055 0-.104.014-.131.042a.3.3 0 0 0-.076.138h-.076v-.823h.076c.021.07.041.11.076.139.027.027.076.041.131.041h1.48v.083a.3.3 0 0 0-.139.083q-.04.05-.041.152v.657c0 .055.014.103.041.131a.4.4 0 0 0 .139.076v.062c-.602.332-1.196.498-1.798.498-.511 0-.933-.124-1.251-.366a1.5 1.5 0 0 1-.415-.491 1.6 1.6 0 0 1-.187-.747q-.001-.549.339-.975c.353-.442.871-.663 1.563-.663.304 0 .642.069 1.03.2q.228.075.269.076a.2.2 0 0 0 .111-.041l.069.034-.373.782-.069-.035v-.014q0-.103-.208-.207a1.7 1.7 0 0 0-.816-.2c-.331 0-.608.09-.822.276q-.34.289-.339.774c0 .304.104.553.311.733q.311.282.892.283.547-.002.919-.2v-.498zm3.097-.166v1.079c0 .055.014.103.042.131a.3.3 0 0 0 .138.076v.076h-1.099v-.076c.069-.02.11-.041.138-.076.028-.028.042-.076.042-.131V40.49l-.92-1.272a1.5 1.5 0 0 0-.249-.29.44.44 0 0 0-.221-.104v-.076h1.403v.076c-.117.028-.179.09-.179.173q-.002.063.131.242l.449.622.443-.622q.133-.186.131-.249-.002-.114-.18-.166v-.076h1.335v.076a.6.6 0 0 0-.222.104 2 2 0 0 0-.248.29zM6.498 17.138l-.85-.346c-.159-.07-.27-.145-.325-.235-.104-.166-.083-.415.049-.747.096-.242.214-.408.338-.504a.37.37 0 0 1 .25-.076q.134.008.29.069l.857.345c.02.007.041.014.055.007a.13.13 0 0 0 .048-.041l.035.014-.194.47-.034-.014c.007-.028 0-.048-.007-.07-.007-.013-.02-.027-.048-.034l-.76-.31A1 1 0 0 0 6 15.602c-.049-.007-.09-.007-.125.014q-.157.06-.263.318c-.069.173-.082.304-.034.408.02.034.041.069.083.096a.8.8 0 0 0 .187.09l.76.311c.028.014.041.014.062.007a.13.13 0 0 0 .049-.041l.034.014-.18.442-.034-.014q.002-.039-.007-.069-.002-.03-.035-.041m-.78.374-.733-.214a.1.1 0 0 0-.062 0 .1.1 0 0 0-.048.048l-.035-.007.125-.428.034.006c0 .028 0 .049.014.07.014.013.028.027.048.027l1.058.311c.028.007.042.007.062 0a.2.2 0 0 0 .049-.048l.034.007-.145.49-.034-.006q.002-.053-.028-.062c-.02-.007-.042 0-.076.02l-.892.484.712.208a.1.1 0 0 0 .062 0 .1.1 0 0 0 .049-.049l.034.014-.124.429-.035-.007a.15.15 0 0 0-.014-.07c-.006-.013-.027-.027-.048-.034l-1.058-.311a.1.1 0 0 0-.062 0 .2.2 0 0 0-.048.048l-.035-.007.138-.456.035.007q-.002.052.028.062h.034l.083-.041zm-.124 1.839-1.079-.235c-.027-.007-.041-.007-.062.007-.014.007-.028.027-.048.048l-.035-.007.104-.463.034.007q0 .041.021.062c.014.014.028.028.055.028l1.079.235c.028.007.041.007.062-.007.014-.007.028-.028.042-.048l.034.006-.097.464-.034-.007q0-.042-.021-.062c-.014-.014-.035-.028-.055-.028m-.968.857.657.429a.2.2 0 0 0 .083.041q.06.01.09-.062l.034.007-.076.511-.035-.006a.2.2 0 0 0-.027-.076.3.3 0 0 0-.083-.07l-.913-.608c-.027-.02-.055-.035-.076-.035q-.062-.012-.083.07l-.027-.014.076-.519.034.007q.01.081.062.09c.021 0 .049 0 .083-.014l1.051-.31a.4.4 0 0 0 .104-.042.3.3 0 0 0 .048-.063l.035.007-.083.526-.035-.007c-.007-.049-.027-.083-.069-.083-.02 0-.048 0-.097.014zm-.007 1.341-.325-.02-.055.843c0 .027 0 .041.014.055.006.014.027.028.055.035v.034l-.401-.027v-.035q.042-.009.062-.027a.08.08 0 0 0 .02-.056l.084-1.237h.034q.009.04.028.062.023.02.055.02l1.1.07c.027 0 .041 0 .055-.014s.028-.028.034-.055h.035l-.076 1.202c0 .028 0 .042.014.063a.1.1 0 0 0 .055.034v.028l-.4-.028v-.034q.04-.009.061-.028a.08.08 0 0 0 .021-.055l.048-.809-.297-.02-.034.504c0 .027 0 .041.013.055a.1.1 0 0 0 .056.035v.034l-.387-.027v-.035c.048.014.069.007.076-.007.014-.014.02-.027.02-.055zm-.076 1.57-.429.006c-.027 0-.041.007-.055.021s-.02.028-.028.062h-.04l-.014-.47h.035q.012.042.034.063c.014.013.035.013.055.013l1.107-.027c.027 0 .041-.007.055-.021s.02-.028.028-.062h.034l.02.87c0 .111 0 .201-.013.264a.4.4 0 0 1-.062.159q-.093.143-.311.152a.37.37 0 0 1-.256-.083.5.5 0 0 1-.138-.284l-.353.263c-.062.048-.11.083-.131.11-.028.028-.035.063-.042.097h-.034l-.014-.56h.034c.014.042.028.063.056.063.02 0 .041-.014.083-.042l.38-.276zm.242-.007.014.483c0 .07.014.125.027.16.021.048.07.069.132.069q.084-.002.117-.056a.33.33 0 0 0 .028-.186l-.014-.484zm.608 2.468-.332-.125.014-.027a.07.07 0 0 0 .062-.035.6.6 0 0 0 .083-.207q.023-.135.014-.27a.6.6 0 0 0-.055-.2c-.042-.084-.09-.118-.145-.111-.042.007-.062.027-.076.069s-.014.124-.014.242l.007.187a.8.8 0 0 1-.056.38.45.45 0 0 1-.311.214.38.38 0 0 1-.345-.145.9.9 0 0 1-.166-.463c-.02-.2 0-.394.069-.595q.009-.022.007-.034-.002-.021-.035-.042l.007-.027.346.103-.007.028h-.007c-.02 0-.035.014-.048.027a.6.6 0 0 0-.07.215c-.013.103-.02.2-.006.29a.7.7 0 0 0 .055.221q.051.123.145.111c.048-.007.076-.035.09-.097a1 1 0 0 0 .007-.207l-.007-.187q-.002-.154.007-.235a.36.36 0 0 1 .159-.277.4.4 0 0 1 .173-.062.38.38 0 0 1 .36.152.8.8 0 0 1 .151.408 1.05 1.05 0 0 1-.076.547c-.014.034-.014.055-.014.069s.014.027.028.048zm.104.56-1.085.18a.1.1 0 0 0-.056.027q-.02.021-.02.062l-.035.007-.083-.463.035-.007a.2.2 0 0 0 .041.055.1.1 0 0 0 .062.007l1.093-.186a.1.1 0 0 0 .055-.028q.02-.021.02-.062l.035-.007.083.463-.048.014c-.014-.028-.028-.042-.042-.056q-.022-.008-.055-.006m.104 1.099-.954.221q-.04.009-.049.028-.02.018-.02.069l-.035.007-.11-.463.034-.007q.021.039.041.048.021.009.063.007l.954-.221-.083-.38a.1.1 0 0 0-.028-.056.15.15 0 0 0-.07-.014l-.006-.034.387-.09.007.027c-.028.014-.041.028-.048.042q-.009.021-.007.062l.249 1.079a.1.1 0 0 0 .027.055.15.15 0 0 0 .07.014l.006.034-.387.09-.007-.034q.04-.021.049-.042.009-.02.007-.062zm-.035 1.728-.442.145c-.021.007-.042.02-.049.035a.15.15 0 0 0-.014.069l-.027.007-.152-.45.027-.013q.03.039.049.048t.062 0l.442-.145.401-.546c.042-.062.076-.11.09-.139a.2.2 0 0 0 .014-.103l.035-.014.186.574h-.034c-.028-.042-.063-.062-.097-.049a.4.4 0 0 0-.083.083l-.2.27.317.097q.096.03.118.02c.035-.013.048-.041.041-.096l.028-.014.18.539-.035.014a.2.2 0 0 0-.076-.076c-.027-.02-.083-.035-.152-.062zm1.479 1.542q.137.288.077.546a.67.67 0 0 1-.388.463q-.299.137-.587-.007c-.16-.07-.284-.207-.374-.4q-.136-.29-.076-.547a.66.66 0 0 1 .38-.463.64.64 0 0 1 .595 0c.16.083.277.221.373.408m-.235.11a.46.46 0 0 0-.262-.249.45.45 0 0 0-.339.028.4.4 0 0 0-.228.242.5.5 0 0 0 .02.366.44.44 0 0 0 .263.25.46.46 0 0 0 .332-.021.45.45 0 0 0 .242-.25.46.46 0 0 0-.028-.366m.146 1.466-.388.228a.1.1 0 0 0-.041.041c-.007.014-.007.042 0 .07l-.028.013-.235-.407.028-.021c.02.02.041.034.055.034s.035 0 .056-.014l.954-.552a.1.1 0 0 0 .041-.042c.007-.014.007-.042 0-.07l.028-.02.601 1.03q.021.03.042.042c.013.007.041.007.069 0l.014.027-.346.2-.014-.027c.02-.02.035-.041.035-.055 0-.02 0-.035-.014-.062l-.401-.692-.256.152.256.436q.021.03.041.041.02.01.07 0l.013.028-.338.2-.014-.027c.02-.02.034-.042.034-.055 0-.021 0-.035-.014-.056zm2.557 2.102-.428.082-.007-.041c.007-.007.014-.007.014-.014.02-.014.027-.055.027-.11a.9.9 0 0 0-.18-.491.7.7 0 0 0-.158-.16.3.3 0 0 0-.125-.048.2.2 0 0 0-.11.028q-.075.052-.035.166c.014.034.055.11.118.214l.096.16c.056.096.097.179.125.241a.5.5 0 0 1 .041.2q.002.103-.048.194a.4.4 0 0 1-.138.16.45.45 0 0 1-.311.096.6.6 0 0 1-.332-.138 1.3 1.3 0 0 1-.242-.242 1.5 1.5 0 0 1-.263-.602c-.007-.048-.02-.076-.02-.083-.008-.007-.021-.014-.05-.02l-.006-.042.429-.104.007.035q-.012.009-.014.007-.04.03-.049.104a.7.7 0 0 0 .049.262c.041.104.09.2.145.277a.56.56 0 0 0 .207.18.3.3 0 0 0 .125.027.17.17 0 0 0 .103-.034q.063-.054.042-.139a1.3 1.3 0 0 0-.11-.22l-.098-.16q-.091-.156-.13-.228a1 1 0 0 1-.05-.152.4.4 0 0 1 .028-.235.4.4 0 0 1 .146-.18.46.46 0 0 1 .36-.097q.258.04.476.34.091.123.152.248c.035.083.076.2.11.339q.02.072.028.083c.007.014.028.02.056.027zm.188 1.562-.506-.546-.338.318q-.03.029-.028.048c0 .014 0 .041.014.07l-.028.02-.318-.346.028-.02q.042.02.062.02c.02 0 .035-.007.055-.027l.816-.747q.029-.03.028-.048-.002-.021-.014-.063l.028-.02.318.345-.028.021a.2.2 0 0 0-.062-.02.08.08 0 0 0-.056.027l-.29.27.505.546.29-.27q.029-.03.028-.048c0-.014 0-.035-.014-.07l.028-.02.318.345-.028.021c-.028-.014-.048-.027-.062-.02-.021 0-.035.006-.056.027l-.808.747a.2.2 0 0 0-.035.048q.002.029.014.07l-.028.02-.318-.346.028-.02q.03.02.062.02c.02 0 .035-.007.055-.027zm1.022 1.32-.456-.408-.152.063q-.054.018-.076.048-.044.041.007.104l-.021.027-.366-.325.02-.027c.028.014.049.027.07.027.02 0 .048-.006.09-.027l1.03-.415a.2.2 0 0 0 .082-.055c.021-.028.021-.056 0-.104l.035-.028.387.346-.02.028c-.042-.014-.077-.014-.104.013a.16.16 0 0 0-.042.09l-.27 1.058a1 1 0 0 0-.02.117q.002.033.034.077l-.02.027-.408-.366.02-.028c.042.028.084.028.104 0a.4.4 0 0 0 .042-.09zm.056-.2.13-.47-.441.186zm1.106.449-.457.615a.1.1 0 0 0-.02.056c0 .02.014.034.027.062l-.02.028-.36-.263.02-.028a.08.08 0 0 0 .07.007.08.08 0 0 0 .048-.034l.657-.885c.014-.021.02-.035.02-.056s-.013-.034-.027-.062l.02-.027.416.304-.021.027c-.035-.014-.055-.014-.07.007q-.018.023-.006.076l.145 1.003.443-.595a.1.1 0 0 0 .02-.055c0-.02-.014-.035-.027-.062l.02-.028.36.263-.02.027c-.028-.014-.05-.014-.07-.014-.014.007-.035.014-.048.035l-.657.885a.1.1 0 0 0-.02.055c0 .021.013.035.027.063l-.021.027-.387-.283.02-.028q.05.023.07-.007.009-.012.007-.035c0-.013-.007-.048-.014-.096zm1.991 1.77-.263-.16c-.02-.013-.042-.02-.055-.013-.021 0-.035.014-.056.035l-.027-.014.186-.311.028.02q-.009.04-.007.07.01.02.042.041l.546.325-.021.028a.12.12 0 0 0-.07 0c-.02.007-.034.027-.048.048l-.145.249q-.022.032-.014.055c0 .02.014.035.035.056l-.014.027a1.6 1.6 0 0 1-.767-.207c-.187-.118-.311-.25-.38-.415a.6.6 0 0 1-.042-.277.7.7 0 0 1 .097-.318.65.65 0 0 1 .346-.29c.228-.083.47-.055.718.097.111.069.222.166.34.304q.06.081.082.09a.1.1 0 0 0 .049.007l.013.028-.31.207-.014-.028v-.007q.021-.041-.028-.124a.7.7 0 0 0-.256-.256.55.55 0 0 0-.366-.083.43.43 0 0 0-.298.214.4.4 0 0 0-.048.34q.054.173.263.296a.8.8 0 0 0 .38.132zm1.548.712-.67-.318-.2.422c-.015.02-.015.041-.015.055.007.02.021.035.042.055l-.014.028-.429-.2.014-.028a.1.1 0 0 0 .07 0q.02-.009.04-.049l.478-.995a.07.07 0 0 0 .007-.062.2.2 0 0 0-.042-.056l.014-.027.429.2-.014.035c-.028-.007-.055-.007-.07 0a.1.1 0 0 0-.04.041l-.174.353.671.318.166-.36c.014-.02.014-.041.014-.055a.2.2 0 0 0-.042-.055l.014-.028.429.2-.014.028a.1.1 0 0 0-.07 0 .1.1 0 0 0-.04.042l-.478.995c-.014.02-.014.042-.014.055q.01.023.042.056l-.014.027-.428-.2.013-.028a.1.1 0 0 0 .07 0 .06.06 0 0 0 .04-.041zm1.445.843-.574-.207-.117.11a.2.2 0 0 0-.049.07c-.014.034 0 .069.049.096l-.014.035-.463-.166.014-.035c.027.007.055.007.069 0 .02-.006.041-.027.076-.055l.802-.774a.3.3 0 0 0 .062-.083q.02-.043-.035-.097l.014-.034.484.18-.014.034q-.07.001-.09.055a.24.24 0 0 0-.007.104l.146 1.085c.006.056.02.097.027.118q.012.032.056.055l-.014.035-.512-.187.014-.035c.048.007.083-.006.097-.041.007-.028.014-.055.007-.097zm-.02-.207-.056-.484-.346.339zm1.312-.318-.31 1.058a.1.1 0 0 0 0 .062c.007.014.02.034.048.048l-.007.035-.456-.132.014-.034a.14.14 0 0 0 .062-.014c.014-.007.028-.028.035-.048l.31-1.058c.007-.028.007-.041 0-.062a.2.2 0 0 0-.048-.049l.007-.034.45.131-.007.035a.2.2 0 0 0-.07.014q-.018.008-.027.048m1.064.933-.083.443c-.006.027 0 .041.007.062q.012.021.056.041l-.007.035-.463-.09.006-.034q.042 0 .063-.021c.014-.014.027-.028.027-.056l.208-1.085c.007-.028.007-.041-.007-.062q-.013-.021-.055-.042l.006-.034 1.176.228c.027.007.041 0 .062-.007q.021-.012.041-.055l.028.007-.076.394-.035-.007q0-.042-.02-.062a.1.1 0 0 0-.056-.028l-.788-.152-.055.29.49.097c.029.007.042 0 .056-.007s.028-.028.042-.055l.034.007-.076.38-.034-.007q0-.041-.021-.062c-.014-.014-.028-.028-.056-.028zm1.888-.518c.214.02.38.097.511.22a.66.66 0 0 1 .194.575.63.63 0 0 1-.311.498.82.82 0 0 1-.54.103.8.8 0 0 1-.504-.221.66.66 0 0 1-.2-.56.66.66 0 0 1 .31-.512.87.87 0 0 1 .54-.103m-.021.256a.43.43 0 0 0-.498.394.44.44 0 0 0 .083.325.5.5 0 0 0 .325.172.45.45 0 0 0 .346-.096.43.43 0 0 0 .152-.29.45.45 0 0 0-.083-.333.45.45 0 0 0-.325-.172m1.32.663-.006.429c0 .027.006.041.013.055a.1.1 0 0 0 .063.035v.034l-.47-.007v-.034c.027-.007.048-.021.062-.028a.08.08 0 0 0 .02-.055l.021-1.106a.1.1 0 0 0-.014-.056.1.1 0 0 0-.055-.034v-.035l.878.014c.11 0 .2.014.263.02a.6.6 0 0 1 .159.063c.096.07.138.173.138.311a.37.37 0 0 1-.09.256.54.54 0 0 1-.29.131l.249.36c.041.069.082.11.103.138a.2.2 0 0 0 .09.048v.035l-.56-.007v-.035c.042-.006.062-.027.062-.055 0-.02-.013-.041-.034-.083l-.263-.387zm.007-.249.484.007a.4.4 0 0 0 .16-.02q.073-.032.075-.125c0-.055-.014-.097-.048-.117a.4.4 0 0 0-.187-.035l-.484-.007zm3.319-.892-.152.408-.035-.014v-.02q-.002-.041-.076-.083a.8.8 0 0 0-.512-.09.6.6 0 0 0-.214.055.2.2 0 0 0-.104.083.16.16 0 0 0-.034.11q.01.093.124.111.063.009.25.007h.186q.165 0 .27.021a.6.6 0 0 1 .193.07.6.6 0 0 1 .145.137.4.4 0 0 1 .07.201.47.47 0 0 1-.077.318q-.083.133-.29.214c-.104.042-.208.07-.332.083a1.4 1.4 0 0 1-.65-.083c-.048-.014-.076-.027-.083-.02-.014 0-.027.013-.048.034l-.035-.014.132-.421.034.013v.014a.15.15 0 0 0 .062.097q.084.062.25.09c.11.02.214.028.31.014a.7.7 0 0 0 .263-.083.3.3 0 0 0 .09-.09.2.2 0 0 0 .028-.104q-.013-.083-.097-.104a1 1 0 0 0-.25-.02h-.186q-.188.002-.262-.007a1 1 0 0 1-.16-.042.4.4 0 0 1-.186-.145.474.474 0 0 1 .02-.574c.111-.13.291-.214.533-.242q.155-.02.29 0c.09.014.208.035.346.083l.083.021c.014 0 .035-.014.055-.034zm1.735.678.262.249-.02.027q-.03-.011-.049-.013c-.014 0-.041.027-.083.062-.09.083-.18.152-.255.194a1 1 0 0 1-.277.096.82.82 0 0 1-.553-.041.66.66 0 0 1-.366-.477.67.67 0 0 1 .041-.436q.145-.32.58-.415c.105-.02.201-.034.291-.027s.194.027.311.069a.4.4 0 0 0 .104.028c.014 0 .02-.014.041-.028l.035.014-.138.332-.028-.014v-.034q-.01-.054-.187-.098a.7.7 0 0 0-.318-.007.5.5 0 0 0-.325.187.42.42 0 0 0-.09.36.4.4 0 0 0 .229.29c.11.055.235.07.373.035a.7.7 0 0 0 .311-.153q.114-.093.104-.145s-.007-.014-.007-.034zm.664-.961.31 1.058q.013.039.035.048a.15.15 0 0 0 .07.014l.006.035-.456.13-.007-.034c.028-.014.042-.027.048-.048q.01-.021 0-.062l-.31-1.058c-.008-.028-.021-.041-.028-.048a.15.15 0 0 0-.07-.014l-.006-.035.456-.131.007.034a.1.1 0 0 0-.049.049.07.07 0 0 0-.006.062m.967.38.11.311.796-.29c.02-.007.041-.02.048-.035a.1.1 0 0 0 .007-.069l.028-.014.138.374-.034.014a.1.1 0 0 0-.049-.049q-.02-.012-.062.007l-1.168.429-.014-.035c.027-.014.041-.034.041-.048q.01-.021 0-.062l-.38-1.037q-.012-.03-.035-.049a.1.1 0 0 0-.069-.007l-.013-.034 1.133-.415q.04-.012.049-.035a.1.1 0 0 0 .007-.069l.027-.014.138.374-.027.014a.2.2 0 0 0-.048-.049q-.021-.012-.063.007l-.76.277.104.276.47-.173c.02-.007.041-.02.048-.034s.014-.035.007-.07l.028-.013.13.366-.027.014q-.028-.031-.048-.041-.021-.012-.062.006zm1.396-.905.333.691q.02.031.041.041c.014.007.042.007.07 0l.013.028-.4.194-.015-.028a.14.14 0 0 0 .042-.055c.007-.021 0-.035-.014-.062l-.484-.996a.1.1 0 0 0-.041-.041c-.014-.007-.042-.007-.07 0l-.014-.035.464-.221.014.027q-.04.032-.028.063.01.03.062.041l.961.332-.325-.67a.1.1 0 0 0-.041-.042q-.02-.01-.07 0l-.013-.028.4-.193.014.027c-.02.021-.034.035-.041.056-.007.013 0 .034.007.055l.484.995q.02.031.041.042.02.009.07.007l.013.027-.428.208-.014-.028q.039-.03.027-.062c-.006-.007-.013-.02-.027-.028a.5.5 0 0 0-.09-.034zm2.704-1.03.325.145-.014.034c-.02 0-.042 0-.048.007-.014.007-.028.035-.056.09-.055.11-.117.2-.173.263a1 1 0 0 1-.228.186.86.86 0 0 1-.539.146.68.68 0 0 1-.505-.332.7.7 0 0 1-.103-.429c.02-.235.159-.428.407-.587q.135-.084.27-.125.125-.032.311-.034.084-.002.104-.014a.1.1 0 0 0 .028-.042l.034.007-.014.36h-.034q-.009-.012-.007-.014-.009-.012-.007-.014c-.02-.035-.09-.041-.207-.028a.7.7 0 0 0-.298.104.56.56 0 0 0-.242.283.4.4 0 0 0 .035.367c.069.117.173.18.311.2a.57.57 0 0 0 .366-.09.76.76 0 0 0 .242-.248c.049-.083.07-.139.049-.166 0 0-.007-.014-.021-.028zm.698-.602.2.263.678-.512a.08.08 0 0 0 .035-.048c.007-.02 0-.035-.014-.07l.027-.02.242.318-.027.02a.1.1 0 0 0-.062-.027c-.021 0-.035.007-.056.02l-.988.754-.021-.027a.08.08 0 0 0 .028-.062c0-.021-.007-.035-.021-.056l-.67-.885a.08.08 0 0 0-.05-.034c-.013-.007-.04 0-.068.007l-.021-.028.96-.726c.022-.014.035-.034.035-.048 0-.021 0-.042-.013-.07l.027-.02.242.318-.028.02c-.027-.02-.04-.027-.062-.027a.1.1 0 0 0-.055.02l-.643.491.18.236.4-.305c.022-.013.028-.034.035-.048 0-.014 0-.041-.014-.07l.028-.02.235.311-.027.021a.08.08 0 0 0-.063-.028c-.02 0-.034.007-.055.021zm2.33-1.694-.436.429.056.152a.3.3 0 0 0 .041.076q.041.042.104 0l.02.028-.352.339-.028-.028c.021-.028.028-.048.028-.07a.4.4 0 0 0-.02-.096l-.347-1.058a.2.2 0 0 0-.048-.09c-.02-.02-.055-.027-.104-.006l-.02-.028.373-.36.02.028q-.028.062.014.104.03.029.09.048l1.037.339q.085.029.118.028.032.002.076-.028l.02.028-.387.38-.02-.028c.027-.041.034-.076.007-.104-.014-.02-.049-.034-.083-.048zm-.2-.069-.457-.159.152.457zm.601-1.161.587.49c.021.014.035.022.056.022q.03.001.062-.028l.027.02-.283.34-.028-.021q.023-.042.014-.063-.002-.029-.034-.048l-.844-.705c-.02-.014-.034-.028-.055-.028s-.035.007-.062.028l-.028-.02.325-.395.028.02q-.021.05 0 .07c.013.014.041.014.076.014l1.009-.09-.567-.47c-.02-.014-.034-.028-.055-.028s-.035.007-.062.028l-.028-.021.283-.339.028.021c-.014.028-.014.048-.014.07 0 .013.014.034.035.047l.843.706c.02.014.035.027.056.027q.03.002.062-.027l.027.02-.304.367-.027-.02q.03-.05 0-.07a.05.05 0 0 0-.035-.014q-.022-.002-.097.007zm1.652-.83-.913-.622a.1.1 0 0 0-.055-.02c-.02 0-.035.013-.062.027l-.028-.02.436-.65a1 1 0 0 1 .263-.284q.186-.116.393-.076c.104.02.201.062.305.131.193.132.297.284.318.464a.5.5 0 0 1-.028.241 1.2 1.2 0 0 1-.145.277l-.436.65-.027-.02c.007-.029.014-.05.007-.07.006 0-.007-.014-.028-.028m.076-.331.194-.284c.09-.131.124-.242.103-.346q-.03-.154-.207-.27c-.118-.075-.221-.11-.325-.09a.3.3 0 0 0-.145.07 1 1 0 0 0-.139.152l-.193.284zm.477-3.028 1.113.56c.02.013.041.013.055.013a.2.2 0 0 0 .056-.041l.034.02-.228.45-.035-.014c.007-.027.007-.055 0-.069a.1.1 0 0 0-.041-.041l-1.113-.56-.228.449c-.014.02-.014.041-.007.055a.14.14 0 0 0 .041.055l-.02.035-.38-.194.02-.034c.028.007.056.007.07 0a.1.1 0 0 0 .04-.041l.616-1.217q.02-.033.007-.056c0-.02-.02-.034-.041-.055l.013-.034.38.193-.02.035c-.028-.007-.056-.007-.07 0a.1.1 0 0 0-.04.041zm1.252-.83.303.117.305-.788c.007-.02.014-.041.007-.055a.13.13 0 0 0-.042-.048l.014-.028.373.145-.014.035a.1.1 0 0 0-.069.007c-.014.007-.027.027-.034.048l-.45 1.162-.027-.014q.002-.04-.007-.07c-.007-.02-.028-.027-.049-.034l-1.03-.401c-.027-.007-.041-.014-.062-.007a.2.2 0 0 0-.055.042l-.028-.014.436-1.12c.007-.02.014-.042.007-.062a.13.13 0 0 0-.042-.049l.014-.027.373.145-.014.027a.1.1 0 0 0-.069.007c-.014.007-.027.028-.034.049l-.29.753.276.11.18-.47q.009-.031.007-.055a.2.2 0 0 0-.042-.055l.014-.027.36.138-.015.027a.1.1 0 0 0-.069.007c-.013.007-.027.028-.034.049zm.898-2.44.339-.111.014.035c-.021.013-.028.027-.035.034q-.01.021.02.104.051.186.05.31 0 .136-.042.291-.093.314-.298.47a.8.8 0 0 1-.27.118.74.74 0 0 1-.324-.014.65.65 0 0 1-.367-.249c-.145-.187-.172-.422-.096-.705a1 1 0 0 1 .117-.27 1.5 1.5 0 0 1 .208-.241q.06-.065.069-.077.002-.018-.007-.048l.028-.02.228.276-.028.02q-.012-.008-.014-.006-.012-.009-.014-.007c-.034-.014-.097.027-.172.117a.7.7 0 0 0-.153.277.53.53 0 0 0 .014.373.43.43 0 0 0 .277.249.43.43 0 0 0 .366-.062.57.57 0 0 0 .207-.311.7.7 0 0 0 .007-.346q-.032-.147-.076-.159s-.014 0-.034-.007zm.214-1.611-.131.733.456.083c.028.006.042 0 .062-.007q.021-.012.042-.056l.035.007-.083.463-.035-.006q0-.042-.02-.063a.1.1 0 0 0-.056-.027l-1.092-.194a.07.07 0 0 0-.056.007q-.02.013-.041.055l-.035-.007.083-.463.035.007a.3.3 0 0 0 .02.062.1.1 0 0 0 .056.028l.387.07.131-.734-.387-.069a.07.07 0 0 0-.055.007q-.021.012-.042.056l-.034-.007.083-.464.034.007c0 .028.014.049.021.063.014.013.028.02.055.027l1.086.194c.027.007.041 0 .055-.007q.021-.012.042-.055l.034.006-.083.464-.034-.007q0-.042-.021-.062a.1.1 0 0 0-.056-.028zm-.159-1.134.768.055c.027 0 .041 0 .062-.013a.1.1 0 0 0 .034-.056h.035l-.028.443h-.034q-.009-.042-.028-.062c-.014-.014-.027-.021-.055-.021l-1.1-.076c-.027 0-.04 0-.055.014a.1.1 0 0 0-.034.055h-.035l.035-.512h.034q.01.054.042.056c.02 0 .041-.007.069-.035l.767-.664-.74-.055c-.027 0-.04 0-.055.014q-.022.012-.034.055h-.035l.035-.442h.034q.009.04.028.062c.014.014.028.02.055.02l1.1.077c.027 0 .04 0 .055-.014a.1.1 0 0 0 .034-.055h.035l-.035.477h-.034q-.01-.054-.042-.056c-.014 0-.02 0-.034.014-.014.007-.035.028-.076.062zm-.421-2.274a.85.85 0 0 1 .145-.54c.124-.172.31-.262.546-.27a.64.64 0 0 1 .532.236c.118.138.173.311.18.525a.83.83 0 0 1-.145.533.65.65 0 0 1-.533.27c-.228.006-.414-.07-.546-.243a.82.82 0 0 1-.18-.511m.255-.007q0 .207.145.332a.43.43 0 0 0 .319.11.46.46 0 0 0 .31-.131c.09-.09.132-.2.125-.339a.46.46 0 0 0-.145-.332.4.4 0 0 0-.311-.11.45.45 0 0 0-.318.131c-.09.083-.125.2-.125.339m.776-1.563-.09-.74a.1.1 0 0 0-.028-.055q-.02-.018-.062-.027l-.007-.028.394-.048.007.034q-.043.021-.055.042c-.007.014-.014.034-.007.062l.138 1.134-.035.007q-.02-.044-.041-.056a.14.14 0 0 0-.062-.014l-1.093.132c-.027 0-.041.014-.055.02-.014.014-.02.035-.027.063l-.035.007-.055-.47.034-.007a.3.3 0 0 0 .035.055.1.1 0 0 0 .062.007zm-1.418-1.638a.87.87 0 0 1 .049-.553.65.65 0 0 1 .484-.367.64.64 0 0 1 .573.139.8.8 0 0 1 .27.484.87.87 0 0 1-.048.553.64.64 0 0 1-.477.366c-.228.049-.422.007-.58-.138a.86.86 0 0 1-.27-.484m.25-.055a.44.44 0 0 0 .2.297.42.42 0 0 0 .332.048.45.45 0 0 0 .283-.186.46.46 0 0 0 .062-.36.44.44 0 0 0-.2-.297.44.44 0 0 0-.325-.055.43.43 0 0 0-.29.186.48.48 0 0 0-.063.367m-.042-2.358.097.29c.006.028.02.042.034.049a.15.15 0 0 0 .07.014l.006.027-.339.111-.013-.027a.1.1 0 0 0 .048-.049q.01-.021 0-.062l-.194-.608.035-.014a.1.1 0 0 0 .055.048q.03.012.07-.007l.27-.09c.02-.007.04-.02.047-.034a.15.15 0 0 0 .014-.07l.028-.006c.214.2.366.421.442.663q.106.311.014.56a.7.7 0 0 1-.152.235.7.7 0 0 1-.283.173.67.67 0 0 1-.45-.007c-.228-.083-.387-.262-.484-.546a1.4 1.4 0 0 1-.055-.45v-.117a.1.1 0 0 0-.034-.041l.007-.035.373.049-.007.027h-.007c-.028.007-.048.049-.062.11a.7.7 0 0 0 .027.36.5.5 0 0 0 .222.298c.11.069.235.076.366.034a.43.43 0 0 0 .263-.221q.072-.164 0-.401a.8.8 0 0 0-.208-.346zm-.602-1.32.429-.187c.02-.007.041-.02.048-.034a.1.1 0 0 0 .007-.07l.028-.013.187.435-.028.014c-.02-.02-.035-.035-.055-.041-.014-.007-.035 0-.063.006l-.428.187-.346.58c-.041.07-.062.118-.076.146a.2.2 0 0 0-.007.104l-.034.014-.242-.553.027-.014c.035.041.063.055.097.041.02-.007.042-.041.076-.09l.173-.283-.325-.07a.3.3 0 0 0-.124-.006q-.044.022-.035.097l-.028.013-.228-.525.035-.014c.02.028.048.056.083.07.034.013.083.027.159.048zm-2.564-3.512v.014zm1.77.297c.069-.083-.035-.18.048-.249-.042-.02-.014-.083-.07-.083.014-.02-.013-.034-.02-.048-.028-.014-.055-.097-.104-.083.021-.048-.055-.014-.034-.062-.014 0-.021 0-.028-.014a.27.27 0 0 1-.117-.145c-.028 0-.035-.028-.063-.014v-.02c-.007-.021-.027-.008-.048-.014v-.035c-.035.007-.035-.062-.076-.028-.028-.034-.11-.041-.083-.103.014-.007.02-.021.041-.014.007.007-.007.02-.007.02s.007 0 .007-.006c.021-.035.083.007.083-.049.014.007.035-.007.049.014a.07.07 0 0 0 .034-.062l.076.007v-.021h.021c.014-.097.097.007.131-.07.049-.103.2-.034.25-.137.055.013.09-.049.137-.028l.042-.035c.028.007.062 0 .083.014v-.02c.02-.007.028-.035.048-.021.07.02.097-.049.166-.056.014-.013.042-.02.035-.041.055-.028.069-.11.117-.152h-.02l.007-.035h.02c0-.103-.034-.207-.048-.31a.86.86 0 0 0-.304-.305c-.062-.02-.11-.09-.173-.104.097.166.027.353.069.54-.076.062-.166.069-.242.13-.014-.02-.035-.054-.014-.075-.027-.035 0-.104-.048-.118.007-.02-.007-.027-.014-.041l-.035.062c0 .152-.166.076-.248.118-.035-.07-.09-.007-.146-.035-.027-.02-.076-.02-.069-.062h.035c.062-.028.007-.049.028-.09.062.007.117-.028.165-.049.014-.055.083-.027.118-.069a.17.17 0 0 1 .145-.034c-.007-.035-.02-.062-.014-.097h.035v-.02c.041-.008.069-.05.11-.077.049-.034 0-.083.07-.11 0-.111.027-.228.082-.332.007-.049.014-.097-.027-.138a.09.09 0 0 0-.083.048c-.16.055-.311.194-.442.304-.063-.007-.042.076-.09.097-.007 0-.028 0-.028-.014-.041.076-.104 0-.16.014-.02-.014-.027-.042-.02-.07.152-.151.09-.373.118-.566-.035-.055-.049-.138-.138-.125-.042.035.027.063 0 .104-.049.035-.077.118-.146.104 0-.014.007-.028-.007-.035-.02.09-.138.125-.18.2h-.02c-.083.09-.194.201-.304.243l-.014-.076c-.028-.104.048-.208.007-.304l-.042.055c-.124.048-.172.173-.283.242-.035.076-.09.103-.16.166-.047.055-.089.124-.144.159-.007.069-.097.103-.09.18-.02.027-.042.069-.083.069-.16-.104-.339-.173-.498-.284-.104.007-.166-.083-.263-.02-.048-.008-.103 0-.138-.042-.041.034-.097 0-.145.014-.117-.062-.235.027-.36.007-.103.062-.276.055-.31.193-.014 0-.021-.007-.028.007l.007.014c.055-.028.062.083.124.07v-.022c.014-.007.02-.02.042-.013v.02c.069.007.02.076.055.11.207 0 .422.09.636.028.069 0 .131-.075.173-.11.02-.007.034-.042.055-.035v-.02c.062-.021.124-.063.187-.07a.64.64 0 0 1 .394.16c-.076.09-.014.235-.021.345.007.02.048.007.035.042.055.02.083.083.124.124.09.028.152.138.256.118v.02c.083.007.138.083.221.09.028.02.042.083.09.07.014.048.076.027.069.082.076.07.18.007.235.118.007.041-.083.076-.014.11.007-.013.021-.006.028-.006.007.013.02.02.014.041h-.021c-.007.014-.041.02-.035.041h.021c.02.021.035.056.014.076-.041-.006-.076.014-.104-.034-.11.062-.172-.07-.276-.062-.035-.049-.132-.056-.194-.083a.3.3 0 0 0-.145-.07c-.097-.075-.214-.124-.325-.18-.076.028-.097-.075-.131-.096-.035 0-.062.028-.097.028l-.028-.021c-.055-.048-.103.007-.173-.014-.117.062-.117.18-.11.284.069.242.325.2.498.283.083.055.172.035.248.09q.03-.031.07-.02c.027.082.096.006.145.048-.062.076-.18.055-.27.069-.041.041-.11.014-.159.041a.4.4 0 0 0-.131.056c-.014.034-.049.055-.035.103l-.055-.007c-.035-.02-.02-.069-.055-.09-.028-.013-.049.021-.076.014.006-.103-.111-.09-.16-.166-.117.021-.138-.145-.234-.152v.021c-.021.034-.056.02-.083.02l.007-.034c-.014.007-.035-.007-.049.007.014.02 0 .041 0 .07-.041.158-.124.428.035.56.007.04.062.013.048.061.07 0 .09.097.152.118-.028.062-.104.09-.138.152-.02.028-.062.007-.062.048-.118.07-.242.118-.353.208-.083.014-.145.097-.242.083-.014-.028-.069 0-.055-.042-.11.007-.145-.152-.249-.152 0-.11-.124-.11-.173-.187-.014-.02-.041-.041-.014-.062-.083.007-.055-.097-.131-.117-.02.007-.014.034-.035.041-.048-.014-.006-.096-.055-.124-.076-.014-.069-.07-.124-.104-.11-.027-.125-.159-.229-.194.028.021.007.07.049.063.007.027.007.055.034.076.035.02.042.027.09.027-.02.014-.006.049-.02.07.02-.007.034-.021.048.013.028.028-.014.056-.014.083.118.049.076.173.166.242.028.11.138.146.173.256.083.125.2.097.276.221.063.097.194.028.256.097l.021-.02c.07.02.11-.014.173-.021.117.034.187-.104.304-.076l.007-.042.055.007c.049-.07.097-.048.16-.097.124.014.151-.145.269-.159l-.007.021c.028-.028.028-.076.083-.07l-.007-.027c.02-.007.028-.034.048-.02v-.021c.049 0 .083.027.111.069.07.014.09.076.145.11v-.02c.02.027.083-.014.07.041.006 0 .027 0 .027.014.007-.055.02-.062.048-.11.118.062.063-.153.16-.097.062.007.027-.083.048-.111h-.021v-.02c-.062-.014-.062-.07-.097-.098q-.002-.01.007-.02c-.028.02-.035-.049-.069-.014l.007-.076c-.062-.028 0-.131-.014-.18.048 0 .09-.076.124-.02.077-.014.118-.063.215-.035q.04.002.062.034c.02-.096.07.035.117-.027-.006.083.09.034.125.069.034.007.07-.042.097-.014v-.02c.02-.008.027-.042.048-.021.007-.077.056-.132.035-.208.014-.014.02-.02.041-.014.014.007.007.021.007.028.118.07.214.152.346.2.069-.027.097.077.152.097v-.02c.048-.035.02.027.055.041.07.014.145.07.228.09.063.097.242.076.318.131.021-.007.028-.034.049-.02.062-.014.076-.028.103-.063m-.9-2.198.035-.028c.007.063.076.076.11.11-.11.022-.103.174-.22.174.007.027-.035.034-.049.041l-.124-.041a1.5 1.5 0 0 1 .249-.256m-.546.456c.063-.014.111.035.173.035-.062.007-.131.014-.173-.035m-.006.076c.062-.014.117.014.166.035-.021.02-.056.034-.042.069-.062.007-.083-.07-.124-.104m.69.45c-.054.02-.047.103-.117.062-.013-.035-.041-.062-.048-.097h.02c-.02-.104.098-.124.077-.221l-.035-.007-.159.221c-.014-.007-.027.007-.041.014 0-.035-.035-.076-.07-.083.07-.028.028-.145.125-.124.014-.083.11-.056.152-.09.035.02.028.103.09.062v-.02c0 .013.014.006.028.013l.027-.028c.07.042.125.152.215.132-.035.034-.111.076-.132.131l-.041-.007c0 .09-.049.007-.09.042m.167.74c-.028-.008-.048.006-.07.02-.034-.083-.117-.09-.2-.09v-.02c-.027-.014-.048.034-.069 0a.2.2 0 0 0-.124-.084c-.021.035-.049-.007-.076-.007l-.007.035h-.021c-.014-.076.145-.02.173-.11.069-.035.103.096.173.013.096.028.11.118.214.132.007.069.09.02.097.097l.055.006-.007.035.035.007-.007.034c-.021-.062-.16-.006-.166-.069m-3.955.359q-.007.009-.027.007c.014.007.02 0 .027-.007m-1.514-3c-.09-.069-.083-.193-.118-.283l-.035-.02c0-.077-.11-.09-.069-.18-.027.013-.083.02-.09-.035-.09.007-.013-.062-.069-.104-.131-.048-.11-.22-.248-.276-.028-.042-.07-.125-.132-.104 0-.014-.02-.034-.007-.048l-.02-.014c-.028-.014-.035-.09-.084-.049-.069-.055-.082-.145-.18-.18 0-.034-.027-.048-.055-.04-.006-.063-.076-.09-.11-.111-.007-.014-.02 0-.028 0l-.014-.042c-.062-.02-.117-.083-.18-.131-.055.02-.055-.07-.11-.049-.028-.076-.124.007-.138-.09l.034-.013c.063-.076.152-.049.2-.139l.008.021.014-.055c.027 0 .055-.028.082 0 .007-.014.021-.028.007-.042.049.014.035-.062.083-.034.014-.035.014-.083.056-.097.083.014.117-.097.207-.083l-.007-.02c.007-.035.049-.028.07-.042.013 0 .013.014.02.028.035 0 .035-.09.083-.042 0 .014.014.02 0 .028-.014 0-.02.007-.035 0 .007.014.007.02.021.027.062-.055.145-.013.208-.034 0 .027.027.02.041.034.041-.048.097-.007.145-.013l-.007-.021c.035.007.09-.021.11.027l.105-.02c0 .007.007.02 0 .027l.02.014c.021-.02-.027-.062.021-.069l.014.055c.041-.034.104.021.138-.027l.007.02c.076-.027.097.07.173 0 0 .028.02.049.041.056.007-.049.063-.035.083-.062.056.055.104-.035.152-.056-.048-.103-.13-.173-.193-.262-.02-.007-.062.02-.07-.021.05-.097-.082-.07-.13-.104-.008-.014 0-.028.006-.041-.027-.042-.103-.049-.096-.104l-.09-.062c.014-.09-.076-.215.014-.318.041-.028.124-.056.096-.118a.27.27 0 0 0 .09-.152c.035-.145.007-.29.007-.429-.062-.069-.048-.22-.131-.29a3 3 0 0 0-.346.588c-.138.076-.11.283-.256.338 0 .083-.09.118-.096.18-.084.042-.077.2-.187.221-.062.146-.2.028-.304.063-.063-.063-.146.02-.208-.042a1 1 0 0 1-.373-.055c-.062.02-.118-.049-.173 0l-.007-.02c-.014-.008-.027-.022-.041-.008.027.125.076.242.103.339.063 0 .049.09.083.124.021.021.056.083.09.083l.014.056c.035.034.09.096.138.083l.007.02c.007.014.021.007.028 0 .007.007.007.021.02.028l-.013-.035.034-.006c.014 0 .014.013.021.027.02.055-.055.042-.069.07-.014.062-.07.11-.131.13l.006.021-.138.111c-.048.028-.117.035-.145.09-.11.041-.228.034-.332.09l-.007-.021c-.048-.007-.11-.014-.152.02-.076-.034-.138-.013-.214-.027-.104.042-.228-.034-.332.014.049.062.11.062.166.124.041-.048.055.035.104.042.076.034.131.028.193.076.035-.007.097-.007.145-.014.084.083.153-.041.235.028.09-.083.242-.035.325-.132.063.014.083-.027.139-.048.166.11.387.228.498.408-.035.062.076.069.027.124h.02c.05.014.022.076.029.09l.055-.014c-.007.083.014.152.09.194.007.02-.014.062.027.062-.02.11.097.062.118.145-.02.014 0 .035-.014.056.02.007.035.034.055.013.014.09.083.139.139.2.006-.006 0-.02 0-.027.027-.02.027.021.048.028-.035.131.097.18.131.29-.014.042.076.056.028.11.118.05.07.188.173.25.076.027.069.214.173.11.048-.041.048-.069.083-.124.09-.055.062-.194.083-.284m-.332-2.91.034-.062c.076.076.063.186.118.283-.035.035-.083.014-.125.021l-.006-.02c-.014.006-.035 0-.042.02-.007-.007-.007-.02-.014-.028-.083.07-.069-.062-.131-.041.028-.062.076-.104.09-.18.027.007.048.02.076.007m-5.434-2.496c.014-.013.042-.007.042-.034.048.09.048.2.041.304-.02.014-.048 0-.076.028.055.11-.145.09-.07.2-.09.02-.158.035-.234.083-.062-.055-.118.007-.16.042-.158-.076-.262.096-.421.02 0 .228.256.408.173.622 0 .083-.049.215-.145.256-.042-.007-.083.021-.125.042-.034.034.007.083.028.103.069.028.166.035.2.083.07-.006.132.07.208.056.014.11.117-.035.138.076.076-.083.062.09.138.014.028.083.152.027.18.09.125-.056.11.055.18.124.048.097.152.173.083.283-.083.021-.16.132-.25.028-.02.028-.04 0-.061-.007.014-.131-.118-.055-.16-.145-.04.02-.075-.048-.117-.028-.048-.097-.138.021-.18-.09-.083.028-.117-.048-.193-.034-.042-.035-.138 0-.187-.062-.041.041-.11-.007-.138-.014-.014-.014-.02 0-.035.007l-.007.013c-.055-.013-.138-.034-.214-.034l-.02.007c-.014-.028-.07-.049-.097-.035l-.056.028c.014-.02-.013-.035-.013-.055-.09-.014-.16.048-.263.027.007-.014 0-.02-.007-.034-.11.007-.214.041-.325.02-.118.007-.249.035-.353-.048-.02-.083-.152-.097-.145-.194l-.02.007c-.077-.145-.194-.29-.194-.463.09-.055.207.028.29.049.028.007.055-.021.083-.021.014.055.07-.02.083.041a.7.7 0 0 1 .221.042c.132-.02.277-.02.374-.118.062-.014.172-.069.2-.124.042-.014.062-.042.09-.07.007.008.007.028.028.021.013-.096.145-.09.159-.186.083 0 .09-.11.172-.138.007-.014.014-.035 0-.049.083-.007.083-.104.083-.152-.145-.083 0-.283-.193-.325l-.028-.007c.028 0 .021-.034.035-.055-.014-.048-.104-.07-.049-.131a.46.46 0 0 1-.096-.242c.09-.056.214.048.318-.007.055.034.124.007.166.034.083-.007.159-.014.242-.014.034.049.103.014.159.007.062.021.117.021.18.028.02.055.075-.014.11.007.09.035.166.041.207.083zm-7.895.678c-.014.09-.076.138-.117.228.02-.007.027.014.048.02.02.063-.055.056-.083.084.048.083-.083.027-.069.103l-.028-.02c.028-.035-.027-.097.021-.118-.014-.014-.062-.007-.048-.048-.021 0-.042.02-.056-.007-.006-.014.007-.02.007-.028-.041-.034-.09-.014-.131-.048-.035-.145-.207-.16-.27-.29a.6.6 0 0 1 .139-.256c.055-.028.096-.09.131-.118.083-.145.194-.249.18-.415-.056 0-.042-.062-.056-.103l-.02.034-.097-.069c-.028.028-.062 0-.09.042-.062-.097-.083.048-.166.013-.041.07-.173.07-.173.152-.02.049-.062-.02-.069-.013l-.014.055c-.034.007-.11.014-.145.048-.048.076-.159.063-.214.118-.035.014-.076.034-.11.02l.144.118c.028.049.104.042.118.104.069.062.228.034.249.166 0 .048-.028.145.034.145.021.076.007.145-.041.187.027.006.014.041.02.062-.006.007-.013.02-.02.02-.007.028.02.063 0 .083.048.077-.09.07-.118.125-.096-.014-.041.11-.138.104 0 .062-.076.131-.124.172.027.083-.09.097-.083.18-.014.083.007.18.09.221.186.049.228.27.407.367-.027.027.028.076-.027.097l.014.013c-.063.042-.076.118-.111.166 0 .07-.014.173.062.215l-.014.013c.042.083.111.111.194.18.076.007.124 0 .187-.027.006-.09.103-.173.069-.263.069-.014.007-.09.048-.118.007.007.014.014.028.007-.049-.09.097-.152.034-.228.014-.028.007-.069.042-.076l-.007-.041.11-.353c.007-.097.07-.173.056-.27.014-.02.055-.027.034-.062.014-.055.035-.117.056-.166l-.007-.027c-.049-.042.062-.056.027-.125.083-.014.042-.11.104-.138.014-.042.007-.104-.048-.118.02-.048.069.014.09-.027l-.014-.014.041-.076-.014-.014.014-.014c-.014.028-.055.021-.076.028m-.87 1.313c-.118-.013-.187-.11-.257-.193-.034-.07-.048-.138-.006-.208.027-.006.04-.041.062-.062-.028-.041.027-.034.041-.062a.4.4 0 0 1 .125-.118c.055.208.096.443.034.643M21.312 3c-.117-.055-.235-.138-.36-.159-.13.028-.248-.027-.386.021-.042-.007-.049.07-.09.028-.007.027-.035.014-.056.02-.034.021-.083.042-.096-.013-.07.02-.132.076-.222.076-.055.055-.145.048-.2.103-.118.049-.249.097-.332.18.11.083.27.09.394.187.055.014.125-.014.173.041-.02.104.062.235 0 .332-.118-.014-.207.09-.325.11-.048-.027-.083-.068-.117-.103-.07-.02-.16-.131-.215-.02 0 .027-.027.075 0 .096-.027.048-.076.118-.027.173-.007.027-.035.014-.049.02.028.014.02.049.028.084-.028.034.007.062-.007.096-.035-.034-.035.028-.07.028l.035.02c-.034.028-.02.07-.055.09l.076.042c.049 0 .007-.062.042-.09-.097-.062.041-.014.041-.076.055.131.083.284.138.422.056.097.118.193.173.29.07.062.131.125.221.16.132.068.229-.105.353-.035.07.131-.104.131-.145.22l-.028-.02c-.014.028-.041.014-.048.048-.076-.013-.104.097-.18.111-.076.097-.173.235-.104.367.07.041.07.145.166.18.014-.021.035-.028.049-.035.034.014 0 .048 0 .069.207.048 0 .249.152.339.055-.035.062.034.09.055a.7.7 0 0 0 .414.014c.007-.083.146-.007.152-.104.007.007.021.014.021.028l.11-.014c.056-.09.167-.007.208-.09.083.014.145-.07.235-.076 0-.02-.02-.028-.034-.035.11-.09-.083-.069-.014-.166-.042.014-.07.007-.104-.027.007-.014.014-.021.007-.028-.048-.034-.118-.062-.166-.014-.041-.034-.131.042-.187-.014-.055.063-.11-.02-.18 0-.013-.02.008-.041.021-.055.014-.007.021.007.028.014a.7.7 0 0 1 .18-.263c.055-.145.276-.228.249-.414a.56.56 0 0 0-.304-.173c-.063.02-.104-.07-.152-.014-.077-.083-.014-.187-.049-.256.104-.138.311-.18.36-.332-.035-.041-.021-.069-.028-.103l-.014-.014c.124-.263.332-.54.442-.802.028-.18-.048-.415-.214-.519m-.892 2.724c.007.02.007.076-.027.097-.07.055-.125.2-.228.145-.09-.02-.139-.117-.118-.2.083-.118.235-.166.367-.222l.02.07a.09.09 0 0 1-.014.11m-.2-1.251c-.042.02-.076.062-.125.076-.055-.104-.13-.249-.13-.38.068-.097.151.027.234.007l.028.027c.007.09.069.194-.007.27m.636-.899c-.014.062-.014.125-.041.187-.07.014-.049-.076-.097-.097-.09-.118-.242-.173-.36-.263.049-.097.152-.138.25-.18-.008-.006-.022-.013-.022-.027.042 0 .049 0 .076-.028l.035-.062c-.007.014.007.02.014.028.034-.014.083-.042.083-.083-.007.027.02.034.034.048.028-.014.049-.048.09-.041.042.193-.034.331-.062.518m-9.857 7.093c-.028-.014-.028-.041-.042-.062l-.007.014c-.027-.007-.069.013-.082-.021-.049-.007-.153-.042-.153.041-.014 0-.027 0-.027-.013l-.035.034c-.09.02-.09.138-.159.16-.014.089-.152.082-.083.193-.048.048-.11 0-.131.048.027.083-.07.048-.083.11.014.014.028.028.041.021v.042c-.027.02-.069.007-.096.007.013.062-.083.104-.028.152-.118.007-.152.18-.263.235 0-.076-.117-.062-.097-.138-.013.02-.034.006-.055.014.097-.201-.2-.166-.207-.34.007-.048-.09-.068-.056-.124-.034 0-.069-.034-.055-.076H9.34c-.014-.007-.007-.02-.014-.034h-.02c-.015-.083-.112-.132-.098-.229h-.041c-.049-.082-.07-.18-.138-.248.006-.049.041-.111 0-.152-.007.013-.021.006-.035.006-.007-.02.007-.034.02-.041.118-.035-.027-.117.021-.173.049-.014.014.049.056.056.048-.021 0-.083.041-.111-.007-.07.035-.152.062-.221-.006-.18.056-.353.083-.526l-.076-.097a.45.45 0 0 0-.325.083c-.103-.006-.096.125-.186.146.014.027-.02.034-.035.055-.083-.035-.041.076-.055.117-.02.056-.042.076-.11.063a3 3 0 0 0-.94-.056l-.098.056c0 .09.083.09.104.172.07.007.076.097.131.111.021.097.139.09.16.187l.117.117c.249.242.429.457.705.692-.034.083.097.048.062.13.118.022.035.056.152.09-.041.07.035.077.042.132.055 0 .069.083.131.042.028.041.028.09.076.117.056.035.104.131.18.145a.41.41 0 0 0 .346.242v.021c.096.083-.042.145-.07.214.014.014.056.007.042.042-.014.027-.041.02-.062.02-.042.021-.035.063-.035.097-.083.007-.103.11-.152.173 0 .056-.097.076-.076.138-.117.056-.083.194-.207.229.027.062-.056.13-.056.18.014.075-.096.068-.096.138-.09.048-.097.165-.173.235-.028.013-.028.013-.042.041.021.014.007.055.042.042v.02c-.028.021-.049.063-.083.063.263.082.518-.042.76-.104.007-.056.083-.028.11-.09.056-.138.222-.221.229-.373.07.014-.007-.083.07-.07.02-.069.054-.13.054-.207.125-.027.076-.187.166-.228v-.042c.049-.062.028-.159.118-.207-.048-.104.097-.131.034-.228.014-.02.021-.062.056-.055 0-.014-.007-.028.007-.035.013 0 .027-.007.034.014.035-.02.056-.062.035-.097.02-.027.041-.034.069-.041-.035-.062.11-.09.02-.132.008-.027.014-.062.042-.083.02-.006.028.014.042.021-.014-.014.013-.035.02-.041-.09-.035.07-.09.07-.152.069-.049.09-.111.075-.208h.063c.055-.028-.007-.062.014-.097.027-.02.062-.048.096-.055-.014-.007-.007-.02-.007-.034.007-.014.021-.014.035-.014l-.02-.083h.068l-.013-.014c.041-.042.11-.104.096-.187H11zm-2.053-.47q.01 0 0 0l-.125-.152c.02-.076-.048-.138-.083-.2.062.027.11-.028.187-.008-.007.063.104.118.02.173-.006.035.008.056.028.076-.062.028-.007.063-.027.11h.02v.022zm.815 1.472c.035-.007.083-.027.111-.02-.02.048-.07.048-.11.02m.81-.165q.009-.012 0 0m5.252-5.462c-.007-.014-.02-.02-.014-.041-.007 0-.027 0-.027-.014l-.021.02c-.014 0-.028 0-.028-.013-.055.007-.117.02-.097.09-.069.006-.13.062-.2.062l.007.007c-.007.062-.076.02-.11.027-.07-.062-.063-.138-.09-.214-.049-.007-.028-.055-.042-.083-.076-.249-.346-.304-.594-.339-.09.028-.194.049-.284.063-.028.041-.09.069-.083.138a1 1 0 0 0-.235.4c-.028.015-.048.05-.083.042-.028-.041 0-.076 0-.11-.028-.007-.041-.035-.028-.063.056-.055 0-.117-.006-.193h.02c.021-.049 0-.118-.02-.145.062-.083-.083-.146-.021-.228-.014-.007-.035 0-.042-.021 0-.097-.034-.242-.145-.29-.069-.042-.145-.014-.207.006-.07.042-.222.028-.2.146-.028.013-.05.055-.09.034-.187-.159-.36-.339-.616-.373-.034.097.076.103.062.2.028.035-.034.063.014.09-.055.118.028.194.028.29.007.056.069.125.027.173.035.049.007.146.09.146a.25.25 0 0 0 .2.138c.098-.042.236.027.333-.042.048-.034.041-.096.069-.131.048-.062.027-.173.097-.2.062.117.041.262.124.373-.028.062.048.124.02.2.021.035.042.056.077.062-.014.028-.028.063-.062.077l.069.034c-.007.02.02.055-.021.062.055.035-.02.083.048.09 0 .02 0 .049-.027.055.007.014.014.028.034.028.007.028.014.083-.034.09l.048.048c.014.028 0 .07 0 .083.02-.007.035-.013.055-.013-.069.076-.02.152-.034.241.069.028-.028.097.062.09-.048.07-.007.118.007.194-.07.076.035.152 0 .249-.007.027-.042.055-.076.055-.09.125-.228.242-.304.353-.076-.014-.042.083-.11.096.006.07-.07.028-.077.076-.007.028-.041.056-.076.056-.007.034-.035.062-.07.083-.11-.028-.158-.145-.269-.187-.27-.083-.36-.38-.49-.608-.111-.187.02-.415.006-.602.028-.055.056-.117.07-.152 0-.02.006-.055-.021-.048 0-.028-.021-.049-.007-.076l-.02-.007c.027-.11-.118-.049-.09-.145-.111.014-.236-.028-.347 0-.082-.042-.103.083-.193.027-.062.042-.131.035-.194.076-.013.021.014.035.021.049.118.062.2.173.325.221.11.076.36-.048.318.159.049.173.007.346.09.512 0 .138.117.262.041.414l.035.028c0 .173.104.339.228.49.02.111.131.146.138.264.18.242.367.518.595.698.014-.007.028-.014.028-.035l.124.014c.055 0 .07-.055.076-.104-.131-.249-.263-.49-.332-.746-.027-.07-.076-.132-.083-.2.208-.104.457-.028.643-.222.028-.014 0-.07.049-.048.02.083.11.117.145.2.159.076.345.014.511-.028.235-.318.553.042.775.028.034.07.09.007.138.048.027-.034.069.014.097-.02.048.083.062-.042.124-.007-.007-.02.014-.028.02-.035.056-.027.084-.11.104-.173-.006-.069.014-.145.028-.214l-.034-.007q-.023-.02-.014-.041c.11-.049-.021-.09.034-.173l-.055-.007.02-.041h-.02c-.014-.035-.007-.07.014-.09.076 0 .09-.118.166-.09l.055-.062c.062.041.118-.007.166-.042-.014-.034-.035-.083.028-.104 0-.041.069-.103-.007-.124.02-.042-.056-.02-.028-.062-.035.034-.076.034-.117.02-.042.077-.152.007-.215.063-.007.076-.09.076-.145.076l-.014-.062c-.062-.07-.014-.18-.096-.222l.027-.055h-.02c-.035-.035-.028-.076-.021-.118-.028-.013-.042-.069-.063-.082-.013-.021 0-.042 0-.07l-.02-.007c-.014-.027.007-.069.007-.103.027.014.027-.028.034-.042-.104-.055.042-.027.049-.069h.069l-.007-.076c.027 0 .062-.028.083 0 0-.041.069-.034.048-.083.042-.034.062-.104.11-.117v-.021zm-1.797 1.1c.076-.015-.007-.084.027-.139l-.034-.007c0 .02-.014.028-.028.035a.35.35 0 0 0 .014-.208c-.028-.007-.042-.034-.055-.055.11.028-.007-.062.027-.104-.014 0-.02-.007-.027.007l-.028-.034c.076-.042 0-.104.028-.166a.6.6 0 0 1 .2-.083c.125.2.104.428.187.636-.007.124-.145.18-.221.242l-.014.007a.3.3 0 0 0-.076-.132m.518.594c-.027.02-.055.02-.083.027l-.007.021-.283.173c.014-.048-.028-.138.041-.173.014-.007.063-.034.07-.069 0-.007.006-.02-.007-.028.02-.041.09-.007.076-.076l.096-.09c.007.049.063.028.083.056-.007.014-.02.007-.034.007 0 .055.048.096.048.152m.878.262c-.027.042-.027.077-.062.111-.055.048-.118-.048-.166.042-.028 0-.055-.028-.076.006-.083-.082-.221-.013-.297-.11.117 0 .131-.125.221-.173.007.014.014.028.035.02.027-.082.145-.055.152-.144.006.02.034.013.048.013l.055-.041c.028.09.056.187.09.276m-.256-.788-.006.035c.048.014.006.09.041.131-.145.028-.263.16-.408.187l-.014-.02c.014 0 .014-.015.014-.028-.02-.021-.076-.014-.062-.056-.048-.02 0-.103-.028-.145.028-.041.007-.11.028-.166.062-.034.076-.083.104-.152l-.007-.007.055.007.02-.083c.042.035.07-.055.104.007.042.097.09.2.16.29m-.318-.636c.007.104-.117.152-.18.229-.02-.021-.075-.021-.048-.063-.02-.159-.173-.27-.276-.38.124-.062.117-.2.207-.283.132.145.2.331.297.497"/><path d="M23 0C10.314 0 0 10.314 0 23c0 12.679 10.314 23 23 23 12.464 0 23-10.536 23-23C46 10.314 35.679 0 23 0m0 45.212C10.75 45.212.781 35.243.781 23 .781 10.75 10.75.788 23 .788S45.212 10.75 45.212 23c0 12.043-10.17 22.212-22.212 22.212"/><path d="M38.54 7.452C34.387 3.304 28.87 1.016 23 1.016A21.83 21.83 0 0 0 7.46 7.452C3.303 11.607 1.015 17.124 1.015 23c0 5.87 2.288 11.393 6.443 15.548 4.148 4.154 9.672 6.436 15.541 6.436 5.814 0 11.337-2.358 15.548-6.637 4.092-4.162 6.436-9.754 6.436-15.347 0-5.876-2.288-11.393-6.443-15.548m-.137 30.757c-4.176 4.238-9.644 6.574-15.403 6.574-5.82 0-11.29-2.267-15.41-6.38C3.478 34.289 1.218 28.82 1.218 23s2.267-11.29 6.38-15.402a21.65 21.65 0 0 1 15.41-6.381c5.82 0 11.29 2.267 15.402 6.38A21.65 21.65 0 0 1 44.79 23c0 5.544-2.33 11.089-6.387 15.209"/><path d="M23 8.455C14.967 8.455 8.455 14.967 8.455 23S14.967 37.545 23 37.545 37.545 31.033 37.545 23 31.033 8.455 23 8.455M31.185 27.1c-.47 7.196-5.648 5.42-8.185 8.703-2.53-3.29-7.708-1.5-8.178-8.703l-.049-14.878c3.498.132 5.372-1.085 8.234-2.357 2.855 1.272 4.735 2.489 8.234 2.357z"/><path d="M22.011 30.197v.117c.09.014.111.09.111.18v.975c0 .082-.02.159-.11.18v.117c.269-.007.552-.277.566-.774-.02-.512-.304-.789-.567-.795m-.103 1.203c0-.097-.097-.18-.194-.18-.124 0-.221.083-.221.214 0 .207.242.325.422.325v-.118c-.035 0-.09-.02-.09-.062 0-.055.083-.069.083-.18m-.139-.305a.44.44 0 0 0 .229-.069v-.117c-.028.013-.056.027-.083.027-.07-.007-.076-.083-.076-.096v-.464c0-.014.007-.055.076-.069v-.117a.494.494 0 0 0-.526.511c.007.221.166.394.38.394m2.275-.116c0-.519-.277-.747-.567-.775v.118c.104.035.117.097.117.194l.007.94c-.006.09-.013.159-.117.193v.118c.29-.042.56-.27.56-.788m-.774.477-.007-.94c0-.09.013-.16.117-.194v-.118c-.29.035-.567.263-.56.782 0 .518.277.74.567.774v-.118c-.097-.027-.117-.096-.117-.186m1.763-1.079c0 .056-.077.076-.077.187 0 .097.09.173.194.173.124 0 .221-.083.221-.215 0-.207-.242-.324-.421-.324v.117c.027 0 .082.028.082.062m.435.871a.38.38 0 0 0-.38-.387.5.5 0 0 0-.235.07v.117a.2.2 0 0 1 .09-.028c.076.007.076.083.076.097v.463c0 .007-.007.055-.076.07v.117a.5.5 0 0 0 .525-.519m-.726.222-.007-.975c0-.083.02-.16.11-.173v-.118c-.269.007-.552.277-.56.782.015.504.298.774.568.774v-.118c-.09-.013-.11-.09-.11-.172m-3.698-1.224-.464.028c-.02 0-.096 0-.096.069 0 .041.041.048.076.055.048.007.062.014.062.138l.007 1.01c0 .055-.007.062-.083.083-.035.006-.055.02-.055.055 0 .062.076.062.096.062l.498-.007c.014 0 .097 0 .097-.062q-.001-.054-.055-.055c-.076-.021-.083-.028-.083-.09zm-4.625-14.718c0 .325.262.588.587.588h5.4v6.498a.587.587 0 1 0 1.175 0v-6.498h5.399a.587.587 0 0 0 .587-.588.593.593 0 0 0-.587-.595H17.006a.6.6 0 0 0-.587.595"/><path d="M20.74 16.66a.587.587 0 0 0-.588.588v4.97c0 .983.601 2.835 2.862 2.835 2.247 0 2.834-1.852 2.834-2.834v-4.97a.587.587 0 1 0-1.175 0v4.963c-.007.276-.097 1.66-1.66 1.66-1.582 0-1.68-1.384-1.686-1.66v-4.964a.587.587 0 0 0-.588-.587"/><path d="M18.265 20.36c.138-1.287 1.195-2.04 1.21-2.054a.58.58 0 0 0 .151-.816.583.583 0 0 0-.815-.152c-.063.042-1.514 1.058-1.715 2.897-.152 1.424.477 2.903 1.887 4.39.844.898 1.19 1.673 1.017 2.302-.242.884-1.514 1.43-1.984 1.569a.584.584 0 0 0-.408.726c.09.318.408.498.726.408.09-.028 2.33-.678 2.8-2.385.29-1.051-.146-2.206-1.3-3.422-1.155-1.238-1.687-2.4-1.57-3.464m10.64-.124c-.2-1.84-1.652-2.855-1.715-2.897a.587.587 0 0 0-.664.968c.008.007 1.08.767 1.217 2.067.111 1.065-.421 2.22-1.576 3.443-1.147 1.217-1.583 2.371-1.293 3.422.47 1.707 2.703 2.357 2.8 2.385.318.09.636-.09.726-.408a.585.585 0 0 0-.408-.726c-.47-.138-1.742-.684-1.984-1.57-.173-.628.166-1.403 1.016-2.301 1.404-1.487 2.033-2.966 1.88-4.383m-5.923 5.281a.587.587 0 0 0-.588.588v2.973a.587.587 0 1 0 1.175 0v-2.973a.587.587 0 0 0-.588-.588m.242 8.649c-.076-.083-.145-.16-.221-.235-.076.076-.145.152-.221.235zm-7.549-20.74q.157-.002.304.007v-.304zm14.352 0q.146.002.304-.007l-.304-.297z"/><path d="M24.286 11.296q-.558-.26-1.169-.532L23 10.708l-.117.056q-.61.272-1.169.532c-1.942.913-3.477 1.632-6.021 1.535l-.311-.014v.311l.041 13.494c.304 4.653 2.593 5.538 4.611 6.32 1.03.4 2.012.78 2.738 1.61l.221.256.221-.256c.726-.837 1.708-1.217 2.745-1.625 2.018-.78 4.3-1.666 4.597-6.29l.041-13.509v-.311l-.304.014c-2.523.097-4.065-.622-6.007-1.535m5.738 2.13-.042 13.19c-.276 4.23-2.198 4.977-4.23 5.765-.968.373-1.964.767-2.759 1.549q.116.112.221.235h-.442c.076-.083.145-.16.221-.235-.788-.782-1.783-1.169-2.744-1.542-2.033-.788-3.955-1.528-4.238-5.793l-.042-13.177c-.103 0-.2 0-.304-.006l.304-.298v.304c2.503.028 4.127-.725 5.987-1.596l1.037-.478c-.041-.02-.083-.034-.117-.055h.235l-.118.055 1.037.478c1.867.877 3.491 1.638 5.994 1.603v-.304l.304.297q-.157.009-.304.007m188.638 7.508-.013-.014q.012.04.013.07zm-.083-.083.07.07c-.007-.035-.028-.07-.07-.07m-.165 6.415q-.01.012-.021.014l.097.07zm8.662-13.66c-.097-.657-.968-.567-.996-1.251-.269.124-.449-.25-.67 0-.056-.16-.215-.049-.332-.083-.173.048-.657-.138-.837.166-.131-.284-.283.2-.414-.083-.049.041-.09.117-.166.083-.436.124-.726.124-1.169 0-.117.145-.283.034-.332.249l-.082-.083c-.125-.035-.166.117-.249.166l-.166-.166c-.09.2-.45-.07-.415.248-.263 0-.615.367-.837 0 0-.09-.013-.2.083-.248.063 0 .083.09.083.138v-.055c-.089-.242.367-.367.083-.581.083-.049.125-.2.249-.166.028-.166-.014-.318-.166-.415l.332-.332-.083-.083.083-.082c-.408-.464.415-.415.166-.92-.311-.657.65-1.092.332-1.749.263-.2.159-.63.415-.754v-.331c.131-.118.242-.318.414-.332l-.082-.083c.034-.118-.077-.277.082-.332.367-.249.153-.67.415-1.002-.034-.118.076-.277-.083-.332.076-.36-.249-.754-.249-1.169l-.083.083-.165-.166.083-.082c-.519-.415-1.12-.664-1.667-1.003-.884-.166-1.887-.083-2.668.249-.346.214-.892.173-1.168.415 1.175.214 1.797 1.258 2.827 1.832.007.601-.339 1.057-.332 1.666-.173 0-.408-.042-.414-.249-.284-.007-.505-.401-.747-.249-.049-.11-.159-.083-.249-.083l.166.415c.74.594-.284 1.113-.415 1.666-.449-.11-.415.429-.753.58-.201.035-.381.305-.581.084l.166-.166c.124-.408-.201-.215-.332-.498.29-.27.325-.65.415-.995-.242-.29.2-.526.166-.837-.035-.242.117-.622.414-.83-.172-.083-.366-.145-.497-.331l.166-.166-.083-.083c.159-.235.048-.553.083-.837.041-.373-.415-.325-.249-.746-.539-.457-.954-1.044-1.252-1.75-.207-.234-.421-.456-.746-.414-.138.2-.159.352-.083.58-.366 1.01-.339 2.268-.339 3.333-.283.297.18.504.083.836-.055.042-.09.118-.166.083.194.49-.408.512-.587.837-.166.013-.305-.028-.415-.166-.145-1.341-1.417-1.922-2.247-2.835-.422-.069-.85-.297-1.168.166.007.339.408.118.497.415-.013.353.249.802-.082 1.085-.049-.041-.09-.117-.166-.083.331.45.041 1.169.248 1.666l-.082.083c.089.747.2 1.715-.083 2.413l-.415-.249c-.595-.29-.781-1.037-1.417-1.251l.083.415c-.249.78.124 1.5 0 2.33.241.449.152.85.165 1.417.049.449.242.933.166 1.334.291.332.083.885.498 1.168.042.208.166.477 0 .664-1.134.352-2.178.947-3.332 1.244-.408.519-1.051.47-1.168 1.168-.228.215-.436.498-.754.498.007.325-.415.463-.498.754-.781.31-.822 1.217-1.417 1.749-.131.74-.836 1.548-.332 2.247-.041.048-.117.09-.083.166h.083c.111-.367.657.034.837-.332l-.083-.083c0-.09-.014-.2.083-.25l.083.084c.29-.297.463.207.753.166.816-.989 2.116-1.666 2.662-2.91.256-.332.131-.927.166-1.252.034-.131-.076-.332.083-.415l-.083-.083c.18-.373.2-.816.415-1.168.608-.664 1.451-1.085 2.329-1.251.132.74 1.051 1.002 1.583 1.5.118.02.242-.2.332 0 .318-.16.719-.049 1.079-.083.491-.332 1.251-.2 1.583-.747l.083.083c.387-.366.961-.283 1.334-.663.214-.049.546.13.664-.166.276.124.449-.25.663 0 .623-.09.761-.837 1.5-.67.249.123.042.67.498.497-.034-.076.042-.118.083-.166.09 0 .201-.028.249.083l-.083.083c.035.117-.076.27.083.332l.083-.083c.173 0 .408.041.415.249-.208.172-.242.428-.581.331-.145.795-1.016.546-1.417 1.086-.387-.049-.781.38-1.168.58a1.9 1.9 0 0 0-.92.415c-.753.187-1.452.546-2.164.83-.186.45-.753.18-1.002.249-.145.166-.138.408-.249.58l-.249-.083c-.449.056-.387.533-.746.754-.173.823.401 1.265.912 1.666 1.438.622 2.254-.747 3.332-1.244.595-.16.823-.678 1.417-.837-.013-.166.028-.318.166-.415.505.215.422-.463.837-.504.11.573-.463 1.071-.747 1.583.035.373-.366.574-.415.912-.131.311-.214.519-.248.837.117.18.083.45.331.58l-.248.25c-.27.09-.395-.173-.671-.084-.201.09-.097.298-.249.415-.463-.47-.892.173-1.417.083-.373.664-1.217.083-1.666.498l.083.083c.083.228-.118.352-.249.505l-.166-.166c-.048.083-.2.124-.166.249.152 0 .214.166.332.248.588.83 1.569 2.33 2.834 2.081.215.125.332-.249.498 0 .283-.332.837-.041 1.168-.249.166.374.007.872.166 1.245.069.207-.2.332 0 .498-.131.836-.408 1.617-.415 2.502-.262.463-.131 1.1-.58 1.5-.166-.034-.256.332-.415.083-.422.574-1.293.076-1.749.58-.505-.442-1.009.167-1.583.084-.131 0-.353.034-.332-.166-.311.422-.719-.131-1.085.166-.049.145.096.207.083.332-.284.166-.477-.346-.837-.25-.332.298-.594.042-1.002.167-.581.415-1.238-.049-1.832.332.2-.076.345.22.497 0 .159.083.298.18.498.166.242-.104.297-.118.498-.332-.028.145.207.235.249.345.034-.124.062-.249.256-.18.242.008.214.284.331.415.671-.366 1.127.332 1.832.166.636.325 1.259-.083 1.915.166.906.09 1.259-.546 2.164-.415.733.104.899-.815 1.5-.83v-.165c.367-.207.367-.567.581-.913.657-.428.242-1.292.837-1.749l-.166-.166.248-.248c-.124-.533.166-.664.166-1.169.581-.546-.089-1.3.332-1.915l.083.083c-.021-.249-.263-.442-.021-.65l-.152-.096c.035-.118-.076-.277.083-.332l-.083-.083a.83.83 0 0 1 .754-.249c.339-.284.719-.152 1.085-.249l-.083-.083c.208-.007.249-.45.498-.166.048-.041.09-.117.166-.083-.242-.242-.214-.373-.332-.663.788-.318-.477-.913.166-1.169.277-.283-.29-.45-.332-.663l-.083.083-.083-.083c-.283.242-.594.034-.836.083-.028-.035-.069-.063-.083-.104-.021.214-.36-.02-.332.27l-.332-.332c-.366.2-.622-.505-.919-.664.2-.2 0-.705.415-.664.262-.428.172-.822.663-1.168a.39.39 0 0 1 .415-.166c-.387-.47.463-.2.332-.664.366.367.532-.29.836-.331.166-.152.076-.464.332-.498l-.083-.083c.035-.118-.076-.277.083-.332-.332-.318-.408-.802-.836-1.002 0-.09-.014-.2.083-.25.076-.034.117.042.166.084.781-.284 1.61-.422 2.329-.83.152-.456.754-.159 1.086-.332l-.083-.083c.007-.36.242.007.414-.083.36-.29.927-.414 1.335-.746.712.09 1.341-.857 1.915-1.003.034-.117-.076-.276.083-.331.214-.208.221-.367.145-.595m-14.068-4.493v-.25c.331.215.663-.048.995-.082-.339.622.401 1.168-.083 1.749.166.103.042.29 0 .415-.214.13-.449.283-.664.421-.207-.629-.297-1.666-.248-2.253m0 4.41c.172-.346.587-.38.864-.664-.228.305-.498.657-.864.664m.331.332c.159-.339.526-.532.83-.664.007.187-.042.394.166.498-.228.304-.664.117-.996.166m4.909-1.493c-.145.338.325.636-.166.83-.208-.09-.477-.035-.664-.167l.083-.083c-.581-.283-.2-.954-.747-1.25l-.165.165.414 1.583c-.103.049-.083.16-.083.249-.166-.124-.497-.124-.663 0 .166-.436-.595-.705-.083-1.078-.304-.408.214-.747.166-1.079.255-.076.608.284.663-.166l-.083-.083c.076.035.118-.041.166-.083v-.249c.498-.165 1.231.042 1.5-.497.035.283-.076.836.083 1.168l-.166.166c.339.332-.269.256-.255.574m4.161 2.163a.42.42 0 0 0-.166.415c-.553-.159-.905.208-1.244.588l-.083-.083c-.166.076 0 .366-.249.332a1.3 1.3 0 0 0-.919.249c.083.242-.214.214-.332.332l.166.165-.083.083c-.422-.255.484-.78.166-1.25.083-.457.878-.125.746-.748.533-.338 1.01-.069 1.501-.497.366.256.463-.339.829-.083l.249-.25.166.167.166-.166.166.166c-.463-.083-.733.781-1.079.58M208.341 34.85c-.014.062-.034.118-.083.152.083-.055.097-.103.083-.152m-10.722-5.808c-.754-.09-1.079-.843-1.618-1.258h-.269c-.263-.45-.961-.18-.989-.809-.104.187-.415.366-.629.09-.463.325-.277-.325-.719-.36-.94.125-1.39-.933-2.33-.808-.318-.16-.795-.477-1.071-.18-.056-.09-.215-.138-.18-.27h-.18c-.193 0-.484-.394-.629 0-.574-.083-.954-.573-1.611-.45-.103-.186-.304-.206-.449-.089-.235-.318-.726-.27-.989-.27-.083-.034-.124.042-.179.09l-.18-.18c-.422.084-.954-.124-1.438-.18-.27.305-.539-.213-.809.09-.408-.366-.719.422-1.078-.09l.179-.179c.097-.622.713-.788.719-1.438l.09.09-.09-.36c.146-.09.229-.366.45-.27 0-.096.027-.213-.09-.269.318-.069.014-.477.359-.45-.048-.227-.179-.518 0-.718.526-.214.367-.954.892-1.168l-.09-.09c-.096-.221.18-.304.27-.45.083-.034.124.042.18.09.214-.145-.083-.65.359-.539.049.055.125.097.09.18-.055.041-.097.124-.18.09.056.041.097.124.18.09.18-.54.816-.547 1.078-.9.07.174.236.056.36.09.09-.4.539-.359.809-.539l-.09-.09c.235-.082.456-.449.719-.18l.539-.448c.042.055.125.096.09.18h.18c.034-.18-.36-.277-.09-.45l.269.27c.118-.325.636-.222.719-.63l.09.09c.36-.387.775.09.989-.539a.46.46 0 0 0 .449.18c-.145-.304.249-.394.27-.63.505.153.484-.539.719-.808-.602-.443-1.307-.595-1.97-.899-.146.035-.305.325-.45.09-.034-.726-.719-.124-1.071-.18-.104-.055-.09-.172-.09-.27-.277-.13-.774.05-.899-.269l-.719-.09c-.422-.546-1.355-1.016-1.168-1.88.124-.304.532-.712.18-.989a1.7 1.7 0 0 0 0-1.168c-.242-.947-.892-1.687-1.349-2.51-.594-.172-1.023-1.12-1.7-1.25-.242 1.361-.214 3.055-.09 4.486-.532.87.304 1.963-.359 2.779.269.45-.132.954 0 1.341-.332.49.207 1.403-.36 1.887.124 1.023-1.051.81-1.528 1.348-.553-.124-.781.574-1.348.45-.733.394-1.479.78-2.33.898-.269.312-.85.09-.988.54l-.09-.09c-.097 0-.214-.028-.27.09.574.622 1.203 1.127 1.708 1.61.339-.214.581.353.892.45.186.055.587.27.809.18l.269.27c.318.061.837.269 1.072 0l.09.089c.083.035.124-.048.179-.09.056.042.097.125.18.09l-.18-.18.18-.18c.083-.034.124.042.18.09.304.242-.173.401-.18.63.145.394-.048.85-.359 1.168l.089.09-.449 1.078c-.173.332-.553.574-.539.989-.491.629-1.21.94-1.618 1.61l-.09-.09c-.318.104-.67.277-.809.63-.553.055-.843.373-1.341.539-.47.574-1.424.546-1.887 1.168.491.18.85.007 1.348.18.09-.401.449.02.719-.09.567-.055.843-.263 1.348-.18.187-.18.539-.36.809-.539.726.214.747-.74 1.431-.629.256-.774 1.286-.988 1.431-1.79.394-.139.394-.43.629-.72 1.348.097 2.973.084 4.217.72 0 .435.629.145.539.629l.09-.09c.325-.083.346.36.45.45l.269-.27c.221.511.574.815 1.169.808.117.097.124.38.359.27.27.705.774.034 1.168.45-.055.151.097.22.09.359.125-.035.297.083.36-.09.387.463.933.546 1.431.719.034-.083-.042-.125-.09-.18.097-.214.235.02.359 0 .221.871 1.176.733 1.701 1.258.048.318.629.09.539.54.844-.097 1.016.864 1.791.898.504-.097 1.113.996 1.348.09.159-.387.083-.546.09-.988.483-.498-.104-1.217-.263-1.79M186.226 13.35v-.45c.705.188.989.872 1.611 1.252-.083.318-.408.36-.629.54l-.09-.09c-.055.09-.214.13-.18.27-.055-.042-.097-.125-.18-.09-.221.642-.594-.132-.898.179-.035-.45.083-.843-.09-1.348.152-.083.345-.083.456-.263m-22.62-1.072c.056-.09.215-.139.18-.27.436.394.657 1.03.809 1.61-.097.125-.27.111-.36.27.533.526-.663.782 0 1.252-.463.276-.815.49-1.161.898-.456-.172-.636.263-.809.54-1.03-.125-1.3 1.023-2.33.892.36 1.25 2.157 1.797 2.06 3.131.173.456.125 1.293-.359 1.7-.263.035-.442.257-.629.45-.125.277.18.456.359.54.429.04.989-.097 1.252.09.366-.174.857.144 1.251-.09.304.587.594-.409.892.18.269-.588.539.414.809-.18.311.4.891-.132 1.161.18.588-.54.74.089 1.251.359.429.435 1.176.663.989 1.43-.415.277-.664 1.044-1.341.63-.063.166-.235.055-.36.09-.18-.768-.767-.09-1.168-.54-.187.173-.498-.138-.712.09-.443-.47-.754.36-1.168-.18-.401.277-.733-.055-1.162.18-.325-.124-.781.27-1.161 0-.173.304-.629.173-.809.18-.083-.035-.125.041-.18.09v.09c-.332 0-.85.076-1.251.18l-.09.09c-.152-.139-.463-.139-.622 0l-.27.269c.035-.138-.124-.18-.18-.27-.539.083-.815.546-1.431.623.035-.077-.041-.125-.089-.18-.602.235-1.127.629-1.791.719-.629.262-1.313.636-2.06.36-.263-.402-1.037-.27-1.161-.803l-.09.09c-.692-.65-1.632-1.279-1.971-2.24.415-.45 1.238-.207 1.701-.27.18-.027.277-.214.449-.269.18.304.36-.214.54.09.456-.09.933-.207 1.341-.18.67-.36 1.521-.622 1.88-1.341.325-.187.85-.698.899-1.072.207-.145.269-.345.359-.539.056.042.097.125.18.09-.097-.574.636-.767.539-1.341.47-.18.298-.795.719-1.072 0-.096.028-.214-.09-.27.457-.165.256-.718.18-.98-1.002-.187-.525-1.57-1.7-1.432l-.09-.09c.166-.069.048-.235.09-.36-.153-.262-.692-.179-.54-.628-.456-.263-.753-.74-.981-1.162.401-.484 1.306-.145 1.79-.629.38.097.719-.186.982-.09.449-.18.899-.36 1.341-.539.304.2.615-.124.892-.27.394.014.726-.09 1.071-.18.221.263.387-.214.629-.179.567.035 1.03-.083 1.342.09zm-33.957 4.002c-.201.581-.643.81-.982 1.335.132-.035.18.124.27.18.055.407-.408.304-.622.442.214.594-.553.097-.533.622l-.179-.18c.214-.186-.063-.656.269-.712-.097-.117-.373-.124-.269-.352-.125-.035-.284.076-.353-.09-.034-.083.042-.125.09-.18-.221-.263-.581-.187-.802-.45-.055-.967-1.175-1.244-1.424-2.136.2-.58.74-1.106 1.154-1.513.367-.118.712-.47.982-.623.678-.843 1.479-1.41 1.604-2.488-.394-.035-.228-.457-.27-.712l-.179.18-.533-.533c-.214.145-.408-.055-.622.18-.304-.705-.594.214-1.065-.09-.359.408-1.175.256-1.244.802-.187.304-.359-.18-.449-.18l-.18.36c-.242 0-.712-.035-.982.18-.387.442-1.064.22-1.514.532-.221.048-.504.18-.712 0l.802.891c.097.325.629.395.622.802.394.463 1.431.484 1.425 1.335-.035.304-.332.898.089.974.076.484-.089.934-.442 1.155.166.09.055.304.09.442-.049.042-.097.125-.18.09-.034.18.083.408-.09.532.263.567-.643.346-.892.713-.629-.18-.366.67-.974.532-.063.394-.616.76-.982.982.09.566-.705.532-.712 1.071-.166.505-.138 1.154.359 1.514 1.148.525 1.203 1.956 2.226 2.758-.214.152.083.526-.269.622l.09.09c-.436.187-.588.657-.892.982-.076.415-.277 1.113.18 1.424l-.09.09c.207.588.622.843 1.064 1.334.471.132.782.132 1.245 0 .145-.58.836-1.023.712-1.597.477-.027.117-.56.449-.712.055.042.097.125.18.09-.228-.629.753-.87.442-1.424.125-.145.097-.436.353-.442v-.27l1.065-2.136c.117-.602.608-1.051.622-1.687.097-.117.38-.124.269-.36a9 9 0 0 1 .533-.974v-.18c-.311-.436.401-.429.269-.892.533 0 .401-.663.802-.802.145-.228.159-.65-.173-.802.187-.27.443.139.623-.09l-.09-.09.352-.442-.09-.09.09-.09c-.124.166-.352.049-.532.083m-6.941 7.563c-.746-.228-1.078-.884-1.424-1.514-.187-.49-.166-.933.18-1.334.186-.027.304-.228.442-.36-.11-.304.249-.214.353-.352.262-.304.56-.518.892-.622.165 1.417.166 2.973-.443 4.182m21.265-14.946c-.712-.484-1.341-1.14-2.136-1.424-.892.042-1.549-.442-2.489-.27-.256-.096-.394.395-.622.09-.062.173-.235.056-.36.09-.214.083-.587.166-.622-.18-.498.09-.933.367-1.514.27-.421.277-.995.173-1.424.443-.802.186-1.694.373-2.316.801.629.671 1.625.878 2.316 1.604.353.146.823.035 1.065.443-.263.657.173 1.59-.353 2.136-.767-.214-1.431.366-2.226.352-.283-.228-.442-.525-.622-.801-.401-.215-.892-1.03-1.334-.36-.056.187-.263.443-.09.622-.214.311-.595.67-.36 1.072-.062.166-.228.048-.352.09.166.124.055.36.09.532-.228.214-.035.408-.18.622-.166-.27-.27.125-.442.09l.179.18c-.242.131-.193.4-.442.532l.442.353c.304.055.132-.401.36-.533-.581-.497.297-.055.352-.442.235.906.263 1.908.443 2.848.269.678.532 1.369.802 2.046.387.484.712.934 1.244 1.245.767.587 1.549-.408 2.316.18.304.933-.809.725-1.161 1.244l-.09-.09c-.125.152-.305.035-.36.27-.456-.18-.76.546-1.244.532-.622.546-1.376 1.306-1.072 2.219.387.332.298 1.016.892 1.334.097-.124.228-.131.36-.18.235.146-.056.305-.09.443 1.279.546-.263 1.604.622 2.316.394-.18.359.304.532.442.781.443 1.784.622 2.669.533.145-.519.926.103 1.064-.533.042.056.125.097.09.18h.712c.436-.525 1.065.131 1.424-.36.54.153 1.017-.304 1.604-.269.035-.131-.124-.18-.18-.263.809-.442-.463-.525.09-1.071-.269.055-.463-.049-.622-.263.042-.055.125-.097.09-.18-.283-.256-.684-.498-1.065-.262-.228-.27-.878.103-1.154-.27-.443.346-.712-.256-1.155-.18-.055-.173.083-.262.18-.36.083-.034.125.042.18.09.345-.629.968-1.154 1.424-1.513.491-.878 2.012-1.183 2.046-2.4-.456-.614-1.016-1.181-1.776-1.423-.401.09-.616-.533-.982-.27-.436-.442.083-1.065-.09-1.514.83-.753 2.164-.836 2.668-1.777-.165-.297-.055-.483-.089-.712l-.09-.09c1.064-1.555 2.675-3.124 3.65-4.714.401-1.12.138-2.703-.802-3.54m-8.538 16.64c.007.132-.021.484-.269.622-.505.284-.996 1.175-1.604.712-.574-.235-.754-.891-.533-1.424.65-.691 1.673-.843 2.579-1.064l.09.442a.72.72 0 0 1-.263.712m0-8.275c-.311.083-.553.318-.892.36-.276-.72-.566-1.729-.442-2.579.56-.58.961.311 1.514.263l.18.18c-.083.608.207 1.368-.36 1.776m4.978-5.164c-.132.394-.228.788-.443 1.154-.442.035-.221-.532-.532-.712-.456-.857-1.369-1.368-2.046-2.046.401-.567 1.14-.719 1.776-.892-.041-.055-.124-.096-.09-.18.256.042.312.035.533-.09l.269-.359c-.034.083.042.125.09.18.249-.055.539-.173.622-.442-.055.165.083.255.18.359.214-.055.36-.263.622-.18.056 1.224-.573 2.06-.981 3.208m-25.482 9.754c0-.096-.014-.207.09-.262-.049-.056-.125-.097-.09-.18h-.173c-.041-.055-.124-.097-.09-.18-.318-.18-.705-.366-.885.09-.401-.263-.926-.186-1.327-.442v.09c-.283.31-.477-.173-.705-.263-.104-.602.214-1.01.352-1.5-.228-.215.056-.408.09-.622.56-1.66-.67-3-1.852-4.148-.588-.263-1.183-.533-1.763-.795-.318.145-.761.034-.968.442-1.051.145-2.026.698-2.828 1.237-.214-.034-.456.083-.615-.09.007-.345.304-.407.443-.621-.104-.139-.097-.332.089-.436.512-.083.45-.643.706-1.058l.089.09c.277-.166.471-.629.443-.885.664-.2.131-1.134.795-1.327-.055-.09-.208-.132-.173-.263.387-.518.76-1.41.353-2.122-.208-.491-.726-.615-1.148-.795-.539-.035-1.334-.72-1.68 0-.214-.035-.505.104-.615-.18-.353-1.583-.574-3.221-1.853-4.417-.567.387 0 .891-.442 1.32.007.304-.415.18-.27.532-.629.415-.484 1.162-.885 1.68-.193.346-.145.947-.532 1.058-.007.387-.532.788-.09 1.148-.09.573.09 1.113.532 1.5.692.166 1.148 1.092 1.943 1.057.38.007.622-.345.885-.442.484-.145.843-.83 1.327-.705-.131.885-.795 1.535-.795 2.475-.408.228-.269.85-.705 1.147-.021.284.007.443.173.616-.187.096-.36.228-.615.18l.262.442c-.103.096-.124.373-.352.27.186.393-.436.352-.09.705-.097.096-.187.228-.353.18 0 .096-.02.213.09.262-.083.173-.256.477-.532.352l.09.443c-.021.187-.284.353-.353.442.125.042.256.056.353.18-.636.125-.699.754-1.148 1.148.263.415-.532.394 0 .705-.54.186-.498.636-.705 1.058-.664.145-.408.981-.968 1.327-.152.131-.463.131-.622 0-.961.325-2.136.408-3 .705-.374-.366-.54.311-.968.09-.228.387-.477-.125-.705.09-.152.131-.464.131-.623 0-.193.152-.442.193-.705.18-.463-.581-.283-1.418-.705-2.033-1.147-1.514-.442-3.484-.263-5.213.132-1.41 1.722-2.142 2.386-3.18.297-.165.65-.366.884-.532.056-.097.263-.262.09-.352.09-.146.09-.34.263-.443l-.09-.09c.56-.47-.456-.732.09-1.147-.664-.353-1.154-1.072-1.853-1.328-.283-.566-.885.042-1.147-.615-.484-.028-.837-.339-1.328-.352-.166.062-.055.228-.09.352.388.788.408 1.722.885 2.475.305.85 2.123 1.14 1.065 2.115-.415 1.141-1.293 1.867-1.5 3.09-.567.754-.429 1.874-1.41 2.386l.09.262c-.678.92-.768 2.226-.706 3.533-.325.657.139 1.313-.27 1.942.015 1.978-.096 4.231.443 6.098.097 0 .207.02.263-.09l.615.532c.29.229.601-.006.795-.262.256-1.819.49-3.65 1.148-5.296.124-.47.09-1.01.352-1.41 1.528.256 2.572 1.631 4.328 1.327.18.035.276-.352.442-.09-.228.54.11 1.072 0 1.68.553 1.01 1.805 1.431 2.828 1.853 2.502-.802 2.807 2.392 4.065 3.18-.09.532.484.401.532.795.29-.097.339.36.615.263-.034.636.512.014.705.442.056-.117.166-.09.263-.09.401.042.864-.262 1.238-.532.228-.394.656-.705.967-1.058l-.172-.172c0-.097-.021-.215.083-.263.788.166.255-.588.884-.795l-.262-.263.262-.173-.089-.09a.56.56 0 0 1 .442-.442c.408.318.961-.277 1.237.18l.533-.09c.173.456.663.4 1.057.442.083-.249.146-.574.533-.442.186-.221.802-.29.442-.705.304-.139-.207-.298.09-.443-.346.062-.546-.083-.705-.352-.532.235-.857-.567-1.41-.526-.311.373-.788.063-1.065-.18l.18-.352c-.062-.608.601-1.016.352-1.59l.353-.173-.09-.09c-.062-.31.138-.511.353-.705-.104-.18.055-.553 0-.705 0-.16.179-.228.262-.353l-.09-.09c.056-.22.298-.352.443-.532.09.18.256-.034.352-.09-.311-.698.353.021.533-.18l.352.263.263-.442c.145.124.429.097.443.352.159-.214.518.076.615-.262.359-.035.739-.298 1.064-.173l.083-.09zm-13.958-1.147c.47.228.291-.484.705-.615l-.179-.173c-.056.103-.166.09-.263.09.359-.18.691-.664.885-1.058-.111-.138-.09-.346-.09-.532.477.587.2-.353.532-.443-.055-.041-.097-.124-.179-.09v-.262c.573.09.442-.574.795-.795.511.02.974.152 1.41.352-.097 1.549-1.141 2.71-1.5 4.155-.519.608-1.473.394-2.123.442h-.09c.132-.318.146-.795.097-1.071m.443 5.212c-.215.021-.36-.09-.533-.173l-.089.09-2.206-.18c.25-.214.38-.843.885-.794.097-.014.47.062.622-.09.042-.055.125-.097.083-.18.291-.145.533.325.705-.09l.885-.09c-.138.305.249.387.263.616-.076.034-.124-.042-.18-.09-.318.249-.186.691-.435.981m3.712 4.853c-.304.097-.456.263-.795.353-.491.062-.429-.719-1.058-.443-.145-.09-.221-.359-.442-.262-.125-.774-1.155-.933-1.148-1.77.609.477 1.203-.145 1.853-.09 0 .097-.021.215.09.263.477-.318.995.276 1.41-.173-.034.131.125.173.173.263h.442c-.172.629-.345 1.244-.525 1.86m1.68-5.205-.18.18c.228.262-.325.504-.263.884-.884-.421-2.039-.172-2.917-.615v-.18c.076.035.125-.041.18-.09-.035-.18-.318-.352-.09-.532-.166-.31.387-.56.442-.885.305-.097.45-.567.795-.795.484.056.733-.131 1.148-.442V23l.263.263.442-.353c.118.36.581-.007.532.443a9.6 9.6 0 0 0-.352 2.212m.795-4.68c-.373.573-1.238.352-1.86.532-.055-.18-.325-.401 0-.532.533-.92.132-2.116 0-3.09.913.165 1.411-.609 2.206-.706.145 1.265-.222 2.524-.346 3.796M80.835 25.98c-.034-.173.042-.305.09-.443h-.09c-.09-.145-.366-.221-.27-.442-.165-.215-.435-.802-.801-.443-.042-.055-.125-.097-.09-.18h-.27c-.456-.297-.926.187-1.334 0-.435.305-.982-.297-1.154.443-.284.097-.332-.366-.623-.263-.214.436-.484-.083-.802.09 0 .097-.013.214.09.27l-.18.18c-.186-.028-.304-.229-.442-.36-.18.318-.746.09-.712.54-.525-.457-1.403.103-2.046-.09.29-.312-.214-.74.18-.982-.132.034-.18-.125-.27-.18 1.21-.456-.145-1.48.532-2.226.221-.18-.09-.67.27-.712-.145-.131-.132-.436.09-.532l-.18-.18c-.035-.083.041-.125.09-.18l-.09-.09c.311-.394.09-1.01.532-1.341l-.18-.18c.146-.532.436-1.016.443-1.604.221-.18.622-.304.622-.622-.083.035-.124-.048-.18-.09.056-.117.173-.09.27-.09.63.36.346-.608.802-.622.263.146-.138.242 0 .443.29.097.339-.367.622-.27.27-.31.747-.484 1.161-.622.706-.76 1.66-1.244 2.496-1.867l.09-.712a2.6 2.6 0 0 0-1.694-.981c-.394-.45-.898.124-1.334-.18-.062.173-.228.055-.352.09-.18-.491-.498.124-.712.263-.312.152-.484.13-.713-.18-.995-1.542-2.191-2.835-3.65-4.1l-.622-.18c-.353.395-.041.713-.263 1.162.228.304-.082.705.09.982-.304.484.215.947-.09 1.424v.981c.035 2.012-.082 3.623.09 5.704-.49.214.221.587-.27.802.409.567-.062.373.27.981-.463.097-.173.436-.36.712.201.235-.055.616.36.712-.055.27-.262.484-.18.802.09.367-.124.968.18 1.335-.394.884-.097 1.77.443 2.405l-.09.09c.069.747-.767.408-1.162.622-.013.125.215.263 0 .36-.165.055-.255-.083-.352-.18-.242-.09-.373.125-.532.27-.367-.311-.892.055-1.335.09-.242.22-.705-.09-.891.27-.706-.236-1.134.455-1.784.09-.152.4-.747.317-.982.531-.242.395-.67-.117-.981.18-.567-.18-1.072.311-1.694.27-.152-.055-.2-.055-.36 0 .028.124-.214.256 0 .36l-.09.09c-.214-.035-.463.082-.622-.09.74 1.417 2.316 1.921 3.56 2.675.25-.18.478.228.803.09.788-.346 1.825-.007 2.495-.623.221.36.311-.36.532 0 .36-.214.76-.318 1.072-.622.615.367 1.065-.442 1.604-.27l.18-.18c.47-.068.767-.531 1.334-.352.214-.622.947-.159 1.071-.802.132-.041.34-.18.443 0 .055-.041.097-.124.18-.09.041.056.124.097.09.18.234.042.49-.041.532-.27.173-.034.304.049.442.09.118-.38.809.083.622-.442.166-.09.325-.2.533-.18.117.056.09.173.09.27.02-.104.186-.104.27-.09-.215-.525.649-.097.891-.353.47.09.802-.09 1.154-.532l.27.27c.318.103.208-.277.443-.36.214.049.435.056.622.18-.035-.083.048-.124.09-.18.083-.034.124.049.18.09l.269-.442.27.262v-.09c.338.021.884.007 1.154-.359zm-6.498-10.33c.007 0 .007-.007.014-.007l.076-1.154c.4-.2.339-.754.442-1.155.132.374.588.325.802.712-.283.229-.048.927-.622.802-.152.104-.194.27-.18.443-.36-.16-.276.242-.525.345v.021l.083.083-.09.09.014-.166zm-2.675 9.437c.18.124.442.193.532.36-.297.082-.498-.098-.532-.36m4.01 2.585c.068.014.048.007 0 0"/></g><defs><clipPath id="clip0_335_43"><path fill="#fff" d="M0 0h227.145v46H0z"/></clipPath></defs></svg>