<svg width="128" height="128" fill="none" xmlns="http://www.w3.org/2000/svg"><path fill-rule="evenodd" clip-rule="evenodd" d="m90.694 35.543-.095-.099c.128-.282.37-.583.669-.735l.624.207.26.271.022.122c-.465.385-1.014.21-1.48.234M90.953 37l-.025.023c-.74-.118-1.547-.87-2.25-1.063.494-.373.938-.082 1.425.054q.424.494.85.986m.27-2.486-.422-.637c-.218.025-.406.018-.631.132L90 33.98c.105-.214.402-.363.544-.568l-.114-.317c-.807.081-1.848.79-1.39 1.712l.19.15c.246-.15.385-.486.641-.617.171-.086.39-.073.634-.228l.072.026-.423.596c-.061.24.075.493.007.75-.074.006-2.21-.73-2.377-.8l-.725-.016-.023-.025c.21-.15.35-.197.516-.4l-.023-.073c-.633-.01-1.232.377-1.873.517-.324.365-.367.7-.29 1.082l.191.149.91-.682c.569-.308 1.568-.132 2.12.335l-.024.024c-.446.109-.768-.01-1.24.336l-.055.29c.02.174-.015.22.16.414.672-.207 1.214-.34 1.86.112l-.024.023-.242-.005-.238-.198c-.17.184-.146.178-.341.138l-.075.07c.034.139.057.21.21.368l-.125.215c-.732-.313-1.323-.656-2.078-1.23l-.17.021q-.06.06-.123.118c.238 1.778.989.775 1.97 1.711l-.96.826c-.457-.045-1.208-.812-1.655-.688l-.097.047c.153.448.561.938.768 1.394.75.263 1.57-.565 2.325-1.28l.591.665c.37-.19.391-.477.426-.74-.136-.234-.313-.396-.542-.617l.174-.214c.294.007.627.058.921-.125.325.258.614.632.851.937.22-.047.563-.197.711-.445.153-.418-.341-1.07-.767-1.491l.001-.048.05-.048c.595-.004.919.238 1.551-.16.286-1.364-.483-1.024-1.177-1.477m-9.439-7.126c.673.66.182 1.003.16 1.77-.015.458.55.446.132 1.248-.62.35-1.497-.098-2.027.405.895.543 1.492 1.836 1.174 2.658-.224.581-1.193 1.108-1.424.578-.562-1.102 1.269-1.74.086-3.136-.118.016-.12-.007-.236.054-.598.333-.833 1.13-1.453 1.27-.472-.3-.492-.582-.623-.947.238-.362 1.233-1.164 1.247-1.347.024-.314-.655-.8-.7-1.148l.044-.073c.53-.008 1.2.331 1.749.283.671-.058 1.294-1.163 1.871-1.615m-12.846.689c.282-.322 1.017-.807 1.098-1.14l.633.157c-.148.427-.612.814-.498 1.29.037.13.08.144.191.225.204-.115.428-.255.724-.209l-.39 1c-.655-.464-.718-1.083-1.758-1.323m-1.497 1.608-.008.033q-.18-.064-.359-.124.022-.154.042-.31l.308-.24.125.066zm3.505-.01c.278-.341.467-.807.673-1.283-.132-.288-.343-.498-.725-.64.242-.61.886-.855 1.306-1.266.028-.297-.149-.432-.15-.675l.25-.857-.067-.724c-.12-.125-.199-.213-.425-.283l-.15.033c-.153.377-.007.668-.008 1.024-.002 1.112-.948 1.246-1.806 1.142-.092.329-.114.525-.04.732l-.766.233c.087-.273.21-.32.49-.266.193-.346-.033-.51-.008-.816.065-.809 1.285-1.53-.226-2.073l-.042.026c-.1.266.021.418 0 .707l-.49 1.399c-.755.195-1.886.144-2.596.484l-.058.092c.064.36 1.03.786 1.548.74l.632-.267.034.008c-.374 1.438-1.434 1.23-1.988 2.299l.166.466.683-.042c.38.179.409.534.891.681.22-.237.182-.76.216-1.148.042-.487.284-.819.448-1.09.922.312 1.068.84 1.624 1.289-.332.964-1.696-.029-2.122.709 1.31.608 1.07.192 2.131-.035l.25-.15c.635.815.582 1.611 2.29 1.597l.108-.15c-.357-.848-1.614-1.113-2.073-1.897Zm-12.488-2.848c-.31.131-.398.353-.65.524.016-.532.316-.59.352-.876.034-.268-.237-.512-.156-.82.063-.112.168-.106.232-.219.12-.237-.33-.92-.563-.998l-.194-.01c-.833 1.106-1.895 1.262-2.492 2.726.855-.41 1.165-1.31 2.342-1.487-.057.881-1.26 1.633-1.963 1.991-.373.19-.517.073-.695.4.038.247.118.358.304.417.542.164 1.653-.273 1.765-.617l.116-.11.032-.004-.45 1.724c.123.166.259.231.425.338l.127-.014.395-.785.06-.038.113.726q.136.066.273.13l.257.004-.284-1.383q.326-.81.654-1.619m2.814-.156c-.06-.444-.38-.564-.86-.483-.127-.988.26-3.159-1.173-2.698-.098.373.894 2.358.602 3.052 0 0-.957.688-1.012.726.114-.534.572-.708.74-1.146.126-.358-.572-.268-.732-.496.11-.284.335-.521.67-.622l.014-.163-.043-.091c-.382-.184-.764-.158-1.186.037.05.206.076.247.286.257l-.027.904.396.374c-.207.39-1.137 1.313-.681 1.943.08.13.134.148.279.193.48-.465.68-.981 1.364-1.312q.016 0 .032-.003c.137 1.273-.011 3.326.636 4.207.064.056.04.027.194.01a54 54 0 0 0-.319-4.533c.284-.025.59-.03.756-.15zm-12.627 4.027-.14.018-.106.006-.031-.17.582-.743.19-.075.012.032zm1.316.647-.094-.146.26-.175-.12-.392c-.111-.029-.223-.015-.365 0l-.038-.096c.173-.352.656-.705.78-1.076l-.032-.17c-.823-.772-1.651.1-2.317.7l-.032.012c.057-.754 1.326-1.917 2.353-1.993.091-.153.097-.289.102-.48-.943-.674-.793.072-1.64.103-.399-.111-.949-.92-1.404-1.051l-.202.043c-.296.42.519 1.216.373 1.863-.818.534-1.037 1.079-1.588 1.616-.226.22-.623.264-.879.458l-.05.24c.943 1.978 2.055-1.478 3.09-1.884l.044.02c-.183.628-.672 1.149-.517 1.922.048.261.69.734.931.873-.28.565-.703.995-.415 1.81l.838.361c.111-.07.14-.093.183-.182.146-.225-.14-.908-.097-1.167l.082-.07c.154.129.181.418.326.639.172.26.434.394.655.544l.095-.037c.085-.557-.49-1.327-.55-1.939l.303-.157.032-.012c.601.434.253 1.035 1.145 1.227l.43-.39c-.284-.758-.984-1.239-1.682-1.014m-10.669.998c1.123-.74 1.222.346 2.044.742.27-.126.513-.143.77-.053l.07.082c-.02.81-.334 1.414.624 2.233.596-.61.965-.766 1.57-.614l.079.362-1.036 1.439c-.378.609-.455 1.268-.78 1.838l-.166-.19c-.17-.668.177-1.213.373-1.863-.442-.2-.83-.608-1.28-1.127-.3.162-.51.104-.839.354-.5 1.29.268 2.707.026 4.007-.286.235-.464.185-.728.209-.621-.721-.443-1.358-.965-2.077-.348.22-.798.254-1.134.183-.197-.213-.205-.29-.224-.473l.573-.602c-.43-.859-1.32-.864-1.62-1.404l.03-.074c.54-.263 1.326-.562 1.826-.216l.585.829.566.316.227.857c.278-.476.184-1.065.303-1.563l.575-1.418c-.387-.594-1.33-1.163-1.469-1.777" fill="#025a92"/><path fill-rule="evenodd" clip-rule="evenodd" d="M20 64c0-24.285 19.715-44 44-44s44 19.715 44 44-19.715 44-44 44-44-19.715-44-44m44-41.878c-23.113 0-41.88 18.765-41.88 41.878S40.887 105.878 64 105.878 105.879 87.113 105.879 64s-18.766-41.878-41.88-41.878Z" fill="#025a92"/><path fill-rule="evenodd" clip-rule="evenodd" d="M31.215 64c0-18.094 14.69-32.784 32.785-32.784S96.785 45.906 96.785 64 82.095 96.784 64 96.784 31.215 82.094 31.215 64M64 32.226c-17.537 0-31.775 14.238-31.775 31.774S46.463 95.774 64 95.774 95.774 81.536 95.774 64 81.537 32.226 64 32.226m-8.87 67.1-.231.874-.875-.232.232-.874zm2.858 3.39-.89-.157.592-3.357a3.1 3.1 0 0 1-1.27.472l.143-.809q.37-.052.835-.298.465-.248.692-.644l.723.127zm4.104-2.654q.03-.435-.154-.69t-.448-.273a.52.52 0 0 0-.43.169q-.177.186-.209.636-.03.456.135.682t.435.244a.56.56 0 0 0 .452-.176q.193-.193.22-.592Zm-2.177 1.833.88-.036q.014.267.14.406a.5.5 0 0 0 .348.152q.279.02.493-.224t.323-1.049a1.08 1.08 0 0 1-.877.337 1.28 1.28 0 0 1-.93-.494q-.373-.456-.327-1.144.049-.716.505-1.125.455-.41 1.113-.365.717.05 1.137.635.422.585.336 1.854-.089 1.29-.606 1.829a1.55 1.55 0 0 1-1.285.487q-.553-.038-.873-.355t-.377-.908m4.028.101.896-.128a.78.78 0 0 0 .248.476q.197.17.444.161a.6.6 0 0 0 .47-.249q.188-.237.17-.7-.018-.434-.22-.644a.65.65 0 0 0-.516-.198q-.388.016-.684.371l-.738-.077.368-2.472 2.39-.093.033.846-1.705.066-.11.807q.296-.164.612-.176.6-.024 1.036.398.435.421.462 1.119a1.7 1.7 0 0 1-.297 1.052q-.436.642-1.252.674-.654.025-1.079-.309-.426-.334-.529-.924Zm7.087-.279.122.831-3.137.46a2.2 2.2 0 0 1 .175-.938q.194-.459.842-1.267.523-.653.63-.873a1 1 0 0 0 .104-.575q-.044-.3-.228-.436-.184-.138-.468-.096a.6.6 0 0 0-.42.234q-.14.193-.11.589l-.905.041q-.029-.75.345-1.134.373-.383 1.004-.475.69-.102 1.14.213t.531.869q.046.315-.025.617a2.4 2.4 0 0 1-.27.649 6 6 0 0 1-.499.682 9 9 0 0 0-.461.595 1.6 1.6 0 0 0-.147.274zm1.734-2.357.207.88-.88.208-.208-.88.88-.208Z" fill="#025a92"/><path fill-rule="evenodd" clip-rule="evenodd" d="M48.594 62.423q-.29 0-.29-.322.058-.376.348-.377 1.506-.053 2.375.377.753.321.58 1.29v.268q.925-.16 1.332-.537.636-.699-.29-1.452-.753-.645-2.028-.645-.58-.106-.637-.59 0-.27.406-.27 1.563.109 2.549.807 1.158.968.984 1.881-.464 1.021-2.085 1.398a.7.7 0 0 1-.29.053v.699q.522.053 1.275.645.926.646 1.564 1.72.057.216-.174.322-.174.108-.347-.053-.29-.43-1.101-1.183-.638-.536-1.216-.591v1.183q.404.161.752.537.696.7 1.159 1.72.58.968.521 1.666 0 .216-.173.269-.117.053-.29-.161a9 9 0 0 0-.29-.645q-.465-.967-.81-1.559-.522-.806-.87-.914v1.344q0 1.989-.116 3.01-.057.215-.231.269-.174.052-.29-.161-.057-.325-.058-3.01v-1.505a1.57 1.57 0 0 0-.81.483q-.58.807-.812 1.505a4.8 4.8 0 0 1-.637 1.129.4.4 0 0 1-.348.054q-.115-.053-.057-.215 0-.053.057-.215.174-.698.29-1.022.29-.644.985-1.72.636-.805 1.274-.913v-1.13q-.465.055-1.1.485-.175.108-.753.752-.406.484-.58.645-.174.215-.29.162-.115-.108-.057-.377.579-1.234 1.506-1.989.579-.536 1.332-.537v-.591q-2.086.215-3.07-.161-.29-.162-.232-.484.116-.214.464-.162.87.216 2.78.108h.058q.057-.913-.405-1.021a4.8 4.8 0 0 0-1.854-.27Zm12.211 1.72q0-.161.059-.43h-1.217v.752h.695q.463-.16.463-.322m-.29-1.666q-.115 0-.405-.054h-.463v.752h1.217v-.16q0-.484-.348-.538Zm.059 6.127q.346-.106.405-.484h-.637a16 16 0 0 0-1.1-.053 3 3 0 0 0-.464.053 8 8 0 0 0-.869.108q.116.323.463.323.985.162 2.202.053m-2.202-2.58q-.521.108-.579.591a9 9 0 0 1 1.39-.107q.753-.053 1.854.054-.117-.376-.405-.484a6.8 6.8 0 0 0-2.26-.054m-.463-1.881q.174.322.753.322h.29q.057-.375.058-.698h-1.217q0 .215.116.376m3.128 3.44q0-.108.058-.269v-.161q-.81-.16-1.68-.107-.81.055-1.68.16l.058.43q1.39-.16 3.244-.053m-3.36-4.622v.214h1.333q0-.43-.058-.752h-.406a2.7 2.7 0 0 1-.463.054q-.405.161-.406.484m.348 2.58a8.2 8.2 0 0 1 2.954 0q.521.108.58.644.173 1.076-.116 2.258-.117.7-1.101.806.116 1.29.695 2.688.173.267-.058.537-.117.108-.174.108-.116 0-.173-.161-.639-1.29-.985-3.172h-.406q-.115 1.936-.984 3.064-.232.215-.348.161-.117-.108-.058-.376 0-.108.174-.484.348-.699.405-1.02.115-.377.232-1.237v-.108q-.753-.053-1.1-.645-.523-.752-.406-2.096.116-.859.869-.968Zm-.29-3.602q1.158-.214 3.012-.054.696.11.696.538 0 .107.057.215.058.216.059.537.23.055.463.055 0-.107.058-.377 0-.268.058-.376.115-.645-.695-.86-1.044-.323-2.317-.323-1.508 0-2.433.43-.174.162-.116.484 0 .216.058.538v.483h.405q0-.375.058-.698.057-.484.637-.592m1.68-1.935q.29.216.29.592.058.107.231.107a12 12 0 0 1 2.202.43q.578.216.637.43.174.27.058.645v.107q-.406 1.505-.232 4.193.115 1.666.753 4.999.057.375-.173.484-.233.052-.348-.27-.985-3.654-.811-7.9a1 1 0 0 1-.232-.054h-.231a2.6 2.6 0 0 1-.29.913q-.233.431-.87.376H58.43q-.58.109-.869-.376a2.2 2.2 0 0 1-.405-.86q-.117 0-.29.054h-.173q.057 1.935-.116 4.085-.06.538-.116 1.774 0-.323-.058.591a10 10 0 0 1-.29 1.505q-.175.43-.405.43-.174-.054-.116-.537.404-2.849.521-4.73.173-2.097-.058-3.71a5.5 5.5 0 0 0-.29-1.074q-.347-.752.348-.968 1.043-.429 2.317-.483.522-.109.522-.591-.059-.215.116-.27.173-.053.347.108m7.751 4.408h1.159q.578-.054.753-.699v-.108a61 61 0 0 0-2.897.054q0 .109.058.215.232.538.927.538m-1.158-2.043q0 .108.058.323v.269h3.012v-.646a29 29 0 0 0-3.07.054m0-.752v.107a65 65 0 0 1 3.07-.053v-.323q-.059-.43-.58-.591a4.1 4.1 0 0 0-1.737-.054q-.811.27-.753.914m.463-1.505a5.1 5.1 0 0 1 2.549.107q.463 0 .637 1.022a6 6 0 0 1-.174 2.74q-.232.97-1.1 1.022.057.7.057 1.559h.754q.578.108.868-.806.174-.483.174-2.365 0-.538.058-.646a.36.36 0 0 1 .174-.16q.115 0 .174.16.115.215.115.86 0 1.023-.115 2.043-.29 1.506-1.448 1.505h-.754v.537q1.392 0 1.738 1.452.348 1.128.58 2.741 0 .59-.174.538-.232.106-.348-.377a26 26 0 0 0-.637-2.74q-.174-.915-1.159-.86.116 1.772.174 3.761 0 .484-.231.538-.233.053-.29-.43-.174-.698-.232-4.193 0-2.148-.058-3.063h-.405q-.29 4.139-.29 6.665 0 .805-.347.913-.29 0-.29-.537v-.43q.115-1.882.174-3.225-1.334-.108-1.448.86a12.6 12.6 0 0 0-.695 2.633q-.117.376-.29.377-.174.107-.174-.377 0-1.29.58-2.74.52-1.613 2.085-1.56 0-.214.058-.537a.76.76 0 0 1-.406 0h-.347q-1.101.108-1.564-1.236-.406-1.02-.406-2.634 0-.698.29-.698.405.322.405.913a5.2 5.2 0 0 0 .058 1.72q.23 1.29 1.39 1.344h.58q0-.269.058-.752 0-.591.057-.753-.985-.106-1.158-.807-.522-1.557-.232-3.01.116-1.02.985-1.074m13.601 6.234q.057.27-.116.377-.232.054-.347-.161-.291-.645-1.043-1.452-.174-.16-.232-.161l-.058.161q-.058.645.174 3.333.115.699.58 2.31.114.378.173.43.057.216.174.592a1 1 0 0 1 .058.215q.057.215-.174.27-.232 0-.348-.27-.694-1.343-1.042-3.601-.232-1.827-.174-3.064v-1.29q0-.16.116-.215.115-.053.232.054.462.43.695.591.81.7 1.332 1.881m-3.65-6.02q.175-.268.348-.107.174.161.058.43-.174.216-.058.376.173.162.406.054.636-.215 1.564.054.578.161.695.913.173.754-.232 1.237-.174.322-.927.16h-.116q-.58-.051-.926.055-.233.055-.174.43.115.7.058 2.042-.06.593-.116 1.613-.174 2.096-.29 2.902a13 13 0 0 1-.405 1.72q-.117.215-.29.215-.174 0-.174-.215 0-.054.058-.483.058-.378.058-.484.521-2.742.58-5.053.056-1.02-.058-1.774-.06-.483-.29-.698-.233-.269.232-.592.578-.483 1.97-.214.578.108.579-.538 0-.591-.522-.645-.87-.162-1.1 0-.233.162-.638.054-.117-.053-.347-.323l-.174-.161q-.233-.43.232-.968Zm-1.853 2.15h-1.448a2.3 2.3 0 0 0 .58 1.398q.171.215.289.215.114 0 .232-.215.347-.537.347-1.397Zm-2.201-2.096h2.78q.405.054.406.323-.06.322-.464.322-.754 0-2.2.054h-.29q-.522.054-.522-.161-.117-.053-.058-.269v-.107q0-.215.348-.162m-.58 3.064q-.058-.16.116-.161.116 0 .174.16.521 1.56 1.39 1.936.058.054.232.054v-.914q-.347-.161-.695-.699-.347-.483-.347-1.343h-.406q-.405.108-.58-.108a.55.55 0 0 1-.057-.269v-.053q.116-.323.347-.215h3.534q.347 0 .347.322-.058.269-.463.268a.5.5 0 0 0-.174.055h-.058q-.116 1.021-.29 1.397-.347.538-.636.645a7 7 0 0 1 .057.914.6.6 0 0 0 .29-.108q.695-.322.81-1.774.059-.213.29-.214.175 0 .174.214.116 1.399-1.042 2.258a.75.75 0 0 1-.522.215v.322h1.275q.405.055.405.323-.058.27-.521.323a10 10 0 0 0-1.159.053v.538q.463.053.87.645.521.646.694 1.827.116.645 0 1.075-.058.161-.231.161c-.173 0-.194-.053-.232-.16q0-.054-.058-.538a2 2 0 0 1-.058-.43q-.173-1.183-.695-1.72-.059-.162-.29-.215.058.752.058 1.236 0 .323-.058 1.021 0 1.02-.057 1.451-.059.43-.232.43c-.173 0-.194-.143-.232-.43q0-1.666-.058-2.472v-1.29a.9.9 0 0 0-.347.215q-.291.216-.522.86l-.058.107q-.117.538-.231 1.667-.06.268-.29.268-.232-.054-.174-.322.058-.967.232-1.72.172-.752.58-1.182.345-.43.81-.484v-.538q-1.275 0-1.275.054-.405.108-.579-.161-.115-.108 0-.43 0-.162.348-.162H73.7v-.322a.65.65 0 0 1-.347-.108q-1.043-.429-1.564-1.666-.06-.107 0-.591v-.215ZM34.794 44.556l-.408.677-1.818-1.093q-.432-.26-.575-.313a.63.63 0 0 0-.456.008q-.223.089-.394.373-.173.288-.144.506.03.218.184.35.153.133.552.373l1.856 1.117-.408.677-1.762-1.06q-.605-.363-.821-.569a1.1 1.1 0 0 1-.299-.456 1.2 1.2 0 0 1-.036-.56q.047-.307.287-.706.288-.48.55-.662.26-.181.524-.22a1.1 1.1 0 0 1 .486.035q.329.107.892.446zm-5.453 1.569 3.552 1.65-.324.698-3.047.351 2.372 1.102-.31.667-3.552-1.65.334-.72 2.982-.356-2.316-1.076.31-.666Zm1.764 5.785-3.662-1.389.28-.74 3.663 1.39zm-4.247.322 4.155-.198-.25.82-3.062.104 2.494 1.762-.244.802-3.338-2.482zm-.775 2.707 3.84.774-.574 2.846-.65-.13.418-2.072-.851-.172-.389 1.928-.647-.13.389-1.928-1.045-.21-.433 2.144-.647-.13.59-2.92Zm1.459 4.758-.057.582q-.055.566-.021.712.033.145.143.237a.5.5 0 0 0 .285.108.47.47 0 0 0 .328-.074.5.5 0 0 0 .182-.282 7 7 0 0 0 .069-.573l.06-.613-.99-.097Zm-2.173-1.007 3.898.38-.162 1.657q-.06.625-.193.898a.9.9 0 0 1-.418.416q-.285.146-.63.111a1.04 1.04 0 0 1-.7-.329q-.261-.285-.285-.806-.174.24-.369.39-.194.149-.676.386l-.807.402.092-.941.904-.487q.484-.258.613-.359a.6.6 0 0 0 .186-.22q.055-.122.082-.393l.015-.159-1.627-.159.077-.786Zm.93 3.909.079.769q-.387.071-.567.285t-.179.574q.002.382.165.575a.48.48 0 0 0 .379.191.36.36 0 0 0 .236-.083.65.65 0 0 0 .168-.285 10 10 0 0 0 .167-.634q.154-.636.383-.895a1.02 1.02 0 0 1 .786-.364q.3-.002.56.166.262.168.4.487t.14.77q.004.737-.316 1.111-.322.375-.862.397l-.039-.79q.302-.054.434-.22.13-.169.129-.503-.002-.345-.145-.539a.28.28 0 0 0-.244-.124.3.3 0 0 0-.237.12q-.125.15-.257.727-.133.578-.277.855a1.1 1.1 0 0 1-.396.435 1.17 1.17 0 0 1-.623.16 1.15 1.15 0 0 1-1.071-.71q-.145-.34-.148-.852-.004-.742.337-1.142.34-.4.998-.481m2.776 4.396-3.906.29-.058-.79 3.905-.289zm-3.727 1.968 3.223-.448-.16-1.151.656-.092.429 3.083-.656.09-.16-1.147-3.223.448z" fill="#025a92"/><path fill-rule="evenodd" clip-rule="evenodd" d="m25.982 72.549 1.604-.38 1.877-1.918.213.902-1.296 1.254 1.717.522.21.887-2.545-.879-1.599.378-.18-.766Zm3.71 5.344q-.608.269-.8.688a1 1 0 0 0 0 .852q.191.433.624.574.434.14 1.058-.134.615-.271.8-.675t-.012-.851a1 1 0 0 0-.624-.587q-.427-.138-1.046.133m-.352-.735q.547-.24.99-.24.329.001.64.117.31.117.526.322.29.273.482.71.348.793.066 1.485-.282.69-1.158 1.077-.868.381-1.566.125-.698-.257-1.045-1.046-.352-.8-.072-1.486t1.137-1.064m.145 4.955 3.407-1.932 1.324 2.335-.576.327-.935-1.647-.806.457.806 1.422-.576.326-.806-1.422-1.448.821zm4.308 4.479.544.55q-.255.297-.263.577-.006.279.222.559.24.295.49.343a.48.48 0 0 0 .414-.088.36.36 0 0 0 .132-.213.65.65 0 0 0-.048-.328 10 10 0 0 0-.268-.599q-.28-.591-.264-.935a1.02 1.02 0 0 1 .383-.778q.231-.189.54-.223t.617.128q.306.162.593.511.466.572.45 1.065-.014.493-.42.849l-.527-.592q.202-.229.199-.443-.003-.212-.215-.471-.217-.268-.45-.328a.28.28 0 0 0-.268.056.3.3 0 0 0-.11.241q-.003.195.256.729.26.532.322.84.062.305-.035.586t-.384.516a1.15 1.15 0 0 1-1.28.12q-.326-.175-.65-.57-.469-.576-.455-1.1.015-.526.475-1.002m4.382 4.65.372.714q-.58.328-1.088.26-.51-.07-.957-.515-.553-.552-.532-1.283.022-.732.674-1.387.691-.691 1.43-.718.74-.026 1.323.555.508.508.526 1.125.012.368-.226.794l-.686-.42a.83.83 0 0 0 .135-.546.83.83 0 0 0-.255-.503.9.9 0 0 0-.72-.278q-.414.03-.909.525-.524.525-.557.938a.87.87 0 0 0 .269.714.8.8 0 0 0 .525.24q.303.02.676-.215m3.255-.422-2.558 2.965-.599-.516 2.558-2.966zm-1.94 3.508 2.35-3.133 2.323 1.742-.397.53-1.69-1.268-.521.695 1.573 1.18-.396.528-1.573-1.18-.64.853 1.75 1.312-.395.528zm3.095 2.267 2.016-3.358.66.395.028 3.068 1.346-2.242.63.377-2.015 3.359-.68-.409-.04-3.002-1.314 2.19zm6.452 1.829.594.542q-.429.508-.933.618-.502.11-1.074-.155-.708-.327-.94-1.022-.232-.694.156-1.534.411-.887 1.097-1.166t1.432.068q.652.301.88.875.138.341.061.823l-.788-.159a.83.83 0 0 0-.061-.558.83.83 0 0 0-.412-.385.9.9 0 0 0-.773-.013q-.377.17-.671.805-.313.673-.202 1.072a.87.87 0 0 0 .497.578.8.8 0 0 0 .577.046q.29-.087.56-.435m.893 1.936 1.276-3.703 2.745.946-.215.626-1.999-.688-.282.821 1.859.64-.215.624-1.86-.64-.346 1.008 2.068.713-.215.624zm26.377-1.026-.973-1.207-.041 1.546zm1.871 1.008-.815.273-.607-.735-1.484.496-.025.946-.796.266.206-4.198.793-.265zm.325-.147-1.604-3.573.702-.315 2.533 1.73-1.07-2.387.67-.3 1.604 3.573-.724.325-2.487-1.684 1.046 2.33zm2.574-4.829 1.29 2.25.512-.293q.288-.165.396-.27a.7.7 0 0 0 .196-.3q.054-.163-.008-.431a2.6 2.6 0 0 0-.287-.662q-.227-.394-.417-.566a.9.9 0 0 0-.383-.217.76.76 0 0 0-.41.022q-.161.05-.581.29zm-1.016-.181 1.254-.719q.424-.243.684-.306.35-.083.691.02.342.102.64.364.3.261.572.74.24.419.31.782.085.444-.02.809a1.4 1.4 0 0 1-.326.548 2.4 2.4 0 0 1-.566.42l-1.291.74zm7.949-.499-2.028-2.544-.909.724-.413-.518 2.433-1.94.413.518-.906.722 2.029 2.545zm1.814-1.476-2.697-2.839 2.105-2 .457.48-1.533 1.456.598.63 1.426-1.355.454.479-1.425 1.354.734.773 1.586-1.507.455.478zm3.118-5.303.686-.419q.369.554.334 1.068-.034.513-.448.989-.513.588-1.243.618-.732.03-1.43-.577-.737-.642-.814-1.378-.078-.736.463-1.357.47-.542 1.087-.602.364-.037.807.17l-.373.714a.83.83 0 0 0-.553-.096.83.83 0 0 0-.484.288.89.89 0 0 0-.228.738q.057.41.586.869.56.488.973.493a.87.87 0 0 0 .694-.317.8.8 0 0 0 .204-.541q-.001-.303-.261-.66m1.959-.114-3.197-2.263.457-.645 1.258.89.895-1.264-1.258-.89.457-.646 3.197 2.262-.457.646-1.398-.99-.895 1.265 1.398.99zm2.213-3.191-3.407-1.931.38-.67 3.065-.105-2.275-1.29.362-.638 3.407 1.93-.39.691-3.002.114 2.222 1.26zm.354-4.778q.609.266 1.047.122t.626-.578a.99.99 0 0 0-.002-.847q-.19-.415-.815-.687-.616-.27-1.039-.131-.42.138-.617.586-.195.448-.008.856.189.408.808.68Zm-.302.758q-.548-.24-.85-.566a1.8 1.8 0 0 1-.345-.549 1.5 1.5 0 0 1-.12-.605q.003-.398.195-.836.346-.793 1.046-1.055t1.576.121q.87.38 1.154 1.066.285.687-.06 1.478-.35.8-1.044 1.06t-1.552-.114m3.457-3.231-3.69-1.21.245-.751 3.064 1.004.613-1.869.627.206zm-.773-4.139q.648.147 1.051-.077a1 1 0 0 0 .507-.684.99.99 0 0 0-.16-.832q-.266-.371-.93-.523-.656-.148-1.044.066-.39.215-.497.691-.108.478.152.843.261.366.92.516Zm-.155.8q-.583-.132-.94-.396a1.8 1.8 0 0 1-.443-.475 1.5 1.5 0 0 1-.232-.572 2.1 2.1 0 0 1 .036-.857q.19-.844.83-1.232t1.572-.176q.924.21 1.333.83.408.623.217 1.464-.194.851-.828 1.236-.633.386-1.545.179Zm1.594-5.814-.656-.076.197-1.693 1.55.18q.21.275.337.764.127.49.072.97-.072.61-.38 1.034a1.63 1.63 0 0 1-.812.597 2.4 2.4 0 0 1-1.062.108 2.25 2.25 0 0 1-1.05-.38 1.73 1.73 0 0 1-.639-.83q-.15-.398-.085-.954.084-.725.435-1.097a1.38 1.38 0 0 1 .901-.426l.056.797a.83.83 0 0 0-.49.256.94.94 0 0 0-.23.548q-.06.514.23.856.292.342.934.417.693.079 1.074-.187.382-.268.441-.767a1.4 1.4 0 0 0-.04-.506 1.7 1.7 0 0 0-.185-.453l-.494-.058zm1.668-3.205-1.649-.026-2.29 1.399.014-.927 1.564-.897-1.535-.928.015-.91 2.25 1.476 1.643.025zm-1.962-5.5 1.037-.15-.104-.724a3.5 3.5 0 0 0-.101-.533.5.5 0 0 0-.195-.262.5.5 0 0 0-.346-.062.5.5 0 0 0-.283.127.48.48 0 0 0-.143.27q-.032.168.045.702zm-1.541.221.896-.128-.073-.514a7 7 0 0 0-.095-.566.52.52 0 0 0-.185-.296.4.4 0 0 0-.319-.072.43.43 0 0 0-.278.142.45.45 0 0 0-.093.314q.004.119.082.671zm-.533.876-.222-1.55a4.5 4.5 0 0 1-.06-.691q.005-.232.101-.428a1 1 0 0 1 .282-.344.9.9 0 0 1 .436-.184.9.9 0 0 1 .52.075.9.9 0 0 1 .399.349q.052-.37.273-.595a.94.94 0 0 1 .558-.275q.264-.038.532.049.266.086.447.278.18.192.259.499.05.193.162.94l.19 1.32zm3.286-4.375-3.806.925-.686-2.822.645-.157.498 2.054.844-.205-.464-1.911.641-.156.464 1.91 1.036-.25-.516-2.127.641-.156zm-4.828-2.905 3.742-1.155.233.755-3.742 1.155zm-.571-1.635-.272-.74 2.327-.854q.457-.168.732-.178.36-.01.658.202.3.212.469.676.2.545.003.95t-.785.624l-.337-.67q.312-.13.412-.257a.43.43 0 0 0 .064-.439q-.092-.248-.27-.3-.18-.05-.626.114l-2.376.872Zm-.74-1.811 3.6-1.54.311.726-3.6 1.54zm3.395-2.071-3.493 1.77-.348-.686 1.607-2.612-2.332 1.183-.332-.656 3.493-1.77.359.707-1.564 2.563 2.278-1.155zm-3.981-4.203-.555.357-.923-1.432 1.311-.846q.338.079.746.377.41.297.672.703.332.516.363 1.04t-.248.977a2.4 2.4 0 0 1-.752.758q-.515.331-1.053.373a1.73 1.73 0 0 1-1.02-.236q-.368-.21-.672-.682-.394-.613-.36-1.123t.425-.902l.55.58a.83.83 0 0 0-.215.509.94.94 0 0 0 .168.57q.281.435.723.514t.985-.27q.586-.378.712-.828.125-.449-.147-.871a1.4 1.4 0 0 0-.352-.366 1.7 1.7 0 0 0-.431-.233l-.418.27zm-47.72 6.847-.9-4.459c-.164-.524-.425-.713-.95-.713-.682 0-1.234 0-1.234.713l.734 4.459zm6.99 36.892V76.19h-3.694v10.59c0 .547.356.547.796.547h2.898Zm22.078-.549V76.19h-3.698v11.14h2.898c.443 0 .8 0 .8-.549Zm3.88-13.783.815-14.036H46.362l.815 14.036c0 .662.818 1.198 1.831 1.198h29.868c1.013 0 1.834-.536 1.834-1.198m1.172-18.611.224-1.291H45.781l.224 1.29h2.34l.3 3.093H79.24l.3-3.092zm.593-3.95.737-4.458c0-.713-.554-.713-1.237-.713-.525 0-.788.189-.95.713l-.9 4.459zm3.994-5.507-1.573 11.012h-3.37l-.169 1.537h3.54L83.511 75.23c0 1.037-.923 1.876-2.062 1.876h-1.387v.97h2.547v4.16c0 .785-1.139 1.423-2.547 1.423v4.869c0 .725-.654 1.313-1.46 1.313h-8.015V78.075c0-.826-.839-1.498-1.872-1.498h-9.544c-1.034 0-1.873.672-1.873 1.498V89.84h-8.015c-.806 0-1.46-.587-1.46-1.312v-4.87c-1.408 0-2.547-.637-2.547-1.422v-4.16h2.547v-.97h-1.387c-1.139 0-2.059-.84-2.059-1.876L42.99 57.48h3.539l-.168-1.538h-3.37L41.417 44.93c.174-1.234 2.754-1.834 4.363-1.834 2.088 0 2.715.318 3.778 1.834l1.049 5.508h26.671l1.05-5.508c1.06-1.516 1.689-1.834 3.778-1.834 1.609 0 4.189.6 4.362 1.834Z" fill="#025a92"/><path fill-rule="evenodd" clip-rule="evenodd" d="M49.302 55.941h29.284v-1.555H49.302z" fill="#025a92"/></svg>