<svg xmlns="http://www.w3.org/2000/svg" viewBox="0 0 128 38.9"><defs><style>.cls-1{fill:#025a92;fill-rule:evenodd}</style></defs><g id="_图层_1" data-name="图层_1"><path class="cls-1" d="M108 15.3s.2.3.5.5.5 0 .7-.1c.2-.2 0-.7 0-1s0-.2.3-.2.6.8.6 1 0 .2-1.1.6c-1 .4-1.4 1.2-1.6 1.3-.2 0-.1-.2-.4-.2s-.4.5-.6.8-.3 1-.3 1.2-.1.6.3.9.8 0 .9-.2 0-.8 0-1.4.8-1 1.1-1.1c.3-.2.7-.2.7 0 0 0-.3.5-.5.6s0 .6 0 .8c0 .1 0 .2.3.3.4.1.3-.2.5-.4s.4-.5.5-.5.2.3.3.4c0 .1.1.3-.1.5-.3.1-1.1.4-1.1.4s-.5 0-.7.1c-.2 0-.5 0-.6.3 0 .3 0 .1.2.5s.8.4 1.1.4.5-.2.8-.4c.2-.2.6-.4.8-.4s.2.3.2.6 0 .3-.1.6-.2.4-.3.5-.2 0-.7.1c-.5 0-.8.4-.8.5 0 .2.1.1.3.2s.4.2 1 .2c.5 0 .8 0 1-.2s.3-.8.3-1.3v-1.1c0-.2 0-.2.1-.4s.3 0 .7-.1c.4 0 .3-.3.3-.5s-.1-.3-.4-.5-.5 0-.7 0-.2 0-.2-.2.1-.3.2-.5c0-.2.3-.4.5-.6.2-.3.4-.1.7-.1s.4 0 .6-.2 0-.7 0-.8-.2 0-.5-.3-.5-.2-.8-.2-.4-.3-.2-.4c.2-.2.3-.4.5-.7s.1-.5 0-.7-.3-.3-.6-.6c-.3-.2-.6 0-.8 0s-.5.2-.7.3-.4.1-.5.1h-.4c-.1 0-.2.2-.3.3-.1.2-.2 0-.3 0 0-.1-.2-.3-.3-.5 0-.2-.4 0-.5 0s-.3.5-.3.7v1.4Zm2.9-.6s-.3-.2-.3-.4c0-.3.2-.7.6-.8.3 0 .5 0 .4.2 0 .3 0 .5-.2.7s-.4.3-.5.3m-.9 2.2s.6-.9 1.1-.9.4-.2.7 0c.3.1.3.2 0 .4s-.5.3-1 .4c-.4 0-.8.2-.8.2Zm-14.7.7s.7-.4.9-.5c.2 0 .6-.3.8-.8.1-.5.2-1 .2-1.3s-.1-.7.3-.5c.4.1.7.2.8.5 0 .3.1.7.4.9s.5.4.6.7c0 .2 0 .5-.1.6s-.7.7-.9.8c-.1 0-.2.3 0 .3s.9.2 1.4.5c.4.3.7.7.7 1 0 .4 0 1-.2 1.2s-.2.2-.4.2-.5-.2-.5-.5v-1.2c-.1-.5-.4-.6-.6-.7-.1 0-.3 0-.4-.1 0 0-.2 0-.3.2 0 .2-.2.6-.2.8v.6c0 .1-.4.4-.8.2-.4-.1-.4-.5-.5-.6v-.7c0-.1.2-.5.1-.7s-.5-.6-.6-.5-.4 0-.4-.2v-.3Zm-12 .3s-.1.5-.4.9c-.2.4-.3.4-.5.7s-.7.6-.7.8v.8c0 .2.4.2.6.2s.4-.2.5-.2.1.2.1.3 0 .2.5.3c.4.1.5-.2.6-.5 0-.3 0-.3-.2-.6v-.8c0-.2.1-.5.3-.6.1-.2.3-.4.9-.2s1.3.9 1.3 1.1-.2.3-.4.5c-.1.2-.7.3-1 .3-.2 0-.3.2-.4.2s0 .3.1.4.9.2 1.2 0 1.1-.8 1.1-.8l.5.5c.2.2.6.5 1.4.6.8 0 1.1-.4 1.2-.5 0 0 0-.2-.3-.5-.2-.2-.8-.5-1.2-.5s-.8-.2-1.1-.3c-.2-.1-.1-.1 0-.5v-1.4c0-.3-.5-.4-.6-.6s-.3-.3 0-.5.5-.6.7-.9.3-.4.2-.6c-.2-.2-.3-.3-.4-.5s0-.7 0-1 0-.3-.3-.7-.6-.3-.7-.3c-.2 0-.2.5-.2.6s.1.1.2.2v1.4c0 .1-.1.2-.3.4s-.7.2-.9.3c-.3.2-.3.4-.6.5-.2 0-.3-.2-.2-.7 0-.3.2-1 .2-1.3 0-.2-.2-.6-.4-.7-.2-.2-.3 0-.4 0s-.3.2-.2.6c0 .3.1.4.1.6s0 .7-.2 1.2c0 .5-.4.4-.7.6s-1 .4-1.4.5-.7.3-.7.5.2.2.5.4 2 0 2 0Zm1.5.7s-.5-.2-.4-.3c.1-.2.7-1 1-1.1.2-.1.4-.2.4 0v1.2c.1.1.2.3.3.3s.5-.2.6 0c0 .2.2.3 0 .6-.2.2-.3.3-.5.1s-.4-.6-.7-.6-.8 0-.8-.1Zm-30.2-1.2c.2 0 .5 0 .8-.1.3-.2.6-.4.9-.7s1.1-.9 1.4-1 .3 0 .1.3c-.1.2-.5.6-.6.9s-.2.5 0 1.1.4.6.6.7c.1 0 .2.5.1.5s-.8.6-.9 1.1-.2.7 0 1.2 1 .4 1.1.3c.2 0 0-.4 0-.8 0-.5.2-.2.3 0s.1.6.4 1c.3.3.5 0 .6-.2s-.2-1.2-.2-1.5.2-.4.5-.4 0 .6.4 1.2c.5.6.6.5 1.1.3.6-.3-.1-1.4-.5-1.8s-.7-.4-.7-.5v-.7c0-.2-.1-.5 0-.6.2-.2.8-.2.8-.8 0-.5-.2-.6-.6-.9s-1.4.2-1.4 0 .8-.5 1.3-.6c.5-.2.8-.1 1.1-.1s.2-.2.4-.4c.1-.2 0-.5-.2-.8-.3-.3-1.4 0-1.5 0s-.1-.3-.4-.6c-.2-.3-.5-.8-.6-1-.2-.2-.2 0-.5 0s-.6.2-.4.7.2.5.2.9.3.4-.3.7c-.6.2-2.3 1.3-2.5 1.5s-.9.2-1 .2-.5 0-.3.6c.3.9.4.7.5.7Zm3.8-.1s-.4-.3-.1-.5.5-.4.8-.2.4.3.3.5c0 .2-.1.3-.4.4-.3 0-.5-.1-.5-.1Zm12.2-2.4c0 .1-.1.4-.3.6s-.7.7-1.1.9c-.4.3-1.5.8-1.7.9s-.4 0-.2.6.4.4 1.1.4 1.2-.3 1.3-.3.2.3.2.5 0 .3-.3.5c-.2.2-.2.6-.2.7 0 .2 0 .4.2.5.2.2.2 0 .4 0s.3-.2.3-.4.2 0 .4 0c.1 0 0 0 0 .3 0 .2 0 .2.2.3.2 0 .2 0 .5-.2.2-.3 0-.9 0-.9.1 0 .4 0 .6-.3.2-.2.4-.2.6-.4s.8-.7 1-.6 0 1.1 0 2v1.8c0 .4-.2.7-.2.9s0 .5.2.6.3 0 .5-.3c.2-.2.2-.6.3-1.3s0-2.9 0-3.3 0-.5.2-.6c.1-.1.1-.4.3-.4s.5 0 .5-.2 0-.5-.1-.6-.8-.2-.8-.3V15c0-.3 0-.2.2-.5.1-.3 0-.5 0-.9s0-.4-.2-.6-.4-.4-.8-.5c-.3 0-.4.2-.4.6s0 .2.2.3v.6c0 .2 0 .2-.3.2-.2 0-.2-.2-.5-.3s-.7.2-.8.2c-.2 0 0-.1-.1-.5 0-.4-.5-.6-.8-.6s-1 .6-1.5 1-1.4 1.4-1.6 1.7c-.2.2-.4.4-.4.6s0 .2.2.2c.3 0 .6-.4 1.3-1 .7-.5 1.2-.7 1.2-.5Zm2.3 2.3s.4-.6.6-.7.4-.2.4 0v.4c0 .1-.9.4-.9.4Zm-1.1-2.5s.2-.2.4 0c.2.1.3.3.3.5s-.1.3 0 .5c0 .2-.1.4 0 .5.2.1.2 0 .2.4s-.4.6-.4.4.1-.4 0-.6c-.2-.2-.2 0-.4-.2-.2-.3 0-.3 0-.4.1 0 .2-.1.1-.4s-.1-.2-.2-.3zm1.7 1.2s0-.1-.3-.4c-.4-.2-.3-.2 0-.3.2 0 .2-.2.4-.2s.4 0 .4.1v.8h-.4Zm-32.9.7s.4-.2.8-.1c.4 0 .4-.1.4-.4s.2-.8-.2-1.3c-.4-.4.1-.7.1-.7s.2-.2.6 0 .9.7 1.1 1c.2.4 0 2 0 2.3 0 .2.2.4.5.2s1.7-1.2 2.1-1.3c.4 0 .2-.8.2-1.1 0-.4-.2-.6-.2-.9s.3-1.1.7-.7.9 1 .8 1.4-.4.4-.2.8.7.1.6.7c0 .5 0 .2-.6 1-.6.7-.5.6-.5.8s-.1.8.1.8 1.2 0 1.4.4c.2.5.2.6 0 .8-.3.2-1 .4-2.5.8-1.1.3-1.4.5-1.4.3 0-.1.2-.5.6-.8s.8-.3.9-.8c0-.4.2-1.3 0-1.5s-.4-.8-.9-.7c-.4.1-.7.4-1 .8s-2 2.5-2.3 2.6c-.2 0-.8 0-.8-.5 0-.6-.1-.7.2-1.3s.5-.4.5-.7-.1-.5-.4-.7c-.2-.1-.8-.4-.8-.7v-.5Zm69.8 9.8v-1.9h.3v.3c.1-.2.4-.3.6-.3h.3c.2 0 .3.2.3.4v1.5h-.3v-1.5s0-.1-.1-.2h-.2c-.1 0-.3 0-.4.1 0 0-.2.3-.2.5v1h-.3Zm-.8 0h.3v-1.9h-.3zm0-2.3h.3v-.4h-.3zm-1.3 3v-.3h.3v-2.3h.3V27c0 .1-.2.2-.4.2h-.3Zm.4-3h.3v-.4h-.3zm-.8 2.3h.3v-1.9h-.3zm0-2.3h.3v-.4h-.3zm-1.8 1.1h1.1c0-.2 0-.3-.1-.4 0-.1-.2-.2-.4-.2-.1 0-.3 0-.4.2-.1.1-.2.2-.2.4m1.1.6h.3c0 .2-.1.4-.3.5s-.4.2-.5.2c-.3 0-.5 0-.7-.3-.2-.2-.2-.4-.2-.7s0-.6.2-.8q.3-.3.6-.3c.3 0 .5 0 .6.3s.2.4.2.7H106c0 .2 0 .4.2.5.1.1.2.2.4.2h.3s.2-.2.2-.3Zm-3.4.3h1.1s.1 0 .1-.1v-.5l-.2-.2h-1v.9Zm0-1.2h.9s.2 0 .2-.1v-.4s-.1-.1-.2-.1h-.9v.8Zm-.4 1.5v-2.6h1.5c.1 0 .2.1.3.2 0 .1.1.2.1.3v.3c0 .1-.2.2-.3.2.2 0 .3.1.4.2 0 .1.1.2.1.4v.3s-.1.2-.2.2c0 0-.2.1-.3.1h-1.4Zm-2.9.7v-.3h.4v-.2l-.7-2h.3l.4 1.1c0 .1 0 .3.1.4 0-.2 0-.3.1-.4l.4-1.1h.3l-.7 1.9c0 .1-.1.3-.2.4 0 0-.1.2-.2.2h-.5Zm-1.8-1.7c0 .3 0 .4.2.6 0 .1.2.2.4.2.1 0 .3 0 .4-.2.1-.1.2-.3.2-.5s0-.4-.2-.5c0-.1-.2-.2-.4-.2-.1 0-.3 0-.4.2 0 .1-.2.3-.2.5Zm-.3 1.1h.3c0 .1 0 .2.1.3h.6s.1-.2.2-.3v-.4c-.1.2-.3.3-.5.2-.3 0-.5 0-.6-.3-.1-.2-.2-.4-.2-.7v-.5c0-.1.2-.3.3-.4.1 0 .3-.1.4-.1.2 0 .4 0 .6.3v-.2h.3v2.3c0 .1-.2.2-.3.3-.2 0-.3.1-.5.1s-.4 0-.6-.2c-.1-.1-.2-.3-.2-.5Zm-1.8-1.1c0 .2 0 .4.2.6 0 .1.2.2.4.2s.3 0 .4-.2c.1-.1.2-.3.2-.6s0-.4-.2-.5c0-.1-.2-.2-.4-.2s-.3 0-.4.2c-.1.1-.2.3-.2.6Zm-.3 0c0-.4 0-.6.3-.8.2-.1.4-.2.6-.2.3 0 .5 0 .6.3.2.2.2.4.2.7s0 .4-.1.6c0 .1-.2.3-.3.3s-.3.1-.5.1-.5 0-.7-.3c-.2-.2-.2-.4-.2-.7Zm-.7 1h.3v-2.6h-.3zm-1.8-1c0 .2 0 .4.2.6 0 .1.2.2.4.2s.3 0 .4-.2c.1-.1.2-.3.2-.6s0-.4-.2-.5c0-.1-.2-.2-.4-.2s-.3 0-.4.2c-.1.1-.2.3-.2.6Zm-.4 0c0-.4 0-.6.3-.8.2-.1.4-.2.6-.2.3 0 .5 0 .6.3.2.2.2.4.2.7s0 .4-.1.6c0 .1-.2.3-.3.3s-.3.1-.5.1-.5 0-.7-.3c-.2-.2-.2-.4-.2-.7Zm-1.9 1v-1.9h.3v.3c.1-.2.4-.3.6-.3h.3s.2 0 .2.2c0 0 0 .2.1.2v1.5h-.3v-1.5s0-.1-.1-.2h-.2c-.1 0-.3 0-.4.1 0 0-.2.3-.2.5v1h-.3Zm-2 0v-2.6h.3v.9c.1-.2.4-.3.6-.3h.4c.1 0 .2.1.2.2v1.6h-.3V25c0-.2 0-.3-.1-.4 0 0-.2-.1-.3-.1H90l-.2.2v1.4h-.3Zm-.6-.7h.3q0 .3-.3.6c-.1.1-.3.2-.5.2s-.5 0-.6-.3c-.2-.2-.2-.4-.2-.7s0-.4.1-.5c0-.1.2-.3.3-.3s.3-.1.5-.1.4 0 .5.2c.1.1.2.3.3.4H89s0-.2-.2-.2h-.3c-.2 0-.3 0-.4.2-.1.1-.2.3-.2.6s0 .4.1.6c0 .1.2.2.4.2.1 0 .2 0 .3-.1l.2-.4Zm-3.1-.5c0-.2 0-.3.2-.4 0 0 .2-.2.4-.2s.3 0 .4.2c0 0 .1.2.1.4zm1.1.6c0 .1-.1.2-.2.3h-.3c-.2 0-.3 0-.4-.2-.1-.1-.2-.3-.2-.5h1.4c0-.4 0-.6-.2-.8q-.3-.3-.6-.3c-.2 0-.5 0-.6.3-.2.2-.2.4-.2.8s0 .6.2.7c.2.2.4.3.7.3.2 0 .4 0 .5-.2.1-.1.3-.3.3-.5H87Zm-2.5.6v-2.3h-.9v-.3h2.1v.3h-.9v2.3zm-3.5-1c0 .2 0 .4.2.6q.3.3.6 0c0-.1.2-.3.2-.5s0-.5-.2-.6q-.3-.3-.6 0c0 .1-.1.3-.1.6Zm1 1v-.2c-.1.2-.3.3-.5.3-.1 0-.3 0-.4-.1-.1 0-.2-.2-.3-.4 0-.2-.1-.3-.1-.5V25c.1-.3.4-.5.7-.5.2 0 .4 0 .5.3v-.9h.3v2.6h-.3Zm-3.3 0v-1.9h.3v.3c.1-.2.4-.3.6-.3h.3s.2 0 .2.2c0 0 0 .2.1.2v1.5h-.3v-1.5s0-.1-.1-.2h-.2c-.1 0-.3 0-.4.1 0 0-.2.3-.2.5v1h-.3Zm-.8-1c-.2 0-.3.1-.5.1H77c-.1 0-.2.1-.2.3v.2h.6s.2-.1.2-.2v-.4Zm0 .8c-.1.1-.2.2-.3.2h-.4c-.2 0-.4 0-.5-.2-.1 0-.2-.2-.2-.4s0-.3.2-.4c0 0 .2 0 .2-.1h.3c.3 0 .5 0 .6-.1v-.3s-.2-.1-.4-.1H77s-.1.1-.2.3h-.3c0-.2 0-.3.1-.4 0 0 .2-.2.3-.2h.8s.2 0 .2.1v1.7h-.3v-.2Zm-4-1h1.1c0-.2 0-.3-.1-.4 0-.1-.2-.2-.4-.2-.1 0-.3 0-.4.2-.1.1-.2.2-.2.4m1 .6h.3c0 .2-.1.4-.3.5s-.4.2-.5.2c-.3 0-.5 0-.7-.3-.2-.2-.2-.4-.2-.7s0-.6.2-.8q.3-.3.6-.3c.2 0 .5 0 .6.3.2.2.2.4.2.7h-1.4c0 .2 0 .4.2.5.1.1.2.2.4.2h.3s.2-.2.2-.3Zm-1.9-.1h.3q0 .3-.3.6c-.1.1-.3.2-.5.2s-.5 0-.6-.3c-.2-.2-.2-.4-.2-.7s0-.4.1-.5c0-.1.2-.3.3-.3s.3-.1.5-.1.4 0 .5.2c.1.1.2.3.3.4H73s0-.2-.2-.2h-.3c-.2 0-.3 0-.4.2-.1.1-.2.3-.2.6s0 .4.1.6c0 .1.2.2.4.2.1 0 .2 0 .3-.1l.2-.4Zm-3.3.7v-1.9h.3v.3c.1-.2.4-.3.6-.3h.3s.2 0 .2.2c0 0 0 .2.1.2v1.5h-.3v-1.5s0-.1-.1-.2h-.2c-.1 0-.3 0-.4.1 0 0-.2.3-.2.5v1h-.3Zm-1.8-1.2h1.1c0-.2 0-.3-.1-.4 0-.1-.2-.2-.4-.2-.1 0-.3 0-.4.2-.1.1-.2.2-.2.4m1.1.6h.3c0 .2-.1.4-.3.5s-.4.2-.5.2c-.3 0-.5 0-.7-.3-.2-.2-.2-.4-.2-.7s0-.6.2-.8q.3-.3.6-.3c.3 0 .5 0 .6.3.2.2.2.4.2.7h-1.4c0 .2 0 .4.2.5.1.1.2.2.4.2h.3s.2-.2.2-.3Zm-2.2.6h.3v-1.9h-.3zm0-2.3h.3v-.4h-.3zm-.6 1.6h.3q0 .3-.3.6c-.1.1-.3.2-.5.2s-.5 0-.6-.3c-.2-.2-.2-.4-.2-.7s0-.4.1-.5c0-.1.2-.3.3-.3s.3-.1.5-.1.4 0 .5.2c.1.1.2.3.3.4h-.3s0-.2-.2-.2h-.3c-.2 0-.3 0-.4.2-.1.1-.2.3-.2.6s0 .4.1.6c0 .1.2.2.4.2.1 0 .2 0 .3-.1l.2-.4Zm-3.7-.2h.3c0 .1 0 .2.1.3 0 0 .2.2.3.2h.8s.2 0 .2-.2v-.4l-.2-.2c-.2 0-.3 0-.5-.1-.2 0-.3 0-.5-.2-.1 0-.2-.1-.3-.2v-.3c0-.1 0-.3.1-.4 0-.1.2-.2.3-.3h1c.1 0 .3.2.3.3s.1.3.1.4h-.3c0-.1 0-.3-.2-.4-.1 0-.3-.1-.5-.1s-.4 0-.5.1c0 0-.1.2-.1.3 0 0 0 .2.1.2 0 0 .2.1.5.2.3 0 .5.1.6.2.1 0 .3.2.3.3s.1.2.1.4c0 .1 0 .3-.1.4 0 .1-.2.2-.3.3-.2 0-.3.1-.5.1s-.4 0-.6-.1c-.2 0-.3-.2-.4-.3 0-.1-.1-.3-.1-.5m-1.9.9v-1.7h-.3v-.3h.3v-.5s0-.2.2-.2h.6v.3h-.4v.4h.4v.3h-.4v1.7h-.3Zm-2-1c0 .2 0 .4.2.6 0 .1.2.2.4.2s.3 0 .4-.2c.1-.1.2-.3.2-.6s0-.4-.2-.5c0-.1-.2-.2-.4-.2s-.3 0-.4.2c-.1.1-.2.3-.2.6Zm-.3 0c0-.4 0-.6.3-.8.2-.1.4-.2.6-.2.3 0 .5 0 .6.3.2.2.2.4.2.7s0 .4-.1.6c0 .1-.2.3-.3.3s-.3.1-.5.1-.5 0-.7-.3c-.2-.2-.2-.4-.2-.7Zm-2.8 1.7v-.3h.4v-.2l-.7-2h.3l.4 1.1c0 .1 0 .3.1.4 0-.2 0-.3.1-.4l.4-1.1h.3l-.7 1.9c0 .2-.1.4-.2.4 0 0-.1.2-.2.2h-.5Zm-.3-1v.3h-.5s-.1 0-.1-.1v-1.5h-.2v-.3h.2V24l.3-.2v.7h.3v.3h-.3v1.3h.2Zm-1.5.3h.3v-1.9h-.3zm0-2.3h.3v-.4h-.3zm-2 1.7h.3s0 .2.2.2c0 0 .2.1.3.1h.3s.1-.1.1-.2v-.2s-.2 0-.3-.1c-.2 0-.3 0-.5-.2 0 0-.2-.1-.2-.2v-.3c0-.2 0-.3.2-.4h.9s.2 0 .3.2c0 0 0 .2.1.3H53s0-.1-.1-.2h-.6v.3h.4c.2 0 .4.1.5.2 0 0 .2 0 .2.2v.6s-.2.2-.3.2h-.4c-.2 0-.4 0-.6-.2-.1-.1-.2-.3-.2-.5Zm-1.1.6v-1.9h.3v.3c0-.1.1-.2.2-.3h.2c.1 0 .2 0 .3.1v.3H51s0 .1-.1.2v1.4h-.3Zm-1.8-1.2h1.1c0-.2 0-.3-.1-.4 0-.1-.2-.2-.4-.2-.1 0-.3 0-.4.2-.1.1-.2.2-.2.4m1.1.6h.3c0 .2-.1.4-.3.5s-.4.2-.5.2c-.3 0-.5 0-.7-.3-.2-.2-.2-.4-.2-.7s0-.6.2-.8q.3-.3.6-.3c.3 0 .5 0 .6.3s.2.4.2.7h-1.4c0 .2 0 .4.2.5.1.1.2.2.4.2h.3s.2-.2.2-.3Zm-2.6.6-.7-1.9h.3l.4 1.1c0 .1 0 .3.1.4 0 0 0-.2.1-.4l.4-1.2h.3l-.7 1.9h-.3Zm-1.4 0h.3v-1.9h-.3zm0-2.3h.3v-.4h-.3zm-2 2.3v-1.9h.3v.3c.1-.2.4-.3.6-.3h.3s.2 0 .2.2c0 0 0 .2.1.2v1.5H45v-1.5s0-.1-.1-.2h-.2c-.1 0-.3 0-.4.1 0 0-.2.3-.2.5v1h-.3Zm-.9-2.7h.3v2.1c0 .2-.2.3-.3.4-.2 0-.4.1-.6.1s-.5 0-.6-.1c-.2 0-.3-.2-.3-.4s-.1-.4-.1-.7v-1.5h.3v2c0 .1.1.2.2.3h.4c.3 0 .4 0 .5-.2.1-.1.2-.3.2-.7v-1.5Zm69.7 1.7c0 .3 0 .4.1.6 0 .1.2.2.4.2.1 0 .3 0 .4-.2.1-.1.2-.3.2-.5s0-.4-.2-.5c-.2-.2-.5-.2-.7 0 0 .1-.2.3-.2.5Zm-.2 1.1h.3c0 .1 0 .2.1.3h.6s.1-.2.2-.3v-.4c-.1.2-.3.3-.5.2-.3 0-.5 0-.6-.3-.1-.2-.2-.4-.2-.7v-.5c0-.1.2-.3.3-.4.1 0 .3-.1.4-.1.2 0 .4 0 .6.3v-.2h.3v2.3c0 .1-.2.2-.3.3-.2 0-.3.1-.5.1s-.4 0-.6-.2c-.1-.1-.2-.3-.2-.5ZM32.7 12c0-.1 0-.2.2-.2h.2v.1c-.1.1-.3 0-.4 0Zm.1.3c-.2 0-.4-.2-.6-.3h.4zm0-.6v-.2h-.3s.1 0 .1-.2c-.2 0-.5.1-.4.4 0 0 .1 0 .2-.1h.2l-.1.2v.2l-.6-.2h-.2l.1-.1c-.2 0-.3 0-.5.1 0 0-.1.2 0 .3s.2-.1.2-.1h.6-.3v.2h.5v.1c-.2 0-.4-.2-.5-.3 0 .5.3.2.5.5l-.3.2c-.1 0-.3-.2-.4-.2 0 .1.1.3.2.4q.3 0 .6-.3l.2.2s.1-.1.1-.2c0 0 0-.1-.1-.2h.2l.2.2s.1 0 .2-.1c0-.1 0-.3-.2-.4h.4c0-.4-.1-.3-.3-.4Zm-2.5-1.9c.2.2 0 .3 0 .5 0 .1.1.1 0 .3-.2 0-.4 0-.5.1.2.1.4.5.3.7 0 .2-.3.3-.4.2-.1-.3.3-.5 0-.8-.2 0-.2.3-.4.3-.1 0-.1-.2-.2-.2 0 0 .3-.3.3-.4 0 0-.2-.2-.2-.3h.5c.2 0 .3-.3.5-.4Zm-3.4.2s.3-.2.3-.3h.2c0 .2-.2.3-.1.4h.2v.3c-.3-.1-.3-.3-.6-.3Zm-.4.4v-.1.2Zm1 0s.1-.2.2-.3l-.2-.2c0-.2.2-.2.3-.3V9h-.1v.3c0 .3-.2.3-.5.3v.2H27h.1v-.2c0-.2.3-.4 0-.5v.6c-.3 0-.6 0-.8.1 0 0 .3.2.4.2h.2c0 .4-.4.3-.5.6 0 .1.2.1.2.1.1 0 .1.1.2.2v-.3c0-.1 0-.2.1-.3.2 0 .3.2.4.3 0 .3-.5 0-.6.2.3.2.3 0 .6 0 .2.2.2.4.6.4 0-.3-.4-.3-.5-.5Zm-3.3-.8s-.1 0-.2.1v-.4s0-.2-.1-.3c-.2.3-.5.3-.7.7.2-.1.3-.3.6-.4 0 .2-.3.4-.5.5 0 0-.1 0-.2.1v.1c.1 0 .4 0 .5-.2v.5l.1-.2v.2-.8Zm.7 0c0-.1-.1-.2-.2-.1 0-.3 0-.8-.3-.7 0 0 .2.6.2.8l-.3.2c0-.1.2-.2.2-.3 0 0-.2 0-.2-.1 0 0 0-.1.2-.2h-.3v.2c0 .1-.3.3-.2.5.1-.1.2-.3.4-.3 0 .3 0 .9.2 1.1V9.5h.2Zm-3.3 1.1.2-.2v.2h-.1Zm.3.1v-.1c0-.1.2-.2.2-.3-.2-.2-.4 0-.6.1 0-.2.4-.5.6-.5v-.1c-.2-.2-.2 0-.4 0-.1 0-.3-.2-.4-.3 0 .1.1.3 0 .5-.2.1-.3.3-.4.4 0 0-.2 0-.2.1.2.5.5-.4.8-.5 0 .2-.2.3-.1.5l.2.2c0 .2-.2.3-.1.5h.2V11v.1s.1.1.2.1c0-.2-.1-.4-.1-.5.2.1 0 .3.3.3l.1-.1c0-.2-.3-.3-.4-.3Zm-2.8.3c.3-.2.3 0 .5.2h.2c0 .2 0 .4.2.6.2-.2.3-.2.4-.2l-.3.5c-.1.2-.1.3-.2.5v-.5c-.1 0-.2-.2-.3-.3h-.2c-.1.3 0 .7 0 1.1h-.2c-.2-.2-.1-.4-.3-.5h-.3v-.1l.2-.2c-.1-.2-.3-.2-.4-.4.1 0 .4-.2.5 0l.2.2h.1v.3-.4l.2-.4c-.1-.2-.4-.3-.4-.5Z"/><path class="cls-1" d="M14 19.5c0-6.4 5.2-11.6 11.6-11.6s11.6 5.2 11.6 11.6S32 31.1 25.6 31.1 14 25.9 14 19.5M25.6 8.4c-6.1 0-11.1 5-11.1 11.1s5 11.1 11.1 11.1 11.1-5 11.1-11.1-5-11.1-11.1-11.1"/><path class="cls-1" d="M17 19.5c0-4.8 3.9-8.7 8.7-8.7s8.7 3.9 8.7 8.7-3.9 8.7-8.7 8.7-8.7-3.9-8.7-8.7m8.6-8.4c-4.6 0-8.4 3.8-8.4 8.4s3.8 8.4 8.4 8.4 8.4-3.8 8.4-8.4-3.8-8.4-8.4-8.4m-2.3 17.7v.2H23v-.2zm.7.9h-.2l.2-.9c-.1 0-.2.1-.3.1v-.2h.3s.1 0 .2-.2h.2l-.2 1.3Zm1.1-.7v-.2h-.2v.4h.2zm-.6.5h.3v-.3h-.2s-.2 0-.2-.1v-.3c0-.1 0-.2.1-.3 0 0 .2-.1.3 0 .1 0 .2 0 .3.2 0 .1.1.3 0 .5 0 .2 0 .4-.2.5 0 0-.2.1-.3.1h-.2s0-.2-.1-.2Zm1.1 0h.4v-.4h-.5v-.7h.6v.2h-.5v.2h.4s.1.2.1.3v.3c0 .1-.2.2-.3.2h-.3s-.1-.1-.1-.2Zm1.9-.1v.2l-.8.1v-.2s.1-.2.2-.3c0-.1.1-.2.2-.2v-.3h-.2v.2h-.2v-.3s.2-.1.3-.1h.3s.1.1.1.2v.4s0 .1-.1.2c0 0-.1.1-.1.2h.5Zm.4-.6v.2h-.2v-.2z"/><path class="cls-1" d="M21.6 19.1h.6c.1 0 .2.2.2.3h.4c.1-.1 0-.3 0-.4-.1-.1-.3-.2-.5-.2-.1 0-.2 0-.2-.2h.1c.3 0 .5 0 .7.2s.3.3.3.5-.3.3-.6.4v.2s.2 0 .3.2c.2.1.3.3.4.5 0-.1-.2-.2-.3-.3 0 0-.2-.1-.3-.2v.3s.1 0 .2.1.2.3.3.5.1.3.1.4c0-.2-.2-.4-.3-.6 0-.1-.2-.2-.2-.2v1.2-1.2s-.2 0-.2.1-.2.3-.2.4 0 .2-.2.3v-.3c0-.1.1-.3.3-.5.1-.1.2-.2.3-.2v-.3c-.1 0-.2 0-.3.1l-.2.2s0 .1-.2.2c.1-.2.2-.4.4-.5 0 0 .2-.1.4-.1v-.2h-.8v-.1h.8c0-.2 0-.2-.1-.3h-.5Zm3.2.4v-.1h-.3v.2h.3Zm-.1-.4h-.2v.2h.3v-.2Zm0 1.6.1-.1H24h.7Zm-.6-.7s-.1 0-.2.2h.9s0-.1-.1-.1h-.6Zm-.1-.5h.2v-.2h-.3v.1Zm.8.9H24h.9Zm-.8-1.2h.4V19h-.2s-.1 0-.1.1Zm0 .7h.8s.1 0 .2.2v.6c0 .1-.1.2-.3.2 0 .2 0 .5.2.7v.1c-.1-.3-.2-.5-.3-.8h-.1c0 .3-.1.6-.3.8v-.1c0-.1 0-.2.1-.3V21c-.1 0-.2 0-.3-.2 0-.1-.1-.3-.1-.6 0-.2 0-.2.2-.3Zm0-1h.8c.1 0 .2 0 .2.1v.1h.1c0-.1 0-.2-.2-.2h-.6c-.3 0-.5 0-.6.1v.2c0 .1.1.1.1.1v-.2s0-.1.2-.2m.4-.5v.2c.2 0 .4 0 .6.1.1 0 .2 0 .2.1v1.3c0 .3 0 .7.2 1.3v.1c-.2-.7-.2-1.4-.2-2.1v.2s-.1.1-.2 0h-.7s0-.1-.1-.2v2.2s0 .1-.1.1v-.1c0-.5.1-.9.1-1.2v-1.6c.2 0 .4-.1.6-.1 0 0 .1 0 .1-.2Zm2.1 1.2h.3c.1 0 .2 0 .2-.2h-.8s.1.1.2.1Zm-.3-.6h.8v-.2h-.8Zm0-.2h.8c0-.2 0-.2-.2-.2h-.5c-.1 0-.2.1-.2.2Zm.1-.4h.7s.1 0 .2.3v.7q0 .3-.3.3v.4h.2c.1 0 .2 0 .2-.2v-.8.7c0 .3-.2.4-.4.4h-.2c.2.1.4.3.5.5 0 .2.1.4.2.7v.1c0-.2 0-.5-.2-.7 0-.2-.1-.2-.3-.2v1.1-2h-.1v2-1.1c-.2 0-.4 0-.4.2s-.1.5-.2.7c0-.2 0-.5.2-.7 0-.3.3-.4.6-.4v-.1h-.1c-.2 0-.3 0-.4-.3 0-.2-.1-.4-.1-.7v-.2s.1.1.1.2v.5c0 .2.2.3.4.4h.2v-.4c-.2 0-.3 0-.3-.2 0-.3-.1-.5 0-.8q0-.3.3-.3Zm3.6 1.7c0-.1-.2-.3-.3-.4v.9c0 .1 0 .3.2.6v.3c-.1-.2-.2-.6-.3-1v-1.1l.2.2c.1.1.3.3.4.5Zm-1-1.6v.1h.5c.1 0 .2.1.2.2v.3h-.4v1.8c0 .1 0 .3-.1.5v-.2c0-.5.1-.9.2-1.3V19c.1 0 .3-.1.5 0 .1 0 .2 0 .2-.1s0-.2-.1-.2h-.5v-.3Zm-.5.6H28c0 .1 0 .3.2.4v-.4Zm-.6-.6h.8zm-.1.8c0 .3.2.4.4.5v-.2l-.2-.2V19h-.3.9-.1v.4s-.1.2-.2.2v.2c.1 0 .2-.2.2-.5 0 .2 0 .5-.3.6H28h.4-.4c0 .2.2.2.2.3s.2.3.2.5v.3-.2c0-.2 0-.4-.2-.5v1.1-1.1s0 .1-.1.2v.5-.5c0-.1 0-.2.2-.3 0 0 .1-.1.2-.1-.2-.1-.3-.1-.3-.1H28v-.1h.4v-.1c-.2 0-.3-.2-.4-.4v-.2Zm-9.8-5v.2c-.1 0-.6-.3-.6-.3h-.4v.1h.1l.5.3v.2c-.1 0-.6-.3-.6-.3s-.1 0-.2-.2v-.4s0-.1.1-.2h.2s.1 0 .2.1l.5.3Zm-1.4.4.9.4v.2h-.9l.6.3v.2l-1-.4v-.2h.9l-.6-.3v-.2Zm.4 1.6-1-.4v-.2l1 .4zm-1.1.1h1.1v.2h-.8l.7.5v.2l-.9-.7v-.2Zm-.2.7 1 .2-.2.8h-.2l.1-.6h-.2l-.1.5h-.2l.1-.5h-.3l-.1.5h-.2l.2-.8Zm.4 1.2v.4zh-.2Zm-.6-.2h1v.7l-.1.1h-.4v-.2.1l-.2.1h-.2v-.1h.2c0-.2.1-.2.2-.2v-.1h-.4v-.2Zm.3 1v.2h-.1v.4h.1v-.2s0-.2.1-.2c0-.1.2-.1.4 0l.1.1v.5s-.1.1-.2.1v-.2h.1v-.2.4l-.1.1h-.2c-.1 0-.2 0-.3-.2v-.5s.2-.1.3-.1Zm.7 1.2h-1v-.1h1zm-1 .5h.9v-.4h.2l.1.8h-.2v-.3h-.9c0 .1 0 0 0 0Z"/><path class="cls-1" d="M15.6 21.7h.4c0-.1.5-.6.5-.6v.2l-.3.3h.5v.4l-.7-.2h-.4zm1 1.4c-.1 0-.2.1-.2.2v.2s0 .1.2.2h.3c.1 0 .2-.1.2-.2v-.2s0-.1-.2-.2zm-.1-.2h.6s0 .1.1.2v.4c0 .1-.2.2-.3.3h-.4q-.15 0-.3-.3v-.4c0-.1.2-.2.3-.3Zm0 1.4.9-.5.4.6h-.2l-.2-.3h-.2c0 .1.2.5.2.5h-.2l-.2-.3-.4.2zm1.1 1.1h.1v.4h.2v-.4c0-.1.1-.3.2-.3h.2s.1 0 .2.1c0 .1.1.2.1.3 0 0 0 .2-.1.2v-.2c-.1 0 0 0 0-.1v-.1h-.1v.6s0 .1-.1.1H18s-.1 0-.2-.2c0 0-.1-.2-.1-.3s0-.2.1-.3Zm1.2 1.3v.2h-.2s-.2 0-.3-.1c0 0-.1-.2-.1-.3s0-.3.2-.4c.1-.1.2-.2.4-.2.1 0 .3 0 .3.1 0 0 .1.2.1.3v.2H19v-.4h-.2s-.2 0-.2.1l-.1.2v.2h.3Zm.9-.1-.7.8h-.2c0-.1.7-.9.7-.9h.2Zm-.6.9.6-.8.6.5h-.1c0 .1-.4-.2-.4-.2v.2c-.1 0 .3.3.3.3H20c0 .1-.4-.2-.4-.2l-.2.2.5.3h-.1c0 .1-.6-.3-.6-.3Zm.9.6.5-.9h.2v.9l.4-.6h.2l-.5 1h-.2v-.9l-.3.6h-.2Zm1.7.5h.2c0 .2-.1.3-.2.3h-.3c-.1 0-.2-.1-.2-.3v-.4c0-.2.2-.3.3-.3h.4c.1 0 .2.1.2.2v.2h-.2v-.2l-.1-.1h-.2l-.2.2v.3s0 .1.1.2h.2s.1 0 .1-.1Zm.2.5.3-1 .7.2v.2l-.6-.2v.2l.4.2v.2l-.5-.2v.3l.5.2v.2zm7-.3-.3-.3v.4h.3Zm.5.3h-.2L29 29h-.4v.4h-.2v-1h.2l.7.8Zm.1-.1-.4-.9h.2l.7.4-.3-.6h.2l.4.9h-.2l-.7-.4.3.6zm.6-1.2.3.6h.1s0-.1.1-.1V28s0-.1-.1-.2zm-.2-.1.3-.2h.6s.1.1.1.2v.5l-.1.1-.3.2-.5-.9Zm2.1-.1-.5-.7-.2.2h-.1c0-.1.6-.7.6-.7h.1c0 .1-.2.3-.2.3l.5.7H32v.1Zm.5-.4-.7-.8.6-.5h.1c0 .1-.4.5-.4.5l.2.2.4-.4h.1c0 .1-.4.5-.4.5l.2.2.4-.4h.1c0 .1-.6.7-.6.7m.8-1.4h.2v.2s0 .2-.1.3c0 0-.2.2-.3.2s-.3 0-.4-.2c-.1-.1-.2-.2-.2-.4 0-.1 0-.3.1-.4 0 0 .2-.1.3-.2h.2v.2h-.3v.2s0 .1.2.2c0 0 .2.1.3.1h.2v-.3Zm.5 0-.8-.6V25c.1 0 .5.2.5.2l.2-.3-.3-.2v-.2c.1 0 1 .6 1 .6v.2c-.1 0-.5-.3-.5-.3l-.2.3.4.3v.2H34Zm.6-.9-.9-.5v-.2h.9l-.6-.3v-.2l1 .5v.2h-.9l.6.3v.2Zm.1-1.2h.3s.1 0 .2-.2v-.2l-.2-.2h-.3s-.1 0-.2.2v.2zm-.1.2s-.2 0-.2-.2v-.5q0-.15.3-.3h.4c.2 0 .3.2.3.3v.4q0 .15-.3.3h-.4Zm.9-.9-1-.3v-.2l.9.3.2-.5h.2l-.2.7Zm-.2-1.1h.3s.1 0 .1-.2v-.2s-.1-.1-.2-.1H35s-.1.1-.1.2v.2s.1.1.2.1m0 .2s-.2 0-.2-.1l-.1-.1v-.4c0-.1.1-.3.2-.3h.4c.2 0 .3.1.4.2v.4c0 .1-.1.3-.2.3h-.4Zm.4-1.5h-.2v-.5h.4v.8l-.2.2h-.6l-.2-.2v-.3c0-.1 0-.2.1-.3 0 0 .1-.1.2-.1v.2h-.1v.3s.1 0 .2.1h.3s.1-.1.1-.2v-.2h-.1v.2Zm.4-.9h-.4l-.6.4v-.2l.4-.2-.4-.2v-.2l.6.4zv.2Zm-.5-1.4h.3V18v.4Zm-.4 0h.2v-.4.2Zm-.1.3V18s0-.2.1-.2h.1s.2 0 .2.1v-.2h.4v.6l-1 .1Zm.8-1.2-1 .2-.2-.7h.2l.1.5h.2l-.1-.6h.2l.1.5h.3l-.1-.6h.2l.2.7Zm-1.3-.8 1-.3v.2l-.9.3v-.2Zm-.1-.4V16l.5-.2h.4s.1.1.1.2v.2l-.2.2v-.3h-.2l-.6.2Zm-.2-.5 1-.4v.2l-.9.4v-.2Zm.9-.5-.9.5v-.2l.3-.7-.6.3v-.2l.8-.5v.2l-.3.7.6-.3v.2Zm-1.1-1.1h-.1l-.2-.3.3-.2c.2 0 .3.1.4.3v.6l-.2.2h-.6l-.2-.2v-.3s0-.2.1-.2v.2c.1 0 0 0 0 .1v.2s.1.1.2.1h.3c.1 0 .2-.1.2-.2v-.2h-.2l.1.3Zm-12.6 1.8-.2-1.2c0-.1-.1-.2-.3-.2s-.3 0-.3.2l.2 1.2zm1.9 9.7v-2.9h-1v2.8c0 .1 0 .1.2.1zm5.8-.1v-2.8h-1v2.9h.8c.1 0 .2 0 .2-.1m1-3.6.2-3.7h-9.3l.2 3.7c0 .2.2.3.5.3h7.9c.3 0 .5-.1.5-.3m.4-5v-.3h-9.5v.3h.7v.8h8.2v-.8h.7Zm.1-1 .2-1.2c0-.2-.1-.2-.3-.2s-.2 0-.3.2l-.2 1.2zm1.1-1.5-.4 2.9h-.9v.4h.9l-.4 4.7c0 .3-.2.5-.5.5h-.4v.3h.7v1.1c0 .2-.3.4-.7.4V26c0 .2-.2.3-.4.3h-2.1v-3.1c0-.2-.2-.4-.5-.4h-2.5c-.3 0-.5.2-.5.4v3.1h-2.1c-.2 0-.4-.2-.4-.3v-1.3c-.4 0-.7-.2-.7-.4v-1.1h.7v-.3H21c-.3 0-.5-.2-.5-.5l-.4-4.7h.9v-.4h-.9l-.4-2.9c0-.3.7-.5 1.2-.5s.7 0 1 .5l.3 1.5h7l.3-1.5c.3-.4.4-.5 1-.5s1.1.2 1.2.5Z"/><path class="cls-1" d="M21.7 17.3h7.7v-.4h-7.7z"/></g></svg>