<svg xmlns="http://www.w3.org/2000/svg" viewBox="0 0 128 48.9"><defs><style>.cls-3{fill:#2c2e81}.cls-4{fill:#f1d693}.cls-3{fill-rule:evenodd}.cls-6{fill:#c4892d}.cls-7{fill:#fff}</style></defs><g id="_图层_1" data-name="图层_1"><path d="M40.4 24.7c0 7.3-5.9 13.2-13.2 13.2S14 32 14 24.7s5.9-13.2 13.2-13.2 13.2 5.9 13.2 13.2" style="fill:#d7ac28"/><path class="cls-7" d="M27.2 13.8 16 30.8c.6 1.1 1.3 2.1 2.2 2.9 1.6 1.6 3.6 2.7 5.7 3.3h6.6q3.3-.9 5.7-3.3c.9-.9 1.6-1.8 2.2-2.9zm.4-1.3 1.2.3-1.2.3-.4.6-.4-.6-1.2-.3 1.2-.3.4-.6z"/><path class="cls-4" d="M27.2 11.9c3.4 0 6.6 1.3 9 3.7s3.7 5.6 3.7 9-1.3 6.6-3.7 9-5.6 3.7-9 3.7-6.6-1.3-9-3.7c-1.2-1.2-2.1-2.5-2.7-4.1-.7-1.6-1-3.3-1-5 0-3.4 1.3-6.6 3.7-9s5.6-3.7 9-3.7Zm0-.4c-7.3 0-13.2 5.9-13.2 13.2s5.9 13.2 13.2 13.2S40.4 32 40.4 24.7s-5.9-13.2-13.2-13.2"/><path d="M35.9 24.7c0 4.8-3.9 8.7-8.7 8.7s-8.7-3.9-8.7-8.7 3.9-8.7 8.7-8.7 8.7 3.9 8.7 8.7" style="fill:#2c2e81"/><path class="cls-4" d="M27.2 16.2c2.3 0 4.4.9 6 2.5s2.5 3.7 2.5 6c0 2.2-.9 4.4-2.5 6s-3.7 2.5-6 2.5c-2.2 0-4.4-.9-6-2.5s-2.5-3.7-2.5-6 .9-4.4 2.5-6 3.7-2.5 6-2.5m0-.2c-4.8 0-8.7 3.9-8.7 8.7s3.9 8.7 8.7 8.7 8.7-3.9 8.7-8.7S32 16 27.2 16"/><path class="cls-6" d="M31.1 17.6c.1.1 0 .4 0 .5 0 .2-.2.3-.4.4-.2 0-.5.1-.7.2-.2 0-.2.3-.2.5l1.9-.4c0 .1 0 .3-.1.3h-.3c-.3 0-.6.2-1 .2-.3 0-.7 0-1 .1H29v.2c.9.1 1.8-.1 2.6.4h-2.4c0 .3.1.5.3.8 0 .1.2.3.3.3h.2c.5-.3 1-.6 1.6-.4-.4.3-.9.6-1.3.9l2.1.9c-.8.3-1.5-.2-2.2-.5-.2.7 0 1.4.3 2 .4.6 1 .8 1.6 1 0 .1-.2.2-.3.3H31c-.4-.1-.8-.5-1-.8l-.3-.6c0-.2-.2-.4-.2-.6 0-.5 0-.9.2-1.4 0-.2-.2-.3-.3-.5-.1-.1-.2-.3-.4-.4-.1-.1-.3 0-.5 0s-.4 0-.4.2v.4c.2 0 .4 0 .5.1.4.2.3.7 0 .9-.2 0-.5 0-.6.3v.5h.6c.3 0 .5 0 .8.1-.2.2-.4.3-.7.3h-1c-.5 0-1.2 0-1.6-.4-.3-.4-.2-.9-.2-1.3 0-.5.1-1.1.6-1.3.3-.2.6-.1 1-.1h1.2v-.2h-2.5c-.2 0-.5 0-.5.1v.7c0 .5 0 1-.1 1.5 0 .5-.2 1-.4 1.5-.2.4-.3.9-.6 1.2-.1.2-.4.3-.6 0-.1-.1 0-.3 0-.5q.45-.75.6-1.5v-.3s0-.1-.2-.1-.5 0-.6.3c-.2.2-.3.4-.4.6-.2.2-.4.2-.7 0 .3-.5.7-.9.8-1.5 0-.2.1-.4.4-.4h.2v.6h.5v-1.4h-.5c-.2 0-.2 0-.3.2-.2.4-.4.6-.9.5.2-.4.4-.9.4-1.3v-.5c0-.2.3-.2.4 0 .3.2 0 .7.3.8h.4c.2 0 .2-.3.1-.4 0-.3-.5-.7-.1-1 .1-.1.3-.1.4 0s.2.3.3.5c0 .1.3 0 .4 0h2.4c.2 0 .2-.3.1-.5 0-.2 0-.4.1-.5.3-.2.6 0 .6.3h.4v-.3c0-.1-.1-.1-.2-.2-.3 0-.5 0-.8-.1-.3 0-.4-.3-.5-.6 0-.2 0-.3.2-.4h.2v.3c.1.3.3.3.6.4h.2c.1 0 .1-.2.1-.3 0-.2-.2-.5 0-.8 0-.1.3-.1.4 0l.1.1c.1.3 0 .6 0 1 .3 0 .7 0 .8-.3 0-.1 0-.3.1-.4 0-.2.3 0 .4 0Zm-3 4.6c-.6-.4-1.2-.2-1.9-.3v.5c.6 0 1.3 0 1.9-.2M27 23.4v-.7h-.8v.3s0 .2.2.2c.2.1.4.1.6.1Zm0-2.3c-.4 0-.7.1-.7.5h.7c.1 0 0-.3 0-.5m-1.4-3.9c-.5 0-.4.6-.4.9 0 .2 0 .4-.2.4s-.5 0-.7-.2c0-.1 0-.4-.3-.5-.1 0-.3 0-.3.1-.2.3 0 .6.3.8.3.1.7 0 1.1.2.2 0 .1.3.2.4 0 .2.2.3.4.2.3-.1 0-.5.3-.7s.7-.2 1-.3c.2-.1.4-.3.3-.5 0-.2-.2-.4-.5-.3-.2 0-.1.4-.2.6-.1.3-.5.2-.7.2 0-.3.2-1.3-.3-1.3"/><path class="cls-6" d="M31.6 30.2c0 .2-.1.4-.3.4s-.4-.1-.4-.3c0-.6 0-1.1-.1-1.6-.3-.9-.9-1.9-1.9-2.2v2.8c0 .9.1 1.8.2 2.7 0 .3-.1.5-.5.4-.3 0-.2-.6-.2-.8 0-.9-.1-1.8-.1-2.7v-2.7h-1.4v1.2c0 1 0 1.9-.2 2.9 0 .4-.2.9-.3 1.3 0 .3-.2.7-.6.6-.2 0-.2-.2-.1-.4.2-.7.3-1.5.4-2.3.1-1 .1-2 .1-3-.7.3-1.2.9-1.6 1.6-.1.3-.2.7-.3 1v1.1c-.1.3-.6.2-.7 0v-1.1c0-.7.3-1.3.7-1.9s.9-1 1.5-1.3c.3-.2.7-.3 1-.4.1 0 .4 0 .5-.1v-.3c0-.2-.1-.5 0-.6.2-.1.6 0 .6.1v.7c0 .2.1.1.3.2.2 0 .4 0 .6.1.3 0 .5.2.7.4s.5.3.7.5c.4.3.7.7.9 1.1.5.8.6 1.7.5 2.6"/><path d="m32.8 32.1.8-.7 2 2.1-.1.1s-.2.1-.3.2c-.3.2-.6.1-.8 0 0 0-.2-.1-.3-.2l-1.3-1.3Zm3.2 1q.3-.45 0-.9c0-.1-.2-.2-.2-.3-.4-.4-.8-.9-1.3-1.3s-.8.7-.8.7l2 2.1s.2-.2.2-.3Zm-4.9.9-.2.3v-.2l.5-.7s.1-.2.2-.3.9 2 .9 2l-.7.3-.6-1.4Zm-2.4 2.2c0-.1.1-.2 0-.4v-.6c0-.1 0-.2-.2-.2h-.1v-.2h.6c.2 0 .4.1.5.3.2.3 0 .8-.3.9-.1 0-.3.1-.4.1Zm.6-1.6V34l-1.3.2c0 .3 0 .6.1.9h.2v-.3c.4 0 .7-.1 1.1-.2Zm-.6 1.3c0-.2-.2-.3-.4-.3s-.3.2-.3.4.2.3.4.3.3-.2.3-.4m-2.8-1.8h.3c.2 0 .3.3.3.4v.7c0 .2-.1.4-.2.5-.1.2-.4.3-.6.4h-.3c.1 0 .1-.2.2-.3 0-.6.2-1.2.2-1.8Zm-.1 0h-.4c-.2 0-.3.1-.4.2 0 .1-.1.3-.1.4 0 .2 0 .3.2.4.1.1.3.2.5.2 0-.5.1-.9.2-1.4Zm-.6 2c.2 0 .4 0 .4-.3 0-.2-.1-.4-.3-.4s-.4 0-.4.3c0 .2.1.4.3.4m-2.3-2.3h-.3v-.1h.8l.4-.1c-.3.7-.6 1.3-.9 2l-.7-.3.6-1.4Zm-3.8 0-.8-.7 2-2.1.8.7c-.7.7-1.3 1.4-2 2.1m-.1-2.4 1.4-.5-.5-.5-.9.9Zm1.8 1.6.8-.8-.4-.4-.4 1.3Z" style="fill:#bba720"/><path class="cls-7" d="M35.4 18.7c-.2-.6-.4-1.1-.9-1.6.8.2.7.9 1 1.5l1-1-.3-.4-.7.6c0-.4-.2-.7-.4-1l.6-.2v-.2h.2l1 1.2c-.6.5-1.3 1-1.9 1.6l-.4-.9zm-.1-1.8c.2.2.3.5.2.9.2-.3.3-.5.4-.7-.2-.2-.4-.2-.6-.2m0 1.8-.4-.2v.4c.2 0 .3-.2.4-.3Zm-3.1-3.3-.2-.9.6-.2c-.7 0-.8-.5-1.3-.4v.1c-.2.1-.3.2-.5.4.4.1.6.4.8.8 0-.4-.2-.7-.9-.9h.6c.4.3.5.8.6 1.3h-.2l-.2.8-.4-.6h.1l.2-.4c-.4-.4-.8-.3-1.3-.1v.4h.3v-.4h.3c.1 0 .3.2.3.3 0 .3-.3 0-.4.2l.8.8c.1-.3.3-.5.5-.8l.6-1.1q-.15-.15-.3 0c0 .3-.1.5-.2.8Zm5.4 3.1c.7.6.5 1.2.4 1.7-.5.2-.4-.3-.7-.4H37c.2.3.4.5.3.8-.1.2-.4.3-.6.2-.3-.1-.1-.4-.1-.6-.3-.2-.5-.4-.5-.8 0 0 .2-.2.3-.2.3 0 .4.3.5.7.1-.2.2-.2.3-.3l-.2-.5c.6.2.5.8.9 1.1 0-.5 0-.9-.3-1.6Zm-1.2.7c-.2.3 0 .4 0 .6 0 0 .2.1.3.2.1-.2 0-.4 0-.5 0 0-.2-.1-.3-.2Zm.5.8c-.2.2-.1.3 0 .5 0 0 .2.1.2 0 0 0 .1-.1.1-.2q0-.3-.3-.3m1.7 4.8.2.2v.2c-.5 0-.9-.1-1.4-.2.2-.2.4-.5.6-.7-.4-.2-.3-.5-.2-.8 0 0 .2-.2.3-.2.4.1.3.4.3.8.3 0 .3-.3.4-.5 0 0 .1 0 .2.1v.9c-.3 0-.3-.1-.3-.3h-.3l-.7.7h.8l.1-.1Zm-.6-1.4c-.2.2-.2.4-.1.6h.2c.2-.2.2-.5 0-.6Zm-.1-1.4c-.4-.1-.6-.5-.5-.8.1-.7.4-.3.7 0 0 .1.1.3.2.5.3-.3 0-.6 0-1 .5.4.4 1 .7 1.4h-.3c0-.1 0-.2-.2-.5-.4.8-1.1 1.1-1.8 1.3.5-.3 1-.4 1.3-.9Zm0 0c0-.5 0-.8-.4-1.1v.7c0 .1.2.2.4.4m-3.1-6.3-.7 1.2c-.3-.6-.7-.9-1.3-1.1l.6-.5-.2-.2c.7 0 1.1.5 1.6.7Zm-.4.2c-.3-.3-.6-.5-1.1-.4-.1 0-.2.1-.4.2.6 0 1 .4 1.1 1l.3-.9Zm4.3 9.9v-.3h-2.3l2.4.4ZM32.3 14c.4.2.8.4 1.3.2-.5.2-.8-.5-1.3-.2m7.1 11.6c-.2-.4.2-.8-.3-1.2.2.4 0 .8.3 1.2m-.4-1.2c.4-.1.6-.4.4-.8zm-6.9-10.7c-.1-.2-.3-.3-.6-.2.3.2.5.4.7.7 0-.1 0-.3-.1-.4Zm7 9.1c0-.2-.1-.3-.2-.5l-.2.4h.4Zm-4-6.9c-.2.1 0 .2 0 .3l.3-.2c-.1 0-.2-.1-.3-.2Zm2.2 2.4c-.1 0-.2-.3-.4-.2v.3h.4Zm-17.7 1.4c-.7 0-1 .3-1.2 1-.2-.5.3-.7.1-1.1l-.4.7c0-.5.4-.7.2-1.1l-.9-.5v.4l.8.1-.5.4-.5-.3c-.4.4-.3.8 0 1.2.1.2.3 0 .5 0v-.2h-.4c0-.3 0-.6.3-.7.3 0 .1.3.2.5l.6-.9c0 .5-.4.8-.3 1.1l.7.4c.2-.6.5-.9 1-1.1Zm1.8-3.6c-.4-.2-.8 0-1.2.3V16c.6-.2 1.2-.2 1.7-.1-.3-.3-.6-.7-.8-1 0 0-.1 0-.2.1v.2l.7.5h-1v-.6c-.3.4-.8.5-.9 1h.2l.2.5c.3-.3.7-.4 1.1-.4Zm-4.5 9.8-.7-.3v.3c-.4-.6-.2-1.2-.3-1.7h1.3c-.3.6-.5 1.1-.4 1.7Zm-.8-1.4c0 .5 0 1.1.6 1.3-.3-.6 0-1 .3-1.5-.4 0-.6 0-.9.1Zm2.3-2.5c-1.3-.2-2 .3-1.8 1.4-.6-.3-.3-.8-.4-1.2H16c.1.4-.1.9.2 1.4v-.2l.6.2c-.2-1.3.7-1.4 1.6-1.6m.5-3.7c-.4-.5 0-.8.2-1.2v-.3c-.3.5-.7.7-.8 1.2h.2c.1 0 .3.3.4.5.3-.6.7-1 1.3-1.2-.7 0-1.1.3-1.4 1ZM17 19.5c-.1-.5.3-1 0-1.4.2.5-.5.8-.1 1.3-.3.1-.6.3-.5.8.2-.3.3-.6.6-.7M15.7 25c-.3.3-.4.6-.1 1 0-.4 0-.7.3-.9-.4-.3 0-.8-.6-1.2.3.4 0 .9.4 1.1m.7-3.2.2-.2-.3-.2v.4h.2Zm5.4-7.4-.4.3h.4zm-4.9 11.5"/><path class="cls-3" d="M111.1 30.3c0 .5-.2.9-.6 1.3 0 .3-.2.5-.3.8.2 0 .5.2.7.2.5.1 1 .2 1.4.4.8.4.9 1.1.6 1.9 0 .1-.2.3-.3.3s-.3 0-.4-.1c-.1-.5-.6-.5-.9-.8 0 0-.3 0-.4.2 0 .1-.2.3-.2.5 0 .7-.4 1.1-.8 1.6-.3.3-.6.5-1 .6-.4 0-.7 0-1-.3l-.9-.9c-.2-.2-.5-.2-.7-.3s-.5-.2-.7-.4c-.1 0-.2-.2-.2-.3v-1.3c-.2.1-.4.2-.5.3-.3.2-.5.1-.8 0h-.1c-.2-.5-.6-.9-.5-1.4 0-.4.3-.7.5-1.1.2-.5.5-1 .7-1.5.2-.6.4-.8 1-.8.8 0 1.5-.3 2.3-.4h.2c0-.4.3-.6.7-.7V28c-.5 0-.8-.3-.9-.8 0-.3-.2-.6-.3-.9-.2 0-.4.4-.5.7 0 .4 0 .8-.1 1.1 0 .2-.2.4-.4.6-.3.3-.7.3-1 0 0 0-.1-.2-.2-.3-.1-.5-.5-1-.9-1.3-.2-.1-.3-.3-.3-.4-.2-.7.2-1.1.9-.9.3 0 .5.2.8.3s1 0 1.2-.3c.3-.3.6-.6 1-.7.3 0 .5-.3.7-.5.1 0 .2-.3.3-.3h.5s.1.2 0 .3c-.1.3-.2.6-.4.9s-.2.6 0 1c0 .2.1.4.2.7.2-.2.4-.3.5-.5.4-.6.7-1.2 1-1.8.2-.3 0-.5-.4-.5h-.2c-.2 0-.4-.3-.2-.4.4-.4.9-.7 1.3-1 .2 0 .5 0 .7.1.4.2.7.5 1 .8.2.2.3.4.2.7-.1.4-.3.8-.6 1.1-.6.6-1.1 1.2-1.6 1.9-.1.2 0 .2.1.2.7.1 1.5.3 2 .9.3.4.6.9.5 1.4 0 .4-.3.8-.7.9-.3.1-.7 0-1-.3 0 0-.3-.1-.4-.1h-.8Zm-5.7 3.3c.3-.3.6-.3 1-.3 1 0 1.9-.2 2-1.2v-.2c.1-.2 0-.3-.1-.4-.2-.1-.5-.2-.7-.2s-.3-.1-.2-.3c0-.3.2-.4.5-.5.2 0 .4-.1.6-.2l.2-.2h-.4c-.8.2-1.5.4-2.2 1-.4.3-.7.7-.7 1.2v1.5Zm4.4-4.1v.1l1.2.4.4-.7c-.6-.3-1.1 0-1.6.2m-.9 5h-.6c-.1 0-.3.1-.4.2.1.1.2.3.3.4.2 0 .4.1.5 0s.1-.4.2-.6m-20.2-3.9h.4c.8-.2 1.2-.9.7-1.7-.1-.2-.2-.4-.3-.7 0-.3.1-.6.4-.6h1.6s.2.1.3.2c.2.3.4.7.5 1.1 0 .3.3.4.6.4s.7.1.9.2c.5.2.8.6.7 1.2 0 .5-.4.8-.8 1-.3.1-.6.2-.8.3-.4.1-.7.3-1 .8-.5.9-1 1.7-1.8 2.4-.1.1-.3.2-.5.3-.5.3-1 .6-1.5.8l-.6.3c-.3 0-.5 0-.4-.4 0-.2.2-.5.3-.7.5-.7.9-1.3 1.4-1.9 0-.1.2-.3.2-.5.2-.4.2-.4-.2-.6-.5-.2-1-1-.8-1.6 0-.2.4-.4.7-.4Zm6.6 3.9c-.7-.7-1.6-.9-2.5-1h-.3c-.4.1-.5.5-.2.8.3.4.6.7.9 1.1.2.3.4.6.5 1 .1.3.7.7 1 .7.5-.1 1.2-.8 1.1-1.3 0-.5-.1-.9-.5-1.3m-18.5-4v-.4c0-.1.1-.3.2-.3s.3 0 .4.1c.4.4.5 1 .5 1.5v1.9c0 .1 0 .3.1.3.3.3.4.6.5 1 .2.8.6 1.5 1.1 2.1.2.2.2.8 0 1-.1.1-.6 0-.8 0-.7-.5-1.1-1.3-1.4-2 0-.2-.3-.4-.4-.4-.3 0-.4.3-.5.5-.2.4-.7.7-1.2.6-.2 0-.3-.1-.2-.3 0-.2 0-.4.1-.7.2-.5.5-1 .6-1.5.2-.4 0-.9-.2-1.3 0 0-.2 0-.2-.1v.2c0 .1 0 .3.1.4.4.7.2 1.4-.5 1.8s-1.4.9-2 1.5c-.1.2-.4.2-.6.3-.1 0-.3-.1-.4-.2-.3-.6-.4-1.3-.3-1.9 0-.3.2-.5.4-.7s.3-.4.3-.7V33c0-.6 0-1.2.2-1.8v-.4c-.3 0-.3.1-.4.3-.2.7-.4 1.4-.6 2-.1.4-.2.9-.4 1.3-.1.4-.3.7-.5 1.1-.1.2-.3.2-.5.2s-.4-.2-.3-.4c0-.3 0-.6.2-.8.2-.5.3-.9.3-1.5-.2.1-.3.2-.4.2-.2.2-.5.3-.7.2-.3-.1-.3-.4-.2-.6 0-.2 0-.4.2-.6.3-.6.4-1.2.4-1.8 0-.2 0-.4.1-.6 0-.2.2-.4.4-.3.3 0 .4.2.4.4v.7h.1s.1-.2.1-.3v-1.2c0-.4.1-.6.4-.7.3 0 .6 0 .7.2.2.2.4.3.7.3.8-.1 1-.2 1.2-1 0-.3.2-.6.5-.7.1 0 .3-.2.3-.4 0-.4.1-.7.1-1.1 0-.6 0-1.2.1-1.7 0-.2.1-.4.4-.3.1 0 .3-.1.5-.1.4 0 .6.3.7.7v.3c0 .3 0 .5.4.6.3 0 .5.2.5.5 0 .4 0 .7-.4.9-.2.1-.5.2-.7.3q-.45.15-.6.6c0 .3 0 .4.3.4.4 0 .7-.2 1-.5.5-.5 1.2-.4 1.5.3.2.4.3.9 0 1.3s-.6.4-.9.2c-.1-.1-.3-.3-.5-.3-.4 0-.7.2-1.1.3l-.1.1c0 .3.3 1.1.7 1.3Zm-3.3.6c.2.2.2.3.3.3.2 0 .4 0 .4-.4 0-.3-.2-.2-.3-.2s-.2.1-.4.3m.2 2.1.4-.6c-.5 0-.5.2-.5.5Zm-.2-7.3c-.1-.4-.4-.6-.8-.8-.5-.3-1 0-1 .5 0 .3-.1.5-.4.6-.3 0-.3.3-.4.5 0 .6.1.8.7.9.5 0 .9.3 1.1.7 0 0 .2.2.3.1.5 0 .7-.5.7-1.4 0-.2-.2-.7-.3-1.2Zm-23.9 7.2c0-.6.2-.8.7-1 .3-.1.5-.4.7-.6.3-.4.6-.7 1-.9.3-.1.5-.3.7-.6.3-.3.2-.6-.2-.8-.2 0-.3-.2-.4-.4 0-.3 0-.5.3-.6l1.2-.3c.8-.2 1.6-.3 2.3-.9.2-.2.7-.1.9 0l.9.9c.3.3.3.7-.1.9-.5.3-1 .5-1.6.7-.7.3-1.4.6-2 1-.4.2-.4.4-.1.8.1.2.3.2.4 0 .2-.2.5-.4.8-.6h.5c.2 0 .4 0 .5-.1 0 0 .2-.2.2-.3.4-.7 1.1-.8 1.8-.8 0 0 .2 0 .3.2l.5.5c.2.2.4.2.6.2 1 .1 2.1.8 2.2 2.1 0 .5-.3.7-.7 1-.3.2-.7.4-.9.8q-.45.75-1.2 1.2c-.5.4-1 .7-1.6 1.1-.2.1-.3.2-.4.4-.3.4-.7.4-1.1.3-.5-.2-.9-.5-1.3-.8s-.8-.6-1.3-.8c-.2-.1-.3 0-.3.1v.7c0 .2-.2.5-.3.6-.2.2-.8 0-.9-.3-.2-.5-.4-1-.6-1.4 0-.2-.2-.4-.3-.5-.3-.4-.7-.7-1-1.1l-.3-.6Zm9.7-1.2c-.7 0-1.1.4-1.4.9-.2.4-.5.8-.7 1.2 0 .1-.1.2-.1.4 0 .1 0 .3.1.3h.3c.3-.2.6-.5.9-.7.4-.4.8-.8 1.2-1.3 0 0 .1-.3 0-.4 0-.2-.3-.3-.3-.3Zm-3.9.8h.4c.2 0 .3.2.2.3-.2.4-.4.7-.7 1.1s-.5.4-.7 0c0 0-.1-.1-.2-.1h-.2c0 .2 0 .4.1.4.2.1.4.3.6.3.4-.2.9-.4 1.1-.9.2-.4.4-.7.5-1.1s0-.6-.4-.5c-.2 0-.4 0-.6.2-.2 0-.3.2-.1.4Zm-3.2-.3c-.3 0-.6.3-.6.6s.4.7.6.7c.4 0 .6-.2.6-.5 0-.4-.3-.7-.7-.7Zm34-12.2c1.2-.1 2.2.2 3.2.7 1 .4 1.8 1 2.6 1.7.3.3.6.6.8.9.6.7 1.1 1.4 1.5 2.3.2.6.3 1.3.3 2 0 0 0 .1-.2.2v-.3c.1-1-.2-1.8-.8-2.5-.7-.9-1.4-1.7-2.2-2.5-.2-.2-.5-.3-.8-.5 0 0-.1 0-.2.2-.2.2-.5.4-.8.3-.7 0-1.4 0-2.2.4v-.4c.4-.5.8-.9 1.2-1.4-.6-.2-1.3-.5-2-.4q-1.35 0-2.7.6c-.3.2-.7.2-1 .3l-.2-.2c0-.1.2-.3.3-.3.6-.3 1.2-.5 1.8-.8s1.2-.6 1.8-1c.6-.5 1.2-1 1.8-1.6.1 0 .2-.2.3-.4-.5 0-.9 0-1.3.2s-.7.3-1.2.2c-.2 0-.4 0-.4-.3 0-.2 0-.4.1-.5.2-.2.5-.4.7-.6.3-.2.5-.1.6.2 0 .1.1.3.2.4 0 .2.2.3.4.2.3 0 .5-.2.8-.3.4-.1.7 0 .8.4 0 .2.1.4-.2.5H89c-.4.6-1.1.9-1.6 1.3-.4.3-.8.5-1.2.8 0 0-.2.2-.3.2Zm2.4 1.9c.7 0 1.4 0 1.5-.2q-.6-.4-1.2 0s-.2.1-.3.2m-1.7-5.2c-.2.1-.5.2-.4.5 0 0 .3.1.4 0 .2-.2 0-.3 0-.5m-35.4-2.5c.2-.2.3-.4.5-.5.1 0 .3-.1.4 0 .7.3 1.4.6 2 .9s1.1.7 1.7 1.1c.4.3.8.5 1.2.8.2.1.3.3.5.4.5.4 1.1.9 1.5 1.4.6.6 1 1.4 1.1 2.3 0 .5-.2.9-.4 1.3-.4.5-.7 1.1-1.1 1.6 0 0-.2.2-.3.2h-.3v-.3c.2-.2.4-.3.6-.6.3-.5.7-1 1-1.6 0-.2.1-.4 0-.6-.2-.6-.5-1.2-1-1.7-.6-.5-1.1-1.1-1.7-1.6l-.9-.6-1.5-.9c-.7-.4-1.5-.7-2.2-1l-1.1-.5Zm17.4.9c-.6-.1-1.3-.2-2-.4s-1.4 0-2 0h-.2s-.1 0-.2-.1c0 0 .1-.2.2-.2 1-.2 2-.3 3-.1.7.1 1.5.2 2.2.3.1 0 .3.2.4.3 0 .2-.2.3-.3.3-.5 0-.7.3-.7.9 0 .3.3.7.6.8l.9.3s.2 0 .3-.1.2-.3.3-.4c.2-.5.7-.6 1.1-.6.5 0 .9.2 1.4.4 0 0 .2.2.2.3v.9h-.3c-.4-.3-.8-.7-1.3-.8h-.6s0 .2-.1.3v.5c0 .1-.2.3-.3.3h-.8c-.6-.2-1.1-.5-1.7-.7-.2-.1-.3-.3-.3-.5l.6-1.5Z"/><path class="cls-3" d="m70.3 20.9-.5-.5c-.8-.9-1.9-1.4-3-1.8-.9-.4-1.9-.3-2.9-.1-.2 0-.5.1-.5-.1 0-.3.2-.4.4-.4.8-.2 1.3-.9 1.9-1.3h-1.1v-.3c.1-.1.3-.4.4-.4.5.2.9 0 1.4-.2.1 0 .4 0 .4.1.1.2.2.4-.1.5-.3.2-.6.5-.8.8.3-.1.6-.2.9-.4h.3c0 .1 0 .3-.1.3s-.2.2-.4.3c-.3.1-.6.2-.9.2l-.2-.4-.7.4c2.1 0 3.7 1 5 2.4.2.2.5.4.5.8Zm41.9-2v.3h-1.1c-.7 0-1.4-.4-1.5-1 0-.2 0-.4.2-.5.1 0 .2-.2.3-.3.1-.2.2-.4 0-.5-.5-.4-.9-.8-1.5-1-.3-.1-.6-.4-.9-.5-.6-.3-1.2-.2-1.7 0-.4 0-.7.2-1.1.3h-.3v-.3c.4-.5 1-.6 1.6-.7.9 0 1.6.2 2.4.7.6.3 1.1.6 1.6 1.1.1.2.4.3.4.5v.7c-.2.6 0 1 .6 1.1.4 0 .7.2 1.1.2Zm-34.9 1.8h-2c-.8 0-1.4-.3-2-.8-.1-.1-.1-.3 0-.4l1.2-.9h.3c.3.4.8.6 1.3.6s.8 0 1-.5v-.1c0-.3.3-.4.5-.4 0 0 .2.2.1.2-.2.5-.4 1-.9 1.1h-1.1c-.3 0-.6-.1-1-.2h-.4c-.1 0-.2.2-.3.2 0 0 .1.2.2.3.5.4 1.1.4 1.6.5.6.2 1.2 0 1.8 0 .7 0 1.3-.3 1.9-.5.2 0 .3-.3.5-.4 0 0 .2-.1.3-.2 0 0 .1.1.1.2s0 .3-.1.3c-.2.2-.5.3-.7.4-.7.3-1.5.5-2.3.5ZM95 14c0 .2 0 .3-.2.3-.6 0-1.1 0-1.6-.3-.4-.2-.7-.6-.7-1.1 0-.4.4-.7.7-.9 1.1-.7 2.3-.6 3.5-.5.7 0 1.2.5 1.7.8.6.4 1 1 1.3 1.7.1.3 0 .6.1.9-.2-.3-.3-.6-.4-1-.2-.6-.7-1-1.2-1.4-.9-.6-1.8-.9-2.9-.9-.7 0-1.4.3-1.9.7-.3.3-.2.8.2 1 .2 0 .5.2.7.3.2 0 .5 0 .8.1Zm2.1 3.6c-.3.2-.5 0-.8-.2H96c-.4.1-.7.3-1.1.4h-.3c0-.1-.1-.3 0-.4.3-.3.6-.6.9-1V16c0-.5.1-.9.6-1.1h.3v.3c0 .2-.2.4-.2.6s.2.9.4.9c0 0 .2 0 .3-.1.2 0 .4-.2.7-.3.3 0 .6.2.6.5v.2c-.1.2-.3.4-.4.5-.2.2-.4.3-.6.1Zm-1.3-.9c-.2.2-.4.3-.5.5.2 0 .5 0 .7-.1v-.2zm1.8.2h-.4v.5c.1-.1.3-.3.4-.5"/><path class="cls-3" d="M107.1 17.7q.75 0 .9-.6c.1-.2.3-.2.5-.1 0 0 .2 0 .2.1.4.2.4.3 0 .6-.1.1-.2.3-.3.4l-.4.2v-.5c-.2.1-.3.2-.4.3-.3.2-.7.2-1-.2-.1-.1-.2-.2-.4 0-.1.1-.3.2-.5.3-.3.2-.6.2-.8-.1v-.5l1.2-.9c.1 0 .3-.2.4 0 0 0 0 .3-.1.4-.2.2-.4.3-.7.5 0 0 0 .2-.1.3.3 0 .7 0 .8-.6 0-.2.3-.3.6-.2.2 0 .1.2 0 .4v.3Zm-26.8-1.2c-.2-.2-.4-.4-.6-.5-.8-.7-1.7-1.3-2.8-1.5-.8-.1-1.6-.1-2.4.2h-.3v-.3c.1-.1.3-.3.5-.3.7-.2 1.4-.3 2.2 0 .6.2 1.2.2 1.8.6.3.2.6.5.9.7l.9.9s0 .2.1.4h-.3Zm20.3.4c-.4.1-.8.3-1.3.4H99c-.2 0-.2-.2-.1-.3.3-.3.5-.6.8-.9.1-.2.3-.2.5 0s0 .3 0 .4v.1c.4-.1.8-.3 1.2-.4h.4c0 .1 0 .3-.1.4-.1.3-.3.5-.5.7v.2h.2c.4-.2.9-.3 1.3-.6.2-.1.4 0 .6 0 .2.2 0 .3 0 .5-.1.2-.3.3-.5.6l-.2-.5c-.3 0-.5.2-.8.3h-.7c-.3 0-.5-.3-.4-.6 0-.1 0-.3.1-.4v-.1Z"/><path class="cls-3" d="M80.3 16.5c0 .2 0 .3-.3.4-.2 0-.4.2-.6.4s0 .5.4.5h.4v-.6c.4-.2.5-.1.7.3.1.5 0 .8-.5.8h-1c-.5-.1-.6-.7-.3-1.1l.1-.1c.3-.4.7-.6 1.1-.4Zm-26.9-.9c-.2 0-.3.1-.4.2-.2.1-.4.3-.5.5s.2.4.5.4h.3c0-.2 0-.4-.2-.6h.6c.1.2.2.5.2.8 0 .2-.2.4-.5.4h-1.1c-.5-.1-.6-.7-.3-1.1.2-.2.4-.4.6-.5.2-.2.5-.1.8 0v.1Zm9.1 1.4c.2-.3.3-.6.5-.7.3-.3.7-.5 1-.7h.5s.2 0 .3.1c0 0 0 .2-.1.3-.2.2-.5.4-.7.6s-.4.5-.6.7c-.2.1-.4.2-.6.2 0 0-.2-.2-.3-.4Zm15.7-.1v.7c0 .2-.2.3-.4.2-.2-.2-.4 0-.6 0-.4.2-.7.1-.9-.1v-.2c0-.3.3-.8.6-.9h.3v.2c-.2.2-.2.3 0 .5.2.1.4 0 .5-.2s.2-.3.3-.5c0 0 .2-.1.3 0 0 0 .1.2.2.2Zm-16.8 1.3h-.3c-.4-.3-.9-.6-1.3-.9v-.4c0-.1.2-.2.3-.3h.2c.3.5.8.7 1.2 1.1 0 0 .2.2.2.3-.1 0-.3.2-.4.3Zm23.4.4c-.6 0-1.1-.3-1.5-.6s-.5-.8 0-1h.4c.2.4.6.7 1 .9.3.1.3.3.2.5Zm6.9-1.9c0 .5.3 1 .8.9.2 0 .3 0 .5.1v.2c-.4.2-1.5-.1-1.7-.5-.3-.5-.3-.8.1-1 0 0 .2-.1.3 0v.2Z"/></g></svg>