<svg xmlns="http://www.w3.org/2000/svg" viewBox="0 0 128 38.9"><defs><style>.cls-1{fill:#00489b}.cls-1,.cls-3{fill-rule:evenodd}.cls-5{fill:#fff}.cls-3{fill:#231916}</style></defs><g id="_图层_1" data-name="图层_1"><path class="cls-3" d="M84.4 16.2c.3 0 1.7.2 1.7.6s-.8.8-1 1.1c-.1.1-.2.3-.4.4 0 0-1.2 1.4-1.2 1.7v.1l.7-.3s.2 0 .3-.2l.5-.2c.2-.2.5-.2.7-.2h.4s.2 0 .2.2v.2c0 .2-.1.4-.3.5h-.3c-2.8.9-3.8 1.6-3.9 1.6 0 0-1.6 1.1-1.5 1 0 0-.3.1-.4.2l-.3-.1s-.2-.2-.3-.2c-.1-.1-.3-.2-.4-.4-.2-.3 0-.6 0-.6l2.3-.7h.2v-.1c0-.1 2.7-3.5 2.8-3.6V17c-.2 0-1.4.7-1.4.7h-.2c-.4.2-.5 0-.9-.1-.1 0-.7-.6-.7-1 0 0 .2-.1.3-.1H83c.3 0 .5-.2.8-.3 0 0 .3-.2.4-.2h.4Zm-37.2-3.1h.7c.2 0 .6.6.7.7v.2c.1.1.1.3 0 .5v.2l-.2.2s-.1.1-.2.1h-.1c-.3.1-.5.2-.7 0v-1.3l-.3-.6V13m-3.9 1.2c.4 0 .6.1.7.5v.3c-.2.4-.3.4-.7.6 0 0-.2.1-.3.2-.2.1-.6.3-.8.3 0 0-.3 0-.4-.1-.3 0-.4-.1-.7-.2h-.1l-.2-.2v-.1c.1 0 .4-.2.5-.2h.2l.2-.1h.1c.1 0-.1 0 0 0h.3s.2-.1.1 0h.4c.1 0 0 0 .2-.2m-2.5 4.7c.1 0 .2 0 .2.2v.1c0 .2.3.4.4.6v.6h-.1c-.1 0-.3.2-.4.2h-.1c-.2 0-.3.2-.5.1-.3 0-.2-.6 0-.7l.2-.2v-.2s.1-.2.1-.3v-.3c.1 0 .2-.2.2-.2Z"/><path class="cls-3" d="M40.7 17.5c.2 0 .5-.2.7-.3.1 0 .2-.1.4-.2.2 0 .2 0 .4-.1.2 0 .3-.1.5-.2.2 0 .4-.1.7-.2.4-.2.8-.2 1-.5.1-.2 0-.5 0-.7v-2.5l-.2-.5v-.6c-.1-.2-.3-.4-.2-.6 0-.1.3-.2.3-.3h.4c.2 0 .3 0 .5.1s.4.5.5.7v1.6l-.2.5v1.4c0 .1 0 .3.2.3.2-.1.7-.4.9-.1v.3c0 .5-.3.4-.7.6-.1 0-.3.1-.3.2v.4c.2.8.4 1.6.8 2.3l.4.6s.2.4.3.4c.1-.2 0-.7 0-1v-1s0-.1.2-.1c.1 0 .2.2.3.2.6.7.5 1.5.4 2.4v2.1c0 .1-.2.2-.3.2-.6.3-.9-.5-1-.9 0-.3-.1-.4-.3-.6-.1-.2-.4-.6-.6-.9 0-.2-.2-.5-.4-.6-.2 0-.5.5-.7.6l-.7.6c-.2.2-.6.4-.8.6-.1 0-.3.2-.4.2-.2.1-.4.3-.6.4s-.4.3-.6.4l-.8.6-.6.3c-.2 0-.5.2-.8.2-.1 0-.3-.2-.5-.3h-.3c-.3-.1-.3-.2-.4-.4v-.2c.3 0 .1 0 .4-.1l.3-.1c.3-.2.7-.2 1-.3s.6-.3.8-.4c0 0 .3-.1.3-.2 0 0 .2 0 .2-.1h.2c0-.1.1-.1.1-.1.1 0 .1 0 .2-.1.2-.1.3-.2.5-.3 0 0 .5-.3.5-.4.4-.3 1-.5 1-.9 0-.2 0-.5-.1-.8v-.2l-.6.6c-.1.2-.1.3-.2.5-.2.3-.8.5-1.1.3-.1-.1-.2-.3-.2-.5s0-.4.2-.6V19c0-.3.1-.7-.3-.7-.2 0-.4.1-.5.1v-.2s-.1.1-.1.2c0 0 0 .2-.2.3-.1.2-.4.2-.6.4 0 0-.1.2-.2.2s-.3.1-.5.1c0 0-.2 0-.2-.1h-.2c-.1 0-.6-.3-.8-.4-.1-.1 0-.2-.1-.3 0-.1.4 0 .7-.2.2 0 .3-.2.3-.2h.2s.2-.1.3-.1m4.8-1.2c-.1 0-.4.2-.4.3s0 .2.1.3v.6c.1.2.5.9.9.8v-.2c0-.3-.3-1.6-.4-1.8zm-1.1.6-.6.3c-.2 0-.6.1-.7.4 0 .3 1 .4 1.1.4s.3 0 .4-.2 0-.8-.2-.9m11-5.4c.3 0 .6.3.6.6s.1.3.2.4v.3c.1.4 0 .7-.2 1 0 0-.2.2-.2.3-.2.3-.4 1.1-.6 1.1-.2-.2-.2-.4-.2-.7v-1.5c.2-.3.2-.8.2-1.1v-.3Zm-.1 4.6c.5 0 .8.7.9 1 .2.1.3-.1.4-.1h.1c0 .1-.1.3-.2.5 0 .2 0 .3-.2.4v.2c0 .1-.2.3-.2.3-.1.4-.2 1.2-.3 1.5s-.4 1.4-.4 1.4v1.3c-.1.8-.4.9-.8.9h-.2s-.1 0-.2-.2-.3-.4-.4-.6v-.6c0-.1.2-.3.2-.4l.2-.5c0-.2.3-1.7.3-2.3 0 0 .1-.4.2-.6v-2.1s.1-.2.1-.1Zm5.6 4.4h.3c.2 0 .4.2.6.2s.4.6.5.8c0 0 .1.3.2.4v.3s0 .2-.1.4c0 .1-.2.3-.3.3h-.7s-.7.1-.8.2v-.2s0-.1.4-.4c.2-.1.3-.2.3-.7 0-.2-.1-.4-.2-.5v-.2c0-.1-.2-.2-.2-.4Zm.9-9.4c.7.2.7.5.7 1.2-.1.2-.1.4-.2.6-.3.4-1.2 1-1.2 1.5v.4h.2v.1h.6s.2.1.3.2c.1.3-.2.7-.3.9s-.5.1-.5.3c-.1.2.2.5.2.7.2.7-.2 1.1-.5 1.6l-.2.3s-.1.2-.1.3c0 .3.4 0 .4 0s.2-.2.2-.3v-.7h.3c.7 0 .8 0 1 .3v.2c0 .3-.2.4-.4.5H61l-.2.2c-.1.1-.3.2-.4.3 0 0-.4.1-.5.1h-.3c-.3 0-.5.3-.6.7l-.2.4c0 .2-.7.9-.9 1h-.4s-.1 0-.2-.2c0 0 .2-.2.5-.6.1-.2.1-.2.1-.3l.1-.3c0-.3-.3-.4-.6-.4h-.2l-.1-.2v-.3s.2-.2.3-.2.6 0 .8-.4c.2-.5-.3-.6-.2-.6-.5 0-.2.3-.6.5h-.3c-.2 0-.9-.5-.6-1l.4-.4c0-.1.2-.2.2-.4v-.2c0-.8.3-1 .3-1s-.1-.5-.4-.5h-.3c-.2 0-.4-.2-.6-.4 0 0-.1-.1-.1-.2 0-.5.8 0 1.9-1.1v-1.2s.1-.1.1 0c.3-.1.5.4.6.6 0 0 .1-.3 0-.5v-.4c0-.1-.1-.3 0-.4.2 0 .3 0 .5.2.1.1 0 .6.3.6 0 0 .4-.3.3-.3.1-.4.1-.8.2-1.2v-.1s.1-.2.2-.2Zm-2 6.8c-.5.3-.7.2-.7.2v.3c.1 0 .4 0 .4-.1l.2-.1s.2-.2.2-.3h-.2Zm.3-1.1c-.2 0-.6 0-.6.4v.2s.4 0 .8-.3v-.2s0-.1-.1-.2Zm-.7-1.6c-.2 0-.7.5-.7.6 0 0 .9.4 1.1 0 .2-.2-.2-.6-.4-.6m10.1-.6c.2 0 .7.2.7.2s.5.3.5.5v.4c-.3.8-.5 1.9-.5 1.8v.6c.5.3 0 .5 0 .8s-.2.4 0 .4v-.1l.6-.7h.3v.4c0 .2-.2.3-.2.5l-.3.6v.2h-.2l-.3.8s0 .7-.1.9c0 .1 0 .2-.1.2-.3.6-.8.2-1.4.3 0 0-.4 0-.4-.3 0 0 0-.1.1-.2l.4-.6c0-.1.4-.7.5-.8 0-.1.1-.4.2-.6v-.4c-.1 0-.3 0-.4.2-.4.2-.6.2-.9 0 0 0-.2-.1-.2-.2-.3-.3.6-.6.9-.8.2-.2.5-.3.6-.5 0 0 .1-1.8.1-2-.3.1-.5.3-.8.5-.4.3-.9 0-1.2-.2-.1 0-.2-.1-.3-.2v-.2s0-.2.1-.2c0 0 .8-.4.9-.4l.9-.6c.1 0 .5-.2.5-.2Zm6-2.1h.7c.3 0 1.2.5 1.1.9v.3c-.1.2-.4.3-.5.4l-.2.3-.3.2c-.2.2-.6 1-.7 1.1 0 .4-.3.6-.4.8v.5l-.2.2c-.1.1-.3.2-.5.3-.1 0-.2.2-.3.3l-.2.2c-.1.1-.2.7-.2.9v.1h.5c.3 0 .6.5.7.6 0 .2-.3.5-.3.6-.3.2-.6.4-.7.8v.5h2.1l.2.2.5.4c0 .1.2 0 .2.1-.1.5-.8.3-1.2.3h-1.5c-.6.2-1.4.4-1.7 0-.1 0-.1-.2-.2-.4 0-.1-.2-.3-.2-.5s.2-.3.2-.4c.2-.2.4-.7.2-.9-.1-.2-.3-.2-.3-.4s.4-.4.4-.4 0-.5.2-.9v-.3c-.3-.2-.1-.5-.1-.7s0-.1.2-.5v-.6h-.2c0-.1 0 0 0 0v.2c-.1.1-.2.4-.2.4-.1.1-.2.2-.2.1-.2 0-.3-.4-.5-.6-.1-.2-.2-.3-.3-.5v-2s0-.1.1-.1c.2 0 .2.2.3.3l.2.2c.2.3.7 1.2.7 1.6 0 0 .6-.3.7-.7 0 0 .3-.7.2-.7V15l-.3.2c-.2.1-.5.1-.8.1-.2-.4 0-.4.8-.9.3-.2.5-.3.6-.4 0 0 1.3-.8 1.5-.9.1 0 .2-.1.4-.2Zm-.8 1.2c-.2.1-.4.3-.6.4l-.2.2v.1c0 .2.1.4.2.5v.4c0 .2-.1.4-.1.6l.3-.2c0-.2.1-.6.3-.9 0-.2.2-.5.5-.9v-.2h-.2Zm35.2-4.1h.5l.4.4c.1 0 .2.1.3.2.3.2.2.5 0 .7-.1.2-.4.3-.4.5.3 0 .4-.1.6-.2.3-.2.6-.3 1-.4.1 0 .2 0 .3-.1.4-.2.5-.5 1-.4 1.2.2 1.3.5 1.5.8v1.2c0 .1-.3.2-.4.3-.3.1-.9.5-1 .5s-.3.1-.4.2c-.2.1-.8.6-.7.8l.5.4.4.4c0 .6-.7.6-1.1 1.1 0 .1-.6.4-.3.5h.7c.4 0 .6.2.9.5.1 0 .3 0 .3.2v.3c0 .1-1.4 1.1-1.8.8v-.6s-.2-.2-.3-.2h-.2c-.3.2-.4.5-.3.8 0 0 .2 2.6.2 2.8l.2.9c0 .2 0 .3.1.5v.2c-.1.3-.1.5-.4.7h-.2c-.1 0-.3.2-.4.2-.7 0-1.1-.3-1.8-.4-.2 0-.7-.1-.9-.3v-.2h.6c.6 0 1.1-.2 1.1-.2s.3-.4.3-.6c0-1.2 0-2.9-.2-3.4l-.1-.2s-.2.1-.3.2c-.8.5-1.8 1.5-2.2 1.9-.2.2-.5.6-1 .7-.4 0-.8-.1-1.1-.3 0 0-.6-.4-.9-.5-.1 0-.1-.4-.1-.4s0-.1.2-.2c.2 0 .8-.2 1-.3.5-.2 1.9-.9 2-.9l2.6-1.4.3-.4.5-1c0-.1.1-.4-.1-.4-.4 0-.6.3-1 .5 0 0-.8.6-1.5.8h-.5s-.5-.1-.5-.3l.4-.4 1.3-.5 1.3-.7c.2 0 .6-.3 1-.5l.3-.4c.3-.5.9-1.6 1-1.6v-.2l.2-.2v-.5s-.2-.1-.3-.1c-.2 0-1.1.4-1.3.5 0 0-.1.2-.1.3 0 0 .4.8.5 1.1v.3l-.3.4s-.5.3-.5.4h-.4c-.4.2-1.2 0-1.4-.5 0-.1-.1-.7.3-1.7h-.3l-.4.4-.3.2c0 .1.1.6.1.6l.1.2v.2c.3.2.4.6.2.9-.6.3-1-.6-1.4-.4v.2c0 .2.1.6-.2.6s-.4-.2-.6-.4c0 0 0-.1-.1-.2 0 0-.2-.5-.3-.6l-.2-.4c0-.2 0-.3-.2-.5 0 0 0-.1-.1-.2-.3-.3-.8-.9-.2-.9 0 0 .5.2.6.3.1 0 .6.5.8.5V13s0-.2-.1-.3c0-.1-.1-.2-.2-.3-.6-.8-.8-1-.9-1.1-.2-.2-.5-.5-.4-.7.1 0 1.3.6 1.3.6l.4.3.2.2c0 .2.2.3.3.4 0 0 .1.2.2.2 0 0 0 .1.2.2h.2q0-.15.3-.3l.4-.4v-.2c-.1 0-.2-.1-.3-.2-.1 0-.5-.1-.5-.4v-.3h.5s.7.1.9 0c0 0 .3-.4.3-.5v-.5s.1-.2.2-.2Zm.3 3.3v.5c-.1.2.1.4.3.4s.2-.3.2-.3c0-.3 0-.5-.4-.6Zm-14.4-1h.4c.1.1.5.3.5.3.2.2 1 .8 1.1 1.1v.4c-.2.2-.2 1.3-.3 1.5-.1.4-.2.9 0 1h.2l1.2-.9h.7c.3-.1.5.3.7.3v.3c-.1 0-1.6.8-1.7.9-.3.3-.6.4-1.2.8-.2.1-.4 1.2-.5 1.4-.6 1.4-1.1 2.5-2.1 3-.2 0-.5.3-.7.3 0 0-.6.3-.8.3h-1.6s-.1 0 0-.2c0 0 .2 0 .6-.3.1 0 .4-.2.5-.2l.2-.1c1.4-.7 2.1-1.9 2.1-1.9l.3-.7h-.3c-.1 0-1.2 1-1.2.9-.3.2-.6.3-1.2 0 0-.1-.8-.6-1.2-.8v-.3c.1-.1.2-.2.4-.2l1.2-.4c.2 0 2.7-1.2 2.8-1.6.4-2 0-3.8-.1-4.3 0-.2.1-.9.2-.9Z"/><path class="cls-3" d="M96.2 19c.2 0 .3 0 .6.3 0 0 0 .2.1.2 0 .1 1.1 1.4 1.6 1.7.3.2 1.4.7 2.4.7l.2.1c0 .1-.2.3-.2.3-.2 0-1.2.4-1.4.5-.4.1-.9.5-1.1.4-.5-.2-.7-.6-.8-.7-.2-.3-1.5-3.1-1.5-3.1 0-.1 0-.3.1-.4"/><path d="m41.4 27-.1.1s0 .1-.1.3l-.8 2-.6-1.5-.7 1.5-.8-2c0-.1-.1-.2-.2-.4h-.2 1s-.1 0-.2.1v.3l.5 1.2.4-.9v-.3c-.1 0-.2-.2-.2-.3h-.3 1.2-.2v.3l.4 1.1.4-1v-.4h-.2.6Zm.2 0h1.2-.2v1.9s0 .1.2.2h.6s.2-.1.2-.2v-1.7h-.2.8-.2V29c0 .1-.1.3-.3.3-.1.1-.3.2-.6.2h-.5c-.1 0-.3-.2-.3-.3s-.1-.3 0-.5v-1.5h-.2Zm3.6 1.3v.9h.2-1.3.2v-2h-.2 1.3-.2v.9h.8v-.9h-.2H47h-.2v2h.2-1.2.2v-.9zm3.3.3-.4-.8-.4.8h.7Zm.1.1h-.8v.2c-.1 0-.1.1-.1.2v.1h.2-.8s.2-.1.2-.2l.2-.4.9-1.9.9 2c0 .2.2.3.2.3h.2-1.2.2v-.1l-.1-.3Zm2.1-1.7 1.2 1.5v-1.3s-.2-.1-.3 0h.8s-.1 0-.2.1v2.3l-1.6-2v1.8h.2-.8c.1 0 .2 0 .3-.1v-2c0-.1 0-.2-.1-.2H50h.8Zm3.8 0h1.2-.2v1.9s0 .1.2.2h.6s.2-.1.2-.2v-1.7h-.2.8-.2V29q0 .15-.3.3c-.1.1-.3.2-.6.2h-.5c-.1 0-.3-.2-.3-.3s-.1-.3 0-.5v-1.5H55Zm3.6 0 1.2 1.5v-1.3s-.2-.1-.3 0h.8s-.1 0-.2.1v2.3l-1.6-2v1.8h.2-.8c.1 0 .2 0 .3-.1v-2c0-.1 0-.2-.1-.2h-.2.8Zm3.1 2.4h-1.3.2v-2h-.2 1.3-.2v2zm2.7-2.4s-.2.1-.2.2l-.2.4-.8 1.8-.8-1.9c0-.2-.2-.4-.2-.4h-.2 1.1-.2v.2l.5 1.2.5-1.1c0-.1 0-.2.1-.3V27h-.2.8Zm1.1.2v1c.2 0 .3 0 .3-.1 0 0 .1-.2.1-.4V29v-.3s0-.1-.2-.2h-.3v.9h.2c.2 0 .4 0 .5-.2.1-.1.2-.3.3-.5v.8h-2.2.2v-2h-.2 2v.7c0-.2 0-.3-.1-.4 0 0-.2-.1-.3-.2h-.6Zm2.5 0v1.1h.4s.1 0 .2-.2v-.3c0-.2 0-.3-.1-.4 0 0-.2-.1-.4-.1h-.2Zm0 1.1v.9h.2-1.2.2v-2h-.2 1.7c.1 0 .2.1.3.2 0 .1.1.2.1.4s0 .3-.2.4c0 0-.2.1-.3.2l.6.8c0 .1.1.2.2.2h.2-.8zh-.2ZM71 27v.8c0-.2-.1-.4-.3-.5-.1-.1-.3-.2-.4-.2H70s-.1.1-.1.2v.1s0 .1.2.2l.4.2c.3.1.5.3.6.4 0 .1.1.3.1.4 0 .2 0 .4-.2.5s-.4.2-.6.2h-.6v.1-.9c0 .3.2.4.3.6.1.1.3.2.5.2.1 0 .2 0 .3-.1 0 0 .1-.2.1-.3v-.2s0-.1-.1-.2c-.1 0-.2-.1-.3-.2-.2 0-.3-.2-.5-.3 0 0-.2-.2-.2-.3v-.3c0-.2 0-.4.2-.5.1-.1.3-.2.5-.2.1 0 .3 0 .4.1h.2c.1 0 0 0 0 0v-.1Zm1.7 2.4h-1.3.2v-2h-.2 1.3-.2v2zm2.4-2.4v.6c0-.1 0-.2-.1-.3l-.2-.2h-.4v2h.2-1.3.2v-2h-.2c-.2 0-.3 0-.4.1s-.2.3-.2.4V27h2.2Zm2.8 0s-.1 0-.2.1c0 0-.2.2-.3.4l-.5.9v.8h.3-1.3.3v-.7l-.6-1c-.1-.2-.2-.3-.2-.4h-.2 1.1-.1s0 .1.1.3l.4.8.4-.7c.1-.2.2-.3.2-.3h-.2.7Zm3.4.1c-.2 0-.4.1-.5.3 0 .2-.1.4-.1.8s0 .7.2.9c0 .1.2.2.4.2h.3c.1 0 .2-.2.2-.4v-1.3c0-.2-.1-.3-.2-.3h-.3Zm0-.1c.4 0 .7 0 .9.3.2.2.4.5.4.9s0 .6-.3.8c-.2.3-.6.5-1 .5s-.8-.1-1-.4c-.2-.2-.3-.5-.3-.8 0-.4.1-.7.4-.9q.3-.3.9-.3Zm2.5.2v1h.3s.1 0 .2-.2v-.3 1.2c0-.2 0-.4-.2-.4 0 0-.2-.1-.3-.1v.9h.2-1.3.2v-2h-.2 2v.7c0-.2 0-.3-.1-.4 0 0-.2-.1-.3-.2h-.6Zm5.4-.2v.6c0-.1 0-.2-.1-.3l-.2-.2h-.4v2h.2-1.3.2v-2h-.2c-.2 0-.3 0-.3.1-.1.1-.2.3-.2.4V27h2.2Zm1.2.2v1c.2 0 .3 0 .3-.1s.1-.2.1-.4V29v-.3s0-.1-.2-.2h-.3v.9h.2c.2 0 .4 0 .5-.2.1-.1.2-.3.3-.5v.8h-2.2.2v-2h-.2 2v.7c0-.2 0-.3-.1-.4 0 0-.2-.1-.3-.2h-.6Zm3.9-.2v.8c0-.2-.1-.4-.3-.5-.3-.3-.8-.2-1 0 0 0 0 .1-.1.2 0 .2-.1.4-.1.6v.6c0 .2.1.3.3.4.1 0 .3.1.4.1h.4c.2 0 .3-.2.4-.3v.2c-.1.1-.3.2-.4.3h-.5c-.2 0-.5 0-.7-.2-.2 0-.4-.3-.5-.4-.1-.2-.2-.4-.2-.6s0-.4.2-.7c.2-.4.7-.6 1.1-.6.2 0 .3 0 .5.1h.2v-.1Zm1.3 1.3v.9h.2-1.3.2v-2h-.2 1.3-.2v.9h.8v-.9h-.2 1.2-.2v2h.2-1.2.2v-.9zm2.8-1.3 1.2 1.5v-1.3s-.2-.1-.3 0h.8s-.1 0-.2.1v2.3l-1.6-2v1.8h.2-.8c.1 0 .2 0 .3-.1v-2c0-.1 0-.2-.1-.2h-.2.8Zm3.2.1c-.2 0-.4.1-.5.3 0 .2-.1.4-.1.8s0 .7.2.9c0 .1.2.2.4.2h.3c.1 0 .2-.2.2-.4v-1.3c0-.1-.1-.3-.2-.3h-.3Zm0-.1c.4 0 .7 0 .9.3.2.2.4.6.4.9s0 .6-.3.8c-.2.3-.6.5-1 .5s-.8-.1-1-.4c-.2-.2-.3-.5-.3-.8 0-.4.1-.7.4-.9q.3-.3.9-.3Zm3.8 1.6v.8h-2.2.2v-2h-.2 1.3-.3v1.9h.7s.2-.1.2-.2l.2-.4Zm1.6-1.5c-.2 0-.4.1-.5.3 0 .2-.1.4-.1.8s0 .7.2.9c0 .1.2.2.4.2h.3c.1 0 .2-.2.2-.4v-1.3c0-.1-.1-.3-.2-.3h-.3Zm0-.1c.4 0 .7 0 .9.3.2.2.4.6.4.9s0 .6-.3.8c-.2.3-.6.5-1 .5s-.8-.1-1-.4c-.2-.2-.3-.5-.3-.8 0-.4.1-.7.4-.9q.3-.3.9-.3Zm4 0v.8c0-.2-.2-.4-.4-.5-.1-.1-.3-.2-.5-.2s-.3 0-.4.2c-.1.1-.2.3-.3.4v1.2c0 .2.1.3.3.4.1 0 .3.1.4.1h.4v-.7h-.1 1.2s-.1 0-.2.1v.7c-.3.1-.6.2-1 .2h-.6c-.1 0-.3-.1-.4-.2-.1 0-.2-.2-.3-.3 0-.2-.1-.4-.1-.5 0-.4.1-.7.4-.9s.6-.4 1-.4h.8v-.1Zm3 0s-.1 0-.2.1c0 0-.2.2-.3.4l-.5.9v.8h.3-1.3.3v-.7l-.6-1c-.1-.2-.2-.3-.2-.4h-.2 1.1-.1s0 .1.1.3l.4.8.4-.7c.1-.2.2-.3.2-.3h-.2.7Z" style="fill:#231916"/><path class="cls-1" d="M34.1 19.5c0 5.5-4.4 10-9.9 10.1-5.5 0-10-4.4-10.1-9.9 0-5.5 4.4-10 9.9-10.1 5.5 0 10 4.4 10.1 9.9"/><path d="M30.9 19.5c0 3.8-3 6.8-6.8 6.8s-6.8-3-6.8-6.8 2.9-6.9 6.7-6.9 6.9 2.9 6.9 6.7v.1Z" style="fill-rule:evenodd;fill:#fbc642"/><path class="cls-5" d="M16.4 19.5h-.1l-.8-.3.6-.2-.6-.2.8-.3h.1v.4h-.1l-.5.2.5.2v.4h-.1l-.5.2.5.2h.1v.3Zm.1.7v.3h-.8v-.4l.1-.1h.7v.4-.1h-.7v.3h.8Zm-.3.7v.4h.3v.4h-.6v.1-.4.1h.4V21H16v-.4.1h.7v-.1.4h-.3Zm.1 1.4v-.4H16v-.3h1.1v.1l-.7.5zl-.1-.4h.1Zm.1 0 .3-.3h-.4v.3Zm.5.1v.2c.1 0-.2.9-.2.9l.5-.3.2.3-.7.4.4-.9-.5.3-.2-.3.6-.3Zm1.2 2 .2.2-.3.3s-.1 0-.2.1h-.2s-.1 0-.2-.1c0 0 0-.1-.1-.2v-.2l.2-.2.3-.2zl-.3.3v.2s.1.2.2.2h.1s.1 0 .2-.1l.3-.3Zm.2.3.2.2v.9l.3-.4.2.2-.5.6v-1l-.4.4-.2-.2.5-.5Zm.5 1.7-.3-.2.4-.5.3.2zm1.5-.2h-.1l-.7.5.1-.9.3.2v.7l.4-.4.3.2Zm.2.2-.2.3h.2c0 .1 0 .1.1.1s-.1.3-.1.3V27h-.2l-.1.2h.1l.1.1h.1l-.2.2-.7-.3.3-.6v-.1l.7.3v.2h-.1v-.1h-.2v-.1Zm1.1 1.4h-.2l-.2-.6v.4h-.4v-.2l.2-.6v-.1h.3c0 .1.1.2.2.2v.3s0 .1-.1.1h-.2v.3c.1 0 .1.1.2.2h.1Zm-.5-.7h.2l.1-.1v-.2l-.1-.1h-.1zm1.5-.1v.3h-.1V27h-.2s0 .1.2.2l.2.2v.2s0 .1-.1.2h-.2v-.3.3h.2l-.1-.1-.1-.1v-.2s0-.1.1-.2h.3Zm.4 1h-.4v-.7h.4zm.9-.8v.2h-.1v.8h-.4v-.8.1-.2h.8Zm.8 0h.3-.1v.1l-.2.4v.3h-.4v-.3l-.3-.4h.4l.2.3.2-.3v-.1Zm1.3-.3h.3c.1 0 .2.2.2.3v.4c0 .1-.2.2-.3.2h-.4c-.1 0-.2-.2-.2-.3v-.4c0-.1.2-.2.3-.2Zm0 .1s-.1 0-.2.1v.4c0 .2 0 .3.2.3h.2s.2 0 .2-.2v-.3c0-.2 0-.3-.2-.3zm.8-.3v.4h.3V27l.1.3H27v.3h-.4v.1-.1l-.2-.6.7-.2v.2h-.3Zm1.6-.8v.2c.1 0 0 0 0 0h-.1l.4.7-.4.2-.4-.6h-.1v.2l-.1-.2.7-.4Zm.3-.2.2.3h.2v-.3l.2.3h-.2c0 .1.2.4.2.4h.1V26v.2l-.6.4-.4-.5.6-.4v.2h.1l-.2.2Zm1-1 .2.2h-.4s-.1.2 0 .3c0 0 0 .2.1.2 0 0 .1.1.2.1h.4v-.3.2s0 .1-.1.2-.2.2-.4.1c-.1 0-.2 0-.3-.2 0 0-.1-.1-.1-.2 0-.2 0-.5.3-.6Zm.5.1.3-.4-.2-.2.2-.3.5.4-.2.3-.2-.2-.3.4.2.2-.2.3-.5-.4.2-.3zm.1-.9v-.2c.1 0 1-.2 1-.2l-.5-.3h-.1l.2-.3.7.4-1 .2.5.3h.1l-.2.3-.6-.3Zm.6-1.4c0-.1.1-.2.3-.2h.4q.15 0 .3.3v.4q0 .15-.3.3h-.4q-.15 0-.3-.3v-.3Zm.1 0v.2s.1.2.3.2h.4s.1 0 .2-.2v-.2s-.1-.1-.3-.2h-.4s-.1 0-.2.2m1-1 .2.1-.2.7-.6-.2h-.1v-.4h.1v.1h.1l.6.2v-.3l-.1-.1Zm-.6-.8c0-.1 0-.2.2-.3.1 0 .2-.1.4 0 .1 0 .3 0 .3.2 0 .1.1.2 0 .4 0 .1 0 .2-.2.3h-.4c-.1 0-.3 0-.3-.2v-.3Zm.1 0v.2s.2.1.3.2h.4s.1-.1.1-.2v-.2s-.2-.1-.3-.1h-.4s-.1.1-.1.2Zm.1-1.3h.3-.2v.2c0 .1 0 .2.1.3h.6s.1 0 .2-.1v-.3h-.3v-.4h.4v.4c0 .2 0 .3-.2.4q-.3.15-.6 0s-.2-.1-.2-.2v-.4Zm0-.9v-.3h.1l.4.2h.3v.4-.1h-.3l-.4.3v-.4l.3-.2-.3-.2h-.1Z"/><path class="cls-5" d="M24 10.3c-2.4 0-4.8 1-6.5 2.7s-2.7 4.1-2.7 6.5 1 4.8 2.7 6.5 4.1 2.7 6.5 2.7 4.8-1 6.5-2.7 2.7-4.1 2.7-6.5-1-4.8-2.7-6.5-4.1-2.7-6.5-2.7m-6.8 2.5C19 11 21.4 10 24 9.9c2.6 0 5 1 6.8 2.8s2.8 4.2 2.9 6.8c0 2.6-1 5-2.8 6.8s-4.2 2.8-6.8 2.9c-2.6 0-5-1-6.8-2.8s-2.8-4.2-2.9-6.8c0-2.6 1-5 2.8-6.8"/><path class="cls-5" d="M24 13c-1.7 0-3.4.7-4.6 2-1.2 1.2-1.9 2.9-1.9 4.7 0 1.7.7 3.4 2 4.6 1.2 1.2 2.9 1.9 4.7 1.9 1.7 0 3.4-.7 4.6-1.9s1.9-2.9 1.9-4.7c0-1.7-.7-3.4-2-4.6-1.2-1.2-2.9-1.9-4.7-1.9Zm-4.8 1.7c1.3-1.3 3-2 4.8-2s3.6.7 4.8 2c1.3 1.3 2 3 2 4.8s-.7 3.5-2 4.8-3 2-4.8 2-3.6-.7-4.8-2c-1.3-1.3-2-3-2-4.8s.7-3.6 2-4.8"/><path class="cls-1" d="m21.7 15.5-.3.2-.3.2-.3.2-.3.2-.2.2-.2.2-.2.2-.2.2-.2.2-.2.2v.2c-.1 0-.2.2-.2.2v.2c-.1 0-.3.2-.3.2v.3c-.1 0-.2.3-.2.3v.3l-.1.3v2l.2.3v.3c.1 0 .2.2.2.2l.2.2.2.2.2.2.2.2h.3c0 .1.3.2.3.2h2l.2-.1h.2l.3-.2h.3c0-.1.2-.2.2-.2h.3c0-.1.3-.3.3-.3h-1.5l-.2-.1h-.3l-.2-.2h-.2c0-.1-.2-.3-.2-.3l-.2-.2v-.2c-.1 0-.3-.2-.3-.2v-.2c-.1 0-.2-.3-.2-.3v-.3l-.1-.3v-1.5l.1-.3v-.3l.2-.4v-.3l.2-.3v-.3c.1 0 .2-.3.2-.3v-.2c.1 0 .4-.5.4-.5l.2-.4Z"/><path class="cls-1" d="M26.6 14.2h-.4c0 .1-.4.3-.4.3h-.4c0 .1-.4.3-.4.3l-.4.2-.4.2-.4.2-.4.3-.3.3-.3.3-.3.3-.3.4-.3.4-.2.4-.2.4-.2.4v.3c-.1 0-.2.3-.2.3v1.6l.2.3v.2c.1 0 .3.2.3.2l.2.2.2.2h.2c0 .1.2.2.2.2h.3c0 .1.3.2.3.2h2.1l.3-.1h.3l.3-.2h.3c0-.1.3-.2.3-.2h.2c0-.1.2-.2.2-.2h-1.3l-.3-.1h-.3c0-.1-.3-.3-.3-.3l-.3-.2-.2-.2v-.2c-.1 0-.3-.2-.3-.2v-.3l-.2-.3v-1.6l.2-.4v-.4c.1 0 .3-.4.3-.4l.2-.3.2-.3.2-.3.2-.3.2-.3.2-.2.2-.2.2-.2.2-.2.3-.3Z"/><path class="cls-1" d="M24 19.6h.1c0-.1.2-.3.2-.3h.2c0-.1.2-.3.2-.3h.2c0-.1.2-.2.2-.2h.2l.2-.2h.2c0-.1.2-.2.2-.2h.2c0-.1.2-.2.2-.2h.2l.2-.2h.2l.2-.2h.3l.2-.2h.2l.2-.1h1l.2.1h.2c0 .1.1.2.1.2v.2c.1 0 .2.2.2.2v.2l.2.2v.6c.1.9-.1 1.8-.4 2.6l-.2.4v.2l-.1.1v.2l-.2.1c0 .1-.1.2-.1.2h-.1l-.1.2h-.2v-.6.2c0 .1 0 0 0 0v.8l-.2.1h-.1v.4c-.1 0-.2.1-.2.1h-.1c0 .1-.1.2-.1.2 0 .1 0 0 0 0v.3-.8.7c0 .1 0 0 0 0v.5c0 .1-.1.2-.1.2v-.5.3l-.1.2h-.1v.2l.1-.2.1-.2h.1c0-.1.1-.3.1-.3v-.2c.1 0 .3-.1.3-.1h.1c0-.1.1-.3.1-.3 0-.1.1-.3.1-.3v-.2c.1 0 .2-.1.2-.1v-.8l.1-.2v-1.8l-.1-.1v-.2l-.2-.1c0-.1-.1-.3-.1-.3h-.1c0-.1-.1-.2-.1-.2h-.1l-.1-.1h-.1l-.2-.1h-2.1Z"/><path d="M16.8 14.7h.1v.1Zm15.1.7v.4l-.1.1h-.4v.2-.1h.1-.4v-.1H31h.1l-.1-.1v.1-.6s0-.2 0 0v-.2.2-.1Zm-2.8-1.8v.4h-.2v-.1c0-.1 0-.2.1-.3Zm.5-1v.2h-.1l-.1.1h.2v.1h-.3v-.1h.1-.2v-.2l.1-.1v-.1Zm-3-1.2s.3.2.2.3c0 0-.2 0-.2.1 0 0-.2.1-.2.2s0 0 .1 0v.1h-.6V12h.1l-.1-.1h.1s0 .1 0 0Zm-4.7-.2v.5c0 .1-.1 0-.2.1h-.1s.1-.1 0-.2v-.4.1h-.2v-.1Zm.8-.6h.2v.8h.1v.2s-.1 0-.2.1h-.2v-.4.1-.3s.1.2.2.3v-.2h-.1V11Zm-.1.3v.2zm-4.2 1.9h.1v.3-.3Zm.6-.8h.2v.6h.1v.5-.2h-.1v-.2h.1v-.2Zm.3.9v.1Zm-.2-.1s.1 0 .1-.1Zm.6.5h.1v-.1Zm-1 0h.2v.5h-.1s0-.1-.1-.2Zm-2.4 1.6h.1l.1.1s.1 0 .2.1V15v.1c.1.1.3.2.4.2l-.1-.1v-.1c.1 0 .2.1.3.2v.1c0 .1-.1 0-.2 0h-.2v1.2-.7.3h-.1v.1h-.1v-.7l-.1-.1Zm.7.6h.2s-.2 0-.2-.1Zm0 .2v.1h.1-.1Zm0 .6h.1v-.1Zm-.4-1h.1v.3h-.1v-.1Z" style="fill-rule:evenodd;fill:#fff"/></g></svg>