<svg width="128" height="128" fill="none" xmlns="http://www.w3.org/2000/svg"><path d="M87.2 98.057c-5.024-.084-9.535 1.42-13.487 4.517-.911.714-1.75 1.531-2.56 2.362-1.682 1.731-3.701 2.767-6.094 3.006-3.236.324-6.003-.715-8.25-3.06-1.773-1.85-3.747-3.414-6.04-4.571-2.277-1.151-4.676-1.913-7.216-2.162a33 33 0 0 0-3.624-.136c-4.988.068-9.404-3.843-9.856-8.794-.08-.887-.035-1.785-.059-2.677-.133-5.11-1.83-9.632-5.16-13.518-.777-.908-1.674-1.713-2.471-2.605-2.54-2.84-3.1-7.238-1.433-10.665.674-1.383 1.701-2.454 2.767-3.525 3.366-3.381 5.426-7.44 6.07-12.174.181-1.333.228-2.696.204-4.043-.093-5.015 3.746-9.423 8.748-9.938.838-.086 1.689-.045 2.534-.059 5.433-.088 10.163-1.978 14.214-5.577.658-.584 1.23-1.264 1.876-1.862 3.988-3.69 10.276-3.366 13.934.649 2.253 2.472 5 4.253 8.133 5.432 2.754 1.036 5.606 1.434 8.544 1.35 5.057-.144 9.481 3.759 9.96 8.78.083.885.036 1.783.058 2.675.13 5.206 1.905 9.78 5.313 13.711.753.868 1.662 1.605 2.38 2.498 2.56 3.183 3.005 6.687 1.418 10.446-.569 1.347-1.526 2.402-2.563 3.411-3.663 3.566-5.817 7.898-6.394 12.978-.152 1.338-.09 2.7-.149 4.049-.109 2.486-1.033 4.632-2.755 6.428-1.425 1.485-3.152 2.455-5.173 2.823-.94.172-1.911.173-2.869.25ZM41.242 30.919c-.259 0-.517.007-.776-.002-1.859-.061-3.607.345-5.172 1.355-3 1.934-4.46 4.712-4.372 8.283.035 1.439-.032 2.868-.276 4.286-.839 4.866-3.058 8.998-6.648 12.381-1.546 1.458-2.535 3.201-2.86 5.292-.422 2.72.206 5.193 1.973 7.32.688.828 1.533 1.524 2.247 2.333 3.52 3.994 5.394 8.653 5.568 13.983.028.88-.031 1.767.044 2.642.411 4.786 4.59 8.468 9.395 8.295 2.416-.087 4.786.179 7.103.874 3.605 1.084 6.727 2.972 9.382 5.644.602.606 1.211 1.225 1.9 1.721 3.67 2.639 8.898 2.084 11.952-1.228 2.58-2.797 5.684-4.784 9.299-5.965 2.504-.819 5.077-1.129 7.712-1.064a9.3 9.3 0 0 0 2.575-.303c4.188-1.111 6.95-4.908 6.806-9.24a21 21 0 0 1 .026-2.292c.39-5.156 2.348-9.635 5.865-13.427.59-.637 1.254-1.209 1.822-1.864 3.065-3.531 2.895-9.014-.399-12.325-1.095-1.101-2.195-2.189-3.111-3.45q-4.016-5.523-4.218-12.347c-.025-.88.031-1.767-.046-2.642-.42-4.768-4.6-8.437-9.387-8.263-1.793.065-3.57-.056-5.328-.431-4.5-.96-8.347-3.097-11.498-6.449-1.374-1.462-2.995-2.46-4.963-2.827-3.259-.609-6.106.224-8.446 2.604-1.015 1.033-2.055 2.03-3.227 2.885-3.857 2.813-8.177 4.2-12.942 4.22Z" fill="#c6001a"/><path d="M27.284 63.98c.031-20.462 16.782-36.768 36.811-36.7 20.466.07 36.839 16.9 36.626 37.095-.212 20.148-16.74 36.429-36.845 36.344-20.454-.086-36.627-16.825-36.592-36.74Zm36.763-35.682C44.333 28.262 28.133 44.406 28.3 64.32c.164 19.443 16.049 35.38 35.711 35.386 19.718.005 35.906-16.16 35.694-36.105-.206-19.443-16.11-35.28-35.658-35.303" fill="#c6001a"/><path d="M80.09 79.444h-3.13c-4.397 0-8.795.003-13.193-.01a.86.86 0 0 1-.543-.228c-.862-.833-1.704-1.688-2.552-2.535-.099-.099-.202-.193-.387-.37-.143.179-.26.356-.406.504q-1.214 1.23-2.447 2.44c-.099.098-.256.19-.387.19-2.61.011-5.22.009-7.915.009.14-.152.233-.26.334-.36.884-.876 1.802-1.72 2.64-2.638.386-.423.678-.962.903-1.495.459-1.09.284-2.126-.498-3.024-1.474-1.694-2.962-3.375-4.444-5.061q-.121-.14-.246-.29c.761 0 1.498-.013 2.233.004 1.587.035 3.173.098 4.76.123.334.005.524.091.613.42.054.2.16.387.244.581-.198.235-.362.207-.49-.042-.18-.346-.456-.43-.838-.429-1.469.002-2.938-.035-4.408-.056-.16-.003-.319 0-.573 0 .152.182.243.296.34.405l3.217 3.65c1.344 1.526 1.505 3.158.382 4.874-.478.729-1.117 1.352-1.687 2.02-.08.093-.18.17-.332.311.593.036 1.046.092 1.46-.393.8-.938 1.678-1.81 2.532-2.701 1.223-1.276 1.47-2.755.937-4.402l-.065-.209.626-.344c.352.696.471 1.403.477 2.136q.014 1.83-1.247 3.16c-.752.795-1.496 1.595-2.243 2.393-.093.099-.181.201-.341.38.565 0 1.03.014 1.492-.01.104-.006.216-.127.3-.219a835 835 0 0 0 2.853-3.125c.102-.112.189-.238.296-.376l.6.532-1.382 1.587-1.372 1.58c.488.056.85.078 1.206-.288.941-.967 1.933-1.886 2.933-2.85l1.91 1.832c.339.326.709.626 1.008.985.333.4.732.388 1.26.324l-2.78-3.174.57-.5.695.755c.833.911 1.66 1.828 2.506 2.727.112.119.31.201.476.214.394.03.791.01 1.28.01-.134-.16-.208-.256-.29-.345-.77-.825-1.555-1.637-2.31-2.474-1.37-1.516-1.513-3.242-.83-5.096.016-.043.047-.079.088-.144l.597.3c-.092.435-.21.851-.262 1.276-.154 1.252.208 2.347 1.074 3.268.854.908 1.749 1.78 2.556 2.726.418.49.869.555 1.503.378-.107-.079-.224-.147-.32-.237-.824-.766-1.558-1.601-2.02-2.642-.656-1.476-.488-2.84.58-4.067 1.129-1.293 2.268-2.577 3.401-3.865.082-.093.161-.188.293-.343-.676 0-1.269-.005-1.861.002-1.023.01-2.045.048-3.068.034-.404-.006-.704.077-.895.453-.11.218-.265.242-.466.021.116-.274.228-.569.369-.849.036-.07.163-.134.25-.137q3.525-.1 7.052-.189c.041 0 .083.015.18.033-.365.42-.7.808-1.037 1.193-1.155 1.316-2.285 2.656-3.475 3.94-1.073 1.159-1.201 2.508-.41 3.886.653 1.14 1.622 1.994 2.66 2.835.634-1.23.851-2.497.736-3.844-.115-1.35-.611-2.513-1.61-3.472.677-.109 14.565-.024 15.416.093a21.7 21.7 0 0 0 1.196-7.453 22 22 0 0 0-2.395-9.785c-.282.315-.53.59-.774.868-.76.866-1.516 1.736-2.281 2.596-.085.096-.223.2-.34.203-.656.02-1.313.01-1.97.01l-.078-.087c.074-.085.133-.216.226-.247.31-.105.629-.205.952-.252.534-.077.915-.347 1.248-.761.485-.604 1.016-1.172 1.525-1.757.073-.084.134-.178.248-.33-.782.072-1.48.134-2.179.201q-4.16.396-8.317.799a5.16 5.16 0 0 0-2.774 1.125c-.967.78-1.883 1.626-2.795 2.47-.906.84-1.772 1.728-2.87 2.322-2.593 1.402-5.15 1.277-7.535-.424-1.13-.806-2.095-1.843-3.119-2.792-1.063-.987-2.12-1.99-3.542-2.43-.632-.196-1.307-.28-1.969-.346-3.134-.315-6.27-.607-9.405-.906-.054-.005-.109 0-.23 0 .092.128.144.213.208.286.618.71 1.23 1.423 1.863 2.12.124.137.313.243.493.299.448.14.91.232 1.36.367.1.03.172.158.256.24l-.068.1c-.669 0-1.337.005-2.005-.005a.37.37 0 0 1-.234-.12c-1.222-1.382-2.439-2.768-3.707-4.21.172 0 .28-.01.386 0 1.837.177 3.675.346 5.51.541.357.038.534-.055.697-.387 1.392-2.846 3.322-5.282 5.696-7.372.044-.038.094-.069.145-.106l.776 1.133c-2.197 1.94-4 4.2-5.346 6.894.443.047.845.093 1.247.131 1.111.107 2.224.202 3.334.318 1.506.157 2.782.835 3.895 1.822.816.724 1.586 1.502 2.374 2.258.936.898 1.883 1.801 3.12 2.254 2.32.85 4.505.55 6.423-1.039 1.066-.882 2.037-1.878 3.045-2.828 1.036-.974 2.132-1.879 3.54-2.226.884-.218 1.805-.3 2.715-.39 3.204-.32 6.41-.615 9.616-.922.089-.008.176-.034.27-.052-3.846-7.554-14.446-14.585-26.903-10.47l-.602-1.251c.556-.174 1.103-.372 1.663-.517 6.483-1.67 12.64-.874 18.411 2.538 3.788 2.24 6.705 5.346 8.787 9.227 1.677 3.125 2.59 6.46 2.767 10.004a23.5 23.5 0 0 1-1.157 8.544c-.084.259-.037.392.174.555 1.32 1.021 1.864 2.848 1.376 4.546-.469 1.63-1.739 2.703-3.46 2.873-.665.066-1.339.086-2.006.058-.457-.02-.755.135-1.052.469-1.966 2.213-4.286 3.974-6.925 5.308a23.2 23.2 0 0 1-9.715 2.52c-4.808.18-9.27-.979-13.366-3.503-4.108-2.53-7.162-6.008-9.191-10.375-1.267-2.725-1.957-5.602-2.113-8.608a23 23 0 0 1 .503-6.2c.073-.325-.022-.541-.284-.788.146-.011.23-.025.315-.023 3.538.066 7.076.137 10.614.194.255.005.38.086.464.317.119.33.268.65.407.981-.199.205-.384.27-.527-.023-.269-.549-.706-.65-1.289-.656-2.668-.028-5.336-.109-8.004-.17-.136-.004-.271 0-.513 0 .419.473.725.915 1.127 1.239.232.187.618.184.935.265.291.075.291.075.219.442-.46 0-.928.013-1.394-.01-.103-.006-.21-.13-.297-.22-.17-.173-.326-.36-.505-.56-1.609 7.23 1.177 17.99 11.134 23.525 9.983 5.548 21.118 2.246 26.899-4.112Zm-8.544-.776h.432c2.727 0 5.453.004 8.18-.001 1.468-.003 2.937-.004 4.405-.042.642-.017 1.26-.198 1.757-.637 1.002-.888 1.226-2.05 1.071-3.307-.114-.927-.478-1.745-1.288-2.292-.648-.438-1.388-.558-2.15-.558-4.008-.004-8.016-.002-12.023-.002-.122 0-.243.013-.372.02.936 2.286.95 4.528-.012 6.82Z" fill="#c6001a"/><path d="M49.749 44.086c-.003-1.515 1.27-2.773 2.798-2.763 1.52.011 2.765 1.277 2.76 2.806-.004 1.513-1.273 2.766-2.802 2.766-1.51 0-2.753-1.266-2.756-2.81ZM33.896 59.779c.137.56.248 1.07.395 1.57.035.122.178.226.294.305.093.063.25.043.325.115.148.142.259.322.385.487-.154.114-.308.23-.464.34-.035.025-.082.03-.12.044.028.615.809 1.086 1.296 1.18.092.017.175.08.262.123-.048.084-.078.188-.146.248-.387.343-1.479.443-1.906.15-.135-.092-.297-.317-.267-.436.045-.18.248-.32.38-.472-.17-.282-.339-.677-.61-.98-.22-.247-.555-.396-.853-.564-.19-.107-.405-.171-.637-.266-.038.067-.07.171-.14.236-.1.096-.243.241-.34.222-.126-.025-.295-.174-.323-.297-.1-.444-.218-.904-.2-1.352a54 54 0 0 1 .264-3.36c.02-.184.201-.372.35-.513.059-.055.282-.03.343.038.06.067.042.243.005.353-.203.614-.164 1.237-.14 1.836.19-.181.347-.44.563-.508.207-.066.476.065.741.114.033-.28.057-.601.11-.919.057-.344.252-.425.553-.239.128.08.24.187.36.281.76.602 1.537 1.184 2.273 1.814.313.267.59.605.795.961.254.441.088.765-.372.987-.087.042-.183.19-.175.281.028.337.131.669.14 1.004.008.254-.071.515-.145.763-.014.046-.222.095-.278.055a1.4 1.4 0 0 1-.366-.39c-.087-.142-.084-.346-.182-.477-.67-.887-1.356-1.762-2.038-2.64-.02-.025-.053-.04-.132-.094m2.957.969c.196-.28.17-.421-.176-.707-.486-.4-.985-.783-1.46-1.194-.435-.375-.839-.784-1.273-1.16-.067-.057-.294-.06-.322-.013-.19.319.003 1.127.273 1.4.434.439.85.897 1.267 1.353.32.35.628.71.942 1.066.063-.14.084-.27.04-.373-.136-.315.122-.45.285-.601.036-.033.257.136.424.229m-3.513.638v-1.883c.001-.358-.194-.577-.62-.635l.094 1.606-.107.025-.498-.888c0 .469-.006.839.005 1.208.002.065.06.162.117.186.327.135.662.252 1.01.38Zm47.815-19.632c-.08-.412-.246-.686-.537-.896-.091-.066-.215-.228-.19-.285.05-.11.188-.189.304-.255.156-.09.326-.156.49-.232l-.01-.132c-.515-.057-1.029-.137-1.545-.16-.282-.014-.572.051-.849.119-.108.026-.198.15-.283.241-.278.299-.528.63-.836.89-.114.098-.362.036-.55.047-.005-.136-.042-.278-.011-.404.067-.271.169-.533.27-.84-.507-.082-.697-.476-.899-.913.092-.011.166-.044.214-.021.61.29 1.267.181 1.903.226.323.023.579-.14.706-.513-.304-.142-.816-.128-.59-.747.318.038.666.047.998.127.335.081.556-.062.796-.248.342-.268.704-.512 1.108-.802.04.5.09.902.09 1.304.001.091-.153.234-.261.265-.426.118-.864.19-1.291.302-.193.05-.371.154-.556.233l.035.17c.552.043 1.103.09 1.656.129.368.026.755.118 1.05-.206.174-.19.322-.402.498-.59.144-.153.275-.398.544-.244.17.097.174.506.022.711-.095.13-.208.246-.39.458l.76-.138c.074.426.015.483-.435.602-.614.163-1.283.103-1.848.458-.037.024-.077.042-.186.1.354.11.645.203.938.292.112.034.231.048.338.093q.623.268.102.693c-.252.205-.639.345-.741.602-.096.242.094.603.172.908.06.238.125.476.216.703.18.45.06.936-.33 1.219-.162.117-.263.055-.289-.132a207 207 0 0 1-.302-2.218c-.036-.277-.124-.45-.459-.421-.3.025-.615.032-.906-.032-.776-.174-.938-.805-.429-1.36.183.312.31.726.59.935.185.139.59-.014.923-.038m.379-.678c.027.245.048.493.34.487.102-.001.302-.208.283-.27-.096-.319-.375-.213-.623-.217m-4.046-1.256.138.292.419-.242-.05-.077zM40.22 47.2c.508.179.99.344 1.47.518.344.125.41.366.114.55-.342.212-.408.48-.404.85.005.553-.502 1.105-1.087 1.178.38-.395.815-.716.735-1.233-.302.048-.607.184-.848.11-.268-.08-.478-.354-.729-.556-.235.463-.532 1.016-.797 1.584-.134.285-.192.605-.319.895-.056.13-.198.221-.306.337-.315-.166-.172-.396-.1-.583q.305-.784.648-1.553c.18-.405.397-.794.572-1.201.058-.136.09-.322.046-.456a8 8 0 0 0-.441-1.072c-.058-.118-.207-.19-.314-.284-.04.118-.11.236-.112.355-.008.536.017 1.074.002 1.61-.014.51-.198.697-.653.691-.095 0-.238-.056-.276-.13-.403-.784-.777-1.58-.763-2.494 0-.031.024-.062.078-.194l.823 1.264c.063-.502.13-.956.168-1.412.006-.079-.094-.18-.166-.25-.476-.465-.692-1.045-.761-1.692-.027-.252.024-.473.28-.588.265-.12.464.021.617.206.184.223.334.473.37.584q.367-.263.734-.522c.427-.302.91-.164 1.007.346.132.687.125 1.376-.356 1.973-.358.442-.116.876.05 1.371.581-.992.957-2.08 2.059-2.563-.518.74-1.175 1.39-1.342 2.36Zm-1.175-1.456h.147c.03-.497.066-.993.083-1.49.003-.08-.065-.184-.132-.24-.057-.047-.173-.079-.238-.053-.19.074-.432.863-.325 1.046.146.251.309.492.465.737m1.096 1.704c-.356.548-.356.738-.04 1.138.088.113.18.305.35.126.151-.16.549-.233.314-.578-.166-.243-.398-.442-.624-.686m-2.364-1.958c.218-.48-.063-1.23-.582-1.6a2.84 2.84 0 0 0 .582 1.6m7.936-4.42h-.575q.068-.31.131-.623c.037-.184.082-.368.094-.554.003-.05-.103-.144-.161-.146-.05-.002-.128.09-.152.155a4 4 0 0 0-.153.541c-.106.5-.467.71-.92.795-.117.022-.253-.053-.38-.083.047-.113.082-.233.144-.336.274-.46.557-.914.835-1.37.179-.295.152-.572-.088-.82-.24-.245-.276-.47-.028-.753.117-.133.128-.358.225-.66l-1.213.278c.116-.21.17-.356.263-.469.461-.561.919-1.128 1.41-1.663.161-.176.407-.32.639-.373.253-.058.362.148.224.378-.364.613-.75 1.214-1.108 1.83-.148.254-.405.509-.058.83.086.08.04.301.056.458l.091.036c.107-.194.205-.392.322-.58.167-.267.333-.537.527-.784.143-.182.355-.255.563-.104.203.149.188.345.084.565-.146.306-.236.642-.403.935-.14.244-.355.444-.554.683l.139.192c.251-.094.45-.218.658-.233.32-.024.366.079.256.378q-.286.772-.561 1.549c-.026.072-.02.157.035.268q.336-.515.674-1.027c.117-.176.206-.401.37-.504.153-.095.395-.091.583-.054.057.01.111.287.084.425-.086.431-.205.856-.323 1.28-.1.358.155.669.497.549.691-.242 1.239-.707 1.702-1.26.079-.094.065-.335.004-.467-.197-.42-.433-.82-.66-1.226-.063-.113-.145-.216-.177-.357.148.318.66.285.715.713.067.048.172.096.239.176.21.25.404.515.608.77.132.168.133.318-.038.458-.743.61-1.467 1.239-2.377 1.608-.335.136-.545.07-.715-.205-.135-.217-.262-.368-.563-.277-.078.023-.216-.15-.344-.247-.014.126-.003.312-.06.474-.045.13-.171.232-.261.346-.108-.117-.29-.225-.307-.354-.038-.287.01-.584.019-.877.002-.093-.008-.186-.012-.263Zm.863.192c.46-.106.506-.207.45-.914-.144.29-.29.588-.45.914m-.796-3.128-.16-.106-.326.648.142.077zm19.157 54.523h.917v5.333c-.304 0-.597.026-.881-.013-.115-.016-.248-.155-.309-.272-.52-1-1.026-2.008-1.538-3.013a.7.7 0 0 0-.252-.296v3.565h-.897v-5.315c.302 0 .615-.02.924.012.09.01.192.153.246.256.515 1.003 1.02 2.012 1.529 3.017a.76.76 0 0 0 .26.32zm-14.083 2.725c-.078 0-.091.004-.1 0-.888-.37-.889-.37-.9-1.336q-.016-1.374-.028-2.749-.002-.203 0-.407l-.096-.024-1.599 3.227-.823-.402 2.355-4.786c.282.137.56.239.795.402.105.072.171.267.174.408.021 1.116.023 2.232.03 3.348v.408l.092.025 1.612-3.26.826.404zm-9.936-14.505c.474.695 1.114 1.239 1.375 2.049.237.737.13 1.427-.329 2.035-.587.78-1.339 1.308-2.362 1.33-.717.014-1.299-.308-1.781-.794-.395-.397-.734-.849-1.132-1.316zm-3 3.547c.454.6.92 1.092 1.695.94.855-.167 1.537-.623 1.83-1.475.239-.695-.123-1.24-.584-1.76zm43.121 6.266 1.285 1.855-.779.54-3.067-4.404c.64-.406 1.237-.841 1.887-1.176.51-.263 1.04-.132 1.454.284.403.403.572.88.356 1.444-.028.075-.06.147-.071.172l2.424 1.598c-.28.196-.504.375-.75.514-.069.038-.22-.013-.303-.068-.46-.305-.907-.628-1.364-.936-.408-.275-.683-.23-1.072.177m-.48-.685c.4-.252.805-.453.81-.97.002-.304-.146-.571-.43-.673-.495-.176-.835.162-1.218.433zm-23.58 1.828.906.18c-.09.49-.173.95-.262 1.407-.122.623-.255 1.243-.368 1.868a2.6 2.6 0 0 0-.038.665c.032.41.273.666.668.762.39.094.768-.011.93-.378.186-.423.293-.886.391-1.341.186-.86.341-1.727.516-2.626l.934.186-.57 2.928q-.054.277-.111.553c-.235 1.12-1.104 1.686-2.222 1.445-1.144-.247-1.684-1.057-1.464-2.208q.292-1.523.593-3.045c.024-.124.06-.246.097-.396M37.233 74.069c.151.333.298.612.4.907.031.094-.034.244-.096.342-.306.482-.626.955-.981 1.493.492.06.918.159 1.341.15.563-.01.863.243.999.76.023.088.07.17.127.306-.86-.129-1.683-.234-2.498-.382-.347-.063-.555.003-.747.319-.415.681-.875 1.335-1.317 2-.07.104-.145.205-.25.354-.149-.325-.29-.593-.39-.874-.033-.095.011-.246.07-.339.367-.57.749-1.131 1.167-1.757-.665-.078-1.262-.18-1.863-.206-.37-.016-.55-.173-.66-.494-.059-.174-.146-.34-.244-.563.953.133 1.848.234 2.734.39.416.073.662-.016.883-.391.4-.675.86-1.314 1.325-2.015m8.766 18.83c-.054-.012-.067-.011-.077-.017-.757-.475-.75-.473-.489-1.335.199-.655.245-.463-.289-.869-.28-.213-.576-.406-.849-.628-.19-.156-.345-.195-.548-.016-.184.162-.411.274-.6.431-.195.164-.357.181-.55-.001-.142-.135-.31-.242-.498-.384.875-.582 1.713-1.141 2.552-1.697.646-.428 1.3-.845 1.94-1.281.187-.128.327-.139.492.019.102.096.245.152.334.256.07.082.145.226.12.314-.503 1.735-1.02 3.466-1.538 5.208m.474-4.63-.065-.06-1.69 1.163 1.139.835.616-1.939Zm33.742-30.047c-.615.704-1.21 1.322-1.727 1.998-.368.481-.78.696-1.373.608-.218-.032-.444-.005-.673-.005-.076-.234-.09-.422.206-.438.746-.04 1.253-.45 1.658-1.034.099-.142.227-.265.39-.453-.16-.012-.255-.027-.35-.025-2.892.064-5.783.135-8.675.187-.431.008-.52.359-.706.602-.177.233-.32.326-.575.066.157-.373.303-.768.495-1.139.047-.092.245-.147.375-.15 1.751-.04 3.503-.068 5.254-.102 1.869-.036 3.737-.075 5.701-.115m-3.272 37.15-2.26-4.838 2.584-1.211.34.718-1.718.817.58 1.235 1.642-.755.339.71-1.639.78.653 1.41 1.824-.835.34.715zm-3.358-4.337c-.06 1.04-.116 2.035-.175 3.03-.047.797-.108 1.594-.141 2.392-.013.304-.247.279-.419.323-.183.048-.387.22-.564-.044q-1.48-2.189-2.966-4.374c-.018-.027-.022-.065-.033-.097.022-.015.04-.032.06-.039.853-.297.854-.297 1.347.457l1.461 2.242c.075.116.156.227.299.433.032-.554.063-1.002.084-1.45.034-.728.077-1.456.086-2.184.004-.318.084-.513.426-.552.161-.018.317-.079.535-.136Zm-2.892-55.652-.795.48c-.11.065-.218.15-.339.178-.093.021-.204-.034-.306-.054.05-.09.079-.215.156-.265.33-.215.676-.41.97-.584-.056-.205-.089-.36-.145-.504a.4.4 0 0 0-.158-.19c-.397-.223-.42-.29-.248-.728.039-.1.014-.224.045-.329.047-.16.077-.393.189-.451.161-.084.424-.111.582-.035.259.124.21.429-.06.62l-.462.325.038.109c.22 0 .444-.033.656.007.39.073.339-.219.395-.429.138-.519.255-1.045.426-1.553.041-.123.265-.267.39-.255.104.01.254.233.261.368.01.172-.11.35-.164.528q-.247.796-.494 1.607c.632-.006.956-.542.923-1.464.292-.014.481.18.465.482-.034.612-.31 1.061-.874 1.332-.684.33-.953.872-.833 1.626.036.228.088.452-.171.625-.078.051-.066.253-.076.388-.012.15-.003.303-.003.509.01.037.057.132.05.222-.035.423-.062.85-.142 1.265-.026.14-.18.297-.315.361-.164.079-.371.078-.561.082-.024 0-.089-.182-.072-.268.188-.962.391-1.92.584-2.882.07-.349.122-.7.182-1.051zM84.674 85.04c-.335.213-.664.389-.953.615-.25.196-.339.482-.193.792s.424.35.72.293c.39-.074.776-.182 1.168-.252.712-.125 1.324.156 1.653.737.343.605.281 1.277-.236 1.815-.296.308-.668.543-1.01.806-.194.148-.356.118-.505-.087-.116-.16-.265-.295-.418-.46.282-.114.547-.199.793-.323.324-.163.583-.4.637-.788.056-.404-.231-.76-.639-.758-.231.001-.464.058-.694.1-.277.051-.55.128-.828.168-.67.094-1.171-.179-1.499-.757-.278-.493-.186-1.141.265-1.628.26-.281.587-.5.891-.737.194-.152.359-.105.505.09.105.139.236.259.343.374m1.516-38.495c.153.07.274.108.375.175.445.294.859.651 1.335.877.26.122.656.12.932.015.88-.33 1.733-.733 2.594-1.108.25.332.124.73-.286.946a37 37 0 0 0-1.05.567c-.105.06-.193.15-.329.26.595.302 1.152.317 1.74.169-.208.35-.563.44-.883.58-.603.265-1.222.059-1.834.043-.172-.004-.343-.088-.514-.087-.18.002-.361.062-.54.1-.045.01-.085.055-.127.055-.71.01-1.425.25-2.13-.011-.095-.035-.152-.171-.227-.26.082-.065.155-.166.246-.186.454-.103.916-.175 1.37-.276.338-.076.375-.215.135-.475a5 5 0 0 0-.531-.508c-.271-.215-.357-.476-.276-.876m2.651 31.443c.138-.321.231-.588.367-.831.048-.087.194-.154.303-.166.572-.066 1.146-.11 1.719-.164.124-.012.246-.034.433-.06-.407-.531-.754-1.033-1.155-1.488-.266-.303-.31-.572-.106-.907.085-.138.14-.294.225-.476.634.844 1.233 1.669 1.866 2.468.18.227.433.421.692.554.52.266 1.066.479 1.624.723l-.375.865c-.615-.264-1.203-.524-1.8-.764a1.1 1.1 0 0 0-.504-.08c-.888.082-1.775.184-2.663.277-.186.02-.372.03-.626.05Zm-31.87-40.009c.228-.2.553-.35.596-.557.068-.333-.051-.704-.095-1.092-.42.239-.759.471-1.13.624-.179.074-.44.05-.628-.023-.221-.085-.094-.276.03-.353.406-.253.815-.508 1.25-.701.242-.108.37-.223.357-.485-.006-.117.01-.236-.006-.351-.145-1.06.445-1.767 1.142-2.433a.83.83 0 0 0 .227-.469c-.275.16-.556.31-.822.482-.479.31-.956.622-1.42.954-.356.257-.727.375-1.148.211-.085-.033-.205-.139-.199-.2.01-.094.095-.225.181-.26 1.168-.485 2.34-.957 3.512-1.43.044-.018.092-.05.133-.042.191.037.381.084.572.128-.06.187-.069.424-.191.55-.347.356-.72.695-1.121.986-.377.272-.51.616-.486 1.05.007.13.033.257.045.385.046.457.071.464.511.27.3-.132.605-.257.92-.34.116-.032.321.023.384.11.062.087.035.287-.025.398-.081.15-.23.264-.351.393l-.083-.063.193-.395-.053-.065c-.264.155-.514.347-.795.457-.519.2-.56.535-.393.998.078.217.074.461.117.691.101.55-.13.809-.688.738-.178-.022-.348-.106-.535-.166Zm10.527 24.817-.33-.155c.14-.337.254-.671.42-.977.052-.095.245-.156.374-.16 1.739-.04 3.477-.07 5.216-.1l3.771-.066c.15-.003.299 0 .533 0l-.848.968-.397.449c-.793.905-.793.905-2.027.778-.071-.191-.045-.305.194-.367.861-.22 1.044-.366 1.633-1.254-.16 0-.278-.003-.395 0-2.443.054-4.886.112-7.33.16-.224.004-.378.063-.49.258-.088.152-.2.29-.324.466m-22.868-.882c.486.594.831 1.199 1.617 1.258.094.007.177.157.266.241-.1.05-.195.125-.3.144-.72.126-1.273-.091-1.707-.72-.356-.515-.815-.958-1.27-1.48.695 0 1.323-.01 1.95.002 2.478.043 4.955.1 7.433.132.334.004.527.092.612.418.041.157.116.308.191.454.111.215.09.361-.258.412 0 0-.026-.054-.05-.11-.237-.527-.664-.602-1.2-.608-2.231-.022-4.462-.091-6.693-.142-.17-.004-.341 0-.59 0Zm43.726 16.802.66.425-.687 1.086 3.777 2.498-.517.793-3.785-2.492-.724 1.062-.656-.438zM46.941 64.614c.42.446.665.987 1.322 1.046.097.009.183.152.273.233-.104.044-.205.109-.314.128-.623.112-1.09-.086-1.463-.627-.322-.468-.743-.867-1.176-1.36.264 0 .446-.003.628 0 2.445.046 4.889.105 7.334.124.48.004.78.12.886.607.025.112.084.217.128.329-.184.222-.338.18-.46-.043-.135-.246-.338-.31-.61-.316-2.08-.04-4.16-.094-6.24-.143-.078-.001-.156.01-.308.022m28.137-.533c-.555.63-1.074 1.265-1.654 1.839-.14.14-.484.1-.734.096-.173-.003-.487-.072-.493-.137-.031-.293.266-.236.431-.267.56-.106.722-.626 1.125-.975-.111-.026-.163-.05-.214-.048-2.102.049-4.203.105-6.305.146-.283.005-.496.07-.64.326-.115.205-.268.248-.46.034.1-.24.171-.507.318-.724.074-.111.281-.182.43-.186q2.695-.065 5.39-.102c.914-.012 1.83-.002 2.806-.002m22.027-4.951-.246.404c.202.286.429.559.597.864.093.167.088.389.128.586-.188.009-.4.079-.56.015-.542-.216-1.086-.446-1.59-.739-.21-.122-.324-.414-.481-.63l.075-.049 1.156.462c.052.22.551.522 1.09.564.01-.019.036-.043.03-.056-.33-.807-.928-1.33-1.743-1.609-.063-.022-.178.054-.246.11-.07.059-.097.172-.17.219s-.181.045-.274.065c-.012-.103-.074-.245-.029-.302.24-.303.125-.464-.175-.61-.123-.06-.211-.188-.27-.347l.8.347.083-.105c-.19-.2-.37-.413-.575-.597-.147-.131-.335-.216-.494-.335-.085-.065-.224-.186-.207-.235a.44.44 0 0 1 .25-.248c.275-.078.562-.113.844-.164l.081.082-.626.415.502.445 1.15-.515c-.163.43-.354.742-.774.932.323.34.583.728 1.091.769l.102-.107-.702-.486.086-.103.447.233.103-.438c.035.004.074.002.075.009.173.79.872.957 1.47 1.241.208.1.428.175.666.271-.12.27-.318.297-.543.194-.371-.172-.735-.36-1.121-.552M62.78 83.043c-.214.078-.353.144-.498.177-.652.148-1.221-.2-1.343-.81-.12-.6.277-1.17.905-1.298.92-.187 1.584.298 1.664 1.235.056.646.038 1.286-.514 1.747-.462.385-.998.383-1.529.18a.64.64 0 0 1-.347-.365c-.035-.125.087-.296.139-.446.146.055.352.069.425.175.124.181.158.418.465.371.31-.047.47-.246.555-.52.04-.13.048-.269.078-.446m-1.062-.879c0 .41.172.626.5.629.325.002.518-.225.52-.616.002-.414-.195-.66-.522-.651-.315.008-.498.243-.498.639Zm5.466 10.304.943-.12.673 5.289-.947.122zM35.498 82.414l-.488-.816 4.555-2.772c.17.275.326.531.497.811zM92.042 59.71l.431.403.103-.105c-.2-.171-.39-.358-.606-.505-.087-.059-.239-.06-.35-.038-.666.136-1.326.305-1.995.418-.163.028-.379-.079-.518-.19-.049-.039.048-.28.099-.421q.244-.675.504-1.346c.065-.166.146-.325.25-.555v1.483c.001.28.117.393.418.361.313-.033.633 0 .95-.003.123 0 .247-.015.438-.029-.277-.471-.359-.912-.068-1.44.203.25.4.454.555.687a56 56 0 0 1 1.489 2.35c.075.127.01.416-.093.55-.136.175-.316.038-.442-.105l-1.254-1.433zm-2.49 26.432c-.218.26-.406.481-.612.725l-4.063-3.462.614-.725zm-48.535 2.911-.685-.654 3.829-3.716.656.68zm26.311-53.906c-.12.262-.238.527-.363.788-.13.273-.106.615-.44.8-.275.154-.423.09-.576-.15-.272-.429-.249-.685.079-.849.437-.219.869-.45 1.297-.685.43-.237.466-.68.612-1.156-.24.064-.403.127-.57.145-.08.008-.169-.069-.253-.107.04-.086.059-.214.127-.251.245-.136.51-.237.761-.36a.9.9 0 0 0 .282-.193c.123-.142.221-.28.422-.097.03.027.14-.046.215-.054.12-.013.24-.01.36-.015.002.162.051.344-.009.478-.043.096-.226.161-.356.18-.375.057-.592.278-.686.62-.136.494-.245.994-.373 1.489-.14.542-.29 1.082-.431 1.625a1.6 1.6 0 0 0-.048.312c-.03.48-.172.578-.661.44l.769-2.891-.158-.07ZM66.172 82.61c.383.173.584.433.54.842-.049.442-.325.736-.718.82-.4.085-.836.09-1.24.029-.396-.06-.668-.446-.588-.757a.53.53 0 0 1 .356-.327c.093-.015.32.2.318.308-.005.25.063.385.304.422.259.04.5.005.64-.251.22-.407-.003-.85-.463-.873-.286-.014-.352-.119-.275-.394.124-.025.284-.016.386-.088.13-.093.272-.242.296-.385.02-.121-.09-.337-.2-.389-.136-.063-.338-.024-.496.023-.052.015-.092.2-.075.295.044.243-.07.37-.278.406-.23.04-.392-.07-.423-.314-.038-.304.114-.525.357-.676.452-.281.941-.296 1.418-.095.629.265.687.816.141 1.404m27.304-23.316.887.529.072-.061c-.053-.092-.09-.197-.16-.272-.737-.785-1.49-1.556-2.214-2.352a5.8 5.8 0 0 1-.683-.964c-.132-.225-.07-.47.175-.604.069-.038.243-.008.289.051.625.817 1.25 1.634 1.847 2.473.413.581.785 1.194 1.168 1.797.14.22.113.423-.124.567-.235.143-.331-.055-.458-.187q-.435-.451-.873-.9zM58.227 84.34c-.067-.241-.052-.37.189-.393.222-.022.312-.17.309-.394a72 72 0 0 1-.002-1.48c.002-.214-.057-.356-.302-.393-.082-.012-.148-.132-.222-.202.08-.06.153-.153.241-.172.316-.07.637-.115 1.021-.18v1.009c0 .458.008.916-.004 1.374-.006.251.084.39.336.452.087.022.147.15.219.229-.09.05-.177.141-.267.144-.503.014-1.007.007-1.518.007Zm11.385-.342c.071.25.004.352-.244.347-.502-.012-1.004-.004-1.523-.004-.045-.216-.078-.369.194-.397.224-.024.305-.178.3-.4-.008-.493-.004-.986-.002-1.478.001-.218-.068-.364-.314-.377-.25-.013-.235-.17-.18-.344l1.23-.219v.683l.002 1.515c.001.552.002.552.537.674m-2.336-50.811c.376-.355.744-.72 1.132-1.063.34-.3.694-.588 1.061-.855.107-.077.28-.063.422-.091-.003.157.031.328-.017.47-.116.344-.408.52-.722.67-.61.295-1.216.6-1.824.901zm19.752 16.411c.116.101.26.184.344.307q.38.555.707 1.14c.042.078-.024.232-.077.333-.011.022-.176-.026-.266-.054-.237-.074-.471-.154-.72-.237.432-.528.017-.966.012-1.49ZM73.75 75.616v-.738c.12-.007.233-.02.345-.02 3.793-.001 7.587 0 11.38-.005.27 0 .473.066.482.375.008.299-.165.411-.447.411l-11.557-.003c-.056 0-.113-.01-.204-.02Z" fill="#c6001a"/></svg>