<svg xmlns="http://www.w3.org/2000/svg" viewBox="0 0 128 40.9"><defs><style>.cls-2{fill:#c6001a}</style></defs><g id="_图层_1" data-name="图层_1"><path d="m50.1 26.2 1.1 1.5c.2.3.3.4.4.5h.3c0 .1-2 .1-2 .1.2-.1.3-.1.3-.2V28s0-.2-.2-.3l-.6-.8-.6.7c-.2.2-.3.4-.3.4v.2h.5c0 .1-1.6.1-1.6.1.2-.1.3-.2.4-.2s.3-.3.6-.5l.8-.9-1.1-1.4c0-.1-.2-.3-.3-.4 0 0-.1 0-.2-.1h-.2c0-.1 2.1-.1 2.1-.1 0 .1-.1.1-.1.1h-.2v.2l.2.3.5.7.4-.5c.2-.2.3-.4.3-.5v-.1h-.4c0-.1 1.5-.1 1.5-.1 0 .1-.2.1-.3.1 0 0-.2 0-.2.1l-.4.4-.8.9Zm4.3 2.1c0 .1-2.2.1-2.2.1 0-.1.1-.1.1-.1h.3l.1-.1V25s0-.1-.1-.1h-.4c0-.1 2.2-.1 2.2-.1 0 .1-.1.1-.1.1H54s-.1 0-.1.1v3.2l.1.1zm.4.1c0-.1.1-.1.1-.1h.3s.1 0 .1-.1V25s0-.1-.1-.1h-.4c0-.1 1.9-.1 1.9-.1.5 0 .9 0 1.2.2.4.2.6.4.8.7s.3.6.3 1 0 .5-.1.7c0 .2-.2.4-.4.6-.1.1-.3.3-.5.3s-.5.2-.7.2h-2.5Zm1.6-3.6V28h.2c.3 0 .6-.1.8-.3.2-.3.4-.7.4-1.3s0-.9-.2-1.2c-.1-.2-.3-.4-.5-.5h-.7Zm5.3 3.5c0 .1-2.2.1-2.2.1 0-.1.1-.1.1-.1h.3l.1-.1V25s0-.1-.1-.1h-.4c0-.1 2.2-.1 2.2-.1 0 .1-.1.1-.1.1h-.3s-.1 0-.1.1v3.2l.1.1zm2.9-1h-1.5l-.2.4v.3c0 .1 0 .2.1.2h.4c0 .1-1.4.1-1.4.1.1-.1.3-.2.4-.3l.4-.6 1.5-3 1.5 3.1c.1.3.3.5.4.6h.3c0 .1-2 .1-2 .1v-.1h.3v-.4l-.2-.5Zm-.1-.2-.6-1.3-.6 1.3h1.3Zm3.7-2.5 2 2.3v-1.6c0-.2 0-.4-.1-.5 0-.1-.3-.2-.5-.2 0-.1 1.4-.1 1.4-.1-.2.1-.3.1-.4.2 0 0-.1 0-.1.2v3.5h-.1l-2.8-3.1v2.4c0 .2 0 .4.2.4.1 0 .2.1.4.1 0 .1-1.5.1-1.5.1.2-.1.4-.1.5-.2 0 0 .1-.2.1-.4V25c0-.2-.1-.2-.2-.3h-.3c0-.1 1.5-.1 1.5-.1Zm5.3 0h2.1c0 .1-.1.1-.1.1h-.3s-.1 0-.1.1v2.9c0 .1.2.2.3.3.1 0 .3.1.5.1s.4 0 .6-.1c.2 0 .3-.2.4-.4 0-.2.1-.4.1-.8v-1.9s0-.1-.1-.2h-.4c0-.1 1.4-.1 1.4-.1v.1h-.3l-.2.2v2.7c0 .2-.2.4-.5.5-.2.2-.6.2-1 .2s-.6 0-.8-.1c-.3-.1-.5-.3-.6-.5s-.2-.4-.2-.7v-2.2s0-.1-.1-.1h-.4v-.1Zm6.1 0 2 2.3v-1.6c0-.2 0-.4-.1-.5 0-.1-.3-.2-.5-.2 0-.1 1.4-.1 1.4-.1-.2.1-.3.1-.4.2 0 0-.1 0-.1.2v3.5h-.1L79 25.3v2.4c0 .2 0 .4.2.4.1 0 .2.1.4.1 0 .1-1.5.1-1.5.1.2-.1.4-.1.5-.2 0 0 .1-.2.1-.4V25c0-.2-.1-.2-.2-.3h-.3c0-.1 1.5-.1 1.5-.1Zm5.4 3.7c0 .1-2.2.1-2.2.1 0-.1.1-.1.1-.1h.3l.1-.1V25s0-.1-.1-.1h-.4c0-.1 2.2-.1 2.2-.1 0 .1-.1.1-.1.1h-.3s-.1 0-.1.1v3.2l.1.1zm4.7-3.7c-.2.1-.3.2-.4.3 0 0-.2.3-.4.7l-1.4 2.9-1.4-3-.3-.6s-.2-.1-.3-.1c0-.1 2-.1 2-.1v.1h-.4v.2c0 .1 0 .2.2.4l.9 1.9.8-1.7c0-.2.2-.3.2-.4v-.3h-.4c0-.1 1.4-.1 1.4-.1Zm2 .2v1.5c.3 0 .5 0 .6-.2s.2-.4.2-.7h.1v2h-.1c0-.2 0-.4-.2-.5 0-.1-.2-.2-.3-.3h-.5v1.5l.1.1h.5c.4 0 .7 0 .9-.2s.4-.4.5-.7h.1l-.2 1.2h-3.6c0-.1.1-.1.1-.1h.3l.1-.1v-3.1s0-.1-.1-.2h-.4c0-.1 3.5-.1 3.5-.1V26h-.1c0-.3-.1-.5-.2-.6s-.3-.2-.5-.3h-1Zm4.3 1.8v1.5s0 .1.1.1h.4c0 .1-2.1.1-2.1.1.2-.1.3-.1.4-.2 0 0 .1 0 .1-.1v-3.2s0-.1-.1-.1h-.4c0-.1 1.9-.1 1.9-.1h1.1c.2 0 .4.2.6.3.1.2.2.4.2.6s-.1.5-.3.7q-.15.15-.6.3l1 1.3q.15.3.3.3h.3c0 .1-1.3.1-1.3.1l-1.3-1.7H96Zm0-1.8v1.6h.8c.1 0 .3-.1.3-.3 0-.1.1-.3.1-.5 0-.3 0-.5-.2-.6-.1-.1-.4-.2-.7-.2zm5.9-.3v1.3c0-.3-.2-.6-.4-.8s-.5-.3-.8-.3c-.2 0-.4 0-.5.2-.1 0-.2.2-.2.3v.2c0 .1.2.2.3.3 0 0 .3.2.7.3.5.2.8.4 1 .6s.3.4.3.7-.1.6-.4.8-.6.3-1 .3h-.4c-.1 0-.3 0-.4-.1h-.4s-.1.1-.1.2h-.1v-1.4h.1c0 .4.3.7.5.9.3.2.5.3.8.3s.4 0 .5-.2c.1 0 .2-.2.2-.4v-.3s-.1-.2-.2-.2l-.6-.3-.8-.4c-.2-.1-.3-.2-.4-.4 0-.1-.1-.3-.1-.5 0-.3.1-.6.4-.8q.3-.3.9-.3h.4s.2 0 .3.1h.4v-.2Zm3 3.8c0 .1-2.2.1-2.2.1 0-.1.1-.1.1-.1h.3l.1-.1V25s0-.1-.1-.1h-.4c0-.1 2.2-.1 2.2-.1 0 .1-.1.1-.1.1h-.3s-.1 0-.1.1v3.2l.1.1zm4.2-3.7v1h-.1c0-.2-.1-.4-.2-.5 0-.1-.2-.2-.3-.2h-.7v3.3l.1.1h.4c0 .1-2.2.1-2.2.1 0-.1.1-.1.1-.1h.3s.1 0 .1-.1V25h-.3c-.3 0-.5 0-.6.2q-.3.3-.3.6h-.1v-1h3.7Zm4.9 0c-.1.1-.2.1-.3.2-.1 0-.3.3-.5.6l-.9 1.4v1.3l.1.1h.5c0 .1-2.3.1-2.3.1 0-.1.2-.1.2-.1h.3l.1-.1V27l-1-1.6c-.2-.3-.3-.5-.4-.6h-.3c0-.1 2-.1 2-.1v.1h-.3s0 .2.2.5l.7 1.2.7-1.1q.3-.45.3-.6v-.1h-.4c0-.1 1.3-.1 1.3-.1m-2-15 .1.1.1.2c0 .1 0 .3-.1.4-.1.3-.3.6-.5.9l-.3.5h.2s.2.1.2.2l.2-.2.2-.2s.1 0 .2-.1l.1-.1h.1l.1-.1s.2-.1.3-.1h.5v.7l-.3.6-.2.3s0 .2-.1.3c0 .2-.1.3-.2.4 0 .2 0 .2-.1.3-.2.2-.4.3-.7.4h-.2c-.3 0 .1-.3.2-.3l.1-.1v-.3h.1v-.5c0-.2.2 0 .3 0 0 0 .2-.3.3-.3 0-.1 0-.2.1-.3 0 0 0-.2.1-.3v-.5h-.1s-.1 0-.2.1c-.1 0-.3.1-.4.2h-.2c0 .1-.1.2-.1.2l-.1.2h-.1c0 .1-.2.3-.2.3h-.1v.4s0 .2-.1.2v.2c0 .1-.2.2-.2.4 0 0 .1 0 .2.1.1 0 .5.4.3.6 0 0-.2.1-.3 0h-.1s-.1 0-.2-.1c0 0-.1-.1-.2-.1v.3h-.1c0 .2-.2.4-.3.4h-.1s.1-.1.1-.2c0 0 0-.2.1-.3V14h.2s-.1-.2-.2-.1c0 0-.1 0-.2.1h-.1v.2h-.2c0 .2-.1.3-.2.3s0 0 0 .1l-.2.2v.2h-.2s0 .2-.1.3h-.3V14s-.1-.2-.1-.3c0 0 .2.1.3.2v.2l.1.1v.2s.1 0 .2-.1h.1c0-.1 0-.2.1-.2 0 0 .3-.2.3-.3s-.3 0-.4-.2v-.5c0-.1-.1-.3-.2-.4v-.2s.2 0 .3.1h.1l.4.4.2.2v.3s.2 0 .2-.1c0 0 .2-.1.2-.2V13c.2 0 .3 0 .3-.1 0 0 .1-.2.2-.3l.1-.4h-.3l-.2.2c0 .1 0 .2-.1.2 0 0-.1 0-.2.1l-.1.1c0-.2.5-.5.4-.7 0 0-.6 0-.6-.1 0 0 .1 0 .2-.1h.2l.1-.1h.5v-.6s0-.2.2-.3c0 0 0-.1.1-.2 0 0 0-.2.1-.2 0 0 .2-.3.2-.4 0 0 .2-.4.2-.5h.1Zm-8.2 1.8h.2l.3.3v.3c.1 0 .1.3.1.4v.8c-.1 0 0 .2 0 .3v.4c0 .1 0 .1.2.1h.4s.2-.1.2-.2h.1c0-.2.2-.3.2-.5 0 0 .1-.1.1-.2 0 0 0-.2.1-.2l.1.1v.4c0 .1-.1.3-.1.4v.2s-.1.2-.2.3v.2l-.2.2c0 .1-.1.3-.2.4 0 0-.2 0-.2.1v.1s-.2.2-.3.2c0 .2-.4.4-.4.5h-.1s0 .1-.1.2l-.2.1v.4s0 .1-.1.2c0 0-.1 0-.2.1 0 0 0 .1-.1.2v.2c-.1 0-.1 0-.1.1v.3h-.1c0 .1-.1.2-.2.3h-.1c0 .1-.2.1-.2.1v.1h-.4l-.1-.2s0-.2.2-.2c0 0 .2-.2.2-.3v-.1h.1v-.2s.1 0 .1-.1l.2-.3v-.2s.2-.2.2-.3v-.1h-1.6s-.1 0-.2-.1c0 0-.2-.1-.2-.2 0 0 .1-.2.3-.2h.3c0-.1.3 0 .4 0h.1v-.1h.5s.2-.1.3-.1h.2c.1 0 .2-.2.3-.3v-.1c.1 0 .2 0 .2-.2v-.9c0-.1.1-.2.1-.4v-.4c.1-.2 0-.3 0-.4l.1-.3v-.7s0-.1.1-.2Zm-42.5.1c.1 0 .3 0 .4.1v1.9l.2-.2h1.4c0 .1.2.2.2.3v.7s0 .1-.1.2c0 .1 0 .2-.1.2 0 .1-.3.4-.3.4s-.1.2-.2.3l-.2.2h-.1l-.1.1-.1.1h-.4l-.3.3v.2h-.1v.2c0 .2 0 .3-.1.5h.1s.1 0 .2-.1h.3s0-.1.2-.1h.2s0-.1.2-.1h.6s.2-.1.3-.1h1.2c.1 0 .3 0 .3.1s.2 0 .2 0h-.5c-.1 0-.2.1-.3.1h-.5c-.2 0-.3.2-.5.2h-.2s-.1.1-.2.1h-.3l-.2.2-.2.2h-.1s-.1.1-.3.1c.1 0 .2.2.3.3v.8h.2c0 .2.1.3.1.3v.2s.2.1.2.2v.4c-.2.2-.7 0-1 .1 0 0-.1 0-.2.1 0 .1-.1.2-.1.2v.2H61s0 .1-.1.1h-1.2v-.2h.7s.1-.1.2-.1h.2V20s.1-.1.1-.2h-.7c-.1 0-.2-.2-.2-.3 0 0 0-.1-.1-.2v-1c-.1 0-.2 0-.3.1h-.4l-.1.1-.1.1h-.2l-.1.1h-.2v.1h-.3l-.2.2h-.2s0 .1-.1.1h-.3v.3c0 .1-.3 0-.4.1h-.2c0-.1 0-.3.1-.4h.1l.1-.1s.2 0 .2-.1h.2v-.1h.3l.1-.1h.2l.1-.1h.2v-.2h.1c0-.1.1-.2.2-.2 0-.1.2-.1.2-.2h.1c0-.1.1 0 .2-.1h.1l.2-.1h.5c0-.2.1-.4.2-.6V16c0-.2-.1-.3-.2-.4v.4c0 .1-.4.5-.4.5v.2c0 .2-.2.2-.2.3 0 0 0 .2-.1.3 0 .1-.2.2-.2.3 0 .2 0 .2-.1.2 0 0-.1.1-.2.1h-.2s-.1.1-.2 0c0 0-.1 0-.2-.1l-.2-.2s-.2 0-.2-.1v-1.9s.1-.2.2-.3v-.2l.2-.3.2-.2v-.4h.1V16v-.5l.3-.3.3-.3v-.1h.1v-2.6l.1-.1v-.2h.3Zm22.9 0s.3.2.3.3v.9l-.2.2h-.2s-.2.2-.3.2c0 0-.2.1-.3.2h-.1c0 .1-.1.1-.2.2l-.2.2c0 .2-.1.2-.2.2 0 .2-.3.6-.4.5 0-.1 0-.1.1-.2v-.4h.1l.2-.4c0-.1.2-.2.3-.4v-.1c0-.2.2-.3.3-.4 0-.1.1-.2.2-.3s0-.1 0-.1v-.2s.2-.1.2-.3c0 0 0-.2.1-.2 0 0 .1-.1.2-.1Zm-12.7.1h.4l.3.2v.3l-.6.3s-.2 0-.2.1h-.1l-.2.1-.3.2h-.3c0 .1-.2.2-.2.2-.1 0-.4 0-.4.2-.2 0-.7.4-.7.5s0 .2.1.2v.2s-.2.2-.2.3h.1c.1 0 .2-.1.3-.2h.2V14c.1 0 .2-.1.3-.2h.3c0-.1.1-.2.1-.2s.2-.1.3-.1h.3s.3.2.3.3v.5s-.2.1-.3.2h-.2c-.1.2-.2.3-.4.4h-.1c-.2.2-.3.4-.5.5H69v.5h.2c.2-.1.3-.3.6-.1l.2.2s.2.1.3.2v.2c0 .1-.2.2-.3.2 0 0-.2.2-.3.2h-.1v.1h-.1c0 .2-.2.2-.4.3l-.1.1-.2.2-.1.1h-.1v.2s-.1.1-.1.2.3-.2.4-.2l.4-.2h.1l.2-.1h.2l.2-.2h.1l.1-.1h.1c.1 0 .2-.2.4-.2h.5c.1.1.3.3.2.5l-.2.2s0 .1-.2.2c0 0-.1 0-.2.1 0 0 0 .1-.1.2 0 0 0 .2-.1.2h-.1s0 .1-.1.1h-.1v.2h-.1v.1s-.1 0-.2.2v.6s.2 0 .2.1H73l.2-.2v-.3c.1 0 .1-.1.1-.1v-2.2h.1v.4l.1.1v.2c.1 0 .1.2.1.3s-.1 0-.2 0v.3s.1-.1.2 0v1.7c0 .1 0 .2-.2.3h-3.5l-.3-.1h-.2s-.2 0-.2-.1c0 0-.2-.2-.2-.3v-.8h-.3s-.2 0-.2-.1c-.1-.2 0-.4.1-.5 0 0-.2.2-.3.2 0 .1 0 .2-.1.2-.1.2-.2.5-.6.4 0 0-.2 0-.2-.1v-.5c0-.1.1-.2.2-.3v-.1c0-.1.1-.3.1-.3 0-.1.1-.2.2-.3l.1-.2c0-.2-.7 0-.7-.4v-.2l.2-.2s.2-.1.2-.2h.1s.2 0 .3-.2V16c0-.1.2-.3 0-.5H68c-.1 0-.3.2-.4.3h-.1c0 .2-.1.3-.2.3h-.1c0 .2-.1.2-.2.3h-1.3s-.2-.1-.2-.2c0-.2.5-.3.7-.3h.2c.2 0 .4-.2.6-.3.1 0 .2-.2.3-.2h.2l.3-.3.2-.2v-1.1s.3-.2.4-.2h.3c0-.2.3-.3.3-.4l-.2-.2h-.2l-.2-.2h-.3c-.1 0-.2 0-.3-.1.3-.2.6-.2.9-.3h.3s.1-.1.2-.1h.1l.2-.1h.2c.1-.1.3-.2.4-.2h.2c.2 0 .4-.2.7-.2Zm15.5.1c.1 0 .3 0 .4.1v2.8c0 .1 0 .3.1.3 0 0 .2-.1.3-.2 0 0 .4-.4.4-.5.1-.1 0-.3 0-.4v-.9c-.1 0-.2 0-.2-.1h.4l.2.2c0 .1.1.2.1.3v1.5c0 .2-.1.2-.2.3 0 .1-.2.2-.2.3l-.1.1v2.4c0 .1-.2.2-.3.3v.5c0 .1.2 0 .2.2v.1c0 .2-.1.2-.2.2v.2h.1s0-.3.2-.2v1.6s0 .1.1.2v.4s-.1 0-.2.1l-.2.2h-.5v-5.4c0-.1-.4.3-.5.3h-.1v.5s-.1 0-.2.1-.3.3-.5.1v-.2l.2-.2h.1c0-.1.1-.2.2-.3 0 0 .2-.1.2-.2l.3-.3.2-.2v-.1H87v-.4h-.3s-.1 0-.2-.1c0 0-.1 0-.2-.1v-.9l-.2-.2v-.3c0-.1.2-.2.3-.2h.2q.3-.15.6.3v.4c-.1.2-.3.3-.5.4v.3h.7c0-.1.3 0 .4-.1.2-.2 0-.5.1-.8v-1.5c0-.2.1-.2.2-.3h.2Zm-31.9.3h.3s.2.1.3.2v.5h-1.8l-.2.1h-.2c-.1 0-.3.1-.4.2H53h.9c0 .1 0 .1.1.1v1.1s.2 0 .2-.1c0 0 .3 0 .3-.1h.7c.1 0 .1 0 .2.2v.9s-.1.1-.1.2v.2c-.1.1-.2.2-.2.3v.4c-.1.1-.2.3-.2.4v.3c0 .1-.1.2-.1.4v.2s0 .2-.1.2v.9s0 .2-.1.3v.4h-.2v.1c-.1.2-.2.3-.4.4 0 0-.1 0-.2.1-.3 0-.6 0-.8-.2v-.1s0-.1-.1-.1h-.2s-.2.1-.3.2h-.1l-.2.1H52c0 .1-.1.2-.2.2l-.2.1c0 .1 0 .2-.2.2h-.9v-.2c0-.2 0-.3.2-.3v-.2s.1-.2.2-.2h.2c.2 0 .2-.3.3-.4h.1v-.3h.1v-.5h.1v-.3l.1-.1v-.2c0-.1.2-.2.2-.3v-.2h.1s0-.1.1-.2v-.2l.1-.2v-.3h.3v-.6c-.1 0-.2.2-.4.3s0 .1 0 .1h-.1c0 .1-.2.1-.3.2 0 0 0 .1-.1.1h-.2s-.2.2-.3.2c0 0-.1 0-.2.1h-.1v.6c0 .2-.1.6-.2.7h-.3s-.1 0-.2-.1c0 0-.1 0-.2-.2v-.3c-.1 0-.2.2-.3.2l-.2.2s0 .1-.1.2v.2h-.1v1.2l-.2.2s-.1-.1-.2-.1h-.1l-.2-.2s-.1 0-.2-.2v-.6c0-.1-.1-.2-.2-.3V17s.2-.2.3-.2h.2c.1 0 .3 0 .3.2v.3s.2-.3.2-.4c0 0 .1-.2.2-.3l.2-.2v-.2h.1c0-.2.2-.2.2-.4v-2h-.7v-.1c-.1-.1 0-.4 0-.5s0-.1.1-.1c.1-.1.3-.2.4-.2 0 0 .1-.1.2-.1h.1l.2-.2.2-.1h.6l.2-.1h1.5s.2-.1.3-.1h.2l.1-.1h1.2Zm6.2 0c-.1 0-.2.2-.2.4 0 .1-.1.2-.2.3v.5l-.1.2v.8-.2h.1s.1 0 .2-.1v-.5s0-.2.1-.2v-.9Zm33.9.4h.2s.1 0 .1.1v.6s0 .1-.1.2h.1s0-.1.1-.2h.1v-.5c0-.1 0 0 0 0l.4.5-.1.3s0 .1-.2.1v.1c0 .2 0 .2-.1.3 0 0-.2 0-.2.2v.1c-.1 0-.3.2-.4.3 0 .1 0 .2-.1.3v.1h-.1v.2c-.2.1-.2.4 0 .4 0 0 .1-.1.2-.1l.3-.2h.1s.5-.2.5-.3h.6s0 .1.2.1v1.5s0 .1.1.1l.2.2c0 .1.1.2.2.2l.2.2.2.2s.1 0 .2.1v.1h.2c.1 0 .1.2.3.2v.2s.1.1.1.2v.9s-.2.2-.3.1c0 0-.1-.2-.2-.3l-.2-.2h-.1v-.2l-.2-.2s-.2-.2-.3-.2h-.1c0-.1-.2-.2-.2-.2l-.2-.2-.2-.2h-.1s0-.2-.1-.1h-.1s0-.2-.1-.2H96l-.2.2h-.2l-.2.1c0 .1-.2.2-.2.3l-.1.1h-.3c-.1 0-.9.2-.9 0 0 0-.1 0-.2-.2v-1l.1.1.2.2h.1l.2.2h.4l.1-.1s.2-.1.3-.2v-.2l.2-.2c-.1 0-.1 0-.2-.1H94V16l.1-.2v-.5h-.3l-.1.1h-.1v.1h-.2c0 .1-.2.2-.3.3H93c-.1 0-.2.1-.2.1h-.1s0 .1-.2.2c0 0-.1 0-.2.1 0 0 0 .2-.2.2 0 0-.1.1-.1.2v.2l-.1.2v1.2s-.1.2-.1.3v.3c0 .2-.1.2-.2.2h-.5v-1.2H91s-.1 0-.2.1h-1v-.1h-.2l-.1-.1h.1c.1 0 .2 0 .3-.1h.4l.2-.2.2-.2v-.1h.1s.4-.3.4-.4h.1s.2-.2.3-.2v-.2l.2-.2v-.5h-.3l-.2.2H91s0-.1-.1-.1l-.2-.2s0-.1.2-.2h.2v-.1h.2v-.1l.1-.2h.2s.1-.1.2-.1l.1-.1V14c0-.1.1-.2.1-.3v-.8h.1l.1.1c0 .1.2.4.4.4s0 .1 0 .2h.1s0 .2.1.2 0 .1 0 .1h.1c0 .1.1.3 0 .4h-.2v.1s-.2.2-.3.2l-.2.2c0 .1-.1.3-.2.4 0 0-.2.2-.2.3l-.1.1v.4l.2-.1.2-.2.2-.2.3-.2c0-.1.1-.1.2-.2 0 0 .1 0 .2-.1 0-.1.2-.2.2-.3.2 0 .2-.2.3-.2 0 0 .3-.1.3-.2V14s.1-.2.1-.3v-1s0-.1.1-.2Zm-16.3.6h.5c.2 0 .2.3.2.5v.2c0 .1-.2.2-.3.3s-.2.3-.3.4c0 0-.1 0-.2.1-.1 0-.2.1-.3.2h-.2l-.2.2h-.2l-.1.2s-.2 0-.2.1v.2c-.1 0-.1.2-.1.2V17h.5c.1 0 .3-.1.4-.2h1c.3-.1.4.3.4.5l-.1.1v.2c-.2 0-.2 0-.3.1l-.2.2v-.1s.5-.3.2-.4H79l-.1.1h-.2s-.1 0-.2.1l-.1.1c-.2 0-.5.1-.6.3v2.2s0 .1-.1.2h-.8c-.1 0-.2-.1-.3-.2h-.2v-.1s.4-.2.5-.2h.1v-1.8c-.1.1-.3.2-.5.3h-1.2s0-.1-.2-.2c-.1 0-.3 0-.4-.1-.2-.2.4-.5.5-.6h.1s.2 0 .3-.1h1s.1 0 .2-.1v-1.5c0-.1 0-.2.1-.3V15s0-.2.1-.3.3-.2.4-.3h.2c.1-.3.3-.4.4-.5l.2-.2c.2-.1.3-.2.5-.4 0 0 .2-.2.2-.3s-.3-.1-.3 0c0 0 0 .1.1.1 0 0-.3 0-.4-.1v.2s-.2 0-.2.1c-.1 0-.2 0-.3.1h-.3s-.1 0-.2.1h-.2c0 .1-.2.2-.2.2s-.2 0-.3.1c-.1 0-.2.2-.3.3h-.2c0 .2-.2.2-.3.3h-.6c-.1 0-.3 0-.4-.1h-.1c0-.1-.2-.1-.2-.2V14q0-.3.3-.3h.4s.2-.1.3-.1h.2l.2-.2h.8s.2 0 .3-.1h.5c0-.1 0-.2.2-.2h.1c.1 0 .3-.2.4-.2h1.1Zm-16.1.4h-.2s-.2.1-.2.2h-.1l-.1.2s-.1 0-.2.1c0 0-.1 0-.2.2v1.2-.1h.1l.2-.2s0-.2.1-.2h.2c0-.1 0-.2.2-.3 0 0 0-.1.1-.2l.1-.1c0-.1.1-.3.1-.5s0-.2-.3-.2Zm29.9.3v.4l.1-.2-.2-.2Zm-40.1 0s-.2 0-.2.2.1 0 .1 0zm31.2.1h.3v.2c0 .2 0 .2-.1.3h-.3l-.2.2v5.3c0 .1-.1.2-.2.3h-.4v-.2l.1-.2v-3.4h-.1l-.2.2V18c0 .1 0 0 0 0v.1h-.1c0 .2-.1.3-.3.4H82l-.2-.2-.3-.3-.1-.1v-.2c0-.2.2-.3.3-.4h.1c.1-.1.2-.2.3-.2h.1c0-.1.1-.2.1-.2l.1-.1.2-.2.3-.3v-.1l.2-.2v-1.1c-.1 0-.2.1-.3.2 0 0-.2.2-.3.2h-.2s-.1-.2 0-.3v-.1l.2-.2h.1c0-.1.1-.2.2-.2 0 0 .1 0 .2-.1h.2v-.1l.2-.2c0-.1 0-.3.2-.4.2 0 .2 0 .3.1h.1c0-.1.1-.3.3-.3Zm-31.7.1H52v.1h-.1l-.1.1h-.1l-.4.2h-.2s-.2 0-.2.2v1.2s.1 0 .1-.1h.2s.2-.1.2-.2h.3s.2-.1.3-.1c0 0 .2 0 .3-.1h.2s.3 0 .3-.2h.3v-.2l.1-.3v-.3h-.7c-.1.1-.2.1-.3.2h-.1c0 .1-.1.2-.1.2h-.2v-.1l.2-.2c0-.1.1-.3.1-.3 0-.1.1-.2.2-.2 0-.1.1-.2.1-.2h-.2Zm60.4.5c.1 0 .2 0 .2.1.1 0 .2.2.1.3 0 0-.1.2-.2.2l-.2.2c-.1 0-.2.2-.3.3l-.2.2s-.1 0-.2.1c0 0-.1 0-.2.1 0 0-.2.2-.3.1v-.1l.1-.2v-.2l.3-.4v-.3c.1 0 .2-.2.2-.2-.1 0-.9.6-1.1.7 0 0-.2.1-.3.2l-.2.2s-.2.1-.3.2l-.2.2h-.1c0 .1 0 .2-.1.2h-.2c0 .1-.1.2-.1.2v.2h-.2c0 .1-.1.3-.1.3-.2.3-.4.5-.6.7h-.2q-.15.3-.3.3h-.9c-.1 0-.3-.1-.3-.3 0 0-.1-.3 0-.4s.1 0 .1 0h.2c0-.1.1-.1.1-.1h.1v-.1h.1V17h.2l.2-.2h.1c0-.1.2-.2.3-.2h.1c0-.1.1-.2.1-.2h.1v-.1l.4-.3h.1c0-.1.3-.3.3-.3.1 0 .2-.2.3-.2h.2c0-.1.1-.2.1-.2s.2-.1.3-.2c.2-.1.4-.2.6-.4l.2-.2h.2c0-.1.1-.2.1-.2h.1l.2-.2s.2-.1.3-.1h.1Zm-42.4.2c-.1.1-.2 0-.3 0h.1c0 .1-.2.1-.2 0h-.2v.1h-.1v.1h-.1c0 .1-.2.3-.3.3 0 .1.2.1.3.1h.1c.1.1.4-.2.5-.3 0 0 .2-.1.3-.2v-.2Zm-14.9.1h-.9l-.1.1c-.1 0-.2.2-.3.3v.2c0 .1-.1.3-.2.3v.2c-.1 0-.2.1-.2.1v.2s-.1.1-.1.2v.4s-.2.2-.2.3v.1s0 .1-.1.2v.5s0 .1-.1.2v.7s-.1 0-.1.2h.2v-.1h.2c0-.2.1-.2.2-.2 0 0 .2.1.3.2h.2v.4c-.2 0-.2.1-.3.1 0 0 0 .1.2.1 0 0 0-.1.1-.2h.1v-1.4c0-.1.1-.2.1-.3l.1-.1v-.9s.1-.2.1-.3V16h.1c0-.2 0-.3.1-.4v-.2s.1-.4.2-.5v-.2Zm5.8.1v-.2Zm25.3.9s-.2 0-.2.1v.2s.1-.1.2-.1c0 0 .1-.2 0-.2m27 .2h.4c.1 0 .2.1.2.2v.3l-.1.2-.2.2h-.1v.2l-.2.2-.2.2s-.1 0-.2.1h-.1c0 .1-.1.2-.1.2-.1 0-.2.2-.4.2 0 0-.1 0 0 0l.3-.3.2-.2h.2v-.2l-.3.2s-.2.1-.2.2l-.1.1h-.1v.2h-.1v.8c0 .2 0 .4.1.6v1.6c0 .1-.1.2-.2.3 0 0-.1.2-.2.2 0 0-.3-.1-.3-.2-.1 0-.3-.1-.4-.2l-.1-.1h-.7c-.1 0-.2 0-.3-.1h-.1l-.3-.2h-.1v-.1h1.8s.2 0 .3-.1v-2.1h-.1s-.2 0-.3.1h-.8c-.1 0-.5 0-.5-.2V18c.1 0 .3-.1.3-.1h.1s0-.1.1-.2.3-.2.5-.3h.2v-.2c.1 0 .2-.2.4-.2s.3-.2.3-.2h.2l.2-.2h.2s.1 0 .2-.1 0-.1 0-.1h.3v-.2h.1s.1-.1.2-.1Zm-17.1.3H96s-.2 0-.2.1h-.2s.2 0 .2.1h.5c0-.2 0-.3.1-.3v-.3Zm-27.1.5s-.4.3-.3.4h.1l.2-.2s.2 0 .2-.2c0-.1-.1-.1-.2-.1Zm-1.2.7-.3.2c0 .1.2.1.3.1h.1v-.2Zm-6.6.4H61v.2s-.2.1-.3.2v1h.9c0-.2.1-.5 0-.7v-.2s0-.1-.1-.2v-.4Zm11.4.2v.1Zm30.4.1h1.5s.1 0 .2.1v.3h-.5c0 .1-.2.2-.4.3h-.3v-.4s-.1 0-.2-.1h-.1zV18h-.4l.2-.2Zm-12.1 0-.4.4s.1.1.2.1c0 0 .1.1.2.1v-.5c0-.1 0 0-.2-.1Zm-21.3 0s-.2 0-.2.2h-.1c0 .1-.2.3-.2.3H69l-.1.2h-.3.5s.4-.3.4-.4v-.2h.2s.1-.1 0-.1m3.1.2v.1h-.1Zm-10.5.8v.2-.3Zm6.1.1v.2h.2v-.2h-.1Z" style="fill:#231916;fill-rule:evenodd"/><path class="cls-2" d="M34.5 31.3c-1.5 0-2.9.4-4.1 1.4-.3.2-.5.5-.8.7-.5.5-1.1.8-1.9.9-1 0-1.8-.2-2.5-.9-.5-.6-1.1-1-1.8-1.4s-1.4-.6-2.2-.7h-1.1c-1.5 0-2.9-1.2-3-2.7v-.8c0-1.6-.6-2.9-1.6-4.1-.2-.3-.5-.5-.8-.8-.8-.9-.9-2.2-.4-3.2.2-.4.5-.7.8-1.1 1-1 1.7-2.3 1.9-3.7v-1.2c0-1.5 1.1-2.9 2.7-3h.8c1.7 0 3.1-.6 4.3-1.7l.6-.6c1.2-1.1 3.1-1 4.2.2.7.7 1.5 1.3 2.5 1.7.8.3 1.7.4 2.6.4 1.5 0 2.9 1.1 3 2.7v.8c0 1.6.6 3 1.6 4.2.2.3.5.5.7.8.8 1 .9 2 .4 3.2-.2.4-.5.7-.8 1-1.1 1.1-1.8 2.4-1.9 4v1.2c0 .7-.3 1.4-.8 2-.4.5-1 .7-1.6.9h-.9Zm-14-20.5h-.2c-.6 0-1.1.1-1.6.4-.9.6-1.4 1.4-1.3 2.5V15c-.2 1.4-.9 2.8-2 3.8-.5.4-.8 1-.9 1.6-.1.8 0 1.6.6 2.2.2.3.5.5.7.7 1.1 1.2 1.6 2.6 1.7 4.3v.8c.1 1.5 1.4 2.6 2.9 2.5 1.9 0 3.7.6 5 2 .2.2.4.4.6.5 1.1.8 2.7.6 3.6-.4.8-.8 1.7-1.5 2.8-1.8.8-.2 1.6-.4 2.3-.3h.8c1.3-.3 2.1-1.5 2.1-2.8 0-1.8.6-3.5 1.8-4.8l.6-.6c.9-1.1.9-2.7-.1-3.8-.3-.3-.7-.7-.9-1.1-.8-1.1-1.3-2.4-1.3-3.8v-.8c-.1-1.5-1.4-2.6-2.9-2.5-.5 0-1.1 0-1.6-.1-1.3-.3-2.6-1-3.5-2-.4-.4-.9-.8-1.5-.9-1-.2-1.9 0-2.6.8-.3.3-.6.6-1 .9-1.1.8-2.5 1.3-3.9 1.3Z"/><path class="cls-2" d="M16.2 20.9c0-6.2 5.1-11.2 11.2-11.2 6.2 0 11.2 5.2 11.2 11.3s-5.1 11.1-11.2 11.1c-6.2 0-11.2-5.1-11.1-11.2ZM27.4 10c-6 0-10.9 4.9-10.9 11 0 5.9 4.9 10.8 10.9 10.8s10.9-4.9 10.9-11c0-5.9-4.9-10.8-10.9-10.8"/><path class="cls-2" d="M32.3 25.6h-5.2l-.8-.8h-.2l-.7.7h-2.5l.1-.1.8-.8c.1-.1.2-.3.3-.5.1-.3 0-.7-.2-.9-.5-.5-.9-1-1.4-1.5h2.2c.1 0 .2 0 .2.1v.2h-.1c0-.1-.1-.1-.3-.1H23l.1.1 1 1.1c.4.5.5 1 .1 1.5-.1.2-.3.4-.5.6h-.1c.2 0 .3 0 .4-.1.2-.3.5-.6.8-.8.4-.4.4-.8.3-1.3l.2-.2c.1.2.1.4.1.7 0 .4-.1.7-.4 1l-.7.7h-.1c.2.1.3.1.5.1l.9-1v-.1l.2.2-.4.5-.4.5h.4l.9-.9.6.6c.1 0 .2.2.3.3s.2.1.4 0l-.8-1 .2-.2.2.2c.3.3.5.6.8.8h.5v-.1c-.2-.3-.5-.5-.7-.8-.4-.5-.5-1-.3-1.6h.2v.5c0 .4 0 .7.3 1l.8.8c.1.2.3.2.5.1-.2-.2-.5-.5-.6-.8-.2-.4-.1-.9.2-1.2.3-.4.7-.8 1-1.2-.2-.1-.4-.1-.6-.1h-.9c-.1 0-.2 0-.3.1H28s0-.2.1-.3h2.1c-.1.1-.2.2-.3.4-.4.4-.7.8-1.1 1.2-.3.4-.4.8-.1 1.2.2.3.5.6.8.9.2-.4.3-.8.2-1.2 0-.4-.2-.8-.5-1.1h4.7c.3-.7.4-1.5.4-2.3 0-1-.3-2.1-.7-3l-.2.3c-.2.3-.5.5-.7.8H32v-.1h.3c.2 0 .3-.1.4-.2.1-.2.3-.4.5-.5h-.7l-2.5.3c-.3 0-.6.1-.8.3-.3.2-.6.5-.9.8s-.5.5-.9.7c-.8.4-1.6.4-2.3-.1-.3-.2-.6-.6-1-.8-.3-.3-.6-.6-1.1-.7-.2 0-.4 0-.6-.1-1 0-1.9-.2-2.9-.3l.6.6h.1c.1 0 .3 0 .4.1H20c-.4-.4-.7-.8-1.1-1.3h.1c.6 0 1.1.1 1.7.2.1 0 .2 0 .2-.1.4-.9 1-1.6 1.7-2.2l.2.3c-.7.6-1.2 1.3-1.6 2.1h.4c.3 0 .7.1 1 .1.5 0 .8.3 1.2.6l.7.7c.3.3.6.5 1 .7.7.3 1.4.2 2-.3l.9-.9c.3-.3.6-.6 1.1-.7.3 0 .5 0 .8-.1 1 0 2-.2 2.9-.3-1.2-2.3-4.4-4.4-8.2-3.2l-.2-.4c.2 0 .3-.1.5-.2 2-.5 3.9-.3 5.6.8 1.1.7 2.1 1.6 2.7 2.8.5 1 .8 2 .8 3 0 .9 0 1.8-.4 2.6v.2c.4.3.6.9.4 1.4-.1.5-.5.8-1.1.9h-.6c-.1 0-.2 0-.3.1-.6.7-1.3 1.2-2.1 1.6-.9.5-1.9.7-3 .8-1.4 0-2.9-.3-4.1-1.1S21 25 20.4 23.7c-.4-.8-.6-1.7-.6-2.6 0-.6 0-1.3.2-1.9V19h3.3s0 .2.1.3h-.2c0-.2-.2-.2-.4-.2h-2.6c.1.1.2.3.3.4h.3v.1h-.4l-.2-.2c-.5 2.2.4 5.5 3.4 7.2s6.4.7 8.2-1.3Zm-2.6-.2h3.9c.2 0 .4 0 .5-.2.3-.3.4-.6.3-1 0-.3-.1-.5-.4-.7-.2-.1-.4-.2-.7-.2h-3.8q.45 1.05 0 2.1Z"/><path class="cls-2" d="M23.1 14.8c0-.5.4-.8.9-.8s.8.4.8.9-.4.8-.9.8-.8-.4-.8-.9m-4.9 4.8c0 .2 0 .3.1.5l.1.1h-.1v.1c0 .2.2.3.4.4-.1.1-.5.1-.6 0v-.1l.1-.1s-.1-.2-.2-.3c0 0-.2-.1-.3-.2h-.3v-1.4s0-.1.1-.2h.1v.7l.2-.2h.2v-.3c0-.1 0-.1.2 0h.1c.2.2.5.4.7.6 0 0 .2.2.2.3s0 .2-.1.3v.5l-.1-.1v-.1c-.2-.3-.4-.5-.6-.8Zm.9.3v-.2c-.1-.1-.3-.2-.4-.4-.1-.1-.3-.2-.4-.4v.4l.4.4c0 .1.2.2.3.3v-.3h.1Zm-1 .2v-.6c0-.1 0-.2-.2-.2v.5l-.2-.3v.4c.1 0 .2 0 .3.1Zm14.5-6c0-.1 0-.2-.2-.3h.1-.8l-.3.3h-.2v-.4c-.2 0-.2-.1-.3-.3h.6s.2 0 .2-.2c0 0-.2 0-.2-.2h.5c.1 0 .2-.2.3-.2v.4c0 .1 0 0 0 0h-.6.8s0-.1.2-.2c0 0 0-.1.2 0v.2l-.1.1h.2s0 .1-.1.1c-.2 0-.4 0-.6.1h.3s0 .1.1.1.1.1 0 .2c0 0-.2.1-.2.2v.5c0 .1 0 .3-.1.4v-.7s0-.1-.1-.1H32c-.2 0-.3-.2-.1-.4 0 0 0 .2.2.3h.3Zm.1-.2s0 .2.1.1h-.2Zm-1.2-.4h.1-.2Zm-11.3 2.3c.2 0 .3.1.4.2.1 0 .1.1 0 .2-.1 0-.1.1-.1.3s-.2.3-.3.4c.1-.1.2-.2.2-.4h-.3l-.2-.2c0 .1-.2.3-.2.5v.4-.2c0-.2.1-.3.2-.5 0-.1.1-.2.2-.4V16c0-.1 0-.2-.1-.3v.6c0 .2 0 .2-.2.2-.1-.2-.2-.5-.2-.8l.2.4v-.4c-.1-.1-.2-.3-.2-.5V15h.2s0 .1.1.2l.2-.2c.1 0 .3 0 .3.1 0 .2 0 .4-.1.6-.1.1 0 .3 0 .4.2-.3.3-.6.6-.8-.2.2-.4.4-.4.7Zm-.4-.5v-.5l-.1.3s0 .2.1.2m.3.5c-.1.2-.1.2 0 .3h.1s.2 0 0-.2l-.2-.2Zm-.7-.6c0-.1 0-.4-.2-.5 0 .2 0 .3.2.5m2.4-1.3h-.2v-.4.2c0 .2-.1.2-.3.2h-.1v-.1c0-.1.2-.3.3-.4v-.6h-.4c.1-.2.3-.3.4-.5 0 0 .1 0 .2-.1 0 0 .1 0 0 .1l-.3.6s-.1.2 0 .3v.1-.2s.1-.2.2-.2h.2v.2s0 .2-.1.3l-.2.2h.2s.1 0 0 .1c0 .2-.1.3-.2.5 0-.1.1-.2.2-.3 0 0 0-.1.1-.2h.2v.5c0 .1 0 .2.2.2s.4-.2.5-.4v-.1c0-.1-.1-.2-.2-.4v-.1s.2 0 .2.2c0 0 .1.2.2.2v.1c-.2.2-.4.4-.7.5H22s0-.1-.2 0h-.1v.2-.4Zm.3.1c.1 0 .2 0 .1-.3v.3Zm-.2-1v.2l.1-.2Zm5.8 16.6h.3v1.6h-.3c-.2-.3-.3-.6-.5-.9v1.1h-.3v-1.6h.3c.2.3.3.6.5.9zm-4.3.8q-.3-.1-.3-.4v-.9l-.5 1h-.3c0-.1.7-1.6.7-1.6s.2 0 .2.1v1.2l.5-1h.3c0 .1-.7 1.6-.7 1.6Zm-3-4.4c.1.2.3.4.4.6 0 .2 0 .4-.1.6-.2.2-.4.4-.7.4-.2 0-.4 0-.5-.2-.1-.1-.2-.3-.3-.4l1.3-1Zm-.9 1.1c.1.2.3.3.5.3.3 0 .5-.2.6-.4 0-.2 0-.4-.2-.5l-.9.7ZM32.6 29l.4.6-.2.2-.9-1.3c.2-.1.4-.3.6-.4h.4c.1.1.2.3.1.4l.7.5s-.2.1-.2.2c-.1 0-.3-.2-.4-.3h-.3Zm-.1-.2c.1 0 .2-.1.2-.3 0 0 0-.2-.1-.2-.2 0-.3 0-.4.1zm-7.2.6h.3v.5c0 .2 0 .4-.1.6v.2c0 .1 0 .2.2.2.1 0 .2 0 .3-.1 0-.1 0-.3.1-.4 0-.3.1-.5.2-.8h.3l-.2.9v.2c0 .3-.3.5-.7.4-.3 0-.5-.3-.4-.7l.2-.9v-.1ZM19.2 24c0 .1 0 .2.1.3v.1c0 .1-.2.3-.3.5h.4c.2 0 .3 0 .3.2-.3 0-.5 0-.8-.1h-.2c-.1.2-.3.4-.4.6s0 0-.1-.2v-.1c.1-.2.2-.3.4-.5H18c-.1 0-.2 0-.2-.2v-.2c.3 0 .6 0 .8.1.1 0 .2 0 .3-.1.1-.2.3-.4.4-.6Zm2.7 5.7c-.2-.1-.2-.1-.1-.4V29s-.2-.1-.3-.2h-.2s-.1 0-.2.1h-.2l-.2-.1.8-.5c.2-.1.4-.3.6-.4h.2c-.2.5-.3 1.1-.5 1.6Zm.2-1.4-.5.4.3.3.2-.6Zm10.2-9.2c-.2.2-.4.4-.5.6-.1.1-.2.2-.4.2h-.2v-.1c.2 0 .4-.1.5-.3l.1-.1h-2.7c-.1 0-.2.1-.2.2h-.2c0-.1 0-.2.1-.3h3.4Zm-.9 11.3-.7-1.5c.3-.1.5-.2.8-.4v.2c.1 0-.4.2-.4.2l.2.4.5-.2v.2c.1 0-.4.2-.4.2l.2.4.6-.3v.2c.1 0-.7.4-.7.4Zm-1.1-1.3v1.6H30c-.3-.4-.6-.9-.9-1.3q.3 0 .4.1l.4.7v-1s0-.2.1-.2h.2Zm-.9-16.9s-.2 0-.2.1h-.1c.1 0 .2-.1.3-.2v-.2c-.1 0-.1 0 0-.2v-.1h.2v.2h-.1v.1h.2c.1 0 .1 0 .1-.1 0-.2 0-.3.1-.5h.1v.8s.1-.2.1-.4c0 0 .1 0 .1.1 0 .2-.1.3-.3.4-.2 0-.3.3-.3.5v1h-.2c0-.3.1-.6.2-.9v-.3Zm4.3 15.1c-.1 0-.2.1-.3.2 0 0-.1.1 0 .2 0 0 .1.1.2 0h.4c.2 0 .4 0 .5.2s0 .4 0 .6c0 0-.2.2-.3.2H34l-.1-.1h.2s.2-.1.2-.2 0-.2-.2-.2h-.5c-.2 0-.4 0-.5-.2v-.5s.2-.2.3-.2h.2l.1.1Zm.5-11.7h.1c.1 0 .3.2.4.3h.3c.3-.1.5-.2.8-.3v.3c-.1 0-.2.1-.3.2h.5c0 .1-.2.1-.3.2H34h.4c.1 0 .1 0 0-.1l-.2-.2s-.1-.1 0-.3Zm.8 9.5s0-.2.1-.3h.6c-.1-.2-.2-.3-.4-.5v-.4c.2.3.4.5.6.8l.2.2c.2 0 .3.1.5.2v.3c-.3 0-.5-.2-.7-.2h-1.2ZM25.3 13s.2-.1.2-.2v-.3c-.1 0-.2.1-.3.2H25v-.1c.1 0 .2-.2.4-.2 0 0 .1 0 .1-.1v-.1c0-.3.1-.5.3-.7v-.1s-.2 0-.3.1c-.1 0-.3.2-.4.3-.1 0-.2.1-.4 0 .4-.1.7-.3 1.1-.4h.2v.2l-.3.3c-.1 0-.2.2-.1.3v.1c0 .1 0 .1.2 0 0 0 .2 0 .3-.1h.1v.1l-.1.1v-.1s-.2 0-.2.1c-.2 0-.2.2-.1.3v.2c0 .2 0 .2-.2.2h-.2Zm3.2 7.5h-.1c0-.1 0-.2.1-.3h3l-.3.3h-.1q-.2.4-.6.4v-.1c.3 0 .3-.1.5-.4h-2.4v.1Zm-7-.3c.1.2.3.4.5.4-.2 0-.4 0-.5-.2s-.2-.3-.4-.5H24c.1 0 .2 0 .2.1v.2c0-.2-.2-.2-.4-.2h-2.2Zm13.3 5.2h.2c0 .1-.2.5-.2.5l1.2.8-.2.2-1.2-.8-.2.3h-.2c0-.1.6-1 .6-1m-12.6-4.3c.1.1.2.3.4.3-.2 0-.3 0-.4-.2 0-.1-.2-.3-.4-.4h2.4c.1 0 .2 0 .3.2h-2.2Zm8.6-.2c-.2.2-.3.4-.5.6H30h.1c.2 0 .2-.2.3-.3h-2.2V21h2.6Zm6.7-1.5c0 .2.1.3.2.4v.2h-.2c-.2 0-.3-.1-.5-.2 0 0 0-.1-.1-.2s.4.1.4.1.2.2.3.2c0-.2-.3-.4-.5-.5v-.3h.2c0 .1 0 0 0 0l-.2-.2s-.1 0-.2-.1h.3l-.2.2h.2c0 .1.4 0 .4 0 0 .1-.1.2-.2.3 0 .1.2.2.3.2s-.2-.2-.2-.2h.1v-.1c0 .2.3.3.4.4h.2-.2c-.1 0-.2-.1-.3-.2ZM27 26.7h-.2c-.2 0-.4 0-.4-.2s0-.4.3-.4.5 0 .5.4c0 .2 0 .4-.2.5-.1.1-.3.1-.5 0l-.1-.1v-.1h.1s0 .1.1.1c0 0 .1 0 .2-.2v-.1Zm-.3-.3c0 .1 0 .2.2.2.1 0 .2 0 .2-.2 0-.1 0-.2-.2-.2 0 0-.2 0-.2.2m1.7 3.2h.3l.2 1.6h-.3zm-9.7-3.1-.1-.2 1.4-.8.2.2-1.4.8ZM36 19.6h.1c0 .1 0 0 0 0l-.2-.2h-.1c-.2 0-.4 0-.6.1H35v-.1c0-.1.1-.3.2-.4v-.2.5s0 .1.1.1h.4c0-.1-.1-.3 0-.4l.2.2c.2.2.3.5.5.7v.2h-.1l-.4-.4Zm-.8 8-.2.2-1.2-1.1.2-.2zm-14.8.9-.2-.2c.4-.4.8-.8 1.2-1.1l.2.2zm8-16.4v.2c-.2 0-.1.2-.2.2H28v-.3c.1 0 .3-.1.4-.2.1 0 .1-.2.2-.4h-.2s.2 0 .2-.1h.2v.1h-.1c-.1 0-.2 0-.2.2s0 .3-.1.5v.5h-.1c0 .1 0 .2-.2.1l.2-.9Zm-.3 14.5c.1 0 .2.1.2.3 0 .1 0 .2-.2.2h-.4c-.1 0-.2-.1-.2-.2h.1v.1h.2c0-.1 0-.3-.1-.3 0 0-.1 0 0-.1h.1v-.2h-.1v.1h-.1s0-.2.1-.2h.4c.2 0 .2.2 0 .4Zm8.3-7.2.3.2v-.1l-.7-.7s-.1-.2-.2-.3v-.2c.2.2.4.5.6.8.1.2.2.4.4.5v.2h-.1l-.3-.3Zm-10.8 7.7v-.8h.3v.7s0 .1.1.1h-.5Zm3.5-.1v.1h-.5v-.9h.4v.6q0 .2.2.2Zm-.7-15.5.3-.3c.1 0 .2-.2.3-.3h.1v.1c0 .1-.1.2-.2.2-.2 0-.4.2-.6.3Zm6 5h.1c0 .1.2.2.2.3v.1h-.2c.1-.2 0-.4 0-.5Zm-4 7.9v-.2H34s.1 0 .1.1c0 0 0 .1-.1.1h-3.5Z"/></g></svg>