<svg xmlns="http://www.w3.org/2000/svg" viewBox="0 0 128 44.9"><defs><style>.cls-1{fill:#2c3563;fill-rule:evenodd}</style></defs><g id="_图层_1" data-name="图层_1"><path class="cls-1" d="m17.8 19.1.3.8.8-.4-.4.8.8.3-.8.3.4.8-.8-.4-.3.8-.3-.8-.8.4.4-.8-.8-.3.8-.3-.4-.8.8.4zm22.1 0 .3.8.8-.4-.4.8.8.3-.8.3.4.8-.8-.4-.3.8-.3-.8-.8.4.4-.8-.8-.3.8-.3-.4-.8.8.4zM38.5 14v-.3.1s-.2 0-.2.1l-.6.3c-.4.2-.8.3-1.3.3H36h1c.2 0 .4 0 .7-.2.2 0 .5-.2.7-.3 0 0 .2 0 .3-.1h.1c0 .1 0 .2.1.2.3.2.5.5.8.8l.2.2v-.2s0-.1-.1-.2c-.2-.1-.3-.3-.5-.4-.2-.2-.4-.4-.5-.6Zm-7.3-3h.5s0 .1.2 0l.1-.1c0-.1 0-.3.2-.4 0-.1.1-.2.2-.3v-.1s0-.1-.2-.2h-.7l-.2-.2v.6c0 .3-.2.7-.3 1 0 .2-.2.5-.3.7v.4s.1 0 .1-.2.2-.4.2-.5c0-.2.1-.5.2-.7v-.2Zm.5 0h-.5v-.3h.4l-.1-.1h-.3c0-.2.1-.3.1-.3h.5v.2c0 .2-.1.4-.2.6Zm1 .3c.1 0 .3 0 .6.1-.1.5-.3 1.1-.5 1.6v.1h-.1s-.1 0-.2-.1c.1.2.2.3.3.5v.1s.1 0 .2-.2c0 0 0-.1.1-.2.1-.6.3-1.3.6-2.3 0-.2 0-.3.2-.3v-.1s-.1-.2-.2-.2H33s0-.1-.2-.2v.3c0 .2 0 .3-.1.5zh.1Zm.7 0h-.6V11h.4l-.1-.1h-.4c0-.1 0-.2.1-.4h.4v.3c0 .2-.1.4-.2.6Zm-8.5.7s.3.2.6.5c.3.2.6.4.8.5h.3c.2 0 .4-.2.6-.2h.1-1c-.1 0-.4-.1-.6-.3-.3-.1-.5-.3-.8-.5v-.2c.2-.1.6-.3 1-.4h.2-.5c-.2.1-.4.3-.7.5v-.3c-.1 0-.1-.2-.2-.2V11h-.5v.1c.1 0 .2.1.2.2l.3.9-.8.5h.4c.2-.1.3-.2.5-.3v.8c0 .2 0 .3-.2.5 0 .2-.2.4-.4.6 0 0 .1 0 .3-.2.1 0 .2-.2.3-.4 0-.1.2-.3.2-.5v-.7Zm-6.3 3.1h.2zv-.2h-.2s0 .2.1.2l-.2.2s.1 0 .2-.1v.2-.3Zm.5.3h.2zv-.1H19v.2s-.2.1-.2.2h.2v.3-.3Zm-.2 1.3s.2 0 .2-.2.1-.4.2-.6.2-.5.4-.9l.2-.4s0 .1.1.2v-.6s-.2 0-.4.1c0 0-.1 0-.1.1s-.1.2-.1.3c-.3-.3-.5-.6-.6-.7 0 0-.1 0-.3.1 0 .1-.1.3-.2.4h.1v-.3h.1l.1.1s0 .1-.1.2v.2l.2-.3.2.2v.4l.2-.3.2.2v.2c-.2.3-.3.7-.5 1.1-.1 0-.2 0-.3-.1v-.3h.1-.1v.2h-.1c0-.1 0-.3.1-.4h-.1v.3-.5h-.1v.1c0 .2-.1.2-.2.3h.3s.3 0 .7.2c0 .1-.1.2-.2.3h-.2s.1 0 .1.1v.3h.2s.1 0 0-.1c0 0 0-.2-.1-.2l-.2-.2Zm1.6-.7c.1-.2.3-.5.5-.9 0 0 0-.1.1-.2v-.1H21s-.2 0-.2.1l-.1.1c-.1.3-.2.6-.4.9s0 0-.1 0v-.6s-.2 0-.3.1v.1c0 .2-.1.4-.2.6 0 .1 0 .2-.2.3h.1s.1-.1.1-.2c0 0 0-.3.1-.6 0 .1.1.2.2.4v.1h.2l-.6 1.3h.1v-.1c0-.3.2-.6.4-.9v-.2c.1 0 .2 0 .3.2.1 0 .2.1.2.2v.2l-.2.2h.5v-.2c0-.1 0-.2-.2-.3-.1-.1-.3-.2-.4-.3 0 0-.2 0-.2-.1Zm16.9-.5.5.5v.1h.2c.1-.1.3-.2.4-.3h.2v-.4c-.1 0-.2-.1-.3-.2l-.1-.1h.2l.3.2.3.3v-.2c-.1 0-.2-.2-.3-.3s-.3-.2-.4-.3l-.2-.2v.2l.3.2h-.2v-.1s-.2.2-.3.2c0 0-.1 0-.2.1h-.1v.1Zm.7.5s0-.1-.2-.2l-.4-.4h.1l.4.4v-.1s0-.1-.2-.2c0 0-.2-.1-.3-.2h.1v-.1l.4.3v-.1l-.2-.2s-.2-.1-.2-.2c0 0 .1-.1.2-.1 0 .1.2.2.3.3.2.1.2.2.2.3 0 0 0 .1-.1.2-.2.2-.4.3-.4.3Zm-1.2.4c-.1 0-.2 0-.4-.1-.2 0-.4-.2-.5-.3l.1.2c.1.1.2.2.4.3.1 0 .3.1.4.1v.9l.4.4c0-.1-.1-.3-.2-.5 0-.2-.1-.4-.2-.5v-.3h.7v-.2s0-.1-.1-.1c0 0-.1 0-.2-.1l-.2-.2v-.2h-.7c-.2 0-.3 0-.5-.2l.6.3h.3v.5Zm.5-.4c.1 0 .2.1.2.1h-.4v-.5h.1s0 .1.2.2Zm1.5 13.8-1.7-1.2.3-.4.8.3c.2 0 .4.1.6.2 0 0-.2-.1-.3-.2-.1 0-.2-.1-.3-.2l-.6-.5.3-.4 1.7 1.2-.3.4-.9-.3c-.2 0-.4-.1-.6-.2.2.1.5.3.7.4l.5.4-.3.4Zm1.4-4.7v-.5h.4v-.2h-.3l-.3.3h-.4c-.2 0-.3-.1-.4-.2V24c0-.2 0-.3.2-.4s.2-.1.4 0h.2v.5h-.3v.2h.1s.2 0 .4-.2.3-.2.4-.3h.3c.2 0 .3.1.4.2 0 .1.1.3 0 .5 0 .2-.1.3-.2.4-.1 0-.3.1-.5 0h-.2Zm.4 1.2-2-.6v-.4c.1 0 2.1.6 2.1.6v.4Zm-1.4 1.5.2-.4h.2s.1.1.2 0v-.1h-.4c-.2 0-.3.2-.4.2h-.4c-.1 0-.3-.2-.3-.3v-.5c0-.2.2-.3.3-.3h.6l-.2.5h-.3v.1s.2 0 .5-.1l.4-.2h.3c.2 0 .3.2.3.3v.5c0 .2-.2.3-.3.4h-.6Zm-1.6 3.3-1.5-1.4.7-.8.3.3-.4.4.3.3.4-.4.3.3-.4.4.3.3.4-.4.3.3-.7.8Zm-.9.8-1.4-1.5.3-.3 1.4 1.5zm-2.1-.3.6.8.1.1h.1v-.1l-.6-.8-.1-.1h-.1zm-.3.3c-.1-.2-.2-.3-.1-.5 0-.1.1-.3.3-.4s.3-.2.5-.1c.1 0 .3.1.4.3l.5.7c.1.2.2.3.1.5 0 .1-.1.3-.3.4s-.3.2-.5.1c-.1 0-.3-.1-.4-.3zm-1.5 2.3-.8-1.9.7-.3.3.6c0 .2.2.3.3.5v-.5l-.2-.7.7-.3.8 1.9-.4.2-.3-.7c0-.1-.1-.3-.2-.5l-.2-.5c0 .2 0 .3.1.4v.2l.3 1.1h-.3c0 .1-.6-.8-.6-.8 0-.1-.2-.2-.2-.3s-.1-.2-.2-.3l.2.4.2.5.3.7-.4.2Zm-2.1.4v-2.1h.7l.7 2h-.5l-.1-.3h-.3v.4zm.5-.8h.2l-.2-.7v-.3zm-2.9.3h.5v.4h.2v-.2l-.1-.1h-.1c-.1-.2-.2-.3-.3-.4 0 0 0-.1-.1-.2v-.2c0-.2 0-.3.2-.4.1 0 .3-.1.5-.1s.3 0 .4.2c0 0 .1.2.1.4v.2h-.5v-.3H29v.1s0 .2.3.4l.3.3v.3c0 .2 0 .3-.2.4-.1 0-.3.1-.5.1s-.3 0-.4-.2c0-.1-.1-.3-.1-.4v-.2Zm-1.9.5.6-2h.6l.2 2.2h-.5v-.4h-.3v.3h-.5Zm.7-.7h.2V33v.4l-.1.6Zm-1.9.4.3-1.6h-.3v-.5l1.1.2v.4H26l-.3 1.6h-.5Zm-1.4-.5.8-1.9.4.2-.8 1.9zm-1.3-1.5.4.2v.4h.2v-.3c0-.3 0-.4-.1-.5v-.4c0-.1.2-.2.4-.3.1 0 .3 0 .5.1q.3.15.3.3v.4c0 .1-.4 0-.4 0v-.3h-.1v.5c0 .2.1.4.1.4 0 .1 0 .2-.1.3 0 .1-.2.2-.4.3-.1 0-.3 0-.5-.1s-.3-.2-.3-.4c0-.1 0-.3.1-.5v-.1Zm-.8-1.2h.3v-.2l-.1-.2-.3.4Zm-1.1.7 1.3-1.6.5.4c.1.1.2.2.2.3s0 .2-.1.3 0 .1 0 .1l-.2.2h-.2v.2s0 .2-.1.2l-.3.4v.1l-.4-.3V32l.3-.3s.1-.2 0-.2c0 0 0-.1-.1-.2l-.6.7-.4-.3Zm-1.3-1.3 1.5-1.4.7.8-.3.3-.4-.4-.3.3.4.4-.3.3-.4-.4-.3.3.4.4-.3.3-.7-.8Zm-1-1.3 1.5-1.4.3.4-.7.5-.2.2c-.1 0-.2.2-.4.3l.6-.3.8-.4.3.4-1.9.9-.3-.5Zm-.7-1.3 1.9-.9.2.4-1.9.9zm-.8-1.9 2-.7.2.5-.7.5c-.2.1-.3.2-.5.3l.6-.3.7-.3v.4c.1 0-1.8.7-1.8.7l-.2-.5.8-.6c.2-.1.3-.2.5-.3-.1 0-.3.1-.4.2-.1 0-.2 0-.4.1l-.6.2v-.4H17Zm1.7-1.8-1.5.2H17v.2h.1l1.5-.2v.5l-1.4.2h-.5c-.1 0-.2-.2-.2-.4s0-.4.1-.5c0-.1.2-.2.5-.2l1.5-.2v.5Z"/><path class="cls-1" d="M28.9 7.5c8.2 0 14.9 6.7 14.9 14.9s-6.7 14.9-14.9 14.9S14 30.6 14 22.4 20.7 7.5 28.9 7.5m0 1.3c7.5 0 13.6 6.1 13.6 13.6S36.4 36 28.9 36s-13.6-6.1-13.6-13.6S21.4 8.8 28.9 8.8m0 .3c7.3 0 13.3 6 13.3 13.3s-6 13.3-13.3 13.3-13.3-6-13.3-13.3 6-13.3 13.3-13.3m0 4c5.1 0 9.2 4.1 9.2 9.2s-4.1 9.2-9.2 9.2-9.2-4.1-9.2-9.2 4.1-9.2 9.2-9.2m0 .3c4.9 0 8.9 4 8.9 8.9s-4 8.9-8.9 8.9-8.9-4-8.9-8.9 4-8.9 8.9-8.9m0-5.3c7.8 0 14.2 6.4 14.2 14.2s-6.4 14.2-14.2 14.2-14.2-6.4-14.2-14.2S21.1 8.1 28.9 8.1"/><path class="cls-1" d="M30.5 19h.5v-.4h.2v.4h.5v-.4h.2v.7h-1.8v-.4h.2v-.3h.3v.4Zm-1.6 1.1h.2v-.3h-.2zm.3.1s.1 0 .2.1l.2-.2s-.2-.1-.3-.2v.3Zm.3.2v.1h.3c0-.2-.1-.3-.2-.3l-.2.2Zm.2.2v.2h.3v-.2zm-.1.2v-.2c0-.1-.1-.2-.2-.2-.3-.3-.9-.2-1.1 0 0 .1-.2.2-.2.4v1.3h1.6v-1.3Zm-1.7 0v-.2h-.3c0 .1.3.1.3.1Zm.2-.3v-.1l-.2-.2s-.1.2-.2.2h.3Zm.1-.2s.1 0 .2-.1v-.3c-.2 0-.3.1-.4.2zm.3-.2h.3v-.3h-.3zm.9-.3c.2 0 .4.2.5.4v-.4zm.6.5s0 .2.1.2h.3v-.2zm-2.4.3s0-.2.1-.2h-.4v.2zm.2-.4c.1-.2.3-.3.5-.4h-.5zm2 .9h.3v-.2h-.3zm0 .3h.3v-.2h-.3zm0 .4h.3v-.2h-.3zm0 .3h.3v-.2h-.3zm-1.9-1.2h-.3v.1h.3v-.2Zm-.2.5h.3v-.2h-.3zm.2.2h-.3v.2h.3zm-.2.5h.3v-.2h-.3zm-.5-.6h.3v-.4h-.3zm-.5 0h.4v-.4h-.4zm.3.6h.5v-.5H27zm-.3 0h.2v-.5h-.2zM27 21h.5v-.3H27zm-.3 0h.2v-.3h-.2zm0-.4h.5v-.2h-.5zm.3-.4h.6v-.4H27zm-.7 0h.6v-.4h-.6zm-.5 0h.4v-.4h-.4zm5.7 0h.4v-.4h-.4zm-.7 0h.6v-.4h-.6zm-.8 0h.6v-.4H30zm-4.2-.5h.2v-.3h-.2zm.4 0h.4v-.3h-.4zm.5 0h.4v-.3h-.4zm.5 0h.8v-.3h-.8zm.9 0h.7v-.3h-.7zm.8 0h.7v-.3h-.7zm.8 0h.8v-.3h-.8zm.9 0h.4v-.3h-.4zm.4 0h.4v-.3H31zm.6 0h.3v-.3h-.3zm.4.6h-.9v1.9h-4.5v-1.9h-.9v-1.9h.5v.4h.2v-.4h.5v.4h.2v-.4h.3v-1h.5v.4h.3v-.4h.5v.4h.3v-.4h.5v.4h.3v-.4h.5v1h.4v.4h.2v-.4h.5v.4h.2v-.4h.5v1.9Zm-1.5.3h.5v-.2h-.5zm-3-2h-.2v.4h-.5v-.4h-.2v.4h-.5v-.4h-.2v.7h1.8v-.4h-.2zm.2.6v-.4h.7v.4zm.8 0v-.4h.7v.4zm.8 0v-.4h.7v.4zm.8 2.9h.5v-.5h-.5zm.7 0h.2v-.5h-.2zm-.7-4.5v.6h-2.5v-.6h.3v.4h.5v-.4h.3v.4h.5v-.4h.3v.4h.5v-.4h.3Zm-2.5 1.2h.5v-.4h-.5zm.6 0h.6v-.4h-.6zm.7 0h.6v-.4h-.6zm.7 0h.5v-.4h-.5zm1 2.7h.4v-.4h-.4zm.2-.5h.2v-.3h-.2zm-.7.5h.3v-.4h-.3zm.6-.8v.3h-.5v-.3z"/><path class="cls-1" d="M24.3 18h3.2v-.2h-3.2zm5.9 0h3.2v-.2h-3.2zm-5.8 1.9h1.4v-.2h-1.4zm7.6 0h1.3v-.2H32zm-7.5 1.5h2.1v-.2h-2.1zm3.5 0h1.6v-.2H28zm3.1 0h2.1v-.2h-2.1zM24.9 23H27l.8-.8h.2l-.8.8h3.2l-.9-.9h.3l.8.8h2.2v.2h-8v-.2Z"/><path class="cls-1" d="m25.6 15.1-2.4 2.1c.7 0 1.1.8 1.1 1.4V20c0 1.3 0 3.5 1.4 4.1.3.1 1.5.4 2.2.7.8.4.8.7.9.8.1-.1.3-.4.8-.7.7-.3 1.9-.6 2.3-.8 1.4-.6 1.4-2.8 1.4-4.1v-1.4c0-.7.4-1.4 1.1-1.5L32 15c-1.1.7-1.9 1-3.2 1-1.4 0-2.2-.3-3.3-1Zm0 .3-2 1.7s.5.3.8 1c0 .3.1.7 0 1v1c0 1.2 0 3.3 1.3 3.9.2 0 1.5.4 2.1.7.7.3.9.6 1 .6.1-.1.3-.3.8-.6.6-.3 1.8-.6 2.2-.7 1.3-.5 1.3-2.7 1.3-3.9v-2c.1-.4.4-.8.8-1l-2-1.7c-1.1.7-1.9 1-3.2 1s-2.2-.3-3.3-.9Z"/><path class="cls-1" d="m32 15.9.3.5h.6l-.4.5v.6c.1 0-.4-.3-.4-.3l-.5.3v-.6c.1 0-.3-.4-.3-.4h.6l.3-.6Zm-3.2 7.4.3.5h.6l-.4.5v.6c.1 0-.4-.3-.4-.3l-.5.3v-.6c.1 0-.3-.4-.3-.4h.6l.3-.6Zm0 .3v.3h.5l-.2.2v.3l-.2-.2-.3.2v-.3l-.2-.2h.3zm-3.1-7.7.3.5h.6l-.4.5v.6c.1 0-.4-.3-.4-.3l-.5.3v-.6c.1 0-.3-.4-.3-.4h.6l.3-.6Zm0 .4v.3h.5l-.2.2v.3l-.2-.2-.3.2v-.3l-.2-.2h.3zm6.3 0v.3h.5l-.2.2v.3l-.2-.2-.3.2v-.3l-.2-.2h.3zm-5.9 10.6h.1-.2Zm2.1-.1c-.1 0-.3 0-.6.1h.2v.2c0 .1-.1.2-.2.2s.6-.2.6-.2h.1v-.2h-.2s-.1 0 0 0l.1.1h-.5l.3-.3v-.1h.4-.1Zm1.9-.1v.2c0 .3-.2.5-.3.6.1 0 .2-.3.3-.5 0 0 0 .1.1.3v.1h.2c-.2-.1-.4-.2-.4-.4l-.1-.1v-.2h-.1Zm1.8.9h.3-.4v-.4l-.2-.1v1h-.3v-.5h-.2v.5h-.3 1.4s.1 0 0 0h-.7v-.5Zm-2.4-.8s.1.2.2.2v-.1h-.2Zm.3.3h-.6.3c0 .2-.1.4-.4.6.2 0 .4-.2.4-.4v.5h.1v-.4h-.1.3Zm.2.5c0 .1.1.2.1.2v-.1h-.2Zm0 .2c0 .1.2.2.2.2v-.2zm-2-.1h.2s.1 0 0 0zv-.1h-.2v.2h-.3.2v.2h-.5.1c.4 0 .8-.1 1.2-.1 0 0 .1 0 0 0h-.6v-.2Zm-2.4-.7h-.2Zm.4.4h.5c-.2 0-.3 0-.5.1h.2v.1H26h.2c-.1.1-.2.1-.3.2h.3v.2h-.6.1c.1 0 .4 0 .8-.2h.4-.5s.1 0 .1-.1h-.1v.1h-.1v-.2h.3-.3v-.1Zm-.2.3h-.1v-.1Zm.4.2h-.4v.2h.6s0-.1.1-.1h-.1Zm-.5.2h.3v.1h-.4v-.1Z"/><path class="cls-1" d="M33 26.6q.3-.3.3-.6c0-.2-.1-.3-.2-.4s-.2-.3-.3-.4v-.5c.1-.4.5-.6.9-.7h.9v-.5c0-.3-.1-.5-.2-.8 0-.2-.1-.4-.1-.6V21c.1.2.2.3.3.5.1-.2.5-.4.8-.4s.9.3.9.6-.1.3-.3.4v1.2s.2.2.2.3c.1.2.2.5.2.7-.1.7-1.3 1.3-1.3 2v1c0 .1-.2.1-.3.1-.2 0-.5-.4-.7-.3-.2 0-.2.2-.3.4 0 .3-.1.5-.2.8 0 .2-.2.4-.4.5l-.2.2h-.3c-2.4-.7-5.2-.7-7.7 0h-.3s-.2 0-.2-.2c-.1-.2-.3-.3-.4-.5s-.2-.5-.2-.8c0-.2 0-.3-.3-.4-.2 0-.5.3-.7.3-.1 0-.2 0-.3-.1v-1c0-.7-1.1-1.4-1.3-2 0-.3 0-.5.2-.7 0-.1.1-.2.2-.3v-1.2c-.2-.1-.3-.3-.3-.4 0-.3.4-.6.9-.6s.7.2.8.4c.1-.2.2-.3.3-.5v1.1c0 .2 0 .4-.1.6-.1.3-.3.5-.3.8v.5h.9c.4 0 .7.3.9.7v.5c0 .2-.2.3-.3.4s-.2.2-.2.4 0 .4.3.6c3-.7 5.3-.7 8.4 0m-.3 2.2s.2 0 .2-.1c.2-.5 0-1.1 0-1.6v-.4c-2.8-.6-5.4-.6-8.2 0v.4c0 .5-.2 1.1 0 1.6 0 .1.1.1.2.1 2.4-.7 5.2-.7 7.6 0Zm-8 0c-.1-.2-.1-.6 0-.9V27c0-.2-.1-.2-.2-.3-.2-.3-.3-.7 0-1 .2-.2.4-.4.4-.6s0-.7-.6-.8h-1.1v.9c.2.3.4.7.4 1.1v.8s.3-.1.5.2c.1.2.1.5.2.7 0 .2.2.4.3.6l.2.2Zm-1.8-4.6v-.8c0-.2.2-.4.2-.7 0-.2.1-.3.1-.5v-.7s-.3.6-.8 1.2c-.2.3-.6.6-.8 1-.1.2-.3.5 0 .9 0 0 .1.2.2.3s.7 0 1.2-.6Zm-1 .8c.4.4.9.8.9 1.4v.9h.2s.2-.1.3-.2v-.8q0-.45-.3-.9c-.2-.2-.2-.5-.2-.8 0 0-.5.3-.9.4m0-1.9c.2-.2.4-.4.5-.6 0 0 .2-.2.2-.3h-.8v.9Zm.9-1.1s.1-.2.2-.3c0-.2-.4-.4-.7-.4s-.7.2-.7.4 0 .2.2.3zM33 28.8c.1-.2.1-.6 0-.9V27c0-.2.1-.2.2-.3.2-.3.3-.7 0-1-.2-.2-.4-.4-.4-.6s0-.7.6-.8h1.1v.9c-.2.3-.4.7-.4 1.1v.8s-.3-.1-.5.2c-.1.2-.1.5-.2.7 0 .2-.2.4-.3.6l-.2.2Zm1.8-4.6v-.8c0-.2-.2-.4-.2-.7 0-.2 0-.3-.1-.5v-.7s.3.6.8 1.2c.2.3.6.6.8 1 .1.2.3.5 0 .9 0 0-.1.2-.2.3s-.7 0-1.2-.6Zm1 .8c-.4.4-.9.8-.9 1.4v.9h-.2s-.2-.1-.3-.2v-.8q0-.45.3-.9c.2-.2.2-.5.2-.8 0 0 .5.3.9.4m0-1.9c-.2-.2-.4-.4-.5-.6 0 0-.2-.2-.2-.3h.8v.9Zm-.9-1.1s-.1-.2-.2-.3c0-.2.4-.4.7-.4s.7.2.7.4 0 .2-.2.3H35Zm33.2 4.5h-.4v-1.2c0-.2 0-.4.1-.6 0-.2.1-.7.2-.9 0-.3.2-.6.4-.9 0-.1 0-.2.1-.3.2-.3.3-.7.5-1 0-.1.1-.3.2-.4v-2.6c0-.2.1-.6.1-.6v-.2s0-.1.1-.2v-.2c.1-.2.2-.2.2-.2s0-.1.2-.2l.2-.1h.7c.1 0 .4.3.4.5v.6c0 .1.2.3.2.5v.7c0 .2-.2.2-.3.3-.1 0-.2.2-.3.2 0 0 0 .2-.1.2V23c-.2.3-.4.7-.5 1.1v.3c0 .1-.2.3-.2.5 0 .1-.2.2-.2.4-.3.4-.6 1.3-1.1 1.6h-.3Zm11.8-13.1c.1 0 .3.2.4.2l.1.1c.1 0 .2.2.3.2 0 0 .1 0 .2.1.1 0 .1 0 .2.2 0 0 .2 0 .3.2l.2.2.1.1s.2.1.3.2l.3.3.4.4s.2.2.2.3c.1.1.2.2.3.4.1 0 .2.2.3.2l.2.2s0 .1.1.2l.1.1s.1.2.2.3l.2.4v3.9s-.1 0-.1.1v1.2c0 .1-.1.3-.2.4-.1.2-.2.3-.3.5 0 0-.1.1-.1.2-.2.2-.2.3-.5.4-.1 0-.5.4-.7.4-.2.2-.5.2-.6.4-.2.1-.1.1-.3.3 0 0-.2.1-.2.2h-.6c-.2 0-.2 0-.4-.1-.2 0-.2-.1-.4-.2-.1 0 0-.1 0-.2v-.8c0-.1 0-.2.1-.3s.4-.2.5-.4l.2-.2h.4l.1-.1s.2-.1.3-.2l.2-.2c0-.2.2-.3.3-.5.1-.3.2-.5.4-.9v-.1c0-.2 0-.3.1-.5v-.3c0-.7.3-1.1 0-2-.1-.3-.3-.4-.4-.7 0-.1-.2-.3-.3-.4 0 0-.1-.2-.2-.3h-.2c-.2-.3-.3-.5-.4-.6l-.1-.1c-.1 0-.2-.2-.3-.3h-.2s-.2-.1-.3-.2c-.1 0-.1-.2-.2-.2H79s-.3 0-.4.1h-.3c-.2 0-.4.2-.5.3-.2.1-.3.1-.5.3 0 0-.2 0-.2.1-.3.3-.5.3-.8.6 0 0-.1 0-.2.1 0 0 0 .1-.2.2 0 0-.2.2-.3.2h-1.3c-.1-.1-.2 0-.3-.2h-.3s-.2-.1-.2-.2c0-.2-.1 0-.2-.2 0-.1-.1 0-.1-.2v-.4q0-.6.3-.9c.2-.2.3-.3.7-.3h1.1s.3 0 .4-.1c0 0 .2-.2.3-.2.2-.2.4-.2.6-.3.4-.2.8-.4 1.1-.7 0 0 .3-.2.4-.2h.1s.2 0 .2-.1H80Zm27.2 8V20c0-.1.1-.2.1-.4 0 0 0-.2-.1-.3 0 0-.2 0-.2-.1h-1.1l-.5-.3-.2-.2c0-.1 0-.1-.1-.2V18h1.4c.2-.1.2-.1.4-.3.1 0 .2-.1.3-.2.1 0 .3-.2.4-.2h.9s.3.1.3.2c.1.1.2.4.3.4 0 .1.2.3.3.3v1.6c0 .2-.2.6-.3.9 0 .2-.1.3-.1.5v1.1c.2 0 .7-.2.9-.2h.4c.2 0 .2.1.5.3.1.1.2.3.2.4 0 0 0 .2.1.3v.4c-.1.2 0 .2-.2.4v.5s.1.2.1.4 0 .4-.1.5c0 0-.1.1-.1.2-.1 0-.1 0-.2.1h-.8v2c-.2.1-.2.3-.3.4l-.2.2s-.2.1-.2.2c-.1 0-.2.1-.3.2h-1l-.2-.2c-.1 0 0 0-.2-.1-.1 0-.3 0-.4-.1h-.5c-.1 0 0 0 0 0h-.8c-.2-.4 0-.5 0-.6v-.2c0-.1.2-.3.3-.4s.2-.1.4-.2c.1-.1 0-.1.2-.1.1-.1.3-.2.5-.3 0 0 .1-.1.2-.1h.3v-.2c-.1 0-.2 0-.3-.1 0 0-.1 0-.2-.1v-.1c-.2 0-.1-.2-.2-.2h-.6c-.2 0-.2 0-.3-.2v-.6c0-.2 0 0 0 0 0-.2.1-.4.2-.5V24s.1-.2.2-.2c0 0 .1 0 .2-.1h.6v-1.1Zm1.1-5.7c.1-.1 0-.1.1-.2s.2-.2.2-.3c.1-.1.2-.2.2-.3s.2-.2.4-.4l.2-.2v-.1s.2-.1.2-.2c-.2 0-.3 0-.5.1h-.4c-.1 0-.2 0-.3.2 0 0-.2 0-.2.1-.1 0 0 0-.2.2h-.2l-.2-.2s-.1-.2-.2-.3V13c0-.2.1-.3.2-.5h.1c.2 0 .4-.2.6-.2h.1s.2 0 .3-.1c.3-.2.7-.3 1.1-.3h1.4c0-.1.7-.1 1-.1h.3l.2.2h.4s.1 0 .2.1c0 .2.2.3.3.5v.7s0 .1-.2.2l-.2.2s0 .1-.1.2c0 0 0 .1-.1.2h-1.3c-.1 0-.2 0-.3.1h-.2s-.1 0-.2.1c0 0-.1 0-.2.1 0 .1-.3.2-.4.3-.1 0-.2.1-.3.2-.2.1-.2.2-.3.2 0 0-.1 0-.2.2l-.1.1s-.2.1-.3.2c-.1 0-.1 0-.2.1l-.1.1h-.1l-.2.2-.2.1h-.5l-.1-.2s-.1-.3 0-.4Zm-2.9-.6s-.2 0-.3-.1c-.2-.1-.4-.2-.5-.3l-.2-.2c0-.1-.2-.3-.2-.4v-.9c0-.1 0-.2.1-.3.2-.3.4-.3.7-.5h.6c.1 0 .3 0 .5.2.1.1.3.3.5.4l.2.2c0 .1.1.2.2.3l.2.4v.1s0 .3-.2.4c-.3 0-.7.4-.9.5-.1 0-.3 0-.4.1h-.3Zm-43 2.7c0 .3-.1.5-.2 1v.2l-.2.2c-.1.1-.5.5-.7.5s-.4 0-.6.1h-.4c-.1 0-.2.1-.4.2-.1 0-.2.2-.4.3-.1.2-.3.2-.2.5v.1s.2.1.3.2h.1s.4.1.6.4l.2.2v1.7c0 .1-.2.3-.2.4-.1.2-.3.3-.4.5.1.1.2 0 .4.1h.4c.1 0 0 .1.2.1 0 0 0 .1.2.1 0 0 0 .1.1.1l.2.2s0 .2.1.2v2.1s0 .2-.1.3c0 0 0 .1-.1.2 0 .2 0 .3-.1.4 0 0-.2 0-.3.1h-.3c-.2-.1-.4-.3-.5-.4-.3-.2-.6-.5-.7-.6h-.5c-.3-.1-.3-.2-.6-.4s-.2-.2-.5-.4c0 0-.1 0-.2-.1 0 0-.6-.2-.7-.2s-.6 0-.7.1c-.1 0-.3 0-.4.1h-.2c-.2 0-.1.1-.3.1 0 0-.1 0-.2-.1-.3-.2-.2-.4-.3-.5 0-.4.3-.5.4-.7 0-.1-.2 0-.2-.1h-.1l-.5-.2v-.5c.2-.3.6-.4.8-.6 0 0 .5-.1.6-.2h1.4c.1-.1.2-.3.3-.3h.8v-.7s-.2 0-.2-.1h-.4s-.2.1-.2.2h-.5s-.1 0-.1.2c0 0-.2.2-.2.3-.1 0-.2.1-.3.2h-1.1c0-.1-.2-.2-.2-.4 0-.1 0-.2-.1-.3 0 0 .1-.4.1-.5.1-.3.3-.4.5-.7.3-.4.5-.9.9-1.1.2-.1.3-.2.5-.3l.4-.2.8-.9h1.2s.2 0 .3-.1c0 0 0-.1.1-.2v-.4h-1.4c-.3 0-.7.2-.9.4-.1 0-.4.3-.5.4-.1 0-.2.2-.3.3v.2h-.2s-.1.2-.2.3l-.6.6s-.2.1-.3.2H55c-.3 0-.5-.1-.6-.2l-.1-.1v-.2c0-.1-.1-.3-.1-.4v-.6l.1-.2s.1 0 .1-.1v-.1s.1-.1.1-.2.2-.2.3-.3c0-.1.2-.2.3-.3.2-.3.3-.5.5-.7 0-.1.3-.5.3-.6 0 0 0-.1.1-.2 0-.2.3-.3.4-.3 0 0 .1-.2.2-.2.3-.3 0-.2 0-.3h-.3c-.1 0-.3 0-.4.1h-.6l-.1.1h-.4s0 .1-.1.1c-.2 0-.2 0-.3.1-.3 0-.3.1-.6.2h-.7v.4c0 .2 0 .4-.1.6v.2c-.2.1-.2.3-.2.4s0 .2-.1.3v.3c0 .1-.2.3-.2.5v1.2c0 .1-.2.3-.2.5v.2c0 .2 0 .4-.1.6v2.8c0 .1-.1.3-.1.5 0 0 0 .1-.1.2v.1c-.1.2-.3.5-.3.7-.2.4-.2.6-.4 1 0 .1-.2.4-.3.5-.1.2-.2.3-.3.4l-.2.2v.2c-.1.1-.2.3-.3.4l-.2.2-.1.1c-.1 0-.2.2-.2.2h-.2c-.2-.1-.3-.5-.3-.6v-.5c0-.1.1-.1.2-.3 0 0 .1-.2.2-.3.1-.2.2-.4.4-.6.1-.3.4-.7.4-.9v-.1c0-.1 0-.3.1-.4 0-.2 0-.3.1-.5 0-.2.1-.4.1-.4v-.2c0-.1 0-.2.1-.3 0-.1 0-.2.1-.4v-.5c0-.2.1-.3.2-.5 0-.1 0-.2.1-.4v-1c0-.3.2-.5.2-.7V20s.1-.1.1-.2v-.1c0-.3.1-.5.2-.6 0-.1 0-.4.1-.5v-1.7c0-.4 0-.6.2-.8v-.4c0-.1.1-.3.2-.4l.3-.3s.3-.1.4-.1h.6c0-.1.2-.2.2-.3.1-.1.2 0 .4-.2h.1c.1-.1.3-.2.5-.3 0 0 .2-.2.3-.2s.3-.2.4-.3c.1 0 .4-.2.5-.2h2s.2 0 .3-.1h1.5c.2 0 0 0 0 0h.5c.3-.1.5-.2.6-.1 0 0 .1 0 .2.1v.7s0 .2-.1.2c0 0 0 .2-.1.3 0 0-.1.2-.2.3l-.1.1-.2.2-.1.1-.7.7c-.1 0-.3.5-.4.6v.2h.6s.1 0 .2-.1c0 0 .2-.1.3-.2h.8c.1 0 .4.2.5.2.1.1.3 0 .4.2 0 0 .3.2.4.3 0 0 .3.1.4.2h.1c.2.3.1.4.1.8Zm-5.2-5.4h-2.8s-.1 0-.2-.1h-.4s-.2 0-.2-.1 0 0-.1-.1c0-.1 0-.2-.1-.3v-.5c.1-.1.3-.2.4-.4.1 0 .3 0 .4-.2 0 0 .1 0 .2-.1h.4c.1 0 .2-.1.4-.1h2.6c0-.1 1-.2 1.3-.2h.5s.1 0 .2.1c.1 0 .2 0 .3.2l.2.2v1l-.2.2s-.1 0-.2.1c-.2 0-.4.1-.6.1H59c-.2 0-.3 0-.4.1-.1 0-.2 0-.3.1h-1.4Zm40.4 13.2h-.2s-.1-.1-.1-.2l-.2-.3c-.1-.2-.2-.3-.3-.6l-.2-.4c0-.2-.2-.4-.4-.5s-.3-.4-.4-.5c0 0-.1 0-.2-.1 0 0-.1 0-.1-.1 0 0-.1 0-.1-.1l-.2-.2c0-.1-.1-.2-.2-.2v-.5l.1-.3c0-.1 0-.1.1-.2h1.2s.2 0 .3.1h.9s.2 0 .3.2c.1 0 .2.1.2.1s.2 0 .3.1c0 0 .1 0 .2.1.1 0 0 0 .2.1.1 0 .2.2.2.3v2.2c0 .2 0 .2-.1.3l-.1.2s-.4.4-.4.5l-.2.1h-.4Zm-7-1.1-.3-.2-.2-.2c0-.2-.1-.2-.2-.3 0 0-.1-.2-.1-.3 0-.4 0-.6.2-.9.1-.2.2-.3.4-.5 0-.2.2-.3.3-.5 0-.5.4-.8.7-1.2 0-.2.1-.3.1-.5h-.3s-.1 0-.2-.1c-.2 0-.3-.2-.5-.2-.2-.1-.4-.4-.4-.4v-1.1s.1-.2.2-.2.1-.1.3-.1c0 0 .1-.1.3-.1h.2c.1-.1 1 0 1.2 0l.1-.1v-1c-.2 0-.2-.3-.3-.3v-.5c0-.4.2-.6.3-.9 0 0 .1-.2.2-.2l.2-.2s.1-.1.3-.1h.6c0 .2.1.2.2.3l.3.3c.1.1.3.3.4.7 0 .1 0 .2.1.3v1.2h.7s.1 0 .2-.1h.2s.1 0 .2-.1h.8l.1.2h.1v.1h.1s.2.1.3.2c0 0 .1 0 .2.2 0 0 .1.2.2.3v.4s-.2 0-.2.1c0 0-.1.1-.2.1H97c-.1 0-.2.1-.3.2-.1 0-.2 0-.3.1h-.3c-.2 0-.5.2-.9.3-.2 0-.5.1-.7.2-.1 0-.3.1-.4.2 0 0-.1 0-.2.1 0 0-.2 0-.2.1 0 0-.1.2-.2.2l-.2.2v.3s-.1.2-.2.3c-.1.2-.2.4-.3.7v.1l-.3.6s0 .1-.1.2c0 0-.2.4-.2.5l-.4.6c-.1.1-.2.1-.3.3 0 0-.3.2-.4.2h-.3Zm-39.4 6.4h-1.4c.2 0 .4 0 .4.2s0 .2-.2.4l-.7.8-.3-.4c-.4-.5-.5-.8-.5-.9s.1-.2.4-.2H47c.2.1.4.2.5.3s.3.4.6.8l.7 1-.9 1.2c-.3.3-.5.5-.5.6 0 0-.2.1-.4.1 0 .1 1.4.1 1.4.1-.3-.1-.4-.2-.4-.3s0-.2.2-.4l.7-.9.6.8q.3.45.3.6c0 .1-.1.2-.4.2 0 .1 1.8.1 1.8.1-.2-.1-.5-.2-.7-.6l-1.2-1.6.9-1.1c.2-.2.3-.4.4-.4s.3-.1.4-.1Zm.6 4h1.8c-.2-.1-.4-.1-.5-.2 0 0-.1-.2-.1-.4v-2.7c0-.2 0-.4.1-.4 0 0 .2-.1.5-.1h-1.8c.2.1.4.1.5.2v3.5h-.5zm6.4-.2h-.3l-.2-.4-1.5-3.4H56l-1.2 3v.1c-.2.4-.3.7-.4.8 0 0-.2.1-.3.1 0 .1 1.2.1 1.2.1-.3-.1-.4-.2-.4-.4v-.2l.3-.7h1.6l.3.6v.4c0 .2-.1.3-.4.2 0 .1 1.5.1 1.5.1v-.1Zm-2.9-1.4.7-1.6.7 1.6zm8.5-2.4h-1.2l-1.3 3-1.4-3h-1.2c.2.1.4.1.5.2v2.8c0 .3 0 .5-.1.6 0 .1-.2.2-.5.2 0 .1 1.4.1 1.4.1-.2-.1-.4-.2-.4-.3s-.1-.3-.1-.6v-2.4l1.5 3.3 1.5-3.4v3.2s-.2.1-.5.1c0 .1 1.7.1 1.7.1l-.4-.2v-3.5s.2-.1.4-.1Zm4 2.9h-.2c-.1.3-.3.5-.5.6s-.5.2-.8.2h-.8s-.1 0-.1-.2v-1.5h.9c.3 0 .4 0 .5.1 0 0 .1.2.2.5h.1v-1.4h-.1c0 .3 0 .4-.2.5 0 0-.2.1-.5.1h-.9v-1.3c0-.2 0-.2.2-.2h.8c.4 0 .6 0 .7.1.1 0 .2.2.2.5h.2V31h-3.2c.2.1.4.1.4.2v3.5s-.2 0-.4.1c0 .1 3.2.1 3.2.1l.3-1Zm4.6-2.9h-1.4c.2.1.4.2.4.3s.1.3.1.6v2l-2.3-2.9h-1c.2 0 .4.2.6.4V34c0 .3 0 .5-.1.6 0 .1-.2.2-.5.2 0 .1 1.4.1 1.4.1-.2-.1-.4-.2-.4-.3s-.1-.3-.1-.6v-2.3l2.6 3.2h.1v-3.1c0-.3 0-.5.1-.6l.4-.2Zm7.3 0h-1.4c.2.1.4.2.4.3s.1.3.1.6v1.6c0 .4 0 .7-.1.8-.2.3-.5.5-1 .5-.7 0-1.1-.4-1-1.2v-2.3s.2-.1.4-.1h-1.7c.2.1.4.1.4.2v2.3q0 1.5 1.5 1.5c1.5 0 1.6-.5 1.5-1.6v-1.6c0-.3 0-.5.1-.6 0-.1.2-.2.4-.2Zm4.7 0h-1.4c.3.1.4.2.4.3s.1.3.1.6v2l-2.3-2.9h-1c.2 0 .4.2.6.4V34c0 .3 0 .5-.1.6 0 .1-.2.2-.5.2 0 .1 1.4.1 1.4.1-.2-.1-.4-.2-.4-.3s-.1-.3-.1-.6v-2.3l2.6 3.2h.1v-3.1c0-.3 0-.5.1-.6l.4-.2Zm.5 4h1.8c-.2-.1-.4-.1-.5-.2 0 0-.1-.2-.1-.4v-2.7c0-.2 0-.4.1-.4 0 0 .2-.1.5-.1h-1.8c.2.1.4.1.5.2v3.5h-.5Zm6.3-4h-1.2c.3.1.5.2.4.4v.4l-.9 2.2-.9-2s0-.2-.1-.3c0-.2-.1-.3-.1-.4 0-.2.1-.2.4-.2h-1.6c.2.1.3.2.3.2s.2.2.3.5l1.5 3.3 1.3-3.3c0-.2.2-.4.2-.4s.2-.1.3-.1Zm4.1 2.9H95c-.1.3-.3.5-.5.6s-.5.2-.8.2h-.8s-.1 0-.1-.2v-1.5h.9c.2 0 .4 0 .5.1 0 0 .1.2.2.5h.1v-1.4h-.1c0 .3 0 .4-.2.5 0 0-.2.1-.5.1h-.9v-1.3c0-.2 0-.2.2-.2h.8c.4 0 .6 0 .7.1.1 0 .2.2.2.5h.2V31h-3.2c.2.1.4.1.4.2v3.5s-.2 0-.4.1c0 .1 3.2.1 3.2.1l.3-1Zm4.3.9c-.2 0-.4 0-.5-.3l-1.2-1.5c.7-.1 1.1-.4 1.1-1 0-.7-.5-1-1.5-1h-1.7c.2.1.4.1.4.2v3.5s-.2.1-.4.1c0 .1 1.7.1 1.7.1l-.4-.2V33h.3l1.4 1.8h1v-.1Zm-2.8-3.4c0-.2 0-.2.4-.2.7 0 1 .3 1 .8s-.5.9-1.4.9zm5.8-.5h-.1c0 .1 0 .2-.2.2h-.2c-.3 0-.4-.1-.6-.1-.7 0-1.1.4-1.1 1q0 .75.9 1.2c.4.2.7.4.8.6.1.1.2.3.2.5 0 .4-.3.6-.7.7-.5 0-1-.3-1.2-1.1h-.1l.2 1.2h.1s0-.1.2-.1h1c.8 0 1.2-.4 1.3-1.1-.1-.6-.5-1-1.1-1.3q-.75-.3-.9-.9 0-.45.6-.6c.6 0 .9.4 1.1 1h.1v-1.3h-.1Zm1.1 4.1h1.8c-.3-.1-.4-.1-.5-.2 0 0-.1-.2-.1-.4v-2.7c0-.2 0-.4.1-.4 0 0 .2-.1.5-.1h-1.8c.2.1.4.1.5.2v3.5h-.5Zm4.9-.2c-.2 0-.4 0-.5-.1v-3.5h.3c.3 0 .6 0 .7.1.1 0 .2.3.3.6h.1v-1H106v1c0-.3.2-.5.3-.6.1 0 .3-.1.7-.1h.3v3.5s-.2.1-.5.1c0 .1 1.8.1 1.8.1v-.1Zm5.4-3.8h-1.3c.3 0 .4.2.4.3v.2l-.9 1.4-.9-1.3v-.3c0-.1 0-.2.3-.2h-1.7c.1 0 .3.1.4.3.1.1.3.4.6.8l.8 1.1v1.5s-.2.1-.5.1c0 .1 1.8.1 1.8.1-.3-.1-.4-.1-.5-.2 0 0-.1-.2-.1-.4v-1.2l.9-1.3c.3-.5.6-.7.8-.7Z"/></g></svg>