<svg width="46" height="46" fill="none" xmlns="http://www.w3.org/2000/svg"><path fill-rule="evenodd" clip-rule="evenodd" d="M27.647 19.896c.034-.116-.032.122 0 0" fill="#595857"/><path fill-rule="evenodd" clip-rule="evenodd" d="M26.626 43.563c-1.088.324-2.066.795-2.72 1.446H22.35c-.653-.651-1.668-1.12-2.72-1.446-1.667-.508-3.443-.652-4.458-.652H2.595c-.472 0-.87-.143-1.159-.47-.29-.291-.435-.652-.435-1.12V1.554c0-.435.144-.832.435-1.12.292-.29.69-.434 1.16-.434h12.577c1.159 0 3.188.18 5.074.758 1.052.325 2.03.759 2.864 1.337.834-.578 1.849-1.012 2.863-1.337C27.896.18 29.926 0 31.084 0h12.578c.435 0 .834.144 1.122.434.291.29.435.688.435 1.12V41.32c0 .471-.144.832-.435 1.12-.291.323-.653.47-1.122.47H31.085c-1.015 0-2.827.144-4.459.652" fill="#6f1e75"/><path fill-rule="evenodd" clip-rule="evenodd" d="m35.58 16.737-5.982-2.746-5.982 2.746c-.037 0-.218.107-.292.18-.107.107-.144.217-.18.361v3.254h-2.466V6.364h17.336c.276 0 .497.223.497.495v13.676h-2.466v-3.18a.7.7 0 0 0-.107-.361c-.037-.073-.107-.144-.254-.18 0-.037-.074-.074-.108-.074zm-4.713 9.257v11.459h-2.502V26.064c-.037-.29-.291-.541-.58-.541h-7.104V23.1h17.906v2.422H31.41a.54.54 0 0 0-.543.47M8.132 6.364h10.087v2.459h-7.54c-.324 0-.579.253-.579.54v2.28c0 .317.26.577.58.577h7.54v8.315H7.631v-2.459h7.54a.58.58 0 0 0 .579-.578V15.22c0-.29-.255-.541-.58-.541H7.633v-7.82c0-.275.224-.495.497-.495zm30.455 21.871v8.722a.496.496 0 0 1-.496.496h-2.003v-9.22h2.502zm-15.367 0v9.22h-2.539v-9.22zm5.111-6.941V18.15h2.502v3.144zm-5.185-7.557c.037.254.255.397.58.29l5.329-2.458h1.052l5.328 2.458c.399.107.617-.036.617-.324v-4.34c0-.29-.255-.54-.58-.54H23.73c-.325 0-.58.253-.58.54v4.374zm-4.93 23.716V23.1h-2.428v11.44c-.037.254-.255.434-.51.471h-4.712c-.291-.037-.509-.254-.509-.541V23.104H7.63v13.838c0 .275.22.495.497.495l10.087.019z" fill="#fff"/></svg>