<svg width="183" height="46" fill="none" xmlns="http://www.w3.org/2000/svg"><g clip-path="url(#clip0_393_386)"><path fill-rule="evenodd" clip-rule="evenodd" d="M25.626 44.554c-1.088.324-2.066.795-2.72 1.446H21.35c-.653-.651-1.668-1.12-2.72-1.447-1.667-.507-3.443-.65-4.458-.65H1.595c-.472 0-.87-.145-1.159-.472-.29-.29-.435-.651-.435-1.12V2.545c0-.434.144-.831.435-1.119.292-.29.69-.434 1.16-.434h12.577c1.159 0 3.188.18 5.074.758 1.052.324 2.03.759 2.864 1.337.834-.578 1.849-1.013 2.863-1.337 1.923-.578 3.953-.758 5.111-.758h12.578c.435 0 .834.144 1.122.434.291.29.435.688.435 1.12v39.767c0 .47-.144.832-.435 1.12-.291.323-.653.47-1.122.47H30.085c-1.015 0-2.827.144-4.459.651" fill="#6f1e75"/><path fill-rule="evenodd" clip-rule="evenodd" d="m34.58 17.728-5.982-2.746-5.982 2.746c-.037 0-.218.107-.292.18-.107.107-.144.217-.18.361v3.254h-2.466V7.355h17.336c.276 0 .497.223.497.495v13.676h-2.466v-3.18a.7.7 0 0 0-.107-.361c-.037-.074-.107-.144-.254-.18 0-.037-.074-.074-.108-.074zm-4.713 9.257v11.458h-2.502V27.055c-.037-.29-.291-.541-.58-.541h-7.104v-2.422h17.906v2.422H30.41a.54.54 0 0 0-.543.47M7.132 7.355h10.087v2.458H9.68c-.324 0-.579.254-.579.542v2.278c0 .318.26.578.58.578h7.54v8.315H6.631v-2.459h7.54a.58.58 0 0 0 .579-.578v-2.278c0-.29-.255-.541-.58-.541H6.633V7.85c0-.275.224-.495.497-.495zm30.455 21.871v8.722a.496.496 0 0 1-.496.495h-2.003v-9.22h2.502zm-15.367 0v9.22h-2.539v-9.22zm5.111-6.942v-3.143h2.502v3.143zm-5.185-7.556c.037.254.255.397.58.29l5.329-2.458h1.052l5.328 2.458c.399.107.617-.036.617-.324v-4.34c0-.29-.255-.54-.58-.54H22.73c-.325 0-.58.253-.58.54v4.374zm-4.93 23.715V24.092h-2.428v11.44c-.037.254-.255.434-.51.471H9.567c-.291-.037-.509-.254-.509-.541V24.095H6.63v13.838c0 .275.22.495.497.495l10.087.019z" fill="#fff"/><path fill-rule="evenodd" clip-rule="evenodd" d="M109.987 19.896c.135-.116-.129.122 0 0M170.19 6.887l.067-.067c.144-.178.212-.3.42-.398l.071-.067.067-.068c.172-.314.568-.535.837-.792l.141-.067c0-.15.325-.244.488-.397l.07-.068.068-.067.141-.067c.619-.59 2.49-1.762 3.201-1.988l.141-.067.138-.068.141-.067c.319-.153.537-.312.908-.397l.208-.068.209-.067.907-.131h.279l.279-.068.071-.067.067-.067q.107-.1.209-.199l.07-.132v-.198l.071-.132c.107-.605.144-.34.349-.73V.25l-.07-.067-.071-.068-.07-.06-.209-.068h-.417l-.42.067h-.279l-.279.061c-.169.058-.353.14-.487.266l-.138.068-.141.067c-.172.165-.338.257-.558.465l-.138.067c-.215.208-.549.324-.77.532l-.068.067c-.3.141-.548.328-.837.465l-.141.067-.138.068-.141.067-.208.067-.071.068-.138.067-.211.067-.138.067-.141.068-.138.067-.141.067-.138.068-.141.067-.138.067-.141.067-.279.068-.138.06-.071.068-.208.067-.209.068-.208.067-.279.067-.212.067-.346.068h-.908l-.141-.068-.138-.067-.208-.067h-.212c-.398.043-.678.082-1.042.199l-.138.067-.141.067c-.488.16-.558.63-.558 1.061l.07.132c.429.407.816.905 1.251 1.324l.141.067.071.068.138.067v.131l-.071.132c-.141.138-.346.199-.487.33h-.138l-.071-.067-.07-.067c-.23-.218-.267-.349-.35-.664l-.067-.196-.071-.067-.141-.067-.208-.068h-.417l-.142-.067c-.208-.098-.619-.196-.763-.33l-.141-.067-.209-.068-.137-.067-.279-.067h-.35l-.209.067-.279.067c-.423.132-.564.37-.907.532l-.071.2c0 .326.003.397.141.66l.138.33.071.132.07.131.071.067.067.068.071.131c.325.618.978 1.395 1.533 1.92l.067.068.071.199v.33l-.071.131-.067.2-.071.066a1.7 1.7 0 0 1-.279.398l-.07.132-.071.067c-.174.336-.3.434-.487.795-.141.131-.209.327-.35.459-.34.327-.365.816-.693 1.128l-.07.067-.071.068c-.187.357-.45.452-.558.862l-.067.199c0 .468.046.755.138 1.19l.07.067c.525 0 .289-.398.696-.398l.071-.067.487-.061.071-.068v-.663c.291-.324.34-.126.629-.398.091-.351.374-.547.487-.862.077-.211.199-.373.279-.596.046-.224.046-.312.209-.465l.07-.196.071-.067.067-.068.071-.067.07-.067.071-.067.067-.068.071-.131.07-.067.071-.068.067-.067.071-.067.07-.068.071-.067.067-.067.071-.132.07-.131.071-.132.067-.067.071-.067c.196-.364.276-.257.558-.532.254-.12.398-.358.628-.465l.071-.067.067-.068c.218-.202.301-.373.629-.526l.07-.067.138-.067.141-.068c.411-.131.534-.29.908-.464l.138-.068.07-.067.138-.067c.27-.129.503-.272.77-.398l.138-.067.141-.067c.245-.117.49-.138.693-.33l.138-.068c.242-.11.435-.202.699-.266l.138-.067c.303-.144.656-.294.978-.398l.138-.067c.512-.208.791-.14 1.462-.462.335-.107.623-.199.978-.266l.138-.067c.758-.104 1.481-.346 2.23-.465h.208l.42-.067h.558l.209.067.349.067.138.068.071.067.07.067.068.132.07.33v.131l-.07.328-.068.131-.07.132-.071.131-.07.132-.068.067-.07.067-.071.132-.07.067-.068.067-.07.132-.071.067-.07.067-.068.068-.07.067-.071.067-.07.067-.068.068-.07.067-.071.067-.07.068-.138.067-.071.067-.138.067-.07.068-.142.067c-.318.153-.582.376-.901.529l-.141.067-.067.068c-.276.128-.721.348-.908.526l-.141.067-.067.067-.212.067-.138.068-.141.067-.138.067-.071.068-.138.067c-.294.14-.536.385-.834.532l-.141.067h-.487l-.141-.067-.209-.067-.208-.068-.141-.067-.972-.067h-.141l-.488.067-.208.067-.141.068-.209.067-.346.067-.35.067-.349.068h-.417l-.212-.068h-.622l-.071.068-.07.067c-.411.395-.35 1.012-.35 1.523l.141.398.071.131.067.067c.16.3.534.584.837.731h.071l.42-.067c.257-.125.561-.266.837-.33.328-.315.15-.068.622-.068h.279v.2l-.07.198-.068.067-.07.132-.071.131-.07.132-.068.067-.07.067-.071.068-.067.067-.071.067-.07.067-.071.068c-.107.208-.309.318-.417.532l-.07.067-.071.067-.067.132-.141.06-.138.068-.212.067h-.346l-.42-.067-.209-.067-.349-.061h-.138l-.141.06-.071.068-.138.067-.07.132-.071.131-.138.068-.141.067-.067.067-.071.068-.07.067c-.059.275-.151.523-.209.798l-.141.862-.067.2-.071.99v.532c.08.303.175.572.279.863.853.269 1.8-.037 2.646-.2l.699-.13 1.371.02.153-.119.282-.033-.07.73-.068.2-.07.13-.071.132-.07.132-.068.131-.07.068-.071.128a1.1 1.1 0 0 0-.279.199l-.138.067-.279.067h-.42l-.417-.131-.487-.067c-.307 0-.42.247-.42.532.306.15.325.318.628.465l.209.067.349.067h.764l.558-.067.208-.067.209-.068.211-.067.138-.067c0-.165.138-.129.279-.266.203-.19.681-.685.764-.924l.07-.131c0-.514.141-.991.141-1.526v-.2h.138l.35-.066.07-.034.623-.034.07.068h.279l.35-.068.07-.067v-.131l-.349-.132.208-.067.071-.067v-.132h-.35l-.279.067-.457.046-.794-.046-.07-.067-.209-.067.138-.068v-.131h.209v.131h1.462v-.131l-.07-.128-.068-.2h.347l.07-.067.071-.067.07-.33.068-.465.141-.067.138-.068.141-.067v-.131c0-.303.003-.324-.209-.53l-.07-.067q-.35-.33-.699-.663l-.417-.199-.141-.061-.138-.067-.279-.068c-.359-.085-.678-.067-1.043-.067l-.07-.067h-.209l.279-.067.138-.068c.147-.137.383-.333.488-.532l.07-.131.071-.266c0-.144.291-.16.417-.398l.07-.199.071-.131.07-.2.068-.33v-1.058l-.068-.198-.07-.132v-.199l.07-.131.138-.067.141-.068.138-.067.209-.067.141-.067.138-.068c.184-.174.463-.287.699-.397l.138-.068.211-.067.068-.067.141-.067.837-.398c.288-.092.549-.19.766-.394a2.3 2.3 0 0 0 .837-.465 2.4 2.4 0 0 0 .488-.33l.07-.068c.276-.26.562-.569.908-.73l.067-.068.071-.067c.061-.12.107-.236.209-.334l.07-.067.071-.067.07-.132c.442-.838.693-.336.693-1.587l-.071-.33-.067-.132-.07-.198-.071-.068-.071-.067-.067-.067-.141-.067-.138-.068-.141-.067-.071-.067-.138-.068-.141-.067-.208-.067c-1.328-.477-1.19.037-2.398.107-.889.14-1.683.162-2.545.29-.3 0-.539.08-.837.132-.251.08-.533.153-.766.266l-.35.067-.208.068c-.739.351-.261.058-.978.397-.319.098-.669.187-.972.333l-.141.068c-.169.08-.316.183-.485.266-.221.067-.674.244-.837.394l-.138.068c-.509.162-.328.336-.849.477l.083-.147zm2.713 12.875.022-.138-.699-.028h-.724l.359-.247.279-.068.067-.033.528.018.306.015.071.266-.089.358-.071.012-1.306.031c-.5.055.246-.067.325-.086.212-.045.681-.073.932-.094m-18.948 1.492c.328.19.494.648.76.93l.092.049.411.06h.662c.565.04 1.028-.223 1.567-.057.365.06.561.046.923.14.733 0 .35-.34.969-.666.668-.358 1.116-.826 1.889-.933.162-.083.312-.08.475-.074v-.07l-.037-.04-.061-.131c-.84-.875-1.917-.966-2.882-1.48a3 3 0 0 1-.469-.22c-.899-.49-1.88-1.037-2.677-1.716a6 6 0 0 1-.503-.468c-.304-.318-.635-.532-.938-.862a72 72 0 0 0-.807-.86l-.374-.397c-.552-.584-1.073-1.202-1.622-1.79l-.089-.09-.11-.469h.153c.454 0 1.288-.416 1.684-.679.217-.14.404-.336.573-.544q.092-.11.184-.23a.6.6 0 0 1 .092-.097l.095-.199c-.003-.208-.021-.419-.037-.62a21 21 0 0 0-.113-.982c-.049-.346.009-.19-.092-.526a40 40 0 0 0-.503-1.325c-.491-.523-1.067-.41-1.067-1.177-.481.132-.898.743-1.226 1.098l-.138.22-.322.165-.12-1.942c0-.568-.19-1.036-.423-1.526-.074-.162-.301-.526-.445-.605l-.141-.074-.073-.08c-.246-.259-.733-.335-1.04-.183l-.033.034-.114.236-.055.177c-.049.486-.08.911 0 1.4.055.517.116.597.165 1.108.056.532.209 1.571.209 2.104v.012l-.071.452-.107.114-.119.067c-.488.514-1.555.78-2.171.486-.5.024-1.211.474-1.46.957v.618c.025.15.059.208.123.34a.8.8 0 0 1 .067.308c.059.19.132.373.178.572.249.535.641 1.465.969 1.817l.015.012.056.116c.184.107.328.266.509.364l.84.083-.138.3-.062.253-.061.199c-.067.287-.208.55-.34.801-.138.254-.279.508-.347.795-.125.266-.276.422-.447.652-.304.394-.552.82-.89 1.183l-.125.132c-.374.397-1.285.883-1.788 1.024-.303.159-.549.306-.88.398-.27.094-.533.22-.785.351v.046c.23.003.445.025.672.037.236.015.454 0 .69-.034h.003l.622-.003c.895-.186 1.8-.294 2.698-.456l.114-.116.018-.009a.94.94 0 0 0 .445-.474l.009-.021.08-.08.061-.067c.337-.358 1.527-1.994 1.65-2.523.138-.431.272-.835.573-1.162a8 8 0 0 1 .432-1.046l.095-.202h.304l.208.22c.184.107.445.44.571.606.647.871.223.651.959 1.235.258.208.43.536.583.841.126.257.267.57.457.77l.018.013.009.022c.135.29.282.568.381.877.131.416.245.847.432 1.236.202.434.38.84.573 1.272m-32.709-4.997c.003.312.092.615.15.917l.074.2.141.452c.294.278.435.663.727.933l.202.119c.221.055.395.147.586.266.177.116.331.214.539.278l.025.01.067.06.794.062c2.416-1.211 2.677-1.92 5.023-2.132 1.024-.092 2.535-.245 3.943-.043a7 7 0 0 1 1.882.502c.291.131.558.33.785.443h.009c.436.132.816.16 1.236.349l.129.058h.328l.224-.104c.015-.12.049-.245.082-.36.056-.203.138-.447.138-.655v-.416l.175-.08.206-.55-.074-.954-.043-.043-.261-.236v-.049c0-.159.016-.269-.055-.41l-.125-.112-.126-.056c-.552-.125-1.294-.19-1.717-.571l-.049-.043c-.935-.138-1.889.024-2.824.073l-.822.068-.23.067-1.042.082.159-.37c.279-.758.696-2.107.978-2.865l.071-.395.067-.458v-.245h.325l.166-.055.061-.113.055-.046c.095-.847.144-.688.049-1.388.059-.49-.273-.636-.273-.93 0-1.104-.947-.93-1.606-1.514l-.129-.058a8.3 8.3 0 0 0-1.407-.266h-.35l-.132.061-.236.07c-.23.07-.441.175-.65.291-.389.217-.739.431-1.18.53h-.012l-.013.002c-.533 0-.932-.153-1.401.061h-.009c-.39.12-.856.303-1.043.688-.153.312-.119.747-.092 1.086.304.547.574.327.675.966l.067.236.068.058.083.153c.174.312.288.648.457.957l.073.138c.153.278.724-.03.969.195l.12.055.591.068.479.088v.315l-.175 1.575-.163.294-.079.07-.151.272-.073.068-.08.137-.073.07c-.145.258-.329.432-.546.627l-.095.086-.025.01c-.337.097-.641.265-.993.345-.558.125-1.129.14-1.696.14-.423 0-.76-.02-1.171-.143h-.025l-.079-.08-.138-.06c-.144-.068-.288-.13-.433-.197h-.187c-.794.245-.757.621-.889 1.337m-27.493 6.012.116.462c.04.15.07.287.04.44-.022.126-.07.245-.101.367l-.013.058-.211.242h-.074c-.233 0-.383.034-.604.095-.27.08-.481.08-.76.04l-.061-.01-.046-.055c-.068-.073-.23-.128-.32-.153-.21-.07-.57-.131-.64-.419l-.061-.214-.053-.293-.073-.086v-.813c.04-.306.116-.597.184-.896v-.114c0-.247.009-.498.015-.743.022-.614.046-1.214.046-1.825v-.022l.055-.324-.055-.248-.061-.926v-.358c0-.431.08-.924.003-1.343v-.021l-.003-.382.061-.557c0-.257.019-.654-.055-.89v-.018c-.098-.44.055-.862.055-1.297 0-.26.03-.492.061-.746.037-.29.04-.523 0-.816v-.034c0-1.037.184-2.073.12-3.107v-.034l.061-.3.059-.538.06-.627.062-.56.062-.418.058-.538.061-1.603.08-.085c.095-.416.116-.9.398-1.22l.083-.095.187-.104h.04c.288 0 .51.067.779.143h.012c.442.172.62.55.727 1.034l.07.162v.792l-.14.324c-.071.16-.133.266-.172.44v.025l-.068.138-.055.266-.068.217c-.095.324-.131.663-.174 1.003-.08.648-.105 1.303-.242 1.936v.465a202 202 0 0 0-.062 4.715c0 .618.086 1.236.126 1.853.055.655.067 1.407.233 2.037l.01.034v.03c0 .349.02.685.039 1.028q.02.315.022.636c0 .186.085.4.116.584v.021l.003.649c0 .43 0 .862.01 1.293.002.434.02.872.048 1.303M82.877 15.07c-.304.691-.752 1.93-1.46 2.147l-.046.05-.245.14-.07.08-.224.085c-.424.162-.785.431-1.23.56h-.022l-.65.003-.116-.129-.058-.07-.083-.095-.202-.459v-.012a2 2 0 0 0-.114-.287c-.037-.07-.08-.141-.116-.217-.12-.242-.15-.468-.15-.747v-.088l.199-.224.12-.07.06-.067.025-.015c.138-.08.331-.254.442-.377l.12-.137c.051-.058.097-.132.153-.187a.55.55 0 0 1 .245-.131l.046-.168.058-.126.067-.382.062-.074.058-.25.24-.477-.038.012c-.091.037-.18.08-.27.116l-.113.049-.245-.281-.126-.07-.12-.138-.15-.089-.211-.477c-.169-.395-.359-.71-.435-1.15l-.047-.15-.12-.14-.082-.288v-.501l.092-.212.104-.119.528-.296.22-.083h.81a.8.8 0 0 1 .254-.174V8.098l-.058-.266-.061-.77-.058-.322-.068-.23v-.278l.068-.229.067-.36.144-.337.104-.116.187-.107h.19c.335.058.55.128.85.3l.03.018.099.116.06.14.133.15.08.273.067.59v.012c0 .22.055.48.092.697.037.196.074.389.086.587l.055.254.04.138.015-.022.061-.067.102-.116.12-.278.104-.117.067-.385.245-.138h.45l.384.676.129.29c.037.083.215.288.282.362l.34.385.013.018.35.627.395-.235.362-.223.021-.315.061-1.187.126-.85.067-.312.267-.606.35-.394.187-.107h.487l.23.26v.468l-.073.257-.141.32-.059.071-.04.095c-.15.514-.196.982-.233 1.523v.544l.062 2.14.055.765c.202-.33.39-.678.561-1.033l.347-.716v.82c0 .547-.512 1.569-.736 2.076l-.11.257-.175.789-.059 1.841.062 1.156-.022.049c-.386.884-1.591.183-1.9-.453l-.062-.073-.095-.211V15.06l.116-.128.102-.117.098-.22.058-.348.061-.144.061-.278.01-.022c.046-.095.08-.232.107-.336.046-.184.089-.36.126-.544.03-.16.058-.315.082-.477.013-.114.031-.236.031-.35l-.024-1.256a2 2 0 0 1-.15.177c-.243.27-.507.517-.767.768-.325.309-.945.884-1.082 1.346l-.059.201-.058.279v.009c-.129.431-.294 1.098-.573 1.443m6.616 1.343c-.312.015-.686.015-.929-.236-.15-.153-.23-.382-.312-.584l-.013-.024-.037-.324v-.79l.071-.639.163-.183h.049l.03-.058.055-.593.062-.416.061-.765.058-.48.062-1.382.058-.762.061-1.177.061-1.061.068-.303.058-.202.068-.36.082-.196.2-.224h.693l.113.386v5.648a4 4 0 0 0 .178-.266l.54-.875-.313 1.56-.104.93-.059.56-.06.476c-.025.389-.12.85-.01 1.227l.012.045-.08.72-.089.048c-.257.147-.512.3-.806.3m-6.08-4.752c-.273.125-.546.272-.711.458l-.022.025-.024.018c-.154.086-.371.22-.423.422-.034.113-.034.266-.04.385a2.6 2.6 0 0 1-.101.536l.12-.132c.125-.278.293-.514.468-.75.154-.21.322-.43.43-.675l.021-.046zm-1.42 2.073-.024.024-.025.058.025-.03.024-.055zm-12.246 1.738.353.067.589.132.361.067.175.067.534.068.19.07.233.128.294.067.138.074.01.01c.095.112.137.13.27.183l.19.07.012.012c.107.125.187.278.294.398l.01.009.125.281.067.217v.013c0 .229-.024.422-.082.639-.056.19-.114.373-.16.569l-.067.223-.08.088-.255.141-.251.07h-.549l-.423-.067-.2-.073-.119-.138-.113-.061c-.19-.107-.57-.398-.672-.618l-.046-.046-.116-.067-.359-.397-.34-.19-.187-.07-.059-.068-.165-.06-.236-.132-.178-.068-.132-.07-.058-.067-.104-.058-.249-.07-.184-.203-.116-.067-.371-.416-.074-.162v-.162l.07-.23.08-.088.117-.067.067-.07.261-.074h.607l.724.132.174.067zm-2.253-3.716.334-.055.359-.067.41-.067.586-.129.178-.07.359-.067.297-.068.353-.06.582-.132.246-.138h.257l.313.07.126.07.165.062.304.067.138.074.138.162v.021c.055.27.113.56.138.835.012.174.012.373-.083.517-.178.269-.678.26-.944.26h-.004l-.54-.068-.235-.067H69.32l-.35.067-.41.068-.172.06-.239.071-.279.061-.058.061-.163.062-.043.085v.609l.056.058.067.293v.61l-.061.409-.068.22-.058.067-.055.18-.058.258-.059.458-.058.395v1.71l.058 1.663v1.394l-.061.826-.129.144-.058.128-.126.141-.08.092h-.278l-.203-.074-.012-.015c-.144-.162-.445-.34-.632-.45l-.257-.14-.068-.144-.058-.067-.058-.132-.105-.116-.236-.128-.055-.061-.16-.062-.254-.07-.153-.171v-.26l.101-.113h.218l.242.067.291.067h.221l.209-.058.024-.03v-4.33H65.6l-.34.128-.104.058-.059.067h-.009c-.22.125-.518.26-.696.453l-.067.073-.126.07-.166.126c-.184.195-.417.266-.588.455l-.07.083h-.022c-.221.067-.417.202-.644.27-.163.09-.49.277-.549.476l-.012.037-.203.08-.128.07h-.27c-.09-.025-.166-.037-.252 0-.049.024-.1.058-.144.085-.07.04-.14.08-.218.107h-.009l-.364.07h-.313v-.293l.08-.174.128-.07.117-.132.129-.07.346-.196c.166-.183.359-.33.524-.517l.068-.073.126-.07.171-.126c.166-.187.362-.34.527-.523l.068-.08.12-.06q.228-.263.466-.524l.049-.058.061-.14.129-.074.113-.125q.323-.356.644-.716a1.6 1.6 0 0 1 .245-.34l.05-.054.058-.132.12-.131.116-.266.058-.061.055-.187.068-.15.073-.082.105-.059.018-.067h-.423l-.47.132-.294.067-.233.061-.175.067c-.257.095-.5.202-.77.266l-.119.068h-.009c-.215.043-.377.12-.576.195l-.117.068-.184.07c-.156.058-.26.178-.407.257l-.013.01h-.125v.073l-.074.162-.055.06-.059.197-.012.012a.64.64 0 0 0-.16.293l-.057.456c-.019.131-.037.27-.062.398-.009.06-.024.125-.033.183q-.02.104-.019.208c-.01.174-.003.352-.003.523v.021l-.061.138-.059.395h-.003c-.239.816-1.088 1.247-1.425 2v.009l-.059.06-.058.2-.14.152-.255.144-.252.07h-.144l-.129-.073-.168-.061-.243-.067-.12-.07-.186-.068-.068-.07c-.233-.138-.303-.278-.478-.474l-.01-.01-.008-.012c-.108-.244-.331-.324-.417-.605l-.062-.211V18.5l.062-.213.058-.132.067-.211.15-.165h.47l.061.067h.248l.108-.061.165-.061.117-.129.116-.067.359-.394.117-.068.303-.34.558-.125v-.419l.129-.29.346-.382v-1.037l.062-.281.067-.153.129-.14c.141-.157.383-.444.604-.429.058.01.117.03.175.046a1 1 0 0 0 .177.03c.117-.183.51-.19.669-.201.15-.013.334-.019.475-.059l.184-.067.353-.067.533-.199.359-.067.47-.129.183-.07.353-.067.702-.257.104-.058.058-.067.098-.059.056-.17.058-.203.058-.125.058-.465.12-.269.061-.211.013-.012c.162-.178.407-.303.628-.352h.141l.255.07h.003c.095.059.15.12.22.208.043.055.08.095.138.126l.01.009.132.15.073.162v.654zM65.17 9.963a.5.5 0 0 1-.086.16c-.021.024-.046.042-.067.06-.013.016-.016.05-.016.07v.028l-.129.15-.058.132-.423.468c-.19.214-.423.406-.668.544l-.013.01h-.502l-.19-.071h-.01c-.35-.199-.383-.294-.503-.694l-.067-.074v-.572l.061-.272.068-.22.07-.08.059-.067.423-.474h.009a1 1 0 0 0 .2-.165 1 1 0 0 1 .201-.162l.117-.128.236-.2.052-.06c.114-.126.236-.162.383-.218h.013l.512-.003.021.022c.347.388.436.7.436 1.244v.01l-.062.492zm-4.973-.428-.209.23-.132.073-.37.138h-.139l-.361-.068-.258-.07-.126-.14-.475-.267-.055-.058-.282-.061-.12-.07-.178-.062-.131-.073-.132-.153-.12-.26-.184-.202v-.015a1 1 0 0 0-.092-.199c-.122-.202-.276-.351-.38-.572l-.058-.067v-.012a2.5 2.5 0 0 1-.187-.544l-.059-.2h-.003a2.6 2.6 0 0 1 0-.956v-.025l.16-.174h.582c.258.073.54.137.782.272l.233.128.166.062.362.067.12.07.235.068h.01c.22.128.423.269.637.415q.238.172.488.315h.012l.15.306c.068.3-.033.242-.012.538.015.202.169.55.175.759.009.266-.059.535-.046.813m.012-3 .297-.452.132-.074.236-.067.114-.061c.291-.162.702-.459.932-.713l.107-.125c.07-.15.15-.281.249-.407.07-.092.153-.174.23-.269a1.1 1.1 0 0 0 .223-.547l.062-.358.19-.217c.208-.233.478-.288.76-.288h.022c.328.126.429.19.515.57l.067.07v.776l-.061.202-.058.465-.022.055.055-.015.3-.068.476-.131.294-.067.237-.068.472-.067.171-.067.246-.068.35-.067.177-.067.294-.067.175-.062.245-.07.408-.061.114-.067.187-.068.3-.067.236-.067.715-.132.475-.067.353-.067.41-.067.236-.068.289-.067.362-.199h.631c.573.217.886.77.76 1.44-.036.2-.168.346-.248.524v.012l-.2.217-.248.14-.18.068-.117.067-.343.129-.175.195-.132.074-.353.131-.12.061-.346.129-.058.067-.178.067-.984 1.104-.058.132-.236.266-.058.131-.093.095h-.073v.104l-.15.083-.07.08h-.074v.112l-.212.074-.058.067-.166.061-.046.098.288-.04h.154l.049-.058.359-.058.06-.07.384-.074h.322l.129.074.187.07.242.196.117.067.073.089c.114.247.126.257.178.654l-.07.083-.068.14-.26.15-.166.061-.068.074h-1.152l-.592.067h-1.076l-.267-.073-.08-.092-.107-.184-.05-.058-.07-.08-.07-.228v-.884l.129-.428.058-.068.058-.198.061-.068.056-.183.067-.15.073-.086.261-.143h.399l.092.104.061.21.068.141v.352l.107-.25.12-.13.058-.13.177-.2.117-.266.061-.067.059-.131.058-.068.058-.131.058-.067.062-.129.058-.067.058-.132.058-.067.062-.131.11-.129.061-.21.138-.074.163-.184.058-.131.117-.129.12-.266.058-.067.012-.03-.2-.047h-.515c-.15.056-.282.108-.42.19a1.7 1.7 0 0 1-.316.15l-.248.183-.172.062c-.245.253-.935.348-1.26.467h-.003l-.362.07-.29.062-.353.131-.237.068-.174.067-.476.132-.184.067-.337.061-.055.061h-.015c-.178.07-.494.171-.623.321l-.012.012-.178.068-.058.067h-.015c-.267.104-.316.23-.433.492v.013l-.135.14a.9.9 0 0 0-.162.245v.012l-.126.132c-.089.19-.22.44-.352.593l-.068.144-.14.08-.179.066-.116.062c-.224.128-.733.44-.978.3-.117-.068-.132-.267-.184-.401-.037-.089 0-.383-.016-.514.034-.281 0-.223 0-.514l.037-.293-.046-.141c-.083-.223-.242-.364-.316-.502-.095-.177-.1-.345-.11-.651M57.149 11l.343.061c.212.043.528.043.69.22l.046.055.16.059.233.067.303.067.129.07c.144.083.255.15.374.282l.08.085v.175c-.095.572.12 1.131-.126 1.679l-.012.021-.022.012c-.089.055-.187.116-.282.153-.098.046-.211.08-.316.116h-.012l-.711.003-.141.055c-.068.147-.12.248-.157.416v.013l-.294.544-.08-.887-.055-.187-.168-.376c-.28-.305-.785-.7-.954-1.07h-.003l-.055-.19a1.9 1.9 0 0 1-.362-.749v-.165l.061-.217.07-.16.12-.066.056-.12.089-.098h.628l.255.07.116.068z" fill="#595857"/><path fill-rule="evenodd" clip-rule="evenodd" d="M109.282 17.132h-.236c0-.475.095-.361.561-.358l-.092.14-.074.214-.03.248-.365.25-.074.074-.08.141-.079.07-.08.07-.313.074c-.208.187-.38.389-.469.642v1.355l.074.144.079.357c.218.594.804.713 1.488.713.306 0 .558-.012.864-.07h.153c.715 0 1.389-.288 2.116-.288v.217l-.08.141v.214l.236.288h.313l.16-.07c0 .247.233.201.233-.071h.315l.233-.073c.47-.211.39-.352.709-.643l.079-.07.074-.07.08-.07.159-.148.233-.07.08-.07.08-.288.159-.36v-.07c-.144-1.178-.475-1.573-1.646-1.573l-.08.07-.233.071-.862.073h-.316l.16-.073c.147-.27.399-.407.702-.498l.236-.07.16-.074.073-.07.08-.502.08-.14.079-.071.08-.073c.083-.456.23-.897.313-1.355l.079-.217c0-.364-.07-.352-.312-.572l-.08-.07c-.399-.056-.708-.153-1.098-.215l-.628-.07h-1.098v-.217l-.073-.14-.08-.643h.233l.156-.07c.16-.15.35-.27.549-.361l.08-.211.08-.074h.073l.08.144.159.07c.475.218 1.003-.17 1.411-.357l.079-.07c.43-.2.491-.328.709-.72l.073-.14.08-.07.08-.074c.294-.266.493-.663.785-.93l.073-.14.16-.147c0-.143.552-.807.628-1.284l.08-.358.08-.214.076-.14c.27-.493.515-1.059.705-1.576.154-.422.187-.84.233-1.287v-.428l-.073-.288-.08-.217c-.092-.165-.172-.37-.316-.501l-.153-.141-.08-.07-.159-.074c-.23-.07-.383-.159-.629-.21l-.233-.077h-2.508a17.7 17.7 0 0 0-3.526.718l-.236.07c-.242.114-.457.245-.702.359l-.08.07-.233.076c-.217.196-.499.312-.708.499l-.159.073-.154.07-.159.07-.16.071-.079.074-.154.07-.159.07h-.159l-.234-.07-.159-.07-.08-.288-.233-.073h-.395l-.077.073-.236.07-.313.07-.628.071v.147h-.236l-.154.07-.159.07-.16.074-.073.07-.08.07-.08.071-.079.07-.08.074-.08.07-.153.07-.08.07c-.245.45-.959.664-1.333 1.004-.338.208-.733.452-1.015.712l-.08.07-.16.074-.159.07c-.494.224-.64.3-1.018.643l-.08.07c-.107.104-.162.23-.233.358l-.08.217v.287c.804 1.465.74 1.572 2.362 1.575l-.086.141-.08.14c-.233.212-.316.361-.469.643l-.16.073c-.266.245-.53.257-.705.572l-.076.07-.08.07-.08.071-.08.147v.498l.08.217.08.144.08.211.076.144.08.14.08.074.079.07.08.141.08.07.073.144.08.07.08.07.08.074.079.07.08.07.08.071.153.074.159.07h.16v.287l-.08.499-.08.147-.079.287-.08.288c-.067.357-.178.633-.233 1v.143l.08.358.073.07c.279.508.994.435 1.487.288l.16-.07.159-.07.08-.074c.27-.126.411-.233.622-.428l.08-.07.316-.218c.291-.529.791-.884 1.018-1.501l.076-.147.08-.07.08-.141c.328-.603.457-1.266.782-1.86.107-.29.319-.58.472-.859.12-.336.469-.942.469-1.29h.153l.08-.288v-.21l-.08-1.215h-.233l-.079.14-.08-.07-.08-.07-.08-.431-.073-.211V8.82l.073-.429.08-.143.16-.07c.07-.267.107-.386.312-.572l.08-.502h.16l.079-.07c.295-.276.558-.685.938-.86.267-.241.353-.269.703-.428l.079-.07c.319-.144.623-.288.939-.431.26-.08.539-.104.784-.214l.154-.07.316-.071.389-.07.469-.074.389-.07.316-.07.469-.07.549-.077.862-.07h.469l.233.07.159.076.08.07.08.07.08.148.079.21v.93c0 .725-.104.618-.395 1.144l-.08.144a4 4 0 0 0-.313.783l-.079.217c-.448.82-.868 1.51-1.567 2.144l-.074.07-.08.073-.079.07-.16.07-.153.071c-.083-.468-.196-.847-.316-1.284h-.233l-.159.287-.08.07-.08.218c-.187.174-.358.327-.549.501l-.233.07-.079.071h-.08l.08-.14.079-.147.154-.141c0-.138.316-.358.475-.358l.074-.073.079-.07.08-.071.08-.07.159-.217c.037-.245.037-.75.233-.93l.08-.144v-.14l-.08-.07-.313-.074-.315-.288-.074-.07h-.159v-.07l.079-.218c.141-.26.325-.452.469-.712l.08-.07.074-.147v-.358c-.098-.187-.337-.382-.546-.572l-.159-.07-.16-.07-.313-.074h-.156c-.202.095-.291.174-.389.36l-.08.071-.08.783-.08.502-.073.357-.08.218v.14h-.236l-.233.074-.708.14h-1.178l-.073.07-.08.074-.08.14-.315.071-.074.073v.288c.12.223.178.388.233.642.242.217.294.55.549.783l.08.073.159.07c.224 0 .107.13.389.212l.16.073h.868l-.086.428-.08.288-.08.07-.153.074-.236.07-.313.07-1.567.07-.079.358v.144c.128.59.466.676 1.018.93l.389.07.469.073.159.07.16.071.074.07.079.144.08.358v.642l-.08.07-.233.074h-2.039l-.079.14-.08.141-.08.288-.08.147-.073.287-.08.501v.212l.08.217.073.287c.071.254.243.431.47.642l.079.07.08.074.389.07.16.07h.236l.073-.07.08-.07.08-.073.236-.07.389-.141v-.288zm-4.152-2.505-.079.144-.154.21-.079.144-.08.141-.08.073-.08.07c-.15.138-.312.362-.389.502-.208.38-.702.64-1.018.93l-.159.07-.074.07-.08.071-.165.07.086-.428c.138-.492.383-.764.548-1.214l.154-.07.159-.07.08-.074.159-.07c.629-.288.966-.71 1.5-.924l-.092.14-.16.212zm-.352-4.548-.249.12-.269.113.141-.697.128-.227.12-.113.129-.119.27-.113-.141.575z" fill="#595857"/><path d="M60.485 32.933a2 2 0 0 1-.89.66q-.546.212-1.167.214-.907 0-1.635-.422a2.05 2.05 0 0 1-.969-1.192l1.049-.594q.212.496.623.771.408.275.977.275.461.002.733-.186a.61.61 0 0 0 .27-.542.66.66 0 0 0-.18-.47 1.4 1.4 0 0 0-.454-.294q-.273-.105-.742-.248a9 9 0 0 1-1.03-.367 1.8 1.8 0 0 1-.684-.544q-.286-.362-.286-.957-.001-.628.335-1.068.331-.439.88-.654a3.2 3.2 0 0 1 1.177-.217q.861 0 1.475.391.611.39.79 1.055l-1.048.594a1.4 1.4 0 0 0-.478-.652c-.215-.156-.478-.235-.8-.235q-.436 0-.706.198a.62.62 0 0 0-.27.526.55.55 0 0 0 .17.413q.17.166.428.266c.172.068.411.147.706.236q.64.187 1.057.376.418.192.715.566.298.375.297.988.001.664-.343 1.113m2.68-3.168h2.93v-2.55h1.298V33.7h-1.297v-2.792h-2.931V33.7h-1.288v-6.486h1.288zm9.698 1.195h-2.637v1.612h3.048v1.125h-4.336v-6.486h4.237v1.116h-2.95v1.523h2.638zm2.692-3.746 3.152 4.288v-4.288h1.199V33.7h-1.049l-3.161-4.296V33.7h-1.18v-6.486zm10.17 0v.71l-3.02 4.623h3.146V33.7h-4.94v-.718l3.03-4.624h-2.754v-1.144zm2.435 2.551h2.93v-2.55h1.298V33.7H91.09v-2.792h-2.93V33.7h-1.288v-6.486h1.287zm9.698 1.195H95.22v1.612h3.047v1.125h-4.335v-6.486h4.237v1.116h-2.95v1.523h2.638v1.11m2.693-3.746 3.152 4.288v-4.288h1.198V33.7h-1.048l-3.161-4.296V33.7h-1.18v-6.486zm12.623 0h1.287v3.862c0 .557-.11 1.037-.328 1.45q-.33.616-.95.948-.623.332-1.475.333c-.567 0-1.07-.11-1.484-.333a2.25 2.25 0 0 1-.95-.948q-.328-.615-.328-1.45v-3.862h1.287v3.554q0 .939.387 1.4.385.46 1.088.462c.469 0 .822-.153 1.079-.462q.387-.46.387-1.4zm3.799 0 3.152 4.288v-4.288h1.198V33.7h-1.048l-3.161-4.296V33.7h-1.181v-6.486zm7.177 6.483h-1.287v-6.486h1.287zm2.373-6.483 1.742 4.688 1.671-4.688h1.377l-2.533 6.486h-1.091l-2.628-6.486h1.466zm9.637 3.746h-2.637v1.612h3.048v1.125h-4.335v-6.486h4.237v1.116h-2.95v1.523h2.637zm7.052 2.737-1.536-.009-1.582-2.33h-.993v2.34h-1.288V27.21h2.247q.764 0 1.34.257.579.258.889.73.312.476.31 1.086c0 .407-.107.777-.319 1.09a2.03 2.03 0 0 1-.898.718zm-4.111-5.394v1.966h.809c.38 0 .693-.082.948-.244q.377-.245.377-.74c0-.33-.126-.585-.374-.744q-.373-.238-.951-.238zm9.091 4.63c-.227.3-.525.517-.89.66q-.547.212-1.168.214-.907 0-1.634-.422a2.05 2.05 0 0 1-.969-1.192l1.049-.594q.212.496.622.771.409.275.978.275.461.002.733-.186a.61.61 0 0 0 .27-.542.65.65 0 0 0-.181-.47 1.4 1.4 0 0 0-.454-.294 9 9 0 0 0-.742-.248 9 9 0 0 1-1.03-.367 1.8 1.8 0 0 1-.684-.544q-.285-.362-.285-.957-.001-.628.334-1.068.332-.439.88-.654a3.2 3.2 0 0 1 1.178-.217c.573 0 1.067.131 1.474.391q.612.39.791 1.055l-1.048.594a1.4 1.4 0 0 0-.478-.652c-.215-.156-.479-.235-.801-.235q-.435 0-.705.198a.62.62 0 0 0-.27.526q-.001.248.169.413.168.166.429.266.263.102.705.236.64.187 1.058.376.417.192.715.566.298.375.297.988.001.664-.343 1.113m2.676.764h-1.287v-6.486h1.287zm.923-6.483h5.24v1.144h-1.971V33.7h-1.297v-5.342h-1.972zm8.601 2.658 1.474-2.658h1.395l-2.265 3.933v2.55h-1.288v-2.56l-2.364-3.923h1.518l1.527 2.658zm6.19-1.205a2.87 2.87 0 0 1 1.116-1.166q.708-.403 1.576-.403.871 0 1.576.404.707.403 1.119 1.165.414.76.414 1.78c0 .678-.138 1.28-.414 1.789a2.9 2.9 0 0 1-1.119 1.165q-.707.403-1.576.403a3.1 3.1 0 0 1-1.576-.403 2.87 2.87 0 0 1-1.116-1.166q-.409-.761-.408-1.788c0-.686.135-1.273.408-1.78m1.168 2.923q.217.496.613.768.396.27.911.269.515 0 .911-.27.396-.268.613-.767.217-.496.218-1.143-.001-.647-.218-1.138a1.76 1.76 0 0 0-.613-.762 1.6 1.6 0 0 0-.911-.269q-.515 0-.911.27t-.613.76a2.8 2.8 0 0 0-.217 1.139q0 .646.217 1.143m5.866-4.376h4.237v1.125h-2.95v1.658h2.637v1.116h-2.637V33.7h-1.287zM59.488 37.113l2.628 6.486H60.75l-.568-1.48H57.65l-.552 1.48H55.81l2.548-6.486h1.131m.273 3.908-.87-2.275-.844 2.275zm5.8-3.908q.95.001 1.717.382.769.38 1.212 1.114.445.73.444 1.74.001 1.008-.445 1.746-.445.734-1.208 1.12-.762.384-1.723.384h-2.167v-6.486zm-.15 5.389q1.05 0 1.607-.56.56-.558.56-1.593c0-.691-.186-1.205-.563-1.581q-.564-.564-1.604-.563h-.73v4.297zm5.544-5.389 1.741 4.688 1.671-4.688h1.377L73.212 43.6h-1.091l-2.628-6.486h1.466zm8.152 0L81.74 43.6h-1.367l-.568-1.48h-2.532l-.552 1.48h-1.288l2.548-6.486zm.276 3.908-.87-2.275-.844 2.275zm4.67-3.908 3.152 4.288v-4.288h1.199V43.6h-1.049l-3.161-4.296V43.6h-1.18v-6.486zm9.839 5.165q.342-.247.546-.69l1.076.62q-.24.655-.88 1.076-.639.422-1.527.422a3 3 0 0 1-1.573-.416 3 3 0 0 1-1.128-1.183q-.418-.767-.417-1.758 0-.992.414-1.756c.276-.507.65-.902 1.128-1.177A3.07 3.07 0 0 1 93.108 37c.573 0 1.1.14 1.527.422q.64.421.88 1.077l-1.076.62a1.7 1.7 0 0 0-.546-.69 1.35 1.35 0 0 0-.812-.249q-.498 0-.89.267a1.8 1.8 0 0 0-.616.758q-.226.491-.227 1.147.001.654.227 1.153.225.495.616.761.392.266.89.266.47 0 .812-.248zm6.914-1.416H98.17v1.612h3.048v1.125h-4.336v-6.486h4.238v1.116h-2.95v1.523h2.637zm4.176-3.749q.95.001 1.717.382a2.87 2.87 0 0 1 1.211 1.114q.446.73.445 1.74.001 1.008-.445 1.746-.445.734-1.208 1.12-.762.384-1.723.384h-2.168v-6.486zm-.15 5.389q1.05 0 1.607-.56c.371-.373.561-.902.561-1.593s-.187-1.205-.565-1.581q-.565-.564-1.603-.563h-.73v4.297zm7.165-5.389h5.24v1.144h-1.971v5.342h-1.297v-5.342h-1.972zm10.465 3.749h-2.637v1.612h3.048v1.125h-4.336v-6.486h4.238v1.116h-2.95v1.523h2.637zm5.51 1.416q.342-.247.546-.69l1.076.62q-.24.655-.88 1.076-.639.422-1.527.422a3 3 0 0 1-1.573-.416 3 3 0 0 1-1.128-1.183q-.418-.767-.417-1.758 0-.992.414-1.756a2.94 2.94 0 0 1 1.128-1.177 3.06 3.06 0 0 1 1.576-.416c.573 0 1.101.14 1.527.422q.64.421.88 1.077l-1.076.62a1.7 1.7 0 0 0-.546-.69 1.35 1.35 0 0 0-.813-.249q-.497 0-.889.267a1.8 1.8 0 0 0-.616.758q-.226.491-.227 1.147.001.654.227 1.153.225.495.616.761.392.266.889.266.471 0 .813-.248zm4.277-2.611h2.931v-2.55h1.297v6.485h-1.297V40.81h-2.931v2.792h-1.288v-6.486h1.288zm7.168-2.554 3.152 4.288v-4.288h1.199V43.6h-1.048l-3.161-4.296V43.6h-1.181v-6.486zm6.344 1.453a2.87 2.87 0 0 1 1.116-1.165q.708-.405 1.576-.404.871 0 1.576.404.706.403 1.119 1.165.414.76.414 1.78c0 .679-.138 1.28-.414 1.789q-.415.761-1.119 1.165-.707.403-1.576.403a3.1 3.1 0 0 1-1.576-.403 2.87 2.87 0 0 1-1.116-1.165q-.409-.762-.408-1.79c0-.684.135-1.272.408-1.78m1.168 2.923q.218.496.614.768.395.27.91.269.515 0 .911-.27.394-.268.613-.767.217-.496.218-1.143-.001-.647-.218-1.138a1.75 1.75 0 0 0-.613-.761 1.57 1.57 0 0 0-.911-.27 1.57 1.57 0 0 0-.91.27q-.396.27-.614.761a2.8 2.8 0 0 0-.217 1.138q0 .647.217 1.143m6.222-4.375h1.287v5.334h2.959v1.152h-4.246zm5.427 1.453a2.86 2.86 0 0 1 1.116-1.165q.707-.405 1.576-.404a3.1 3.1 0 0 1 1.576.404q.706.403 1.119 1.165.414.76.414 1.78c0 .679-.138 1.28-.414 1.789a2.9 2.9 0 0 1-1.119 1.165q-.709.403-1.576.403-.871 0-1.576-.403a2.86 2.86 0 0 1-1.116-1.165q-.409-.762-.408-1.79c0-.684.135-1.272.408-1.78m1.168 2.923q.216.496.613.768.396.27.911.269.515 0 .91-.27.397-.268.613-.767.218-.496.218-1.143t-.218-1.138a1.75 1.75 0 0 0-.613-.761 1.57 1.57 0 0 0-.91-.27q-.516 0-.911.27a1.75 1.75 0 0 0-.613.761 2.8 2.8 0 0 0-.218 1.138q.001.647.218 1.143m9.091-.378v-1.107h2.486v2.64q-.304.486-.962.773a3.6 3.6 0 0 1-1.463.287q-.952.001-1.686-.425a2.97 2.97 0 0 1-1.147-1.186q-.409-.761-.408-1.746c0-.658.141-1.248.423-1.756a3 3 0 0 1 1.159-1.177 3.26 3.26 0 0 1 1.635-.416c.597 0 1.119.135 1.557.404q.663.402.892 1.03l-1.067.612a1.5 1.5 0 0 0-.561-.642 1.56 1.56 0 0 0-.861-.236q-.524 0-.942.266a1.8 1.8 0 0 0-.656.762q-.239.496-.239 1.153c0 .437.083.838.245 1.168q.244.495.693.761t1.043.266q.692 0 1.082-.382v-1.055h-1.226zm6.494-1.34 1.474-2.657h1.396l-2.266 3.933v2.55h-1.288v-2.56l-2.364-3.923h1.518l1.527 2.658z" fill="#595857"/></g><defs><clipPath id="clip0_393_386"><path fill="#fff" d="M0 0h183v46H0z"/></clipPath></defs></svg>