<svg width="128" height="137" fill="none" xmlns="http://www.w3.org/2000/svg"><g filter="url(#a)" fill="#004ea2"><path d="M64 20c24.235 0 44 19.765 44 44s-19.765 43.999-44 43.999-44-19.765-44-44S39.766 20 64 20m0 1.753c-23.269 0-42.247 18.978-42.247 42.246 0 23.27 18.978 42.247 42.247 42.247 23.27 0 42.247-18.977 42.247-42.247 0-23.268-18.978-42.246-42.247-42.246"/><path d="M48.545 82.752a24.5 24.5 0 0 1-6.547-8.41A24.14 24.14 0 0 1 39.68 64c0-13.393 10.924-24.317 24.319-24.317S88.317 50.607 88.317 64c0 3.693-.832 7.201-2.317 10.343a24.5 24.5 0 0 1-6.547 8.41l-.558-.674a23.65 23.65 0 0 0 6.314-8.109A23.3 23.3 0 0 0 87.442 64c0-12.91-10.53-23.442-23.442-23.442S40.558 51.088 40.558 64c0 3.563.8 6.943 2.231 9.97a23.65 23.65 0 0 0 6.314 8.109l-.558.674Z"/><path fill-rule="evenodd" clip-rule="evenodd" d="m64.147 86.457-4.98-7.6c1.53-.787 1.34-3.242.03-3.446-1.459-.228-2.62-.298-3.643-2.591h2.373l-.729-1.989c-2.714.238-3.268-.516-4.555-2.636l3.39-.116-.685-1.73c-3.695.17-4.67-.735-5.592-2.84l4.305-.152-.932-2.059c-4.409.123-5.342-.001-6.959-2.983l5.477-.027-.772-1.961c-4.992.215-6.24-.273-7.652-2.77l11.22-.284c1.636-.041 3.503 1.073 4.19 2.557l1.35 2.911 1.42-4.9c.732-2.525 6.25-1.61 8.025.07l-3.337 1.208 1.633 3.976c1.183-2.77 2.633-5.823 5.752-5.823h11.008c-.847 2.432-2.891 3.645-7.336 2.858l-.78 2.059 5.488-.017c-1.313 3.063-2.771 3.448-6.854 2.984l-.853 2.059 4.37.142c-.84 1.94-2.362 3.101-5.736 2.698l-.71 2.004 3.48-.016c-.998 2.439-1.641 2.983-4.813 2.84l-.727 1.989 2.506.01c-1.053 2.122-1.366 2.374-3.614 2.573-1.337.119-1.933 2.26-.153 3.528zm-37.826-7.771-1.659-4.451.907-.316 7.604 1.16-1.163-3.122.906-.316 1.519 4.077-.906.316-7.605-1.158 1.303 3.495zm2.896 6.072-.458-.89 3.577-1.84-1.134-2.206-3.577 1.84-.459-.89 7.647-3.932.458.89-3.22 1.655 1.134 2.207 3.22-1.657.458.89zm3.627 4.843-2.716-3.793 7.17-4.454 2.585 3.609-.797.494-1.972-2.753-2.224 1.381 1.812 2.53-.796.495-1.812-2.53-2.558 1.589 2.105 2.939zm6.094 5.963-.91-.768 5.278-6.484.91.768zm4.088 2.856 1.081-2.298-1.31-.95-1.952 1.9-.891-.688 6.187-6.114 1.241.757-3.295 7.991zm1.58-3.423 1.29-2.963-.119-.097-2.23 2.27 1.06.79Zm4.622 6.422-1.118-.52.652-5.966-2.444 5.015-1.115-.512 3.878-7.68 1.007.467-.468 5.668 2.521-4.68.938.39zm5.774 1.722-.72-.235.066-.676q-.253.217-.67.279a1.8 1.8 0 0 1-.841-.075q-.895-.29-1.321-1.402-.43-1.112.17-3.06.656-2.128 1.616-2.963c.638-.554 1.609-.864 2.468-.589.924.295 1.524 1.432 1.258 3.005l-1.104-.09c.19-.674.094-1.725-.564-1.94a1.44 1.44 0 0 0-1.511.416q-.57.636-1.114 2.404-.516 1.675-.288 2.447.23.773.781.953.552.18 1.004-.147.45-.327.73-1.232l.154-.498-1.316-.43.265-.86 2.165.708zm11.438-1.895q-.037 1.162-.619 1.82-.583.656-1.794.61-1.212-.045-1.75-.744-.538-.7-.501-1.861l.19-5.858 1.031.038-.19 5.858q-.025.823.321 1.224.346.402.93.425.582.02.953-.354.372-.373.399-1.196l.19-5.858 1.031.038-.19 5.858Zm5.87 1.565-.92.139-2.9-5.59.443 6.001-1.094.157-.642-8.416 1.259-.117 2.392 3.921-.444-4.22.914-.157zm3.144-.882-1.079.327-2.243-7.966 1.079-.327zm2.911-10.095 1.364 8.795-1.064.525-4.659-7.465 1.026-.432 3.238 5.09-.898-6.08zm8.652 4.986-3.931 2.125-4.28-7.35 3.738-2.021.476.816-2.853 1.541 1.328 2.28 2.62-1.416.476.815-2.622 1.417 1.527 2.622 3.046-1.646zm4.479-3.141-.865.739-3.046-2.524-.788.713 2.059 2.8-.865.906-5.043-7.08 1.608-1.151c.514-.369 1.19-.632 1.798-.56 1.57.188 2.241 1.245 2.17 2.475-.023.388-.045.767-.198 1.152zm-5.434-4.987c-.64-.175-1.144.32-1.605.68l1.676 2.213c.512-.369.75-.449 1.138-1.117.168-.803-.191-1.498-1.209-1.776"/><path fill-rule="evenodd" clip-rule="evenodd" d="M94.216 86.843c1.758 1.056 1.348 4.053-.962 4.403-.622.094-1.352-.094-1.666-.293l.394-.896c.381.085.767.222 1.132.153 1.497-.285 1.43-1.84.558-2.485-.304-.224-.74-.253-1.1-.213-1.01.113-1.657.867-2.78.937-1.23.077-2.085-.672-2.286-1.868a2.48 2.48 0 0 1 .36-1.742c.65-1.018 2.03-1.156 3.035-.563l-.39.925c-.544-.289-1.509-.288-1.872.28q-.284.447-.198.912c.126.675.587 1.067 1.237.988 1.091-.132 1.829-1.03 2.902-.995.512.017 1.119.146 1.636.457m3.708-1.092-.633.777-7.248-4.544.633-.777zm-3.658-9.167-.803 1.486 6.846 4.025-.462.855-6.844-4.026-.802 1.487-.855-.503 2.065-3.827zm1.256-5.654 4.174 3.73 2.788 1.194-.339.94-2.583-1-5.947-.138.286-.952 4.15.067-2.939-2.703.41-1.139ZM38.298 91.82q-1.108 1.103-2.067 1.136-.958.032-1.74-.763-.71-.724-.703-1.689.005-.488.283-1.005l.94.574q-.12.244-.126.467-.013.526.324.872.476.483.999.44.523-.045 1.274-.79l4.18-4.138.779.794zm14.221-1.45-2.93-1.818.266-.46 1.087.677 1.743-3.034-1.089-.676.237-.412q.618.383.986.432c.244.03.45-.066.617-.296l.624.386-2.34 4.079 1.063.66zm8.737-1.852q.07-.349-.243-.634-.317-.282-.96-.371-.59-.083-1.006.076-.42.153-.492.51a.55.55 0 0 0 .104.464q.154.205.508.4.156.084.479.236.32.151.591.25c.345-.11.59-.244.736-.389q.218-.225.283-.542m-.38 2.625c.043-.216.012-.392-.09-.537q-.159-.216-.674-.488a6 6 0 0 0-.46-.21q-.289-.12-.651-.278-.487.132-.781.377-.297.25-.368.608c-.064.316.031.59.283.838q.377.37 1.042.46c.453.066.834.026 1.142-.11q.465-.21.556-.66Zm-1.817 1.29a4.8 4.8 0 0 1-1.068-.268 2.5 2.5 0 0 1-.77-.449 1.4 1.4 0 0 1-.413-.568 1.14 1.14 0 0 1-.053-.633q.086-.422.507-.728.42-.305 1.126-.423l.004-.02q-.549-.305-.782-.61a.84.84 0 0 1-.15-.702q.12-.59.883-.883.767-.298 1.82-.15 1.099.15 1.683.618c.39.307.546.657.469 1.04q-.072.35-.456.647-.388.3-1.022.406l-.003.023q.66.311.96.665a.93.93 0 0 1 .203.83q-.134.668-.975 1.013-.84.348-1.963.191Zm10.136-3.213q0-.537-.148-.875a1.2 1.2 0 0 0-.41-.52 1.4 1.4 0 0 0-.47-.236 2.2 2.2 0 0 0-.526-.062q-.651 0-1.038.312-.389.309-.388.9c0 .224.04.403.127.549q.126.218.416.372c.132.07.285.122.454.148a3.7 3.7 0 0 0 1.277-.043q.394-.082.684-.21a2 2 0 0 0 .021-.335Zm-4.056-.451q0-.41.197-.742.2-.339.546-.582c.217-.157.485-.275.804-.364a3.6 3.6 0 0 1 .963-.13q.544 0 .987.121t.766.352q.408.291.634.759.224.471.225 1.19 0 .654-.22 1.238a2.4 2.4 0 0 1-.648.971 3.1 3.1 0 0 1-1.096.626q-.64.216-1.58.216-.21.001-.45-.014a4 4 0 0 1-.446-.06v-.676h.054q.133.052.415.096.28.047.571.046 1.04 0 1.634-.455.594-.459.673-1.306a4.4 4.4 0 0 1-.807.281q-.387.089-.837.088-.44 0-.8-.065a2.7 2.7 0 0 1-.726-.246 1.63 1.63 0 0 1-.642-.546 1.43 1.43 0 0 1-.217-.798m11.486-4.503-.193 5.431-.832.526.074-5.135-3.173 1.54-.28-.611 3.99-2.07.414.32Zm3.99-41.534c-.586-.394-.124-.444-.006-1.033.1-.506-.143-1.141.01-1.486.413-.931 1.602-.389 2.216.206.109.105.184.365.241.614.142.62.257 1.483-.479 1.809-.634.282-1.472.233-1.982-.11m-6.907-3.898-.052-.05c.033-.07.066-.14.096-.2.23.004 2.431-.44 2.447-.488.67-.2 1.305-.47 1.71-1.064-1.414-.092-2.963.348-4.297-.073-.542-.389-.822-.879-1.17-1.229l.022-.072c-.505-.721-.339-1.322.515-1.27 1.189.81 3.558.675 4.972.698.324-.013 1.23.022 1.546-.142.976-1.606 1.476-3.408 2.235-5.014.896-1.023 1.38.155 1.813.974.055.104.137.295.196.578.02.006.184.905-.486 1.175a6.8 6.8 0 0 0-1.498 2.462c.947.23 1.802-.337 2.846.061.057.58-.137.977-.756 1.195-.901.06-1.851.057-2.863.105-.548.789-1.318 1.715-2.212 2.178-.13.067-.737.302-.869.322-.685.101-1.341.296-2.018.222-1.869-.204-1.858-.29-2.177-.368m-22.025 3.041c-.77-.139-1.611-.805-2.117-1.225.014-.2.029-.401.057-.594 1.303-1.637 2.612-3.184 3.7-5.015.266-.8.66-1.666.96-2.467.018-.017.06-.1.052-.12.33-.432.483-.562.972-.125.144.436-.57 1.108-.67 1.6-.175.864-.637 3.038-.959 3.865-.205.527-1.084 3.459-1.617 3.934a4 4 0 0 0-.378.147m8.077-8.181c-1.01.218-1.46-.348-2.157-.786-.086-.26.033-.46.005-.647.236-.123.925-.442 1.371-.588.54-.281 1.748-1.68 2.355-1.373.393 1.194-.608 2.765-1.574 3.394m-8.174.09c-.47-.237-.947-1.76-1.105-2.237.06-.94.917-1.2 1.787-.83.775.608 1.248.82.877 1.863-.528.772-.822.892-1.56 1.204Zm7.205-2.682c-.226-.443.159-1.617-.09-1.811-.232.1-.457.254-.706.336-.677-.134-1.528-.694-1.436-1.323.313-.62.174-.448.86-.673a114 114 0 0 1 1.764-1.386c1.066-.501 1.742-.021 2.097 1.059-.013.763-.34 1.446-.658 2.126-.51.479-.955.981-1.402 1.474-.152.061-.29.13-.429.198m-6.961-1.575c-.29-.146-.22-.284-.15-.526-.15-.456-.526-.759-.67-1.195-.062-.854-.296-1.11.277-1.678.583.095 2.655.553 2.488 1.69-.334.765-1.242 1.432-1.945 1.71ZM37.737 60.288c-.884.662-2.645.24-2.92-.954-.193-.844-1.264-3.22-1.722-4.503-.23-.4-.498-.708-.35-1.162.297-.087.648.229.913.473.133-.039.34-.37.324-.595-.066-.936-.101-1.96-.269-2.885-.243-.194-.485-.39-.713-.588-.158.475-.693 2.025-1.251 1.223.12-.632.167-1.677-.207-2.291-.472-.481-1.136-.794-1.357-1.325.062-.751 1.204-.974 1.889-.7.547.023.495-1 1.179.667.024.275.297.436.605.58l.14-.187c-.043-.72-.089-1.504-.056-2.27-.7-.657-1.288-1.201-1.719-2.008-.03-.789.848-1.28 1.616-1.546.235-.432.224-.8.184-1.343.046-.175.046-.175.222-.452.269.01.496.096.802.263.647.776-.552 3.272.676 3.418.23-.422-.127-.84-.33-1.176.046-.609.955-1.409 1.605-1.664.977-.127.938.425.976 1.267q.074.174.155.333c1.275.858 1.275.858 3.045 1.948.55.474.61 1.258.666 1.496.035.15.292 1.267-.284 1.364-1.45-.903-2.895-1.928-4.303-2.746a.2.2 0 0 0-.023.087c.636.547 1.515 2.084 1.571 2.962-.314.575-.93.837-1.502.7-.107-.146-.073-.277-.1-.454-.445-.715-1.683-1.366-2.315-1.76-.218.491.324 1.894.494 2.472q.053.518.115 1.022c.437.5.885.956 1.37 1.458.181.285.371.575.561.866l-.036.067c.224.433.726 1.703-.117 1.742a2 2 0 0 1-.234-.14c-.29-.657-.827-1.36-1.396-1.733-.166.67.096 1.379-.206 1.929-.185.337-.547.506-.805.613-.273.115-.446.174-.464.275.248.298.532.58.77.893.943 1.25 1.745 2.483 2.822 3.68.08.34.067.432-.02.684Zm-6.193-5.42c-.358.016-.553-.401-.835-.592-.989-.241-1.73-.41-2.093-1.366a3 3 0 0 1 .131-.264c.502-.212 1.447-.37 2.084-.42 1.225.22.871 1.757.713 2.642m-2.669-2.775c-.202.164-.245.128-.342.124-.139-.225-.197-.393-.423-.48-1.082.02-2.233-.744-2.076-1.853.19-.233.404-.103.822 0 .902-.218 2.238-.84 2.354.62-.078.535-.22 1.08-.335 1.589m61.753-2.713c-.464-.866.746-1.842 1.297-2.175.794.17.797 1.448.267 2.057-.747.51-.833.609-1.564.118"/><path fill-rule="evenodd" clip-rule="evenodd" d="M89.248 58.013c-.01-.038-.013-.069-.021-.092-.908-.788-1.643-1.674-2.141-2.7.032-.104.032-.104.124-.211.71.183 1.278.88 2.09.745.419-.317.772-.589 1.05-.941-.9-.782-1.943-.632-2.856-1.048-.61-.53-1.12-2.06-.838-2.684.73-.74.556-.256 1.396.476 1.107.76 2.583 1.144 3.888 1.642.336.046.336.046.488.105.808-.412 1.057-.383 1.821.12.373.122.373.122 1.539.397.089-.053.178-.105.275-.15-1.237-.96-3.017-.944-4.485-1.221-.556-.31-.817-.71-.987-1.148-.22-.163-1.514-1.056-.548-.969.455.193.936.206 1.438.396 1.38.26 2.815.725 4.22 1.092.13-.149.151-.274.163-.337.189-.184.316-.247.51-.338-.224-.108-.26-.168-.415-.072-.764-.287-1.466-.029-1.409-.978-.58.35-1.23.35-1.725-.08-.236-.712.537-1.518.815-1.972.01-.077.247-.45.469-.938.218-.651.303-1.533.96-1.671.543.125.756.18.59.92.062.428.121 1.248.043 1.616-.124.593-.34 1.44-.888 1.92.394.096 1.034.16 1.162-.337-.192-.63.418-.78.846-.64.193.211.193.211.48.447.093-.107.085-.114.092-.223-.225-.457-.08-.475.287-.663-.254-.54.008-1.108.455-1.255 1.446.852 1.446.852 2.16 1.212.807-.094 2.413-.943 2.888-.023-.037.475-.314 1.06-.782 1.449-.272.096-.549.131-.785.302.074.065.142.138.208.21.722.237 1.229.17.803 1.176.22.713.452.813-.396 1.322-1.014.35-2.103.72-3.158 1.034a.5.5 0 0 0-.102.084c.068.104.138.208.2.32-.254.358-.622.748-.999 1.115-.718.143-1.084-.218-1.608-.615-.88-.288-1.65-.567-2.533-.784-.109.108-.234.202-.321.401.29.267.58.549.871.83.114.52-.483 1.073-1.015 1.218-.368-.276-.603-.423-.983-.535-.184.129-.369.258-.56.396-.579.636-1.724 2.435-2.776 1.68m9.286-5.8-.03-.083c.504-.446.654-.62.133-.986-.144.034-.419.1-.424-.078-.006-.192.917-.405 1.058-.485.264.23.651.667.683 1.115-.366.42-.848.508-1.42.517"/></g><defs><filter id="a" x="-13" y="0" width="154" height="157" filterUnits="userSpaceOnUse" color-interpolation-filters="sRGB"><feFlood flood-opacity="0" result="BackgroundImageFix"/><feColorMatrix in="SourceAlpha" values="0 0 0 0 0 0 0 0 0 0 0 0 0 0 0 0 0 0 127 0" result="hardAlpha"/><feOffset dy="16"/><feGaussianBlur stdDeviation="6.5"/><feColorMatrix values="0 0 0 0 0 0 0 0 0 0 0 0 0 0 0 0 0 0 0.03 0"/><feBlend in2="BackgroundImageFix" result="effect1_dropShadow_49_8303"/><feBlend in="SourceGraphic" in2="effect1_dropShadow_49_8303" result="shape"/></filter></defs></svg>