<svg xmlns="http://www.w3.org/2000/svg" viewBox="0 0 128 46.9"><defs><style>.cls-1{fill-rule:evenodd}.cls-1,.cls-2{fill:#004ea2}</style></defs><g id="_图层_1" data-name="图层_1"><path class="cls-1" d="M55.9 14.9s-.6-.8-.9 0c-.4.9-.3 1.3 0 2.1.4.8 1.1.3 1.4-.4s-.6-1.8-.6-1.8Zm-.8 3.5s-.3-.2-.4-.6c0-.4-.9.5-.9.9s0 .6.4 1.1c.3.5 0 .8 0 .8s-.2.6.8.2 1.2-1.3.8-1.8c-.3-.4-.7-.7-.7-.7Zm-.1 3.1s-1.6 2.3-2.4 3-.8 1.4-.6 2.4 1.3 1.2 1.6-.1c.2-1.3.9-2.4 1.3-3 .3-.6.8-.2.8-.2s.9 0 1.3-.7.4.3.2.6-.8 1 0 1 1.4-.8 1.7-1.8v-.9s1.1-1.3 1.7-1.8v1.1s-.8 1.1.1 1.3 1.3-.6 1.6-1.6h.3v3.5s1.4 0 1.7-2v-2.4s.8-.6.8-1.1-.6-.4-.6-.4-.3-.1-.3-.4c0 0-.4-.2-.8.3s-.6.7-.8.6c-.3 0 0-.4.3-.6.2-.1.6-.7 1-.8.4 0 .6-.1.6-.5s0-.9-1-.4c-.9.5-1.2.4-1.4 0s-.8-.3-.9.3c0 .7-.2 1.5-.2 1.5l-1.2.8s-.8.1-.4-.2.7-.5.7-.5v-.4s-.6-.6-.8-1.1-1.1-.7-1.2.2c0 .9-.1 1.3-.6 1.7-.5.3-1.4.8-.5 1.1s.3.5 0 .9-1.5 1.2-1.7.8l-.4-.3Zm19.5-7s-.4-.5-.7.3.1 1.4 0 1.9 1.1.3 1.5 0 .4-1.1-.1-1.6c-.5-.4-.7-.7-.7-.7ZM72.6 18c-.4.3-.7.9-.5 1.4.2.6.4.4.5 1.1 0 0 .7.4 1.2-.6.6-1-.4-1.6-.4-1.6s-.3-.7-.8-.4Zm2.1 2.8s0-.9-.7.3c-.7 1.1-3.2 3.7-4.5 4.2-1.3.6.2 1.7.2 1.7s.7.9 1.6-.3 2.4-3 3.4-5.5zm3.2-3.4s-.9.3-.4 1 .5 1.1 1.3.8c.7-.3.7 0 .6.3s-.6 1-.5 1.4c0 0 1.2 0 1.5-.6.3-.5 1.4-1.5 1.4-2.2s-.4-1.6-1.3-1.3-2.5.8-2.5.8Zm-.7 4.1s-.8.3-.1 1c.6.7 1.4.9 2.3.3s1.1-1 1.1-2c0 0-.5-.1-1.2.1-.7.3-2.2.5-2.2.5Zm10.6-.5c-.7 0-1-.3-.8.9 0 0 .2.8 1.7 1.1.4 0 .7 0 1.1-.2.3 0 .6-.2.9-.4.4-.3.8-.4.8-.4s.6-.1.5.2c0 .3-.6 1.2-2 1.7s-.3.9.2.8c.5 0 2.4-.3 3.3-2.5s1.8-1.9 1.8-1.9 1.6-.8 1.8-1.6c.1-.9-.7-.4-1-.2s-1 .5-1.2.6c0 0 .2-.9.5-1.4s.6-2-.4-3-1.2-.5-1.4.5.2 1.9-.2 3.5-.3 1.4-1.4 1.8c-1 .4-2.4.8-4 .6Zm8.5 1.6s-1-.6-1.3 0 .3 1.4.5 1.8c.3.4-.4.9.3.9s1.7-.3 1.3-1.8c-.2-.7-.8-1-.8-1Zm7.4-4.6c-.1 0-.7.2-.6 1.1 0 .8.5 1.5.9 1.4s.7-.5.6-1.6c0-.2-.2-.4-.3-.5-.2-.3-.5-.4-.6-.4m1.2-2.7c-.2 0-.7 0-.5 1.2s.6 1.5.6 2.5.9.6 1.1 0c.2-.5 1.2-.5 1.2-.5s.9 0 .4.3c-.6.4-3.7 2.4-3.7 2.4s-1.3.7.3.9c1.5.2 2.8-1 2.8-1s.5-.5.3.3-1.8 1.4-1.8 1.4-1.6.6-2.6.8-.7.2-.4.8 1.3 1 2.1.4 2.4-1.1 2.4-.5c0 .7-.2.8-1.2 1.1s-.5.5.7.9 1.9 0 1.9-.8v-2.2s.4-.3.7-.5c.3-.1.5-1.5-.4-1.7 0 0 .6-1.1 2-1.5 0 0 .5-.2.5-1s-1-.4-.2-1.4c.8-.9 1.9-1.9.7-3.1 0 0-.1-.3-1.1-.4 0 0 1-1.4-.3-1.9 0 0-.3-.2-.6.5-.4.8-.6.8-.7 1 0 .2-.3.2-.8 0-.4-.2-1.2 0-1.2.8 0 0 0 .2.3.5.3.2.6.3 0 .9-.6.5-.9-.3-.9.8 0 0 .7.5.2.8-.5.2-.4 0-.4-.4 0 .3-.4-1.3-1.5-1.7Zm5.3.7s-.8-.6-.8.3c0 0 0 .3.3.5.2.2.3.5.3 0 0 0 .2-.2.3-.4.2-.2 0-.5 0-.5ZM50.4 35.1v-.7l2-2.4h-1.7v-.6h2.7v.6l-2 2.5h2.1v.6h-3Zm3.8 0v-3.7h.8v1.5h1.5v-1.5h.8v3.7h-.8v-1.6H55v1.6zm4.1 0v-3.7h2.8v.6h-2v.8H61v.6h-1.9v1h2.1v.6h-2.8Zm5.1-3.7h.8v3.1c0 .2-.2.4-.4.5s-.4.2-.8.2-.7-.1-.8-.3q-.3-.3-.3-.9h.7v.4c0 .1.2.2.4.2s.3 0 .4-.1c0 0 .1-.3.1-.6v-2.4Zm1.8 3.7v-3.7h.8v3.7zm5.1 0h-.8l-.3-.8h-1.5l-.3.8h-.8l1.5-3.7h.8l1.5 3.7Zm-1.4-1.5-.5-1.4-.5 1.4zm2.1 1.5v-3.7h.7l1.5 2.5v-2.5h.7v3.7h-.8l-1.5-2.4v2.4h-.7Zm5.8-1.3v-.6h1.6v1.5c-.2.2-.4.3-.7.4s-.6.2-.9.2c-.4 0-.7 0-1-.2s-.5-.4-.7-.7c-.1-.3-.2-.6-.2-1s0-.7.2-1 .4-.5.7-.7c.2-.1.5-.2.9-.2s.8 0 1.1.3c.3.2.4.5.5.8h-.7l-.3-.3c-.2-.1-.3-.2-.5-.2-.3 0-.6.1-.8.3q-.3.3-.3.9c0 .6 0 .8.3 1 .2.2.5.3.8.3h.5c.2 0 .3-.1.4-.2v-.5h-.9Zm3.7-2.4h.8V34c0 .2.1.3.2.4.1 0 .3.1.5.1s.4 0 .5-.1c.1 0 .2-.2.2-.3v-2.7h.8v2.9c0 .2-.1.3-.2.5-.1.1-.3.2-.4.3-.2 0-.4.1-.7.1s-.6 0-.8-.1c-.2 0-.3-.2-.4-.3s-.2-.3-.2-.4v-2.9Zm4.1 3.7v-3.7h.7l1.5 2.5v-2.5h.7v3.7h-.8l-1.5-2.4v2.4h-.7Zm4 0v-3.7h.8v3.7zm2.7 0L90 31.4h.8l.9 2.8.9-2.8h.8l-1.3 3.7zm2.8 0v-3.7h2.8v.6h-2v.8h1.9v.6h-1.9v1H97v.6h-2.8Zm3.8 0v-3.7h2.5c.2 0 .3.2.4.4s.2.4.2.6 0 .5-.2.7-.4.3-.7.3c.2 0 .3.2.4.3s.2.3.4.6l.5.7h-.9l-.5-.8c-.1-.2-.3-.4-.4-.5l-.2-.2h-.6v1.6H98Zm.7-2.1h1.3s.2 0 .2-.2v-.3c0-.1 0-.2-.1-.3 0 0-.2-.1-.3-.1h-1.2v.9Zm3.1.9h.7c0 .2.1.4.3.5.1.1.3.2.5.2s.4 0 .5-.2c.1 0 .2-.2.2-.4v-.2s-.2-.1-.3-.2c-.2 0-.4-.1-.6-.2-.4 0-.7-.2-.8-.4-.2-.2-.3-.5-.3-.8 0-.2 0-.4.2-.5.1-.2.3-.3.5-.4.2 0 .4-.1.7-.1.5 0 .8.1 1.1.3.2.2.4.5.4.8h-.8c0-.2-.1-.3-.2-.4-.1 0-.3-.1-.5-.1s-.4 0-.5.1c0 0-.1.1-.1.2 0 0 0 .2.1.2 0 0 .3.2.7.2s.6.2.8.3c.2 0 .3.2.4.4 0 .2.1.4.1.6 0 .4-.3.8-.7 1-.2 0-.5.1-.8.1-.5 0-.8-.1-1.1-.3s-.4-.5-.5-1Zm4 1.2v-3.7h.8v3.7zm2.6 0V32h-1.1v-.6h3v.6h-1.1v3.1zm3.6 0v-1.6l-1.4-2.2h.9l.9 1.5.9-1.5h.9l-1.4 2.2v1.6z"/><path class="cls-2" d="M30.2 7.5c8.9 0 16.2 7.3 16.2 16.2s-7.3 16.2-16.2 16.2S14 32.6 14 23.7 21.3 7.5 30.2 7.5m0 .6c-8.6 0-15.5 7-15.5 15.5s7 15.5 15.5 15.5 15.5-7 15.5-15.5-7-15.5-15.5-15.5"/><path class="cls-2" d="M24.5 30.5c-1-.8-1.8-1.9-2.4-3.1s-.9-2.5-.9-3.8c0-4.9 4-8.9 8.9-8.9s8.9 4 8.9 8.9c0 1.3-.3 2.6-.9 3.8s-1.4 2.3-2.4 3.1l-.2-.2c1-.8 1.8-1.8 2.3-3 .5-1.1.8-2.4.8-3.7 0-4.7-3.9-8.6-8.6-8.6s-8.6 3.9-8.6 8.6.3 2.6.8 3.7c.5 1.2 1.3 2.2 2.3 3l-.2.2Z"/><path class="cls-1" d="m30.2 31.9-1.8-2.8c.6-.3.5-1.2 0-1.3-.5 0-1-.1-1.3-1h.9l-.3-.7c-1 0-1.2-.2-1.7-1h1.2l-.3-.7c-1.4 0-1.7-.3-2.1-1h1.6l-.3-.8c-1.6 0-2 0-2.6-1.1h2l-.3-.7c-1.8 0-2.3-.1-2.8-1h4.1c.6-.1 1.3.3 1.5.8l.5 1.1.5-1.8c.3-.9 2.3-.6 2.9 0l-1.2.4.6 1.5c.4-1 1-2.1 2.1-2.1h4c-.3.9-1.1 1.3-2.7 1l-.3.8h2c-.5 1.1-1 1.3-2.5 1.1l-.3.8h1.6c-.3.8-.9 1.2-2.1 1l-.3.7h1.3c-.4.9-.6 1.1-1.8 1l-.3.7h.9c-.4.8-.5.9-1.3.9-.5 0-.7.8 0 1.3l-1.7 2.7ZM16.3 29l-.6-1.6h.3c0-.1 2.8.3 2.8.3l-.4-1.1h.3c0-.1.6 1.4.6 1.4H19c0 .1-2.8-.3-2.8-.3l.5 1.3-.3.1Zm1.1 2.3-.2-.3 1.3-.7-.4-.8-1.3.7-.2-.3 2.8-1.4.2.3-1.2.6.4.8 1.2-.6.2.3zm1.3 1.8-1-1.4 2.6-1.6 1 1.3-.3.2-.7-1-.8.5.7.9-.3.2-.7-.9-.9.6.8 1.1-.3.2Zm2.3 2.1-.3-.3 1.9-2.4.3.3zm1.5 1.1.4-.8-.5-.3-.7.7-.3-.3 2.3-2.2.5.3-1.2 2.9-.4-.2ZM23 35l.5-1.1-.8.8.4.3Zm1.7 2.4-.4-.2.2-2.2-.9 1.8-.4-.2 1.4-2.8.4.2-.2 2.1.9-1.7h.3c0 .1-1.4 3-1.4 3Zm2.2.6h-.3v-.3s-.2 0-.2.1h-.3c-.2 0-.4-.2-.5-.5s0-.6 0-1.1c.2-.5.4-.9.6-1.1s.6-.3.9-.2.6.5.5 1.1h-.4c0-.3 0-.7-.2-.7s-.4 0-.6.2c-.1.2-.3.4-.4.9-.1.4-.2.7-.1.9 0 .2.2.3.3.3h.4c.1 0 .2-.2.3-.5v-.2l-.4-.2v-.3l.9.3-.5 1.5Zm4.2-.7c0 .3 0 .5-.2.7-.1.2-.4.2-.7.2q-.45 0-.6-.3c-.1-.2-.2-.4-.2-.7V35h.4v2.6s.2.2.3.2.3 0 .4-.1c0 0 .1-.2.1-.4v-2.2h.4v2.2Zm2.1.6h-.3l-1.1-2 .2 2.2h-.4l-.2-3h.5l.9 1.4-.2-1.6h.3l.4 3Zm1.2-.3H34c0 .1-.8-2.8-.8-2.8h.4c0-.1.8 2.8.8 2.8m1.1-3.7.5 3.2-.4.2-1.7-2.7.4-.2 1.2 1.9-.3-2.2.4-.2Zm3.1 1.8-1.4.8-1.6-2.7 1.4-.7.2.3-1 .6.5.8 1-.5.2.3-1 .5.6 1 1.1-.6.2.3Zm1.7-1.2-.3.3-1.1-.9-.3.3.8 1-.3.3-1.9-2.6.6-.4c.2-.1.4-.2.7-.2.6 0 .8.5.8.9v.4l1.2.9Zm-2-1.8c-.2 0-.4.1-.6.2l.6.8c.2-.1.3-.2.4-.4 0-.3 0-.6-.4-.7Z"/><path class="cls-1" d="M41.3 32c.6.4.5 1.5-.4 1.6-.2 0-.4 0-.6-.1v-.3h.6c.5-.1.5-.7.2-.9h-.4c-.4 0-.6.3-1 .3-.5 0-.8-.2-.8-.7 0-.2 0-.5.1-.6.2-.4.7-.4 1.1-.2v.3c-.3-.1-.7-.1-.8.1v.3c0 .2.2.4.5.4.4 0 .7-.4 1.1-.4.2 0 .4 0 .6.2Zm1.3-.4-.2.3-2.7-1.7.2-.3zm-1.3-3.3-.3.5 2.5 1.5-.2.3-2.5-1.5-.3.5-.3-.2.8-1.4.3.2Zm.5-2.1 1.5 1.4 1 .4v.3c-.1 0-1.1-.4-1.1-.4H41l.1-.4h1.5l-1.1-1 .2-.4Zm-21.1 7.7c-.3.3-.5.4-.8.4-.2 0-.4 0-.6-.3q-.3-.3-.3-.6c0-.1 0-.3.1-.4l.3.2v.5c.1.1.2.2.4.2.1 0 .3-.1.5-.3l1.5-1.5.3.3-1.5 1.5Zm5.3-.6-1.1-.7v-.2l.5.2.6-1.1-.4-.2v-.2c.2 0 .4.1.4.2 0 0 .2 0 .2-.1h.2c0 .1-.9 1.6-.9 1.6l.4.2v.2Zm3.2-.6v-.2c-.1 0-.2-.1-.4-.1h-.4c-.1 0-.2 0-.2.2v.2s.1 0 .2.1h.4s.2 0 .3-.1c0 0 0-.1.1-.2Zm-.2.9v-.2s-.2-.1-.2-.2h-.2s-.2 0-.2-.1c-.1 0-.2 0-.3.1 0 0-.1.1-.1.2s0 .2.1.3l.4.2h.4c.1 0 .2-.1.2-.2Zm-.6.5H28c-.1 0-.2 0-.3-.2l-.2-.2v-.2c0-.1 0-.2.2-.3.1 0 .3-.1.4-.2-.1 0-.2-.1-.3-.2v-.3c0-.1.1-.3.3-.3h.7c.3 0 .5.1.6.2s.2.2.2.4c0 0 0 .2-.2.2-.1 0-.2.1-.4.2.2 0 .3.2.4.3 0 0 .1.2 0 .3 0 .2-.2.3-.4.4s-.4.1-.7 0Zm3.7-1.2v-.3c0-.1-.2-.2-.3-.3h-.2c-.1 0-.3 0-.4.1 0 0-.1.2-.1.3v.2l.2.1h.9v-.1Zm-1.5-.2v-.3s.1-.2.2-.2c0 0 .2-.1.3-.1h.8c.1 0 .2 0 .3.1 0 0 .2.2.2.3v.9c0 .1-.1.3-.2.4s-.3.2-.4.2h-1v-.2h.4c.3 0 .5 0 .6-.2.1-.1.2-.3.2-.5-.2 0-.4.1-.6.1h-.6s-.2-.1-.2-.2zm4.2-1.6v2l-.4.2v-1.9l-1.1.6v-.2c-.1 0 1.4-.8 1.4-.8h.2Zm1.5-15.3c-.2-.1 0-.2 0-.4v-.5c.2-.3.6-.1.8 0v.2c0 .2 0 .5-.2.7-.2.1-.5 0-.7 0Zm-2.6-1.4.9-.2c.2 0 .5-.2.6-.4-.5 0-1.1.1-1.6 0-.2-.1-.3-.3-.4-.5-.2-.3-.1-.5.2-.5.4.3 1.3.2 1.8.3h.6c.4-.6.5-1.3.8-1.8.3-.4.5 0 .7.4v.2s0 .3-.2.4c-.2.2-.4.6-.5.9.3 0 .7-.1 1 0 0 .2 0 .4-.3.4h-1.1c-.2.3-.5.6-.8.8-.1 0-.2 0-.3.1-.3 0-.5.1-.7 0-.7 0-.7-.1-.8-.1Zm-8.1 1.1c-.3 0-.6-.3-.8-.5v-.2c.5-.6 1-1.2 1.4-1.8 0-.3.2-.6.4-.9.1-.2.2-.2.4 0 0 .2-.2.4-.2.6 0 .3-.2 1.1-.4 1.4 0 .2-.4 1.3-.6 1.4h-.1Zm3-3c-.4 0-.5-.1-.8-.3V12c.2 0 .3-.2.5-.2.2-.1.6-.6.9-.5.1.4-.2 1-.6 1.2m-3 0c-.2 0-.3-.6-.4-.8 0-.3.3-.4.7-.3.3.2.5.3.3.7-.2.3-.3.3-.6.4m2.7-.9v-.7s-.2 0-.3.1c-.2 0-.6-.3-.5-.5s0-.2.3-.2c.2-.2.4-.3.6-.5.4-.2.6 0 .8.4 0 .3-.1.5-.2.8l-.5.5h-.2Zm-2.6-.6c-.1 0 0-.1 0-.2 0-.2-.2-.3-.2-.4 0-.3-.1-.4.1-.6.2 0 1 .2.9.6-.1.3-.5.5-.7.6Zm-5.2 11.3c-.3.2-1 0-1.1-.3 0-.3-.5-1.2-.6-1.7 0-.1-.2-.3-.1-.4.1 0 .2 0 .3.2 0 0 .1-.1.1-.2 0-.3 0-.7-.1-1.1 0 0-.2-.1-.3-.2 0 .2-.3.7-.5.5v-.8c-.2-.2-.4-.3-.5-.5 0-.3.4-.4.7-.3.2 0 .2-.4.4.2 0 0 .1.2.2.2V17c-.3-.2-.5-.4-.6-.7 0-.3.3-.5.6-.6V15h.3c.2.3-.2 1.2.2 1.3 0-.2 0-.3-.1-.4 0-.2.4-.5.6-.6.4 0 .3.2.4.5v.1q.5.3 1.1.7c.2.2.2.5.2.5s.1.5-.1.5c-.5-.3-1.1-.7-1.6-1 .2.2.6.8.6 1.1q-.15.3-.6.3v-.2c-.2-.3-.6-.5-.9-.6 0 .2.1.7.2.9v.4c.2.2.3.4.5.5l.2.3c0 .2.3.7 0 .7-.1-.2-.3-.5-.5-.6v.7c0 .1-.2.2-.3.2s-.2 0-.2.1.2.2.3.3c.3.5.6.9 1 1.4v.2Zm-2.3-2c-.1 0-.2-.1-.3-.2-.4 0-.6-.2-.8-.5.2 0 .5-.1.8-.2.5 0 .3.6.3 1Zm-.9-1h-.1s0-.1-.2-.2c-.4 0-.8-.3-.8-.7h.3c.3 0 .8-.3.9.2 0 .2 0 .4-.1.6Zm22.7-1c-.2-.3.3-.7.5-.8.3 0 .3.5 0 .8-.3.2-.3.2-.6 0Z"/><path class="cls-1" d="M39.4 21.4c-.3-.3-.6-.6-.8-1 .3 0 .5.3.8.3.1 0 .3-.2.4-.3-.3-.3-.7-.2-1-.4-.2-.2-.4-.8-.3-1 .3-.3.2 0 .5.2.4.3.9.4 1.4.6h.2c.3-.2.4-.1.7 0q.1 0 .6.1s0 0 .1 0c-.5-.4-1.1-.3-1.6-.4-.2 0-.3-.2-.4-.4 0 0-.6-.4-.2-.4.2 0 .3 0 .5.1.5 0 1 .3 1.6.4v-.1s.1 0 .2-.1h-.2c-.3-.1-.5 0-.5-.4-.2.1-.5.1-.6 0 0-.3.2-.6.3-.7 0 0 0-.2.2-.3 0-.2.1-.6.4-.6.2 0 .3 0 .2.3v.6c0 .2-.1.5-.3.7.1 0 .4 0 .4-.1 0-.2.2-.3.3-.2l.2.2c0-.2 0-.2.1-.2 0-.2 0-.4.2-.5q.5.3.8.4c.3 0 .9-.3 1.1 0 0 .2-.1.4-.3.5 0 0-.2 0-.3.1.3 0 .5 0 .3.4 0 .3.2.3-.1.5-.4.1-.8.3-1.2.4v.1c-.1.1-.2.3-.4.4-.3 0-.4 0-.6-.2l-.9-.3-.1.1c.1 0 .2.2.3.3 0 .2-.2.4-.4.4-.1 0-.2-.2-.4-.2h-.2c-.2.4-.6 1-1 .8Zm3.5-2.1c.2-.2.2-.2 0-.4h-.2s.3-.1.4-.2c0 0 .2.2.2.4-.1.2-.3.2-.5.2Z"/></g></svg>