<svg xmlns="http://www.w3.org/2000/svg" viewBox="0 0 129 42.9"><defs><clipPath id="clippath"><path style="fill:none" d="M16 10.5h100v21.9H16z"/></clipPath><style>.cls-2{fill-rule:evenodd}.cls-2,.cls-3{fill:#004ea2}</style></defs><g style="clip-path:url(#clippath)" id="_图层_1" data-name="图层_1"><path class="cls-3" d="M112 30.1v-1l-.8-1.3h.5l.5.9.5-.9h.5l-.8 1.3v1h-.5Zm-2.2-.8v-.4h1v.9c-.1.1-.3.2-.4.2-.2 0-.4.1-.6.1s-.4 0-.6-.2c-.2 0-.3-.2-.4-.4 0-.2-.1-.4-.1-.6s0-.4.1-.6.2-.3.4-.4c.1 0 .3-.1.5-.1s.5 0 .7.2c.2.1.3.3.3.5h-.5s0-.1-.2-.2c0 0-.2-.1-.3 0-.2 0-.4 0-.5.2-.1.1-.2.3-.2.6s0 .5.2.6c.1.1.3.2.5.2h.3s.2 0 .2-.1v-.3h-.5Zm-3.4-.3c0 .3 0 .5.2.6.1.1.3.2.5.2s.3 0 .5-.2c.1-.1.2-.3.2-.6s0-.5-.2-.6c-.1-.1-.3-.2-.5-.2s-.3 0-.5.2c-.1.1-.2.3-.2.6m-.4 0c0-.2 0-.4.1-.6s.3-.4.5-.5h.5c.3 0 .6.1.8.3q.3.3.3.9c0 .6 0 .7-.3.9-.2.2-.5.3-.8.3s-.6-.1-.8-.3q-.3-.3-.3-.9Zm-2.1 1.1v-2.3h.5v1.9h1.1v.4zm-2.3-1.1c0 .3 0 .5.2.6.1.1.3.2.5.2s.3 0 .5-.2c.1-.1.2-.3.2-.6s0-.5-.2-.6c-.1-.1-.3-.2-.5-.2s-.3 0-.5.2c-.1.1-.2.3-.2.6m-.4 0c0-.2 0-.4.1-.6 0-.1.1-.2.2-.3 0 0 .2-.2.3-.2h.5c.3 0 .6.1.8.3q.3.3.3.9c0 .6-.1.7-.3.9s-.5.3-.8.3-.6-.1-.8-.3q-.3-.3-.3-.9Zm-2.4 1.1v-2.3h.4l.9 1.5v-1.5h.4v2.3h-.5l-.9-1.5v1.5h-.4Zm-2.5 0v-2.3h.5v.9h.9v-.9h.5v2.3h-.5v-1h-.9v1zm-1-.8h.4c0 .4-.2.6-.3.7-.2.1-.4.2-.6.2-.3 0-.6-.1-.8-.3s-.3-.5-.3-.8 0-.7.3-.9c.2-.2.5-.3.8-.3s.5 0 .7.2c.1.1.2.3.2.4h-.5s0-.1-.2-.2c0 0-.2-.1-.3-.1-.2 0-.3 0-.4.2-.1.1-.2.3-.2.6s0 .5.2.6c.1.1.2.2.4.2s.2 0 .3-.1c0 0 .2-.2.2-.4Zm-3.8.8v-2.3h1.7v.4H92v.5h1.1v.4H92v.6h1.3v.4h-1.7Zm-1.6 0v-1.9h-.7v-.4H91v.4h-.7v1.9h-.5Zm-3.4 0v-2.3h1.6v.4H87v.5h1v.4h-1v1zM84.2 29c0 .3 0 .5.2.6.1.1.3.2.5.2s.3 0 .5-.2c.1-.1.2-.3.2-.6s0-.5-.2-.6c-.1-.1-.3-.2-.5-.2s-.3 0-.5.2c-.1.1-.2.3-.2.6m-.4 0c0-.2 0-.4.1-.6 0-.1.1-.2.2-.3 0 0 .2-.2.3-.2h.5c.3 0 .6.1.8.3q.3.3.3.9c0 .6 0 .7-.3.9-.2.2-.5.3-.8.3s-.6-.1-.8-.3q-.3-.3-.3-.9Zm-2.3 1.1v-1l-.8-1.3h.5l.5.9.5-.9h.5l-.8 1.3v1h-.5Zm-2.2 0v-1.9h-.7v-.4h1.8v.4h-.7v1.9h-.5Zm-1.6 0v-2.3h.5v2.3zm-2.4-.7h.4c0 .1 0 .2.2.3 0 0 .2.1.3.1h.3s.1-.1.1-.2v-.1H76c-.2 0-.4-.1-.5-.2s-.2-.3-.2-.5v-.3c0-.1.2-.2.3-.2h.4c.3 0 .5 0 .6.2.1.1.2.3.2.5h-.5c0-.1 0-.2-.1-.2h-.6v.2s.2 0 .4.2.4.1.5.2c.1 0 .2.1.3.2v.4c0 .3-.2.5-.4.6h-.5c-.3 0-.5 0-.7-.2-.2-.1-.2-.3-.3-.6Zm-1.9-.6h.8v-.4h-.9v.6Zm-.5 1.3v-2.3h1.5c.1 0 .2.1.3.2v.4c0 .2 0 .3-.2.4 0 .1-.2.2-.5.2 0 0 .2.1.2.2 0 0 .2.2.3.4l.3.4h-.6l-.3-.5c0-.1-.2-.2-.2-.3h-.3v1h-.5Zm-2.3 0v-2.3h1.7v.4h-1.2v.5h1.1v.4h-1.1v.6h1.3v.4h-1.7Zm-1.7 0-.8-2.3h.5l.6 1.7.6-1.7h.5l-.8 2.3H69Zm-1.7 0v-2.3h.5v2.3zm-2.5 0v-2.3h.4l.9 1.5v-1.5h.4v2.3h-.5l-.9-1.5v1.5h-.4Zm-2.4-2.3h.5v1.6s0 .2.1.2h.6s.1-.1.1-.2v-1.7h.5v1.8c0 .1 0 .2-.1.3 0 0-.2.1-.3.2h-.9c-.1 0-.2-.1-.3-.2 0 0-.1-.2-.1-.3v-1.8Zm-2.4 1.5v-.4h1v.9c-.1.1-.3.2-.4.2-.2 0-.4.1-.6.1s-.4 0-.6-.2c-.2 0-.3-.2-.4-.4 0-.2-.1-.4-.1-.6s0-.4.2-.6c0-.2.2-.3.4-.4.2 0 .4-.1.5-.1.3 0 .5 0 .7.2.2.1.3.3.3.5h-.5s0-.1-.2-.2c0 0-.2-.1-.3 0-.2 0-.4 0-.5.2-.1.1-.2.3-.2.6s0 .5.2.6c.1.1.3.2.5.2h.3s.2 0 .2-.1v-.3h-.5Zm-3.5.8v-2.3h.4l.9 1.5v-1.5h.4v2.3h-.5l-.9-1.5v1.5h-.4Zm-1.3-.9-.3-.8-.3.8zm.9.9h-.5l-.2-.5h-.9l-.2.5h-.5l.9-2.3h.5zm-3.2 0v-2.3h.5v2.3zm-1.1-2.3h.5v1.8c0 .1-.1.2-.2.3-.1 0-.3.1-.5.1s-.4 0-.5-.2c-.1-.1-.2-.3-.2-.6h.4v.2s.1.1.2.1h.2v-1.9Zm-3.1 2.3v-2.3h1.7v.4h-1.2v.5h1.1v.4h-1.1v.6h1.3v.4h-1.7Zm-2.5 0v-2.3h.5v.9h.9v-.9h.5v2.3h-.5v-1h-.9v1zm-2.3 0v-.4l1.2-1.5h-1.1v-.4h1.7v.4l-1.3 1.5h1.3v.4h-1.9Z"/><path class="cls-2" d="M57.5 15.6s.4 0 .5.2c0 0 .1.7.3 1.2s.5.8.5.9c0 .2-.3.4-.3.5h-.3c-.2.1-.3 0-.5.4s-.4.6-.3.9.1 1 .1 1.3.3.8 1 .8h.8c.4 0 .4-.3.2.2-.1.3-1.2.8-1.5.9-.2 0-.9-.2-1-.3 0-.2-.2-1.8-.1-1.8.2-.3.3-.8.3-.9v-1.3c.3-.7 0-1.5 0-2 0-.2.2-.6.2-.7v-.3Zm3.4 2.7c.3 0 .9-.2 1.2-.3.3-.2.7-.5 1-.6h1.1c.4.1.6.5.2.8-.2.1-.7.3-.8.4 0 .5.2.3 0 .7-.1.2-.4.5-.4.7 0 .3 0 .5.1.5s1.4-.4 1.5-.3c.2.1.9.3.9.8s-.1.5-.3.6-.9 0-1.3-.1c-.5-.2-2.1 0-2.6.2-.3.1-.7.1-.8 0-.1 0-.5 0-.4-.3.2-.6 1-.3 1.6-.6 0 0 .6-1.7.5-1.8 0-.2 0-.2-.1-.2h-.2l-.6.3H61c-.2 0-.5-.2-.5-.2-.4-.1-.5-.8.3-.6Zm11.4-1c.1 0 .5.2.8.2.4 0 .6 0 1-.2 1-.2 1.6-.4 2.5-.7.4-.2.9.1.9.4 0 .2-.9.4-1 .5-.2 0-1.3.6-1.4.7-.1 0-.7.5-.3.9s.3.3.3.6c0 .5-.4.7-.6 1-.2.4-.3.7.6.5.3 0 .9-.1 1.6-.3h.6c.2.2.8.2.8.6 0 .6-.2.7-.4.7 0 0-.7 0-1.2-.2-.7-.2-1.7 0-1.7 0h-1.7l-1.6.3s-1.2.3-1.5 0c-.3-.2-.7-.4-.8-.8 0-.4.4-.4.5-.4 0 0 2 .4 3 0s1.1-1.4 1-1.6c0-.2 0-.5-.4-.7s-1-1-1-1-.2-.5 0-.5m13.8-3.6s.3.2.5.5.4.8.3 1.1c0 .3-.1 1.4-.1 1.4 0 .2-.2 1.2.1 1.1.3 0 .4 0 .5-.3 0-.2.4-.5.5-.5s2.4-1.7 3.4-2.4c.1-.1 0-.4 0-.5h.3s.6.3.5.8c0 .5-.2.4-.5.5-.9.2-.6.2-1.3.6-.2.1-2.5 1.2-2.3 1.4.1.2.3.1.3.1h.7c0 .1.3.3.1.6s-.9 1-1.1 1.3-.5.5-.4.5h.6s.5 0 .4.2c-.1.1-.4 0-.5.3-.1.2 0 .6 0 .6s.3-.1.4-.3.2-.2.2-.1c0 0 .1.3 0 .5 0 .2-.7.8-.7 1 0 0-.1 0 0 1.3 0 .6.2 1 .2 1s-.3.4-.6 0-1-.2-1-.2c-.3.8 0 .6-.6.9-.8.3-1.3-.5-1.3-.5-.3-.7 0-1.3.5-.6.2.4.4.5.7.3.1 0 .1-.4.5-.6 0 0 .3.1.4 0 .3 0 .5 0 .6-.2.2-.2.3-.4 0-.5-.2 0-.6 0-.8-.3-.2-.2-.6-.3-.5-.5s.9-.4.8-.6-.4-.5-.3-.5c.2 0 .5 0 .3-.3-.2-.2-.4-.2-.6-.3s0-.3.3-.3c.2 0 .6-.4.6-.4s1.5-1.4 1.2-1.6c-.3-.1-.8-.2-1.9.2 0 0-.2.2-.3.2h-.3c-.6.2-1.2.5-1.9 1-.4.3-.3.1-.4.4-.1.4-.7.4-.7.4-.2-.1-.9-.3-1-.4-.2-.2 0-.3.4-.4.4 0 1.9-.5 2.3-.8.4-.2 1.1-.4 1.2-.7.1-.4 0-1 0-1.6s-.1-1.2-.3-1.6c-.1-.3-.2-.9 0-1.2.2-.2.5 0 .5 0Z"/><path class="cls-2" d="M84 16.3c.2.3.3.4.4.3 0 0 1.3-.8 1.1-.7-.2.2-.6.7-.8 1v.4c-.1.3-.2.4-.4.4h-.4c0-.1-.2-.2-.3-.3-.2-.3-.3-.6-.3-.8 0-.3.5-.5.7-.3m3.3-1.1s-.2.3 0 .5c.1.2 0 0 .3.3.3.2.8-.1.8-.1l.3-.3s.7-.5.6-.6c-.1 0-1.1.4-1.3.4s-.3-.2-.4-.3h-.3Zm1.1 7.5s.5-.4.7-.2.7.4.7.8 0 .4-.3.7c-.2.3-.3.7-.6.8-.2.1-.2.3-.5.2-.2 0 0 0 0-.2.1-.3 0-.4 0-.6v-.8c0-.3 0-.3-.1-.5s0-.2 0-.3Zm7.5-4.1s0 .2.7.3c.6.2.5 0 1 0 .4 0 .7-.3.7-.3.2-1.1.2-2.2.3-3.2v-.5s0-.7.2-.9c.3-.2.9.5.8.8 0 .4-.5 3.4-.2 3.4s2.4-.6 2.4-.6c.4 0 .1-.4.3-.4.1 0 1 .2 1.3.4s.1.1 0 .3c-.1.1-1 0-1.3 0s-2.8.8-2.8 1-.2 1.5-.2 1.5-.1 1.6-.6 2-.4.4-.9.4c-.2 0-.4 0-.6-.1-.1 0-.4-.4-.5-.5-.2-.2-.2-.4.3-.9.2-.2.6-.3.7-.5s.3-.3.4-.5c.2-.5.3-.9.1-.8-.2 0-.9.2-.9.2h-.8c-.3 0-1.1-.4-.8-.8.1-.1.4-.2.4-.2Z"/><path class="cls-2" d="M100.3 20.3c.1 0 .8 0 1.2.4.4.5.6.4.7 1.1 0 .7 0 1-.3 1.1-.2.2-.5 0-.6 0-.7-.6-.3-.8-.7-1.4-.2-.2-.6-.7-.5-1 0-.3.2-.2.3-.2Zm9-7.6s.2.2.3.5c0 .2.2.9.3 1 .2.5 0 .2.2.6.1.3 0 .7 0 .9-.1.2-.1.2-.4 0s-.5-.4-.7-.8-.2-2.1.1-2.1c0-.1.3 0 .3 0Zm2.2 1.6c.3 0 .4.2.6.2.8 0 .9-.4 1.6-.7.4-.2 1.4-.2 1.4-.2.8 0 .9.7.8 1-.2.4-1.1.5-1.2.6-.1 0-2 .6-1.8.6s1.1.1 1.5.4c.7.5.9.7.9 1.3s0 1.5-.7 1.7c-.4.1-.8 0-1.2 0-.2 0-.4.2-.3.3 0 0 0 .3-.2.6s-.3.4-.5.6c-.2.3-.1.3 0 .5l.3.3c.2.2.2.3.2.3s.3-.1.4-.1.6-.2 1.1 0 .7.2.7.5c0 .2 0 .4-.2.5q-.3.3-.6 0c-.1-.1-1.2-.4-1.2-.2v1.1c0 .5-.1 1.8-1.1 1.3 0 0-.1-.2-.4-.3-.6-.2-1.4-.3-1.7-.4-.4-.1-.6-.4-.4-.4.8-.1 1.9.2 2.6-.5.2-.2.3-.7 0-.8-.1-.1-.8.1-1.3.2-.3 0-.4.1-.5 0-.4-.1-1.1-.3-1-.4 0-.2.2-.1.7-.1s1.8-.2 2-.3c.2 0 .3-.2 0-.6s-.4-.2-.4-.5v-.3s.1 0 .2-.2c.2-.3.5-.5.5-.7 0-.3 0-.6-.4-.7-.3 0-.9.2-1.1.4s-.3.6-.5.5c-.2 0 0-.2 0-.5s0-.4.2-.5c0 0 .7-.6 1.2-.6.3 0 .8.2 1.1.4 0 0 .1-.2.2-.2 0 0 1.3 0 1.4-.4.1-.3.3-.8.1-1.3-.4-.9-1.5-.9-2.2-.7-.9.3-2.5 1.8-2.5 1.8s-.5.6-.8 1.4c-.3.6 0 1.4-.8 1.4-.4 0-.6-.9-.5-1.2 0 0 .1-.4 0-.6s-.4-.4-.2-.5c.2 0 .7 0 1-.4 1.3-1.3 1.7-1.4 3.4-2.4.2-.1 0-.2.5-.4.5-.1 1-.6 1.1-.7.2-.2-.1-.4-.5-.3-.2 0-.3.2-.6.3h-.5c-.3-.1-.8-.8-.5-.7Zm-68.7 2.2c.2 0 .5 0 .6.3v.4c0-.1.3-.2.4-.2 0 0 .3-.2.4-.3 0 0 .3-.3.3-.5s-.2-.4-.7-.5c-.4-.1-.5 0-.8 0-.1 0-.4.2-.5.2s-.3.2-.3.4c0 .3.4.3.6.3Zm.1 1.8c.2-.1.6-.3.8-.3s.8-.2 1.2.1c.4.4.4.6.2.9-.3.8-.5.3-.9.7s-.7 1.2-.8 2.3c0 .2 0 0 .2 0 .1 0 .8-.7 1-1s.5-.8.5-1.1v-.5s1.6-.7 1.8-1.2.1-.9.2-1.1c0-.2 0-1.9.1-2.1 0-.2 0-1.1.3-1.2.2-.1.3-.3.3-.2h.3s.2 0 0 .6 0 .7 0 .7.2.1.4.8c.1.7 0 .9-.3 1.7-.3.5-.6.8-.7 1.1v1.6s.1.2.3 0l.1-.1c.6-.5 1.3-.9 1.4-1.2 0-.2.2-.8.2-1s0-.7.1-.7c0 0 .5 0 .6-.2.4-.2.5-.5.5-1 0-.2 0-.4-.1-.5 0-.1-.2-.4 0-.5.2 0 .5-.3.7-.3.1 0 .6.2.7.4.3.3.2.8 0 1.1-.2.2-.6.4-.7.5-.3.2-.7.5-.7.7v.8c0 .5 0 .5.1.6h.4c.4-.2 1-.6 1.4-1.1.1-.1.2-.3.3-.4s.3-.2.4-.2h.4s.6.3.2.7c-.4.5-1.6 1.1-1.6 1.4s0 1.3-.2 1.6-.3 1-.3 1.3c0 .2-.3 1.2 0 2.1.5 1.2 0 1.5 0 1.5-.3 0-1-.3-1-.7v-3.1c.2-.6 0-2.3-.4-.9-.2.4-.2.8-.5.9-.2.1-.5 0-.7 0-.2-.1-.2-.6-.2-1s.4-.9.3-1c0-.1 0-.2-.5 0-.4.3-1 1.1-1.1 1.6v.9c0 .3 0 .5.1.6.1.3.7 1.6.6 1.8-.1.3 0 .2-.2.2s-.7-.5-.7-.7c0-.1-.4-1.2-.6-1.1-.2 0-.3 0-.4.1-.2.2-.3.1-.3.1s-.5 0-.6-.6v-.8c.4-.2 1.5-.9 1.6-1.3v-1s-.3 0-.4.2q-.3.3-.6.3c-.2 0-.3-.2-.5 0-.2.1-.3.6-.3.6s-.2.6-.4 1c-.1.3-.4 1-.5 1.4s0 1.1-.3 1.3c-.2.2-.3.2-.4.3-.4.2-1-.7-1.1-1.2v-.9s.3-.1.5-.5c.3-.7.6-1.9.5-2.3 0-.6-.8-.5-1-.7-.5-.5.2-.5.5-.6Zm4 3.9c.1 0 .1.2.1.4s0 .5-.1.5-.2-.2-.3-.4c0-.2.1-.4.2-.4Zm.6-5.8v-.8s0-.3.2-.3c0 0 .3 0 .4.6 0 .6 0 1-.3 1.2-.7.9-.3-.4-.4-.8ZM27 10.7c5.9 0 10.7 4.8 10.7 10.7S32.9 32.1 27 32.1s-10.7-4.8-10.7-10.7S21.1 10.7 27 10.7m0-.2c6.1 0 11 4.9 11 10.9s-4.9 10.9-11 10.9-11-4.9-11-10.9 4.9-10.9 11-10.9"/><path class="cls-2" d="M27 14.8c3.6 0 6.6 3 6.6 6.6S30.6 28 27 28s-6.6-3-6.6-6.6 3-6.6 6.6-6.6m0-.3c3.8 0 6.9 3.1 6.9 6.9s-3.1 6.9-6.9 6.9-6.9-3.1-6.9-6.9 3.1-6.9 6.9-6.9m-9 3.1h.2v-.3H18s-.1 0-.1.2v.2h.1m2.5-3.3h.1s.1.1.3.2.2 0 .3 0v.3c0 .1 0 .2.1.2s.2.2.3.2h.3s.1 0 .2-.1c0 0 0-.1 0 0 0 0 0 .4-.1.4 0 0-.2.1-.3.1l-.3-.3s0-.2-.1-.2c0 0-.2-.2-.2-.3 0-.2-.3-.3-.3-.4v-.2m.8 0s.2-.2.2-.3 0-.2.1-.3l.2-.2s.2 0 .2.1v.2c0 .1.1 0 .1.1v.2s0 .1.1 0l.2-.3h.3v.2c0 .1-.2.2-.3.2s-.4.4-.5.5c0 0-.1.1-.1.2s-.1 0-.1 0c0-.1.1-.2.2-.4l-.2-.4v.2s-.1 0-.2.1h-.1s-.2 0 0-.2m2.8-1.7h.5c.3-.1.4-.2.7-.3h.3s-.2.2-.3.2-.2.2-.4.2c0 0-.2.2 0 .3.1.1.1 0 .1.1s0 .2-.1.3c0 .1 0 .2.2.1 0 0 .2 0 .4-.2h.2s.2 0 .2.1v.2H25l-.4.2s-.3.1-.4 0c0 0-.2 0-.2-.2s0-.1.1-.1c0 0 .6 0 .8-.1s.2-.3.2-.5c0 0 0-.1-.1-.2-.1 0-.3-.2-.3-.2v-.1Zm4.7-1.2v.5l-.1.3s-.1.3 0 .3h.3s.7-.3 1-.4v-.1s.1.1 0 .3c0 .1 0 .1-.2 0h-.4s-.7.1-.7.2h.2v.2s-.3.2-.4.3-.2 0-.1.1h.2s.1 0 0 0h-.1v.2h.1v.1l-.2.2-.1.3v.3h-.2c0-.1-.3-.1-.3-.1-.1.2 0 .2-.2.2s-.3-.2-.3-.2c0-.2.1-.3.2-.1 0 .1 0 .2.2.1 0 0 0-.1.2-.1h.2s.1 0 0-.1c0 0-.2 0-.2-.1 0 0-.1-.1 0-.2h.3v-.2s.1 0 0 0l-.1-.1h.2s.5-.3.4-.3h-.5c-.2 0-.4 0-.5.1H28c0 .1-.2 0-.2 0s-.2-.1-.2-.2h1.1s0-.2.1-.4v-.7h.1"/><path class="cls-2" d="M28.5 11.9v.1s.4-.1.3-.1-.2.1-.3.2v.1h-.1v-.3h.2m.8-.1v.2h.3s.2-.1.2-.2h-.4m-.3 2.1h.2s.2.2.1.3 0 .1-.1.2c0 0-.1.2-.2.2h-.1v-.4Zm2.6.3v.2l.2.2h.2c.2-.2.4-.4.6-.7 0-.1.1-.3.2-.3 0 0 .1.3 0 .3l-.7.7.6.3h.1s.2.2.2.3c0 0-.2-.2-.3-.2 0 0-.7-.3-.8-.3s-.2.2-.3.3c0 0-.3.3-.5.3H31l-.1-.1V15s0-.1.2-.1h.4c.1 0 .2-.1.2-.2h-.2c0-.1-.1-.2-.2-.3 0 0-.2-.3 0-.3h.1m1 1.3s.2.2.2.3v.4c-.1.2-.2.2-.3.2 0 0-.1 0-.1-.1v-.7Zm3.1.6v.1l-.1.2v.1s-.1.1-.2.1v-.2l.4-.3m-.1.6v.1c.1.2.2.1.3.2l.2.2c.1.1 0 .3 0 .3s-.2-.1-.3-.1c0 0-.4-.3-.4-.2s.1.2.1.3c0 .2 0 .3-.1.4s-.3.2-.4.1l-.2-.2h-.3s.1 0 .1.2v.2h-.1s0-.3-.1-.2c0 0-.2.1-.2.2 0 0-.3.2-.4 0V18c0-.1-.1-.3-.2-.4v-.1c.1.1.2.4.5.4 0 0 .2 0 .2-.1l-.2-.2v-.2l.1.1.3.3h.1v-.1h.2s.1-.1 0-.2l-.2-.1h-.2.2s.2 0 .3.1v.2s.2.2.3.2c0 0 .2 0 .3-.2s0-.4-.2-.5-.7-.2-.7-.2h-.4c-.1 0-.3.2-.4 0 0 0 0-.2.1-.3h.1c.1 0 0-.1 0-.1s0 .1.2.1c.4 0 .5.1.9.3h.4v-.1h-.1v-.2m-16.6-.1-.1-.1h.2c.2 0 .2.2.2.2 0 .3-.1 0-.2 0m1 1h.1zv-.1Zm-1.4.2v-.2s0-.2.2-.2c.1 0 .2 0 .2.1.1.2 0 .1 0 .3s.1.3.3.5c0-.2 0-.4-.2-.6 0 0 .1-.4 0-.5 0-.1-.2-.2-.2-.2s-.4-.3-.4-.4l-.2-.2h.1c0 .1.1.1.1.1h.2q.15 0 .3.3c0 .1 0 .2.1.3v.1l.2.2V17l-.2-.2-.1-.1v-.1c0-.1 0-.2-.1-.3h-.2v-.2h.2s.2 0 .2.2v.5c0 .1.1 0 .2.1 0 .1.1 0 .1 0v-.6h.2v.5s.3.2.3.3c0 0 .1.2.2.3 0 0 .2.3.4.3.3 0 .3.2.3.2s-.2.1-.3 0c0 0-.1 0-.1-.1 0 0-.4-.3-.5-.4 0-.1-.4-.4-.2 0 0 .1.1.2.1.2s0 .1-.1.1c0 0-.2 0-.2-.1l-.1-.2v.1c0 .1 0 .4.1.5l.2.1h.1s.4.1.4.2h-.5v.1h-.2c-.1 0-.2-.1-.2-.1v-.5l-.2-.2v.5s0 .2.1.2c0 0 .1.2.2.3 0 0 .2.2.2.3v.1c0 .1-.3 0-.4 0l-.2-.2v-.2c0-.2-.3-.4-.4-.5h-.3c-.2 0 0-.1 0-.2Z"/><path class="cls-3" d="M36.3 21.5h-.4l-.5.1v-.2h.4c0-.1-.4-.3-.4-.3v-.2l.5.2h.4v.2Zm-1 .8v-.1h.3c-.2 0-.2 0-.3.1v.1l.1.1h.7c.1 0 .2 0 .2-.1v-.1H36v-.2h.3s.1.2 0 .3c0 0 0 .2-.2.2h-.4c-.1 0-.3 0-.4-.1 0 0-.1-.1-.1-.2Zm.3 1h.5l-.1-.1c-.1 0-.2 0-.3-.1h-.4s-.2 0-.2.1c0 0 0 .1.1.2s.2 0 .3.1Zm-.3 0s-.1-.1-.1-.2v-.2l.2-.1h.4c.1 0 .3 0 .4.1 0 0 .1.2.1.3 0 0 0 .2-.2.2h-.4c-.1 0-.2 0-.3-.1Zm-.2.6.8.2.1-.1c0-.2 0-.2-.2-.3s.3.1.3.1l-.2.5v-.1l-.8-.2v-.3.1Zm.1 1h.5v-.1s-.2-.1-.3-.2h-.5v.2s.2.1.3.2Zm-.4 0s-.1-.1-.1-.2v-.1h.6c.1 0 .2.1.3.2 0 0 .1.2 0 .3 0 0-.1.2-.2.2H35c-.1 0-.2 0-.3-.2Zm-.4.7v-.2h.8l-.5-.2V25v.1l.9.4h-.9l.7.3v.2-.1l-.8-.3Zm-.4.7.1-.2v.1l.3.2.2-.2-.3-.2.1-.2v.1l.7.4h.1l-.1.2v-.1l-.3-.2-.2.2.4.2-.1.2-.7-.4Zm-.2.9c-.1 0-.2-.2-.2-.3v-.2h.1s.1 0 .2.1h-.4v.2s.1.2.2.3c.1 0 .2.1.3.2h.2v-.4.4h-.3c-.1 0-.2 0-.3-.1Zm-.4.1h-.2l-.2.2.3.3.2-.2v-.1l.3.2h-.1l-.2.2.3.3h.1c.1 0 .2-.2.1-.2v-.2l.1.2-.4.4v-.1l-.6-.6H33zl.2.2Zm-.7.4s-.1 0-.1.1l.5.6h.1l-.2.2v-.1l-.5-.6v.1l-.1-.2.5-.4.2.2h-.2Zm-1.1 1.1v-.2l.2.3h-.3c0 .1.2.5.2.5h.1l-.3.2v-.1l-.4-.7H31l.6-.3v.2c.1 0 0 0 0 0l-.2-.1-.3.2.2.3.2-.1Zm-1.1.6c0 .1.1.2.2.3h.1v-.5c0-.1-.1-.2-.2-.3h-.2v.5Zm-.1-.3v-.2h.3s.2.2.2.3v.4c0 .1 0 .2-.2.2h-.3s-.2-.2-.2-.3v-.3Zm-1.1 1.2V30l-.3-.4h-.1.3v.1l.2.4v-.4h.2v.8h-.3Zm-.7-.8h-.2v.8h.2-.3s.1 0 .1-.1v-.8h-.2v.1-.2h.6v.1s0-.1-.1-.2Zm-1 .1v.8h.2-.4.2zh-.2.4zm-.8.9h-.4v-.3.2h.2v-.3s-.2-.1-.3-.2v-.4h.3v.3-.2h-.2v.1l.1.1h.2c0 .1 0 .2.1.2v.4Zm-.9-.9v.3h.1v-.4Zm-.3.4v.3h-.3v-.8c.1 0 0 0 0 0h.5v.8c.1 0 .1.1.2.1h-.2v-.5h-.2Zm-.4-.4v-.2H25l-.1.3h.2v.4-.2h-.2v.4h.3l.1-.1-.1.3h-.6v-.2h.1l.2-.8.5.1v.2Zm-.9-.4h.2l-.6.8v-1h.2l-.1.1v.6zm-.8-.4-.4.7.1.1-.4-.1h.2l.4-.7-.1-.1.4.1zm-1-.5v-.1h.2v.7l.2-.5h.2-.1l-.5.8zc.1 0-.3.6-.3.6H22l.4-.7Zm-.7.2-.2.2h-.2v-.4l.4-.5.2.1-.4.5v.3h.1s.1 0 .2-.1l.4-.5.2.1h-.1l-.4.4Zm-.8-1.6-.1.1-.1.1c0-.1.1-.2.1-.3v-.1h-.2c-.1 0-.2 0-.3.2 0 0-.2.2-.2.3v.2h.1s.1 0 .2-.2.2.1.2.1l-.2.2h-.2v-.3c0-.1.1-.2.2-.3.1 0 .2-.2.3-.2h.2Zm-.7-.7v-.1l.1.1-.4.7.5-.3.1.1-.8.5.4-.8-.6.4v.1l-.1-.1.7-.5Zm-.7-.2.3-.3h-.4v.3Zm-.2.2.1-.2v-.2h-.3v-.1h.2l.9-.2-.7.6-.1-.2Zm.3-1.2-.8.3v.2l-.2-.3s0 .1.1.1l.8-.3v-.2l.2.3s0-.1-.1-.1m-1.3-.7h.1l.7-.3v-.2l.1.4s0-.1-.1-.1l-.6.2h-.3v-.2Zm.6-.6s.1 0 .2-.1v-.2l-.5.1v.2h.2l-.4.1s.1 0 .1-.1v-.2l-.4.1c0 .1 0 .2.1.2h.2-.3l-.2-.5.8-.2V23l.1.5h-.2Zm-.2-1.3v.2h-.4v.4h.4v-.2.2H18v.2-.2h.4v-.4H18v.2-.2h.8v-.1Zm0-.5v-.2h-.3.3v.5l-1-.3v.3h.3-.3v-.6zm9.6 4.7h.1v.1h.1c.1 0 .2 0 .2-.2v-.1h-.1v-.1h.1v-.2h-.2v.1h-.1s0-.2.1-.2h.3s.1.1.1.2v.1h-.1.1v.4h-.4v-.2m-1.3.1h.1v.1h.2v-.4h-.4v-.5h.5c0 .1-.4.1-.4.1v.3h.3v.4s-.2.1-.3.1h-.2v-.2Zm-.7-.4V26h-.2v.4h.2zm-.4.4h.1v.1h.3v-.2h-.3v-.4h.4l.1.1v.6c0 .1-.2.2-.3.2h-.2v-.2Zm-.7.2h-.1V26l-.2.1c0-.1.1-.2.2-.2l.1-.1zm5.6-5h-1.7l-.9-2h1.1c.8 0 1.5-.7 1.5-1.5s-.7-1.5-1.5-1.5h-2.4l-.3-.8-.3.8h-2.4c-.8 0-1.5.7-1.5 1.5s.7 1.5 1.5 1.5h1.1l-.9 2h-1.7c-.8 0-1.5.7-1.5 1.5s.7 1.5 1.5 1.5h3.7v-.3c.1 0 .4-.8.4-.8l.2.5v.3c.1 0 .2.3.2.3h3.7c.8 0 1.5-.7 1.5-1.5s-.7-1.5-1.5-1.5Zm-1.4-4c.3 0 .5.2.5.5s-.2.5-.5.5h-1.5l-.4-1h2Zm-5.5 1c-.3 0-.5-.2-.5-.5s.2-.5.5-.5h2l-.2.5-.2.5h-1.5Zm6.9 4.9h-3l-.2-.6-.4-1-.5-1.2-1.1 2.8h-3c-.3 0-.5-.2-.5-.5s.2-.5.5-.5h2.3l1.4-3.3.4-.9.5 1.2 1.3 3h2.3c.3 0 .5.2.5.5s-.2.5-.5.5"/></g></svg>